<?xml version="1.0" encoding="utf-8" standalone="no"?>
<!DOCTYPE svg PUBLIC "-//W3C//DTD SVG 1.1//EN"
  "http://www.w3.org/Graphics/SVG/1.1/DTD/svg11.dtd">
<svg xmlns:xlink="http://www.w3.org/1999/xlink" width="434.7pt" height="576pt" viewBox="0 0 434.7 576" xmlns="http://www.w3.org/2000/svg" version="1.1">
 <metadata>
  <rdf:RDF xmlns:dc="http://purl.org/dc/elements/1.1/" xmlns:cc="http://creativecommons.org/ns#" xmlns:rdf="http://www.w3.org/1999/02/22-rdf-syntax-ns#">
   <cc:Work>
    <dc:type rdf:resource="http://purl.org/dc/dcmitype/StillImage"/>
    <dc:date>2022-09-15T10:18:46.857054</dc:date>
    <dc:format>image/svg+xml</dc:format>
    <dc:creator>
     <cc:Agent>
      <dc:title>Matplotlib v3.5.3, https://matplotlib.org/</dc:title>
     </cc:Agent>
    </dc:creator>
   </cc:Work>
  </rdf:RDF>
 </metadata>
 <defs>
  <style type="text/css">*{stroke-linejoin: round; stroke-linecap: butt}</style>
 </defs>
 <g id="figure_1">
  <g id="patch_1">
   <path d="M 0 576 
L 434.7 576 
L 434.7 0 
L 0 0 
z
" style="fill: #ffffff"/>
  </g>
  <g id="axes_1">
   <g id="patch_2">
    <path d="M 54.3375 512.64 
L 391.23 512.64 
L 391.23 69.12 
L 54.3375 69.12 
z
" style="fill: #ffffff"/>
   </g>
   <g id="matplotlib.axis_1">
    <g id="xtick_1">
     <g id="line2d_1">
      <path d="M 69.650795 512.64 
L 69.650795 69.12 
" clip-path="url(#pe432f07ee2)" style="fill: none; stroke: #cccccc; stroke-width: 0.8; stroke-linecap: round"/>
     </g>
     <g id="text_1">
      <!-- 0 -->
      <g style="fill: #262626" transform="translate(69.388282 529.627249)rotate(-45)scale(0.088 -0.088)">
       <defs>
        <path id="DejaVuSans-30" d="M 2034 4250 
Q 1547 4250 1301 3770 
Q 1056 3291 1056 2328 
Q 1056 1369 1301 889 
Q 1547 409 2034 409 
Q 2525 409 2770 889 
Q 3016 1369 3016 2328 
Q 3016 3291 2770 3770 
Q 2525 4250 2034 4250 
z
M 2034 4750 
Q 2819 4750 3233 4129 
Q 3647 3509 3647 2328 
Q 3647 1150 3233 529 
Q 2819 -91 2034 -91 
Q 1250 -91 836 529 
Q 422 1150 422 2328 
Q 422 3509 836 4129 
Q 1250 4750 2034 4750 
z
" transform="scale(0.015625)"/>
       </defs>
       <use xlink:href="#DejaVuSans-30"/>
      </g>
     </g>
    </g>
    <g id="xtick_2">
     <g id="line2d_2">
      <path d="M 86.677392 512.64 
L 86.677392 69.12 
" clip-path="url(#pe432f07ee2)" style="fill: none; stroke: #cccccc; stroke-width: 0.8; stroke-linecap: round"/>
     </g>
     <g id="text_2">
      <!-- 80 -->
      <g style="fill: #262626" transform="translate(84.435333 533.58634)rotate(-45)scale(0.088 -0.088)">
       <defs>
        <path id="DejaVuSans-38" d="M 2034 2216 
Q 1584 2216 1326 1975 
Q 1069 1734 1069 1313 
Q 1069 891 1326 650 
Q 1584 409 2034 409 
Q 2484 409 2743 651 
Q 3003 894 3003 1313 
Q 3003 1734 2745 1975 
Q 2488 2216 2034 2216 
z
M 1403 2484 
Q 997 2584 770 2862 
Q 544 3141 544 3541 
Q 544 4100 942 4425 
Q 1341 4750 2034 4750 
Q 2731 4750 3128 4425 
Q 3525 4100 3525 3541 
Q 3525 3141 3298 2862 
Q 3072 2584 2669 2484 
Q 3125 2378 3379 2068 
Q 3634 1759 3634 1313 
Q 3634 634 3220 271 
Q 2806 -91 2034 -91 
Q 1263 -91 848 271 
Q 434 634 434 1313 
Q 434 1759 690 2068 
Q 947 2378 1403 2484 
z
M 1172 3481 
Q 1172 3119 1398 2916 
Q 1625 2713 2034 2713 
Q 2441 2713 2670 2916 
Q 2900 3119 2900 3481 
Q 2900 3844 2670 4047 
Q 2441 4250 2034 4250 
Q 1625 4250 1398 4047 
Q 1172 3844 1172 3481 
z
" transform="scale(0.015625)"/>
       </defs>
       <use xlink:href="#DejaVuSans-38"/>
       <use xlink:href="#DejaVuSans-30" x="63.623047"/>
      </g>
     </g>
    </g>
    <g id="xtick_3">
     <g id="line2d_3">
      <path d="M 103.703989 512.64 
L 103.703989 69.12 
" clip-path="url(#pe432f07ee2)" style="fill: none; stroke: #cccccc; stroke-width: 0.8; stroke-linecap: round"/>
     </g>
     <g id="text_3">
      <!-- 160 -->
      <g style="fill: #262626" transform="translate(99.482385 537.54543)rotate(-45)scale(0.088 -0.088)">
       <defs>
        <path id="DejaVuSans-31" d="M 794 531 
L 1825 531 
L 1825 4091 
L 703 3866 
L 703 4441 
L 1819 4666 
L 2450 4666 
L 2450 531 
L 3481 531 
L 3481 0 
L 794 0 
L 794 531 
z
" transform="scale(0.015625)"/>
        <path id="DejaVuSans-36" d="M 2113 2584 
Q 1688 2584 1439 2293 
Q 1191 2003 1191 1497 
Q 1191 994 1439 701 
Q 1688 409 2113 409 
Q 2538 409 2786 701 
Q 3034 994 3034 1497 
Q 3034 2003 2786 2293 
Q 2538 2584 2113 2584 
z
M 3366 4563 
L 3366 3988 
Q 3128 4100 2886 4159 
Q 2644 4219 2406 4219 
Q 1781 4219 1451 3797 
Q 1122 3375 1075 2522 
Q 1259 2794 1537 2939 
Q 1816 3084 2150 3084 
Q 2853 3084 3261 2657 
Q 3669 2231 3669 1497 
Q 3669 778 3244 343 
Q 2819 -91 2113 -91 
Q 1303 -91 875 529 
Q 447 1150 447 2328 
Q 447 3434 972 4092 
Q 1497 4750 2381 4750 
Q 2619 4750 2861 4703 
Q 3103 4656 3366 4563 
z
" transform="scale(0.015625)"/>
       </defs>
       <use xlink:href="#DejaVuSans-31"/>
       <use xlink:href="#DejaVuSans-36" x="63.623047"/>
       <use xlink:href="#DejaVuSans-30" x="127.246094"/>
      </g>
     </g>
    </g>
    <g id="xtick_4">
     <g id="line2d_4">
      <path d="M 120.730586 512.64 
L 120.730586 69.12 
" clip-path="url(#pe432f07ee2)" style="fill: none; stroke: #cccccc; stroke-width: 0.8; stroke-linecap: round"/>
     </g>
     <g id="text_4">
      <!-- 240 -->
      <g style="fill: #262626" transform="translate(116.508981 537.54543)rotate(-45)scale(0.088 -0.088)">
       <defs>
        <path id="DejaVuSans-32" d="M 1228 531 
L 3431 531 
L 3431 0 
L 469 0 
L 469 531 
Q 828 903 1448 1529 
Q 2069 2156 2228 2338 
Q 2531 2678 2651 2914 
Q 2772 3150 2772 3378 
Q 2772 3750 2511 3984 
Q 2250 4219 1831 4219 
Q 1534 4219 1204 4116 
Q 875 4013 500 3803 
L 500 4441 
Q 881 4594 1212 4672 
Q 1544 4750 1819 4750 
Q 2544 4750 2975 4387 
Q 3406 4025 3406 3419 
Q 3406 3131 3298 2873 
Q 3191 2616 2906 2266 
Q 2828 2175 2409 1742 
Q 1991 1309 1228 531 
z
" transform="scale(0.015625)"/>
        <path id="DejaVuSans-34" d="M 2419 4116 
L 825 1625 
L 2419 1625 
L 2419 4116 
z
M 2253 4666 
L 3047 4666 
L 3047 1625 
L 3713 1625 
L 3713 1100 
L 3047 1100 
L 3047 0 
L 2419 0 
L 2419 1100 
L 313 1100 
L 313 1709 
L 2253 4666 
z
" transform="scale(0.015625)"/>
       </defs>
       <use xlink:href="#DejaVuSans-32"/>
       <use xlink:href="#DejaVuSans-34" x="63.623047"/>
       <use xlink:href="#DejaVuSans-30" x="127.246094"/>
      </g>
     </g>
    </g>
    <g id="xtick_5">
     <g id="line2d_5">
      <path d="M 137.757182 512.64 
L 137.757182 69.12 
" clip-path="url(#pe432f07ee2)" style="fill: none; stroke: #cccccc; stroke-width: 0.8; stroke-linecap: round"/>
     </g>
     <g id="text_5">
      <!-- 320 -->
      <g style="fill: #262626" transform="translate(133.535578 537.54543)rotate(-45)scale(0.088 -0.088)">
       <defs>
        <path id="DejaVuSans-33" d="M 2597 2516 
Q 3050 2419 3304 2112 
Q 3559 1806 3559 1356 
Q 3559 666 3084 287 
Q 2609 -91 1734 -91 
Q 1441 -91 1130 -33 
Q 819 25 488 141 
L 488 750 
Q 750 597 1062 519 
Q 1375 441 1716 441 
Q 2309 441 2620 675 
Q 2931 909 2931 1356 
Q 2931 1769 2642 2001 
Q 2353 2234 1838 2234 
L 1294 2234 
L 1294 2753 
L 1863 2753 
Q 2328 2753 2575 2939 
Q 2822 3125 2822 3475 
Q 2822 3834 2567 4026 
Q 2313 4219 1838 4219 
Q 1578 4219 1281 4162 
Q 984 4106 628 3988 
L 628 4550 
Q 988 4650 1302 4700 
Q 1616 4750 1894 4750 
Q 2613 4750 3031 4423 
Q 3450 4097 3450 3541 
Q 3450 3153 3228 2886 
Q 3006 2619 2597 2516 
z
" transform="scale(0.015625)"/>
       </defs>
       <use xlink:href="#DejaVuSans-33"/>
       <use xlink:href="#DejaVuSans-32" x="63.623047"/>
       <use xlink:href="#DejaVuSans-30" x="127.246094"/>
      </g>
     </g>
    </g>
    <g id="xtick_6">
     <g id="line2d_6">
      <path d="M 154.783779 512.64 
L 154.783779 69.12 
" clip-path="url(#pe432f07ee2)" style="fill: none; stroke: #cccccc; stroke-width: 0.8; stroke-linecap: round"/>
     </g>
     <g id="text_6">
      <!-- 400 -->
      <g style="fill: #262626" transform="translate(150.562175 537.54543)rotate(-45)scale(0.088 -0.088)">
       <use xlink:href="#DejaVuSans-34"/>
       <use xlink:href="#DejaVuSans-30" x="63.623047"/>
       <use xlink:href="#DejaVuSans-30" x="127.246094"/>
      </g>
     </g>
    </g>
    <g id="xtick_7">
     <g id="line2d_7">
      <path d="M 171.810376 512.64 
L 171.810376 69.12 
" clip-path="url(#pe432f07ee2)" style="fill: none; stroke: #cccccc; stroke-width: 0.8; stroke-linecap: round"/>
     </g>
     <g id="text_7">
      <!-- 480 -->
      <g style="fill: #262626" transform="translate(167.588772 537.54543)rotate(-45)scale(0.088 -0.088)">
       <use xlink:href="#DejaVuSans-34"/>
       <use xlink:href="#DejaVuSans-38" x="63.623047"/>
       <use xlink:href="#DejaVuSans-30" x="127.246094"/>
      </g>
     </g>
    </g>
    <g id="xtick_8">
     <g id="line2d_8">
      <path d="M 188.836973 512.64 
L 188.836973 69.12 
" clip-path="url(#pe432f07ee2)" style="fill: none; stroke: #cccccc; stroke-width: 0.8; stroke-linecap: round"/>
     </g>
     <g id="text_8">
      <!-- 560 -->
      <g style="fill: #262626" transform="translate(184.615368 537.54543)rotate(-45)scale(0.088 -0.088)">
       <defs>
        <path id="DejaVuSans-35" d="M 691 4666 
L 3169 4666 
L 3169 4134 
L 1269 4134 
L 1269 2991 
Q 1406 3038 1543 3061 
Q 1681 3084 1819 3084 
Q 2600 3084 3056 2656 
Q 3513 2228 3513 1497 
Q 3513 744 3044 326 
Q 2575 -91 1722 -91 
Q 1428 -91 1123 -41 
Q 819 9 494 109 
L 494 744 
Q 775 591 1075 516 
Q 1375 441 1709 441 
Q 2250 441 2565 725 
Q 2881 1009 2881 1497 
Q 2881 1984 2565 2268 
Q 2250 2553 1709 2553 
Q 1456 2553 1204 2497 
Q 953 2441 691 2322 
L 691 4666 
z
" transform="scale(0.015625)"/>
       </defs>
       <use xlink:href="#DejaVuSans-35"/>
       <use xlink:href="#DejaVuSans-36" x="63.623047"/>
       <use xlink:href="#DejaVuSans-30" x="127.246094"/>
      </g>
     </g>
    </g>
    <g id="xtick_9">
     <g id="line2d_9">
      <path d="M 205.863569 512.64 
L 205.863569 69.12 
" clip-path="url(#pe432f07ee2)" style="fill: none; stroke: #cccccc; stroke-width: 0.8; stroke-linecap: round"/>
     </g>
     <g id="text_9">
      <!-- 640 -->
      <g style="fill: #262626" transform="translate(201.641965 537.54543)rotate(-45)scale(0.088 -0.088)">
       <use xlink:href="#DejaVuSans-36"/>
       <use xlink:href="#DejaVuSans-34" x="63.623047"/>
       <use xlink:href="#DejaVuSans-30" x="127.246094"/>
      </g>
     </g>
    </g>
    <g id="xtick_10">
     <g id="line2d_10">
      <path d="M 222.890166 512.64 
L 222.890166 69.12 
" clip-path="url(#pe432f07ee2)" style="fill: none; stroke: #cccccc; stroke-width: 0.8; stroke-linecap: round"/>
     </g>
     <g id="text_10">
      <!-- 720 -->
      <g style="fill: #262626" transform="translate(218.668562 537.54543)rotate(-45)scale(0.088 -0.088)">
       <defs>
        <path id="DejaVuSans-37" d="M 525 4666 
L 3525 4666 
L 3525 4397 
L 1831 0 
L 1172 0 
L 2766 4134 
L 525 4134 
L 525 4666 
z
" transform="scale(0.015625)"/>
       </defs>
       <use xlink:href="#DejaVuSans-37"/>
       <use xlink:href="#DejaVuSans-32" x="63.623047"/>
       <use xlink:href="#DejaVuSans-30" x="127.246094"/>
      </g>
     </g>
    </g>
    <g id="xtick_11">
     <g id="line2d_11">
      <path d="M 239.916763 512.64 
L 239.916763 69.12 
" clip-path="url(#pe432f07ee2)" style="fill: none; stroke: #cccccc; stroke-width: 0.8; stroke-linecap: round"/>
     </g>
     <g id="text_11">
      <!-- 800 -->
      <g style="fill: #262626" transform="translate(235.695159 537.54543)rotate(-45)scale(0.088 -0.088)">
       <use xlink:href="#DejaVuSans-38"/>
       <use xlink:href="#DejaVuSans-30" x="63.623047"/>
       <use xlink:href="#DejaVuSans-30" x="127.246094"/>
      </g>
     </g>
    </g>
    <g id="xtick_12">
     <g id="line2d_12">
      <path d="M 256.94336 512.64 
L 256.94336 69.12 
" clip-path="url(#pe432f07ee2)" style="fill: none; stroke: #cccccc; stroke-width: 0.8; stroke-linecap: round"/>
     </g>
     <g id="text_12">
      <!-- 880 -->
      <g style="fill: #262626" transform="translate(252.721755 537.54543)rotate(-45)scale(0.088 -0.088)">
       <use xlink:href="#DejaVuSans-38"/>
       <use xlink:href="#DejaVuSans-38" x="63.623047"/>
       <use xlink:href="#DejaVuSans-30" x="127.246094"/>
      </g>
     </g>
    </g>
    <g id="xtick_13">
     <g id="line2d_13">
      <path d="M 273.969956 512.64 
L 273.969956 69.12 
" clip-path="url(#pe432f07ee2)" style="fill: none; stroke: #cccccc; stroke-width: 0.8; stroke-linecap: round"/>
     </g>
     <g id="text_13">
      <!-- 960 -->
      <g style="fill: #262626" transform="translate(269.748352 537.54543)rotate(-45)scale(0.088 -0.088)">
       <defs>
        <path id="DejaVuSans-39" d="M 703 97 
L 703 672 
Q 941 559 1184 500 
Q 1428 441 1663 441 
Q 2288 441 2617 861 
Q 2947 1281 2994 2138 
Q 2813 1869 2534 1725 
Q 2256 1581 1919 1581 
Q 1219 1581 811 2004 
Q 403 2428 403 3163 
Q 403 3881 828 4315 
Q 1253 4750 1959 4750 
Q 2769 4750 3195 4129 
Q 3622 3509 3622 2328 
Q 3622 1225 3098 567 
Q 2575 -91 1691 -91 
Q 1453 -91 1209 -44 
Q 966 3 703 97 
z
M 1959 2075 
Q 2384 2075 2632 2365 
Q 2881 2656 2881 3163 
Q 2881 3666 2632 3958 
Q 2384 4250 1959 4250 
Q 1534 4250 1286 3958 
Q 1038 3666 1038 3163 
Q 1038 2656 1286 2365 
Q 1534 2075 1959 2075 
z
" transform="scale(0.015625)"/>
       </defs>
       <use xlink:href="#DejaVuSans-39"/>
       <use xlink:href="#DejaVuSans-36" x="63.623047"/>
       <use xlink:href="#DejaVuSans-30" x="127.246094"/>
      </g>
     </g>
    </g>
    <g id="xtick_14">
     <g id="line2d_14">
      <path d="M 290.996553 512.64 
L 290.996553 69.12 
" clip-path="url(#pe432f07ee2)" style="fill: none; stroke: #cccccc; stroke-width: 0.8; stroke-linecap: round"/>
     </g>
     <g id="text_14">
      <!-- 1040 -->
      <g style="fill: #262626" transform="translate(284.795404 541.504521)rotate(-45)scale(0.088 -0.088)">
       <use xlink:href="#DejaVuSans-31"/>
       <use xlink:href="#DejaVuSans-30" x="63.623047"/>
       <use xlink:href="#DejaVuSans-34" x="127.246094"/>
       <use xlink:href="#DejaVuSans-30" x="190.869141"/>
      </g>
     </g>
    </g>
    <g id="xtick_15">
     <g id="line2d_15">
      <path d="M 308.02315 512.64 
L 308.02315 69.12 
" clip-path="url(#pe432f07ee2)" style="fill: none; stroke: #cccccc; stroke-width: 0.8; stroke-linecap: round"/>
     </g>
     <g id="text_15">
      <!-- 1120 -->
      <g style="fill: #262626" transform="translate(301.822 541.504521)rotate(-45)scale(0.088 -0.088)">
       <use xlink:href="#DejaVuSans-31"/>
       <use xlink:href="#DejaVuSans-31" x="63.623047"/>
       <use xlink:href="#DejaVuSans-32" x="127.246094"/>
       <use xlink:href="#DejaVuSans-30" x="190.869141"/>
      </g>
     </g>
    </g>
    <g id="xtick_16">
     <g id="line2d_16">
      <path d="M 325.049747 512.64 
L 325.049747 69.12 
" clip-path="url(#pe432f07ee2)" style="fill: none; stroke: #cccccc; stroke-width: 0.8; stroke-linecap: round"/>
     </g>
     <g id="text_16">
      <!-- 1200 -->
      <g style="fill: #262626" transform="translate(318.848597 541.504521)rotate(-45)scale(0.088 -0.088)">
       <use xlink:href="#DejaVuSans-31"/>
       <use xlink:href="#DejaVuSans-32" x="63.623047"/>
       <use xlink:href="#DejaVuSans-30" x="127.246094"/>
       <use xlink:href="#DejaVuSans-30" x="190.869141"/>
      </g>
     </g>
    </g>
    <g id="xtick_17">
     <g id="line2d_17">
      <path d="M 342.076343 512.64 
L 342.076343 69.12 
" clip-path="url(#pe432f07ee2)" style="fill: none; stroke: #cccccc; stroke-width: 0.8; stroke-linecap: round"/>
     </g>
     <g id="text_17">
      <!-- 1280 -->
      <g style="fill: #262626" transform="translate(335.875194 541.504521)rotate(-45)scale(0.088 -0.088)">
       <use xlink:href="#DejaVuSans-31"/>
       <use xlink:href="#DejaVuSans-32" x="63.623047"/>
       <use xlink:href="#DejaVuSans-38" x="127.246094"/>
       <use xlink:href="#DejaVuSans-30" x="190.869141"/>
      </g>
     </g>
    </g>
    <g id="xtick_18">
     <g id="line2d_18">
      <path d="M 359.10294 512.64 
L 359.10294 69.12 
" clip-path="url(#pe432f07ee2)" style="fill: none; stroke: #cccccc; stroke-width: 0.8; stroke-linecap: round"/>
     </g>
     <g id="text_18">
      <!-- 1360 -->
      <g style="fill: #262626" transform="translate(352.901791 541.504521)rotate(-45)scale(0.088 -0.088)">
       <use xlink:href="#DejaVuSans-31"/>
       <use xlink:href="#DejaVuSans-33" x="63.623047"/>
       <use xlink:href="#DejaVuSans-36" x="127.246094"/>
       <use xlink:href="#DejaVuSans-30" x="190.869141"/>
      </g>
     </g>
    </g>
    <g id="xtick_19">
     <g id="line2d_19">
      <path d="M 376.129537 512.64 
L 376.129537 69.12 
" clip-path="url(#pe432f07ee2)" style="fill: none; stroke: #cccccc; stroke-width: 0.8; stroke-linecap: round"/>
     </g>
     <g id="text_19">
      <!-- 1440 -->
      <g style="fill: #262626" transform="translate(369.928387 541.504521)rotate(-45)scale(0.088 -0.088)">
       <use xlink:href="#DejaVuSans-31"/>
       <use xlink:href="#DejaVuSans-34" x="63.623047"/>
       <use xlink:href="#DejaVuSans-34" x="127.246094"/>
       <use xlink:href="#DejaVuSans-30" x="190.869141"/>
      </g>
     </g>
    </g>
    <g id="text_20">
     <!-- Time (Minutes) -->
     <g style="fill: #262626" transform="translate(186.87375 554.093115)scale(0.096 -0.096)">
      <defs>
       <path id="DejaVuSans-54" d="M -19 4666 
L 3928 4666 
L 3928 4134 
L 2272 4134 
L 2272 0 
L 1638 0 
L 1638 4134 
L -19 4134 
L -19 4666 
z
" transform="scale(0.015625)"/>
       <path id="DejaVuSans-69" d="M 603 3500 
L 1178 3500 
L 1178 0 
L 603 0 
L 603 3500 
z
M 603 4863 
L 1178 4863 
L 1178 4134 
L 603 4134 
L 603 4863 
z
" transform="scale(0.015625)"/>
       <path id="DejaVuSans-6d" d="M 3328 2828 
Q 3544 3216 3844 3400 
Q 4144 3584 4550 3584 
Q 5097 3584 5394 3201 
Q 5691 2819 5691 2113 
L 5691 0 
L 5113 0 
L 5113 2094 
Q 5113 2597 4934 2840 
Q 4756 3084 4391 3084 
Q 3944 3084 3684 2787 
Q 3425 2491 3425 1978 
L 3425 0 
L 2847 0 
L 2847 2094 
Q 2847 2600 2669 2842 
Q 2491 3084 2119 3084 
Q 1678 3084 1418 2786 
Q 1159 2488 1159 1978 
L 1159 0 
L 581 0 
L 581 3500 
L 1159 3500 
L 1159 2956 
Q 1356 3278 1631 3431 
Q 1906 3584 2284 3584 
Q 2666 3584 2933 3390 
Q 3200 3197 3328 2828 
z
" transform="scale(0.015625)"/>
       <path id="DejaVuSans-65" d="M 3597 1894 
L 3597 1613 
L 953 1613 
Q 991 1019 1311 708 
Q 1631 397 2203 397 
Q 2534 397 2845 478 
Q 3156 559 3463 722 
L 3463 178 
Q 3153 47 2828 -22 
Q 2503 -91 2169 -91 
Q 1331 -91 842 396 
Q 353 884 353 1716 
Q 353 2575 817 3079 
Q 1281 3584 2069 3584 
Q 2775 3584 3186 3129 
Q 3597 2675 3597 1894 
z
M 3022 2063 
Q 3016 2534 2758 2815 
Q 2500 3097 2075 3097 
Q 1594 3097 1305 2825 
Q 1016 2553 972 2059 
L 3022 2063 
z
" transform="scale(0.015625)"/>
       <path id="DejaVuSans-20" transform="scale(0.015625)"/>
       <path id="DejaVuSans-28" d="M 1984 4856 
Q 1566 4138 1362 3434 
Q 1159 2731 1159 2009 
Q 1159 1288 1364 580 
Q 1569 -128 1984 -844 
L 1484 -844 
Q 1016 -109 783 600 
Q 550 1309 550 2009 
Q 550 2706 781 3412 
Q 1013 4119 1484 4856 
L 1984 4856 
z
" transform="scale(0.015625)"/>
       <path id="DejaVuSans-4d" d="M 628 4666 
L 1569 4666 
L 2759 1491 
L 3956 4666 
L 4897 4666 
L 4897 0 
L 4281 0 
L 4281 4097 
L 3078 897 
L 2444 897 
L 1241 4097 
L 1241 0 
L 628 0 
L 628 4666 
z
" transform="scale(0.015625)"/>
       <path id="DejaVuSans-6e" d="M 3513 2113 
L 3513 0 
L 2938 0 
L 2938 2094 
Q 2938 2591 2744 2837 
Q 2550 3084 2163 3084 
Q 1697 3084 1428 2787 
Q 1159 2491 1159 1978 
L 1159 0 
L 581 0 
L 581 3500 
L 1159 3500 
L 1159 2956 
Q 1366 3272 1645 3428 
Q 1925 3584 2291 3584 
Q 2894 3584 3203 3211 
Q 3513 2838 3513 2113 
z
" transform="scale(0.015625)"/>
       <path id="DejaVuSans-75" d="M 544 1381 
L 544 3500 
L 1119 3500 
L 1119 1403 
Q 1119 906 1312 657 
Q 1506 409 1894 409 
Q 2359 409 2629 706 
Q 2900 1003 2900 1516 
L 2900 3500 
L 3475 3500 
L 3475 0 
L 2900 0 
L 2900 538 
Q 2691 219 2414 64 
Q 2138 -91 1772 -91 
Q 1169 -91 856 284 
Q 544 659 544 1381 
z
M 1991 3584 
L 1991 3584 
z
" transform="scale(0.015625)"/>
       <path id="DejaVuSans-74" d="M 1172 4494 
L 1172 3500 
L 2356 3500 
L 2356 3053 
L 1172 3053 
L 1172 1153 
Q 1172 725 1289 603 
Q 1406 481 1766 481 
L 2356 481 
L 2356 0 
L 1766 0 
Q 1100 0 847 248 
Q 594 497 594 1153 
L 594 3053 
L 172 3053 
L 172 3500 
L 594 3500 
L 594 4494 
L 1172 4494 
z
" transform="scale(0.015625)"/>
       <path id="DejaVuSans-73" d="M 2834 3397 
L 2834 2853 
Q 2591 2978 2328 3040 
Q 2066 3103 1784 3103 
Q 1356 3103 1142 2972 
Q 928 2841 928 2578 
Q 928 2378 1081 2264 
Q 1234 2150 1697 2047 
L 1894 2003 
Q 2506 1872 2764 1633 
Q 3022 1394 3022 966 
Q 3022 478 2636 193 
Q 2250 -91 1575 -91 
Q 1294 -91 989 -36 
Q 684 19 347 128 
L 347 722 
Q 666 556 975 473 
Q 1284 391 1588 391 
Q 1994 391 2212 530 
Q 2431 669 2431 922 
Q 2431 1156 2273 1281 
Q 2116 1406 1581 1522 
L 1381 1569 
Q 847 1681 609 1914 
Q 372 2147 372 2553 
Q 372 3047 722 3315 
Q 1072 3584 1716 3584 
Q 2034 3584 2315 3537 
Q 2597 3491 2834 3397 
z
" transform="scale(0.015625)"/>
       <path id="DejaVuSans-29" d="M 513 4856 
L 1013 4856 
Q 1481 4119 1714 3412 
Q 1947 2706 1947 2009 
Q 1947 1309 1714 600 
Q 1481 -109 1013 -844 
L 513 -844 
Q 928 -128 1133 580 
Q 1338 1288 1338 2009 
Q 1338 2731 1133 3434 
Q 928 4138 513 4856 
z
" transform="scale(0.015625)"/>
      </defs>
      <use xlink:href="#DejaVuSans-54"/>
      <use xlink:href="#DejaVuSans-69" x="57.958984"/>
      <use xlink:href="#DejaVuSans-6d" x="85.742188"/>
      <use xlink:href="#DejaVuSans-65" x="183.154297"/>
      <use xlink:href="#DejaVuSans-20" x="244.677734"/>
      <use xlink:href="#DejaVuSans-28" x="276.464844"/>
      <use xlink:href="#DejaVuSans-4d" x="315.478516"/>
      <use xlink:href="#DejaVuSans-69" x="401.757812"/>
      <use xlink:href="#DejaVuSans-6e" x="429.541016"/>
      <use xlink:href="#DejaVuSans-75" x="492.919922"/>
      <use xlink:href="#DejaVuSans-74" x="556.298828"/>
      <use xlink:href="#DejaVuSans-65" x="595.507812"/>
      <use xlink:href="#DejaVuSans-73" x="657.03125"/>
      <use xlink:href="#DejaVuSans-29" x="709.130859"/>
     </g>
    </g>
   </g>
   <g id="matplotlib.axis_2">
    <g id="ytick_1">
     <g id="line2d_20">
      <path d="M 54.3375 492.48 
L 391.23 492.48 
" clip-path="url(#pe432f07ee2)" style="fill: none; stroke: #cccccc; stroke-width: 0.8; stroke-linecap: round"/>
     </g>
     <g id="text_21">
      <!-- 0 -->
      <g style="fill: #262626" transform="translate(40.4385 495.823312)scale(0.088 -0.088)">
       <use xlink:href="#DejaVuSans-30"/>
      </g>
     </g>
    </g>
    <g id="ytick_2">
     <g id="line2d_21">
      <path d="M 54.3375 476.900402 
L 391.23 476.900402 
" clip-path="url(#pe432f07ee2)" style="fill: none; stroke: #cccccc; stroke-width: 0.8; stroke-linecap: round"/>
     </g>
     <g id="text_22">
      <!-- 100 -->
      <g style="fill: #262626" transform="translate(29.2405 480.243714)scale(0.088 -0.088)">
       <use xlink:href="#DejaVuSans-31"/>
       <use xlink:href="#DejaVuSans-30" x="63.623047"/>
       <use xlink:href="#DejaVuSans-30" x="127.246094"/>
      </g>
     </g>
    </g>
    <g id="ytick_3">
     <g id="line2d_22">
      <path d="M 54.3375 461.320804 
L 391.23 461.320804 
" clip-path="url(#pe432f07ee2)" style="fill: none; stroke: #cccccc; stroke-width: 0.8; stroke-linecap: round"/>
     </g>
     <g id="text_23">
      <!-- 200 -->
      <g style="fill: #262626" transform="translate(29.2405 464.664116)scale(0.088 -0.088)">
       <use xlink:href="#DejaVuSans-32"/>
       <use xlink:href="#DejaVuSans-30" x="63.623047"/>
       <use xlink:href="#DejaVuSans-30" x="127.246094"/>
      </g>
     </g>
    </g>
    <g id="ytick_4">
     <g id="line2d_23">
      <path d="M 54.3375 445.741206 
L 391.23 445.741206 
" clip-path="url(#pe432f07ee2)" style="fill: none; stroke: #cccccc; stroke-width: 0.8; stroke-linecap: round"/>
     </g>
     <g id="text_24">
      <!-- 300 -->
      <g style="fill: #262626" transform="translate(29.2405 449.084518)scale(0.088 -0.088)">
       <use xlink:href="#DejaVuSans-33"/>
       <use xlink:href="#DejaVuSans-30" x="63.623047"/>
       <use xlink:href="#DejaVuSans-30" x="127.246094"/>
      </g>
     </g>
    </g>
    <g id="ytick_5">
     <g id="line2d_24">
      <path d="M 54.3375 430.161607 
L 391.23 430.161607 
" clip-path="url(#pe432f07ee2)" style="fill: none; stroke: #cccccc; stroke-width: 0.8; stroke-linecap: round"/>
     </g>
     <g id="text_25">
      <!-- 400 -->
      <g style="fill: #262626" transform="translate(29.2405 433.50492)scale(0.088 -0.088)">
       <use xlink:href="#DejaVuSans-34"/>
       <use xlink:href="#DejaVuSans-30" x="63.623047"/>
       <use xlink:href="#DejaVuSans-30" x="127.246094"/>
      </g>
     </g>
    </g>
    <g id="ytick_6">
     <g id="line2d_25">
      <path d="M 54.3375 414.582009 
L 391.23 414.582009 
" clip-path="url(#pe432f07ee2)" style="fill: none; stroke: #cccccc; stroke-width: 0.8; stroke-linecap: round"/>
     </g>
     <g id="text_26">
      <!-- 500 -->
      <g style="fill: #262626" transform="translate(29.2405 417.925322)scale(0.088 -0.088)">
       <use xlink:href="#DejaVuSans-35"/>
       <use xlink:href="#DejaVuSans-30" x="63.623047"/>
       <use xlink:href="#DejaVuSans-30" x="127.246094"/>
      </g>
     </g>
    </g>
    <g id="ytick_7">
     <g id="line2d_26">
      <path d="M 54.3375 399.002411 
L 391.23 399.002411 
" clip-path="url(#pe432f07ee2)" style="fill: none; stroke: #cccccc; stroke-width: 0.8; stroke-linecap: round"/>
     </g>
     <g id="text_27">
      <!-- 600 -->
      <g style="fill: #262626" transform="translate(29.2405 402.345724)scale(0.088 -0.088)">
       <use xlink:href="#DejaVuSans-36"/>
       <use xlink:href="#DejaVuSans-30" x="63.623047"/>
       <use xlink:href="#DejaVuSans-30" x="127.246094"/>
      </g>
     </g>
    </g>
    <g id="ytick_8">
     <g id="line2d_27">
      <path d="M 54.3375 383.422813 
L 391.23 383.422813 
" clip-path="url(#pe432f07ee2)" style="fill: none; stroke: #cccccc; stroke-width: 0.8; stroke-linecap: round"/>
     </g>
     <g id="text_28">
      <!-- 700 -->
      <g style="fill: #262626" transform="translate(29.2405 386.766125)scale(0.088 -0.088)">
       <use xlink:href="#DejaVuSans-37"/>
       <use xlink:href="#DejaVuSans-30" x="63.623047"/>
       <use xlink:href="#DejaVuSans-30" x="127.246094"/>
      </g>
     </g>
    </g>
    <g id="ytick_9">
     <g id="line2d_28">
      <path d="M 54.3375 367.843215 
L 391.23 367.843215 
" clip-path="url(#pe432f07ee2)" style="fill: none; stroke: #cccccc; stroke-width: 0.8; stroke-linecap: round"/>
     </g>
     <g id="text_29">
      <!-- 800 -->
      <g style="fill: #262626" transform="translate(29.2405 371.186527)scale(0.088 -0.088)">
       <use xlink:href="#DejaVuSans-38"/>
       <use xlink:href="#DejaVuSans-30" x="63.623047"/>
       <use xlink:href="#DejaVuSans-30" x="127.246094"/>
      </g>
     </g>
    </g>
    <g id="ytick_10">
     <g id="line2d_29">
      <path d="M 54.3375 352.263617 
L 391.23 352.263617 
" clip-path="url(#pe432f07ee2)" style="fill: none; stroke: #cccccc; stroke-width: 0.8; stroke-linecap: round"/>
     </g>
     <g id="text_30">
      <!-- 900 -->
      <g style="fill: #262626" transform="translate(29.2405 355.606929)scale(0.088 -0.088)">
       <use xlink:href="#DejaVuSans-39"/>
       <use xlink:href="#DejaVuSans-30" x="63.623047"/>
       <use xlink:href="#DejaVuSans-30" x="127.246094"/>
      </g>
     </g>
    </g>
    <g id="ytick_11">
     <g id="line2d_30">
      <path d="M 54.3375 336.684019 
L 391.23 336.684019 
" clip-path="url(#pe432f07ee2)" style="fill: none; stroke: #cccccc; stroke-width: 0.8; stroke-linecap: round"/>
     </g>
     <g id="text_31">
      <!-- 1000 -->
      <g style="fill: #262626" transform="translate(23.6415 340.027331)scale(0.088 -0.088)">
       <use xlink:href="#DejaVuSans-31"/>
       <use xlink:href="#DejaVuSans-30" x="63.623047"/>
       <use xlink:href="#DejaVuSans-30" x="127.246094"/>
       <use xlink:href="#DejaVuSans-30" x="190.869141"/>
      </g>
     </g>
    </g>
    <g id="ytick_12">
     <g id="line2d_31">
      <path d="M 54.3375 321.10442 
L 391.23 321.10442 
" clip-path="url(#pe432f07ee2)" style="fill: none; stroke: #cccccc; stroke-width: 0.8; stroke-linecap: round"/>
     </g>
     <g id="text_32">
      <!-- 1100 -->
      <g style="fill: #262626" transform="translate(23.6415 324.447733)scale(0.088 -0.088)">
       <use xlink:href="#DejaVuSans-31"/>
       <use xlink:href="#DejaVuSans-31" x="63.623047"/>
       <use xlink:href="#DejaVuSans-30" x="127.246094"/>
       <use xlink:href="#DejaVuSans-30" x="190.869141"/>
      </g>
     </g>
    </g>
    <g id="ytick_13">
     <g id="line2d_32">
      <path d="M 54.3375 305.524822 
L 391.23 305.524822 
" clip-path="url(#pe432f07ee2)" style="fill: none; stroke: #cccccc; stroke-width: 0.8; stroke-linecap: round"/>
     </g>
     <g id="text_33">
      <!-- 1200 -->
      <g style="fill: #262626" transform="translate(23.6415 308.868135)scale(0.088 -0.088)">
       <use xlink:href="#DejaVuSans-31"/>
       <use xlink:href="#DejaVuSans-32" x="63.623047"/>
       <use xlink:href="#DejaVuSans-30" x="127.246094"/>
       <use xlink:href="#DejaVuSans-30" x="190.869141"/>
      </g>
     </g>
    </g>
    <g id="ytick_14">
     <g id="line2d_33">
      <path d="M 54.3375 289.945224 
L 391.23 289.945224 
" clip-path="url(#pe432f07ee2)" style="fill: none; stroke: #cccccc; stroke-width: 0.8; stroke-linecap: round"/>
     </g>
     <g id="text_34">
      <!-- 1300 -->
      <g style="fill: #262626" transform="translate(23.6415 293.288537)scale(0.088 -0.088)">
       <use xlink:href="#DejaVuSans-31"/>
       <use xlink:href="#DejaVuSans-33" x="63.623047"/>
       <use xlink:href="#DejaVuSans-30" x="127.246094"/>
       <use xlink:href="#DejaVuSans-30" x="190.869141"/>
      </g>
     </g>
    </g>
    <g id="ytick_15">
     <g id="line2d_34">
      <path d="M 54.3375 274.365626 
L 391.23 274.365626 
" clip-path="url(#pe432f07ee2)" style="fill: none; stroke: #cccccc; stroke-width: 0.8; stroke-linecap: round"/>
     </g>
     <g id="text_35">
      <!-- 1400 -->
      <g style="fill: #262626" transform="translate(23.6415 277.708938)scale(0.088 -0.088)">
       <use xlink:href="#DejaVuSans-31"/>
       <use xlink:href="#DejaVuSans-34" x="63.623047"/>
       <use xlink:href="#DejaVuSans-30" x="127.246094"/>
       <use xlink:href="#DejaVuSans-30" x="190.869141"/>
      </g>
     </g>
    </g>
    <g id="ytick_16">
     <g id="line2d_35">
      <path d="M 54.3375 258.786028 
L 391.23 258.786028 
" clip-path="url(#pe432f07ee2)" style="fill: none; stroke: #cccccc; stroke-width: 0.8; stroke-linecap: round"/>
     </g>
     <g id="text_36">
      <!-- 1500 -->
      <g style="fill: #262626" transform="translate(23.6415 262.12934)scale(0.088 -0.088)">
       <use xlink:href="#DejaVuSans-31"/>
       <use xlink:href="#DejaVuSans-35" x="63.623047"/>
       <use xlink:href="#DejaVuSans-30" x="127.246094"/>
       <use xlink:href="#DejaVuSans-30" x="190.869141"/>
      </g>
     </g>
    </g>
    <g id="ytick_17">
     <g id="line2d_36">
      <path d="M 54.3375 243.20643 
L 391.23 243.20643 
" clip-path="url(#pe432f07ee2)" style="fill: none; stroke: #cccccc; stroke-width: 0.8; stroke-linecap: round"/>
     </g>
     <g id="text_37">
      <!-- 1600 -->
      <g style="fill: #262626" transform="translate(23.6415 246.549742)scale(0.088 -0.088)">
       <use xlink:href="#DejaVuSans-31"/>
       <use xlink:href="#DejaVuSans-36" x="63.623047"/>
       <use xlink:href="#DejaVuSans-30" x="127.246094"/>
       <use xlink:href="#DejaVuSans-30" x="190.869141"/>
      </g>
     </g>
    </g>
    <g id="ytick_18">
     <g id="line2d_37">
      <path d="M 54.3375 227.626832 
L 391.23 227.626832 
" clip-path="url(#pe432f07ee2)" style="fill: none; stroke: #cccccc; stroke-width: 0.8; stroke-linecap: round"/>
     </g>
     <g id="text_38">
      <!-- 1700 -->
      <g style="fill: #262626" transform="translate(23.6415 230.970144)scale(0.088 -0.088)">
       <use xlink:href="#DejaVuSans-31"/>
       <use xlink:href="#DejaVuSans-37" x="63.623047"/>
       <use xlink:href="#DejaVuSans-30" x="127.246094"/>
       <use xlink:href="#DejaVuSans-30" x="190.869141"/>
      </g>
     </g>
    </g>
    <g id="ytick_19">
     <g id="line2d_38">
      <path d="M 54.3375 212.047233 
L 391.23 212.047233 
" clip-path="url(#pe432f07ee2)" style="fill: none; stroke: #cccccc; stroke-width: 0.8; stroke-linecap: round"/>
     </g>
     <g id="text_39">
      <!-- 1800 -->
      <g style="fill: #262626" transform="translate(23.6415 215.390546)scale(0.088 -0.088)">
       <use xlink:href="#DejaVuSans-31"/>
       <use xlink:href="#DejaVuSans-38" x="63.623047"/>
       <use xlink:href="#DejaVuSans-30" x="127.246094"/>
       <use xlink:href="#DejaVuSans-30" x="190.869141"/>
      </g>
     </g>
    </g>
    <g id="ytick_20">
     <g id="line2d_39">
      <path d="M 54.3375 196.467635 
L 391.23 196.467635 
" clip-path="url(#pe432f07ee2)" style="fill: none; stroke: #cccccc; stroke-width: 0.8; stroke-linecap: round"/>
     </g>
     <g id="text_40">
      <!-- 1900 -->
      <g style="fill: #262626" transform="translate(23.6415 199.810948)scale(0.088 -0.088)">
       <use xlink:href="#DejaVuSans-31"/>
       <use xlink:href="#DejaVuSans-39" x="63.623047"/>
       <use xlink:href="#DejaVuSans-30" x="127.246094"/>
       <use xlink:href="#DejaVuSans-30" x="190.869141"/>
      </g>
     </g>
    </g>
    <g id="ytick_21">
     <g id="line2d_40">
      <path d="M 54.3375 180.888037 
L 391.23 180.888037 
" clip-path="url(#pe432f07ee2)" style="fill: none; stroke: #cccccc; stroke-width: 0.8; stroke-linecap: round"/>
     </g>
     <g id="text_41">
      <!-- 2000 -->
      <g style="fill: #262626" transform="translate(23.6415 184.23135)scale(0.088 -0.088)">
       <use xlink:href="#DejaVuSans-32"/>
       <use xlink:href="#DejaVuSans-30" x="63.623047"/>
       <use xlink:href="#DejaVuSans-30" x="127.246094"/>
       <use xlink:href="#DejaVuSans-30" x="190.869141"/>
      </g>
     </g>
    </g>
    <g id="ytick_22">
     <g id="line2d_41">
      <path d="M 54.3375 165.308439 
L 391.23 165.308439 
" clip-path="url(#pe432f07ee2)" style="fill: none; stroke: #cccccc; stroke-width: 0.8; stroke-linecap: round"/>
     </g>
     <g id="text_42">
      <!-- 2100 -->
      <g style="fill: #262626" transform="translate(23.6415 168.651751)scale(0.088 -0.088)">
       <use xlink:href="#DejaVuSans-32"/>
       <use xlink:href="#DejaVuSans-31" x="63.623047"/>
       <use xlink:href="#DejaVuSans-30" x="127.246094"/>
       <use xlink:href="#DejaVuSans-30" x="190.869141"/>
      </g>
     </g>
    </g>
    <g id="ytick_23">
     <g id="line2d_42">
      <path d="M 54.3375 149.728841 
L 391.23 149.728841 
" clip-path="url(#pe432f07ee2)" style="fill: none; stroke: #cccccc; stroke-width: 0.8; stroke-linecap: round"/>
     </g>
     <g id="text_43">
      <!-- 2200 -->
      <g style="fill: #262626" transform="translate(23.6415 153.072153)scale(0.088 -0.088)">
       <use xlink:href="#DejaVuSans-32"/>
       <use xlink:href="#DejaVuSans-32" x="63.623047"/>
       <use xlink:href="#DejaVuSans-30" x="127.246094"/>
       <use xlink:href="#DejaVuSans-30" x="190.869141"/>
      </g>
     </g>
    </g>
    <g id="ytick_24">
     <g id="line2d_43">
      <path d="M 54.3375 134.149243 
L 391.23 134.149243 
" clip-path="url(#pe432f07ee2)" style="fill: none; stroke: #cccccc; stroke-width: 0.8; stroke-linecap: round"/>
     </g>
     <g id="text_44">
      <!-- 2300 -->
      <g style="fill: #262626" transform="translate(23.6415 137.492555)scale(0.088 -0.088)">
       <use xlink:href="#DejaVuSans-32"/>
       <use xlink:href="#DejaVuSans-33" x="63.623047"/>
       <use xlink:href="#DejaVuSans-30" x="127.246094"/>
       <use xlink:href="#DejaVuSans-30" x="190.869141"/>
      </g>
     </g>
    </g>
    <g id="ytick_25">
     <g id="line2d_44">
      <path d="M 54.3375 118.569645 
L 391.23 118.569645 
" clip-path="url(#pe432f07ee2)" style="fill: none; stroke: #cccccc; stroke-width: 0.8; stroke-linecap: round"/>
     </g>
     <g id="text_45">
      <!-- 2400 -->
      <g style="fill: #262626" transform="translate(23.6415 121.912957)scale(0.088 -0.088)">
       <use xlink:href="#DejaVuSans-32"/>
       <use xlink:href="#DejaVuSans-34" x="63.623047"/>
       <use xlink:href="#DejaVuSans-30" x="127.246094"/>
       <use xlink:href="#DejaVuSans-30" x="190.869141"/>
      </g>
     </g>
    </g>
    <g id="ytick_26">
     <g id="line2d_45">
      <path d="M 54.3375 102.990046 
L 391.23 102.990046 
" clip-path="url(#pe432f07ee2)" style="fill: none; stroke: #cccccc; stroke-width: 0.8; stroke-linecap: round"/>
     </g>
     <g id="text_46">
      <!-- 2500 -->
      <g style="fill: #262626" transform="translate(23.6415 106.333359)scale(0.088 -0.088)">
       <use xlink:href="#DejaVuSans-32"/>
       <use xlink:href="#DejaVuSans-35" x="63.623047"/>
       <use xlink:href="#DejaVuSans-30" x="127.246094"/>
       <use xlink:href="#DejaVuSans-30" x="190.869141"/>
      </g>
     </g>
    </g>
    <g id="text_47">
     <!-- Edge Coverages -->
     <g style="fill: #262626" transform="translate(17.645 329.98575)rotate(-90)scale(0.096 -0.096)">
      <defs>
       <path id="DejaVuSans-45" d="M 628 4666 
L 3578 4666 
L 3578 4134 
L 1259 4134 
L 1259 2753 
L 3481 2753 
L 3481 2222 
L 1259 2222 
L 1259 531 
L 3634 531 
L 3634 0 
L 628 0 
L 628 4666 
z
" transform="scale(0.015625)"/>
       <path id="DejaVuSans-64" d="M 2906 2969 
L 2906 4863 
L 3481 4863 
L 3481 0 
L 2906 0 
L 2906 525 
Q 2725 213 2448 61 
Q 2172 -91 1784 -91 
Q 1150 -91 751 415 
Q 353 922 353 1747 
Q 353 2572 751 3078 
Q 1150 3584 1784 3584 
Q 2172 3584 2448 3432 
Q 2725 3281 2906 2969 
z
M 947 1747 
Q 947 1113 1208 752 
Q 1469 391 1925 391 
Q 2381 391 2643 752 
Q 2906 1113 2906 1747 
Q 2906 2381 2643 2742 
Q 2381 3103 1925 3103 
Q 1469 3103 1208 2742 
Q 947 2381 947 1747 
z
" transform="scale(0.015625)"/>
       <path id="DejaVuSans-67" d="M 2906 1791 
Q 2906 2416 2648 2759 
Q 2391 3103 1925 3103 
Q 1463 3103 1205 2759 
Q 947 2416 947 1791 
Q 947 1169 1205 825 
Q 1463 481 1925 481 
Q 2391 481 2648 825 
Q 2906 1169 2906 1791 
z
M 3481 434 
Q 3481 -459 3084 -895 
Q 2688 -1331 1869 -1331 
Q 1566 -1331 1297 -1286 
Q 1028 -1241 775 -1147 
L 775 -588 
Q 1028 -725 1275 -790 
Q 1522 -856 1778 -856 
Q 2344 -856 2625 -561 
Q 2906 -266 2906 331 
L 2906 616 
Q 2728 306 2450 153 
Q 2172 0 1784 0 
Q 1141 0 747 490 
Q 353 981 353 1791 
Q 353 2603 747 3093 
Q 1141 3584 1784 3584 
Q 2172 3584 2450 3431 
Q 2728 3278 2906 2969 
L 2906 3500 
L 3481 3500 
L 3481 434 
z
" transform="scale(0.015625)"/>
       <path id="DejaVuSans-43" d="M 4122 4306 
L 4122 3641 
Q 3803 3938 3442 4084 
Q 3081 4231 2675 4231 
Q 1875 4231 1450 3742 
Q 1025 3253 1025 2328 
Q 1025 1406 1450 917 
Q 1875 428 2675 428 
Q 3081 428 3442 575 
Q 3803 722 4122 1019 
L 4122 359 
Q 3791 134 3420 21 
Q 3050 -91 2638 -91 
Q 1578 -91 968 557 
Q 359 1206 359 2328 
Q 359 3453 968 4101 
Q 1578 4750 2638 4750 
Q 3056 4750 3426 4639 
Q 3797 4528 4122 4306 
z
" transform="scale(0.015625)"/>
       <path id="DejaVuSans-6f" d="M 1959 3097 
Q 1497 3097 1228 2736 
Q 959 2375 959 1747 
Q 959 1119 1226 758 
Q 1494 397 1959 397 
Q 2419 397 2687 759 
Q 2956 1122 2956 1747 
Q 2956 2369 2687 2733 
Q 2419 3097 1959 3097 
z
M 1959 3584 
Q 2709 3584 3137 3096 
Q 3566 2609 3566 1747 
Q 3566 888 3137 398 
Q 2709 -91 1959 -91 
Q 1206 -91 779 398 
Q 353 888 353 1747 
Q 353 2609 779 3096 
Q 1206 3584 1959 3584 
z
" transform="scale(0.015625)"/>
       <path id="DejaVuSans-76" d="M 191 3500 
L 800 3500 
L 1894 563 
L 2988 3500 
L 3597 3500 
L 2284 0 
L 1503 0 
L 191 3500 
z
" transform="scale(0.015625)"/>
       <path id="DejaVuSans-72" d="M 2631 2963 
Q 2534 3019 2420 3045 
Q 2306 3072 2169 3072 
Q 1681 3072 1420 2755 
Q 1159 2438 1159 1844 
L 1159 0 
L 581 0 
L 581 3500 
L 1159 3500 
L 1159 2956 
Q 1341 3275 1631 3429 
Q 1922 3584 2338 3584 
Q 2397 3584 2469 3576 
Q 2541 3569 2628 3553 
L 2631 2963 
z
" transform="scale(0.015625)"/>
       <path id="DejaVuSans-61" d="M 2194 1759 
Q 1497 1759 1228 1600 
Q 959 1441 959 1056 
Q 959 750 1161 570 
Q 1363 391 1709 391 
Q 2188 391 2477 730 
Q 2766 1069 2766 1631 
L 2766 1759 
L 2194 1759 
z
M 3341 1997 
L 3341 0 
L 2766 0 
L 2766 531 
Q 2569 213 2275 61 
Q 1981 -91 1556 -91 
Q 1019 -91 701 211 
Q 384 513 384 1019 
Q 384 1609 779 1909 
Q 1175 2209 1959 2209 
L 2766 2209 
L 2766 2266 
Q 2766 2663 2505 2880 
Q 2244 3097 1772 3097 
Q 1472 3097 1187 3025 
Q 903 2953 641 2809 
L 641 3341 
Q 956 3463 1253 3523 
Q 1550 3584 1831 3584 
Q 2591 3584 2966 3190 
Q 3341 2797 3341 1997 
z
" transform="scale(0.015625)"/>
      </defs>
      <use xlink:href="#DejaVuSans-45"/>
      <use xlink:href="#DejaVuSans-64" x="63.183594"/>
      <use xlink:href="#DejaVuSans-67" x="126.660156"/>
      <use xlink:href="#DejaVuSans-65" x="190.136719"/>
      <use xlink:href="#DejaVuSans-20" x="251.660156"/>
      <use xlink:href="#DejaVuSans-43" x="283.447266"/>
      <use xlink:href="#DejaVuSans-6f" x="353.271484"/>
      <use xlink:href="#DejaVuSans-76" x="414.453125"/>
      <use xlink:href="#DejaVuSans-65" x="473.632812"/>
      <use xlink:href="#DejaVuSans-72" x="535.15625"/>
      <use xlink:href="#DejaVuSans-61" x="576.269531"/>
      <use xlink:href="#DejaVuSans-67" x="637.548828"/>
      <use xlink:href="#DejaVuSans-65" x="701.025391"/>
      <use xlink:href="#DejaVuSans-73" x="762.548828"/>
     </g>
    </g>
   </g>
   <g id="PolyCollection_1">
    <defs>
     <path id="m4e2970196f" d="M 69.650795 -84.766368 
L 69.650795 -83.52 
L 69.650795 -84.766368 
L 69.650795 -84.766368 
z
" style="stroke: #db5f57; stroke-opacity: 0.2; stroke-width: 0.8"/>
    </defs>
    <g clip-path="url(#pe432f07ee2)">
     <use xlink:href="#m4e2970196f" x="0" y="576" style="fill: #db5f57; fill-opacity: 0.2; stroke: #db5f57; stroke-opacity: 0.2; stroke-width: 0.8"/>
    </g>
   </g>
   <g id="PolyCollection_2">
    <defs>
     <path id="m93f142b77b" d="M 69.650795 -86.324328 
L 69.650795 -83.52 
L 69.650795 -86.324328 
L 69.650795 -86.324328 
z
" style="stroke: #b9db57; stroke-opacity: 0.2; stroke-width: 0.8"/>
    </defs>
    <g clip-path="url(#pe432f07ee2)">
     <use xlink:href="#m93f142b77b" x="0" y="576" style="fill: #b9db57; fill-opacity: 0.2; stroke: #b9db57; stroke-opacity: 0.2; stroke-width: 0.8"/>
    </g>
   </g>
   <g id="PolyCollection_3">
    <defs>
     <path id="m988a6582a7" d="M 69.650795 -86.168532 
L 69.650795 -83.52 
L 69.650795 -86.168532 
L 69.650795 -86.168532 
z
" style="stroke: #57db94; stroke-opacity: 0.2; stroke-width: 0.8"/>
    </defs>
    <g clip-path="url(#pe432f07ee2)">
     <use xlink:href="#m988a6582a7" x="0" y="576" style="fill: #57db94; fill-opacity: 0.2; stroke: #57db94; stroke-opacity: 0.2; stroke-width: 0.8"/>
    </g>
   </g>
   <g id="PolyCollection_4">
    <defs>
     <path id="mb5e5ddbcf0" d="M 69.650795 -85.545348 
L 69.650795 -83.52 
L 69.650795 -85.545348 
L 69.650795 -85.545348 
z
" style="stroke: #5784db; stroke-opacity: 0.2; stroke-width: 0.8"/>
    </defs>
    <g clip-path="url(#pe432f07ee2)">
     <use xlink:href="#mb5e5ddbcf0" x="0" y="576" style="fill: #5784db; fill-opacity: 0.2; stroke: #5784db; stroke-opacity: 0.2; stroke-width: 0.8"/>
    </g>
   </g>
   <g id="PolyCollection_5">
    <defs>
     <path id="m5daced74f8" d="M 69.650795 -86.012736 
L 69.650795 -83.52 
L 69.650795 -86.012736 
L 69.650795 -86.012736 
z
" style="stroke: #c957db; stroke-opacity: 0.2; stroke-width: 0.8"/>
    </defs>
    <g clip-path="url(#pe432f07ee2)">
     <use xlink:href="#m5daced74f8" x="0" y="576" style="fill: #c957db; fill-opacity: 0.2; stroke: #c957db; stroke-opacity: 0.2; stroke-width: 0.8"/>
    </g>
   </g>
   <g id="line2d_46">
    <path d="M 69.650795 491.856816 
L 69.863628 491.077836 
L 70.07646 490.92204 
L 70.289293 490.92204 
L 70.502125 490.454652 
L 70.714958 489.675672 
L 71.566288 489.675672 
L 71.991953 486.715549 
L 72.204785 479.70473 
L 72.63045 475.342442 
L 72.843282 474.096074 
L 73.056115 445.118022 
L 73.268947 442.002102 
L 74.120277 440.91153 
L 74.33311 438.107202 
L 74.545942 420.658053 
L 75.184439 420.658053 
L 75.397272 413.024049 
L 75.822937 413.024049 
L 76.035769 407.57119 
L 76.248602 405.701638 
L 76.674267 405.701638 
L 76.887099 401.339351 
L 77.099932 394.640124 
L 77.951261 394.640124 
L 78.164094 394.328532 
L 78.376926 394.328532 
L 78.802591 394.01694 
L 79.015424 338.086182 
L 79.228256 322.039196 
L 80.292418 322.039196 
L 80.718083 321.10442 
L 80.930916 321.10442 
L 81.356581 320.169645 
L 81.569413 301.941515 
L 81.782246 232.768099 
L 81.995078 232.612303 
L 82.420743 232.612303 
L 82.633575 232.456507 
L 82.846408 215.007357 
L 83.272073 214.695765 
L 85.400397 214.695765 
L 85.61323 214.539969 
L 86.677392 214.539969 
L 86.890225 214.072581 
L 87.103057 214.072581 
L 87.31589 157.830232 
L 89.657047 157.830232 
L 89.869879 142.562226 
L 90.082712 141.939042 
L 92.636701 141.939042 
L 92.849534 140.225286 
L 94.339361 140.225286 
L 94.552193 134.772427 
L 94.765026 134.616631 
L 98.170345 134.616631 
L 98.383177 129.007975 
L 100.085837 129.007975 
L 100.29867 127.917403 
L 102.852659 127.917403 
L 103.065492 125.268872 
L 106.683643 125.268872 
L 106.896476 124.334096 
L 107.109308 124.1783 
L 109.450465 124.1783 
L 109.663298 123.39932 
L 110.940293 123.39932 
L 111.153125 121.997156 
L 112.43012 121.997156 
L 112.642952 121.84136 
L 114.984109 121.84136 
L 115.196942 121.685564 
L 118.815094 121.685564 
L 119.027926 116.076909 
L 120.304921 116.076909 
L 120.517753 114.363153 
L 121.794748 114.363153 
L 122.00758 114.207357 
L 122.433245 114.207357 
L 122.646078 111.714621 
L 125.200067 111.714621 
L 125.4129 108.910294 
L 128.818219 108.910294 
L 129.031052 108.28711 
L 131.372209 108.28711 
L 132.010706 107.50813 
L 134.139031 107.50813 
L 134.351863 107.352334 
L 136.480188 107.352334 
L 136.69302 106.573354 
L 143.929324 106.573354 
L 144.142156 106.417558 
L 147.547476 106.417558 
L 147.760308 106.105966 
L 153.932449 106.105966 
L 154.145282 105.95017 
L 159.466093 105.95017 
L 159.678926 105.638578 
L 160.530256 105.638578 
L 160.743088 105.015394 
L 163.50991 105.015394 
L 163.722743 104.859598 
L 165.21257 104.859598 
L 165.425402 103.769026 
L 165.638235 103.61323 
L 166.276732 103.61323 
L 166.489564 103.457434 
L 186.282983 103.457434 
L 186.495816 103.145842 
L 188.836973 103.145842 
L 189.049805 102.990046 
L 192.242292 102.990046 
L 192.455125 102.83425 
L 199.052931 102.83425 
L 199.265763 101.899474 
L 201.60692 101.899474 
L 201.819753 101.587883 
L 203.30958 101.587883 
L 203.522412 101.432087 
L 210.545884 101.432087 
L 210.758716 101.276291 
L 218.633517 101.276291 
L 218.84635 101.120495 
L 226.082653 101.120495 
L 226.295486 100.185719 
L 227.785313 100.185719 
L 227.998145 100.029923 
L 255.666365 100.029923 
L 255.879197 99.718331 
L 264.179663 99.718331 
L 264.392496 98.627759 
L 266.733653 98.627759 
L 266.946485 98.471963 
L 277.588108 98.471963 
L 277.800941 98.316167 
L 287.804066 98.316167 
L 288.016899 98.160371 
L 288.229731 97.692983 
L 289.293894 97.692983 
L 289.506726 97.225595 
L 305.46916 97.225595 
L 305.681993 97.069799 
L 306.32049 97.069799 
L 306.533323 96.758207 
L 313.131129 96.758207 
L 313.343961 96.602411 
L 323.347087 96.602411 
L 323.55992 95.979227 
L 337.181197 95.979227 
L 337.394029 95.823431 
L 350.589642 95.823431 
L 350.802474 94.109675 
L 352.079469 94.109675 
L 352.292302 93.953879 
L 357.613113 93.953879 
L 357.825945 93.798083 
L 359.95427 93.798083 
L 360.167103 93.642287 
L 372.08572 93.642287 
L 372.298553 93.486491 
L 375.916705 93.486491 
L 375.916705 93.486491 
" clip-path="url(#pe432f07ee2)" style="fill: none; stroke: #db5f57; stroke-width: 1.2; stroke-linecap: round"/>
   </g>
   <g id="line2d_47">
    <path d="M 69.650795 491.077836 
L 69.863628 489.675672 
L 70.07646 489.519876 
L 71.566288 489.519876 
L 71.991953 486.715549 
L 72.417617 465.683091 
L 72.63045 462.099784 
L 73.056115 445.741206 
L 73.268947 443.715858 
L 73.694612 436.549243 
L 73.907445 435.147079 
L 74.120277 427.513076 
L 74.33311 426.5783 
L 74.545942 421.748624 
L 74.971607 419.411685 
L 75.184439 415.672581 
L 75.610104 414.270417 
L 75.822937 412.712457 
L 76.674267 401.183555 
L 77.099932 397.288655 
L 77.525596 388.096692 
L 77.738429 387.317713 
L 77.951261 363.169335 
L 78.164094 356.7817 
L 78.376926 355.22374 
L 78.802591 348.212921 
L 79.015424 321.8834 
L 79.228256 310.198702 
L 79.441089 306.77119 
L 80.505251 273.898238 
L 80.718083 264.394683 
L 80.930916 263.927295 
L 81.356581 254.112148 
L 81.569413 253.64476 
L 81.782246 239.934714 
L 81.995078 238.53255 
L 82.207911 237.909366 
L 82.420743 227.471036 
L 82.633575 226.53626 
L 83.05924 223.42034 
L 83.272073 222.952952 
L 83.484905 217.500093 
L 83.697738 217.344297 
L 83.91057 217.344297 
L 84.123403 216.565317 
L 84.336235 216.409521 
L 84.549068 216.409521 
L 84.7619 215.007357 
L 85.400397 197.558207 
L 85.61323 185.873509 
L 85.826062 182.445997 
L 86.038895 182.290201 
L 86.251727 181.667017 
L 86.46456 177.927913 
L 86.677392 170.605502 
L 86.890225 170.605502 
L 87.103057 170.449706 
L 87.528722 170.449706 
L 87.954387 161.257743 
L 88.167219 161.257743 
L 88.592884 160.011376 
L 88.805717 160.011376 
L 89.018549 157.362844 
L 89.231382 156.583864 
L 89.444214 156.583864 
L 89.869879 155.337496 
L 90.082712 155.025904 
L 90.508376 155.025904 
L 90.721209 154.558516 
L 91.146874 154.558516 
L 91.359706 153.935332 
L 91.998204 153.935332 
L 92.211036 153.62374 
L 93.275198 153.62374 
L 93.488031 153.467944 
L 93.700863 153.156352 
L 93.913696 153.156352 
L 94.126528 152.688964 
L 94.339361 152.688964 
L 94.552193 148.326677 
L 94.765026 148.326677 
L 94.977858 148.170881 
L 95.190691 148.170881 
L 95.403523 148.015085 
L 95.616356 148.015085 
L 95.829188 147.391901 
L 96.04202 146.145533 
L 96.254853 145.833941 
L 96.680518 145.833941 
L 97.106183 143.964389 
L 97.319015 143.964389 
L 97.531848 143.497002 
L 97.957513 143.497002 
L 98.383177 142.873818 
L 100.085837 142.873818 
L 100.29867 142.094838 
L 100.511502 142.094838 
L 100.724335 140.536878 
L 100.937167 139.913694 
L 102.426994 139.913694 
L 102.639827 139.757898 
L 102.852659 139.446306 
L 103.065492 139.446306 
L 103.278324 139.29051 
L 103.916821 139.29051 
L 104.129654 139.134714 
L 104.342486 138.823122 
L 104.555319 138.823122 
L 104.768151 138.667326 
L 105.193816 138.667326 
L 105.406649 138.51153 
L 108.386303 138.51153 
L 108.599136 138.355734 
L 108.811968 138.355734 
L 109.0248 138.199938 
L 109.663298 138.199938 
L 109.87613 137.576754 
L 110.72746 137.576754 
L 110.940293 136.330386 
L 111.153125 136.330386 
L 111.365957 136.018794 
L 114.771277 136.018794 
L 114.984109 135.862998 
L 116.686769 135.862998 
L 116.899601 135.707202 
L 117.112434 135.707202 
L 117.325266 134.928223 
L 117.538099 134.928223 
L 117.963764 134.460835 
L 118.176596 134.460835 
L 118.389429 134.149243 
L 118.602261 131.812303 
L 118.815094 131.812303 
L 119.027926 130.877527 
L 119.240758 130.877527 
L 119.453591 130.254343 
L 119.666423 130.254343 
L 119.879256 130.098547 
L 120.092088 129.319567 
L 120.304921 129.163771 
L 120.517753 129.163771 
L 120.943418 128.696383 
L 121.156251 128.540587 
L 121.581916 128.540587 
L 121.794748 128.073199 
L 122.00758 127.294219 
L 122.220413 126.982628 
L 123.071743 126.982628 
L 123.284575 126.671036 
L 123.71024 126.671036 
L 123.923073 126.51524 
L 124.135905 126.51524 
L 124.348738 126.359444 
L 124.987235 125.424668 
L 125.200067 124.801484 
L 125.4129 124.645688 
L 125.625732 123.866708 
L 129.669549 123.866708 
L 129.882381 123.710912 
L 131.372209 123.710912 
L 131.797874 123.087728 
L 132.010706 123.087728 
L 132.223539 122.776136 
L 134.139031 122.776136 
L 134.351863 122.62034 
L 134.564696 122.152952 
L 134.777528 122.152952 
L 134.99036 121.997156 
L 135.628858 121.997156 
L 135.84169 121.685564 
L 141.375334 121.685564 
L 141.588167 121.529768 
L 143.503659 121.529768 
L 143.716491 121.373972 
L 144.993486 121.373972 
L 145.206319 121.06238 
L 153.293952 121.06238 
L 153.506784 120.906584 
L 159.678926 120.906584 
L 160.317423 120.127604 
L 162.445748 120.127604 
L 162.65858 119.971808 
L 163.935575 119.971808 
L 164.36124 119.348624 
L 164.999737 119.348624 
L 165.21257 119.192828 
L 165.851067 119.192828 
L 166.0639 119.037032 
L 166.702397 119.037032 
L 166.915229 118.881236 
L 183.303329 118.881236 
L 183.516161 118.72544 
L 183.728994 118.72544 
L 183.941826 118.569645 
L 184.580324 118.569645 
L 184.793156 118.413849 
L 188.198475 118.413849 
L 188.411308 118.258053 
L 192.02946 118.258053 
L 192.242292 118.102257 
L 197.137439 118.102257 
L 197.563104 117.790665 
L 197.775936 117.790665 
L 198.201601 117.323277 
L 199.265763 117.323277 
L 199.691428 117.011685 
L 203.522412 117.011685 
L 203.735245 116.855889 
L 208.630391 116.855889 
L 208.843224 116.700093 
L 212.461376 116.700093 
L 212.674208 116.544297 
L 216.930857 116.544297 
L 217.14369 116.388501 
L 224.592826 116.388501 
L 224.805658 115.609521 
L 225.018491 115.609521 
L 225.231323 115.453725 
L 226.508318 115.453725 
L 226.72115 115.297929 
L 255.666365 115.297929 
L 255.879197 115.142133 
L 260.348679 115.142133 
L 260.561512 114.986337 
L 260.774344 114.986337 
L 260.987176 114.830541 
L 261.200009 114.830541 
L 261.412841 114.518949 
L 266.095155 114.518949 
L 266.307988 114.363153 
L 276.311114 114.363153 
L 276.523946 114.207357 
L 286.314239 114.207357 
L 286.527072 114.051561 
L 286.739904 113.739969 
L 288.016899 113.739969 
L 288.442564 113.116785 
L 302.489506 113.116785 
L 302.702339 112.960989 
L 302.915171 112.960989 
L 303.128003 112.805193 
L 305.681993 112.805193 
L 305.894825 112.649397 
L 311.215637 112.649397 
L 311.428469 112.493601 
L 319.728935 112.493601 
L 320.1546 112.182009 
L 322.282925 112.182009 
L 322.495757 112.026213 
L 336.5427 112.026213 
L 336.755532 111.870417 
L 350.163977 111.870417 
L 350.376809 110.779845 
L 351.015307 110.000866 
L 357.400281 110.000866 
L 357.613113 109.84507 
L 359.741438 109.84507 
L 359.95427 109.689274 
L 372.08572 109.689274 
L 372.298553 109.533478 
L 375.916705 109.533478 
L 375.916705 109.533478 
" clip-path="url(#pe432f07ee2)" style="fill: none; stroke: #b9db57; stroke-width: 1.2; stroke-linecap: round"/>
   </g>
   <g id="line2d_48">
    <path d="M 69.650795 491.155734 
L 69.863628 489.831468 
L 70.07646 489.675672 
L 71.566288 489.675672 
L 71.991953 486.092365 
L 72.63045 459.762844 
L 72.843282 455.088964 
L 73.056115 443.560062 
L 73.268947 441.534714 
L 73.48178 436.549243 
L 73.694612 434.679691 
L 74.120277 424.864544 
L 74.545942 419.100093 
L 75.184439 412.868253 
L 75.397272 412.24507 
L 76.035769 405.857434 
L 76.461434 398.846615 
L 77.099932 393.393756 
L 77.312764 393.23796 
L 77.525596 387.7851 
L 77.738429 387.161917 
L 77.951261 363.325131 
L 78.164094 355.067944 
L 78.376926 354.44476 
L 78.589759 347.278145 
L 79.015424 319.858053 
L 79.228256 318.455889 
L 79.441089 303.032087 
L 79.653921 302.720495 
L 79.866754 301.785719 
L 80.079586 289.32204 
L 80.292418 283.401793 
L 80.505251 283.401793 
L 80.718083 281.999629 
L 80.930916 259.720804 
L 81.356581 252.865781 
L 81.569413 238.53255 
L 81.782246 234.949243 
L 81.995078 234.949243 
L 82.207911 234.637651 
L 82.420743 223.108748 
L 82.633575 222.797156 
L 82.846408 219.681236 
L 83.05924 219.058053 
L 83.272073 217.188501 
L 83.484905 217.188501 
L 83.697738 212.358825 
L 83.91057 211.735641 
L 84.336235 211.735641 
L 84.7619 209.398702 
L 84.974733 209.08711 
L 85.187565 202.076291 
L 85.61323 178.551097 
L 85.826062 176.993138 
L 86.038895 176.837342 
L 86.251727 174.811994 
L 86.46456 165.152643 
L 86.677392 164.529459 
L 86.890225 164.373663 
L 87.103057 164.373663 
L 87.31589 163.438887 
L 87.954387 153.62374 
L 88.167219 153.312148 
L 88.380052 152.533168 
L 88.592884 152.533168 
L 88.805717 149.884637 
L 89.018549 148.638269 
L 89.231382 148.482473 
L 89.444214 148.482473 
L 89.657047 147.703493 
L 90.508376 146.612921 
L 90.721209 146.457125 
L 90.934041 146.457125 
L 91.146874 145.989737 
L 91.359706 145.833941 
L 91.785371 145.833941 
L 91.998204 145.366553 
L 92.849534 145.366553 
L 93.062366 145.054961 
L 93.488031 145.054961 
L 93.700863 144.743369 
L 93.913696 144.743369 
L 94.126528 144.431777 
L 94.339361 144.431777 
L 94.552193 139.757898 
L 94.765026 139.602102 
L 94.977858 139.602102 
L 95.190691 139.446306 
L 95.616356 139.446306 
L 95.829188 137.576754 
L 96.04202 137.420958 
L 96.254853 137.109366 
L 96.467685 137.109366 
L 96.89335 135.707202 
L 97.319015 134.928223 
L 97.531848 134.772427 
L 97.957513 134.772427 
L 98.170345 134.305039 
L 98.59601 134.305039 
L 98.808842 134.149243 
L 100.085837 134.149243 
L 100.511502 131.500711 
L 100.724335 130.721731 
L 102.001329 130.721731 
L 102.639827 130.254343 
L 102.852659 129.942751 
L 103.065492 129.942751 
L 103.278324 129.786955 
L 103.916821 129.786955 
L 104.129654 129.631159 
L 104.342486 129.319567 
L 104.555319 129.319567 
L 104.768151 129.163771 
L 105.619481 129.163771 
L 105.832314 129.007975 
L 108.173471 129.007975 
L 108.386303 128.852179 
L 109.0248 128.852179 
L 109.663298 127.917403 
L 110.301795 127.917403 
L 110.514628 127.138423 
L 110.72746 126.826832 
L 110.940293 126.826832 
L 111.153125 126.51524 
L 111.57879 126.51524 
L 111.791622 126.359444 
L 114.771277 126.359444 
L 114.984109 126.203648 
L 116.686769 126.203648 
L 116.899601 126.047852 
L 117.325266 125.113076 
L 117.538099 124.95728 
L 117.750931 124.645688 
L 118.176596 124.645688 
L 118.389429 124.334096 
L 118.602261 121.373972 
L 119.027926 120.439196 
L 119.453591 119.660216 
L 119.666423 119.660216 
L 119.879256 119.50442 
L 120.092088 119.037032 
L 120.304921 118.881236 
L 120.730586 118.258053 
L 120.943418 118.258053 
L 121.156251 118.102257 
L 121.369083 118.102257 
L 121.581916 117.634869 
L 121.794748 116.700093 
L 122.220413 116.232705 
L 123.071743 116.232705 
L 123.284575 115.921113 
L 124.348738 115.921113 
L 125.4129 112.960989 
L 125.625732 112.805193 
L 130.095214 112.805193 
L 130.308046 112.649397 
L 131.585041 112.649397 
L 131.797874 112.026213 
L 134.139031 112.026213 
L 134.351863 111.870417 
L 134.777528 111.403029 
L 135.416025 111.403029 
L 135.628858 111.091437 
L 144.354989 111.091437 
L 144.567821 110.935641 
L 145.206319 110.935641 
L 145.419151 110.624049 
L 153.506784 110.624049 
L 153.719617 110.468253 
L 159.466093 110.468253 
L 159.678926 110.312457 
L 159.891758 109.84507 
L 160.104591 109.689274 
L 162.65858 109.689274 
L 162.871413 109.533478 
L 163.722743 109.533478 
L 164.148407 108.754498 
L 164.36124 108.598702 
L 164.786905 108.598702 
L 164.999737 108.28711 
L 165.638235 108.28711 
L 165.851067 108.131314 
L 166.276732 108.131314 
L 166.489564 107.975518 
L 183.516161 107.975518 
L 183.728994 107.663926 
L 188.411308 107.663926 
L 188.62414 107.50813 
L 191.816627 107.50813 
L 192.02946 107.352334 
L 197.137439 107.352334 
L 197.775936 106.884946 
L 197.988768 106.417558 
L 203.30958 106.417558 
L 203.522412 106.105966 
L 203.735245 106.105966 
L 203.948077 105.95017 
L 224.167161 105.95017 
L 225.018491 104.859598 
L 225.231323 104.703802 
L 226.72115 104.703802 
L 226.933983 104.548006 
L 254.176538 104.548006 
L 254.38937 104.39221 
L 255.666365 104.39221 
L 255.879197 104.236414 
L 260.348679 104.236414 
L 260.774344 103.769026 
L 261.200009 103.769026 
L 261.625674 103.457434 
L 276.098281 103.457434 
L 276.311114 103.301638 
L 286.314239 103.301638 
L 286.527072 102.83425 
L 288.016899 102.83425 
L 288.229731 102.678454 
L 288.442564 102.366862 
L 292.699213 102.366862 
L 292.912045 102.211066 
L 302.702339 102.211066 
L 303.128003 101.899474 
L 305.894825 101.899474 
L 306.107658 101.743679 
L 311.215637 101.743679 
L 311.428469 101.587883 
L 319.516103 101.587883 
L 320.1546 101.120495 
L 336.5427 101.120495 
L 336.755532 100.964699 
L 349.951144 100.964699 
L 350.589642 99.250943 
L 350.802474 99.095147 
L 357.187448 99.095147 
L 357.400281 98.939351 
L 359.528605 98.939351 
L 359.741438 98.783555 
L 372.511385 98.783555 
L 372.724218 98.627759 
L 375.916705 98.627759 
L 375.916705 98.627759 
" clip-path="url(#pe432f07ee2)" style="fill: none; stroke: #57db94; stroke-width: 1.2; stroke-linecap: round"/>
   </g>
   <g id="line2d_49">
    <path d="M 69.650795 491.467326 
L 69.863628 490.454652 
L 70.289293 490.454652 
L 70.502125 489.519876 
L 71.566288 489.519876 
L 71.77912 488.429304 
L 71.991953 486.715549 
L 72.204785 481.262689 
L 72.417617 466.306275 
L 72.63045 459.762844 
L 72.843282 446.987573 
L 73.268947 446.675981 
L 74.545942 446.675981 
L 74.758774 418.632705 
L 74.971607 416.763153 
L 75.184439 413.803029 
L 75.397272 413.024049 
L 90.082712 413.024049 
L 90.295544 402.585719 
L 90.934041 160.322968 
L 91.146874 141.471654 
L 92.423869 141.471654 
L 92.636701 141.160062 
L 93.275198 141.160062 
L 93.913696 140.381082 
L 94.126528 140.225286 
L 94.765026 140.225286 
L 94.977858 135.395611 
L 95.190691 135.395611 
L 95.403523 135.239815 
L 95.616356 135.239815 
L 95.829188 134.928223 
L 96.04202 133.526059 
L 96.467685 133.526059 
L 96.680518 133.058671 
L 96.89335 133.058671 
L 97.106183 131.344915 
L 97.531848 130.877527 
L 98.808842 130.877527 
L 99.021675 130.098547 
L 100.29867 130.098547 
L 100.511502 127.761607 
L 100.937167 126.982628 
L 110.088963 126.982628 
L 110.301795 124.489892 
L 110.72746 123.555116 
L 111.153125 123.243524 
L 112.855785 123.243524 
L 113.068617 123.087728 
L 114.984109 123.087728 
L 115.196942 122.931932 
L 117.112434 122.931932 
L 117.325266 121.997156 
L 117.538099 121.997156 
L 117.750931 121.529768 
L 118.176596 121.529768 
L 118.389429 121.218176 
L 118.815094 121.218176 
L 119.027926 117.323277 
L 120.730586 117.323277 
L 120.943418 115.142133 
L 121.156251 114.986337 
L 121.369083 114.986337 
L 122.220413 112.960989 
L 123.071743 112.960989 
L 123.284575 112.649397 
L 124.135905 112.649397 
L 124.348738 112.493601 
L 124.56157 112.493601 
L 124.987235 110.779845 
L 125.4129 110.000866 
L 125.625732 109.533478 
L 129.669549 109.533478 
L 129.882381 109.377682 
L 132.649203 109.377682 
L 132.862036 108.754498 
L 139.672675 108.754498 
L 139.885507 107.819722 
L 144.780654 107.819722 
L 144.993486 107.663926 
L 145.206319 107.663926 
L 145.419151 107.352334 
L 153.293952 107.352334 
L 153.506784 107.196538 
L 159.891758 107.196538 
L 160.104591 106.417558 
L 164.786905 106.417558 
L 164.999737 105.17119 
L 166.915229 105.17119 
L 167.128062 104.859598 
L 187.985643 104.859598 
L 188.198475 104.548006 
L 188.411308 104.548006 
L 188.62414 104.39221 
L 192.667957 104.39221 
L 192.880789 104.236414 
L 197.350271 104.236414 
L 197.563104 103.924822 
L 197.988768 103.924822 
L 198.201601 103.301638 
L 200.968423 103.301638 
L 201.181255 102.990046 
L 203.735245 102.990046 
L 203.948077 102.83425 
L 213.525538 102.83425 
L 213.73837 102.678454 
L 217.356522 102.678454 
L 217.569355 102.522658 
L 224.592826 102.522658 
L 224.805658 102.05527 
L 233.531789 102.05527 
L 233.744622 101.432087 
L 258.858852 101.432087 
L 259.071684 101.276291 
L 262.051339 101.276291 
L 262.264171 100.497311 
L 265.882323 100.497311 
L 266.095155 100.341515 
L 276.736778 100.341515 
L 276.949611 100.185719 
L 286.101407 100.185719 
L 286.314239 100.029923 
L 286.527072 99.718331 
L 287.804066 99.718331 
L 288.442564 99.250943 
L 291.422218 99.250943 
L 291.847883 98.939351 
L 302.489506 98.939351 
L 302.702339 98.783555 
L 306.32049 98.783555 
L 306.533323 98.471963 
L 313.131129 98.471963 
L 313.343961 98.316167 
L 322.070092 98.316167 
L 322.282925 97.848779 
L 324.198417 97.848779 
L 324.411249 97.692983 
L 327.603736 97.692983 
L 327.816569 97.537187 
L 336.968364 97.537187 
L 337.181197 97.381391 
L 349.951144 97.381391 
L 350.163977 96.602411 
L 351.228139 96.602411 
L 351.440972 95.511839 
L 358.464443 95.511839 
L 358.677275 95.356043 
L 360.379935 95.356043 
L 360.592767 95.200247 
L 372.93705 95.200247 
L 373.149883 95.044451 
L 375.916705 95.044451 
L 375.916705 95.044451 
" clip-path="url(#pe432f07ee2)" style="fill: none; stroke: #5784db; stroke-width: 1.2; stroke-linecap: round"/>
   </g>
   <g id="line2d_50">
    <path d="M 69.650795 491.233632 
L 69.863628 489.987264 
L 70.07646 489.831468 
L 71.566288 489.831468 
L 71.991953 485.469181 
L 72.417617 463.03456 
L 72.63045 457.425904 
L 72.843282 444.650634 
L 73.268947 440.444142 
L 74.120277 424.085564 
L 74.545942 417.542133 
L 74.971607 414.114621 
L 75.184439 411.621886 
L 75.610104 409.284946 
L 76.035769 404.299474 
L 76.461434 397.756043 
L 77.099932 390.90102 
L 77.525596 382.488037 
L 77.738429 381.709057 
L 77.951261 354.600556 
L 78.164094 349.147697 
L 78.376926 347.589737 
L 78.589759 343.22745 
L 79.015424 312.535641 
L 79.228256 300.539351 
L 79.441089 297.579227 
L 79.866754 286.361917 
L 80.079586 282.155425 
L 80.930916 250.373045 
L 81.356581 244.297002 
L 81.569413 229.184791 
L 81.782246 227.003648 
L 81.995078 226.53626 
L 82.207911 225.601484 
L 82.420743 214.228377 
L 82.633575 213.293601 
L 83.484905 204.41323 
L 83.697738 204.257434 
L 84.123403 203.166862 
L 84.336235 203.011066 
L 84.549068 201.453107 
L 84.7619 201.297311 
L 84.974733 196.000247 
L 85.61323 169.203338 
L 85.826062 167.489583 
L 86.038895 167.333787 
L 86.251727 165.775827 
L 86.46456 155.804884 
L 86.677392 154.714312 
L 86.890225 154.558516 
L 87.103057 154.558516 
L 87.31589 154.091128 
L 87.954387 144.431777 
L 88.167219 144.120185 
L 88.380052 143.029614 
L 88.592884 143.029614 
L 89.018549 139.757898 
L 89.231382 139.602102 
L 89.444214 139.602102 
L 89.869879 138.355734 
L 90.082712 138.044142 
L 90.295544 138.044142 
L 90.721209 137.420958 
L 90.934041 137.420958 
L 91.146874 136.95357 
L 91.785371 136.95357 
L 91.998204 136.486182 
L 92.849534 136.486182 
L 93.062366 136.17459 
L 93.275198 136.17459 
L 93.488031 136.018794 
L 93.700863 135.551406 
L 94.339361 135.551406 
L 94.552193 130.877527 
L 94.765026 130.721731 
L 94.977858 130.721731 
L 95.190691 130.565935 
L 95.616356 130.565935 
L 95.829188 128.696383 
L 96.04202 128.540587 
L 96.254853 128.228995 
L 96.467685 128.228995 
L 96.89335 126.826832 
L 97.319015 126.047852 
L 97.531848 125.892056 
L 97.957513 125.892056 
L 98.170345 125.268872 
L 100.085837 125.268872 
L 100.511502 122.62034 
L 100.724335 121.84136 
L 102.001329 121.84136 
L 102.639827 121.373972 
L 102.852659 121.06238 
L 103.065492 121.06238 
L 103.278324 120.906584 
L 103.916821 120.906584 
L 104.129654 120.750788 
L 104.342486 120.439196 
L 104.555319 120.439196 
L 104.768151 120.2834 
L 105.193816 120.2834 
L 105.406649 120.127604 
L 108.173471 120.127604 
L 108.386303 119.971808 
L 108.811968 119.971808 
L 109.237633 119.660216 
L 109.450465 119.192828 
L 109.663298 119.037032 
L 110.301795 119.037032 
L 110.514628 118.258053 
L 110.940293 117.790665 
L 111.365957 117.479073 
L 114.771277 117.479073 
L 114.984109 117.323277 
L 116.686769 117.323277 
L 116.899601 117.167481 
L 117.325266 116.232705 
L 117.538099 116.076909 
L 117.750931 115.765317 
L 118.176596 115.765317 
L 118.389429 115.453725 
L 118.602261 112.493601 
L 119.027926 111.558825 
L 119.453591 110.779845 
L 119.666423 110.779845 
L 119.879256 110.624049 
L 120.092088 110.000866 
L 120.304921 109.84507 
L 120.730586 109.377682 
L 120.943418 109.377682 
L 121.156251 109.221886 
L 121.369083 109.221886 
L 121.581916 108.754498 
L 121.794748 107.819722 
L 122.220413 107.352334 
L 123.071743 107.352334 
L 123.284575 107.040742 
L 124.135905 107.040742 
L 124.348738 106.884946 
L 124.774402 105.95017 
L 124.987235 105.015394 
L 125.200067 104.859598 
L 125.4129 104.080618 
L 125.625732 103.924822 
L 129.669549 103.924822 
L 129.882381 103.769026 
L 131.372209 103.769026 
L 131.797874 103.145842 
L 134.139031 103.145842 
L 134.351863 102.990046 
L 134.777528 102.522658 
L 135.416025 102.522658 
L 135.628858 102.211066 
L 143.503659 102.211066 
L 143.716491 102.05527 
L 144.993486 102.05527 
L 145.206319 101.743679 
L 153.293952 101.743679 
L 153.506784 101.587883 
L 159.466093 101.587883 
L 159.678926 101.432087 
L 159.891758 100.964699 
L 160.104591 100.808903 
L 162.445748 100.808903 
L 162.65858 100.653107 
L 163.722743 100.653107 
L 164.148407 99.874127 
L 164.36124 99.718331 
L 164.786905 99.718331 
L 164.999737 99.406739 
L 165.425402 99.406739 
L 165.638235 99.250943 
L 166.276732 99.250943 
L 166.489564 99.095147 
L 183.303329 99.095147 
L 183.728994 98.783555 
L 188.198475 98.783555 
L 188.411308 98.627759 
L 191.816627 98.627759 
L 192.02946 98.471963 
L 197.137439 98.471963 
L 197.775936 98.004575 
L 197.988768 97.537187 
L 199.265763 97.537187 
L 199.691428 97.225595 
L 203.30958 97.225595 
L 203.522412 97.069799 
L 208.630391 97.069799 
L 208.843224 96.914003 
L 216.930857 96.914003 
L 217.14369 96.758207 
L 224.379993 96.758207 
L 224.805658 95.979227 
L 225.018491 95.979227 
L 225.231323 95.823431 
L 226.508318 95.823431 
L 226.72115 95.667635 
L 254.176538 95.667635 
L 254.38937 95.511839 
L 255.666365 95.511839 
L 255.879197 95.356043 
L 260.348679 95.356043 
L 260.774344 94.888655 
L 261.200009 94.888655 
L 261.412841 94.577063 
L 265.882323 94.577063 
L 266.095155 94.421267 
L 276.098281 94.421267 
L 276.311114 94.265471 
L 286.101407 94.265471 
L 286.314239 94.109675 
L 286.527072 93.798083 
L 287.804066 93.798083 
L 288.229731 93.486491 
L 288.442564 93.1749 
L 292.699213 93.1749 
L 292.912045 93.019104 
L 302.489506 93.019104 
L 302.702339 92.863308 
L 302.915171 92.863308 
L 303.128003 92.707512 
L 305.46916 92.707512 
L 305.681993 92.551716 
L 311.215637 92.551716 
L 311.428469 92.39592 
L 319.516103 92.39592 
L 320.1546 91.928532 
L 322.282925 91.928532 
L 322.495757 91.772736 
L 336.5427 91.772736 
L 336.755532 91.61694 
L 349.951144 91.61694 
L 350.163977 90.526368 
L 350.376809 90.370572 
L 350.589642 89.903184 
L 350.802474 89.747388 
L 357.187448 89.747388 
L 357.400281 89.591592 
L 359.528605 89.591592 
L 359.741438 89.435796 
L 372.08572 89.435796 
L 372.298553 89.28 
L 375.916705 89.28 
L 375.916705 89.28 
" clip-path="url(#pe432f07ee2)" style="fill: none; stroke: #c957db; stroke-width: 1.2; stroke-linecap: round"/>
   </g>
   <g id="line2d_51"/>
   <g id="line2d_52"/>
   <g id="line2d_53"/>
   <g id="line2d_54"/>
   <g id="line2d_55"/>
   <g id="patch_3">
    <path d="M 54.3375 512.64 
L 54.3375 69.12 
" style="fill: none; stroke: #cccccc; stroke-linejoin: miter; stroke-linecap: square"/>
   </g>
   <g id="patch_4">
    <path d="M 54.3375 512.64 
L 391.23 512.64 
" style="fill: none; stroke: #cccccc; stroke-linejoin: miter; stroke-linecap: square"/>
   </g>
   <g id="text_48">
    <!-- Edge Coverage History -->
    <g style="fill: #262626" transform="translate(115.892262 63.12)scale(0.165888 -0.165888)">
     <defs>
      <path id="DejaVuSans-Bold-45" d="M 588 4666 
L 3834 4666 
L 3834 3756 
L 1791 3756 
L 1791 2888 
L 3713 2888 
L 3713 1978 
L 1791 1978 
L 1791 909 
L 3903 909 
L 3903 0 
L 588 0 
L 588 4666 
z
" transform="scale(0.015625)"/>
      <path id="DejaVuSans-Bold-64" d="M 2919 2988 
L 2919 4863 
L 4044 4863 
L 4044 0 
L 2919 0 
L 2919 506 
Q 2688 197 2409 53 
Q 2131 -91 1766 -91 
Q 1119 -91 703 423 
Q 288 938 288 1747 
Q 288 2556 703 3070 
Q 1119 3584 1766 3584 
Q 2128 3584 2408 3439 
Q 2688 3294 2919 2988 
z
M 2181 722 
Q 2541 722 2730 984 
Q 2919 1247 2919 1747 
Q 2919 2247 2730 2509 
Q 2541 2772 2181 2772 
Q 1825 2772 1636 2509 
Q 1447 2247 1447 1747 
Q 1447 1247 1636 984 
Q 1825 722 2181 722 
z
" transform="scale(0.015625)"/>
      <path id="DejaVuSans-Bold-67" d="M 2919 594 
Q 2688 288 2409 144 
Q 2131 0 1766 0 
Q 1125 0 706 504 
Q 288 1009 288 1791 
Q 288 2575 706 3076 
Q 1125 3578 1766 3578 
Q 2131 3578 2409 3434 
Q 2688 3291 2919 2981 
L 2919 3500 
L 4044 3500 
L 4044 353 
Q 4044 -491 3511 -936 
Q 2978 -1381 1966 -1381 
Q 1638 -1381 1331 -1331 
Q 1025 -1281 716 -1178 
L 716 -306 
Q 1009 -475 1290 -558 
Q 1572 -641 1856 -641 
Q 2406 -641 2662 -400 
Q 2919 -159 2919 353 
L 2919 594 
z
M 2181 2772 
Q 1834 2772 1640 2515 
Q 1447 2259 1447 1791 
Q 1447 1309 1634 1061 
Q 1822 813 2181 813 
Q 2531 813 2725 1069 
Q 2919 1325 2919 1791 
Q 2919 2259 2725 2515 
Q 2531 2772 2181 2772 
z
" transform="scale(0.015625)"/>
      <path id="DejaVuSans-Bold-65" d="M 4031 1759 
L 4031 1441 
L 1416 1441 
Q 1456 1047 1700 850 
Q 1944 653 2381 653 
Q 2734 653 3104 758 
Q 3475 863 3866 1075 
L 3866 213 
Q 3469 63 3072 -14 
Q 2675 -91 2278 -91 
Q 1328 -91 801 392 
Q 275 875 275 1747 
Q 275 2603 792 3093 
Q 1309 3584 2216 3584 
Q 3041 3584 3536 3087 
Q 4031 2591 4031 1759 
z
M 2881 2131 
Q 2881 2450 2695 2645 
Q 2509 2841 2209 2841 
Q 1884 2841 1681 2658 
Q 1478 2475 1428 2131 
L 2881 2131 
z
" transform="scale(0.015625)"/>
      <path id="DejaVuSans-Bold-20" transform="scale(0.015625)"/>
      <path id="DejaVuSans-Bold-43" d="M 4288 256 
Q 3956 84 3597 -3 
Q 3238 -91 2847 -91 
Q 1681 -91 1000 561 
Q 319 1213 319 2328 
Q 319 3447 1000 4098 
Q 1681 4750 2847 4750 
Q 3238 4750 3597 4662 
Q 3956 4575 4288 4403 
L 4288 3438 
Q 3953 3666 3628 3772 
Q 3303 3878 2944 3878 
Q 2300 3878 1931 3465 
Q 1563 3053 1563 2328 
Q 1563 1606 1931 1193 
Q 2300 781 2944 781 
Q 3303 781 3628 887 
Q 3953 994 4288 1222 
L 4288 256 
z
" transform="scale(0.015625)"/>
      <path id="DejaVuSans-Bold-6f" d="M 2203 2784 
Q 1831 2784 1636 2517 
Q 1441 2250 1441 1747 
Q 1441 1244 1636 976 
Q 1831 709 2203 709 
Q 2569 709 2762 976 
Q 2956 1244 2956 1747 
Q 2956 2250 2762 2517 
Q 2569 2784 2203 2784 
z
M 2203 3584 
Q 3106 3584 3614 3096 
Q 4122 2609 4122 1747 
Q 4122 884 3614 396 
Q 3106 -91 2203 -91 
Q 1297 -91 786 396 
Q 275 884 275 1747 
Q 275 2609 786 3096 
Q 1297 3584 2203 3584 
z
" transform="scale(0.015625)"/>
      <path id="DejaVuSans-Bold-76" d="M 97 3500 
L 1216 3500 
L 2088 1081 
L 2956 3500 
L 4078 3500 
L 2700 0 
L 1472 0 
L 97 3500 
z
" transform="scale(0.015625)"/>
      <path id="DejaVuSans-Bold-72" d="M 3138 2547 
Q 2991 2616 2845 2648 
Q 2700 2681 2553 2681 
Q 2122 2681 1889 2404 
Q 1656 2128 1656 1613 
L 1656 0 
L 538 0 
L 538 3500 
L 1656 3500 
L 1656 2925 
Q 1872 3269 2151 3426 
Q 2431 3584 2822 3584 
Q 2878 3584 2943 3579 
Q 3009 3575 3134 3559 
L 3138 2547 
z
" transform="scale(0.015625)"/>
      <path id="DejaVuSans-Bold-61" d="M 2106 1575 
Q 1756 1575 1579 1456 
Q 1403 1338 1403 1106 
Q 1403 894 1545 773 
Q 1688 653 1941 653 
Q 2256 653 2472 879 
Q 2688 1106 2688 1447 
L 2688 1575 
L 2106 1575 
z
M 3816 1997 
L 3816 0 
L 2688 0 
L 2688 519 
Q 2463 200 2181 54 
Q 1900 -91 1497 -91 
Q 953 -91 614 226 
Q 275 544 275 1050 
Q 275 1666 698 1953 
Q 1122 2241 2028 2241 
L 2688 2241 
L 2688 2328 
Q 2688 2594 2478 2717 
Q 2269 2841 1825 2841 
Q 1466 2841 1156 2769 
Q 847 2697 581 2553 
L 581 3406 
Q 941 3494 1303 3539 
Q 1666 3584 2028 3584 
Q 2975 3584 3395 3211 
Q 3816 2838 3816 1997 
z
" transform="scale(0.015625)"/>
      <path id="DejaVuSans-Bold-48" d="M 588 4666 
L 1791 4666 
L 1791 2888 
L 3566 2888 
L 3566 4666 
L 4769 4666 
L 4769 0 
L 3566 0 
L 3566 1978 
L 1791 1978 
L 1791 0 
L 588 0 
L 588 4666 
z
" transform="scale(0.015625)"/>
      <path id="DejaVuSans-Bold-69" d="M 538 3500 
L 1656 3500 
L 1656 0 
L 538 0 
L 538 3500 
z
M 538 4863 
L 1656 4863 
L 1656 3950 
L 538 3950 
L 538 4863 
z
" transform="scale(0.015625)"/>
      <path id="DejaVuSans-Bold-73" d="M 3272 3391 
L 3272 2541 
Q 2913 2691 2578 2766 
Q 2244 2841 1947 2841 
Q 1628 2841 1473 2761 
Q 1319 2681 1319 2516 
Q 1319 2381 1436 2309 
Q 1553 2238 1856 2203 
L 2053 2175 
Q 2913 2066 3209 1816 
Q 3506 1566 3506 1031 
Q 3506 472 3093 190 
Q 2681 -91 1863 -91 
Q 1516 -91 1145 -36 
Q 775 19 384 128 
L 384 978 
Q 719 816 1070 734 
Q 1422 653 1784 653 
Q 2113 653 2278 743 
Q 2444 834 2444 1013 
Q 2444 1163 2330 1236 
Q 2216 1309 1875 1350 
L 1678 1375 
Q 931 1469 631 1722 
Q 331 1975 331 2491 
Q 331 3047 712 3315 
Q 1094 3584 1881 3584 
Q 2191 3584 2531 3537 
Q 2872 3491 3272 3391 
z
" transform="scale(0.015625)"/>
      <path id="DejaVuSans-Bold-74" d="M 1759 4494 
L 1759 3500 
L 2913 3500 
L 2913 2700 
L 1759 2700 
L 1759 1216 
Q 1759 972 1856 886 
Q 1953 800 2241 800 
L 2816 800 
L 2816 0 
L 1856 0 
Q 1194 0 917 276 
Q 641 553 641 1216 
L 641 2700 
L 84 2700 
L 84 3500 
L 641 3500 
L 641 4494 
L 1759 4494 
z
" transform="scale(0.015625)"/>
      <path id="DejaVuSans-Bold-79" d="M 78 3500 
L 1197 3500 
L 2138 1125 
L 2938 3500 
L 4056 3500 
L 2584 -331 
Q 2363 -916 2067 -1148 
Q 1772 -1381 1288 -1381 
L 641 -1381 
L 641 -647 
L 991 -647 
Q 1275 -647 1404 -556 
Q 1534 -466 1606 -231 
L 1638 -134 
L 78 3500 
z
" transform="scale(0.015625)"/>
     </defs>
     <use xlink:href="#DejaVuSans-Bold-45"/>
     <use xlink:href="#DejaVuSans-Bold-64" x="68.310547"/>
     <use xlink:href="#DejaVuSans-Bold-67" x="139.892578"/>
     <use xlink:href="#DejaVuSans-Bold-65" x="211.474609"/>
     <use xlink:href="#DejaVuSans-Bold-20" x="279.296875"/>
     <use xlink:href="#DejaVuSans-Bold-43" x="314.111328"/>
     <use xlink:href="#DejaVuSans-Bold-6f" x="387.5"/>
     <use xlink:href="#DejaVuSans-Bold-76" x="456.201172"/>
     <use xlink:href="#DejaVuSans-Bold-65" x="521.386719"/>
     <use xlink:href="#DejaVuSans-Bold-72" x="589.208984"/>
     <use xlink:href="#DejaVuSans-Bold-61" x="638.525391"/>
     <use xlink:href="#DejaVuSans-Bold-67" x="706.005859"/>
     <use xlink:href="#DejaVuSans-Bold-65" x="777.587891"/>
     <use xlink:href="#DejaVuSans-Bold-20" x="845.410156"/>
     <use xlink:href="#DejaVuSans-Bold-48" x="880.224609"/>
     <use xlink:href="#DejaVuSans-Bold-69" x="963.916016"/>
     <use xlink:href="#DejaVuSans-Bold-73" x="998.193359"/>
     <use xlink:href="#DejaVuSans-Bold-74" x="1057.714844"/>
     <use xlink:href="#DejaVuSans-Bold-6f" x="1105.517578"/>
     <use xlink:href="#DejaVuSans-Bold-72" x="1174.21875"/>
     <use xlink:href="#DejaVuSans-Bold-79" x="1223.535156"/>
    </g>
   </g>
   <g id="legend_1">
    <g id="patch_5">
     <path d="M 267.942 508.24 
L 385.07 508.24 
Q 386.83 508.24 386.83 506.48 
L 386.83 428.8405 
Q 386.83 427.0805 385.07 427.0805 
L 267.942 427.0805 
Q 266.182 427.0805 266.182 428.8405 
L 266.182 506.48 
Q 266.182 508.24 267.942 508.24 
z
" style="fill: #ffffff; opacity: 0.8; stroke: #cccccc; stroke-width: 0.8; stroke-linejoin: miter"/>
    </g>
    <g id="text_49">
     <!-- fuzzer -->
     <g style="fill: #262626" transform="translate(311.809 437.895)scale(0.096 -0.096)">
      <defs>
       <path id="DejaVuSans-66" d="M 2375 4863 
L 2375 4384 
L 1825 4384 
Q 1516 4384 1395 4259 
Q 1275 4134 1275 3809 
L 1275 3500 
L 2222 3500 
L 2222 3053 
L 1275 3053 
L 1275 0 
L 697 0 
L 697 3053 
L 147 3053 
L 147 3500 
L 697 3500 
L 697 3744 
Q 697 4328 969 4595 
Q 1241 4863 1831 4863 
L 2375 4863 
z
" transform="scale(0.015625)"/>
       <path id="DejaVuSans-7a" d="M 353 3500 
L 3084 3500 
L 3084 2975 
L 922 459 
L 3084 459 
L 3084 0 
L 275 0 
L 275 525 
L 2438 3041 
L 353 3041 
L 353 3500 
z
" transform="scale(0.015625)"/>
      </defs>
      <use xlink:href="#DejaVuSans-66"/>
      <use xlink:href="#DejaVuSans-75" x="35.205078"/>
      <use xlink:href="#DejaVuSans-7a" x="98.583984"/>
      <use xlink:href="#DejaVuSans-7a" x="151.074219"/>
      <use xlink:href="#DejaVuSans-65" x="203.564453"/>
      <use xlink:href="#DejaVuSans-72" x="265.087891"/>
     </g>
    </g>
    <g id="line2d_56">
     <path d="M 269.702 447.898125 
L 278.502 447.898125 
L 287.302 447.898125 
" style="fill: none; stroke: #db5f57; stroke-width: 1.2; stroke-linecap: round"/>
    </g>
    <g id="text_50">
     <!-- aflfast-0-exid23 -->
     <g style="fill: #262626" transform="translate(294.342 450.978125)scale(0.088 -0.088)">
      <defs>
       <path id="DejaVuSans-6c" d="M 603 4863 
L 1178 4863 
L 1178 0 
L 603 0 
L 603 4863 
z
" transform="scale(0.015625)"/>
       <path id="DejaVuSans-2d" d="M 313 2009 
L 1997 2009 
L 1997 1497 
L 313 1497 
L 313 2009 
z
" transform="scale(0.015625)"/>
       <path id="DejaVuSans-78" d="M 3513 3500 
L 2247 1797 
L 3578 0 
L 2900 0 
L 1881 1375 
L 863 0 
L 184 0 
L 1544 1831 
L 300 3500 
L 978 3500 
L 1906 2253 
L 2834 3500 
L 3513 3500 
z
" transform="scale(0.015625)"/>
      </defs>
      <use xlink:href="#DejaVuSans-61"/>
      <use xlink:href="#DejaVuSans-66" x="61.279297"/>
      <use xlink:href="#DejaVuSans-6c" x="96.484375"/>
      <use xlink:href="#DejaVuSans-66" x="124.267578"/>
      <use xlink:href="#DejaVuSans-61" x="159.472656"/>
      <use xlink:href="#DejaVuSans-73" x="220.751953"/>
      <use xlink:href="#DejaVuSans-74" x="272.851562"/>
      <use xlink:href="#DejaVuSans-2d" x="312.060547"/>
      <use xlink:href="#DejaVuSans-30" x="348.144531"/>
      <use xlink:href="#DejaVuSans-2d" x="411.767578"/>
      <use xlink:href="#DejaVuSans-65" x="447.851562"/>
      <use xlink:href="#DejaVuSans-78" x="507.625"/>
      <use xlink:href="#DejaVuSans-69" x="566.804688"/>
      <use xlink:href="#DejaVuSans-64" x="594.587891"/>
      <use xlink:href="#DejaVuSans-32" x="658.064453"/>
      <use xlink:href="#DejaVuSans-33" x="721.6875"/>
     </g>
    </g>
    <g id="line2d_57">
     <path d="M 269.702 460.814875 
L 278.502 460.814875 
L 287.302 460.814875 
" style="fill: none; stroke: #b9db57; stroke-width: 1.2; stroke-linecap: round"/>
    </g>
    <g id="text_51">
     <!-- afl-0-exid23 -->
     <g style="fill: #262626" transform="translate(294.342 463.894875)scale(0.088 -0.088)">
      <use xlink:href="#DejaVuSans-61"/>
      <use xlink:href="#DejaVuSans-66" x="61.279297"/>
      <use xlink:href="#DejaVuSans-6c" x="96.484375"/>
      <use xlink:href="#DejaVuSans-2d" x="124.267578"/>
      <use xlink:href="#DejaVuSans-30" x="160.351562"/>
      <use xlink:href="#DejaVuSans-2d" x="223.974609"/>
      <use xlink:href="#DejaVuSans-65" x="260.058594"/>
      <use xlink:href="#DejaVuSans-78" x="319.832031"/>
      <use xlink:href="#DejaVuSans-69" x="379.011719"/>
      <use xlink:href="#DejaVuSans-64" x="406.794922"/>
      <use xlink:href="#DejaVuSans-32" x="470.271484"/>
      <use xlink:href="#DejaVuSans-33" x="533.894531"/>
     </g>
    </g>
    <g id="line2d_58">
     <path d="M 269.702 473.731625 
L 278.502 473.731625 
L 287.302 473.731625 
" style="fill: none; stroke: #57db94; stroke-width: 1.2; stroke-linecap: round"/>
    </g>
    <g id="text_52">
     <!-- fairfuzz-0-exid23 -->
     <g style="fill: #262626" transform="translate(294.342 476.811625)scale(0.088 -0.088)">
      <use xlink:href="#DejaVuSans-66"/>
      <use xlink:href="#DejaVuSans-61" x="35.205078"/>
      <use xlink:href="#DejaVuSans-69" x="96.484375"/>
      <use xlink:href="#DejaVuSans-72" x="124.267578"/>
      <use xlink:href="#DejaVuSans-66" x="165.380859"/>
      <use xlink:href="#DejaVuSans-75" x="200.585938"/>
      <use xlink:href="#DejaVuSans-7a" x="263.964844"/>
      <use xlink:href="#DejaVuSans-7a" x="316.455078"/>
      <use xlink:href="#DejaVuSans-2d" x="368.945312"/>
      <use xlink:href="#DejaVuSans-30" x="405.029297"/>
      <use xlink:href="#DejaVuSans-2d" x="468.652344"/>
      <use xlink:href="#DejaVuSans-65" x="504.736328"/>
      <use xlink:href="#DejaVuSans-78" x="564.509766"/>
      <use xlink:href="#DejaVuSans-69" x="623.689453"/>
      <use xlink:href="#DejaVuSans-64" x="651.472656"/>
      <use xlink:href="#DejaVuSans-32" x="714.949219"/>
      <use xlink:href="#DejaVuSans-33" x="778.572266"/>
     </g>
    </g>
    <g id="line2d_59">
     <path d="M 269.702 486.648375 
L 278.502 486.648375 
L 287.302 486.648375 
" style="fill: none; stroke: #5784db; stroke-width: 1.2; stroke-linecap: round"/>
    </g>
    <g id="text_53">
     <!-- aflplusplus-0-exid23 -->
     <g style="fill: #262626" transform="translate(294.342 489.728375)scale(0.088 -0.088)">
      <defs>
       <path id="DejaVuSans-70" d="M 1159 525 
L 1159 -1331 
L 581 -1331 
L 581 3500 
L 1159 3500 
L 1159 2969 
Q 1341 3281 1617 3432 
Q 1894 3584 2278 3584 
Q 2916 3584 3314 3078 
Q 3713 2572 3713 1747 
Q 3713 922 3314 415 
Q 2916 -91 2278 -91 
Q 1894 -91 1617 61 
Q 1341 213 1159 525 
z
M 3116 1747 
Q 3116 2381 2855 2742 
Q 2594 3103 2138 3103 
Q 1681 3103 1420 2742 
Q 1159 2381 1159 1747 
Q 1159 1113 1420 752 
Q 1681 391 2138 391 
Q 2594 391 2855 752 
Q 3116 1113 3116 1747 
z
" transform="scale(0.015625)"/>
      </defs>
      <use xlink:href="#DejaVuSans-61"/>
      <use xlink:href="#DejaVuSans-66" x="61.279297"/>
      <use xlink:href="#DejaVuSans-6c" x="96.484375"/>
      <use xlink:href="#DejaVuSans-70" x="124.267578"/>
      <use xlink:href="#DejaVuSans-6c" x="187.744141"/>
      <use xlink:href="#DejaVuSans-75" x="215.527344"/>
      <use xlink:href="#DejaVuSans-73" x="278.90625"/>
      <use xlink:href="#DejaVuSans-70" x="331.005859"/>
      <use xlink:href="#DejaVuSans-6c" x="394.482422"/>
      <use xlink:href="#DejaVuSans-75" x="422.265625"/>
      <use xlink:href="#DejaVuSans-73" x="485.644531"/>
      <use xlink:href="#DejaVuSans-2d" x="537.744141"/>
      <use xlink:href="#DejaVuSans-30" x="573.828125"/>
      <use xlink:href="#DejaVuSans-2d" x="637.451172"/>
      <use xlink:href="#DejaVuSans-65" x="673.535156"/>
      <use xlink:href="#DejaVuSans-78" x="733.308594"/>
      <use xlink:href="#DejaVuSans-69" x="792.488281"/>
      <use xlink:href="#DejaVuSans-64" x="820.271484"/>
      <use xlink:href="#DejaVuSans-32" x="883.748047"/>
      <use xlink:href="#DejaVuSans-33" x="947.371094"/>
     </g>
    </g>
    <g id="line2d_60">
     <path d="M 269.702 499.565125 
L 278.502 499.565125 
L 287.302 499.565125 
" style="fill: none; stroke: #c957db; stroke-width: 1.2; stroke-linecap: round"/>
    </g>
    <g id="text_54">
     <!-- fuzzer_global -->
     <g style="fill: #262626" transform="translate(294.342 502.645125)scale(0.088 -0.088)">
      <defs>
       <path id="DejaVuSans-5f" d="M 3263 -1063 
L 3263 -1509 
L -63 -1509 
L -63 -1063 
L 3263 -1063 
z
" transform="scale(0.015625)"/>
       <path id="DejaVuSans-62" d="M 3116 1747 
Q 3116 2381 2855 2742 
Q 2594 3103 2138 3103 
Q 1681 3103 1420 2742 
Q 1159 2381 1159 1747 
Q 1159 1113 1420 752 
Q 1681 391 2138 391 
Q 2594 391 2855 752 
Q 3116 1113 3116 1747 
z
M 1159 2969 
Q 1341 3281 1617 3432 
Q 1894 3584 2278 3584 
Q 2916 3584 3314 3078 
Q 3713 2572 3713 1747 
Q 3713 922 3314 415 
Q 2916 -91 2278 -91 
Q 1894 -91 1617 61 
Q 1341 213 1159 525 
L 1159 0 
L 581 0 
L 581 4863 
L 1159 4863 
L 1159 2969 
z
" transform="scale(0.015625)"/>
      </defs>
      <use xlink:href="#DejaVuSans-66"/>
      <use xlink:href="#DejaVuSans-75" x="35.205078"/>
      <use xlink:href="#DejaVuSans-7a" x="98.583984"/>
      <use xlink:href="#DejaVuSans-7a" x="151.074219"/>
      <use xlink:href="#DejaVuSans-65" x="203.564453"/>
      <use xlink:href="#DejaVuSans-72" x="265.087891"/>
      <use xlink:href="#DejaVuSans-5f" x="306.201172"/>
      <use xlink:href="#DejaVuSans-67" x="356.201172"/>
      <use xlink:href="#DejaVuSans-6c" x="419.677734"/>
      <use xlink:href="#DejaVuSans-6f" x="447.460938"/>
      <use xlink:href="#DejaVuSans-62" x="508.642578"/>
      <use xlink:href="#DejaVuSans-61" x="572.119141"/>
      <use xlink:href="#DejaVuSans-6c" x="633.398438"/>
     </g>
    </g>
   </g>
  </g>
 </g>
 <defs>
  <clipPath id="pe432f07ee2">
   <rect x="54.3375" y="69.12" width="336.8925" height="443.52"/>
  </clipPath>
 </defs>
</svg>
