<?xml version="1.0" encoding="utf-8" standalone="no"?>
<!DOCTYPE svg PUBLIC "-//W3C//DTD SVG 1.1//EN"
  "http://www.w3.org/Graphics/SVG/1.1/DTD/svg11.dtd">
<svg xmlns:xlink="http://www.w3.org/1999/xlink" width="434.7pt" height="576pt" viewBox="0 0 434.7 576" xmlns="http://www.w3.org/2000/svg" version="1.1">
 <metadata>
  <rdf:RDF xmlns:dc="http://purl.org/dc/elements/1.1/" xmlns:cc="http://creativecommons.org/ns#" xmlns:rdf="http://www.w3.org/1999/02/22-rdf-syntax-ns#">
   <cc:Work>
    <dc:type rdf:resource="http://purl.org/dc/dcmitype/StillImage"/>
    <dc:date>2022-09-15T10:25:17.374135</dc:date>
    <dc:format>image/svg+xml</dc:format>
    <dc:creator>
     <cc:Agent>
      <dc:title>Matplotlib v3.5.3, https://matplotlib.org/</dc:title>
     </cc:Agent>
    </dc:creator>
   </cc:Work>
  </rdf:RDF>
 </metadata>
 <defs>
  <style type="text/css">*{stroke-linejoin: round; stroke-linecap: butt}</style>
 </defs>
 <g id="figure_1">
  <g id="patch_1">
   <path d="M 0 576 
L 434.7 576 
L 434.7 0 
L 0 0 
z
" style="fill: #ffffff"/>
  </g>
  <g id="axes_1">
   <g id="patch_2">
    <path d="M 54.3375 512.64 
L 391.23 512.64 
L 391.23 69.12 
L 54.3375 69.12 
z
" style="fill: #ffffff"/>
   </g>
   <g id="matplotlib.axis_1">
    <g id="xtick_1">
     <g id="line2d_1">
      <path d="M 69.650795 512.64 
L 69.650795 69.12 
" clip-path="url(#p347b41ff58)" style="fill: none; stroke: #cccccc; stroke-width: 0.8; stroke-linecap: round"/>
     </g>
     <g id="text_1">
      <!-- 0 -->
      <g style="fill: #262626" transform="translate(69.388282 529.627249)rotate(-45)scale(0.088 -0.088)">
       <defs>
        <path id="DejaVuSans-30" d="M 2034 4250 
Q 1547 4250 1301 3770 
Q 1056 3291 1056 2328 
Q 1056 1369 1301 889 
Q 1547 409 2034 409 
Q 2525 409 2770 889 
Q 3016 1369 3016 2328 
Q 3016 3291 2770 3770 
Q 2525 4250 2034 4250 
z
M 2034 4750 
Q 2819 4750 3233 4129 
Q 3647 3509 3647 2328 
Q 3647 1150 3233 529 
Q 2819 -91 2034 -91 
Q 1250 -91 836 529 
Q 422 1150 422 2328 
Q 422 3509 836 4129 
Q 1250 4750 2034 4750 
z
" transform="scale(0.015625)"/>
       </defs>
       <use xlink:href="#DejaVuSans-30"/>
      </g>
     </g>
    </g>
    <g id="xtick_2">
     <g id="line2d_2">
      <path d="M 86.677392 512.64 
L 86.677392 69.12 
" clip-path="url(#p347b41ff58)" style="fill: none; stroke: #cccccc; stroke-width: 0.8; stroke-linecap: round"/>
     </g>
     <g id="text_2">
      <!-- 80 -->
      <g style="fill: #262626" transform="translate(84.435333 533.58634)rotate(-45)scale(0.088 -0.088)">
       <defs>
        <path id="DejaVuSans-38" d="M 2034 2216 
Q 1584 2216 1326 1975 
Q 1069 1734 1069 1313 
Q 1069 891 1326 650 
Q 1584 409 2034 409 
Q 2484 409 2743 651 
Q 3003 894 3003 1313 
Q 3003 1734 2745 1975 
Q 2488 2216 2034 2216 
z
M 1403 2484 
Q 997 2584 770 2862 
Q 544 3141 544 3541 
Q 544 4100 942 4425 
Q 1341 4750 2034 4750 
Q 2731 4750 3128 4425 
Q 3525 4100 3525 3541 
Q 3525 3141 3298 2862 
Q 3072 2584 2669 2484 
Q 3125 2378 3379 2068 
Q 3634 1759 3634 1313 
Q 3634 634 3220 271 
Q 2806 -91 2034 -91 
Q 1263 -91 848 271 
Q 434 634 434 1313 
Q 434 1759 690 2068 
Q 947 2378 1403 2484 
z
M 1172 3481 
Q 1172 3119 1398 2916 
Q 1625 2713 2034 2713 
Q 2441 2713 2670 2916 
Q 2900 3119 2900 3481 
Q 2900 3844 2670 4047 
Q 2441 4250 2034 4250 
Q 1625 4250 1398 4047 
Q 1172 3844 1172 3481 
z
" transform="scale(0.015625)"/>
       </defs>
       <use xlink:href="#DejaVuSans-38"/>
       <use xlink:href="#DejaVuSans-30" x="63.623047"/>
      </g>
     </g>
    </g>
    <g id="xtick_3">
     <g id="line2d_3">
      <path d="M 103.703989 512.64 
L 103.703989 69.12 
" clip-path="url(#p347b41ff58)" style="fill: none; stroke: #cccccc; stroke-width: 0.8; stroke-linecap: round"/>
     </g>
     <g id="text_3">
      <!-- 160 -->
      <g style="fill: #262626" transform="translate(99.482385 537.54543)rotate(-45)scale(0.088 -0.088)">
       <defs>
        <path id="DejaVuSans-31" d="M 794 531 
L 1825 531 
L 1825 4091 
L 703 3866 
L 703 4441 
L 1819 4666 
L 2450 4666 
L 2450 531 
L 3481 531 
L 3481 0 
L 794 0 
L 794 531 
z
" transform="scale(0.015625)"/>
        <path id="DejaVuSans-36" d="M 2113 2584 
Q 1688 2584 1439 2293 
Q 1191 2003 1191 1497 
Q 1191 994 1439 701 
Q 1688 409 2113 409 
Q 2538 409 2786 701 
Q 3034 994 3034 1497 
Q 3034 2003 2786 2293 
Q 2538 2584 2113 2584 
z
M 3366 4563 
L 3366 3988 
Q 3128 4100 2886 4159 
Q 2644 4219 2406 4219 
Q 1781 4219 1451 3797 
Q 1122 3375 1075 2522 
Q 1259 2794 1537 2939 
Q 1816 3084 2150 3084 
Q 2853 3084 3261 2657 
Q 3669 2231 3669 1497 
Q 3669 778 3244 343 
Q 2819 -91 2113 -91 
Q 1303 -91 875 529 
Q 447 1150 447 2328 
Q 447 3434 972 4092 
Q 1497 4750 2381 4750 
Q 2619 4750 2861 4703 
Q 3103 4656 3366 4563 
z
" transform="scale(0.015625)"/>
       </defs>
       <use xlink:href="#DejaVuSans-31"/>
       <use xlink:href="#DejaVuSans-36" x="63.623047"/>
       <use xlink:href="#DejaVuSans-30" x="127.246094"/>
      </g>
     </g>
    </g>
    <g id="xtick_4">
     <g id="line2d_4">
      <path d="M 120.730586 512.64 
L 120.730586 69.12 
" clip-path="url(#p347b41ff58)" style="fill: none; stroke: #cccccc; stroke-width: 0.8; stroke-linecap: round"/>
     </g>
     <g id="text_4">
      <!-- 240 -->
      <g style="fill: #262626" transform="translate(116.508981 537.54543)rotate(-45)scale(0.088 -0.088)">
       <defs>
        <path id="DejaVuSans-32" d="M 1228 531 
L 3431 531 
L 3431 0 
L 469 0 
L 469 531 
Q 828 903 1448 1529 
Q 2069 2156 2228 2338 
Q 2531 2678 2651 2914 
Q 2772 3150 2772 3378 
Q 2772 3750 2511 3984 
Q 2250 4219 1831 4219 
Q 1534 4219 1204 4116 
Q 875 4013 500 3803 
L 500 4441 
Q 881 4594 1212 4672 
Q 1544 4750 1819 4750 
Q 2544 4750 2975 4387 
Q 3406 4025 3406 3419 
Q 3406 3131 3298 2873 
Q 3191 2616 2906 2266 
Q 2828 2175 2409 1742 
Q 1991 1309 1228 531 
z
" transform="scale(0.015625)"/>
        <path id="DejaVuSans-34" d="M 2419 4116 
L 825 1625 
L 2419 1625 
L 2419 4116 
z
M 2253 4666 
L 3047 4666 
L 3047 1625 
L 3713 1625 
L 3713 1100 
L 3047 1100 
L 3047 0 
L 2419 0 
L 2419 1100 
L 313 1100 
L 313 1709 
L 2253 4666 
z
" transform="scale(0.015625)"/>
       </defs>
       <use xlink:href="#DejaVuSans-32"/>
       <use xlink:href="#DejaVuSans-34" x="63.623047"/>
       <use xlink:href="#DejaVuSans-30" x="127.246094"/>
      </g>
     </g>
    </g>
    <g id="xtick_5">
     <g id="line2d_5">
      <path d="M 137.757182 512.64 
L 137.757182 69.12 
" clip-path="url(#p347b41ff58)" style="fill: none; stroke: #cccccc; stroke-width: 0.8; stroke-linecap: round"/>
     </g>
     <g id="text_5">
      <!-- 320 -->
      <g style="fill: #262626" transform="translate(133.535578 537.54543)rotate(-45)scale(0.088 -0.088)">
       <defs>
        <path id="DejaVuSans-33" d="M 2597 2516 
Q 3050 2419 3304 2112 
Q 3559 1806 3559 1356 
Q 3559 666 3084 287 
Q 2609 -91 1734 -91 
Q 1441 -91 1130 -33 
Q 819 25 488 141 
L 488 750 
Q 750 597 1062 519 
Q 1375 441 1716 441 
Q 2309 441 2620 675 
Q 2931 909 2931 1356 
Q 2931 1769 2642 2001 
Q 2353 2234 1838 2234 
L 1294 2234 
L 1294 2753 
L 1863 2753 
Q 2328 2753 2575 2939 
Q 2822 3125 2822 3475 
Q 2822 3834 2567 4026 
Q 2313 4219 1838 4219 
Q 1578 4219 1281 4162 
Q 984 4106 628 3988 
L 628 4550 
Q 988 4650 1302 4700 
Q 1616 4750 1894 4750 
Q 2613 4750 3031 4423 
Q 3450 4097 3450 3541 
Q 3450 3153 3228 2886 
Q 3006 2619 2597 2516 
z
" transform="scale(0.015625)"/>
       </defs>
       <use xlink:href="#DejaVuSans-33"/>
       <use xlink:href="#DejaVuSans-32" x="63.623047"/>
       <use xlink:href="#DejaVuSans-30" x="127.246094"/>
      </g>
     </g>
    </g>
    <g id="xtick_6">
     <g id="line2d_6">
      <path d="M 154.783779 512.64 
L 154.783779 69.12 
" clip-path="url(#p347b41ff58)" style="fill: none; stroke: #cccccc; stroke-width: 0.8; stroke-linecap: round"/>
     </g>
     <g id="text_6">
      <!-- 400 -->
      <g style="fill: #262626" transform="translate(150.562175 537.54543)rotate(-45)scale(0.088 -0.088)">
       <use xlink:href="#DejaVuSans-34"/>
       <use xlink:href="#DejaVuSans-30" x="63.623047"/>
       <use xlink:href="#DejaVuSans-30" x="127.246094"/>
      </g>
     </g>
    </g>
    <g id="xtick_7">
     <g id="line2d_7">
      <path d="M 171.810376 512.64 
L 171.810376 69.12 
" clip-path="url(#p347b41ff58)" style="fill: none; stroke: #cccccc; stroke-width: 0.8; stroke-linecap: round"/>
     </g>
     <g id="text_7">
      <!-- 480 -->
      <g style="fill: #262626" transform="translate(167.588772 537.54543)rotate(-45)scale(0.088 -0.088)">
       <use xlink:href="#DejaVuSans-34"/>
       <use xlink:href="#DejaVuSans-38" x="63.623047"/>
       <use xlink:href="#DejaVuSans-30" x="127.246094"/>
      </g>
     </g>
    </g>
    <g id="xtick_8">
     <g id="line2d_8">
      <path d="M 188.836973 512.64 
L 188.836973 69.12 
" clip-path="url(#p347b41ff58)" style="fill: none; stroke: #cccccc; stroke-width: 0.8; stroke-linecap: round"/>
     </g>
     <g id="text_8">
      <!-- 560 -->
      <g style="fill: #262626" transform="translate(184.615368 537.54543)rotate(-45)scale(0.088 -0.088)">
       <defs>
        <path id="DejaVuSans-35" d="M 691 4666 
L 3169 4666 
L 3169 4134 
L 1269 4134 
L 1269 2991 
Q 1406 3038 1543 3061 
Q 1681 3084 1819 3084 
Q 2600 3084 3056 2656 
Q 3513 2228 3513 1497 
Q 3513 744 3044 326 
Q 2575 -91 1722 -91 
Q 1428 -91 1123 -41 
Q 819 9 494 109 
L 494 744 
Q 775 591 1075 516 
Q 1375 441 1709 441 
Q 2250 441 2565 725 
Q 2881 1009 2881 1497 
Q 2881 1984 2565 2268 
Q 2250 2553 1709 2553 
Q 1456 2553 1204 2497 
Q 953 2441 691 2322 
L 691 4666 
z
" transform="scale(0.015625)"/>
       </defs>
       <use xlink:href="#DejaVuSans-35"/>
       <use xlink:href="#DejaVuSans-36" x="63.623047"/>
       <use xlink:href="#DejaVuSans-30" x="127.246094"/>
      </g>
     </g>
    </g>
    <g id="xtick_9">
     <g id="line2d_9">
      <path d="M 205.863569 512.64 
L 205.863569 69.12 
" clip-path="url(#p347b41ff58)" style="fill: none; stroke: #cccccc; stroke-width: 0.8; stroke-linecap: round"/>
     </g>
     <g id="text_9">
      <!-- 640 -->
      <g style="fill: #262626" transform="translate(201.641965 537.54543)rotate(-45)scale(0.088 -0.088)">
       <use xlink:href="#DejaVuSans-36"/>
       <use xlink:href="#DejaVuSans-34" x="63.623047"/>
       <use xlink:href="#DejaVuSans-30" x="127.246094"/>
      </g>
     </g>
    </g>
    <g id="xtick_10">
     <g id="line2d_10">
      <path d="M 222.890166 512.64 
L 222.890166 69.12 
" clip-path="url(#p347b41ff58)" style="fill: none; stroke: #cccccc; stroke-width: 0.8; stroke-linecap: round"/>
     </g>
     <g id="text_10">
      <!-- 720 -->
      <g style="fill: #262626" transform="translate(218.668562 537.54543)rotate(-45)scale(0.088 -0.088)">
       <defs>
        <path id="DejaVuSans-37" d="M 525 4666 
L 3525 4666 
L 3525 4397 
L 1831 0 
L 1172 0 
L 2766 4134 
L 525 4134 
L 525 4666 
z
" transform="scale(0.015625)"/>
       </defs>
       <use xlink:href="#DejaVuSans-37"/>
       <use xlink:href="#DejaVuSans-32" x="63.623047"/>
       <use xlink:href="#DejaVuSans-30" x="127.246094"/>
      </g>
     </g>
    </g>
    <g id="xtick_11">
     <g id="line2d_11">
      <path d="M 239.916763 512.64 
L 239.916763 69.12 
" clip-path="url(#p347b41ff58)" style="fill: none; stroke: #cccccc; stroke-width: 0.8; stroke-linecap: round"/>
     </g>
     <g id="text_11">
      <!-- 800 -->
      <g style="fill: #262626" transform="translate(235.695159 537.54543)rotate(-45)scale(0.088 -0.088)">
       <use xlink:href="#DejaVuSans-38"/>
       <use xlink:href="#DejaVuSans-30" x="63.623047"/>
       <use xlink:href="#DejaVuSans-30" x="127.246094"/>
      </g>
     </g>
    </g>
    <g id="xtick_12">
     <g id="line2d_12">
      <path d="M 256.94336 512.64 
L 256.94336 69.12 
" clip-path="url(#p347b41ff58)" style="fill: none; stroke: #cccccc; stroke-width: 0.8; stroke-linecap: round"/>
     </g>
     <g id="text_12">
      <!-- 880 -->
      <g style="fill: #262626" transform="translate(252.721755 537.54543)rotate(-45)scale(0.088 -0.088)">
       <use xlink:href="#DejaVuSans-38"/>
       <use xlink:href="#DejaVuSans-38" x="63.623047"/>
       <use xlink:href="#DejaVuSans-30" x="127.246094"/>
      </g>
     </g>
    </g>
    <g id="xtick_13">
     <g id="line2d_13">
      <path d="M 273.969956 512.64 
L 273.969956 69.12 
" clip-path="url(#p347b41ff58)" style="fill: none; stroke: #cccccc; stroke-width: 0.8; stroke-linecap: round"/>
     </g>
     <g id="text_13">
      <!-- 960 -->
      <g style="fill: #262626" transform="translate(269.748352 537.54543)rotate(-45)scale(0.088 -0.088)">
       <defs>
        <path id="DejaVuSans-39" d="M 703 97 
L 703 672 
Q 941 559 1184 500 
Q 1428 441 1663 441 
Q 2288 441 2617 861 
Q 2947 1281 2994 2138 
Q 2813 1869 2534 1725 
Q 2256 1581 1919 1581 
Q 1219 1581 811 2004 
Q 403 2428 403 3163 
Q 403 3881 828 4315 
Q 1253 4750 1959 4750 
Q 2769 4750 3195 4129 
Q 3622 3509 3622 2328 
Q 3622 1225 3098 567 
Q 2575 -91 1691 -91 
Q 1453 -91 1209 -44 
Q 966 3 703 97 
z
M 1959 2075 
Q 2384 2075 2632 2365 
Q 2881 2656 2881 3163 
Q 2881 3666 2632 3958 
Q 2384 4250 1959 4250 
Q 1534 4250 1286 3958 
Q 1038 3666 1038 3163 
Q 1038 2656 1286 2365 
Q 1534 2075 1959 2075 
z
" transform="scale(0.015625)"/>
       </defs>
       <use xlink:href="#DejaVuSans-39"/>
       <use xlink:href="#DejaVuSans-36" x="63.623047"/>
       <use xlink:href="#DejaVuSans-30" x="127.246094"/>
      </g>
     </g>
    </g>
    <g id="xtick_14">
     <g id="line2d_14">
      <path d="M 290.996553 512.64 
L 290.996553 69.12 
" clip-path="url(#p347b41ff58)" style="fill: none; stroke: #cccccc; stroke-width: 0.8; stroke-linecap: round"/>
     </g>
     <g id="text_14">
      <!-- 1040 -->
      <g style="fill: #262626" transform="translate(284.795404 541.504521)rotate(-45)scale(0.088 -0.088)">
       <use xlink:href="#DejaVuSans-31"/>
       <use xlink:href="#DejaVuSans-30" x="63.623047"/>
       <use xlink:href="#DejaVuSans-34" x="127.246094"/>
       <use xlink:href="#DejaVuSans-30" x="190.869141"/>
      </g>
     </g>
    </g>
    <g id="xtick_15">
     <g id="line2d_15">
      <path d="M 308.02315 512.64 
L 308.02315 69.12 
" clip-path="url(#p347b41ff58)" style="fill: none; stroke: #cccccc; stroke-width: 0.8; stroke-linecap: round"/>
     </g>
     <g id="text_15">
      <!-- 1120 -->
      <g style="fill: #262626" transform="translate(301.822 541.504521)rotate(-45)scale(0.088 -0.088)">
       <use xlink:href="#DejaVuSans-31"/>
       <use xlink:href="#DejaVuSans-31" x="63.623047"/>
       <use xlink:href="#DejaVuSans-32" x="127.246094"/>
       <use xlink:href="#DejaVuSans-30" x="190.869141"/>
      </g>
     </g>
    </g>
    <g id="xtick_16">
     <g id="line2d_16">
      <path d="M 325.049747 512.64 
L 325.049747 69.12 
" clip-path="url(#p347b41ff58)" style="fill: none; stroke: #cccccc; stroke-width: 0.8; stroke-linecap: round"/>
     </g>
     <g id="text_16">
      <!-- 1200 -->
      <g style="fill: #262626" transform="translate(318.848597 541.504521)rotate(-45)scale(0.088 -0.088)">
       <use xlink:href="#DejaVuSans-31"/>
       <use xlink:href="#DejaVuSans-32" x="63.623047"/>
       <use xlink:href="#DejaVuSans-30" x="127.246094"/>
       <use xlink:href="#DejaVuSans-30" x="190.869141"/>
      </g>
     </g>
    </g>
    <g id="xtick_17">
     <g id="line2d_17">
      <path d="M 342.076343 512.64 
L 342.076343 69.12 
" clip-path="url(#p347b41ff58)" style="fill: none; stroke: #cccccc; stroke-width: 0.8; stroke-linecap: round"/>
     </g>
     <g id="text_17">
      <!-- 1280 -->
      <g style="fill: #262626" transform="translate(335.875194 541.504521)rotate(-45)scale(0.088 -0.088)">
       <use xlink:href="#DejaVuSans-31"/>
       <use xlink:href="#DejaVuSans-32" x="63.623047"/>
       <use xlink:href="#DejaVuSans-38" x="127.246094"/>
       <use xlink:href="#DejaVuSans-30" x="190.869141"/>
      </g>
     </g>
    </g>
    <g id="xtick_18">
     <g id="line2d_18">
      <path d="M 359.10294 512.64 
L 359.10294 69.12 
" clip-path="url(#p347b41ff58)" style="fill: none; stroke: #cccccc; stroke-width: 0.8; stroke-linecap: round"/>
     </g>
     <g id="text_18">
      <!-- 1360 -->
      <g style="fill: #262626" transform="translate(352.901791 541.504521)rotate(-45)scale(0.088 -0.088)">
       <use xlink:href="#DejaVuSans-31"/>
       <use xlink:href="#DejaVuSans-33" x="63.623047"/>
       <use xlink:href="#DejaVuSans-36" x="127.246094"/>
       <use xlink:href="#DejaVuSans-30" x="190.869141"/>
      </g>
     </g>
    </g>
    <g id="xtick_19">
     <g id="line2d_19">
      <path d="M 376.129537 512.64 
L 376.129537 69.12 
" clip-path="url(#p347b41ff58)" style="fill: none; stroke: #cccccc; stroke-width: 0.8; stroke-linecap: round"/>
     </g>
     <g id="text_19">
      <!-- 1440 -->
      <g style="fill: #262626" transform="translate(369.928387 541.504521)rotate(-45)scale(0.088 -0.088)">
       <use xlink:href="#DejaVuSans-31"/>
       <use xlink:href="#DejaVuSans-34" x="63.623047"/>
       <use xlink:href="#DejaVuSans-34" x="127.246094"/>
       <use xlink:href="#DejaVuSans-30" x="190.869141"/>
      </g>
     </g>
    </g>
    <g id="text_20">
     <!-- Time (Minutes) -->
     <g style="fill: #262626" transform="translate(186.87375 554.093115)scale(0.096 -0.096)">
      <defs>
       <path id="DejaVuSans-54" d="M -19 4666 
L 3928 4666 
L 3928 4134 
L 2272 4134 
L 2272 0 
L 1638 0 
L 1638 4134 
L -19 4134 
L -19 4666 
z
" transform="scale(0.015625)"/>
       <path id="DejaVuSans-69" d="M 603 3500 
L 1178 3500 
L 1178 0 
L 603 0 
L 603 3500 
z
M 603 4863 
L 1178 4863 
L 1178 4134 
L 603 4134 
L 603 4863 
z
" transform="scale(0.015625)"/>
       <path id="DejaVuSans-6d" d="M 3328 2828 
Q 3544 3216 3844 3400 
Q 4144 3584 4550 3584 
Q 5097 3584 5394 3201 
Q 5691 2819 5691 2113 
L 5691 0 
L 5113 0 
L 5113 2094 
Q 5113 2597 4934 2840 
Q 4756 3084 4391 3084 
Q 3944 3084 3684 2787 
Q 3425 2491 3425 1978 
L 3425 0 
L 2847 0 
L 2847 2094 
Q 2847 2600 2669 2842 
Q 2491 3084 2119 3084 
Q 1678 3084 1418 2786 
Q 1159 2488 1159 1978 
L 1159 0 
L 581 0 
L 581 3500 
L 1159 3500 
L 1159 2956 
Q 1356 3278 1631 3431 
Q 1906 3584 2284 3584 
Q 2666 3584 2933 3390 
Q 3200 3197 3328 2828 
z
" transform="scale(0.015625)"/>
       <path id="DejaVuSans-65" d="M 3597 1894 
L 3597 1613 
L 953 1613 
Q 991 1019 1311 708 
Q 1631 397 2203 397 
Q 2534 397 2845 478 
Q 3156 559 3463 722 
L 3463 178 
Q 3153 47 2828 -22 
Q 2503 -91 2169 -91 
Q 1331 -91 842 396 
Q 353 884 353 1716 
Q 353 2575 817 3079 
Q 1281 3584 2069 3584 
Q 2775 3584 3186 3129 
Q 3597 2675 3597 1894 
z
M 3022 2063 
Q 3016 2534 2758 2815 
Q 2500 3097 2075 3097 
Q 1594 3097 1305 2825 
Q 1016 2553 972 2059 
L 3022 2063 
z
" transform="scale(0.015625)"/>
       <path id="DejaVuSans-20" transform="scale(0.015625)"/>
       <path id="DejaVuSans-28" d="M 1984 4856 
Q 1566 4138 1362 3434 
Q 1159 2731 1159 2009 
Q 1159 1288 1364 580 
Q 1569 -128 1984 -844 
L 1484 -844 
Q 1016 -109 783 600 
Q 550 1309 550 2009 
Q 550 2706 781 3412 
Q 1013 4119 1484 4856 
L 1984 4856 
z
" transform="scale(0.015625)"/>
       <path id="DejaVuSans-4d" d="M 628 4666 
L 1569 4666 
L 2759 1491 
L 3956 4666 
L 4897 4666 
L 4897 0 
L 4281 0 
L 4281 4097 
L 3078 897 
L 2444 897 
L 1241 4097 
L 1241 0 
L 628 0 
L 628 4666 
z
" transform="scale(0.015625)"/>
       <path id="DejaVuSans-6e" d="M 3513 2113 
L 3513 0 
L 2938 0 
L 2938 2094 
Q 2938 2591 2744 2837 
Q 2550 3084 2163 3084 
Q 1697 3084 1428 2787 
Q 1159 2491 1159 1978 
L 1159 0 
L 581 0 
L 581 3500 
L 1159 3500 
L 1159 2956 
Q 1366 3272 1645 3428 
Q 1925 3584 2291 3584 
Q 2894 3584 3203 3211 
Q 3513 2838 3513 2113 
z
" transform="scale(0.015625)"/>
       <path id="DejaVuSans-75" d="M 544 1381 
L 544 3500 
L 1119 3500 
L 1119 1403 
Q 1119 906 1312 657 
Q 1506 409 1894 409 
Q 2359 409 2629 706 
Q 2900 1003 2900 1516 
L 2900 3500 
L 3475 3500 
L 3475 0 
L 2900 0 
L 2900 538 
Q 2691 219 2414 64 
Q 2138 -91 1772 -91 
Q 1169 -91 856 284 
Q 544 659 544 1381 
z
M 1991 3584 
L 1991 3584 
z
" transform="scale(0.015625)"/>
       <path id="DejaVuSans-74" d="M 1172 4494 
L 1172 3500 
L 2356 3500 
L 2356 3053 
L 1172 3053 
L 1172 1153 
Q 1172 725 1289 603 
Q 1406 481 1766 481 
L 2356 481 
L 2356 0 
L 1766 0 
Q 1100 0 847 248 
Q 594 497 594 1153 
L 594 3053 
L 172 3053 
L 172 3500 
L 594 3500 
L 594 4494 
L 1172 4494 
z
" transform="scale(0.015625)"/>
       <path id="DejaVuSans-73" d="M 2834 3397 
L 2834 2853 
Q 2591 2978 2328 3040 
Q 2066 3103 1784 3103 
Q 1356 3103 1142 2972 
Q 928 2841 928 2578 
Q 928 2378 1081 2264 
Q 1234 2150 1697 2047 
L 1894 2003 
Q 2506 1872 2764 1633 
Q 3022 1394 3022 966 
Q 3022 478 2636 193 
Q 2250 -91 1575 -91 
Q 1294 -91 989 -36 
Q 684 19 347 128 
L 347 722 
Q 666 556 975 473 
Q 1284 391 1588 391 
Q 1994 391 2212 530 
Q 2431 669 2431 922 
Q 2431 1156 2273 1281 
Q 2116 1406 1581 1522 
L 1381 1569 
Q 847 1681 609 1914 
Q 372 2147 372 2553 
Q 372 3047 722 3315 
Q 1072 3584 1716 3584 
Q 2034 3584 2315 3537 
Q 2597 3491 2834 3397 
z
" transform="scale(0.015625)"/>
       <path id="DejaVuSans-29" d="M 513 4856 
L 1013 4856 
Q 1481 4119 1714 3412 
Q 1947 2706 1947 2009 
Q 1947 1309 1714 600 
Q 1481 -109 1013 -844 
L 513 -844 
Q 928 -128 1133 580 
Q 1338 1288 1338 2009 
Q 1338 2731 1133 3434 
Q 928 4138 513 4856 
z
" transform="scale(0.015625)"/>
      </defs>
      <use xlink:href="#DejaVuSans-54"/>
      <use xlink:href="#DejaVuSans-69" x="57.958984"/>
      <use xlink:href="#DejaVuSans-6d" x="85.742188"/>
      <use xlink:href="#DejaVuSans-65" x="183.154297"/>
      <use xlink:href="#DejaVuSans-20" x="244.677734"/>
      <use xlink:href="#DejaVuSans-28" x="276.464844"/>
      <use xlink:href="#DejaVuSans-4d" x="315.478516"/>
      <use xlink:href="#DejaVuSans-69" x="401.757812"/>
      <use xlink:href="#DejaVuSans-6e" x="429.541016"/>
      <use xlink:href="#DejaVuSans-75" x="492.919922"/>
      <use xlink:href="#DejaVuSans-74" x="556.298828"/>
      <use xlink:href="#DejaVuSans-65" x="595.507812"/>
      <use xlink:href="#DejaVuSans-73" x="657.03125"/>
      <use xlink:href="#DejaVuSans-29" x="709.130859"/>
     </g>
    </g>
   </g>
   <g id="matplotlib.axis_2">
    <g id="ytick_1">
     <g id="line2d_20">
      <path d="M 54.3375 492.48 
L 391.23 492.48 
" clip-path="url(#p347b41ff58)" style="fill: none; stroke: #cccccc; stroke-width: 0.8; stroke-linecap: round"/>
     </g>
     <g id="text_21">
      <!-- 0 -->
      <g style="fill: #262626" transform="translate(40.4385 495.823312)scale(0.088 -0.088)">
       <use xlink:href="#DejaVuSans-30"/>
      </g>
     </g>
    </g>
    <g id="ytick_2">
     <g id="line2d_21">
      <path d="M 54.3375 470.578859 
L 391.23 470.578859 
" clip-path="url(#p347b41ff58)" style="fill: none; stroke: #cccccc; stroke-width: 0.8; stroke-linecap: round"/>
     </g>
     <g id="text_22">
      <!-- 100 -->
      <g style="fill: #262626" transform="translate(29.2405 473.922172)scale(0.088 -0.088)">
       <use xlink:href="#DejaVuSans-31"/>
       <use xlink:href="#DejaVuSans-30" x="63.623047"/>
       <use xlink:href="#DejaVuSans-30" x="127.246094"/>
      </g>
     </g>
    </g>
    <g id="ytick_3">
     <g id="line2d_22">
      <path d="M 54.3375 448.677719 
L 391.23 448.677719 
" clip-path="url(#p347b41ff58)" style="fill: none; stroke: #cccccc; stroke-width: 0.8; stroke-linecap: round"/>
     </g>
     <g id="text_23">
      <!-- 200 -->
      <g style="fill: #262626" transform="translate(29.2405 452.021031)scale(0.088 -0.088)">
       <use xlink:href="#DejaVuSans-32"/>
       <use xlink:href="#DejaVuSans-30" x="63.623047"/>
       <use xlink:href="#DejaVuSans-30" x="127.246094"/>
      </g>
     </g>
    </g>
    <g id="ytick_4">
     <g id="line2d_23">
      <path d="M 54.3375 426.776578 
L 391.23 426.776578 
" clip-path="url(#p347b41ff58)" style="fill: none; stroke: #cccccc; stroke-width: 0.8; stroke-linecap: round"/>
     </g>
     <g id="text_24">
      <!-- 300 -->
      <g style="fill: #262626" transform="translate(29.2405 430.11989)scale(0.088 -0.088)">
       <use xlink:href="#DejaVuSans-33"/>
       <use xlink:href="#DejaVuSans-30" x="63.623047"/>
       <use xlink:href="#DejaVuSans-30" x="127.246094"/>
      </g>
     </g>
    </g>
    <g id="ytick_5">
     <g id="line2d_24">
      <path d="M 54.3375 404.875437 
L 391.23 404.875437 
" clip-path="url(#p347b41ff58)" style="fill: none; stroke: #cccccc; stroke-width: 0.8; stroke-linecap: round"/>
     </g>
     <g id="text_25">
      <!-- 400 -->
      <g style="fill: #262626" transform="translate(29.2405 408.21875)scale(0.088 -0.088)">
       <use xlink:href="#DejaVuSans-34"/>
       <use xlink:href="#DejaVuSans-30" x="63.623047"/>
       <use xlink:href="#DejaVuSans-30" x="127.246094"/>
      </g>
     </g>
    </g>
    <g id="ytick_6">
     <g id="line2d_25">
      <path d="M 54.3375 382.974297 
L 391.23 382.974297 
" clip-path="url(#p347b41ff58)" style="fill: none; stroke: #cccccc; stroke-width: 0.8; stroke-linecap: round"/>
     </g>
     <g id="text_26">
      <!-- 500 -->
      <g style="fill: #262626" transform="translate(29.2405 386.317609)scale(0.088 -0.088)">
       <use xlink:href="#DejaVuSans-35"/>
       <use xlink:href="#DejaVuSans-30" x="63.623047"/>
       <use xlink:href="#DejaVuSans-30" x="127.246094"/>
      </g>
     </g>
    </g>
    <g id="ytick_7">
     <g id="line2d_26">
      <path d="M 54.3375 361.073156 
L 391.23 361.073156 
" clip-path="url(#p347b41ff58)" style="fill: none; stroke: #cccccc; stroke-width: 0.8; stroke-linecap: round"/>
     </g>
     <g id="text_27">
      <!-- 600 -->
      <g style="fill: #262626" transform="translate(29.2405 364.416468)scale(0.088 -0.088)">
       <use xlink:href="#DejaVuSans-36"/>
       <use xlink:href="#DejaVuSans-30" x="63.623047"/>
       <use xlink:href="#DejaVuSans-30" x="127.246094"/>
      </g>
     </g>
    </g>
    <g id="ytick_8">
     <g id="line2d_27">
      <path d="M 54.3375 339.172015 
L 391.23 339.172015 
" clip-path="url(#p347b41ff58)" style="fill: none; stroke: #cccccc; stroke-width: 0.8; stroke-linecap: round"/>
     </g>
     <g id="text_28">
      <!-- 700 -->
      <g style="fill: #262626" transform="translate(29.2405 342.515328)scale(0.088 -0.088)">
       <use xlink:href="#DejaVuSans-37"/>
       <use xlink:href="#DejaVuSans-30" x="63.623047"/>
       <use xlink:href="#DejaVuSans-30" x="127.246094"/>
      </g>
     </g>
    </g>
    <g id="ytick_9">
     <g id="line2d_28">
      <path d="M 54.3375 317.270875 
L 391.23 317.270875 
" clip-path="url(#p347b41ff58)" style="fill: none; stroke: #cccccc; stroke-width: 0.8; stroke-linecap: round"/>
     </g>
     <g id="text_29">
      <!-- 800 -->
      <g style="fill: #262626" transform="translate(29.2405 320.614187)scale(0.088 -0.088)">
       <use xlink:href="#DejaVuSans-38"/>
       <use xlink:href="#DejaVuSans-30" x="63.623047"/>
       <use xlink:href="#DejaVuSans-30" x="127.246094"/>
      </g>
     </g>
    </g>
    <g id="ytick_10">
     <g id="line2d_29">
      <path d="M 54.3375 295.369734 
L 391.23 295.369734 
" clip-path="url(#p347b41ff58)" style="fill: none; stroke: #cccccc; stroke-width: 0.8; stroke-linecap: round"/>
     </g>
     <g id="text_30">
      <!-- 900 -->
      <g style="fill: #262626" transform="translate(29.2405 298.713046)scale(0.088 -0.088)">
       <use xlink:href="#DejaVuSans-39"/>
       <use xlink:href="#DejaVuSans-30" x="63.623047"/>
       <use xlink:href="#DejaVuSans-30" x="127.246094"/>
      </g>
     </g>
    </g>
    <g id="ytick_11">
     <g id="line2d_30">
      <path d="M 54.3375 273.468593 
L 391.23 273.468593 
" clip-path="url(#p347b41ff58)" style="fill: none; stroke: #cccccc; stroke-width: 0.8; stroke-linecap: round"/>
     </g>
     <g id="text_31">
      <!-- 1000 -->
      <g style="fill: #262626" transform="translate(23.6415 276.811906)scale(0.088 -0.088)">
       <use xlink:href="#DejaVuSans-31"/>
       <use xlink:href="#DejaVuSans-30" x="63.623047"/>
       <use xlink:href="#DejaVuSans-30" x="127.246094"/>
       <use xlink:href="#DejaVuSans-30" x="190.869141"/>
      </g>
     </g>
    </g>
    <g id="ytick_12">
     <g id="line2d_31">
      <path d="M 54.3375 251.567452 
L 391.23 251.567452 
" clip-path="url(#p347b41ff58)" style="fill: none; stroke: #cccccc; stroke-width: 0.8; stroke-linecap: round"/>
     </g>
     <g id="text_32">
      <!-- 1100 -->
      <g style="fill: #262626" transform="translate(23.6415 254.910765)scale(0.088 -0.088)">
       <use xlink:href="#DejaVuSans-31"/>
       <use xlink:href="#DejaVuSans-31" x="63.623047"/>
       <use xlink:href="#DejaVuSans-30" x="127.246094"/>
       <use xlink:href="#DejaVuSans-30" x="190.869141"/>
      </g>
     </g>
    </g>
    <g id="ytick_13">
     <g id="line2d_32">
      <path d="M 54.3375 229.666312 
L 391.23 229.666312 
" clip-path="url(#p347b41ff58)" style="fill: none; stroke: #cccccc; stroke-width: 0.8; stroke-linecap: round"/>
     </g>
     <g id="text_33">
      <!-- 1200 -->
      <g style="fill: #262626" transform="translate(23.6415 233.009624)scale(0.088 -0.088)">
       <use xlink:href="#DejaVuSans-31"/>
       <use xlink:href="#DejaVuSans-32" x="63.623047"/>
       <use xlink:href="#DejaVuSans-30" x="127.246094"/>
       <use xlink:href="#DejaVuSans-30" x="190.869141"/>
      </g>
     </g>
    </g>
    <g id="ytick_14">
     <g id="line2d_33">
      <path d="M 54.3375 207.765171 
L 391.23 207.765171 
" clip-path="url(#p347b41ff58)" style="fill: none; stroke: #cccccc; stroke-width: 0.8; stroke-linecap: round"/>
     </g>
     <g id="text_34">
      <!-- 1300 -->
      <g style="fill: #262626" transform="translate(23.6415 211.108484)scale(0.088 -0.088)">
       <use xlink:href="#DejaVuSans-31"/>
       <use xlink:href="#DejaVuSans-33" x="63.623047"/>
       <use xlink:href="#DejaVuSans-30" x="127.246094"/>
       <use xlink:href="#DejaVuSans-30" x="190.869141"/>
      </g>
     </g>
    </g>
    <g id="ytick_15">
     <g id="line2d_34">
      <path d="M 54.3375 185.86403 
L 391.23 185.86403 
" clip-path="url(#p347b41ff58)" style="fill: none; stroke: #cccccc; stroke-width: 0.8; stroke-linecap: round"/>
     </g>
     <g id="text_35">
      <!-- 1400 -->
      <g style="fill: #262626" transform="translate(23.6415 189.207343)scale(0.088 -0.088)">
       <use xlink:href="#DejaVuSans-31"/>
       <use xlink:href="#DejaVuSans-34" x="63.623047"/>
       <use xlink:href="#DejaVuSans-30" x="127.246094"/>
       <use xlink:href="#DejaVuSans-30" x="190.869141"/>
      </g>
     </g>
    </g>
    <g id="ytick_16">
     <g id="line2d_35">
      <path d="M 54.3375 163.96289 
L 391.23 163.96289 
" clip-path="url(#p347b41ff58)" style="fill: none; stroke: #cccccc; stroke-width: 0.8; stroke-linecap: round"/>
     </g>
     <g id="text_36">
      <!-- 1500 -->
      <g style="fill: #262626" transform="translate(23.6415 167.306202)scale(0.088 -0.088)">
       <use xlink:href="#DejaVuSans-31"/>
       <use xlink:href="#DejaVuSans-35" x="63.623047"/>
       <use xlink:href="#DejaVuSans-30" x="127.246094"/>
       <use xlink:href="#DejaVuSans-30" x="190.869141"/>
      </g>
     </g>
    </g>
    <g id="ytick_17">
     <g id="line2d_36">
      <path d="M 54.3375 142.061749 
L 391.23 142.061749 
" clip-path="url(#p347b41ff58)" style="fill: none; stroke: #cccccc; stroke-width: 0.8; stroke-linecap: round"/>
     </g>
     <g id="text_37">
      <!-- 1600 -->
      <g style="fill: #262626" transform="translate(23.6415 145.405062)scale(0.088 -0.088)">
       <use xlink:href="#DejaVuSans-31"/>
       <use xlink:href="#DejaVuSans-36" x="63.623047"/>
       <use xlink:href="#DejaVuSans-30" x="127.246094"/>
       <use xlink:href="#DejaVuSans-30" x="190.869141"/>
      </g>
     </g>
    </g>
    <g id="ytick_18">
     <g id="line2d_37">
      <path d="M 54.3375 120.160608 
L 391.23 120.160608 
" clip-path="url(#p347b41ff58)" style="fill: none; stroke: #cccccc; stroke-width: 0.8; stroke-linecap: round"/>
     </g>
     <g id="text_38">
      <!-- 1700 -->
      <g style="fill: #262626" transform="translate(23.6415 123.503921)scale(0.088 -0.088)">
       <use xlink:href="#DejaVuSans-31"/>
       <use xlink:href="#DejaVuSans-37" x="63.623047"/>
       <use xlink:href="#DejaVuSans-30" x="127.246094"/>
       <use xlink:href="#DejaVuSans-30" x="190.869141"/>
      </g>
     </g>
    </g>
    <g id="ytick_19">
     <g id="line2d_38">
      <path d="M 54.3375 98.259468 
L 391.23 98.259468 
" clip-path="url(#p347b41ff58)" style="fill: none; stroke: #cccccc; stroke-width: 0.8; stroke-linecap: round"/>
     </g>
     <g id="text_39">
      <!-- 1800 -->
      <g style="fill: #262626" transform="translate(23.6415 101.60278)scale(0.088 -0.088)">
       <use xlink:href="#DejaVuSans-31"/>
       <use xlink:href="#DejaVuSans-38" x="63.623047"/>
       <use xlink:href="#DejaVuSans-30" x="127.246094"/>
       <use xlink:href="#DejaVuSans-30" x="190.869141"/>
      </g>
     </g>
    </g>
    <g id="text_40">
     <!-- Edge Coverages -->
     <g style="fill: #262626" transform="translate(17.645 329.98575)rotate(-90)scale(0.096 -0.096)">
      <defs>
       <path id="DejaVuSans-45" d="M 628 4666 
L 3578 4666 
L 3578 4134 
L 1259 4134 
L 1259 2753 
L 3481 2753 
L 3481 2222 
L 1259 2222 
L 1259 531 
L 3634 531 
L 3634 0 
L 628 0 
L 628 4666 
z
" transform="scale(0.015625)"/>
       <path id="DejaVuSans-64" d="M 2906 2969 
L 2906 4863 
L 3481 4863 
L 3481 0 
L 2906 0 
L 2906 525 
Q 2725 213 2448 61 
Q 2172 -91 1784 -91 
Q 1150 -91 751 415 
Q 353 922 353 1747 
Q 353 2572 751 3078 
Q 1150 3584 1784 3584 
Q 2172 3584 2448 3432 
Q 2725 3281 2906 2969 
z
M 947 1747 
Q 947 1113 1208 752 
Q 1469 391 1925 391 
Q 2381 391 2643 752 
Q 2906 1113 2906 1747 
Q 2906 2381 2643 2742 
Q 2381 3103 1925 3103 
Q 1469 3103 1208 2742 
Q 947 2381 947 1747 
z
" transform="scale(0.015625)"/>
       <path id="DejaVuSans-67" d="M 2906 1791 
Q 2906 2416 2648 2759 
Q 2391 3103 1925 3103 
Q 1463 3103 1205 2759 
Q 947 2416 947 1791 
Q 947 1169 1205 825 
Q 1463 481 1925 481 
Q 2391 481 2648 825 
Q 2906 1169 2906 1791 
z
M 3481 434 
Q 3481 -459 3084 -895 
Q 2688 -1331 1869 -1331 
Q 1566 -1331 1297 -1286 
Q 1028 -1241 775 -1147 
L 775 -588 
Q 1028 -725 1275 -790 
Q 1522 -856 1778 -856 
Q 2344 -856 2625 -561 
Q 2906 -266 2906 331 
L 2906 616 
Q 2728 306 2450 153 
Q 2172 0 1784 0 
Q 1141 0 747 490 
Q 353 981 353 1791 
Q 353 2603 747 3093 
Q 1141 3584 1784 3584 
Q 2172 3584 2450 3431 
Q 2728 3278 2906 2969 
L 2906 3500 
L 3481 3500 
L 3481 434 
z
" transform="scale(0.015625)"/>
       <path id="DejaVuSans-43" d="M 4122 4306 
L 4122 3641 
Q 3803 3938 3442 4084 
Q 3081 4231 2675 4231 
Q 1875 4231 1450 3742 
Q 1025 3253 1025 2328 
Q 1025 1406 1450 917 
Q 1875 428 2675 428 
Q 3081 428 3442 575 
Q 3803 722 4122 1019 
L 4122 359 
Q 3791 134 3420 21 
Q 3050 -91 2638 -91 
Q 1578 -91 968 557 
Q 359 1206 359 2328 
Q 359 3453 968 4101 
Q 1578 4750 2638 4750 
Q 3056 4750 3426 4639 
Q 3797 4528 4122 4306 
z
" transform="scale(0.015625)"/>
       <path id="DejaVuSans-6f" d="M 1959 3097 
Q 1497 3097 1228 2736 
Q 959 2375 959 1747 
Q 959 1119 1226 758 
Q 1494 397 1959 397 
Q 2419 397 2687 759 
Q 2956 1122 2956 1747 
Q 2956 2369 2687 2733 
Q 2419 3097 1959 3097 
z
M 1959 3584 
Q 2709 3584 3137 3096 
Q 3566 2609 3566 1747 
Q 3566 888 3137 398 
Q 2709 -91 1959 -91 
Q 1206 -91 779 398 
Q 353 888 353 1747 
Q 353 2609 779 3096 
Q 1206 3584 1959 3584 
z
" transform="scale(0.015625)"/>
       <path id="DejaVuSans-76" d="M 191 3500 
L 800 3500 
L 1894 563 
L 2988 3500 
L 3597 3500 
L 2284 0 
L 1503 0 
L 191 3500 
z
" transform="scale(0.015625)"/>
       <path id="DejaVuSans-72" d="M 2631 2963 
Q 2534 3019 2420 3045 
Q 2306 3072 2169 3072 
Q 1681 3072 1420 2755 
Q 1159 2438 1159 1844 
L 1159 0 
L 581 0 
L 581 3500 
L 1159 3500 
L 1159 2956 
Q 1341 3275 1631 3429 
Q 1922 3584 2338 3584 
Q 2397 3584 2469 3576 
Q 2541 3569 2628 3553 
L 2631 2963 
z
" transform="scale(0.015625)"/>
       <path id="DejaVuSans-61" d="M 2194 1759 
Q 1497 1759 1228 1600 
Q 959 1441 959 1056 
Q 959 750 1161 570 
Q 1363 391 1709 391 
Q 2188 391 2477 730 
Q 2766 1069 2766 1631 
L 2766 1759 
L 2194 1759 
z
M 3341 1997 
L 3341 0 
L 2766 0 
L 2766 531 
Q 2569 213 2275 61 
Q 1981 -91 1556 -91 
Q 1019 -91 701 211 
Q 384 513 384 1019 
Q 384 1609 779 1909 
Q 1175 2209 1959 2209 
L 2766 2209 
L 2766 2266 
Q 2766 2663 2505 2880 
Q 2244 3097 1772 3097 
Q 1472 3097 1187 3025 
Q 903 2953 641 2809 
L 641 3341 
Q 956 3463 1253 3523 
Q 1550 3584 1831 3584 
Q 2591 3584 2966 3190 
Q 3341 2797 3341 1997 
z
" transform="scale(0.015625)"/>
      </defs>
      <use xlink:href="#DejaVuSans-45"/>
      <use xlink:href="#DejaVuSans-64" x="63.183594"/>
      <use xlink:href="#DejaVuSans-67" x="126.660156"/>
      <use xlink:href="#DejaVuSans-65" x="190.136719"/>
      <use xlink:href="#DejaVuSans-20" x="251.660156"/>
      <use xlink:href="#DejaVuSans-43" x="283.447266"/>
      <use xlink:href="#DejaVuSans-6f" x="353.271484"/>
      <use xlink:href="#DejaVuSans-76" x="414.453125"/>
      <use xlink:href="#DejaVuSans-65" x="473.632812"/>
      <use xlink:href="#DejaVuSans-72" x="535.15625"/>
      <use xlink:href="#DejaVuSans-61" x="576.269531"/>
      <use xlink:href="#DejaVuSans-67" x="637.548828"/>
      <use xlink:href="#DejaVuSans-65" x="701.025391"/>
      <use xlink:href="#DejaVuSans-73" x="762.548828"/>
     </g>
    </g>
   </g>
   <g id="PolyCollection_1">
    <defs>
     <path id="m2a5d4905c8" d="M 69.650795 -103.231027 
L 69.650795 -83.52 
L 69.650795 -103.231027 
L 69.650795 -103.231027 
z
" style="stroke: #db5f57; stroke-opacity: 0.2; stroke-width: 0.8"/>
    </defs>
    <g clip-path="url(#p347b41ff58)">
     <use xlink:href="#m2a5d4905c8" x="0" y="576" style="fill: #db5f57; fill-opacity: 0.2; stroke: #db5f57; stroke-opacity: 0.2; stroke-width: 0.8"/>
    </g>
   </g>
   <g id="PolyCollection_2">
    <defs>
     <path id="m2bbe2d6eba" d="M 69.650795 -112.429506 
L 69.650795 -83.52 
L 69.650795 -112.429506 
L 69.650795 -112.429506 
z
" style="stroke: #b9db57; stroke-opacity: 0.2; stroke-width: 0.8"/>
    </defs>
    <g clip-path="url(#p347b41ff58)">
     <use xlink:href="#m2bbe2d6eba" x="0" y="576" style="fill: #b9db57; fill-opacity: 0.2; stroke: #b9db57; stroke-opacity: 0.2; stroke-width: 0.8"/>
    </g>
   </g>
   <g id="PolyCollection_3">
    <defs>
     <path id="m7509227d1f" d="M 69.650795 -103.450038 
L 69.650795 -83.52 
L 69.650795 -103.450038 
L 69.650795 -103.450038 
z
" style="stroke: #57db94; stroke-opacity: 0.2; stroke-width: 0.8"/>
    </defs>
    <g clip-path="url(#p347b41ff58)">
     <use xlink:href="#m7509227d1f" x="0" y="576" style="fill: #57db94; fill-opacity: 0.2; stroke: #57db94; stroke-opacity: 0.2; stroke-width: 0.8"/>
    </g>
   </g>
   <g id="PolyCollection_4">
    <defs>
     <path id="m3f8f522e3f" d="M 69.650795 -112.648517 
L 69.650795 -83.52 
L 69.650795 -112.648517 
L 69.650795 -112.648517 
z
" style="stroke: #5784db; stroke-opacity: 0.2; stroke-width: 0.8"/>
    </defs>
    <g clip-path="url(#p347b41ff58)">
     <use xlink:href="#m3f8f522e3f" x="0" y="576" style="fill: #5784db; fill-opacity: 0.2; stroke: #5784db; stroke-opacity: 0.2; stroke-width: 0.8"/>
    </g>
   </g>
   <g id="PolyCollection_5">
    <defs>
     <path id="m20a461c77b" d="M 69.650795 -121.846996 
L 69.650795 -83.52 
L 69.650795 -121.846996 
L 69.650795 -121.846996 
z
" style="stroke: #c957db; stroke-opacity: 0.2; stroke-width: 0.8"/>
    </defs>
    <g clip-path="url(#p347b41ff58)">
     <use xlink:href="#m20a461c77b" x="0" y="576" style="fill: #c957db; fill-opacity: 0.2; stroke: #c957db; stroke-opacity: 0.2; stroke-width: 0.8"/>
    </g>
   </g>
   <g id="line2d_39">
    <path d="M 69.650795 482.624487 
L 70.07646 426.119544 
L 70.289293 406.84654 
L 70.714958 403.123346 
L 71.140623 392.391787 
L 71.77912 388.011559 
L 72.204785 385.602433 
L 72.417617 342.238175 
L 72.63045 273.249582 
L 72.843282 272.811559 
L 73.056115 271.935513 
L 73.48178 271.49749 
L 73.907445 270.840456 
L 74.120277 239.083802 
L 74.545942 236.893688 
L 74.758774 236.674677 
L 75.184439 234.484563 
L 75.397272 234.484563 
L 75.610104 234.265551 
L 75.822937 215.43057 
L 76.248602 214.773536 
L 76.461434 214.554525 
L 76.674267 214.554525 
L 76.887099 214.335513 
L 77.099932 207.54616 
L 77.951261 206.670114 
L 78.164094 206.232091 
L 78.376926 197.252624 
L 78.589759 197.033612 
L 79.441089 197.033612 
L 79.653921 191.339316 
L 79.866754 191.120304 
L 80.079586 190.682281 
L 81.143748 190.682281 
L 81.569413 190.244259 
L 81.782246 190.244259 
L 81.995078 190.025247 
L 82.420743 176.008517 
L 83.05924 174.91346 
L 83.272073 174.694449 
L 83.697738 174.694449 
L 83.91057 172.942357 
L 84.336235 172.942357 
L 84.549068 171.8473 
L 84.974733 171.8473 
L 85.187565 171.628289 
L 85.826062 171.628289 
L 86.038895 168.562129 
L 86.46456 167.905095 
L 87.103057 167.905095 
L 87.31589 167.686084 
L 87.528722 167.686084 
L 87.741555 167.467072 
L 87.954387 164.619924 
L 88.167219 163.96289 
L 88.380052 163.96289 
L 88.592884 161.772776 
L 88.805717 161.553764 
L 89.018549 160.458707 
L 89.231382 160.020684 
L 89.869879 160.020684 
L 90.082712 157.173536 
L 90.295544 157.173536 
L 90.508376 156.954525 
L 90.721209 156.954525 
L 90.934041 156.735513 
L 92.211036 156.735513 
L 92.423869 155.421445 
L 92.636701 155.202433 
L 92.849534 154.107376 
L 93.700863 154.107376 
L 93.913696 153.888365 
L 94.126528 151.47924 
L 94.552193 151.47924 
L 94.977858 151.041217 
L 95.190691 151.041217 
L 95.403523 150.822205 
L 95.829188 149.94616 
L 96.89335 149.94616 
L 97.106183 149.289125 
L 98.59601 149.289125 
L 98.808842 148.41308 
L 99.021675 148.41308 
L 99.44734 147.975057 
L 99.660172 147.537034 
L 100.085837 147.537034 
L 100.29867 147.099011 
L 100.724335 147.099011 
L 100.937167 146.88 
L 101.575664 146.88 
L 101.788497 146.222966 
L 102.639827 146.222966 
L 102.852659 146.003954 
L 103.065492 146.003954 
L 103.278324 145.784943 
L 103.491157 145.784943 
L 103.703989 145.565932 
L 104.129654 145.565932 
L 104.555319 145.127909 
L 105.406649 145.127909 
L 105.619481 144.908897 
L 106.045146 144.908897 
L 106.257978 144.470875 
L 109.237633 144.470875 
L 109.450465 144.251863 
L 110.088963 144.251863 
L 110.301795 144.032852 
L 110.72746 144.032852 
L 110.940293 143.156806 
L 111.153125 143.156806 
L 111.365957 142.937795 
L 112.004455 142.937795 
L 112.217287 142.499772 
L 112.43012 142.499772 
L 112.642952 142.28076 
L 113.068617 142.28076 
L 113.28145 142.061749 
L 114.132779 142.061749 
L 114.345612 141.842738 
L 114.558444 141.842738 
L 114.771277 141.404715 
L 114.984109 141.404715 
L 115.196942 141.185703 
L 115.622607 141.185703 
L 115.835439 140.966692 
L 117.538099 140.966692 
L 117.750931 140.309658 
L 117.963764 140.309658 
L 118.176596 140.090646 
L 118.602261 140.090646 
L 118.815094 139.871635 
L 119.027926 139.871635 
L 119.240758 139.433612 
L 121.369083 139.433612 
L 121.581916 138.995589 
L 122.220413 138.995589 
L 122.433245 138.557567 
L 124.348738 138.557567 
L 124.56157 138.338555 
L 124.774402 138.338555 
L 124.987235 138.119544 
L 125.200067 138.119544 
L 125.4129 137.900532 
L 126.477062 137.900532 
L 126.689895 137.681521 
L 126.902727 137.681521 
L 127.115559 137.46251 
L 128.605387 137.46251 
L 129.031052 136.805475 
L 132.436371 136.805475 
L 132.649203 136.586464 
L 133.500533 136.586464 
L 133.713366 136.367452 
L 135.628858 136.367452 
L 135.84169 136.148441 
L 138.39568 136.148441 
L 138.821345 135.710418 
L 142.439497 135.710418 
L 142.652329 135.272395 
L 144.142156 135.272395 
L 144.354989 133.958327 
L 144.567821 133.520304 
L 148.82447 133.520304 
L 149.250135 133.082281 
L 151.165627 133.082281 
L 151.37846 132.644259 
L 153.506784 132.644259 
L 153.719617 132.206236 
L 155.422277 132.206236 
L 155.635109 131.768213 
L 157.976266 131.768213 
L 158.189099 131.549202 
L 166.276732 131.549202 
L 166.489564 131.33019 
L 167.128062 131.33019 
L 167.340894 131.111179 
L 167.766559 131.111179 
L 167.979392 130.673156 
L 168.830722 130.673156 
L 169.043554 130.454144 
L 170.746214 130.454144 
L 170.959046 130.235133 
L 180.962172 130.235133 
L 181.175004 130.016122 
L 182.877664 130.016122 
L 183.090496 129.79711 
L 183.728994 129.79711 
L 183.941826 129.359087 
L 186.495816 129.359087 
L 186.921481 128.921065 
L 189.901135 128.921065 
L 190.113967 128.702053 
L 190.3268 128.702053 
L 190.539632 128.483042 
L 190.965297 128.483042 
L 191.17813 128.26403 
L 202.45825 128.26403 
L 202.671083 128.045019 
L 204.586575 128.045019 
L 204.799407 127.826008 
L 205.01224 127.826008 
L 205.225072 127.387985 
L 205.437905 127.387985 
L 205.650737 127.168973 
L 206.927732 127.168973 
L 207.140564 126.949962 
L 209.694554 126.949962 
L 209.907386 126.730951 
L 210.758716 126.730951 
L 210.971549 126.292928 
L 214.376868 126.292928 
L 214.5897 126.073916 
L 215.228198 126.073916 
L 215.44103 125.854905 
L 216.505192 125.854905 
L 216.718025 125.635894 
L 219.910512 125.635894 
L 220.123344 125.416882 
L 221.400339 125.416882 
L 221.613171 125.197871 
L 225.018491 125.197871 
L 225.231323 124.978859 
L 225.869821 124.978859 
L 226.082653 124.759848 
L 227.57248 124.759848 
L 227.785313 124.540837 
L 229.700805 124.540837 
L 229.913637 123.664791 
L 230.764967 123.664791 
L 230.9778 123.445779 
L 232.254794 123.445779 
L 232.467627 123.226768 
L 232.680459 123.226768 
L 232.893292 122.788745 
L 235.872946 122.788745 
L 236.085779 122.569734 
L 237.788438 122.569734 
L 238.001271 122.350722 
L 240.55526 122.350722 
L 240.768093 122.131711 
L 241.193758 122.131711 
L 241.40659 121.9127 
L 243.322082 121.9127 
L 243.534915 121.693688 
L 246.940234 121.693688 
L 247.153067 121.474677 
L 254.38937 121.474677 
L 254.602203 121.255665 
L 259.284517 121.255665 
L 259.497349 121.036654 
L 260.561512 121.036654 
L 260.774344 120.817643 
L 261.625674 120.817643 
L 261.838506 120.598631 
L 264.179663 120.598631 
L 264.392496 120.37962 
L 271.415967 120.37962 
L 271.628799 120.160608 
L 272.692962 120.160608 
L 272.905794 119.941597 
L 274.182789 119.941597 
L 274.395621 119.503574 
L 274.821286 119.503574 
L 275.034119 119.065551 
L 277.588108 119.065551 
L 277.800941 118.84654 
L 281.631925 118.84654 
L 281.844757 118.408517 
L 287.165569 118.408517 
L 287.378401 118.189506 
L 291.209386 118.189506 
L 291.422218 117.970494 
L 294.401873 117.970494 
L 294.614705 117.751483 
L 295.466035 117.751483 
L 295.678867 117.532471 
L 300.786846 117.532471 
L 300.999679 117.31346 
L 323.55992 117.31346 
L 323.772752 117.094449 
L 324.836914 117.094449 
L 325.049747 116.875437 
L 327.178071 116.875437 
L 327.390904 116.656426 
L 331.434721 116.656426 
L 331.647553 116.218403 
L 334.201543 116.218403 
L 334.414375 115.999392 
L 335.478537 115.999392 
L 335.69137 115.78038 
L 336.968364 115.78038 
L 337.181197 115.561369 
L 339.735186 115.561369 
L 339.948019 115.342357 
L 343.566171 115.342357 
L 343.779003 115.123346 
L 344.417501 115.123346 
L 344.630333 114.466312 
L 345.481663 114.466312 
L 345.694495 114.2473 
L 346.758658 114.2473 
L 346.97149 114.028289 
L 353.143631 114.028289 
L 353.356464 113.809278 
L 353.994961 113.809278 
L 354.420626 113.371255 
L 357.187448 113.371255 
L 357.400281 113.152243 
L 371.021558 113.152243 
L 371.23439 112.933232 
L 375.916705 112.933232 
L 375.916705 112.933232 
" clip-path="url(#p347b41ff58)" style="fill: none; stroke: #db5f57; stroke-width: 1.2; stroke-linecap: round"/>
   </g>
   <g id="line2d_40">
    <path d="M 69.650795 478.025247 
L 70.502125 370.928669 
L 70.714958 359.321065 
L 70.92779 328.878479 
L 71.140623 322.089125 
L 71.566288 306.320304 
L 73.48178 264.927148 
L 74.120277 252.881521 
L 74.33311 246.749202 
L 74.545942 245.435133 
L 74.971607 241.054905 
L 75.397272 238.207757 
L 75.610104 236.236654 
L 76.461434 232.51346 
L 77.312764 226.162129 
L 77.525596 225.724106 
L 77.738429 224.848061 
L 77.951261 223.09597 
L 78.164094 222.876958 
L 78.376926 220.248821 
L 78.589759 219.372776 
L 78.802591 217.839696 
L 79.015424 217.620684 
L 79.228256 217.182662 
L 79.441089 215.868593 
L 79.653921 215.649582 
L 79.866754 214.773536 
L 80.292418 211.050342 
L 80.505251 210.612319 
L 80.930916 207.327148 
L 81.143748 206.670114 
L 81.356581 206.451103 
L 81.782246 204.699011 
L 82.207911 203.384943 
L 82.420743 203.384943 
L 82.633575 202.508897 
L 82.846408 202.508897 
L 83.05924 201.41384 
L 83.484905 200.756806 
L 83.697738 200.537795 
L 84.7619 198.566692 
L 84.974733 198.566692 
L 85.61323 197.471635 
L 85.826062 197.252624 
L 86.46456 195.06251 
L 86.677392 195.06251 
L 86.890225 194.624487 
L 87.103057 194.624487 
L 87.528722 192.653384 
L 87.954387 191.558327 
L 88.592884 189.368213 
L 88.805717 189.149202 
L 89.018549 189.149202 
L 89.657047 185.206996 
L 90.082712 184.549962 
L 90.934041 184.549962 
L 91.359706 183.892928 
L 91.572539 183.673916 
L 91.785371 183.673916 
L 92.211036 183.235894 
L 92.636701 183.235894 
L 92.849534 181.264791 
L 93.275198 179.5127 
L 93.488031 179.5127 
L 93.913696 178.855665 
L 94.126528 178.636654 
L 95.403523 178.636654 
L 95.616356 178.417643 
L 100.937167 178.417643 
L 101.149999 175.789506 
L 108.811968 175.789506 
L 109.0248 175.132471 
L 111.791622 175.132471 
L 112.004455 174.694449 
L 114.132779 174.694449 
L 114.345612 174.037414 
L 114.558444 174.037414 
L 114.984109 173.599392 
L 115.196942 173.599392 
L 115.409774 173.38038 
L 116.686769 173.38038 
L 116.899601 173.161369 
L 117.325266 173.161369 
L 117.538099 172.942357 
L 117.750931 172.285323 
L 118.176596 172.285323 
L 118.602261 171.8473 
L 118.815094 171.8473 
L 119.453591 171.190266 
L 120.730586 171.190266 
L 120.943418 170.752243 
L 121.156251 170.752243 
L 121.369083 170.533232 
L 121.794748 170.533232 
L 122.00758 169.876198 
L 122.220413 169.657186 
L 122.646078 169.657186 
L 122.85891 169.219163 
L 123.71024 169.219163 
L 123.923073 169.000152 
L 124.348738 169.000152 
L 124.56157 168.781141 
L 124.774402 168.781141 
L 125.200067 168.124106 
L 128.179722 168.124106 
L 128.605387 167.467072 
L 131.585041 167.467072 
L 131.797874 167.029049 
L 132.010706 167.029049 
L 132.223539 166.810038 
L 142.865161 166.810038 
L 143.077994 164.619924 
L 167.128062 164.619924 
L 167.340894 161.772776 
L 167.553727 161.772776 
L 167.766559 161.553764 
L 168.617889 161.553764 
L 168.830722 161.334753 
L 169.043554 160.89673 
L 170.533381 160.89673 
L 170.746214 160.677719 
L 171.384711 160.677719 
L 171.597544 160.239696 
L 171.810376 160.239696 
L 172.023208 160.020684 
L 173.725868 160.020684 
L 174.151533 159.582662 
L 178.833847 159.582662 
L 179.04668 159.36365 
L 182.877664 159.36365 
L 183.090496 159.144639 
L 183.303329 159.144639 
L 183.728994 158.706616 
L 183.941826 158.706616 
L 184.154659 158.487605 
L 186.708648 158.487605 
L 186.921481 158.268593 
L 198.201601 158.268593 
L 198.414433 158.049582 
L 199.691428 158.049582 
L 199.904261 157.83057 
L 202.032585 157.83057 
L 202.245418 157.611559 
L 202.883915 157.611559 
L 203.096748 157.392548 
L 204.799407 157.392548 
L 205.01224 157.173536 
L 207.140564 157.173536 
L 207.566229 156.516502 
L 207.991894 156.516502 
L 208.204727 156.29749 
L 209.056056 156.29749 
L 209.268889 156.078479 
L 215.228198 156.078479 
L 215.44103 155.859468 
L 218.420685 155.859468 
L 218.633517 155.640456 
L 222.038836 155.640456 
L 222.251669 155.421445 
L 222.890166 155.421445 
L 223.102999 155.202433 
L 225.018491 155.202433 
L 225.231323 154.983422 
L 225.869821 154.983422 
L 226.082653 154.764411 
L 227.359648 154.764411 
L 227.57248 154.545399 
L 229.062308 154.545399 
L 229.27514 154.107376 
L 230.764967 154.107376 
L 230.9778 153.888365 
L 235.021616 153.888365 
L 235.234449 153.231331 
L 235.872946 153.231331 
L 236.085779 152.793308 
L 246.514569 152.793308 
L 246.727402 152.574297 
L 253.53804 152.574297 
L 253.750873 152.355285 
L 255.879197 152.355285 
L 256.09203 152.136274 
L 260.348679 152.136274 
L 260.561512 151.917262 
L 261.838506 151.917262 
L 262.051339 151.698251 
L 266.095155 151.698251 
L 266.307988 151.47924 
L 269.92614 151.47924 
L 270.138972 151.260228 
L 271.415967 151.260228 
L 271.628799 151.041217 
L 272.480129 151.041217 
L 272.692962 150.822205 
L 274.608454 150.822205 
L 274.821286 150.603194 
L 277.588108 150.603194 
L 277.800941 150.165171 
L 290.996553 150.165171 
L 291.209386 149.94616 
L 308.02315 149.94616 
L 308.235982 149.508137 
L 318.239108 149.508137 
L 318.451941 149.289125 
L 323.55992 149.289125 
L 323.772752 149.070114 
L 325.049747 149.070114 
L 325.262579 148.851103 
L 330.796223 148.851103 
L 331.009056 148.41308 
L 355.059124 148.41308 
L 355.271956 147.537034 
L 366.764909 147.537034 
L 366.977741 147.318023 
L 368.254736 147.318023 
L 368.467568 147.099011 
L 373.149883 147.099011 
L 373.362715 146.88 
L 375.916705 146.88 
L 375.916705 146.88 
" clip-path="url(#p347b41ff58)" style="fill: none; stroke: #b9db57; stroke-width: 1.2; stroke-linecap: round"/>
   </g>
   <g id="line2d_41">
    <path d="M 69.650795 482.514981 
L 70.07646 422.834373 
L 70.289293 407.503574 
L 70.502125 404.437414 
L 70.714958 403.342357 
L 70.92779 402.904335 
L 71.140623 401.590266 
L 71.353455 398.962129 
L 71.566288 392.82981 
L 71.991953 292.960608 
L 72.63045 290.770494 
L 72.843282 290.551483 
L 73.268947 259.232852 
L 73.48178 259.232852 
L 73.694612 259.01384 
L 74.120277 259.01384 
L 74.33311 238.864791 
L 74.545942 237.331711 
L 74.971607 236.893688 
L 75.397272 236.893688 
L 76.248602 234.04654 
L 76.461434 217.620684 
L 76.887099 217.620684 
L 77.099932 212.802433 
L 77.312764 212.802433 
L 77.525596 211.269354 
L 77.738429 210.831331 
L 77.951261 210.831331 
L 78.164094 210.612319 
L 78.589759 210.612319 
L 78.802591 199.442738 
L 79.228256 199.442738 
L 79.441089 199.223726 
L 79.653921 199.223726 
L 79.866754 199.004715 
L 80.079586 191.777338 
L 80.292418 190.46327 
L 80.930916 190.46327 
L 81.143748 190.244259 
L 81.356581 190.244259 
L 81.569413 185.426008 
L 81.782246 184.987985 
L 82.207911 184.987985 
L 82.633575 184.330951 
L 82.846408 184.330951 
L 83.05924 178.636654 
L 83.272073 178.198631 
L 83.697738 178.198631 
L 83.91057 177.97962 
L 84.123403 177.103574 
L 84.336235 176.884563 
L 85.187565 176.884563 
L 85.400397 174.256426 
L 85.61323 174.037414 
L 86.677392 174.037414 
L 86.890225 171.190266 
L 88.167219 171.190266 
L 88.380052 168.124106 
L 89.657047 168.124106 
L 89.869879 162.867833 
L 90.508376 161.772776 
L 91.785371 161.772776 
L 91.998204 160.458707 
L 92.211036 160.458707 
L 92.423869 160.020684 
L 92.636701 159.144639 
L 93.488031 159.144639 
L 93.700863 156.735513 
L 93.913696 156.078479 
L 94.552193 156.078479 
L 94.765026 155.859468 
L 94.977858 155.859468 
L 95.190691 154.764411 
L 95.403523 154.764411 
L 95.616356 154.545399 
L 96.04202 154.545399 
L 96.254853 154.326388 
L 96.467685 153.888365 
L 97.531848 153.888365 
L 97.957513 153.231331 
L 98.170345 153.231331 
L 98.383177 153.012319 
L 99.234507 153.012319 
L 99.44734 152.574297 
L 99.660172 151.698251 
L 100.085837 151.698251 
L 100.29867 150.822205 
L 100.724335 150.822205 
L 100.937167 150.603194 
L 101.149999 150.603194 
L 101.788497 149.94616 
L 102.001329 149.508137 
L 102.214162 149.508137 
L 102.426994 149.289125 
L 102.852659 149.289125 
L 103.065492 148.632091 
L 103.278324 148.41308 
L 103.491157 148.41308 
L 103.703989 148.194068 
L 104.555319 148.194068 
L 104.768151 147.756046 
L 105.193816 147.756046 
L 105.406649 147.537034 
L 105.832314 147.537034 
L 106.257978 147.099011 
L 108.173471 147.099011 
L 108.386303 146.88 
L 109.237633 146.88 
L 109.450465 146.660989 
L 109.663298 146.660989 
L 109.87613 146.441977 
L 110.088963 146.441977 
L 110.514628 146.003954 
L 110.72746 145.127909 
L 111.365957 145.127909 
L 111.57879 144.689886 
L 112.004455 144.689886 
L 112.217287 144.251863 
L 112.43012 144.251863 
L 112.642952 144.032852 
L 113.28145 144.032852 
L 113.707115 143.594829 
L 114.132779 143.594829 
L 114.345612 143.375817 
L 115.409774 143.375817 
L 115.622607 142.937795 
L 116.899601 142.937795 
L 117.112434 142.718783 
L 118.176596 142.718783 
L 118.389429 142.499772 
L 118.815094 142.499772 
L 119.027926 141.623726 
L 119.240758 141.404715 
L 120.517753 141.404715 
L 120.730586 141.185703 
L 121.581916 141.185703 
L 121.794748 140.966692 
L 122.00758 140.090646 
L 122.433245 140.090646 
L 122.646078 139.871635 
L 131.585041 139.871635 
L 131.797874 139.652624 
L 132.223539 139.652624 
L 132.436371 137.900532 
L 133.074868 137.900532 
L 133.287701 137.681521 
L 135.84169 137.681521 
L 136.054523 137.46251 
L 139.672675 137.46251 
L 139.885507 137.024487 
L 141.588167 137.024487 
L 142.013832 136.586464 
L 142.865161 136.586464 
L 143.503659 135.491407 
L 144.780654 135.491407 
L 144.993486 134.834373 
L 145.206319 134.615361 
L 149.037303 134.615361 
L 149.250135 134.177338 
L 151.165627 134.177338 
L 151.804125 133.082281 
L 156.486439 133.082281 
L 156.699271 132.86327 
L 161.594418 132.86327 
L 161.80725 132.644259 
L 162.871413 132.644259 
L 163.084245 132.425247 
L 166.276732 132.425247 
L 166.489564 132.206236 
L 167.128062 132.206236 
L 167.340894 131.987224 
L 167.766559 131.987224 
L 167.979392 131.768213 
L 168.405057 131.768213 
L 168.617889 131.549202 
L 168.830722 131.549202 
L 169.043554 131.33019 
L 171.171879 131.33019 
L 171.384711 131.111179 
L 180.536507 131.111179 
L 180.749339 130.892167 
L 182.877664 130.892167 
L 183.090496 130.673156 
L 183.516161 130.673156 
L 183.728994 130.235133 
L 188.198475 130.235133 
L 188.411308 130.016122 
L 190.539632 130.016122 
L 190.752465 129.578099 
L 192.242292 129.578099 
L 192.455125 129.359087 
L 195.434779 129.359087 
L 195.647611 129.140076 
L 202.032585 129.140076 
L 202.245418 128.702053 
L 204.586575 128.702053 
L 204.799407 128.483042 
L 205.01224 128.483042 
L 205.225072 128.26403 
L 205.650737 128.26403 
L 205.863569 128.045019 
L 209.056056 128.045019 
L 209.268889 127.826008 
L 209.481721 127.387985 
L 214.164035 127.387985 
L 214.376868 127.168973 
L 215.228198 127.168973 
L 215.44103 126.949962 
L 218.84635 126.949962 
L 219.059182 126.511939 
L 225.444156 126.511939 
L 225.656988 126.292928 
L 226.72115 126.292928 
L 226.933983 126.073916 
L 227.785313 126.073916 
L 227.998145 125.854905 
L 229.062308 125.854905 
L 229.27514 125.416882 
L 229.487972 125.416882 
L 229.700805 125.197871 
L 229.913637 125.197871 
L 230.12647 124.978859 
L 230.764967 124.978859 
L 230.9778 124.759848 
L 231.82913 124.759848 
L 232.254794 124.321825 
L 232.467627 124.321825 
L 232.680459 123.883802 
L 236.085779 123.883802 
L 236.298611 123.664791 
L 238.852601 123.664791 
L 239.065433 123.445779 
L 240.55526 123.445779 
L 240.768093 123.226768 
L 242.683585 123.226768 
L 242.896417 123.007757 
L 243.10925 123.007757 
L 243.322082 122.788745 
L 245.450407 122.788745 
L 245.663239 122.569734 
L 247.791564 122.569734 
L 248.430061 121.9127 
L 256.304862 121.9127 
L 256.517695 121.693688 
L 261.200009 121.693688 
L 261.412841 121.474677 
L 263.753998 121.474677 
L 263.966831 121.036654 
L 268.22348 121.036654 
L 268.436313 120.817643 
L 272.480129 120.817643 
L 272.692962 120.37962 
L 274.395621 120.37962 
L 274.608454 119.941597 
L 274.821286 119.941597 
L 275.034119 119.503574 
L 277.162443 119.503574 
L 277.375276 118.84654 
L 281.20626 118.84654 
L 281.419093 118.408517 
L 286.314239 118.408517 
L 286.527072 118.189506 
L 294.401873 118.189506 
L 294.614705 117.970494 
L 295.253202 117.970494 
L 295.466035 117.751483 
L 300.786846 117.751483 
L 300.999679 117.532471 
L 320.367433 117.532471 
L 320.580265 117.31346 
L 324.624082 117.31346 
L 324.836914 117.094449 
L 325.049747 117.094449 
L 325.262579 116.875437 
L 327.603736 116.875437 
L 327.816569 116.656426 
L 330.370558 116.656426 
L 330.583391 116.437414 
L 331.221888 116.437414 
L 331.434721 115.999392 
L 334.201543 115.999392 
L 334.414375 115.78038 
L 335.265705 115.78038 
L 335.69137 115.342357 
L 336.5427 115.342357 
L 336.755532 115.123346 
L 355.697621 115.123346 
L 355.910453 114.904335 
L 375.916705 114.904335 
L 375.916705 114.904335 
" clip-path="url(#p347b41ff58)" style="fill: none; stroke: #57db94; stroke-width: 1.2; stroke-linecap: round"/>
   </g>
   <g id="line2d_42">
    <path d="M 69.650795 477.915741 
L 70.714958 329.09749 
L 70.92779 325.374297 
L 71.140623 311.795589 
L 71.353455 306.101293 
L 71.566288 296.464791 
L 71.77912 294.7127 
L 71.991953 289.237414 
L 72.204785 278.286844 
L 72.417617 276.09673 
L 73.268947 254.633612 
L 73.694612 251.348441 
L 74.120277 242.368973 
L 74.33311 238.426768 
L 74.545942 227.476198 
L 74.758774 226.600152 
L 75.397272 220.905856 
L 75.610104 220.02981 
L 75.822937 217.839696 
L 76.674267 213.89749 
L 77.099932 210.612319 
L 77.312764 209.07924 
L 77.525596 208.860228 
L 77.738429 207.54616 
L 77.951261 203.603954 
L 79.228256 196.157567 
L 79.441089 195.719544 
L 79.653921 192.872395 
L 79.866754 191.99635 
L 80.292418 188.492167 
L 80.505251 188.054144 
L 81.143748 184.768973 
L 81.356581 184.768973 
L 81.569413 184.111939 
L 81.995078 181.702814 
L 82.207911 181.483802 
L 82.633575 179.293688 
L 83.272073 177.322586 
L 83.484905 177.103574 
L 83.697738 177.103574 
L 84.336235 176.008517 
L 84.549068 175.789506 
L 84.7619 174.694449 
L 86.251727 171.409278 
L 86.46456 170.752243 
L 86.677392 170.533232 
L 86.890225 168.562129 
L 87.103057 168.343118 
L 88.167219 165.933992 
L 89.018549 161.115741 
L 89.231382 160.677719 
L 89.657047 158.049582 
L 89.869879 158.049582 
L 90.082712 157.611559 
L 90.721209 157.611559 
L 91.359706 156.516502 
L 91.572539 156.516502 
L 91.998204 156.078479 
L 92.211036 156.078479 
L 92.423869 155.859468 
L 93.488031 151.917262 
L 93.913696 151.260228 
L 94.126528 151.041217 
L 94.339361 151.041217 
L 94.765026 150.384183 
L 94.977858 150.384183 
L 95.190691 149.727148 
L 95.616356 149.727148 
L 95.829188 149.508137 
L 96.254853 149.508137 
L 96.467685 149.070114 
L 96.680518 149.070114 
L 96.89335 148.41308 
L 97.531848 148.41308 
L 97.957513 147.975057 
L 98.170345 147.975057 
L 98.383177 147.756046 
L 99.021675 147.756046 
L 99.873005 146.222966 
L 100.724335 146.222966 
L 101.149999 145.784943 
L 102.426994 145.784943 
L 102.852659 145.34692 
L 104.342486 145.34692 
L 104.768151 144.689886 
L 105.406649 144.689886 
L 105.619481 144.470875 
L 107.960638 144.470875 
L 108.173471 144.251863 
L 108.811968 144.251863 
L 109.0248 144.032852 
L 109.87613 144.032852 
L 110.088963 143.81384 
L 110.514628 143.81384 
L 110.72746 143.375817 
L 111.153125 143.375817 
L 111.365957 143.156806 
L 111.791622 143.156806 
L 112.217287 142.718783 
L 112.43012 142.718783 
L 112.642952 142.499772 
L 112.855785 142.499772 
L 113.068617 142.28076 
L 113.494282 142.28076 
L 113.707115 142.061749 
L 114.132779 142.061749 
L 114.345612 141.842738 
L 114.558444 141.842738 
L 115.196942 141.185703 
L 116.261104 141.185703 
L 116.686769 140.747681 
L 117.325266 140.747681 
L 117.750931 140.090646 
L 118.389429 140.090646 
L 118.602261 139.652624 
L 119.027926 139.652624 
L 119.240758 139.214601 
L 120.517753 139.214601 
L 120.943418 138.776578 
L 121.156251 138.776578 
L 121.369083 138.557567 
L 122.433245 138.557567 
L 122.85891 137.900532 
L 123.071743 137.681521 
L 124.348738 137.681521 
L 124.56157 137.46251 
L 124.987235 137.46251 
L 125.200067 137.024487 
L 126.477062 137.024487 
L 126.689895 136.805475 
L 128.179722 136.805475 
L 128.392554 136.586464 
L 128.605387 136.586464 
L 128.818219 136.148441 
L 131.585041 136.148441 
L 132.010706 135.491407 
L 133.074868 135.491407 
L 133.287701 135.272395 
L 135.628858 135.272395 
L 135.84169 135.053384 
L 138.39568 135.053384 
L 139.034177 134.39635 
L 142.226664 134.39635 
L 142.439497 133.958327 
L 142.865161 133.958327 
L 143.077994 133.301293 
L 143.290826 133.301293 
L 143.503659 133.082281 
L 143.716491 133.082281 
L 143.929324 132.86327 
L 144.567821 131.768213 
L 148.611638 131.768213 
L 148.82447 131.549202 
L 149.037303 131.549202 
L 149.250135 131.33019 
L 149.462968 131.33019 
L 149.6758 131.111179 
L 150.52713 131.111179 
L 150.739962 130.892167 
L 150.952795 130.892167 
L 151.37846 130.454144 
L 151.591292 130.454144 
L 151.804125 130.235133 
L 153.293952 130.235133 
L 153.506784 130.016122 
L 154.783779 130.016122 
L 154.996612 129.79711 
L 157.763434 129.79711 
L 157.976266 129.578099 
L 160.743088 129.578099 
L 161.168753 129.140076 
L 166.0639 129.140076 
L 166.276732 128.921065 
L 167.340894 128.921065 
L 167.766559 128.483042 
L 168.617889 128.483042 
L 168.830722 128.26403 
L 169.043554 127.826008 
L 170.533381 127.826008 
L 170.746214 127.606996 
L 171.384711 127.606996 
L 171.597544 127.387985 
L 178.833847 127.387985 
L 179.04668 127.168973 
L 180.323674 127.168973 
L 180.536507 126.949962 
L 182.877664 126.949962 
L 183.090496 126.730951 
L 183.516161 126.730951 
L 183.941826 126.073916 
L 186.708648 126.073916 
L 186.921481 125.854905 
L 189.262638 125.854905 
L 189.47547 125.635894 
L 190.3268 125.635894 
L 190.539632 125.416882 
L 193.519287 125.416882 
L 193.732119 125.197871 
L 202.032585 125.197871 
L 202.245418 124.978859 
L 202.883915 124.978859 
L 203.096748 124.759848 
L 204.799407 124.759848 
L 205.01224 124.540837 
L 206.927732 124.540837 
L 207.140564 124.102814 
L 207.991894 124.102814 
L 208.204727 123.883802 
L 209.268889 123.883802 
L 209.481721 123.664791 
L 215.228198 123.664791 
L 215.44103 123.445779 
L 225.018491 123.445779 
L 225.231323 123.226768 
L 225.869821 123.226768 
L 226.082653 122.788745 
L 227.57248 122.788745 
L 227.785313 122.569734 
L 228.849475 122.569734 
L 229.062308 122.131711 
L 229.487972 122.131711 
L 229.700805 121.693688 
L 230.764967 121.693688 
L 230.9778 121.474677 
L 232.041962 121.474677 
L 232.254794 121.036654 
L 236.298611 121.036654 
L 236.511444 120.817643 
L 238.001271 120.817643 
L 238.214103 120.598631 
L 241.40659 120.598631 
L 241.619423 120.37962 
L 246.514569 120.37962 
L 246.727402 120.160608 
L 253.750873 120.160608 
L 253.963705 119.941597 
L 260.348679 119.941597 
L 260.561512 119.722586 
L 261.625674 119.722586 
L 261.838506 119.503574 
L 263.753998 119.503574 
L 263.966831 119.065551 
L 271.415967 119.065551 
L 271.628799 118.84654 
L 272.480129 118.84654 
L 272.692962 118.627529 
L 273.331459 118.627529 
L 273.544292 118.408517 
L 274.821286 118.408517 
L 275.246951 117.970494 
L 277.162443 117.970494 
L 277.375276 117.751483 
L 280.780595 117.751483 
L 281.20626 117.31346 
L 294.401873 117.31346 
L 294.614705 117.094449 
L 295.466035 117.094449 
L 295.678867 116.875437 
L 318.451941 116.875437 
L 318.664773 116.656426 
L 324.836914 116.656426 
L 325.049747 116.437414 
L 330.796223 116.437414 
L 331.009056 115.999392 
L 333.775878 115.999392 
L 333.98871 115.78038 
L 334.84004 115.78038 
L 335.052872 115.561369 
L 339.735186 115.561369 
L 339.948019 115.342357 
L 343.566171 115.342357 
L 343.779003 114.685323 
L 368.254736 114.685323 
L 368.467568 114.466312 
L 373.149883 114.466312 
L 373.362715 114.2473 
L 375.916705 114.2473 
L 375.916705 114.2473 
" clip-path="url(#p347b41ff58)" style="fill: none; stroke: #5784db; stroke-width: 1.2; stroke-linecap: round"/>
   </g>
   <g id="line2d_43">
    <path d="M 69.650795 473.316502 
L 70.07646 395.89597 
L 70.502125 325.593308 
L 71.140623 293.398631 
L 71.566288 280.476958 
L 71.77912 276.534753 
L 72.204785 264.489125 
L 72.63045 255.509658 
L 73.268947 237.769734 
L 73.48178 236.017643 
L 73.694612 231.856426 
L 73.907445 229.885323 
L 74.545942 209.955285 
L 74.758774 209.298251 
L 75.184439 204.699011 
L 75.822937 199.661749 
L 76.461434 196.595589 
L 76.887099 193.091407 
L 77.738429 188.711179 
L 77.951261 184.987985 
L 78.164094 183.892928 
L 78.376926 181.921825 
L 78.589759 181.045779 
L 78.802591 179.074677 
L 79.441089 176.44654 
L 79.653921 173.818403 
L 79.866754 173.161369 
L 80.292418 169.438175 
L 80.505251 169.000152 
L 80.930916 166.153004 
L 81.143748 165.276958 
L 81.356581 165.057947 
L 82.633575 158.925627 
L 83.272073 157.173536 
L 83.484905 156.954525 
L 83.697738 156.954525 
L 83.91057 156.516502 
L 84.123403 155.640456 
L 84.336235 155.640456 
L 85.187565 153.012319 
L 85.400397 152.793308 
L 85.61323 152.136274 
L 85.826062 151.917262 
L 86.251727 150.165171 
L 86.677392 149.508137 
L 86.890225 147.318023 
L 87.103057 147.099011 
L 87.528722 146.003954 
L 87.741555 145.784943 
L 88.167219 144.251863 
L 89.018549 140.090646 
L 89.231382 139.433612 
L 89.657047 136.805475 
L 89.869879 136.805475 
L 90.295544 136.148441 
L 90.721209 136.148441 
L 90.934041 135.491407 
L 91.572539 134.834373 
L 91.785371 134.834373 
L 91.998204 134.39635 
L 92.211036 134.39635 
L 92.423869 134.177338 
L 93.275198 129.578099 
L 93.488031 129.578099 
L 93.913696 128.921065 
L 94.126528 128.702053 
L 94.339361 128.702053 
L 94.977858 128.045019 
L 95.190691 127.606996 
L 95.403523 127.606996 
L 95.616356 127.387985 
L 96.254853 127.387985 
L 96.467685 126.949962 
L 96.680518 126.949962 
L 96.89335 126.511939 
L 97.531848 126.511939 
L 97.957513 126.073916 
L 98.170345 126.073916 
L 98.383177 125.854905 
L 99.021675 125.854905 
L 99.44734 124.759848 
L 99.660172 124.321825 
L 100.724335 124.321825 
L 101.149999 123.883802 
L 102.426994 123.883802 
L 102.852659 123.445779 
L 104.129654 123.445779 
L 104.342486 123.226768 
L 104.555319 123.226768 
L 104.768151 123.007757 
L 105.193816 123.007757 
L 105.406649 122.788745 
L 105.832314 122.788745 
L 106.257978 122.350722 
L 108.811968 122.350722 
L 109.0248 122.131711 
L 109.663298 122.131711 
L 109.87613 121.9127 
L 110.301795 121.9127 
L 110.514628 121.693688 
L 110.72746 121.036654 
L 111.153125 121.036654 
L 111.365957 120.817643 
L 111.791622 120.817643 
L 112.217287 120.37962 
L 112.43012 120.37962 
L 112.642952 120.160608 
L 112.855785 120.160608 
L 113.068617 119.941597 
L 113.494282 119.941597 
L 113.707115 119.722586 
L 114.132779 119.722586 
L 114.345612 119.503574 
L 114.558444 119.503574 
L 115.196942 118.84654 
L 116.261104 118.84654 
L 116.686769 118.408517 
L 117.325266 118.408517 
L 117.750931 117.532471 
L 118.176596 117.532471 
L 118.602261 117.094449 
L 118.815094 117.094449 
L 119.453591 116.437414 
L 120.517753 116.437414 
L 120.943418 115.999392 
L 121.156251 115.999392 
L 121.369083 115.78038 
L 121.794748 115.78038 
L 122.00758 114.904335 
L 122.646078 114.904335 
L 123.071743 114.466312 
L 124.348738 114.466312 
L 124.56157 114.2473 
L 124.774402 114.2473 
L 125.200067 113.590266 
L 126.477062 113.590266 
L 126.689895 113.371255 
L 128.179722 113.371255 
L 128.605387 112.714221 
L 131.585041 112.714221 
L 132.010706 112.057186 
L 133.074868 112.057186 
L 133.287701 111.838175 
L 135.628858 111.838175 
L 135.84169 111.619163 
L 138.39568 111.619163 
L 139.034177 110.962129 
L 141.588167 110.962129 
L 142.013832 110.524106 
L 142.865161 110.524106 
L 143.077994 109.867072 
L 143.290826 109.648061 
L 143.503659 109.210038 
L 143.929324 109.210038 
L 144.567821 108.114981 
L 148.611638 108.114981 
L 148.82447 107.89597 
L 149.037303 107.89597 
L 149.250135 107.676958 
L 149.462968 107.676958 
L 149.6758 107.457947 
L 150.52713 107.457947 
L 150.739962 107.238935 
L 150.952795 107.238935 
L 151.37846 106.800913 
L 151.591292 106.800913 
L 151.804125 106.581901 
L 154.783779 106.581901 
L 154.996612 106.36289 
L 160.743088 106.36289 
L 161.168753 105.924867 
L 166.0639 105.924867 
L 166.276732 105.705856 
L 167.128062 105.705856 
L 167.340894 105.486844 
L 167.553727 105.486844 
L 167.766559 105.267833 
L 168.617889 105.267833 
L 168.830722 105.048821 
L 169.043554 104.610798 
L 170.533381 104.610798 
L 170.746214 104.391787 
L 171.384711 104.391787 
L 171.597544 104.172776 
L 178.833847 104.172776 
L 179.04668 103.953764 
L 180.323674 103.953764 
L 180.536507 103.734753 
L 182.877664 103.734753 
L 183.090496 103.515741 
L 183.303329 103.515741 
L 183.728994 103.077719 
L 186.708648 103.077719 
L 186.921481 102.858707 
L 190.3268 102.858707 
L 190.539632 102.639696 
L 202.032585 102.639696 
L 202.245418 102.420684 
L 202.883915 102.420684 
L 203.096748 102.201673 
L 204.586575 102.201673 
L 205.01224 101.76365 
L 205.437905 101.76365 
L 205.650737 101.544639 
L 206.927732 101.544639 
L 207.140564 101.106616 
L 207.991894 101.106616 
L 208.204727 100.887605 
L 209.056056 100.887605 
L 209.268889 100.668593 
L 214.164035 100.668593 
L 214.376868 100.449582 
L 215.228198 100.449582 
L 215.44103 100.23057 
L 218.84635 100.23057 
L 219.059182 100.011559 
L 225.018491 100.011559 
L 225.231323 99.792548 
L 225.869821 99.792548 
L 226.082653 99.573536 
L 227.359648 99.573536 
L 227.57248 99.354525 
L 228.849475 99.354525 
L 229.062308 98.916502 
L 229.487972 98.916502 
L 229.700805 98.478479 
L 230.764967 98.478479 
L 230.9778 98.259468 
L 232.041962 98.259468 
L 232.254794 97.821445 
L 235.872946 97.821445 
L 236.085779 97.602433 
L 240.55526 97.602433 
L 240.768093 97.383422 
L 243.322082 97.383422 
L 243.534915 97.164411 
L 246.514569 97.164411 
L 246.727402 96.945399 
L 253.53804 96.945399 
L 253.750873 96.726388 
L 259.284517 96.726388 
L 259.497349 96.507376 
L 260.348679 96.507376 
L 260.561512 96.288365 
L 261.625674 96.288365 
L 261.838506 96.069354 
L 263.753998 96.069354 
L 263.966831 95.631331 
L 271.415967 95.631331 
L 271.628799 95.412319 
L 272.480129 95.412319 
L 272.692962 95.193308 
L 273.331459 95.193308 
L 273.544292 94.974297 
L 274.182789 94.974297 
L 274.395621 94.755285 
L 274.608454 94.755285 
L 275.034119 94.317262 
L 277.162443 94.317262 
L 277.375276 94.098251 
L 280.780595 94.098251 
L 281.20626 93.660228 
L 286.314239 93.660228 
L 286.527072 93.441217 
L 294.401873 93.441217 
L 294.614705 93.222205 
L 295.253202 93.222205 
L 295.466035 93.003194 
L 300.786846 93.003194 
L 300.999679 92.784183 
L 318.239108 92.784183 
L 318.451941 92.565171 
L 323.55992 92.565171 
L 323.772752 92.34616 
L 324.836914 92.34616 
L 325.049747 92.127148 
L 327.178071 92.127148 
L 327.390904 91.908137 
L 330.796223 91.908137 
L 331.009056 91.470114 
L 333.775878 91.470114 
L 333.98871 91.251103 
L 334.84004 91.251103 
L 335.052872 91.032091 
L 339.735186 91.032091 
L 339.948019 90.81308 
L 340.160851 90.81308 
L 340.373684 90.594068 
L 343.566171 90.594068 
L 343.779003 89.937034 
L 357.187448 89.937034 
L 357.400281 89.718023 
L 368.254736 89.718023 
L 368.467568 89.499011 
L 373.149883 89.499011 
L 373.362715 89.28 
L 375.916705 89.28 
L 375.916705 89.28 
" clip-path="url(#p347b41ff58)" style="fill: none; stroke: #c957db; stroke-width: 1.2; stroke-linecap: round"/>
   </g>
   <g id="line2d_44"/>
   <g id="line2d_45"/>
   <g id="line2d_46"/>
   <g id="line2d_47"/>
   <g id="line2d_48"/>
   <g id="patch_3">
    <path d="M 54.3375 512.64 
L 54.3375 69.12 
" style="fill: none; stroke: #cccccc; stroke-linejoin: miter; stroke-linecap: square"/>
   </g>
   <g id="patch_4">
    <path d="M 54.3375 512.64 
L 391.23 512.64 
" style="fill: none; stroke: #cccccc; stroke-linejoin: miter; stroke-linecap: square"/>
   </g>
   <g id="text_41">
    <!-- Edge Coverage History -->
    <g style="fill: #262626" transform="translate(115.892262 63.12)scale(0.165888 -0.165888)">
     <defs>
      <path id="DejaVuSans-Bold-45" d="M 588 4666 
L 3834 4666 
L 3834 3756 
L 1791 3756 
L 1791 2888 
L 3713 2888 
L 3713 1978 
L 1791 1978 
L 1791 909 
L 3903 909 
L 3903 0 
L 588 0 
L 588 4666 
z
" transform="scale(0.015625)"/>
      <path id="DejaVuSans-Bold-64" d="M 2919 2988 
L 2919 4863 
L 4044 4863 
L 4044 0 
L 2919 0 
L 2919 506 
Q 2688 197 2409 53 
Q 2131 -91 1766 -91 
Q 1119 -91 703 423 
Q 288 938 288 1747 
Q 288 2556 703 3070 
Q 1119 3584 1766 3584 
Q 2128 3584 2408 3439 
Q 2688 3294 2919 2988 
z
M 2181 722 
Q 2541 722 2730 984 
Q 2919 1247 2919 1747 
Q 2919 2247 2730 2509 
Q 2541 2772 2181 2772 
Q 1825 2772 1636 2509 
Q 1447 2247 1447 1747 
Q 1447 1247 1636 984 
Q 1825 722 2181 722 
z
" transform="scale(0.015625)"/>
      <path id="DejaVuSans-Bold-67" d="M 2919 594 
Q 2688 288 2409 144 
Q 2131 0 1766 0 
Q 1125 0 706 504 
Q 288 1009 288 1791 
Q 288 2575 706 3076 
Q 1125 3578 1766 3578 
Q 2131 3578 2409 3434 
Q 2688 3291 2919 2981 
L 2919 3500 
L 4044 3500 
L 4044 353 
Q 4044 -491 3511 -936 
Q 2978 -1381 1966 -1381 
Q 1638 -1381 1331 -1331 
Q 1025 -1281 716 -1178 
L 716 -306 
Q 1009 -475 1290 -558 
Q 1572 -641 1856 -641 
Q 2406 -641 2662 -400 
Q 2919 -159 2919 353 
L 2919 594 
z
M 2181 2772 
Q 1834 2772 1640 2515 
Q 1447 2259 1447 1791 
Q 1447 1309 1634 1061 
Q 1822 813 2181 813 
Q 2531 813 2725 1069 
Q 2919 1325 2919 1791 
Q 2919 2259 2725 2515 
Q 2531 2772 2181 2772 
z
" transform="scale(0.015625)"/>
      <path id="DejaVuSans-Bold-65" d="M 4031 1759 
L 4031 1441 
L 1416 1441 
Q 1456 1047 1700 850 
Q 1944 653 2381 653 
Q 2734 653 3104 758 
Q 3475 863 3866 1075 
L 3866 213 
Q 3469 63 3072 -14 
Q 2675 -91 2278 -91 
Q 1328 -91 801 392 
Q 275 875 275 1747 
Q 275 2603 792 3093 
Q 1309 3584 2216 3584 
Q 3041 3584 3536 3087 
Q 4031 2591 4031 1759 
z
M 2881 2131 
Q 2881 2450 2695 2645 
Q 2509 2841 2209 2841 
Q 1884 2841 1681 2658 
Q 1478 2475 1428 2131 
L 2881 2131 
z
" transform="scale(0.015625)"/>
      <path id="DejaVuSans-Bold-20" transform="scale(0.015625)"/>
      <path id="DejaVuSans-Bold-43" d="M 4288 256 
Q 3956 84 3597 -3 
Q 3238 -91 2847 -91 
Q 1681 -91 1000 561 
Q 319 1213 319 2328 
Q 319 3447 1000 4098 
Q 1681 4750 2847 4750 
Q 3238 4750 3597 4662 
Q 3956 4575 4288 4403 
L 4288 3438 
Q 3953 3666 3628 3772 
Q 3303 3878 2944 3878 
Q 2300 3878 1931 3465 
Q 1563 3053 1563 2328 
Q 1563 1606 1931 1193 
Q 2300 781 2944 781 
Q 3303 781 3628 887 
Q 3953 994 4288 1222 
L 4288 256 
z
" transform="scale(0.015625)"/>
      <path id="DejaVuSans-Bold-6f" d="M 2203 2784 
Q 1831 2784 1636 2517 
Q 1441 2250 1441 1747 
Q 1441 1244 1636 976 
Q 1831 709 2203 709 
Q 2569 709 2762 976 
Q 2956 1244 2956 1747 
Q 2956 2250 2762 2517 
Q 2569 2784 2203 2784 
z
M 2203 3584 
Q 3106 3584 3614 3096 
Q 4122 2609 4122 1747 
Q 4122 884 3614 396 
Q 3106 -91 2203 -91 
Q 1297 -91 786 396 
Q 275 884 275 1747 
Q 275 2609 786 3096 
Q 1297 3584 2203 3584 
z
" transform="scale(0.015625)"/>
      <path id="DejaVuSans-Bold-76" d="M 97 3500 
L 1216 3500 
L 2088 1081 
L 2956 3500 
L 4078 3500 
L 2700 0 
L 1472 0 
L 97 3500 
z
" transform="scale(0.015625)"/>
      <path id="DejaVuSans-Bold-72" d="M 3138 2547 
Q 2991 2616 2845 2648 
Q 2700 2681 2553 2681 
Q 2122 2681 1889 2404 
Q 1656 2128 1656 1613 
L 1656 0 
L 538 0 
L 538 3500 
L 1656 3500 
L 1656 2925 
Q 1872 3269 2151 3426 
Q 2431 3584 2822 3584 
Q 2878 3584 2943 3579 
Q 3009 3575 3134 3559 
L 3138 2547 
z
" transform="scale(0.015625)"/>
      <path id="DejaVuSans-Bold-61" d="M 2106 1575 
Q 1756 1575 1579 1456 
Q 1403 1338 1403 1106 
Q 1403 894 1545 773 
Q 1688 653 1941 653 
Q 2256 653 2472 879 
Q 2688 1106 2688 1447 
L 2688 1575 
L 2106 1575 
z
M 3816 1997 
L 3816 0 
L 2688 0 
L 2688 519 
Q 2463 200 2181 54 
Q 1900 -91 1497 -91 
Q 953 -91 614 226 
Q 275 544 275 1050 
Q 275 1666 698 1953 
Q 1122 2241 2028 2241 
L 2688 2241 
L 2688 2328 
Q 2688 2594 2478 2717 
Q 2269 2841 1825 2841 
Q 1466 2841 1156 2769 
Q 847 2697 581 2553 
L 581 3406 
Q 941 3494 1303 3539 
Q 1666 3584 2028 3584 
Q 2975 3584 3395 3211 
Q 3816 2838 3816 1997 
z
" transform="scale(0.015625)"/>
      <path id="DejaVuSans-Bold-48" d="M 588 4666 
L 1791 4666 
L 1791 2888 
L 3566 2888 
L 3566 4666 
L 4769 4666 
L 4769 0 
L 3566 0 
L 3566 1978 
L 1791 1978 
L 1791 0 
L 588 0 
L 588 4666 
z
" transform="scale(0.015625)"/>
      <path id="DejaVuSans-Bold-69" d="M 538 3500 
L 1656 3500 
L 1656 0 
L 538 0 
L 538 3500 
z
M 538 4863 
L 1656 4863 
L 1656 3950 
L 538 3950 
L 538 4863 
z
" transform="scale(0.015625)"/>
      <path id="DejaVuSans-Bold-73" d="M 3272 3391 
L 3272 2541 
Q 2913 2691 2578 2766 
Q 2244 2841 1947 2841 
Q 1628 2841 1473 2761 
Q 1319 2681 1319 2516 
Q 1319 2381 1436 2309 
Q 1553 2238 1856 2203 
L 2053 2175 
Q 2913 2066 3209 1816 
Q 3506 1566 3506 1031 
Q 3506 472 3093 190 
Q 2681 -91 1863 -91 
Q 1516 -91 1145 -36 
Q 775 19 384 128 
L 384 978 
Q 719 816 1070 734 
Q 1422 653 1784 653 
Q 2113 653 2278 743 
Q 2444 834 2444 1013 
Q 2444 1163 2330 1236 
Q 2216 1309 1875 1350 
L 1678 1375 
Q 931 1469 631 1722 
Q 331 1975 331 2491 
Q 331 3047 712 3315 
Q 1094 3584 1881 3584 
Q 2191 3584 2531 3537 
Q 2872 3491 3272 3391 
z
" transform="scale(0.015625)"/>
      <path id="DejaVuSans-Bold-74" d="M 1759 4494 
L 1759 3500 
L 2913 3500 
L 2913 2700 
L 1759 2700 
L 1759 1216 
Q 1759 972 1856 886 
Q 1953 800 2241 800 
L 2816 800 
L 2816 0 
L 1856 0 
Q 1194 0 917 276 
Q 641 553 641 1216 
L 641 2700 
L 84 2700 
L 84 3500 
L 641 3500 
L 641 4494 
L 1759 4494 
z
" transform="scale(0.015625)"/>
      <path id="DejaVuSans-Bold-79" d="M 78 3500 
L 1197 3500 
L 2138 1125 
L 2938 3500 
L 4056 3500 
L 2584 -331 
Q 2363 -916 2067 -1148 
Q 1772 -1381 1288 -1381 
L 641 -1381 
L 641 -647 
L 991 -647 
Q 1275 -647 1404 -556 
Q 1534 -466 1606 -231 
L 1638 -134 
L 78 3500 
z
" transform="scale(0.015625)"/>
     </defs>
     <use xlink:href="#DejaVuSans-Bold-45"/>
     <use xlink:href="#DejaVuSans-Bold-64" x="68.310547"/>
     <use xlink:href="#DejaVuSans-Bold-67" x="139.892578"/>
     <use xlink:href="#DejaVuSans-Bold-65" x="211.474609"/>
     <use xlink:href="#DejaVuSans-Bold-20" x="279.296875"/>
     <use xlink:href="#DejaVuSans-Bold-43" x="314.111328"/>
     <use xlink:href="#DejaVuSans-Bold-6f" x="387.5"/>
     <use xlink:href="#DejaVuSans-Bold-76" x="456.201172"/>
     <use xlink:href="#DejaVuSans-Bold-65" x="521.386719"/>
     <use xlink:href="#DejaVuSans-Bold-72" x="589.208984"/>
     <use xlink:href="#DejaVuSans-Bold-61" x="638.525391"/>
     <use xlink:href="#DejaVuSans-Bold-67" x="706.005859"/>
     <use xlink:href="#DejaVuSans-Bold-65" x="777.587891"/>
     <use xlink:href="#DejaVuSans-Bold-20" x="845.410156"/>
     <use xlink:href="#DejaVuSans-Bold-48" x="880.224609"/>
     <use xlink:href="#DejaVuSans-Bold-69" x="963.916016"/>
     <use xlink:href="#DejaVuSans-Bold-73" x="998.193359"/>
     <use xlink:href="#DejaVuSans-Bold-74" x="1057.714844"/>
     <use xlink:href="#DejaVuSans-Bold-6f" x="1105.517578"/>
     <use xlink:href="#DejaVuSans-Bold-72" x="1174.21875"/>
     <use xlink:href="#DejaVuSans-Bold-79" x="1223.535156"/>
    </g>
   </g>
   <g id="legend_1">
    <g id="patch_5">
     <path d="M 267.942 508.24 
L 385.07 508.24 
Q 386.83 508.24 386.83 506.48 
L 386.83 428.8405 
Q 386.83 427.0805 385.07 427.0805 
L 267.942 427.0805 
Q 266.182 427.0805 266.182 428.8405 
L 266.182 506.48 
Q 266.182 508.24 267.942 508.24 
z
" style="fill: #ffffff; opacity: 0.8; stroke: #cccccc; stroke-width: 0.8; stroke-linejoin: miter"/>
    </g>
    <g id="text_42">
     <!-- fuzzer -->
     <g style="fill: #262626" transform="translate(311.809 437.895)scale(0.096 -0.096)">
      <defs>
       <path id="DejaVuSans-66" d="M 2375 4863 
L 2375 4384 
L 1825 4384 
Q 1516 4384 1395 4259 
Q 1275 4134 1275 3809 
L 1275 3500 
L 2222 3500 
L 2222 3053 
L 1275 3053 
L 1275 0 
L 697 0 
L 697 3053 
L 147 3053 
L 147 3500 
L 697 3500 
L 697 3744 
Q 697 4328 969 4595 
Q 1241 4863 1831 4863 
L 2375 4863 
z
" transform="scale(0.015625)"/>
       <path id="DejaVuSans-7a" d="M 353 3500 
L 3084 3500 
L 3084 2975 
L 922 459 
L 3084 459 
L 3084 0 
L 275 0 
L 275 525 
L 2438 3041 
L 353 3041 
L 353 3500 
z
" transform="scale(0.015625)"/>
      </defs>
      <use xlink:href="#DejaVuSans-66"/>
      <use xlink:href="#DejaVuSans-75" x="35.205078"/>
      <use xlink:href="#DejaVuSans-7a" x="98.583984"/>
      <use xlink:href="#DejaVuSans-7a" x="151.074219"/>
      <use xlink:href="#DejaVuSans-65" x="203.564453"/>
      <use xlink:href="#DejaVuSans-72" x="265.087891"/>
     </g>
    </g>
    <g id="line2d_49">
     <path d="M 269.702 447.898125 
L 278.502 447.898125 
L 287.302 447.898125 
" style="fill: none; stroke: #db5f57; stroke-width: 1.2; stroke-linecap: round"/>
    </g>
    <g id="text_43">
     <!-- aflplusplus-0-exid24 -->
     <g style="fill: #262626" transform="translate(294.342 450.978125)scale(0.088 -0.088)">
      <defs>
       <path id="DejaVuSans-6c" d="M 603 4863 
L 1178 4863 
L 1178 0 
L 603 0 
L 603 4863 
z
" transform="scale(0.015625)"/>
       <path id="DejaVuSans-70" d="M 1159 525 
L 1159 -1331 
L 581 -1331 
L 581 3500 
L 1159 3500 
L 1159 2969 
Q 1341 3281 1617 3432 
Q 1894 3584 2278 3584 
Q 2916 3584 3314 3078 
Q 3713 2572 3713 1747 
Q 3713 922 3314 415 
Q 2916 -91 2278 -91 
Q 1894 -91 1617 61 
Q 1341 213 1159 525 
z
M 3116 1747 
Q 3116 2381 2855 2742 
Q 2594 3103 2138 3103 
Q 1681 3103 1420 2742 
Q 1159 2381 1159 1747 
Q 1159 1113 1420 752 
Q 1681 391 2138 391 
Q 2594 391 2855 752 
Q 3116 1113 3116 1747 
z
" transform="scale(0.015625)"/>
       <path id="DejaVuSans-2d" d="M 313 2009 
L 1997 2009 
L 1997 1497 
L 313 1497 
L 313 2009 
z
" transform="scale(0.015625)"/>
       <path id="DejaVuSans-78" d="M 3513 3500 
L 2247 1797 
L 3578 0 
L 2900 0 
L 1881 1375 
L 863 0 
L 184 0 
L 1544 1831 
L 300 3500 
L 978 3500 
L 1906 2253 
L 2834 3500 
L 3513 3500 
z
" transform="scale(0.015625)"/>
      </defs>
      <use xlink:href="#DejaVuSans-61"/>
      <use xlink:href="#DejaVuSans-66" x="61.279297"/>
      <use xlink:href="#DejaVuSans-6c" x="96.484375"/>
      <use xlink:href="#DejaVuSans-70" x="124.267578"/>
      <use xlink:href="#DejaVuSans-6c" x="187.744141"/>
      <use xlink:href="#DejaVuSans-75" x="215.527344"/>
      <use xlink:href="#DejaVuSans-73" x="278.90625"/>
      <use xlink:href="#DejaVuSans-70" x="331.005859"/>
      <use xlink:href="#DejaVuSans-6c" x="394.482422"/>
      <use xlink:href="#DejaVuSans-75" x="422.265625"/>
      <use xlink:href="#DejaVuSans-73" x="485.644531"/>
      <use xlink:href="#DejaVuSans-2d" x="537.744141"/>
      <use xlink:href="#DejaVuSans-30" x="573.828125"/>
      <use xlink:href="#DejaVuSans-2d" x="637.451172"/>
      <use xlink:href="#DejaVuSans-65" x="673.535156"/>
      <use xlink:href="#DejaVuSans-78" x="733.308594"/>
      <use xlink:href="#DejaVuSans-69" x="792.488281"/>
      <use xlink:href="#DejaVuSans-64" x="820.271484"/>
      <use xlink:href="#DejaVuSans-32" x="883.748047"/>
      <use xlink:href="#DejaVuSans-34" x="947.371094"/>
     </g>
    </g>
    <g id="line2d_50">
     <path d="M 269.702 460.814875 
L 278.502 460.814875 
L 287.302 460.814875 
" style="fill: none; stroke: #b9db57; stroke-width: 1.2; stroke-linecap: round"/>
    </g>
    <g id="text_44">
     <!-- fairfuzz-0-exid24 -->
     <g style="fill: #262626" transform="translate(294.342 463.894875)scale(0.088 -0.088)">
      <use xlink:href="#DejaVuSans-66"/>
      <use xlink:href="#DejaVuSans-61" x="35.205078"/>
      <use xlink:href="#DejaVuSans-69" x="96.484375"/>
      <use xlink:href="#DejaVuSans-72" x="124.267578"/>
      <use xlink:href="#DejaVuSans-66" x="165.380859"/>
      <use xlink:href="#DejaVuSans-75" x="200.585938"/>
      <use xlink:href="#DejaVuSans-7a" x="263.964844"/>
      <use xlink:href="#DejaVuSans-7a" x="316.455078"/>
      <use xlink:href="#DejaVuSans-2d" x="368.945312"/>
      <use xlink:href="#DejaVuSans-30" x="405.029297"/>
      <use xlink:href="#DejaVuSans-2d" x="468.652344"/>
      <use xlink:href="#DejaVuSans-65" x="504.736328"/>
      <use xlink:href="#DejaVuSans-78" x="564.509766"/>
      <use xlink:href="#DejaVuSans-69" x="623.689453"/>
      <use xlink:href="#DejaVuSans-64" x="651.472656"/>
      <use xlink:href="#DejaVuSans-32" x="714.949219"/>
      <use xlink:href="#DejaVuSans-34" x="778.572266"/>
     </g>
    </g>
    <g id="line2d_51">
     <path d="M 269.702 473.731625 
L 278.502 473.731625 
L 287.302 473.731625 
" style="fill: none; stroke: #57db94; stroke-width: 1.2; stroke-linecap: round"/>
    </g>
    <g id="text_45">
     <!-- aflfast-0-exid24 -->
     <g style="fill: #262626" transform="translate(294.342 476.811625)scale(0.088 -0.088)">
      <use xlink:href="#DejaVuSans-61"/>
      <use xlink:href="#DejaVuSans-66" x="61.279297"/>
      <use xlink:href="#DejaVuSans-6c" x="96.484375"/>
      <use xlink:href="#DejaVuSans-66" x="124.267578"/>
      <use xlink:href="#DejaVuSans-61" x="159.472656"/>
      <use xlink:href="#DejaVuSans-73" x="220.751953"/>
      <use xlink:href="#DejaVuSans-74" x="272.851562"/>
      <use xlink:href="#DejaVuSans-2d" x="312.060547"/>
      <use xlink:href="#DejaVuSans-30" x="348.144531"/>
      <use xlink:href="#DejaVuSans-2d" x="411.767578"/>
      <use xlink:href="#DejaVuSans-65" x="447.851562"/>
      <use xlink:href="#DejaVuSans-78" x="507.625"/>
      <use xlink:href="#DejaVuSans-69" x="566.804688"/>
      <use xlink:href="#DejaVuSans-64" x="594.587891"/>
      <use xlink:href="#DejaVuSans-32" x="658.064453"/>
      <use xlink:href="#DejaVuSans-34" x="721.6875"/>
     </g>
    </g>
    <g id="line2d_52">
     <path d="M 269.702 486.648375 
L 278.502 486.648375 
L 287.302 486.648375 
" style="fill: none; stroke: #5784db; stroke-width: 1.2; stroke-linecap: round"/>
    </g>
    <g id="text_46">
     <!-- afl-0-exid24 -->
     <g style="fill: #262626" transform="translate(294.342 489.728375)scale(0.088 -0.088)">
      <use xlink:href="#DejaVuSans-61"/>
      <use xlink:href="#DejaVuSans-66" x="61.279297"/>
      <use xlink:href="#DejaVuSans-6c" x="96.484375"/>
      <use xlink:href="#DejaVuSans-2d" x="124.267578"/>
      <use xlink:href="#DejaVuSans-30" x="160.351562"/>
      <use xlink:href="#DejaVuSans-2d" x="223.974609"/>
      <use xlink:href="#DejaVuSans-65" x="260.058594"/>
      <use xlink:href="#DejaVuSans-78" x="319.832031"/>
      <use xlink:href="#DejaVuSans-69" x="379.011719"/>
      <use xlink:href="#DejaVuSans-64" x="406.794922"/>
      <use xlink:href="#DejaVuSans-32" x="470.271484"/>
      <use xlink:href="#DejaVuSans-34" x="533.894531"/>
     </g>
    </g>
    <g id="line2d_53">
     <path d="M 269.702 499.565125 
L 278.502 499.565125 
L 287.302 499.565125 
" style="fill: none; stroke: #c957db; stroke-width: 1.2; stroke-linecap: round"/>
    </g>
    <g id="text_47">
     <!-- fuzzer_global -->
     <g style="fill: #262626" transform="translate(294.342 502.645125)scale(0.088 -0.088)">
      <defs>
       <path id="DejaVuSans-5f" d="M 3263 -1063 
L 3263 -1509 
L -63 -1509 
L -63 -1063 
L 3263 -1063 
z
" transform="scale(0.015625)"/>
       <path id="DejaVuSans-62" d="M 3116 1747 
Q 3116 2381 2855 2742 
Q 2594 3103 2138 3103 
Q 1681 3103 1420 2742 
Q 1159 2381 1159 1747 
Q 1159 1113 1420 752 
Q 1681 391 2138 391 
Q 2594 391 2855 752 
Q 3116 1113 3116 1747 
z
M 1159 2969 
Q 1341 3281 1617 3432 
Q 1894 3584 2278 3584 
Q 2916 3584 3314 3078 
Q 3713 2572 3713 1747 
Q 3713 922 3314 415 
Q 2916 -91 2278 -91 
Q 1894 -91 1617 61 
Q 1341 213 1159 525 
L 1159 0 
L 581 0 
L 581 4863 
L 1159 4863 
L 1159 2969 
z
" transform="scale(0.015625)"/>
      </defs>
      <use xlink:href="#DejaVuSans-66"/>
      <use xlink:href="#DejaVuSans-75" x="35.205078"/>
      <use xlink:href="#DejaVuSans-7a" x="98.583984"/>
      <use xlink:href="#DejaVuSans-7a" x="151.074219"/>
      <use xlink:href="#DejaVuSans-65" x="203.564453"/>
      <use xlink:href="#DejaVuSans-72" x="265.087891"/>
      <use xlink:href="#DejaVuSans-5f" x="306.201172"/>
      <use xlink:href="#DejaVuSans-67" x="356.201172"/>
      <use xlink:href="#DejaVuSans-6c" x="419.677734"/>
      <use xlink:href="#DejaVuSans-6f" x="447.460938"/>
      <use xlink:href="#DejaVuSans-62" x="508.642578"/>
      <use xlink:href="#DejaVuSans-61" x="572.119141"/>
      <use xlink:href="#DejaVuSans-6c" x="633.398438"/>
     </g>
    </g>
   </g>
  </g>
 </g>
 <defs>
  <clipPath id="p347b41ff58">
   <rect x="54.3375" y="69.12" width="336.8925" height="443.52"/>
  </clipPath>
 </defs>
</svg>
