<?xml version="1.0" encoding="utf-8" standalone="no"?>
<!DOCTYPE svg PUBLIC "-//W3C//DTD SVG 1.1//EN"
  "http://www.w3.org/Graphics/SVG/1.1/DTD/svg11.dtd">
<svg xmlns:xlink="http://www.w3.org/1999/xlink" width="2764.8pt" height="2073.6pt" viewBox="0 0 2764.8 2073.6" xmlns="http://www.w3.org/2000/svg" version="1.1">
 <metadata>
  <rdf:RDF xmlns:dc="http://purl.org/dc/elements/1.1/" xmlns:cc="http://creativecommons.org/ns#" xmlns:rdf="http://www.w3.org/1999/02/22-rdf-syntax-ns#">
   <cc:Work>
    <dc:type rdf:resource="http://purl.org/dc/dcmitype/StillImage"/>
    <dc:date>2022-09-15T05:45:28.133868</dc:date>
    <dc:format>image/svg+xml</dc:format>
    <dc:creator>
     <cc:Agent>
      <dc:title>Matplotlib v3.5.3, https://matplotlib.org/</dc:title>
     </cc:Agent>
    </dc:creator>
   </cc:Work>
  </rdf:RDF>
 </metadata>
 <defs>
  <style type="text/css">*{stroke-linejoin: round; stroke-linecap: butt}</style>
 </defs>
 <g id="figure_1">
  <g id="patch_1">
   <path d="M 0 2073.6 
L 2764.8 2073.6 
L 2764.8 0 
L 0 0 
z
" style="fill: #ffffff"/>
  </g>
  <g id="axes_1">
   <g id="patch_2">
    <path d="M 345.6 1845.504 
L 2488.32 1845.504 
L 2488.32 248.832 
L 345.6 248.832 
z
" style="fill: #ffffff"/>
   </g>
   <g id="matplotlib.axis_1">
    <g id="xtick_1">
     <g id="line2d_1">
      <path d="M 442.996364 1845.504 
L 442.996364 248.832 
" clip-path="url(#pf2b044c250)" style="fill: none; stroke: #cccccc; stroke-linecap: round"/>
     </g>
     <g id="text_1">
      <!-- 0 -->
      <g style="fill: #262626" transform="translate(439.496989 1863.362281)scale(0.11 -0.11)">
       <defs>
        <path id="DejaVuSans-30" d="M 2034 4250 
Q 1547 4250 1301 3770 
Q 1056 3291 1056 2328 
Q 1056 1369 1301 889 
Q 1547 409 2034 409 
Q 2525 409 2770 889 
Q 3016 1369 3016 2328 
Q 3016 3291 2770 3770 
Q 2525 4250 2034 4250 
z
M 2034 4750 
Q 2819 4750 3233 4129 
Q 3647 3509 3647 2328 
Q 3647 1150 3233 529 
Q 2819 -91 2034 -91 
Q 1250 -91 836 529 
Q 422 1150 422 2328 
Q 422 3509 836 4129 
Q 1250 4750 2034 4750 
z
" transform="scale(0.015625)"/>
       </defs>
       <use xlink:href="#DejaVuSans-30"/>
      </g>
     </g>
    </g>
    <g id="xtick_2">
     <g id="line2d_2">
      <path d="M 723.072176 1845.504 
L 723.072176 248.832 
" clip-path="url(#pf2b044c250)" style="fill: none; stroke: #cccccc; stroke-linecap: round"/>
     </g>
     <g id="text_2">
      <!-- 200 -->
      <g style="fill: #262626" transform="translate(712.574051 1863.362281)scale(0.11 -0.11)">
       <defs>
        <path id="DejaVuSans-32" d="M 1228 531 
L 3431 531 
L 3431 0 
L 469 0 
L 469 531 
Q 828 903 1448 1529 
Q 2069 2156 2228 2338 
Q 2531 2678 2651 2914 
Q 2772 3150 2772 3378 
Q 2772 3750 2511 3984 
Q 2250 4219 1831 4219 
Q 1534 4219 1204 4116 
Q 875 4013 500 3803 
L 500 4441 
Q 881 4594 1212 4672 
Q 1544 4750 1819 4750 
Q 2544 4750 2975 4387 
Q 3406 4025 3406 3419 
Q 3406 3131 3298 2873 
Q 3191 2616 2906 2266 
Q 2828 2175 2409 1742 
Q 1991 1309 1228 531 
z
" transform="scale(0.015625)"/>
       </defs>
       <use xlink:href="#DejaVuSans-32"/>
       <use xlink:href="#DejaVuSans-30" x="63.623047"/>
       <use xlink:href="#DejaVuSans-30" x="127.246094"/>
      </g>
     </g>
    </g>
    <g id="xtick_3">
     <g id="line2d_3">
      <path d="M 1003.147988 1845.504 
L 1003.147988 248.832 
" clip-path="url(#pf2b044c250)" style="fill: none; stroke: #cccccc; stroke-linecap: round"/>
     </g>
     <g id="text_3">
      <!-- 400 -->
      <g style="fill: #262626" transform="translate(992.649863 1863.362281)scale(0.11 -0.11)">
       <defs>
        <path id="DejaVuSans-34" d="M 2419 4116 
L 825 1625 
L 2419 1625 
L 2419 4116 
z
M 2253 4666 
L 3047 4666 
L 3047 1625 
L 3713 1625 
L 3713 1100 
L 3047 1100 
L 3047 0 
L 2419 0 
L 2419 1100 
L 313 1100 
L 313 1709 
L 2253 4666 
z
" transform="scale(0.015625)"/>
       </defs>
       <use xlink:href="#DejaVuSans-34"/>
       <use xlink:href="#DejaVuSans-30" x="63.623047"/>
       <use xlink:href="#DejaVuSans-30" x="127.246094"/>
      </g>
     </g>
    </g>
    <g id="xtick_4">
     <g id="line2d_4">
      <path d="M 1283.2238 1845.504 
L 1283.2238 248.832 
" clip-path="url(#pf2b044c250)" style="fill: none; stroke: #cccccc; stroke-linecap: round"/>
     </g>
     <g id="text_4">
      <!-- 600 -->
      <g style="fill: #262626" transform="translate(1272.725675 1863.362281)scale(0.11 -0.11)">
       <defs>
        <path id="DejaVuSans-36" d="M 2113 2584 
Q 1688 2584 1439 2293 
Q 1191 2003 1191 1497 
Q 1191 994 1439 701 
Q 1688 409 2113 409 
Q 2538 409 2786 701 
Q 3034 994 3034 1497 
Q 3034 2003 2786 2293 
Q 2538 2584 2113 2584 
z
M 3366 4563 
L 3366 3988 
Q 3128 4100 2886 4159 
Q 2644 4219 2406 4219 
Q 1781 4219 1451 3797 
Q 1122 3375 1075 2522 
Q 1259 2794 1537 2939 
Q 1816 3084 2150 3084 
Q 2853 3084 3261 2657 
Q 3669 2231 3669 1497 
Q 3669 778 3244 343 
Q 2819 -91 2113 -91 
Q 1303 -91 875 529 
Q 447 1150 447 2328 
Q 447 3434 972 4092 
Q 1497 4750 2381 4750 
Q 2619 4750 2861 4703 
Q 3103 4656 3366 4563 
z
" transform="scale(0.015625)"/>
       </defs>
       <use xlink:href="#DejaVuSans-36"/>
       <use xlink:href="#DejaVuSans-30" x="63.623047"/>
       <use xlink:href="#DejaVuSans-30" x="127.246094"/>
      </g>
     </g>
    </g>
    <g id="xtick_5">
     <g id="line2d_5">
      <path d="M 1563.299612 1845.504 
L 1563.299612 248.832 
" clip-path="url(#pf2b044c250)" style="fill: none; stroke: #cccccc; stroke-linecap: round"/>
     </g>
     <g id="text_5">
      <!-- 800 -->
      <g style="fill: #262626" transform="translate(1552.801487 1863.362281)scale(0.11 -0.11)">
       <defs>
        <path id="DejaVuSans-38" d="M 2034 2216 
Q 1584 2216 1326 1975 
Q 1069 1734 1069 1313 
Q 1069 891 1326 650 
Q 1584 409 2034 409 
Q 2484 409 2743 651 
Q 3003 894 3003 1313 
Q 3003 1734 2745 1975 
Q 2488 2216 2034 2216 
z
M 1403 2484 
Q 997 2584 770 2862 
Q 544 3141 544 3541 
Q 544 4100 942 4425 
Q 1341 4750 2034 4750 
Q 2731 4750 3128 4425 
Q 3525 4100 3525 3541 
Q 3525 3141 3298 2862 
Q 3072 2584 2669 2484 
Q 3125 2378 3379 2068 
Q 3634 1759 3634 1313 
Q 3634 634 3220 271 
Q 2806 -91 2034 -91 
Q 1263 -91 848 271 
Q 434 634 434 1313 
Q 434 1759 690 2068 
Q 947 2378 1403 2484 
z
M 1172 3481 
Q 1172 3119 1398 2916 
Q 1625 2713 2034 2713 
Q 2441 2713 2670 2916 
Q 2900 3119 2900 3481 
Q 2900 3844 2670 4047 
Q 2441 4250 2034 4250 
Q 1625 4250 1398 4047 
Q 1172 3844 1172 3481 
z
" transform="scale(0.015625)"/>
       </defs>
       <use xlink:href="#DejaVuSans-38"/>
       <use xlink:href="#DejaVuSans-30" x="63.623047"/>
       <use xlink:href="#DejaVuSans-30" x="127.246094"/>
      </g>
     </g>
    </g>
    <g id="xtick_6">
     <g id="line2d_6">
      <path d="M 1843.375424 1845.504 
L 1843.375424 248.832 
" clip-path="url(#pf2b044c250)" style="fill: none; stroke: #cccccc; stroke-linecap: round"/>
     </g>
     <g id="text_6">
      <!-- 1000 -->
      <g style="fill: #262626" transform="translate(1829.377924 1863.362281)scale(0.11 -0.11)">
       <defs>
        <path id="DejaVuSans-31" d="M 794 531 
L 1825 531 
L 1825 4091 
L 703 3866 
L 703 4441 
L 1819 4666 
L 2450 4666 
L 2450 531 
L 3481 531 
L 3481 0 
L 794 0 
L 794 531 
z
" transform="scale(0.015625)"/>
       </defs>
       <use xlink:href="#DejaVuSans-31"/>
       <use xlink:href="#DejaVuSans-30" x="63.623047"/>
       <use xlink:href="#DejaVuSans-30" x="127.246094"/>
       <use xlink:href="#DejaVuSans-30" x="190.869141"/>
      </g>
     </g>
    </g>
    <g id="xtick_7">
     <g id="line2d_7">
      <path d="M 2123.451236 1845.504 
L 2123.451236 248.832 
" clip-path="url(#pf2b044c250)" style="fill: none; stroke: #cccccc; stroke-linecap: round"/>
     </g>
     <g id="text_7">
      <!-- 1200 -->
      <g style="fill: #262626" transform="translate(2109.453736 1863.362281)scale(0.11 -0.11)">
       <use xlink:href="#DejaVuSans-31"/>
       <use xlink:href="#DejaVuSans-32" x="63.623047"/>
       <use xlink:href="#DejaVuSans-30" x="127.246094"/>
       <use xlink:href="#DejaVuSans-30" x="190.869141"/>
      </g>
     </g>
    </g>
    <g id="xtick_8">
     <g id="line2d_8">
      <path d="M 2403.527048 1845.504 
L 2403.527048 248.832 
" clip-path="url(#pf2b044c250)" style="fill: none; stroke: #cccccc; stroke-linecap: round"/>
     </g>
     <g id="text_8">
      <!-- 1400 -->
      <g style="fill: #262626" transform="translate(2389.529548 1863.362281)scale(0.11 -0.11)">
       <use xlink:href="#DejaVuSans-31"/>
       <use xlink:href="#DejaVuSans-34" x="63.623047"/>
       <use xlink:href="#DejaVuSans-30" x="127.246094"/>
       <use xlink:href="#DejaVuSans-30" x="190.869141"/>
      </g>
     </g>
    </g>
    <g id="text_9">
     <!-- Discovery Time (Minutes) -->
     <g style="fill: #262626" transform="translate(1340.521875 1878.768062)scale(0.12 -0.12)">
      <defs>
       <path id="DejaVuSans-44" d="M 1259 4147 
L 1259 519 
L 2022 519 
Q 2988 519 3436 956 
Q 3884 1394 3884 2338 
Q 3884 3275 3436 3711 
Q 2988 4147 2022 4147 
L 1259 4147 
z
M 628 4666 
L 1925 4666 
Q 3281 4666 3915 4102 
Q 4550 3538 4550 2338 
Q 4550 1131 3912 565 
Q 3275 0 1925 0 
L 628 0 
L 628 4666 
z
" transform="scale(0.015625)"/>
       <path id="DejaVuSans-69" d="M 603 3500 
L 1178 3500 
L 1178 0 
L 603 0 
L 603 3500 
z
M 603 4863 
L 1178 4863 
L 1178 4134 
L 603 4134 
L 603 4863 
z
" transform="scale(0.015625)"/>
       <path id="DejaVuSans-73" d="M 2834 3397 
L 2834 2853 
Q 2591 2978 2328 3040 
Q 2066 3103 1784 3103 
Q 1356 3103 1142 2972 
Q 928 2841 928 2578 
Q 928 2378 1081 2264 
Q 1234 2150 1697 2047 
L 1894 2003 
Q 2506 1872 2764 1633 
Q 3022 1394 3022 966 
Q 3022 478 2636 193 
Q 2250 -91 1575 -91 
Q 1294 -91 989 -36 
Q 684 19 347 128 
L 347 722 
Q 666 556 975 473 
Q 1284 391 1588 391 
Q 1994 391 2212 530 
Q 2431 669 2431 922 
Q 2431 1156 2273 1281 
Q 2116 1406 1581 1522 
L 1381 1569 
Q 847 1681 609 1914 
Q 372 2147 372 2553 
Q 372 3047 722 3315 
Q 1072 3584 1716 3584 
Q 2034 3584 2315 3537 
Q 2597 3491 2834 3397 
z
" transform="scale(0.015625)"/>
       <path id="DejaVuSans-63" d="M 3122 3366 
L 3122 2828 
Q 2878 2963 2633 3030 
Q 2388 3097 2138 3097 
Q 1578 3097 1268 2742 
Q 959 2388 959 1747 
Q 959 1106 1268 751 
Q 1578 397 2138 397 
Q 2388 397 2633 464 
Q 2878 531 3122 666 
L 3122 134 
Q 2881 22 2623 -34 
Q 2366 -91 2075 -91 
Q 1284 -91 818 406 
Q 353 903 353 1747 
Q 353 2603 823 3093 
Q 1294 3584 2113 3584 
Q 2378 3584 2631 3529 
Q 2884 3475 3122 3366 
z
" transform="scale(0.015625)"/>
       <path id="DejaVuSans-6f" d="M 1959 3097 
Q 1497 3097 1228 2736 
Q 959 2375 959 1747 
Q 959 1119 1226 758 
Q 1494 397 1959 397 
Q 2419 397 2687 759 
Q 2956 1122 2956 1747 
Q 2956 2369 2687 2733 
Q 2419 3097 1959 3097 
z
M 1959 3584 
Q 2709 3584 3137 3096 
Q 3566 2609 3566 1747 
Q 3566 888 3137 398 
Q 2709 -91 1959 -91 
Q 1206 -91 779 398 
Q 353 888 353 1747 
Q 353 2609 779 3096 
Q 1206 3584 1959 3584 
z
" transform="scale(0.015625)"/>
       <path id="DejaVuSans-76" d="M 191 3500 
L 800 3500 
L 1894 563 
L 2988 3500 
L 3597 3500 
L 2284 0 
L 1503 0 
L 191 3500 
z
" transform="scale(0.015625)"/>
       <path id="DejaVuSans-65" d="M 3597 1894 
L 3597 1613 
L 953 1613 
Q 991 1019 1311 708 
Q 1631 397 2203 397 
Q 2534 397 2845 478 
Q 3156 559 3463 722 
L 3463 178 
Q 3153 47 2828 -22 
Q 2503 -91 2169 -91 
Q 1331 -91 842 396 
Q 353 884 353 1716 
Q 353 2575 817 3079 
Q 1281 3584 2069 3584 
Q 2775 3584 3186 3129 
Q 3597 2675 3597 1894 
z
M 3022 2063 
Q 3016 2534 2758 2815 
Q 2500 3097 2075 3097 
Q 1594 3097 1305 2825 
Q 1016 2553 972 2059 
L 3022 2063 
z
" transform="scale(0.015625)"/>
       <path id="DejaVuSans-72" d="M 2631 2963 
Q 2534 3019 2420 3045 
Q 2306 3072 2169 3072 
Q 1681 3072 1420 2755 
Q 1159 2438 1159 1844 
L 1159 0 
L 581 0 
L 581 3500 
L 1159 3500 
L 1159 2956 
Q 1341 3275 1631 3429 
Q 1922 3584 2338 3584 
Q 2397 3584 2469 3576 
Q 2541 3569 2628 3553 
L 2631 2963 
z
" transform="scale(0.015625)"/>
       <path id="DejaVuSans-79" d="M 2059 -325 
Q 1816 -950 1584 -1140 
Q 1353 -1331 966 -1331 
L 506 -1331 
L 506 -850 
L 844 -850 
Q 1081 -850 1212 -737 
Q 1344 -625 1503 -206 
L 1606 56 
L 191 3500 
L 800 3500 
L 1894 763 
L 2988 3500 
L 3597 3500 
L 2059 -325 
z
" transform="scale(0.015625)"/>
       <path id="DejaVuSans-20" transform="scale(0.015625)"/>
       <path id="DejaVuSans-54" d="M -19 4666 
L 3928 4666 
L 3928 4134 
L 2272 4134 
L 2272 0 
L 1638 0 
L 1638 4134 
L -19 4134 
L -19 4666 
z
" transform="scale(0.015625)"/>
       <path id="DejaVuSans-6d" d="M 3328 2828 
Q 3544 3216 3844 3400 
Q 4144 3584 4550 3584 
Q 5097 3584 5394 3201 
Q 5691 2819 5691 2113 
L 5691 0 
L 5113 0 
L 5113 2094 
Q 5113 2597 4934 2840 
Q 4756 3084 4391 3084 
Q 3944 3084 3684 2787 
Q 3425 2491 3425 1978 
L 3425 0 
L 2847 0 
L 2847 2094 
Q 2847 2600 2669 2842 
Q 2491 3084 2119 3084 
Q 1678 3084 1418 2786 
Q 1159 2488 1159 1978 
L 1159 0 
L 581 0 
L 581 3500 
L 1159 3500 
L 1159 2956 
Q 1356 3278 1631 3431 
Q 1906 3584 2284 3584 
Q 2666 3584 2933 3390 
Q 3200 3197 3328 2828 
z
" transform="scale(0.015625)"/>
       <path id="DejaVuSans-28" d="M 1984 4856 
Q 1566 4138 1362 3434 
Q 1159 2731 1159 2009 
Q 1159 1288 1364 580 
Q 1569 -128 1984 -844 
L 1484 -844 
Q 1016 -109 783 600 
Q 550 1309 550 2009 
Q 550 2706 781 3412 
Q 1013 4119 1484 4856 
L 1984 4856 
z
" transform="scale(0.015625)"/>
       <path id="DejaVuSans-4d" d="M 628 4666 
L 1569 4666 
L 2759 1491 
L 3956 4666 
L 4897 4666 
L 4897 0 
L 4281 0 
L 4281 4097 
L 3078 897 
L 2444 897 
L 1241 4097 
L 1241 0 
L 628 0 
L 628 4666 
z
" transform="scale(0.015625)"/>
       <path id="DejaVuSans-6e" d="M 3513 2113 
L 3513 0 
L 2938 0 
L 2938 2094 
Q 2938 2591 2744 2837 
Q 2550 3084 2163 3084 
Q 1697 3084 1428 2787 
Q 1159 2491 1159 1978 
L 1159 0 
L 581 0 
L 581 3500 
L 1159 3500 
L 1159 2956 
Q 1366 3272 1645 3428 
Q 1925 3584 2291 3584 
Q 2894 3584 3203 3211 
Q 3513 2838 3513 2113 
z
" transform="scale(0.015625)"/>
       <path id="DejaVuSans-75" d="M 544 1381 
L 544 3500 
L 1119 3500 
L 1119 1403 
Q 1119 906 1312 657 
Q 1506 409 1894 409 
Q 2359 409 2629 706 
Q 2900 1003 2900 1516 
L 2900 3500 
L 3475 3500 
L 3475 0 
L 2900 0 
L 2900 538 
Q 2691 219 2414 64 
Q 2138 -91 1772 -91 
Q 1169 -91 856 284 
Q 544 659 544 1381 
z
M 1991 3584 
L 1991 3584 
z
" transform="scale(0.015625)"/>
       <path id="DejaVuSans-74" d="M 1172 4494 
L 1172 3500 
L 2356 3500 
L 2356 3053 
L 1172 3053 
L 1172 1153 
Q 1172 725 1289 603 
Q 1406 481 1766 481 
L 2356 481 
L 2356 0 
L 1766 0 
Q 1100 0 847 248 
Q 594 497 594 1153 
L 594 3053 
L 172 3053 
L 172 3500 
L 594 3500 
L 594 4494 
L 1172 4494 
z
" transform="scale(0.015625)"/>
       <path id="DejaVuSans-29" d="M 513 4856 
L 1013 4856 
Q 1481 4119 1714 3412 
Q 1947 2706 1947 2009 
Q 1947 1309 1714 600 
Q 1481 -109 1013 -844 
L 513 -844 
Q 928 -128 1133 580 
Q 1338 1288 1338 2009 
Q 1338 2731 1133 3434 
Q 928 4138 513 4856 
z
" transform="scale(0.015625)"/>
      </defs>
      <use xlink:href="#DejaVuSans-44"/>
      <use xlink:href="#DejaVuSans-69" x="77.001953"/>
      <use xlink:href="#DejaVuSans-73" x="104.785156"/>
      <use xlink:href="#DejaVuSans-63" x="156.884766"/>
      <use xlink:href="#DejaVuSans-6f" x="211.865234"/>
      <use xlink:href="#DejaVuSans-76" x="273.046875"/>
      <use xlink:href="#DejaVuSans-65" x="332.226562"/>
      <use xlink:href="#DejaVuSans-72" x="393.75"/>
      <use xlink:href="#DejaVuSans-79" x="434.863281"/>
      <use xlink:href="#DejaVuSans-20" x="494.042969"/>
      <use xlink:href="#DejaVuSans-54" x="525.830078"/>
      <use xlink:href="#DejaVuSans-69" x="583.789062"/>
      <use xlink:href="#DejaVuSans-6d" x="611.572266"/>
      <use xlink:href="#DejaVuSans-65" x="708.984375"/>
      <use xlink:href="#DejaVuSans-20" x="770.507812"/>
      <use xlink:href="#DejaVuSans-28" x="802.294922"/>
      <use xlink:href="#DejaVuSans-4d" x="841.308594"/>
      <use xlink:href="#DejaVuSans-69" x="927.587891"/>
      <use xlink:href="#DejaVuSans-6e" x="955.371094"/>
      <use xlink:href="#DejaVuSans-75" x="1018.75"/>
      <use xlink:href="#DejaVuSans-74" x="1082.128906"/>
      <use xlink:href="#DejaVuSans-65" x="1121.337891"/>
      <use xlink:href="#DejaVuSans-73" x="1182.861328"/>
      <use xlink:href="#DejaVuSans-29" x="1234.960938"/>
     </g>
    </g>
   </g>
   <g id="matplotlib.axis_2">
    <g id="ytick_1">
     <g id="line2d_9">
      <path d="M 345.6 1772.928 
L 2488.32 1772.928 
" clip-path="url(#pf2b044c250)" style="fill: none; stroke: #cccccc; stroke-linecap: round"/>
     </g>
     <g id="text_10">
      <!-- 0 -->
      <g style="fill: #262626" transform="translate(329.10125 1777.107141)scale(0.11 -0.11)">
       <use xlink:href="#DejaVuSans-30"/>
      </g>
     </g>
    </g>
    <g id="ytick_2">
     <g id="line2d_10">
      <path d="M 345.6 1488.873205 
L 2488.32 1488.873205 
" clip-path="url(#pf2b044c250)" style="fill: none; stroke: #cccccc; stroke-linecap: round"/>
     </g>
     <g id="text_11">
      <!-- 100 -->
      <g style="fill: #262626" transform="translate(315.10375 1493.052346)scale(0.11 -0.11)">
       <use xlink:href="#DejaVuSans-31"/>
       <use xlink:href="#DejaVuSans-30" x="63.623047"/>
       <use xlink:href="#DejaVuSans-30" x="127.246094"/>
      </g>
     </g>
    </g>
    <g id="ytick_3">
     <g id="line2d_11">
      <path d="M 345.6 1204.818411 
L 2488.32 1204.818411 
" clip-path="url(#pf2b044c250)" style="fill: none; stroke: #cccccc; stroke-linecap: round"/>
     </g>
     <g id="text_12">
      <!-- 200 -->
      <g style="fill: #262626" transform="translate(315.10375 1208.997552)scale(0.11 -0.11)">
       <use xlink:href="#DejaVuSans-32"/>
       <use xlink:href="#DejaVuSans-30" x="63.623047"/>
       <use xlink:href="#DejaVuSans-30" x="127.246094"/>
      </g>
     </g>
    </g>
    <g id="ytick_4">
     <g id="line2d_12">
      <path d="M 345.6 920.763616 
L 2488.32 920.763616 
" clip-path="url(#pf2b044c250)" style="fill: none; stroke: #cccccc; stroke-linecap: round"/>
     </g>
     <g id="text_13">
      <!-- 300 -->
      <g style="fill: #262626" transform="translate(315.10375 924.942757)scale(0.11 -0.11)">
       <defs>
        <path id="DejaVuSans-33" d="M 2597 2516 
Q 3050 2419 3304 2112 
Q 3559 1806 3559 1356 
Q 3559 666 3084 287 
Q 2609 -91 1734 -91 
Q 1441 -91 1130 -33 
Q 819 25 488 141 
L 488 750 
Q 750 597 1062 519 
Q 1375 441 1716 441 
Q 2309 441 2620 675 
Q 2931 909 2931 1356 
Q 2931 1769 2642 2001 
Q 2353 2234 1838 2234 
L 1294 2234 
L 1294 2753 
L 1863 2753 
Q 2328 2753 2575 2939 
Q 2822 3125 2822 3475 
Q 2822 3834 2567 4026 
Q 2313 4219 1838 4219 
Q 1578 4219 1281 4162 
Q 984 4106 628 3988 
L 628 4550 
Q 988 4650 1302 4700 
Q 1616 4750 1894 4750 
Q 2613 4750 3031 4423 
Q 3450 4097 3450 3541 
Q 3450 3153 3228 2886 
Q 3006 2619 2597 2516 
z
" transform="scale(0.015625)"/>
       </defs>
       <use xlink:href="#DejaVuSans-33"/>
       <use xlink:href="#DejaVuSans-30" x="63.623047"/>
       <use xlink:href="#DejaVuSans-30" x="127.246094"/>
      </g>
     </g>
    </g>
    <g id="ytick_5">
     <g id="line2d_13">
      <path d="M 345.6 636.708822 
L 2488.32 636.708822 
" clip-path="url(#pf2b044c250)" style="fill: none; stroke: #cccccc; stroke-linecap: round"/>
     </g>
     <g id="text_14">
      <!-- 400 -->
      <g style="fill: #262626" transform="translate(315.10375 640.887963)scale(0.11 -0.11)">
       <use xlink:href="#DejaVuSans-34"/>
       <use xlink:href="#DejaVuSans-30" x="63.623047"/>
       <use xlink:href="#DejaVuSans-30" x="127.246094"/>
      </g>
     </g>
    </g>
    <g id="ytick_6">
     <g id="line2d_14">
      <path d="M 345.6 352.654027 
L 2488.32 352.654027 
" clip-path="url(#pf2b044c250)" style="fill: none; stroke: #cccccc; stroke-linecap: round"/>
     </g>
     <g id="text_15">
      <!-- 500 -->
      <g style="fill: #262626" transform="translate(315.10375 356.833168)scale(0.11 -0.11)">
       <defs>
        <path id="DejaVuSans-35" d="M 691 4666 
L 3169 4666 
L 3169 4134 
L 1269 4134 
L 1269 2991 
Q 1406 3038 1543 3061 
Q 1681 3084 1819 3084 
Q 2600 3084 3056 2656 
Q 3513 2228 3513 1497 
Q 3513 744 3044 326 
Q 2575 -91 1722 -91 
Q 1428 -91 1123 -41 
Q 819 9 494 109 
L 494 744 
Q 775 591 1075 516 
Q 1375 441 1709 441 
Q 2250 441 2565 725 
Q 2881 1009 2881 1497 
Q 2881 1984 2565 2268 
Q 2250 2553 1709 2553 
Q 1456 2553 1204 2497 
Q 953 2441 691 2322 
L 691 4666 
z
" transform="scale(0.015625)"/>
       </defs>
       <use xlink:href="#DejaVuSans-35"/>
       <use xlink:href="#DejaVuSans-30" x="63.623047"/>
       <use xlink:href="#DejaVuSans-30" x="127.246094"/>
      </g>
     </g>
    </g>
    <g id="text_16">
     <!-- Bug Count -->
     <g style="fill: #262626" transform="translate(308.608125 1078.621125)rotate(-90)scale(0.12 -0.12)">
      <defs>
       <path id="DejaVuSans-42" d="M 1259 2228 
L 1259 519 
L 2272 519 
Q 2781 519 3026 730 
Q 3272 941 3272 1375 
Q 3272 1813 3026 2020 
Q 2781 2228 2272 2228 
L 1259 2228 
z
M 1259 4147 
L 1259 2741 
L 2194 2741 
Q 2656 2741 2882 2914 
Q 3109 3088 3109 3444 
Q 3109 3797 2882 3972 
Q 2656 4147 2194 4147 
L 1259 4147 
z
M 628 4666 
L 2241 4666 
Q 2963 4666 3353 4366 
Q 3744 4066 3744 3513 
Q 3744 3084 3544 2831 
Q 3344 2578 2956 2516 
Q 3422 2416 3680 2098 
Q 3938 1781 3938 1306 
Q 3938 681 3513 340 
Q 3088 0 2303 0 
L 628 0 
L 628 4666 
z
" transform="scale(0.015625)"/>
       <path id="DejaVuSans-67" d="M 2906 1791 
Q 2906 2416 2648 2759 
Q 2391 3103 1925 3103 
Q 1463 3103 1205 2759 
Q 947 2416 947 1791 
Q 947 1169 1205 825 
Q 1463 481 1925 481 
Q 2391 481 2648 825 
Q 2906 1169 2906 1791 
z
M 3481 434 
Q 3481 -459 3084 -895 
Q 2688 -1331 1869 -1331 
Q 1566 -1331 1297 -1286 
Q 1028 -1241 775 -1147 
L 775 -588 
Q 1028 -725 1275 -790 
Q 1522 -856 1778 -856 
Q 2344 -856 2625 -561 
Q 2906 -266 2906 331 
L 2906 616 
Q 2728 306 2450 153 
Q 2172 0 1784 0 
Q 1141 0 747 490 
Q 353 981 353 1791 
Q 353 2603 747 3093 
Q 1141 3584 1784 3584 
Q 2172 3584 2450 3431 
Q 2728 3278 2906 2969 
L 2906 3500 
L 3481 3500 
L 3481 434 
z
" transform="scale(0.015625)"/>
       <path id="DejaVuSans-43" d="M 4122 4306 
L 4122 3641 
Q 3803 3938 3442 4084 
Q 3081 4231 2675 4231 
Q 1875 4231 1450 3742 
Q 1025 3253 1025 2328 
Q 1025 1406 1450 917 
Q 1875 428 2675 428 
Q 3081 428 3442 575 
Q 3803 722 4122 1019 
L 4122 359 
Q 3791 134 3420 21 
Q 3050 -91 2638 -91 
Q 1578 -91 968 557 
Q 359 1206 359 2328 
Q 359 3453 968 4101 
Q 1578 4750 2638 4750 
Q 3056 4750 3426 4639 
Q 3797 4528 4122 4306 
z
" transform="scale(0.015625)"/>
      </defs>
      <use xlink:href="#DejaVuSans-42"/>
      <use xlink:href="#DejaVuSans-75" x="68.603516"/>
      <use xlink:href="#DejaVuSans-67" x="131.982422"/>
      <use xlink:href="#DejaVuSans-20" x="195.458984"/>
      <use xlink:href="#DejaVuSans-43" x="227.246094"/>
      <use xlink:href="#DejaVuSans-6f" x="297.070312"/>
      <use xlink:href="#DejaVuSans-75" x="358.251953"/>
      <use xlink:href="#DejaVuSans-6e" x="421.630859"/>
      <use xlink:href="#DejaVuSans-74" x="485.009766"/>
     </g>
    </g>
   </g>
   <g id="PolyCollection_1">
    <path d="M 529.819865 1686.859397 
L 529.819865 1709.642012 
L 531.220244 1607.466082 
L 532.620623 1570.538959 
L 534.021003 1554.205808 
L 535.421382 1542.133479 
L 536.821761 1517.278685 
L 538.22214 1478.012287 
L 539.622519 1443.424438 
L 541.022898 1418.892433 
L 542.423277 1387.244712 
L 543.823656 1316.926948 
L 545.224035 1233.460603 
L 546.624414 1204.108274 
L 548.024793 1183.514301 
L 548.024793 1175.927671 
L 548.024793 1175.927671 
L 546.624414 1194.876493 
L 545.224035 1222.571836 
L 543.823656 1297.546521 
L 542.423277 1377.460603 
L 541.022898 1409.079631 
L 539.622519 1435.71438 
L 538.22214 1466.483004 
L 536.821761 1507.336767 
L 535.421382 1533.611836 
L 534.021003 1552.075397 
L 532.620623 1562.727452 
L 531.220244 1592.83726 
L 529.819865 1686.859397 
z
" clip-path="url(#pf2b044c250)" style="fill: #4c72b0; fill-opacity: 0.2; stroke: #4c72b0; stroke-opacity: 0.2"/>
    <path d="M 550.825551 1159.369644 
L 550.825551 1167.181151 
L 552.22593 1153.688548 
L 552.22593 1153.688548 
L 552.22593 1153.688548 
L 550.825551 1159.369644 
z
" clip-path="url(#pf2b044c250)" style="fill: #4c72b0; fill-opacity: 0.2; stroke: #4c72b0; stroke-opacity: 0.2"/>
    <path d="M 555.026688 1133.449644 
L 555.026688 1141.616219 
L 569.030479 1122.442521 
L 570.430858 1116.761425 
L 573.231616 1111.080329 
L 574.631995 1105.399233 
L 574.631995 1105.399233 
L 574.631995 1105.399233 
L 573.231616 1111.080329 
L 570.430858 1116.761425 
L 569.030479 1122.442521 
L 555.026688 1133.449644 
z
" clip-path="url(#pf2b044c250)" style="fill: #4c72b0; fill-opacity: 0.2; stroke: #4c72b0; stroke-opacity: 0.2"/>
    <path d="M 583.03427 1094.037041 
L 583.03427 1094.037041 
L 585.835028 1088.355945 
L 590.036165 1082.674849 
L 595.637681 1076.993753 
L 602.639576 1065.631562 
L 602.639576 1065.631562 
L 602.639576 1065.631562 
L 595.637681 1071.312658 
L 590.036165 1082.674849 
L 585.835028 1088.355945 
L 583.03427 1094.037041 
z
" clip-path="url(#pf2b044c250)" style="fill: #4c72b0; fill-opacity: 0.2; stroke: #4c72b0; stroke-opacity: 0.2"/>
    <path d="M 702.06649 1050.292603 
L 702.06649 1055.973699 
L 728.673692 1042.907178 
L 738.476345 1037.226082 
L 751.079757 1031.544986 
L 753.880515 1025.86389 
L 760.88241 1020.182795 
L 763.683168 1014.501699 
L 793.091129 1008.820603 
L 801.493403 1003.139507 
L 801.493403 1003.139507 
L 801.493403 1003.139507 
L 793.091129 1008.820603 
L 763.683168 1014.501699 
L 760.88241 1020.182795 
L 753.880515 1025.86389 
L 751.079757 1031.544986 
L 738.476345 1037.226082 
L 728.673692 1042.907178 
L 702.06649 1050.292603 
z
" clip-path="url(#pf2b044c250)" style="fill: #4c72b0; fill-opacity: 0.2; stroke: #4c72b0; stroke-opacity: 0.2"/>
    <path d="M 808.495298 994.617863 
L 808.495298 994.617863 
L 812.696436 988.936767 
L 819.698331 983.255671 
L 826.700226 977.574575 
L 828.100605 971.893479 
L 837.903259 966.212384 
L 837.903259 966.212384 
L 837.903259 966.212384 
L 828.100605 971.893479 
L 826.700226 977.574575 
L 819.698331 983.255671 
L 812.696436 988.936767 
L 808.495298 994.617863 
z
" clip-path="url(#pf2b044c250)" style="fill: #4c72b0; fill-opacity: 0.2; stroke: #4c72b0; stroke-opacity: 0.2"/>
    <path d="M 965.337753 957.69074 
L 965.337753 957.69074 
L 972.339648 952.009644 
L 1010.149883 946.328548 
L 1046.559739 940.647452 
L 1096.973385 934.966356 
L 1098.373764 929.28526 
L 1175.394612 923.604164 
L 1193.59954 917.923068 
L 1221.607121 912.241973 
L 1238.41167 906.560877 
L 1252.41546 900.879781 
L 1253.815839 895.198685 
L 1266.419251 889.517589 
L 1269.220009 883.836493 
L 1288.825316 872.474301 
L 1288.825316 872.474301 
L 1288.825316 872.474301 
L 1269.220009 878.155397 
L 1266.419251 889.517589 
L 1253.815839 895.198685 
L 1252.41546 900.879781 
L 1238.41167 906.560877 
L 1221.607121 912.241973 
L 1193.59954 917.923068 
L 1175.394612 923.604164 
L 1098.373764 929.28526 
L 1096.973385 934.966356 
L 1046.559739 940.647452 
L 1010.149883 946.328548 
L 972.339648 952.009644 
L 965.337753 957.69074 
z
" clip-path="url(#pf2b044c250)" style="fill: #4c72b0; fill-opacity: 0.2; stroke: #4c72b0; stroke-opacity: 0.2"/>
    <path d="M 1389.652608 863.952658 
L 1389.652608 863.952658 
L 1413.459052 858.271562 
L 1447.06815 852.590466 
L 1482.077626 846.90937 
L 1533.891652 841.228274 
L 1606.711363 835.547178 
L 1606.711363 835.547178 
L 1606.711363 835.547178 
L 1533.891652 841.228274 
L 1482.077626 846.90937 
L 1447.06815 852.590466 
L 1413.459052 858.271562 
L 1389.652608 863.952658 
z
" clip-path="url(#pf2b044c250)" style="fill: #4c72b0; fill-opacity: 0.2; stroke: #4c72b0; stroke-opacity: 0.2"/>
    <path d="M 2281.69407 815.663342 
L 2281.69407 821.344438 
L 2390.923636 809.982247 
L 2390.923636 809.982247 
L 2390.923636 809.982247 
L 2281.69407 815.663342 
z
" clip-path="url(#pf2b044c250)" style="fill: #4c72b0; fill-opacity: 0.2; stroke: #4c72b0; stroke-opacity: 0.2"/>
   </g>
   <g id="PolyCollection_2">
    <path d="M 531.220244 1767.246904 
L 531.220244 1767.246904 
L 532.620623 1738.841425 
L 532.620623 1738.841425 
L 532.620623 1738.841425 
L 531.220244 1767.246904 
z
" clip-path="url(#pf2b044c250)" style="fill: #dd8452; fill-opacity: 0.2; stroke: #dd8452; stroke-opacity: 0.2"/>
    <path d="M 535.421382 1724.638685 
L 535.421382 1724.638685 
L 536.821761 1718.957589 
L 539.622519 1678.621808 
L 541.022898 1616.697863 
L 545.224035 1577.949746 
L 546.624414 1489.847108 
L 553.626309 1411.231562 
L 553.626309 1404.603616 
L 553.626309 1404.603616 
L 546.624414 1470.933116 
L 545.224035 1562.118763 
L 541.022898 1615.480485 
L 539.622519 1662.141896 
L 536.821761 1718.957589 
L 535.421382 1724.638685 
z
" clip-path="url(#pf2b044c250)" style="fill: #dd8452; fill-opacity: 0.2; stroke: #dd8452; stroke-opacity: 0.2"/>
    <path d="M 559.227826 1383.772932 
L 559.227826 1390.590247 
L 560.628205 1378.091836 
L 569.030479 1372.41074 
L 583.03427 1347.792658 
L 590.036165 1301.913504 
L 595.637681 1278.672658 
L 597.03806 1236.839133 
L 598.438439 1201.031014 
L 604.039956 1187.775123 
L 606.840714 1182.094027 
L 613.842609 1170.731836 
L 632.047537 1165.05074 
L 633.447916 1151.794849 
L 636.248674 1136.64526 
L 637.649053 1120.170082 
L 653.053223 1102.558685 
L 655.853981 1084.80526 
L 661.455497 1068.47211 
L 668.457392 1051.428822 
L 671.25815 1045.747726 
L 674.058909 1040.06663 
L 685.261941 1014.975123 
L 690.863457 994.617863 
L 692.263836 983.255671 
L 693.664215 977.574575 
L 695.064594 971.893479 
L 696.464974 966.212384 
L 697.865353 960.531288 
L 699.265732 954.850192 
L 716.07028 949.169096 
L 718.871038 939.700603 
L 720.271418 922.657315 
L 730.074071 909.401425 
L 731.47445 903.720329 
L 735.675587 842.88526 
L 737.075966 737.548274 
L 742.677483 686.702466 
L 744.077862 654.157902 
L 744.077862 642.389918 
L 744.077862 642.389918 
L 742.677483 675.908384 
L 737.075966 722.161973 
L 735.675587 819.924164 
L 731.47445 903.720329 
L 730.074071 909.401425 
L 720.271418 915.082521 
L 718.871038 932.125808 
L 716.07028 949.169096 
L 699.265732 954.850192 
L 697.865353 960.531288 
L 696.464974 966.212384 
L 695.064594 971.893479 
L 693.664215 977.574575 
L 692.263836 983.255671 
L 690.863457 988.936767 
L 685.261941 1005.980055 
L 674.058909 1034.385534 
L 671.25815 1045.747726 
L 668.457392 1051.428822 
L 661.455497 1062.791014 
L 655.853981 1078.414027 
L 653.053223 1096.877589 
L 637.649053 1109.94411 
L 636.248674 1136.64526 
L 633.447916 1144.220055 
L 632.047537 1159.369644 
L 613.842609 1170.731836 
L 606.840714 1176.412932 
L 604.039956 1187.775123 
L 598.438439 1193.456219 
L 597.03806 1225.21871 
L 595.637681 1274.88526 
L 590.036165 1293.650092 
L 583.03427 1335.483616 
L 569.030479 1372.41074 
L 560.628205 1378.091836 
L 559.227826 1383.772932 
z
" clip-path="url(#pf2b044c250)" style="fill: #dd8452; fill-opacity: 0.2; stroke: #dd8452; stroke-opacity: 0.2"/>
    <path d="M 753.880515 622.506082 
L 753.880515 622.506082 
L 781.888096 616.824986 
L 786.089233 611.14389 
L 800.093024 605.462795 
L 825.299847 594.100603 
L 829.500984 588.419507 
L 839.303638 582.738411 
L 858.908945 577.057315 
L 863.110082 571.376219 
L 881.315009 565.695123 
L 892.518042 560.014027 
L 905.121453 548.651836 
L 906.521833 542.97074 
L 917.724865 537.289644 
L 923.326381 531.608548 
L 947.132825 525.927452 
L 1001.747609 520.246356 
L 1022.753295 514.56526 
L 1022.753295 514.56526 
L 1022.753295 514.56526 
L 1001.747609 520.246356 
L 947.132825 525.927452 
L 923.326381 531.608548 
L 917.724865 537.289644 
L 906.521833 542.97074 
L 905.121453 548.651836 
L 892.518042 554.332932 
L 881.315009 565.695123 
L 863.110082 571.376219 
L 858.908945 577.057315 
L 839.303638 582.738411 
L 829.500984 588.419507 
L 825.299847 594.100603 
L 800.093024 599.781699 
L 786.089233 611.14389 
L 781.888096 616.824986 
L 753.880515 622.506082 
z
" clip-path="url(#pf2b044c250)" style="fill: #dd8452; fill-opacity: 0.2; stroke: #dd8452; stroke-opacity: 0.2"/>
    <path d="M 1033.956327 506.043616 
L 1033.956327 506.043616 
L 1033.956327 506.043616 
L 1033.956327 506.043616 
z
" clip-path="url(#pf2b044c250)" style="fill: #dd8452; fill-opacity: 0.2; stroke: #dd8452; stroke-opacity: 0.2"/>
    <path d="M 1040.958222 497.521973 
L 1040.958222 497.521973 
L 1067.565424 491.840877 
L 1075.967699 480.478685 
L 1095.573006 474.797589 
L 1098.373764 469.116493 
L 1115.178313 463.435397 
L 1122.180208 457.754301 
L 1124.980966 452.073205 
L 1124.980966 452.073205 
L 1124.980966 452.073205 
L 1122.180208 457.754301 
L 1115.178313 463.435397 
L 1098.373764 469.116493 
L 1095.573006 474.797589 
L 1075.967699 480.478685 
L 1067.565424 486.159781 
L 1040.958222 497.521973 
z
" clip-path="url(#pf2b044c250)" style="fill: #dd8452; fill-opacity: 0.2; stroke: #dd8452; stroke-opacity: 0.2"/>
    <path d="M 1176.794991 440.711014 
L 1176.794991 440.711014 
L 1193.59954 435.029918 
L 1199.201056 429.348822 
L 1199.201056 429.348822 
L 1199.201056 429.348822 
L 1193.59954 435.029918 
L 1176.794991 440.711014 
z
" clip-path="url(#pf2b044c250)" style="fill: #dd8452; fill-opacity: 0.2; stroke: #dd8452; stroke-opacity: 0.2"/>
    <path d="M 1228.609016 417.98663 
L 1228.609016 417.98663 
L 1228.609016 417.98663 
L 1228.609016 417.98663 
z
" clip-path="url(#pf2b044c250)" style="fill: #dd8452; fill-opacity: 0.2; stroke: #dd8452; stroke-opacity: 0.2"/>
    <path d="M 1339.238962 406.624438 
L 1339.238962 406.624438 
L 1339.238962 406.624438 
L 1339.238962 406.624438 
z
" clip-path="url(#pf2b044c250)" style="fill: #dd8452; fill-opacity: 0.2; stroke: #dd8452; stroke-opacity: 0.2"/>
    <path d="M 1358.844269 398.102795 
L 1358.844269 398.102795 
L 1358.844269 398.102795 
L 1358.844269 398.102795 
z
" clip-path="url(#pf2b044c250)" style="fill: #dd8452; fill-opacity: 0.2; stroke: #dd8452; stroke-opacity: 0.2"/>
    <path d="M 1386.85185 389.581151 
L 1386.85185 389.581151 
L 1470.874594 383.900055 
L 1479.276868 378.218959 
L 1479.276868 378.218959 
L 1479.276868 378.218959 
L 1470.874594 383.900055 
L 1386.85185 389.581151 
z
" clip-path="url(#pf2b044c250)" style="fill: #dd8452; fill-opacity: 0.2; stroke: #dd8452; stroke-opacity: 0.2"/>
    <path d="M 1619.314774 369.697315 
L 1619.314774 369.697315 
L 1643.121218 364.016219 
L 1711.739792 358.335123 
L 1767.754955 352.654027 
L 1767.754955 352.654027 
L 1767.754955 352.654027 
L 1711.739792 358.335123 
L 1643.121218 364.016219 
L 1619.314774 369.697315 
z
" clip-path="url(#pf2b044c250)" style="fill: #dd8452; fill-opacity: 0.2; stroke: #dd8452; stroke-opacity: 0.2"/>
    <path d="M 1833.57277 344.132384 
L 1833.57277 344.132384 
L 1846.176182 338.451288 
L 1865.781489 332.770192 
L 1947.003474 327.089096 
L 2043.629629 321.408 
L 2043.629629 321.408 
L 2043.629629 321.408 
L 1947.003474 327.089096 
L 1865.781489 332.770192 
L 1846.176182 338.451288 
L 1833.57277 344.132384 
z
" clip-path="url(#pf2b044c250)" style="fill: #dd8452; fill-opacity: 0.2; stroke: #dd8452; stroke-opacity: 0.2"/>
   </g>
   <g id="PolyCollection_3">
    <path d="M 536.821761 1753.675397 
L 536.821761 1763.151781 
L 538.22214 1744.522521 
L 538.22214 1741.681973 
L 538.22214 1741.681973 
L 536.821761 1753.675397 
z
" clip-path="url(#pf2b044c250)" style="fill: #55a868; fill-opacity: 0.2; stroke: #55a868; stroke-opacity: 0.2"/>
    <path d="M 546.624414 1723.015515 
L 546.624414 1731.131366 
L 548.024793 1562.538483 
L 560.628205 1380.932384 
L 562.028584 1372.41074 
L 563.428963 1366.729644 
L 564.829342 1361.048548 
L 566.229721 1353.095014 
L 566.229721 1346.277699 
L 566.229721 1346.277699 
L 564.829342 1358.208 
L 563.428963 1363.889096 
L 562.028584 1369.570192 
L 560.628205 1375.251288 
L 548.024793 1526.088596 
L 546.624414 1723.015515 
z
" clip-path="url(#pf2b044c250)" style="fill: #55a868; fill-opacity: 0.2; stroke: #55a868; stroke-opacity: 0.2"/>
    <path d="M 569.030479 1331.222795 
L 569.030479 1336.90389 
L 570.430858 1324.689534 
L 571.831237 1312.759233 
L 573.231616 1307.078137 
L 573.231616 1301.397041 
L 573.231616 1301.397041 
L 571.831237 1309.918685 
L 570.430858 1317.872219 
L 569.030479 1331.222795 
z
" clip-path="url(#pf2b044c250)" style="fill: #55a868; fill-opacity: 0.2; stroke: #55a868; stroke-opacity: 0.2"/>
    <path d="M 577.432753 1287.194301 
L 577.432753 1292.875397 
L 577.432753 1287.194301 
L 577.432753 1287.194301 
z
" clip-path="url(#pf2b044c250)" style="fill: #55a868; fill-opacity: 0.2; stroke: #55a868; stroke-opacity: 0.2"/>
    <path d="M 623.645262 1272.991562 
L 623.645262 1278.672658 
L 623.645262 1272.991562 
L 623.645262 1272.991562 
z
" clip-path="url(#pf2b044c250)" style="fill: #55a868; fill-opacity: 0.2; stroke: #55a868; stroke-opacity: 0.2"/>
    <path d="M 627.8464 1264.469918 
L 627.8464 1267.310466 
L 627.8464 1264.469918 
L 627.8464 1264.469918 
z
" clip-path="url(#pf2b044c250)" style="fill: #55a868; fill-opacity: 0.2; stroke: #55a868; stroke-opacity: 0.2"/>
    <path d="M 632.047537 1253.107726 
L 632.047537 1258.788822 
L 633.447916 1246.491616 
L 633.447916 1238.431562 
L 633.447916 1238.431562 
L 632.047537 1253.107726 
z
" clip-path="url(#pf2b044c250)" style="fill: #55a868; fill-opacity: 0.2; stroke: #55a868; stroke-opacity: 0.2"/>
    <path d="M 639.049432 1170.385375 
L 639.049432 1188.55197 
L 639.049432 1170.385375 
L 639.049432 1170.385375 
z
" clip-path="url(#pf2b044c250)" style="fill: #55a868; fill-opacity: 0.2; stroke: #55a868; stroke-opacity: 0.2"/>
    <path d="M 641.85019 1094.292045 
L 641.85019 1109.660055 
L 643.250569 1019.509855 
L 644.650948 937.806904 
L 646.051327 917.923068 
L 647.451706 906.560877 
L 648.852085 900.879781 
L 658.654739 883.836493 
L 658.654739 880.285808 
L 658.654739 880.285808 
L 648.852085 900.879781 
L 647.451706 906.560877 
L 646.051327 912.241973 
L 644.650948 926.444712 
L 643.250569 998.401879 
L 641.85019 1094.292045 
z
" clip-path="url(#pf2b044c250)" style="fill: #55a868; fill-opacity: 0.2; stroke: #55a868; stroke-opacity: 0.2"/>
    <path d="M 662.855876 866.793205 
L 662.855876 872.474301 
L 664.256255 861.11211 
L 690.863457 849.749918 
L 692.263836 844.068822 
L 697.865353 838.387726 
L 700.666111 821.344438 
L 702.06649 815.663342 
L 702.06649 815.663342 
L 702.06649 815.663342 
L 700.666111 821.344438 
L 697.865353 832.70663 
L 692.263836 844.068822 
L 690.863457 849.749918 
L 664.256255 855.431014 
L 662.855876 866.793205 
z
" clip-path="url(#pf2b044c250)" style="fill: #55a868; fill-opacity: 0.2; stroke: #55a868; stroke-opacity: 0.2"/>
    <path d="M 709.068385 801.460603 
L 709.068385 801.460603 
L 709.068385 801.460603 
L 709.068385 801.460603 
z
" clip-path="url(#pf2b044c250)" style="fill: #55a868; fill-opacity: 0.2; stroke: #55a868; stroke-opacity: 0.2"/>
    <path d="M 711.869143 787.257863 
L 711.869143 792.938959 
L 713.269522 784.417315 
L 720.271418 775.895671 
L 724.472555 770.214575 
L 902.320695 764.533479 
L 1056.362392 758.852384 
L 1190.798782 753.171288 
L 1301.428728 747.490192 
L 1329.436309 741.809096 
L 1329.436309 741.809096 
L 1329.436309 741.809096 
L 1301.428728 747.490192 
L 1190.798782 753.171288 
L 1056.362392 758.852384 
L 902.320695 764.533479 
L 724.472555 770.214575 
L 720.271418 775.895671 
L 713.269522 781.576767 
L 711.869143 787.257863 
z
" clip-path="url(#pf2b044c250)" style="fill: #55a868; fill-opacity: 0.2; stroke: #55a868; stroke-opacity: 0.2"/>
    <path d="M 1651.523493 728.316493 
L 1651.523493 734.707726 
L 1654.324251 721.92526 
L 1655.72463 716.244164 
L 1658.525388 710.563068 
L 1662.726525 704.881973 
L 1665.527283 699.200877 
L 1687.933348 693.519781 
L 1694.935243 690.679233 
L 1700.53676 682.157589 
L 1706.138276 676.476493 
L 1718.741687 670.795397 
L 1718.741687 670.795397 
L 1718.741687 670.795397 
L 1706.138276 676.476493 
L 1700.53676 682.157589 
L 1694.935243 687.838685 
L 1687.933348 693.519781 
L 1665.527283 699.200877 
L 1662.726525 704.881973 
L 1658.525388 710.563068 
L 1655.72463 716.244164 
L 1654.324251 721.92526 
L 1651.523493 728.316493 
z
" clip-path="url(#pf2b044c250)" style="fill: #55a868; fill-opacity: 0.2; stroke: #55a868; stroke-opacity: 0.2"/>
    <path d="M 1746.749269 662.273753 
L 1746.749269 662.273753 
L 1827.971254 656.592658 
L 1833.57277 650.911562 
L 1850.377319 645.230466 
L 1850.377319 645.230466 
L 1850.377319 645.230466 
L 1833.57277 650.911562 
L 1827.971254 656.592658 
L 1746.749269 662.273753 
z
" clip-path="url(#pf2b044c250)" style="fill: #55a868; fill-opacity: 0.2; stroke: #55a868; stroke-opacity: 0.2"/>
    <path d="M 1930.198926 633.868274 
L 1930.198926 633.868274 
L 1962.407644 628.187178 
L 2101.045171 622.506082 
L 2192.06981 616.824986 
L 2382.521362 605.462795 
L 2382.521362 599.781699 
L 2382.521362 599.781699 
L 2192.06981 611.14389 
L 2101.045171 622.506082 
L 1962.407644 628.187178 
L 1930.198926 633.868274 
z
" clip-path="url(#pf2b044c250)" style="fill: #55a868; fill-opacity: 0.2; stroke: #55a868; stroke-opacity: 0.2"/>
   </g>
   <g id="PolyCollection_4">
    <defs>
     <path id="mc218e39a6a" d="M 1475.075731 -363.400767 
L 1475.075731 -346.830904 
L 1486.278763 -380.207342 
L 1486.278763 -382.337753 
L 1486.278763 -382.337753 
L 1475.075731 -363.400767 
z
" style="stroke: #c44e52; stroke-opacity: 0.2"/>
    </defs>
    <g clip-path="url(#pf2b044c250)">
     <use xlink:href="#mc218e39a6a" x="0" y="2073.6" style="fill: #c44e52; fill-opacity: 0.2; stroke: #c44e52; stroke-opacity: 0.2"/>
    </g>
   </g>
   <g id="line2d_15">
    <path d="M 442.996364 1772.928 
L 529.819865 1698.960132 
L 531.220244 1599.93863 
L 532.620623 1566.278137 
L 534.021003 1553.495671 
L 535.421382 1537.872658 
L 536.821761 1512.165699 
L 538.22214 1472.665373 
L 539.622519 1439.772305 
L 541.022898 1413.986032 
L 542.423277 1381.563616 
L 543.823656 1307.393753 
L 545.224035 1228.016219 
L 546.624414 1199.492384 
L 548.024793 1179.726904 
L 549.425172 1170.731836 
L 550.825551 1162.920329 
L 552.22593 1153.688548 
L 553.626309 1150.848 
L 555.026688 1137.710466 
L 569.030479 1122.442521 
L 570.430858 1116.761425 
L 573.231616 1111.080329 
L 574.631995 1105.399233 
L 576.032374 1102.558685 
L 577.432753 1099.718137 
L 583.03427 1094.037041 
L 585.835028 1088.355945 
L 590.036165 1082.674849 
L 595.637681 1074.153205 
L 602.639576 1065.631562 
L 697.865353 1062.791014 
L 702.06649 1053.133151 
L 728.673692 1042.907178 
L 738.476345 1037.226082 
L 751.079757 1031.544986 
L 753.880515 1025.86389 
L 760.88241 1020.182795 
L 763.683168 1014.501699 
L 793.091129 1008.820603 
L 801.493403 1003.139507 
L 802.893782 1000.298959 
L 808.495298 994.617863 
L 812.696436 988.936767 
L 819.698331 983.255671 
L 826.700226 977.574575 
L 828.100605 971.893479 
L 837.903259 966.212384 
L 930.328277 963.371836 
L 965.337753 957.69074 
L 972.339648 952.009644 
L 1010.149883 946.328548 
L 1046.559739 940.647452 
L 1096.973385 934.966356 
L 1098.373764 929.28526 
L 1175.394612 923.604164 
L 1193.59954 917.923068 
L 1221.607121 912.241973 
L 1238.41167 906.560877 
L 1252.41546 900.879781 
L 1253.815839 895.198685 
L 1266.419251 889.517589 
L 1269.220009 880.995945 
L 1288.825316 872.474301 
L 1297.22759 869.633753 
L 1389.652608 863.952658 
L 1413.459052 858.271562 
L 1447.06815 852.590466 
L 1482.077626 846.90937 
L 1533.891652 841.228274 
L 1606.711363 835.547178 
L 1720.142067 832.70663 
L 1770.555713 829.866082 
L 2130.453131 827.025534 
L 2281.69407 818.50389 
L 2390.923636 809.982247 
" clip-path="url(#pf2b044c250)" style="fill: none; stroke: #4c72b0; stroke-width: 1.5; stroke-linecap: round"/>
   </g>
   <g id="line2d_16">
    <path d="M 442.996364 1772.928 
L 531.220244 1767.246904 
L 532.620623 1738.841425 
L 534.021003 1736.000877 
L 535.421382 1724.638685 
L 536.821761 1718.957589 
L 539.622519 1670.100164 
L 541.022898 1616.29207 
L 545.224035 1570.031718 
L 546.624414 1480.676196 
L 553.626309 1408.391014 
L 556.427068 1397.975671 
L 559.227826 1386.04537 
L 560.628205 1378.091836 
L 569.030479 1372.41074 
L 583.03427 1341.480329 
L 590.036165 1296.748872 
L 595.637681 1276.778959 
L 597.03806 1230.641574 
L 598.438439 1197.243616 
L 604.039956 1187.775123 
L 606.840714 1179.253479 
L 613.842609 1170.731836 
L 632.047537 1162.210192 
L 633.447916 1148.007452 
L 636.248674 1136.64526 
L 637.649053 1115.057096 
L 653.053223 1099.718137 
L 655.853981 1081.609644 
L 661.455497 1065.631562 
L 668.457392 1051.428822 
L 671.25815 1045.747726 
L 674.058909 1037.226082 
L 685.261941 1010.714301 
L 690.863457 991.777315 
L 692.263836 983.255671 
L 693.664215 977.574575 
L 695.064594 971.893479 
L 696.464974 966.212384 
L 697.865353 960.531288 
L 699.265732 954.850192 
L 716.07028 949.169096 
L 718.871038 935.913205 
L 720.271418 918.869918 
L 730.074071 909.401425 
L 731.47445 903.720329 
L 735.675587 831.049644 
L 737.075966 729.973479 
L 742.677483 681.02137 
L 744.077862 648.071014 
L 751.079757 628.187178 
L 753.880515 622.506082 
L 781.888096 616.824986 
L 786.089233 611.14389 
L 800.093024 602.622247 
L 825.299847 594.100603 
L 829.500984 588.419507 
L 839.303638 582.738411 
L 858.908945 577.057315 
L 863.110082 571.376219 
L 881.315009 565.695123 
L 892.518042 557.173479 
L 905.121453 548.651836 
L 906.521833 542.97074 
L 917.724865 537.289644 
L 923.326381 531.608548 
L 947.132825 525.927452 
L 1001.747609 520.246356 
L 1022.753295 514.56526 
L 1028.354811 511.724712 
L 1033.956327 506.043616 
L 1036.757085 503.203068 
L 1040.958222 497.521973 
L 1067.565424 489.000329 
L 1075.967699 480.478685 
L 1095.573006 474.797589 
L 1098.373764 469.116493 
L 1115.178313 463.435397 
L 1122.180208 457.754301 
L 1124.980966 452.073205 
L 1157.189684 449.232658 
L 1165.591959 446.39211 
L 1176.794991 440.711014 
L 1193.59954 435.029918 
L 1199.201056 429.348822 
L 1216.005605 426.508274 
L 1220.206742 423.667726 
L 1228.609016 417.98663 
L 1248.214323 415.146082 
L 1335.037825 412.305534 
L 1339.238962 406.624438 
L 1354.643132 403.78389 
L 1358.844269 398.102795 
L 1365.846164 395.262247 
L 1386.85185 389.581151 
L 1470.874594 383.900055 
L 1479.276868 378.218959 
L 1573.102265 375.378411 
L 1619.314774 369.697315 
L 1643.121218 364.016219 
L 1711.739792 358.335123 
L 1767.754955 352.654027 
L 1794.362157 349.813479 
L 1833.57277 344.132384 
L 1846.176182 338.451288 
L 1865.781489 332.770192 
L 1947.003474 327.089096 
L 2043.629629 321.408 
" clip-path="url(#pf2b044c250)" style="fill: none; stroke: #dd8452; stroke-width: 1.5; stroke-linecap: round"/>
   </g>
   <g id="line2d_17">
    <path d="M 442.996364 1772.928 
L 536.821761 1758.409644 
L 538.22214 1743.102247 
L 542.423277 1738.841425 
L 546.624414 1727.07344 
L 548.024793 1543.541717 
L 560.628205 1378.091836 
L 562.028584 1370.990466 
L 563.428963 1365.30937 
L 564.829342 1359.628274 
L 566.229721 1349.686356 
L 567.6301 1341.164712 
L 569.030479 1334.063342 
L 570.430858 1321.280877 
L 571.831237 1311.338959 
L 573.231616 1304.237589 
L 574.631995 1298.556493 
L 576.032374 1295.715945 
L 577.432753 1290.034849 
L 594.237302 1284.353753 
L 601.239197 1281.513205 
L 623.645262 1275.83211 
L 626.446021 1270.151014 
L 627.8464 1265.890192 
L 630.647158 1261.62937 
L 632.047537 1255.948274 
L 633.447916 1242.692384 
L 634.848295 1233.22389 
L 639.049432 1180.372483 
L 640.449811 1136.64526 
L 641.85019 1101.78399 
L 643.250569 1008.685339 
L 644.650948 932.125808 
L 646.051327 914.135671 
L 647.451706 906.560877 
L 648.852085 900.879781 
L 658.654739 882.416219 
L 660.055118 875.314849 
L 662.855876 868.686904 
L 664.256255 858.271562 
L 690.863457 849.749918 
L 692.263836 844.068822 
L 697.865353 835.547178 
L 700.666111 821.344438 
L 702.06649 815.663342 
L 703.466869 812.822795 
L 704.867248 809.982247 
L 707.668006 807.141699 
L 709.068385 801.460603 
L 710.468764 798.620055 
L 711.869143 790.098411 
L 713.269522 782.997041 
L 720.271418 775.895671 
L 724.472555 770.214575 
L 902.320695 764.533479 
L 1056.362392 758.852384 
L 1190.798782 753.171288 
L 1301.428728 747.490192 
L 1329.436309 741.809096 
L 1360.244648 738.968548 
L 1651.523493 731.157041 
L 1654.324251 721.92526 
L 1655.72463 716.244164 
L 1658.525388 710.563068 
L 1662.726525 704.881973 
L 1665.527283 699.200877 
L 1687.933348 693.519781 
L 1694.935243 689.258959 
L 1700.53676 682.157589 
L 1706.138276 676.476493 
L 1718.741687 670.795397 
L 1745.34889 667.954849 
L 1746.749269 662.273753 
L 1827.971254 656.592658 
L 1833.57277 650.911562 
L 1850.377319 645.230466 
L 1857.379214 642.389918 
L 1892.388691 639.54937 
L 1930.198926 633.868274 
L 1962.407644 628.187178 
L 2101.045171 622.506082 
L 2192.06981 613.984438 
L 2382.521362 602.622247 
" clip-path="url(#pf2b044c250)" style="fill: none; stroke: #55a868; stroke-width: 1.5; stroke-linecap: round"/>
   </g>
   <g id="line2d_18">
    <path d="M 442.996364 1772.928 
L 632.047537 1770.087452 
L 1475.075731 1718.484164 
L 1486.278763 1692.682521 
" clip-path="url(#pf2b044c250)" style="fill: none; stroke: #c44e52; stroke-width: 1.5; stroke-linecap: round"/>
   </g>
   <g id="line2d_19"/>
   <g id="line2d_20"/>
   <g id="line2d_21"/>
   <g id="line2d_22"/>
   <g id="patch_3">
    <path d="M 345.6 1845.504 
L 345.6 248.832 
" style="fill: none; stroke: #cccccc; stroke-width: 1.25; stroke-linejoin: miter; stroke-linecap: square"/>
   </g>
   <g id="patch_4">
    <path d="M 345.6 1845.504 
L 2488.32 1845.504 
" style="fill: none; stroke: #cccccc; stroke-width: 1.25; stroke-linejoin: miter; stroke-linecap: square"/>
   </g>
   <g id="text_17">
    <!-- Bug Discovery History -->
    <g style="fill: #262626" transform="translate(1287.42156 242.832)scale(0.20736 -0.20736)">
     <defs>
      <path id="DejaVuSans-Bold-42" d="M 2456 2859 
Q 2741 2859 2887 2984 
Q 3034 3109 3034 3353 
Q 3034 3594 2887 3720 
Q 2741 3847 2456 3847 
L 1791 3847 
L 1791 2859 
L 2456 2859 
z
M 2497 819 
Q 2859 819 3042 972 
Q 3225 1125 3225 1434 
Q 3225 1738 3044 1889 
Q 2863 2041 2497 2041 
L 1791 2041 
L 1791 819 
L 2497 819 
z
M 3616 2497 
Q 4003 2384 4215 2081 
Q 4428 1778 4428 1338 
Q 4428 663 3972 331 
Q 3516 0 2584 0 
L 588 0 
L 588 4666 
L 2394 4666 
Q 3366 4666 3802 4372 
Q 4238 4078 4238 3431 
Q 4238 3091 4078 2852 
Q 3919 2613 3616 2497 
z
" transform="scale(0.015625)"/>
      <path id="DejaVuSans-Bold-75" d="M 500 1363 
L 500 3500 
L 1625 3500 
L 1625 3150 
Q 1625 2866 1622 2436 
Q 1619 2006 1619 1863 
Q 1619 1441 1641 1255 
Q 1663 1069 1716 984 
Q 1784 875 1895 815 
Q 2006 756 2150 756 
Q 2500 756 2700 1025 
Q 2900 1294 2900 1772 
L 2900 3500 
L 4019 3500 
L 4019 0 
L 2900 0 
L 2900 506 
Q 2647 200 2364 54 
Q 2081 -91 1741 -91 
Q 1134 -91 817 281 
Q 500 653 500 1363 
z
" transform="scale(0.015625)"/>
      <path id="DejaVuSans-Bold-67" d="M 2919 594 
Q 2688 288 2409 144 
Q 2131 0 1766 0 
Q 1125 0 706 504 
Q 288 1009 288 1791 
Q 288 2575 706 3076 
Q 1125 3578 1766 3578 
Q 2131 3578 2409 3434 
Q 2688 3291 2919 2981 
L 2919 3500 
L 4044 3500 
L 4044 353 
Q 4044 -491 3511 -936 
Q 2978 -1381 1966 -1381 
Q 1638 -1381 1331 -1331 
Q 1025 -1281 716 -1178 
L 716 -306 
Q 1009 -475 1290 -558 
Q 1572 -641 1856 -641 
Q 2406 -641 2662 -400 
Q 2919 -159 2919 353 
L 2919 594 
z
M 2181 2772 
Q 1834 2772 1640 2515 
Q 1447 2259 1447 1791 
Q 1447 1309 1634 1061 
Q 1822 813 2181 813 
Q 2531 813 2725 1069 
Q 2919 1325 2919 1791 
Q 2919 2259 2725 2515 
Q 2531 2772 2181 2772 
z
" transform="scale(0.015625)"/>
      <path id="DejaVuSans-Bold-20" transform="scale(0.015625)"/>
      <path id="DejaVuSans-Bold-44" d="M 1791 3756 
L 1791 909 
L 2222 909 
Q 2959 909 3348 1275 
Q 3738 1641 3738 2338 
Q 3738 3031 3350 3393 
Q 2963 3756 2222 3756 
L 1791 3756 
z
M 588 4666 
L 1856 4666 
Q 2919 4666 3439 4514 
Q 3959 4363 4331 4000 
Q 4659 3684 4818 3271 
Q 4978 2859 4978 2338 
Q 4978 1809 4818 1395 
Q 4659 981 4331 666 
Q 3956 303 3431 151 
Q 2906 0 1856 0 
L 588 0 
L 588 4666 
z
" transform="scale(0.015625)"/>
      <path id="DejaVuSans-Bold-69" d="M 538 3500 
L 1656 3500 
L 1656 0 
L 538 0 
L 538 3500 
z
M 538 4863 
L 1656 4863 
L 1656 3950 
L 538 3950 
L 538 4863 
z
" transform="scale(0.015625)"/>
      <path id="DejaVuSans-Bold-73" d="M 3272 3391 
L 3272 2541 
Q 2913 2691 2578 2766 
Q 2244 2841 1947 2841 
Q 1628 2841 1473 2761 
Q 1319 2681 1319 2516 
Q 1319 2381 1436 2309 
Q 1553 2238 1856 2203 
L 2053 2175 
Q 2913 2066 3209 1816 
Q 3506 1566 3506 1031 
Q 3506 472 3093 190 
Q 2681 -91 1863 -91 
Q 1516 -91 1145 -36 
Q 775 19 384 128 
L 384 978 
Q 719 816 1070 734 
Q 1422 653 1784 653 
Q 2113 653 2278 743 
Q 2444 834 2444 1013 
Q 2444 1163 2330 1236 
Q 2216 1309 1875 1350 
L 1678 1375 
Q 931 1469 631 1722 
Q 331 1975 331 2491 
Q 331 3047 712 3315 
Q 1094 3584 1881 3584 
Q 2191 3584 2531 3537 
Q 2872 3491 3272 3391 
z
" transform="scale(0.015625)"/>
      <path id="DejaVuSans-Bold-63" d="M 3366 3391 
L 3366 2478 
Q 3138 2634 2908 2709 
Q 2678 2784 2431 2784 
Q 1963 2784 1702 2511 
Q 1441 2238 1441 1747 
Q 1441 1256 1702 982 
Q 1963 709 2431 709 
Q 2694 709 2930 787 
Q 3166 866 3366 1019 
L 3366 103 
Q 3103 6 2833 -42 
Q 2563 -91 2291 -91 
Q 1344 -91 809 395 
Q 275 881 275 1747 
Q 275 2613 809 3098 
Q 1344 3584 2291 3584 
Q 2566 3584 2833 3536 
Q 3100 3488 3366 3391 
z
" transform="scale(0.015625)"/>
      <path id="DejaVuSans-Bold-6f" d="M 2203 2784 
Q 1831 2784 1636 2517 
Q 1441 2250 1441 1747 
Q 1441 1244 1636 976 
Q 1831 709 2203 709 
Q 2569 709 2762 976 
Q 2956 1244 2956 1747 
Q 2956 2250 2762 2517 
Q 2569 2784 2203 2784 
z
M 2203 3584 
Q 3106 3584 3614 3096 
Q 4122 2609 4122 1747 
Q 4122 884 3614 396 
Q 3106 -91 2203 -91 
Q 1297 -91 786 396 
Q 275 884 275 1747 
Q 275 2609 786 3096 
Q 1297 3584 2203 3584 
z
" transform="scale(0.015625)"/>
      <path id="DejaVuSans-Bold-76" d="M 97 3500 
L 1216 3500 
L 2088 1081 
L 2956 3500 
L 4078 3500 
L 2700 0 
L 1472 0 
L 97 3500 
z
" transform="scale(0.015625)"/>
      <path id="DejaVuSans-Bold-65" d="M 4031 1759 
L 4031 1441 
L 1416 1441 
Q 1456 1047 1700 850 
Q 1944 653 2381 653 
Q 2734 653 3104 758 
Q 3475 863 3866 1075 
L 3866 213 
Q 3469 63 3072 -14 
Q 2675 -91 2278 -91 
Q 1328 -91 801 392 
Q 275 875 275 1747 
Q 275 2603 792 3093 
Q 1309 3584 2216 3584 
Q 3041 3584 3536 3087 
Q 4031 2591 4031 1759 
z
M 2881 2131 
Q 2881 2450 2695 2645 
Q 2509 2841 2209 2841 
Q 1884 2841 1681 2658 
Q 1478 2475 1428 2131 
L 2881 2131 
z
" transform="scale(0.015625)"/>
      <path id="DejaVuSans-Bold-72" d="M 3138 2547 
Q 2991 2616 2845 2648 
Q 2700 2681 2553 2681 
Q 2122 2681 1889 2404 
Q 1656 2128 1656 1613 
L 1656 0 
L 538 0 
L 538 3500 
L 1656 3500 
L 1656 2925 
Q 1872 3269 2151 3426 
Q 2431 3584 2822 3584 
Q 2878 3584 2943 3579 
Q 3009 3575 3134 3559 
L 3138 2547 
z
" transform="scale(0.015625)"/>
      <path id="DejaVuSans-Bold-79" d="M 78 3500 
L 1197 3500 
L 2138 1125 
L 2938 3500 
L 4056 3500 
L 2584 -331 
Q 2363 -916 2067 -1148 
Q 1772 -1381 1288 -1381 
L 641 -1381 
L 641 -647 
L 991 -647 
Q 1275 -647 1404 -556 
Q 1534 -466 1606 -231 
L 1638 -134 
L 78 3500 
z
" transform="scale(0.015625)"/>
      <path id="DejaVuSans-Bold-48" d="M 588 4666 
L 1791 4666 
L 1791 2888 
L 3566 2888 
L 3566 4666 
L 4769 4666 
L 4769 0 
L 3566 0 
L 3566 1978 
L 1791 1978 
L 1791 0 
L 588 0 
L 588 4666 
z
" transform="scale(0.015625)"/>
      <path id="DejaVuSans-Bold-74" d="M 1759 4494 
L 1759 3500 
L 2913 3500 
L 2913 2700 
L 1759 2700 
L 1759 1216 
Q 1759 972 1856 886 
Q 1953 800 2241 800 
L 2816 800 
L 2816 0 
L 1856 0 
Q 1194 0 917 276 
Q 641 553 641 1216 
L 641 2700 
L 84 2700 
L 84 3500 
L 641 3500 
L 641 4494 
L 1759 4494 
z
" transform="scale(0.015625)"/>
     </defs>
     <use xlink:href="#DejaVuSans-Bold-42"/>
     <use xlink:href="#DejaVuSans-Bold-75" x="76.220703"/>
     <use xlink:href="#DejaVuSans-Bold-67" x="147.412109"/>
     <use xlink:href="#DejaVuSans-Bold-20" x="218.994141"/>
     <use xlink:href="#DejaVuSans-Bold-44" x="253.808594"/>
     <use xlink:href="#DejaVuSans-Bold-69" x="336.816406"/>
     <use xlink:href="#DejaVuSans-Bold-73" x="371.09375"/>
     <use xlink:href="#DejaVuSans-Bold-63" x="430.615234"/>
     <use xlink:href="#DejaVuSans-Bold-6f" x="489.892578"/>
     <use xlink:href="#DejaVuSans-Bold-76" x="558.59375"/>
     <use xlink:href="#DejaVuSans-Bold-65" x="623.779297"/>
     <use xlink:href="#DejaVuSans-Bold-72" x="691.601562"/>
     <use xlink:href="#DejaVuSans-Bold-79" x="740.917969"/>
     <use xlink:href="#DejaVuSans-Bold-20" x="806.103516"/>
     <use xlink:href="#DejaVuSans-Bold-48" x="840.917969"/>
     <use xlink:href="#DejaVuSans-Bold-69" x="924.609375"/>
     <use xlink:href="#DejaVuSans-Bold-73" x="958.886719"/>
     <use xlink:href="#DejaVuSans-Bold-74" x="1018.408203"/>
     <use xlink:href="#DejaVuSans-Bold-6f" x="1066.210938"/>
     <use xlink:href="#DejaVuSans-Bold-72" x="1134.912109"/>
     <use xlink:href="#DejaVuSans-Bold-79" x="1184.228516"/>
    </g>
   </g>
   <g id="legend_1">
    <g id="patch_5">
     <path d="M 2341.20875 339.3295 
L 2480.62 339.3295 
Q 2482.82 339.3295 2482.82 337.1295 
L 2482.82 256.532 
Q 2482.82 254.332 2480.62 254.332 
L 2341.20875 254.332 
Q 2339.00875 254.332 2339.00875 256.532 
L 2339.00875 337.1295 
Q 2339.00875 339.3295 2341.20875 339.3295 
z
" style="fill: #ffffff; opacity: 0.8; stroke: #cccccc; stroke-linejoin: miter"/>
    </g>
    <g id="text_18">
     <!-- fuzzer -->
     <g style="fill: #262626" transform="translate(2392.543125 267.850125)scale(0.12 -0.12)">
      <defs>
       <path id="DejaVuSans-66" d="M 2375 4863 
L 2375 4384 
L 1825 4384 
Q 1516 4384 1395 4259 
Q 1275 4134 1275 3809 
L 1275 3500 
L 2222 3500 
L 2222 3053 
L 1275 3053 
L 1275 0 
L 697 0 
L 697 3053 
L 147 3053 
L 147 3500 
L 697 3500 
L 697 3744 
Q 697 4328 969 4595 
Q 1241 4863 1831 4863 
L 2375 4863 
z
" transform="scale(0.015625)"/>
       <path id="DejaVuSans-7a" d="M 353 3500 
L 3084 3500 
L 3084 2975 
L 922 459 
L 3084 459 
L 3084 0 
L 275 0 
L 275 525 
L 2438 3041 
L 353 3041 
L 353 3500 
z
" transform="scale(0.015625)"/>
      </defs>
      <use xlink:href="#DejaVuSans-66"/>
      <use xlink:href="#DejaVuSans-75" x="35.205078"/>
      <use xlink:href="#DejaVuSans-7a" x="98.583984"/>
      <use xlink:href="#DejaVuSans-7a" x="151.074219"/>
      <use xlink:href="#DejaVuSans-65" x="203.564453"/>
      <use xlink:href="#DejaVuSans-72" x="265.087891"/>
     </g>
    </g>
    <g id="line2d_23">
     <path d="M 2343.40875 280.354031 
L 2354.40875 280.354031 
L 2365.40875 280.354031 
" style="fill: none; stroke: #4c72b0; stroke-width: 1.5; stroke-linecap: round"/>
    </g>
    <g id="text_19">
     <!-- mopt-0-exid2 -->
     <g style="fill: #262626" transform="translate(2374.20875 284.204031)scale(0.11 -0.11)">
      <defs>
       <path id="DejaVuSans-70" d="M 1159 525 
L 1159 -1331 
L 581 -1331 
L 581 3500 
L 1159 3500 
L 1159 2969 
Q 1341 3281 1617 3432 
Q 1894 3584 2278 3584 
Q 2916 3584 3314 3078 
Q 3713 2572 3713 1747 
Q 3713 922 3314 415 
Q 2916 -91 2278 -91 
Q 1894 -91 1617 61 
Q 1341 213 1159 525 
z
M 3116 1747 
Q 3116 2381 2855 2742 
Q 2594 3103 2138 3103 
Q 1681 3103 1420 2742 
Q 1159 2381 1159 1747 
Q 1159 1113 1420 752 
Q 1681 391 2138 391 
Q 2594 391 2855 752 
Q 3116 1113 3116 1747 
z
" transform="scale(0.015625)"/>
       <path id="DejaVuSans-2d" d="M 313 2009 
L 1997 2009 
L 1997 1497 
L 313 1497 
L 313 2009 
z
" transform="scale(0.015625)"/>
       <path id="DejaVuSans-78" d="M 3513 3500 
L 2247 1797 
L 3578 0 
L 2900 0 
L 1881 1375 
L 863 0 
L 184 0 
L 1544 1831 
L 300 3500 
L 978 3500 
L 1906 2253 
L 2834 3500 
L 3513 3500 
z
" transform="scale(0.015625)"/>
       <path id="DejaVuSans-64" d="M 2906 2969 
L 2906 4863 
L 3481 4863 
L 3481 0 
L 2906 0 
L 2906 525 
Q 2725 213 2448 61 
Q 2172 -91 1784 -91 
Q 1150 -91 751 415 
Q 353 922 353 1747 
Q 353 2572 751 3078 
Q 1150 3584 1784 3584 
Q 2172 3584 2448 3432 
Q 2725 3281 2906 2969 
z
M 947 1747 
Q 947 1113 1208 752 
Q 1469 391 1925 391 
Q 2381 391 2643 752 
Q 2906 1113 2906 1747 
Q 2906 2381 2643 2742 
Q 2381 3103 1925 3103 
Q 1469 3103 1208 2742 
Q 947 2381 947 1747 
z
" transform="scale(0.015625)"/>
      </defs>
      <use xlink:href="#DejaVuSans-6d"/>
      <use xlink:href="#DejaVuSans-6f" x="97.412109"/>
      <use xlink:href="#DejaVuSans-70" x="158.59375"/>
      <use xlink:href="#DejaVuSans-74" x="222.070312"/>
      <use xlink:href="#DejaVuSans-2d" x="261.279297"/>
      <use xlink:href="#DejaVuSans-30" x="297.363281"/>
      <use xlink:href="#DejaVuSans-2d" x="360.986328"/>
      <use xlink:href="#DejaVuSans-65" x="397.070312"/>
      <use xlink:href="#DejaVuSans-78" x="456.84375"/>
      <use xlink:href="#DejaVuSans-69" x="516.023438"/>
      <use xlink:href="#DejaVuSans-64" x="543.806641"/>
      <use xlink:href="#DejaVuSans-32" x="607.283203"/>
     </g>
    </g>
    <g id="line2d_24">
     <path d="M 2343.40875 296.499969 
L 2354.40875 296.499969 
L 2365.40875 296.499969 
" style="fill: none; stroke: #dd8452; stroke-width: 1.5; stroke-linecap: round"/>
    </g>
    <g id="text_20">
     <!-- symcc-0-exid2 -->
     <g style="fill: #262626" transform="translate(2374.20875 300.349969)scale(0.11 -0.11)">
      <use xlink:href="#DejaVuSans-73"/>
      <use xlink:href="#DejaVuSans-79" x="52.099609"/>
      <use xlink:href="#DejaVuSans-6d" x="111.279297"/>
      <use xlink:href="#DejaVuSans-63" x="208.691406"/>
      <use xlink:href="#DejaVuSans-63" x="263.671875"/>
      <use xlink:href="#DejaVuSans-2d" x="318.652344"/>
      <use xlink:href="#DejaVuSans-30" x="354.736328"/>
      <use xlink:href="#DejaVuSans-2d" x="418.359375"/>
      <use xlink:href="#DejaVuSans-65" x="454.443359"/>
      <use xlink:href="#DejaVuSans-78" x="514.216797"/>
      <use xlink:href="#DejaVuSans-69" x="573.396484"/>
      <use xlink:href="#DejaVuSans-64" x="601.179688"/>
      <use xlink:href="#DejaVuSans-32" x="664.65625"/>
     </g>
    </g>
    <g id="line2d_25">
     <path d="M 2343.40875 312.645906 
L 2354.40875 312.645906 
L 2365.40875 312.645906 
" style="fill: none; stroke: #55a868; stroke-width: 1.5; stroke-linecap: round"/>
    </g>
    <g id="text_21">
     <!-- fairfuzz-0-exid2 -->
     <g style="fill: #262626" transform="translate(2374.20875 316.495906)scale(0.11 -0.11)">
      <defs>
       <path id="DejaVuSans-61" d="M 2194 1759 
Q 1497 1759 1228 1600 
Q 959 1441 959 1056 
Q 959 750 1161 570 
Q 1363 391 1709 391 
Q 2188 391 2477 730 
Q 2766 1069 2766 1631 
L 2766 1759 
L 2194 1759 
z
M 3341 1997 
L 3341 0 
L 2766 0 
L 2766 531 
Q 2569 213 2275 61 
Q 1981 -91 1556 -91 
Q 1019 -91 701 211 
Q 384 513 384 1019 
Q 384 1609 779 1909 
Q 1175 2209 1959 2209 
L 2766 2209 
L 2766 2266 
Q 2766 2663 2505 2880 
Q 2244 3097 1772 3097 
Q 1472 3097 1187 3025 
Q 903 2953 641 2809 
L 641 3341 
Q 956 3463 1253 3523 
Q 1550 3584 1831 3584 
Q 2591 3584 2966 3190 
Q 3341 2797 3341 1997 
z
" transform="scale(0.015625)"/>
      </defs>
      <use xlink:href="#DejaVuSans-66"/>
      <use xlink:href="#DejaVuSans-61" x="35.205078"/>
      <use xlink:href="#DejaVuSans-69" x="96.484375"/>
      <use xlink:href="#DejaVuSans-72" x="124.267578"/>
      <use xlink:href="#DejaVuSans-66" x="165.380859"/>
      <use xlink:href="#DejaVuSans-75" x="200.585938"/>
      <use xlink:href="#DejaVuSans-7a" x="263.964844"/>
      <use xlink:href="#DejaVuSans-7a" x="316.455078"/>
      <use xlink:href="#DejaVuSans-2d" x="368.945312"/>
      <use xlink:href="#DejaVuSans-30" x="405.029297"/>
      <use xlink:href="#DejaVuSans-2d" x="468.652344"/>
      <use xlink:href="#DejaVuSans-65" x="504.736328"/>
      <use xlink:href="#DejaVuSans-78" x="564.509766"/>
      <use xlink:href="#DejaVuSans-69" x="623.689453"/>
      <use xlink:href="#DejaVuSans-64" x="651.472656"/>
      <use xlink:href="#DejaVuSans-32" x="714.949219"/>
     </g>
    </g>
    <g id="line2d_26">
     <path d="M 2343.40875 328.791844 
L 2354.40875 328.791844 
L 2365.40875 328.791844 
" style="fill: none; stroke: #c44e52; stroke-width: 1.5; stroke-linecap: round"/>
    </g>
    <g id="text_22">
     <!-- aflplusplus-0-exid2 -->
     <g style="fill: #262626" transform="translate(2374.20875 332.641844)scale(0.11 -0.11)">
      <defs>
       <path id="DejaVuSans-6c" d="M 603 4863 
L 1178 4863 
L 1178 0 
L 603 0 
L 603 4863 
z
" transform="scale(0.015625)"/>
      </defs>
      <use xlink:href="#DejaVuSans-61"/>
      <use xlink:href="#DejaVuSans-66" x="61.279297"/>
      <use xlink:href="#DejaVuSans-6c" x="96.484375"/>
      <use xlink:href="#DejaVuSans-70" x="124.267578"/>
      <use xlink:href="#DejaVuSans-6c" x="187.744141"/>
      <use xlink:href="#DejaVuSans-75" x="215.527344"/>
      <use xlink:href="#DejaVuSans-73" x="278.90625"/>
      <use xlink:href="#DejaVuSans-70" x="331.005859"/>
      <use xlink:href="#DejaVuSans-6c" x="394.482422"/>
      <use xlink:href="#DejaVuSans-75" x="422.265625"/>
      <use xlink:href="#DejaVuSans-73" x="485.644531"/>
      <use xlink:href="#DejaVuSans-2d" x="537.744141"/>
      <use xlink:href="#DejaVuSans-30" x="573.828125"/>
      <use xlink:href="#DejaVuSans-2d" x="637.451172"/>
      <use xlink:href="#DejaVuSans-65" x="673.535156"/>
      <use xlink:href="#DejaVuSans-78" x="733.308594"/>
      <use xlink:href="#DejaVuSans-69" x="792.488281"/>
      <use xlink:href="#DejaVuSans-64" x="820.271484"/>
      <use xlink:href="#DejaVuSans-32" x="883.748047"/>
     </g>
    </g>
   </g>
  </g>
 </g>
 <defs>
  <clipPath id="pf2b044c250">
   <rect x="345.6" y="248.832" width="2142.72" height="1596.672"/>
  </clipPath>
 </defs>
</svg>
