<?xml version="1.0" encoding="utf-8" standalone="no"?>
<!DOCTYPE svg PUBLIC "-//W3C//DTD SVG 1.1//EN"
  "http://www.w3.org/Graphics/SVG/1.1/DTD/svg11.dtd">
<svg xmlns:xlink="http://www.w3.org/1999/xlink" width="434.4pt" height="576pt" viewBox="0 0 434.4 576" xmlns="http://www.w3.org/2000/svg" version="1.1">
 <metadata>
  <rdf:RDF xmlns:dc="http://purl.org/dc/elements/1.1/" xmlns:cc="http://creativecommons.org/ns#" xmlns:rdf="http://www.w3.org/1999/02/22-rdf-syntax-ns#">
   <cc:Work>
    <dc:type rdf:resource="http://purl.org/dc/dcmitype/StillImage"/>
    <dc:date>2022-09-15T09:18:39.064487</dc:date>
    <dc:format>image/svg+xml</dc:format>
    <dc:creator>
     <cc:Agent>
      <dc:title>Matplotlib v3.5.3, https://matplotlib.org/</dc:title>
     </cc:Agent>
    </dc:creator>
   </cc:Work>
  </rdf:RDF>
 </metadata>
 <defs>
  <style type="text/css">*{stroke-linejoin: round; stroke-linecap: butt}</style>
 </defs>
 <g id="figure_1">
  <g id="patch_1">
   <path d="M 0 576 
L 434.4 576 
L 434.4 0 
L 0 0 
z
" style="fill: #ffffff"/>
  </g>
  <g id="axes_1">
   <g id="patch_2">
    <path d="M 54.3 512.64 
L 390.96 512.64 
L 390.96 69.12 
L 54.3 69.12 
z
" style="fill: #ffffff"/>
   </g>
   <g id="matplotlib.axis_1">
    <g id="xtick_1">
     <g id="line2d_1">
      <path d="M 69.602727 512.64 
L 69.602727 69.12 
" clip-path="url(#p57703fca61)" style="fill: none; stroke: #cccccc; stroke-width: 0.8; stroke-linecap: round"/>
     </g>
     <g id="text_1">
      <!-- 0 -->
      <g style="fill: #262626" transform="translate(69.340214 529.627249)rotate(-45)scale(0.088 -0.088)">
       <defs>
        <path id="DejaVuSans-30" d="M 2034 4250 
Q 1547 4250 1301 3770 
Q 1056 3291 1056 2328 
Q 1056 1369 1301 889 
Q 1547 409 2034 409 
Q 2525 409 2770 889 
Q 3016 1369 3016 2328 
Q 3016 3291 2770 3770 
Q 2525 4250 2034 4250 
z
M 2034 4750 
Q 2819 4750 3233 4129 
Q 3647 3509 3647 2328 
Q 3647 1150 3233 529 
Q 2819 -91 2034 -91 
Q 1250 -91 836 529 
Q 422 1150 422 2328 
Q 422 3509 836 4129 
Q 1250 4750 2034 4750 
z
" transform="scale(0.015625)"/>
       </defs>
       <use xlink:href="#DejaVuSans-30"/>
      </g>
     </g>
    </g>
    <g id="xtick_2">
     <g id="line2d_2">
      <path d="M 86.629406 512.64 
L 86.629406 69.12 
" clip-path="url(#p57703fca61)" style="fill: none; stroke: #cccccc; stroke-width: 0.8; stroke-linecap: round"/>
     </g>
     <g id="text_2">
      <!-- 80 -->
      <g style="fill: #262626" transform="translate(84.387347 533.58634)rotate(-45)scale(0.088 -0.088)">
       <defs>
        <path id="DejaVuSans-38" d="M 2034 2216 
Q 1584 2216 1326 1975 
Q 1069 1734 1069 1313 
Q 1069 891 1326 650 
Q 1584 409 2034 409 
Q 2484 409 2743 651 
Q 3003 894 3003 1313 
Q 3003 1734 2745 1975 
Q 2488 2216 2034 2216 
z
M 1403 2484 
Q 997 2584 770 2862 
Q 544 3141 544 3541 
Q 544 4100 942 4425 
Q 1341 4750 2034 4750 
Q 2731 4750 3128 4425 
Q 3525 4100 3525 3541 
Q 3525 3141 3298 2862 
Q 3072 2584 2669 2484 
Q 3125 2378 3379 2068 
Q 3634 1759 3634 1313 
Q 3634 634 3220 271 
Q 2806 -91 2034 -91 
Q 1263 -91 848 271 
Q 434 634 434 1313 
Q 434 1759 690 2068 
Q 947 2378 1403 2484 
z
M 1172 3481 
Q 1172 3119 1398 2916 
Q 1625 2713 2034 2713 
Q 2441 2713 2670 2916 
Q 2900 3119 2900 3481 
Q 2900 3844 2670 4047 
Q 2441 4250 2034 4250 
Q 1625 4250 1398 4047 
Q 1172 3844 1172 3481 
z
" transform="scale(0.015625)"/>
       </defs>
       <use xlink:href="#DejaVuSans-38"/>
       <use xlink:href="#DejaVuSans-30" x="63.623047"/>
      </g>
     </g>
    </g>
    <g id="xtick_3">
     <g id="line2d_3">
      <path d="M 103.656084 512.64 
L 103.656084 69.12 
" clip-path="url(#p57703fca61)" style="fill: none; stroke: #cccccc; stroke-width: 0.8; stroke-linecap: round"/>
     </g>
     <g id="text_3">
      <!-- 160 -->
      <g style="fill: #262626" transform="translate(99.43448 537.54543)rotate(-45)scale(0.088 -0.088)">
       <defs>
        <path id="DejaVuSans-31" d="M 794 531 
L 1825 531 
L 1825 4091 
L 703 3866 
L 703 4441 
L 1819 4666 
L 2450 4666 
L 2450 531 
L 3481 531 
L 3481 0 
L 794 0 
L 794 531 
z
" transform="scale(0.015625)"/>
        <path id="DejaVuSans-36" d="M 2113 2584 
Q 1688 2584 1439 2293 
Q 1191 2003 1191 1497 
Q 1191 994 1439 701 
Q 1688 409 2113 409 
Q 2538 409 2786 701 
Q 3034 994 3034 1497 
Q 3034 2003 2786 2293 
Q 2538 2584 2113 2584 
z
M 3366 4563 
L 3366 3988 
Q 3128 4100 2886 4159 
Q 2644 4219 2406 4219 
Q 1781 4219 1451 3797 
Q 1122 3375 1075 2522 
Q 1259 2794 1537 2939 
Q 1816 3084 2150 3084 
Q 2853 3084 3261 2657 
Q 3669 2231 3669 1497 
Q 3669 778 3244 343 
Q 2819 -91 2113 -91 
Q 1303 -91 875 529 
Q 447 1150 447 2328 
Q 447 3434 972 4092 
Q 1497 4750 2381 4750 
Q 2619 4750 2861 4703 
Q 3103 4656 3366 4563 
z
" transform="scale(0.015625)"/>
       </defs>
       <use xlink:href="#DejaVuSans-31"/>
       <use xlink:href="#DejaVuSans-36" x="63.623047"/>
       <use xlink:href="#DejaVuSans-30" x="127.246094"/>
      </g>
     </g>
    </g>
    <g id="xtick_4">
     <g id="line2d_4">
      <path d="M 120.682763 512.64 
L 120.682763 69.12 
" clip-path="url(#p57703fca61)" style="fill: none; stroke: #cccccc; stroke-width: 0.8; stroke-linecap: round"/>
     </g>
     <g id="text_4">
      <!-- 240 -->
      <g style="fill: #262626" transform="translate(116.461158 537.54543)rotate(-45)scale(0.088 -0.088)">
       <defs>
        <path id="DejaVuSans-32" d="M 1228 531 
L 3431 531 
L 3431 0 
L 469 0 
L 469 531 
Q 828 903 1448 1529 
Q 2069 2156 2228 2338 
Q 2531 2678 2651 2914 
Q 2772 3150 2772 3378 
Q 2772 3750 2511 3984 
Q 2250 4219 1831 4219 
Q 1534 4219 1204 4116 
Q 875 4013 500 3803 
L 500 4441 
Q 881 4594 1212 4672 
Q 1544 4750 1819 4750 
Q 2544 4750 2975 4387 
Q 3406 4025 3406 3419 
Q 3406 3131 3298 2873 
Q 3191 2616 2906 2266 
Q 2828 2175 2409 1742 
Q 1991 1309 1228 531 
z
" transform="scale(0.015625)"/>
        <path id="DejaVuSans-34" d="M 2419 4116 
L 825 1625 
L 2419 1625 
L 2419 4116 
z
M 2253 4666 
L 3047 4666 
L 3047 1625 
L 3713 1625 
L 3713 1100 
L 3047 1100 
L 3047 0 
L 2419 0 
L 2419 1100 
L 313 1100 
L 313 1709 
L 2253 4666 
z
" transform="scale(0.015625)"/>
       </defs>
       <use xlink:href="#DejaVuSans-32"/>
       <use xlink:href="#DejaVuSans-34" x="63.623047"/>
       <use xlink:href="#DejaVuSans-30" x="127.246094"/>
      </g>
     </g>
    </g>
    <g id="xtick_5">
     <g id="line2d_5">
      <path d="M 137.709441 512.64 
L 137.709441 69.12 
" clip-path="url(#p57703fca61)" style="fill: none; stroke: #cccccc; stroke-width: 0.8; stroke-linecap: round"/>
     </g>
     <g id="text_5">
      <!-- 320 -->
      <g style="fill: #262626" transform="translate(133.487837 537.54543)rotate(-45)scale(0.088 -0.088)">
       <defs>
        <path id="DejaVuSans-33" d="M 2597 2516 
Q 3050 2419 3304 2112 
Q 3559 1806 3559 1356 
Q 3559 666 3084 287 
Q 2609 -91 1734 -91 
Q 1441 -91 1130 -33 
Q 819 25 488 141 
L 488 750 
Q 750 597 1062 519 
Q 1375 441 1716 441 
Q 2309 441 2620 675 
Q 2931 909 2931 1356 
Q 2931 1769 2642 2001 
Q 2353 2234 1838 2234 
L 1294 2234 
L 1294 2753 
L 1863 2753 
Q 2328 2753 2575 2939 
Q 2822 3125 2822 3475 
Q 2822 3834 2567 4026 
Q 2313 4219 1838 4219 
Q 1578 4219 1281 4162 
Q 984 4106 628 3988 
L 628 4550 
Q 988 4650 1302 4700 
Q 1616 4750 1894 4750 
Q 2613 4750 3031 4423 
Q 3450 4097 3450 3541 
Q 3450 3153 3228 2886 
Q 3006 2619 2597 2516 
z
" transform="scale(0.015625)"/>
       </defs>
       <use xlink:href="#DejaVuSans-33"/>
       <use xlink:href="#DejaVuSans-32" x="63.623047"/>
       <use xlink:href="#DejaVuSans-30" x="127.246094"/>
      </g>
     </g>
    </g>
    <g id="xtick_6">
     <g id="line2d_6">
      <path d="M 154.73612 512.64 
L 154.73612 69.12 
" clip-path="url(#p57703fca61)" style="fill: none; stroke: #cccccc; stroke-width: 0.8; stroke-linecap: round"/>
     </g>
     <g id="text_6">
      <!-- 400 -->
      <g style="fill: #262626" transform="translate(150.514515 537.54543)rotate(-45)scale(0.088 -0.088)">
       <use xlink:href="#DejaVuSans-34"/>
       <use xlink:href="#DejaVuSans-30" x="63.623047"/>
       <use xlink:href="#DejaVuSans-30" x="127.246094"/>
      </g>
     </g>
    </g>
    <g id="xtick_7">
     <g id="line2d_7">
      <path d="M 171.762798 512.64 
L 171.762798 69.12 
" clip-path="url(#p57703fca61)" style="fill: none; stroke: #cccccc; stroke-width: 0.8; stroke-linecap: round"/>
     </g>
     <g id="text_7">
      <!-- 480 -->
      <g style="fill: #262626" transform="translate(167.541194 537.54543)rotate(-45)scale(0.088 -0.088)">
       <use xlink:href="#DejaVuSans-34"/>
       <use xlink:href="#DejaVuSans-38" x="63.623047"/>
       <use xlink:href="#DejaVuSans-30" x="127.246094"/>
      </g>
     </g>
    </g>
    <g id="xtick_8">
     <g id="line2d_8">
      <path d="M 188.789477 512.64 
L 188.789477 69.12 
" clip-path="url(#p57703fca61)" style="fill: none; stroke: #cccccc; stroke-width: 0.8; stroke-linecap: round"/>
     </g>
     <g id="text_8">
      <!-- 560 -->
      <g style="fill: #262626" transform="translate(184.567872 537.54543)rotate(-45)scale(0.088 -0.088)">
       <defs>
        <path id="DejaVuSans-35" d="M 691 4666 
L 3169 4666 
L 3169 4134 
L 1269 4134 
L 1269 2991 
Q 1406 3038 1543 3061 
Q 1681 3084 1819 3084 
Q 2600 3084 3056 2656 
Q 3513 2228 3513 1497 
Q 3513 744 3044 326 
Q 2575 -91 1722 -91 
Q 1428 -91 1123 -41 
Q 819 9 494 109 
L 494 744 
Q 775 591 1075 516 
Q 1375 441 1709 441 
Q 2250 441 2565 725 
Q 2881 1009 2881 1497 
Q 2881 1984 2565 2268 
Q 2250 2553 1709 2553 
Q 1456 2553 1204 2497 
Q 953 2441 691 2322 
L 691 4666 
z
" transform="scale(0.015625)"/>
       </defs>
       <use xlink:href="#DejaVuSans-35"/>
       <use xlink:href="#DejaVuSans-36" x="63.623047"/>
       <use xlink:href="#DejaVuSans-30" x="127.246094"/>
      </g>
     </g>
    </g>
    <g id="xtick_9">
     <g id="line2d_9">
      <path d="M 205.816155 512.64 
L 205.816155 69.12 
" clip-path="url(#p57703fca61)" style="fill: none; stroke: #cccccc; stroke-width: 0.8; stroke-linecap: round"/>
     </g>
     <g id="text_9">
      <!-- 640 -->
      <g style="fill: #262626" transform="translate(201.594551 537.54543)rotate(-45)scale(0.088 -0.088)">
       <use xlink:href="#DejaVuSans-36"/>
       <use xlink:href="#DejaVuSans-34" x="63.623047"/>
       <use xlink:href="#DejaVuSans-30" x="127.246094"/>
      </g>
     </g>
    </g>
    <g id="xtick_10">
     <g id="line2d_10">
      <path d="M 222.842833 512.64 
L 222.842833 69.12 
" clip-path="url(#p57703fca61)" style="fill: none; stroke: #cccccc; stroke-width: 0.8; stroke-linecap: round"/>
     </g>
     <g id="text_10">
      <!-- 720 -->
      <g style="fill: #262626" transform="translate(218.621229 537.54543)rotate(-45)scale(0.088 -0.088)">
       <defs>
        <path id="DejaVuSans-37" d="M 525 4666 
L 3525 4666 
L 3525 4397 
L 1831 0 
L 1172 0 
L 2766 4134 
L 525 4134 
L 525 4666 
z
" transform="scale(0.015625)"/>
       </defs>
       <use xlink:href="#DejaVuSans-37"/>
       <use xlink:href="#DejaVuSans-32" x="63.623047"/>
       <use xlink:href="#DejaVuSans-30" x="127.246094"/>
      </g>
     </g>
    </g>
    <g id="xtick_11">
     <g id="line2d_11">
      <path d="M 239.869512 512.64 
L 239.869512 69.12 
" clip-path="url(#p57703fca61)" style="fill: none; stroke: #cccccc; stroke-width: 0.8; stroke-linecap: round"/>
     </g>
     <g id="text_11">
      <!-- 800 -->
      <g style="fill: #262626" transform="translate(235.647908 537.54543)rotate(-45)scale(0.088 -0.088)">
       <use xlink:href="#DejaVuSans-38"/>
       <use xlink:href="#DejaVuSans-30" x="63.623047"/>
       <use xlink:href="#DejaVuSans-30" x="127.246094"/>
      </g>
     </g>
    </g>
    <g id="xtick_12">
     <g id="line2d_12">
      <path d="M 256.89619 512.64 
L 256.89619 69.12 
" clip-path="url(#p57703fca61)" style="fill: none; stroke: #cccccc; stroke-width: 0.8; stroke-linecap: round"/>
     </g>
     <g id="text_12">
      <!-- 880 -->
      <g style="fill: #262626" transform="translate(252.674586 537.54543)rotate(-45)scale(0.088 -0.088)">
       <use xlink:href="#DejaVuSans-38"/>
       <use xlink:href="#DejaVuSans-38" x="63.623047"/>
       <use xlink:href="#DejaVuSans-30" x="127.246094"/>
      </g>
     </g>
    </g>
    <g id="xtick_13">
     <g id="line2d_13">
      <path d="M 273.922869 512.64 
L 273.922869 69.12 
" clip-path="url(#p57703fca61)" style="fill: none; stroke: #cccccc; stroke-width: 0.8; stroke-linecap: round"/>
     </g>
     <g id="text_13">
      <!-- 960 -->
      <g style="fill: #262626" transform="translate(269.701265 537.54543)rotate(-45)scale(0.088 -0.088)">
       <defs>
        <path id="DejaVuSans-39" d="M 703 97 
L 703 672 
Q 941 559 1184 500 
Q 1428 441 1663 441 
Q 2288 441 2617 861 
Q 2947 1281 2994 2138 
Q 2813 1869 2534 1725 
Q 2256 1581 1919 1581 
Q 1219 1581 811 2004 
Q 403 2428 403 3163 
Q 403 3881 828 4315 
Q 1253 4750 1959 4750 
Q 2769 4750 3195 4129 
Q 3622 3509 3622 2328 
Q 3622 1225 3098 567 
Q 2575 -91 1691 -91 
Q 1453 -91 1209 -44 
Q 966 3 703 97 
z
M 1959 2075 
Q 2384 2075 2632 2365 
Q 2881 2656 2881 3163 
Q 2881 3666 2632 3958 
Q 2384 4250 1959 4250 
Q 1534 4250 1286 3958 
Q 1038 3666 1038 3163 
Q 1038 2656 1286 2365 
Q 1534 2075 1959 2075 
z
" transform="scale(0.015625)"/>
       </defs>
       <use xlink:href="#DejaVuSans-39"/>
       <use xlink:href="#DejaVuSans-36" x="63.623047"/>
       <use xlink:href="#DejaVuSans-30" x="127.246094"/>
      </g>
     </g>
    </g>
    <g id="xtick_14">
     <g id="line2d_14">
      <path d="M 290.949547 512.64 
L 290.949547 69.12 
" clip-path="url(#p57703fca61)" style="fill: none; stroke: #cccccc; stroke-width: 0.8; stroke-linecap: round"/>
     </g>
     <g id="text_14">
      <!-- 1040 -->
      <g style="fill: #262626" transform="translate(284.748398 541.504521)rotate(-45)scale(0.088 -0.088)">
       <use xlink:href="#DejaVuSans-31"/>
       <use xlink:href="#DejaVuSans-30" x="63.623047"/>
       <use xlink:href="#DejaVuSans-34" x="127.246094"/>
       <use xlink:href="#DejaVuSans-30" x="190.869141"/>
      </g>
     </g>
    </g>
    <g id="xtick_15">
     <g id="line2d_15">
      <path d="M 307.976226 512.64 
L 307.976226 69.12 
" clip-path="url(#p57703fca61)" style="fill: none; stroke: #cccccc; stroke-width: 0.8; stroke-linecap: round"/>
     </g>
     <g id="text_15">
      <!-- 1120 -->
      <g style="fill: #262626" transform="translate(301.775076 541.504521)rotate(-45)scale(0.088 -0.088)">
       <use xlink:href="#DejaVuSans-31"/>
       <use xlink:href="#DejaVuSans-31" x="63.623047"/>
       <use xlink:href="#DejaVuSans-32" x="127.246094"/>
       <use xlink:href="#DejaVuSans-30" x="190.869141"/>
      </g>
     </g>
    </g>
    <g id="xtick_16">
     <g id="line2d_16">
      <path d="M 325.002904 512.64 
L 325.002904 69.12 
" clip-path="url(#p57703fca61)" style="fill: none; stroke: #cccccc; stroke-width: 0.8; stroke-linecap: round"/>
     </g>
     <g id="text_16">
      <!-- 1200 -->
      <g style="fill: #262626" transform="translate(318.801755 541.504521)rotate(-45)scale(0.088 -0.088)">
       <use xlink:href="#DejaVuSans-31"/>
       <use xlink:href="#DejaVuSans-32" x="63.623047"/>
       <use xlink:href="#DejaVuSans-30" x="127.246094"/>
       <use xlink:href="#DejaVuSans-30" x="190.869141"/>
      </g>
     </g>
    </g>
    <g id="xtick_17">
     <g id="line2d_17">
      <path d="M 342.029583 512.64 
L 342.029583 69.12 
" clip-path="url(#p57703fca61)" style="fill: none; stroke: #cccccc; stroke-width: 0.8; stroke-linecap: round"/>
     </g>
     <g id="text_17">
      <!-- 1280 -->
      <g style="fill: #262626" transform="translate(335.828433 541.504521)rotate(-45)scale(0.088 -0.088)">
       <use xlink:href="#DejaVuSans-31"/>
       <use xlink:href="#DejaVuSans-32" x="63.623047"/>
       <use xlink:href="#DejaVuSans-38" x="127.246094"/>
       <use xlink:href="#DejaVuSans-30" x="190.869141"/>
      </g>
     </g>
    </g>
    <g id="xtick_18">
     <g id="line2d_18">
      <path d="M 359.056261 512.64 
L 359.056261 69.12 
" clip-path="url(#p57703fca61)" style="fill: none; stroke: #cccccc; stroke-width: 0.8; stroke-linecap: round"/>
     </g>
     <g id="text_18">
      <!-- 1360 -->
      <g style="fill: #262626" transform="translate(352.855112 541.504521)rotate(-45)scale(0.088 -0.088)">
       <use xlink:href="#DejaVuSans-31"/>
       <use xlink:href="#DejaVuSans-33" x="63.623047"/>
       <use xlink:href="#DejaVuSans-36" x="127.246094"/>
       <use xlink:href="#DejaVuSans-30" x="190.869141"/>
      </g>
     </g>
    </g>
    <g id="xtick_19">
     <g id="line2d_19">
      <path d="M 376.08294 512.64 
L 376.08294 69.12 
" clip-path="url(#p57703fca61)" style="fill: none; stroke: #cccccc; stroke-width: 0.8; stroke-linecap: round"/>
     </g>
     <g id="text_19">
      <!-- 1440 -->
      <g style="fill: #262626" transform="translate(369.88179 541.504521)rotate(-45)scale(0.088 -0.088)">
       <use xlink:href="#DejaVuSans-31"/>
       <use xlink:href="#DejaVuSans-34" x="63.623047"/>
       <use xlink:href="#DejaVuSans-34" x="127.246094"/>
       <use xlink:href="#DejaVuSans-30" x="190.869141"/>
      </g>
     </g>
    </g>
    <g id="text_20">
     <!-- Time (Minutes) -->
     <g style="fill: #262626" transform="translate(186.72 554.093115)scale(0.096 -0.096)">
      <defs>
       <path id="DejaVuSans-54" d="M -19 4666 
L 3928 4666 
L 3928 4134 
L 2272 4134 
L 2272 0 
L 1638 0 
L 1638 4134 
L -19 4134 
L -19 4666 
z
" transform="scale(0.015625)"/>
       <path id="DejaVuSans-69" d="M 603 3500 
L 1178 3500 
L 1178 0 
L 603 0 
L 603 3500 
z
M 603 4863 
L 1178 4863 
L 1178 4134 
L 603 4134 
L 603 4863 
z
" transform="scale(0.015625)"/>
       <path id="DejaVuSans-6d" d="M 3328 2828 
Q 3544 3216 3844 3400 
Q 4144 3584 4550 3584 
Q 5097 3584 5394 3201 
Q 5691 2819 5691 2113 
L 5691 0 
L 5113 0 
L 5113 2094 
Q 5113 2597 4934 2840 
Q 4756 3084 4391 3084 
Q 3944 3084 3684 2787 
Q 3425 2491 3425 1978 
L 3425 0 
L 2847 0 
L 2847 2094 
Q 2847 2600 2669 2842 
Q 2491 3084 2119 3084 
Q 1678 3084 1418 2786 
Q 1159 2488 1159 1978 
L 1159 0 
L 581 0 
L 581 3500 
L 1159 3500 
L 1159 2956 
Q 1356 3278 1631 3431 
Q 1906 3584 2284 3584 
Q 2666 3584 2933 3390 
Q 3200 3197 3328 2828 
z
" transform="scale(0.015625)"/>
       <path id="DejaVuSans-65" d="M 3597 1894 
L 3597 1613 
L 953 1613 
Q 991 1019 1311 708 
Q 1631 397 2203 397 
Q 2534 397 2845 478 
Q 3156 559 3463 722 
L 3463 178 
Q 3153 47 2828 -22 
Q 2503 -91 2169 -91 
Q 1331 -91 842 396 
Q 353 884 353 1716 
Q 353 2575 817 3079 
Q 1281 3584 2069 3584 
Q 2775 3584 3186 3129 
Q 3597 2675 3597 1894 
z
M 3022 2063 
Q 3016 2534 2758 2815 
Q 2500 3097 2075 3097 
Q 1594 3097 1305 2825 
Q 1016 2553 972 2059 
L 3022 2063 
z
" transform="scale(0.015625)"/>
       <path id="DejaVuSans-20" transform="scale(0.015625)"/>
       <path id="DejaVuSans-28" d="M 1984 4856 
Q 1566 4138 1362 3434 
Q 1159 2731 1159 2009 
Q 1159 1288 1364 580 
Q 1569 -128 1984 -844 
L 1484 -844 
Q 1016 -109 783 600 
Q 550 1309 550 2009 
Q 550 2706 781 3412 
Q 1013 4119 1484 4856 
L 1984 4856 
z
" transform="scale(0.015625)"/>
       <path id="DejaVuSans-4d" d="M 628 4666 
L 1569 4666 
L 2759 1491 
L 3956 4666 
L 4897 4666 
L 4897 0 
L 4281 0 
L 4281 4097 
L 3078 897 
L 2444 897 
L 1241 4097 
L 1241 0 
L 628 0 
L 628 4666 
z
" transform="scale(0.015625)"/>
       <path id="DejaVuSans-6e" d="M 3513 2113 
L 3513 0 
L 2938 0 
L 2938 2094 
Q 2938 2591 2744 2837 
Q 2550 3084 2163 3084 
Q 1697 3084 1428 2787 
Q 1159 2491 1159 1978 
L 1159 0 
L 581 0 
L 581 3500 
L 1159 3500 
L 1159 2956 
Q 1366 3272 1645 3428 
Q 1925 3584 2291 3584 
Q 2894 3584 3203 3211 
Q 3513 2838 3513 2113 
z
" transform="scale(0.015625)"/>
       <path id="DejaVuSans-75" d="M 544 1381 
L 544 3500 
L 1119 3500 
L 1119 1403 
Q 1119 906 1312 657 
Q 1506 409 1894 409 
Q 2359 409 2629 706 
Q 2900 1003 2900 1516 
L 2900 3500 
L 3475 3500 
L 3475 0 
L 2900 0 
L 2900 538 
Q 2691 219 2414 64 
Q 2138 -91 1772 -91 
Q 1169 -91 856 284 
Q 544 659 544 1381 
z
M 1991 3584 
L 1991 3584 
z
" transform="scale(0.015625)"/>
       <path id="DejaVuSans-74" d="M 1172 4494 
L 1172 3500 
L 2356 3500 
L 2356 3053 
L 1172 3053 
L 1172 1153 
Q 1172 725 1289 603 
Q 1406 481 1766 481 
L 2356 481 
L 2356 0 
L 1766 0 
Q 1100 0 847 248 
Q 594 497 594 1153 
L 594 3053 
L 172 3053 
L 172 3500 
L 594 3500 
L 594 4494 
L 1172 4494 
z
" transform="scale(0.015625)"/>
       <path id="DejaVuSans-73" d="M 2834 3397 
L 2834 2853 
Q 2591 2978 2328 3040 
Q 2066 3103 1784 3103 
Q 1356 3103 1142 2972 
Q 928 2841 928 2578 
Q 928 2378 1081 2264 
Q 1234 2150 1697 2047 
L 1894 2003 
Q 2506 1872 2764 1633 
Q 3022 1394 3022 966 
Q 3022 478 2636 193 
Q 2250 -91 1575 -91 
Q 1294 -91 989 -36 
Q 684 19 347 128 
L 347 722 
Q 666 556 975 473 
Q 1284 391 1588 391 
Q 1994 391 2212 530 
Q 2431 669 2431 922 
Q 2431 1156 2273 1281 
Q 2116 1406 1581 1522 
L 1381 1569 
Q 847 1681 609 1914 
Q 372 2147 372 2553 
Q 372 3047 722 3315 
Q 1072 3584 1716 3584 
Q 2034 3584 2315 3537 
Q 2597 3491 2834 3397 
z
" transform="scale(0.015625)"/>
       <path id="DejaVuSans-29" d="M 513 4856 
L 1013 4856 
Q 1481 4119 1714 3412 
Q 1947 2706 1947 2009 
Q 1947 1309 1714 600 
Q 1481 -109 1013 -844 
L 513 -844 
Q 928 -128 1133 580 
Q 1338 1288 1338 2009 
Q 1338 2731 1133 3434 
Q 928 4138 513 4856 
z
" transform="scale(0.015625)"/>
      </defs>
      <use xlink:href="#DejaVuSans-54"/>
      <use xlink:href="#DejaVuSans-69" x="57.958984"/>
      <use xlink:href="#DejaVuSans-6d" x="85.742188"/>
      <use xlink:href="#DejaVuSans-65" x="183.154297"/>
      <use xlink:href="#DejaVuSans-20" x="244.677734"/>
      <use xlink:href="#DejaVuSans-28" x="276.464844"/>
      <use xlink:href="#DejaVuSans-4d" x="315.478516"/>
      <use xlink:href="#DejaVuSans-69" x="401.757812"/>
      <use xlink:href="#DejaVuSans-6e" x="429.541016"/>
      <use xlink:href="#DejaVuSans-75" x="492.919922"/>
      <use xlink:href="#DejaVuSans-74" x="556.298828"/>
      <use xlink:href="#DejaVuSans-65" x="595.507812"/>
      <use xlink:href="#DejaVuSans-73" x="657.03125"/>
      <use xlink:href="#DejaVuSans-29" x="709.130859"/>
     </g>
    </g>
   </g>
   <g id="matplotlib.axis_2">
    <g id="ytick_1">
     <g id="line2d_20">
      <path d="M 54.3 492.48 
L 390.96 492.48 
" clip-path="url(#p57703fca61)" style="fill: none; stroke: #cccccc; stroke-width: 0.8; stroke-linecap: round"/>
     </g>
     <g id="text_21">
      <!-- 0 -->
      <g style="fill: #262626" transform="translate(40.401 495.823312)scale(0.088 -0.088)">
       <use xlink:href="#DejaVuSans-30"/>
      </g>
     </g>
    </g>
    <g id="ytick_2">
     <g id="line2d_21">
      <path d="M 54.3 436.789392 
L 390.96 436.789392 
" clip-path="url(#p57703fca61)" style="fill: none; stroke: #cccccc; stroke-width: 0.8; stroke-linecap: round"/>
     </g>
     <g id="text_22">
      <!-- 100 -->
      <g style="fill: #262626" transform="translate(29.203 440.132705)scale(0.088 -0.088)">
       <use xlink:href="#DejaVuSans-31"/>
       <use xlink:href="#DejaVuSans-30" x="63.623047"/>
       <use xlink:href="#DejaVuSans-30" x="127.246094"/>
      </g>
     </g>
    </g>
    <g id="ytick_3">
     <g id="line2d_22">
      <path d="M 54.3 381.098785 
L 390.96 381.098785 
" clip-path="url(#p57703fca61)" style="fill: none; stroke: #cccccc; stroke-width: 0.8; stroke-linecap: round"/>
     </g>
     <g id="text_23">
      <!-- 200 -->
      <g style="fill: #262626" transform="translate(29.203 384.442097)scale(0.088 -0.088)">
       <use xlink:href="#DejaVuSans-32"/>
       <use xlink:href="#DejaVuSans-30" x="63.623047"/>
       <use xlink:href="#DejaVuSans-30" x="127.246094"/>
      </g>
     </g>
    </g>
    <g id="ytick_4">
     <g id="line2d_23">
      <path d="M 54.3 325.408177 
L 390.96 325.408177 
" clip-path="url(#p57703fca61)" style="fill: none; stroke: #cccccc; stroke-width: 0.8; stroke-linecap: round"/>
     </g>
     <g id="text_24">
      <!-- 300 -->
      <g style="fill: #262626" transform="translate(29.203 328.751489)scale(0.088 -0.088)">
       <use xlink:href="#DejaVuSans-33"/>
       <use xlink:href="#DejaVuSans-30" x="63.623047"/>
       <use xlink:href="#DejaVuSans-30" x="127.246094"/>
      </g>
     </g>
    </g>
    <g id="ytick_5">
     <g id="line2d_24">
      <path d="M 54.3 269.717569 
L 390.96 269.717569 
" clip-path="url(#p57703fca61)" style="fill: none; stroke: #cccccc; stroke-width: 0.8; stroke-linecap: round"/>
     </g>
     <g id="text_25">
      <!-- 400 -->
      <g style="fill: #262626" transform="translate(29.203 273.060882)scale(0.088 -0.088)">
       <use xlink:href="#DejaVuSans-34"/>
       <use xlink:href="#DejaVuSans-30" x="63.623047"/>
       <use xlink:href="#DejaVuSans-30" x="127.246094"/>
      </g>
     </g>
    </g>
    <g id="ytick_6">
     <g id="line2d_25">
      <path d="M 54.3 214.026961 
L 390.96 214.026961 
" clip-path="url(#p57703fca61)" style="fill: none; stroke: #cccccc; stroke-width: 0.8; stroke-linecap: round"/>
     </g>
     <g id="text_26">
      <!-- 500 -->
      <g style="fill: #262626" transform="translate(29.203 217.370274)scale(0.088 -0.088)">
       <use xlink:href="#DejaVuSans-35"/>
       <use xlink:href="#DejaVuSans-30" x="63.623047"/>
       <use xlink:href="#DejaVuSans-30" x="127.246094"/>
      </g>
     </g>
    </g>
    <g id="ytick_7">
     <g id="line2d_26">
      <path d="M 54.3 158.336354 
L 390.96 158.336354 
" clip-path="url(#p57703fca61)" style="fill: none; stroke: #cccccc; stroke-width: 0.8; stroke-linecap: round"/>
     </g>
     <g id="text_27">
      <!-- 600 -->
      <g style="fill: #262626" transform="translate(29.203 161.679666)scale(0.088 -0.088)">
       <use xlink:href="#DejaVuSans-36"/>
       <use xlink:href="#DejaVuSans-30" x="63.623047"/>
       <use xlink:href="#DejaVuSans-30" x="127.246094"/>
      </g>
     </g>
    </g>
    <g id="ytick_8">
     <g id="line2d_27">
      <path d="M 54.3 102.645746 
L 390.96 102.645746 
" clip-path="url(#p57703fca61)" style="fill: none; stroke: #cccccc; stroke-width: 0.8; stroke-linecap: round"/>
     </g>
     <g id="text_28">
      <!-- 700 -->
      <g style="fill: #262626" transform="translate(29.203 105.989058)scale(0.088 -0.088)">
       <use xlink:href="#DejaVuSans-37"/>
       <use xlink:href="#DejaVuSans-30" x="63.623047"/>
       <use xlink:href="#DejaVuSans-30" x="127.246094"/>
      </g>
     </g>
    </g>
    <g id="text_29">
     <!-- Edge Coverages -->
     <g style="fill: #262626" transform="translate(23.2065 329.98575)rotate(-90)scale(0.096 -0.096)">
      <defs>
       <path id="DejaVuSans-45" d="M 628 4666 
L 3578 4666 
L 3578 4134 
L 1259 4134 
L 1259 2753 
L 3481 2753 
L 3481 2222 
L 1259 2222 
L 1259 531 
L 3634 531 
L 3634 0 
L 628 0 
L 628 4666 
z
" transform="scale(0.015625)"/>
       <path id="DejaVuSans-64" d="M 2906 2969 
L 2906 4863 
L 3481 4863 
L 3481 0 
L 2906 0 
L 2906 525 
Q 2725 213 2448 61 
Q 2172 -91 1784 -91 
Q 1150 -91 751 415 
Q 353 922 353 1747 
Q 353 2572 751 3078 
Q 1150 3584 1784 3584 
Q 2172 3584 2448 3432 
Q 2725 3281 2906 2969 
z
M 947 1747 
Q 947 1113 1208 752 
Q 1469 391 1925 391 
Q 2381 391 2643 752 
Q 2906 1113 2906 1747 
Q 2906 2381 2643 2742 
Q 2381 3103 1925 3103 
Q 1469 3103 1208 2742 
Q 947 2381 947 1747 
z
" transform="scale(0.015625)"/>
       <path id="DejaVuSans-67" d="M 2906 1791 
Q 2906 2416 2648 2759 
Q 2391 3103 1925 3103 
Q 1463 3103 1205 2759 
Q 947 2416 947 1791 
Q 947 1169 1205 825 
Q 1463 481 1925 481 
Q 2391 481 2648 825 
Q 2906 1169 2906 1791 
z
M 3481 434 
Q 3481 -459 3084 -895 
Q 2688 -1331 1869 -1331 
Q 1566 -1331 1297 -1286 
Q 1028 -1241 775 -1147 
L 775 -588 
Q 1028 -725 1275 -790 
Q 1522 -856 1778 -856 
Q 2344 -856 2625 -561 
Q 2906 -266 2906 331 
L 2906 616 
Q 2728 306 2450 153 
Q 2172 0 1784 0 
Q 1141 0 747 490 
Q 353 981 353 1791 
Q 353 2603 747 3093 
Q 1141 3584 1784 3584 
Q 2172 3584 2450 3431 
Q 2728 3278 2906 2969 
L 2906 3500 
L 3481 3500 
L 3481 434 
z
" transform="scale(0.015625)"/>
       <path id="DejaVuSans-43" d="M 4122 4306 
L 4122 3641 
Q 3803 3938 3442 4084 
Q 3081 4231 2675 4231 
Q 1875 4231 1450 3742 
Q 1025 3253 1025 2328 
Q 1025 1406 1450 917 
Q 1875 428 2675 428 
Q 3081 428 3442 575 
Q 3803 722 4122 1019 
L 4122 359 
Q 3791 134 3420 21 
Q 3050 -91 2638 -91 
Q 1578 -91 968 557 
Q 359 1206 359 2328 
Q 359 3453 968 4101 
Q 1578 4750 2638 4750 
Q 3056 4750 3426 4639 
Q 3797 4528 4122 4306 
z
" transform="scale(0.015625)"/>
       <path id="DejaVuSans-6f" d="M 1959 3097 
Q 1497 3097 1228 2736 
Q 959 2375 959 1747 
Q 959 1119 1226 758 
Q 1494 397 1959 397 
Q 2419 397 2687 759 
Q 2956 1122 2956 1747 
Q 2956 2369 2687 2733 
Q 2419 3097 1959 3097 
z
M 1959 3584 
Q 2709 3584 3137 3096 
Q 3566 2609 3566 1747 
Q 3566 888 3137 398 
Q 2709 -91 1959 -91 
Q 1206 -91 779 398 
Q 353 888 353 1747 
Q 353 2609 779 3096 
Q 1206 3584 1959 3584 
z
" transform="scale(0.015625)"/>
       <path id="DejaVuSans-76" d="M 191 3500 
L 800 3500 
L 1894 563 
L 2988 3500 
L 3597 3500 
L 2284 0 
L 1503 0 
L 191 3500 
z
" transform="scale(0.015625)"/>
       <path id="DejaVuSans-72" d="M 2631 2963 
Q 2534 3019 2420 3045 
Q 2306 3072 2169 3072 
Q 1681 3072 1420 2755 
Q 1159 2438 1159 1844 
L 1159 0 
L 581 0 
L 581 3500 
L 1159 3500 
L 1159 2956 
Q 1341 3275 1631 3429 
Q 1922 3584 2338 3584 
Q 2397 3584 2469 3576 
Q 2541 3569 2628 3553 
L 2631 2963 
z
" transform="scale(0.015625)"/>
       <path id="DejaVuSans-61" d="M 2194 1759 
Q 1497 1759 1228 1600 
Q 959 1441 959 1056 
Q 959 750 1161 570 
Q 1363 391 1709 391 
Q 2188 391 2477 730 
Q 2766 1069 2766 1631 
L 2766 1759 
L 2194 1759 
z
M 3341 1997 
L 3341 0 
L 2766 0 
L 2766 531 
Q 2569 213 2275 61 
Q 1981 -91 1556 -91 
Q 1019 -91 701 211 
Q 384 513 384 1019 
Q 384 1609 779 1909 
Q 1175 2209 1959 2209 
L 2766 2209 
L 2766 2266 
Q 2766 2663 2505 2880 
Q 2244 3097 1772 3097 
Q 1472 3097 1187 3025 
Q 903 2953 641 2809 
L 641 3341 
Q 956 3463 1253 3523 
Q 1550 3584 1831 3584 
Q 2591 3584 2966 3190 
Q 3341 2797 3341 1997 
z
" transform="scale(0.015625)"/>
      </defs>
      <use xlink:href="#DejaVuSans-45"/>
      <use xlink:href="#DejaVuSans-64" x="63.183594"/>
      <use xlink:href="#DejaVuSans-67" x="126.660156"/>
      <use xlink:href="#DejaVuSans-65" x="190.136719"/>
      <use xlink:href="#DejaVuSans-20" x="251.660156"/>
      <use xlink:href="#DejaVuSans-43" x="283.447266"/>
      <use xlink:href="#DejaVuSans-6f" x="353.271484"/>
      <use xlink:href="#DejaVuSans-76" x="414.453125"/>
      <use xlink:href="#DejaVuSans-65" x="473.632812"/>
      <use xlink:href="#DejaVuSans-72" x="535.15625"/>
      <use xlink:href="#DejaVuSans-61" x="576.269531"/>
      <use xlink:href="#DejaVuSans-67" x="637.548828"/>
      <use xlink:href="#DejaVuSans-65" x="701.025391"/>
      <use xlink:href="#DejaVuSans-73" x="762.548828"/>
     </g>
    </g>
   </g>
   <g id="PolyCollection_1">
    <defs>
     <path id="m6939b369e8" d="M 69.602727 -96.885746 
L 69.602727 -83.52 
L 69.602727 -96.885746 
L 69.602727 -96.885746 
z
" style="stroke: #db5f57; stroke-opacity: 0.2; stroke-width: 0.8"/>
    </defs>
    <g clip-path="url(#p57703fca61)">
     <use xlink:href="#m6939b369e8" x="0" y="576" style="fill: #db5f57; fill-opacity: 0.2; stroke: #db5f57; stroke-opacity: 0.2; stroke-width: 0.8"/>
    </g>
   </g>
   <g id="PolyCollection_2">
    <defs>
     <path id="m6d485f07b6" d="M 69.602727 -120.832707 
L 69.602727 -83.52 
L 69.602727 -120.832707 
L 69.602727 -120.832707 
z
" style="stroke: #b9db57; stroke-opacity: 0.2; stroke-width: 0.8"/>
    </defs>
    <g clip-path="url(#p57703fca61)">
     <use xlink:href="#m6d485f07b6" x="0" y="576" style="fill: #b9db57; fill-opacity: 0.2; stroke: #b9db57; stroke-opacity: 0.2; stroke-width: 0.8"/>
    </g>
   </g>
   <g id="PolyCollection_3">
    <defs>
     <path id="mcaa7b1c763" d="M 69.602727 -111.365304 
L 69.602727 -83.52 
L 69.602727 -111.365304 
L 69.602727 -111.365304 
z
" style="stroke: #57db94; stroke-opacity: 0.2; stroke-width: 0.8"/>
    </defs>
    <g clip-path="url(#p57703fca61)">
     <use xlink:href="#mcaa7b1c763" x="0" y="576" style="fill: #57db94; fill-opacity: 0.2; stroke: #57db94; stroke-opacity: 0.2; stroke-width: 0.8"/>
    </g>
   </g>
   <g id="PolyCollection_4">
    <defs>
     <path id="m677d6580e1" d="M 69.602727 -92.430497 
L 69.602727 -83.52 
L 69.602727 -92.430497 
L 69.602727 -92.430497 
z
" style="stroke: #5784db; stroke-opacity: 0.2; stroke-width: 0.8"/>
    </defs>
    <g clip-path="url(#p57703fca61)">
     <use xlink:href="#m677d6580e1" x="0" y="576" style="fill: #5784db; fill-opacity: 0.2; stroke: #5784db; stroke-opacity: 0.2; stroke-width: 0.8"/>
    </g>
   </g>
   <g id="PolyCollection_5">
    <defs>
     <path id="ma12a196280" d="M 69.602727 -121.946519 
L 69.602727 -83.52 
L 69.602727 -121.946519 
L 69.602727 -121.946519 
z
" style="stroke: #c957db; stroke-opacity: 0.2; stroke-width: 0.8"/>
    </defs>
    <g clip-path="url(#p57703fca61)">
     <use xlink:href="#ma12a196280" x="0" y="576" style="fill: #c957db; fill-opacity: 0.2; stroke: #c957db; stroke-opacity: 0.2; stroke-width: 0.8"/>
    </g>
   </g>
   <g id="line2d_28">
    <path d="M 69.602727 485.797127 
L 69.815561 478.557348 
L 70.241228 476.329724 
L 71.092562 476.329724 
L 71.305395 444.029171 
L 71.731062 417.854586 
L 71.943896 415.070055 
L 72.369563 405.045746 
L 72.582396 404.48884 
L 73.220896 401.704309 
L 73.43373 401.704309 
L 73.646563 401.147403 
L 73.859397 398.919779 
L 74.07223 398.362873 
L 74.285064 398.362873 
L 74.497897 397.805967 
L 74.923564 385.554033 
L 75.349231 383.883315 
L 75.562065 383.883315 
L 75.774898 383.326409 
L 75.987732 382.212597 
L 76.200565 382.212597 
L 76.413399 381.655691 
L 76.626232 381.655691 
L 76.839066 380.541878 
L 77.264733 380.541878 
L 77.477566 379.984972 
L 77.6904 374.415912 
L 77.903233 361.050166 
L 78.541733 359.379448 
L 78.754567 359.379448 
L 78.9674 358.822541 
L 81.095735 358.822541 
L 81.734236 351.582762 
L 81.947069 351.025856 
L 82.159903 351.025856 
L 82.58557 349.912044 
L 82.798403 348.798232 
L 85.778072 348.798232 
L 85.990905 346.013702 
L 86.203739 341.001547 
L 86.416572 338.773923 
L 88.544907 338.773923 
L 89.183408 335.989392 
L 89.396241 335.432486 
L 89.609074 335.432486 
L 89.821908 334.87558 
L 90.247575 334.87558 
L 90.460408 333.204862 
L 90.886075 332.09105 
L 91.098909 332.09105 
L 91.311742 331.534144 
L 91.737409 331.534144 
L 91.950243 330.420331 
L 92.37591 330.420331 
L 92.588743 325.965083 
L 92.801577 325.965083 
L 93.01441 325.408177 
L 93.227244 324.294365 
L 93.440077 324.294365 
L 93.652911 323.737459 
L 95.568412 323.737459 
L 95.781245 310.928619 
L 95.994079 310.928619 
L 96.206912 310.371713 
L 96.845413 310.371713 
L 97.058246 307.587182 
L 97.483913 307.587182 
L 97.696747 307.030276 
L 97.90958 302.018122 
L 98.335247 302.018122 
L 98.548081 299.233591 
L 98.973748 299.233591 
L 99.186581 292.550718 
L 99.825082 292.550718 
L 100.037915 291.993812 
L 100.250749 289.766188 
L 100.889249 289.766188 
L 101.102082 284.197127 
L 101.527749 284.197127 
L 101.740583 270.831381 
L 102.16625 270.831381 
L 102.379083 267.489945 
L 104.507418 267.489945 
L 104.720252 259.69326 
L 107.06142 259.69326 
L 107.274253 258.022541 
L 108.338421 258.022541 
L 108.551254 256.908729 
L 109.402588 256.908729 
L 109.615422 255.794917 
L 110.679589 255.794917 
L 110.892423 253.010387 
L 111.743756 253.010387 
L 111.95659 250.782762 
L 116.85176 250.782762 
L 117.064594 250.225856 
L 131.324437 250.225856 
L 131.53727 227.392707 
L 132.175771 227.392707 
L 132.388604 225.721989 
L 134.516939 225.721989 
L 134.942606 222.937459 
L 135.79394 222.937459 
L 136.006773 221.823646 
L 140.68911 221.823646 
L 140.901943 214.026961 
L 143.881612 214.026961 
L 144.094446 209.014807 
L 146.648447 209.014807 
L 147.074114 193.978343 
L 157.715788 193.978343 
L 157.928622 193.421436 
L 159.63129 193.421436 
L 159.844123 180.055691 
L 162.398125 180.055691 
L 162.610958 178.384972 
L 165.16496 178.384972 
L 165.377794 177.27116 
L 169.847297 177.27116 
L 170.06013 175.600442 
L 174.3168 175.600442 
L 174.529633 172.259006 
L 210.498492 172.259006 
L 210.924159 157.222541 
L 215.180828 157.222541 
L 215.606495 156.108729 
L 216.883496 156.108729 
L 217.096329 154.438011 
L 217.309163 153.881105 
L 217.521996 153.881105 
L 217.73483 153.324199 
L 221.565833 153.324199 
L 221.778666 151.653481 
L 224.758335 151.653481 
L 224.971168 147.755138 
L 241.997847 147.755138 
L 242.21068 146.08442 
L 242.423514 145.527514 
L 245.190349 145.527514 
L 245.403182 144.970608 
L 246.680183 144.970608 
L 246.893017 144.413702 
L 252.00102 144.413702 
L 252.213854 143.856796 
L 252.852354 143.856796 
L 253.065188 141.629171 
L 257.534691 141.629171 
L 257.747524 138.287735 
L 319.682067 138.287735 
L 319.894901 137.173923 
L 320.107734 134.946298 
L 323.51307 134.946298 
L 323.725903 134.389392 
L 323.938737 134.389392 
L 324.364404 131.047956 
L 328.833907 131.047956 
L 329.259574 127.706519 
L 331.813576 127.706519 
L 332.026409 126.592707 
L 338.624247 126.592707 
L 338.837081 126.035801 
L 346.711919 126.035801 
L 346.924753 123.251271 
L 350.755755 123.251271 
L 350.968589 122.694365 
L 353.735424 122.694365 
L 353.948258 122.137459 
L 357.353593 122.137459 
L 357.566427 119.352928 
L 358.204927 119.352928 
L 358.417761 118.796022 
L 360.546096 118.796022 
L 360.758929 115.454586 
L 367.356767 115.454586 
L 367.5696 114.89768 
L 375.657273 114.89768 
L 375.657273 114.89768 
" clip-path="url(#p57703fca61)" style="fill: none; stroke: #db5f57; stroke-width: 1.2; stroke-linecap: round"/>
   </g>
   <g id="line2d_29">
    <path d="M 69.602727 473.823646 
L 69.815561 443.472265 
L 70.028394 436.232486 
L 70.241228 435.118674 
L 70.666895 422.86674 
L 71.305395 418.968398 
L 71.731062 415.626961 
L 71.943896 415.626961 
L 72.369563 414.513149 
L 72.582396 414.513149 
L 73.220896 410.057901 
L 73.646563 408.387182 
L 74.497897 392.793812 
L 74.710731 392.793812 
L 75.349231 391.123094 
L 75.562065 391.123094 
L 75.774898 390.009282 
L 75.987732 379.984972 
L 76.200565 378.87116 
L 76.413399 376.08663 
L 76.626232 376.08663 
L 76.839066 372.745193 
L 77.477566 369.403757 
L 78.541733 369.403757 
L 78.754567 368.846851 
L 79.180234 368.846851 
L 79.393067 367.176133 
L 79.605901 361.607072 
L 79.818734 361.607072 
L 80.031568 360.49326 
L 80.457235 360.49326 
L 81.095735 358.822541 
L 82.372736 358.822541 
L 82.58557 354.924199 
L 82.798403 354.367293 
L 83.649737 354.367293 
L 83.86257 353.253481 
L 84.288237 353.253481 
L 84.501071 352.696575 
L 87.906407 352.696575 
L 88.11924 352.139669 
L 90.886075 352.139669 
L 91.098909 351.025856 
L 91.524576 351.025856 
L 91.950243 349.912044 
L 92.588743 349.912044 
L 92.801577 349.355138 
L 93.227244 349.355138 
L 93.440077 348.241326 
L 93.865744 327.635801 
L 94.078578 326.521989 
L 94.504245 326.521989 
L 94.929911 323.180552 
L 95.781245 323.180552 
L 95.994079 322.623646 
L 96.206912 322.623646 
L 96.419746 313.713149 
L 96.632579 313.156243 
L 96.845413 313.156243 
L 97.058246 312.599337 
L 97.483913 312.599337 
L 97.696747 312.042431 
L 97.90958 304.802652 
L 98.335247 304.802652 
L 98.548081 304.245746 
L 98.973748 304.245746 
L 99.186581 294.778343 
L 100.676415 294.778343 
L 100.889249 288.652376 
L 101.314916 288.652376 
L 101.527749 275.28663 
L 101.740583 271.945193 
L 102.80475 271.945193 
L 103.017584 269.717569 
L 103.230417 269.160663 
L 104.507418 269.160663 
L 104.720252 264.705414 
L 105.358752 264.705414 
L 105.571586 263.591602 
L 105.784419 263.591602 
L 105.997252 263.034696 
L 108.125587 263.034696 
L 108.764088 261.363978 
L 109.615422 261.363978 
L 109.828255 260.807072 
L 110.041089 258.022541 
L 111.743756 258.022541 
L 111.95659 255.794917 
L 112.169423 255.238011 
L 120.257096 255.238011 
L 120.469929 248.555138 
L 121.321263 248.555138 
L 121.534097 245.770608 
L 123.875265 245.770608 
L 124.088098 237.417017 
L 125.152266 237.417017 
L 125.365099 236.86011 
L 126.0036 236.86011 
L 126.216433 235.746298 
L 127.919101 235.746298 
L 128.131935 235.189392 
L 128.557601 235.189392 
L 128.770435 234.07558 
L 130.047436 234.07558 
L 130.260269 233.518674 
L 131.324437 233.518674 
L 131.53727 231.847956 
L 131.750104 231.847956 
L 131.962937 230.734144 
L 134.516939 230.734144 
L 134.942606 229.620331 
L 135.155439 229.620331 
L 135.368273 229.063425 
L 135.581106 229.063425 
L 135.79394 226.835801 
L 137.283774 226.835801 
L 137.496608 223.494365 
L 138.135108 223.494365 
L 138.347942 222.937459 
L 138.986442 222.937459 
L 139.199276 219.039116 
L 140.68911 219.039116 
L 140.901943 218.48221 
L 141.32761 218.48221 
L 141.540444 217.925304 
L 142.178944 217.925304 
L 142.391778 216.811492 
L 143.243112 216.811492 
L 143.455945 215.140773 
L 143.668779 215.140773 
L 144.520113 211.242431 
L 144.732946 206.787182 
L 144.945779 206.787182 
L 145.158613 206.230276 
L 145.58428 204.002652 
L 146.648447 204.002652 
L 146.861281 198.433591 
L 148.138282 198.433591 
L 148.351115 197.876685 
L 151.969284 197.876685 
L 152.182118 197.319779 
L 154.097619 197.319779 
L 154.310453 195.649061 
L 154.523286 195.649061 
L 154.73612 195.092155 
L 155.800287 195.092155 
L 156.01312 194.535249 
L 156.438787 194.535249 
L 156.651621 193.421436 
L 157.077288 193.421436 
L 157.290121 192.307624 
L 157.715788 192.307624 
L 158.141455 188.966188 
L 158.567122 188.966188 
L 158.779956 186.738564 
L 159.418456 186.738564 
L 159.63129 185.624751 
L 161.333958 185.624751 
L 161.546791 185.067845 
L 162.823792 185.067845 
L 163.036625 182.840221 
L 166.229128 182.840221 
L 166.441961 182.283315 
L 168.570296 182.283315 
L 168.995963 181.169503 
L 169.634463 181.169503 
L 169.847297 180.612597 
L 170.698631 180.612597 
L 170.911464 180.055691 
L 171.124298 180.055691 
L 171.337131 179.498785 
L 172.826965 179.498785 
L 173.039799 178.941878 
L 173.252632 178.941878 
L 173.465466 177.828066 
L 174.103966 177.828066 
L 174.3168 177.27116 
L 174.529633 177.27116 
L 174.9553 176.157348 
L 176.019468 176.157348 
L 176.232301 175.600442 
L 177.296469 175.600442 
L 177.722136 174.48663 
L 178.147803 174.48663 
L 178.360636 173.929724 
L 178.573469 173.929724 
L 178.786303 173.372818 
L 178.999136 173.372818 
L 179.21197 172.815912 
L 179.424803 172.815912 
L 179.637637 172.259006 
L 183.255806 172.259006 
L 183.46864 171.702099 
L 185.384141 171.702099 
L 185.596974 170.031381 
L 189.427977 170.031381 
L 189.64081 169.474475 
L 189.853644 169.474475 
L 190.066477 168.917569 
L 193.25898 168.917569 
L 193.471813 166.689945 
L 201.346652 166.689945 
L 201.559485 166.133039 
L 203.262153 166.133039 
L 203.474987 165.019227 
L 205.177655 165.019227 
L 205.390488 163.905414 
L 207.731656 163.905414 
L 207.94449 162.234696 
L 215.606495 162.234696 
L 215.819329 161.67779 
L 217.521996 161.67779 
L 217.73483 159.450166 
L 219.224664 159.450166 
L 219.437498 158.89326 
L 221.9915 158.89326 
L 222.204333 157.222541 
L 222.417167 156.665635 
L 222.63 156.665635 
L 222.842833 155.551823 
L 223.2685 155.551823 
L 223.481334 154.994917 
L 237.31551 154.994917 
L 237.741177 153.881105 
L 240.295179 153.881105 
L 240.508012 153.324199 
L 241.785013 153.324199 
L 241.997847 152.767293 
L 244.977515 152.767293 
L 245.190349 152.210387 
L 245.403182 152.210387 
L 245.616016 151.653481 
L 252.852354 151.653481 
L 253.065188 149.982762 
L 254.980689 149.982762 
L 255.193523 148.312044 
L 255.406356 148.312044 
L 255.61919 147.198232 
L 267.112197 147.198232 
L 267.325031 146.641326 
L 275.412703 146.641326 
L 275.625537 146.08442 
L 277.966705 146.08442 
L 278.179539 145.527514 
L 300.952721 145.527514 
L 301.165554 144.970608 
L 303.081056 144.970608 
L 303.293889 144.413702 
L 310.530228 144.413702 
L 310.743061 143.29989 
L 320.533401 143.29989 
L 320.746235 142.742983 
L 323.725903 142.742983 
L 324.15157 139.958453 
L 325.215738 139.958453 
L 325.428571 139.401547 
L 325.854238 139.401547 
L 326.067072 137.173923 
L 326.492739 137.173923 
L 326.705572 136.617017 
L 327.344073 136.617017 
L 327.556906 136.06011 
L 330.323741 136.06011 
L 330.536575 135.503204 
L 330.749408 135.503204 
L 330.962242 134.946298 
L 335.857412 134.946298 
L 336.070245 134.389392 
L 337.772913 134.389392 
L 337.985747 133.832486 
L 346.073419 133.832486 
L 346.286252 132.161768 
L 346.499086 132.161768 
L 346.711919 131.047956 
L 347.563253 131.047956 
L 347.776087 130.49105 
L 350.755755 130.49105 
L 350.968589 129.934144 
L 356.715093 129.934144 
L 356.927926 129.377238 
L 357.14076 127.149613 
L 357.992094 127.149613 
L 358.204927 126.035801 
L 359.056261 126.035801 
L 359.269095 124.921989 
L 359.694762 124.921989 
L 359.907595 124.365083 
L 360.333262 124.365083 
L 360.546096 123.808177 
L 371.82627 123.808177 
L 372.039104 123.251271 
L 375.657273 123.251271 
L 375.657273 123.251271 
" clip-path="url(#p57703fca61)" style="fill: none; stroke: #b9db57; stroke-width: 1.2; stroke-linecap: round"/>
   </g>
   <g id="line2d_30">
    <path d="M 69.602727 478.557348 
L 69.815561 448.48442 
L 70.028394 443.472265 
L 70.241228 441.244641 
L 70.454061 436.789392 
L 70.666895 435.118674 
L 70.879728 419.525304 
L 71.092562 417.854586 
L 71.305395 417.29768 
L 71.518229 413.956243 
L 71.943896 412.842431 
L 72.369563 406.159558 
L 72.795229 401.147403 
L 73.220896 397.805967 
L 73.43373 397.805967 
L 74.285064 386.667845 
L 74.710731 385.554033 
L 75.349231 382.769503 
L 75.774898 381.655691 
L 75.987732 381.655691 
L 76.413399 380.541878 
L 77.264733 380.541878 
L 77.6904 377.757348 
L 77.903233 374.415912 
L 78.116067 373.859006 
L 78.3289 372.745193 
L 79.393067 372.745193 
L 79.605901 372.188287 
L 79.818734 372.188287 
L 80.031568 369.403757 
L 80.457235 352.139669 
L 81.734236 352.139669 
L 82.159903 351.025856 
L 83.649737 351.025856 
L 83.86257 348.798232 
L 85.139571 348.798232 
L 85.778072 347.127514 
L 85.990905 347.127514 
L 86.416572 346.013702 
L 86.842239 344.342983 
L 87.267906 344.342983 
L 87.48074 343.786077 
L 88.332074 343.786077 
L 88.757741 341.558453 
L 88.970574 341.558453 
L 89.183408 341.001547 
L 89.396241 339.887735 
L 90.034741 339.887735 
L 90.247575 339.330829 
L 90.460408 339.330829 
L 90.673242 338.773923 
L 91.524576 338.773923 
L 91.950243 329.306519 
L 93.440077 329.306519 
L 93.652911 328.749613 
L 93.865744 328.749613 
L 94.078578 315.940773 
L 94.504245 312.599337 
L 94.717078 311.485525 
L 94.929911 311.485525 
L 95.568412 309.814807 
L 95.994079 309.814807 
L 96.206912 309.257901 
L 97.058246 309.257901 
L 97.27108 308.700994 
L 97.483913 308.700994 
L 97.90958 307.030276 
L 100.463582 307.030276 
L 100.676415 294.778343 
L 100.889249 289.766188 
L 101.740583 289.766188 
L 101.953416 289.209282 
L 103.443251 289.209282 
L 103.656084 263.034696 
L 105.571586 263.034696 
L 105.997252 261.920884 
L 106.210086 261.920884 
L 106.422919 261.363978 
L 106.848586 261.363978 
L 107.06142 260.807072 
L 113.659258 260.807072 
L 114.084925 253.567293 
L 117.49026 253.567293 
L 117.703094 253.010387 
L 117.915927 253.010387 
L 118.128761 251.339669 
L 119.618595 251.339669 
L 119.831429 250.782762 
L 121.10843 250.782762 
L 121.534097 242.986077 
L 121.74693 242.986077 
L 121.959764 236.86011 
L 122.172597 236.303204 
L 127.919101 236.303204 
L 128.131935 235.746298 
L 130.260269 235.746298 
L 130.685936 234.632486 
L 133.027105 234.632486 
L 133.239938 233.518674 
L 133.452772 225.721989 
L 134.091272 225.721989 
L 134.304105 224.051271 
L 134.729772 224.051271 
L 134.942606 222.937459 
L 136.006773 222.937459 
L 136.219607 221.823646 
L 140.901943 221.823646 
L 141.114777 221.26674 
L 141.32761 212.913149 
L 141.540444 212.913149 
L 141.966111 211.799337 
L 143.455945 211.799337 
L 143.668779 211.242431 
L 145.58428 211.242431 
L 145.797113 209.014807 
L 146.648447 209.014807 
L 146.861281 197.319779 
L 149.628116 197.319779 
L 149.84095 193.421436 
L 155.800287 193.421436 
L 156.01312 192.86453 
L 156.225954 189.523094 
L 158.354289 189.523094 
L 158.567122 185.067845 
L 161.333958 185.067845 
L 161.546791 180.612597 
L 161.972458 180.612597 
L 162.185291 180.055691 
L 162.823792 180.055691 
L 163.036625 179.498785 
L 163.249459 178.384972 
L 165.377794 178.384972 
L 165.590627 177.828066 
L 165.803461 177.828066 
L 166.016294 177.27116 
L 170.272964 177.27116 
L 170.485797 176.157348 
L 170.698631 173.929724 
L 170.911464 173.929724 
L 171.124298 173.372818 
L 173.465466 173.372818 
L 173.678299 172.815912 
L 177.296469 172.815912 
L 177.509302 172.259006 
L 178.360636 172.259006 
L 178.573469 171.702099 
L 178.786303 166.689945 
L 181.127471 166.689945 
L 181.340305 166.133039 
L 182.617306 166.133039 
L 182.830139 165.576133 
L 183.255806 165.576133 
L 183.46864 165.019227 
L 184.10714 165.019227 
L 184.319973 164.46232 
L 184.532807 164.46232 
L 184.74564 163.905414 
L 185.171307 163.905414 
L 185.384141 163.348508 
L 189.64081 163.348508 
L 189.853644 162.791602 
L 190.066477 162.791602 
L 190.279311 162.234696 
L 191.343478 162.234696 
L 191.556312 161.67779 
L 191.769145 161.67779 
L 191.981979 161.120884 
L 192.620479 161.120884 
L 192.833313 160.563978 
L 199.431151 160.563978 
L 199.643984 159.450166 
L 200.069651 159.450166 
L 200.282485 158.89326 
L 203.900654 158.89326 
L 204.326321 157.222541 
L 210.072825 157.222541 
L 210.285658 156.665635 
L 214.329494 156.665635 
L 214.755161 155.551823 
L 214.967995 154.438011 
L 216.670663 154.438011 
L 216.883496 152.767293 
L 217.521996 151.096575 
L 217.73483 151.096575 
L 218.160497 148.86895 
L 219.224664 148.86895 
L 219.437498 148.312044 
L 221.9915 148.312044 
L 222.204333 147.755138 
L 224.545501 147.755138 
L 224.971168 146.641326 
L 225.822502 146.641326 
L 226.035336 146.08442 
L 231.356173 146.08442 
L 231.569006 145.527514 
L 237.102677 145.527514 
L 237.31551 144.413702 
L 237.528344 144.413702 
L 237.741177 143.856796 
L 243.062014 143.856796 
L 243.274848 143.29989 
L 254.555022 143.29989 
L 254.767856 142.742983 
L 254.980689 141.629171 
L 255.193523 141.629171 
L 255.406356 140.515359 
L 255.832023 140.515359 
L 256.044856 139.958453 
L 259.237359 139.958453 
L 259.450192 139.401547 
L 267.537864 139.401547 
L 267.750698 138.844641 
L 271.368867 138.844641 
L 271.794534 136.06011 
L 275.19987 136.06011 
L 275.412703 135.503204 
L 279.030872 135.503204 
L 279.243706 134.946298 
L 284.777376 134.946298 
L 285.203043 133.832486 
L 304.996557 133.832486 
L 305.209391 133.27558 
L 310.104561 133.27558 
L 310.317394 132.161768 
L 315.212564 132.161768 
L 315.638231 131.047956 
L 343.945084 131.047956 
L 344.583585 116.568398 
L 349.053088 116.568398 
L 349.265921 116.011492 
L 351.394256 116.011492 
L 351.607089 113.783867 
L 354.373925 113.783867 
L 354.586758 112.670055 
L 354.799592 112.670055 
L 355.438092 110.999337 
L 357.77926 110.999337 
L 358.204927 109.885525 
L 358.417761 108.214807 
L 360.971763 108.214807 
L 361.184596 107.657901 
L 366.718267 107.657901 
L 366.9311 107.100994 
L 375.657273 107.100994 
L 375.657273 107.100994 
" clip-path="url(#p57703fca61)" style="fill: none; stroke: #57db94; stroke-width: 1.2; stroke-linecap: round"/>
   </g>
   <g id="line2d_31">
    <path d="M 69.602727 488.024751 
L 69.815561 482.455691 
L 70.241228 445.69989 
L 70.454061 445.142983 
L 70.879728 441.801547 
L 71.305395 438.46011 
L 71.731062 430.663425 
L 71.943896 420.08221 
L 72.156729 417.29768 
L 72.369563 417.29768 
L 73.008063 415.626961 
L 73.43373 413.956243 
L 73.646563 413.399337 
L 73.859397 411.728619 
L 74.497897 410.057901 
L 74.710731 408.944088 
L 75.136398 408.944088 
L 75.349231 407.830276 
L 75.774898 398.362873 
L 75.987732 391.68 
L 76.413399 390.566188 
L 76.626232 390.566188 
L 76.839066 390.009282 
L 77.477566 390.009282 
L 77.6904 388.338564 
L 78.116067 387.224751 
L 78.3289 387.224751 
L 78.541733 386.110939 
L 78.9674 386.110939 
L 79.180234 381.655691 
L 79.393067 372.745193 
L 79.818734 372.745193 
L 80.031568 370.517569 
L 80.457235 369.403757 
L 81.095735 369.403757 
L 81.308569 367.176133 
L 81.521402 367.176133 
L 81.734236 366.619227 
L 83.22407 366.619227 
L 83.436904 364.391602 
L 83.86257 363.27779 
L 84.501071 363.27779 
L 84.713904 362.720884 
L 84.926738 361.607072 
L 85.139571 361.607072 
L 86.203739 356.594917 
L 86.416572 356.594917 
L 86.629406 353.810387 
L 90.247575 353.810387 
L 90.460408 352.139669 
L 90.673242 348.241326 
L 92.801577 348.241326 
L 93.227244 341.001547 
L 94.078578 341.001547 
L 94.291411 340.444641 
L 95.781245 340.444641 
L 95.994079 327.078895 
L 100.463582 327.078895 
L 100.676415 326.521989 
L 102.80475 326.521989 
L 103.017584 294.778343 
L 103.230417 289.766188 
L 113.872091 289.766188 
L 114.084925 278.628066 
L 114.297758 274.729724 
L 118.341594 274.729724 
L 118.554428 274.172818 
L 119.831429 274.172818 
L 120.044262 273.615912 
L 120.895596 273.615912 
L 121.10843 266.933039 
L 127.067767 266.933039 
L 127.280601 266.376133 
L 127.493434 263.034696 
L 127.706268 254.124199 
L 127.919101 253.567293 
L 130.89877 253.567293 
L 131.111603 250.225856 
L 135.155439 250.225856 
L 135.368273 249.112044 
L 135.581106 245.213702 
L 138.560775 245.213702 
L 138.773609 240.758453 
L 141.540444 240.758453 
L 141.753277 240.201547 
L 142.604611 240.201547 
L 142.817445 234.07558 
L 143.243112 232.961768 
L 143.668779 232.961768 
L 143.881612 231.29105 
L 149.415283 231.29105 
L 149.628116 219.596022 
L 149.84095 215.69768 
L 160.908291 215.69768 
L 161.121124 203.445746 
L 163.036625 203.445746 
L 163.249459 200.661215 
L 163.462292 200.104309 
L 166.867628 200.104309 
L 167.080461 199.547403 
L 170.911464 199.547403 
L 171.124298 195.649061 
L 173.039799 195.649061 
L 173.252632 195.092155 
L 174.742467 195.092155 
L 174.9553 194.535249 
L 177.722136 194.535249 
L 178.147803 189.523094 
L 180.488971 189.523094 
L 180.701804 188.966188 
L 181.978805 188.966188 
L 182.191639 187.29547 
L 188.789477 187.29547 
L 189.00231 185.067845 
L 204.539154 185.067845 
L 204.751988 179.498785 
L 209.859991 179.498785 
L 210.072825 178.384972 
L 210.924159 178.384972 
L 211.136992 177.828066 
L 212.201159 177.828066 
L 212.413993 177.27116 
L 228.802171 177.27116 
L 229.015004 171.145193 
L 229.227838 169.474475 
L 237.954011 169.474475 
L 238.166844 168.917569 
L 238.805345 168.917569 
L 239.018178 167.803757 
L 245.616016 167.803757 
L 245.828849 167.246851 
L 256.044856 167.246851 
L 256.25769 162.234696 
L 261.15286 162.234696 
L 261.365694 161.67779 
L 267.325031 161.67779 
L 267.537864 161.120884 
L 268.602032 161.120884 
L 268.814865 160.563978 
L 277.115371 160.563978 
L 277.328205 160.007072 
L 283.074709 160.007072 
L 283.287542 158.89326 
L 285.415877 158.89326 
L 285.62871 158.336354 
L 301.591221 158.336354 
L 301.804055 157.779448 
L 303.719556 157.779448 
L 303.93239 157.222541 
L 305.422224 157.222541 
L 305.635058 156.665635 
L 313.509896 156.665635 
L 313.72273 155.551823 
L 322.448903 155.551823 
L 322.661736 154.994917 
L 323.087403 154.994917 
L 323.300236 154.438011 
L 324.15157 154.438011 
L 324.364404 153.881105 
L 325.854238 153.881105 
L 326.067072 151.096575 
L 328.833907 151.096575 
L 329.04674 147.755138 
L 331.600742 147.755138 
L 331.813576 146.641326 
L 339.901248 146.641326 
L 340.114081 145.527514 
L 340.539748 145.527514 
L 340.752582 144.970608 
L 344.157918 144.970608 
L 344.370751 144.413702 
L 347.35042 144.413702 
L 347.563253 138.844641 
L 350.755755 138.844641 
L 350.968589 138.287735 
L 351.181422 138.287735 
L 351.394256 137.173923 
L 354.799592 137.173923 
L 355.012425 135.503204 
L 355.225259 134.946298 
L 361.39743 134.946298 
L 361.610263 131.047956 
L 366.505433 131.047956 
L 366.718267 130.49105 
L 375.657273 130.49105 
L 375.657273 130.49105 
" clip-path="url(#p57703fca61)" style="fill: none; stroke: #5784db; stroke-width: 1.2; stroke-linecap: round"/>
   </g>
   <g id="line2d_32">
    <path d="M 69.602727 473.26674 
L 69.815561 440.687735 
L 70.028394 431.777238 
L 70.241228 428.435801 
L 70.666895 415.070055 
L 70.879728 414.513149 
L 71.305395 410.614807 
L 71.731062 400.590497 
L 72.156729 389.452376 
L 72.369563 389.452376 
L 73.008063 386.667845 
L 73.43373 385.554033 
L 74.285064 376.643536 
L 74.497897 376.643536 
L 75.349231 372.745193 
L 75.562065 372.745193 
L 75.774898 372.188287 
L 76.413399 363.834696 
L 76.626232 363.834696 
L 76.839066 361.607072 
L 77.051899 361.050166 
L 77.264733 359.936354 
L 77.903233 354.367293 
L 78.754567 352.139669 
L 79.180234 352.139669 
L 79.393067 351.582762 
L 79.605901 350.46895 
L 79.818734 350.46895 
L 80.031568 348.241326 
L 80.244401 347.68442 
L 80.670068 347.68442 
L 81.095735 346.570608 
L 81.521402 346.570608 
L 82.159903 344.89989 
L 82.372736 344.89989 
L 82.798403 343.229171 
L 83.649737 343.229171 
L 83.86257 341.001547 
L 85.139571 341.001547 
L 85.778072 335.989392 
L 85.990905 335.989392 
L 86.203739 335.432486 
L 86.416572 333.761768 
L 86.629406 333.204862 
L 87.267906 333.204862 
L 87.48074 332.647956 
L 87.906407 332.647956 
L 88.11924 332.09105 
L 88.332074 332.09105 
L 88.757741 330.977238 
L 88.970574 330.977238 
L 89.183408 330.420331 
L 89.396241 328.749613 
L 89.609074 328.749613 
L 89.821908 328.192707 
L 90.034741 328.192707 
L 90.247575 327.635801 
L 90.460408 327.635801 
L 90.673242 327.078895 
L 90.886075 327.078895 
L 91.098909 326.521989 
L 91.524576 326.521989 
L 91.950243 325.408177 
L 92.37591 325.408177 
L 92.588743 320.952928 
L 93.01441 319.839116 
L 93.865744 315.383867 
L 94.504245 309.814807 
L 94.717078 308.144088 
L 95.142745 307.030276 
L 95.355578 307.030276 
L 95.568412 306.47337 
L 95.781245 306.47337 
L 95.994079 305.916464 
L 96.206912 305.916464 
L 96.419746 304.245746 
L 96.632579 303.68884 
L 96.845413 303.68884 
L 97.27108 302.575028 
L 97.483913 302.575028 
L 97.696747 302.018122 
L 97.90958 294.778343 
L 98.335247 294.778343 
L 98.548081 294.221436 
L 98.973748 294.221436 
L 99.186581 285.310939 
L 99.825082 285.310939 
L 100.037915 284.754033 
L 100.463582 284.754033 
L 100.676415 284.197127 
L 100.889249 279.184972 
L 101.314916 279.184972 
L 101.527749 265.819227 
L 101.740583 262.47779 
L 101.953416 261.920884 
L 102.80475 261.920884 
L 103.017584 259.69326 
L 103.230417 259.136354 
L 103.443251 259.136354 
L 103.656084 254.124199 
L 105.358752 254.124199 
L 105.997252 251.339669 
L 106.210086 251.339669 
L 106.422919 250.782762 
L 108.125587 250.782762 
L 108.764088 249.112044 
L 109.402588 249.112044 
L 109.828255 247.998232 
L 110.041089 245.770608 
L 111.743756 245.770608 
L 111.95659 243.542983 
L 112.169423 242.986077 
L 117.49026 242.986077 
L 117.703094 242.429171 
L 117.915927 242.429171 
L 118.128761 240.758453 
L 118.341594 240.758453 
L 118.554428 240.201547 
L 119.618595 240.201547 
L 120.044262 239.087735 
L 120.257096 239.087735 
L 120.469929 235.189392 
L 121.321263 235.189392 
L 121.534097 232.404862 
L 121.74693 232.404862 
L 121.959764 226.278895 
L 122.172597 225.721989 
L 123.875265 225.721989 
L 124.088098 223.494365 
L 125.152266 223.494365 
L 125.365099 222.937459 
L 126.0036 222.937459 
L 126.216433 221.823646 
L 127.067767 221.823646 
L 127.280601 221.26674 
L 127.706268 221.26674 
L 127.919101 220.709834 
L 128.131935 219.596022 
L 128.557601 219.596022 
L 128.770435 219.039116 
L 130.047436 219.039116 
L 130.685936 217.368398 
L 131.324437 217.368398 
L 131.53727 216.811492 
L 131.750104 216.811492 
L 131.962937 215.69768 
L 134.091272 215.69768 
L 134.304105 214.026961 
L 134.516939 214.026961 
L 134.729772 213.470055 
L 134.942606 212.356243 
L 135.155439 212.356243 
L 135.368273 211.799337 
L 136.006773 211.799337 
L 136.219607 211.242431 
L 137.283774 211.242431 
L 137.496608 207.900994 
L 138.135108 207.900994 
L 138.347942 207.344088 
L 138.986442 207.344088 
L 139.199276 203.445746 
L 140.68911 203.445746 
L 141.114777 202.331934 
L 141.540444 202.331934 
L 141.966111 200.661215 
L 142.817445 200.661215 
L 143.881612 197.876685 
L 144.094446 196.205967 
L 144.307279 196.205967 
L 144.520113 195.092155 
L 144.732946 190.636906 
L 144.945779 190.636906 
L 145.371446 189.523094 
L 145.58428 188.409282 
L 145.797113 186.181657 
L 146.648447 186.181657 
L 146.861281 182.283315 
L 148.138282 182.283315 
L 148.351115 181.726409 
L 151.969284 181.726409 
L 152.182118 181.169503 
L 154.097619 181.169503 
L 154.310453 179.498785 
L 154.523286 179.498785 
L 154.73612 178.941878 
L 155.800287 178.941878 
L 156.01312 177.828066 
L 156.438787 177.828066 
L 156.651621 176.714254 
L 157.077288 176.714254 
L 157.290121 175.600442 
L 157.715788 175.600442 
L 158.141455 172.259006 
L 158.567122 172.259006 
L 158.779956 170.031381 
L 159.418456 170.031381 
L 159.63129 168.917569 
L 161.333958 168.917569 
L 161.546791 167.803757 
L 161.972458 167.803757 
L 162.185291 167.246851 
L 162.823792 167.246851 
L 163.036625 165.576133 
L 163.249459 165.576133 
L 163.462292 165.019227 
L 165.803461 165.019227 
L 166.016294 164.46232 
L 168.570296 164.46232 
L 168.995963 163.348508 
L 169.634463 163.348508 
L 169.847297 162.791602 
L 170.272964 162.791602 
L 170.698631 161.120884 
L 170.911464 161.120884 
L 171.124298 160.563978 
L 172.826965 160.563978 
L 173.039799 160.007072 
L 173.252632 160.007072 
L 173.678299 158.336354 
L 174.529633 158.336354 
L 174.742467 157.779448 
L 174.9553 156.665635 
L 176.019468 156.665635 
L 176.232301 156.108729 
L 177.296469 156.108729 
L 177.722136 154.438011 
L 178.360636 154.438011 
L 178.573469 153.881105 
L 178.999136 153.881105 
L 179.21197 153.324199 
L 179.424803 153.324199 
L 179.637637 152.767293 
L 181.127471 152.767293 
L 181.340305 152.210387 
L 182.617306 152.210387 
L 182.830139 151.653481 
L 183.255806 151.653481 
L 183.46864 151.096575 
L 184.10714 151.096575 
L 184.319973 150.539669 
L 184.532807 150.539669 
L 184.74564 149.982762 
L 189.427977 149.982762 
L 189.64081 149.425856 
L 189.853644 149.425856 
L 190.279311 148.312044 
L 191.343478 148.312044 
L 191.556312 147.755138 
L 191.769145 147.755138 
L 191.981979 147.198232 
L 192.620479 147.198232 
L 192.833313 146.641326 
L 193.25898 146.641326 
L 193.471813 146.08442 
L 200.069651 146.08442 
L 200.282485 145.527514 
L 203.262153 145.527514 
L 203.474987 144.970608 
L 203.900654 144.970608 
L 204.113487 143.856796 
L 207.731656 143.856796 
L 207.94449 142.742983 
L 210.072825 142.742983 
L 210.285658 142.186077 
L 214.755161 142.186077 
L 214.967995 141.072265 
L 215.180828 141.072265 
L 215.393662 140.515359 
L 216.670663 140.515359 
L 217.096329 138.844641 
L 217.521996 137.730829 
L 217.73483 137.730829 
L 218.160497 135.503204 
L 219.224664 135.503204 
L 219.437498 134.946298 
L 221.9915 134.946298 
L 222.204333 133.832486 
L 222.63 133.832486 
L 222.842833 132.718674 
L 223.2685 132.718674 
L 223.481334 132.161768 
L 237.102677 132.161768 
L 237.528344 130.49105 
L 237.954011 130.49105 
L 238.166844 129.934144 
L 241.785013 129.934144 
L 241.997847 129.377238 
L 252.852354 129.377238 
L 253.065188 127.149613 
L 254.555022 127.149613 
L 254.767856 126.592707 
L 254.980689 125.478895 
L 255.193523 125.478895 
L 255.406356 124.365083 
L 255.832023 124.365083 
L 256.044856 123.808177 
L 259.237359 123.808177 
L 259.450192 123.251271 
L 267.112197 123.251271 
L 267.325031 122.694365 
L 267.537864 122.694365 
L 267.750698 122.137459 
L 275.19987 122.137459 
L 275.412703 121.580552 
L 277.966705 121.580552 
L 278.179539 121.023646 
L 279.030872 121.023646 
L 279.243706 120.46674 
L 284.99021 120.46674 
L 285.203043 119.909834 
L 300.952721 119.909834 
L 301.165554 119.352928 
L 303.081056 119.352928 
L 303.293889 118.796022 
L 304.996557 118.796022 
L 305.209391 118.239116 
L 310.530228 118.239116 
L 310.743061 117.125304 
L 320.533401 117.125304 
L 320.746235 116.568398 
L 322.448903 116.568398 
L 322.661736 116.011492 
L 323.725903 116.011492 
L 324.15157 113.226961 
L 324.364404 112.113149 
L 325.854238 112.113149 
L 326.067072 109.885525 
L 326.492739 109.885525 
L 326.705572 109.328619 
L 327.344073 109.328619 
L 327.556906 108.771713 
L 330.323741 108.771713 
L 330.536575 108.214807 
L 330.749408 108.214807 
L 330.962242 107.657901 
L 335.857412 107.657901 
L 336.070245 107.100994 
L 337.772913 107.100994 
L 337.985747 106.544088 
L 340.539748 106.544088 
L 340.752582 105.987182 
L 344.157918 105.987182 
L 344.370751 105.430276 
L 344.583585 99.861215 
L 346.499086 99.861215 
L 346.711919 98.747403 
L 347.563253 98.747403 
L 347.776087 98.190497 
L 349.053088 98.190497 
L 349.265921 97.633591 
L 350.755755 97.633591 
L 350.968589 97.076685 
L 354.373925 97.076685 
L 354.586758 95.962873 
L 354.799592 95.962873 
L 355.012425 95.405967 
L 355.225259 94.292155 
L 356.715093 94.292155 
L 356.927926 93.735249 
L 357.77926 93.735249 
L 357.992094 93.178343 
L 358.204927 91.507624 
L 358.417761 90.950718 
L 359.694762 90.950718 
L 359.907595 90.393812 
L 360.333262 90.393812 
L 360.546096 89.836906 
L 366.505433 89.836906 
L 366.718267 89.28 
L 375.657273 89.28 
L 375.657273 89.28 
" clip-path="url(#p57703fca61)" style="fill: none; stroke: #c957db; stroke-width: 1.2; stroke-linecap: round"/>
   </g>
   <g id="line2d_33"/>
   <g id="line2d_34"/>
   <g id="line2d_35"/>
   <g id="line2d_36"/>
   <g id="line2d_37"/>
   <g id="patch_3">
    <path d="M 54.3 512.64 
L 54.3 69.12 
" style="fill: none; stroke: #cccccc; stroke-linejoin: miter; stroke-linecap: square"/>
   </g>
   <g id="patch_4">
    <path d="M 54.3 512.64 
L 390.96 512.64 
" style="fill: none; stroke: #cccccc; stroke-linejoin: miter; stroke-linecap: square"/>
   </g>
   <g id="text_30">
    <!-- Edge Coverage History -->
    <g style="fill: #262626" transform="translate(115.738512 63.12)scale(0.165888 -0.165888)">
     <defs>
      <path id="DejaVuSans-Bold-45" d="M 588 4666 
L 3834 4666 
L 3834 3756 
L 1791 3756 
L 1791 2888 
L 3713 2888 
L 3713 1978 
L 1791 1978 
L 1791 909 
L 3903 909 
L 3903 0 
L 588 0 
L 588 4666 
z
" transform="scale(0.015625)"/>
      <path id="DejaVuSans-Bold-64" d="M 2919 2988 
L 2919 4863 
L 4044 4863 
L 4044 0 
L 2919 0 
L 2919 506 
Q 2688 197 2409 53 
Q 2131 -91 1766 -91 
Q 1119 -91 703 423 
Q 288 938 288 1747 
Q 288 2556 703 3070 
Q 1119 3584 1766 3584 
Q 2128 3584 2408 3439 
Q 2688 3294 2919 2988 
z
M 2181 722 
Q 2541 722 2730 984 
Q 2919 1247 2919 1747 
Q 2919 2247 2730 2509 
Q 2541 2772 2181 2772 
Q 1825 2772 1636 2509 
Q 1447 2247 1447 1747 
Q 1447 1247 1636 984 
Q 1825 722 2181 722 
z
" transform="scale(0.015625)"/>
      <path id="DejaVuSans-Bold-67" d="M 2919 594 
Q 2688 288 2409 144 
Q 2131 0 1766 0 
Q 1125 0 706 504 
Q 288 1009 288 1791 
Q 288 2575 706 3076 
Q 1125 3578 1766 3578 
Q 2131 3578 2409 3434 
Q 2688 3291 2919 2981 
L 2919 3500 
L 4044 3500 
L 4044 353 
Q 4044 -491 3511 -936 
Q 2978 -1381 1966 -1381 
Q 1638 -1381 1331 -1331 
Q 1025 -1281 716 -1178 
L 716 -306 
Q 1009 -475 1290 -558 
Q 1572 -641 1856 -641 
Q 2406 -641 2662 -400 
Q 2919 -159 2919 353 
L 2919 594 
z
M 2181 2772 
Q 1834 2772 1640 2515 
Q 1447 2259 1447 1791 
Q 1447 1309 1634 1061 
Q 1822 813 2181 813 
Q 2531 813 2725 1069 
Q 2919 1325 2919 1791 
Q 2919 2259 2725 2515 
Q 2531 2772 2181 2772 
z
" transform="scale(0.015625)"/>
      <path id="DejaVuSans-Bold-65" d="M 4031 1759 
L 4031 1441 
L 1416 1441 
Q 1456 1047 1700 850 
Q 1944 653 2381 653 
Q 2734 653 3104 758 
Q 3475 863 3866 1075 
L 3866 213 
Q 3469 63 3072 -14 
Q 2675 -91 2278 -91 
Q 1328 -91 801 392 
Q 275 875 275 1747 
Q 275 2603 792 3093 
Q 1309 3584 2216 3584 
Q 3041 3584 3536 3087 
Q 4031 2591 4031 1759 
z
M 2881 2131 
Q 2881 2450 2695 2645 
Q 2509 2841 2209 2841 
Q 1884 2841 1681 2658 
Q 1478 2475 1428 2131 
L 2881 2131 
z
" transform="scale(0.015625)"/>
      <path id="DejaVuSans-Bold-20" transform="scale(0.015625)"/>
      <path id="DejaVuSans-Bold-43" d="M 4288 256 
Q 3956 84 3597 -3 
Q 3238 -91 2847 -91 
Q 1681 -91 1000 561 
Q 319 1213 319 2328 
Q 319 3447 1000 4098 
Q 1681 4750 2847 4750 
Q 3238 4750 3597 4662 
Q 3956 4575 4288 4403 
L 4288 3438 
Q 3953 3666 3628 3772 
Q 3303 3878 2944 3878 
Q 2300 3878 1931 3465 
Q 1563 3053 1563 2328 
Q 1563 1606 1931 1193 
Q 2300 781 2944 781 
Q 3303 781 3628 887 
Q 3953 994 4288 1222 
L 4288 256 
z
" transform="scale(0.015625)"/>
      <path id="DejaVuSans-Bold-6f" d="M 2203 2784 
Q 1831 2784 1636 2517 
Q 1441 2250 1441 1747 
Q 1441 1244 1636 976 
Q 1831 709 2203 709 
Q 2569 709 2762 976 
Q 2956 1244 2956 1747 
Q 2956 2250 2762 2517 
Q 2569 2784 2203 2784 
z
M 2203 3584 
Q 3106 3584 3614 3096 
Q 4122 2609 4122 1747 
Q 4122 884 3614 396 
Q 3106 -91 2203 -91 
Q 1297 -91 786 396 
Q 275 884 275 1747 
Q 275 2609 786 3096 
Q 1297 3584 2203 3584 
z
" transform="scale(0.015625)"/>
      <path id="DejaVuSans-Bold-76" d="M 97 3500 
L 1216 3500 
L 2088 1081 
L 2956 3500 
L 4078 3500 
L 2700 0 
L 1472 0 
L 97 3500 
z
" transform="scale(0.015625)"/>
      <path id="DejaVuSans-Bold-72" d="M 3138 2547 
Q 2991 2616 2845 2648 
Q 2700 2681 2553 2681 
Q 2122 2681 1889 2404 
Q 1656 2128 1656 1613 
L 1656 0 
L 538 0 
L 538 3500 
L 1656 3500 
L 1656 2925 
Q 1872 3269 2151 3426 
Q 2431 3584 2822 3584 
Q 2878 3584 2943 3579 
Q 3009 3575 3134 3559 
L 3138 2547 
z
" transform="scale(0.015625)"/>
      <path id="DejaVuSans-Bold-61" d="M 2106 1575 
Q 1756 1575 1579 1456 
Q 1403 1338 1403 1106 
Q 1403 894 1545 773 
Q 1688 653 1941 653 
Q 2256 653 2472 879 
Q 2688 1106 2688 1447 
L 2688 1575 
L 2106 1575 
z
M 3816 1997 
L 3816 0 
L 2688 0 
L 2688 519 
Q 2463 200 2181 54 
Q 1900 -91 1497 -91 
Q 953 -91 614 226 
Q 275 544 275 1050 
Q 275 1666 698 1953 
Q 1122 2241 2028 2241 
L 2688 2241 
L 2688 2328 
Q 2688 2594 2478 2717 
Q 2269 2841 1825 2841 
Q 1466 2841 1156 2769 
Q 847 2697 581 2553 
L 581 3406 
Q 941 3494 1303 3539 
Q 1666 3584 2028 3584 
Q 2975 3584 3395 3211 
Q 3816 2838 3816 1997 
z
" transform="scale(0.015625)"/>
      <path id="DejaVuSans-Bold-48" d="M 588 4666 
L 1791 4666 
L 1791 2888 
L 3566 2888 
L 3566 4666 
L 4769 4666 
L 4769 0 
L 3566 0 
L 3566 1978 
L 1791 1978 
L 1791 0 
L 588 0 
L 588 4666 
z
" transform="scale(0.015625)"/>
      <path id="DejaVuSans-Bold-69" d="M 538 3500 
L 1656 3500 
L 1656 0 
L 538 0 
L 538 3500 
z
M 538 4863 
L 1656 4863 
L 1656 3950 
L 538 3950 
L 538 4863 
z
" transform="scale(0.015625)"/>
      <path id="DejaVuSans-Bold-73" d="M 3272 3391 
L 3272 2541 
Q 2913 2691 2578 2766 
Q 2244 2841 1947 2841 
Q 1628 2841 1473 2761 
Q 1319 2681 1319 2516 
Q 1319 2381 1436 2309 
Q 1553 2238 1856 2203 
L 2053 2175 
Q 2913 2066 3209 1816 
Q 3506 1566 3506 1031 
Q 3506 472 3093 190 
Q 2681 -91 1863 -91 
Q 1516 -91 1145 -36 
Q 775 19 384 128 
L 384 978 
Q 719 816 1070 734 
Q 1422 653 1784 653 
Q 2113 653 2278 743 
Q 2444 834 2444 1013 
Q 2444 1163 2330 1236 
Q 2216 1309 1875 1350 
L 1678 1375 
Q 931 1469 631 1722 
Q 331 1975 331 2491 
Q 331 3047 712 3315 
Q 1094 3584 1881 3584 
Q 2191 3584 2531 3537 
Q 2872 3491 3272 3391 
z
" transform="scale(0.015625)"/>
      <path id="DejaVuSans-Bold-74" d="M 1759 4494 
L 1759 3500 
L 2913 3500 
L 2913 2700 
L 1759 2700 
L 1759 1216 
Q 1759 972 1856 886 
Q 1953 800 2241 800 
L 2816 800 
L 2816 0 
L 1856 0 
Q 1194 0 917 276 
Q 641 553 641 1216 
L 641 2700 
L 84 2700 
L 84 3500 
L 641 3500 
L 641 4494 
L 1759 4494 
z
" transform="scale(0.015625)"/>
      <path id="DejaVuSans-Bold-79" d="M 78 3500 
L 1197 3500 
L 2138 1125 
L 2938 3500 
L 4056 3500 
L 2584 -331 
Q 2363 -916 2067 -1148 
Q 1772 -1381 1288 -1381 
L 641 -1381 
L 641 -647 
L 991 -647 
Q 1275 -647 1404 -556 
Q 1534 -466 1606 -231 
L 1638 -134 
L 78 3500 
z
" transform="scale(0.015625)"/>
     </defs>
     <use xlink:href="#DejaVuSans-Bold-45"/>
     <use xlink:href="#DejaVuSans-Bold-64" x="68.310547"/>
     <use xlink:href="#DejaVuSans-Bold-67" x="139.892578"/>
     <use xlink:href="#DejaVuSans-Bold-65" x="211.474609"/>
     <use xlink:href="#DejaVuSans-Bold-20" x="279.296875"/>
     <use xlink:href="#DejaVuSans-Bold-43" x="314.111328"/>
     <use xlink:href="#DejaVuSans-Bold-6f" x="387.5"/>
     <use xlink:href="#DejaVuSans-Bold-76" x="456.201172"/>
     <use xlink:href="#DejaVuSans-Bold-65" x="521.386719"/>
     <use xlink:href="#DejaVuSans-Bold-72" x="589.208984"/>
     <use xlink:href="#DejaVuSans-Bold-61" x="638.525391"/>
     <use xlink:href="#DejaVuSans-Bold-67" x="706.005859"/>
     <use xlink:href="#DejaVuSans-Bold-65" x="777.587891"/>
     <use xlink:href="#DejaVuSans-Bold-20" x="845.410156"/>
     <use xlink:href="#DejaVuSans-Bold-48" x="880.224609"/>
     <use xlink:href="#DejaVuSans-Bold-69" x="963.916016"/>
     <use xlink:href="#DejaVuSans-Bold-73" x="998.193359"/>
     <use xlink:href="#DejaVuSans-Bold-74" x="1057.714844"/>
     <use xlink:href="#DejaVuSans-Bold-6f" x="1105.517578"/>
     <use xlink:href="#DejaVuSans-Bold-72" x="1174.21875"/>
     <use xlink:href="#DejaVuSans-Bold-79" x="1223.535156"/>
    </g>
   </g>
   <g id="legend_1">
    <g id="patch_5">
     <path d="M 60.46 154.6795 
L 171.989 154.6795 
Q 173.749 154.6795 173.749 152.9195 
L 173.749 75.28 
Q 173.749 73.52 171.989 73.52 
L 60.46 73.52 
Q 58.7 73.52 58.7 75.28 
L 58.7 152.9195 
Q 58.7 154.6795 60.46 154.6795 
z
" style="fill: #ffffff; opacity: 0.8; stroke: #cccccc; stroke-width: 0.8; stroke-linejoin: miter"/>
    </g>
    <g id="text_31">
     <!-- fuzzer -->
     <g style="fill: #262626" transform="translate(101.5275 84.3345)scale(0.096 -0.096)">
      <defs>
       <path id="DejaVuSans-66" d="M 2375 4863 
L 2375 4384 
L 1825 4384 
Q 1516 4384 1395 4259 
Q 1275 4134 1275 3809 
L 1275 3500 
L 2222 3500 
L 2222 3053 
L 1275 3053 
L 1275 0 
L 697 0 
L 697 3053 
L 147 3053 
L 147 3500 
L 697 3500 
L 697 3744 
Q 697 4328 969 4595 
Q 1241 4863 1831 4863 
L 2375 4863 
z
" transform="scale(0.015625)"/>
       <path id="DejaVuSans-7a" d="M 353 3500 
L 3084 3500 
L 3084 2975 
L 922 459 
L 3084 459 
L 3084 0 
L 275 0 
L 275 525 
L 2438 3041 
L 353 3041 
L 353 3500 
z
" transform="scale(0.015625)"/>
      </defs>
      <use xlink:href="#DejaVuSans-66"/>
      <use xlink:href="#DejaVuSans-75" x="35.205078"/>
      <use xlink:href="#DejaVuSans-7a" x="98.583984"/>
      <use xlink:href="#DejaVuSans-7a" x="151.074219"/>
      <use xlink:href="#DejaVuSans-65" x="203.564453"/>
      <use xlink:href="#DejaVuSans-72" x="265.087891"/>
     </g>
    </g>
    <g id="line2d_38">
     <path d="M 62.22 94.337625 
L 71.02 94.337625 
L 79.82 94.337625 
" style="fill: none; stroke: #db5f57; stroke-width: 1.2; stroke-linecap: round"/>
    </g>
    <g id="text_32">
     <!-- aflplusplus-0-exid3 -->
     <g style="fill: #262626" transform="translate(86.86 97.417625)scale(0.088 -0.088)">
      <defs>
       <path id="DejaVuSans-6c" d="M 603 4863 
L 1178 4863 
L 1178 0 
L 603 0 
L 603 4863 
z
" transform="scale(0.015625)"/>
       <path id="DejaVuSans-70" d="M 1159 525 
L 1159 -1331 
L 581 -1331 
L 581 3500 
L 1159 3500 
L 1159 2969 
Q 1341 3281 1617 3432 
Q 1894 3584 2278 3584 
Q 2916 3584 3314 3078 
Q 3713 2572 3713 1747 
Q 3713 922 3314 415 
Q 2916 -91 2278 -91 
Q 1894 -91 1617 61 
Q 1341 213 1159 525 
z
M 3116 1747 
Q 3116 2381 2855 2742 
Q 2594 3103 2138 3103 
Q 1681 3103 1420 2742 
Q 1159 2381 1159 1747 
Q 1159 1113 1420 752 
Q 1681 391 2138 391 
Q 2594 391 2855 752 
Q 3116 1113 3116 1747 
z
" transform="scale(0.015625)"/>
       <path id="DejaVuSans-2d" d="M 313 2009 
L 1997 2009 
L 1997 1497 
L 313 1497 
L 313 2009 
z
" transform="scale(0.015625)"/>
       <path id="DejaVuSans-78" d="M 3513 3500 
L 2247 1797 
L 3578 0 
L 2900 0 
L 1881 1375 
L 863 0 
L 184 0 
L 1544 1831 
L 300 3500 
L 978 3500 
L 1906 2253 
L 2834 3500 
L 3513 3500 
z
" transform="scale(0.015625)"/>
      </defs>
      <use xlink:href="#DejaVuSans-61"/>
      <use xlink:href="#DejaVuSans-66" x="61.279297"/>
      <use xlink:href="#DejaVuSans-6c" x="96.484375"/>
      <use xlink:href="#DejaVuSans-70" x="124.267578"/>
      <use xlink:href="#DejaVuSans-6c" x="187.744141"/>
      <use xlink:href="#DejaVuSans-75" x="215.527344"/>
      <use xlink:href="#DejaVuSans-73" x="278.90625"/>
      <use xlink:href="#DejaVuSans-70" x="331.005859"/>
      <use xlink:href="#DejaVuSans-6c" x="394.482422"/>
      <use xlink:href="#DejaVuSans-75" x="422.265625"/>
      <use xlink:href="#DejaVuSans-73" x="485.644531"/>
      <use xlink:href="#DejaVuSans-2d" x="537.744141"/>
      <use xlink:href="#DejaVuSans-30" x="573.828125"/>
      <use xlink:href="#DejaVuSans-2d" x="637.451172"/>
      <use xlink:href="#DejaVuSans-65" x="673.535156"/>
      <use xlink:href="#DejaVuSans-78" x="733.308594"/>
      <use xlink:href="#DejaVuSans-69" x="792.488281"/>
      <use xlink:href="#DejaVuSans-64" x="820.271484"/>
      <use xlink:href="#DejaVuSans-33" x="883.748047"/>
     </g>
    </g>
    <g id="line2d_39">
     <path d="M 62.22 107.254375 
L 71.02 107.254375 
L 79.82 107.254375 
" style="fill: none; stroke: #b9db57; stroke-width: 1.2; stroke-linecap: round"/>
    </g>
    <g id="text_33">
     <!-- symcc-0-exid3 -->
     <g style="fill: #262626" transform="translate(86.86 110.334375)scale(0.088 -0.088)">
      <defs>
       <path id="DejaVuSans-79" d="M 2059 -325 
Q 1816 -950 1584 -1140 
Q 1353 -1331 966 -1331 
L 506 -1331 
L 506 -850 
L 844 -850 
Q 1081 -850 1212 -737 
Q 1344 -625 1503 -206 
L 1606 56 
L 191 3500 
L 800 3500 
L 1894 763 
L 2988 3500 
L 3597 3500 
L 2059 -325 
z
" transform="scale(0.015625)"/>
       <path id="DejaVuSans-63" d="M 3122 3366 
L 3122 2828 
Q 2878 2963 2633 3030 
Q 2388 3097 2138 3097 
Q 1578 3097 1268 2742 
Q 959 2388 959 1747 
Q 959 1106 1268 751 
Q 1578 397 2138 397 
Q 2388 397 2633 464 
Q 2878 531 3122 666 
L 3122 134 
Q 2881 22 2623 -34 
Q 2366 -91 2075 -91 
Q 1284 -91 818 406 
Q 353 903 353 1747 
Q 353 2603 823 3093 
Q 1294 3584 2113 3584 
Q 2378 3584 2631 3529 
Q 2884 3475 3122 3366 
z
" transform="scale(0.015625)"/>
      </defs>
      <use xlink:href="#DejaVuSans-73"/>
      <use xlink:href="#DejaVuSans-79" x="52.099609"/>
      <use xlink:href="#DejaVuSans-6d" x="111.279297"/>
      <use xlink:href="#DejaVuSans-63" x="208.691406"/>
      <use xlink:href="#DejaVuSans-63" x="263.671875"/>
      <use xlink:href="#DejaVuSans-2d" x="318.652344"/>
      <use xlink:href="#DejaVuSans-30" x="354.736328"/>
      <use xlink:href="#DejaVuSans-2d" x="418.359375"/>
      <use xlink:href="#DejaVuSans-65" x="454.443359"/>
      <use xlink:href="#DejaVuSans-78" x="514.216797"/>
      <use xlink:href="#DejaVuSans-69" x="573.396484"/>
      <use xlink:href="#DejaVuSans-64" x="601.179688"/>
      <use xlink:href="#DejaVuSans-33" x="664.65625"/>
     </g>
    </g>
    <g id="line2d_40">
     <path d="M 62.22 120.171125 
L 71.02 120.171125 
L 79.82 120.171125 
" style="fill: none; stroke: #57db94; stroke-width: 1.2; stroke-linecap: round"/>
    </g>
    <g id="text_34">
     <!-- fairfuzz-0-exid3 -->
     <g style="fill: #262626" transform="translate(86.86 123.251125)scale(0.088 -0.088)">
      <use xlink:href="#DejaVuSans-66"/>
      <use xlink:href="#DejaVuSans-61" x="35.205078"/>
      <use xlink:href="#DejaVuSans-69" x="96.484375"/>
      <use xlink:href="#DejaVuSans-72" x="124.267578"/>
      <use xlink:href="#DejaVuSans-66" x="165.380859"/>
      <use xlink:href="#DejaVuSans-75" x="200.585938"/>
      <use xlink:href="#DejaVuSans-7a" x="263.964844"/>
      <use xlink:href="#DejaVuSans-7a" x="316.455078"/>
      <use xlink:href="#DejaVuSans-2d" x="368.945312"/>
      <use xlink:href="#DejaVuSans-30" x="405.029297"/>
      <use xlink:href="#DejaVuSans-2d" x="468.652344"/>
      <use xlink:href="#DejaVuSans-65" x="504.736328"/>
      <use xlink:href="#DejaVuSans-78" x="564.509766"/>
      <use xlink:href="#DejaVuSans-69" x="623.689453"/>
      <use xlink:href="#DejaVuSans-64" x="651.472656"/>
      <use xlink:href="#DejaVuSans-33" x="714.949219"/>
     </g>
    </g>
    <g id="line2d_41">
     <path d="M 62.22 133.087875 
L 71.02 133.087875 
L 79.82 133.087875 
" style="fill: none; stroke: #5784db; stroke-width: 1.2; stroke-linecap: round"/>
    </g>
    <g id="text_35">
     <!-- mopt-0-exid3 -->
     <g style="fill: #262626" transform="translate(86.86 136.167875)scale(0.088 -0.088)">
      <use xlink:href="#DejaVuSans-6d"/>
      <use xlink:href="#DejaVuSans-6f" x="97.412109"/>
      <use xlink:href="#DejaVuSans-70" x="158.59375"/>
      <use xlink:href="#DejaVuSans-74" x="222.070312"/>
      <use xlink:href="#DejaVuSans-2d" x="261.279297"/>
      <use xlink:href="#DejaVuSans-30" x="297.363281"/>
      <use xlink:href="#DejaVuSans-2d" x="360.986328"/>
      <use xlink:href="#DejaVuSans-65" x="397.070312"/>
      <use xlink:href="#DejaVuSans-78" x="456.84375"/>
      <use xlink:href="#DejaVuSans-69" x="516.023438"/>
      <use xlink:href="#DejaVuSans-64" x="543.806641"/>
      <use xlink:href="#DejaVuSans-33" x="607.283203"/>
     </g>
    </g>
    <g id="line2d_42">
     <path d="M 62.22 146.004625 
L 71.02 146.004625 
L 79.82 146.004625 
" style="fill: none; stroke: #c957db; stroke-width: 1.2; stroke-linecap: round"/>
    </g>
    <g id="text_36">
     <!-- fuzzer_global -->
     <g style="fill: #262626" transform="translate(86.86 149.084625)scale(0.088 -0.088)">
      <defs>
       <path id="DejaVuSans-5f" d="M 3263 -1063 
L 3263 -1509 
L -63 -1509 
L -63 -1063 
L 3263 -1063 
z
" transform="scale(0.015625)"/>
       <path id="DejaVuSans-62" d="M 3116 1747 
Q 3116 2381 2855 2742 
Q 2594 3103 2138 3103 
Q 1681 3103 1420 2742 
Q 1159 2381 1159 1747 
Q 1159 1113 1420 752 
Q 1681 391 2138 391 
Q 2594 391 2855 752 
Q 3116 1113 3116 1747 
z
M 1159 2969 
Q 1341 3281 1617 3432 
Q 1894 3584 2278 3584 
Q 2916 3584 3314 3078 
Q 3713 2572 3713 1747 
Q 3713 922 3314 415 
Q 2916 -91 2278 -91 
Q 1894 -91 1617 61 
Q 1341 213 1159 525 
L 1159 0 
L 581 0 
L 581 4863 
L 1159 4863 
L 1159 2969 
z
" transform="scale(0.015625)"/>
      </defs>
      <use xlink:href="#DejaVuSans-66"/>
      <use xlink:href="#DejaVuSans-75" x="35.205078"/>
      <use xlink:href="#DejaVuSans-7a" x="98.583984"/>
      <use xlink:href="#DejaVuSans-7a" x="151.074219"/>
      <use xlink:href="#DejaVuSans-65" x="203.564453"/>
      <use xlink:href="#DejaVuSans-72" x="265.087891"/>
      <use xlink:href="#DejaVuSans-5f" x="306.201172"/>
      <use xlink:href="#DejaVuSans-67" x="356.201172"/>
      <use xlink:href="#DejaVuSans-6c" x="419.677734"/>
      <use xlink:href="#DejaVuSans-6f" x="447.460938"/>
      <use xlink:href="#DejaVuSans-62" x="508.642578"/>
      <use xlink:href="#DejaVuSans-61" x="572.119141"/>
      <use xlink:href="#DejaVuSans-6c" x="633.398438"/>
     </g>
    </g>
   </g>
  </g>
 </g>
 <defs>
  <clipPath id="p57703fca61">
   <rect x="54.3" y="69.12" width="336.66" height="443.52"/>
  </clipPath>
 </defs>
</svg>
