<?xml version="1.0" encoding="utf-8" standalone="no"?>
<!DOCTYPE svg PUBLIC "-//W3C//DTD SVG 1.1//EN"
  "http://www.w3.org/Graphics/SVG/1.1/DTD/svg11.dtd">
<svg xmlns:xlink="http://www.w3.org/1999/xlink" width="434.7pt" height="576pt" viewBox="0 0 434.7 576" xmlns="http://www.w3.org/2000/svg" version="1.1">
 <metadata>
  <rdf:RDF xmlns:dc="http://purl.org/dc/elements/1.1/" xmlns:cc="http://creativecommons.org/ns#" xmlns:rdf="http://www.w3.org/1999/02/22-rdf-syntax-ns#">
   <cc:Work>
    <dc:type rdf:resource="http://purl.org/dc/dcmitype/StillImage"/>
    <dc:date>2022-09-15T08:02:09.599998</dc:date>
    <dc:format>image/svg+xml</dc:format>
    <dc:creator>
     <cc:Agent>
      <dc:title>Matplotlib v3.5.3, https://matplotlib.org/</dc:title>
     </cc:Agent>
    </dc:creator>
   </cc:Work>
  </rdf:RDF>
 </metadata>
 <defs>
  <style type="text/css">*{stroke-linejoin: round; stroke-linecap: butt}</style>
 </defs>
 <g id="figure_1">
  <g id="patch_1">
   <path d="M 0 576 
L 434.7 576 
L 434.7 0 
L 0 0 
z
" style="fill: #ffffff"/>
  </g>
  <g id="axes_1">
   <g id="patch_2">
    <path d="M 54.3375 512.64 
L 391.23 512.64 
L 391.23 69.12 
L 54.3375 69.12 
z
" style="fill: #ffffff"/>
   </g>
   <g id="matplotlib.axis_1">
    <g id="xtick_1">
     <g id="line2d_1">
      <path d="M 69.650795 512.64 
L 69.650795 69.12 
" clip-path="url(#p35542300e2)" style="fill: none; stroke: #cccccc; stroke-width: 0.8; stroke-linecap: round"/>
     </g>
     <g id="text_1">
      <!-- 0 -->
      <g style="fill: #262626" transform="translate(69.388282 529.627249)rotate(-45)scale(0.088 -0.088)">
       <defs>
        <path id="DejaVuSans-30" d="M 2034 4250 
Q 1547 4250 1301 3770 
Q 1056 3291 1056 2328 
Q 1056 1369 1301 889 
Q 1547 409 2034 409 
Q 2525 409 2770 889 
Q 3016 1369 3016 2328 
Q 3016 3291 2770 3770 
Q 2525 4250 2034 4250 
z
M 2034 4750 
Q 2819 4750 3233 4129 
Q 3647 3509 3647 2328 
Q 3647 1150 3233 529 
Q 2819 -91 2034 -91 
Q 1250 -91 836 529 
Q 422 1150 422 2328 
Q 422 3509 836 4129 
Q 1250 4750 2034 4750 
z
" transform="scale(0.015625)"/>
       </defs>
       <use xlink:href="#DejaVuSans-30"/>
      </g>
     </g>
    </g>
    <g id="xtick_2">
     <g id="line2d_2">
      <path d="M 86.677392 512.64 
L 86.677392 69.12 
" clip-path="url(#p35542300e2)" style="fill: none; stroke: #cccccc; stroke-width: 0.8; stroke-linecap: round"/>
     </g>
     <g id="text_2">
      <!-- 80 -->
      <g style="fill: #262626" transform="translate(84.435333 533.58634)rotate(-45)scale(0.088 -0.088)">
       <defs>
        <path id="DejaVuSans-38" d="M 2034 2216 
Q 1584 2216 1326 1975 
Q 1069 1734 1069 1313 
Q 1069 891 1326 650 
Q 1584 409 2034 409 
Q 2484 409 2743 651 
Q 3003 894 3003 1313 
Q 3003 1734 2745 1975 
Q 2488 2216 2034 2216 
z
M 1403 2484 
Q 997 2584 770 2862 
Q 544 3141 544 3541 
Q 544 4100 942 4425 
Q 1341 4750 2034 4750 
Q 2731 4750 3128 4425 
Q 3525 4100 3525 3541 
Q 3525 3141 3298 2862 
Q 3072 2584 2669 2484 
Q 3125 2378 3379 2068 
Q 3634 1759 3634 1313 
Q 3634 634 3220 271 
Q 2806 -91 2034 -91 
Q 1263 -91 848 271 
Q 434 634 434 1313 
Q 434 1759 690 2068 
Q 947 2378 1403 2484 
z
M 1172 3481 
Q 1172 3119 1398 2916 
Q 1625 2713 2034 2713 
Q 2441 2713 2670 2916 
Q 2900 3119 2900 3481 
Q 2900 3844 2670 4047 
Q 2441 4250 2034 4250 
Q 1625 4250 1398 4047 
Q 1172 3844 1172 3481 
z
" transform="scale(0.015625)"/>
       </defs>
       <use xlink:href="#DejaVuSans-38"/>
       <use xlink:href="#DejaVuSans-30" x="63.623047"/>
      </g>
     </g>
    </g>
    <g id="xtick_3">
     <g id="line2d_3">
      <path d="M 103.703989 512.64 
L 103.703989 69.12 
" clip-path="url(#p35542300e2)" style="fill: none; stroke: #cccccc; stroke-width: 0.8; stroke-linecap: round"/>
     </g>
     <g id="text_3">
      <!-- 160 -->
      <g style="fill: #262626" transform="translate(99.482385 537.54543)rotate(-45)scale(0.088 -0.088)">
       <defs>
        <path id="DejaVuSans-31" d="M 794 531 
L 1825 531 
L 1825 4091 
L 703 3866 
L 703 4441 
L 1819 4666 
L 2450 4666 
L 2450 531 
L 3481 531 
L 3481 0 
L 794 0 
L 794 531 
z
" transform="scale(0.015625)"/>
        <path id="DejaVuSans-36" d="M 2113 2584 
Q 1688 2584 1439 2293 
Q 1191 2003 1191 1497 
Q 1191 994 1439 701 
Q 1688 409 2113 409 
Q 2538 409 2786 701 
Q 3034 994 3034 1497 
Q 3034 2003 2786 2293 
Q 2538 2584 2113 2584 
z
M 3366 4563 
L 3366 3988 
Q 3128 4100 2886 4159 
Q 2644 4219 2406 4219 
Q 1781 4219 1451 3797 
Q 1122 3375 1075 2522 
Q 1259 2794 1537 2939 
Q 1816 3084 2150 3084 
Q 2853 3084 3261 2657 
Q 3669 2231 3669 1497 
Q 3669 778 3244 343 
Q 2819 -91 2113 -91 
Q 1303 -91 875 529 
Q 447 1150 447 2328 
Q 447 3434 972 4092 
Q 1497 4750 2381 4750 
Q 2619 4750 2861 4703 
Q 3103 4656 3366 4563 
z
" transform="scale(0.015625)"/>
       </defs>
       <use xlink:href="#DejaVuSans-31"/>
       <use xlink:href="#DejaVuSans-36" x="63.623047"/>
       <use xlink:href="#DejaVuSans-30" x="127.246094"/>
      </g>
     </g>
    </g>
    <g id="xtick_4">
     <g id="line2d_4">
      <path d="M 120.730586 512.64 
L 120.730586 69.12 
" clip-path="url(#p35542300e2)" style="fill: none; stroke: #cccccc; stroke-width: 0.8; stroke-linecap: round"/>
     </g>
     <g id="text_4">
      <!-- 240 -->
      <g style="fill: #262626" transform="translate(116.508981 537.54543)rotate(-45)scale(0.088 -0.088)">
       <defs>
        <path id="DejaVuSans-32" d="M 1228 531 
L 3431 531 
L 3431 0 
L 469 0 
L 469 531 
Q 828 903 1448 1529 
Q 2069 2156 2228 2338 
Q 2531 2678 2651 2914 
Q 2772 3150 2772 3378 
Q 2772 3750 2511 3984 
Q 2250 4219 1831 4219 
Q 1534 4219 1204 4116 
Q 875 4013 500 3803 
L 500 4441 
Q 881 4594 1212 4672 
Q 1544 4750 1819 4750 
Q 2544 4750 2975 4387 
Q 3406 4025 3406 3419 
Q 3406 3131 3298 2873 
Q 3191 2616 2906 2266 
Q 2828 2175 2409 1742 
Q 1991 1309 1228 531 
z
" transform="scale(0.015625)"/>
        <path id="DejaVuSans-34" d="M 2419 4116 
L 825 1625 
L 2419 1625 
L 2419 4116 
z
M 2253 4666 
L 3047 4666 
L 3047 1625 
L 3713 1625 
L 3713 1100 
L 3047 1100 
L 3047 0 
L 2419 0 
L 2419 1100 
L 313 1100 
L 313 1709 
L 2253 4666 
z
" transform="scale(0.015625)"/>
       </defs>
       <use xlink:href="#DejaVuSans-32"/>
       <use xlink:href="#DejaVuSans-34" x="63.623047"/>
       <use xlink:href="#DejaVuSans-30" x="127.246094"/>
      </g>
     </g>
    </g>
    <g id="xtick_5">
     <g id="line2d_5">
      <path d="M 137.757182 512.64 
L 137.757182 69.12 
" clip-path="url(#p35542300e2)" style="fill: none; stroke: #cccccc; stroke-width: 0.8; stroke-linecap: round"/>
     </g>
     <g id="text_5">
      <!-- 320 -->
      <g style="fill: #262626" transform="translate(133.535578 537.54543)rotate(-45)scale(0.088 -0.088)">
       <defs>
        <path id="DejaVuSans-33" d="M 2597 2516 
Q 3050 2419 3304 2112 
Q 3559 1806 3559 1356 
Q 3559 666 3084 287 
Q 2609 -91 1734 -91 
Q 1441 -91 1130 -33 
Q 819 25 488 141 
L 488 750 
Q 750 597 1062 519 
Q 1375 441 1716 441 
Q 2309 441 2620 675 
Q 2931 909 2931 1356 
Q 2931 1769 2642 2001 
Q 2353 2234 1838 2234 
L 1294 2234 
L 1294 2753 
L 1863 2753 
Q 2328 2753 2575 2939 
Q 2822 3125 2822 3475 
Q 2822 3834 2567 4026 
Q 2313 4219 1838 4219 
Q 1578 4219 1281 4162 
Q 984 4106 628 3988 
L 628 4550 
Q 988 4650 1302 4700 
Q 1616 4750 1894 4750 
Q 2613 4750 3031 4423 
Q 3450 4097 3450 3541 
Q 3450 3153 3228 2886 
Q 3006 2619 2597 2516 
z
" transform="scale(0.015625)"/>
       </defs>
       <use xlink:href="#DejaVuSans-33"/>
       <use xlink:href="#DejaVuSans-32" x="63.623047"/>
       <use xlink:href="#DejaVuSans-30" x="127.246094"/>
      </g>
     </g>
    </g>
    <g id="xtick_6">
     <g id="line2d_6">
      <path d="M 154.783779 512.64 
L 154.783779 69.12 
" clip-path="url(#p35542300e2)" style="fill: none; stroke: #cccccc; stroke-width: 0.8; stroke-linecap: round"/>
     </g>
     <g id="text_6">
      <!-- 400 -->
      <g style="fill: #262626" transform="translate(150.562175 537.54543)rotate(-45)scale(0.088 -0.088)">
       <use xlink:href="#DejaVuSans-34"/>
       <use xlink:href="#DejaVuSans-30" x="63.623047"/>
       <use xlink:href="#DejaVuSans-30" x="127.246094"/>
      </g>
     </g>
    </g>
    <g id="xtick_7">
     <g id="line2d_7">
      <path d="M 171.810376 512.64 
L 171.810376 69.12 
" clip-path="url(#p35542300e2)" style="fill: none; stroke: #cccccc; stroke-width: 0.8; stroke-linecap: round"/>
     </g>
     <g id="text_7">
      <!-- 480 -->
      <g style="fill: #262626" transform="translate(167.588772 537.54543)rotate(-45)scale(0.088 -0.088)">
       <use xlink:href="#DejaVuSans-34"/>
       <use xlink:href="#DejaVuSans-38" x="63.623047"/>
       <use xlink:href="#DejaVuSans-30" x="127.246094"/>
      </g>
     </g>
    </g>
    <g id="xtick_8">
     <g id="line2d_8">
      <path d="M 188.836973 512.64 
L 188.836973 69.12 
" clip-path="url(#p35542300e2)" style="fill: none; stroke: #cccccc; stroke-width: 0.8; stroke-linecap: round"/>
     </g>
     <g id="text_8">
      <!-- 560 -->
      <g style="fill: #262626" transform="translate(184.615368 537.54543)rotate(-45)scale(0.088 -0.088)">
       <defs>
        <path id="DejaVuSans-35" d="M 691 4666 
L 3169 4666 
L 3169 4134 
L 1269 4134 
L 1269 2991 
Q 1406 3038 1543 3061 
Q 1681 3084 1819 3084 
Q 2600 3084 3056 2656 
Q 3513 2228 3513 1497 
Q 3513 744 3044 326 
Q 2575 -91 1722 -91 
Q 1428 -91 1123 -41 
Q 819 9 494 109 
L 494 744 
Q 775 591 1075 516 
Q 1375 441 1709 441 
Q 2250 441 2565 725 
Q 2881 1009 2881 1497 
Q 2881 1984 2565 2268 
Q 2250 2553 1709 2553 
Q 1456 2553 1204 2497 
Q 953 2441 691 2322 
L 691 4666 
z
" transform="scale(0.015625)"/>
       </defs>
       <use xlink:href="#DejaVuSans-35"/>
       <use xlink:href="#DejaVuSans-36" x="63.623047"/>
       <use xlink:href="#DejaVuSans-30" x="127.246094"/>
      </g>
     </g>
    </g>
    <g id="xtick_9">
     <g id="line2d_9">
      <path d="M 205.863569 512.64 
L 205.863569 69.12 
" clip-path="url(#p35542300e2)" style="fill: none; stroke: #cccccc; stroke-width: 0.8; stroke-linecap: round"/>
     </g>
     <g id="text_9">
      <!-- 640 -->
      <g style="fill: #262626" transform="translate(201.641965 537.54543)rotate(-45)scale(0.088 -0.088)">
       <use xlink:href="#DejaVuSans-36"/>
       <use xlink:href="#DejaVuSans-34" x="63.623047"/>
       <use xlink:href="#DejaVuSans-30" x="127.246094"/>
      </g>
     </g>
    </g>
    <g id="xtick_10">
     <g id="line2d_10">
      <path d="M 222.890166 512.64 
L 222.890166 69.12 
" clip-path="url(#p35542300e2)" style="fill: none; stroke: #cccccc; stroke-width: 0.8; stroke-linecap: round"/>
     </g>
     <g id="text_10">
      <!-- 720 -->
      <g style="fill: #262626" transform="translate(218.668562 537.54543)rotate(-45)scale(0.088 -0.088)">
       <defs>
        <path id="DejaVuSans-37" d="M 525 4666 
L 3525 4666 
L 3525 4397 
L 1831 0 
L 1172 0 
L 2766 4134 
L 525 4134 
L 525 4666 
z
" transform="scale(0.015625)"/>
       </defs>
       <use xlink:href="#DejaVuSans-37"/>
       <use xlink:href="#DejaVuSans-32" x="63.623047"/>
       <use xlink:href="#DejaVuSans-30" x="127.246094"/>
      </g>
     </g>
    </g>
    <g id="xtick_11">
     <g id="line2d_11">
      <path d="M 239.916763 512.64 
L 239.916763 69.12 
" clip-path="url(#p35542300e2)" style="fill: none; stroke: #cccccc; stroke-width: 0.8; stroke-linecap: round"/>
     </g>
     <g id="text_11">
      <!-- 800 -->
      <g style="fill: #262626" transform="translate(235.695159 537.54543)rotate(-45)scale(0.088 -0.088)">
       <use xlink:href="#DejaVuSans-38"/>
       <use xlink:href="#DejaVuSans-30" x="63.623047"/>
       <use xlink:href="#DejaVuSans-30" x="127.246094"/>
      </g>
     </g>
    </g>
    <g id="xtick_12">
     <g id="line2d_12">
      <path d="M 256.94336 512.64 
L 256.94336 69.12 
" clip-path="url(#p35542300e2)" style="fill: none; stroke: #cccccc; stroke-width: 0.8; stroke-linecap: round"/>
     </g>
     <g id="text_12">
      <!-- 880 -->
      <g style="fill: #262626" transform="translate(252.721755 537.54543)rotate(-45)scale(0.088 -0.088)">
       <use xlink:href="#DejaVuSans-38"/>
       <use xlink:href="#DejaVuSans-38" x="63.623047"/>
       <use xlink:href="#DejaVuSans-30" x="127.246094"/>
      </g>
     </g>
    </g>
    <g id="xtick_13">
     <g id="line2d_13">
      <path d="M 273.969956 512.64 
L 273.969956 69.12 
" clip-path="url(#p35542300e2)" style="fill: none; stroke: #cccccc; stroke-width: 0.8; stroke-linecap: round"/>
     </g>
     <g id="text_13">
      <!-- 960 -->
      <g style="fill: #262626" transform="translate(269.748352 537.54543)rotate(-45)scale(0.088 -0.088)">
       <defs>
        <path id="DejaVuSans-39" d="M 703 97 
L 703 672 
Q 941 559 1184 500 
Q 1428 441 1663 441 
Q 2288 441 2617 861 
Q 2947 1281 2994 2138 
Q 2813 1869 2534 1725 
Q 2256 1581 1919 1581 
Q 1219 1581 811 2004 
Q 403 2428 403 3163 
Q 403 3881 828 4315 
Q 1253 4750 1959 4750 
Q 2769 4750 3195 4129 
Q 3622 3509 3622 2328 
Q 3622 1225 3098 567 
Q 2575 -91 1691 -91 
Q 1453 -91 1209 -44 
Q 966 3 703 97 
z
M 1959 2075 
Q 2384 2075 2632 2365 
Q 2881 2656 2881 3163 
Q 2881 3666 2632 3958 
Q 2384 4250 1959 4250 
Q 1534 4250 1286 3958 
Q 1038 3666 1038 3163 
Q 1038 2656 1286 2365 
Q 1534 2075 1959 2075 
z
" transform="scale(0.015625)"/>
       </defs>
       <use xlink:href="#DejaVuSans-39"/>
       <use xlink:href="#DejaVuSans-36" x="63.623047"/>
       <use xlink:href="#DejaVuSans-30" x="127.246094"/>
      </g>
     </g>
    </g>
    <g id="xtick_14">
     <g id="line2d_14">
      <path d="M 290.996553 512.64 
L 290.996553 69.12 
" clip-path="url(#p35542300e2)" style="fill: none; stroke: #cccccc; stroke-width: 0.8; stroke-linecap: round"/>
     </g>
     <g id="text_14">
      <!-- 1040 -->
      <g style="fill: #262626" transform="translate(284.795404 541.504521)rotate(-45)scale(0.088 -0.088)">
       <use xlink:href="#DejaVuSans-31"/>
       <use xlink:href="#DejaVuSans-30" x="63.623047"/>
       <use xlink:href="#DejaVuSans-34" x="127.246094"/>
       <use xlink:href="#DejaVuSans-30" x="190.869141"/>
      </g>
     </g>
    </g>
    <g id="xtick_15">
     <g id="line2d_15">
      <path d="M 308.02315 512.64 
L 308.02315 69.12 
" clip-path="url(#p35542300e2)" style="fill: none; stroke: #cccccc; stroke-width: 0.8; stroke-linecap: round"/>
     </g>
     <g id="text_15">
      <!-- 1120 -->
      <g style="fill: #262626" transform="translate(301.822 541.504521)rotate(-45)scale(0.088 -0.088)">
       <use xlink:href="#DejaVuSans-31"/>
       <use xlink:href="#DejaVuSans-31" x="63.623047"/>
       <use xlink:href="#DejaVuSans-32" x="127.246094"/>
       <use xlink:href="#DejaVuSans-30" x="190.869141"/>
      </g>
     </g>
    </g>
    <g id="xtick_16">
     <g id="line2d_16">
      <path d="M 325.049747 512.64 
L 325.049747 69.12 
" clip-path="url(#p35542300e2)" style="fill: none; stroke: #cccccc; stroke-width: 0.8; stroke-linecap: round"/>
     </g>
     <g id="text_16">
      <!-- 1200 -->
      <g style="fill: #262626" transform="translate(318.848597 541.504521)rotate(-45)scale(0.088 -0.088)">
       <use xlink:href="#DejaVuSans-31"/>
       <use xlink:href="#DejaVuSans-32" x="63.623047"/>
       <use xlink:href="#DejaVuSans-30" x="127.246094"/>
       <use xlink:href="#DejaVuSans-30" x="190.869141"/>
      </g>
     </g>
    </g>
    <g id="xtick_17">
     <g id="line2d_17">
      <path d="M 342.076343 512.64 
L 342.076343 69.12 
" clip-path="url(#p35542300e2)" style="fill: none; stroke: #cccccc; stroke-width: 0.8; stroke-linecap: round"/>
     </g>
     <g id="text_17">
      <!-- 1280 -->
      <g style="fill: #262626" transform="translate(335.875194 541.504521)rotate(-45)scale(0.088 -0.088)">
       <use xlink:href="#DejaVuSans-31"/>
       <use xlink:href="#DejaVuSans-32" x="63.623047"/>
       <use xlink:href="#DejaVuSans-38" x="127.246094"/>
       <use xlink:href="#DejaVuSans-30" x="190.869141"/>
      </g>
     </g>
    </g>
    <g id="xtick_18">
     <g id="line2d_18">
      <path d="M 359.10294 512.64 
L 359.10294 69.12 
" clip-path="url(#p35542300e2)" style="fill: none; stroke: #cccccc; stroke-width: 0.8; stroke-linecap: round"/>
     </g>
     <g id="text_18">
      <!-- 1360 -->
      <g style="fill: #262626" transform="translate(352.901791 541.504521)rotate(-45)scale(0.088 -0.088)">
       <use xlink:href="#DejaVuSans-31"/>
       <use xlink:href="#DejaVuSans-33" x="63.623047"/>
       <use xlink:href="#DejaVuSans-36" x="127.246094"/>
       <use xlink:href="#DejaVuSans-30" x="190.869141"/>
      </g>
     </g>
    </g>
    <g id="xtick_19">
     <g id="line2d_19">
      <path d="M 376.129537 512.64 
L 376.129537 69.12 
" clip-path="url(#p35542300e2)" style="fill: none; stroke: #cccccc; stroke-width: 0.8; stroke-linecap: round"/>
     </g>
     <g id="text_19">
      <!-- 1440 -->
      <g style="fill: #262626" transform="translate(369.928387 541.504521)rotate(-45)scale(0.088 -0.088)">
       <use xlink:href="#DejaVuSans-31"/>
       <use xlink:href="#DejaVuSans-34" x="63.623047"/>
       <use xlink:href="#DejaVuSans-34" x="127.246094"/>
       <use xlink:href="#DejaVuSans-30" x="190.869141"/>
      </g>
     </g>
    </g>
    <g id="text_20">
     <!-- Time (Minutes) -->
     <g style="fill: #262626" transform="translate(186.87375 554.093115)scale(0.096 -0.096)">
      <defs>
       <path id="DejaVuSans-54" d="M -19 4666 
L 3928 4666 
L 3928 4134 
L 2272 4134 
L 2272 0 
L 1638 0 
L 1638 4134 
L -19 4134 
L -19 4666 
z
" transform="scale(0.015625)"/>
       <path id="DejaVuSans-69" d="M 603 3500 
L 1178 3500 
L 1178 0 
L 603 0 
L 603 3500 
z
M 603 4863 
L 1178 4863 
L 1178 4134 
L 603 4134 
L 603 4863 
z
" transform="scale(0.015625)"/>
       <path id="DejaVuSans-6d" d="M 3328 2828 
Q 3544 3216 3844 3400 
Q 4144 3584 4550 3584 
Q 5097 3584 5394 3201 
Q 5691 2819 5691 2113 
L 5691 0 
L 5113 0 
L 5113 2094 
Q 5113 2597 4934 2840 
Q 4756 3084 4391 3084 
Q 3944 3084 3684 2787 
Q 3425 2491 3425 1978 
L 3425 0 
L 2847 0 
L 2847 2094 
Q 2847 2600 2669 2842 
Q 2491 3084 2119 3084 
Q 1678 3084 1418 2786 
Q 1159 2488 1159 1978 
L 1159 0 
L 581 0 
L 581 3500 
L 1159 3500 
L 1159 2956 
Q 1356 3278 1631 3431 
Q 1906 3584 2284 3584 
Q 2666 3584 2933 3390 
Q 3200 3197 3328 2828 
z
" transform="scale(0.015625)"/>
       <path id="DejaVuSans-65" d="M 3597 1894 
L 3597 1613 
L 953 1613 
Q 991 1019 1311 708 
Q 1631 397 2203 397 
Q 2534 397 2845 478 
Q 3156 559 3463 722 
L 3463 178 
Q 3153 47 2828 -22 
Q 2503 -91 2169 -91 
Q 1331 -91 842 396 
Q 353 884 353 1716 
Q 353 2575 817 3079 
Q 1281 3584 2069 3584 
Q 2775 3584 3186 3129 
Q 3597 2675 3597 1894 
z
M 3022 2063 
Q 3016 2534 2758 2815 
Q 2500 3097 2075 3097 
Q 1594 3097 1305 2825 
Q 1016 2553 972 2059 
L 3022 2063 
z
" transform="scale(0.015625)"/>
       <path id="DejaVuSans-20" transform="scale(0.015625)"/>
       <path id="DejaVuSans-28" d="M 1984 4856 
Q 1566 4138 1362 3434 
Q 1159 2731 1159 2009 
Q 1159 1288 1364 580 
Q 1569 -128 1984 -844 
L 1484 -844 
Q 1016 -109 783 600 
Q 550 1309 550 2009 
Q 550 2706 781 3412 
Q 1013 4119 1484 4856 
L 1984 4856 
z
" transform="scale(0.015625)"/>
       <path id="DejaVuSans-4d" d="M 628 4666 
L 1569 4666 
L 2759 1491 
L 3956 4666 
L 4897 4666 
L 4897 0 
L 4281 0 
L 4281 4097 
L 3078 897 
L 2444 897 
L 1241 4097 
L 1241 0 
L 628 0 
L 628 4666 
z
" transform="scale(0.015625)"/>
       <path id="DejaVuSans-6e" d="M 3513 2113 
L 3513 0 
L 2938 0 
L 2938 2094 
Q 2938 2591 2744 2837 
Q 2550 3084 2163 3084 
Q 1697 3084 1428 2787 
Q 1159 2491 1159 1978 
L 1159 0 
L 581 0 
L 581 3500 
L 1159 3500 
L 1159 2956 
Q 1366 3272 1645 3428 
Q 1925 3584 2291 3584 
Q 2894 3584 3203 3211 
Q 3513 2838 3513 2113 
z
" transform="scale(0.015625)"/>
       <path id="DejaVuSans-75" d="M 544 1381 
L 544 3500 
L 1119 3500 
L 1119 1403 
Q 1119 906 1312 657 
Q 1506 409 1894 409 
Q 2359 409 2629 706 
Q 2900 1003 2900 1516 
L 2900 3500 
L 3475 3500 
L 3475 0 
L 2900 0 
L 2900 538 
Q 2691 219 2414 64 
Q 2138 -91 1772 -91 
Q 1169 -91 856 284 
Q 544 659 544 1381 
z
M 1991 3584 
L 1991 3584 
z
" transform="scale(0.015625)"/>
       <path id="DejaVuSans-74" d="M 1172 4494 
L 1172 3500 
L 2356 3500 
L 2356 3053 
L 1172 3053 
L 1172 1153 
Q 1172 725 1289 603 
Q 1406 481 1766 481 
L 2356 481 
L 2356 0 
L 1766 0 
Q 1100 0 847 248 
Q 594 497 594 1153 
L 594 3053 
L 172 3053 
L 172 3500 
L 594 3500 
L 594 4494 
L 1172 4494 
z
" transform="scale(0.015625)"/>
       <path id="DejaVuSans-73" d="M 2834 3397 
L 2834 2853 
Q 2591 2978 2328 3040 
Q 2066 3103 1784 3103 
Q 1356 3103 1142 2972 
Q 928 2841 928 2578 
Q 928 2378 1081 2264 
Q 1234 2150 1697 2047 
L 1894 2003 
Q 2506 1872 2764 1633 
Q 3022 1394 3022 966 
Q 3022 478 2636 193 
Q 2250 -91 1575 -91 
Q 1294 -91 989 -36 
Q 684 19 347 128 
L 347 722 
Q 666 556 975 473 
Q 1284 391 1588 391 
Q 1994 391 2212 530 
Q 2431 669 2431 922 
Q 2431 1156 2273 1281 
Q 2116 1406 1581 1522 
L 1381 1569 
Q 847 1681 609 1914 
Q 372 2147 372 2553 
Q 372 3047 722 3315 
Q 1072 3584 1716 3584 
Q 2034 3584 2315 3537 
Q 2597 3491 2834 3397 
z
" transform="scale(0.015625)"/>
       <path id="DejaVuSans-29" d="M 513 4856 
L 1013 4856 
Q 1481 4119 1714 3412 
Q 1947 2706 1947 2009 
Q 1947 1309 1714 600 
Q 1481 -109 1013 -844 
L 513 -844 
Q 928 -128 1133 580 
Q 1338 1288 1338 2009 
Q 1338 2731 1133 3434 
Q 928 4138 513 4856 
z
" transform="scale(0.015625)"/>
      </defs>
      <use xlink:href="#DejaVuSans-54"/>
      <use xlink:href="#DejaVuSans-69" x="57.958984"/>
      <use xlink:href="#DejaVuSans-6d" x="85.742188"/>
      <use xlink:href="#DejaVuSans-65" x="183.154297"/>
      <use xlink:href="#DejaVuSans-20" x="244.677734"/>
      <use xlink:href="#DejaVuSans-28" x="276.464844"/>
      <use xlink:href="#DejaVuSans-4d" x="315.478516"/>
      <use xlink:href="#DejaVuSans-69" x="401.757812"/>
      <use xlink:href="#DejaVuSans-6e" x="429.541016"/>
      <use xlink:href="#DejaVuSans-75" x="492.919922"/>
      <use xlink:href="#DejaVuSans-74" x="556.298828"/>
      <use xlink:href="#DejaVuSans-65" x="595.507812"/>
      <use xlink:href="#DejaVuSans-73" x="657.03125"/>
      <use xlink:href="#DejaVuSans-29" x="709.130859"/>
     </g>
    </g>
   </g>
   <g id="matplotlib.axis_2">
    <g id="ytick_1">
     <g id="line2d_20">
      <path d="M 54.3375 492.48 
L 391.23 492.48 
" clip-path="url(#p35542300e2)" style="fill: none; stroke: #cccccc; stroke-width: 0.8; stroke-linecap: round"/>
     </g>
     <g id="text_21">
      <!-- 0 -->
      <g style="fill: #262626" transform="translate(40.4385 495.823312)scale(0.088 -0.088)">
       <use xlink:href="#DejaVuSans-30"/>
      </g>
     </g>
    </g>
    <g id="ytick_2">
     <g id="line2d_21">
      <path d="M 54.3375 447.176629 
L 391.23 447.176629 
" clip-path="url(#p35542300e2)" style="fill: none; stroke: #cccccc; stroke-width: 0.8; stroke-linecap: round"/>
     </g>
     <g id="text_22">
      <!-- 100 -->
      <g style="fill: #262626" transform="translate(29.2405 450.519942)scale(0.088 -0.088)">
       <use xlink:href="#DejaVuSans-31"/>
       <use xlink:href="#DejaVuSans-30" x="63.623047"/>
       <use xlink:href="#DejaVuSans-30" x="127.246094"/>
      </g>
     </g>
    </g>
    <g id="ytick_3">
     <g id="line2d_22">
      <path d="M 54.3375 401.873258 
L 391.23 401.873258 
" clip-path="url(#p35542300e2)" style="fill: none; stroke: #cccccc; stroke-width: 0.8; stroke-linecap: round"/>
     </g>
     <g id="text_23">
      <!-- 200 -->
      <g style="fill: #262626" transform="translate(29.2405 405.216571)scale(0.088 -0.088)">
       <use xlink:href="#DejaVuSans-32"/>
       <use xlink:href="#DejaVuSans-30" x="63.623047"/>
       <use xlink:href="#DejaVuSans-30" x="127.246094"/>
      </g>
     </g>
    </g>
    <g id="ytick_4">
     <g id="line2d_23">
      <path d="M 54.3375 356.569888 
L 391.23 356.569888 
" clip-path="url(#p35542300e2)" style="fill: none; stroke: #cccccc; stroke-width: 0.8; stroke-linecap: round"/>
     </g>
     <g id="text_24">
      <!-- 300 -->
      <g style="fill: #262626" transform="translate(29.2405 359.9132)scale(0.088 -0.088)">
       <use xlink:href="#DejaVuSans-33"/>
       <use xlink:href="#DejaVuSans-30" x="63.623047"/>
       <use xlink:href="#DejaVuSans-30" x="127.246094"/>
      </g>
     </g>
    </g>
    <g id="ytick_5">
     <g id="line2d_24">
      <path d="M 54.3375 311.266517 
L 391.23 311.266517 
" clip-path="url(#p35542300e2)" style="fill: none; stroke: #cccccc; stroke-width: 0.8; stroke-linecap: round"/>
     </g>
     <g id="text_25">
      <!-- 400 -->
      <g style="fill: #262626" transform="translate(29.2405 314.609829)scale(0.088 -0.088)">
       <use xlink:href="#DejaVuSans-34"/>
       <use xlink:href="#DejaVuSans-30" x="63.623047"/>
       <use xlink:href="#DejaVuSans-30" x="127.246094"/>
      </g>
     </g>
    </g>
    <g id="ytick_6">
     <g id="line2d_25">
      <path d="M 54.3375 265.963146 
L 391.23 265.963146 
" clip-path="url(#p35542300e2)" style="fill: none; stroke: #cccccc; stroke-width: 0.8; stroke-linecap: round"/>
     </g>
     <g id="text_26">
      <!-- 500 -->
      <g style="fill: #262626" transform="translate(29.2405 269.306459)scale(0.088 -0.088)">
       <use xlink:href="#DejaVuSans-35"/>
       <use xlink:href="#DejaVuSans-30" x="63.623047"/>
       <use xlink:href="#DejaVuSans-30" x="127.246094"/>
      </g>
     </g>
    </g>
    <g id="ytick_7">
     <g id="line2d_26">
      <path d="M 54.3375 220.659775 
L 391.23 220.659775 
" clip-path="url(#p35542300e2)" style="fill: none; stroke: #cccccc; stroke-width: 0.8; stroke-linecap: round"/>
     </g>
     <g id="text_27">
      <!-- 600 -->
      <g style="fill: #262626" transform="translate(29.2405 224.003088)scale(0.088 -0.088)">
       <use xlink:href="#DejaVuSans-36"/>
       <use xlink:href="#DejaVuSans-30" x="63.623047"/>
       <use xlink:href="#DejaVuSans-30" x="127.246094"/>
      </g>
     </g>
    </g>
    <g id="ytick_8">
     <g id="line2d_27">
      <path d="M 54.3375 175.356404 
L 391.23 175.356404 
" clip-path="url(#p35542300e2)" style="fill: none; stroke: #cccccc; stroke-width: 0.8; stroke-linecap: round"/>
     </g>
     <g id="text_28">
      <!-- 700 -->
      <g style="fill: #262626" transform="translate(29.2405 178.699717)scale(0.088 -0.088)">
       <use xlink:href="#DejaVuSans-37"/>
       <use xlink:href="#DejaVuSans-30" x="63.623047"/>
       <use xlink:href="#DejaVuSans-30" x="127.246094"/>
      </g>
     </g>
    </g>
    <g id="ytick_9">
     <g id="line2d_28">
      <path d="M 54.3375 130.053034 
L 391.23 130.053034 
" clip-path="url(#p35542300e2)" style="fill: none; stroke: #cccccc; stroke-width: 0.8; stroke-linecap: round"/>
     </g>
     <g id="text_29">
      <!-- 800 -->
      <g style="fill: #262626" transform="translate(29.2405 133.396346)scale(0.088 -0.088)">
       <use xlink:href="#DejaVuSans-38"/>
       <use xlink:href="#DejaVuSans-30" x="63.623047"/>
       <use xlink:href="#DejaVuSans-30" x="127.246094"/>
      </g>
     </g>
    </g>
    <g id="text_30">
     <!-- Edge Coverages -->
     <g style="fill: #262626" transform="translate(23.244 329.98575)rotate(-90)scale(0.096 -0.096)">
      <defs>
       <path id="DejaVuSans-45" d="M 628 4666 
L 3578 4666 
L 3578 4134 
L 1259 4134 
L 1259 2753 
L 3481 2753 
L 3481 2222 
L 1259 2222 
L 1259 531 
L 3634 531 
L 3634 0 
L 628 0 
L 628 4666 
z
" transform="scale(0.015625)"/>
       <path id="DejaVuSans-64" d="M 2906 2969 
L 2906 4863 
L 3481 4863 
L 3481 0 
L 2906 0 
L 2906 525 
Q 2725 213 2448 61 
Q 2172 -91 1784 -91 
Q 1150 -91 751 415 
Q 353 922 353 1747 
Q 353 2572 751 3078 
Q 1150 3584 1784 3584 
Q 2172 3584 2448 3432 
Q 2725 3281 2906 2969 
z
M 947 1747 
Q 947 1113 1208 752 
Q 1469 391 1925 391 
Q 2381 391 2643 752 
Q 2906 1113 2906 1747 
Q 2906 2381 2643 2742 
Q 2381 3103 1925 3103 
Q 1469 3103 1208 2742 
Q 947 2381 947 1747 
z
" transform="scale(0.015625)"/>
       <path id="DejaVuSans-67" d="M 2906 1791 
Q 2906 2416 2648 2759 
Q 2391 3103 1925 3103 
Q 1463 3103 1205 2759 
Q 947 2416 947 1791 
Q 947 1169 1205 825 
Q 1463 481 1925 481 
Q 2391 481 2648 825 
Q 2906 1169 2906 1791 
z
M 3481 434 
Q 3481 -459 3084 -895 
Q 2688 -1331 1869 -1331 
Q 1566 -1331 1297 -1286 
Q 1028 -1241 775 -1147 
L 775 -588 
Q 1028 -725 1275 -790 
Q 1522 -856 1778 -856 
Q 2344 -856 2625 -561 
Q 2906 -266 2906 331 
L 2906 616 
Q 2728 306 2450 153 
Q 2172 0 1784 0 
Q 1141 0 747 490 
Q 353 981 353 1791 
Q 353 2603 747 3093 
Q 1141 3584 1784 3584 
Q 2172 3584 2450 3431 
Q 2728 3278 2906 2969 
L 2906 3500 
L 3481 3500 
L 3481 434 
z
" transform="scale(0.015625)"/>
       <path id="DejaVuSans-43" d="M 4122 4306 
L 4122 3641 
Q 3803 3938 3442 4084 
Q 3081 4231 2675 4231 
Q 1875 4231 1450 3742 
Q 1025 3253 1025 2328 
Q 1025 1406 1450 917 
Q 1875 428 2675 428 
Q 3081 428 3442 575 
Q 3803 722 4122 1019 
L 4122 359 
Q 3791 134 3420 21 
Q 3050 -91 2638 -91 
Q 1578 -91 968 557 
Q 359 1206 359 2328 
Q 359 3453 968 4101 
Q 1578 4750 2638 4750 
Q 3056 4750 3426 4639 
Q 3797 4528 4122 4306 
z
" transform="scale(0.015625)"/>
       <path id="DejaVuSans-6f" d="M 1959 3097 
Q 1497 3097 1228 2736 
Q 959 2375 959 1747 
Q 959 1119 1226 758 
Q 1494 397 1959 397 
Q 2419 397 2687 759 
Q 2956 1122 2956 1747 
Q 2956 2369 2687 2733 
Q 2419 3097 1959 3097 
z
M 1959 3584 
Q 2709 3584 3137 3096 
Q 3566 2609 3566 1747 
Q 3566 888 3137 398 
Q 2709 -91 1959 -91 
Q 1206 -91 779 398 
Q 353 888 353 1747 
Q 353 2609 779 3096 
Q 1206 3584 1959 3584 
z
" transform="scale(0.015625)"/>
       <path id="DejaVuSans-76" d="M 191 3500 
L 800 3500 
L 1894 563 
L 2988 3500 
L 3597 3500 
L 2284 0 
L 1503 0 
L 191 3500 
z
" transform="scale(0.015625)"/>
       <path id="DejaVuSans-72" d="M 2631 2963 
Q 2534 3019 2420 3045 
Q 2306 3072 2169 3072 
Q 1681 3072 1420 2755 
Q 1159 2438 1159 1844 
L 1159 0 
L 581 0 
L 581 3500 
L 1159 3500 
L 1159 2956 
Q 1341 3275 1631 3429 
Q 1922 3584 2338 3584 
Q 2397 3584 2469 3576 
Q 2541 3569 2628 3553 
L 2631 2963 
z
" transform="scale(0.015625)"/>
       <path id="DejaVuSans-61" d="M 2194 1759 
Q 1497 1759 1228 1600 
Q 959 1441 959 1056 
Q 959 750 1161 570 
Q 1363 391 1709 391 
Q 2188 391 2477 730 
Q 2766 1069 2766 1631 
L 2766 1759 
L 2194 1759 
z
M 3341 1997 
L 3341 0 
L 2766 0 
L 2766 531 
Q 2569 213 2275 61 
Q 1981 -91 1556 -91 
Q 1019 -91 701 211 
Q 384 513 384 1019 
Q 384 1609 779 1909 
Q 1175 2209 1959 2209 
L 2766 2209 
L 2766 2266 
Q 2766 2663 2505 2880 
Q 2244 3097 1772 3097 
Q 1472 3097 1187 3025 
Q 903 2953 641 2809 
L 641 3341 
Q 956 3463 1253 3523 
Q 1550 3584 1831 3584 
Q 2591 3584 2966 3190 
Q 3341 2797 3341 1997 
z
" transform="scale(0.015625)"/>
      </defs>
      <use xlink:href="#DejaVuSans-45"/>
      <use xlink:href="#DejaVuSans-64" x="63.183594"/>
      <use xlink:href="#DejaVuSans-67" x="126.660156"/>
      <use xlink:href="#DejaVuSans-65" x="190.136719"/>
      <use xlink:href="#DejaVuSans-20" x="251.660156"/>
      <use xlink:href="#DejaVuSans-43" x="283.447266"/>
      <use xlink:href="#DejaVuSans-6f" x="353.271484"/>
      <use xlink:href="#DejaVuSans-76" x="414.453125"/>
      <use xlink:href="#DejaVuSans-65" x="473.632812"/>
      <use xlink:href="#DejaVuSans-72" x="535.15625"/>
      <use xlink:href="#DejaVuSans-61" x="576.269531"/>
      <use xlink:href="#DejaVuSans-67" x="637.548828"/>
      <use xlink:href="#DejaVuSans-65" x="701.025391"/>
      <use xlink:href="#DejaVuSans-73" x="762.548828"/>
     </g>
    </g>
   </g>
   <g id="PolyCollection_1">
    <defs>
     <path id="mb6a8520428" d="M 69.650795 -106.171685 
L 69.650795 -83.52 
L 69.650795 -106.171685 
L 69.650795 -106.171685 
z
" style="stroke: #db5f57; stroke-opacity: 0.2; stroke-width: 0.8"/>
    </defs>
    <g clip-path="url(#p35542300e2)">
     <use xlink:href="#mb6a8520428" x="0" y="576" style="fill: #db5f57; fill-opacity: 0.2; stroke: #db5f57; stroke-opacity: 0.2; stroke-width: 0.8"/>
    </g>
   </g>
   <g id="PolyCollection_2">
    <defs>
     <path id="m569cd43759" d="M 69.650795 -91.221573 
L 69.650795 -83.52 
L 69.650795 -91.221573 
L 69.650795 -91.221573 
z
" style="stroke: #b9db57; stroke-opacity: 0.2; stroke-width: 0.8"/>
    </defs>
    <g clip-path="url(#p35542300e2)">
     <use xlink:href="#m569cd43759" x="0" y="576" style="fill: #b9db57; fill-opacity: 0.2; stroke: #b9db57; stroke-opacity: 0.2; stroke-width: 0.8"/>
    </g>
   </g>
   <g id="PolyCollection_3">
    <defs>
     <path id="ma509046b5a" d="M 69.650795 -95.298876 
L 69.650795 -83.52 
L 69.650795 -95.298876 
L 69.650795 -95.298876 
z
" style="stroke: #57db94; stroke-opacity: 0.2; stroke-width: 0.8"/>
    </defs>
    <g clip-path="url(#p35542300e2)">
     <use xlink:href="#ma509046b5a" x="0" y="576" style="fill: #57db94; fill-opacity: 0.2; stroke: #57db94; stroke-opacity: 0.2; stroke-width: 0.8"/>
    </g>
   </g>
   <g id="PolyCollection_4">
    <defs>
     <path id="m9410743dca" d="M 69.650795 -116.138427 
L 69.650795 -83.52 
L 69.650795 -116.138427 
L 69.650795 -116.138427 
z
" style="stroke: #5784db; stroke-opacity: 0.2; stroke-width: 0.8"/>
    </defs>
    <g clip-path="url(#p35542300e2)">
     <use xlink:href="#m9410743dca" x="0" y="576" style="fill: #5784db; fill-opacity: 0.2; stroke: #5784db; stroke-opacity: 0.2; stroke-width: 0.8"/>
    </g>
   </g>
   <g id="PolyCollection_5">
    <defs>
     <path id="m01edff87d7" d="M 69.650795 -116.591461 
L 69.650795 -83.52 
L 69.650795 -116.591461 
L 69.650795 -116.591461 
z
" style="stroke: #c957db; stroke-opacity: 0.2; stroke-width: 0.8"/>
    </defs>
    <g clip-path="url(#p35542300e2)">
     <use xlink:href="#m01edff87d7" x="0" y="576" style="fill: #c957db; fill-opacity: 0.2; stroke: #c957db; stroke-opacity: 0.2; stroke-width: 0.8"/>
    </g>
   </g>
   <g id="line2d_29">
    <path d="M 69.650795 481.154157 
L 69.863628 451.706966 
L 70.07646 449.441798 
L 70.502125 447.629663 
L 70.92779 440.381124 
L 71.566288 429.055281 
L 71.77912 428.149213 
L 71.991953 425.884045 
L 72.843282 413.199101 
L 73.056115 411.84 
L 73.268947 409.574831 
L 73.694612 408.21573 
L 73.907445 407.762697 
L 74.120277 407.762697 
L 74.545942 405.497528 
L 74.758774 405.497528 
L 74.971607 404.138427 
L 75.184439 401.873258 
L 75.397272 401.420225 
L 75.610104 401.420225 
L 75.822937 400.967191 
L 76.035769 400.061124 
L 76.674267 400.061124 
L 76.887099 399.60809 
L 77.312764 399.60809 
L 77.525596 399.155056 
L 77.738429 399.155056 
L 77.951261 398.702022 
L 78.589759 398.702022 
L 79.441089 394.624719 
L 79.653921 391.453483 
L 79.866754 391.000449 
L 80.292418 391.000449 
L 80.505251 390.547416 
L 81.356581 387.37618 
L 81.782246 386.470112 
L 81.995078 386.470112 
L 82.207911 385.111011 
L 83.697738 385.111011 
L 83.91057 384.657978 
L 84.123403 384.657978 
L 84.336235 384.204944 
L 85.187565 381.033708 
L 85.826062 379.674607 
L 86.890225 379.674607 
L 87.103057 379.221573 
L 87.741555 379.221573 
L 88.167219 359.28809 
L 88.380052 357.475955 
L 88.805717 357.475955 
L 89.018549 357.022921 
L 89.444214 357.022921 
L 89.869879 356.116854 
L 90.508376 356.116854 
L 90.721209 355.66382 
L 90.934041 353.398652 
L 93.062366 353.398652 
L 93.275198 352.945618 
L 98.170345 352.945618 
L 98.383177 352.492584 
L 98.59601 352.492584 
L 98.808842 352.039551 
L 99.234507 352.039551 
L 99.44734 349.774382 
L 99.660172 340.713708 
L 100.085837 335.277303 
L 100.724335 335.277303 
L 100.937167 334.82427 
L 101.362832 334.82427 
L 101.575664 334.371236 
L 101.788497 332.106067 
L 104.768151 332.106067 
L 104.980984 331.653034 
L 105.193816 331.653034 
L 105.406649 328.481798 
L 105.619481 327.122697 
L 106.257978 327.122697 
L 106.470811 326.669663 
L 106.683643 326.669663 
L 106.896476 326.216629 
L 109.0248 326.216629 
L 109.237633 325.763596 
L 109.450465 325.763596 
L 109.663298 324.857528 
L 109.87613 321.686292 
L 113.919947 321.686292 
L 114.132779 321.233258 
L 114.345612 318.96809 
L 115.196942 318.96809 
L 115.409774 318.515056 
L 115.835439 318.515056 
L 116.048272 318.062022 
L 116.473937 318.062022 
L 116.686769 317.608989 
L 116.899601 317.608989 
L 117.112434 317.155955 
L 119.666423 317.155955 
L 119.879256 316.702921 
L 120.517753 316.702921 
L 120.730586 316.249888 
L 123.071743 316.249888 
L 123.284575 315.796854 
L 123.497408 314.890787 
L 123.71024 305.830112 
L 123.923073 305.377079 
L 127.966889 305.377079 
L 128.179722 304.924045 
L 128.818219 304.924045 
L 129.031052 304.017978 
L 130.520879 304.017978 
L 130.733711 302.658876 
L 131.372209 302.658876 
L 131.585041 302.205843 
L 132.649203 302.205843 
L 132.862036 284.084494 
L 136.905853 284.084494 
L 137.118685 283.631461 
L 141.375334 283.631461 
L 141.588167 283.178427 
L 141.800999 259.16764 
L 144.142156 259.16764 
L 144.354989 257.355506 
L 144.567821 256.902472 
L 144.780654 256.902472 
L 144.993486 255.996404 
L 147.121811 255.996404 
L 147.547476 255.090337 
L 148.185973 255.090337 
L 148.398805 254.637303 
L 149.250135 254.637303 
L 149.462968 252.372135 
L 151.37846 252.372135 
L 151.591292 251.919101 
L 151.804125 250.56 
L 153.08112 250.56 
L 153.293952 250.106966 
L 154.145282 250.106966 
L 154.358114 249.200899 
L 155.635109 249.200899 
L 155.847942 248.747865 
L 156.273606 248.747865 
L 156.486439 247.841798 
L 159.891758 247.841798 
L 160.317423 246.482697 
L 160.530256 246.482697 
L 160.955921 245.576629 
L 163.084245 245.576629 
L 163.297078 245.123596 
L 164.36124 245.123596 
L 164.574072 244.670562 
L 169.682051 244.670562 
L 169.894884 236.062921 
L 170.107716 235.156854 
L 170.533381 235.156854 
L 170.746214 234.70382 
L 172.236041 234.70382 
L 172.661706 233.344719 
L 172.874538 233.344719 
L 173.087371 232.891685 
L 176.705523 232.891685 
L 176.918355 232.438652 
L 177.34402 232.438652 
L 177.556852 231.985618 
L 180.323674 231.985618 
L 180.536507 229.267416 
L 184.154659 229.267416 
L 184.367491 228.814382 
L 185.005988 228.814382 
L 185.218821 228.361348 
L 186.070151 228.361348 
L 186.282983 227.908315 
L 190.965297 227.908315 
L 191.17813 227.455281 
L 191.390962 227.455281 
L 191.603795 222.924944 
L 192.880789 222.924944 
L 193.093622 222.47191 
L 196.711774 222.47191 
L 196.924606 222.018876 
L 198.201601 222.018876 
L 198.414433 221.565843 
L 199.265763 221.565843 
L 199.478596 221.112809 
L 199.904261 221.112809 
L 200.117093 220.659775 
L 205.863569 220.659775 
L 206.076402 220.206742 
L 206.289234 216.582472 
L 211.822878 216.582472 
L 212.248543 212.958202 
L 212.461376 212.505169 
L 215.44103 212.505169 
L 215.653863 212.052135 
L 215.866695 212.052135 
L 216.079528 209.333933 
L 216.505192 207.974831 
L 216.930857 198.00809 
L 217.569355 195.742921 
L 217.99502 194.836854 
L 218.420685 194.836854 
L 218.633517 193.477753 
L 218.84635 193.477753 
L 219.059182 191.665618 
L 219.272014 191.665618 
L 219.484847 190.306517 
L 227.146815 190.306517 
L 227.359648 189.853483 
L 231.82913 189.853483 
L 232.041962 189.400449 
L 232.254794 169.92 
L 235.021616 169.92 
L 235.234449 169.466966 
L 236.724276 169.466966 
L 236.937109 167.654831 
L 237.149941 167.654831 
L 237.362773 167.201798 
L 238.001271 162.218427 
L 240.55526 162.218427 
L 240.768093 161.765393 
L 245.663239 161.765393 
L 245.876072 152.251685 
L 246.088904 152.251685 
L 246.301737 151.798652 
L 246.514569 150.892584 
L 248.642894 150.892584 
L 248.855726 150.439551 
L 253.53804 150.439551 
L 254.176538 148.174382 
L 254.815035 148.174382 
L 255.027868 147.721348 
L 255.879197 147.721348 
L 256.09203 146.815281 
L 267.37215 146.815281 
L 267.584983 145.45618 
L 268.436313 145.45618 
L 268.649145 144.550112 
L 280.142098 144.550112 
L 280.35493 144.097079 
L 280.567763 144.097079 
L 280.780595 143.644045 
L 280.993428 143.644045 
L 281.20626 143.191011 
L 285.888574 143.191011 
L 286.101407 142.737978 
L 288.442564 142.737978 
L 288.655396 142.284944 
L 297.381527 142.284944 
L 297.594359 141.83191 
L 300.148349 141.83191 
L 300.361181 141.378876 
L 302.063841 141.378876 
L 302.276674 136.848539 
L 302.489506 136.395506 
L 302.702339 136.395506 
L 303.553668 133.22427 
L 303.979333 132.318202 
L 304.404998 132.318202 
L 304.617831 131.412135 
L 304.830663 131.412135 
L 305.043496 129.6 
L 305.256328 129.6 
L 305.681993 125.069663 
L 305.894825 124.616629 
L 306.107658 124.616629 
L 306.32049 123.710562 
L 306.533323 123.710562 
L 306.958988 122.804494 
L 307.17182 121.898427 
L 307.384653 121.898427 
L 307.597485 121.445393 
L 308.448815 121.445393 
L 308.661647 120.539326 
L 312.066967 120.539326 
L 312.279799 120.086292 
L 314.408124 120.086292 
L 314.620956 119.633258 
L 314.833789 119.633258 
L 315.046621 119.180225 
L 319.728935 119.180225 
L 319.941768 118.727191 
L 321.431595 118.727191 
L 321.644427 117.821124 
L 321.85726 117.821124 
L 322.070092 117.36809 
L 331.221888 117.36809 
L 331.434721 116.462022 
L 352.717966 116.462022 
L 353.143631 113.74382 
L 358.038778 113.74382 
L 358.25161 113.290787 
L 358.464443 112.384719 
L 361.65693 112.384719 
L 361.869762 111.931685 
L 375.916705 111.931685 
L 375.916705 111.931685 
" clip-path="url(#p35542300e2)" style="fill: none; stroke: #db5f57; stroke-width: 1.2; stroke-linecap: round"/>
   </g>
   <g id="line2d_30">
    <path d="M 69.650795 488.629213 
L 69.863628 482.966292 
L 70.07646 453.972135 
L 70.289293 453.972135 
L 70.502125 452.613034 
L 70.92779 445.364494 
L 71.140623 443.55236 
L 71.353455 438.568989 
L 71.77912 434.491685 
L 71.991953 434.038652 
L 72.204785 432.226517 
L 72.63045 432.226517 
L 72.843282 431.773483 
L 73.056115 431.773483 
L 73.268947 431.320449 
L 73.48178 429.961348 
L 73.694612 429.508315 
L 74.120277 428.149213 
L 74.33311 427.69618 
L 75.822937 421.806742 
L 76.035769 421.353708 
L 76.887099 421.353708 
L 77.951261 391.906517 
L 78.376926 391.906517 
L 78.589759 391.453483 
L 78.802591 391.453483 
L 79.015424 391.000449 
L 80.292418 391.000449 
L 80.505251 390.094382 
L 80.930916 390.094382 
L 81.356581 375.14427 
L 83.484905 375.14427 
L 83.697738 374.691236 
L 84.336235 374.691236 
L 84.549068 374.238202 
L 84.974733 374.238202 
L 85.187565 373.785169 
L 85.400397 366.536629 
L 85.61323 366.083596 
L 86.038895 364.724494 
L 86.46456 364.724494 
L 86.677392 362.459326 
L 87.103057 362.459326 
L 87.31589 361.100225 
L 88.592884 361.100225 
L 88.805717 360.647191 
L 91.359706 360.647191 
L 91.572539 358.835056 
L 91.998204 352.945618 
L 92.636701 352.945618 
L 92.849534 352.492584 
L 93.062366 352.492584 
L 93.275198 352.039551 
L 93.488031 352.039551 
L 93.700863 351.133483 
L 96.89335 351.133483 
L 97.319015 346.603146 
L 97.74468 346.603146 
L 97.957513 346.150112 
L 99.660172 346.150112 
L 100.085837 341.619775 
L 102.001329 341.619775 
L 102.214162 341.166742 
L 102.426994 334.371236 
L 103.065492 334.371236 
L 103.278324 333.918202 
L 105.619481 333.918202 
L 105.832314 333.465169 
L 106.257978 333.465169 
L 106.470811 329.387865 
L 107.960638 329.387865 
L 108.173471 328.028764 
L 109.450465 328.028764 
L 109.663298 325.763596 
L 112.217287 325.763596 
L 112.43012 324.857528 
L 113.919947 324.857528 
L 114.132779 323.951461 
L 115.835439 323.951461 
L 116.048272 320.780225 
L 117.750931 320.780225 
L 117.963764 317.155955 
L 121.794748 317.155955 
L 122.00758 316.702921 
L 123.923073 316.702921 
L 124.135905 308.095281 
L 124.348738 307.642247 
L 125.838565 307.642247 
L 126.051397 307.189213 
L 126.26423 307.189213 
L 126.477062 306.73618 
L 133.713366 306.73618 
L 133.926198 306.283146 
L 134.139031 305.377079 
L 137.757182 305.377079 
L 137.970015 304.924045 
L 139.034177 304.924045 
L 139.24701 276.382921 
L 139.459842 268.681348 
L 141.800999 268.681348 
L 142.013832 263.697978 
L 144.993486 263.697978 
L 145.206319 260.526742 
L 147.547476 260.526742 
L 147.973141 259.16764 
L 148.82447 259.16764 
L 149.037303 257.355506 
L 154.358114 257.355506 
L 154.570947 255.090337 
L 154.783779 254.18427 
L 155.847942 254.18427 
L 156.060774 253.278202 
L 157.337769 253.278202 
L 157.550601 251.919101 
L 166.489564 251.919101 
L 166.702397 251.466067 
L 170.533381 251.466067 
L 170.746214 240.140225 
L 180.323674 240.140225 
L 180.536507 235.609888 
L 183.941826 235.609888 
L 184.367491 234.70382 
L 187.985643 234.70382 
L 188.198475 231.985618 
L 190.965297 231.985618 
L 191.17813 231.532584 
L 194.157784 231.532584 
L 194.370617 229.267416 
L 194.583449 228.814382 
L 200.329926 228.814382 
L 200.542758 227.002247 
L 206.076402 227.002247 
L 206.289234 223.377978 
L 217.14369 223.377978 
L 217.356522 210.24 
L 218.207852 210.24 
L 218.420685 208.880899 
L 218.633517 208.880899 
L 219.059182 207.974831 
L 220.123344 207.974831 
L 220.336177 201.179326 
L 221.187507 201.179326 
L 221.400339 200.726292 
L 222.890166 200.726292 
L 223.102999 196.648989 
L 224.379993 196.648989 
L 224.592826 196.195955 
L 231.616297 196.195955 
L 231.82913 183.057978 
L 234.808784 183.057978 
L 235.021616 182.604944 
L 238.852601 182.604944 
L 239.065433 174.903371 
L 243.322082 174.903371 
L 243.534915 169.013933 
L 257.79469 169.013933 
L 258.220354 160.406292 
L 265.456658 160.406292 
L 265.669491 159.953258 
L 268.010648 159.953258 
L 268.22348 159.500225 
L 269.287642 159.500225 
L 269.500475 158.594157 
L 280.993428 158.594157 
L 281.20626 157.68809 
L 287.378401 157.68809 
L 287.591234 157.235056 
L 291.847883 157.235056 
L 292.060716 156.782022 
L 297.168695 156.782022 
L 297.381527 154.969888 
L 305.043496 154.969888 
L 305.256328 145.003146 
L 309.087312 145.003146 
L 309.300145 138.660674 
L 313.343961 138.660674 
L 313.556794 138.20764 
L 320.367433 138.20764 
L 320.580265 137.754607 
L 320.793098 135.942472 
L 322.921422 135.942472 
L 323.134255 135.036404 
L 335.052872 135.036404 
L 335.265705 134.130337 
L 342.927673 134.130337 
L 343.140506 133.677303 
L 349.52548 133.677303 
L 349.738312 131.412135 
L 361.231265 131.412135 
L 361.444097 130.506067 
L 365.487914 130.506067 
L 365.700746 130.053034 
L 375.916705 130.053034 
L 375.916705 130.053034 
" clip-path="url(#p35542300e2)" style="fill: none; stroke: #b9db57; stroke-width: 1.2; stroke-linecap: round"/>
   </g>
   <g id="line2d_31">
    <path d="M 69.650795 486.590562 
L 69.863628 479.795056 
L 70.92779 479.795056 
L 71.140623 445.817528 
L 71.77912 428.149213 
L 72.417617 423.165843 
L 72.63045 422.712809 
L 72.843282 420.900674 
L 73.056115 417.729438 
L 73.268947 408.21573 
L 73.694612 403.23236 
L 73.907445 401.873258 
L 74.33311 393.718652 
L 74.545942 392.359551 
L 74.758774 392.359551 
L 74.971607 391.000449 
L 75.184439 391.000449 
L 75.397272 390.094382 
L 75.610104 390.094382 
L 75.822937 389.641348 
L 78.802591 389.641348 
L 79.015424 386.017079 
L 79.228256 377.862472 
L 79.441089 374.238202 
L 79.653921 374.238202 
L 79.866754 373.785169 
L 80.079586 373.785169 
L 80.292418 373.332135 
L 80.505251 368.801798 
L 80.718083 368.801798 
L 80.930916 366.989663 
L 81.356581 366.083596 
L 81.569413 366.083596 
L 81.782246 365.630562 
L 81.995078 365.630562 
L 82.207911 365.177528 
L 83.484905 365.177528 
L 83.697738 361.553258 
L 84.7619 359.28809 
L 84.974733 359.28809 
L 85.187565 358.382022 
L 85.61323 358.382022 
L 86.038895 357.475955 
L 86.677392 357.475955 
L 86.890225 355.210787 
L 87.31589 355.210787 
L 87.528722 354.757753 
L 87.954387 354.757753 
L 88.380052 353.851685 
L 90.082712 353.851685 
L 90.295544 352.945618 
L 90.508376 351.133483 
L 90.721209 350.680449 
L 91.146874 350.680449 
L 91.572539 349.321348 
L 94.552193 349.321348 
L 95.190691 343.43191 
L 96.89335 343.43191 
L 97.106183 341.619775 
L 98.170345 341.619775 
L 98.383177 341.166742 
L 109.87613 341.166742 
L 110.088963 340.713708 
L 110.940293 340.713708 
L 111.153125 324.857528 
L 112.217287 324.857528 
L 112.43012 324.404494 
L 115.409774 324.404494 
L 115.622607 321.233258 
L 116.048272 321.233258 
L 116.261104 320.780225 
L 119.666423 320.780225 
L 119.879256 317.608989 
L 120.092088 317.155955 
L 130.946544 317.155955 
L 131.159376 316.702921 
L 137.54435 316.702921 
L 137.757182 300.846742 
L 137.970015 261.432809 
L 142.652329 261.432809 
L 142.865161 259.16764 
L 143.077994 254.18427 
L 147.121811 254.18427 
L 147.334643 252.372135 
L 147.547476 251.919101 
L 161.381585 251.919101 
L 161.594418 251.466067 
L 164.786905 251.466067 
L 164.999737 241.499326 
L 168.192224 241.499326 
L 168.405057 236.062921 
L 171.597544 236.062921 
L 171.810376 230.173483 
L 174.577198 230.173483 
L 174.79003 228.361348 
L 177.982517 228.361348 
L 178.19535 227.908315 
L 181.175004 227.908315 
L 181.387837 224.284045 
L 184.367491 224.284045 
L 184.580324 222.47191 
L 188.62414 222.47191 
L 189.049805 221.565843 
L 192.242292 221.565843 
L 192.455125 220.659775 
L 195.434779 220.659775 
L 195.647611 219.300674 
L 198.627266 219.300674 
L 198.840098 217.941573 
L 202.032585 217.941573 
L 202.245418 216.582472 
L 202.45825 216.129438 
L 205.863569 216.129438 
L 206.076402 214.770337 
L 209.268889 214.770337 
L 209.481721 213.411236 
L 212.674208 213.411236 
L 212.887041 210.693034 
L 214.164035 210.693034 
L 214.376868 208.427865 
L 217.782187 208.427865 
L 217.99502 193.477753 
L 221.613171 193.477753 
L 221.826004 187.135281 
L 225.444156 187.135281 
L 225.656988 173.54427 
L 229.27514 173.54427 
L 229.487972 169.92 
L 234.383119 169.92 
L 234.595951 167.654831 
L 252.899543 167.654831 
L 253.112375 146.362247 
L 257.156192 146.362247 
L 257.369025 144.097079 
L 260.561512 144.097079 
L 260.774344 143.644045 
L 264.179663 143.644045 
L 264.392496 143.191011 
L 270.990302 143.191011 
L 271.203135 142.284944 
L 287.804066 142.284944 
L 288.016899 141.83191 
L 293.763375 141.83191 
L 293.976208 141.378876 
L 296.104532 141.378876 
L 296.317365 140.925843 
L 296.530197 139.566742 
L 297.594359 139.566742 
L 297.807192 139.113708 
L 302.915171 139.113708 
L 303.128003 132.771236 
L 308.448815 132.771236 
L 308.661647 129.146966 
L 308.87448 119.180225 
L 312.066967 119.180225 
L 312.279799 118.727191 
L 315.259454 118.727191 
L 315.472286 117.821124 
L 318.451941 117.821124 
L 318.664773 117.36809 
L 322.282925 117.36809 
L 322.495757 116.008989 
L 342.076343 116.008989 
L 342.289176 115.102921 
L 342.502008 115.102921 
L 342.927673 114.196854 
L 343.140506 114.196854 
L 343.353338 113.74382 
L 343.566171 113.74382 
L 343.779003 113.290787 
L 347.184323 113.290787 
L 347.397155 111.478652 
L 359.95427 111.478652 
L 360.167103 110.119551 
L 363.359589 110.119551 
L 363.572422 109.666517 
L 375.916705 109.666517 
L 375.916705 109.666517 
" clip-path="url(#p35542300e2)" style="fill: none; stroke: #57db94; stroke-width: 1.2; stroke-linecap: round"/>
   </g>
   <g id="line2d_32">
    <path d="M 69.650795 476.170787 
L 69.863628 453.972135 
L 70.07646 446.270562 
L 71.140623 438.115955 
L 71.353455 437.209888 
L 71.566288 437.209888 
L 73.056115 424.977978 
L 73.268947 424.07191 
L 73.694612 421.353708 
L 73.907445 420.900674 
L 74.33311 419.088539 
L 74.545942 419.088539 
L 74.971607 398.702022 
L 75.184439 393.718652 
L 75.397272 392.812584 
L 75.610104 390.547416 
L 77.312764 390.547416 
L 77.525596 389.188315 
L 77.738429 384.657978 
L 77.951261 382.845843 
L 78.164094 382.845843 
L 78.802591 381.486742 
L 79.015424 380.12764 
L 79.228256 379.674607 
L 79.653921 378.315506 
L 79.866754 375.597303 
L 80.079586 375.597303 
L 80.505251 372.879101 
L 88.167219 372.879101 
L 88.380052 372.426067 
L 89.018549 372.426067 
L 89.231382 369.254831 
L 89.444214 355.210787 
L 91.359706 355.210787 
L 91.572539 354.757753 
L 92.636701 354.757753 
L 92.849534 354.304719 
L 94.339361 354.304719 
L 94.552193 352.945618 
L 94.765026 347.05618 
L 96.680518 347.05618 
L 96.89335 345.244045 
L 97.319015 345.244045 
L 97.531848 344.791011 
L 98.170345 344.791011 
L 98.383177 344.337978 
L 100.085837 344.337978 
L 100.29867 342.525843 
L 100.511502 339.354607 
L 101.362832 339.354607 
L 101.575664 338.901573 
L 101.788497 338.901573 
L 102.001329 337.542472 
L 102.214162 337.542472 
L 102.426994 335.730337 
L 104.555319 335.730337 
L 104.768151 335.277303 
L 105.406649 335.277303 
L 105.619481 334.82427 
L 106.045146 334.82427 
L 106.257978 334.371236 
L 107.109308 334.371236 
L 107.534973 333.465169 
L 107.747806 333.465169 
L 107.960638 330.293933 
L 108.599136 330.293933 
L 109.0248 329.387865 
L 109.237633 329.387865 
L 109.450465 328.481798 
L 110.301795 328.481798 
L 110.514628 328.028764 
L 111.57879 328.028764 
L 111.791622 327.122697 
L 113.919947 327.122697 
L 114.132779 326.216629 
L 114.558444 326.216629 
L 114.771277 324.857528 
L 115.409774 324.857528 
L 115.622607 324.404494 
L 117.325266 324.404494 
L 117.538099 320.327191 
L 119.027926 320.327191 
L 119.240758 319.874157 
L 120.092088 319.874157 
L 120.304921 315.796854 
L 120.943418 315.796854 
L 121.156251 315.34382 
L 122.433245 315.34382 
L 122.646078 312.625618 
L 122.85891 312.625618 
L 123.071743 311.719551 
L 123.497408 311.719551 
L 123.71024 311.266517 
L 123.923073 311.266517 
L 124.135905 310.813483 
L 125.838565 310.813483 
L 126.051397 308.548315 
L 128.179722 308.548315 
L 128.392554 304.017978 
L 128.605387 304.017978 
L 128.818219 303.564944 
L 130.946544 303.564944 
L 131.159376 295.410337 
L 131.372209 294.051236 
L 131.585041 294.051236 
L 131.797874 293.598202 
L 132.010706 283.178427 
L 132.862036 283.178427 
L 133.074868 282.725393 
L 133.500533 282.725393 
L 133.713366 282.27236 
L 134.351863 282.27236 
L 134.564696 267.775281 
L 135.416025 267.775281 
L 135.628858 267.322247 
L 136.480188 267.322247 
L 136.69302 262.338876 
L 137.757182 262.338876 
L 137.970015 260.979775 
L 140.09834 260.979775 
L 140.311172 260.526742 
L 140.524004 260.526742 
L 140.736837 260.073708 
L 141.375334 260.073708 
L 141.800999 259.16764 
L 142.013832 259.16764 
L 142.226664 258.714607 
L 142.652329 258.714607 
L 142.865161 255.090337 
L 143.716491 255.090337 
L 143.929324 254.637303 
L 144.567821 254.637303 
L 144.780654 253.731236 
L 145.419151 253.731236 
L 145.631983 253.278202 
L 146.057648 253.278202 
L 146.270481 252.825169 
L 147.760308 252.825169 
L 147.973141 252.372135 
L 148.185973 251.013034 
L 148.611638 251.013034 
L 148.82447 250.56 
L 149.462968 250.56 
L 149.6758 250.106966 
L 150.739962 250.106966 
L 150.952795 248.747865 
L 152.016957 248.747865 
L 152.22979 247.841798 
L 154.570947 247.841798 
L 154.783779 246.93573 
L 156.060774 246.93573 
L 156.273606 245.576629 
L 156.486439 245.576629 
L 156.699271 245.123596 
L 157.976266 245.123596 
L 158.189099 244.670562 
L 160.743088 244.670562 
L 160.955921 243.311461 
L 162.232915 243.311461 
L 162.445748 242.858427 
L 163.50991 242.858427 
L 163.722743 242.405393 
L 165.425402 242.405393 
L 165.638235 241.95236 
L 165.851067 241.95236 
L 166.0639 241.046292 
L 166.276732 241.046292 
L 166.702397 238.32809 
L 168.192224 238.32809 
L 168.617889 236.968989 
L 168.830722 236.968989 
L 169.043554 234.250787 
L 169.469219 234.250787 
L 169.682051 233.797753 
L 170.533381 233.797753 
L 170.746214 231.985618 
L 172.448873 231.985618 
L 172.874538 231.079551 
L 173.725868 231.079551 
L 173.938701 230.626517 
L 177.982517 230.626517 
L 178.19535 229.267416 
L 178.408182 228.814382 
L 180.110842 228.814382 
L 180.323674 227.455281 
L 180.536507 227.455281 
L 180.749339 227.002247 
L 180.962172 227.002247 
L 181.175004 226.549213 
L 181.813502 226.549213 
L 182.026334 226.09618 
L 184.154659 226.09618 
L 184.580324 225.190112 
L 186.070151 225.190112 
L 186.282983 224.284045 
L 187.77281 224.284045 
L 187.985643 223.831011 
L 189.688303 223.831011 
L 189.901135 223.377978 
L 191.816627 223.377978 
L 192.02946 222.47191 
L 192.455125 222.47191 
L 192.667957 222.018876 
L 194.157784 222.018876 
L 194.370617 221.565843 
L 197.350271 221.565843 
L 197.563104 220.659775 
L 200.329926 220.659775 
L 200.542758 218.84764 
L 202.032585 218.84764 
L 202.245418 218.394607 
L 204.16091 218.394607 
L 204.373742 217.035506 
L 206.076402 217.035506 
L 206.289234 216.582472 
L 207.140564 216.582472 
L 207.353397 216.129438 
L 212.248543 216.129438 
L 212.461376 214.317303 
L 214.164035 214.317303 
L 214.376868 211.599101 
L 216.930857 211.599101 
L 217.14369 200.726292 
L 219.910512 200.726292 
L 220.123344 191.665618 
L 222.251669 191.665618 
L 222.464501 191.212584 
L 222.677334 191.212584 
L 222.890166 185.77618 
L 223.528664 185.77618 
L 223.741496 180.339775 
L 223.954329 179.886742 
L 225.018491 179.886742 
L 225.231323 179.433708 
L 225.444156 179.433708 
L 225.656988 178.074607 
L 227.785313 178.074607 
L 227.998145 176.715506 
L 228.210978 176.262472 
L 228.42381 174.450337 
L 228.849475 174.450337 
L 229.062308 173.997303 
L 229.700805 173.997303 
L 230.12647 172.638202 
L 230.552135 171.732135 
L 236.298611 171.732135 
L 236.937109 170.373034 
L 237.149941 169.466966 
L 237.575606 169.466966 
L 238.001271 164.483596 
L 240.129595 164.483596 
L 240.342428 159.500225 
L 240.980925 159.500225 
L 241.193758 159.047191 
L 242.045088 159.047191 
L 242.25792 158.141124 
L 242.896417 158.141124 
L 243.10925 157.68809 
L 244.173412 157.68809 
L 244.599077 156.782022 
L 245.024742 155.422921 
L 245.237574 155.422921 
L 245.450407 154.969888 
L 246.088904 154.969888 
L 246.301737 152.704719 
L 247.365899 152.704719 
L 247.578732 151.345618 
L 247.791564 151.345618 
L 248.004396 150.892584 
L 249.919889 150.892584 
L 250.132721 149.986517 
L 254.602203 149.986517 
L 254.815035 148.627416 
L 255.879197 148.627416 
L 256.09203 148.174382 
L 257.79469 148.174382 
L 258.007522 147.721348 
L 260.774344 147.721348 
L 260.987176 147.268315 
L 267.37215 147.268315 
L 267.584983 146.815281 
L 270.77747 146.815281 
L 270.990302 146.362247 
L 286.527072 146.362247 
L 286.739904 145.909213 
L 289.932391 145.909213 
L 290.145223 145.45618 
L 296.955862 145.45618 
L 297.168695 143.644045 
L 298.020024 143.644045 
L 298.232857 141.83191 
L 298.658522 141.83191 
L 298.871354 141.378876 
L 299.509852 141.378876 
L 299.935517 140.472809 
L 300.999679 140.472809 
L 301.212511 140.019775 
L 302.063841 140.019775 
L 302.915171 138.20764 
L 303.128003 138.20764 
L 303.340836 136.395506 
L 303.766501 136.395506 
L 303.979333 135.489438 
L 304.192166 135.489438 
L 304.617831 134.130337 
L 305.043496 134.130337 
L 305.256328 132.771236 
L 305.681993 132.771236 
L 305.894825 132.318202 
L 306.107658 129.146966 
L 306.533323 129.146966 
L 306.746155 126.881798 
L 307.597485 126.881798 
L 307.810318 125.97573 
L 308.235982 125.97573 
L 308.448815 125.522697 
L 308.661647 125.522697 
L 308.87448 125.069663 
L 312.492632 125.069663 
L 312.705464 124.616629 
L 315.259454 124.616629 
L 315.472286 124.163596 
L 318.239108 124.163596 
L 318.451941 123.710562 
L 323.134255 123.710562 
L 323.347087 122.351461 
L 324.836914 122.351461 
L 325.049747 121.898427 
L 342.076343 121.898427 
L 342.289176 121.445393 
L 344.204668 121.445393 
L 344.843165 119.180225 
L 345.481663 119.180225 
L 345.694495 118.727191 
L 358.464443 118.727191 
L 358.677275 117.821124 
L 361.65693 117.821124 
L 361.869762 117.36809 
L 375.916705 117.36809 
L 375.916705 117.36809 
" clip-path="url(#p35542300e2)" style="fill: none; stroke: #5784db; stroke-width: 1.2; stroke-linecap: round"/>
   </g>
   <g id="line2d_33">
    <path d="M 69.650795 475.94427 
L 69.863628 449.441798 
L 70.289293 441.740225 
L 70.502125 439.92809 
L 70.714958 436.756854 
L 71.140623 425.884045 
L 71.566288 420.44764 
L 71.77912 418.635506 
L 72.63045 405.497528 
L 73.056115 402.326292 
L 73.268947 395.98382 
L 73.694612 393.718652 
L 73.907445 392.812584 
L 74.120277 392.812584 
L 74.971607 389.188315 
L 75.397272 385.111011 
L 75.610104 384.657978 
L 76.035769 383.298876 
L 76.674267 383.298876 
L 76.887099 382.845843 
L 77.312764 382.845843 
L 77.525596 381.486742 
L 77.738429 381.033708 
L 77.951261 378.768539 
L 78.376926 378.768539 
L 78.589759 378.315506 
L 79.015424 376.050337 
L 79.866754 371.066966 
L 80.079586 371.066966 
L 80.505251 367.442697 
L 81.143748 365.177528 
L 81.569413 364.271461 
L 81.995078 364.271461 
L 82.207911 363.365393 
L 83.484905 363.365393 
L 83.697738 359.28809 
L 83.91057 359.28809 
L 84.336235 358.382022 
L 84.549068 357.475955 
L 84.7619 357.475955 
L 85.187565 356.569888 
L 85.400397 356.569888 
L 85.826062 355.66382 
L 86.038895 354.757753 
L 86.46456 354.757753 
L 86.677392 352.492584 
L 87.103057 351.586517 
L 87.741555 351.586517 
L 87.954387 351.133483 
L 88.167219 351.133483 
L 88.380052 350.680449 
L 88.592884 350.680449 
L 89.018549 349.774382 
L 89.231382 349.774382 
L 89.444214 347.509213 
L 89.869879 346.603146 
L 90.082712 346.603146 
L 90.295544 346.150112 
L 90.508376 346.150112 
L 90.721209 345.697079 
L 90.934041 343.43191 
L 91.359706 343.43191 
L 91.572539 342.978876 
L 92.636701 342.978876 
L 92.849534 342.072809 
L 93.062366 342.072809 
L 93.275198 341.166742 
L 94.552193 341.166742 
L 94.765026 336.636404 
L 96.680518 336.636404 
L 96.89335 334.82427 
L 97.74468 334.82427 
L 97.957513 334.371236 
L 98.170345 334.371236 
L 98.383177 333.465169 
L 98.59601 333.465169 
L 98.808842 333.012135 
L 99.234507 333.012135 
L 99.44734 332.106067 
L 99.660172 332.106067 
L 100.085837 328.028764 
L 100.29867 328.028764 
L 100.511502 327.122697 
L 100.724335 327.122697 
L 100.937167 326.669663 
L 101.362832 326.669663 
L 102.001329 324.404494 
L 102.214162 324.404494 
L 102.426994 323.045393 
L 104.555319 323.045393 
L 104.980984 322.139326 
L 105.193816 322.139326 
L 105.406649 321.686292 
L 105.619481 319.874157 
L 105.832314 319.421124 
L 106.045146 319.421124 
L 106.470811 318.515056 
L 106.683643 318.515056 
L 106.896476 318.062022 
L 107.109308 318.062022 
L 107.534973 317.155955 
L 108.599136 317.155955 
L 108.811968 316.702921 
L 109.0248 316.702921 
L 109.450465 315.796854 
L 109.87613 314.437753 
L 110.301795 314.437753 
L 110.514628 313.984719 
L 112.217287 313.984719 
L 112.43012 313.531685 
L 113.919947 313.531685 
L 114.132779 312.172584 
L 114.345612 311.719551 
L 114.558444 311.719551 
L 114.771277 310.813483 
L 115.196942 310.813483 
L 115.622607 309.907416 
L 115.835439 309.907416 
L 116.048272 309.454382 
L 116.473937 309.454382 
L 116.686769 309.001348 
L 116.899601 309.001348 
L 117.112434 308.548315 
L 117.325266 308.548315 
L 117.538099 306.283146 
L 119.027926 306.283146 
L 119.240758 305.830112 
L 119.666423 305.830112 
L 119.879256 305.377079 
L 120.092088 305.377079 
L 120.304921 301.299775 
L 120.943418 301.299775 
L 121.156251 300.846742 
L 122.433245 300.846742 
L 122.646078 298.128539 
L 122.85891 298.128539 
L 123.284575 296.769438 
L 123.923073 296.769438 
L 124.348738 295.863371 
L 125.838565 295.863371 
L 126.051397 294.051236 
L 127.966889 294.051236 
L 128.179722 293.598202 
L 128.392554 289.520899 
L 128.605387 289.520899 
L 128.818219 289.067865 
L 129.031052 288.161798 
L 130.520879 288.161798 
L 130.733711 286.802697 
L 130.946544 286.802697 
L 131.159376 280.913258 
L 131.797874 279.554157 
L 132.010706 270.040449 
L 133.500533 270.040449 
L 133.713366 269.587416 
L 133.926198 269.587416 
L 134.139031 268.681348 
L 134.351863 268.681348 
L 134.564696 255.090337 
L 135.416025 255.090337 
L 135.628858 254.637303 
L 136.480188 254.637303 
L 136.69302 249.653933 
L 137.757182 249.653933 
L 137.970015 247.841798 
L 140.524004 247.841798 
L 140.736837 247.388764 
L 141.375334 247.388764 
L 141.588167 246.482697 
L 141.800999 242.858427 
L 142.013832 242.858427 
L 142.226664 242.405393 
L 143.716491 242.405393 
L 143.929324 241.95236 
L 144.142156 241.95236 
L 144.354989 240.140225 
L 144.567821 239.687191 
L 145.419151 239.687191 
L 145.631983 239.234157 
L 146.057648 239.234157 
L 146.270481 238.781124 
L 147.760308 238.781124 
L 148.398805 236.515955 
L 148.611638 236.515955 
L 148.82447 236.062921 
L 149.250135 236.062921 
L 149.462968 235.609888 
L 150.739962 235.609888 
L 150.952795 235.156854 
L 151.37846 235.156854 
L 151.591292 234.70382 
L 151.804125 233.797753 
L 153.08112 233.797753 
L 153.293952 233.344719 
L 154.145282 233.344719 
L 154.358114 232.438652 
L 155.635109 232.438652 
L 155.847942 231.985618 
L 156.060774 231.985618 
L 156.273606 231.079551 
L 156.486439 231.079551 
L 156.699271 230.626517 
L 157.976266 230.626517 
L 158.189099 230.173483 
L 160.104591 230.173483 
L 160.317423 229.720449 
L 160.530256 229.720449 
L 160.955921 228.814382 
L 162.232915 228.814382 
L 162.445748 228.361348 
L 163.084245 228.361348 
L 163.297078 227.908315 
L 165.425402 227.908315 
L 165.638235 227.455281 
L 165.851067 227.455281 
L 166.0639 226.549213 
L 166.276732 226.549213 
L 166.702397 223.377978 
L 168.192224 223.377978 
L 168.617889 222.018876 
L 168.830722 222.018876 
L 169.043554 219.300674 
L 169.469219 219.300674 
L 169.682051 218.84764 
L 170.107716 217.035506 
L 170.533381 217.035506 
L 170.746214 216.582472 
L 172.236041 216.582472 
L 172.661706 215.223371 
L 173.725868 215.223371 
L 173.938701 214.770337 
L 176.705523 214.770337 
L 176.918355 214.317303 
L 177.34402 214.317303 
L 177.556852 213.86427 
L 177.982517 213.86427 
L 178.408182 212.505169 
L 180.110842 212.505169 
L 180.749339 211.146067 
L 181.813502 211.146067 
L 182.026334 210.693034 
L 184.154659 210.693034 
L 184.580324 209.333933 
L 185.005988 209.333933 
L 185.218821 208.880899 
L 186.070151 208.880899 
L 186.282983 207.974831 
L 187.77281 207.974831 
L 187.985643 207.521798 
L 189.688303 207.521798 
L 189.901135 207.068764 
L 190.965297 207.068764 
L 191.17813 206.61573 
L 191.390962 206.61573 
L 191.603795 205.709663 
L 192.455125 205.709663 
L 192.667957 205.256629 
L 192.880789 205.256629 
L 193.093622 204.803596 
L 194.157784 204.803596 
L 194.370617 204.350562 
L 196.711774 204.350562 
L 196.924606 203.897528 
L 197.350271 203.897528 
L 197.563104 203.444494 
L 198.201601 203.444494 
L 198.414433 202.991461 
L 199.265763 202.991461 
L 199.478596 202.538427 
L 200.329926 202.538427 
L 200.542758 201.63236 
L 202.032585 201.63236 
L 202.245418 201.179326 
L 204.16091 201.179326 
L 204.373742 199.820225 
L 206.076402 199.820225 
L 206.289234 198.461124 
L 211.822878 198.461124 
L 212.035711 198.00809 
L 212.248543 196.195955 
L 212.461376 195.742921 
L 214.164035 195.742921 
L 214.376868 193.477753 
L 215.44103 193.477753 
L 215.653863 193.024719 
L 215.866695 193.024719 
L 216.079528 192.571685 
L 216.505192 191.212584 
L 216.930857 181.245843 
L 217.356522 178.52764 
L 217.569355 178.52764 
L 217.99502 177.621573 
L 218.420685 177.621573 
L 218.84635 176.262472 
L 219.059182 173.997303 
L 219.272014 173.997303 
L 219.484847 173.54427 
L 219.910512 173.54427 
L 220.123344 169.92 
L 221.187507 169.92 
L 221.400339 169.466966 
L 222.251669 169.466966 
L 222.464501 169.013933 
L 222.677334 169.013933 
L 222.890166 163.577528 
L 223.528664 163.577528 
L 223.741496 158.141124 
L 223.954329 157.68809 
L 224.379993 157.68809 
L 224.592826 157.235056 
L 225.018491 157.235056 
L 225.231323 156.782022 
L 225.444156 156.782022 
L 225.656988 155.422921 
L 227.785313 155.422921 
L 227.998145 154.06382 
L 228.210978 153.610787 
L 228.42381 151.798652 
L 228.849475 151.798652 
L 229.062308 151.345618 
L 229.700805 151.345618 
L 230.12647 149.986517 
L 230.552135 149.080449 
L 231.82913 149.080449 
L 232.041962 148.627416 
L 235.021616 148.627416 
L 235.234449 148.174382 
L 236.298611 148.174382 
L 236.937109 146.815281 
L 237.575606 143.644045 
L 238.001271 140.925843 
L 240.129595 140.925843 
L 240.342428 135.942472 
L 240.980925 135.942472 
L 241.193758 135.489438 
L 242.045088 135.489438 
L 242.25792 134.583371 
L 242.896417 134.583371 
L 243.10925 134.130337 
L 244.173412 134.130337 
L 244.599077 133.22427 
L 245.024742 131.865169 
L 245.237574 131.865169 
L 245.450407 131.412135 
L 245.663239 131.412135 
L 245.876072 129.146966 
L 246.088904 129.146966 
L 246.514569 127.787865 
L 247.791564 127.787865 
L 248.004396 127.334831 
L 249.919889 127.334831 
L 250.132721 126.428764 
L 253.53804 126.428764 
L 253.750873 125.97573 
L 253.963705 125.069663 
L 254.815035 125.069663 
L 255.027868 124.616629 
L 255.879197 124.616629 
L 256.09203 123.710562 
L 260.774344 123.710562 
L 260.987176 123.257528 
L 267.37215 123.257528 
L 267.584983 122.804494 
L 268.436313 122.804494 
L 268.649145 121.898427 
L 280.567763 121.898427 
L 280.780595 121.445393 
L 280.993428 121.445393 
L 281.20626 120.99236 
L 285.888574 120.99236 
L 286.101407 120.539326 
L 288.442564 120.539326 
L 288.655396 120.086292 
L 296.104532 120.086292 
L 296.317365 119.633258 
L 296.530197 118.274157 
L 297.381527 118.274157 
L 297.594359 117.821124 
L 298.020024 117.821124 
L 298.232857 116.462022 
L 298.658522 116.462022 
L 298.871354 116.008989 
L 299.509852 116.008989 
L 299.722684 115.555955 
L 300.148349 115.555955 
L 300.361181 115.102921 
L 300.999679 115.102921 
L 301.212511 114.649888 
L 302.063841 114.649888 
L 302.489506 113.290787 
L 302.702339 112.837753 
L 303.128003 111.478652 
L 303.766501 110.119551 
L 304.192166 110.119551 
L 304.617831 108.307416 
L 304.830663 108.307416 
L 305.043496 107.401348 
L 305.256328 107.401348 
L 305.681993 102.871011 
L 305.894825 102.417978 
L 306.107658 102.417978 
L 306.32049 101.51191 
L 306.533323 101.51191 
L 306.746155 100.152809 
L 306.958988 99.699775 
L 307.17182 98.793708 
L 307.384653 98.793708 
L 307.597485 98.340674 
L 308.448815 98.340674 
L 308.661647 97.88764 
L 312.066967 97.88764 
L 312.279799 97.434607 
L 314.408124 97.434607 
L 314.620956 96.981573 
L 314.833789 96.981573 
L 315.046621 96.528539 
L 318.239108 96.528539 
L 318.451941 96.075506 
L 320.367433 96.075506 
L 320.580265 95.622472 
L 321.431595 95.622472 
L 321.644427 95.169438 
L 321.85726 95.169438 
L 322.070092 94.716404 
L 331.221888 94.716404 
L 331.434721 93.810337 
L 342.076343 93.810337 
L 342.289176 93.357303 
L 343.140506 93.357303 
L 343.353338 92.90427 
L 343.566171 92.90427 
L 343.779003 92.451236 
L 344.417501 92.451236 
L 344.843165 91.545169 
L 345.481663 91.545169 
L 345.694495 91.092135 
L 358.038778 91.092135 
L 358.25161 90.639101 
L 358.464443 89.733034 
L 361.65693 89.733034 
L 361.869762 89.28 
L 375.916705 89.28 
L 375.916705 89.28 
" clip-path="url(#p35542300e2)" style="fill: none; stroke: #c957db; stroke-width: 1.2; stroke-linecap: round"/>
   </g>
   <g id="line2d_34"/>
   <g id="line2d_35"/>
   <g id="line2d_36"/>
   <g id="line2d_37"/>
   <g id="line2d_38"/>
   <g id="patch_3">
    <path d="M 54.3375 512.64 
L 54.3375 69.12 
" style="fill: none; stroke: #cccccc; stroke-linejoin: miter; stroke-linecap: square"/>
   </g>
   <g id="patch_4">
    <path d="M 54.3375 512.64 
L 391.23 512.64 
" style="fill: none; stroke: #cccccc; stroke-linejoin: miter; stroke-linecap: square"/>
   </g>
   <g id="text_31">
    <!-- Edge Coverage History -->
    <g style="fill: #262626" transform="translate(115.892262 63.12)scale(0.165888 -0.165888)">
     <defs>
      <path id="DejaVuSans-Bold-45" d="M 588 4666 
L 3834 4666 
L 3834 3756 
L 1791 3756 
L 1791 2888 
L 3713 2888 
L 3713 1978 
L 1791 1978 
L 1791 909 
L 3903 909 
L 3903 0 
L 588 0 
L 588 4666 
z
" transform="scale(0.015625)"/>
      <path id="DejaVuSans-Bold-64" d="M 2919 2988 
L 2919 4863 
L 4044 4863 
L 4044 0 
L 2919 0 
L 2919 506 
Q 2688 197 2409 53 
Q 2131 -91 1766 -91 
Q 1119 -91 703 423 
Q 288 938 288 1747 
Q 288 2556 703 3070 
Q 1119 3584 1766 3584 
Q 2128 3584 2408 3439 
Q 2688 3294 2919 2988 
z
M 2181 722 
Q 2541 722 2730 984 
Q 2919 1247 2919 1747 
Q 2919 2247 2730 2509 
Q 2541 2772 2181 2772 
Q 1825 2772 1636 2509 
Q 1447 2247 1447 1747 
Q 1447 1247 1636 984 
Q 1825 722 2181 722 
z
" transform="scale(0.015625)"/>
      <path id="DejaVuSans-Bold-67" d="M 2919 594 
Q 2688 288 2409 144 
Q 2131 0 1766 0 
Q 1125 0 706 504 
Q 288 1009 288 1791 
Q 288 2575 706 3076 
Q 1125 3578 1766 3578 
Q 2131 3578 2409 3434 
Q 2688 3291 2919 2981 
L 2919 3500 
L 4044 3500 
L 4044 353 
Q 4044 -491 3511 -936 
Q 2978 -1381 1966 -1381 
Q 1638 -1381 1331 -1331 
Q 1025 -1281 716 -1178 
L 716 -306 
Q 1009 -475 1290 -558 
Q 1572 -641 1856 -641 
Q 2406 -641 2662 -400 
Q 2919 -159 2919 353 
L 2919 594 
z
M 2181 2772 
Q 1834 2772 1640 2515 
Q 1447 2259 1447 1791 
Q 1447 1309 1634 1061 
Q 1822 813 2181 813 
Q 2531 813 2725 1069 
Q 2919 1325 2919 1791 
Q 2919 2259 2725 2515 
Q 2531 2772 2181 2772 
z
" transform="scale(0.015625)"/>
      <path id="DejaVuSans-Bold-65" d="M 4031 1759 
L 4031 1441 
L 1416 1441 
Q 1456 1047 1700 850 
Q 1944 653 2381 653 
Q 2734 653 3104 758 
Q 3475 863 3866 1075 
L 3866 213 
Q 3469 63 3072 -14 
Q 2675 -91 2278 -91 
Q 1328 -91 801 392 
Q 275 875 275 1747 
Q 275 2603 792 3093 
Q 1309 3584 2216 3584 
Q 3041 3584 3536 3087 
Q 4031 2591 4031 1759 
z
M 2881 2131 
Q 2881 2450 2695 2645 
Q 2509 2841 2209 2841 
Q 1884 2841 1681 2658 
Q 1478 2475 1428 2131 
L 2881 2131 
z
" transform="scale(0.015625)"/>
      <path id="DejaVuSans-Bold-20" transform="scale(0.015625)"/>
      <path id="DejaVuSans-Bold-43" d="M 4288 256 
Q 3956 84 3597 -3 
Q 3238 -91 2847 -91 
Q 1681 -91 1000 561 
Q 319 1213 319 2328 
Q 319 3447 1000 4098 
Q 1681 4750 2847 4750 
Q 3238 4750 3597 4662 
Q 3956 4575 4288 4403 
L 4288 3438 
Q 3953 3666 3628 3772 
Q 3303 3878 2944 3878 
Q 2300 3878 1931 3465 
Q 1563 3053 1563 2328 
Q 1563 1606 1931 1193 
Q 2300 781 2944 781 
Q 3303 781 3628 887 
Q 3953 994 4288 1222 
L 4288 256 
z
" transform="scale(0.015625)"/>
      <path id="DejaVuSans-Bold-6f" d="M 2203 2784 
Q 1831 2784 1636 2517 
Q 1441 2250 1441 1747 
Q 1441 1244 1636 976 
Q 1831 709 2203 709 
Q 2569 709 2762 976 
Q 2956 1244 2956 1747 
Q 2956 2250 2762 2517 
Q 2569 2784 2203 2784 
z
M 2203 3584 
Q 3106 3584 3614 3096 
Q 4122 2609 4122 1747 
Q 4122 884 3614 396 
Q 3106 -91 2203 -91 
Q 1297 -91 786 396 
Q 275 884 275 1747 
Q 275 2609 786 3096 
Q 1297 3584 2203 3584 
z
" transform="scale(0.015625)"/>
      <path id="DejaVuSans-Bold-76" d="M 97 3500 
L 1216 3500 
L 2088 1081 
L 2956 3500 
L 4078 3500 
L 2700 0 
L 1472 0 
L 97 3500 
z
" transform="scale(0.015625)"/>
      <path id="DejaVuSans-Bold-72" d="M 3138 2547 
Q 2991 2616 2845 2648 
Q 2700 2681 2553 2681 
Q 2122 2681 1889 2404 
Q 1656 2128 1656 1613 
L 1656 0 
L 538 0 
L 538 3500 
L 1656 3500 
L 1656 2925 
Q 1872 3269 2151 3426 
Q 2431 3584 2822 3584 
Q 2878 3584 2943 3579 
Q 3009 3575 3134 3559 
L 3138 2547 
z
" transform="scale(0.015625)"/>
      <path id="DejaVuSans-Bold-61" d="M 2106 1575 
Q 1756 1575 1579 1456 
Q 1403 1338 1403 1106 
Q 1403 894 1545 773 
Q 1688 653 1941 653 
Q 2256 653 2472 879 
Q 2688 1106 2688 1447 
L 2688 1575 
L 2106 1575 
z
M 3816 1997 
L 3816 0 
L 2688 0 
L 2688 519 
Q 2463 200 2181 54 
Q 1900 -91 1497 -91 
Q 953 -91 614 226 
Q 275 544 275 1050 
Q 275 1666 698 1953 
Q 1122 2241 2028 2241 
L 2688 2241 
L 2688 2328 
Q 2688 2594 2478 2717 
Q 2269 2841 1825 2841 
Q 1466 2841 1156 2769 
Q 847 2697 581 2553 
L 581 3406 
Q 941 3494 1303 3539 
Q 1666 3584 2028 3584 
Q 2975 3584 3395 3211 
Q 3816 2838 3816 1997 
z
" transform="scale(0.015625)"/>
      <path id="DejaVuSans-Bold-48" d="M 588 4666 
L 1791 4666 
L 1791 2888 
L 3566 2888 
L 3566 4666 
L 4769 4666 
L 4769 0 
L 3566 0 
L 3566 1978 
L 1791 1978 
L 1791 0 
L 588 0 
L 588 4666 
z
" transform="scale(0.015625)"/>
      <path id="DejaVuSans-Bold-69" d="M 538 3500 
L 1656 3500 
L 1656 0 
L 538 0 
L 538 3500 
z
M 538 4863 
L 1656 4863 
L 1656 3950 
L 538 3950 
L 538 4863 
z
" transform="scale(0.015625)"/>
      <path id="DejaVuSans-Bold-73" d="M 3272 3391 
L 3272 2541 
Q 2913 2691 2578 2766 
Q 2244 2841 1947 2841 
Q 1628 2841 1473 2761 
Q 1319 2681 1319 2516 
Q 1319 2381 1436 2309 
Q 1553 2238 1856 2203 
L 2053 2175 
Q 2913 2066 3209 1816 
Q 3506 1566 3506 1031 
Q 3506 472 3093 190 
Q 2681 -91 1863 -91 
Q 1516 -91 1145 -36 
Q 775 19 384 128 
L 384 978 
Q 719 816 1070 734 
Q 1422 653 1784 653 
Q 2113 653 2278 743 
Q 2444 834 2444 1013 
Q 2444 1163 2330 1236 
Q 2216 1309 1875 1350 
L 1678 1375 
Q 931 1469 631 1722 
Q 331 1975 331 2491 
Q 331 3047 712 3315 
Q 1094 3584 1881 3584 
Q 2191 3584 2531 3537 
Q 2872 3491 3272 3391 
z
" transform="scale(0.015625)"/>
      <path id="DejaVuSans-Bold-74" d="M 1759 4494 
L 1759 3500 
L 2913 3500 
L 2913 2700 
L 1759 2700 
L 1759 1216 
Q 1759 972 1856 886 
Q 1953 800 2241 800 
L 2816 800 
L 2816 0 
L 1856 0 
Q 1194 0 917 276 
Q 641 553 641 1216 
L 641 2700 
L 84 2700 
L 84 3500 
L 641 3500 
L 641 4494 
L 1759 4494 
z
" transform="scale(0.015625)"/>
      <path id="DejaVuSans-Bold-79" d="M 78 3500 
L 1197 3500 
L 2138 1125 
L 2938 3500 
L 4056 3500 
L 2584 -331 
Q 2363 -916 2067 -1148 
Q 1772 -1381 1288 -1381 
L 641 -1381 
L 641 -647 
L 991 -647 
Q 1275 -647 1404 -556 
Q 1534 -466 1606 -231 
L 1638 -134 
L 78 3500 
z
" transform="scale(0.015625)"/>
     </defs>
     <use xlink:href="#DejaVuSans-Bold-45"/>
     <use xlink:href="#DejaVuSans-Bold-64" x="68.310547"/>
     <use xlink:href="#DejaVuSans-Bold-67" x="139.892578"/>
     <use xlink:href="#DejaVuSans-Bold-65" x="211.474609"/>
     <use xlink:href="#DejaVuSans-Bold-20" x="279.296875"/>
     <use xlink:href="#DejaVuSans-Bold-43" x="314.111328"/>
     <use xlink:href="#DejaVuSans-Bold-6f" x="387.5"/>
     <use xlink:href="#DejaVuSans-Bold-76" x="456.201172"/>
     <use xlink:href="#DejaVuSans-Bold-65" x="521.386719"/>
     <use xlink:href="#DejaVuSans-Bold-72" x="589.208984"/>
     <use xlink:href="#DejaVuSans-Bold-61" x="638.525391"/>
     <use xlink:href="#DejaVuSans-Bold-67" x="706.005859"/>
     <use xlink:href="#DejaVuSans-Bold-65" x="777.587891"/>
     <use xlink:href="#DejaVuSans-Bold-20" x="845.410156"/>
     <use xlink:href="#DejaVuSans-Bold-48" x="880.224609"/>
     <use xlink:href="#DejaVuSans-Bold-69" x="963.916016"/>
     <use xlink:href="#DejaVuSans-Bold-73" x="998.193359"/>
     <use xlink:href="#DejaVuSans-Bold-74" x="1057.714844"/>
     <use xlink:href="#DejaVuSans-Bold-6f" x="1105.517578"/>
     <use xlink:href="#DejaVuSans-Bold-72" x="1174.21875"/>
     <use xlink:href="#DejaVuSans-Bold-79" x="1223.535156"/>
    </g>
   </g>
   <g id="legend_1">
    <g id="patch_5">
     <path d="M 60.4975 154.6795 
L 172.0265 154.6795 
Q 173.7865 154.6795 173.7865 152.9195 
L 173.7865 75.28 
Q 173.7865 73.52 172.0265 73.52 
L 60.4975 73.52 
Q 58.7375 73.52 58.7375 75.28 
L 58.7375 152.9195 
Q 58.7375 154.6795 60.4975 154.6795 
z
" style="fill: #ffffff; opacity: 0.8; stroke: #cccccc; stroke-width: 0.8; stroke-linejoin: miter"/>
    </g>
    <g id="text_32">
     <!-- fuzzer -->
     <g style="fill: #262626" transform="translate(101.565 84.3345)scale(0.096 -0.096)">
      <defs>
       <path id="DejaVuSans-66" d="M 2375 4863 
L 2375 4384 
L 1825 4384 
Q 1516 4384 1395 4259 
Q 1275 4134 1275 3809 
L 1275 3500 
L 2222 3500 
L 2222 3053 
L 1275 3053 
L 1275 0 
L 697 0 
L 697 3053 
L 147 3053 
L 147 3500 
L 697 3500 
L 697 3744 
Q 697 4328 969 4595 
Q 1241 4863 1831 4863 
L 2375 4863 
z
" transform="scale(0.015625)"/>
       <path id="DejaVuSans-7a" d="M 353 3500 
L 3084 3500 
L 3084 2975 
L 922 459 
L 3084 459 
L 3084 0 
L 275 0 
L 275 525 
L 2438 3041 
L 353 3041 
L 353 3500 
z
" transform="scale(0.015625)"/>
      </defs>
      <use xlink:href="#DejaVuSans-66"/>
      <use xlink:href="#DejaVuSans-75" x="35.205078"/>
      <use xlink:href="#DejaVuSans-7a" x="98.583984"/>
      <use xlink:href="#DejaVuSans-7a" x="151.074219"/>
      <use xlink:href="#DejaVuSans-65" x="203.564453"/>
      <use xlink:href="#DejaVuSans-72" x="265.087891"/>
     </g>
    </g>
    <g id="line2d_39">
     <path d="M 62.2575 94.337625 
L 71.0575 94.337625 
L 79.8575 94.337625 
" style="fill: none; stroke: #db5f57; stroke-width: 1.2; stroke-linecap: round"/>
    </g>
    <g id="text_33">
     <!-- fairfuzz-0-exid1 -->
     <g style="fill: #262626" transform="translate(86.8975 97.417625)scale(0.088 -0.088)">
      <defs>
       <path id="DejaVuSans-2d" d="M 313 2009 
L 1997 2009 
L 1997 1497 
L 313 1497 
L 313 2009 
z
" transform="scale(0.015625)"/>
       <path id="DejaVuSans-78" d="M 3513 3500 
L 2247 1797 
L 3578 0 
L 2900 0 
L 1881 1375 
L 863 0 
L 184 0 
L 1544 1831 
L 300 3500 
L 978 3500 
L 1906 2253 
L 2834 3500 
L 3513 3500 
z
" transform="scale(0.015625)"/>
      </defs>
      <use xlink:href="#DejaVuSans-66"/>
      <use xlink:href="#DejaVuSans-61" x="35.205078"/>
      <use xlink:href="#DejaVuSans-69" x="96.484375"/>
      <use xlink:href="#DejaVuSans-72" x="124.267578"/>
      <use xlink:href="#DejaVuSans-66" x="165.380859"/>
      <use xlink:href="#DejaVuSans-75" x="200.585938"/>
      <use xlink:href="#DejaVuSans-7a" x="263.964844"/>
      <use xlink:href="#DejaVuSans-7a" x="316.455078"/>
      <use xlink:href="#DejaVuSans-2d" x="368.945312"/>
      <use xlink:href="#DejaVuSans-30" x="405.029297"/>
      <use xlink:href="#DejaVuSans-2d" x="468.652344"/>
      <use xlink:href="#DejaVuSans-65" x="504.736328"/>
      <use xlink:href="#DejaVuSans-78" x="564.509766"/>
      <use xlink:href="#DejaVuSans-69" x="623.689453"/>
      <use xlink:href="#DejaVuSans-64" x="651.472656"/>
      <use xlink:href="#DejaVuSans-31" x="714.949219"/>
     </g>
    </g>
    <g id="line2d_40">
     <path d="M 62.2575 107.254375 
L 71.0575 107.254375 
L 79.8575 107.254375 
" style="fill: none; stroke: #b9db57; stroke-width: 1.2; stroke-linecap: round"/>
    </g>
    <g id="text_34">
     <!-- mopt-0-exid1 -->
     <g style="fill: #262626" transform="translate(86.8975 110.334375)scale(0.088 -0.088)">
      <defs>
       <path id="DejaVuSans-70" d="M 1159 525 
L 1159 -1331 
L 581 -1331 
L 581 3500 
L 1159 3500 
L 1159 2969 
Q 1341 3281 1617 3432 
Q 1894 3584 2278 3584 
Q 2916 3584 3314 3078 
Q 3713 2572 3713 1747 
Q 3713 922 3314 415 
Q 2916 -91 2278 -91 
Q 1894 -91 1617 61 
Q 1341 213 1159 525 
z
M 3116 1747 
Q 3116 2381 2855 2742 
Q 2594 3103 2138 3103 
Q 1681 3103 1420 2742 
Q 1159 2381 1159 1747 
Q 1159 1113 1420 752 
Q 1681 391 2138 391 
Q 2594 391 2855 752 
Q 3116 1113 3116 1747 
z
" transform="scale(0.015625)"/>
      </defs>
      <use xlink:href="#DejaVuSans-6d"/>
      <use xlink:href="#DejaVuSans-6f" x="97.412109"/>
      <use xlink:href="#DejaVuSans-70" x="158.59375"/>
      <use xlink:href="#DejaVuSans-74" x="222.070312"/>
      <use xlink:href="#DejaVuSans-2d" x="261.279297"/>
      <use xlink:href="#DejaVuSans-30" x="297.363281"/>
      <use xlink:href="#DejaVuSans-2d" x="360.986328"/>
      <use xlink:href="#DejaVuSans-65" x="397.070312"/>
      <use xlink:href="#DejaVuSans-78" x="456.84375"/>
      <use xlink:href="#DejaVuSans-69" x="516.023438"/>
      <use xlink:href="#DejaVuSans-64" x="543.806641"/>
      <use xlink:href="#DejaVuSans-31" x="607.283203"/>
     </g>
    </g>
    <g id="line2d_41">
     <path d="M 62.2575 120.171125 
L 71.0575 120.171125 
L 79.8575 120.171125 
" style="fill: none; stroke: #57db94; stroke-width: 1.2; stroke-linecap: round"/>
    </g>
    <g id="text_35">
     <!-- aflplusplus-0-exid1 -->
     <g style="fill: #262626" transform="translate(86.8975 123.251125)scale(0.088 -0.088)">
      <defs>
       <path id="DejaVuSans-6c" d="M 603 4863 
L 1178 4863 
L 1178 0 
L 603 0 
L 603 4863 
z
" transform="scale(0.015625)"/>
      </defs>
      <use xlink:href="#DejaVuSans-61"/>
      <use xlink:href="#DejaVuSans-66" x="61.279297"/>
      <use xlink:href="#DejaVuSans-6c" x="96.484375"/>
      <use xlink:href="#DejaVuSans-70" x="124.267578"/>
      <use xlink:href="#DejaVuSans-6c" x="187.744141"/>
      <use xlink:href="#DejaVuSans-75" x="215.527344"/>
      <use xlink:href="#DejaVuSans-73" x="278.90625"/>
      <use xlink:href="#DejaVuSans-70" x="331.005859"/>
      <use xlink:href="#DejaVuSans-6c" x="394.482422"/>
      <use xlink:href="#DejaVuSans-75" x="422.265625"/>
      <use xlink:href="#DejaVuSans-73" x="485.644531"/>
      <use xlink:href="#DejaVuSans-2d" x="537.744141"/>
      <use xlink:href="#DejaVuSans-30" x="573.828125"/>
      <use xlink:href="#DejaVuSans-2d" x="637.451172"/>
      <use xlink:href="#DejaVuSans-65" x="673.535156"/>
      <use xlink:href="#DejaVuSans-78" x="733.308594"/>
      <use xlink:href="#DejaVuSans-69" x="792.488281"/>
      <use xlink:href="#DejaVuSans-64" x="820.271484"/>
      <use xlink:href="#DejaVuSans-31" x="883.748047"/>
     </g>
    </g>
    <g id="line2d_42">
     <path d="M 62.2575 133.087875 
L 71.0575 133.087875 
L 79.8575 133.087875 
" style="fill: none; stroke: #5784db; stroke-width: 1.2; stroke-linecap: round"/>
    </g>
    <g id="text_36">
     <!-- symcc-0-exid1 -->
     <g style="fill: #262626" transform="translate(86.8975 136.167875)scale(0.088 -0.088)">
      <defs>
       <path id="DejaVuSans-79" d="M 2059 -325 
Q 1816 -950 1584 -1140 
Q 1353 -1331 966 -1331 
L 506 -1331 
L 506 -850 
L 844 -850 
Q 1081 -850 1212 -737 
Q 1344 -625 1503 -206 
L 1606 56 
L 191 3500 
L 800 3500 
L 1894 763 
L 2988 3500 
L 3597 3500 
L 2059 -325 
z
" transform="scale(0.015625)"/>
       <path id="DejaVuSans-63" d="M 3122 3366 
L 3122 2828 
Q 2878 2963 2633 3030 
Q 2388 3097 2138 3097 
Q 1578 3097 1268 2742 
Q 959 2388 959 1747 
Q 959 1106 1268 751 
Q 1578 397 2138 397 
Q 2388 397 2633 464 
Q 2878 531 3122 666 
L 3122 134 
Q 2881 22 2623 -34 
Q 2366 -91 2075 -91 
Q 1284 -91 818 406 
Q 353 903 353 1747 
Q 353 2603 823 3093 
Q 1294 3584 2113 3584 
Q 2378 3584 2631 3529 
Q 2884 3475 3122 3366 
z
" transform="scale(0.015625)"/>
      </defs>
      <use xlink:href="#DejaVuSans-73"/>
      <use xlink:href="#DejaVuSans-79" x="52.099609"/>
      <use xlink:href="#DejaVuSans-6d" x="111.279297"/>
      <use xlink:href="#DejaVuSans-63" x="208.691406"/>
      <use xlink:href="#DejaVuSans-63" x="263.671875"/>
      <use xlink:href="#DejaVuSans-2d" x="318.652344"/>
      <use xlink:href="#DejaVuSans-30" x="354.736328"/>
      <use xlink:href="#DejaVuSans-2d" x="418.359375"/>
      <use xlink:href="#DejaVuSans-65" x="454.443359"/>
      <use xlink:href="#DejaVuSans-78" x="514.216797"/>
      <use xlink:href="#DejaVuSans-69" x="573.396484"/>
      <use xlink:href="#DejaVuSans-64" x="601.179688"/>
      <use xlink:href="#DejaVuSans-31" x="664.65625"/>
     </g>
    </g>
    <g id="line2d_43">
     <path d="M 62.2575 146.004625 
L 71.0575 146.004625 
L 79.8575 146.004625 
" style="fill: none; stroke: #c957db; stroke-width: 1.2; stroke-linecap: round"/>
    </g>
    <g id="text_37">
     <!-- fuzzer_global -->
     <g style="fill: #262626" transform="translate(86.8975 149.084625)scale(0.088 -0.088)">
      <defs>
       <path id="DejaVuSans-5f" d="M 3263 -1063 
L 3263 -1509 
L -63 -1509 
L -63 -1063 
L 3263 -1063 
z
" transform="scale(0.015625)"/>
       <path id="DejaVuSans-62" d="M 3116 1747 
Q 3116 2381 2855 2742 
Q 2594 3103 2138 3103 
Q 1681 3103 1420 2742 
Q 1159 2381 1159 1747 
Q 1159 1113 1420 752 
Q 1681 391 2138 391 
Q 2594 391 2855 752 
Q 3116 1113 3116 1747 
z
M 1159 2969 
Q 1341 3281 1617 3432 
Q 1894 3584 2278 3584 
Q 2916 3584 3314 3078 
Q 3713 2572 3713 1747 
Q 3713 922 3314 415 
Q 2916 -91 2278 -91 
Q 1894 -91 1617 61 
Q 1341 213 1159 525 
L 1159 0 
L 581 0 
L 581 4863 
L 1159 4863 
L 1159 2969 
z
" transform="scale(0.015625)"/>
      </defs>
      <use xlink:href="#DejaVuSans-66"/>
      <use xlink:href="#DejaVuSans-75" x="35.205078"/>
      <use xlink:href="#DejaVuSans-7a" x="98.583984"/>
      <use xlink:href="#DejaVuSans-7a" x="151.074219"/>
      <use xlink:href="#DejaVuSans-65" x="203.564453"/>
      <use xlink:href="#DejaVuSans-72" x="265.087891"/>
      <use xlink:href="#DejaVuSans-5f" x="306.201172"/>
      <use xlink:href="#DejaVuSans-67" x="356.201172"/>
      <use xlink:href="#DejaVuSans-6c" x="419.677734"/>
      <use xlink:href="#DejaVuSans-6f" x="447.460938"/>
      <use xlink:href="#DejaVuSans-62" x="508.642578"/>
      <use xlink:href="#DejaVuSans-61" x="572.119141"/>
      <use xlink:href="#DejaVuSans-6c" x="633.398438"/>
     </g>
    </g>
   </g>
  </g>
 </g>
 <defs>
  <clipPath id="p35542300e2">
   <rect x="54.3375" y="69.12" width="336.8925" height="443.52"/>
  </clipPath>
 </defs>
</svg>
