<?xml version="1.0" encoding="utf-8" standalone="no"?>
<!DOCTYPE svg PUBLIC "-//W3C//DTD SVG 1.1//EN"
  "http://www.w3.org/Graphics/SVG/1.1/DTD/svg11.dtd">
<svg xmlns:xlink="http://www.w3.org/1999/xlink" width="434.7pt" height="576pt" viewBox="0 0 434.7 576" xmlns="http://www.w3.org/2000/svg" version="1.1">
 <metadata>
  <rdf:RDF xmlns:dc="http://purl.org/dc/elements/1.1/" xmlns:cc="http://creativecommons.org/ns#" xmlns:rdf="http://www.w3.org/1999/02/22-rdf-syntax-ns#">
   <cc:Work>
    <dc:type rdf:resource="http://purl.org/dc/dcmitype/StillImage"/>
    <dc:date>2022-09-15T08:10:22.216527</dc:date>
    <dc:format>image/svg+xml</dc:format>
    <dc:creator>
     <cc:Agent>
      <dc:title>Matplotlib v3.5.3, https://matplotlib.org/</dc:title>
     </cc:Agent>
    </dc:creator>
   </cc:Work>
  </rdf:RDF>
 </metadata>
 <defs>
  <style type="text/css">*{stroke-linejoin: round; stroke-linecap: butt}</style>
 </defs>
 <g id="figure_1">
  <g id="patch_1">
   <path d="M 0 576 
L 434.7 576 
L 434.7 0 
L 0 0 
z
" style="fill: #ffffff"/>
  </g>
  <g id="axes_1">
   <g id="patch_2">
    <path d="M 54.3375 512.64 
L 391.23 512.64 
L 391.23 69.12 
L 54.3375 69.12 
z
" style="fill: #ffffff"/>
   </g>
   <g id="matplotlib.axis_1">
    <g id="xtick_1">
     <g id="line2d_1">
      <path d="M 69.650795 512.64 
L 69.650795 69.12 
" clip-path="url(#p96a0ce76c2)" style="fill: none; stroke: #cccccc; stroke-width: 0.8; stroke-linecap: round"/>
     </g>
     <g id="text_1">
      <!-- 0 -->
      <g style="fill: #262626" transform="translate(69.388282 529.627249)rotate(-45)scale(0.088 -0.088)">
       <defs>
        <path id="DejaVuSans-30" d="M 2034 4250 
Q 1547 4250 1301 3770 
Q 1056 3291 1056 2328 
Q 1056 1369 1301 889 
Q 1547 409 2034 409 
Q 2525 409 2770 889 
Q 3016 1369 3016 2328 
Q 3016 3291 2770 3770 
Q 2525 4250 2034 4250 
z
M 2034 4750 
Q 2819 4750 3233 4129 
Q 3647 3509 3647 2328 
Q 3647 1150 3233 529 
Q 2819 -91 2034 -91 
Q 1250 -91 836 529 
Q 422 1150 422 2328 
Q 422 3509 836 4129 
Q 1250 4750 2034 4750 
z
" transform="scale(0.015625)"/>
       </defs>
       <use xlink:href="#DejaVuSans-30"/>
      </g>
     </g>
    </g>
    <g id="xtick_2">
     <g id="line2d_2">
      <path d="M 86.677392 512.64 
L 86.677392 69.12 
" clip-path="url(#p96a0ce76c2)" style="fill: none; stroke: #cccccc; stroke-width: 0.8; stroke-linecap: round"/>
     </g>
     <g id="text_2">
      <!-- 80 -->
      <g style="fill: #262626" transform="translate(84.435333 533.58634)rotate(-45)scale(0.088 -0.088)">
       <defs>
        <path id="DejaVuSans-38" d="M 2034 2216 
Q 1584 2216 1326 1975 
Q 1069 1734 1069 1313 
Q 1069 891 1326 650 
Q 1584 409 2034 409 
Q 2484 409 2743 651 
Q 3003 894 3003 1313 
Q 3003 1734 2745 1975 
Q 2488 2216 2034 2216 
z
M 1403 2484 
Q 997 2584 770 2862 
Q 544 3141 544 3541 
Q 544 4100 942 4425 
Q 1341 4750 2034 4750 
Q 2731 4750 3128 4425 
Q 3525 4100 3525 3541 
Q 3525 3141 3298 2862 
Q 3072 2584 2669 2484 
Q 3125 2378 3379 2068 
Q 3634 1759 3634 1313 
Q 3634 634 3220 271 
Q 2806 -91 2034 -91 
Q 1263 -91 848 271 
Q 434 634 434 1313 
Q 434 1759 690 2068 
Q 947 2378 1403 2484 
z
M 1172 3481 
Q 1172 3119 1398 2916 
Q 1625 2713 2034 2713 
Q 2441 2713 2670 2916 
Q 2900 3119 2900 3481 
Q 2900 3844 2670 4047 
Q 2441 4250 2034 4250 
Q 1625 4250 1398 4047 
Q 1172 3844 1172 3481 
z
" transform="scale(0.015625)"/>
       </defs>
       <use xlink:href="#DejaVuSans-38"/>
       <use xlink:href="#DejaVuSans-30" x="63.623047"/>
      </g>
     </g>
    </g>
    <g id="xtick_3">
     <g id="line2d_3">
      <path d="M 103.703989 512.64 
L 103.703989 69.12 
" clip-path="url(#p96a0ce76c2)" style="fill: none; stroke: #cccccc; stroke-width: 0.8; stroke-linecap: round"/>
     </g>
     <g id="text_3">
      <!-- 160 -->
      <g style="fill: #262626" transform="translate(99.482385 537.54543)rotate(-45)scale(0.088 -0.088)">
       <defs>
        <path id="DejaVuSans-31" d="M 794 531 
L 1825 531 
L 1825 4091 
L 703 3866 
L 703 4441 
L 1819 4666 
L 2450 4666 
L 2450 531 
L 3481 531 
L 3481 0 
L 794 0 
L 794 531 
z
" transform="scale(0.015625)"/>
        <path id="DejaVuSans-36" d="M 2113 2584 
Q 1688 2584 1439 2293 
Q 1191 2003 1191 1497 
Q 1191 994 1439 701 
Q 1688 409 2113 409 
Q 2538 409 2786 701 
Q 3034 994 3034 1497 
Q 3034 2003 2786 2293 
Q 2538 2584 2113 2584 
z
M 3366 4563 
L 3366 3988 
Q 3128 4100 2886 4159 
Q 2644 4219 2406 4219 
Q 1781 4219 1451 3797 
Q 1122 3375 1075 2522 
Q 1259 2794 1537 2939 
Q 1816 3084 2150 3084 
Q 2853 3084 3261 2657 
Q 3669 2231 3669 1497 
Q 3669 778 3244 343 
Q 2819 -91 2113 -91 
Q 1303 -91 875 529 
Q 447 1150 447 2328 
Q 447 3434 972 4092 
Q 1497 4750 2381 4750 
Q 2619 4750 2861 4703 
Q 3103 4656 3366 4563 
z
" transform="scale(0.015625)"/>
       </defs>
       <use xlink:href="#DejaVuSans-31"/>
       <use xlink:href="#DejaVuSans-36" x="63.623047"/>
       <use xlink:href="#DejaVuSans-30" x="127.246094"/>
      </g>
     </g>
    </g>
    <g id="xtick_4">
     <g id="line2d_4">
      <path d="M 120.730586 512.64 
L 120.730586 69.12 
" clip-path="url(#p96a0ce76c2)" style="fill: none; stroke: #cccccc; stroke-width: 0.8; stroke-linecap: round"/>
     </g>
     <g id="text_4">
      <!-- 240 -->
      <g style="fill: #262626" transform="translate(116.508981 537.54543)rotate(-45)scale(0.088 -0.088)">
       <defs>
        <path id="DejaVuSans-32" d="M 1228 531 
L 3431 531 
L 3431 0 
L 469 0 
L 469 531 
Q 828 903 1448 1529 
Q 2069 2156 2228 2338 
Q 2531 2678 2651 2914 
Q 2772 3150 2772 3378 
Q 2772 3750 2511 3984 
Q 2250 4219 1831 4219 
Q 1534 4219 1204 4116 
Q 875 4013 500 3803 
L 500 4441 
Q 881 4594 1212 4672 
Q 1544 4750 1819 4750 
Q 2544 4750 2975 4387 
Q 3406 4025 3406 3419 
Q 3406 3131 3298 2873 
Q 3191 2616 2906 2266 
Q 2828 2175 2409 1742 
Q 1991 1309 1228 531 
z
" transform="scale(0.015625)"/>
        <path id="DejaVuSans-34" d="M 2419 4116 
L 825 1625 
L 2419 1625 
L 2419 4116 
z
M 2253 4666 
L 3047 4666 
L 3047 1625 
L 3713 1625 
L 3713 1100 
L 3047 1100 
L 3047 0 
L 2419 0 
L 2419 1100 
L 313 1100 
L 313 1709 
L 2253 4666 
z
" transform="scale(0.015625)"/>
       </defs>
       <use xlink:href="#DejaVuSans-32"/>
       <use xlink:href="#DejaVuSans-34" x="63.623047"/>
       <use xlink:href="#DejaVuSans-30" x="127.246094"/>
      </g>
     </g>
    </g>
    <g id="xtick_5">
     <g id="line2d_5">
      <path d="M 137.757182 512.64 
L 137.757182 69.12 
" clip-path="url(#p96a0ce76c2)" style="fill: none; stroke: #cccccc; stroke-width: 0.8; stroke-linecap: round"/>
     </g>
     <g id="text_5">
      <!-- 320 -->
      <g style="fill: #262626" transform="translate(133.535578 537.54543)rotate(-45)scale(0.088 -0.088)">
       <defs>
        <path id="DejaVuSans-33" d="M 2597 2516 
Q 3050 2419 3304 2112 
Q 3559 1806 3559 1356 
Q 3559 666 3084 287 
Q 2609 -91 1734 -91 
Q 1441 -91 1130 -33 
Q 819 25 488 141 
L 488 750 
Q 750 597 1062 519 
Q 1375 441 1716 441 
Q 2309 441 2620 675 
Q 2931 909 2931 1356 
Q 2931 1769 2642 2001 
Q 2353 2234 1838 2234 
L 1294 2234 
L 1294 2753 
L 1863 2753 
Q 2328 2753 2575 2939 
Q 2822 3125 2822 3475 
Q 2822 3834 2567 4026 
Q 2313 4219 1838 4219 
Q 1578 4219 1281 4162 
Q 984 4106 628 3988 
L 628 4550 
Q 988 4650 1302 4700 
Q 1616 4750 1894 4750 
Q 2613 4750 3031 4423 
Q 3450 4097 3450 3541 
Q 3450 3153 3228 2886 
Q 3006 2619 2597 2516 
z
" transform="scale(0.015625)"/>
       </defs>
       <use xlink:href="#DejaVuSans-33"/>
       <use xlink:href="#DejaVuSans-32" x="63.623047"/>
       <use xlink:href="#DejaVuSans-30" x="127.246094"/>
      </g>
     </g>
    </g>
    <g id="xtick_6">
     <g id="line2d_6">
      <path d="M 154.783779 512.64 
L 154.783779 69.12 
" clip-path="url(#p96a0ce76c2)" style="fill: none; stroke: #cccccc; stroke-width: 0.8; stroke-linecap: round"/>
     </g>
     <g id="text_6">
      <!-- 400 -->
      <g style="fill: #262626" transform="translate(150.562175 537.54543)rotate(-45)scale(0.088 -0.088)">
       <use xlink:href="#DejaVuSans-34"/>
       <use xlink:href="#DejaVuSans-30" x="63.623047"/>
       <use xlink:href="#DejaVuSans-30" x="127.246094"/>
      </g>
     </g>
    </g>
    <g id="xtick_7">
     <g id="line2d_7">
      <path d="M 171.810376 512.64 
L 171.810376 69.12 
" clip-path="url(#p96a0ce76c2)" style="fill: none; stroke: #cccccc; stroke-width: 0.8; stroke-linecap: round"/>
     </g>
     <g id="text_7">
      <!-- 480 -->
      <g style="fill: #262626" transform="translate(167.588772 537.54543)rotate(-45)scale(0.088 -0.088)">
       <use xlink:href="#DejaVuSans-34"/>
       <use xlink:href="#DejaVuSans-38" x="63.623047"/>
       <use xlink:href="#DejaVuSans-30" x="127.246094"/>
      </g>
     </g>
    </g>
    <g id="xtick_8">
     <g id="line2d_8">
      <path d="M 188.836973 512.64 
L 188.836973 69.12 
" clip-path="url(#p96a0ce76c2)" style="fill: none; stroke: #cccccc; stroke-width: 0.8; stroke-linecap: round"/>
     </g>
     <g id="text_8">
      <!-- 560 -->
      <g style="fill: #262626" transform="translate(184.615368 537.54543)rotate(-45)scale(0.088 -0.088)">
       <defs>
        <path id="DejaVuSans-35" d="M 691 4666 
L 3169 4666 
L 3169 4134 
L 1269 4134 
L 1269 2991 
Q 1406 3038 1543 3061 
Q 1681 3084 1819 3084 
Q 2600 3084 3056 2656 
Q 3513 2228 3513 1497 
Q 3513 744 3044 326 
Q 2575 -91 1722 -91 
Q 1428 -91 1123 -41 
Q 819 9 494 109 
L 494 744 
Q 775 591 1075 516 
Q 1375 441 1709 441 
Q 2250 441 2565 725 
Q 2881 1009 2881 1497 
Q 2881 1984 2565 2268 
Q 2250 2553 1709 2553 
Q 1456 2553 1204 2497 
Q 953 2441 691 2322 
L 691 4666 
z
" transform="scale(0.015625)"/>
       </defs>
       <use xlink:href="#DejaVuSans-35"/>
       <use xlink:href="#DejaVuSans-36" x="63.623047"/>
       <use xlink:href="#DejaVuSans-30" x="127.246094"/>
      </g>
     </g>
    </g>
    <g id="xtick_9">
     <g id="line2d_9">
      <path d="M 205.863569 512.64 
L 205.863569 69.12 
" clip-path="url(#p96a0ce76c2)" style="fill: none; stroke: #cccccc; stroke-width: 0.8; stroke-linecap: round"/>
     </g>
     <g id="text_9">
      <!-- 640 -->
      <g style="fill: #262626" transform="translate(201.641965 537.54543)rotate(-45)scale(0.088 -0.088)">
       <use xlink:href="#DejaVuSans-36"/>
       <use xlink:href="#DejaVuSans-34" x="63.623047"/>
       <use xlink:href="#DejaVuSans-30" x="127.246094"/>
      </g>
     </g>
    </g>
    <g id="xtick_10">
     <g id="line2d_10">
      <path d="M 222.890166 512.64 
L 222.890166 69.12 
" clip-path="url(#p96a0ce76c2)" style="fill: none; stroke: #cccccc; stroke-width: 0.8; stroke-linecap: round"/>
     </g>
     <g id="text_10">
      <!-- 720 -->
      <g style="fill: #262626" transform="translate(218.668562 537.54543)rotate(-45)scale(0.088 -0.088)">
       <defs>
        <path id="DejaVuSans-37" d="M 525 4666 
L 3525 4666 
L 3525 4397 
L 1831 0 
L 1172 0 
L 2766 4134 
L 525 4134 
L 525 4666 
z
" transform="scale(0.015625)"/>
       </defs>
       <use xlink:href="#DejaVuSans-37"/>
       <use xlink:href="#DejaVuSans-32" x="63.623047"/>
       <use xlink:href="#DejaVuSans-30" x="127.246094"/>
      </g>
     </g>
    </g>
    <g id="xtick_11">
     <g id="line2d_11">
      <path d="M 239.916763 512.64 
L 239.916763 69.12 
" clip-path="url(#p96a0ce76c2)" style="fill: none; stroke: #cccccc; stroke-width: 0.8; stroke-linecap: round"/>
     </g>
     <g id="text_11">
      <!-- 800 -->
      <g style="fill: #262626" transform="translate(235.695159 537.54543)rotate(-45)scale(0.088 -0.088)">
       <use xlink:href="#DejaVuSans-38"/>
       <use xlink:href="#DejaVuSans-30" x="63.623047"/>
       <use xlink:href="#DejaVuSans-30" x="127.246094"/>
      </g>
     </g>
    </g>
    <g id="xtick_12">
     <g id="line2d_12">
      <path d="M 256.94336 512.64 
L 256.94336 69.12 
" clip-path="url(#p96a0ce76c2)" style="fill: none; stroke: #cccccc; stroke-width: 0.8; stroke-linecap: round"/>
     </g>
     <g id="text_12">
      <!-- 880 -->
      <g style="fill: #262626" transform="translate(252.721755 537.54543)rotate(-45)scale(0.088 -0.088)">
       <use xlink:href="#DejaVuSans-38"/>
       <use xlink:href="#DejaVuSans-38" x="63.623047"/>
       <use xlink:href="#DejaVuSans-30" x="127.246094"/>
      </g>
     </g>
    </g>
    <g id="xtick_13">
     <g id="line2d_13">
      <path d="M 273.969956 512.64 
L 273.969956 69.12 
" clip-path="url(#p96a0ce76c2)" style="fill: none; stroke: #cccccc; stroke-width: 0.8; stroke-linecap: round"/>
     </g>
     <g id="text_13">
      <!-- 960 -->
      <g style="fill: #262626" transform="translate(269.748352 537.54543)rotate(-45)scale(0.088 -0.088)">
       <defs>
        <path id="DejaVuSans-39" d="M 703 97 
L 703 672 
Q 941 559 1184 500 
Q 1428 441 1663 441 
Q 2288 441 2617 861 
Q 2947 1281 2994 2138 
Q 2813 1869 2534 1725 
Q 2256 1581 1919 1581 
Q 1219 1581 811 2004 
Q 403 2428 403 3163 
Q 403 3881 828 4315 
Q 1253 4750 1959 4750 
Q 2769 4750 3195 4129 
Q 3622 3509 3622 2328 
Q 3622 1225 3098 567 
Q 2575 -91 1691 -91 
Q 1453 -91 1209 -44 
Q 966 3 703 97 
z
M 1959 2075 
Q 2384 2075 2632 2365 
Q 2881 2656 2881 3163 
Q 2881 3666 2632 3958 
Q 2384 4250 1959 4250 
Q 1534 4250 1286 3958 
Q 1038 3666 1038 3163 
Q 1038 2656 1286 2365 
Q 1534 2075 1959 2075 
z
" transform="scale(0.015625)"/>
       </defs>
       <use xlink:href="#DejaVuSans-39"/>
       <use xlink:href="#DejaVuSans-36" x="63.623047"/>
       <use xlink:href="#DejaVuSans-30" x="127.246094"/>
      </g>
     </g>
    </g>
    <g id="xtick_14">
     <g id="line2d_14">
      <path d="M 290.996553 512.64 
L 290.996553 69.12 
" clip-path="url(#p96a0ce76c2)" style="fill: none; stroke: #cccccc; stroke-width: 0.8; stroke-linecap: round"/>
     </g>
     <g id="text_14">
      <!-- 1040 -->
      <g style="fill: #262626" transform="translate(284.795404 541.504521)rotate(-45)scale(0.088 -0.088)">
       <use xlink:href="#DejaVuSans-31"/>
       <use xlink:href="#DejaVuSans-30" x="63.623047"/>
       <use xlink:href="#DejaVuSans-34" x="127.246094"/>
       <use xlink:href="#DejaVuSans-30" x="190.869141"/>
      </g>
     </g>
    </g>
    <g id="xtick_15">
     <g id="line2d_15">
      <path d="M 308.02315 512.64 
L 308.02315 69.12 
" clip-path="url(#p96a0ce76c2)" style="fill: none; stroke: #cccccc; stroke-width: 0.8; stroke-linecap: round"/>
     </g>
     <g id="text_15">
      <!-- 1120 -->
      <g style="fill: #262626" transform="translate(301.822 541.504521)rotate(-45)scale(0.088 -0.088)">
       <use xlink:href="#DejaVuSans-31"/>
       <use xlink:href="#DejaVuSans-31" x="63.623047"/>
       <use xlink:href="#DejaVuSans-32" x="127.246094"/>
       <use xlink:href="#DejaVuSans-30" x="190.869141"/>
      </g>
     </g>
    </g>
    <g id="xtick_16">
     <g id="line2d_16">
      <path d="M 325.049747 512.64 
L 325.049747 69.12 
" clip-path="url(#p96a0ce76c2)" style="fill: none; stroke: #cccccc; stroke-width: 0.8; stroke-linecap: round"/>
     </g>
     <g id="text_16">
      <!-- 1200 -->
      <g style="fill: #262626" transform="translate(318.848597 541.504521)rotate(-45)scale(0.088 -0.088)">
       <use xlink:href="#DejaVuSans-31"/>
       <use xlink:href="#DejaVuSans-32" x="63.623047"/>
       <use xlink:href="#DejaVuSans-30" x="127.246094"/>
       <use xlink:href="#DejaVuSans-30" x="190.869141"/>
      </g>
     </g>
    </g>
    <g id="xtick_17">
     <g id="line2d_17">
      <path d="M 342.076343 512.64 
L 342.076343 69.12 
" clip-path="url(#p96a0ce76c2)" style="fill: none; stroke: #cccccc; stroke-width: 0.8; stroke-linecap: round"/>
     </g>
     <g id="text_17">
      <!-- 1280 -->
      <g style="fill: #262626" transform="translate(335.875194 541.504521)rotate(-45)scale(0.088 -0.088)">
       <use xlink:href="#DejaVuSans-31"/>
       <use xlink:href="#DejaVuSans-32" x="63.623047"/>
       <use xlink:href="#DejaVuSans-38" x="127.246094"/>
       <use xlink:href="#DejaVuSans-30" x="190.869141"/>
      </g>
     </g>
    </g>
    <g id="xtick_18">
     <g id="line2d_18">
      <path d="M 359.10294 512.64 
L 359.10294 69.12 
" clip-path="url(#p96a0ce76c2)" style="fill: none; stroke: #cccccc; stroke-width: 0.8; stroke-linecap: round"/>
     </g>
     <g id="text_18">
      <!-- 1360 -->
      <g style="fill: #262626" transform="translate(352.901791 541.504521)rotate(-45)scale(0.088 -0.088)">
       <use xlink:href="#DejaVuSans-31"/>
       <use xlink:href="#DejaVuSans-33" x="63.623047"/>
       <use xlink:href="#DejaVuSans-36" x="127.246094"/>
       <use xlink:href="#DejaVuSans-30" x="190.869141"/>
      </g>
     </g>
    </g>
    <g id="xtick_19">
     <g id="line2d_19">
      <path d="M 376.129537 512.64 
L 376.129537 69.12 
" clip-path="url(#p96a0ce76c2)" style="fill: none; stroke: #cccccc; stroke-width: 0.8; stroke-linecap: round"/>
     </g>
     <g id="text_19">
      <!-- 1440 -->
      <g style="fill: #262626" transform="translate(369.928387 541.504521)rotate(-45)scale(0.088 -0.088)">
       <use xlink:href="#DejaVuSans-31"/>
       <use xlink:href="#DejaVuSans-34" x="63.623047"/>
       <use xlink:href="#DejaVuSans-34" x="127.246094"/>
       <use xlink:href="#DejaVuSans-30" x="190.869141"/>
      </g>
     </g>
    </g>
    <g id="text_20">
     <!-- Time (Minutes) -->
     <g style="fill: #262626" transform="translate(186.87375 554.093115)scale(0.096 -0.096)">
      <defs>
       <path id="DejaVuSans-54" d="M -19 4666 
L 3928 4666 
L 3928 4134 
L 2272 4134 
L 2272 0 
L 1638 0 
L 1638 4134 
L -19 4134 
L -19 4666 
z
" transform="scale(0.015625)"/>
       <path id="DejaVuSans-69" d="M 603 3500 
L 1178 3500 
L 1178 0 
L 603 0 
L 603 3500 
z
M 603 4863 
L 1178 4863 
L 1178 4134 
L 603 4134 
L 603 4863 
z
" transform="scale(0.015625)"/>
       <path id="DejaVuSans-6d" d="M 3328 2828 
Q 3544 3216 3844 3400 
Q 4144 3584 4550 3584 
Q 5097 3584 5394 3201 
Q 5691 2819 5691 2113 
L 5691 0 
L 5113 0 
L 5113 2094 
Q 5113 2597 4934 2840 
Q 4756 3084 4391 3084 
Q 3944 3084 3684 2787 
Q 3425 2491 3425 1978 
L 3425 0 
L 2847 0 
L 2847 2094 
Q 2847 2600 2669 2842 
Q 2491 3084 2119 3084 
Q 1678 3084 1418 2786 
Q 1159 2488 1159 1978 
L 1159 0 
L 581 0 
L 581 3500 
L 1159 3500 
L 1159 2956 
Q 1356 3278 1631 3431 
Q 1906 3584 2284 3584 
Q 2666 3584 2933 3390 
Q 3200 3197 3328 2828 
z
" transform="scale(0.015625)"/>
       <path id="DejaVuSans-65" d="M 3597 1894 
L 3597 1613 
L 953 1613 
Q 991 1019 1311 708 
Q 1631 397 2203 397 
Q 2534 397 2845 478 
Q 3156 559 3463 722 
L 3463 178 
Q 3153 47 2828 -22 
Q 2503 -91 2169 -91 
Q 1331 -91 842 396 
Q 353 884 353 1716 
Q 353 2575 817 3079 
Q 1281 3584 2069 3584 
Q 2775 3584 3186 3129 
Q 3597 2675 3597 1894 
z
M 3022 2063 
Q 3016 2534 2758 2815 
Q 2500 3097 2075 3097 
Q 1594 3097 1305 2825 
Q 1016 2553 972 2059 
L 3022 2063 
z
" transform="scale(0.015625)"/>
       <path id="DejaVuSans-20" transform="scale(0.015625)"/>
       <path id="DejaVuSans-28" d="M 1984 4856 
Q 1566 4138 1362 3434 
Q 1159 2731 1159 2009 
Q 1159 1288 1364 580 
Q 1569 -128 1984 -844 
L 1484 -844 
Q 1016 -109 783 600 
Q 550 1309 550 2009 
Q 550 2706 781 3412 
Q 1013 4119 1484 4856 
L 1984 4856 
z
" transform="scale(0.015625)"/>
       <path id="DejaVuSans-4d" d="M 628 4666 
L 1569 4666 
L 2759 1491 
L 3956 4666 
L 4897 4666 
L 4897 0 
L 4281 0 
L 4281 4097 
L 3078 897 
L 2444 897 
L 1241 4097 
L 1241 0 
L 628 0 
L 628 4666 
z
" transform="scale(0.015625)"/>
       <path id="DejaVuSans-6e" d="M 3513 2113 
L 3513 0 
L 2938 0 
L 2938 2094 
Q 2938 2591 2744 2837 
Q 2550 3084 2163 3084 
Q 1697 3084 1428 2787 
Q 1159 2491 1159 1978 
L 1159 0 
L 581 0 
L 581 3500 
L 1159 3500 
L 1159 2956 
Q 1366 3272 1645 3428 
Q 1925 3584 2291 3584 
Q 2894 3584 3203 3211 
Q 3513 2838 3513 2113 
z
" transform="scale(0.015625)"/>
       <path id="DejaVuSans-75" d="M 544 1381 
L 544 3500 
L 1119 3500 
L 1119 1403 
Q 1119 906 1312 657 
Q 1506 409 1894 409 
Q 2359 409 2629 706 
Q 2900 1003 2900 1516 
L 2900 3500 
L 3475 3500 
L 3475 0 
L 2900 0 
L 2900 538 
Q 2691 219 2414 64 
Q 2138 -91 1772 -91 
Q 1169 -91 856 284 
Q 544 659 544 1381 
z
M 1991 3584 
L 1991 3584 
z
" transform="scale(0.015625)"/>
       <path id="DejaVuSans-74" d="M 1172 4494 
L 1172 3500 
L 2356 3500 
L 2356 3053 
L 1172 3053 
L 1172 1153 
Q 1172 725 1289 603 
Q 1406 481 1766 481 
L 2356 481 
L 2356 0 
L 1766 0 
Q 1100 0 847 248 
Q 594 497 594 1153 
L 594 3053 
L 172 3053 
L 172 3500 
L 594 3500 
L 594 4494 
L 1172 4494 
z
" transform="scale(0.015625)"/>
       <path id="DejaVuSans-73" d="M 2834 3397 
L 2834 2853 
Q 2591 2978 2328 3040 
Q 2066 3103 1784 3103 
Q 1356 3103 1142 2972 
Q 928 2841 928 2578 
Q 928 2378 1081 2264 
Q 1234 2150 1697 2047 
L 1894 2003 
Q 2506 1872 2764 1633 
Q 3022 1394 3022 966 
Q 3022 478 2636 193 
Q 2250 -91 1575 -91 
Q 1294 -91 989 -36 
Q 684 19 347 128 
L 347 722 
Q 666 556 975 473 
Q 1284 391 1588 391 
Q 1994 391 2212 530 
Q 2431 669 2431 922 
Q 2431 1156 2273 1281 
Q 2116 1406 1581 1522 
L 1381 1569 
Q 847 1681 609 1914 
Q 372 2147 372 2553 
Q 372 3047 722 3315 
Q 1072 3584 1716 3584 
Q 2034 3584 2315 3537 
Q 2597 3491 2834 3397 
z
" transform="scale(0.015625)"/>
       <path id="DejaVuSans-29" d="M 513 4856 
L 1013 4856 
Q 1481 4119 1714 3412 
Q 1947 2706 1947 2009 
Q 1947 1309 1714 600 
Q 1481 -109 1013 -844 
L 513 -844 
Q 928 -128 1133 580 
Q 1338 1288 1338 2009 
Q 1338 2731 1133 3434 
Q 928 4138 513 4856 
z
" transform="scale(0.015625)"/>
      </defs>
      <use xlink:href="#DejaVuSans-54"/>
      <use xlink:href="#DejaVuSans-69" x="57.958984"/>
      <use xlink:href="#DejaVuSans-6d" x="85.742188"/>
      <use xlink:href="#DejaVuSans-65" x="183.154297"/>
      <use xlink:href="#DejaVuSans-20" x="244.677734"/>
      <use xlink:href="#DejaVuSans-28" x="276.464844"/>
      <use xlink:href="#DejaVuSans-4d" x="315.478516"/>
      <use xlink:href="#DejaVuSans-69" x="401.757812"/>
      <use xlink:href="#DejaVuSans-6e" x="429.541016"/>
      <use xlink:href="#DejaVuSans-75" x="492.919922"/>
      <use xlink:href="#DejaVuSans-74" x="556.298828"/>
      <use xlink:href="#DejaVuSans-65" x="595.507812"/>
      <use xlink:href="#DejaVuSans-73" x="657.03125"/>
      <use xlink:href="#DejaVuSans-29" x="709.130859"/>
     </g>
    </g>
   </g>
   <g id="matplotlib.axis_2">
    <g id="ytick_1">
     <g id="line2d_20">
      <path d="M 54.3375 492.48 
L 391.23 492.48 
" clip-path="url(#p96a0ce76c2)" style="fill: none; stroke: #cccccc; stroke-width: 0.8; stroke-linecap: round"/>
     </g>
     <g id="text_21">
      <!-- 0 -->
      <g style="fill: #262626" transform="translate(40.4385 495.823313)scale(0.088 -0.088)">
       <use xlink:href="#DejaVuSans-30"/>
      </g>
     </g>
    </g>
    <g id="ytick_2">
     <g id="line2d_21">
      <path d="M 54.3375 475.907867 
L 391.23 475.907867 
" clip-path="url(#p96a0ce76c2)" style="fill: none; stroke: #cccccc; stroke-width: 0.8; stroke-linecap: round"/>
     </g>
     <g id="text_22">
      <!-- 100 -->
      <g style="fill: #262626" transform="translate(29.2405 479.251179)scale(0.088 -0.088)">
       <use xlink:href="#DejaVuSans-31"/>
       <use xlink:href="#DejaVuSans-30" x="63.623047"/>
       <use xlink:href="#DejaVuSans-30" x="127.246094"/>
      </g>
     </g>
    </g>
    <g id="ytick_3">
     <g id="line2d_22">
      <path d="M 54.3375 459.335734 
L 391.23 459.335734 
" clip-path="url(#p96a0ce76c2)" style="fill: none; stroke: #cccccc; stroke-width: 0.8; stroke-linecap: round"/>
     </g>
     <g id="text_23">
      <!-- 200 -->
      <g style="fill: #262626" transform="translate(29.2405 462.679046)scale(0.088 -0.088)">
       <use xlink:href="#DejaVuSans-32"/>
       <use xlink:href="#DejaVuSans-30" x="63.623047"/>
       <use xlink:href="#DejaVuSans-30" x="127.246094"/>
      </g>
     </g>
    </g>
    <g id="ytick_4">
     <g id="line2d_23">
      <path d="M 54.3375 442.7636 
L 391.23 442.7636 
" clip-path="url(#p96a0ce76c2)" style="fill: none; stroke: #cccccc; stroke-width: 0.8; stroke-linecap: round"/>
     </g>
     <g id="text_24">
      <!-- 300 -->
      <g style="fill: #262626" transform="translate(29.2405 446.106913)scale(0.088 -0.088)">
       <use xlink:href="#DejaVuSans-33"/>
       <use xlink:href="#DejaVuSans-30" x="63.623047"/>
       <use xlink:href="#DejaVuSans-30" x="127.246094"/>
      </g>
     </g>
    </g>
    <g id="ytick_5">
     <g id="line2d_24">
      <path d="M 54.3375 426.191467 
L 391.23 426.191467 
" clip-path="url(#p96a0ce76c2)" style="fill: none; stroke: #cccccc; stroke-width: 0.8; stroke-linecap: round"/>
     </g>
     <g id="text_25">
      <!-- 400 -->
      <g style="fill: #262626" transform="translate(29.2405 429.53478)scale(0.088 -0.088)">
       <use xlink:href="#DejaVuSans-34"/>
       <use xlink:href="#DejaVuSans-30" x="63.623047"/>
       <use xlink:href="#DejaVuSans-30" x="127.246094"/>
      </g>
     </g>
    </g>
    <g id="ytick_6">
     <g id="line2d_25">
      <path d="M 54.3375 409.619334 
L 391.23 409.619334 
" clip-path="url(#p96a0ce76c2)" style="fill: none; stroke: #cccccc; stroke-width: 0.8; stroke-linecap: round"/>
     </g>
     <g id="text_26">
      <!-- 500 -->
      <g style="fill: #262626" transform="translate(29.2405 412.962647)scale(0.088 -0.088)">
       <use xlink:href="#DejaVuSans-35"/>
       <use xlink:href="#DejaVuSans-30" x="63.623047"/>
       <use xlink:href="#DejaVuSans-30" x="127.246094"/>
      </g>
     </g>
    </g>
    <g id="ytick_7">
     <g id="line2d_26">
      <path d="M 54.3375 393.047201 
L 391.23 393.047201 
" clip-path="url(#p96a0ce76c2)" style="fill: none; stroke: #cccccc; stroke-width: 0.8; stroke-linecap: round"/>
     </g>
     <g id="text_27">
      <!-- 600 -->
      <g style="fill: #262626" transform="translate(29.2405 396.390513)scale(0.088 -0.088)">
       <use xlink:href="#DejaVuSans-36"/>
       <use xlink:href="#DejaVuSans-30" x="63.623047"/>
       <use xlink:href="#DejaVuSans-30" x="127.246094"/>
      </g>
     </g>
    </g>
    <g id="ytick_8">
     <g id="line2d_27">
      <path d="M 54.3375 376.475068 
L 391.23 376.475068 
" clip-path="url(#p96a0ce76c2)" style="fill: none; stroke: #cccccc; stroke-width: 0.8; stroke-linecap: round"/>
     </g>
     <g id="text_28">
      <!-- 700 -->
      <g style="fill: #262626" transform="translate(29.2405 379.81838)scale(0.088 -0.088)">
       <use xlink:href="#DejaVuSans-37"/>
       <use xlink:href="#DejaVuSans-30" x="63.623047"/>
       <use xlink:href="#DejaVuSans-30" x="127.246094"/>
      </g>
     </g>
    </g>
    <g id="ytick_9">
     <g id="line2d_28">
      <path d="M 54.3375 359.902935 
L 391.23 359.902935 
" clip-path="url(#p96a0ce76c2)" style="fill: none; stroke: #cccccc; stroke-width: 0.8; stroke-linecap: round"/>
     </g>
     <g id="text_29">
      <!-- 800 -->
      <g style="fill: #262626" transform="translate(29.2405 363.246247)scale(0.088 -0.088)">
       <use xlink:href="#DejaVuSans-38"/>
       <use xlink:href="#DejaVuSans-30" x="63.623047"/>
       <use xlink:href="#DejaVuSans-30" x="127.246094"/>
      </g>
     </g>
    </g>
    <g id="ytick_10">
     <g id="line2d_29">
      <path d="M 54.3375 343.330801 
L 391.23 343.330801 
" clip-path="url(#p96a0ce76c2)" style="fill: none; stroke: #cccccc; stroke-width: 0.8; stroke-linecap: round"/>
     </g>
     <g id="text_30">
      <!-- 900 -->
      <g style="fill: #262626" transform="translate(29.2405 346.674114)scale(0.088 -0.088)">
       <use xlink:href="#DejaVuSans-39"/>
       <use xlink:href="#DejaVuSans-30" x="63.623047"/>
       <use xlink:href="#DejaVuSans-30" x="127.246094"/>
      </g>
     </g>
    </g>
    <g id="ytick_11">
     <g id="line2d_30">
      <path d="M 54.3375 326.758668 
L 391.23 326.758668 
" clip-path="url(#p96a0ce76c2)" style="fill: none; stroke: #cccccc; stroke-width: 0.8; stroke-linecap: round"/>
     </g>
     <g id="text_31">
      <!-- 1000 -->
      <g style="fill: #262626" transform="translate(23.6415 330.101981)scale(0.088 -0.088)">
       <use xlink:href="#DejaVuSans-31"/>
       <use xlink:href="#DejaVuSans-30" x="63.623047"/>
       <use xlink:href="#DejaVuSans-30" x="127.246094"/>
       <use xlink:href="#DejaVuSans-30" x="190.869141"/>
      </g>
     </g>
    </g>
    <g id="ytick_12">
     <g id="line2d_31">
      <path d="M 54.3375 310.186535 
L 391.23 310.186535 
" clip-path="url(#p96a0ce76c2)" style="fill: none; stroke: #cccccc; stroke-width: 0.8; stroke-linecap: round"/>
     </g>
     <g id="text_32">
      <!-- 1100 -->
      <g style="fill: #262626" transform="translate(23.6415 313.529848)scale(0.088 -0.088)">
       <use xlink:href="#DejaVuSans-31"/>
       <use xlink:href="#DejaVuSans-31" x="63.623047"/>
       <use xlink:href="#DejaVuSans-30" x="127.246094"/>
       <use xlink:href="#DejaVuSans-30" x="190.869141"/>
      </g>
     </g>
    </g>
    <g id="ytick_13">
     <g id="line2d_32">
      <path d="M 54.3375 293.614402 
L 391.23 293.614402 
" clip-path="url(#p96a0ce76c2)" style="fill: none; stroke: #cccccc; stroke-width: 0.8; stroke-linecap: round"/>
     </g>
     <g id="text_33">
      <!-- 1200 -->
      <g style="fill: #262626" transform="translate(23.6415 296.957714)scale(0.088 -0.088)">
       <use xlink:href="#DejaVuSans-31"/>
       <use xlink:href="#DejaVuSans-32" x="63.623047"/>
       <use xlink:href="#DejaVuSans-30" x="127.246094"/>
       <use xlink:href="#DejaVuSans-30" x="190.869141"/>
      </g>
     </g>
    </g>
    <g id="ytick_14">
     <g id="line2d_33">
      <path d="M 54.3375 277.042269 
L 391.23 277.042269 
" clip-path="url(#p96a0ce76c2)" style="fill: none; stroke: #cccccc; stroke-width: 0.8; stroke-linecap: round"/>
     </g>
     <g id="text_34">
      <!-- 1300 -->
      <g style="fill: #262626" transform="translate(23.6415 280.385581)scale(0.088 -0.088)">
       <use xlink:href="#DejaVuSans-31"/>
       <use xlink:href="#DejaVuSans-33" x="63.623047"/>
       <use xlink:href="#DejaVuSans-30" x="127.246094"/>
       <use xlink:href="#DejaVuSans-30" x="190.869141"/>
      </g>
     </g>
    </g>
    <g id="ytick_15">
     <g id="line2d_34">
      <path d="M 54.3375 260.470136 
L 391.23 260.470136 
" clip-path="url(#p96a0ce76c2)" style="fill: none; stroke: #cccccc; stroke-width: 0.8; stroke-linecap: round"/>
     </g>
     <g id="text_35">
      <!-- 1400 -->
      <g style="fill: #262626" transform="translate(23.6415 263.813448)scale(0.088 -0.088)">
       <use xlink:href="#DejaVuSans-31"/>
       <use xlink:href="#DejaVuSans-34" x="63.623047"/>
       <use xlink:href="#DejaVuSans-30" x="127.246094"/>
       <use xlink:href="#DejaVuSans-30" x="190.869141"/>
      </g>
     </g>
    </g>
    <g id="ytick_16">
     <g id="line2d_35">
      <path d="M 54.3375 243.898002 
L 391.23 243.898002 
" clip-path="url(#p96a0ce76c2)" style="fill: none; stroke: #cccccc; stroke-width: 0.8; stroke-linecap: round"/>
     </g>
     <g id="text_36">
      <!-- 1500 -->
      <g style="fill: #262626" transform="translate(23.6415 247.241315)scale(0.088 -0.088)">
       <use xlink:href="#DejaVuSans-31"/>
       <use xlink:href="#DejaVuSans-35" x="63.623047"/>
       <use xlink:href="#DejaVuSans-30" x="127.246094"/>
       <use xlink:href="#DejaVuSans-30" x="190.869141"/>
      </g>
     </g>
    </g>
    <g id="ytick_17">
     <g id="line2d_36">
      <path d="M 54.3375 227.325869 
L 391.23 227.325869 
" clip-path="url(#p96a0ce76c2)" style="fill: none; stroke: #cccccc; stroke-width: 0.8; stroke-linecap: round"/>
     </g>
     <g id="text_37">
      <!-- 1600 -->
      <g style="fill: #262626" transform="translate(23.6415 230.669182)scale(0.088 -0.088)">
       <use xlink:href="#DejaVuSans-31"/>
       <use xlink:href="#DejaVuSans-36" x="63.623047"/>
       <use xlink:href="#DejaVuSans-30" x="127.246094"/>
       <use xlink:href="#DejaVuSans-30" x="190.869141"/>
      </g>
     </g>
    </g>
    <g id="ytick_18">
     <g id="line2d_37">
      <path d="M 54.3375 210.753736 
L 391.23 210.753736 
" clip-path="url(#p96a0ce76c2)" style="fill: none; stroke: #cccccc; stroke-width: 0.8; stroke-linecap: round"/>
     </g>
     <g id="text_38">
      <!-- 1700 -->
      <g style="fill: #262626" transform="translate(23.6415 214.097049)scale(0.088 -0.088)">
       <use xlink:href="#DejaVuSans-31"/>
       <use xlink:href="#DejaVuSans-37" x="63.623047"/>
       <use xlink:href="#DejaVuSans-30" x="127.246094"/>
       <use xlink:href="#DejaVuSans-30" x="190.869141"/>
      </g>
     </g>
    </g>
    <g id="ytick_19">
     <g id="line2d_38">
      <path d="M 54.3375 194.181603 
L 391.23 194.181603 
" clip-path="url(#p96a0ce76c2)" style="fill: none; stroke: #cccccc; stroke-width: 0.8; stroke-linecap: round"/>
     </g>
     <g id="text_39">
      <!-- 1800 -->
      <g style="fill: #262626" transform="translate(23.6415 197.524915)scale(0.088 -0.088)">
       <use xlink:href="#DejaVuSans-31"/>
       <use xlink:href="#DejaVuSans-38" x="63.623047"/>
       <use xlink:href="#DejaVuSans-30" x="127.246094"/>
       <use xlink:href="#DejaVuSans-30" x="190.869141"/>
      </g>
     </g>
    </g>
    <g id="ytick_20">
     <g id="line2d_39">
      <path d="M 54.3375 177.60947 
L 391.23 177.60947 
" clip-path="url(#p96a0ce76c2)" style="fill: none; stroke: #cccccc; stroke-width: 0.8; stroke-linecap: round"/>
     </g>
     <g id="text_40">
      <!-- 1900 -->
      <g style="fill: #262626" transform="translate(23.6415 180.952782)scale(0.088 -0.088)">
       <use xlink:href="#DejaVuSans-31"/>
       <use xlink:href="#DejaVuSans-39" x="63.623047"/>
       <use xlink:href="#DejaVuSans-30" x="127.246094"/>
       <use xlink:href="#DejaVuSans-30" x="190.869141"/>
      </g>
     </g>
    </g>
    <g id="ytick_21">
     <g id="line2d_40">
      <path d="M 54.3375 161.037337 
L 391.23 161.037337 
" clip-path="url(#p96a0ce76c2)" style="fill: none; stroke: #cccccc; stroke-width: 0.8; stroke-linecap: round"/>
     </g>
     <g id="text_41">
      <!-- 2000 -->
      <g style="fill: #262626" transform="translate(23.6415 164.380649)scale(0.088 -0.088)">
       <use xlink:href="#DejaVuSans-32"/>
       <use xlink:href="#DejaVuSans-30" x="63.623047"/>
       <use xlink:href="#DejaVuSans-30" x="127.246094"/>
       <use xlink:href="#DejaVuSans-30" x="190.869141"/>
      </g>
     </g>
    </g>
    <g id="ytick_22">
     <g id="line2d_41">
      <path d="M 54.3375 144.465203 
L 391.23 144.465203 
" clip-path="url(#p96a0ce76c2)" style="fill: none; stroke: #cccccc; stroke-width: 0.8; stroke-linecap: round"/>
     </g>
     <g id="text_42">
      <!-- 2100 -->
      <g style="fill: #262626" transform="translate(23.6415 147.808516)scale(0.088 -0.088)">
       <use xlink:href="#DejaVuSans-32"/>
       <use xlink:href="#DejaVuSans-31" x="63.623047"/>
       <use xlink:href="#DejaVuSans-30" x="127.246094"/>
       <use xlink:href="#DejaVuSans-30" x="190.869141"/>
      </g>
     </g>
    </g>
    <g id="ytick_23">
     <g id="line2d_42">
      <path d="M 54.3375 127.89307 
L 391.23 127.89307 
" clip-path="url(#p96a0ce76c2)" style="fill: none; stroke: #cccccc; stroke-width: 0.8; stroke-linecap: round"/>
     </g>
     <g id="text_43">
      <!-- 2200 -->
      <g style="fill: #262626" transform="translate(23.6415 131.236383)scale(0.088 -0.088)">
       <use xlink:href="#DejaVuSans-32"/>
       <use xlink:href="#DejaVuSans-32" x="63.623047"/>
       <use xlink:href="#DejaVuSans-30" x="127.246094"/>
       <use xlink:href="#DejaVuSans-30" x="190.869141"/>
      </g>
     </g>
    </g>
    <g id="ytick_24">
     <g id="line2d_43">
      <path d="M 54.3375 111.320937 
L 391.23 111.320937 
" clip-path="url(#p96a0ce76c2)" style="fill: none; stroke: #cccccc; stroke-width: 0.8; stroke-linecap: round"/>
     </g>
     <g id="text_44">
      <!-- 2300 -->
      <g style="fill: #262626" transform="translate(23.6415 114.66425)scale(0.088 -0.088)">
       <use xlink:href="#DejaVuSans-32"/>
       <use xlink:href="#DejaVuSans-33" x="63.623047"/>
       <use xlink:href="#DejaVuSans-30" x="127.246094"/>
       <use xlink:href="#DejaVuSans-30" x="190.869141"/>
      </g>
     </g>
    </g>
    <g id="ytick_25">
     <g id="line2d_44">
      <path d="M 54.3375 94.748804 
L 391.23 94.748804 
" clip-path="url(#p96a0ce76c2)" style="fill: none; stroke: #cccccc; stroke-width: 0.8; stroke-linecap: round"/>
     </g>
     <g id="text_45">
      <!-- 2400 -->
      <g style="fill: #262626" transform="translate(23.6415 98.092116)scale(0.088 -0.088)">
       <use xlink:href="#DejaVuSans-32"/>
       <use xlink:href="#DejaVuSans-34" x="63.623047"/>
       <use xlink:href="#DejaVuSans-30" x="127.246094"/>
       <use xlink:href="#DejaVuSans-30" x="190.869141"/>
      </g>
     </g>
    </g>
    <g id="text_46">
     <!-- Edge Coverages -->
     <g style="fill: #262626" transform="translate(17.645 329.98575)rotate(-90)scale(0.096 -0.096)">
      <defs>
       <path id="DejaVuSans-45" d="M 628 4666 
L 3578 4666 
L 3578 4134 
L 1259 4134 
L 1259 2753 
L 3481 2753 
L 3481 2222 
L 1259 2222 
L 1259 531 
L 3634 531 
L 3634 0 
L 628 0 
L 628 4666 
z
" transform="scale(0.015625)"/>
       <path id="DejaVuSans-64" d="M 2906 2969 
L 2906 4863 
L 3481 4863 
L 3481 0 
L 2906 0 
L 2906 525 
Q 2725 213 2448 61 
Q 2172 -91 1784 -91 
Q 1150 -91 751 415 
Q 353 922 353 1747 
Q 353 2572 751 3078 
Q 1150 3584 1784 3584 
Q 2172 3584 2448 3432 
Q 2725 3281 2906 2969 
z
M 947 1747 
Q 947 1113 1208 752 
Q 1469 391 1925 391 
Q 2381 391 2643 752 
Q 2906 1113 2906 1747 
Q 2906 2381 2643 2742 
Q 2381 3103 1925 3103 
Q 1469 3103 1208 2742 
Q 947 2381 947 1747 
z
" transform="scale(0.015625)"/>
       <path id="DejaVuSans-67" d="M 2906 1791 
Q 2906 2416 2648 2759 
Q 2391 3103 1925 3103 
Q 1463 3103 1205 2759 
Q 947 2416 947 1791 
Q 947 1169 1205 825 
Q 1463 481 1925 481 
Q 2391 481 2648 825 
Q 2906 1169 2906 1791 
z
M 3481 434 
Q 3481 -459 3084 -895 
Q 2688 -1331 1869 -1331 
Q 1566 -1331 1297 -1286 
Q 1028 -1241 775 -1147 
L 775 -588 
Q 1028 -725 1275 -790 
Q 1522 -856 1778 -856 
Q 2344 -856 2625 -561 
Q 2906 -266 2906 331 
L 2906 616 
Q 2728 306 2450 153 
Q 2172 0 1784 0 
Q 1141 0 747 490 
Q 353 981 353 1791 
Q 353 2603 747 3093 
Q 1141 3584 1784 3584 
Q 2172 3584 2450 3431 
Q 2728 3278 2906 2969 
L 2906 3500 
L 3481 3500 
L 3481 434 
z
" transform="scale(0.015625)"/>
       <path id="DejaVuSans-43" d="M 4122 4306 
L 4122 3641 
Q 3803 3938 3442 4084 
Q 3081 4231 2675 4231 
Q 1875 4231 1450 3742 
Q 1025 3253 1025 2328 
Q 1025 1406 1450 917 
Q 1875 428 2675 428 
Q 3081 428 3442 575 
Q 3803 722 4122 1019 
L 4122 359 
Q 3791 134 3420 21 
Q 3050 -91 2638 -91 
Q 1578 -91 968 557 
Q 359 1206 359 2328 
Q 359 3453 968 4101 
Q 1578 4750 2638 4750 
Q 3056 4750 3426 4639 
Q 3797 4528 4122 4306 
z
" transform="scale(0.015625)"/>
       <path id="DejaVuSans-6f" d="M 1959 3097 
Q 1497 3097 1228 2736 
Q 959 2375 959 1747 
Q 959 1119 1226 758 
Q 1494 397 1959 397 
Q 2419 397 2687 759 
Q 2956 1122 2956 1747 
Q 2956 2369 2687 2733 
Q 2419 3097 1959 3097 
z
M 1959 3584 
Q 2709 3584 3137 3096 
Q 3566 2609 3566 1747 
Q 3566 888 3137 398 
Q 2709 -91 1959 -91 
Q 1206 -91 779 398 
Q 353 888 353 1747 
Q 353 2609 779 3096 
Q 1206 3584 1959 3584 
z
" transform="scale(0.015625)"/>
       <path id="DejaVuSans-76" d="M 191 3500 
L 800 3500 
L 1894 563 
L 2988 3500 
L 3597 3500 
L 2284 0 
L 1503 0 
L 191 3500 
z
" transform="scale(0.015625)"/>
       <path id="DejaVuSans-72" d="M 2631 2963 
Q 2534 3019 2420 3045 
Q 2306 3072 2169 3072 
Q 1681 3072 1420 2755 
Q 1159 2438 1159 1844 
L 1159 0 
L 581 0 
L 581 3500 
L 1159 3500 
L 1159 2956 
Q 1341 3275 1631 3429 
Q 1922 3584 2338 3584 
Q 2397 3584 2469 3576 
Q 2541 3569 2628 3553 
L 2631 2963 
z
" transform="scale(0.015625)"/>
       <path id="DejaVuSans-61" d="M 2194 1759 
Q 1497 1759 1228 1600 
Q 959 1441 959 1056 
Q 959 750 1161 570 
Q 1363 391 1709 391 
Q 2188 391 2477 730 
Q 2766 1069 2766 1631 
L 2766 1759 
L 2194 1759 
z
M 3341 1997 
L 3341 0 
L 2766 0 
L 2766 531 
Q 2569 213 2275 61 
Q 1981 -91 1556 -91 
Q 1019 -91 701 211 
Q 384 513 384 1019 
Q 384 1609 779 1909 
Q 1175 2209 1959 2209 
L 2766 2209 
L 2766 2266 
Q 2766 2663 2505 2880 
Q 2244 3097 1772 3097 
Q 1472 3097 1187 3025 
Q 903 2953 641 2809 
L 641 3341 
Q 956 3463 1253 3523 
Q 1550 3584 1831 3584 
Q 2591 3584 2966 3190 
Q 3341 2797 3341 1997 
z
" transform="scale(0.015625)"/>
      </defs>
      <use xlink:href="#DejaVuSans-45"/>
      <use xlink:href="#DejaVuSans-64" x="63.183594"/>
      <use xlink:href="#DejaVuSans-67" x="126.660156"/>
      <use xlink:href="#DejaVuSans-65" x="190.136719"/>
      <use xlink:href="#DejaVuSans-20" x="251.660156"/>
      <use xlink:href="#DejaVuSans-43" x="283.447266"/>
      <use xlink:href="#DejaVuSans-6f" x="353.271484"/>
      <use xlink:href="#DejaVuSans-76" x="414.453125"/>
      <use xlink:href="#DejaVuSans-65" x="473.632812"/>
      <use xlink:href="#DejaVuSans-72" x="535.15625"/>
      <use xlink:href="#DejaVuSans-61" x="576.269531"/>
      <use xlink:href="#DejaVuSans-67" x="637.548828"/>
      <use xlink:href="#DejaVuSans-65" x="701.025391"/>
      <use xlink:href="#DejaVuSans-73" x="762.548828"/>
     </g>
    </g>
   </g>
   <g id="PolyCollection_1">
    <defs>
     <path id="m4ad552e3e4" d="M 69.650795 -85.674377 
L 69.650795 -83.52 
L 69.650795 -85.674377 
L 69.650795 -85.674377 
z
" style="stroke: #db5f57; stroke-opacity: 0.2; stroke-width: 0.8"/>
    </defs>
    <g clip-path="url(#p96a0ce76c2)">
     <use xlink:href="#m4ad552e3e4" x="0" y="576" style="fill: #db5f57; fill-opacity: 0.2; stroke: #db5f57; stroke-opacity: 0.2; stroke-width: 0.8"/>
    </g>
   </g>
   <g id="PolyCollection_2">
    <defs>
     <path id="me994bc9736" d="M 69.650795 -85.508656 
L 69.650795 -83.52 
L 69.650795 -85.508656 
L 69.650795 -85.508656 
z
" style="stroke: #b9db57; stroke-opacity: 0.2; stroke-width: 0.8"/>
    </defs>
    <g clip-path="url(#p96a0ce76c2)">
     <use xlink:href="#me994bc9736" x="0" y="576" style="fill: #b9db57; fill-opacity: 0.2; stroke: #b9db57; stroke-opacity: 0.2; stroke-width: 0.8"/>
    </g>
   </g>
   <g id="PolyCollection_3">
    <defs>
     <path id="m1c8726e682" d="M 69.650795 -96.114821 
L 69.650795 -83.52 
L 69.650795 -96.114821 
L 69.650795 -96.114821 
z
" style="stroke: #57db94; stroke-opacity: 0.2; stroke-width: 0.8"/>
    </defs>
    <g clip-path="url(#p96a0ce76c2)">
     <use xlink:href="#m1c8726e682" x="0" y="576" style="fill: #57db94; fill-opacity: 0.2; stroke: #57db94; stroke-opacity: 0.2; stroke-width: 0.8"/>
    </g>
   </g>
   <g id="PolyCollection_4">
    <defs>
     <path id="m76a61f3ed8" d="M 69.650795 -93.46328 
L 69.650795 -83.52 
L 69.650795 -93.46328 
L 69.650795 -93.46328 
z
" style="stroke: #5784db; stroke-opacity: 0.2; stroke-width: 0.8"/>
    </defs>
    <g clip-path="url(#p96a0ce76c2)">
     <use xlink:href="#m76a61f3ed8" x="0" y="576" style="fill: #5784db; fill-opacity: 0.2; stroke: #5784db; stroke-opacity: 0.2; stroke-width: 0.8"/>
    </g>
   </g>
   <g id="PolyCollection_5">
    <defs>
     <path id="m5a633d50b4" d="M 69.650795 -99.097805 
L 69.650795 -83.52 
L 69.650795 -99.097805 
L 69.650795 -99.097805 
z
" style="stroke: #c957db; stroke-opacity: 0.2; stroke-width: 0.8"/>
    </defs>
    <g clip-path="url(#p96a0ce76c2)">
     <use xlink:href="#m5a633d50b4" x="0" y="576" style="fill: #c957db; fill-opacity: 0.2; stroke: #c957db; stroke-opacity: 0.2; stroke-width: 0.8"/>
    </g>
   </g>
   <g id="line2d_45">
    <path d="M 69.650795 491.402811 
L 69.863628 490.159901 
L 70.289293 490.159901 
L 70.714958 425.031418 
L 70.92779 420.391221 
L 71.353455 416.57963 
L 71.566288 412.933761 
L 71.991953 410.282219 
L 72.204785 407.299236 
L 72.417617 405.973465 
L 72.63045 402.82476 
L 72.843282 402.161874 
L 73.268947 398.516005 
L 73.48178 398.516005 
L 73.694612 390.561381 
L 73.907445 390.561381 
L 74.33311 383.601085 
L 74.758774 379.789494 
L 74.971607 370.011936 
L 75.184439 369.349051 
L 75.610104 331.730308 
L 75.822937 329.907374 
L 76.248602 315.158175 
L 76.461434 315.158175 
L 76.887099 297.09455 
L 77.312764 291.957189 
L 77.738429 279.196646 
L 78.164094 262.624513 
L 78.376926 260.801578 
L 78.589759 256.658545 
L 79.441089 226.331541 
L 79.653921 226.331541 
L 79.866754 211.085179 
L 80.079586 208.102195 
L 80.292418 207.770752 
L 80.505251 207.770752 
L 80.718083 201.141899 
L 81.143748 199.153243 
L 81.356581 194.678767 
L 81.569413 185.06693 
L 81.782246 183.741159 
L 81.995078 183.741159 
L 83.272073 181.586782 
L 83.697738 180.592454 
L 83.91057 179.100962 
L 84.336235 178.272355 
L 84.549068 177.940912 
L 84.7619 176.283699 
L 84.974733 175.620814 
L 85.187565 175.455092 
L 85.400397 174.129322 
L 85.61323 170.980617 
L 86.038895 168.494797 
L 86.46456 166.008977 
L 87.103057 165.18037 
L 87.31589 165.18037 
L 87.528722 164.683206 
L 87.741555 159.545845 
L 87.954387 157.888631 
L 88.380052 156.894303 
L 88.592884 155.23709 
L 88.805717 152.419827 
L 89.018549 151.922663 
L 89.231382 151.756942 
L 89.657047 151.259778 
L 90.082712 149.602565 
L 90.508376 149.105401 
L 90.721209 148.939679 
L 91.359706 145.790974 
L 91.998204 144.630925 
L 92.423869 142.973711 
L 92.636701 142.80799 
L 92.849534 142.310826 
L 93.062366 141.482219 
L 93.275198 141.316498 
L 93.488031 141.316498 
L 93.700863 141.150777 
L 94.126528 141.150777 
L 94.339361 139.825006 
L 94.552193 139.327842 
L 94.765026 139.327842 
L 95.616356 138.167793 
L 95.829188 138.167793 
L 96.04202 137.007744 
L 96.680518 136.51058 
L 96.89335 136.51058 
L 97.106183 136.013416 
L 97.319015 135.847694 
L 97.74468 135.847694 
L 97.957513 135.35053 
L 98.383177 135.019088 
L 98.59601 134.687645 
L 98.808842 134.687645 
L 99.021675 134.356202 
L 99.234507 134.356202 
L 99.660172 133.361874 
L 99.873005 133.361874 
L 100.085837 133.030432 
L 100.724335 133.030432 
L 100.937167 132.698989 
L 101.149999 132.036104 
L 101.362832 132.036104 
L 102.852659 129.881726 
L 103.491157 129.881726 
L 103.916821 129.550284 
L 104.342486 128.887398 
L 104.555319 128.887398 
L 104.768151 128.555956 
L 104.980984 128.555956 
L 105.619481 127.561628 
L 106.045146 127.561628 
L 106.470811 127.064464 
L 106.896476 127.064464 
L 107.109308 126.733021 
L 107.322141 124.744365 
L 107.534973 123.915758 
L 108.599136 123.915758 
L 108.811968 123.584316 
L 112.43012 123.584316 
L 112.642952 123.418594 
L 113.28145 123.418594 
L 113.494282 123.252873 
L 113.919947 122.258545 
L 114.132779 122.092824 
L 114.345612 121.761381 
L 114.558444 121.761381 
L 114.771277 121.59566 
L 114.984109 121.59566 
L 115.409774 121.264217 
L 115.622607 120.932774 
L 118.815094 120.932774 
L 119.027926 120.767053 
L 119.453591 120.767053 
L 119.879256 120.104168 
L 123.497408 120.104168 
L 123.71024 119.938446 
L 124.987235 119.938446 
L 125.200067 119.772725 
L 125.625732 119.772725 
L 125.838565 119.607004 
L 126.26423 117.784069 
L 126.689895 117.452626 
L 127.115559 117.452626 
L 127.328392 116.955462 
L 130.308046 116.955462 
L 130.520879 116.789741 
L 141.588167 116.789741 
L 142.013832 106.017855 
L 142.652329 106.017855 
L 142.865161 105.023527 
L 143.290826 104.526363 
L 143.503659 104.526363 
L 143.716491 104.360641 
L 144.993486 104.360641 
L 145.206319 103.366313 
L 145.419151 103.034871 
L 145.844816 103.034871 
L 146.057648 102.869149 
L 150.52713 102.869149 
L 150.739962 99.720444 
L 155.847942 99.720444 
L 156.060774 99.554723 
L 203.096748 99.554723 
L 203.30958 98.228952 
L 207.779062 98.228952 
L 207.991894 98.063231 
L 215.015365 98.063231 
L 215.228198 97.566067 
L 219.484847 97.566067 
L 219.697679 97.400345 
L 222.251669 97.400345 
L 222.464501 97.068903 
L 232.893292 97.068903 
L 233.106124 96.903181 
L 234.808784 96.903181 
L 235.021616 96.406017 
L 236.724276 96.406017 
L 236.937109 95.908853 
L 266.52082 95.908853 
L 266.733653 95.743132 
L 284.185915 95.743132 
L 284.398747 94.748804 
L 375.916705 94.748804 
L 375.916705 94.748804 
" clip-path="url(#p96a0ce76c2)" style="fill: none; stroke: #db5f57; stroke-width: 1.2; stroke-linecap: round"/>
   </g>
   <g id="line2d_46">
    <path d="M 69.650795 491.485672 
L 69.863628 463.644488 
L 70.07646 456.021307 
L 70.289293 455.1927 
L 70.502125 453.535487 
L 70.714958 453.038323 
L 71.353455 449.723896 
L 71.77912 416.248187 
L 71.991953 415.088138 
L 72.204785 411.60799 
L 72.417617 410.779383 
L 72.63045 408.625006 
L 72.843282 404.979137 
L 73.268947 403.156202 
L 73.907445 397.85312 
L 74.120277 391.72143 
L 74.33311 388.904168 
L 74.545942 387.578397 
L 74.971607 377.800838 
L 75.822937 333.056079 
L 76.674267 317.146831 
L 76.887099 307.534994 
L 77.099932 305.214895 
L 77.525596 290.797139 
L 77.951261 275.385055 
L 78.164094 273.562121 
L 78.376926 268.756202 
L 78.802591 263.784562 
L 79.228256 240.749297 
L 79.441089 229.977411 
L 79.653921 225.005771 
L 79.866754 224.840049 
L 80.292418 219.868409 
L 80.505251 218.376917 
L 80.718083 213.073835 
L 80.930916 212.576671 
L 81.356581 211.085179 
L 81.569413 199.484686 
L 81.995078 198.656079 
L 82.207911 198.490358 
L 82.846408 197.661751 
L 83.05924 197.49603 
L 83.484905 196.170259 
L 83.697738 195.673095 
L 83.91057 195.673095 
L 84.123403 194.347324 
L 84.336235 193.85016 
L 84.549068 193.684439 
L 84.7619 191.695783 
L 84.974733 191.198619 
L 85.187565 191.198619 
L 85.61323 186.724143 
L 85.826062 185.895536 
L 86.038895 185.729815 
L 86.251727 183.243995 
L 86.46456 183.078274 
L 86.890225 181.255339 
L 87.103057 181.089618 
L 87.31589 181.089618 
L 87.528722 180.09529 
L 87.741555 176.946584 
L 87.954387 175.620814 
L 88.167219 175.289371 
L 88.380052 174.460764 
L 88.592884 172.803551 
L 88.805717 172.803551 
L 89.018549 169.489125 
L 89.231382 169.323403 
L 89.444214 168.826239 
L 89.869879 168.494797 
L 90.082712 166.837583 
L 90.295544 166.506141 
L 90.721209 166.506141 
L 90.934041 166.174698 
L 91.146874 166.174698 
L 91.359706 163.854599 
L 91.572539 163.854599 
L 91.998204 163.523157 
L 92.211036 162.860271 
L 92.423869 161.534501 
L 92.636701 161.534501 
L 92.849534 161.368779 
L 93.700863 161.368779 
L 93.913696 159.711566 
L 94.126528 159.711566 
L 94.339361 159.380123 
L 94.552193 157.72291 
L 94.765026 157.72291 
L 95.829188 156.231418 
L 96.04202 156.231418 
L 96.254853 155.071369 
L 96.467685 155.071369 
L 96.680518 154.739926 
L 96.89335 154.739926 
L 97.106183 154.242762 
L 97.74468 154.242762 
L 97.957513 153.745598 
L 98.170345 153.745598 
L 98.59601 153.414155 
L 99.234507 153.414155 
L 99.44734 152.419827 
L 99.660172 152.088385 
L 99.873005 152.088385 
L 100.085837 151.922663 
L 100.724335 151.922663 
L 100.937167 151.591221 
L 101.149999 151.591221 
L 101.362832 150.928335 
L 101.575664 150.928335 
L 101.788497 150.596893 
L 102.001329 149.768286 
L 102.214162 149.602565 
L 102.426994 148.773958 
L 104.129654 148.773958 
L 104.555319 147.945351 
L 104.768151 147.77963 
L 104.980984 147.77963 
L 105.193816 147.613909 
L 105.619481 146.951023 
L 105.832314 146.951023 
L 106.470811 146.453859 
L 106.896476 146.453859 
L 107.109308 144.465203 
L 107.534973 144.465203 
L 107.747806 142.973711 
L 107.960638 142.973711 
L 108.173471 142.642269 
L 108.811968 142.642269 
L 109.0248 142.476547 
L 110.301795 142.476547 
L 110.514628 142.310826 
L 112.43012 142.310826 
L 112.642952 141.979383 
L 113.494282 141.979383 
L 113.707115 141.813662 
L 113.919947 140.819334 
L 114.132779 140.653613 
L 114.345612 140.32217 
L 114.558444 140.32217 
L 114.771277 140.156449 
L 114.984109 140.156449 
L 115.409774 139.825006 
L 117.963764 139.825006 
L 118.176596 139.659285 
L 119.027926 139.659285 
L 119.240758 139.493564 
L 119.666423 139.493564 
L 119.879256 138.830678 
L 125.200067 138.830678 
L 125.4129 138.664957 
L 125.838565 138.664957 
L 126.051397 137.504908 
L 126.902727 136.344858 
L 127.328392 136.344858 
L 127.754057 135.516252 
L 128.179722 135.516252 
L 128.392554 135.35053 
L 138.608512 135.35053 
L 139.034177 134.853366 
L 139.459842 129.881726 
L 139.672675 129.550284 
L 139.885507 128.555956 
L 140.09834 128.390234 
L 140.311172 126.898742 
L 140.524004 126.898742 
L 140.949669 126.5673 
L 141.162502 126.070136 
L 141.375334 125.241529 
L 141.588167 124.910086 
L 141.800999 124.910086 
L 142.013832 124.578644 
L 143.077994 124.578644 
L 143.290826 123.418594 
L 143.503659 123.418594 
L 143.716491 123.252873 
L 143.929324 123.252873 
L 144.354989 122.755709 
L 144.780654 122.755709 
L 145.206319 122.258545 
L 145.419151 122.092824 
L 145.631983 122.092824 
L 145.844816 121.927102 
L 146.696146 121.927102 
L 146.908978 121.098496 
L 147.760308 121.098496 
L 147.973141 120.932774 
L 148.398805 120.932774 
L 148.611638 120.43561 
L 149.037303 120.43561 
L 149.250135 120.269889 
L 149.462968 120.269889 
L 149.6758 119.938446 
L 151.165627 119.938446 
L 151.37846 119.772725 
L 152.016957 119.772725 
L 152.22979 119.607004 
L 180.962172 119.607004 
L 181.175004 119.441282 
L 198.414433 119.441282 
L 198.627266 118.115512 
L 207.353397 118.115512 
L 207.566229 117.94979 
L 213.099873 117.94979 
L 213.73837 117.452626 
L 219.484847 117.452626 
L 219.697679 117.286905 
L 220.761842 117.286905 
L 220.974674 117.121184 
L 221.613171 117.121184 
L 221.826004 116.955462 
L 229.27514 116.955462 
L 229.487972 116.789741 
L 233.957454 116.789741 
L 234.170287 116.292577 
L 235.660114 116.292577 
L 235.872946 115.961134 
L 236.085779 115.961134 
L 236.298611 115.795413 
L 265.243826 115.795413 
L 265.456658 115.629692 
L 282.05759 115.629692 
L 282.270422 115.46397 
L 282.483255 115.132528 
L 282.696087 115.132528 
L 282.90892 114.801085 
L 317.813443 114.801085 
L 318.026276 114.635364 
L 342.502008 114.635364 
L 342.714841 114.469642 
L 368.254736 114.469642 
L 368.467568 114.303921 
L 375.916705 114.303921 
L 375.916705 114.303921 
" clip-path="url(#p96a0ce76c2)" style="fill: none; stroke: #b9db57; stroke-width: 1.2; stroke-linecap: round"/>
   </g>
   <g id="line2d_47">
    <path d="M 69.650795 486.182589 
L 70.07646 442.597879 
L 70.92779 421.219827 
L 71.353455 417.242515 
L 71.77912 412.436597 
L 72.843282 401.498989 
L 73.268947 399.17889 
L 73.48178 396.361628 
L 73.907445 388.407004 
L 74.33311 384.595413 
L 74.545942 382.9382 
L 74.758774 374.817855 
L 74.971607 371.834871 
L 75.397272 353.605524 
L 75.610104 329.41021 
L 75.822937 324.770012 
L 76.035769 323.609963 
L 76.248602 323.27852 
L 76.461434 319.632651 
L 76.674267 306.706387 
L 76.887099 304.386289 
L 77.099932 300.408977 
L 77.312764 299.248927 
L 77.525596 294.443009 
L 77.951261 277.539433 
L 78.164094 276.379383 
L 78.589759 265.773218 
L 79.015424 256.658545 
L 79.441089 235.777657 
L 79.653921 226.662984 
L 80.292418 222.188508 
L 80.505251 221.028459 
L 80.930916 215.559655 
L 81.143748 214.399605 
L 81.356581 202.633391 
L 81.569413 201.141899 
L 81.782246 200.479014 
L 82.207911 200.147571 
L 82.420743 199.650407 
L 82.633575 199.650407 
L 82.846408 199.318964 
L 83.05924 198.490358 
L 83.272073 198.490358 
L 83.484905 197.661751 
L 83.697738 197.661751 
L 83.91057 195.673095 
L 84.123403 195.507374 
L 84.336235 195.507374 
L 84.549068 195.01021 
L 84.7619 192.855832 
L 84.974733 192.358668 
L 85.187565 190.867176 
L 85.400397 190.370012 
L 85.61323 187.884192 
L 85.826062 187.884192 
L 86.46456 182.912552 
L 86.677392 182.912552 
L 86.890225 182.58111 
L 87.103057 182.58111 
L 87.31589 181.918224 
L 87.528722 181.752503 
L 87.741555 175.952256 
L 88.167219 175.620814 
L 88.380052 173.466436 
L 88.592884 173.300715 
L 88.805717 172.140666 
L 89.018549 170.15201 
L 89.231382 169.986289 
L 89.657047 169.157682 
L 90.082712 167.334747 
L 90.295544 167.334747 
L 90.508376 167.169026 
L 90.721209 167.169026 
L 90.934041 165.843255 
L 91.146874 165.843255 
L 91.359706 164.351763 
L 91.572539 163.688878 
L 91.785371 163.523157 
L 91.998204 163.025993 
L 92.423869 161.037337 
L 92.636701 161.037337 
L 92.849534 160.043009 
L 93.062366 160.043009 
L 93.275198 159.545845 
L 93.488031 159.545845 
L 93.700863 159.380123 
L 94.126528 159.380123 
L 94.339361 158.054353 
L 94.765026 157.225746 
L 94.977858 157.225746 
L 95.190691 156.728582 
L 95.403523 156.728582 
L 95.616356 156.397139 
L 95.829188 155.23709 
L 96.04202 155.071369 
L 96.254853 155.071369 
L 96.680518 154.739926 
L 96.89335 154.242762 
L 97.106183 154.077041 
L 97.531848 154.077041 
L 97.957513 153.414155 
L 98.170345 153.414155 
L 98.383177 153.248434 
L 98.59601 152.916991 
L 99.021675 152.916991 
L 99.234507 152.088385 
L 99.44734 151.922663 
L 99.660172 151.591221 
L 99.873005 151.591221 
L 100.085837 151.259778 
L 100.724335 151.259778 
L 100.937167 151.094057 
L 101.149999 150.26545 
L 101.362832 150.26545 
L 101.575664 150.099729 
L 102.426994 147.945351 
L 103.491157 147.945351 
L 104.129654 147.448187 
L 104.555319 146.951023 
L 104.980984 146.619581 
L 105.193816 146.288138 
L 105.406649 146.288138 
L 105.619481 145.790974 
L 105.832314 145.790974 
L 106.045146 145.625253 
L 106.257978 145.625253 
L 106.470811 145.459531 
L 106.683643 145.459531 
L 106.896476 145.128089 
L 107.322141 142.80799 
L 107.534973 142.310826 
L 107.747806 142.310826 
L 107.960638 142.145105 
L 108.599136 142.145105 
L 108.811968 141.813662 
L 112.43012 141.813662 
L 112.642952 141.647941 
L 113.494282 141.647941 
L 113.919947 140.487891 
L 114.132779 140.32217 
L 114.345612 139.825006 
L 114.984109 139.825006 
L 115.622607 139.327842 
L 118.815094 139.327842 
L 119.027926 139.162121 
L 119.240758 139.162121 
L 119.453591 138.9964 
L 119.666423 138.499236 
L 123.284575 138.499236 
L 123.497408 138.333514 
L 125.200067 138.333514 
L 125.4129 138.167793 
L 125.625732 138.167793 
L 126.051397 136.51058 
L 126.26423 136.344858 
L 126.477062 135.847694 
L 127.115559 135.847694 
L 127.328392 135.35053 
L 128.179722 135.35053 
L 128.392554 135.184809 
L 138.608512 135.184809 
L 138.821345 135.019088 
L 139.034177 132.533268 
L 139.24701 132.367546 
L 139.459842 130.213169 
L 139.672675 130.213169 
L 139.885507 129.716005 
L 140.09834 129.716005 
L 140.311172 127.561628 
L 140.524004 127.561628 
L 140.736837 127.395906 
L 140.949669 127.395906 
L 141.162502 126.733021 
L 141.375334 126.733021 
L 141.588167 126.070136 
L 141.800999 126.070136 
L 142.013832 125.904414 
L 142.226664 125.904414 
L 142.439497 125.738693 
L 142.652329 125.738693 
L 142.865161 124.910086 
L 143.077994 124.578644 
L 143.290826 124.578644 
L 143.503659 124.412922 
L 143.929324 124.412922 
L 144.142156 123.915758 
L 144.780654 123.915758 
L 145.206319 123.252873 
L 145.631983 123.252873 
L 145.844816 123.087152 
L 146.483313 123.087152 
L 146.696146 122.92143 
L 146.908978 121.927102 
L 147.334643 121.927102 
L 147.760308 121.59566 
L 148.185973 121.59566 
L 148.398805 121.429938 
L 148.611638 121.429938 
L 149.037303 120.932774 
L 149.250135 120.932774 
L 149.462968 120.767053 
L 149.6758 120.269889 
L 151.804125 120.269889 
L 152.016957 120.104168 
L 198.627266 120.104168 
L 198.840098 119.10984 
L 207.353397 119.10984 
L 207.566229 118.944118 
L 213.099873 118.944118 
L 213.312706 118.778397 
L 213.525538 118.446954 
L 219.272014 118.446954 
L 219.484847 118.281233 
L 220.549009 118.281233 
L 220.761842 118.115512 
L 220.974674 118.115512 
L 221.187507 117.94979 
L 229.062308 117.94979 
L 229.27514 117.784069 
L 233.744622 117.784069 
L 233.957454 117.286905 
L 235.660114 117.286905 
L 236.085779 116.789741 
L 282.05759 116.789741 
L 282.270422 116.126856 
L 282.483255 116.126856 
L 282.696087 115.795413 
L 375.916705 115.795413 
L 375.916705 115.795413 
" clip-path="url(#p96a0ce76c2)" style="fill: none; stroke: #57db94; stroke-width: 1.2; stroke-linecap: round"/>
   </g>
   <g id="line2d_48">
    <path d="M 69.650795 487.50836 
L 69.863628 461.821554 
L 70.07646 453.038323 
L 70.502125 429.340173 
L 71.353455 416.413909 
L 71.566288 415.916745 
L 71.991953 408.790727 
L 72.204785 407.962121 
L 72.63045 403.156202 
L 73.268947 397.687398 
L 73.694612 393.875808 
L 73.907445 388.572725 
L 74.33311 387.578397 
L 74.545942 381.943872 
L 74.758774 379.623773 
L 75.184439 356.919951 
L 75.397272 346.148064 
L 75.610104 344.656572 
L 75.822937 327.090111 
L 76.035769 326.592947 
L 76.248602 326.427226 
L 76.461434 324.272848 
L 76.674267 307.203551 
L 76.887099 307.03783 
L 77.312764 305.546338 
L 77.525596 304.883453 
L 77.738429 286.985549 
L 78.164094 285.494057 
L 78.376926 281.351023 
L 78.589759 261.795906 
L 78.802591 260.9673 
L 79.015424 260.801578 
L 79.228256 259.641529 
L 79.441089 228.154476 
L 79.653921 227.657312 
L 80.079586 226.331541 
L 80.292418 223.348557 
L 80.505251 215.062491 
L 80.930916 214.731048 
L 81.143748 214.731048 
L 81.356581 200.810456 
L 81.569413 200.147571 
L 81.782246 195.673095 
L 82.420743 195.673095 
L 82.633575 194.678767 
L 82.846408 194.678767 
L 83.05924 194.513046 
L 83.272073 194.181603 
L 83.697738 192.855832 
L 84.123403 192.855832 
L 84.336235 192.690111 
L 84.549068 190.535734 
L 84.7619 190.370012 
L 85.187565 190.370012 
L 85.400397 190.204291 
L 85.61323 184.072602 
L 85.826062 183.575438 
L 86.251727 181.918224 
L 86.46456 179.266683 
L 86.677392 178.93524 
L 87.103057 178.93524 
L 87.528722 176.780863 
L 87.741555 172.306387 
L 87.954387 172.306387 
L 88.167219 171.809223 
L 88.380052 169.489125 
L 88.592884 168.826239 
L 88.805717 167.169026 
L 89.018549 164.186042 
L 89.231382 164.186042 
L 89.657047 163.191714 
L 89.869879 162.031665 
L 90.295544 161.534501 
L 90.721209 161.203058 
L 91.146874 158.882959 
L 91.359706 158.551517 
L 92.423869 155.402811 
L 92.636701 155.402811 
L 93.275198 153.745598 
L 93.488031 153.579877 
L 94.126528 153.579877 
L 94.339361 152.419827 
L 94.552193 151.922663 
L 94.765026 151.756942 
L 94.977858 151.756942 
L 95.190691 150.762614 
L 95.403523 150.762614 
L 95.616356 150.431171 
L 96.04202 150.431171 
L 96.254853 150.26545 
L 96.467685 148.608237 
L 96.89335 148.111073 
L 97.106183 147.945351 
L 97.531848 147.945351 
L 97.74468 147.77963 
L 97.957513 147.448187 
L 98.170345 147.448187 
L 98.383177 147.282466 
L 98.59601 146.951023 
L 98.808842 146.951023 
L 99.021675 146.619581 
L 99.234507 145.956695 
L 99.44734 145.790974 
L 99.660172 145.790974 
L 99.873005 145.625253 
L 100.29867 145.625253 
L 100.511502 145.29381 
L 100.724335 145.29381 
L 101.149999 144.796646 
L 101.362832 144.630925 
L 101.788497 143.636597 
L 102.214162 142.80799 
L 102.426994 142.310826 
L 102.639827 142.145105 
L 103.491157 142.145105 
L 103.703989 141.979383 
L 104.129654 141.150777 
L 104.342486 141.150777 
L 105.193816 140.487891 
L 105.406649 140.487891 
L 105.619481 139.990727 
L 105.832314 139.990727 
L 106.257978 139.493564 
L 106.470811 139.327842 
L 107.109308 139.327842 
L 107.322141 137.007744 
L 107.534973 136.842022 
L 107.747806 136.344858 
L 109.237633 136.344858 
L 109.450465 136.013416 
L 112.855785 136.013416 
L 113.068617 135.847694 
L 113.494282 135.847694 
L 113.707115 135.019088 
L 113.919947 134.853366 
L 114.345612 134.190481 
L 114.984109 134.190481 
L 115.409774 133.527596 
L 119.240758 133.527596 
L 119.453591 133.030432 
L 119.666423 133.030432 
L 119.879256 132.698989 
L 123.284575 132.698989 
L 123.497408 132.533268 
L 125.625732 132.533268 
L 126.051397 130.710333 
L 126.689895 129.881726 
L 127.328392 129.881726 
L 127.541224 129.218841 
L 127.754057 129.05312 
L 128.179722 129.05312 
L 128.392554 128.887398 
L 138.608512 128.887398 
L 139.034177 125.075808 
L 139.24701 124.247201 
L 139.459842 122.92143 
L 139.885507 122.092824 
L 140.09834 121.264217 
L 140.311172 121.264217 
L 140.524004 120.104168 
L 140.736837 120.104168 
L 140.949669 119.938446 
L 141.375334 118.115512 
L 141.588167 118.115512 
L 142.013832 117.784069 
L 142.439497 117.784069 
L 142.652329 117.452626 
L 142.865161 116.458298 
L 143.077994 116.292577 
L 143.716491 116.292577 
L 144.142156 115.795413 
L 144.567821 115.795413 
L 144.780654 115.46397 
L 145.419151 115.46397 
L 145.631983 115.298249 
L 146.483313 115.298249 
L 146.696146 113.806757 
L 148.398805 113.806757 
L 148.611638 113.309593 
L 148.82447 113.309593 
L 149.037303 113.143872 
L 149.250135 113.143872 
L 149.462968 112.812429 
L 152.22979 112.812429 
L 152.442622 112.646708 
L 198.414433 112.646708 
L 198.627266 111.65238 
L 207.566229 111.65238 
L 207.779062 111.486658 
L 213.099873 111.486658 
L 213.312706 111.320937 
L 213.525538 110.989494 
L 219.272014 110.989494 
L 219.484847 110.823773 
L 220.549009 110.823773 
L 220.761842 110.658052 
L 220.974674 110.658052 
L 221.187507 110.49233 
L 229.062308 110.49233 
L 229.27514 110.326609 
L 233.957454 110.326609 
L 234.170287 109.995166 
L 235.872946 109.995166 
L 236.085779 109.663724 
L 236.298611 109.663724 
L 236.511444 109.498002 
L 265.243826 109.498002 
L 265.456658 109.332281 
L 282.05759 109.332281 
L 282.270422 109.16656 
L 282.90892 109.16656 
L 283.121752 108.337953 
L 368.254736 108.337953 
L 368.467568 108.172232 
L 375.916705 108.172232 
L 375.916705 108.172232 
" clip-path="url(#p96a0ce76c2)" style="fill: none; stroke: #5784db; stroke-width: 1.2; stroke-linecap: round"/>
   </g>
   <g id="line2d_49">
    <path d="M 69.650795 484.691097 
L 70.07646 440.774945 
L 70.714958 421.385549 
L 71.353455 413.596646 
L 71.566288 410.282219 
L 71.77912 408.790727 
L 72.417617 401.66471 
L 72.843282 397.190234 
L 73.056115 396.030185 
L 73.48178 391.555709 
L 73.907445 383.435364 
L 74.545942 376.80651 
L 75.184439 350.788261 
L 75.397272 328.25016 
L 75.822937 316.152503 
L 76.035769 315.158175 
L 76.461434 306.374945 
L 76.674267 294.111566 
L 76.887099 292.620074 
L 77.099932 289.139926 
L 77.312764 283.671122 
L 77.951261 260.138693 
L 78.164094 257.652873 
L 78.802591 244.063724 
L 79.653921 207.107867 
L 80.079586 203.627719 
L 80.718083 195.838816 
L 81.143748 194.678767 
L 81.356581 180.09529 
L 81.782246 178.769519 
L 81.995078 178.769519 
L 82.207911 178.603798 
L 82.420743 178.106634 
L 82.846408 177.775191 
L 83.272073 176.780863 
L 83.697738 175.786535 
L 83.91057 174.460764 
L 84.123403 174.295043 
L 84.549068 173.632158 
L 84.7619 171.643502 
L 84.974733 171.146338 
L 86.038895 163.854599 
L 86.251727 162.197386 
L 86.677392 161.203058 
L 86.890225 160.705894 
L 87.103057 160.705894 
L 87.31589 160.374451 
L 87.528722 159.545845 
L 87.741555 153.414155 
L 87.954387 153.248434 
L 88.167219 152.75127 
L 88.380052 150.762614 
L 88.592884 149.934007 
L 88.805717 147.77963 
L 89.018549 147.282466 
L 89.231382 147.282466 
L 89.657047 146.288138 
L 89.869879 144.962367 
L 90.295544 144.465203 
L 90.508376 144.465203 
L 90.721209 144.299482 
L 91.146874 141.813662 
L 91.998204 139.825006 
L 92.423869 138.333514 
L 92.636701 138.333514 
L 93.062366 136.842022 
L 93.275198 136.842022 
L 93.488031 136.676301 
L 94.126528 136.676301 
L 94.552193 134.687645 
L 94.765026 134.356202 
L 94.977858 134.356202 
L 95.190691 133.859038 
L 95.403523 133.859038 
L 95.616356 133.527596 
L 95.829188 132.367546 
L 96.467685 131.870382 
L 96.89335 131.373218 
L 97.106183 131.207497 
L 97.531848 131.207497 
L 97.957513 130.710333 
L 98.170345 130.710333 
L 98.383177 130.544612 
L 98.59601 130.213169 
L 98.808842 130.213169 
L 99.021675 129.881726 
L 99.234507 129.218841 
L 100.085837 128.555956 
L 100.724335 128.555956 
L 100.937167 128.224513 
L 101.149999 127.561628 
L 101.575664 127.230185 
L 102.001329 126.401578 
L 102.426994 125.40725 
L 103.491157 125.40725 
L 103.703989 125.241529 
L 104.129654 124.412922 
L 104.342486 124.412922 
L 104.980984 123.915758 
L 105.193816 123.584316 
L 105.406649 123.584316 
L 105.619481 123.087152 
L 105.832314 123.087152 
L 106.257978 122.589988 
L 106.683643 122.589988 
L 106.896476 122.258545 
L 107.322141 119.938446 
L 107.534973 119.441282 
L 108.599136 119.441282 
L 108.811968 119.10984 
L 112.43012 119.10984 
L 112.642952 118.944118 
L 113.28145 118.944118 
L 113.494282 118.778397 
L 113.707115 117.94979 
L 114.132779 117.618348 
L 114.345612 117.286905 
L 114.984109 117.286905 
L 115.409774 116.62402 
L 117.963764 116.62402 
L 118.176596 116.458298 
L 118.815094 116.458298 
L 119.027926 116.292577 
L 119.240758 116.292577 
L 119.666423 115.629692 
L 123.284575 115.629692 
L 123.497408 115.46397 
L 124.987235 115.46397 
L 125.200067 115.298249 
L 125.625732 115.298249 
L 126.051397 113.641036 
L 126.689895 112.812429 
L 127.115559 112.812429 
L 127.328392 112.315265 
L 127.754057 111.983822 
L 128.179722 111.983822 
L 128.392554 111.818101 
L 138.608512 111.818101 
L 139.034177 108.00651 
L 139.24701 107.177904 
L 139.459842 105.852133 
L 139.672675 105.520691 
L 140.09834 104.029199 
L 140.311172 102.869149 
L 140.524004 102.703428 
L 140.736837 102.703428 
L 140.949669 102.537707 
L 141.375334 100.714772 
L 141.588167 100.714772 
L 142.013832 100.383329 
L 142.439497 100.383329 
L 142.652329 100.051887 
L 142.865161 99.057559 
L 143.077994 98.891837 
L 143.290826 98.891837 
L 143.503659 98.726116 
L 143.716491 98.726116 
L 144.142156 98.228952 
L 144.567821 98.228952 
L 145.206319 97.400345 
L 145.631983 97.400345 
L 145.844816 97.234624 
L 146.483313 97.234624 
L 146.696146 95.908853 
L 147.547476 95.908853 
L 147.760308 95.743132 
L 148.185973 95.743132 
L 148.398805 95.577411 
L 148.611638 95.245968 
L 148.82447 95.245968 
L 149.037303 95.080247 
L 149.250135 95.080247 
L 149.6758 94.417361 
L 151.804125 94.417361 
L 152.016957 94.25164 
L 198.414433 94.25164 
L 198.627266 92.925869 
L 207.353397 92.925869 
L 207.566229 92.760148 
L 213.099873 92.760148 
L 213.312706 92.594427 
L 213.525538 92.262984 
L 219.272014 92.262984 
L 219.484847 92.097263 
L 220.549009 92.097263 
L 220.761842 91.931541 
L 220.974674 91.931541 
L 221.187507 91.76582 
L 229.062308 91.76582 
L 229.27514 91.600099 
L 233.744622 91.600099 
L 233.957454 91.102935 
L 235.660114 91.102935 
L 236.085779 90.605771 
L 265.243826 90.605771 
L 265.456658 90.440049 
L 282.05759 90.440049 
L 282.270422 89.777164 
L 282.483255 89.777164 
L 282.696087 89.445721 
L 368.254736 89.445721 
L 368.467568 89.28 
L 375.916705 89.28 
L 375.916705 89.28 
" clip-path="url(#p96a0ce76c2)" style="fill: none; stroke: #c957db; stroke-width: 1.2; stroke-linecap: round"/>
   </g>
   <g id="line2d_50"/>
   <g id="line2d_51"/>
   <g id="line2d_52"/>
   <g id="line2d_53"/>
   <g id="line2d_54"/>
   <g id="patch_3">
    <path d="M 54.3375 512.64 
L 54.3375 69.12 
" style="fill: none; stroke: #cccccc; stroke-linejoin: miter; stroke-linecap: square"/>
   </g>
   <g id="patch_4">
    <path d="M 54.3375 512.64 
L 391.23 512.64 
" style="fill: none; stroke: #cccccc; stroke-linejoin: miter; stroke-linecap: square"/>
   </g>
   <g id="text_47">
    <!-- Edge Coverage History -->
    <g style="fill: #262626" transform="translate(115.892262 63.12)scale(0.165888 -0.165888)">
     <defs>
      <path id="DejaVuSans-Bold-45" d="M 588 4666 
L 3834 4666 
L 3834 3756 
L 1791 3756 
L 1791 2888 
L 3713 2888 
L 3713 1978 
L 1791 1978 
L 1791 909 
L 3903 909 
L 3903 0 
L 588 0 
L 588 4666 
z
" transform="scale(0.015625)"/>
      <path id="DejaVuSans-Bold-64" d="M 2919 2988 
L 2919 4863 
L 4044 4863 
L 4044 0 
L 2919 0 
L 2919 506 
Q 2688 197 2409 53 
Q 2131 -91 1766 -91 
Q 1119 -91 703 423 
Q 288 938 288 1747 
Q 288 2556 703 3070 
Q 1119 3584 1766 3584 
Q 2128 3584 2408 3439 
Q 2688 3294 2919 2988 
z
M 2181 722 
Q 2541 722 2730 984 
Q 2919 1247 2919 1747 
Q 2919 2247 2730 2509 
Q 2541 2772 2181 2772 
Q 1825 2772 1636 2509 
Q 1447 2247 1447 1747 
Q 1447 1247 1636 984 
Q 1825 722 2181 722 
z
" transform="scale(0.015625)"/>
      <path id="DejaVuSans-Bold-67" d="M 2919 594 
Q 2688 288 2409 144 
Q 2131 0 1766 0 
Q 1125 0 706 504 
Q 288 1009 288 1791 
Q 288 2575 706 3076 
Q 1125 3578 1766 3578 
Q 2131 3578 2409 3434 
Q 2688 3291 2919 2981 
L 2919 3500 
L 4044 3500 
L 4044 353 
Q 4044 -491 3511 -936 
Q 2978 -1381 1966 -1381 
Q 1638 -1381 1331 -1331 
Q 1025 -1281 716 -1178 
L 716 -306 
Q 1009 -475 1290 -558 
Q 1572 -641 1856 -641 
Q 2406 -641 2662 -400 
Q 2919 -159 2919 353 
L 2919 594 
z
M 2181 2772 
Q 1834 2772 1640 2515 
Q 1447 2259 1447 1791 
Q 1447 1309 1634 1061 
Q 1822 813 2181 813 
Q 2531 813 2725 1069 
Q 2919 1325 2919 1791 
Q 2919 2259 2725 2515 
Q 2531 2772 2181 2772 
z
" transform="scale(0.015625)"/>
      <path id="DejaVuSans-Bold-65" d="M 4031 1759 
L 4031 1441 
L 1416 1441 
Q 1456 1047 1700 850 
Q 1944 653 2381 653 
Q 2734 653 3104 758 
Q 3475 863 3866 1075 
L 3866 213 
Q 3469 63 3072 -14 
Q 2675 -91 2278 -91 
Q 1328 -91 801 392 
Q 275 875 275 1747 
Q 275 2603 792 3093 
Q 1309 3584 2216 3584 
Q 3041 3584 3536 3087 
Q 4031 2591 4031 1759 
z
M 2881 2131 
Q 2881 2450 2695 2645 
Q 2509 2841 2209 2841 
Q 1884 2841 1681 2658 
Q 1478 2475 1428 2131 
L 2881 2131 
z
" transform="scale(0.015625)"/>
      <path id="DejaVuSans-Bold-20" transform="scale(0.015625)"/>
      <path id="DejaVuSans-Bold-43" d="M 4288 256 
Q 3956 84 3597 -3 
Q 3238 -91 2847 -91 
Q 1681 -91 1000 561 
Q 319 1213 319 2328 
Q 319 3447 1000 4098 
Q 1681 4750 2847 4750 
Q 3238 4750 3597 4662 
Q 3956 4575 4288 4403 
L 4288 3438 
Q 3953 3666 3628 3772 
Q 3303 3878 2944 3878 
Q 2300 3878 1931 3465 
Q 1563 3053 1563 2328 
Q 1563 1606 1931 1193 
Q 2300 781 2944 781 
Q 3303 781 3628 887 
Q 3953 994 4288 1222 
L 4288 256 
z
" transform="scale(0.015625)"/>
      <path id="DejaVuSans-Bold-6f" d="M 2203 2784 
Q 1831 2784 1636 2517 
Q 1441 2250 1441 1747 
Q 1441 1244 1636 976 
Q 1831 709 2203 709 
Q 2569 709 2762 976 
Q 2956 1244 2956 1747 
Q 2956 2250 2762 2517 
Q 2569 2784 2203 2784 
z
M 2203 3584 
Q 3106 3584 3614 3096 
Q 4122 2609 4122 1747 
Q 4122 884 3614 396 
Q 3106 -91 2203 -91 
Q 1297 -91 786 396 
Q 275 884 275 1747 
Q 275 2609 786 3096 
Q 1297 3584 2203 3584 
z
" transform="scale(0.015625)"/>
      <path id="DejaVuSans-Bold-76" d="M 97 3500 
L 1216 3500 
L 2088 1081 
L 2956 3500 
L 4078 3500 
L 2700 0 
L 1472 0 
L 97 3500 
z
" transform="scale(0.015625)"/>
      <path id="DejaVuSans-Bold-72" d="M 3138 2547 
Q 2991 2616 2845 2648 
Q 2700 2681 2553 2681 
Q 2122 2681 1889 2404 
Q 1656 2128 1656 1613 
L 1656 0 
L 538 0 
L 538 3500 
L 1656 3500 
L 1656 2925 
Q 1872 3269 2151 3426 
Q 2431 3584 2822 3584 
Q 2878 3584 2943 3579 
Q 3009 3575 3134 3559 
L 3138 2547 
z
" transform="scale(0.015625)"/>
      <path id="DejaVuSans-Bold-61" d="M 2106 1575 
Q 1756 1575 1579 1456 
Q 1403 1338 1403 1106 
Q 1403 894 1545 773 
Q 1688 653 1941 653 
Q 2256 653 2472 879 
Q 2688 1106 2688 1447 
L 2688 1575 
L 2106 1575 
z
M 3816 1997 
L 3816 0 
L 2688 0 
L 2688 519 
Q 2463 200 2181 54 
Q 1900 -91 1497 -91 
Q 953 -91 614 226 
Q 275 544 275 1050 
Q 275 1666 698 1953 
Q 1122 2241 2028 2241 
L 2688 2241 
L 2688 2328 
Q 2688 2594 2478 2717 
Q 2269 2841 1825 2841 
Q 1466 2841 1156 2769 
Q 847 2697 581 2553 
L 581 3406 
Q 941 3494 1303 3539 
Q 1666 3584 2028 3584 
Q 2975 3584 3395 3211 
Q 3816 2838 3816 1997 
z
" transform="scale(0.015625)"/>
      <path id="DejaVuSans-Bold-48" d="M 588 4666 
L 1791 4666 
L 1791 2888 
L 3566 2888 
L 3566 4666 
L 4769 4666 
L 4769 0 
L 3566 0 
L 3566 1978 
L 1791 1978 
L 1791 0 
L 588 0 
L 588 4666 
z
" transform="scale(0.015625)"/>
      <path id="DejaVuSans-Bold-69" d="M 538 3500 
L 1656 3500 
L 1656 0 
L 538 0 
L 538 3500 
z
M 538 4863 
L 1656 4863 
L 1656 3950 
L 538 3950 
L 538 4863 
z
" transform="scale(0.015625)"/>
      <path id="DejaVuSans-Bold-73" d="M 3272 3391 
L 3272 2541 
Q 2913 2691 2578 2766 
Q 2244 2841 1947 2841 
Q 1628 2841 1473 2761 
Q 1319 2681 1319 2516 
Q 1319 2381 1436 2309 
Q 1553 2238 1856 2203 
L 2053 2175 
Q 2913 2066 3209 1816 
Q 3506 1566 3506 1031 
Q 3506 472 3093 190 
Q 2681 -91 1863 -91 
Q 1516 -91 1145 -36 
Q 775 19 384 128 
L 384 978 
Q 719 816 1070 734 
Q 1422 653 1784 653 
Q 2113 653 2278 743 
Q 2444 834 2444 1013 
Q 2444 1163 2330 1236 
Q 2216 1309 1875 1350 
L 1678 1375 
Q 931 1469 631 1722 
Q 331 1975 331 2491 
Q 331 3047 712 3315 
Q 1094 3584 1881 3584 
Q 2191 3584 2531 3537 
Q 2872 3491 3272 3391 
z
" transform="scale(0.015625)"/>
      <path id="DejaVuSans-Bold-74" d="M 1759 4494 
L 1759 3500 
L 2913 3500 
L 2913 2700 
L 1759 2700 
L 1759 1216 
Q 1759 972 1856 886 
Q 1953 800 2241 800 
L 2816 800 
L 2816 0 
L 1856 0 
Q 1194 0 917 276 
Q 641 553 641 1216 
L 641 2700 
L 84 2700 
L 84 3500 
L 641 3500 
L 641 4494 
L 1759 4494 
z
" transform="scale(0.015625)"/>
      <path id="DejaVuSans-Bold-79" d="M 78 3500 
L 1197 3500 
L 2138 1125 
L 2938 3500 
L 4056 3500 
L 2584 -331 
Q 2363 -916 2067 -1148 
Q 1772 -1381 1288 -1381 
L 641 -1381 
L 641 -647 
L 991 -647 
Q 1275 -647 1404 -556 
Q 1534 -466 1606 -231 
L 1638 -134 
L 78 3500 
z
" transform="scale(0.015625)"/>
     </defs>
     <use xlink:href="#DejaVuSans-Bold-45"/>
     <use xlink:href="#DejaVuSans-Bold-64" x="68.310547"/>
     <use xlink:href="#DejaVuSans-Bold-67" x="139.892578"/>
     <use xlink:href="#DejaVuSans-Bold-65" x="211.474609"/>
     <use xlink:href="#DejaVuSans-Bold-20" x="279.296875"/>
     <use xlink:href="#DejaVuSans-Bold-43" x="314.111328"/>
     <use xlink:href="#DejaVuSans-Bold-6f" x="387.5"/>
     <use xlink:href="#DejaVuSans-Bold-76" x="456.201172"/>
     <use xlink:href="#DejaVuSans-Bold-65" x="521.386719"/>
     <use xlink:href="#DejaVuSans-Bold-72" x="589.208984"/>
     <use xlink:href="#DejaVuSans-Bold-61" x="638.525391"/>
     <use xlink:href="#DejaVuSans-Bold-67" x="706.005859"/>
     <use xlink:href="#DejaVuSans-Bold-65" x="777.587891"/>
     <use xlink:href="#DejaVuSans-Bold-20" x="845.410156"/>
     <use xlink:href="#DejaVuSans-Bold-48" x="880.224609"/>
     <use xlink:href="#DejaVuSans-Bold-69" x="963.916016"/>
     <use xlink:href="#DejaVuSans-Bold-73" x="998.193359"/>
     <use xlink:href="#DejaVuSans-Bold-74" x="1057.714844"/>
     <use xlink:href="#DejaVuSans-Bold-6f" x="1105.517578"/>
     <use xlink:href="#DejaVuSans-Bold-72" x="1174.21875"/>
     <use xlink:href="#DejaVuSans-Bold-79" x="1223.535156"/>
    </g>
   </g>
   <g id="legend_1">
    <g id="patch_5">
     <path d="M 273.541 508.24 
L 385.07 508.24 
Q 386.83 508.24 386.83 506.48 
L 386.83 428.8405 
Q 386.83 427.0805 385.07 427.0805 
L 273.541 427.0805 
Q 271.781 427.0805 271.781 428.8405 
L 271.781 506.48 
Q 271.781 508.24 273.541 508.24 
z
" style="fill: #ffffff; opacity: 0.8; stroke: #cccccc; stroke-width: 0.8; stroke-linejoin: miter"/>
    </g>
    <g id="text_48">
     <!-- fuzzer -->
     <g style="fill: #262626" transform="translate(314.6085 437.895)scale(0.096 -0.096)">
      <defs>
       <path id="DejaVuSans-66" d="M 2375 4863 
L 2375 4384 
L 1825 4384 
Q 1516 4384 1395 4259 
Q 1275 4134 1275 3809 
L 1275 3500 
L 2222 3500 
L 2222 3053 
L 1275 3053 
L 1275 0 
L 697 0 
L 697 3053 
L 147 3053 
L 147 3500 
L 697 3500 
L 697 3744 
Q 697 4328 969 4595 
Q 1241 4863 1831 4863 
L 2375 4863 
z
" transform="scale(0.015625)"/>
       <path id="DejaVuSans-7a" d="M 353 3500 
L 3084 3500 
L 3084 2975 
L 922 459 
L 3084 459 
L 3084 0 
L 275 0 
L 275 525 
L 2438 3041 
L 353 3041 
L 353 3500 
z
" transform="scale(0.015625)"/>
      </defs>
      <use xlink:href="#DejaVuSans-66"/>
      <use xlink:href="#DejaVuSans-75" x="35.205078"/>
      <use xlink:href="#DejaVuSans-7a" x="98.583984"/>
      <use xlink:href="#DejaVuSans-7a" x="151.074219"/>
      <use xlink:href="#DejaVuSans-65" x="203.564453"/>
      <use xlink:href="#DejaVuSans-72" x="265.087891"/>
     </g>
    </g>
    <g id="line2d_55">
     <path d="M 275.301 447.898125 
L 284.101 447.898125 
L 292.901 447.898125 
" style="fill: none; stroke: #db5f57; stroke-width: 1.2; stroke-linecap: round"/>
    </g>
    <g id="text_49">
     <!-- aflplusplus-0-exid2 -->
     <g style="fill: #262626" transform="translate(299.941 450.978125)scale(0.088 -0.088)">
      <defs>
       <path id="DejaVuSans-6c" d="M 603 4863 
L 1178 4863 
L 1178 0 
L 603 0 
L 603 4863 
z
" transform="scale(0.015625)"/>
       <path id="DejaVuSans-70" d="M 1159 525 
L 1159 -1331 
L 581 -1331 
L 581 3500 
L 1159 3500 
L 1159 2969 
Q 1341 3281 1617 3432 
Q 1894 3584 2278 3584 
Q 2916 3584 3314 3078 
Q 3713 2572 3713 1747 
Q 3713 922 3314 415 
Q 2916 -91 2278 -91 
Q 1894 -91 1617 61 
Q 1341 213 1159 525 
z
M 3116 1747 
Q 3116 2381 2855 2742 
Q 2594 3103 2138 3103 
Q 1681 3103 1420 2742 
Q 1159 2381 1159 1747 
Q 1159 1113 1420 752 
Q 1681 391 2138 391 
Q 2594 391 2855 752 
Q 3116 1113 3116 1747 
z
" transform="scale(0.015625)"/>
       <path id="DejaVuSans-2d" d="M 313 2009 
L 1997 2009 
L 1997 1497 
L 313 1497 
L 313 2009 
z
" transform="scale(0.015625)"/>
       <path id="DejaVuSans-78" d="M 3513 3500 
L 2247 1797 
L 3578 0 
L 2900 0 
L 1881 1375 
L 863 0 
L 184 0 
L 1544 1831 
L 300 3500 
L 978 3500 
L 1906 2253 
L 2834 3500 
L 3513 3500 
z
" transform="scale(0.015625)"/>
      </defs>
      <use xlink:href="#DejaVuSans-61"/>
      <use xlink:href="#DejaVuSans-66" x="61.279297"/>
      <use xlink:href="#DejaVuSans-6c" x="96.484375"/>
      <use xlink:href="#DejaVuSans-70" x="124.267578"/>
      <use xlink:href="#DejaVuSans-6c" x="187.744141"/>
      <use xlink:href="#DejaVuSans-75" x="215.527344"/>
      <use xlink:href="#DejaVuSans-73" x="278.90625"/>
      <use xlink:href="#DejaVuSans-70" x="331.005859"/>
      <use xlink:href="#DejaVuSans-6c" x="394.482422"/>
      <use xlink:href="#DejaVuSans-75" x="422.265625"/>
      <use xlink:href="#DejaVuSans-73" x="485.644531"/>
      <use xlink:href="#DejaVuSans-2d" x="537.744141"/>
      <use xlink:href="#DejaVuSans-30" x="573.828125"/>
      <use xlink:href="#DejaVuSans-2d" x="637.451172"/>
      <use xlink:href="#DejaVuSans-65" x="673.535156"/>
      <use xlink:href="#DejaVuSans-78" x="733.308594"/>
      <use xlink:href="#DejaVuSans-69" x="792.488281"/>
      <use xlink:href="#DejaVuSans-64" x="820.271484"/>
      <use xlink:href="#DejaVuSans-32" x="883.748047"/>
     </g>
    </g>
    <g id="line2d_56">
     <path d="M 275.301 460.814875 
L 284.101 460.814875 
L 292.901 460.814875 
" style="fill: none; stroke: #b9db57; stroke-width: 1.2; stroke-linecap: round"/>
    </g>
    <g id="text_50">
     <!-- mopt-0-exid2 -->
     <g style="fill: #262626" transform="translate(299.941 463.894875)scale(0.088 -0.088)">
      <use xlink:href="#DejaVuSans-6d"/>
      <use xlink:href="#DejaVuSans-6f" x="97.412109"/>
      <use xlink:href="#DejaVuSans-70" x="158.59375"/>
      <use xlink:href="#DejaVuSans-74" x="222.070312"/>
      <use xlink:href="#DejaVuSans-2d" x="261.279297"/>
      <use xlink:href="#DejaVuSans-30" x="297.363281"/>
      <use xlink:href="#DejaVuSans-2d" x="360.986328"/>
      <use xlink:href="#DejaVuSans-65" x="397.070312"/>
      <use xlink:href="#DejaVuSans-78" x="456.84375"/>
      <use xlink:href="#DejaVuSans-69" x="516.023438"/>
      <use xlink:href="#DejaVuSans-64" x="543.806641"/>
      <use xlink:href="#DejaVuSans-32" x="607.283203"/>
     </g>
    </g>
    <g id="line2d_57">
     <path d="M 275.301 473.731625 
L 284.101 473.731625 
L 292.901 473.731625 
" style="fill: none; stroke: #57db94; stroke-width: 1.2; stroke-linecap: round"/>
    </g>
    <g id="text_51">
     <!-- symcc-0-exid2 -->
     <g style="fill: #262626" transform="translate(299.941 476.811625)scale(0.088 -0.088)">
      <defs>
       <path id="DejaVuSans-79" d="M 2059 -325 
Q 1816 -950 1584 -1140 
Q 1353 -1331 966 -1331 
L 506 -1331 
L 506 -850 
L 844 -850 
Q 1081 -850 1212 -737 
Q 1344 -625 1503 -206 
L 1606 56 
L 191 3500 
L 800 3500 
L 1894 763 
L 2988 3500 
L 3597 3500 
L 2059 -325 
z
" transform="scale(0.015625)"/>
       <path id="DejaVuSans-63" d="M 3122 3366 
L 3122 2828 
Q 2878 2963 2633 3030 
Q 2388 3097 2138 3097 
Q 1578 3097 1268 2742 
Q 959 2388 959 1747 
Q 959 1106 1268 751 
Q 1578 397 2138 397 
Q 2388 397 2633 464 
Q 2878 531 3122 666 
L 3122 134 
Q 2881 22 2623 -34 
Q 2366 -91 2075 -91 
Q 1284 -91 818 406 
Q 353 903 353 1747 
Q 353 2603 823 3093 
Q 1294 3584 2113 3584 
Q 2378 3584 2631 3529 
Q 2884 3475 3122 3366 
z
" transform="scale(0.015625)"/>
      </defs>
      <use xlink:href="#DejaVuSans-73"/>
      <use xlink:href="#DejaVuSans-79" x="52.099609"/>
      <use xlink:href="#DejaVuSans-6d" x="111.279297"/>
      <use xlink:href="#DejaVuSans-63" x="208.691406"/>
      <use xlink:href="#DejaVuSans-63" x="263.671875"/>
      <use xlink:href="#DejaVuSans-2d" x="318.652344"/>
      <use xlink:href="#DejaVuSans-30" x="354.736328"/>
      <use xlink:href="#DejaVuSans-2d" x="418.359375"/>
      <use xlink:href="#DejaVuSans-65" x="454.443359"/>
      <use xlink:href="#DejaVuSans-78" x="514.216797"/>
      <use xlink:href="#DejaVuSans-69" x="573.396484"/>
      <use xlink:href="#DejaVuSans-64" x="601.179688"/>
      <use xlink:href="#DejaVuSans-32" x="664.65625"/>
     </g>
    </g>
    <g id="line2d_58">
     <path d="M 275.301 486.648375 
L 284.101 486.648375 
L 292.901 486.648375 
" style="fill: none; stroke: #5784db; stroke-width: 1.2; stroke-linecap: round"/>
    </g>
    <g id="text_52">
     <!-- fairfuzz-0-exid2 -->
     <g style="fill: #262626" transform="translate(299.941 489.728375)scale(0.088 -0.088)">
      <use xlink:href="#DejaVuSans-66"/>
      <use xlink:href="#DejaVuSans-61" x="35.205078"/>
      <use xlink:href="#DejaVuSans-69" x="96.484375"/>
      <use xlink:href="#DejaVuSans-72" x="124.267578"/>
      <use xlink:href="#DejaVuSans-66" x="165.380859"/>
      <use xlink:href="#DejaVuSans-75" x="200.585938"/>
      <use xlink:href="#DejaVuSans-7a" x="263.964844"/>
      <use xlink:href="#DejaVuSans-7a" x="316.455078"/>
      <use xlink:href="#DejaVuSans-2d" x="368.945312"/>
      <use xlink:href="#DejaVuSans-30" x="405.029297"/>
      <use xlink:href="#DejaVuSans-2d" x="468.652344"/>
      <use xlink:href="#DejaVuSans-65" x="504.736328"/>
      <use xlink:href="#DejaVuSans-78" x="564.509766"/>
      <use xlink:href="#DejaVuSans-69" x="623.689453"/>
      <use xlink:href="#DejaVuSans-64" x="651.472656"/>
      <use xlink:href="#DejaVuSans-32" x="714.949219"/>
     </g>
    </g>
    <g id="line2d_59">
     <path d="M 275.301 499.565125 
L 284.101 499.565125 
L 292.901 499.565125 
" style="fill: none; stroke: #c957db; stroke-width: 1.2; stroke-linecap: round"/>
    </g>
    <g id="text_53">
     <!-- fuzzer_global -->
     <g style="fill: #262626" transform="translate(299.941 502.645125)scale(0.088 -0.088)">
      <defs>
       <path id="DejaVuSans-5f" d="M 3263 -1063 
L 3263 -1509 
L -63 -1509 
L -63 -1063 
L 3263 -1063 
z
" transform="scale(0.015625)"/>
       <path id="DejaVuSans-62" d="M 3116 1747 
Q 3116 2381 2855 2742 
Q 2594 3103 2138 3103 
Q 1681 3103 1420 2742 
Q 1159 2381 1159 1747 
Q 1159 1113 1420 752 
Q 1681 391 2138 391 
Q 2594 391 2855 752 
Q 3116 1113 3116 1747 
z
M 1159 2969 
Q 1341 3281 1617 3432 
Q 1894 3584 2278 3584 
Q 2916 3584 3314 3078 
Q 3713 2572 3713 1747 
Q 3713 922 3314 415 
Q 2916 -91 2278 -91 
Q 1894 -91 1617 61 
Q 1341 213 1159 525 
L 1159 0 
L 581 0 
L 581 4863 
L 1159 4863 
L 1159 2969 
z
" transform="scale(0.015625)"/>
      </defs>
      <use xlink:href="#DejaVuSans-66"/>
      <use xlink:href="#DejaVuSans-75" x="35.205078"/>
      <use xlink:href="#DejaVuSans-7a" x="98.583984"/>
      <use xlink:href="#DejaVuSans-7a" x="151.074219"/>
      <use xlink:href="#DejaVuSans-65" x="203.564453"/>
      <use xlink:href="#DejaVuSans-72" x="265.087891"/>
      <use xlink:href="#DejaVuSans-5f" x="306.201172"/>
      <use xlink:href="#DejaVuSans-67" x="356.201172"/>
      <use xlink:href="#DejaVuSans-6c" x="419.677734"/>
      <use xlink:href="#DejaVuSans-6f" x="447.460938"/>
      <use xlink:href="#DejaVuSans-62" x="508.642578"/>
      <use xlink:href="#DejaVuSans-61" x="572.119141"/>
      <use xlink:href="#DejaVuSans-6c" x="633.398438"/>
     </g>
    </g>
   </g>
  </g>
 </g>
 <defs>
  <clipPath id="p96a0ce76c2">
   <rect x="54.3375" y="69.12" width="336.8925" height="443.52"/>
  </clipPath>
 </defs>
</svg>
