<?xml version="1.0" encoding="utf-8" standalone="no"?>
<!DOCTYPE svg PUBLIC "-//W3C//DTD SVG 1.1//EN"
  "http://www.w3.org/Graphics/SVG/1.1/DTD/svg11.dtd">
<svg xmlns:xlink="http://www.w3.org/1999/xlink" width="434.7pt" height="576pt" viewBox="0 0 434.7 576" xmlns="http://www.w3.org/2000/svg" version="1.1">
 <metadata>
  <rdf:RDF xmlns:dc="http://purl.org/dc/elements/1.1/" xmlns:cc="http://creativecommons.org/ns#" xmlns:rdf="http://www.w3.org/1999/02/22-rdf-syntax-ns#">
   <cc:Work>
    <dc:type rdf:resource="http://purl.org/dc/dcmitype/StillImage"/>
    <dc:date>2022-09-15T10:49:49.613365</dc:date>
    <dc:format>image/svg+xml</dc:format>
    <dc:creator>
     <cc:Agent>
      <dc:title>Matplotlib v3.5.3, https://matplotlib.org/</dc:title>
     </cc:Agent>
    </dc:creator>
   </cc:Work>
  </rdf:RDF>
 </metadata>
 <defs>
  <style type="text/css">*{stroke-linejoin: round; stroke-linecap: butt}</style>
 </defs>
 <g id="figure_1">
  <g id="patch_1">
   <path d="M 0 576 
L 434.7 576 
L 434.7 0 
L 0 0 
z
" style="fill: #ffffff"/>
  </g>
  <g id="axes_1">
   <g id="patch_2">
    <path d="M 54.3375 512.64 
L 391.23 512.64 
L 391.23 69.12 
L 54.3375 69.12 
z
" style="fill: #ffffff"/>
   </g>
   <g id="matplotlib.axis_1">
    <g id="xtick_1">
     <g id="line2d_1">
      <path d="M 69.650795 512.64 
L 69.650795 69.12 
" clip-path="url(#pcffe4ee879)" style="fill: none; stroke: #cccccc; stroke-width: 0.8; stroke-linecap: round"/>
     </g>
     <g id="text_1">
      <!-- 0 -->
      <g style="fill: #262626" transform="translate(69.388282 529.627249)rotate(-45)scale(0.088 -0.088)">
       <defs>
        <path id="DejaVuSans-30" d="M 2034 4250 
Q 1547 4250 1301 3770 
Q 1056 3291 1056 2328 
Q 1056 1369 1301 889 
Q 1547 409 2034 409 
Q 2525 409 2770 889 
Q 3016 1369 3016 2328 
Q 3016 3291 2770 3770 
Q 2525 4250 2034 4250 
z
M 2034 4750 
Q 2819 4750 3233 4129 
Q 3647 3509 3647 2328 
Q 3647 1150 3233 529 
Q 2819 -91 2034 -91 
Q 1250 -91 836 529 
Q 422 1150 422 2328 
Q 422 3509 836 4129 
Q 1250 4750 2034 4750 
z
" transform="scale(0.015625)"/>
       </defs>
       <use xlink:href="#DejaVuSans-30"/>
      </g>
     </g>
    </g>
    <g id="xtick_2">
     <g id="line2d_2">
      <path d="M 86.677392 512.64 
L 86.677392 69.12 
" clip-path="url(#pcffe4ee879)" style="fill: none; stroke: #cccccc; stroke-width: 0.8; stroke-linecap: round"/>
     </g>
     <g id="text_2">
      <!-- 80 -->
      <g style="fill: #262626" transform="translate(84.435333 533.58634)rotate(-45)scale(0.088 -0.088)">
       <defs>
        <path id="DejaVuSans-38" d="M 2034 2216 
Q 1584 2216 1326 1975 
Q 1069 1734 1069 1313 
Q 1069 891 1326 650 
Q 1584 409 2034 409 
Q 2484 409 2743 651 
Q 3003 894 3003 1313 
Q 3003 1734 2745 1975 
Q 2488 2216 2034 2216 
z
M 1403 2484 
Q 997 2584 770 2862 
Q 544 3141 544 3541 
Q 544 4100 942 4425 
Q 1341 4750 2034 4750 
Q 2731 4750 3128 4425 
Q 3525 4100 3525 3541 
Q 3525 3141 3298 2862 
Q 3072 2584 2669 2484 
Q 3125 2378 3379 2068 
Q 3634 1759 3634 1313 
Q 3634 634 3220 271 
Q 2806 -91 2034 -91 
Q 1263 -91 848 271 
Q 434 634 434 1313 
Q 434 1759 690 2068 
Q 947 2378 1403 2484 
z
M 1172 3481 
Q 1172 3119 1398 2916 
Q 1625 2713 2034 2713 
Q 2441 2713 2670 2916 
Q 2900 3119 2900 3481 
Q 2900 3844 2670 4047 
Q 2441 4250 2034 4250 
Q 1625 4250 1398 4047 
Q 1172 3844 1172 3481 
z
" transform="scale(0.015625)"/>
       </defs>
       <use xlink:href="#DejaVuSans-38"/>
       <use xlink:href="#DejaVuSans-30" x="63.623047"/>
      </g>
     </g>
    </g>
    <g id="xtick_3">
     <g id="line2d_3">
      <path d="M 103.703989 512.64 
L 103.703989 69.12 
" clip-path="url(#pcffe4ee879)" style="fill: none; stroke: #cccccc; stroke-width: 0.8; stroke-linecap: round"/>
     </g>
     <g id="text_3">
      <!-- 160 -->
      <g style="fill: #262626" transform="translate(99.482385 537.54543)rotate(-45)scale(0.088 -0.088)">
       <defs>
        <path id="DejaVuSans-31" d="M 794 531 
L 1825 531 
L 1825 4091 
L 703 3866 
L 703 4441 
L 1819 4666 
L 2450 4666 
L 2450 531 
L 3481 531 
L 3481 0 
L 794 0 
L 794 531 
z
" transform="scale(0.015625)"/>
        <path id="DejaVuSans-36" d="M 2113 2584 
Q 1688 2584 1439 2293 
Q 1191 2003 1191 1497 
Q 1191 994 1439 701 
Q 1688 409 2113 409 
Q 2538 409 2786 701 
Q 3034 994 3034 1497 
Q 3034 2003 2786 2293 
Q 2538 2584 2113 2584 
z
M 3366 4563 
L 3366 3988 
Q 3128 4100 2886 4159 
Q 2644 4219 2406 4219 
Q 1781 4219 1451 3797 
Q 1122 3375 1075 2522 
Q 1259 2794 1537 2939 
Q 1816 3084 2150 3084 
Q 2853 3084 3261 2657 
Q 3669 2231 3669 1497 
Q 3669 778 3244 343 
Q 2819 -91 2113 -91 
Q 1303 -91 875 529 
Q 447 1150 447 2328 
Q 447 3434 972 4092 
Q 1497 4750 2381 4750 
Q 2619 4750 2861 4703 
Q 3103 4656 3366 4563 
z
" transform="scale(0.015625)"/>
       </defs>
       <use xlink:href="#DejaVuSans-31"/>
       <use xlink:href="#DejaVuSans-36" x="63.623047"/>
       <use xlink:href="#DejaVuSans-30" x="127.246094"/>
      </g>
     </g>
    </g>
    <g id="xtick_4">
     <g id="line2d_4">
      <path d="M 120.730586 512.64 
L 120.730586 69.12 
" clip-path="url(#pcffe4ee879)" style="fill: none; stroke: #cccccc; stroke-width: 0.8; stroke-linecap: round"/>
     </g>
     <g id="text_4">
      <!-- 240 -->
      <g style="fill: #262626" transform="translate(116.508981 537.54543)rotate(-45)scale(0.088 -0.088)">
       <defs>
        <path id="DejaVuSans-32" d="M 1228 531 
L 3431 531 
L 3431 0 
L 469 0 
L 469 531 
Q 828 903 1448 1529 
Q 2069 2156 2228 2338 
Q 2531 2678 2651 2914 
Q 2772 3150 2772 3378 
Q 2772 3750 2511 3984 
Q 2250 4219 1831 4219 
Q 1534 4219 1204 4116 
Q 875 4013 500 3803 
L 500 4441 
Q 881 4594 1212 4672 
Q 1544 4750 1819 4750 
Q 2544 4750 2975 4387 
Q 3406 4025 3406 3419 
Q 3406 3131 3298 2873 
Q 3191 2616 2906 2266 
Q 2828 2175 2409 1742 
Q 1991 1309 1228 531 
z
" transform="scale(0.015625)"/>
        <path id="DejaVuSans-34" d="M 2419 4116 
L 825 1625 
L 2419 1625 
L 2419 4116 
z
M 2253 4666 
L 3047 4666 
L 3047 1625 
L 3713 1625 
L 3713 1100 
L 3047 1100 
L 3047 0 
L 2419 0 
L 2419 1100 
L 313 1100 
L 313 1709 
L 2253 4666 
z
" transform="scale(0.015625)"/>
       </defs>
       <use xlink:href="#DejaVuSans-32"/>
       <use xlink:href="#DejaVuSans-34" x="63.623047"/>
       <use xlink:href="#DejaVuSans-30" x="127.246094"/>
      </g>
     </g>
    </g>
    <g id="xtick_5">
     <g id="line2d_5">
      <path d="M 137.757182 512.64 
L 137.757182 69.12 
" clip-path="url(#pcffe4ee879)" style="fill: none; stroke: #cccccc; stroke-width: 0.8; stroke-linecap: round"/>
     </g>
     <g id="text_5">
      <!-- 320 -->
      <g style="fill: #262626" transform="translate(133.535578 537.54543)rotate(-45)scale(0.088 -0.088)">
       <defs>
        <path id="DejaVuSans-33" d="M 2597 2516 
Q 3050 2419 3304 2112 
Q 3559 1806 3559 1356 
Q 3559 666 3084 287 
Q 2609 -91 1734 -91 
Q 1441 -91 1130 -33 
Q 819 25 488 141 
L 488 750 
Q 750 597 1062 519 
Q 1375 441 1716 441 
Q 2309 441 2620 675 
Q 2931 909 2931 1356 
Q 2931 1769 2642 2001 
Q 2353 2234 1838 2234 
L 1294 2234 
L 1294 2753 
L 1863 2753 
Q 2328 2753 2575 2939 
Q 2822 3125 2822 3475 
Q 2822 3834 2567 4026 
Q 2313 4219 1838 4219 
Q 1578 4219 1281 4162 
Q 984 4106 628 3988 
L 628 4550 
Q 988 4650 1302 4700 
Q 1616 4750 1894 4750 
Q 2613 4750 3031 4423 
Q 3450 4097 3450 3541 
Q 3450 3153 3228 2886 
Q 3006 2619 2597 2516 
z
" transform="scale(0.015625)"/>
       </defs>
       <use xlink:href="#DejaVuSans-33"/>
       <use xlink:href="#DejaVuSans-32" x="63.623047"/>
       <use xlink:href="#DejaVuSans-30" x="127.246094"/>
      </g>
     </g>
    </g>
    <g id="xtick_6">
     <g id="line2d_6">
      <path d="M 154.783779 512.64 
L 154.783779 69.12 
" clip-path="url(#pcffe4ee879)" style="fill: none; stroke: #cccccc; stroke-width: 0.8; stroke-linecap: round"/>
     </g>
     <g id="text_6">
      <!-- 400 -->
      <g style="fill: #262626" transform="translate(150.562175 537.54543)rotate(-45)scale(0.088 -0.088)">
       <use xlink:href="#DejaVuSans-34"/>
       <use xlink:href="#DejaVuSans-30" x="63.623047"/>
       <use xlink:href="#DejaVuSans-30" x="127.246094"/>
      </g>
     </g>
    </g>
    <g id="xtick_7">
     <g id="line2d_7">
      <path d="M 171.810376 512.64 
L 171.810376 69.12 
" clip-path="url(#pcffe4ee879)" style="fill: none; stroke: #cccccc; stroke-width: 0.8; stroke-linecap: round"/>
     </g>
     <g id="text_7">
      <!-- 480 -->
      <g style="fill: #262626" transform="translate(167.588772 537.54543)rotate(-45)scale(0.088 -0.088)">
       <use xlink:href="#DejaVuSans-34"/>
       <use xlink:href="#DejaVuSans-38" x="63.623047"/>
       <use xlink:href="#DejaVuSans-30" x="127.246094"/>
      </g>
     </g>
    </g>
    <g id="xtick_8">
     <g id="line2d_8">
      <path d="M 188.836973 512.64 
L 188.836973 69.12 
" clip-path="url(#pcffe4ee879)" style="fill: none; stroke: #cccccc; stroke-width: 0.8; stroke-linecap: round"/>
     </g>
     <g id="text_8">
      <!-- 560 -->
      <g style="fill: #262626" transform="translate(184.615368 537.54543)rotate(-45)scale(0.088 -0.088)">
       <defs>
        <path id="DejaVuSans-35" d="M 691 4666 
L 3169 4666 
L 3169 4134 
L 1269 4134 
L 1269 2991 
Q 1406 3038 1543 3061 
Q 1681 3084 1819 3084 
Q 2600 3084 3056 2656 
Q 3513 2228 3513 1497 
Q 3513 744 3044 326 
Q 2575 -91 1722 -91 
Q 1428 -91 1123 -41 
Q 819 9 494 109 
L 494 744 
Q 775 591 1075 516 
Q 1375 441 1709 441 
Q 2250 441 2565 725 
Q 2881 1009 2881 1497 
Q 2881 1984 2565 2268 
Q 2250 2553 1709 2553 
Q 1456 2553 1204 2497 
Q 953 2441 691 2322 
L 691 4666 
z
" transform="scale(0.015625)"/>
       </defs>
       <use xlink:href="#DejaVuSans-35"/>
       <use xlink:href="#DejaVuSans-36" x="63.623047"/>
       <use xlink:href="#DejaVuSans-30" x="127.246094"/>
      </g>
     </g>
    </g>
    <g id="xtick_9">
     <g id="line2d_9">
      <path d="M 205.863569 512.64 
L 205.863569 69.12 
" clip-path="url(#pcffe4ee879)" style="fill: none; stroke: #cccccc; stroke-width: 0.8; stroke-linecap: round"/>
     </g>
     <g id="text_9">
      <!-- 640 -->
      <g style="fill: #262626" transform="translate(201.641965 537.54543)rotate(-45)scale(0.088 -0.088)">
       <use xlink:href="#DejaVuSans-36"/>
       <use xlink:href="#DejaVuSans-34" x="63.623047"/>
       <use xlink:href="#DejaVuSans-30" x="127.246094"/>
      </g>
     </g>
    </g>
    <g id="xtick_10">
     <g id="line2d_10">
      <path d="M 222.890166 512.64 
L 222.890166 69.12 
" clip-path="url(#pcffe4ee879)" style="fill: none; stroke: #cccccc; stroke-width: 0.8; stroke-linecap: round"/>
     </g>
     <g id="text_10">
      <!-- 720 -->
      <g style="fill: #262626" transform="translate(218.668562 537.54543)rotate(-45)scale(0.088 -0.088)">
       <defs>
        <path id="DejaVuSans-37" d="M 525 4666 
L 3525 4666 
L 3525 4397 
L 1831 0 
L 1172 0 
L 2766 4134 
L 525 4134 
L 525 4666 
z
" transform="scale(0.015625)"/>
       </defs>
       <use xlink:href="#DejaVuSans-37"/>
       <use xlink:href="#DejaVuSans-32" x="63.623047"/>
       <use xlink:href="#DejaVuSans-30" x="127.246094"/>
      </g>
     </g>
    </g>
    <g id="xtick_11">
     <g id="line2d_11">
      <path d="M 239.916763 512.64 
L 239.916763 69.12 
" clip-path="url(#pcffe4ee879)" style="fill: none; stroke: #cccccc; stroke-width: 0.8; stroke-linecap: round"/>
     </g>
     <g id="text_11">
      <!-- 800 -->
      <g style="fill: #262626" transform="translate(235.695159 537.54543)rotate(-45)scale(0.088 -0.088)">
       <use xlink:href="#DejaVuSans-38"/>
       <use xlink:href="#DejaVuSans-30" x="63.623047"/>
       <use xlink:href="#DejaVuSans-30" x="127.246094"/>
      </g>
     </g>
    </g>
    <g id="xtick_12">
     <g id="line2d_12">
      <path d="M 256.94336 512.64 
L 256.94336 69.12 
" clip-path="url(#pcffe4ee879)" style="fill: none; stroke: #cccccc; stroke-width: 0.8; stroke-linecap: round"/>
     </g>
     <g id="text_12">
      <!-- 880 -->
      <g style="fill: #262626" transform="translate(252.721755 537.54543)rotate(-45)scale(0.088 -0.088)">
       <use xlink:href="#DejaVuSans-38"/>
       <use xlink:href="#DejaVuSans-38" x="63.623047"/>
       <use xlink:href="#DejaVuSans-30" x="127.246094"/>
      </g>
     </g>
    </g>
    <g id="xtick_13">
     <g id="line2d_13">
      <path d="M 273.969956 512.64 
L 273.969956 69.12 
" clip-path="url(#pcffe4ee879)" style="fill: none; stroke: #cccccc; stroke-width: 0.8; stroke-linecap: round"/>
     </g>
     <g id="text_13">
      <!-- 960 -->
      <g style="fill: #262626" transform="translate(269.748352 537.54543)rotate(-45)scale(0.088 -0.088)">
       <defs>
        <path id="DejaVuSans-39" d="M 703 97 
L 703 672 
Q 941 559 1184 500 
Q 1428 441 1663 441 
Q 2288 441 2617 861 
Q 2947 1281 2994 2138 
Q 2813 1869 2534 1725 
Q 2256 1581 1919 1581 
Q 1219 1581 811 2004 
Q 403 2428 403 3163 
Q 403 3881 828 4315 
Q 1253 4750 1959 4750 
Q 2769 4750 3195 4129 
Q 3622 3509 3622 2328 
Q 3622 1225 3098 567 
Q 2575 -91 1691 -91 
Q 1453 -91 1209 -44 
Q 966 3 703 97 
z
M 1959 2075 
Q 2384 2075 2632 2365 
Q 2881 2656 2881 3163 
Q 2881 3666 2632 3958 
Q 2384 4250 1959 4250 
Q 1534 4250 1286 3958 
Q 1038 3666 1038 3163 
Q 1038 2656 1286 2365 
Q 1534 2075 1959 2075 
z
" transform="scale(0.015625)"/>
       </defs>
       <use xlink:href="#DejaVuSans-39"/>
       <use xlink:href="#DejaVuSans-36" x="63.623047"/>
       <use xlink:href="#DejaVuSans-30" x="127.246094"/>
      </g>
     </g>
    </g>
    <g id="xtick_14">
     <g id="line2d_14">
      <path d="M 290.996553 512.64 
L 290.996553 69.12 
" clip-path="url(#pcffe4ee879)" style="fill: none; stroke: #cccccc; stroke-width: 0.8; stroke-linecap: round"/>
     </g>
     <g id="text_14">
      <!-- 1040 -->
      <g style="fill: #262626" transform="translate(284.795404 541.504521)rotate(-45)scale(0.088 -0.088)">
       <use xlink:href="#DejaVuSans-31"/>
       <use xlink:href="#DejaVuSans-30" x="63.623047"/>
       <use xlink:href="#DejaVuSans-34" x="127.246094"/>
       <use xlink:href="#DejaVuSans-30" x="190.869141"/>
      </g>
     </g>
    </g>
    <g id="xtick_15">
     <g id="line2d_15">
      <path d="M 308.02315 512.64 
L 308.02315 69.12 
" clip-path="url(#pcffe4ee879)" style="fill: none; stroke: #cccccc; stroke-width: 0.8; stroke-linecap: round"/>
     </g>
     <g id="text_15">
      <!-- 1120 -->
      <g style="fill: #262626" transform="translate(301.822 541.504521)rotate(-45)scale(0.088 -0.088)">
       <use xlink:href="#DejaVuSans-31"/>
       <use xlink:href="#DejaVuSans-31" x="63.623047"/>
       <use xlink:href="#DejaVuSans-32" x="127.246094"/>
       <use xlink:href="#DejaVuSans-30" x="190.869141"/>
      </g>
     </g>
    </g>
    <g id="xtick_16">
     <g id="line2d_16">
      <path d="M 325.049747 512.64 
L 325.049747 69.12 
" clip-path="url(#pcffe4ee879)" style="fill: none; stroke: #cccccc; stroke-width: 0.8; stroke-linecap: round"/>
     </g>
     <g id="text_16">
      <!-- 1200 -->
      <g style="fill: #262626" transform="translate(318.848597 541.504521)rotate(-45)scale(0.088 -0.088)">
       <use xlink:href="#DejaVuSans-31"/>
       <use xlink:href="#DejaVuSans-32" x="63.623047"/>
       <use xlink:href="#DejaVuSans-30" x="127.246094"/>
       <use xlink:href="#DejaVuSans-30" x="190.869141"/>
      </g>
     </g>
    </g>
    <g id="xtick_17">
     <g id="line2d_17">
      <path d="M 342.076343 512.64 
L 342.076343 69.12 
" clip-path="url(#pcffe4ee879)" style="fill: none; stroke: #cccccc; stroke-width: 0.8; stroke-linecap: round"/>
     </g>
     <g id="text_17">
      <!-- 1280 -->
      <g style="fill: #262626" transform="translate(335.875194 541.504521)rotate(-45)scale(0.088 -0.088)">
       <use xlink:href="#DejaVuSans-31"/>
       <use xlink:href="#DejaVuSans-32" x="63.623047"/>
       <use xlink:href="#DejaVuSans-38" x="127.246094"/>
       <use xlink:href="#DejaVuSans-30" x="190.869141"/>
      </g>
     </g>
    </g>
    <g id="xtick_18">
     <g id="line2d_18">
      <path d="M 359.10294 512.64 
L 359.10294 69.12 
" clip-path="url(#pcffe4ee879)" style="fill: none; stroke: #cccccc; stroke-width: 0.8; stroke-linecap: round"/>
     </g>
     <g id="text_18">
      <!-- 1360 -->
      <g style="fill: #262626" transform="translate(352.901791 541.504521)rotate(-45)scale(0.088 -0.088)">
       <use xlink:href="#DejaVuSans-31"/>
       <use xlink:href="#DejaVuSans-33" x="63.623047"/>
       <use xlink:href="#DejaVuSans-36" x="127.246094"/>
       <use xlink:href="#DejaVuSans-30" x="190.869141"/>
      </g>
     </g>
    </g>
    <g id="xtick_19">
     <g id="line2d_19">
      <path d="M 376.129537 512.64 
L 376.129537 69.12 
" clip-path="url(#pcffe4ee879)" style="fill: none; stroke: #cccccc; stroke-width: 0.8; stroke-linecap: round"/>
     </g>
     <g id="text_19">
      <!-- 1440 -->
      <g style="fill: #262626" transform="translate(369.928387 541.504521)rotate(-45)scale(0.088 -0.088)">
       <use xlink:href="#DejaVuSans-31"/>
       <use xlink:href="#DejaVuSans-34" x="63.623047"/>
       <use xlink:href="#DejaVuSans-34" x="127.246094"/>
       <use xlink:href="#DejaVuSans-30" x="190.869141"/>
      </g>
     </g>
    </g>
    <g id="text_20">
     <!-- Time (Minutes) -->
     <g style="fill: #262626" transform="translate(186.87375 554.093115)scale(0.096 -0.096)">
      <defs>
       <path id="DejaVuSans-54" d="M -19 4666 
L 3928 4666 
L 3928 4134 
L 2272 4134 
L 2272 0 
L 1638 0 
L 1638 4134 
L -19 4134 
L -19 4666 
z
" transform="scale(0.015625)"/>
       <path id="DejaVuSans-69" d="M 603 3500 
L 1178 3500 
L 1178 0 
L 603 0 
L 603 3500 
z
M 603 4863 
L 1178 4863 
L 1178 4134 
L 603 4134 
L 603 4863 
z
" transform="scale(0.015625)"/>
       <path id="DejaVuSans-6d" d="M 3328 2828 
Q 3544 3216 3844 3400 
Q 4144 3584 4550 3584 
Q 5097 3584 5394 3201 
Q 5691 2819 5691 2113 
L 5691 0 
L 5113 0 
L 5113 2094 
Q 5113 2597 4934 2840 
Q 4756 3084 4391 3084 
Q 3944 3084 3684 2787 
Q 3425 2491 3425 1978 
L 3425 0 
L 2847 0 
L 2847 2094 
Q 2847 2600 2669 2842 
Q 2491 3084 2119 3084 
Q 1678 3084 1418 2786 
Q 1159 2488 1159 1978 
L 1159 0 
L 581 0 
L 581 3500 
L 1159 3500 
L 1159 2956 
Q 1356 3278 1631 3431 
Q 1906 3584 2284 3584 
Q 2666 3584 2933 3390 
Q 3200 3197 3328 2828 
z
" transform="scale(0.015625)"/>
       <path id="DejaVuSans-65" d="M 3597 1894 
L 3597 1613 
L 953 1613 
Q 991 1019 1311 708 
Q 1631 397 2203 397 
Q 2534 397 2845 478 
Q 3156 559 3463 722 
L 3463 178 
Q 3153 47 2828 -22 
Q 2503 -91 2169 -91 
Q 1331 -91 842 396 
Q 353 884 353 1716 
Q 353 2575 817 3079 
Q 1281 3584 2069 3584 
Q 2775 3584 3186 3129 
Q 3597 2675 3597 1894 
z
M 3022 2063 
Q 3016 2534 2758 2815 
Q 2500 3097 2075 3097 
Q 1594 3097 1305 2825 
Q 1016 2553 972 2059 
L 3022 2063 
z
" transform="scale(0.015625)"/>
       <path id="DejaVuSans-20" transform="scale(0.015625)"/>
       <path id="DejaVuSans-28" d="M 1984 4856 
Q 1566 4138 1362 3434 
Q 1159 2731 1159 2009 
Q 1159 1288 1364 580 
Q 1569 -128 1984 -844 
L 1484 -844 
Q 1016 -109 783 600 
Q 550 1309 550 2009 
Q 550 2706 781 3412 
Q 1013 4119 1484 4856 
L 1984 4856 
z
" transform="scale(0.015625)"/>
       <path id="DejaVuSans-4d" d="M 628 4666 
L 1569 4666 
L 2759 1491 
L 3956 4666 
L 4897 4666 
L 4897 0 
L 4281 0 
L 4281 4097 
L 3078 897 
L 2444 897 
L 1241 4097 
L 1241 0 
L 628 0 
L 628 4666 
z
" transform="scale(0.015625)"/>
       <path id="DejaVuSans-6e" d="M 3513 2113 
L 3513 0 
L 2938 0 
L 2938 2094 
Q 2938 2591 2744 2837 
Q 2550 3084 2163 3084 
Q 1697 3084 1428 2787 
Q 1159 2491 1159 1978 
L 1159 0 
L 581 0 
L 581 3500 
L 1159 3500 
L 1159 2956 
Q 1366 3272 1645 3428 
Q 1925 3584 2291 3584 
Q 2894 3584 3203 3211 
Q 3513 2838 3513 2113 
z
" transform="scale(0.015625)"/>
       <path id="DejaVuSans-75" d="M 544 1381 
L 544 3500 
L 1119 3500 
L 1119 1403 
Q 1119 906 1312 657 
Q 1506 409 1894 409 
Q 2359 409 2629 706 
Q 2900 1003 2900 1516 
L 2900 3500 
L 3475 3500 
L 3475 0 
L 2900 0 
L 2900 538 
Q 2691 219 2414 64 
Q 2138 -91 1772 -91 
Q 1169 -91 856 284 
Q 544 659 544 1381 
z
M 1991 3584 
L 1991 3584 
z
" transform="scale(0.015625)"/>
       <path id="DejaVuSans-74" d="M 1172 4494 
L 1172 3500 
L 2356 3500 
L 2356 3053 
L 1172 3053 
L 1172 1153 
Q 1172 725 1289 603 
Q 1406 481 1766 481 
L 2356 481 
L 2356 0 
L 1766 0 
Q 1100 0 847 248 
Q 594 497 594 1153 
L 594 3053 
L 172 3053 
L 172 3500 
L 594 3500 
L 594 4494 
L 1172 4494 
z
" transform="scale(0.015625)"/>
       <path id="DejaVuSans-73" d="M 2834 3397 
L 2834 2853 
Q 2591 2978 2328 3040 
Q 2066 3103 1784 3103 
Q 1356 3103 1142 2972 
Q 928 2841 928 2578 
Q 928 2378 1081 2264 
Q 1234 2150 1697 2047 
L 1894 2003 
Q 2506 1872 2764 1633 
Q 3022 1394 3022 966 
Q 3022 478 2636 193 
Q 2250 -91 1575 -91 
Q 1294 -91 989 -36 
Q 684 19 347 128 
L 347 722 
Q 666 556 975 473 
Q 1284 391 1588 391 
Q 1994 391 2212 530 
Q 2431 669 2431 922 
Q 2431 1156 2273 1281 
Q 2116 1406 1581 1522 
L 1381 1569 
Q 847 1681 609 1914 
Q 372 2147 372 2553 
Q 372 3047 722 3315 
Q 1072 3584 1716 3584 
Q 2034 3584 2315 3537 
Q 2597 3491 2834 3397 
z
" transform="scale(0.015625)"/>
       <path id="DejaVuSans-29" d="M 513 4856 
L 1013 4856 
Q 1481 4119 1714 3412 
Q 1947 2706 1947 2009 
Q 1947 1309 1714 600 
Q 1481 -109 1013 -844 
L 513 -844 
Q 928 -128 1133 580 
Q 1338 1288 1338 2009 
Q 1338 2731 1133 3434 
Q 928 4138 513 4856 
z
" transform="scale(0.015625)"/>
      </defs>
      <use xlink:href="#DejaVuSans-54"/>
      <use xlink:href="#DejaVuSans-69" x="57.958984"/>
      <use xlink:href="#DejaVuSans-6d" x="85.742188"/>
      <use xlink:href="#DejaVuSans-65" x="183.154297"/>
      <use xlink:href="#DejaVuSans-20" x="244.677734"/>
      <use xlink:href="#DejaVuSans-28" x="276.464844"/>
      <use xlink:href="#DejaVuSans-4d" x="315.478516"/>
      <use xlink:href="#DejaVuSans-69" x="401.757812"/>
      <use xlink:href="#DejaVuSans-6e" x="429.541016"/>
      <use xlink:href="#DejaVuSans-75" x="492.919922"/>
      <use xlink:href="#DejaVuSans-74" x="556.298828"/>
      <use xlink:href="#DejaVuSans-65" x="595.507812"/>
      <use xlink:href="#DejaVuSans-73" x="657.03125"/>
      <use xlink:href="#DejaVuSans-29" x="709.130859"/>
     </g>
    </g>
   </g>
   <g id="matplotlib.axis_2">
    <g id="ytick_1">
     <g id="line2d_20">
      <path d="M 54.3375 492.48 
L 391.23 492.48 
" clip-path="url(#pcffe4ee879)" style="fill: none; stroke: #cccccc; stroke-width: 0.8; stroke-linecap: round"/>
     </g>
     <g id="text_21">
      <!-- 0 -->
      <g style="fill: #262626" transform="translate(40.4385 495.823312)scale(0.088 -0.088)">
       <use xlink:href="#DejaVuSans-30"/>
      </g>
     </g>
    </g>
    <g id="ytick_2">
     <g id="line2d_21">
      <path d="M 54.3375 470.673618 
L 391.23 470.673618 
" clip-path="url(#pcffe4ee879)" style="fill: none; stroke: #cccccc; stroke-width: 0.8; stroke-linecap: round"/>
     </g>
     <g id="text_22">
      <!-- 100 -->
      <g style="fill: #262626" transform="translate(29.2405 474.016931)scale(0.088 -0.088)">
       <use xlink:href="#DejaVuSans-31"/>
       <use xlink:href="#DejaVuSans-30" x="63.623047"/>
       <use xlink:href="#DejaVuSans-30" x="127.246094"/>
      </g>
     </g>
    </g>
    <g id="ytick_3">
     <g id="line2d_22">
      <path d="M 54.3375 448.867236 
L 391.23 448.867236 
" clip-path="url(#pcffe4ee879)" style="fill: none; stroke: #cccccc; stroke-width: 0.8; stroke-linecap: round"/>
     </g>
     <g id="text_23">
      <!-- 200 -->
      <g style="fill: #262626" transform="translate(29.2405 452.210549)scale(0.088 -0.088)">
       <use xlink:href="#DejaVuSans-32"/>
       <use xlink:href="#DejaVuSans-30" x="63.623047"/>
       <use xlink:href="#DejaVuSans-30" x="127.246094"/>
      </g>
     </g>
    </g>
    <g id="ytick_4">
     <g id="line2d_23">
      <path d="M 54.3375 427.060855 
L 391.23 427.060855 
" clip-path="url(#pcffe4ee879)" style="fill: none; stroke: #cccccc; stroke-width: 0.8; stroke-linecap: round"/>
     </g>
     <g id="text_24">
      <!-- 300 -->
      <g style="fill: #262626" transform="translate(29.2405 430.404167)scale(0.088 -0.088)">
       <use xlink:href="#DejaVuSans-33"/>
       <use xlink:href="#DejaVuSans-30" x="63.623047"/>
       <use xlink:href="#DejaVuSans-30" x="127.246094"/>
      </g>
     </g>
    </g>
    <g id="ytick_5">
     <g id="line2d_24">
      <path d="M 54.3375 405.254473 
L 391.23 405.254473 
" clip-path="url(#pcffe4ee879)" style="fill: none; stroke: #cccccc; stroke-width: 0.8; stroke-linecap: round"/>
     </g>
     <g id="text_25">
      <!-- 400 -->
      <g style="fill: #262626" transform="translate(29.2405 408.597785)scale(0.088 -0.088)">
       <use xlink:href="#DejaVuSans-34"/>
       <use xlink:href="#DejaVuSans-30" x="63.623047"/>
       <use xlink:href="#DejaVuSans-30" x="127.246094"/>
      </g>
     </g>
    </g>
    <g id="ytick_6">
     <g id="line2d_25">
      <path d="M 54.3375 383.448091 
L 391.23 383.448091 
" clip-path="url(#pcffe4ee879)" style="fill: none; stroke: #cccccc; stroke-width: 0.8; stroke-linecap: round"/>
     </g>
     <g id="text_26">
      <!-- 500 -->
      <g style="fill: #262626" transform="translate(29.2405 386.791403)scale(0.088 -0.088)">
       <use xlink:href="#DejaVuSans-35"/>
       <use xlink:href="#DejaVuSans-30" x="63.623047"/>
       <use xlink:href="#DejaVuSans-30" x="127.246094"/>
      </g>
     </g>
    </g>
    <g id="ytick_7">
     <g id="line2d_26">
      <path d="M 54.3375 361.641709 
L 391.23 361.641709 
" clip-path="url(#pcffe4ee879)" style="fill: none; stroke: #cccccc; stroke-width: 0.8; stroke-linecap: round"/>
     </g>
     <g id="text_27">
      <!-- 600 -->
      <g style="fill: #262626" transform="translate(29.2405 364.985022)scale(0.088 -0.088)">
       <use xlink:href="#DejaVuSans-36"/>
       <use xlink:href="#DejaVuSans-30" x="63.623047"/>
       <use xlink:href="#DejaVuSans-30" x="127.246094"/>
      </g>
     </g>
    </g>
    <g id="ytick_8">
     <g id="line2d_27">
      <path d="M 54.3375 339.835327 
L 391.23 339.835327 
" clip-path="url(#pcffe4ee879)" style="fill: none; stroke: #cccccc; stroke-width: 0.8; stroke-linecap: round"/>
     </g>
     <g id="text_28">
      <!-- 700 -->
      <g style="fill: #262626" transform="translate(29.2405 343.17864)scale(0.088 -0.088)">
       <use xlink:href="#DejaVuSans-37"/>
       <use xlink:href="#DejaVuSans-30" x="63.623047"/>
       <use xlink:href="#DejaVuSans-30" x="127.246094"/>
      </g>
     </g>
    </g>
    <g id="ytick_9">
     <g id="line2d_28">
      <path d="M 54.3375 318.028945 
L 391.23 318.028945 
" clip-path="url(#pcffe4ee879)" style="fill: none; stroke: #cccccc; stroke-width: 0.8; stroke-linecap: round"/>
     </g>
     <g id="text_29">
      <!-- 800 -->
      <g style="fill: #262626" transform="translate(29.2405 321.372258)scale(0.088 -0.088)">
       <use xlink:href="#DejaVuSans-38"/>
       <use xlink:href="#DejaVuSans-30" x="63.623047"/>
       <use xlink:href="#DejaVuSans-30" x="127.246094"/>
      </g>
     </g>
    </g>
    <g id="ytick_10">
     <g id="line2d_29">
      <path d="M 54.3375 296.222564 
L 391.23 296.222564 
" clip-path="url(#pcffe4ee879)" style="fill: none; stroke: #cccccc; stroke-width: 0.8; stroke-linecap: round"/>
     </g>
     <g id="text_30">
      <!-- 900 -->
      <g style="fill: #262626" transform="translate(29.2405 299.565876)scale(0.088 -0.088)">
       <use xlink:href="#DejaVuSans-39"/>
       <use xlink:href="#DejaVuSans-30" x="63.623047"/>
       <use xlink:href="#DejaVuSans-30" x="127.246094"/>
      </g>
     </g>
    </g>
    <g id="ytick_11">
     <g id="line2d_30">
      <path d="M 54.3375 274.416182 
L 391.23 274.416182 
" clip-path="url(#pcffe4ee879)" style="fill: none; stroke: #cccccc; stroke-width: 0.8; stroke-linecap: round"/>
     </g>
     <g id="text_31">
      <!-- 1000 -->
      <g style="fill: #262626" transform="translate(23.6415 277.759494)scale(0.088 -0.088)">
       <use xlink:href="#DejaVuSans-31"/>
       <use xlink:href="#DejaVuSans-30" x="63.623047"/>
       <use xlink:href="#DejaVuSans-30" x="127.246094"/>
       <use xlink:href="#DejaVuSans-30" x="190.869141"/>
      </g>
     </g>
    </g>
    <g id="ytick_12">
     <g id="line2d_31">
      <path d="M 54.3375 252.6098 
L 391.23 252.6098 
" clip-path="url(#pcffe4ee879)" style="fill: none; stroke: #cccccc; stroke-width: 0.8; stroke-linecap: round"/>
     </g>
     <g id="text_32">
      <!-- 1100 -->
      <g style="fill: #262626" transform="translate(23.6415 255.953112)scale(0.088 -0.088)">
       <use xlink:href="#DejaVuSans-31"/>
       <use xlink:href="#DejaVuSans-31" x="63.623047"/>
       <use xlink:href="#DejaVuSans-30" x="127.246094"/>
       <use xlink:href="#DejaVuSans-30" x="190.869141"/>
      </g>
     </g>
    </g>
    <g id="ytick_13">
     <g id="line2d_32">
      <path d="M 54.3375 230.803418 
L 391.23 230.803418 
" clip-path="url(#pcffe4ee879)" style="fill: none; stroke: #cccccc; stroke-width: 0.8; stroke-linecap: round"/>
     </g>
     <g id="text_33">
      <!-- 1200 -->
      <g style="fill: #262626" transform="translate(23.6415 234.146731)scale(0.088 -0.088)">
       <use xlink:href="#DejaVuSans-31"/>
       <use xlink:href="#DejaVuSans-32" x="63.623047"/>
       <use xlink:href="#DejaVuSans-30" x="127.246094"/>
       <use xlink:href="#DejaVuSans-30" x="190.869141"/>
      </g>
     </g>
    </g>
    <g id="ytick_14">
     <g id="line2d_33">
      <path d="M 54.3375 208.997036 
L 391.23 208.997036 
" clip-path="url(#pcffe4ee879)" style="fill: none; stroke: #cccccc; stroke-width: 0.8; stroke-linecap: round"/>
     </g>
     <g id="text_34">
      <!-- 1300 -->
      <g style="fill: #262626" transform="translate(23.6415 212.340349)scale(0.088 -0.088)">
       <use xlink:href="#DejaVuSans-31"/>
       <use xlink:href="#DejaVuSans-33" x="63.623047"/>
       <use xlink:href="#DejaVuSans-30" x="127.246094"/>
       <use xlink:href="#DejaVuSans-30" x="190.869141"/>
      </g>
     </g>
    </g>
    <g id="ytick_15">
     <g id="line2d_34">
      <path d="M 54.3375 187.190654 
L 391.23 187.190654 
" clip-path="url(#pcffe4ee879)" style="fill: none; stroke: #cccccc; stroke-width: 0.8; stroke-linecap: round"/>
     </g>
     <g id="text_35">
      <!-- 1400 -->
      <g style="fill: #262626" transform="translate(23.6415 190.533967)scale(0.088 -0.088)">
       <use xlink:href="#DejaVuSans-31"/>
       <use xlink:href="#DejaVuSans-34" x="63.623047"/>
       <use xlink:href="#DejaVuSans-30" x="127.246094"/>
       <use xlink:href="#DejaVuSans-30" x="190.869141"/>
      </g>
     </g>
    </g>
    <g id="ytick_16">
     <g id="line2d_35">
      <path d="M 54.3375 165.384273 
L 391.23 165.384273 
" clip-path="url(#pcffe4ee879)" style="fill: none; stroke: #cccccc; stroke-width: 0.8; stroke-linecap: round"/>
     </g>
     <g id="text_36">
      <!-- 1500 -->
      <g style="fill: #262626" transform="translate(23.6415 168.727585)scale(0.088 -0.088)">
       <use xlink:href="#DejaVuSans-31"/>
       <use xlink:href="#DejaVuSans-35" x="63.623047"/>
       <use xlink:href="#DejaVuSans-30" x="127.246094"/>
       <use xlink:href="#DejaVuSans-30" x="190.869141"/>
      </g>
     </g>
    </g>
    <g id="ytick_17">
     <g id="line2d_36">
      <path d="M 54.3375 143.577891 
L 391.23 143.577891 
" clip-path="url(#pcffe4ee879)" style="fill: none; stroke: #cccccc; stroke-width: 0.8; stroke-linecap: round"/>
     </g>
     <g id="text_37">
      <!-- 1600 -->
      <g style="fill: #262626" transform="translate(23.6415 146.921203)scale(0.088 -0.088)">
       <use xlink:href="#DejaVuSans-31"/>
       <use xlink:href="#DejaVuSans-36" x="63.623047"/>
       <use xlink:href="#DejaVuSans-30" x="127.246094"/>
       <use xlink:href="#DejaVuSans-30" x="190.869141"/>
      </g>
     </g>
    </g>
    <g id="ytick_18">
     <g id="line2d_37">
      <path d="M 54.3375 121.771509 
L 391.23 121.771509 
" clip-path="url(#pcffe4ee879)" style="fill: none; stroke: #cccccc; stroke-width: 0.8; stroke-linecap: round"/>
     </g>
     <g id="text_38">
      <!-- 1700 -->
      <g style="fill: #262626" transform="translate(23.6415 125.114821)scale(0.088 -0.088)">
       <use xlink:href="#DejaVuSans-31"/>
       <use xlink:href="#DejaVuSans-37" x="63.623047"/>
       <use xlink:href="#DejaVuSans-30" x="127.246094"/>
       <use xlink:href="#DejaVuSans-30" x="190.869141"/>
      </g>
     </g>
    </g>
    <g id="ytick_19">
     <g id="line2d_38">
      <path d="M 54.3375 99.965127 
L 391.23 99.965127 
" clip-path="url(#pcffe4ee879)" style="fill: none; stroke: #cccccc; stroke-width: 0.8; stroke-linecap: round"/>
     </g>
     <g id="text_39">
      <!-- 1800 -->
      <g style="fill: #262626" transform="translate(23.6415 103.30844)scale(0.088 -0.088)">
       <use xlink:href="#DejaVuSans-31"/>
       <use xlink:href="#DejaVuSans-38" x="63.623047"/>
       <use xlink:href="#DejaVuSans-30" x="127.246094"/>
       <use xlink:href="#DejaVuSans-30" x="190.869141"/>
      </g>
     </g>
    </g>
    <g id="text_40">
     <!-- Edge Coverages -->
     <g style="fill: #262626" transform="translate(17.645 329.98575)rotate(-90)scale(0.096 -0.096)">
      <defs>
       <path id="DejaVuSans-45" d="M 628 4666 
L 3578 4666 
L 3578 4134 
L 1259 4134 
L 1259 2753 
L 3481 2753 
L 3481 2222 
L 1259 2222 
L 1259 531 
L 3634 531 
L 3634 0 
L 628 0 
L 628 4666 
z
" transform="scale(0.015625)"/>
       <path id="DejaVuSans-64" d="M 2906 2969 
L 2906 4863 
L 3481 4863 
L 3481 0 
L 2906 0 
L 2906 525 
Q 2725 213 2448 61 
Q 2172 -91 1784 -91 
Q 1150 -91 751 415 
Q 353 922 353 1747 
Q 353 2572 751 3078 
Q 1150 3584 1784 3584 
Q 2172 3584 2448 3432 
Q 2725 3281 2906 2969 
z
M 947 1747 
Q 947 1113 1208 752 
Q 1469 391 1925 391 
Q 2381 391 2643 752 
Q 2906 1113 2906 1747 
Q 2906 2381 2643 2742 
Q 2381 3103 1925 3103 
Q 1469 3103 1208 2742 
Q 947 2381 947 1747 
z
" transform="scale(0.015625)"/>
       <path id="DejaVuSans-67" d="M 2906 1791 
Q 2906 2416 2648 2759 
Q 2391 3103 1925 3103 
Q 1463 3103 1205 2759 
Q 947 2416 947 1791 
Q 947 1169 1205 825 
Q 1463 481 1925 481 
Q 2391 481 2648 825 
Q 2906 1169 2906 1791 
z
M 3481 434 
Q 3481 -459 3084 -895 
Q 2688 -1331 1869 -1331 
Q 1566 -1331 1297 -1286 
Q 1028 -1241 775 -1147 
L 775 -588 
Q 1028 -725 1275 -790 
Q 1522 -856 1778 -856 
Q 2344 -856 2625 -561 
Q 2906 -266 2906 331 
L 2906 616 
Q 2728 306 2450 153 
Q 2172 0 1784 0 
Q 1141 0 747 490 
Q 353 981 353 1791 
Q 353 2603 747 3093 
Q 1141 3584 1784 3584 
Q 2172 3584 2450 3431 
Q 2728 3278 2906 2969 
L 2906 3500 
L 3481 3500 
L 3481 434 
z
" transform="scale(0.015625)"/>
       <path id="DejaVuSans-43" d="M 4122 4306 
L 4122 3641 
Q 3803 3938 3442 4084 
Q 3081 4231 2675 4231 
Q 1875 4231 1450 3742 
Q 1025 3253 1025 2328 
Q 1025 1406 1450 917 
Q 1875 428 2675 428 
Q 3081 428 3442 575 
Q 3803 722 4122 1019 
L 4122 359 
Q 3791 134 3420 21 
Q 3050 -91 2638 -91 
Q 1578 -91 968 557 
Q 359 1206 359 2328 
Q 359 3453 968 4101 
Q 1578 4750 2638 4750 
Q 3056 4750 3426 4639 
Q 3797 4528 4122 4306 
z
" transform="scale(0.015625)"/>
       <path id="DejaVuSans-6f" d="M 1959 3097 
Q 1497 3097 1228 2736 
Q 959 2375 959 1747 
Q 959 1119 1226 758 
Q 1494 397 1959 397 
Q 2419 397 2687 759 
Q 2956 1122 2956 1747 
Q 2956 2369 2687 2733 
Q 2419 3097 1959 3097 
z
M 1959 3584 
Q 2709 3584 3137 3096 
Q 3566 2609 3566 1747 
Q 3566 888 3137 398 
Q 2709 -91 1959 -91 
Q 1206 -91 779 398 
Q 353 888 353 1747 
Q 353 2609 779 3096 
Q 1206 3584 1959 3584 
z
" transform="scale(0.015625)"/>
       <path id="DejaVuSans-76" d="M 191 3500 
L 800 3500 
L 1894 563 
L 2988 3500 
L 3597 3500 
L 2284 0 
L 1503 0 
L 191 3500 
z
" transform="scale(0.015625)"/>
       <path id="DejaVuSans-72" d="M 2631 2963 
Q 2534 3019 2420 3045 
Q 2306 3072 2169 3072 
Q 1681 3072 1420 2755 
Q 1159 2438 1159 1844 
L 1159 0 
L 581 0 
L 581 3500 
L 1159 3500 
L 1159 2956 
Q 1341 3275 1631 3429 
Q 1922 3584 2338 3584 
Q 2397 3584 2469 3576 
Q 2541 3569 2628 3553 
L 2631 2963 
z
" transform="scale(0.015625)"/>
       <path id="DejaVuSans-61" d="M 2194 1759 
Q 1497 1759 1228 1600 
Q 959 1441 959 1056 
Q 959 750 1161 570 
Q 1363 391 1709 391 
Q 2188 391 2477 730 
Q 2766 1069 2766 1631 
L 2766 1759 
L 2194 1759 
z
M 3341 1997 
L 3341 0 
L 2766 0 
L 2766 531 
Q 2569 213 2275 61 
Q 1981 -91 1556 -91 
Q 1019 -91 701 211 
Q 384 513 384 1019 
Q 384 1609 779 1909 
Q 1175 2209 1959 2209 
L 2766 2209 
L 2766 2266 
Q 2766 2663 2505 2880 
Q 2244 3097 1772 3097 
Q 1472 3097 1187 3025 
Q 903 2953 641 2809 
L 641 3341 
Q 956 3463 1253 3523 
Q 1550 3584 1831 3584 
Q 2591 3584 2966 3190 
Q 3341 2797 3341 1997 
z
" transform="scale(0.015625)"/>
      </defs>
      <use xlink:href="#DejaVuSans-45"/>
      <use xlink:href="#DejaVuSans-64" x="63.183594"/>
      <use xlink:href="#DejaVuSans-67" x="126.660156"/>
      <use xlink:href="#DejaVuSans-65" x="190.136719"/>
      <use xlink:href="#DejaVuSans-20" x="251.660156"/>
      <use xlink:href="#DejaVuSans-43" x="283.447266"/>
      <use xlink:href="#DejaVuSans-6f" x="353.271484"/>
      <use xlink:href="#DejaVuSans-76" x="414.453125"/>
      <use xlink:href="#DejaVuSans-65" x="473.632812"/>
      <use xlink:href="#DejaVuSans-72" x="535.15625"/>
      <use xlink:href="#DejaVuSans-61" x="576.269531"/>
      <use xlink:href="#DejaVuSans-67" x="637.548828"/>
      <use xlink:href="#DejaVuSans-65" x="701.025391"/>
      <use xlink:href="#DejaVuSans-73" x="762.548828"/>
     </g>
    </g>
   </g>
   <g id="PolyCollection_1">
    <defs>
     <path id="m6c202ad8ac" d="M 69.650795 -111.650233 
L 69.650795 -83.52 
L 69.650795 -111.650233 
L 69.650795 -111.650233 
z
" style="stroke: #db5f57; stroke-opacity: 0.2; stroke-width: 0.8"/>
    </defs>
    <g clip-path="url(#pcffe4ee879)">
     <use xlink:href="#m6c202ad8ac" x="0" y="576" style="fill: #db5f57; fill-opacity: 0.2; stroke: #db5f57; stroke-opacity: 0.2; stroke-width: 0.8"/>
    </g>
   </g>
   <g id="PolyCollection_2">
    <defs>
     <path id="m6ba623bc9d" d="M 69.650795 -99.874786 
L 69.650795 -83.52 
L 69.650795 -99.874786 
L 69.650795 -99.874786 
z
" style="stroke: #b9db57; stroke-opacity: 0.2; stroke-width: 0.8"/>
    </defs>
    <g clip-path="url(#pcffe4ee879)">
     <use xlink:href="#m6ba623bc9d" x="0" y="576" style="fill: #b9db57; fill-opacity: 0.2; stroke: #b9db57; stroke-opacity: 0.2; stroke-width: 0.8"/>
    </g>
   </g>
   <g id="PolyCollection_3">
    <defs>
     <path id="m412f5fd6af" d="M 69.650795 -110.996041 
L 69.650795 -83.52 
L 69.650795 -110.996041 
L 69.650795 -110.996041 
z
" style="stroke: #57db94; stroke-opacity: 0.2; stroke-width: 0.8"/>
    </defs>
    <g clip-path="url(#pcffe4ee879)">
     <use xlink:href="#m412f5fd6af" x="0" y="576" style="fill: #57db94; fill-opacity: 0.2; stroke: #57db94; stroke-opacity: 0.2; stroke-width: 0.8"/>
    </g>
   </g>
   <g id="PolyCollection_4">
    <defs>
     <path id="m054643da1c" d="M 69.650795 -99.220595 
L 69.650795 -83.52 
L 69.650795 -99.220595 
L 69.650795 -99.220595 
z
" style="stroke: #5784db; stroke-opacity: 0.2; stroke-width: 0.8"/>
    </defs>
    <g clip-path="url(#pcffe4ee879)">
     <use xlink:href="#m054643da1c" x="0" y="576" style="fill: #5784db; fill-opacity: 0.2; stroke: #5784db; stroke-opacity: 0.2; stroke-width: 0.8"/>
    </g>
   </g>
   <g id="PolyCollection_5">
    <defs>
     <path id="m175f140677" d="M 69.650795 -118.628275 
L 69.650795 -83.52 
L 69.650795 -118.628275 
L 69.650795 -118.628275 
z
" style="stroke: #c957db; stroke-opacity: 0.2; stroke-width: 0.8"/>
    </defs>
    <g clip-path="url(#pcffe4ee879)">
     <use xlink:href="#m175f140677" x="0" y="576" style="fill: #c957db; fill-opacity: 0.2; stroke: #c957db; stroke-opacity: 0.2; stroke-width: 0.8"/>
    </g>
   </g>
   <g id="line2d_39">
    <path d="M 69.650795 478.414884 
L 70.07646 430.113748 
L 70.502125 377.560368 
L 70.714958 371.672645 
L 70.92779 359.897198 
L 71.140623 333.293413 
L 71.566288 321.73603 
L 71.77912 309.306393 
L 71.991953 306.689627 
L 72.843282 289.244521 
L 73.056115 287.718075 
L 73.268947 283.138734 
L 73.48178 274.634246 
L 73.694612 272.671671 
L 74.33311 264.821374 
L 74.758774 255.008502 
L 74.971607 252.6098 
L 75.184439 251.737545 
L 75.397272 248.248524 
L 76.248602 245.19563 
L 76.461434 244.541439 
L 76.887099 242.578864 
L 77.312764 240.61629 
L 77.525596 240.180162 
L 77.738429 235.818886 
L 77.951261 234.292439 
L 78.164094 233.638248 
L 78.376926 233.638248 
L 78.589759 231.021482 
L 79.015424 229.058908 
L 79.441089 225.133759 
L 79.866754 222.735057 
L 80.079586 222.516993 
L 80.292418 220.772482 
L 80.505251 220.336355 
L 80.718083 220.336355 
L 80.930916 219.900227 
L 81.143748 219.027972 
L 81.782246 219.027972 
L 81.995078 215.975078 
L 82.207911 214.884759 
L 82.420743 212.922185 
L 82.633575 212.267994 
L 82.846408 212.04993 
L 83.272073 209.651228 
L 83.697738 209.2151 
L 83.91057 208.560909 
L 84.123403 208.342845 
L 84.549068 206.38027 
L 84.7619 205.289951 
L 84.974733 205.071888 
L 85.187565 204.417696 
L 85.400397 204.199632 
L 85.61323 203.763505 
L 86.038895 203.763505 
L 86.251727 201.80093 
L 86.46456 201.582866 
L 86.677392 201.582866 
L 86.890225 200.274484 
L 87.103057 200.05642 
L 87.31589 198.093845 
L 87.528722 198.093845 
L 88.167219 197.003526 
L 89.018549 196.131271 
L 89.444214 196.131271 
L 89.657047 195.47708 
L 89.869879 194.38676 
L 90.082712 194.38676 
L 90.295544 194.168697 
L 90.508376 192.860314 
L 90.934041 192.206122 
L 91.359706 191.769995 
L 91.572539 191.769995 
L 91.785371 191.333867 
L 92.211036 191.333867 
L 92.423869 190.243548 
L 92.636701 190.025484 
L 93.275198 188.280973 
L 93.913696 187.626782 
L 94.126528 187.190654 
L 94.339361 187.190654 
L 95.190691 184.137761 
L 95.403523 184.137761 
L 95.829188 183.483569 
L 96.254853 183.047442 
L 96.467685 183.047442 
L 96.680518 182.829378 
L 97.106183 182.829378 
L 97.319015 182.611314 
L 97.531848 182.611314 
L 97.957513 181.957123 
L 98.383177 181.520995 
L 98.808842 180.430676 
L 99.234507 179.776485 
L 99.660172 179.340357 
L 101.149999 179.340357 
L 101.362832 179.122293 
L 101.575664 179.122293 
L 101.788497 178.904229 
L 102.001329 178.468102 
L 103.491157 178.468102 
L 103.703989 177.81391 
L 106.257978 177.81391 
L 106.470811 176.941655 
L 110.088963 176.941655 
L 110.301795 175.197144 
L 110.514628 174.979081 
L 110.72746 174.106825 
L 110.940293 173.888761 
L 111.791622 173.888761 
L 112.004455 173.670698 
L 112.217287 173.670698 
L 112.43012 173.452634 
L 112.855785 173.452634 
L 113.28145 173.016506 
L 113.707115 172.362315 
L 114.771277 172.362315 
L 114.984109 171.271996 
L 117.325266 171.271996 
L 117.538099 171.053932 
L 117.750931 171.053932 
L 117.963764 170.835868 
L 118.815094 170.835868 
L 119.240758 170.39974 
L 119.666423 170.39974 
L 119.879256 170.181677 
L 128.179722 170.181677 
L 128.392554 169.963613 
L 128.605387 168.65523 
L 137.331518 168.65523 
L 137.54435 167.782975 
L 138.39568 167.782975 
L 138.821345 167.346847 
L 141.162502 167.346847 
L 141.375334 166.910719 
L 141.800999 166.910719 
L 142.013832 166.692655 
L 142.439497 166.692655 
L 142.652329 166.474592 
L 142.865161 166.474592 
L 143.077994 166.256528 
L 144.354989 166.256528 
L 144.567821 165.8204 
L 145.844816 165.8204 
L 146.057648 165.602336 
L 149.462968 165.602336 
L 149.6758 165.384273 
L 150.101465 165.384273 
L 150.314298 165.166209 
L 151.37846 165.166209 
L 151.591292 164.948145 
L 152.655455 164.948145 
L 152.868287 164.730081 
L 153.293952 164.730081 
L 153.506784 164.512017 
L 154.145282 164.512017 
L 154.358114 164.293953 
L 156.060774 164.293953 
L 156.273606 164.07589 
L 157.337769 164.07589 
L 157.550601 163.857826 
L 157.763434 163.857826 
L 157.976266 163.639762 
L 158.189099 163.639762 
L 158.401931 163.421698 
L 158.827596 163.421698 
L 159.253261 162.331379 
L 160.104591 162.331379 
L 160.317423 161.895251 
L 160.530256 161.895251 
L 160.743088 161.677188 
L 161.168753 161.677188 
L 161.381585 161.459124 
L 161.80725 160.804932 
L 162.020083 160.586869 
L 162.445748 159.932677 
L 166.915229 159.932677 
L 167.128062 159.714613 
L 168.405057 159.714613 
L 168.617889 159.496549 
L 168.830722 159.496549 
L 169.043554 159.278486 
L 171.597544 159.278486 
L 171.810376 159.060422 
L 176.067025 159.060422 
L 176.279858 158.842358 
L 176.49269 158.842358 
L 176.705523 158.624294 
L 177.34402 158.624294 
L 177.769685 158.188167 
L 182.664831 158.188167 
L 182.877664 157.752039 
L 186.921481 157.752039 
L 187.134313 157.533975 
L 189.901135 157.533975 
L 190.113967 157.315911 
L 190.752465 157.315911 
L 190.965297 157.097847 
L 193.306454 157.097847 
L 193.519287 156.879784 
L 193.732119 156.443656 
L 195.434779 156.443656 
L 195.647611 156.007528 
L 201.60692 156.007528 
L 201.819753 155.789465 
L 202.45825 155.789465 
L 202.671083 155.571401 
L 203.096748 155.571401 
L 203.30958 155.353337 
L 203.948077 155.353337 
L 204.16091 155.135273 
L 214.802533 155.135273 
L 215.015365 154.917209 
L 223.954329 154.917209 
L 224.167161 154.699145 
L 233.744622 154.699145 
L 233.957454 154.481082 
L 243.322082 154.481082 
L 243.534915 153.82689 
L 243.96058 153.390763 
L 247.578732 153.390763 
L 247.791564 153.172699 
L 252.261046 153.172699 
L 252.473878 152.954635 
L 252.899543 152.954635 
L 253.112375 152.736571 
L 256.517695 152.736571 
L 256.730527 152.518507 
L 257.79469 152.518507 
L 258.007522 152.300443 
L 262.477004 152.300443 
L 262.689836 152.08238 
L 263.541166 152.08238 
L 263.753998 151.864316 
L 266.095155 151.864316 
L 266.307988 151.646252 
L 271.841632 151.646252 
L 272.054464 151.428188 
L 274.608454 151.428188 
L 274.821286 151.210124 
L 275.034119 151.210124 
L 275.246951 150.992061 
L 279.5036 150.992061 
L 279.716433 150.773997 
L 312.279799 150.773997 
L 312.492632 150.555933 
L 313.343961 150.555933 
L 313.556794 150.337869 
L 342.502008 150.337869 
L 342.714841 149.465614 
L 342.927673 149.24755 
L 343.991836 149.24755 
L 344.204668 149.029486 
L 345.694495 149.029486 
L 345.907328 148.811422 
L 357.187448 148.811422 
L 357.400281 148.375295 
L 363.998087 148.375295 
L 364.210919 148.157231 
L 371.021558 148.157231 
L 371.23439 147.939167 
L 371.447223 147.939167 
L 371.660055 147.721103 
L 373.78838 147.721103 
L 374.001212 147.503039 
L 375.916705 147.503039 
L 375.916705 147.503039 
" clip-path="url(#pcffe4ee879)" style="fill: none; stroke: #db5f57; stroke-width: 1.2; stroke-linecap: round"/>
   </g>
   <g id="line2d_40">
    <path d="M 69.650795 484.302607 
L 70.07646 430.767939 
L 70.289293 422.263451 
L 70.502125 420.737004 
L 71.140623 412.450579 
L 71.353455 399.148686 
L 71.77912 394.133218 
L 71.991953 392.606771 
L 72.204785 391.95258 
L 72.417617 391.734516 
L 72.63045 391.298388 
L 72.843282 390.208069 
L 73.268947 364.912666 
L 73.694612 262.204608 
L 74.545942 262.204608 
L 74.758774 261.986544 
L 75.184439 261.332353 
L 75.397272 261.114289 
L 75.610104 261.114289 
L 75.822937 260.896225 
L 76.035769 234.074375 
L 76.248602 228.840844 
L 76.461434 228.840844 
L 76.674267 228.62278 
L 76.887099 227.968588 
L 77.099932 227.968588 
L 77.312764 227.532461 
L 77.525596 227.532461 
L 77.738429 226.878269 
L 77.951261 214.884759 
L 78.164094 214.666696 
L 78.802591 213.576376 
L 79.441089 213.576376 
L 79.653921 202.891249 
L 79.866754 201.80093 
L 80.079586 201.582866 
L 81.782246 201.582866 
L 81.995078 201.364803 
L 82.846408 201.364803 
L 83.05924 188.499037 
L 84.123403 188.499037 
L 84.336235 183.483569 
L 84.549068 182.175187 
L 84.7619 182.175187 
L 84.974733 181.957123 
L 85.400397 181.957123 
L 85.61323 176.723591 
L 85.826062 176.287463 
L 86.46456 176.287463 
L 86.677392 176.0694 
L 86.890225 175.633272 
L 87.103057 171.271996 
L 87.528722 169.309421 
L 87.741555 169.309421 
L 87.954387 168.65523 
L 88.592884 168.65523 
L 88.805717 168.437166 
L 89.231382 168.437166 
L 89.444214 164.948145 
L 90.295544 164.948145 
L 90.508376 164.730081 
L 90.721209 159.932677 
L 91.785371 159.932677 
L 91.998204 159.060422 
L 93.488031 159.060422 
L 93.700863 153.608826 
L 93.913696 153.608826 
L 94.126528 153.390763 
L 94.552193 152.518507 
L 94.977858 152.518507 
L 95.190691 149.901741 
L 95.403523 149.683678 
L 95.616356 148.811422 
L 95.829188 148.811422 
L 96.254853 148.157231 
L 96.467685 148.157231 
L 96.89335 147.503039 
L 97.74468 147.503039 
L 98.170345 146.630784 
L 98.808842 146.630784 
L 99.021675 146.41272 
L 99.660172 146.41272 
L 99.873005 144.66821 
L 100.29867 144.66821 
L 100.511502 144.450146 
L 102.426994 144.450146 
L 102.852659 143.141763 
L 103.278324 142.705635 
L 104.342486 142.705635 
L 104.555319 141.615316 
L 104.768151 141.397253 
L 104.980984 141.397253 
L 105.193816 140.524997 
L 105.406649 140.524997 
L 105.619481 140.08887 
L 105.832314 140.08887 
L 106.045146 139.216614 
L 106.257978 139.216614 
L 106.470811 138.780487 
L 107.747806 138.780487 
L 107.960638 138.562423 
L 111.57879 138.562423 
L 111.791622 137.035976 
L 113.068617 137.035976 
L 113.28145 136.381785 
L 113.707115 136.381785 
L 113.919947 135.727593 
L 114.345612 135.727593 
L 114.558444 135.291466 
L 116.899601 135.291466 
L 117.112434 135.073402 
L 117.963764 135.073402 
L 118.176596 134.855338 
L 118.389429 134.855338 
L 118.815094 134.41921 
L 119.666423 134.41921 
L 119.879256 133.546955 
L 120.092088 133.546955 
L 120.304921 133.110827 
L 121.369083 133.110827 
L 121.581916 132.892764 
L 121.794748 132.892764 
L 122.00758 132.6747 
L 122.433245 132.6747 
L 122.646078 132.456636 
L 125.838565 132.456636 
L 126.051397 132.020508 
L 127.754057 132.020508 
L 128.179722 131.584381 
L 128.392554 131.584381 
L 128.818219 130.712125 
L 129.669549 130.712125 
L 129.882381 130.494062 
L 130.520879 130.494062 
L 130.733711 130.275998 
L 130.946544 129.83987 
L 131.372209 129.83987 
L 131.585041 129.185679 
L 137.757182 129.185679 
L 137.970015 128.531487 
L 138.39568 128.531487 
L 138.821345 128.09536 
L 141.588167 128.09536 
L 142.013832 127.441168 
L 143.290826 127.441168 
L 143.503659 127.005041 
L 149.462968 127.005041 
L 149.6758 126.786977 
L 150.101465 126.132785 
L 150.52713 125.696658 
L 150.739962 125.696658 
L 151.165627 125.26053 
L 153.08112 125.26053 
L 153.293952 125.042466 
L 155.422277 125.042466 
L 155.635109 124.824402 
L 158.189099 124.824402 
L 158.401931 124.606339 
L 159.040428 124.606339 
L 159.253261 124.388275 
L 160.104591 124.388275 
L 160.317423 122.861828 
L 160.530256 122.643764 
L 161.381585 122.643764 
L 161.80725 121.989573 
L 162.232915 121.989573 
L 162.445748 121.771509 
L 163.297078 121.771509 
L 163.50991 120.68119 
L 164.36124 120.68119 
L 164.574072 120.463126 
L 166.489564 120.463126 
L 166.702397 120.245062 
L 169.894884 120.245062 
L 170.107716 120.026998 
L 177.34402 120.026998 
L 177.769685 119.372807 
L 177.982517 119.154743 
L 178.19535 119.154743 
L 178.408182 118.936679 
L 182.026334 118.936679 
L 182.451999 118.500552 
L 182.664831 118.500552 
L 182.877664 118.282488 
L 185.431653 118.282488 
L 185.644486 118.064424 
L 188.411308 118.064424 
L 188.836973 117.628296 
L 190.3268 117.628296 
L 190.539632 117.410233 
L 190.752465 117.410233 
L 190.965297 117.192169 
L 192.02946 117.192169 
L 192.242292 116.974105 
L 193.944952 116.974105 
L 194.157784 116.10185 
L 199.691428 116.10185 
L 200.329926 115.447658 
L 201.60692 115.447658 
L 201.819753 115.229594 
L 204.373742 115.229594 
L 204.586575 115.011531 
L 208.204727 115.011531 
L 208.417559 114.793467 
L 209.907386 114.793467 
L 210.120219 114.575403 
L 214.802533 114.575403 
L 215.015365 114.357339 
L 215.653863 114.357339 
L 215.866695 114.139275 
L 217.99502 114.139275 
L 218.207852 113.921211 
L 222.251669 113.921211 
L 222.464501 113.703148 
L 226.72115 113.703148 
L 226.933983 113.485084 
L 229.700805 113.485084 
L 229.913637 113.26702 
L 230.552135 113.26702 
L 230.764967 113.048956 
L 233.957454 113.048956 
L 234.170287 112.830892 
L 243.10925 112.830892 
L 243.322082 112.612829 
L 243.747747 112.612829 
L 243.96058 112.176701 
L 253.325208 112.176701 
L 253.53804 111.740573 
L 255.2407 111.740573 
L 255.453533 111.522509 
L 256.730527 111.522509 
L 256.94336 111.304446 
L 258.007522 111.304446 
L 258.220354 111.086382 
L 265.669491 111.086382 
L 265.882323 110.868318 
L 266.307988 110.868318 
L 266.52082 110.650254 
L 269.07481 110.650254 
L 269.287642 110.43219 
L 271.415967 110.43219 
L 271.628799 110.214127 
L 273.544292 110.214127 
L 273.757124 109.996063 
L 276.311114 109.996063 
L 276.736778 109.559935 
L 277.375276 109.559935 
L 277.588108 109.123807 
L 283.973082 109.123807 
L 284.185915 108.905744 
L 294.827538 108.905744 
L 295.04037 108.68768 
L 303.766501 108.68768 
L 303.979333 108.469616 
L 315.685119 108.469616 
L 315.897951 108.033488 
L 318.239108 108.033488 
L 318.451941 107.815425 
L 319.516103 107.815425 
L 319.728935 107.597361 
L 323.985584 107.597361 
L 324.198417 107.379297 
L 328.242234 107.379297 
L 328.455066 106.943169 
L 330.157726 106.943169 
L 330.583391 106.288978 
L 341.437846 106.288978 
L 341.650679 106.070914 
L 341.863511 106.070914 
L 342.076343 105.85285 
L 342.927673 105.85285 
L 343.140506 105.634786 
L 345.481663 105.634786 
L 345.694495 105.416723 
L 352.505134 105.416723 
L 352.717966 105.198659 
L 353.782129 105.198659 
L 353.994961 104.980595 
L 356.548951 104.980595 
L 356.974616 104.544467 
L 358.677275 104.544467 
L 358.890108 104.10834 
L 361.444097 104.10834 
L 361.65693 103.890276 
L 371.23439 103.890276 
L 371.447223 103.454148 
L 373.78838 103.454148 
L 374.001212 103.236084 
L 375.916705 103.236084 
L 375.916705 103.236084 
" clip-path="url(#pcffe4ee879)" style="fill: none; stroke: #b9db57; stroke-width: 1.2; stroke-linecap: round"/>
   </g>
   <g id="line2d_41">
    <path d="M 69.650795 478.741979 
L 70.07646 431.640195 
L 70.714958 357.062369 
L 70.92779 346.377242 
L 71.140623 323.044413 
L 71.353455 320.863775 
L 71.566288 305.16318 
L 71.77912 303.200606 
L 71.991953 299.929648 
L 72.204785 290.770968 
L 72.63045 284.229054 
L 73.056115 273.543926 
L 73.268947 271.363288 
L 73.48178 263.294927 
L 74.120277 257.18914 
L 75.184439 239.307907 
L 75.610104 233.856312 
L 76.674267 226.878269 
L 77.312764 222.953121 
L 77.525596 222.516993 
L 77.951261 216.193142 
L 78.376926 214.012504 
L 78.802591 210.741547 
L 79.015424 209.651228 
L 79.228256 207.252526 
L 79.441089 206.162207 
L 79.866754 203.327377 
L 80.718083 198.966101 
L 80.930916 198.748037 
L 81.995078 194.604824 
L 82.207911 191.551931 
L 82.633575 190.461612 
L 83.05924 188.280973 
L 83.272073 188.06291 
L 83.484905 186.972591 
L 83.91057 186.100335 
L 84.336235 183.483569 
L 84.549068 181.302931 
L 84.7619 180.866804 
L 85.187565 179.558421 
L 85.400397 177.595846 
L 85.826062 176.505527 
L 86.038895 176.0694 
L 86.251727 174.761017 
L 86.46456 174.761017 
L 86.677392 174.106825 
L 86.890225 173.888761 
L 87.528722 170.617804 
L 87.954387 170.181677 
L 89.018549 167.128783 
L 89.444214 167.128783 
L 89.869879 165.166209 
L 90.082712 164.730081 
L 90.295544 163.857826 
L 90.508376 161.459124 
L 90.721209 161.24106 
L 90.934041 160.368805 
L 91.146874 160.368805 
L 91.572539 159.714613 
L 91.998204 159.714613 
L 92.211036 159.496549 
L 92.423869 159.060422 
L 92.849534 156.879784 
L 93.062366 156.225592 
L 93.275198 156.007528 
L 93.700863 154.481082 
L 93.913696 154.263018 
L 94.126528 154.263018 
L 95.190691 151.210124 
L 95.403523 151.210124 
L 95.616356 150.555933 
L 95.829188 150.555933 
L 96.254853 149.465614 
L 96.467685 149.24755 
L 96.680518 149.24755 
L 96.89335 149.029486 
L 97.319015 149.029486 
L 98.170345 148.157231 
L 98.383177 147.503039 
L 98.59601 147.284976 
L 98.808842 147.284976 
L 99.021675 147.066912 
L 99.234507 146.41272 
L 99.44734 146.41272 
L 99.660172 146.194657 
L 101.362832 146.194657 
L 101.575664 145.976593 
L 101.788497 145.322401 
L 102.639827 145.322401 
L 103.065492 144.886274 
L 103.278324 144.450146 
L 103.916821 144.450146 
L 104.129654 143.577891 
L 104.768151 143.577891 
L 104.980984 143.359827 
L 105.832314 143.359827 
L 106.045146 142.487572 
L 106.470811 142.487572 
L 106.683643 142.269508 
L 107.109308 142.269508 
L 107.322141 142.051444 
L 108.386303 142.051444 
L 108.599136 141.83338 
L 109.237633 141.83338 
L 109.450465 141.615316 
L 110.301795 141.615316 
L 110.514628 141.179189 
L 110.940293 141.179189 
L 111.153125 140.524997 
L 111.365957 140.524997 
L 111.57879 140.306933 
L 112.642952 140.306933 
L 112.855785 140.08887 
L 113.068617 140.08887 
L 113.28145 139.652742 
L 113.494282 139.652742 
L 114.132779 138.562423 
L 114.771277 138.562423 
L 114.984109 137.908231 
L 116.473937 137.908231 
L 116.686769 137.690168 
L 119.666423 137.690168 
L 119.879256 137.472104 
L 123.71024 137.472104 
L 123.923073 137.25404 
L 124.987235 137.25404 
L 125.200067 137.035976 
L 128.179722 137.035976 
L 128.392554 136.817912 
L 128.605387 136.817912 
L 128.818219 135.945657 
L 129.031052 135.727593 
L 129.243884 135.727593 
L 129.456717 135.509529 
L 129.882381 135.509529 
L 130.095214 135.291466 
L 132.010706 135.291466 
L 132.223539 134.855338 
L 134.99036 134.855338 
L 135.203193 134.637274 
L 136.69302 134.637274 
L 137.331518 133.983083 
L 138.821345 133.983083 
L 139.034177 133.765019 
L 139.885507 133.765019 
L 140.09834 133.546955 
L 141.375334 133.546955 
L 141.588167 133.328891 
L 143.290826 133.328891 
L 143.716491 132.6747 
L 144.993486 132.6747 
L 145.206319 132.238572 
L 148.398805 132.238572 
L 148.611638 132.020508 
L 149.462968 132.020508 
L 149.6758 131.802445 
L 150.314298 131.802445 
L 150.52713 131.584381 
L 151.37846 131.584381 
L 151.591292 131.366317 
L 152.655455 131.366317 
L 152.868287 131.148253 
L 153.293952 131.148253 
L 153.506784 130.930189 
L 155.209444 130.930189 
L 155.422277 130.712125 
L 157.337769 130.712125 
L 157.550601 130.494062 
L 158.401931 130.494062 
L 158.614763 130.275998 
L 159.040428 130.275998 
L 159.253261 129.185679 
L 160.317423 129.185679 
L 160.530256 128.749551 
L 161.381585 128.749551 
L 161.594418 128.09536 
L 161.80725 127.877296 
L 162.232915 127.877296 
L 162.445748 127.223104 
L 163.084245 127.223104 
L 163.297078 127.005041 
L 164.148407 127.005041 
L 164.36124 126.786977 
L 168.830722 126.786977 
L 169.043554 126.568913 
L 176.49269 126.568913 
L 176.918355 126.132785 
L 177.34402 126.132785 
L 177.556852 125.914721 
L 177.769685 125.478594 
L 182.664831 125.478594 
L 182.877664 125.26053 
L 189.688303 125.26053 
L 189.901135 125.042466 
L 190.3268 125.042466 
L 190.539632 124.824402 
L 193.306454 124.824402 
L 193.732119 123.952147 
L 203.948077 123.952147 
L 204.16091 123.734083 
L 210.545884 123.734083 
L 210.758716 123.516019 
L 214.376868 123.516019 
L 214.5897 123.297956 
L 222.251669 123.297956 
L 222.464501 123.079892 
L 225.656988 123.079892 
L 225.869821 122.861828 
L 234.170287 122.861828 
L 234.383119 122.643764 
L 242.896417 122.643764 
L 243.10925 122.4257 
L 243.322082 122.4257 
L 243.534915 122.207637 
L 252.261046 122.207637 
L 252.473878 121.989573 
L 252.899543 121.989573 
L 253.112375 121.771509 
L 256.730527 121.771509 
L 256.94336 121.553445 
L 260.774344 121.553445 
L 260.987176 121.335381 
L 265.669491 121.335381 
L 265.882323 121.117317 
L 266.095155 121.117317 
L 266.307988 120.899254 
L 274.608454 120.899254 
L 275.034119 120.463126 
L 279.5036 120.463126 
L 279.716433 120.245062 
L 283.547417 120.245062 
L 283.76025 120.026998 
L 288.655396 120.026998 
L 288.868229 119.808935 
L 292.912045 119.808935 
L 293.124878 119.590871 
L 313.343961 119.590871 
L 313.556794 119.372807 
L 316.110783 119.372807 
L 316.323616 119.154743 
L 316.536448 119.154743 
L 316.749281 118.718615 
L 328.029401 118.718615 
L 328.242234 118.500552 
L 329.944893 118.500552 
L 330.157726 118.282488 
L 330.370558 118.282488 
L 330.583391 118.064424 
L 334.627207 118.064424 
L 334.84004 117.84636 
L 342.289176 117.84636 
L 342.502008 117.628296 
L 342.927673 117.628296 
L 343.140506 117.410233 
L 343.779003 117.410233 
L 343.991836 117.192169 
L 356.761783 117.192169 
L 356.974616 116.974105 
L 357.187448 116.974105 
L 357.400281 116.319913 
L 371.23439 116.319913 
L 371.447223 116.10185 
L 373.575547 116.10185 
L 373.78838 115.883786 
L 374.001212 115.883786 
L 374.214045 115.665722 
L 375.916705 115.665722 
L 375.916705 115.665722 
" clip-path="url(#pcffe4ee879)" style="fill: none; stroke: #57db94; stroke-width: 1.2; stroke-linecap: round"/>
   </g>
   <g id="line2d_42">
    <path d="M 69.650795 484.629703 
L 70.07646 435.129216 
L 70.289293 418.774429 
L 70.714958 415.503472 
L 70.92779 414.849281 
L 71.140623 414.631217 
L 71.566288 413.540898 
L 71.77912 412.886706 
L 72.204785 377.12424 
L 72.417617 290.989032 
L 72.63045 289.462585 
L 72.843282 288.808394 
L 73.056115 288.59033 
L 73.268947 288.59033 
L 73.48178 288.154202 
L 73.907445 285.537436 
L 74.545942 283.574862 
L 74.758774 282.484543 
L 74.971607 280.303905 
L 75.184439 239.525971 
L 76.461434 236.909205 
L 76.674267 236.909205 
L 76.887099 225.569886 
L 77.099932 225.133759 
L 77.312764 224.261504 
L 78.164094 224.261504 
L 78.802591 222.298929 
L 79.015424 221.20861 
L 79.228256 220.772482 
L 79.441089 203.981568 
L 79.653921 203.763505 
L 79.866754 201.582866 
L 80.292418 201.582866 
L 80.505251 201.364803 
L 80.718083 201.364803 
L 80.930916 196.349335 
L 81.143748 194.822888 
L 81.356581 194.38676 
L 81.782246 194.38676 
L 81.995078 193.950633 
L 82.420743 193.950633 
L 82.633575 188.499037 
L 82.846408 187.844846 
L 83.05924 186.754527 
L 83.272073 186.318399 
L 83.484905 186.318399 
L 83.697738 186.100335 
L 84.123403 186.100335 
L 84.336235 182.829378 
L 84.7619 182.829378 
L 85.400397 182.175187 
L 85.61323 176.723591 
L 86.46456 176.723591 
L 86.677392 173.452634 
L 86.890225 172.362315 
L 87.31589 172.362315 
L 87.528722 169.963613 
L 87.741555 169.527485 
L 88.167219 169.527485 
L 88.380052 167.564911 
L 89.018549 167.564911 
L 89.231382 167.346847 
L 89.444214 167.346847 
L 89.657047 166.910719 
L 89.869879 163.857826 
L 90.082712 163.203634 
L 91.359706 163.203634 
L 91.572539 159.278486 
L 91.785371 159.278486 
L 92.423869 158.188167 
L 92.636701 157.970103 
L 92.849534 156.007528 
L 93.062366 155.135273 
L 93.488031 155.135273 
L 93.913696 154.699145 
L 94.339361 154.699145 
L 94.552193 151.864316 
L 94.765026 151.428188 
L 95.190691 151.428188 
L 95.403523 149.683678 
L 97.106183 149.683678 
L 97.319015 147.503039 
L 98.383177 147.503039 
L 98.59601 146.630784 
L 99.44734 146.630784 
L 99.660172 146.41272 
L 99.873005 145.322401 
L 100.724335 145.322401 
L 100.937167 145.104337 
L 101.149999 145.104337 
L 101.362832 144.886274 
L 101.575664 144.886274 
L 101.788497 144.232082 
L 102.001329 144.232082 
L 102.214162 144.014018 
L 103.491157 144.014018 
L 103.703989 143.359827 
L 104.129654 143.359827 
L 104.342486 142.269508 
L 104.555319 142.051444 
L 104.768151 142.051444 
L 104.980984 141.83338 
L 105.619481 141.83338 
L 105.832314 140.743061 
L 106.045146 140.743061 
L 106.257978 140.524997 
L 106.896476 140.524997 
L 107.534973 139.434678 
L 107.747806 139.216614 
L 108.386303 139.216614 
L 108.599136 138.780487 
L 110.088963 138.780487 
L 110.301795 138.562423 
L 110.514628 137.690168 
L 110.72746 137.690168 
L 111.153125 137.25404 
L 113.494282 137.25404 
L 113.707115 136.817912 
L 114.558444 136.817912 
L 114.771277 135.509529 
L 114.984109 135.509529 
L 115.196942 135.291466 
L 116.473937 135.291466 
L 116.686769 135.073402 
L 118.176596 135.073402 
L 118.602261 134.637274 
L 119.453591 134.637274 
L 119.666423 134.41921 
L 120.730586 134.41921 
L 120.943418 134.201147 
L 122.00758 134.201147 
L 122.220413 133.983083 
L 124.348738 133.983083 
L 124.56157 133.765019 
L 125.200067 133.765019 
L 125.4129 133.546955 
L 128.179722 133.546955 
L 128.392554 132.892764 
L 128.818219 132.892764 
L 129.031052 132.020508 
L 129.243884 131.802445 
L 129.669549 131.802445 
L 129.882381 131.584381 
L 130.308046 131.584381 
L 130.520879 131.366317 
L 130.946544 131.366317 
L 131.159376 131.148253 
L 131.585041 131.148253 
L 131.797874 130.712125 
L 137.331518 130.712125 
L 137.54435 130.057934 
L 138.608512 130.057934 
L 138.821345 129.621806 
L 139.885507 129.621806 
L 140.09834 129.403743 
L 141.588167 129.403743 
L 141.800999 129.185679 
L 142.439497 129.185679 
L 142.652329 128.967615 
L 143.503659 128.967615 
L 143.716491 128.749551 
L 144.780654 128.749551 
L 144.993486 128.531487 
L 149.037303 128.531487 
L 149.250135 128.313423 
L 150.101465 128.313423 
L 150.314298 128.09536 
L 151.165627 128.09536 
L 151.37846 127.441168 
L 152.655455 127.441168 
L 152.868287 127.223104 
L 158.401931 127.223104 
L 158.614763 127.005041 
L 159.040428 127.005041 
L 159.253261 125.914721 
L 160.743088 125.914721 
L 160.955921 125.478594 
L 161.594418 125.478594 
L 161.80725 124.824402 
L 162.020083 124.824402 
L 162.232915 123.952147 
L 162.445748 123.734083 
L 164.148407 123.734083 
L 164.36124 123.516019 
L 166.0639 123.516019 
L 166.276732 123.297956 
L 169.894884 123.297956 
L 170.107716 123.079892 
L 175.215695 123.079892 
L 175.428528 122.861828 
L 176.067025 122.861828 
L 176.49269 122.4257 
L 177.769685 122.4257 
L 177.982517 121.553445 
L 178.19535 121.335381 
L 186.921481 121.335381 
L 187.134313 121.117317 
L 188.836973 121.117317 
L 189.049805 120.899254 
L 190.113967 120.899254 
L 190.3268 120.68119 
L 190.539632 120.68119 
L 190.752465 120.463126 
L 193.732119 120.463126 
L 193.944952 119.590871 
L 200.117093 119.590871 
L 200.329926 119.372807 
L 200.968423 119.372807 
L 201.181255 119.154743 
L 204.16091 119.154743 
L 204.373742 118.936679 
L 214.376868 118.936679 
L 214.5897 118.718615 
L 222.677334 118.718615 
L 222.890166 118.500552 
L 230.764967 118.500552 
L 230.9778 118.282488 
L 234.595951 118.282488 
L 234.808784 118.064424 
L 243.10925 118.064424 
L 243.322082 117.84636 
L 243.534915 117.84636 
L 243.747747 117.628296 
L 251.409716 117.628296 
L 251.622548 117.410233 
L 252.048213 117.410233 
L 252.261046 117.192169 
L 254.38937 117.192169 
L 254.602203 116.756041 
L 256.09203 116.756041 
L 256.304862 116.537977 
L 256.94336 116.537977 
L 257.156192 116.319913 
L 262.051339 116.319913 
L 262.264171 116.10185 
L 265.882323 116.10185 
L 266.095155 115.883786 
L 266.733653 115.883786 
L 266.946485 115.665722 
L 275.672616 115.665722 
L 275.885449 115.229594 
L 283.76025 115.229594 
L 283.973082 115.011531 
L 292.912045 115.011531 
L 293.124878 114.793467 
L 299.084187 114.793467 
L 299.297019 114.575403 
L 304.192166 114.575403 
L 304.404998 114.357339 
L 310.789972 114.357339 
L 311.002804 114.139275 
L 311.641302 114.139275 
L 311.854134 113.921211 
L 314.408124 113.921211 
L 314.620956 113.703148 
L 316.110783 113.703148 
L 316.323616 113.485084 
L 324.836914 113.485084 
L 325.049747 113.26702 
L 328.029401 113.26702 
L 328.242234 113.048956 
L 329.944893 113.048956 
L 330.157726 112.830892 
L 330.583391 112.830892 
L 330.796223 112.394765 
L 344.204668 112.394765 
L 344.630333 111.958637 
L 353.143631 111.958637 
L 353.569296 111.522509 
L 356.548951 111.522509 
L 356.761783 111.086382 
L 358.890108 111.086382 
L 359.10294 110.43219 
L 367.829071 110.43219 
L 368.041904 110.214127 
L 371.447223 110.214127 
L 371.660055 109.777999 
L 375.916705 109.777999 
L 375.916705 109.777999 
" clip-path="url(#pcffe4ee879)" style="fill: none; stroke: #5784db; stroke-width: 1.2; stroke-linecap: round"/>
   </g>
   <g id="line2d_43">
    <path d="M 69.650795 474.925863 
L 70.714958 328.932136 
L 71.353455 300.147712 
L 71.77912 284.883245 
L 72.63045 266.129757 
L 73.056115 259.805906 
L 73.268947 255.662693 
L 73.48178 247.594332 
L 73.907445 243.014992 
L 74.120277 237.999524 
L 74.33311 236.473077 
L 74.971607 224.04344 
L 75.610104 216.411206 
L 75.822937 215.320887 
L 76.248602 211.831866 
L 76.674267 209.2151 
L 77.312764 204.63576 
L 77.525596 204.63576 
L 77.738429 200.05642 
L 78.164094 197.003526 
L 78.376926 195.695143 
L 78.802591 192.206122 
L 80.505251 180.64874 
L 80.930916 179.558421 
L 81.356581 177.595846 
L 81.782246 176.723591 
L 82.420743 172.144251 
L 82.846408 170.39974 
L 83.272073 167.782975 
L 83.484905 167.564911 
L 84.123403 166.038464 
L 84.7619 162.113315 
L 85.187565 160.804932 
L 85.61323 158.188167 
L 86.038895 157.315911 
L 86.251727 156.007528 
L 86.46456 156.007528 
L 87.103057 153.390763 
L 87.31589 151.210124 
L 87.528722 150.992061 
L 88.167219 149.465614 
L 88.592884 147.939167 
L 89.018549 147.066912 
L 89.231382 147.066912 
L 89.444214 146.848848 
L 89.869879 144.66821 
L 90.082712 144.66821 
L 90.295544 143.795955 
L 90.508376 141.615316 
L 90.721209 141.397253 
L 90.934041 140.743061 
L 91.146874 140.524997 
L 91.359706 140.08887 
L 91.998204 140.08887 
L 92.211036 139.870806 
L 93.062366 136.599849 
L 93.488031 135.509529 
L 93.700863 134.41921 
L 93.913696 133.983083 
L 94.126528 133.983083 
L 94.552193 132.6747 
L 94.977858 130.712125 
L 95.190691 130.275998 
L 95.403523 130.275998 
L 95.616356 129.621806 
L 95.829188 129.403743 
L 96.467685 128.313423 
L 96.680518 128.313423 
L 96.89335 127.877296 
L 97.319015 127.877296 
L 98.170345 127.005041 
L 98.383177 126.350849 
L 98.59601 126.350849 
L 98.808842 125.914721 
L 99.021675 125.914721 
L 99.234507 125.478594 
L 99.44734 125.478594 
L 99.660172 125.26053 
L 101.149999 125.26053 
L 101.362832 125.042466 
L 101.575664 125.042466 
L 101.788497 124.388275 
L 102.639827 124.388275 
L 103.278324 123.734083 
L 103.916821 123.734083 
L 104.129654 122.861828 
L 104.342486 122.861828 
L 104.555319 122.643764 
L 104.768151 122.643764 
L 104.980984 122.4257 
L 105.193816 121.771509 
L 105.406649 121.771509 
L 106.257978 120.899254 
L 107.109308 120.899254 
L 107.322141 120.68119 
L 107.747806 120.68119 
L 107.960638 120.463126 
L 108.386303 120.463126 
L 108.599136 120.245062 
L 109.237633 120.245062 
L 109.450465 120.026998 
L 110.088963 120.026998 
L 110.301795 119.808935 
L 110.514628 118.936679 
L 110.72746 118.936679 
L 110.940293 118.718615 
L 112.642952 118.718615 
L 112.855785 118.500552 
L 113.068617 118.500552 
L 113.28145 118.064424 
L 113.494282 118.064424 
L 114.132779 116.974105 
L 114.771277 116.974105 
L 114.984109 116.537977 
L 116.473937 116.537977 
L 116.686769 116.319913 
L 117.963764 116.319913 
L 118.176596 116.10185 
L 118.389429 116.10185 
L 118.602261 115.883786 
L 119.453591 115.883786 
L 119.879256 115.447658 
L 121.794748 115.447658 
L 122.00758 115.229594 
L 123.71024 115.229594 
L 123.923073 115.011531 
L 124.987235 115.011531 
L 125.200067 114.793467 
L 127.754057 114.793467 
L 128.179722 114.357339 
L 128.605387 113.485084 
L 128.818219 113.485084 
L 129.031052 113.26702 
L 129.243884 113.26702 
L 129.456717 113.048956 
L 129.669549 113.048956 
L 129.882381 112.830892 
L 130.520879 112.830892 
L 130.733711 112.612829 
L 131.372209 112.612829 
L 131.585041 112.176701 
L 134.99036 112.176701 
L 135.203193 111.958637 
L 136.69302 111.958637 
L 137.331518 111.304446 
L 138.39568 111.304446 
L 138.821345 110.868318 
L 139.885507 110.868318 
L 140.09834 110.650254 
L 141.162502 110.650254 
L 141.375334 110.214127 
L 141.800999 110.214127 
L 142.013832 109.996063 
L 142.439497 109.996063 
L 142.652329 109.777999 
L 142.865161 109.777999 
L 143.077994 109.559935 
L 143.503659 109.559935 
L 143.716491 109.341871 
L 144.354989 109.341871 
L 144.567821 109.123807 
L 144.993486 109.123807 
L 145.206319 108.905744 
L 149.462968 108.905744 
L 149.6758 108.68768 
L 150.101465 108.68768 
L 150.314298 108.469616 
L 150.739962 108.469616 
L 151.165627 108.033488 
L 151.37846 108.033488 
L 151.591292 107.815425 
L 152.655455 107.815425 
L 152.868287 107.597361 
L 153.293952 107.597361 
L 153.506784 107.379297 
L 155.209444 107.379297 
L 155.422277 107.161233 
L 157.337769 107.161233 
L 157.550601 106.943169 
L 158.189099 106.943169 
L 158.401931 106.725105 
L 158.827596 106.725105 
L 159.253261 105.634786 
L 160.104591 105.634786 
L 160.530256 105.198659 
L 161.168753 105.198659 
L 161.381585 104.980595 
L 162.232915 103.454148 
L 162.445748 103.236084 
L 163.084245 103.236084 
L 163.297078 103.018021 
L 164.148407 103.018021 
L 164.36124 102.799957 
L 168.830722 102.799957 
L 169.043554 102.581893 
L 176.067025 102.581893 
L 176.279858 102.363829 
L 176.49269 102.363829 
L 176.705523 102.145765 
L 177.34402 102.145765 
L 177.556852 101.927701 
L 177.769685 101.491574 
L 177.982517 101.491574 
L 178.19535 101.27351 
L 182.664831 101.27351 
L 182.877664 101.055446 
L 186.921481 101.055446 
L 187.134313 100.837382 
L 188.62414 100.837382 
L 188.836973 100.619319 
L 189.688303 100.619319 
L 189.901135 100.401255 
L 190.3268 100.401255 
L 190.539632 100.183191 
L 193.306454 100.183191 
L 193.732119 99.310936 
L 200.117093 99.310936 
L 200.329926 99.092872 
L 203.948077 99.092872 
L 204.16091 98.874808 
L 214.376868 98.874808 
L 214.5897 98.656744 
L 222.251669 98.656744 
L 222.464501 98.43868 
L 230.552135 98.43868 
L 230.764967 98.220617 
L 233.957454 98.220617 
L 234.170287 98.002553 
L 242.896417 98.002553 
L 243.10925 97.784489 
L 243.322082 97.784489 
L 243.534915 97.566425 
L 252.261046 97.566425 
L 252.473878 97.348361 
L 252.899543 97.348361 
L 253.112375 97.130297 
L 255.2407 97.130297 
L 255.453533 96.912234 
L 256.517695 96.912234 
L 256.730527 96.69417 
L 257.79469 96.69417 
L 258.007522 96.476106 
L 265.669491 96.476106 
L 265.882323 96.258042 
L 266.095155 96.258042 
L 266.307988 96.039978 
L 274.608454 96.039978 
L 275.034119 95.603851 
L 279.5036 95.603851 
L 279.716433 95.385787 
L 283.547417 95.385787 
L 283.76025 95.167723 
L 292.912045 95.167723 
L 293.124878 94.949659 
L 303.766501 94.949659 
L 303.979333 94.731595 
L 310.789972 94.731595 
L 311.002804 94.513532 
L 313.343961 94.513532 
L 313.556794 94.295468 
L 316.110783 94.295468 
L 316.323616 94.077404 
L 316.536448 94.077404 
L 316.749281 93.641276 
L 324.836914 93.641276 
L 325.049747 93.423213 
L 328.029401 93.423213 
L 328.242234 93.205149 
L 329.944893 93.205149 
L 330.583391 92.550957 
L 334.627207 92.550957 
L 334.84004 92.332893 
L 341.863511 92.332893 
L 342.076343 92.11483 
L 342.714841 92.11483 
L 342.927673 91.896766 
L 343.779003 91.896766 
L 343.991836 91.678702 
L 352.505134 91.678702 
L 352.717966 91.460638 
L 353.356464 91.460638 
L 353.569296 91.242574 
L 356.548951 91.242574 
L 356.761783 90.806447 
L 357.187448 90.806447 
L 357.400281 90.152255 
L 371.23439 90.152255 
L 371.447223 89.716128 
L 373.575547 89.716128 
L 373.78838 89.498064 
L 374.001212 89.498064 
L 374.214045 89.28 
L 375.916705 89.28 
L 375.916705 89.28 
" clip-path="url(#pcffe4ee879)" style="fill: none; stroke: #c957db; stroke-width: 1.2; stroke-linecap: round"/>
   </g>
   <g id="line2d_44"/>
   <g id="line2d_45"/>
   <g id="line2d_46"/>
   <g id="line2d_47"/>
   <g id="line2d_48"/>
   <g id="patch_3">
    <path d="M 54.3375 512.64 
L 54.3375 69.12 
" style="fill: none; stroke: #cccccc; stroke-linejoin: miter; stroke-linecap: square"/>
   </g>
   <g id="patch_4">
    <path d="M 54.3375 512.64 
L 391.23 512.64 
" style="fill: none; stroke: #cccccc; stroke-linejoin: miter; stroke-linecap: square"/>
   </g>
   <g id="text_41">
    <!-- Edge Coverage History -->
    <g style="fill: #262626" transform="translate(115.892262 63.12)scale(0.165888 -0.165888)">
     <defs>
      <path id="DejaVuSans-Bold-45" d="M 588 4666 
L 3834 4666 
L 3834 3756 
L 1791 3756 
L 1791 2888 
L 3713 2888 
L 3713 1978 
L 1791 1978 
L 1791 909 
L 3903 909 
L 3903 0 
L 588 0 
L 588 4666 
z
" transform="scale(0.015625)"/>
      <path id="DejaVuSans-Bold-64" d="M 2919 2988 
L 2919 4863 
L 4044 4863 
L 4044 0 
L 2919 0 
L 2919 506 
Q 2688 197 2409 53 
Q 2131 -91 1766 -91 
Q 1119 -91 703 423 
Q 288 938 288 1747 
Q 288 2556 703 3070 
Q 1119 3584 1766 3584 
Q 2128 3584 2408 3439 
Q 2688 3294 2919 2988 
z
M 2181 722 
Q 2541 722 2730 984 
Q 2919 1247 2919 1747 
Q 2919 2247 2730 2509 
Q 2541 2772 2181 2772 
Q 1825 2772 1636 2509 
Q 1447 2247 1447 1747 
Q 1447 1247 1636 984 
Q 1825 722 2181 722 
z
" transform="scale(0.015625)"/>
      <path id="DejaVuSans-Bold-67" d="M 2919 594 
Q 2688 288 2409 144 
Q 2131 0 1766 0 
Q 1125 0 706 504 
Q 288 1009 288 1791 
Q 288 2575 706 3076 
Q 1125 3578 1766 3578 
Q 2131 3578 2409 3434 
Q 2688 3291 2919 2981 
L 2919 3500 
L 4044 3500 
L 4044 353 
Q 4044 -491 3511 -936 
Q 2978 -1381 1966 -1381 
Q 1638 -1381 1331 -1331 
Q 1025 -1281 716 -1178 
L 716 -306 
Q 1009 -475 1290 -558 
Q 1572 -641 1856 -641 
Q 2406 -641 2662 -400 
Q 2919 -159 2919 353 
L 2919 594 
z
M 2181 2772 
Q 1834 2772 1640 2515 
Q 1447 2259 1447 1791 
Q 1447 1309 1634 1061 
Q 1822 813 2181 813 
Q 2531 813 2725 1069 
Q 2919 1325 2919 1791 
Q 2919 2259 2725 2515 
Q 2531 2772 2181 2772 
z
" transform="scale(0.015625)"/>
      <path id="DejaVuSans-Bold-65" d="M 4031 1759 
L 4031 1441 
L 1416 1441 
Q 1456 1047 1700 850 
Q 1944 653 2381 653 
Q 2734 653 3104 758 
Q 3475 863 3866 1075 
L 3866 213 
Q 3469 63 3072 -14 
Q 2675 -91 2278 -91 
Q 1328 -91 801 392 
Q 275 875 275 1747 
Q 275 2603 792 3093 
Q 1309 3584 2216 3584 
Q 3041 3584 3536 3087 
Q 4031 2591 4031 1759 
z
M 2881 2131 
Q 2881 2450 2695 2645 
Q 2509 2841 2209 2841 
Q 1884 2841 1681 2658 
Q 1478 2475 1428 2131 
L 2881 2131 
z
" transform="scale(0.015625)"/>
      <path id="DejaVuSans-Bold-20" transform="scale(0.015625)"/>
      <path id="DejaVuSans-Bold-43" d="M 4288 256 
Q 3956 84 3597 -3 
Q 3238 -91 2847 -91 
Q 1681 -91 1000 561 
Q 319 1213 319 2328 
Q 319 3447 1000 4098 
Q 1681 4750 2847 4750 
Q 3238 4750 3597 4662 
Q 3956 4575 4288 4403 
L 4288 3438 
Q 3953 3666 3628 3772 
Q 3303 3878 2944 3878 
Q 2300 3878 1931 3465 
Q 1563 3053 1563 2328 
Q 1563 1606 1931 1193 
Q 2300 781 2944 781 
Q 3303 781 3628 887 
Q 3953 994 4288 1222 
L 4288 256 
z
" transform="scale(0.015625)"/>
      <path id="DejaVuSans-Bold-6f" d="M 2203 2784 
Q 1831 2784 1636 2517 
Q 1441 2250 1441 1747 
Q 1441 1244 1636 976 
Q 1831 709 2203 709 
Q 2569 709 2762 976 
Q 2956 1244 2956 1747 
Q 2956 2250 2762 2517 
Q 2569 2784 2203 2784 
z
M 2203 3584 
Q 3106 3584 3614 3096 
Q 4122 2609 4122 1747 
Q 4122 884 3614 396 
Q 3106 -91 2203 -91 
Q 1297 -91 786 396 
Q 275 884 275 1747 
Q 275 2609 786 3096 
Q 1297 3584 2203 3584 
z
" transform="scale(0.015625)"/>
      <path id="DejaVuSans-Bold-76" d="M 97 3500 
L 1216 3500 
L 2088 1081 
L 2956 3500 
L 4078 3500 
L 2700 0 
L 1472 0 
L 97 3500 
z
" transform="scale(0.015625)"/>
      <path id="DejaVuSans-Bold-72" d="M 3138 2547 
Q 2991 2616 2845 2648 
Q 2700 2681 2553 2681 
Q 2122 2681 1889 2404 
Q 1656 2128 1656 1613 
L 1656 0 
L 538 0 
L 538 3500 
L 1656 3500 
L 1656 2925 
Q 1872 3269 2151 3426 
Q 2431 3584 2822 3584 
Q 2878 3584 2943 3579 
Q 3009 3575 3134 3559 
L 3138 2547 
z
" transform="scale(0.015625)"/>
      <path id="DejaVuSans-Bold-61" d="M 2106 1575 
Q 1756 1575 1579 1456 
Q 1403 1338 1403 1106 
Q 1403 894 1545 773 
Q 1688 653 1941 653 
Q 2256 653 2472 879 
Q 2688 1106 2688 1447 
L 2688 1575 
L 2106 1575 
z
M 3816 1997 
L 3816 0 
L 2688 0 
L 2688 519 
Q 2463 200 2181 54 
Q 1900 -91 1497 -91 
Q 953 -91 614 226 
Q 275 544 275 1050 
Q 275 1666 698 1953 
Q 1122 2241 2028 2241 
L 2688 2241 
L 2688 2328 
Q 2688 2594 2478 2717 
Q 2269 2841 1825 2841 
Q 1466 2841 1156 2769 
Q 847 2697 581 2553 
L 581 3406 
Q 941 3494 1303 3539 
Q 1666 3584 2028 3584 
Q 2975 3584 3395 3211 
Q 3816 2838 3816 1997 
z
" transform="scale(0.015625)"/>
      <path id="DejaVuSans-Bold-48" d="M 588 4666 
L 1791 4666 
L 1791 2888 
L 3566 2888 
L 3566 4666 
L 4769 4666 
L 4769 0 
L 3566 0 
L 3566 1978 
L 1791 1978 
L 1791 0 
L 588 0 
L 588 4666 
z
" transform="scale(0.015625)"/>
      <path id="DejaVuSans-Bold-69" d="M 538 3500 
L 1656 3500 
L 1656 0 
L 538 0 
L 538 3500 
z
M 538 4863 
L 1656 4863 
L 1656 3950 
L 538 3950 
L 538 4863 
z
" transform="scale(0.015625)"/>
      <path id="DejaVuSans-Bold-73" d="M 3272 3391 
L 3272 2541 
Q 2913 2691 2578 2766 
Q 2244 2841 1947 2841 
Q 1628 2841 1473 2761 
Q 1319 2681 1319 2516 
Q 1319 2381 1436 2309 
Q 1553 2238 1856 2203 
L 2053 2175 
Q 2913 2066 3209 1816 
Q 3506 1566 3506 1031 
Q 3506 472 3093 190 
Q 2681 -91 1863 -91 
Q 1516 -91 1145 -36 
Q 775 19 384 128 
L 384 978 
Q 719 816 1070 734 
Q 1422 653 1784 653 
Q 2113 653 2278 743 
Q 2444 834 2444 1013 
Q 2444 1163 2330 1236 
Q 2216 1309 1875 1350 
L 1678 1375 
Q 931 1469 631 1722 
Q 331 1975 331 2491 
Q 331 3047 712 3315 
Q 1094 3584 1881 3584 
Q 2191 3584 2531 3537 
Q 2872 3491 3272 3391 
z
" transform="scale(0.015625)"/>
      <path id="DejaVuSans-Bold-74" d="M 1759 4494 
L 1759 3500 
L 2913 3500 
L 2913 2700 
L 1759 2700 
L 1759 1216 
Q 1759 972 1856 886 
Q 1953 800 2241 800 
L 2816 800 
L 2816 0 
L 1856 0 
Q 1194 0 917 276 
Q 641 553 641 1216 
L 641 2700 
L 84 2700 
L 84 3500 
L 641 3500 
L 641 4494 
L 1759 4494 
z
" transform="scale(0.015625)"/>
      <path id="DejaVuSans-Bold-79" d="M 78 3500 
L 1197 3500 
L 2138 1125 
L 2938 3500 
L 4056 3500 
L 2584 -331 
Q 2363 -916 2067 -1148 
Q 1772 -1381 1288 -1381 
L 641 -1381 
L 641 -647 
L 991 -647 
Q 1275 -647 1404 -556 
Q 1534 -466 1606 -231 
L 1638 -134 
L 78 3500 
z
" transform="scale(0.015625)"/>
     </defs>
     <use xlink:href="#DejaVuSans-Bold-45"/>
     <use xlink:href="#DejaVuSans-Bold-64" x="68.310547"/>
     <use xlink:href="#DejaVuSans-Bold-67" x="139.892578"/>
     <use xlink:href="#DejaVuSans-Bold-65" x="211.474609"/>
     <use xlink:href="#DejaVuSans-Bold-20" x="279.296875"/>
     <use xlink:href="#DejaVuSans-Bold-43" x="314.111328"/>
     <use xlink:href="#DejaVuSans-Bold-6f" x="387.5"/>
     <use xlink:href="#DejaVuSans-Bold-76" x="456.201172"/>
     <use xlink:href="#DejaVuSans-Bold-65" x="521.386719"/>
     <use xlink:href="#DejaVuSans-Bold-72" x="589.208984"/>
     <use xlink:href="#DejaVuSans-Bold-61" x="638.525391"/>
     <use xlink:href="#DejaVuSans-Bold-67" x="706.005859"/>
     <use xlink:href="#DejaVuSans-Bold-65" x="777.587891"/>
     <use xlink:href="#DejaVuSans-Bold-20" x="845.410156"/>
     <use xlink:href="#DejaVuSans-Bold-48" x="880.224609"/>
     <use xlink:href="#DejaVuSans-Bold-69" x="963.916016"/>
     <use xlink:href="#DejaVuSans-Bold-73" x="998.193359"/>
     <use xlink:href="#DejaVuSans-Bold-74" x="1057.714844"/>
     <use xlink:href="#DejaVuSans-Bold-6f" x="1105.517578"/>
     <use xlink:href="#DejaVuSans-Bold-72" x="1174.21875"/>
     <use xlink:href="#DejaVuSans-Bold-79" x="1223.535156"/>
    </g>
   </g>
   <g id="legend_1">
    <g id="patch_5">
     <path d="M 267.942 508.24 
L 385.07 508.24 
Q 386.83 508.24 386.83 506.48 
L 386.83 428.8405 
Q 386.83 427.0805 385.07 427.0805 
L 267.942 427.0805 
Q 266.182 427.0805 266.182 428.8405 
L 266.182 506.48 
Q 266.182 508.24 267.942 508.24 
z
" style="fill: #ffffff; opacity: 0.8; stroke: #cccccc; stroke-width: 0.8; stroke-linejoin: miter"/>
    </g>
    <g id="text_42">
     <!-- fuzzer -->
     <g style="fill: #262626" transform="translate(311.809 437.895)scale(0.096 -0.096)">
      <defs>
       <path id="DejaVuSans-66" d="M 2375 4863 
L 2375 4384 
L 1825 4384 
Q 1516 4384 1395 4259 
Q 1275 4134 1275 3809 
L 1275 3500 
L 2222 3500 
L 2222 3053 
L 1275 3053 
L 1275 0 
L 697 0 
L 697 3053 
L 147 3053 
L 147 3500 
L 697 3500 
L 697 3744 
Q 697 4328 969 4595 
Q 1241 4863 1831 4863 
L 2375 4863 
z
" transform="scale(0.015625)"/>
       <path id="DejaVuSans-7a" d="M 353 3500 
L 3084 3500 
L 3084 2975 
L 922 459 
L 3084 459 
L 3084 0 
L 275 0 
L 275 525 
L 2438 3041 
L 353 3041 
L 353 3500 
z
" transform="scale(0.015625)"/>
      </defs>
      <use xlink:href="#DejaVuSans-66"/>
      <use xlink:href="#DejaVuSans-75" x="35.205078"/>
      <use xlink:href="#DejaVuSans-7a" x="98.583984"/>
      <use xlink:href="#DejaVuSans-7a" x="151.074219"/>
      <use xlink:href="#DejaVuSans-65" x="203.564453"/>
      <use xlink:href="#DejaVuSans-72" x="265.087891"/>
     </g>
    </g>
    <g id="line2d_49">
     <path d="M 269.702 447.898125 
L 278.502 447.898125 
L 287.302 447.898125 
" style="fill: none; stroke: #db5f57; stroke-width: 1.2; stroke-linecap: round"/>
    </g>
    <g id="text_43">
     <!-- fairfuzz-0-exid24 -->
     <g style="fill: #262626" transform="translate(294.342 450.978125)scale(0.088 -0.088)">
      <defs>
       <path id="DejaVuSans-2d" d="M 313 2009 
L 1997 2009 
L 1997 1497 
L 313 1497 
L 313 2009 
z
" transform="scale(0.015625)"/>
       <path id="DejaVuSans-78" d="M 3513 3500 
L 2247 1797 
L 3578 0 
L 2900 0 
L 1881 1375 
L 863 0 
L 184 0 
L 1544 1831 
L 300 3500 
L 978 3500 
L 1906 2253 
L 2834 3500 
L 3513 3500 
z
" transform="scale(0.015625)"/>
      </defs>
      <use xlink:href="#DejaVuSans-66"/>
      <use xlink:href="#DejaVuSans-61" x="35.205078"/>
      <use xlink:href="#DejaVuSans-69" x="96.484375"/>
      <use xlink:href="#DejaVuSans-72" x="124.267578"/>
      <use xlink:href="#DejaVuSans-66" x="165.380859"/>
      <use xlink:href="#DejaVuSans-75" x="200.585938"/>
      <use xlink:href="#DejaVuSans-7a" x="263.964844"/>
      <use xlink:href="#DejaVuSans-7a" x="316.455078"/>
      <use xlink:href="#DejaVuSans-2d" x="368.945312"/>
      <use xlink:href="#DejaVuSans-30" x="405.029297"/>
      <use xlink:href="#DejaVuSans-2d" x="468.652344"/>
      <use xlink:href="#DejaVuSans-65" x="504.736328"/>
      <use xlink:href="#DejaVuSans-78" x="564.509766"/>
      <use xlink:href="#DejaVuSans-69" x="623.689453"/>
      <use xlink:href="#DejaVuSans-64" x="651.472656"/>
      <use xlink:href="#DejaVuSans-32" x="714.949219"/>
      <use xlink:href="#DejaVuSans-34" x="778.572266"/>
     </g>
    </g>
    <g id="line2d_50">
     <path d="M 269.702 460.814875 
L 278.502 460.814875 
L 287.302 460.814875 
" style="fill: none; stroke: #b9db57; stroke-width: 1.2; stroke-linecap: round"/>
    </g>
    <g id="text_44">
     <!-- aflfast-0-exid24 -->
     <g style="fill: #262626" transform="translate(294.342 463.894875)scale(0.088 -0.088)">
      <defs>
       <path id="DejaVuSans-6c" d="M 603 4863 
L 1178 4863 
L 1178 0 
L 603 0 
L 603 4863 
z
" transform="scale(0.015625)"/>
      </defs>
      <use xlink:href="#DejaVuSans-61"/>
      <use xlink:href="#DejaVuSans-66" x="61.279297"/>
      <use xlink:href="#DejaVuSans-6c" x="96.484375"/>
      <use xlink:href="#DejaVuSans-66" x="124.267578"/>
      <use xlink:href="#DejaVuSans-61" x="159.472656"/>
      <use xlink:href="#DejaVuSans-73" x="220.751953"/>
      <use xlink:href="#DejaVuSans-74" x="272.851562"/>
      <use xlink:href="#DejaVuSans-2d" x="312.060547"/>
      <use xlink:href="#DejaVuSans-30" x="348.144531"/>
      <use xlink:href="#DejaVuSans-2d" x="411.767578"/>
      <use xlink:href="#DejaVuSans-65" x="447.851562"/>
      <use xlink:href="#DejaVuSans-78" x="507.625"/>
      <use xlink:href="#DejaVuSans-69" x="566.804688"/>
      <use xlink:href="#DejaVuSans-64" x="594.587891"/>
      <use xlink:href="#DejaVuSans-32" x="658.064453"/>
      <use xlink:href="#DejaVuSans-34" x="721.6875"/>
     </g>
    </g>
    <g id="line2d_51">
     <path d="M 269.702 473.731625 
L 278.502 473.731625 
L 287.302 473.731625 
" style="fill: none; stroke: #57db94; stroke-width: 1.2; stroke-linecap: round"/>
    </g>
    <g id="text_45">
     <!-- afl-0-exid24 -->
     <g style="fill: #262626" transform="translate(294.342 476.811625)scale(0.088 -0.088)">
      <use xlink:href="#DejaVuSans-61"/>
      <use xlink:href="#DejaVuSans-66" x="61.279297"/>
      <use xlink:href="#DejaVuSans-6c" x="96.484375"/>
      <use xlink:href="#DejaVuSans-2d" x="124.267578"/>
      <use xlink:href="#DejaVuSans-30" x="160.351562"/>
      <use xlink:href="#DejaVuSans-2d" x="223.974609"/>
      <use xlink:href="#DejaVuSans-65" x="260.058594"/>
      <use xlink:href="#DejaVuSans-78" x="319.832031"/>
      <use xlink:href="#DejaVuSans-69" x="379.011719"/>
      <use xlink:href="#DejaVuSans-64" x="406.794922"/>
      <use xlink:href="#DejaVuSans-32" x="470.271484"/>
      <use xlink:href="#DejaVuSans-34" x="533.894531"/>
     </g>
    </g>
    <g id="line2d_52">
     <path d="M 269.702 486.648375 
L 278.502 486.648375 
L 287.302 486.648375 
" style="fill: none; stroke: #5784db; stroke-width: 1.2; stroke-linecap: round"/>
    </g>
    <g id="text_46">
     <!-- aflplusplus-0-exid24 -->
     <g style="fill: #262626" transform="translate(294.342 489.728375)scale(0.088 -0.088)">
      <defs>
       <path id="DejaVuSans-70" d="M 1159 525 
L 1159 -1331 
L 581 -1331 
L 581 3500 
L 1159 3500 
L 1159 2969 
Q 1341 3281 1617 3432 
Q 1894 3584 2278 3584 
Q 2916 3584 3314 3078 
Q 3713 2572 3713 1747 
Q 3713 922 3314 415 
Q 2916 -91 2278 -91 
Q 1894 -91 1617 61 
Q 1341 213 1159 525 
z
M 3116 1747 
Q 3116 2381 2855 2742 
Q 2594 3103 2138 3103 
Q 1681 3103 1420 2742 
Q 1159 2381 1159 1747 
Q 1159 1113 1420 752 
Q 1681 391 2138 391 
Q 2594 391 2855 752 
Q 3116 1113 3116 1747 
z
" transform="scale(0.015625)"/>
      </defs>
      <use xlink:href="#DejaVuSans-61"/>
      <use xlink:href="#DejaVuSans-66" x="61.279297"/>
      <use xlink:href="#DejaVuSans-6c" x="96.484375"/>
      <use xlink:href="#DejaVuSans-70" x="124.267578"/>
      <use xlink:href="#DejaVuSans-6c" x="187.744141"/>
      <use xlink:href="#DejaVuSans-75" x="215.527344"/>
      <use xlink:href="#DejaVuSans-73" x="278.90625"/>
      <use xlink:href="#DejaVuSans-70" x="331.005859"/>
      <use xlink:href="#DejaVuSans-6c" x="394.482422"/>
      <use xlink:href="#DejaVuSans-75" x="422.265625"/>
      <use xlink:href="#DejaVuSans-73" x="485.644531"/>
      <use xlink:href="#DejaVuSans-2d" x="537.744141"/>
      <use xlink:href="#DejaVuSans-30" x="573.828125"/>
      <use xlink:href="#DejaVuSans-2d" x="637.451172"/>
      <use xlink:href="#DejaVuSans-65" x="673.535156"/>
      <use xlink:href="#DejaVuSans-78" x="733.308594"/>
      <use xlink:href="#DejaVuSans-69" x="792.488281"/>
      <use xlink:href="#DejaVuSans-64" x="820.271484"/>
      <use xlink:href="#DejaVuSans-32" x="883.748047"/>
      <use xlink:href="#DejaVuSans-34" x="947.371094"/>
     </g>
    </g>
    <g id="line2d_53">
     <path d="M 269.702 499.565125 
L 278.502 499.565125 
L 287.302 499.565125 
" style="fill: none; stroke: #c957db; stroke-width: 1.2; stroke-linecap: round"/>
    </g>
    <g id="text_47">
     <!-- fuzzer_global -->
     <g style="fill: #262626" transform="translate(294.342 502.645125)scale(0.088 -0.088)">
      <defs>
       <path id="DejaVuSans-5f" d="M 3263 -1063 
L 3263 -1509 
L -63 -1509 
L -63 -1063 
L 3263 -1063 
z
" transform="scale(0.015625)"/>
       <path id="DejaVuSans-62" d="M 3116 1747 
Q 3116 2381 2855 2742 
Q 2594 3103 2138 3103 
Q 1681 3103 1420 2742 
Q 1159 2381 1159 1747 
Q 1159 1113 1420 752 
Q 1681 391 2138 391 
Q 2594 391 2855 752 
Q 3116 1113 3116 1747 
z
M 1159 2969 
Q 1341 3281 1617 3432 
Q 1894 3584 2278 3584 
Q 2916 3584 3314 3078 
Q 3713 2572 3713 1747 
Q 3713 922 3314 415 
Q 2916 -91 2278 -91 
Q 1894 -91 1617 61 
Q 1341 213 1159 525 
L 1159 0 
L 581 0 
L 581 4863 
L 1159 4863 
L 1159 2969 
z
" transform="scale(0.015625)"/>
      </defs>
      <use xlink:href="#DejaVuSans-66"/>
      <use xlink:href="#DejaVuSans-75" x="35.205078"/>
      <use xlink:href="#DejaVuSans-7a" x="98.583984"/>
      <use xlink:href="#DejaVuSans-7a" x="151.074219"/>
      <use xlink:href="#DejaVuSans-65" x="203.564453"/>
      <use xlink:href="#DejaVuSans-72" x="265.087891"/>
      <use xlink:href="#DejaVuSans-5f" x="306.201172"/>
      <use xlink:href="#DejaVuSans-67" x="356.201172"/>
      <use xlink:href="#DejaVuSans-6c" x="419.677734"/>
      <use xlink:href="#DejaVuSans-6f" x="447.460938"/>
      <use xlink:href="#DejaVuSans-62" x="508.642578"/>
      <use xlink:href="#DejaVuSans-61" x="572.119141"/>
      <use xlink:href="#DejaVuSans-6c" x="633.398438"/>
     </g>
    </g>
   </g>
  </g>
 </g>
 <defs>
  <clipPath id="pcffe4ee879">
   <rect x="54.3375" y="69.12" width="336.8925" height="443.52"/>
  </clipPath>
 </defs>
</svg>
