<?xml version="1.0" encoding="utf-8" standalone="no"?>
<!DOCTYPE svg PUBLIC "-//W3C//DTD SVG 1.1//EN"
  "http://www.w3.org/Graphics/SVG/1.1/DTD/svg11.dtd">
<svg xmlns:xlink="http://www.w3.org/1999/xlink" width="434.7pt" height="576pt" viewBox="0 0 434.7 576" xmlns="http://www.w3.org/2000/svg" version="1.1">
 <metadata>
  <rdf:RDF xmlns:dc="http://purl.org/dc/elements/1.1/" xmlns:cc="http://creativecommons.org/ns#" xmlns:rdf="http://www.w3.org/1999/02/22-rdf-syntax-ns#">
   <cc:Work>
    <dc:type rdf:resource="http://purl.org/dc/dcmitype/StillImage"/>
    <dc:date>2022-09-15T10:35:06.505641</dc:date>
    <dc:format>image/svg+xml</dc:format>
    <dc:creator>
     <cc:Agent>
      <dc:title>Matplotlib v3.5.3, https://matplotlib.org/</dc:title>
     </cc:Agent>
    </dc:creator>
   </cc:Work>
  </rdf:RDF>
 </metadata>
 <defs>
  <style type="text/css">*{stroke-linejoin: round; stroke-linecap: butt}</style>
 </defs>
 <g id="figure_1">
  <g id="patch_1">
   <path d="M 0 576 
L 434.7 576 
L 434.7 0 
L 0 0 
z
" style="fill: #ffffff"/>
  </g>
  <g id="axes_1">
   <g id="patch_2">
    <path d="M 54.3375 512.64 
L 391.23 512.64 
L 391.23 69.12 
L 54.3375 69.12 
z
" style="fill: #ffffff"/>
   </g>
   <g id="matplotlib.axis_1">
    <g id="xtick_1">
     <g id="line2d_1">
      <path d="M 69.650795 512.64 
L 69.650795 69.12 
" clip-path="url(#pe1bbdccf47)" style="fill: none; stroke: #cccccc; stroke-width: 0.8; stroke-linecap: round"/>
     </g>
     <g id="text_1">
      <!-- 0 -->
      <g style="fill: #262626" transform="translate(69.388282 529.627249)rotate(-45)scale(0.088 -0.088)">
       <defs>
        <path id="DejaVuSans-30" d="M 2034 4250 
Q 1547 4250 1301 3770 
Q 1056 3291 1056 2328 
Q 1056 1369 1301 889 
Q 1547 409 2034 409 
Q 2525 409 2770 889 
Q 3016 1369 3016 2328 
Q 3016 3291 2770 3770 
Q 2525 4250 2034 4250 
z
M 2034 4750 
Q 2819 4750 3233 4129 
Q 3647 3509 3647 2328 
Q 3647 1150 3233 529 
Q 2819 -91 2034 -91 
Q 1250 -91 836 529 
Q 422 1150 422 2328 
Q 422 3509 836 4129 
Q 1250 4750 2034 4750 
z
" transform="scale(0.015625)"/>
       </defs>
       <use xlink:href="#DejaVuSans-30"/>
      </g>
     </g>
    </g>
    <g id="xtick_2">
     <g id="line2d_2">
      <path d="M 86.677392 512.64 
L 86.677392 69.12 
" clip-path="url(#pe1bbdccf47)" style="fill: none; stroke: #cccccc; stroke-width: 0.8; stroke-linecap: round"/>
     </g>
     <g id="text_2">
      <!-- 80 -->
      <g style="fill: #262626" transform="translate(84.435333 533.58634)rotate(-45)scale(0.088 -0.088)">
       <defs>
        <path id="DejaVuSans-38" d="M 2034 2216 
Q 1584 2216 1326 1975 
Q 1069 1734 1069 1313 
Q 1069 891 1326 650 
Q 1584 409 2034 409 
Q 2484 409 2743 651 
Q 3003 894 3003 1313 
Q 3003 1734 2745 1975 
Q 2488 2216 2034 2216 
z
M 1403 2484 
Q 997 2584 770 2862 
Q 544 3141 544 3541 
Q 544 4100 942 4425 
Q 1341 4750 2034 4750 
Q 2731 4750 3128 4425 
Q 3525 4100 3525 3541 
Q 3525 3141 3298 2862 
Q 3072 2584 2669 2484 
Q 3125 2378 3379 2068 
Q 3634 1759 3634 1313 
Q 3634 634 3220 271 
Q 2806 -91 2034 -91 
Q 1263 -91 848 271 
Q 434 634 434 1313 
Q 434 1759 690 2068 
Q 947 2378 1403 2484 
z
M 1172 3481 
Q 1172 3119 1398 2916 
Q 1625 2713 2034 2713 
Q 2441 2713 2670 2916 
Q 2900 3119 2900 3481 
Q 2900 3844 2670 4047 
Q 2441 4250 2034 4250 
Q 1625 4250 1398 4047 
Q 1172 3844 1172 3481 
z
" transform="scale(0.015625)"/>
       </defs>
       <use xlink:href="#DejaVuSans-38"/>
       <use xlink:href="#DejaVuSans-30" x="63.623047"/>
      </g>
     </g>
    </g>
    <g id="xtick_3">
     <g id="line2d_3">
      <path d="M 103.703989 512.64 
L 103.703989 69.12 
" clip-path="url(#pe1bbdccf47)" style="fill: none; stroke: #cccccc; stroke-width: 0.8; stroke-linecap: round"/>
     </g>
     <g id="text_3">
      <!-- 160 -->
      <g style="fill: #262626" transform="translate(99.482385 537.54543)rotate(-45)scale(0.088 -0.088)">
       <defs>
        <path id="DejaVuSans-31" d="M 794 531 
L 1825 531 
L 1825 4091 
L 703 3866 
L 703 4441 
L 1819 4666 
L 2450 4666 
L 2450 531 
L 3481 531 
L 3481 0 
L 794 0 
L 794 531 
z
" transform="scale(0.015625)"/>
        <path id="DejaVuSans-36" d="M 2113 2584 
Q 1688 2584 1439 2293 
Q 1191 2003 1191 1497 
Q 1191 994 1439 701 
Q 1688 409 2113 409 
Q 2538 409 2786 701 
Q 3034 994 3034 1497 
Q 3034 2003 2786 2293 
Q 2538 2584 2113 2584 
z
M 3366 4563 
L 3366 3988 
Q 3128 4100 2886 4159 
Q 2644 4219 2406 4219 
Q 1781 4219 1451 3797 
Q 1122 3375 1075 2522 
Q 1259 2794 1537 2939 
Q 1816 3084 2150 3084 
Q 2853 3084 3261 2657 
Q 3669 2231 3669 1497 
Q 3669 778 3244 343 
Q 2819 -91 2113 -91 
Q 1303 -91 875 529 
Q 447 1150 447 2328 
Q 447 3434 972 4092 
Q 1497 4750 2381 4750 
Q 2619 4750 2861 4703 
Q 3103 4656 3366 4563 
z
" transform="scale(0.015625)"/>
       </defs>
       <use xlink:href="#DejaVuSans-31"/>
       <use xlink:href="#DejaVuSans-36" x="63.623047"/>
       <use xlink:href="#DejaVuSans-30" x="127.246094"/>
      </g>
     </g>
    </g>
    <g id="xtick_4">
     <g id="line2d_4">
      <path d="M 120.730586 512.64 
L 120.730586 69.12 
" clip-path="url(#pe1bbdccf47)" style="fill: none; stroke: #cccccc; stroke-width: 0.8; stroke-linecap: round"/>
     </g>
     <g id="text_4">
      <!-- 240 -->
      <g style="fill: #262626" transform="translate(116.508981 537.54543)rotate(-45)scale(0.088 -0.088)">
       <defs>
        <path id="DejaVuSans-32" d="M 1228 531 
L 3431 531 
L 3431 0 
L 469 0 
L 469 531 
Q 828 903 1448 1529 
Q 2069 2156 2228 2338 
Q 2531 2678 2651 2914 
Q 2772 3150 2772 3378 
Q 2772 3750 2511 3984 
Q 2250 4219 1831 4219 
Q 1534 4219 1204 4116 
Q 875 4013 500 3803 
L 500 4441 
Q 881 4594 1212 4672 
Q 1544 4750 1819 4750 
Q 2544 4750 2975 4387 
Q 3406 4025 3406 3419 
Q 3406 3131 3298 2873 
Q 3191 2616 2906 2266 
Q 2828 2175 2409 1742 
Q 1991 1309 1228 531 
z
" transform="scale(0.015625)"/>
        <path id="DejaVuSans-34" d="M 2419 4116 
L 825 1625 
L 2419 1625 
L 2419 4116 
z
M 2253 4666 
L 3047 4666 
L 3047 1625 
L 3713 1625 
L 3713 1100 
L 3047 1100 
L 3047 0 
L 2419 0 
L 2419 1100 
L 313 1100 
L 313 1709 
L 2253 4666 
z
" transform="scale(0.015625)"/>
       </defs>
       <use xlink:href="#DejaVuSans-32"/>
       <use xlink:href="#DejaVuSans-34" x="63.623047"/>
       <use xlink:href="#DejaVuSans-30" x="127.246094"/>
      </g>
     </g>
    </g>
    <g id="xtick_5">
     <g id="line2d_5">
      <path d="M 137.757182 512.64 
L 137.757182 69.12 
" clip-path="url(#pe1bbdccf47)" style="fill: none; stroke: #cccccc; stroke-width: 0.8; stroke-linecap: round"/>
     </g>
     <g id="text_5">
      <!-- 320 -->
      <g style="fill: #262626" transform="translate(133.535578 537.54543)rotate(-45)scale(0.088 -0.088)">
       <defs>
        <path id="DejaVuSans-33" d="M 2597 2516 
Q 3050 2419 3304 2112 
Q 3559 1806 3559 1356 
Q 3559 666 3084 287 
Q 2609 -91 1734 -91 
Q 1441 -91 1130 -33 
Q 819 25 488 141 
L 488 750 
Q 750 597 1062 519 
Q 1375 441 1716 441 
Q 2309 441 2620 675 
Q 2931 909 2931 1356 
Q 2931 1769 2642 2001 
Q 2353 2234 1838 2234 
L 1294 2234 
L 1294 2753 
L 1863 2753 
Q 2328 2753 2575 2939 
Q 2822 3125 2822 3475 
Q 2822 3834 2567 4026 
Q 2313 4219 1838 4219 
Q 1578 4219 1281 4162 
Q 984 4106 628 3988 
L 628 4550 
Q 988 4650 1302 4700 
Q 1616 4750 1894 4750 
Q 2613 4750 3031 4423 
Q 3450 4097 3450 3541 
Q 3450 3153 3228 2886 
Q 3006 2619 2597 2516 
z
" transform="scale(0.015625)"/>
       </defs>
       <use xlink:href="#DejaVuSans-33"/>
       <use xlink:href="#DejaVuSans-32" x="63.623047"/>
       <use xlink:href="#DejaVuSans-30" x="127.246094"/>
      </g>
     </g>
    </g>
    <g id="xtick_6">
     <g id="line2d_6">
      <path d="M 154.783779 512.64 
L 154.783779 69.12 
" clip-path="url(#pe1bbdccf47)" style="fill: none; stroke: #cccccc; stroke-width: 0.8; stroke-linecap: round"/>
     </g>
     <g id="text_6">
      <!-- 400 -->
      <g style="fill: #262626" transform="translate(150.562175 537.54543)rotate(-45)scale(0.088 -0.088)">
       <use xlink:href="#DejaVuSans-34"/>
       <use xlink:href="#DejaVuSans-30" x="63.623047"/>
       <use xlink:href="#DejaVuSans-30" x="127.246094"/>
      </g>
     </g>
    </g>
    <g id="xtick_7">
     <g id="line2d_7">
      <path d="M 171.810376 512.64 
L 171.810376 69.12 
" clip-path="url(#pe1bbdccf47)" style="fill: none; stroke: #cccccc; stroke-width: 0.8; stroke-linecap: round"/>
     </g>
     <g id="text_7">
      <!-- 480 -->
      <g style="fill: #262626" transform="translate(167.588772 537.54543)rotate(-45)scale(0.088 -0.088)">
       <use xlink:href="#DejaVuSans-34"/>
       <use xlink:href="#DejaVuSans-38" x="63.623047"/>
       <use xlink:href="#DejaVuSans-30" x="127.246094"/>
      </g>
     </g>
    </g>
    <g id="xtick_8">
     <g id="line2d_8">
      <path d="M 188.836973 512.64 
L 188.836973 69.12 
" clip-path="url(#pe1bbdccf47)" style="fill: none; stroke: #cccccc; stroke-width: 0.8; stroke-linecap: round"/>
     </g>
     <g id="text_8">
      <!-- 560 -->
      <g style="fill: #262626" transform="translate(184.615368 537.54543)rotate(-45)scale(0.088 -0.088)">
       <defs>
        <path id="DejaVuSans-35" d="M 691 4666 
L 3169 4666 
L 3169 4134 
L 1269 4134 
L 1269 2991 
Q 1406 3038 1543 3061 
Q 1681 3084 1819 3084 
Q 2600 3084 3056 2656 
Q 3513 2228 3513 1497 
Q 3513 744 3044 326 
Q 2575 -91 1722 -91 
Q 1428 -91 1123 -41 
Q 819 9 494 109 
L 494 744 
Q 775 591 1075 516 
Q 1375 441 1709 441 
Q 2250 441 2565 725 
Q 2881 1009 2881 1497 
Q 2881 1984 2565 2268 
Q 2250 2553 1709 2553 
Q 1456 2553 1204 2497 
Q 953 2441 691 2322 
L 691 4666 
z
" transform="scale(0.015625)"/>
       </defs>
       <use xlink:href="#DejaVuSans-35"/>
       <use xlink:href="#DejaVuSans-36" x="63.623047"/>
       <use xlink:href="#DejaVuSans-30" x="127.246094"/>
      </g>
     </g>
    </g>
    <g id="xtick_9">
     <g id="line2d_9">
      <path d="M 205.863569 512.64 
L 205.863569 69.12 
" clip-path="url(#pe1bbdccf47)" style="fill: none; stroke: #cccccc; stroke-width: 0.8; stroke-linecap: round"/>
     </g>
     <g id="text_9">
      <!-- 640 -->
      <g style="fill: #262626" transform="translate(201.641965 537.54543)rotate(-45)scale(0.088 -0.088)">
       <use xlink:href="#DejaVuSans-36"/>
       <use xlink:href="#DejaVuSans-34" x="63.623047"/>
       <use xlink:href="#DejaVuSans-30" x="127.246094"/>
      </g>
     </g>
    </g>
    <g id="xtick_10">
     <g id="line2d_10">
      <path d="M 222.890166 512.64 
L 222.890166 69.12 
" clip-path="url(#pe1bbdccf47)" style="fill: none; stroke: #cccccc; stroke-width: 0.8; stroke-linecap: round"/>
     </g>
     <g id="text_10">
      <!-- 720 -->
      <g style="fill: #262626" transform="translate(218.668562 537.54543)rotate(-45)scale(0.088 -0.088)">
       <defs>
        <path id="DejaVuSans-37" d="M 525 4666 
L 3525 4666 
L 3525 4397 
L 1831 0 
L 1172 0 
L 2766 4134 
L 525 4134 
L 525 4666 
z
" transform="scale(0.015625)"/>
       </defs>
       <use xlink:href="#DejaVuSans-37"/>
       <use xlink:href="#DejaVuSans-32" x="63.623047"/>
       <use xlink:href="#DejaVuSans-30" x="127.246094"/>
      </g>
     </g>
    </g>
    <g id="xtick_11">
     <g id="line2d_11">
      <path d="M 239.916763 512.64 
L 239.916763 69.12 
" clip-path="url(#pe1bbdccf47)" style="fill: none; stroke: #cccccc; stroke-width: 0.8; stroke-linecap: round"/>
     </g>
     <g id="text_11">
      <!-- 800 -->
      <g style="fill: #262626" transform="translate(235.695159 537.54543)rotate(-45)scale(0.088 -0.088)">
       <use xlink:href="#DejaVuSans-38"/>
       <use xlink:href="#DejaVuSans-30" x="63.623047"/>
       <use xlink:href="#DejaVuSans-30" x="127.246094"/>
      </g>
     </g>
    </g>
    <g id="xtick_12">
     <g id="line2d_12">
      <path d="M 256.94336 512.64 
L 256.94336 69.12 
" clip-path="url(#pe1bbdccf47)" style="fill: none; stroke: #cccccc; stroke-width: 0.8; stroke-linecap: round"/>
     </g>
     <g id="text_12">
      <!-- 880 -->
      <g style="fill: #262626" transform="translate(252.721755 537.54543)rotate(-45)scale(0.088 -0.088)">
       <use xlink:href="#DejaVuSans-38"/>
       <use xlink:href="#DejaVuSans-38" x="63.623047"/>
       <use xlink:href="#DejaVuSans-30" x="127.246094"/>
      </g>
     </g>
    </g>
    <g id="xtick_13">
     <g id="line2d_13">
      <path d="M 273.969956 512.64 
L 273.969956 69.12 
" clip-path="url(#pe1bbdccf47)" style="fill: none; stroke: #cccccc; stroke-width: 0.8; stroke-linecap: round"/>
     </g>
     <g id="text_13">
      <!-- 960 -->
      <g style="fill: #262626" transform="translate(269.748352 537.54543)rotate(-45)scale(0.088 -0.088)">
       <defs>
        <path id="DejaVuSans-39" d="M 703 97 
L 703 672 
Q 941 559 1184 500 
Q 1428 441 1663 441 
Q 2288 441 2617 861 
Q 2947 1281 2994 2138 
Q 2813 1869 2534 1725 
Q 2256 1581 1919 1581 
Q 1219 1581 811 2004 
Q 403 2428 403 3163 
Q 403 3881 828 4315 
Q 1253 4750 1959 4750 
Q 2769 4750 3195 4129 
Q 3622 3509 3622 2328 
Q 3622 1225 3098 567 
Q 2575 -91 1691 -91 
Q 1453 -91 1209 -44 
Q 966 3 703 97 
z
M 1959 2075 
Q 2384 2075 2632 2365 
Q 2881 2656 2881 3163 
Q 2881 3666 2632 3958 
Q 2384 4250 1959 4250 
Q 1534 4250 1286 3958 
Q 1038 3666 1038 3163 
Q 1038 2656 1286 2365 
Q 1534 2075 1959 2075 
z
" transform="scale(0.015625)"/>
       </defs>
       <use xlink:href="#DejaVuSans-39"/>
       <use xlink:href="#DejaVuSans-36" x="63.623047"/>
       <use xlink:href="#DejaVuSans-30" x="127.246094"/>
      </g>
     </g>
    </g>
    <g id="xtick_14">
     <g id="line2d_14">
      <path d="M 290.996553 512.64 
L 290.996553 69.12 
" clip-path="url(#pe1bbdccf47)" style="fill: none; stroke: #cccccc; stroke-width: 0.8; stroke-linecap: round"/>
     </g>
     <g id="text_14">
      <!-- 1040 -->
      <g style="fill: #262626" transform="translate(284.795404 541.504521)rotate(-45)scale(0.088 -0.088)">
       <use xlink:href="#DejaVuSans-31"/>
       <use xlink:href="#DejaVuSans-30" x="63.623047"/>
       <use xlink:href="#DejaVuSans-34" x="127.246094"/>
       <use xlink:href="#DejaVuSans-30" x="190.869141"/>
      </g>
     </g>
    </g>
    <g id="xtick_15">
     <g id="line2d_15">
      <path d="M 308.02315 512.64 
L 308.02315 69.12 
" clip-path="url(#pe1bbdccf47)" style="fill: none; stroke: #cccccc; stroke-width: 0.8; stroke-linecap: round"/>
     </g>
     <g id="text_15">
      <!-- 1120 -->
      <g style="fill: #262626" transform="translate(301.822 541.504521)rotate(-45)scale(0.088 -0.088)">
       <use xlink:href="#DejaVuSans-31"/>
       <use xlink:href="#DejaVuSans-31" x="63.623047"/>
       <use xlink:href="#DejaVuSans-32" x="127.246094"/>
       <use xlink:href="#DejaVuSans-30" x="190.869141"/>
      </g>
     </g>
    </g>
    <g id="xtick_16">
     <g id="line2d_16">
      <path d="M 325.049747 512.64 
L 325.049747 69.12 
" clip-path="url(#pe1bbdccf47)" style="fill: none; stroke: #cccccc; stroke-width: 0.8; stroke-linecap: round"/>
     </g>
     <g id="text_16">
      <!-- 1200 -->
      <g style="fill: #262626" transform="translate(318.848597 541.504521)rotate(-45)scale(0.088 -0.088)">
       <use xlink:href="#DejaVuSans-31"/>
       <use xlink:href="#DejaVuSans-32" x="63.623047"/>
       <use xlink:href="#DejaVuSans-30" x="127.246094"/>
       <use xlink:href="#DejaVuSans-30" x="190.869141"/>
      </g>
     </g>
    </g>
    <g id="xtick_17">
     <g id="line2d_17">
      <path d="M 342.076343 512.64 
L 342.076343 69.12 
" clip-path="url(#pe1bbdccf47)" style="fill: none; stroke: #cccccc; stroke-width: 0.8; stroke-linecap: round"/>
     </g>
     <g id="text_17">
      <!-- 1280 -->
      <g style="fill: #262626" transform="translate(335.875194 541.504521)rotate(-45)scale(0.088 -0.088)">
       <use xlink:href="#DejaVuSans-31"/>
       <use xlink:href="#DejaVuSans-32" x="63.623047"/>
       <use xlink:href="#DejaVuSans-38" x="127.246094"/>
       <use xlink:href="#DejaVuSans-30" x="190.869141"/>
      </g>
     </g>
    </g>
    <g id="xtick_18">
     <g id="line2d_18">
      <path d="M 359.10294 512.64 
L 359.10294 69.12 
" clip-path="url(#pe1bbdccf47)" style="fill: none; stroke: #cccccc; stroke-width: 0.8; stroke-linecap: round"/>
     </g>
     <g id="text_18">
      <!-- 1360 -->
      <g style="fill: #262626" transform="translate(352.901791 541.504521)rotate(-45)scale(0.088 -0.088)">
       <use xlink:href="#DejaVuSans-31"/>
       <use xlink:href="#DejaVuSans-33" x="63.623047"/>
       <use xlink:href="#DejaVuSans-36" x="127.246094"/>
       <use xlink:href="#DejaVuSans-30" x="190.869141"/>
      </g>
     </g>
    </g>
    <g id="xtick_19">
     <g id="line2d_19">
      <path d="M 376.129537 512.64 
L 376.129537 69.12 
" clip-path="url(#pe1bbdccf47)" style="fill: none; stroke: #cccccc; stroke-width: 0.8; stroke-linecap: round"/>
     </g>
     <g id="text_19">
      <!-- 1440 -->
      <g style="fill: #262626" transform="translate(369.928387 541.504521)rotate(-45)scale(0.088 -0.088)">
       <use xlink:href="#DejaVuSans-31"/>
       <use xlink:href="#DejaVuSans-34" x="63.623047"/>
       <use xlink:href="#DejaVuSans-34" x="127.246094"/>
       <use xlink:href="#DejaVuSans-30" x="190.869141"/>
      </g>
     </g>
    </g>
    <g id="text_20">
     <!-- Time (Minutes) -->
     <g style="fill: #262626" transform="translate(186.87375 554.093115)scale(0.096 -0.096)">
      <defs>
       <path id="DejaVuSans-54" d="M -19 4666 
L 3928 4666 
L 3928 4134 
L 2272 4134 
L 2272 0 
L 1638 0 
L 1638 4134 
L -19 4134 
L -19 4666 
z
" transform="scale(0.015625)"/>
       <path id="DejaVuSans-69" d="M 603 3500 
L 1178 3500 
L 1178 0 
L 603 0 
L 603 3500 
z
M 603 4863 
L 1178 4863 
L 1178 4134 
L 603 4134 
L 603 4863 
z
" transform="scale(0.015625)"/>
       <path id="DejaVuSans-6d" d="M 3328 2828 
Q 3544 3216 3844 3400 
Q 4144 3584 4550 3584 
Q 5097 3584 5394 3201 
Q 5691 2819 5691 2113 
L 5691 0 
L 5113 0 
L 5113 2094 
Q 5113 2597 4934 2840 
Q 4756 3084 4391 3084 
Q 3944 3084 3684 2787 
Q 3425 2491 3425 1978 
L 3425 0 
L 2847 0 
L 2847 2094 
Q 2847 2600 2669 2842 
Q 2491 3084 2119 3084 
Q 1678 3084 1418 2786 
Q 1159 2488 1159 1978 
L 1159 0 
L 581 0 
L 581 3500 
L 1159 3500 
L 1159 2956 
Q 1356 3278 1631 3431 
Q 1906 3584 2284 3584 
Q 2666 3584 2933 3390 
Q 3200 3197 3328 2828 
z
" transform="scale(0.015625)"/>
       <path id="DejaVuSans-65" d="M 3597 1894 
L 3597 1613 
L 953 1613 
Q 991 1019 1311 708 
Q 1631 397 2203 397 
Q 2534 397 2845 478 
Q 3156 559 3463 722 
L 3463 178 
Q 3153 47 2828 -22 
Q 2503 -91 2169 -91 
Q 1331 -91 842 396 
Q 353 884 353 1716 
Q 353 2575 817 3079 
Q 1281 3584 2069 3584 
Q 2775 3584 3186 3129 
Q 3597 2675 3597 1894 
z
M 3022 2063 
Q 3016 2534 2758 2815 
Q 2500 3097 2075 3097 
Q 1594 3097 1305 2825 
Q 1016 2553 972 2059 
L 3022 2063 
z
" transform="scale(0.015625)"/>
       <path id="DejaVuSans-20" transform="scale(0.015625)"/>
       <path id="DejaVuSans-28" d="M 1984 4856 
Q 1566 4138 1362 3434 
Q 1159 2731 1159 2009 
Q 1159 1288 1364 580 
Q 1569 -128 1984 -844 
L 1484 -844 
Q 1016 -109 783 600 
Q 550 1309 550 2009 
Q 550 2706 781 3412 
Q 1013 4119 1484 4856 
L 1984 4856 
z
" transform="scale(0.015625)"/>
       <path id="DejaVuSans-4d" d="M 628 4666 
L 1569 4666 
L 2759 1491 
L 3956 4666 
L 4897 4666 
L 4897 0 
L 4281 0 
L 4281 4097 
L 3078 897 
L 2444 897 
L 1241 4097 
L 1241 0 
L 628 0 
L 628 4666 
z
" transform="scale(0.015625)"/>
       <path id="DejaVuSans-6e" d="M 3513 2113 
L 3513 0 
L 2938 0 
L 2938 2094 
Q 2938 2591 2744 2837 
Q 2550 3084 2163 3084 
Q 1697 3084 1428 2787 
Q 1159 2491 1159 1978 
L 1159 0 
L 581 0 
L 581 3500 
L 1159 3500 
L 1159 2956 
Q 1366 3272 1645 3428 
Q 1925 3584 2291 3584 
Q 2894 3584 3203 3211 
Q 3513 2838 3513 2113 
z
" transform="scale(0.015625)"/>
       <path id="DejaVuSans-75" d="M 544 1381 
L 544 3500 
L 1119 3500 
L 1119 1403 
Q 1119 906 1312 657 
Q 1506 409 1894 409 
Q 2359 409 2629 706 
Q 2900 1003 2900 1516 
L 2900 3500 
L 3475 3500 
L 3475 0 
L 2900 0 
L 2900 538 
Q 2691 219 2414 64 
Q 2138 -91 1772 -91 
Q 1169 -91 856 284 
Q 544 659 544 1381 
z
M 1991 3584 
L 1991 3584 
z
" transform="scale(0.015625)"/>
       <path id="DejaVuSans-74" d="M 1172 4494 
L 1172 3500 
L 2356 3500 
L 2356 3053 
L 1172 3053 
L 1172 1153 
Q 1172 725 1289 603 
Q 1406 481 1766 481 
L 2356 481 
L 2356 0 
L 1766 0 
Q 1100 0 847 248 
Q 594 497 594 1153 
L 594 3053 
L 172 3053 
L 172 3500 
L 594 3500 
L 594 4494 
L 1172 4494 
z
" transform="scale(0.015625)"/>
       <path id="DejaVuSans-73" d="M 2834 3397 
L 2834 2853 
Q 2591 2978 2328 3040 
Q 2066 3103 1784 3103 
Q 1356 3103 1142 2972 
Q 928 2841 928 2578 
Q 928 2378 1081 2264 
Q 1234 2150 1697 2047 
L 1894 2003 
Q 2506 1872 2764 1633 
Q 3022 1394 3022 966 
Q 3022 478 2636 193 
Q 2250 -91 1575 -91 
Q 1294 -91 989 -36 
Q 684 19 347 128 
L 347 722 
Q 666 556 975 473 
Q 1284 391 1588 391 
Q 1994 391 2212 530 
Q 2431 669 2431 922 
Q 2431 1156 2273 1281 
Q 2116 1406 1581 1522 
L 1381 1569 
Q 847 1681 609 1914 
Q 372 2147 372 2553 
Q 372 3047 722 3315 
Q 1072 3584 1716 3584 
Q 2034 3584 2315 3537 
Q 2597 3491 2834 3397 
z
" transform="scale(0.015625)"/>
       <path id="DejaVuSans-29" d="M 513 4856 
L 1013 4856 
Q 1481 4119 1714 3412 
Q 1947 2706 1947 2009 
Q 1947 1309 1714 600 
Q 1481 -109 1013 -844 
L 513 -844 
Q 928 -128 1133 580 
Q 1338 1288 1338 2009 
Q 1338 2731 1133 3434 
Q 928 4138 513 4856 
z
" transform="scale(0.015625)"/>
      </defs>
      <use xlink:href="#DejaVuSans-54"/>
      <use xlink:href="#DejaVuSans-69" x="57.958984"/>
      <use xlink:href="#DejaVuSans-6d" x="85.742188"/>
      <use xlink:href="#DejaVuSans-65" x="183.154297"/>
      <use xlink:href="#DejaVuSans-20" x="244.677734"/>
      <use xlink:href="#DejaVuSans-28" x="276.464844"/>
      <use xlink:href="#DejaVuSans-4d" x="315.478516"/>
      <use xlink:href="#DejaVuSans-69" x="401.757812"/>
      <use xlink:href="#DejaVuSans-6e" x="429.541016"/>
      <use xlink:href="#DejaVuSans-75" x="492.919922"/>
      <use xlink:href="#DejaVuSans-74" x="556.298828"/>
      <use xlink:href="#DejaVuSans-65" x="595.507812"/>
      <use xlink:href="#DejaVuSans-73" x="657.03125"/>
      <use xlink:href="#DejaVuSans-29" x="709.130859"/>
     </g>
    </g>
   </g>
   <g id="matplotlib.axis_2">
    <g id="ytick_1">
     <g id="line2d_20">
      <path d="M 54.3375 492.48 
L 391.23 492.48 
" clip-path="url(#pe1bbdccf47)" style="fill: none; stroke: #cccccc; stroke-width: 0.8; stroke-linecap: round"/>
     </g>
     <g id="text_21">
      <!-- 0 -->
      <g style="fill: #262626" transform="translate(40.4385 495.823312)scale(0.088 -0.088)">
       <use xlink:href="#DejaVuSans-30"/>
      </g>
     </g>
    </g>
    <g id="ytick_2">
     <g id="line2d_21">
      <path d="M 54.3375 469.853737 
L 391.23 469.853737 
" clip-path="url(#pe1bbdccf47)" style="fill: none; stroke: #cccccc; stroke-width: 0.8; stroke-linecap: round"/>
     </g>
     <g id="text_22">
      <!-- 100 -->
      <g style="fill: #262626" transform="translate(29.2405 473.19705)scale(0.088 -0.088)">
       <use xlink:href="#DejaVuSans-31"/>
       <use xlink:href="#DejaVuSans-30" x="63.623047"/>
       <use xlink:href="#DejaVuSans-30" x="127.246094"/>
      </g>
     </g>
    </g>
    <g id="ytick_3">
     <g id="line2d_22">
      <path d="M 54.3375 447.227475 
L 391.23 447.227475 
" clip-path="url(#pe1bbdccf47)" style="fill: none; stroke: #cccccc; stroke-width: 0.8; stroke-linecap: round"/>
     </g>
     <g id="text_23">
      <!-- 200 -->
      <g style="fill: #262626" transform="translate(29.2405 450.570787)scale(0.088 -0.088)">
       <use xlink:href="#DejaVuSans-32"/>
       <use xlink:href="#DejaVuSans-30" x="63.623047"/>
       <use xlink:href="#DejaVuSans-30" x="127.246094"/>
      </g>
     </g>
    </g>
    <g id="ytick_4">
     <g id="line2d_23">
      <path d="M 54.3375 424.601212 
L 391.23 424.601212 
" clip-path="url(#pe1bbdccf47)" style="fill: none; stroke: #cccccc; stroke-width: 0.8; stroke-linecap: round"/>
     </g>
     <g id="text_24">
      <!-- 300 -->
      <g style="fill: #262626" transform="translate(29.2405 427.944525)scale(0.088 -0.088)">
       <use xlink:href="#DejaVuSans-33"/>
       <use xlink:href="#DejaVuSans-30" x="63.623047"/>
       <use xlink:href="#DejaVuSans-30" x="127.246094"/>
      </g>
     </g>
    </g>
    <g id="ytick_5">
     <g id="line2d_24">
      <path d="M 54.3375 401.974949 
L 391.23 401.974949 
" clip-path="url(#pe1bbdccf47)" style="fill: none; stroke: #cccccc; stroke-width: 0.8; stroke-linecap: round"/>
     </g>
     <g id="text_25">
      <!-- 400 -->
      <g style="fill: #262626" transform="translate(29.2405 405.318262)scale(0.088 -0.088)">
       <use xlink:href="#DejaVuSans-34"/>
       <use xlink:href="#DejaVuSans-30" x="63.623047"/>
       <use xlink:href="#DejaVuSans-30" x="127.246094"/>
      </g>
     </g>
    </g>
    <g id="ytick_6">
     <g id="line2d_25">
      <path d="M 54.3375 379.348687 
L 391.23 379.348687 
" clip-path="url(#pe1bbdccf47)" style="fill: none; stroke: #cccccc; stroke-width: 0.8; stroke-linecap: round"/>
     </g>
     <g id="text_26">
      <!-- 500 -->
      <g style="fill: #262626" transform="translate(29.2405 382.691999)scale(0.088 -0.088)">
       <use xlink:href="#DejaVuSans-35"/>
       <use xlink:href="#DejaVuSans-30" x="63.623047"/>
       <use xlink:href="#DejaVuSans-30" x="127.246094"/>
      </g>
     </g>
    </g>
    <g id="ytick_7">
     <g id="line2d_26">
      <path d="M 54.3375 356.722424 
L 391.23 356.722424 
" clip-path="url(#pe1bbdccf47)" style="fill: none; stroke: #cccccc; stroke-width: 0.8; stroke-linecap: round"/>
     </g>
     <g id="text_27">
      <!-- 600 -->
      <g style="fill: #262626" transform="translate(29.2405 360.065737)scale(0.088 -0.088)">
       <use xlink:href="#DejaVuSans-36"/>
       <use xlink:href="#DejaVuSans-30" x="63.623047"/>
       <use xlink:href="#DejaVuSans-30" x="127.246094"/>
      </g>
     </g>
    </g>
    <g id="ytick_8">
     <g id="line2d_27">
      <path d="M 54.3375 334.096162 
L 391.23 334.096162 
" clip-path="url(#pe1bbdccf47)" style="fill: none; stroke: #cccccc; stroke-width: 0.8; stroke-linecap: round"/>
     </g>
     <g id="text_28">
      <!-- 700 -->
      <g style="fill: #262626" transform="translate(29.2405 337.439474)scale(0.088 -0.088)">
       <use xlink:href="#DejaVuSans-37"/>
       <use xlink:href="#DejaVuSans-30" x="63.623047"/>
       <use xlink:href="#DejaVuSans-30" x="127.246094"/>
      </g>
     </g>
    </g>
    <g id="ytick_9">
     <g id="line2d_28">
      <path d="M 54.3375 311.469899 
L 391.23 311.469899 
" clip-path="url(#pe1bbdccf47)" style="fill: none; stroke: #cccccc; stroke-width: 0.8; stroke-linecap: round"/>
     </g>
     <g id="text_29">
      <!-- 800 -->
      <g style="fill: #262626" transform="translate(29.2405 314.813211)scale(0.088 -0.088)">
       <use xlink:href="#DejaVuSans-38"/>
       <use xlink:href="#DejaVuSans-30" x="63.623047"/>
       <use xlink:href="#DejaVuSans-30" x="127.246094"/>
      </g>
     </g>
    </g>
    <g id="ytick_10">
     <g id="line2d_29">
      <path d="M 54.3375 288.843636 
L 391.23 288.843636 
" clip-path="url(#pe1bbdccf47)" style="fill: none; stroke: #cccccc; stroke-width: 0.8; stroke-linecap: round"/>
     </g>
     <g id="text_30">
      <!-- 900 -->
      <g style="fill: #262626" transform="translate(29.2405 292.186949)scale(0.088 -0.088)">
       <use xlink:href="#DejaVuSans-39"/>
       <use xlink:href="#DejaVuSans-30" x="63.623047"/>
       <use xlink:href="#DejaVuSans-30" x="127.246094"/>
      </g>
     </g>
    </g>
    <g id="ytick_11">
     <g id="line2d_30">
      <path d="M 54.3375 266.217374 
L 391.23 266.217374 
" clip-path="url(#pe1bbdccf47)" style="fill: none; stroke: #cccccc; stroke-width: 0.8; stroke-linecap: round"/>
     </g>
     <g id="text_31">
      <!-- 1000 -->
      <g style="fill: #262626" transform="translate(23.6415 269.560686)scale(0.088 -0.088)">
       <use xlink:href="#DejaVuSans-31"/>
       <use xlink:href="#DejaVuSans-30" x="63.623047"/>
       <use xlink:href="#DejaVuSans-30" x="127.246094"/>
       <use xlink:href="#DejaVuSans-30" x="190.869141"/>
      </g>
     </g>
    </g>
    <g id="ytick_12">
     <g id="line2d_31">
      <path d="M 54.3375 243.591111 
L 391.23 243.591111 
" clip-path="url(#pe1bbdccf47)" style="fill: none; stroke: #cccccc; stroke-width: 0.8; stroke-linecap: round"/>
     </g>
     <g id="text_32">
      <!-- 1100 -->
      <g style="fill: #262626" transform="translate(23.6415 246.934424)scale(0.088 -0.088)">
       <use xlink:href="#DejaVuSans-31"/>
       <use xlink:href="#DejaVuSans-31" x="63.623047"/>
       <use xlink:href="#DejaVuSans-30" x="127.246094"/>
       <use xlink:href="#DejaVuSans-30" x="190.869141"/>
      </g>
     </g>
    </g>
    <g id="ytick_13">
     <g id="line2d_32">
      <path d="M 54.3375 220.964848 
L 391.23 220.964848 
" clip-path="url(#pe1bbdccf47)" style="fill: none; stroke: #cccccc; stroke-width: 0.8; stroke-linecap: round"/>
     </g>
     <g id="text_33">
      <!-- 1200 -->
      <g style="fill: #262626" transform="translate(23.6415 224.308161)scale(0.088 -0.088)">
       <use xlink:href="#DejaVuSans-31"/>
       <use xlink:href="#DejaVuSans-32" x="63.623047"/>
       <use xlink:href="#DejaVuSans-30" x="127.246094"/>
       <use xlink:href="#DejaVuSans-30" x="190.869141"/>
      </g>
     </g>
    </g>
    <g id="ytick_14">
     <g id="line2d_33">
      <path d="M 54.3375 198.338586 
L 391.23 198.338586 
" clip-path="url(#pe1bbdccf47)" style="fill: none; stroke: #cccccc; stroke-width: 0.8; stroke-linecap: round"/>
     </g>
     <g id="text_34">
      <!-- 1300 -->
      <g style="fill: #262626" transform="translate(23.6415 201.681898)scale(0.088 -0.088)">
       <use xlink:href="#DejaVuSans-31"/>
       <use xlink:href="#DejaVuSans-33" x="63.623047"/>
       <use xlink:href="#DejaVuSans-30" x="127.246094"/>
       <use xlink:href="#DejaVuSans-30" x="190.869141"/>
      </g>
     </g>
    </g>
    <g id="ytick_15">
     <g id="line2d_34">
      <path d="M 54.3375 175.712323 
L 391.23 175.712323 
" clip-path="url(#pe1bbdccf47)" style="fill: none; stroke: #cccccc; stroke-width: 0.8; stroke-linecap: round"/>
     </g>
     <g id="text_35">
      <!-- 1400 -->
      <g style="fill: #262626" transform="translate(23.6415 179.055636)scale(0.088 -0.088)">
       <use xlink:href="#DejaVuSans-31"/>
       <use xlink:href="#DejaVuSans-34" x="63.623047"/>
       <use xlink:href="#DejaVuSans-30" x="127.246094"/>
       <use xlink:href="#DejaVuSans-30" x="190.869141"/>
      </g>
     </g>
    </g>
    <g id="ytick_16">
     <g id="line2d_35">
      <path d="M 54.3375 153.086061 
L 391.23 153.086061 
" clip-path="url(#pe1bbdccf47)" style="fill: none; stroke: #cccccc; stroke-width: 0.8; stroke-linecap: round"/>
     </g>
     <g id="text_36">
      <!-- 1500 -->
      <g style="fill: #262626" transform="translate(23.6415 156.429373)scale(0.088 -0.088)">
       <use xlink:href="#DejaVuSans-31"/>
       <use xlink:href="#DejaVuSans-35" x="63.623047"/>
       <use xlink:href="#DejaVuSans-30" x="127.246094"/>
       <use xlink:href="#DejaVuSans-30" x="190.869141"/>
      </g>
     </g>
    </g>
    <g id="ytick_17">
     <g id="line2d_36">
      <path d="M 54.3375 130.459798 
L 391.23 130.459798 
" clip-path="url(#pe1bbdccf47)" style="fill: none; stroke: #cccccc; stroke-width: 0.8; stroke-linecap: round"/>
     </g>
     <g id="text_37">
      <!-- 1600 -->
      <g style="fill: #262626" transform="translate(23.6415 133.80311)scale(0.088 -0.088)">
       <use xlink:href="#DejaVuSans-31"/>
       <use xlink:href="#DejaVuSans-36" x="63.623047"/>
       <use xlink:href="#DejaVuSans-30" x="127.246094"/>
       <use xlink:href="#DejaVuSans-30" x="190.869141"/>
      </g>
     </g>
    </g>
    <g id="ytick_18">
     <g id="line2d_37">
      <path d="M 54.3375 107.833535 
L 391.23 107.833535 
" clip-path="url(#pe1bbdccf47)" style="fill: none; stroke: #cccccc; stroke-width: 0.8; stroke-linecap: round"/>
     </g>
     <g id="text_38">
      <!-- 1700 -->
      <g style="fill: #262626" transform="translate(23.6415 111.176848)scale(0.088 -0.088)">
       <use xlink:href="#DejaVuSans-31"/>
       <use xlink:href="#DejaVuSans-37" x="63.623047"/>
       <use xlink:href="#DejaVuSans-30" x="127.246094"/>
       <use xlink:href="#DejaVuSans-30" x="190.869141"/>
      </g>
     </g>
    </g>
    <g id="text_39">
     <!-- Edge Coverages -->
     <g style="fill: #262626" transform="translate(17.645 329.98575)rotate(-90)scale(0.096 -0.096)">
      <defs>
       <path id="DejaVuSans-45" d="M 628 4666 
L 3578 4666 
L 3578 4134 
L 1259 4134 
L 1259 2753 
L 3481 2753 
L 3481 2222 
L 1259 2222 
L 1259 531 
L 3634 531 
L 3634 0 
L 628 0 
L 628 4666 
z
" transform="scale(0.015625)"/>
       <path id="DejaVuSans-64" d="M 2906 2969 
L 2906 4863 
L 3481 4863 
L 3481 0 
L 2906 0 
L 2906 525 
Q 2725 213 2448 61 
Q 2172 -91 1784 -91 
Q 1150 -91 751 415 
Q 353 922 353 1747 
Q 353 2572 751 3078 
Q 1150 3584 1784 3584 
Q 2172 3584 2448 3432 
Q 2725 3281 2906 2969 
z
M 947 1747 
Q 947 1113 1208 752 
Q 1469 391 1925 391 
Q 2381 391 2643 752 
Q 2906 1113 2906 1747 
Q 2906 2381 2643 2742 
Q 2381 3103 1925 3103 
Q 1469 3103 1208 2742 
Q 947 2381 947 1747 
z
" transform="scale(0.015625)"/>
       <path id="DejaVuSans-67" d="M 2906 1791 
Q 2906 2416 2648 2759 
Q 2391 3103 1925 3103 
Q 1463 3103 1205 2759 
Q 947 2416 947 1791 
Q 947 1169 1205 825 
Q 1463 481 1925 481 
Q 2391 481 2648 825 
Q 2906 1169 2906 1791 
z
M 3481 434 
Q 3481 -459 3084 -895 
Q 2688 -1331 1869 -1331 
Q 1566 -1331 1297 -1286 
Q 1028 -1241 775 -1147 
L 775 -588 
Q 1028 -725 1275 -790 
Q 1522 -856 1778 -856 
Q 2344 -856 2625 -561 
Q 2906 -266 2906 331 
L 2906 616 
Q 2728 306 2450 153 
Q 2172 0 1784 0 
Q 1141 0 747 490 
Q 353 981 353 1791 
Q 353 2603 747 3093 
Q 1141 3584 1784 3584 
Q 2172 3584 2450 3431 
Q 2728 3278 2906 2969 
L 2906 3500 
L 3481 3500 
L 3481 434 
z
" transform="scale(0.015625)"/>
       <path id="DejaVuSans-43" d="M 4122 4306 
L 4122 3641 
Q 3803 3938 3442 4084 
Q 3081 4231 2675 4231 
Q 1875 4231 1450 3742 
Q 1025 3253 1025 2328 
Q 1025 1406 1450 917 
Q 1875 428 2675 428 
Q 3081 428 3442 575 
Q 3803 722 4122 1019 
L 4122 359 
Q 3791 134 3420 21 
Q 3050 -91 2638 -91 
Q 1578 -91 968 557 
Q 359 1206 359 2328 
Q 359 3453 968 4101 
Q 1578 4750 2638 4750 
Q 3056 4750 3426 4639 
Q 3797 4528 4122 4306 
z
" transform="scale(0.015625)"/>
       <path id="DejaVuSans-6f" d="M 1959 3097 
Q 1497 3097 1228 2736 
Q 959 2375 959 1747 
Q 959 1119 1226 758 
Q 1494 397 1959 397 
Q 2419 397 2687 759 
Q 2956 1122 2956 1747 
Q 2956 2369 2687 2733 
Q 2419 3097 1959 3097 
z
M 1959 3584 
Q 2709 3584 3137 3096 
Q 3566 2609 3566 1747 
Q 3566 888 3137 398 
Q 2709 -91 1959 -91 
Q 1206 -91 779 398 
Q 353 888 353 1747 
Q 353 2609 779 3096 
Q 1206 3584 1959 3584 
z
" transform="scale(0.015625)"/>
       <path id="DejaVuSans-76" d="M 191 3500 
L 800 3500 
L 1894 563 
L 2988 3500 
L 3597 3500 
L 2284 0 
L 1503 0 
L 191 3500 
z
" transform="scale(0.015625)"/>
       <path id="DejaVuSans-72" d="M 2631 2963 
Q 2534 3019 2420 3045 
Q 2306 3072 2169 3072 
Q 1681 3072 1420 2755 
Q 1159 2438 1159 1844 
L 1159 0 
L 581 0 
L 581 3500 
L 1159 3500 
L 1159 2956 
Q 1341 3275 1631 3429 
Q 1922 3584 2338 3584 
Q 2397 3584 2469 3576 
Q 2541 3569 2628 3553 
L 2631 2963 
z
" transform="scale(0.015625)"/>
       <path id="DejaVuSans-61" d="M 2194 1759 
Q 1497 1759 1228 1600 
Q 959 1441 959 1056 
Q 959 750 1161 570 
Q 1363 391 1709 391 
Q 2188 391 2477 730 
Q 2766 1069 2766 1631 
L 2766 1759 
L 2194 1759 
z
M 3341 1997 
L 3341 0 
L 2766 0 
L 2766 531 
Q 2569 213 2275 61 
Q 1981 -91 1556 -91 
Q 1019 -91 701 211 
Q 384 513 384 1019 
Q 384 1609 779 1909 
Q 1175 2209 1959 2209 
L 2766 2209 
L 2766 2266 
Q 2766 2663 2505 2880 
Q 2244 3097 1772 3097 
Q 1472 3097 1187 3025 
Q 903 2953 641 2809 
L 641 3341 
Q 956 3463 1253 3523 
Q 1550 3584 1831 3584 
Q 2591 3584 2966 3190 
Q 3341 2797 3341 1997 
z
" transform="scale(0.015625)"/>
      </defs>
      <use xlink:href="#DejaVuSans-45"/>
      <use xlink:href="#DejaVuSans-64" x="63.183594"/>
      <use xlink:href="#DejaVuSans-67" x="126.660156"/>
      <use xlink:href="#DejaVuSans-65" x="190.136719"/>
      <use xlink:href="#DejaVuSans-20" x="251.660156"/>
      <use xlink:href="#DejaVuSans-43" x="283.447266"/>
      <use xlink:href="#DejaVuSans-6f" x="353.271484"/>
      <use xlink:href="#DejaVuSans-76" x="414.453125"/>
      <use xlink:href="#DejaVuSans-65" x="473.632812"/>
      <use xlink:href="#DejaVuSans-72" x="535.15625"/>
      <use xlink:href="#DejaVuSans-61" x="576.269531"/>
      <use xlink:href="#DejaVuSans-67" x="637.548828"/>
      <use xlink:href="#DejaVuSans-65" x="701.025391"/>
      <use xlink:href="#DejaVuSans-73" x="762.548828"/>
     </g>
    </g>
   </g>
   <g id="PolyCollection_1">
    <defs>
     <path id="mb6ea980eb2" d="M 69.650795 -105.693737 
L 69.650795 -83.52 
L 69.650795 -105.693737 
L 69.650795 -105.693737 
z
" style="stroke: #db5f57; stroke-opacity: 0.2; stroke-width: 0.8"/>
    </defs>
    <g clip-path="url(#pe1bbdccf47)">
     <use xlink:href="#mb6ea980eb2" x="0" y="576" style="fill: #db5f57; fill-opacity: 0.2; stroke: #db5f57; stroke-opacity: 0.2; stroke-width: 0.8"/>
    </g>
   </g>
   <g id="PolyCollection_2">
    <defs>
     <path id="m944b6867e1" d="M 69.650795 -117.911919 
L 69.650795 -83.52 
L 69.650795 -117.911919 
L 69.650795 -117.911919 
z
" style="stroke: #b9db57; stroke-opacity: 0.2; stroke-width: 0.8"/>
    </defs>
    <g clip-path="url(#pe1bbdccf47)">
     <use xlink:href="#m944b6867e1" x="0" y="576" style="fill: #b9db57; fill-opacity: 0.2; stroke: #b9db57; stroke-opacity: 0.2; stroke-width: 0.8"/>
    </g>
   </g>
   <g id="PolyCollection_3">
    <defs>
     <path id="m793333fa91" d="M 69.650795 -119.948283 
L 69.650795 -83.52 
L 69.650795 -119.948283 
L 69.650795 -119.948283 
z
" style="stroke: #57db94; stroke-opacity: 0.2; stroke-width: 0.8"/>
    </defs>
    <g clip-path="url(#pe1bbdccf47)">
     <use xlink:href="#m793333fa91" x="0" y="576" style="fill: #57db94; fill-opacity: 0.2; stroke: #57db94; stroke-opacity: 0.2; stroke-width: 0.8"/>
    </g>
   </g>
   <g id="PolyCollection_4">
    <defs>
     <path id="m5b8894f15d" d="M 69.650795 -105.241212 
L 69.650795 -83.52 
L 69.650795 -105.241212 
L 69.650795 -105.241212 
z
" style="stroke: #5784db; stroke-opacity: 0.2; stroke-width: 0.8"/>
    </defs>
    <g clip-path="url(#pe1bbdccf47)">
     <use xlink:href="#m5b8894f15d" x="0" y="576" style="fill: #5784db; fill-opacity: 0.2; stroke: #5784db; stroke-opacity: 0.2; stroke-width: 0.8"/>
    </g>
   </g>
   <g id="PolyCollection_5">
    <defs>
     <path id="me6fd12482a" d="M 69.650795 -128.32 
L 69.650795 -83.52 
L 69.650795 -128.32 
L 69.650795 -128.32 
z
" style="stroke: #c957db; stroke-opacity: 0.2; stroke-width: 0.8"/>
    </defs>
    <g clip-path="url(#pe1bbdccf47)">
     <use xlink:href="#me6fd12482a" x="0" y="576" style="fill: #c957db; fill-opacity: 0.2; stroke: #c957db; stroke-opacity: 0.2; stroke-width: 0.8"/>
    </g>
   </g>
   <g id="line2d_38">
    <path d="M 69.650795 481.393131 
L 70.07646 425.732525 
L 70.289293 405.595152 
L 70.502125 402.653737 
L 70.714958 401.748687 
L 70.92779 396.318384 
L 71.566288 389.98303 
L 71.77912 388.172929 
L 71.991953 387.494141 
L 72.204785 385.68404 
L 72.417617 376.18101 
L 72.63045 300.609293 
L 72.843282 278.209293 
L 73.056115 277.98303 
L 73.48178 276.851717 
L 73.694612 276.625455 
L 73.907445 276.625455 
L 74.120277 273.005253 
L 74.33311 244.269899 
L 74.545942 244.269899 
L 74.758774 244.043636 
L 75.397272 244.043636 
L 75.610104 243.817374 
L 75.822937 225.490101 
L 76.035769 225.263838 
L 76.248602 225.263838 
L 76.461434 219.833535 
L 76.887099 219.833535 
L 77.099932 217.797172 
L 77.312764 217.797172 
L 77.525596 217.570909 
L 78.376926 217.570909 
L 78.589759 203.542626 
L 78.802591 201.958788 
L 79.228256 200.601212 
L 79.441089 200.601212 
L 79.866754 199.469899 
L 80.079586 199.243636 
L 80.292418 191.77697 
L 80.505251 191.098182 
L 80.718083 191.098182 
L 81.356581 190.419394 
L 81.569413 189.966869 
L 81.782246 184.08404 
L 81.995078 183.631515 
L 82.207911 183.631515 
L 82.420743 183.405253 
L 83.272073 183.405253 
L 83.484905 182.952727 
L 83.697738 182.952727 
L 83.91057 182.500202 
L 84.336235 182.500202 
L 84.549068 175.938586 
L 84.7619 175.938586 
L 85.187565 175.486061 
L 85.61323 175.486061 
L 85.826062 175.259798 
L 86.038895 171.639596 
L 86.251727 170.960808 
L 86.46456 168.019394 
L 86.890225 168.019394 
L 87.103057 167.793131 
L 87.31589 167.793131 
L 87.528722 165.304242 
L 87.741555 165.304242 
L 88.167219 164.851717 
L 88.592884 163.494141 
L 89.018549 163.494141 
L 89.231382 163.267879 
L 89.444214 163.267879 
L 89.657047 163.041616 
L 89.869879 159.873939 
L 90.295544 159.873939 
L 90.508376 159.647677 
L 91.572539 159.647677 
L 91.785371 154.217374 
L 92.423869 154.217374 
L 92.849534 153.086061 
L 94.765026 153.086061 
L 94.977858 149.692121 
L 95.190691 149.465859 
L 95.403523 149.465859 
L 95.616356 149.239596 
L 96.04202 149.239596 
L 96.254853 148.334545 
L 97.106183 148.334545 
L 97.319015 147.88202 
L 97.74468 147.88202 
L 97.957513 146.298182 
L 100.511502 146.298182 
L 100.937167 144.940606 
L 102.001329 144.940606 
L 102.214162 144.714343 
L 102.639827 144.714343 
L 102.852659 144.488081 
L 103.065492 144.035556 
L 104.342486 144.035556 
L 104.555319 143.58303 
L 104.768151 143.58303 
L 104.980984 143.356768 
L 105.832314 143.356768 
L 106.045146 143.130505 
L 106.470811 143.130505 
L 106.683643 141.999192 
L 106.896476 141.999192 
L 107.322141 141.320404 
L 107.534973 141.320404 
L 108.386303 140.415354 
L 108.599136 139.736566 
L 109.237633 139.736566 
L 109.663298 139.057778 
L 109.87613 139.057778 
L 110.088963 138.605253 
L 111.153125 138.605253 
L 111.365957 137.473939 
L 113.068617 137.473939 
L 113.28145 136.795152 
L 113.494282 136.795152 
L 113.707115 136.568889 
L 114.771277 136.568889 
L 114.984109 136.342626 
L 116.048272 136.342626 
L 116.261104 134.306263 
L 116.473937 134.306263 
L 116.686769 133.853737 
L 116.899601 133.853737 
L 117.325266 133.401212 
L 117.963764 133.401212 
L 118.176596 133.174949 
L 118.389429 132.722424 
L 118.602261 132.722424 
L 118.815094 132.496162 
L 119.240758 132.496162 
L 119.453591 132.269899 
L 119.666423 131.817374 
L 120.092088 131.817374 
L 120.304921 131.591111 
L 120.517753 131.591111 
L 120.730586 131.364848 
L 121.156251 131.364848 
L 121.369083 130.459798 
L 122.646078 130.459798 
L 122.85891 130.233535 
L 123.071743 129.78101 
L 127.541224 129.78101 
L 127.754057 129.554747 
L 128.818219 129.554747 
L 129.031052 129.328485 
L 130.095214 129.328485 
L 130.308046 129.102222 
L 131.372209 129.102222 
L 131.585041 128.423434 
L 132.010706 128.423434 
L 132.223539 127.970909 
L 133.713366 127.970909 
L 133.926198 127.744646 
L 136.905853 127.744646 
L 137.118685 127.518384 
L 139.24701 127.518384 
L 139.459842 127.292121 
L 139.885507 127.292121 
L 140.09834 127.065859 
L 140.524004 127.065859 
L 140.736837 126.839596 
L 146.908978 126.839596 
L 147.121811 126.613333 
L 149.6758 126.613333 
L 149.888633 126.387071 
L 150.314298 126.387071 
L 150.52713 125.934545 
L 150.952795 125.934545 
L 151.165627 125.708283 
L 158.189099 125.708283 
L 158.401931 125.48202 
L 159.678926 125.48202 
L 159.891758 125.255758 
L 167.766559 125.255758 
L 167.979392 125.029495 
L 170.533381 125.029495 
L 170.746214 124.803232 
L 172.023208 124.803232 
L 172.236041 124.57697 
L 174.151533 124.57697 
L 174.364365 124.350707 
L 174.577198 124.350707 
L 174.79003 124.124444 
L 178.19535 124.124444 
L 178.408182 123.898182 
L 183.090496 123.898182 
L 183.303329 123.671919 
L 186.282983 123.671919 
L 186.495816 123.445657 
L 193.732119 123.445657 
L 193.944952 123.219394 
L 194.583449 123.219394 
L 194.796282 122.993131 
L 197.988768 122.993131 
L 198.201601 122.766869 
L 200.329926 122.766869 
L 200.542758 122.088081 
L 202.883915 122.088081 
L 203.096748 121.861818 
L 203.522412 121.861818 
L 203.735245 121.635556 
L 207.140564 121.635556 
L 207.353397 121.409293 
L 209.481721 121.409293 
L 209.694554 121.18303 
L 210.971549 121.18303 
L 211.184381 120.504242 
L 224.379993 120.504242 
L 224.592826 120.27798 
L 226.72115 120.27798 
L 226.933983 119.825455 
L 228.210978 119.825455 
L 228.42381 119.599192 
L 232.467627 119.599192 
L 232.680459 119.372929 
L 241.40659 119.372929 
L 241.619423 119.146667 
L 242.470752 119.146667 
L 242.683585 118.920404 
L 245.876072 118.920404 
L 246.088904 118.467879 
L 250.984051 118.467879 
L 251.196883 118.241616 
L 251.622548 118.241616 
L 251.835381 117.110303 
L 268.010648 117.110303 
L 268.436313 116.431515 
L 270.351805 116.431515 
L 270.564637 116.205253 
L 275.034119 116.205253 
L 275.246951 115.97899 
L 288.229731 115.97899 
L 288.442564 115.752727 
L 289.506726 115.752727 
L 289.719558 115.526465 
L 293.763375 115.526465 
L 293.976208 115.300202 
L 313.982459 115.300202 
L 314.195291 115.073939 
L 316.110783 115.073939 
L 316.323616 114.847677 
L 319.941768 114.847677 
L 320.367433 114.395152 
L 324.836914 114.395152 
L 325.049747 114.168889 
L 341.650679 114.168889 
L 341.863511 113.942626 
L 343.353338 113.942626 
L 343.566171 113.716364 
L 346.332993 113.716364 
L 346.545825 113.490101 
L 351.228139 113.490101 
L 351.440972 113.263838 
L 372.93705 113.263838 
L 373.149883 113.037576 
L 375.916705 113.037576 
L 375.916705 113.037576 
" clip-path="url(#pe1bbdccf47)" style="fill: none; stroke: #db5f57; stroke-width: 1.2; stroke-linecap: round"/>
   </g>
   <g id="line2d_39">
    <path d="M 69.650795 475.28404 
L 70.502125 371.429495 
L 70.714958 366.67798 
L 71.353455 324.366869 
L 71.991953 303.098182 
L 72.417617 297.667879 
L 72.843282 287.938586 
L 73.056115 287.259798 
L 73.268947 286.128485 
L 73.48178 282.734545 
L 73.694612 273.457778 
L 74.120277 265.312323 
L 74.33311 259.88202 
L 74.545942 251.510303 
L 74.758774 250.37899 
L 74.971607 248.116364 
L 75.184439 247.663838 
L 76.461434 239.744646 
L 76.674267 239.292121 
L 77.099932 235.898182 
L 77.312764 235.219394 
L 77.525596 232.27798 
L 77.951261 230.241616 
L 78.802591 221.869899 
L 79.015424 221.869899 
L 79.228256 219.154747 
L 79.441089 218.249697 
L 79.653921 216.665859 
L 79.866754 216.439596 
L 81.143748 208.972929 
L 81.356581 208.294141 
L 81.569413 208.067879 
L 81.782246 207.615354 
L 83.272073 207.615354 
L 83.484905 207.389091 
L 83.697738 204.900202 
L 83.91057 204.900202 
L 84.123403 203.995152 
L 84.549068 203.542626 
L 84.7619 203.542626 
L 84.974733 202.863838 
L 85.187565 202.637576 
L 85.400397 201.958788 
L 85.61323 201.958788 
L 86.038895 199.922424 
L 86.251727 196.98101 
L 86.677392 195.397172 
L 86.890225 194.492121 
L 87.103057 194.492121 
L 87.31589 193.813333 
L 87.528722 193.813333 
L 88.167219 192.003232 
L 88.380052 192.003232 
L 88.805717 190.645657 
L 89.018549 190.419394 
L 89.231382 189.288081 
L 89.444214 189.288081 
L 89.657047 188.38303 
L 90.082712 187.930505 
L 90.295544 187.47798 
L 90.508376 187.47798 
L 90.721209 187.025455 
L 90.934041 187.025455 
L 91.359706 186.346667 
L 91.572539 186.346667 
L 91.785371 185.894141 
L 91.998204 185.894141 
L 92.211036 185.667879 
L 92.849534 185.667879 
L 93.488031 183.857778 
L 93.913696 183.857778 
L 94.126528 182.952727 
L 94.552193 182.500202 
L 94.977858 181.368889 
L 95.190691 181.368889 
L 95.616356 180.690101 
L 95.829188 180.690101 
L 96.04202 180.463838 
L 96.254853 179.785051 
L 96.467685 179.785051 
L 96.680518 179.558788 
L 97.106183 179.558788 
L 97.319015 178.653737 
L 97.531848 178.653737 
L 97.74468 178.427475 
L 97.957513 177.974949 
L 98.170345 177.974949 
L 98.383177 177.748687 
L 99.234507 177.748687 
L 99.44734 177.522424 
L 104.555319 177.522424 
L 104.980984 177.069899 
L 112.43012 177.069899 
L 112.642952 176.843636 
L 117.538099 176.843636 
L 117.750931 176.617374 
L 134.99036 176.617374 
L 135.203193 166.661818 
L 239.278266 166.661818 
L 239.491098 160.326465 
L 239.916763 159.873939 
L 240.980925 159.873939 
L 241.619423 159.195152 
L 245.237574 159.195152 
L 245.450407 158.516364 
L 248.642894 158.516364 
L 248.855726 158.290101 
L 375.916705 158.290101 
L 375.916705 158.290101 
" clip-path="url(#pe1bbdccf47)" style="fill: none; stroke: #b9db57; stroke-width: 1.2; stroke-linecap: round"/>
   </g>
   <g id="line2d_40">
    <path d="M 69.650795 474.265859 
L 70.502125 365.320404 
L 70.92779 339.526465 
L 71.140623 319.162828 
L 71.353455 315.995152 
L 71.77912 291.558788 
L 71.991953 290.427475 
L 72.204785 288.391111 
L 72.417617 280.924444 
L 72.63045 277.530505 
L 72.843282 270.968889 
L 73.056115 269.158788 
L 73.268947 268.48 
L 73.48178 263.954747 
L 73.907445 251.28404 
L 74.33311 241.554747 
L 74.545942 240.87596 
L 74.758774 233.18303 
L 75.184439 230.015354 
L 75.610104 228.205253 
L 75.822937 224.585051 
L 76.035769 224.132525 
L 76.248602 223.001212 
L 76.461434 219.607273 
L 76.674267 218.928485 
L 77.099932 216.665859 
L 77.312764 215.760808 
L 77.738429 211.461818 
L 77.951261 210.78303 
L 78.164094 207.841616 
L 78.376926 207.162828 
L 78.802591 200.827475 
L 79.015424 199.922424 
L 79.228256 199.696162 
L 79.441089 198.791111 
L 79.866754 195.623434 
L 80.292418 194.265859 
L 81.356581 189.061818 
L 81.995078 186.799192 
L 82.207911 184.08404 
L 82.420743 184.08404 
L 82.633575 183.857778 
L 82.846408 183.857778 
L 83.91057 180.463838 
L 84.123403 180.237576 
L 84.336235 179.785051 
L 84.549068 179.785051 
L 84.974733 179.332525 
L 85.187565 177.974949 
L 85.61323 177.974949 
L 85.826062 175.938586 
L 86.038895 175.259798 
L 86.46456 172.092121 
L 86.677392 171.413333 
L 86.890225 171.187071 
L 87.103057 170.055758 
L 88.592884 166.661818 
L 88.805717 165.98303 
L 89.018549 165.756768 
L 89.231382 165.756768 
L 89.657047 163.494141 
L 89.869879 163.494141 
L 90.508376 162.362828 
L 90.721209 162.362828 
L 90.934041 162.136566 
L 91.359706 160.326465 
L 91.572539 160.100202 
L 91.785371 157.611313 
L 91.998204 157.611313 
L 92.211036 157.158788 
L 92.636701 157.158788 
L 92.849534 156.932525 
L 93.275198 155.801212 
L 93.488031 155.801212 
L 94.126528 154.443636 
L 94.552193 154.443636 
L 94.977858 152.633535 
L 95.616356 152.633535 
L 95.829188 152.407273 
L 96.254853 151.502222 
L 96.467685 151.502222 
L 97.106183 150.823434 
L 97.74468 149.692121 
L 98.170345 149.692121 
L 98.383177 149.239596 
L 98.59601 149.239596 
L 98.808842 149.013333 
L 99.234507 148.108283 
L 99.44734 148.108283 
L 99.660172 147.88202 
L 99.873005 147.88202 
L 100.085837 147.655758 
L 100.937167 147.655758 
L 101.149999 146.750707 
L 102.214162 146.750707 
L 102.426994 146.524444 
L 102.852659 146.524444 
L 103.278324 146.071919 
L 104.768151 146.071919 
L 104.980984 145.845657 
L 106.045146 145.845657 
L 106.470811 144.940606 
L 106.683643 144.940606 
L 106.896476 144.714343 
L 107.747806 144.714343 
L 107.960638 144.261818 
L 108.173471 144.261818 
L 108.386303 144.035556 
L 108.599136 143.130505 
L 109.0248 143.130505 
L 109.237633 142.67798 
L 109.663298 141.320404 
L 110.088963 140.641616 
L 110.301795 139.510303 
L 110.514628 139.510303 
L 110.940293 138.831515 
L 111.57879 138.831515 
L 111.791622 138.605253 
L 112.004455 138.605253 
L 112.217287 138.37899 
L 112.642952 138.37899 
L 112.855785 137.926465 
L 114.771277 137.926465 
L 115.409774 135.663838 
L 115.622607 135.663838 
L 115.835439 134.985051 
L 116.686769 134.985051 
L 116.899601 134.758788 
L 117.538099 134.758788 
L 117.750931 134.08 
L 117.963764 134.08 
L 118.389429 133.627475 
L 118.602261 133.627475 
L 119.027926 133.174949 
L 119.453591 133.174949 
L 119.666423 132.722424 
L 120.092088 132.722424 
L 120.517753 132.269899 
L 120.730586 132.269899 
L 120.943418 132.043636 
L 126.477062 132.043636 
L 126.689895 131.817374 
L 127.541224 131.817374 
L 127.754057 131.591111 
L 128.605387 131.591111 
L 128.818219 131.364848 
L 130.095214 131.364848 
L 130.308046 131.138586 
L 131.159376 131.138586 
L 132.010706 130.233535 
L 132.223539 130.233535 
L 132.436371 130.007273 
L 133.500533 130.007273 
L 133.713366 129.78101 
L 139.24701 129.78101 
L 139.459842 129.554747 
L 146.696146 129.554747 
L 146.908978 129.328485 
L 149.462968 129.328485 
L 149.6758 129.102222 
L 149.888633 129.102222 
L 150.314298 128.649697 
L 151.165627 128.649697 
L 151.37846 128.423434 
L 151.804125 128.423434 
L 152.016957 128.197172 
L 157.763434 128.197172 
L 157.976266 127.970909 
L 158.401931 127.970909 
L 158.614763 127.744646 
L 160.955921 127.744646 
L 161.168753 127.518384 
L 165.851067 127.518384 
L 166.0639 127.292121 
L 170.320549 127.292121 
L 170.533381 126.839596 
L 171.810376 126.839596 
L 172.023208 126.613333 
L 174.364365 126.613333 
L 174.577198 126.387071 
L 176.705523 126.387071 
L 176.918355 126.160808 
L 178.19535 126.160808 
L 178.408182 125.934545 
L 182.664831 125.934545 
L 182.877664 125.708283 
L 185.857318 125.708283 
L 186.070151 125.48202 
L 193.519287 125.48202 
L 193.732119 125.255758 
L 194.583449 125.255758 
L 194.796282 125.029495 
L 197.775936 125.029495 
L 197.988768 124.803232 
L 199.691428 124.803232 
L 199.904261 124.57697 
L 202.45825 124.57697 
L 203.096748 123.219394 
L 217.356522 123.219394 
L 217.569355 122.993131 
L 217.782187 122.314343 
L 224.167161 122.314343 
L 224.379993 122.088081 
L 226.082653 122.088081 
L 226.295486 121.635556 
L 228.849475 121.635556 
L 229.062308 121.409293 
L 237.362773 121.409293 
L 237.575606 121.18303 
L 239.491098 121.18303 
L 239.703931 120.956768 
L 240.980925 120.956768 
L 241.193758 120.730505 
L 245.450407 120.730505 
L 245.663239 120.504242 
L 246.514569 120.504242 
L 246.727402 120.27798 
L 250.771218 120.27798 
L 250.984051 119.825455 
L 251.196883 119.825455 
L 251.409716 119.599192 
L 255.2407 119.599192 
L 255.453533 119.372929 
L 265.456658 119.372929 
L 265.669491 119.146667 
L 274.395621 119.146667 
L 274.608454 118.920404 
L 276.736778 118.920404 
L 276.949611 118.694141 
L 288.442564 118.694141 
L 288.655396 118.467879 
L 288.868229 118.467879 
L 289.081061 118.241616 
L 293.976208 118.241616 
L 294.18904 118.015354 
L 315.472286 118.015354 
L 315.685119 117.789091 
L 316.962113 117.789091 
L 317.174946 117.562828 
L 318.877605 117.562828 
L 319.090438 117.336566 
L 319.941768 117.336566 
L 320.1546 117.110303 
L 328.667899 117.110303 
L 328.880731 116.657778 
L 339.309522 116.657778 
L 339.522354 116.431515 
L 341.863511 116.431515 
L 342.289176 115.97899 
L 343.779003 115.97899 
L 343.991836 115.752727 
L 346.12016 115.752727 
L 346.332993 115.526465 
L 374.001212 115.526465 
L 374.214045 115.300202 
L 374.63971 115.300202 
L 374.852542 115.073939 
L 375.916705 115.073939 
L 375.916705 115.073939 
" clip-path="url(#pe1bbdccf47)" style="fill: none; stroke: #57db94; stroke-width: 1.2; stroke-linecap: round"/>
   </g>
   <g id="line2d_41">
    <path d="M 69.650795 481.619394 
L 69.863628 449.037576 
L 70.07646 435.914343 
L 70.289293 435.914343 
L 70.502125 435.688081 
L 70.92779 435.009293 
L 71.353455 435.009293 
L 71.566288 434.330505 
L 71.77912 413.966869 
L 71.991953 409.667879 
L 72.63045 404.237576 
L 73.056115 403.106263 
L 73.268947 398.58101 
L 73.48178 365.999192 
L 73.907445 261.239596 
L 74.33311 259.88202 
L 74.758774 259.203232 
L 75.184439 259.203232 
L 75.397272 248.342626 
L 75.610104 227.300202 
L 75.822937 225.942626 
L 76.674267 225.942626 
L 77.312764 224.811313 
L 77.738429 224.811313 
L 77.951261 224.585051 
L 78.164094 224.585051 
L 78.376926 205.352727 
L 78.589759 204.900202 
L 78.802591 204.900202 
L 79.015424 204.673939 
L 79.653921 202.411313 
L 79.866754 202.411313 
L 80.079586 191.324444 
L 80.292418 191.098182 
L 80.505251 191.098182 
L 80.718083 190.871919 
L 80.930916 190.871919 
L 81.143748 190.193131 
L 81.356581 190.193131 
L 81.569413 189.966869 
L 81.782246 183.631515 
L 82.846408 183.631515 
L 83.05924 183.405253 
L 83.272073 178.653737 
L 83.484905 178.653737 
L 83.697738 178.427475 
L 84.974733 178.427475 
L 85.187565 173.902222 
L 85.400397 173.67596 
L 85.61323 173.223434 
L 86.251727 173.223434 
L 86.46456 172.770909 
L 86.677392 172.770909 
L 86.890225 172.544646 
L 87.103057 172.544646 
L 87.31589 164.851717 
L 87.954387 163.720404 
L 88.167219 162.362828 
L 88.592884 162.362828 
L 88.805717 162.136566 
L 89.018549 161.457778 
L 89.231382 161.457778 
L 89.444214 160.77899 
L 89.869879 160.77899 
L 90.082712 157.611313 
L 90.295544 156.932525 
L 90.721209 156.932525 
L 90.934041 156.48 
L 91.146874 154.896162 
L 92.849534 154.896162 
L 93.275198 150.144646 
L 93.488031 149.918384 
L 93.700863 149.918384 
L 93.913696 149.692121 
L 94.339361 149.692121 
L 94.552193 149.013333 
L 94.765026 147.88202 
L 94.977858 147.655758 
L 95.403523 147.655758 
L 95.616356 146.750707 
L 96.04202 146.750707 
L 96.467685 146.298182 
L 96.89335 146.298182 
L 97.106183 144.940606 
L 98.170345 144.940606 
L 98.383177 143.809293 
L 98.59601 143.58303 
L 100.511502 143.58303 
L 100.724335 142.67798 
L 100.937167 142.451717 
L 102.639827 142.451717 
L 102.852659 142.225455 
L 103.703989 142.225455 
L 103.916821 141.999192 
L 104.129654 141.999192 
L 104.342486 141.094141 
L 104.555319 141.094141 
L 104.768151 140.867879 
L 105.832314 140.867879 
L 106.257978 140.415354 
L 106.470811 139.510303 
L 107.960638 139.510303 
L 108.173471 137.926465 
L 109.87613 137.926465 
L 110.088963 137.473939 
L 110.72746 137.473939 
L 110.940293 134.985051 
L 111.153125 134.758788 
L 111.57879 134.758788 
L 111.791622 134.532525 
L 112.217287 134.532525 
L 113.068617 133.627475 
L 113.494282 133.627475 
L 113.707115 133.401212 
L 114.558444 133.401212 
L 114.984109 132.948687 
L 115.622607 132.948687 
L 115.835439 131.138586 
L 116.048272 130.912323 
L 117.325266 130.912323 
L 117.538099 130.007273 
L 117.963764 130.007273 
L 118.176596 129.78101 
L 118.389429 129.328485 
L 119.027926 129.328485 
L 119.240758 128.87596 
L 119.453591 128.87596 
L 119.666423 128.649697 
L 120.092088 128.649697 
L 120.304921 128.197172 
L 120.943418 128.197172 
L 121.156251 127.744646 
L 122.433245 127.744646 
L 122.646078 127.518384 
L 123.071743 127.518384 
L 123.284575 127.292121 
L 127.328392 127.292121 
L 127.541224 127.065859 
L 128.392554 127.065859 
L 128.605387 126.839596 
L 129.243884 126.839596 
L 129.456717 126.613333 
L 130.308046 126.613333 
L 130.520879 126.387071 
L 130.946544 126.387071 
L 131.159376 125.934545 
L 131.585041 125.934545 
L 131.797874 125.708283 
L 133.713366 125.708283 
L 133.926198 125.029495 
L 134.351863 125.029495 
L 134.564696 124.57697 
L 134.777528 124.57697 
L 135.203193 124.124444 
L 136.480188 124.124444 
L 136.69302 123.898182 
L 138.39568 123.898182 
L 138.608512 123.671919 
L 139.459842 123.671919 
L 139.885507 122.993131 
L 140.524004 122.993131 
L 140.736837 122.766869 
L 148.82447 122.766869 
L 149.037303 122.540606 
L 149.250135 122.540606 
L 149.462968 122.314343 
L 150.101465 122.314343 
L 150.314298 122.088081 
L 150.52713 122.088081 
L 150.739962 121.635556 
L 152.868287 121.635556 
L 153.08112 121.409293 
L 158.189099 121.409293 
L 158.401931 120.956768 
L 158.827596 120.956768 
L 159.040428 120.730505 
L 167.553727 120.730505 
L 167.766559 120.504242 
L 177.556852 120.504242 
L 177.769685 119.599192 
L 178.408182 119.599192 
L 178.621015 119.372929 
L 182.239166 119.372929 
L 182.451999 119.146667 
L 185.431653 119.146667 
L 185.644486 118.920404 
L 186.282983 118.920404 
L 186.495816 118.694141 
L 192.667957 118.694141 
L 192.880789 118.467879 
L 198.201601 118.467879 
L 198.414433 118.241616 
L 199.691428 118.241616 
L 199.904261 117.789091 
L 203.735245 117.789091 
L 203.948077 117.336566 
L 206.714899 117.336566 
L 206.927732 117.110303 
L 212.674208 117.110303 
L 212.887041 116.657778 
L 214.802533 116.657778 
L 215.015365 116.431515 
L 215.44103 116.431515 
L 215.653863 116.205253 
L 224.167161 116.205253 
L 224.379993 115.97899 
L 226.295486 115.97899 
L 226.508318 115.526465 
L 227.998145 115.526465 
L 228.210978 115.300202 
L 234.170287 115.300202 
L 234.383119 115.073939 
L 244.173412 115.073939 
L 244.386245 114.847677 
L 245.876072 114.847677 
L 246.088904 114.621414 
L 246.514569 114.621414 
L 246.727402 114.395152 
L 248.430061 114.395152 
L 248.642894 114.168889 
L 250.984051 114.168889 
L 251.409716 112.811313 
L 375.916705 112.811313 
L 375.916705 112.811313 
" clip-path="url(#pe1bbdccf47)" style="fill: none; stroke: #5784db; stroke-width: 1.2; stroke-linecap: round"/>
   </g>
   <g id="line2d_42">
    <path d="M 69.650795 470.08 
L 70.714958 328.665859 
L 71.140623 299.251717 
L 71.77912 277.98303 
L 72.204785 271.195152 
L 72.417617 267.574949 
L 72.63045 260.560808 
L 73.056115 255.356768 
L 73.268947 253.999192 
L 73.48178 250.152727 
L 73.694612 240.87596 
L 73.907445 237.48202 
L 74.545942 218.249697 
L 75.184439 213.724444 
L 75.397272 212.593131 
L 77.099932 199.017374 
L 77.312764 198.112323 
L 77.738429 194.039596 
L 77.951261 192.908283 
L 78.164094 190.645657 
L 78.376926 187.025455 
L 78.589759 185.667879 
L 78.802591 182.500202 
L 79.441089 180.237576 
L 79.653921 177.974949 
L 80.079586 175.938586 
L 80.505251 173.902222 
L 80.718083 172.997172 
L 81.356581 168.471919 
L 81.569413 168.019394 
L 81.995078 166.435556 
L 82.207911 163.720404 
L 82.420743 163.720404 
L 82.633575 163.494141 
L 82.846408 163.494141 
L 83.05924 162.815354 
L 83.272073 162.589091 
L 83.697738 160.552727 
L 83.91057 160.326465 
L 84.123403 159.421414 
L 84.336235 159.421414 
L 84.549068 159.195152 
L 84.7619 159.195152 
L 85.187565 157.385051 
L 85.61323 156.932525 
L 85.826062 154.896162 
L 86.038895 154.217374 
L 86.251727 151.502222 
L 86.677392 149.692121 
L 87.103057 148.334545 
L 87.31589 147.88202 
L 87.528722 146.97697 
L 87.741555 146.97697 
L 87.954387 146.524444 
L 88.167219 145.619394 
L 88.380052 145.393131 
L 89.018549 143.58303 
L 89.231382 143.130505 
L 89.657047 141.094141 
L 89.869879 141.094141 
L 90.295544 139.736566 
L 90.508376 139.510303 
L 90.934041 139.510303 
L 91.359706 137.247677 
L 91.572539 137.247677 
L 91.785371 134.758788 
L 91.998204 134.758788 
L 92.211036 134.306263 
L 92.636701 134.306263 
L 92.849534 134.08 
L 93.913696 132.043636 
L 94.126528 131.817374 
L 94.339361 131.817374 
L 94.552193 131.591111 
L 94.765026 130.459798 
L 94.977858 130.007273 
L 95.403523 130.007273 
L 95.616356 129.78101 
L 95.829188 129.78101 
L 96.254853 128.87596 
L 96.467685 128.87596 
L 97.106183 128.197172 
L 97.319015 127.518384 
L 97.531848 127.292121 
L 97.74468 126.839596 
L 98.170345 126.839596 
L 98.383177 126.387071 
L 98.808842 126.387071 
L 99.234507 125.934545 
L 99.44734 125.934545 
L 99.660172 125.708283 
L 99.873005 125.708283 
L 100.085837 125.48202 
L 100.937167 125.48202 
L 101.149999 124.803232 
L 102.214162 124.803232 
L 102.426994 124.57697 
L 102.639827 124.57697 
L 103.278324 123.898182 
L 103.703989 123.898182 
L 103.916821 123.671919 
L 104.555319 123.671919 
L 104.768151 123.445657 
L 105.832314 123.445657 
L 106.045146 123.219394 
L 106.683643 122.088081 
L 107.534973 122.088081 
L 107.960638 121.635556 
L 108.811968 120.051717 
L 109.0248 120.051717 
L 109.237633 119.599192 
L 109.663298 118.241616 
L 110.088963 117.110303 
L 110.301795 116.431515 
L 110.514628 116.431515 
L 111.153125 115.300202 
L 112.004455 115.300202 
L 112.43012 114.847677 
L 112.642952 114.847677 
L 113.068617 114.395152 
L 114.771277 114.395152 
L 115.409774 112.585051 
L 115.622607 112.585051 
L 115.835439 111.906263 
L 116.261104 111.453737 
L 116.473937 111.453737 
L 116.899601 111.001212 
L 117.112434 111.001212 
L 117.325266 110.774949 
L 117.538099 110.774949 
L 117.750931 110.548687 
L 118.176596 110.548687 
L 118.389429 110.096162 
L 118.815094 110.096162 
L 119.240758 109.643636 
L 119.453591 109.643636 
L 119.666423 109.191111 
L 120.092088 109.191111 
L 120.304921 108.738586 
L 120.517753 108.738586 
L 120.730586 108.512323 
L 122.433245 108.512323 
L 122.646078 108.286061 
L 122.85891 108.286061 
L 123.071743 108.059798 
L 127.328392 108.059798 
L 127.541224 107.833535 
L 128.605387 107.833535 
L 128.818219 107.607273 
L 130.095214 107.607273 
L 130.308046 107.38101 
L 130.946544 107.38101 
L 131.159376 106.928485 
L 131.372209 106.928485 
L 132.010706 106.249697 
L 132.223539 106.249697 
L 132.436371 106.023434 
L 133.500533 106.023434 
L 133.713366 105.797172 
L 136.480188 105.797172 
L 136.69302 105.570909 
L 139.24701 105.570909 
L 139.672675 105.118384 
L 140.524004 105.118384 
L 140.736837 104.892121 
L 146.696146 104.892121 
L 146.908978 104.665859 
L 149.250135 104.665859 
L 149.462968 104.439596 
L 149.888633 104.439596 
L 150.314298 103.987071 
L 150.52713 103.987071 
L 150.739962 103.760808 
L 157.763434 103.760808 
L 157.976266 103.534545 
L 158.401931 103.534545 
L 158.614763 103.308283 
L 158.827596 103.308283 
L 159.040428 103.08202 
L 165.851067 103.08202 
L 166.0639 102.855758 
L 167.553727 102.855758 
L 167.766559 102.629495 
L 170.320549 102.629495 
L 170.533381 102.403232 
L 171.810376 102.403232 
L 172.023208 102.17697 
L 174.364365 102.17697 
L 174.577198 101.950707 
L 176.705523 101.950707 
L 176.918355 101.724444 
L 178.19535 101.724444 
L 178.408182 101.498182 
L 182.239166 101.498182 
L 182.451999 101.271919 
L 182.664831 101.271919 
L 182.877664 101.045657 
L 185.857318 101.045657 
L 186.070151 100.819394 
L 192.667957 100.819394 
L 192.880789 100.593131 
L 197.775936 100.593131 
L 197.988768 100.366869 
L 199.691428 100.366869 
L 199.904261 99.914343 
L 202.45825 99.914343 
L 203.096748 98.556768 
L 206.714899 98.556768 
L 206.927732 98.330505 
L 209.481721 98.330505 
L 209.694554 98.104242 
L 210.971549 98.104242 
L 211.184381 97.87798 
L 217.356522 97.87798 
L 217.569355 97.651717 
L 217.782187 96.972929 
L 224.167161 96.972929 
L 224.379993 96.746667 
L 226.082653 96.746667 
L 226.295486 96.294141 
L 227.998145 96.294141 
L 228.210978 96.067879 
L 232.467627 96.067879 
L 232.680459 95.841616 
L 239.491098 95.841616 
L 239.703931 95.615354 
L 240.980925 95.615354 
L 241.193758 95.389091 
L 242.470752 95.389091 
L 242.683585 95.162828 
L 245.450407 95.162828 
L 245.663239 94.936566 
L 245.876072 94.936566 
L 246.088904 94.710303 
L 250.771218 94.710303 
L 251.409716 93.57899 
L 265.456658 93.57899 
L 265.669491 93.352727 
L 268.010648 93.352727 
L 268.22348 93.126465 
L 274.395621 93.126465 
L 274.608454 92.900202 
L 276.736778 92.900202 
L 276.949611 92.673939 
L 288.229731 92.673939 
L 288.442564 92.447677 
L 288.868229 92.447677 
L 289.081061 92.221414 
L 293.763375 92.221414 
L 293.976208 91.995152 
L 315.472286 91.995152 
L 315.685119 91.768889 
L 316.962113 91.768889 
L 317.174946 91.542626 
L 318.877605 91.542626 
L 319.090438 91.316364 
L 319.941768 91.316364 
L 320.1546 91.090101 
L 324.836914 91.090101 
L 325.049747 90.863838 
L 328.667899 90.863838 
L 328.880731 90.637576 
L 341.863511 90.637576 
L 342.289176 90.185051 
L 343.779003 90.185051 
L 343.991836 89.958788 
L 346.12016 89.958788 
L 346.332993 89.732525 
L 351.228139 89.732525 
L 351.440972 89.506263 
L 374.63971 89.506263 
L 374.852542 89.28 
L 375.916705 89.28 
L 375.916705 89.28 
" clip-path="url(#pe1bbdccf47)" style="fill: none; stroke: #c957db; stroke-width: 1.2; stroke-linecap: round"/>
   </g>
   <g id="line2d_43"/>
   <g id="line2d_44"/>
   <g id="line2d_45"/>
   <g id="line2d_46"/>
   <g id="line2d_47"/>
   <g id="patch_3">
    <path d="M 54.3375 512.64 
L 54.3375 69.12 
" style="fill: none; stroke: #cccccc; stroke-linejoin: miter; stroke-linecap: square"/>
   </g>
   <g id="patch_4">
    <path d="M 54.3375 512.64 
L 391.23 512.64 
" style="fill: none; stroke: #cccccc; stroke-linejoin: miter; stroke-linecap: square"/>
   </g>
   <g id="text_40">
    <!-- Edge Coverage History -->
    <g style="fill: #262626" transform="translate(115.892262 63.12)scale(0.165888 -0.165888)">
     <defs>
      <path id="DejaVuSans-Bold-45" d="M 588 4666 
L 3834 4666 
L 3834 3756 
L 1791 3756 
L 1791 2888 
L 3713 2888 
L 3713 1978 
L 1791 1978 
L 1791 909 
L 3903 909 
L 3903 0 
L 588 0 
L 588 4666 
z
" transform="scale(0.015625)"/>
      <path id="DejaVuSans-Bold-64" d="M 2919 2988 
L 2919 4863 
L 4044 4863 
L 4044 0 
L 2919 0 
L 2919 506 
Q 2688 197 2409 53 
Q 2131 -91 1766 -91 
Q 1119 -91 703 423 
Q 288 938 288 1747 
Q 288 2556 703 3070 
Q 1119 3584 1766 3584 
Q 2128 3584 2408 3439 
Q 2688 3294 2919 2988 
z
M 2181 722 
Q 2541 722 2730 984 
Q 2919 1247 2919 1747 
Q 2919 2247 2730 2509 
Q 2541 2772 2181 2772 
Q 1825 2772 1636 2509 
Q 1447 2247 1447 1747 
Q 1447 1247 1636 984 
Q 1825 722 2181 722 
z
" transform="scale(0.015625)"/>
      <path id="DejaVuSans-Bold-67" d="M 2919 594 
Q 2688 288 2409 144 
Q 2131 0 1766 0 
Q 1125 0 706 504 
Q 288 1009 288 1791 
Q 288 2575 706 3076 
Q 1125 3578 1766 3578 
Q 2131 3578 2409 3434 
Q 2688 3291 2919 2981 
L 2919 3500 
L 4044 3500 
L 4044 353 
Q 4044 -491 3511 -936 
Q 2978 -1381 1966 -1381 
Q 1638 -1381 1331 -1331 
Q 1025 -1281 716 -1178 
L 716 -306 
Q 1009 -475 1290 -558 
Q 1572 -641 1856 -641 
Q 2406 -641 2662 -400 
Q 2919 -159 2919 353 
L 2919 594 
z
M 2181 2772 
Q 1834 2772 1640 2515 
Q 1447 2259 1447 1791 
Q 1447 1309 1634 1061 
Q 1822 813 2181 813 
Q 2531 813 2725 1069 
Q 2919 1325 2919 1791 
Q 2919 2259 2725 2515 
Q 2531 2772 2181 2772 
z
" transform="scale(0.015625)"/>
      <path id="DejaVuSans-Bold-65" d="M 4031 1759 
L 4031 1441 
L 1416 1441 
Q 1456 1047 1700 850 
Q 1944 653 2381 653 
Q 2734 653 3104 758 
Q 3475 863 3866 1075 
L 3866 213 
Q 3469 63 3072 -14 
Q 2675 -91 2278 -91 
Q 1328 -91 801 392 
Q 275 875 275 1747 
Q 275 2603 792 3093 
Q 1309 3584 2216 3584 
Q 3041 3584 3536 3087 
Q 4031 2591 4031 1759 
z
M 2881 2131 
Q 2881 2450 2695 2645 
Q 2509 2841 2209 2841 
Q 1884 2841 1681 2658 
Q 1478 2475 1428 2131 
L 2881 2131 
z
" transform="scale(0.015625)"/>
      <path id="DejaVuSans-Bold-20" transform="scale(0.015625)"/>
      <path id="DejaVuSans-Bold-43" d="M 4288 256 
Q 3956 84 3597 -3 
Q 3238 -91 2847 -91 
Q 1681 -91 1000 561 
Q 319 1213 319 2328 
Q 319 3447 1000 4098 
Q 1681 4750 2847 4750 
Q 3238 4750 3597 4662 
Q 3956 4575 4288 4403 
L 4288 3438 
Q 3953 3666 3628 3772 
Q 3303 3878 2944 3878 
Q 2300 3878 1931 3465 
Q 1563 3053 1563 2328 
Q 1563 1606 1931 1193 
Q 2300 781 2944 781 
Q 3303 781 3628 887 
Q 3953 994 4288 1222 
L 4288 256 
z
" transform="scale(0.015625)"/>
      <path id="DejaVuSans-Bold-6f" d="M 2203 2784 
Q 1831 2784 1636 2517 
Q 1441 2250 1441 1747 
Q 1441 1244 1636 976 
Q 1831 709 2203 709 
Q 2569 709 2762 976 
Q 2956 1244 2956 1747 
Q 2956 2250 2762 2517 
Q 2569 2784 2203 2784 
z
M 2203 3584 
Q 3106 3584 3614 3096 
Q 4122 2609 4122 1747 
Q 4122 884 3614 396 
Q 3106 -91 2203 -91 
Q 1297 -91 786 396 
Q 275 884 275 1747 
Q 275 2609 786 3096 
Q 1297 3584 2203 3584 
z
" transform="scale(0.015625)"/>
      <path id="DejaVuSans-Bold-76" d="M 97 3500 
L 1216 3500 
L 2088 1081 
L 2956 3500 
L 4078 3500 
L 2700 0 
L 1472 0 
L 97 3500 
z
" transform="scale(0.015625)"/>
      <path id="DejaVuSans-Bold-72" d="M 3138 2547 
Q 2991 2616 2845 2648 
Q 2700 2681 2553 2681 
Q 2122 2681 1889 2404 
Q 1656 2128 1656 1613 
L 1656 0 
L 538 0 
L 538 3500 
L 1656 3500 
L 1656 2925 
Q 1872 3269 2151 3426 
Q 2431 3584 2822 3584 
Q 2878 3584 2943 3579 
Q 3009 3575 3134 3559 
L 3138 2547 
z
" transform="scale(0.015625)"/>
      <path id="DejaVuSans-Bold-61" d="M 2106 1575 
Q 1756 1575 1579 1456 
Q 1403 1338 1403 1106 
Q 1403 894 1545 773 
Q 1688 653 1941 653 
Q 2256 653 2472 879 
Q 2688 1106 2688 1447 
L 2688 1575 
L 2106 1575 
z
M 3816 1997 
L 3816 0 
L 2688 0 
L 2688 519 
Q 2463 200 2181 54 
Q 1900 -91 1497 -91 
Q 953 -91 614 226 
Q 275 544 275 1050 
Q 275 1666 698 1953 
Q 1122 2241 2028 2241 
L 2688 2241 
L 2688 2328 
Q 2688 2594 2478 2717 
Q 2269 2841 1825 2841 
Q 1466 2841 1156 2769 
Q 847 2697 581 2553 
L 581 3406 
Q 941 3494 1303 3539 
Q 1666 3584 2028 3584 
Q 2975 3584 3395 3211 
Q 3816 2838 3816 1997 
z
" transform="scale(0.015625)"/>
      <path id="DejaVuSans-Bold-48" d="M 588 4666 
L 1791 4666 
L 1791 2888 
L 3566 2888 
L 3566 4666 
L 4769 4666 
L 4769 0 
L 3566 0 
L 3566 1978 
L 1791 1978 
L 1791 0 
L 588 0 
L 588 4666 
z
" transform="scale(0.015625)"/>
      <path id="DejaVuSans-Bold-69" d="M 538 3500 
L 1656 3500 
L 1656 0 
L 538 0 
L 538 3500 
z
M 538 4863 
L 1656 4863 
L 1656 3950 
L 538 3950 
L 538 4863 
z
" transform="scale(0.015625)"/>
      <path id="DejaVuSans-Bold-73" d="M 3272 3391 
L 3272 2541 
Q 2913 2691 2578 2766 
Q 2244 2841 1947 2841 
Q 1628 2841 1473 2761 
Q 1319 2681 1319 2516 
Q 1319 2381 1436 2309 
Q 1553 2238 1856 2203 
L 2053 2175 
Q 2913 2066 3209 1816 
Q 3506 1566 3506 1031 
Q 3506 472 3093 190 
Q 2681 -91 1863 -91 
Q 1516 -91 1145 -36 
Q 775 19 384 128 
L 384 978 
Q 719 816 1070 734 
Q 1422 653 1784 653 
Q 2113 653 2278 743 
Q 2444 834 2444 1013 
Q 2444 1163 2330 1236 
Q 2216 1309 1875 1350 
L 1678 1375 
Q 931 1469 631 1722 
Q 331 1975 331 2491 
Q 331 3047 712 3315 
Q 1094 3584 1881 3584 
Q 2191 3584 2531 3537 
Q 2872 3491 3272 3391 
z
" transform="scale(0.015625)"/>
      <path id="DejaVuSans-Bold-74" d="M 1759 4494 
L 1759 3500 
L 2913 3500 
L 2913 2700 
L 1759 2700 
L 1759 1216 
Q 1759 972 1856 886 
Q 1953 800 2241 800 
L 2816 800 
L 2816 0 
L 1856 0 
Q 1194 0 917 276 
Q 641 553 641 1216 
L 641 2700 
L 84 2700 
L 84 3500 
L 641 3500 
L 641 4494 
L 1759 4494 
z
" transform="scale(0.015625)"/>
      <path id="DejaVuSans-Bold-79" d="M 78 3500 
L 1197 3500 
L 2138 1125 
L 2938 3500 
L 4056 3500 
L 2584 -331 
Q 2363 -916 2067 -1148 
Q 1772 -1381 1288 -1381 
L 641 -1381 
L 641 -647 
L 991 -647 
Q 1275 -647 1404 -556 
Q 1534 -466 1606 -231 
L 1638 -134 
L 78 3500 
z
" transform="scale(0.015625)"/>
     </defs>
     <use xlink:href="#DejaVuSans-Bold-45"/>
     <use xlink:href="#DejaVuSans-Bold-64" x="68.310547"/>
     <use xlink:href="#DejaVuSans-Bold-67" x="139.892578"/>
     <use xlink:href="#DejaVuSans-Bold-65" x="211.474609"/>
     <use xlink:href="#DejaVuSans-Bold-20" x="279.296875"/>
     <use xlink:href="#DejaVuSans-Bold-43" x="314.111328"/>
     <use xlink:href="#DejaVuSans-Bold-6f" x="387.5"/>
     <use xlink:href="#DejaVuSans-Bold-76" x="456.201172"/>
     <use xlink:href="#DejaVuSans-Bold-65" x="521.386719"/>
     <use xlink:href="#DejaVuSans-Bold-72" x="589.208984"/>
     <use xlink:href="#DejaVuSans-Bold-61" x="638.525391"/>
     <use xlink:href="#DejaVuSans-Bold-67" x="706.005859"/>
     <use xlink:href="#DejaVuSans-Bold-65" x="777.587891"/>
     <use xlink:href="#DejaVuSans-Bold-20" x="845.410156"/>
     <use xlink:href="#DejaVuSans-Bold-48" x="880.224609"/>
     <use xlink:href="#DejaVuSans-Bold-69" x="963.916016"/>
     <use xlink:href="#DejaVuSans-Bold-73" x="998.193359"/>
     <use xlink:href="#DejaVuSans-Bold-74" x="1057.714844"/>
     <use xlink:href="#DejaVuSans-Bold-6f" x="1105.517578"/>
     <use xlink:href="#DejaVuSans-Bold-72" x="1174.21875"/>
     <use xlink:href="#DejaVuSans-Bold-79" x="1223.535156"/>
    </g>
   </g>
   <g id="legend_1">
    <g id="patch_5">
     <path d="M 267.942 508.24 
L 385.07 508.24 
Q 386.83 508.24 386.83 506.48 
L 386.83 428.8405 
Q 386.83 427.0805 385.07 427.0805 
L 267.942 427.0805 
Q 266.182 427.0805 266.182 428.8405 
L 266.182 506.48 
Q 266.182 508.24 267.942 508.24 
z
" style="fill: #ffffff; opacity: 0.8; stroke: #cccccc; stroke-width: 0.8; stroke-linejoin: miter"/>
    </g>
    <g id="text_41">
     <!-- fuzzer -->
     <g style="fill: #262626" transform="translate(311.809 437.895)scale(0.096 -0.096)">
      <defs>
       <path id="DejaVuSans-66" d="M 2375 4863 
L 2375 4384 
L 1825 4384 
Q 1516 4384 1395 4259 
Q 1275 4134 1275 3809 
L 1275 3500 
L 2222 3500 
L 2222 3053 
L 1275 3053 
L 1275 0 
L 697 0 
L 697 3053 
L 147 3053 
L 147 3500 
L 697 3500 
L 697 3744 
Q 697 4328 969 4595 
Q 1241 4863 1831 4863 
L 2375 4863 
z
" transform="scale(0.015625)"/>
       <path id="DejaVuSans-7a" d="M 353 3500 
L 3084 3500 
L 3084 2975 
L 922 459 
L 3084 459 
L 3084 0 
L 275 0 
L 275 525 
L 2438 3041 
L 353 3041 
L 353 3500 
z
" transform="scale(0.015625)"/>
      </defs>
      <use xlink:href="#DejaVuSans-66"/>
      <use xlink:href="#DejaVuSans-75" x="35.205078"/>
      <use xlink:href="#DejaVuSans-7a" x="98.583984"/>
      <use xlink:href="#DejaVuSans-7a" x="151.074219"/>
      <use xlink:href="#DejaVuSans-65" x="203.564453"/>
      <use xlink:href="#DejaVuSans-72" x="265.087891"/>
     </g>
    </g>
    <g id="line2d_48">
     <path d="M 269.702 447.898125 
L 278.502 447.898125 
L 287.302 447.898125 
" style="fill: none; stroke: #db5f57; stroke-width: 1.2; stroke-linecap: round"/>
    </g>
    <g id="text_42">
     <!-- aflplusplus-0-exid21 -->
     <g style="fill: #262626" transform="translate(294.342 450.978125)scale(0.088 -0.088)">
      <defs>
       <path id="DejaVuSans-6c" d="M 603 4863 
L 1178 4863 
L 1178 0 
L 603 0 
L 603 4863 
z
" transform="scale(0.015625)"/>
       <path id="DejaVuSans-70" d="M 1159 525 
L 1159 -1331 
L 581 -1331 
L 581 3500 
L 1159 3500 
L 1159 2969 
Q 1341 3281 1617 3432 
Q 1894 3584 2278 3584 
Q 2916 3584 3314 3078 
Q 3713 2572 3713 1747 
Q 3713 922 3314 415 
Q 2916 -91 2278 -91 
Q 1894 -91 1617 61 
Q 1341 213 1159 525 
z
M 3116 1747 
Q 3116 2381 2855 2742 
Q 2594 3103 2138 3103 
Q 1681 3103 1420 2742 
Q 1159 2381 1159 1747 
Q 1159 1113 1420 752 
Q 1681 391 2138 391 
Q 2594 391 2855 752 
Q 3116 1113 3116 1747 
z
" transform="scale(0.015625)"/>
       <path id="DejaVuSans-2d" d="M 313 2009 
L 1997 2009 
L 1997 1497 
L 313 1497 
L 313 2009 
z
" transform="scale(0.015625)"/>
       <path id="DejaVuSans-78" d="M 3513 3500 
L 2247 1797 
L 3578 0 
L 2900 0 
L 1881 1375 
L 863 0 
L 184 0 
L 1544 1831 
L 300 3500 
L 978 3500 
L 1906 2253 
L 2834 3500 
L 3513 3500 
z
" transform="scale(0.015625)"/>
      </defs>
      <use xlink:href="#DejaVuSans-61"/>
      <use xlink:href="#DejaVuSans-66" x="61.279297"/>
      <use xlink:href="#DejaVuSans-6c" x="96.484375"/>
      <use xlink:href="#DejaVuSans-70" x="124.267578"/>
      <use xlink:href="#DejaVuSans-6c" x="187.744141"/>
      <use xlink:href="#DejaVuSans-75" x="215.527344"/>
      <use xlink:href="#DejaVuSans-73" x="278.90625"/>
      <use xlink:href="#DejaVuSans-70" x="331.005859"/>
      <use xlink:href="#DejaVuSans-6c" x="394.482422"/>
      <use xlink:href="#DejaVuSans-75" x="422.265625"/>
      <use xlink:href="#DejaVuSans-73" x="485.644531"/>
      <use xlink:href="#DejaVuSans-2d" x="537.744141"/>
      <use xlink:href="#DejaVuSans-30" x="573.828125"/>
      <use xlink:href="#DejaVuSans-2d" x="637.451172"/>
      <use xlink:href="#DejaVuSans-65" x="673.535156"/>
      <use xlink:href="#DejaVuSans-78" x="733.308594"/>
      <use xlink:href="#DejaVuSans-69" x="792.488281"/>
      <use xlink:href="#DejaVuSans-64" x="820.271484"/>
      <use xlink:href="#DejaVuSans-32" x="883.748047"/>
      <use xlink:href="#DejaVuSans-31" x="947.371094"/>
     </g>
    </g>
    <g id="line2d_49">
     <path d="M 269.702 460.814875 
L 278.502 460.814875 
L 287.302 460.814875 
" style="fill: none; stroke: #b9db57; stroke-width: 1.2; stroke-linecap: round"/>
    </g>
    <g id="text_43">
     <!-- fairfuzz-0-exid21 -->
     <g style="fill: #262626" transform="translate(294.342 463.894875)scale(0.088 -0.088)">
      <use xlink:href="#DejaVuSans-66"/>
      <use xlink:href="#DejaVuSans-61" x="35.205078"/>
      <use xlink:href="#DejaVuSans-69" x="96.484375"/>
      <use xlink:href="#DejaVuSans-72" x="124.267578"/>
      <use xlink:href="#DejaVuSans-66" x="165.380859"/>
      <use xlink:href="#DejaVuSans-75" x="200.585938"/>
      <use xlink:href="#DejaVuSans-7a" x="263.964844"/>
      <use xlink:href="#DejaVuSans-7a" x="316.455078"/>
      <use xlink:href="#DejaVuSans-2d" x="368.945312"/>
      <use xlink:href="#DejaVuSans-30" x="405.029297"/>
      <use xlink:href="#DejaVuSans-2d" x="468.652344"/>
      <use xlink:href="#DejaVuSans-65" x="504.736328"/>
      <use xlink:href="#DejaVuSans-78" x="564.509766"/>
      <use xlink:href="#DejaVuSans-69" x="623.689453"/>
      <use xlink:href="#DejaVuSans-64" x="651.472656"/>
      <use xlink:href="#DejaVuSans-32" x="714.949219"/>
      <use xlink:href="#DejaVuSans-31" x="778.572266"/>
     </g>
    </g>
    <g id="line2d_50">
     <path d="M 269.702 473.731625 
L 278.502 473.731625 
L 287.302 473.731625 
" style="fill: none; stroke: #57db94; stroke-width: 1.2; stroke-linecap: round"/>
    </g>
    <g id="text_44">
     <!-- afl-0-exid21 -->
     <g style="fill: #262626" transform="translate(294.342 476.811625)scale(0.088 -0.088)">
      <use xlink:href="#DejaVuSans-61"/>
      <use xlink:href="#DejaVuSans-66" x="61.279297"/>
      <use xlink:href="#DejaVuSans-6c" x="96.484375"/>
      <use xlink:href="#DejaVuSans-2d" x="124.267578"/>
      <use xlink:href="#DejaVuSans-30" x="160.351562"/>
      <use xlink:href="#DejaVuSans-2d" x="223.974609"/>
      <use xlink:href="#DejaVuSans-65" x="260.058594"/>
      <use xlink:href="#DejaVuSans-78" x="319.832031"/>
      <use xlink:href="#DejaVuSans-69" x="379.011719"/>
      <use xlink:href="#DejaVuSans-64" x="406.794922"/>
      <use xlink:href="#DejaVuSans-32" x="470.271484"/>
      <use xlink:href="#DejaVuSans-31" x="533.894531"/>
     </g>
    </g>
    <g id="line2d_51">
     <path d="M 269.702 486.648375 
L 278.502 486.648375 
L 287.302 486.648375 
" style="fill: none; stroke: #5784db; stroke-width: 1.2; stroke-linecap: round"/>
    </g>
    <g id="text_45">
     <!-- aflfast-0-exid21 -->
     <g style="fill: #262626" transform="translate(294.342 489.728375)scale(0.088 -0.088)">
      <use xlink:href="#DejaVuSans-61"/>
      <use xlink:href="#DejaVuSans-66" x="61.279297"/>
      <use xlink:href="#DejaVuSans-6c" x="96.484375"/>
      <use xlink:href="#DejaVuSans-66" x="124.267578"/>
      <use xlink:href="#DejaVuSans-61" x="159.472656"/>
      <use xlink:href="#DejaVuSans-73" x="220.751953"/>
      <use xlink:href="#DejaVuSans-74" x="272.851562"/>
      <use xlink:href="#DejaVuSans-2d" x="312.060547"/>
      <use xlink:href="#DejaVuSans-30" x="348.144531"/>
      <use xlink:href="#DejaVuSans-2d" x="411.767578"/>
      <use xlink:href="#DejaVuSans-65" x="447.851562"/>
      <use xlink:href="#DejaVuSans-78" x="507.625"/>
      <use xlink:href="#DejaVuSans-69" x="566.804688"/>
      <use xlink:href="#DejaVuSans-64" x="594.587891"/>
      <use xlink:href="#DejaVuSans-32" x="658.064453"/>
      <use xlink:href="#DejaVuSans-31" x="721.6875"/>
     </g>
    </g>
    <g id="line2d_52">
     <path d="M 269.702 499.565125 
L 278.502 499.565125 
L 287.302 499.565125 
" style="fill: none; stroke: #c957db; stroke-width: 1.2; stroke-linecap: round"/>
    </g>
    <g id="text_46">
     <!-- fuzzer_global -->
     <g style="fill: #262626" transform="translate(294.342 502.645125)scale(0.088 -0.088)">
      <defs>
       <path id="DejaVuSans-5f" d="M 3263 -1063 
L 3263 -1509 
L -63 -1509 
L -63 -1063 
L 3263 -1063 
z
" transform="scale(0.015625)"/>
       <path id="DejaVuSans-62" d="M 3116 1747 
Q 3116 2381 2855 2742 
Q 2594 3103 2138 3103 
Q 1681 3103 1420 2742 
Q 1159 2381 1159 1747 
Q 1159 1113 1420 752 
Q 1681 391 2138 391 
Q 2594 391 2855 752 
Q 3116 1113 3116 1747 
z
M 1159 2969 
Q 1341 3281 1617 3432 
Q 1894 3584 2278 3584 
Q 2916 3584 3314 3078 
Q 3713 2572 3713 1747 
Q 3713 922 3314 415 
Q 2916 -91 2278 -91 
Q 1894 -91 1617 61 
Q 1341 213 1159 525 
L 1159 0 
L 581 0 
L 581 4863 
L 1159 4863 
L 1159 2969 
z
" transform="scale(0.015625)"/>
      </defs>
      <use xlink:href="#DejaVuSans-66"/>
      <use xlink:href="#DejaVuSans-75" x="35.205078"/>
      <use xlink:href="#DejaVuSans-7a" x="98.583984"/>
      <use xlink:href="#DejaVuSans-7a" x="151.074219"/>
      <use xlink:href="#DejaVuSans-65" x="203.564453"/>
      <use xlink:href="#DejaVuSans-72" x="265.087891"/>
      <use xlink:href="#DejaVuSans-5f" x="306.201172"/>
      <use xlink:href="#DejaVuSans-67" x="356.201172"/>
      <use xlink:href="#DejaVuSans-6c" x="419.677734"/>
      <use xlink:href="#DejaVuSans-6f" x="447.460938"/>
      <use xlink:href="#DejaVuSans-62" x="508.642578"/>
      <use xlink:href="#DejaVuSans-61" x="572.119141"/>
      <use xlink:href="#DejaVuSans-6c" x="633.398438"/>
     </g>
    </g>
   </g>
  </g>
 </g>
 <defs>
  <clipPath id="pe1bbdccf47">
   <rect x="54.3375" y="69.12" width="336.8925" height="443.52"/>
  </clipPath>
 </defs>
</svg>
