<?xml version="1.0" encoding="utf-8" standalone="no"?>
<!DOCTYPE svg PUBLIC "-//W3C//DTD SVG 1.1//EN"
  "http://www.w3.org/Graphics/SVG/1.1/DTD/svg11.dtd">
<svg xmlns:xlink="http://www.w3.org/1999/xlink" width="2764.8pt" height="2073.6pt" viewBox="0 0 2764.8 2073.6" xmlns="http://www.w3.org/2000/svg" version="1.1">
 <metadata>
  <rdf:RDF xmlns:dc="http://purl.org/dc/elements/1.1/" xmlns:cc="http://creativecommons.org/ns#" xmlns:rdf="http://www.w3.org/1999/02/22-rdf-syntax-ns#">
   <cc:Work>
    <dc:type rdf:resource="http://purl.org/dc/dcmitype/StillImage"/>
    <dc:date>2022-09-15T06:14:51.871516</dc:date>
    <dc:format>image/svg+xml</dc:format>
    <dc:creator>
     <cc:Agent>
      <dc:title>Matplotlib v3.5.3, https://matplotlib.org/</dc:title>
     </cc:Agent>
    </dc:creator>
   </cc:Work>
  </rdf:RDF>
 </metadata>
 <defs>
  <style type="text/css">*{stroke-linejoin: round; stroke-linecap: butt}</style>
 </defs>
 <g id="figure_1">
  <g id="patch_1">
   <path d="M 0 2073.6 
L 2764.8 2073.6 
L 2764.8 0 
L 0 0 
z
" style="fill: #ffffff"/>
  </g>
  <g id="axes_1">
   <g id="patch_2">
    <path d="M 345.6 1845.504 
L 2488.32 1845.504 
L 2488.32 248.832 
L 345.6 248.832 
z
" style="fill: #ffffff"/>
   </g>
   <g id="matplotlib.axis_1">
    <g id="xtick_1">
     <g id="line2d_1">
      <path d="M 442.996364 1845.504 
L 442.996364 248.832 
" clip-path="url(#p43b94d9280)" style="fill: none; stroke: #cccccc; stroke-linecap: round"/>
     </g>
     <g id="text_1">
      <!-- 0 -->
      <g style="fill: #262626" transform="translate(439.496989 1863.362281)scale(0.11 -0.11)">
       <defs>
        <path id="DejaVuSans-30" d="M 2034 4250 
Q 1547 4250 1301 3770 
Q 1056 3291 1056 2328 
Q 1056 1369 1301 889 
Q 1547 409 2034 409 
Q 2525 409 2770 889 
Q 3016 1369 3016 2328 
Q 3016 3291 2770 3770 
Q 2525 4250 2034 4250 
z
M 2034 4750 
Q 2819 4750 3233 4129 
Q 3647 3509 3647 2328 
Q 3647 1150 3233 529 
Q 2819 -91 2034 -91 
Q 1250 -91 836 529 
Q 422 1150 422 2328 
Q 422 3509 836 4129 
Q 1250 4750 2034 4750 
z
" transform="scale(0.015625)"/>
       </defs>
       <use xlink:href="#DejaVuSans-30"/>
      </g>
     </g>
    </g>
    <g id="xtick_2">
     <g id="line2d_2">
      <path d="M 714.863394 1845.504 
L 714.863394 248.832 
" clip-path="url(#p43b94d9280)" style="fill: none; stroke: #cccccc; stroke-linecap: round"/>
     </g>
     <g id="text_2">
      <!-- 200 -->
      <g style="fill: #262626" transform="translate(704.365269 1863.362281)scale(0.11 -0.11)">
       <defs>
        <path id="DejaVuSans-32" d="M 1228 531 
L 3431 531 
L 3431 0 
L 469 0 
L 469 531 
Q 828 903 1448 1529 
Q 2069 2156 2228 2338 
Q 2531 2678 2651 2914 
Q 2772 3150 2772 3378 
Q 2772 3750 2511 3984 
Q 2250 4219 1831 4219 
Q 1534 4219 1204 4116 
Q 875 4013 500 3803 
L 500 4441 
Q 881 4594 1212 4672 
Q 1544 4750 1819 4750 
Q 2544 4750 2975 4387 
Q 3406 4025 3406 3419 
Q 3406 3131 3298 2873 
Q 3191 2616 2906 2266 
Q 2828 2175 2409 1742 
Q 1991 1309 1228 531 
z
" transform="scale(0.015625)"/>
       </defs>
       <use xlink:href="#DejaVuSans-32"/>
       <use xlink:href="#DejaVuSans-30" x="63.623047"/>
       <use xlink:href="#DejaVuSans-30" x="127.246094"/>
      </g>
     </g>
    </g>
    <g id="xtick_3">
     <g id="line2d_3">
      <path d="M 986.730424 1845.504 
L 986.730424 248.832 
" clip-path="url(#p43b94d9280)" style="fill: none; stroke: #cccccc; stroke-linecap: round"/>
     </g>
     <g id="text_3">
      <!-- 400 -->
      <g style="fill: #262626" transform="translate(976.232299 1863.362281)scale(0.11 -0.11)">
       <defs>
        <path id="DejaVuSans-34" d="M 2419 4116 
L 825 1625 
L 2419 1625 
L 2419 4116 
z
M 2253 4666 
L 3047 4666 
L 3047 1625 
L 3713 1625 
L 3713 1100 
L 3047 1100 
L 3047 0 
L 2419 0 
L 2419 1100 
L 313 1100 
L 313 1709 
L 2253 4666 
z
" transform="scale(0.015625)"/>
       </defs>
       <use xlink:href="#DejaVuSans-34"/>
       <use xlink:href="#DejaVuSans-30" x="63.623047"/>
       <use xlink:href="#DejaVuSans-30" x="127.246094"/>
      </g>
     </g>
    </g>
    <g id="xtick_4">
     <g id="line2d_4">
      <path d="M 1258.597455 1845.504 
L 1258.597455 248.832 
" clip-path="url(#p43b94d9280)" style="fill: none; stroke: #cccccc; stroke-linecap: round"/>
     </g>
     <g id="text_4">
      <!-- 600 -->
      <g style="fill: #262626" transform="translate(1248.09933 1863.362281)scale(0.11 -0.11)">
       <defs>
        <path id="DejaVuSans-36" d="M 2113 2584 
Q 1688 2584 1439 2293 
Q 1191 2003 1191 1497 
Q 1191 994 1439 701 
Q 1688 409 2113 409 
Q 2538 409 2786 701 
Q 3034 994 3034 1497 
Q 3034 2003 2786 2293 
Q 2538 2584 2113 2584 
z
M 3366 4563 
L 3366 3988 
Q 3128 4100 2886 4159 
Q 2644 4219 2406 4219 
Q 1781 4219 1451 3797 
Q 1122 3375 1075 2522 
Q 1259 2794 1537 2939 
Q 1816 3084 2150 3084 
Q 2853 3084 3261 2657 
Q 3669 2231 3669 1497 
Q 3669 778 3244 343 
Q 2819 -91 2113 -91 
Q 1303 -91 875 529 
Q 447 1150 447 2328 
Q 447 3434 972 4092 
Q 1497 4750 2381 4750 
Q 2619 4750 2861 4703 
Q 3103 4656 3366 4563 
z
" transform="scale(0.015625)"/>
       </defs>
       <use xlink:href="#DejaVuSans-36"/>
       <use xlink:href="#DejaVuSans-30" x="63.623047"/>
       <use xlink:href="#DejaVuSans-30" x="127.246094"/>
      </g>
     </g>
    </g>
    <g id="xtick_5">
     <g id="line2d_5">
      <path d="M 1530.464485 1845.504 
L 1530.464485 248.832 
" clip-path="url(#p43b94d9280)" style="fill: none; stroke: #cccccc; stroke-linecap: round"/>
     </g>
     <g id="text_5">
      <!-- 800 -->
      <g style="fill: #262626" transform="translate(1519.96636 1863.362281)scale(0.11 -0.11)">
       <defs>
        <path id="DejaVuSans-38" d="M 2034 2216 
Q 1584 2216 1326 1975 
Q 1069 1734 1069 1313 
Q 1069 891 1326 650 
Q 1584 409 2034 409 
Q 2484 409 2743 651 
Q 3003 894 3003 1313 
Q 3003 1734 2745 1975 
Q 2488 2216 2034 2216 
z
M 1403 2484 
Q 997 2584 770 2862 
Q 544 3141 544 3541 
Q 544 4100 942 4425 
Q 1341 4750 2034 4750 
Q 2731 4750 3128 4425 
Q 3525 4100 3525 3541 
Q 3525 3141 3298 2862 
Q 3072 2584 2669 2484 
Q 3125 2378 3379 2068 
Q 3634 1759 3634 1313 
Q 3634 634 3220 271 
Q 2806 -91 2034 -91 
Q 1263 -91 848 271 
Q 434 634 434 1313 
Q 434 1759 690 2068 
Q 947 2378 1403 2484 
z
M 1172 3481 
Q 1172 3119 1398 2916 
Q 1625 2713 2034 2713 
Q 2441 2713 2670 2916 
Q 2900 3119 2900 3481 
Q 2900 3844 2670 4047 
Q 2441 4250 2034 4250 
Q 1625 4250 1398 4047 
Q 1172 3844 1172 3481 
z
" transform="scale(0.015625)"/>
       </defs>
       <use xlink:href="#DejaVuSans-38"/>
       <use xlink:href="#DejaVuSans-30" x="63.623047"/>
       <use xlink:href="#DejaVuSans-30" x="127.246094"/>
      </g>
     </g>
    </g>
    <g id="xtick_6">
     <g id="line2d_6">
      <path d="M 1802.331516 1845.504 
L 1802.331516 248.832 
" clip-path="url(#p43b94d9280)" style="fill: none; stroke: #cccccc; stroke-linecap: round"/>
     </g>
     <g id="text_6">
      <!-- 1000 -->
      <g style="fill: #262626" transform="translate(1788.334016 1863.362281)scale(0.11 -0.11)">
       <defs>
        <path id="DejaVuSans-31" d="M 794 531 
L 1825 531 
L 1825 4091 
L 703 3866 
L 703 4441 
L 1819 4666 
L 2450 4666 
L 2450 531 
L 3481 531 
L 3481 0 
L 794 0 
L 794 531 
z
" transform="scale(0.015625)"/>
       </defs>
       <use xlink:href="#DejaVuSans-31"/>
       <use xlink:href="#DejaVuSans-30" x="63.623047"/>
       <use xlink:href="#DejaVuSans-30" x="127.246094"/>
       <use xlink:href="#DejaVuSans-30" x="190.869141"/>
      </g>
     </g>
    </g>
    <g id="xtick_7">
     <g id="line2d_7">
      <path d="M 2074.198546 1845.504 
L 2074.198546 248.832 
" clip-path="url(#p43b94d9280)" style="fill: none; stroke: #cccccc; stroke-linecap: round"/>
     </g>
     <g id="text_7">
      <!-- 1200 -->
      <g style="fill: #262626" transform="translate(2060.201046 1863.362281)scale(0.11 -0.11)">
       <use xlink:href="#DejaVuSans-31"/>
       <use xlink:href="#DejaVuSans-32" x="63.623047"/>
       <use xlink:href="#DejaVuSans-30" x="127.246094"/>
       <use xlink:href="#DejaVuSans-30" x="190.869141"/>
      </g>
     </g>
    </g>
    <g id="xtick_8">
     <g id="line2d_8">
      <path d="M 2346.065576 1845.504 
L 2346.065576 248.832 
" clip-path="url(#p43b94d9280)" style="fill: none; stroke: #cccccc; stroke-linecap: round"/>
     </g>
     <g id="text_8">
      <!-- 1400 -->
      <g style="fill: #262626" transform="translate(2332.068076 1863.362281)scale(0.11 -0.11)">
       <use xlink:href="#DejaVuSans-31"/>
       <use xlink:href="#DejaVuSans-34" x="63.623047"/>
       <use xlink:href="#DejaVuSans-30" x="127.246094"/>
       <use xlink:href="#DejaVuSans-30" x="190.869141"/>
      </g>
     </g>
    </g>
    <g id="text_9">
     <!-- Discovery Time (Minutes) -->
     <g style="fill: #262626" transform="translate(1340.521875 1878.768062)scale(0.12 -0.12)">
      <defs>
       <path id="DejaVuSans-44" d="M 1259 4147 
L 1259 519 
L 2022 519 
Q 2988 519 3436 956 
Q 3884 1394 3884 2338 
Q 3884 3275 3436 3711 
Q 2988 4147 2022 4147 
L 1259 4147 
z
M 628 4666 
L 1925 4666 
Q 3281 4666 3915 4102 
Q 4550 3538 4550 2338 
Q 4550 1131 3912 565 
Q 3275 0 1925 0 
L 628 0 
L 628 4666 
z
" transform="scale(0.015625)"/>
       <path id="DejaVuSans-69" d="M 603 3500 
L 1178 3500 
L 1178 0 
L 603 0 
L 603 3500 
z
M 603 4863 
L 1178 4863 
L 1178 4134 
L 603 4134 
L 603 4863 
z
" transform="scale(0.015625)"/>
       <path id="DejaVuSans-73" d="M 2834 3397 
L 2834 2853 
Q 2591 2978 2328 3040 
Q 2066 3103 1784 3103 
Q 1356 3103 1142 2972 
Q 928 2841 928 2578 
Q 928 2378 1081 2264 
Q 1234 2150 1697 2047 
L 1894 2003 
Q 2506 1872 2764 1633 
Q 3022 1394 3022 966 
Q 3022 478 2636 193 
Q 2250 -91 1575 -91 
Q 1294 -91 989 -36 
Q 684 19 347 128 
L 347 722 
Q 666 556 975 473 
Q 1284 391 1588 391 
Q 1994 391 2212 530 
Q 2431 669 2431 922 
Q 2431 1156 2273 1281 
Q 2116 1406 1581 1522 
L 1381 1569 
Q 847 1681 609 1914 
Q 372 2147 372 2553 
Q 372 3047 722 3315 
Q 1072 3584 1716 3584 
Q 2034 3584 2315 3537 
Q 2597 3491 2834 3397 
z
" transform="scale(0.015625)"/>
       <path id="DejaVuSans-63" d="M 3122 3366 
L 3122 2828 
Q 2878 2963 2633 3030 
Q 2388 3097 2138 3097 
Q 1578 3097 1268 2742 
Q 959 2388 959 1747 
Q 959 1106 1268 751 
Q 1578 397 2138 397 
Q 2388 397 2633 464 
Q 2878 531 3122 666 
L 3122 134 
Q 2881 22 2623 -34 
Q 2366 -91 2075 -91 
Q 1284 -91 818 406 
Q 353 903 353 1747 
Q 353 2603 823 3093 
Q 1294 3584 2113 3584 
Q 2378 3584 2631 3529 
Q 2884 3475 3122 3366 
z
" transform="scale(0.015625)"/>
       <path id="DejaVuSans-6f" d="M 1959 3097 
Q 1497 3097 1228 2736 
Q 959 2375 959 1747 
Q 959 1119 1226 758 
Q 1494 397 1959 397 
Q 2419 397 2687 759 
Q 2956 1122 2956 1747 
Q 2956 2369 2687 2733 
Q 2419 3097 1959 3097 
z
M 1959 3584 
Q 2709 3584 3137 3096 
Q 3566 2609 3566 1747 
Q 3566 888 3137 398 
Q 2709 -91 1959 -91 
Q 1206 -91 779 398 
Q 353 888 353 1747 
Q 353 2609 779 3096 
Q 1206 3584 1959 3584 
z
" transform="scale(0.015625)"/>
       <path id="DejaVuSans-76" d="M 191 3500 
L 800 3500 
L 1894 563 
L 2988 3500 
L 3597 3500 
L 2284 0 
L 1503 0 
L 191 3500 
z
" transform="scale(0.015625)"/>
       <path id="DejaVuSans-65" d="M 3597 1894 
L 3597 1613 
L 953 1613 
Q 991 1019 1311 708 
Q 1631 397 2203 397 
Q 2534 397 2845 478 
Q 3156 559 3463 722 
L 3463 178 
Q 3153 47 2828 -22 
Q 2503 -91 2169 -91 
Q 1331 -91 842 396 
Q 353 884 353 1716 
Q 353 2575 817 3079 
Q 1281 3584 2069 3584 
Q 2775 3584 3186 3129 
Q 3597 2675 3597 1894 
z
M 3022 2063 
Q 3016 2534 2758 2815 
Q 2500 3097 2075 3097 
Q 1594 3097 1305 2825 
Q 1016 2553 972 2059 
L 3022 2063 
z
" transform="scale(0.015625)"/>
       <path id="DejaVuSans-72" d="M 2631 2963 
Q 2534 3019 2420 3045 
Q 2306 3072 2169 3072 
Q 1681 3072 1420 2755 
Q 1159 2438 1159 1844 
L 1159 0 
L 581 0 
L 581 3500 
L 1159 3500 
L 1159 2956 
Q 1341 3275 1631 3429 
Q 1922 3584 2338 3584 
Q 2397 3584 2469 3576 
Q 2541 3569 2628 3553 
L 2631 2963 
z
" transform="scale(0.015625)"/>
       <path id="DejaVuSans-79" d="M 2059 -325 
Q 1816 -950 1584 -1140 
Q 1353 -1331 966 -1331 
L 506 -1331 
L 506 -850 
L 844 -850 
Q 1081 -850 1212 -737 
Q 1344 -625 1503 -206 
L 1606 56 
L 191 3500 
L 800 3500 
L 1894 763 
L 2988 3500 
L 3597 3500 
L 2059 -325 
z
" transform="scale(0.015625)"/>
       <path id="DejaVuSans-20" transform="scale(0.015625)"/>
       <path id="DejaVuSans-54" d="M -19 4666 
L 3928 4666 
L 3928 4134 
L 2272 4134 
L 2272 0 
L 1638 0 
L 1638 4134 
L -19 4134 
L -19 4666 
z
" transform="scale(0.015625)"/>
       <path id="DejaVuSans-6d" d="M 3328 2828 
Q 3544 3216 3844 3400 
Q 4144 3584 4550 3584 
Q 5097 3584 5394 3201 
Q 5691 2819 5691 2113 
L 5691 0 
L 5113 0 
L 5113 2094 
Q 5113 2597 4934 2840 
Q 4756 3084 4391 3084 
Q 3944 3084 3684 2787 
Q 3425 2491 3425 1978 
L 3425 0 
L 2847 0 
L 2847 2094 
Q 2847 2600 2669 2842 
Q 2491 3084 2119 3084 
Q 1678 3084 1418 2786 
Q 1159 2488 1159 1978 
L 1159 0 
L 581 0 
L 581 3500 
L 1159 3500 
L 1159 2956 
Q 1356 3278 1631 3431 
Q 1906 3584 2284 3584 
Q 2666 3584 2933 3390 
Q 3200 3197 3328 2828 
z
" transform="scale(0.015625)"/>
       <path id="DejaVuSans-28" d="M 1984 4856 
Q 1566 4138 1362 3434 
Q 1159 2731 1159 2009 
Q 1159 1288 1364 580 
Q 1569 -128 1984 -844 
L 1484 -844 
Q 1016 -109 783 600 
Q 550 1309 550 2009 
Q 550 2706 781 3412 
Q 1013 4119 1484 4856 
L 1984 4856 
z
" transform="scale(0.015625)"/>
       <path id="DejaVuSans-4d" d="M 628 4666 
L 1569 4666 
L 2759 1491 
L 3956 4666 
L 4897 4666 
L 4897 0 
L 4281 0 
L 4281 4097 
L 3078 897 
L 2444 897 
L 1241 4097 
L 1241 0 
L 628 0 
L 628 4666 
z
" transform="scale(0.015625)"/>
       <path id="DejaVuSans-6e" d="M 3513 2113 
L 3513 0 
L 2938 0 
L 2938 2094 
Q 2938 2591 2744 2837 
Q 2550 3084 2163 3084 
Q 1697 3084 1428 2787 
Q 1159 2491 1159 1978 
L 1159 0 
L 581 0 
L 581 3500 
L 1159 3500 
L 1159 2956 
Q 1366 3272 1645 3428 
Q 1925 3584 2291 3584 
Q 2894 3584 3203 3211 
Q 3513 2838 3513 2113 
z
" transform="scale(0.015625)"/>
       <path id="DejaVuSans-75" d="M 544 1381 
L 544 3500 
L 1119 3500 
L 1119 1403 
Q 1119 906 1312 657 
Q 1506 409 1894 409 
Q 2359 409 2629 706 
Q 2900 1003 2900 1516 
L 2900 3500 
L 3475 3500 
L 3475 0 
L 2900 0 
L 2900 538 
Q 2691 219 2414 64 
Q 2138 -91 1772 -91 
Q 1169 -91 856 284 
Q 544 659 544 1381 
z
M 1991 3584 
L 1991 3584 
z
" transform="scale(0.015625)"/>
       <path id="DejaVuSans-74" d="M 1172 4494 
L 1172 3500 
L 2356 3500 
L 2356 3053 
L 1172 3053 
L 1172 1153 
Q 1172 725 1289 603 
Q 1406 481 1766 481 
L 2356 481 
L 2356 0 
L 1766 0 
Q 1100 0 847 248 
Q 594 497 594 1153 
L 594 3053 
L 172 3053 
L 172 3500 
L 594 3500 
L 594 4494 
L 1172 4494 
z
" transform="scale(0.015625)"/>
       <path id="DejaVuSans-29" d="M 513 4856 
L 1013 4856 
Q 1481 4119 1714 3412 
Q 1947 2706 1947 2009 
Q 1947 1309 1714 600 
Q 1481 -109 1013 -844 
L 513 -844 
Q 928 -128 1133 580 
Q 1338 1288 1338 2009 
Q 1338 2731 1133 3434 
Q 928 4138 513 4856 
z
" transform="scale(0.015625)"/>
      </defs>
      <use xlink:href="#DejaVuSans-44"/>
      <use xlink:href="#DejaVuSans-69" x="77.001953"/>
      <use xlink:href="#DejaVuSans-73" x="104.785156"/>
      <use xlink:href="#DejaVuSans-63" x="156.884766"/>
      <use xlink:href="#DejaVuSans-6f" x="211.865234"/>
      <use xlink:href="#DejaVuSans-76" x="273.046875"/>
      <use xlink:href="#DejaVuSans-65" x="332.226562"/>
      <use xlink:href="#DejaVuSans-72" x="393.75"/>
      <use xlink:href="#DejaVuSans-79" x="434.863281"/>
      <use xlink:href="#DejaVuSans-20" x="494.042969"/>
      <use xlink:href="#DejaVuSans-54" x="525.830078"/>
      <use xlink:href="#DejaVuSans-69" x="583.789062"/>
      <use xlink:href="#DejaVuSans-6d" x="611.572266"/>
      <use xlink:href="#DejaVuSans-65" x="708.984375"/>
      <use xlink:href="#DejaVuSans-20" x="770.507812"/>
      <use xlink:href="#DejaVuSans-28" x="802.294922"/>
      <use xlink:href="#DejaVuSans-4d" x="841.308594"/>
      <use xlink:href="#DejaVuSans-69" x="927.587891"/>
      <use xlink:href="#DejaVuSans-6e" x="955.371094"/>
      <use xlink:href="#DejaVuSans-75" x="1018.75"/>
      <use xlink:href="#DejaVuSans-74" x="1082.128906"/>
      <use xlink:href="#DejaVuSans-65" x="1121.337891"/>
      <use xlink:href="#DejaVuSans-73" x="1182.861328"/>
      <use xlink:href="#DejaVuSans-29" x="1234.960938"/>
     </g>
    </g>
   </g>
   <g id="matplotlib.axis_2">
    <g id="ytick_1">
     <g id="line2d_9">
      <path d="M 345.6 1772.928 
L 2488.32 1772.928 
" clip-path="url(#p43b94d9280)" style="fill: none; stroke: #cccccc; stroke-linecap: round"/>
     </g>
     <g id="text_10">
      <!-- 0 -->
      <g style="fill: #262626" transform="translate(329.10125 1777.107141)scale(0.11 -0.11)">
       <use xlink:href="#DejaVuSans-30"/>
      </g>
     </g>
    </g>
    <g id="ytick_2">
     <g id="line2d_10">
      <path d="M 345.6 1542.893135 
L 2488.32 1542.893135 
" clip-path="url(#p43b94d9280)" style="fill: none; stroke: #cccccc; stroke-linecap: round"/>
     </g>
     <g id="text_11">
      <!-- 200 -->
      <g style="fill: #262626" transform="translate(315.10375 1547.072275)scale(0.11 -0.11)">
       <use xlink:href="#DejaVuSans-32"/>
       <use xlink:href="#DejaVuSans-30" x="63.623047"/>
       <use xlink:href="#DejaVuSans-30" x="127.246094"/>
      </g>
     </g>
    </g>
    <g id="ytick_3">
     <g id="line2d_11">
      <path d="M 345.6 1312.858269 
L 2488.32 1312.858269 
" clip-path="url(#p43b94d9280)" style="fill: none; stroke: #cccccc; stroke-linecap: round"/>
     </g>
     <g id="text_12">
      <!-- 400 -->
      <g style="fill: #262626" transform="translate(315.10375 1317.03741)scale(0.11 -0.11)">
       <use xlink:href="#DejaVuSans-34"/>
       <use xlink:href="#DejaVuSans-30" x="63.623047"/>
       <use xlink:href="#DejaVuSans-30" x="127.246094"/>
      </g>
     </g>
    </g>
    <g id="ytick_4">
     <g id="line2d_12">
      <path d="M 345.6 1082.823404 
L 2488.32 1082.823404 
" clip-path="url(#p43b94d9280)" style="fill: none; stroke: #cccccc; stroke-linecap: round"/>
     </g>
     <g id="text_13">
      <!-- 600 -->
      <g style="fill: #262626" transform="translate(315.10375 1087.002545)scale(0.11 -0.11)">
       <use xlink:href="#DejaVuSans-36"/>
       <use xlink:href="#DejaVuSans-30" x="63.623047"/>
       <use xlink:href="#DejaVuSans-30" x="127.246094"/>
      </g>
     </g>
    </g>
    <g id="ytick_5">
     <g id="line2d_13">
      <path d="M 345.6 852.788539 
L 2488.32 852.788539 
" clip-path="url(#p43b94d9280)" style="fill: none; stroke: #cccccc; stroke-linecap: round"/>
     </g>
     <g id="text_14">
      <!-- 800 -->
      <g style="fill: #262626" transform="translate(315.10375 856.967679)scale(0.11 -0.11)">
       <use xlink:href="#DejaVuSans-38"/>
       <use xlink:href="#DejaVuSans-30" x="63.623047"/>
       <use xlink:href="#DejaVuSans-30" x="127.246094"/>
      </g>
     </g>
    </g>
    <g id="ytick_6">
     <g id="line2d_14">
      <path d="M 345.6 622.753674 
L 2488.32 622.753674 
" clip-path="url(#p43b94d9280)" style="fill: none; stroke: #cccccc; stroke-linecap: round"/>
     </g>
     <g id="text_15">
      <!-- 1000 -->
      <g style="fill: #262626" transform="translate(308.105 626.932814)scale(0.11 -0.11)">
       <use xlink:href="#DejaVuSans-31"/>
       <use xlink:href="#DejaVuSans-30" x="63.623047"/>
       <use xlink:href="#DejaVuSans-30" x="127.246094"/>
       <use xlink:href="#DejaVuSans-30" x="190.869141"/>
      </g>
     </g>
    </g>
    <g id="ytick_7">
     <g id="line2d_15">
      <path d="M 345.6 392.718808 
L 2488.32 392.718808 
" clip-path="url(#p43b94d9280)" style="fill: none; stroke: #cccccc; stroke-linecap: round"/>
     </g>
     <g id="text_16">
      <!-- 1200 -->
      <g style="fill: #262626" transform="translate(308.105 396.897949)scale(0.11 -0.11)">
       <use xlink:href="#DejaVuSans-31"/>
       <use xlink:href="#DejaVuSans-32" x="63.623047"/>
       <use xlink:href="#DejaVuSans-30" x="127.246094"/>
       <use xlink:href="#DejaVuSans-30" x="190.869141"/>
      </g>
     </g>
    </g>
    <g id="text_17">
     <!-- Bug Count -->
     <g style="fill: #262626" transform="translate(301.609375 1078.621125)rotate(-90)scale(0.12 -0.12)">
      <defs>
       <path id="DejaVuSans-42" d="M 1259 2228 
L 1259 519 
L 2272 519 
Q 2781 519 3026 730 
Q 3272 941 3272 1375 
Q 3272 1813 3026 2020 
Q 2781 2228 2272 2228 
L 1259 2228 
z
M 1259 4147 
L 1259 2741 
L 2194 2741 
Q 2656 2741 2882 2914 
Q 3109 3088 3109 3444 
Q 3109 3797 2882 3972 
Q 2656 4147 2194 4147 
L 1259 4147 
z
M 628 4666 
L 2241 4666 
Q 2963 4666 3353 4366 
Q 3744 4066 3744 3513 
Q 3744 3084 3544 2831 
Q 3344 2578 2956 2516 
Q 3422 2416 3680 2098 
Q 3938 1781 3938 1306 
Q 3938 681 3513 340 
Q 3088 0 2303 0 
L 628 0 
L 628 4666 
z
" transform="scale(0.015625)"/>
       <path id="DejaVuSans-67" d="M 2906 1791 
Q 2906 2416 2648 2759 
Q 2391 3103 1925 3103 
Q 1463 3103 1205 2759 
Q 947 2416 947 1791 
Q 947 1169 1205 825 
Q 1463 481 1925 481 
Q 2391 481 2648 825 
Q 2906 1169 2906 1791 
z
M 3481 434 
Q 3481 -459 3084 -895 
Q 2688 -1331 1869 -1331 
Q 1566 -1331 1297 -1286 
Q 1028 -1241 775 -1147 
L 775 -588 
Q 1028 -725 1275 -790 
Q 1522 -856 1778 -856 
Q 2344 -856 2625 -561 
Q 2906 -266 2906 331 
L 2906 616 
Q 2728 306 2450 153 
Q 2172 0 1784 0 
Q 1141 0 747 490 
Q 353 981 353 1791 
Q 353 2603 747 3093 
Q 1141 3584 1784 3584 
Q 2172 3584 2450 3431 
Q 2728 3278 2906 2969 
L 2906 3500 
L 3481 3500 
L 3481 434 
z
" transform="scale(0.015625)"/>
       <path id="DejaVuSans-43" d="M 4122 4306 
L 4122 3641 
Q 3803 3938 3442 4084 
Q 3081 4231 2675 4231 
Q 1875 4231 1450 3742 
Q 1025 3253 1025 2328 
Q 1025 1406 1450 917 
Q 1875 428 2675 428 
Q 3081 428 3442 575 
Q 3803 722 4122 1019 
L 4122 359 
Q 3791 134 3420 21 
Q 3050 -91 2638 -91 
Q 1578 -91 968 557 
Q 359 1206 359 2328 
Q 359 3453 968 4101 
Q 1578 4750 2638 4750 
Q 3056 4750 3426 4639 
Q 3797 4528 4122 4306 
z
" transform="scale(0.015625)"/>
      </defs>
      <use xlink:href="#DejaVuSans-42"/>
      <use xlink:href="#DejaVuSans-75" x="68.603516"/>
      <use xlink:href="#DejaVuSans-67" x="131.982422"/>
      <use xlink:href="#DejaVuSans-20" x="195.458984"/>
      <use xlink:href="#DejaVuSans-43" x="227.246094"/>
      <use xlink:href="#DejaVuSans-6f" x="297.070312"/>
      <use xlink:href="#DejaVuSans-75" x="358.251953"/>
      <use xlink:href="#DejaVuSans-6e" x="421.630859"/>
      <use xlink:href="#DejaVuSans-74" x="485.009766"/>
     </g>
    </g>
   </g>
   <g id="PolyCollection_1">
    <path d="M 456.589715 1770.627651 
L 456.589715 1770.627651 
L 462.027056 1768.327303 
L 468.823732 1764.87678 
L 472.901737 1760.85117 
L 475.620407 1753.950124 
L 482.417083 1744.173642 
L 496.010435 1703.97368 
L 500.08844 1668.262136 
L 506.885116 1664.811613 
L 512.322456 1661.36109 
L 513.681792 1657.910567 
L 515.041127 1653.884957 
L 516.400462 1647.558998 
L 521.837802 1618.676843 
L 523.197138 1580.465496 
L 527.275143 1570.113927 
L 528.634478 1554.394878 
L 529.993813 1545.193483 
L 531.353149 1529.091043 
L 532.712484 1519.889648 
L 536.790489 1515.864038 
L 538.149824 1509.538079 
L 542.22783 1506.547626 
L 543.587165 1497.461249 
L 546.305835 1461.433729 
L 547.66517 1427.875702 
L 549.024505 1424.425179 
L 553.102511 1420.974656 
L 554.461846 1417.524133 
L 558.539852 1411.198174 
L 559.899187 1400.271518 
L 562.617857 1396.245908 
L 568.055198 1380.335163 
L 569.414533 1369.216811 
L 569.414533 1369.216811 
L 569.414533 1369.216811 
L 568.055198 1374.2009 
L 562.617857 1393.945559 
L 559.899187 1400.271518 
L 558.539852 1406.885021 
L 554.461846 1417.524133 
L 553.102511 1420.974656 
L 549.024505 1424.425179 
L 547.66517 1427.875702 
L 546.305835 1451.758734 
L 543.587165 1492.860552 
L 542.22783 1503.787208 
L 538.149824 1509.538079 
L 536.790489 1513.563689 
L 532.712484 1519.889648 
L 531.353149 1526.208418 
L 529.993813 1539.212577 
L 528.634478 1554.394878 
L 527.275143 1566.280013 
L 523.197138 1576.631582 
L 521.837802 1609.155956 
L 516.400462 1647.558998 
L 515.041127 1651.584609 
L 513.681792 1657.910567 
L 512.322456 1661.36109 
L 506.885116 1664.811613 
L 500.08844 1668.262136 
L 496.010435 1695.043398 
L 482.417083 1744.173642 
L 475.620407 1751.649775 
L 472.901737 1758.550821 
L 468.823732 1764.87678 
L 462.027056 1768.327303 
L 456.589715 1770.627651 
z
" clip-path="url(#p43b94d9280)" style="fill: #4c72b0; fill-opacity: 0.2; stroke: #4c72b0; stroke-opacity: 0.2"/>
    <path d="M 581.648549 1364.616114 
L 581.648549 1364.616114 
L 585.726555 1360.590504 
L 588.445225 1345.350694 
L 589.80456 1326.085274 
L 591.163895 1319.759315 
L 593.882566 1315.158618 
L 597.960571 1310.174529 
L 597.960571 1306.340615 
L 597.960571 1306.340615 
L 593.882566 1315.158618 
L 591.163895 1319.759315 
L 589.80456 1323.784926 
L 588.445225 1339.164913 
L 585.726555 1358.290155 
L 581.648549 1364.616114 
z
" clip-path="url(#p43b94d9280)" style="fill: #4c72b0; fill-opacity: 0.2; stroke: #4c72b0; stroke-opacity: 0.2"/>
    <path d="M 600.679241 1300.206352 
L 600.679241 1300.206352 
L 602.038576 1296.755829 
L 606.116582 1293.305306 
L 610.194587 1289.279696 
L 612.913258 1282.953737 
L 616.991263 1277.969648 
L 619.709933 1268.576558 
L 621.069269 1261.675512 
L 625.147274 1255.349553 
L 626.506609 1253.049204 
L 627.865944 1249.598681 
L 629.225279 1246.148158 
L 636.021955 1242.697635 
L 645.537301 1239.247113 
L 648.255972 1235.79659 
L 652.333977 1232.346067 
L 655.052647 1228.895544 
L 657.771318 1224.869933 
L 659.130653 1218.543975 
L 661.849323 1215.093452 
L 664.567993 1208.192406 
L 667.286664 1202.83451 
L 670.005334 1194.390314 
L 674.083339 1190.939791 
L 674.083339 1190.939791 
L 674.083339 1190.939791 
L 670.005334 1194.390314 
L 667.286664 1199.374403 
L 664.567993 1208.192406 
L 661.849323 1215.093452 
L 659.130653 1218.543975 
L 657.771318 1222.569585 
L 655.052647 1228.895544 
L 652.333977 1232.346067 
L 648.255972 1235.79659 
L 645.537301 1239.247113 
L 636.021955 1242.697635 
L 629.225279 1246.148158 
L 627.865944 1249.598681 
L 626.506609 1253.049204 
L 625.147274 1255.349553 
L 621.069269 1259.375163 
L 619.709933 1266.276209 
L 616.991263 1274.135734 
L 612.913258 1282.953737 
L 610.194587 1286.979347 
L 606.116582 1293.305306 
L 602.038576 1296.755829 
L 600.679241 1300.206352 
z
" clip-path="url(#p43b94d9280)" style="fill: #4c72b0; fill-opacity: 0.2; stroke: #4c72b0; stroke-opacity: 0.2"/>
    <path d="M 693.114032 1186.339094 
L 693.114032 1186.339094 
L 694.473367 1182.888571 
L 698.551372 1179.438048 
L 699.910707 1175.987525 
L 701.270043 1172.537002 
L 708.066718 1167.936304 
L 713.504059 1165.635956 
L 720.300735 1158.351518 
L 725.738075 1151.833864 
L 727.09741 1146.466384 
L 728.456746 1139.181946 
L 735.253421 1134.197857 
L 748.846773 1125.379854 
L 752.924778 1121.929331 
L 762.440124 1118.478808 
L 762.440124 1118.478808 
L 762.440124 1118.478808 
L 752.924778 1121.929331 
L 748.846773 1125.379854 
L 735.253421 1130.363943 
L 728.456746 1139.181946 
L 727.09741 1143.015861 
L 725.738075 1151.833864 
L 720.300735 1156.434561 
L 713.504059 1165.635956 
L 708.066718 1167.936304 
L 701.270043 1172.537002 
L 699.910707 1175.987525 
L 698.551372 1179.438048 
L 694.473367 1182.888571 
L 693.114032 1186.339094 
z
" clip-path="url(#p43b94d9280)" style="fill: #4c72b0; fill-opacity: 0.2; stroke: #4c72b0; stroke-opacity: 0.2"/>
    <path d="M 765.158795 1113.878111 
L 765.158795 1113.878111 
L 769.2368 1111.577762 
L 774.674141 1105.826891 
L 780.111481 1101.801281 
L 792.345498 1096.625496 
L 795.064168 1092.599886 
L 796.423503 1086.273927 
L 804.579514 1082.823404 
L 807.298184 1079.372881 
L 812.735525 1075.922358 
L 819.532201 1072.471835 
L 848.078239 1069.021312 
L 860.312255 1065.570789 
L 865.749596 1062.120266 
L 879.342947 1059.819918 
L 882.061618 1056.369395 
L 884.780288 1052.918872 
L 887.498958 1049.468349 
L 888.858293 1046.017826 
L 899.732975 1042.567303 
L 905.170315 1032.67772 
L 906.52965 1021.864165 
L 920.123002 1018.873712 
L 922.841672 1012.66277 
L 924.201007 1009.212247 
L 932.357018 1005.761724 
L 933.716353 1001.736114 
L 935.075689 994.835068 
L 936.435024 988.509109 
L 940.513029 985.058586 
L 944.591035 981.608063 
L 945.95037 979.307715 
L 948.66904 975.857192 
L 958.184386 972.406669 
L 962.262392 967.31304 
L 966.340397 959.754751 
L 971.777738 954.00388 
L 984.011754 950.553357 
L 992.167765 947.102834 
L 994.886435 944.802485 
L 996.24577 939.818396 
L 1008.479787 931.000393 
L 1008.479787 931.000393 
L 1008.479787 931.000393 
L 996.24577 935.984482 
L 994.886435 944.802485 
L 992.167765 947.102834 
L 984.011754 950.553357 
L 971.777738 954.00388 
L 966.340397 958.221185 
L 962.262392 965.341312 
L 958.184386 972.406669 
L 948.66904 975.857192 
L 945.95037 979.307715 
L 944.591035 981.608063 
L 940.513029 985.058586 
L 936.435024 988.509109 
L 935.075689 992.534719 
L 933.716353 999.435765 
L 932.357018 1005.761724 
L 924.201007 1009.212247 
L 922.841672 1012.66277 
L 920.123002 1016.113293 
L 906.52965 1021.864165 
L 905.170315 1028.763294 
L 899.732975 1042.567303 
L 888.858293 1046.017826 
L 887.498958 1049.468349 
L 884.780288 1052.918872 
L 882.061618 1056.369395 
L 879.342947 1059.819918 
L 865.749596 1062.120266 
L 860.312255 1065.570789 
L 848.078239 1069.021312 
L 819.532201 1072.471835 
L 812.735525 1075.922358 
L 807.298184 1079.372881 
L 804.579514 1082.823404 
L 796.423503 1086.273927 
L 795.064168 1090.299537 
L 792.345498 1096.625496 
L 780.111481 1099.500932 
L 774.674141 1105.826891 
L 769.2368 1109.277414 
L 765.158795 1113.878111 
z
" clip-path="url(#p43b94d9280)" style="fill: #4c72b0; fill-opacity: 0.2; stroke: #4c72b0; stroke-opacity: 0.2"/>
    <path d="M 1015.276463 926.399696 
L 1015.276463 926.399696 
L 1041.10383 919.49865 
L 1042.463166 916.048127 
L 1043.822501 912.597604 
L 1054.697182 909.147081 
L 1058.775187 905.696558 
L 1061.493858 902.246035 
L 1064.212528 899.255582 
L 1072.368539 894.194815 
L 1073.727874 891.894466 
L 1095.477237 888.443943 
L 1095.477237 888.443943 
L 1095.477237 888.443943 
L 1073.727874 891.894466 
L 1072.368539 894.194815 
L 1064.212528 896.495163 
L 1061.493858 902.246035 
L 1058.775187 905.696558 
L 1054.697182 909.147081 
L 1043.822501 912.597604 
L 1042.463166 916.048127 
L 1041.10383 919.49865 
L 1015.276463 926.399696 
z
" clip-path="url(#p43b94d9280)" style="fill: #4c72b0; fill-opacity: 0.2; stroke: #4c72b0; stroke-opacity: 0.2"/>
    <path d="M 1100.914577 880.96781 
L 1100.914577 883.268158 
L 1107.711253 878.092374 
L 1115.867264 874.641851 
L 1122.66394 870.616241 
L 1144.413302 864.290282 
L 1149.850643 860.279049 
L 1174.318675 852.788539 
L 1174.318675 852.788539 
L 1174.318675 852.788539 
L 1149.850643 857.964323 
L 1144.413302 864.290282 
L 1122.66394 868.315892 
L 1115.867264 874.641851 
L 1107.711253 878.092374 
L 1100.914577 880.96781 
z
" clip-path="url(#p43b94d9280)" style="fill: #4c72b0; fill-opacity: 0.2; stroke: #4c72b0; stroke-opacity: 0.2"/>
    <path d="M 1198.786708 848.187842 
L 1198.786708 848.187842 
L 1211.020724 844.162231 
L 1253.160114 837.836273 
L 1258.597455 834.38575 
L 1277.628147 830.935227 
L 1280.346817 827.484704 
L 1281.706152 822.884006 
L 1285.784158 814.832786 
L 1287.143493 812.532437 
L 1295.299504 809.081914 
L 1299.377509 805.631391 
L 1303.455515 802.180868 
L 1304.81485 795.279823 
L 1318.408201 791.254212 
L 1319.767537 784.928254 
L 1321.126872 781.477731 
L 1334.720223 778.027208 
L 1337.438894 774.576685 
L 1355.110251 771.126162 
L 1359.188256 767.675639 
L 1375.500278 765.37529 
L 1390.452965 761.924767 
L 1399.968311 758.474244 
L 1402.686981 753.873547 
L 1412.202327 750.423024 
L 1413.561662 746.972501 
L 1418.999003 743.521978 
L 1423.077008 740.071455 
L 1432.592354 737.771106 
L 1438.029695 734.320583 
L 1444.826371 730.294973 
L 1458.419722 723.969014 
L 1463.857063 720.518491 
L 1465.216398 717.067968 
L 1467.935068 714.76762 
L 1474.731744 712.467271 
L 1477.450414 709.016748 
L 1520.949139 704.991138 
L 1541.339166 698.665179 
L 1544.057837 695.214656 
L 1552.213848 691.764133 
L 1569.885205 687.738523 
L 1573.96321 681.412564 
L 1578.041216 677.962041 
L 1583.478556 674.511518 
L 1588.915897 671.060995 
L 1605.227919 668.760647 
L 1613.383929 666.460298 
L 1618.82127 663.009775 
L 1640.570632 660.709426 
L 1644.648638 658.409078 
L 1660.96066 654.958555 
L 1711.25606 650.932945 
L 1738.442763 644.606986 
L 1739.802099 641.156463 
L 1760.192126 637.70594 
L 1769.707472 634.255417 
L 1798.25351 631.955068 
L 1811.846862 628.504545 
L 1814.565532 625.054022 
L 1817.284202 621.603499 
L 1824.080878 619.303151 
L 1832.236889 613.552279 
L 1837.67423 604.350884 
L 1841.752235 600.900361 
L 1860.782927 596.874751 
L 1878.454284 590.548792 
L 1889.328965 587.098269 
L 1890.6883 583.647746 
L 1905.640987 581.347398 
L 1920.593674 576.7467 
L 1940.983701 573.296177 
L 1954.577053 569.845655 
L 1960.014393 567.545306 
L 1968.170404 564.094783 
L 1977.68575 560.64426 
L 1996.716442 557.193737 
L 1996.716442 557.193737 
L 1996.716442 557.193737 
L 1977.68575 560.64426 
L 1968.170404 564.094783 
L 1960.014393 567.545306 
L 1954.577053 569.845655 
L 1940.983701 573.296177 
L 1920.593674 576.7467 
L 1905.640987 581.347398 
L 1890.6883 583.647746 
L 1889.328965 587.098269 
L 1878.454284 590.548792 
L 1860.782927 594.574403 
L 1841.752235 600.900361 
L 1837.67423 604.350884 
L 1832.236889 609.411651 
L 1824.080878 619.303151 
L 1817.284202 621.603499 
L 1814.565532 625.054022 
L 1811.846862 628.504545 
L 1798.25351 631.955068 
L 1769.707472 634.255417 
L 1760.192126 637.70594 
L 1739.802099 641.156463 
L 1738.442763 644.606986 
L 1711.25606 648.632596 
L 1660.96066 654.958555 
L 1644.648638 658.409078 
L 1640.570632 660.709426 
L 1618.82127 663.009775 
L 1613.383929 666.460298 
L 1605.227919 668.760647 
L 1588.915897 671.060995 
L 1583.478556 674.511518 
L 1578.041216 677.962041 
L 1573.96321 681.412564 
L 1569.885205 685.438174 
L 1552.213848 691.764133 
L 1544.057837 695.214656 
L 1541.339166 698.665179 
L 1520.949139 702.690789 
L 1477.450414 709.016748 
L 1474.731744 712.467271 
L 1467.935068 714.76762 
L 1465.216398 717.067968 
L 1463.857063 720.518491 
L 1458.419722 723.969014 
L 1444.826371 727.994624 
L 1438.029695 734.320583 
L 1432.592354 737.771106 
L 1423.077008 740.071455 
L 1418.999003 743.521978 
L 1413.561662 746.972501 
L 1412.202327 750.423024 
L 1402.686981 753.873547 
L 1399.968311 758.474244 
L 1390.452965 761.924767 
L 1375.500278 765.37529 
L 1359.188256 767.675639 
L 1355.110251 771.126162 
L 1337.438894 774.576685 
L 1334.720223 778.027208 
L 1321.126872 781.477731 
L 1319.767537 784.928254 
L 1318.408201 788.953864 
L 1304.81485 795.279823 
L 1303.455515 802.180868 
L 1299.377509 805.631391 
L 1295.299504 809.081914 
L 1287.143493 812.532437 
L 1285.784158 814.832786 
L 1281.706152 819.861204 
L 1280.346817 827.484704 
L 1277.628147 830.935227 
L 1258.597455 834.38575 
L 1253.160114 837.836273 
L 1211.020724 841.861883 
L 1198.786708 848.187842 
z
" clip-path="url(#p43b94d9280)" style="fill: #4c72b0; fill-opacity: 0.2; stroke: #4c72b0; stroke-opacity: 0.2"/>
    <path d="M 2006.231788 549.142517 
L 2006.231788 549.142517 
L 2025.26248 545.691994 
L 2032.059156 542.241471 
L 2034.777827 538.790948 
L 2049.730513 535.340425 
L 2067.40187 531.889902 
L 2097.307244 528.439379 
L 2100.025914 524.988856 
L 2110.900595 521.538333 
L 2116.337936 517.512723 
L 2117.697271 510.611677 
L 2124.493947 504.285718 
L 2127.212617 500.835195 
L 2151.68065 497.384672 
L 2185.664028 493.934149 
L 2195.179374 490.483626 
L 2207.413391 488.183277 
L 2210.132061 484.732754 
L 2219.647407 481.282231 
L 2246.83411 477.831708 
L 2256.349456 470.930662 
L 2256.349456 470.930662 
L 2256.349456 470.930662 
L 2246.83411 477.831708 
L 2219.647407 481.282231 
L 2210.132061 484.732754 
L 2207.413391 488.183277 
L 2195.179374 490.483626 
L 2185.664028 493.934149 
L 2151.68065 497.384672 
L 2127.212617 500.835195 
L 2124.493947 504.285718 
L 2117.697271 508.311328 
L 2116.337936 515.212374 
L 2110.900595 521.538333 
L 2100.025914 524.988856 
L 2097.307244 528.439379 
L 2067.40187 531.889902 
L 2049.730513 535.340425 
L 2034.777827 538.790948 
L 2032.059156 542.241471 
L 2025.26248 545.691994 
L 2006.231788 549.142517 
z
" clip-path="url(#p43b94d9280)" style="fill: #4c72b0; fill-opacity: 0.2; stroke: #4c72b0; stroke-opacity: 0.2"/>
    <path d="M 2298.488846 467.480139 
L 2298.488846 467.480139 
L 2381.40829 465.179791 
L 2386.845631 462.879442 
L 2386.845631 460.579094 
L 2386.845631 460.579094 
L 2381.40829 465.179791 
L 2298.488846 467.480139 
z
" clip-path="url(#p43b94d9280)" style="fill: #4c72b0; fill-opacity: 0.2; stroke: #4c72b0; stroke-opacity: 0.2"/>
   </g>
   <g id="PolyCollection_2">
    <path d="M 457.94905 1769.477477 
L 457.94905 1769.477477 
L 460.667721 1765.451867 
L 462.027056 1759.125908 
L 470.183067 1755.675385 
L 478.339078 1751.649775 
L 479.698413 1746.47399 
L 485.135753 1743.023468 
L 486.495088 1738.997857 
L 487.854424 1732.096811 
L 493.291764 1725.770853 
L 494.651099 1715.419284 
L 496.010435 1651.997094 
L 497.36977 1553.851572 
L 498.729105 1515.864038 
L 500.08844 1509.538079 
L 501.447775 1505.512469 
L 502.80711 1499.18651 
L 506.885116 1496.119379 
L 508.244451 1488.834941 
L 512.322456 1481.550504 
L 513.681792 1475.032849 
L 517.759797 1471.582326 
L 520.478467 1465.831455 
L 521.837802 1457.780235 
L 525.915808 1434.778802 
L 527.275143 1400.961623 
L 528.634478 1380.389933 
L 529.993813 1364.616114 
L 531.353149 1359.632025 
L 539.509159 1350.814022 
L 542.22783 1347.363499 
L 543.587165 1342.37941 
L 546.305835 1331.261059 
L 547.66517 1323.209838 
L 549.024505 1319.759315 
L 550.383841 1312.50437 
L 554.461846 1301.356526 
L 557.180516 1297.906003 
L 558.539852 1294.45548 
L 562.617857 1291.004957 
L 563.977192 1287.554434 
L 569.414533 1280.269997 
L 572.133203 1273.177255 
L 576.211209 1266.276209 
L 578.929879 1259.95025 
L 580.289214 1255.92464 
L 583.007884 1246.148158 
L 584.367219 1242.697635 
L 585.726555 1239.247113 
L 597.960571 1235.221502 
L 604.757247 1223.604742 
L 606.116582 1211.642929 
L 607.475917 1208.192406 
L 614.272593 1199.451081 
L 616.991263 1186.914181 
L 618.350598 1178.287873 
L 622.428604 1170.236653 
L 626.506609 1166.78613 
L 631.94395 1163.335607 
L 636.021955 1157.968127 
L 641.459296 1149.533515 
L 642.818631 1142.632469 
L 645.537301 1130.363943 
L 646.896636 1121.929331 
L 648.255972 1117.903721 
L 652.333977 1111.577762 
L 656.411982 1108.127239 
L 659.130653 1105.136786 
L 665.927329 1096.855531 
L 670.005334 1087.424101 
L 674.083339 1080.523055 
L 676.80201 1073.909553 
L 679.52068 1062.695353 
L 680.880015 1056.369395 
L 682.23935 1052.918872 
L 684.958021 1049.468349 
L 686.317356 1045.442739 
L 690.395361 1039.11678 
L 691.754696 1035.666257 
L 850.796909 1032.215734 
L 852.156244 1028.765211 
L 853.51558 1024.739601 
L 854.874915 1016.880076 
L 856.23425 1008.062073 
L 861.67159 1004.61155 
L 962.262392 1001.161027 
L 969.059067 997.710504 
L 970.418403 995.410155 
L 973.137073 991.959632 
L 979.933749 989.659284 
L 981.293084 985.633674 
L 1141.694632 979.307715 
L 1143.053967 975.857192 
L 1144.413302 970.10632 
L 1147.131972 962.0551 
L 1151.209978 959.754751 
L 1158.006654 956.304228 
L 1172.95934 952.853705 
L 1174.318675 949.403182 
L 1175.678011 945.377572 
L 1179.756016 939.051613 
L 1182.474686 935.60109 
L 1187.912027 932.150567 
L 1196.068038 927.693642 
L 1205.583384 918.923563 
L 1206.942719 912.597604 
L 1208.302054 908.571994 
L 1209.661389 902.246035 
L 1212.38006 898.795512 
L 1213.739395 895.344989 
L 1215.09873 891.894466 
L 1216.458065 888.443943 
L 1261.316125 884.99342 
L 1262.67546 882.693071 
L 1262.67546 882.693071 
L 1262.67546 882.693071 
L 1261.316125 884.99342 
L 1216.458065 888.443943 
L 1215.09873 891.894466 
L 1213.739395 895.344989 
L 1212.38006 898.795512 
L 1209.661389 902.246035 
L 1208.302054 906.271645 
L 1206.942719 912.597604 
L 1205.583384 916.623214 
L 1196.068038 923.811803 
L 1187.912027 932.150567 
L 1182.474686 935.60109 
L 1179.756016 939.051613 
L 1175.678011 943.077223 
L 1174.318675 949.403182 
L 1172.95934 952.853705 
L 1158.006654 956.304228 
L 1151.209978 959.754751 
L 1147.131972 962.0551 
L 1144.413302 965.505623 
L 1143.053967 975.857192 
L 1141.694632 979.307715 
L 981.293084 983.333325 
L 979.933749 989.659284 
L 973.137073 991.959632 
L 970.418403 995.410155 
L 969.059067 997.710504 
L 962.262392 1001.161027 
L 861.67159 1004.61155 
L 856.23425 1008.062073 
L 854.874915 1013.046162 
L 853.51558 1022.439252 
L 852.156244 1028.765211 
L 850.796909 1032.215734 
L 691.754696 1035.666257 
L 690.395361 1039.11678 
L 686.317356 1043.14239 
L 684.958021 1049.468349 
L 682.23935 1052.918872 
L 680.880015 1056.369395 
L 679.52068 1060.395005 
L 676.80201 1069.596399 
L 674.083339 1080.523055 
L 670.005334 1087.424101 
L 665.927329 1093.405008 
L 659.130653 1102.376368 
L 656.411982 1108.127239 
L 652.333977 1111.577762 
L 648.255972 1115.603372 
L 646.896636 1121.929331 
L 645.537301 1126.91342 
L 642.818631 1137.456685 
L 641.459296 1149.533515 
L 636.021955 1154.517604 
L 631.94395 1163.335607 
L 626.506609 1166.78613 
L 622.428604 1170.236653 
L 618.350598 1173.687176 
L 616.991263 1184.613832 
L 614.272593 1195.080418 
L 607.475917 1208.192406 
L 606.116582 1211.642929 
L 604.757247 1219.004044 
L 597.960571 1232.906777 
L 585.726555 1239.247113 
L 584.367219 1242.697635 
L 583.007884 1246.148158 
L 580.289214 1253.624292 
L 578.929879 1259.95025 
L 576.211209 1263.975861 
L 572.133203 1270.876906 
L 569.414533 1278.35304 
L 563.977192 1287.554434 
L 562.617857 1291.004957 
L 558.539852 1294.45548 
L 557.180516 1297.906003 
L 554.461846 1301.356526 
L 550.383841 1308.257572 
L 549.024505 1319.759315 
L 547.66517 1323.209838 
L 546.305835 1327.407975 
L 543.587165 1338.545496 
L 542.22783 1347.363499 
L 539.509159 1350.814022 
L 531.353149 1355.798111 
L 529.993813 1364.616114 
L 528.634478 1373.653198 
L 527.275143 1395.900856 
L 525.915808 1426.889838 
L 521.837802 1457.780235 
L 520.478467 1461.99754 
L 517.759797 1471.582326 
L 513.681792 1475.032849 
L 512.322456 1479.633547 
L 508.244451 1488.834941 
L 506.885116 1493.052247 
L 502.80711 1499.18651 
L 501.447775 1503.21212 
L 500.08844 1509.538079 
L 498.729105 1513.563689 
L 497.36977 1544.220375 
L 496.010435 1638.255055 
L 494.651099 1715.419284 
L 493.291764 1725.770853 
L 487.854424 1729.796463 
L 486.495088 1736.697509 
L 485.135753 1743.023468 
L 479.698413 1746.47399 
L 478.339078 1749.349426 
L 470.183067 1755.675385 
L 462.027056 1759.125908 
L 460.667721 1763.151518 
L 457.94905 1769.477477 
z
" clip-path="url(#p43b94d9280)" style="fill: #dd8452; fill-opacity: 0.2; stroke: #dd8452; stroke-opacity: 0.2"/>
    <path d="M 1268.112801 878.092374 
L 1268.112801 878.092374 
L 1273.550141 874.066764 
L 1276.268812 868.890979 
L 1277.628147 866.590631 
L 1285.784158 862.565021 
L 1303.455515 856.239062 
L 1311.611526 852.213452 
L 1312.970861 845.887493 
L 1317.048866 841.138916 
L 1318.408201 834.38575 
L 1321.126872 830.935227 
L 1322.486207 827.484704 
L 1323.845542 824.034181 
L 1330.642218 820.583658 
L 1344.235569 817.133135 
L 1345.594905 813.682612 
L 1353.750915 810.232089 
L 1355.110251 806.781566 
L 1356.469586 803.331043 
L 1357.828921 796.142453 
L 1363.266261 782.627905 
L 1364.625597 779.637452 
L 1370.062937 773.42651 
L 1379.578283 768.05903 
L 1379.578283 764.608507 
L 1379.578283 764.608507 
L 1370.062937 773.42651 
L 1364.625597 776.877033 
L 1363.266261 782.627905 
L 1357.828921 791.254212 
L 1356.469586 803.331043 
L 1355.110251 806.781566 
L 1353.750915 810.232089 
L 1345.594905 813.682612 
L 1344.235569 817.133135 
L 1330.642218 820.583658 
L 1323.845542 824.034181 
L 1322.486207 827.484704 
L 1321.126872 830.935227 
L 1318.408201 834.38575 
L 1317.048866 838.493515 
L 1312.970861 845.887493 
L 1311.611526 849.913103 
L 1303.455515 856.239062 
L 1285.784158 860.264672 
L 1277.628147 866.590631 
L 1276.268812 868.890979 
L 1273.550141 871.766415 
L 1268.112801 878.092374 
z
" clip-path="url(#p43b94d9280)" style="fill: #dd8452; fill-opacity: 0.2; stroke: #dd8452; stroke-opacity: 0.2"/>
    <path d="M 1385.015624 758.474244 
L 1385.015624 758.474244 
L 1389.093629 755.023721 
L 1390.452965 751.573198 
L 1395.890305 748.122675 
L 1398.608975 744.672152 
L 1416.280332 739.688063 
L 1420.358338 730.87006 
L 1443.467035 725.776431 
L 1443.467035 723.79238 
L 1443.467035 723.79238 
L 1420.358338 730.87006 
L 1416.280332 735.854149 
L 1398.608975 744.672152 
L 1395.890305 748.122675 
L 1390.452965 751.573198 
L 1389.093629 755.023721 
L 1385.015624 758.474244 
z
" clip-path="url(#p43b94d9280)" style="fill: #dd8452; fill-opacity: 0.2; stroke: #dd8452; stroke-opacity: 0.2"/>
    <path d="M 1588.915897 718.218143 
L 1588.915897 718.218143 
L 1592.993902 714.76762 
L 1594.353237 709.016748 
L 1597.071908 705.566225 
L 1648.726643 702.115702 
L 1654.163984 698.665179 
L 1655.523319 695.214656 
L 1659.601325 688.31361 
L 1666.398 684.863087 
L 1669.116671 681.412564 
L 1671.835341 677.962041 
L 1674.554011 674.511518 
L 1679.991352 671.060995 
L 1772.426142 667.610472 
L 1776.504148 664.159949 
L 1779.222818 660.709426 
L 1786.019494 657.258903 
L 1787.378829 653.80838 
L 1792.81617 650.357857 
L 1798.25351 648.057509 
L 1803.690851 644.606986 
L 1809.128191 640.581376 
L 1811.846862 635.405591 
L 1813.206197 630.804894 
L 1817.284202 625.054022 
L 1822.721543 621.603499 
L 1825.440213 619.303151 
L 1826.799548 617.002802 
L 1828.158883 613.552279 
L 1829.518219 609.526669 
L 1833.596224 603.20071 
L 1834.955559 599.750187 
L 1837.67423 596.299664 
L 1841.752235 592.274054 
L 1843.11157 585.948095 
L 1845.83024 582.497572 
L 1855.345587 579.047049 
L 1856.704922 574.446352 
L 1870.298273 570.995829 
L 1878.454284 567.545306 
L 1881.172954 564.094783 
L 1883.891625 560.069173 
L 1885.25096 553.168127 
L 1887.96963 546.842168 
L 1890.6883 543.391645 
L 1892.047636 539.941122 
L 1896.125641 534.957033 
L 1897.484976 526.13903 
L 1898.844311 522.688507 
L 1902.922317 519.237984 
L 1908.359657 514.637287 
L 1912.437663 512.336938 
L 1913.796998 508.886415 
L 1919.234339 505.435892 
L 1921.953009 501.985369 
L 1924.671679 498.534846 
L 1928.749685 495.084323 
L 1932.82769 491.6338 
L 1935.54636 488.183277 
L 1943.702371 484.157667 
L 1949.139712 477.831708 
L 1955.936388 474.381185 
L 1962.733064 470.930662 
L 1980.40442 467.480139 
L 1985.841761 464.029616 
L 1987.201096 460.579094 
L 2011.669129 457.128571 
L 2013.028464 453.678048 
L 2056.527189 450.227525 
L 2067.40187 445.626827 
L 2068.761205 442.176304 
L 2086.432562 439.875956 
L 2101.385249 436.425433 
L 2102.744584 431.824735 
L 2105.463254 428.374212 
L 2108.181925 424.923689 
L 2116.337936 421.473166 
L 2117.697271 419.172818 
L 2121.775276 415.147208 
L 2124.493947 408.821249 
L 2127.212617 404.795639 
L 2132.649957 398.46968 
L 2134.009293 395.019157 
L 2139.446633 388.222672 
L 2150.321314 378.916716 
L 2155.758655 375.466193 
L 2162.555331 372.01567 
L 2167.992671 368.565147 
L 2176.148682 365.114624 
L 2188.382699 361.089014 
L 2200.616715 355.91323 
L 2203.335385 352.462707 
L 2204.694721 349.012184 
L 2210.132061 344.028095 
L 2218.288072 335.210092 
L 2242.756105 331.759569 
L 2373.252279 328.309046 
L 2385.486296 324.858523 
L 2390.923636 321.408 
L 2390.923636 321.408 
L 2390.923636 321.408 
L 2385.486296 324.858523 
L 2373.252279 328.309046 
L 2242.756105 331.759569 
L 2218.288072 335.210092 
L 2210.132061 340.194181 
L 2204.694721 349.012184 
L 2203.335385 352.462707 
L 2200.616715 355.91323 
L 2188.382699 358.788666 
L 2176.148682 365.114624 
L 2167.992671 368.565147 
L 2162.555331 372.01567 
L 2155.758655 375.466193 
L 2150.321314 378.916716 
L 2139.446633 384.249343 
L 2134.009293 395.019157 
L 2132.649957 398.46968 
L 2127.212617 402.49529 
L 2124.493947 408.821249 
L 2121.775276 412.846859 
L 2117.697271 419.172818 
L 2116.337936 421.473166 
L 2108.181925 424.923689 
L 2105.463254 428.374212 
L 2102.744584 431.824735 
L 2101.385249 436.425433 
L 2086.432562 439.875956 
L 2068.761205 442.176304 
L 2067.40187 445.626827 
L 2056.527189 450.227525 
L 2013.028464 453.678048 
L 2011.669129 457.128571 
L 1987.201096 460.579094 
L 1985.841761 464.029616 
L 1980.40442 467.480139 
L 1962.733064 470.930662 
L 1955.936388 474.381185 
L 1949.139712 477.831708 
L 1943.702371 481.857319 
L 1935.54636 488.183277 
L 1932.82769 491.6338 
L 1928.749685 495.084323 
L 1924.671679 498.534846 
L 1921.953009 501.985369 
L 1919.234339 505.435892 
L 1913.796998 508.886415 
L 1912.437663 512.336938 
L 1908.359657 514.637287 
L 1902.922317 519.237984 
L 1898.844311 522.688507 
L 1897.484976 526.13903 
L 1896.125641 531.123119 
L 1892.047636 539.941122 
L 1890.6883 543.391645 
L 1887.96963 546.842168 
L 1885.25096 550.867778 
L 1883.891625 557.768824 
L 1881.172954 564.094783 
L 1878.454284 567.545306 
L 1870.298273 570.995829 
L 1856.704922 574.446352 
L 1855.345587 578.184418 
L 1845.83024 582.497572 
L 1843.11157 585.948095 
L 1841.752235 589.973705 
L 1837.67423 596.299664 
L 1834.955559 599.750187 
L 1833.596224 603.20071 
L 1829.518219 607.22632 
L 1828.158883 613.552279 
L 1826.799548 617.002802 
L 1825.440213 619.303151 
L 1822.721543 621.603499 
L 1817.284202 625.054022 
L 1813.206197 628.504545 
L 1811.846862 633.105242 
L 1809.128191 638.281027 
L 1803.690851 644.606986 
L 1798.25351 648.057509 
L 1792.81617 650.357857 
L 1787.378829 653.80838 
L 1786.019494 657.258903 
L 1779.222818 660.709426 
L 1776.504148 664.159949 
L 1772.426142 667.610472 
L 1679.991352 671.060995 
L 1674.554011 674.511518 
L 1671.835341 677.962041 
L 1669.116671 681.412564 
L 1666.398 684.863087 
L 1659.601325 688.31361 
L 1655.523319 695.214656 
L 1654.163984 698.665179 
L 1648.726643 702.115702 
L 1597.071908 705.566225 
L 1594.353237 709.016748 
L 1592.993902 712.927341 
L 1588.915897 718.218143 
z
" clip-path="url(#p43b94d9280)" style="fill: #dd8452; fill-opacity: 0.2; stroke: #dd8452; stroke-opacity: 0.2"/>
   </g>
   <g id="PolyCollection_3">
    <defs>
     <path id="m4e70d3becd" d="M 478.339078 -306.997959 
L 478.339078 -304.69761 
L 481.057748 -311.023569 
L 483.776418 -314.474092 
L 487.854424 -318.485325 
L 489.213759 -324.825661 
L 498.729105 -328.276184 
L 500.08844 -330.576532 
L 513.681792 -334.027055 
L 521.837802 -337.477578 
L 523.197138 -340.928101 
L 527.275143 -379.53022 
L 528.634478 -435.673712 
L 529.993813 -461.696406 
L 531.353149 -482.169509 
L 539.509159 -495.051461 
L 543.587165 -498.501984 
L 550.383841 -500.802333 
L 551.743176 -505.40303 
L 553.102511 -507.703379 
L 563.977192 -513.45425 
L 585.726555 -516.904773 
L 599.319906 -520.355296 
L 615.631928 -524.380906 
L 640.099961 -530.706865 
L 641.459296 -534.157388 
L 644.177966 -537.607911 
L 649.615307 -541.058434 
L 675.442675 -559.573365 
L 676.80201 -579.014187 
L 684.958021 -581.314536 
L 687.676691 -584.765059 
L 693.114032 -588.215582 
L 701.270043 -592.241192 
L 702.629378 -620.516311 
L 706.707383 -639.973426 
L 708.066718 -643.999036 
L 712.144724 -650.324995 
L 724.37874 -653.775518 
L 725.738075 -657.226041 
L 728.456746 -660.676564 
L 729.816081 -664.127087 
L 743.409432 -667.57761 
L 751.565443 -671.60322 
L 752.924778 -677.929179 
L 759.721454 -681.379702 
L 762.440124 -688.280748 
L 805.938849 -693.264837 
L 810.016855 -702.08284 
L 811.37619 -706.10845 
L 814.09486 -715.884932 
L 879.342947 -719.335455 
L 897.014304 -722.785978 
L 902.451645 -726.236501 
L 936.435024 -729.687024 
L 940.513029 -733.137547 
L 950.028375 -736.58807 
L 982.652419 -740.038593 
L 993.5271 -743.489116 
L 1026.151144 -747.514726 
L 1032.94782 -753.840685 
L 1080.52455 -757.291208 
L 1084.602555 -760.741731 
L 1223.254741 -763.042079 
L 1225.973411 -766.492602 
L 1227.332746 -768.792951 
L 1232.770087 -772.243474 
L 1234.129422 -776.269084 
L 1243.644768 -782.595043 
L 1284.424823 -788.345914 
L 1338.798229 -791.796437 
L 1504.637117 -795.24696 
L 1573.96321 -798.697483 
L 1594.353237 -802.723094 
L 1641.929968 -812.212032 
L 1752.036115 -822.851144 
L 1870.298273 -826.301667 
L 1968.170404 -829.75219 
L 2139.446633 -832.052539 
L 2144.883974 -835.503062 
L 2259.068127 -838.953585 
L 2356.940258 -842.404108 
L 2356.940258 -842.404108 
L 2356.940258 -842.404108 
L 2259.068127 -838.953585 
L 2144.883974 -835.503062 
L 2139.446633 -832.052539 
L 1968.170404 -829.75219 
L 1870.298273 -826.301667 
L 1752.036115 -822.851144 
L 1641.929968 -816.237642 
L 1594.353237 -805.023442 
L 1573.96321 -798.697483 
L 1504.637117 -795.24696 
L 1338.798229 -791.796437 
L 1284.424823 -788.345914 
L 1243.644768 -784.435322 
L 1234.129422 -778.569433 
L 1232.770087 -772.243474 
L 1227.332746 -768.792951 
L 1225.973411 -766.492602 
L 1223.254741 -764.192254 
L 1084.602555 -760.741731 
L 1080.52455 -757.291208 
L 1032.94782 -753.840685 
L 1026.151144 -749.815074 
L 993.5271 -743.489116 
L 982.652419 -740.038593 
L 950.028375 -736.58807 
L 940.513029 -733.137547 
L 936.435024 -729.687024 
L 902.451645 -726.236501 
L 897.014304 -722.785978 
L 879.342947 -719.335455 
L 814.09486 -715.884932 
L 811.37619 -708.408799 
L 810.016855 -702.08284 
L 805.938849 -696.71536 
L 762.440124 -688.280748 
L 759.721454 -681.379702 
L 752.924778 -677.929179 
L 751.565443 -673.903569 
L 743.409432 -667.57761 
L 729.816081 -664.127087 
L 728.456746 -660.676564 
L 725.738075 -657.226041 
L 724.37874 -653.775518 
L 712.144724 -650.324995 
L 708.066718 -646.299385 
L 706.707383 -639.973426 
L 702.629378 -627.800748 
L 701.270043 -594.54154 
L 693.114032 -588.215582 
L 687.676691 -584.765059 
L 684.958021 -581.314536 
L 676.80201 -579.014187 
L 675.442675 -568.432583 
L 649.615307 -541.058434 
L 644.177966 -537.607911 
L 641.459296 -534.157388 
L 640.099961 -530.706865 
L 615.631928 -526.681255 
L 599.319906 -520.355296 
L 585.726555 -516.904773 
L 563.977192 -513.45425 
L 553.102511 -510.003727 
L 551.743176 -505.40303 
L 550.383841 -503.102681 
L 543.587165 -498.501984 
L 539.509159 -495.051461 
L 531.353149 -487.230276 
L 529.993813 -467.282967 
L 528.634478 -441.99967 
L 527.275143 -390.256 
L 523.197138 -340.928101 
L 521.837802 -337.477578 
L 513.681792 -334.027055 
L 500.08844 -330.576532 
L 498.729105 -328.276184 
L 489.213759 -324.825661 
L 487.854424 -320.800051 
L 483.776418 -314.474092 
L 481.057748 -311.023569 
L 478.339078 -306.997959 
z
" style="stroke: #55a868; stroke-opacity: 0.2"/>
    </defs>
    <g clip-path="url(#p43b94d9280)">
     <use xlink:href="#m4e70d3becd" x="0" y="2073.6" style="fill: #55a868; fill-opacity: 0.2; stroke: #55a868; stroke-opacity: 0.2"/>
    </g>
   </g>
   <g id="PolyCollection_4">
    <defs>
     <path id="m4bac822dd4" d="M 478.339078 -302.972349 
L 478.339078 -302.972349 
L 494.651099 -306.422872 
L 498.729105 -308.72322 
L 504.166445 -312.173743 
L 512.322456 -315.624266 
L 519.119132 -319.074789 
L 523.197138 -322.525312 
L 525.915808 -325.975835 
L 531.353149 -329.426358 
L 532.712484 -332.876881 
L 534.071819 -336.327404 
L 546.305835 -341.311493 
L 547.66517 -350.129496 
L 549.024505 -355.982315 
L 550.383841 -367.765502 
L 551.743176 -378.117071 
L 554.461846 -386.935074 
L 558.539852 -390.385597 
L 559.899187 -393.83612 
L 563.977192 -400.449623 
L 568.055198 -411.088735 
L 574.851873 -414.539258 
L 663.208658 -417.989781 
L 664.567993 -427.651246 
L 751.565443 -438.692919 
L 752.924778 -442.143442 
L 765.158795 -445.593965 
L 769.2368 -449.619575 
L 770.596135 -456.520621 
L 771.95547 -462.84658 
L 777.392811 -466.297103 
L 778.752146 -470.322713 
L 872.546272 -477.223759 
L 873.905607 -483.549718 
L 875.264942 -487.000241 
L 886.139623 -490.450764 
L 888.858293 -493.901287 
L 914.685661 -497.35181 
L 918.763667 -500.802333 
L 929.638348 -504.252856 
L 936.435024 -507.703379 
L 947.309705 -511.728989 
L 948.66904 -518.054948 
L 950.028375 -521.505471 
L 951.38771 -524.955994 
L 1004.401781 -528.406517 
L 1007.120452 -531.85704 
L 1058.775187 -535.88265 
L 1061.493858 -542.208609 
L 1064.212528 -545.659132 
L 1084.602555 -549.109655 
L 1091.399231 -552.560177 
L 1094.117901 -557.544266 
L 1096.836572 -566.937357 
L 1098.195907 -573.263315 
L 1128.10128 -576.713838 
L 1133.538621 -582.081319 
L 1160.725324 -589.365756 
L 1162.084659 -591.666105 
L 1181.115351 -593.966453 
L 1183.834021 -597.416976 
L 1219.176735 -600.867499 
L 1243.644768 -604.318022 
L 1272.190806 -622.093444 
L 1273.550141 -658.950404 
L 1274.909477 -691.731271 
L 1276.268812 -721.476167 
L 1277.628147 -743.489116 
L 1303.455515 -746.939639 
L 1315.689531 -750.390162 
L 1322.486207 -755.37425 
L 1330.642218 -764.767341 
L 1379.578283 -771.0933 
L 1380.937618 -774.543823 
L 1409.483657 -777.994345 
L 1416.280332 -781.444868 
L 1417.639668 -784.895391 
L 1423.077008 -788.345914 
L 1465.216398 -791.796437 
L 1466.575733 -796.780526 
L 1469.294403 -805.598529 
L 1535.901826 -809.049052 
L 1703.100049 -815.375011 
L 1705.81872 -826.876754 
L 1707.178055 -834.736279 
L 1708.53739 -843.554282 
L 1715.334066 -849.305154 
L 1718.052736 -852.755677 
L 1787.378829 -856.2062 
L 1788.738164 -860.23181 
L 1791.456834 -870.008292 
L 1794.175505 -874.033902 
L 1803.690851 -880.359861 
L 1815.924867 -882.660209 
L 1998.075777 -886.110732 
L 2021.184475 -889.561255 
L 2025.26248 -893.011778 
L 2026.621816 -896.462301 
L 2146.243309 -899.912824 
L 2148.961979 -903.363347 
L 2187.023364 -906.81387 
L 2215.569402 -910.264393 
L 2223.725413 -913.714916 
L 2225.084748 -917.165439 
L 2233.240759 -920.615962 
L 2234.600094 -964.61013 
L 2235.959429 -1010.617103 
L 2235.959429 -1015.505344 
L 2235.959429 -1015.505344 
L 2234.600094 -976.210117 
L 2233.240759 -920.615962 
L 2225.084748 -917.165439 
L 2223.725413 -913.714916 
L 2215.569402 -910.264393 
L 2187.023364 -906.81387 
L 2148.961979 -903.363347 
L 2146.243309 -899.912824 
L 2026.621816 -896.462301 
L 2025.26248 -893.011778 
L 2021.184475 -889.561255 
L 1998.075777 -886.110732 
L 1815.924867 -882.660209 
L 1803.690851 -880.359861 
L 1794.175505 -876.33425 
L 1791.456834 -870.008292 
L 1788.738164 -862.532158 
L 1787.378829 -856.2062 
L 1718.052736 -852.755677 
L 1715.334066 -849.305154 
L 1708.53739 -845.394561 
L 1707.178055 -838.570193 
L 1705.81872 -829.177103 
L 1703.100049 -819.975708 
L 1535.901826 -809.049052 
L 1469.294403 -805.598529 
L 1466.575733 -800.614441 
L 1465.216398 -791.796437 
L 1423.077008 -788.345914 
L 1417.639668 -784.895391 
L 1416.280332 -781.444868 
L 1409.483657 -777.994345 
L 1380.937618 -774.543823 
L 1379.578283 -771.0933 
L 1330.642218 -767.067689 
L 1322.486207 -758.834358 
L 1315.689531 -750.390162 
L 1303.455515 -746.939639 
L 1277.628147 -743.489116 
L 1276.268812 -728.696486 
L 1274.909477 -698.060824 
L 1273.550141 -666.032962 
L 1272.190806 -629.412735 
L 1243.644768 -604.318022 
L 1219.176735 -600.867499 
L 1183.834021 -597.416976 
L 1181.115351 -593.966453 
L 1162.084659 -591.666105 
L 1160.725324 -589.365756 
L 1133.538621 -585.531842 
L 1128.10128 -576.713838 
L 1098.195907 -573.263315 
L 1096.836572 -569.237705 
L 1094.117901 -561.378181 
L 1091.399231 -552.560177 
L 1084.602555 -549.109655 
L 1064.212528 -545.659132 
L 1061.493858 -542.208609 
L 1058.775187 -538.182998 
L 1007.120452 -531.85704 
L 1004.401781 -528.406517 
L 951.38771 -524.955994 
L 950.028375 -521.505471 
L 948.66904 -518.054948 
L 947.309705 -514.029338 
L 936.435024 -507.703379 
L 929.638348 -504.252856 
L 918.763667 -500.802333 
L 914.685661 -497.35181 
L 888.858293 -493.901287 
L 886.139623 -490.450764 
L 875.264942 -487.000241 
L 873.905607 -483.549718 
L 872.546272 -479.524108 
L 778.752146 -472.623062 
L 777.392811 -466.297103 
L 771.95547 -462.84658 
L 770.596135 -458.82097 
L 769.2368 -451.919924 
L 765.158795 -445.593965 
L 752.924778 -442.143442 
L 751.565443 -438.692919 
L 664.567993 -431.791873 
L 663.208658 -417.989781 
L 574.851873 -414.539258 
L 568.055198 -411.088735 
L 563.977192 -404.762777 
L 559.899187 -393.83612 
L 558.539852 -390.385597 
L 554.461846 -386.935074 
L 551.743176 -381.567594 
L 550.383841 -371.599417 
L 549.024505 -360.06282 
L 547.66517 -350.129496 
L 546.305835 -345.145407 
L 534.071819 -336.327404 
L 532.712484 -332.876881 
L 531.353149 -329.426358 
L 525.915808 -325.975835 
L 523.197138 -322.525312 
L 519.119132 -319.074789 
L 512.322456 -315.624266 
L 504.166445 -312.173743 
L 498.729105 -308.72322 
L 494.651099 -306.422872 
L 478.339078 -302.972349 
z
" style="stroke: #c44e52; stroke-opacity: 0.2"/>
    </defs>
    <g clip-path="url(#p43b94d9280)">
     <use xlink:href="#m4bac822dd4" x="0" y="2073.6" style="fill: #c44e52; fill-opacity: 0.2; stroke: #c44e52; stroke-opacity: 0.2"/>
    </g>
   </g>
   <g id="line2d_16">
    <path d="M 442.996364 1772.928 
L 456.589715 1770.627651 
L 462.027056 1768.327303 
L 468.823732 1764.87678 
L 472.901737 1759.700995 
L 475.620407 1752.799949 
L 482.417083 1744.173642 
L 496.010435 1699.481154 
L 500.08844 1668.262136 
L 506.885116 1664.811613 
L 512.322456 1661.36109 
L 513.681792 1657.910567 
L 516.400462 1647.558998 
L 521.837802 1614.012247 
L 523.197138 1578.548539 
L 527.275143 1568.19697 
L 528.634478 1554.394878 
L 529.993813 1541.972995 
L 531.353149 1527.653325 
L 532.712484 1519.889648 
L 536.790489 1514.713864 
L 538.149824 1509.538079 
L 542.22783 1505.167417 
L 543.587165 1495.1609 
L 546.305835 1456.494746 
L 547.66517 1427.875702 
L 549.024505 1424.425179 
L 553.102511 1420.974656 
L 554.461846 1417.524133 
L 558.539852 1408.897826 
L 559.899187 1400.271518 
L 562.617857 1395.095734 
L 568.055198 1377.268032 
L 569.414533 1369.216811 
L 570.773868 1368.066637 
L 581.648549 1364.616114 
L 585.726555 1359.44033 
L 588.445225 1342.187715 
L 589.80456 1324.9351 
L 591.163895 1319.759315 
L 597.960571 1308.257572 
L 599.319906 1303.656875 
L 602.038576 1296.755829 
L 606.116582 1293.305306 
L 610.194587 1288.129521 
L 612.913258 1282.953737 
L 616.991263 1276.052691 
L 619.709933 1267.426384 
L 621.069269 1260.525338 
L 625.147274 1255.349553 
L 626.506609 1253.049204 
L 629.225279 1246.148158 
L 636.021955 1242.697635 
L 645.537301 1239.247113 
L 648.255972 1235.79659 
L 652.333977 1232.346067 
L 655.052647 1228.895544 
L 657.771318 1223.719759 
L 659.130653 1218.543975 
L 661.849323 1215.093452 
L 670.005334 1194.390314 
L 674.083339 1190.939791 
L 686.317356 1189.789616 
L 693.114032 1186.339094 
L 694.473367 1182.888571 
L 698.551372 1179.438048 
L 701.270043 1172.537002 
L 708.066718 1167.936304 
L 713.504059 1165.635956 
L 720.300735 1157.584735 
L 725.738075 1151.833864 
L 727.09741 1144.932818 
L 728.456746 1139.181946 
L 735.253421 1132.2809 
L 748.846773 1125.379854 
L 752.924778 1121.929331 
L 762.440124 1118.478808 
L 763.799459 1117.328634 
L 765.158795 1113.878111 
L 774.674141 1105.826891 
L 780.111481 1100.651106 
L 792.345498 1096.625496 
L 795.064168 1091.449712 
L 796.423503 1086.273927 
L 804.579514 1082.823404 
L 807.298184 1079.372881 
L 812.735525 1075.922358 
L 819.532201 1072.471835 
L 848.078239 1069.021312 
L 860.312255 1065.570789 
L 865.749596 1062.120266 
L 879.342947 1059.819918 
L 887.498958 1049.468349 
L 888.858293 1046.017826 
L 899.732975 1042.567303 
L 905.170315 1030.758846 
L 906.52965 1021.864165 
L 920.123002 1017.493502 
L 922.841672 1012.66277 
L 924.201007 1009.212247 
L 932.357018 1005.761724 
L 933.716353 1000.58594 
L 935.075689 993.684894 
L 936.435024 988.509109 
L 944.591035 981.608063 
L 945.95037 979.307715 
L 948.66904 975.857192 
L 958.184386 972.406669 
L 962.262392 966.327176 
L 966.340397 958.987968 
L 971.777738 954.00388 
L 984.011754 950.553357 
L 992.167765 947.102834 
L 994.886435 944.802485 
L 996.24577 937.901439 
L 1008.479787 931.000393 
L 1009.839122 929.850219 
L 1015.276463 926.399696 
L 1041.10383 919.49865 
L 1043.822501 912.597604 
L 1054.697182 909.147081 
L 1058.775187 905.696558 
L 1061.493858 902.246035 
L 1064.212528 897.875372 
L 1072.368539 894.194815 
L 1073.727874 891.894466 
L 1095.477237 888.443943 
L 1098.195907 887.293769 
L 1100.914577 882.117984 
L 1107.711253 878.092374 
L 1115.867264 874.641851 
L 1122.66394 869.466067 
L 1144.413302 864.290282 
L 1149.850643 859.114498 
L 1174.318675 852.788539 
L 1189.271362 851.638365 
L 1198.786708 848.187842 
L 1211.020724 843.012057 
L 1253.160114 837.836273 
L 1258.597455 834.38575 
L 1277.628147 830.935227 
L 1280.346817 827.484704 
L 1281.706152 821.302517 
L 1287.143493 812.532437 
L 1295.299504 809.081914 
L 1303.455515 802.180868 
L 1304.81485 795.279823 
L 1318.408201 790.104038 
L 1319.767537 784.928254 
L 1321.126872 781.477731 
L 1334.720223 778.027208 
L 1337.438894 774.576685 
L 1355.110251 771.126162 
L 1359.188256 767.675639 
L 1375.500278 765.37529 
L 1390.452965 761.924767 
L 1399.968311 758.474244 
L 1402.686981 753.873547 
L 1412.202327 750.423024 
L 1413.561662 746.972501 
L 1418.999003 743.521978 
L 1423.077008 740.071455 
L 1432.592354 737.771106 
L 1438.029695 734.320583 
L 1444.826371 729.144799 
L 1458.419722 723.969014 
L 1463.857063 720.518491 
L 1465.216398 717.067968 
L 1467.935068 714.76762 
L 1474.731744 712.467271 
L 1477.450414 709.016748 
L 1520.949139 703.840964 
L 1541.339166 698.665179 
L 1544.057837 695.214656 
L 1552.213848 691.764133 
L 1569.885205 686.588349 
L 1573.96321 681.412564 
L 1578.041216 677.962041 
L 1588.915897 671.060995 
L 1605.227919 668.760647 
L 1613.383929 666.460298 
L 1618.82127 663.009775 
L 1640.570632 660.709426 
L 1644.648638 658.409078 
L 1660.96066 654.958555 
L 1711.25606 649.78277 
L 1738.442763 644.606986 
L 1739.802099 641.156463 
L 1760.192126 637.70594 
L 1769.707472 634.255417 
L 1798.25351 631.955068 
L 1811.846862 628.504545 
L 1817.284202 621.603499 
L 1824.080878 619.303151 
L 1832.236889 611.596983 
L 1837.67423 604.350884 
L 1841.752235 600.900361 
L 1860.782927 595.724577 
L 1878.454284 590.548792 
L 1889.328965 587.098269 
L 1890.6883 583.647746 
L 1905.640987 581.347398 
L 1920.593674 576.7467 
L 1940.983701 573.296177 
L 1954.577053 569.845655 
L 1968.170404 564.094783 
L 1977.68575 560.64426 
L 1996.716442 557.193737 
L 2004.872453 556.043563 
L 2006.231788 549.142517 
L 2025.26248 545.691994 
L 2032.059156 542.241471 
L 2034.777827 538.790948 
L 2049.730513 535.340425 
L 2067.40187 531.889902 
L 2097.307244 528.439379 
L 2100.025914 524.988856 
L 2110.900595 521.538333 
L 2116.337936 516.362548 
L 2117.697271 509.461502 
L 2124.493947 504.285718 
L 2127.212617 500.835195 
L 2151.68065 497.384672 
L 2185.664028 493.934149 
L 2195.179374 490.483626 
L 2207.413391 488.183277 
L 2210.132061 484.732754 
L 2219.647407 481.282231 
L 2246.83411 477.831708 
L 2256.349456 470.930662 
L 2265.864802 469.780488 
L 2298.488846 467.480139 
L 2381.40829 465.179791 
L 2386.845631 461.729268 
L 2386.845631 461.729268 
" clip-path="url(#p43b94d9280)" style="fill: none; stroke: #4c72b0; stroke-width: 1.5; stroke-linecap: round"/>
   </g>
   <g id="line2d_17">
    <path d="M 442.996364 1772.928 
L 457.94905 1769.477477 
L 460.667721 1764.301693 
L 462.027056 1759.125908 
L 470.183067 1755.675385 
L 478.339078 1750.499601 
L 479.698413 1746.47399 
L 485.135753 1743.023468 
L 486.495088 1737.847683 
L 487.854424 1730.946637 
L 493.291764 1725.770853 
L 494.651099 1715.419284 
L 496.010435 1644.963472 
L 497.36977 1548.946684 
L 498.729105 1514.713864 
L 502.80711 1499.18651 
L 506.885116 1494.585813 
L 508.244451 1488.834941 
L 512.322456 1480.783721 
L 513.681792 1475.032849 
L 517.759797 1471.582326 
L 520.478467 1463.531106 
L 521.837802 1457.780235 
L 525.915808 1430.915448 
L 527.275143 1398.431239 
L 528.634478 1376.93941 
L 529.993813 1364.616114 
L 531.353149 1357.715068 
L 539.509159 1350.814022 
L 542.22783 1347.363499 
L 543.587165 1340.462453 
L 547.66517 1323.209838 
L 549.024505 1319.759315 
L 550.383841 1310.380971 
L 554.461846 1301.356526 
L 557.180516 1297.906003 
L 558.539852 1294.45548 
L 562.617857 1291.004957 
L 563.977192 1287.554434 
L 569.414533 1279.503214 
L 572.133203 1272.027081 
L 576.211209 1265.126035 
L 578.929879 1259.95025 
L 580.289214 1254.774466 
L 583.007884 1246.148158 
L 585.726555 1239.247113 
L 597.960571 1234.071328 
L 604.757247 1221.304393 
L 606.116582 1211.642929 
L 607.475917 1208.192406 
L 614.272593 1197.150732 
L 616.991263 1185.764006 
L 618.350598 1175.987525 
L 622.428604 1170.236653 
L 626.506609 1166.78613 
L 631.94395 1163.335607 
L 636.021955 1156.434561 
L 641.459296 1149.533515 
L 642.818631 1140.044577 
L 645.537301 1128.830377 
L 646.896636 1121.929331 
L 648.255972 1116.753547 
L 652.333977 1111.577762 
L 656.411982 1108.127239 
L 659.130653 1103.756577 
L 665.927329 1095.130269 
L 670.005334 1087.424101 
L 674.083339 1080.523055 
L 676.80201 1071.896748 
L 680.880015 1056.369395 
L 682.23935 1052.918872 
L 684.958021 1049.468349 
L 686.317356 1044.292564 
L 690.395361 1039.11678 
L 691.754696 1035.666257 
L 850.796909 1032.215734 
L 852.156244 1028.765211 
L 853.51558 1023.589426 
L 854.874915 1014.963119 
L 856.23425 1008.062073 
L 861.67159 1004.61155 
L 962.262392 1001.161027 
L 969.059067 997.710504 
L 970.418403 995.410155 
L 973.137073 991.959632 
L 979.933749 989.659284 
L 981.293084 984.483499 
L 1141.694632 979.307715 
L 1143.053967 975.857192 
L 1144.413302 967.805971 
L 1147.131972 962.0551 
L 1151.209978 959.754751 
L 1158.006654 956.304228 
L 1172.95934 952.853705 
L 1174.318675 949.403182 
L 1175.678011 944.227398 
L 1182.474686 935.60109 
L 1187.912027 932.150567 
L 1196.068038 925.96838 
L 1205.583384 917.773388 
L 1209.661389 902.246035 
L 1212.38006 898.795512 
L 1216.458065 888.443943 
L 1261.316125 884.99342 
L 1262.67546 882.693071 
L 1265.394131 881.542897 
L 1268.112801 878.092374 
L 1273.550141 872.91659 
L 1276.268812 868.890979 
L 1277.628147 866.590631 
L 1285.784158 861.414846 
L 1303.455515 856.239062 
L 1311.611526 851.063277 
L 1312.970861 845.887493 
L 1317.048866 839.808 
L 1318.408201 834.38575 
L 1321.126872 830.935227 
L 1323.845542 824.034181 
L 1330.642218 820.583658 
L 1344.235569 817.133135 
L 1345.594905 813.682612 
L 1353.750915 810.232089 
L 1356.469586 803.331043 
L 1357.828921 793.842105 
L 1363.266261 782.627905 
L 1364.625597 778.257242 
L 1370.062937 773.42651 
L 1379.578283 766.525464 
L 1383.656289 761.924767 
L 1385.015624 758.474244 
L 1389.093629 755.023721 
L 1390.452965 751.573198 
L 1395.890305 748.122675 
L 1398.608975 744.672152 
L 1416.280332 737.771106 
L 1420.358338 730.87006 
L 1443.467035 724.790567 
L 1539.979831 721.668666 
L 1588.915897 718.218143 
L 1592.993902 713.84748 
L 1594.353237 709.016748 
L 1597.071908 705.566225 
L 1648.726643 702.115702 
L 1654.163984 698.665179 
L 1655.523319 695.214656 
L 1659.601325 688.31361 
L 1666.398 684.863087 
L 1674.554011 674.511518 
L 1679.991352 671.060995 
L 1772.426142 667.610472 
L 1776.504148 664.159949 
L 1779.222818 660.709426 
L 1786.019494 657.258903 
L 1787.378829 653.80838 
L 1792.81617 650.357857 
L 1798.25351 648.057509 
L 1803.690851 644.606986 
L 1809.128191 639.431201 
L 1811.846862 634.255417 
L 1813.206197 629.654719 
L 1817.284202 625.054022 
L 1822.721543 621.603499 
L 1825.440213 619.303151 
L 1826.799548 617.002802 
L 1828.158883 613.552279 
L 1829.518219 608.376494 
L 1833.596224 603.20071 
L 1834.955559 599.750187 
L 1841.752235 591.12388 
L 1843.11157 585.948095 
L 1845.83024 582.497572 
L 1855.345587 578.759506 
L 1856.704922 574.446352 
L 1870.298273 570.995829 
L 1878.454284 567.545306 
L 1881.172954 564.094783 
L 1883.891625 558.918998 
L 1885.25096 552.017952 
L 1887.96963 546.842168 
L 1890.6883 543.391645 
L 1892.047636 539.941122 
L 1896.125641 533.040076 
L 1897.484976 526.13903 
L 1898.844311 522.688507 
L 1908.359657 514.637287 
L 1912.437663 512.336938 
L 1913.796998 508.886415 
L 1919.234339 505.435892 
L 1924.671679 498.534846 
L 1932.82769 491.6338 
L 1935.54636 488.183277 
L 1943.702371 483.007493 
L 1949.139712 477.831708 
L 1962.733064 470.930662 
L 1980.40442 467.480139 
L 1985.841761 464.029616 
L 1987.201096 460.579094 
L 2011.669129 457.128571 
L 2013.028464 453.678048 
L 2056.527189 450.227525 
L 2067.40187 445.626827 
L 2068.761205 442.176304 
L 2086.432562 439.875956 
L 2101.385249 436.425433 
L 2102.744584 431.824735 
L 2108.181925 424.923689 
L 2116.337936 421.473166 
L 2117.697271 419.172818 
L 2121.775276 413.997033 
L 2127.212617 403.645464 
L 2132.649957 398.46968 
L 2134.009293 395.019157 
L 2139.446633 386.131446 
L 2150.321314 378.916716 
L 2155.758655 375.466193 
L 2162.555331 372.01567 
L 2167.992671 368.565147 
L 2188.382699 359.93884 
L 2200.616715 355.91323 
L 2203.335385 352.462707 
L 2204.694721 349.012184 
L 2210.132061 342.111138 
L 2218.288072 335.210092 
L 2242.756105 331.759569 
L 2373.252279 328.309046 
L 2385.486296 324.858523 
L 2390.923636 321.408 
L 2390.923636 321.408 
" clip-path="url(#p43b94d9280)" style="fill: none; stroke: #dd8452; stroke-width: 1.5; stroke-linecap: round"/>
   </g>
   <g id="line2d_18">
    <path d="M 442.996364 1772.928 
L 478.339078 1767.752216 
L 481.057748 1762.576431 
L 483.776418 1759.125908 
L 487.854424 1753.950124 
L 489.213759 1748.774339 
L 498.729105 1745.323816 
L 500.08844 1743.023468 
L 513.681792 1739.572945 
L 521.837802 1736.122422 
L 523.197138 1732.671899 
L 527.275143 1689.111071 
L 528.634478 1634.619537 
L 529.993813 1609.110314 
L 531.353149 1588.900108 
L 539.509159 1578.548539 
L 543.587165 1575.098016 
L 550.383841 1571.647493 
L 551.743176 1568.19697 
L 553.102511 1564.746447 
L 563.977192 1560.14575 
L 585.726555 1556.695227 
L 599.319906 1553.244704 
L 615.631928 1548.068919 
L 640.099961 1542.893135 
L 641.459296 1539.442612 
L 644.177966 1535.992089 
L 649.615307 1532.541566 
L 675.442675 1509.768114 
L 676.80201 1494.585813 
L 684.958021 1492.285464 
L 687.676691 1488.834941 
L 693.114032 1485.384418 
L 701.270043 1480.208634 
L 702.629378 1449.153927 
L 706.707383 1433.626574 
L 708.066718 1428.450789 
L 712.144724 1423.275005 
L 724.37874 1419.824482 
L 725.738075 1416.373959 
L 728.456746 1412.923436 
L 729.816081 1409.472913 
L 743.409432 1406.02239 
L 751.565443 1400.846605 
L 752.924778 1395.670821 
L 759.721454 1392.220298 
L 762.440124 1385.319252 
L 805.938849 1378.418206 
L 810.016855 1371.51716 
L 811.37619 1366.341376 
L 814.09486 1357.715068 
L 879.342947 1354.264545 
L 897.014304 1350.814022 
L 902.451645 1347.363499 
L 936.435024 1343.912976 
L 940.513029 1340.462453 
L 950.028375 1337.01193 
L 982.652419 1333.561407 
L 993.5271 1330.110884 
L 1026.151144 1324.9351 
L 1032.94782 1319.759315 
L 1080.52455 1316.308792 
L 1084.602555 1312.858269 
L 1223.254741 1310.174529 
L 1225.973411 1307.107398 
L 1227.332746 1304.807049 
L 1232.770087 1301.356526 
L 1234.129422 1296.180742 
L 1243.644768 1290.084818 
L 1284.424823 1285.254086 
L 1338.798229 1281.803563 
L 1504.637117 1278.35304 
L 1573.96321 1274.902517 
L 1594.353237 1269.726732 
L 1641.929968 1259.375163 
L 1752.036115 1250.748856 
L 1870.298273 1247.298333 
L 1968.170404 1243.84781 
L 2139.446633 1241.547461 
L 2144.883974 1238.096938 
L 2259.068127 1234.646415 
L 2356.940258 1231.195892 
" clip-path="url(#p43b94d9280)" style="fill: none; stroke: #55a868; stroke-width: 1.5; stroke-linecap: round"/>
   </g>
   <g id="line2d_19">
    <path d="M 442.996364 1772.928 
L 478.339078 1770.627651 
L 494.651099 1767.177128 
L 498.729105 1764.87678 
L 504.166445 1761.426257 
L 512.322456 1757.975734 
L 519.119132 1754.525211 
L 523.197138 1751.074688 
L 525.915808 1747.624165 
L 531.353149 1744.173642 
L 532.712484 1740.723119 
L 534.071819 1737.272596 
L 546.305835 1730.37155 
L 547.66517 1723.470504 
L 549.024505 1715.523845 
L 550.383841 1703.91754 
L 551.743176 1693.565971 
L 554.461846 1686.664926 
L 558.539852 1683.214403 
L 559.899187 1679.76388 
L 563.977192 1671.137572 
L 568.055198 1662.511265 
L 574.851873 1659.060742 
L 663.208658 1655.610219 
L 664.567993 1643.878441 
L 751.565443 1634.907081 
L 752.924778 1631.456558 
L 765.158795 1628.006035 
L 769.2368 1622.83025 
L 770.596135 1615.929204 
L 771.95547 1610.75342 
L 777.392811 1607.302897 
L 778.752146 1602.127113 
L 872.546272 1595.226067 
L 873.905607 1590.050282 
L 875.264942 1586.599759 
L 886.139623 1583.149236 
L 888.858293 1579.698713 
L 914.685661 1576.24819 
L 918.763667 1572.797667 
L 929.638348 1569.347144 
L 936.435024 1565.896621 
L 947.309705 1560.720837 
L 948.66904 1555.545052 
L 950.028375 1552.094529 
L 951.38771 1548.644006 
L 1004.401781 1545.193483 
L 1007.120452 1541.74296 
L 1058.775187 1536.567176 
L 1061.493858 1531.391391 
L 1064.212528 1527.940868 
L 1084.602555 1524.490345 
L 1091.399231 1521.039823 
L 1094.117901 1514.138777 
L 1096.836572 1505.512469 
L 1098.195907 1500.336685 
L 1128.10128 1496.886162 
L 1133.538621 1489.985116 
L 1160.725324 1484.234244 
L 1162.084659 1481.933895 
L 1181.115351 1479.633547 
L 1183.834021 1476.183024 
L 1219.176735 1472.732501 
L 1243.644768 1469.281978 
L 1272.190806 1447.637788 
L 1273.550141 1411.234117 
L 1274.909477 1378.561978 
L 1276.268812 1348.553335 
L 1277.628147 1330.110884 
L 1303.455515 1326.660361 
L 1315.689531 1323.209838 
L 1322.486207 1316.308792 
L 1330.642218 1307.682485 
L 1379.578283 1302.5067 
L 1380.937618 1299.056177 
L 1409.483657 1295.605655 
L 1416.280332 1292.155132 
L 1417.639668 1288.704609 
L 1423.077008 1285.254086 
L 1465.216398 1281.803563 
L 1466.575733 1274.902517 
L 1469.294403 1268.001471 
L 1535.901826 1264.550948 
L 1703.100049 1255.92464 
L 1705.81872 1245.573071 
L 1707.178055 1236.946764 
L 1708.53739 1229.125578 
L 1715.334066 1224.294846 
L 1718.052736 1220.844323 
L 1787.378829 1217.3938 
L 1788.738164 1212.218016 
L 1791.456834 1203.591708 
L 1794.175505 1198.415924 
L 1803.690851 1193.240139 
L 1815.924867 1190.939791 
L 1998.075777 1187.489268 
L 2021.184475 1184.038745 
L 2025.26248 1180.588222 
L 2026.621816 1177.137699 
L 2146.243309 1173.687176 
L 2148.961979 1170.236653 
L 2187.023364 1166.78613 
L 2215.569402 1163.335607 
L 2223.725413 1159.885084 
L 2225.084748 1156.434561 
L 2233.240759 1152.984038 
L 2234.600094 1103.238998 
L 2235.959429 1060.682548 
" clip-path="url(#p43b94d9280)" style="fill: none; stroke: #c44e52; stroke-width: 1.5; stroke-linecap: round"/>
   </g>
   <g id="line2d_20"/>
   <g id="line2d_21"/>
   <g id="line2d_22"/>
   <g id="line2d_23"/>
   <g id="patch_3">
    <path d="M 345.6 1845.504 
L 345.6 248.832 
" style="fill: none; stroke: #cccccc; stroke-width: 1.25; stroke-linejoin: miter; stroke-linecap: square"/>
   </g>
   <g id="patch_4">
    <path d="M 345.6 1845.504 
L 2488.32 1845.504 
" style="fill: none; stroke: #cccccc; stroke-width: 1.25; stroke-linejoin: miter; stroke-linecap: square"/>
   </g>
   <g id="text_18">
    <!-- Bug Discovery History -->
    <g style="fill: #262626" transform="translate(1287.42156 242.832)scale(0.20736 -0.20736)">
     <defs>
      <path id="DejaVuSans-Bold-42" d="M 2456 2859 
Q 2741 2859 2887 2984 
Q 3034 3109 3034 3353 
Q 3034 3594 2887 3720 
Q 2741 3847 2456 3847 
L 1791 3847 
L 1791 2859 
L 2456 2859 
z
M 2497 819 
Q 2859 819 3042 972 
Q 3225 1125 3225 1434 
Q 3225 1738 3044 1889 
Q 2863 2041 2497 2041 
L 1791 2041 
L 1791 819 
L 2497 819 
z
M 3616 2497 
Q 4003 2384 4215 2081 
Q 4428 1778 4428 1338 
Q 4428 663 3972 331 
Q 3516 0 2584 0 
L 588 0 
L 588 4666 
L 2394 4666 
Q 3366 4666 3802 4372 
Q 4238 4078 4238 3431 
Q 4238 3091 4078 2852 
Q 3919 2613 3616 2497 
z
" transform="scale(0.015625)"/>
      <path id="DejaVuSans-Bold-75" d="M 500 1363 
L 500 3500 
L 1625 3500 
L 1625 3150 
Q 1625 2866 1622 2436 
Q 1619 2006 1619 1863 
Q 1619 1441 1641 1255 
Q 1663 1069 1716 984 
Q 1784 875 1895 815 
Q 2006 756 2150 756 
Q 2500 756 2700 1025 
Q 2900 1294 2900 1772 
L 2900 3500 
L 4019 3500 
L 4019 0 
L 2900 0 
L 2900 506 
Q 2647 200 2364 54 
Q 2081 -91 1741 -91 
Q 1134 -91 817 281 
Q 500 653 500 1363 
z
" transform="scale(0.015625)"/>
      <path id="DejaVuSans-Bold-67" d="M 2919 594 
Q 2688 288 2409 144 
Q 2131 0 1766 0 
Q 1125 0 706 504 
Q 288 1009 288 1791 
Q 288 2575 706 3076 
Q 1125 3578 1766 3578 
Q 2131 3578 2409 3434 
Q 2688 3291 2919 2981 
L 2919 3500 
L 4044 3500 
L 4044 353 
Q 4044 -491 3511 -936 
Q 2978 -1381 1966 -1381 
Q 1638 -1381 1331 -1331 
Q 1025 -1281 716 -1178 
L 716 -306 
Q 1009 -475 1290 -558 
Q 1572 -641 1856 -641 
Q 2406 -641 2662 -400 
Q 2919 -159 2919 353 
L 2919 594 
z
M 2181 2772 
Q 1834 2772 1640 2515 
Q 1447 2259 1447 1791 
Q 1447 1309 1634 1061 
Q 1822 813 2181 813 
Q 2531 813 2725 1069 
Q 2919 1325 2919 1791 
Q 2919 2259 2725 2515 
Q 2531 2772 2181 2772 
z
" transform="scale(0.015625)"/>
      <path id="DejaVuSans-Bold-20" transform="scale(0.015625)"/>
      <path id="DejaVuSans-Bold-44" d="M 1791 3756 
L 1791 909 
L 2222 909 
Q 2959 909 3348 1275 
Q 3738 1641 3738 2338 
Q 3738 3031 3350 3393 
Q 2963 3756 2222 3756 
L 1791 3756 
z
M 588 4666 
L 1856 4666 
Q 2919 4666 3439 4514 
Q 3959 4363 4331 4000 
Q 4659 3684 4818 3271 
Q 4978 2859 4978 2338 
Q 4978 1809 4818 1395 
Q 4659 981 4331 666 
Q 3956 303 3431 151 
Q 2906 0 1856 0 
L 588 0 
L 588 4666 
z
" transform="scale(0.015625)"/>
      <path id="DejaVuSans-Bold-69" d="M 538 3500 
L 1656 3500 
L 1656 0 
L 538 0 
L 538 3500 
z
M 538 4863 
L 1656 4863 
L 1656 3950 
L 538 3950 
L 538 4863 
z
" transform="scale(0.015625)"/>
      <path id="DejaVuSans-Bold-73" d="M 3272 3391 
L 3272 2541 
Q 2913 2691 2578 2766 
Q 2244 2841 1947 2841 
Q 1628 2841 1473 2761 
Q 1319 2681 1319 2516 
Q 1319 2381 1436 2309 
Q 1553 2238 1856 2203 
L 2053 2175 
Q 2913 2066 3209 1816 
Q 3506 1566 3506 1031 
Q 3506 472 3093 190 
Q 2681 -91 1863 -91 
Q 1516 -91 1145 -36 
Q 775 19 384 128 
L 384 978 
Q 719 816 1070 734 
Q 1422 653 1784 653 
Q 2113 653 2278 743 
Q 2444 834 2444 1013 
Q 2444 1163 2330 1236 
Q 2216 1309 1875 1350 
L 1678 1375 
Q 931 1469 631 1722 
Q 331 1975 331 2491 
Q 331 3047 712 3315 
Q 1094 3584 1881 3584 
Q 2191 3584 2531 3537 
Q 2872 3491 3272 3391 
z
" transform="scale(0.015625)"/>
      <path id="DejaVuSans-Bold-63" d="M 3366 3391 
L 3366 2478 
Q 3138 2634 2908 2709 
Q 2678 2784 2431 2784 
Q 1963 2784 1702 2511 
Q 1441 2238 1441 1747 
Q 1441 1256 1702 982 
Q 1963 709 2431 709 
Q 2694 709 2930 787 
Q 3166 866 3366 1019 
L 3366 103 
Q 3103 6 2833 -42 
Q 2563 -91 2291 -91 
Q 1344 -91 809 395 
Q 275 881 275 1747 
Q 275 2613 809 3098 
Q 1344 3584 2291 3584 
Q 2566 3584 2833 3536 
Q 3100 3488 3366 3391 
z
" transform="scale(0.015625)"/>
      <path id="DejaVuSans-Bold-6f" d="M 2203 2784 
Q 1831 2784 1636 2517 
Q 1441 2250 1441 1747 
Q 1441 1244 1636 976 
Q 1831 709 2203 709 
Q 2569 709 2762 976 
Q 2956 1244 2956 1747 
Q 2956 2250 2762 2517 
Q 2569 2784 2203 2784 
z
M 2203 3584 
Q 3106 3584 3614 3096 
Q 4122 2609 4122 1747 
Q 4122 884 3614 396 
Q 3106 -91 2203 -91 
Q 1297 -91 786 396 
Q 275 884 275 1747 
Q 275 2609 786 3096 
Q 1297 3584 2203 3584 
z
" transform="scale(0.015625)"/>
      <path id="DejaVuSans-Bold-76" d="M 97 3500 
L 1216 3500 
L 2088 1081 
L 2956 3500 
L 4078 3500 
L 2700 0 
L 1472 0 
L 97 3500 
z
" transform="scale(0.015625)"/>
      <path id="DejaVuSans-Bold-65" d="M 4031 1759 
L 4031 1441 
L 1416 1441 
Q 1456 1047 1700 850 
Q 1944 653 2381 653 
Q 2734 653 3104 758 
Q 3475 863 3866 1075 
L 3866 213 
Q 3469 63 3072 -14 
Q 2675 -91 2278 -91 
Q 1328 -91 801 392 
Q 275 875 275 1747 
Q 275 2603 792 3093 
Q 1309 3584 2216 3584 
Q 3041 3584 3536 3087 
Q 4031 2591 4031 1759 
z
M 2881 2131 
Q 2881 2450 2695 2645 
Q 2509 2841 2209 2841 
Q 1884 2841 1681 2658 
Q 1478 2475 1428 2131 
L 2881 2131 
z
" transform="scale(0.015625)"/>
      <path id="DejaVuSans-Bold-72" d="M 3138 2547 
Q 2991 2616 2845 2648 
Q 2700 2681 2553 2681 
Q 2122 2681 1889 2404 
Q 1656 2128 1656 1613 
L 1656 0 
L 538 0 
L 538 3500 
L 1656 3500 
L 1656 2925 
Q 1872 3269 2151 3426 
Q 2431 3584 2822 3584 
Q 2878 3584 2943 3579 
Q 3009 3575 3134 3559 
L 3138 2547 
z
" transform="scale(0.015625)"/>
      <path id="DejaVuSans-Bold-79" d="M 78 3500 
L 1197 3500 
L 2138 1125 
L 2938 3500 
L 4056 3500 
L 2584 -331 
Q 2363 -916 2067 -1148 
Q 1772 -1381 1288 -1381 
L 641 -1381 
L 641 -647 
L 991 -647 
Q 1275 -647 1404 -556 
Q 1534 -466 1606 -231 
L 1638 -134 
L 78 3500 
z
" transform="scale(0.015625)"/>
      <path id="DejaVuSans-Bold-48" d="M 588 4666 
L 1791 4666 
L 1791 2888 
L 3566 2888 
L 3566 4666 
L 4769 4666 
L 4769 0 
L 3566 0 
L 3566 1978 
L 1791 1978 
L 1791 0 
L 588 0 
L 588 4666 
z
" transform="scale(0.015625)"/>
      <path id="DejaVuSans-Bold-74" d="M 1759 4494 
L 1759 3500 
L 2913 3500 
L 2913 2700 
L 1759 2700 
L 1759 1216 
Q 1759 972 1856 886 
Q 1953 800 2241 800 
L 2816 800 
L 2816 0 
L 1856 0 
Q 1194 0 917 276 
Q 641 553 641 1216 
L 641 2700 
L 84 2700 
L 84 3500 
L 641 3500 
L 641 4494 
L 1759 4494 
z
" transform="scale(0.015625)"/>
     </defs>
     <use xlink:href="#DejaVuSans-Bold-42"/>
     <use xlink:href="#DejaVuSans-Bold-75" x="76.220703"/>
     <use xlink:href="#DejaVuSans-Bold-67" x="147.412109"/>
     <use xlink:href="#DejaVuSans-Bold-20" x="218.994141"/>
     <use xlink:href="#DejaVuSans-Bold-44" x="253.808594"/>
     <use xlink:href="#DejaVuSans-Bold-69" x="336.816406"/>
     <use xlink:href="#DejaVuSans-Bold-73" x="371.09375"/>
     <use xlink:href="#DejaVuSans-Bold-63" x="430.615234"/>
     <use xlink:href="#DejaVuSans-Bold-6f" x="489.892578"/>
     <use xlink:href="#DejaVuSans-Bold-76" x="558.59375"/>
     <use xlink:href="#DejaVuSans-Bold-65" x="623.779297"/>
     <use xlink:href="#DejaVuSans-Bold-72" x="691.601562"/>
     <use xlink:href="#DejaVuSans-Bold-79" x="740.917969"/>
     <use xlink:href="#DejaVuSans-Bold-20" x="806.103516"/>
     <use xlink:href="#DejaVuSans-Bold-48" x="840.917969"/>
     <use xlink:href="#DejaVuSans-Bold-69" x="924.609375"/>
     <use xlink:href="#DejaVuSans-Bold-73" x="958.886719"/>
     <use xlink:href="#DejaVuSans-Bold-74" x="1018.408203"/>
     <use xlink:href="#DejaVuSans-Bold-6f" x="1066.210938"/>
     <use xlink:href="#DejaVuSans-Bold-72" x="1134.912109"/>
     <use xlink:href="#DejaVuSans-Bold-79" x="1184.228516"/>
    </g>
   </g>
   <g id="legend_1">
    <g id="patch_5">
     <path d="M 353.3 339.3295 
L 499.71 339.3295 
Q 501.91 339.3295 501.91 337.1295 
L 501.91 256.532 
Q 501.91 254.332 499.71 254.332 
L 353.3 254.332 
Q 351.1 254.332 351.1 256.532 
L 351.1 337.1295 
Q 351.1 339.3295 353.3 339.3295 
z
" style="fill: #ffffff; opacity: 0.8; stroke: #cccccc; stroke-linejoin: miter"/>
    </g>
    <g id="text_19">
     <!-- fuzzer -->
     <g style="fill: #262626" transform="translate(408.13375 267.850125)scale(0.12 -0.12)">
      <defs>
       <path id="DejaVuSans-66" d="M 2375 4863 
L 2375 4384 
L 1825 4384 
Q 1516 4384 1395 4259 
Q 1275 4134 1275 3809 
L 1275 3500 
L 2222 3500 
L 2222 3053 
L 1275 3053 
L 1275 0 
L 697 0 
L 697 3053 
L 147 3053 
L 147 3500 
L 697 3500 
L 697 3744 
Q 697 4328 969 4595 
Q 1241 4863 1831 4863 
L 2375 4863 
z
" transform="scale(0.015625)"/>
       <path id="DejaVuSans-7a" d="M 353 3500 
L 3084 3500 
L 3084 2975 
L 922 459 
L 3084 459 
L 3084 0 
L 275 0 
L 275 525 
L 2438 3041 
L 353 3041 
L 353 3500 
z
" transform="scale(0.015625)"/>
      </defs>
      <use xlink:href="#DejaVuSans-66"/>
      <use xlink:href="#DejaVuSans-75" x="35.205078"/>
      <use xlink:href="#DejaVuSans-7a" x="98.583984"/>
      <use xlink:href="#DejaVuSans-7a" x="151.074219"/>
      <use xlink:href="#DejaVuSans-65" x="203.564453"/>
      <use xlink:href="#DejaVuSans-72" x="265.087891"/>
     </g>
    </g>
    <g id="line2d_24">
     <path d="M 355.5 280.354031 
L 366.5 280.354031 
L 377.5 280.354031 
" style="fill: none; stroke: #4c72b0; stroke-width: 1.5; stroke-linecap: round"/>
    </g>
    <g id="text_20">
     <!-- afl-0-exid22 -->
     <g style="fill: #262626" transform="translate(386.3 284.204031)scale(0.11 -0.11)">
      <defs>
       <path id="DejaVuSans-61" d="M 2194 1759 
Q 1497 1759 1228 1600 
Q 959 1441 959 1056 
Q 959 750 1161 570 
Q 1363 391 1709 391 
Q 2188 391 2477 730 
Q 2766 1069 2766 1631 
L 2766 1759 
L 2194 1759 
z
M 3341 1997 
L 3341 0 
L 2766 0 
L 2766 531 
Q 2569 213 2275 61 
Q 1981 -91 1556 -91 
Q 1019 -91 701 211 
Q 384 513 384 1019 
Q 384 1609 779 1909 
Q 1175 2209 1959 2209 
L 2766 2209 
L 2766 2266 
Q 2766 2663 2505 2880 
Q 2244 3097 1772 3097 
Q 1472 3097 1187 3025 
Q 903 2953 641 2809 
L 641 3341 
Q 956 3463 1253 3523 
Q 1550 3584 1831 3584 
Q 2591 3584 2966 3190 
Q 3341 2797 3341 1997 
z
" transform="scale(0.015625)"/>
       <path id="DejaVuSans-6c" d="M 603 4863 
L 1178 4863 
L 1178 0 
L 603 0 
L 603 4863 
z
" transform="scale(0.015625)"/>
       <path id="DejaVuSans-2d" d="M 313 2009 
L 1997 2009 
L 1997 1497 
L 313 1497 
L 313 2009 
z
" transform="scale(0.015625)"/>
       <path id="DejaVuSans-78" d="M 3513 3500 
L 2247 1797 
L 3578 0 
L 2900 0 
L 1881 1375 
L 863 0 
L 184 0 
L 1544 1831 
L 300 3500 
L 978 3500 
L 1906 2253 
L 2834 3500 
L 3513 3500 
z
" transform="scale(0.015625)"/>
       <path id="DejaVuSans-64" d="M 2906 2969 
L 2906 4863 
L 3481 4863 
L 3481 0 
L 2906 0 
L 2906 525 
Q 2725 213 2448 61 
Q 2172 -91 1784 -91 
Q 1150 -91 751 415 
Q 353 922 353 1747 
Q 353 2572 751 3078 
Q 1150 3584 1784 3584 
Q 2172 3584 2448 3432 
Q 2725 3281 2906 2969 
z
M 947 1747 
Q 947 1113 1208 752 
Q 1469 391 1925 391 
Q 2381 391 2643 752 
Q 2906 1113 2906 1747 
Q 2906 2381 2643 2742 
Q 2381 3103 1925 3103 
Q 1469 3103 1208 2742 
Q 947 2381 947 1747 
z
" transform="scale(0.015625)"/>
      </defs>
      <use xlink:href="#DejaVuSans-61"/>
      <use xlink:href="#DejaVuSans-66" x="61.279297"/>
      <use xlink:href="#DejaVuSans-6c" x="96.484375"/>
      <use xlink:href="#DejaVuSans-2d" x="124.267578"/>
      <use xlink:href="#DejaVuSans-30" x="160.351562"/>
      <use xlink:href="#DejaVuSans-2d" x="223.974609"/>
      <use xlink:href="#DejaVuSans-65" x="260.058594"/>
      <use xlink:href="#DejaVuSans-78" x="319.832031"/>
      <use xlink:href="#DejaVuSans-69" x="379.011719"/>
      <use xlink:href="#DejaVuSans-64" x="406.794922"/>
      <use xlink:href="#DejaVuSans-32" x="470.271484"/>
      <use xlink:href="#DejaVuSans-32" x="533.894531"/>
     </g>
    </g>
    <g id="line2d_25">
     <path d="M 355.5 296.499969 
L 366.5 296.499969 
L 377.5 296.499969 
" style="fill: none; stroke: #dd8452; stroke-width: 1.5; stroke-linecap: round"/>
    </g>
    <g id="text_21">
     <!-- fairfuzz-0-exid22 -->
     <g style="fill: #262626" transform="translate(386.3 300.349969)scale(0.11 -0.11)">
      <use xlink:href="#DejaVuSans-66"/>
      <use xlink:href="#DejaVuSans-61" x="35.205078"/>
      <use xlink:href="#DejaVuSans-69" x="96.484375"/>
      <use xlink:href="#DejaVuSans-72" x="124.267578"/>
      <use xlink:href="#DejaVuSans-66" x="165.380859"/>
      <use xlink:href="#DejaVuSans-75" x="200.585938"/>
      <use xlink:href="#DejaVuSans-7a" x="263.964844"/>
      <use xlink:href="#DejaVuSans-7a" x="316.455078"/>
      <use xlink:href="#DejaVuSans-2d" x="368.945312"/>
      <use xlink:href="#DejaVuSans-30" x="405.029297"/>
      <use xlink:href="#DejaVuSans-2d" x="468.652344"/>
      <use xlink:href="#DejaVuSans-65" x="504.736328"/>
      <use xlink:href="#DejaVuSans-78" x="564.509766"/>
      <use xlink:href="#DejaVuSans-69" x="623.689453"/>
      <use xlink:href="#DejaVuSans-64" x="651.472656"/>
      <use xlink:href="#DejaVuSans-32" x="714.949219"/>
      <use xlink:href="#DejaVuSans-32" x="778.572266"/>
     </g>
    </g>
    <g id="line2d_26">
     <path d="M 355.5 312.645906 
L 366.5 312.645906 
L 377.5 312.645906 
" style="fill: none; stroke: #55a868; stroke-width: 1.5; stroke-linecap: round"/>
    </g>
    <g id="text_22">
     <!-- aflfast-0-exid22 -->
     <g style="fill: #262626" transform="translate(386.3 316.495906)scale(0.11 -0.11)">
      <use xlink:href="#DejaVuSans-61"/>
      <use xlink:href="#DejaVuSans-66" x="61.279297"/>
      <use xlink:href="#DejaVuSans-6c" x="96.484375"/>
      <use xlink:href="#DejaVuSans-66" x="124.267578"/>
      <use xlink:href="#DejaVuSans-61" x="159.472656"/>
      <use xlink:href="#DejaVuSans-73" x="220.751953"/>
      <use xlink:href="#DejaVuSans-74" x="272.851562"/>
      <use xlink:href="#DejaVuSans-2d" x="312.060547"/>
      <use xlink:href="#DejaVuSans-30" x="348.144531"/>
      <use xlink:href="#DejaVuSans-2d" x="411.767578"/>
      <use xlink:href="#DejaVuSans-65" x="447.851562"/>
      <use xlink:href="#DejaVuSans-78" x="507.625"/>
      <use xlink:href="#DejaVuSans-69" x="566.804688"/>
      <use xlink:href="#DejaVuSans-64" x="594.587891"/>
      <use xlink:href="#DejaVuSans-32" x="658.064453"/>
      <use xlink:href="#DejaVuSans-32" x="721.6875"/>
     </g>
    </g>
    <g id="line2d_27">
     <path d="M 355.5 328.791844 
L 366.5 328.791844 
L 377.5 328.791844 
" style="fill: none; stroke: #c44e52; stroke-width: 1.5; stroke-linecap: round"/>
    </g>
    <g id="text_23">
     <!-- aflplusplus-0-exid22 -->
     <g style="fill: #262626" transform="translate(386.3 332.641844)scale(0.11 -0.11)">
      <defs>
       <path id="DejaVuSans-70" d="M 1159 525 
L 1159 -1331 
L 581 -1331 
L 581 3500 
L 1159 3500 
L 1159 2969 
Q 1341 3281 1617 3432 
Q 1894 3584 2278 3584 
Q 2916 3584 3314 3078 
Q 3713 2572 3713 1747 
Q 3713 922 3314 415 
Q 2916 -91 2278 -91 
Q 1894 -91 1617 61 
Q 1341 213 1159 525 
z
M 3116 1747 
Q 3116 2381 2855 2742 
Q 2594 3103 2138 3103 
Q 1681 3103 1420 2742 
Q 1159 2381 1159 1747 
Q 1159 1113 1420 752 
Q 1681 391 2138 391 
Q 2594 391 2855 752 
Q 3116 1113 3116 1747 
z
" transform="scale(0.015625)"/>
      </defs>
      <use xlink:href="#DejaVuSans-61"/>
      <use xlink:href="#DejaVuSans-66" x="61.279297"/>
      <use xlink:href="#DejaVuSans-6c" x="96.484375"/>
      <use xlink:href="#DejaVuSans-70" x="124.267578"/>
      <use xlink:href="#DejaVuSans-6c" x="187.744141"/>
      <use xlink:href="#DejaVuSans-75" x="215.527344"/>
      <use xlink:href="#DejaVuSans-73" x="278.90625"/>
      <use xlink:href="#DejaVuSans-70" x="331.005859"/>
      <use xlink:href="#DejaVuSans-6c" x="394.482422"/>
      <use xlink:href="#DejaVuSans-75" x="422.265625"/>
      <use xlink:href="#DejaVuSans-73" x="485.644531"/>
      <use xlink:href="#DejaVuSans-2d" x="537.744141"/>
      <use xlink:href="#DejaVuSans-30" x="573.828125"/>
      <use xlink:href="#DejaVuSans-2d" x="637.451172"/>
      <use xlink:href="#DejaVuSans-65" x="673.535156"/>
      <use xlink:href="#DejaVuSans-78" x="733.308594"/>
      <use xlink:href="#DejaVuSans-69" x="792.488281"/>
      <use xlink:href="#DejaVuSans-64" x="820.271484"/>
      <use xlink:href="#DejaVuSans-32" x="883.748047"/>
      <use xlink:href="#DejaVuSans-32" x="947.371094"/>
     </g>
    </g>
   </g>
  </g>
 </g>
 <defs>
  <clipPath id="p43b94d9280">
   <rect x="345.6" y="248.832" width="2142.72" height="1596.672"/>
  </clipPath>
 </defs>
</svg>
