<?xml version="1.0" encoding="utf-8" standalone="no"?>
<!DOCTYPE svg PUBLIC "-//W3C//DTD SVG 1.1//EN"
  "http://www.w3.org/Graphics/SVG/1.1/DTD/svg11.dtd">
<svg xmlns:xlink="http://www.w3.org/1999/xlink" width="434.7pt" height="576pt" viewBox="0 0 434.7 576" xmlns="http://www.w3.org/2000/svg" version="1.1">
 <metadata>
  <rdf:RDF xmlns:dc="http://purl.org/dc/elements/1.1/" xmlns:cc="http://creativecommons.org/ns#" xmlns:rdf="http://www.w3.org/1999/02/22-rdf-syntax-ns#">
   <cc:Work>
    <dc:type rdf:resource="http://purl.org/dc/dcmitype/StillImage"/>
    <dc:date>2022-09-15T08:49:52.281817</dc:date>
    <dc:format>image/svg+xml</dc:format>
    <dc:creator>
     <cc:Agent>
      <dc:title>Matplotlib v3.5.3, https://matplotlib.org/</dc:title>
     </cc:Agent>
    </dc:creator>
   </cc:Work>
  </rdf:RDF>
 </metadata>
 <defs>
  <style type="text/css">*{stroke-linejoin: round; stroke-linecap: butt}</style>
 </defs>
 <g id="figure_1">
  <g id="patch_1">
   <path d="M 0 576 
L 434.7 576 
L 434.7 0 
L 0 0 
z
" style="fill: #ffffff"/>
  </g>
  <g id="axes_1">
   <g id="patch_2">
    <path d="M 54.3375 512.64 
L 391.23 512.64 
L 391.23 69.12 
L 54.3375 69.12 
z
" style="fill: #ffffff"/>
   </g>
   <g id="matplotlib.axis_1">
    <g id="xtick_1">
     <g id="line2d_1">
      <path d="M 69.650795 512.64 
L 69.650795 69.12 
" clip-path="url(#p3b9d5c961b)" style="fill: none; stroke: #cccccc; stroke-width: 0.8; stroke-linecap: round"/>
     </g>
     <g id="text_1">
      <!-- 0 -->
      <g style="fill: #262626" transform="translate(69.388282 529.627249)rotate(-45)scale(0.088 -0.088)">
       <defs>
        <path id="DejaVuSans-30" d="M 2034 4250 
Q 1547 4250 1301 3770 
Q 1056 3291 1056 2328 
Q 1056 1369 1301 889 
Q 1547 409 2034 409 
Q 2525 409 2770 889 
Q 3016 1369 3016 2328 
Q 3016 3291 2770 3770 
Q 2525 4250 2034 4250 
z
M 2034 4750 
Q 2819 4750 3233 4129 
Q 3647 3509 3647 2328 
Q 3647 1150 3233 529 
Q 2819 -91 2034 -91 
Q 1250 -91 836 529 
Q 422 1150 422 2328 
Q 422 3509 836 4129 
Q 1250 4750 2034 4750 
z
" transform="scale(0.015625)"/>
       </defs>
       <use xlink:href="#DejaVuSans-30"/>
      </g>
     </g>
    </g>
    <g id="xtick_2">
     <g id="line2d_2">
      <path d="M 86.677392 512.64 
L 86.677392 69.12 
" clip-path="url(#p3b9d5c961b)" style="fill: none; stroke: #cccccc; stroke-width: 0.8; stroke-linecap: round"/>
     </g>
     <g id="text_2">
      <!-- 80 -->
      <g style="fill: #262626" transform="translate(84.435333 533.58634)rotate(-45)scale(0.088 -0.088)">
       <defs>
        <path id="DejaVuSans-38" d="M 2034 2216 
Q 1584 2216 1326 1975 
Q 1069 1734 1069 1313 
Q 1069 891 1326 650 
Q 1584 409 2034 409 
Q 2484 409 2743 651 
Q 3003 894 3003 1313 
Q 3003 1734 2745 1975 
Q 2488 2216 2034 2216 
z
M 1403 2484 
Q 997 2584 770 2862 
Q 544 3141 544 3541 
Q 544 4100 942 4425 
Q 1341 4750 2034 4750 
Q 2731 4750 3128 4425 
Q 3525 4100 3525 3541 
Q 3525 3141 3298 2862 
Q 3072 2584 2669 2484 
Q 3125 2378 3379 2068 
Q 3634 1759 3634 1313 
Q 3634 634 3220 271 
Q 2806 -91 2034 -91 
Q 1263 -91 848 271 
Q 434 634 434 1313 
Q 434 1759 690 2068 
Q 947 2378 1403 2484 
z
M 1172 3481 
Q 1172 3119 1398 2916 
Q 1625 2713 2034 2713 
Q 2441 2713 2670 2916 
Q 2900 3119 2900 3481 
Q 2900 3844 2670 4047 
Q 2441 4250 2034 4250 
Q 1625 4250 1398 4047 
Q 1172 3844 1172 3481 
z
" transform="scale(0.015625)"/>
       </defs>
       <use xlink:href="#DejaVuSans-38"/>
       <use xlink:href="#DejaVuSans-30" x="63.623047"/>
      </g>
     </g>
    </g>
    <g id="xtick_3">
     <g id="line2d_3">
      <path d="M 103.703989 512.64 
L 103.703989 69.12 
" clip-path="url(#p3b9d5c961b)" style="fill: none; stroke: #cccccc; stroke-width: 0.8; stroke-linecap: round"/>
     </g>
     <g id="text_3">
      <!-- 160 -->
      <g style="fill: #262626" transform="translate(99.482385 537.54543)rotate(-45)scale(0.088 -0.088)">
       <defs>
        <path id="DejaVuSans-31" d="M 794 531 
L 1825 531 
L 1825 4091 
L 703 3866 
L 703 4441 
L 1819 4666 
L 2450 4666 
L 2450 531 
L 3481 531 
L 3481 0 
L 794 0 
L 794 531 
z
" transform="scale(0.015625)"/>
        <path id="DejaVuSans-36" d="M 2113 2584 
Q 1688 2584 1439 2293 
Q 1191 2003 1191 1497 
Q 1191 994 1439 701 
Q 1688 409 2113 409 
Q 2538 409 2786 701 
Q 3034 994 3034 1497 
Q 3034 2003 2786 2293 
Q 2538 2584 2113 2584 
z
M 3366 4563 
L 3366 3988 
Q 3128 4100 2886 4159 
Q 2644 4219 2406 4219 
Q 1781 4219 1451 3797 
Q 1122 3375 1075 2522 
Q 1259 2794 1537 2939 
Q 1816 3084 2150 3084 
Q 2853 3084 3261 2657 
Q 3669 2231 3669 1497 
Q 3669 778 3244 343 
Q 2819 -91 2113 -91 
Q 1303 -91 875 529 
Q 447 1150 447 2328 
Q 447 3434 972 4092 
Q 1497 4750 2381 4750 
Q 2619 4750 2861 4703 
Q 3103 4656 3366 4563 
z
" transform="scale(0.015625)"/>
       </defs>
       <use xlink:href="#DejaVuSans-31"/>
       <use xlink:href="#DejaVuSans-36" x="63.623047"/>
       <use xlink:href="#DejaVuSans-30" x="127.246094"/>
      </g>
     </g>
    </g>
    <g id="xtick_4">
     <g id="line2d_4">
      <path d="M 120.730586 512.64 
L 120.730586 69.12 
" clip-path="url(#p3b9d5c961b)" style="fill: none; stroke: #cccccc; stroke-width: 0.8; stroke-linecap: round"/>
     </g>
     <g id="text_4">
      <!-- 240 -->
      <g style="fill: #262626" transform="translate(116.508981 537.54543)rotate(-45)scale(0.088 -0.088)">
       <defs>
        <path id="DejaVuSans-32" d="M 1228 531 
L 3431 531 
L 3431 0 
L 469 0 
L 469 531 
Q 828 903 1448 1529 
Q 2069 2156 2228 2338 
Q 2531 2678 2651 2914 
Q 2772 3150 2772 3378 
Q 2772 3750 2511 3984 
Q 2250 4219 1831 4219 
Q 1534 4219 1204 4116 
Q 875 4013 500 3803 
L 500 4441 
Q 881 4594 1212 4672 
Q 1544 4750 1819 4750 
Q 2544 4750 2975 4387 
Q 3406 4025 3406 3419 
Q 3406 3131 3298 2873 
Q 3191 2616 2906 2266 
Q 2828 2175 2409 1742 
Q 1991 1309 1228 531 
z
" transform="scale(0.015625)"/>
        <path id="DejaVuSans-34" d="M 2419 4116 
L 825 1625 
L 2419 1625 
L 2419 4116 
z
M 2253 4666 
L 3047 4666 
L 3047 1625 
L 3713 1625 
L 3713 1100 
L 3047 1100 
L 3047 0 
L 2419 0 
L 2419 1100 
L 313 1100 
L 313 1709 
L 2253 4666 
z
" transform="scale(0.015625)"/>
       </defs>
       <use xlink:href="#DejaVuSans-32"/>
       <use xlink:href="#DejaVuSans-34" x="63.623047"/>
       <use xlink:href="#DejaVuSans-30" x="127.246094"/>
      </g>
     </g>
    </g>
    <g id="xtick_5">
     <g id="line2d_5">
      <path d="M 137.757182 512.64 
L 137.757182 69.12 
" clip-path="url(#p3b9d5c961b)" style="fill: none; stroke: #cccccc; stroke-width: 0.8; stroke-linecap: round"/>
     </g>
     <g id="text_5">
      <!-- 320 -->
      <g style="fill: #262626" transform="translate(133.535578 537.54543)rotate(-45)scale(0.088 -0.088)">
       <defs>
        <path id="DejaVuSans-33" d="M 2597 2516 
Q 3050 2419 3304 2112 
Q 3559 1806 3559 1356 
Q 3559 666 3084 287 
Q 2609 -91 1734 -91 
Q 1441 -91 1130 -33 
Q 819 25 488 141 
L 488 750 
Q 750 597 1062 519 
Q 1375 441 1716 441 
Q 2309 441 2620 675 
Q 2931 909 2931 1356 
Q 2931 1769 2642 2001 
Q 2353 2234 1838 2234 
L 1294 2234 
L 1294 2753 
L 1863 2753 
Q 2328 2753 2575 2939 
Q 2822 3125 2822 3475 
Q 2822 3834 2567 4026 
Q 2313 4219 1838 4219 
Q 1578 4219 1281 4162 
Q 984 4106 628 3988 
L 628 4550 
Q 988 4650 1302 4700 
Q 1616 4750 1894 4750 
Q 2613 4750 3031 4423 
Q 3450 4097 3450 3541 
Q 3450 3153 3228 2886 
Q 3006 2619 2597 2516 
z
" transform="scale(0.015625)"/>
       </defs>
       <use xlink:href="#DejaVuSans-33"/>
       <use xlink:href="#DejaVuSans-32" x="63.623047"/>
       <use xlink:href="#DejaVuSans-30" x="127.246094"/>
      </g>
     </g>
    </g>
    <g id="xtick_6">
     <g id="line2d_6">
      <path d="M 154.783779 512.64 
L 154.783779 69.12 
" clip-path="url(#p3b9d5c961b)" style="fill: none; stroke: #cccccc; stroke-width: 0.8; stroke-linecap: round"/>
     </g>
     <g id="text_6">
      <!-- 400 -->
      <g style="fill: #262626" transform="translate(150.562175 537.54543)rotate(-45)scale(0.088 -0.088)">
       <use xlink:href="#DejaVuSans-34"/>
       <use xlink:href="#DejaVuSans-30" x="63.623047"/>
       <use xlink:href="#DejaVuSans-30" x="127.246094"/>
      </g>
     </g>
    </g>
    <g id="xtick_7">
     <g id="line2d_7">
      <path d="M 171.810376 512.64 
L 171.810376 69.12 
" clip-path="url(#p3b9d5c961b)" style="fill: none; stroke: #cccccc; stroke-width: 0.8; stroke-linecap: round"/>
     </g>
     <g id="text_7">
      <!-- 480 -->
      <g style="fill: #262626" transform="translate(167.588772 537.54543)rotate(-45)scale(0.088 -0.088)">
       <use xlink:href="#DejaVuSans-34"/>
       <use xlink:href="#DejaVuSans-38" x="63.623047"/>
       <use xlink:href="#DejaVuSans-30" x="127.246094"/>
      </g>
     </g>
    </g>
    <g id="xtick_8">
     <g id="line2d_8">
      <path d="M 188.836973 512.64 
L 188.836973 69.12 
" clip-path="url(#p3b9d5c961b)" style="fill: none; stroke: #cccccc; stroke-width: 0.8; stroke-linecap: round"/>
     </g>
     <g id="text_8">
      <!-- 560 -->
      <g style="fill: #262626" transform="translate(184.615368 537.54543)rotate(-45)scale(0.088 -0.088)">
       <defs>
        <path id="DejaVuSans-35" d="M 691 4666 
L 3169 4666 
L 3169 4134 
L 1269 4134 
L 1269 2991 
Q 1406 3038 1543 3061 
Q 1681 3084 1819 3084 
Q 2600 3084 3056 2656 
Q 3513 2228 3513 1497 
Q 3513 744 3044 326 
Q 2575 -91 1722 -91 
Q 1428 -91 1123 -41 
Q 819 9 494 109 
L 494 744 
Q 775 591 1075 516 
Q 1375 441 1709 441 
Q 2250 441 2565 725 
Q 2881 1009 2881 1497 
Q 2881 1984 2565 2268 
Q 2250 2553 1709 2553 
Q 1456 2553 1204 2497 
Q 953 2441 691 2322 
L 691 4666 
z
" transform="scale(0.015625)"/>
       </defs>
       <use xlink:href="#DejaVuSans-35"/>
       <use xlink:href="#DejaVuSans-36" x="63.623047"/>
       <use xlink:href="#DejaVuSans-30" x="127.246094"/>
      </g>
     </g>
    </g>
    <g id="xtick_9">
     <g id="line2d_9">
      <path d="M 205.863569 512.64 
L 205.863569 69.12 
" clip-path="url(#p3b9d5c961b)" style="fill: none; stroke: #cccccc; stroke-width: 0.8; stroke-linecap: round"/>
     </g>
     <g id="text_9">
      <!-- 640 -->
      <g style="fill: #262626" transform="translate(201.641965 537.54543)rotate(-45)scale(0.088 -0.088)">
       <use xlink:href="#DejaVuSans-36"/>
       <use xlink:href="#DejaVuSans-34" x="63.623047"/>
       <use xlink:href="#DejaVuSans-30" x="127.246094"/>
      </g>
     </g>
    </g>
    <g id="xtick_10">
     <g id="line2d_10">
      <path d="M 222.890166 512.64 
L 222.890166 69.12 
" clip-path="url(#p3b9d5c961b)" style="fill: none; stroke: #cccccc; stroke-width: 0.8; stroke-linecap: round"/>
     </g>
     <g id="text_10">
      <!-- 720 -->
      <g style="fill: #262626" transform="translate(218.668562 537.54543)rotate(-45)scale(0.088 -0.088)">
       <defs>
        <path id="DejaVuSans-37" d="M 525 4666 
L 3525 4666 
L 3525 4397 
L 1831 0 
L 1172 0 
L 2766 4134 
L 525 4134 
L 525 4666 
z
" transform="scale(0.015625)"/>
       </defs>
       <use xlink:href="#DejaVuSans-37"/>
       <use xlink:href="#DejaVuSans-32" x="63.623047"/>
       <use xlink:href="#DejaVuSans-30" x="127.246094"/>
      </g>
     </g>
    </g>
    <g id="xtick_11">
     <g id="line2d_11">
      <path d="M 239.916763 512.64 
L 239.916763 69.12 
" clip-path="url(#p3b9d5c961b)" style="fill: none; stroke: #cccccc; stroke-width: 0.8; stroke-linecap: round"/>
     </g>
     <g id="text_11">
      <!-- 800 -->
      <g style="fill: #262626" transform="translate(235.695159 537.54543)rotate(-45)scale(0.088 -0.088)">
       <use xlink:href="#DejaVuSans-38"/>
       <use xlink:href="#DejaVuSans-30" x="63.623047"/>
       <use xlink:href="#DejaVuSans-30" x="127.246094"/>
      </g>
     </g>
    </g>
    <g id="xtick_12">
     <g id="line2d_12">
      <path d="M 256.94336 512.64 
L 256.94336 69.12 
" clip-path="url(#p3b9d5c961b)" style="fill: none; stroke: #cccccc; stroke-width: 0.8; stroke-linecap: round"/>
     </g>
     <g id="text_12">
      <!-- 880 -->
      <g style="fill: #262626" transform="translate(252.721755 537.54543)rotate(-45)scale(0.088 -0.088)">
       <use xlink:href="#DejaVuSans-38"/>
       <use xlink:href="#DejaVuSans-38" x="63.623047"/>
       <use xlink:href="#DejaVuSans-30" x="127.246094"/>
      </g>
     </g>
    </g>
    <g id="xtick_13">
     <g id="line2d_13">
      <path d="M 273.969956 512.64 
L 273.969956 69.12 
" clip-path="url(#p3b9d5c961b)" style="fill: none; stroke: #cccccc; stroke-width: 0.8; stroke-linecap: round"/>
     </g>
     <g id="text_13">
      <!-- 960 -->
      <g style="fill: #262626" transform="translate(269.748352 537.54543)rotate(-45)scale(0.088 -0.088)">
       <defs>
        <path id="DejaVuSans-39" d="M 703 97 
L 703 672 
Q 941 559 1184 500 
Q 1428 441 1663 441 
Q 2288 441 2617 861 
Q 2947 1281 2994 2138 
Q 2813 1869 2534 1725 
Q 2256 1581 1919 1581 
Q 1219 1581 811 2004 
Q 403 2428 403 3163 
Q 403 3881 828 4315 
Q 1253 4750 1959 4750 
Q 2769 4750 3195 4129 
Q 3622 3509 3622 2328 
Q 3622 1225 3098 567 
Q 2575 -91 1691 -91 
Q 1453 -91 1209 -44 
Q 966 3 703 97 
z
M 1959 2075 
Q 2384 2075 2632 2365 
Q 2881 2656 2881 3163 
Q 2881 3666 2632 3958 
Q 2384 4250 1959 4250 
Q 1534 4250 1286 3958 
Q 1038 3666 1038 3163 
Q 1038 2656 1286 2365 
Q 1534 2075 1959 2075 
z
" transform="scale(0.015625)"/>
       </defs>
       <use xlink:href="#DejaVuSans-39"/>
       <use xlink:href="#DejaVuSans-36" x="63.623047"/>
       <use xlink:href="#DejaVuSans-30" x="127.246094"/>
      </g>
     </g>
    </g>
    <g id="xtick_14">
     <g id="line2d_14">
      <path d="M 290.996553 512.64 
L 290.996553 69.12 
" clip-path="url(#p3b9d5c961b)" style="fill: none; stroke: #cccccc; stroke-width: 0.8; stroke-linecap: round"/>
     </g>
     <g id="text_14">
      <!-- 1040 -->
      <g style="fill: #262626" transform="translate(284.795404 541.504521)rotate(-45)scale(0.088 -0.088)">
       <use xlink:href="#DejaVuSans-31"/>
       <use xlink:href="#DejaVuSans-30" x="63.623047"/>
       <use xlink:href="#DejaVuSans-34" x="127.246094"/>
       <use xlink:href="#DejaVuSans-30" x="190.869141"/>
      </g>
     </g>
    </g>
    <g id="xtick_15">
     <g id="line2d_15">
      <path d="M 308.02315 512.64 
L 308.02315 69.12 
" clip-path="url(#p3b9d5c961b)" style="fill: none; stroke: #cccccc; stroke-width: 0.8; stroke-linecap: round"/>
     </g>
     <g id="text_15">
      <!-- 1120 -->
      <g style="fill: #262626" transform="translate(301.822 541.504521)rotate(-45)scale(0.088 -0.088)">
       <use xlink:href="#DejaVuSans-31"/>
       <use xlink:href="#DejaVuSans-31" x="63.623047"/>
       <use xlink:href="#DejaVuSans-32" x="127.246094"/>
       <use xlink:href="#DejaVuSans-30" x="190.869141"/>
      </g>
     </g>
    </g>
    <g id="xtick_16">
     <g id="line2d_16">
      <path d="M 325.049747 512.64 
L 325.049747 69.12 
" clip-path="url(#p3b9d5c961b)" style="fill: none; stroke: #cccccc; stroke-width: 0.8; stroke-linecap: round"/>
     </g>
     <g id="text_16">
      <!-- 1200 -->
      <g style="fill: #262626" transform="translate(318.848597 541.504521)rotate(-45)scale(0.088 -0.088)">
       <use xlink:href="#DejaVuSans-31"/>
       <use xlink:href="#DejaVuSans-32" x="63.623047"/>
       <use xlink:href="#DejaVuSans-30" x="127.246094"/>
       <use xlink:href="#DejaVuSans-30" x="190.869141"/>
      </g>
     </g>
    </g>
    <g id="xtick_17">
     <g id="line2d_17">
      <path d="M 342.076343 512.64 
L 342.076343 69.12 
" clip-path="url(#p3b9d5c961b)" style="fill: none; stroke: #cccccc; stroke-width: 0.8; stroke-linecap: round"/>
     </g>
     <g id="text_17">
      <!-- 1280 -->
      <g style="fill: #262626" transform="translate(335.875194 541.504521)rotate(-45)scale(0.088 -0.088)">
       <use xlink:href="#DejaVuSans-31"/>
       <use xlink:href="#DejaVuSans-32" x="63.623047"/>
       <use xlink:href="#DejaVuSans-38" x="127.246094"/>
       <use xlink:href="#DejaVuSans-30" x="190.869141"/>
      </g>
     </g>
    </g>
    <g id="xtick_18">
     <g id="line2d_18">
      <path d="M 359.10294 512.64 
L 359.10294 69.12 
" clip-path="url(#p3b9d5c961b)" style="fill: none; stroke: #cccccc; stroke-width: 0.8; stroke-linecap: round"/>
     </g>
     <g id="text_18">
      <!-- 1360 -->
      <g style="fill: #262626" transform="translate(352.901791 541.504521)rotate(-45)scale(0.088 -0.088)">
       <use xlink:href="#DejaVuSans-31"/>
       <use xlink:href="#DejaVuSans-33" x="63.623047"/>
       <use xlink:href="#DejaVuSans-36" x="127.246094"/>
       <use xlink:href="#DejaVuSans-30" x="190.869141"/>
      </g>
     </g>
    </g>
    <g id="xtick_19">
     <g id="line2d_19">
      <path d="M 376.129537 512.64 
L 376.129537 69.12 
" clip-path="url(#p3b9d5c961b)" style="fill: none; stroke: #cccccc; stroke-width: 0.8; stroke-linecap: round"/>
     </g>
     <g id="text_19">
      <!-- 1440 -->
      <g style="fill: #262626" transform="translate(369.928387 541.504521)rotate(-45)scale(0.088 -0.088)">
       <use xlink:href="#DejaVuSans-31"/>
       <use xlink:href="#DejaVuSans-34" x="63.623047"/>
       <use xlink:href="#DejaVuSans-34" x="127.246094"/>
       <use xlink:href="#DejaVuSans-30" x="190.869141"/>
      </g>
     </g>
    </g>
    <g id="text_20">
     <!-- Time (Minutes) -->
     <g style="fill: #262626" transform="translate(186.87375 554.093115)scale(0.096 -0.096)">
      <defs>
       <path id="DejaVuSans-54" d="M -19 4666 
L 3928 4666 
L 3928 4134 
L 2272 4134 
L 2272 0 
L 1638 0 
L 1638 4134 
L -19 4134 
L -19 4666 
z
" transform="scale(0.015625)"/>
       <path id="DejaVuSans-69" d="M 603 3500 
L 1178 3500 
L 1178 0 
L 603 0 
L 603 3500 
z
M 603 4863 
L 1178 4863 
L 1178 4134 
L 603 4134 
L 603 4863 
z
" transform="scale(0.015625)"/>
       <path id="DejaVuSans-6d" d="M 3328 2828 
Q 3544 3216 3844 3400 
Q 4144 3584 4550 3584 
Q 5097 3584 5394 3201 
Q 5691 2819 5691 2113 
L 5691 0 
L 5113 0 
L 5113 2094 
Q 5113 2597 4934 2840 
Q 4756 3084 4391 3084 
Q 3944 3084 3684 2787 
Q 3425 2491 3425 1978 
L 3425 0 
L 2847 0 
L 2847 2094 
Q 2847 2600 2669 2842 
Q 2491 3084 2119 3084 
Q 1678 3084 1418 2786 
Q 1159 2488 1159 1978 
L 1159 0 
L 581 0 
L 581 3500 
L 1159 3500 
L 1159 2956 
Q 1356 3278 1631 3431 
Q 1906 3584 2284 3584 
Q 2666 3584 2933 3390 
Q 3200 3197 3328 2828 
z
" transform="scale(0.015625)"/>
       <path id="DejaVuSans-65" d="M 3597 1894 
L 3597 1613 
L 953 1613 
Q 991 1019 1311 708 
Q 1631 397 2203 397 
Q 2534 397 2845 478 
Q 3156 559 3463 722 
L 3463 178 
Q 3153 47 2828 -22 
Q 2503 -91 2169 -91 
Q 1331 -91 842 396 
Q 353 884 353 1716 
Q 353 2575 817 3079 
Q 1281 3584 2069 3584 
Q 2775 3584 3186 3129 
Q 3597 2675 3597 1894 
z
M 3022 2063 
Q 3016 2534 2758 2815 
Q 2500 3097 2075 3097 
Q 1594 3097 1305 2825 
Q 1016 2553 972 2059 
L 3022 2063 
z
" transform="scale(0.015625)"/>
       <path id="DejaVuSans-20" transform="scale(0.015625)"/>
       <path id="DejaVuSans-28" d="M 1984 4856 
Q 1566 4138 1362 3434 
Q 1159 2731 1159 2009 
Q 1159 1288 1364 580 
Q 1569 -128 1984 -844 
L 1484 -844 
Q 1016 -109 783 600 
Q 550 1309 550 2009 
Q 550 2706 781 3412 
Q 1013 4119 1484 4856 
L 1984 4856 
z
" transform="scale(0.015625)"/>
       <path id="DejaVuSans-4d" d="M 628 4666 
L 1569 4666 
L 2759 1491 
L 3956 4666 
L 4897 4666 
L 4897 0 
L 4281 0 
L 4281 4097 
L 3078 897 
L 2444 897 
L 1241 4097 
L 1241 0 
L 628 0 
L 628 4666 
z
" transform="scale(0.015625)"/>
       <path id="DejaVuSans-6e" d="M 3513 2113 
L 3513 0 
L 2938 0 
L 2938 2094 
Q 2938 2591 2744 2837 
Q 2550 3084 2163 3084 
Q 1697 3084 1428 2787 
Q 1159 2491 1159 1978 
L 1159 0 
L 581 0 
L 581 3500 
L 1159 3500 
L 1159 2956 
Q 1366 3272 1645 3428 
Q 1925 3584 2291 3584 
Q 2894 3584 3203 3211 
Q 3513 2838 3513 2113 
z
" transform="scale(0.015625)"/>
       <path id="DejaVuSans-75" d="M 544 1381 
L 544 3500 
L 1119 3500 
L 1119 1403 
Q 1119 906 1312 657 
Q 1506 409 1894 409 
Q 2359 409 2629 706 
Q 2900 1003 2900 1516 
L 2900 3500 
L 3475 3500 
L 3475 0 
L 2900 0 
L 2900 538 
Q 2691 219 2414 64 
Q 2138 -91 1772 -91 
Q 1169 -91 856 284 
Q 544 659 544 1381 
z
M 1991 3584 
L 1991 3584 
z
" transform="scale(0.015625)"/>
       <path id="DejaVuSans-74" d="M 1172 4494 
L 1172 3500 
L 2356 3500 
L 2356 3053 
L 1172 3053 
L 1172 1153 
Q 1172 725 1289 603 
Q 1406 481 1766 481 
L 2356 481 
L 2356 0 
L 1766 0 
Q 1100 0 847 248 
Q 594 497 594 1153 
L 594 3053 
L 172 3053 
L 172 3500 
L 594 3500 
L 594 4494 
L 1172 4494 
z
" transform="scale(0.015625)"/>
       <path id="DejaVuSans-73" d="M 2834 3397 
L 2834 2853 
Q 2591 2978 2328 3040 
Q 2066 3103 1784 3103 
Q 1356 3103 1142 2972 
Q 928 2841 928 2578 
Q 928 2378 1081 2264 
Q 1234 2150 1697 2047 
L 1894 2003 
Q 2506 1872 2764 1633 
Q 3022 1394 3022 966 
Q 3022 478 2636 193 
Q 2250 -91 1575 -91 
Q 1294 -91 989 -36 
Q 684 19 347 128 
L 347 722 
Q 666 556 975 473 
Q 1284 391 1588 391 
Q 1994 391 2212 530 
Q 2431 669 2431 922 
Q 2431 1156 2273 1281 
Q 2116 1406 1581 1522 
L 1381 1569 
Q 847 1681 609 1914 
Q 372 2147 372 2553 
Q 372 3047 722 3315 
Q 1072 3584 1716 3584 
Q 2034 3584 2315 3537 
Q 2597 3491 2834 3397 
z
" transform="scale(0.015625)"/>
       <path id="DejaVuSans-29" d="M 513 4856 
L 1013 4856 
Q 1481 4119 1714 3412 
Q 1947 2706 1947 2009 
Q 1947 1309 1714 600 
Q 1481 -109 1013 -844 
L 513 -844 
Q 928 -128 1133 580 
Q 1338 1288 1338 2009 
Q 1338 2731 1133 3434 
Q 928 4138 513 4856 
z
" transform="scale(0.015625)"/>
      </defs>
      <use xlink:href="#DejaVuSans-54"/>
      <use xlink:href="#DejaVuSans-69" x="57.958984"/>
      <use xlink:href="#DejaVuSans-6d" x="85.742188"/>
      <use xlink:href="#DejaVuSans-65" x="183.154297"/>
      <use xlink:href="#DejaVuSans-20" x="244.677734"/>
      <use xlink:href="#DejaVuSans-28" x="276.464844"/>
      <use xlink:href="#DejaVuSans-4d" x="315.478516"/>
      <use xlink:href="#DejaVuSans-69" x="401.757812"/>
      <use xlink:href="#DejaVuSans-6e" x="429.541016"/>
      <use xlink:href="#DejaVuSans-75" x="492.919922"/>
      <use xlink:href="#DejaVuSans-74" x="556.298828"/>
      <use xlink:href="#DejaVuSans-65" x="595.507812"/>
      <use xlink:href="#DejaVuSans-73" x="657.03125"/>
      <use xlink:href="#DejaVuSans-29" x="709.130859"/>
     </g>
    </g>
   </g>
   <g id="matplotlib.axis_2">
    <g id="ytick_1">
     <g id="line2d_20">
      <path d="M 54.3375 492.48 
L 391.23 492.48 
" clip-path="url(#p3b9d5c961b)" style="fill: none; stroke: #cccccc; stroke-width: 0.8; stroke-linecap: round"/>
     </g>
     <g id="text_21">
      <!-- 0 -->
      <g style="fill: #262626" transform="translate(40.4385 495.823312)scale(0.088 -0.088)">
       <use xlink:href="#DejaVuSans-30"/>
      </g>
     </g>
    </g>
    <g id="ytick_2">
     <g id="line2d_21">
      <path d="M 54.3375 469.917045 
L 391.23 469.917045 
" clip-path="url(#p3b9d5c961b)" style="fill: none; stroke: #cccccc; stroke-width: 0.8; stroke-linecap: round"/>
     </g>
     <g id="text_22">
      <!-- 100 -->
      <g style="fill: #262626" transform="translate(29.2405 473.260358)scale(0.088 -0.088)">
       <use xlink:href="#DejaVuSans-31"/>
       <use xlink:href="#DejaVuSans-30" x="63.623047"/>
       <use xlink:href="#DejaVuSans-30" x="127.246094"/>
      </g>
     </g>
    </g>
    <g id="ytick_3">
     <g id="line2d_22">
      <path d="M 54.3375 447.354091 
L 391.23 447.354091 
" clip-path="url(#p3b9d5c961b)" style="fill: none; stroke: #cccccc; stroke-width: 0.8; stroke-linecap: round"/>
     </g>
     <g id="text_23">
      <!-- 200 -->
      <g style="fill: #262626" transform="translate(29.2405 450.697403)scale(0.088 -0.088)">
       <use xlink:href="#DejaVuSans-32"/>
       <use xlink:href="#DejaVuSans-30" x="63.623047"/>
       <use xlink:href="#DejaVuSans-30" x="127.246094"/>
      </g>
     </g>
    </g>
    <g id="ytick_4">
     <g id="line2d_23">
      <path d="M 54.3375 424.791136 
L 391.23 424.791136 
" clip-path="url(#p3b9d5c961b)" style="fill: none; stroke: #cccccc; stroke-width: 0.8; stroke-linecap: round"/>
     </g>
     <g id="text_24">
      <!-- 300 -->
      <g style="fill: #262626" transform="translate(29.2405 428.134448)scale(0.088 -0.088)">
       <use xlink:href="#DejaVuSans-33"/>
       <use xlink:href="#DejaVuSans-30" x="63.623047"/>
       <use xlink:href="#DejaVuSans-30" x="127.246094"/>
      </g>
     </g>
    </g>
    <g id="ytick_5">
     <g id="line2d_24">
      <path d="M 54.3375 402.228181 
L 391.23 402.228181 
" clip-path="url(#p3b9d5c961b)" style="fill: none; stroke: #cccccc; stroke-width: 0.8; stroke-linecap: round"/>
     </g>
     <g id="text_25">
      <!-- 400 -->
      <g style="fill: #262626" transform="translate(29.2405 405.571494)scale(0.088 -0.088)">
       <use xlink:href="#DejaVuSans-34"/>
       <use xlink:href="#DejaVuSans-30" x="63.623047"/>
       <use xlink:href="#DejaVuSans-30" x="127.246094"/>
      </g>
     </g>
    </g>
    <g id="ytick_6">
     <g id="line2d_25">
      <path d="M 54.3375 379.665227 
L 391.23 379.665227 
" clip-path="url(#p3b9d5c961b)" style="fill: none; stroke: #cccccc; stroke-width: 0.8; stroke-linecap: round"/>
     </g>
     <g id="text_26">
      <!-- 500 -->
      <g style="fill: #262626" transform="translate(29.2405 383.008539)scale(0.088 -0.088)">
       <use xlink:href="#DejaVuSans-35"/>
       <use xlink:href="#DejaVuSans-30" x="63.623047"/>
       <use xlink:href="#DejaVuSans-30" x="127.246094"/>
      </g>
     </g>
    </g>
    <g id="ytick_7">
     <g id="line2d_26">
      <path d="M 54.3375 357.102272 
L 391.23 357.102272 
" clip-path="url(#p3b9d5c961b)" style="fill: none; stroke: #cccccc; stroke-width: 0.8; stroke-linecap: round"/>
     </g>
     <g id="text_27">
      <!-- 600 -->
      <g style="fill: #262626" transform="translate(29.2405 360.445584)scale(0.088 -0.088)">
       <use xlink:href="#DejaVuSans-36"/>
       <use xlink:href="#DejaVuSans-30" x="63.623047"/>
       <use xlink:href="#DejaVuSans-30" x="127.246094"/>
      </g>
     </g>
    </g>
    <g id="ytick_8">
     <g id="line2d_27">
      <path d="M 54.3375 334.539317 
L 391.23 334.539317 
" clip-path="url(#p3b9d5c961b)" style="fill: none; stroke: #cccccc; stroke-width: 0.8; stroke-linecap: round"/>
     </g>
     <g id="text_28">
      <!-- 700 -->
      <g style="fill: #262626" transform="translate(29.2405 337.88263)scale(0.088 -0.088)">
       <use xlink:href="#DejaVuSans-37"/>
       <use xlink:href="#DejaVuSans-30" x="63.623047"/>
       <use xlink:href="#DejaVuSans-30" x="127.246094"/>
      </g>
     </g>
    </g>
    <g id="ytick_9">
     <g id="line2d_28">
      <path d="M 54.3375 311.976363 
L 391.23 311.976363 
" clip-path="url(#p3b9d5c961b)" style="fill: none; stroke: #cccccc; stroke-width: 0.8; stroke-linecap: round"/>
     </g>
     <g id="text_29">
      <!-- 800 -->
      <g style="fill: #262626" transform="translate(29.2405 315.319675)scale(0.088 -0.088)">
       <use xlink:href="#DejaVuSans-38"/>
       <use xlink:href="#DejaVuSans-30" x="63.623047"/>
       <use xlink:href="#DejaVuSans-30" x="127.246094"/>
      </g>
     </g>
    </g>
    <g id="ytick_10">
     <g id="line2d_29">
      <path d="M 54.3375 289.413408 
L 391.23 289.413408 
" clip-path="url(#p3b9d5c961b)" style="fill: none; stroke: #cccccc; stroke-width: 0.8; stroke-linecap: round"/>
     </g>
     <g id="text_30">
      <!-- 900 -->
      <g style="fill: #262626" transform="translate(29.2405 292.75672)scale(0.088 -0.088)">
       <use xlink:href="#DejaVuSans-39"/>
       <use xlink:href="#DejaVuSans-30" x="63.623047"/>
       <use xlink:href="#DejaVuSans-30" x="127.246094"/>
      </g>
     </g>
    </g>
    <g id="ytick_11">
     <g id="line2d_30">
      <path d="M 54.3375 266.850453 
L 391.23 266.850453 
" clip-path="url(#p3b9d5c961b)" style="fill: none; stroke: #cccccc; stroke-width: 0.8; stroke-linecap: round"/>
     </g>
     <g id="text_31">
      <!-- 1000 -->
      <g style="fill: #262626" transform="translate(23.6415 270.193766)scale(0.088 -0.088)">
       <use xlink:href="#DejaVuSans-31"/>
       <use xlink:href="#DejaVuSans-30" x="63.623047"/>
       <use xlink:href="#DejaVuSans-30" x="127.246094"/>
       <use xlink:href="#DejaVuSans-30" x="190.869141"/>
      </g>
     </g>
    </g>
    <g id="ytick_12">
     <g id="line2d_31">
      <path d="M 54.3375 244.287499 
L 391.23 244.287499 
" clip-path="url(#p3b9d5c961b)" style="fill: none; stroke: #cccccc; stroke-width: 0.8; stroke-linecap: round"/>
     </g>
     <g id="text_32">
      <!-- 1100 -->
      <g style="fill: #262626" transform="translate(23.6415 247.630811)scale(0.088 -0.088)">
       <use xlink:href="#DejaVuSans-31"/>
       <use xlink:href="#DejaVuSans-31" x="63.623047"/>
       <use xlink:href="#DejaVuSans-30" x="127.246094"/>
       <use xlink:href="#DejaVuSans-30" x="190.869141"/>
      </g>
     </g>
    </g>
    <g id="ytick_13">
     <g id="line2d_32">
      <path d="M 54.3375 221.724544 
L 391.23 221.724544 
" clip-path="url(#p3b9d5c961b)" style="fill: none; stroke: #cccccc; stroke-width: 0.8; stroke-linecap: round"/>
     </g>
     <g id="text_33">
      <!-- 1200 -->
      <g style="fill: #262626" transform="translate(23.6415 225.067856)scale(0.088 -0.088)">
       <use xlink:href="#DejaVuSans-31"/>
       <use xlink:href="#DejaVuSans-32" x="63.623047"/>
       <use xlink:href="#DejaVuSans-30" x="127.246094"/>
       <use xlink:href="#DejaVuSans-30" x="190.869141"/>
      </g>
     </g>
    </g>
    <g id="ytick_14">
     <g id="line2d_33">
      <path d="M 54.3375 199.161589 
L 391.23 199.161589 
" clip-path="url(#p3b9d5c961b)" style="fill: none; stroke: #cccccc; stroke-width: 0.8; stroke-linecap: round"/>
     </g>
     <g id="text_34">
      <!-- 1300 -->
      <g style="fill: #262626" transform="translate(23.6415 202.504902)scale(0.088 -0.088)">
       <use xlink:href="#DejaVuSans-31"/>
       <use xlink:href="#DejaVuSans-33" x="63.623047"/>
       <use xlink:href="#DejaVuSans-30" x="127.246094"/>
       <use xlink:href="#DejaVuSans-30" x="190.869141"/>
      </g>
     </g>
    </g>
    <g id="ytick_15">
     <g id="line2d_34">
      <path d="M 54.3375 176.598635 
L 391.23 176.598635 
" clip-path="url(#p3b9d5c961b)" style="fill: none; stroke: #cccccc; stroke-width: 0.8; stroke-linecap: round"/>
     </g>
     <g id="text_35">
      <!-- 1400 -->
      <g style="fill: #262626" transform="translate(23.6415 179.941947)scale(0.088 -0.088)">
       <use xlink:href="#DejaVuSans-31"/>
       <use xlink:href="#DejaVuSans-34" x="63.623047"/>
       <use xlink:href="#DejaVuSans-30" x="127.246094"/>
       <use xlink:href="#DejaVuSans-30" x="190.869141"/>
      </g>
     </g>
    </g>
    <g id="ytick_16">
     <g id="line2d_35">
      <path d="M 54.3375 154.03568 
L 391.23 154.03568 
" clip-path="url(#p3b9d5c961b)" style="fill: none; stroke: #cccccc; stroke-width: 0.8; stroke-linecap: round"/>
     </g>
     <g id="text_36">
      <!-- 1500 -->
      <g style="fill: #262626" transform="translate(23.6415 157.378992)scale(0.088 -0.088)">
       <use xlink:href="#DejaVuSans-31"/>
       <use xlink:href="#DejaVuSans-35" x="63.623047"/>
       <use xlink:href="#DejaVuSans-30" x="127.246094"/>
       <use xlink:href="#DejaVuSans-30" x="190.869141"/>
      </g>
     </g>
    </g>
    <g id="ytick_17">
     <g id="line2d_36">
      <path d="M 54.3375 131.472725 
L 391.23 131.472725 
" clip-path="url(#p3b9d5c961b)" style="fill: none; stroke: #cccccc; stroke-width: 0.8; stroke-linecap: round"/>
     </g>
     <g id="text_37">
      <!-- 1600 -->
      <g style="fill: #262626" transform="translate(23.6415 134.816038)scale(0.088 -0.088)">
       <use xlink:href="#DejaVuSans-31"/>
       <use xlink:href="#DejaVuSans-36" x="63.623047"/>
       <use xlink:href="#DejaVuSans-30" x="127.246094"/>
       <use xlink:href="#DejaVuSans-30" x="190.869141"/>
      </g>
     </g>
    </g>
    <g id="ytick_18">
     <g id="line2d_37">
      <path d="M 54.3375 108.909771 
L 391.23 108.909771 
" clip-path="url(#p3b9d5c961b)" style="fill: none; stroke: #cccccc; stroke-width: 0.8; stroke-linecap: round"/>
     </g>
     <g id="text_38">
      <!-- 1700 -->
      <g style="fill: #262626" transform="translate(23.6415 112.253083)scale(0.088 -0.088)">
       <use xlink:href="#DejaVuSans-31"/>
       <use xlink:href="#DejaVuSans-37" x="63.623047"/>
       <use xlink:href="#DejaVuSans-30" x="127.246094"/>
       <use xlink:href="#DejaVuSans-30" x="190.869141"/>
      </g>
     </g>
    </g>
    <g id="text_39">
     <!-- Edge Coverages -->
     <g style="fill: #262626" transform="translate(17.645 329.98575)rotate(-90)scale(0.096 -0.096)">
      <defs>
       <path id="DejaVuSans-45" d="M 628 4666 
L 3578 4666 
L 3578 4134 
L 1259 4134 
L 1259 2753 
L 3481 2753 
L 3481 2222 
L 1259 2222 
L 1259 531 
L 3634 531 
L 3634 0 
L 628 0 
L 628 4666 
z
" transform="scale(0.015625)"/>
       <path id="DejaVuSans-64" d="M 2906 2969 
L 2906 4863 
L 3481 4863 
L 3481 0 
L 2906 0 
L 2906 525 
Q 2725 213 2448 61 
Q 2172 -91 1784 -91 
Q 1150 -91 751 415 
Q 353 922 353 1747 
Q 353 2572 751 3078 
Q 1150 3584 1784 3584 
Q 2172 3584 2448 3432 
Q 2725 3281 2906 2969 
z
M 947 1747 
Q 947 1113 1208 752 
Q 1469 391 1925 391 
Q 2381 391 2643 752 
Q 2906 1113 2906 1747 
Q 2906 2381 2643 2742 
Q 2381 3103 1925 3103 
Q 1469 3103 1208 2742 
Q 947 2381 947 1747 
z
" transform="scale(0.015625)"/>
       <path id="DejaVuSans-67" d="M 2906 1791 
Q 2906 2416 2648 2759 
Q 2391 3103 1925 3103 
Q 1463 3103 1205 2759 
Q 947 2416 947 1791 
Q 947 1169 1205 825 
Q 1463 481 1925 481 
Q 2391 481 2648 825 
Q 2906 1169 2906 1791 
z
M 3481 434 
Q 3481 -459 3084 -895 
Q 2688 -1331 1869 -1331 
Q 1566 -1331 1297 -1286 
Q 1028 -1241 775 -1147 
L 775 -588 
Q 1028 -725 1275 -790 
Q 1522 -856 1778 -856 
Q 2344 -856 2625 -561 
Q 2906 -266 2906 331 
L 2906 616 
Q 2728 306 2450 153 
Q 2172 0 1784 0 
Q 1141 0 747 490 
Q 353 981 353 1791 
Q 353 2603 747 3093 
Q 1141 3584 1784 3584 
Q 2172 3584 2450 3431 
Q 2728 3278 2906 2969 
L 2906 3500 
L 3481 3500 
L 3481 434 
z
" transform="scale(0.015625)"/>
       <path id="DejaVuSans-43" d="M 4122 4306 
L 4122 3641 
Q 3803 3938 3442 4084 
Q 3081 4231 2675 4231 
Q 1875 4231 1450 3742 
Q 1025 3253 1025 2328 
Q 1025 1406 1450 917 
Q 1875 428 2675 428 
Q 3081 428 3442 575 
Q 3803 722 4122 1019 
L 4122 359 
Q 3791 134 3420 21 
Q 3050 -91 2638 -91 
Q 1578 -91 968 557 
Q 359 1206 359 2328 
Q 359 3453 968 4101 
Q 1578 4750 2638 4750 
Q 3056 4750 3426 4639 
Q 3797 4528 4122 4306 
z
" transform="scale(0.015625)"/>
       <path id="DejaVuSans-6f" d="M 1959 3097 
Q 1497 3097 1228 2736 
Q 959 2375 959 1747 
Q 959 1119 1226 758 
Q 1494 397 1959 397 
Q 2419 397 2687 759 
Q 2956 1122 2956 1747 
Q 2956 2369 2687 2733 
Q 2419 3097 1959 3097 
z
M 1959 3584 
Q 2709 3584 3137 3096 
Q 3566 2609 3566 1747 
Q 3566 888 3137 398 
Q 2709 -91 1959 -91 
Q 1206 -91 779 398 
Q 353 888 353 1747 
Q 353 2609 779 3096 
Q 1206 3584 1959 3584 
z
" transform="scale(0.015625)"/>
       <path id="DejaVuSans-76" d="M 191 3500 
L 800 3500 
L 1894 563 
L 2988 3500 
L 3597 3500 
L 2284 0 
L 1503 0 
L 191 3500 
z
" transform="scale(0.015625)"/>
       <path id="DejaVuSans-72" d="M 2631 2963 
Q 2534 3019 2420 3045 
Q 2306 3072 2169 3072 
Q 1681 3072 1420 2755 
Q 1159 2438 1159 1844 
L 1159 0 
L 581 0 
L 581 3500 
L 1159 3500 
L 1159 2956 
Q 1341 3275 1631 3429 
Q 1922 3584 2338 3584 
Q 2397 3584 2469 3576 
Q 2541 3569 2628 3553 
L 2631 2963 
z
" transform="scale(0.015625)"/>
       <path id="DejaVuSans-61" d="M 2194 1759 
Q 1497 1759 1228 1600 
Q 959 1441 959 1056 
Q 959 750 1161 570 
Q 1363 391 1709 391 
Q 2188 391 2477 730 
Q 2766 1069 2766 1631 
L 2766 1759 
L 2194 1759 
z
M 3341 1997 
L 3341 0 
L 2766 0 
L 2766 531 
Q 2569 213 2275 61 
Q 1981 -91 1556 -91 
Q 1019 -91 701 211 
Q 384 513 384 1019 
Q 384 1609 779 1909 
Q 1175 2209 1959 2209 
L 2766 2209 
L 2766 2266 
Q 2766 2663 2505 2880 
Q 2244 3097 1772 3097 
Q 1472 3097 1187 3025 
Q 903 2953 641 2809 
L 641 3341 
Q 956 3463 1253 3523 
Q 1550 3584 1831 3584 
Q 2591 3584 2966 3190 
Q 3341 2797 3341 1997 
z
" transform="scale(0.015625)"/>
      </defs>
      <use xlink:href="#DejaVuSans-45"/>
      <use xlink:href="#DejaVuSans-64" x="63.183594"/>
      <use xlink:href="#DejaVuSans-67" x="126.660156"/>
      <use xlink:href="#DejaVuSans-65" x="190.136719"/>
      <use xlink:href="#DejaVuSans-20" x="251.660156"/>
      <use xlink:href="#DejaVuSans-43" x="283.447266"/>
      <use xlink:href="#DejaVuSans-6f" x="353.271484"/>
      <use xlink:href="#DejaVuSans-76" x="414.453125"/>
      <use xlink:href="#DejaVuSans-65" x="473.632812"/>
      <use xlink:href="#DejaVuSans-72" x="535.15625"/>
      <use xlink:href="#DejaVuSans-61" x="576.269531"/>
      <use xlink:href="#DejaVuSans-67" x="637.548828"/>
      <use xlink:href="#DejaVuSans-65" x="701.025391"/>
      <use xlink:href="#DejaVuSans-73" x="762.548828"/>
     </g>
    </g>
   </g>
   <g id="PolyCollection_1">
    <defs>
     <path id="m2e61be4e01" d="M 69.650795 -113.3031 
L 69.650795 -83.52 
L 69.650795 -113.3031 
L 69.650795 -113.3031 
z
" style="stroke: #db5f57; stroke-opacity: 0.2; stroke-width: 0.8"/>
    </defs>
    <g clip-path="url(#p3b9d5c961b)">
     <use xlink:href="#m2e61be4e01" x="0" y="576" style="fill: #db5f57; fill-opacity: 0.2; stroke: #db5f57; stroke-opacity: 0.2; stroke-width: 0.8"/>
    </g>
   </g>
   <g id="PolyCollection_2">
    <defs>
     <path id="m9ffa14ee5c" d="M 69.650795 -113.52873 
L 69.650795 -83.52 
L 69.650795 -113.52873 
L 69.650795 -113.52873 
z
" style="stroke: #b9db57; stroke-opacity: 0.2; stroke-width: 0.8"/>
    </defs>
    <g clip-path="url(#p3b9d5c961b)">
     <use xlink:href="#m9ffa14ee5c" x="0" y="576" style="fill: #b9db57; fill-opacity: 0.2; stroke: #b9db57; stroke-opacity: 0.2; stroke-width: 0.8"/>
    </g>
   </g>
   <g id="PolyCollection_3">
    <defs>
     <path id="m704b6dd60e" d="M 69.650795 -113.3031 
L 69.650795 -83.52 
L 69.650795 -113.3031 
L 69.650795 -113.3031 
z
" style="stroke: #57db94; stroke-opacity: 0.2; stroke-width: 0.8"/>
    </defs>
    <g clip-path="url(#p3b9d5c961b)">
     <use xlink:href="#m704b6dd60e" x="0" y="576" style="fill: #57db94; fill-opacity: 0.2; stroke: #57db94; stroke-opacity: 0.2; stroke-width: 0.8"/>
    </g>
   </g>
   <g id="PolyCollection_4">
    <defs>
     <path id="meabb5f214c" d="M 69.650795 -102.021623 
L 69.650795 -83.52 
L 69.650795 -102.021623 
L 69.650795 -102.021623 
z
" style="stroke: #5784db; stroke-opacity: 0.2; stroke-width: 0.8"/>
    </defs>
    <g clip-path="url(#p3b9d5c961b)">
     <use xlink:href="#meabb5f214c" x="0" y="576" style="fill: #5784db; fill-opacity: 0.2; stroke: #5784db; stroke-opacity: 0.2; stroke-width: 0.8"/>
    </g>
   </g>
   <g id="PolyCollection_5">
    <defs>
     <path id="m4de5180aaa" d="M 69.650795 -120.523246 
L 69.650795 -83.52 
L 69.650795 -120.523246 
L 69.650795 -120.523246 
z
" style="stroke: #c957db; stroke-opacity: 0.2; stroke-width: 0.8"/>
    </defs>
    <g clip-path="url(#p3b9d5c961b)">
     <use xlink:href="#m4de5180aaa" x="0" y="576" style="fill: #c957db; fill-opacity: 0.2; stroke: #c957db; stroke-opacity: 0.2; stroke-width: 0.8"/>
    </g>
   </g>
   <g id="line2d_38">
    <path d="M 69.650795 477.58845 
L 70.07646 427.498691 
L 70.92779 365.224936 
L 71.140623 364.548047 
L 71.353455 361.163604 
L 71.77912 349.205238 
L 71.991953 346.723313 
L 72.204785 342.436351 
L 72.417617 341.985092 
L 72.63045 311.299474 
L 72.843282 300.920515 
L 73.268947 299.792367 
L 73.48178 284.449558 
L 73.694612 280.839485 
L 74.120277 280.839485 
L 74.33311 270.686156 
L 74.545942 266.399194 
L 74.971607 265.496676 
L 75.184439 263.014751 
L 75.397272 254.215199 
L 75.610104 253.989569 
L 75.822937 253.989569 
L 76.035769 249.476978 
L 76.674267 244.964387 
L 76.887099 244.287499 
L 77.099932 241.579944 
L 77.312764 240.451796 
L 77.525596 240.451796 
L 77.738429 237.292983 
L 79.441089 228.042171 
L 79.653921 227.816542 
L 80.505251 224.432098 
L 80.930916 223.75521 
L 81.143748 223.75521 
L 81.782246 220.822026 
L 81.995078 220.596396 
L 82.420743 219.242619 
L 82.633575 218.56573 
L 82.846408 217.211953 
L 83.05924 216.986323 
L 83.272073 216.986323 
L 83.484905 214.278769 
L 83.697738 214.053139 
L 84.123403 213.150621 
L 84.7619 210.443067 
L 84.974733 210.443067 
L 85.187565 207.509882 
L 85.400397 207.509882 
L 86.251727 204.802328 
L 86.46456 204.802328 
L 86.677392 203.448551 
L 86.890225 202.997292 
L 87.528722 200.740996 
L 87.954387 199.387219 
L 88.167219 199.387219 
L 88.592884 198.259071 
L 88.805717 197.356553 
L 89.231382 197.356553 
L 89.444214 196.905294 
L 89.657047 196.905294 
L 89.869879 196.228405 
L 90.082712 196.002776 
L 90.295544 196.002776 
L 90.508376 195.551517 
L 90.721209 195.551517 
L 90.934041 194.874628 
L 91.359706 194.874628 
L 91.572539 194.197739 
L 91.785371 194.197739 
L 91.998204 193.97211 
L 92.423869 192.167073 
L 92.849534 191.715814 
L 93.275198 191.038926 
L 93.700863 190.587666 
L 93.913696 189.910778 
L 94.126528 189.910778 
L 94.339361 189.00826 
L 94.552193 189.00826 
L 94.765026 187.428853 
L 94.977858 186.977594 
L 95.403523 186.977594 
L 96.04202 184.495669 
L 96.254853 184.495669 
L 97.531848 181.562485 
L 97.74468 180.885596 
L 97.957513 180.659966 
L 98.59601 180.659966 
L 99.021675 179.08056 
L 99.234507 179.08056 
L 99.44734 178.629301 
L 99.660172 178.629301 
L 99.873005 178.403671 
L 100.511502 178.403671 
L 100.724335 177.952412 
L 100.937167 177.952412 
L 101.149999 177.049894 
L 101.362832 176.824264 
L 101.788497 176.824264 
L 102.001329 176.598635 
L 103.065492 176.598635 
L 103.278324 175.921746 
L 103.491157 175.921746 
L 103.703989 175.244857 
L 103.916821 175.244857 
L 104.129654 174.567969 
L 104.342486 174.342339 
L 104.768151 174.342339 
L 104.980984 174.11671 
L 105.193816 173.66545 
L 105.619481 173.66545 
L 105.832314 173.439821 
L 107.534973 173.439821 
L 107.960638 172.311673 
L 108.386303 172.311673 
L 108.599136 172.086044 
L 109.0248 172.086044 
L 109.237633 171.860414 
L 109.663298 171.860414 
L 109.87613 171.634785 
L 110.088963 171.634785 
L 110.301795 171.183525 
L 110.514628 171.183525 
L 110.72746 170.957896 
L 110.940293 170.957896 
L 111.153125 170.281007 
L 111.365957 170.281007 
L 111.57879 170.055378 
L 111.791622 170.055378 
L 112.004455 169.829748 
L 112.217287 169.829748 
L 112.43012 169.604119 
L 112.642952 169.15286 
L 112.855785 169.15286 
L 113.068617 168.92723 
L 113.28145 168.92723 
L 113.494282 168.475971 
L 113.707115 168.475971 
L 113.919947 168.250341 
L 114.984109 168.250341 
L 115.409774 166.670935 
L 115.622607 166.670935 
L 115.835439 166.219675 
L 116.048272 166.219675 
L 116.261104 165.994046 
L 116.473937 165.994046 
L 116.899601 165.317157 
L 118.389429 165.317157 
L 118.602261 165.091528 
L 118.815094 165.091528 
L 119.027926 164.640269 
L 119.453591 164.640269 
L 119.666423 164.414639 
L 119.879256 164.414639 
L 120.092088 164.18901 
L 123.071743 164.18901 
L 123.284575 163.73775 
L 124.774402 163.73775 
L 124.987235 163.512121 
L 125.625732 163.512121 
L 126.051397 163.060862 
L 126.26423 163.060862 
L 126.689895 162.383973 
L 127.754057 162.383973 
L 127.966889 162.158344 
L 129.243884 162.158344 
L 129.456717 161.707084 
L 129.669549 161.707084 
L 129.882381 161.255825 
L 130.095214 161.255825 
L 130.308046 161.030196 
L 131.797874 161.030196 
L 132.010706 160.578937 
L 132.862036 160.578937 
L 133.287701 160.127678 
L 133.500533 160.127678 
L 133.713366 159.902048 
L 134.777528 159.902048 
L 134.99036 159.225159 
L 135.203193 158.99953 
L 136.267355 158.99953 
L 136.480188 157.871382 
L 138.182847 157.871382 
L 138.39568 157.645753 
L 138.821345 157.645753 
L 139.034177 157.420123 
L 139.672675 157.420123 
L 139.885507 156.968864 
L 140.311172 156.968864 
L 140.524004 156.743234 
L 140.949669 156.743234 
L 141.162502 156.291975 
L 142.013832 156.291975 
L 142.226664 156.066346 
L 142.439497 156.066346 
L 142.652329 155.840716 
L 144.567821 155.840716 
L 144.780654 155.615087 
L 147.973141 155.615087 
L 148.185973 155.389457 
L 149.250135 155.389457 
L 149.462968 155.163828 
L 150.314298 155.163828 
L 150.52713 154.938198 
L 151.37846 154.938198 
L 151.591292 154.712569 
L 156.060774 154.712569 
L 156.273606 154.486939 
L 157.550601 154.486939 
L 157.763434 154.261309 
L 160.530256 154.261309 
L 160.743088 154.03568 
L 162.232915 154.03568 
L 162.445748 153.584421 
L 164.999737 153.584421 
L 165.21257 153.358791 
L 166.702397 153.358791 
L 166.915229 153.133162 
L 167.553727 153.133162 
L 167.766559 152.907532 
L 173.300203 152.907532 
L 173.513036 152.681903 
L 174.151533 152.681903 
L 174.364365 152.456273 
L 174.577198 152.456273 
L 174.79003 152.230644 
L 176.705523 152.230644 
L 176.918355 152.005014 
L 177.769685 152.005014 
L 177.982517 151.779384 
L 178.621015 151.779384 
L 178.833847 151.553755 
L 186.708648 151.553755 
L 186.921481 151.102496 
L 199.265763 151.102496 
L 199.478596 150.876866 
L 200.542758 150.876866 
L 200.75559 150.651237 
L 204.799407 150.651237 
L 205.01224 150.425607 
L 207.779062 150.425607 
L 207.991894 150.199978 
L 208.630391 150.199978 
L 208.843224 149.974348 
L 227.146815 149.974348 
L 227.359648 149.748719 
L 230.12647 149.748719 
L 230.339302 149.297459 
L 230.552135 149.297459 
L 230.764967 148.8462 
L 233.318957 148.8462 
L 233.957454 148.169312 
L 236.724276 148.169312 
L 236.937109 147.718053 
L 237.362773 147.718053 
L 237.575606 147.492423 
L 242.896417 147.492423 
L 243.10925 147.041164 
L 264.605328 147.041164 
L 264.818161 146.815534 
L 272.054464 146.815534 
L 272.267297 146.589905 
L 288.868229 146.589905 
L 289.293894 146.138646 
L 290.570888 146.138646 
L 290.783721 145.913016 
L 294.614705 145.913016 
L 294.827538 145.687387 
L 299.722684 145.687387 
L 299.935517 145.461757 
L 300.361181 145.461757 
L 300.574014 145.010498 
L 302.702339 145.010498 
L 302.915171 144.784868 
L 316.749281 144.784868 
L 316.962113 144.559239 
L 325.688244 144.559239 
L 325.901077 144.333609 
L 331.009056 144.333609 
L 331.221888 144.10798 
L 334.414375 144.10798 
L 334.627207 143.88235 
L 335.69137 143.88235 
L 335.904202 143.656721 
L 338.245359 143.656721 
L 338.458192 143.205462 
L 342.927673 143.205462 
L 343.353338 142.754203 
L 358.25161 142.754203 
L 358.464443 142.528573 
L 366.977741 142.528573 
L 367.190574 142.302943 
L 368.254736 142.302943 
L 368.467568 142.077314 
L 370.383061 142.077314 
L 370.595893 141.851684 
L 370.808726 141.851684 
L 371.021558 141.400425 
L 375.916705 141.400425 
L 375.916705 141.400425 
" clip-path="url(#p3b9d5c961b)" style="fill: none; stroke: #db5f57; stroke-width: 1.2; stroke-linecap: round"/>
   </g>
   <g id="line2d_39">
    <path d="M 69.650795 477.475635 
L 70.289293 398.618109 
L 70.714958 358.907308 
L 70.92779 349.882126 
L 71.140623 328.672949 
L 71.566288 319.422138 
L 71.77912 306.561253 
L 72.204785 300.243626 
L 72.417617 288.28526 
L 72.63045 287.382742 
L 73.268947 274.747487 
L 73.48178 267.301712 
L 73.694612 263.917269 
L 73.907445 262.337862 
L 74.120277 258.953419 
L 74.33311 250.379496 
L 75.184439 238.872389 
L 75.397272 236.390464 
L 76.035769 233.231651 
L 77.099932 225.785876 
L 77.525596 221.724544 
L 78.376926 217.663212 
L 78.802591 214.955658 
L 79.441089 211.796844 
L 79.653921 211.571214 
L 79.866754 210.894326 
L 80.079586 209.540548 
L 80.505251 208.63803 
L 80.930916 207.284253 
L 81.143748 207.284253 
L 81.356581 206.832994 
L 81.569413 205.930476 
L 82.207911 205.253587 
L 82.633575 205.253587 
L 82.846408 202.320403 
L 83.272073 201.192255 
L 83.484905 198.93596 
L 83.697738 198.93596 
L 84.123403 198.484701 
L 84.549068 195.777146 
L 84.7619 195.325887 
L 84.974733 194.423369 
L 85.187565 191.490185 
L 85.400397 191.490185 
L 85.61323 190.813296 
L 86.038895 190.362037 
L 87.103057 188.331371 
L 87.31589 188.331371 
L 87.528722 186.300705 
L 87.954387 185.623816 
L 88.167219 185.398187 
L 88.380052 184.946928 
L 88.592884 184.04441 
L 88.805717 183.81878 
L 89.231382 183.81878 
L 89.444214 182.916262 
L 89.657047 182.916262 
L 89.869879 182.465003 
L 90.082712 182.465003 
L 90.295544 181.788114 
L 90.508376 181.562485 
L 90.721209 181.111226 
L 90.934041 181.111226 
L 91.359706 180.659966 
L 91.572539 179.531819 
L 91.785371 179.531819 
L 91.998204 179.306189 
L 92.423869 177.726782 
L 92.636701 177.726782 
L 93.275198 176.598635 
L 93.488031 176.598635 
L 93.700863 175.921746 
L 94.126528 175.921746 
L 94.339361 175.696116 
L 94.977858 174.567969 
L 95.190691 174.567969 
L 95.403523 173.439821 
L 95.829188 172.762932 
L 96.680518 172.762932 
L 96.89335 170.957896 
L 97.106183 170.957896 
L 97.319015 169.829748 
L 97.531848 169.604119 
L 97.74468 169.15286 
L 98.170345 169.15286 
L 98.59601 167.573453 
L 98.808842 167.573453 
L 99.021675 166.896564 
L 99.234507 166.670935 
L 100.937167 166.670935 
L 101.149999 165.317157 
L 101.575664 164.640269 
L 102.214162 163.96338 
L 103.065492 163.96338 
L 103.278324 163.512121 
L 103.491157 163.512121 
L 103.916821 163.060862 
L 104.129654 162.609603 
L 104.555319 162.609603 
L 104.980984 162.158344 
L 105.193816 161.707084 
L 105.619481 161.707084 
L 106.045146 161.255825 
L 106.896476 161.255825 
L 107.322141 160.578937 
L 107.534973 160.578937 
L 107.747806 160.353307 
L 109.0248 160.353307 
L 109.237633 160.127678 
L 111.365957 160.127678 
L 111.57879 157.871382 
L 117.325266 157.871382 
L 117.538099 153.81005 
L 118.176596 153.81005 
L 118.389429 153.584421 
L 119.027926 153.584421 
L 119.240758 153.358791 
L 119.453591 153.358791 
L 119.666423 152.907532 
L 162.232915 152.907532 
L 162.445748 151.328125 
L 162.65858 144.10798 
L 166.0639 144.10798 
L 166.276732 143.88235 
L 176.705523 143.88235 
L 176.918355 142.302943 
L 179.685177 142.302943 
L 179.898009 142.077314 
L 181.175004 142.077314 
L 181.387837 141.851684 
L 224.592826 141.851684 
L 224.805658 141.400425 
L 225.018491 139.821018 
L 230.12647 139.821018 
L 230.764967 139.14413 
L 233.318957 139.14413 
L 233.744622 138.241612 
L 316.110783 138.241612 
L 316.323616 137.113464 
L 316.536448 134.857168 
L 316.749281 134.857168 
L 316.962113 134.631539 
L 325.688244 134.631539 
L 325.901077 134.405909 
L 331.009056 134.405909 
L 331.221888 134.18028 
L 335.052872 134.18028 
L 335.265705 133.729021 
L 335.69137 133.729021 
L 335.904202 133.503391 
L 337.819694 133.503391 
L 338.245359 133.052132 
L 359.10294 133.052132 
L 359.315773 132.375243 
L 364.423752 132.375243 
L 364.636584 132.149614 
L 368.041904 132.149614 
L 368.254736 131.923984 
L 370.808726 131.923984 
L 371.021558 131.698355 
L 375.703872 131.698355 
L 375.916705 131.472725 
L 375.916705 131.472725 
" clip-path="url(#p3b9d5c961b)" style="fill: none; stroke: #b9db57; stroke-width: 1.2; stroke-linecap: round"/>
   </g>
   <g id="line2d_40">
    <path d="M 69.650795 477.58845 
L 70.07646 428.626838 
L 70.502125 377.86019 
L 71.140623 343.790129 
L 71.353455 310.171326 
L 71.566288 307.915031 
L 71.991953 294.151628 
L 72.204785 286.480224 
L 72.417617 285.126447 
L 72.843282 273.168081 
L 73.056115 272.265562 
L 73.268947 267.978601 
L 73.48178 255.568976 
L 73.907445 248.80009 
L 74.120277 247.220683 
L 74.545942 238.64676 
L 74.758774 237.518612 
L 74.971607 229.170319 
L 75.184439 228.267801 
L 76.035769 219.016989 
L 76.674267 214.504398 
L 77.312764 211.571214 
L 77.525596 207.735512 
L 77.738429 206.381735 
L 77.951261 205.930476 
L 78.802591 201.192255 
L 79.653921 196.905294 
L 79.866754 196.454035 
L 80.292418 194.423369 
L 80.718083 192.618332 
L 81.143748 192.618332 
L 81.356581 191.038926 
L 81.569413 190.587666 
L 82.420743 187.428853 
L 82.633575 186.977594 
L 82.846408 186.075076 
L 83.05924 184.495669 
L 83.484905 182.916262 
L 83.697738 182.916262 
L 83.91057 182.690632 
L 84.123403 182.239373 
L 84.7619 178.629301 
L 85.187565 176.598635 
L 85.400397 174.793598 
L 85.826062 173.214191 
L 86.251727 171.409155 
L 86.46456 171.409155 
L 87.103057 168.475971 
L 87.31589 167.799082 
L 87.528722 165.542787 
L 87.954387 164.640269 
L 88.167219 164.640269 
L 88.592884 163.96338 
L 88.805717 162.835232 
L 89.231382 162.383973 
L 89.444214 161.932714 
L 89.657047 161.932714 
L 89.869879 160.578937 
L 90.295544 160.578937 
L 90.721209 159.902048 
L 90.934041 159.676419 
L 91.359706 159.676419 
L 91.572539 158.7739 
L 91.785371 158.7739 
L 91.998204 158.548271 
L 92.636701 156.743234 
L 92.849534 156.743234 
L 93.488031 155.615087 
L 93.913696 155.163828 
L 94.126528 155.163828 
L 94.339361 154.712569 
L 94.552193 152.230644 
L 94.977858 151.102496 
L 95.190691 151.102496 
L 95.829188 149.748719 
L 96.04202 148.620571 
L 96.467685 148.620571 
L 96.680518 147.718053 
L 96.89335 147.718053 
L 97.319015 146.364275 
L 97.531848 145.687387 
L 97.74468 145.687387 
L 97.957513 145.461757 
L 98.383177 145.461757 
L 98.808842 145.010498 
L 99.234507 144.10798 
L 99.44734 144.10798 
L 99.660172 143.88235 
L 99.873005 143.88235 
L 100.29867 143.431091 
L 100.511502 143.431091 
L 101.149999 142.754203 
L 101.362832 142.754203 
L 101.788497 142.302943 
L 103.065492 142.302943 
L 103.491157 141.400425 
L 103.703989 141.400425 
L 103.916821 141.174796 
L 104.342486 140.497907 
L 104.555319 140.497907 
L 105.193816 139.821018 
L 105.832314 139.821018 
L 106.045146 139.595389 
L 107.109308 139.595389 
L 107.534973 138.9185 
L 108.386303 138.9185 
L 108.811968 138.467241 
L 109.237633 138.467241 
L 109.450465 138.015982 
L 109.663298 138.015982 
L 111.365957 136.210946 
L 111.791622 136.210946 
L 112.217287 135.759687 
L 112.43012 135.759687 
L 112.642952 135.308428 
L 113.068617 135.308428 
L 113.28145 135.082798 
L 113.707115 135.082798 
L 114.132779 134.631539 
L 114.345612 133.95465 
L 114.558444 133.95465 
L 114.771277 133.729021 
L 114.984109 133.729021 
L 115.196942 133.503391 
L 115.409774 133.503391 
L 115.622607 133.277762 
L 115.835439 133.277762 
L 116.261104 132.600873 
L 116.473937 132.600873 
L 116.686769 132.149614 
L 118.176596 132.149614 
L 118.389429 131.923984 
L 118.815094 131.923984 
L 119.027926 131.698355 
L 120.943418 131.698355 
L 121.156251 131.247096 
L 124.774402 131.247096 
L 124.987235 131.021466 
L 125.625732 131.021466 
L 126.26423 130.344578 
L 126.477062 130.344578 
L 126.689895 130.118948 
L 128.605387 130.118948 
L 128.818219 129.893318 
L 129.243884 129.893318 
L 129.456717 129.667689 
L 129.669549 129.667689 
L 129.882381 129.442059 
L 131.372209 129.442059 
L 131.797874 128.9908 
L 133.287701 128.9908 
L 133.713366 128.539541 
L 134.139031 128.539541 
L 134.351863 128.313912 
L 135.84169 128.313912 
L 136.054523 128.088282 
L 137.970015 128.088282 
L 138.182847 127.862652 
L 138.821345 127.862652 
L 139.034177 127.637023 
L 139.459842 127.637023 
L 139.885507 127.185764 
L 140.736837 127.185764 
L 141.162502 126.734505 
L 142.226664 126.734505 
L 142.652329 126.283246 
L 144.354989 126.283246 
L 144.567821 126.057616 
L 146.483313 126.057616 
L 146.696146 125.831987 
L 148.185973 125.831987 
L 148.398805 125.606357 
L 150.952795 125.606357 
L 151.165627 125.380727 
L 156.060774 125.380727 
L 156.273606 125.155098 
L 157.337769 125.155098 
L 157.550601 124.929468 
L 159.891758 124.929468 
L 160.104591 124.478209 
L 163.084245 124.478209 
L 163.50991 124.02695 
L 167.553727 124.02695 
L 167.766559 123.801321 
L 168.192224 123.801321 
L 168.405057 123.575691 
L 169.469219 123.575691 
L 169.682051 123.350062 
L 173.938701 123.350062 
L 174.151533 123.124432 
L 177.34402 123.124432 
L 177.556852 122.898802 
L 181.600669 122.898802 
L 181.813502 122.673173 
L 186.070151 122.673173 
L 186.282983 122.447543 
L 186.708648 122.447543 
L 186.921481 122.221914 
L 200.542758 122.221914 
L 200.75559 121.996284 
L 203.735245 121.996284 
L 203.948077 121.770655 
L 207.779062 121.770655 
L 207.991894 121.545025 
L 217.14369 121.545025 
L 217.356522 121.319396 
L 218.84635 121.319396 
L 219.059182 121.093766 
L 229.913637 121.093766 
L 230.764967 120.191248 
L 232.893292 120.191248 
L 233.106124 119.965618 
L 233.531789 119.965618 
L 233.744622 119.28873 
L 234.170287 119.28873 
L 234.383119 119.0631 
L 235.447281 119.0631 
L 235.660114 118.837471 
L 240.768093 118.837471 
L 240.980925 118.611841 
L 243.534915 118.611841 
L 243.747747 118.386212 
L 246.088904 118.386212 
L 246.301737 117.934952 
L 257.369025 117.934952 
L 257.581857 117.709323 
L 258.220354 117.709323 
L 258.433187 117.483693 
L 263.541166 117.483693 
L 263.753998 117.258064 
L 271.841632 117.258064 
L 272.054464 117.032434 
L 288.442564 117.032434 
L 288.655396 116.806805 
L 294.401873 116.806805 
L 294.614705 116.581175 
L 298.871354 116.581175 
L 299.084187 116.355546 
L 300.148349 116.355546 
L 300.361181 116.129916 
L 300.574014 116.129916 
L 300.786846 115.904287 
L 302.702339 115.904287 
L 302.915171 115.678657 
L 317.600611 115.678657 
L 317.813443 115.453027 
L 322.921422 115.453027 
L 323.134255 115.227398 
L 325.901077 115.227398 
L 326.113909 115.001768 
L 330.796223 115.001768 
L 331.221888 114.550509 
L 334.201543 114.550509 
L 334.414375 114.32488 
L 337.819694 114.32488 
L 338.245359 113.873621 
L 342.927673 113.873621 
L 343.353338 113.422361 
L 353.994961 113.422361 
L 354.207794 112.971102 
L 358.25161 112.971102 
L 358.464443 112.745473 
L 366.977741 112.745473 
L 367.190574 112.519843 
L 368.041904 112.519843 
L 368.254736 112.294214 
L 375.916705 112.294214 
L 375.916705 112.294214 
" clip-path="url(#p3b9d5c961b)" style="fill: none; stroke: #57db94; stroke-width: 1.2; stroke-linecap: round"/>
   </g>
   <g id="line2d_41">
    <path d="M 69.650795 483.229189 
L 70.07646 431.785652 
L 70.289293 413.960918 
L 70.502125 412.60714 
L 70.714958 412.155881 
L 70.92779 411.027734 
L 71.140623 410.576475 
L 71.353455 408.997068 
L 71.566288 391.397963 
L 71.991953 291.895333 
L 72.204785 291.895333 
L 72.843282 287.834001 
L 73.268947 285.803335 
L 73.694612 285.352076 
L 73.907445 283.998299 
L 74.120277 238.42113 
L 74.33311 238.195501 
L 74.545942 238.195501 
L 74.971607 237.744242 
L 75.397272 237.744242 
L 75.822937 237.067353 
L 76.035769 212.473733 
L 76.248602 211.119955 
L 77.525596 211.119955 
L 77.738429 210.894326 
L 77.951261 209.766178 
L 78.164094 209.766178 
L 78.376926 209.314919 
L 78.802591 209.314919 
L 79.015424 208.86366 
L 79.228256 190.587666 
L 79.653921 188.557001 
L 80.505251 188.557001 
L 80.718083 188.105741 
L 80.930916 188.105741 
L 81.143748 183.367521 
L 81.356581 183.141891 
L 81.569413 183.141891 
L 81.782246 182.916262 
L 81.995078 182.916262 
L 82.207911 182.690632 
L 82.420743 178.85493 
L 82.633575 178.629301 
L 82.846408 178.629301 
L 83.05924 175.470487 
L 83.272073 175.244857 
L 83.484905 175.244857 
L 83.697738 172.988562 
L 83.91057 172.762932 
L 84.123403 172.762932 
L 84.336235 170.957896 
L 84.7619 170.506637 
L 84.974733 169.829748 
L 85.400397 169.829748 
L 85.61323 169.604119 
L 86.038895 169.604119 
L 86.251727 163.512121 
L 86.46456 163.060862 
L 86.677392 161.932714 
L 86.890225 161.932714 
L 87.31589 161.481455 
L 87.954387 161.481455 
L 88.167219 155.615087 
L 88.380052 155.389457 
L 89.231382 155.389457 
L 89.444214 154.938198 
L 89.869879 151.779384 
L 90.508376 151.779384 
L 90.721209 151.553755 
L 90.934041 149.974348 
L 91.359706 149.974348 
L 91.572539 149.297459 
L 92.423869 149.297459 
L 92.849534 147.943682 
L 93.275198 147.943682 
L 94.126528 146.364275 
L 94.339361 146.364275 
L 94.552193 145.236128 
L 94.765026 142.979832 
L 95.190691 142.979832 
L 95.403523 142.077314 
L 96.04202 142.077314 
L 96.254853 140.723537 
L 96.680518 140.046648 
L 97.74468 140.046648 
L 97.957513 138.241612 
L 98.170345 138.241612 
L 98.383177 138.015982 
L 98.59601 136.662205 
L 98.808842 136.436575 
L 99.021675 135.985316 
L 99.234507 135.985316 
L 99.44734 135.082798 
L 99.660172 135.082798 
L 99.873005 134.857168 
L 100.085837 134.857168 
L 100.29867 134.631539 
L 100.511502 134.631539 
L 100.937167 134.18028 
L 101.362832 133.503391 
L 101.788497 133.503391 
L 102.001329 133.277762 
L 103.278324 133.277762 
L 103.491157 132.375243 
L 103.916821 132.375243 
L 104.129654 131.472725 
L 104.555319 131.472725 
L 104.768151 131.247096 
L 105.406649 131.247096 
L 105.619481 130.795837 
L 106.045146 130.795837 
L 106.257978 130.570207 
L 106.683643 130.570207 
L 106.896476 130.344578 
L 107.109308 130.344578 
L 107.322141 130.118948 
L 107.960638 130.118948 
L 108.173471 129.893318 
L 108.599136 129.893318 
L 108.811968 129.667689 
L 109.0248 129.667689 
L 109.450465 128.9908 
L 109.87613 128.9908 
L 110.088963 128.539541 
L 110.301795 128.539541 
L 110.514628 128.313912 
L 110.72746 128.313912 
L 110.940293 128.088282 
L 111.365957 128.088282 
L 111.57879 127.411393 
L 112.004455 126.960134 
L 112.217287 126.960134 
L 112.43012 126.734505 
L 112.642952 126.283246 
L 113.28145 126.283246 
L 113.494282 126.057616 
L 113.707115 126.057616 
L 113.919947 125.831987 
L 114.132779 125.831987 
L 114.345612 124.929468 
L 114.771277 124.929468 
L 114.984109 124.703839 
L 115.196942 124.703839 
L 115.409774 124.478209 
L 115.622607 123.801321 
L 116.686769 123.801321 
L 116.899601 123.575691 
L 117.538099 123.575691 
L 117.963764 122.898802 
L 118.389429 122.898802 
L 118.602261 122.673173 
L 119.027926 122.673173 
L 119.240758 122.447543 
L 119.879256 122.447543 
L 120.092088 122.221914 
L 120.943418 122.221914 
L 121.156251 121.770655 
L 123.923073 121.770655 
L 124.135905 121.545025 
L 124.56157 121.545025 
L 124.987235 121.093766 
L 125.838565 121.093766 
L 126.051397 120.868137 
L 126.477062 120.868137 
L 126.689895 120.642507 
L 127.966889 120.642507 
L 128.179722 120.191248 
L 129.669549 120.191248 
L 129.882381 119.739989 
L 131.585041 119.739989 
L 132.010706 119.28873 
L 133.500533 119.28873 
L 133.713366 119.0631 
L 134.351863 119.0631 
L 134.564696 118.837471 
L 134.777528 118.837471 
L 134.99036 118.611841 
L 136.480188 118.611841 
L 136.69302 118.386212 
L 138.821345 118.386212 
L 139.034177 117.934952 
L 139.24701 117.934952 
L 139.459842 117.709323 
L 139.885507 117.709323 
L 140.09834 117.258064 
L 140.524004 117.258064 
L 140.736837 117.032434 
L 142.865161 117.032434 
L 143.077994 116.806805 
L 144.354989 116.806805 
L 144.567821 116.355546 
L 145.206319 116.355546 
L 145.419151 116.129916 
L 146.908978 116.129916 
L 147.121811 115.904287 
L 148.185973 115.904287 
L 148.398805 115.678657 
L 149.250135 115.678657 
L 149.462968 115.453027 
L 151.37846 115.453027 
L 151.591292 114.550509 
L 152.868287 114.550509 
L 153.08112 114.32488 
L 156.486439 114.32488 
L 156.699271 114.09925 
L 160.104591 114.09925 
L 160.317423 113.873621 
L 160.955921 113.873621 
L 161.168753 113.647991 
L 164.148407 113.647991 
L 164.36124 113.196732 
L 167.979392 113.196732 
L 168.192224 112.971102 
L 168.405057 112.971102 
L 168.617889 112.745473 
L 169.469219 112.745473 
L 169.682051 112.519843 
L 174.151533 112.519843 
L 174.364365 112.294214 
L 175.854193 112.294214 
L 176.067025 112.068584 
L 178.621015 112.068584 
L 178.833847 111.842955 
L 181.813502 111.842955 
L 182.026334 111.617325 
L 182.877664 111.617325 
L 183.090496 111.391696 
L 183.516161 111.391696 
L 183.728994 111.166066 
L 185.431653 111.166066 
L 185.644486 110.940436 
L 187.347146 110.940436 
L 187.559978 110.714807 
L 193.306454 110.714807 
L 193.519287 110.489177 
L 200.542758 110.489177 
L 200.75559 110.263548 
L 204.16091 110.263548 
L 204.373742 110.037918 
L 207.566229 110.037918 
L 207.779062 109.812289 
L 210.971549 109.812289 
L 211.184381 109.586659 
L 214.376868 109.586659 
L 214.5897 109.36103 
L 218.84635 109.36103 
L 219.059182 109.1354 
L 222.464501 109.1354 
L 222.677334 108.909771 
L 226.295486 108.909771 
L 226.508318 108.458511 
L 228.42381 108.458511 
L 228.636643 108.007252 
L 230.12647 108.007252 
L 230.339302 107.555993 
L 233.106124 107.555993 
L 233.318957 107.104734 
L 233.744622 107.104734 
L 233.957454 106.879105 
L 234.170287 106.879105 
L 234.383119 106.653475 
L 238.426936 106.653475 
L 238.639768 106.202216 
L 241.832255 106.202216 
L 242.045088 105.750957 
L 242.470752 105.750957 
L 242.683585 105.525327 
L 246.088904 105.525327 
L 246.301737 105.074068 
L 255.666365 105.074068 
L 255.879197 104.848439 
L 259.497349 104.848439 
L 259.710182 104.622809 
L 264.818161 104.622809 
L 265.030993 104.17155 
L 272.692962 104.17155 
L 272.905794 103.945921 
L 296.104532 103.945921 
L 296.317365 103.720291 
L 301.851009 103.720291 
L 302.063841 103.269032 
L 305.681993 103.269032 
L 305.894825 103.043402 
L 316.962113 103.043402 
L 317.174946 102.817773 
L 322.921422 102.817773 
L 323.134255 102.592143 
L 330.796223 102.592143 
L 331.009056 101.689625 
L 333.98871 101.689625 
L 334.201543 101.463996 
L 338.245359 101.463996 
L 338.458192 101.012736 
L 338.671024 101.012736 
L 338.883857 100.787107 
L 340.160851 100.787107 
L 340.373684 100.561477 
L 342.927673 100.561477 
L 343.140506 100.335848 
L 343.566171 100.335848 
L 343.779003 100.110218 
L 345.055998 100.110218 
L 345.26883 99.884589 
L 353.994961 99.884589 
L 354.207794 99.43333 
L 358.677275 99.43333 
L 358.890108 99.2077 
L 366.977741 99.2077 
L 367.190574 98.982071 
L 371.021558 98.982071 
L 371.23439 98.756441 
L 375.916705 98.756441 
L 375.916705 98.756441 
" clip-path="url(#p3b9d5c961b)" style="fill: none; stroke: #5784db; stroke-width: 1.2; stroke-linecap: round"/>
   </g>
   <g id="line2d_42">
    <path d="M 69.650795 473.978377 
L 70.502125 349.882126 
L 71.353455 297.536072 
L 72.417617 269.106749 
L 72.843282 263.014751 
L 73.056115 259.404678 
L 73.48178 242.708092 
L 74.120277 231.426614 
L 74.545942 222.175803 
L 74.971607 214.504398 
L 75.184439 213.150621 
L 75.397272 210.668696 
L 75.610104 209.540548 
L 76.035769 204.351069 
L 76.674267 199.387219 
L 76.887099 198.259071 
L 77.312764 194.423369 
L 77.738429 190.136407 
L 79.228256 181.788114 
L 79.653921 179.531819 
L 79.866754 179.08056 
L 80.292418 177.049894 
L 80.505251 176.373005 
L 80.718083 175.244857 
L 81.143748 174.793598 
L 81.356581 172.537303 
L 81.569413 172.086044 
L 81.995078 170.506637 
L 82.207911 170.055378 
L 82.420743 169.15286 
L 82.633575 168.92723 
L 82.846408 168.024712 
L 83.272073 165.542787 
L 83.484905 164.640269 
L 83.91057 164.18901 
L 84.123403 163.73775 
L 85.187565 156.968864 
L 85.400397 156.517605 
L 85.61323 155.389457 
L 85.826062 154.938198 
L 86.251727 153.133162 
L 86.46456 153.133162 
L 87.31589 149.523089 
L 87.528722 147.266794 
L 87.954387 146.589905 
L 88.167219 146.364275 
L 88.592884 145.236128 
L 88.805717 144.559239 
L 89.231382 144.10798 
L 89.444214 143.431091 
L 89.657047 143.431091 
L 89.869879 141.851684 
L 90.082712 141.851684 
L 90.295544 141.626055 
L 90.721209 140.949166 
L 91.359706 140.949166 
L 91.572539 140.046648 
L 91.785371 140.046648 
L 91.998204 139.821018 
L 92.636701 138.015982 
L 93.488031 137.113464 
L 93.700863 136.436575 
L 94.339361 135.759687 
L 94.552193 133.052132 
L 94.765026 132.375243 
L 94.977858 132.149614 
L 95.190691 132.149614 
L 95.829188 130.795837 
L 96.04202 129.667689 
L 96.467685 129.667689 
L 96.680518 128.9908 
L 96.89335 128.765171 
L 97.531848 126.960134 
L 97.74468 126.508875 
L 98.383177 126.508875 
L 98.59601 125.831987 
L 98.808842 125.606357 
L 99.021675 124.929468 
L 99.660172 124.25258 
L 100.085837 124.25258 
L 100.29867 124.02695 
L 100.511502 124.02695 
L 101.362832 123.124432 
L 101.575664 123.124432 
L 101.788497 122.898802 
L 103.065492 122.898802 
L 103.703989 121.770655 
L 103.916821 121.545025 
L 104.129654 120.868137 
L 104.555319 120.868137 
L 104.768151 120.642507 
L 104.980984 120.191248 
L 105.619481 120.191248 
L 105.832314 119.965618 
L 106.896476 119.965618 
L 107.534973 119.28873 
L 108.386303 119.28873 
L 108.599136 119.0631 
L 109.0248 119.0631 
L 109.450465 118.611841 
L 109.87613 118.611841 
L 111.365957 117.032434 
L 111.791622 117.032434 
L 112.217287 116.581175 
L 112.43012 116.581175 
L 112.642952 116.129916 
L 113.068617 116.129916 
L 113.28145 115.904287 
L 113.707115 115.904287 
L 114.132779 115.453027 
L 114.345612 114.776139 
L 114.558444 114.776139 
L 114.771277 114.550509 
L 114.984109 114.550509 
L 115.196942 114.32488 
L 115.409774 113.873621 
L 115.622607 113.873621 
L 115.835439 113.422361 
L 116.048272 113.422361 
L 116.261104 113.196732 
L 116.473937 113.196732 
L 116.686769 112.745473 
L 118.176596 112.745473 
L 118.389429 112.519843 
L 118.815094 112.519843 
L 119.027926 112.294214 
L 119.879256 112.294214 
L 120.092088 112.068584 
L 120.943418 112.068584 
L 121.156251 111.842955 
L 123.923073 111.842955 
L 124.135905 111.617325 
L 124.774402 111.617325 
L 124.987235 111.391696 
L 125.625732 111.391696 
L 126.26423 110.714807 
L 126.477062 110.714807 
L 126.689895 110.489177 
L 127.966889 110.489177 
L 128.179722 110.263548 
L 129.243884 110.263548 
L 129.456717 110.037918 
L 129.669549 110.037918 
L 129.882381 109.812289 
L 131.372209 109.812289 
L 131.797874 109.36103 
L 133.074868 109.36103 
L 133.287701 109.1354 
L 133.500533 109.1354 
L 133.713366 108.909771 
L 134.139031 108.909771 
L 134.351863 108.684141 
L 135.84169 108.684141 
L 136.054523 108.458511 
L 137.970015 108.458511 
L 138.182847 108.232882 
L 138.821345 108.232882 
L 139.034177 108.007252 
L 139.459842 108.007252 
L 139.885507 107.555993 
L 140.524004 107.555993 
L 140.736837 107.330364 
L 140.949669 107.330364 
L 141.162502 107.104734 
L 142.013832 107.104734 
L 142.226664 106.879105 
L 142.439497 106.879105 
L 142.652329 106.653475 
L 144.354989 106.653475 
L 144.567821 106.427846 
L 146.483313 106.427846 
L 146.696146 106.202216 
L 147.973141 106.202216 
L 148.185973 105.976586 
L 150.952795 105.976586 
L 151.165627 105.750957 
L 151.37846 105.750957 
L 151.591292 105.074068 
L 156.060774 105.074068 
L 156.273606 104.848439 
L 157.337769 104.848439 
L 157.550601 104.622809 
L 159.891758 104.622809 
L 160.104591 104.17155 
L 162.232915 104.17155 
L 162.445748 103.494661 
L 167.553727 103.494661 
L 167.766559 103.269032 
L 168.192224 103.269032 
L 168.405057 103.043402 
L 169.469219 103.043402 
L 169.682051 102.817773 
L 173.938701 102.817773 
L 174.151533 102.592143 
L 177.34402 102.592143 
L 177.556852 102.366514 
L 181.175004 102.366514 
L 181.387837 102.140884 
L 181.600669 102.140884 
L 181.813502 101.915255 
L 185.431653 101.915255 
L 185.644486 101.689625 
L 186.070151 101.689625 
L 186.282983 101.463996 
L 186.708648 101.463996 
L 186.921481 101.238366 
L 200.542758 101.238366 
L 200.75559 101.012736 
L 203.735245 101.012736 
L 203.948077 100.787107 
L 207.779062 100.787107 
L 207.991894 100.561477 
L 218.84635 100.561477 
L 219.059182 100.335848 
L 226.295486 100.335848 
L 226.508318 99.884589 
L 228.42381 99.884589 
L 228.636643 99.43333 
L 229.913637 99.43333 
L 230.764967 98.530811 
L 232.893292 98.530811 
L 233.318957 98.079552 
L 233.531789 98.079552 
L 233.744622 97.628293 
L 234.170287 97.628293 
L 234.383119 97.402664 
L 235.447281 97.402664 
L 235.660114 97.177034 
L 237.362773 97.177034 
L 237.575606 96.951405 
L 238.426936 96.951405 
L 238.639768 96.725775 
L 241.832255 96.725775 
L 242.045088 96.500145 
L 242.470752 96.500145 
L 242.683585 96.274516 
L 246.088904 96.274516 
L 246.301737 95.823257 
L 255.666365 95.823257 
L 255.879197 95.597627 
L 257.369025 95.597627 
L 257.581857 95.371998 
L 258.220354 95.371998 
L 258.433187 95.146368 
L 263.541166 95.146368 
L 263.753998 94.920739 
L 271.841632 94.920739 
L 272.054464 94.695109 
L 288.442564 94.695109 
L 288.655396 94.46948 
L 298.871354 94.46948 
L 299.084187 94.24385 
L 300.148349 94.24385 
L 300.574014 93.792591 
L 302.702339 93.792591 
L 302.915171 93.566961 
L 305.681993 93.566961 
L 305.894825 93.341332 
L 316.749281 93.341332 
L 316.962113 93.115702 
L 322.921422 93.115702 
L 323.134255 92.890073 
L 325.688244 92.890073 
L 325.901077 92.664443 
L 330.796223 92.664443 
L 331.221888 92.213184 
L 333.98871 92.213184 
L 334.201543 91.987555 
L 335.69137 91.987555 
L 335.904202 91.761925 
L 337.819694 91.761925 
L 338.245359 91.310666 
L 340.160851 91.310666 
L 340.373684 91.085036 
L 342.927673 91.085036 
L 343.353338 90.633777 
L 353.994961 90.633777 
L 354.207794 90.182518 
L 358.25161 90.182518 
L 358.464443 89.956889 
L 366.977741 89.956889 
L 367.190574 89.731259 
L 368.041904 89.731259 
L 368.254736 89.50563 
L 370.808726 89.50563 
L 371.021558 89.28 
L 375.916705 89.28 
L 375.916705 89.28 
" clip-path="url(#p3b9d5c961b)" style="fill: none; stroke: #c957db; stroke-width: 1.2; stroke-linecap: round"/>
   </g>
   <g id="line2d_43"/>
   <g id="line2d_44"/>
   <g id="line2d_45"/>
   <g id="line2d_46"/>
   <g id="line2d_47"/>
   <g id="patch_3">
    <path d="M 54.3375 512.64 
L 54.3375 69.12 
" style="fill: none; stroke: #cccccc; stroke-linejoin: miter; stroke-linecap: square"/>
   </g>
   <g id="patch_4">
    <path d="M 54.3375 512.64 
L 391.23 512.64 
" style="fill: none; stroke: #cccccc; stroke-linejoin: miter; stroke-linecap: square"/>
   </g>
   <g id="text_40">
    <!-- Edge Coverage History -->
    <g style="fill: #262626" transform="translate(115.892262 63.12)scale(0.165888 -0.165888)">
     <defs>
      <path id="DejaVuSans-Bold-45" d="M 588 4666 
L 3834 4666 
L 3834 3756 
L 1791 3756 
L 1791 2888 
L 3713 2888 
L 3713 1978 
L 1791 1978 
L 1791 909 
L 3903 909 
L 3903 0 
L 588 0 
L 588 4666 
z
" transform="scale(0.015625)"/>
      <path id="DejaVuSans-Bold-64" d="M 2919 2988 
L 2919 4863 
L 4044 4863 
L 4044 0 
L 2919 0 
L 2919 506 
Q 2688 197 2409 53 
Q 2131 -91 1766 -91 
Q 1119 -91 703 423 
Q 288 938 288 1747 
Q 288 2556 703 3070 
Q 1119 3584 1766 3584 
Q 2128 3584 2408 3439 
Q 2688 3294 2919 2988 
z
M 2181 722 
Q 2541 722 2730 984 
Q 2919 1247 2919 1747 
Q 2919 2247 2730 2509 
Q 2541 2772 2181 2772 
Q 1825 2772 1636 2509 
Q 1447 2247 1447 1747 
Q 1447 1247 1636 984 
Q 1825 722 2181 722 
z
" transform="scale(0.015625)"/>
      <path id="DejaVuSans-Bold-67" d="M 2919 594 
Q 2688 288 2409 144 
Q 2131 0 1766 0 
Q 1125 0 706 504 
Q 288 1009 288 1791 
Q 288 2575 706 3076 
Q 1125 3578 1766 3578 
Q 2131 3578 2409 3434 
Q 2688 3291 2919 2981 
L 2919 3500 
L 4044 3500 
L 4044 353 
Q 4044 -491 3511 -936 
Q 2978 -1381 1966 -1381 
Q 1638 -1381 1331 -1331 
Q 1025 -1281 716 -1178 
L 716 -306 
Q 1009 -475 1290 -558 
Q 1572 -641 1856 -641 
Q 2406 -641 2662 -400 
Q 2919 -159 2919 353 
L 2919 594 
z
M 2181 2772 
Q 1834 2772 1640 2515 
Q 1447 2259 1447 1791 
Q 1447 1309 1634 1061 
Q 1822 813 2181 813 
Q 2531 813 2725 1069 
Q 2919 1325 2919 1791 
Q 2919 2259 2725 2515 
Q 2531 2772 2181 2772 
z
" transform="scale(0.015625)"/>
      <path id="DejaVuSans-Bold-65" d="M 4031 1759 
L 4031 1441 
L 1416 1441 
Q 1456 1047 1700 850 
Q 1944 653 2381 653 
Q 2734 653 3104 758 
Q 3475 863 3866 1075 
L 3866 213 
Q 3469 63 3072 -14 
Q 2675 -91 2278 -91 
Q 1328 -91 801 392 
Q 275 875 275 1747 
Q 275 2603 792 3093 
Q 1309 3584 2216 3584 
Q 3041 3584 3536 3087 
Q 4031 2591 4031 1759 
z
M 2881 2131 
Q 2881 2450 2695 2645 
Q 2509 2841 2209 2841 
Q 1884 2841 1681 2658 
Q 1478 2475 1428 2131 
L 2881 2131 
z
" transform="scale(0.015625)"/>
      <path id="DejaVuSans-Bold-20" transform="scale(0.015625)"/>
      <path id="DejaVuSans-Bold-43" d="M 4288 256 
Q 3956 84 3597 -3 
Q 3238 -91 2847 -91 
Q 1681 -91 1000 561 
Q 319 1213 319 2328 
Q 319 3447 1000 4098 
Q 1681 4750 2847 4750 
Q 3238 4750 3597 4662 
Q 3956 4575 4288 4403 
L 4288 3438 
Q 3953 3666 3628 3772 
Q 3303 3878 2944 3878 
Q 2300 3878 1931 3465 
Q 1563 3053 1563 2328 
Q 1563 1606 1931 1193 
Q 2300 781 2944 781 
Q 3303 781 3628 887 
Q 3953 994 4288 1222 
L 4288 256 
z
" transform="scale(0.015625)"/>
      <path id="DejaVuSans-Bold-6f" d="M 2203 2784 
Q 1831 2784 1636 2517 
Q 1441 2250 1441 1747 
Q 1441 1244 1636 976 
Q 1831 709 2203 709 
Q 2569 709 2762 976 
Q 2956 1244 2956 1747 
Q 2956 2250 2762 2517 
Q 2569 2784 2203 2784 
z
M 2203 3584 
Q 3106 3584 3614 3096 
Q 4122 2609 4122 1747 
Q 4122 884 3614 396 
Q 3106 -91 2203 -91 
Q 1297 -91 786 396 
Q 275 884 275 1747 
Q 275 2609 786 3096 
Q 1297 3584 2203 3584 
z
" transform="scale(0.015625)"/>
      <path id="DejaVuSans-Bold-76" d="M 97 3500 
L 1216 3500 
L 2088 1081 
L 2956 3500 
L 4078 3500 
L 2700 0 
L 1472 0 
L 97 3500 
z
" transform="scale(0.015625)"/>
      <path id="DejaVuSans-Bold-72" d="M 3138 2547 
Q 2991 2616 2845 2648 
Q 2700 2681 2553 2681 
Q 2122 2681 1889 2404 
Q 1656 2128 1656 1613 
L 1656 0 
L 538 0 
L 538 3500 
L 1656 3500 
L 1656 2925 
Q 1872 3269 2151 3426 
Q 2431 3584 2822 3584 
Q 2878 3584 2943 3579 
Q 3009 3575 3134 3559 
L 3138 2547 
z
" transform="scale(0.015625)"/>
      <path id="DejaVuSans-Bold-61" d="M 2106 1575 
Q 1756 1575 1579 1456 
Q 1403 1338 1403 1106 
Q 1403 894 1545 773 
Q 1688 653 1941 653 
Q 2256 653 2472 879 
Q 2688 1106 2688 1447 
L 2688 1575 
L 2106 1575 
z
M 3816 1997 
L 3816 0 
L 2688 0 
L 2688 519 
Q 2463 200 2181 54 
Q 1900 -91 1497 -91 
Q 953 -91 614 226 
Q 275 544 275 1050 
Q 275 1666 698 1953 
Q 1122 2241 2028 2241 
L 2688 2241 
L 2688 2328 
Q 2688 2594 2478 2717 
Q 2269 2841 1825 2841 
Q 1466 2841 1156 2769 
Q 847 2697 581 2553 
L 581 3406 
Q 941 3494 1303 3539 
Q 1666 3584 2028 3584 
Q 2975 3584 3395 3211 
Q 3816 2838 3816 1997 
z
" transform="scale(0.015625)"/>
      <path id="DejaVuSans-Bold-48" d="M 588 4666 
L 1791 4666 
L 1791 2888 
L 3566 2888 
L 3566 4666 
L 4769 4666 
L 4769 0 
L 3566 0 
L 3566 1978 
L 1791 1978 
L 1791 0 
L 588 0 
L 588 4666 
z
" transform="scale(0.015625)"/>
      <path id="DejaVuSans-Bold-69" d="M 538 3500 
L 1656 3500 
L 1656 0 
L 538 0 
L 538 3500 
z
M 538 4863 
L 1656 4863 
L 1656 3950 
L 538 3950 
L 538 4863 
z
" transform="scale(0.015625)"/>
      <path id="DejaVuSans-Bold-73" d="M 3272 3391 
L 3272 2541 
Q 2913 2691 2578 2766 
Q 2244 2841 1947 2841 
Q 1628 2841 1473 2761 
Q 1319 2681 1319 2516 
Q 1319 2381 1436 2309 
Q 1553 2238 1856 2203 
L 2053 2175 
Q 2913 2066 3209 1816 
Q 3506 1566 3506 1031 
Q 3506 472 3093 190 
Q 2681 -91 1863 -91 
Q 1516 -91 1145 -36 
Q 775 19 384 128 
L 384 978 
Q 719 816 1070 734 
Q 1422 653 1784 653 
Q 2113 653 2278 743 
Q 2444 834 2444 1013 
Q 2444 1163 2330 1236 
Q 2216 1309 1875 1350 
L 1678 1375 
Q 931 1469 631 1722 
Q 331 1975 331 2491 
Q 331 3047 712 3315 
Q 1094 3584 1881 3584 
Q 2191 3584 2531 3537 
Q 2872 3491 3272 3391 
z
" transform="scale(0.015625)"/>
      <path id="DejaVuSans-Bold-74" d="M 1759 4494 
L 1759 3500 
L 2913 3500 
L 2913 2700 
L 1759 2700 
L 1759 1216 
Q 1759 972 1856 886 
Q 1953 800 2241 800 
L 2816 800 
L 2816 0 
L 1856 0 
Q 1194 0 917 276 
Q 641 553 641 1216 
L 641 2700 
L 84 2700 
L 84 3500 
L 641 3500 
L 641 4494 
L 1759 4494 
z
" transform="scale(0.015625)"/>
      <path id="DejaVuSans-Bold-79" d="M 78 3500 
L 1197 3500 
L 2138 1125 
L 2938 3500 
L 4056 3500 
L 2584 -331 
Q 2363 -916 2067 -1148 
Q 1772 -1381 1288 -1381 
L 641 -1381 
L 641 -647 
L 991 -647 
Q 1275 -647 1404 -556 
Q 1534 -466 1606 -231 
L 1638 -134 
L 78 3500 
z
" transform="scale(0.015625)"/>
     </defs>
     <use xlink:href="#DejaVuSans-Bold-45"/>
     <use xlink:href="#DejaVuSans-Bold-64" x="68.310547"/>
     <use xlink:href="#DejaVuSans-Bold-67" x="139.892578"/>
     <use xlink:href="#DejaVuSans-Bold-65" x="211.474609"/>
     <use xlink:href="#DejaVuSans-Bold-20" x="279.296875"/>
     <use xlink:href="#DejaVuSans-Bold-43" x="314.111328"/>
     <use xlink:href="#DejaVuSans-Bold-6f" x="387.5"/>
     <use xlink:href="#DejaVuSans-Bold-76" x="456.201172"/>
     <use xlink:href="#DejaVuSans-Bold-65" x="521.386719"/>
     <use xlink:href="#DejaVuSans-Bold-72" x="589.208984"/>
     <use xlink:href="#DejaVuSans-Bold-61" x="638.525391"/>
     <use xlink:href="#DejaVuSans-Bold-67" x="706.005859"/>
     <use xlink:href="#DejaVuSans-Bold-65" x="777.587891"/>
     <use xlink:href="#DejaVuSans-Bold-20" x="845.410156"/>
     <use xlink:href="#DejaVuSans-Bold-48" x="880.224609"/>
     <use xlink:href="#DejaVuSans-Bold-69" x="963.916016"/>
     <use xlink:href="#DejaVuSans-Bold-73" x="998.193359"/>
     <use xlink:href="#DejaVuSans-Bold-74" x="1057.714844"/>
     <use xlink:href="#DejaVuSans-Bold-6f" x="1105.517578"/>
     <use xlink:href="#DejaVuSans-Bold-72" x="1174.21875"/>
     <use xlink:href="#DejaVuSans-Bold-79" x="1223.535156"/>
    </g>
   </g>
   <g id="legend_1">
    <g id="patch_5">
     <path d="M 273.541 508.24 
L 385.07 508.24 
Q 386.83 508.24 386.83 506.48 
L 386.83 428.8405 
Q 386.83 427.0805 385.07 427.0805 
L 273.541 427.0805 
Q 271.781 427.0805 271.781 428.8405 
L 271.781 506.48 
Q 271.781 508.24 273.541 508.24 
z
" style="fill: #ffffff; opacity: 0.8; stroke: #cccccc; stroke-width: 0.8; stroke-linejoin: miter"/>
    </g>
    <g id="text_41">
     <!-- fuzzer -->
     <g style="fill: #262626" transform="translate(314.6085 437.895)scale(0.096 -0.096)">
      <defs>
       <path id="DejaVuSans-66" d="M 2375 4863 
L 2375 4384 
L 1825 4384 
Q 1516 4384 1395 4259 
Q 1275 4134 1275 3809 
L 1275 3500 
L 2222 3500 
L 2222 3053 
L 1275 3053 
L 1275 0 
L 697 0 
L 697 3053 
L 147 3053 
L 147 3500 
L 697 3500 
L 697 3744 
Q 697 4328 969 4595 
Q 1241 4863 1831 4863 
L 2375 4863 
z
" transform="scale(0.015625)"/>
       <path id="DejaVuSans-7a" d="M 353 3500 
L 3084 3500 
L 3084 2975 
L 922 459 
L 3084 459 
L 3084 0 
L 275 0 
L 275 525 
L 2438 3041 
L 353 3041 
L 353 3500 
z
" transform="scale(0.015625)"/>
      </defs>
      <use xlink:href="#DejaVuSans-66"/>
      <use xlink:href="#DejaVuSans-75" x="35.205078"/>
      <use xlink:href="#DejaVuSans-7a" x="98.583984"/>
      <use xlink:href="#DejaVuSans-7a" x="151.074219"/>
      <use xlink:href="#DejaVuSans-65" x="203.564453"/>
      <use xlink:href="#DejaVuSans-72" x="265.087891"/>
     </g>
    </g>
    <g id="line2d_48">
     <path d="M 275.301 447.898125 
L 284.101 447.898125 
L 292.901 447.898125 
" style="fill: none; stroke: #db5f57; stroke-width: 1.2; stroke-linecap: round"/>
    </g>
    <g id="text_42">
     <!-- mopt-0-exid3 -->
     <g style="fill: #262626" transform="translate(299.941 450.978125)scale(0.088 -0.088)">
      <defs>
       <path id="DejaVuSans-70" d="M 1159 525 
L 1159 -1331 
L 581 -1331 
L 581 3500 
L 1159 3500 
L 1159 2969 
Q 1341 3281 1617 3432 
Q 1894 3584 2278 3584 
Q 2916 3584 3314 3078 
Q 3713 2572 3713 1747 
Q 3713 922 3314 415 
Q 2916 -91 2278 -91 
Q 1894 -91 1617 61 
Q 1341 213 1159 525 
z
M 3116 1747 
Q 3116 2381 2855 2742 
Q 2594 3103 2138 3103 
Q 1681 3103 1420 2742 
Q 1159 2381 1159 1747 
Q 1159 1113 1420 752 
Q 1681 391 2138 391 
Q 2594 391 2855 752 
Q 3116 1113 3116 1747 
z
" transform="scale(0.015625)"/>
       <path id="DejaVuSans-2d" d="M 313 2009 
L 1997 2009 
L 1997 1497 
L 313 1497 
L 313 2009 
z
" transform="scale(0.015625)"/>
       <path id="DejaVuSans-78" d="M 3513 3500 
L 2247 1797 
L 3578 0 
L 2900 0 
L 1881 1375 
L 863 0 
L 184 0 
L 1544 1831 
L 300 3500 
L 978 3500 
L 1906 2253 
L 2834 3500 
L 3513 3500 
z
" transform="scale(0.015625)"/>
      </defs>
      <use xlink:href="#DejaVuSans-6d"/>
      <use xlink:href="#DejaVuSans-6f" x="97.412109"/>
      <use xlink:href="#DejaVuSans-70" x="158.59375"/>
      <use xlink:href="#DejaVuSans-74" x="222.070312"/>
      <use xlink:href="#DejaVuSans-2d" x="261.279297"/>
      <use xlink:href="#DejaVuSans-30" x="297.363281"/>
      <use xlink:href="#DejaVuSans-2d" x="360.986328"/>
      <use xlink:href="#DejaVuSans-65" x="397.070312"/>
      <use xlink:href="#DejaVuSans-78" x="456.84375"/>
      <use xlink:href="#DejaVuSans-69" x="516.023438"/>
      <use xlink:href="#DejaVuSans-64" x="543.806641"/>
      <use xlink:href="#DejaVuSans-33" x="607.283203"/>
     </g>
    </g>
    <g id="line2d_49">
     <path d="M 275.301 460.814875 
L 284.101 460.814875 
L 292.901 460.814875 
" style="fill: none; stroke: #b9db57; stroke-width: 1.2; stroke-linecap: round"/>
    </g>
    <g id="text_43">
     <!-- fairfuzz-0-exid3 -->
     <g style="fill: #262626" transform="translate(299.941 463.894875)scale(0.088 -0.088)">
      <use xlink:href="#DejaVuSans-66"/>
      <use xlink:href="#DejaVuSans-61" x="35.205078"/>
      <use xlink:href="#DejaVuSans-69" x="96.484375"/>
      <use xlink:href="#DejaVuSans-72" x="124.267578"/>
      <use xlink:href="#DejaVuSans-66" x="165.380859"/>
      <use xlink:href="#DejaVuSans-75" x="200.585938"/>
      <use xlink:href="#DejaVuSans-7a" x="263.964844"/>
      <use xlink:href="#DejaVuSans-7a" x="316.455078"/>
      <use xlink:href="#DejaVuSans-2d" x="368.945312"/>
      <use xlink:href="#DejaVuSans-30" x="405.029297"/>
      <use xlink:href="#DejaVuSans-2d" x="468.652344"/>
      <use xlink:href="#DejaVuSans-65" x="504.736328"/>
      <use xlink:href="#DejaVuSans-78" x="564.509766"/>
      <use xlink:href="#DejaVuSans-69" x="623.689453"/>
      <use xlink:href="#DejaVuSans-64" x="651.472656"/>
      <use xlink:href="#DejaVuSans-33" x="714.949219"/>
     </g>
    </g>
    <g id="line2d_50">
     <path d="M 275.301 473.731625 
L 284.101 473.731625 
L 292.901 473.731625 
" style="fill: none; stroke: #57db94; stroke-width: 1.2; stroke-linecap: round"/>
    </g>
    <g id="text_44">
     <!-- symcc-0-exid3 -->
     <g style="fill: #262626" transform="translate(299.941 476.811625)scale(0.088 -0.088)">
      <defs>
       <path id="DejaVuSans-79" d="M 2059 -325 
Q 1816 -950 1584 -1140 
Q 1353 -1331 966 -1331 
L 506 -1331 
L 506 -850 
L 844 -850 
Q 1081 -850 1212 -737 
Q 1344 -625 1503 -206 
L 1606 56 
L 191 3500 
L 800 3500 
L 1894 763 
L 2988 3500 
L 3597 3500 
L 2059 -325 
z
" transform="scale(0.015625)"/>
       <path id="DejaVuSans-63" d="M 3122 3366 
L 3122 2828 
Q 2878 2963 2633 3030 
Q 2388 3097 2138 3097 
Q 1578 3097 1268 2742 
Q 959 2388 959 1747 
Q 959 1106 1268 751 
Q 1578 397 2138 397 
Q 2388 397 2633 464 
Q 2878 531 3122 666 
L 3122 134 
Q 2881 22 2623 -34 
Q 2366 -91 2075 -91 
Q 1284 -91 818 406 
Q 353 903 353 1747 
Q 353 2603 823 3093 
Q 1294 3584 2113 3584 
Q 2378 3584 2631 3529 
Q 2884 3475 3122 3366 
z
" transform="scale(0.015625)"/>
      </defs>
      <use xlink:href="#DejaVuSans-73"/>
      <use xlink:href="#DejaVuSans-79" x="52.099609"/>
      <use xlink:href="#DejaVuSans-6d" x="111.279297"/>
      <use xlink:href="#DejaVuSans-63" x="208.691406"/>
      <use xlink:href="#DejaVuSans-63" x="263.671875"/>
      <use xlink:href="#DejaVuSans-2d" x="318.652344"/>
      <use xlink:href="#DejaVuSans-30" x="354.736328"/>
      <use xlink:href="#DejaVuSans-2d" x="418.359375"/>
      <use xlink:href="#DejaVuSans-65" x="454.443359"/>
      <use xlink:href="#DejaVuSans-78" x="514.216797"/>
      <use xlink:href="#DejaVuSans-69" x="573.396484"/>
      <use xlink:href="#DejaVuSans-64" x="601.179688"/>
      <use xlink:href="#DejaVuSans-33" x="664.65625"/>
     </g>
    </g>
    <g id="line2d_51">
     <path d="M 275.301 486.648375 
L 284.101 486.648375 
L 292.901 486.648375 
" style="fill: none; stroke: #5784db; stroke-width: 1.2; stroke-linecap: round"/>
    </g>
    <g id="text_45">
     <!-- aflplusplus-0-exid3 -->
     <g style="fill: #262626" transform="translate(299.941 489.728375)scale(0.088 -0.088)">
      <defs>
       <path id="DejaVuSans-6c" d="M 603 4863 
L 1178 4863 
L 1178 0 
L 603 0 
L 603 4863 
z
" transform="scale(0.015625)"/>
      </defs>
      <use xlink:href="#DejaVuSans-61"/>
      <use xlink:href="#DejaVuSans-66" x="61.279297"/>
      <use xlink:href="#DejaVuSans-6c" x="96.484375"/>
      <use xlink:href="#DejaVuSans-70" x="124.267578"/>
      <use xlink:href="#DejaVuSans-6c" x="187.744141"/>
      <use xlink:href="#DejaVuSans-75" x="215.527344"/>
      <use xlink:href="#DejaVuSans-73" x="278.90625"/>
      <use xlink:href="#DejaVuSans-70" x="331.005859"/>
      <use xlink:href="#DejaVuSans-6c" x="394.482422"/>
      <use xlink:href="#DejaVuSans-75" x="422.265625"/>
      <use xlink:href="#DejaVuSans-73" x="485.644531"/>
      <use xlink:href="#DejaVuSans-2d" x="537.744141"/>
      <use xlink:href="#DejaVuSans-30" x="573.828125"/>
      <use xlink:href="#DejaVuSans-2d" x="637.451172"/>
      <use xlink:href="#DejaVuSans-65" x="673.535156"/>
      <use xlink:href="#DejaVuSans-78" x="733.308594"/>
      <use xlink:href="#DejaVuSans-69" x="792.488281"/>
      <use xlink:href="#DejaVuSans-64" x="820.271484"/>
      <use xlink:href="#DejaVuSans-33" x="883.748047"/>
     </g>
    </g>
    <g id="line2d_52">
     <path d="M 275.301 499.565125 
L 284.101 499.565125 
L 292.901 499.565125 
" style="fill: none; stroke: #c957db; stroke-width: 1.2; stroke-linecap: round"/>
    </g>
    <g id="text_46">
     <!-- fuzzer_global -->
     <g style="fill: #262626" transform="translate(299.941 502.645125)scale(0.088 -0.088)">
      <defs>
       <path id="DejaVuSans-5f" d="M 3263 -1063 
L 3263 -1509 
L -63 -1509 
L -63 -1063 
L 3263 -1063 
z
" transform="scale(0.015625)"/>
       <path id="DejaVuSans-62" d="M 3116 1747 
Q 3116 2381 2855 2742 
Q 2594 3103 2138 3103 
Q 1681 3103 1420 2742 
Q 1159 2381 1159 1747 
Q 1159 1113 1420 752 
Q 1681 391 2138 391 
Q 2594 391 2855 752 
Q 3116 1113 3116 1747 
z
M 1159 2969 
Q 1341 3281 1617 3432 
Q 1894 3584 2278 3584 
Q 2916 3584 3314 3078 
Q 3713 2572 3713 1747 
Q 3713 922 3314 415 
Q 2916 -91 2278 -91 
Q 1894 -91 1617 61 
Q 1341 213 1159 525 
L 1159 0 
L 581 0 
L 581 4863 
L 1159 4863 
L 1159 2969 
z
" transform="scale(0.015625)"/>
      </defs>
      <use xlink:href="#DejaVuSans-66"/>
      <use xlink:href="#DejaVuSans-75" x="35.205078"/>
      <use xlink:href="#DejaVuSans-7a" x="98.583984"/>
      <use xlink:href="#DejaVuSans-7a" x="151.074219"/>
      <use xlink:href="#DejaVuSans-65" x="203.564453"/>
      <use xlink:href="#DejaVuSans-72" x="265.087891"/>
      <use xlink:href="#DejaVuSans-5f" x="306.201172"/>
      <use xlink:href="#DejaVuSans-67" x="356.201172"/>
      <use xlink:href="#DejaVuSans-6c" x="419.677734"/>
      <use xlink:href="#DejaVuSans-6f" x="447.460938"/>
      <use xlink:href="#DejaVuSans-62" x="508.642578"/>
      <use xlink:href="#DejaVuSans-61" x="572.119141"/>
      <use xlink:href="#DejaVuSans-6c" x="633.398438"/>
     </g>
    </g>
   </g>
  </g>
 </g>
 <defs>
  <clipPath id="p3b9d5c961b">
   <rect x="54.3375" y="69.12" width="336.8925" height="443.52"/>
  </clipPath>
 </defs>
</svg>
