<?xml version="1.0" encoding="utf-8" standalone="no"?>
<!DOCTYPE svg PUBLIC "-//W3C//DTD SVG 1.1//EN"
  "http://www.w3.org/Graphics/SVG/1.1/DTD/svg11.dtd">
<svg xmlns:xlink="http://www.w3.org/1999/xlink" width="434.4pt" height="576pt" viewBox="0 0 434.4 576" xmlns="http://www.w3.org/2000/svg" version="1.1">
 <metadata>
  <rdf:RDF xmlns:dc="http://purl.org/dc/elements/1.1/" xmlns:cc="http://creativecommons.org/ns#" xmlns:rdf="http://www.w3.org/1999/02/22-rdf-syntax-ns#">
   <cc:Work>
    <dc:type rdf:resource="http://purl.org/dc/dcmitype/StillImage"/>
    <dc:date>2022-09-15T10:47:32.290817</dc:date>
    <dc:format>image/svg+xml</dc:format>
    <dc:creator>
     <cc:Agent>
      <dc:title>Matplotlib v3.5.3, https://matplotlib.org/</dc:title>
     </cc:Agent>
    </dc:creator>
   </cc:Work>
  </rdf:RDF>
 </metadata>
 <defs>
  <style type="text/css">*{stroke-linejoin: round; stroke-linecap: butt}</style>
 </defs>
 <g id="figure_1">
  <g id="patch_1">
   <path d="M 0 576 
L 434.4 576 
L 434.4 0 
L 0 0 
z
" style="fill: #ffffff"/>
  </g>
  <g id="axes_1">
   <g id="patch_2">
    <path d="M 54.3 512.64 
L 390.96 512.64 
L 390.96 69.12 
L 54.3 69.12 
z
" style="fill: #ffffff"/>
   </g>
   <g id="matplotlib.axis_1">
    <g id="xtick_1">
     <g id="line2d_1">
      <path d="M 69.602727 512.64 
L 69.602727 69.12 
" clip-path="url(#pd1eaf4e437)" style="fill: none; stroke: #cccccc; stroke-width: 0.8; stroke-linecap: round"/>
     </g>
     <g id="text_1">
      <!-- 0 -->
      <g style="fill: #262626" transform="translate(69.340214 529.627249)rotate(-45)scale(0.088 -0.088)">
       <defs>
        <path id="DejaVuSans-30" d="M 2034 4250 
Q 1547 4250 1301 3770 
Q 1056 3291 1056 2328 
Q 1056 1369 1301 889 
Q 1547 409 2034 409 
Q 2525 409 2770 889 
Q 3016 1369 3016 2328 
Q 3016 3291 2770 3770 
Q 2525 4250 2034 4250 
z
M 2034 4750 
Q 2819 4750 3233 4129 
Q 3647 3509 3647 2328 
Q 3647 1150 3233 529 
Q 2819 -91 2034 -91 
Q 1250 -91 836 529 
Q 422 1150 422 2328 
Q 422 3509 836 4129 
Q 1250 4750 2034 4750 
z
" transform="scale(0.015625)"/>
       </defs>
       <use xlink:href="#DejaVuSans-30"/>
      </g>
     </g>
    </g>
    <g id="xtick_2">
     <g id="line2d_2">
      <path d="M 86.629406 512.64 
L 86.629406 69.12 
" clip-path="url(#pd1eaf4e437)" style="fill: none; stroke: #cccccc; stroke-width: 0.8; stroke-linecap: round"/>
     </g>
     <g id="text_2">
      <!-- 80 -->
      <g style="fill: #262626" transform="translate(84.387347 533.58634)rotate(-45)scale(0.088 -0.088)">
       <defs>
        <path id="DejaVuSans-38" d="M 2034 2216 
Q 1584 2216 1326 1975 
Q 1069 1734 1069 1313 
Q 1069 891 1326 650 
Q 1584 409 2034 409 
Q 2484 409 2743 651 
Q 3003 894 3003 1313 
Q 3003 1734 2745 1975 
Q 2488 2216 2034 2216 
z
M 1403 2484 
Q 997 2584 770 2862 
Q 544 3141 544 3541 
Q 544 4100 942 4425 
Q 1341 4750 2034 4750 
Q 2731 4750 3128 4425 
Q 3525 4100 3525 3541 
Q 3525 3141 3298 2862 
Q 3072 2584 2669 2484 
Q 3125 2378 3379 2068 
Q 3634 1759 3634 1313 
Q 3634 634 3220 271 
Q 2806 -91 2034 -91 
Q 1263 -91 848 271 
Q 434 634 434 1313 
Q 434 1759 690 2068 
Q 947 2378 1403 2484 
z
M 1172 3481 
Q 1172 3119 1398 2916 
Q 1625 2713 2034 2713 
Q 2441 2713 2670 2916 
Q 2900 3119 2900 3481 
Q 2900 3844 2670 4047 
Q 2441 4250 2034 4250 
Q 1625 4250 1398 4047 
Q 1172 3844 1172 3481 
z
" transform="scale(0.015625)"/>
       </defs>
       <use xlink:href="#DejaVuSans-38"/>
       <use xlink:href="#DejaVuSans-30" x="63.623047"/>
      </g>
     </g>
    </g>
    <g id="xtick_3">
     <g id="line2d_3">
      <path d="M 103.656084 512.64 
L 103.656084 69.12 
" clip-path="url(#pd1eaf4e437)" style="fill: none; stroke: #cccccc; stroke-width: 0.8; stroke-linecap: round"/>
     </g>
     <g id="text_3">
      <!-- 160 -->
      <g style="fill: #262626" transform="translate(99.43448 537.54543)rotate(-45)scale(0.088 -0.088)">
       <defs>
        <path id="DejaVuSans-31" d="M 794 531 
L 1825 531 
L 1825 4091 
L 703 3866 
L 703 4441 
L 1819 4666 
L 2450 4666 
L 2450 531 
L 3481 531 
L 3481 0 
L 794 0 
L 794 531 
z
" transform="scale(0.015625)"/>
        <path id="DejaVuSans-36" d="M 2113 2584 
Q 1688 2584 1439 2293 
Q 1191 2003 1191 1497 
Q 1191 994 1439 701 
Q 1688 409 2113 409 
Q 2538 409 2786 701 
Q 3034 994 3034 1497 
Q 3034 2003 2786 2293 
Q 2538 2584 2113 2584 
z
M 3366 4563 
L 3366 3988 
Q 3128 4100 2886 4159 
Q 2644 4219 2406 4219 
Q 1781 4219 1451 3797 
Q 1122 3375 1075 2522 
Q 1259 2794 1537 2939 
Q 1816 3084 2150 3084 
Q 2853 3084 3261 2657 
Q 3669 2231 3669 1497 
Q 3669 778 3244 343 
Q 2819 -91 2113 -91 
Q 1303 -91 875 529 
Q 447 1150 447 2328 
Q 447 3434 972 4092 
Q 1497 4750 2381 4750 
Q 2619 4750 2861 4703 
Q 3103 4656 3366 4563 
z
" transform="scale(0.015625)"/>
       </defs>
       <use xlink:href="#DejaVuSans-31"/>
       <use xlink:href="#DejaVuSans-36" x="63.623047"/>
       <use xlink:href="#DejaVuSans-30" x="127.246094"/>
      </g>
     </g>
    </g>
    <g id="xtick_4">
     <g id="line2d_4">
      <path d="M 120.682763 512.64 
L 120.682763 69.12 
" clip-path="url(#pd1eaf4e437)" style="fill: none; stroke: #cccccc; stroke-width: 0.8; stroke-linecap: round"/>
     </g>
     <g id="text_4">
      <!-- 240 -->
      <g style="fill: #262626" transform="translate(116.461158 537.54543)rotate(-45)scale(0.088 -0.088)">
       <defs>
        <path id="DejaVuSans-32" d="M 1228 531 
L 3431 531 
L 3431 0 
L 469 0 
L 469 531 
Q 828 903 1448 1529 
Q 2069 2156 2228 2338 
Q 2531 2678 2651 2914 
Q 2772 3150 2772 3378 
Q 2772 3750 2511 3984 
Q 2250 4219 1831 4219 
Q 1534 4219 1204 4116 
Q 875 4013 500 3803 
L 500 4441 
Q 881 4594 1212 4672 
Q 1544 4750 1819 4750 
Q 2544 4750 2975 4387 
Q 3406 4025 3406 3419 
Q 3406 3131 3298 2873 
Q 3191 2616 2906 2266 
Q 2828 2175 2409 1742 
Q 1991 1309 1228 531 
z
" transform="scale(0.015625)"/>
        <path id="DejaVuSans-34" d="M 2419 4116 
L 825 1625 
L 2419 1625 
L 2419 4116 
z
M 2253 4666 
L 3047 4666 
L 3047 1625 
L 3713 1625 
L 3713 1100 
L 3047 1100 
L 3047 0 
L 2419 0 
L 2419 1100 
L 313 1100 
L 313 1709 
L 2253 4666 
z
" transform="scale(0.015625)"/>
       </defs>
       <use xlink:href="#DejaVuSans-32"/>
       <use xlink:href="#DejaVuSans-34" x="63.623047"/>
       <use xlink:href="#DejaVuSans-30" x="127.246094"/>
      </g>
     </g>
    </g>
    <g id="xtick_5">
     <g id="line2d_5">
      <path d="M 137.709441 512.64 
L 137.709441 69.12 
" clip-path="url(#pd1eaf4e437)" style="fill: none; stroke: #cccccc; stroke-width: 0.8; stroke-linecap: round"/>
     </g>
     <g id="text_5">
      <!-- 320 -->
      <g style="fill: #262626" transform="translate(133.487837 537.54543)rotate(-45)scale(0.088 -0.088)">
       <defs>
        <path id="DejaVuSans-33" d="M 2597 2516 
Q 3050 2419 3304 2112 
Q 3559 1806 3559 1356 
Q 3559 666 3084 287 
Q 2609 -91 1734 -91 
Q 1441 -91 1130 -33 
Q 819 25 488 141 
L 488 750 
Q 750 597 1062 519 
Q 1375 441 1716 441 
Q 2309 441 2620 675 
Q 2931 909 2931 1356 
Q 2931 1769 2642 2001 
Q 2353 2234 1838 2234 
L 1294 2234 
L 1294 2753 
L 1863 2753 
Q 2328 2753 2575 2939 
Q 2822 3125 2822 3475 
Q 2822 3834 2567 4026 
Q 2313 4219 1838 4219 
Q 1578 4219 1281 4162 
Q 984 4106 628 3988 
L 628 4550 
Q 988 4650 1302 4700 
Q 1616 4750 1894 4750 
Q 2613 4750 3031 4423 
Q 3450 4097 3450 3541 
Q 3450 3153 3228 2886 
Q 3006 2619 2597 2516 
z
" transform="scale(0.015625)"/>
       </defs>
       <use xlink:href="#DejaVuSans-33"/>
       <use xlink:href="#DejaVuSans-32" x="63.623047"/>
       <use xlink:href="#DejaVuSans-30" x="127.246094"/>
      </g>
     </g>
    </g>
    <g id="xtick_6">
     <g id="line2d_6">
      <path d="M 154.73612 512.64 
L 154.73612 69.12 
" clip-path="url(#pd1eaf4e437)" style="fill: none; stroke: #cccccc; stroke-width: 0.8; stroke-linecap: round"/>
     </g>
     <g id="text_6">
      <!-- 400 -->
      <g style="fill: #262626" transform="translate(150.514515 537.54543)rotate(-45)scale(0.088 -0.088)">
       <use xlink:href="#DejaVuSans-34"/>
       <use xlink:href="#DejaVuSans-30" x="63.623047"/>
       <use xlink:href="#DejaVuSans-30" x="127.246094"/>
      </g>
     </g>
    </g>
    <g id="xtick_7">
     <g id="line2d_7">
      <path d="M 171.762798 512.64 
L 171.762798 69.12 
" clip-path="url(#pd1eaf4e437)" style="fill: none; stroke: #cccccc; stroke-width: 0.8; stroke-linecap: round"/>
     </g>
     <g id="text_7">
      <!-- 480 -->
      <g style="fill: #262626" transform="translate(167.541194 537.54543)rotate(-45)scale(0.088 -0.088)">
       <use xlink:href="#DejaVuSans-34"/>
       <use xlink:href="#DejaVuSans-38" x="63.623047"/>
       <use xlink:href="#DejaVuSans-30" x="127.246094"/>
      </g>
     </g>
    </g>
    <g id="xtick_8">
     <g id="line2d_8">
      <path d="M 188.789477 512.64 
L 188.789477 69.12 
" clip-path="url(#pd1eaf4e437)" style="fill: none; stroke: #cccccc; stroke-width: 0.8; stroke-linecap: round"/>
     </g>
     <g id="text_8">
      <!-- 560 -->
      <g style="fill: #262626" transform="translate(184.567872 537.54543)rotate(-45)scale(0.088 -0.088)">
       <defs>
        <path id="DejaVuSans-35" d="M 691 4666 
L 3169 4666 
L 3169 4134 
L 1269 4134 
L 1269 2991 
Q 1406 3038 1543 3061 
Q 1681 3084 1819 3084 
Q 2600 3084 3056 2656 
Q 3513 2228 3513 1497 
Q 3513 744 3044 326 
Q 2575 -91 1722 -91 
Q 1428 -91 1123 -41 
Q 819 9 494 109 
L 494 744 
Q 775 591 1075 516 
Q 1375 441 1709 441 
Q 2250 441 2565 725 
Q 2881 1009 2881 1497 
Q 2881 1984 2565 2268 
Q 2250 2553 1709 2553 
Q 1456 2553 1204 2497 
Q 953 2441 691 2322 
L 691 4666 
z
" transform="scale(0.015625)"/>
       </defs>
       <use xlink:href="#DejaVuSans-35"/>
       <use xlink:href="#DejaVuSans-36" x="63.623047"/>
       <use xlink:href="#DejaVuSans-30" x="127.246094"/>
      </g>
     </g>
    </g>
    <g id="xtick_9">
     <g id="line2d_9">
      <path d="M 205.816155 512.64 
L 205.816155 69.12 
" clip-path="url(#pd1eaf4e437)" style="fill: none; stroke: #cccccc; stroke-width: 0.8; stroke-linecap: round"/>
     </g>
     <g id="text_9">
      <!-- 640 -->
      <g style="fill: #262626" transform="translate(201.594551 537.54543)rotate(-45)scale(0.088 -0.088)">
       <use xlink:href="#DejaVuSans-36"/>
       <use xlink:href="#DejaVuSans-34" x="63.623047"/>
       <use xlink:href="#DejaVuSans-30" x="127.246094"/>
      </g>
     </g>
    </g>
    <g id="xtick_10">
     <g id="line2d_10">
      <path d="M 222.842833 512.64 
L 222.842833 69.12 
" clip-path="url(#pd1eaf4e437)" style="fill: none; stroke: #cccccc; stroke-width: 0.8; stroke-linecap: round"/>
     </g>
     <g id="text_10">
      <!-- 720 -->
      <g style="fill: #262626" transform="translate(218.621229 537.54543)rotate(-45)scale(0.088 -0.088)">
       <defs>
        <path id="DejaVuSans-37" d="M 525 4666 
L 3525 4666 
L 3525 4397 
L 1831 0 
L 1172 0 
L 2766 4134 
L 525 4134 
L 525 4666 
z
" transform="scale(0.015625)"/>
       </defs>
       <use xlink:href="#DejaVuSans-37"/>
       <use xlink:href="#DejaVuSans-32" x="63.623047"/>
       <use xlink:href="#DejaVuSans-30" x="127.246094"/>
      </g>
     </g>
    </g>
    <g id="xtick_11">
     <g id="line2d_11">
      <path d="M 239.869512 512.64 
L 239.869512 69.12 
" clip-path="url(#pd1eaf4e437)" style="fill: none; stroke: #cccccc; stroke-width: 0.8; stroke-linecap: round"/>
     </g>
     <g id="text_11">
      <!-- 800 -->
      <g style="fill: #262626" transform="translate(235.647908 537.54543)rotate(-45)scale(0.088 -0.088)">
       <use xlink:href="#DejaVuSans-38"/>
       <use xlink:href="#DejaVuSans-30" x="63.623047"/>
       <use xlink:href="#DejaVuSans-30" x="127.246094"/>
      </g>
     </g>
    </g>
    <g id="xtick_12">
     <g id="line2d_12">
      <path d="M 256.89619 512.64 
L 256.89619 69.12 
" clip-path="url(#pd1eaf4e437)" style="fill: none; stroke: #cccccc; stroke-width: 0.8; stroke-linecap: round"/>
     </g>
     <g id="text_12">
      <!-- 880 -->
      <g style="fill: #262626" transform="translate(252.674586 537.54543)rotate(-45)scale(0.088 -0.088)">
       <use xlink:href="#DejaVuSans-38"/>
       <use xlink:href="#DejaVuSans-38" x="63.623047"/>
       <use xlink:href="#DejaVuSans-30" x="127.246094"/>
      </g>
     </g>
    </g>
    <g id="xtick_13">
     <g id="line2d_13">
      <path d="M 273.922869 512.64 
L 273.922869 69.12 
" clip-path="url(#pd1eaf4e437)" style="fill: none; stroke: #cccccc; stroke-width: 0.8; stroke-linecap: round"/>
     </g>
     <g id="text_13">
      <!-- 960 -->
      <g style="fill: #262626" transform="translate(269.701265 537.54543)rotate(-45)scale(0.088 -0.088)">
       <defs>
        <path id="DejaVuSans-39" d="M 703 97 
L 703 672 
Q 941 559 1184 500 
Q 1428 441 1663 441 
Q 2288 441 2617 861 
Q 2947 1281 2994 2138 
Q 2813 1869 2534 1725 
Q 2256 1581 1919 1581 
Q 1219 1581 811 2004 
Q 403 2428 403 3163 
Q 403 3881 828 4315 
Q 1253 4750 1959 4750 
Q 2769 4750 3195 4129 
Q 3622 3509 3622 2328 
Q 3622 1225 3098 567 
Q 2575 -91 1691 -91 
Q 1453 -91 1209 -44 
Q 966 3 703 97 
z
M 1959 2075 
Q 2384 2075 2632 2365 
Q 2881 2656 2881 3163 
Q 2881 3666 2632 3958 
Q 2384 4250 1959 4250 
Q 1534 4250 1286 3958 
Q 1038 3666 1038 3163 
Q 1038 2656 1286 2365 
Q 1534 2075 1959 2075 
z
" transform="scale(0.015625)"/>
       </defs>
       <use xlink:href="#DejaVuSans-39"/>
       <use xlink:href="#DejaVuSans-36" x="63.623047"/>
       <use xlink:href="#DejaVuSans-30" x="127.246094"/>
      </g>
     </g>
    </g>
    <g id="xtick_14">
     <g id="line2d_14">
      <path d="M 290.949547 512.64 
L 290.949547 69.12 
" clip-path="url(#pd1eaf4e437)" style="fill: none; stroke: #cccccc; stroke-width: 0.8; stroke-linecap: round"/>
     </g>
     <g id="text_14">
      <!-- 1040 -->
      <g style="fill: #262626" transform="translate(284.748398 541.504521)rotate(-45)scale(0.088 -0.088)">
       <use xlink:href="#DejaVuSans-31"/>
       <use xlink:href="#DejaVuSans-30" x="63.623047"/>
       <use xlink:href="#DejaVuSans-34" x="127.246094"/>
       <use xlink:href="#DejaVuSans-30" x="190.869141"/>
      </g>
     </g>
    </g>
    <g id="xtick_15">
     <g id="line2d_15">
      <path d="M 307.976226 512.64 
L 307.976226 69.12 
" clip-path="url(#pd1eaf4e437)" style="fill: none; stroke: #cccccc; stroke-width: 0.8; stroke-linecap: round"/>
     </g>
     <g id="text_15">
      <!-- 1120 -->
      <g style="fill: #262626" transform="translate(301.775076 541.504521)rotate(-45)scale(0.088 -0.088)">
       <use xlink:href="#DejaVuSans-31"/>
       <use xlink:href="#DejaVuSans-31" x="63.623047"/>
       <use xlink:href="#DejaVuSans-32" x="127.246094"/>
       <use xlink:href="#DejaVuSans-30" x="190.869141"/>
      </g>
     </g>
    </g>
    <g id="xtick_16">
     <g id="line2d_16">
      <path d="M 325.002904 512.64 
L 325.002904 69.12 
" clip-path="url(#pd1eaf4e437)" style="fill: none; stroke: #cccccc; stroke-width: 0.8; stroke-linecap: round"/>
     </g>
     <g id="text_16">
      <!-- 1200 -->
      <g style="fill: #262626" transform="translate(318.801755 541.504521)rotate(-45)scale(0.088 -0.088)">
       <use xlink:href="#DejaVuSans-31"/>
       <use xlink:href="#DejaVuSans-32" x="63.623047"/>
       <use xlink:href="#DejaVuSans-30" x="127.246094"/>
       <use xlink:href="#DejaVuSans-30" x="190.869141"/>
      </g>
     </g>
    </g>
    <g id="xtick_17">
     <g id="line2d_17">
      <path d="M 342.029583 512.64 
L 342.029583 69.12 
" clip-path="url(#pd1eaf4e437)" style="fill: none; stroke: #cccccc; stroke-width: 0.8; stroke-linecap: round"/>
     </g>
     <g id="text_17">
      <!-- 1280 -->
      <g style="fill: #262626" transform="translate(335.828433 541.504521)rotate(-45)scale(0.088 -0.088)">
       <use xlink:href="#DejaVuSans-31"/>
       <use xlink:href="#DejaVuSans-32" x="63.623047"/>
       <use xlink:href="#DejaVuSans-38" x="127.246094"/>
       <use xlink:href="#DejaVuSans-30" x="190.869141"/>
      </g>
     </g>
    </g>
    <g id="xtick_18">
     <g id="line2d_18">
      <path d="M 359.056261 512.64 
L 359.056261 69.12 
" clip-path="url(#pd1eaf4e437)" style="fill: none; stroke: #cccccc; stroke-width: 0.8; stroke-linecap: round"/>
     </g>
     <g id="text_18">
      <!-- 1360 -->
      <g style="fill: #262626" transform="translate(352.855112 541.504521)rotate(-45)scale(0.088 -0.088)">
       <use xlink:href="#DejaVuSans-31"/>
       <use xlink:href="#DejaVuSans-33" x="63.623047"/>
       <use xlink:href="#DejaVuSans-36" x="127.246094"/>
       <use xlink:href="#DejaVuSans-30" x="190.869141"/>
      </g>
     </g>
    </g>
    <g id="xtick_19">
     <g id="line2d_19">
      <path d="M 376.08294 512.64 
L 376.08294 69.12 
" clip-path="url(#pd1eaf4e437)" style="fill: none; stroke: #cccccc; stroke-width: 0.8; stroke-linecap: round"/>
     </g>
     <g id="text_19">
      <!-- 1440 -->
      <g style="fill: #262626" transform="translate(369.88179 541.504521)rotate(-45)scale(0.088 -0.088)">
       <use xlink:href="#DejaVuSans-31"/>
       <use xlink:href="#DejaVuSans-34" x="63.623047"/>
       <use xlink:href="#DejaVuSans-34" x="127.246094"/>
       <use xlink:href="#DejaVuSans-30" x="190.869141"/>
      </g>
     </g>
    </g>
    <g id="text_20">
     <!-- Time (Minutes) -->
     <g style="fill: #262626" transform="translate(186.72 554.093115)scale(0.096 -0.096)">
      <defs>
       <path id="DejaVuSans-54" d="M -19 4666 
L 3928 4666 
L 3928 4134 
L 2272 4134 
L 2272 0 
L 1638 0 
L 1638 4134 
L -19 4134 
L -19 4666 
z
" transform="scale(0.015625)"/>
       <path id="DejaVuSans-69" d="M 603 3500 
L 1178 3500 
L 1178 0 
L 603 0 
L 603 3500 
z
M 603 4863 
L 1178 4863 
L 1178 4134 
L 603 4134 
L 603 4863 
z
" transform="scale(0.015625)"/>
       <path id="DejaVuSans-6d" d="M 3328 2828 
Q 3544 3216 3844 3400 
Q 4144 3584 4550 3584 
Q 5097 3584 5394 3201 
Q 5691 2819 5691 2113 
L 5691 0 
L 5113 0 
L 5113 2094 
Q 5113 2597 4934 2840 
Q 4756 3084 4391 3084 
Q 3944 3084 3684 2787 
Q 3425 2491 3425 1978 
L 3425 0 
L 2847 0 
L 2847 2094 
Q 2847 2600 2669 2842 
Q 2491 3084 2119 3084 
Q 1678 3084 1418 2786 
Q 1159 2488 1159 1978 
L 1159 0 
L 581 0 
L 581 3500 
L 1159 3500 
L 1159 2956 
Q 1356 3278 1631 3431 
Q 1906 3584 2284 3584 
Q 2666 3584 2933 3390 
Q 3200 3197 3328 2828 
z
" transform="scale(0.015625)"/>
       <path id="DejaVuSans-65" d="M 3597 1894 
L 3597 1613 
L 953 1613 
Q 991 1019 1311 708 
Q 1631 397 2203 397 
Q 2534 397 2845 478 
Q 3156 559 3463 722 
L 3463 178 
Q 3153 47 2828 -22 
Q 2503 -91 2169 -91 
Q 1331 -91 842 396 
Q 353 884 353 1716 
Q 353 2575 817 3079 
Q 1281 3584 2069 3584 
Q 2775 3584 3186 3129 
Q 3597 2675 3597 1894 
z
M 3022 2063 
Q 3016 2534 2758 2815 
Q 2500 3097 2075 3097 
Q 1594 3097 1305 2825 
Q 1016 2553 972 2059 
L 3022 2063 
z
" transform="scale(0.015625)"/>
       <path id="DejaVuSans-20" transform="scale(0.015625)"/>
       <path id="DejaVuSans-28" d="M 1984 4856 
Q 1566 4138 1362 3434 
Q 1159 2731 1159 2009 
Q 1159 1288 1364 580 
Q 1569 -128 1984 -844 
L 1484 -844 
Q 1016 -109 783 600 
Q 550 1309 550 2009 
Q 550 2706 781 3412 
Q 1013 4119 1484 4856 
L 1984 4856 
z
" transform="scale(0.015625)"/>
       <path id="DejaVuSans-4d" d="M 628 4666 
L 1569 4666 
L 2759 1491 
L 3956 4666 
L 4897 4666 
L 4897 0 
L 4281 0 
L 4281 4097 
L 3078 897 
L 2444 897 
L 1241 4097 
L 1241 0 
L 628 0 
L 628 4666 
z
" transform="scale(0.015625)"/>
       <path id="DejaVuSans-6e" d="M 3513 2113 
L 3513 0 
L 2938 0 
L 2938 2094 
Q 2938 2591 2744 2837 
Q 2550 3084 2163 3084 
Q 1697 3084 1428 2787 
Q 1159 2491 1159 1978 
L 1159 0 
L 581 0 
L 581 3500 
L 1159 3500 
L 1159 2956 
Q 1366 3272 1645 3428 
Q 1925 3584 2291 3584 
Q 2894 3584 3203 3211 
Q 3513 2838 3513 2113 
z
" transform="scale(0.015625)"/>
       <path id="DejaVuSans-75" d="M 544 1381 
L 544 3500 
L 1119 3500 
L 1119 1403 
Q 1119 906 1312 657 
Q 1506 409 1894 409 
Q 2359 409 2629 706 
Q 2900 1003 2900 1516 
L 2900 3500 
L 3475 3500 
L 3475 0 
L 2900 0 
L 2900 538 
Q 2691 219 2414 64 
Q 2138 -91 1772 -91 
Q 1169 -91 856 284 
Q 544 659 544 1381 
z
M 1991 3584 
L 1991 3584 
z
" transform="scale(0.015625)"/>
       <path id="DejaVuSans-74" d="M 1172 4494 
L 1172 3500 
L 2356 3500 
L 2356 3053 
L 1172 3053 
L 1172 1153 
Q 1172 725 1289 603 
Q 1406 481 1766 481 
L 2356 481 
L 2356 0 
L 1766 0 
Q 1100 0 847 248 
Q 594 497 594 1153 
L 594 3053 
L 172 3053 
L 172 3500 
L 594 3500 
L 594 4494 
L 1172 4494 
z
" transform="scale(0.015625)"/>
       <path id="DejaVuSans-73" d="M 2834 3397 
L 2834 2853 
Q 2591 2978 2328 3040 
Q 2066 3103 1784 3103 
Q 1356 3103 1142 2972 
Q 928 2841 928 2578 
Q 928 2378 1081 2264 
Q 1234 2150 1697 2047 
L 1894 2003 
Q 2506 1872 2764 1633 
Q 3022 1394 3022 966 
Q 3022 478 2636 193 
Q 2250 -91 1575 -91 
Q 1294 -91 989 -36 
Q 684 19 347 128 
L 347 722 
Q 666 556 975 473 
Q 1284 391 1588 391 
Q 1994 391 2212 530 
Q 2431 669 2431 922 
Q 2431 1156 2273 1281 
Q 2116 1406 1581 1522 
L 1381 1569 
Q 847 1681 609 1914 
Q 372 2147 372 2553 
Q 372 3047 722 3315 
Q 1072 3584 1716 3584 
Q 2034 3584 2315 3537 
Q 2597 3491 2834 3397 
z
" transform="scale(0.015625)"/>
       <path id="DejaVuSans-29" d="M 513 4856 
L 1013 4856 
Q 1481 4119 1714 3412 
Q 1947 2706 1947 2009 
Q 1947 1309 1714 600 
Q 1481 -109 1013 -844 
L 513 -844 
Q 928 -128 1133 580 
Q 1338 1288 1338 2009 
Q 1338 2731 1133 3434 
Q 928 4138 513 4856 
z
" transform="scale(0.015625)"/>
      </defs>
      <use xlink:href="#DejaVuSans-54"/>
      <use xlink:href="#DejaVuSans-69" x="57.958984"/>
      <use xlink:href="#DejaVuSans-6d" x="85.742188"/>
      <use xlink:href="#DejaVuSans-65" x="183.154297"/>
      <use xlink:href="#DejaVuSans-20" x="244.677734"/>
      <use xlink:href="#DejaVuSans-28" x="276.464844"/>
      <use xlink:href="#DejaVuSans-4d" x="315.478516"/>
      <use xlink:href="#DejaVuSans-69" x="401.757812"/>
      <use xlink:href="#DejaVuSans-6e" x="429.541016"/>
      <use xlink:href="#DejaVuSans-75" x="492.919922"/>
      <use xlink:href="#DejaVuSans-74" x="556.298828"/>
      <use xlink:href="#DejaVuSans-65" x="595.507812"/>
      <use xlink:href="#DejaVuSans-73" x="657.03125"/>
      <use xlink:href="#DejaVuSans-29" x="709.130859"/>
     </g>
    </g>
   </g>
   <g id="matplotlib.axis_2">
    <g id="ytick_1">
     <g id="line2d_20">
      <path d="M 54.3 492.48 
L 390.96 492.48 
" clip-path="url(#pd1eaf4e437)" style="fill: none; stroke: #cccccc; stroke-width: 0.8; stroke-linecap: round"/>
     </g>
     <g id="text_21">
      <!-- 0 -->
      <g style="fill: #262626" transform="translate(40.401 495.823312)scale(0.088 -0.088)">
       <use xlink:href="#DejaVuSans-30"/>
      </g>
     </g>
    </g>
    <g id="ytick_2">
     <g id="line2d_21">
      <path d="M 54.3 451.752727 
L 390.96 451.752727 
" clip-path="url(#pd1eaf4e437)" style="fill: none; stroke: #cccccc; stroke-width: 0.8; stroke-linecap: round"/>
     </g>
     <g id="text_22">
      <!-- 100 -->
      <g style="fill: #262626" transform="translate(29.203 455.09604)scale(0.088 -0.088)">
       <use xlink:href="#DejaVuSans-31"/>
       <use xlink:href="#DejaVuSans-30" x="63.623047"/>
       <use xlink:href="#DejaVuSans-30" x="127.246094"/>
      </g>
     </g>
    </g>
    <g id="ytick_3">
     <g id="line2d_22">
      <path d="M 54.3 411.025455 
L 390.96 411.025455 
" clip-path="url(#pd1eaf4e437)" style="fill: none; stroke: #cccccc; stroke-width: 0.8; stroke-linecap: round"/>
     </g>
     <g id="text_23">
      <!-- 200 -->
      <g style="fill: #262626" transform="translate(29.203 414.368767)scale(0.088 -0.088)">
       <use xlink:href="#DejaVuSans-32"/>
       <use xlink:href="#DejaVuSans-30" x="63.623047"/>
       <use xlink:href="#DejaVuSans-30" x="127.246094"/>
      </g>
     </g>
    </g>
    <g id="ytick_4">
     <g id="line2d_23">
      <path d="M 54.3 370.298182 
L 390.96 370.298182 
" clip-path="url(#pd1eaf4e437)" style="fill: none; stroke: #cccccc; stroke-width: 0.8; stroke-linecap: round"/>
     </g>
     <g id="text_24">
      <!-- 300 -->
      <g style="fill: #262626" transform="translate(29.203 373.641494)scale(0.088 -0.088)">
       <use xlink:href="#DejaVuSans-33"/>
       <use xlink:href="#DejaVuSans-30" x="63.623047"/>
       <use xlink:href="#DejaVuSans-30" x="127.246094"/>
      </g>
     </g>
    </g>
    <g id="ytick_5">
     <g id="line2d_24">
      <path d="M 54.3 329.570909 
L 390.96 329.570909 
" clip-path="url(#pd1eaf4e437)" style="fill: none; stroke: #cccccc; stroke-width: 0.8; stroke-linecap: round"/>
     </g>
     <g id="text_25">
      <!-- 400 -->
      <g style="fill: #262626" transform="translate(29.203 332.914222)scale(0.088 -0.088)">
       <use xlink:href="#DejaVuSans-34"/>
       <use xlink:href="#DejaVuSans-30" x="63.623047"/>
       <use xlink:href="#DejaVuSans-30" x="127.246094"/>
      </g>
     </g>
    </g>
    <g id="ytick_6">
     <g id="line2d_25">
      <path d="M 54.3 288.843636 
L 390.96 288.843636 
" clip-path="url(#pd1eaf4e437)" style="fill: none; stroke: #cccccc; stroke-width: 0.8; stroke-linecap: round"/>
     </g>
     <g id="text_26">
      <!-- 500 -->
      <g style="fill: #262626" transform="translate(29.203 292.186949)scale(0.088 -0.088)">
       <use xlink:href="#DejaVuSans-35"/>
       <use xlink:href="#DejaVuSans-30" x="63.623047"/>
       <use xlink:href="#DejaVuSans-30" x="127.246094"/>
      </g>
     </g>
    </g>
    <g id="ytick_7">
     <g id="line2d_26">
      <path d="M 54.3 248.116364 
L 390.96 248.116364 
" clip-path="url(#pd1eaf4e437)" style="fill: none; stroke: #cccccc; stroke-width: 0.8; stroke-linecap: round"/>
     </g>
     <g id="text_27">
      <!-- 600 -->
      <g style="fill: #262626" transform="translate(29.203 251.459676)scale(0.088 -0.088)">
       <use xlink:href="#DejaVuSans-36"/>
       <use xlink:href="#DejaVuSans-30" x="63.623047"/>
       <use xlink:href="#DejaVuSans-30" x="127.246094"/>
      </g>
     </g>
    </g>
    <g id="ytick_8">
     <g id="line2d_27">
      <path d="M 54.3 207.389091 
L 390.96 207.389091 
" clip-path="url(#pd1eaf4e437)" style="fill: none; stroke: #cccccc; stroke-width: 0.8; stroke-linecap: round"/>
     </g>
     <g id="text_28">
      <!-- 700 -->
      <g style="fill: #262626" transform="translate(29.203 210.732403)scale(0.088 -0.088)">
       <use xlink:href="#DejaVuSans-37"/>
       <use xlink:href="#DejaVuSans-30" x="63.623047"/>
       <use xlink:href="#DejaVuSans-30" x="127.246094"/>
      </g>
     </g>
    </g>
    <g id="ytick_9">
     <g id="line2d_28">
      <path d="M 54.3 166.661818 
L 390.96 166.661818 
" clip-path="url(#pd1eaf4e437)" style="fill: none; stroke: #cccccc; stroke-width: 0.8; stroke-linecap: round"/>
     </g>
     <g id="text_29">
      <!-- 800 -->
      <g style="fill: #262626" transform="translate(29.203 170.005131)scale(0.088 -0.088)">
       <use xlink:href="#DejaVuSans-38"/>
       <use xlink:href="#DejaVuSans-30" x="63.623047"/>
       <use xlink:href="#DejaVuSans-30" x="127.246094"/>
      </g>
     </g>
    </g>
    <g id="ytick_10">
     <g id="line2d_29">
      <path d="M 54.3 125.934545 
L 390.96 125.934545 
" clip-path="url(#pd1eaf4e437)" style="fill: none; stroke: #cccccc; stroke-width: 0.8; stroke-linecap: round"/>
     </g>
     <g id="text_30">
      <!-- 900 -->
      <g style="fill: #262626" transform="translate(29.203 129.277858)scale(0.088 -0.088)">
       <use xlink:href="#DejaVuSans-39"/>
       <use xlink:href="#DejaVuSans-30" x="63.623047"/>
       <use xlink:href="#DejaVuSans-30" x="127.246094"/>
      </g>
     </g>
    </g>
    <g id="text_31">
     <!-- Edge Coverages -->
     <g style="fill: #262626" transform="translate(23.2065 329.98575)rotate(-90)scale(0.096 -0.096)">
      <defs>
       <path id="DejaVuSans-45" d="M 628 4666 
L 3578 4666 
L 3578 4134 
L 1259 4134 
L 1259 2753 
L 3481 2753 
L 3481 2222 
L 1259 2222 
L 1259 531 
L 3634 531 
L 3634 0 
L 628 0 
L 628 4666 
z
" transform="scale(0.015625)"/>
       <path id="DejaVuSans-64" d="M 2906 2969 
L 2906 4863 
L 3481 4863 
L 3481 0 
L 2906 0 
L 2906 525 
Q 2725 213 2448 61 
Q 2172 -91 1784 -91 
Q 1150 -91 751 415 
Q 353 922 353 1747 
Q 353 2572 751 3078 
Q 1150 3584 1784 3584 
Q 2172 3584 2448 3432 
Q 2725 3281 2906 2969 
z
M 947 1747 
Q 947 1113 1208 752 
Q 1469 391 1925 391 
Q 2381 391 2643 752 
Q 2906 1113 2906 1747 
Q 2906 2381 2643 2742 
Q 2381 3103 1925 3103 
Q 1469 3103 1208 2742 
Q 947 2381 947 1747 
z
" transform="scale(0.015625)"/>
       <path id="DejaVuSans-67" d="M 2906 1791 
Q 2906 2416 2648 2759 
Q 2391 3103 1925 3103 
Q 1463 3103 1205 2759 
Q 947 2416 947 1791 
Q 947 1169 1205 825 
Q 1463 481 1925 481 
Q 2391 481 2648 825 
Q 2906 1169 2906 1791 
z
M 3481 434 
Q 3481 -459 3084 -895 
Q 2688 -1331 1869 -1331 
Q 1566 -1331 1297 -1286 
Q 1028 -1241 775 -1147 
L 775 -588 
Q 1028 -725 1275 -790 
Q 1522 -856 1778 -856 
Q 2344 -856 2625 -561 
Q 2906 -266 2906 331 
L 2906 616 
Q 2728 306 2450 153 
Q 2172 0 1784 0 
Q 1141 0 747 490 
Q 353 981 353 1791 
Q 353 2603 747 3093 
Q 1141 3584 1784 3584 
Q 2172 3584 2450 3431 
Q 2728 3278 2906 2969 
L 2906 3500 
L 3481 3500 
L 3481 434 
z
" transform="scale(0.015625)"/>
       <path id="DejaVuSans-43" d="M 4122 4306 
L 4122 3641 
Q 3803 3938 3442 4084 
Q 3081 4231 2675 4231 
Q 1875 4231 1450 3742 
Q 1025 3253 1025 2328 
Q 1025 1406 1450 917 
Q 1875 428 2675 428 
Q 3081 428 3442 575 
Q 3803 722 4122 1019 
L 4122 359 
Q 3791 134 3420 21 
Q 3050 -91 2638 -91 
Q 1578 -91 968 557 
Q 359 1206 359 2328 
Q 359 3453 968 4101 
Q 1578 4750 2638 4750 
Q 3056 4750 3426 4639 
Q 3797 4528 4122 4306 
z
" transform="scale(0.015625)"/>
       <path id="DejaVuSans-6f" d="M 1959 3097 
Q 1497 3097 1228 2736 
Q 959 2375 959 1747 
Q 959 1119 1226 758 
Q 1494 397 1959 397 
Q 2419 397 2687 759 
Q 2956 1122 2956 1747 
Q 2956 2369 2687 2733 
Q 2419 3097 1959 3097 
z
M 1959 3584 
Q 2709 3584 3137 3096 
Q 3566 2609 3566 1747 
Q 3566 888 3137 398 
Q 2709 -91 1959 -91 
Q 1206 -91 779 398 
Q 353 888 353 1747 
Q 353 2609 779 3096 
Q 1206 3584 1959 3584 
z
" transform="scale(0.015625)"/>
       <path id="DejaVuSans-76" d="M 191 3500 
L 800 3500 
L 1894 563 
L 2988 3500 
L 3597 3500 
L 2284 0 
L 1503 0 
L 191 3500 
z
" transform="scale(0.015625)"/>
       <path id="DejaVuSans-72" d="M 2631 2963 
Q 2534 3019 2420 3045 
Q 2306 3072 2169 3072 
Q 1681 3072 1420 2755 
Q 1159 2438 1159 1844 
L 1159 0 
L 581 0 
L 581 3500 
L 1159 3500 
L 1159 2956 
Q 1341 3275 1631 3429 
Q 1922 3584 2338 3584 
Q 2397 3584 2469 3576 
Q 2541 3569 2628 3553 
L 2631 2963 
z
" transform="scale(0.015625)"/>
       <path id="DejaVuSans-61" d="M 2194 1759 
Q 1497 1759 1228 1600 
Q 959 1441 959 1056 
Q 959 750 1161 570 
Q 1363 391 1709 391 
Q 2188 391 2477 730 
Q 2766 1069 2766 1631 
L 2766 1759 
L 2194 1759 
z
M 3341 1997 
L 3341 0 
L 2766 0 
L 2766 531 
Q 2569 213 2275 61 
Q 1981 -91 1556 -91 
Q 1019 -91 701 211 
Q 384 513 384 1019 
Q 384 1609 779 1909 
Q 1175 2209 1959 2209 
L 2766 2209 
L 2766 2266 
Q 2766 2663 2505 2880 
Q 2244 3097 1772 3097 
Q 1472 3097 1187 3025 
Q 903 2953 641 2809 
L 641 3341 
Q 956 3463 1253 3523 
Q 1550 3584 1831 3584 
Q 2591 3584 2966 3190 
Q 3341 2797 3341 1997 
z
" transform="scale(0.015625)"/>
      </defs>
      <use xlink:href="#DejaVuSans-45"/>
      <use xlink:href="#DejaVuSans-64" x="63.183594"/>
      <use xlink:href="#DejaVuSans-67" x="126.660156"/>
      <use xlink:href="#DejaVuSans-65" x="190.136719"/>
      <use xlink:href="#DejaVuSans-20" x="251.660156"/>
      <use xlink:href="#DejaVuSans-43" x="283.447266"/>
      <use xlink:href="#DejaVuSans-6f" x="353.271484"/>
      <use xlink:href="#DejaVuSans-76" x="414.453125"/>
      <use xlink:href="#DejaVuSans-65" x="473.632812"/>
      <use xlink:href="#DejaVuSans-72" x="535.15625"/>
      <use xlink:href="#DejaVuSans-61" x="576.269531"/>
      <use xlink:href="#DejaVuSans-67" x="637.548828"/>
      <use xlink:href="#DejaVuSans-65" x="701.025391"/>
      <use xlink:href="#DejaVuSans-73" x="762.548828"/>
     </g>
    </g>
   </g>
   <g id="PolyCollection_1">
    <defs>
     <path id="m0dda2d55ee" d="M 69.602727 -92.072727 
L 69.602727 -83.52 
L 69.602727 -92.072727 
L 69.602727 -92.072727 
z
" style="stroke: #db5f57; stroke-opacity: 0.2; stroke-width: 0.8"/>
    </defs>
    <g clip-path="url(#pd1eaf4e437)">
     <use xlink:href="#m0dda2d55ee" x="0" y="576" style="fill: #db5f57; fill-opacity: 0.2; stroke: #db5f57; stroke-opacity: 0.2; stroke-width: 0.8"/>
    </g>
   </g>
   <g id="PolyCollection_2">
    <defs>
     <path id="mddc6643743" d="M 69.602727 -102.254545 
L 69.602727 -83.52 
L 69.602727 -102.254545 
L 69.602727 -102.254545 
z
" style="stroke: #b9db57; stroke-opacity: 0.2; stroke-width: 0.8"/>
    </defs>
    <g clip-path="url(#pd1eaf4e437)">
     <use xlink:href="#mddc6643743" x="0" y="576" style="fill: #b9db57; fill-opacity: 0.2; stroke: #b9db57; stroke-opacity: 0.2; stroke-width: 0.8"/>
    </g>
   </g>
   <g id="PolyCollection_3">
    <defs>
     <path id="mfbfce38e22" d="M 69.602727 -101.847273 
L 69.602727 -83.52 
L 69.602727 -101.847273 
L 69.602727 -101.847273 
z
" style="stroke: #57db94; stroke-opacity: 0.2; stroke-width: 0.8"/>
    </defs>
    <g clip-path="url(#pd1eaf4e437)">
     <use xlink:href="#mfbfce38e22" x="0" y="576" style="fill: #57db94; fill-opacity: 0.2; stroke: #57db94; stroke-opacity: 0.2; stroke-width: 0.8"/>
    </g>
   </g>
   <g id="PolyCollection_4">
    <defs>
     <path id="m3b449972d7" d="M 69.602727 -93.701818 
L 69.602727 -83.52 
L 69.602727 -93.701818 
L 69.602727 -93.701818 
z
" style="stroke: #5784db; stroke-opacity: 0.2; stroke-width: 0.8"/>
    </defs>
    <g clip-path="url(#pd1eaf4e437)">
     <use xlink:href="#m3b449972d7" x="0" y="576" style="fill: #5784db; fill-opacity: 0.2; stroke: #5784db; stroke-opacity: 0.2; stroke-width: 0.8"/>
    </g>
   </g>
   <g id="PolyCollection_5">
    <defs>
     <path id="m3901d77971" d="M 69.602727 -103.883636 
L 69.602727 -83.52 
L 69.602727 -103.883636 
L 69.602727 -103.883636 
z
" style="stroke: #c957db; stroke-opacity: 0.2; stroke-width: 0.8"/>
    </defs>
    <g clip-path="url(#pd1eaf4e437)">
     <use xlink:href="#m3901d77971" x="0" y="576" style="fill: #c957db; fill-opacity: 0.2; stroke: #c957db; stroke-opacity: 0.2; stroke-width: 0.8"/>
    </g>
   </g>
   <g id="line2d_30">
    <path d="M 69.602727 488.203636 
L 69.815561 482.298182 
L 70.028394 482.298182 
L 70.241228 481.483636 
L 71.092562 481.483636 
L 71.305395 481.076364 
L 71.518229 452.16 
L 71.943896 440.756364 
L 72.156729 440.756364 
L 72.369563 439.941818 
L 72.582396 439.941818 
L 72.795229 439.534545 
L 73.43373 439.534545 
L 73.646563 439.127273 
L 74.285064 439.127273 
L 74.497897 438.72 
L 74.923564 437.498182 
L 75.136398 437.090909 
L 75.562065 435.869091 
L 75.774898 435.869091 
L 75.987732 435.461818 
L 76.200565 435.461818 
L 76.413399 435.054545 
L 77.903233 435.054545 
L 78.116067 434.647273 
L 78.541733 434.647273 
L 78.754567 434.24 
L 80.031568 434.24 
L 80.244401 433.832727 
L 81.308569 433.832727 
L 81.521402 433.425455 
L 81.734236 433.425455 
L 81.947069 433.018182 
L 82.159903 433.018182 
L 83.011237 431.389091 
L 83.22407 430.574545 
L 83.436904 423.243636 
L 83.649737 407.36 
L 83.86257 406.545455 
L 87.055073 406.545455 
L 87.267906 406.138182 
L 88.757741 406.138182 
L 88.970574 405.730909 
L 90.673242 405.730909 
L 90.886075 405.323636 
L 91.098909 405.323636 
L 91.311742 404.916364 
L 96.632579 404.916364 
L 96.845413 404.509091 
L 100.889249 404.509091 
L 101.102082 375.185455 
L 116.21326 375.185455 
L 116.426093 374.778182 
L 116.638927 373.963636 
L 116.85176 373.963636 
L 117.064594 358.487273 
L 121.959764 358.487273 
L 122.172597 358.08 
L 128.983268 358.08 
L 129.196102 357.672727 
L 129.408935 357.672727 
L 129.621769 340.16 
L 137.070941 340.16 
L 137.283774 339.752727 
L 143.030278 339.752727 
L 143.243112 333.236364 
L 145.158613 333.236364 
L 145.371446 326.312727 
L 148.138282 326.312727 
L 148.351115 325.905455 
L 151.11795 325.905455 
L 151.330784 325.498182 
L 154.73612 325.498182 
L 154.948953 325.090909 
L 156.438787 325.090909 
L 156.651621 324.683636 
L 159.205623 324.683636 
L 159.418456 324.276364 
L 159.63129 312.465455 
L 161.972458 312.465455 
L 162.185291 311.650909 
L 171.975632 311.650909 
L 172.188465 311.243636 
L 179.21197 311.243636 
L 179.424803 306.356364 
L 180.701804 306.356364 
L 180.914638 305.949091 
L 181.127471 304.727273 
L 185.171307 304.727273 
L 185.384141 303.912727 
L 187.725309 303.912727 
L 187.938143 303.505455 
L 190.066477 303.505455 
L 190.279311 303.098182 
L 192.620479 303.098182 
L 192.833313 302.690909 
L 196.877149 302.690909 
L 197.089982 298.618182 
L 215.180828 298.618182 
L 215.393662 295.767273 
L 217.73483 295.767273 
L 217.947663 294.952727 
L 230.930506 294.952727 
L 231.143339 290.88 
L 243.062014 290.88 
L 243.274848 288.436364 
L 243.700515 288.436364 
L 243.913348 288.029091 
L 244.339015 288.029091 
L 244.551849 287.214545 
L 246.46735 287.214545 
L 246.893017 283.956364 
L 248.595685 283.956364 
L 248.808518 283.549091 
L 265.835197 283.549091 
L 266.04803 268.48 
L 266.260864 191.912727 
L 269.666199 191.912727 
L 269.879033 188.247273 
L 273.710035 188.247273 
L 273.922869 186.618182 
L 274.135702 186.210909 
L 277.328205 186.210909 
L 277.541038 185.803636 
L 279.882206 185.803636 
L 280.09504 185.396364 
L 281.584874 185.396364 
L 281.797708 184.581818 
L 286.054377 184.581818 
L 286.267211 183.767273 
L 288.395546 183.767273 
L 288.608379 182.545455 
L 309.678894 182.545455 
L 309.891727 180.509091 
L 310.530228 180.509091 
L 310.743061 179.694545 
L 326.492739 179.694545 
L 326.705572 160.145455 
L 328.833907 160.145455 
L 329.04674 155.665455 
L 332.66491 155.665455 
L 332.877743 153.221818 
L 335.218911 153.221818 
L 335.431745 152.407273 
L 336.495912 152.407273 
L 336.708746 152 
L 357.566427 152 
L 357.77926 146.298182 
L 357.992094 116.16 
L 361.823096 116.16 
L 362.03593 114.938182 
L 375.657273 114.938182 
L 375.657273 114.938182 
" clip-path="url(#pd1eaf4e437)" style="fill: none; stroke: #db5f57; stroke-width: 1.2; stroke-linecap: round"/>
   </g>
   <g id="line2d_31">
    <path d="M 69.602727 483.112727 
L 70.028394 452.16 
L 70.454061 448.901818 
L 70.666895 444.014545 
L 70.879728 443.2 
L 71.305395 440.349091 
L 71.518229 439.941818 
L 71.731062 435.869091 
L 71.943896 435.869091 
L 72.156729 435.461818 
L 72.369563 435.461818 
L 72.795229 432.610909 
L 73.220896 432.610909 
L 73.646563 430.981818 
L 73.859397 430.981818 
L 74.285064 429.76 
L 74.497897 429.76 
L 75.136398 426.909091 
L 75.349231 418.763636 
L 76.200565 418.763636 
L 76.413399 418.356364 
L 76.626232 418.356364 
L 77.051899 417.134545 
L 78.116067 417.134545 
L 78.3289 416.727273 
L 78.754567 415.505455 
L 78.9674 411.84 
L 79.818734 411.84 
L 80.031568 411.432727 
L 80.457235 411.432727 
L 80.882902 410.618182 
L 81.095735 407.767273 
L 81.308569 406.545455 
L 81.734236 406.545455 
L 81.947069 405.730909 
L 83.86257 405.730909 
L 84.288237 404.509091 
L 84.501071 404.509091 
L 84.713904 396.363636 
L 84.926738 395.956364 
L 85.352405 393.512727 
L 86.416572 393.512727 
L 86.629406 389.44 
L 87.693573 389.44 
L 87.906407 389.032727 
L 88.332074 389.032727 
L 88.544907 387.403636 
L 88.757741 386.996364 
L 88.970574 386.996364 
L 89.183408 386.589091 
L 90.034741 386.589091 
L 90.247575 385.774545 
L 90.673242 385.774545 
L 90.886075 384.552727 
L 91.311742 384.552727 
L 91.524576 384.145455 
L 91.737409 382.516364 
L 92.37591 381.294545 
L 92.588743 381.294545 
L 92.801577 380.887273 
L 94.929911 380.887273 
L 95.142745 379.258182 
L 95.568412 379.258182 
L 95.781245 378.850909 
L 96.632579 378.850909 
L 96.845413 376 
L 97.058246 375.592727 
L 98.548081 375.592727 
L 98.760914 374.778182 
L 98.973748 374.778182 
L 99.186581 371.927273 
L 99.399415 371.52 
L 101.953416 371.52 
L 102.16625 371.112727 
L 102.80475 369.076364 
L 103.443251 369.076364 
L 103.656084 364.596364 
L 103.868918 362.967273 
L 104.294585 362.967273 
L 104.507418 362.152727 
L 105.358752 362.152727 
L 105.571586 361.745455 
L 106.635753 361.745455 
L 106.848586 361.338182 
L 107.274253 361.338182 
L 107.69992 360.523636 
L 108.551254 360.523636 
L 108.764088 360.116364 
L 109.828255 360.116364 
L 110.041089 358.894545 
L 110.253922 358.487273 
L 110.892423 358.487273 
L 111.105256 358.08 
L 111.95659 358.08 
L 112.169423 357.672727 
L 113.659258 357.672727 
L 114.084925 356.043636 
L 114.297758 356.043636 
L 114.510592 355.229091 
L 115.787593 355.229091 
L 116.000426 354.821818 
L 116.85176 354.821818 
L 117.277427 354.007273 
L 117.49026 354.007273 
L 117.703094 353.192727 
L 118.341594 353.192727 
L 118.554428 352.785455 
L 118.767261 351.563636 
L 119.618595 351.563636 
L 119.831429 350.341818 
L 120.044262 350.341818 
L 120.257096 349.934545 
L 120.895596 349.934545 
L 121.10843 349.527273 
L 121.534097 349.527273 
L 121.74693 346.676364 
L 122.811097 346.676364 
L 123.023931 343.825455 
L 123.662431 343.825455 
L 123.875265 343.418182 
L 124.088098 340.567273 
L 124.300932 340.567273 
L 124.513765 339.345455 
L 125.365099 339.345455 
L 125.577933 338.530909 
L 126.216433 338.530909 
L 126.429267 338.123636 
L 126.6421 338.123636 
L 126.854934 337.716364 
L 127.919101 337.716364 
L 128.131935 337.309091 
L 128.983268 337.309091 
L 129.196102 336.494545 
L 129.621769 336.494545 
L 129.834602 336.087273 
L 131.53727 336.087273 
L 131.750104 335.272727 
L 133.027105 335.272727 
L 133.239938 333.643636 
L 135.368273 333.643636 
L 135.581106 333.236364 
L 136.006773 333.236364 
L 136.219607 332.421818 
L 137.070941 332.421818 
L 137.283774 332.014545 
L 137.496608 332.014545 
L 137.709441 331.607273 
L 140.68911 331.607273 
L 140.901943 331.2 
L 141.753277 331.2 
L 141.966111 330.792727 
L 143.243112 330.792727 
L 143.455945 329.570909 
L 144.307279 329.570909 
L 144.520113 329.163636 
L 145.158613 329.163636 
L 145.371446 322.647273 
L 145.58428 322.24 
L 146.435614 322.24 
L 146.648447 321.832727 
L 147.074114 321.832727 
L 147.499781 321.018182 
L 148.138282 321.018182 
L 148.351115 320.610909 
L 149.84095 320.610909 
L 150.266617 315.723636 
L 150.47945 313.687273 
L 150.692283 313.28 
L 151.543617 313.28 
L 151.756451 312.872727 
L 152.820618 312.872727 
L 153.033452 312.465455 
L 153.246285 312.465455 
L 153.671952 311.650909 
L 154.73612 311.650909 
L 154.948953 310.429091 
L 155.587454 310.429091 
L 155.800287 310.021818 
L 156.01312 310.021818 
L 156.225954 309.614545 
L 157.290121 309.614545 
L 157.502955 309.207273 
L 157.715788 309.207273 
L 157.928622 308.8 
L 160.056957 308.8 
L 160.26979 308.392727 
L 163.462292 308.392727 
L 163.675126 307.985455 
L 165.803461 307.985455 
L 166.016294 307.578182 
L 166.229128 307.578182 
L 166.441961 307.170909 
L 168.357462 307.170909 
L 168.570296 306.763636 
L 170.272964 306.763636 
L 170.485797 306.356364 
L 171.762798 306.356364 
L 171.975632 303.098182 
L 172.401299 303.098182 
L 172.614132 302.690909 
L 175.806634 302.690909 
L 176.019468 302.283636 
L 181.978805 302.283636 
L 182.191639 300.247273 
L 184.10714 300.247273 
L 184.319973 299.84 
L 187.512476 299.84 
L 187.725309 299.432727 
L 189.853644 299.432727 
L 190.066477 299.025455 
L 194.323147 299.025455 
L 194.535981 298.618182 
L 196.238648 298.618182 
L 196.451482 294.545455 
L 202.623653 294.545455 
L 202.836486 294.138182 
L 217.521996 294.138182 
L 217.73483 292.509091 
L 219.437498 292.509091 
L 219.650331 291.287273 
L 221.352999 291.287273 
L 221.565833 290.88 
L 226.035336 290.88 
L 226.248169 290.472727 
L 229.015004 290.472727 
L 229.227838 290.065455 
L 229.440671 290.065455 
L 229.866338 289.250909 
L 230.504839 289.250909 
L 230.717672 288.843636 
L 231.78184 288.843636 
L 231.994673 288.436364 
L 232.633174 288.436364 
L 232.846007 287.621818 
L 237.954011 287.621818 
L 238.166844 287.214545 
L 238.592511 287.214545 
L 238.805345 286.4 
L 240.082345 286.4 
L 240.295179 285.992727 
L 242.21068 285.992727 
L 242.423514 285.585455 
L 244.126182 285.585455 
L 244.339015 285.178182 
L 246.46735 285.178182 
L 246.893017 281.512727 
L 247.744351 281.512727 
L 248.170018 280.698182 
L 248.595685 280.698182 
L 249.234185 274.996364 
L 249.659852 267.258182 
L 250.085519 264 
L 250.298353 263.185455 
L 250.511186 261.556364 
L 250.724019 258.705455 
L 250.936853 257.890909 
L 251.149686 255.04 
L 251.36252 255.04 
L 251.575353 253.410909 
L 251.788187 253.410909 
L 252.213854 252.189091 
L 252.426687 251.781818 
L 252.639521 250.967273 
L 253.065188 250.967273 
L 253.278021 250.56 
L 253.490855 249.338182 
L 253.916522 248.523636 
L 254.129355 246.894545 
L 254.342189 246.487273 
L 254.555022 239.970909 
L 254.980689 239.970909 
L 255.193523 234.269091 
L 255.61919 234.269091 
L 255.832023 230.603636 
L 256.044856 230.603636 
L 256.25769 229.789091 
L 256.470523 228.16 
L 256.683357 222.865455 
L 256.89619 222.865455 
L 257.109024 221.643636 
L 257.321857 221.643636 
L 257.534691 221.236364 
L 257.960358 219.607273 
L 258.598858 215.534545 
L 258.811692 215.127273 
L 259.024525 215.127273 
L 259.237359 213.498182 
L 259.450192 213.090909 
L 259.875859 211.869091 
L 260.301526 211.869091 
L 260.727193 210.647273 
L 261.365694 210.647273 
L 261.578527 208.610909 
L 262.004194 208.610909 
L 262.217027 207.796364 
L 262.429861 207.796364 
L 262.642694 206.167273 
L 262.855528 206.167273 
L 263.068361 205.352727 
L 263.281195 205.352727 
L 263.494028 204.130909 
L 263.706862 200.465455 
L 263.919695 200.058182 
L 264.132529 197.614545 
L 264.771029 197.614545 
L 264.983863 194.763636 
L 265.40953 194.763636 
L 265.622363 194.356364 
L 265.835197 194.356364 
L 266.04803 193.949091 
L 266.899364 193.949091 
L 267.112197 192.727273 
L 267.537864 192.727273 
L 267.750698 192.32 
L 267.963531 192.32 
L 268.176365 191.098182 
L 268.814865 191.098182 
L 269.240532 190.283636 
L 273.071535 190.283636 
L 273.497202 189.469091 
L 275.19987 189.469091 
L 275.412703 188.654545 
L 276.902538 188.654545 
L 277.115371 188.247273 
L 277.541038 188.247273 
L 277.753872 187.84 
L 280.09504 187.84 
L 280.307873 187.025455 
L 284.564543 187.025455 
L 284.777376 186.210909 
L 285.203043 186.210909 
L 285.415877 185.803636 
L 287.757045 185.803636 
L 287.969879 185.396364 
L 288.182712 185.396364 
L 288.395546 184.989091 
L 288.821213 184.989091 
L 289.034046 184.581818 
L 298.185886 184.581818 
L 298.398719 183.36 
L 298.824386 183.36 
L 299.03722 182.952727 
L 301.165554 182.952727 
L 301.378388 182.545455 
L 310.104561 182.545455 
L 310.317394 181.730909 
L 317.553732 181.730909 
L 317.766566 181.323636 
L 318.405066 181.323636 
L 318.6179 180.916364 
L 319.682067 180.916364 
L 319.894901 178.88 
L 321.810402 178.88 
L 322.023236 176.436364 
L 323.300236 176.436364 
L 323.51307 170.734545 
L 323.725903 170.734545 
L 323.938737 169.512727 
L 326.067072 169.512727 
L 326.279905 166.254545 
L 330.749408 166.254545 
L 330.962242 158.109091 
L 331.387909 158.109091 
L 331.600742 157.701818 
L 332.026409 157.701818 
L 332.239243 157.294545 
L 334.580411 157.294545 
L 334.793244 156.887273 
L 335.431745 156.887273 
L 335.644578 156.48 
L 343.09375 156.48 
L 343.306584 156.072727 
L 346.286252 156.072727 
L 346.499086 155.665455 
L 346.711919 155.665455 
L 346.924753 144.261818 
L 347.137586 144.261818 
L 347.35042 143.854545 
L 347.563253 141.003636 
L 348.201754 141.003636 
L 348.414587 136.523636 
L 349.265921 136.523636 
L 349.478755 136.116364 
L 349.691588 133.265455 
L 351.819923 133.265455 
L 352.032756 131.229091 
L 354.161091 131.229091 
L 354.373925 129.192727 
L 354.586758 128.785455 
L 354.799592 128.785455 
L 355.012425 127.970909 
L 355.225259 127.970909 
L 355.438092 127.563636 
L 355.863759 127.563636 
L 356.076592 127.156364 
L 357.353593 127.156364 
L 357.566427 126.341818 
L 357.77926 126.341818 
L 357.992094 125.934545 
L 359.056261 125.934545 
L 359.269095 125.12 
L 360.971763 125.12 
L 361.184596 124.712727 
L 361.39743 124.712727 
L 361.610263 123.898182 
L 362.887264 123.898182 
L 363.100097 123.083636 
L 363.312931 123.083636 
L 363.525764 122.676364 
L 375.657273 122.676364 
L 375.657273 122.676364 
" clip-path="url(#pd1eaf4e437)" style="fill: none; stroke: #b9db57; stroke-width: 1.2; stroke-linecap: round"/>
   </g>
   <g id="line2d_32">
    <path d="M 69.602727 483.316364 
L 69.815561 464.378182 
L 70.028394 458.269091 
L 70.454061 456.232727 
L 70.879728 453.789091 
L 71.305395 453.789091 
L 71.731062 451.345455 
L 73.008063 446.458182 
L 73.646563 441.163636 
L 73.859397 439.941818 
L 74.07223 437.905455 
L 74.285064 437.905455 
L 74.710731 437.090909 
L 74.923564 437.090909 
L 75.136398 436.683636 
L 75.562065 435.461818 
L 75.987732 434.647273 
L 76.413399 432.610909 
L 76.626232 432.203636 
L 77.051899 432.203636 
L 77.264733 431.796364 
L 78.116067 431.796364 
L 78.3289 431.389091 
L 78.541733 431.389091 
L 78.754567 430.981818 
L 79.180234 430.981818 
L 79.393067 430.574545 
L 80.031568 430.574545 
L 80.244401 429.76 
L 80.457235 411.84 
L 80.882902 411.025455 
L 81.521402 411.025455 
L 81.734236 410.618182 
L 82.372736 410.618182 
L 82.58557 410.210909 
L 83.22407 410.210909 
L 83.436904 409.803636 
L 83.649737 408.989091 
L 83.86257 406.952727 
L 84.288237 406.138182 
L 85.139571 406.138182 
L 85.565238 405.323636 
L 85.778072 394.734545 
L 85.990905 393.512727 
L 86.203739 393.105455 
L 94.291411 393.105455 
L 94.504245 392.698182 
L 94.929911 391.476364 
L 95.142745 391.476364 
L 95.355578 391.069091 
L 95.568412 391.069091 
L 95.994079 389.847273 
L 96.419746 389.847273 
L 96.632579 387.810909 
L 97.483913 387.810909 
L 97.696747 387.403636 
L 97.90958 386.589091 
L 98.335247 386.589091 
L 98.548081 374.778182 
L 98.760914 374.778182 
L 98.973748 374.370909 
L 99.186581 374.370909 
L 99.612248 373.556364 
L 100.676415 373.556364 
L 101.102082 369.890909 
L 101.953416 369.890909 
L 102.16625 369.483636 
L 103.230417 369.483636 
L 103.443251 367.854545 
L 103.656084 367.447273 
L 103.868918 362.56 
L 104.294585 362.56 
L 104.507418 362.152727 
L 104.720252 361.338182 
L 110.466756 361.338182 
L 110.679589 360.930909 
L 114.297758 360.930909 
L 114.510592 360.523636 
L 116.638927 360.523636 
L 116.85176 354.007273 
L 117.703094 354.007273 
L 117.915927 353.6 
L 119.405762 353.6 
L 119.831429 352.378182 
L 121.321263 352.378182 
L 121.534097 345.861818 
L 121.74693 344.64 
L 122.385431 344.64 
L 122.598264 344.232727 
L 123.023931 344.232727 
L 123.236764 339.345455 
L 123.449598 338.938182 
L 126.216433 338.938182 
L 126.429267 338.530909 
L 126.6421 337.716364 
L 127.280601 337.716364 
L 127.493434 337.309091 
L 128.344768 337.309091 
L 128.770435 336.494545 
L 128.983268 333.643636 
L 130.89877 333.643636 
L 131.111603 332.829091 
L 131.962937 332.829091 
L 132.175771 332.421818 
L 132.814271 332.421818 
L 133.027105 332.014545 
L 134.729772 332.014545 
L 134.942606 330.792727 
L 142.604611 330.792727 
L 143.030278 328.756364 
L 143.455945 328.756364 
L 143.881612 319.796364 
L 147.499781 319.796364 
L 147.712615 318.981818 
L 150.053783 318.981818 
L 150.266617 318.167273 
L 150.47945 311.650909 
L 152.394951 311.650909 
L 152.607785 311.243636 
L 154.523286 311.243636 
L 154.73612 310.836364 
L 155.161787 310.836364 
L 155.37462 308.392727 
L 162.610958 308.392727 
L 162.823792 305.949091 
L 165.16496 305.949091 
L 165.377794 305.541818 
L 169.208796 305.541818 
L 169.42163 304.727273 
L 175.593801 304.727273 
L 175.806634 304.32 
L 177.296469 304.32 
L 177.509302 300.247273 
L 177.722136 299.432727 
L 177.934969 299.432727 
L 178.147803 299.025455 
L 179.85047 299.025455 
L 180.276137 298.210909 
L 180.488971 298.210909 
L 180.701804 297.803636 
L 181.127471 297.803636 
L 181.553138 296.989091 
L 185.171307 296.989091 
L 185.384141 296.581818 
L 186.873975 296.581818 
L 187.086809 295.767273 
L 188.150976 295.767273 
L 188.36381 295.36 
L 189.215144 295.36 
L 189.427977 294.545455 
L 189.64081 294.545455 
L 189.853644 293.730909 
L 194.961647 293.730909 
L 195.174481 293.323636 
L 195.387314 288.029091 
L 195.600148 287.214545 
L 196.238648 287.214545 
L 196.451482 286.807273 
L 197.302816 286.807273 
L 197.515649 286.4 
L 201.133818 286.4 
L 201.346652 285.585455 
L 204.326321 285.585455 
L 204.539154 285.178182 
L 204.964821 285.178182 
L 205.177655 284.770909 
L 209.859991 284.770909 
L 210.072825 284.363636 
L 217.521996 284.363636 
L 217.73483 283.956364 
L 218.798997 283.956364 
L 219.011831 283.549091 
L 223.055667 283.549091 
L 223.2685 283.141818 
L 226.461003 283.141818 
L 226.673836 280.290909 
L 230.504839 280.290909 
L 231.143339 278.254545 
L 231.356173 277.847273 
L 238.379678 277.847273 
L 238.805345 277.032727 
L 239.018178 277.032727 
L 239.443845 275.810909 
L 241.997847 275.810909 
L 242.21068 275.403636 
L 244.126182 275.403636 
L 244.339015 274.589091 
L 244.551849 274.589091 
L 244.764682 274.181818 
L 246.041683 274.181818 
L 246.254516 272.552727 
L 246.46735 272.145455 
L 247.744351 272.145455 
L 248.170018 271.330909 
L 248.382851 271.330909 
L 248.808518 268.072727 
L 249.021352 267.665455 
L 249.234185 266.850909 
L 249.447019 266.850909 
L 249.659852 259.112727 
L 250.298353 255.447273 
L 250.511186 250.56 
L 250.724019 249.745455 
L 251.149686 243.229091 
L 251.36252 242.007273 
L 252.852354 242.007273 
L 253.065188 241.192727 
L 253.278021 241.192727 
L 253.703688 240.378182 
L 253.916522 235.083636 
L 254.129355 234.676364 
L 254.342189 234.676364 
L 254.555022 228.567273 
L 254.767856 227.752727 
L 255.193523 222.050909 
L 255.406356 221.236364 
L 255.832023 217.978182 
L 256.044856 217.570909 
L 256.25769 216.349091 
L 256.470523 210.24 
L 256.683357 208.610909 
L 256.89619 208.610909 
L 257.321857 207.389091 
L 257.534691 207.389091 
L 257.747524 206.574545 
L 257.960358 206.574545 
L 258.173191 202.909091 
L 258.386025 201.687273 
L 258.811692 200.872727 
L 259.024525 200.058182 
L 259.237359 198.429091 
L 259.450192 198.429091 
L 260.088693 197.207273 
L 260.301526 197.207273 
L 260.51436 196.8 
L 260.727193 195.985455 
L 261.79136 195.985455 
L 262.004194 193.134545 
L 262.217027 192.727273 
L 262.429861 192.727273 
L 262.642694 191.098182 
L 262.855528 190.690909 
L 263.068361 190.690909 
L 263.281195 188.654545 
L 263.494028 187.84 
L 263.706862 184.174545 
L 264.345362 182.138182 
L 264.558196 182.138182 
L 264.771029 179.287273 
L 264.983863 178.472727 
L 265.196696 178.472727 
L 265.40953 178.065455 
L 265.622363 178.065455 
L 265.835197 177.658182 
L 266.473697 177.658182 
L 266.899364 176.436364 
L 267.537864 176.436364 
L 267.750698 176.029091 
L 267.963531 174.807273 
L 272.220201 174.807273 
L 272.433035 174.4 
L 272.645868 174.4 
L 272.858701 173.178182 
L 273.071535 173.178182 
L 273.284368 172.770909 
L 273.497202 171.956364 
L 277.328205 171.956364 
L 277.541038 171.141818 
L 279.882206 171.141818 
L 280.307873 170.327273 
L 287.331378 170.327273 
L 287.544212 169.512727 
L 287.757045 169.512727 
L 288.182712 168.698182 
L 289.88538 168.698182 
L 290.098213 168.290909 
L 295.844717 168.290909 
L 296.057551 167.069091 
L 298.611553 167.069091 
L 298.824386 166.661818 
L 301.804055 166.661818 
L 302.016888 166.254545 
L 309.891727 166.254545 
L 310.104561 165.44 
L 317.766566 165.44 
L 318.192233 164.625455 
L 318.830733 164.625455 
L 319.2564 162.996364 
L 319.469234 162.996364 
L 319.894901 162.181818 
L 320.959068 162.181818 
L 321.384735 160.96 
L 321.597569 160.552727 
L 321.810402 159.738182 
L 322.448903 159.738182 
L 322.661736 158.923636 
L 322.874569 154.443636 
L 323.087403 154.036364 
L 323.300236 152.814545 
L 323.51307 152.407273 
L 323.725903 152.407273 
L 323.938737 151.592727 
L 324.364404 151.592727 
L 324.790071 149.963636 
L 325.002904 149.963636 
L 325.641405 147.927273 
L 326.067072 147.927273 
L 326.492739 145.890909 
L 326.705572 145.076364 
L 326.918406 145.076364 
L 327.131239 144.261818 
L 327.344073 144.261818 
L 327.76974 143.04 
L 328.195406 143.04 
L 328.621073 141.818182 
L 328.833907 141.410909 
L 329.04674 141.410909 
L 329.259574 141.003636 
L 329.472407 141.003636 
L 329.898074 140.189091 
L 330.323741 140.189091 
L 330.536575 139.781818 
L 330.962242 139.781818 
L 331.175075 139.374545 
L 332.026409 139.374545 
L 332.239243 138.967273 
L 334.367577 138.967273 
L 334.580411 138.56 
L 346.286252 138.56 
L 346.499086 127.563636 
L 346.924753 122.676364 
L 347.137586 122.269091 
L 347.563253 116.974545 
L 347.776087 116.567273 
L 347.98892 115.752727 
L 348.201754 115.752727 
L 348.627421 112.087273 
L 348.840254 112.087273 
L 349.265921 111.272727 
L 349.478755 110.458182 
L 349.904422 110.458182 
L 350.542922 108.421818 
L 350.755755 108.421818 
L 350.968589 108.014545 
L 352.88409 108.014545 
L 353.096924 107.607273 
L 353.309757 107.607273 
L 353.522591 105.570909 
L 354.161091 105.570909 
L 354.373925 104.756364 
L 354.799592 104.756364 
L 355.012425 104.349091 
L 355.225259 104.349091 
L 355.438092 103.941818 
L 355.650926 103.127273 
L 355.863759 103.127273 
L 356.076592 102.72 
L 356.502259 102.72 
L 356.927926 101.905455 
L 357.14076 101.090909 
L 357.353593 101.090909 
L 357.566427 99.869091 
L 360.546096 99.869091 
L 360.758929 99.461818 
L 360.971763 98.647273 
L 363.312931 98.647273 
L 363.525764 98.24 
L 375.657273 98.24 
L 375.657273 98.24 
" clip-path="url(#pd1eaf4e437)" style="fill: none; stroke: #57db94; stroke-width: 1.2; stroke-linecap: round"/>
   </g>
   <g id="line2d_33">
    <path d="M 69.602727 487.389091 
L 69.815561 481.076364 
L 70.028394 480.669091 
L 70.454061 480.669091 
L 70.666895 480.261818 
L 71.305395 480.261818 
L 71.518229 444.829091 
L 72.156729 440.756364 
L 72.369563 440.756364 
L 73.008063 439.534545 
L 73.220896 439.534545 
L 73.43373 430.981818 
L 73.646563 430.981818 
L 73.859397 430.574545 
L 74.497897 430.574545 
L 74.710731 430.167273 
L 74.923564 430.167273 
L 75.136398 429.76 
L 75.349231 429.76 
L 75.562065 422.021818 
L 75.774898 421.614545 
L 75.987732 421.614545 
L 76.200565 421.207273 
L 76.626232 421.207273 
L 76.839066 420.8 
L 77.051899 420.8 
L 77.264733 418.356364 
L 77.477566 417.949091 
L 77.6904 417.134545 
L 77.903233 417.134545 
L 78.3289 416.32 
L 79.393067 416.32 
L 79.605901 414.690909 
L 79.818734 414.283636 
L 80.031568 414.283636 
L 80.244401 413.876364 
L 80.457235 413.876364 
L 80.670068 413.061818 
L 80.882902 411.432727 
L 82.159903 411.432727 
L 82.372736 408.989091 
L 82.58557 408.581818 
L 82.798403 408.581818 
L 83.011237 407.767273 
L 83.22407 406.138182 
L 83.436904 405.730909 
L 84.713904 405.730909 
L 84.926738 405.323636 
L 85.139571 398.4 
L 85.352405 398.4 
L 85.565238 395.549091 
L 86.203739 394.327273 
L 86.842239 394.327273 
L 87.055073 393.92 
L 87.48074 393.92 
L 87.906407 390.254545 
L 106.210086 390.254545 
L 106.422919 365.410909 
L 117.703094 365.410909 
L 117.915927 365.003636 
L 120.682763 365.003636 
L 120.895596 364.596364 
L 121.10843 363.781818 
L 121.321263 353.192727 
L 126.429267 353.192727 
L 126.6421 352.785455 
L 135.368273 352.785455 
L 136.006773 350.749091 
L 136.219607 350.749091 
L 136.43244 336.494545 
L 139.199276 336.494545 
L 139.412109 335.68 
L 141.966111 335.68 
L 142.178944 334.865455 
L 157.077288 334.865455 
L 157.290121 313.687273 
L 157.502955 313.28 
L 170.06013 313.28 
L 170.272964 310.836364 
L 170.485797 310.836364 
L 170.698631 307.985455 
L 170.911464 307.578182 
L 172.826965 307.578182 
L 173.039799 307.170909 
L 187.938143 307.170909 
L 188.150976 304.32 
L 190.917811 304.32 
L 191.130645 303.912727 
L 212.626826 303.912727 
L 212.83966 298.210909 
L 235.400009 298.210909 
L 235.612842 291.287273 
L 239.018178 291.287273 
L 239.231012 290.472727 
L 239.443845 290.472727 
L 239.656678 289.658182 
L 243.274848 289.658182 
L 243.487681 289.250909 
L 246.46735 289.250909 
L 246.680183 286.807273 
L 246.893017 286.807273 
L 247.10585 284.770909 
L 250.085519 284.770909 
L 250.298353 267.665455 
L 252.639521 267.665455 
L 252.852354 253.818182 
L 256.25769 253.818182 
L 256.683357 224.494545 
L 259.024525 224.494545 
L 259.237359 214.312727 
L 262.004194 214.312727 
L 262.217027 207.796364 
L 264.558196 207.796364 
L 264.771029 195.985455 
L 268.176365 195.985455 
L 268.389198 189.469091 
L 271.581701 189.469091 
L 271.794534 188.654545 
L 288.395546 188.654545 
L 288.608379 183.36 
L 307.763392 183.36 
L 307.976226 181.323636 
L 310.530228 181.323636 
L 310.743061 180.509091 
L 318.405066 180.509091 
L 318.6179 179.694545 
L 334.154744 179.694545 
L 334.367577 154.036364 
L 334.580411 154.036364 
L 335.006078 153.221818 
L 337.985747 153.221818 
L 338.19858 152.814545 
L 355.012425 152.814545 
L 355.225259 120.64 
L 358.630594 120.64 
L 358.843428 116.974545 
L 361.39743 116.974545 
L 361.610263 115.752727 
L 364.377098 115.752727 
L 364.589932 115.345455 
L 375.657273 115.345455 
L 375.657273 115.345455 
" clip-path="url(#pd1eaf4e437)" style="fill: none; stroke: #5784db; stroke-width: 1.2; stroke-linecap: round"/>
   </g>
   <g id="line2d_34">
    <path d="M 69.602727 482.298182 
L 69.815561 457.454545 
L 70.028394 450.123636 
L 70.666895 443.2 
L 71.518229 438.312727 
L 71.943896 432.610909 
L 72.582396 428.538182 
L 72.795229 426.909091 
L 73.220896 426.094545 
L 73.43373 425.28 
L 73.859397 422.836364 
L 74.497897 421.614545 
L 74.710731 419.578182 
L 74.923564 419.578182 
L 75.349231 415.912727 
L 75.562065 415.505455 
L 75.987732 414.283636 
L 76.626232 413.061818 
L 76.839066 412.247273 
L 77.264733 412.247273 
L 77.477566 411.84 
L 77.6904 411.025455 
L 77.903233 411.025455 
L 78.9674 408.989091 
L 79.393067 408.989091 
L 79.818734 408.174545 
L 80.031568 408.174545 
L 80.244401 407.767273 
L 80.457235 407.767273 
L 80.882902 405.323636 
L 81.095735 405.323636 
L 81.308569 404.101818 
L 81.521402 404.101818 
L 81.734236 403.694545 
L 81.947069 402.88 
L 82.372736 402.88 
L 82.798403 402.065455 
L 83.22407 400.029091 
L 83.436904 399.621818 
L 83.649737 398.807273 
L 83.86257 396.770909 
L 84.075404 396.770909 
L 84.288237 395.956364 
L 84.501071 395.956364 
L 84.713904 393.92 
L 84.926738 393.105455 
L 85.352405 390.254545 
L 86.629406 385.367273 
L 86.842239 385.367273 
L 87.055073 384.96 
L 87.693573 384.96 
L 87.906407 383.330909 
L 88.544907 383.330909 
L 89.183408 382.109091 
L 90.034741 382.109091 
L 90.247575 381.701818 
L 90.673242 381.701818 
L 90.886075 380.48 
L 91.311742 380.48 
L 91.524576 380.072727 
L 91.737409 378.443636 
L 92.37591 377.221818 
L 92.588743 377.221818 
L 92.801577 376.814545 
L 94.291411 376.814545 
L 95.355578 374.778182 
L 95.568412 374.778182 
L 95.994079 373.556364 
L 96.419746 373.556364 
L 96.632579 371.927273 
L 96.845413 371.927273 
L 97.058246 371.52 
L 97.483913 371.52 
L 97.696747 371.112727 
L 97.90958 370.298182 
L 98.335247 370.298182 
L 98.548081 369.890909 
L 99.612248 366.225455 
L 100.676415 366.225455 
L 101.102082 365.003636 
L 101.953416 365.003636 
L 102.379083 363.374545 
L 103.230417 363.374545 
L 103.443251 361.745455 
L 103.656084 356.858182 
L 103.868918 356.450909 
L 104.294585 356.450909 
L 104.507418 355.229091 
L 106.635753 355.229091 
L 106.848586 354.821818 
L 107.274253 354.821818 
L 107.69992 354.007273 
L 108.551254 354.007273 
L 108.764088 353.6 
L 109.828255 353.6 
L 110.041089 352.378182 
L 110.253922 351.970909 
L 110.892423 351.970909 
L 111.105256 351.563636 
L 111.95659 351.563636 
L 112.169423 351.156364 
L 113.659258 351.156364 
L 114.084925 349.527273 
L 114.297758 349.527273 
L 114.510592 348.712727 
L 115.787593 348.712727 
L 116.000426 348.305455 
L 116.426093 348.305455 
L 116.638927 347.898182 
L 116.85176 347.898182 
L 117.277427 347.083636 
L 117.49026 347.083636 
L 117.915927 346.269091 
L 118.341594 346.269091 
L 118.554428 345.861818 
L 118.767261 344.64 
L 119.405762 344.64 
L 120.044262 342.603636 
L 120.257096 342.196364 
L 120.895596 342.196364 
L 121.10843 341.789091 
L 121.321263 341.789091 
L 121.534097 339.752727 
L 121.74693 335.68 
L 122.385431 335.68 
L 122.598264 335.272727 
L 123.023931 335.272727 
L 123.236764 333.236364 
L 123.449598 332.829091 
L 123.662431 332.829091 
L 124.088098 332.014545 
L 124.300932 332.014545 
L 124.513765 330.792727 
L 125.365099 330.792727 
L 125.577933 329.978182 
L 126.216433 329.978182 
L 126.6421 328.756364 
L 127.280601 328.756364 
L 127.493434 328.349091 
L 128.344768 328.349091 
L 128.770435 327.534545 
L 130.89877 327.534545 
L 131.111603 326.72 
L 131.962937 326.72 
L 132.175771 326.312727 
L 132.814271 326.312727 
L 133.027105 325.905455 
L 133.239938 324.683636 
L 135.368273 324.683636 
L 135.581106 324.276364 
L 135.79394 324.276364 
L 136.006773 323.461818 
L 137.070941 323.461818 
L 137.283774 322.647273 
L 140.68911 322.647273 
L 140.901943 322.24 
L 141.753277 322.24 
L 141.966111 321.832727 
L 142.604611 321.832727 
L 143.030278 320.203636 
L 143.455945 320.203636 
L 143.881612 313.687273 
L 144.307279 313.687273 
L 144.520113 313.28 
L 145.371446 313.28 
L 145.58428 312.872727 
L 146.435614 312.872727 
L 146.648447 312.465455 
L 147.074114 312.465455 
L 147.499781 311.650909 
L 147.712615 310.836364 
L 148.138282 310.836364 
L 148.351115 310.429091 
L 149.84095 310.429091 
L 150.266617 305.949091 
L 150.47945 304.727273 
L 150.692283 304.32 
L 151.11795 304.32 
L 151.330784 303.912727 
L 152.394951 303.912727 
L 152.607785 303.505455 
L 152.820618 303.505455 
L 153.033452 303.098182 
L 153.246285 303.098182 
L 153.459119 302.690909 
L 154.73612 302.690909 
L 154.948953 301.469091 
L 155.587454 301.469091 
L 155.800287 301.061818 
L 156.01312 301.061818 
L 156.225954 300.654545 
L 156.438787 300.654545 
L 156.651621 300.247273 
L 157.290121 300.247273 
L 157.502955 299.84 
L 160.056957 299.84 
L 160.26979 299.432727 
L 161.972458 299.432727 
L 162.185291 299.025455 
L 165.16496 299.025455 
L 165.377794 298.618182 
L 166.229128 298.618182 
L 166.441961 298.210909 
L 168.357462 298.210909 
L 168.570296 297.803636 
L 170.06013 297.803636 
L 170.485797 296.989091 
L 170.698631 294.138182 
L 172.401299 294.138182 
L 172.614132 293.730909 
L 175.593801 293.730909 
L 175.806634 293.323636 
L 177.509302 293.323636 
L 177.722136 292.509091 
L 177.934969 292.509091 
L 178.147803 292.101818 
L 179.85047 292.101818 
L 180.276137 291.287273 
L 180.488971 291.287273 
L 180.914638 290.472727 
L 181.127471 290.472727 
L 181.340305 290.065455 
L 184.10714 290.065455 
L 184.319973 289.658182 
L 185.171307 289.658182 
L 185.384141 289.250909 
L 186.873975 289.250909 
L 187.086809 288.436364 
L 187.512476 288.436364 
L 187.725309 288.029091 
L 188.150976 288.029091 
L 188.36381 287.621818 
L 189.215144 287.621818 
L 189.427977 286.807273 
L 189.853644 286.807273 
L 190.066477 286.4 
L 192.620479 286.4 
L 192.833313 285.992727 
L 195.174481 285.992727 
L 195.387314 280.698182 
L 195.600148 279.883636 
L 196.238648 279.883636 
L 196.451482 278.661818 
L 197.302816 278.661818 
L 197.515649 278.254545 
L 202.623653 278.254545 
L 202.836486 277.847273 
L 204.326321 277.847273 
L 204.539154 277.44 
L 204.964821 277.44 
L 205.177655 277.032727 
L 215.180828 277.032727 
L 215.393662 275.403636 
L 217.521996 275.403636 
L 217.73483 274.589091 
L 218.798997 274.589091 
L 219.011831 274.181818 
L 219.437498 274.181818 
L 219.650331 273.774545 
L 221.352999 273.774545 
L 221.565833 273.367273 
L 223.055667 273.367273 
L 223.2685 272.96 
L 226.035336 272.96 
L 226.248169 272.552727 
L 229.015004 272.552727 
L 229.227838 272.145455 
L 229.440671 272.145455 
L 229.653505 271.738182 
L 230.504839 271.738182 
L 230.930506 270.516364 
L 231.143339 270.516364 
L 231.356173 270.109091 
L 238.379678 270.109091 
L 238.805345 269.294545 
L 239.018178 269.294545 
L 239.656678 268.072727 
L 241.997847 268.072727 
L 242.423514 267.258182 
L 243.700515 267.258182 
L 243.913348 266.850909 
L 244.126182 266.850909 
L 244.339015 266.036364 
L 244.551849 266.036364 
L 244.764682 265.629091 
L 246.041683 265.629091 
L 246.46735 264.814545 
L 247.10585 262.778182 
L 247.957184 262.778182 
L 248.170018 262.370909 
L 248.595685 262.370909 
L 249.021352 259.112727 
L 249.234185 256.261818 
L 249.659852 248.930909 
L 250.085519 245.672727 
L 250.511186 242.821818 
L 250.936853 237.12 
L 251.149686 234.269091 
L 251.36252 233.861818 
L 251.788187 233.861818 
L 252.213854 232.64 
L 252.426687 232.232727 
L 252.639521 231.418182 
L 252.852354 231.418182 
L 253.065188 230.603636 
L 253.278021 230.603636 
L 253.703688 228.16 
L 253.916522 226.938182 
L 254.342189 226.123636 
L 254.555022 218.792727 
L 254.767856 218.385455 
L 255.61919 210.647273 
L 255.832023 209.425455 
L 256.044856 209.425455 
L 256.25769 207.389091 
L 256.470523 201.28 
L 256.683357 199.650909 
L 257.109024 199.650909 
L 257.321857 199.243636 
L 257.534691 199.243636 
L 257.960358 197.614545 
L 258.173191 193.541818 
L 258.598858 192.32 
L 258.811692 192.32 
L 259.024525 191.505455 
L 259.237359 189.876364 
L 259.450192 189.469091 
L 259.663026 189.469091 
L 259.875859 188.654545 
L 260.301526 188.654545 
L 260.727193 187.432727 
L 261.365694 187.432727 
L 261.578527 185.803636 
L 261.79136 185.803636 
L 262.217027 184.581818 
L 262.429861 184.581818 
L 262.642694 182.952727 
L 262.855528 182.545455 
L 263.068361 182.545455 
L 263.281195 180.509091 
L 263.494028 179.694545 
L 263.706862 176.029091 
L 264.345362 173.992727 
L 264.558196 173.992727 
L 264.771029 171.141818 
L 264.983863 170.327273 
L 265.196696 170.327273 
L 265.40953 169.92 
L 265.622363 169.92 
L 265.835197 169.512727 
L 266.473697 169.512727 
L 266.899364 168.290909 
L 267.537864 168.290909 
L 268.176365 166.254545 
L 268.814865 166.254545 
L 269.240532 165.44 
L 272.220201 165.44 
L 272.433035 165.032727 
L 273.071535 165.032727 
L 273.284368 164.625455 
L 273.497202 163.810909 
L 276.902538 163.810909 
L 277.115371 163.403636 
L 277.328205 163.403636 
L 277.541038 162.996364 
L 279.882206 162.996364 
L 280.307873 162.181818 
L 284.564543 162.181818 
L 284.777376 161.367273 
L 287.757045 161.367273 
L 288.182712 160.552727 
L 288.395546 160.552727 
L 288.608379 160.145455 
L 295.844717 160.145455 
L 296.057551 158.923636 
L 298.611553 158.923636 
L 298.824386 158.516364 
L 301.165554 158.516364 
L 301.378388 158.109091 
L 309.891727 158.109091 
L 310.104561 157.294545 
L 317.553732 157.294545 
L 317.766566 156.887273 
L 317.979399 156.887273 
L 318.192233 156.48 
L 318.830733 156.48 
L 319.2564 154.850909 
L 319.469234 154.850909 
L 319.894901 154.036364 
L 320.959068 154.036364 
L 321.384735 152.814545 
L 321.597569 152.407273 
L 321.810402 151.592727 
L 322.448903 151.592727 
L 322.661736 150.778182 
L 322.874569 146.298182 
L 323.087403 145.890909 
L 323.300236 144.669091 
L 323.51307 144.261818 
L 323.725903 144.261818 
L 323.938737 143.447273 
L 324.364404 143.447273 
L 324.790071 141.818182 
L 325.002904 141.818182 
L 325.641405 139.781818 
L 326.067072 139.781818 
L 326.492739 137.745455 
L 326.705572 136.930909 
L 326.918406 136.930909 
L 327.131239 136.116364 
L 327.344073 136.116364 
L 327.76974 134.894545 
L 328.195406 134.894545 
L 328.621073 133.672727 
L 328.833907 133.265455 
L 329.04674 133.265455 
L 329.259574 132.858182 
L 329.472407 132.858182 
L 329.898074 132.043636 
L 330.323741 132.043636 
L 330.536575 131.636364 
L 330.962242 131.636364 
L 331.175075 131.229091 
L 332.026409 131.229091 
L 332.239243 130.821818 
L 334.367577 130.821818 
L 334.793244 130.007273 
L 335.431745 130.007273 
L 335.644578 129.6 
L 346.286252 129.6 
L 346.499086 118.603636 
L 346.924753 113.716364 
L 347.137586 113.309091 
L 347.563253 108.014545 
L 347.776087 107.607273 
L 347.98892 106.792727 
L 348.201754 106.792727 
L 348.627421 103.127273 
L 348.840254 103.127273 
L 349.265921 102.312727 
L 349.478755 101.090909 
L 349.904422 101.090909 
L 350.330089 99.461818 
L 350.755755 99.461818 
L 350.968589 99.054545 
L 352.88409 99.054545 
L 353.096924 98.647273 
L 353.309757 98.647273 
L 353.522591 96.610909 
L 354.161091 96.610909 
L 354.373925 95.796364 
L 354.799592 95.796364 
L 355.012425 94.574545 
L 355.225259 94.574545 
L 355.438092 94.167273 
L 355.863759 94.167273 
L 356.076592 93.352727 
L 356.502259 93.352727 
L 357.14076 92.130909 
L 357.353593 92.130909 
L 357.566427 90.909091 
L 360.546096 90.909091 
L 360.758929 90.501818 
L 360.971763 89.687273 
L 363.312931 89.687273 
L 363.525764 89.28 
L 375.657273 89.28 
L 375.657273 89.28 
" clip-path="url(#pd1eaf4e437)" style="fill: none; stroke: #c957db; stroke-width: 1.2; stroke-linecap: round"/>
   </g>
   <g id="line2d_35"/>
   <g id="line2d_36"/>
   <g id="line2d_37"/>
   <g id="line2d_38"/>
   <g id="line2d_39"/>
   <g id="patch_3">
    <path d="M 54.3 512.64 
L 54.3 69.12 
" style="fill: none; stroke: #cccccc; stroke-linejoin: miter; stroke-linecap: square"/>
   </g>
   <g id="patch_4">
    <path d="M 54.3 512.64 
L 390.96 512.64 
" style="fill: none; stroke: #cccccc; stroke-linejoin: miter; stroke-linecap: square"/>
   </g>
   <g id="text_32">
    <!-- Edge Coverage History -->
    <g style="fill: #262626" transform="translate(115.738512 63.12)scale(0.165888 -0.165888)">
     <defs>
      <path id="DejaVuSans-Bold-45" d="M 588 4666 
L 3834 4666 
L 3834 3756 
L 1791 3756 
L 1791 2888 
L 3713 2888 
L 3713 1978 
L 1791 1978 
L 1791 909 
L 3903 909 
L 3903 0 
L 588 0 
L 588 4666 
z
" transform="scale(0.015625)"/>
      <path id="DejaVuSans-Bold-64" d="M 2919 2988 
L 2919 4863 
L 4044 4863 
L 4044 0 
L 2919 0 
L 2919 506 
Q 2688 197 2409 53 
Q 2131 -91 1766 -91 
Q 1119 -91 703 423 
Q 288 938 288 1747 
Q 288 2556 703 3070 
Q 1119 3584 1766 3584 
Q 2128 3584 2408 3439 
Q 2688 3294 2919 2988 
z
M 2181 722 
Q 2541 722 2730 984 
Q 2919 1247 2919 1747 
Q 2919 2247 2730 2509 
Q 2541 2772 2181 2772 
Q 1825 2772 1636 2509 
Q 1447 2247 1447 1747 
Q 1447 1247 1636 984 
Q 1825 722 2181 722 
z
" transform="scale(0.015625)"/>
      <path id="DejaVuSans-Bold-67" d="M 2919 594 
Q 2688 288 2409 144 
Q 2131 0 1766 0 
Q 1125 0 706 504 
Q 288 1009 288 1791 
Q 288 2575 706 3076 
Q 1125 3578 1766 3578 
Q 2131 3578 2409 3434 
Q 2688 3291 2919 2981 
L 2919 3500 
L 4044 3500 
L 4044 353 
Q 4044 -491 3511 -936 
Q 2978 -1381 1966 -1381 
Q 1638 -1381 1331 -1331 
Q 1025 -1281 716 -1178 
L 716 -306 
Q 1009 -475 1290 -558 
Q 1572 -641 1856 -641 
Q 2406 -641 2662 -400 
Q 2919 -159 2919 353 
L 2919 594 
z
M 2181 2772 
Q 1834 2772 1640 2515 
Q 1447 2259 1447 1791 
Q 1447 1309 1634 1061 
Q 1822 813 2181 813 
Q 2531 813 2725 1069 
Q 2919 1325 2919 1791 
Q 2919 2259 2725 2515 
Q 2531 2772 2181 2772 
z
" transform="scale(0.015625)"/>
      <path id="DejaVuSans-Bold-65" d="M 4031 1759 
L 4031 1441 
L 1416 1441 
Q 1456 1047 1700 850 
Q 1944 653 2381 653 
Q 2734 653 3104 758 
Q 3475 863 3866 1075 
L 3866 213 
Q 3469 63 3072 -14 
Q 2675 -91 2278 -91 
Q 1328 -91 801 392 
Q 275 875 275 1747 
Q 275 2603 792 3093 
Q 1309 3584 2216 3584 
Q 3041 3584 3536 3087 
Q 4031 2591 4031 1759 
z
M 2881 2131 
Q 2881 2450 2695 2645 
Q 2509 2841 2209 2841 
Q 1884 2841 1681 2658 
Q 1478 2475 1428 2131 
L 2881 2131 
z
" transform="scale(0.015625)"/>
      <path id="DejaVuSans-Bold-20" transform="scale(0.015625)"/>
      <path id="DejaVuSans-Bold-43" d="M 4288 256 
Q 3956 84 3597 -3 
Q 3238 -91 2847 -91 
Q 1681 -91 1000 561 
Q 319 1213 319 2328 
Q 319 3447 1000 4098 
Q 1681 4750 2847 4750 
Q 3238 4750 3597 4662 
Q 3956 4575 4288 4403 
L 4288 3438 
Q 3953 3666 3628 3772 
Q 3303 3878 2944 3878 
Q 2300 3878 1931 3465 
Q 1563 3053 1563 2328 
Q 1563 1606 1931 1193 
Q 2300 781 2944 781 
Q 3303 781 3628 887 
Q 3953 994 4288 1222 
L 4288 256 
z
" transform="scale(0.015625)"/>
      <path id="DejaVuSans-Bold-6f" d="M 2203 2784 
Q 1831 2784 1636 2517 
Q 1441 2250 1441 1747 
Q 1441 1244 1636 976 
Q 1831 709 2203 709 
Q 2569 709 2762 976 
Q 2956 1244 2956 1747 
Q 2956 2250 2762 2517 
Q 2569 2784 2203 2784 
z
M 2203 3584 
Q 3106 3584 3614 3096 
Q 4122 2609 4122 1747 
Q 4122 884 3614 396 
Q 3106 -91 2203 -91 
Q 1297 -91 786 396 
Q 275 884 275 1747 
Q 275 2609 786 3096 
Q 1297 3584 2203 3584 
z
" transform="scale(0.015625)"/>
      <path id="DejaVuSans-Bold-76" d="M 97 3500 
L 1216 3500 
L 2088 1081 
L 2956 3500 
L 4078 3500 
L 2700 0 
L 1472 0 
L 97 3500 
z
" transform="scale(0.015625)"/>
      <path id="DejaVuSans-Bold-72" d="M 3138 2547 
Q 2991 2616 2845 2648 
Q 2700 2681 2553 2681 
Q 2122 2681 1889 2404 
Q 1656 2128 1656 1613 
L 1656 0 
L 538 0 
L 538 3500 
L 1656 3500 
L 1656 2925 
Q 1872 3269 2151 3426 
Q 2431 3584 2822 3584 
Q 2878 3584 2943 3579 
Q 3009 3575 3134 3559 
L 3138 2547 
z
" transform="scale(0.015625)"/>
      <path id="DejaVuSans-Bold-61" d="M 2106 1575 
Q 1756 1575 1579 1456 
Q 1403 1338 1403 1106 
Q 1403 894 1545 773 
Q 1688 653 1941 653 
Q 2256 653 2472 879 
Q 2688 1106 2688 1447 
L 2688 1575 
L 2106 1575 
z
M 3816 1997 
L 3816 0 
L 2688 0 
L 2688 519 
Q 2463 200 2181 54 
Q 1900 -91 1497 -91 
Q 953 -91 614 226 
Q 275 544 275 1050 
Q 275 1666 698 1953 
Q 1122 2241 2028 2241 
L 2688 2241 
L 2688 2328 
Q 2688 2594 2478 2717 
Q 2269 2841 1825 2841 
Q 1466 2841 1156 2769 
Q 847 2697 581 2553 
L 581 3406 
Q 941 3494 1303 3539 
Q 1666 3584 2028 3584 
Q 2975 3584 3395 3211 
Q 3816 2838 3816 1997 
z
" transform="scale(0.015625)"/>
      <path id="DejaVuSans-Bold-48" d="M 588 4666 
L 1791 4666 
L 1791 2888 
L 3566 2888 
L 3566 4666 
L 4769 4666 
L 4769 0 
L 3566 0 
L 3566 1978 
L 1791 1978 
L 1791 0 
L 588 0 
L 588 4666 
z
" transform="scale(0.015625)"/>
      <path id="DejaVuSans-Bold-69" d="M 538 3500 
L 1656 3500 
L 1656 0 
L 538 0 
L 538 3500 
z
M 538 4863 
L 1656 4863 
L 1656 3950 
L 538 3950 
L 538 4863 
z
" transform="scale(0.015625)"/>
      <path id="DejaVuSans-Bold-73" d="M 3272 3391 
L 3272 2541 
Q 2913 2691 2578 2766 
Q 2244 2841 1947 2841 
Q 1628 2841 1473 2761 
Q 1319 2681 1319 2516 
Q 1319 2381 1436 2309 
Q 1553 2238 1856 2203 
L 2053 2175 
Q 2913 2066 3209 1816 
Q 3506 1566 3506 1031 
Q 3506 472 3093 190 
Q 2681 -91 1863 -91 
Q 1516 -91 1145 -36 
Q 775 19 384 128 
L 384 978 
Q 719 816 1070 734 
Q 1422 653 1784 653 
Q 2113 653 2278 743 
Q 2444 834 2444 1013 
Q 2444 1163 2330 1236 
Q 2216 1309 1875 1350 
L 1678 1375 
Q 931 1469 631 1722 
Q 331 1975 331 2491 
Q 331 3047 712 3315 
Q 1094 3584 1881 3584 
Q 2191 3584 2531 3537 
Q 2872 3491 3272 3391 
z
" transform="scale(0.015625)"/>
      <path id="DejaVuSans-Bold-74" d="M 1759 4494 
L 1759 3500 
L 2913 3500 
L 2913 2700 
L 1759 2700 
L 1759 1216 
Q 1759 972 1856 886 
Q 1953 800 2241 800 
L 2816 800 
L 2816 0 
L 1856 0 
Q 1194 0 917 276 
Q 641 553 641 1216 
L 641 2700 
L 84 2700 
L 84 3500 
L 641 3500 
L 641 4494 
L 1759 4494 
z
" transform="scale(0.015625)"/>
      <path id="DejaVuSans-Bold-79" d="M 78 3500 
L 1197 3500 
L 2138 1125 
L 2938 3500 
L 4056 3500 
L 2584 -331 
Q 2363 -916 2067 -1148 
Q 1772 -1381 1288 -1381 
L 641 -1381 
L 641 -647 
L 991 -647 
Q 1275 -647 1404 -556 
Q 1534 -466 1606 -231 
L 1638 -134 
L 78 3500 
z
" transform="scale(0.015625)"/>
     </defs>
     <use xlink:href="#DejaVuSans-Bold-45"/>
     <use xlink:href="#DejaVuSans-Bold-64" x="68.310547"/>
     <use xlink:href="#DejaVuSans-Bold-67" x="139.892578"/>
     <use xlink:href="#DejaVuSans-Bold-65" x="211.474609"/>
     <use xlink:href="#DejaVuSans-Bold-20" x="279.296875"/>
     <use xlink:href="#DejaVuSans-Bold-43" x="314.111328"/>
     <use xlink:href="#DejaVuSans-Bold-6f" x="387.5"/>
     <use xlink:href="#DejaVuSans-Bold-76" x="456.201172"/>
     <use xlink:href="#DejaVuSans-Bold-65" x="521.386719"/>
     <use xlink:href="#DejaVuSans-Bold-72" x="589.208984"/>
     <use xlink:href="#DejaVuSans-Bold-61" x="638.525391"/>
     <use xlink:href="#DejaVuSans-Bold-67" x="706.005859"/>
     <use xlink:href="#DejaVuSans-Bold-65" x="777.587891"/>
     <use xlink:href="#DejaVuSans-Bold-20" x="845.410156"/>
     <use xlink:href="#DejaVuSans-Bold-48" x="880.224609"/>
     <use xlink:href="#DejaVuSans-Bold-69" x="963.916016"/>
     <use xlink:href="#DejaVuSans-Bold-73" x="998.193359"/>
     <use xlink:href="#DejaVuSans-Bold-74" x="1057.714844"/>
     <use xlink:href="#DejaVuSans-Bold-6f" x="1105.517578"/>
     <use xlink:href="#DejaVuSans-Bold-72" x="1174.21875"/>
     <use xlink:href="#DejaVuSans-Bold-79" x="1223.535156"/>
    </g>
   </g>
   <g id="legend_1">
    <g id="patch_5">
     <path d="M 60.46 154.6795 
L 177.588 154.6795 
Q 179.348 154.6795 179.348 152.9195 
L 179.348 75.28 
Q 179.348 73.52 177.588 73.52 
L 60.46 73.52 
Q 58.7 73.52 58.7 75.28 
L 58.7 152.9195 
Q 58.7 154.6795 60.46 154.6795 
z
" style="fill: #ffffff; opacity: 0.8; stroke: #cccccc; stroke-width: 0.8; stroke-linejoin: miter"/>
    </g>
    <g id="text_33">
     <!-- fuzzer -->
     <g style="fill: #262626" transform="translate(104.327 84.3345)scale(0.096 -0.096)">
      <defs>
       <path id="DejaVuSans-66" d="M 2375 4863 
L 2375 4384 
L 1825 4384 
Q 1516 4384 1395 4259 
Q 1275 4134 1275 3809 
L 1275 3500 
L 2222 3500 
L 2222 3053 
L 1275 3053 
L 1275 0 
L 697 0 
L 697 3053 
L 147 3053 
L 147 3500 
L 697 3500 
L 697 3744 
Q 697 4328 969 4595 
Q 1241 4863 1831 4863 
L 2375 4863 
z
" transform="scale(0.015625)"/>
       <path id="DejaVuSans-7a" d="M 353 3500 
L 3084 3500 
L 3084 2975 
L 922 459 
L 3084 459 
L 3084 0 
L 275 0 
L 275 525 
L 2438 3041 
L 353 3041 
L 353 3500 
z
" transform="scale(0.015625)"/>
      </defs>
      <use xlink:href="#DejaVuSans-66"/>
      <use xlink:href="#DejaVuSans-75" x="35.205078"/>
      <use xlink:href="#DejaVuSans-7a" x="98.583984"/>
      <use xlink:href="#DejaVuSans-7a" x="151.074219"/>
      <use xlink:href="#DejaVuSans-65" x="203.564453"/>
      <use xlink:href="#DejaVuSans-72" x="265.087891"/>
     </g>
    </g>
    <g id="line2d_40">
     <path d="M 62.22 94.337625 
L 71.02 94.337625 
L 79.82 94.337625 
" style="fill: none; stroke: #db5f57; stroke-width: 1.2; stroke-linecap: round"/>
    </g>
    <g id="text_34">
     <!-- aflfast-0-exid24 -->
     <g style="fill: #262626" transform="translate(86.86 97.417625)scale(0.088 -0.088)">
      <defs>
       <path id="DejaVuSans-6c" d="M 603 4863 
L 1178 4863 
L 1178 0 
L 603 0 
L 603 4863 
z
" transform="scale(0.015625)"/>
       <path id="DejaVuSans-2d" d="M 313 2009 
L 1997 2009 
L 1997 1497 
L 313 1497 
L 313 2009 
z
" transform="scale(0.015625)"/>
       <path id="DejaVuSans-78" d="M 3513 3500 
L 2247 1797 
L 3578 0 
L 2900 0 
L 1881 1375 
L 863 0 
L 184 0 
L 1544 1831 
L 300 3500 
L 978 3500 
L 1906 2253 
L 2834 3500 
L 3513 3500 
z
" transform="scale(0.015625)"/>
      </defs>
      <use xlink:href="#DejaVuSans-61"/>
      <use xlink:href="#DejaVuSans-66" x="61.279297"/>
      <use xlink:href="#DejaVuSans-6c" x="96.484375"/>
      <use xlink:href="#DejaVuSans-66" x="124.267578"/>
      <use xlink:href="#DejaVuSans-61" x="159.472656"/>
      <use xlink:href="#DejaVuSans-73" x="220.751953"/>
      <use xlink:href="#DejaVuSans-74" x="272.851562"/>
      <use xlink:href="#DejaVuSans-2d" x="312.060547"/>
      <use xlink:href="#DejaVuSans-30" x="348.144531"/>
      <use xlink:href="#DejaVuSans-2d" x="411.767578"/>
      <use xlink:href="#DejaVuSans-65" x="447.851562"/>
      <use xlink:href="#DejaVuSans-78" x="507.625"/>
      <use xlink:href="#DejaVuSans-69" x="566.804688"/>
      <use xlink:href="#DejaVuSans-64" x="594.587891"/>
      <use xlink:href="#DejaVuSans-32" x="658.064453"/>
      <use xlink:href="#DejaVuSans-34" x="721.6875"/>
     </g>
    </g>
    <g id="line2d_41">
     <path d="M 62.22 107.254375 
L 71.02 107.254375 
L 79.82 107.254375 
" style="fill: none; stroke: #b9db57; stroke-width: 1.2; stroke-linecap: round"/>
    </g>
    <g id="text_35">
     <!-- afl-0-exid24 -->
     <g style="fill: #262626" transform="translate(86.86 110.334375)scale(0.088 -0.088)">
      <use xlink:href="#DejaVuSans-61"/>
      <use xlink:href="#DejaVuSans-66" x="61.279297"/>
      <use xlink:href="#DejaVuSans-6c" x="96.484375"/>
      <use xlink:href="#DejaVuSans-2d" x="124.267578"/>
      <use xlink:href="#DejaVuSans-30" x="160.351562"/>
      <use xlink:href="#DejaVuSans-2d" x="223.974609"/>
      <use xlink:href="#DejaVuSans-65" x="260.058594"/>
      <use xlink:href="#DejaVuSans-78" x="319.832031"/>
      <use xlink:href="#DejaVuSans-69" x="379.011719"/>
      <use xlink:href="#DejaVuSans-64" x="406.794922"/>
      <use xlink:href="#DejaVuSans-32" x="470.271484"/>
      <use xlink:href="#DejaVuSans-34" x="533.894531"/>
     </g>
    </g>
    <g id="line2d_42">
     <path d="M 62.22 120.171125 
L 71.02 120.171125 
L 79.82 120.171125 
" style="fill: none; stroke: #57db94; stroke-width: 1.2; stroke-linecap: round"/>
    </g>
    <g id="text_36">
     <!-- fairfuzz-0-exid24 -->
     <g style="fill: #262626" transform="translate(86.86 123.251125)scale(0.088 -0.088)">
      <use xlink:href="#DejaVuSans-66"/>
      <use xlink:href="#DejaVuSans-61" x="35.205078"/>
      <use xlink:href="#DejaVuSans-69" x="96.484375"/>
      <use xlink:href="#DejaVuSans-72" x="124.267578"/>
      <use xlink:href="#DejaVuSans-66" x="165.380859"/>
      <use xlink:href="#DejaVuSans-75" x="200.585938"/>
      <use xlink:href="#DejaVuSans-7a" x="263.964844"/>
      <use xlink:href="#DejaVuSans-7a" x="316.455078"/>
      <use xlink:href="#DejaVuSans-2d" x="368.945312"/>
      <use xlink:href="#DejaVuSans-30" x="405.029297"/>
      <use xlink:href="#DejaVuSans-2d" x="468.652344"/>
      <use xlink:href="#DejaVuSans-65" x="504.736328"/>
      <use xlink:href="#DejaVuSans-78" x="564.509766"/>
      <use xlink:href="#DejaVuSans-69" x="623.689453"/>
      <use xlink:href="#DejaVuSans-64" x="651.472656"/>
      <use xlink:href="#DejaVuSans-32" x="714.949219"/>
      <use xlink:href="#DejaVuSans-34" x="778.572266"/>
     </g>
    </g>
    <g id="line2d_43">
     <path d="M 62.22 133.087875 
L 71.02 133.087875 
L 79.82 133.087875 
" style="fill: none; stroke: #5784db; stroke-width: 1.2; stroke-linecap: round"/>
    </g>
    <g id="text_37">
     <!-- aflplusplus-0-exid24 -->
     <g style="fill: #262626" transform="translate(86.86 136.167875)scale(0.088 -0.088)">
      <defs>
       <path id="DejaVuSans-70" d="M 1159 525 
L 1159 -1331 
L 581 -1331 
L 581 3500 
L 1159 3500 
L 1159 2969 
Q 1341 3281 1617 3432 
Q 1894 3584 2278 3584 
Q 2916 3584 3314 3078 
Q 3713 2572 3713 1747 
Q 3713 922 3314 415 
Q 2916 -91 2278 -91 
Q 1894 -91 1617 61 
Q 1341 213 1159 525 
z
M 3116 1747 
Q 3116 2381 2855 2742 
Q 2594 3103 2138 3103 
Q 1681 3103 1420 2742 
Q 1159 2381 1159 1747 
Q 1159 1113 1420 752 
Q 1681 391 2138 391 
Q 2594 391 2855 752 
Q 3116 1113 3116 1747 
z
" transform="scale(0.015625)"/>
      </defs>
      <use xlink:href="#DejaVuSans-61"/>
      <use xlink:href="#DejaVuSans-66" x="61.279297"/>
      <use xlink:href="#DejaVuSans-6c" x="96.484375"/>
      <use xlink:href="#DejaVuSans-70" x="124.267578"/>
      <use xlink:href="#DejaVuSans-6c" x="187.744141"/>
      <use xlink:href="#DejaVuSans-75" x="215.527344"/>
      <use xlink:href="#DejaVuSans-73" x="278.90625"/>
      <use xlink:href="#DejaVuSans-70" x="331.005859"/>
      <use xlink:href="#DejaVuSans-6c" x="394.482422"/>
      <use xlink:href="#DejaVuSans-75" x="422.265625"/>
      <use xlink:href="#DejaVuSans-73" x="485.644531"/>
      <use xlink:href="#DejaVuSans-2d" x="537.744141"/>
      <use xlink:href="#DejaVuSans-30" x="573.828125"/>
      <use xlink:href="#DejaVuSans-2d" x="637.451172"/>
      <use xlink:href="#DejaVuSans-65" x="673.535156"/>
      <use xlink:href="#DejaVuSans-78" x="733.308594"/>
      <use xlink:href="#DejaVuSans-69" x="792.488281"/>
      <use xlink:href="#DejaVuSans-64" x="820.271484"/>
      <use xlink:href="#DejaVuSans-32" x="883.748047"/>
      <use xlink:href="#DejaVuSans-34" x="947.371094"/>
     </g>
    </g>
    <g id="line2d_44">
     <path d="M 62.22 146.004625 
L 71.02 146.004625 
L 79.82 146.004625 
" style="fill: none; stroke: #c957db; stroke-width: 1.2; stroke-linecap: round"/>
    </g>
    <g id="text_38">
     <!-- fuzzer_global -->
     <g style="fill: #262626" transform="translate(86.86 149.084625)scale(0.088 -0.088)">
      <defs>
       <path id="DejaVuSans-5f" d="M 3263 -1063 
L 3263 -1509 
L -63 -1509 
L -63 -1063 
L 3263 -1063 
z
" transform="scale(0.015625)"/>
       <path id="DejaVuSans-62" d="M 3116 1747 
Q 3116 2381 2855 2742 
Q 2594 3103 2138 3103 
Q 1681 3103 1420 2742 
Q 1159 2381 1159 1747 
Q 1159 1113 1420 752 
Q 1681 391 2138 391 
Q 2594 391 2855 752 
Q 3116 1113 3116 1747 
z
M 1159 2969 
Q 1341 3281 1617 3432 
Q 1894 3584 2278 3584 
Q 2916 3584 3314 3078 
Q 3713 2572 3713 1747 
Q 3713 922 3314 415 
Q 2916 -91 2278 -91 
Q 1894 -91 1617 61 
Q 1341 213 1159 525 
L 1159 0 
L 581 0 
L 581 4863 
L 1159 4863 
L 1159 2969 
z
" transform="scale(0.015625)"/>
      </defs>
      <use xlink:href="#DejaVuSans-66"/>
      <use xlink:href="#DejaVuSans-75" x="35.205078"/>
      <use xlink:href="#DejaVuSans-7a" x="98.583984"/>
      <use xlink:href="#DejaVuSans-7a" x="151.074219"/>
      <use xlink:href="#DejaVuSans-65" x="203.564453"/>
      <use xlink:href="#DejaVuSans-72" x="265.087891"/>
      <use xlink:href="#DejaVuSans-5f" x="306.201172"/>
      <use xlink:href="#DejaVuSans-67" x="356.201172"/>
      <use xlink:href="#DejaVuSans-6c" x="419.677734"/>
      <use xlink:href="#DejaVuSans-6f" x="447.460938"/>
      <use xlink:href="#DejaVuSans-62" x="508.642578"/>
      <use xlink:href="#DejaVuSans-61" x="572.119141"/>
      <use xlink:href="#DejaVuSans-6c" x="633.398438"/>
     </g>
    </g>
   </g>
  </g>
 </g>
 <defs>
  <clipPath id="pd1eaf4e437">
   <rect x="54.3" y="69.12" width="336.66" height="443.52"/>
  </clipPath>
 </defs>
</svg>
