<?xml version="1.0" encoding="utf-8" standalone="no"?>
<!DOCTYPE svg PUBLIC "-//W3C//DTD SVG 1.1//EN"
  "http://www.w3.org/Graphics/SVG/1.1/DTD/svg11.dtd">
<svg xmlns:xlink="http://www.w3.org/1999/xlink" width="434.7pt" height="576pt" viewBox="0 0 434.7 576" xmlns="http://www.w3.org/2000/svg" version="1.1">
 <metadata>
  <rdf:RDF xmlns:dc="http://purl.org/dc/elements/1.1/" xmlns:cc="http://creativecommons.org/ns#" xmlns:rdf="http://www.w3.org/1999/02/22-rdf-syntax-ns#">
   <cc:Work>
    <dc:type rdf:resource="http://purl.org/dc/dcmitype/StillImage"/>
    <dc:date>2022-09-15T10:20:11.288039</dc:date>
    <dc:format>image/svg+xml</dc:format>
    <dc:creator>
     <cc:Agent>
      <dc:title>Matplotlib v3.5.3, https://matplotlib.org/</dc:title>
     </cc:Agent>
    </dc:creator>
   </cc:Work>
  </rdf:RDF>
 </metadata>
 <defs>
  <style type="text/css">*{stroke-linejoin: round; stroke-linecap: butt}</style>
 </defs>
 <g id="figure_1">
  <g id="patch_1">
   <path d="M 0 576 
L 434.7 576 
L 434.7 0 
L 0 0 
z
" style="fill: #ffffff"/>
  </g>
  <g id="axes_1">
   <g id="patch_2">
    <path d="M 54.3375 512.64 
L 391.23 512.64 
L 391.23 69.12 
L 54.3375 69.12 
z
" style="fill: #ffffff"/>
   </g>
   <g id="matplotlib.axis_1">
    <g id="xtick_1">
     <g id="line2d_1">
      <path d="M 69.650795 512.64 
L 69.650795 69.12 
" clip-path="url(#p26fc2b2106)" style="fill: none; stroke: #cccccc; stroke-width: 0.8; stroke-linecap: round"/>
     </g>
     <g id="text_1">
      <!-- 0 -->
      <g style="fill: #262626" transform="translate(69.388282 529.627249)rotate(-45)scale(0.088 -0.088)">
       <defs>
        <path id="DejaVuSans-30" d="M 2034 4250 
Q 1547 4250 1301 3770 
Q 1056 3291 1056 2328 
Q 1056 1369 1301 889 
Q 1547 409 2034 409 
Q 2525 409 2770 889 
Q 3016 1369 3016 2328 
Q 3016 3291 2770 3770 
Q 2525 4250 2034 4250 
z
M 2034 4750 
Q 2819 4750 3233 4129 
Q 3647 3509 3647 2328 
Q 3647 1150 3233 529 
Q 2819 -91 2034 -91 
Q 1250 -91 836 529 
Q 422 1150 422 2328 
Q 422 3509 836 4129 
Q 1250 4750 2034 4750 
z
" transform="scale(0.015625)"/>
       </defs>
       <use xlink:href="#DejaVuSans-30"/>
      </g>
     </g>
    </g>
    <g id="xtick_2">
     <g id="line2d_2">
      <path d="M 86.677392 512.64 
L 86.677392 69.12 
" clip-path="url(#p26fc2b2106)" style="fill: none; stroke: #cccccc; stroke-width: 0.8; stroke-linecap: round"/>
     </g>
     <g id="text_2">
      <!-- 80 -->
      <g style="fill: #262626" transform="translate(84.435333 533.58634)rotate(-45)scale(0.088 -0.088)">
       <defs>
        <path id="DejaVuSans-38" d="M 2034 2216 
Q 1584 2216 1326 1975 
Q 1069 1734 1069 1313 
Q 1069 891 1326 650 
Q 1584 409 2034 409 
Q 2484 409 2743 651 
Q 3003 894 3003 1313 
Q 3003 1734 2745 1975 
Q 2488 2216 2034 2216 
z
M 1403 2484 
Q 997 2584 770 2862 
Q 544 3141 544 3541 
Q 544 4100 942 4425 
Q 1341 4750 2034 4750 
Q 2731 4750 3128 4425 
Q 3525 4100 3525 3541 
Q 3525 3141 3298 2862 
Q 3072 2584 2669 2484 
Q 3125 2378 3379 2068 
Q 3634 1759 3634 1313 
Q 3634 634 3220 271 
Q 2806 -91 2034 -91 
Q 1263 -91 848 271 
Q 434 634 434 1313 
Q 434 1759 690 2068 
Q 947 2378 1403 2484 
z
M 1172 3481 
Q 1172 3119 1398 2916 
Q 1625 2713 2034 2713 
Q 2441 2713 2670 2916 
Q 2900 3119 2900 3481 
Q 2900 3844 2670 4047 
Q 2441 4250 2034 4250 
Q 1625 4250 1398 4047 
Q 1172 3844 1172 3481 
z
" transform="scale(0.015625)"/>
       </defs>
       <use xlink:href="#DejaVuSans-38"/>
       <use xlink:href="#DejaVuSans-30" x="63.623047"/>
      </g>
     </g>
    </g>
    <g id="xtick_3">
     <g id="line2d_3">
      <path d="M 103.703989 512.64 
L 103.703989 69.12 
" clip-path="url(#p26fc2b2106)" style="fill: none; stroke: #cccccc; stroke-width: 0.8; stroke-linecap: round"/>
     </g>
     <g id="text_3">
      <!-- 160 -->
      <g style="fill: #262626" transform="translate(99.482385 537.54543)rotate(-45)scale(0.088 -0.088)">
       <defs>
        <path id="DejaVuSans-31" d="M 794 531 
L 1825 531 
L 1825 4091 
L 703 3866 
L 703 4441 
L 1819 4666 
L 2450 4666 
L 2450 531 
L 3481 531 
L 3481 0 
L 794 0 
L 794 531 
z
" transform="scale(0.015625)"/>
        <path id="DejaVuSans-36" d="M 2113 2584 
Q 1688 2584 1439 2293 
Q 1191 2003 1191 1497 
Q 1191 994 1439 701 
Q 1688 409 2113 409 
Q 2538 409 2786 701 
Q 3034 994 3034 1497 
Q 3034 2003 2786 2293 
Q 2538 2584 2113 2584 
z
M 3366 4563 
L 3366 3988 
Q 3128 4100 2886 4159 
Q 2644 4219 2406 4219 
Q 1781 4219 1451 3797 
Q 1122 3375 1075 2522 
Q 1259 2794 1537 2939 
Q 1816 3084 2150 3084 
Q 2853 3084 3261 2657 
Q 3669 2231 3669 1497 
Q 3669 778 3244 343 
Q 2819 -91 2113 -91 
Q 1303 -91 875 529 
Q 447 1150 447 2328 
Q 447 3434 972 4092 
Q 1497 4750 2381 4750 
Q 2619 4750 2861 4703 
Q 3103 4656 3366 4563 
z
" transform="scale(0.015625)"/>
       </defs>
       <use xlink:href="#DejaVuSans-31"/>
       <use xlink:href="#DejaVuSans-36" x="63.623047"/>
       <use xlink:href="#DejaVuSans-30" x="127.246094"/>
      </g>
     </g>
    </g>
    <g id="xtick_4">
     <g id="line2d_4">
      <path d="M 120.730586 512.64 
L 120.730586 69.12 
" clip-path="url(#p26fc2b2106)" style="fill: none; stroke: #cccccc; stroke-width: 0.8; stroke-linecap: round"/>
     </g>
     <g id="text_4">
      <!-- 240 -->
      <g style="fill: #262626" transform="translate(116.508981 537.54543)rotate(-45)scale(0.088 -0.088)">
       <defs>
        <path id="DejaVuSans-32" d="M 1228 531 
L 3431 531 
L 3431 0 
L 469 0 
L 469 531 
Q 828 903 1448 1529 
Q 2069 2156 2228 2338 
Q 2531 2678 2651 2914 
Q 2772 3150 2772 3378 
Q 2772 3750 2511 3984 
Q 2250 4219 1831 4219 
Q 1534 4219 1204 4116 
Q 875 4013 500 3803 
L 500 4441 
Q 881 4594 1212 4672 
Q 1544 4750 1819 4750 
Q 2544 4750 2975 4387 
Q 3406 4025 3406 3419 
Q 3406 3131 3298 2873 
Q 3191 2616 2906 2266 
Q 2828 2175 2409 1742 
Q 1991 1309 1228 531 
z
" transform="scale(0.015625)"/>
        <path id="DejaVuSans-34" d="M 2419 4116 
L 825 1625 
L 2419 1625 
L 2419 4116 
z
M 2253 4666 
L 3047 4666 
L 3047 1625 
L 3713 1625 
L 3713 1100 
L 3047 1100 
L 3047 0 
L 2419 0 
L 2419 1100 
L 313 1100 
L 313 1709 
L 2253 4666 
z
" transform="scale(0.015625)"/>
       </defs>
       <use xlink:href="#DejaVuSans-32"/>
       <use xlink:href="#DejaVuSans-34" x="63.623047"/>
       <use xlink:href="#DejaVuSans-30" x="127.246094"/>
      </g>
     </g>
    </g>
    <g id="xtick_5">
     <g id="line2d_5">
      <path d="M 137.757182 512.64 
L 137.757182 69.12 
" clip-path="url(#p26fc2b2106)" style="fill: none; stroke: #cccccc; stroke-width: 0.8; stroke-linecap: round"/>
     </g>
     <g id="text_5">
      <!-- 320 -->
      <g style="fill: #262626" transform="translate(133.535578 537.54543)rotate(-45)scale(0.088 -0.088)">
       <defs>
        <path id="DejaVuSans-33" d="M 2597 2516 
Q 3050 2419 3304 2112 
Q 3559 1806 3559 1356 
Q 3559 666 3084 287 
Q 2609 -91 1734 -91 
Q 1441 -91 1130 -33 
Q 819 25 488 141 
L 488 750 
Q 750 597 1062 519 
Q 1375 441 1716 441 
Q 2309 441 2620 675 
Q 2931 909 2931 1356 
Q 2931 1769 2642 2001 
Q 2353 2234 1838 2234 
L 1294 2234 
L 1294 2753 
L 1863 2753 
Q 2328 2753 2575 2939 
Q 2822 3125 2822 3475 
Q 2822 3834 2567 4026 
Q 2313 4219 1838 4219 
Q 1578 4219 1281 4162 
Q 984 4106 628 3988 
L 628 4550 
Q 988 4650 1302 4700 
Q 1616 4750 1894 4750 
Q 2613 4750 3031 4423 
Q 3450 4097 3450 3541 
Q 3450 3153 3228 2886 
Q 3006 2619 2597 2516 
z
" transform="scale(0.015625)"/>
       </defs>
       <use xlink:href="#DejaVuSans-33"/>
       <use xlink:href="#DejaVuSans-32" x="63.623047"/>
       <use xlink:href="#DejaVuSans-30" x="127.246094"/>
      </g>
     </g>
    </g>
    <g id="xtick_6">
     <g id="line2d_6">
      <path d="M 154.783779 512.64 
L 154.783779 69.12 
" clip-path="url(#p26fc2b2106)" style="fill: none; stroke: #cccccc; stroke-width: 0.8; stroke-linecap: round"/>
     </g>
     <g id="text_6">
      <!-- 400 -->
      <g style="fill: #262626" transform="translate(150.562175 537.54543)rotate(-45)scale(0.088 -0.088)">
       <use xlink:href="#DejaVuSans-34"/>
       <use xlink:href="#DejaVuSans-30" x="63.623047"/>
       <use xlink:href="#DejaVuSans-30" x="127.246094"/>
      </g>
     </g>
    </g>
    <g id="xtick_7">
     <g id="line2d_7">
      <path d="M 171.810376 512.64 
L 171.810376 69.12 
" clip-path="url(#p26fc2b2106)" style="fill: none; stroke: #cccccc; stroke-width: 0.8; stroke-linecap: round"/>
     </g>
     <g id="text_7">
      <!-- 480 -->
      <g style="fill: #262626" transform="translate(167.588772 537.54543)rotate(-45)scale(0.088 -0.088)">
       <use xlink:href="#DejaVuSans-34"/>
       <use xlink:href="#DejaVuSans-38" x="63.623047"/>
       <use xlink:href="#DejaVuSans-30" x="127.246094"/>
      </g>
     </g>
    </g>
    <g id="xtick_8">
     <g id="line2d_8">
      <path d="M 188.836973 512.64 
L 188.836973 69.12 
" clip-path="url(#p26fc2b2106)" style="fill: none; stroke: #cccccc; stroke-width: 0.8; stroke-linecap: round"/>
     </g>
     <g id="text_8">
      <!-- 560 -->
      <g style="fill: #262626" transform="translate(184.615368 537.54543)rotate(-45)scale(0.088 -0.088)">
       <defs>
        <path id="DejaVuSans-35" d="M 691 4666 
L 3169 4666 
L 3169 4134 
L 1269 4134 
L 1269 2991 
Q 1406 3038 1543 3061 
Q 1681 3084 1819 3084 
Q 2600 3084 3056 2656 
Q 3513 2228 3513 1497 
Q 3513 744 3044 326 
Q 2575 -91 1722 -91 
Q 1428 -91 1123 -41 
Q 819 9 494 109 
L 494 744 
Q 775 591 1075 516 
Q 1375 441 1709 441 
Q 2250 441 2565 725 
Q 2881 1009 2881 1497 
Q 2881 1984 2565 2268 
Q 2250 2553 1709 2553 
Q 1456 2553 1204 2497 
Q 953 2441 691 2322 
L 691 4666 
z
" transform="scale(0.015625)"/>
       </defs>
       <use xlink:href="#DejaVuSans-35"/>
       <use xlink:href="#DejaVuSans-36" x="63.623047"/>
       <use xlink:href="#DejaVuSans-30" x="127.246094"/>
      </g>
     </g>
    </g>
    <g id="xtick_9">
     <g id="line2d_9">
      <path d="M 205.863569 512.64 
L 205.863569 69.12 
" clip-path="url(#p26fc2b2106)" style="fill: none; stroke: #cccccc; stroke-width: 0.8; stroke-linecap: round"/>
     </g>
     <g id="text_9">
      <!-- 640 -->
      <g style="fill: #262626" transform="translate(201.641965 537.54543)rotate(-45)scale(0.088 -0.088)">
       <use xlink:href="#DejaVuSans-36"/>
       <use xlink:href="#DejaVuSans-34" x="63.623047"/>
       <use xlink:href="#DejaVuSans-30" x="127.246094"/>
      </g>
     </g>
    </g>
    <g id="xtick_10">
     <g id="line2d_10">
      <path d="M 222.890166 512.64 
L 222.890166 69.12 
" clip-path="url(#p26fc2b2106)" style="fill: none; stroke: #cccccc; stroke-width: 0.8; stroke-linecap: round"/>
     </g>
     <g id="text_10">
      <!-- 720 -->
      <g style="fill: #262626" transform="translate(218.668562 537.54543)rotate(-45)scale(0.088 -0.088)">
       <defs>
        <path id="DejaVuSans-37" d="M 525 4666 
L 3525 4666 
L 3525 4397 
L 1831 0 
L 1172 0 
L 2766 4134 
L 525 4134 
L 525 4666 
z
" transform="scale(0.015625)"/>
       </defs>
       <use xlink:href="#DejaVuSans-37"/>
       <use xlink:href="#DejaVuSans-32" x="63.623047"/>
       <use xlink:href="#DejaVuSans-30" x="127.246094"/>
      </g>
     </g>
    </g>
    <g id="xtick_11">
     <g id="line2d_11">
      <path d="M 239.916763 512.64 
L 239.916763 69.12 
" clip-path="url(#p26fc2b2106)" style="fill: none; stroke: #cccccc; stroke-width: 0.8; stroke-linecap: round"/>
     </g>
     <g id="text_11">
      <!-- 800 -->
      <g style="fill: #262626" transform="translate(235.695159 537.54543)rotate(-45)scale(0.088 -0.088)">
       <use xlink:href="#DejaVuSans-38"/>
       <use xlink:href="#DejaVuSans-30" x="63.623047"/>
       <use xlink:href="#DejaVuSans-30" x="127.246094"/>
      </g>
     </g>
    </g>
    <g id="xtick_12">
     <g id="line2d_12">
      <path d="M 256.94336 512.64 
L 256.94336 69.12 
" clip-path="url(#p26fc2b2106)" style="fill: none; stroke: #cccccc; stroke-width: 0.8; stroke-linecap: round"/>
     </g>
     <g id="text_12">
      <!-- 880 -->
      <g style="fill: #262626" transform="translate(252.721755 537.54543)rotate(-45)scale(0.088 -0.088)">
       <use xlink:href="#DejaVuSans-38"/>
       <use xlink:href="#DejaVuSans-38" x="63.623047"/>
       <use xlink:href="#DejaVuSans-30" x="127.246094"/>
      </g>
     </g>
    </g>
    <g id="xtick_13">
     <g id="line2d_13">
      <path d="M 273.969956 512.64 
L 273.969956 69.12 
" clip-path="url(#p26fc2b2106)" style="fill: none; stroke: #cccccc; stroke-width: 0.8; stroke-linecap: round"/>
     </g>
     <g id="text_13">
      <!-- 960 -->
      <g style="fill: #262626" transform="translate(269.748352 537.54543)rotate(-45)scale(0.088 -0.088)">
       <defs>
        <path id="DejaVuSans-39" d="M 703 97 
L 703 672 
Q 941 559 1184 500 
Q 1428 441 1663 441 
Q 2288 441 2617 861 
Q 2947 1281 2994 2138 
Q 2813 1869 2534 1725 
Q 2256 1581 1919 1581 
Q 1219 1581 811 2004 
Q 403 2428 403 3163 
Q 403 3881 828 4315 
Q 1253 4750 1959 4750 
Q 2769 4750 3195 4129 
Q 3622 3509 3622 2328 
Q 3622 1225 3098 567 
Q 2575 -91 1691 -91 
Q 1453 -91 1209 -44 
Q 966 3 703 97 
z
M 1959 2075 
Q 2384 2075 2632 2365 
Q 2881 2656 2881 3163 
Q 2881 3666 2632 3958 
Q 2384 4250 1959 4250 
Q 1534 4250 1286 3958 
Q 1038 3666 1038 3163 
Q 1038 2656 1286 2365 
Q 1534 2075 1959 2075 
z
" transform="scale(0.015625)"/>
       </defs>
       <use xlink:href="#DejaVuSans-39"/>
       <use xlink:href="#DejaVuSans-36" x="63.623047"/>
       <use xlink:href="#DejaVuSans-30" x="127.246094"/>
      </g>
     </g>
    </g>
    <g id="xtick_14">
     <g id="line2d_14">
      <path d="M 290.996553 512.64 
L 290.996553 69.12 
" clip-path="url(#p26fc2b2106)" style="fill: none; stroke: #cccccc; stroke-width: 0.8; stroke-linecap: round"/>
     </g>
     <g id="text_14">
      <!-- 1040 -->
      <g style="fill: #262626" transform="translate(284.795404 541.504521)rotate(-45)scale(0.088 -0.088)">
       <use xlink:href="#DejaVuSans-31"/>
       <use xlink:href="#DejaVuSans-30" x="63.623047"/>
       <use xlink:href="#DejaVuSans-34" x="127.246094"/>
       <use xlink:href="#DejaVuSans-30" x="190.869141"/>
      </g>
     </g>
    </g>
    <g id="xtick_15">
     <g id="line2d_15">
      <path d="M 308.02315 512.64 
L 308.02315 69.12 
" clip-path="url(#p26fc2b2106)" style="fill: none; stroke: #cccccc; stroke-width: 0.8; stroke-linecap: round"/>
     </g>
     <g id="text_15">
      <!-- 1120 -->
      <g style="fill: #262626" transform="translate(301.822 541.504521)rotate(-45)scale(0.088 -0.088)">
       <use xlink:href="#DejaVuSans-31"/>
       <use xlink:href="#DejaVuSans-31" x="63.623047"/>
       <use xlink:href="#DejaVuSans-32" x="127.246094"/>
       <use xlink:href="#DejaVuSans-30" x="190.869141"/>
      </g>
     </g>
    </g>
    <g id="xtick_16">
     <g id="line2d_16">
      <path d="M 325.049747 512.64 
L 325.049747 69.12 
" clip-path="url(#p26fc2b2106)" style="fill: none; stroke: #cccccc; stroke-width: 0.8; stroke-linecap: round"/>
     </g>
     <g id="text_16">
      <!-- 1200 -->
      <g style="fill: #262626" transform="translate(318.848597 541.504521)rotate(-45)scale(0.088 -0.088)">
       <use xlink:href="#DejaVuSans-31"/>
       <use xlink:href="#DejaVuSans-32" x="63.623047"/>
       <use xlink:href="#DejaVuSans-30" x="127.246094"/>
       <use xlink:href="#DejaVuSans-30" x="190.869141"/>
      </g>
     </g>
    </g>
    <g id="xtick_17">
     <g id="line2d_17">
      <path d="M 342.076343 512.64 
L 342.076343 69.12 
" clip-path="url(#p26fc2b2106)" style="fill: none; stroke: #cccccc; stroke-width: 0.8; stroke-linecap: round"/>
     </g>
     <g id="text_17">
      <!-- 1280 -->
      <g style="fill: #262626" transform="translate(335.875194 541.504521)rotate(-45)scale(0.088 -0.088)">
       <use xlink:href="#DejaVuSans-31"/>
       <use xlink:href="#DejaVuSans-32" x="63.623047"/>
       <use xlink:href="#DejaVuSans-38" x="127.246094"/>
       <use xlink:href="#DejaVuSans-30" x="190.869141"/>
      </g>
     </g>
    </g>
    <g id="xtick_18">
     <g id="line2d_18">
      <path d="M 359.10294 512.64 
L 359.10294 69.12 
" clip-path="url(#p26fc2b2106)" style="fill: none; stroke: #cccccc; stroke-width: 0.8; stroke-linecap: round"/>
     </g>
     <g id="text_18">
      <!-- 1360 -->
      <g style="fill: #262626" transform="translate(352.901791 541.504521)rotate(-45)scale(0.088 -0.088)">
       <use xlink:href="#DejaVuSans-31"/>
       <use xlink:href="#DejaVuSans-33" x="63.623047"/>
       <use xlink:href="#DejaVuSans-36" x="127.246094"/>
       <use xlink:href="#DejaVuSans-30" x="190.869141"/>
      </g>
     </g>
    </g>
    <g id="xtick_19">
     <g id="line2d_19">
      <path d="M 376.129537 512.64 
L 376.129537 69.12 
" clip-path="url(#p26fc2b2106)" style="fill: none; stroke: #cccccc; stroke-width: 0.8; stroke-linecap: round"/>
     </g>
     <g id="text_19">
      <!-- 1440 -->
      <g style="fill: #262626" transform="translate(369.928387 541.504521)rotate(-45)scale(0.088 -0.088)">
       <use xlink:href="#DejaVuSans-31"/>
       <use xlink:href="#DejaVuSans-34" x="63.623047"/>
       <use xlink:href="#DejaVuSans-34" x="127.246094"/>
       <use xlink:href="#DejaVuSans-30" x="190.869141"/>
      </g>
     </g>
    </g>
    <g id="text_20">
     <!-- Time (Minutes) -->
     <g style="fill: #262626" transform="translate(186.87375 554.093115)scale(0.096 -0.096)">
      <defs>
       <path id="DejaVuSans-54" d="M -19 4666 
L 3928 4666 
L 3928 4134 
L 2272 4134 
L 2272 0 
L 1638 0 
L 1638 4134 
L -19 4134 
L -19 4666 
z
" transform="scale(0.015625)"/>
       <path id="DejaVuSans-69" d="M 603 3500 
L 1178 3500 
L 1178 0 
L 603 0 
L 603 3500 
z
M 603 4863 
L 1178 4863 
L 1178 4134 
L 603 4134 
L 603 4863 
z
" transform="scale(0.015625)"/>
       <path id="DejaVuSans-6d" d="M 3328 2828 
Q 3544 3216 3844 3400 
Q 4144 3584 4550 3584 
Q 5097 3584 5394 3201 
Q 5691 2819 5691 2113 
L 5691 0 
L 5113 0 
L 5113 2094 
Q 5113 2597 4934 2840 
Q 4756 3084 4391 3084 
Q 3944 3084 3684 2787 
Q 3425 2491 3425 1978 
L 3425 0 
L 2847 0 
L 2847 2094 
Q 2847 2600 2669 2842 
Q 2491 3084 2119 3084 
Q 1678 3084 1418 2786 
Q 1159 2488 1159 1978 
L 1159 0 
L 581 0 
L 581 3500 
L 1159 3500 
L 1159 2956 
Q 1356 3278 1631 3431 
Q 1906 3584 2284 3584 
Q 2666 3584 2933 3390 
Q 3200 3197 3328 2828 
z
" transform="scale(0.015625)"/>
       <path id="DejaVuSans-65" d="M 3597 1894 
L 3597 1613 
L 953 1613 
Q 991 1019 1311 708 
Q 1631 397 2203 397 
Q 2534 397 2845 478 
Q 3156 559 3463 722 
L 3463 178 
Q 3153 47 2828 -22 
Q 2503 -91 2169 -91 
Q 1331 -91 842 396 
Q 353 884 353 1716 
Q 353 2575 817 3079 
Q 1281 3584 2069 3584 
Q 2775 3584 3186 3129 
Q 3597 2675 3597 1894 
z
M 3022 2063 
Q 3016 2534 2758 2815 
Q 2500 3097 2075 3097 
Q 1594 3097 1305 2825 
Q 1016 2553 972 2059 
L 3022 2063 
z
" transform="scale(0.015625)"/>
       <path id="DejaVuSans-20" transform="scale(0.015625)"/>
       <path id="DejaVuSans-28" d="M 1984 4856 
Q 1566 4138 1362 3434 
Q 1159 2731 1159 2009 
Q 1159 1288 1364 580 
Q 1569 -128 1984 -844 
L 1484 -844 
Q 1016 -109 783 600 
Q 550 1309 550 2009 
Q 550 2706 781 3412 
Q 1013 4119 1484 4856 
L 1984 4856 
z
" transform="scale(0.015625)"/>
       <path id="DejaVuSans-4d" d="M 628 4666 
L 1569 4666 
L 2759 1491 
L 3956 4666 
L 4897 4666 
L 4897 0 
L 4281 0 
L 4281 4097 
L 3078 897 
L 2444 897 
L 1241 4097 
L 1241 0 
L 628 0 
L 628 4666 
z
" transform="scale(0.015625)"/>
       <path id="DejaVuSans-6e" d="M 3513 2113 
L 3513 0 
L 2938 0 
L 2938 2094 
Q 2938 2591 2744 2837 
Q 2550 3084 2163 3084 
Q 1697 3084 1428 2787 
Q 1159 2491 1159 1978 
L 1159 0 
L 581 0 
L 581 3500 
L 1159 3500 
L 1159 2956 
Q 1366 3272 1645 3428 
Q 1925 3584 2291 3584 
Q 2894 3584 3203 3211 
Q 3513 2838 3513 2113 
z
" transform="scale(0.015625)"/>
       <path id="DejaVuSans-75" d="M 544 1381 
L 544 3500 
L 1119 3500 
L 1119 1403 
Q 1119 906 1312 657 
Q 1506 409 1894 409 
Q 2359 409 2629 706 
Q 2900 1003 2900 1516 
L 2900 3500 
L 3475 3500 
L 3475 0 
L 2900 0 
L 2900 538 
Q 2691 219 2414 64 
Q 2138 -91 1772 -91 
Q 1169 -91 856 284 
Q 544 659 544 1381 
z
M 1991 3584 
L 1991 3584 
z
" transform="scale(0.015625)"/>
       <path id="DejaVuSans-74" d="M 1172 4494 
L 1172 3500 
L 2356 3500 
L 2356 3053 
L 1172 3053 
L 1172 1153 
Q 1172 725 1289 603 
Q 1406 481 1766 481 
L 2356 481 
L 2356 0 
L 1766 0 
Q 1100 0 847 248 
Q 594 497 594 1153 
L 594 3053 
L 172 3053 
L 172 3500 
L 594 3500 
L 594 4494 
L 1172 4494 
z
" transform="scale(0.015625)"/>
       <path id="DejaVuSans-73" d="M 2834 3397 
L 2834 2853 
Q 2591 2978 2328 3040 
Q 2066 3103 1784 3103 
Q 1356 3103 1142 2972 
Q 928 2841 928 2578 
Q 928 2378 1081 2264 
Q 1234 2150 1697 2047 
L 1894 2003 
Q 2506 1872 2764 1633 
Q 3022 1394 3022 966 
Q 3022 478 2636 193 
Q 2250 -91 1575 -91 
Q 1294 -91 989 -36 
Q 684 19 347 128 
L 347 722 
Q 666 556 975 473 
Q 1284 391 1588 391 
Q 1994 391 2212 530 
Q 2431 669 2431 922 
Q 2431 1156 2273 1281 
Q 2116 1406 1581 1522 
L 1381 1569 
Q 847 1681 609 1914 
Q 372 2147 372 2553 
Q 372 3047 722 3315 
Q 1072 3584 1716 3584 
Q 2034 3584 2315 3537 
Q 2597 3491 2834 3397 
z
" transform="scale(0.015625)"/>
       <path id="DejaVuSans-29" d="M 513 4856 
L 1013 4856 
Q 1481 4119 1714 3412 
Q 1947 2706 1947 2009 
Q 1947 1309 1714 600 
Q 1481 -109 1013 -844 
L 513 -844 
Q 928 -128 1133 580 
Q 1338 1288 1338 2009 
Q 1338 2731 1133 3434 
Q 928 4138 513 4856 
z
" transform="scale(0.015625)"/>
      </defs>
      <use xlink:href="#DejaVuSans-54"/>
      <use xlink:href="#DejaVuSans-69" x="57.958984"/>
      <use xlink:href="#DejaVuSans-6d" x="85.742188"/>
      <use xlink:href="#DejaVuSans-65" x="183.154297"/>
      <use xlink:href="#DejaVuSans-20" x="244.677734"/>
      <use xlink:href="#DejaVuSans-28" x="276.464844"/>
      <use xlink:href="#DejaVuSans-4d" x="315.478516"/>
      <use xlink:href="#DejaVuSans-69" x="401.757812"/>
      <use xlink:href="#DejaVuSans-6e" x="429.541016"/>
      <use xlink:href="#DejaVuSans-75" x="492.919922"/>
      <use xlink:href="#DejaVuSans-74" x="556.298828"/>
      <use xlink:href="#DejaVuSans-65" x="595.507812"/>
      <use xlink:href="#DejaVuSans-73" x="657.03125"/>
      <use xlink:href="#DejaVuSans-29" x="709.130859"/>
     </g>
    </g>
   </g>
   <g id="matplotlib.axis_2">
    <g id="ytick_1">
     <g id="line2d_20">
      <path d="M 54.3375 492.48 
L 391.23 492.48 
" clip-path="url(#p26fc2b2106)" style="fill: none; stroke: #cccccc; stroke-width: 0.8; stroke-linecap: round"/>
     </g>
     <g id="text_21">
      <!-- 0 -->
      <g style="fill: #262626" transform="translate(40.4385 495.823312)scale(0.088 -0.088)">
       <use xlink:href="#DejaVuSans-30"/>
      </g>
     </g>
    </g>
    <g id="ytick_2">
     <g id="line2d_21">
      <path d="M 54.3375 470.350472 
L 391.23 470.350472 
" clip-path="url(#p26fc2b2106)" style="fill: none; stroke: #cccccc; stroke-width: 0.8; stroke-linecap: round"/>
     </g>
     <g id="text_22">
      <!-- 100 -->
      <g style="fill: #262626" transform="translate(29.2405 473.693785)scale(0.088 -0.088)">
       <use xlink:href="#DejaVuSans-31"/>
       <use xlink:href="#DejaVuSans-30" x="63.623047"/>
       <use xlink:href="#DejaVuSans-30" x="127.246094"/>
      </g>
     </g>
    </g>
    <g id="ytick_3">
     <g id="line2d_22">
      <path d="M 54.3375 448.220944 
L 391.23 448.220944 
" clip-path="url(#p26fc2b2106)" style="fill: none; stroke: #cccccc; stroke-width: 0.8; stroke-linecap: round"/>
     </g>
     <g id="text_23">
      <!-- 200 -->
      <g style="fill: #262626" transform="translate(29.2405 451.564257)scale(0.088 -0.088)">
       <use xlink:href="#DejaVuSans-32"/>
       <use xlink:href="#DejaVuSans-30" x="63.623047"/>
       <use xlink:href="#DejaVuSans-30" x="127.246094"/>
      </g>
     </g>
    </g>
    <g id="ytick_4">
     <g id="line2d_23">
      <path d="M 54.3375 426.091416 
L 391.23 426.091416 
" clip-path="url(#p26fc2b2106)" style="fill: none; stroke: #cccccc; stroke-width: 0.8; stroke-linecap: round"/>
     </g>
     <g id="text_24">
      <!-- 300 -->
      <g style="fill: #262626" transform="translate(29.2405 429.434729)scale(0.088 -0.088)">
       <use xlink:href="#DejaVuSans-33"/>
       <use xlink:href="#DejaVuSans-30" x="63.623047"/>
       <use xlink:href="#DejaVuSans-30" x="127.246094"/>
      </g>
     </g>
    </g>
    <g id="ytick_5">
     <g id="line2d_24">
      <path d="M 54.3375 403.961888 
L 391.23 403.961888 
" clip-path="url(#p26fc2b2106)" style="fill: none; stroke: #cccccc; stroke-width: 0.8; stroke-linecap: round"/>
     </g>
     <g id="text_25">
      <!-- 400 -->
      <g style="fill: #262626" transform="translate(29.2405 407.305201)scale(0.088 -0.088)">
       <use xlink:href="#DejaVuSans-34"/>
       <use xlink:href="#DejaVuSans-30" x="63.623047"/>
       <use xlink:href="#DejaVuSans-30" x="127.246094"/>
      </g>
     </g>
    </g>
    <g id="ytick_6">
     <g id="line2d_25">
      <path d="M 54.3375 381.83236 
L 391.23 381.83236 
" clip-path="url(#p26fc2b2106)" style="fill: none; stroke: #cccccc; stroke-width: 0.8; stroke-linecap: round"/>
     </g>
     <g id="text_26">
      <!-- 500 -->
      <g style="fill: #262626" transform="translate(29.2405 385.175673)scale(0.088 -0.088)">
       <use xlink:href="#DejaVuSans-35"/>
       <use xlink:href="#DejaVuSans-30" x="63.623047"/>
       <use xlink:href="#DejaVuSans-30" x="127.246094"/>
      </g>
     </g>
    </g>
    <g id="ytick_7">
     <g id="line2d_26">
      <path d="M 54.3375 359.702832 
L 391.23 359.702832 
" clip-path="url(#p26fc2b2106)" style="fill: none; stroke: #cccccc; stroke-width: 0.8; stroke-linecap: round"/>
     </g>
     <g id="text_27">
      <!-- 600 -->
      <g style="fill: #262626" transform="translate(29.2405 363.046145)scale(0.088 -0.088)">
       <use xlink:href="#DejaVuSans-36"/>
       <use xlink:href="#DejaVuSans-30" x="63.623047"/>
       <use xlink:href="#DejaVuSans-30" x="127.246094"/>
      </g>
     </g>
    </g>
    <g id="ytick_8">
     <g id="line2d_27">
      <path d="M 54.3375 337.573304 
L 391.23 337.573304 
" clip-path="url(#p26fc2b2106)" style="fill: none; stroke: #cccccc; stroke-width: 0.8; stroke-linecap: round"/>
     </g>
     <g id="text_28">
      <!-- 700 -->
      <g style="fill: #262626" transform="translate(29.2405 340.916617)scale(0.088 -0.088)">
       <use xlink:href="#DejaVuSans-37"/>
       <use xlink:href="#DejaVuSans-30" x="63.623047"/>
       <use xlink:href="#DejaVuSans-30" x="127.246094"/>
      </g>
     </g>
    </g>
    <g id="ytick_9">
     <g id="line2d_28">
      <path d="M 54.3375 315.443776 
L 391.23 315.443776 
" clip-path="url(#p26fc2b2106)" style="fill: none; stroke: #cccccc; stroke-width: 0.8; stroke-linecap: round"/>
     </g>
     <g id="text_29">
      <!-- 800 -->
      <g style="fill: #262626" transform="translate(29.2405 318.787089)scale(0.088 -0.088)">
       <use xlink:href="#DejaVuSans-38"/>
       <use xlink:href="#DejaVuSans-30" x="63.623047"/>
       <use xlink:href="#DejaVuSans-30" x="127.246094"/>
      </g>
     </g>
    </g>
    <g id="ytick_10">
     <g id="line2d_29">
      <path d="M 54.3375 293.314248 
L 391.23 293.314248 
" clip-path="url(#p26fc2b2106)" style="fill: none; stroke: #cccccc; stroke-width: 0.8; stroke-linecap: round"/>
     </g>
     <g id="text_30">
      <!-- 900 -->
      <g style="fill: #262626" transform="translate(29.2405 296.657561)scale(0.088 -0.088)">
       <use xlink:href="#DejaVuSans-39"/>
       <use xlink:href="#DejaVuSans-30" x="63.623047"/>
       <use xlink:href="#DejaVuSans-30" x="127.246094"/>
      </g>
     </g>
    </g>
    <g id="ytick_11">
     <g id="line2d_30">
      <path d="M 54.3375 271.18472 
L 391.23 271.18472 
" clip-path="url(#p26fc2b2106)" style="fill: none; stroke: #cccccc; stroke-width: 0.8; stroke-linecap: round"/>
     </g>
     <g id="text_31">
      <!-- 1000 -->
      <g style="fill: #262626" transform="translate(23.6415 274.528033)scale(0.088 -0.088)">
       <use xlink:href="#DejaVuSans-31"/>
       <use xlink:href="#DejaVuSans-30" x="63.623047"/>
       <use xlink:href="#DejaVuSans-30" x="127.246094"/>
       <use xlink:href="#DejaVuSans-30" x="190.869141"/>
      </g>
     </g>
    </g>
    <g id="ytick_12">
     <g id="line2d_31">
      <path d="M 54.3375 249.055192 
L 391.23 249.055192 
" clip-path="url(#p26fc2b2106)" style="fill: none; stroke: #cccccc; stroke-width: 0.8; stroke-linecap: round"/>
     </g>
     <g id="text_32">
      <!-- 1100 -->
      <g style="fill: #262626" transform="translate(23.6415 252.398505)scale(0.088 -0.088)">
       <use xlink:href="#DejaVuSans-31"/>
       <use xlink:href="#DejaVuSans-31" x="63.623047"/>
       <use xlink:href="#DejaVuSans-30" x="127.246094"/>
       <use xlink:href="#DejaVuSans-30" x="190.869141"/>
      </g>
     </g>
    </g>
    <g id="ytick_13">
     <g id="line2d_32">
      <path d="M 54.3375 226.925664 
L 391.23 226.925664 
" clip-path="url(#p26fc2b2106)" style="fill: none; stroke: #cccccc; stroke-width: 0.8; stroke-linecap: round"/>
     </g>
     <g id="text_33">
      <!-- 1200 -->
      <g style="fill: #262626" transform="translate(23.6415 230.268977)scale(0.088 -0.088)">
       <use xlink:href="#DejaVuSans-31"/>
       <use xlink:href="#DejaVuSans-32" x="63.623047"/>
       <use xlink:href="#DejaVuSans-30" x="127.246094"/>
       <use xlink:href="#DejaVuSans-30" x="190.869141"/>
      </g>
     </g>
    </g>
    <g id="ytick_14">
     <g id="line2d_33">
      <path d="M 54.3375 204.796136 
L 391.23 204.796136 
" clip-path="url(#p26fc2b2106)" style="fill: none; stroke: #cccccc; stroke-width: 0.8; stroke-linecap: round"/>
     </g>
     <g id="text_34">
      <!-- 1300 -->
      <g style="fill: #262626" transform="translate(23.6415 208.139449)scale(0.088 -0.088)">
       <use xlink:href="#DejaVuSans-31"/>
       <use xlink:href="#DejaVuSans-33" x="63.623047"/>
       <use xlink:href="#DejaVuSans-30" x="127.246094"/>
       <use xlink:href="#DejaVuSans-30" x="190.869141"/>
      </g>
     </g>
    </g>
    <g id="ytick_15">
     <g id="line2d_34">
      <path d="M 54.3375 182.666608 
L 391.23 182.666608 
" clip-path="url(#p26fc2b2106)" style="fill: none; stroke: #cccccc; stroke-width: 0.8; stroke-linecap: round"/>
     </g>
     <g id="text_35">
      <!-- 1400 -->
      <g style="fill: #262626" transform="translate(23.6415 186.009921)scale(0.088 -0.088)">
       <use xlink:href="#DejaVuSans-31"/>
       <use xlink:href="#DejaVuSans-34" x="63.623047"/>
       <use xlink:href="#DejaVuSans-30" x="127.246094"/>
       <use xlink:href="#DejaVuSans-30" x="190.869141"/>
      </g>
     </g>
    </g>
    <g id="ytick_16">
     <g id="line2d_35">
      <path d="M 54.3375 160.53708 
L 391.23 160.53708 
" clip-path="url(#p26fc2b2106)" style="fill: none; stroke: #cccccc; stroke-width: 0.8; stroke-linecap: round"/>
     </g>
     <g id="text_36">
      <!-- 1500 -->
      <g style="fill: #262626" transform="translate(23.6415 163.880393)scale(0.088 -0.088)">
       <use xlink:href="#DejaVuSans-31"/>
       <use xlink:href="#DejaVuSans-35" x="63.623047"/>
       <use xlink:href="#DejaVuSans-30" x="127.246094"/>
       <use xlink:href="#DejaVuSans-30" x="190.869141"/>
      </g>
     </g>
    </g>
    <g id="ytick_17">
     <g id="line2d_36">
      <path d="M 54.3375 138.407552 
L 391.23 138.407552 
" clip-path="url(#p26fc2b2106)" style="fill: none; stroke: #cccccc; stroke-width: 0.8; stroke-linecap: round"/>
     </g>
     <g id="text_37">
      <!-- 1600 -->
      <g style="fill: #262626" transform="translate(23.6415 141.750865)scale(0.088 -0.088)">
       <use xlink:href="#DejaVuSans-31"/>
       <use xlink:href="#DejaVuSans-36" x="63.623047"/>
       <use xlink:href="#DejaVuSans-30" x="127.246094"/>
       <use xlink:href="#DejaVuSans-30" x="190.869141"/>
      </g>
     </g>
    </g>
    <g id="ytick_18">
     <g id="line2d_37">
      <path d="M 54.3375 116.278024 
L 391.23 116.278024 
" clip-path="url(#p26fc2b2106)" style="fill: none; stroke: #cccccc; stroke-width: 0.8; stroke-linecap: round"/>
     </g>
     <g id="text_38">
      <!-- 1700 -->
      <g style="fill: #262626" transform="translate(23.6415 119.621337)scale(0.088 -0.088)">
       <use xlink:href="#DejaVuSans-31"/>
       <use xlink:href="#DejaVuSans-37" x="63.623047"/>
       <use xlink:href="#DejaVuSans-30" x="127.246094"/>
       <use xlink:href="#DejaVuSans-30" x="190.869141"/>
      </g>
     </g>
    </g>
    <g id="ytick_19">
     <g id="line2d_38">
      <path d="M 54.3375 94.148496 
L 391.23 94.148496 
" clip-path="url(#p26fc2b2106)" style="fill: none; stroke: #cccccc; stroke-width: 0.8; stroke-linecap: round"/>
     </g>
     <g id="text_39">
      <!-- 1800 -->
      <g style="fill: #262626" transform="translate(23.6415 97.491809)scale(0.088 -0.088)">
       <use xlink:href="#DejaVuSans-31"/>
       <use xlink:href="#DejaVuSans-38" x="63.623047"/>
       <use xlink:href="#DejaVuSans-30" x="127.246094"/>
       <use xlink:href="#DejaVuSans-30" x="190.869141"/>
      </g>
     </g>
    </g>
    <g id="text_40">
     <!-- Edge Coverages -->
     <g style="fill: #262626" transform="translate(17.645 329.98575)rotate(-90)scale(0.096 -0.096)">
      <defs>
       <path id="DejaVuSans-45" d="M 628 4666 
L 3578 4666 
L 3578 4134 
L 1259 4134 
L 1259 2753 
L 3481 2753 
L 3481 2222 
L 1259 2222 
L 1259 531 
L 3634 531 
L 3634 0 
L 628 0 
L 628 4666 
z
" transform="scale(0.015625)"/>
       <path id="DejaVuSans-64" d="M 2906 2969 
L 2906 4863 
L 3481 4863 
L 3481 0 
L 2906 0 
L 2906 525 
Q 2725 213 2448 61 
Q 2172 -91 1784 -91 
Q 1150 -91 751 415 
Q 353 922 353 1747 
Q 353 2572 751 3078 
Q 1150 3584 1784 3584 
Q 2172 3584 2448 3432 
Q 2725 3281 2906 2969 
z
M 947 1747 
Q 947 1113 1208 752 
Q 1469 391 1925 391 
Q 2381 391 2643 752 
Q 2906 1113 2906 1747 
Q 2906 2381 2643 2742 
Q 2381 3103 1925 3103 
Q 1469 3103 1208 2742 
Q 947 2381 947 1747 
z
" transform="scale(0.015625)"/>
       <path id="DejaVuSans-67" d="M 2906 1791 
Q 2906 2416 2648 2759 
Q 2391 3103 1925 3103 
Q 1463 3103 1205 2759 
Q 947 2416 947 1791 
Q 947 1169 1205 825 
Q 1463 481 1925 481 
Q 2391 481 2648 825 
Q 2906 1169 2906 1791 
z
M 3481 434 
Q 3481 -459 3084 -895 
Q 2688 -1331 1869 -1331 
Q 1566 -1331 1297 -1286 
Q 1028 -1241 775 -1147 
L 775 -588 
Q 1028 -725 1275 -790 
Q 1522 -856 1778 -856 
Q 2344 -856 2625 -561 
Q 2906 -266 2906 331 
L 2906 616 
Q 2728 306 2450 153 
Q 2172 0 1784 0 
Q 1141 0 747 490 
Q 353 981 353 1791 
Q 353 2603 747 3093 
Q 1141 3584 1784 3584 
Q 2172 3584 2450 3431 
Q 2728 3278 2906 2969 
L 2906 3500 
L 3481 3500 
L 3481 434 
z
" transform="scale(0.015625)"/>
       <path id="DejaVuSans-43" d="M 4122 4306 
L 4122 3641 
Q 3803 3938 3442 4084 
Q 3081 4231 2675 4231 
Q 1875 4231 1450 3742 
Q 1025 3253 1025 2328 
Q 1025 1406 1450 917 
Q 1875 428 2675 428 
Q 3081 428 3442 575 
Q 3803 722 4122 1019 
L 4122 359 
Q 3791 134 3420 21 
Q 3050 -91 2638 -91 
Q 1578 -91 968 557 
Q 359 1206 359 2328 
Q 359 3453 968 4101 
Q 1578 4750 2638 4750 
Q 3056 4750 3426 4639 
Q 3797 4528 4122 4306 
z
" transform="scale(0.015625)"/>
       <path id="DejaVuSans-6f" d="M 1959 3097 
Q 1497 3097 1228 2736 
Q 959 2375 959 1747 
Q 959 1119 1226 758 
Q 1494 397 1959 397 
Q 2419 397 2687 759 
Q 2956 1122 2956 1747 
Q 2956 2369 2687 2733 
Q 2419 3097 1959 3097 
z
M 1959 3584 
Q 2709 3584 3137 3096 
Q 3566 2609 3566 1747 
Q 3566 888 3137 398 
Q 2709 -91 1959 -91 
Q 1206 -91 779 398 
Q 353 888 353 1747 
Q 353 2609 779 3096 
Q 1206 3584 1959 3584 
z
" transform="scale(0.015625)"/>
       <path id="DejaVuSans-76" d="M 191 3500 
L 800 3500 
L 1894 563 
L 2988 3500 
L 3597 3500 
L 2284 0 
L 1503 0 
L 191 3500 
z
" transform="scale(0.015625)"/>
       <path id="DejaVuSans-72" d="M 2631 2963 
Q 2534 3019 2420 3045 
Q 2306 3072 2169 3072 
Q 1681 3072 1420 2755 
Q 1159 2438 1159 1844 
L 1159 0 
L 581 0 
L 581 3500 
L 1159 3500 
L 1159 2956 
Q 1341 3275 1631 3429 
Q 1922 3584 2338 3584 
Q 2397 3584 2469 3576 
Q 2541 3569 2628 3553 
L 2631 2963 
z
" transform="scale(0.015625)"/>
       <path id="DejaVuSans-61" d="M 2194 1759 
Q 1497 1759 1228 1600 
Q 959 1441 959 1056 
Q 959 750 1161 570 
Q 1363 391 1709 391 
Q 2188 391 2477 730 
Q 2766 1069 2766 1631 
L 2766 1759 
L 2194 1759 
z
M 3341 1997 
L 3341 0 
L 2766 0 
L 2766 531 
Q 2569 213 2275 61 
Q 1981 -91 1556 -91 
Q 1019 -91 701 211 
Q 384 513 384 1019 
Q 384 1609 779 1909 
Q 1175 2209 1959 2209 
L 2766 2209 
L 2766 2266 
Q 2766 2663 2505 2880 
Q 2244 3097 1772 3097 
Q 1472 3097 1187 3025 
Q 903 2953 641 2809 
L 641 3341 
Q 956 3463 1253 3523 
Q 1550 3584 1831 3584 
Q 2591 3584 2966 3190 
Q 3341 2797 3341 1997 
z
" transform="scale(0.015625)"/>
      </defs>
      <use xlink:href="#DejaVuSans-45"/>
      <use xlink:href="#DejaVuSans-64" x="63.183594"/>
      <use xlink:href="#DejaVuSans-67" x="126.660156"/>
      <use xlink:href="#DejaVuSans-65" x="190.136719"/>
      <use xlink:href="#DejaVuSans-20" x="251.660156"/>
      <use xlink:href="#DejaVuSans-43" x="283.447266"/>
      <use xlink:href="#DejaVuSans-6f" x="353.271484"/>
      <use xlink:href="#DejaVuSans-76" x="414.453125"/>
      <use xlink:href="#DejaVuSans-65" x="473.632812"/>
      <use xlink:href="#DejaVuSans-72" x="535.15625"/>
      <use xlink:href="#DejaVuSans-61" x="576.269531"/>
      <use xlink:href="#DejaVuSans-67" x="637.548828"/>
      <use xlink:href="#DejaVuSans-65" x="701.025391"/>
      <use xlink:href="#DejaVuSans-73" x="762.548828"/>
     </g>
    </g>
   </g>
   <g id="PolyCollection_1">
    <defs>
     <path id="md67a76acc4" d="M 69.650795 -114.722634 
L 69.650795 -83.52 
L 69.650795 -114.722634 
L 69.650795 -114.722634 
z
" style="stroke: #db5f57; stroke-opacity: 0.2; stroke-width: 0.8"/>
    </defs>
    <g clip-path="url(#p26fc2b2106)">
     <use xlink:href="#md67a76acc4" x="0" y="576" style="fill: #db5f57; fill-opacity: 0.2; stroke: #db5f57; stroke-opacity: 0.2; stroke-width: 0.8"/>
    </g>
   </g>
   <g id="PolyCollection_2">
    <defs>
     <path id="m7d85dbd826" d="M 69.650795 -104.100461 
L 69.650795 -83.52 
L 69.650795 -104.100461 
L 69.650795 -104.100461 
z
" style="stroke: #b9db57; stroke-opacity: 0.2; stroke-width: 0.8"/>
    </defs>
    <g clip-path="url(#p26fc2b2106)">
     <use xlink:href="#m7d85dbd826" x="0" y="576" style="fill: #b9db57; fill-opacity: 0.2; stroke: #b9db57; stroke-opacity: 0.2; stroke-width: 0.8"/>
    </g>
   </g>
   <g id="PolyCollection_3">
    <defs>
     <path id="m6346280302" d="M 69.650795 -102.993985 
L 69.650795 -83.52 
L 69.650795 -102.993985 
L 69.650795 -102.993985 
z
" style="stroke: #57db94; stroke-opacity: 0.2; stroke-width: 0.8"/>
    </defs>
    <g clip-path="url(#p26fc2b2106)">
     <use xlink:href="#m6346280302" x="0" y="576" style="fill: #57db94; fill-opacity: 0.2; stroke: #57db94; stroke-opacity: 0.2; stroke-width: 0.8"/>
    </g>
   </g>
   <g id="PolyCollection_4">
    <defs>
     <path id="m62f6919deb" d="M 69.650795 -114.058749 
L 69.650795 -83.52 
L 69.650795 -114.058749 
L 69.650795 -114.058749 
z
" style="stroke: #5784db; stroke-opacity: 0.2; stroke-width: 0.8"/>
    </defs>
    <g clip-path="url(#p26fc2b2106)">
     <use xlink:href="#m62f6919deb" x="0" y="576" style="fill: #5784db; fill-opacity: 0.2; stroke: #5784db; stroke-opacity: 0.2; stroke-width: 0.8"/>
    </g>
   </g>
   <g id="PolyCollection_5">
    <defs>
     <path id="m8dc85c3478" d="M 69.650795 -123.131855 
L 69.650795 -83.52 
L 69.650795 -123.131855 
L 69.650795 -123.131855 
z
" style="stroke: #c957db; stroke-opacity: 0.2; stroke-width: 0.8"/>
    </defs>
    <g clip-path="url(#p26fc2b2106)">
     <use xlink:href="#m8dc85c3478" x="0" y="576" style="fill: #c957db; fill-opacity: 0.2; stroke: #c957db; stroke-opacity: 0.2; stroke-width: 0.8"/>
    </g>
   </g>
   <g id="line2d_39">
    <path d="M 69.650795 476.878683 
L 70.502125 369.66112 
L 70.714958 354.17045 
L 70.92779 318.54191 
L 71.140623 316.992843 
L 71.353455 304.157717 
L 72.63045 272.291196 
L 72.843282 269.856948 
L 73.268947 258.128299 
L 73.48178 256.800527 
L 73.907445 246.620944 
L 74.120277 242.637629 
L 74.33311 234.228408 
L 74.545942 231.572865 
L 74.971607 229.359912 
L 75.397272 226.483074 
L 76.035769 219.62292 
L 76.248602 217.852558 
L 76.461434 217.188672 
L 76.674267 213.647947 
L 77.525596 207.672975 
L 78.164094 204.574841 
L 78.589759 202.140593 
L 79.228256 199.92764 
L 80.292418 195.059144 
L 80.505251 193.510077 
L 81.356581 191.518419 
L 81.569413 189.084171 
L 82.846408 183.99438 
L 83.05924 181.117541 
L 83.272073 180.674951 
L 83.697738 179.347179 
L 84.123403 178.240703 
L 84.336235 175.806454 
L 84.549068 174.921273 
L 84.7619 172.708321 
L 84.974733 172.26573 
L 85.187565 172.26573 
L 85.400397 171.823139 
L 85.61323 171.823139 
L 85.826062 171.380549 
L 86.038895 171.380549 
L 86.890225 169.831482 
L 87.31589 169.388891 
L 87.528722 168.725005 
L 87.741555 168.725005 
L 88.167219 167.839824 
L 88.380052 167.839824 
L 88.592884 167.618529 
L 89.231382 167.618529 
L 89.444214 166.954643 
L 89.657047 166.954643 
L 89.869879 166.733348 
L 90.082712 166.069462 
L 90.295544 165.848167 
L 90.721209 164.520395 
L 91.146874 164.077805 
L 91.359706 164.077805 
L 91.572539 163.856509 
L 91.998204 162.528738 
L 92.211036 162.528738 
L 92.849534 160.315785 
L 93.062366 159.430604 
L 93.275198 159.430604 
L 93.488031 159.209308 
L 93.913696 159.209308 
L 94.126528 158.545423 
L 94.339361 158.545423 
L 94.552193 158.324127 
L 95.403523 158.324127 
L 95.829188 157.881537 
L 96.254853 157.881537 
L 96.467685 157.660241 
L 96.680518 156.996356 
L 96.89335 156.996356 
L 97.319015 156.111175 
L 97.531848 156.111175 
L 97.74468 155.889879 
L 98.170345 155.889879 
L 98.383177 155.668584 
L 98.59601 155.668584 
L 98.808842 155.004698 
L 99.234507 154.562108 
L 100.29867 154.562108 
L 100.511502 154.340812 
L 100.937167 154.340812 
L 101.149999 154.119517 
L 101.788497 154.119517 
L 102.001329 153.898222 
L 102.426994 153.898222 
L 102.639827 153.676926 
L 103.491157 153.676926 
L 103.703989 153.013041 
L 104.980984 153.013041 
L 105.193816 152.791745 
L 105.406649 152.791745 
L 105.619481 152.57045 
L 106.045146 152.57045 
L 106.257978 151.906564 
L 107.322141 151.906564 
L 107.534973 151.685269 
L 107.747806 151.685269 
L 107.960638 151.463974 
L 109.450465 151.463974 
L 109.663298 151.242678 
L 110.514628 151.242678 
L 110.940293 150.800088 
L 111.791622 150.800088 
L 112.217287 150.357497 
L 113.28145 150.357497 
L 113.494282 149.914907 
L 116.048272 149.914907 
L 116.261104 149.693611 
L 117.538099 149.693611 
L 117.963764 148.587135 
L 118.176596 148.587135 
L 118.389429 148.36584 
L 118.602261 148.36584 
L 118.815094 147.923249 
L 119.240758 147.923249 
L 119.453591 147.480659 
L 120.730586 147.480659 
L 120.943418 147.259363 
L 121.156251 147.259363 
L 121.369083 147.038068 
L 121.581916 146.595477 
L 121.794748 146.595477 
L 122.433245 145.931592 
L 125.4129 145.931592 
L 125.625732 145.710296 
L 127.115559 145.710296 
L 127.328392 145.489001 
L 127.541224 145.046411 
L 128.605387 145.046411 
L 128.818219 144.825115 
L 133.287701 144.825115 
L 133.713366 144.382525 
L 134.139031 144.382525 
L 134.351863 144.161229 
L 134.564696 143.718639 
L 135.203193 143.718639 
L 135.416025 143.276048 
L 138.182847 143.276048 
L 138.608512 142.612162 
L 139.672675 142.612162 
L 139.885507 142.390867 
L 140.311172 142.390867 
L 140.736837 141.948277 
L 141.800999 141.948277 
L 142.013832 141.726981 
L 144.354989 141.726981 
L 144.567821 141.505686 
L 144.780654 141.505686 
L 144.993486 140.620505 
L 145.206319 140.39921 
L 145.844816 140.39921 
L 146.270481 139.956619 
L 147.334643 139.956619 
L 147.547476 139.735324 
L 147.973141 139.735324 
L 148.185973 139.514029 
L 152.868287 139.514029 
L 153.08112 139.071438 
L 157.337769 139.071438 
L 157.550601 138.850143 
L 158.401931 138.850143 
L 158.614763 138.628847 
L 160.955921 138.628847 
L 161.168753 138.407552 
L 162.871413 138.407552 
L 163.084245 137.301076 
L 163.297078 137.301076 
L 164.148407 135.752009 
L 167.979392 135.752009 
L 168.192224 135.309418 
L 170.107716 135.309418 
L 170.533381 134.866828 
L 173.938701 134.866828 
L 174.151533 134.645532 
L 180.749339 134.645532 
L 181.175004 134.202942 
L 182.026334 134.202942 
L 182.451999 133.539056 
L 185.857318 133.539056 
L 186.070151 133.317761 
L 187.985643 133.317761 
L 188.198475 133.096465 
L 188.836973 133.096465 
L 189.049805 132.43258 
L 189.688303 131.768694 
L 200.117093 131.768694 
L 200.329926 131.547398 
L 200.75559 131.547398 
L 200.968423 131.326103 
L 202.245418 131.326103 
L 202.45825 131.104808 
L 203.948077 131.104808 
L 204.16091 130.883513 
L 204.799407 130.883513 
L 205.01224 130.662217 
L 206.289234 130.662217 
L 206.714899 129.998332 
L 206.927732 129.998332 
L 207.140564 129.777036 
L 215.228198 129.777036 
L 215.44103 129.555741 
L 224.805658 129.555741 
L 225.018491 129.334446 
L 225.869821 129.334446 
L 226.295486 128.891855 
L 230.552135 128.891855 
L 230.764967 128.67056 
L 231.616297 128.67056 
L 231.82913 128.227969 
L 232.893292 128.227969 
L 233.106124 128.006674 
L 234.808784 128.006674 
L 235.021616 127.785379 
L 235.447281 127.785379 
L 235.660114 127.564083 
L 238.426936 127.564083 
L 238.639768 127.342788 
L 242.25792 127.342788 
L 242.470752 127.121493 
L 242.683585 127.121493 
L 242.896417 126.900198 
L 247.791564 126.900198 
L 248.004396 126.678902 
L 248.430061 126.678902 
L 248.642894 126.457607 
L 248.855726 126.457607 
L 249.281391 125.793721 
L 254.38937 125.793721 
L 254.602203 125.572426 
L 260.348679 125.572426 
L 260.561512 125.351131 
L 260.774344 125.351131 
L 260.987176 124.90854 
L 262.477004 124.90854 
L 262.689836 124.687245 
L 263.753998 124.687245 
L 263.966831 124.46595 
L 264.179663 124.46595 
L 264.818161 123.802064 
L 272.480129 123.802064 
L 272.692962 123.580768 
L 277.375276 123.580768 
L 277.588108 123.359473 
L 280.780595 123.359473 
L 280.993428 123.138178 
L 281.844757 123.138178 
L 282.05759 122.916883 
L 282.90892 122.916883 
L 283.121752 122.695587 
L 288.016899 122.695587 
L 288.229731 122.474292 
L 290.145223 122.474292 
L 290.358056 122.252997 
L 291.847883 122.252997 
L 292.060716 122.031701 
L 297.594359 122.031701 
L 297.807192 121.589111 
L 304.404998 121.589111 
L 304.617831 121.367816 
L 308.448815 121.367816 
L 308.661647 121.14652 
L 308.87448 121.14652 
L 309.087312 120.925225 
L 309.72581 120.925225 
L 309.938642 120.70393 
L 322.921422 120.70393 
L 323.134255 120.482634 
L 326.752406 120.482634 
L 327.178071 119.818749 
L 327.390904 119.597453 
L 327.603736 119.597453 
L 327.816569 119.154863 
L 353.782129 119.154863 
L 353.994961 118.933568 
L 361.444097 118.933568 
L 361.65693 118.712272 
L 361.869762 118.712272 
L 362.082595 118.490977 
L 375.916705 118.490977 
L 375.916705 118.490977 
" clip-path="url(#p26fc2b2106)" style="fill: none; stroke: #db5f57; stroke-width: 1.2; stroke-linecap: round"/>
   </g>
   <g id="line2d_40">
    <path d="M 69.650795 482.189769 
L 70.07646 425.42753 
L 70.289293 409.272975 
L 70.502125 407.281317 
L 70.92779 402.191526 
L 71.353455 397.986915 
L 71.566288 397.32303 
L 71.991953 390.462876 
L 72.417617 388.913809 
L 73.056115 385.59438 
L 73.268947 350.40843 
L 73.48178 253.481098 
L 73.694612 253.481098 
L 73.907445 253.259802 
L 74.545942 252.153326 
L 74.758774 252.153326 
L 74.971607 227.368255 
L 75.184439 226.483074 
L 75.397272 226.483074 
L 76.035769 224.934007 
L 76.248602 214.311833 
L 76.461434 214.090538 
L 76.674267 213.205357 
L 76.887099 212.984061 
L 77.312764 212.984061 
L 77.525596 202.361888 
L 77.738429 201.476707 
L 78.376926 201.476707 
L 78.589759 201.255412 
L 79.015424 200.591526 
L 79.228256 198.157278 
L 79.441089 193.952667 
L 79.866754 192.182305 
L 80.505251 191.518419 
L 80.718083 191.518419 
L 80.930916 191.297124 
L 81.143748 185.986037 
L 81.356581 185.543447 
L 81.569413 185.543447 
L 81.782246 185.322151 
L 82.207911 185.322151 
L 82.420743 181.560132 
L 95.829188 181.560132 
L 96.04202 157.217651 
L 96.254853 155.889879 
L 96.680518 155.889879 
L 96.89335 155.668584 
L 97.319015 155.668584 
L 97.74468 155.225993 
L 98.170345 155.225993 
L 98.383177 153.013041 
L 98.59601 153.013041 
L 98.808842 152.349155 
L 99.021675 152.127859 
L 99.660172 152.127859 
L 99.873005 151.685269 
L 100.085837 151.685269 
L 100.29867 151.463974 
L 100.724335 151.463974 
L 100.937167 150.578793 
L 101.149999 150.578793 
L 101.362832 150.357497 
L 102.214162 150.357497 
L 102.426994 149.914907 
L 103.065492 149.914907 
L 103.491157 149.472316 
L 104.129654 149.472316 
L 104.555319 148.36584 
L 105.193816 148.36584 
L 105.406649 147.923249 
L 106.045146 147.923249 
L 106.257978 147.259363 
L 106.470811 147.259363 
L 106.683643 147.038068 
L 107.747806 147.038068 
L 107.960638 146.595477 
L 109.450465 146.595477 
L 109.663298 146.152887 
L 112.004455 146.152887 
L 112.217287 145.710296 
L 112.642952 145.710296 
L 112.855785 145.489001 
L 113.707115 145.489001 
L 113.919947 145.046411 
L 114.132779 145.046411 
L 114.345612 144.825115 
L 116.048272 144.825115 
L 116.261104 144.60382 
L 117.538099 144.60382 
L 117.750931 144.382525 
L 117.963764 144.382525 
L 118.389429 143.939934 
L 118.602261 143.939934 
L 118.815094 143.276048 
L 119.879256 143.276048 
L 120.092088 142.612162 
L 121.369083 142.612162 
L 121.581916 142.169572 
L 121.794748 142.169572 
L 122.00758 141.948277 
L 122.433245 141.948277 
L 122.646078 141.284391 
L 125.838565 141.284391 
L 126.051397 141.063095 
L 127.328392 141.063095 
L 127.754057 140.620505 
L 128.179722 140.620505 
L 128.392554 140.39921 
L 131.585041 140.39921 
L 131.797874 140.177914 
L 132.649203 140.177914 
L 132.862036 139.514029 
L 133.074868 139.292733 
L 133.287701 139.292733 
L 133.500533 138.628847 
L 133.713366 138.628847 
L 133.926198 138.407552 
L 134.777528 138.407552 
L 134.99036 137.964962 
L 136.69302 137.964962 
L 136.905853 137.522371 
L 138.182847 137.522371 
L 138.39568 137.301076 
L 138.821345 137.301076 
L 139.034177 136.858485 
L 139.672675 136.858485 
L 140.311172 136.194599 
L 141.375334 136.194599 
L 141.588167 135.973304 
L 141.800999 135.973304 
L 142.013832 135.752009 
L 144.780654 135.752009 
L 144.993486 135.309418 
L 145.419151 135.309418 
L 145.631983 133.981647 
L 146.270481 133.317761 
L 148.82447 133.317761 
L 149.037303 132.87517 
L 150.739962 132.87517 
L 150.952795 132.653875 
L 152.016957 132.653875 
L 152.22979 132.43258 
L 152.868287 132.43258 
L 153.08112 131.768694 
L 153.932449 131.768694 
L 154.145282 131.547398 
L 154.358114 131.104808 
L 157.763434 131.104808 
L 157.976266 130.883513 
L 158.614763 130.883513 
L 158.827596 130.662217 
L 160.955921 130.662217 
L 161.168753 130.219627 
L 161.80725 130.219627 
L 162.020083 129.998332 
L 162.445748 129.998332 
L 162.65858 129.777036 
L 164.574072 129.777036 
L 164.786905 128.227969 
L 168.192224 128.227969 
L 168.405057 127.785379 
L 170.746214 127.785379 
L 170.959046 127.564083 
L 175.002863 127.564083 
L 175.215695 127.342788 
L 180.536507 127.342788 
L 180.749339 126.900198 
L 181.600669 126.900198 
L 181.813502 126.678902 
L 182.877664 126.678902 
L 183.090496 126.457607 
L 184.793156 126.457607 
L 185.005988 126.236312 
L 185.857318 126.236312 
L 186.070151 126.015016 
L 187.559978 126.015016 
L 187.77281 125.793721 
L 188.836973 125.793721 
L 189.262638 125.351131 
L 189.47547 124.90854 
L 190.113967 124.90854 
L 190.3268 124.687245 
L 200.117093 124.687245 
L 200.329926 124.46595 
L 201.181255 124.46595 
L 201.394088 124.244654 
L 203.735245 124.244654 
L 203.948077 124.023359 
L 204.373742 124.023359 
L 204.586575 123.802064 
L 205.863569 123.802064 
L 206.076402 123.580768 
L 206.502067 123.580768 
L 206.714899 122.695587 
L 206.927732 122.474292 
L 208.204727 122.474292 
L 208.417559 122.252997 
L 209.694554 122.252997 
L 209.907386 122.031701 
L 215.44103 122.031701 
L 215.653863 121.810406 
L 219.059182 121.810406 
L 219.272014 121.589111 
L 223.102999 121.589111 
L 223.315831 121.367816 
L 223.741496 121.367816 
L 223.954329 121.14652 
L 225.656988 121.14652 
L 225.869821 120.925225 
L 226.508318 120.925225 
L 226.72115 120.70393 
L 230.552135 120.70393 
L 230.764967 120.482634 
L 232.254794 120.482634 
L 232.467627 120.040044 
L 233.318957 120.040044 
L 233.531789 119.818749 
L 235.660114 119.818749 
L 235.872946 119.376158 
L 239.278266 119.376158 
L 239.491098 118.933568 
L 254.38937 118.933568 
L 254.602203 117.605796 
L 255.666365 117.605796 
L 255.879197 117.384501 
L 259.071684 117.384501 
L 259.284517 117.163205 
L 270.990302 117.163205 
L 271.203135 116.056729 
L 271.628799 116.056729 
L 271.841632 115.835434 
L 277.375276 115.835434 
L 277.588108 115.392843 
L 278.439438 115.392843 
L 278.652271 115.171548 
L 278.865103 115.171548 
L 279.077936 114.950252 
L 281.844757 114.950252 
L 282.05759 114.728957 
L 283.334585 114.728957 
L 283.547417 114.507662 
L 284.398747 114.507662 
L 284.824412 114.065071 
L 288.655396 114.065071 
L 288.868229 113.843776 
L 293.33771 113.843776 
L 293.550543 113.622481 
L 299.935517 113.622481 
L 300.148349 113.401186 
L 304.404998 113.401186 
L 304.617831 113.17989 
L 306.107658 113.17989 
L 306.32049 112.958595 
L 307.17182 112.958595 
L 307.384653 112.7373 
L 308.448815 112.7373 
L 308.661647 112.516004 
L 309.512977 112.516004 
L 309.72581 112.294709 
L 310.364307 112.294709 
L 310.57714 112.073414 
L 321.85726 112.073414 
L 322.070092 111.630823 
L 323.347087 111.630823 
L 323.55992 111.409528 
L 326.752406 111.409528 
L 327.390904 110.745642 
L 327.603736 110.303052 
L 329.732061 110.303052 
L 330.157726 109.860461 
L 375.916705 109.860461 
L 375.916705 109.860461 
" clip-path="url(#p26fc2b2106)" style="fill: none; stroke: #b9db57; stroke-width: 1.2; stroke-linecap: round"/>
   </g>
   <g id="line2d_41">
    <path d="M 69.650795 482.743008 
L 70.07646 428.304369 
L 70.289293 407.723908 
L 70.502125 404.847069 
L 70.714958 404.183183 
L 71.140623 394.667486 
L 71.566288 391.569352 
L 71.991953 388.249923 
L 72.204785 386.922151 
L 72.417617 382.717541 
L 72.843282 269.414358 
L 73.056115 269.414358 
L 73.268947 269.193063 
L 74.120277 266.537519 
L 74.33311 232.458046 
L 74.545942 232.236751 
L 75.184439 230.908979 
L 75.397272 230.908979 
L 75.610104 230.466389 
L 75.822937 217.188672 
L 76.035769 216.524786 
L 76.674267 216.524786 
L 76.887099 216.303491 
L 77.312764 214.754424 
L 77.951261 213.647947 
L 78.164094 197.714687 
L 78.589759 197.714687 
L 78.802591 197.050801 
L 79.015424 197.050801 
L 79.228256 196.829506 
L 79.441089 192.624896 
L 80.292418 192.624896 
L 80.505251 192.182305 
L 80.718083 186.649923 
L 81.143748 185.543447 
L 81.356581 183.551789 
L 81.782246 182.224018 
L 81.995078 182.002722 
L 82.420743 180.011065 
L 82.633575 179.789769 
L 82.846408 179.789769 
L 83.05924 179.347179 
L 83.272073 174.478683 
L 83.697738 173.150911 
L 84.123403 173.150911 
L 84.336235 172.929616 
L 84.7619 172.929616 
L 84.974733 167.397234 
L 85.187565 167.397234 
L 85.400397 166.954643 
L 85.826062 166.954643 
L 86.038895 166.069462 
L 86.251727 166.069462 
L 86.46456 165.405576 
L 86.890225 165.405576 
L 87.103057 165.184281 
L 87.741555 165.184281 
L 87.954387 163.856509 
L 88.167219 163.856509 
L 88.380052 163.413919 
L 88.805717 163.413919 
L 89.018549 162.528738 
L 89.231382 162.307442 
L 89.444214 162.307442 
L 89.869879 161.864852 
L 90.082712 160.979671 
L 90.295544 160.979671 
L 90.508376 159.873194 
L 91.785371 159.873194 
L 91.998204 158.102832 
L 92.636701 158.102832 
L 92.849534 156.33247 
L 93.062366 156.33247 
L 93.275198 155.447289 
L 93.488031 155.447289 
L 94.126528 154.340812 
L 94.765026 154.340812 
L 94.977858 153.898222 
L 95.190691 153.898222 
L 95.403523 153.676926 
L 95.616356 153.676926 
L 95.829188 153.234336 
L 96.467685 153.234336 
L 96.680518 152.57045 
L 97.106183 152.57045 
L 97.319015 151.242678 
L 97.531848 151.021383 
L 98.383177 151.021383 
L 98.59601 150.578793 
L 99.44734 150.578793 
L 99.660172 149.472316 
L 100.724335 149.472316 
L 100.937167 148.80843 
L 101.575664 148.80843 
L 101.788497 148.36584 
L 103.065492 148.36584 
L 103.278324 147.923249 
L 105.193816 147.923249 
L 105.406649 147.259363 
L 106.045146 147.259363 
L 106.257978 147.038068 
L 106.470811 147.038068 
L 106.683643 146.595477 
L 107.109308 146.595477 
L 107.322141 146.152887 
L 107.747806 146.152887 
L 107.960638 145.931592 
L 108.811968 145.931592 
L 109.0248 145.710296 
L 109.450465 145.710296 
L 109.663298 145.489001 
L 110.72746 145.489001 
L 110.940293 145.267706 
L 111.791622 145.267706 
L 112.004455 145.046411 
L 113.068617 145.046411 
L 113.28145 144.825115 
L 113.707115 144.825115 
L 113.919947 144.60382 
L 116.048272 144.60382 
L 116.261104 144.382525 
L 117.538099 144.382525 
L 117.750931 144.161229 
L 118.176596 144.161229 
L 118.389429 143.718639 
L 118.815094 143.718639 
L 119.027926 143.497344 
L 119.879256 143.497344 
L 120.092088 143.276048 
L 121.581916 143.276048 
L 121.794748 142.612162 
L 122.220413 142.612162 
L 122.433245 141.948277 
L 125.625732 141.948277 
L 125.838565 141.726981 
L 127.966889 141.726981 
L 128.179722 141.505686 
L 129.243884 141.505686 
L 129.456717 141.284391 
L 132.223539 141.284391 
L 132.436371 141.063095 
L 133.287701 141.063095 
L 133.500533 140.8418 
L 134.351863 140.8418 
L 134.564696 139.956619 
L 134.99036 139.956619 
L 135.203193 139.514029 
L 138.39568 139.514029 
L 138.608512 139.071438 
L 139.672675 139.071438 
L 140.09834 138.407552 
L 140.524004 138.407552 
L 140.736837 138.186257 
L 141.800999 138.186257 
L 142.013832 137.964962 
L 144.567821 137.964962 
L 144.993486 137.522371 
L 145.206319 136.415895 
L 145.844816 136.415895 
L 146.057648 136.194599 
L 146.483313 136.194599 
L 146.696146 135.973304 
L 147.121811 135.973304 
L 147.547476 135.309418 
L 151.591292 135.309418 
L 151.804125 135.088123 
L 153.506784 135.088123 
L 153.719617 134.424237 
L 157.763434 134.424237 
L 157.976266 134.202942 
L 158.614763 134.202942 
L 158.827596 133.981647 
L 159.891758 133.981647 
L 160.104591 133.760351 
L 161.168753 133.760351 
L 161.381585 133.539056 
L 163.297078 133.539056 
L 163.50991 132.653875 
L 164.999737 132.653875 
L 165.21257 132.211284 
L 169.256386 132.211284 
L 169.469219 131.768694 
L 170.959046 131.768694 
L 171.171879 131.547398 
L 174.577198 131.547398 
L 174.79003 131.326103 
L 180.110842 131.326103 
L 180.323674 131.104808 
L 180.749339 131.104808 
L 181.175004 130.440922 
L 182.451999 130.440922 
L 182.664831 129.998332 
L 186.070151 129.998332 
L 186.282983 129.777036 
L 189.049805 129.777036 
L 189.262638 128.891855 
L 189.47547 128.67056 
L 189.688303 128.67056 
L 189.901135 128.449265 
L 192.02946 128.449265 
L 192.242292 128.227969 
L 194.796282 128.227969 
L 195.009114 128.006674 
L 200.329926 128.006674 
L 200.542758 127.785379 
L 200.75559 127.785379 
L 200.968423 127.564083 
L 202.671083 127.564083 
L 202.883915 127.342788 
L 205.01224 127.342788 
L 205.437905 126.900198 
L 206.927732 126.900198 
L 207.140564 126.015016 
L 208.843224 126.015016 
L 209.056056 125.793721 
L 209.907386 125.793721 
L 210.120219 125.572426 
L 219.059182 125.572426 
L 219.272014 125.351131 
L 225.018491 125.351131 
L 225.231323 125.129835 
L 227.998145 125.129835 
L 228.210978 124.687245 
L 229.700805 124.687245 
L 229.913637 124.244654 
L 232.041962 124.244654 
L 232.254794 123.802064 
L 233.318957 123.802064 
L 233.531789 123.580768 
L 234.808784 123.580768 
L 235.021616 123.138178 
L 235.872946 123.138178 
L 236.085779 122.916883 
L 238.639768 122.916883 
L 238.852601 122.695587 
L 240.55526 122.695587 
L 240.768093 122.474292 
L 241.193758 122.474292 
L 241.40659 122.252997 
L 242.896417 122.252997 
L 243.10925 121.589111 
L 248.004396 121.589111 
L 248.217229 121.367816 
L 249.494224 121.367816 
L 249.707056 120.925225 
L 255.453533 120.925225 
L 255.666365 120.70393 
L 261.200009 120.70393 
L 261.412841 120.261339 
L 263.328334 120.261339 
L 263.541166 119.818749 
L 264.605328 119.818749 
L 264.818161 119.376158 
L 273.118627 119.376158 
L 273.331459 119.154863 
L 274.182789 119.154863 
L 274.395621 118.933568 
L 276.949611 118.933568 
L 277.162443 118.712272 
L 277.800941 118.712272 
L 278.013773 118.269682 
L 278.439438 118.269682 
L 278.652271 118.048386 
L 282.483255 118.048386 
L 282.696087 117.827091 
L 283.547417 117.827091 
L 283.76025 117.605796 
L 289.081061 117.605796 
L 289.293894 117.384501 
L 297.594359 117.384501 
L 297.807192 116.94191 
L 301.851009 116.94191 
L 302.063841 116.720615 
L 303.340836 116.720615 
L 303.553668 116.278024 
L 305.043496 116.278024 
L 305.256328 116.056729 
L 308.02315 116.056729 
L 308.235982 115.835434 
L 311.002804 115.835434 
L 311.215637 115.171548 
L 323.772752 115.171548 
L 323.985584 114.950252 
L 326.752406 114.950252 
L 326.965239 114.728957 
L 329.944893 114.728957 
L 330.157726 113.843776 
L 375.916705 113.843776 
L 375.916705 113.843776 
" clip-path="url(#p26fc2b2106)" style="fill: none; stroke: #57db94; stroke-width: 1.2; stroke-linecap: round"/>
   </g>
   <g id="line2d_42">
    <path d="M 69.650795 477.210626 
L 70.502125 367.669462 
L 70.92779 324.516883 
L 71.140623 316.992843 
L 71.353455 305.485488 
L 71.566288 301.723469 
L 71.991953 289.330933 
L 72.417617 281.585598 
L 72.63045 279.372645 
L 73.056115 264.767157 
L 73.694612 253.702393 
L 74.120277 242.858924 
L 74.545942 236.662656 
L 74.971607 235.113589 
L 75.397272 232.900637 
L 76.248602 225.819188 
L 76.461434 225.155302 
L 77.312764 215.8609 
L 77.525596 215.197014 
L 78.376926 210.992404 
L 79.015424 209.885928 
L 79.441089 209.885928 
L 79.653921 209.664632 
L 79.866754 209.664632 
L 80.079586 209.443337 
L 80.930916 209.443337 
L 81.143748 209.222042 
L 81.356581 209.222042 
L 81.569413 209.000746 
L 81.782246 201.919297 
L 81.995078 201.698002 
L 82.207911 201.034116 
L 82.633575 199.042459 
L 82.846408 198.599868 
L 83.05924 197.050801 
L 83.484905 195.72303 
L 83.91057 195.280439 
L 84.974733 191.96101 
L 85.400397 191.518419 
L 85.826062 190.854533 
L 86.038895 190.633238 
L 86.251727 190.190648 
L 89.231382 190.190648 
L 89.444214 189.969352 
L 90.508376 189.969352 
L 90.721209 186.428628 
L 90.934041 186.207333 
L 91.146874 185.764742 
L 91.359706 185.764742 
L 91.785371 185.100856 
L 91.998204 184.879561 
L 92.211036 184.879561 
L 92.636701 183.773085 
L 92.849534 183.330494 
L 93.062366 182.445313 
L 93.275198 182.445313 
L 93.488031 182.002722 
L 93.700863 182.002722 
L 94.126528 181.560132 
L 98.59601 181.560132 
L 98.808842 178.683293 
L 103.491157 178.683293 
L 103.703989 178.461998 
L 105.193816 178.461998 
L 105.406649 178.240703 
L 105.619481 176.691636 
L 105.832314 176.47034 
L 107.534973 176.47034 
L 107.747806 176.249045 
L 107.960638 175.363864 
L 108.599136 175.363864 
L 108.811968 175.142569 
L 112.217287 175.142569 
L 112.43012 174.036092 
L 112.642952 173.814797 
L 115.835439 173.814797 
L 116.261104 173.372206 
L 117.325266 173.372206 
L 117.538099 172.26573 
L 117.750931 171.823139 
L 121.794748 171.823139 
L 122.00758 171.601844 
L 122.433245 171.601844 
L 122.646078 169.610187 
L 126.477062 169.610187 
L 126.902727 169.167596 
L 127.328392 169.167596 
L 127.541224 168.725005 
L 131.159376 168.725005 
L 131.372209 168.50371 
L 132.862036 168.50371 
L 133.287701 168.06112 
L 133.926198 168.06112 
L 134.139031 167.839824 
L 134.99036 167.839824 
L 135.203193 167.397234 
L 136.054523 167.397234 
L 136.267355 167.175939 
L 138.182847 167.175939 
L 138.39568 166.954643 
L 138.608512 166.512053 
L 139.459842 166.512053 
L 139.672675 166.290757 
L 144.780654 166.290757 
L 144.993486 164.74169 
L 145.419151 164.2991 
L 152.442622 164.2991 
L 153.293952 162.750033 
L 157.976266 162.750033 
L 158.189099 162.528738 
L 162.65858 162.528738 
L 163.297078 160.315785 
L 163.722743 160.315785 
L 164.148407 159.209308 
L 243.10925 159.209308 
L 243.322082 158.988013 
L 243.747747 158.988013 
L 244.173412 158.324127 
L 244.386245 152.57045 
L 245.237574 152.57045 
L 245.450407 152.349155 
L 245.663239 152.349155 
L 245.876072 151.906564 
L 246.940234 151.906564 
L 247.365899 151.463974 
L 247.578732 151.463974 
L 248.430061 150.578793 
L 248.642894 150.578793 
L 248.855726 150.357497 
L 249.068559 149.914907 
L 260.561512 149.914907 
L 260.774344 149.693611 
L 260.987176 149.251021 
L 262.477004 149.251021 
L 262.689836 149.029726 
L 269.500475 149.029726 
L 269.713307 148.587135 
L 274.395621 148.587135 
L 274.608454 148.36584 
L 276.523946 148.36584 
L 276.736778 148.144544 
L 277.162443 148.144544 
L 277.375276 147.701954 
L 281.844757 147.701954 
L 282.05759 147.480659 
L 283.121752 147.480659 
L 283.334585 147.259363 
L 288.016899 147.259363 
L 288.229731 147.038068 
L 289.506726 147.038068 
L 289.719558 146.816773 
L 292.060716 146.816773 
L 292.273548 146.595477 
L 297.168695 146.595477 
L 297.807192 145.931592 
L 304.617831 145.931592 
L 304.830663 145.710296 
L 306.746155 145.710296 
L 306.958988 145.489001 
L 307.810318 145.489001 
L 308.02315 145.267706 
L 308.235982 145.267706 
L 308.661647 144.825115 
L 309.72581 144.825115 
L 309.938642 144.60382 
L 323.134255 144.60382 
L 323.347087 144.382525 
L 326.539574 144.382525 
L 326.752406 143.939934 
L 327.178071 143.939934 
L 327.390904 143.718639 
L 327.603736 143.276048 
L 357.187448 143.276048 
L 357.400281 143.054753 
L 361.018432 143.054753 
L 361.231265 142.833458 
L 361.444097 142.833458 
L 361.65693 142.612162 
L 365.487914 142.612162 
L 365.913579 142.169572 
L 375.916705 142.169572 
L 375.916705 142.169572 
" clip-path="url(#p26fc2b2106)" style="fill: none; stroke: #5784db; stroke-width: 1.2; stroke-linecap: round"/>
   </g>
   <g id="line2d_43">
    <path d="M 69.650795 472.674072 
L 70.07646 397.544325 
L 70.289293 355.719517 
L 70.92779 299.067925 
L 71.353455 284.683732 
L 71.77912 274.504149 
L 72.204785 262.332909 
L 72.63045 254.808869 
L 73.056115 242.195038 
L 73.48178 234.007113 
L 74.545942 211.213699 
L 74.971607 209.222042 
L 75.397272 206.345203 
L 75.822937 201.034116 
L 76.461434 196.386915 
L 76.887099 189.969352 
L 77.525596 185.100856 
L 78.802591 178.240703 
L 79.015424 178.019407 
L 79.653921 174.921273 
L 80.505251 170.495368 
L 80.930916 169.610187 
L 81.143748 168.725005 
L 81.356581 166.733348 
L 81.995078 164.520395 
L 82.207911 163.635214 
L 82.420743 161.864852 
L 82.846408 160.315785 
L 83.05924 157.881537 
L 83.697738 156.111175 
L 83.91057 155.889879 
L 84.123403 155.447289 
L 84.336235 153.013041 
L 84.549068 151.906564 
L 84.7619 149.914907 
L 85.61323 148.36584 
L 85.826062 148.36584 
L 86.038895 148.144544 
L 86.251727 147.480659 
L 86.46456 147.480659 
L 86.677392 146.816773 
L 86.890225 146.816773 
L 87.31589 146.374182 
L 87.528722 145.710296 
L 87.741555 145.710296 
L 88.380052 144.60382 
L 88.805717 144.60382 
L 89.018549 144.382525 
L 89.231382 144.382525 
L 89.444214 143.718639 
L 89.657047 143.718639 
L 89.869879 143.497344 
L 90.082712 142.833458 
L 90.295544 142.612162 
L 90.721209 141.284391 
L 90.934041 141.063095 
L 91.146874 140.620505 
L 91.359706 140.620505 
L 92.423869 138.407552 
L 92.849534 136.63719 
L 93.062366 135.752009 
L 93.275198 135.752009 
L 93.700863 135.309418 
L 94.126528 134.645532 
L 94.339361 134.645532 
L 94.552193 134.424237 
L 95.190691 134.424237 
L 95.403523 134.202942 
L 95.616356 134.202942 
L 95.829188 133.981647 
L 96.04202 133.981647 
L 96.467685 133.539056 
L 96.680518 132.653875 
L 96.89335 132.653875 
L 97.319015 131.768694 
L 97.531848 131.768694 
L 97.74468 131.547398 
L 98.170345 131.547398 
L 98.383177 131.326103 
L 98.59601 131.326103 
L 98.808842 130.440922 
L 99.021675 130.440922 
L 99.234507 130.219627 
L 99.44734 130.219627 
L 99.660172 129.998332 
L 100.085837 129.998332 
L 100.511502 129.555741 
L 100.724335 129.555741 
L 100.937167 129.11315 
L 101.149999 129.11315 
L 101.362832 128.891855 
L 102.426994 128.891855 
L 102.639827 128.67056 
L 103.065492 128.67056 
L 103.278324 128.449265 
L 103.491157 128.449265 
L 103.703989 128.006674 
L 104.980984 128.006674 
L 105.406649 127.564083 
L 106.045146 127.564083 
L 106.257978 126.900198 
L 107.109308 126.900198 
L 107.322141 126.678902 
L 107.534973 126.678902 
L 107.747806 126.457607 
L 108.599136 126.457607 
L 108.811968 126.236312 
L 109.450465 126.236312 
L 109.663298 126.015016 
L 110.514628 126.015016 
L 110.940293 125.572426 
L 111.791622 125.572426 
L 112.217287 125.129835 
L 112.642952 125.129835 
L 112.855785 124.90854 
L 113.28145 124.90854 
L 113.494282 124.46595 
L 115.835439 124.46595 
L 116.261104 124.023359 
L 117.325266 124.023359 
L 117.963764 122.695587 
L 118.176596 122.695587 
L 118.389429 122.474292 
L 118.602261 122.474292 
L 118.815094 122.252997 
L 119.240758 122.252997 
L 119.453591 121.810406 
L 121.156251 121.810406 
L 121.369083 121.589111 
L 121.581916 121.14652 
L 121.794748 121.14652 
L 122.433245 120.482634 
L 125.4129 120.482634 
L 125.625732 120.261339 
L 127.328392 120.261339 
L 127.541224 120.040044 
L 128.179722 120.040044 
L 128.392554 119.818749 
L 131.585041 119.818749 
L 131.797874 119.597453 
L 132.649203 119.597453 
L 132.862036 119.376158 
L 133.287701 119.376158 
L 133.500533 118.933568 
L 133.926198 118.933568 
L 134.139031 118.712272 
L 134.351863 118.712272 
L 134.564696 118.490977 
L 134.99036 118.490977 
L 135.203193 118.048386 
L 138.182847 118.048386 
L 138.608512 117.384501 
L 139.459842 117.384501 
L 139.672675 117.163205 
L 139.885507 117.163205 
L 140.09834 116.94191 
L 140.524004 116.94191 
L 140.736837 116.720615 
L 141.800999 116.720615 
L 142.013832 116.499319 
L 144.354989 116.499319 
L 144.567821 116.278024 
L 144.780654 116.278024 
L 144.993486 115.171548 
L 145.206319 114.950252 
L 145.631983 114.950252 
L 146.270481 114.286367 
L 146.483313 114.286367 
L 146.696146 114.065071 
L 147.334643 114.065071 
L 147.547476 113.843776 
L 150.739962 113.843776 
L 150.952795 113.622481 
L 152.868287 113.622481 
L 153.08112 112.7373 
L 157.337769 112.7373 
L 157.550601 112.516004 
L 158.401931 112.516004 
L 158.614763 112.294709 
L 160.955921 112.294709 
L 161.168753 112.073414 
L 162.65858 112.073414 
L 162.871413 111.630823 
L 163.297078 110.303052 
L 163.50991 110.303052 
L 163.935575 109.196575 
L 167.979392 109.196575 
L 168.192224 108.753985 
L 170.107716 108.753985 
L 170.533381 108.311394 
L 173.938701 108.311394 
L 174.151533 108.090099 
L 180.536507 108.090099 
L 180.749339 107.647508 
L 180.962172 107.647508 
L 181.175004 107.426213 
L 182.026334 107.426213 
L 182.451999 106.762327 
L 185.857318 106.762327 
L 186.070151 106.541032 
L 187.559978 106.541032 
L 187.77281 106.319737 
L 188.836973 106.319737 
L 189.262638 105.21326 
L 189.688303 104.77067 
L 200.117093 104.77067 
L 200.329926 104.549374 
L 200.75559 104.549374 
L 200.968423 104.328079 
L 202.245418 104.328079 
L 202.45825 104.106784 
L 203.948077 104.106784 
L 204.16091 103.885488 
L 204.799407 103.885488 
L 205.225072 103.442898 
L 206.289234 103.442898 
L 206.927732 102.336422 
L 208.204727 102.336422 
L 208.417559 102.115126 
L 209.694554 102.115126 
L 209.907386 101.893831 
L 215.228198 101.893831 
L 215.44103 101.672536 
L 219.059182 101.672536 
L 219.272014 101.45124 
L 224.805658 101.45124 
L 225.018491 101.229945 
L 225.869821 101.229945 
L 226.295486 100.787355 
L 230.552135 100.787355 
L 230.764967 100.566059 
L 231.616297 100.566059 
L 231.82913 100.123469 
L 232.893292 100.123469 
L 233.106124 99.902173 
L 234.808784 99.902173 
L 235.021616 99.680878 
L 235.447281 99.680878 
L 235.660114 99.459583 
L 238.426936 99.459583 
L 238.639768 99.238288 
L 239.278266 99.238288 
L 239.491098 99.016992 
L 241.193758 99.016992 
L 241.40659 98.795697 
L 242.25792 98.795697 
L 242.470752 98.574402 
L 242.683585 98.574402 
L 243.322082 97.910516 
L 247.578732 97.910516 
L 248.004396 97.467925 
L 248.217229 97.467925 
L 248.430061 97.24663 
L 248.642894 97.24663 
L 248.855726 97.025335 
L 249.068559 96.582744 
L 260.348679 96.582744 
L 260.561512 96.361449 
L 260.774344 96.361449 
L 260.987176 95.918858 
L 262.477004 95.918858 
L 262.689836 95.697563 
L 263.328334 95.697563 
L 263.541166 95.476268 
L 263.753998 95.476268 
L 263.966831 95.254973 
L 264.179663 95.254973 
L 264.605328 94.812382 
L 277.162443 94.812382 
L 277.375276 94.369791 
L 278.439438 94.369791 
L 278.652271 94.148496 
L 281.844757 94.148496 
L 282.05759 93.927201 
L 282.90892 93.927201 
L 283.121752 93.705906 
L 288.016899 93.705906 
L 288.229731 93.48461 
L 291.847883 93.48461 
L 292.060716 93.263315 
L 297.168695 93.263315 
L 297.807192 92.599429 
L 304.404998 92.599429 
L 304.617831 92.378134 
L 306.107658 92.378134 
L 306.32049 92.156839 
L 307.17182 92.156839 
L 307.384653 91.935543 
L 308.235982 91.935543 
L 308.661647 91.492953 
L 309.72581 91.492953 
L 309.938642 91.271658 
L 322.921422 91.271658 
L 323.134255 91.050362 
L 326.539574 91.050362 
L 326.752406 90.607772 
L 326.965239 90.607772 
L 327.390904 90.165181 
L 327.603736 89.722591 
L 361.018432 89.722591 
L 361.231265 89.501295 
L 361.444097 89.501295 
L 361.65693 89.28 
L 375.916705 89.28 
L 375.916705 89.28 
" clip-path="url(#p26fc2b2106)" style="fill: none; stroke: #c957db; stroke-width: 1.2; stroke-linecap: round"/>
   </g>
   <g id="line2d_44"/>
   <g id="line2d_45"/>
   <g id="line2d_46"/>
   <g id="line2d_47"/>
   <g id="line2d_48"/>
   <g id="patch_3">
    <path d="M 54.3375 512.64 
L 54.3375 69.12 
" style="fill: none; stroke: #cccccc; stroke-linejoin: miter; stroke-linecap: square"/>
   </g>
   <g id="patch_4">
    <path d="M 54.3375 512.64 
L 391.23 512.64 
" style="fill: none; stroke: #cccccc; stroke-linejoin: miter; stroke-linecap: square"/>
   </g>
   <g id="text_41">
    <!-- Edge Coverage History -->
    <g style="fill: #262626" transform="translate(115.892262 63.12)scale(0.165888 -0.165888)">
     <defs>
      <path id="DejaVuSans-Bold-45" d="M 588 4666 
L 3834 4666 
L 3834 3756 
L 1791 3756 
L 1791 2888 
L 3713 2888 
L 3713 1978 
L 1791 1978 
L 1791 909 
L 3903 909 
L 3903 0 
L 588 0 
L 588 4666 
z
" transform="scale(0.015625)"/>
      <path id="DejaVuSans-Bold-64" d="M 2919 2988 
L 2919 4863 
L 4044 4863 
L 4044 0 
L 2919 0 
L 2919 506 
Q 2688 197 2409 53 
Q 2131 -91 1766 -91 
Q 1119 -91 703 423 
Q 288 938 288 1747 
Q 288 2556 703 3070 
Q 1119 3584 1766 3584 
Q 2128 3584 2408 3439 
Q 2688 3294 2919 2988 
z
M 2181 722 
Q 2541 722 2730 984 
Q 2919 1247 2919 1747 
Q 2919 2247 2730 2509 
Q 2541 2772 2181 2772 
Q 1825 2772 1636 2509 
Q 1447 2247 1447 1747 
Q 1447 1247 1636 984 
Q 1825 722 2181 722 
z
" transform="scale(0.015625)"/>
      <path id="DejaVuSans-Bold-67" d="M 2919 594 
Q 2688 288 2409 144 
Q 2131 0 1766 0 
Q 1125 0 706 504 
Q 288 1009 288 1791 
Q 288 2575 706 3076 
Q 1125 3578 1766 3578 
Q 2131 3578 2409 3434 
Q 2688 3291 2919 2981 
L 2919 3500 
L 4044 3500 
L 4044 353 
Q 4044 -491 3511 -936 
Q 2978 -1381 1966 -1381 
Q 1638 -1381 1331 -1331 
Q 1025 -1281 716 -1178 
L 716 -306 
Q 1009 -475 1290 -558 
Q 1572 -641 1856 -641 
Q 2406 -641 2662 -400 
Q 2919 -159 2919 353 
L 2919 594 
z
M 2181 2772 
Q 1834 2772 1640 2515 
Q 1447 2259 1447 1791 
Q 1447 1309 1634 1061 
Q 1822 813 2181 813 
Q 2531 813 2725 1069 
Q 2919 1325 2919 1791 
Q 2919 2259 2725 2515 
Q 2531 2772 2181 2772 
z
" transform="scale(0.015625)"/>
      <path id="DejaVuSans-Bold-65" d="M 4031 1759 
L 4031 1441 
L 1416 1441 
Q 1456 1047 1700 850 
Q 1944 653 2381 653 
Q 2734 653 3104 758 
Q 3475 863 3866 1075 
L 3866 213 
Q 3469 63 3072 -14 
Q 2675 -91 2278 -91 
Q 1328 -91 801 392 
Q 275 875 275 1747 
Q 275 2603 792 3093 
Q 1309 3584 2216 3584 
Q 3041 3584 3536 3087 
Q 4031 2591 4031 1759 
z
M 2881 2131 
Q 2881 2450 2695 2645 
Q 2509 2841 2209 2841 
Q 1884 2841 1681 2658 
Q 1478 2475 1428 2131 
L 2881 2131 
z
" transform="scale(0.015625)"/>
      <path id="DejaVuSans-Bold-20" transform="scale(0.015625)"/>
      <path id="DejaVuSans-Bold-43" d="M 4288 256 
Q 3956 84 3597 -3 
Q 3238 -91 2847 -91 
Q 1681 -91 1000 561 
Q 319 1213 319 2328 
Q 319 3447 1000 4098 
Q 1681 4750 2847 4750 
Q 3238 4750 3597 4662 
Q 3956 4575 4288 4403 
L 4288 3438 
Q 3953 3666 3628 3772 
Q 3303 3878 2944 3878 
Q 2300 3878 1931 3465 
Q 1563 3053 1563 2328 
Q 1563 1606 1931 1193 
Q 2300 781 2944 781 
Q 3303 781 3628 887 
Q 3953 994 4288 1222 
L 4288 256 
z
" transform="scale(0.015625)"/>
      <path id="DejaVuSans-Bold-6f" d="M 2203 2784 
Q 1831 2784 1636 2517 
Q 1441 2250 1441 1747 
Q 1441 1244 1636 976 
Q 1831 709 2203 709 
Q 2569 709 2762 976 
Q 2956 1244 2956 1747 
Q 2956 2250 2762 2517 
Q 2569 2784 2203 2784 
z
M 2203 3584 
Q 3106 3584 3614 3096 
Q 4122 2609 4122 1747 
Q 4122 884 3614 396 
Q 3106 -91 2203 -91 
Q 1297 -91 786 396 
Q 275 884 275 1747 
Q 275 2609 786 3096 
Q 1297 3584 2203 3584 
z
" transform="scale(0.015625)"/>
      <path id="DejaVuSans-Bold-76" d="M 97 3500 
L 1216 3500 
L 2088 1081 
L 2956 3500 
L 4078 3500 
L 2700 0 
L 1472 0 
L 97 3500 
z
" transform="scale(0.015625)"/>
      <path id="DejaVuSans-Bold-72" d="M 3138 2547 
Q 2991 2616 2845 2648 
Q 2700 2681 2553 2681 
Q 2122 2681 1889 2404 
Q 1656 2128 1656 1613 
L 1656 0 
L 538 0 
L 538 3500 
L 1656 3500 
L 1656 2925 
Q 1872 3269 2151 3426 
Q 2431 3584 2822 3584 
Q 2878 3584 2943 3579 
Q 3009 3575 3134 3559 
L 3138 2547 
z
" transform="scale(0.015625)"/>
      <path id="DejaVuSans-Bold-61" d="M 2106 1575 
Q 1756 1575 1579 1456 
Q 1403 1338 1403 1106 
Q 1403 894 1545 773 
Q 1688 653 1941 653 
Q 2256 653 2472 879 
Q 2688 1106 2688 1447 
L 2688 1575 
L 2106 1575 
z
M 3816 1997 
L 3816 0 
L 2688 0 
L 2688 519 
Q 2463 200 2181 54 
Q 1900 -91 1497 -91 
Q 953 -91 614 226 
Q 275 544 275 1050 
Q 275 1666 698 1953 
Q 1122 2241 2028 2241 
L 2688 2241 
L 2688 2328 
Q 2688 2594 2478 2717 
Q 2269 2841 1825 2841 
Q 1466 2841 1156 2769 
Q 847 2697 581 2553 
L 581 3406 
Q 941 3494 1303 3539 
Q 1666 3584 2028 3584 
Q 2975 3584 3395 3211 
Q 3816 2838 3816 1997 
z
" transform="scale(0.015625)"/>
      <path id="DejaVuSans-Bold-48" d="M 588 4666 
L 1791 4666 
L 1791 2888 
L 3566 2888 
L 3566 4666 
L 4769 4666 
L 4769 0 
L 3566 0 
L 3566 1978 
L 1791 1978 
L 1791 0 
L 588 0 
L 588 4666 
z
" transform="scale(0.015625)"/>
      <path id="DejaVuSans-Bold-69" d="M 538 3500 
L 1656 3500 
L 1656 0 
L 538 0 
L 538 3500 
z
M 538 4863 
L 1656 4863 
L 1656 3950 
L 538 3950 
L 538 4863 
z
" transform="scale(0.015625)"/>
      <path id="DejaVuSans-Bold-73" d="M 3272 3391 
L 3272 2541 
Q 2913 2691 2578 2766 
Q 2244 2841 1947 2841 
Q 1628 2841 1473 2761 
Q 1319 2681 1319 2516 
Q 1319 2381 1436 2309 
Q 1553 2238 1856 2203 
L 2053 2175 
Q 2913 2066 3209 1816 
Q 3506 1566 3506 1031 
Q 3506 472 3093 190 
Q 2681 -91 1863 -91 
Q 1516 -91 1145 -36 
Q 775 19 384 128 
L 384 978 
Q 719 816 1070 734 
Q 1422 653 1784 653 
Q 2113 653 2278 743 
Q 2444 834 2444 1013 
Q 2444 1163 2330 1236 
Q 2216 1309 1875 1350 
L 1678 1375 
Q 931 1469 631 1722 
Q 331 1975 331 2491 
Q 331 3047 712 3315 
Q 1094 3584 1881 3584 
Q 2191 3584 2531 3537 
Q 2872 3491 3272 3391 
z
" transform="scale(0.015625)"/>
      <path id="DejaVuSans-Bold-74" d="M 1759 4494 
L 1759 3500 
L 2913 3500 
L 2913 2700 
L 1759 2700 
L 1759 1216 
Q 1759 972 1856 886 
Q 1953 800 2241 800 
L 2816 800 
L 2816 0 
L 1856 0 
Q 1194 0 917 276 
Q 641 553 641 1216 
L 641 2700 
L 84 2700 
L 84 3500 
L 641 3500 
L 641 4494 
L 1759 4494 
z
" transform="scale(0.015625)"/>
      <path id="DejaVuSans-Bold-79" d="M 78 3500 
L 1197 3500 
L 2138 1125 
L 2938 3500 
L 4056 3500 
L 2584 -331 
Q 2363 -916 2067 -1148 
Q 1772 -1381 1288 -1381 
L 641 -1381 
L 641 -647 
L 991 -647 
Q 1275 -647 1404 -556 
Q 1534 -466 1606 -231 
L 1638 -134 
L 78 3500 
z
" transform="scale(0.015625)"/>
     </defs>
     <use xlink:href="#DejaVuSans-Bold-45"/>
     <use xlink:href="#DejaVuSans-Bold-64" x="68.310547"/>
     <use xlink:href="#DejaVuSans-Bold-67" x="139.892578"/>
     <use xlink:href="#DejaVuSans-Bold-65" x="211.474609"/>
     <use xlink:href="#DejaVuSans-Bold-20" x="279.296875"/>
     <use xlink:href="#DejaVuSans-Bold-43" x="314.111328"/>
     <use xlink:href="#DejaVuSans-Bold-6f" x="387.5"/>
     <use xlink:href="#DejaVuSans-Bold-76" x="456.201172"/>
     <use xlink:href="#DejaVuSans-Bold-65" x="521.386719"/>
     <use xlink:href="#DejaVuSans-Bold-72" x="589.208984"/>
     <use xlink:href="#DejaVuSans-Bold-61" x="638.525391"/>
     <use xlink:href="#DejaVuSans-Bold-67" x="706.005859"/>
     <use xlink:href="#DejaVuSans-Bold-65" x="777.587891"/>
     <use xlink:href="#DejaVuSans-Bold-20" x="845.410156"/>
     <use xlink:href="#DejaVuSans-Bold-48" x="880.224609"/>
     <use xlink:href="#DejaVuSans-Bold-69" x="963.916016"/>
     <use xlink:href="#DejaVuSans-Bold-73" x="998.193359"/>
     <use xlink:href="#DejaVuSans-Bold-74" x="1057.714844"/>
     <use xlink:href="#DejaVuSans-Bold-6f" x="1105.517578"/>
     <use xlink:href="#DejaVuSans-Bold-72" x="1174.21875"/>
     <use xlink:href="#DejaVuSans-Bold-79" x="1223.535156"/>
    </g>
   </g>
   <g id="legend_1">
    <g id="patch_5">
     <path d="M 267.942 508.24 
L 385.07 508.24 
Q 386.83 508.24 386.83 506.48 
L 386.83 428.8405 
Q 386.83 427.0805 385.07 427.0805 
L 267.942 427.0805 
Q 266.182 427.0805 266.182 428.8405 
L 266.182 506.48 
Q 266.182 508.24 267.942 508.24 
z
" style="fill: #ffffff; opacity: 0.8; stroke: #cccccc; stroke-width: 0.8; stroke-linejoin: miter"/>
    </g>
    <g id="text_42">
     <!-- fuzzer -->
     <g style="fill: #262626" transform="translate(311.809 437.895)scale(0.096 -0.096)">
      <defs>
       <path id="DejaVuSans-66" d="M 2375 4863 
L 2375 4384 
L 1825 4384 
Q 1516 4384 1395 4259 
Q 1275 4134 1275 3809 
L 1275 3500 
L 2222 3500 
L 2222 3053 
L 1275 3053 
L 1275 0 
L 697 0 
L 697 3053 
L 147 3053 
L 147 3500 
L 697 3500 
L 697 3744 
Q 697 4328 969 4595 
Q 1241 4863 1831 4863 
L 2375 4863 
z
" transform="scale(0.015625)"/>
       <path id="DejaVuSans-7a" d="M 353 3500 
L 3084 3500 
L 3084 2975 
L 922 459 
L 3084 459 
L 3084 0 
L 275 0 
L 275 525 
L 2438 3041 
L 353 3041 
L 353 3500 
z
" transform="scale(0.015625)"/>
      </defs>
      <use xlink:href="#DejaVuSans-66"/>
      <use xlink:href="#DejaVuSans-75" x="35.205078"/>
      <use xlink:href="#DejaVuSans-7a" x="98.583984"/>
      <use xlink:href="#DejaVuSans-7a" x="151.074219"/>
      <use xlink:href="#DejaVuSans-65" x="203.564453"/>
      <use xlink:href="#DejaVuSans-72" x="265.087891"/>
     </g>
    </g>
    <g id="line2d_49">
     <path d="M 269.702 447.898125 
L 278.502 447.898125 
L 287.302 447.898125 
" style="fill: none; stroke: #db5f57; stroke-width: 1.2; stroke-linecap: round"/>
    </g>
    <g id="text_43">
     <!-- afl-0-exid23 -->
     <g style="fill: #262626" transform="translate(294.342 450.978125)scale(0.088 -0.088)">
      <defs>
       <path id="DejaVuSans-6c" d="M 603 4863 
L 1178 4863 
L 1178 0 
L 603 0 
L 603 4863 
z
" transform="scale(0.015625)"/>
       <path id="DejaVuSans-2d" d="M 313 2009 
L 1997 2009 
L 1997 1497 
L 313 1497 
L 313 2009 
z
" transform="scale(0.015625)"/>
       <path id="DejaVuSans-78" d="M 3513 3500 
L 2247 1797 
L 3578 0 
L 2900 0 
L 1881 1375 
L 863 0 
L 184 0 
L 1544 1831 
L 300 3500 
L 978 3500 
L 1906 2253 
L 2834 3500 
L 3513 3500 
z
" transform="scale(0.015625)"/>
      </defs>
      <use xlink:href="#DejaVuSans-61"/>
      <use xlink:href="#DejaVuSans-66" x="61.279297"/>
      <use xlink:href="#DejaVuSans-6c" x="96.484375"/>
      <use xlink:href="#DejaVuSans-2d" x="124.267578"/>
      <use xlink:href="#DejaVuSans-30" x="160.351562"/>
      <use xlink:href="#DejaVuSans-2d" x="223.974609"/>
      <use xlink:href="#DejaVuSans-65" x="260.058594"/>
      <use xlink:href="#DejaVuSans-78" x="319.832031"/>
      <use xlink:href="#DejaVuSans-69" x="379.011719"/>
      <use xlink:href="#DejaVuSans-64" x="406.794922"/>
      <use xlink:href="#DejaVuSans-32" x="470.271484"/>
      <use xlink:href="#DejaVuSans-33" x="533.894531"/>
     </g>
    </g>
    <g id="line2d_50">
     <path d="M 269.702 460.814875 
L 278.502 460.814875 
L 287.302 460.814875 
" style="fill: none; stroke: #b9db57; stroke-width: 1.2; stroke-linecap: round"/>
    </g>
    <g id="text_44">
     <!-- aflfast-0-exid23 -->
     <g style="fill: #262626" transform="translate(294.342 463.894875)scale(0.088 -0.088)">
      <use xlink:href="#DejaVuSans-61"/>
      <use xlink:href="#DejaVuSans-66" x="61.279297"/>
      <use xlink:href="#DejaVuSans-6c" x="96.484375"/>
      <use xlink:href="#DejaVuSans-66" x="124.267578"/>
      <use xlink:href="#DejaVuSans-61" x="159.472656"/>
      <use xlink:href="#DejaVuSans-73" x="220.751953"/>
      <use xlink:href="#DejaVuSans-74" x="272.851562"/>
      <use xlink:href="#DejaVuSans-2d" x="312.060547"/>
      <use xlink:href="#DejaVuSans-30" x="348.144531"/>
      <use xlink:href="#DejaVuSans-2d" x="411.767578"/>
      <use xlink:href="#DejaVuSans-65" x="447.851562"/>
      <use xlink:href="#DejaVuSans-78" x="507.625"/>
      <use xlink:href="#DejaVuSans-69" x="566.804688"/>
      <use xlink:href="#DejaVuSans-64" x="594.587891"/>
      <use xlink:href="#DejaVuSans-32" x="658.064453"/>
      <use xlink:href="#DejaVuSans-33" x="721.6875"/>
     </g>
    </g>
    <g id="line2d_51">
     <path d="M 269.702 473.731625 
L 278.502 473.731625 
L 287.302 473.731625 
" style="fill: none; stroke: #57db94; stroke-width: 1.2; stroke-linecap: round"/>
    </g>
    <g id="text_45">
     <!-- aflplusplus-0-exid23 -->
     <g style="fill: #262626" transform="translate(294.342 476.811625)scale(0.088 -0.088)">
      <defs>
       <path id="DejaVuSans-70" d="M 1159 525 
L 1159 -1331 
L 581 -1331 
L 581 3500 
L 1159 3500 
L 1159 2969 
Q 1341 3281 1617 3432 
Q 1894 3584 2278 3584 
Q 2916 3584 3314 3078 
Q 3713 2572 3713 1747 
Q 3713 922 3314 415 
Q 2916 -91 2278 -91 
Q 1894 -91 1617 61 
Q 1341 213 1159 525 
z
M 3116 1747 
Q 3116 2381 2855 2742 
Q 2594 3103 2138 3103 
Q 1681 3103 1420 2742 
Q 1159 2381 1159 1747 
Q 1159 1113 1420 752 
Q 1681 391 2138 391 
Q 2594 391 2855 752 
Q 3116 1113 3116 1747 
z
" transform="scale(0.015625)"/>
      </defs>
      <use xlink:href="#DejaVuSans-61"/>
      <use xlink:href="#DejaVuSans-66" x="61.279297"/>
      <use xlink:href="#DejaVuSans-6c" x="96.484375"/>
      <use xlink:href="#DejaVuSans-70" x="124.267578"/>
      <use xlink:href="#DejaVuSans-6c" x="187.744141"/>
      <use xlink:href="#DejaVuSans-75" x="215.527344"/>
      <use xlink:href="#DejaVuSans-73" x="278.90625"/>
      <use xlink:href="#DejaVuSans-70" x="331.005859"/>
      <use xlink:href="#DejaVuSans-6c" x="394.482422"/>
      <use xlink:href="#DejaVuSans-75" x="422.265625"/>
      <use xlink:href="#DejaVuSans-73" x="485.644531"/>
      <use xlink:href="#DejaVuSans-2d" x="537.744141"/>
      <use xlink:href="#DejaVuSans-30" x="573.828125"/>
      <use xlink:href="#DejaVuSans-2d" x="637.451172"/>
      <use xlink:href="#DejaVuSans-65" x="673.535156"/>
      <use xlink:href="#DejaVuSans-78" x="733.308594"/>
      <use xlink:href="#DejaVuSans-69" x="792.488281"/>
      <use xlink:href="#DejaVuSans-64" x="820.271484"/>
      <use xlink:href="#DejaVuSans-32" x="883.748047"/>
      <use xlink:href="#DejaVuSans-33" x="947.371094"/>
     </g>
    </g>
    <g id="line2d_52">
     <path d="M 269.702 486.648375 
L 278.502 486.648375 
L 287.302 486.648375 
" style="fill: none; stroke: #5784db; stroke-width: 1.2; stroke-linecap: round"/>
    </g>
    <g id="text_46">
     <!-- fairfuzz-0-exid23 -->
     <g style="fill: #262626" transform="translate(294.342 489.728375)scale(0.088 -0.088)">
      <use xlink:href="#DejaVuSans-66"/>
      <use xlink:href="#DejaVuSans-61" x="35.205078"/>
      <use xlink:href="#DejaVuSans-69" x="96.484375"/>
      <use xlink:href="#DejaVuSans-72" x="124.267578"/>
      <use xlink:href="#DejaVuSans-66" x="165.380859"/>
      <use xlink:href="#DejaVuSans-75" x="200.585938"/>
      <use xlink:href="#DejaVuSans-7a" x="263.964844"/>
      <use xlink:href="#DejaVuSans-7a" x="316.455078"/>
      <use xlink:href="#DejaVuSans-2d" x="368.945312"/>
      <use xlink:href="#DejaVuSans-30" x="405.029297"/>
      <use xlink:href="#DejaVuSans-2d" x="468.652344"/>
      <use xlink:href="#DejaVuSans-65" x="504.736328"/>
      <use xlink:href="#DejaVuSans-78" x="564.509766"/>
      <use xlink:href="#DejaVuSans-69" x="623.689453"/>
      <use xlink:href="#DejaVuSans-64" x="651.472656"/>
      <use xlink:href="#DejaVuSans-32" x="714.949219"/>
      <use xlink:href="#DejaVuSans-33" x="778.572266"/>
     </g>
    </g>
    <g id="line2d_53">
     <path d="M 269.702 499.565125 
L 278.502 499.565125 
L 287.302 499.565125 
" style="fill: none; stroke: #c957db; stroke-width: 1.2; stroke-linecap: round"/>
    </g>
    <g id="text_47">
     <!-- fuzzer_global -->
     <g style="fill: #262626" transform="translate(294.342 502.645125)scale(0.088 -0.088)">
      <defs>
       <path id="DejaVuSans-5f" d="M 3263 -1063 
L 3263 -1509 
L -63 -1509 
L -63 -1063 
L 3263 -1063 
z
" transform="scale(0.015625)"/>
       <path id="DejaVuSans-62" d="M 3116 1747 
Q 3116 2381 2855 2742 
Q 2594 3103 2138 3103 
Q 1681 3103 1420 2742 
Q 1159 2381 1159 1747 
Q 1159 1113 1420 752 
Q 1681 391 2138 391 
Q 2594 391 2855 752 
Q 3116 1113 3116 1747 
z
M 1159 2969 
Q 1341 3281 1617 3432 
Q 1894 3584 2278 3584 
Q 2916 3584 3314 3078 
Q 3713 2572 3713 1747 
Q 3713 922 3314 415 
Q 2916 -91 2278 -91 
Q 1894 -91 1617 61 
Q 1341 213 1159 525 
L 1159 0 
L 581 0 
L 581 4863 
L 1159 4863 
L 1159 2969 
z
" transform="scale(0.015625)"/>
      </defs>
      <use xlink:href="#DejaVuSans-66"/>
      <use xlink:href="#DejaVuSans-75" x="35.205078"/>
      <use xlink:href="#DejaVuSans-7a" x="98.583984"/>
      <use xlink:href="#DejaVuSans-7a" x="151.074219"/>
      <use xlink:href="#DejaVuSans-65" x="203.564453"/>
      <use xlink:href="#DejaVuSans-72" x="265.087891"/>
      <use xlink:href="#DejaVuSans-5f" x="306.201172"/>
      <use xlink:href="#DejaVuSans-67" x="356.201172"/>
      <use xlink:href="#DejaVuSans-6c" x="419.677734"/>
      <use xlink:href="#DejaVuSans-6f" x="447.460938"/>
      <use xlink:href="#DejaVuSans-62" x="508.642578"/>
      <use xlink:href="#DejaVuSans-61" x="572.119141"/>
      <use xlink:href="#DejaVuSans-6c" x="633.398438"/>
     </g>
    </g>
   </g>
  </g>
 </g>
 <defs>
  <clipPath id="p26fc2b2106">
   <rect x="54.3375" y="69.12" width="336.8925" height="443.52"/>
  </clipPath>
 </defs>
</svg>
