<?xml version="1.0" encoding="utf-8" standalone="no"?>
<!DOCTYPE svg PUBLIC "-//W3C//DTD SVG 1.1//EN"
  "http://www.w3.org/Graphics/SVG/1.1/DTD/svg11.dtd">
<svg xmlns:xlink="http://www.w3.org/1999/xlink" width="434.4pt" height="576pt" viewBox="0 0 434.4 576" xmlns="http://www.w3.org/2000/svg" version="1.1">
 <metadata>
  <rdf:RDF xmlns:dc="http://purl.org/dc/elements/1.1/" xmlns:cc="http://creativecommons.org/ns#" xmlns:rdf="http://www.w3.org/1999/02/22-rdf-syntax-ns#">
   <cc:Work>
    <dc:type rdf:resource="http://purl.org/dc/dcmitype/StillImage"/>
    <dc:date>2022-09-15T10:10:08.347148</dc:date>
    <dc:format>image/svg+xml</dc:format>
    <dc:creator>
     <cc:Agent>
      <dc:title>Matplotlib v3.5.3, https://matplotlib.org/</dc:title>
     </cc:Agent>
    </dc:creator>
   </cc:Work>
  </rdf:RDF>
 </metadata>
 <defs>
  <style type="text/css">*{stroke-linejoin: round; stroke-linecap: butt}</style>
 </defs>
 <g id="figure_1">
  <g id="patch_1">
   <path d="M 0 576 
L 434.4 576 
L 434.4 0 
L 0 0 
z
" style="fill: #ffffff"/>
  </g>
  <g id="axes_1">
   <g id="patch_2">
    <path d="M 54.3 512.64 
L 390.96 512.64 
L 390.96 69.12 
L 54.3 69.12 
z
" style="fill: #ffffff"/>
   </g>
   <g id="matplotlib.axis_1">
    <g id="xtick_1">
     <g id="line2d_1">
      <path d="M 69.602727 512.64 
L 69.602727 69.12 
" clip-path="url(#p89250df65d)" style="fill: none; stroke: #cccccc; stroke-width: 0.8; stroke-linecap: round"/>
     </g>
     <g id="text_1">
      <!-- 0 -->
      <g style="fill: #262626" transform="translate(69.340214 529.627249)rotate(-45)scale(0.088 -0.088)">
       <defs>
        <path id="DejaVuSans-30" d="M 2034 4250 
Q 1547 4250 1301 3770 
Q 1056 3291 1056 2328 
Q 1056 1369 1301 889 
Q 1547 409 2034 409 
Q 2525 409 2770 889 
Q 3016 1369 3016 2328 
Q 3016 3291 2770 3770 
Q 2525 4250 2034 4250 
z
M 2034 4750 
Q 2819 4750 3233 4129 
Q 3647 3509 3647 2328 
Q 3647 1150 3233 529 
Q 2819 -91 2034 -91 
Q 1250 -91 836 529 
Q 422 1150 422 2328 
Q 422 3509 836 4129 
Q 1250 4750 2034 4750 
z
" transform="scale(0.015625)"/>
       </defs>
       <use xlink:href="#DejaVuSans-30"/>
      </g>
     </g>
    </g>
    <g id="xtick_2">
     <g id="line2d_2">
      <path d="M 86.629406 512.64 
L 86.629406 69.12 
" clip-path="url(#p89250df65d)" style="fill: none; stroke: #cccccc; stroke-width: 0.8; stroke-linecap: round"/>
     </g>
     <g id="text_2">
      <!-- 80 -->
      <g style="fill: #262626" transform="translate(84.387347 533.58634)rotate(-45)scale(0.088 -0.088)">
       <defs>
        <path id="DejaVuSans-38" d="M 2034 2216 
Q 1584 2216 1326 1975 
Q 1069 1734 1069 1313 
Q 1069 891 1326 650 
Q 1584 409 2034 409 
Q 2484 409 2743 651 
Q 3003 894 3003 1313 
Q 3003 1734 2745 1975 
Q 2488 2216 2034 2216 
z
M 1403 2484 
Q 997 2584 770 2862 
Q 544 3141 544 3541 
Q 544 4100 942 4425 
Q 1341 4750 2034 4750 
Q 2731 4750 3128 4425 
Q 3525 4100 3525 3541 
Q 3525 3141 3298 2862 
Q 3072 2584 2669 2484 
Q 3125 2378 3379 2068 
Q 3634 1759 3634 1313 
Q 3634 634 3220 271 
Q 2806 -91 2034 -91 
Q 1263 -91 848 271 
Q 434 634 434 1313 
Q 434 1759 690 2068 
Q 947 2378 1403 2484 
z
M 1172 3481 
Q 1172 3119 1398 2916 
Q 1625 2713 2034 2713 
Q 2441 2713 2670 2916 
Q 2900 3119 2900 3481 
Q 2900 3844 2670 4047 
Q 2441 4250 2034 4250 
Q 1625 4250 1398 4047 
Q 1172 3844 1172 3481 
z
" transform="scale(0.015625)"/>
       </defs>
       <use xlink:href="#DejaVuSans-38"/>
       <use xlink:href="#DejaVuSans-30" x="63.623047"/>
      </g>
     </g>
    </g>
    <g id="xtick_3">
     <g id="line2d_3">
      <path d="M 103.656084 512.64 
L 103.656084 69.12 
" clip-path="url(#p89250df65d)" style="fill: none; stroke: #cccccc; stroke-width: 0.8; stroke-linecap: round"/>
     </g>
     <g id="text_3">
      <!-- 160 -->
      <g style="fill: #262626" transform="translate(99.43448 537.54543)rotate(-45)scale(0.088 -0.088)">
       <defs>
        <path id="DejaVuSans-31" d="M 794 531 
L 1825 531 
L 1825 4091 
L 703 3866 
L 703 4441 
L 1819 4666 
L 2450 4666 
L 2450 531 
L 3481 531 
L 3481 0 
L 794 0 
L 794 531 
z
" transform="scale(0.015625)"/>
        <path id="DejaVuSans-36" d="M 2113 2584 
Q 1688 2584 1439 2293 
Q 1191 2003 1191 1497 
Q 1191 994 1439 701 
Q 1688 409 2113 409 
Q 2538 409 2786 701 
Q 3034 994 3034 1497 
Q 3034 2003 2786 2293 
Q 2538 2584 2113 2584 
z
M 3366 4563 
L 3366 3988 
Q 3128 4100 2886 4159 
Q 2644 4219 2406 4219 
Q 1781 4219 1451 3797 
Q 1122 3375 1075 2522 
Q 1259 2794 1537 2939 
Q 1816 3084 2150 3084 
Q 2853 3084 3261 2657 
Q 3669 2231 3669 1497 
Q 3669 778 3244 343 
Q 2819 -91 2113 -91 
Q 1303 -91 875 529 
Q 447 1150 447 2328 
Q 447 3434 972 4092 
Q 1497 4750 2381 4750 
Q 2619 4750 2861 4703 
Q 3103 4656 3366 4563 
z
" transform="scale(0.015625)"/>
       </defs>
       <use xlink:href="#DejaVuSans-31"/>
       <use xlink:href="#DejaVuSans-36" x="63.623047"/>
       <use xlink:href="#DejaVuSans-30" x="127.246094"/>
      </g>
     </g>
    </g>
    <g id="xtick_4">
     <g id="line2d_4">
      <path d="M 120.682763 512.64 
L 120.682763 69.12 
" clip-path="url(#p89250df65d)" style="fill: none; stroke: #cccccc; stroke-width: 0.8; stroke-linecap: round"/>
     </g>
     <g id="text_4">
      <!-- 240 -->
      <g style="fill: #262626" transform="translate(116.461158 537.54543)rotate(-45)scale(0.088 -0.088)">
       <defs>
        <path id="DejaVuSans-32" d="M 1228 531 
L 3431 531 
L 3431 0 
L 469 0 
L 469 531 
Q 828 903 1448 1529 
Q 2069 2156 2228 2338 
Q 2531 2678 2651 2914 
Q 2772 3150 2772 3378 
Q 2772 3750 2511 3984 
Q 2250 4219 1831 4219 
Q 1534 4219 1204 4116 
Q 875 4013 500 3803 
L 500 4441 
Q 881 4594 1212 4672 
Q 1544 4750 1819 4750 
Q 2544 4750 2975 4387 
Q 3406 4025 3406 3419 
Q 3406 3131 3298 2873 
Q 3191 2616 2906 2266 
Q 2828 2175 2409 1742 
Q 1991 1309 1228 531 
z
" transform="scale(0.015625)"/>
        <path id="DejaVuSans-34" d="M 2419 4116 
L 825 1625 
L 2419 1625 
L 2419 4116 
z
M 2253 4666 
L 3047 4666 
L 3047 1625 
L 3713 1625 
L 3713 1100 
L 3047 1100 
L 3047 0 
L 2419 0 
L 2419 1100 
L 313 1100 
L 313 1709 
L 2253 4666 
z
" transform="scale(0.015625)"/>
       </defs>
       <use xlink:href="#DejaVuSans-32"/>
       <use xlink:href="#DejaVuSans-34" x="63.623047"/>
       <use xlink:href="#DejaVuSans-30" x="127.246094"/>
      </g>
     </g>
    </g>
    <g id="xtick_5">
     <g id="line2d_5">
      <path d="M 137.709441 512.64 
L 137.709441 69.12 
" clip-path="url(#p89250df65d)" style="fill: none; stroke: #cccccc; stroke-width: 0.8; stroke-linecap: round"/>
     </g>
     <g id="text_5">
      <!-- 320 -->
      <g style="fill: #262626" transform="translate(133.487837 537.54543)rotate(-45)scale(0.088 -0.088)">
       <defs>
        <path id="DejaVuSans-33" d="M 2597 2516 
Q 3050 2419 3304 2112 
Q 3559 1806 3559 1356 
Q 3559 666 3084 287 
Q 2609 -91 1734 -91 
Q 1441 -91 1130 -33 
Q 819 25 488 141 
L 488 750 
Q 750 597 1062 519 
Q 1375 441 1716 441 
Q 2309 441 2620 675 
Q 2931 909 2931 1356 
Q 2931 1769 2642 2001 
Q 2353 2234 1838 2234 
L 1294 2234 
L 1294 2753 
L 1863 2753 
Q 2328 2753 2575 2939 
Q 2822 3125 2822 3475 
Q 2822 3834 2567 4026 
Q 2313 4219 1838 4219 
Q 1578 4219 1281 4162 
Q 984 4106 628 3988 
L 628 4550 
Q 988 4650 1302 4700 
Q 1616 4750 1894 4750 
Q 2613 4750 3031 4423 
Q 3450 4097 3450 3541 
Q 3450 3153 3228 2886 
Q 3006 2619 2597 2516 
z
" transform="scale(0.015625)"/>
       </defs>
       <use xlink:href="#DejaVuSans-33"/>
       <use xlink:href="#DejaVuSans-32" x="63.623047"/>
       <use xlink:href="#DejaVuSans-30" x="127.246094"/>
      </g>
     </g>
    </g>
    <g id="xtick_6">
     <g id="line2d_6">
      <path d="M 154.73612 512.64 
L 154.73612 69.12 
" clip-path="url(#p89250df65d)" style="fill: none; stroke: #cccccc; stroke-width: 0.8; stroke-linecap: round"/>
     </g>
     <g id="text_6">
      <!-- 400 -->
      <g style="fill: #262626" transform="translate(150.514515 537.54543)rotate(-45)scale(0.088 -0.088)">
       <use xlink:href="#DejaVuSans-34"/>
       <use xlink:href="#DejaVuSans-30" x="63.623047"/>
       <use xlink:href="#DejaVuSans-30" x="127.246094"/>
      </g>
     </g>
    </g>
    <g id="xtick_7">
     <g id="line2d_7">
      <path d="M 171.762798 512.64 
L 171.762798 69.12 
" clip-path="url(#p89250df65d)" style="fill: none; stroke: #cccccc; stroke-width: 0.8; stroke-linecap: round"/>
     </g>
     <g id="text_7">
      <!-- 480 -->
      <g style="fill: #262626" transform="translate(167.541194 537.54543)rotate(-45)scale(0.088 -0.088)">
       <use xlink:href="#DejaVuSans-34"/>
       <use xlink:href="#DejaVuSans-38" x="63.623047"/>
       <use xlink:href="#DejaVuSans-30" x="127.246094"/>
      </g>
     </g>
    </g>
    <g id="xtick_8">
     <g id="line2d_8">
      <path d="M 188.789477 512.64 
L 188.789477 69.12 
" clip-path="url(#p89250df65d)" style="fill: none; stroke: #cccccc; stroke-width: 0.8; stroke-linecap: round"/>
     </g>
     <g id="text_8">
      <!-- 560 -->
      <g style="fill: #262626" transform="translate(184.567872 537.54543)rotate(-45)scale(0.088 -0.088)">
       <defs>
        <path id="DejaVuSans-35" d="M 691 4666 
L 3169 4666 
L 3169 4134 
L 1269 4134 
L 1269 2991 
Q 1406 3038 1543 3061 
Q 1681 3084 1819 3084 
Q 2600 3084 3056 2656 
Q 3513 2228 3513 1497 
Q 3513 744 3044 326 
Q 2575 -91 1722 -91 
Q 1428 -91 1123 -41 
Q 819 9 494 109 
L 494 744 
Q 775 591 1075 516 
Q 1375 441 1709 441 
Q 2250 441 2565 725 
Q 2881 1009 2881 1497 
Q 2881 1984 2565 2268 
Q 2250 2553 1709 2553 
Q 1456 2553 1204 2497 
Q 953 2441 691 2322 
L 691 4666 
z
" transform="scale(0.015625)"/>
       </defs>
       <use xlink:href="#DejaVuSans-35"/>
       <use xlink:href="#DejaVuSans-36" x="63.623047"/>
       <use xlink:href="#DejaVuSans-30" x="127.246094"/>
      </g>
     </g>
    </g>
    <g id="xtick_9">
     <g id="line2d_9">
      <path d="M 205.816155 512.64 
L 205.816155 69.12 
" clip-path="url(#p89250df65d)" style="fill: none; stroke: #cccccc; stroke-width: 0.8; stroke-linecap: round"/>
     </g>
     <g id="text_9">
      <!-- 640 -->
      <g style="fill: #262626" transform="translate(201.594551 537.54543)rotate(-45)scale(0.088 -0.088)">
       <use xlink:href="#DejaVuSans-36"/>
       <use xlink:href="#DejaVuSans-34" x="63.623047"/>
       <use xlink:href="#DejaVuSans-30" x="127.246094"/>
      </g>
     </g>
    </g>
    <g id="xtick_10">
     <g id="line2d_10">
      <path d="M 222.842833 512.64 
L 222.842833 69.12 
" clip-path="url(#p89250df65d)" style="fill: none; stroke: #cccccc; stroke-width: 0.8; stroke-linecap: round"/>
     </g>
     <g id="text_10">
      <!-- 720 -->
      <g style="fill: #262626" transform="translate(218.621229 537.54543)rotate(-45)scale(0.088 -0.088)">
       <defs>
        <path id="DejaVuSans-37" d="M 525 4666 
L 3525 4666 
L 3525 4397 
L 1831 0 
L 1172 0 
L 2766 4134 
L 525 4134 
L 525 4666 
z
" transform="scale(0.015625)"/>
       </defs>
       <use xlink:href="#DejaVuSans-37"/>
       <use xlink:href="#DejaVuSans-32" x="63.623047"/>
       <use xlink:href="#DejaVuSans-30" x="127.246094"/>
      </g>
     </g>
    </g>
    <g id="xtick_11">
     <g id="line2d_11">
      <path d="M 239.869512 512.64 
L 239.869512 69.12 
" clip-path="url(#p89250df65d)" style="fill: none; stroke: #cccccc; stroke-width: 0.8; stroke-linecap: round"/>
     </g>
     <g id="text_11">
      <!-- 800 -->
      <g style="fill: #262626" transform="translate(235.647908 537.54543)rotate(-45)scale(0.088 -0.088)">
       <use xlink:href="#DejaVuSans-38"/>
       <use xlink:href="#DejaVuSans-30" x="63.623047"/>
       <use xlink:href="#DejaVuSans-30" x="127.246094"/>
      </g>
     </g>
    </g>
    <g id="xtick_12">
     <g id="line2d_12">
      <path d="M 256.89619 512.64 
L 256.89619 69.12 
" clip-path="url(#p89250df65d)" style="fill: none; stroke: #cccccc; stroke-width: 0.8; stroke-linecap: round"/>
     </g>
     <g id="text_12">
      <!-- 880 -->
      <g style="fill: #262626" transform="translate(252.674586 537.54543)rotate(-45)scale(0.088 -0.088)">
       <use xlink:href="#DejaVuSans-38"/>
       <use xlink:href="#DejaVuSans-38" x="63.623047"/>
       <use xlink:href="#DejaVuSans-30" x="127.246094"/>
      </g>
     </g>
    </g>
    <g id="xtick_13">
     <g id="line2d_13">
      <path d="M 273.922869 512.64 
L 273.922869 69.12 
" clip-path="url(#p89250df65d)" style="fill: none; stroke: #cccccc; stroke-width: 0.8; stroke-linecap: round"/>
     </g>
     <g id="text_13">
      <!-- 960 -->
      <g style="fill: #262626" transform="translate(269.701265 537.54543)rotate(-45)scale(0.088 -0.088)">
       <defs>
        <path id="DejaVuSans-39" d="M 703 97 
L 703 672 
Q 941 559 1184 500 
Q 1428 441 1663 441 
Q 2288 441 2617 861 
Q 2947 1281 2994 2138 
Q 2813 1869 2534 1725 
Q 2256 1581 1919 1581 
Q 1219 1581 811 2004 
Q 403 2428 403 3163 
Q 403 3881 828 4315 
Q 1253 4750 1959 4750 
Q 2769 4750 3195 4129 
Q 3622 3509 3622 2328 
Q 3622 1225 3098 567 
Q 2575 -91 1691 -91 
Q 1453 -91 1209 -44 
Q 966 3 703 97 
z
M 1959 2075 
Q 2384 2075 2632 2365 
Q 2881 2656 2881 3163 
Q 2881 3666 2632 3958 
Q 2384 4250 1959 4250 
Q 1534 4250 1286 3958 
Q 1038 3666 1038 3163 
Q 1038 2656 1286 2365 
Q 1534 2075 1959 2075 
z
" transform="scale(0.015625)"/>
       </defs>
       <use xlink:href="#DejaVuSans-39"/>
       <use xlink:href="#DejaVuSans-36" x="63.623047"/>
       <use xlink:href="#DejaVuSans-30" x="127.246094"/>
      </g>
     </g>
    </g>
    <g id="xtick_14">
     <g id="line2d_14">
      <path d="M 290.949547 512.64 
L 290.949547 69.12 
" clip-path="url(#p89250df65d)" style="fill: none; stroke: #cccccc; stroke-width: 0.8; stroke-linecap: round"/>
     </g>
     <g id="text_14">
      <!-- 1040 -->
      <g style="fill: #262626" transform="translate(284.748398 541.504521)rotate(-45)scale(0.088 -0.088)">
       <use xlink:href="#DejaVuSans-31"/>
       <use xlink:href="#DejaVuSans-30" x="63.623047"/>
       <use xlink:href="#DejaVuSans-34" x="127.246094"/>
       <use xlink:href="#DejaVuSans-30" x="190.869141"/>
      </g>
     </g>
    </g>
    <g id="xtick_15">
     <g id="line2d_15">
      <path d="M 307.976226 512.64 
L 307.976226 69.12 
" clip-path="url(#p89250df65d)" style="fill: none; stroke: #cccccc; stroke-width: 0.8; stroke-linecap: round"/>
     </g>
     <g id="text_15">
      <!-- 1120 -->
      <g style="fill: #262626" transform="translate(301.775076 541.504521)rotate(-45)scale(0.088 -0.088)">
       <use xlink:href="#DejaVuSans-31"/>
       <use xlink:href="#DejaVuSans-31" x="63.623047"/>
       <use xlink:href="#DejaVuSans-32" x="127.246094"/>
       <use xlink:href="#DejaVuSans-30" x="190.869141"/>
      </g>
     </g>
    </g>
    <g id="xtick_16">
     <g id="line2d_16">
      <path d="M 325.002904 512.64 
L 325.002904 69.12 
" clip-path="url(#p89250df65d)" style="fill: none; stroke: #cccccc; stroke-width: 0.8; stroke-linecap: round"/>
     </g>
     <g id="text_16">
      <!-- 1200 -->
      <g style="fill: #262626" transform="translate(318.801755 541.504521)rotate(-45)scale(0.088 -0.088)">
       <use xlink:href="#DejaVuSans-31"/>
       <use xlink:href="#DejaVuSans-32" x="63.623047"/>
       <use xlink:href="#DejaVuSans-30" x="127.246094"/>
       <use xlink:href="#DejaVuSans-30" x="190.869141"/>
      </g>
     </g>
    </g>
    <g id="xtick_17">
     <g id="line2d_17">
      <path d="M 342.029583 512.64 
L 342.029583 69.12 
" clip-path="url(#p89250df65d)" style="fill: none; stroke: #cccccc; stroke-width: 0.8; stroke-linecap: round"/>
     </g>
     <g id="text_17">
      <!-- 1280 -->
      <g style="fill: #262626" transform="translate(335.828433 541.504521)rotate(-45)scale(0.088 -0.088)">
       <use xlink:href="#DejaVuSans-31"/>
       <use xlink:href="#DejaVuSans-32" x="63.623047"/>
       <use xlink:href="#DejaVuSans-38" x="127.246094"/>
       <use xlink:href="#DejaVuSans-30" x="190.869141"/>
      </g>
     </g>
    </g>
    <g id="xtick_18">
     <g id="line2d_18">
      <path d="M 359.056261 512.64 
L 359.056261 69.12 
" clip-path="url(#p89250df65d)" style="fill: none; stroke: #cccccc; stroke-width: 0.8; stroke-linecap: round"/>
     </g>
     <g id="text_18">
      <!-- 1360 -->
      <g style="fill: #262626" transform="translate(352.855112 541.504521)rotate(-45)scale(0.088 -0.088)">
       <use xlink:href="#DejaVuSans-31"/>
       <use xlink:href="#DejaVuSans-33" x="63.623047"/>
       <use xlink:href="#DejaVuSans-36" x="127.246094"/>
       <use xlink:href="#DejaVuSans-30" x="190.869141"/>
      </g>
     </g>
    </g>
    <g id="xtick_19">
     <g id="line2d_19">
      <path d="M 376.08294 512.64 
L 376.08294 69.12 
" clip-path="url(#p89250df65d)" style="fill: none; stroke: #cccccc; stroke-width: 0.8; stroke-linecap: round"/>
     </g>
     <g id="text_19">
      <!-- 1440 -->
      <g style="fill: #262626" transform="translate(369.88179 541.504521)rotate(-45)scale(0.088 -0.088)">
       <use xlink:href="#DejaVuSans-31"/>
       <use xlink:href="#DejaVuSans-34" x="63.623047"/>
       <use xlink:href="#DejaVuSans-34" x="127.246094"/>
       <use xlink:href="#DejaVuSans-30" x="190.869141"/>
      </g>
     </g>
    </g>
    <g id="text_20">
     <!-- Time (Minutes) -->
     <g style="fill: #262626" transform="translate(186.72 554.093115)scale(0.096 -0.096)">
      <defs>
       <path id="DejaVuSans-54" d="M -19 4666 
L 3928 4666 
L 3928 4134 
L 2272 4134 
L 2272 0 
L 1638 0 
L 1638 4134 
L -19 4134 
L -19 4666 
z
" transform="scale(0.015625)"/>
       <path id="DejaVuSans-69" d="M 603 3500 
L 1178 3500 
L 1178 0 
L 603 0 
L 603 3500 
z
M 603 4863 
L 1178 4863 
L 1178 4134 
L 603 4134 
L 603 4863 
z
" transform="scale(0.015625)"/>
       <path id="DejaVuSans-6d" d="M 3328 2828 
Q 3544 3216 3844 3400 
Q 4144 3584 4550 3584 
Q 5097 3584 5394 3201 
Q 5691 2819 5691 2113 
L 5691 0 
L 5113 0 
L 5113 2094 
Q 5113 2597 4934 2840 
Q 4756 3084 4391 3084 
Q 3944 3084 3684 2787 
Q 3425 2491 3425 1978 
L 3425 0 
L 2847 0 
L 2847 2094 
Q 2847 2600 2669 2842 
Q 2491 3084 2119 3084 
Q 1678 3084 1418 2786 
Q 1159 2488 1159 1978 
L 1159 0 
L 581 0 
L 581 3500 
L 1159 3500 
L 1159 2956 
Q 1356 3278 1631 3431 
Q 1906 3584 2284 3584 
Q 2666 3584 2933 3390 
Q 3200 3197 3328 2828 
z
" transform="scale(0.015625)"/>
       <path id="DejaVuSans-65" d="M 3597 1894 
L 3597 1613 
L 953 1613 
Q 991 1019 1311 708 
Q 1631 397 2203 397 
Q 2534 397 2845 478 
Q 3156 559 3463 722 
L 3463 178 
Q 3153 47 2828 -22 
Q 2503 -91 2169 -91 
Q 1331 -91 842 396 
Q 353 884 353 1716 
Q 353 2575 817 3079 
Q 1281 3584 2069 3584 
Q 2775 3584 3186 3129 
Q 3597 2675 3597 1894 
z
M 3022 2063 
Q 3016 2534 2758 2815 
Q 2500 3097 2075 3097 
Q 1594 3097 1305 2825 
Q 1016 2553 972 2059 
L 3022 2063 
z
" transform="scale(0.015625)"/>
       <path id="DejaVuSans-20" transform="scale(0.015625)"/>
       <path id="DejaVuSans-28" d="M 1984 4856 
Q 1566 4138 1362 3434 
Q 1159 2731 1159 2009 
Q 1159 1288 1364 580 
Q 1569 -128 1984 -844 
L 1484 -844 
Q 1016 -109 783 600 
Q 550 1309 550 2009 
Q 550 2706 781 3412 
Q 1013 4119 1484 4856 
L 1984 4856 
z
" transform="scale(0.015625)"/>
       <path id="DejaVuSans-4d" d="M 628 4666 
L 1569 4666 
L 2759 1491 
L 3956 4666 
L 4897 4666 
L 4897 0 
L 4281 0 
L 4281 4097 
L 3078 897 
L 2444 897 
L 1241 4097 
L 1241 0 
L 628 0 
L 628 4666 
z
" transform="scale(0.015625)"/>
       <path id="DejaVuSans-6e" d="M 3513 2113 
L 3513 0 
L 2938 0 
L 2938 2094 
Q 2938 2591 2744 2837 
Q 2550 3084 2163 3084 
Q 1697 3084 1428 2787 
Q 1159 2491 1159 1978 
L 1159 0 
L 581 0 
L 581 3500 
L 1159 3500 
L 1159 2956 
Q 1366 3272 1645 3428 
Q 1925 3584 2291 3584 
Q 2894 3584 3203 3211 
Q 3513 2838 3513 2113 
z
" transform="scale(0.015625)"/>
       <path id="DejaVuSans-75" d="M 544 1381 
L 544 3500 
L 1119 3500 
L 1119 1403 
Q 1119 906 1312 657 
Q 1506 409 1894 409 
Q 2359 409 2629 706 
Q 2900 1003 2900 1516 
L 2900 3500 
L 3475 3500 
L 3475 0 
L 2900 0 
L 2900 538 
Q 2691 219 2414 64 
Q 2138 -91 1772 -91 
Q 1169 -91 856 284 
Q 544 659 544 1381 
z
M 1991 3584 
L 1991 3584 
z
" transform="scale(0.015625)"/>
       <path id="DejaVuSans-74" d="M 1172 4494 
L 1172 3500 
L 2356 3500 
L 2356 3053 
L 1172 3053 
L 1172 1153 
Q 1172 725 1289 603 
Q 1406 481 1766 481 
L 2356 481 
L 2356 0 
L 1766 0 
Q 1100 0 847 248 
Q 594 497 594 1153 
L 594 3053 
L 172 3053 
L 172 3500 
L 594 3500 
L 594 4494 
L 1172 4494 
z
" transform="scale(0.015625)"/>
       <path id="DejaVuSans-73" d="M 2834 3397 
L 2834 2853 
Q 2591 2978 2328 3040 
Q 2066 3103 1784 3103 
Q 1356 3103 1142 2972 
Q 928 2841 928 2578 
Q 928 2378 1081 2264 
Q 1234 2150 1697 2047 
L 1894 2003 
Q 2506 1872 2764 1633 
Q 3022 1394 3022 966 
Q 3022 478 2636 193 
Q 2250 -91 1575 -91 
Q 1294 -91 989 -36 
Q 684 19 347 128 
L 347 722 
Q 666 556 975 473 
Q 1284 391 1588 391 
Q 1994 391 2212 530 
Q 2431 669 2431 922 
Q 2431 1156 2273 1281 
Q 2116 1406 1581 1522 
L 1381 1569 
Q 847 1681 609 1914 
Q 372 2147 372 2553 
Q 372 3047 722 3315 
Q 1072 3584 1716 3584 
Q 2034 3584 2315 3537 
Q 2597 3491 2834 3397 
z
" transform="scale(0.015625)"/>
       <path id="DejaVuSans-29" d="M 513 4856 
L 1013 4856 
Q 1481 4119 1714 3412 
Q 1947 2706 1947 2009 
Q 1947 1309 1714 600 
Q 1481 -109 1013 -844 
L 513 -844 
Q 928 -128 1133 580 
Q 1338 1288 1338 2009 
Q 1338 2731 1133 3434 
Q 928 4138 513 4856 
z
" transform="scale(0.015625)"/>
      </defs>
      <use xlink:href="#DejaVuSans-54"/>
      <use xlink:href="#DejaVuSans-69" x="57.958984"/>
      <use xlink:href="#DejaVuSans-6d" x="85.742188"/>
      <use xlink:href="#DejaVuSans-65" x="183.154297"/>
      <use xlink:href="#DejaVuSans-20" x="244.677734"/>
      <use xlink:href="#DejaVuSans-28" x="276.464844"/>
      <use xlink:href="#DejaVuSans-4d" x="315.478516"/>
      <use xlink:href="#DejaVuSans-69" x="401.757812"/>
      <use xlink:href="#DejaVuSans-6e" x="429.541016"/>
      <use xlink:href="#DejaVuSans-75" x="492.919922"/>
      <use xlink:href="#DejaVuSans-74" x="556.298828"/>
      <use xlink:href="#DejaVuSans-65" x="595.507812"/>
      <use xlink:href="#DejaVuSans-73" x="657.03125"/>
      <use xlink:href="#DejaVuSans-29" x="709.130859"/>
     </g>
    </g>
   </g>
   <g id="matplotlib.axis_2">
    <g id="ytick_1">
     <g id="line2d_20">
      <path d="M 54.3 492.48 
L 390.96 492.48 
" clip-path="url(#p89250df65d)" style="fill: none; stroke: #cccccc; stroke-width: 0.8; stroke-linecap: round"/>
     </g>
     <g id="text_21">
      <!-- 0 -->
      <g style="fill: #262626" transform="translate(40.401 495.823312)scale(0.088 -0.088)">
       <use xlink:href="#DejaVuSans-30"/>
      </g>
     </g>
    </g>
    <g id="ytick_2">
     <g id="line2d_21">
      <path d="M 54.3 470.240618 
L 390.96 470.240618 
" clip-path="url(#p89250df65d)" style="fill: none; stroke: #cccccc; stroke-width: 0.8; stroke-linecap: round"/>
     </g>
     <g id="text_22">
      <!-- 100 -->
      <g style="fill: #262626" transform="translate(29.203 473.58393)scale(0.088 -0.088)">
       <use xlink:href="#DejaVuSans-31"/>
       <use xlink:href="#DejaVuSans-30" x="63.623047"/>
       <use xlink:href="#DejaVuSans-30" x="127.246094"/>
      </g>
     </g>
    </g>
    <g id="ytick_3">
     <g id="line2d_22">
      <path d="M 54.3 448.001236 
L 390.96 448.001236 
" clip-path="url(#p89250df65d)" style="fill: none; stroke: #cccccc; stroke-width: 0.8; stroke-linecap: round"/>
     </g>
     <g id="text_23">
      <!-- 200 -->
      <g style="fill: #262626" transform="translate(29.203 451.344548)scale(0.088 -0.088)">
       <use xlink:href="#DejaVuSans-32"/>
       <use xlink:href="#DejaVuSans-30" x="63.623047"/>
       <use xlink:href="#DejaVuSans-30" x="127.246094"/>
      </g>
     </g>
    </g>
    <g id="ytick_4">
     <g id="line2d_23">
      <path d="M 54.3 425.761853 
L 390.96 425.761853 
" clip-path="url(#p89250df65d)" style="fill: none; stroke: #cccccc; stroke-width: 0.8; stroke-linecap: round"/>
     </g>
     <g id="text_24">
      <!-- 300 -->
      <g style="fill: #262626" transform="translate(29.203 429.105166)scale(0.088 -0.088)">
       <use xlink:href="#DejaVuSans-33"/>
       <use xlink:href="#DejaVuSans-30" x="63.623047"/>
       <use xlink:href="#DejaVuSans-30" x="127.246094"/>
      </g>
     </g>
    </g>
    <g id="ytick_5">
     <g id="line2d_24">
      <path d="M 54.3 403.522471 
L 390.96 403.522471 
" clip-path="url(#p89250df65d)" style="fill: none; stroke: #cccccc; stroke-width: 0.8; stroke-linecap: round"/>
     </g>
     <g id="text_25">
      <!-- 400 -->
      <g style="fill: #262626" transform="translate(29.203 406.865784)scale(0.088 -0.088)">
       <use xlink:href="#DejaVuSans-34"/>
       <use xlink:href="#DejaVuSans-30" x="63.623047"/>
       <use xlink:href="#DejaVuSans-30" x="127.246094"/>
      </g>
     </g>
    </g>
    <g id="ytick_6">
     <g id="line2d_25">
      <path d="M 54.3 381.283089 
L 390.96 381.283089 
" clip-path="url(#p89250df65d)" style="fill: none; stroke: #cccccc; stroke-width: 0.8; stroke-linecap: round"/>
     </g>
     <g id="text_26">
      <!-- 500 -->
      <g style="fill: #262626" transform="translate(29.203 384.626401)scale(0.088 -0.088)">
       <use xlink:href="#DejaVuSans-35"/>
       <use xlink:href="#DejaVuSans-30" x="63.623047"/>
       <use xlink:href="#DejaVuSans-30" x="127.246094"/>
      </g>
     </g>
    </g>
    <g id="ytick_7">
     <g id="line2d_26">
      <path d="M 54.3 359.043707 
L 390.96 359.043707 
" clip-path="url(#p89250df65d)" style="fill: none; stroke: #cccccc; stroke-width: 0.8; stroke-linecap: round"/>
     </g>
     <g id="text_27">
      <!-- 600 -->
      <g style="fill: #262626" transform="translate(29.203 362.387019)scale(0.088 -0.088)">
       <use xlink:href="#DejaVuSans-36"/>
       <use xlink:href="#DejaVuSans-30" x="63.623047"/>
       <use xlink:href="#DejaVuSans-30" x="127.246094"/>
      </g>
     </g>
    </g>
    <g id="ytick_8">
     <g id="line2d_27">
      <path d="M 54.3 336.804324 
L 390.96 336.804324 
" clip-path="url(#p89250df65d)" style="fill: none; stroke: #cccccc; stroke-width: 0.8; stroke-linecap: round"/>
     </g>
     <g id="text_28">
      <!-- 700 -->
      <g style="fill: #262626" transform="translate(29.203 340.147637)scale(0.088 -0.088)">
       <use xlink:href="#DejaVuSans-37"/>
       <use xlink:href="#DejaVuSans-30" x="63.623047"/>
       <use xlink:href="#DejaVuSans-30" x="127.246094"/>
      </g>
     </g>
    </g>
    <g id="ytick_9">
     <g id="line2d_28">
      <path d="M 54.3 314.564942 
L 390.96 314.564942 
" clip-path="url(#p89250df65d)" style="fill: none; stroke: #cccccc; stroke-width: 0.8; stroke-linecap: round"/>
     </g>
     <g id="text_29">
      <!-- 800 -->
      <g style="fill: #262626" transform="translate(29.203 317.908255)scale(0.088 -0.088)">
       <use xlink:href="#DejaVuSans-38"/>
       <use xlink:href="#DejaVuSans-30" x="63.623047"/>
       <use xlink:href="#DejaVuSans-30" x="127.246094"/>
      </g>
     </g>
    </g>
    <g id="ytick_10">
     <g id="line2d_29">
      <path d="M 54.3 292.32556 
L 390.96 292.32556 
" clip-path="url(#p89250df65d)" style="fill: none; stroke: #cccccc; stroke-width: 0.8; stroke-linecap: round"/>
     </g>
     <g id="text_30">
      <!-- 900 -->
      <g style="fill: #262626" transform="translate(29.203 295.668872)scale(0.088 -0.088)">
       <use xlink:href="#DejaVuSans-39"/>
       <use xlink:href="#DejaVuSans-30" x="63.623047"/>
       <use xlink:href="#DejaVuSans-30" x="127.246094"/>
      </g>
     </g>
    </g>
    <g id="ytick_11">
     <g id="line2d_30">
      <path d="M 54.3 270.086178 
L 390.96 270.086178 
" clip-path="url(#p89250df65d)" style="fill: none; stroke: #cccccc; stroke-width: 0.8; stroke-linecap: round"/>
     </g>
     <g id="text_31">
      <!-- 1000 -->
      <g style="fill: #262626" transform="translate(23.604 273.42949)scale(0.088 -0.088)">
       <use xlink:href="#DejaVuSans-31"/>
       <use xlink:href="#DejaVuSans-30" x="63.623047"/>
       <use xlink:href="#DejaVuSans-30" x="127.246094"/>
       <use xlink:href="#DejaVuSans-30" x="190.869141"/>
      </g>
     </g>
    </g>
    <g id="ytick_12">
     <g id="line2d_31">
      <path d="M 54.3 247.846795 
L 390.96 247.846795 
" clip-path="url(#p89250df65d)" style="fill: none; stroke: #cccccc; stroke-width: 0.8; stroke-linecap: round"/>
     </g>
     <g id="text_32">
      <!-- 1100 -->
      <g style="fill: #262626" transform="translate(23.604 251.190108)scale(0.088 -0.088)">
       <use xlink:href="#DejaVuSans-31"/>
       <use xlink:href="#DejaVuSans-31" x="63.623047"/>
       <use xlink:href="#DejaVuSans-30" x="127.246094"/>
       <use xlink:href="#DejaVuSans-30" x="190.869141"/>
      </g>
     </g>
    </g>
    <g id="ytick_13">
     <g id="line2d_32">
      <path d="M 54.3 225.607413 
L 390.96 225.607413 
" clip-path="url(#p89250df65d)" style="fill: none; stroke: #cccccc; stroke-width: 0.8; stroke-linecap: round"/>
     </g>
     <g id="text_33">
      <!-- 1200 -->
      <g style="fill: #262626" transform="translate(23.604 228.950726)scale(0.088 -0.088)">
       <use xlink:href="#DejaVuSans-31"/>
       <use xlink:href="#DejaVuSans-32" x="63.623047"/>
       <use xlink:href="#DejaVuSans-30" x="127.246094"/>
       <use xlink:href="#DejaVuSans-30" x="190.869141"/>
      </g>
     </g>
    </g>
    <g id="ytick_14">
     <g id="line2d_33">
      <path d="M 54.3 203.368031 
L 390.96 203.368031 
" clip-path="url(#p89250df65d)" style="fill: none; stroke: #cccccc; stroke-width: 0.8; stroke-linecap: round"/>
     </g>
     <g id="text_34">
      <!-- 1300 -->
      <g style="fill: #262626" transform="translate(23.604 206.711343)scale(0.088 -0.088)">
       <use xlink:href="#DejaVuSans-31"/>
       <use xlink:href="#DejaVuSans-33" x="63.623047"/>
       <use xlink:href="#DejaVuSans-30" x="127.246094"/>
       <use xlink:href="#DejaVuSans-30" x="190.869141"/>
      </g>
     </g>
    </g>
    <g id="ytick_15">
     <g id="line2d_34">
      <path d="M 54.3 181.128649 
L 390.96 181.128649 
" clip-path="url(#p89250df65d)" style="fill: none; stroke: #cccccc; stroke-width: 0.8; stroke-linecap: round"/>
     </g>
     <g id="text_35">
      <!-- 1400 -->
      <g style="fill: #262626" transform="translate(23.604 184.471961)scale(0.088 -0.088)">
       <use xlink:href="#DejaVuSans-31"/>
       <use xlink:href="#DejaVuSans-34" x="63.623047"/>
       <use xlink:href="#DejaVuSans-30" x="127.246094"/>
       <use xlink:href="#DejaVuSans-30" x="190.869141"/>
      </g>
     </g>
    </g>
    <g id="ytick_16">
     <g id="line2d_35">
      <path d="M 54.3 158.889266 
L 390.96 158.889266 
" clip-path="url(#p89250df65d)" style="fill: none; stroke: #cccccc; stroke-width: 0.8; stroke-linecap: round"/>
     </g>
     <g id="text_36">
      <!-- 1500 -->
      <g style="fill: #262626" transform="translate(23.604 162.232579)scale(0.088 -0.088)">
       <use xlink:href="#DejaVuSans-31"/>
       <use xlink:href="#DejaVuSans-35" x="63.623047"/>
       <use xlink:href="#DejaVuSans-30" x="127.246094"/>
       <use xlink:href="#DejaVuSans-30" x="190.869141"/>
      </g>
     </g>
    </g>
    <g id="ytick_17">
     <g id="line2d_36">
      <path d="M 54.3 136.649884 
L 390.96 136.649884 
" clip-path="url(#p89250df65d)" style="fill: none; stroke: #cccccc; stroke-width: 0.8; stroke-linecap: round"/>
     </g>
     <g id="text_37">
      <!-- 1600 -->
      <g style="fill: #262626" transform="translate(23.604 139.993197)scale(0.088 -0.088)">
       <use xlink:href="#DejaVuSans-31"/>
       <use xlink:href="#DejaVuSans-36" x="63.623047"/>
       <use xlink:href="#DejaVuSans-30" x="127.246094"/>
       <use xlink:href="#DejaVuSans-30" x="190.869141"/>
      </g>
     </g>
    </g>
    <g id="ytick_18">
     <g id="line2d_37">
      <path d="M 54.3 114.410502 
L 390.96 114.410502 
" clip-path="url(#p89250df65d)" style="fill: none; stroke: #cccccc; stroke-width: 0.8; stroke-linecap: round"/>
     </g>
     <g id="text_38">
      <!-- 1700 -->
      <g style="fill: #262626" transform="translate(23.604 117.753814)scale(0.088 -0.088)">
       <use xlink:href="#DejaVuSans-31"/>
       <use xlink:href="#DejaVuSans-37" x="63.623047"/>
       <use xlink:href="#DejaVuSans-30" x="127.246094"/>
       <use xlink:href="#DejaVuSans-30" x="190.869141"/>
      </g>
     </g>
    </g>
    <g id="ytick_19">
     <g id="line2d_38">
      <path d="M 54.3 92.17112 
L 390.96 92.17112 
" clip-path="url(#p89250df65d)" style="fill: none; stroke: #cccccc; stroke-width: 0.8; stroke-linecap: round"/>
     </g>
     <g id="text_39">
      <!-- 1800 -->
      <g style="fill: #262626" transform="translate(23.604 95.514432)scale(0.088 -0.088)">
       <use xlink:href="#DejaVuSans-31"/>
       <use xlink:href="#DejaVuSans-38" x="63.623047"/>
       <use xlink:href="#DejaVuSans-30" x="127.246094"/>
       <use xlink:href="#DejaVuSans-30" x="190.869141"/>
      </g>
     </g>
    </g>
    <g id="text_40">
     <!-- Edge Coverages -->
     <g style="fill: #262626" transform="translate(17.6075 329.98575)rotate(-90)scale(0.096 -0.096)">
      <defs>
       <path id="DejaVuSans-45" d="M 628 4666 
L 3578 4666 
L 3578 4134 
L 1259 4134 
L 1259 2753 
L 3481 2753 
L 3481 2222 
L 1259 2222 
L 1259 531 
L 3634 531 
L 3634 0 
L 628 0 
L 628 4666 
z
" transform="scale(0.015625)"/>
       <path id="DejaVuSans-64" d="M 2906 2969 
L 2906 4863 
L 3481 4863 
L 3481 0 
L 2906 0 
L 2906 525 
Q 2725 213 2448 61 
Q 2172 -91 1784 -91 
Q 1150 -91 751 415 
Q 353 922 353 1747 
Q 353 2572 751 3078 
Q 1150 3584 1784 3584 
Q 2172 3584 2448 3432 
Q 2725 3281 2906 2969 
z
M 947 1747 
Q 947 1113 1208 752 
Q 1469 391 1925 391 
Q 2381 391 2643 752 
Q 2906 1113 2906 1747 
Q 2906 2381 2643 2742 
Q 2381 3103 1925 3103 
Q 1469 3103 1208 2742 
Q 947 2381 947 1747 
z
" transform="scale(0.015625)"/>
       <path id="DejaVuSans-67" d="M 2906 1791 
Q 2906 2416 2648 2759 
Q 2391 3103 1925 3103 
Q 1463 3103 1205 2759 
Q 947 2416 947 1791 
Q 947 1169 1205 825 
Q 1463 481 1925 481 
Q 2391 481 2648 825 
Q 2906 1169 2906 1791 
z
M 3481 434 
Q 3481 -459 3084 -895 
Q 2688 -1331 1869 -1331 
Q 1566 -1331 1297 -1286 
Q 1028 -1241 775 -1147 
L 775 -588 
Q 1028 -725 1275 -790 
Q 1522 -856 1778 -856 
Q 2344 -856 2625 -561 
Q 2906 -266 2906 331 
L 2906 616 
Q 2728 306 2450 153 
Q 2172 0 1784 0 
Q 1141 0 747 490 
Q 353 981 353 1791 
Q 353 2603 747 3093 
Q 1141 3584 1784 3584 
Q 2172 3584 2450 3431 
Q 2728 3278 2906 2969 
L 2906 3500 
L 3481 3500 
L 3481 434 
z
" transform="scale(0.015625)"/>
       <path id="DejaVuSans-43" d="M 4122 4306 
L 4122 3641 
Q 3803 3938 3442 4084 
Q 3081 4231 2675 4231 
Q 1875 4231 1450 3742 
Q 1025 3253 1025 2328 
Q 1025 1406 1450 917 
Q 1875 428 2675 428 
Q 3081 428 3442 575 
Q 3803 722 4122 1019 
L 4122 359 
Q 3791 134 3420 21 
Q 3050 -91 2638 -91 
Q 1578 -91 968 557 
Q 359 1206 359 2328 
Q 359 3453 968 4101 
Q 1578 4750 2638 4750 
Q 3056 4750 3426 4639 
Q 3797 4528 4122 4306 
z
" transform="scale(0.015625)"/>
       <path id="DejaVuSans-6f" d="M 1959 3097 
Q 1497 3097 1228 2736 
Q 959 2375 959 1747 
Q 959 1119 1226 758 
Q 1494 397 1959 397 
Q 2419 397 2687 759 
Q 2956 1122 2956 1747 
Q 2956 2369 2687 2733 
Q 2419 3097 1959 3097 
z
M 1959 3584 
Q 2709 3584 3137 3096 
Q 3566 2609 3566 1747 
Q 3566 888 3137 398 
Q 2709 -91 1959 -91 
Q 1206 -91 779 398 
Q 353 888 353 1747 
Q 353 2609 779 3096 
Q 1206 3584 1959 3584 
z
" transform="scale(0.015625)"/>
       <path id="DejaVuSans-76" d="M 191 3500 
L 800 3500 
L 1894 563 
L 2988 3500 
L 3597 3500 
L 2284 0 
L 1503 0 
L 191 3500 
z
" transform="scale(0.015625)"/>
       <path id="DejaVuSans-72" d="M 2631 2963 
Q 2534 3019 2420 3045 
Q 2306 3072 2169 3072 
Q 1681 3072 1420 2755 
Q 1159 2438 1159 1844 
L 1159 0 
L 581 0 
L 581 3500 
L 1159 3500 
L 1159 2956 
Q 1341 3275 1631 3429 
Q 1922 3584 2338 3584 
Q 2397 3584 2469 3576 
Q 2541 3569 2628 3553 
L 2631 2963 
z
" transform="scale(0.015625)"/>
       <path id="DejaVuSans-61" d="M 2194 1759 
Q 1497 1759 1228 1600 
Q 959 1441 959 1056 
Q 959 750 1161 570 
Q 1363 391 1709 391 
Q 2188 391 2477 730 
Q 2766 1069 2766 1631 
L 2766 1759 
L 2194 1759 
z
M 3341 1997 
L 3341 0 
L 2766 0 
L 2766 531 
Q 2569 213 2275 61 
Q 1981 -91 1556 -91 
Q 1019 -91 701 211 
Q 384 513 384 1019 
Q 384 1609 779 1909 
Q 1175 2209 1959 2209 
L 2766 2209 
L 2766 2266 
Q 2766 2663 2505 2880 
Q 2244 3097 1772 3097 
Q 1472 3097 1187 3025 
Q 903 2953 641 2809 
L 641 3341 
Q 956 3463 1253 3523 
Q 1550 3584 1831 3584 
Q 2591 3584 2966 3190 
Q 3341 2797 3341 1997 
z
" transform="scale(0.015625)"/>
      </defs>
      <use xlink:href="#DejaVuSans-45"/>
      <use xlink:href="#DejaVuSans-64" x="63.183594"/>
      <use xlink:href="#DejaVuSans-67" x="126.660156"/>
      <use xlink:href="#DejaVuSans-65" x="190.136719"/>
      <use xlink:href="#DejaVuSans-20" x="251.660156"/>
      <use xlink:href="#DejaVuSans-43" x="283.447266"/>
      <use xlink:href="#DejaVuSans-6f" x="353.271484"/>
      <use xlink:href="#DejaVuSans-76" x="414.453125"/>
      <use xlink:href="#DejaVuSans-65" x="473.632812"/>
      <use xlink:href="#DejaVuSans-72" x="535.15625"/>
      <use xlink:href="#DejaVuSans-61" x="576.269531"/>
      <use xlink:href="#DejaVuSans-67" x="637.548828"/>
      <use xlink:href="#DejaVuSans-65" x="701.025391"/>
      <use xlink:href="#DejaVuSans-73" x="762.548828"/>
     </g>
    </g>
   </g>
   <g id="PolyCollection_1">
    <defs>
     <path id="me9550f8002" d="M 69.602727 -121.771737 
L 69.602727 -83.52 
L 69.602727 -121.771737 
L 69.602727 -121.771737 
z
" style="stroke: #db5f57; stroke-opacity: 0.2; stroke-width: 0.8"/>
    </defs>
    <g clip-path="url(#p89250df65d)">
     <use xlink:href="#me9550f8002" x="0" y="576" style="fill: #db5f57; fill-opacity: 0.2; stroke: #db5f57; stroke-opacity: 0.2; stroke-width: 0.8"/>
    </g>
   </g>
   <g id="PolyCollection_2">
    <defs>
     <path id="me462f7d990" d="M 69.602727 -122.438919 
L 69.602727 -83.52 
L 69.602727 -122.438919 
L 69.602727 -122.438919 
z
" style="stroke: #b9db57; stroke-opacity: 0.2; stroke-width: 0.8"/>
    </defs>
    <g clip-path="url(#p89250df65d)">
     <use xlink:href="#me462f7d990" x="0" y="576" style="fill: #b9db57; fill-opacity: 0.2; stroke: #b9db57; stroke-opacity: 0.2; stroke-width: 0.8"/>
    </g>
   </g>
   <g id="PolyCollection_3">
    <defs>
     <path id="m3631d0c92c" d="M 69.602727 -106.648958 
L 69.602727 -83.52 
L 69.602727 -106.648958 
L 69.602727 -106.648958 
z
" style="stroke: #57db94; stroke-opacity: 0.2; stroke-width: 0.8"/>
    </defs>
    <g clip-path="url(#p89250df65d)">
     <use xlink:href="#m3631d0c92c" x="0" y="576" style="fill: #57db94; fill-opacity: 0.2; stroke: #57db94; stroke-opacity: 0.2; stroke-width: 0.8"/>
    </g>
   </g>
   <g id="PolyCollection_4">
    <defs>
     <path id="m8662496700" d="M 69.602727 -106.648958 
L 69.602727 -83.52 
L 69.602727 -106.648958 
L 69.602727 -106.648958 
z
" style="stroke: #5784db; stroke-opacity: 0.2; stroke-width: 0.8"/>
    </defs>
    <g clip-path="url(#p89250df65d)">
     <use xlink:href="#m8662496700" x="0" y="576" style="fill: #5784db; fill-opacity: 0.2; stroke: #5784db; stroke-opacity: 0.2; stroke-width: 0.8"/>
    </g>
   </g>
   <g id="PolyCollection_5">
    <defs>
     <path id="m54ababa4ce" d="M 69.602727 -131.557066 
L 69.602727 -83.52 
L 69.602727 -131.557066 
L 69.602727 -131.557066 
z
" style="stroke: #c957db; stroke-opacity: 0.2; stroke-width: 0.8"/>
    </defs>
    <g clip-path="url(#p89250df65d)">
     <use xlink:href="#m54ababa4ce" x="0" y="576" style="fill: #c957db; fill-opacity: 0.2; stroke: #c957db; stroke-opacity: 0.2; stroke-width: 0.8"/>
    </g>
   </g>
   <g id="line2d_39">
    <path d="M 69.602727 473.354131 
L 70.879728 319.902394 
L 71.092562 317.233668 
L 71.305395 297.663012 
L 71.518229 294.549498 
L 71.731062 283.652201 
L 72.156729 277.869961 
L 72.369563 276.757992 
L 72.582396 268.529421 
L 72.795229 267.195058 
L 73.43373 258.744093 
L 73.859397 248.513977 
L 74.07223 245.622857 
L 74.285064 240.952587 
L 74.710731 226.719382 
L 74.923564 222.271506 
L 75.562065 216.934054 
L 75.987732 211.374208 
L 76.200565 209.817452 
L 76.413399 209.595058 
L 76.626232 209.15027 
L 76.839066 207.815907 
L 77.264733 204.48 
L 77.477566 204.48 
L 77.6904 204.035212 
L 77.903233 202.700849 
L 78.754567 194.917066 
L 78.9674 194.694672 
L 79.393067 193.360309 
L 79.605901 191.581158 
L 79.818734 191.136371 
L 80.031568 188.467645 
L 80.882902 185.354131 
L 81.308569 183.797375 
L 81.947069 181.351042 
L 82.159903 181.351042 
L 82.372736 180.461467 
L 82.58557 180.239073 
L 83.22407 176.903166 
L 83.436904 176.903166 
L 83.649737 175.568803 
L 83.86257 175.346409 
L 84.288237 173.122471 
L 84.713904 172.677683 
L 84.926738 172.677683 
L 85.565238 171.34332 
L 85.778072 171.34332 
L 86.416572 169.56417 
L 86.629406 169.119382 
L 86.842239 167.785019 
L 87.267906 167.340232 
L 87.906407 165.783475 
L 88.11924 164.449112 
L 88.544907 164.449112 
L 88.757741 162.225174 
L 88.970574 162.225174 
L 89.183408 162.00278 
L 89.396241 161.557992 
L 89.609074 160.001236 
L 89.821908 160.001236 
L 90.034741 159.778842 
L 90.673242 159.778842 
L 90.886075 159.556448 
L 91.311742 158.889266 
L 91.524576 158.666873 
L 91.950243 157.554903 
L 92.163076 156.220541 
L 92.37591 155.998147 
L 92.588743 155.330965 
L 92.801577 155.108571 
L 93.01441 153.996602 
L 93.227244 153.774208 
L 93.440077 153.329421 
L 93.652911 153.329421 
L 94.078578 151.772664 
L 94.291411 151.772664 
L 94.504245 151.55027 
L 94.717078 151.55027 
L 95.355578 150.883089 
L 95.994079 149.77112 
L 96.206912 149.77112 
L 96.419746 149.326332 
L 96.632579 149.326332 
L 96.845413 149.103938 
L 97.058246 148.659151 
L 97.27108 148.659151 
L 97.483913 148.436757 
L 97.696747 147.769575 
L 98.335247 147.769575 
L 99.399415 146.657606 
L 100.250749 146.657606 
L 100.463582 146.435212 
L 100.676415 145.990425 
L 101.953416 145.990425 
L 102.16625 145.768031 
L 102.591917 145.768031 
L 102.80475 145.545637 
L 103.443251 145.545637 
L 103.656084 145.323243 
L 103.868918 145.323243 
L 104.081751 145.100849 
L 104.933085 145.100849 
L 105.145919 144.211274 
L 105.358752 143.98888 
L 105.571586 143.98888 
L 105.784419 143.544093 
L 105.997252 143.544093 
L 106.422919 142.654517 
L 106.635753 142.654517 
L 107.274253 140.875367 
L 107.487087 140.875367 
L 107.912754 140.430579 
L 108.125587 140.430579 
L 108.338421 140.208185 
L 109.402588 140.208185 
L 109.615422 139.985792 
L 111.31809 139.985792 
L 111.530923 139.763398 
L 112.807924 139.763398 
L 113.020757 139.541004 
L 113.446424 139.541004 
L 113.872091 139.096216 
L 114.936259 139.096216 
L 115.149092 138.873822 
L 115.787593 138.873822 
L 116.000426 138.429035 
L 116.638927 138.429035 
L 116.85176 138.206641 
L 117.49026 138.206641 
L 117.703094 137.984247 
L 122.172597 137.984247 
L 122.385431 137.761853 
L 125.365099 137.761853 
L 125.577933 137.317066 
L 125.790766 137.317066 
L 126.0036 137.094672 
L 127.706268 137.094672 
L 127.919101 136.872278 
L 130.047436 136.872278 
L 130.260269 136.649884 
L 130.685936 136.649884 
L 130.89877 136.42749 
L 131.111603 136.42749 
L 131.324437 136.205097 
L 131.962937 136.205097 
L 132.388604 135.537915 
L 133.027105 135.537915 
L 133.239938 135.315521 
L 134.091272 135.315521 
L 134.304105 135.093127 
L 134.729772 135.093127 
L 134.942606 134.870734 
L 135.581106 134.870734 
L 135.79394 132.646795 
L 136.006773 132.646795 
L 136.858107 131.090039 
L 137.496608 131.090039 
L 137.922275 130.645251 
L 138.347942 129.978069 
L 138.986442 129.978069 
L 139.199276 129.755676 
L 140.68911 129.755676 
L 140.901943 129.533282 
L 143.881612 129.533282 
L 144.307279 128.8661 
L 144.945779 128.8661 
L 145.158613 128.421313 
L 145.58428 128.421313 
L 145.797113 128.198919 
L 147.286948 128.198919 
L 147.499781 127.754131 
L 147.712615 127.754131 
L 147.925448 127.08695 
L 148.563949 127.08695 
L 148.776782 126.642162 
L 153.033452 126.642162 
L 153.246285 126.419768 
L 154.310453 126.419768 
L 154.523286 126.197375 
L 154.73612 126.197375 
L 154.948953 125.974981 
L 155.800287 125.974981 
L 156.01312 125.752587 
L 156.651621 125.752587 
L 156.864454 125.530193 
L 158.141455 125.530193 
L 158.354289 125.307799 
L 161.333958 125.307799 
L 161.546791 125.085405 
L 161.759624 124.418224 
L 162.398125 123.751042 
L 164.313626 123.751042 
L 164.52646 123.528649 
L 164.739293 123.528649 
L 164.952127 123.083861 
L 167.718962 123.083861 
L 167.931795 122.861467 
L 173.039799 122.861467 
L 173.252632 122.639073 
L 174.3168 122.639073 
L 174.742467 122.194286 
L 182.404472 122.194286 
L 182.617306 121.971892 
L 185.596974 121.971892 
L 185.809808 121.749498 
L 188.36381 121.749498 
L 188.576643 121.527104 
L 188.789477 121.527104 
L 189.00231 121.30471 
L 190.279311 121.30471 
L 190.492144 121.082317 
L 190.917811 121.082317 
L 191.130645 120.859923 
L 193.25898 120.859923 
L 193.684647 120.192741 
L 194.961647 120.192741 
L 195.174481 119.970347 
L 196.025815 119.970347 
L 196.451482 119.52556 
L 196.664315 119.52556 
L 196.877149 119.303166 
L 197.089982 119.303166 
L 197.515649 118.858378 
L 198.579817 118.858378 
L 198.79265 118.635985 
L 199.643984 118.635985 
L 199.856818 118.413591 
L 201.772319 118.413591 
L 201.985152 117.968803 
L 202.197986 117.968803 
L 202.410819 117.524015 
L 204.751988 117.524015 
L 204.964821 117.301622 
L 206.454655 117.301622 
L 206.667489 117.079228 
L 207.731656 117.079228 
L 207.94449 116.856834 
L 227.52517 116.856834 
L 227.738004 116.63444 
L 236.038509 116.63444 
L 236.251343 116.412046 
L 239.869512 116.412046 
L 240.082345 116.189653 
L 242.423514 116.189653 
L 242.636347 115.967259 
L 259.875859 115.967259 
L 260.301526 115.522471 
L 260.51436 115.522471 
L 260.727193 115.300077 
L 267.325031 115.300077 
L 267.537864 115.077683 
L 269.666199 115.077683 
L 269.879033 114.85529 
L 276.902538 114.85529 
L 277.115371 114.632896 
L 277.541038 114.632896 
L 277.753872 114.410502 
L 282.223375 114.410502 
L 282.436208 114.188108 
L 284.777376 114.188108 
L 284.99021 113.965714 
L 335.006078 113.965714 
L 335.218911 113.74332 
L 342.45525 113.74332 
L 342.668083 113.520927 
L 348.840254 113.520927 
L 349.053088 113.298533 
L 352.032756 113.298533 
L 352.458423 112.853745 
L 354.373925 112.853745 
L 354.586758 112.631351 
L 355.225259 112.631351 
L 355.438092 112.408958 
L 359.694762 112.408958 
L 359.907595 111.96417 
L 361.184596 111.96417 
L 361.39743 111.741776 
L 368.208101 111.741776 
L 368.420934 111.519382 
L 375.657273 111.519382 
L 375.657273 111.519382 
" clip-path="url(#p89250df65d)" style="fill: none; stroke: #db5f57; stroke-width: 1.2; stroke-linecap: round"/>
   </g>
   <g id="line2d_40">
    <path d="M 69.602727 473.020541 
L 70.454061 362.602008 
L 70.666895 357.931737 
L 70.879728 331.244479 
L 71.092562 324.35027 
L 71.305395 309.894672 
L 71.731062 300.998919 
L 72.156729 293.215135 
L 72.369563 288.544865 
L 72.795229 283.207413 
L 73.008063 279.204324 
L 73.220896 278.092355 
L 73.646563 266.305483 
L 74.285064 255.408185 
L 74.710731 246.290039 
L 74.923564 244.288494 
L 75.136398 239.173436 
L 75.349231 237.394286 
L 75.562065 236.949498 
L 75.774898 235.615135 
L 76.200565 232.279228 
L 76.413399 231.389653 
L 76.626232 231.167259 
L 77.264733 228.94332 
L 77.477566 228.94332 
L 77.6904 228.276139 
L 77.903233 228.053745 
L 78.116067 224.940232 
L 78.3289 224.050656 
L 78.754567 219.380386 
L 79.605901 214.710116 
L 80.031568 212.930965 
L 80.244401 212.708571 
L 80.670068 209.595058 
L 81.095735 208.483089 
L 82.372736 208.483089 
L 82.58557 205.369575 
L 82.798403 204.924788 
L 83.011237 203.145637 
L 83.22407 203.145637 
L 83.649737 202.033668 
L 84.501071 200.476911 
L 84.713904 200.254517 
L 85.139571 199.364942 
L 85.352405 199.364942 
L 85.565238 198.475367 
L 85.778072 198.475367 
L 86.203739 198.030579 
L 87.055073 195.584247 
L 87.267906 195.361853 
L 87.906407 193.582703 
L 88.757741 192.025946 
L 89.183408 191.581158 
L 89.396241 191.581158 
L 89.609074 189.802008 
L 90.034741 189.35722 
L 91.524576 189.35722 
L 91.737409 189.134826 
L 91.950243 188.467645 
L 92.163076 186.021313 
L 92.37591 185.354131 
L 92.588743 185.354131 
L 93.01441 184.68695 
L 93.227244 184.464556 
L 93.440077 184.464556 
L 94.078578 182.463012 
L 94.504245 182.463012 
L 94.929911 182.018224 
L 97.058246 182.018224 
L 97.27108 181.128649 
L 98.760914 181.128649 
L 98.973748 180.906255 
L 112.59509 180.906255 
L 112.807924 173.567259 
L 123.449598 173.567259 
L 123.662431 172.232896 
L 124.513765 172.232896 
L 124.939432 171.565714 
L 130.89877 171.565714 
L 131.111603 170.008958 
L 131.750104 170.008958 
L 132.175771 169.341776 
L 132.388604 169.341776 
L 132.814271 168.896988 
L 133.665605 168.896988 
L 133.878438 168.452201 
L 137.283774 168.452201 
L 137.496608 165.783475 
L 139.412109 165.783475 
L 139.624942 164.449112 
L 139.837776 164.226718 
L 140.050609 164.226718 
L 140.263443 164.004324 
L 144.094446 164.004324 
L 144.520113 163.559537 
L 144.732946 163.559537 
L 145.158613 162.892355 
L 145.797113 162.892355 
L 146.009947 162.447568 
L 147.286948 162.447568 
L 147.925448 161.335598 
L 148.351115 161.335598 
L 148.563949 161.113205 
L 149.628116 161.113205 
L 149.84095 160.890811 
L 153.033452 160.890811 
L 153.246285 160.668417 
L 154.097619 160.668417 
L 154.310453 160.446023 
L 154.73612 160.446023 
L 154.948953 160.223629 
L 155.587454 160.223629 
L 155.800287 160.001236 
L 158.141455 160.001236 
L 158.567122 159.556448 
L 160.908291 159.556448 
L 161.333958 158.666873 
L 161.546791 158.666873 
L 161.759624 157.999691 
L 161.972458 157.999691 
L 162.398125 157.554903 
L 164.313626 157.554903 
L 164.739293 157.110116 
L 164.952127 156.665328 
L 167.506128 156.665328 
L 167.718962 156.442934 
L 183.894306 156.442934 
L 184.10714 155.998147 
L 186.448308 155.998147 
L 186.661142 155.775753 
L 186.873975 155.775753 
L 187.086809 155.553359 
L 188.36381 155.553359 
L 188.576643 155.330965 
L 189.00231 155.330965 
L 189.215144 155.108571 
L 190.066477 155.108571 
L 190.279311 154.886178 
L 190.917811 154.886178 
L 191.343478 154.44139 
L 193.25898 154.44139 
L 193.684647 153.774208 
L 194.535981 153.774208 
L 194.748814 153.551815 
L 195.174481 153.551815 
L 195.387314 153.329421 
L 221.352999 153.329421 
L 221.565833 152.217452 
L 222.63 152.217452 
L 222.842833 151.995058 
L 229.015004 151.995058 
L 229.227838 151.772664 
L 229.440671 151.772664 
L 229.653505 151.55027 
L 239.869512 151.55027 
L 240.082345 151.327876 
L 242.21068 151.327876 
L 242.423514 151.105483 
L 249.447019 151.105483 
L 249.659852 150.883089 
L 251.149686 150.883089 
L 251.36252 150.660695 
L 259.875859 150.660695 
L 260.301526 150.215907 
L 260.51436 150.215907 
L 260.727193 149.993514 
L 267.325031 149.993514 
L 267.537864 149.77112 
L 270.517533 149.77112 
L 270.730367 149.548726 
L 334.367577 149.548726 
L 334.580411 149.103938 
L 342.242416 149.103938 
L 342.45525 148.881544 
L 348.627421 148.881544 
L 348.840254 148.659151 
L 350.542922 148.659151 
L 350.755755 148.436757 
L 352.032756 148.436757 
L 352.24559 147.991969 
L 354.161091 147.991969 
L 354.586758 147.547181 
L 360.333262 147.547181 
L 360.546096 147.324788 
L 364.802765 147.324788 
L 365.015599 147.102394 
L 368.208101 147.102394 
L 368.420934 146.88 
L 369.485102 146.88 
L 369.697935 146.657606 
L 375.657273 146.657606 
L 375.657273 146.657606 
" clip-path="url(#p89250df65d)" style="fill: none; stroke: #b9db57; stroke-width: 1.2; stroke-linecap: round"/>
   </g>
   <g id="line2d_41">
    <path d="M 69.602727 480.915521 
L 70.241228 395.071506 
L 70.454061 381.060695 
L 70.879728 377.502394 
L 71.092562 367.049884 
L 71.518229 359.933282 
L 72.156729 354.59583 
L 72.582396 342.36417 
L 72.795229 341.919382 
L 73.008063 340.585019 
L 73.220896 337.6939 
L 74.285064 333.468417 
L 74.710731 231.167259 
L 75.136398 230.500077 
L 75.562065 230.500077 
L 75.774898 230.277683 
L 75.987732 210.707027 
L 76.200565 210.484633 
L 76.626232 210.484633 
L 76.839066 208.705483 
L 77.903233 208.705483 
L 78.116067 208.483089 
L 78.3289 208.483089 
L 78.541733 197.585792 
L 78.754567 196.696216 
L 79.180234 196.251429 
L 79.393067 195.806641 
L 79.605901 195.806641 
L 79.818734 190.691583 
L 80.031568 190.469189 
L 80.457235 190.469189 
L 80.670068 190.246795 
L 81.095735 190.246795 
L 81.308569 184.019768 
L 81.521402 183.130193 
L 81.734236 183.130193 
L 81.947069 181.573436 
L 82.372736 181.573436 
L 82.58557 181.351042 
L 83.22407 180.239073 
L 83.436904 177.12556 
L 83.86257 177.12556 
L 84.075404 174.456834 
L 84.288237 174.456834 
L 84.501071 173.344865 
L 84.926738 173.344865 
L 85.139571 172.900077 
L 85.352405 172.900077 
L 85.565238 172.232896 
L 85.778072 172.232896 
L 85.990905 171.34332 
L 86.203739 171.34332 
L 86.629406 170.676139 
L 86.842239 168.452201 
L 87.055073 168.229807 
L 87.267906 168.229807 
L 88.11924 166.228263 
L 88.332074 165.561081 
L 88.544907 165.338687 
L 88.757741 165.338687 
L 88.970574 161.335598 
L 89.396241 161.335598 
L 89.821908 160.668417 
L 90.034741 158.889266 
L 90.460408 158.889266 
L 90.673242 158.222085 
L 90.886075 158.222085 
L 91.311742 157.777297 
L 91.524576 157.777297 
L 91.737409 156.442934 
L 92.37591 156.442934 
L 92.588743 156.220541 
L 93.01441 156.220541 
L 93.227244 154.44139 
L 93.652911 154.44139 
L 93.865744 152.884633 
L 94.291411 152.884633 
L 94.504245 152.217452 
L 94.717078 152.217452 
L 94.929911 151.995058 
L 95.142745 151.995058 
L 95.355578 151.55027 
L 95.781245 151.55027 
L 95.994079 150.883089 
L 96.206912 150.883089 
L 96.419746 150.660695 
L 96.845413 150.660695 
L 97.058246 150.215907 
L 97.483913 150.215907 
L 97.696747 149.326332 
L 98.335247 149.326332 
L 98.760914 148.659151 
L 99.399415 148.659151 
L 99.612248 147.769575 
L 100.250749 147.769575 
L 100.676415 147.324788 
L 102.16625 147.324788 
L 102.379083 147.102394 
L 103.230417 147.102394 
L 103.443251 146.435212 
L 103.656084 146.435212 
L 103.868918 146.212819 
L 105.358752 146.212819 
L 105.571586 145.990425 
L 105.784419 145.990425 
L 105.997252 143.766486 
L 106.210086 143.099305 
L 107.274253 143.099305 
L 107.487087 142.876911 
L 107.912754 142.876911 
L 108.125587 139.985792 
L 108.764088 139.985792 
L 109.189755 139.541004 
L 110.253922 139.541004 
L 110.466756 139.31861 
L 111.530923 139.31861 
L 111.743756 138.873822 
L 112.807924 138.873822 
L 113.020757 138.429035 
L 114.084925 138.429035 
L 114.297758 137.984247 
L 115.149092 137.984247 
L 115.361926 137.761853 
L 116.000426 137.761853 
L 116.426093 137.317066 
L 116.638927 137.317066 
L 116.85176 137.094672 
L 117.064594 136.42749 
L 117.49026 136.42749 
L 117.703094 136.205097 
L 119.192928 136.205097 
L 119.405762 135.982703 
L 130.260269 135.982703 
L 130.473103 135.093127 
L 131.324437 135.093127 
L 131.53727 134.64834 
L 131.962937 134.64834 
L 132.388604 134.203552 
L 135.79394 134.203552 
L 136.006773 133.981158 
L 136.645274 133.981158 
L 136.858107 130.422857 
L 137.922275 130.422857 
L 138.135108 129.755676 
L 138.347942 129.755676 
L 138.560775 129.533282 
L 138.773609 129.533282 
L 139.199276 128.8661 
L 142.391778 128.8661 
L 142.604611 128.643707 
L 144.094446 128.643707 
L 144.307279 128.198919 
L 144.945779 128.198919 
L 145.158613 127.754131 
L 145.371446 127.754131 
L 145.797113 127.08695 
L 147.074114 127.08695 
L 147.286948 126.864556 
L 147.712615 126.864556 
L 147.925448 126.197375 
L 148.138282 125.974981 
L 148.563949 125.974981 
L 148.776782 125.530193 
L 148.989616 125.530193 
L 149.202449 125.085405 
L 151.330784 125.085405 
L 151.543617 124.863012 
L 154.523286 124.863012 
L 154.73612 124.640618 
L 155.161787 124.640618 
L 155.37462 124.418224 
L 156.651621 124.418224 
L 156.864454 124.19583 
L 157.502955 124.19583 
L 157.715788 123.973436 
L 158.141455 123.973436 
L 158.354289 123.751042 
L 159.844123 123.751042 
L 160.056957 123.528649 
L 160.26979 123.528649 
L 160.482624 123.306255 
L 161.333958 123.306255 
L 161.546791 122.861467 
L 162.823792 122.861467 
L 163.036625 121.749498 
L 164.952127 121.749498 
L 165.16496 121.527104 
L 167.931795 121.527104 
L 168.144629 121.082317 
L 196.451482 121.082317 
L 196.664315 119.080772 
L 198.79265 119.080772 
L 199.005484 118.635985 
L 199.431151 118.635985 
L 199.643984 118.413591 
L 201.985152 118.413591 
L 202.197986 117.968803 
L 229.653505 117.968803 
L 229.866338 117.079228 
L 230.079172 117.079228 
L 230.292005 116.856834 
L 236.251343 116.856834 
L 236.464176 116.63444 
L 236.67701 116.63444 
L 236.889843 115.967259 
L 240.295179 115.967259 
L 240.508012 115.744865 
L 282.436208 115.744865 
L 282.649042 113.965714 
L 296.270384 113.965714 
L 296.483218 113.298533 
L 297.121718 113.298533 
L 297.334552 113.076139 
L 299.03722 113.076139 
L 299.250053 112.408958 
L 299.462887 112.408958 
L 299.67572 112.186564 
L 299.888554 112.186564 
L 300.101387 111.96417 
L 308.401893 111.96417 
L 308.614726 111.741776 
L 312.871396 111.741776 
L 313.084229 111.519382 
L 316.915232 111.519382 
L 317.128065 111.296988 
L 322.236069 111.296988 
L 322.448903 111.074595 
L 335.218911 111.074595 
L 335.431745 110.852201 
L 337.772913 110.852201 
L 337.985747 110.629807 
L 343.306584 110.629807 
L 343.519417 110.407413 
L 343.732251 110.407413 
L 343.945084 110.185019 
L 349.265921 110.185019 
L 349.478755 109.962625 
L 351.607089 109.962625 
L 351.819923 109.740232 
L 352.032756 109.740232 
L 352.24559 109.295444 
L 354.161091 109.295444 
L 354.373925 109.07305 
L 362.887264 109.07305 
L 363.100097 108.183475 
L 367.143933 108.183475 
L 367.356767 107.961081 
L 367.782434 107.961081 
L 367.995267 107.738687 
L 375.657273 107.738687 
L 375.657273 107.738687 
" clip-path="url(#p89250df65d)" style="fill: none; stroke: #57db94; stroke-width: 1.2; stroke-linecap: round"/>
   </g>
   <g id="line2d_42">
    <path d="M 69.602727 480.915521 
L 70.028394 421.313977 
L 70.241228 404.189653 
L 70.454061 403.300077 
L 71.092562 390.401236 
L 71.518229 387.73251 
L 71.731062 386.620541 
L 71.943896 386.398147 
L 72.156729 385.953359 
L 72.369563 377.057606 
L 72.795229 267.639846 
L 73.646563 267.639846 
L 73.859397 245.400463 
L 74.497897 245.400463 
L 74.710731 226.496988 
L 75.774898 225.385019 
L 75.987732 210.484633 
L 76.200565 209.595058 
L 77.477566 209.595058 
L 77.6904 209.372664 
L 77.903233 208.260695 
L 78.116067 207.815907 
L 78.3289 207.815907 
L 78.541733 207.593514 
L 78.754567 207.593514 
L 78.9674 193.805097 
L 79.180234 193.582703 
L 79.818734 193.582703 
L 80.031568 193.137915 
L 80.244401 185.798919 
L 81.308569 185.798919 
L 81.521402 182.018224 
L 83.011237 182.018224 
L 83.22407 176.903166 
L 84.075404 176.903166 
L 84.288237 172.900077 
L 84.713904 172.232896 
L 84.926738 172.232896 
L 85.352405 171.565714 
L 85.778072 171.565714 
L 85.990905 171.34332 
L 86.203739 171.34332 
L 86.629406 170.898533 
L 86.842239 167.562625 
L 87.906407 167.562625 
L 88.11924 164.449112 
L 88.332074 164.004324 
L 88.544907 164.004324 
L 88.757741 162.225174 
L 89.396241 161.557992 
L 89.609074 160.001236 
L 89.821908 159.778842 
L 91.311742 159.778842 
L 91.737409 157.777297 
L 92.37591 157.777297 
L 92.588743 157.33251 
L 93.227244 157.33251 
L 93.440077 155.330965 
L 93.652911 155.108571 
L 94.078578 155.108571 
L 94.291411 153.996602 
L 94.929911 153.996602 
L 95.142745 153.774208 
L 95.781245 153.774208 
L 95.994079 152.662239 
L 97.27108 152.662239 
L 97.483913 150.883089 
L 98.760914 150.883089 
L 98.973748 150.215907 
L 99.399415 150.215907 
L 99.612248 149.77112 
L 100.037915 149.77112 
L 100.250749 149.326332 
L 100.463582 149.326332 
L 100.676415 149.103938 
L 101.314916 149.103938 
L 101.527749 148.659151 
L 102.16625 148.659151 
L 102.379083 148.214363 
L 103.443251 148.214363 
L 103.656084 147.991969 
L 104.933085 147.991969 
L 105.145919 147.769575 
L 105.358752 146.657606 
L 105.571586 146.657606 
L 105.997252 146.212819 
L 106.635753 146.212819 
L 106.848586 144.878456 
L 107.487087 144.878456 
L 107.69992 144.656062 
L 108.125587 144.656062 
L 108.338421 142.876911 
L 109.615422 142.876911 
L 109.828255 142.432124 
L 110.041089 142.432124 
L 110.253922 142.20973 
L 111.31809 142.20973 
L 111.530923 141.987336 
L 112.59509 141.987336 
L 112.807924 141.764942 
L 113.872091 141.764942 
L 114.297758 141.097761 
L 114.510592 140.875367 
L 114.723425 140.875367 
L 115.149092 140.430579 
L 115.787593 140.430579 
L 116.21326 139.763398 
L 117.277427 139.763398 
L 117.703094 139.31861 
L 119.192928 139.31861 
L 119.618595 138.873822 
L 122.811097 138.873822 
L 123.023931 138.429035 
L 123.449598 138.429035 
L 123.662431 138.206641 
L 123.875265 138.206641 
L 124.088098 137.984247 
L 125.152266 137.984247 
L 125.365099 137.761853 
L 125.577933 137.761853 
L 125.790766 137.539459 
L 126.216433 137.539459 
L 126.429267 137.317066 
L 128.131935 137.317066 
L 128.344768 137.094672 
L 130.473103 137.094672 
L 130.685936 136.872278 
L 131.111603 136.872278 
L 131.324437 136.42749 
L 131.750104 136.42749 
L 131.962937 136.205097 
L 132.388604 136.205097 
L 132.601438 135.982703 
L 134.304105 135.982703 
L 134.516939 135.760309 
L 134.729772 135.760309 
L 134.942606 135.537915 
L 136.006773 135.537915 
L 136.219607 133.313977 
L 136.43244 133.313977 
L 136.645274 132.424402 
L 136.858107 132.424402 
L 137.070941 131.979614 
L 138.135108 131.979614 
L 138.347942 131.312432 
L 138.560775 131.312432 
L 138.773609 131.090039 
L 139.199276 131.090039 
L 139.412109 130.422857 
L 144.094446 130.422857 
L 144.307279 129.978069 
L 144.945779 129.978069 
L 145.158613 129.755676 
L 145.797113 129.755676 
L 146.009947 129.533282 
L 147.712615 129.533282 
L 147.925448 128.643707 
L 148.776782 128.643707 
L 148.989616 128.421313 
L 149.84095 128.421313 
L 150.053783 127.754131 
L 154.097619 127.754131 
L 154.310453 127.531737 
L 156.225954 127.531737 
L 156.438787 127.309344 
L 156.864454 127.309344 
L 157.077288 127.08695 
L 158.354289 127.08695 
L 158.567122 126.864556 
L 161.546791 126.864556 
L 161.759624 126.642162 
L 162.398125 125.530193 
L 164.739293 125.530193 
L 164.952127 125.307799 
L 167.931795 125.307799 
L 168.144629 125.085405 
L 168.357462 125.085405 
L 168.570296 124.863012 
L 173.252632 124.863012 
L 173.465466 124.640618 
L 174.742467 124.640618 
L 174.9553 124.418224 
L 189.00231 124.418224 
L 189.215144 124.19583 
L 190.279311 124.19583 
L 190.492144 123.973436 
L 193.684647 123.973436 
L 193.89748 123.528649 
L 194.323147 123.528649 
L 194.748814 122.861467 
L 195.600148 122.861467 
L 195.812981 122.639073 
L 196.238648 122.639073 
L 196.451482 122.41668 
L 197.941316 122.41668 
L 198.15415 122.194286 
L 200.282485 122.194286 
L 200.495318 121.749498 
L 202.197986 121.749498 
L 202.410819 121.30471 
L 205.177655 121.30471 
L 205.390488 121.082317 
L 227.099503 121.082317 
L 227.312337 120.859923 
L 236.251343 120.859923 
L 236.464176 120.637529 
L 237.31551 120.637529 
L 237.528344 120.415135 
L 239.869512 120.415135 
L 240.082345 120.192741 
L 242.423514 120.192741 
L 242.636347 119.970347 
L 243.700515 119.970347 
L 243.913348 119.747954 
L 251.575353 119.747954 
L 251.788187 119.52556 
L 260.301526 119.52556 
L 260.51436 119.303166 
L 260.940027 119.303166 
L 261.15286 119.080772 
L 267.112197 119.080772 
L 267.325031 118.858378 
L 270.730367 118.858378 
L 270.9432 118.635985 
L 273.710035 118.635985 
L 273.922869 118.413591 
L 277.115371 118.413591 
L 277.328205 118.191197 
L 277.541038 118.191197 
L 277.753872 117.968803 
L 283.713209 117.968803 
L 283.926042 117.746409 
L 318.192233 117.746409 
L 318.405066 117.524015 
L 319.894901 117.524015 
L 320.107734 117.301622 
L 335.006078 117.301622 
L 335.218911 117.079228 
L 338.19858 117.079228 
L 338.411414 116.63444 
L 342.45525 116.63444 
L 342.668083 116.412046 
L 349.053088 116.412046 
L 349.265921 116.189653 
L 352.032756 116.189653 
L 352.24559 115.967259 
L 353.735424 115.967259 
L 353.948258 115.744865 
L 355.012425 115.744865 
L 355.438092 115.300077 
L 362.461597 115.300077 
L 362.67443 114.85529 
L 366.718267 114.85529 
L 366.9311 114.632896 
L 367.356767 114.632896 
L 367.5696 114.410502 
L 375.657273 114.410502 
L 375.657273 114.410502 
" clip-path="url(#p89250df65d)" style="fill: none; stroke: #5784db; stroke-width: 1.2; stroke-linecap: round"/>
   </g>
   <g id="line2d_43">
    <path d="M 69.602727 468.461467 
L 69.815561 440.439846 
L 70.241228 357.264556 
L 70.454061 329.020541 
L 70.666895 320.569575 
L 70.879728 298.330193 
L 71.518229 273.866873 
L 71.731062 269.863784 
L 71.943896 268.751815 
L 72.156729 265.415907 
L 72.582396 256.075367 
L 72.795229 254.741004 
L 73.008063 250.515521 
L 73.220896 248.958764 
L 73.43373 240.285405 
L 74.07223 230.500077 
L 74.923564 206.926332 
L 75.349231 202.256062 
L 75.562065 201.58888 
L 75.987732 195.584247 
L 76.200565 194.02749 
L 76.626232 193.360309 
L 76.839066 191.803552 
L 77.051899 189.35722 
L 77.264733 188.467645 
L 77.477566 188.467645 
L 77.903233 186.243707 
L 78.116067 183.797375 
L 78.3289 182.907799 
L 78.754567 178.237529 
L 79.180234 177.12556 
L 79.605901 174.679228 
L 79.818734 174.012046 
L 80.031568 171.120927 
L 80.882902 168.229807 
L 81.095735 167.117838 
L 81.308569 166.67305 
L 81.521402 165.338687 
L 81.734236 165.116293 
L 81.947069 164.004324 
L 82.159903 164.004324 
L 83.011237 160.001236 
L 83.22407 158.889266 
L 83.436904 158.889266 
L 83.649737 157.999691 
L 83.86257 157.777297 
L 84.288237 155.553359 
L 84.713904 155.108571 
L 84.926738 155.108571 
L 86.416572 151.995058 
L 86.842239 149.993514 
L 87.055073 149.77112 
L 87.267906 149.77112 
L 87.693573 148.436757 
L 88.11924 146.212819 
L 88.332074 145.990425 
L 88.544907 145.990425 
L 88.757741 143.766486 
L 88.970574 143.766486 
L 89.183408 143.544093 
L 89.396241 143.099305 
L 89.609074 141.542548 
L 89.821908 141.320154 
L 90.673242 141.320154 
L 90.886075 141.097761 
L 91.311742 140.430579 
L 91.524576 140.208185 
L 91.950243 139.096216 
L 92.163076 137.539459 
L 92.801577 136.205097 
L 93.01441 135.093127 
L 94.078578 132.869189 
L 94.291411 132.869189 
L 94.717078 132.424402 
L 94.929911 132.424402 
L 95.142745 131.979614 
L 95.355578 131.979614 
L 95.568412 131.75722 
L 95.781245 131.090039 
L 96.206912 131.090039 
L 96.419746 130.645251 
L 96.632579 130.645251 
L 96.845413 130.422857 
L 97.696747 128.8661 
L 98.335247 128.8661 
L 98.760914 128.198919 
L 99.399415 127.531737 
L 100.250749 127.531737 
L 100.463582 127.309344 
L 100.676415 126.864556 
L 101.953416 126.864556 
L 102.379083 126.419768 
L 102.591917 126.419768 
L 102.80475 126.197375 
L 103.230417 126.197375 
L 103.443251 125.752587 
L 103.656084 125.752587 
L 103.868918 125.530193 
L 104.933085 125.530193 
L 105.358752 124.19583 
L 105.571586 124.19583 
L 106.422919 122.41668 
L 106.635753 122.41668 
L 107.06142 121.082317 
L 107.274253 120.637529 
L 107.487087 120.637529 
L 107.912754 119.970347 
L 108.125587 119.970347 
L 108.338421 119.747954 
L 108.976921 119.747954 
L 109.189755 119.52556 
L 109.615422 119.52556 
L 109.828255 119.303166 
L 111.31809 119.303166 
L 111.530923 119.080772 
L 112.59509 119.080772 
L 112.807924 118.858378 
L 113.446424 118.858378 
L 113.872091 118.413591 
L 114.936259 118.413591 
L 115.149092 118.191197 
L 115.787593 118.191197 
L 116.000426 117.746409 
L 116.638927 117.746409 
L 116.85176 117.301622 
L 117.49026 117.301622 
L 117.703094 117.079228 
L 119.192928 117.079228 
L 119.405762 116.856834 
L 122.172597 116.856834 
L 122.385431 116.63444 
L 125.365099 116.63444 
L 125.577933 116.189653 
L 125.790766 116.189653 
L 126.0036 115.967259 
L 127.706268 115.967259 
L 127.919101 115.744865 
L 130.047436 115.744865 
L 130.260269 115.522471 
L 130.685936 115.522471 
L 131.324437 114.85529 
L 131.750104 114.85529 
L 132.601438 113.965714 
L 133.665605 113.965714 
L 133.878438 113.74332 
L 134.729772 113.74332 
L 134.942606 113.520927 
L 135.581106 113.520927 
L 135.79394 111.296988 
L 136.006773 111.074595 
L 136.645274 109.962625 
L 136.858107 109.740232 
L 137.496608 109.740232 
L 137.922275 109.295444 
L 138.347942 108.628263 
L 138.773609 108.628263 
L 139.199276 107.961081 
L 143.881612 107.961081 
L 144.307279 107.2939 
L 144.732946 107.2939 
L 145.158613 106.849112 
L 145.58428 106.849112 
L 145.797113 106.626718 
L 147.286948 106.626718 
L 147.925448 105.514749 
L 148.351115 105.514749 
L 149.202449 104.625174 
L 153.033452 104.625174 
L 153.246285 104.40278 
L 154.097619 104.40278 
L 154.310453 104.180386 
L 154.73612 104.180386 
L 154.948953 103.957992 
L 155.587454 103.957992 
L 155.800287 103.735598 
L 156.651621 103.735598 
L 156.864454 103.513205 
L 158.141455 103.513205 
L 158.354289 103.290811 
L 161.121124 103.290811 
L 161.333958 103.068417 
L 161.546791 103.068417 
L 161.972458 102.401236 
L 162.398125 101.956448 
L 164.313626 101.956448 
L 164.52646 101.734054 
L 164.739293 101.734054 
L 164.952127 101.289266 
L 167.506128 101.289266 
L 167.718962 101.066873 
L 173.039799 101.066873 
L 173.252632 100.844479 
L 174.529633 100.844479 
L 174.742467 100.622085 
L 185.596974 100.622085 
L 185.809808 100.399691 
L 188.36381 100.399691 
L 188.576643 100.177297 
L 188.789477 100.177297 
L 189.00231 99.954903 
L 190.279311 99.954903 
L 190.492144 99.73251 
L 190.917811 99.73251 
L 191.130645 99.510116 
L 193.25898 99.510116 
L 193.684647 98.842934 
L 194.323147 98.842934 
L 194.748814 98.398147 
L 195.174481 98.398147 
L 195.387314 98.175753 
L 196.238648 98.175753 
L 196.451482 97.953359 
L 197.089982 97.953359 
L 197.515649 97.508571 
L 198.579817 97.508571 
L 198.79265 97.286178 
L 199.431151 97.286178 
L 199.643984 97.063784 
L 201.772319 97.063784 
L 201.985152 96.618996 
L 202.197986 96.618996 
L 202.410819 96.396602 
L 204.751988 96.396602 
L 204.964821 96.174208 
L 206.454655 96.174208 
L 206.667489 95.951815 
L 207.731656 95.951815 
L 207.94449 95.729421 
L 227.099503 95.729421 
L 227.312337 95.507027 
L 236.038509 95.507027 
L 236.251343 95.284633 
L 236.67701 95.284633 
L 236.889843 95.062239 
L 239.869512 95.062239 
L 240.082345 94.839846 
L 242.21068 94.839846 
L 242.423514 94.617452 
L 251.149686 94.617452 
L 251.36252 94.395058 
L 259.875859 94.395058 
L 260.301526 93.95027 
L 260.51436 93.95027 
L 260.727193 93.727876 
L 267.112197 93.727876 
L 267.325031 93.505483 
L 269.666199 93.505483 
L 269.879033 93.283089 
L 276.902538 93.283089 
L 277.115371 93.060695 
L 277.541038 93.060695 
L 277.753872 92.838301 
L 282.223375 92.838301 
L 282.436208 92.615907 
L 284.777376 92.615907 
L 284.99021 92.393514 
L 319.894901 92.393514 
L 320.107734 92.17112 
L 335.006078 92.17112 
L 335.218911 91.948726 
L 337.772913 91.948726 
L 337.985747 91.726332 
L 342.242416 91.726332 
L 342.45525 91.503938 
L 348.627421 91.503938 
L 348.840254 91.281544 
L 352.032756 91.281544 
L 352.24559 90.836757 
L 354.373925 90.836757 
L 354.586758 90.614363 
L 355.225259 90.614363 
L 355.438092 90.391969 
L 359.694762 90.391969 
L 359.907595 89.947181 
L 361.184596 89.947181 
L 361.39743 89.724788 
L 367.143933 89.724788 
L 367.356767 89.502394 
L 368.208101 89.502394 
L 368.420934 89.28 
L 375.657273 89.28 
L 375.657273 89.28 
" clip-path="url(#p89250df65d)" style="fill: none; stroke: #c957db; stroke-width: 1.2; stroke-linecap: round"/>
   </g>
   <g id="line2d_44"/>
   <g id="line2d_45"/>
   <g id="line2d_46"/>
   <g id="line2d_47"/>
   <g id="line2d_48"/>
   <g id="patch_3">
    <path d="M 54.3 512.64 
L 54.3 69.12 
" style="fill: none; stroke: #cccccc; stroke-linejoin: miter; stroke-linecap: square"/>
   </g>
   <g id="patch_4">
    <path d="M 54.3 512.64 
L 390.96 512.64 
" style="fill: none; stroke: #cccccc; stroke-linejoin: miter; stroke-linecap: square"/>
   </g>
   <g id="text_41">
    <!-- Edge Coverage History -->
    <g style="fill: #262626" transform="translate(115.738512 63.12)scale(0.165888 -0.165888)">
     <defs>
      <path id="DejaVuSans-Bold-45" d="M 588 4666 
L 3834 4666 
L 3834 3756 
L 1791 3756 
L 1791 2888 
L 3713 2888 
L 3713 1978 
L 1791 1978 
L 1791 909 
L 3903 909 
L 3903 0 
L 588 0 
L 588 4666 
z
" transform="scale(0.015625)"/>
      <path id="DejaVuSans-Bold-64" d="M 2919 2988 
L 2919 4863 
L 4044 4863 
L 4044 0 
L 2919 0 
L 2919 506 
Q 2688 197 2409 53 
Q 2131 -91 1766 -91 
Q 1119 -91 703 423 
Q 288 938 288 1747 
Q 288 2556 703 3070 
Q 1119 3584 1766 3584 
Q 2128 3584 2408 3439 
Q 2688 3294 2919 2988 
z
M 2181 722 
Q 2541 722 2730 984 
Q 2919 1247 2919 1747 
Q 2919 2247 2730 2509 
Q 2541 2772 2181 2772 
Q 1825 2772 1636 2509 
Q 1447 2247 1447 1747 
Q 1447 1247 1636 984 
Q 1825 722 2181 722 
z
" transform="scale(0.015625)"/>
      <path id="DejaVuSans-Bold-67" d="M 2919 594 
Q 2688 288 2409 144 
Q 2131 0 1766 0 
Q 1125 0 706 504 
Q 288 1009 288 1791 
Q 288 2575 706 3076 
Q 1125 3578 1766 3578 
Q 2131 3578 2409 3434 
Q 2688 3291 2919 2981 
L 2919 3500 
L 4044 3500 
L 4044 353 
Q 4044 -491 3511 -936 
Q 2978 -1381 1966 -1381 
Q 1638 -1381 1331 -1331 
Q 1025 -1281 716 -1178 
L 716 -306 
Q 1009 -475 1290 -558 
Q 1572 -641 1856 -641 
Q 2406 -641 2662 -400 
Q 2919 -159 2919 353 
L 2919 594 
z
M 2181 2772 
Q 1834 2772 1640 2515 
Q 1447 2259 1447 1791 
Q 1447 1309 1634 1061 
Q 1822 813 2181 813 
Q 2531 813 2725 1069 
Q 2919 1325 2919 1791 
Q 2919 2259 2725 2515 
Q 2531 2772 2181 2772 
z
" transform="scale(0.015625)"/>
      <path id="DejaVuSans-Bold-65" d="M 4031 1759 
L 4031 1441 
L 1416 1441 
Q 1456 1047 1700 850 
Q 1944 653 2381 653 
Q 2734 653 3104 758 
Q 3475 863 3866 1075 
L 3866 213 
Q 3469 63 3072 -14 
Q 2675 -91 2278 -91 
Q 1328 -91 801 392 
Q 275 875 275 1747 
Q 275 2603 792 3093 
Q 1309 3584 2216 3584 
Q 3041 3584 3536 3087 
Q 4031 2591 4031 1759 
z
M 2881 2131 
Q 2881 2450 2695 2645 
Q 2509 2841 2209 2841 
Q 1884 2841 1681 2658 
Q 1478 2475 1428 2131 
L 2881 2131 
z
" transform="scale(0.015625)"/>
      <path id="DejaVuSans-Bold-20" transform="scale(0.015625)"/>
      <path id="DejaVuSans-Bold-43" d="M 4288 256 
Q 3956 84 3597 -3 
Q 3238 -91 2847 -91 
Q 1681 -91 1000 561 
Q 319 1213 319 2328 
Q 319 3447 1000 4098 
Q 1681 4750 2847 4750 
Q 3238 4750 3597 4662 
Q 3956 4575 4288 4403 
L 4288 3438 
Q 3953 3666 3628 3772 
Q 3303 3878 2944 3878 
Q 2300 3878 1931 3465 
Q 1563 3053 1563 2328 
Q 1563 1606 1931 1193 
Q 2300 781 2944 781 
Q 3303 781 3628 887 
Q 3953 994 4288 1222 
L 4288 256 
z
" transform="scale(0.015625)"/>
      <path id="DejaVuSans-Bold-6f" d="M 2203 2784 
Q 1831 2784 1636 2517 
Q 1441 2250 1441 1747 
Q 1441 1244 1636 976 
Q 1831 709 2203 709 
Q 2569 709 2762 976 
Q 2956 1244 2956 1747 
Q 2956 2250 2762 2517 
Q 2569 2784 2203 2784 
z
M 2203 3584 
Q 3106 3584 3614 3096 
Q 4122 2609 4122 1747 
Q 4122 884 3614 396 
Q 3106 -91 2203 -91 
Q 1297 -91 786 396 
Q 275 884 275 1747 
Q 275 2609 786 3096 
Q 1297 3584 2203 3584 
z
" transform="scale(0.015625)"/>
      <path id="DejaVuSans-Bold-76" d="M 97 3500 
L 1216 3500 
L 2088 1081 
L 2956 3500 
L 4078 3500 
L 2700 0 
L 1472 0 
L 97 3500 
z
" transform="scale(0.015625)"/>
      <path id="DejaVuSans-Bold-72" d="M 3138 2547 
Q 2991 2616 2845 2648 
Q 2700 2681 2553 2681 
Q 2122 2681 1889 2404 
Q 1656 2128 1656 1613 
L 1656 0 
L 538 0 
L 538 3500 
L 1656 3500 
L 1656 2925 
Q 1872 3269 2151 3426 
Q 2431 3584 2822 3584 
Q 2878 3584 2943 3579 
Q 3009 3575 3134 3559 
L 3138 2547 
z
" transform="scale(0.015625)"/>
      <path id="DejaVuSans-Bold-61" d="M 2106 1575 
Q 1756 1575 1579 1456 
Q 1403 1338 1403 1106 
Q 1403 894 1545 773 
Q 1688 653 1941 653 
Q 2256 653 2472 879 
Q 2688 1106 2688 1447 
L 2688 1575 
L 2106 1575 
z
M 3816 1997 
L 3816 0 
L 2688 0 
L 2688 519 
Q 2463 200 2181 54 
Q 1900 -91 1497 -91 
Q 953 -91 614 226 
Q 275 544 275 1050 
Q 275 1666 698 1953 
Q 1122 2241 2028 2241 
L 2688 2241 
L 2688 2328 
Q 2688 2594 2478 2717 
Q 2269 2841 1825 2841 
Q 1466 2841 1156 2769 
Q 847 2697 581 2553 
L 581 3406 
Q 941 3494 1303 3539 
Q 1666 3584 2028 3584 
Q 2975 3584 3395 3211 
Q 3816 2838 3816 1997 
z
" transform="scale(0.015625)"/>
      <path id="DejaVuSans-Bold-48" d="M 588 4666 
L 1791 4666 
L 1791 2888 
L 3566 2888 
L 3566 4666 
L 4769 4666 
L 4769 0 
L 3566 0 
L 3566 1978 
L 1791 1978 
L 1791 0 
L 588 0 
L 588 4666 
z
" transform="scale(0.015625)"/>
      <path id="DejaVuSans-Bold-69" d="M 538 3500 
L 1656 3500 
L 1656 0 
L 538 0 
L 538 3500 
z
M 538 4863 
L 1656 4863 
L 1656 3950 
L 538 3950 
L 538 4863 
z
" transform="scale(0.015625)"/>
      <path id="DejaVuSans-Bold-73" d="M 3272 3391 
L 3272 2541 
Q 2913 2691 2578 2766 
Q 2244 2841 1947 2841 
Q 1628 2841 1473 2761 
Q 1319 2681 1319 2516 
Q 1319 2381 1436 2309 
Q 1553 2238 1856 2203 
L 2053 2175 
Q 2913 2066 3209 1816 
Q 3506 1566 3506 1031 
Q 3506 472 3093 190 
Q 2681 -91 1863 -91 
Q 1516 -91 1145 -36 
Q 775 19 384 128 
L 384 978 
Q 719 816 1070 734 
Q 1422 653 1784 653 
Q 2113 653 2278 743 
Q 2444 834 2444 1013 
Q 2444 1163 2330 1236 
Q 2216 1309 1875 1350 
L 1678 1375 
Q 931 1469 631 1722 
Q 331 1975 331 2491 
Q 331 3047 712 3315 
Q 1094 3584 1881 3584 
Q 2191 3584 2531 3537 
Q 2872 3491 3272 3391 
z
" transform="scale(0.015625)"/>
      <path id="DejaVuSans-Bold-74" d="M 1759 4494 
L 1759 3500 
L 2913 3500 
L 2913 2700 
L 1759 2700 
L 1759 1216 
Q 1759 972 1856 886 
Q 1953 800 2241 800 
L 2816 800 
L 2816 0 
L 1856 0 
Q 1194 0 917 276 
Q 641 553 641 1216 
L 641 2700 
L 84 2700 
L 84 3500 
L 641 3500 
L 641 4494 
L 1759 4494 
z
" transform="scale(0.015625)"/>
      <path id="DejaVuSans-Bold-79" d="M 78 3500 
L 1197 3500 
L 2138 1125 
L 2938 3500 
L 4056 3500 
L 2584 -331 
Q 2363 -916 2067 -1148 
Q 1772 -1381 1288 -1381 
L 641 -1381 
L 641 -647 
L 991 -647 
Q 1275 -647 1404 -556 
Q 1534 -466 1606 -231 
L 1638 -134 
L 78 3500 
z
" transform="scale(0.015625)"/>
     </defs>
     <use xlink:href="#DejaVuSans-Bold-45"/>
     <use xlink:href="#DejaVuSans-Bold-64" x="68.310547"/>
     <use xlink:href="#DejaVuSans-Bold-67" x="139.892578"/>
     <use xlink:href="#DejaVuSans-Bold-65" x="211.474609"/>
     <use xlink:href="#DejaVuSans-Bold-20" x="279.296875"/>
     <use xlink:href="#DejaVuSans-Bold-43" x="314.111328"/>
     <use xlink:href="#DejaVuSans-Bold-6f" x="387.5"/>
     <use xlink:href="#DejaVuSans-Bold-76" x="456.201172"/>
     <use xlink:href="#DejaVuSans-Bold-65" x="521.386719"/>
     <use xlink:href="#DejaVuSans-Bold-72" x="589.208984"/>
     <use xlink:href="#DejaVuSans-Bold-61" x="638.525391"/>
     <use xlink:href="#DejaVuSans-Bold-67" x="706.005859"/>
     <use xlink:href="#DejaVuSans-Bold-65" x="777.587891"/>
     <use xlink:href="#DejaVuSans-Bold-20" x="845.410156"/>
     <use xlink:href="#DejaVuSans-Bold-48" x="880.224609"/>
     <use xlink:href="#DejaVuSans-Bold-69" x="963.916016"/>
     <use xlink:href="#DejaVuSans-Bold-73" x="998.193359"/>
     <use xlink:href="#DejaVuSans-Bold-74" x="1057.714844"/>
     <use xlink:href="#DejaVuSans-Bold-6f" x="1105.517578"/>
     <use xlink:href="#DejaVuSans-Bold-72" x="1174.21875"/>
     <use xlink:href="#DejaVuSans-Bold-79" x="1223.535156"/>
    </g>
   </g>
   <g id="legend_1">
    <g id="patch_5">
     <path d="M 267.672 508.24 
L 384.8 508.24 
Q 386.56 508.24 386.56 506.48 
L 386.56 428.8405 
Q 386.56 427.0805 384.8 427.0805 
L 267.672 427.0805 
Q 265.912 427.0805 265.912 428.8405 
L 265.912 506.48 
Q 265.912 508.24 267.672 508.24 
z
" style="fill: #ffffff; opacity: 0.8; stroke: #cccccc; stroke-width: 0.8; stroke-linejoin: miter"/>
    </g>
    <g id="text_42">
     <!-- fuzzer -->
     <g style="fill: #262626" transform="translate(311.539 437.895)scale(0.096 -0.096)">
      <defs>
       <path id="DejaVuSans-66" d="M 2375 4863 
L 2375 4384 
L 1825 4384 
Q 1516 4384 1395 4259 
Q 1275 4134 1275 3809 
L 1275 3500 
L 2222 3500 
L 2222 3053 
L 1275 3053 
L 1275 0 
L 697 0 
L 697 3053 
L 147 3053 
L 147 3500 
L 697 3500 
L 697 3744 
Q 697 4328 969 4595 
Q 1241 4863 1831 4863 
L 2375 4863 
z
" transform="scale(0.015625)"/>
       <path id="DejaVuSans-7a" d="M 353 3500 
L 3084 3500 
L 3084 2975 
L 922 459 
L 3084 459 
L 3084 0 
L 275 0 
L 275 525 
L 2438 3041 
L 353 3041 
L 353 3500 
z
" transform="scale(0.015625)"/>
      </defs>
      <use xlink:href="#DejaVuSans-66"/>
      <use xlink:href="#DejaVuSans-75" x="35.205078"/>
      <use xlink:href="#DejaVuSans-7a" x="98.583984"/>
      <use xlink:href="#DejaVuSans-7a" x="151.074219"/>
      <use xlink:href="#DejaVuSans-65" x="203.564453"/>
      <use xlink:href="#DejaVuSans-72" x="265.087891"/>
     </g>
    </g>
    <g id="line2d_49">
     <path d="M 269.432 447.898125 
L 278.232 447.898125 
L 287.032 447.898125 
" style="fill: none; stroke: #db5f57; stroke-width: 1.2; stroke-linecap: round"/>
    </g>
    <g id="text_43">
     <!-- afl-0-exid21 -->
     <g style="fill: #262626" transform="translate(294.072 450.978125)scale(0.088 -0.088)">
      <defs>
       <path id="DejaVuSans-6c" d="M 603 4863 
L 1178 4863 
L 1178 0 
L 603 0 
L 603 4863 
z
" transform="scale(0.015625)"/>
       <path id="DejaVuSans-2d" d="M 313 2009 
L 1997 2009 
L 1997 1497 
L 313 1497 
L 313 2009 
z
" transform="scale(0.015625)"/>
       <path id="DejaVuSans-78" d="M 3513 3500 
L 2247 1797 
L 3578 0 
L 2900 0 
L 1881 1375 
L 863 0 
L 184 0 
L 1544 1831 
L 300 3500 
L 978 3500 
L 1906 2253 
L 2834 3500 
L 3513 3500 
z
" transform="scale(0.015625)"/>
      </defs>
      <use xlink:href="#DejaVuSans-61"/>
      <use xlink:href="#DejaVuSans-66" x="61.279297"/>
      <use xlink:href="#DejaVuSans-6c" x="96.484375"/>
      <use xlink:href="#DejaVuSans-2d" x="124.267578"/>
      <use xlink:href="#DejaVuSans-30" x="160.351562"/>
      <use xlink:href="#DejaVuSans-2d" x="223.974609"/>
      <use xlink:href="#DejaVuSans-65" x="260.058594"/>
      <use xlink:href="#DejaVuSans-78" x="319.832031"/>
      <use xlink:href="#DejaVuSans-69" x="379.011719"/>
      <use xlink:href="#DejaVuSans-64" x="406.794922"/>
      <use xlink:href="#DejaVuSans-32" x="470.271484"/>
      <use xlink:href="#DejaVuSans-31" x="533.894531"/>
     </g>
    </g>
    <g id="line2d_50">
     <path d="M 269.432 460.814875 
L 278.232 460.814875 
L 287.032 460.814875 
" style="fill: none; stroke: #b9db57; stroke-width: 1.2; stroke-linecap: round"/>
    </g>
    <g id="text_44">
     <!-- fairfuzz-0-exid21 -->
     <g style="fill: #262626" transform="translate(294.072 463.894875)scale(0.088 -0.088)">
      <use xlink:href="#DejaVuSans-66"/>
      <use xlink:href="#DejaVuSans-61" x="35.205078"/>
      <use xlink:href="#DejaVuSans-69" x="96.484375"/>
      <use xlink:href="#DejaVuSans-72" x="124.267578"/>
      <use xlink:href="#DejaVuSans-66" x="165.380859"/>
      <use xlink:href="#DejaVuSans-75" x="200.585938"/>
      <use xlink:href="#DejaVuSans-7a" x="263.964844"/>
      <use xlink:href="#DejaVuSans-7a" x="316.455078"/>
      <use xlink:href="#DejaVuSans-2d" x="368.945312"/>
      <use xlink:href="#DejaVuSans-30" x="405.029297"/>
      <use xlink:href="#DejaVuSans-2d" x="468.652344"/>
      <use xlink:href="#DejaVuSans-65" x="504.736328"/>
      <use xlink:href="#DejaVuSans-78" x="564.509766"/>
      <use xlink:href="#DejaVuSans-69" x="623.689453"/>
      <use xlink:href="#DejaVuSans-64" x="651.472656"/>
      <use xlink:href="#DejaVuSans-32" x="714.949219"/>
      <use xlink:href="#DejaVuSans-31" x="778.572266"/>
     </g>
    </g>
    <g id="line2d_51">
     <path d="M 269.432 473.731625 
L 278.232 473.731625 
L 287.032 473.731625 
" style="fill: none; stroke: #57db94; stroke-width: 1.2; stroke-linecap: round"/>
    </g>
    <g id="text_45">
     <!-- aflfast-0-exid21 -->
     <g style="fill: #262626" transform="translate(294.072 476.811625)scale(0.088 -0.088)">
      <use xlink:href="#DejaVuSans-61"/>
      <use xlink:href="#DejaVuSans-66" x="61.279297"/>
      <use xlink:href="#DejaVuSans-6c" x="96.484375"/>
      <use xlink:href="#DejaVuSans-66" x="124.267578"/>
      <use xlink:href="#DejaVuSans-61" x="159.472656"/>
      <use xlink:href="#DejaVuSans-73" x="220.751953"/>
      <use xlink:href="#DejaVuSans-74" x="272.851562"/>
      <use xlink:href="#DejaVuSans-2d" x="312.060547"/>
      <use xlink:href="#DejaVuSans-30" x="348.144531"/>
      <use xlink:href="#DejaVuSans-2d" x="411.767578"/>
      <use xlink:href="#DejaVuSans-65" x="447.851562"/>
      <use xlink:href="#DejaVuSans-78" x="507.625"/>
      <use xlink:href="#DejaVuSans-69" x="566.804688"/>
      <use xlink:href="#DejaVuSans-64" x="594.587891"/>
      <use xlink:href="#DejaVuSans-32" x="658.064453"/>
      <use xlink:href="#DejaVuSans-31" x="721.6875"/>
     </g>
    </g>
    <g id="line2d_52">
     <path d="M 269.432 486.648375 
L 278.232 486.648375 
L 287.032 486.648375 
" style="fill: none; stroke: #5784db; stroke-width: 1.2; stroke-linecap: round"/>
    </g>
    <g id="text_46">
     <!-- aflplusplus-0-exid21 -->
     <g style="fill: #262626" transform="translate(294.072 489.728375)scale(0.088 -0.088)">
      <defs>
       <path id="DejaVuSans-70" d="M 1159 525 
L 1159 -1331 
L 581 -1331 
L 581 3500 
L 1159 3500 
L 1159 2969 
Q 1341 3281 1617 3432 
Q 1894 3584 2278 3584 
Q 2916 3584 3314 3078 
Q 3713 2572 3713 1747 
Q 3713 922 3314 415 
Q 2916 -91 2278 -91 
Q 1894 -91 1617 61 
Q 1341 213 1159 525 
z
M 3116 1747 
Q 3116 2381 2855 2742 
Q 2594 3103 2138 3103 
Q 1681 3103 1420 2742 
Q 1159 2381 1159 1747 
Q 1159 1113 1420 752 
Q 1681 391 2138 391 
Q 2594 391 2855 752 
Q 3116 1113 3116 1747 
z
" transform="scale(0.015625)"/>
      </defs>
      <use xlink:href="#DejaVuSans-61"/>
      <use xlink:href="#DejaVuSans-66" x="61.279297"/>
      <use xlink:href="#DejaVuSans-6c" x="96.484375"/>
      <use xlink:href="#DejaVuSans-70" x="124.267578"/>
      <use xlink:href="#DejaVuSans-6c" x="187.744141"/>
      <use xlink:href="#DejaVuSans-75" x="215.527344"/>
      <use xlink:href="#DejaVuSans-73" x="278.90625"/>
      <use xlink:href="#DejaVuSans-70" x="331.005859"/>
      <use xlink:href="#DejaVuSans-6c" x="394.482422"/>
      <use xlink:href="#DejaVuSans-75" x="422.265625"/>
      <use xlink:href="#DejaVuSans-73" x="485.644531"/>
      <use xlink:href="#DejaVuSans-2d" x="537.744141"/>
      <use xlink:href="#DejaVuSans-30" x="573.828125"/>
      <use xlink:href="#DejaVuSans-2d" x="637.451172"/>
      <use xlink:href="#DejaVuSans-65" x="673.535156"/>
      <use xlink:href="#DejaVuSans-78" x="733.308594"/>
      <use xlink:href="#DejaVuSans-69" x="792.488281"/>
      <use xlink:href="#DejaVuSans-64" x="820.271484"/>
      <use xlink:href="#DejaVuSans-32" x="883.748047"/>
      <use xlink:href="#DejaVuSans-31" x="947.371094"/>
     </g>
    </g>
    <g id="line2d_53">
     <path d="M 269.432 499.565125 
L 278.232 499.565125 
L 287.032 499.565125 
" style="fill: none; stroke: #c957db; stroke-width: 1.2; stroke-linecap: round"/>
    </g>
    <g id="text_47">
     <!-- fuzzer_global -->
     <g style="fill: #262626" transform="translate(294.072 502.645125)scale(0.088 -0.088)">
      <defs>
       <path id="DejaVuSans-5f" d="M 3263 -1063 
L 3263 -1509 
L -63 -1509 
L -63 -1063 
L 3263 -1063 
z
" transform="scale(0.015625)"/>
       <path id="DejaVuSans-62" d="M 3116 1747 
Q 3116 2381 2855 2742 
Q 2594 3103 2138 3103 
Q 1681 3103 1420 2742 
Q 1159 2381 1159 1747 
Q 1159 1113 1420 752 
Q 1681 391 2138 391 
Q 2594 391 2855 752 
Q 3116 1113 3116 1747 
z
M 1159 2969 
Q 1341 3281 1617 3432 
Q 1894 3584 2278 3584 
Q 2916 3584 3314 3078 
Q 3713 2572 3713 1747 
Q 3713 922 3314 415 
Q 2916 -91 2278 -91 
Q 1894 -91 1617 61 
Q 1341 213 1159 525 
L 1159 0 
L 581 0 
L 581 4863 
L 1159 4863 
L 1159 2969 
z
" transform="scale(0.015625)"/>
      </defs>
      <use xlink:href="#DejaVuSans-66"/>
      <use xlink:href="#DejaVuSans-75" x="35.205078"/>
      <use xlink:href="#DejaVuSans-7a" x="98.583984"/>
      <use xlink:href="#DejaVuSans-7a" x="151.074219"/>
      <use xlink:href="#DejaVuSans-65" x="203.564453"/>
      <use xlink:href="#DejaVuSans-72" x="265.087891"/>
      <use xlink:href="#DejaVuSans-5f" x="306.201172"/>
      <use xlink:href="#DejaVuSans-67" x="356.201172"/>
      <use xlink:href="#DejaVuSans-6c" x="419.677734"/>
      <use xlink:href="#DejaVuSans-6f" x="447.460938"/>
      <use xlink:href="#DejaVuSans-62" x="508.642578"/>
      <use xlink:href="#DejaVuSans-61" x="572.119141"/>
      <use xlink:href="#DejaVuSans-6c" x="633.398438"/>
     </g>
    </g>
   </g>
  </g>
 </g>
 <defs>
  <clipPath id="p89250df65d">
   <rect x="54.3" y="69.12" width="336.66" height="443.52"/>
  </clipPath>
 </defs>
</svg>
