<?xml version="1.0" encoding="utf-8" standalone="no"?>
<!DOCTYPE svg PUBLIC "-//W3C//DTD SVG 1.1//EN"
  "http://www.w3.org/Graphics/SVG/1.1/DTD/svg11.dtd">
<svg xmlns:xlink="http://www.w3.org/1999/xlink" width="663.186937pt" height="516.930175pt" viewBox="0 0 663.186937 516.930175" xmlns="http://www.w3.org/2000/svg" version="1.1">
 <metadata>
  <rdf:RDF xmlns:dc="http://purl.org/dc/elements/1.1/" xmlns:cc="http://creativecommons.org/ns#" xmlns:rdf="http://www.w3.org/1999/02/22-rdf-syntax-ns#">
   <cc:Work>
    <dc:type rdf:resource="http://purl.org/dc/dcmitype/StillImage"/>
    <dc:date>2022-09-15T05:51:04.087538</dc:date>
    <dc:format>image/svg+xml</dc:format>
    <dc:creator>
     <cc:Agent>
      <dc:title>Matplotlib v3.5.3, https://matplotlib.org/</dc:title>
     </cc:Agent>
    </dc:creator>
   </cc:Work>
  </rdf:RDF>
 </metadata>
 <defs>
  <style type="text/css">*{stroke-linejoin: round; stroke-linecap: butt}</style>
 </defs>
 <g id="figure_1">
  <g id="patch_1">
   <path d="M 0 516.930175 
L 663.186937 516.930175 
L 663.186937 0 
L 0 0 
z
" style="fill: #ffffff"/>
  </g>
  <g id="axes_1">
   <g id="patch_2">
    <path d="M 192.438742 315.05832 
C 225.520177 315.05832 257.251136 301.914927 280.643242 278.52282 
C 304.035349 255.130713 317.178742 223.399755 317.178742 190.31832 
C 317.178742 157.236885 304.035349 125.505927 280.643242 102.11382 
C 257.251136 78.721713 225.520177 65.57832 192.438742 65.57832 
C 159.357308 65.57832 127.626349 78.721713 104.234243 102.11382 
C 80.842136 125.505927 67.698743 157.236885 67.698743 190.31832 
C 67.698743 223.399755 80.842136 255.130713 104.234243 278.52282 
C 127.626349 301.914927 159.357308 315.05832 192.438742 315.05832 
z
" clip-path="url(#pa7d53bc24d)" style="fill: #5cc062; fill-opacity: 0.5; stroke: #5cc062; stroke-opacity: 0.5; stroke-linejoin: miter"/>
   </g>
   <g id="patch_3">
    <path d="M 358.592422 315.05832 
C 391.673857 315.05832 423.404816 301.914927 446.796922 278.52282 
C 470.189029 255.130713 483.332422 223.399755 483.332422 190.31832 
C 483.332422 157.236885 470.189029 125.505927 446.796922 102.11382 
C 423.404816 78.721713 391.673857 65.57832 358.592422 65.57832 
C 325.510988 65.57832 293.780029 78.721713 270.387923 102.11382 
C 246.995816 125.505927 233.852422 157.236885 233.852422 190.31832 
C 233.852422 223.399755 246.995816 255.130713 270.387923 278.52282 
C 293.780029 301.914927 325.510988 315.05832 358.592422 315.05832 
z
" clip-path="url(#pa7d53bc24d)" style="fill: #5a9bd4; fill-opacity: 0.5; stroke: #5a9bd4; stroke-opacity: 0.5; stroke-linejoin: miter"/>
   </g>
   <g id="patch_4">
    <path d="M 275.765062 476.2224 
C 308.846497 476.2224 340.577456 463.079007 363.969562 439.6869 
C 387.361669 416.294793 400.505062 384.563835 400.505062 351.4824 
C 400.505062 318.400965 387.361669 286.670007 363.969562 263.2779 
C 340.577456 239.885793 308.846497 226.7424 275.765062 226.7424 
C 242.683628 226.7424 210.952669 239.885793 187.560563 263.2779 
C 164.168456 286.670007 151.025062 318.400965 151.025062 351.4824 
C 151.025062 384.563835 164.168456 416.294793 187.560563 439.6869 
C 210.952669 463.079007 242.683628 476.2224 275.765062 476.2224 
z
" clip-path="url(#pa7d53bc24d)" style="fill: #f6ec56; fill-opacity: 0.6; stroke: #f6ec56; stroke-opacity: 0.6; stroke-linejoin: miter"/>
   </g>
   <g id="text_1">
    <!-- 0(0.0%) -->
    <g transform="translate(248.065844 375.303925)scale(0.14 -0.14)">
     <defs>
      <path id="DejaVuSans-30" d="M 2034 4250 
Q 1547 4250 1301 3770 
Q 1056 3291 1056 2328 
Q 1056 1369 1301 889 
Q 1547 409 2034 409 
Q 2525 409 2770 889 
Q 3016 1369 3016 2328 
Q 3016 3291 2770 3770 
Q 2525 4250 2034 4250 
z
M 2034 4750 
Q 2819 4750 3233 4129 
Q 3647 3509 3647 2328 
Q 3647 1150 3233 529 
Q 2819 -91 2034 -91 
Q 1250 -91 836 529 
Q 422 1150 422 2328 
Q 422 3509 836 4129 
Q 1250 4750 2034 4750 
z
" transform="scale(0.015625)"/>
      <path id="DejaVuSans-28" d="M 1984 4856 
Q 1566 4138 1362 3434 
Q 1159 2731 1159 2009 
Q 1159 1288 1364 580 
Q 1569 -128 1984 -844 
L 1484 -844 
Q 1016 -109 783 600 
Q 550 1309 550 2009 
Q 550 2706 781 3412 
Q 1013 4119 1484 4856 
L 1984 4856 
z
" transform="scale(0.015625)"/>
      <path id="DejaVuSans-2e" d="M 684 794 
L 1344 794 
L 1344 0 
L 684 0 
L 684 794 
z
" transform="scale(0.015625)"/>
      <path id="DejaVuSans-25" d="M 4653 2053 
Q 4381 2053 4226 1822 
Q 4072 1591 4072 1178 
Q 4072 772 4226 539 
Q 4381 306 4653 306 
Q 4919 306 5073 539 
Q 5228 772 5228 1178 
Q 5228 1588 5073 1820 
Q 4919 2053 4653 2053 
z
M 4653 2450 
Q 5147 2450 5437 2106 
Q 5728 1763 5728 1178 
Q 5728 594 5436 251 
Q 5144 -91 4653 -91 
Q 4153 -91 3862 251 
Q 3572 594 3572 1178 
Q 3572 1766 3864 2108 
Q 4156 2450 4653 2450 
z
M 1428 4353 
Q 1159 4353 1004 4120 
Q 850 3888 850 3481 
Q 850 3069 1003 2837 
Q 1156 2606 1428 2606 
Q 1700 2606 1854 2837 
Q 2009 3069 2009 3481 
Q 2009 3884 1853 4118 
Q 1697 4353 1428 4353 
z
M 4250 4750 
L 4750 4750 
L 1831 -91 
L 1331 -91 
L 4250 4750 
z
M 1428 4750 
Q 1922 4750 2215 4408 
Q 2509 4066 2509 3481 
Q 2509 2891 2217 2550 
Q 1925 2209 1428 2209 
Q 931 2209 642 2551 
Q 353 2894 353 3481 
Q 353 4063 643 4406 
Q 934 4750 1428 4750 
z
" transform="scale(0.015625)"/>
      <path id="DejaVuSans-29" d="M 513 4856 
L 1013 4856 
Q 1481 4119 1714 3412 
Q 1947 2706 1947 2009 
Q 1947 1309 1714 600 
Q 1481 -109 1013 -844 
L 513 -844 
Q 928 -128 1133 580 
Q 1338 1288 1338 2009 
Q 1338 2731 1133 3434 
Q 928 4138 513 4856 
z
" transform="scale(0.015625)"/>
     </defs>
     <use xlink:href="#DejaVuSans-30"/>
     <use xlink:href="#DejaVuSans-28" x="63.623047"/>
     <use xlink:href="#DejaVuSans-30" x="102.636719"/>
     <use xlink:href="#DejaVuSans-2e" x="166.259766"/>
     <use xlink:href="#DejaVuSans-30" x="198.046875"/>
     <use xlink:href="#DejaVuSans-25" x="261.669922"/>
     <use xlink:href="#DejaVuSans-29" x="356.689453"/>
    </g>
   </g>
   <g id="text_2">
    <!-- 0(0.0%) -->
    <g transform="translate(362.826644 185.699125)scale(0.14 -0.14)">
     <use xlink:href="#DejaVuSans-30"/>
     <use xlink:href="#DejaVuSans-28" x="63.623047"/>
     <use xlink:href="#DejaVuSans-30" x="102.636719"/>
     <use xlink:href="#DejaVuSans-2e" x="166.259766"/>
     <use xlink:href="#DejaVuSans-30" x="198.046875"/>
     <use xlink:href="#DejaVuSans-25" x="261.669922"/>
     <use xlink:href="#DejaVuSans-29" x="356.689453"/>
    </g>
   </g>
   <g id="text_3">
    <!-- 1(50.0%) -->
    <g transform="translate(298.497694 280.501525)scale(0.14 -0.14)">
     <defs>
      <path id="DejaVuSans-31" d="M 794 531 
L 1825 531 
L 1825 4091 
L 703 3866 
L 703 4441 
L 1819 4666 
L 2450 4666 
L 2450 531 
L 3481 531 
L 3481 0 
L 794 0 
L 794 531 
z
" transform="scale(0.015625)"/>
      <path id="DejaVuSans-35" d="M 691 4666 
L 3169 4666 
L 3169 4134 
L 1269 4134 
L 1269 2991 
Q 1406 3038 1543 3061 
Q 1681 3084 1819 3084 
Q 2600 3084 3056 2656 
Q 3513 2228 3513 1497 
Q 3513 744 3044 326 
Q 2575 -91 1722 -91 
Q 1428 -91 1123 -41 
Q 819 9 494 109 
L 494 744 
Q 775 591 1075 516 
Q 1375 441 1709 441 
Q 2250 441 2565 725 
Q 2881 1009 2881 1497 
Q 2881 1984 2565 2268 
Q 2250 2553 1709 2553 
Q 1456 2553 1204 2497 
Q 953 2441 691 2322 
L 691 4666 
z
" transform="scale(0.015625)"/>
     </defs>
     <use xlink:href="#DejaVuSans-31"/>
     <use xlink:href="#DejaVuSans-28" x="63.623047"/>
     <use xlink:href="#DejaVuSans-35" x="102.636719"/>
     <use xlink:href="#DejaVuSans-30" x="166.259766"/>
     <use xlink:href="#DejaVuSans-2e" x="229.882812"/>
     <use xlink:href="#DejaVuSans-30" x="261.669922"/>
     <use xlink:href="#DejaVuSans-25" x="325.292969"/>
     <use xlink:href="#DejaVuSans-29" x="420.3125"/>
    </g>
   </g>
   <g id="text_4">
    <!-- 1(50.0%) -->
    <g transform="translate(128.851294 185.699125)scale(0.14 -0.14)">
     <use xlink:href="#DejaVuSans-31"/>
     <use xlink:href="#DejaVuSans-28" x="63.623047"/>
     <use xlink:href="#DejaVuSans-35" x="102.636719"/>
     <use xlink:href="#DejaVuSans-30" x="166.259766"/>
     <use xlink:href="#DejaVuSans-2e" x="229.882812"/>
     <use xlink:href="#DejaVuSans-30" x="261.669922"/>
     <use xlink:href="#DejaVuSans-25" x="325.292969"/>
     <use xlink:href="#DejaVuSans-29" x="420.3125"/>
    </g>
   </g>
   <g id="text_5">
    <!-- 0(0.0%) -->
    <g transform="translate(193.180244 280.501525)scale(0.14 -0.14)">
     <use xlink:href="#DejaVuSans-30"/>
     <use xlink:href="#DejaVuSans-28" x="63.623047"/>
     <use xlink:href="#DejaVuSans-30" x="102.636719"/>
     <use xlink:href="#DejaVuSans-2e" x="166.259766"/>
     <use xlink:href="#DejaVuSans-30" x="198.046875"/>
     <use xlink:href="#DejaVuSans-25" x="261.669922"/>
     <use xlink:href="#DejaVuSans-29" x="356.689453"/>
    </g>
   </g>
   <g id="text_6">
    <!-- 0(0.0%) -->
    <g transform="translate(248.065844 185.699125)scale(0.14 -0.14)">
     <use xlink:href="#DejaVuSans-30"/>
     <use xlink:href="#DejaVuSans-28" x="63.623047"/>
     <use xlink:href="#DejaVuSans-30" x="102.636719"/>
     <use xlink:href="#DejaVuSans-2e" x="166.259766"/>
     <use xlink:href="#DejaVuSans-30" x="198.046875"/>
     <use xlink:href="#DejaVuSans-25" x="261.669922"/>
     <use xlink:href="#DejaVuSans-29" x="356.689453"/>
    </g>
   </g>
   <g id="text_7">
    <!-- 0(0.0%) -->
    <g transform="translate(248.065844 255.553525)scale(0.14 -0.14)">
     <use xlink:href="#DejaVuSans-30"/>
     <use xlink:href="#DejaVuSans-28" x="63.623047"/>
     <use xlink:href="#DejaVuSans-30" x="102.636719"/>
     <use xlink:href="#DejaVuSans-2e" x="166.259766"/>
     <use xlink:href="#DejaVuSans-30" x="198.046875"/>
     <use xlink:href="#DejaVuSans-25" x="261.669922"/>
     <use xlink:href="#DejaVuSans-29" x="356.689453"/>
    </g>
   </g>
   <g id="text_8">
    <!-- mopt-0-exid2 -->
    <g transform="translate(7.2 69.153237)scale(0.14 -0.14)">
     <defs>
      <path id="DejaVuSans-6d" d="M 3328 2828 
Q 3544 3216 3844 3400 
Q 4144 3584 4550 3584 
Q 5097 3584 5394 3201 
Q 5691 2819 5691 2113 
L 5691 0 
L 5113 0 
L 5113 2094 
Q 5113 2597 4934 2840 
Q 4756 3084 4391 3084 
Q 3944 3084 3684 2787 
Q 3425 2491 3425 1978 
L 3425 0 
L 2847 0 
L 2847 2094 
Q 2847 2600 2669 2842 
Q 2491 3084 2119 3084 
Q 1678 3084 1418 2786 
Q 1159 2488 1159 1978 
L 1159 0 
L 581 0 
L 581 3500 
L 1159 3500 
L 1159 2956 
Q 1356 3278 1631 3431 
Q 1906 3584 2284 3584 
Q 2666 3584 2933 3390 
Q 3200 3197 3328 2828 
z
" transform="scale(0.015625)"/>
      <path id="DejaVuSans-6f" d="M 1959 3097 
Q 1497 3097 1228 2736 
Q 959 2375 959 1747 
Q 959 1119 1226 758 
Q 1494 397 1959 397 
Q 2419 397 2687 759 
Q 2956 1122 2956 1747 
Q 2956 2369 2687 2733 
Q 2419 3097 1959 3097 
z
M 1959 3584 
Q 2709 3584 3137 3096 
Q 3566 2609 3566 1747 
Q 3566 888 3137 398 
Q 2709 -91 1959 -91 
Q 1206 -91 779 398 
Q 353 888 353 1747 
Q 353 2609 779 3096 
Q 1206 3584 1959 3584 
z
" transform="scale(0.015625)"/>
      <path id="DejaVuSans-70" d="M 1159 525 
L 1159 -1331 
L 581 -1331 
L 581 3500 
L 1159 3500 
L 1159 2969 
Q 1341 3281 1617 3432 
Q 1894 3584 2278 3584 
Q 2916 3584 3314 3078 
Q 3713 2572 3713 1747 
Q 3713 922 3314 415 
Q 2916 -91 2278 -91 
Q 1894 -91 1617 61 
Q 1341 213 1159 525 
z
M 3116 1747 
Q 3116 2381 2855 2742 
Q 2594 3103 2138 3103 
Q 1681 3103 1420 2742 
Q 1159 2381 1159 1747 
Q 1159 1113 1420 752 
Q 1681 391 2138 391 
Q 2594 391 2855 752 
Q 3116 1113 3116 1747 
z
" transform="scale(0.015625)"/>
      <path id="DejaVuSans-74" d="M 1172 4494 
L 1172 3500 
L 2356 3500 
L 2356 3053 
L 1172 3053 
L 1172 1153 
Q 1172 725 1289 603 
Q 1406 481 1766 481 
L 2356 481 
L 2356 0 
L 1766 0 
Q 1100 0 847 248 
Q 594 497 594 1153 
L 594 3053 
L 172 3053 
L 172 3500 
L 594 3500 
L 594 4494 
L 1172 4494 
z
" transform="scale(0.015625)"/>
      <path id="DejaVuSans-2d" d="M 313 2009 
L 1997 2009 
L 1997 1497 
L 313 1497 
L 313 2009 
z
" transform="scale(0.015625)"/>
      <path id="DejaVuSans-65" d="M 3597 1894 
L 3597 1613 
L 953 1613 
Q 991 1019 1311 708 
Q 1631 397 2203 397 
Q 2534 397 2845 478 
Q 3156 559 3463 722 
L 3463 178 
Q 3153 47 2828 -22 
Q 2503 -91 2169 -91 
Q 1331 -91 842 396 
Q 353 884 353 1716 
Q 353 2575 817 3079 
Q 1281 3584 2069 3584 
Q 2775 3584 3186 3129 
Q 3597 2675 3597 1894 
z
M 3022 2063 
Q 3016 2534 2758 2815 
Q 2500 3097 2075 3097 
Q 1594 3097 1305 2825 
Q 1016 2553 972 2059 
L 3022 2063 
z
" transform="scale(0.015625)"/>
      <path id="DejaVuSans-78" d="M 3513 3500 
L 2247 1797 
L 3578 0 
L 2900 0 
L 1881 1375 
L 863 0 
L 184 0 
L 1544 1831 
L 300 3500 
L 978 3500 
L 1906 2253 
L 2834 3500 
L 3513 3500 
z
" transform="scale(0.015625)"/>
      <path id="DejaVuSans-69" d="M 603 3500 
L 1178 3500 
L 1178 0 
L 603 0 
L 603 3500 
z
M 603 4863 
L 1178 4863 
L 1178 4134 
L 603 4134 
L 603 4863 
z
" transform="scale(0.015625)"/>
      <path id="DejaVuSans-64" d="M 2906 2969 
L 2906 4863 
L 3481 4863 
L 3481 0 
L 2906 0 
L 2906 525 
Q 2725 213 2448 61 
Q 2172 -91 1784 -91 
Q 1150 -91 751 415 
Q 353 922 353 1747 
Q 353 2572 751 3078 
Q 1150 3584 1784 3584 
Q 2172 3584 2448 3432 
Q 2725 3281 2906 2969 
z
M 947 1747 
Q 947 1113 1208 752 
Q 1469 391 1925 391 
Q 2381 391 2643 752 
Q 2906 1113 2906 1747 
Q 2906 2381 2643 2742 
Q 2381 3103 1925 3103 
Q 1469 3103 1208 2742 
Q 947 2381 947 1747 
z
" transform="scale(0.015625)"/>
      <path id="DejaVuSans-32" d="M 1228 531 
L 3431 531 
L 3431 0 
L 469 0 
L 469 531 
Q 828 903 1448 1529 
Q 2069 2156 2228 2338 
Q 2531 2678 2651 2914 
Q 2772 3150 2772 3378 
Q 2772 3750 2511 3984 
Q 2250 4219 1831 4219 
Q 1534 4219 1204 4116 
Q 875 4013 500 3803 
L 500 4441 
Q 881 4594 1212 4672 
Q 1544 4750 1819 4750 
Q 2544 4750 2975 4387 
Q 3406 4025 3406 3419 
Q 3406 3131 3298 2873 
Q 3191 2616 2906 2266 
Q 2828 2175 2409 1742 
Q 1991 1309 1228 531 
z
" transform="scale(0.015625)"/>
     </defs>
     <use xlink:href="#DejaVuSans-6d"/>
     <use xlink:href="#DejaVuSans-6f" x="97.412109"/>
     <use xlink:href="#DejaVuSans-70" x="158.59375"/>
     <use xlink:href="#DejaVuSans-74" x="222.070312"/>
     <use xlink:href="#DejaVuSans-2d" x="261.279297"/>
     <use xlink:href="#DejaVuSans-30" x="297.363281"/>
     <use xlink:href="#DejaVuSans-2d" x="360.986328"/>
     <use xlink:href="#DejaVuSans-65" x="397.070312"/>
     <use xlink:href="#DejaVuSans-78" x="456.84375"/>
     <use xlink:href="#DejaVuSans-69" x="516.023438"/>
     <use xlink:href="#DejaVuSans-64" x="543.806641"/>
     <use xlink:href="#DejaVuSans-32" x="607.283203"/>
    </g>
   </g>
   <g id="text_9">
    <!-- fairfuzz-0-exid2 -->
    <g transform="translate(450.401062 69.153237)scale(0.14 -0.14)">
     <defs>
      <path id="DejaVuSans-66" d="M 2375 4863 
L 2375 4384 
L 1825 4384 
Q 1516 4384 1395 4259 
Q 1275 4134 1275 3809 
L 1275 3500 
L 2222 3500 
L 2222 3053 
L 1275 3053 
L 1275 0 
L 697 0 
L 697 3053 
L 147 3053 
L 147 3500 
L 697 3500 
L 697 3744 
Q 697 4328 969 4595 
Q 1241 4863 1831 4863 
L 2375 4863 
z
" transform="scale(0.015625)"/>
      <path id="DejaVuSans-61" d="M 2194 1759 
Q 1497 1759 1228 1600 
Q 959 1441 959 1056 
Q 959 750 1161 570 
Q 1363 391 1709 391 
Q 2188 391 2477 730 
Q 2766 1069 2766 1631 
L 2766 1759 
L 2194 1759 
z
M 3341 1997 
L 3341 0 
L 2766 0 
L 2766 531 
Q 2569 213 2275 61 
Q 1981 -91 1556 -91 
Q 1019 -91 701 211 
Q 384 513 384 1019 
Q 384 1609 779 1909 
Q 1175 2209 1959 2209 
L 2766 2209 
L 2766 2266 
Q 2766 2663 2505 2880 
Q 2244 3097 1772 3097 
Q 1472 3097 1187 3025 
Q 903 2953 641 2809 
L 641 3341 
Q 956 3463 1253 3523 
Q 1550 3584 1831 3584 
Q 2591 3584 2966 3190 
Q 3341 2797 3341 1997 
z
" transform="scale(0.015625)"/>
      <path id="DejaVuSans-72" d="M 2631 2963 
Q 2534 3019 2420 3045 
Q 2306 3072 2169 3072 
Q 1681 3072 1420 2755 
Q 1159 2438 1159 1844 
L 1159 0 
L 581 0 
L 581 3500 
L 1159 3500 
L 1159 2956 
Q 1341 3275 1631 3429 
Q 1922 3584 2338 3584 
Q 2397 3584 2469 3576 
Q 2541 3569 2628 3553 
L 2631 2963 
z
" transform="scale(0.015625)"/>
      <path id="DejaVuSans-75" d="M 544 1381 
L 544 3500 
L 1119 3500 
L 1119 1403 
Q 1119 906 1312 657 
Q 1506 409 1894 409 
Q 2359 409 2629 706 
Q 2900 1003 2900 1516 
L 2900 3500 
L 3475 3500 
L 3475 0 
L 2900 0 
L 2900 538 
Q 2691 219 2414 64 
Q 2138 -91 1772 -91 
Q 1169 -91 856 284 
Q 544 659 544 1381 
z
M 1991 3584 
L 1991 3584 
z
" transform="scale(0.015625)"/>
      <path id="DejaVuSans-7a" d="M 353 3500 
L 3084 3500 
L 3084 2975 
L 922 459 
L 3084 459 
L 3084 0 
L 275 0 
L 275 525 
L 2438 3041 
L 353 3041 
L 353 3500 
z
" transform="scale(0.015625)"/>
     </defs>
     <use xlink:href="#DejaVuSans-66"/>
     <use xlink:href="#DejaVuSans-61" x="35.205078"/>
     <use xlink:href="#DejaVuSans-69" x="96.484375"/>
     <use xlink:href="#DejaVuSans-72" x="124.267578"/>
     <use xlink:href="#DejaVuSans-66" x="165.380859"/>
     <use xlink:href="#DejaVuSans-75" x="200.585938"/>
     <use xlink:href="#DejaVuSans-7a" x="263.964844"/>
     <use xlink:href="#DejaVuSans-7a" x="316.455078"/>
     <use xlink:href="#DejaVuSans-2d" x="368.945312"/>
     <use xlink:href="#DejaVuSans-30" x="405.029297"/>
     <use xlink:href="#DejaVuSans-2d" x="468.652344"/>
     <use xlink:href="#DejaVuSans-65" x="504.736328"/>
     <use xlink:href="#DejaVuSans-78" x="564.509766"/>
     <use xlink:href="#DejaVuSans-69" x="623.689453"/>
     <use xlink:href="#DejaVuSans-64" x="651.472656"/>
     <use xlink:href="#DejaVuSans-32" x="714.949219"/>
    </g>
   </g>
   <g id="text_10">
    <!-- symcc-0-exid2 -->
    <g transform="translate(224.784281 506.818612)scale(0.14 -0.14)">
     <defs>
      <path id="DejaVuSans-73" d="M 2834 3397 
L 2834 2853 
Q 2591 2978 2328 3040 
Q 2066 3103 1784 3103 
Q 1356 3103 1142 2972 
Q 928 2841 928 2578 
Q 928 2378 1081 2264 
Q 1234 2150 1697 2047 
L 1894 2003 
Q 2506 1872 2764 1633 
Q 3022 1394 3022 966 
Q 3022 478 2636 193 
Q 2250 -91 1575 -91 
Q 1294 -91 989 -36 
Q 684 19 347 128 
L 347 722 
Q 666 556 975 473 
Q 1284 391 1588 391 
Q 1994 391 2212 530 
Q 2431 669 2431 922 
Q 2431 1156 2273 1281 
Q 2116 1406 1581 1522 
L 1381 1569 
Q 847 1681 609 1914 
Q 372 2147 372 2553 
Q 372 3047 722 3315 
Q 1072 3584 1716 3584 
Q 2034 3584 2315 3537 
Q 2597 3491 2834 3397 
z
" transform="scale(0.015625)"/>
      <path id="DejaVuSans-79" d="M 2059 -325 
Q 1816 -950 1584 -1140 
Q 1353 -1331 966 -1331 
L 506 -1331 
L 506 -850 
L 844 -850 
Q 1081 -850 1212 -737 
Q 1344 -625 1503 -206 
L 1606 56 
L 191 3500 
L 800 3500 
L 1894 763 
L 2988 3500 
L 3597 3500 
L 2059 -325 
z
" transform="scale(0.015625)"/>
      <path id="DejaVuSans-63" d="M 3122 3366 
L 3122 2828 
Q 2878 2963 2633 3030 
Q 2388 3097 2138 3097 
Q 1578 3097 1268 2742 
Q 959 2388 959 1747 
Q 959 1106 1268 751 
Q 1578 397 2138 397 
Q 2388 397 2633 464 
Q 2878 531 3122 666 
L 3122 134 
Q 2881 22 2623 -34 
Q 2366 -91 2075 -91 
Q 1284 -91 818 406 
Q 353 903 353 1747 
Q 353 2603 823 3093 
Q 1294 3584 2113 3584 
Q 2378 3584 2631 3529 
Q 2884 3475 3122 3366 
z
" transform="scale(0.015625)"/>
     </defs>
     <use xlink:href="#DejaVuSans-73"/>
     <use xlink:href="#DejaVuSans-79" x="52.099609"/>
     <use xlink:href="#DejaVuSans-6d" x="111.279297"/>
     <use xlink:href="#DejaVuSans-63" x="208.691406"/>
     <use xlink:href="#DejaVuSans-63" x="263.671875"/>
     <use xlink:href="#DejaVuSans-2d" x="318.652344"/>
     <use xlink:href="#DejaVuSans-30" x="354.736328"/>
     <use xlink:href="#DejaVuSans-2d" x="418.359375"/>
     <use xlink:href="#DejaVuSans-65" x="454.443359"/>
     <use xlink:href="#DejaVuSans-78" x="514.216797"/>
     <use xlink:href="#DejaVuSans-69" x="573.396484"/>
     <use xlink:href="#DejaVuSans-64" x="601.179688"/>
     <use xlink:href="#DejaVuSans-32" x="664.65625"/>
    </g>
   </g>
   <g id="legend_1">
    <g id="patch_5">
     <path d="M 532.945062 282.548906 
L 653.786937 282.548906 
Q 655.986937 282.548906 655.986937 280.348906 
L 655.986937 233.011094 
Q 655.986937 230.811094 653.786937 230.811094 
L 532.945062 230.811094 
Q 530.745062 230.811094 530.745062 233.011094 
L 530.745062 280.348906 
Q 530.745062 282.548906 532.945062 282.548906 
z
" style="fill: #ffffff; opacity: 0.5; stroke: #cccccc; stroke-linejoin: miter"/>
    </g>
    <g id="patch_6">
     <path d="M 535.145062 243.569375 
L 557.145062 243.569375 
L 557.145062 235.869375 
L 535.145062 235.869375 
z
" style="fill: #5cc062; fill-opacity: 0.5; stroke: #5cc062; stroke-opacity: 0.5; stroke-linejoin: miter"/>
    </g>
    <g id="text_11">
     <!-- mopt-0-exid2 -->
     <g style="fill: #262626" transform="translate(565.945062 243.569375)scale(0.11 -0.11)">
      <use xlink:href="#DejaVuSans-6d"/>
      <use xlink:href="#DejaVuSans-6f" x="97.412109"/>
      <use xlink:href="#DejaVuSans-70" x="158.59375"/>
      <use xlink:href="#DejaVuSans-74" x="222.070312"/>
      <use xlink:href="#DejaVuSans-2d" x="261.279297"/>
      <use xlink:href="#DejaVuSans-30" x="297.363281"/>
      <use xlink:href="#DejaVuSans-2d" x="360.986328"/>
      <use xlink:href="#DejaVuSans-65" x="397.070312"/>
      <use xlink:href="#DejaVuSans-78" x="456.84375"/>
      <use xlink:href="#DejaVuSans-69" x="516.023438"/>
      <use xlink:href="#DejaVuSans-64" x="543.806641"/>
      <use xlink:href="#DejaVuSans-32" x="607.283203"/>
     </g>
    </g>
    <g id="patch_7">
     <path d="M 535.145062 259.715312 
L 557.145062 259.715312 
L 557.145062 252.015312 
L 535.145062 252.015312 
z
" style="fill: #5a9bd4; fill-opacity: 0.5; stroke: #5a9bd4; stroke-opacity: 0.5; stroke-linejoin: miter"/>
    </g>
    <g id="text_12">
     <!-- fairfuzz-0-exid2 -->
     <g style="fill: #262626" transform="translate(565.945062 259.715312)scale(0.11 -0.11)">
      <use xlink:href="#DejaVuSans-66"/>
      <use xlink:href="#DejaVuSans-61" x="35.205078"/>
      <use xlink:href="#DejaVuSans-69" x="96.484375"/>
      <use xlink:href="#DejaVuSans-72" x="124.267578"/>
      <use xlink:href="#DejaVuSans-66" x="165.380859"/>
      <use xlink:href="#DejaVuSans-75" x="200.585938"/>
      <use xlink:href="#DejaVuSans-7a" x="263.964844"/>
      <use xlink:href="#DejaVuSans-7a" x="316.455078"/>
      <use xlink:href="#DejaVuSans-2d" x="368.945312"/>
      <use xlink:href="#DejaVuSans-30" x="405.029297"/>
      <use xlink:href="#DejaVuSans-2d" x="468.652344"/>
      <use xlink:href="#DejaVuSans-65" x="504.736328"/>
      <use xlink:href="#DejaVuSans-78" x="564.509766"/>
      <use xlink:href="#DejaVuSans-69" x="623.689453"/>
      <use xlink:href="#DejaVuSans-64" x="651.472656"/>
      <use xlink:href="#DejaVuSans-32" x="714.949219"/>
     </g>
    </g>
    <g id="patch_8">
     <path d="M 535.145062 275.86125 
L 557.145062 275.86125 
L 557.145062 268.16125 
L 535.145062 268.16125 
z
" style="fill: #f6ec56; fill-opacity: 0.6; stroke: #f6ec56; stroke-opacity: 0.6; stroke-linejoin: miter"/>
    </g>
    <g id="text_13">
     <!-- symcc-0-exid2 -->
     <g style="fill: #262626" transform="translate(565.945062 275.86125)scale(0.11 -0.11)">
      <use xlink:href="#DejaVuSans-73"/>
      <use xlink:href="#DejaVuSans-79" x="52.099609"/>
      <use xlink:href="#DejaVuSans-6d" x="111.279297"/>
      <use xlink:href="#DejaVuSans-63" x="208.691406"/>
      <use xlink:href="#DejaVuSans-63" x="263.671875"/>
      <use xlink:href="#DejaVuSans-2d" x="318.652344"/>
      <use xlink:href="#DejaVuSans-30" x="354.736328"/>
      <use xlink:href="#DejaVuSans-2d" x="418.359375"/>
      <use xlink:href="#DejaVuSans-65" x="454.443359"/>
      <use xlink:href="#DejaVuSans-78" x="514.216797"/>
      <use xlink:href="#DejaVuSans-69" x="573.396484"/>
      <use xlink:href="#DejaVuSans-64" x="601.179688"/>
      <use xlink:href="#DejaVuSans-32" x="664.65625"/>
     </g>
    </g>
   </g>
  </g>
 </g>
 <defs>
  <clipPath id="pa7d53bc24d">
   <rect x="26.285063" y="7.2" width="498.96" height="498.96"/>
  </clipPath>
 </defs>
</svg>
