<?xml version="1.0" encoding="utf-8" standalone="no"?>
<!DOCTYPE svg PUBLIC "-//W3C//DTD SVG 1.1//EN"
  "http://www.w3.org/Graphics/SVG/1.1/DTD/svg11.dtd">
<svg xmlns:xlink="http://www.w3.org/1999/xlink" width="433.8pt" height="576pt" viewBox="0 0 433.8 576" xmlns="http://www.w3.org/2000/svg" version="1.1">
 <metadata>
  <rdf:RDF xmlns:dc="http://purl.org/dc/elements/1.1/" xmlns:cc="http://creativecommons.org/ns#" xmlns:rdf="http://www.w3.org/1999/02/22-rdf-syntax-ns#">
   <cc:Work>
    <dc:type rdf:resource="http://purl.org/dc/dcmitype/StillImage"/>
    <dc:date>2022-09-15T10:55:26.063601</dc:date>
    <dc:format>image/svg+xml</dc:format>
    <dc:creator>
     <cc:Agent>
      <dc:title>Matplotlib v3.5.3, https://matplotlib.org/</dc:title>
     </cc:Agent>
    </dc:creator>
   </cc:Work>
  </rdf:RDF>
 </metadata>
 <defs>
  <style type="text/css">*{stroke-linejoin: round; stroke-linecap: butt}</style>
 </defs>
 <g id="figure_1">
  <g id="patch_1">
   <path d="M 0 576 
L 433.8 576 
L 433.8 0 
L 0 0 
z
" style="fill: #ffffff"/>
  </g>
  <g id="axes_1">
   <g id="patch_2">
    <path d="M 54.225 512.64 
L 390.42 512.64 
L 390.42 69.12 
L 54.225 69.12 
z
" style="fill: #ffffff"/>
   </g>
   <g id="matplotlib.axis_1">
    <g id="xtick_1">
     <g id="line2d_1">
      <path d="M 69.506591 512.64 
L 69.506591 69.12 
" clip-path="url(#p5e12ad35ea)" style="fill: none; stroke: #cccccc; stroke-width: 0.8; stroke-linecap: round"/>
     </g>
     <g id="text_1">
      <!-- 0 -->
      <g style="fill: #262626" transform="translate(69.244078 529.627249)rotate(-45)scale(0.088 -0.088)">
       <defs>
        <path id="DejaVuSans-30" d="M 2034 4250 
Q 1547 4250 1301 3770 
Q 1056 3291 1056 2328 
Q 1056 1369 1301 889 
Q 1547 409 2034 409 
Q 2525 409 2770 889 
Q 3016 1369 3016 2328 
Q 3016 3291 2770 3770 
Q 2525 4250 2034 4250 
z
M 2034 4750 
Q 2819 4750 3233 4129 
Q 3647 3509 3647 2328 
Q 3647 1150 3233 529 
Q 2819 -91 2034 -91 
Q 1250 -91 836 529 
Q 422 1150 422 2328 
Q 422 3509 836 4129 
Q 1250 4750 2034 4750 
z
" transform="scale(0.015625)"/>
       </defs>
       <use xlink:href="#DejaVuSans-30"/>
      </g>
     </g>
    </g>
    <g id="xtick_2">
     <g id="line2d_2">
      <path d="M 86.533433 512.64 
L 86.533433 69.12 
" clip-path="url(#p5e12ad35ea)" style="fill: none; stroke: #cccccc; stroke-width: 0.8; stroke-linecap: round"/>
     </g>
     <g id="text_2">
      <!-- 80 -->
      <g style="fill: #262626" transform="translate(84.291374 533.58634)rotate(-45)scale(0.088 -0.088)">
       <defs>
        <path id="DejaVuSans-38" d="M 2034 2216 
Q 1584 2216 1326 1975 
Q 1069 1734 1069 1313 
Q 1069 891 1326 650 
Q 1584 409 2034 409 
Q 2484 409 2743 651 
Q 3003 894 3003 1313 
Q 3003 1734 2745 1975 
Q 2488 2216 2034 2216 
z
M 1403 2484 
Q 997 2584 770 2862 
Q 544 3141 544 3541 
Q 544 4100 942 4425 
Q 1341 4750 2034 4750 
Q 2731 4750 3128 4425 
Q 3525 4100 3525 3541 
Q 3525 3141 3298 2862 
Q 3072 2584 2669 2484 
Q 3125 2378 3379 2068 
Q 3634 1759 3634 1313 
Q 3634 634 3220 271 
Q 2806 -91 2034 -91 
Q 1263 -91 848 271 
Q 434 634 434 1313 
Q 434 1759 690 2068 
Q 947 2378 1403 2484 
z
M 1172 3481 
Q 1172 3119 1398 2916 
Q 1625 2713 2034 2713 
Q 2441 2713 2670 2916 
Q 2900 3119 2900 3481 
Q 2900 3844 2670 4047 
Q 2441 4250 2034 4250 
Q 1625 4250 1398 4047 
Q 1172 3844 1172 3481 
z
" transform="scale(0.015625)"/>
       </defs>
       <use xlink:href="#DejaVuSans-38"/>
       <use xlink:href="#DejaVuSans-30" x="63.623047"/>
      </g>
     </g>
    </g>
    <g id="xtick_3">
     <g id="line2d_3">
      <path d="M 103.560275 512.64 
L 103.560275 69.12 
" clip-path="url(#p5e12ad35ea)" style="fill: none; stroke: #cccccc; stroke-width: 0.8; stroke-linecap: round"/>
     </g>
     <g id="text_3">
      <!-- 160 -->
      <g style="fill: #262626" transform="translate(99.338671 537.54543)rotate(-45)scale(0.088 -0.088)">
       <defs>
        <path id="DejaVuSans-31" d="M 794 531 
L 1825 531 
L 1825 4091 
L 703 3866 
L 703 4441 
L 1819 4666 
L 2450 4666 
L 2450 531 
L 3481 531 
L 3481 0 
L 794 0 
L 794 531 
z
" transform="scale(0.015625)"/>
        <path id="DejaVuSans-36" d="M 2113 2584 
Q 1688 2584 1439 2293 
Q 1191 2003 1191 1497 
Q 1191 994 1439 701 
Q 1688 409 2113 409 
Q 2538 409 2786 701 
Q 3034 994 3034 1497 
Q 3034 2003 2786 2293 
Q 2538 2584 2113 2584 
z
M 3366 4563 
L 3366 3988 
Q 3128 4100 2886 4159 
Q 2644 4219 2406 4219 
Q 1781 4219 1451 3797 
Q 1122 3375 1075 2522 
Q 1259 2794 1537 2939 
Q 1816 3084 2150 3084 
Q 2853 3084 3261 2657 
Q 3669 2231 3669 1497 
Q 3669 778 3244 343 
Q 2819 -91 2113 -91 
Q 1303 -91 875 529 
Q 447 1150 447 2328 
Q 447 3434 972 4092 
Q 1497 4750 2381 4750 
Q 2619 4750 2861 4703 
Q 3103 4656 3366 4563 
z
" transform="scale(0.015625)"/>
       </defs>
       <use xlink:href="#DejaVuSans-31"/>
       <use xlink:href="#DejaVuSans-36" x="63.623047"/>
       <use xlink:href="#DejaVuSans-30" x="127.246094"/>
      </g>
     </g>
    </g>
    <g id="xtick_4">
     <g id="line2d_4">
      <path d="M 120.587118 512.64 
L 120.587118 69.12 
" clip-path="url(#p5e12ad35ea)" style="fill: none; stroke: #cccccc; stroke-width: 0.8; stroke-linecap: round"/>
     </g>
     <g id="text_4">
      <!-- 240 -->
      <g style="fill: #262626" transform="translate(116.365513 537.54543)rotate(-45)scale(0.088 -0.088)">
       <defs>
        <path id="DejaVuSans-32" d="M 1228 531 
L 3431 531 
L 3431 0 
L 469 0 
L 469 531 
Q 828 903 1448 1529 
Q 2069 2156 2228 2338 
Q 2531 2678 2651 2914 
Q 2772 3150 2772 3378 
Q 2772 3750 2511 3984 
Q 2250 4219 1831 4219 
Q 1534 4219 1204 4116 
Q 875 4013 500 3803 
L 500 4441 
Q 881 4594 1212 4672 
Q 1544 4750 1819 4750 
Q 2544 4750 2975 4387 
Q 3406 4025 3406 3419 
Q 3406 3131 3298 2873 
Q 3191 2616 2906 2266 
Q 2828 2175 2409 1742 
Q 1991 1309 1228 531 
z
" transform="scale(0.015625)"/>
        <path id="DejaVuSans-34" d="M 2419 4116 
L 825 1625 
L 2419 1625 
L 2419 4116 
z
M 2253 4666 
L 3047 4666 
L 3047 1625 
L 3713 1625 
L 3713 1100 
L 3047 1100 
L 3047 0 
L 2419 0 
L 2419 1100 
L 313 1100 
L 313 1709 
L 2253 4666 
z
" transform="scale(0.015625)"/>
       </defs>
       <use xlink:href="#DejaVuSans-32"/>
       <use xlink:href="#DejaVuSans-34" x="63.623047"/>
       <use xlink:href="#DejaVuSans-30" x="127.246094"/>
      </g>
     </g>
    </g>
    <g id="xtick_5">
     <g id="line2d_5">
      <path d="M 137.61396 512.64 
L 137.61396 69.12 
" clip-path="url(#p5e12ad35ea)" style="fill: none; stroke: #cccccc; stroke-width: 0.8; stroke-linecap: round"/>
     </g>
     <g id="text_5">
      <!-- 320 -->
      <g style="fill: #262626" transform="translate(133.392356 537.54543)rotate(-45)scale(0.088 -0.088)">
       <defs>
        <path id="DejaVuSans-33" d="M 2597 2516 
Q 3050 2419 3304 2112 
Q 3559 1806 3559 1356 
Q 3559 666 3084 287 
Q 2609 -91 1734 -91 
Q 1441 -91 1130 -33 
Q 819 25 488 141 
L 488 750 
Q 750 597 1062 519 
Q 1375 441 1716 441 
Q 2309 441 2620 675 
Q 2931 909 2931 1356 
Q 2931 1769 2642 2001 
Q 2353 2234 1838 2234 
L 1294 2234 
L 1294 2753 
L 1863 2753 
Q 2328 2753 2575 2939 
Q 2822 3125 2822 3475 
Q 2822 3834 2567 4026 
Q 2313 4219 1838 4219 
Q 1578 4219 1281 4162 
Q 984 4106 628 3988 
L 628 4550 
Q 988 4650 1302 4700 
Q 1616 4750 1894 4750 
Q 2613 4750 3031 4423 
Q 3450 4097 3450 3541 
Q 3450 3153 3228 2886 
Q 3006 2619 2597 2516 
z
" transform="scale(0.015625)"/>
       </defs>
       <use xlink:href="#DejaVuSans-33"/>
       <use xlink:href="#DejaVuSans-32" x="63.623047"/>
       <use xlink:href="#DejaVuSans-30" x="127.246094"/>
      </g>
     </g>
    </g>
    <g id="xtick_6">
     <g id="line2d_6">
      <path d="M 154.640802 512.64 
L 154.640802 69.12 
" clip-path="url(#p5e12ad35ea)" style="fill: none; stroke: #cccccc; stroke-width: 0.8; stroke-linecap: round"/>
     </g>
     <g id="text_6">
      <!-- 400 -->
      <g style="fill: #262626" transform="translate(150.419198 537.54543)rotate(-45)scale(0.088 -0.088)">
       <use xlink:href="#DejaVuSans-34"/>
       <use xlink:href="#DejaVuSans-30" x="63.623047"/>
       <use xlink:href="#DejaVuSans-30" x="127.246094"/>
      </g>
     </g>
    </g>
    <g id="xtick_7">
     <g id="line2d_7">
      <path d="M 171.667644 512.64 
L 171.667644 69.12 
" clip-path="url(#p5e12ad35ea)" style="fill: none; stroke: #cccccc; stroke-width: 0.8; stroke-linecap: round"/>
     </g>
     <g id="text_7">
      <!-- 480 -->
      <g style="fill: #262626" transform="translate(167.44604 537.54543)rotate(-45)scale(0.088 -0.088)">
       <use xlink:href="#DejaVuSans-34"/>
       <use xlink:href="#DejaVuSans-38" x="63.623047"/>
       <use xlink:href="#DejaVuSans-30" x="127.246094"/>
      </g>
     </g>
    </g>
    <g id="xtick_8">
     <g id="line2d_8">
      <path d="M 188.694487 512.64 
L 188.694487 69.12 
" clip-path="url(#p5e12ad35ea)" style="fill: none; stroke: #cccccc; stroke-width: 0.8; stroke-linecap: round"/>
     </g>
     <g id="text_8">
      <!-- 560 -->
      <g style="fill: #262626" transform="translate(184.472882 537.54543)rotate(-45)scale(0.088 -0.088)">
       <defs>
        <path id="DejaVuSans-35" d="M 691 4666 
L 3169 4666 
L 3169 4134 
L 1269 4134 
L 1269 2991 
Q 1406 3038 1543 3061 
Q 1681 3084 1819 3084 
Q 2600 3084 3056 2656 
Q 3513 2228 3513 1497 
Q 3513 744 3044 326 
Q 2575 -91 1722 -91 
Q 1428 -91 1123 -41 
Q 819 9 494 109 
L 494 744 
Q 775 591 1075 516 
Q 1375 441 1709 441 
Q 2250 441 2565 725 
Q 2881 1009 2881 1497 
Q 2881 1984 2565 2268 
Q 2250 2553 1709 2553 
Q 1456 2553 1204 2497 
Q 953 2441 691 2322 
L 691 4666 
z
" transform="scale(0.015625)"/>
       </defs>
       <use xlink:href="#DejaVuSans-35"/>
       <use xlink:href="#DejaVuSans-36" x="63.623047"/>
       <use xlink:href="#DejaVuSans-30" x="127.246094"/>
      </g>
     </g>
    </g>
    <g id="xtick_9">
     <g id="line2d_9">
      <path d="M 205.721329 512.64 
L 205.721329 69.12 
" clip-path="url(#p5e12ad35ea)" style="fill: none; stroke: #cccccc; stroke-width: 0.8; stroke-linecap: round"/>
     </g>
     <g id="text_9">
      <!-- 640 -->
      <g style="fill: #262626" transform="translate(201.499725 537.54543)rotate(-45)scale(0.088 -0.088)">
       <use xlink:href="#DejaVuSans-36"/>
       <use xlink:href="#DejaVuSans-34" x="63.623047"/>
       <use xlink:href="#DejaVuSans-30" x="127.246094"/>
      </g>
     </g>
    </g>
    <g id="xtick_10">
     <g id="line2d_10">
      <path d="M 222.748171 512.64 
L 222.748171 69.12 
" clip-path="url(#p5e12ad35ea)" style="fill: none; stroke: #cccccc; stroke-width: 0.8; stroke-linecap: round"/>
     </g>
     <g id="text_10">
      <!-- 720 -->
      <g style="fill: #262626" transform="translate(218.526567 537.54543)rotate(-45)scale(0.088 -0.088)">
       <defs>
        <path id="DejaVuSans-37" d="M 525 4666 
L 3525 4666 
L 3525 4397 
L 1831 0 
L 1172 0 
L 2766 4134 
L 525 4134 
L 525 4666 
z
" transform="scale(0.015625)"/>
       </defs>
       <use xlink:href="#DejaVuSans-37"/>
       <use xlink:href="#DejaVuSans-32" x="63.623047"/>
       <use xlink:href="#DejaVuSans-30" x="127.246094"/>
      </g>
     </g>
    </g>
    <g id="xtick_11">
     <g id="line2d_11">
      <path d="M 239.775013 512.64 
L 239.775013 69.12 
" clip-path="url(#p5e12ad35ea)" style="fill: none; stroke: #cccccc; stroke-width: 0.8; stroke-linecap: round"/>
     </g>
     <g id="text_11">
      <!-- 800 -->
      <g style="fill: #262626" transform="translate(235.553409 537.54543)rotate(-45)scale(0.088 -0.088)">
       <use xlink:href="#DejaVuSans-38"/>
       <use xlink:href="#DejaVuSans-30" x="63.623047"/>
       <use xlink:href="#DejaVuSans-30" x="127.246094"/>
      </g>
     </g>
    </g>
    <g id="xtick_12">
     <g id="line2d_12">
      <path d="M 256.801856 512.64 
L 256.801856 69.12 
" clip-path="url(#p5e12ad35ea)" style="fill: none; stroke: #cccccc; stroke-width: 0.8; stroke-linecap: round"/>
     </g>
     <g id="text_12">
      <!-- 880 -->
      <g style="fill: #262626" transform="translate(252.580251 537.54543)rotate(-45)scale(0.088 -0.088)">
       <use xlink:href="#DejaVuSans-38"/>
       <use xlink:href="#DejaVuSans-38" x="63.623047"/>
       <use xlink:href="#DejaVuSans-30" x="127.246094"/>
      </g>
     </g>
    </g>
    <g id="xtick_13">
     <g id="line2d_13">
      <path d="M 273.828698 512.64 
L 273.828698 69.12 
" clip-path="url(#p5e12ad35ea)" style="fill: none; stroke: #cccccc; stroke-width: 0.8; stroke-linecap: round"/>
     </g>
     <g id="text_13">
      <!-- 960 -->
      <g style="fill: #262626" transform="translate(269.607094 537.54543)rotate(-45)scale(0.088 -0.088)">
       <defs>
        <path id="DejaVuSans-39" d="M 703 97 
L 703 672 
Q 941 559 1184 500 
Q 1428 441 1663 441 
Q 2288 441 2617 861 
Q 2947 1281 2994 2138 
Q 2813 1869 2534 1725 
Q 2256 1581 1919 1581 
Q 1219 1581 811 2004 
Q 403 2428 403 3163 
Q 403 3881 828 4315 
Q 1253 4750 1959 4750 
Q 2769 4750 3195 4129 
Q 3622 3509 3622 2328 
Q 3622 1225 3098 567 
Q 2575 -91 1691 -91 
Q 1453 -91 1209 -44 
Q 966 3 703 97 
z
M 1959 2075 
Q 2384 2075 2632 2365 
Q 2881 2656 2881 3163 
Q 2881 3666 2632 3958 
Q 2384 4250 1959 4250 
Q 1534 4250 1286 3958 
Q 1038 3666 1038 3163 
Q 1038 2656 1286 2365 
Q 1534 2075 1959 2075 
z
" transform="scale(0.015625)"/>
       </defs>
       <use xlink:href="#DejaVuSans-39"/>
       <use xlink:href="#DejaVuSans-36" x="63.623047"/>
       <use xlink:href="#DejaVuSans-30" x="127.246094"/>
      </g>
     </g>
    </g>
    <g id="xtick_14">
     <g id="line2d_14">
      <path d="M 290.85554 512.64 
L 290.85554 69.12 
" clip-path="url(#p5e12ad35ea)" style="fill: none; stroke: #cccccc; stroke-width: 0.8; stroke-linecap: round"/>
     </g>
     <g id="text_14">
      <!-- 1040 -->
      <g style="fill: #262626" transform="translate(284.65439 541.504521)rotate(-45)scale(0.088 -0.088)">
       <use xlink:href="#DejaVuSans-31"/>
       <use xlink:href="#DejaVuSans-30" x="63.623047"/>
       <use xlink:href="#DejaVuSans-34" x="127.246094"/>
       <use xlink:href="#DejaVuSans-30" x="190.869141"/>
      </g>
     </g>
    </g>
    <g id="xtick_15">
     <g id="line2d_15">
      <path d="M 307.882382 512.64 
L 307.882382 69.12 
" clip-path="url(#p5e12ad35ea)" style="fill: none; stroke: #cccccc; stroke-width: 0.8; stroke-linecap: round"/>
     </g>
     <g id="text_15">
      <!-- 1120 -->
      <g style="fill: #262626" transform="translate(301.681233 541.504521)rotate(-45)scale(0.088 -0.088)">
       <use xlink:href="#DejaVuSans-31"/>
       <use xlink:href="#DejaVuSans-31" x="63.623047"/>
       <use xlink:href="#DejaVuSans-32" x="127.246094"/>
       <use xlink:href="#DejaVuSans-30" x="190.869141"/>
      </g>
     </g>
    </g>
    <g id="xtick_16">
     <g id="line2d_16">
      <path d="M 324.909224 512.64 
L 324.909224 69.12 
" clip-path="url(#p5e12ad35ea)" style="fill: none; stroke: #cccccc; stroke-width: 0.8; stroke-linecap: round"/>
     </g>
     <g id="text_16">
      <!-- 1200 -->
      <g style="fill: #262626" transform="translate(318.708075 541.504521)rotate(-45)scale(0.088 -0.088)">
       <use xlink:href="#DejaVuSans-31"/>
       <use xlink:href="#DejaVuSans-32" x="63.623047"/>
       <use xlink:href="#DejaVuSans-30" x="127.246094"/>
       <use xlink:href="#DejaVuSans-30" x="190.869141"/>
      </g>
     </g>
    </g>
    <g id="xtick_17">
     <g id="line2d_17">
      <path d="M 341.936067 512.64 
L 341.936067 69.12 
" clip-path="url(#p5e12ad35ea)" style="fill: none; stroke: #cccccc; stroke-width: 0.8; stroke-linecap: round"/>
     </g>
     <g id="text_17">
      <!-- 1280 -->
      <g style="fill: #262626" transform="translate(335.734917 541.504521)rotate(-45)scale(0.088 -0.088)">
       <use xlink:href="#DejaVuSans-31"/>
       <use xlink:href="#DejaVuSans-32" x="63.623047"/>
       <use xlink:href="#DejaVuSans-38" x="127.246094"/>
       <use xlink:href="#DejaVuSans-30" x="190.869141"/>
      </g>
     </g>
    </g>
    <g id="xtick_18">
     <g id="line2d_18">
      <path d="M 358.962909 512.64 
L 358.962909 69.12 
" clip-path="url(#p5e12ad35ea)" style="fill: none; stroke: #cccccc; stroke-width: 0.8; stroke-linecap: round"/>
     </g>
     <g id="text_18">
      <!-- 1360 -->
      <g style="fill: #262626" transform="translate(352.761759 541.504521)rotate(-45)scale(0.088 -0.088)">
       <use xlink:href="#DejaVuSans-31"/>
       <use xlink:href="#DejaVuSans-33" x="63.623047"/>
       <use xlink:href="#DejaVuSans-36" x="127.246094"/>
       <use xlink:href="#DejaVuSans-30" x="190.869141"/>
      </g>
     </g>
    </g>
    <g id="xtick_19">
     <g id="line2d_19">
      <path d="M 375.989751 512.64 
L 375.989751 69.12 
" clip-path="url(#p5e12ad35ea)" style="fill: none; stroke: #cccccc; stroke-width: 0.8; stroke-linecap: round"/>
     </g>
     <g id="text_19">
      <!-- 1440 -->
      <g style="fill: #262626" transform="translate(369.788602 541.504521)rotate(-45)scale(0.088 -0.088)">
       <use xlink:href="#DejaVuSans-31"/>
       <use xlink:href="#DejaVuSans-34" x="63.623047"/>
       <use xlink:href="#DejaVuSans-34" x="127.246094"/>
       <use xlink:href="#DejaVuSans-30" x="190.869141"/>
      </g>
     </g>
    </g>
    <g id="text_20">
     <!-- Time (Minutes) -->
     <g style="fill: #262626" transform="translate(186.4125 554.093115)scale(0.096 -0.096)">
      <defs>
       <path id="DejaVuSans-54" d="M -19 4666 
L 3928 4666 
L 3928 4134 
L 2272 4134 
L 2272 0 
L 1638 0 
L 1638 4134 
L -19 4134 
L -19 4666 
z
" transform="scale(0.015625)"/>
       <path id="DejaVuSans-69" d="M 603 3500 
L 1178 3500 
L 1178 0 
L 603 0 
L 603 3500 
z
M 603 4863 
L 1178 4863 
L 1178 4134 
L 603 4134 
L 603 4863 
z
" transform="scale(0.015625)"/>
       <path id="DejaVuSans-6d" d="M 3328 2828 
Q 3544 3216 3844 3400 
Q 4144 3584 4550 3584 
Q 5097 3584 5394 3201 
Q 5691 2819 5691 2113 
L 5691 0 
L 5113 0 
L 5113 2094 
Q 5113 2597 4934 2840 
Q 4756 3084 4391 3084 
Q 3944 3084 3684 2787 
Q 3425 2491 3425 1978 
L 3425 0 
L 2847 0 
L 2847 2094 
Q 2847 2600 2669 2842 
Q 2491 3084 2119 3084 
Q 1678 3084 1418 2786 
Q 1159 2488 1159 1978 
L 1159 0 
L 581 0 
L 581 3500 
L 1159 3500 
L 1159 2956 
Q 1356 3278 1631 3431 
Q 1906 3584 2284 3584 
Q 2666 3584 2933 3390 
Q 3200 3197 3328 2828 
z
" transform="scale(0.015625)"/>
       <path id="DejaVuSans-65" d="M 3597 1894 
L 3597 1613 
L 953 1613 
Q 991 1019 1311 708 
Q 1631 397 2203 397 
Q 2534 397 2845 478 
Q 3156 559 3463 722 
L 3463 178 
Q 3153 47 2828 -22 
Q 2503 -91 2169 -91 
Q 1331 -91 842 396 
Q 353 884 353 1716 
Q 353 2575 817 3079 
Q 1281 3584 2069 3584 
Q 2775 3584 3186 3129 
Q 3597 2675 3597 1894 
z
M 3022 2063 
Q 3016 2534 2758 2815 
Q 2500 3097 2075 3097 
Q 1594 3097 1305 2825 
Q 1016 2553 972 2059 
L 3022 2063 
z
" transform="scale(0.015625)"/>
       <path id="DejaVuSans-20" transform="scale(0.015625)"/>
       <path id="DejaVuSans-28" d="M 1984 4856 
Q 1566 4138 1362 3434 
Q 1159 2731 1159 2009 
Q 1159 1288 1364 580 
Q 1569 -128 1984 -844 
L 1484 -844 
Q 1016 -109 783 600 
Q 550 1309 550 2009 
Q 550 2706 781 3412 
Q 1013 4119 1484 4856 
L 1984 4856 
z
" transform="scale(0.015625)"/>
       <path id="DejaVuSans-4d" d="M 628 4666 
L 1569 4666 
L 2759 1491 
L 3956 4666 
L 4897 4666 
L 4897 0 
L 4281 0 
L 4281 4097 
L 3078 897 
L 2444 897 
L 1241 4097 
L 1241 0 
L 628 0 
L 628 4666 
z
" transform="scale(0.015625)"/>
       <path id="DejaVuSans-6e" d="M 3513 2113 
L 3513 0 
L 2938 0 
L 2938 2094 
Q 2938 2591 2744 2837 
Q 2550 3084 2163 3084 
Q 1697 3084 1428 2787 
Q 1159 2491 1159 1978 
L 1159 0 
L 581 0 
L 581 3500 
L 1159 3500 
L 1159 2956 
Q 1366 3272 1645 3428 
Q 1925 3584 2291 3584 
Q 2894 3584 3203 3211 
Q 3513 2838 3513 2113 
z
" transform="scale(0.015625)"/>
       <path id="DejaVuSans-75" d="M 544 1381 
L 544 3500 
L 1119 3500 
L 1119 1403 
Q 1119 906 1312 657 
Q 1506 409 1894 409 
Q 2359 409 2629 706 
Q 2900 1003 2900 1516 
L 2900 3500 
L 3475 3500 
L 3475 0 
L 2900 0 
L 2900 538 
Q 2691 219 2414 64 
Q 2138 -91 1772 -91 
Q 1169 -91 856 284 
Q 544 659 544 1381 
z
M 1991 3584 
L 1991 3584 
z
" transform="scale(0.015625)"/>
       <path id="DejaVuSans-74" d="M 1172 4494 
L 1172 3500 
L 2356 3500 
L 2356 3053 
L 1172 3053 
L 1172 1153 
Q 1172 725 1289 603 
Q 1406 481 1766 481 
L 2356 481 
L 2356 0 
L 1766 0 
Q 1100 0 847 248 
Q 594 497 594 1153 
L 594 3053 
L 172 3053 
L 172 3500 
L 594 3500 
L 594 4494 
L 1172 4494 
z
" transform="scale(0.015625)"/>
       <path id="DejaVuSans-73" d="M 2834 3397 
L 2834 2853 
Q 2591 2978 2328 3040 
Q 2066 3103 1784 3103 
Q 1356 3103 1142 2972 
Q 928 2841 928 2578 
Q 928 2378 1081 2264 
Q 1234 2150 1697 2047 
L 1894 2003 
Q 2506 1872 2764 1633 
Q 3022 1394 3022 966 
Q 3022 478 2636 193 
Q 2250 -91 1575 -91 
Q 1294 -91 989 -36 
Q 684 19 347 128 
L 347 722 
Q 666 556 975 473 
Q 1284 391 1588 391 
Q 1994 391 2212 530 
Q 2431 669 2431 922 
Q 2431 1156 2273 1281 
Q 2116 1406 1581 1522 
L 1381 1569 
Q 847 1681 609 1914 
Q 372 2147 372 2553 
Q 372 3047 722 3315 
Q 1072 3584 1716 3584 
Q 2034 3584 2315 3537 
Q 2597 3491 2834 3397 
z
" transform="scale(0.015625)"/>
       <path id="DejaVuSans-29" d="M 513 4856 
L 1013 4856 
Q 1481 4119 1714 3412 
Q 1947 2706 1947 2009 
Q 1947 1309 1714 600 
Q 1481 -109 1013 -844 
L 513 -844 
Q 928 -128 1133 580 
Q 1338 1288 1338 2009 
Q 1338 2731 1133 3434 
Q 928 4138 513 4856 
z
" transform="scale(0.015625)"/>
      </defs>
      <use xlink:href="#DejaVuSans-54"/>
      <use xlink:href="#DejaVuSans-69" x="57.958984"/>
      <use xlink:href="#DejaVuSans-6d" x="85.742188"/>
      <use xlink:href="#DejaVuSans-65" x="183.154297"/>
      <use xlink:href="#DejaVuSans-20" x="244.677734"/>
      <use xlink:href="#DejaVuSans-28" x="276.464844"/>
      <use xlink:href="#DejaVuSans-4d" x="315.478516"/>
      <use xlink:href="#DejaVuSans-69" x="401.757812"/>
      <use xlink:href="#DejaVuSans-6e" x="429.541016"/>
      <use xlink:href="#DejaVuSans-75" x="492.919922"/>
      <use xlink:href="#DejaVuSans-74" x="556.298828"/>
      <use xlink:href="#DejaVuSans-65" x="595.507812"/>
      <use xlink:href="#DejaVuSans-73" x="657.03125"/>
      <use xlink:href="#DejaVuSans-29" x="709.130859"/>
     </g>
    </g>
   </g>
   <g id="matplotlib.axis_2">
    <g id="ytick_1">
     <g id="line2d_20">
      <path d="M 54.225 492.48 
L 390.42 492.48 
" clip-path="url(#p5e12ad35ea)" style="fill: none; stroke: #cccccc; stroke-width: 0.8; stroke-linecap: round"/>
     </g>
     <g id="text_21">
      <!-- 0 -->
      <g style="fill: #262626" transform="translate(40.326 495.823312)scale(0.088 -0.088)">
       <use xlink:href="#DejaVuSans-30"/>
      </g>
     </g>
    </g>
    <g id="ytick_2">
     <g id="line2d_21">
      <path d="M 54.225 429.183297 
L 390.42 429.183297 
" clip-path="url(#p5e12ad35ea)" style="fill: none; stroke: #cccccc; stroke-width: 0.8; stroke-linecap: round"/>
     </g>
     <g id="text_22">
      <!-- 100 -->
      <g style="fill: #262626" transform="translate(29.128 432.526609)scale(0.088 -0.088)">
       <use xlink:href="#DejaVuSans-31"/>
       <use xlink:href="#DejaVuSans-30" x="63.623047"/>
       <use xlink:href="#DejaVuSans-30" x="127.246094"/>
      </g>
     </g>
    </g>
    <g id="ytick_3">
     <g id="line2d_22">
      <path d="M 54.225 365.886593 
L 390.42 365.886593 
" clip-path="url(#p5e12ad35ea)" style="fill: none; stroke: #cccccc; stroke-width: 0.8; stroke-linecap: round"/>
     </g>
     <g id="text_23">
      <!-- 200 -->
      <g style="fill: #262626" transform="translate(29.128 369.229906)scale(0.088 -0.088)">
       <use xlink:href="#DejaVuSans-32"/>
       <use xlink:href="#DejaVuSans-30" x="63.623047"/>
       <use xlink:href="#DejaVuSans-30" x="127.246094"/>
      </g>
     </g>
    </g>
    <g id="ytick_4">
     <g id="line2d_23">
      <path d="M 54.225 302.58989 
L 390.42 302.58989 
" clip-path="url(#p5e12ad35ea)" style="fill: none; stroke: #cccccc; stroke-width: 0.8; stroke-linecap: round"/>
     </g>
     <g id="text_24">
      <!-- 300 -->
      <g style="fill: #262626" transform="translate(29.128 305.933203)scale(0.088 -0.088)">
       <use xlink:href="#DejaVuSans-33"/>
       <use xlink:href="#DejaVuSans-30" x="63.623047"/>
       <use xlink:href="#DejaVuSans-30" x="127.246094"/>
      </g>
     </g>
    </g>
    <g id="ytick_5">
     <g id="line2d_24">
      <path d="M 54.225 239.293187 
L 390.42 239.293187 
" clip-path="url(#p5e12ad35ea)" style="fill: none; stroke: #cccccc; stroke-width: 0.8; stroke-linecap: round"/>
     </g>
     <g id="text_25">
      <!-- 400 -->
      <g style="fill: #262626" transform="translate(29.128 242.636499)scale(0.088 -0.088)">
       <use xlink:href="#DejaVuSans-34"/>
       <use xlink:href="#DejaVuSans-30" x="63.623047"/>
       <use xlink:href="#DejaVuSans-30" x="127.246094"/>
      </g>
     </g>
    </g>
    <g id="ytick_6">
     <g id="line2d_25">
      <path d="M 54.225 175.996484 
L 390.42 175.996484 
" clip-path="url(#p5e12ad35ea)" style="fill: none; stroke: #cccccc; stroke-width: 0.8; stroke-linecap: round"/>
     </g>
     <g id="text_26">
      <!-- 500 -->
      <g style="fill: #262626" transform="translate(29.128 179.339796)scale(0.088 -0.088)">
       <use xlink:href="#DejaVuSans-35"/>
       <use xlink:href="#DejaVuSans-30" x="63.623047"/>
       <use xlink:href="#DejaVuSans-30" x="127.246094"/>
      </g>
     </g>
    </g>
    <g id="ytick_7">
     <g id="line2d_26">
      <path d="M 54.225 112.69978 
L 390.42 112.69978 
" clip-path="url(#p5e12ad35ea)" style="fill: none; stroke: #cccccc; stroke-width: 0.8; stroke-linecap: round"/>
     </g>
     <g id="text_27">
      <!-- 600 -->
      <g style="fill: #262626" transform="translate(29.128 116.043093)scale(0.088 -0.088)">
       <use xlink:href="#DejaVuSans-36"/>
       <use xlink:href="#DejaVuSans-30" x="63.623047"/>
       <use xlink:href="#DejaVuSans-30" x="127.246094"/>
      </g>
     </g>
    </g>
    <g id="text_28">
     <!-- Edge Coverages -->
     <g style="fill: #262626" transform="translate(23.1315 329.98575)rotate(-90)scale(0.096 -0.096)">
      <defs>
       <path id="DejaVuSans-45" d="M 628 4666 
L 3578 4666 
L 3578 4134 
L 1259 4134 
L 1259 2753 
L 3481 2753 
L 3481 2222 
L 1259 2222 
L 1259 531 
L 3634 531 
L 3634 0 
L 628 0 
L 628 4666 
z
" transform="scale(0.015625)"/>
       <path id="DejaVuSans-64" d="M 2906 2969 
L 2906 4863 
L 3481 4863 
L 3481 0 
L 2906 0 
L 2906 525 
Q 2725 213 2448 61 
Q 2172 -91 1784 -91 
Q 1150 -91 751 415 
Q 353 922 353 1747 
Q 353 2572 751 3078 
Q 1150 3584 1784 3584 
Q 2172 3584 2448 3432 
Q 2725 3281 2906 2969 
z
M 947 1747 
Q 947 1113 1208 752 
Q 1469 391 1925 391 
Q 2381 391 2643 752 
Q 2906 1113 2906 1747 
Q 2906 2381 2643 2742 
Q 2381 3103 1925 3103 
Q 1469 3103 1208 2742 
Q 947 2381 947 1747 
z
" transform="scale(0.015625)"/>
       <path id="DejaVuSans-67" d="M 2906 1791 
Q 2906 2416 2648 2759 
Q 2391 3103 1925 3103 
Q 1463 3103 1205 2759 
Q 947 2416 947 1791 
Q 947 1169 1205 825 
Q 1463 481 1925 481 
Q 2391 481 2648 825 
Q 2906 1169 2906 1791 
z
M 3481 434 
Q 3481 -459 3084 -895 
Q 2688 -1331 1869 -1331 
Q 1566 -1331 1297 -1286 
Q 1028 -1241 775 -1147 
L 775 -588 
Q 1028 -725 1275 -790 
Q 1522 -856 1778 -856 
Q 2344 -856 2625 -561 
Q 2906 -266 2906 331 
L 2906 616 
Q 2728 306 2450 153 
Q 2172 0 1784 0 
Q 1141 0 747 490 
Q 353 981 353 1791 
Q 353 2603 747 3093 
Q 1141 3584 1784 3584 
Q 2172 3584 2450 3431 
Q 2728 3278 2906 2969 
L 2906 3500 
L 3481 3500 
L 3481 434 
z
" transform="scale(0.015625)"/>
       <path id="DejaVuSans-43" d="M 4122 4306 
L 4122 3641 
Q 3803 3938 3442 4084 
Q 3081 4231 2675 4231 
Q 1875 4231 1450 3742 
Q 1025 3253 1025 2328 
Q 1025 1406 1450 917 
Q 1875 428 2675 428 
Q 3081 428 3442 575 
Q 3803 722 4122 1019 
L 4122 359 
Q 3791 134 3420 21 
Q 3050 -91 2638 -91 
Q 1578 -91 968 557 
Q 359 1206 359 2328 
Q 359 3453 968 4101 
Q 1578 4750 2638 4750 
Q 3056 4750 3426 4639 
Q 3797 4528 4122 4306 
z
" transform="scale(0.015625)"/>
       <path id="DejaVuSans-6f" d="M 1959 3097 
Q 1497 3097 1228 2736 
Q 959 2375 959 1747 
Q 959 1119 1226 758 
Q 1494 397 1959 397 
Q 2419 397 2687 759 
Q 2956 1122 2956 1747 
Q 2956 2369 2687 2733 
Q 2419 3097 1959 3097 
z
M 1959 3584 
Q 2709 3584 3137 3096 
Q 3566 2609 3566 1747 
Q 3566 888 3137 398 
Q 2709 -91 1959 -91 
Q 1206 -91 779 398 
Q 353 888 353 1747 
Q 353 2609 779 3096 
Q 1206 3584 1959 3584 
z
" transform="scale(0.015625)"/>
       <path id="DejaVuSans-76" d="M 191 3500 
L 800 3500 
L 1894 563 
L 2988 3500 
L 3597 3500 
L 2284 0 
L 1503 0 
L 191 3500 
z
" transform="scale(0.015625)"/>
       <path id="DejaVuSans-72" d="M 2631 2963 
Q 2534 3019 2420 3045 
Q 2306 3072 2169 3072 
Q 1681 3072 1420 2755 
Q 1159 2438 1159 1844 
L 1159 0 
L 581 0 
L 581 3500 
L 1159 3500 
L 1159 2956 
Q 1341 3275 1631 3429 
Q 1922 3584 2338 3584 
Q 2397 3584 2469 3576 
Q 2541 3569 2628 3553 
L 2631 2963 
z
" transform="scale(0.015625)"/>
       <path id="DejaVuSans-61" d="M 2194 1759 
Q 1497 1759 1228 1600 
Q 959 1441 959 1056 
Q 959 750 1161 570 
Q 1363 391 1709 391 
Q 2188 391 2477 730 
Q 2766 1069 2766 1631 
L 2766 1759 
L 2194 1759 
z
M 3341 1997 
L 3341 0 
L 2766 0 
L 2766 531 
Q 2569 213 2275 61 
Q 1981 -91 1556 -91 
Q 1019 -91 701 211 
Q 384 513 384 1019 
Q 384 1609 779 1909 
Q 1175 2209 1959 2209 
L 2766 2209 
L 2766 2266 
Q 2766 2663 2505 2880 
Q 2244 3097 1772 3097 
Q 1472 3097 1187 3025 
Q 903 2953 641 2809 
L 641 3341 
Q 956 3463 1253 3523 
Q 1550 3584 1831 3584 
Q 2591 3584 2966 3190 
Q 3341 2797 3341 1997 
z
" transform="scale(0.015625)"/>
      </defs>
      <use xlink:href="#DejaVuSans-45"/>
      <use xlink:href="#DejaVuSans-64" x="63.183594"/>
      <use xlink:href="#DejaVuSans-67" x="126.660156"/>
      <use xlink:href="#DejaVuSans-65" x="190.136719"/>
      <use xlink:href="#DejaVuSans-20" x="251.660156"/>
      <use xlink:href="#DejaVuSans-43" x="283.447266"/>
      <use xlink:href="#DejaVuSans-6f" x="353.271484"/>
      <use xlink:href="#DejaVuSans-76" x="414.453125"/>
      <use xlink:href="#DejaVuSans-65" x="473.632812"/>
      <use xlink:href="#DejaVuSans-72" x="535.15625"/>
      <use xlink:href="#DejaVuSans-61" x="576.269531"/>
      <use xlink:href="#DejaVuSans-67" x="637.548828"/>
      <use xlink:href="#DejaVuSans-65" x="701.025391"/>
      <use xlink:href="#DejaVuSans-73" x="762.548828"/>
     </g>
    </g>
   </g>
   <g id="PolyCollection_1">
    <defs>
     <path id="med32592861" d="M 69.506591 -110.737582 
L 69.506591 -83.52 
L 69.506591 -110.737582 
L 69.506591 -110.737582 
z
" style="stroke: #db5f57; stroke-opacity: 0.2; stroke-width: 0.8"/>
    </defs>
    <g clip-path="url(#p5e12ad35ea)">
     <use xlink:href="#med32592861" x="0" y="576" style="fill: #db5f57; fill-opacity: 0.2; stroke: #db5f57; stroke-opacity: 0.2; stroke-width: 0.8"/>
    </g>
   </g>
   <g id="PolyCollection_2">
    <defs>
     <path id="m7effc1cac9" d="M 69.506591 -89.84967 
L 69.506591 -83.52 
L 69.506591 -89.84967 
L 69.506591 -89.84967 
z
" style="stroke: #b9db57; stroke-opacity: 0.2; stroke-width: 0.8"/>
    </defs>
    <g clip-path="url(#p5e12ad35ea)">
     <use xlink:href="#m7effc1cac9" x="0" y="576" style="fill: #b9db57; fill-opacity: 0.2; stroke: #b9db57; stroke-opacity: 0.2; stroke-width: 0.8"/>
    </g>
   </g>
   <g id="PolyCollection_3">
    <defs>
     <path id="mc5d30f972d" d="M 69.506591 -110.737582 
L 69.506591 -83.52 
L 69.506591 -110.737582 
L 69.506591 -110.737582 
z
" style="stroke: #57db94; stroke-opacity: 0.2; stroke-width: 0.8"/>
    </defs>
    <g clip-path="url(#p5e12ad35ea)">
     <use xlink:href="#mc5d30f972d" x="0" y="576" style="fill: #57db94; fill-opacity: 0.2; stroke: #57db94; stroke-opacity: 0.2; stroke-width: 0.8"/>
    </g>
   </g>
   <g id="PolyCollection_4">
    <defs>
     <path id="me9a825e91b" d="M 69.506591 -142.385934 
L 69.506591 -83.52 
L 69.506591 -142.385934 
L 69.506591 -142.385934 
z
" style="stroke: #5784db; stroke-opacity: 0.2; stroke-width: 0.8"/>
    </defs>
    <g clip-path="url(#p5e12ad35ea)">
     <use xlink:href="#me9a825e91b" x="0" y="576" style="fill: #5784db; fill-opacity: 0.2; stroke: #5784db; stroke-opacity: 0.2; stroke-width: 0.8"/>
    </g>
   </g>
   <g id="PolyCollection_5">
    <defs>
     <path id="m36c8632749" d="M 69.506591 -152.513407 
L 69.506591 -83.52 
L 69.506591 -152.513407 
L 69.506591 -152.513407 
z
" style="stroke: #c957db; stroke-opacity: 0.2; stroke-width: 0.8"/>
    </defs>
    <g clip-path="url(#p5e12ad35ea)">
     <use xlink:href="#m36c8632749" x="0" y="576" style="fill: #c957db; fill-opacity: 0.2; stroke: #c957db; stroke-opacity: 0.2; stroke-width: 0.8"/>
    </g>
   </g>
   <g id="line2d_27">
    <path d="M 69.506591 478.871209 
L 69.719426 461.464615 
L 69.932262 458.29978 
L 70.145097 457.666813 
L 70.357933 455.767912 
L 70.783604 454.501978 
L 71.209275 450.704176 
L 71.634946 450.704176 
L 71.847782 442.475604 
L 72.060617 441.842637 
L 72.486288 439.943736 
L 72.699124 439.310769 
L 73.124795 435.512967 
L 74.401808 435.512967 
L 74.614644 434.88 
L 80.361203 434.88 
L 80.574038 432.981099 
L 83.553736 432.981099 
L 83.979407 429.816264 
L 84.405078 427.284396 
L 84.617913 427.284396 
L 84.830749 426.651429 
L 85.043584 426.651429 
L 85.25642 426.018462 
L 85.682091 414.625055 
L 85.894927 414.625055 
L 86.107762 412.093187 
L 86.320598 411.46022 
L 87.17194 411.46022 
L 87.384775 410.827253 
L 89.087459 410.827253 
L 89.300295 409.561319 
L 90.151637 409.561319 
L 90.364473 258.915165 
L 90.577308 210.80967 
L 91.854321 210.80967 
L 92.067157 210.176703 
L 96.323867 210.176703 
L 96.536703 209.543736 
L 101.43192 209.543736 
L 101.644756 208.910769 
L 102.283262 208.910769 
L 102.496098 208.277802 
L 103.134604 208.277802 
L 103.34744 207.644835 
L 113.563545 207.644835 
L 113.776381 207.011868 
L 121.43846 207.011868 
L 121.651295 205.745934 
L 121.864131 146.88 
L 131.016058 146.88 
L 131.228894 146.247033 
L 131.867401 146.247033 
L 132.080236 145.614066 
L 134.208591 145.614066 
L 134.421427 138.018462 
L 134.634262 137.385495 
L 154.215131 137.385495 
L 154.427967 136.752527 
L 161.025868 136.752527 
L 161.238703 130.422857 
L 172.731822 130.422857 
L 172.944658 126.625055 
L 191.248513 126.625055 
L 191.461348 122.194286 
L 191.674184 120.928352 
L 194.653881 120.928352 
L 194.866717 120.295385 
L 196.14373 120.295385 
L 196.356566 119.662418 
L 201.677454 119.662418 
L 201.890289 116.497582 
L 205.934164 116.497582 
L 206.147 115.864615 
L 231.900099 115.864615 
L 232.112934 112.066813 
L 232.32577 111.433846 
L 243.818888 111.433846 
L 244.031724 109.534945 
L 244.67023 109.534945 
L 244.883066 108.901978 
L 247.224257 108.901978 
L 247.437092 108.269011 
L 266.379454 108.269011 
L 266.59229 107.636044 
L 272.977356 107.636044 
L 273.190191 106.37011 
L 285.534652 106.37011 
L 285.747487 105.104176 
L 305.754027 105.104176 
L 305.966862 104.471209 
L 309.797902 104.471209 
L 310.010738 100.673407 
L 338.105027 100.673407 
L 338.317863 98.141538 
L 359.38858 98.141538 
L 359.601416 96.875604 
L 375.138409 96.875604 
L 375.138409 96.875604 
" clip-path="url(#p5e12ad35ea)" style="fill: none; stroke: #db5f57; stroke-width: 1.2; stroke-linecap: round"/>
   </g>
   <g id="line2d_28">
    <path d="M 69.506591 489.315165 
L 69.719426 486.15033 
L 70.99644 486.15033 
L 71.209275 474.756923 
L 71.422111 473.490989 
L 71.634946 470.959121 
L 71.847782 370.95033 
L 72.060617 351.961319 
L 72.486288 336.137143 
L 72.699124 336.137143 
L 72.911959 333.605275 
L 73.124795 317.781099 
L 73.33763 317.148132 
L 73.550466 317.148132 
L 73.763301 313.983297 
L 73.976137 313.983297 
L 74.188973 312.717363 
L 74.614644 312.717363 
L 74.827479 310.818462 
L 75.678821 310.818462 
L 75.891657 310.185495 
L 76.955834 310.185495 
L 77.16867 308.91956 
L 77.381505 308.91956 
L 77.594341 308.286593 
L 77.807177 308.286593 
L 78.020012 307.020659 
L 78.232848 307.020659 
L 78.445683 305.754725 
L 78.658519 305.754725 
L 78.871354 305.121758 
L 79.509861 305.121758 
L 79.722696 302.58989 
L 80.574038 302.58989 
L 80.999709 295.627253 
L 81.638216 295.627253 
L 81.851052 289.297582 
L 82.276723 289.297582 
L 82.702394 288.031648 
L 83.128065 286.132747 
L 83.3409 279.17011 
L 83.553736 279.17011 
L 83.766571 278.537143 
L 84.192242 278.537143 
L 84.405078 277.904176 
L 84.617913 274.106374 
L 85.043584 272.207473 
L 85.25642 271.574505 
L 85.894927 266.510769 
L 86.320598 266.510769 
L 86.533433 263.978901 
L 86.746269 263.345934 
L 87.384775 263.345934 
L 87.597611 260.814066 
L 88.023282 260.814066 
L 88.236117 260.181099 
L 89.087459 260.181099 
L 89.300295 250.053626 
L 89.938802 250.053626 
L 90.151637 249.420659 
L 90.364473 249.420659 
L 90.577308 248.154725 
L 90.790144 243.723956 
L 91.641486 243.723956 
L 91.854321 243.090989 
L 92.279992 243.090989 
L 92.492828 236.128352 
L 94.195512 236.128352 
L 94.408348 231.697582 
L 96.111032 231.697582 
L 96.323867 226.633846 
L 96.536703 226.633846 
L 96.749538 226.000879 
L 98.026552 226.000879 
L 98.239387 225.367912 
L 100.154907 225.367912 
L 100.367742 224.734945 
L 100.580578 222.836044 
L 101.219085 222.836044 
L 101.43192 220.304176 
L 102.496098 220.304176 
L 102.708933 219.671209 
L 105.475795 219.671209 
L 105.688631 215.24044 
L 105.901466 214.607473 
L 106.114302 213.341538 
L 106.327137 213.341538 
L 106.539973 210.176703 
L 106.752808 209.543736 
L 107.391315 209.543736 
L 107.60415 208.910769 
L 107.816986 206.378901 
L 119.310104 206.378901 
L 119.52294 205.745934 
L 128.036361 205.745934 
L 128.249197 182.959121 
L 128.462032 182.326154 
L 129.100539 182.326154 
L 129.313374 181.06022 
L 130.377552 181.06022 
L 130.590387 178.528352 
L 131.44173 178.528352 
L 131.654565 177.262418 
L 148.042901 177.262418 
L 148.255736 172.198681 
L 148.468572 171.565714 
L 154.640802 171.565714 
L 154.853638 170.932747 
L 155.279309 170.932747 
L 155.70498 169.666813 
L 160.813032 169.666813 
L 161.238703 168.400879 
L 166.985263 168.400879 
L 167.410934 167.134945 
L 168.687947 167.134945 
L 168.900782 165.236044 
L 171.454809 165.236044 
L 171.667644 163.97011 
L 195.718059 163.97011 
L 195.930895 157.007473 
L 201.251783 157.007473 
L 201.464618 153.842637 
L 203.380138 153.842637 
L 203.592974 153.20967 
L 206.998342 153.20967 
L 207.211178 152.576703 
L 216.15027 152.576703 
L 216.363105 151.310769 
L 218.278625 151.310769 
L 218.49146 150.677802 
L 221.045487 150.677802 
L 221.258322 150.044835 
L 221.471158 150.044835 
L 221.683993 149.411868 
L 229.133237 149.411868 
L 229.346072 148.778901 
L 232.32577 148.778901 
L 232.538605 146.88 
L 238.498 146.88 
L 238.710836 146.247033 
L 239.562178 146.247033 
L 239.775013 145.614066 
L 254.247829 145.614066 
L 254.460665 144.348132 
L 272.338849 144.348132 
L 272.551685 141.816264 
L 277.234066 141.816264 
L 277.446902 141.183297 
L 285.108981 141.183297 
L 285.321816 139.284396 
L 299.794632 139.284396 
L 300.007468 138.651429 
L 302.77433 138.651429 
L 302.987165 138.018462 
L 303.838507 138.018462 
L 304.051343 137.385495 
L 304.264178 137.385495 
L 304.477014 136.752527 
L 306.179698 136.752527 
L 306.392534 136.11956 
L 307.243876 136.11956 
L 307.456711 135.486593 
L 308.733724 135.486593 
L 308.94656 134.853626 
L 312.139093 134.853626 
L 312.351928 133.587692 
L 312.564764 133.587692 
L 312.777599 132.954725 
L 363.645291 132.954725 
L 363.858126 131.055824 
L 375.138409 131.055824 
L 375.138409 131.055824 
" clip-path="url(#p5e12ad35ea)" style="fill: none; stroke: #b9db57; stroke-width: 1.2; stroke-linecap: round"/>
   </g>
   <g id="line2d_29">
    <path d="M 69.506591 478.871209 
L 69.719426 445.007473 
L 69.932262 441.20967 
L 70.145097 430.449231 
L 70.357933 426.018462 
L 70.570769 415.258022 
L 70.783604 357.025055 
L 70.99644 353.86022 
L 71.209275 353.227253 
L 71.422111 349.429451 
L 71.634946 348.796484 
L 72.060617 341.833846 
L 72.699124 314.616264 
L 72.911959 310.185495 
L 73.124795 308.286593 
L 73.33763 307.653626 
L 73.550466 305.754725 
L 73.763301 305.754725 
L 74.827479 300.058022 
L 76.955834 300.058022 
L 77.381505 298.792088 
L 77.594341 298.792088 
L 77.807177 297.526154 
L 78.020012 297.526154 
L 78.658519 294.361319 
L 78.871354 294.361319 
L 79.08419 293.728352 
L 79.297025 293.728352 
L 80.148367 289.297582 
L 80.361203 289.297582 
L 80.574038 288.664615 
L 80.999709 284.866813 
L 81.212545 279.17011 
L 81.638216 277.271209 
L 81.851052 277.271209 
L 82.063887 275.372308 
L 82.276723 275.372308 
L 82.702394 272.207473 
L 82.915229 270.308571 
L 83.128065 270.308571 
L 83.766571 265.244835 
L 84.405078 263.345934 
L 84.617913 262.08 
L 84.830749 262.08 
L 85.043584 260.181099 
L 85.25642 259.548132 
L 85.469256 257.649231 
L 85.682091 257.016264 
L 85.894927 253.218462 
L 86.533433 253.218462 
L 86.746269 251.31956 
L 87.17194 251.31956 
L 87.597611 250.053626 
L 87.810446 245.622857 
L 88.236117 243.090989 
L 88.448953 239.926154 
L 88.874624 238.66022 
L 89.087459 238.66022 
L 89.300295 238.027253 
L 89.513131 238.027253 
L 89.725966 237.394286 
L 89.938802 237.394286 
L 90.364473 236.128352 
L 90.577308 234.862418 
L 91.002979 230.431648 
L 91.215815 229.798681 
L 91.641486 229.798681 
L 91.854321 228.532747 
L 92.067157 224.101978 
L 92.279992 223.469011 
L 92.705663 223.469011 
L 93.131335 222.203077 
L 93.34417 220.304176 
L 93.769841 219.038242 
L 94.195512 219.038242 
L 94.408348 217.772308 
L 94.621183 217.772308 
L 94.834019 217.139341 
L 95.046854 214.607473 
L 95.25969 214.607473 
L 95.898196 212.708571 
L 98.452223 212.708571 
L 98.665058 211.442637 
L 100.154907 211.442637 
L 100.580578 207.644835 
L 102.921769 207.644835 
L 103.134604 205.112967 
L 103.773111 205.112967 
L 103.985946 203.214066 
L 104.198782 203.214066 
L 104.411617 202.581099 
L 104.624453 201.315165 
L 105.050124 201.315165 
L 105.26296 200.682198 
L 106.114302 200.682198 
L 106.539973 195.618462 
L 106.752808 195.618462 
L 106.965644 194.985495 
L 107.391315 193.086593 
L 107.60415 192.453626 
L 107.816986 192.453626 
L 108.029821 191.820659 
L 108.242657 191.820659 
L 108.455493 191.187692 
L 108.668328 191.187692 
L 108.881164 190.554725 
L 109.732506 190.554725 
L 109.945341 189.288791 
L 110.371012 189.288791 
L 110.583848 188.655824 
L 110.796683 187.38989 
L 111.860861 187.38989 
L 112.073697 186.756923 
L 113.35071 186.756923 
L 113.776381 185.490989 
L 115.053394 185.490989 
L 115.266229 184.858022 
L 115.904736 184.858022 
L 116.117572 182.326154 
L 118.458762 182.326154 
L 118.671598 175.363516 
L 118.884433 174.097582 
L 119.097269 174.097582 
L 119.310104 172.831648 
L 119.52294 172.831648 
L 119.735776 172.198681 
L 120.799953 172.198681 
L 121.012789 171.565714 
L 121.864131 171.565714 
L 122.289802 170.29978 
L 126.120841 170.29978 
L 126.333677 169.666813 
L 126.759348 169.666813 
L 126.972183 169.033846 
L 127.823526 169.033846 
L 128.036361 168.400879 
L 128.887703 168.400879 
L 129.100539 167.767912 
L 129.313374 167.767912 
L 129.739045 166.501978 
L 129.951881 165.236044 
L 130.377552 165.236044 
L 130.803223 163.97011 
L 134.634262 163.97011 
L 134.847098 160.805275 
L 137.826795 160.805275 
L 138.039631 160.172308 
L 138.252466 160.172308 
L 138.465302 159.539341 
L 141.019328 159.539341 
L 141.232164 158.906374 
L 142.083506 158.906374 
L 142.296341 158.273407 
L 148.468572 158.273407 
L 148.681407 157.64044 
L 154.427967 157.64044 
L 154.640802 157.007473 
L 155.492144 157.007473 
L 155.70498 155.741538 
L 156.556322 155.741538 
L 156.769157 155.108571 
L 156.981993 155.108571 
L 157.194828 154.475604 
L 158.046171 154.475604 
L 158.259006 153.842637 
L 161.238703 153.842637 
L 161.451539 153.20967 
L 163.579894 153.20967 
L 163.79273 152.576703 
L 164.005565 151.310769 
L 167.623769 151.310769 
L 167.836605 150.044835 
L 170.390631 150.044835 
L 170.603467 149.411868 
L 170.816302 149.411868 
L 171.029138 148.778901 
L 174.647342 148.778901 
L 174.860177 146.88 
L 176.562861 146.88 
L 176.775697 146.247033 
L 179.329723 146.247033 
L 179.542559 145.614066 
L 179.755394 145.614066 
L 179.96823 144.981099 
L 180.393901 144.981099 
L 180.606737 144.348132 
L 181.245243 144.348132 
L 181.458079 143.715165 
L 183.160763 143.715165 
L 183.373598 143.082198 
L 185.501954 143.082198 
L 185.927625 141.816264 
L 195.292388 141.816264 
L 195.505223 141.183297 
L 196.356566 141.183297 
L 196.569401 140.55033 
L 196.782237 140.55033 
L 196.995072 139.917363 
L 197.633579 139.917363 
L 197.846414 139.284396 
L 198.697756 139.284396 
L 199.123427 138.018462 
L 199.336263 138.018462 
L 199.549099 137.385495 
L 202.954467 137.385495 
L 203.167302 136.752527 
L 206.998342 136.752527 
L 207.211178 136.11956 
L 212.957737 136.11956 
L 213.170572 135.486593 
L 218.278625 135.486593 
L 218.49146 134.853626 
L 221.683993 134.853626 
L 221.896829 133.587692 
L 229.133237 133.587692 
L 229.346072 132.954725 
L 234.454125 132.954725 
L 234.666961 131.688791 
L 238.498 131.688791 
L 238.710836 131.055824 
L 242.32904 131.055824 
L 242.541875 130.422857 
L 244.883066 130.422857 
L 245.095901 129.78989 
L 247.224257 129.78989 
L 247.437092 129.156923 
L 254.460665 129.156923 
L 254.886336 127.890989 
L 255.099171 127.890989 
L 255.312007 127.258022 
L 257.014691 127.258022 
L 257.227527 126.625055 
L 275.531382 126.625055 
L 275.744218 124.726154 
L 276.808395 124.726154 
L 277.021231 124.093187 
L 277.446902 124.093187 
L 277.659737 123.46022 
L 280.639435 123.46022 
L 280.85227 122.827253 
L 298.517619 122.827253 
L 298.730455 122.194286 
L 302.561494 122.194286 
L 302.77433 121.561319 
L 305.328356 121.561319 
L 305.541191 120.928352 
L 305.754027 120.928352 
L 305.966862 120.295385 
L 306.818205 120.295385 
L 307.03104 119.662418 
L 310.010738 119.662418 
L 310.223573 119.029451 
L 311.074915 119.029451 
L 311.287751 118.396484 
L 312.564764 118.396484 
L 312.777599 117.130549 
L 313.841777 117.130549 
L 314.054613 116.497582 
L 321.503856 116.497582 
L 321.716692 115.864615 
L 359.38858 115.864615 
L 359.601416 115.231648 
L 375.138409 115.231648 
L 375.138409 115.231648 
" clip-path="url(#p5e12ad35ea)" style="fill: none; stroke: #57db94; stroke-width: 1.2; stroke-linecap: round"/>
   </g>
   <g id="line2d_30">
    <path d="M 69.506591 463.047033 
L 69.719426 407.029451 
L 70.570769 382.976703 
L 70.783604 382.976703 
L 70.99644 381.077802 
L 71.209275 380.444835 
L 71.422111 378.545934 
L 71.634946 372.216264 
L 72.486288 367.785495 
L 72.699124 359.556923 
L 72.911959 357.658022 
L 73.124795 357.658022 
L 73.550466 355.759121 
L 73.976137 354.493187 
L 74.188973 351.961319 
L 74.614644 351.961319 
L 74.827479 351.328352 
L 78.445683 351.328352 
L 79.08419 349.429451 
L 79.297025 344.998681 
L 80.574038 338.036044 
L 80.786874 338.036044 
L 80.999709 272.207473 
L 81.212545 267.776703 
L 81.42538 265.877802 
L 81.638216 265.244835 
L 81.851052 263.345934 
L 82.276723 263.345934 
L 83.128065 258.282198 
L 83.3409 258.282198 
L 83.553736 256.383297 
L 83.766571 256.383297 
L 83.979407 254.484396 
L 84.830749 254.484396 
L 85.043584 253.851429 
L 85.25642 253.851429 
L 85.469256 252.585495 
L 85.682091 246.255824 
L 85.894927 245.622857 
L 86.959104 245.622857 
L 87.17194 244.98989 
L 88.023282 244.98989 
L 88.236117 238.66022 
L 89.087459 238.66022 
L 89.300295 238.027253 
L 90.151637 238.027253 
L 90.364473 237.394286 
L 91.641486 237.394286 
L 91.854321 236.761319 
L 92.492828 236.761319 
L 92.705663 236.128352 
L 93.557006 236.128352 
L 93.769841 235.495385 
L 103.985946 235.495385 
L 104.198782 234.862418 
L 104.411617 233.596484 
L 105.688631 233.596484 
L 105.901466 232.963516 
L 106.965644 232.963516 
L 107.178479 232.330549 
L 110.583848 232.330549 
L 110.796683 231.064615 
L 112.925039 231.064615 
L 113.137874 229.798681 
L 114.840558 229.798681 
L 115.053394 229.165714 
L 115.479065 229.165714 
L 115.6919 164.603077 
L 115.904736 162.071209 
L 116.117572 161.438242 
L 116.330407 159.539341 
L 116.756078 158.273407 
L 117.181749 158.273407 
L 117.394585 157.007473 
L 117.60742 157.007473 
L 117.820256 156.374505 
L 119.52294 156.374505 
L 119.735776 155.741538 
L 121.864131 155.741538 
L 122.076966 155.108571 
L 132.718743 155.108571 
L 132.931578 153.842637 
L 133.570085 153.842637 
L 133.78292 153.20967 
L 135.911276 153.20967 
L 136.124111 152.576703 
L 136.549782 152.576703 
L 136.762618 151.310769 
L 138.678138 151.310769 
L 138.890973 150.677802 
L 151.448269 150.677802 
L 151.661105 150.044835 
L 151.87394 150.044835 
L 152.086776 149.411868 
L 155.279309 149.411868 
L 155.492144 136.752527 
L 170.177796 136.752527 
L 170.390631 132.321758 
L 170.603467 131.055824 
L 170.816302 131.055824 
L 171.029138 130.422857 
L 171.454809 130.422857 
L 171.667644 129.156923 
L 173.583164 129.156923 
L 173.796 128.523956 
L 176.562861 128.523956 
L 176.775697 127.890989 
L 198.697756 127.890989 
L 199.123427 125.992088 
L 200.400441 125.992088 
L 200.613276 119.029451 
L 209.765204 119.029451 
L 209.978039 117.763516 
L 219.555638 117.763516 
L 219.768474 115.864615 
L 229.133237 115.864615 
L 229.346072 114.598681 
L 241.690533 114.598681 
L 241.903369 112.066813 
L 251.480967 112.066813 
L 251.693803 110.800879 
L 264.251099 110.800879 
L 264.463935 110.167912 
L 273.828698 110.167912 
L 274.041533 108.901978 
L 286.385994 108.901978 
L 286.598829 107.636044 
L 309.585066 107.636044 
L 309.797902 103.205275 
L 322.355198 103.205275 
L 322.568034 100.673407 
L 360.665593 100.673407 
L 360.878429 99.407473 
L 375.138409 99.407473 
L 375.138409 99.407473 
" clip-path="url(#p5e12ad35ea)" style="fill: none; stroke: #5784db; stroke-width: 1.2; stroke-linecap: round"/>
   </g>
   <g id="line2d_31">
    <path d="M 69.506591 457.983297 
L 69.719426 389.939341 
L 69.932262 381.710769 
L 70.357933 360.822857 
L 70.570769 348.796484 
L 70.783604 347.530549 
L 71.209275 341.833846 
L 71.422111 339.934945 
L 72.060617 327.275604 
L 72.911959 297.526154 
L 73.976137 291.829451 
L 74.188973 288.664615 
L 74.614644 288.664615 
L 74.827479 287.398681 
L 76.955834 287.398681 
L 77.16867 286.132747 
L 77.381505 286.132747 
L 77.807177 284.866813 
L 78.020012 283.600879 
L 78.232848 283.600879 
L 78.658519 281.701978 
L 78.871354 281.701978 
L 79.297025 279.17011 
L 79.509861 279.17011 
L 79.722696 278.537143 
L 80.148367 275.372308 
L 80.361203 275.372308 
L 80.574038 274.739341 
L 81.42538 262.712967 
L 81.638216 262.08 
L 81.851052 260.181099 
L 82.063887 259.548132 
L 82.276723 259.548132 
L 83.553736 248.787692 
L 83.766571 248.154725 
L 83.979407 246.255824 
L 84.192242 245.622857 
L 85.25642 239.926154 
L 85.894927 229.798681 
L 86.533433 229.798681 
L 86.746269 227.89978 
L 86.959104 227.89978 
L 87.17194 227.266813 
L 87.384775 227.266813 
L 87.597611 226.633846 
L 87.810446 222.836044 
L 88.023282 222.203077 
L 88.236117 214.607473 
L 88.874624 212.708571 
L 89.087459 212.708571 
L 89.300295 212.075604 
L 89.513131 212.075604 
L 89.725966 211.442637 
L 89.938802 211.442637 
L 90.364473 210.176703 
L 90.790144 205.112967 
L 91.215815 203.847033 
L 91.641486 203.847033 
L 91.854321 201.315165 
L 92.067157 196.884396 
L 92.705663 196.884396 
L 93.131335 195.618462 
L 93.34417 193.71956 
L 93.769841 192.453626 
L 94.195512 192.453626 
L 94.408348 191.187692 
L 94.621183 191.187692 
L 94.834019 190.554725 
L 95.046854 188.022857 
L 95.472525 188.022857 
L 95.898196 186.756923 
L 96.536703 186.756923 
L 96.749538 186.123956 
L 98.026552 186.123956 
L 98.239387 185.490989 
L 98.452223 185.490989 
L 98.665058 184.858022 
L 100.154907 184.858022 
L 100.367742 184.225055 
L 100.580578 180.427253 
L 102.496098 180.427253 
L 102.708933 179.794286 
L 103.773111 179.794286 
L 103.985946 177.895385 
L 104.198782 177.262418 
L 104.411617 175.996484 
L 105.050124 175.996484 
L 105.26296 175.363516 
L 105.688631 175.363516 
L 106.752808 169.666813 
L 107.60415 167.134945 
L 107.816986 167.134945 
L 108.029821 166.501978 
L 108.242657 166.501978 
L 108.455493 165.869011 
L 108.668328 165.869011 
L 108.881164 165.236044 
L 109.732506 165.236044 
L 109.945341 163.97011 
L 110.371012 163.97011 
L 110.583848 163.337143 
L 110.796683 162.071209 
L 111.860861 162.071209 
L 112.073697 161.438242 
L 112.925039 161.438242 
L 113.137874 160.805275 
L 113.35071 160.805275 
L 113.563545 160.172308 
L 115.6919 160.172308 
L 115.904736 157.64044 
L 116.117572 157.007473 
L 116.330407 155.108571 
L 116.756078 153.842637 
L 117.181749 153.842637 
L 117.394585 152.576703 
L 117.60742 152.576703 
L 117.820256 151.943736 
L 118.458762 151.943736 
L 118.884433 149.411868 
L 119.097269 149.411868 
L 119.310104 148.145934 
L 119.52294 148.145934 
L 119.735776 147.512967 
L 120.799953 147.512967 
L 121.012789 146.88 
L 121.43846 146.88 
L 121.651295 146.247033 
L 121.864131 146.247033 
L 122.076966 145.614066 
L 126.120841 145.614066 
L 126.333677 144.981099 
L 126.759348 144.981099 
L 126.972183 144.348132 
L 127.823526 144.348132 
L 128.036361 143.715165 
L 128.887703 143.715165 
L 129.313374 142.449231 
L 129.52621 142.449231 
L 129.739045 141.816264 
L 129.951881 140.55033 
L 130.377552 140.55033 
L 130.803223 139.284396 
L 131.016058 139.284396 
L 131.228894 138.651429 
L 132.718743 138.651429 
L 132.931578 137.385495 
L 133.570085 137.385495 
L 133.78292 136.752527 
L 134.421427 136.752527 
L 134.634262 136.11956 
L 136.549782 136.11956 
L 136.762618 135.486593 
L 137.826795 135.486593 
L 138.039631 134.853626 
L 138.678138 134.853626 
L 138.890973 134.220659 
L 142.083506 134.220659 
L 142.296341 133.587692 
L 148.255736 133.587692 
L 148.468572 132.954725 
L 154.215131 132.954725 
L 154.427967 132.321758 
L 155.279309 132.321758 
L 155.70498 131.055824 
L 156.556322 131.055824 
L 156.769157 130.422857 
L 156.981993 130.422857 
L 157.194828 129.78989 
L 158.046171 129.78989 
L 158.259006 129.156923 
L 160.813032 129.156923 
L 161.238703 127.890989 
L 163.79273 127.890989 
L 164.005565 127.258022 
L 166.985263 127.258022 
L 167.410934 125.992088 
L 170.390631 125.992088 
L 170.603467 125.359121 
L 170.816302 125.359121 
L 171.029138 124.726154 
L 171.454809 124.726154 
L 171.667644 123.46022 
L 173.583164 123.46022 
L 173.796 122.827253 
L 176.562861 122.827253 
L 176.775697 122.194286 
L 179.329723 122.194286 
L 179.542559 121.561319 
L 179.755394 121.561319 
L 179.96823 120.928352 
L 180.393901 120.928352 
L 180.606737 120.295385 
L 183.160763 120.295385 
L 183.373598 119.662418 
L 185.501954 119.662418 
L 185.927625 118.396484 
L 191.461348 118.396484 
L 191.674184 117.763516 
L 194.653881 117.763516 
L 194.866717 117.130549 
L 196.14373 117.130549 
L 196.569401 115.864615 
L 197.633579 115.864615 
L 197.846414 115.231648 
L 198.697756 115.231648 
L 198.910592 114.598681 
L 199.123427 113.332747 
L 202.954467 113.332747 
L 203.167302 112.69978 
L 206.998342 112.69978 
L 207.211178 112.066813 
L 212.957737 112.066813 
L 213.170572 111.433846 
L 216.15027 111.433846 
L 216.363105 110.800879 
L 218.278625 110.800879 
L 218.49146 110.167912 
L 221.045487 110.167912 
L 221.258322 109.534945 
L 221.471158 109.534945 
L 221.683993 108.901978 
L 229.133237 108.901978 
L 229.346072 108.269011 
L 232.112934 108.269011 
L 232.538605 107.003077 
L 238.498 107.003077 
L 238.710836 106.37011 
L 239.562178 106.37011 
L 239.775013 105.737143 
L 244.67023 105.737143 
L 244.883066 105.104176 
L 247.224257 105.104176 
L 247.437092 104.471209 
L 254.247829 104.471209 
L 254.460665 103.205275 
L 255.099171 103.205275 
L 255.312007 102.572308 
L 257.014691 102.572308 
L 257.227527 101.939341 
L 272.338849 101.939341 
L 272.551685 101.306374 
L 272.977356 101.306374 
L 273.190191 100.04044 
L 276.808395 100.04044 
L 277.021231 99.407473 
L 277.234066 99.407473 
L 277.446902 98.774505 
L 280.639435 98.774505 
L 280.85227 98.141538 
L 298.517619 98.141538 
L 298.730455 97.508571 
L 302.561494 97.508571 
L 302.77433 96.875604 
L 303.838507 96.875604 
L 304.051343 96.242637 
L 304.264178 96.242637 
L 304.477014 95.60967 
L 305.754027 95.60967 
L 305.966862 94.976703 
L 306.818205 94.976703 
L 307.03104 94.343736 
L 308.733724 94.343736 
L 308.94656 93.710769 
L 311.074915 93.710769 
L 311.287751 93.077802 
L 312.139093 93.077802 
L 312.351928 92.444835 
L 312.564764 92.444835 
L 312.777599 91.811868 
L 313.841777 91.811868 
L 314.054613 91.178901 
L 321.503856 91.178901 
L 321.716692 90.545934 
L 359.38858 90.545934 
L 359.601416 89.28 
L 375.138409 89.28 
L 375.138409 89.28 
" clip-path="url(#p5e12ad35ea)" style="fill: none; stroke: #c957db; stroke-width: 1.2; stroke-linecap: round"/>
   </g>
   <g id="line2d_32"/>
   <g id="line2d_33"/>
   <g id="line2d_34"/>
   <g id="line2d_35"/>
   <g id="line2d_36"/>
   <g id="patch_3">
    <path d="M 54.225 512.64 
L 54.225 69.12 
" style="fill: none; stroke: #cccccc; stroke-linejoin: miter; stroke-linecap: square"/>
   </g>
   <g id="patch_4">
    <path d="M 54.225 512.64 
L 390.42 512.64 
" style="fill: none; stroke: #cccccc; stroke-linejoin: miter; stroke-linecap: square"/>
   </g>
   <g id="text_29">
    <!-- Edge Coverage History -->
    <g style="fill: #262626" transform="translate(115.431012 63.12)scale(0.165888 -0.165888)">
     <defs>
      <path id="DejaVuSans-Bold-45" d="M 588 4666 
L 3834 4666 
L 3834 3756 
L 1791 3756 
L 1791 2888 
L 3713 2888 
L 3713 1978 
L 1791 1978 
L 1791 909 
L 3903 909 
L 3903 0 
L 588 0 
L 588 4666 
z
" transform="scale(0.015625)"/>
      <path id="DejaVuSans-Bold-64" d="M 2919 2988 
L 2919 4863 
L 4044 4863 
L 4044 0 
L 2919 0 
L 2919 506 
Q 2688 197 2409 53 
Q 2131 -91 1766 -91 
Q 1119 -91 703 423 
Q 288 938 288 1747 
Q 288 2556 703 3070 
Q 1119 3584 1766 3584 
Q 2128 3584 2408 3439 
Q 2688 3294 2919 2988 
z
M 2181 722 
Q 2541 722 2730 984 
Q 2919 1247 2919 1747 
Q 2919 2247 2730 2509 
Q 2541 2772 2181 2772 
Q 1825 2772 1636 2509 
Q 1447 2247 1447 1747 
Q 1447 1247 1636 984 
Q 1825 722 2181 722 
z
" transform="scale(0.015625)"/>
      <path id="DejaVuSans-Bold-67" d="M 2919 594 
Q 2688 288 2409 144 
Q 2131 0 1766 0 
Q 1125 0 706 504 
Q 288 1009 288 1791 
Q 288 2575 706 3076 
Q 1125 3578 1766 3578 
Q 2131 3578 2409 3434 
Q 2688 3291 2919 2981 
L 2919 3500 
L 4044 3500 
L 4044 353 
Q 4044 -491 3511 -936 
Q 2978 -1381 1966 -1381 
Q 1638 -1381 1331 -1331 
Q 1025 -1281 716 -1178 
L 716 -306 
Q 1009 -475 1290 -558 
Q 1572 -641 1856 -641 
Q 2406 -641 2662 -400 
Q 2919 -159 2919 353 
L 2919 594 
z
M 2181 2772 
Q 1834 2772 1640 2515 
Q 1447 2259 1447 1791 
Q 1447 1309 1634 1061 
Q 1822 813 2181 813 
Q 2531 813 2725 1069 
Q 2919 1325 2919 1791 
Q 2919 2259 2725 2515 
Q 2531 2772 2181 2772 
z
" transform="scale(0.015625)"/>
      <path id="DejaVuSans-Bold-65" d="M 4031 1759 
L 4031 1441 
L 1416 1441 
Q 1456 1047 1700 850 
Q 1944 653 2381 653 
Q 2734 653 3104 758 
Q 3475 863 3866 1075 
L 3866 213 
Q 3469 63 3072 -14 
Q 2675 -91 2278 -91 
Q 1328 -91 801 392 
Q 275 875 275 1747 
Q 275 2603 792 3093 
Q 1309 3584 2216 3584 
Q 3041 3584 3536 3087 
Q 4031 2591 4031 1759 
z
M 2881 2131 
Q 2881 2450 2695 2645 
Q 2509 2841 2209 2841 
Q 1884 2841 1681 2658 
Q 1478 2475 1428 2131 
L 2881 2131 
z
" transform="scale(0.015625)"/>
      <path id="DejaVuSans-Bold-20" transform="scale(0.015625)"/>
      <path id="DejaVuSans-Bold-43" d="M 4288 256 
Q 3956 84 3597 -3 
Q 3238 -91 2847 -91 
Q 1681 -91 1000 561 
Q 319 1213 319 2328 
Q 319 3447 1000 4098 
Q 1681 4750 2847 4750 
Q 3238 4750 3597 4662 
Q 3956 4575 4288 4403 
L 4288 3438 
Q 3953 3666 3628 3772 
Q 3303 3878 2944 3878 
Q 2300 3878 1931 3465 
Q 1563 3053 1563 2328 
Q 1563 1606 1931 1193 
Q 2300 781 2944 781 
Q 3303 781 3628 887 
Q 3953 994 4288 1222 
L 4288 256 
z
" transform="scale(0.015625)"/>
      <path id="DejaVuSans-Bold-6f" d="M 2203 2784 
Q 1831 2784 1636 2517 
Q 1441 2250 1441 1747 
Q 1441 1244 1636 976 
Q 1831 709 2203 709 
Q 2569 709 2762 976 
Q 2956 1244 2956 1747 
Q 2956 2250 2762 2517 
Q 2569 2784 2203 2784 
z
M 2203 3584 
Q 3106 3584 3614 3096 
Q 4122 2609 4122 1747 
Q 4122 884 3614 396 
Q 3106 -91 2203 -91 
Q 1297 -91 786 396 
Q 275 884 275 1747 
Q 275 2609 786 3096 
Q 1297 3584 2203 3584 
z
" transform="scale(0.015625)"/>
      <path id="DejaVuSans-Bold-76" d="M 97 3500 
L 1216 3500 
L 2088 1081 
L 2956 3500 
L 4078 3500 
L 2700 0 
L 1472 0 
L 97 3500 
z
" transform="scale(0.015625)"/>
      <path id="DejaVuSans-Bold-72" d="M 3138 2547 
Q 2991 2616 2845 2648 
Q 2700 2681 2553 2681 
Q 2122 2681 1889 2404 
Q 1656 2128 1656 1613 
L 1656 0 
L 538 0 
L 538 3500 
L 1656 3500 
L 1656 2925 
Q 1872 3269 2151 3426 
Q 2431 3584 2822 3584 
Q 2878 3584 2943 3579 
Q 3009 3575 3134 3559 
L 3138 2547 
z
" transform="scale(0.015625)"/>
      <path id="DejaVuSans-Bold-61" d="M 2106 1575 
Q 1756 1575 1579 1456 
Q 1403 1338 1403 1106 
Q 1403 894 1545 773 
Q 1688 653 1941 653 
Q 2256 653 2472 879 
Q 2688 1106 2688 1447 
L 2688 1575 
L 2106 1575 
z
M 3816 1997 
L 3816 0 
L 2688 0 
L 2688 519 
Q 2463 200 2181 54 
Q 1900 -91 1497 -91 
Q 953 -91 614 226 
Q 275 544 275 1050 
Q 275 1666 698 1953 
Q 1122 2241 2028 2241 
L 2688 2241 
L 2688 2328 
Q 2688 2594 2478 2717 
Q 2269 2841 1825 2841 
Q 1466 2841 1156 2769 
Q 847 2697 581 2553 
L 581 3406 
Q 941 3494 1303 3539 
Q 1666 3584 2028 3584 
Q 2975 3584 3395 3211 
Q 3816 2838 3816 1997 
z
" transform="scale(0.015625)"/>
      <path id="DejaVuSans-Bold-48" d="M 588 4666 
L 1791 4666 
L 1791 2888 
L 3566 2888 
L 3566 4666 
L 4769 4666 
L 4769 0 
L 3566 0 
L 3566 1978 
L 1791 1978 
L 1791 0 
L 588 0 
L 588 4666 
z
" transform="scale(0.015625)"/>
      <path id="DejaVuSans-Bold-69" d="M 538 3500 
L 1656 3500 
L 1656 0 
L 538 0 
L 538 3500 
z
M 538 4863 
L 1656 4863 
L 1656 3950 
L 538 3950 
L 538 4863 
z
" transform="scale(0.015625)"/>
      <path id="DejaVuSans-Bold-73" d="M 3272 3391 
L 3272 2541 
Q 2913 2691 2578 2766 
Q 2244 2841 1947 2841 
Q 1628 2841 1473 2761 
Q 1319 2681 1319 2516 
Q 1319 2381 1436 2309 
Q 1553 2238 1856 2203 
L 2053 2175 
Q 2913 2066 3209 1816 
Q 3506 1566 3506 1031 
Q 3506 472 3093 190 
Q 2681 -91 1863 -91 
Q 1516 -91 1145 -36 
Q 775 19 384 128 
L 384 978 
Q 719 816 1070 734 
Q 1422 653 1784 653 
Q 2113 653 2278 743 
Q 2444 834 2444 1013 
Q 2444 1163 2330 1236 
Q 2216 1309 1875 1350 
L 1678 1375 
Q 931 1469 631 1722 
Q 331 1975 331 2491 
Q 331 3047 712 3315 
Q 1094 3584 1881 3584 
Q 2191 3584 2531 3537 
Q 2872 3491 3272 3391 
z
" transform="scale(0.015625)"/>
      <path id="DejaVuSans-Bold-74" d="M 1759 4494 
L 1759 3500 
L 2913 3500 
L 2913 2700 
L 1759 2700 
L 1759 1216 
Q 1759 972 1856 886 
Q 1953 800 2241 800 
L 2816 800 
L 2816 0 
L 1856 0 
Q 1194 0 917 276 
Q 641 553 641 1216 
L 641 2700 
L 84 2700 
L 84 3500 
L 641 3500 
L 641 4494 
L 1759 4494 
z
" transform="scale(0.015625)"/>
      <path id="DejaVuSans-Bold-79" d="M 78 3500 
L 1197 3500 
L 2138 1125 
L 2938 3500 
L 4056 3500 
L 2584 -331 
Q 2363 -916 2067 -1148 
Q 1772 -1381 1288 -1381 
L 641 -1381 
L 641 -647 
L 991 -647 
Q 1275 -647 1404 -556 
Q 1534 -466 1606 -231 
L 1638 -134 
L 78 3500 
z
" transform="scale(0.015625)"/>
     </defs>
     <use xlink:href="#DejaVuSans-Bold-45"/>
     <use xlink:href="#DejaVuSans-Bold-64" x="68.310547"/>
     <use xlink:href="#DejaVuSans-Bold-67" x="139.892578"/>
     <use xlink:href="#DejaVuSans-Bold-65" x="211.474609"/>
     <use xlink:href="#DejaVuSans-Bold-20" x="279.296875"/>
     <use xlink:href="#DejaVuSans-Bold-43" x="314.111328"/>
     <use xlink:href="#DejaVuSans-Bold-6f" x="387.5"/>
     <use xlink:href="#DejaVuSans-Bold-76" x="456.201172"/>
     <use xlink:href="#DejaVuSans-Bold-65" x="521.386719"/>
     <use xlink:href="#DejaVuSans-Bold-72" x="589.208984"/>
     <use xlink:href="#DejaVuSans-Bold-61" x="638.525391"/>
     <use xlink:href="#DejaVuSans-Bold-67" x="706.005859"/>
     <use xlink:href="#DejaVuSans-Bold-65" x="777.587891"/>
     <use xlink:href="#DejaVuSans-Bold-20" x="845.410156"/>
     <use xlink:href="#DejaVuSans-Bold-48" x="880.224609"/>
     <use xlink:href="#DejaVuSans-Bold-69" x="963.916016"/>
     <use xlink:href="#DejaVuSans-Bold-73" x="998.193359"/>
     <use xlink:href="#DejaVuSans-Bold-74" x="1057.714844"/>
     <use xlink:href="#DejaVuSans-Bold-6f" x="1105.517578"/>
     <use xlink:href="#DejaVuSans-Bold-72" x="1174.21875"/>
     <use xlink:href="#DejaVuSans-Bold-79" x="1223.535156"/>
    </g>
   </g>
   <g id="legend_1">
    <g id="patch_5">
     <path d="M 267.132 508.24 
L 384.26 508.24 
Q 386.02 508.24 386.02 506.48 
L 386.02 428.8405 
Q 386.02 427.0805 384.26 427.0805 
L 267.132 427.0805 
Q 265.372 427.0805 265.372 428.8405 
L 265.372 506.48 
Q 265.372 508.24 267.132 508.24 
z
" style="fill: #ffffff; opacity: 0.8; stroke: #cccccc; stroke-width: 0.8; stroke-linejoin: miter"/>
    </g>
    <g id="text_30">
     <!-- fuzzer -->
     <g style="fill: #262626" transform="translate(310.999 437.895)scale(0.096 -0.096)">
      <defs>
       <path id="DejaVuSans-66" d="M 2375 4863 
L 2375 4384 
L 1825 4384 
Q 1516 4384 1395 4259 
Q 1275 4134 1275 3809 
L 1275 3500 
L 2222 3500 
L 2222 3053 
L 1275 3053 
L 1275 0 
L 697 0 
L 697 3053 
L 147 3053 
L 147 3500 
L 697 3500 
L 697 3744 
Q 697 4328 969 4595 
Q 1241 4863 1831 4863 
L 2375 4863 
z
" transform="scale(0.015625)"/>
       <path id="DejaVuSans-7a" d="M 353 3500 
L 3084 3500 
L 3084 2975 
L 922 459 
L 3084 459 
L 3084 0 
L 275 0 
L 275 525 
L 2438 3041 
L 353 3041 
L 353 3500 
z
" transform="scale(0.015625)"/>
      </defs>
      <use xlink:href="#DejaVuSans-66"/>
      <use xlink:href="#DejaVuSans-75" x="35.205078"/>
      <use xlink:href="#DejaVuSans-7a" x="98.583984"/>
      <use xlink:href="#DejaVuSans-7a" x="151.074219"/>
      <use xlink:href="#DejaVuSans-65" x="203.564453"/>
      <use xlink:href="#DejaVuSans-72" x="265.087891"/>
     </g>
    </g>
    <g id="line2d_37">
     <path d="M 268.892 447.898125 
L 277.692 447.898125 
L 286.492 447.898125 
" style="fill: none; stroke: #db5f57; stroke-width: 1.2; stroke-linecap: round"/>
    </g>
    <g id="text_31">
     <!-- aflfast-0-exid20 -->
     <g style="fill: #262626" transform="translate(293.532 450.978125)scale(0.088 -0.088)">
      <defs>
       <path id="DejaVuSans-6c" d="M 603 4863 
L 1178 4863 
L 1178 0 
L 603 0 
L 603 4863 
z
" transform="scale(0.015625)"/>
       <path id="DejaVuSans-2d" d="M 313 2009 
L 1997 2009 
L 1997 1497 
L 313 1497 
L 313 2009 
z
" transform="scale(0.015625)"/>
       <path id="DejaVuSans-78" d="M 3513 3500 
L 2247 1797 
L 3578 0 
L 2900 0 
L 1881 1375 
L 863 0 
L 184 0 
L 1544 1831 
L 300 3500 
L 978 3500 
L 1906 2253 
L 2834 3500 
L 3513 3500 
z
" transform="scale(0.015625)"/>
      </defs>
      <use xlink:href="#DejaVuSans-61"/>
      <use xlink:href="#DejaVuSans-66" x="61.279297"/>
      <use xlink:href="#DejaVuSans-6c" x="96.484375"/>
      <use xlink:href="#DejaVuSans-66" x="124.267578"/>
      <use xlink:href="#DejaVuSans-61" x="159.472656"/>
      <use xlink:href="#DejaVuSans-73" x="220.751953"/>
      <use xlink:href="#DejaVuSans-74" x="272.851562"/>
      <use xlink:href="#DejaVuSans-2d" x="312.060547"/>
      <use xlink:href="#DejaVuSans-30" x="348.144531"/>
      <use xlink:href="#DejaVuSans-2d" x="411.767578"/>
      <use xlink:href="#DejaVuSans-65" x="447.851562"/>
      <use xlink:href="#DejaVuSans-78" x="507.625"/>
      <use xlink:href="#DejaVuSans-69" x="566.804688"/>
      <use xlink:href="#DejaVuSans-64" x="594.587891"/>
      <use xlink:href="#DejaVuSans-32" x="658.064453"/>
      <use xlink:href="#DejaVuSans-30" x="721.6875"/>
     </g>
    </g>
    <g id="line2d_38">
     <path d="M 268.892 460.814875 
L 277.692 460.814875 
L 286.492 460.814875 
" style="fill: none; stroke: #b9db57; stroke-width: 1.2; stroke-linecap: round"/>
    </g>
    <g id="text_32">
     <!-- fairfuzz-0-exid20 -->
     <g style="fill: #262626" transform="translate(293.532 463.894875)scale(0.088 -0.088)">
      <use xlink:href="#DejaVuSans-66"/>
      <use xlink:href="#DejaVuSans-61" x="35.205078"/>
      <use xlink:href="#DejaVuSans-69" x="96.484375"/>
      <use xlink:href="#DejaVuSans-72" x="124.267578"/>
      <use xlink:href="#DejaVuSans-66" x="165.380859"/>
      <use xlink:href="#DejaVuSans-75" x="200.585938"/>
      <use xlink:href="#DejaVuSans-7a" x="263.964844"/>
      <use xlink:href="#DejaVuSans-7a" x="316.455078"/>
      <use xlink:href="#DejaVuSans-2d" x="368.945312"/>
      <use xlink:href="#DejaVuSans-30" x="405.029297"/>
      <use xlink:href="#DejaVuSans-2d" x="468.652344"/>
      <use xlink:href="#DejaVuSans-65" x="504.736328"/>
      <use xlink:href="#DejaVuSans-78" x="564.509766"/>
      <use xlink:href="#DejaVuSans-69" x="623.689453"/>
      <use xlink:href="#DejaVuSans-64" x="651.472656"/>
      <use xlink:href="#DejaVuSans-32" x="714.949219"/>
      <use xlink:href="#DejaVuSans-30" x="778.572266"/>
     </g>
    </g>
    <g id="line2d_39">
     <path d="M 268.892 473.731625 
L 277.692 473.731625 
L 286.492 473.731625 
" style="fill: none; stroke: #57db94; stroke-width: 1.2; stroke-linecap: round"/>
    </g>
    <g id="text_33">
     <!-- afl-0-exid20 -->
     <g style="fill: #262626" transform="translate(293.532 476.811625)scale(0.088 -0.088)">
      <use xlink:href="#DejaVuSans-61"/>
      <use xlink:href="#DejaVuSans-66" x="61.279297"/>
      <use xlink:href="#DejaVuSans-6c" x="96.484375"/>
      <use xlink:href="#DejaVuSans-2d" x="124.267578"/>
      <use xlink:href="#DejaVuSans-30" x="160.351562"/>
      <use xlink:href="#DejaVuSans-2d" x="223.974609"/>
      <use xlink:href="#DejaVuSans-65" x="260.058594"/>
      <use xlink:href="#DejaVuSans-78" x="319.832031"/>
      <use xlink:href="#DejaVuSans-69" x="379.011719"/>
      <use xlink:href="#DejaVuSans-64" x="406.794922"/>
      <use xlink:href="#DejaVuSans-32" x="470.271484"/>
      <use xlink:href="#DejaVuSans-30" x="533.894531"/>
     </g>
    </g>
    <g id="line2d_40">
     <path d="M 268.892 486.648375 
L 277.692 486.648375 
L 286.492 486.648375 
" style="fill: none; stroke: #5784db; stroke-width: 1.2; stroke-linecap: round"/>
    </g>
    <g id="text_34">
     <!-- aflplusplus-0-exid20 -->
     <g style="fill: #262626" transform="translate(293.532 489.728375)scale(0.088 -0.088)">
      <defs>
       <path id="DejaVuSans-70" d="M 1159 525 
L 1159 -1331 
L 581 -1331 
L 581 3500 
L 1159 3500 
L 1159 2969 
Q 1341 3281 1617 3432 
Q 1894 3584 2278 3584 
Q 2916 3584 3314 3078 
Q 3713 2572 3713 1747 
Q 3713 922 3314 415 
Q 2916 -91 2278 -91 
Q 1894 -91 1617 61 
Q 1341 213 1159 525 
z
M 3116 1747 
Q 3116 2381 2855 2742 
Q 2594 3103 2138 3103 
Q 1681 3103 1420 2742 
Q 1159 2381 1159 1747 
Q 1159 1113 1420 752 
Q 1681 391 2138 391 
Q 2594 391 2855 752 
Q 3116 1113 3116 1747 
z
" transform="scale(0.015625)"/>
      </defs>
      <use xlink:href="#DejaVuSans-61"/>
      <use xlink:href="#DejaVuSans-66" x="61.279297"/>
      <use xlink:href="#DejaVuSans-6c" x="96.484375"/>
      <use xlink:href="#DejaVuSans-70" x="124.267578"/>
      <use xlink:href="#DejaVuSans-6c" x="187.744141"/>
      <use xlink:href="#DejaVuSans-75" x="215.527344"/>
      <use xlink:href="#DejaVuSans-73" x="278.90625"/>
      <use xlink:href="#DejaVuSans-70" x="331.005859"/>
      <use xlink:href="#DejaVuSans-6c" x="394.482422"/>
      <use xlink:href="#DejaVuSans-75" x="422.265625"/>
      <use xlink:href="#DejaVuSans-73" x="485.644531"/>
      <use xlink:href="#DejaVuSans-2d" x="537.744141"/>
      <use xlink:href="#DejaVuSans-30" x="573.828125"/>
      <use xlink:href="#DejaVuSans-2d" x="637.451172"/>
      <use xlink:href="#DejaVuSans-65" x="673.535156"/>
      <use xlink:href="#DejaVuSans-78" x="733.308594"/>
      <use xlink:href="#DejaVuSans-69" x="792.488281"/>
      <use xlink:href="#DejaVuSans-64" x="820.271484"/>
      <use xlink:href="#DejaVuSans-32" x="883.748047"/>
      <use xlink:href="#DejaVuSans-30" x="947.371094"/>
     </g>
    </g>
    <g id="line2d_41">
     <path d="M 268.892 499.565125 
L 277.692 499.565125 
L 286.492 499.565125 
" style="fill: none; stroke: #c957db; stroke-width: 1.2; stroke-linecap: round"/>
    </g>
    <g id="text_35">
     <!-- fuzzer_global -->
     <g style="fill: #262626" transform="translate(293.532 502.645125)scale(0.088 -0.088)">
      <defs>
       <path id="DejaVuSans-5f" d="M 3263 -1063 
L 3263 -1509 
L -63 -1509 
L -63 -1063 
L 3263 -1063 
z
" transform="scale(0.015625)"/>
       <path id="DejaVuSans-62" d="M 3116 1747 
Q 3116 2381 2855 2742 
Q 2594 3103 2138 3103 
Q 1681 3103 1420 2742 
Q 1159 2381 1159 1747 
Q 1159 1113 1420 752 
Q 1681 391 2138 391 
Q 2594 391 2855 752 
Q 3116 1113 3116 1747 
z
M 1159 2969 
Q 1341 3281 1617 3432 
Q 1894 3584 2278 3584 
Q 2916 3584 3314 3078 
Q 3713 2572 3713 1747 
Q 3713 922 3314 415 
Q 2916 -91 2278 -91 
Q 1894 -91 1617 61 
Q 1341 213 1159 525 
L 1159 0 
L 581 0 
L 581 4863 
L 1159 4863 
L 1159 2969 
z
" transform="scale(0.015625)"/>
      </defs>
      <use xlink:href="#DejaVuSans-66"/>
      <use xlink:href="#DejaVuSans-75" x="35.205078"/>
      <use xlink:href="#DejaVuSans-7a" x="98.583984"/>
      <use xlink:href="#DejaVuSans-7a" x="151.074219"/>
      <use xlink:href="#DejaVuSans-65" x="203.564453"/>
      <use xlink:href="#DejaVuSans-72" x="265.087891"/>
      <use xlink:href="#DejaVuSans-5f" x="306.201172"/>
      <use xlink:href="#DejaVuSans-67" x="356.201172"/>
      <use xlink:href="#DejaVuSans-6c" x="419.677734"/>
      <use xlink:href="#DejaVuSans-6f" x="447.460938"/>
      <use xlink:href="#DejaVuSans-62" x="508.642578"/>
      <use xlink:href="#DejaVuSans-61" x="572.119141"/>
      <use xlink:href="#DejaVuSans-6c" x="633.398438"/>
     </g>
    </g>
   </g>
  </g>
 </g>
 <defs>
  <clipPath id="p5e12ad35ea">
   <rect x="54.225" y="69.12" width="336.195" height="443.52"/>
  </clipPath>
 </defs>
</svg>
