<?xml version="1.0" encoding="utf-8" standalone="no"?>
<!DOCTYPE svg PUBLIC "-//W3C//DTD SVG 1.1//EN"
  "http://www.w3.org/Graphics/SVG/1.1/DTD/svg11.dtd">
<svg xmlns:xlink="http://www.w3.org/1999/xlink" width="434.7pt" height="576pt" viewBox="0 0 434.7 576" xmlns="http://www.w3.org/2000/svg" version="1.1">
 <metadata>
  <rdf:RDF xmlns:dc="http://purl.org/dc/elements/1.1/" xmlns:cc="http://creativecommons.org/ns#" xmlns:rdf="http://www.w3.org/1999/02/22-rdf-syntax-ns#">
   <cc:Work>
    <dc:type rdf:resource="http://purl.org/dc/dcmitype/StillImage"/>
    <dc:date>2022-09-15T11:30:54.233133</dc:date>
    <dc:format>image/svg+xml</dc:format>
    <dc:creator>
     <cc:Agent>
      <dc:title>Matplotlib v3.5.3, https://matplotlib.org/</dc:title>
     </cc:Agent>
    </dc:creator>
   </cc:Work>
  </rdf:RDF>
 </metadata>
 <defs>
  <style type="text/css">*{stroke-linejoin: round; stroke-linecap: butt}</style>
 </defs>
 <g id="figure_1">
  <g id="patch_1">
   <path d="M 0 576 
L 434.7 576 
L 434.7 0 
L 0 0 
z
" style="fill: #ffffff"/>
  </g>
  <g id="axes_1">
   <g id="patch_2">
    <path d="M 54.3375 512.64 
L 391.23 512.64 
L 391.23 69.12 
L 54.3375 69.12 
z
" style="fill: #ffffff"/>
   </g>
   <g id="matplotlib.axis_1">
    <g id="xtick_1">
     <g id="line2d_1">
      <path d="M 69.650795 512.64 
L 69.650795 69.12 
" clip-path="url(#pc3c8d32348)" style="fill: none; stroke: #cccccc; stroke-width: 0.8; stroke-linecap: round"/>
     </g>
     <g id="text_1">
      <!-- 0 -->
      <g style="fill: #262626" transform="translate(69.388282 529.627249)rotate(-45)scale(0.088 -0.088)">
       <defs>
        <path id="DejaVuSans-30" d="M 2034 4250 
Q 1547 4250 1301 3770 
Q 1056 3291 1056 2328 
Q 1056 1369 1301 889 
Q 1547 409 2034 409 
Q 2525 409 2770 889 
Q 3016 1369 3016 2328 
Q 3016 3291 2770 3770 
Q 2525 4250 2034 4250 
z
M 2034 4750 
Q 2819 4750 3233 4129 
Q 3647 3509 3647 2328 
Q 3647 1150 3233 529 
Q 2819 -91 2034 -91 
Q 1250 -91 836 529 
Q 422 1150 422 2328 
Q 422 3509 836 4129 
Q 1250 4750 2034 4750 
z
" transform="scale(0.015625)"/>
       </defs>
       <use xlink:href="#DejaVuSans-30"/>
      </g>
     </g>
    </g>
    <g id="xtick_2">
     <g id="line2d_2">
      <path d="M 86.677392 512.64 
L 86.677392 69.12 
" clip-path="url(#pc3c8d32348)" style="fill: none; stroke: #cccccc; stroke-width: 0.8; stroke-linecap: round"/>
     </g>
     <g id="text_2">
      <!-- 80 -->
      <g style="fill: #262626" transform="translate(84.435333 533.58634)rotate(-45)scale(0.088 -0.088)">
       <defs>
        <path id="DejaVuSans-38" d="M 2034 2216 
Q 1584 2216 1326 1975 
Q 1069 1734 1069 1313 
Q 1069 891 1326 650 
Q 1584 409 2034 409 
Q 2484 409 2743 651 
Q 3003 894 3003 1313 
Q 3003 1734 2745 1975 
Q 2488 2216 2034 2216 
z
M 1403 2484 
Q 997 2584 770 2862 
Q 544 3141 544 3541 
Q 544 4100 942 4425 
Q 1341 4750 2034 4750 
Q 2731 4750 3128 4425 
Q 3525 4100 3525 3541 
Q 3525 3141 3298 2862 
Q 3072 2584 2669 2484 
Q 3125 2378 3379 2068 
Q 3634 1759 3634 1313 
Q 3634 634 3220 271 
Q 2806 -91 2034 -91 
Q 1263 -91 848 271 
Q 434 634 434 1313 
Q 434 1759 690 2068 
Q 947 2378 1403 2484 
z
M 1172 3481 
Q 1172 3119 1398 2916 
Q 1625 2713 2034 2713 
Q 2441 2713 2670 2916 
Q 2900 3119 2900 3481 
Q 2900 3844 2670 4047 
Q 2441 4250 2034 4250 
Q 1625 4250 1398 4047 
Q 1172 3844 1172 3481 
z
" transform="scale(0.015625)"/>
       </defs>
       <use xlink:href="#DejaVuSans-38"/>
       <use xlink:href="#DejaVuSans-30" x="63.623047"/>
      </g>
     </g>
    </g>
    <g id="xtick_3">
     <g id="line2d_3">
      <path d="M 103.703989 512.64 
L 103.703989 69.12 
" clip-path="url(#pc3c8d32348)" style="fill: none; stroke: #cccccc; stroke-width: 0.8; stroke-linecap: round"/>
     </g>
     <g id="text_3">
      <!-- 160 -->
      <g style="fill: #262626" transform="translate(99.482385 537.54543)rotate(-45)scale(0.088 -0.088)">
       <defs>
        <path id="DejaVuSans-31" d="M 794 531 
L 1825 531 
L 1825 4091 
L 703 3866 
L 703 4441 
L 1819 4666 
L 2450 4666 
L 2450 531 
L 3481 531 
L 3481 0 
L 794 0 
L 794 531 
z
" transform="scale(0.015625)"/>
        <path id="DejaVuSans-36" d="M 2113 2584 
Q 1688 2584 1439 2293 
Q 1191 2003 1191 1497 
Q 1191 994 1439 701 
Q 1688 409 2113 409 
Q 2538 409 2786 701 
Q 3034 994 3034 1497 
Q 3034 2003 2786 2293 
Q 2538 2584 2113 2584 
z
M 3366 4563 
L 3366 3988 
Q 3128 4100 2886 4159 
Q 2644 4219 2406 4219 
Q 1781 4219 1451 3797 
Q 1122 3375 1075 2522 
Q 1259 2794 1537 2939 
Q 1816 3084 2150 3084 
Q 2853 3084 3261 2657 
Q 3669 2231 3669 1497 
Q 3669 778 3244 343 
Q 2819 -91 2113 -91 
Q 1303 -91 875 529 
Q 447 1150 447 2328 
Q 447 3434 972 4092 
Q 1497 4750 2381 4750 
Q 2619 4750 2861 4703 
Q 3103 4656 3366 4563 
z
" transform="scale(0.015625)"/>
       </defs>
       <use xlink:href="#DejaVuSans-31"/>
       <use xlink:href="#DejaVuSans-36" x="63.623047"/>
       <use xlink:href="#DejaVuSans-30" x="127.246094"/>
      </g>
     </g>
    </g>
    <g id="xtick_4">
     <g id="line2d_4">
      <path d="M 120.730586 512.64 
L 120.730586 69.12 
" clip-path="url(#pc3c8d32348)" style="fill: none; stroke: #cccccc; stroke-width: 0.8; stroke-linecap: round"/>
     </g>
     <g id="text_4">
      <!-- 240 -->
      <g style="fill: #262626" transform="translate(116.508981 537.54543)rotate(-45)scale(0.088 -0.088)">
       <defs>
        <path id="DejaVuSans-32" d="M 1228 531 
L 3431 531 
L 3431 0 
L 469 0 
L 469 531 
Q 828 903 1448 1529 
Q 2069 2156 2228 2338 
Q 2531 2678 2651 2914 
Q 2772 3150 2772 3378 
Q 2772 3750 2511 3984 
Q 2250 4219 1831 4219 
Q 1534 4219 1204 4116 
Q 875 4013 500 3803 
L 500 4441 
Q 881 4594 1212 4672 
Q 1544 4750 1819 4750 
Q 2544 4750 2975 4387 
Q 3406 4025 3406 3419 
Q 3406 3131 3298 2873 
Q 3191 2616 2906 2266 
Q 2828 2175 2409 1742 
Q 1991 1309 1228 531 
z
" transform="scale(0.015625)"/>
        <path id="DejaVuSans-34" d="M 2419 4116 
L 825 1625 
L 2419 1625 
L 2419 4116 
z
M 2253 4666 
L 3047 4666 
L 3047 1625 
L 3713 1625 
L 3713 1100 
L 3047 1100 
L 3047 0 
L 2419 0 
L 2419 1100 
L 313 1100 
L 313 1709 
L 2253 4666 
z
" transform="scale(0.015625)"/>
       </defs>
       <use xlink:href="#DejaVuSans-32"/>
       <use xlink:href="#DejaVuSans-34" x="63.623047"/>
       <use xlink:href="#DejaVuSans-30" x="127.246094"/>
      </g>
     </g>
    </g>
    <g id="xtick_5">
     <g id="line2d_5">
      <path d="M 137.757182 512.64 
L 137.757182 69.12 
" clip-path="url(#pc3c8d32348)" style="fill: none; stroke: #cccccc; stroke-width: 0.8; stroke-linecap: round"/>
     </g>
     <g id="text_5">
      <!-- 320 -->
      <g style="fill: #262626" transform="translate(133.535578 537.54543)rotate(-45)scale(0.088 -0.088)">
       <defs>
        <path id="DejaVuSans-33" d="M 2597 2516 
Q 3050 2419 3304 2112 
Q 3559 1806 3559 1356 
Q 3559 666 3084 287 
Q 2609 -91 1734 -91 
Q 1441 -91 1130 -33 
Q 819 25 488 141 
L 488 750 
Q 750 597 1062 519 
Q 1375 441 1716 441 
Q 2309 441 2620 675 
Q 2931 909 2931 1356 
Q 2931 1769 2642 2001 
Q 2353 2234 1838 2234 
L 1294 2234 
L 1294 2753 
L 1863 2753 
Q 2328 2753 2575 2939 
Q 2822 3125 2822 3475 
Q 2822 3834 2567 4026 
Q 2313 4219 1838 4219 
Q 1578 4219 1281 4162 
Q 984 4106 628 3988 
L 628 4550 
Q 988 4650 1302 4700 
Q 1616 4750 1894 4750 
Q 2613 4750 3031 4423 
Q 3450 4097 3450 3541 
Q 3450 3153 3228 2886 
Q 3006 2619 2597 2516 
z
" transform="scale(0.015625)"/>
       </defs>
       <use xlink:href="#DejaVuSans-33"/>
       <use xlink:href="#DejaVuSans-32" x="63.623047"/>
       <use xlink:href="#DejaVuSans-30" x="127.246094"/>
      </g>
     </g>
    </g>
    <g id="xtick_6">
     <g id="line2d_6">
      <path d="M 154.783779 512.64 
L 154.783779 69.12 
" clip-path="url(#pc3c8d32348)" style="fill: none; stroke: #cccccc; stroke-width: 0.8; stroke-linecap: round"/>
     </g>
     <g id="text_6">
      <!-- 400 -->
      <g style="fill: #262626" transform="translate(150.562175 537.54543)rotate(-45)scale(0.088 -0.088)">
       <use xlink:href="#DejaVuSans-34"/>
       <use xlink:href="#DejaVuSans-30" x="63.623047"/>
       <use xlink:href="#DejaVuSans-30" x="127.246094"/>
      </g>
     </g>
    </g>
    <g id="xtick_7">
     <g id="line2d_7">
      <path d="M 171.810376 512.64 
L 171.810376 69.12 
" clip-path="url(#pc3c8d32348)" style="fill: none; stroke: #cccccc; stroke-width: 0.8; stroke-linecap: round"/>
     </g>
     <g id="text_7">
      <!-- 480 -->
      <g style="fill: #262626" transform="translate(167.588772 537.54543)rotate(-45)scale(0.088 -0.088)">
       <use xlink:href="#DejaVuSans-34"/>
       <use xlink:href="#DejaVuSans-38" x="63.623047"/>
       <use xlink:href="#DejaVuSans-30" x="127.246094"/>
      </g>
     </g>
    </g>
    <g id="xtick_8">
     <g id="line2d_8">
      <path d="M 188.836973 512.64 
L 188.836973 69.12 
" clip-path="url(#pc3c8d32348)" style="fill: none; stroke: #cccccc; stroke-width: 0.8; stroke-linecap: round"/>
     </g>
     <g id="text_8">
      <!-- 560 -->
      <g style="fill: #262626" transform="translate(184.615368 537.54543)rotate(-45)scale(0.088 -0.088)">
       <defs>
        <path id="DejaVuSans-35" d="M 691 4666 
L 3169 4666 
L 3169 4134 
L 1269 4134 
L 1269 2991 
Q 1406 3038 1543 3061 
Q 1681 3084 1819 3084 
Q 2600 3084 3056 2656 
Q 3513 2228 3513 1497 
Q 3513 744 3044 326 
Q 2575 -91 1722 -91 
Q 1428 -91 1123 -41 
Q 819 9 494 109 
L 494 744 
Q 775 591 1075 516 
Q 1375 441 1709 441 
Q 2250 441 2565 725 
Q 2881 1009 2881 1497 
Q 2881 1984 2565 2268 
Q 2250 2553 1709 2553 
Q 1456 2553 1204 2497 
Q 953 2441 691 2322 
L 691 4666 
z
" transform="scale(0.015625)"/>
       </defs>
       <use xlink:href="#DejaVuSans-35"/>
       <use xlink:href="#DejaVuSans-36" x="63.623047"/>
       <use xlink:href="#DejaVuSans-30" x="127.246094"/>
      </g>
     </g>
    </g>
    <g id="xtick_9">
     <g id="line2d_9">
      <path d="M 205.863569 512.64 
L 205.863569 69.12 
" clip-path="url(#pc3c8d32348)" style="fill: none; stroke: #cccccc; stroke-width: 0.8; stroke-linecap: round"/>
     </g>
     <g id="text_9">
      <!-- 640 -->
      <g style="fill: #262626" transform="translate(201.641965 537.54543)rotate(-45)scale(0.088 -0.088)">
       <use xlink:href="#DejaVuSans-36"/>
       <use xlink:href="#DejaVuSans-34" x="63.623047"/>
       <use xlink:href="#DejaVuSans-30" x="127.246094"/>
      </g>
     </g>
    </g>
    <g id="xtick_10">
     <g id="line2d_10">
      <path d="M 222.890166 512.64 
L 222.890166 69.12 
" clip-path="url(#pc3c8d32348)" style="fill: none; stroke: #cccccc; stroke-width: 0.8; stroke-linecap: round"/>
     </g>
     <g id="text_10">
      <!-- 720 -->
      <g style="fill: #262626" transform="translate(218.668562 537.54543)rotate(-45)scale(0.088 -0.088)">
       <defs>
        <path id="DejaVuSans-37" d="M 525 4666 
L 3525 4666 
L 3525 4397 
L 1831 0 
L 1172 0 
L 2766 4134 
L 525 4134 
L 525 4666 
z
" transform="scale(0.015625)"/>
       </defs>
       <use xlink:href="#DejaVuSans-37"/>
       <use xlink:href="#DejaVuSans-32" x="63.623047"/>
       <use xlink:href="#DejaVuSans-30" x="127.246094"/>
      </g>
     </g>
    </g>
    <g id="xtick_11">
     <g id="line2d_11">
      <path d="M 239.916763 512.64 
L 239.916763 69.12 
" clip-path="url(#pc3c8d32348)" style="fill: none; stroke: #cccccc; stroke-width: 0.8; stroke-linecap: round"/>
     </g>
     <g id="text_11">
      <!-- 800 -->
      <g style="fill: #262626" transform="translate(235.695159 537.54543)rotate(-45)scale(0.088 -0.088)">
       <use xlink:href="#DejaVuSans-38"/>
       <use xlink:href="#DejaVuSans-30" x="63.623047"/>
       <use xlink:href="#DejaVuSans-30" x="127.246094"/>
      </g>
     </g>
    </g>
    <g id="xtick_12">
     <g id="line2d_12">
      <path d="M 256.94336 512.64 
L 256.94336 69.12 
" clip-path="url(#pc3c8d32348)" style="fill: none; stroke: #cccccc; stroke-width: 0.8; stroke-linecap: round"/>
     </g>
     <g id="text_12">
      <!-- 880 -->
      <g style="fill: #262626" transform="translate(252.721755 537.54543)rotate(-45)scale(0.088 -0.088)">
       <use xlink:href="#DejaVuSans-38"/>
       <use xlink:href="#DejaVuSans-38" x="63.623047"/>
       <use xlink:href="#DejaVuSans-30" x="127.246094"/>
      </g>
     </g>
    </g>
    <g id="xtick_13">
     <g id="line2d_13">
      <path d="M 273.969956 512.64 
L 273.969956 69.12 
" clip-path="url(#pc3c8d32348)" style="fill: none; stroke: #cccccc; stroke-width: 0.8; stroke-linecap: round"/>
     </g>
     <g id="text_13">
      <!-- 960 -->
      <g style="fill: #262626" transform="translate(269.748352 537.54543)rotate(-45)scale(0.088 -0.088)">
       <defs>
        <path id="DejaVuSans-39" d="M 703 97 
L 703 672 
Q 941 559 1184 500 
Q 1428 441 1663 441 
Q 2288 441 2617 861 
Q 2947 1281 2994 2138 
Q 2813 1869 2534 1725 
Q 2256 1581 1919 1581 
Q 1219 1581 811 2004 
Q 403 2428 403 3163 
Q 403 3881 828 4315 
Q 1253 4750 1959 4750 
Q 2769 4750 3195 4129 
Q 3622 3509 3622 2328 
Q 3622 1225 3098 567 
Q 2575 -91 1691 -91 
Q 1453 -91 1209 -44 
Q 966 3 703 97 
z
M 1959 2075 
Q 2384 2075 2632 2365 
Q 2881 2656 2881 3163 
Q 2881 3666 2632 3958 
Q 2384 4250 1959 4250 
Q 1534 4250 1286 3958 
Q 1038 3666 1038 3163 
Q 1038 2656 1286 2365 
Q 1534 2075 1959 2075 
z
" transform="scale(0.015625)"/>
       </defs>
       <use xlink:href="#DejaVuSans-39"/>
       <use xlink:href="#DejaVuSans-36" x="63.623047"/>
       <use xlink:href="#DejaVuSans-30" x="127.246094"/>
      </g>
     </g>
    </g>
    <g id="xtick_14">
     <g id="line2d_14">
      <path d="M 290.996553 512.64 
L 290.996553 69.12 
" clip-path="url(#pc3c8d32348)" style="fill: none; stroke: #cccccc; stroke-width: 0.8; stroke-linecap: round"/>
     </g>
     <g id="text_14">
      <!-- 1040 -->
      <g style="fill: #262626" transform="translate(284.795404 541.504521)rotate(-45)scale(0.088 -0.088)">
       <use xlink:href="#DejaVuSans-31"/>
       <use xlink:href="#DejaVuSans-30" x="63.623047"/>
       <use xlink:href="#DejaVuSans-34" x="127.246094"/>
       <use xlink:href="#DejaVuSans-30" x="190.869141"/>
      </g>
     </g>
    </g>
    <g id="xtick_15">
     <g id="line2d_15">
      <path d="M 308.02315 512.64 
L 308.02315 69.12 
" clip-path="url(#pc3c8d32348)" style="fill: none; stroke: #cccccc; stroke-width: 0.8; stroke-linecap: round"/>
     </g>
     <g id="text_15">
      <!-- 1120 -->
      <g style="fill: #262626" transform="translate(301.822 541.504521)rotate(-45)scale(0.088 -0.088)">
       <use xlink:href="#DejaVuSans-31"/>
       <use xlink:href="#DejaVuSans-31" x="63.623047"/>
       <use xlink:href="#DejaVuSans-32" x="127.246094"/>
       <use xlink:href="#DejaVuSans-30" x="190.869141"/>
      </g>
     </g>
    </g>
    <g id="xtick_16">
     <g id="line2d_16">
      <path d="M 325.049747 512.64 
L 325.049747 69.12 
" clip-path="url(#pc3c8d32348)" style="fill: none; stroke: #cccccc; stroke-width: 0.8; stroke-linecap: round"/>
     </g>
     <g id="text_16">
      <!-- 1200 -->
      <g style="fill: #262626" transform="translate(318.848597 541.504521)rotate(-45)scale(0.088 -0.088)">
       <use xlink:href="#DejaVuSans-31"/>
       <use xlink:href="#DejaVuSans-32" x="63.623047"/>
       <use xlink:href="#DejaVuSans-30" x="127.246094"/>
       <use xlink:href="#DejaVuSans-30" x="190.869141"/>
      </g>
     </g>
    </g>
    <g id="xtick_17">
     <g id="line2d_17">
      <path d="M 342.076343 512.64 
L 342.076343 69.12 
" clip-path="url(#pc3c8d32348)" style="fill: none; stroke: #cccccc; stroke-width: 0.8; stroke-linecap: round"/>
     </g>
     <g id="text_17">
      <!-- 1280 -->
      <g style="fill: #262626" transform="translate(335.875194 541.504521)rotate(-45)scale(0.088 -0.088)">
       <use xlink:href="#DejaVuSans-31"/>
       <use xlink:href="#DejaVuSans-32" x="63.623047"/>
       <use xlink:href="#DejaVuSans-38" x="127.246094"/>
       <use xlink:href="#DejaVuSans-30" x="190.869141"/>
      </g>
     </g>
    </g>
    <g id="xtick_18">
     <g id="line2d_18">
      <path d="M 359.10294 512.64 
L 359.10294 69.12 
" clip-path="url(#pc3c8d32348)" style="fill: none; stroke: #cccccc; stroke-width: 0.8; stroke-linecap: round"/>
     </g>
     <g id="text_18">
      <!-- 1360 -->
      <g style="fill: #262626" transform="translate(352.901791 541.504521)rotate(-45)scale(0.088 -0.088)">
       <use xlink:href="#DejaVuSans-31"/>
       <use xlink:href="#DejaVuSans-33" x="63.623047"/>
       <use xlink:href="#DejaVuSans-36" x="127.246094"/>
       <use xlink:href="#DejaVuSans-30" x="190.869141"/>
      </g>
     </g>
    </g>
    <g id="xtick_19">
     <g id="line2d_19">
      <path d="M 376.129537 512.64 
L 376.129537 69.12 
" clip-path="url(#pc3c8d32348)" style="fill: none; stroke: #cccccc; stroke-width: 0.8; stroke-linecap: round"/>
     </g>
     <g id="text_19">
      <!-- 1440 -->
      <g style="fill: #262626" transform="translate(369.928387 541.504521)rotate(-45)scale(0.088 -0.088)">
       <use xlink:href="#DejaVuSans-31"/>
       <use xlink:href="#DejaVuSans-34" x="63.623047"/>
       <use xlink:href="#DejaVuSans-34" x="127.246094"/>
       <use xlink:href="#DejaVuSans-30" x="190.869141"/>
      </g>
     </g>
    </g>
    <g id="text_20">
     <!-- Time (Minutes) -->
     <g style="fill: #262626" transform="translate(186.87375 554.093115)scale(0.096 -0.096)">
      <defs>
       <path id="DejaVuSans-54" d="M -19 4666 
L 3928 4666 
L 3928 4134 
L 2272 4134 
L 2272 0 
L 1638 0 
L 1638 4134 
L -19 4134 
L -19 4666 
z
" transform="scale(0.015625)"/>
       <path id="DejaVuSans-69" d="M 603 3500 
L 1178 3500 
L 1178 0 
L 603 0 
L 603 3500 
z
M 603 4863 
L 1178 4863 
L 1178 4134 
L 603 4134 
L 603 4863 
z
" transform="scale(0.015625)"/>
       <path id="DejaVuSans-6d" d="M 3328 2828 
Q 3544 3216 3844 3400 
Q 4144 3584 4550 3584 
Q 5097 3584 5394 3201 
Q 5691 2819 5691 2113 
L 5691 0 
L 5113 0 
L 5113 2094 
Q 5113 2597 4934 2840 
Q 4756 3084 4391 3084 
Q 3944 3084 3684 2787 
Q 3425 2491 3425 1978 
L 3425 0 
L 2847 0 
L 2847 2094 
Q 2847 2600 2669 2842 
Q 2491 3084 2119 3084 
Q 1678 3084 1418 2786 
Q 1159 2488 1159 1978 
L 1159 0 
L 581 0 
L 581 3500 
L 1159 3500 
L 1159 2956 
Q 1356 3278 1631 3431 
Q 1906 3584 2284 3584 
Q 2666 3584 2933 3390 
Q 3200 3197 3328 2828 
z
" transform="scale(0.015625)"/>
       <path id="DejaVuSans-65" d="M 3597 1894 
L 3597 1613 
L 953 1613 
Q 991 1019 1311 708 
Q 1631 397 2203 397 
Q 2534 397 2845 478 
Q 3156 559 3463 722 
L 3463 178 
Q 3153 47 2828 -22 
Q 2503 -91 2169 -91 
Q 1331 -91 842 396 
Q 353 884 353 1716 
Q 353 2575 817 3079 
Q 1281 3584 2069 3584 
Q 2775 3584 3186 3129 
Q 3597 2675 3597 1894 
z
M 3022 2063 
Q 3016 2534 2758 2815 
Q 2500 3097 2075 3097 
Q 1594 3097 1305 2825 
Q 1016 2553 972 2059 
L 3022 2063 
z
" transform="scale(0.015625)"/>
       <path id="DejaVuSans-20" transform="scale(0.015625)"/>
       <path id="DejaVuSans-28" d="M 1984 4856 
Q 1566 4138 1362 3434 
Q 1159 2731 1159 2009 
Q 1159 1288 1364 580 
Q 1569 -128 1984 -844 
L 1484 -844 
Q 1016 -109 783 600 
Q 550 1309 550 2009 
Q 550 2706 781 3412 
Q 1013 4119 1484 4856 
L 1984 4856 
z
" transform="scale(0.015625)"/>
       <path id="DejaVuSans-4d" d="M 628 4666 
L 1569 4666 
L 2759 1491 
L 3956 4666 
L 4897 4666 
L 4897 0 
L 4281 0 
L 4281 4097 
L 3078 897 
L 2444 897 
L 1241 4097 
L 1241 0 
L 628 0 
L 628 4666 
z
" transform="scale(0.015625)"/>
       <path id="DejaVuSans-6e" d="M 3513 2113 
L 3513 0 
L 2938 0 
L 2938 2094 
Q 2938 2591 2744 2837 
Q 2550 3084 2163 3084 
Q 1697 3084 1428 2787 
Q 1159 2491 1159 1978 
L 1159 0 
L 581 0 
L 581 3500 
L 1159 3500 
L 1159 2956 
Q 1366 3272 1645 3428 
Q 1925 3584 2291 3584 
Q 2894 3584 3203 3211 
Q 3513 2838 3513 2113 
z
" transform="scale(0.015625)"/>
       <path id="DejaVuSans-75" d="M 544 1381 
L 544 3500 
L 1119 3500 
L 1119 1403 
Q 1119 906 1312 657 
Q 1506 409 1894 409 
Q 2359 409 2629 706 
Q 2900 1003 2900 1516 
L 2900 3500 
L 3475 3500 
L 3475 0 
L 2900 0 
L 2900 538 
Q 2691 219 2414 64 
Q 2138 -91 1772 -91 
Q 1169 -91 856 284 
Q 544 659 544 1381 
z
M 1991 3584 
L 1991 3584 
z
" transform="scale(0.015625)"/>
       <path id="DejaVuSans-74" d="M 1172 4494 
L 1172 3500 
L 2356 3500 
L 2356 3053 
L 1172 3053 
L 1172 1153 
Q 1172 725 1289 603 
Q 1406 481 1766 481 
L 2356 481 
L 2356 0 
L 1766 0 
Q 1100 0 847 248 
Q 594 497 594 1153 
L 594 3053 
L 172 3053 
L 172 3500 
L 594 3500 
L 594 4494 
L 1172 4494 
z
" transform="scale(0.015625)"/>
       <path id="DejaVuSans-73" d="M 2834 3397 
L 2834 2853 
Q 2591 2978 2328 3040 
Q 2066 3103 1784 3103 
Q 1356 3103 1142 2972 
Q 928 2841 928 2578 
Q 928 2378 1081 2264 
Q 1234 2150 1697 2047 
L 1894 2003 
Q 2506 1872 2764 1633 
Q 3022 1394 3022 966 
Q 3022 478 2636 193 
Q 2250 -91 1575 -91 
Q 1294 -91 989 -36 
Q 684 19 347 128 
L 347 722 
Q 666 556 975 473 
Q 1284 391 1588 391 
Q 1994 391 2212 530 
Q 2431 669 2431 922 
Q 2431 1156 2273 1281 
Q 2116 1406 1581 1522 
L 1381 1569 
Q 847 1681 609 1914 
Q 372 2147 372 2553 
Q 372 3047 722 3315 
Q 1072 3584 1716 3584 
Q 2034 3584 2315 3537 
Q 2597 3491 2834 3397 
z
" transform="scale(0.015625)"/>
       <path id="DejaVuSans-29" d="M 513 4856 
L 1013 4856 
Q 1481 4119 1714 3412 
Q 1947 2706 1947 2009 
Q 1947 1309 1714 600 
Q 1481 -109 1013 -844 
L 513 -844 
Q 928 -128 1133 580 
Q 1338 1288 1338 2009 
Q 1338 2731 1133 3434 
Q 928 4138 513 4856 
z
" transform="scale(0.015625)"/>
      </defs>
      <use xlink:href="#DejaVuSans-54"/>
      <use xlink:href="#DejaVuSans-69" x="57.958984"/>
      <use xlink:href="#DejaVuSans-6d" x="85.742188"/>
      <use xlink:href="#DejaVuSans-65" x="183.154297"/>
      <use xlink:href="#DejaVuSans-20" x="244.677734"/>
      <use xlink:href="#DejaVuSans-28" x="276.464844"/>
      <use xlink:href="#DejaVuSans-4d" x="315.478516"/>
      <use xlink:href="#DejaVuSans-69" x="401.757812"/>
      <use xlink:href="#DejaVuSans-6e" x="429.541016"/>
      <use xlink:href="#DejaVuSans-75" x="492.919922"/>
      <use xlink:href="#DejaVuSans-74" x="556.298828"/>
      <use xlink:href="#DejaVuSans-65" x="595.507812"/>
      <use xlink:href="#DejaVuSans-73" x="657.03125"/>
      <use xlink:href="#DejaVuSans-29" x="709.130859"/>
     </g>
    </g>
   </g>
   <g id="matplotlib.axis_2">
    <g id="ytick_1">
     <g id="line2d_20">
      <path d="M 54.3375 492.48 
L 391.23 492.48 
" clip-path="url(#pc3c8d32348)" style="fill: none; stroke: #cccccc; stroke-width: 0.8; stroke-linecap: round"/>
     </g>
     <g id="text_21">
      <!-- 0 -->
      <g style="fill: #262626" transform="translate(40.4385 495.823312)scale(0.088 -0.088)">
       <use xlink:href="#DejaVuSans-30"/>
      </g>
     </g>
    </g>
    <g id="ytick_2">
     <g id="line2d_21">
      <path d="M 54.3375 467.682952 
L 391.23 467.682952 
" clip-path="url(#pc3c8d32348)" style="fill: none; stroke: #cccccc; stroke-width: 0.8; stroke-linecap: round"/>
     </g>
     <g id="text_22">
      <!-- 100 -->
      <g style="fill: #262626" transform="translate(29.2405 471.026265)scale(0.088 -0.088)">
       <use xlink:href="#DejaVuSans-31"/>
       <use xlink:href="#DejaVuSans-30" x="63.623047"/>
       <use xlink:href="#DejaVuSans-30" x="127.246094"/>
      </g>
     </g>
    </g>
    <g id="ytick_3">
     <g id="line2d_22">
      <path d="M 54.3375 442.885904 
L 391.23 442.885904 
" clip-path="url(#pc3c8d32348)" style="fill: none; stroke: #cccccc; stroke-width: 0.8; stroke-linecap: round"/>
     </g>
     <g id="text_23">
      <!-- 200 -->
      <g style="fill: #262626" transform="translate(29.2405 446.229217)scale(0.088 -0.088)">
       <use xlink:href="#DejaVuSans-32"/>
       <use xlink:href="#DejaVuSans-30" x="63.623047"/>
       <use xlink:href="#DejaVuSans-30" x="127.246094"/>
      </g>
     </g>
    </g>
    <g id="ytick_4">
     <g id="line2d_23">
      <path d="M 54.3375 418.088856 
L 391.23 418.088856 
" clip-path="url(#pc3c8d32348)" style="fill: none; stroke: #cccccc; stroke-width: 0.8; stroke-linecap: round"/>
     </g>
     <g id="text_24">
      <!-- 300 -->
      <g style="fill: #262626" transform="translate(29.2405 421.432169)scale(0.088 -0.088)">
       <use xlink:href="#DejaVuSans-33"/>
       <use xlink:href="#DejaVuSans-30" x="63.623047"/>
       <use xlink:href="#DejaVuSans-30" x="127.246094"/>
      </g>
     </g>
    </g>
    <g id="ytick_5">
     <g id="line2d_24">
      <path d="M 54.3375 393.291808 
L 391.23 393.291808 
" clip-path="url(#pc3c8d32348)" style="fill: none; stroke: #cccccc; stroke-width: 0.8; stroke-linecap: round"/>
     </g>
     <g id="text_25">
      <!-- 400 -->
      <g style="fill: #262626" transform="translate(29.2405 396.635121)scale(0.088 -0.088)">
       <use xlink:href="#DejaVuSans-34"/>
       <use xlink:href="#DejaVuSans-30" x="63.623047"/>
       <use xlink:href="#DejaVuSans-30" x="127.246094"/>
      </g>
     </g>
    </g>
    <g id="ytick_6">
     <g id="line2d_25">
      <path d="M 54.3375 368.49476 
L 391.23 368.49476 
" clip-path="url(#pc3c8d32348)" style="fill: none; stroke: #cccccc; stroke-width: 0.8; stroke-linecap: round"/>
     </g>
     <g id="text_26">
      <!-- 500 -->
      <g style="fill: #262626" transform="translate(29.2405 371.838073)scale(0.088 -0.088)">
       <use xlink:href="#DejaVuSans-35"/>
       <use xlink:href="#DejaVuSans-30" x="63.623047"/>
       <use xlink:href="#DejaVuSans-30" x="127.246094"/>
      </g>
     </g>
    </g>
    <g id="ytick_7">
     <g id="line2d_26">
      <path d="M 54.3375 343.697712 
L 391.23 343.697712 
" clip-path="url(#pc3c8d32348)" style="fill: none; stroke: #cccccc; stroke-width: 0.8; stroke-linecap: round"/>
     </g>
     <g id="text_27">
      <!-- 600 -->
      <g style="fill: #262626" transform="translate(29.2405 347.041025)scale(0.088 -0.088)">
       <use xlink:href="#DejaVuSans-36"/>
       <use xlink:href="#DejaVuSans-30" x="63.623047"/>
       <use xlink:href="#DejaVuSans-30" x="127.246094"/>
      </g>
     </g>
    </g>
    <g id="ytick_8">
     <g id="line2d_27">
      <path d="M 54.3375 318.900664 
L 391.23 318.900664 
" clip-path="url(#pc3c8d32348)" style="fill: none; stroke: #cccccc; stroke-width: 0.8; stroke-linecap: round"/>
     </g>
     <g id="text_28">
      <!-- 700 -->
      <g style="fill: #262626" transform="translate(29.2405 322.243977)scale(0.088 -0.088)">
       <use xlink:href="#DejaVuSans-37"/>
       <use xlink:href="#DejaVuSans-30" x="63.623047"/>
       <use xlink:href="#DejaVuSans-30" x="127.246094"/>
      </g>
     </g>
    </g>
    <g id="ytick_9">
     <g id="line2d_28">
      <path d="M 54.3375 294.103616 
L 391.23 294.103616 
" clip-path="url(#pc3c8d32348)" style="fill: none; stroke: #cccccc; stroke-width: 0.8; stroke-linecap: round"/>
     </g>
     <g id="text_29">
      <!-- 800 -->
      <g style="fill: #262626" transform="translate(29.2405 297.446929)scale(0.088 -0.088)">
       <use xlink:href="#DejaVuSans-38"/>
       <use xlink:href="#DejaVuSans-30" x="63.623047"/>
       <use xlink:href="#DejaVuSans-30" x="127.246094"/>
      </g>
     </g>
    </g>
    <g id="ytick_10">
     <g id="line2d_29">
      <path d="M 54.3375 269.306568 
L 391.23 269.306568 
" clip-path="url(#pc3c8d32348)" style="fill: none; stroke: #cccccc; stroke-width: 0.8; stroke-linecap: round"/>
     </g>
     <g id="text_30">
      <!-- 900 -->
      <g style="fill: #262626" transform="translate(29.2405 272.649881)scale(0.088 -0.088)">
       <use xlink:href="#DejaVuSans-39"/>
       <use xlink:href="#DejaVuSans-30" x="63.623047"/>
       <use xlink:href="#DejaVuSans-30" x="127.246094"/>
      </g>
     </g>
    </g>
    <g id="ytick_11">
     <g id="line2d_30">
      <path d="M 54.3375 244.50952 
L 391.23 244.50952 
" clip-path="url(#pc3c8d32348)" style="fill: none; stroke: #cccccc; stroke-width: 0.8; stroke-linecap: round"/>
     </g>
     <g id="text_31">
      <!-- 1000 -->
      <g style="fill: #262626" transform="translate(23.6415 247.852833)scale(0.088 -0.088)">
       <use xlink:href="#DejaVuSans-31"/>
       <use xlink:href="#DejaVuSans-30" x="63.623047"/>
       <use xlink:href="#DejaVuSans-30" x="127.246094"/>
       <use xlink:href="#DejaVuSans-30" x="190.869141"/>
      </g>
     </g>
    </g>
    <g id="ytick_12">
     <g id="line2d_31">
      <path d="M 54.3375 219.712472 
L 391.23 219.712472 
" clip-path="url(#pc3c8d32348)" style="fill: none; stroke: #cccccc; stroke-width: 0.8; stroke-linecap: round"/>
     </g>
     <g id="text_32">
      <!-- 1100 -->
      <g style="fill: #262626" transform="translate(23.6415 223.055785)scale(0.088 -0.088)">
       <use xlink:href="#DejaVuSans-31"/>
       <use xlink:href="#DejaVuSans-31" x="63.623047"/>
       <use xlink:href="#DejaVuSans-30" x="127.246094"/>
       <use xlink:href="#DejaVuSans-30" x="190.869141"/>
      </g>
     </g>
    </g>
    <g id="ytick_13">
     <g id="line2d_32">
      <path d="M 54.3375 194.915424 
L 391.23 194.915424 
" clip-path="url(#pc3c8d32348)" style="fill: none; stroke: #cccccc; stroke-width: 0.8; stroke-linecap: round"/>
     </g>
     <g id="text_33">
      <!-- 1200 -->
      <g style="fill: #262626" transform="translate(23.6415 198.258737)scale(0.088 -0.088)">
       <use xlink:href="#DejaVuSans-31"/>
       <use xlink:href="#DejaVuSans-32" x="63.623047"/>
       <use xlink:href="#DejaVuSans-30" x="127.246094"/>
       <use xlink:href="#DejaVuSans-30" x="190.869141"/>
      </g>
     </g>
    </g>
    <g id="ytick_14">
     <g id="line2d_33">
      <path d="M 54.3375 170.118376 
L 391.23 170.118376 
" clip-path="url(#pc3c8d32348)" style="fill: none; stroke: #cccccc; stroke-width: 0.8; stroke-linecap: round"/>
     </g>
     <g id="text_34">
      <!-- 1300 -->
      <g style="fill: #262626" transform="translate(23.6415 173.461689)scale(0.088 -0.088)">
       <use xlink:href="#DejaVuSans-31"/>
       <use xlink:href="#DejaVuSans-33" x="63.623047"/>
       <use xlink:href="#DejaVuSans-30" x="127.246094"/>
       <use xlink:href="#DejaVuSans-30" x="190.869141"/>
      </g>
     </g>
    </g>
    <g id="ytick_15">
     <g id="line2d_34">
      <path d="M 54.3375 145.321328 
L 391.23 145.321328 
" clip-path="url(#pc3c8d32348)" style="fill: none; stroke: #cccccc; stroke-width: 0.8; stroke-linecap: round"/>
     </g>
     <g id="text_35">
      <!-- 1400 -->
      <g style="fill: #262626" transform="translate(23.6415 148.664641)scale(0.088 -0.088)">
       <use xlink:href="#DejaVuSans-31"/>
       <use xlink:href="#DejaVuSans-34" x="63.623047"/>
       <use xlink:href="#DejaVuSans-30" x="127.246094"/>
       <use xlink:href="#DejaVuSans-30" x="190.869141"/>
      </g>
     </g>
    </g>
    <g id="ytick_16">
     <g id="line2d_35">
      <path d="M 54.3375 120.52428 
L 391.23 120.52428 
" clip-path="url(#pc3c8d32348)" style="fill: none; stroke: #cccccc; stroke-width: 0.8; stroke-linecap: round"/>
     </g>
     <g id="text_36">
      <!-- 1500 -->
      <g style="fill: #262626" transform="translate(23.6415 123.867593)scale(0.088 -0.088)">
       <use xlink:href="#DejaVuSans-31"/>
       <use xlink:href="#DejaVuSans-35" x="63.623047"/>
       <use xlink:href="#DejaVuSans-30" x="127.246094"/>
       <use xlink:href="#DejaVuSans-30" x="190.869141"/>
      </g>
     </g>
    </g>
    <g id="ytick_17">
     <g id="line2d_36">
      <path d="M 54.3375 95.727232 
L 391.23 95.727232 
" clip-path="url(#pc3c8d32348)" style="fill: none; stroke: #cccccc; stroke-width: 0.8; stroke-linecap: round"/>
     </g>
     <g id="text_37">
      <!-- 1600 -->
      <g style="fill: #262626" transform="translate(23.6415 99.070545)scale(0.088 -0.088)">
       <use xlink:href="#DejaVuSans-31"/>
       <use xlink:href="#DejaVuSans-36" x="63.623047"/>
       <use xlink:href="#DejaVuSans-30" x="127.246094"/>
       <use xlink:href="#DejaVuSans-30" x="190.869141"/>
      </g>
     </g>
    </g>
    <g id="text_38">
     <!-- Edge Coverages -->
     <g style="fill: #262626" transform="translate(17.645 329.98575)rotate(-90)scale(0.096 -0.096)">
      <defs>
       <path id="DejaVuSans-45" d="M 628 4666 
L 3578 4666 
L 3578 4134 
L 1259 4134 
L 1259 2753 
L 3481 2753 
L 3481 2222 
L 1259 2222 
L 1259 531 
L 3634 531 
L 3634 0 
L 628 0 
L 628 4666 
z
" transform="scale(0.015625)"/>
       <path id="DejaVuSans-64" d="M 2906 2969 
L 2906 4863 
L 3481 4863 
L 3481 0 
L 2906 0 
L 2906 525 
Q 2725 213 2448 61 
Q 2172 -91 1784 -91 
Q 1150 -91 751 415 
Q 353 922 353 1747 
Q 353 2572 751 3078 
Q 1150 3584 1784 3584 
Q 2172 3584 2448 3432 
Q 2725 3281 2906 2969 
z
M 947 1747 
Q 947 1113 1208 752 
Q 1469 391 1925 391 
Q 2381 391 2643 752 
Q 2906 1113 2906 1747 
Q 2906 2381 2643 2742 
Q 2381 3103 1925 3103 
Q 1469 3103 1208 2742 
Q 947 2381 947 1747 
z
" transform="scale(0.015625)"/>
       <path id="DejaVuSans-67" d="M 2906 1791 
Q 2906 2416 2648 2759 
Q 2391 3103 1925 3103 
Q 1463 3103 1205 2759 
Q 947 2416 947 1791 
Q 947 1169 1205 825 
Q 1463 481 1925 481 
Q 2391 481 2648 825 
Q 2906 1169 2906 1791 
z
M 3481 434 
Q 3481 -459 3084 -895 
Q 2688 -1331 1869 -1331 
Q 1566 -1331 1297 -1286 
Q 1028 -1241 775 -1147 
L 775 -588 
Q 1028 -725 1275 -790 
Q 1522 -856 1778 -856 
Q 2344 -856 2625 -561 
Q 2906 -266 2906 331 
L 2906 616 
Q 2728 306 2450 153 
Q 2172 0 1784 0 
Q 1141 0 747 490 
Q 353 981 353 1791 
Q 353 2603 747 3093 
Q 1141 3584 1784 3584 
Q 2172 3584 2450 3431 
Q 2728 3278 2906 2969 
L 2906 3500 
L 3481 3500 
L 3481 434 
z
" transform="scale(0.015625)"/>
       <path id="DejaVuSans-43" d="M 4122 4306 
L 4122 3641 
Q 3803 3938 3442 4084 
Q 3081 4231 2675 4231 
Q 1875 4231 1450 3742 
Q 1025 3253 1025 2328 
Q 1025 1406 1450 917 
Q 1875 428 2675 428 
Q 3081 428 3442 575 
Q 3803 722 4122 1019 
L 4122 359 
Q 3791 134 3420 21 
Q 3050 -91 2638 -91 
Q 1578 -91 968 557 
Q 359 1206 359 2328 
Q 359 3453 968 4101 
Q 1578 4750 2638 4750 
Q 3056 4750 3426 4639 
Q 3797 4528 4122 4306 
z
" transform="scale(0.015625)"/>
       <path id="DejaVuSans-6f" d="M 1959 3097 
Q 1497 3097 1228 2736 
Q 959 2375 959 1747 
Q 959 1119 1226 758 
Q 1494 397 1959 397 
Q 2419 397 2687 759 
Q 2956 1122 2956 1747 
Q 2956 2369 2687 2733 
Q 2419 3097 1959 3097 
z
M 1959 3584 
Q 2709 3584 3137 3096 
Q 3566 2609 3566 1747 
Q 3566 888 3137 398 
Q 2709 -91 1959 -91 
Q 1206 -91 779 398 
Q 353 888 353 1747 
Q 353 2609 779 3096 
Q 1206 3584 1959 3584 
z
" transform="scale(0.015625)"/>
       <path id="DejaVuSans-76" d="M 191 3500 
L 800 3500 
L 1894 563 
L 2988 3500 
L 3597 3500 
L 2284 0 
L 1503 0 
L 191 3500 
z
" transform="scale(0.015625)"/>
       <path id="DejaVuSans-72" d="M 2631 2963 
Q 2534 3019 2420 3045 
Q 2306 3072 2169 3072 
Q 1681 3072 1420 2755 
Q 1159 2438 1159 1844 
L 1159 0 
L 581 0 
L 581 3500 
L 1159 3500 
L 1159 2956 
Q 1341 3275 1631 3429 
Q 1922 3584 2338 3584 
Q 2397 3584 2469 3576 
Q 2541 3569 2628 3553 
L 2631 2963 
z
" transform="scale(0.015625)"/>
       <path id="DejaVuSans-61" d="M 2194 1759 
Q 1497 1759 1228 1600 
Q 959 1441 959 1056 
Q 959 750 1161 570 
Q 1363 391 1709 391 
Q 2188 391 2477 730 
Q 2766 1069 2766 1631 
L 2766 1759 
L 2194 1759 
z
M 3341 1997 
L 3341 0 
L 2766 0 
L 2766 531 
Q 2569 213 2275 61 
Q 1981 -91 1556 -91 
Q 1019 -91 701 211 
Q 384 513 384 1019 
Q 384 1609 779 1909 
Q 1175 2209 1959 2209 
L 2766 2209 
L 2766 2266 
Q 2766 2663 2505 2880 
Q 2244 3097 1772 3097 
Q 1472 3097 1187 3025 
Q 903 2953 641 2809 
L 641 3341 
Q 956 3463 1253 3523 
Q 1550 3584 1831 3584 
Q 2591 3584 2966 3190 
Q 3341 2797 3341 1997 
z
" transform="scale(0.015625)"/>
      </defs>
      <use xlink:href="#DejaVuSans-45"/>
      <use xlink:href="#DejaVuSans-64" x="63.183594"/>
      <use xlink:href="#DejaVuSans-67" x="126.660156"/>
      <use xlink:href="#DejaVuSans-65" x="190.136719"/>
      <use xlink:href="#DejaVuSans-20" x="251.660156"/>
      <use xlink:href="#DejaVuSans-43" x="283.447266"/>
      <use xlink:href="#DejaVuSans-6f" x="353.271484"/>
      <use xlink:href="#DejaVuSans-76" x="414.453125"/>
      <use xlink:href="#DejaVuSans-65" x="473.632812"/>
      <use xlink:href="#DejaVuSans-72" x="535.15625"/>
      <use xlink:href="#DejaVuSans-61" x="576.269531"/>
      <use xlink:href="#DejaVuSans-67" x="637.548828"/>
      <use xlink:href="#DejaVuSans-65" x="701.025391"/>
      <use xlink:href="#DejaVuSans-73" x="762.548828"/>
     </g>
    </g>
   </g>
   <g id="PolyCollection_1">
    <defs>
     <path id="m05fc07bd9b" d="M 69.650795 -89.719262 
L 69.650795 -83.52 
L 69.650795 -89.719262 
L 69.650795 -89.719262 
z
" style="stroke: #db5f57; stroke-opacity: 0.2; stroke-width: 0.8"/>
    </defs>
    <g clip-path="url(#pc3c8d32348)">
     <use xlink:href="#m05fc07bd9b" x="0" y="576" style="fill: #db5f57; fill-opacity: 0.2; stroke: #db5f57; stroke-opacity: 0.2; stroke-width: 0.8"/>
    </g>
   </g>
   <g id="PolyCollection_2">
    <defs>
     <path id="mb3715ebd8e" d="M 69.650795 -88.47941 
L 69.650795 -83.52 
L 69.650795 -88.47941 
L 69.650795 -88.47941 
z
" style="stroke: #b9db57; stroke-opacity: 0.2; stroke-width: 0.8"/>
    </defs>
    <g clip-path="url(#pc3c8d32348)">
     <use xlink:href="#mb3715ebd8e" x="0" y="576" style="fill: #b9db57; fill-opacity: 0.2; stroke: #b9db57; stroke-opacity: 0.2; stroke-width: 0.8"/>
    </g>
   </g>
   <g id="PolyCollection_3">
    <defs>
     <path id="m9e8205846d" d="M 69.650795 -93.190849 
L 69.650795 -83.52 
L 69.650795 -93.190849 
L 69.650795 -93.190849 
z
" style="stroke: #57db94; stroke-opacity: 0.2; stroke-width: 0.8"/>
    </defs>
    <g clip-path="url(#pc3c8d32348)">
     <use xlink:href="#m9e8205846d" x="0" y="576" style="fill: #57db94; fill-opacity: 0.2; stroke: #57db94; stroke-opacity: 0.2; stroke-width: 0.8"/>
    </g>
   </g>
   <g id="PolyCollection_4">
    <defs>
     <path id="m3673f4a2f8" d="M 69.650795 -94.430701 
L 69.650795 -83.52 
L 69.650795 -94.430701 
L 69.650795 -94.430701 
z
" style="stroke: #5784db; stroke-opacity: 0.2; stroke-width: 0.8"/>
    </defs>
    <g clip-path="url(#pc3c8d32348)">
     <use xlink:href="#m3673f4a2f8" x="0" y="576" style="fill: #5784db; fill-opacity: 0.2; stroke: #5784db; stroke-opacity: 0.2; stroke-width: 0.8"/>
    </g>
   </g>
   <g id="PolyCollection_5">
    <defs>
     <path id="md3fff381f6" d="M 69.650795 -95.670554 
L 69.650795 -83.52 
L 69.650795 -95.670554 
L 69.650795 -95.670554 
z
" style="stroke: #c957db; stroke-opacity: 0.2; stroke-width: 0.8"/>
    </defs>
    <g clip-path="url(#pc3c8d32348)">
     <use xlink:href="#md3fff381f6" x="0" y="576" style="fill: #c957db; fill-opacity: 0.2; stroke: #c957db; stroke-opacity: 0.2; stroke-width: 0.8"/>
    </g>
   </g>
   <g id="line2d_37">
    <path d="M 69.650795 489.380369 
L 69.863628 485.536827 
L 70.07646 485.040886 
L 70.289293 485.040886 
L 70.502125 484.544945 
L 70.714958 474.626125 
L 70.92779 441.150111 
L 71.353455 425.28 
L 71.566288 410.649742 
L 72.417617 403.458598 
L 73.268947 403.458598 
L 73.48178 378.165609 
L 73.694612 371.470406 
L 73.907445 368.49476 
L 74.120277 363.535351 
L 74.33311 363.535351 
L 74.545942 356.840148 
L 74.758774 356.840148 
L 74.971607 353.12059 
L 75.184439 346.921328 
L 75.397272 346.921328 
L 75.610104 342.45786 
L 75.822937 340.722066 
L 76.035769 337.994391 
L 76.248602 337.002509 
L 76.461434 333.034982 
L 77.312764 333.034982 
L 77.525596 322.372251 
L 77.951261 318.900664 
L 78.164094 312.949373 
L 78.589759 310.469668 
L 78.802591 309.973727 
L 79.228256 309.973727 
L 79.441089 305.014317 
L 79.653921 304.766347 
L 80.292418 304.766347 
L 80.505251 295.591439 
L 80.718083 295.591439 
L 81.143748 291.623911 
L 81.356581 290.88 
L 82.207911 290.88 
L 82.420743 290.63203 
L 82.633575 286.664502 
L 83.05924 285.176679 
L 83.484905 283.688856 
L 83.697738 283.440886 
L 83.91057 282.696974 
L 84.123403 282.696974 
L 84.336235 282.201033 
L 84.974733 278.233506 
L 85.187565 278.233506 
L 85.400397 276.993653 
L 86.251727 276.993653 
L 86.677392 274.265978 
L 87.103057 274.265978 
L 87.31589 274.018007 
L 87.528722 274.018007 
L 87.741555 273.770037 
L 88.167219 269.058598 
L 88.380052 268.314686 
L 88.805717 268.314686 
L 89.018549 268.066716 
L 89.231382 268.066716 
L 89.444214 265.339041 
L 89.657047 264.595129 
L 89.869879 264.595129 
L 90.082712 264.347159 
L 90.508376 264.347159 
L 90.721209 264.099188 
L 90.934041 264.099188 
L 91.146874 261.619483 
L 91.359706 261.619483 
L 91.572539 260.379631 
L 91.785371 260.379631 
L 91.998204 260.131661 
L 93.062366 256.412103 
L 93.275198 255.172251 
L 93.488031 253.188487 
L 93.700863 253.188487 
L 93.913696 252.692546 
L 94.552193 250.212841 
L 94.765026 250.212841 
L 94.977858 249.46893 
L 97.531848 249.46893 
L 97.74468 248.972989 
L 97.957513 248.972989 
L 98.383177 246.989225 
L 112.217287 246.989225 
L 112.43012 231.119114 
L 112.642952 231.119114 
L 112.855785 230.871144 
L 120.943418 230.871144 
L 121.156251 229.135351 
L 124.774402 229.135351 
L 124.987235 228.88738 
L 131.797874 228.88738 
L 132.010706 228.391439 
L 132.436371 228.391439 
L 132.862036 227.895498 
L 133.074868 227.895498 
L 133.500533 227.399557 
L 135.203193 227.399557 
L 135.416025 225.415793 
L 135.628858 225.415793 
L 136.054523 224.919852 
L 136.267355 224.919852 
L 136.480188 224.671882 
L 142.013832 224.671882 
L 142.226664 224.423911 
L 143.503659 224.423911 
L 143.716491 224.175941 
L 144.354989 224.175941 
L 144.567821 223.92797 
L 144.780654 223.43203 
L 147.547476 223.43203 
L 147.760308 223.184059 
L 151.165627 223.184059 
L 151.37846 222.936089 
L 160.317423 222.936089 
L 160.530256 222.688118 
L 168.830722 222.688118 
L 169.043554 221.944207 
L 170.533381 221.944207 
L 170.746214 221.200295 
L 170.959046 220.952325 
L 171.171879 220.952325 
L 171.384711 220.704354 
L 172.023208 220.704354 
L 172.236041 214.753063 
L 173.513036 214.753063 
L 173.725868 210.537565 
L 173.938701 210.537565 
L 174.364365 210.041624 
L 174.577198 210.041624 
L 174.79003 209.545683 
L 175.002863 209.545683 
L 175.428528 208.05786 
L 175.64136 207.809889 
L 175.854193 207.065978 
L 176.067025 207.065978 
L 176.279858 205.826125 
L 176.49269 205.826125 
L 176.705523 205.330185 
L 176.918355 205.330185 
L 177.131187 204.586273 
L 177.34402 204.338303 
L 177.556852 204.338303 
L 177.769685 202.354539 
L 179.04668 202.354539 
L 179.259512 197.89107 
L 179.898009 197.89107 
L 180.110842 195.907306 
L 180.749339 195.907306 
L 180.962172 194.171513 
L 182.026334 194.171513 
L 182.239166 191.443838 
L 182.664831 191.443838 
L 182.877664 191.195867 
L 183.303329 191.195867 
L 183.516161 190.203985 
L 184.793156 190.203985 
L 185.005988 189.212103 
L 185.218821 188.964133 
L 185.644486 188.964133 
L 185.857318 188.716162 
L 186.070151 188.716162 
L 186.282983 187.972251 
L 186.708648 187.972251 
L 187.134313 186.732399 
L 187.347146 186.732399 
L 187.559978 186.484428 
L 187.77281 186.484428 
L 187.985643 185.740517 
L 188.198475 185.740517 
L 188.411308 185.244576 
L 188.62414 185.244576 
L 189.262638 184.500664 
L 189.47547 184.500664 
L 189.688303 184.252694 
L 189.901135 184.252694 
L 190.113967 184.004723 
L 191.390962 184.004723 
L 191.603795 183.508782 
L 192.242292 183.508782 
L 192.667957 181.277048 
L 193.093622 180.781107 
L 193.732119 180.781107 
L 193.944952 178.301402 
L 194.583449 178.301402 
L 194.796282 176.565609 
L 195.009114 176.069668 
L 195.221947 176.069668 
L 195.647611 175.325756 
L 196.286109 175.325756 
L 196.498941 174.581845 
L 196.711774 174.581845 
L 196.924606 174.085904 
L 197.137439 174.085904 
L 197.350271 173.589963 
L 223.528664 173.589963 
L 223.741496 167.638672 
L 223.954329 167.390701 
L 226.508318 167.390701 
L 226.72115 167.142731 
L 236.085779 167.142731 
L 236.298611 166.398819 
L 238.214103 166.398819 
L 238.426936 166.150849 
L 239.065433 166.150849 
L 239.491098 165.158967 
L 239.703931 165.158967 
L 239.916763 164.910996 
L 240.129595 164.910996 
L 240.342428 162.927232 
L 248.642894 162.927232 
L 248.855726 162.431292 
L 249.494224 162.431292 
L 249.707056 162.183321 
L 253.750873 162.183321 
L 254.176538 161.68738 
L 255.027868 161.68738 
L 255.2407 159.951587 
L 255.666365 159.951587 
L 255.879197 159.455646 
L 256.09203 159.455646 
L 256.304862 158.959705 
L 258.007522 158.959705 
L 258.220354 158.711734 
L 264.392496 158.711734 
L 264.605328 158.463764 
L 265.456658 158.463764 
L 265.882323 157.967823 
L 267.159318 157.967823 
L 267.37215 157.471882 
L 268.010648 157.471882 
L 268.22348 157.223911 
L 273.757124 157.223911 
L 273.969956 156.975941 
L 275.034119 156.975941 
L 275.246951 156.72797 
L 275.672616 156.72797 
L 276.098281 156.23203 
L 278.013773 156.23203 
L 278.226606 155.984059 
L 280.567763 155.984059 
L 280.780595 155.736089 
L 281.419093 155.736089 
L 281.631925 155.488118 
L 281.844757 155.488118 
L 282.483255 154.744207 
L 282.696087 154.744207 
L 282.90892 154.496236 
L 289.506726 154.496236 
L 289.719558 154.000295 
L 290.145223 154.000295 
L 290.570888 153.256384 
L 293.550543 153.256384 
L 293.763375 153.008413 
L 332.28605 153.008413 
L 332.498883 152.760443 
L 375.916705 152.760443 
L 375.916705 152.760443 
" clip-path="url(#pc3c8d32348)" style="fill: none; stroke: #db5f57; stroke-width: 1.2; stroke-linecap: round"/>
   </g>
   <g id="line2d_38">
    <path d="M 69.650795 490.000295 
L 69.863628 486.528708 
L 70.07646 486.280738 
L 70.502125 486.280738 
L 70.714958 482.31321 
L 70.92779 446.357491 
L 71.566288 445.613579 
L 71.991953 445.613579 
L 72.204785 404.202509 
L 72.417617 403.954539 
L 72.63045 403.954539 
L 73.056115 403.458598 
L 73.268947 383.86893 
L 73.48178 383.620959 
L 73.694612 382.381107 
L 73.907445 382.133137 
L 74.120277 381.637196 
L 74.33311 362.047528 
L 74.545942 362.047528 
L 74.758774 361.799557 
L 74.971607 352.376679 
L 75.184439 352.128708 
L 75.397272 352.128708 
L 75.610104 350.888856 
L 75.822937 350.640886 
L 76.035769 350.640886 
L 76.248602 335.266716 
L 76.461434 331.795129 
L 76.887099 331.795129 
L 77.099932 331.299188 
L 77.312764 323.364133 
L 77.525596 323.364133 
L 77.738429 322.620221 
L 77.951261 322.620221 
L 78.164094 322.372251 
L 78.376926 310.469668 
L 78.589759 310.221697 
L 78.802591 310.221697 
L 79.015424 309.973727 
L 79.228256 309.973727 
L 79.441089 303.526494 
L 79.866754 303.030554 
L 80.079586 303.030554 
L 80.292418 296.335351 
L 80.930916 291.623911 
L 81.143748 290.384059 
L 81.356581 290.384059 
L 81.569413 289.392177 
L 81.782246 289.392177 
L 82.207911 288.152325 
L 82.420743 287.656384 
L 82.633575 285.67262 
L 82.846408 285.424649 
L 83.05924 283.688856 
L 83.272073 283.440886 
L 83.484905 282.449004 
L 83.697738 282.449004 
L 84.336235 280.46524 
L 84.549068 278.481476 
L 84.7619 278.233506 
L 85.187565 275.50583 
L 85.400397 275.009889 
L 85.61323 275.009889 
L 85.826062 274.513948 
L 86.251727 274.513948 
L 86.46456 274.018007 
L 86.677392 274.018007 
L 86.890225 273.770037 
L 87.31589 273.770037 
L 87.528722 271.290332 
L 87.741555 270.29845 
L 87.954387 270.05048 
L 88.380052 266.826863 
L 88.592884 266.330923 
L 88.805717 265.09107 
L 89.018549 264.8431 
L 89.231382 264.8431 
L 89.444214 264.099188 
L 89.657047 263.851218 
L 90.295544 263.851218 
L 90.508376 261.123542 
L 90.721209 260.875572 
L 91.572539 260.875572 
L 91.785371 259.139779 
L 91.998204 258.891808 
L 92.211036 257.651956 
L 92.423869 257.156015 
L 93.275198 257.156015 
L 93.488031 252.940517 
L 93.700863 252.196605 
L 93.913696 251.948635 
L 94.339361 249.220959 
L 94.552193 249.220959 
L 94.765026 248.972989 
L 94.977858 248.972989 
L 95.403523 247.981107 
L 95.616356 247.981107 
L 95.829188 247.733137 
L 96.04202 247.733137 
L 96.254853 247.485166 
L 97.74468 247.485166 
L 97.957513 246.741255 
L 98.170345 246.493284 
L 98.383177 245.749373 
L 98.59601 245.749373 
L 98.808842 245.253432 
L 99.021675 245.253432 
L 99.660172 243.765609 
L 99.873005 242.773727 
L 100.085837 242.773727 
L 100.29867 242.277786 
L 100.511502 242.277786 
L 100.724335 242.029815 
L 101.575664 242.029815 
L 102.214162 240.541993 
L 102.426994 240.541993 
L 102.639827 240.294022 
L 103.065492 240.294022 
L 103.278324 240.046052 
L 104.555319 240.046052 
L 104.768151 238.558229 
L 104.980984 238.558229 
L 105.832314 235.582583 
L 106.045146 235.334613 
L 106.470811 235.334613 
L 106.683643 234.09476 
L 106.896476 233.84679 
L 107.322141 233.84679 
L 107.747806 233.350849 
L 107.960638 233.350849 
L 108.173471 232.110996 
L 108.386303 231.863026 
L 109.663298 231.863026 
L 109.87613 231.615055 
L 110.088963 231.615055 
L 110.301795 231.367085 
L 110.72746 231.367085 
L 110.940293 230.127232 
L 112.004455 230.127232 
L 112.217287 229.879262 
L 112.43012 229.879262 
L 112.642952 229.383321 
L 113.068617 229.383321 
L 113.28145 228.88738 
L 114.132779 228.88738 
L 114.345612 228.63941 
L 115.196942 228.63941 
L 115.622607 228.143469 
L 116.686769 228.143469 
L 117.112434 227.647528 
L 117.963764 227.647528 
L 118.176596 227.399557 
L 120.943418 227.399557 
L 121.156251 226.655646 
L 131.585041 226.655646 
L 131.797874 226.159705 
L 133.074868 226.159705 
L 133.287701 225.415793 
L 133.500533 225.415793 
L 133.713366 225.167823 
L 134.777528 225.167823 
L 134.99036 223.43203 
L 135.203193 223.43203 
L 135.416025 223.184059 
L 135.628858 223.184059 
L 136.054523 222.688118 
L 141.588167 222.688118 
L 141.800999 222.440148 
L 144.354989 222.440148 
L 144.567821 222.192177 
L 147.973141 222.192177 
L 148.185973 221.696236 
L 150.739962 221.696236 
L 150.952795 221.448266 
L 158.827596 221.448266 
L 159.040428 221.200295 
L 167.766559 221.200295 
L 167.979392 220.952325 
L 168.830722 220.952325 
L 169.043554 220.704354 
L 169.469219 220.704354 
L 169.682051 220.456384 
L 170.320549 220.456384 
L 170.533381 219.960443 
L 170.746214 219.960443 
L 171.171879 219.216531 
L 171.810376 219.216531 
L 172.023208 213.51321 
L 172.236041 213.017269 
L 172.448873 210.537565 
L 172.874538 210.041624 
L 173.725868 210.041624 
L 173.938701 209.297712 
L 174.151533 208.05786 
L 174.364365 207.809889 
L 174.577198 207.809889 
L 174.79003 207.313948 
L 175.64136 207.313948 
L 175.854193 204.834244 
L 176.067025 204.586273 
L 176.279858 204.586273 
L 176.49269 204.338303 
L 176.705523 204.338303 
L 176.918355 203.346421 
L 177.131187 203.346421 
L 177.34402 202.354539 
L 177.769685 202.354539 
L 177.982517 200.370775 
L 178.19535 200.370775 
L 178.408182 200.122804 
L 178.621015 200.122804 
L 179.04668 197.6431 
L 180.323674 197.6431 
L 180.536507 193.675572 
L 181.175004 192.43572 
L 181.600669 192.43572 
L 181.813502 190.699926 
L 182.026334 190.451956 
L 182.239166 189.708044 
L 183.303329 189.708044 
L 183.516161 188.964133 
L 183.728994 188.716162 
L 184.580324 188.716162 
L 184.793156 187.972251 
L 185.005988 187.72428 
L 186.070151 187.72428 
L 186.282983 186.484428 
L 186.921481 186.484428 
L 187.134313 186.236458 
L 188.198475 186.236458 
L 188.411308 183.756753 
L 188.62414 183.508782 
L 189.049805 183.508782 
L 189.262638 183.012841 
L 190.965297 183.012841 
L 191.17813 182.764871 
L 191.603795 182.764871 
L 191.816627 182.26893 
L 192.242292 182.26893 
L 192.667957 180.285166 
L 192.880789 180.037196 
L 193.093622 180.037196 
L 193.306454 178.549373 
L 193.944952 178.549373 
L 194.370617 177.06155 
L 195.434779 177.06155 
L 195.647611 174.581845 
L 196.073276 174.581845 
L 196.711774 173.341993 
L 197.775936 173.341993 
L 197.988768 172.598081 
L 198.414433 172.10214 
L 205.650737 172.10214 
L 205.863569 171.606199 
L 206.714899 171.606199 
L 206.927732 170.118376 
L 207.779062 170.118376 
L 208.204727 169.374465 
L 208.630391 169.374465 
L 208.843224 169.126494 
L 210.758716 169.126494 
L 211.184381 167.638672 
L 211.822878 167.638672 
L 212.035711 167.390701 
L 217.569355 167.390701 
L 217.782187 166.89476 
L 223.741496 166.89476 
L 223.954329 166.64679 
L 232.041962 166.64679 
L 232.254794 165.654908 
L 237.788438 165.654908 
L 238.001271 165.406937 
L 239.065433 165.406937 
L 239.278266 165.158967 
L 239.491098 165.158967 
L 239.703931 164.167085 
L 239.916763 164.167085 
L 240.129595 162.679262 
L 240.342428 162.431292 
L 245.876072 162.431292 
L 246.088904 162.183321 
L 248.430061 162.183321 
L 248.642894 161.935351 
L 249.707056 161.935351 
L 249.919889 161.68738 
L 253.112375 161.68738 
L 253.325208 161.43941 
L 253.963705 161.43941 
L 254.176538 160.695498 
L 254.815035 160.695498 
L 255.027868 159.455646 
L 255.666365 159.455646 
L 256.09203 158.711734 
L 256.304862 158.711734 
L 256.517695 158.463764 
L 260.348679 158.463764 
L 260.561512 158.215793 
L 265.456658 158.215793 
L 265.669491 157.719852 
L 266.733653 157.719852 
L 266.946485 157.223911 
L 277.375276 157.223911 
L 277.588108 156.23203 
L 277.800941 156.23203 
L 278.013773 155.984059 
L 280.142098 155.984059 
L 280.35493 155.736089 
L 281.631925 155.736089 
L 281.844757 155.488118 
L 282.696087 155.488118 
L 282.90892 155.240148 
L 283.334585 155.240148 
L 283.547417 154.992177 
L 287.165569 154.992177 
L 287.378401 154.744207 
L 289.932391 154.744207 
L 290.145223 154.248266 
L 290.996553 154.248266 
L 291.209386 154.000295 
L 298.658522 154.000295 
L 298.871354 153.752325 
L 299.722684 153.752325 
L 299.935517 153.256384 
L 305.46916 153.256384 
L 305.681993 153.008413 
L 316.110783 153.008413 
L 316.323616 152.760443 
L 318.026276 152.760443 
L 318.451941 152.264502 
L 319.728935 152.264502 
L 319.941768 152.016531 
L 337.819694 152.016531 
L 338.032527 151.768561 
L 351.653804 151.768561 
L 351.866637 151.27262 
L 353.782129 151.27262 
L 353.994961 151.024649 
L 356.761783 151.024649 
L 356.974616 150.776679 
L 357.613113 150.776679 
L 358.25161 150.032768 
L 361.869762 150.032768 
L 362.082595 149.536827 
L 371.021558 149.536827 
L 371.23439 149.288856 
L 375.916705 149.288856 
L 375.916705 149.288856 
" clip-path="url(#pc3c8d32348)" style="fill: none; stroke: #b9db57; stroke-width: 1.2; stroke-linecap: round"/>
   </g>
   <g id="line2d_39">
    <path d="M 69.650795 487.644576 
L 69.863628 475.370037 
L 70.289293 467.930923 
L 71.353455 428.255646 
L 71.566288 409.65786 
L 72.63045 393.291808 
L 73.268947 377.669668 
L 73.48178 375.437934 
L 73.907445 362.295498 
L 74.120277 356.096236 
L 74.33311 353.616531 
L 74.545942 347.91321 
L 74.758774 345.929446 
L 75.610104 331.795129 
L 75.822937 331.547159 
L 76.674267 318.156753 
L 77.312764 312.205461 
L 77.738429 306.50214 
L 77.951261 305.262288 
L 78.376926 295.095498 
L 78.589759 294.351587 
L 79.015424 289.640148 
L 79.228256 288.896236 
L 79.653921 283.192915 
L 80.079586 276.745683 
L 80.505251 274.761919 
L 81.143748 268.562657 
L 81.356581 268.066716 
L 81.782246 266.578893 
L 82.420743 264.347159 
L 82.846408 260.131661 
L 83.05924 260.131661 
L 83.272073 258.643838 
L 83.484905 258.147897 
L 83.697738 256.908044 
L 83.91057 256.660074 
L 84.123403 256.660074 
L 84.549068 252.692546 
L 85.187565 248.477048 
L 85.61323 246.989225 
L 85.826062 246.989225 
L 86.46456 246.245314 
L 86.890225 244.757491 
L 87.103057 244.26155 
L 87.31589 244.26155 
L 87.528722 243.517638 
L 87.741555 243.517638 
L 88.592884 237.070406 
L 88.805717 236.822435 
L 89.018549 236.078524 
L 89.231382 236.078524 
L 89.869879 232.854908 
L 90.082712 232.854908 
L 90.295544 231.367085 
L 90.508376 231.367085 
L 90.934041 228.88738 
L 91.146874 228.88738 
L 91.785371 227.399557 
L 91.998204 226.159705 
L 92.211036 223.68 
L 92.423869 222.688118 
L 92.636701 220.952325 
L 93.062366 220.208413 
L 93.488031 217.232768 
L 93.700863 216.984797 
L 93.913696 216.488856 
L 94.339361 213.761181 
L 94.977858 211.033506 
L 95.403523 210.537565 
L 97.531848 210.537565 
L 98.170345 208.05786 
L 98.383177 207.809889 
L 98.59601 207.065978 
L 99.021675 206.570037 
L 99.44734 205.082214 
L 99.873005 202.602509 
L 100.085837 201.858598 
L 100.29867 201.858598 
L 100.511502 201.610627 
L 100.724335 200.370775 
L 101.362832 200.370775 
L 101.575664 199.874834 
L 101.788497 199.874834 
L 102.001329 199.626863 
L 102.426994 198.139041 
L 103.065492 198.139041 
L 103.278324 197.89107 
L 103.491157 197.89107 
L 103.703989 197.6431 
L 104.342486 197.6431 
L 104.555319 197.395129 
L 104.768151 197.395129 
L 105.193816 195.411365 
L 105.406649 195.411365 
L 105.619481 195.163395 
L 105.832314 193.427601 
L 107.322141 193.427601 
L 107.534973 191.939779 
L 107.747806 191.691808 
L 107.960638 188.716162 
L 108.173471 188.716162 
L 108.386303 188.468192 
L 108.811968 188.468192 
L 109.0248 188.220221 
L 109.237633 188.220221 
L 109.450465 187.72428 
L 109.663298 187.72428 
L 109.87613 187.47631 
L 110.301795 186.732399 
L 110.514628 184.996605 
L 110.72746 184.996605 
L 111.153125 184.500664 
L 111.57879 184.500664 
L 111.791622 184.004723 
L 112.004455 184.004723 
L 112.217287 183.756753 
L 112.43012 183.756753 
L 112.642952 183.260812 
L 114.345612 183.260812 
L 114.771277 181.772989 
L 114.984109 181.772989 
L 115.196942 181.029077 
L 115.409774 180.781107 
L 115.622607 179.293284 
L 116.686769 179.293284 
L 117.325266 178.549373 
L 117.750931 178.549373 
L 117.963764 178.301402 
L 184.367491 178.301402 
L 184.580324 178.053432 
L 185.005988 178.053432 
L 185.218821 149.288856 
L 185.431653 149.288856 
L 185.644486 149.040886 
L 185.857318 149.040886 
L 186.070151 148.296974 
L 186.282983 148.049004 
L 187.134313 148.049004 
L 187.347146 147.553063 
L 187.559978 147.553063 
L 187.77281 145.321328 
L 188.198475 145.321328 
L 188.411308 144.825387 
L 188.62414 144.825387 
L 188.836973 144.577417 
L 189.049805 144.081476 
L 189.47547 144.081476 
L 189.688303 143.833506 
L 189.901135 143.833506 
L 190.113967 143.585535 
L 190.752465 143.585535 
L 191.17813 142.841624 
L 192.455125 142.841624 
L 192.667957 141.10583 
L 193.093622 140.609889 
L 193.306454 140.609889 
L 193.519287 140.361919 
L 193.732119 139.122066 
L 193.944952 139.122066 
L 194.157784 138.874096 
L 194.370617 137.882214 
L 194.583449 137.634244 
L 194.796282 136.890332 
L 195.009114 136.642362 
L 195.221947 136.642362 
L 195.434779 135.89845 
L 196.073276 135.89845 
L 196.286109 135.65048 
L 196.498941 134.906568 
L 197.350271 133.914686 
L 197.563104 133.914686 
L 197.775936 133.418745 
L 198.840098 133.418745 
L 199.052931 132.922804 
L 202.032585 132.922804 
L 202.245418 132.674834 
L 206.076402 132.674834 
L 206.289234 132.426863 
L 206.714899 130.69107 
L 206.927732 130.69107 
L 207.140564 130.4431 
L 207.353397 130.4431 
L 207.566229 130.195129 
L 207.779062 130.195129 
L 207.991894 129.947159 
L 209.268889 129.947159 
L 209.481721 129.699188 
L 209.694554 128.955277 
L 210.758716 128.955277 
L 210.971549 128.459336 
L 211.184381 128.459336 
L 211.397213 128.211365 
L 212.887041 128.211365 
L 213.099873 127.715424 
L 217.356522 127.715424 
L 217.569355 127.467454 
L 238.426936 127.467454 
L 238.639768 125.731661 
L 238.852601 125.48369 
L 239.065433 125.48369 
L 239.278266 124.739779 
L 239.491098 123.499926 
L 239.703931 123.251956 
L 239.916763 122.756015 
L 240.129595 121.516162 
L 240.342428 121.268192 
L 240.980925 121.268192 
L 241.193758 121.020221 
L 241.619423 120.27631 
L 243.534915 120.27631 
L 243.747747 120.028339 
L 254.602203 120.028339 
L 254.815035 117.300664 
L 255.666365 117.300664 
L 255.879197 116.804723 
L 256.09203 116.804723 
L 256.304862 116.308782 
L 257.369025 116.308782 
L 257.581857 115.812841 
L 258.007522 115.812841 
L 258.220354 115.564871 
L 286.527072 115.564871 
L 286.739904 115.3169 
L 286.952737 115.3169 
L 287.165569 112.341255 
L 287.378401 112.093284 
L 296.955862 112.093284 
L 297.168695 111.101402 
L 298.445689 111.101402 
L 298.658522 110.853432 
L 298.871354 110.853432 
L 299.084187 110.357491 
L 305.681993 110.357491 
L 306.107658 109.86155 
L 307.384653 109.86155 
L 307.597485 109.613579 
L 351.015307 109.613579 
L 351.440972 109.117638 
L 351.653804 107.877786 
L 353.143631 107.877786 
L 353.356464 107.629815 
L 354.633459 107.629815 
L 355.059124 107.133875 
L 356.761783 107.133875 
L 356.974616 106.885904 
L 357.613113 106.885904 
L 357.825945 106.637934 
L 360.8056 106.637934 
L 361.018432 106.141993 
L 363.998087 106.141993 
L 364.210919 105.894022 
L 364.849417 105.894022 
L 365.062249 105.646052 
L 366.126411 105.646052 
L 366.552076 105.150111 
L 368.467568 105.150111 
L 368.680401 104.90214 
L 375.916705 104.90214 
L 375.916705 104.90214 
" clip-path="url(#pc3c8d32348)" style="fill: none; stroke: #57db94; stroke-width: 1.2; stroke-linecap: round"/>
   </g>
   <g id="line2d_40">
    <path d="M 69.650795 487.024649 
L 69.863628 475.865978 
L 70.07646 473.138303 
L 70.502125 463.467454 
L 71.140623 434.702878 
L 71.353455 428.255646 
L 71.566288 416.849004 
L 72.417617 402.466716 
L 73.056115 392.051956 
L 74.120277 368.24679 
L 74.33311 367.750849 
L 74.758774 360.559705 
L 74.971607 358.32797 
L 75.397272 351.136827 
L 75.610104 348.657122 
L 76.035769 346.177417 
L 76.248602 341.961919 
L 77.738429 328.819483 
L 77.951261 327.331661 
L 78.164094 321.87631 
L 78.376926 320.140517 
L 78.802591 318.404723 
L 79.015424 317.412841 
L 79.653921 310.221697 
L 80.718083 301.29476 
L 80.930916 300.302878 
L 81.143748 297.823173 
L 81.356581 297.575203 
L 81.569413 297.575203 
L 82.420743 295.343469 
L 82.633575 293.855646 
L 82.846408 293.359705 
L 83.272073 291.871882 
L 83.484905 291.871882 
L 83.91057 290.384059 
L 84.336235 288.896236 
L 84.7619 286.664502 
L 84.974733 286.168561 
L 85.187565 284.928708 
L 85.61323 283.936827 
L 85.826062 283.936827 
L 86.038895 283.688856 
L 86.251727 283.688856 
L 86.46456 282.944945 
L 86.677392 281.705092 
L 86.890225 281.457122 
L 87.31589 280.217269 
L 87.528722 280.217269 
L 87.741555 279.969299 
L 87.954387 279.473358 
L 88.167219 276.497712 
L 88.380052 276.497712 
L 88.805717 275.25786 
L 89.018549 275.009889 
L 89.231382 275.009889 
L 89.657047 273.522066 
L 89.869879 273.274096 
L 90.082712 273.274096 
L 90.508376 271.290332 
L 90.721209 271.290332 
L 90.934041 271.042362 
L 91.785371 271.042362 
L 92.211036 268.810627 
L 92.423869 268.810627 
L 92.636701 267.074834 
L 93.275198 265.587011 
L 93.488031 264.347159 
L 93.700863 264.347159 
L 93.913696 262.611365 
L 94.126528 262.363395 
L 94.339361 261.371513 
L 95.190691 261.371513 
L 95.403523 261.123542 
L 96.254853 261.123542 
L 96.467685 260.875572 
L 97.531848 260.875572 
L 97.957513 260.379631 
L 98.170345 260.379631 
L 98.383177 259.63572 
L 98.59601 259.63572 
L 99.021675 259.139779 
L 99.44734 258.395867 
L 99.660172 258.147897 
L 99.873005 258.147897 
L 100.085837 256.908044 
L 100.29867 256.908044 
L 100.724335 256.412103 
L 101.788497 256.412103 
L 102.001329 256.164133 
L 102.214162 255.420221 
L 102.426994 255.172251 
L 103.278324 255.172251 
L 103.491157 254.92428 
L 103.703989 254.92428 
L 103.916821 254.67631 
L 104.555319 254.67631 
L 104.980984 253.436458 
L 105.193816 253.188487 
L 105.832314 251.204723 
L 106.045146 251.204723 
L 106.257978 250.956753 
L 106.683643 248.972989 
L 107.534973 248.972989 
L 107.747806 248.229077 
L 108.173471 248.229077 
L 108.386303 247.485166 
L 109.237633 247.485166 
L 109.450465 246.989225 
L 110.514628 246.989225 
L 110.72746 246.741255 
L 110.940293 246.741255 
L 111.153125 246.493284 
L 111.57879 246.493284 
L 111.791622 246.245314 
L 113.068617 246.245314 
L 113.28145 245.997343 
L 114.771277 245.997343 
L 114.984109 244.757491 
L 115.409774 244.757491 
L 115.622607 244.50952 
L 116.686769 244.50952 
L 116.899601 244.26155 
L 117.325266 244.26155 
L 117.538099 244.013579 
L 117.963764 244.013579 
L 118.389429 243.517638 
L 118.602261 243.517638 
L 118.815094 243.269668 
L 120.304921 243.269668 
L 120.517753 242.773727 
L 120.730586 242.773727 
L 120.943418 242.525756 
L 121.581916 242.525756 
L 121.794748 242.277786 
L 124.135905 242.277786 
L 124.348738 242.029815 
L 125.4129 242.029815 
L 125.625732 241.781845 
L 128.605387 241.781845 
L 128.818219 241.533875 
L 131.797874 241.533875 
L 132.010706 241.037934 
L 132.649203 241.037934 
L 132.862036 240.789963 
L 133.074868 240.789963 
L 133.287701 240.541993 
L 133.926198 240.541993 
L 134.99036 238.310258 
L 135.203193 238.310258 
L 135.628858 237.814317 
L 135.84169 237.814317 
L 136.054523 237.318376 
L 138.182847 237.318376 
L 138.39568 237.070406 
L 142.013832 237.070406 
L 142.226664 236.822435 
L 143.290826 236.822435 
L 143.503659 236.574465 
L 143.716491 236.574465 
L 143.929324 236.326494 
L 144.354989 236.326494 
L 144.567821 236.078524 
L 147.334643 236.078524 
L 147.547476 235.830554 
L 150.952795 235.830554 
L 151.165627 235.582583 
L 152.655455 235.582583 
L 152.868287 235.334613 
L 167.766559 235.334613 
L 167.979392 235.086642 
L 168.192224 235.086642 
L 168.405057 234.838672 
L 169.469219 234.838672 
L 169.894884 234.342731 
L 170.746214 234.342731 
L 171.171879 233.598819 
L 171.384711 233.350849 
L 171.597544 232.110996 
L 172.023208 227.895498 
L 172.236041 227.399557 
L 172.448873 225.167823 
L 172.661706 225.167823 
L 172.874538 224.423911 
L 173.300203 223.92797 
L 173.513036 223.92797 
L 173.725868 223.184059 
L 173.938701 222.936089 
L 174.151533 222.936089 
L 174.364365 222.688118 
L 174.577198 222.688118 
L 176.279858 218.72059 
L 176.49269 218.72059 
L 176.705523 218.224649 
L 176.918355 218.224649 
L 177.131187 217.480738 
L 177.34402 217.232768 
L 177.556852 215.249004 
L 178.408182 215.249004 
L 178.621015 214.753063 
L 179.259512 210.785535 
L 179.898009 210.785535 
L 180.110842 209.545683 
L 180.323674 209.545683 
L 180.536507 208.30583 
L 180.749339 208.05786 
L 182.239166 204.834244 
L 182.664831 204.834244 
L 182.877664 204.586273 
L 183.090496 204.586273 
L 183.303329 203.842362 
L 183.516161 203.594391 
L 184.367491 203.594391 
L 184.793156 202.602509 
L 185.005988 202.602509 
L 185.218821 202.354539 
L 186.282983 202.354539 
L 186.495816 201.610627 
L 186.708648 201.610627 
L 186.921481 200.866716 
L 187.134313 200.618745 
L 187.347146 200.122804 
L 187.985643 200.122804 
L 188.198475 199.378893 
L 188.836973 199.378893 
L 189.049805 198.387011 
L 191.603795 198.387011 
L 191.816627 197.89107 
L 192.242292 197.89107 
L 192.455125 196.651218 
L 192.667957 196.155277 
L 192.880789 196.155277 
L 193.093622 195.659336 
L 193.306454 194.419483 
L 193.519287 194.419483 
L 193.944952 193.675572 
L 194.157784 193.675572 
L 194.370617 193.427601 
L 194.583449 193.427601 
L 194.796282 192.187749 
L 195.221947 191.691808 
L 195.647611 190.947897 
L 196.073276 190.451956 
L 196.286109 190.451956 
L 196.498941 189.956015 
L 196.924606 189.956015 
L 197.137439 189.708044 
L 197.350271 189.708044 
L 197.563104 189.460074 
L 197.988768 189.460074 
L 198.201601 189.212103 
L 198.414433 189.212103 
L 198.627266 188.964133 
L 203.096748 188.964133 
L 203.30958 188.716162 
L 204.586575 188.716162 
L 204.799407 188.468192 
L 205.650737 188.468192 
L 205.863569 187.972251 
L 206.289234 187.972251 
L 206.502067 187.72428 
L 206.714899 186.732399 
L 208.204727 186.732399 
L 208.417559 186.236458 
L 208.630391 186.236458 
L 208.843224 185.988487 
L 209.268889 185.988487 
L 209.481721 185.740517 
L 209.694554 185.740517 
L 209.907386 185.492546 
L 210.333051 184.748635 
L 211.610046 184.748635 
L 211.822878 184.004723 
L 217.356522 184.004723 
L 217.569355 183.756753 
L 223.741496 183.756753 
L 223.954329 183.508782 
L 227.146815 183.508782 
L 227.359648 183.260812 
L 227.57248 183.260812 
L 227.785313 183.012841 
L 230.764967 183.012841 
L 231.190632 182.26893 
L 235.660114 182.26893 
L 235.872946 182.020959 
L 237.362773 182.020959 
L 237.575606 181.772989 
L 241.832255 181.772989 
L 242.045088 179.789225 
L 243.10925 179.789225 
L 243.322082 179.541255 
L 248.430061 179.541255 
L 248.642894 179.293284 
L 250.345553 179.293284 
L 250.558386 179.045314 
L 253.750873 179.045314 
L 254.176538 178.549373 
L 254.38937 177.805461 
L 254.602203 177.805461 
L 254.815035 177.06155 
L 255.027868 177.06155 
L 255.2407 176.813579 
L 255.453533 176.813579 
L 255.666365 176.317638 
L 255.879197 176.317638 
L 256.304862 175.821697 
L 263.966831 175.821697 
L 264.179663 175.573727 
L 265.456658 175.573727 
L 265.669491 175.325756 
L 266.733653 175.325756 
L 266.946485 174.829815 
L 268.010648 174.829815 
L 268.22348 174.581845 
L 273.544292 174.581845 
L 273.757124 174.333875 
L 275.034119 174.333875 
L 275.246951 174.085904 
L 275.672616 174.085904 
L 276.098281 173.589963 
L 277.800941 173.589963 
L 278.013773 173.341993 
L 280.780595 173.341993 
L 280.993428 173.094022 
L 281.631925 173.094022 
L 281.844757 172.846052 
L 283.334585 172.846052 
L 283.547417 172.598081 
L 286.739904 172.598081 
L 286.952737 172.350111 
L 289.932391 172.350111 
L 290.145223 171.85417 
L 290.570888 171.85417 
L 290.783721 171.606199 
L 305.46916 171.606199 
L 305.681993 171.358229 
L 307.384653 171.358229 
L 307.597485 171.110258 
L 309.938642 171.110258 
L 310.151475 170.862288 
L 313.131129 170.862288 
L 313.343961 170.614317 
L 316.110783 170.614317 
L 316.323616 170.366347 
L 319.728935 170.366347 
L 319.941768 170.118376 
L 322.495757 170.118376 
L 322.70859 169.870406 
L 337.819694 169.870406 
L 338.032527 169.622435 
L 351.866637 169.622435 
L 352.079469 169.374465 
L 353.143631 169.374465 
L 353.356464 169.126494 
L 356.761783 169.126494 
L 356.974616 168.878524 
L 357.613113 168.878524 
L 357.825945 168.630554 
L 358.038778 168.630554 
L 358.25161 168.134613 
L 366.339244 168.134613 
L 366.552076 167.638672 
L 375.916705 167.638672 
L 375.916705 167.638672 
" clip-path="url(#pc3c8d32348)" style="fill: none; stroke: #5784db; stroke-width: 1.2; stroke-linecap: round"/>
   </g>
   <g id="line2d_41">
    <path d="M 69.650795 486.404723 
L 69.863628 474.378155 
L 70.289293 466.195129 
L 70.502125 458.508044 
L 70.92779 434.950849 
L 71.353455 421.064502 
L 71.566288 406.186273 
L 72.204785 397.507306 
L 73.48178 368.742731 
L 73.907445 355.848266 
L 74.33311 350.392915 
L 74.758774 341.961919 
L 75.184439 334.522804 
L 75.610104 328.075572 
L 75.822937 327.08369 
L 76.035769 324.603985 
L 76.461434 316.420959 
L 77.099932 309.725756 
L 77.312764 306.25417 
L 77.525596 305.014317 
L 77.951261 300.798819 
L 78.164094 294.103616 
L 78.376926 291.375941 
L 78.589759 290.384059 
L 79.228256 283.936827 
L 79.653921 279.721328 
L 80.079586 273.026125 
L 80.718083 268.810627 
L 81.143748 264.595129 
L 81.569413 263.107306 
L 81.782246 262.859336 
L 82.420743 260.379631 
L 82.846408 255.916162 
L 83.91057 252.444576 
L 84.123403 251.948635 
L 84.336235 250.708782 
L 84.549068 248.477048 
L 84.7619 247.733137 
L 85.187565 244.757491 
L 85.61323 243.021697 
L 85.826062 243.021697 
L 86.251727 242.525756 
L 86.677392 241.285904 
L 87.103057 239.798081 
L 87.31589 239.550111 
L 87.528722 239.550111 
L 87.954387 237.814317 
L 88.167219 234.590701 
L 88.380052 234.09476 
L 88.805717 232.606937 
L 89.018549 232.110996 
L 89.231382 232.110996 
L 89.657047 229.135351 
L 89.869879 228.63941 
L 90.082712 228.63941 
L 90.508376 226.407675 
L 90.721209 226.159705 
L 90.934041 224.919852 
L 91.146874 224.919852 
L 91.359706 224.423911 
L 91.572539 223.184059 
L 91.785371 222.936089 
L 91.998204 221.944207 
L 92.211036 219.216531 
L 92.636701 216.984797 
L 93.062366 215.744945 
L 93.700863 212.521328 
L 94.977858 206.818007 
L 95.190691 206.570037 
L 95.403523 206.074096 
L 96.04202 206.074096 
L 96.254853 205.826125 
L 97.531848 205.826125 
L 98.383177 202.85048 
L 98.59601 202.85048 
L 99.44734 200.866716 
L 99.873005 198.139041 
L 100.085837 197.147159 
L 100.29867 197.147159 
L 100.511502 196.899188 
L 100.724335 196.155277 
L 101.362832 196.155277 
L 101.575664 195.659336 
L 101.788497 195.659336 
L 102.001329 195.411365 
L 102.426994 193.923542 
L 103.065492 193.923542 
L 103.278324 193.675572 
L 103.491157 193.675572 
L 103.916821 193.179631 
L 104.342486 193.179631 
L 104.555319 192.931661 
L 104.980984 191.443838 
L 105.406649 189.460074 
L 105.832314 188.220221 
L 106.045146 187.972251 
L 106.257978 187.972251 
L 106.683643 186.484428 
L 107.322141 186.484428 
L 107.534973 184.748635 
L 108.173471 183.508782 
L 108.386303 183.260812 
L 108.811968 183.260812 
L 109.0248 183.012841 
L 109.237633 183.012841 
L 109.450465 182.26893 
L 109.663298 182.26893 
L 109.87613 182.020959 
L 110.301795 181.277048 
L 110.514628 179.541255 
L 110.72746 179.541255 
L 111.153125 179.045314 
L 111.57879 179.045314 
L 111.791622 178.549373 
L 112.004455 178.549373 
L 112.217287 178.301402 
L 112.43012 178.301402 
L 112.642952 177.805461 
L 114.345612 177.805461 
L 114.771277 176.317638 
L 114.984109 176.317638 
L 115.196942 175.573727 
L 115.409774 175.325756 
L 115.622607 174.085904 
L 116.686769 174.085904 
L 116.899601 173.837934 
L 117.325266 173.094022 
L 117.963764 173.094022 
L 118.176596 172.598081 
L 120.304921 172.598081 
L 120.517753 172.350111 
L 131.585041 172.350111 
L 131.797874 171.85417 
L 132.436371 171.85417 
L 132.862036 171.358229 
L 133.074868 171.358229 
L 133.500533 170.862288 
L 134.139031 170.862288 
L 134.99036 169.126494 
L 135.203193 169.126494 
L 135.416025 168.878524 
L 135.628858 168.878524 
L 136.054523 168.382583 
L 138.182847 168.382583 
L 138.39568 168.134613 
L 143.716491 168.134613 
L 143.929324 167.886642 
L 144.354989 167.886642 
L 144.567821 167.638672 
L 147.334643 167.638672 
L 147.547476 167.390701 
L 150.739962 167.390701 
L 150.952795 167.142731 
L 167.766559 167.142731 
L 167.979392 166.89476 
L 168.192224 166.89476 
L 168.405057 166.64679 
L 169.469219 166.64679 
L 169.682051 166.398819 
L 170.320549 166.398819 
L 170.533381 165.902878 
L 170.746214 165.902878 
L 171.171879 165.406937 
L 171.384711 165.406937 
L 171.597544 164.167085 
L 172.023208 159.951587 
L 172.236041 159.455646 
L 172.448873 157.223911 
L 172.661706 157.223911 
L 172.874538 156.48 
L 173.300203 155.984059 
L 173.513036 155.984059 
L 173.725868 155.240148 
L 173.938701 154.992177 
L 174.151533 154.992177 
L 174.364365 154.744207 
L 174.577198 154.744207 
L 176.49269 150.528708 
L 176.705523 150.280738 
L 176.918355 150.280738 
L 177.131187 149.536827 
L 177.34402 149.288856 
L 177.556852 147.305092 
L 178.19535 147.305092 
L 178.408182 147.057122 
L 178.621015 146.561181 
L 179.04668 143.337565 
L 179.259512 142.841624 
L 179.898009 142.841624 
L 180.110842 140.609889 
L 180.323674 140.609889 
L 180.749339 140.113948 
L 181.387837 137.882214 
L 181.600669 137.882214 
L 181.813502 137.634244 
L 182.026334 136.642362 
L 183.090496 136.642362 
L 183.303329 135.89845 
L 183.516161 135.65048 
L 184.367491 135.65048 
L 184.793156 134.658598 
L 185.005988 134.658598 
L 185.218821 134.410627 
L 185.431653 134.410627 
L 185.644486 134.162657 
L 185.857318 134.162657 
L 186.070151 133.418745 
L 186.708648 133.418745 
L 187.134313 132.178893 
L 187.347146 131.682952 
L 187.559978 131.682952 
L 187.77281 130.69107 
L 188.198475 130.69107 
L 188.62414 129.947159 
L 189.049805 129.451218 
L 189.47547 129.451218 
L 189.688303 129.203247 
L 189.901135 129.203247 
L 190.113967 128.955277 
L 190.752465 128.955277 
L 191.17813 128.211365 
L 192.242292 128.211365 
L 192.667957 126.227601 
L 192.880789 125.979631 
L 193.093622 125.48369 
L 193.306454 124.491808 
L 193.519287 124.243838 
L 193.944952 123.499926 
L 194.157784 123.251956 
L 195.009114 121.268192 
L 195.221947 121.268192 
L 195.647611 120.52428 
L 196.286109 119.780369 
L 196.498941 119.284428 
L 196.924606 119.284428 
L 197.350271 118.540517 
L 197.563104 118.292546 
L 197.988768 118.292546 
L 198.414433 117.796605 
L 202.032585 117.796605 
L 202.245418 117.548635 
L 205.650737 117.548635 
L 205.863569 117.052694 
L 206.076402 117.052694 
L 206.502067 116.556753 
L 206.714899 115.564871 
L 206.927732 115.564871 
L 207.140564 115.3169 
L 207.353397 115.3169 
L 207.566229 115.06893 
L 207.779062 115.06893 
L 207.991894 114.820959 
L 208.630391 114.820959 
L 208.843224 114.572989 
L 209.268889 114.572989 
L 209.481721 114.325018 
L 209.907386 113.581107 
L 210.758716 113.581107 
L 210.971549 113.085166 
L 211.184381 113.085166 
L 211.397213 112.837196 
L 212.887041 112.837196 
L 213.099873 112.341255 
L 217.356522 112.341255 
L 217.569355 111.845314 
L 223.741496 111.845314 
L 223.954329 111.597343 
L 226.508318 111.597343 
L 226.72115 111.349373 
L 230.764967 111.349373 
L 231.190632 110.605461 
L 237.788438 110.605461 
L 238.001271 110.357491 
L 238.639768 110.357491 
L 238.852601 110.10952 
L 239.065433 110.10952 
L 239.278266 109.365609 
L 239.491098 108.125756 
L 239.916763 107.133875 
L 240.129595 105.894022 
L 240.342428 105.646052 
L 241.193758 105.646052 
L 241.619423 104.90214 
L 243.10925 104.90214 
L 243.322082 104.65417 
L 248.430061 104.65417 
L 248.642894 104.406199 
L 249.494224 104.406199 
L 249.707056 104.158229 
L 253.112375 104.158229 
L 253.325208 103.910258 
L 253.963705 103.910258 
L 254.176538 103.166347 
L 254.38937 102.918376 
L 254.602203 102.918376 
L 254.815035 101.926494 
L 255.453533 101.926494 
L 255.666365 101.430554 
L 255.879197 101.430554 
L 256.304862 100.934613 
L 257.369025 100.934613 
L 257.581857 100.438672 
L 258.007522 100.438672 
L 258.220354 100.190701 
L 265.456658 100.190701 
L 265.669491 99.69476 
L 266.733653 99.69476 
L 266.946485 99.198819 
L 273.544292 99.198819 
L 273.757124 98.950849 
L 275.034119 98.950849 
L 275.246951 98.702878 
L 275.672616 98.702878 
L 276.098281 98.206937 
L 277.800941 98.206937 
L 278.013773 97.958967 
L 280.142098 97.958967 
L 280.35493 97.710996 
L 281.419093 97.710996 
L 281.631925 97.463026 
L 282.270422 97.463026 
L 282.483255 97.215055 
L 283.334585 97.215055 
L 283.547417 96.967085 
L 286.527072 96.967085 
L 286.952737 96.471144 
L 287.165569 96.471144 
L 287.378401 96.223173 
L 289.932391 96.223173 
L 290.145223 95.727232 
L 298.445689 95.727232 
L 298.658522 95.479262 
L 298.871354 95.479262 
L 299.084187 94.983321 
L 299.722684 94.983321 
L 299.935517 94.735351 
L 305.46916 94.735351 
L 305.681993 94.48738 
L 305.894825 94.48738 
L 306.107658 94.23941 
L 307.384653 94.23941 
L 307.597485 93.991439 
L 316.110783 93.991439 
L 316.323616 93.743469 
L 318.026276 93.743469 
L 318.451941 93.247528 
L 319.728935 93.247528 
L 319.941768 92.999557 
L 337.819694 92.999557 
L 338.032527 92.751587 
L 351.015307 92.751587 
L 351.440972 92.255646 
L 353.143631 92.255646 
L 353.356464 92.007675 
L 354.633459 92.007675 
L 355.059124 91.511734 
L 356.761783 91.511734 
L 356.974616 91.263764 
L 357.613113 91.263764 
L 358.25161 90.519852 
L 363.998087 90.519852 
L 364.210919 90.271882 
L 364.849417 90.271882 
L 365.062249 90.023911 
L 366.126411 90.023911 
L 366.552076 89.52797 
L 368.467568 89.52797 
L 368.680401 89.28 
L 375.916705 89.28 
L 375.916705 89.28 
" clip-path="url(#pc3c8d32348)" style="fill: none; stroke: #c957db; stroke-width: 1.2; stroke-linecap: round"/>
   </g>
   <g id="line2d_42"/>
   <g id="line2d_43"/>
   <g id="line2d_44"/>
   <g id="line2d_45"/>
   <g id="line2d_46"/>
   <g id="patch_3">
    <path d="M 54.3375 512.64 
L 54.3375 69.12 
" style="fill: none; stroke: #cccccc; stroke-linejoin: miter; stroke-linecap: square"/>
   </g>
   <g id="patch_4">
    <path d="M 54.3375 512.64 
L 391.23 512.64 
" style="fill: none; stroke: #cccccc; stroke-linejoin: miter; stroke-linecap: square"/>
   </g>
   <g id="text_39">
    <!-- Edge Coverage History -->
    <g style="fill: #262626" transform="translate(115.892262 63.12)scale(0.165888 -0.165888)">
     <defs>
      <path id="DejaVuSans-Bold-45" d="M 588 4666 
L 3834 4666 
L 3834 3756 
L 1791 3756 
L 1791 2888 
L 3713 2888 
L 3713 1978 
L 1791 1978 
L 1791 909 
L 3903 909 
L 3903 0 
L 588 0 
L 588 4666 
z
" transform="scale(0.015625)"/>
      <path id="DejaVuSans-Bold-64" d="M 2919 2988 
L 2919 4863 
L 4044 4863 
L 4044 0 
L 2919 0 
L 2919 506 
Q 2688 197 2409 53 
Q 2131 -91 1766 -91 
Q 1119 -91 703 423 
Q 288 938 288 1747 
Q 288 2556 703 3070 
Q 1119 3584 1766 3584 
Q 2128 3584 2408 3439 
Q 2688 3294 2919 2988 
z
M 2181 722 
Q 2541 722 2730 984 
Q 2919 1247 2919 1747 
Q 2919 2247 2730 2509 
Q 2541 2772 2181 2772 
Q 1825 2772 1636 2509 
Q 1447 2247 1447 1747 
Q 1447 1247 1636 984 
Q 1825 722 2181 722 
z
" transform="scale(0.015625)"/>
      <path id="DejaVuSans-Bold-67" d="M 2919 594 
Q 2688 288 2409 144 
Q 2131 0 1766 0 
Q 1125 0 706 504 
Q 288 1009 288 1791 
Q 288 2575 706 3076 
Q 1125 3578 1766 3578 
Q 2131 3578 2409 3434 
Q 2688 3291 2919 2981 
L 2919 3500 
L 4044 3500 
L 4044 353 
Q 4044 -491 3511 -936 
Q 2978 -1381 1966 -1381 
Q 1638 -1381 1331 -1331 
Q 1025 -1281 716 -1178 
L 716 -306 
Q 1009 -475 1290 -558 
Q 1572 -641 1856 -641 
Q 2406 -641 2662 -400 
Q 2919 -159 2919 353 
L 2919 594 
z
M 2181 2772 
Q 1834 2772 1640 2515 
Q 1447 2259 1447 1791 
Q 1447 1309 1634 1061 
Q 1822 813 2181 813 
Q 2531 813 2725 1069 
Q 2919 1325 2919 1791 
Q 2919 2259 2725 2515 
Q 2531 2772 2181 2772 
z
" transform="scale(0.015625)"/>
      <path id="DejaVuSans-Bold-65" d="M 4031 1759 
L 4031 1441 
L 1416 1441 
Q 1456 1047 1700 850 
Q 1944 653 2381 653 
Q 2734 653 3104 758 
Q 3475 863 3866 1075 
L 3866 213 
Q 3469 63 3072 -14 
Q 2675 -91 2278 -91 
Q 1328 -91 801 392 
Q 275 875 275 1747 
Q 275 2603 792 3093 
Q 1309 3584 2216 3584 
Q 3041 3584 3536 3087 
Q 4031 2591 4031 1759 
z
M 2881 2131 
Q 2881 2450 2695 2645 
Q 2509 2841 2209 2841 
Q 1884 2841 1681 2658 
Q 1478 2475 1428 2131 
L 2881 2131 
z
" transform="scale(0.015625)"/>
      <path id="DejaVuSans-Bold-20" transform="scale(0.015625)"/>
      <path id="DejaVuSans-Bold-43" d="M 4288 256 
Q 3956 84 3597 -3 
Q 3238 -91 2847 -91 
Q 1681 -91 1000 561 
Q 319 1213 319 2328 
Q 319 3447 1000 4098 
Q 1681 4750 2847 4750 
Q 3238 4750 3597 4662 
Q 3956 4575 4288 4403 
L 4288 3438 
Q 3953 3666 3628 3772 
Q 3303 3878 2944 3878 
Q 2300 3878 1931 3465 
Q 1563 3053 1563 2328 
Q 1563 1606 1931 1193 
Q 2300 781 2944 781 
Q 3303 781 3628 887 
Q 3953 994 4288 1222 
L 4288 256 
z
" transform="scale(0.015625)"/>
      <path id="DejaVuSans-Bold-6f" d="M 2203 2784 
Q 1831 2784 1636 2517 
Q 1441 2250 1441 1747 
Q 1441 1244 1636 976 
Q 1831 709 2203 709 
Q 2569 709 2762 976 
Q 2956 1244 2956 1747 
Q 2956 2250 2762 2517 
Q 2569 2784 2203 2784 
z
M 2203 3584 
Q 3106 3584 3614 3096 
Q 4122 2609 4122 1747 
Q 4122 884 3614 396 
Q 3106 -91 2203 -91 
Q 1297 -91 786 396 
Q 275 884 275 1747 
Q 275 2609 786 3096 
Q 1297 3584 2203 3584 
z
" transform="scale(0.015625)"/>
      <path id="DejaVuSans-Bold-76" d="M 97 3500 
L 1216 3500 
L 2088 1081 
L 2956 3500 
L 4078 3500 
L 2700 0 
L 1472 0 
L 97 3500 
z
" transform="scale(0.015625)"/>
      <path id="DejaVuSans-Bold-72" d="M 3138 2547 
Q 2991 2616 2845 2648 
Q 2700 2681 2553 2681 
Q 2122 2681 1889 2404 
Q 1656 2128 1656 1613 
L 1656 0 
L 538 0 
L 538 3500 
L 1656 3500 
L 1656 2925 
Q 1872 3269 2151 3426 
Q 2431 3584 2822 3584 
Q 2878 3584 2943 3579 
Q 3009 3575 3134 3559 
L 3138 2547 
z
" transform="scale(0.015625)"/>
      <path id="DejaVuSans-Bold-61" d="M 2106 1575 
Q 1756 1575 1579 1456 
Q 1403 1338 1403 1106 
Q 1403 894 1545 773 
Q 1688 653 1941 653 
Q 2256 653 2472 879 
Q 2688 1106 2688 1447 
L 2688 1575 
L 2106 1575 
z
M 3816 1997 
L 3816 0 
L 2688 0 
L 2688 519 
Q 2463 200 2181 54 
Q 1900 -91 1497 -91 
Q 953 -91 614 226 
Q 275 544 275 1050 
Q 275 1666 698 1953 
Q 1122 2241 2028 2241 
L 2688 2241 
L 2688 2328 
Q 2688 2594 2478 2717 
Q 2269 2841 1825 2841 
Q 1466 2841 1156 2769 
Q 847 2697 581 2553 
L 581 3406 
Q 941 3494 1303 3539 
Q 1666 3584 2028 3584 
Q 2975 3584 3395 3211 
Q 3816 2838 3816 1997 
z
" transform="scale(0.015625)"/>
      <path id="DejaVuSans-Bold-48" d="M 588 4666 
L 1791 4666 
L 1791 2888 
L 3566 2888 
L 3566 4666 
L 4769 4666 
L 4769 0 
L 3566 0 
L 3566 1978 
L 1791 1978 
L 1791 0 
L 588 0 
L 588 4666 
z
" transform="scale(0.015625)"/>
      <path id="DejaVuSans-Bold-69" d="M 538 3500 
L 1656 3500 
L 1656 0 
L 538 0 
L 538 3500 
z
M 538 4863 
L 1656 4863 
L 1656 3950 
L 538 3950 
L 538 4863 
z
" transform="scale(0.015625)"/>
      <path id="DejaVuSans-Bold-73" d="M 3272 3391 
L 3272 2541 
Q 2913 2691 2578 2766 
Q 2244 2841 1947 2841 
Q 1628 2841 1473 2761 
Q 1319 2681 1319 2516 
Q 1319 2381 1436 2309 
Q 1553 2238 1856 2203 
L 2053 2175 
Q 2913 2066 3209 1816 
Q 3506 1566 3506 1031 
Q 3506 472 3093 190 
Q 2681 -91 1863 -91 
Q 1516 -91 1145 -36 
Q 775 19 384 128 
L 384 978 
Q 719 816 1070 734 
Q 1422 653 1784 653 
Q 2113 653 2278 743 
Q 2444 834 2444 1013 
Q 2444 1163 2330 1236 
Q 2216 1309 1875 1350 
L 1678 1375 
Q 931 1469 631 1722 
Q 331 1975 331 2491 
Q 331 3047 712 3315 
Q 1094 3584 1881 3584 
Q 2191 3584 2531 3537 
Q 2872 3491 3272 3391 
z
" transform="scale(0.015625)"/>
      <path id="DejaVuSans-Bold-74" d="M 1759 4494 
L 1759 3500 
L 2913 3500 
L 2913 2700 
L 1759 2700 
L 1759 1216 
Q 1759 972 1856 886 
Q 1953 800 2241 800 
L 2816 800 
L 2816 0 
L 1856 0 
Q 1194 0 917 276 
Q 641 553 641 1216 
L 641 2700 
L 84 2700 
L 84 3500 
L 641 3500 
L 641 4494 
L 1759 4494 
z
" transform="scale(0.015625)"/>
      <path id="DejaVuSans-Bold-79" d="M 78 3500 
L 1197 3500 
L 2138 1125 
L 2938 3500 
L 4056 3500 
L 2584 -331 
Q 2363 -916 2067 -1148 
Q 1772 -1381 1288 -1381 
L 641 -1381 
L 641 -647 
L 991 -647 
Q 1275 -647 1404 -556 
Q 1534 -466 1606 -231 
L 1638 -134 
L 78 3500 
z
" transform="scale(0.015625)"/>
     </defs>
     <use xlink:href="#DejaVuSans-Bold-45"/>
     <use xlink:href="#DejaVuSans-Bold-64" x="68.310547"/>
     <use xlink:href="#DejaVuSans-Bold-67" x="139.892578"/>
     <use xlink:href="#DejaVuSans-Bold-65" x="211.474609"/>
     <use xlink:href="#DejaVuSans-Bold-20" x="279.296875"/>
     <use xlink:href="#DejaVuSans-Bold-43" x="314.111328"/>
     <use xlink:href="#DejaVuSans-Bold-6f" x="387.5"/>
     <use xlink:href="#DejaVuSans-Bold-76" x="456.201172"/>
     <use xlink:href="#DejaVuSans-Bold-65" x="521.386719"/>
     <use xlink:href="#DejaVuSans-Bold-72" x="589.208984"/>
     <use xlink:href="#DejaVuSans-Bold-61" x="638.525391"/>
     <use xlink:href="#DejaVuSans-Bold-67" x="706.005859"/>
     <use xlink:href="#DejaVuSans-Bold-65" x="777.587891"/>
     <use xlink:href="#DejaVuSans-Bold-20" x="845.410156"/>
     <use xlink:href="#DejaVuSans-Bold-48" x="880.224609"/>
     <use xlink:href="#DejaVuSans-Bold-69" x="963.916016"/>
     <use xlink:href="#DejaVuSans-Bold-73" x="998.193359"/>
     <use xlink:href="#DejaVuSans-Bold-74" x="1057.714844"/>
     <use xlink:href="#DejaVuSans-Bold-6f" x="1105.517578"/>
     <use xlink:href="#DejaVuSans-Bold-72" x="1174.21875"/>
     <use xlink:href="#DejaVuSans-Bold-79" x="1223.535156"/>
    </g>
   </g>
   <g id="legend_1">
    <g id="patch_5">
     <path d="M 267.942 508.24 
L 385.07 508.24 
Q 386.83 508.24 386.83 506.48 
L 386.83 428.8405 
Q 386.83 427.0805 385.07 427.0805 
L 267.942 427.0805 
Q 266.182 427.0805 266.182 428.8405 
L 266.182 506.48 
Q 266.182 508.24 267.942 508.24 
z
" style="fill: #ffffff; opacity: 0.8; stroke: #cccccc; stroke-width: 0.8; stroke-linejoin: miter"/>
    </g>
    <g id="text_40">
     <!-- fuzzer -->
     <g style="fill: #262626" transform="translate(311.809 437.895)scale(0.096 -0.096)">
      <defs>
       <path id="DejaVuSans-66" d="M 2375 4863 
L 2375 4384 
L 1825 4384 
Q 1516 4384 1395 4259 
Q 1275 4134 1275 3809 
L 1275 3500 
L 2222 3500 
L 2222 3053 
L 1275 3053 
L 1275 0 
L 697 0 
L 697 3053 
L 147 3053 
L 147 3500 
L 697 3500 
L 697 3744 
Q 697 4328 969 4595 
Q 1241 4863 1831 4863 
L 2375 4863 
z
" transform="scale(0.015625)"/>
       <path id="DejaVuSans-7a" d="M 353 3500 
L 3084 3500 
L 3084 2975 
L 922 459 
L 3084 459 
L 3084 0 
L 275 0 
L 275 525 
L 2438 3041 
L 353 3041 
L 353 3500 
z
" transform="scale(0.015625)"/>
      </defs>
      <use xlink:href="#DejaVuSans-66"/>
      <use xlink:href="#DejaVuSans-75" x="35.205078"/>
      <use xlink:href="#DejaVuSans-7a" x="98.583984"/>
      <use xlink:href="#DejaVuSans-7a" x="151.074219"/>
      <use xlink:href="#DejaVuSans-65" x="203.564453"/>
      <use xlink:href="#DejaVuSans-72" x="265.087891"/>
     </g>
    </g>
    <g id="line2d_47">
     <path d="M 269.702 447.898125 
L 278.502 447.898125 
L 287.302 447.898125 
" style="fill: none; stroke: #db5f57; stroke-width: 1.2; stroke-linecap: round"/>
    </g>
    <g id="text_41">
     <!-- aflplusplus-0-exid23 -->
     <g style="fill: #262626" transform="translate(294.342 450.978125)scale(0.088 -0.088)">
      <defs>
       <path id="DejaVuSans-6c" d="M 603 4863 
L 1178 4863 
L 1178 0 
L 603 0 
L 603 4863 
z
" transform="scale(0.015625)"/>
       <path id="DejaVuSans-70" d="M 1159 525 
L 1159 -1331 
L 581 -1331 
L 581 3500 
L 1159 3500 
L 1159 2969 
Q 1341 3281 1617 3432 
Q 1894 3584 2278 3584 
Q 2916 3584 3314 3078 
Q 3713 2572 3713 1747 
Q 3713 922 3314 415 
Q 2916 -91 2278 -91 
Q 1894 -91 1617 61 
Q 1341 213 1159 525 
z
M 3116 1747 
Q 3116 2381 2855 2742 
Q 2594 3103 2138 3103 
Q 1681 3103 1420 2742 
Q 1159 2381 1159 1747 
Q 1159 1113 1420 752 
Q 1681 391 2138 391 
Q 2594 391 2855 752 
Q 3116 1113 3116 1747 
z
" transform="scale(0.015625)"/>
       <path id="DejaVuSans-2d" d="M 313 2009 
L 1997 2009 
L 1997 1497 
L 313 1497 
L 313 2009 
z
" transform="scale(0.015625)"/>
       <path id="DejaVuSans-78" d="M 3513 3500 
L 2247 1797 
L 3578 0 
L 2900 0 
L 1881 1375 
L 863 0 
L 184 0 
L 1544 1831 
L 300 3500 
L 978 3500 
L 1906 2253 
L 2834 3500 
L 3513 3500 
z
" transform="scale(0.015625)"/>
      </defs>
      <use xlink:href="#DejaVuSans-61"/>
      <use xlink:href="#DejaVuSans-66" x="61.279297"/>
      <use xlink:href="#DejaVuSans-6c" x="96.484375"/>
      <use xlink:href="#DejaVuSans-70" x="124.267578"/>
      <use xlink:href="#DejaVuSans-6c" x="187.744141"/>
      <use xlink:href="#DejaVuSans-75" x="215.527344"/>
      <use xlink:href="#DejaVuSans-73" x="278.90625"/>
      <use xlink:href="#DejaVuSans-70" x="331.005859"/>
      <use xlink:href="#DejaVuSans-6c" x="394.482422"/>
      <use xlink:href="#DejaVuSans-75" x="422.265625"/>
      <use xlink:href="#DejaVuSans-73" x="485.644531"/>
      <use xlink:href="#DejaVuSans-2d" x="537.744141"/>
      <use xlink:href="#DejaVuSans-30" x="573.828125"/>
      <use xlink:href="#DejaVuSans-2d" x="637.451172"/>
      <use xlink:href="#DejaVuSans-65" x="673.535156"/>
      <use xlink:href="#DejaVuSans-78" x="733.308594"/>
      <use xlink:href="#DejaVuSans-69" x="792.488281"/>
      <use xlink:href="#DejaVuSans-64" x="820.271484"/>
      <use xlink:href="#DejaVuSans-32" x="883.748047"/>
      <use xlink:href="#DejaVuSans-33" x="947.371094"/>
     </g>
    </g>
    <g id="line2d_48">
     <path d="M 269.702 460.814875 
L 278.502 460.814875 
L 287.302 460.814875 
" style="fill: none; stroke: #b9db57; stroke-width: 1.2; stroke-linecap: round"/>
    </g>
    <g id="text_42">
     <!-- aflfast-0-exid23 -->
     <g style="fill: #262626" transform="translate(294.342 463.894875)scale(0.088 -0.088)">
      <use xlink:href="#DejaVuSans-61"/>
      <use xlink:href="#DejaVuSans-66" x="61.279297"/>
      <use xlink:href="#DejaVuSans-6c" x="96.484375"/>
      <use xlink:href="#DejaVuSans-66" x="124.267578"/>
      <use xlink:href="#DejaVuSans-61" x="159.472656"/>
      <use xlink:href="#DejaVuSans-73" x="220.751953"/>
      <use xlink:href="#DejaVuSans-74" x="272.851562"/>
      <use xlink:href="#DejaVuSans-2d" x="312.060547"/>
      <use xlink:href="#DejaVuSans-30" x="348.144531"/>
      <use xlink:href="#DejaVuSans-2d" x="411.767578"/>
      <use xlink:href="#DejaVuSans-65" x="447.851562"/>
      <use xlink:href="#DejaVuSans-78" x="507.625"/>
      <use xlink:href="#DejaVuSans-69" x="566.804688"/>
      <use xlink:href="#DejaVuSans-64" x="594.587891"/>
      <use xlink:href="#DejaVuSans-32" x="658.064453"/>
      <use xlink:href="#DejaVuSans-33" x="721.6875"/>
     </g>
    </g>
    <g id="line2d_49">
     <path d="M 269.702 473.731625 
L 278.502 473.731625 
L 287.302 473.731625 
" style="fill: none; stroke: #57db94; stroke-width: 1.2; stroke-linecap: round"/>
    </g>
    <g id="text_43">
     <!-- fairfuzz-0-exid23 -->
     <g style="fill: #262626" transform="translate(294.342 476.811625)scale(0.088 -0.088)">
      <use xlink:href="#DejaVuSans-66"/>
      <use xlink:href="#DejaVuSans-61" x="35.205078"/>
      <use xlink:href="#DejaVuSans-69" x="96.484375"/>
      <use xlink:href="#DejaVuSans-72" x="124.267578"/>
      <use xlink:href="#DejaVuSans-66" x="165.380859"/>
      <use xlink:href="#DejaVuSans-75" x="200.585938"/>
      <use xlink:href="#DejaVuSans-7a" x="263.964844"/>
      <use xlink:href="#DejaVuSans-7a" x="316.455078"/>
      <use xlink:href="#DejaVuSans-2d" x="368.945312"/>
      <use xlink:href="#DejaVuSans-30" x="405.029297"/>
      <use xlink:href="#DejaVuSans-2d" x="468.652344"/>
      <use xlink:href="#DejaVuSans-65" x="504.736328"/>
      <use xlink:href="#DejaVuSans-78" x="564.509766"/>
      <use xlink:href="#DejaVuSans-69" x="623.689453"/>
      <use xlink:href="#DejaVuSans-64" x="651.472656"/>
      <use xlink:href="#DejaVuSans-32" x="714.949219"/>
      <use xlink:href="#DejaVuSans-33" x="778.572266"/>
     </g>
    </g>
    <g id="line2d_50">
     <path d="M 269.702 486.648375 
L 278.502 486.648375 
L 287.302 486.648375 
" style="fill: none; stroke: #5784db; stroke-width: 1.2; stroke-linecap: round"/>
    </g>
    <g id="text_44">
     <!-- afl-0-exid23 -->
     <g style="fill: #262626" transform="translate(294.342 489.728375)scale(0.088 -0.088)">
      <use xlink:href="#DejaVuSans-61"/>
      <use xlink:href="#DejaVuSans-66" x="61.279297"/>
      <use xlink:href="#DejaVuSans-6c" x="96.484375"/>
      <use xlink:href="#DejaVuSans-2d" x="124.267578"/>
      <use xlink:href="#DejaVuSans-30" x="160.351562"/>
      <use xlink:href="#DejaVuSans-2d" x="223.974609"/>
      <use xlink:href="#DejaVuSans-65" x="260.058594"/>
      <use xlink:href="#DejaVuSans-78" x="319.832031"/>
      <use xlink:href="#DejaVuSans-69" x="379.011719"/>
      <use xlink:href="#DejaVuSans-64" x="406.794922"/>
      <use xlink:href="#DejaVuSans-32" x="470.271484"/>
      <use xlink:href="#DejaVuSans-33" x="533.894531"/>
     </g>
    </g>
    <g id="line2d_51">
     <path d="M 269.702 499.565125 
L 278.502 499.565125 
L 287.302 499.565125 
" style="fill: none; stroke: #c957db; stroke-width: 1.2; stroke-linecap: round"/>
    </g>
    <g id="text_45">
     <!-- fuzzer_global -->
     <g style="fill: #262626" transform="translate(294.342 502.645125)scale(0.088 -0.088)">
      <defs>
       <path id="DejaVuSans-5f" d="M 3263 -1063 
L 3263 -1509 
L -63 -1509 
L -63 -1063 
L 3263 -1063 
z
" transform="scale(0.015625)"/>
       <path id="DejaVuSans-62" d="M 3116 1747 
Q 3116 2381 2855 2742 
Q 2594 3103 2138 3103 
Q 1681 3103 1420 2742 
Q 1159 2381 1159 1747 
Q 1159 1113 1420 752 
Q 1681 391 2138 391 
Q 2594 391 2855 752 
Q 3116 1113 3116 1747 
z
M 1159 2969 
Q 1341 3281 1617 3432 
Q 1894 3584 2278 3584 
Q 2916 3584 3314 3078 
Q 3713 2572 3713 1747 
Q 3713 922 3314 415 
Q 2916 -91 2278 -91 
Q 1894 -91 1617 61 
Q 1341 213 1159 525 
L 1159 0 
L 581 0 
L 581 4863 
L 1159 4863 
L 1159 2969 
z
" transform="scale(0.015625)"/>
      </defs>
      <use xlink:href="#DejaVuSans-66"/>
      <use xlink:href="#DejaVuSans-75" x="35.205078"/>
      <use xlink:href="#DejaVuSans-7a" x="98.583984"/>
      <use xlink:href="#DejaVuSans-7a" x="151.074219"/>
      <use xlink:href="#DejaVuSans-65" x="203.564453"/>
      <use xlink:href="#DejaVuSans-72" x="265.087891"/>
      <use xlink:href="#DejaVuSans-5f" x="306.201172"/>
      <use xlink:href="#DejaVuSans-67" x="356.201172"/>
      <use xlink:href="#DejaVuSans-6c" x="419.677734"/>
      <use xlink:href="#DejaVuSans-6f" x="447.460938"/>
      <use xlink:href="#DejaVuSans-62" x="508.642578"/>
      <use xlink:href="#DejaVuSans-61" x="572.119141"/>
      <use xlink:href="#DejaVuSans-6c" x="633.398438"/>
     </g>
    </g>
   </g>
  </g>
 </g>
 <defs>
  <clipPath id="pc3c8d32348">
   <rect x="54.3375" y="69.12" width="336.8925" height="443.52"/>
  </clipPath>
 </defs>
</svg>
