<?xml version="1.0" encoding="utf-8" standalone="no"?>
<!DOCTYPE svg PUBLIC "-//W3C//DTD SVG 1.1//EN"
  "http://www.w3.org/Graphics/SVG/1.1/DTD/svg11.dtd">
<svg xmlns:xlink="http://www.w3.org/1999/xlink" width="434.7pt" height="576pt" viewBox="0 0 434.7 576" xmlns="http://www.w3.org/2000/svg" version="1.1">
 <metadata>
  <rdf:RDF xmlns:dc="http://purl.org/dc/elements/1.1/" xmlns:cc="http://creativecommons.org/ns#" xmlns:rdf="http://www.w3.org/1999/02/22-rdf-syntax-ns#">
   <cc:Work>
    <dc:type rdf:resource="http://purl.org/dc/dcmitype/StillImage"/>
    <dc:date>2022-09-15T10:45:07.743417</dc:date>
    <dc:format>image/svg+xml</dc:format>
    <dc:creator>
     <cc:Agent>
      <dc:title>Matplotlib v3.5.3, https://matplotlib.org/</dc:title>
     </cc:Agent>
    </dc:creator>
   </cc:Work>
  </rdf:RDF>
 </metadata>
 <defs>
  <style type="text/css">*{stroke-linejoin: round; stroke-linecap: butt}</style>
 </defs>
 <g id="figure_1">
  <g id="patch_1">
   <path d="M 0 576 
L 434.7 576 
L 434.7 0 
L 0 0 
z
" style="fill: #ffffff"/>
  </g>
  <g id="axes_1">
   <g id="patch_2">
    <path d="M 54.3375 512.64 
L 391.23 512.64 
L 391.23 69.12 
L 54.3375 69.12 
z
" style="fill: #ffffff"/>
   </g>
   <g id="matplotlib.axis_1">
    <g id="xtick_1">
     <g id="line2d_1">
      <path d="M 69.650795 512.64 
L 69.650795 69.12 
" clip-path="url(#p6d67380217)" style="fill: none; stroke: #cccccc; stroke-width: 0.8; stroke-linecap: round"/>
     </g>
     <g id="text_1">
      <!-- 0 -->
      <g style="fill: #262626" transform="translate(69.388282 529.627249)rotate(-45)scale(0.088 -0.088)">
       <defs>
        <path id="DejaVuSans-30" d="M 2034 4250 
Q 1547 4250 1301 3770 
Q 1056 3291 1056 2328 
Q 1056 1369 1301 889 
Q 1547 409 2034 409 
Q 2525 409 2770 889 
Q 3016 1369 3016 2328 
Q 3016 3291 2770 3770 
Q 2525 4250 2034 4250 
z
M 2034 4750 
Q 2819 4750 3233 4129 
Q 3647 3509 3647 2328 
Q 3647 1150 3233 529 
Q 2819 -91 2034 -91 
Q 1250 -91 836 529 
Q 422 1150 422 2328 
Q 422 3509 836 4129 
Q 1250 4750 2034 4750 
z
" transform="scale(0.015625)"/>
       </defs>
       <use xlink:href="#DejaVuSans-30"/>
      </g>
     </g>
    </g>
    <g id="xtick_2">
     <g id="line2d_2">
      <path d="M 86.677392 512.64 
L 86.677392 69.12 
" clip-path="url(#p6d67380217)" style="fill: none; stroke: #cccccc; stroke-width: 0.8; stroke-linecap: round"/>
     </g>
     <g id="text_2">
      <!-- 80 -->
      <g style="fill: #262626" transform="translate(84.435333 533.58634)rotate(-45)scale(0.088 -0.088)">
       <defs>
        <path id="DejaVuSans-38" d="M 2034 2216 
Q 1584 2216 1326 1975 
Q 1069 1734 1069 1313 
Q 1069 891 1326 650 
Q 1584 409 2034 409 
Q 2484 409 2743 651 
Q 3003 894 3003 1313 
Q 3003 1734 2745 1975 
Q 2488 2216 2034 2216 
z
M 1403 2484 
Q 997 2584 770 2862 
Q 544 3141 544 3541 
Q 544 4100 942 4425 
Q 1341 4750 2034 4750 
Q 2731 4750 3128 4425 
Q 3525 4100 3525 3541 
Q 3525 3141 3298 2862 
Q 3072 2584 2669 2484 
Q 3125 2378 3379 2068 
Q 3634 1759 3634 1313 
Q 3634 634 3220 271 
Q 2806 -91 2034 -91 
Q 1263 -91 848 271 
Q 434 634 434 1313 
Q 434 1759 690 2068 
Q 947 2378 1403 2484 
z
M 1172 3481 
Q 1172 3119 1398 2916 
Q 1625 2713 2034 2713 
Q 2441 2713 2670 2916 
Q 2900 3119 2900 3481 
Q 2900 3844 2670 4047 
Q 2441 4250 2034 4250 
Q 1625 4250 1398 4047 
Q 1172 3844 1172 3481 
z
" transform="scale(0.015625)"/>
       </defs>
       <use xlink:href="#DejaVuSans-38"/>
       <use xlink:href="#DejaVuSans-30" x="63.623047"/>
      </g>
     </g>
    </g>
    <g id="xtick_3">
     <g id="line2d_3">
      <path d="M 103.703989 512.64 
L 103.703989 69.12 
" clip-path="url(#p6d67380217)" style="fill: none; stroke: #cccccc; stroke-width: 0.8; stroke-linecap: round"/>
     </g>
     <g id="text_3">
      <!-- 160 -->
      <g style="fill: #262626" transform="translate(99.482385 537.54543)rotate(-45)scale(0.088 -0.088)">
       <defs>
        <path id="DejaVuSans-31" d="M 794 531 
L 1825 531 
L 1825 4091 
L 703 3866 
L 703 4441 
L 1819 4666 
L 2450 4666 
L 2450 531 
L 3481 531 
L 3481 0 
L 794 0 
L 794 531 
z
" transform="scale(0.015625)"/>
        <path id="DejaVuSans-36" d="M 2113 2584 
Q 1688 2584 1439 2293 
Q 1191 2003 1191 1497 
Q 1191 994 1439 701 
Q 1688 409 2113 409 
Q 2538 409 2786 701 
Q 3034 994 3034 1497 
Q 3034 2003 2786 2293 
Q 2538 2584 2113 2584 
z
M 3366 4563 
L 3366 3988 
Q 3128 4100 2886 4159 
Q 2644 4219 2406 4219 
Q 1781 4219 1451 3797 
Q 1122 3375 1075 2522 
Q 1259 2794 1537 2939 
Q 1816 3084 2150 3084 
Q 2853 3084 3261 2657 
Q 3669 2231 3669 1497 
Q 3669 778 3244 343 
Q 2819 -91 2113 -91 
Q 1303 -91 875 529 
Q 447 1150 447 2328 
Q 447 3434 972 4092 
Q 1497 4750 2381 4750 
Q 2619 4750 2861 4703 
Q 3103 4656 3366 4563 
z
" transform="scale(0.015625)"/>
       </defs>
       <use xlink:href="#DejaVuSans-31"/>
       <use xlink:href="#DejaVuSans-36" x="63.623047"/>
       <use xlink:href="#DejaVuSans-30" x="127.246094"/>
      </g>
     </g>
    </g>
    <g id="xtick_4">
     <g id="line2d_4">
      <path d="M 120.730586 512.64 
L 120.730586 69.12 
" clip-path="url(#p6d67380217)" style="fill: none; stroke: #cccccc; stroke-width: 0.8; stroke-linecap: round"/>
     </g>
     <g id="text_4">
      <!-- 240 -->
      <g style="fill: #262626" transform="translate(116.508981 537.54543)rotate(-45)scale(0.088 -0.088)">
       <defs>
        <path id="DejaVuSans-32" d="M 1228 531 
L 3431 531 
L 3431 0 
L 469 0 
L 469 531 
Q 828 903 1448 1529 
Q 2069 2156 2228 2338 
Q 2531 2678 2651 2914 
Q 2772 3150 2772 3378 
Q 2772 3750 2511 3984 
Q 2250 4219 1831 4219 
Q 1534 4219 1204 4116 
Q 875 4013 500 3803 
L 500 4441 
Q 881 4594 1212 4672 
Q 1544 4750 1819 4750 
Q 2544 4750 2975 4387 
Q 3406 4025 3406 3419 
Q 3406 3131 3298 2873 
Q 3191 2616 2906 2266 
Q 2828 2175 2409 1742 
Q 1991 1309 1228 531 
z
" transform="scale(0.015625)"/>
        <path id="DejaVuSans-34" d="M 2419 4116 
L 825 1625 
L 2419 1625 
L 2419 4116 
z
M 2253 4666 
L 3047 4666 
L 3047 1625 
L 3713 1625 
L 3713 1100 
L 3047 1100 
L 3047 0 
L 2419 0 
L 2419 1100 
L 313 1100 
L 313 1709 
L 2253 4666 
z
" transform="scale(0.015625)"/>
       </defs>
       <use xlink:href="#DejaVuSans-32"/>
       <use xlink:href="#DejaVuSans-34" x="63.623047"/>
       <use xlink:href="#DejaVuSans-30" x="127.246094"/>
      </g>
     </g>
    </g>
    <g id="xtick_5">
     <g id="line2d_5">
      <path d="M 137.757182 512.64 
L 137.757182 69.12 
" clip-path="url(#p6d67380217)" style="fill: none; stroke: #cccccc; stroke-width: 0.8; stroke-linecap: round"/>
     </g>
     <g id="text_5">
      <!-- 320 -->
      <g style="fill: #262626" transform="translate(133.535578 537.54543)rotate(-45)scale(0.088 -0.088)">
       <defs>
        <path id="DejaVuSans-33" d="M 2597 2516 
Q 3050 2419 3304 2112 
Q 3559 1806 3559 1356 
Q 3559 666 3084 287 
Q 2609 -91 1734 -91 
Q 1441 -91 1130 -33 
Q 819 25 488 141 
L 488 750 
Q 750 597 1062 519 
Q 1375 441 1716 441 
Q 2309 441 2620 675 
Q 2931 909 2931 1356 
Q 2931 1769 2642 2001 
Q 2353 2234 1838 2234 
L 1294 2234 
L 1294 2753 
L 1863 2753 
Q 2328 2753 2575 2939 
Q 2822 3125 2822 3475 
Q 2822 3834 2567 4026 
Q 2313 4219 1838 4219 
Q 1578 4219 1281 4162 
Q 984 4106 628 3988 
L 628 4550 
Q 988 4650 1302 4700 
Q 1616 4750 1894 4750 
Q 2613 4750 3031 4423 
Q 3450 4097 3450 3541 
Q 3450 3153 3228 2886 
Q 3006 2619 2597 2516 
z
" transform="scale(0.015625)"/>
       </defs>
       <use xlink:href="#DejaVuSans-33"/>
       <use xlink:href="#DejaVuSans-32" x="63.623047"/>
       <use xlink:href="#DejaVuSans-30" x="127.246094"/>
      </g>
     </g>
    </g>
    <g id="xtick_6">
     <g id="line2d_6">
      <path d="M 154.783779 512.64 
L 154.783779 69.12 
" clip-path="url(#p6d67380217)" style="fill: none; stroke: #cccccc; stroke-width: 0.8; stroke-linecap: round"/>
     </g>
     <g id="text_6">
      <!-- 400 -->
      <g style="fill: #262626" transform="translate(150.562175 537.54543)rotate(-45)scale(0.088 -0.088)">
       <use xlink:href="#DejaVuSans-34"/>
       <use xlink:href="#DejaVuSans-30" x="63.623047"/>
       <use xlink:href="#DejaVuSans-30" x="127.246094"/>
      </g>
     </g>
    </g>
    <g id="xtick_7">
     <g id="line2d_7">
      <path d="M 171.810376 512.64 
L 171.810376 69.12 
" clip-path="url(#p6d67380217)" style="fill: none; stroke: #cccccc; stroke-width: 0.8; stroke-linecap: round"/>
     </g>
     <g id="text_7">
      <!-- 480 -->
      <g style="fill: #262626" transform="translate(167.588772 537.54543)rotate(-45)scale(0.088 -0.088)">
       <use xlink:href="#DejaVuSans-34"/>
       <use xlink:href="#DejaVuSans-38" x="63.623047"/>
       <use xlink:href="#DejaVuSans-30" x="127.246094"/>
      </g>
     </g>
    </g>
    <g id="xtick_8">
     <g id="line2d_8">
      <path d="M 188.836973 512.64 
L 188.836973 69.12 
" clip-path="url(#p6d67380217)" style="fill: none; stroke: #cccccc; stroke-width: 0.8; stroke-linecap: round"/>
     </g>
     <g id="text_8">
      <!-- 560 -->
      <g style="fill: #262626" transform="translate(184.615368 537.54543)rotate(-45)scale(0.088 -0.088)">
       <defs>
        <path id="DejaVuSans-35" d="M 691 4666 
L 3169 4666 
L 3169 4134 
L 1269 4134 
L 1269 2991 
Q 1406 3038 1543 3061 
Q 1681 3084 1819 3084 
Q 2600 3084 3056 2656 
Q 3513 2228 3513 1497 
Q 3513 744 3044 326 
Q 2575 -91 1722 -91 
Q 1428 -91 1123 -41 
Q 819 9 494 109 
L 494 744 
Q 775 591 1075 516 
Q 1375 441 1709 441 
Q 2250 441 2565 725 
Q 2881 1009 2881 1497 
Q 2881 1984 2565 2268 
Q 2250 2553 1709 2553 
Q 1456 2553 1204 2497 
Q 953 2441 691 2322 
L 691 4666 
z
" transform="scale(0.015625)"/>
       </defs>
       <use xlink:href="#DejaVuSans-35"/>
       <use xlink:href="#DejaVuSans-36" x="63.623047"/>
       <use xlink:href="#DejaVuSans-30" x="127.246094"/>
      </g>
     </g>
    </g>
    <g id="xtick_9">
     <g id="line2d_9">
      <path d="M 205.863569 512.64 
L 205.863569 69.12 
" clip-path="url(#p6d67380217)" style="fill: none; stroke: #cccccc; stroke-width: 0.8; stroke-linecap: round"/>
     </g>
     <g id="text_9">
      <!-- 640 -->
      <g style="fill: #262626" transform="translate(201.641965 537.54543)rotate(-45)scale(0.088 -0.088)">
       <use xlink:href="#DejaVuSans-36"/>
       <use xlink:href="#DejaVuSans-34" x="63.623047"/>
       <use xlink:href="#DejaVuSans-30" x="127.246094"/>
      </g>
     </g>
    </g>
    <g id="xtick_10">
     <g id="line2d_10">
      <path d="M 222.890166 512.64 
L 222.890166 69.12 
" clip-path="url(#p6d67380217)" style="fill: none; stroke: #cccccc; stroke-width: 0.8; stroke-linecap: round"/>
     </g>
     <g id="text_10">
      <!-- 720 -->
      <g style="fill: #262626" transform="translate(218.668562 537.54543)rotate(-45)scale(0.088 -0.088)">
       <defs>
        <path id="DejaVuSans-37" d="M 525 4666 
L 3525 4666 
L 3525 4397 
L 1831 0 
L 1172 0 
L 2766 4134 
L 525 4134 
L 525 4666 
z
" transform="scale(0.015625)"/>
       </defs>
       <use xlink:href="#DejaVuSans-37"/>
       <use xlink:href="#DejaVuSans-32" x="63.623047"/>
       <use xlink:href="#DejaVuSans-30" x="127.246094"/>
      </g>
     </g>
    </g>
    <g id="xtick_11">
     <g id="line2d_11">
      <path d="M 239.916763 512.64 
L 239.916763 69.12 
" clip-path="url(#p6d67380217)" style="fill: none; stroke: #cccccc; stroke-width: 0.8; stroke-linecap: round"/>
     </g>
     <g id="text_11">
      <!-- 800 -->
      <g style="fill: #262626" transform="translate(235.695159 537.54543)rotate(-45)scale(0.088 -0.088)">
       <use xlink:href="#DejaVuSans-38"/>
       <use xlink:href="#DejaVuSans-30" x="63.623047"/>
       <use xlink:href="#DejaVuSans-30" x="127.246094"/>
      </g>
     </g>
    </g>
    <g id="xtick_12">
     <g id="line2d_12">
      <path d="M 256.94336 512.64 
L 256.94336 69.12 
" clip-path="url(#p6d67380217)" style="fill: none; stroke: #cccccc; stroke-width: 0.8; stroke-linecap: round"/>
     </g>
     <g id="text_12">
      <!-- 880 -->
      <g style="fill: #262626" transform="translate(252.721755 537.54543)rotate(-45)scale(0.088 -0.088)">
       <use xlink:href="#DejaVuSans-38"/>
       <use xlink:href="#DejaVuSans-38" x="63.623047"/>
       <use xlink:href="#DejaVuSans-30" x="127.246094"/>
      </g>
     </g>
    </g>
    <g id="xtick_13">
     <g id="line2d_13">
      <path d="M 273.969956 512.64 
L 273.969956 69.12 
" clip-path="url(#p6d67380217)" style="fill: none; stroke: #cccccc; stroke-width: 0.8; stroke-linecap: round"/>
     </g>
     <g id="text_13">
      <!-- 960 -->
      <g style="fill: #262626" transform="translate(269.748352 537.54543)rotate(-45)scale(0.088 -0.088)">
       <defs>
        <path id="DejaVuSans-39" d="M 703 97 
L 703 672 
Q 941 559 1184 500 
Q 1428 441 1663 441 
Q 2288 441 2617 861 
Q 2947 1281 2994 2138 
Q 2813 1869 2534 1725 
Q 2256 1581 1919 1581 
Q 1219 1581 811 2004 
Q 403 2428 403 3163 
Q 403 3881 828 4315 
Q 1253 4750 1959 4750 
Q 2769 4750 3195 4129 
Q 3622 3509 3622 2328 
Q 3622 1225 3098 567 
Q 2575 -91 1691 -91 
Q 1453 -91 1209 -44 
Q 966 3 703 97 
z
M 1959 2075 
Q 2384 2075 2632 2365 
Q 2881 2656 2881 3163 
Q 2881 3666 2632 3958 
Q 2384 4250 1959 4250 
Q 1534 4250 1286 3958 
Q 1038 3666 1038 3163 
Q 1038 2656 1286 2365 
Q 1534 2075 1959 2075 
z
" transform="scale(0.015625)"/>
       </defs>
       <use xlink:href="#DejaVuSans-39"/>
       <use xlink:href="#DejaVuSans-36" x="63.623047"/>
       <use xlink:href="#DejaVuSans-30" x="127.246094"/>
      </g>
     </g>
    </g>
    <g id="xtick_14">
     <g id="line2d_14">
      <path d="M 290.996553 512.64 
L 290.996553 69.12 
" clip-path="url(#p6d67380217)" style="fill: none; stroke: #cccccc; stroke-width: 0.8; stroke-linecap: round"/>
     </g>
     <g id="text_14">
      <!-- 1040 -->
      <g style="fill: #262626" transform="translate(284.795404 541.504521)rotate(-45)scale(0.088 -0.088)">
       <use xlink:href="#DejaVuSans-31"/>
       <use xlink:href="#DejaVuSans-30" x="63.623047"/>
       <use xlink:href="#DejaVuSans-34" x="127.246094"/>
       <use xlink:href="#DejaVuSans-30" x="190.869141"/>
      </g>
     </g>
    </g>
    <g id="xtick_15">
     <g id="line2d_15">
      <path d="M 308.02315 512.64 
L 308.02315 69.12 
" clip-path="url(#p6d67380217)" style="fill: none; stroke: #cccccc; stroke-width: 0.8; stroke-linecap: round"/>
     </g>
     <g id="text_15">
      <!-- 1120 -->
      <g style="fill: #262626" transform="translate(301.822 541.504521)rotate(-45)scale(0.088 -0.088)">
       <use xlink:href="#DejaVuSans-31"/>
       <use xlink:href="#DejaVuSans-31" x="63.623047"/>
       <use xlink:href="#DejaVuSans-32" x="127.246094"/>
       <use xlink:href="#DejaVuSans-30" x="190.869141"/>
      </g>
     </g>
    </g>
    <g id="xtick_16">
     <g id="line2d_16">
      <path d="M 325.049747 512.64 
L 325.049747 69.12 
" clip-path="url(#p6d67380217)" style="fill: none; stroke: #cccccc; stroke-width: 0.8; stroke-linecap: round"/>
     </g>
     <g id="text_16">
      <!-- 1200 -->
      <g style="fill: #262626" transform="translate(318.848597 541.504521)rotate(-45)scale(0.088 -0.088)">
       <use xlink:href="#DejaVuSans-31"/>
       <use xlink:href="#DejaVuSans-32" x="63.623047"/>
       <use xlink:href="#DejaVuSans-30" x="127.246094"/>
       <use xlink:href="#DejaVuSans-30" x="190.869141"/>
      </g>
     </g>
    </g>
    <g id="xtick_17">
     <g id="line2d_17">
      <path d="M 342.076343 512.64 
L 342.076343 69.12 
" clip-path="url(#p6d67380217)" style="fill: none; stroke: #cccccc; stroke-width: 0.8; stroke-linecap: round"/>
     </g>
     <g id="text_17">
      <!-- 1280 -->
      <g style="fill: #262626" transform="translate(335.875194 541.504521)rotate(-45)scale(0.088 -0.088)">
       <use xlink:href="#DejaVuSans-31"/>
       <use xlink:href="#DejaVuSans-32" x="63.623047"/>
       <use xlink:href="#DejaVuSans-38" x="127.246094"/>
       <use xlink:href="#DejaVuSans-30" x="190.869141"/>
      </g>
     </g>
    </g>
    <g id="xtick_18">
     <g id="line2d_18">
      <path d="M 359.10294 512.64 
L 359.10294 69.12 
" clip-path="url(#p6d67380217)" style="fill: none; stroke: #cccccc; stroke-width: 0.8; stroke-linecap: round"/>
     </g>
     <g id="text_18">
      <!-- 1360 -->
      <g style="fill: #262626" transform="translate(352.901791 541.504521)rotate(-45)scale(0.088 -0.088)">
       <use xlink:href="#DejaVuSans-31"/>
       <use xlink:href="#DejaVuSans-33" x="63.623047"/>
       <use xlink:href="#DejaVuSans-36" x="127.246094"/>
       <use xlink:href="#DejaVuSans-30" x="190.869141"/>
      </g>
     </g>
    </g>
    <g id="xtick_19">
     <g id="line2d_19">
      <path d="M 376.129537 512.64 
L 376.129537 69.12 
" clip-path="url(#p6d67380217)" style="fill: none; stroke: #cccccc; stroke-width: 0.8; stroke-linecap: round"/>
     </g>
     <g id="text_19">
      <!-- 1440 -->
      <g style="fill: #262626" transform="translate(369.928387 541.504521)rotate(-45)scale(0.088 -0.088)">
       <use xlink:href="#DejaVuSans-31"/>
       <use xlink:href="#DejaVuSans-34" x="63.623047"/>
       <use xlink:href="#DejaVuSans-34" x="127.246094"/>
       <use xlink:href="#DejaVuSans-30" x="190.869141"/>
      </g>
     </g>
    </g>
    <g id="text_20">
     <!-- Time (Minutes) -->
     <g style="fill: #262626" transform="translate(186.87375 554.093115)scale(0.096 -0.096)">
      <defs>
       <path id="DejaVuSans-54" d="M -19 4666 
L 3928 4666 
L 3928 4134 
L 2272 4134 
L 2272 0 
L 1638 0 
L 1638 4134 
L -19 4134 
L -19 4666 
z
" transform="scale(0.015625)"/>
       <path id="DejaVuSans-69" d="M 603 3500 
L 1178 3500 
L 1178 0 
L 603 0 
L 603 3500 
z
M 603 4863 
L 1178 4863 
L 1178 4134 
L 603 4134 
L 603 4863 
z
" transform="scale(0.015625)"/>
       <path id="DejaVuSans-6d" d="M 3328 2828 
Q 3544 3216 3844 3400 
Q 4144 3584 4550 3584 
Q 5097 3584 5394 3201 
Q 5691 2819 5691 2113 
L 5691 0 
L 5113 0 
L 5113 2094 
Q 5113 2597 4934 2840 
Q 4756 3084 4391 3084 
Q 3944 3084 3684 2787 
Q 3425 2491 3425 1978 
L 3425 0 
L 2847 0 
L 2847 2094 
Q 2847 2600 2669 2842 
Q 2491 3084 2119 3084 
Q 1678 3084 1418 2786 
Q 1159 2488 1159 1978 
L 1159 0 
L 581 0 
L 581 3500 
L 1159 3500 
L 1159 2956 
Q 1356 3278 1631 3431 
Q 1906 3584 2284 3584 
Q 2666 3584 2933 3390 
Q 3200 3197 3328 2828 
z
" transform="scale(0.015625)"/>
       <path id="DejaVuSans-65" d="M 3597 1894 
L 3597 1613 
L 953 1613 
Q 991 1019 1311 708 
Q 1631 397 2203 397 
Q 2534 397 2845 478 
Q 3156 559 3463 722 
L 3463 178 
Q 3153 47 2828 -22 
Q 2503 -91 2169 -91 
Q 1331 -91 842 396 
Q 353 884 353 1716 
Q 353 2575 817 3079 
Q 1281 3584 2069 3584 
Q 2775 3584 3186 3129 
Q 3597 2675 3597 1894 
z
M 3022 2063 
Q 3016 2534 2758 2815 
Q 2500 3097 2075 3097 
Q 1594 3097 1305 2825 
Q 1016 2553 972 2059 
L 3022 2063 
z
" transform="scale(0.015625)"/>
       <path id="DejaVuSans-20" transform="scale(0.015625)"/>
       <path id="DejaVuSans-28" d="M 1984 4856 
Q 1566 4138 1362 3434 
Q 1159 2731 1159 2009 
Q 1159 1288 1364 580 
Q 1569 -128 1984 -844 
L 1484 -844 
Q 1016 -109 783 600 
Q 550 1309 550 2009 
Q 550 2706 781 3412 
Q 1013 4119 1484 4856 
L 1984 4856 
z
" transform="scale(0.015625)"/>
       <path id="DejaVuSans-4d" d="M 628 4666 
L 1569 4666 
L 2759 1491 
L 3956 4666 
L 4897 4666 
L 4897 0 
L 4281 0 
L 4281 4097 
L 3078 897 
L 2444 897 
L 1241 4097 
L 1241 0 
L 628 0 
L 628 4666 
z
" transform="scale(0.015625)"/>
       <path id="DejaVuSans-6e" d="M 3513 2113 
L 3513 0 
L 2938 0 
L 2938 2094 
Q 2938 2591 2744 2837 
Q 2550 3084 2163 3084 
Q 1697 3084 1428 2787 
Q 1159 2491 1159 1978 
L 1159 0 
L 581 0 
L 581 3500 
L 1159 3500 
L 1159 2956 
Q 1366 3272 1645 3428 
Q 1925 3584 2291 3584 
Q 2894 3584 3203 3211 
Q 3513 2838 3513 2113 
z
" transform="scale(0.015625)"/>
       <path id="DejaVuSans-75" d="M 544 1381 
L 544 3500 
L 1119 3500 
L 1119 1403 
Q 1119 906 1312 657 
Q 1506 409 1894 409 
Q 2359 409 2629 706 
Q 2900 1003 2900 1516 
L 2900 3500 
L 3475 3500 
L 3475 0 
L 2900 0 
L 2900 538 
Q 2691 219 2414 64 
Q 2138 -91 1772 -91 
Q 1169 -91 856 284 
Q 544 659 544 1381 
z
M 1991 3584 
L 1991 3584 
z
" transform="scale(0.015625)"/>
       <path id="DejaVuSans-74" d="M 1172 4494 
L 1172 3500 
L 2356 3500 
L 2356 3053 
L 1172 3053 
L 1172 1153 
Q 1172 725 1289 603 
Q 1406 481 1766 481 
L 2356 481 
L 2356 0 
L 1766 0 
Q 1100 0 847 248 
Q 594 497 594 1153 
L 594 3053 
L 172 3053 
L 172 3500 
L 594 3500 
L 594 4494 
L 1172 4494 
z
" transform="scale(0.015625)"/>
       <path id="DejaVuSans-73" d="M 2834 3397 
L 2834 2853 
Q 2591 2978 2328 3040 
Q 2066 3103 1784 3103 
Q 1356 3103 1142 2972 
Q 928 2841 928 2578 
Q 928 2378 1081 2264 
Q 1234 2150 1697 2047 
L 1894 2003 
Q 2506 1872 2764 1633 
Q 3022 1394 3022 966 
Q 3022 478 2636 193 
Q 2250 -91 1575 -91 
Q 1294 -91 989 -36 
Q 684 19 347 128 
L 347 722 
Q 666 556 975 473 
Q 1284 391 1588 391 
Q 1994 391 2212 530 
Q 2431 669 2431 922 
Q 2431 1156 2273 1281 
Q 2116 1406 1581 1522 
L 1381 1569 
Q 847 1681 609 1914 
Q 372 2147 372 2553 
Q 372 3047 722 3315 
Q 1072 3584 1716 3584 
Q 2034 3584 2315 3537 
Q 2597 3491 2834 3397 
z
" transform="scale(0.015625)"/>
       <path id="DejaVuSans-29" d="M 513 4856 
L 1013 4856 
Q 1481 4119 1714 3412 
Q 1947 2706 1947 2009 
Q 1947 1309 1714 600 
Q 1481 -109 1013 -844 
L 513 -844 
Q 928 -128 1133 580 
Q 1338 1288 1338 2009 
Q 1338 2731 1133 3434 
Q 928 4138 513 4856 
z
" transform="scale(0.015625)"/>
      </defs>
      <use xlink:href="#DejaVuSans-54"/>
      <use xlink:href="#DejaVuSans-69" x="57.958984"/>
      <use xlink:href="#DejaVuSans-6d" x="85.742188"/>
      <use xlink:href="#DejaVuSans-65" x="183.154297"/>
      <use xlink:href="#DejaVuSans-20" x="244.677734"/>
      <use xlink:href="#DejaVuSans-28" x="276.464844"/>
      <use xlink:href="#DejaVuSans-4d" x="315.478516"/>
      <use xlink:href="#DejaVuSans-69" x="401.757812"/>
      <use xlink:href="#DejaVuSans-6e" x="429.541016"/>
      <use xlink:href="#DejaVuSans-75" x="492.919922"/>
      <use xlink:href="#DejaVuSans-74" x="556.298828"/>
      <use xlink:href="#DejaVuSans-65" x="595.507812"/>
      <use xlink:href="#DejaVuSans-73" x="657.03125"/>
      <use xlink:href="#DejaVuSans-29" x="709.130859"/>
     </g>
    </g>
   </g>
   <g id="matplotlib.axis_2">
    <g id="ytick_1">
     <g id="line2d_20">
      <path d="M 54.3375 492.48 
L 391.23 492.48 
" clip-path="url(#p6d67380217)" style="fill: none; stroke: #cccccc; stroke-width: 0.8; stroke-linecap: round"/>
     </g>
     <g id="text_21">
      <!-- 0 -->
      <g style="fill: #262626" transform="translate(40.4385 495.823312)scale(0.088 -0.088)">
       <use xlink:href="#DejaVuSans-30"/>
      </g>
     </g>
    </g>
    <g id="ytick_2">
     <g id="line2d_21">
      <path d="M 54.3375 469.648743 
L 391.23 469.648743 
" clip-path="url(#p6d67380217)" style="fill: none; stroke: #cccccc; stroke-width: 0.8; stroke-linecap: round"/>
     </g>
     <g id="text_22">
      <!-- 100 -->
      <g style="fill: #262626" transform="translate(29.2405 472.992055)scale(0.088 -0.088)">
       <use xlink:href="#DejaVuSans-31"/>
       <use xlink:href="#DejaVuSans-30" x="63.623047"/>
       <use xlink:href="#DejaVuSans-30" x="127.246094"/>
      </g>
     </g>
    </g>
    <g id="ytick_3">
     <g id="line2d_22">
      <path d="M 54.3375 446.817486 
L 391.23 446.817486 
" clip-path="url(#p6d67380217)" style="fill: none; stroke: #cccccc; stroke-width: 0.8; stroke-linecap: round"/>
     </g>
     <g id="text_23">
      <!-- 200 -->
      <g style="fill: #262626" transform="translate(29.2405 450.160798)scale(0.088 -0.088)">
       <use xlink:href="#DejaVuSans-32"/>
       <use xlink:href="#DejaVuSans-30" x="63.623047"/>
       <use xlink:href="#DejaVuSans-30" x="127.246094"/>
      </g>
     </g>
    </g>
    <g id="ytick_4">
     <g id="line2d_23">
      <path d="M 54.3375 423.986229 
L 391.23 423.986229 
" clip-path="url(#p6d67380217)" style="fill: none; stroke: #cccccc; stroke-width: 0.8; stroke-linecap: round"/>
     </g>
     <g id="text_24">
      <!-- 300 -->
      <g style="fill: #262626" transform="translate(29.2405 427.329541)scale(0.088 -0.088)">
       <use xlink:href="#DejaVuSans-33"/>
       <use xlink:href="#DejaVuSans-30" x="63.623047"/>
       <use xlink:href="#DejaVuSans-30" x="127.246094"/>
      </g>
     </g>
    </g>
    <g id="ytick_5">
     <g id="line2d_24">
      <path d="M 54.3375 401.154972 
L 391.23 401.154972 
" clip-path="url(#p6d67380217)" style="fill: none; stroke: #cccccc; stroke-width: 0.8; stroke-linecap: round"/>
     </g>
     <g id="text_25">
      <!-- 400 -->
      <g style="fill: #262626" transform="translate(29.2405 404.498284)scale(0.088 -0.088)">
       <use xlink:href="#DejaVuSans-34"/>
       <use xlink:href="#DejaVuSans-30" x="63.623047"/>
       <use xlink:href="#DejaVuSans-30" x="127.246094"/>
      </g>
     </g>
    </g>
    <g id="ytick_6">
     <g id="line2d_25">
      <path d="M 54.3375 378.323715 
L 391.23 378.323715 
" clip-path="url(#p6d67380217)" style="fill: none; stroke: #cccccc; stroke-width: 0.8; stroke-linecap: round"/>
     </g>
     <g id="text_26">
      <!-- 500 -->
      <g style="fill: #262626" transform="translate(29.2405 381.667027)scale(0.088 -0.088)">
       <use xlink:href="#DejaVuSans-35"/>
       <use xlink:href="#DejaVuSans-30" x="63.623047"/>
       <use xlink:href="#DejaVuSans-30" x="127.246094"/>
      </g>
     </g>
    </g>
    <g id="ytick_7">
     <g id="line2d_26">
      <path d="M 54.3375 355.492458 
L 391.23 355.492458 
" clip-path="url(#p6d67380217)" style="fill: none; stroke: #cccccc; stroke-width: 0.8; stroke-linecap: round"/>
     </g>
     <g id="text_27">
      <!-- 600 -->
      <g style="fill: #262626" transform="translate(29.2405 358.83577)scale(0.088 -0.088)">
       <use xlink:href="#DejaVuSans-36"/>
       <use xlink:href="#DejaVuSans-30" x="63.623047"/>
       <use xlink:href="#DejaVuSans-30" x="127.246094"/>
      </g>
     </g>
    </g>
    <g id="ytick_8">
     <g id="line2d_27">
      <path d="M 54.3375 332.6612 
L 391.23 332.6612 
" clip-path="url(#p6d67380217)" style="fill: none; stroke: #cccccc; stroke-width: 0.8; stroke-linecap: round"/>
     </g>
     <g id="text_28">
      <!-- 700 -->
      <g style="fill: #262626" transform="translate(29.2405 336.004513)scale(0.088 -0.088)">
       <use xlink:href="#DejaVuSans-37"/>
       <use xlink:href="#DejaVuSans-30" x="63.623047"/>
       <use xlink:href="#DejaVuSans-30" x="127.246094"/>
      </g>
     </g>
    </g>
    <g id="ytick_9">
     <g id="line2d_28">
      <path d="M 54.3375 309.829943 
L 391.23 309.829943 
" clip-path="url(#p6d67380217)" style="fill: none; stroke: #cccccc; stroke-width: 0.8; stroke-linecap: round"/>
     </g>
     <g id="text_29">
      <!-- 800 -->
      <g style="fill: #262626" transform="translate(29.2405 313.173256)scale(0.088 -0.088)">
       <use xlink:href="#DejaVuSans-38"/>
       <use xlink:href="#DejaVuSans-30" x="63.623047"/>
       <use xlink:href="#DejaVuSans-30" x="127.246094"/>
      </g>
     </g>
    </g>
    <g id="ytick_10">
     <g id="line2d_29">
      <path d="M 54.3375 286.998686 
L 391.23 286.998686 
" clip-path="url(#p6d67380217)" style="fill: none; stroke: #cccccc; stroke-width: 0.8; stroke-linecap: round"/>
     </g>
     <g id="text_30">
      <!-- 900 -->
      <g style="fill: #262626" transform="translate(29.2405 290.341999)scale(0.088 -0.088)">
       <use xlink:href="#DejaVuSans-39"/>
       <use xlink:href="#DejaVuSans-30" x="63.623047"/>
       <use xlink:href="#DejaVuSans-30" x="127.246094"/>
      </g>
     </g>
    </g>
    <g id="ytick_11">
     <g id="line2d_30">
      <path d="M 54.3375 264.167429 
L 391.23 264.167429 
" clip-path="url(#p6d67380217)" style="fill: none; stroke: #cccccc; stroke-width: 0.8; stroke-linecap: round"/>
     </g>
     <g id="text_31">
      <!-- 1000 -->
      <g style="fill: #262626" transform="translate(23.6415 267.510742)scale(0.088 -0.088)">
       <use xlink:href="#DejaVuSans-31"/>
       <use xlink:href="#DejaVuSans-30" x="63.623047"/>
       <use xlink:href="#DejaVuSans-30" x="127.246094"/>
       <use xlink:href="#DejaVuSans-30" x="190.869141"/>
      </g>
     </g>
    </g>
    <g id="ytick_12">
     <g id="line2d_31">
      <path d="M 54.3375 241.336172 
L 391.23 241.336172 
" clip-path="url(#p6d67380217)" style="fill: none; stroke: #cccccc; stroke-width: 0.8; stroke-linecap: round"/>
     </g>
     <g id="text_32">
      <!-- 1100 -->
      <g style="fill: #262626" transform="translate(23.6415 244.679485)scale(0.088 -0.088)">
       <use xlink:href="#DejaVuSans-31"/>
       <use xlink:href="#DejaVuSans-31" x="63.623047"/>
       <use xlink:href="#DejaVuSans-30" x="127.246094"/>
       <use xlink:href="#DejaVuSans-30" x="190.869141"/>
      </g>
     </g>
    </g>
    <g id="ytick_13">
     <g id="line2d_32">
      <path d="M 54.3375 218.504915 
L 391.23 218.504915 
" clip-path="url(#p6d67380217)" style="fill: none; stroke: #cccccc; stroke-width: 0.8; stroke-linecap: round"/>
     </g>
     <g id="text_33">
      <!-- 1200 -->
      <g style="fill: #262626" transform="translate(23.6415 221.848228)scale(0.088 -0.088)">
       <use xlink:href="#DejaVuSans-31"/>
       <use xlink:href="#DejaVuSans-32" x="63.623047"/>
       <use xlink:href="#DejaVuSans-30" x="127.246094"/>
       <use xlink:href="#DejaVuSans-30" x="190.869141"/>
      </g>
     </g>
    </g>
    <g id="ytick_14">
     <g id="line2d_33">
      <path d="M 54.3375 195.673658 
L 391.23 195.673658 
" clip-path="url(#p6d67380217)" style="fill: none; stroke: #cccccc; stroke-width: 0.8; stroke-linecap: round"/>
     </g>
     <g id="text_34">
      <!-- 1300 -->
      <g style="fill: #262626" transform="translate(23.6415 199.01697)scale(0.088 -0.088)">
       <use xlink:href="#DejaVuSans-31"/>
       <use xlink:href="#DejaVuSans-33" x="63.623047"/>
       <use xlink:href="#DejaVuSans-30" x="127.246094"/>
       <use xlink:href="#DejaVuSans-30" x="190.869141"/>
      </g>
     </g>
    </g>
    <g id="ytick_15">
     <g id="line2d_34">
      <path d="M 54.3375 172.842401 
L 391.23 172.842401 
" clip-path="url(#p6d67380217)" style="fill: none; stroke: #cccccc; stroke-width: 0.8; stroke-linecap: round"/>
     </g>
     <g id="text_35">
      <!-- 1400 -->
      <g style="fill: #262626" transform="translate(23.6415 176.185713)scale(0.088 -0.088)">
       <use xlink:href="#DejaVuSans-31"/>
       <use xlink:href="#DejaVuSans-34" x="63.623047"/>
       <use xlink:href="#DejaVuSans-30" x="127.246094"/>
       <use xlink:href="#DejaVuSans-30" x="190.869141"/>
      </g>
     </g>
    </g>
    <g id="ytick_16">
     <g id="line2d_35">
      <path d="M 54.3375 150.011144 
L 391.23 150.011144 
" clip-path="url(#p6d67380217)" style="fill: none; stroke: #cccccc; stroke-width: 0.8; stroke-linecap: round"/>
     </g>
     <g id="text_36">
      <!-- 1500 -->
      <g style="fill: #262626" transform="translate(23.6415 153.354456)scale(0.088 -0.088)">
       <use xlink:href="#DejaVuSans-31"/>
       <use xlink:href="#DejaVuSans-35" x="63.623047"/>
       <use xlink:href="#DejaVuSans-30" x="127.246094"/>
       <use xlink:href="#DejaVuSans-30" x="190.869141"/>
      </g>
     </g>
    </g>
    <g id="ytick_17">
     <g id="line2d_36">
      <path d="M 54.3375 127.179887 
L 391.23 127.179887 
" clip-path="url(#p6d67380217)" style="fill: none; stroke: #cccccc; stroke-width: 0.8; stroke-linecap: round"/>
     </g>
     <g id="text_37">
      <!-- 1600 -->
      <g style="fill: #262626" transform="translate(23.6415 130.523199)scale(0.088 -0.088)">
       <use xlink:href="#DejaVuSans-31"/>
       <use xlink:href="#DejaVuSans-36" x="63.623047"/>
       <use xlink:href="#DejaVuSans-30" x="127.246094"/>
       <use xlink:href="#DejaVuSans-30" x="190.869141"/>
      </g>
     </g>
    </g>
    <g id="ytick_18">
     <g id="line2d_37">
      <path d="M 54.3375 104.34863 
L 391.23 104.34863 
" clip-path="url(#p6d67380217)" style="fill: none; stroke: #cccccc; stroke-width: 0.8; stroke-linecap: round"/>
     </g>
     <g id="text_38">
      <!-- 1700 -->
      <g style="fill: #262626" transform="translate(23.6415 107.691942)scale(0.088 -0.088)">
       <use xlink:href="#DejaVuSans-31"/>
       <use xlink:href="#DejaVuSans-37" x="63.623047"/>
       <use xlink:href="#DejaVuSans-30" x="127.246094"/>
       <use xlink:href="#DejaVuSans-30" x="190.869141"/>
      </g>
     </g>
    </g>
    <g id="text_39">
     <!-- Edge Coverages -->
     <g style="fill: #262626" transform="translate(17.645 329.98575)rotate(-90)scale(0.096 -0.096)">
      <defs>
       <path id="DejaVuSans-45" d="M 628 4666 
L 3578 4666 
L 3578 4134 
L 1259 4134 
L 1259 2753 
L 3481 2753 
L 3481 2222 
L 1259 2222 
L 1259 531 
L 3634 531 
L 3634 0 
L 628 0 
L 628 4666 
z
" transform="scale(0.015625)"/>
       <path id="DejaVuSans-64" d="M 2906 2969 
L 2906 4863 
L 3481 4863 
L 3481 0 
L 2906 0 
L 2906 525 
Q 2725 213 2448 61 
Q 2172 -91 1784 -91 
Q 1150 -91 751 415 
Q 353 922 353 1747 
Q 353 2572 751 3078 
Q 1150 3584 1784 3584 
Q 2172 3584 2448 3432 
Q 2725 3281 2906 2969 
z
M 947 1747 
Q 947 1113 1208 752 
Q 1469 391 1925 391 
Q 2381 391 2643 752 
Q 2906 1113 2906 1747 
Q 2906 2381 2643 2742 
Q 2381 3103 1925 3103 
Q 1469 3103 1208 2742 
Q 947 2381 947 1747 
z
" transform="scale(0.015625)"/>
       <path id="DejaVuSans-67" d="M 2906 1791 
Q 2906 2416 2648 2759 
Q 2391 3103 1925 3103 
Q 1463 3103 1205 2759 
Q 947 2416 947 1791 
Q 947 1169 1205 825 
Q 1463 481 1925 481 
Q 2391 481 2648 825 
Q 2906 1169 2906 1791 
z
M 3481 434 
Q 3481 -459 3084 -895 
Q 2688 -1331 1869 -1331 
Q 1566 -1331 1297 -1286 
Q 1028 -1241 775 -1147 
L 775 -588 
Q 1028 -725 1275 -790 
Q 1522 -856 1778 -856 
Q 2344 -856 2625 -561 
Q 2906 -266 2906 331 
L 2906 616 
Q 2728 306 2450 153 
Q 2172 0 1784 0 
Q 1141 0 747 490 
Q 353 981 353 1791 
Q 353 2603 747 3093 
Q 1141 3584 1784 3584 
Q 2172 3584 2450 3431 
Q 2728 3278 2906 2969 
L 2906 3500 
L 3481 3500 
L 3481 434 
z
" transform="scale(0.015625)"/>
       <path id="DejaVuSans-43" d="M 4122 4306 
L 4122 3641 
Q 3803 3938 3442 4084 
Q 3081 4231 2675 4231 
Q 1875 4231 1450 3742 
Q 1025 3253 1025 2328 
Q 1025 1406 1450 917 
Q 1875 428 2675 428 
Q 3081 428 3442 575 
Q 3803 722 4122 1019 
L 4122 359 
Q 3791 134 3420 21 
Q 3050 -91 2638 -91 
Q 1578 -91 968 557 
Q 359 1206 359 2328 
Q 359 3453 968 4101 
Q 1578 4750 2638 4750 
Q 3056 4750 3426 4639 
Q 3797 4528 4122 4306 
z
" transform="scale(0.015625)"/>
       <path id="DejaVuSans-6f" d="M 1959 3097 
Q 1497 3097 1228 2736 
Q 959 2375 959 1747 
Q 959 1119 1226 758 
Q 1494 397 1959 397 
Q 2419 397 2687 759 
Q 2956 1122 2956 1747 
Q 2956 2369 2687 2733 
Q 2419 3097 1959 3097 
z
M 1959 3584 
Q 2709 3584 3137 3096 
Q 3566 2609 3566 1747 
Q 3566 888 3137 398 
Q 2709 -91 1959 -91 
Q 1206 -91 779 398 
Q 353 888 353 1747 
Q 353 2609 779 3096 
Q 1206 3584 1959 3584 
z
" transform="scale(0.015625)"/>
       <path id="DejaVuSans-76" d="M 191 3500 
L 800 3500 
L 1894 563 
L 2988 3500 
L 3597 3500 
L 2284 0 
L 1503 0 
L 191 3500 
z
" transform="scale(0.015625)"/>
       <path id="DejaVuSans-72" d="M 2631 2963 
Q 2534 3019 2420 3045 
Q 2306 3072 2169 3072 
Q 1681 3072 1420 2755 
Q 1159 2438 1159 1844 
L 1159 0 
L 581 0 
L 581 3500 
L 1159 3500 
L 1159 2956 
Q 1341 3275 1631 3429 
Q 1922 3584 2338 3584 
Q 2397 3584 2469 3576 
Q 2541 3569 2628 3553 
L 2631 2963 
z
" transform="scale(0.015625)"/>
       <path id="DejaVuSans-61" d="M 2194 1759 
Q 1497 1759 1228 1600 
Q 959 1441 959 1056 
Q 959 750 1161 570 
Q 1363 391 1709 391 
Q 2188 391 2477 730 
Q 2766 1069 2766 1631 
L 2766 1759 
L 2194 1759 
z
M 3341 1997 
L 3341 0 
L 2766 0 
L 2766 531 
Q 2569 213 2275 61 
Q 1981 -91 1556 -91 
Q 1019 -91 701 211 
Q 384 513 384 1019 
Q 384 1609 779 1909 
Q 1175 2209 1959 2209 
L 2766 2209 
L 2766 2266 
Q 2766 2663 2505 2880 
Q 2244 3097 1772 3097 
Q 1472 3097 1187 3025 
Q 903 2953 641 2809 
L 641 3341 
Q 956 3463 1253 3523 
Q 1550 3584 1831 3584 
Q 2591 3584 2966 3190 
Q 3341 2797 3341 1997 
z
" transform="scale(0.015625)"/>
      </defs>
      <use xlink:href="#DejaVuSans-45"/>
      <use xlink:href="#DejaVuSans-64" x="63.183594"/>
      <use xlink:href="#DejaVuSans-67" x="126.660156"/>
      <use xlink:href="#DejaVuSans-65" x="190.136719"/>
      <use xlink:href="#DejaVuSans-20" x="251.660156"/>
      <use xlink:href="#DejaVuSans-43" x="283.447266"/>
      <use xlink:href="#DejaVuSans-6f" x="353.271484"/>
      <use xlink:href="#DejaVuSans-76" x="414.453125"/>
      <use xlink:href="#DejaVuSans-65" x="473.632812"/>
      <use xlink:href="#DejaVuSans-72" x="535.15625"/>
      <use xlink:href="#DejaVuSans-61" x="576.269531"/>
      <use xlink:href="#DejaVuSans-67" x="637.548828"/>
      <use xlink:href="#DejaVuSans-65" x="701.025391"/>
      <use xlink:href="#DejaVuSans-73" x="762.548828"/>
     </g>
    </g>
   </g>
   <g id="PolyCollection_1">
    <defs>
     <path id="mf6cf6a5699" d="M 69.650795 -113.428947 
L 69.650795 -83.52 
L 69.650795 -113.428947 
L 69.650795 -113.428947 
z
" style="stroke: #db5f57; stroke-opacity: 0.2; stroke-width: 0.8"/>
    </defs>
    <g clip-path="url(#p6d67380217)">
     <use xlink:href="#mf6cf6a5699" x="0" y="576" style="fill: #db5f57; fill-opacity: 0.2; stroke: #db5f57; stroke-opacity: 0.2; stroke-width: 0.8"/>
    </g>
   </g>
   <g id="PolyCollection_2">
    <defs>
     <path id="m6048c6efd5" d="M 69.650795 -100.41513 
L 69.650795 -83.52 
L 69.650795 -100.41513 
L 69.650795 -100.41513 
z
" style="stroke: #b9db57; stroke-opacity: 0.2; stroke-width: 0.8"/>
    </defs>
    <g clip-path="url(#p6d67380217)">
     <use xlink:href="#m6048c6efd5" x="0" y="576" style="fill: #b9db57; fill-opacity: 0.2; stroke: #b9db57; stroke-opacity: 0.2; stroke-width: 0.8"/>
    </g>
   </g>
   <g id="PolyCollection_3">
    <defs>
     <path id="mbbc371fb08" d="M 69.650795 -103.154881 
L 69.650795 -83.52 
L 69.650795 -103.154881 
L 69.650795 -103.154881 
z
" style="stroke: #57db94; stroke-opacity: 0.2; stroke-width: 0.8"/>
    </defs>
    <g clip-path="url(#p6d67380217)">
     <use xlink:href="#mbbc371fb08" x="0" y="576" style="fill: #57db94; fill-opacity: 0.2; stroke: #57db94; stroke-opacity: 0.2; stroke-width: 0.8"/>
    </g>
   </g>
   <g id="PolyCollection_4">
    <defs>
     <path id="m287dbbe2f8" d="M 69.650795 -113.428947 
L 69.650795 -83.52 
L 69.650795 -113.428947 
L 69.650795 -113.428947 
z
" style="stroke: #5784db; stroke-opacity: 0.2; stroke-width: 0.8"/>
    </defs>
    <g clip-path="url(#p6d67380217)">
     <use xlink:href="#m287dbbe2f8" x="0" y="576" style="fill: #5784db; fill-opacity: 0.2; stroke: #5784db; stroke-opacity: 0.2; stroke-width: 0.8"/>
    </g>
   </g>
   <g id="PolyCollection_5">
    <defs>
     <path id="m5389cc9ac1" d="M 69.650795 -120.734949 
L 69.650795 -83.52 
L 69.650795 -120.734949 
L 69.650795 -120.734949 
z
" style="stroke: #c957db; stroke-opacity: 0.2; stroke-width: 0.8"/>
    </defs>
    <g clip-path="url(#p6d67380217)">
     <use xlink:href="#m5389cc9ac1" x="0" y="576" style="fill: #c957db; fill-opacity: 0.2; stroke: #c957db; stroke-opacity: 0.2; stroke-width: 0.8"/>
    </g>
   </g>
   <g id="line2d_38">
    <path d="M 69.650795 477.525527 
L 70.07646 428.55248 
L 70.502125 378.323715 
L 70.714958 363.026772 
L 70.92779 360.971959 
L 71.140623 348.414768 
L 71.353455 320.332322 
L 71.566288 312.569694 
L 71.77912 309.373318 
L 72.204785 295.217939 
L 72.63045 288.140249 
L 73.056115 280.377622 
L 73.268947 276.039683 
L 73.694612 264.624054 
L 74.120277 260.286116 
L 75.184439 239.509672 
L 75.397272 236.998233 
L 75.610104 236.769921 
L 75.822937 234.715108 
L 76.248602 232.660294 
L 76.674267 228.550668 
L 77.099932 227.409105 
L 77.738429 221.701291 
L 77.951261 221.016353 
L 78.164094 219.189853 
L 78.589759 214.623601 
L 79.015424 214.166976 
L 79.653921 212.340476 
L 79.866754 209.829037 
L 80.079586 209.1441 
L 80.292418 206.176036 
L 80.505251 205.947724 
L 80.718083 205.947724 
L 80.930916 204.121223 
L 81.782246 201.381472 
L 81.995078 201.15316 
L 82.207911 201.15316 
L 82.420743 199.098347 
L 82.633575 198.641721 
L 82.846408 197.043533 
L 83.272073 195.901971 
L 83.484905 194.532095 
L 83.697738 194.303783 
L 83.91057 194.303783 
L 84.123403 194.07547 
L 84.336235 193.16222 
L 84.549068 192.933907 
L 85.187565 190.650781 
L 85.400397 190.422469 
L 85.61323 190.422469 
L 85.826062 189.965844 
L 86.038895 189.052593 
L 86.251727 188.824281 
L 86.46456 188.824281 
L 87.31589 187.226093 
L 87.528722 187.226093 
L 87.741555 186.99778 
L 87.954387 186.541155 
L 88.167219 186.541155 
L 88.592884 184.258029 
L 88.805717 184.258029 
L 89.444214 182.659841 
L 89.657047 181.974904 
L 89.869879 181.974904 
L 90.082712 181.518279 
L 90.508376 181.518279 
L 90.721209 181.289966 
L 90.934041 181.289966 
L 91.146874 181.061653 
L 91.998204 181.061653 
L 92.211036 180.833341 
L 92.423869 178.321903 
L 93.062366 176.038777 
L 93.275198 175.353839 
L 93.488031 174.212276 
L 93.700863 174.212276 
L 94.126528 173.299026 
L 94.339361 173.299026 
L 94.765026 172.614088 
L 96.254853 172.614088 
L 96.467685 171.929151 
L 96.680518 171.700838 
L 96.89335 171.700838 
L 97.106183 171.244213 
L 97.319015 171.244213 
L 97.531848 171.0159 
L 97.74468 170.330963 
L 98.170345 170.330963 
L 98.383177 170.10265 
L 98.59601 170.10265 
L 98.808842 169.646025 
L 99.234507 169.646025 
L 99.44734 168.732775 
L 99.660172 168.504462 
L 100.085837 168.504462 
L 100.29867 168.047837 
L 102.852659 168.047837 
L 103.065492 167.134587 
L 106.896476 167.134587 
L 107.109308 166.906274 
L 111.153125 166.906274 
L 111.365957 165.308086 
L 111.57879 165.308086 
L 112.004455 164.851461 
L 113.494282 164.851461 
L 113.707115 164.623148 
L 114.345612 164.623148 
L 114.558444 164.394836 
L 114.984109 163.709898 
L 117.112434 163.709898 
L 117.325266 163.481586 
L 117.963764 163.481586 
L 118.176596 163.253273 
L 118.602261 163.253273 
L 119.027926 162.796648 
L 119.453591 162.796648 
L 119.666423 162.568335 
L 119.879256 162.568335 
L 120.092088 162.340023 
L 121.156251 162.340023 
L 121.369083 161.883398 
L 122.433245 161.883398 
L 122.646078 161.655085 
L 123.284575 161.655085 
L 123.497408 161.426772 
L 123.71024 161.426772 
L 124.135905 160.970147 
L 126.902727 160.970147 
L 127.115559 160.741835 
L 127.541224 160.741835 
L 127.966889 160.28521 
L 129.456717 160.28521 
L 129.882381 159.828584 
L 132.436371 159.828584 
L 132.649203 159.600272 
L 133.713366 159.600272 
L 133.926198 159.371959 
L 134.99036 159.371959 
L 135.203193 159.143647 
L 259.071684 159.143647 
L 259.284517 149.554519 
L 259.497349 149.554519 
L 259.710182 149.326206 
L 280.142098 149.326206 
L 280.35493 148.869581 
L 282.270422 148.869581 
L 282.483255 148.641268 
L 308.661647 148.641268 
L 308.87448 148.412956 
L 309.300145 148.412956 
L 309.512977 148.184643 
L 315.472286 148.184643 
L 315.685119 147.956331 
L 323.134255 147.956331 
L 323.347087 147.499706 
L 325.049747 147.499706 
L 325.262579 147.271393 
L 330.583391 147.271393 
L 330.796223 147.04308 
L 332.28605 147.04308 
L 332.498883 146.814768 
L 339.522354 146.814768 
L 339.735186 146.586455 
L 352.292302 146.586455 
L 352.505134 146.358143 
L 352.930799 146.358143 
L 353.143631 146.12983 
L 359.10294 146.12983 
L 359.315773 145.901518 
L 375.916705 145.901518 
L 375.916705 145.901518 
" clip-path="url(#p6d67380217)" style="fill: none; stroke: #db5f57; stroke-width: 1.2; stroke-linecap: round"/>
   </g>
   <g id="line2d_39">
    <path d="M 69.650795 484.032435 
L 70.07646 431.748856 
L 70.289293 413.483851 
L 70.714958 410.515787 
L 71.77912 405.721223 
L 71.991953 396.58872 
L 72.204785 319.647384 
L 72.417617 291.79325 
L 72.63045 291.108313 
L 73.056115 290.651687 
L 73.268947 289.96675 
L 73.694612 289.96675 
L 73.907445 259.82949 
L 74.120277 258.459615 
L 74.33311 258.231302 
L 74.545942 258.231302 
L 74.758774 258.00299 
L 74.971607 256.404802 
L 75.184439 256.176489 
L 75.397272 256.176489 
L 75.610104 255.719864 
L 75.822937 255.719864 
L 76.035769 255.263239 
L 76.248602 224.669354 
L 76.674267 223.984417 
L 77.099932 223.527792 
L 77.312764 223.071166 
L 77.525596 212.112163 
L 77.738429 211.655538 
L 78.164094 211.655538 
L 78.376926 211.427225 
L 79.015424 210.285663 
L 79.228256 210.05735 
L 79.441089 210.05735 
L 79.653921 193.390532 
L 79.866754 193.390532 
L 80.292418 192.248969 
L 80.718083 191.792344 
L 80.930916 191.792344 
L 81.143748 185.399592 
L 81.782246 183.116467 
L 82.420743 183.116467 
L 82.633575 182.888154 
L 83.05924 182.888154 
L 83.484905 182.431529 
L 83.697738 182.431529 
L 83.91057 174.668901 
L 84.123403 173.983964 
L 84.336235 172.842401 
L 84.549068 172.614088 
L 84.7619 172.614088 
L 84.974733 172.157463 
L 85.400397 172.157463 
L 85.61323 171.929151 
L 85.826062 171.929151 
L 86.038895 168.732775 
L 87.103057 168.732775 
L 87.31589 166.221336 
L 88.805717 166.221336 
L 89.018549 164.623148 
L 89.869879 164.623148 
L 90.082712 163.481586 
L 90.295544 163.02496 
L 90.508376 163.02496 
L 90.721209 162.796648 
L 91.785371 162.796648 
L 91.998204 161.883398 
L 92.211036 161.883398 
L 92.423869 161.655085 
L 93.488031 161.655085 
L 93.700863 157.545459 
L 93.913696 157.545459 
L 94.126528 156.632208 
L 94.339361 156.632208 
L 94.552193 156.403896 
L 95.616356 156.403896 
L 95.829188 156.175583 
L 96.04202 156.175583 
L 96.254853 155.03402 
L 96.680518 155.03402 
L 96.89335 154.577395 
L 97.957513 154.577395 
L 98.170345 154.12077 
L 98.383177 152.750895 
L 98.59601 152.750895 
L 99.021675 151.381019 
L 99.44734 151.381019 
L 99.660172 151.152707 
L 100.085837 151.152707 
L 100.29867 150.239456 
L 100.724335 150.239456 
L 100.937167 149.782831 
L 101.575664 149.782831 
L 102.001329 149.326206 
L 103.491157 149.326206 
L 104.342486 148.412956 
L 104.555319 147.956331 
L 105.619481 147.956331 
L 105.832314 147.728018 
L 106.045146 147.728018 
L 106.257978 147.271393 
L 106.896476 147.271393 
L 107.109308 147.04308 
L 109.237633 147.04308 
L 109.450465 146.814768 
L 113.494282 146.814768 
L 113.707115 145.901518 
L 114.558444 145.901518 
L 114.771277 145.673205 
L 116.686769 145.673205 
L 117.112434 145.21658 
L 118.176596 145.21658 
L 118.389429 144.988267 
L 119.666423 144.988267 
L 119.879256 144.30333 
L 121.369083 144.30333 
L 121.581916 144.075017 
L 122.646078 144.075017 
L 123.071743 143.618392 
L 123.284575 143.618392 
L 123.497408 143.390079 
L 124.135905 143.390079 
L 124.56157 142.933454 
L 126.477062 142.933454 
L 126.689895 142.705142 
L 127.115559 142.705142 
L 127.328392 142.476829 
L 127.966889 142.476829 
L 128.179722 142.020204 
L 129.243884 142.020204 
L 129.669549 141.106954 
L 134.99036 141.106954 
L 135.203193 140.878641 
L 137.331518 140.878641 
L 137.54435 140.650328 
L 138.182847 140.650328 
L 138.39568 140.422016 
L 139.672675 140.422016 
L 139.885507 140.193703 
L 140.311172 140.193703 
L 140.524004 139.965391 
L 142.226664 139.965391 
L 142.439497 139.737078 
L 142.865161 139.737078 
L 143.077994 139.508766 
L 147.334643 139.508766 
L 147.547476 139.280453 
L 149.888633 139.280453 
L 150.101465 138.823828 
L 152.655455 138.823828 
L 152.868287 138.595515 
L 156.060774 138.595515 
L 156.273606 138.367203 
L 158.614763 138.367203 
L 158.827596 137.910578 
L 159.040428 137.910578 
L 159.253261 137.22564 
L 160.104591 137.22564 
L 160.317423 136.997327 
L 165.425402 136.997327 
L 165.638235 136.769015 
L 172.023208 136.769015 
L 172.236041 136.540702 
L 173.087371 136.540702 
L 173.300203 136.084077 
L 177.556852 136.084077 
L 177.769685 135.399139 
L 178.19535 135.399139 
L 178.408182 134.257576 
L 180.749339 134.257576 
L 180.962172 134.029264 
L 181.175004 132.659388 
L 184.154659 132.659388 
L 184.367491 132.202763 
L 190.113967 132.202763 
L 190.3268 130.604575 
L 193.093622 130.604575 
L 193.306454 130.376263 
L 197.350271 130.376263 
L 197.563104 130.14795 
L 198.414433 130.14795 
L 198.627266 129.691325 
L 199.052931 129.691325 
L 199.265763 129.463012 
L 199.478596 129.463012 
L 199.691428 129.2347 
L 200.329926 129.2347 
L 200.542758 129.006387 
L 200.75559 129.006387 
L 200.968423 128.32145 
L 205.437905 128.32145 
L 205.650737 128.093137 
L 215.228198 128.093137 
L 215.44103 127.408199 
L 219.697679 127.408199 
L 219.910512 127.179887 
L 229.27514 127.179887 
L 229.487972 126.266636 
L 232.041962 126.266636 
L 232.254794 125.810011 
L 232.680459 125.810011 
L 232.893292 125.581699 
L 235.021616 125.581699 
L 235.234449 125.125074 
L 235.660114 125.125074 
L 235.872946 124.896761 
L 236.511444 124.896761 
L 236.724276 124.668448 
L 238.001271 124.668448 
L 238.214103 124.440136 
L 240.55526 124.440136 
L 240.768093 124.211823 
L 242.470752 124.211823 
L 242.683585 123.755198 
L 244.173412 123.755198 
L 244.386245 123.526886 
L 245.450407 123.526886 
L 245.663239 123.298573 
L 247.791564 123.298573 
L 248.004396 123.07026 
L 248.217229 123.07026 
L 248.642894 122.613635 
L 249.281391 122.613635 
L 249.494224 122.385323 
L 256.09203 122.385323 
L 256.304862 122.15701 
L 257.369025 122.15701 
L 257.581857 121.928698 
L 258.007522 121.928698 
L 258.433187 121.24376 
L 258.858852 121.24376 
L 259.071684 121.015447 
L 266.946485 121.015447 
L 267.159318 120.33051 
L 272.692962 120.33051 
L 272.905794 120.102197 
L 273.118627 119.417259 
L 278.013773 119.417259 
L 278.226606 119.188947 
L 278.652271 119.188947 
L 278.865103 118.960634 
L 283.547417 118.960634 
L 283.76025 118.504009 
L 292.060716 118.504009 
L 292.273548 118.275696 
L 295.678867 118.275696 
L 295.8917 118.047384 
L 304.404998 118.047384 
L 304.617831 117.819071 
L 308.02315 117.819071 
L 308.235982 117.590759 
L 311.641302 117.590759 
L 312.066967 117.134134 
L 313.343961 117.134134 
L 313.556794 116.905821 
L 316.323616 116.905821 
L 316.536448 116.677508 
L 349.52548 116.677508 
L 349.738312 116.449196 
L 352.717966 116.449196 
L 352.930799 116.220883 
L 363.359589 116.220883 
L 363.572422 115.07932 
L 366.552076 115.07932 
L 366.764909 114.851008 
L 367.403406 114.851008 
L 367.616239 114.622695 
L 368.893233 114.622695 
L 369.106066 114.394383 
L 370.383061 114.394383 
L 370.595893 114.16607 
L 375.916705 114.16607 
L 375.916705 114.16607 
" clip-path="url(#p6d67380217)" style="fill: none; stroke: #b9db57; stroke-width: 1.2; stroke-linecap: round"/>
   </g>
   <g id="line2d_40">
    <path d="M 69.650795 482.662559 
L 70.07646 430.378981 
L 70.289293 414.168788 
L 70.714958 410.059162 
L 70.92779 409.602537 
L 71.140623 408.004349 
L 71.77912 406.862786 
L 72.204785 376.040589 
L 72.63045 277.181246 
L 73.056115 277.181246 
L 73.268947 276.724621 
L 73.907445 273.071619 
L 74.758774 269.418618 
L 74.971607 257.318052 
L 75.184439 223.527792 
L 75.397272 223.299479 
L 76.035769 221.016353 
L 76.461434 220.331416 
L 76.674267 220.331416 
L 76.887099 206.404349 
L 77.099932 205.491099 
L 77.312764 203.436285 
L 77.525596 203.436285 
L 77.738429 203.207973 
L 78.376926 203.207973 
L 78.589759 192.020657 
L 78.802591 190.879094 
L 79.015424 190.650781 
L 79.228256 190.650781 
L 79.441089 190.194156 
L 80.079586 190.194156 
L 80.505251 189.737531 
L 80.718083 178.550215 
L 81.143748 175.810464 
L 81.782246 175.810464 
L 81.995078 173.983964 
L 82.207911 173.983964 
L 82.420743 173.755651 
L 83.05924 173.755651 
L 83.272073 168.276149 
L 83.697738 165.536399 
L 84.549068 165.536399 
L 85.187565 164.851461 
L 85.400397 164.851461 
L 85.61323 164.623148 
L 85.826062 164.623148 
L 86.038895 160.28521 
L 86.251727 160.28521 
L 86.46456 159.371959 
L 88.167219 159.371959 
L 88.380052 159.143647 
L 88.592884 156.403896 
L 89.657047 156.403896 
L 89.869879 156.175583 
L 90.082712 156.175583 
L 90.295544 154.12077 
L 90.721209 153.664145 
L 90.934041 152.979207 
L 92.423869 152.979207 
L 92.636701 150.467769 
L 92.849534 150.467769 
L 93.700863 148.869581 
L 93.913696 148.869581 
L 94.126528 148.641268 
L 94.552193 144.531642 
L 94.765026 144.531642 
L 95.190691 144.075017 
L 95.403523 143.618392 
L 96.254853 143.618392 
L 96.89335 142.476829 
L 97.106183 142.248516 
L 97.319015 142.248516 
L 97.531848 142.020204 
L 98.170345 142.020204 
L 98.383177 139.737078 
L 99.021675 139.737078 
L 99.234507 139.508766 
L 99.44734 137.453952 
L 100.085837 137.453952 
L 100.724335 136.31239 
L 100.937167 136.084077 
L 101.362832 136.084077 
L 101.575664 135.627452 
L 101.788497 135.627452 
L 102.001329 135.399139 
L 102.852659 135.399139 
L 103.065492 134.942514 
L 103.703989 134.942514 
L 103.916821 134.714202 
L 104.555319 134.714202 
L 104.768151 134.257576 
L 106.896476 134.257576 
L 107.109308 134.029264 
L 107.322141 133.572639 
L 107.534973 133.572639 
L 107.747806 133.116014 
L 107.960638 133.116014 
L 108.173471 132.887701 
L 109.237633 132.887701 
L 109.450465 132.431076 
L 110.72746 132.431076 
L 110.940293 131.974451 
L 112.004455 131.974451 
L 112.217287 131.746138 
L 112.43012 131.746138 
L 112.642952 131.517826 
L 114.558444 131.517826 
L 114.771277 131.289513 
L 118.176596 131.289513 
L 118.389429 130.604575 
L 118.815094 130.604575 
L 119.027926 130.376263 
L 122.646078 130.376263 
L 123.071743 129.919638 
L 123.71024 129.919638 
L 123.923073 129.691325 
L 129.031052 129.691325 
L 129.243884 129.2347 
L 129.882381 129.2347 
L 130.095214 128.778075 
L 133.926198 128.778075 
L 134.139031 128.549762 
L 137.757182 128.549762 
L 137.970015 128.32145 
L 139.672675 128.32145 
L 139.885507 128.093137 
L 140.311172 128.093137 
L 140.524004 127.864824 
L 142.226664 127.864824 
L 142.652329 127.408199 
L 149.888633 127.408199 
L 150.314298 126.951574 
L 152.868287 126.951574 
L 153.08112 126.494949 
L 158.827596 126.494949 
L 159.040428 126.266636 
L 159.466093 126.266636 
L 159.678926 125.810011 
L 159.891758 125.810011 
L 160.104591 125.581699 
L 161.594418 125.581699 
L 161.80725 125.353386 
L 166.0639 125.353386 
L 166.276732 125.125074 
L 168.830722 125.125074 
L 169.043554 124.896761 
L 172.448873 124.896761 
L 172.661706 124.668448 
L 173.087371 124.668448 
L 173.300203 124.440136 
L 173.725868 124.440136 
L 173.938701 124.211823 
L 177.769685 124.211823 
L 177.982517 123.526886 
L 178.19535 123.526886 
L 178.408182 122.385323 
L 178.833847 122.385323 
L 179.04668 122.15701 
L 179.472345 122.15701 
L 179.685177 121.700385 
L 180.110842 121.700385 
L 180.323674 121.472072 
L 180.536507 121.472072 
L 180.749339 121.24376 
L 180.962172 121.24376 
L 181.175004 121.015447 
L 184.154659 121.015447 
L 184.367491 120.787135 
L 185.005988 120.787135 
L 185.218821 120.558822 
L 186.070151 120.558822 
L 186.282983 120.33051 
L 187.77281 120.33051 
L 187.985643 120.102197 
L 190.113967 120.102197 
L 190.3268 118.960634 
L 193.519287 118.960634 
L 193.732119 118.732322 
L 197.563104 118.732322 
L 197.775936 118.504009 
L 198.201601 118.504009 
L 198.414433 118.047384 
L 199.478596 118.047384 
L 199.691428 117.819071 
L 200.117093 117.819071 
L 200.329926 117.590759 
L 205.863569 117.590759 
L 206.076402 117.362446 
L 211.610046 117.362446 
L 211.822878 117.134134 
L 214.164035 117.134134 
L 214.376868 116.677508 
L 220.336177 116.677508 
L 220.761842 116.220883 
L 225.656988 116.220883 
L 225.869821 115.992571 
L 229.062308 115.992571 
L 229.27514 115.764258 
L 232.893292 115.764258 
L 233.106124 115.307633 
L 233.531789 115.307633 
L 233.744622 115.07932 
L 235.234449 115.07932 
L 235.447281 114.851008 
L 236.937109 114.851008 
L 237.149941 114.622695 
L 238.001271 114.622695 
L 238.214103 114.394383 
L 241.832255 114.394383 
L 242.045088 114.16607 
L 242.470752 114.16607 
L 242.683585 113.937758 
L 243.747747 113.937758 
L 243.96058 113.709445 
L 246.301737 113.709445 
L 246.514569 113.481133 
L 247.578732 113.481133 
L 247.791564 113.25282 
L 248.004396 113.25282 
L 248.217229 113.024507 
L 256.09203 113.024507 
L 256.304862 112.796195 
L 259.284517 112.796195 
L 259.497349 112.567882 
L 259.710182 112.567882 
L 259.923014 112.33957 
L 266.095155 112.33957 
L 266.52082 111.882945 
L 266.733653 111.882945 
L 266.946485 111.654632 
L 272.692962 111.654632 
L 272.905794 111.426319 
L 274.182789 111.426319 
L 274.395621 111.198007 
L 278.013773 111.198007 
L 278.226606 110.969694 
L 288.442564 110.969694 
L 288.655396 110.741382 
L 292.48638 110.741382 
L 292.699213 110.513069 
L 293.976208 110.513069 
L 294.18904 110.284757 
L 296.74303 110.284757 
L 296.955862 109.828131 
L 302.489506 109.828131 
L 302.702339 109.599819 
L 304.404998 109.599819 
L 304.617831 109.371506 
L 308.448815 109.371506 
L 308.661647 109.143194 
L 313.769626 109.143194 
L 313.982459 108.914881 
L 353.143631 108.914881 
L 353.356464 108.458256 
L 361.231265 108.458256 
L 361.444097 108.229943 
L 362.082595 108.229943 
L 362.295427 107.545006 
L 367.829071 107.545006 
L 368.041904 107.316693 
L 368.893233 107.316693 
L 369.106066 107.088381 
L 370.595893 107.088381 
L 370.808726 106.860068 
L 375.916705 106.860068 
L 375.916705 106.860068 
" clip-path="url(#p6d67380217)" style="fill: none; stroke: #57db94; stroke-width: 1.2; stroke-linecap: round"/>
   </g>
   <g id="line2d_41">
    <path d="M 69.650795 477.525527 
L 70.07646 428.095855 
L 70.714958 350.697894 
L 70.92779 342.250328 
L 71.140623 322.158822 
L 71.353455 313.026319 
L 71.566288 296.587814 
L 71.77912 294.533001 
L 71.991953 286.085436 
L 72.204785 283.573998 
L 72.63045 273.071619 
L 72.843282 270.788494 
L 73.694612 249.783737 
L 73.907445 248.870487 
L 74.120277 245.674111 
L 74.33311 245.445798 
L 74.545942 238.139796 
L 74.758774 234.715108 
L 75.184439 224.441042 
L 75.610104 218.96154 
L 75.822937 217.819977 
L 76.248602 214.166976 
L 76.674267 211.883851 
L 76.887099 208.687475 
L 77.099932 208.230849 
L 77.312764 205.719411 
L 77.525596 201.838097 
L 77.738429 201.15316 
L 78.164094 198.413409 
L 78.589759 193.847157 
L 79.015424 192.477282 
L 79.228256 191.792344 
L 79.441089 190.650781 
L 79.653921 186.769468 
L 79.866754 186.08453 
L 80.505251 181.289966 
L 80.718083 180.833341 
L 81.569413 177.408652 
L 81.782246 176.952027 
L 82.420743 174.440589 
L 82.633575 174.212276 
L 83.05924 171.244213 
L 83.484905 169.417712 
L 83.697738 169.417712 
L 84.123403 167.591212 
L 84.549068 166.449649 
L 84.7619 166.221336 
L 85.400397 163.938211 
L 85.61323 163.709898 
L 86.251727 162.568335 
L 86.46456 162.568335 
L 86.677392 161.883398 
L 86.890225 160.513522 
L 87.103057 160.28521 
L 87.31589 159.828584 
L 87.954387 159.828584 
L 88.167219 159.600272 
L 88.380052 159.143647 
L 88.592884 158.230396 
L 88.805717 158.002084 
L 89.231382 156.860521 
L 89.444214 156.860521 
L 89.657047 156.175583 
L 89.869879 155.947271 
L 90.295544 155.262333 
L 90.508376 155.03402 
L 90.721209 155.03402 
L 91.359706 153.892458 
L 92.211036 153.892458 
L 92.423869 153.435832 
L 93.062366 150.924394 
L 93.275198 150.924394 
L 93.488031 149.097894 
L 93.913696 147.728018 
L 94.339361 147.271393 
L 94.765026 147.271393 
L 94.977858 147.04308 
L 95.190691 146.586455 
L 95.616356 146.586455 
L 95.829188 146.12983 
L 96.04202 146.12983 
L 96.254853 145.901518 
L 96.680518 145.21658 
L 96.89335 144.988267 
L 97.106183 144.531642 
L 97.319015 144.531642 
L 97.531848 144.30333 
L 97.74468 143.846704 
L 97.957513 143.846704 
L 98.808842 142.933454 
L 99.021675 142.248516 
L 99.234507 142.020204 
L 99.873005 142.020204 
L 100.29867 141.563579 
L 100.511502 141.563579 
L 100.724335 141.335266 
L 101.575664 141.335266 
L 101.788497 141.106954 
L 102.001329 141.106954 
L 102.426994 140.650328 
L 103.065492 140.650328 
L 103.278324 140.422016 
L 103.491157 140.422016 
L 103.703989 140.193703 
L 104.342486 140.193703 
L 104.555319 139.965391 
L 105.619481 139.965391 
L 105.832314 139.508766 
L 107.322141 139.508766 
L 107.534973 139.280453 
L 108.173471 139.280453 
L 108.386303 139.05214 
L 109.450465 139.05214 
L 109.663298 138.823828 
L 110.72746 138.823828 
L 110.940293 138.367203 
L 112.217287 138.367203 
L 112.642952 137.910578 
L 114.558444 137.910578 
L 114.771277 137.682265 
L 117.325266 137.682265 
L 117.538099 137.453952 
L 118.602261 137.453952 
L 119.027926 136.769015 
L 119.240758 136.540702 
L 119.879256 136.540702 
L 120.092088 136.31239 
L 120.517753 136.31239 
L 120.943418 135.855764 
L 121.369083 135.855764 
L 121.581916 135.627452 
L 122.433245 135.627452 
L 122.646078 135.399139 
L 122.85891 135.399139 
L 123.071743 135.170827 
L 123.497408 135.170827 
L 123.71024 134.714202 
L 127.966889 134.714202 
L 128.179722 134.257576 
L 129.456717 134.257576 
L 129.669549 134.029264 
L 132.223539 134.029264 
L 132.436371 133.800951 
L 134.139031 133.800951 
L 134.351863 133.572639 
L 134.99036 133.572639 
L 135.203193 133.344326 
L 140.09834 133.344326 
L 140.524004 132.887701 
L 142.013832 132.887701 
L 142.226664 132.659388 
L 150.952795 132.659388 
L 151.165627 132.202763 
L 152.655455 132.202763 
L 152.868287 131.746138 
L 159.466093 131.746138 
L 159.678926 131.517826 
L 159.891758 131.517826 
L 160.104591 131.289513 
L 172.023208 131.289513 
L 172.236041 131.0612 
L 173.087371 131.0612 
L 173.300203 130.832888 
L 173.513036 130.832888 
L 173.725868 130.376263 
L 176.705523 130.376263 
L 176.918355 130.14795 
L 177.34402 130.14795 
L 177.556852 129.463012 
L 177.769685 129.2347 
L 177.982517 128.093137 
L 178.19535 127.864824 
L 178.621015 127.864824 
L 179.259512 127.179887 
L 179.472345 127.179887 
L 179.685177 126.951574 
L 180.110842 126.951574 
L 180.323674 126.494949 
L 180.962172 126.494949 
L 181.175004 126.266636 
L 183.090496 126.266636 
L 183.303329 126.038324 
L 185.005988 126.038324 
L 185.218821 125.810011 
L 185.431653 125.810011 
L 185.644486 125.581699 
L 187.77281 125.581699 
L 187.985643 125.353386 
L 188.411308 125.353386 
L 188.62414 125.125074 
L 188.836973 125.125074 
L 189.262638 123.755198 
L 189.901135 123.755198 
L 190.113967 123.526886 
L 192.880789 123.526886 
L 193.093622 123.298573 
L 193.519287 123.298573 
L 193.732119 123.07026 
L 195.860444 123.07026 
L 196.073276 122.841948 
L 197.775936 122.841948 
L 197.988768 122.613635 
L 198.201601 122.613635 
L 198.414433 122.385323 
L 199.478596 122.385323 
L 199.691428 122.15701 
L 202.671083 122.15701 
L 202.883915 121.928698 
L 205.437905 121.928698 
L 205.650737 121.700385 
L 210.971549 121.700385 
L 211.184381 121.472072 
L 213.312706 121.472072 
L 213.525538 121.24376 
L 213.951203 121.24376 
L 214.164035 121.015447 
L 219.059182 121.015447 
L 219.272014 120.787135 
L 220.336177 120.787135 
L 220.549009 120.558822 
L 224.167161 120.558822 
L 224.379993 120.33051 
L 227.998145 120.33051 
L 228.210978 120.102197 
L 231.82913 120.102197 
L 232.254794 119.645572 
L 233.744622 119.645572 
L 233.957454 119.417259 
L 235.021616 119.417259 
L 235.234449 119.188947 
L 236.511444 119.188947 
L 236.724276 118.960634 
L 238.214103 118.960634 
L 238.426936 118.732322 
L 240.55526 118.732322 
L 240.768093 118.504009 
L 242.896417 118.504009 
L 243.10925 118.275696 
L 247.153067 118.275696 
L 247.365899 118.047384 
L 250.771218 118.047384 
L 250.984051 117.819071 
L 253.963705 117.819071 
L 254.176538 117.590759 
L 255.879197 117.590759 
L 256.09203 117.362446 
L 259.497349 117.362446 
L 259.710182 117.134134 
L 262.689836 117.134134 
L 262.902669 116.905821 
L 266.095155 116.905821 
L 266.307988 116.449196 
L 272.267297 116.449196 
L 272.480129 116.220883 
L 278.013773 116.220883 
L 278.226606 115.992571 
L 279.290768 115.992571 
L 279.5036 115.764258 
L 291.422218 115.764258 
L 291.635051 115.535946 
L 304.404998 115.535946 
L 304.617831 115.307633 
L 313.343961 115.307633 
L 313.556794 115.07932 
L 315.685119 115.07932 
L 315.897951 114.851008 
L 325.049747 114.851008 
L 325.262579 114.622695 
L 352.292302 114.622695 
L 352.505134 114.394383 
L 359.10294 114.394383 
L 359.315773 114.16607 
L 361.231265 114.16607 
L 361.444097 113.709445 
L 361.65693 113.709445 
L 361.869762 113.024507 
L 367.403406 113.024507 
L 367.616239 112.796195 
L 368.680401 112.796195 
L 368.893233 112.567882 
L 369.957396 112.567882 
L 370.170228 112.33957 
L 375.916705 112.33957 
L 375.916705 112.33957 
" clip-path="url(#p6d67380217)" style="fill: none; stroke: #5784db; stroke-width: 1.2; stroke-linecap: round"/>
   </g>
   <g id="line2d_42">
    <path d="M 69.650795 473.872525 
L 70.502125 348.414768 
L 70.714958 325.355198 
L 70.92779 318.734134 
L 71.353455 291.79325 
L 71.566288 281.747497 
L 72.417617 263.939117 
L 73.268947 248.642174 
L 73.694612 236.769921 
L 74.33311 227.637418 
L 74.971607 211.883851 
L 75.610104 203.436285 
L 76.461434 196.815221 
L 76.887099 192.477282 
L 77.099932 191.792344 
L 77.738429 184.486342 
L 77.951261 183.801404 
L 78.164094 181.974904 
L 78.589759 176.495402 
L 79.228256 174.668901 
L 79.441089 173.070713 
L 79.653921 168.732775 
L 80.079586 165.764711 
L 80.292418 163.02496 
L 80.930916 160.741835 
L 81.143748 159.371959 
L 81.569413 158.230396 
L 82.207911 156.175583 
L 82.420743 154.577395 
L 82.633575 154.12077 
L 83.484905 149.782831 
L 83.91057 149.326206 
L 84.336235 148.184643 
L 85.187565 144.759955 
L 86.251727 142.476829 
L 86.46456 142.476829 
L 86.890225 140.422016 
L 87.31589 139.965391 
L 87.741555 139.965391 
L 87.954387 139.737078 
L 88.167219 139.737078 
L 88.380052 139.280453 
L 88.592884 138.13889 
L 88.805717 137.910578 
L 89.657047 136.31239 
L 89.869879 136.084077 
L 90.082712 135.627452 
L 90.295544 135.627452 
L 90.721209 134.942514 
L 90.934041 134.714202 
L 91.146874 134.257576 
L 92.211036 134.257576 
L 92.423869 132.659388 
L 92.636701 132.431076 
L 92.849534 131.974451 
L 93.700863 128.778075 
L 94.126528 127.636512 
L 94.552193 127.636512 
L 94.765026 127.408199 
L 94.977858 126.951574 
L 95.616356 126.951574 
L 95.829188 126.494949 
L 96.04202 126.494949 
L 96.467685 125.810011 
L 96.680518 125.810011 
L 96.89335 125.581699 
L 97.106183 125.125074 
L 97.319015 125.125074 
L 97.531848 124.896761 
L 97.74468 124.440136 
L 97.957513 124.440136 
L 98.59601 123.07026 
L 98.808842 123.07026 
L 99.021675 122.385323 
L 99.234507 122.15701 
L 99.44734 122.15701 
L 99.660172 121.928698 
L 99.873005 121.928698 
L 100.085837 121.700385 
L 100.29867 121.015447 
L 100.511502 121.015447 
L 100.724335 120.787135 
L 101.575664 120.787135 
L 102.001329 120.33051 
L 102.214162 120.33051 
L 102.426994 120.102197 
L 103.065492 120.102197 
L 103.278324 119.873884 
L 103.491157 119.873884 
L 103.703989 119.645572 
L 103.916821 119.645572 
L 104.342486 119.188947 
L 105.619481 119.188947 
L 105.832314 118.732322 
L 106.896476 118.732322 
L 107.109308 118.504009 
L 107.960638 118.504009 
L 108.173471 118.275696 
L 109.237633 118.275696 
L 109.450465 117.819071 
L 110.72746 117.819071 
L 110.940293 117.362446 
L 111.791622 117.362446 
L 112.004455 117.134134 
L 112.217287 117.134134 
L 112.642952 116.677508 
L 114.558444 116.677508 
L 114.771277 115.992571 
L 117.963764 115.992571 
L 118.176596 115.764258 
L 118.389429 115.07932 
L 118.815094 115.07932 
L 119.027926 114.851008 
L 119.879256 114.851008 
L 120.092088 114.622695 
L 120.730586 114.622695 
L 120.943418 114.394383 
L 121.156251 114.394383 
L 121.369083 114.16607 
L 122.433245 114.16607 
L 122.85891 113.709445 
L 123.497408 113.709445 
L 123.71024 113.481133 
L 127.541224 113.481133 
L 127.966889 113.024507 
L 129.243884 113.024507 
L 129.456717 112.796195 
L 129.669549 112.33957 
L 132.223539 112.33957 
L 132.436371 112.111257 
L 133.713366 112.111257 
L 133.926198 111.882945 
L 134.99036 111.882945 
L 135.203193 111.654632 
L 137.757182 111.654632 
L 137.970015 111.426319 
L 139.672675 111.426319 
L 139.885507 111.198007 
L 140.311172 111.198007 
L 140.524004 110.969694 
L 142.013832 110.969694 
L 142.439497 110.513069 
L 149.888633 110.513069 
L 150.101465 110.056444 
L 152.655455 110.056444 
L 152.868287 109.599819 
L 158.614763 109.599819 
L 158.827596 109.371506 
L 159.040428 109.371506 
L 159.253261 108.914881 
L 159.891758 108.914881 
L 160.104591 108.686569 
L 165.425402 108.686569 
L 165.638235 108.458256 
L 172.023208 108.458256 
L 172.236041 108.229943 
L 173.087371 108.229943 
L 173.300203 107.773318 
L 176.705523 107.773318 
L 176.918355 107.545006 
L 177.34402 107.545006 
L 177.556852 106.860068 
L 177.769685 106.631755 
L 177.982517 105.490193 
L 178.19535 105.26188 
L 178.621015 105.26188 
L 179.259512 104.576942 
L 179.472345 104.576942 
L 179.685177 104.34863 
L 180.110842 104.34863 
L 180.323674 103.892005 
L 180.749339 103.892005 
L 180.962172 103.663692 
L 183.090496 103.663692 
L 183.303329 103.435379 
L 184.154659 103.435379 
L 184.367491 103.207067 
L 185.431653 103.207067 
L 185.644486 102.978754 
L 187.77281 102.978754 
L 187.985643 102.750442 
L 188.411308 102.750442 
L 188.62414 102.522129 
L 188.836973 102.522129 
L 189.262638 101.152254 
L 192.880789 101.152254 
L 193.093622 100.923941 
L 197.350271 100.923941 
L 197.563104 100.695629 
L 197.775936 100.695629 
L 197.988768 100.467316 
L 198.201601 100.467316 
L 198.414433 100.239003 
L 199.478596 100.239003 
L 199.691428 99.782378 
L 202.671083 99.782378 
L 202.883915 99.554066 
L 205.437905 99.554066 
L 205.650737 99.325753 
L 210.971549 99.325753 
L 211.184381 99.097441 
L 213.312706 99.097441 
L 213.525538 98.869128 
L 213.951203 98.869128 
L 214.164035 98.640815 
L 220.336177 98.640815 
L 220.761842 98.18419 
L 224.167161 98.18419 
L 224.379993 97.955878 
L 227.998145 97.955878 
L 228.210978 97.727565 
L 229.062308 97.727565 
L 229.27514 97.499253 
L 231.82913 97.499253 
L 232.254794 97.042627 
L 233.531789 97.042627 
L 233.744622 96.814315 
L 235.021616 96.814315 
L 235.234449 96.586002 
L 236.511444 96.586002 
L 236.724276 96.35769 
L 238.001271 96.35769 
L 238.214103 96.129377 
L 240.55526 96.129377 
L 240.768093 95.901065 
L 242.470752 95.901065 
L 242.683585 95.672752 
L 243.747747 95.672752 
L 243.96058 95.444439 
L 247.153067 95.444439 
L 247.365899 95.216127 
L 247.578732 95.216127 
L 247.791564 94.987814 
L 253.963705 94.987814 
L 254.176538 94.759502 
L 255.879197 94.759502 
L 256.09203 94.531189 
L 258.858852 94.531189 
L 259.071684 94.302877 
L 259.497349 94.302877 
L 259.710182 94.074564 
L 266.095155 94.074564 
L 266.307988 93.617939 
L 272.267297 93.617939 
L 272.480129 93.389626 
L 272.905794 93.389626 
L 273.118627 93.161314 
L 278.013773 93.161314 
L 278.226606 92.933001 
L 291.422218 92.933001 
L 291.635051 92.704689 
L 293.976208 92.704689 
L 294.18904 92.476376 
L 304.404998 92.476376 
L 304.617831 92.248063 
L 308.02315 92.248063 
L 308.235982 92.019751 
L 313.343961 92.019751 
L 313.556794 91.791438 
L 325.049747 91.791438 
L 325.262579 91.563126 
L 352.292302 91.563126 
L 352.505134 91.334813 
L 352.717966 91.334813 
L 352.930799 91.106501 
L 359.10294 91.106501 
L 359.315773 90.878188 
L 361.231265 90.878188 
L 361.444097 90.649875 
L 361.65693 90.649875 
L 361.869762 89.964938 
L 367.403406 89.964938 
L 367.616239 89.736625 
L 368.680401 89.736625 
L 368.893233 89.508313 
L 369.957396 89.508313 
L 370.170228 89.28 
L 375.916705 89.28 
L 375.916705 89.28 
" clip-path="url(#p6d67380217)" style="fill: none; stroke: #c957db; stroke-width: 1.2; stroke-linecap: round"/>
   </g>
   <g id="line2d_43"/>
   <g id="line2d_44"/>
   <g id="line2d_45"/>
   <g id="line2d_46"/>
   <g id="line2d_47"/>
   <g id="patch_3">
    <path d="M 54.3375 512.64 
L 54.3375 69.12 
" style="fill: none; stroke: #cccccc; stroke-linejoin: miter; stroke-linecap: square"/>
   </g>
   <g id="patch_4">
    <path d="M 54.3375 512.64 
L 391.23 512.64 
" style="fill: none; stroke: #cccccc; stroke-linejoin: miter; stroke-linecap: square"/>
   </g>
   <g id="text_40">
    <!-- Edge Coverage History -->
    <g style="fill: #262626" transform="translate(115.892262 63.12)scale(0.165888 -0.165888)">
     <defs>
      <path id="DejaVuSans-Bold-45" d="M 588 4666 
L 3834 4666 
L 3834 3756 
L 1791 3756 
L 1791 2888 
L 3713 2888 
L 3713 1978 
L 1791 1978 
L 1791 909 
L 3903 909 
L 3903 0 
L 588 0 
L 588 4666 
z
" transform="scale(0.015625)"/>
      <path id="DejaVuSans-Bold-64" d="M 2919 2988 
L 2919 4863 
L 4044 4863 
L 4044 0 
L 2919 0 
L 2919 506 
Q 2688 197 2409 53 
Q 2131 -91 1766 -91 
Q 1119 -91 703 423 
Q 288 938 288 1747 
Q 288 2556 703 3070 
Q 1119 3584 1766 3584 
Q 2128 3584 2408 3439 
Q 2688 3294 2919 2988 
z
M 2181 722 
Q 2541 722 2730 984 
Q 2919 1247 2919 1747 
Q 2919 2247 2730 2509 
Q 2541 2772 2181 2772 
Q 1825 2772 1636 2509 
Q 1447 2247 1447 1747 
Q 1447 1247 1636 984 
Q 1825 722 2181 722 
z
" transform="scale(0.015625)"/>
      <path id="DejaVuSans-Bold-67" d="M 2919 594 
Q 2688 288 2409 144 
Q 2131 0 1766 0 
Q 1125 0 706 504 
Q 288 1009 288 1791 
Q 288 2575 706 3076 
Q 1125 3578 1766 3578 
Q 2131 3578 2409 3434 
Q 2688 3291 2919 2981 
L 2919 3500 
L 4044 3500 
L 4044 353 
Q 4044 -491 3511 -936 
Q 2978 -1381 1966 -1381 
Q 1638 -1381 1331 -1331 
Q 1025 -1281 716 -1178 
L 716 -306 
Q 1009 -475 1290 -558 
Q 1572 -641 1856 -641 
Q 2406 -641 2662 -400 
Q 2919 -159 2919 353 
L 2919 594 
z
M 2181 2772 
Q 1834 2772 1640 2515 
Q 1447 2259 1447 1791 
Q 1447 1309 1634 1061 
Q 1822 813 2181 813 
Q 2531 813 2725 1069 
Q 2919 1325 2919 1791 
Q 2919 2259 2725 2515 
Q 2531 2772 2181 2772 
z
" transform="scale(0.015625)"/>
      <path id="DejaVuSans-Bold-65" d="M 4031 1759 
L 4031 1441 
L 1416 1441 
Q 1456 1047 1700 850 
Q 1944 653 2381 653 
Q 2734 653 3104 758 
Q 3475 863 3866 1075 
L 3866 213 
Q 3469 63 3072 -14 
Q 2675 -91 2278 -91 
Q 1328 -91 801 392 
Q 275 875 275 1747 
Q 275 2603 792 3093 
Q 1309 3584 2216 3584 
Q 3041 3584 3536 3087 
Q 4031 2591 4031 1759 
z
M 2881 2131 
Q 2881 2450 2695 2645 
Q 2509 2841 2209 2841 
Q 1884 2841 1681 2658 
Q 1478 2475 1428 2131 
L 2881 2131 
z
" transform="scale(0.015625)"/>
      <path id="DejaVuSans-Bold-20" transform="scale(0.015625)"/>
      <path id="DejaVuSans-Bold-43" d="M 4288 256 
Q 3956 84 3597 -3 
Q 3238 -91 2847 -91 
Q 1681 -91 1000 561 
Q 319 1213 319 2328 
Q 319 3447 1000 4098 
Q 1681 4750 2847 4750 
Q 3238 4750 3597 4662 
Q 3956 4575 4288 4403 
L 4288 3438 
Q 3953 3666 3628 3772 
Q 3303 3878 2944 3878 
Q 2300 3878 1931 3465 
Q 1563 3053 1563 2328 
Q 1563 1606 1931 1193 
Q 2300 781 2944 781 
Q 3303 781 3628 887 
Q 3953 994 4288 1222 
L 4288 256 
z
" transform="scale(0.015625)"/>
      <path id="DejaVuSans-Bold-6f" d="M 2203 2784 
Q 1831 2784 1636 2517 
Q 1441 2250 1441 1747 
Q 1441 1244 1636 976 
Q 1831 709 2203 709 
Q 2569 709 2762 976 
Q 2956 1244 2956 1747 
Q 2956 2250 2762 2517 
Q 2569 2784 2203 2784 
z
M 2203 3584 
Q 3106 3584 3614 3096 
Q 4122 2609 4122 1747 
Q 4122 884 3614 396 
Q 3106 -91 2203 -91 
Q 1297 -91 786 396 
Q 275 884 275 1747 
Q 275 2609 786 3096 
Q 1297 3584 2203 3584 
z
" transform="scale(0.015625)"/>
      <path id="DejaVuSans-Bold-76" d="M 97 3500 
L 1216 3500 
L 2088 1081 
L 2956 3500 
L 4078 3500 
L 2700 0 
L 1472 0 
L 97 3500 
z
" transform="scale(0.015625)"/>
      <path id="DejaVuSans-Bold-72" d="M 3138 2547 
Q 2991 2616 2845 2648 
Q 2700 2681 2553 2681 
Q 2122 2681 1889 2404 
Q 1656 2128 1656 1613 
L 1656 0 
L 538 0 
L 538 3500 
L 1656 3500 
L 1656 2925 
Q 1872 3269 2151 3426 
Q 2431 3584 2822 3584 
Q 2878 3584 2943 3579 
Q 3009 3575 3134 3559 
L 3138 2547 
z
" transform="scale(0.015625)"/>
      <path id="DejaVuSans-Bold-61" d="M 2106 1575 
Q 1756 1575 1579 1456 
Q 1403 1338 1403 1106 
Q 1403 894 1545 773 
Q 1688 653 1941 653 
Q 2256 653 2472 879 
Q 2688 1106 2688 1447 
L 2688 1575 
L 2106 1575 
z
M 3816 1997 
L 3816 0 
L 2688 0 
L 2688 519 
Q 2463 200 2181 54 
Q 1900 -91 1497 -91 
Q 953 -91 614 226 
Q 275 544 275 1050 
Q 275 1666 698 1953 
Q 1122 2241 2028 2241 
L 2688 2241 
L 2688 2328 
Q 2688 2594 2478 2717 
Q 2269 2841 1825 2841 
Q 1466 2841 1156 2769 
Q 847 2697 581 2553 
L 581 3406 
Q 941 3494 1303 3539 
Q 1666 3584 2028 3584 
Q 2975 3584 3395 3211 
Q 3816 2838 3816 1997 
z
" transform="scale(0.015625)"/>
      <path id="DejaVuSans-Bold-48" d="M 588 4666 
L 1791 4666 
L 1791 2888 
L 3566 2888 
L 3566 4666 
L 4769 4666 
L 4769 0 
L 3566 0 
L 3566 1978 
L 1791 1978 
L 1791 0 
L 588 0 
L 588 4666 
z
" transform="scale(0.015625)"/>
      <path id="DejaVuSans-Bold-69" d="M 538 3500 
L 1656 3500 
L 1656 0 
L 538 0 
L 538 3500 
z
M 538 4863 
L 1656 4863 
L 1656 3950 
L 538 3950 
L 538 4863 
z
" transform="scale(0.015625)"/>
      <path id="DejaVuSans-Bold-73" d="M 3272 3391 
L 3272 2541 
Q 2913 2691 2578 2766 
Q 2244 2841 1947 2841 
Q 1628 2841 1473 2761 
Q 1319 2681 1319 2516 
Q 1319 2381 1436 2309 
Q 1553 2238 1856 2203 
L 2053 2175 
Q 2913 2066 3209 1816 
Q 3506 1566 3506 1031 
Q 3506 472 3093 190 
Q 2681 -91 1863 -91 
Q 1516 -91 1145 -36 
Q 775 19 384 128 
L 384 978 
Q 719 816 1070 734 
Q 1422 653 1784 653 
Q 2113 653 2278 743 
Q 2444 834 2444 1013 
Q 2444 1163 2330 1236 
Q 2216 1309 1875 1350 
L 1678 1375 
Q 931 1469 631 1722 
Q 331 1975 331 2491 
Q 331 3047 712 3315 
Q 1094 3584 1881 3584 
Q 2191 3584 2531 3537 
Q 2872 3491 3272 3391 
z
" transform="scale(0.015625)"/>
      <path id="DejaVuSans-Bold-74" d="M 1759 4494 
L 1759 3500 
L 2913 3500 
L 2913 2700 
L 1759 2700 
L 1759 1216 
Q 1759 972 1856 886 
Q 1953 800 2241 800 
L 2816 800 
L 2816 0 
L 1856 0 
Q 1194 0 917 276 
Q 641 553 641 1216 
L 641 2700 
L 84 2700 
L 84 3500 
L 641 3500 
L 641 4494 
L 1759 4494 
z
" transform="scale(0.015625)"/>
      <path id="DejaVuSans-Bold-79" d="M 78 3500 
L 1197 3500 
L 2138 1125 
L 2938 3500 
L 4056 3500 
L 2584 -331 
Q 2363 -916 2067 -1148 
Q 1772 -1381 1288 -1381 
L 641 -1381 
L 641 -647 
L 991 -647 
Q 1275 -647 1404 -556 
Q 1534 -466 1606 -231 
L 1638 -134 
L 78 3500 
z
" transform="scale(0.015625)"/>
     </defs>
     <use xlink:href="#DejaVuSans-Bold-45"/>
     <use xlink:href="#DejaVuSans-Bold-64" x="68.310547"/>
     <use xlink:href="#DejaVuSans-Bold-67" x="139.892578"/>
     <use xlink:href="#DejaVuSans-Bold-65" x="211.474609"/>
     <use xlink:href="#DejaVuSans-Bold-20" x="279.296875"/>
     <use xlink:href="#DejaVuSans-Bold-43" x="314.111328"/>
     <use xlink:href="#DejaVuSans-Bold-6f" x="387.5"/>
     <use xlink:href="#DejaVuSans-Bold-76" x="456.201172"/>
     <use xlink:href="#DejaVuSans-Bold-65" x="521.386719"/>
     <use xlink:href="#DejaVuSans-Bold-72" x="589.208984"/>
     <use xlink:href="#DejaVuSans-Bold-61" x="638.525391"/>
     <use xlink:href="#DejaVuSans-Bold-67" x="706.005859"/>
     <use xlink:href="#DejaVuSans-Bold-65" x="777.587891"/>
     <use xlink:href="#DejaVuSans-Bold-20" x="845.410156"/>
     <use xlink:href="#DejaVuSans-Bold-48" x="880.224609"/>
     <use xlink:href="#DejaVuSans-Bold-69" x="963.916016"/>
     <use xlink:href="#DejaVuSans-Bold-73" x="998.193359"/>
     <use xlink:href="#DejaVuSans-Bold-74" x="1057.714844"/>
     <use xlink:href="#DejaVuSans-Bold-6f" x="1105.517578"/>
     <use xlink:href="#DejaVuSans-Bold-72" x="1174.21875"/>
     <use xlink:href="#DejaVuSans-Bold-79" x="1223.535156"/>
    </g>
   </g>
   <g id="legend_1">
    <g id="patch_5">
     <path d="M 267.942 508.24 
L 385.07 508.24 
Q 386.83 508.24 386.83 506.48 
L 386.83 428.8405 
Q 386.83 427.0805 385.07 427.0805 
L 267.942 427.0805 
Q 266.182 427.0805 266.182 428.8405 
L 266.182 506.48 
Q 266.182 508.24 267.942 508.24 
z
" style="fill: #ffffff; opacity: 0.8; stroke: #cccccc; stroke-width: 0.8; stroke-linejoin: miter"/>
    </g>
    <g id="text_41">
     <!-- fuzzer -->
     <g style="fill: #262626" transform="translate(311.809 437.895)scale(0.096 -0.096)">
      <defs>
       <path id="DejaVuSans-66" d="M 2375 4863 
L 2375 4384 
L 1825 4384 
Q 1516 4384 1395 4259 
Q 1275 4134 1275 3809 
L 1275 3500 
L 2222 3500 
L 2222 3053 
L 1275 3053 
L 1275 0 
L 697 0 
L 697 3053 
L 147 3053 
L 147 3500 
L 697 3500 
L 697 3744 
Q 697 4328 969 4595 
Q 1241 4863 1831 4863 
L 2375 4863 
z
" transform="scale(0.015625)"/>
       <path id="DejaVuSans-7a" d="M 353 3500 
L 3084 3500 
L 3084 2975 
L 922 459 
L 3084 459 
L 3084 0 
L 275 0 
L 275 525 
L 2438 3041 
L 353 3041 
L 353 3500 
z
" transform="scale(0.015625)"/>
      </defs>
      <use xlink:href="#DejaVuSans-66"/>
      <use xlink:href="#DejaVuSans-75" x="35.205078"/>
      <use xlink:href="#DejaVuSans-7a" x="98.583984"/>
      <use xlink:href="#DejaVuSans-7a" x="151.074219"/>
      <use xlink:href="#DejaVuSans-65" x="203.564453"/>
      <use xlink:href="#DejaVuSans-72" x="265.087891"/>
     </g>
    </g>
    <g id="line2d_48">
     <path d="M 269.702 447.898125 
L 278.502 447.898125 
L 287.302 447.898125 
" style="fill: none; stroke: #db5f57; stroke-width: 1.2; stroke-linecap: round"/>
    </g>
    <g id="text_42">
     <!-- fairfuzz-0-exid23 -->
     <g style="fill: #262626" transform="translate(294.342 450.978125)scale(0.088 -0.088)">
      <defs>
       <path id="DejaVuSans-2d" d="M 313 2009 
L 1997 2009 
L 1997 1497 
L 313 1497 
L 313 2009 
z
" transform="scale(0.015625)"/>
       <path id="DejaVuSans-78" d="M 3513 3500 
L 2247 1797 
L 3578 0 
L 2900 0 
L 1881 1375 
L 863 0 
L 184 0 
L 1544 1831 
L 300 3500 
L 978 3500 
L 1906 2253 
L 2834 3500 
L 3513 3500 
z
" transform="scale(0.015625)"/>
      </defs>
      <use xlink:href="#DejaVuSans-66"/>
      <use xlink:href="#DejaVuSans-61" x="35.205078"/>
      <use xlink:href="#DejaVuSans-69" x="96.484375"/>
      <use xlink:href="#DejaVuSans-72" x="124.267578"/>
      <use xlink:href="#DejaVuSans-66" x="165.380859"/>
      <use xlink:href="#DejaVuSans-75" x="200.585938"/>
      <use xlink:href="#DejaVuSans-7a" x="263.964844"/>
      <use xlink:href="#DejaVuSans-7a" x="316.455078"/>
      <use xlink:href="#DejaVuSans-2d" x="368.945312"/>
      <use xlink:href="#DejaVuSans-30" x="405.029297"/>
      <use xlink:href="#DejaVuSans-2d" x="468.652344"/>
      <use xlink:href="#DejaVuSans-65" x="504.736328"/>
      <use xlink:href="#DejaVuSans-78" x="564.509766"/>
      <use xlink:href="#DejaVuSans-69" x="623.689453"/>
      <use xlink:href="#DejaVuSans-64" x="651.472656"/>
      <use xlink:href="#DejaVuSans-32" x="714.949219"/>
      <use xlink:href="#DejaVuSans-33" x="778.572266"/>
     </g>
    </g>
    <g id="line2d_49">
     <path d="M 269.702 460.814875 
L 278.502 460.814875 
L 287.302 460.814875 
" style="fill: none; stroke: #b9db57; stroke-width: 1.2; stroke-linecap: round"/>
    </g>
    <g id="text_43">
     <!-- aflfast-0-exid23 -->
     <g style="fill: #262626" transform="translate(294.342 463.894875)scale(0.088 -0.088)">
      <defs>
       <path id="DejaVuSans-6c" d="M 603 4863 
L 1178 4863 
L 1178 0 
L 603 0 
L 603 4863 
z
" transform="scale(0.015625)"/>
      </defs>
      <use xlink:href="#DejaVuSans-61"/>
      <use xlink:href="#DejaVuSans-66" x="61.279297"/>
      <use xlink:href="#DejaVuSans-6c" x="96.484375"/>
      <use xlink:href="#DejaVuSans-66" x="124.267578"/>
      <use xlink:href="#DejaVuSans-61" x="159.472656"/>
      <use xlink:href="#DejaVuSans-73" x="220.751953"/>
      <use xlink:href="#DejaVuSans-74" x="272.851562"/>
      <use xlink:href="#DejaVuSans-2d" x="312.060547"/>
      <use xlink:href="#DejaVuSans-30" x="348.144531"/>
      <use xlink:href="#DejaVuSans-2d" x="411.767578"/>
      <use xlink:href="#DejaVuSans-65" x="447.851562"/>
      <use xlink:href="#DejaVuSans-78" x="507.625"/>
      <use xlink:href="#DejaVuSans-69" x="566.804688"/>
      <use xlink:href="#DejaVuSans-64" x="594.587891"/>
      <use xlink:href="#DejaVuSans-32" x="658.064453"/>
      <use xlink:href="#DejaVuSans-33" x="721.6875"/>
     </g>
    </g>
    <g id="line2d_50">
     <path d="M 269.702 473.731625 
L 278.502 473.731625 
L 287.302 473.731625 
" style="fill: none; stroke: #57db94; stroke-width: 1.2; stroke-linecap: round"/>
    </g>
    <g id="text_44">
     <!-- aflplusplus-0-exid23 -->
     <g style="fill: #262626" transform="translate(294.342 476.811625)scale(0.088 -0.088)">
      <defs>
       <path id="DejaVuSans-70" d="M 1159 525 
L 1159 -1331 
L 581 -1331 
L 581 3500 
L 1159 3500 
L 1159 2969 
Q 1341 3281 1617 3432 
Q 1894 3584 2278 3584 
Q 2916 3584 3314 3078 
Q 3713 2572 3713 1747 
Q 3713 922 3314 415 
Q 2916 -91 2278 -91 
Q 1894 -91 1617 61 
Q 1341 213 1159 525 
z
M 3116 1747 
Q 3116 2381 2855 2742 
Q 2594 3103 2138 3103 
Q 1681 3103 1420 2742 
Q 1159 2381 1159 1747 
Q 1159 1113 1420 752 
Q 1681 391 2138 391 
Q 2594 391 2855 752 
Q 3116 1113 3116 1747 
z
" transform="scale(0.015625)"/>
      </defs>
      <use xlink:href="#DejaVuSans-61"/>
      <use xlink:href="#DejaVuSans-66" x="61.279297"/>
      <use xlink:href="#DejaVuSans-6c" x="96.484375"/>
      <use xlink:href="#DejaVuSans-70" x="124.267578"/>
      <use xlink:href="#DejaVuSans-6c" x="187.744141"/>
      <use xlink:href="#DejaVuSans-75" x="215.527344"/>
      <use xlink:href="#DejaVuSans-73" x="278.90625"/>
      <use xlink:href="#DejaVuSans-70" x="331.005859"/>
      <use xlink:href="#DejaVuSans-6c" x="394.482422"/>
      <use xlink:href="#DejaVuSans-75" x="422.265625"/>
      <use xlink:href="#DejaVuSans-73" x="485.644531"/>
      <use xlink:href="#DejaVuSans-2d" x="537.744141"/>
      <use xlink:href="#DejaVuSans-30" x="573.828125"/>
      <use xlink:href="#DejaVuSans-2d" x="637.451172"/>
      <use xlink:href="#DejaVuSans-65" x="673.535156"/>
      <use xlink:href="#DejaVuSans-78" x="733.308594"/>
      <use xlink:href="#DejaVuSans-69" x="792.488281"/>
      <use xlink:href="#DejaVuSans-64" x="820.271484"/>
      <use xlink:href="#DejaVuSans-32" x="883.748047"/>
      <use xlink:href="#DejaVuSans-33" x="947.371094"/>
     </g>
    </g>
    <g id="line2d_51">
     <path d="M 269.702 486.648375 
L 278.502 486.648375 
L 287.302 486.648375 
" style="fill: none; stroke: #5784db; stroke-width: 1.2; stroke-linecap: round"/>
    </g>
    <g id="text_45">
     <!-- afl-0-exid23 -->
     <g style="fill: #262626" transform="translate(294.342 489.728375)scale(0.088 -0.088)">
      <use xlink:href="#DejaVuSans-61"/>
      <use xlink:href="#DejaVuSans-66" x="61.279297"/>
      <use xlink:href="#DejaVuSans-6c" x="96.484375"/>
      <use xlink:href="#DejaVuSans-2d" x="124.267578"/>
      <use xlink:href="#DejaVuSans-30" x="160.351562"/>
      <use xlink:href="#DejaVuSans-2d" x="223.974609"/>
      <use xlink:href="#DejaVuSans-65" x="260.058594"/>
      <use xlink:href="#DejaVuSans-78" x="319.832031"/>
      <use xlink:href="#DejaVuSans-69" x="379.011719"/>
      <use xlink:href="#DejaVuSans-64" x="406.794922"/>
      <use xlink:href="#DejaVuSans-32" x="470.271484"/>
      <use xlink:href="#DejaVuSans-33" x="533.894531"/>
     </g>
    </g>
    <g id="line2d_52">
     <path d="M 269.702 499.565125 
L 278.502 499.565125 
L 287.302 499.565125 
" style="fill: none; stroke: #c957db; stroke-width: 1.2; stroke-linecap: round"/>
    </g>
    <g id="text_46">
     <!-- fuzzer_global -->
     <g style="fill: #262626" transform="translate(294.342 502.645125)scale(0.088 -0.088)">
      <defs>
       <path id="DejaVuSans-5f" d="M 3263 -1063 
L 3263 -1509 
L -63 -1509 
L -63 -1063 
L 3263 -1063 
z
" transform="scale(0.015625)"/>
       <path id="DejaVuSans-62" d="M 3116 1747 
Q 3116 2381 2855 2742 
Q 2594 3103 2138 3103 
Q 1681 3103 1420 2742 
Q 1159 2381 1159 1747 
Q 1159 1113 1420 752 
Q 1681 391 2138 391 
Q 2594 391 2855 752 
Q 3116 1113 3116 1747 
z
M 1159 2969 
Q 1341 3281 1617 3432 
Q 1894 3584 2278 3584 
Q 2916 3584 3314 3078 
Q 3713 2572 3713 1747 
Q 3713 922 3314 415 
Q 2916 -91 2278 -91 
Q 1894 -91 1617 61 
Q 1341 213 1159 525 
L 1159 0 
L 581 0 
L 581 4863 
L 1159 4863 
L 1159 2969 
z
" transform="scale(0.015625)"/>
      </defs>
      <use xlink:href="#DejaVuSans-66"/>
      <use xlink:href="#DejaVuSans-75" x="35.205078"/>
      <use xlink:href="#DejaVuSans-7a" x="98.583984"/>
      <use xlink:href="#DejaVuSans-7a" x="151.074219"/>
      <use xlink:href="#DejaVuSans-65" x="203.564453"/>
      <use xlink:href="#DejaVuSans-72" x="265.087891"/>
      <use xlink:href="#DejaVuSans-5f" x="306.201172"/>
      <use xlink:href="#DejaVuSans-67" x="356.201172"/>
      <use xlink:href="#DejaVuSans-6c" x="419.677734"/>
      <use xlink:href="#DejaVuSans-6f" x="447.460938"/>
      <use xlink:href="#DejaVuSans-62" x="508.642578"/>
      <use xlink:href="#DejaVuSans-61" x="572.119141"/>
      <use xlink:href="#DejaVuSans-6c" x="633.398438"/>
     </g>
    </g>
   </g>
  </g>
 </g>
 <defs>
  <clipPath id="p6d67380217">
   <rect x="54.3375" y="69.12" width="336.8925" height="443.52"/>
  </clipPath>
 </defs>
</svg>
