<?xml version="1.0" encoding="utf-8" standalone="no"?>
<!DOCTYPE svg PUBLIC "-//W3C//DTD SVG 1.1//EN"
  "http://www.w3.org/Graphics/SVG/1.1/DTD/svg11.dtd">
<svg xmlns:xlink="http://www.w3.org/1999/xlink" width="433.8pt" height="576pt" viewBox="0 0 433.8 576" xmlns="http://www.w3.org/2000/svg" version="1.1">
 <metadata>
  <rdf:RDF xmlns:dc="http://purl.org/dc/elements/1.1/" xmlns:cc="http://creativecommons.org/ns#" xmlns:rdf="http://www.w3.org/1999/02/22-rdf-syntax-ns#">
   <cc:Work>
    <dc:type rdf:resource="http://purl.org/dc/dcmitype/StillImage"/>
    <dc:date>2022-09-15T10:35:38.785101</dc:date>
    <dc:format>image/svg+xml</dc:format>
    <dc:creator>
     <cc:Agent>
      <dc:title>Matplotlib v3.5.3, https://matplotlib.org/</dc:title>
     </cc:Agent>
    </dc:creator>
   </cc:Work>
  </rdf:RDF>
 </metadata>
 <defs>
  <style type="text/css">*{stroke-linejoin: round; stroke-linecap: butt}</style>
 </defs>
 <g id="figure_1">
  <g id="patch_1">
   <path d="M 0 576 
L 433.8 576 
L 433.8 0 
L 0 0 
z
" style="fill: #ffffff"/>
  </g>
  <g id="axes_1">
   <g id="patch_2">
    <path d="M 54.225 512.64 
L 390.42 512.64 
L 390.42 69.12 
L 54.225 69.12 
z
" style="fill: #ffffff"/>
   </g>
   <g id="matplotlib.axis_1">
    <g id="xtick_1">
     <g id="line2d_1">
      <path d="M 69.506591 512.64 
L 69.506591 69.12 
" clip-path="url(#p13deee17f5)" style="fill: none; stroke: #cccccc; stroke-width: 0.8; stroke-linecap: round"/>
     </g>
     <g id="text_1">
      <!-- 0 -->
      <g style="fill: #262626" transform="translate(69.244078 529.627249)rotate(-45)scale(0.088 -0.088)">
       <defs>
        <path id="DejaVuSans-30" d="M 2034 4250 
Q 1547 4250 1301 3770 
Q 1056 3291 1056 2328 
Q 1056 1369 1301 889 
Q 1547 409 2034 409 
Q 2525 409 2770 889 
Q 3016 1369 3016 2328 
Q 3016 3291 2770 3770 
Q 2525 4250 2034 4250 
z
M 2034 4750 
Q 2819 4750 3233 4129 
Q 3647 3509 3647 2328 
Q 3647 1150 3233 529 
Q 2819 -91 2034 -91 
Q 1250 -91 836 529 
Q 422 1150 422 2328 
Q 422 3509 836 4129 
Q 1250 4750 2034 4750 
z
" transform="scale(0.015625)"/>
       </defs>
       <use xlink:href="#DejaVuSans-30"/>
      </g>
     </g>
    </g>
    <g id="xtick_2">
     <g id="line2d_2">
      <path d="M 86.533433 512.64 
L 86.533433 69.12 
" clip-path="url(#p13deee17f5)" style="fill: none; stroke: #cccccc; stroke-width: 0.8; stroke-linecap: round"/>
     </g>
     <g id="text_2">
      <!-- 80 -->
      <g style="fill: #262626" transform="translate(84.291374 533.58634)rotate(-45)scale(0.088 -0.088)">
       <defs>
        <path id="DejaVuSans-38" d="M 2034 2216 
Q 1584 2216 1326 1975 
Q 1069 1734 1069 1313 
Q 1069 891 1326 650 
Q 1584 409 2034 409 
Q 2484 409 2743 651 
Q 3003 894 3003 1313 
Q 3003 1734 2745 1975 
Q 2488 2216 2034 2216 
z
M 1403 2484 
Q 997 2584 770 2862 
Q 544 3141 544 3541 
Q 544 4100 942 4425 
Q 1341 4750 2034 4750 
Q 2731 4750 3128 4425 
Q 3525 4100 3525 3541 
Q 3525 3141 3298 2862 
Q 3072 2584 2669 2484 
Q 3125 2378 3379 2068 
Q 3634 1759 3634 1313 
Q 3634 634 3220 271 
Q 2806 -91 2034 -91 
Q 1263 -91 848 271 
Q 434 634 434 1313 
Q 434 1759 690 2068 
Q 947 2378 1403 2484 
z
M 1172 3481 
Q 1172 3119 1398 2916 
Q 1625 2713 2034 2713 
Q 2441 2713 2670 2916 
Q 2900 3119 2900 3481 
Q 2900 3844 2670 4047 
Q 2441 4250 2034 4250 
Q 1625 4250 1398 4047 
Q 1172 3844 1172 3481 
z
" transform="scale(0.015625)"/>
       </defs>
       <use xlink:href="#DejaVuSans-38"/>
       <use xlink:href="#DejaVuSans-30" x="63.623047"/>
      </g>
     </g>
    </g>
    <g id="xtick_3">
     <g id="line2d_3">
      <path d="M 103.560275 512.64 
L 103.560275 69.12 
" clip-path="url(#p13deee17f5)" style="fill: none; stroke: #cccccc; stroke-width: 0.8; stroke-linecap: round"/>
     </g>
     <g id="text_3">
      <!-- 160 -->
      <g style="fill: #262626" transform="translate(99.338671 537.54543)rotate(-45)scale(0.088 -0.088)">
       <defs>
        <path id="DejaVuSans-31" d="M 794 531 
L 1825 531 
L 1825 4091 
L 703 3866 
L 703 4441 
L 1819 4666 
L 2450 4666 
L 2450 531 
L 3481 531 
L 3481 0 
L 794 0 
L 794 531 
z
" transform="scale(0.015625)"/>
        <path id="DejaVuSans-36" d="M 2113 2584 
Q 1688 2584 1439 2293 
Q 1191 2003 1191 1497 
Q 1191 994 1439 701 
Q 1688 409 2113 409 
Q 2538 409 2786 701 
Q 3034 994 3034 1497 
Q 3034 2003 2786 2293 
Q 2538 2584 2113 2584 
z
M 3366 4563 
L 3366 3988 
Q 3128 4100 2886 4159 
Q 2644 4219 2406 4219 
Q 1781 4219 1451 3797 
Q 1122 3375 1075 2522 
Q 1259 2794 1537 2939 
Q 1816 3084 2150 3084 
Q 2853 3084 3261 2657 
Q 3669 2231 3669 1497 
Q 3669 778 3244 343 
Q 2819 -91 2113 -91 
Q 1303 -91 875 529 
Q 447 1150 447 2328 
Q 447 3434 972 4092 
Q 1497 4750 2381 4750 
Q 2619 4750 2861 4703 
Q 3103 4656 3366 4563 
z
" transform="scale(0.015625)"/>
       </defs>
       <use xlink:href="#DejaVuSans-31"/>
       <use xlink:href="#DejaVuSans-36" x="63.623047"/>
       <use xlink:href="#DejaVuSans-30" x="127.246094"/>
      </g>
     </g>
    </g>
    <g id="xtick_4">
     <g id="line2d_4">
      <path d="M 120.587118 512.64 
L 120.587118 69.12 
" clip-path="url(#p13deee17f5)" style="fill: none; stroke: #cccccc; stroke-width: 0.8; stroke-linecap: round"/>
     </g>
     <g id="text_4">
      <!-- 240 -->
      <g style="fill: #262626" transform="translate(116.365513 537.54543)rotate(-45)scale(0.088 -0.088)">
       <defs>
        <path id="DejaVuSans-32" d="M 1228 531 
L 3431 531 
L 3431 0 
L 469 0 
L 469 531 
Q 828 903 1448 1529 
Q 2069 2156 2228 2338 
Q 2531 2678 2651 2914 
Q 2772 3150 2772 3378 
Q 2772 3750 2511 3984 
Q 2250 4219 1831 4219 
Q 1534 4219 1204 4116 
Q 875 4013 500 3803 
L 500 4441 
Q 881 4594 1212 4672 
Q 1544 4750 1819 4750 
Q 2544 4750 2975 4387 
Q 3406 4025 3406 3419 
Q 3406 3131 3298 2873 
Q 3191 2616 2906 2266 
Q 2828 2175 2409 1742 
Q 1991 1309 1228 531 
z
" transform="scale(0.015625)"/>
        <path id="DejaVuSans-34" d="M 2419 4116 
L 825 1625 
L 2419 1625 
L 2419 4116 
z
M 2253 4666 
L 3047 4666 
L 3047 1625 
L 3713 1625 
L 3713 1100 
L 3047 1100 
L 3047 0 
L 2419 0 
L 2419 1100 
L 313 1100 
L 313 1709 
L 2253 4666 
z
" transform="scale(0.015625)"/>
       </defs>
       <use xlink:href="#DejaVuSans-32"/>
       <use xlink:href="#DejaVuSans-34" x="63.623047"/>
       <use xlink:href="#DejaVuSans-30" x="127.246094"/>
      </g>
     </g>
    </g>
    <g id="xtick_5">
     <g id="line2d_5">
      <path d="M 137.61396 512.64 
L 137.61396 69.12 
" clip-path="url(#p13deee17f5)" style="fill: none; stroke: #cccccc; stroke-width: 0.8; stroke-linecap: round"/>
     </g>
     <g id="text_5">
      <!-- 320 -->
      <g style="fill: #262626" transform="translate(133.392356 537.54543)rotate(-45)scale(0.088 -0.088)">
       <defs>
        <path id="DejaVuSans-33" d="M 2597 2516 
Q 3050 2419 3304 2112 
Q 3559 1806 3559 1356 
Q 3559 666 3084 287 
Q 2609 -91 1734 -91 
Q 1441 -91 1130 -33 
Q 819 25 488 141 
L 488 750 
Q 750 597 1062 519 
Q 1375 441 1716 441 
Q 2309 441 2620 675 
Q 2931 909 2931 1356 
Q 2931 1769 2642 2001 
Q 2353 2234 1838 2234 
L 1294 2234 
L 1294 2753 
L 1863 2753 
Q 2328 2753 2575 2939 
Q 2822 3125 2822 3475 
Q 2822 3834 2567 4026 
Q 2313 4219 1838 4219 
Q 1578 4219 1281 4162 
Q 984 4106 628 3988 
L 628 4550 
Q 988 4650 1302 4700 
Q 1616 4750 1894 4750 
Q 2613 4750 3031 4423 
Q 3450 4097 3450 3541 
Q 3450 3153 3228 2886 
Q 3006 2619 2597 2516 
z
" transform="scale(0.015625)"/>
       </defs>
       <use xlink:href="#DejaVuSans-33"/>
       <use xlink:href="#DejaVuSans-32" x="63.623047"/>
       <use xlink:href="#DejaVuSans-30" x="127.246094"/>
      </g>
     </g>
    </g>
    <g id="xtick_6">
     <g id="line2d_6">
      <path d="M 154.640802 512.64 
L 154.640802 69.12 
" clip-path="url(#p13deee17f5)" style="fill: none; stroke: #cccccc; stroke-width: 0.8; stroke-linecap: round"/>
     </g>
     <g id="text_6">
      <!-- 400 -->
      <g style="fill: #262626" transform="translate(150.419198 537.54543)rotate(-45)scale(0.088 -0.088)">
       <use xlink:href="#DejaVuSans-34"/>
       <use xlink:href="#DejaVuSans-30" x="63.623047"/>
       <use xlink:href="#DejaVuSans-30" x="127.246094"/>
      </g>
     </g>
    </g>
    <g id="xtick_7">
     <g id="line2d_7">
      <path d="M 171.667644 512.64 
L 171.667644 69.12 
" clip-path="url(#p13deee17f5)" style="fill: none; stroke: #cccccc; stroke-width: 0.8; stroke-linecap: round"/>
     </g>
     <g id="text_7">
      <!-- 480 -->
      <g style="fill: #262626" transform="translate(167.44604 537.54543)rotate(-45)scale(0.088 -0.088)">
       <use xlink:href="#DejaVuSans-34"/>
       <use xlink:href="#DejaVuSans-38" x="63.623047"/>
       <use xlink:href="#DejaVuSans-30" x="127.246094"/>
      </g>
     </g>
    </g>
    <g id="xtick_8">
     <g id="line2d_8">
      <path d="M 188.694487 512.64 
L 188.694487 69.12 
" clip-path="url(#p13deee17f5)" style="fill: none; stroke: #cccccc; stroke-width: 0.8; stroke-linecap: round"/>
     </g>
     <g id="text_8">
      <!-- 560 -->
      <g style="fill: #262626" transform="translate(184.472882 537.54543)rotate(-45)scale(0.088 -0.088)">
       <defs>
        <path id="DejaVuSans-35" d="M 691 4666 
L 3169 4666 
L 3169 4134 
L 1269 4134 
L 1269 2991 
Q 1406 3038 1543 3061 
Q 1681 3084 1819 3084 
Q 2600 3084 3056 2656 
Q 3513 2228 3513 1497 
Q 3513 744 3044 326 
Q 2575 -91 1722 -91 
Q 1428 -91 1123 -41 
Q 819 9 494 109 
L 494 744 
Q 775 591 1075 516 
Q 1375 441 1709 441 
Q 2250 441 2565 725 
Q 2881 1009 2881 1497 
Q 2881 1984 2565 2268 
Q 2250 2553 1709 2553 
Q 1456 2553 1204 2497 
Q 953 2441 691 2322 
L 691 4666 
z
" transform="scale(0.015625)"/>
       </defs>
       <use xlink:href="#DejaVuSans-35"/>
       <use xlink:href="#DejaVuSans-36" x="63.623047"/>
       <use xlink:href="#DejaVuSans-30" x="127.246094"/>
      </g>
     </g>
    </g>
    <g id="xtick_9">
     <g id="line2d_9">
      <path d="M 205.721329 512.64 
L 205.721329 69.12 
" clip-path="url(#p13deee17f5)" style="fill: none; stroke: #cccccc; stroke-width: 0.8; stroke-linecap: round"/>
     </g>
     <g id="text_9">
      <!-- 640 -->
      <g style="fill: #262626" transform="translate(201.499725 537.54543)rotate(-45)scale(0.088 -0.088)">
       <use xlink:href="#DejaVuSans-36"/>
       <use xlink:href="#DejaVuSans-34" x="63.623047"/>
       <use xlink:href="#DejaVuSans-30" x="127.246094"/>
      </g>
     </g>
    </g>
    <g id="xtick_10">
     <g id="line2d_10">
      <path d="M 222.748171 512.64 
L 222.748171 69.12 
" clip-path="url(#p13deee17f5)" style="fill: none; stroke: #cccccc; stroke-width: 0.8; stroke-linecap: round"/>
     </g>
     <g id="text_10">
      <!-- 720 -->
      <g style="fill: #262626" transform="translate(218.526567 537.54543)rotate(-45)scale(0.088 -0.088)">
       <defs>
        <path id="DejaVuSans-37" d="M 525 4666 
L 3525 4666 
L 3525 4397 
L 1831 0 
L 1172 0 
L 2766 4134 
L 525 4134 
L 525 4666 
z
" transform="scale(0.015625)"/>
       </defs>
       <use xlink:href="#DejaVuSans-37"/>
       <use xlink:href="#DejaVuSans-32" x="63.623047"/>
       <use xlink:href="#DejaVuSans-30" x="127.246094"/>
      </g>
     </g>
    </g>
    <g id="xtick_11">
     <g id="line2d_11">
      <path d="M 239.775013 512.64 
L 239.775013 69.12 
" clip-path="url(#p13deee17f5)" style="fill: none; stroke: #cccccc; stroke-width: 0.8; stroke-linecap: round"/>
     </g>
     <g id="text_11">
      <!-- 800 -->
      <g style="fill: #262626" transform="translate(235.553409 537.54543)rotate(-45)scale(0.088 -0.088)">
       <use xlink:href="#DejaVuSans-38"/>
       <use xlink:href="#DejaVuSans-30" x="63.623047"/>
       <use xlink:href="#DejaVuSans-30" x="127.246094"/>
      </g>
     </g>
    </g>
    <g id="xtick_12">
     <g id="line2d_12">
      <path d="M 256.801856 512.64 
L 256.801856 69.12 
" clip-path="url(#p13deee17f5)" style="fill: none; stroke: #cccccc; stroke-width: 0.8; stroke-linecap: round"/>
     </g>
     <g id="text_12">
      <!-- 880 -->
      <g style="fill: #262626" transform="translate(252.580251 537.54543)rotate(-45)scale(0.088 -0.088)">
       <use xlink:href="#DejaVuSans-38"/>
       <use xlink:href="#DejaVuSans-38" x="63.623047"/>
       <use xlink:href="#DejaVuSans-30" x="127.246094"/>
      </g>
     </g>
    </g>
    <g id="xtick_13">
     <g id="line2d_13">
      <path d="M 273.828698 512.64 
L 273.828698 69.12 
" clip-path="url(#p13deee17f5)" style="fill: none; stroke: #cccccc; stroke-width: 0.8; stroke-linecap: round"/>
     </g>
     <g id="text_13">
      <!-- 960 -->
      <g style="fill: #262626" transform="translate(269.607094 537.54543)rotate(-45)scale(0.088 -0.088)">
       <defs>
        <path id="DejaVuSans-39" d="M 703 97 
L 703 672 
Q 941 559 1184 500 
Q 1428 441 1663 441 
Q 2288 441 2617 861 
Q 2947 1281 2994 2138 
Q 2813 1869 2534 1725 
Q 2256 1581 1919 1581 
Q 1219 1581 811 2004 
Q 403 2428 403 3163 
Q 403 3881 828 4315 
Q 1253 4750 1959 4750 
Q 2769 4750 3195 4129 
Q 3622 3509 3622 2328 
Q 3622 1225 3098 567 
Q 2575 -91 1691 -91 
Q 1453 -91 1209 -44 
Q 966 3 703 97 
z
M 1959 2075 
Q 2384 2075 2632 2365 
Q 2881 2656 2881 3163 
Q 2881 3666 2632 3958 
Q 2384 4250 1959 4250 
Q 1534 4250 1286 3958 
Q 1038 3666 1038 3163 
Q 1038 2656 1286 2365 
Q 1534 2075 1959 2075 
z
" transform="scale(0.015625)"/>
       </defs>
       <use xlink:href="#DejaVuSans-39"/>
       <use xlink:href="#DejaVuSans-36" x="63.623047"/>
       <use xlink:href="#DejaVuSans-30" x="127.246094"/>
      </g>
     </g>
    </g>
    <g id="xtick_14">
     <g id="line2d_14">
      <path d="M 290.85554 512.64 
L 290.85554 69.12 
" clip-path="url(#p13deee17f5)" style="fill: none; stroke: #cccccc; stroke-width: 0.8; stroke-linecap: round"/>
     </g>
     <g id="text_14">
      <!-- 1040 -->
      <g style="fill: #262626" transform="translate(284.65439 541.504521)rotate(-45)scale(0.088 -0.088)">
       <use xlink:href="#DejaVuSans-31"/>
       <use xlink:href="#DejaVuSans-30" x="63.623047"/>
       <use xlink:href="#DejaVuSans-34" x="127.246094"/>
       <use xlink:href="#DejaVuSans-30" x="190.869141"/>
      </g>
     </g>
    </g>
    <g id="xtick_15">
     <g id="line2d_15">
      <path d="M 307.882382 512.64 
L 307.882382 69.12 
" clip-path="url(#p13deee17f5)" style="fill: none; stroke: #cccccc; stroke-width: 0.8; stroke-linecap: round"/>
     </g>
     <g id="text_15">
      <!-- 1120 -->
      <g style="fill: #262626" transform="translate(301.681233 541.504521)rotate(-45)scale(0.088 -0.088)">
       <use xlink:href="#DejaVuSans-31"/>
       <use xlink:href="#DejaVuSans-31" x="63.623047"/>
       <use xlink:href="#DejaVuSans-32" x="127.246094"/>
       <use xlink:href="#DejaVuSans-30" x="190.869141"/>
      </g>
     </g>
    </g>
    <g id="xtick_16">
     <g id="line2d_16">
      <path d="M 324.909224 512.64 
L 324.909224 69.12 
" clip-path="url(#p13deee17f5)" style="fill: none; stroke: #cccccc; stroke-width: 0.8; stroke-linecap: round"/>
     </g>
     <g id="text_16">
      <!-- 1200 -->
      <g style="fill: #262626" transform="translate(318.708075 541.504521)rotate(-45)scale(0.088 -0.088)">
       <use xlink:href="#DejaVuSans-31"/>
       <use xlink:href="#DejaVuSans-32" x="63.623047"/>
       <use xlink:href="#DejaVuSans-30" x="127.246094"/>
       <use xlink:href="#DejaVuSans-30" x="190.869141"/>
      </g>
     </g>
    </g>
    <g id="xtick_17">
     <g id="line2d_17">
      <path d="M 341.936067 512.64 
L 341.936067 69.12 
" clip-path="url(#p13deee17f5)" style="fill: none; stroke: #cccccc; stroke-width: 0.8; stroke-linecap: round"/>
     </g>
     <g id="text_17">
      <!-- 1280 -->
      <g style="fill: #262626" transform="translate(335.734917 541.504521)rotate(-45)scale(0.088 -0.088)">
       <use xlink:href="#DejaVuSans-31"/>
       <use xlink:href="#DejaVuSans-32" x="63.623047"/>
       <use xlink:href="#DejaVuSans-38" x="127.246094"/>
       <use xlink:href="#DejaVuSans-30" x="190.869141"/>
      </g>
     </g>
    </g>
    <g id="xtick_18">
     <g id="line2d_18">
      <path d="M 358.962909 512.64 
L 358.962909 69.12 
" clip-path="url(#p13deee17f5)" style="fill: none; stroke: #cccccc; stroke-width: 0.8; stroke-linecap: round"/>
     </g>
     <g id="text_18">
      <!-- 1360 -->
      <g style="fill: #262626" transform="translate(352.761759 541.504521)rotate(-45)scale(0.088 -0.088)">
       <use xlink:href="#DejaVuSans-31"/>
       <use xlink:href="#DejaVuSans-33" x="63.623047"/>
       <use xlink:href="#DejaVuSans-36" x="127.246094"/>
       <use xlink:href="#DejaVuSans-30" x="190.869141"/>
      </g>
     </g>
    </g>
    <g id="xtick_19">
     <g id="line2d_19">
      <path d="M 375.989751 512.64 
L 375.989751 69.12 
" clip-path="url(#p13deee17f5)" style="fill: none; stroke: #cccccc; stroke-width: 0.8; stroke-linecap: round"/>
     </g>
     <g id="text_19">
      <!-- 1440 -->
      <g style="fill: #262626" transform="translate(369.788602 541.504521)rotate(-45)scale(0.088 -0.088)">
       <use xlink:href="#DejaVuSans-31"/>
       <use xlink:href="#DejaVuSans-34" x="63.623047"/>
       <use xlink:href="#DejaVuSans-34" x="127.246094"/>
       <use xlink:href="#DejaVuSans-30" x="190.869141"/>
      </g>
     </g>
    </g>
    <g id="text_20">
     <!-- Time (Minutes) -->
     <g style="fill: #262626" transform="translate(186.4125 554.093115)scale(0.096 -0.096)">
      <defs>
       <path id="DejaVuSans-54" d="M -19 4666 
L 3928 4666 
L 3928 4134 
L 2272 4134 
L 2272 0 
L 1638 0 
L 1638 4134 
L -19 4134 
L -19 4666 
z
" transform="scale(0.015625)"/>
       <path id="DejaVuSans-69" d="M 603 3500 
L 1178 3500 
L 1178 0 
L 603 0 
L 603 3500 
z
M 603 4863 
L 1178 4863 
L 1178 4134 
L 603 4134 
L 603 4863 
z
" transform="scale(0.015625)"/>
       <path id="DejaVuSans-6d" d="M 3328 2828 
Q 3544 3216 3844 3400 
Q 4144 3584 4550 3584 
Q 5097 3584 5394 3201 
Q 5691 2819 5691 2113 
L 5691 0 
L 5113 0 
L 5113 2094 
Q 5113 2597 4934 2840 
Q 4756 3084 4391 3084 
Q 3944 3084 3684 2787 
Q 3425 2491 3425 1978 
L 3425 0 
L 2847 0 
L 2847 2094 
Q 2847 2600 2669 2842 
Q 2491 3084 2119 3084 
Q 1678 3084 1418 2786 
Q 1159 2488 1159 1978 
L 1159 0 
L 581 0 
L 581 3500 
L 1159 3500 
L 1159 2956 
Q 1356 3278 1631 3431 
Q 1906 3584 2284 3584 
Q 2666 3584 2933 3390 
Q 3200 3197 3328 2828 
z
" transform="scale(0.015625)"/>
       <path id="DejaVuSans-65" d="M 3597 1894 
L 3597 1613 
L 953 1613 
Q 991 1019 1311 708 
Q 1631 397 2203 397 
Q 2534 397 2845 478 
Q 3156 559 3463 722 
L 3463 178 
Q 3153 47 2828 -22 
Q 2503 -91 2169 -91 
Q 1331 -91 842 396 
Q 353 884 353 1716 
Q 353 2575 817 3079 
Q 1281 3584 2069 3584 
Q 2775 3584 3186 3129 
Q 3597 2675 3597 1894 
z
M 3022 2063 
Q 3016 2534 2758 2815 
Q 2500 3097 2075 3097 
Q 1594 3097 1305 2825 
Q 1016 2553 972 2059 
L 3022 2063 
z
" transform="scale(0.015625)"/>
       <path id="DejaVuSans-20" transform="scale(0.015625)"/>
       <path id="DejaVuSans-28" d="M 1984 4856 
Q 1566 4138 1362 3434 
Q 1159 2731 1159 2009 
Q 1159 1288 1364 580 
Q 1569 -128 1984 -844 
L 1484 -844 
Q 1016 -109 783 600 
Q 550 1309 550 2009 
Q 550 2706 781 3412 
Q 1013 4119 1484 4856 
L 1984 4856 
z
" transform="scale(0.015625)"/>
       <path id="DejaVuSans-4d" d="M 628 4666 
L 1569 4666 
L 2759 1491 
L 3956 4666 
L 4897 4666 
L 4897 0 
L 4281 0 
L 4281 4097 
L 3078 897 
L 2444 897 
L 1241 4097 
L 1241 0 
L 628 0 
L 628 4666 
z
" transform="scale(0.015625)"/>
       <path id="DejaVuSans-6e" d="M 3513 2113 
L 3513 0 
L 2938 0 
L 2938 2094 
Q 2938 2591 2744 2837 
Q 2550 3084 2163 3084 
Q 1697 3084 1428 2787 
Q 1159 2491 1159 1978 
L 1159 0 
L 581 0 
L 581 3500 
L 1159 3500 
L 1159 2956 
Q 1366 3272 1645 3428 
Q 1925 3584 2291 3584 
Q 2894 3584 3203 3211 
Q 3513 2838 3513 2113 
z
" transform="scale(0.015625)"/>
       <path id="DejaVuSans-75" d="M 544 1381 
L 544 3500 
L 1119 3500 
L 1119 1403 
Q 1119 906 1312 657 
Q 1506 409 1894 409 
Q 2359 409 2629 706 
Q 2900 1003 2900 1516 
L 2900 3500 
L 3475 3500 
L 3475 0 
L 2900 0 
L 2900 538 
Q 2691 219 2414 64 
Q 2138 -91 1772 -91 
Q 1169 -91 856 284 
Q 544 659 544 1381 
z
M 1991 3584 
L 1991 3584 
z
" transform="scale(0.015625)"/>
       <path id="DejaVuSans-74" d="M 1172 4494 
L 1172 3500 
L 2356 3500 
L 2356 3053 
L 1172 3053 
L 1172 1153 
Q 1172 725 1289 603 
Q 1406 481 1766 481 
L 2356 481 
L 2356 0 
L 1766 0 
Q 1100 0 847 248 
Q 594 497 594 1153 
L 594 3053 
L 172 3053 
L 172 3500 
L 594 3500 
L 594 4494 
L 1172 4494 
z
" transform="scale(0.015625)"/>
       <path id="DejaVuSans-73" d="M 2834 3397 
L 2834 2853 
Q 2591 2978 2328 3040 
Q 2066 3103 1784 3103 
Q 1356 3103 1142 2972 
Q 928 2841 928 2578 
Q 928 2378 1081 2264 
Q 1234 2150 1697 2047 
L 1894 2003 
Q 2506 1872 2764 1633 
Q 3022 1394 3022 966 
Q 3022 478 2636 193 
Q 2250 -91 1575 -91 
Q 1294 -91 989 -36 
Q 684 19 347 128 
L 347 722 
Q 666 556 975 473 
Q 1284 391 1588 391 
Q 1994 391 2212 530 
Q 2431 669 2431 922 
Q 2431 1156 2273 1281 
Q 2116 1406 1581 1522 
L 1381 1569 
Q 847 1681 609 1914 
Q 372 2147 372 2553 
Q 372 3047 722 3315 
Q 1072 3584 1716 3584 
Q 2034 3584 2315 3537 
Q 2597 3491 2834 3397 
z
" transform="scale(0.015625)"/>
       <path id="DejaVuSans-29" d="M 513 4856 
L 1013 4856 
Q 1481 4119 1714 3412 
Q 1947 2706 1947 2009 
Q 1947 1309 1714 600 
Q 1481 -109 1013 -844 
L 513 -844 
Q 928 -128 1133 580 
Q 1338 1288 1338 2009 
Q 1338 2731 1133 3434 
Q 928 4138 513 4856 
z
" transform="scale(0.015625)"/>
      </defs>
      <use xlink:href="#DejaVuSans-54"/>
      <use xlink:href="#DejaVuSans-69" x="57.958984"/>
      <use xlink:href="#DejaVuSans-6d" x="85.742188"/>
      <use xlink:href="#DejaVuSans-65" x="183.154297"/>
      <use xlink:href="#DejaVuSans-20" x="244.677734"/>
      <use xlink:href="#DejaVuSans-28" x="276.464844"/>
      <use xlink:href="#DejaVuSans-4d" x="315.478516"/>
      <use xlink:href="#DejaVuSans-69" x="401.757812"/>
      <use xlink:href="#DejaVuSans-6e" x="429.541016"/>
      <use xlink:href="#DejaVuSans-75" x="492.919922"/>
      <use xlink:href="#DejaVuSans-74" x="556.298828"/>
      <use xlink:href="#DejaVuSans-65" x="595.507812"/>
      <use xlink:href="#DejaVuSans-73" x="657.03125"/>
      <use xlink:href="#DejaVuSans-29" x="709.130859"/>
     </g>
    </g>
   </g>
   <g id="matplotlib.axis_2">
    <g id="ytick_1">
     <g id="line2d_20">
      <path d="M 54.225 492.48 
L 390.42 492.48 
" clip-path="url(#p13deee17f5)" style="fill: none; stroke: #cccccc; stroke-width: 0.8; stroke-linecap: round"/>
     </g>
     <g id="text_21">
      <!-- 0 -->
      <g style="fill: #262626" transform="translate(40.326 495.823312)scale(0.088 -0.088)">
       <use xlink:href="#DejaVuSans-30"/>
      </g>
     </g>
    </g>
    <g id="ytick_2">
     <g id="line2d_21">
      <path d="M 54.225 426.48982 
L 390.42 426.48982 
" clip-path="url(#p13deee17f5)" style="fill: none; stroke: #cccccc; stroke-width: 0.8; stroke-linecap: round"/>
     </g>
     <g id="text_22">
      <!-- 100 -->
      <g style="fill: #262626" transform="translate(29.128 429.833132)scale(0.088 -0.088)">
       <use xlink:href="#DejaVuSans-31"/>
       <use xlink:href="#DejaVuSans-30" x="63.623047"/>
       <use xlink:href="#DejaVuSans-30" x="127.246094"/>
      </g>
     </g>
    </g>
    <g id="ytick_3">
     <g id="line2d_22">
      <path d="M 54.225 360.49964 
L 390.42 360.49964 
" clip-path="url(#p13deee17f5)" style="fill: none; stroke: #cccccc; stroke-width: 0.8; stroke-linecap: round"/>
     </g>
     <g id="text_23">
      <!-- 200 -->
      <g style="fill: #262626" transform="translate(29.128 363.842952)scale(0.088 -0.088)">
       <use xlink:href="#DejaVuSans-32"/>
       <use xlink:href="#DejaVuSans-30" x="63.623047"/>
       <use xlink:href="#DejaVuSans-30" x="127.246094"/>
      </g>
     </g>
    </g>
    <g id="ytick_4">
     <g id="line2d_23">
      <path d="M 54.225 294.50946 
L 390.42 294.50946 
" clip-path="url(#p13deee17f5)" style="fill: none; stroke: #cccccc; stroke-width: 0.8; stroke-linecap: round"/>
     </g>
     <g id="text_24">
      <!-- 300 -->
      <g style="fill: #262626" transform="translate(29.128 297.852772)scale(0.088 -0.088)">
       <use xlink:href="#DejaVuSans-33"/>
       <use xlink:href="#DejaVuSans-30" x="63.623047"/>
       <use xlink:href="#DejaVuSans-30" x="127.246094"/>
      </g>
     </g>
    </g>
    <g id="ytick_5">
     <g id="line2d_24">
      <path d="M 54.225 228.51928 
L 390.42 228.51928 
" clip-path="url(#p13deee17f5)" style="fill: none; stroke: #cccccc; stroke-width: 0.8; stroke-linecap: round"/>
     </g>
     <g id="text_25">
      <!-- 400 -->
      <g style="fill: #262626" transform="translate(29.128 231.862592)scale(0.088 -0.088)">
       <use xlink:href="#DejaVuSans-34"/>
       <use xlink:href="#DejaVuSans-30" x="63.623047"/>
       <use xlink:href="#DejaVuSans-30" x="127.246094"/>
      </g>
     </g>
    </g>
    <g id="ytick_6">
     <g id="line2d_25">
      <path d="M 54.225 162.5291 
L 390.42 162.5291 
" clip-path="url(#p13deee17f5)" style="fill: none; stroke: #cccccc; stroke-width: 0.8; stroke-linecap: round"/>
     </g>
     <g id="text_26">
      <!-- 500 -->
      <g style="fill: #262626" transform="translate(29.128 165.872412)scale(0.088 -0.088)">
       <use xlink:href="#DejaVuSans-35"/>
       <use xlink:href="#DejaVuSans-30" x="63.623047"/>
       <use xlink:href="#DejaVuSans-30" x="127.246094"/>
      </g>
     </g>
    </g>
    <g id="ytick_7">
     <g id="line2d_26">
      <path d="M 54.225 96.53892 
L 390.42 96.53892 
" clip-path="url(#p13deee17f5)" style="fill: none; stroke: #cccccc; stroke-width: 0.8; stroke-linecap: round"/>
     </g>
     <g id="text_27">
      <!-- 600 -->
      <g style="fill: #262626" transform="translate(29.128 99.882232)scale(0.088 -0.088)">
       <use xlink:href="#DejaVuSans-36"/>
       <use xlink:href="#DejaVuSans-30" x="63.623047"/>
       <use xlink:href="#DejaVuSans-30" x="127.246094"/>
      </g>
     </g>
    </g>
    <g id="text_28">
     <!-- Edge Coverages -->
     <g style="fill: #262626" transform="translate(23.1315 329.98575)rotate(-90)scale(0.096 -0.096)">
      <defs>
       <path id="DejaVuSans-45" d="M 628 4666 
L 3578 4666 
L 3578 4134 
L 1259 4134 
L 1259 2753 
L 3481 2753 
L 3481 2222 
L 1259 2222 
L 1259 531 
L 3634 531 
L 3634 0 
L 628 0 
L 628 4666 
z
" transform="scale(0.015625)"/>
       <path id="DejaVuSans-64" d="M 2906 2969 
L 2906 4863 
L 3481 4863 
L 3481 0 
L 2906 0 
L 2906 525 
Q 2725 213 2448 61 
Q 2172 -91 1784 -91 
Q 1150 -91 751 415 
Q 353 922 353 1747 
Q 353 2572 751 3078 
Q 1150 3584 1784 3584 
Q 2172 3584 2448 3432 
Q 2725 3281 2906 2969 
z
M 947 1747 
Q 947 1113 1208 752 
Q 1469 391 1925 391 
Q 2381 391 2643 752 
Q 2906 1113 2906 1747 
Q 2906 2381 2643 2742 
Q 2381 3103 1925 3103 
Q 1469 3103 1208 2742 
Q 947 2381 947 1747 
z
" transform="scale(0.015625)"/>
       <path id="DejaVuSans-67" d="M 2906 1791 
Q 2906 2416 2648 2759 
Q 2391 3103 1925 3103 
Q 1463 3103 1205 2759 
Q 947 2416 947 1791 
Q 947 1169 1205 825 
Q 1463 481 1925 481 
Q 2391 481 2648 825 
Q 2906 1169 2906 1791 
z
M 3481 434 
Q 3481 -459 3084 -895 
Q 2688 -1331 1869 -1331 
Q 1566 -1331 1297 -1286 
Q 1028 -1241 775 -1147 
L 775 -588 
Q 1028 -725 1275 -790 
Q 1522 -856 1778 -856 
Q 2344 -856 2625 -561 
Q 2906 -266 2906 331 
L 2906 616 
Q 2728 306 2450 153 
Q 2172 0 1784 0 
Q 1141 0 747 490 
Q 353 981 353 1791 
Q 353 2603 747 3093 
Q 1141 3584 1784 3584 
Q 2172 3584 2450 3431 
Q 2728 3278 2906 2969 
L 2906 3500 
L 3481 3500 
L 3481 434 
z
" transform="scale(0.015625)"/>
       <path id="DejaVuSans-43" d="M 4122 4306 
L 4122 3641 
Q 3803 3938 3442 4084 
Q 3081 4231 2675 4231 
Q 1875 4231 1450 3742 
Q 1025 3253 1025 2328 
Q 1025 1406 1450 917 
Q 1875 428 2675 428 
Q 3081 428 3442 575 
Q 3803 722 4122 1019 
L 4122 359 
Q 3791 134 3420 21 
Q 3050 -91 2638 -91 
Q 1578 -91 968 557 
Q 359 1206 359 2328 
Q 359 3453 968 4101 
Q 1578 4750 2638 4750 
Q 3056 4750 3426 4639 
Q 3797 4528 4122 4306 
z
" transform="scale(0.015625)"/>
       <path id="DejaVuSans-6f" d="M 1959 3097 
Q 1497 3097 1228 2736 
Q 959 2375 959 1747 
Q 959 1119 1226 758 
Q 1494 397 1959 397 
Q 2419 397 2687 759 
Q 2956 1122 2956 1747 
Q 2956 2369 2687 2733 
Q 2419 3097 1959 3097 
z
M 1959 3584 
Q 2709 3584 3137 3096 
Q 3566 2609 3566 1747 
Q 3566 888 3137 398 
Q 2709 -91 1959 -91 
Q 1206 -91 779 398 
Q 353 888 353 1747 
Q 353 2609 779 3096 
Q 1206 3584 1959 3584 
z
" transform="scale(0.015625)"/>
       <path id="DejaVuSans-76" d="M 191 3500 
L 800 3500 
L 1894 563 
L 2988 3500 
L 3597 3500 
L 2284 0 
L 1503 0 
L 191 3500 
z
" transform="scale(0.015625)"/>
       <path id="DejaVuSans-72" d="M 2631 2963 
Q 2534 3019 2420 3045 
Q 2306 3072 2169 3072 
Q 1681 3072 1420 2755 
Q 1159 2438 1159 1844 
L 1159 0 
L 581 0 
L 581 3500 
L 1159 3500 
L 1159 2956 
Q 1341 3275 1631 3429 
Q 1922 3584 2338 3584 
Q 2397 3584 2469 3576 
Q 2541 3569 2628 3553 
L 2631 2963 
z
" transform="scale(0.015625)"/>
       <path id="DejaVuSans-61" d="M 2194 1759 
Q 1497 1759 1228 1600 
Q 959 1441 959 1056 
Q 959 750 1161 570 
Q 1363 391 1709 391 
Q 2188 391 2477 730 
Q 2766 1069 2766 1631 
L 2766 1759 
L 2194 1759 
z
M 3341 1997 
L 3341 0 
L 2766 0 
L 2766 531 
Q 2569 213 2275 61 
Q 1981 -91 1556 -91 
Q 1019 -91 701 211 
Q 384 513 384 1019 
Q 384 1609 779 1909 
Q 1175 2209 1959 2209 
L 2766 2209 
L 2766 2266 
Q 2766 2663 2505 2880 
Q 2244 3097 1772 3097 
Q 1472 3097 1187 3025 
Q 903 2953 641 2809 
L 641 3341 
Q 956 3463 1253 3523 
Q 1550 3584 1831 3584 
Q 2591 3584 2966 3190 
Q 3341 2797 3341 1997 
z
" transform="scale(0.015625)"/>
      </defs>
      <use xlink:href="#DejaVuSans-45"/>
      <use xlink:href="#DejaVuSans-64" x="63.183594"/>
      <use xlink:href="#DejaVuSans-67" x="126.660156"/>
      <use xlink:href="#DejaVuSans-65" x="190.136719"/>
      <use xlink:href="#DejaVuSans-20" x="251.660156"/>
      <use xlink:href="#DejaVuSans-43" x="283.447266"/>
      <use xlink:href="#DejaVuSans-6f" x="353.271484"/>
      <use xlink:href="#DejaVuSans-76" x="414.453125"/>
      <use xlink:href="#DejaVuSans-65" x="473.632812"/>
      <use xlink:href="#DejaVuSans-72" x="535.15625"/>
      <use xlink:href="#DejaVuSans-61" x="576.269531"/>
      <use xlink:href="#DejaVuSans-67" x="637.548828"/>
      <use xlink:href="#DejaVuSans-65" x="701.025391"/>
      <use xlink:href="#DejaVuSans-73" x="762.548828"/>
     </g>
    </g>
   </g>
   <g id="PolyCollection_1">
    <defs>
     <path id="me49eb29ec2" d="M 69.506591 -128.393322 
L 69.506591 -83.52 
L 69.506591 -128.393322 
L 69.506591 -128.393322 
z
" style="stroke: #db5f57; stroke-opacity: 0.2; stroke-width: 0.8"/>
    </defs>
    <g clip-path="url(#p13deee17f5)">
     <use xlink:href="#me49eb29ec2" x="0" y="576" style="fill: #db5f57; fill-opacity: 0.2; stroke: #db5f57; stroke-opacity: 0.2; stroke-width: 0.8"/>
    </g>
   </g>
   <g id="PolyCollection_2">
    <defs>
     <path id="mf95c1cf18c" d="M 69.506591 -120.474501 
L 69.506591 -83.52 
L 69.506591 -120.474501 
L 69.506591 -120.474501 
z
" style="stroke: #b9db57; stroke-opacity: 0.2; stroke-width: 0.8"/>
    </defs>
    <g clip-path="url(#p13deee17f5)">
     <use xlink:href="#mf95c1cf18c" x="0" y="576" style="fill: #b9db57; fill-opacity: 0.2; stroke: #b9db57; stroke-opacity: 0.2; stroke-width: 0.8"/>
    </g>
   </g>
   <g id="PolyCollection_3">
    <defs>
     <path id="m6a0a7661a4" d="M 69.506591 -145.550769 
L 69.506591 -83.52 
L 69.506591 -145.550769 
L 69.506591 -145.550769 
z
" style="stroke: #57db94; stroke-opacity: 0.2; stroke-width: 0.8"/>
    </defs>
    <g clip-path="url(#p13deee17f5)">
     <use xlink:href="#m6a0a7661a4" x="0" y="576" style="fill: #57db94; fill-opacity: 0.2; stroke: #57db94; stroke-opacity: 0.2; stroke-width: 0.8"/>
    </g>
   </g>
   <g id="PolyCollection_4">
    <defs>
     <path id="md233b9255e" d="M 69.506591 -115.855188 
L 69.506591 -83.52 
L 69.506591 -115.855188 
L 69.506591 -115.855188 
z
" style="stroke: #5784db; stroke-opacity: 0.2; stroke-width: 0.8"/>
    </defs>
    <g clip-path="url(#p13deee17f5)">
     <use xlink:href="#md233b9255e" x="0" y="576" style="fill: #5784db; fill-opacity: 0.2; stroke: #5784db; stroke-opacity: 0.2; stroke-width: 0.8"/>
    </g>
   </g>
   <g id="PolyCollection_5">
    <defs>
     <path id="m8021b353cc" d="M 69.506591 -160.728511 
L 69.506591 -83.52 
L 69.506591 -160.728511 
L 69.506591 -160.728511 
z
" style="stroke: #c957db; stroke-opacity: 0.2; stroke-width: 0.8"/>
    </defs>
    <g clip-path="url(#p13deee17f5)">
     <use xlink:href="#m8021b353cc" x="0" y="576" style="fill: #c957db; fill-opacity: 0.2; stroke: #c957db; stroke-opacity: 0.2; stroke-width: 0.8"/>
    </g>
   </g>
   <g id="line2d_27">
    <path d="M 69.506591 470.043339 
L 69.719426 429.789329 
L 69.932262 410.652177 
L 70.783604 382.936301 
L 70.99644 378.316989 
L 71.209275 377.657087 
L 71.422111 375.677381 
L 71.634946 375.677381 
L 71.847782 367.75856 
L 72.060617 367.098658 
L 72.273453 363.799149 
L 72.486288 362.479345 
L 72.699124 362.479345 
L 73.33763 351.261015 
L 73.550466 351.261015 
L 73.763301 350.601113 
L 74.188973 348.621408 
L 74.401808 347.961506 
L 74.614644 345.9818 
L 74.827479 345.9818 
L 75.040315 345.321899 
L 78.871354 345.321899 
L 79.08419 343.342193 
L 79.509861 342.02239 
L 79.935532 337.403077 
L 80.148367 336.743175 
L 80.574038 333.443666 
L 80.786874 333.443666 
L 81.42538 331.463961 
L 82.276723 331.463961 
L 82.489558 330.804059 
L 83.553736 330.804059 
L 83.766571 330.144157 
L 84.830749 330.144157 
L 85.043584 329.484255 
L 89.725966 329.484255 
L 89.938802 328.824354 
L 90.577308 328.824354 
L 90.790144 300.448576 
L 91.002979 202.123208 
L 93.34417 202.123208 
L 93.557006 201.463306 
L 93.769841 201.463306 
L 93.982677 200.803404 
L 101.644756 200.803404 
L 101.857591 186.945466 
L 109.945341 186.945466 
L 110.158177 186.285565 
L 112.286532 186.285565 
L 112.499368 176.387038 
L 122.502637 176.387038 
L 122.715473 165.828609 
L 131.228894 165.828609 
L 131.44173 157.249885 
L 133.995756 157.249885 
L 134.208591 156.589984 
L 149.532749 156.589984 
L 149.745585 143.391948 
L 149.95842 142.072144 
L 163.154223 142.072144 
L 163.367059 134.153322 
L 164.856907 134.153322 
L 165.069743 133.493421 
L 166.133921 133.493421 
L 166.346756 132.833519 
L 180.819572 132.833519 
L 181.032408 123.594894 
L 193.802539 123.594894 
L 194.015375 121.615188 
L 194.22821 120.955286 
L 207.849684 120.955286 
L 208.06252 116.995876 
L 222.109664 116.995876 
L 222.3225 113.036465 
L 223.173842 113.036465 
L 223.386678 112.376563 
L 236.156809 112.376563 
L 236.369645 111.716661 
L 250.842461 111.716661 
L 251.055296 111.056759 
L 272.76452 111.056759 
L 272.977356 110.396858 
L 282.342119 110.396858 
L 282.554954 107.75725 
L 293.409566 107.75725 
L 293.622402 107.097349 
L 294.68658 107.097349 
L 294.899415 106.437447 
L 296.389264 106.437447 
L 296.602099 105.777545 
L 309.372231 105.777545 
L 309.585066 105.117643 
L 310.649244 105.117643 
L 310.86208 104.457741 
L 312.564764 104.457741 
L 312.777599 103.79784 
L 318.524159 103.79784 
L 318.736994 103.137938 
L 335.12533 103.137938 
L 335.338165 102.478036 
L 347.682626 102.478036 
L 347.895462 101.158232 
L 359.814251 101.158232 
L 360.027087 100.498331 
L 370.881699 100.498331 
L 371.094534 98.518625 
L 373.222889 98.518625 
L 373.64856 97.198822 
L 373.861396 97.198822 
L 374.074231 96.53892 
L 374.287067 96.53892 
L 374.499903 95.879018 
L 374.925574 95.879018 
L 375.138409 95.219116 
L 375.138409 95.219116 
" clip-path="url(#p13deee17f5)" style="fill: none; stroke: #db5f57; stroke-width: 1.2; stroke-linecap: round"/>
   </g>
   <g id="line2d_28">
    <path d="M 69.506591 474.00275 
L 69.719426 447.606678 
L 69.932262 435.728445 
L 70.145097 431.109133 
L 70.357933 414.611588 
L 70.570769 408.672471 
L 70.783604 338.722881 
L 70.99644 337.403077 
L 71.209275 334.103568 
L 71.422111 332.783764 
L 71.634946 327.50455 
L 72.060617 324.864943 
L 72.486288 308.367398 
L 72.699124 306.387692 
L 73.124795 288.570344 
L 73.33763 287.25054 
L 73.550466 287.25054 
L 73.763301 285.930736 
L 74.188973 285.930736 
L 74.401808 282.631227 
L 74.614644 281.311424 
L 74.827479 281.311424 
L 75.25315 278.671817 
L 75.465986 278.671817 
L 75.891657 276.692111 
L 76.530163 276.692111 
L 76.742999 274.712406 
L 77.16867 274.712406 
L 78.020012 270.093093 
L 78.232848 269.433191 
L 78.871354 269.433191 
L 79.08419 268.113388 
L 79.297025 268.113388 
L 79.509861 266.793584 
L 80.148367 266.793584 
L 80.361203 264.813879 
L 80.574038 264.153977 
L 80.786874 264.153977 
L 80.999709 263.494075 
L 81.212545 262.174272 
L 81.42538 256.895057 
L 81.851052 253.595548 
L 82.063887 251.615843 
L 82.276723 250.955941 
L 82.702394 248.316334 
L 82.915229 248.316334 
L 83.128065 246.336628 
L 83.3409 245.676727 
L 83.553736 244.356923 
L 83.766571 241.717316 
L 83.979407 241.057414 
L 84.830749 241.057414 
L 85.25642 239.73761 
L 85.469256 237.098003 
L 85.894927 235.7782 
L 86.107762 232.478691 
L 86.320598 231.158887 
L 86.533433 231.158887 
L 86.746269 230.498985 
L 87.17194 228.51928 
L 88.236117 228.51928 
L 88.448953 225.879673 
L 88.661788 225.879673 
L 88.874624 225.219771 
L 92.705663 225.219771 
L 92.918499 223.240065 
L 94.195512 223.240065 
L 94.408348 221.26036 
L 94.621183 220.600458 
L 97.388045 220.600458 
L 97.600881 219.280655 
L 97.813716 219.280655 
L 98.026552 213.341538 
L 98.452223 212.021735 
L 101.43192 212.021735 
L 101.857591 208.722226 
L 102.283262 207.402422 
L 104.837289 207.402422 
L 105.050124 205.422717 
L 105.901466 205.422717 
L 106.114302 204.762815 
L 106.539973 204.762815 
L 106.752808 204.102913 
L 106.965644 204.102913 
L 107.178479 203.443011 
L 108.029821 203.443011 
L 108.242657 202.78311 
L 108.881164 202.78311 
L 109.306835 201.463306 
L 109.51967 200.143502 
L 109.945341 200.143502 
L 110.158177 199.483601 
L 111.009519 199.483601 
L 111.222354 198.823699 
L 111.43519 198.823699 
L 111.648025 198.163797 
L 113.776381 198.163797 
L 113.989216 197.503895 
L 114.414887 197.503895 
L 114.627723 196.843993 
L 116.543243 196.843993 
L 116.756078 196.184092 
L 116.968914 196.184092 
L 117.181749 195.52419 
L 121.651295 195.52419 
L 121.864131 186.945466 
L 122.502637 186.945466 
L 122.715473 186.285565 
L 124.843828 186.285565 
L 125.056664 185.625663 
L 126.759348 185.625663 
L 126.972183 184.965761 
L 127.397855 184.965761 
L 127.61069 184.305859 
L 128.249197 184.305859 
L 128.674868 182.986056 
L 128.887703 181.666252 
L 129.100539 181.666252 
L 129.313374 180.346448 
L 130.164716 180.346448 
L 130.803223 177.046939 
L 132.505907 177.046939 
L 132.718743 176.387038 
L 133.995756 176.387038 
L 134.208591 174.407332 
L 134.421427 173.74743 
L 135.272769 173.74743 
L 135.485605 173.087529 
L 135.911276 173.087529 
L 136.124111 172.427627 
L 137.401124 172.427627 
L 137.61396 171.767725 
L 139.316644 171.767725 
L 139.52948 171.107823 
L 140.380822 171.107823 
L 140.593657 170.447921 
L 140.806493 170.447921 
L 141.019328 169.128118 
L 141.232164 169.128118 
L 141.444999 168.468216 
L 142.083506 168.468216 
L 142.296341 167.148412 
L 142.722013 167.148412 
L 142.934848 166.488511 
L 143.360519 166.488511 
L 143.573355 164.508805 
L 143.999026 163.189002 
L 148.042901 163.189002 
L 148.255736 161.869198 
L 152.725282 161.869198 
L 153.150953 160.549394 
L 153.78946 160.549394 
L 154.002296 158.569689 
L 154.640802 158.569689 
L 154.853638 156.589984 
L 155.492144 156.589984 
L 155.70498 155.930082 
L 156.343486 155.930082 
L 156.556322 155.27018 
L 161.664375 155.27018 
L 161.87721 153.950376 
L 166.133921 153.950376 
L 166.559592 152.630573 
L 166.985263 152.630573 
L 167.198098 151.970671 
L 171.454809 151.970671 
L 171.667644 149.331064 
L 174.860177 149.331064 
L 175.073013 148.01126 
L 178.691217 148.01126 
L 178.904052 147.351358 
L 180.181065 147.351358 
L 180.393901 145.371653 
L 180.606737 144.711751 
L 180.819572 143.391948 
L 181.032408 143.391948 
L 181.245243 142.732046 
L 181.458079 142.732046 
L 181.670914 142.072144 
L 182.309421 142.072144 
L 182.522256 141.412242 
L 193.376868 141.412242 
L 193.589704 140.75234 
L 193.802539 140.75234 
L 194.015375 140.092439 
L 194.441046 140.092439 
L 194.653881 139.432537 
L 196.995072 139.432537 
L 197.207908 138.772635 
L 197.633579 138.772635 
L 197.846414 138.112733 
L 199.123427 138.112733 
L 199.336263 137.452831 
L 199.761934 137.452831 
L 200.187605 136.133028 
L 201.251783 136.133028 
L 201.464618 135.473126 
L 204.444316 135.473126 
L 204.657151 134.813224 
L 207.424013 134.813224 
L 207.636849 134.153322 
L 209.126697 134.153322 
L 209.339533 133.493421 
L 213.809079 133.493421 
L 214.021914 132.173617 
L 214.660421 132.173617 
L 214.873257 131.513715 
L 216.15027 131.513715 
L 216.575941 130.193912 
L 223.173842 130.193912 
L 223.386678 129.53401 
L 232.32577 129.53401 
L 232.538605 128.874108 
L 232.964276 128.874108 
L 233.177112 128.214206 
L 253.183652 128.214206 
L 253.396487 127.554304 
L 257.866033 127.554304 
L 258.078869 126.894403 
L 261.697073 126.894403 
L 261.909908 125.574599 
L 263.612592 125.574599 
L 263.825428 124.914697 
L 273.190191 124.914697 
L 273.403027 124.254795 
L 282.76779 124.254795 
L 282.980625 123.594894 
L 286.598829 123.594894 
L 286.811665 122.934992 
L 293.196731 122.934992 
L 293.409566 122.27509 
L 296.389264 122.27509 
L 296.602099 121.615188 
L 296.814935 120.295385 
L 311.074915 120.295385 
L 311.287751 119.635483 
L 312.777599 119.635483 
L 312.990435 118.975581 
L 316.182968 118.975581 
L 316.395803 118.315679 
L 335.12533 118.315679 
L 335.338165 117.655777 
L 347.682626 117.655777 
L 347.895462 116.335974 
L 358.111567 116.335974 
L 358.324402 115.676072 
L 363.432455 115.676072 
L 364.070962 113.696367 
L 371.945876 113.696367 
L 372.158712 113.036465 
L 374.712738 113.036465 
L 374.925574 111.056759 
L 375.138409 111.056759 
L 375.138409 111.056759 
" clip-path="url(#p13deee17f5)" style="fill: none; stroke: #b9db57; stroke-width: 1.2; stroke-linecap: round"/>
   </g>
   <g id="line2d_29">
    <path d="M 69.506591 461.464615 
L 69.719426 409.332373 
L 70.145097 397.454141 
L 70.570769 380.956596 
L 70.783604 378.316989 
L 70.99644 377.657087 
L 71.209275 375.677381 
L 71.422111 375.677381 
L 71.634946 367.75856 
L 71.847782 367.098658 
L 72.060617 363.799149 
L 72.273453 362.479345 
L 72.486288 362.479345 
L 72.699124 354.560524 
L 73.124795 351.920917 
L 73.33763 351.920917 
L 73.550466 351.261015 
L 73.976137 349.281309 
L 74.188973 348.621408 
L 74.401808 346.641702 
L 74.614644 346.641702 
L 74.827479 345.9818 
L 78.658519 345.9818 
L 79.297025 342.682291 
L 79.509861 339.382782 
L 79.722696 338.062979 
L 79.935532 334.103568 
L 80.148367 333.443666 
L 80.361203 333.443666 
L 80.999709 328.824354 
L 81.212545 246.99653 
L 81.42538 243.037119 
L 81.851052 243.037119 
L 82.063887 241.057414 
L 82.276723 241.057414 
L 82.915229 237.757905 
L 83.128065 237.098003 
L 83.3409 237.098003 
L 83.553736 236.438101 
L 83.766571 235.118298 
L 83.979407 232.478691 
L 84.617913 232.478691 
L 84.830749 231.818789 
L 85.043584 231.818789 
L 85.25642 229.179182 
L 85.469256 229.179182 
L 85.682091 224.559869 
L 86.746269 224.559869 
L 86.959104 223.899967 
L 88.023282 223.899967 
L 88.236117 215.981146 
L 90.151637 215.981146 
L 90.364473 215.321244 
L 91.641486 215.321244 
L 91.854321 214.661342 
L 103.134604 214.661342 
L 103.560275 213.341538 
L 106.965644 213.341538 
L 107.178479 212.681637 
L 108.881164 212.681637 
L 109.093999 212.021735 
L 111.009519 212.021735 
L 111.222354 211.361833 
L 113.563545 211.361833 
L 113.776381 210.701931 
L 115.479065 210.701931 
L 115.6919 209.382128 
L 116.117572 209.382128 
L 116.330407 177.706841 
L 116.543243 174.407332 
L 116.756078 174.407332 
L 116.968914 172.427627 
L 117.181749 172.427627 
L 117.820256 170.447921 
L 118.245927 170.447921 
L 118.458762 169.78802 
L 119.948611 169.78802 
L 120.161447 168.468216 
L 122.502637 168.468216 
L 122.715473 167.808314 
L 133.357249 167.808314 
L 133.570085 167.148412 
L 133.78292 167.148412 
L 133.995756 166.488511 
L 152.725282 166.488511 
L 152.938118 144.711751 
L 153.150953 143.391948 
L 153.363789 143.391948 
L 153.576624 142.732046 
L 154.002296 142.732046 
L 154.427967 140.75234 
L 154.853638 140.75234 
L 155.066473 140.092439 
L 156.130651 140.092439 
L 156.343486 139.432537 
L 159.323184 139.432537 
L 159.536019 138.772635 
L 161.451539 138.772635 
L 161.87721 137.452831 
L 188.694487 137.452831 
L 188.907322 124.914697 
L 199.336263 124.914697 
L 199.549099 121.615188 
L 210.190875 121.615188 
L 210.40371 118.975581 
L 221.045487 118.975581 
L 221.258322 115.676072 
L 231.687263 115.676072 
L 231.900099 114.356268 
L 255.312007 114.356268 
L 255.524842 113.696367 
L 268.50781 113.696367 
L 268.720645 111.056759 
L 281.916448 111.056759 
L 282.129283 109.736956 
L 295.750757 109.736956 
L 295.963593 108.417152 
L 309.797902 108.417152 
L 310.010738 107.097349 
L 323.845047 107.097349 
L 324.057882 105.117643 
L 348.533968 105.117643 
L 348.746804 103.137938 
L 362.581113 103.137938 
L 362.793948 102.478036 
L 375.138409 102.478036 
L 375.138409 102.478036 
" clip-path="url(#p13deee17f5)" style="fill: none; stroke: #57db94; stroke-width: 1.2; stroke-linecap: round"/>
   </g>
   <g id="line2d_30">
    <path d="M 69.506591 476.312406 
L 69.719426 459.48491 
L 69.932262 455.525499 
L 70.145097 442.987365 
L 70.357933 437.708151 
L 70.783604 417.911097 
L 71.209275 411.312079 
L 71.634946 395.474435 
L 71.847782 392.174926 
L 72.060617 386.895712 
L 72.486288 363.139247 
L 72.699124 309.0273 
L 73.124795 294.50946 
L 73.763301 294.50946 
L 73.976137 285.270835 
L 74.401808 285.270835 
L 74.614644 283.951031 
L 74.827479 283.951031 
L 75.040315 282.631227 
L 75.25315 282.631227 
L 75.891657 280.651522 
L 76.104492 278.011915 
L 76.317328 278.011915 
L 76.530163 275.372308 
L 76.742999 274.712406 
L 76.955834 274.712406 
L 77.16867 273.392602 
L 77.381505 273.392602 
L 77.594341 272.072799 
L 78.232848 272.072799 
L 78.445683 270.093093 
L 78.871354 270.093093 
L 79.08419 268.77329 
L 79.509861 268.77329 
L 79.722696 268.113388 
L 79.935532 268.113388 
L 80.148367 266.133682 
L 80.999709 266.133682 
L 81.212545 265.473781 
L 81.42538 259.534664 
L 81.638216 257.554959 
L 81.851052 257.554959 
L 82.063887 256.895057 
L 82.276723 256.895057 
L 82.489558 252.935646 
L 82.702394 252.275745 
L 83.128065 252.275745 
L 83.3409 250.296039 
L 83.553736 250.296039 
L 83.766571 249.636137 
L 83.979407 249.636137 
L 84.192242 248.976236 
L 84.617913 248.976236 
L 84.830749 243.697021 
L 85.25642 243.697021 
L 85.469256 242.377218 
L 85.682091 237.098003 
L 85.894927 236.438101 
L 86.320598 234.458396 
L 86.533433 234.458396 
L 86.746269 231.818789 
L 95.685361 231.818789 
L 95.898196 223.240065 
L 96.111032 223.240065 
L 96.323867 222.580164 
L 96.749538 222.580164 
L 96.962374 221.920262 
L 97.17521 221.920262 
L 97.388045 221.26036 
L 97.600881 221.26036 
L 97.813716 220.600458 
L 98.452223 220.600458 
L 98.665058 215.321244 
L 99.729236 215.321244 
L 99.942071 214.661342 
L 100.580578 214.661342 
L 100.793414 214.00144 
L 101.006249 214.00144 
L 101.219085 213.341538 
L 102.496098 213.341538 
L 102.708933 212.681637 
L 102.921769 210.042029 
L 114.202052 210.042029 
L 114.414887 209.382128 
L 123.566815 209.382128 
L 123.779651 208.722226 
L 126.120841 208.722226 
L 126.759348 206.74252 
L 126.972183 206.74252 
L 127.185019 206.082619 
L 127.397855 188.925172 
L 128.887703 188.925172 
L 129.100539 188.26527 
L 129.313374 184.965761 
L 139.316644 184.965761 
L 139.52948 177.046939 
L 139.742315 176.387038 
L 140.380822 176.387038 
L 140.593657 175.727136 
L 140.806493 175.727136 
L 141.444999 173.74743 
L 142.296341 173.74743 
L 142.722013 172.427627 
L 147.191559 172.427627 
L 147.404394 171.767725 
L 166.559592 171.767725 
L 166.772427 171.107823 
L 166.985263 171.107823 
L 167.198098 170.447921 
L 169.752125 170.447921 
L 169.96496 169.78802 
L 170.816302 169.78802 
L 171.029138 157.249885 
L 171.241973 155.27018 
L 172.731822 155.27018 
L 172.944658 154.610278 
L 173.796 154.610278 
L 174.008835 153.950376 
L 175.924355 153.950376 
L 176.13719 153.290475 
L 180.819572 153.290475 
L 181.032408 152.630573 
L 181.245243 152.630573 
L 181.458079 148.671162 
L 193.589704 148.671162 
L 194.015375 147.351358 
L 198.484921 147.351358 
L 198.697756 146.031555 
L 199.761934 146.031555 
L 199.97477 145.371653 
L 200.187605 145.371653 
L 200.400441 144.051849 
L 203.380138 144.051849 
L 203.592974 143.391948 
L 204.018645 143.391948 
L 204.23148 142.732046 
L 207.424013 142.732046 
L 207.636849 142.072144 
L 209.552368 142.072144 
L 209.765204 141.412242 
L 213.596243 141.412242 
L 214.021914 139.432537 
L 214.23475 138.772635 
L 225.515033 138.772635 
L 225.727868 136.79293 
L 228.069059 136.79293 
L 228.281895 136.133028 
L 375.138409 136.133028 
L 375.138409 136.133028 
" clip-path="url(#p13deee17f5)" style="fill: none; stroke: #5784db; stroke-width: 1.2; stroke-linecap: round"/>
   </g>
   <g id="line2d_31">
    <path d="M 69.506591 453.875745 
L 69.719426 392.174926 
L 70.145097 370.398167 
L 70.570769 338.722881 
L 70.783604 333.443666 
L 71.209275 330.144157 
L 71.422111 327.50455 
L 71.634946 322.225336 
L 71.847782 320.905532 
L 72.486288 301.108478 
L 73.124795 277.352013 
L 73.550466 277.352013 
L 73.763301 276.032209 
L 73.976137 276.032209 
L 74.188973 275.372308 
L 74.614644 271.412897 
L 74.827479 270.752995 
L 75.040315 268.77329 
L 75.25315 268.77329 
L 75.891657 266.793584 
L 76.317328 266.793584 
L 76.530163 264.813879 
L 76.742999 264.153977 
L 76.955834 264.153977 
L 77.16867 262.834173 
L 77.381505 262.834173 
L 77.594341 260.854468 
L 77.807177 260.854468 
L 78.232848 258.874763 
L 78.871354 258.874763 
L 79.08419 256.895057 
L 79.722696 254.915352 
L 79.935532 254.915352 
L 80.361203 252.935646 
L 80.574038 252.275745 
L 80.786874 252.275745 
L 80.999709 251.615843 
L 81.638216 241.717316 
L 81.851052 241.717316 
L 82.063887 239.077709 
L 82.276723 239.077709 
L 82.702394 234.458396 
L 83.3409 232.478691 
L 83.766571 229.179182 
L 83.979407 227.199476 
L 84.617913 227.199476 
L 85.043584 225.879673 
L 85.682091 217.960851 
L 85.894927 217.300949 
L 86.320598 215.321244 
L 86.533433 215.321244 
L 86.959104 214.00144 
L 88.023282 214.00144 
L 88.236117 206.082619 
L 88.661788 206.082619 
L 88.874624 205.422717 
L 90.151637 205.422717 
L 90.364473 204.762815 
L 90.790144 204.762815 
L 91.002979 204.102913 
L 91.641486 204.102913 
L 91.854321 203.443011 
L 93.34417 203.443011 
L 93.557006 202.78311 
L 94.195512 202.78311 
L 94.408348 200.803404 
L 94.621183 200.143502 
L 96.111032 200.143502 
L 96.323867 199.483601 
L 97.17521 199.483601 
L 97.388045 198.823699 
L 97.600881 198.823699 
L 97.813716 198.163797 
L 98.026552 192.884583 
L 98.239387 192.884583 
L 98.452223 192.224681 
L 99.729236 192.224681 
L 99.942071 191.564779 
L 100.580578 191.564779 
L 100.793414 190.904877 
L 101.006249 190.904877 
L 101.219085 190.244975 
L 101.644756 190.244975 
L 102.070427 188.26527 
L 102.283262 187.605368 
L 102.496098 187.605368 
L 102.708933 186.945466 
L 103.134604 186.945466 
L 103.560275 185.625663 
L 105.901466 185.625663 
L 106.114302 184.965761 
L 106.539973 184.965761 
L 106.752808 184.305859 
L 106.965644 184.305859 
L 107.178479 183.645957 
L 108.881164 183.645957 
L 109.306835 181.666252 
L 109.51967 181.00635 
L 109.945341 181.00635 
L 110.158177 179.686547 
L 111.009519 179.686547 
L 111.222354 179.026645 
L 111.43519 179.026645 
L 111.648025 178.366743 
L 113.563545 178.366743 
L 113.776381 177.706841 
L 114.202052 177.706841 
L 114.414887 177.046939 
L 115.479065 177.046939 
L 115.6919 176.387038 
L 116.330407 176.387038 
L 116.543243 173.74743 
L 116.756078 173.087529 
L 116.968914 171.107823 
L 117.820256 168.468216 
L 118.245927 168.468216 
L 118.458762 167.808314 
L 119.948611 167.808314 
L 120.161447 166.488511 
L 122.502637 166.488511 
L 122.715473 165.168707 
L 126.333677 165.168707 
L 126.546512 164.508805 
L 126.759348 164.508805 
L 127.185019 163.189002 
L 127.397855 163.189002 
L 127.61069 162.5291 
L 128.462032 162.5291 
L 129.100539 160.549394 
L 129.313374 158.569689 
L 130.377552 158.569689 
L 130.590387 157.909787 
L 130.803223 156.589984 
L 132.505907 156.589984 
L 132.718743 155.930082 
L 133.357249 155.930082 
L 133.570085 155.27018 
L 133.78292 155.27018 
L 134.421427 153.290475 
L 135.272769 153.290475 
L 135.485605 152.630573 
L 135.911276 152.630573 
L 136.124111 151.970671 
L 137.401124 151.970671 
L 137.61396 151.310769 
L 139.316644 151.310769 
L 139.742315 149.990966 
L 140.380822 149.990966 
L 140.593657 149.331064 
L 141.019328 149.331064 
L 141.232164 148.671162 
L 141.444999 147.351358 
L 142.296341 147.351358 
L 142.509177 146.691457 
L 142.722013 146.691457 
L 142.934848 146.031555 
L 143.360519 146.031555 
L 143.78619 144.051849 
L 143.999026 143.391948 
L 148.042901 143.391948 
L 148.255736 142.072144 
L 149.532749 142.072144 
L 149.745585 141.412242 
L 149.95842 140.092439 
L 152.725282 140.092439 
L 153.150953 137.452831 
L 153.363789 137.452831 
L 153.576624 136.79293 
L 154.002296 136.79293 
L 154.427967 134.813224 
L 154.853638 134.813224 
L 155.066473 134.153322 
L 156.130651 134.153322 
L 156.343486 133.493421 
L 161.451539 133.493421 
L 161.87721 132.173617 
L 164.856907 132.173617 
L 165.069743 131.513715 
L 166.133921 131.513715 
L 166.346756 130.193912 
L 166.559592 130.193912 
L 166.772427 129.53401 
L 166.985263 129.53401 
L 167.198098 128.874108 
L 169.752125 128.874108 
L 169.96496 128.214206 
L 171.029138 128.214206 
L 171.241973 126.234501 
L 172.731822 126.234501 
L 172.944658 125.574599 
L 173.796 125.574599 
L 174.008835 124.914697 
L 175.924355 124.914697 
L 176.13719 124.254795 
L 180.181065 124.254795 
L 180.393901 122.27509 
L 180.606737 121.615188 
L 181.032408 119.635483 
L 181.458079 119.635483 
L 181.670914 118.975581 
L 182.309421 118.975581 
L 182.522256 118.315679 
L 193.589704 118.315679 
L 193.802539 117.655777 
L 194.015375 117.655777 
L 194.22821 116.995876 
L 196.995072 116.995876 
L 197.207908 116.335974 
L 197.633579 116.335974 
L 197.846414 115.676072 
L 199.123427 115.676072 
L 199.336263 115.01617 
L 199.761934 115.01617 
L 199.97477 113.696367 
L 201.251783 113.696367 
L 201.464618 113.036465 
L 204.018645 113.036465 
L 204.23148 112.376563 
L 207.424013 112.376563 
L 207.636849 111.716661 
L 209.126697 111.716661 
L 209.339533 111.056759 
L 213.596243 111.056759 
L 214.23475 109.077054 
L 216.15027 109.077054 
L 216.575941 107.75725 
L 223.173842 107.75725 
L 223.386678 107.097349 
L 228.069059 107.097349 
L 228.281895 106.437447 
L 250.842461 106.437447 
L 251.055296 105.777545 
L 257.866033 105.777545 
L 258.078869 105.117643 
L 261.697073 105.117643 
L 261.909908 103.79784 
L 263.612592 103.79784 
L 263.825428 103.137938 
L 272.76452 103.137938 
L 272.977356 102.478036 
L 281.916448 102.478036 
L 282.129283 101.818134 
L 293.196731 101.818134 
L 293.409566 101.158232 
L 294.68658 101.158232 
L 294.899415 100.498331 
L 296.389264 100.498331 
L 296.602099 99.178527 
L 310.649244 99.178527 
L 310.86208 98.518625 
L 312.564764 98.518625 
L 312.777599 97.858723 
L 316.182968 97.858723 
L 316.395803 97.198822 
L 335.12533 97.198822 
L 335.338165 96.53892 
L 347.682626 96.53892 
L 347.895462 95.219116 
L 358.111567 95.219116 
L 358.324402 94.559214 
L 363.432455 94.559214 
L 364.070962 92.579509 
L 371.945876 92.579509 
L 372.158712 91.919607 
L 373.435725 91.919607 
L 373.64856 91.259705 
L 373.861396 91.259705 
L 374.074231 90.599804 
L 374.287067 90.599804 
L 374.499903 89.939902 
L 374.925574 89.939902 
L 375.138409 89.28 
L 375.138409 89.28 
" clip-path="url(#p13deee17f5)" style="fill: none; stroke: #c957db; stroke-width: 1.2; stroke-linecap: round"/>
   </g>
   <g id="line2d_32"/>
   <g id="line2d_33"/>
   <g id="line2d_34"/>
   <g id="line2d_35"/>
   <g id="line2d_36"/>
   <g id="patch_3">
    <path d="M 54.225 512.64 
L 54.225 69.12 
" style="fill: none; stroke: #cccccc; stroke-linejoin: miter; stroke-linecap: square"/>
   </g>
   <g id="patch_4">
    <path d="M 54.225 512.64 
L 390.42 512.64 
" style="fill: none; stroke: #cccccc; stroke-linejoin: miter; stroke-linecap: square"/>
   </g>
   <g id="text_29">
    <!-- Edge Coverage History -->
    <g style="fill: #262626" transform="translate(115.431012 63.12)scale(0.165888 -0.165888)">
     <defs>
      <path id="DejaVuSans-Bold-45" d="M 588 4666 
L 3834 4666 
L 3834 3756 
L 1791 3756 
L 1791 2888 
L 3713 2888 
L 3713 1978 
L 1791 1978 
L 1791 909 
L 3903 909 
L 3903 0 
L 588 0 
L 588 4666 
z
" transform="scale(0.015625)"/>
      <path id="DejaVuSans-Bold-64" d="M 2919 2988 
L 2919 4863 
L 4044 4863 
L 4044 0 
L 2919 0 
L 2919 506 
Q 2688 197 2409 53 
Q 2131 -91 1766 -91 
Q 1119 -91 703 423 
Q 288 938 288 1747 
Q 288 2556 703 3070 
Q 1119 3584 1766 3584 
Q 2128 3584 2408 3439 
Q 2688 3294 2919 2988 
z
M 2181 722 
Q 2541 722 2730 984 
Q 2919 1247 2919 1747 
Q 2919 2247 2730 2509 
Q 2541 2772 2181 2772 
Q 1825 2772 1636 2509 
Q 1447 2247 1447 1747 
Q 1447 1247 1636 984 
Q 1825 722 2181 722 
z
" transform="scale(0.015625)"/>
      <path id="DejaVuSans-Bold-67" d="M 2919 594 
Q 2688 288 2409 144 
Q 2131 0 1766 0 
Q 1125 0 706 504 
Q 288 1009 288 1791 
Q 288 2575 706 3076 
Q 1125 3578 1766 3578 
Q 2131 3578 2409 3434 
Q 2688 3291 2919 2981 
L 2919 3500 
L 4044 3500 
L 4044 353 
Q 4044 -491 3511 -936 
Q 2978 -1381 1966 -1381 
Q 1638 -1381 1331 -1331 
Q 1025 -1281 716 -1178 
L 716 -306 
Q 1009 -475 1290 -558 
Q 1572 -641 1856 -641 
Q 2406 -641 2662 -400 
Q 2919 -159 2919 353 
L 2919 594 
z
M 2181 2772 
Q 1834 2772 1640 2515 
Q 1447 2259 1447 1791 
Q 1447 1309 1634 1061 
Q 1822 813 2181 813 
Q 2531 813 2725 1069 
Q 2919 1325 2919 1791 
Q 2919 2259 2725 2515 
Q 2531 2772 2181 2772 
z
" transform="scale(0.015625)"/>
      <path id="DejaVuSans-Bold-65" d="M 4031 1759 
L 4031 1441 
L 1416 1441 
Q 1456 1047 1700 850 
Q 1944 653 2381 653 
Q 2734 653 3104 758 
Q 3475 863 3866 1075 
L 3866 213 
Q 3469 63 3072 -14 
Q 2675 -91 2278 -91 
Q 1328 -91 801 392 
Q 275 875 275 1747 
Q 275 2603 792 3093 
Q 1309 3584 2216 3584 
Q 3041 3584 3536 3087 
Q 4031 2591 4031 1759 
z
M 2881 2131 
Q 2881 2450 2695 2645 
Q 2509 2841 2209 2841 
Q 1884 2841 1681 2658 
Q 1478 2475 1428 2131 
L 2881 2131 
z
" transform="scale(0.015625)"/>
      <path id="DejaVuSans-Bold-20" transform="scale(0.015625)"/>
      <path id="DejaVuSans-Bold-43" d="M 4288 256 
Q 3956 84 3597 -3 
Q 3238 -91 2847 -91 
Q 1681 -91 1000 561 
Q 319 1213 319 2328 
Q 319 3447 1000 4098 
Q 1681 4750 2847 4750 
Q 3238 4750 3597 4662 
Q 3956 4575 4288 4403 
L 4288 3438 
Q 3953 3666 3628 3772 
Q 3303 3878 2944 3878 
Q 2300 3878 1931 3465 
Q 1563 3053 1563 2328 
Q 1563 1606 1931 1193 
Q 2300 781 2944 781 
Q 3303 781 3628 887 
Q 3953 994 4288 1222 
L 4288 256 
z
" transform="scale(0.015625)"/>
      <path id="DejaVuSans-Bold-6f" d="M 2203 2784 
Q 1831 2784 1636 2517 
Q 1441 2250 1441 1747 
Q 1441 1244 1636 976 
Q 1831 709 2203 709 
Q 2569 709 2762 976 
Q 2956 1244 2956 1747 
Q 2956 2250 2762 2517 
Q 2569 2784 2203 2784 
z
M 2203 3584 
Q 3106 3584 3614 3096 
Q 4122 2609 4122 1747 
Q 4122 884 3614 396 
Q 3106 -91 2203 -91 
Q 1297 -91 786 396 
Q 275 884 275 1747 
Q 275 2609 786 3096 
Q 1297 3584 2203 3584 
z
" transform="scale(0.015625)"/>
      <path id="DejaVuSans-Bold-76" d="M 97 3500 
L 1216 3500 
L 2088 1081 
L 2956 3500 
L 4078 3500 
L 2700 0 
L 1472 0 
L 97 3500 
z
" transform="scale(0.015625)"/>
      <path id="DejaVuSans-Bold-72" d="M 3138 2547 
Q 2991 2616 2845 2648 
Q 2700 2681 2553 2681 
Q 2122 2681 1889 2404 
Q 1656 2128 1656 1613 
L 1656 0 
L 538 0 
L 538 3500 
L 1656 3500 
L 1656 2925 
Q 1872 3269 2151 3426 
Q 2431 3584 2822 3584 
Q 2878 3584 2943 3579 
Q 3009 3575 3134 3559 
L 3138 2547 
z
" transform="scale(0.015625)"/>
      <path id="DejaVuSans-Bold-61" d="M 2106 1575 
Q 1756 1575 1579 1456 
Q 1403 1338 1403 1106 
Q 1403 894 1545 773 
Q 1688 653 1941 653 
Q 2256 653 2472 879 
Q 2688 1106 2688 1447 
L 2688 1575 
L 2106 1575 
z
M 3816 1997 
L 3816 0 
L 2688 0 
L 2688 519 
Q 2463 200 2181 54 
Q 1900 -91 1497 -91 
Q 953 -91 614 226 
Q 275 544 275 1050 
Q 275 1666 698 1953 
Q 1122 2241 2028 2241 
L 2688 2241 
L 2688 2328 
Q 2688 2594 2478 2717 
Q 2269 2841 1825 2841 
Q 1466 2841 1156 2769 
Q 847 2697 581 2553 
L 581 3406 
Q 941 3494 1303 3539 
Q 1666 3584 2028 3584 
Q 2975 3584 3395 3211 
Q 3816 2838 3816 1997 
z
" transform="scale(0.015625)"/>
      <path id="DejaVuSans-Bold-48" d="M 588 4666 
L 1791 4666 
L 1791 2888 
L 3566 2888 
L 3566 4666 
L 4769 4666 
L 4769 0 
L 3566 0 
L 3566 1978 
L 1791 1978 
L 1791 0 
L 588 0 
L 588 4666 
z
" transform="scale(0.015625)"/>
      <path id="DejaVuSans-Bold-69" d="M 538 3500 
L 1656 3500 
L 1656 0 
L 538 0 
L 538 3500 
z
M 538 4863 
L 1656 4863 
L 1656 3950 
L 538 3950 
L 538 4863 
z
" transform="scale(0.015625)"/>
      <path id="DejaVuSans-Bold-73" d="M 3272 3391 
L 3272 2541 
Q 2913 2691 2578 2766 
Q 2244 2841 1947 2841 
Q 1628 2841 1473 2761 
Q 1319 2681 1319 2516 
Q 1319 2381 1436 2309 
Q 1553 2238 1856 2203 
L 2053 2175 
Q 2913 2066 3209 1816 
Q 3506 1566 3506 1031 
Q 3506 472 3093 190 
Q 2681 -91 1863 -91 
Q 1516 -91 1145 -36 
Q 775 19 384 128 
L 384 978 
Q 719 816 1070 734 
Q 1422 653 1784 653 
Q 2113 653 2278 743 
Q 2444 834 2444 1013 
Q 2444 1163 2330 1236 
Q 2216 1309 1875 1350 
L 1678 1375 
Q 931 1469 631 1722 
Q 331 1975 331 2491 
Q 331 3047 712 3315 
Q 1094 3584 1881 3584 
Q 2191 3584 2531 3537 
Q 2872 3491 3272 3391 
z
" transform="scale(0.015625)"/>
      <path id="DejaVuSans-Bold-74" d="M 1759 4494 
L 1759 3500 
L 2913 3500 
L 2913 2700 
L 1759 2700 
L 1759 1216 
Q 1759 972 1856 886 
Q 1953 800 2241 800 
L 2816 800 
L 2816 0 
L 1856 0 
Q 1194 0 917 276 
Q 641 553 641 1216 
L 641 2700 
L 84 2700 
L 84 3500 
L 641 3500 
L 641 4494 
L 1759 4494 
z
" transform="scale(0.015625)"/>
      <path id="DejaVuSans-Bold-79" d="M 78 3500 
L 1197 3500 
L 2138 1125 
L 2938 3500 
L 4056 3500 
L 2584 -331 
Q 2363 -916 2067 -1148 
Q 1772 -1381 1288 -1381 
L 641 -1381 
L 641 -647 
L 991 -647 
Q 1275 -647 1404 -556 
Q 1534 -466 1606 -231 
L 1638 -134 
L 78 3500 
z
" transform="scale(0.015625)"/>
     </defs>
     <use xlink:href="#DejaVuSans-Bold-45"/>
     <use xlink:href="#DejaVuSans-Bold-64" x="68.310547"/>
     <use xlink:href="#DejaVuSans-Bold-67" x="139.892578"/>
     <use xlink:href="#DejaVuSans-Bold-65" x="211.474609"/>
     <use xlink:href="#DejaVuSans-Bold-20" x="279.296875"/>
     <use xlink:href="#DejaVuSans-Bold-43" x="314.111328"/>
     <use xlink:href="#DejaVuSans-Bold-6f" x="387.5"/>
     <use xlink:href="#DejaVuSans-Bold-76" x="456.201172"/>
     <use xlink:href="#DejaVuSans-Bold-65" x="521.386719"/>
     <use xlink:href="#DejaVuSans-Bold-72" x="589.208984"/>
     <use xlink:href="#DejaVuSans-Bold-61" x="638.525391"/>
     <use xlink:href="#DejaVuSans-Bold-67" x="706.005859"/>
     <use xlink:href="#DejaVuSans-Bold-65" x="777.587891"/>
     <use xlink:href="#DejaVuSans-Bold-20" x="845.410156"/>
     <use xlink:href="#DejaVuSans-Bold-48" x="880.224609"/>
     <use xlink:href="#DejaVuSans-Bold-69" x="963.916016"/>
     <use xlink:href="#DejaVuSans-Bold-73" x="998.193359"/>
     <use xlink:href="#DejaVuSans-Bold-74" x="1057.714844"/>
     <use xlink:href="#DejaVuSans-Bold-6f" x="1105.517578"/>
     <use xlink:href="#DejaVuSans-Bold-72" x="1174.21875"/>
     <use xlink:href="#DejaVuSans-Bold-79" x="1223.535156"/>
    </g>
   </g>
   <g id="legend_1">
    <g id="patch_5">
     <path d="M 267.132 508.24 
L 384.26 508.24 
Q 386.02 508.24 386.02 506.48 
L 386.02 428.8405 
Q 386.02 427.0805 384.26 427.0805 
L 267.132 427.0805 
Q 265.372 427.0805 265.372 428.8405 
L 265.372 506.48 
Q 265.372 508.24 267.132 508.24 
z
" style="fill: #ffffff; opacity: 0.8; stroke: #cccccc; stroke-width: 0.8; stroke-linejoin: miter"/>
    </g>
    <g id="text_30">
     <!-- fuzzer -->
     <g style="fill: #262626" transform="translate(310.999 437.895)scale(0.096 -0.096)">
      <defs>
       <path id="DejaVuSans-66" d="M 2375 4863 
L 2375 4384 
L 1825 4384 
Q 1516 4384 1395 4259 
Q 1275 4134 1275 3809 
L 1275 3500 
L 2222 3500 
L 2222 3053 
L 1275 3053 
L 1275 0 
L 697 0 
L 697 3053 
L 147 3053 
L 147 3500 
L 697 3500 
L 697 3744 
Q 697 4328 969 4595 
Q 1241 4863 1831 4863 
L 2375 4863 
z
" transform="scale(0.015625)"/>
       <path id="DejaVuSans-7a" d="M 353 3500 
L 3084 3500 
L 3084 2975 
L 922 459 
L 3084 459 
L 3084 0 
L 275 0 
L 275 525 
L 2438 3041 
L 353 3041 
L 353 3500 
z
" transform="scale(0.015625)"/>
      </defs>
      <use xlink:href="#DejaVuSans-66"/>
      <use xlink:href="#DejaVuSans-75" x="35.205078"/>
      <use xlink:href="#DejaVuSans-7a" x="98.583984"/>
      <use xlink:href="#DejaVuSans-7a" x="151.074219"/>
      <use xlink:href="#DejaVuSans-65" x="203.564453"/>
      <use xlink:href="#DejaVuSans-72" x="265.087891"/>
     </g>
    </g>
    <g id="line2d_37">
     <path d="M 268.892 447.898125 
L 277.692 447.898125 
L 286.492 447.898125 
" style="fill: none; stroke: #db5f57; stroke-width: 1.2; stroke-linecap: round"/>
    </g>
    <g id="text_31">
     <!-- aflfast-0-exid21 -->
     <g style="fill: #262626" transform="translate(293.532 450.978125)scale(0.088 -0.088)">
      <defs>
       <path id="DejaVuSans-6c" d="M 603 4863 
L 1178 4863 
L 1178 0 
L 603 0 
L 603 4863 
z
" transform="scale(0.015625)"/>
       <path id="DejaVuSans-2d" d="M 313 2009 
L 1997 2009 
L 1997 1497 
L 313 1497 
L 313 2009 
z
" transform="scale(0.015625)"/>
       <path id="DejaVuSans-78" d="M 3513 3500 
L 2247 1797 
L 3578 0 
L 2900 0 
L 1881 1375 
L 863 0 
L 184 0 
L 1544 1831 
L 300 3500 
L 978 3500 
L 1906 2253 
L 2834 3500 
L 3513 3500 
z
" transform="scale(0.015625)"/>
      </defs>
      <use xlink:href="#DejaVuSans-61"/>
      <use xlink:href="#DejaVuSans-66" x="61.279297"/>
      <use xlink:href="#DejaVuSans-6c" x="96.484375"/>
      <use xlink:href="#DejaVuSans-66" x="124.267578"/>
      <use xlink:href="#DejaVuSans-61" x="159.472656"/>
      <use xlink:href="#DejaVuSans-73" x="220.751953"/>
      <use xlink:href="#DejaVuSans-74" x="272.851562"/>
      <use xlink:href="#DejaVuSans-2d" x="312.060547"/>
      <use xlink:href="#DejaVuSans-30" x="348.144531"/>
      <use xlink:href="#DejaVuSans-2d" x="411.767578"/>
      <use xlink:href="#DejaVuSans-65" x="447.851562"/>
      <use xlink:href="#DejaVuSans-78" x="507.625"/>
      <use xlink:href="#DejaVuSans-69" x="566.804688"/>
      <use xlink:href="#DejaVuSans-64" x="594.587891"/>
      <use xlink:href="#DejaVuSans-32" x="658.064453"/>
      <use xlink:href="#DejaVuSans-31" x="721.6875"/>
     </g>
    </g>
    <g id="line2d_38">
     <path d="M 268.892 460.814875 
L 277.692 460.814875 
L 286.492 460.814875 
" style="fill: none; stroke: #b9db57; stroke-width: 1.2; stroke-linecap: round"/>
    </g>
    <g id="text_32">
     <!-- afl-0-exid21 -->
     <g style="fill: #262626" transform="translate(293.532 463.894875)scale(0.088 -0.088)">
      <use xlink:href="#DejaVuSans-61"/>
      <use xlink:href="#DejaVuSans-66" x="61.279297"/>
      <use xlink:href="#DejaVuSans-6c" x="96.484375"/>
      <use xlink:href="#DejaVuSans-2d" x="124.267578"/>
      <use xlink:href="#DejaVuSans-30" x="160.351562"/>
      <use xlink:href="#DejaVuSans-2d" x="223.974609"/>
      <use xlink:href="#DejaVuSans-65" x="260.058594"/>
      <use xlink:href="#DejaVuSans-78" x="319.832031"/>
      <use xlink:href="#DejaVuSans-69" x="379.011719"/>
      <use xlink:href="#DejaVuSans-64" x="406.794922"/>
      <use xlink:href="#DejaVuSans-32" x="470.271484"/>
      <use xlink:href="#DejaVuSans-31" x="533.894531"/>
     </g>
    </g>
    <g id="line2d_39">
     <path d="M 268.892 473.731625 
L 277.692 473.731625 
L 286.492 473.731625 
" style="fill: none; stroke: #57db94; stroke-width: 1.2; stroke-linecap: round"/>
    </g>
    <g id="text_33">
     <!-- aflplusplus-0-exid21 -->
     <g style="fill: #262626" transform="translate(293.532 476.811625)scale(0.088 -0.088)">
      <defs>
       <path id="DejaVuSans-70" d="M 1159 525 
L 1159 -1331 
L 581 -1331 
L 581 3500 
L 1159 3500 
L 1159 2969 
Q 1341 3281 1617 3432 
Q 1894 3584 2278 3584 
Q 2916 3584 3314 3078 
Q 3713 2572 3713 1747 
Q 3713 922 3314 415 
Q 2916 -91 2278 -91 
Q 1894 -91 1617 61 
Q 1341 213 1159 525 
z
M 3116 1747 
Q 3116 2381 2855 2742 
Q 2594 3103 2138 3103 
Q 1681 3103 1420 2742 
Q 1159 2381 1159 1747 
Q 1159 1113 1420 752 
Q 1681 391 2138 391 
Q 2594 391 2855 752 
Q 3116 1113 3116 1747 
z
" transform="scale(0.015625)"/>
      </defs>
      <use xlink:href="#DejaVuSans-61"/>
      <use xlink:href="#DejaVuSans-66" x="61.279297"/>
      <use xlink:href="#DejaVuSans-6c" x="96.484375"/>
      <use xlink:href="#DejaVuSans-70" x="124.267578"/>
      <use xlink:href="#DejaVuSans-6c" x="187.744141"/>
      <use xlink:href="#DejaVuSans-75" x="215.527344"/>
      <use xlink:href="#DejaVuSans-73" x="278.90625"/>
      <use xlink:href="#DejaVuSans-70" x="331.005859"/>
      <use xlink:href="#DejaVuSans-6c" x="394.482422"/>
      <use xlink:href="#DejaVuSans-75" x="422.265625"/>
      <use xlink:href="#DejaVuSans-73" x="485.644531"/>
      <use xlink:href="#DejaVuSans-2d" x="537.744141"/>
      <use xlink:href="#DejaVuSans-30" x="573.828125"/>
      <use xlink:href="#DejaVuSans-2d" x="637.451172"/>
      <use xlink:href="#DejaVuSans-65" x="673.535156"/>
      <use xlink:href="#DejaVuSans-78" x="733.308594"/>
      <use xlink:href="#DejaVuSans-69" x="792.488281"/>
      <use xlink:href="#DejaVuSans-64" x="820.271484"/>
      <use xlink:href="#DejaVuSans-32" x="883.748047"/>
      <use xlink:href="#DejaVuSans-31" x="947.371094"/>
     </g>
    </g>
    <g id="line2d_40">
     <path d="M 268.892 486.648375 
L 277.692 486.648375 
L 286.492 486.648375 
" style="fill: none; stroke: #5784db; stroke-width: 1.2; stroke-linecap: round"/>
    </g>
    <g id="text_34">
     <!-- fairfuzz-0-exid21 -->
     <g style="fill: #262626" transform="translate(293.532 489.728375)scale(0.088 -0.088)">
      <use xlink:href="#DejaVuSans-66"/>
      <use xlink:href="#DejaVuSans-61" x="35.205078"/>
      <use xlink:href="#DejaVuSans-69" x="96.484375"/>
      <use xlink:href="#DejaVuSans-72" x="124.267578"/>
      <use xlink:href="#DejaVuSans-66" x="165.380859"/>
      <use xlink:href="#DejaVuSans-75" x="200.585938"/>
      <use xlink:href="#DejaVuSans-7a" x="263.964844"/>
      <use xlink:href="#DejaVuSans-7a" x="316.455078"/>
      <use xlink:href="#DejaVuSans-2d" x="368.945312"/>
      <use xlink:href="#DejaVuSans-30" x="405.029297"/>
      <use xlink:href="#DejaVuSans-2d" x="468.652344"/>
      <use xlink:href="#DejaVuSans-65" x="504.736328"/>
      <use xlink:href="#DejaVuSans-78" x="564.509766"/>
      <use xlink:href="#DejaVuSans-69" x="623.689453"/>
      <use xlink:href="#DejaVuSans-64" x="651.472656"/>
      <use xlink:href="#DejaVuSans-32" x="714.949219"/>
      <use xlink:href="#DejaVuSans-31" x="778.572266"/>
     </g>
    </g>
    <g id="line2d_41">
     <path d="M 268.892 499.565125 
L 277.692 499.565125 
L 286.492 499.565125 
" style="fill: none; stroke: #c957db; stroke-width: 1.2; stroke-linecap: round"/>
    </g>
    <g id="text_35">
     <!-- fuzzer_global -->
     <g style="fill: #262626" transform="translate(293.532 502.645125)scale(0.088 -0.088)">
      <defs>
       <path id="DejaVuSans-5f" d="M 3263 -1063 
L 3263 -1509 
L -63 -1509 
L -63 -1063 
L 3263 -1063 
z
" transform="scale(0.015625)"/>
       <path id="DejaVuSans-62" d="M 3116 1747 
Q 3116 2381 2855 2742 
Q 2594 3103 2138 3103 
Q 1681 3103 1420 2742 
Q 1159 2381 1159 1747 
Q 1159 1113 1420 752 
Q 1681 391 2138 391 
Q 2594 391 2855 752 
Q 3116 1113 3116 1747 
z
M 1159 2969 
Q 1341 3281 1617 3432 
Q 1894 3584 2278 3584 
Q 2916 3584 3314 3078 
Q 3713 2572 3713 1747 
Q 3713 922 3314 415 
Q 2916 -91 2278 -91 
Q 1894 -91 1617 61 
Q 1341 213 1159 525 
L 1159 0 
L 581 0 
L 581 4863 
L 1159 4863 
L 1159 2969 
z
" transform="scale(0.015625)"/>
      </defs>
      <use xlink:href="#DejaVuSans-66"/>
      <use xlink:href="#DejaVuSans-75" x="35.205078"/>
      <use xlink:href="#DejaVuSans-7a" x="98.583984"/>
      <use xlink:href="#DejaVuSans-7a" x="151.074219"/>
      <use xlink:href="#DejaVuSans-65" x="203.564453"/>
      <use xlink:href="#DejaVuSans-72" x="265.087891"/>
      <use xlink:href="#DejaVuSans-5f" x="306.201172"/>
      <use xlink:href="#DejaVuSans-67" x="356.201172"/>
      <use xlink:href="#DejaVuSans-6c" x="419.677734"/>
      <use xlink:href="#DejaVuSans-6f" x="447.460938"/>
      <use xlink:href="#DejaVuSans-62" x="508.642578"/>
      <use xlink:href="#DejaVuSans-61" x="572.119141"/>
      <use xlink:href="#DejaVuSans-6c" x="633.398438"/>
     </g>
    </g>
   </g>
  </g>
 </g>
 <defs>
  <clipPath id="p13deee17f5">
   <rect x="54.225" y="69.12" width="336.195" height="443.52"/>
  </clipPath>
 </defs>
</svg>
