<?xml version="1.0" encoding="utf-8" standalone="no"?>
<!DOCTYPE svg PUBLIC "-//W3C//DTD SVG 1.1//EN"
  "http://www.w3.org/Graphics/SVG/1.1/DTD/svg11.dtd">
<svg xmlns:xlink="http://www.w3.org/1999/xlink" width="434.7pt" height="576pt" viewBox="0 0 434.7 576" xmlns="http://www.w3.org/2000/svg" version="1.1">
 <metadata>
  <rdf:RDF xmlns:dc="http://purl.org/dc/elements/1.1/" xmlns:cc="http://creativecommons.org/ns#" xmlns:rdf="http://www.w3.org/1999/02/22-rdf-syntax-ns#">
   <cc:Work>
    <dc:type rdf:resource="http://purl.org/dc/dcmitype/StillImage"/>
    <dc:date>2022-09-15T10:38:47.250974</dc:date>
    <dc:format>image/svg+xml</dc:format>
    <dc:creator>
     <cc:Agent>
      <dc:title>Matplotlib v3.5.3, https://matplotlib.org/</dc:title>
     </cc:Agent>
    </dc:creator>
   </cc:Work>
  </rdf:RDF>
 </metadata>
 <defs>
  <style type="text/css">*{stroke-linejoin: round; stroke-linecap: butt}</style>
 </defs>
 <g id="figure_1">
  <g id="patch_1">
   <path d="M 0 576 
L 434.7 576 
L 434.7 0 
L 0 0 
z
" style="fill: #ffffff"/>
  </g>
  <g id="axes_1">
   <g id="patch_2">
    <path d="M 54.3375 512.64 
L 391.23 512.64 
L 391.23 69.12 
L 54.3375 69.12 
z
" style="fill: #ffffff"/>
   </g>
   <g id="matplotlib.axis_1">
    <g id="xtick_1">
     <g id="line2d_1">
      <path d="M 69.650795 512.64 
L 69.650795 69.12 
" clip-path="url(#pf5785cb731)" style="fill: none; stroke: #cccccc; stroke-width: 0.8; stroke-linecap: round"/>
     </g>
     <g id="text_1">
      <!-- 0 -->
      <g style="fill: #262626" transform="translate(69.388282 529.627249)rotate(-45)scale(0.088 -0.088)">
       <defs>
        <path id="DejaVuSans-30" d="M 2034 4250 
Q 1547 4250 1301 3770 
Q 1056 3291 1056 2328 
Q 1056 1369 1301 889 
Q 1547 409 2034 409 
Q 2525 409 2770 889 
Q 3016 1369 3016 2328 
Q 3016 3291 2770 3770 
Q 2525 4250 2034 4250 
z
M 2034 4750 
Q 2819 4750 3233 4129 
Q 3647 3509 3647 2328 
Q 3647 1150 3233 529 
Q 2819 -91 2034 -91 
Q 1250 -91 836 529 
Q 422 1150 422 2328 
Q 422 3509 836 4129 
Q 1250 4750 2034 4750 
z
" transform="scale(0.015625)"/>
       </defs>
       <use xlink:href="#DejaVuSans-30"/>
      </g>
     </g>
    </g>
    <g id="xtick_2">
     <g id="line2d_2">
      <path d="M 86.677392 512.64 
L 86.677392 69.12 
" clip-path="url(#pf5785cb731)" style="fill: none; stroke: #cccccc; stroke-width: 0.8; stroke-linecap: round"/>
     </g>
     <g id="text_2">
      <!-- 80 -->
      <g style="fill: #262626" transform="translate(84.435333 533.58634)rotate(-45)scale(0.088 -0.088)">
       <defs>
        <path id="DejaVuSans-38" d="M 2034 2216 
Q 1584 2216 1326 1975 
Q 1069 1734 1069 1313 
Q 1069 891 1326 650 
Q 1584 409 2034 409 
Q 2484 409 2743 651 
Q 3003 894 3003 1313 
Q 3003 1734 2745 1975 
Q 2488 2216 2034 2216 
z
M 1403 2484 
Q 997 2584 770 2862 
Q 544 3141 544 3541 
Q 544 4100 942 4425 
Q 1341 4750 2034 4750 
Q 2731 4750 3128 4425 
Q 3525 4100 3525 3541 
Q 3525 3141 3298 2862 
Q 3072 2584 2669 2484 
Q 3125 2378 3379 2068 
Q 3634 1759 3634 1313 
Q 3634 634 3220 271 
Q 2806 -91 2034 -91 
Q 1263 -91 848 271 
Q 434 634 434 1313 
Q 434 1759 690 2068 
Q 947 2378 1403 2484 
z
M 1172 3481 
Q 1172 3119 1398 2916 
Q 1625 2713 2034 2713 
Q 2441 2713 2670 2916 
Q 2900 3119 2900 3481 
Q 2900 3844 2670 4047 
Q 2441 4250 2034 4250 
Q 1625 4250 1398 4047 
Q 1172 3844 1172 3481 
z
" transform="scale(0.015625)"/>
       </defs>
       <use xlink:href="#DejaVuSans-38"/>
       <use xlink:href="#DejaVuSans-30" x="63.623047"/>
      </g>
     </g>
    </g>
    <g id="xtick_3">
     <g id="line2d_3">
      <path d="M 103.703989 512.64 
L 103.703989 69.12 
" clip-path="url(#pf5785cb731)" style="fill: none; stroke: #cccccc; stroke-width: 0.8; stroke-linecap: round"/>
     </g>
     <g id="text_3">
      <!-- 160 -->
      <g style="fill: #262626" transform="translate(99.482385 537.54543)rotate(-45)scale(0.088 -0.088)">
       <defs>
        <path id="DejaVuSans-31" d="M 794 531 
L 1825 531 
L 1825 4091 
L 703 3866 
L 703 4441 
L 1819 4666 
L 2450 4666 
L 2450 531 
L 3481 531 
L 3481 0 
L 794 0 
L 794 531 
z
" transform="scale(0.015625)"/>
        <path id="DejaVuSans-36" d="M 2113 2584 
Q 1688 2584 1439 2293 
Q 1191 2003 1191 1497 
Q 1191 994 1439 701 
Q 1688 409 2113 409 
Q 2538 409 2786 701 
Q 3034 994 3034 1497 
Q 3034 2003 2786 2293 
Q 2538 2584 2113 2584 
z
M 3366 4563 
L 3366 3988 
Q 3128 4100 2886 4159 
Q 2644 4219 2406 4219 
Q 1781 4219 1451 3797 
Q 1122 3375 1075 2522 
Q 1259 2794 1537 2939 
Q 1816 3084 2150 3084 
Q 2853 3084 3261 2657 
Q 3669 2231 3669 1497 
Q 3669 778 3244 343 
Q 2819 -91 2113 -91 
Q 1303 -91 875 529 
Q 447 1150 447 2328 
Q 447 3434 972 4092 
Q 1497 4750 2381 4750 
Q 2619 4750 2861 4703 
Q 3103 4656 3366 4563 
z
" transform="scale(0.015625)"/>
       </defs>
       <use xlink:href="#DejaVuSans-31"/>
       <use xlink:href="#DejaVuSans-36" x="63.623047"/>
       <use xlink:href="#DejaVuSans-30" x="127.246094"/>
      </g>
     </g>
    </g>
    <g id="xtick_4">
     <g id="line2d_4">
      <path d="M 120.730586 512.64 
L 120.730586 69.12 
" clip-path="url(#pf5785cb731)" style="fill: none; stroke: #cccccc; stroke-width: 0.8; stroke-linecap: round"/>
     </g>
     <g id="text_4">
      <!-- 240 -->
      <g style="fill: #262626" transform="translate(116.508981 537.54543)rotate(-45)scale(0.088 -0.088)">
       <defs>
        <path id="DejaVuSans-32" d="M 1228 531 
L 3431 531 
L 3431 0 
L 469 0 
L 469 531 
Q 828 903 1448 1529 
Q 2069 2156 2228 2338 
Q 2531 2678 2651 2914 
Q 2772 3150 2772 3378 
Q 2772 3750 2511 3984 
Q 2250 4219 1831 4219 
Q 1534 4219 1204 4116 
Q 875 4013 500 3803 
L 500 4441 
Q 881 4594 1212 4672 
Q 1544 4750 1819 4750 
Q 2544 4750 2975 4387 
Q 3406 4025 3406 3419 
Q 3406 3131 3298 2873 
Q 3191 2616 2906 2266 
Q 2828 2175 2409 1742 
Q 1991 1309 1228 531 
z
" transform="scale(0.015625)"/>
        <path id="DejaVuSans-34" d="M 2419 4116 
L 825 1625 
L 2419 1625 
L 2419 4116 
z
M 2253 4666 
L 3047 4666 
L 3047 1625 
L 3713 1625 
L 3713 1100 
L 3047 1100 
L 3047 0 
L 2419 0 
L 2419 1100 
L 313 1100 
L 313 1709 
L 2253 4666 
z
" transform="scale(0.015625)"/>
       </defs>
       <use xlink:href="#DejaVuSans-32"/>
       <use xlink:href="#DejaVuSans-34" x="63.623047"/>
       <use xlink:href="#DejaVuSans-30" x="127.246094"/>
      </g>
     </g>
    </g>
    <g id="xtick_5">
     <g id="line2d_5">
      <path d="M 137.757182 512.64 
L 137.757182 69.12 
" clip-path="url(#pf5785cb731)" style="fill: none; stroke: #cccccc; stroke-width: 0.8; stroke-linecap: round"/>
     </g>
     <g id="text_5">
      <!-- 320 -->
      <g style="fill: #262626" transform="translate(133.535578 537.54543)rotate(-45)scale(0.088 -0.088)">
       <defs>
        <path id="DejaVuSans-33" d="M 2597 2516 
Q 3050 2419 3304 2112 
Q 3559 1806 3559 1356 
Q 3559 666 3084 287 
Q 2609 -91 1734 -91 
Q 1441 -91 1130 -33 
Q 819 25 488 141 
L 488 750 
Q 750 597 1062 519 
Q 1375 441 1716 441 
Q 2309 441 2620 675 
Q 2931 909 2931 1356 
Q 2931 1769 2642 2001 
Q 2353 2234 1838 2234 
L 1294 2234 
L 1294 2753 
L 1863 2753 
Q 2328 2753 2575 2939 
Q 2822 3125 2822 3475 
Q 2822 3834 2567 4026 
Q 2313 4219 1838 4219 
Q 1578 4219 1281 4162 
Q 984 4106 628 3988 
L 628 4550 
Q 988 4650 1302 4700 
Q 1616 4750 1894 4750 
Q 2613 4750 3031 4423 
Q 3450 4097 3450 3541 
Q 3450 3153 3228 2886 
Q 3006 2619 2597 2516 
z
" transform="scale(0.015625)"/>
       </defs>
       <use xlink:href="#DejaVuSans-33"/>
       <use xlink:href="#DejaVuSans-32" x="63.623047"/>
       <use xlink:href="#DejaVuSans-30" x="127.246094"/>
      </g>
     </g>
    </g>
    <g id="xtick_6">
     <g id="line2d_6">
      <path d="M 154.783779 512.64 
L 154.783779 69.12 
" clip-path="url(#pf5785cb731)" style="fill: none; stroke: #cccccc; stroke-width: 0.8; stroke-linecap: round"/>
     </g>
     <g id="text_6">
      <!-- 400 -->
      <g style="fill: #262626" transform="translate(150.562175 537.54543)rotate(-45)scale(0.088 -0.088)">
       <use xlink:href="#DejaVuSans-34"/>
       <use xlink:href="#DejaVuSans-30" x="63.623047"/>
       <use xlink:href="#DejaVuSans-30" x="127.246094"/>
      </g>
     </g>
    </g>
    <g id="xtick_7">
     <g id="line2d_7">
      <path d="M 171.810376 512.64 
L 171.810376 69.12 
" clip-path="url(#pf5785cb731)" style="fill: none; stroke: #cccccc; stroke-width: 0.8; stroke-linecap: round"/>
     </g>
     <g id="text_7">
      <!-- 480 -->
      <g style="fill: #262626" transform="translate(167.588772 537.54543)rotate(-45)scale(0.088 -0.088)">
       <use xlink:href="#DejaVuSans-34"/>
       <use xlink:href="#DejaVuSans-38" x="63.623047"/>
       <use xlink:href="#DejaVuSans-30" x="127.246094"/>
      </g>
     </g>
    </g>
    <g id="xtick_8">
     <g id="line2d_8">
      <path d="M 188.836973 512.64 
L 188.836973 69.12 
" clip-path="url(#pf5785cb731)" style="fill: none; stroke: #cccccc; stroke-width: 0.8; stroke-linecap: round"/>
     </g>
     <g id="text_8">
      <!-- 560 -->
      <g style="fill: #262626" transform="translate(184.615368 537.54543)rotate(-45)scale(0.088 -0.088)">
       <defs>
        <path id="DejaVuSans-35" d="M 691 4666 
L 3169 4666 
L 3169 4134 
L 1269 4134 
L 1269 2991 
Q 1406 3038 1543 3061 
Q 1681 3084 1819 3084 
Q 2600 3084 3056 2656 
Q 3513 2228 3513 1497 
Q 3513 744 3044 326 
Q 2575 -91 1722 -91 
Q 1428 -91 1123 -41 
Q 819 9 494 109 
L 494 744 
Q 775 591 1075 516 
Q 1375 441 1709 441 
Q 2250 441 2565 725 
Q 2881 1009 2881 1497 
Q 2881 1984 2565 2268 
Q 2250 2553 1709 2553 
Q 1456 2553 1204 2497 
Q 953 2441 691 2322 
L 691 4666 
z
" transform="scale(0.015625)"/>
       </defs>
       <use xlink:href="#DejaVuSans-35"/>
       <use xlink:href="#DejaVuSans-36" x="63.623047"/>
       <use xlink:href="#DejaVuSans-30" x="127.246094"/>
      </g>
     </g>
    </g>
    <g id="xtick_9">
     <g id="line2d_9">
      <path d="M 205.863569 512.64 
L 205.863569 69.12 
" clip-path="url(#pf5785cb731)" style="fill: none; stroke: #cccccc; stroke-width: 0.8; stroke-linecap: round"/>
     </g>
     <g id="text_9">
      <!-- 640 -->
      <g style="fill: #262626" transform="translate(201.641965 537.54543)rotate(-45)scale(0.088 -0.088)">
       <use xlink:href="#DejaVuSans-36"/>
       <use xlink:href="#DejaVuSans-34" x="63.623047"/>
       <use xlink:href="#DejaVuSans-30" x="127.246094"/>
      </g>
     </g>
    </g>
    <g id="xtick_10">
     <g id="line2d_10">
      <path d="M 222.890166 512.64 
L 222.890166 69.12 
" clip-path="url(#pf5785cb731)" style="fill: none; stroke: #cccccc; stroke-width: 0.8; stroke-linecap: round"/>
     </g>
     <g id="text_10">
      <!-- 720 -->
      <g style="fill: #262626" transform="translate(218.668562 537.54543)rotate(-45)scale(0.088 -0.088)">
       <defs>
        <path id="DejaVuSans-37" d="M 525 4666 
L 3525 4666 
L 3525 4397 
L 1831 0 
L 1172 0 
L 2766 4134 
L 525 4134 
L 525 4666 
z
" transform="scale(0.015625)"/>
       </defs>
       <use xlink:href="#DejaVuSans-37"/>
       <use xlink:href="#DejaVuSans-32" x="63.623047"/>
       <use xlink:href="#DejaVuSans-30" x="127.246094"/>
      </g>
     </g>
    </g>
    <g id="xtick_11">
     <g id="line2d_11">
      <path d="M 239.916763 512.64 
L 239.916763 69.12 
" clip-path="url(#pf5785cb731)" style="fill: none; stroke: #cccccc; stroke-width: 0.8; stroke-linecap: round"/>
     </g>
     <g id="text_11">
      <!-- 800 -->
      <g style="fill: #262626" transform="translate(235.695159 537.54543)rotate(-45)scale(0.088 -0.088)">
       <use xlink:href="#DejaVuSans-38"/>
       <use xlink:href="#DejaVuSans-30" x="63.623047"/>
       <use xlink:href="#DejaVuSans-30" x="127.246094"/>
      </g>
     </g>
    </g>
    <g id="xtick_12">
     <g id="line2d_12">
      <path d="M 256.94336 512.64 
L 256.94336 69.12 
" clip-path="url(#pf5785cb731)" style="fill: none; stroke: #cccccc; stroke-width: 0.8; stroke-linecap: round"/>
     </g>
     <g id="text_12">
      <!-- 880 -->
      <g style="fill: #262626" transform="translate(252.721755 537.54543)rotate(-45)scale(0.088 -0.088)">
       <use xlink:href="#DejaVuSans-38"/>
       <use xlink:href="#DejaVuSans-38" x="63.623047"/>
       <use xlink:href="#DejaVuSans-30" x="127.246094"/>
      </g>
     </g>
    </g>
    <g id="xtick_13">
     <g id="line2d_13">
      <path d="M 273.969956 512.64 
L 273.969956 69.12 
" clip-path="url(#pf5785cb731)" style="fill: none; stroke: #cccccc; stroke-width: 0.8; stroke-linecap: round"/>
     </g>
     <g id="text_13">
      <!-- 960 -->
      <g style="fill: #262626" transform="translate(269.748352 537.54543)rotate(-45)scale(0.088 -0.088)">
       <defs>
        <path id="DejaVuSans-39" d="M 703 97 
L 703 672 
Q 941 559 1184 500 
Q 1428 441 1663 441 
Q 2288 441 2617 861 
Q 2947 1281 2994 2138 
Q 2813 1869 2534 1725 
Q 2256 1581 1919 1581 
Q 1219 1581 811 2004 
Q 403 2428 403 3163 
Q 403 3881 828 4315 
Q 1253 4750 1959 4750 
Q 2769 4750 3195 4129 
Q 3622 3509 3622 2328 
Q 3622 1225 3098 567 
Q 2575 -91 1691 -91 
Q 1453 -91 1209 -44 
Q 966 3 703 97 
z
M 1959 2075 
Q 2384 2075 2632 2365 
Q 2881 2656 2881 3163 
Q 2881 3666 2632 3958 
Q 2384 4250 1959 4250 
Q 1534 4250 1286 3958 
Q 1038 3666 1038 3163 
Q 1038 2656 1286 2365 
Q 1534 2075 1959 2075 
z
" transform="scale(0.015625)"/>
       </defs>
       <use xlink:href="#DejaVuSans-39"/>
       <use xlink:href="#DejaVuSans-36" x="63.623047"/>
       <use xlink:href="#DejaVuSans-30" x="127.246094"/>
      </g>
     </g>
    </g>
    <g id="xtick_14">
     <g id="line2d_14">
      <path d="M 290.996553 512.64 
L 290.996553 69.12 
" clip-path="url(#pf5785cb731)" style="fill: none; stroke: #cccccc; stroke-width: 0.8; stroke-linecap: round"/>
     </g>
     <g id="text_14">
      <!-- 1040 -->
      <g style="fill: #262626" transform="translate(284.795404 541.504521)rotate(-45)scale(0.088 -0.088)">
       <use xlink:href="#DejaVuSans-31"/>
       <use xlink:href="#DejaVuSans-30" x="63.623047"/>
       <use xlink:href="#DejaVuSans-34" x="127.246094"/>
       <use xlink:href="#DejaVuSans-30" x="190.869141"/>
      </g>
     </g>
    </g>
    <g id="xtick_15">
     <g id="line2d_15">
      <path d="M 308.02315 512.64 
L 308.02315 69.12 
" clip-path="url(#pf5785cb731)" style="fill: none; stroke: #cccccc; stroke-width: 0.8; stroke-linecap: round"/>
     </g>
     <g id="text_15">
      <!-- 1120 -->
      <g style="fill: #262626" transform="translate(301.822 541.504521)rotate(-45)scale(0.088 -0.088)">
       <use xlink:href="#DejaVuSans-31"/>
       <use xlink:href="#DejaVuSans-31" x="63.623047"/>
       <use xlink:href="#DejaVuSans-32" x="127.246094"/>
       <use xlink:href="#DejaVuSans-30" x="190.869141"/>
      </g>
     </g>
    </g>
    <g id="xtick_16">
     <g id="line2d_16">
      <path d="M 325.049747 512.64 
L 325.049747 69.12 
" clip-path="url(#pf5785cb731)" style="fill: none; stroke: #cccccc; stroke-width: 0.8; stroke-linecap: round"/>
     </g>
     <g id="text_16">
      <!-- 1200 -->
      <g style="fill: #262626" transform="translate(318.848597 541.504521)rotate(-45)scale(0.088 -0.088)">
       <use xlink:href="#DejaVuSans-31"/>
       <use xlink:href="#DejaVuSans-32" x="63.623047"/>
       <use xlink:href="#DejaVuSans-30" x="127.246094"/>
       <use xlink:href="#DejaVuSans-30" x="190.869141"/>
      </g>
     </g>
    </g>
    <g id="xtick_17">
     <g id="line2d_17">
      <path d="M 342.076343 512.64 
L 342.076343 69.12 
" clip-path="url(#pf5785cb731)" style="fill: none; stroke: #cccccc; stroke-width: 0.8; stroke-linecap: round"/>
     </g>
     <g id="text_17">
      <!-- 1280 -->
      <g style="fill: #262626" transform="translate(335.875194 541.504521)rotate(-45)scale(0.088 -0.088)">
       <use xlink:href="#DejaVuSans-31"/>
       <use xlink:href="#DejaVuSans-32" x="63.623047"/>
       <use xlink:href="#DejaVuSans-38" x="127.246094"/>
       <use xlink:href="#DejaVuSans-30" x="190.869141"/>
      </g>
     </g>
    </g>
    <g id="xtick_18">
     <g id="line2d_18">
      <path d="M 359.10294 512.64 
L 359.10294 69.12 
" clip-path="url(#pf5785cb731)" style="fill: none; stroke: #cccccc; stroke-width: 0.8; stroke-linecap: round"/>
     </g>
     <g id="text_18">
      <!-- 1360 -->
      <g style="fill: #262626" transform="translate(352.901791 541.504521)rotate(-45)scale(0.088 -0.088)">
       <use xlink:href="#DejaVuSans-31"/>
       <use xlink:href="#DejaVuSans-33" x="63.623047"/>
       <use xlink:href="#DejaVuSans-36" x="127.246094"/>
       <use xlink:href="#DejaVuSans-30" x="190.869141"/>
      </g>
     </g>
    </g>
    <g id="xtick_19">
     <g id="line2d_19">
      <path d="M 376.129537 512.64 
L 376.129537 69.12 
" clip-path="url(#pf5785cb731)" style="fill: none; stroke: #cccccc; stroke-width: 0.8; stroke-linecap: round"/>
     </g>
     <g id="text_19">
      <!-- 1440 -->
      <g style="fill: #262626" transform="translate(369.928387 541.504521)rotate(-45)scale(0.088 -0.088)">
       <use xlink:href="#DejaVuSans-31"/>
       <use xlink:href="#DejaVuSans-34" x="63.623047"/>
       <use xlink:href="#DejaVuSans-34" x="127.246094"/>
       <use xlink:href="#DejaVuSans-30" x="190.869141"/>
      </g>
     </g>
    </g>
    <g id="text_20">
     <!-- Time (Minutes) -->
     <g style="fill: #262626" transform="translate(186.87375 554.093115)scale(0.096 -0.096)">
      <defs>
       <path id="DejaVuSans-54" d="M -19 4666 
L 3928 4666 
L 3928 4134 
L 2272 4134 
L 2272 0 
L 1638 0 
L 1638 4134 
L -19 4134 
L -19 4666 
z
" transform="scale(0.015625)"/>
       <path id="DejaVuSans-69" d="M 603 3500 
L 1178 3500 
L 1178 0 
L 603 0 
L 603 3500 
z
M 603 4863 
L 1178 4863 
L 1178 4134 
L 603 4134 
L 603 4863 
z
" transform="scale(0.015625)"/>
       <path id="DejaVuSans-6d" d="M 3328 2828 
Q 3544 3216 3844 3400 
Q 4144 3584 4550 3584 
Q 5097 3584 5394 3201 
Q 5691 2819 5691 2113 
L 5691 0 
L 5113 0 
L 5113 2094 
Q 5113 2597 4934 2840 
Q 4756 3084 4391 3084 
Q 3944 3084 3684 2787 
Q 3425 2491 3425 1978 
L 3425 0 
L 2847 0 
L 2847 2094 
Q 2847 2600 2669 2842 
Q 2491 3084 2119 3084 
Q 1678 3084 1418 2786 
Q 1159 2488 1159 1978 
L 1159 0 
L 581 0 
L 581 3500 
L 1159 3500 
L 1159 2956 
Q 1356 3278 1631 3431 
Q 1906 3584 2284 3584 
Q 2666 3584 2933 3390 
Q 3200 3197 3328 2828 
z
" transform="scale(0.015625)"/>
       <path id="DejaVuSans-65" d="M 3597 1894 
L 3597 1613 
L 953 1613 
Q 991 1019 1311 708 
Q 1631 397 2203 397 
Q 2534 397 2845 478 
Q 3156 559 3463 722 
L 3463 178 
Q 3153 47 2828 -22 
Q 2503 -91 2169 -91 
Q 1331 -91 842 396 
Q 353 884 353 1716 
Q 353 2575 817 3079 
Q 1281 3584 2069 3584 
Q 2775 3584 3186 3129 
Q 3597 2675 3597 1894 
z
M 3022 2063 
Q 3016 2534 2758 2815 
Q 2500 3097 2075 3097 
Q 1594 3097 1305 2825 
Q 1016 2553 972 2059 
L 3022 2063 
z
" transform="scale(0.015625)"/>
       <path id="DejaVuSans-20" transform="scale(0.015625)"/>
       <path id="DejaVuSans-28" d="M 1984 4856 
Q 1566 4138 1362 3434 
Q 1159 2731 1159 2009 
Q 1159 1288 1364 580 
Q 1569 -128 1984 -844 
L 1484 -844 
Q 1016 -109 783 600 
Q 550 1309 550 2009 
Q 550 2706 781 3412 
Q 1013 4119 1484 4856 
L 1984 4856 
z
" transform="scale(0.015625)"/>
       <path id="DejaVuSans-4d" d="M 628 4666 
L 1569 4666 
L 2759 1491 
L 3956 4666 
L 4897 4666 
L 4897 0 
L 4281 0 
L 4281 4097 
L 3078 897 
L 2444 897 
L 1241 4097 
L 1241 0 
L 628 0 
L 628 4666 
z
" transform="scale(0.015625)"/>
       <path id="DejaVuSans-6e" d="M 3513 2113 
L 3513 0 
L 2938 0 
L 2938 2094 
Q 2938 2591 2744 2837 
Q 2550 3084 2163 3084 
Q 1697 3084 1428 2787 
Q 1159 2491 1159 1978 
L 1159 0 
L 581 0 
L 581 3500 
L 1159 3500 
L 1159 2956 
Q 1366 3272 1645 3428 
Q 1925 3584 2291 3584 
Q 2894 3584 3203 3211 
Q 3513 2838 3513 2113 
z
" transform="scale(0.015625)"/>
       <path id="DejaVuSans-75" d="M 544 1381 
L 544 3500 
L 1119 3500 
L 1119 1403 
Q 1119 906 1312 657 
Q 1506 409 1894 409 
Q 2359 409 2629 706 
Q 2900 1003 2900 1516 
L 2900 3500 
L 3475 3500 
L 3475 0 
L 2900 0 
L 2900 538 
Q 2691 219 2414 64 
Q 2138 -91 1772 -91 
Q 1169 -91 856 284 
Q 544 659 544 1381 
z
M 1991 3584 
L 1991 3584 
z
" transform="scale(0.015625)"/>
       <path id="DejaVuSans-74" d="M 1172 4494 
L 1172 3500 
L 2356 3500 
L 2356 3053 
L 1172 3053 
L 1172 1153 
Q 1172 725 1289 603 
Q 1406 481 1766 481 
L 2356 481 
L 2356 0 
L 1766 0 
Q 1100 0 847 248 
Q 594 497 594 1153 
L 594 3053 
L 172 3053 
L 172 3500 
L 594 3500 
L 594 4494 
L 1172 4494 
z
" transform="scale(0.015625)"/>
       <path id="DejaVuSans-73" d="M 2834 3397 
L 2834 2853 
Q 2591 2978 2328 3040 
Q 2066 3103 1784 3103 
Q 1356 3103 1142 2972 
Q 928 2841 928 2578 
Q 928 2378 1081 2264 
Q 1234 2150 1697 2047 
L 1894 2003 
Q 2506 1872 2764 1633 
Q 3022 1394 3022 966 
Q 3022 478 2636 193 
Q 2250 -91 1575 -91 
Q 1294 -91 989 -36 
Q 684 19 347 128 
L 347 722 
Q 666 556 975 473 
Q 1284 391 1588 391 
Q 1994 391 2212 530 
Q 2431 669 2431 922 
Q 2431 1156 2273 1281 
Q 2116 1406 1581 1522 
L 1381 1569 
Q 847 1681 609 1914 
Q 372 2147 372 2553 
Q 372 3047 722 3315 
Q 1072 3584 1716 3584 
Q 2034 3584 2315 3537 
Q 2597 3491 2834 3397 
z
" transform="scale(0.015625)"/>
       <path id="DejaVuSans-29" d="M 513 4856 
L 1013 4856 
Q 1481 4119 1714 3412 
Q 1947 2706 1947 2009 
Q 1947 1309 1714 600 
Q 1481 -109 1013 -844 
L 513 -844 
Q 928 -128 1133 580 
Q 1338 1288 1338 2009 
Q 1338 2731 1133 3434 
Q 928 4138 513 4856 
z
" transform="scale(0.015625)"/>
      </defs>
      <use xlink:href="#DejaVuSans-54"/>
      <use xlink:href="#DejaVuSans-69" x="57.958984"/>
      <use xlink:href="#DejaVuSans-6d" x="85.742188"/>
      <use xlink:href="#DejaVuSans-65" x="183.154297"/>
      <use xlink:href="#DejaVuSans-20" x="244.677734"/>
      <use xlink:href="#DejaVuSans-28" x="276.464844"/>
      <use xlink:href="#DejaVuSans-4d" x="315.478516"/>
      <use xlink:href="#DejaVuSans-69" x="401.757812"/>
      <use xlink:href="#DejaVuSans-6e" x="429.541016"/>
      <use xlink:href="#DejaVuSans-75" x="492.919922"/>
      <use xlink:href="#DejaVuSans-74" x="556.298828"/>
      <use xlink:href="#DejaVuSans-65" x="595.507812"/>
      <use xlink:href="#DejaVuSans-73" x="657.03125"/>
      <use xlink:href="#DejaVuSans-29" x="709.130859"/>
     </g>
    </g>
   </g>
   <g id="matplotlib.axis_2">
    <g id="ytick_1">
     <g id="line2d_20">
      <path d="M 54.3375 492.48 
L 391.23 492.48 
" clip-path="url(#pf5785cb731)" style="fill: none; stroke: #cccccc; stroke-width: 0.8; stroke-linecap: round"/>
     </g>
     <g id="text_21">
      <!-- 0 -->
      <g style="fill: #262626" transform="translate(40.4385 495.823312)scale(0.088 -0.088)">
       <use xlink:href="#DejaVuSans-30"/>
      </g>
     </g>
    </g>
    <g id="ytick_2">
     <g id="line2d_21">
      <path d="M 54.3375 477.108288 
L 391.23 477.108288 
" clip-path="url(#pf5785cb731)" style="fill: none; stroke: #cccccc; stroke-width: 0.8; stroke-linecap: round"/>
     </g>
     <g id="text_22">
      <!-- 100 -->
      <g style="fill: #262626" transform="translate(29.2405 480.451601)scale(0.088 -0.088)">
       <use xlink:href="#DejaVuSans-31"/>
       <use xlink:href="#DejaVuSans-30" x="63.623047"/>
       <use xlink:href="#DejaVuSans-30" x="127.246094"/>
      </g>
     </g>
    </g>
    <g id="ytick_3">
     <g id="line2d_22">
      <path d="M 54.3375 461.736576 
L 391.23 461.736576 
" clip-path="url(#pf5785cb731)" style="fill: none; stroke: #cccccc; stroke-width: 0.8; stroke-linecap: round"/>
     </g>
     <g id="text_23">
      <!-- 200 -->
      <g style="fill: #262626" transform="translate(29.2405 465.079889)scale(0.088 -0.088)">
       <use xlink:href="#DejaVuSans-32"/>
       <use xlink:href="#DejaVuSans-30" x="63.623047"/>
       <use xlink:href="#DejaVuSans-30" x="127.246094"/>
      </g>
     </g>
    </g>
    <g id="ytick_4">
     <g id="line2d_23">
      <path d="M 54.3375 446.364865 
L 391.23 446.364865 
" clip-path="url(#pf5785cb731)" style="fill: none; stroke: #cccccc; stroke-width: 0.8; stroke-linecap: round"/>
     </g>
     <g id="text_24">
      <!-- 300 -->
      <g style="fill: #262626" transform="translate(29.2405 449.708177)scale(0.088 -0.088)">
       <use xlink:href="#DejaVuSans-33"/>
       <use xlink:href="#DejaVuSans-30" x="63.623047"/>
       <use xlink:href="#DejaVuSans-30" x="127.246094"/>
      </g>
     </g>
    </g>
    <g id="ytick_5">
     <g id="line2d_24">
      <path d="M 54.3375 430.993153 
L 391.23 430.993153 
" clip-path="url(#pf5785cb731)" style="fill: none; stroke: #cccccc; stroke-width: 0.8; stroke-linecap: round"/>
     </g>
     <g id="text_25">
      <!-- 400 -->
      <g style="fill: #262626" transform="translate(29.2405 434.336465)scale(0.088 -0.088)">
       <use xlink:href="#DejaVuSans-34"/>
       <use xlink:href="#DejaVuSans-30" x="63.623047"/>
       <use xlink:href="#DejaVuSans-30" x="127.246094"/>
      </g>
     </g>
    </g>
    <g id="ytick_6">
     <g id="line2d_25">
      <path d="M 54.3375 415.621441 
L 391.23 415.621441 
" clip-path="url(#pf5785cb731)" style="fill: none; stroke: #cccccc; stroke-width: 0.8; stroke-linecap: round"/>
     </g>
     <g id="text_26">
      <!-- 500 -->
      <g style="fill: #262626" transform="translate(29.2405 418.964754)scale(0.088 -0.088)">
       <use xlink:href="#DejaVuSans-35"/>
       <use xlink:href="#DejaVuSans-30" x="63.623047"/>
       <use xlink:href="#DejaVuSans-30" x="127.246094"/>
      </g>
     </g>
    </g>
    <g id="ytick_7">
     <g id="line2d_26">
      <path d="M 54.3375 400.249729 
L 391.23 400.249729 
" clip-path="url(#pf5785cb731)" style="fill: none; stroke: #cccccc; stroke-width: 0.8; stroke-linecap: round"/>
     </g>
     <g id="text_27">
      <!-- 600 -->
      <g style="fill: #262626" transform="translate(29.2405 403.593042)scale(0.088 -0.088)">
       <use xlink:href="#DejaVuSans-36"/>
       <use xlink:href="#DejaVuSans-30" x="63.623047"/>
       <use xlink:href="#DejaVuSans-30" x="127.246094"/>
      </g>
     </g>
    </g>
    <g id="ytick_8">
     <g id="line2d_27">
      <path d="M 54.3375 384.878018 
L 391.23 384.878018 
" clip-path="url(#pf5785cb731)" style="fill: none; stroke: #cccccc; stroke-width: 0.8; stroke-linecap: round"/>
     </g>
     <g id="text_28">
      <!-- 700 -->
      <g style="fill: #262626" transform="translate(29.2405 388.22133)scale(0.088 -0.088)">
       <use xlink:href="#DejaVuSans-37"/>
       <use xlink:href="#DejaVuSans-30" x="63.623047"/>
       <use xlink:href="#DejaVuSans-30" x="127.246094"/>
      </g>
     </g>
    </g>
    <g id="ytick_9">
     <g id="line2d_28">
      <path d="M 54.3375 369.506306 
L 391.23 369.506306 
" clip-path="url(#pf5785cb731)" style="fill: none; stroke: #cccccc; stroke-width: 0.8; stroke-linecap: round"/>
     </g>
     <g id="text_29">
      <!-- 800 -->
      <g style="fill: #262626" transform="translate(29.2405 372.849618)scale(0.088 -0.088)">
       <use xlink:href="#DejaVuSans-38"/>
       <use xlink:href="#DejaVuSans-30" x="63.623047"/>
       <use xlink:href="#DejaVuSans-30" x="127.246094"/>
      </g>
     </g>
    </g>
    <g id="ytick_10">
     <g id="line2d_29">
      <path d="M 54.3375 354.134594 
L 391.23 354.134594 
" clip-path="url(#pf5785cb731)" style="fill: none; stroke: #cccccc; stroke-width: 0.8; stroke-linecap: round"/>
     </g>
     <g id="text_30">
      <!-- 900 -->
      <g style="fill: #262626" transform="translate(29.2405 357.477906)scale(0.088 -0.088)">
       <use xlink:href="#DejaVuSans-39"/>
       <use xlink:href="#DejaVuSans-30" x="63.623047"/>
       <use xlink:href="#DejaVuSans-30" x="127.246094"/>
      </g>
     </g>
    </g>
    <g id="ytick_11">
     <g id="line2d_30">
      <path d="M 54.3375 338.762882 
L 391.23 338.762882 
" clip-path="url(#pf5785cb731)" style="fill: none; stroke: #cccccc; stroke-width: 0.8; stroke-linecap: round"/>
     </g>
     <g id="text_31">
      <!-- 1000 -->
      <g style="fill: #262626" transform="translate(23.6415 342.106195)scale(0.088 -0.088)">
       <use xlink:href="#DejaVuSans-31"/>
       <use xlink:href="#DejaVuSans-30" x="63.623047"/>
       <use xlink:href="#DejaVuSans-30" x="127.246094"/>
       <use xlink:href="#DejaVuSans-30" x="190.869141"/>
      </g>
     </g>
    </g>
    <g id="ytick_12">
     <g id="line2d_31">
      <path d="M 54.3375 323.39117 
L 391.23 323.39117 
" clip-path="url(#pf5785cb731)" style="fill: none; stroke: #cccccc; stroke-width: 0.8; stroke-linecap: round"/>
     </g>
     <g id="text_32">
      <!-- 1100 -->
      <g style="fill: #262626" transform="translate(23.6415 326.734483)scale(0.088 -0.088)">
       <use xlink:href="#DejaVuSans-31"/>
       <use xlink:href="#DejaVuSans-31" x="63.623047"/>
       <use xlink:href="#DejaVuSans-30" x="127.246094"/>
       <use xlink:href="#DejaVuSans-30" x="190.869141"/>
      </g>
     </g>
    </g>
    <g id="ytick_13">
     <g id="line2d_32">
      <path d="M 54.3375 308.019459 
L 391.23 308.019459 
" clip-path="url(#pf5785cb731)" style="fill: none; stroke: #cccccc; stroke-width: 0.8; stroke-linecap: round"/>
     </g>
     <g id="text_33">
      <!-- 1200 -->
      <g style="fill: #262626" transform="translate(23.6415 311.362771)scale(0.088 -0.088)">
       <use xlink:href="#DejaVuSans-31"/>
       <use xlink:href="#DejaVuSans-32" x="63.623047"/>
       <use xlink:href="#DejaVuSans-30" x="127.246094"/>
       <use xlink:href="#DejaVuSans-30" x="190.869141"/>
      </g>
     </g>
    </g>
    <g id="ytick_14">
     <g id="line2d_33">
      <path d="M 54.3375 292.647747 
L 391.23 292.647747 
" clip-path="url(#pf5785cb731)" style="fill: none; stroke: #cccccc; stroke-width: 0.8; stroke-linecap: round"/>
     </g>
     <g id="text_34">
      <!-- 1300 -->
      <g style="fill: #262626" transform="translate(23.6415 295.991059)scale(0.088 -0.088)">
       <use xlink:href="#DejaVuSans-31"/>
       <use xlink:href="#DejaVuSans-33" x="63.623047"/>
       <use xlink:href="#DejaVuSans-30" x="127.246094"/>
       <use xlink:href="#DejaVuSans-30" x="190.869141"/>
      </g>
     </g>
    </g>
    <g id="ytick_15">
     <g id="line2d_34">
      <path d="M 54.3375 277.276035 
L 391.23 277.276035 
" clip-path="url(#pf5785cb731)" style="fill: none; stroke: #cccccc; stroke-width: 0.8; stroke-linecap: round"/>
     </g>
     <g id="text_35">
      <!-- 1400 -->
      <g style="fill: #262626" transform="translate(23.6415 280.619348)scale(0.088 -0.088)">
       <use xlink:href="#DejaVuSans-31"/>
       <use xlink:href="#DejaVuSans-34" x="63.623047"/>
       <use xlink:href="#DejaVuSans-30" x="127.246094"/>
       <use xlink:href="#DejaVuSans-30" x="190.869141"/>
      </g>
     </g>
    </g>
    <g id="ytick_16">
     <g id="line2d_35">
      <path d="M 54.3375 261.904323 
L 391.23 261.904323 
" clip-path="url(#pf5785cb731)" style="fill: none; stroke: #cccccc; stroke-width: 0.8; stroke-linecap: round"/>
     </g>
     <g id="text_36">
      <!-- 1500 -->
      <g style="fill: #262626" transform="translate(23.6415 265.247636)scale(0.088 -0.088)">
       <use xlink:href="#DejaVuSans-31"/>
       <use xlink:href="#DejaVuSans-35" x="63.623047"/>
       <use xlink:href="#DejaVuSans-30" x="127.246094"/>
       <use xlink:href="#DejaVuSans-30" x="190.869141"/>
      </g>
     </g>
    </g>
    <g id="ytick_17">
     <g id="line2d_36">
      <path d="M 54.3375 246.532612 
L 391.23 246.532612 
" clip-path="url(#pf5785cb731)" style="fill: none; stroke: #cccccc; stroke-width: 0.8; stroke-linecap: round"/>
     </g>
     <g id="text_37">
      <!-- 1600 -->
      <g style="fill: #262626" transform="translate(23.6415 249.875924)scale(0.088 -0.088)">
       <use xlink:href="#DejaVuSans-31"/>
       <use xlink:href="#DejaVuSans-36" x="63.623047"/>
       <use xlink:href="#DejaVuSans-30" x="127.246094"/>
       <use xlink:href="#DejaVuSans-30" x="190.869141"/>
      </g>
     </g>
    </g>
    <g id="ytick_18">
     <g id="line2d_37">
      <path d="M 54.3375 231.1609 
L 391.23 231.1609 
" clip-path="url(#pf5785cb731)" style="fill: none; stroke: #cccccc; stroke-width: 0.8; stroke-linecap: round"/>
     </g>
     <g id="text_38">
      <!-- 1700 -->
      <g style="fill: #262626" transform="translate(23.6415 234.504212)scale(0.088 -0.088)">
       <use xlink:href="#DejaVuSans-31"/>
       <use xlink:href="#DejaVuSans-37" x="63.623047"/>
       <use xlink:href="#DejaVuSans-30" x="127.246094"/>
       <use xlink:href="#DejaVuSans-30" x="190.869141"/>
      </g>
     </g>
    </g>
    <g id="ytick_19">
     <g id="line2d_38">
      <path d="M 54.3375 215.789188 
L 391.23 215.789188 
" clip-path="url(#pf5785cb731)" style="fill: none; stroke: #cccccc; stroke-width: 0.8; stroke-linecap: round"/>
     </g>
     <g id="text_39">
      <!-- 1800 -->
      <g style="fill: #262626" transform="translate(23.6415 219.1325)scale(0.088 -0.088)">
       <use xlink:href="#DejaVuSans-31"/>
       <use xlink:href="#DejaVuSans-38" x="63.623047"/>
       <use xlink:href="#DejaVuSans-30" x="127.246094"/>
       <use xlink:href="#DejaVuSans-30" x="190.869141"/>
      </g>
     </g>
    </g>
    <g id="ytick_20">
     <g id="line2d_39">
      <path d="M 54.3375 200.417476 
L 391.23 200.417476 
" clip-path="url(#pf5785cb731)" style="fill: none; stroke: #cccccc; stroke-width: 0.8; stroke-linecap: round"/>
     </g>
     <g id="text_40">
      <!-- 1900 -->
      <g style="fill: #262626" transform="translate(23.6415 203.760789)scale(0.088 -0.088)">
       <use xlink:href="#DejaVuSans-31"/>
       <use xlink:href="#DejaVuSans-39" x="63.623047"/>
       <use xlink:href="#DejaVuSans-30" x="127.246094"/>
       <use xlink:href="#DejaVuSans-30" x="190.869141"/>
      </g>
     </g>
    </g>
    <g id="ytick_21">
     <g id="line2d_40">
      <path d="M 54.3375 185.045764 
L 391.23 185.045764 
" clip-path="url(#pf5785cb731)" style="fill: none; stroke: #cccccc; stroke-width: 0.8; stroke-linecap: round"/>
     </g>
     <g id="text_41">
      <!-- 2000 -->
      <g style="fill: #262626" transform="translate(23.6415 188.389077)scale(0.088 -0.088)">
       <use xlink:href="#DejaVuSans-32"/>
       <use xlink:href="#DejaVuSans-30" x="63.623047"/>
       <use xlink:href="#DejaVuSans-30" x="127.246094"/>
       <use xlink:href="#DejaVuSans-30" x="190.869141"/>
      </g>
     </g>
    </g>
    <g id="ytick_22">
     <g id="line2d_41">
      <path d="M 54.3375 169.674053 
L 391.23 169.674053 
" clip-path="url(#pf5785cb731)" style="fill: none; stroke: #cccccc; stroke-width: 0.8; stroke-linecap: round"/>
     </g>
     <g id="text_42">
      <!-- 2100 -->
      <g style="fill: #262626" transform="translate(23.6415 173.017365)scale(0.088 -0.088)">
       <use xlink:href="#DejaVuSans-32"/>
       <use xlink:href="#DejaVuSans-31" x="63.623047"/>
       <use xlink:href="#DejaVuSans-30" x="127.246094"/>
       <use xlink:href="#DejaVuSans-30" x="190.869141"/>
      </g>
     </g>
    </g>
    <g id="ytick_23">
     <g id="line2d_42">
      <path d="M 54.3375 154.302341 
L 391.23 154.302341 
" clip-path="url(#pf5785cb731)" style="fill: none; stroke: #cccccc; stroke-width: 0.8; stroke-linecap: round"/>
     </g>
     <g id="text_43">
      <!-- 2200 -->
      <g style="fill: #262626" transform="translate(23.6415 157.645653)scale(0.088 -0.088)">
       <use xlink:href="#DejaVuSans-32"/>
       <use xlink:href="#DejaVuSans-32" x="63.623047"/>
       <use xlink:href="#DejaVuSans-30" x="127.246094"/>
       <use xlink:href="#DejaVuSans-30" x="190.869141"/>
      </g>
     </g>
    </g>
    <g id="ytick_24">
     <g id="line2d_43">
      <path d="M 54.3375 138.930629 
L 391.23 138.930629 
" clip-path="url(#pf5785cb731)" style="fill: none; stroke: #cccccc; stroke-width: 0.8; stroke-linecap: round"/>
     </g>
     <g id="text_44">
      <!-- 2300 -->
      <g style="fill: #262626" transform="translate(23.6415 142.273942)scale(0.088 -0.088)">
       <use xlink:href="#DejaVuSans-32"/>
       <use xlink:href="#DejaVuSans-33" x="63.623047"/>
       <use xlink:href="#DejaVuSans-30" x="127.246094"/>
       <use xlink:href="#DejaVuSans-30" x="190.869141"/>
      </g>
     </g>
    </g>
    <g id="ytick_25">
     <g id="line2d_44">
      <path d="M 54.3375 123.558917 
L 391.23 123.558917 
" clip-path="url(#pf5785cb731)" style="fill: none; stroke: #cccccc; stroke-width: 0.8; stroke-linecap: round"/>
     </g>
     <g id="text_45">
      <!-- 2400 -->
      <g style="fill: #262626" transform="translate(23.6415 126.90223)scale(0.088 -0.088)">
       <use xlink:href="#DejaVuSans-32"/>
       <use xlink:href="#DejaVuSans-34" x="63.623047"/>
       <use xlink:href="#DejaVuSans-30" x="127.246094"/>
       <use xlink:href="#DejaVuSans-30" x="190.869141"/>
      </g>
     </g>
    </g>
    <g id="ytick_26">
     <g id="line2d_45">
      <path d="M 54.3375 108.187205 
L 391.23 108.187205 
" clip-path="url(#pf5785cb731)" style="fill: none; stroke: #cccccc; stroke-width: 0.8; stroke-linecap: round"/>
     </g>
     <g id="text_46">
      <!-- 2500 -->
      <g style="fill: #262626" transform="translate(23.6415 111.530518)scale(0.088 -0.088)">
       <use xlink:href="#DejaVuSans-32"/>
       <use xlink:href="#DejaVuSans-35" x="63.623047"/>
       <use xlink:href="#DejaVuSans-30" x="127.246094"/>
       <use xlink:href="#DejaVuSans-30" x="190.869141"/>
      </g>
     </g>
    </g>
    <g id="ytick_27">
     <g id="line2d_46">
      <path d="M 54.3375 92.815494 
L 391.23 92.815494 
" clip-path="url(#pf5785cb731)" style="fill: none; stroke: #cccccc; stroke-width: 0.8; stroke-linecap: round"/>
     </g>
     <g id="text_47">
      <!-- 2600 -->
      <g style="fill: #262626" transform="translate(23.6415 96.158806)scale(0.088 -0.088)">
       <use xlink:href="#DejaVuSans-32"/>
       <use xlink:href="#DejaVuSans-36" x="63.623047"/>
       <use xlink:href="#DejaVuSans-30" x="127.246094"/>
       <use xlink:href="#DejaVuSans-30" x="190.869141"/>
      </g>
     </g>
    </g>
    <g id="text_48">
     <!-- Edge Coverages -->
     <g style="fill: #262626" transform="translate(17.645 329.98575)rotate(-90)scale(0.096 -0.096)">
      <defs>
       <path id="DejaVuSans-45" d="M 628 4666 
L 3578 4666 
L 3578 4134 
L 1259 4134 
L 1259 2753 
L 3481 2753 
L 3481 2222 
L 1259 2222 
L 1259 531 
L 3634 531 
L 3634 0 
L 628 0 
L 628 4666 
z
" transform="scale(0.015625)"/>
       <path id="DejaVuSans-64" d="M 2906 2969 
L 2906 4863 
L 3481 4863 
L 3481 0 
L 2906 0 
L 2906 525 
Q 2725 213 2448 61 
Q 2172 -91 1784 -91 
Q 1150 -91 751 415 
Q 353 922 353 1747 
Q 353 2572 751 3078 
Q 1150 3584 1784 3584 
Q 2172 3584 2448 3432 
Q 2725 3281 2906 2969 
z
M 947 1747 
Q 947 1113 1208 752 
Q 1469 391 1925 391 
Q 2381 391 2643 752 
Q 2906 1113 2906 1747 
Q 2906 2381 2643 2742 
Q 2381 3103 1925 3103 
Q 1469 3103 1208 2742 
Q 947 2381 947 1747 
z
" transform="scale(0.015625)"/>
       <path id="DejaVuSans-67" d="M 2906 1791 
Q 2906 2416 2648 2759 
Q 2391 3103 1925 3103 
Q 1463 3103 1205 2759 
Q 947 2416 947 1791 
Q 947 1169 1205 825 
Q 1463 481 1925 481 
Q 2391 481 2648 825 
Q 2906 1169 2906 1791 
z
M 3481 434 
Q 3481 -459 3084 -895 
Q 2688 -1331 1869 -1331 
Q 1566 -1331 1297 -1286 
Q 1028 -1241 775 -1147 
L 775 -588 
Q 1028 -725 1275 -790 
Q 1522 -856 1778 -856 
Q 2344 -856 2625 -561 
Q 2906 -266 2906 331 
L 2906 616 
Q 2728 306 2450 153 
Q 2172 0 1784 0 
Q 1141 0 747 490 
Q 353 981 353 1791 
Q 353 2603 747 3093 
Q 1141 3584 1784 3584 
Q 2172 3584 2450 3431 
Q 2728 3278 2906 2969 
L 2906 3500 
L 3481 3500 
L 3481 434 
z
" transform="scale(0.015625)"/>
       <path id="DejaVuSans-43" d="M 4122 4306 
L 4122 3641 
Q 3803 3938 3442 4084 
Q 3081 4231 2675 4231 
Q 1875 4231 1450 3742 
Q 1025 3253 1025 2328 
Q 1025 1406 1450 917 
Q 1875 428 2675 428 
Q 3081 428 3442 575 
Q 3803 722 4122 1019 
L 4122 359 
Q 3791 134 3420 21 
Q 3050 -91 2638 -91 
Q 1578 -91 968 557 
Q 359 1206 359 2328 
Q 359 3453 968 4101 
Q 1578 4750 2638 4750 
Q 3056 4750 3426 4639 
Q 3797 4528 4122 4306 
z
" transform="scale(0.015625)"/>
       <path id="DejaVuSans-6f" d="M 1959 3097 
Q 1497 3097 1228 2736 
Q 959 2375 959 1747 
Q 959 1119 1226 758 
Q 1494 397 1959 397 
Q 2419 397 2687 759 
Q 2956 1122 2956 1747 
Q 2956 2369 2687 2733 
Q 2419 3097 1959 3097 
z
M 1959 3584 
Q 2709 3584 3137 3096 
Q 3566 2609 3566 1747 
Q 3566 888 3137 398 
Q 2709 -91 1959 -91 
Q 1206 -91 779 398 
Q 353 888 353 1747 
Q 353 2609 779 3096 
Q 1206 3584 1959 3584 
z
" transform="scale(0.015625)"/>
       <path id="DejaVuSans-76" d="M 191 3500 
L 800 3500 
L 1894 563 
L 2988 3500 
L 3597 3500 
L 2284 0 
L 1503 0 
L 191 3500 
z
" transform="scale(0.015625)"/>
       <path id="DejaVuSans-72" d="M 2631 2963 
Q 2534 3019 2420 3045 
Q 2306 3072 2169 3072 
Q 1681 3072 1420 2755 
Q 1159 2438 1159 1844 
L 1159 0 
L 581 0 
L 581 3500 
L 1159 3500 
L 1159 2956 
Q 1341 3275 1631 3429 
Q 1922 3584 2338 3584 
Q 2397 3584 2469 3576 
Q 2541 3569 2628 3553 
L 2631 2963 
z
" transform="scale(0.015625)"/>
       <path id="DejaVuSans-61" d="M 2194 1759 
Q 1497 1759 1228 1600 
Q 959 1441 959 1056 
Q 959 750 1161 570 
Q 1363 391 1709 391 
Q 2188 391 2477 730 
Q 2766 1069 2766 1631 
L 2766 1759 
L 2194 1759 
z
M 3341 1997 
L 3341 0 
L 2766 0 
L 2766 531 
Q 2569 213 2275 61 
Q 1981 -91 1556 -91 
Q 1019 -91 701 211 
Q 384 513 384 1019 
Q 384 1609 779 1909 
Q 1175 2209 1959 2209 
L 2766 2209 
L 2766 2266 
Q 2766 2663 2505 2880 
Q 2244 3097 1772 3097 
Q 1472 3097 1187 3025 
Q 903 2953 641 2809 
L 641 3341 
Q 956 3463 1253 3523 
Q 1550 3584 1831 3584 
Q 2591 3584 2966 3190 
Q 3341 2797 3341 1997 
z
" transform="scale(0.015625)"/>
      </defs>
      <use xlink:href="#DejaVuSans-45"/>
      <use xlink:href="#DejaVuSans-64" x="63.183594"/>
      <use xlink:href="#DejaVuSans-67" x="126.660156"/>
      <use xlink:href="#DejaVuSans-65" x="190.136719"/>
      <use xlink:href="#DejaVuSans-20" x="251.660156"/>
      <use xlink:href="#DejaVuSans-43" x="283.447266"/>
      <use xlink:href="#DejaVuSans-6f" x="353.271484"/>
      <use xlink:href="#DejaVuSans-76" x="414.453125"/>
      <use xlink:href="#DejaVuSans-65" x="473.632812"/>
      <use xlink:href="#DejaVuSans-72" x="535.15625"/>
      <use xlink:href="#DejaVuSans-61" x="576.269531"/>
      <use xlink:href="#DejaVuSans-67" x="637.548828"/>
      <use xlink:href="#DejaVuSans-65" x="701.025391"/>
      <use xlink:href="#DejaVuSans-73" x="762.548828"/>
     </g>
    </g>
   </g>
   <g id="PolyCollection_1">
    <defs>
     <path id="mb799a63fad" d="M 69.650795 -85.67204 
L 69.650795 -83.52 
L 69.650795 -85.67204 
L 69.650795 -85.67204 
z
" style="stroke: #db5f57; stroke-opacity: 0.2; stroke-width: 0.8"/>
    </defs>
    <g clip-path="url(#pf5785cb731)">
     <use xlink:href="#mb799a63fad" x="0" y="576" style="fill: #db5f57; fill-opacity: 0.2; stroke: #db5f57; stroke-opacity: 0.2; stroke-width: 0.8"/>
    </g>
   </g>
   <g id="PolyCollection_2">
    <defs>
     <path id="m100e8f5304" d="M 69.650795 -86.286908 
L 69.650795 -83.52 
L 69.650795 -86.286908 
L 69.650795 -86.286908 
z
" style="stroke: #b9db57; stroke-opacity: 0.2; stroke-width: 0.8"/>
    </defs>
    <g clip-path="url(#pf5785cb731)">
     <use xlink:href="#m100e8f5304" x="0" y="576" style="fill: #b9db57; fill-opacity: 0.2; stroke: #b9db57; stroke-opacity: 0.2; stroke-width: 0.8"/>
    </g>
   </g>
   <g id="PolyCollection_3">
    <defs>
     <path id="m71da48718c" d="M 69.650795 -86.440625 
L 69.650795 -83.52 
L 69.650795 -86.440625 
L 69.650795 -86.440625 
z
" style="stroke: #57db94; stroke-opacity: 0.2; stroke-width: 0.8"/>
    </defs>
    <g clip-path="url(#pf5785cb731)">
     <use xlink:href="#m71da48718c" x="0" y="576" style="fill: #57db94; fill-opacity: 0.2; stroke: #57db94; stroke-opacity: 0.2; stroke-width: 0.8"/>
    </g>
   </g>
   <g id="PolyCollection_4">
    <defs>
     <path id="m5664ccb4d3" d="M 69.650795 -84.903454 
L 69.650795 -83.52 
L 69.650795 -84.903454 
L 69.650795 -84.903454 
z
" style="stroke: #5784db; stroke-opacity: 0.2; stroke-width: 0.8"/>
    </defs>
    <g clip-path="url(#pf5785cb731)">
     <use xlink:href="#m5664ccb4d3" x="0" y="576" style="fill: #5784db; fill-opacity: 0.2; stroke: #5784db; stroke-opacity: 0.2; stroke-width: 0.8"/>
    </g>
   </g>
   <g id="PolyCollection_5">
    <defs>
     <path id="m83807bf03e" d="M 69.650795 -86.440625 
L 69.650795 -83.52 
L 69.650795 -86.440625 
L 69.650795 -86.440625 
z
" style="stroke: #c957db; stroke-opacity: 0.2; stroke-width: 0.8"/>
    </defs>
    <g clip-path="url(#pf5785cb731)">
     <use xlink:href="#m83807bf03e" x="0" y="576" style="fill: #c957db; fill-opacity: 0.2; stroke: #c957db; stroke-opacity: 0.2; stroke-width: 0.8"/>
    </g>
   </g>
   <g id="line2d_47">
    <path d="M 69.650795 491.40398 
L 69.863628 490.32796 
L 70.289293 490.32796 
L 70.502125 489.559375 
L 70.714958 489.559375 
L 70.92779 489.405658 
L 71.353455 489.405658 
L 71.566288 488.790789 
L 71.77912 487.253618 
L 72.417617 486.023881 
L 75.397272 486.023881 
L 75.610104 485.870164 
L 76.461434 445.442562 
L 76.674267 442.060785 
L 76.887099 435.758384 
L 77.099932 433.29891 
L 78.164094 433.29891 
L 78.376926 423.614731 
L 78.589759 423.15358 
L 80.505251 423.15358 
L 80.718083 415.314007 
L 82.420743 415.314007 
L 82.633575 409.011605 
L 83.272073 409.011605 
L 83.484905 403.631506 
L 83.697738 402.555486 
L 84.974733 402.555486 
L 85.400397 374.732688 
L 85.61323 374.425254 
L 86.251727 374.425254 
L 86.46456 351.67512 
L 86.677392 340.914922 
L 86.890225 340.914922 
L 87.31589 308.326893 
L 87.741555 305.098833 
L 87.954387 304.637682 
L 88.167219 303.100511 
L 88.592884 291.41801 
L 88.805717 290.495707 
L 89.018549 284.654457 
L 89.869879 277.429752 
L 90.295544 275.738864 
L 90.508376 273.586824 
L 90.934041 272.357087 
L 91.359706 272.357087 
L 91.572539 256.677941 
L 91.785371 256.063073 
L 91.998204 251.605276 
L 92.423869 237.924453 
L 92.849534 230.08488 
L 93.062366 223.628761 
L 95.190691 223.628761 
L 95.403523 188.581258 
L 95.616356 173.670698 
L 96.89335 173.670698 
L 97.106183 160.297308 
L 97.531848 159.221289 
L 97.74468 159.221289 
L 97.957513 158.145269 
L 99.234507 158.145269 
L 99.44734 156.45438 
L 99.660172 156.45438 
L 100.29867 154.609775 
L 100.937167 154.609775 
L 101.149999 149.844544 
L 101.362832 149.844544 
L 101.575664 149.690827 
L 103.703989 149.690827 
L 103.916821 146.001616 
L 104.129654 145.694182 
L 104.555319 143.849577 
L 105.193816 143.849577 
L 105.406649 143.69586 
L 105.832314 143.69586 
L 106.257978 142.61984 
L 106.470811 141.54382 
L 106.683643 141.390103 
L 107.109308 141.390103 
L 107.322141 141.082669 
L 107.534973 141.082669 
L 107.747806 140.775234 
L 108.386303 140.775234 
L 108.599136 140.621517 
L 109.0248 140.621517 
L 109.237633 140.4678 
L 109.663298 140.4678 
L 109.87613 140.160366 
L 110.301795 140.160366 
L 110.514628 138.623195 
L 111.57879 138.623195 
L 111.791622 137.239741 
L 112.004455 137.086024 
L 112.217287 136.624872 
L 112.855785 136.624872 
L 113.068617 135.70257 
L 113.28145 135.548852 
L 113.494282 135.548852 
L 113.707115 134.780267 
L 113.919947 133.396813 
L 114.345612 132.935661 
L 114.771277 132.935661 
L 114.984109 131.705925 
L 115.196942 131.552207 
L 116.473937 131.552207 
L 116.686769 130.476188 
L 116.899601 130.015036 
L 117.112434 130.015036 
L 117.538099 128.631582 
L 117.750931 128.631582 
L 117.963764 127.094411 
L 118.602261 126.172108 
L 118.815094 126.172108 
L 119.027926 125.710957 
L 119.240758 125.710957 
L 119.666423 125.403523 
L 120.304921 125.403523 
L 120.517753 125.249806 
L 120.943418 125.249806 
L 121.156251 124.788654 
L 121.369083 124.634937 
L 121.794748 124.634937 
L 122.00758 124.48122 
L 123.071743 124.48122 
L 123.284575 124.327503 
L 123.71024 124.327503 
L 123.923073 124.173786 
L 124.774402 124.173786 
L 124.987235 123.558917 
L 125.625732 123.558917 
L 125.838565 122.790332 
L 126.051397 122.636615 
L 126.26423 122.32918 
L 126.477062 122.32918 
L 126.689895 122.021746 
L 126.902727 122.021746 
L 127.115559 120.484575 
L 127.328392 120.023424 
L 127.541224 120.023424 
L 127.754057 119.869706 
L 128.392554 119.869706 
L 128.605387 119.408555 
L 128.818219 119.254838 
L 129.031052 119.254838 
L 129.243884 119.101121 
L 154.783779 119.101121 
L 154.996612 111.415265 
L 156.273606 111.415265 
L 156.699271 111.107831 
L 156.912104 111.107831 
L 157.124936 110.954114 
L 157.337769 110.954114 
L 157.550601 110.646679 
L 162.445748 110.646679 
L 162.65858 110.339245 
L 162.871413 110.339245 
L 163.084245 110.185528 
L 163.297078 108.648357 
L 163.50991 108.49464 
L 165.21257 108.49464 
L 165.425402 108.033488 
L 170.533381 108.033488 
L 170.746214 106.496317 
L 180.323674 106.496317 
L 180.536507 106.3426 
L 183.728994 106.3426 
L 183.941826 106.188883 
L 184.154659 106.188883 
L 184.580324 105.881449 
L 187.77281 105.881449 
L 187.985643 105.727732 
L 191.603795 105.727732 
L 191.816627 105.574014 
L 192.02946 105.26658 
L 204.586575 105.26658 
L 204.799407 104.344278 
L 211.397213 104.344278 
L 211.610046 104.036843 
L 216.079528 104.036843 
L 216.29236 103.729409 
L 222.251669 103.729409 
L 222.464501 100.347632 
L 240.342428 100.347632 
L 240.55526 99.579047 
L 259.071684 99.579047 
L 259.284517 99.117896 
L 285.675742 99.117896 
L 285.888574 97.427007 
L 289.506726 97.427007 
L 289.719558 96.965856 
L 334.414375 96.965856 
L 334.627207 94.660099 
L 334.84004 94.660099 
L 335.052872 94.506382 
L 375.916705 94.506382 
L 375.916705 94.506382 
" clip-path="url(#pf5785cb731)" style="fill: none; stroke: #db5f57; stroke-width: 1.2; stroke-linecap: round"/>
   </g>
   <g id="line2d_48">
    <path d="M 69.650795 491.096546 
L 69.863628 489.713092 
L 70.714958 489.713092 
L 70.92779 489.559375 
L 71.353455 489.559375 
L 71.566288 488.790789 
L 71.77912 486.023881 
L 72.204785 485.255295 
L 72.417617 484.794144 
L 74.33311 484.794144 
L 74.545942 484.640427 
L 75.397272 484.640427 
L 75.610104 483.564407 
L 76.248602 451.898681 
L 76.461434 449.28549 
L 76.887099 434.836081 
L 77.312764 428.687396 
L 78.164094 422.07756 
L 78.376926 421.923843 
L 79.228256 417.158612 
L 79.441089 416.543744 
L 79.653921 414.852856 
L 79.866754 414.852856 
L 80.079586 414.699138 
L 80.292418 413.469401 
L 80.718083 413.161967 
L 80.930916 412.547099 
L 81.143748 412.393382 
L 81.356581 411.778513 
L 81.569413 411.778513 
L 81.782246 410.395059 
L 81.995078 409.933908 
L 82.633575 407.167 
L 83.05924 403.477789 
L 83.272073 403.170355 
L 83.484905 402.248052 
L 83.697738 400.557164 
L 83.91057 400.403446 
L 84.123403 400.403446 
L 84.336235 399.942295 
L 84.549068 398.866275 
L 84.7619 398.405124 
L 84.974733 383.494563 
L 85.826062 369.506306 
L 86.46456 339.070316 
L 86.890225 321.700282 
L 87.103057 321.392848 
L 87.31589 312.784689 
L 87.741555 312.477255 
L 87.954387 305.098833 
L 88.167219 303.407945 
L 88.380052 294.492352 
L 88.592884 294.184918 
L 88.805717 293.416332 
L 89.018549 283.42472 
L 89.231382 282.809851 
L 89.657047 279.12064 
L 90.295544 275.123995 
L 90.721209 273.894258 
L 90.934041 269.129028 
L 91.359706 267.745574 
L 91.572539 257.29281 
L 91.998204 251.297842 
L 92.211036 238.846756 
L 92.423869 238.693039 
L 93.062366 224.551064 
L 93.700863 205.951292 
L 93.913696 205.951292 
L 94.126528 199.341456 
L 94.339361 199.187739 
L 94.552193 198.726588 
L 94.765026 197.804285 
L 95.190691 174.593 
L 95.403523 173.978132 
L 95.616356 173.978132 
L 95.829188 173.363263 
L 96.04202 161.527045 
L 96.254853 161.373328 
L 96.89335 160.604743 
L 97.106183 160.604743 
L 97.319015 160.143591 
L 97.531848 160.143591 
L 98.170345 157.684117 
L 98.383177 157.684117 
L 99.021675 157.222966 
L 99.873005 155.378361 
L 100.085837 154.609775 
L 100.29867 154.456058 
L 100.511502 151.381716 
L 100.937167 149.690827 
L 101.149999 149.53711 
L 101.362832 149.53711 
L 101.575664 148.922242 
L 101.788497 147.692505 
L 102.001329 147.538788 
L 102.639827 146.616485 
L 103.065492 146.616485 
L 103.703989 145.694182 
L 103.916821 145.694182 
L 104.129654 145.540465 
L 105.193816 145.540465 
L 105.406649 143.69586 
L 105.619481 143.542143 
L 105.832314 143.234708 
L 106.045146 143.234708 
L 106.257978 142.61984 
L 106.470811 141.54382 
L 106.683643 141.390103 
L 106.896476 141.390103 
L 107.109308 141.082669 
L 107.322141 141.082669 
L 107.534973 140.928952 
L 107.960638 140.928952 
L 108.173471 140.621517 
L 108.811968 140.621517 
L 109.0248 140.4678 
L 109.450465 140.4678 
L 109.663298 140.314083 
L 110.088963 139.852932 
L 110.301795 138.623195 
L 110.514628 138.162043 
L 111.365957 137.547175 
L 111.57879 137.547175 
L 111.791622 137.393458 
L 112.004455 137.393458 
L 112.43012 136.624872 
L 112.642952 136.624872 
L 112.855785 135.856287 
L 113.068617 135.548852 
L 113.494282 135.548852 
L 114.132779 133.089379 
L 114.345612 132.935661 
L 114.558444 132.935661 
L 114.771277 132.628227 
L 114.984109 131.859642 
L 115.196942 131.705925 
L 116.473937 131.705925 
L 116.686769 130.629905 
L 116.899601 130.168753 
L 117.112434 130.168753 
L 117.325266 128.939016 
L 117.750931 128.631582 
L 117.963764 127.248128 
L 118.176596 126.786977 
L 118.389429 126.63326 
L 118.815094 126.172108 
L 119.027926 126.018391 
L 119.240758 125.710957 
L 119.453591 125.710957 
L 119.666423 125.403523 
L 120.730586 125.403523 
L 120.943418 125.249806 
L 121.156251 124.942371 
L 121.581916 124.942371 
L 122.00758 124.48122 
L 123.497408 124.48122 
L 123.923073 124.173786 
L 124.56157 124.173786 
L 125.625732 122.790332 
L 125.838565 122.790332 
L 126.051397 122.32918 
L 126.26423 122.32918 
L 126.902727 121.868029 
L 127.115559 120.484575 
L 127.328392 120.023424 
L 127.541224 119.869706 
L 127.966889 119.869706 
L 128.179722 119.562272 
L 128.605387 119.562272 
L 129.243884 119.101121 
L 131.797874 119.101121 
L 132.010706 118.947404 
L 132.436371 117.56395 
L 134.139031 117.56395 
L 134.351863 117.410233 
L 134.564696 117.410233 
L 134.777528 116.949081 
L 135.416025 116.949081 
L 136.054523 115.104476 
L 136.480188 114.797042 
L 137.54435 114.797042 
L 137.757182 114.489607 
L 139.034177 114.489607 
L 139.459842 114.028456 
L 144.780654 114.028456 
L 144.993486 113.874739 
L 145.206319 113.413587 
L 145.419151 113.25987 
L 145.844816 113.25987 
L 146.057648 113.106153 
L 146.696146 113.106153 
L 147.121811 112.798719 
L 147.760308 112.798719 
L 147.973141 112.645002 
L 149.037303 112.645002 
L 149.250135 112.491285 
L 150.52713 112.491285 
L 150.739962 112.337568 
L 150.952795 112.030133 
L 151.37846 112.030133 
L 151.591292 111.876416 
L 152.442622 111.876416 
L 152.868287 111.568982 
L 153.293952 111.568982 
L 153.506784 111.415265 
L 156.060774 111.415265 
L 156.486439 111.107831 
L 156.912104 111.107831 
L 157.124936 110.954114 
L 157.337769 110.954114 
L 157.550601 110.646679 
L 162.445748 110.646679 
L 162.65858 110.339245 
L 162.871413 110.339245 
L 163.084245 109.109508 
L 163.50991 108.340923 
L 163.722743 108.340923 
L 164.148407 108.033488 
L 164.999737 108.033488 
L 165.21257 107.879771 
L 166.489564 107.879771 
L 166.702397 107.572337 
L 166.915229 107.572337 
L 167.128062 107.41862 
L 167.340894 107.41862 
L 167.553727 107.264903 
L 168.405057 106.188883 
L 181.175004 106.188883 
L 181.387837 106.035166 
L 183.728994 106.035166 
L 183.941826 105.727732 
L 184.580324 105.727732 
L 184.793156 105.574014 
L 185.857318 105.574014 
L 186.070151 105.420297 
L 190.3268 105.420297 
L 190.539632 105.26658 
L 192.455125 105.26658 
L 192.667957 104.959146 
L 200.329926 104.959146 
L 200.75559 104.651712 
L 201.181255 104.19056 
L 204.373742 104.19056 
L 204.586575 104.036843 
L 209.481721 104.036843 
L 209.694554 103.883126 
L 210.333051 103.883126 
L 210.545884 103.729409 
L 213.525538 103.729409 
L 213.73837 103.575692 
L 215.228198 103.575692 
L 215.44103 103.421975 
L 217.569355 103.421975 
L 217.99502 101.116218 
L 218.207852 100.655067 
L 218.420685 100.655067 
L 218.84635 100.193915 
L 219.059182 100.040198 
L 226.082653 100.040198 
L 226.508318 99.579047 
L 227.146815 99.579047 
L 227.359648 99.42533 
L 227.785313 99.42533 
L 228.210978 99.117896 
L 257.581857 99.117896 
L 257.79469 98.964178 
L 258.433187 98.964178 
L 258.646019 98.810461 
L 259.071684 98.810461 
L 259.284517 98.656744 
L 282.270422 98.656744 
L 282.483255 96.965856 
L 286.314239 96.965856 
L 286.739904 96.504705 
L 313.343961 96.504705 
L 313.556794 96.350987 
L 314.408124 96.350987 
L 314.620956 95.889836 
L 315.685119 95.889836 
L 315.897951 94.660099 
L 316.110783 94.352665 
L 318.451941 94.352665 
L 318.664773 94.198948 
L 375.916705 94.198948 
L 375.916705 94.198948 
" clip-path="url(#pf5785cb731)" style="fill: none; stroke: #b9db57; stroke-width: 1.2; stroke-linecap: round"/>
   </g>
   <g id="line2d_49">
    <path d="M 69.650795 491.019687 
L 69.863628 489.559375 
L 70.714958 489.559375 
L 70.92779 489.405658 
L 71.353455 489.405658 
L 71.991953 486.485032 
L 72.204785 486.485032 
L 72.417617 486.023881 
L 75.610104 486.023881 
L 76.035769 464.964636 
L 76.461434 447.13345 
L 76.674267 444.366542 
L 77.099932 435.604666 
L 77.312764 432.069173 
L 77.525596 431.300587 
L 77.738429 428.687396 
L 77.951261 428.687396 
L 78.164094 426.074205 
L 78.376926 425.920488 
L 78.589759 424.844468 
L 78.802591 424.844468 
L 79.015424 422.538711 
L 79.228256 421.923843 
L 79.866754 419.003218 
L 80.079586 418.695783 
L 80.292418 418.080915 
L 80.505251 417.927198 
L 80.718083 417.927198 
L 81.569413 416.23631 
L 81.782246 415.928875 
L 82.207911 413.469401 
L 83.05924 408.396737 
L 83.272073 408.089302 
L 83.697738 405.783546 
L 83.91057 405.168677 
L 84.336235 404.861243 
L 84.549068 402.555486 
L 84.7619 401.633183 
L 85.400397 378.268181 
L 85.61323 377.653313 
L 85.826062 374.886405 
L 86.038895 368.584003 
L 86.251727 368.276569 
L 86.677392 329.693572 
L 86.890225 328.310118 
L 87.103057 328.002684 
L 87.528722 312.323538 
L 87.954387 311.093801 
L 88.592884 306.32857 
L 89.018549 293.416332 
L 89.231382 291.571727 
L 89.444214 291.264293 
L 89.657047 289.573404 
L 89.869879 286.960213 
L 90.082712 286.960213 
L 90.508376 282.656134 
L 90.934041 282.3487 
L 91.146874 277.890904 
L 91.359706 277.890904 
L 91.572539 268.360442 
L 91.785371 267.899291 
L 91.998204 261.135738 
L 92.211036 261.135738 
L 92.423869 260.982021 
L 92.636701 248.992085 
L 92.849534 243.765703 
L 93.062366 243.611986 
L 93.275198 232.698071 
L 93.488031 231.468334 
L 93.913696 218.402379 
L 94.126528 215.481754 
L 94.765026 213.944583 
L 94.977858 211.177674 
L 95.403523 192.270469 
L 95.616356 191.501883 
L 95.829188 191.501883 
L 96.04202 180.434251 
L 96.467685 180.126817 
L 96.680518 179.358231 
L 96.89335 179.358231 
L 97.319015 178.589645 
L 97.531848 177.974777 
L 97.74468 177.82106 
L 97.957513 177.82106 
L 98.170345 176.283889 
L 98.808842 176.283889 
L 99.021675 176.130172 
L 99.234507 175.515303 
L 99.660172 175.207869 
L 99.873005 174.439283 
L 100.085837 174.439283 
L 100.29867 173.670698 
L 100.511502 172.287244 
L 100.724335 171.979809 
L 100.937167 170.288921 
L 101.149999 169.674053 
L 101.362832 169.520335 
L 101.575664 169.059184 
L 101.788497 169.059184 
L 102.001329 167.983164 
L 102.214162 167.829447 
L 102.426994 167.368296 
L 102.639827 167.368296 
L 102.852659 166.907144 
L 103.065492 166.907144 
L 103.278324 166.59971 
L 103.916821 166.59971 
L 104.129654 165.831125 
L 104.342486 164.447671 
L 104.555319 163.986519 
L 105.193816 163.986519 
L 105.619481 163.679085 
L 105.832314 163.371651 
L 106.045146 163.371651 
L 106.257978 162.910499 
L 106.470811 161.83448 
L 106.683643 161.83448 
L 106.896476 161.680762 
L 107.109308 161.373328 
L 107.322141 161.373328 
L 107.534973 161.219611 
L 107.747806 161.219611 
L 108.173471 160.912177 
L 108.386303 160.912177 
L 108.811968 160.604743 
L 109.450465 160.604743 
L 109.663298 160.451026 
L 110.301795 160.451026 
L 110.514628 158.913854 
L 110.72746 158.298986 
L 111.153125 158.298986 
L 111.365957 157.991552 
L 111.57879 157.991552 
L 112.004455 157.5304 
L 112.43012 157.5304 
L 112.642952 157.069249 
L 112.855785 157.069249 
L 113.068617 156.300663 
L 113.28145 156.300663 
L 113.494282 155.993229 
L 113.707115 155.993229 
L 113.919947 154.148624 
L 114.132779 154.148624 
L 114.345612 153.687472 
L 114.558444 153.687472 
L 114.984109 153.380038 
L 115.196942 152.304018 
L 116.473937 152.304018 
L 116.686769 151.381716 
L 116.899601 151.381716 
L 117.112434 150.920564 
L 117.325266 150.920564 
L 117.538099 149.690827 
L 117.750931 149.690827 
L 117.963764 148.307373 
L 118.389429 147.692505 
L 118.602261 147.692505 
L 118.815094 147.538788 
L 119.027926 147.077636 
L 119.240758 147.077636 
L 119.453591 146.923919 
L 119.666423 146.923919 
L 119.879256 146.770202 
L 120.304921 146.770202 
L 120.517753 146.616485 
L 120.943418 146.616485 
L 121.369083 146.155334 
L 122.220413 146.155334 
L 122.433245 146.001616 
L 122.85891 146.001616 
L 123.071743 145.847899 
L 123.923073 145.847899 
L 124.348738 145.540465 
L 124.56157 145.540465 
L 124.774402 145.386748 
L 124.987235 145.386748 
L 125.4129 144.464445 
L 125.625732 144.157011 
L 125.838565 144.157011 
L 126.051397 144.003294 
L 126.477062 143.542143 
L 126.689895 143.542143 
L 126.902727 143.234708 
L 127.115559 143.234708 
L 127.328392 142.158689 
L 127.541224 141.697537 
L 127.754057 141.54382 
L 127.966889 141.54382 
L 128.179722 141.236386 
L 128.392554 141.236386 
L 128.818219 140.928952 
L 129.243884 140.928952 
L 129.456717 140.775234 
L 132.010706 140.775234 
L 132.223539 140.621517 
L 132.649203 139.39178 
L 133.926198 139.39178 
L 134.139031 139.238063 
L 134.351863 139.238063 
L 134.564696 139.084346 
L 134.99036 139.084346 
L 135.203193 138.930629 
L 135.628858 138.930629 
L 136.480188 136.778589 
L 137.757182 136.778589 
L 137.970015 136.624872 
L 139.034177 136.624872 
L 139.24701 136.471155 
L 139.459842 136.471155 
L 139.672675 136.317438 
L 144.780654 136.317438 
L 144.993486 136.163721 
L 145.206319 136.163721 
L 145.419151 135.548852 
L 146.057648 135.548852 
L 146.270481 135.395135 
L 146.696146 135.395135 
L 146.908978 135.241418 
L 147.121811 135.241418 
L 147.334643 135.087701 
L 147.760308 135.087701 
L 147.973141 134.933984 
L 149.037303 134.933984 
L 149.250135 134.780267 
L 149.888633 134.780267 
L 150.101465 134.62655 
L 150.739962 134.62655 
L 150.952795 134.472833 
L 151.37846 134.472833 
L 151.804125 134.165398 
L 152.22979 134.165398 
L 152.868287 133.704247 
L 156.273606 133.704247 
L 156.699271 133.396813 
L 157.124936 133.396813 
L 157.337769 133.243096 
L 157.550601 132.935661 
L 159.253261 132.935661 
L 159.466093 132.781944 
L 162.445748 132.781944 
L 162.65858 132.47451 
L 162.871413 132.47451 
L 163.084245 132.320793 
L 163.297078 131.091056 
L 163.722743 131.091056 
L 164.36124 130.629905 
L 164.999737 130.629905 
L 165.21257 130.476188 
L 165.638235 130.476188 
L 165.851067 130.32247 
L 166.702397 130.32247 
L 166.915229 130.168753 
L 167.340894 130.168753 
L 167.553727 130.015036 
L 167.766559 130.015036 
L 168.617889 128.939016 
L 180.323674 128.939016 
L 180.536507 128.785299 
L 183.728994 128.785299 
L 184.367491 128.324148 
L 186.070151 128.324148 
L 186.282983 128.170431 
L 190.113967 128.170431 
L 190.3268 128.016714 
L 191.816627 128.016714 
L 192.02946 127.709279 
L 199.265763 127.709279 
L 199.478596 127.555562 
L 200.75559 127.555562 
L 200.968423 127.401845 
L 201.181255 126.940694 
L 204.373742 126.940694 
L 204.586575 126.786977 
L 209.056056 126.786977 
L 209.268889 126.63326 
L 210.545884 126.63326 
L 210.758716 126.479543 
L 212.461376 126.479543 
L 212.674208 126.325825 
L 214.802533 126.325825 
L 215.015365 126.172108 
L 217.14369 126.172108 
L 217.356522 125.403523 
L 217.782187 125.403523 
L 217.99502 124.020069 
L 218.207852 124.020069 
L 218.420685 123.558917 
L 218.633517 123.558917 
L 218.84635 123.251483 
L 225.869821 123.251483 
L 226.295486 122.944049 
L 226.508318 122.636615 
L 227.57248 122.636615 
L 227.998145 122.175463 
L 228.210978 122.175463 
L 228.42381 121.868029 
L 256.94336 121.868029 
L 257.156192 121.714312 
L 258.646019 121.714312 
L 258.858852 121.560595 
L 259.071684 121.560595 
L 259.284517 121.406878 
L 282.270422 121.406878 
L 282.483255 120.177141 
L 282.696087 119.869706 
L 285.888574 119.869706 
L 286.101407 119.715989 
L 286.314239 119.715989 
L 286.527072 119.562272 
L 313.343961 119.562272 
L 313.556794 119.408555 
L 314.833789 119.408555 
L 315.046621 118.947404 
L 315.897951 118.947404 
L 316.110783 117.56395 
L 318.451941 117.56395 
L 318.664773 117.410233 
L 375.916705 117.410233 
L 375.916705 117.410233 
" clip-path="url(#pf5785cb731)" style="fill: none; stroke: #57db94; stroke-width: 1.2; stroke-linecap: round"/>
   </g>
   <g id="line2d_50">
    <path d="M 69.650795 491.788273 
L 69.863628 491.096546 
L 70.289293 491.096546 
L 70.502125 489.559375 
L 70.714958 489.559375 
L 70.92779 489.405658 
L 71.566288 489.405658 
L 71.77912 487.253618 
L 72.204785 486.485032 
L 72.417617 486.331315 
L 75.397272 486.331315 
L 75.610104 484.947861 
L 75.822937 476.954571 
L 76.461434 471.574472 
L 76.674267 440.984766 
L 76.887099 440.369897 
L 77.099932 440.369897 
L 77.738429 439.908746 
L 77.951261 423.461014 
L 78.164094 421.923843 
L 78.376926 421.923843 
L 78.589759 421.308974 
L 78.802591 420.232955 
L 79.015424 420.232955 
L 79.228256 417.773481 
L 79.441089 417.773481 
L 79.653921 417.619764 
L 80.079586 417.619764 
L 80.292418 413.623119 
L 80.930916 413.623119 
L 81.143748 413.469401 
L 81.356581 412.085947 
L 81.569413 411.93223 
L 82.633575 411.93223 
L 82.846408 411.778513 
L 86.251727 411.778513 
L 86.46456 411.624796 
L 86.890225 411.624796 
L 87.31589 411.163645 
L 87.741555 304.176531 
L 87.954387 304.022814 
L 88.167219 304.022814 
L 88.380052 303.869096 
L 93.700863 303.869096 
L 94.126528 203.338101 
L 94.339361 203.184384 
L 94.977858 203.184384 
L 95.190691 202.262082 
L 101.788497 202.262082 
L 102.001329 198.111719 
L 102.214162 145.386748 
L 102.426994 144.925597 
L 106.896476 144.925597 
L 107.109308 144.77188 
L 107.322141 138.930629 
L 112.642952 138.930629 
L 112.855785 134.472833 
L 119.240758 134.472833 
L 119.453591 123.4052 
L 120.092088 123.4052 
L 120.304921 123.251483 
L 122.85891 123.251483 
L 123.071743 122.32918 
L 123.284575 122.175463 
L 127.754057 122.175463 
L 127.966889 117.717667 
L 128.179722 117.717667 
L 128.392554 117.56395 
L 131.797874 117.56395 
L 132.010706 116.795364 
L 135.84169 116.795364 
L 136.054523 113.25987 
L 138.608512 113.25987 
L 138.821345 112.952436 
L 139.459842 112.952436 
L 139.672675 112.030133 
L 145.206319 112.030133 
L 145.419151 111.261548 
L 151.37846 111.261548 
L 151.591292 110.185528 
L 155.422277 110.185528 
L 155.635109 109.416942 
L 159.253261 109.416942 
L 159.466093 108.648357 
L 163.50991 108.648357 
L 163.722743 106.496317 
L 167.340894 106.496317 
L 167.553727 105.574014 
L 167.979392 105.574014 
L 168.192224 105.420297 
L 172.661706 105.420297 
L 172.874538 104.497995 
L 180.749339 104.497995 
L 180.962172 104.344278 
L 192.02946 104.344278 
L 192.242292 103.268258 
L 200.329926 103.268258 
L 200.542758 103.114541 
L 203.735245 103.114541 
L 203.948077 102.499672 
L 208.417559 102.499672 
L 208.630391 102.345955 
L 211.822878 102.345955 
L 212.035711 102.038521 
L 215.015365 102.038521 
L 215.228198 101.731087 
L 219.059182 101.731087 
L 219.272014 98.34931 
L 226.72115 98.34931 
L 226.933983 97.888159 
L 231.190632 97.888159 
L 231.403465 97.580724 
L 261.838506 97.580724 
L 262.051339 97.119573 
L 286.739904 97.119573 
L 286.952737 94.967533 
L 313.556794 94.967533 
L 313.769626 94.813816 
L 319.728935 94.813816 
L 319.941768 92.661777 
L 335.904202 92.661777 
L 336.117035 92.508059 
L 375.916705 92.508059 
L 375.916705 92.508059 
" clip-path="url(#pf5785cb731)" style="fill: none; stroke: #5784db; stroke-width: 1.2; stroke-linecap: round"/>
   </g>
   <g id="line2d_51">
    <path d="M 69.650795 491.019687 
L 69.863628 489.559375 
L 70.714958 489.559375 
L 70.92779 489.405658 
L 71.353455 489.405658 
L 71.566288 488.329638 
L 71.77912 485.716447 
L 71.991953 484.947861 
L 72.204785 484.947861 
L 72.417617 484.48671 
L 75.397272 484.48671 
L 75.610104 483.103256 
L 76.035769 454.511872 
L 77.099932 430.685719 
L 77.525596 426.074205 
L 77.951261 423.15358 
L 78.164094 421.616409 
L 78.376926 421.462692 
L 79.228256 416.543744 
L 79.441089 416.082592 
L 79.653921 414.237987 
L 79.866754 414.237987 
L 80.079586 413.930553 
L 80.292418 413.00825 
L 80.718083 412.700816 
L 81.143748 411.778513 
L 81.569413 411.009928 
L 81.782246 409.626474 
L 81.995078 409.011605 
L 83.697738 399.788578 
L 83.91057 399.327427 
L 84.123403 399.173709 
L 84.336235 398.712558 
L 84.549068 396.099367 
L 84.7619 395.484499 
L 84.974733 381.03509 
L 85.400397 371.197194 
L 85.61323 370.582326 
L 85.826062 367.969135 
L 86.677392 320.316828 
L 86.890225 318.472223 
L 87.103057 317.857354 
L 87.31589 303.100511 
L 87.954387 300.641037 
L 88.167219 297.720412 
L 88.380052 288.651102 
L 88.805717 286.652779 
L 89.018549 279.12064 
L 89.231382 278.352055 
L 89.657047 274.35541 
L 90.082712 272.510804 
L 90.295544 270.051331 
L 90.721209 268.514159 
L 90.934041 264.671231 
L 91.359706 262.826626 
L 91.572539 252.373862 
L 91.998204 245.149157 
L 92.211036 234.081525 
L 92.423869 233.774091 
L 93.062366 219.478399 
L 93.700863 201.647213 
L 93.913696 196.728265 
L 94.126528 195.191094 
L 94.552193 194.422509 
L 94.765026 193.653923 
L 95.190691 169.82777 
L 95.403523 169.212901 
L 95.829188 169.212901 
L 96.04202 157.376683 
L 96.254853 157.222966 
L 96.467685 156.915532 
L 96.680518 156.300663 
L 96.89335 156.300663 
L 97.106183 155.993229 
L 97.319015 155.224644 
L 97.74468 154.917209 
L 98.170345 153.380038 
L 98.808842 153.380038 
L 99.021675 153.072604 
L 99.44734 152.150301 
L 100.29867 150.459413 
L 100.511502 147.385071 
L 100.937167 145.694182 
L 101.149999 145.540465 
L 101.362832 145.540465 
L 101.575664 144.925597 
L 101.788497 143.69586 
L 102.001329 143.542143 
L 102.639827 142.61984 
L 103.065492 142.61984 
L 103.703989 141.697537 
L 103.916821 141.697537 
L 104.129654 141.236386 
L 104.342486 140.006649 
L 104.555319 139.545498 
L 105.193816 139.545498 
L 105.619481 139.238063 
L 105.832314 138.930629 
L 106.045146 138.930629 
L 106.470811 137.239741 
L 106.683643 137.086024 
L 106.896476 137.086024 
L 107.109308 136.778589 
L 107.322141 136.778589 
L 107.534973 136.471155 
L 107.960638 136.471155 
L 108.173471 136.317438 
L 108.599136 136.317438 
L 108.811968 136.163721 
L 109.450465 136.163721 
L 109.663298 136.010004 
L 110.088963 135.548852 
L 110.301795 134.319116 
L 110.514628 133.857964 
L 111.365957 133.243096 
L 111.57879 133.243096 
L 111.791622 132.781944 
L 112.004455 132.781944 
L 112.217287 132.320793 
L 112.642952 132.320793 
L 112.855785 131.552207 
L 113.068617 131.244773 
L 113.494282 131.244773 
L 114.132779 128.785299 
L 114.345612 128.631582 
L 114.558444 128.631582 
L 114.771277 128.324148 
L 114.984109 127.401845 
L 115.196942 127.248128 
L 116.473937 127.248128 
L 116.686769 126.172108 
L 116.899601 125.710957 
L 117.112434 125.710957 
L 117.325266 124.48122 
L 117.750931 124.173786 
L 117.963764 122.790332 
L 118.176596 122.32918 
L 118.389429 122.175463 
L 119.240758 121.099443 
L 119.453591 121.099443 
L 119.666423 120.945726 
L 120.092088 120.945726 
L 120.304921 120.792009 
L 120.943418 120.792009 
L 121.156251 120.177141 
L 121.794748 120.177141 
L 122.00758 120.023424 
L 122.85891 120.023424 
L 123.071743 119.869706 
L 123.71024 119.869706 
L 123.923073 119.715989 
L 124.56157 119.715989 
L 125.625732 118.332535 
L 125.838565 118.332535 
L 126.051397 117.871384 
L 126.26423 117.871384 
L 126.902727 117.410233 
L 127.115559 116.026778 
L 127.328392 115.565627 
L 127.541224 115.41191 
L 127.966889 115.41191 
L 128.392554 114.950759 
L 128.605387 114.950759 
L 128.818219 114.797042 
L 129.031052 114.797042 
L 129.243884 114.643324 
L 131.797874 114.643324 
L 132.010706 114.489607 
L 132.436371 113.106153 
L 133.926198 113.106153 
L 134.351863 112.798719 
L 134.564696 112.798719 
L 134.777528 112.491285 
L 135.416025 112.491285 
L 136.054523 110.646679 
L 136.480188 110.339245 
L 137.54435 110.339245 
L 137.757182 110.031811 
L 138.608512 110.031811 
L 138.821345 109.724377 
L 139.24701 109.724377 
L 139.459842 109.57066 
L 144.780654 109.57066 
L 144.993486 109.416942 
L 145.206319 108.955791 
L 145.419151 108.802074 
L 145.844816 108.802074 
L 146.057648 108.648357 
L 146.696146 108.648357 
L 147.121811 108.340923 
L 147.760308 108.340923 
L 147.973141 108.187205 
L 149.037303 108.187205 
L 149.250135 108.033488 
L 149.888633 108.033488 
L 150.101465 107.879771 
L 150.739962 107.879771 
L 150.952795 107.572337 
L 151.37846 107.572337 
L 151.591292 107.264903 
L 152.22979 107.264903 
L 152.868287 106.803751 
L 156.060774 106.803751 
L 156.486439 106.496317 
L 156.912104 106.496317 
L 157.124936 106.3426 
L 157.337769 106.3426 
L 157.550601 106.035166 
L 162.445748 106.035166 
L 162.65858 105.727732 
L 162.871413 105.727732 
L 163.084245 104.497995 
L 163.50991 103.729409 
L 163.722743 103.729409 
L 164.148407 103.421975 
L 164.999737 103.421975 
L 165.21257 103.268258 
L 165.638235 103.268258 
L 165.851067 103.114541 
L 166.489564 103.114541 
L 166.702397 102.960823 
L 166.915229 102.960823 
L 167.128062 102.807106 
L 167.340894 102.807106 
L 167.553727 102.653389 
L 168.405057 101.577369 
L 180.323674 101.577369 
L 180.536507 101.423652 
L 183.728994 101.423652 
L 183.941826 101.116218 
L 184.154659 101.116218 
L 184.367491 100.962501 
L 185.857318 100.962501 
L 186.070151 100.808784 
L 190.113967 100.808784 
L 190.3268 100.655067 
L 191.816627 100.655067 
L 192.02946 100.347632 
L 199.265763 100.347632 
L 199.478596 100.193915 
L 200.542758 100.193915 
L 200.75559 100.040198 
L 201.181255 99.579047 
L 204.373742 99.579047 
L 204.586575 99.42533 
L 209.056056 99.42533 
L 209.268889 99.271613 
L 210.333051 99.271613 
L 210.545884 99.117896 
L 212.461376 99.117896 
L 212.674208 98.964178 
L 214.802533 98.964178 
L 215.015365 98.810461 
L 217.14369 98.810461 
L 217.356522 98.041876 
L 217.569355 98.041876 
L 217.99502 96.19727 
L 218.207852 95.736119 
L 218.420685 95.736119 
L 218.84635 95.274968 
L 219.059182 95.12125 
L 225.869821 95.12125 
L 226.082653 94.967533 
L 226.508318 94.506382 
L 227.785313 94.506382 
L 228.210978 94.198948 
L 256.94336 94.198948 
L 257.156192 94.045231 
L 258.433187 94.045231 
L 258.646019 93.891514 
L 259.071684 93.891514 
L 259.284517 93.737796 
L 282.270422 93.737796 
L 282.483255 92.046908 
L 285.888574 92.046908 
L 286.101407 91.893191 
L 286.314239 91.893191 
L 286.739904 91.585757 
L 313.343961 91.585757 
L 313.556794 91.43204 
L 314.408124 91.43204 
L 314.620956 90.970888 
L 315.685119 90.970888 
L 315.897951 89.741151 
L 316.110783 89.433717 
L 318.451941 89.433717 
L 318.664773 89.28 
L 375.916705 89.28 
L 375.916705 89.28 
" clip-path="url(#pf5785cb731)" style="fill: none; stroke: #c957db; stroke-width: 1.2; stroke-linecap: round"/>
   </g>
   <g id="line2d_52"/>
   <g id="line2d_53"/>
   <g id="line2d_54"/>
   <g id="line2d_55"/>
   <g id="line2d_56"/>
   <g id="patch_3">
    <path d="M 54.3375 512.64 
L 54.3375 69.12 
" style="fill: none; stroke: #cccccc; stroke-linejoin: miter; stroke-linecap: square"/>
   </g>
   <g id="patch_4">
    <path d="M 54.3375 512.64 
L 391.23 512.64 
" style="fill: none; stroke: #cccccc; stroke-linejoin: miter; stroke-linecap: square"/>
   </g>
   <g id="text_49">
    <!-- Edge Coverage History -->
    <g style="fill: #262626" transform="translate(115.892262 63.12)scale(0.165888 -0.165888)">
     <defs>
      <path id="DejaVuSans-Bold-45" d="M 588 4666 
L 3834 4666 
L 3834 3756 
L 1791 3756 
L 1791 2888 
L 3713 2888 
L 3713 1978 
L 1791 1978 
L 1791 909 
L 3903 909 
L 3903 0 
L 588 0 
L 588 4666 
z
" transform="scale(0.015625)"/>
      <path id="DejaVuSans-Bold-64" d="M 2919 2988 
L 2919 4863 
L 4044 4863 
L 4044 0 
L 2919 0 
L 2919 506 
Q 2688 197 2409 53 
Q 2131 -91 1766 -91 
Q 1119 -91 703 423 
Q 288 938 288 1747 
Q 288 2556 703 3070 
Q 1119 3584 1766 3584 
Q 2128 3584 2408 3439 
Q 2688 3294 2919 2988 
z
M 2181 722 
Q 2541 722 2730 984 
Q 2919 1247 2919 1747 
Q 2919 2247 2730 2509 
Q 2541 2772 2181 2772 
Q 1825 2772 1636 2509 
Q 1447 2247 1447 1747 
Q 1447 1247 1636 984 
Q 1825 722 2181 722 
z
" transform="scale(0.015625)"/>
      <path id="DejaVuSans-Bold-67" d="M 2919 594 
Q 2688 288 2409 144 
Q 2131 0 1766 0 
Q 1125 0 706 504 
Q 288 1009 288 1791 
Q 288 2575 706 3076 
Q 1125 3578 1766 3578 
Q 2131 3578 2409 3434 
Q 2688 3291 2919 2981 
L 2919 3500 
L 4044 3500 
L 4044 353 
Q 4044 -491 3511 -936 
Q 2978 -1381 1966 -1381 
Q 1638 -1381 1331 -1331 
Q 1025 -1281 716 -1178 
L 716 -306 
Q 1009 -475 1290 -558 
Q 1572 -641 1856 -641 
Q 2406 -641 2662 -400 
Q 2919 -159 2919 353 
L 2919 594 
z
M 2181 2772 
Q 1834 2772 1640 2515 
Q 1447 2259 1447 1791 
Q 1447 1309 1634 1061 
Q 1822 813 2181 813 
Q 2531 813 2725 1069 
Q 2919 1325 2919 1791 
Q 2919 2259 2725 2515 
Q 2531 2772 2181 2772 
z
" transform="scale(0.015625)"/>
      <path id="DejaVuSans-Bold-65" d="M 4031 1759 
L 4031 1441 
L 1416 1441 
Q 1456 1047 1700 850 
Q 1944 653 2381 653 
Q 2734 653 3104 758 
Q 3475 863 3866 1075 
L 3866 213 
Q 3469 63 3072 -14 
Q 2675 -91 2278 -91 
Q 1328 -91 801 392 
Q 275 875 275 1747 
Q 275 2603 792 3093 
Q 1309 3584 2216 3584 
Q 3041 3584 3536 3087 
Q 4031 2591 4031 1759 
z
M 2881 2131 
Q 2881 2450 2695 2645 
Q 2509 2841 2209 2841 
Q 1884 2841 1681 2658 
Q 1478 2475 1428 2131 
L 2881 2131 
z
" transform="scale(0.015625)"/>
      <path id="DejaVuSans-Bold-20" transform="scale(0.015625)"/>
      <path id="DejaVuSans-Bold-43" d="M 4288 256 
Q 3956 84 3597 -3 
Q 3238 -91 2847 -91 
Q 1681 -91 1000 561 
Q 319 1213 319 2328 
Q 319 3447 1000 4098 
Q 1681 4750 2847 4750 
Q 3238 4750 3597 4662 
Q 3956 4575 4288 4403 
L 4288 3438 
Q 3953 3666 3628 3772 
Q 3303 3878 2944 3878 
Q 2300 3878 1931 3465 
Q 1563 3053 1563 2328 
Q 1563 1606 1931 1193 
Q 2300 781 2944 781 
Q 3303 781 3628 887 
Q 3953 994 4288 1222 
L 4288 256 
z
" transform="scale(0.015625)"/>
      <path id="DejaVuSans-Bold-6f" d="M 2203 2784 
Q 1831 2784 1636 2517 
Q 1441 2250 1441 1747 
Q 1441 1244 1636 976 
Q 1831 709 2203 709 
Q 2569 709 2762 976 
Q 2956 1244 2956 1747 
Q 2956 2250 2762 2517 
Q 2569 2784 2203 2784 
z
M 2203 3584 
Q 3106 3584 3614 3096 
Q 4122 2609 4122 1747 
Q 4122 884 3614 396 
Q 3106 -91 2203 -91 
Q 1297 -91 786 396 
Q 275 884 275 1747 
Q 275 2609 786 3096 
Q 1297 3584 2203 3584 
z
" transform="scale(0.015625)"/>
      <path id="DejaVuSans-Bold-76" d="M 97 3500 
L 1216 3500 
L 2088 1081 
L 2956 3500 
L 4078 3500 
L 2700 0 
L 1472 0 
L 97 3500 
z
" transform="scale(0.015625)"/>
      <path id="DejaVuSans-Bold-72" d="M 3138 2547 
Q 2991 2616 2845 2648 
Q 2700 2681 2553 2681 
Q 2122 2681 1889 2404 
Q 1656 2128 1656 1613 
L 1656 0 
L 538 0 
L 538 3500 
L 1656 3500 
L 1656 2925 
Q 1872 3269 2151 3426 
Q 2431 3584 2822 3584 
Q 2878 3584 2943 3579 
Q 3009 3575 3134 3559 
L 3138 2547 
z
" transform="scale(0.015625)"/>
      <path id="DejaVuSans-Bold-61" d="M 2106 1575 
Q 1756 1575 1579 1456 
Q 1403 1338 1403 1106 
Q 1403 894 1545 773 
Q 1688 653 1941 653 
Q 2256 653 2472 879 
Q 2688 1106 2688 1447 
L 2688 1575 
L 2106 1575 
z
M 3816 1997 
L 3816 0 
L 2688 0 
L 2688 519 
Q 2463 200 2181 54 
Q 1900 -91 1497 -91 
Q 953 -91 614 226 
Q 275 544 275 1050 
Q 275 1666 698 1953 
Q 1122 2241 2028 2241 
L 2688 2241 
L 2688 2328 
Q 2688 2594 2478 2717 
Q 2269 2841 1825 2841 
Q 1466 2841 1156 2769 
Q 847 2697 581 2553 
L 581 3406 
Q 941 3494 1303 3539 
Q 1666 3584 2028 3584 
Q 2975 3584 3395 3211 
Q 3816 2838 3816 1997 
z
" transform="scale(0.015625)"/>
      <path id="DejaVuSans-Bold-48" d="M 588 4666 
L 1791 4666 
L 1791 2888 
L 3566 2888 
L 3566 4666 
L 4769 4666 
L 4769 0 
L 3566 0 
L 3566 1978 
L 1791 1978 
L 1791 0 
L 588 0 
L 588 4666 
z
" transform="scale(0.015625)"/>
      <path id="DejaVuSans-Bold-69" d="M 538 3500 
L 1656 3500 
L 1656 0 
L 538 0 
L 538 3500 
z
M 538 4863 
L 1656 4863 
L 1656 3950 
L 538 3950 
L 538 4863 
z
" transform="scale(0.015625)"/>
      <path id="DejaVuSans-Bold-73" d="M 3272 3391 
L 3272 2541 
Q 2913 2691 2578 2766 
Q 2244 2841 1947 2841 
Q 1628 2841 1473 2761 
Q 1319 2681 1319 2516 
Q 1319 2381 1436 2309 
Q 1553 2238 1856 2203 
L 2053 2175 
Q 2913 2066 3209 1816 
Q 3506 1566 3506 1031 
Q 3506 472 3093 190 
Q 2681 -91 1863 -91 
Q 1516 -91 1145 -36 
Q 775 19 384 128 
L 384 978 
Q 719 816 1070 734 
Q 1422 653 1784 653 
Q 2113 653 2278 743 
Q 2444 834 2444 1013 
Q 2444 1163 2330 1236 
Q 2216 1309 1875 1350 
L 1678 1375 
Q 931 1469 631 1722 
Q 331 1975 331 2491 
Q 331 3047 712 3315 
Q 1094 3584 1881 3584 
Q 2191 3584 2531 3537 
Q 2872 3491 3272 3391 
z
" transform="scale(0.015625)"/>
      <path id="DejaVuSans-Bold-74" d="M 1759 4494 
L 1759 3500 
L 2913 3500 
L 2913 2700 
L 1759 2700 
L 1759 1216 
Q 1759 972 1856 886 
Q 1953 800 2241 800 
L 2816 800 
L 2816 0 
L 1856 0 
Q 1194 0 917 276 
Q 641 553 641 1216 
L 641 2700 
L 84 2700 
L 84 3500 
L 641 3500 
L 641 4494 
L 1759 4494 
z
" transform="scale(0.015625)"/>
      <path id="DejaVuSans-Bold-79" d="M 78 3500 
L 1197 3500 
L 2138 1125 
L 2938 3500 
L 4056 3500 
L 2584 -331 
Q 2363 -916 2067 -1148 
Q 1772 -1381 1288 -1381 
L 641 -1381 
L 641 -647 
L 991 -647 
Q 1275 -647 1404 -556 
Q 1534 -466 1606 -231 
L 1638 -134 
L 78 3500 
z
" transform="scale(0.015625)"/>
     </defs>
     <use xlink:href="#DejaVuSans-Bold-45"/>
     <use xlink:href="#DejaVuSans-Bold-64" x="68.310547"/>
     <use xlink:href="#DejaVuSans-Bold-67" x="139.892578"/>
     <use xlink:href="#DejaVuSans-Bold-65" x="211.474609"/>
     <use xlink:href="#DejaVuSans-Bold-20" x="279.296875"/>
     <use xlink:href="#DejaVuSans-Bold-43" x="314.111328"/>
     <use xlink:href="#DejaVuSans-Bold-6f" x="387.5"/>
     <use xlink:href="#DejaVuSans-Bold-76" x="456.201172"/>
     <use xlink:href="#DejaVuSans-Bold-65" x="521.386719"/>
     <use xlink:href="#DejaVuSans-Bold-72" x="589.208984"/>
     <use xlink:href="#DejaVuSans-Bold-61" x="638.525391"/>
     <use xlink:href="#DejaVuSans-Bold-67" x="706.005859"/>
     <use xlink:href="#DejaVuSans-Bold-65" x="777.587891"/>
     <use xlink:href="#DejaVuSans-Bold-20" x="845.410156"/>
     <use xlink:href="#DejaVuSans-Bold-48" x="880.224609"/>
     <use xlink:href="#DejaVuSans-Bold-69" x="963.916016"/>
     <use xlink:href="#DejaVuSans-Bold-73" x="998.193359"/>
     <use xlink:href="#DejaVuSans-Bold-74" x="1057.714844"/>
     <use xlink:href="#DejaVuSans-Bold-6f" x="1105.517578"/>
     <use xlink:href="#DejaVuSans-Bold-72" x="1174.21875"/>
     <use xlink:href="#DejaVuSans-Bold-79" x="1223.535156"/>
    </g>
   </g>
   <g id="legend_1">
    <g id="patch_5">
     <path d="M 267.942 508.24 
L 385.07 508.24 
Q 386.83 508.24 386.83 506.48 
L 386.83 428.8405 
Q 386.83 427.0805 385.07 427.0805 
L 267.942 427.0805 
Q 266.182 427.0805 266.182 428.8405 
L 266.182 506.48 
Q 266.182 508.24 267.942 508.24 
z
" style="fill: #ffffff; opacity: 0.8; stroke: #cccccc; stroke-width: 0.8; stroke-linejoin: miter"/>
    </g>
    <g id="text_50">
     <!-- fuzzer -->
     <g style="fill: #262626" transform="translate(311.809 437.895)scale(0.096 -0.096)">
      <defs>
       <path id="DejaVuSans-66" d="M 2375 4863 
L 2375 4384 
L 1825 4384 
Q 1516 4384 1395 4259 
Q 1275 4134 1275 3809 
L 1275 3500 
L 2222 3500 
L 2222 3053 
L 1275 3053 
L 1275 0 
L 697 0 
L 697 3053 
L 147 3053 
L 147 3500 
L 697 3500 
L 697 3744 
Q 697 4328 969 4595 
Q 1241 4863 1831 4863 
L 2375 4863 
z
" transform="scale(0.015625)"/>
       <path id="DejaVuSans-7a" d="M 353 3500 
L 3084 3500 
L 3084 2975 
L 922 459 
L 3084 459 
L 3084 0 
L 275 0 
L 275 525 
L 2438 3041 
L 353 3041 
L 353 3500 
z
" transform="scale(0.015625)"/>
      </defs>
      <use xlink:href="#DejaVuSans-66"/>
      <use xlink:href="#DejaVuSans-75" x="35.205078"/>
      <use xlink:href="#DejaVuSans-7a" x="98.583984"/>
      <use xlink:href="#DejaVuSans-7a" x="151.074219"/>
      <use xlink:href="#DejaVuSans-65" x="203.564453"/>
      <use xlink:href="#DejaVuSans-72" x="265.087891"/>
     </g>
    </g>
    <g id="line2d_57">
     <path d="M 269.702 447.898125 
L 278.502 447.898125 
L 287.302 447.898125 
" style="fill: none; stroke: #db5f57; stroke-width: 1.2; stroke-linecap: round"/>
    </g>
    <g id="text_51">
     <!-- aflplusplus-0-exid22 -->
     <g style="fill: #262626" transform="translate(294.342 450.978125)scale(0.088 -0.088)">
      <defs>
       <path id="DejaVuSans-6c" d="M 603 4863 
L 1178 4863 
L 1178 0 
L 603 0 
L 603 4863 
z
" transform="scale(0.015625)"/>
       <path id="DejaVuSans-70" d="M 1159 525 
L 1159 -1331 
L 581 -1331 
L 581 3500 
L 1159 3500 
L 1159 2969 
Q 1341 3281 1617 3432 
Q 1894 3584 2278 3584 
Q 2916 3584 3314 3078 
Q 3713 2572 3713 1747 
Q 3713 922 3314 415 
Q 2916 -91 2278 -91 
Q 1894 -91 1617 61 
Q 1341 213 1159 525 
z
M 3116 1747 
Q 3116 2381 2855 2742 
Q 2594 3103 2138 3103 
Q 1681 3103 1420 2742 
Q 1159 2381 1159 1747 
Q 1159 1113 1420 752 
Q 1681 391 2138 391 
Q 2594 391 2855 752 
Q 3116 1113 3116 1747 
z
" transform="scale(0.015625)"/>
       <path id="DejaVuSans-2d" d="M 313 2009 
L 1997 2009 
L 1997 1497 
L 313 1497 
L 313 2009 
z
" transform="scale(0.015625)"/>
       <path id="DejaVuSans-78" d="M 3513 3500 
L 2247 1797 
L 3578 0 
L 2900 0 
L 1881 1375 
L 863 0 
L 184 0 
L 1544 1831 
L 300 3500 
L 978 3500 
L 1906 2253 
L 2834 3500 
L 3513 3500 
z
" transform="scale(0.015625)"/>
      </defs>
      <use xlink:href="#DejaVuSans-61"/>
      <use xlink:href="#DejaVuSans-66" x="61.279297"/>
      <use xlink:href="#DejaVuSans-6c" x="96.484375"/>
      <use xlink:href="#DejaVuSans-70" x="124.267578"/>
      <use xlink:href="#DejaVuSans-6c" x="187.744141"/>
      <use xlink:href="#DejaVuSans-75" x="215.527344"/>
      <use xlink:href="#DejaVuSans-73" x="278.90625"/>
      <use xlink:href="#DejaVuSans-70" x="331.005859"/>
      <use xlink:href="#DejaVuSans-6c" x="394.482422"/>
      <use xlink:href="#DejaVuSans-75" x="422.265625"/>
      <use xlink:href="#DejaVuSans-73" x="485.644531"/>
      <use xlink:href="#DejaVuSans-2d" x="537.744141"/>
      <use xlink:href="#DejaVuSans-30" x="573.828125"/>
      <use xlink:href="#DejaVuSans-2d" x="637.451172"/>
      <use xlink:href="#DejaVuSans-65" x="673.535156"/>
      <use xlink:href="#DejaVuSans-78" x="733.308594"/>
      <use xlink:href="#DejaVuSans-69" x="792.488281"/>
      <use xlink:href="#DejaVuSans-64" x="820.271484"/>
      <use xlink:href="#DejaVuSans-32" x="883.748047"/>
      <use xlink:href="#DejaVuSans-32" x="947.371094"/>
     </g>
    </g>
    <g id="line2d_58">
     <path d="M 269.702 460.814875 
L 278.502 460.814875 
L 287.302 460.814875 
" style="fill: none; stroke: #b9db57; stroke-width: 1.2; stroke-linecap: round"/>
    </g>
    <g id="text_52">
     <!-- fairfuzz-0-exid22 -->
     <g style="fill: #262626" transform="translate(294.342 463.894875)scale(0.088 -0.088)">
      <use xlink:href="#DejaVuSans-66"/>
      <use xlink:href="#DejaVuSans-61" x="35.205078"/>
      <use xlink:href="#DejaVuSans-69" x="96.484375"/>
      <use xlink:href="#DejaVuSans-72" x="124.267578"/>
      <use xlink:href="#DejaVuSans-66" x="165.380859"/>
      <use xlink:href="#DejaVuSans-75" x="200.585938"/>
      <use xlink:href="#DejaVuSans-7a" x="263.964844"/>
      <use xlink:href="#DejaVuSans-7a" x="316.455078"/>
      <use xlink:href="#DejaVuSans-2d" x="368.945312"/>
      <use xlink:href="#DejaVuSans-30" x="405.029297"/>
      <use xlink:href="#DejaVuSans-2d" x="468.652344"/>
      <use xlink:href="#DejaVuSans-65" x="504.736328"/>
      <use xlink:href="#DejaVuSans-78" x="564.509766"/>
      <use xlink:href="#DejaVuSans-69" x="623.689453"/>
      <use xlink:href="#DejaVuSans-64" x="651.472656"/>
      <use xlink:href="#DejaVuSans-32" x="714.949219"/>
      <use xlink:href="#DejaVuSans-32" x="778.572266"/>
     </g>
    </g>
    <g id="line2d_59">
     <path d="M 269.702 473.731625 
L 278.502 473.731625 
L 287.302 473.731625 
" style="fill: none; stroke: #57db94; stroke-width: 1.2; stroke-linecap: round"/>
    </g>
    <g id="text_53">
     <!-- afl-0-exid22 -->
     <g style="fill: #262626" transform="translate(294.342 476.811625)scale(0.088 -0.088)">
      <use xlink:href="#DejaVuSans-61"/>
      <use xlink:href="#DejaVuSans-66" x="61.279297"/>
      <use xlink:href="#DejaVuSans-6c" x="96.484375"/>
      <use xlink:href="#DejaVuSans-2d" x="124.267578"/>
      <use xlink:href="#DejaVuSans-30" x="160.351562"/>
      <use xlink:href="#DejaVuSans-2d" x="223.974609"/>
      <use xlink:href="#DejaVuSans-65" x="260.058594"/>
      <use xlink:href="#DejaVuSans-78" x="319.832031"/>
      <use xlink:href="#DejaVuSans-69" x="379.011719"/>
      <use xlink:href="#DejaVuSans-64" x="406.794922"/>
      <use xlink:href="#DejaVuSans-32" x="470.271484"/>
      <use xlink:href="#DejaVuSans-32" x="533.894531"/>
     </g>
    </g>
    <g id="line2d_60">
     <path d="M 269.702 486.648375 
L 278.502 486.648375 
L 287.302 486.648375 
" style="fill: none; stroke: #5784db; stroke-width: 1.2; stroke-linecap: round"/>
    </g>
    <g id="text_54">
     <!-- aflfast-0-exid22 -->
     <g style="fill: #262626" transform="translate(294.342 489.728375)scale(0.088 -0.088)">
      <use xlink:href="#DejaVuSans-61"/>
      <use xlink:href="#DejaVuSans-66" x="61.279297"/>
      <use xlink:href="#DejaVuSans-6c" x="96.484375"/>
      <use xlink:href="#DejaVuSans-66" x="124.267578"/>
      <use xlink:href="#DejaVuSans-61" x="159.472656"/>
      <use xlink:href="#DejaVuSans-73" x="220.751953"/>
      <use xlink:href="#DejaVuSans-74" x="272.851562"/>
      <use xlink:href="#DejaVuSans-2d" x="312.060547"/>
      <use xlink:href="#DejaVuSans-30" x="348.144531"/>
      <use xlink:href="#DejaVuSans-2d" x="411.767578"/>
      <use xlink:href="#DejaVuSans-65" x="447.851562"/>
      <use xlink:href="#DejaVuSans-78" x="507.625"/>
      <use xlink:href="#DejaVuSans-69" x="566.804688"/>
      <use xlink:href="#DejaVuSans-64" x="594.587891"/>
      <use xlink:href="#DejaVuSans-32" x="658.064453"/>
      <use xlink:href="#DejaVuSans-32" x="721.6875"/>
     </g>
    </g>
    <g id="line2d_61">
     <path d="M 269.702 499.565125 
L 278.502 499.565125 
L 287.302 499.565125 
" style="fill: none; stroke: #c957db; stroke-width: 1.2; stroke-linecap: round"/>
    </g>
    <g id="text_55">
     <!-- fuzzer_global -->
     <g style="fill: #262626" transform="translate(294.342 502.645125)scale(0.088 -0.088)">
      <defs>
       <path id="DejaVuSans-5f" d="M 3263 -1063 
L 3263 -1509 
L -63 -1509 
L -63 -1063 
L 3263 -1063 
z
" transform="scale(0.015625)"/>
       <path id="DejaVuSans-62" d="M 3116 1747 
Q 3116 2381 2855 2742 
Q 2594 3103 2138 3103 
Q 1681 3103 1420 2742 
Q 1159 2381 1159 1747 
Q 1159 1113 1420 752 
Q 1681 391 2138 391 
Q 2594 391 2855 752 
Q 3116 1113 3116 1747 
z
M 1159 2969 
Q 1341 3281 1617 3432 
Q 1894 3584 2278 3584 
Q 2916 3584 3314 3078 
Q 3713 2572 3713 1747 
Q 3713 922 3314 415 
Q 2916 -91 2278 -91 
Q 1894 -91 1617 61 
Q 1341 213 1159 525 
L 1159 0 
L 581 0 
L 581 4863 
L 1159 4863 
L 1159 2969 
z
" transform="scale(0.015625)"/>
      </defs>
      <use xlink:href="#DejaVuSans-66"/>
      <use xlink:href="#DejaVuSans-75" x="35.205078"/>
      <use xlink:href="#DejaVuSans-7a" x="98.583984"/>
      <use xlink:href="#DejaVuSans-7a" x="151.074219"/>
      <use xlink:href="#DejaVuSans-65" x="203.564453"/>
      <use xlink:href="#DejaVuSans-72" x="265.087891"/>
      <use xlink:href="#DejaVuSans-5f" x="306.201172"/>
      <use xlink:href="#DejaVuSans-67" x="356.201172"/>
      <use xlink:href="#DejaVuSans-6c" x="419.677734"/>
      <use xlink:href="#DejaVuSans-6f" x="447.460938"/>
      <use xlink:href="#DejaVuSans-62" x="508.642578"/>
      <use xlink:href="#DejaVuSans-61" x="572.119141"/>
      <use xlink:href="#DejaVuSans-6c" x="633.398438"/>
     </g>
    </g>
   </g>
  </g>
 </g>
 <defs>
  <clipPath id="pf5785cb731">
   <rect x="54.3375" y="69.12" width="336.8925" height="443.52"/>
  </clipPath>
 </defs>
</svg>
