<?xml version="1.0" encoding="utf-8" standalone="no"?>
<!DOCTYPE svg PUBLIC "-//W3C//DTD SVG 1.1//EN"
  "http://www.w3.org/Graphics/SVG/1.1/DTD/svg11.dtd">
<svg xmlns:xlink="http://www.w3.org/1999/xlink" width="434.4pt" height="576pt" viewBox="0 0 434.4 576" xmlns="http://www.w3.org/2000/svg" version="1.1">
 <metadata>
  <rdf:RDF xmlns:dc="http://purl.org/dc/elements/1.1/" xmlns:cc="http://creativecommons.org/ns#" xmlns:rdf="http://www.w3.org/1999/02/22-rdf-syntax-ns#">
   <cc:Work>
    <dc:type rdf:resource="http://purl.org/dc/dcmitype/StillImage"/>
    <dc:date>2022-09-15T08:37:53.946304</dc:date>
    <dc:format>image/svg+xml</dc:format>
    <dc:creator>
     <cc:Agent>
      <dc:title>Matplotlib v3.5.3, https://matplotlib.org/</dc:title>
     </cc:Agent>
    </dc:creator>
   </cc:Work>
  </rdf:RDF>
 </metadata>
 <defs>
  <style type="text/css">*{stroke-linejoin: round; stroke-linecap: butt}</style>
 </defs>
 <g id="figure_1">
  <g id="patch_1">
   <path d="M 0 576 
L 434.4 576 
L 434.4 0 
L 0 0 
z
" style="fill: #ffffff"/>
  </g>
  <g id="axes_1">
   <g id="patch_2">
    <path d="M 54.3 512.64 
L 390.96 512.64 
L 390.96 69.12 
L 54.3 69.12 
z
" style="fill: #ffffff"/>
   </g>
   <g id="matplotlib.axis_1">
    <g id="xtick_1">
     <g id="line2d_1">
      <path d="M 69.602727 512.64 
L 69.602727 69.12 
" clip-path="url(#p52e83a3e7f)" style="fill: none; stroke: #cccccc; stroke-width: 0.8; stroke-linecap: round"/>
     </g>
     <g id="text_1">
      <!-- 0 -->
      <g style="fill: #262626" transform="translate(69.340214 529.627249)rotate(-45)scale(0.088 -0.088)">
       <defs>
        <path id="DejaVuSans-30" d="M 2034 4250 
Q 1547 4250 1301 3770 
Q 1056 3291 1056 2328 
Q 1056 1369 1301 889 
Q 1547 409 2034 409 
Q 2525 409 2770 889 
Q 3016 1369 3016 2328 
Q 3016 3291 2770 3770 
Q 2525 4250 2034 4250 
z
M 2034 4750 
Q 2819 4750 3233 4129 
Q 3647 3509 3647 2328 
Q 3647 1150 3233 529 
Q 2819 -91 2034 -91 
Q 1250 -91 836 529 
Q 422 1150 422 2328 
Q 422 3509 836 4129 
Q 1250 4750 2034 4750 
z
" transform="scale(0.015625)"/>
       </defs>
       <use xlink:href="#DejaVuSans-30"/>
      </g>
     </g>
    </g>
    <g id="xtick_2">
     <g id="line2d_2">
      <path d="M 86.629406 512.64 
L 86.629406 69.12 
" clip-path="url(#p52e83a3e7f)" style="fill: none; stroke: #cccccc; stroke-width: 0.8; stroke-linecap: round"/>
     </g>
     <g id="text_2">
      <!-- 80 -->
      <g style="fill: #262626" transform="translate(84.387347 533.58634)rotate(-45)scale(0.088 -0.088)">
       <defs>
        <path id="DejaVuSans-38" d="M 2034 2216 
Q 1584 2216 1326 1975 
Q 1069 1734 1069 1313 
Q 1069 891 1326 650 
Q 1584 409 2034 409 
Q 2484 409 2743 651 
Q 3003 894 3003 1313 
Q 3003 1734 2745 1975 
Q 2488 2216 2034 2216 
z
M 1403 2484 
Q 997 2584 770 2862 
Q 544 3141 544 3541 
Q 544 4100 942 4425 
Q 1341 4750 2034 4750 
Q 2731 4750 3128 4425 
Q 3525 4100 3525 3541 
Q 3525 3141 3298 2862 
Q 3072 2584 2669 2484 
Q 3125 2378 3379 2068 
Q 3634 1759 3634 1313 
Q 3634 634 3220 271 
Q 2806 -91 2034 -91 
Q 1263 -91 848 271 
Q 434 634 434 1313 
Q 434 1759 690 2068 
Q 947 2378 1403 2484 
z
M 1172 3481 
Q 1172 3119 1398 2916 
Q 1625 2713 2034 2713 
Q 2441 2713 2670 2916 
Q 2900 3119 2900 3481 
Q 2900 3844 2670 4047 
Q 2441 4250 2034 4250 
Q 1625 4250 1398 4047 
Q 1172 3844 1172 3481 
z
" transform="scale(0.015625)"/>
       </defs>
       <use xlink:href="#DejaVuSans-38"/>
       <use xlink:href="#DejaVuSans-30" x="63.623047"/>
      </g>
     </g>
    </g>
    <g id="xtick_3">
     <g id="line2d_3">
      <path d="M 103.656084 512.64 
L 103.656084 69.12 
" clip-path="url(#p52e83a3e7f)" style="fill: none; stroke: #cccccc; stroke-width: 0.8; stroke-linecap: round"/>
     </g>
     <g id="text_3">
      <!-- 160 -->
      <g style="fill: #262626" transform="translate(99.43448 537.54543)rotate(-45)scale(0.088 -0.088)">
       <defs>
        <path id="DejaVuSans-31" d="M 794 531 
L 1825 531 
L 1825 4091 
L 703 3866 
L 703 4441 
L 1819 4666 
L 2450 4666 
L 2450 531 
L 3481 531 
L 3481 0 
L 794 0 
L 794 531 
z
" transform="scale(0.015625)"/>
        <path id="DejaVuSans-36" d="M 2113 2584 
Q 1688 2584 1439 2293 
Q 1191 2003 1191 1497 
Q 1191 994 1439 701 
Q 1688 409 2113 409 
Q 2538 409 2786 701 
Q 3034 994 3034 1497 
Q 3034 2003 2786 2293 
Q 2538 2584 2113 2584 
z
M 3366 4563 
L 3366 3988 
Q 3128 4100 2886 4159 
Q 2644 4219 2406 4219 
Q 1781 4219 1451 3797 
Q 1122 3375 1075 2522 
Q 1259 2794 1537 2939 
Q 1816 3084 2150 3084 
Q 2853 3084 3261 2657 
Q 3669 2231 3669 1497 
Q 3669 778 3244 343 
Q 2819 -91 2113 -91 
Q 1303 -91 875 529 
Q 447 1150 447 2328 
Q 447 3434 972 4092 
Q 1497 4750 2381 4750 
Q 2619 4750 2861 4703 
Q 3103 4656 3366 4563 
z
" transform="scale(0.015625)"/>
       </defs>
       <use xlink:href="#DejaVuSans-31"/>
       <use xlink:href="#DejaVuSans-36" x="63.623047"/>
       <use xlink:href="#DejaVuSans-30" x="127.246094"/>
      </g>
     </g>
    </g>
    <g id="xtick_4">
     <g id="line2d_4">
      <path d="M 120.682763 512.64 
L 120.682763 69.12 
" clip-path="url(#p52e83a3e7f)" style="fill: none; stroke: #cccccc; stroke-width: 0.8; stroke-linecap: round"/>
     </g>
     <g id="text_4">
      <!-- 240 -->
      <g style="fill: #262626" transform="translate(116.461158 537.54543)rotate(-45)scale(0.088 -0.088)">
       <defs>
        <path id="DejaVuSans-32" d="M 1228 531 
L 3431 531 
L 3431 0 
L 469 0 
L 469 531 
Q 828 903 1448 1529 
Q 2069 2156 2228 2338 
Q 2531 2678 2651 2914 
Q 2772 3150 2772 3378 
Q 2772 3750 2511 3984 
Q 2250 4219 1831 4219 
Q 1534 4219 1204 4116 
Q 875 4013 500 3803 
L 500 4441 
Q 881 4594 1212 4672 
Q 1544 4750 1819 4750 
Q 2544 4750 2975 4387 
Q 3406 4025 3406 3419 
Q 3406 3131 3298 2873 
Q 3191 2616 2906 2266 
Q 2828 2175 2409 1742 
Q 1991 1309 1228 531 
z
" transform="scale(0.015625)"/>
        <path id="DejaVuSans-34" d="M 2419 4116 
L 825 1625 
L 2419 1625 
L 2419 4116 
z
M 2253 4666 
L 3047 4666 
L 3047 1625 
L 3713 1625 
L 3713 1100 
L 3047 1100 
L 3047 0 
L 2419 0 
L 2419 1100 
L 313 1100 
L 313 1709 
L 2253 4666 
z
" transform="scale(0.015625)"/>
       </defs>
       <use xlink:href="#DejaVuSans-32"/>
       <use xlink:href="#DejaVuSans-34" x="63.623047"/>
       <use xlink:href="#DejaVuSans-30" x="127.246094"/>
      </g>
     </g>
    </g>
    <g id="xtick_5">
     <g id="line2d_5">
      <path d="M 137.709441 512.64 
L 137.709441 69.12 
" clip-path="url(#p52e83a3e7f)" style="fill: none; stroke: #cccccc; stroke-width: 0.8; stroke-linecap: round"/>
     </g>
     <g id="text_5">
      <!-- 320 -->
      <g style="fill: #262626" transform="translate(133.487837 537.54543)rotate(-45)scale(0.088 -0.088)">
       <defs>
        <path id="DejaVuSans-33" d="M 2597 2516 
Q 3050 2419 3304 2112 
Q 3559 1806 3559 1356 
Q 3559 666 3084 287 
Q 2609 -91 1734 -91 
Q 1441 -91 1130 -33 
Q 819 25 488 141 
L 488 750 
Q 750 597 1062 519 
Q 1375 441 1716 441 
Q 2309 441 2620 675 
Q 2931 909 2931 1356 
Q 2931 1769 2642 2001 
Q 2353 2234 1838 2234 
L 1294 2234 
L 1294 2753 
L 1863 2753 
Q 2328 2753 2575 2939 
Q 2822 3125 2822 3475 
Q 2822 3834 2567 4026 
Q 2313 4219 1838 4219 
Q 1578 4219 1281 4162 
Q 984 4106 628 3988 
L 628 4550 
Q 988 4650 1302 4700 
Q 1616 4750 1894 4750 
Q 2613 4750 3031 4423 
Q 3450 4097 3450 3541 
Q 3450 3153 3228 2886 
Q 3006 2619 2597 2516 
z
" transform="scale(0.015625)"/>
       </defs>
       <use xlink:href="#DejaVuSans-33"/>
       <use xlink:href="#DejaVuSans-32" x="63.623047"/>
       <use xlink:href="#DejaVuSans-30" x="127.246094"/>
      </g>
     </g>
    </g>
    <g id="xtick_6">
     <g id="line2d_6">
      <path d="M 154.73612 512.64 
L 154.73612 69.12 
" clip-path="url(#p52e83a3e7f)" style="fill: none; stroke: #cccccc; stroke-width: 0.8; stroke-linecap: round"/>
     </g>
     <g id="text_6">
      <!-- 400 -->
      <g style="fill: #262626" transform="translate(150.514515 537.54543)rotate(-45)scale(0.088 -0.088)">
       <use xlink:href="#DejaVuSans-34"/>
       <use xlink:href="#DejaVuSans-30" x="63.623047"/>
       <use xlink:href="#DejaVuSans-30" x="127.246094"/>
      </g>
     </g>
    </g>
    <g id="xtick_7">
     <g id="line2d_7">
      <path d="M 171.762798 512.64 
L 171.762798 69.12 
" clip-path="url(#p52e83a3e7f)" style="fill: none; stroke: #cccccc; stroke-width: 0.8; stroke-linecap: round"/>
     </g>
     <g id="text_7">
      <!-- 480 -->
      <g style="fill: #262626" transform="translate(167.541194 537.54543)rotate(-45)scale(0.088 -0.088)">
       <use xlink:href="#DejaVuSans-34"/>
       <use xlink:href="#DejaVuSans-38" x="63.623047"/>
       <use xlink:href="#DejaVuSans-30" x="127.246094"/>
      </g>
     </g>
    </g>
    <g id="xtick_8">
     <g id="line2d_8">
      <path d="M 188.789477 512.64 
L 188.789477 69.12 
" clip-path="url(#p52e83a3e7f)" style="fill: none; stroke: #cccccc; stroke-width: 0.8; stroke-linecap: round"/>
     </g>
     <g id="text_8">
      <!-- 560 -->
      <g style="fill: #262626" transform="translate(184.567872 537.54543)rotate(-45)scale(0.088 -0.088)">
       <defs>
        <path id="DejaVuSans-35" d="M 691 4666 
L 3169 4666 
L 3169 4134 
L 1269 4134 
L 1269 2991 
Q 1406 3038 1543 3061 
Q 1681 3084 1819 3084 
Q 2600 3084 3056 2656 
Q 3513 2228 3513 1497 
Q 3513 744 3044 326 
Q 2575 -91 1722 -91 
Q 1428 -91 1123 -41 
Q 819 9 494 109 
L 494 744 
Q 775 591 1075 516 
Q 1375 441 1709 441 
Q 2250 441 2565 725 
Q 2881 1009 2881 1497 
Q 2881 1984 2565 2268 
Q 2250 2553 1709 2553 
Q 1456 2553 1204 2497 
Q 953 2441 691 2322 
L 691 4666 
z
" transform="scale(0.015625)"/>
       </defs>
       <use xlink:href="#DejaVuSans-35"/>
       <use xlink:href="#DejaVuSans-36" x="63.623047"/>
       <use xlink:href="#DejaVuSans-30" x="127.246094"/>
      </g>
     </g>
    </g>
    <g id="xtick_9">
     <g id="line2d_9">
      <path d="M 205.816155 512.64 
L 205.816155 69.12 
" clip-path="url(#p52e83a3e7f)" style="fill: none; stroke: #cccccc; stroke-width: 0.8; stroke-linecap: round"/>
     </g>
     <g id="text_9">
      <!-- 640 -->
      <g style="fill: #262626" transform="translate(201.594551 537.54543)rotate(-45)scale(0.088 -0.088)">
       <use xlink:href="#DejaVuSans-36"/>
       <use xlink:href="#DejaVuSans-34" x="63.623047"/>
       <use xlink:href="#DejaVuSans-30" x="127.246094"/>
      </g>
     </g>
    </g>
    <g id="xtick_10">
     <g id="line2d_10">
      <path d="M 222.842833 512.64 
L 222.842833 69.12 
" clip-path="url(#p52e83a3e7f)" style="fill: none; stroke: #cccccc; stroke-width: 0.8; stroke-linecap: round"/>
     </g>
     <g id="text_10">
      <!-- 720 -->
      <g style="fill: #262626" transform="translate(218.621229 537.54543)rotate(-45)scale(0.088 -0.088)">
       <defs>
        <path id="DejaVuSans-37" d="M 525 4666 
L 3525 4666 
L 3525 4397 
L 1831 0 
L 1172 0 
L 2766 4134 
L 525 4134 
L 525 4666 
z
" transform="scale(0.015625)"/>
       </defs>
       <use xlink:href="#DejaVuSans-37"/>
       <use xlink:href="#DejaVuSans-32" x="63.623047"/>
       <use xlink:href="#DejaVuSans-30" x="127.246094"/>
      </g>
     </g>
    </g>
    <g id="xtick_11">
     <g id="line2d_11">
      <path d="M 239.869512 512.64 
L 239.869512 69.12 
" clip-path="url(#p52e83a3e7f)" style="fill: none; stroke: #cccccc; stroke-width: 0.8; stroke-linecap: round"/>
     </g>
     <g id="text_11">
      <!-- 800 -->
      <g style="fill: #262626" transform="translate(235.647908 537.54543)rotate(-45)scale(0.088 -0.088)">
       <use xlink:href="#DejaVuSans-38"/>
       <use xlink:href="#DejaVuSans-30" x="63.623047"/>
       <use xlink:href="#DejaVuSans-30" x="127.246094"/>
      </g>
     </g>
    </g>
    <g id="xtick_12">
     <g id="line2d_12">
      <path d="M 256.89619 512.64 
L 256.89619 69.12 
" clip-path="url(#p52e83a3e7f)" style="fill: none; stroke: #cccccc; stroke-width: 0.8; stroke-linecap: round"/>
     </g>
     <g id="text_12">
      <!-- 880 -->
      <g style="fill: #262626" transform="translate(252.674586 537.54543)rotate(-45)scale(0.088 -0.088)">
       <use xlink:href="#DejaVuSans-38"/>
       <use xlink:href="#DejaVuSans-38" x="63.623047"/>
       <use xlink:href="#DejaVuSans-30" x="127.246094"/>
      </g>
     </g>
    </g>
    <g id="xtick_13">
     <g id="line2d_13">
      <path d="M 273.922869 512.64 
L 273.922869 69.12 
" clip-path="url(#p52e83a3e7f)" style="fill: none; stroke: #cccccc; stroke-width: 0.8; stroke-linecap: round"/>
     </g>
     <g id="text_13">
      <!-- 960 -->
      <g style="fill: #262626" transform="translate(269.701265 537.54543)rotate(-45)scale(0.088 -0.088)">
       <defs>
        <path id="DejaVuSans-39" d="M 703 97 
L 703 672 
Q 941 559 1184 500 
Q 1428 441 1663 441 
Q 2288 441 2617 861 
Q 2947 1281 2994 2138 
Q 2813 1869 2534 1725 
Q 2256 1581 1919 1581 
Q 1219 1581 811 2004 
Q 403 2428 403 3163 
Q 403 3881 828 4315 
Q 1253 4750 1959 4750 
Q 2769 4750 3195 4129 
Q 3622 3509 3622 2328 
Q 3622 1225 3098 567 
Q 2575 -91 1691 -91 
Q 1453 -91 1209 -44 
Q 966 3 703 97 
z
M 1959 2075 
Q 2384 2075 2632 2365 
Q 2881 2656 2881 3163 
Q 2881 3666 2632 3958 
Q 2384 4250 1959 4250 
Q 1534 4250 1286 3958 
Q 1038 3666 1038 3163 
Q 1038 2656 1286 2365 
Q 1534 2075 1959 2075 
z
" transform="scale(0.015625)"/>
       </defs>
       <use xlink:href="#DejaVuSans-39"/>
       <use xlink:href="#DejaVuSans-36" x="63.623047"/>
       <use xlink:href="#DejaVuSans-30" x="127.246094"/>
      </g>
     </g>
    </g>
    <g id="xtick_14">
     <g id="line2d_14">
      <path d="M 290.949547 512.64 
L 290.949547 69.12 
" clip-path="url(#p52e83a3e7f)" style="fill: none; stroke: #cccccc; stroke-width: 0.8; stroke-linecap: round"/>
     </g>
     <g id="text_14">
      <!-- 1040 -->
      <g style="fill: #262626" transform="translate(284.748398 541.504521)rotate(-45)scale(0.088 -0.088)">
       <use xlink:href="#DejaVuSans-31"/>
       <use xlink:href="#DejaVuSans-30" x="63.623047"/>
       <use xlink:href="#DejaVuSans-34" x="127.246094"/>
       <use xlink:href="#DejaVuSans-30" x="190.869141"/>
      </g>
     </g>
    </g>
    <g id="xtick_15">
     <g id="line2d_15">
      <path d="M 307.976226 512.64 
L 307.976226 69.12 
" clip-path="url(#p52e83a3e7f)" style="fill: none; stroke: #cccccc; stroke-width: 0.8; stroke-linecap: round"/>
     </g>
     <g id="text_15">
      <!-- 1120 -->
      <g style="fill: #262626" transform="translate(301.775076 541.504521)rotate(-45)scale(0.088 -0.088)">
       <use xlink:href="#DejaVuSans-31"/>
       <use xlink:href="#DejaVuSans-31" x="63.623047"/>
       <use xlink:href="#DejaVuSans-32" x="127.246094"/>
       <use xlink:href="#DejaVuSans-30" x="190.869141"/>
      </g>
     </g>
    </g>
    <g id="xtick_16">
     <g id="line2d_16">
      <path d="M 325.002904 512.64 
L 325.002904 69.12 
" clip-path="url(#p52e83a3e7f)" style="fill: none; stroke: #cccccc; stroke-width: 0.8; stroke-linecap: round"/>
     </g>
     <g id="text_16">
      <!-- 1200 -->
      <g style="fill: #262626" transform="translate(318.801755 541.504521)rotate(-45)scale(0.088 -0.088)">
       <use xlink:href="#DejaVuSans-31"/>
       <use xlink:href="#DejaVuSans-32" x="63.623047"/>
       <use xlink:href="#DejaVuSans-30" x="127.246094"/>
       <use xlink:href="#DejaVuSans-30" x="190.869141"/>
      </g>
     </g>
    </g>
    <g id="xtick_17">
     <g id="line2d_17">
      <path d="M 342.029583 512.64 
L 342.029583 69.12 
" clip-path="url(#p52e83a3e7f)" style="fill: none; stroke: #cccccc; stroke-width: 0.8; stroke-linecap: round"/>
     </g>
     <g id="text_17">
      <!-- 1280 -->
      <g style="fill: #262626" transform="translate(335.828433 541.504521)rotate(-45)scale(0.088 -0.088)">
       <use xlink:href="#DejaVuSans-31"/>
       <use xlink:href="#DejaVuSans-32" x="63.623047"/>
       <use xlink:href="#DejaVuSans-38" x="127.246094"/>
       <use xlink:href="#DejaVuSans-30" x="190.869141"/>
      </g>
     </g>
    </g>
    <g id="xtick_18">
     <g id="line2d_18">
      <path d="M 359.056261 512.64 
L 359.056261 69.12 
" clip-path="url(#p52e83a3e7f)" style="fill: none; stroke: #cccccc; stroke-width: 0.8; stroke-linecap: round"/>
     </g>
     <g id="text_18">
      <!-- 1360 -->
      <g style="fill: #262626" transform="translate(352.855112 541.504521)rotate(-45)scale(0.088 -0.088)">
       <use xlink:href="#DejaVuSans-31"/>
       <use xlink:href="#DejaVuSans-33" x="63.623047"/>
       <use xlink:href="#DejaVuSans-36" x="127.246094"/>
       <use xlink:href="#DejaVuSans-30" x="190.869141"/>
      </g>
     </g>
    </g>
    <g id="xtick_19">
     <g id="line2d_19">
      <path d="M 376.08294 512.64 
L 376.08294 69.12 
" clip-path="url(#p52e83a3e7f)" style="fill: none; stroke: #cccccc; stroke-width: 0.8; stroke-linecap: round"/>
     </g>
     <g id="text_19">
      <!-- 1440 -->
      <g style="fill: #262626" transform="translate(369.88179 541.504521)rotate(-45)scale(0.088 -0.088)">
       <use xlink:href="#DejaVuSans-31"/>
       <use xlink:href="#DejaVuSans-34" x="63.623047"/>
       <use xlink:href="#DejaVuSans-34" x="127.246094"/>
       <use xlink:href="#DejaVuSans-30" x="190.869141"/>
      </g>
     </g>
    </g>
    <g id="text_20">
     <!-- Time (Minutes) -->
     <g style="fill: #262626" transform="translate(186.72 554.093115)scale(0.096 -0.096)">
      <defs>
       <path id="DejaVuSans-54" d="M -19 4666 
L 3928 4666 
L 3928 4134 
L 2272 4134 
L 2272 0 
L 1638 0 
L 1638 4134 
L -19 4134 
L -19 4666 
z
" transform="scale(0.015625)"/>
       <path id="DejaVuSans-69" d="M 603 3500 
L 1178 3500 
L 1178 0 
L 603 0 
L 603 3500 
z
M 603 4863 
L 1178 4863 
L 1178 4134 
L 603 4134 
L 603 4863 
z
" transform="scale(0.015625)"/>
       <path id="DejaVuSans-6d" d="M 3328 2828 
Q 3544 3216 3844 3400 
Q 4144 3584 4550 3584 
Q 5097 3584 5394 3201 
Q 5691 2819 5691 2113 
L 5691 0 
L 5113 0 
L 5113 2094 
Q 5113 2597 4934 2840 
Q 4756 3084 4391 3084 
Q 3944 3084 3684 2787 
Q 3425 2491 3425 1978 
L 3425 0 
L 2847 0 
L 2847 2094 
Q 2847 2600 2669 2842 
Q 2491 3084 2119 3084 
Q 1678 3084 1418 2786 
Q 1159 2488 1159 1978 
L 1159 0 
L 581 0 
L 581 3500 
L 1159 3500 
L 1159 2956 
Q 1356 3278 1631 3431 
Q 1906 3584 2284 3584 
Q 2666 3584 2933 3390 
Q 3200 3197 3328 2828 
z
" transform="scale(0.015625)"/>
       <path id="DejaVuSans-65" d="M 3597 1894 
L 3597 1613 
L 953 1613 
Q 991 1019 1311 708 
Q 1631 397 2203 397 
Q 2534 397 2845 478 
Q 3156 559 3463 722 
L 3463 178 
Q 3153 47 2828 -22 
Q 2503 -91 2169 -91 
Q 1331 -91 842 396 
Q 353 884 353 1716 
Q 353 2575 817 3079 
Q 1281 3584 2069 3584 
Q 2775 3584 3186 3129 
Q 3597 2675 3597 1894 
z
M 3022 2063 
Q 3016 2534 2758 2815 
Q 2500 3097 2075 3097 
Q 1594 3097 1305 2825 
Q 1016 2553 972 2059 
L 3022 2063 
z
" transform="scale(0.015625)"/>
       <path id="DejaVuSans-20" transform="scale(0.015625)"/>
       <path id="DejaVuSans-28" d="M 1984 4856 
Q 1566 4138 1362 3434 
Q 1159 2731 1159 2009 
Q 1159 1288 1364 580 
Q 1569 -128 1984 -844 
L 1484 -844 
Q 1016 -109 783 600 
Q 550 1309 550 2009 
Q 550 2706 781 3412 
Q 1013 4119 1484 4856 
L 1984 4856 
z
" transform="scale(0.015625)"/>
       <path id="DejaVuSans-4d" d="M 628 4666 
L 1569 4666 
L 2759 1491 
L 3956 4666 
L 4897 4666 
L 4897 0 
L 4281 0 
L 4281 4097 
L 3078 897 
L 2444 897 
L 1241 4097 
L 1241 0 
L 628 0 
L 628 4666 
z
" transform="scale(0.015625)"/>
       <path id="DejaVuSans-6e" d="M 3513 2113 
L 3513 0 
L 2938 0 
L 2938 2094 
Q 2938 2591 2744 2837 
Q 2550 3084 2163 3084 
Q 1697 3084 1428 2787 
Q 1159 2491 1159 1978 
L 1159 0 
L 581 0 
L 581 3500 
L 1159 3500 
L 1159 2956 
Q 1366 3272 1645 3428 
Q 1925 3584 2291 3584 
Q 2894 3584 3203 3211 
Q 3513 2838 3513 2113 
z
" transform="scale(0.015625)"/>
       <path id="DejaVuSans-75" d="M 544 1381 
L 544 3500 
L 1119 3500 
L 1119 1403 
Q 1119 906 1312 657 
Q 1506 409 1894 409 
Q 2359 409 2629 706 
Q 2900 1003 2900 1516 
L 2900 3500 
L 3475 3500 
L 3475 0 
L 2900 0 
L 2900 538 
Q 2691 219 2414 64 
Q 2138 -91 1772 -91 
Q 1169 -91 856 284 
Q 544 659 544 1381 
z
M 1991 3584 
L 1991 3584 
z
" transform="scale(0.015625)"/>
       <path id="DejaVuSans-74" d="M 1172 4494 
L 1172 3500 
L 2356 3500 
L 2356 3053 
L 1172 3053 
L 1172 1153 
Q 1172 725 1289 603 
Q 1406 481 1766 481 
L 2356 481 
L 2356 0 
L 1766 0 
Q 1100 0 847 248 
Q 594 497 594 1153 
L 594 3053 
L 172 3053 
L 172 3500 
L 594 3500 
L 594 4494 
L 1172 4494 
z
" transform="scale(0.015625)"/>
       <path id="DejaVuSans-73" d="M 2834 3397 
L 2834 2853 
Q 2591 2978 2328 3040 
Q 2066 3103 1784 3103 
Q 1356 3103 1142 2972 
Q 928 2841 928 2578 
Q 928 2378 1081 2264 
Q 1234 2150 1697 2047 
L 1894 2003 
Q 2506 1872 2764 1633 
Q 3022 1394 3022 966 
Q 3022 478 2636 193 
Q 2250 -91 1575 -91 
Q 1294 -91 989 -36 
Q 684 19 347 128 
L 347 722 
Q 666 556 975 473 
Q 1284 391 1588 391 
Q 1994 391 2212 530 
Q 2431 669 2431 922 
Q 2431 1156 2273 1281 
Q 2116 1406 1581 1522 
L 1381 1569 
Q 847 1681 609 1914 
Q 372 2147 372 2553 
Q 372 3047 722 3315 
Q 1072 3584 1716 3584 
Q 2034 3584 2315 3537 
Q 2597 3491 2834 3397 
z
" transform="scale(0.015625)"/>
       <path id="DejaVuSans-29" d="M 513 4856 
L 1013 4856 
Q 1481 4119 1714 3412 
Q 1947 2706 1947 2009 
Q 1947 1309 1714 600 
Q 1481 -109 1013 -844 
L 513 -844 
Q 928 -128 1133 580 
Q 1338 1288 1338 2009 
Q 1338 2731 1133 3434 
Q 928 4138 513 4856 
z
" transform="scale(0.015625)"/>
      </defs>
      <use xlink:href="#DejaVuSans-54"/>
      <use xlink:href="#DejaVuSans-69" x="57.958984"/>
      <use xlink:href="#DejaVuSans-6d" x="85.742188"/>
      <use xlink:href="#DejaVuSans-65" x="183.154297"/>
      <use xlink:href="#DejaVuSans-20" x="244.677734"/>
      <use xlink:href="#DejaVuSans-28" x="276.464844"/>
      <use xlink:href="#DejaVuSans-4d" x="315.478516"/>
      <use xlink:href="#DejaVuSans-69" x="401.757812"/>
      <use xlink:href="#DejaVuSans-6e" x="429.541016"/>
      <use xlink:href="#DejaVuSans-75" x="492.919922"/>
      <use xlink:href="#DejaVuSans-74" x="556.298828"/>
      <use xlink:href="#DejaVuSans-65" x="595.507812"/>
      <use xlink:href="#DejaVuSans-73" x="657.03125"/>
      <use xlink:href="#DejaVuSans-29" x="709.130859"/>
     </g>
    </g>
   </g>
   <g id="matplotlib.axis_2">
    <g id="ytick_1">
     <g id="line2d_20">
      <path d="M 54.3 492.48 
L 390.96 492.48 
" clip-path="url(#p52e83a3e7f)" style="fill: none; stroke: #cccccc; stroke-width: 0.8; stroke-linecap: round"/>
     </g>
     <g id="text_21">
      <!-- 0 -->
      <g style="fill: #262626" transform="translate(40.401 495.823313)scale(0.088 -0.088)">
       <use xlink:href="#DejaVuSans-30"/>
      </g>
     </g>
    </g>
    <g id="ytick_2">
     <g id="line2d_21">
      <path d="M 54.3 423.438904 
L 390.96 423.438904 
" clip-path="url(#p52e83a3e7f)" style="fill: none; stroke: #cccccc; stroke-width: 0.8; stroke-linecap: round"/>
     </g>
     <g id="text_22">
      <!-- 100 -->
      <g style="fill: #262626" transform="translate(29.203 426.782217)scale(0.088 -0.088)">
       <use xlink:href="#DejaVuSans-31"/>
       <use xlink:href="#DejaVuSans-30" x="63.623047"/>
       <use xlink:href="#DejaVuSans-30" x="127.246094"/>
      </g>
     </g>
    </g>
    <g id="ytick_3">
     <g id="line2d_22">
      <path d="M 54.3 354.397808 
L 390.96 354.397808 
" clip-path="url(#p52e83a3e7f)" style="fill: none; stroke: #cccccc; stroke-width: 0.8; stroke-linecap: round"/>
     </g>
     <g id="text_23">
      <!-- 200 -->
      <g style="fill: #262626" transform="translate(29.203 357.741121)scale(0.088 -0.088)">
       <use xlink:href="#DejaVuSans-32"/>
       <use xlink:href="#DejaVuSans-30" x="63.623047"/>
       <use xlink:href="#DejaVuSans-30" x="127.246094"/>
      </g>
     </g>
    </g>
    <g id="ytick_4">
     <g id="line2d_23">
      <path d="M 54.3 285.356712 
L 390.96 285.356712 
" clip-path="url(#p52e83a3e7f)" style="fill: none; stroke: #cccccc; stroke-width: 0.8; stroke-linecap: round"/>
     </g>
     <g id="text_24">
      <!-- 300 -->
      <g style="fill: #262626" transform="translate(29.203 288.700025)scale(0.088 -0.088)">
       <use xlink:href="#DejaVuSans-33"/>
       <use xlink:href="#DejaVuSans-30" x="63.623047"/>
       <use xlink:href="#DejaVuSans-30" x="127.246094"/>
      </g>
     </g>
    </g>
    <g id="ytick_5">
     <g id="line2d_24">
      <path d="M 54.3 216.315616 
L 390.96 216.315616 
" clip-path="url(#p52e83a3e7f)" style="fill: none; stroke: #cccccc; stroke-width: 0.8; stroke-linecap: round"/>
     </g>
     <g id="text_25">
      <!-- 400 -->
      <g style="fill: #262626" transform="translate(29.203 219.658929)scale(0.088 -0.088)">
       <use xlink:href="#DejaVuSans-34"/>
       <use xlink:href="#DejaVuSans-30" x="63.623047"/>
       <use xlink:href="#DejaVuSans-30" x="127.246094"/>
      </g>
     </g>
    </g>
    <g id="ytick_6">
     <g id="line2d_25">
      <path d="M 54.3 147.274521 
L 390.96 147.274521 
" clip-path="url(#p52e83a3e7f)" style="fill: none; stroke: #cccccc; stroke-width: 0.8; stroke-linecap: round"/>
     </g>
     <g id="text_26">
      <!-- 500 -->
      <g style="fill: #262626" transform="translate(29.203 150.617833)scale(0.088 -0.088)">
       <use xlink:href="#DejaVuSans-35"/>
       <use xlink:href="#DejaVuSans-30" x="63.623047"/>
       <use xlink:href="#DejaVuSans-30" x="127.246094"/>
      </g>
     </g>
    </g>
    <g id="text_27">
     <!-- Edge Coverages -->
     <g style="fill: #262626" transform="translate(23.2065 329.98575)rotate(-90)scale(0.096 -0.096)">
      <defs>
       <path id="DejaVuSans-45" d="M 628 4666 
L 3578 4666 
L 3578 4134 
L 1259 4134 
L 1259 2753 
L 3481 2753 
L 3481 2222 
L 1259 2222 
L 1259 531 
L 3634 531 
L 3634 0 
L 628 0 
L 628 4666 
z
" transform="scale(0.015625)"/>
       <path id="DejaVuSans-64" d="M 2906 2969 
L 2906 4863 
L 3481 4863 
L 3481 0 
L 2906 0 
L 2906 525 
Q 2725 213 2448 61 
Q 2172 -91 1784 -91 
Q 1150 -91 751 415 
Q 353 922 353 1747 
Q 353 2572 751 3078 
Q 1150 3584 1784 3584 
Q 2172 3584 2448 3432 
Q 2725 3281 2906 2969 
z
M 947 1747 
Q 947 1113 1208 752 
Q 1469 391 1925 391 
Q 2381 391 2643 752 
Q 2906 1113 2906 1747 
Q 2906 2381 2643 2742 
Q 2381 3103 1925 3103 
Q 1469 3103 1208 2742 
Q 947 2381 947 1747 
z
" transform="scale(0.015625)"/>
       <path id="DejaVuSans-67" d="M 2906 1791 
Q 2906 2416 2648 2759 
Q 2391 3103 1925 3103 
Q 1463 3103 1205 2759 
Q 947 2416 947 1791 
Q 947 1169 1205 825 
Q 1463 481 1925 481 
Q 2391 481 2648 825 
Q 2906 1169 2906 1791 
z
M 3481 434 
Q 3481 -459 3084 -895 
Q 2688 -1331 1869 -1331 
Q 1566 -1331 1297 -1286 
Q 1028 -1241 775 -1147 
L 775 -588 
Q 1028 -725 1275 -790 
Q 1522 -856 1778 -856 
Q 2344 -856 2625 -561 
Q 2906 -266 2906 331 
L 2906 616 
Q 2728 306 2450 153 
Q 2172 0 1784 0 
Q 1141 0 747 490 
Q 353 981 353 1791 
Q 353 2603 747 3093 
Q 1141 3584 1784 3584 
Q 2172 3584 2450 3431 
Q 2728 3278 2906 2969 
L 2906 3500 
L 3481 3500 
L 3481 434 
z
" transform="scale(0.015625)"/>
       <path id="DejaVuSans-43" d="M 4122 4306 
L 4122 3641 
Q 3803 3938 3442 4084 
Q 3081 4231 2675 4231 
Q 1875 4231 1450 3742 
Q 1025 3253 1025 2328 
Q 1025 1406 1450 917 
Q 1875 428 2675 428 
Q 3081 428 3442 575 
Q 3803 722 4122 1019 
L 4122 359 
Q 3791 134 3420 21 
Q 3050 -91 2638 -91 
Q 1578 -91 968 557 
Q 359 1206 359 2328 
Q 359 3453 968 4101 
Q 1578 4750 2638 4750 
Q 3056 4750 3426 4639 
Q 3797 4528 4122 4306 
z
" transform="scale(0.015625)"/>
       <path id="DejaVuSans-6f" d="M 1959 3097 
Q 1497 3097 1228 2736 
Q 959 2375 959 1747 
Q 959 1119 1226 758 
Q 1494 397 1959 397 
Q 2419 397 2687 759 
Q 2956 1122 2956 1747 
Q 2956 2369 2687 2733 
Q 2419 3097 1959 3097 
z
M 1959 3584 
Q 2709 3584 3137 3096 
Q 3566 2609 3566 1747 
Q 3566 888 3137 398 
Q 2709 -91 1959 -91 
Q 1206 -91 779 398 
Q 353 888 353 1747 
Q 353 2609 779 3096 
Q 1206 3584 1959 3584 
z
" transform="scale(0.015625)"/>
       <path id="DejaVuSans-76" d="M 191 3500 
L 800 3500 
L 1894 563 
L 2988 3500 
L 3597 3500 
L 2284 0 
L 1503 0 
L 191 3500 
z
" transform="scale(0.015625)"/>
       <path id="DejaVuSans-72" d="M 2631 2963 
Q 2534 3019 2420 3045 
Q 2306 3072 2169 3072 
Q 1681 3072 1420 2755 
Q 1159 2438 1159 1844 
L 1159 0 
L 581 0 
L 581 3500 
L 1159 3500 
L 1159 2956 
Q 1341 3275 1631 3429 
Q 1922 3584 2338 3584 
Q 2397 3584 2469 3576 
Q 2541 3569 2628 3553 
L 2631 2963 
z
" transform="scale(0.015625)"/>
       <path id="DejaVuSans-61" d="M 2194 1759 
Q 1497 1759 1228 1600 
Q 959 1441 959 1056 
Q 959 750 1161 570 
Q 1363 391 1709 391 
Q 2188 391 2477 730 
Q 2766 1069 2766 1631 
L 2766 1759 
L 2194 1759 
z
M 3341 1997 
L 3341 0 
L 2766 0 
L 2766 531 
Q 2569 213 2275 61 
Q 1981 -91 1556 -91 
Q 1019 -91 701 211 
Q 384 513 384 1019 
Q 384 1609 779 1909 
Q 1175 2209 1959 2209 
L 2766 2209 
L 2766 2266 
Q 2766 2663 2505 2880 
Q 2244 3097 1772 3097 
Q 1472 3097 1187 3025 
Q 903 2953 641 2809 
L 641 3341 
Q 956 3463 1253 3523 
Q 1550 3584 1831 3584 
Q 2591 3584 2966 3190 
Q 3341 2797 3341 1997 
z
" transform="scale(0.015625)"/>
      </defs>
      <use xlink:href="#DejaVuSans-45"/>
      <use xlink:href="#DejaVuSans-64" x="63.183594"/>
      <use xlink:href="#DejaVuSans-67" x="126.660156"/>
      <use xlink:href="#DejaVuSans-65" x="190.136719"/>
      <use xlink:href="#DejaVuSans-20" x="251.660156"/>
      <use xlink:href="#DejaVuSans-43" x="283.447266"/>
      <use xlink:href="#DejaVuSans-6f" x="353.271484"/>
      <use xlink:href="#DejaVuSans-76" x="414.453125"/>
      <use xlink:href="#DejaVuSans-65" x="473.632812"/>
      <use xlink:href="#DejaVuSans-72" x="535.15625"/>
      <use xlink:href="#DejaVuSans-61" x="576.269531"/>
      <use xlink:href="#DejaVuSans-67" x="637.548828"/>
      <use xlink:href="#DejaVuSans-65" x="701.025391"/>
      <use xlink:href="#DejaVuSans-73" x="762.548828"/>
     </g>
    </g>
   </g>
   <g id="PolyCollection_1">
    <defs>
     <path id="m392062fca2" d="M 69.602727 -118.730959 
L 69.602727 -83.52 
L 69.602727 -118.730959 
L 69.602727 -118.730959 
z
" style="stroke: #db5f57; stroke-opacity: 0.2; stroke-width: 0.8"/>
    </defs>
    <g clip-path="url(#p52e83a3e7f)">
     <use xlink:href="#m392062fca2" x="0" y="576" style="fill: #db5f57; fill-opacity: 0.2; stroke: #db5f57; stroke-opacity: 0.2; stroke-width: 0.8"/>
    </g>
   </g>
   <g id="PolyCollection_2">
    <defs>
     <path id="me6b458c13b" d="M 69.602727 -149.109041 
L 69.602727 -83.52 
L 69.602727 -149.109041 
L 69.602727 -149.109041 
z
" style="stroke: #b9db57; stroke-opacity: 0.2; stroke-width: 0.8"/>
    </defs>
    <g clip-path="url(#p52e83a3e7f)">
     <use xlink:href="#me6b458c13b" x="0" y="576" style="fill: #b9db57; fill-opacity: 0.2; stroke: #b9db57; stroke-opacity: 0.2; stroke-width: 0.8"/>
    </g>
   </g>
   <g id="PolyCollection_3">
    <defs>
     <path id="m18717a7564" d="M 69.602727 -114.588493 
L 69.602727 -83.52 
L 69.602727 -114.588493 
L 69.602727 -114.588493 
z
" style="stroke: #57db94; stroke-opacity: 0.2; stroke-width: 0.8"/>
    </defs>
    <g clip-path="url(#p52e83a3e7f)">
     <use xlink:href="#m18717a7564" x="0" y="576" style="fill: #57db94; fill-opacity: 0.2; stroke: #57db94; stroke-opacity: 0.2; stroke-width: 0.8"/>
    </g>
   </g>
   <g id="PolyCollection_4">
    <defs>
     <path id="m4199cbdb5b" d="M 69.602727 -106.303562 
L 69.602727 -83.52 
L 69.602727 -106.303562 
L 69.602727 -106.303562 
z
" style="stroke: #5784db; stroke-opacity: 0.2; stroke-width: 0.8"/>
    </defs>
    <g clip-path="url(#p52e83a3e7f)">
     <use xlink:href="#m4199cbdb5b" x="0" y="576" style="fill: #5784db; fill-opacity: 0.2; stroke: #5784db; stroke-opacity: 0.2; stroke-width: 0.8"/>
    </g>
   </g>
   <g id="PolyCollection_5">
    <defs>
     <path id="m68b9f5899a" d="M 69.602727 -164.298082 
L 69.602727 -83.52 
L 69.602727 -164.298082 
L 69.602727 -164.298082 
z
" style="stroke: #c957db; stroke-opacity: 0.2; stroke-width: 0.8"/>
    </defs>
    <g clip-path="url(#p52e83a3e7f)">
     <use xlink:href="#m68b9f5899a" x="0" y="576" style="fill: #c957db; fill-opacity: 0.2; stroke: #c957db; stroke-opacity: 0.2; stroke-width: 0.8"/>
    </g>
   </g>
   <g id="line2d_26">
    <path d="M 69.602727 474.874521 
L 69.815561 448.98411 
L 70.028394 437.247123 
L 70.241228 435.866301 
L 70.454061 422.748493 
L 70.666895 416.534795 
L 70.879728 406.17863 
L 71.092562 335.066301 
L 71.305395 332.995068 
L 71.518229 323.329315 
L 71.731062 319.186849 
L 71.943896 310.211507 
L 72.582396 302.616986 
L 73.008063 281.904658 
L 73.43373 280.523836 
L 73.859397 280.523836 
L 74.07223 279.833425 
L 74.285064 278.452603 
L 74.497897 275.690959 
L 75.136398 275.690959 
L 75.562065 273.619726 
L 75.774898 272.929315 
L 75.987732 272.929315 
L 76.200565 271.548493 
L 77.264733 271.548493 
L 77.903233 269.47726 
L 78.116067 269.47726 
L 78.3289 267.406027 
L 78.754567 267.406027 
L 79.180234 265.334795 
L 79.605901 263.953973 
L 80.031568 260.501918 
L 80.244401 260.501918 
L 80.457235 257.740274 
L 81.095735 257.740274 
L 81.308569 257.049863 
L 81.521402 254.97863 
L 81.734236 250.145753 
L 81.947069 248.074521 
L 82.159903 248.074521 
L 82.372736 246.693699 
L 82.58557 243.932055 
L 82.798403 243.241644 
L 83.436904 239.789589 
L 84.075404 239.789589 
L 84.288237 238.408767 
L 84.713904 238.408767 
L 84.926738 236.337534 
L 85.139571 235.647123 
L 85.990905 235.647123 
L 86.203739 234.956712 
L 86.629406 234.956712 
L 86.842239 234.266301 
L 87.267906 234.266301 
L 87.48074 232.195068 
L 87.906407 230.814247 
L 88.11924 230.814247 
L 88.332074 230.123836 
L 88.544907 230.123836 
L 88.757741 229.433425 
L 89.821908 229.433425 
L 90.034741 228.052603 
L 90.673242 228.052603 
L 91.524576 223.219726 
L 92.37591 223.219726 
L 92.588743 222.529315 
L 93.01441 220.458082 
L 93.227244 220.458082 
L 93.440077 219.767671 
L 94.929911 210.792329 
L 95.994079 207.340274 
L 96.206912 207.340274 
L 96.419746 205.959452 
L 97.27108 205.959452 
L 97.90958 203.888219 
L 98.122414 203.888219 
L 98.548081 202.507397 
L 98.760914 202.507397 
L 98.973748 201.816986 
L 99.186581 201.816986 
L 100.037915 199.055342 
L 101.527749 199.055342 
L 101.953416 197.674521 
L 102.379083 197.674521 
L 102.80475 196.293699 
L 103.868918 196.293699 
L 104.081751 195.603288 
L 105.145919 195.603288 
L 105.358752 194.912877 
L 111.105256 194.912877 
L 111.31809 194.222466 
L 112.807924 194.222466 
L 113.233591 192.841644 
L 113.446424 192.841644 
L 113.659258 192.151233 
L 114.084925 192.151233 
L 114.297758 191.460822 
L 114.510592 188.699178 
L 114.936259 188.699178 
L 115.361926 185.937534 
L 116.000426 185.937534 
L 116.21326 183.17589 
L 116.85176 183.17589 
L 117.064594 176.271781 
L 117.703094 176.271781 
L 118.128761 173.510137 
L 119.192928 173.510137 
L 120.044262 168.67726 
L 120.257096 168.67726 
L 120.682763 167.296438 
L 120.895596 165.915616 
L 121.321263 165.915616 
L 121.534097 164.534795 
L 121.959764 164.534795 
L 122.172597 163.844384 
L 122.598264 161.08274 
L 123.662431 161.08274 
L 123.875265 160.392329 
L 124.088098 160.392329 
L 124.300932 158.321096 
L 124.939432 158.321096 
L 125.152266 157.630685 
L 126.429267 157.630685 
L 126.6421 156.940274 
L 126.854934 156.940274 
L 127.067767 156.249863 
L 127.280601 156.249863 
L 127.706268 154.869041 
L 127.919101 154.869041 
L 128.344768 153.488219 
L 129.408935 153.488219 
L 129.621769 152.797808 
L 129.834602 151.416986 
L 131.111603 151.416986 
L 131.324437 150.726575 
L 132.175771 150.726575 
L 132.388604 150.036164 
L 133.665605 150.036164 
L 133.878438 149.345753 
L 134.516939 149.345753 
L 134.729772 148.655342 
L 134.942606 147.274521 
L 135.155439 147.274521 
L 135.368273 146.58411 
L 135.79394 146.58411 
L 136.006773 144.512877 
L 136.645274 144.512877 
L 136.858107 143.822466 
L 137.283774 141.751233 
L 139.624942 141.751233 
L 140.050609 140.370411 
L 143.881612 140.370411 
L 144.094446 138.989589 
L 148.989616 138.989589 
L 149.202449 138.299178 
L 150.905117 138.299178 
L 151.11795 137.608767 
L 152.607785 137.608767 
L 153.033452 136.227945 
L 153.246285 136.227945 
L 153.459119 135.537534 
L 154.097619 135.537534 
L 154.310453 134.847123 
L 156.225954 134.847123 
L 156.651621 133.466301 
L 161.121124 133.466301 
L 161.333958 132.77589 
L 162.823792 132.77589 
L 163.036625 132.085479 
L 171.124298 132.085479 
L 171.337131 131.395068 
L 184.958474 131.395068 
L 185.171307 130.704658 
L 187.938143 130.704658 
L 188.150976 130.014247 
L 188.36381 130.014247 
L 188.576643 129.323836 
L 188.789477 129.323836 
L 189.00231 128.633425 
L 189.853644 128.633425 
L 190.066477 127.943014 
L 204.326321 127.943014 
L 204.539154 127.252603 
L 208.370157 127.252603 
L 208.795824 125.871781 
L 210.924159 125.871781 
L 211.136992 124.490959 
L 211.349826 124.490959 
L 211.562659 123.110137 
L 213.47816 123.110137 
L 213.903827 121.729315 
L 222.417167 121.729315 
L 222.63 121.038904 
L 224.758335 121.038904 
L 224.971168 120.348493 
L 226.248169 120.348493 
L 226.461003 119.658082 
L 250.724019 119.658082 
L 250.936853 118.967671 
L 252.00102 118.967671 
L 252.213854 117.586849 
L 260.51436 117.586849 
L 260.727193 116.896438 
L 277.328205 116.896438 
L 277.541038 116.206027 
L 290.736714 116.206027 
L 290.949547 115.515616 
L 296.483218 115.515616 
L 296.696051 114.825205 
L 307.976226 114.825205 
L 308.189059 114.134795 
L 325.215738 114.134795 
L 325.428571 113.444384 
L 375.657273 113.444384 
L 375.657273 113.444384 
" clip-path="url(#p52e83a3e7f)" style="fill: none; stroke: #db5f57; stroke-width: 1.2; stroke-linecap: round"/>
   </g>
   <g id="line2d_27">
    <path d="M 69.602727 459.685479 
L 69.815561 404.107397 
L 70.241228 393.060822 
L 70.454061 381.323836 
L 70.879728 373.038904 
L 71.092562 372.348493 
L 71.305395 370.27726 
L 71.518229 369.586849 
L 71.731062 361.992329 
L 71.943896 361.301918 
L 72.156729 357.849863 
L 72.369563 356.469041 
L 72.582396 356.469041 
L 72.795229 348.18411 
L 73.220896 345.422466 
L 73.43373 345.422466 
L 73.646563 344.732055 
L 74.07223 342.660822 
L 74.285064 341.970411 
L 74.497897 339.899178 
L 74.710731 339.899178 
L 74.923564 339.208767 
L 78.754567 339.208767 
L 79.180234 337.827945 
L 79.393067 336.447123 
L 79.605901 331.614247 
L 80.031568 330.233425 
L 80.244401 328.162192 
L 80.457235 327.471781 
L 80.882902 325.400548 
L 81.095735 298.474521 
L 81.308569 237.027945 
L 81.521402 230.814247 
L 81.734236 230.814247 
L 82.372736 225.290959 
L 82.798403 222.529315 
L 83.011237 222.529315 
L 83.22407 221.838904 
L 83.86257 221.838904 
L 84.075404 220.458082 
L 84.713904 220.458082 
L 84.926738 217.006027 
L 85.139571 216.315616 
L 86.416572 216.315616 
L 86.629406 215.625205 
L 87.055073 215.625205 
L 87.48074 213.553973 
L 89.396241 213.553973 
L 89.609074 212.863562 
L 109.189755 212.863562 
L 109.402588 184.556712 
L 109.615422 172.129315 
L 118.980095 172.129315 
L 119.192928 147.964932 
L 128.983268 147.964932 
L 129.196102 130.014247 
L 138.986442 130.014247 
L 139.199276 118.967671 
L 151.969284 118.967671 
L 152.394951 116.206027 
L 163.036625 116.206027 
L 163.249459 110.68274 
L 174.3168 110.68274 
L 174.529633 109.992329 
L 187.938143 109.992329 
L 188.150976 107.921096 
L 201.772319 107.921096 
L 201.985152 105.849863 
L 215.606495 105.849863 
L 215.819329 104.469041 
L 216.032162 99.636164 
L 227.099503 99.636164 
L 227.52517 97.564932 
L 254.555022 97.564932 
L 254.767856 95.493699 
L 267.963531 95.493699 
L 268.176365 94.803288 
L 279.030872 94.803288 
L 279.243706 94.112877 
L 292.865049 94.112877 
L 293.077882 93.422466 
L 307.337725 93.422466 
L 307.550559 92.732055 
L 321.810402 92.732055 
L 322.023236 92.041644 
L 375.657273 92.041644 
L 375.657273 92.041644 
" clip-path="url(#p52e83a3e7f)" style="fill: none; stroke: #b9db57; stroke-width: 1.2; stroke-linecap: round"/>
   </g>
   <g id="line2d_28">
    <path d="M 69.602727 476.945753 
L 69.815561 453.816986 
L 70.028394 449.674521 
L 70.666895 417.915616 
L 70.879728 411.701918 
L 71.305395 392.370411 
L 71.731062 382.704658 
L 71.943896 369.586849 
L 72.582396 348.18411 
L 72.795229 336.447123 
L 73.008063 277.762192 
L 73.220896 277.762192 
L 73.43373 277.071781 
L 73.859397 277.071781 
L 74.07223 276.38137 
L 74.497897 276.38137 
L 74.710731 271.548493 
L 74.923564 271.548493 
L 75.349231 270.167671 
L 75.562065 270.167671 
L 75.774898 269.47726 
L 75.987732 268.096438 
L 77.264733 268.096438 
L 77.477566 267.406027 
L 77.903233 267.406027 
L 78.116067 265.334795 
L 78.541733 265.334795 
L 78.9674 261.88274 
L 79.393067 261.88274 
L 79.605901 261.192329 
L 79.818734 257.740274 
L 80.244401 255.669041 
L 80.670068 255.669041 
L 80.882902 252.907397 
L 81.308569 252.907397 
L 81.521402 252.216986 
L 81.734236 243.932055 
L 82.159903 243.932055 
L 82.372736 243.241644 
L 82.58557 243.241644 
L 82.798403 238.408767 
L 83.011237 238.408767 
L 83.22407 237.027945 
L 83.649737 237.027945 
L 83.86257 234.956712 
L 84.075404 234.266301 
L 84.713904 234.266301 
L 84.926738 232.195068 
L 85.990905 232.195068 
L 86.203739 230.814247 
L 87.267906 230.814247 
L 87.48074 228.743014 
L 87.693573 228.743014 
L 88.11924 226.671781 
L 88.332074 226.671781 
L 88.544907 225.98137 
L 89.609074 225.98137 
L 89.821908 225.290959 
L 90.034741 223.219726 
L 90.673242 223.219726 
L 90.886075 222.529315 
L 91.524576 222.529315 
L 91.737409 219.07726 
L 93.01441 219.07726 
L 93.227244 217.696438 
L 93.652911 217.696438 
L 93.865744 217.006027 
L 94.078578 217.006027 
L 94.291411 216.315616 
L 94.929911 216.315616 
L 95.142745 208.030685 
L 96.419746 208.030685 
L 96.632579 203.888219 
L 97.696747 203.888219 
L 98.122414 201.816986 
L 103.230417 201.816986 
L 103.443251 194.912877 
L 106.210086 194.912877 
L 106.422919 193.532055 
L 111.105256 193.532055 
L 111.31809 192.841644 
L 113.659258 192.841644 
L 113.872091 192.151233 
L 114.084925 192.151233 
L 114.297758 188.699178 
L 114.510592 188.008767 
L 114.723425 186.627945 
L 115.361926 186.627945 
L 115.574759 182.485479 
L 116.000426 182.485479 
L 116.21326 179.723836 
L 116.426093 179.033425 
L 117.064594 173.510137 
L 117.277427 173.510137 
L 117.703094 172.129315 
L 375.657273 172.129315 
L 375.657273 172.129315 
" clip-path="url(#p52e83a3e7f)" style="fill: none; stroke: #57db94; stroke-width: 1.2; stroke-linecap: round"/>
   </g>
   <g id="line2d_29">
    <path d="M 69.602727 481.088219 
L 69.815561 460.721096 
L 70.028394 403.416986 
L 70.241228 392.370411 
L 70.454061 390.299178 
L 70.666895 386.156712 
L 70.879728 386.156712 
L 71.518229 375.800548 
L 71.731062 374.419726 
L 71.943896 371.658082 
L 72.156729 308.830685 
L 72.369563 308.140274 
L 72.582396 308.140274 
L 73.008063 283.285479 
L 73.220896 281.904658 
L 73.43373 281.904658 
L 73.646563 281.214247 
L 73.859397 281.214247 
L 74.497897 279.143014 
L 74.710731 279.143014 
L 74.923564 277.762192 
L 75.349231 277.762192 
L 75.562065 275.690959 
L 75.774898 275.690959 
L 75.987732 275.000548 
L 76.200565 275.000548 
L 76.413399 273.619726 
L 77.264733 273.619726 
L 77.477566 272.929315 
L 77.6904 272.929315 
L 77.903233 272.238904 
L 78.116067 272.238904 
L 78.3289 269.47726 
L 78.754567 269.47726 
L 78.9674 267.406027 
L 79.180234 267.406027 
L 79.393067 266.715616 
L 79.605901 264.644384 
L 79.818734 263.953973 
L 80.457235 259.811507 
L 80.670068 259.811507 
L 80.882902 257.740274 
L 81.308569 257.740274 
L 81.521402 250.836164 
L 81.734236 248.764932 
L 81.947069 248.764932 
L 82.159903 247.38411 
L 82.372736 244.622466 
L 82.58557 244.622466 
L 82.798403 243.241644 
L 83.011237 243.241644 
L 83.22407 241.170411 
L 83.436904 241.170411 
L 83.649737 239.099178 
L 84.075404 239.099178 
L 84.288237 237.718356 
L 84.713904 237.718356 
L 84.926738 236.337534 
L 85.139571 236.337534 
L 85.565238 234.956712 
L 86.416572 234.956712 
L 86.629406 234.266301 
L 87.48074 234.266301 
L 87.693573 232.195068 
L 88.11924 232.195068 
L 88.332074 230.814247 
L 88.544907 230.814247 
L 88.757741 230.123836 
L 89.821908 230.123836 
L 90.034741 229.433425 
L 90.247575 228.052603 
L 90.886075 228.052603 
L 91.098909 226.671781 
L 91.311742 226.671781 
L 91.524576 223.910137 
L 92.801577 223.910137 
L 93.01441 222.529315 
L 93.227244 222.529315 
L 93.440077 221.838904 
L 93.652911 221.838904 
L 93.865744 220.458082 
L 94.078578 220.458082 
L 94.504245 213.553973 
L 94.717078 213.553973 
L 94.929911 212.863562 
L 95.355578 212.863562 
L 95.568412 209.411507 
L 95.994079 209.411507 
L 96.206912 208.721096 
L 96.632579 208.721096 
L 96.845413 207.340274 
L 97.483913 207.340274 
L 97.90958 205.959452 
L 98.122414 205.959452 
L 98.335247 205.269041 
L 99.399415 205.269041 
L 99.612248 203.197808 
L 99.825082 203.197808 
L 100.037915 202.507397 
L 100.889249 202.507397 
L 101.102082 201.816986 
L 101.953416 201.816986 
L 102.16625 200.436164 
L 102.591917 200.436164 
L 102.80475 199.055342 
L 104.294585 199.055342 
L 104.507418 198.364932 
L 105.571586 198.364932 
L 105.784419 197.674521 
L 111.105256 197.674521 
L 111.31809 196.98411 
L 113.233591 196.98411 
L 113.446424 195.603288 
L 113.872091 195.603288 
L 114.297758 192.841644 
L 114.510592 192.841644 
L 114.723425 190.08 
L 114.936259 189.389589 
L 115.361926 187.318356 
L 115.574759 186.627945 
L 116.21326 186.627945 
L 116.638927 182.485479 
L 117.064594 182.485479 
L 117.277427 178.343014 
L 117.49026 178.343014 
L 117.703094 176.962192 
L 117.915927 176.962192 
L 118.128761 176.271781 
L 118.341594 176.271781 
L 118.554428 175.58137 
L 118.980095 175.58137 
L 119.192928 174.200548 
L 119.405762 174.200548 
L 119.831429 172.819726 
L 120.044262 170.748493 
L 120.257096 170.748493 
L 120.469929 170.058082 
L 120.682763 170.058082 
L 120.895596 169.367671 
L 121.10843 169.367671 
L 121.321263 168.67726 
L 121.534097 166.606027 
L 121.959764 165.225205 
L 122.172597 165.225205 
L 122.385431 164.534795 
L 122.598264 164.534795 
L 122.811097 163.153973 
L 123.236764 163.153973 
L 123.449598 162.463562 
L 124.513765 162.463562 
L 124.726599 161.08274 
L 126.429267 161.08274 
L 126.6421 160.392329 
L 126.854934 160.392329 
L 127.067767 159.701918 
L 127.706268 159.701918 
L 127.919101 157.630685 
L 128.131935 157.630685 
L 128.344768 156.249863 
L 128.557601 156.249863 
L 128.770435 155.559452 
L 129.408935 155.559452 
L 129.834602 154.17863 
L 130.047436 154.17863 
L 130.260269 153.488219 
L 131.324437 153.488219 
L 131.53727 152.797808 
L 132.388604 152.797808 
L 132.601438 152.107397 
L 133.239938 152.107397 
L 133.452772 151.416986 
L 133.878438 151.416986 
L 134.091272 150.726575 
L 134.516939 150.726575 
L 134.729772 149.345753 
L 134.942606 149.345753 
L 135.155439 148.655342 
L 135.368273 146.58411 
L 135.581106 145.893699 
L 136.858107 145.893699 
L 137.283774 144.512877 
L 139.412109 144.512877 
L 139.837776 143.132055 
L 148.989616 143.132055 
L 149.202449 142.441644 
L 151.330784 142.441644 
L 151.543617 141.751233 
L 153.246285 141.751233 
L 153.459119 139.68 
L 153.884786 139.68 
L 154.097619 138.989589 
L 154.310453 138.989589 
L 154.523286 138.299178 
L 156.01312 138.299178 
L 156.225954 137.608767 
L 160.695457 137.608767 
L 160.908291 136.918356 
L 161.759624 136.918356 
L 161.972458 136.227945 
L 171.124298 136.227945 
L 171.337131 135.537534 
L 171.975632 135.537534 
L 172.188465 134.847123 
L 184.958474 134.847123 
L 185.171307 134.156712 
L 186.661142 134.156712 
L 186.873975 133.466301 
L 188.150976 133.466301 
L 188.36381 132.77589 
L 189.215144 132.77589 
L 189.427977 131.395068 
L 191.343478 131.395068 
L 191.556312 130.704658 
L 204.539154 130.704658 
L 204.751988 130.014247 
L 210.711325 130.014247 
L 210.924159 129.323836 
L 211.136992 126.562192 
L 211.988326 126.562192 
L 212.413993 125.18137 
L 213.690994 125.18137 
L 213.903827 124.490959 
L 223.481334 124.490959 
L 223.694167 123.800548 
L 227.738004 123.800548 
L 227.950837 122.419726 
L 249.021352 122.419726 
L 249.234185 121.729315 
L 250.724019 121.729315 
L 251.36252 119.658082 
L 251.575353 119.658082 
L 251.788187 118.967671 
L 260.51436 118.967671 
L 260.727193 118.27726 
L 277.328205 118.27726 
L 277.541038 117.586849 
L 290.949547 117.586849 
L 291.162381 116.896438 
L 296.696051 116.896438 
L 296.908885 116.206027 
L 307.976226 116.206027 
L 308.189059 115.515616 
L 345.222085 115.515616 
L 345.434918 114.825205 
L 375.657273 114.825205 
L 375.657273 114.825205 
" clip-path="url(#p52e83a3e7f)" style="fill: none; stroke: #5784db; stroke-width: 1.2; stroke-linecap: round"/>
   </g>
   <g id="line2d_30">
    <path d="M 69.602727 452.090959 
L 69.815561 384.77589 
L 70.241228 366.825205 
L 70.666895 333.685479 
L 71.305395 311.592329 
L 71.518229 308.140274 
L 72.156729 290.189589 
L 72.369563 285.356712 
L 73.008063 261.88274 
L 73.43373 259.811507 
L 73.646563 259.811507 
L 74.07223 258.430685 
L 74.710731 254.97863 
L 74.923564 254.97863 
L 75.774898 252.216986 
L 75.987732 250.836164 
L 77.264733 250.836164 
L 77.477566 249.455342 
L 77.6904 249.455342 
L 77.903233 248.764932 
L 78.116067 246.693699 
L 78.541733 246.693699 
L 78.754567 246.003288 
L 78.9674 244.622466 
L 79.180234 244.622466 
L 79.393067 243.932055 
L 79.818734 240.48 
L 80.457235 236.337534 
L 81.095735 236.337534 
L 81.308569 234.266301 
L 81.521402 228.052603 
L 81.734236 227.362192 
L 82.58557 219.767671 
L 82.798403 218.386849 
L 83.011237 218.386849 
L 83.22407 216.315616 
L 83.86257 216.315616 
L 84.075404 214.934795 
L 84.713904 214.934795 
L 84.926738 211.48274 
L 85.352405 210.101918 
L 86.416572 210.101918 
L 86.629406 209.411507 
L 87.055073 209.411507 
L 87.48074 206.649863 
L 87.693573 206.649863 
L 88.11924 204.57863 
L 88.332074 204.57863 
L 88.544907 203.888219 
L 89.396241 203.888219 
L 89.821908 202.507397 
L 90.034741 201.126575 
L 90.673242 201.126575 
L 91.524576 196.293699 
L 92.588743 196.293699 
L 92.801577 194.912877 
L 93.227244 194.912877 
L 93.440077 194.222466 
L 94.291411 188.699178 
L 94.504245 185.937534 
L 94.717078 185.937534 
L 95.355578 183.866301 
L 95.781245 181.795068 
L 96.206912 181.795068 
L 96.419746 180.414247 
L 97.27108 180.414247 
L 97.90958 178.343014 
L 98.122414 178.343014 
L 98.335247 177.652603 
L 98.760914 177.652603 
L 98.973748 176.962192 
L 99.186581 176.962192 
L 100.037915 174.200548 
L 101.527749 174.200548 
L 101.953416 172.819726 
L 102.379083 172.819726 
L 102.80475 171.438904 
L 103.868918 171.438904 
L 104.081751 170.748493 
L 105.145919 170.748493 
L 105.358752 170.058082 
L 111.105256 170.058082 
L 111.31809 169.367671 
L 112.807924 169.367671 
L 113.233591 167.986849 
L 113.446424 167.986849 
L 113.872091 166.606027 
L 114.084925 166.606027 
L 115.149092 159.701918 
L 115.361926 159.701918 
L 115.574759 159.011507 
L 116.000426 159.011507 
L 116.21326 156.249863 
L 116.426093 155.559452 
L 117.064594 150.036164 
L 117.277427 150.036164 
L 117.703094 148.655342 
L 117.915927 148.655342 
L 118.128761 147.274521 
L 118.980095 147.274521 
L 119.405762 145.203288 
L 119.618595 144.512877 
L 119.831429 142.441644 
L 120.044262 141.751233 
L 120.257096 141.751233 
L 120.469929 141.060822 
L 120.682763 141.060822 
L 120.895596 139.68 
L 121.10843 139.68 
L 122.172597 136.227945 
L 122.385431 136.227945 
L 122.598264 134.847123 
L 123.236764 134.847123 
L 123.449598 134.156712 
L 123.662431 134.156712 
L 123.875265 133.466301 
L 124.088098 133.466301 
L 124.300932 132.085479 
L 126.429267 132.085479 
L 126.6421 131.395068 
L 126.854934 131.395068 
L 127.067767 130.704658 
L 127.280601 130.704658 
L 127.706268 129.323836 
L 127.919101 129.323836 
L 128.344768 127.943014 
L 129.408935 127.943014 
L 129.834602 125.871781 
L 131.111603 125.871781 
L 131.324437 125.18137 
L 133.665605 125.18137 
L 133.878438 124.490959 
L 134.516939 124.490959 
L 134.729772 122.419726 
L 135.155439 122.419726 
L 135.368273 120.348493 
L 135.581106 119.658082 
L 136.645274 119.658082 
L 136.858107 118.967671 
L 137.283774 116.896438 
L 139.412109 116.896438 
L 139.837776 115.515616 
L 148.989616 115.515616 
L 149.202449 114.825205 
L 150.905117 114.825205 
L 151.11795 114.134795 
L 152.607785 114.134795 
L 153.033452 112.753973 
L 153.246285 112.753973 
L 153.459119 112.063562 
L 153.884786 112.063562 
L 154.097619 111.373151 
L 154.310453 111.373151 
L 154.523286 110.68274 
L 156.01312 110.68274 
L 156.225954 109.992329 
L 160.695457 109.992329 
L 160.908291 109.301918 
L 161.759624 109.301918 
L 161.972458 108.611507 
L 171.124298 108.611507 
L 171.337131 107.921096 
L 184.958474 107.921096 
L 185.171307 107.230685 
L 186.661142 107.230685 
L 186.873975 106.540274 
L 187.938143 106.540274 
L 188.150976 105.849863 
L 188.36381 105.849863 
L 188.576643 105.159452 
L 188.789477 105.159452 
L 189.00231 104.469041 
L 189.853644 104.469041 
L 190.066477 103.77863 
L 204.326321 103.77863 
L 204.539154 103.088219 
L 208.370157 103.088219 
L 208.795824 101.707397 
L 210.711325 101.707397 
L 210.924159 101.016986 
L 211.136992 99.636164 
L 211.349826 99.636164 
L 211.562659 98.945753 
L 211.988326 98.945753 
L 212.201159 98.255342 
L 213.690994 98.255342 
L 213.903827 97.564932 
L 222.417167 97.564932 
L 222.63 96.874521 
L 224.758335 96.874521 
L 224.971168 96.18411 
L 226.248169 96.18411 
L 226.461003 95.493699 
L 250.724019 95.493699 
L 250.936853 94.112877 
L 251.149686 94.112877 
L 251.36252 93.422466 
L 251.575353 93.422466 
L 251.788187 92.732055 
L 260.51436 92.732055 
L 260.727193 92.041644 
L 277.328205 92.041644 
L 277.541038 91.351233 
L 290.736714 91.351233 
L 290.949547 90.660822 
L 296.483218 90.660822 
L 296.696051 89.970411 
L 307.976226 89.970411 
L 308.189059 89.28 
L 375.657273 89.28 
L 375.657273 89.28 
" clip-path="url(#p52e83a3e7f)" style="fill: none; stroke: #c957db; stroke-width: 1.2; stroke-linecap: round"/>
   </g>
   <g id="line2d_31"/>
   <g id="line2d_32"/>
   <g id="line2d_33"/>
   <g id="line2d_34"/>
   <g id="line2d_35"/>
   <g id="patch_3">
    <path d="M 54.3 512.64 
L 54.3 69.12 
" style="fill: none; stroke: #cccccc; stroke-linejoin: miter; stroke-linecap: square"/>
   </g>
   <g id="patch_4">
    <path d="M 54.3 512.64 
L 390.96 512.64 
" style="fill: none; stroke: #cccccc; stroke-linejoin: miter; stroke-linecap: square"/>
   </g>
   <g id="text_28">
    <!-- Edge Coverage History -->
    <g style="fill: #262626" transform="translate(115.738512 63.12)scale(0.165888 -0.165888)">
     <defs>
      <path id="DejaVuSans-Bold-45" d="M 588 4666 
L 3834 4666 
L 3834 3756 
L 1791 3756 
L 1791 2888 
L 3713 2888 
L 3713 1978 
L 1791 1978 
L 1791 909 
L 3903 909 
L 3903 0 
L 588 0 
L 588 4666 
z
" transform="scale(0.015625)"/>
      <path id="DejaVuSans-Bold-64" d="M 2919 2988 
L 2919 4863 
L 4044 4863 
L 4044 0 
L 2919 0 
L 2919 506 
Q 2688 197 2409 53 
Q 2131 -91 1766 -91 
Q 1119 -91 703 423 
Q 288 938 288 1747 
Q 288 2556 703 3070 
Q 1119 3584 1766 3584 
Q 2128 3584 2408 3439 
Q 2688 3294 2919 2988 
z
M 2181 722 
Q 2541 722 2730 984 
Q 2919 1247 2919 1747 
Q 2919 2247 2730 2509 
Q 2541 2772 2181 2772 
Q 1825 2772 1636 2509 
Q 1447 2247 1447 1747 
Q 1447 1247 1636 984 
Q 1825 722 2181 722 
z
" transform="scale(0.015625)"/>
      <path id="DejaVuSans-Bold-67" d="M 2919 594 
Q 2688 288 2409 144 
Q 2131 0 1766 0 
Q 1125 0 706 504 
Q 288 1009 288 1791 
Q 288 2575 706 3076 
Q 1125 3578 1766 3578 
Q 2131 3578 2409 3434 
Q 2688 3291 2919 2981 
L 2919 3500 
L 4044 3500 
L 4044 353 
Q 4044 -491 3511 -936 
Q 2978 -1381 1966 -1381 
Q 1638 -1381 1331 -1331 
Q 1025 -1281 716 -1178 
L 716 -306 
Q 1009 -475 1290 -558 
Q 1572 -641 1856 -641 
Q 2406 -641 2662 -400 
Q 2919 -159 2919 353 
L 2919 594 
z
M 2181 2772 
Q 1834 2772 1640 2515 
Q 1447 2259 1447 1791 
Q 1447 1309 1634 1061 
Q 1822 813 2181 813 
Q 2531 813 2725 1069 
Q 2919 1325 2919 1791 
Q 2919 2259 2725 2515 
Q 2531 2772 2181 2772 
z
" transform="scale(0.015625)"/>
      <path id="DejaVuSans-Bold-65" d="M 4031 1759 
L 4031 1441 
L 1416 1441 
Q 1456 1047 1700 850 
Q 1944 653 2381 653 
Q 2734 653 3104 758 
Q 3475 863 3866 1075 
L 3866 213 
Q 3469 63 3072 -14 
Q 2675 -91 2278 -91 
Q 1328 -91 801 392 
Q 275 875 275 1747 
Q 275 2603 792 3093 
Q 1309 3584 2216 3584 
Q 3041 3584 3536 3087 
Q 4031 2591 4031 1759 
z
M 2881 2131 
Q 2881 2450 2695 2645 
Q 2509 2841 2209 2841 
Q 1884 2841 1681 2658 
Q 1478 2475 1428 2131 
L 2881 2131 
z
" transform="scale(0.015625)"/>
      <path id="DejaVuSans-Bold-20" transform="scale(0.015625)"/>
      <path id="DejaVuSans-Bold-43" d="M 4288 256 
Q 3956 84 3597 -3 
Q 3238 -91 2847 -91 
Q 1681 -91 1000 561 
Q 319 1213 319 2328 
Q 319 3447 1000 4098 
Q 1681 4750 2847 4750 
Q 3238 4750 3597 4662 
Q 3956 4575 4288 4403 
L 4288 3438 
Q 3953 3666 3628 3772 
Q 3303 3878 2944 3878 
Q 2300 3878 1931 3465 
Q 1563 3053 1563 2328 
Q 1563 1606 1931 1193 
Q 2300 781 2944 781 
Q 3303 781 3628 887 
Q 3953 994 4288 1222 
L 4288 256 
z
" transform="scale(0.015625)"/>
      <path id="DejaVuSans-Bold-6f" d="M 2203 2784 
Q 1831 2784 1636 2517 
Q 1441 2250 1441 1747 
Q 1441 1244 1636 976 
Q 1831 709 2203 709 
Q 2569 709 2762 976 
Q 2956 1244 2956 1747 
Q 2956 2250 2762 2517 
Q 2569 2784 2203 2784 
z
M 2203 3584 
Q 3106 3584 3614 3096 
Q 4122 2609 4122 1747 
Q 4122 884 3614 396 
Q 3106 -91 2203 -91 
Q 1297 -91 786 396 
Q 275 884 275 1747 
Q 275 2609 786 3096 
Q 1297 3584 2203 3584 
z
" transform="scale(0.015625)"/>
      <path id="DejaVuSans-Bold-76" d="M 97 3500 
L 1216 3500 
L 2088 1081 
L 2956 3500 
L 4078 3500 
L 2700 0 
L 1472 0 
L 97 3500 
z
" transform="scale(0.015625)"/>
      <path id="DejaVuSans-Bold-72" d="M 3138 2547 
Q 2991 2616 2845 2648 
Q 2700 2681 2553 2681 
Q 2122 2681 1889 2404 
Q 1656 2128 1656 1613 
L 1656 0 
L 538 0 
L 538 3500 
L 1656 3500 
L 1656 2925 
Q 1872 3269 2151 3426 
Q 2431 3584 2822 3584 
Q 2878 3584 2943 3579 
Q 3009 3575 3134 3559 
L 3138 2547 
z
" transform="scale(0.015625)"/>
      <path id="DejaVuSans-Bold-61" d="M 2106 1575 
Q 1756 1575 1579 1456 
Q 1403 1338 1403 1106 
Q 1403 894 1545 773 
Q 1688 653 1941 653 
Q 2256 653 2472 879 
Q 2688 1106 2688 1447 
L 2688 1575 
L 2106 1575 
z
M 3816 1997 
L 3816 0 
L 2688 0 
L 2688 519 
Q 2463 200 2181 54 
Q 1900 -91 1497 -91 
Q 953 -91 614 226 
Q 275 544 275 1050 
Q 275 1666 698 1953 
Q 1122 2241 2028 2241 
L 2688 2241 
L 2688 2328 
Q 2688 2594 2478 2717 
Q 2269 2841 1825 2841 
Q 1466 2841 1156 2769 
Q 847 2697 581 2553 
L 581 3406 
Q 941 3494 1303 3539 
Q 1666 3584 2028 3584 
Q 2975 3584 3395 3211 
Q 3816 2838 3816 1997 
z
" transform="scale(0.015625)"/>
      <path id="DejaVuSans-Bold-48" d="M 588 4666 
L 1791 4666 
L 1791 2888 
L 3566 2888 
L 3566 4666 
L 4769 4666 
L 4769 0 
L 3566 0 
L 3566 1978 
L 1791 1978 
L 1791 0 
L 588 0 
L 588 4666 
z
" transform="scale(0.015625)"/>
      <path id="DejaVuSans-Bold-69" d="M 538 3500 
L 1656 3500 
L 1656 0 
L 538 0 
L 538 3500 
z
M 538 4863 
L 1656 4863 
L 1656 3950 
L 538 3950 
L 538 4863 
z
" transform="scale(0.015625)"/>
      <path id="DejaVuSans-Bold-73" d="M 3272 3391 
L 3272 2541 
Q 2913 2691 2578 2766 
Q 2244 2841 1947 2841 
Q 1628 2841 1473 2761 
Q 1319 2681 1319 2516 
Q 1319 2381 1436 2309 
Q 1553 2238 1856 2203 
L 2053 2175 
Q 2913 2066 3209 1816 
Q 3506 1566 3506 1031 
Q 3506 472 3093 190 
Q 2681 -91 1863 -91 
Q 1516 -91 1145 -36 
Q 775 19 384 128 
L 384 978 
Q 719 816 1070 734 
Q 1422 653 1784 653 
Q 2113 653 2278 743 
Q 2444 834 2444 1013 
Q 2444 1163 2330 1236 
Q 2216 1309 1875 1350 
L 1678 1375 
Q 931 1469 631 1722 
Q 331 1975 331 2491 
Q 331 3047 712 3315 
Q 1094 3584 1881 3584 
Q 2191 3584 2531 3537 
Q 2872 3491 3272 3391 
z
" transform="scale(0.015625)"/>
      <path id="DejaVuSans-Bold-74" d="M 1759 4494 
L 1759 3500 
L 2913 3500 
L 2913 2700 
L 1759 2700 
L 1759 1216 
Q 1759 972 1856 886 
Q 1953 800 2241 800 
L 2816 800 
L 2816 0 
L 1856 0 
Q 1194 0 917 276 
Q 641 553 641 1216 
L 641 2700 
L 84 2700 
L 84 3500 
L 641 3500 
L 641 4494 
L 1759 4494 
z
" transform="scale(0.015625)"/>
      <path id="DejaVuSans-Bold-79" d="M 78 3500 
L 1197 3500 
L 2138 1125 
L 2938 3500 
L 4056 3500 
L 2584 -331 
Q 2363 -916 2067 -1148 
Q 1772 -1381 1288 -1381 
L 641 -1381 
L 641 -647 
L 991 -647 
Q 1275 -647 1404 -556 
Q 1534 -466 1606 -231 
L 1638 -134 
L 78 3500 
z
" transform="scale(0.015625)"/>
     </defs>
     <use xlink:href="#DejaVuSans-Bold-45"/>
     <use xlink:href="#DejaVuSans-Bold-64" x="68.310547"/>
     <use xlink:href="#DejaVuSans-Bold-67" x="139.892578"/>
     <use xlink:href="#DejaVuSans-Bold-65" x="211.474609"/>
     <use xlink:href="#DejaVuSans-Bold-20" x="279.296875"/>
     <use xlink:href="#DejaVuSans-Bold-43" x="314.111328"/>
     <use xlink:href="#DejaVuSans-Bold-6f" x="387.5"/>
     <use xlink:href="#DejaVuSans-Bold-76" x="456.201172"/>
     <use xlink:href="#DejaVuSans-Bold-65" x="521.386719"/>
     <use xlink:href="#DejaVuSans-Bold-72" x="589.208984"/>
     <use xlink:href="#DejaVuSans-Bold-61" x="638.525391"/>
     <use xlink:href="#DejaVuSans-Bold-67" x="706.005859"/>
     <use xlink:href="#DejaVuSans-Bold-65" x="777.587891"/>
     <use xlink:href="#DejaVuSans-Bold-20" x="845.410156"/>
     <use xlink:href="#DejaVuSans-Bold-48" x="880.224609"/>
     <use xlink:href="#DejaVuSans-Bold-69" x="963.916016"/>
     <use xlink:href="#DejaVuSans-Bold-73" x="998.193359"/>
     <use xlink:href="#DejaVuSans-Bold-74" x="1057.714844"/>
     <use xlink:href="#DejaVuSans-Bold-6f" x="1105.517578"/>
     <use xlink:href="#DejaVuSans-Bold-72" x="1174.21875"/>
     <use xlink:href="#DejaVuSans-Bold-79" x="1223.535156"/>
    </g>
   </g>
   <g id="legend_1">
    <g id="patch_5">
     <path d="M 273.271 508.24 
L 384.8 508.24 
Q 386.56 508.24 386.56 506.48 
L 386.56 428.8405 
Q 386.56 427.0805 384.8 427.0805 
L 273.271 427.0805 
Q 271.511 427.0805 271.511 428.8405 
L 271.511 506.48 
Q 271.511 508.24 273.271 508.24 
z
" style="fill: #ffffff; opacity: 0.8; stroke: #cccccc; stroke-width: 0.8; stroke-linejoin: miter"/>
    </g>
    <g id="text_29">
     <!-- fuzzer -->
     <g style="fill: #262626" transform="translate(314.3385 437.895)scale(0.096 -0.096)">
      <defs>
       <path id="DejaVuSans-66" d="M 2375 4863 
L 2375 4384 
L 1825 4384 
Q 1516 4384 1395 4259 
Q 1275 4134 1275 3809 
L 1275 3500 
L 2222 3500 
L 2222 3053 
L 1275 3053 
L 1275 0 
L 697 0 
L 697 3053 
L 147 3053 
L 147 3500 
L 697 3500 
L 697 3744 
Q 697 4328 969 4595 
Q 1241 4863 1831 4863 
L 2375 4863 
z
" transform="scale(0.015625)"/>
       <path id="DejaVuSans-7a" d="M 353 3500 
L 3084 3500 
L 3084 2975 
L 922 459 
L 3084 459 
L 3084 0 
L 275 0 
L 275 525 
L 2438 3041 
L 353 3041 
L 353 3500 
z
" transform="scale(0.015625)"/>
      </defs>
      <use xlink:href="#DejaVuSans-66"/>
      <use xlink:href="#DejaVuSans-75" x="35.205078"/>
      <use xlink:href="#DejaVuSans-7a" x="98.583984"/>
      <use xlink:href="#DejaVuSans-7a" x="151.074219"/>
      <use xlink:href="#DejaVuSans-65" x="203.564453"/>
      <use xlink:href="#DejaVuSans-72" x="265.087891"/>
     </g>
    </g>
    <g id="line2d_36">
     <path d="M 275.031 447.898125 
L 283.831 447.898125 
L 292.631 447.898125 
" style="fill: none; stroke: #db5f57; stroke-width: 1.2; stroke-linecap: round"/>
    </g>
    <g id="text_30">
     <!-- symcc-0-exid1 -->
     <g style="fill: #262626" transform="translate(299.671 450.978125)scale(0.088 -0.088)">
      <defs>
       <path id="DejaVuSans-79" d="M 2059 -325 
Q 1816 -950 1584 -1140 
Q 1353 -1331 966 -1331 
L 506 -1331 
L 506 -850 
L 844 -850 
Q 1081 -850 1212 -737 
Q 1344 -625 1503 -206 
L 1606 56 
L 191 3500 
L 800 3500 
L 1894 763 
L 2988 3500 
L 3597 3500 
L 2059 -325 
z
" transform="scale(0.015625)"/>
       <path id="DejaVuSans-63" d="M 3122 3366 
L 3122 2828 
Q 2878 2963 2633 3030 
Q 2388 3097 2138 3097 
Q 1578 3097 1268 2742 
Q 959 2388 959 1747 
Q 959 1106 1268 751 
Q 1578 397 2138 397 
Q 2388 397 2633 464 
Q 2878 531 3122 666 
L 3122 134 
Q 2881 22 2623 -34 
Q 2366 -91 2075 -91 
Q 1284 -91 818 406 
Q 353 903 353 1747 
Q 353 2603 823 3093 
Q 1294 3584 2113 3584 
Q 2378 3584 2631 3529 
Q 2884 3475 3122 3366 
z
" transform="scale(0.015625)"/>
       <path id="DejaVuSans-2d" d="M 313 2009 
L 1997 2009 
L 1997 1497 
L 313 1497 
L 313 2009 
z
" transform="scale(0.015625)"/>
       <path id="DejaVuSans-78" d="M 3513 3500 
L 2247 1797 
L 3578 0 
L 2900 0 
L 1881 1375 
L 863 0 
L 184 0 
L 1544 1831 
L 300 3500 
L 978 3500 
L 1906 2253 
L 2834 3500 
L 3513 3500 
z
" transform="scale(0.015625)"/>
      </defs>
      <use xlink:href="#DejaVuSans-73"/>
      <use xlink:href="#DejaVuSans-79" x="52.099609"/>
      <use xlink:href="#DejaVuSans-6d" x="111.279297"/>
      <use xlink:href="#DejaVuSans-63" x="208.691406"/>
      <use xlink:href="#DejaVuSans-63" x="263.671875"/>
      <use xlink:href="#DejaVuSans-2d" x="318.652344"/>
      <use xlink:href="#DejaVuSans-30" x="354.736328"/>
      <use xlink:href="#DejaVuSans-2d" x="418.359375"/>
      <use xlink:href="#DejaVuSans-65" x="454.443359"/>
      <use xlink:href="#DejaVuSans-78" x="514.216797"/>
      <use xlink:href="#DejaVuSans-69" x="573.396484"/>
      <use xlink:href="#DejaVuSans-64" x="601.179688"/>
      <use xlink:href="#DejaVuSans-31" x="664.65625"/>
     </g>
    </g>
    <g id="line2d_37">
     <path d="M 275.031 460.814875 
L 283.831 460.814875 
L 292.631 460.814875 
" style="fill: none; stroke: #b9db57; stroke-width: 1.2; stroke-linecap: round"/>
    </g>
    <g id="text_31">
     <!-- aflplusplus-0-exid1 -->
     <g style="fill: #262626" transform="translate(299.671 463.894875)scale(0.088 -0.088)">
      <defs>
       <path id="DejaVuSans-6c" d="M 603 4863 
L 1178 4863 
L 1178 0 
L 603 0 
L 603 4863 
z
" transform="scale(0.015625)"/>
       <path id="DejaVuSans-70" d="M 1159 525 
L 1159 -1331 
L 581 -1331 
L 581 3500 
L 1159 3500 
L 1159 2969 
Q 1341 3281 1617 3432 
Q 1894 3584 2278 3584 
Q 2916 3584 3314 3078 
Q 3713 2572 3713 1747 
Q 3713 922 3314 415 
Q 2916 -91 2278 -91 
Q 1894 -91 1617 61 
Q 1341 213 1159 525 
z
M 3116 1747 
Q 3116 2381 2855 2742 
Q 2594 3103 2138 3103 
Q 1681 3103 1420 2742 
Q 1159 2381 1159 1747 
Q 1159 1113 1420 752 
Q 1681 391 2138 391 
Q 2594 391 2855 752 
Q 3116 1113 3116 1747 
z
" transform="scale(0.015625)"/>
      </defs>
      <use xlink:href="#DejaVuSans-61"/>
      <use xlink:href="#DejaVuSans-66" x="61.279297"/>
      <use xlink:href="#DejaVuSans-6c" x="96.484375"/>
      <use xlink:href="#DejaVuSans-70" x="124.267578"/>
      <use xlink:href="#DejaVuSans-6c" x="187.744141"/>
      <use xlink:href="#DejaVuSans-75" x="215.527344"/>
      <use xlink:href="#DejaVuSans-73" x="278.90625"/>
      <use xlink:href="#DejaVuSans-70" x="331.005859"/>
      <use xlink:href="#DejaVuSans-6c" x="394.482422"/>
      <use xlink:href="#DejaVuSans-75" x="422.265625"/>
      <use xlink:href="#DejaVuSans-73" x="485.644531"/>
      <use xlink:href="#DejaVuSans-2d" x="537.744141"/>
      <use xlink:href="#DejaVuSans-30" x="573.828125"/>
      <use xlink:href="#DejaVuSans-2d" x="637.451172"/>
      <use xlink:href="#DejaVuSans-65" x="673.535156"/>
      <use xlink:href="#DejaVuSans-78" x="733.308594"/>
      <use xlink:href="#DejaVuSans-69" x="792.488281"/>
      <use xlink:href="#DejaVuSans-64" x="820.271484"/>
      <use xlink:href="#DejaVuSans-31" x="883.748047"/>
     </g>
    </g>
    <g id="line2d_38">
     <path d="M 275.031 473.731625 
L 283.831 473.731625 
L 292.631 473.731625 
" style="fill: none; stroke: #57db94; stroke-width: 1.2; stroke-linecap: round"/>
    </g>
    <g id="text_32">
     <!-- fairfuzz-0-exid1 -->
     <g style="fill: #262626" transform="translate(299.671 476.811625)scale(0.088 -0.088)">
      <use xlink:href="#DejaVuSans-66"/>
      <use xlink:href="#DejaVuSans-61" x="35.205078"/>
      <use xlink:href="#DejaVuSans-69" x="96.484375"/>
      <use xlink:href="#DejaVuSans-72" x="124.267578"/>
      <use xlink:href="#DejaVuSans-66" x="165.380859"/>
      <use xlink:href="#DejaVuSans-75" x="200.585938"/>
      <use xlink:href="#DejaVuSans-7a" x="263.964844"/>
      <use xlink:href="#DejaVuSans-7a" x="316.455078"/>
      <use xlink:href="#DejaVuSans-2d" x="368.945312"/>
      <use xlink:href="#DejaVuSans-30" x="405.029297"/>
      <use xlink:href="#DejaVuSans-2d" x="468.652344"/>
      <use xlink:href="#DejaVuSans-65" x="504.736328"/>
      <use xlink:href="#DejaVuSans-78" x="564.509766"/>
      <use xlink:href="#DejaVuSans-69" x="623.689453"/>
      <use xlink:href="#DejaVuSans-64" x="651.472656"/>
      <use xlink:href="#DejaVuSans-31" x="714.949219"/>
     </g>
    </g>
    <g id="line2d_39">
     <path d="M 275.031 486.648375 
L 283.831 486.648375 
L 292.631 486.648375 
" style="fill: none; stroke: #5784db; stroke-width: 1.2; stroke-linecap: round"/>
    </g>
    <g id="text_33">
     <!-- mopt-0-exid1 -->
     <g style="fill: #262626" transform="translate(299.671 489.728375)scale(0.088 -0.088)">
      <use xlink:href="#DejaVuSans-6d"/>
      <use xlink:href="#DejaVuSans-6f" x="97.412109"/>
      <use xlink:href="#DejaVuSans-70" x="158.59375"/>
      <use xlink:href="#DejaVuSans-74" x="222.070312"/>
      <use xlink:href="#DejaVuSans-2d" x="261.279297"/>
      <use xlink:href="#DejaVuSans-30" x="297.363281"/>
      <use xlink:href="#DejaVuSans-2d" x="360.986328"/>
      <use xlink:href="#DejaVuSans-65" x="397.070312"/>
      <use xlink:href="#DejaVuSans-78" x="456.84375"/>
      <use xlink:href="#DejaVuSans-69" x="516.023438"/>
      <use xlink:href="#DejaVuSans-64" x="543.806641"/>
      <use xlink:href="#DejaVuSans-31" x="607.283203"/>
     </g>
    </g>
    <g id="line2d_40">
     <path d="M 275.031 499.565125 
L 283.831 499.565125 
L 292.631 499.565125 
" style="fill: none; stroke: #c957db; stroke-width: 1.2; stroke-linecap: round"/>
    </g>
    <g id="text_34">
     <!-- fuzzer_global -->
     <g style="fill: #262626" transform="translate(299.671 502.645125)scale(0.088 -0.088)">
      <defs>
       <path id="DejaVuSans-5f" d="M 3263 -1063 
L 3263 -1509 
L -63 -1509 
L -63 -1063 
L 3263 -1063 
z
" transform="scale(0.015625)"/>
       <path id="DejaVuSans-62" d="M 3116 1747 
Q 3116 2381 2855 2742 
Q 2594 3103 2138 3103 
Q 1681 3103 1420 2742 
Q 1159 2381 1159 1747 
Q 1159 1113 1420 752 
Q 1681 391 2138 391 
Q 2594 391 2855 752 
Q 3116 1113 3116 1747 
z
M 1159 2969 
Q 1341 3281 1617 3432 
Q 1894 3584 2278 3584 
Q 2916 3584 3314 3078 
Q 3713 2572 3713 1747 
Q 3713 922 3314 415 
Q 2916 -91 2278 -91 
Q 1894 -91 1617 61 
Q 1341 213 1159 525 
L 1159 0 
L 581 0 
L 581 4863 
L 1159 4863 
L 1159 2969 
z
" transform="scale(0.015625)"/>
      </defs>
      <use xlink:href="#DejaVuSans-66"/>
      <use xlink:href="#DejaVuSans-75" x="35.205078"/>
      <use xlink:href="#DejaVuSans-7a" x="98.583984"/>
      <use xlink:href="#DejaVuSans-7a" x="151.074219"/>
      <use xlink:href="#DejaVuSans-65" x="203.564453"/>
      <use xlink:href="#DejaVuSans-72" x="265.087891"/>
      <use xlink:href="#DejaVuSans-5f" x="306.201172"/>
      <use xlink:href="#DejaVuSans-67" x="356.201172"/>
      <use xlink:href="#DejaVuSans-6c" x="419.677734"/>
      <use xlink:href="#DejaVuSans-6f" x="447.460938"/>
      <use xlink:href="#DejaVuSans-62" x="508.642578"/>
      <use xlink:href="#DejaVuSans-61" x="572.119141"/>
      <use xlink:href="#DejaVuSans-6c" x="633.398438"/>
     </g>
    </g>
   </g>
  </g>
 </g>
 <defs>
  <clipPath id="p52e83a3e7f">
   <rect x="54.3" y="69.12" width="336.66" height="443.52"/>
  </clipPath>
 </defs>
</svg>
