<?xml version="1.0" encoding="utf-8" standalone="no"?>
<!DOCTYPE svg PUBLIC "-//W3C//DTD SVG 1.1//EN"
  "http://www.w3.org/Graphics/SVG/1.1/DTD/svg11.dtd">
<svg xmlns:xlink="http://www.w3.org/1999/xlink" width="434.7pt" height="576pt" viewBox="0 0 434.7 576" xmlns="http://www.w3.org/2000/svg" version="1.1">
 <metadata>
  <rdf:RDF xmlns:dc="http://purl.org/dc/elements/1.1/" xmlns:cc="http://creativecommons.org/ns#" xmlns:rdf="http://www.w3.org/1999/02/22-rdf-syntax-ns#">
   <cc:Work>
    <dc:type rdf:resource="http://purl.org/dc/dcmitype/StillImage"/>
    <dc:date>2022-09-15T08:48:15.309983</dc:date>
    <dc:format>image/svg+xml</dc:format>
    <dc:creator>
     <cc:Agent>
      <dc:title>Matplotlib v3.5.3, https://matplotlib.org/</dc:title>
     </cc:Agent>
    </dc:creator>
   </cc:Work>
  </rdf:RDF>
 </metadata>
 <defs>
  <style type="text/css">*{stroke-linejoin: round; stroke-linecap: butt}</style>
 </defs>
 <g id="figure_1">
  <g id="patch_1">
   <path d="M 0 576 
L 434.7 576 
L 434.7 0 
L 0 0 
z
" style="fill: #ffffff"/>
  </g>
  <g id="axes_1">
   <g id="patch_2">
    <path d="M 54.3375 512.64 
L 391.23 512.64 
L 391.23 69.12 
L 54.3375 69.12 
z
" style="fill: #ffffff"/>
   </g>
   <g id="matplotlib.axis_1">
    <g id="xtick_1">
     <g id="line2d_1">
      <path d="M 69.650795 512.64 
L 69.650795 69.12 
" clip-path="url(#p5a43ee3201)" style="fill: none; stroke: #cccccc; stroke-width: 0.8; stroke-linecap: round"/>
     </g>
     <g id="text_1">
      <!-- 0 -->
      <g style="fill: #262626" transform="translate(69.388282 529.627249)rotate(-45)scale(0.088 -0.088)">
       <defs>
        <path id="DejaVuSans-30" d="M 2034 4250 
Q 1547 4250 1301 3770 
Q 1056 3291 1056 2328 
Q 1056 1369 1301 889 
Q 1547 409 2034 409 
Q 2525 409 2770 889 
Q 3016 1369 3016 2328 
Q 3016 3291 2770 3770 
Q 2525 4250 2034 4250 
z
M 2034 4750 
Q 2819 4750 3233 4129 
Q 3647 3509 3647 2328 
Q 3647 1150 3233 529 
Q 2819 -91 2034 -91 
Q 1250 -91 836 529 
Q 422 1150 422 2328 
Q 422 3509 836 4129 
Q 1250 4750 2034 4750 
z
" transform="scale(0.015625)"/>
       </defs>
       <use xlink:href="#DejaVuSans-30"/>
      </g>
     </g>
    </g>
    <g id="xtick_2">
     <g id="line2d_2">
      <path d="M 86.677392 512.64 
L 86.677392 69.12 
" clip-path="url(#p5a43ee3201)" style="fill: none; stroke: #cccccc; stroke-width: 0.8; stroke-linecap: round"/>
     </g>
     <g id="text_2">
      <!-- 80 -->
      <g style="fill: #262626" transform="translate(84.435333 533.58634)rotate(-45)scale(0.088 -0.088)">
       <defs>
        <path id="DejaVuSans-38" d="M 2034 2216 
Q 1584 2216 1326 1975 
Q 1069 1734 1069 1313 
Q 1069 891 1326 650 
Q 1584 409 2034 409 
Q 2484 409 2743 651 
Q 3003 894 3003 1313 
Q 3003 1734 2745 1975 
Q 2488 2216 2034 2216 
z
M 1403 2484 
Q 997 2584 770 2862 
Q 544 3141 544 3541 
Q 544 4100 942 4425 
Q 1341 4750 2034 4750 
Q 2731 4750 3128 4425 
Q 3525 4100 3525 3541 
Q 3525 3141 3298 2862 
Q 3072 2584 2669 2484 
Q 3125 2378 3379 2068 
Q 3634 1759 3634 1313 
Q 3634 634 3220 271 
Q 2806 -91 2034 -91 
Q 1263 -91 848 271 
Q 434 634 434 1313 
Q 434 1759 690 2068 
Q 947 2378 1403 2484 
z
M 1172 3481 
Q 1172 3119 1398 2916 
Q 1625 2713 2034 2713 
Q 2441 2713 2670 2916 
Q 2900 3119 2900 3481 
Q 2900 3844 2670 4047 
Q 2441 4250 2034 4250 
Q 1625 4250 1398 4047 
Q 1172 3844 1172 3481 
z
" transform="scale(0.015625)"/>
       </defs>
       <use xlink:href="#DejaVuSans-38"/>
       <use xlink:href="#DejaVuSans-30" x="63.623047"/>
      </g>
     </g>
    </g>
    <g id="xtick_3">
     <g id="line2d_3">
      <path d="M 103.703989 512.64 
L 103.703989 69.12 
" clip-path="url(#p5a43ee3201)" style="fill: none; stroke: #cccccc; stroke-width: 0.8; stroke-linecap: round"/>
     </g>
     <g id="text_3">
      <!-- 160 -->
      <g style="fill: #262626" transform="translate(99.482385 537.54543)rotate(-45)scale(0.088 -0.088)">
       <defs>
        <path id="DejaVuSans-31" d="M 794 531 
L 1825 531 
L 1825 4091 
L 703 3866 
L 703 4441 
L 1819 4666 
L 2450 4666 
L 2450 531 
L 3481 531 
L 3481 0 
L 794 0 
L 794 531 
z
" transform="scale(0.015625)"/>
        <path id="DejaVuSans-36" d="M 2113 2584 
Q 1688 2584 1439 2293 
Q 1191 2003 1191 1497 
Q 1191 994 1439 701 
Q 1688 409 2113 409 
Q 2538 409 2786 701 
Q 3034 994 3034 1497 
Q 3034 2003 2786 2293 
Q 2538 2584 2113 2584 
z
M 3366 4563 
L 3366 3988 
Q 3128 4100 2886 4159 
Q 2644 4219 2406 4219 
Q 1781 4219 1451 3797 
Q 1122 3375 1075 2522 
Q 1259 2794 1537 2939 
Q 1816 3084 2150 3084 
Q 2853 3084 3261 2657 
Q 3669 2231 3669 1497 
Q 3669 778 3244 343 
Q 2819 -91 2113 -91 
Q 1303 -91 875 529 
Q 447 1150 447 2328 
Q 447 3434 972 4092 
Q 1497 4750 2381 4750 
Q 2619 4750 2861 4703 
Q 3103 4656 3366 4563 
z
" transform="scale(0.015625)"/>
       </defs>
       <use xlink:href="#DejaVuSans-31"/>
       <use xlink:href="#DejaVuSans-36" x="63.623047"/>
       <use xlink:href="#DejaVuSans-30" x="127.246094"/>
      </g>
     </g>
    </g>
    <g id="xtick_4">
     <g id="line2d_4">
      <path d="M 120.730586 512.64 
L 120.730586 69.12 
" clip-path="url(#p5a43ee3201)" style="fill: none; stroke: #cccccc; stroke-width: 0.8; stroke-linecap: round"/>
     </g>
     <g id="text_4">
      <!-- 240 -->
      <g style="fill: #262626" transform="translate(116.508981 537.54543)rotate(-45)scale(0.088 -0.088)">
       <defs>
        <path id="DejaVuSans-32" d="M 1228 531 
L 3431 531 
L 3431 0 
L 469 0 
L 469 531 
Q 828 903 1448 1529 
Q 2069 2156 2228 2338 
Q 2531 2678 2651 2914 
Q 2772 3150 2772 3378 
Q 2772 3750 2511 3984 
Q 2250 4219 1831 4219 
Q 1534 4219 1204 4116 
Q 875 4013 500 3803 
L 500 4441 
Q 881 4594 1212 4672 
Q 1544 4750 1819 4750 
Q 2544 4750 2975 4387 
Q 3406 4025 3406 3419 
Q 3406 3131 3298 2873 
Q 3191 2616 2906 2266 
Q 2828 2175 2409 1742 
Q 1991 1309 1228 531 
z
" transform="scale(0.015625)"/>
        <path id="DejaVuSans-34" d="M 2419 4116 
L 825 1625 
L 2419 1625 
L 2419 4116 
z
M 2253 4666 
L 3047 4666 
L 3047 1625 
L 3713 1625 
L 3713 1100 
L 3047 1100 
L 3047 0 
L 2419 0 
L 2419 1100 
L 313 1100 
L 313 1709 
L 2253 4666 
z
" transform="scale(0.015625)"/>
       </defs>
       <use xlink:href="#DejaVuSans-32"/>
       <use xlink:href="#DejaVuSans-34" x="63.623047"/>
       <use xlink:href="#DejaVuSans-30" x="127.246094"/>
      </g>
     </g>
    </g>
    <g id="xtick_5">
     <g id="line2d_5">
      <path d="M 137.757182 512.64 
L 137.757182 69.12 
" clip-path="url(#p5a43ee3201)" style="fill: none; stroke: #cccccc; stroke-width: 0.8; stroke-linecap: round"/>
     </g>
     <g id="text_5">
      <!-- 320 -->
      <g style="fill: #262626" transform="translate(133.535578 537.54543)rotate(-45)scale(0.088 -0.088)">
       <defs>
        <path id="DejaVuSans-33" d="M 2597 2516 
Q 3050 2419 3304 2112 
Q 3559 1806 3559 1356 
Q 3559 666 3084 287 
Q 2609 -91 1734 -91 
Q 1441 -91 1130 -33 
Q 819 25 488 141 
L 488 750 
Q 750 597 1062 519 
Q 1375 441 1716 441 
Q 2309 441 2620 675 
Q 2931 909 2931 1356 
Q 2931 1769 2642 2001 
Q 2353 2234 1838 2234 
L 1294 2234 
L 1294 2753 
L 1863 2753 
Q 2328 2753 2575 2939 
Q 2822 3125 2822 3475 
Q 2822 3834 2567 4026 
Q 2313 4219 1838 4219 
Q 1578 4219 1281 4162 
Q 984 4106 628 3988 
L 628 4550 
Q 988 4650 1302 4700 
Q 1616 4750 1894 4750 
Q 2613 4750 3031 4423 
Q 3450 4097 3450 3541 
Q 3450 3153 3228 2886 
Q 3006 2619 2597 2516 
z
" transform="scale(0.015625)"/>
       </defs>
       <use xlink:href="#DejaVuSans-33"/>
       <use xlink:href="#DejaVuSans-32" x="63.623047"/>
       <use xlink:href="#DejaVuSans-30" x="127.246094"/>
      </g>
     </g>
    </g>
    <g id="xtick_6">
     <g id="line2d_6">
      <path d="M 154.783779 512.64 
L 154.783779 69.12 
" clip-path="url(#p5a43ee3201)" style="fill: none; stroke: #cccccc; stroke-width: 0.8; stroke-linecap: round"/>
     </g>
     <g id="text_6">
      <!-- 400 -->
      <g style="fill: #262626" transform="translate(150.562175 537.54543)rotate(-45)scale(0.088 -0.088)">
       <use xlink:href="#DejaVuSans-34"/>
       <use xlink:href="#DejaVuSans-30" x="63.623047"/>
       <use xlink:href="#DejaVuSans-30" x="127.246094"/>
      </g>
     </g>
    </g>
    <g id="xtick_7">
     <g id="line2d_7">
      <path d="M 171.810376 512.64 
L 171.810376 69.12 
" clip-path="url(#p5a43ee3201)" style="fill: none; stroke: #cccccc; stroke-width: 0.8; stroke-linecap: round"/>
     </g>
     <g id="text_7">
      <!-- 480 -->
      <g style="fill: #262626" transform="translate(167.588772 537.54543)rotate(-45)scale(0.088 -0.088)">
       <use xlink:href="#DejaVuSans-34"/>
       <use xlink:href="#DejaVuSans-38" x="63.623047"/>
       <use xlink:href="#DejaVuSans-30" x="127.246094"/>
      </g>
     </g>
    </g>
    <g id="xtick_8">
     <g id="line2d_8">
      <path d="M 188.836973 512.64 
L 188.836973 69.12 
" clip-path="url(#p5a43ee3201)" style="fill: none; stroke: #cccccc; stroke-width: 0.8; stroke-linecap: round"/>
     </g>
     <g id="text_8">
      <!-- 560 -->
      <g style="fill: #262626" transform="translate(184.615368 537.54543)rotate(-45)scale(0.088 -0.088)">
       <defs>
        <path id="DejaVuSans-35" d="M 691 4666 
L 3169 4666 
L 3169 4134 
L 1269 4134 
L 1269 2991 
Q 1406 3038 1543 3061 
Q 1681 3084 1819 3084 
Q 2600 3084 3056 2656 
Q 3513 2228 3513 1497 
Q 3513 744 3044 326 
Q 2575 -91 1722 -91 
Q 1428 -91 1123 -41 
Q 819 9 494 109 
L 494 744 
Q 775 591 1075 516 
Q 1375 441 1709 441 
Q 2250 441 2565 725 
Q 2881 1009 2881 1497 
Q 2881 1984 2565 2268 
Q 2250 2553 1709 2553 
Q 1456 2553 1204 2497 
Q 953 2441 691 2322 
L 691 4666 
z
" transform="scale(0.015625)"/>
       </defs>
       <use xlink:href="#DejaVuSans-35"/>
       <use xlink:href="#DejaVuSans-36" x="63.623047"/>
       <use xlink:href="#DejaVuSans-30" x="127.246094"/>
      </g>
     </g>
    </g>
    <g id="xtick_9">
     <g id="line2d_9">
      <path d="M 205.863569 512.64 
L 205.863569 69.12 
" clip-path="url(#p5a43ee3201)" style="fill: none; stroke: #cccccc; stroke-width: 0.8; stroke-linecap: round"/>
     </g>
     <g id="text_9">
      <!-- 640 -->
      <g style="fill: #262626" transform="translate(201.641965 537.54543)rotate(-45)scale(0.088 -0.088)">
       <use xlink:href="#DejaVuSans-36"/>
       <use xlink:href="#DejaVuSans-34" x="63.623047"/>
       <use xlink:href="#DejaVuSans-30" x="127.246094"/>
      </g>
     </g>
    </g>
    <g id="xtick_10">
     <g id="line2d_10">
      <path d="M 222.890166 512.64 
L 222.890166 69.12 
" clip-path="url(#p5a43ee3201)" style="fill: none; stroke: #cccccc; stroke-width: 0.8; stroke-linecap: round"/>
     </g>
     <g id="text_10">
      <!-- 720 -->
      <g style="fill: #262626" transform="translate(218.668562 537.54543)rotate(-45)scale(0.088 -0.088)">
       <defs>
        <path id="DejaVuSans-37" d="M 525 4666 
L 3525 4666 
L 3525 4397 
L 1831 0 
L 1172 0 
L 2766 4134 
L 525 4134 
L 525 4666 
z
" transform="scale(0.015625)"/>
       </defs>
       <use xlink:href="#DejaVuSans-37"/>
       <use xlink:href="#DejaVuSans-32" x="63.623047"/>
       <use xlink:href="#DejaVuSans-30" x="127.246094"/>
      </g>
     </g>
    </g>
    <g id="xtick_11">
     <g id="line2d_11">
      <path d="M 239.916763 512.64 
L 239.916763 69.12 
" clip-path="url(#p5a43ee3201)" style="fill: none; stroke: #cccccc; stroke-width: 0.8; stroke-linecap: round"/>
     </g>
     <g id="text_11">
      <!-- 800 -->
      <g style="fill: #262626" transform="translate(235.695159 537.54543)rotate(-45)scale(0.088 -0.088)">
       <use xlink:href="#DejaVuSans-38"/>
       <use xlink:href="#DejaVuSans-30" x="63.623047"/>
       <use xlink:href="#DejaVuSans-30" x="127.246094"/>
      </g>
     </g>
    </g>
    <g id="xtick_12">
     <g id="line2d_12">
      <path d="M 256.94336 512.64 
L 256.94336 69.12 
" clip-path="url(#p5a43ee3201)" style="fill: none; stroke: #cccccc; stroke-width: 0.8; stroke-linecap: round"/>
     </g>
     <g id="text_12">
      <!-- 880 -->
      <g style="fill: #262626" transform="translate(252.721755 537.54543)rotate(-45)scale(0.088 -0.088)">
       <use xlink:href="#DejaVuSans-38"/>
       <use xlink:href="#DejaVuSans-38" x="63.623047"/>
       <use xlink:href="#DejaVuSans-30" x="127.246094"/>
      </g>
     </g>
    </g>
    <g id="xtick_13">
     <g id="line2d_13">
      <path d="M 273.969956 512.64 
L 273.969956 69.12 
" clip-path="url(#p5a43ee3201)" style="fill: none; stroke: #cccccc; stroke-width: 0.8; stroke-linecap: round"/>
     </g>
     <g id="text_13">
      <!-- 960 -->
      <g style="fill: #262626" transform="translate(269.748352 537.54543)rotate(-45)scale(0.088 -0.088)">
       <defs>
        <path id="DejaVuSans-39" d="M 703 97 
L 703 672 
Q 941 559 1184 500 
Q 1428 441 1663 441 
Q 2288 441 2617 861 
Q 2947 1281 2994 2138 
Q 2813 1869 2534 1725 
Q 2256 1581 1919 1581 
Q 1219 1581 811 2004 
Q 403 2428 403 3163 
Q 403 3881 828 4315 
Q 1253 4750 1959 4750 
Q 2769 4750 3195 4129 
Q 3622 3509 3622 2328 
Q 3622 1225 3098 567 
Q 2575 -91 1691 -91 
Q 1453 -91 1209 -44 
Q 966 3 703 97 
z
M 1959 2075 
Q 2384 2075 2632 2365 
Q 2881 2656 2881 3163 
Q 2881 3666 2632 3958 
Q 2384 4250 1959 4250 
Q 1534 4250 1286 3958 
Q 1038 3666 1038 3163 
Q 1038 2656 1286 2365 
Q 1534 2075 1959 2075 
z
" transform="scale(0.015625)"/>
       </defs>
       <use xlink:href="#DejaVuSans-39"/>
       <use xlink:href="#DejaVuSans-36" x="63.623047"/>
       <use xlink:href="#DejaVuSans-30" x="127.246094"/>
      </g>
     </g>
    </g>
    <g id="xtick_14">
     <g id="line2d_14">
      <path d="M 290.996553 512.64 
L 290.996553 69.12 
" clip-path="url(#p5a43ee3201)" style="fill: none; stroke: #cccccc; stroke-width: 0.8; stroke-linecap: round"/>
     </g>
     <g id="text_14">
      <!-- 1040 -->
      <g style="fill: #262626" transform="translate(284.795404 541.504521)rotate(-45)scale(0.088 -0.088)">
       <use xlink:href="#DejaVuSans-31"/>
       <use xlink:href="#DejaVuSans-30" x="63.623047"/>
       <use xlink:href="#DejaVuSans-34" x="127.246094"/>
       <use xlink:href="#DejaVuSans-30" x="190.869141"/>
      </g>
     </g>
    </g>
    <g id="xtick_15">
     <g id="line2d_15">
      <path d="M 308.02315 512.64 
L 308.02315 69.12 
" clip-path="url(#p5a43ee3201)" style="fill: none; stroke: #cccccc; stroke-width: 0.8; stroke-linecap: round"/>
     </g>
     <g id="text_15">
      <!-- 1120 -->
      <g style="fill: #262626" transform="translate(301.822 541.504521)rotate(-45)scale(0.088 -0.088)">
       <use xlink:href="#DejaVuSans-31"/>
       <use xlink:href="#DejaVuSans-31" x="63.623047"/>
       <use xlink:href="#DejaVuSans-32" x="127.246094"/>
       <use xlink:href="#DejaVuSans-30" x="190.869141"/>
      </g>
     </g>
    </g>
    <g id="xtick_16">
     <g id="line2d_16">
      <path d="M 325.049747 512.64 
L 325.049747 69.12 
" clip-path="url(#p5a43ee3201)" style="fill: none; stroke: #cccccc; stroke-width: 0.8; stroke-linecap: round"/>
     </g>
     <g id="text_16">
      <!-- 1200 -->
      <g style="fill: #262626" transform="translate(318.848597 541.504521)rotate(-45)scale(0.088 -0.088)">
       <use xlink:href="#DejaVuSans-31"/>
       <use xlink:href="#DejaVuSans-32" x="63.623047"/>
       <use xlink:href="#DejaVuSans-30" x="127.246094"/>
       <use xlink:href="#DejaVuSans-30" x="190.869141"/>
      </g>
     </g>
    </g>
    <g id="xtick_17">
     <g id="line2d_17">
      <path d="M 342.076343 512.64 
L 342.076343 69.12 
" clip-path="url(#p5a43ee3201)" style="fill: none; stroke: #cccccc; stroke-width: 0.8; stroke-linecap: round"/>
     </g>
     <g id="text_17">
      <!-- 1280 -->
      <g style="fill: #262626" transform="translate(335.875194 541.504521)rotate(-45)scale(0.088 -0.088)">
       <use xlink:href="#DejaVuSans-31"/>
       <use xlink:href="#DejaVuSans-32" x="63.623047"/>
       <use xlink:href="#DejaVuSans-38" x="127.246094"/>
       <use xlink:href="#DejaVuSans-30" x="190.869141"/>
      </g>
     </g>
    </g>
    <g id="xtick_18">
     <g id="line2d_18">
      <path d="M 359.10294 512.64 
L 359.10294 69.12 
" clip-path="url(#p5a43ee3201)" style="fill: none; stroke: #cccccc; stroke-width: 0.8; stroke-linecap: round"/>
     </g>
     <g id="text_18">
      <!-- 1360 -->
      <g style="fill: #262626" transform="translate(352.901791 541.504521)rotate(-45)scale(0.088 -0.088)">
       <use xlink:href="#DejaVuSans-31"/>
       <use xlink:href="#DejaVuSans-33" x="63.623047"/>
       <use xlink:href="#DejaVuSans-36" x="127.246094"/>
       <use xlink:href="#DejaVuSans-30" x="190.869141"/>
      </g>
     </g>
    </g>
    <g id="xtick_19">
     <g id="line2d_19">
      <path d="M 376.129537 512.64 
L 376.129537 69.12 
" clip-path="url(#p5a43ee3201)" style="fill: none; stroke: #cccccc; stroke-width: 0.8; stroke-linecap: round"/>
     </g>
     <g id="text_19">
      <!-- 1440 -->
      <g style="fill: #262626" transform="translate(369.928387 541.504521)rotate(-45)scale(0.088 -0.088)">
       <use xlink:href="#DejaVuSans-31"/>
       <use xlink:href="#DejaVuSans-34" x="63.623047"/>
       <use xlink:href="#DejaVuSans-34" x="127.246094"/>
       <use xlink:href="#DejaVuSans-30" x="190.869141"/>
      </g>
     </g>
    </g>
    <g id="text_20">
     <!-- Time (Minutes) -->
     <g style="fill: #262626" transform="translate(186.87375 554.093115)scale(0.096 -0.096)">
      <defs>
       <path id="DejaVuSans-54" d="M -19 4666 
L 3928 4666 
L 3928 4134 
L 2272 4134 
L 2272 0 
L 1638 0 
L 1638 4134 
L -19 4134 
L -19 4666 
z
" transform="scale(0.015625)"/>
       <path id="DejaVuSans-69" d="M 603 3500 
L 1178 3500 
L 1178 0 
L 603 0 
L 603 3500 
z
M 603 4863 
L 1178 4863 
L 1178 4134 
L 603 4134 
L 603 4863 
z
" transform="scale(0.015625)"/>
       <path id="DejaVuSans-6d" d="M 3328 2828 
Q 3544 3216 3844 3400 
Q 4144 3584 4550 3584 
Q 5097 3584 5394 3201 
Q 5691 2819 5691 2113 
L 5691 0 
L 5113 0 
L 5113 2094 
Q 5113 2597 4934 2840 
Q 4756 3084 4391 3084 
Q 3944 3084 3684 2787 
Q 3425 2491 3425 1978 
L 3425 0 
L 2847 0 
L 2847 2094 
Q 2847 2600 2669 2842 
Q 2491 3084 2119 3084 
Q 1678 3084 1418 2786 
Q 1159 2488 1159 1978 
L 1159 0 
L 581 0 
L 581 3500 
L 1159 3500 
L 1159 2956 
Q 1356 3278 1631 3431 
Q 1906 3584 2284 3584 
Q 2666 3584 2933 3390 
Q 3200 3197 3328 2828 
z
" transform="scale(0.015625)"/>
       <path id="DejaVuSans-65" d="M 3597 1894 
L 3597 1613 
L 953 1613 
Q 991 1019 1311 708 
Q 1631 397 2203 397 
Q 2534 397 2845 478 
Q 3156 559 3463 722 
L 3463 178 
Q 3153 47 2828 -22 
Q 2503 -91 2169 -91 
Q 1331 -91 842 396 
Q 353 884 353 1716 
Q 353 2575 817 3079 
Q 1281 3584 2069 3584 
Q 2775 3584 3186 3129 
Q 3597 2675 3597 1894 
z
M 3022 2063 
Q 3016 2534 2758 2815 
Q 2500 3097 2075 3097 
Q 1594 3097 1305 2825 
Q 1016 2553 972 2059 
L 3022 2063 
z
" transform="scale(0.015625)"/>
       <path id="DejaVuSans-20" transform="scale(0.015625)"/>
       <path id="DejaVuSans-28" d="M 1984 4856 
Q 1566 4138 1362 3434 
Q 1159 2731 1159 2009 
Q 1159 1288 1364 580 
Q 1569 -128 1984 -844 
L 1484 -844 
Q 1016 -109 783 600 
Q 550 1309 550 2009 
Q 550 2706 781 3412 
Q 1013 4119 1484 4856 
L 1984 4856 
z
" transform="scale(0.015625)"/>
       <path id="DejaVuSans-4d" d="M 628 4666 
L 1569 4666 
L 2759 1491 
L 3956 4666 
L 4897 4666 
L 4897 0 
L 4281 0 
L 4281 4097 
L 3078 897 
L 2444 897 
L 1241 4097 
L 1241 0 
L 628 0 
L 628 4666 
z
" transform="scale(0.015625)"/>
       <path id="DejaVuSans-6e" d="M 3513 2113 
L 3513 0 
L 2938 0 
L 2938 2094 
Q 2938 2591 2744 2837 
Q 2550 3084 2163 3084 
Q 1697 3084 1428 2787 
Q 1159 2491 1159 1978 
L 1159 0 
L 581 0 
L 581 3500 
L 1159 3500 
L 1159 2956 
Q 1366 3272 1645 3428 
Q 1925 3584 2291 3584 
Q 2894 3584 3203 3211 
Q 3513 2838 3513 2113 
z
" transform="scale(0.015625)"/>
       <path id="DejaVuSans-75" d="M 544 1381 
L 544 3500 
L 1119 3500 
L 1119 1403 
Q 1119 906 1312 657 
Q 1506 409 1894 409 
Q 2359 409 2629 706 
Q 2900 1003 2900 1516 
L 2900 3500 
L 3475 3500 
L 3475 0 
L 2900 0 
L 2900 538 
Q 2691 219 2414 64 
Q 2138 -91 1772 -91 
Q 1169 -91 856 284 
Q 544 659 544 1381 
z
M 1991 3584 
L 1991 3584 
z
" transform="scale(0.015625)"/>
       <path id="DejaVuSans-74" d="M 1172 4494 
L 1172 3500 
L 2356 3500 
L 2356 3053 
L 1172 3053 
L 1172 1153 
Q 1172 725 1289 603 
Q 1406 481 1766 481 
L 2356 481 
L 2356 0 
L 1766 0 
Q 1100 0 847 248 
Q 594 497 594 1153 
L 594 3053 
L 172 3053 
L 172 3500 
L 594 3500 
L 594 4494 
L 1172 4494 
z
" transform="scale(0.015625)"/>
       <path id="DejaVuSans-73" d="M 2834 3397 
L 2834 2853 
Q 2591 2978 2328 3040 
Q 2066 3103 1784 3103 
Q 1356 3103 1142 2972 
Q 928 2841 928 2578 
Q 928 2378 1081 2264 
Q 1234 2150 1697 2047 
L 1894 2003 
Q 2506 1872 2764 1633 
Q 3022 1394 3022 966 
Q 3022 478 2636 193 
Q 2250 -91 1575 -91 
Q 1294 -91 989 -36 
Q 684 19 347 128 
L 347 722 
Q 666 556 975 473 
Q 1284 391 1588 391 
Q 1994 391 2212 530 
Q 2431 669 2431 922 
Q 2431 1156 2273 1281 
Q 2116 1406 1581 1522 
L 1381 1569 
Q 847 1681 609 1914 
Q 372 2147 372 2553 
Q 372 3047 722 3315 
Q 1072 3584 1716 3584 
Q 2034 3584 2315 3537 
Q 2597 3491 2834 3397 
z
" transform="scale(0.015625)"/>
       <path id="DejaVuSans-29" d="M 513 4856 
L 1013 4856 
Q 1481 4119 1714 3412 
Q 1947 2706 1947 2009 
Q 1947 1309 1714 600 
Q 1481 -109 1013 -844 
L 513 -844 
Q 928 -128 1133 580 
Q 1338 1288 1338 2009 
Q 1338 2731 1133 3434 
Q 928 4138 513 4856 
z
" transform="scale(0.015625)"/>
      </defs>
      <use xlink:href="#DejaVuSans-54"/>
      <use xlink:href="#DejaVuSans-69" x="57.958984"/>
      <use xlink:href="#DejaVuSans-6d" x="85.742188"/>
      <use xlink:href="#DejaVuSans-65" x="183.154297"/>
      <use xlink:href="#DejaVuSans-20" x="244.677734"/>
      <use xlink:href="#DejaVuSans-28" x="276.464844"/>
      <use xlink:href="#DejaVuSans-4d" x="315.478516"/>
      <use xlink:href="#DejaVuSans-69" x="401.757812"/>
      <use xlink:href="#DejaVuSans-6e" x="429.541016"/>
      <use xlink:href="#DejaVuSans-75" x="492.919922"/>
      <use xlink:href="#DejaVuSans-74" x="556.298828"/>
      <use xlink:href="#DejaVuSans-65" x="595.507812"/>
      <use xlink:href="#DejaVuSans-73" x="657.03125"/>
      <use xlink:href="#DejaVuSans-29" x="709.130859"/>
     </g>
    </g>
   </g>
   <g id="matplotlib.axis_2">
    <g id="ytick_1">
     <g id="line2d_20">
      <path d="M 54.3375 492.48 
L 391.23 492.48 
" clip-path="url(#p5a43ee3201)" style="fill: none; stroke: #cccccc; stroke-width: 0.8; stroke-linecap: round"/>
     </g>
     <g id="text_21">
      <!-- 0 -->
      <g style="fill: #262626" transform="translate(40.4385 495.823312)scale(0.088 -0.088)">
       <use xlink:href="#DejaVuSans-30"/>
      </g>
     </g>
    </g>
    <g id="ytick_2">
     <g id="line2d_21">
      <path d="M 54.3375 476.511683 
L 391.23 476.511683 
" clip-path="url(#p5a43ee3201)" style="fill: none; stroke: #cccccc; stroke-width: 0.8; stroke-linecap: round"/>
     </g>
     <g id="text_22">
      <!-- 100 -->
      <g style="fill: #262626" transform="translate(29.2405 479.854996)scale(0.088 -0.088)">
       <use xlink:href="#DejaVuSans-31"/>
       <use xlink:href="#DejaVuSans-30" x="63.623047"/>
       <use xlink:href="#DejaVuSans-30" x="127.246094"/>
      </g>
     </g>
    </g>
    <g id="ytick_3">
     <g id="line2d_22">
      <path d="M 54.3375 460.543366 
L 391.23 460.543366 
" clip-path="url(#p5a43ee3201)" style="fill: none; stroke: #cccccc; stroke-width: 0.8; stroke-linecap: round"/>
     </g>
     <g id="text_23">
      <!-- 200 -->
      <g style="fill: #262626" transform="translate(29.2405 463.886679)scale(0.088 -0.088)">
       <use xlink:href="#DejaVuSans-32"/>
       <use xlink:href="#DejaVuSans-30" x="63.623047"/>
       <use xlink:href="#DejaVuSans-30" x="127.246094"/>
      </g>
     </g>
    </g>
    <g id="ytick_4">
     <g id="line2d_23">
      <path d="M 54.3375 444.57505 
L 391.23 444.57505 
" clip-path="url(#p5a43ee3201)" style="fill: none; stroke: #cccccc; stroke-width: 0.8; stroke-linecap: round"/>
     </g>
     <g id="text_24">
      <!-- 300 -->
      <g style="fill: #262626" transform="translate(29.2405 447.918362)scale(0.088 -0.088)">
       <use xlink:href="#DejaVuSans-33"/>
       <use xlink:href="#DejaVuSans-30" x="63.623047"/>
       <use xlink:href="#DejaVuSans-30" x="127.246094"/>
      </g>
     </g>
    </g>
    <g id="ytick_5">
     <g id="line2d_24">
      <path d="M 54.3375 428.606733 
L 391.23 428.606733 
" clip-path="url(#p5a43ee3201)" style="fill: none; stroke: #cccccc; stroke-width: 0.8; stroke-linecap: round"/>
     </g>
     <g id="text_25">
      <!-- 400 -->
      <g style="fill: #262626" transform="translate(29.2405 431.950045)scale(0.088 -0.088)">
       <use xlink:href="#DejaVuSans-34"/>
       <use xlink:href="#DejaVuSans-30" x="63.623047"/>
       <use xlink:href="#DejaVuSans-30" x="127.246094"/>
      </g>
     </g>
    </g>
    <g id="ytick_6">
     <g id="line2d_25">
      <path d="M 54.3375 412.638416 
L 391.23 412.638416 
" clip-path="url(#p5a43ee3201)" style="fill: none; stroke: #cccccc; stroke-width: 0.8; stroke-linecap: round"/>
     </g>
     <g id="text_26">
      <!-- 500 -->
      <g style="fill: #262626" transform="translate(29.2405 415.981728)scale(0.088 -0.088)">
       <use xlink:href="#DejaVuSans-35"/>
       <use xlink:href="#DejaVuSans-30" x="63.623047"/>
       <use xlink:href="#DejaVuSans-30" x="127.246094"/>
      </g>
     </g>
    </g>
    <g id="ytick_7">
     <g id="line2d_26">
      <path d="M 54.3375 396.670099 
L 391.23 396.670099 
" clip-path="url(#p5a43ee3201)" style="fill: none; stroke: #cccccc; stroke-width: 0.8; stroke-linecap: round"/>
     </g>
     <g id="text_27">
      <!-- 600 -->
      <g style="fill: #262626" transform="translate(29.2405 400.013412)scale(0.088 -0.088)">
       <use xlink:href="#DejaVuSans-36"/>
       <use xlink:href="#DejaVuSans-30" x="63.623047"/>
       <use xlink:href="#DejaVuSans-30" x="127.246094"/>
      </g>
     </g>
    </g>
    <g id="ytick_8">
     <g id="line2d_27">
      <path d="M 54.3375 380.701782 
L 391.23 380.701782 
" clip-path="url(#p5a43ee3201)" style="fill: none; stroke: #cccccc; stroke-width: 0.8; stroke-linecap: round"/>
     </g>
     <g id="text_28">
      <!-- 700 -->
      <g style="fill: #262626" transform="translate(29.2405 384.045095)scale(0.088 -0.088)">
       <use xlink:href="#DejaVuSans-37"/>
       <use xlink:href="#DejaVuSans-30" x="63.623047"/>
       <use xlink:href="#DejaVuSans-30" x="127.246094"/>
      </g>
     </g>
    </g>
    <g id="ytick_9">
     <g id="line2d_28">
      <path d="M 54.3375 364.733465 
L 391.23 364.733465 
" clip-path="url(#p5a43ee3201)" style="fill: none; stroke: #cccccc; stroke-width: 0.8; stroke-linecap: round"/>
     </g>
     <g id="text_29">
      <!-- 800 -->
      <g style="fill: #262626" transform="translate(29.2405 368.076778)scale(0.088 -0.088)">
       <use xlink:href="#DejaVuSans-38"/>
       <use xlink:href="#DejaVuSans-30" x="63.623047"/>
       <use xlink:href="#DejaVuSans-30" x="127.246094"/>
      </g>
     </g>
    </g>
    <g id="ytick_10">
     <g id="line2d_29">
      <path d="M 54.3375 348.765149 
L 391.23 348.765149 
" clip-path="url(#p5a43ee3201)" style="fill: none; stroke: #cccccc; stroke-width: 0.8; stroke-linecap: round"/>
     </g>
     <g id="text_30">
      <!-- 900 -->
      <g style="fill: #262626" transform="translate(29.2405 352.108461)scale(0.088 -0.088)">
       <use xlink:href="#DejaVuSans-39"/>
       <use xlink:href="#DejaVuSans-30" x="63.623047"/>
       <use xlink:href="#DejaVuSans-30" x="127.246094"/>
      </g>
     </g>
    </g>
    <g id="ytick_11">
     <g id="line2d_30">
      <path d="M 54.3375 332.796832 
L 391.23 332.796832 
" clip-path="url(#p5a43ee3201)" style="fill: none; stroke: #cccccc; stroke-width: 0.8; stroke-linecap: round"/>
     </g>
     <g id="text_31">
      <!-- 1000 -->
      <g style="fill: #262626" transform="translate(23.6415 336.140144)scale(0.088 -0.088)">
       <use xlink:href="#DejaVuSans-31"/>
       <use xlink:href="#DejaVuSans-30" x="63.623047"/>
       <use xlink:href="#DejaVuSans-30" x="127.246094"/>
       <use xlink:href="#DejaVuSans-30" x="190.869141"/>
      </g>
     </g>
    </g>
    <g id="ytick_12">
     <g id="line2d_31">
      <path d="M 54.3375 316.828515 
L 391.23 316.828515 
" clip-path="url(#p5a43ee3201)" style="fill: none; stroke: #cccccc; stroke-width: 0.8; stroke-linecap: round"/>
     </g>
     <g id="text_32">
      <!-- 1100 -->
      <g style="fill: #262626" transform="translate(23.6415 320.171827)scale(0.088 -0.088)">
       <use xlink:href="#DejaVuSans-31"/>
       <use xlink:href="#DejaVuSans-31" x="63.623047"/>
       <use xlink:href="#DejaVuSans-30" x="127.246094"/>
       <use xlink:href="#DejaVuSans-30" x="190.869141"/>
      </g>
     </g>
    </g>
    <g id="ytick_13">
     <g id="line2d_32">
      <path d="M 54.3375 300.860198 
L 391.23 300.860198 
" clip-path="url(#p5a43ee3201)" style="fill: none; stroke: #cccccc; stroke-width: 0.8; stroke-linecap: round"/>
     </g>
     <g id="text_33">
      <!-- 1200 -->
      <g style="fill: #262626" transform="translate(23.6415 304.203511)scale(0.088 -0.088)">
       <use xlink:href="#DejaVuSans-31"/>
       <use xlink:href="#DejaVuSans-32" x="63.623047"/>
       <use xlink:href="#DejaVuSans-30" x="127.246094"/>
       <use xlink:href="#DejaVuSans-30" x="190.869141"/>
      </g>
     </g>
    </g>
    <g id="ytick_14">
     <g id="line2d_33">
      <path d="M 54.3375 284.891881 
L 391.23 284.891881 
" clip-path="url(#p5a43ee3201)" style="fill: none; stroke: #cccccc; stroke-width: 0.8; stroke-linecap: round"/>
     </g>
     <g id="text_34">
      <!-- 1300 -->
      <g style="fill: #262626" transform="translate(23.6415 288.235194)scale(0.088 -0.088)">
       <use xlink:href="#DejaVuSans-31"/>
       <use xlink:href="#DejaVuSans-33" x="63.623047"/>
       <use xlink:href="#DejaVuSans-30" x="127.246094"/>
       <use xlink:href="#DejaVuSans-30" x="190.869141"/>
      </g>
     </g>
    </g>
    <g id="ytick_15">
     <g id="line2d_34">
      <path d="M 54.3375 268.923564 
L 391.23 268.923564 
" clip-path="url(#p5a43ee3201)" style="fill: none; stroke: #cccccc; stroke-width: 0.8; stroke-linecap: round"/>
     </g>
     <g id="text_35">
      <!-- 1400 -->
      <g style="fill: #262626" transform="translate(23.6415 272.266877)scale(0.088 -0.088)">
       <use xlink:href="#DejaVuSans-31"/>
       <use xlink:href="#DejaVuSans-34" x="63.623047"/>
       <use xlink:href="#DejaVuSans-30" x="127.246094"/>
       <use xlink:href="#DejaVuSans-30" x="190.869141"/>
      </g>
     </g>
    </g>
    <g id="ytick_16">
     <g id="line2d_35">
      <path d="M 54.3375 252.955248 
L 391.23 252.955248 
" clip-path="url(#p5a43ee3201)" style="fill: none; stroke: #cccccc; stroke-width: 0.8; stroke-linecap: round"/>
     </g>
     <g id="text_36">
      <!-- 1500 -->
      <g style="fill: #262626" transform="translate(23.6415 256.29856)scale(0.088 -0.088)">
       <use xlink:href="#DejaVuSans-31"/>
       <use xlink:href="#DejaVuSans-35" x="63.623047"/>
       <use xlink:href="#DejaVuSans-30" x="127.246094"/>
       <use xlink:href="#DejaVuSans-30" x="190.869141"/>
      </g>
     </g>
    </g>
    <g id="ytick_17">
     <g id="line2d_36">
      <path d="M 54.3375 236.986931 
L 391.23 236.986931 
" clip-path="url(#p5a43ee3201)" style="fill: none; stroke: #cccccc; stroke-width: 0.8; stroke-linecap: round"/>
     </g>
     <g id="text_37">
      <!-- 1600 -->
      <g style="fill: #262626" transform="translate(23.6415 240.330243)scale(0.088 -0.088)">
       <use xlink:href="#DejaVuSans-31"/>
       <use xlink:href="#DejaVuSans-36" x="63.623047"/>
       <use xlink:href="#DejaVuSans-30" x="127.246094"/>
       <use xlink:href="#DejaVuSans-30" x="190.869141"/>
      </g>
     </g>
    </g>
    <g id="ytick_18">
     <g id="line2d_37">
      <path d="M 54.3375 221.018614 
L 391.23 221.018614 
" clip-path="url(#p5a43ee3201)" style="fill: none; stroke: #cccccc; stroke-width: 0.8; stroke-linecap: round"/>
     </g>
     <g id="text_38">
      <!-- 1700 -->
      <g style="fill: #262626" transform="translate(23.6415 224.361926)scale(0.088 -0.088)">
       <use xlink:href="#DejaVuSans-31"/>
       <use xlink:href="#DejaVuSans-37" x="63.623047"/>
       <use xlink:href="#DejaVuSans-30" x="127.246094"/>
       <use xlink:href="#DejaVuSans-30" x="190.869141"/>
      </g>
     </g>
    </g>
    <g id="ytick_19">
     <g id="line2d_38">
      <path d="M 54.3375 205.050297 
L 391.23 205.050297 
" clip-path="url(#p5a43ee3201)" style="fill: none; stroke: #cccccc; stroke-width: 0.8; stroke-linecap: round"/>
     </g>
     <g id="text_39">
      <!-- 1800 -->
      <g style="fill: #262626" transform="translate(23.6415 208.39361)scale(0.088 -0.088)">
       <use xlink:href="#DejaVuSans-31"/>
       <use xlink:href="#DejaVuSans-38" x="63.623047"/>
       <use xlink:href="#DejaVuSans-30" x="127.246094"/>
       <use xlink:href="#DejaVuSans-30" x="190.869141"/>
      </g>
     </g>
    </g>
    <g id="ytick_20">
     <g id="line2d_39">
      <path d="M 54.3375 189.08198 
L 391.23 189.08198 
" clip-path="url(#p5a43ee3201)" style="fill: none; stroke: #cccccc; stroke-width: 0.8; stroke-linecap: round"/>
     </g>
     <g id="text_40">
      <!-- 1900 -->
      <g style="fill: #262626" transform="translate(23.6415 192.425293)scale(0.088 -0.088)">
       <use xlink:href="#DejaVuSans-31"/>
       <use xlink:href="#DejaVuSans-39" x="63.623047"/>
       <use xlink:href="#DejaVuSans-30" x="127.246094"/>
       <use xlink:href="#DejaVuSans-30" x="190.869141"/>
      </g>
     </g>
    </g>
    <g id="ytick_21">
     <g id="line2d_40">
      <path d="M 54.3375 173.113663 
L 391.23 173.113663 
" clip-path="url(#p5a43ee3201)" style="fill: none; stroke: #cccccc; stroke-width: 0.8; stroke-linecap: round"/>
     </g>
     <g id="text_41">
      <!-- 2000 -->
      <g style="fill: #262626" transform="translate(23.6415 176.456976)scale(0.088 -0.088)">
       <use xlink:href="#DejaVuSans-32"/>
       <use xlink:href="#DejaVuSans-30" x="63.623047"/>
       <use xlink:href="#DejaVuSans-30" x="127.246094"/>
       <use xlink:href="#DejaVuSans-30" x="190.869141"/>
      </g>
     </g>
    </g>
    <g id="ytick_22">
     <g id="line2d_41">
      <path d="M 54.3375 157.145347 
L 391.23 157.145347 
" clip-path="url(#p5a43ee3201)" style="fill: none; stroke: #cccccc; stroke-width: 0.8; stroke-linecap: round"/>
     </g>
     <g id="text_42">
      <!-- 2100 -->
      <g style="fill: #262626" transform="translate(23.6415 160.488659)scale(0.088 -0.088)">
       <use xlink:href="#DejaVuSans-32"/>
       <use xlink:href="#DejaVuSans-31" x="63.623047"/>
       <use xlink:href="#DejaVuSans-30" x="127.246094"/>
       <use xlink:href="#DejaVuSans-30" x="190.869141"/>
      </g>
     </g>
    </g>
    <g id="ytick_23">
     <g id="line2d_42">
      <path d="M 54.3375 141.17703 
L 391.23 141.17703 
" clip-path="url(#p5a43ee3201)" style="fill: none; stroke: #cccccc; stroke-width: 0.8; stroke-linecap: round"/>
     </g>
     <g id="text_43">
      <!-- 2200 -->
      <g style="fill: #262626" transform="translate(23.6415 144.520342)scale(0.088 -0.088)">
       <use xlink:href="#DejaVuSans-32"/>
       <use xlink:href="#DejaVuSans-32" x="63.623047"/>
       <use xlink:href="#DejaVuSans-30" x="127.246094"/>
       <use xlink:href="#DejaVuSans-30" x="190.869141"/>
      </g>
     </g>
    </g>
    <g id="ytick_24">
     <g id="line2d_43">
      <path d="M 54.3375 125.208713 
L 391.23 125.208713 
" clip-path="url(#p5a43ee3201)" style="fill: none; stroke: #cccccc; stroke-width: 0.8; stroke-linecap: round"/>
     </g>
     <g id="text_44">
      <!-- 2300 -->
      <g style="fill: #262626" transform="translate(23.6415 128.552025)scale(0.088 -0.088)">
       <use xlink:href="#DejaVuSans-32"/>
       <use xlink:href="#DejaVuSans-33" x="63.623047"/>
       <use xlink:href="#DejaVuSans-30" x="127.246094"/>
       <use xlink:href="#DejaVuSans-30" x="190.869141"/>
      </g>
     </g>
    </g>
    <g id="ytick_25">
     <g id="line2d_44">
      <path d="M 54.3375 109.240396 
L 391.23 109.240396 
" clip-path="url(#p5a43ee3201)" style="fill: none; stroke: #cccccc; stroke-width: 0.8; stroke-linecap: round"/>
     </g>
     <g id="text_45">
      <!-- 2400 -->
      <g style="fill: #262626" transform="translate(23.6415 112.583709)scale(0.088 -0.088)">
       <use xlink:href="#DejaVuSans-32"/>
       <use xlink:href="#DejaVuSans-34" x="63.623047"/>
       <use xlink:href="#DejaVuSans-30" x="127.246094"/>
       <use xlink:href="#DejaVuSans-30" x="190.869141"/>
      </g>
     </g>
    </g>
    <g id="ytick_26">
     <g id="line2d_45">
      <path d="M 54.3375 93.272079 
L 391.23 93.272079 
" clip-path="url(#p5a43ee3201)" style="fill: none; stroke: #cccccc; stroke-width: 0.8; stroke-linecap: round"/>
     </g>
     <g id="text_46">
      <!-- 2500 -->
      <g style="fill: #262626" transform="translate(23.6415 96.615392)scale(0.088 -0.088)">
       <use xlink:href="#DejaVuSans-32"/>
       <use xlink:href="#DejaVuSans-35" x="63.623047"/>
       <use xlink:href="#DejaVuSans-30" x="127.246094"/>
       <use xlink:href="#DejaVuSans-30" x="190.869141"/>
      </g>
     </g>
    </g>
    <g id="text_47">
     <!-- Edge Coverages -->
     <g style="fill: #262626" transform="translate(17.645 329.98575)rotate(-90)scale(0.096 -0.096)">
      <defs>
       <path id="DejaVuSans-45" d="M 628 4666 
L 3578 4666 
L 3578 4134 
L 1259 4134 
L 1259 2753 
L 3481 2753 
L 3481 2222 
L 1259 2222 
L 1259 531 
L 3634 531 
L 3634 0 
L 628 0 
L 628 4666 
z
" transform="scale(0.015625)"/>
       <path id="DejaVuSans-64" d="M 2906 2969 
L 2906 4863 
L 3481 4863 
L 3481 0 
L 2906 0 
L 2906 525 
Q 2725 213 2448 61 
Q 2172 -91 1784 -91 
Q 1150 -91 751 415 
Q 353 922 353 1747 
Q 353 2572 751 3078 
Q 1150 3584 1784 3584 
Q 2172 3584 2448 3432 
Q 2725 3281 2906 2969 
z
M 947 1747 
Q 947 1113 1208 752 
Q 1469 391 1925 391 
Q 2381 391 2643 752 
Q 2906 1113 2906 1747 
Q 2906 2381 2643 2742 
Q 2381 3103 1925 3103 
Q 1469 3103 1208 2742 
Q 947 2381 947 1747 
z
" transform="scale(0.015625)"/>
       <path id="DejaVuSans-67" d="M 2906 1791 
Q 2906 2416 2648 2759 
Q 2391 3103 1925 3103 
Q 1463 3103 1205 2759 
Q 947 2416 947 1791 
Q 947 1169 1205 825 
Q 1463 481 1925 481 
Q 2391 481 2648 825 
Q 2906 1169 2906 1791 
z
M 3481 434 
Q 3481 -459 3084 -895 
Q 2688 -1331 1869 -1331 
Q 1566 -1331 1297 -1286 
Q 1028 -1241 775 -1147 
L 775 -588 
Q 1028 -725 1275 -790 
Q 1522 -856 1778 -856 
Q 2344 -856 2625 -561 
Q 2906 -266 2906 331 
L 2906 616 
Q 2728 306 2450 153 
Q 2172 0 1784 0 
Q 1141 0 747 490 
Q 353 981 353 1791 
Q 353 2603 747 3093 
Q 1141 3584 1784 3584 
Q 2172 3584 2450 3431 
Q 2728 3278 2906 2969 
L 2906 3500 
L 3481 3500 
L 3481 434 
z
" transform="scale(0.015625)"/>
       <path id="DejaVuSans-43" d="M 4122 4306 
L 4122 3641 
Q 3803 3938 3442 4084 
Q 3081 4231 2675 4231 
Q 1875 4231 1450 3742 
Q 1025 3253 1025 2328 
Q 1025 1406 1450 917 
Q 1875 428 2675 428 
Q 3081 428 3442 575 
Q 3803 722 4122 1019 
L 4122 359 
Q 3791 134 3420 21 
Q 3050 -91 2638 -91 
Q 1578 -91 968 557 
Q 359 1206 359 2328 
Q 359 3453 968 4101 
Q 1578 4750 2638 4750 
Q 3056 4750 3426 4639 
Q 3797 4528 4122 4306 
z
" transform="scale(0.015625)"/>
       <path id="DejaVuSans-6f" d="M 1959 3097 
Q 1497 3097 1228 2736 
Q 959 2375 959 1747 
Q 959 1119 1226 758 
Q 1494 397 1959 397 
Q 2419 397 2687 759 
Q 2956 1122 2956 1747 
Q 2956 2369 2687 2733 
Q 2419 3097 1959 3097 
z
M 1959 3584 
Q 2709 3584 3137 3096 
Q 3566 2609 3566 1747 
Q 3566 888 3137 398 
Q 2709 -91 1959 -91 
Q 1206 -91 779 398 
Q 353 888 353 1747 
Q 353 2609 779 3096 
Q 1206 3584 1959 3584 
z
" transform="scale(0.015625)"/>
       <path id="DejaVuSans-76" d="M 191 3500 
L 800 3500 
L 1894 563 
L 2988 3500 
L 3597 3500 
L 2284 0 
L 1503 0 
L 191 3500 
z
" transform="scale(0.015625)"/>
       <path id="DejaVuSans-72" d="M 2631 2963 
Q 2534 3019 2420 3045 
Q 2306 3072 2169 3072 
Q 1681 3072 1420 2755 
Q 1159 2438 1159 1844 
L 1159 0 
L 581 0 
L 581 3500 
L 1159 3500 
L 1159 2956 
Q 1341 3275 1631 3429 
Q 1922 3584 2338 3584 
Q 2397 3584 2469 3576 
Q 2541 3569 2628 3553 
L 2631 2963 
z
" transform="scale(0.015625)"/>
       <path id="DejaVuSans-61" d="M 2194 1759 
Q 1497 1759 1228 1600 
Q 959 1441 959 1056 
Q 959 750 1161 570 
Q 1363 391 1709 391 
Q 2188 391 2477 730 
Q 2766 1069 2766 1631 
L 2766 1759 
L 2194 1759 
z
M 3341 1997 
L 3341 0 
L 2766 0 
L 2766 531 
Q 2569 213 2275 61 
Q 1981 -91 1556 -91 
Q 1019 -91 701 211 
Q 384 513 384 1019 
Q 384 1609 779 1909 
Q 1175 2209 1959 2209 
L 2766 2209 
L 2766 2266 
Q 2766 2663 2505 2880 
Q 2244 3097 1772 3097 
Q 1472 3097 1187 3025 
Q 903 2953 641 2809 
L 641 3341 
Q 956 3463 1253 3523 
Q 1550 3584 1831 3584 
Q 2591 3584 2966 3190 
Q 3341 2797 3341 1997 
z
" transform="scale(0.015625)"/>
      </defs>
      <use xlink:href="#DejaVuSans-45"/>
      <use xlink:href="#DejaVuSans-64" x="63.183594"/>
      <use xlink:href="#DejaVuSans-67" x="126.660156"/>
      <use xlink:href="#DejaVuSans-65" x="190.136719"/>
      <use xlink:href="#DejaVuSans-20" x="251.660156"/>
      <use xlink:href="#DejaVuSans-43" x="283.447266"/>
      <use xlink:href="#DejaVuSans-6f" x="353.271484"/>
      <use xlink:href="#DejaVuSans-76" x="414.453125"/>
      <use xlink:href="#DejaVuSans-65" x="473.632812"/>
      <use xlink:href="#DejaVuSans-72" x="535.15625"/>
      <use xlink:href="#DejaVuSans-61" x="576.269531"/>
      <use xlink:href="#DejaVuSans-67" x="637.548828"/>
      <use xlink:href="#DejaVuSans-65" x="701.025391"/>
      <use xlink:href="#DejaVuSans-73" x="762.548828"/>
     </g>
    </g>
   </g>
   <g id="PolyCollection_1">
    <defs>
     <path id="m0dbe538bc4" d="M 69.650795 -91.823525 
L 69.650795 -83.52 
L 69.650795 -91.823525 
L 69.650795 -91.823525 
z
" style="stroke: #db5f57; stroke-opacity: 0.2; stroke-width: 0.8"/>
    </defs>
    <g clip-path="url(#p5a43ee3201)">
     <use xlink:href="#m0dbe538bc4" x="0" y="576" style="fill: #db5f57; fill-opacity: 0.2; stroke: #db5f57; stroke-opacity: 0.2; stroke-width: 0.8"/>
    </g>
   </g>
   <g id="PolyCollection_2">
    <defs>
     <path id="m40f87cf196" d="M 69.650795 -88.310495 
L 69.650795 -83.52 
L 69.650795 -88.310495 
L 69.650795 -88.310495 
z
" style="stroke: #b9db57; stroke-opacity: 0.2; stroke-width: 0.8"/>
    </defs>
    <g clip-path="url(#p5a43ee3201)">
     <use xlink:href="#m40f87cf196" x="0" y="576" style="fill: #b9db57; fill-opacity: 0.2; stroke: #b9db57; stroke-opacity: 0.2; stroke-width: 0.8"/>
    </g>
   </g>
   <g id="PolyCollection_3">
    <defs>
     <path id="m9eeec809b8" d="M 69.650795 -85.595881 
L 69.650795 -83.52 
L 69.650795 -85.595881 
L 69.650795 -85.595881 
z
" style="stroke: #57db94; stroke-opacity: 0.2; stroke-width: 0.8"/>
    </defs>
    <g clip-path="url(#p5a43ee3201)">
     <use xlink:href="#m9eeec809b8" x="0" y="576" style="fill: #57db94; fill-opacity: 0.2; stroke: #57db94; stroke-opacity: 0.2; stroke-width: 0.8"/>
    </g>
   </g>
   <g id="PolyCollection_4">
    <defs>
     <path id="m994ce2cb7b" d="M 69.650795 -85.276515 
L 69.650795 -83.52 
L 69.650795 -85.276515 
L 69.650795 -85.276515 
z
" style="stroke: #5784db; stroke-opacity: 0.2; stroke-width: 0.8"/>
    </defs>
    <g clip-path="url(#p5a43ee3201)">
     <use xlink:href="#m994ce2cb7b" x="0" y="576" style="fill: #5784db; fill-opacity: 0.2; stroke: #5784db; stroke-opacity: 0.2; stroke-width: 0.8"/>
    </g>
   </g>
   <g id="PolyCollection_5">
    <defs>
     <path id="m70ecdb09c8" d="M 69.650795 -92.941307 
L 69.650795 -83.52 
L 69.650795 -92.941307 
L 69.650795 -92.941307 
z
" style="stroke: #c957db; stroke-opacity: 0.2; stroke-width: 0.8"/>
    </defs>
    <g clip-path="url(#p5a43ee3201)">
     <use xlink:href="#m70ecdb09c8" x="0" y="576" style="fill: #c957db; fill-opacity: 0.2; stroke: #c957db; stroke-opacity: 0.2; stroke-width: 0.8"/>
    </g>
   </g>
   <g id="line2d_46">
    <path d="M 69.650795 488.328238 
L 70.07646 445.054099 
L 70.502125 428.606733 
L 70.714958 421.90004 
L 71.140623 416.470812 
L 71.353455 412.31905 
L 71.566288 410.881901 
L 72.417617 401.141228 
L 73.056115 394.274851 
L 73.907445 377.029069 
L 74.33311 364.254416 
L 74.971607 355.152475 
L 75.397272 337.906693 
L 75.610104 312.836436 
L 75.822937 307.726574 
L 76.035769 305.331327 
L 76.461434 289.203327 
L 76.674267 280.899802 
L 77.099932 278.664238 
L 77.525596 267.486416 
L 77.738429 264.931485 
L 77.951261 263.973386 
L 78.164094 262.057188 
L 78.589759 257.426376 
L 78.802591 247.845386 
L 79.228256 237.146614 
L 79.441089 236.986931 
L 79.653921 235.549782 
L 80.079586 235.230416 
L 80.718083 228.36404 
L 80.930916 228.204356 
L 81.356581 227.086574 
L 81.569413 218.463683 
L 81.995078 217.984634 
L 82.207911 215.908752 
L 82.420743 215.429703 
L 82.633575 207.924594 
L 82.846408 207.445545 
L 83.05924 207.445545 
L 83.272073 207.285861 
L 83.484905 206.647129 
L 83.697738 206.487446 
L 83.91057 206.487446 
L 84.123403 206.327762 
L 84.336235 206.327762 
L 84.549068 197.385505 
L 84.7619 197.385505 
L 84.974733 195.62899 
L 85.187565 191.796594 
L 85.400397 191.796594 
L 85.61323 189.880396 
L 85.826062 189.880396 
L 86.038895 189.401347 
L 86.251727 189.401347 
L 86.677392 187.644832 
L 86.890225 187.325465 
L 87.103057 187.325465 
L 87.31589 187.165782 
L 87.528722 186.846416 
L 87.741555 185.728634 
L 87.954387 185.56895 
L 88.592884 184.770535 
L 88.805717 184.770535 
L 89.018549 184.610851 
L 89.231382 182.854337 
L 89.444214 182.854337 
L 89.657047 182.375287 
L 89.869879 182.375287 
L 90.508376 180.938139 
L 90.721209 180.778455 
L 90.934041 180.299406 
L 91.146874 180.139723 
L 91.359706 180.139723 
L 91.572539 179.820356 
L 92.636701 179.820356 
L 92.849534 179.341307 
L 94.339361 179.341307 
L 94.552193 179.181624 
L 95.190691 178.223525 
L 96.04202 178.223525 
L 96.254853 177.744475 
L 96.467685 176.626693 
L 96.89335 172.155564 
L 97.106183 168.163485 
L 97.319015 167.205386 
L 97.531848 165.448871 
L 97.74468 165.129505 
L 97.957513 165.129505 
L 98.170345 164.171406 
L 98.383177 164.171406 
L 98.59601 163.85204 
L 98.808842 163.053624 
L 99.021675 162.734257 
L 99.44734 161.297109 
L 99.660172 159.700277 
L 99.873005 159.700277 
L 100.511502 158.901861 
L 100.724335 157.624396 
L 101.149999 156.666297 
L 101.362832 154.590416 
L 101.575664 154.430733 
L 102.001329 153.31295 
L 102.214162 152.354851 
L 102.426994 152.035485 
L 102.639827 151.396752 
L 102.852659 151.396752 
L 103.065492 151.237069 
L 103.491157 151.237069 
L 103.703989 150.917703 
L 103.916821 150.917703 
L 105.406649 148.841822 
L 105.619481 148.682139 
L 105.832314 148.682139 
L 106.257978 148.362772 
L 106.896476 148.362772 
L 107.322141 147.72404 
L 108.599136 147.72404 
L 108.811968 147.564356 
L 109.663298 147.564356 
L 109.87613 147.404673 
L 110.088963 147.404673 
L 110.301795 147.24499 
L 112.217287 147.24499 
L 112.43012 147.085307 
L 114.345612 147.085307 
L 114.984109 146.606257 
L 115.196942 146.286891 
L 117.963764 146.286891 
L 118.176596 146.127208 
L 120.304921 146.127208 
L 120.517753 145.967525 
L 122.00758 145.967525 
L 122.220413 145.807842 
L 122.646078 145.807842 
L 122.85891 145.648158 
L 123.923073 145.648158 
L 124.348738 145.328792 
L 124.56157 145.328792 
L 124.774402 145.009426 
L 125.200067 145.009426 
L 125.4129 144.849743 
L 125.625732 143.572277 
L 125.838565 143.412594 
L 126.051397 143.093228 
L 126.26423 143.093228 
L 126.477062 142.933545 
L 126.689895 142.933545 
L 127.115559 142.454495 
L 130.733711 142.454495 
L 130.946544 141.975446 
L 131.372209 141.975446 
L 131.585041 141.815762 
L 132.010706 141.815762 
L 132.649203 141.017347 
L 133.074868 136.546218 
L 133.287701 136.067168 
L 133.500533 135.907485 
L 133.926198 133.352554 
L 134.139031 133.352554 
L 134.351863 133.033188 
L 134.777528 131.276673 
L 134.99036 130.478257 
L 135.203193 130.158891 
L 135.628858 130.158891 
L 135.84169 128.562059 
L 136.267355 127.60396 
L 136.480188 127.60396 
L 136.905853 127.284594 
L 137.118685 126.805545 
L 137.331518 126.805545 
L 137.757182 125.687762 
L 138.182847 125.687762 
L 138.39568 125.528079 
L 138.608512 125.528079 
L 138.821345 125.208713 
L 139.885507 125.208713 
L 140.09834 125.04903 
L 141.162502 125.04903 
L 141.375334 124.889347 
L 142.226664 124.889347 
L 142.439497 124.729663 
L 151.37846 124.729663 
L 151.591292 124.56998 
L 154.783779 124.56998 
L 154.996612 124.410297 
L 155.209444 124.410297 
L 155.422277 123.611881 
L 155.635109 123.611881 
L 155.847942 123.452198 
L 156.273606 123.452198 
L 156.486439 122.813465 
L 157.337769 122.813465 
L 157.550601 122.653782 
L 176.067025 122.653782 
L 176.279858 122.01505 
L 178.621015 122.01505 
L 178.833847 121.695683 
L 188.198475 121.695683 
L 188.411308 121.536 
L 198.840098 121.536 
L 199.052931 121.376317 
L 213.73837 121.376317 
L 214.376868 120.577901 
L 247.153067 120.577901 
L 247.365899 120.258535 
L 269.500475 120.258535 
L 269.713307 120.098851 
L 272.692962 120.098851 
L 272.905794 119.939168 
L 273.118627 119.939168 
L 273.331459 119.779485 
L 276.523946 119.779485 
L 276.736778 119.619802 
L 285.462909 119.619802 
L 285.675742 119.460119 
L 293.33771 119.460119 
L 293.550543 119.300436 
L 305.256328 119.300436 
L 305.46916 119.140752 
L 311.002804 119.140752 
L 311.215637 118.821386 
L 311.641302 118.821386 
L 311.854134 118.50202 
L 330.370558 118.50202 
L 330.583391 118.342337 
L 339.735186 118.342337 
L 339.948019 118.02297 
L 372.93705 118.02297 
L 373.149883 117.384238 
L 373.362715 117.384238 
L 373.575547 116.585822 
L 373.78838 116.585822 
L 374.001212 116.106772 
L 374.214045 115.947089 
L 374.426877 115.947089 
L 374.63971 115.787406 
L 375.065375 115.787406 
L 375.278207 115.627723 
L 375.916705 115.627723 
L 375.916705 115.627723 
" clip-path="url(#p5a43ee3201)" style="fill: none; stroke: #db5f57; stroke-width: 1.2; stroke-linecap: round"/>
   </g>
   <g id="line2d_47">
    <path d="M 69.650795 490.084752 
L 70.07646 446.012198 
L 70.502125 427.968 
L 70.92779 419.345109 
L 71.140623 416.311129 
L 71.353455 411.36095 
L 71.991953 404.175208 
L 72.204785 400.662178 
L 72.417617 400.023446 
L 72.63045 397.947564 
L 72.843282 396.989465 
L 73.056115 394.594218 
L 73.48178 384.853545 
L 73.694612 381.819564 
L 73.907445 381.021149 
L 74.120277 375.911287 
L 74.33311 363.93505 
L 74.758774 362.178535 
L 75.397272 332.477465 
L 75.610104 328.485386 
L 75.822937 301.339248 
L 76.035769 300.860198 
L 76.461434 294.792238 
L 76.674267 282.656317 
L 76.887099 282.656317 
L 77.099932 282.177267 
L 77.525596 263.973386 
L 77.738429 263.494337 
L 78.164094 259.661941 
L 78.589759 250.240634 
L 78.802591 249.282535 
L 79.015424 243.054891 
L 79.228256 232.196436 
L 79.441089 232.036752 
L 79.653921 230.91897 
L 79.866754 230.91897 
L 80.079586 229.002772 
L 80.292418 228.36404 
L 80.718083 222.934812 
L 80.930916 222.615446 
L 81.143748 222.615446 
L 81.356581 221.81703 
L 81.569413 216.228119 
L 81.782246 215.908752 
L 81.995078 214.631287 
L 82.207911 209.681109 
L 82.420743 201.377584 
L 82.633575 201.377584 
L 82.846408 200.898535 
L 83.05924 200.738851 
L 83.272073 200.738851 
L 83.484905 199.621069 
L 83.697738 199.461386 
L 84.123403 199.461386 
L 84.336235 199.301703 
L 84.549068 188.762614 
L 84.7619 187.644832 
L 85.187565 181.736554 
L 85.400397 180.778455 
L 85.61323 180.778455 
L 85.826062 180.299406 
L 86.251727 180.299406 
L 86.46456 179.820356 
L 86.677392 178.542891 
L 86.890225 178.383208 
L 87.103057 178.383208 
L 87.528722 178.063842 
L 87.741555 176.786376 
L 87.954387 176.786376 
L 88.380052 176.46701 
L 88.592884 176.46701 
L 88.805717 175.98796 
L 89.018549 175.828277 
L 89.231382 175.189545 
L 89.444214 175.189545 
L 89.657047 173.592713 
L 89.869879 173.592713 
L 90.082712 173.43303 
L 90.508376 172.95398 
L 90.934041 171.676515 
L 91.146874 171.516832 
L 91.359706 171.516832 
L 91.572539 171.197465 
L 93.062366 171.197465 
L 93.275198 170.718416 
L 94.552193 170.718416 
L 94.765026 170.079683 
L 95.190691 169.760317 
L 95.403523 169.44095 
L 95.829188 169.44095 
L 96.04202 169.281267 
L 96.254853 168.961901 
L 96.89335 164.810139 
L 97.106183 160.019644 
L 97.319015 159.380911 
L 97.531848 156.666297 
L 97.74468 156.666297 
L 97.957513 155.867881 
L 98.383177 155.388832 
L 98.59601 155.229149 
L 98.808842 154.909782 
L 99.021675 154.111366 
L 99.234507 152.354851 
L 99.873005 150.119287 
L 100.085837 149.959604 
L 100.29867 149.161188 
L 100.511502 149.001505 
L 100.937167 148.522455 
L 101.575664 145.328792 
L 102.426994 142.933545 
L 102.639827 142.614178 
L 102.852659 142.614178 
L 103.065492 142.294812 
L 103.491157 142.294812 
L 103.703989 141.975446 
L 103.916821 141.975446 
L 104.129654 141.336713 
L 104.342486 141.336713 
L 104.555319 141.17703 
L 104.980984 140.378614 
L 105.193816 139.899564 
L 105.832314 139.899564 
L 106.045146 139.580198 
L 106.896476 139.580198 
L 107.322141 139.101149 
L 108.386303 139.101149 
L 108.599136 138.941465 
L 110.514628 138.941465 
L 110.72746 138.781782 
L 112.217287 138.781782 
L 112.43012 138.622099 
L 114.345612 138.622099 
L 114.558444 138.462416 
L 114.771277 138.462416 
L 115.196942 137.823683 
L 120.730586 137.823683 
L 120.943418 137.664 
L 122.433245 137.664 
L 122.646078 137.504317 
L 123.923073 137.504317 
L 124.348738 137.18495 
L 124.774402 136.705901 
L 125.200067 136.705901 
L 125.4129 136.226851 
L 125.625732 134.63002 
L 125.838565 134.63002 
L 126.051397 134.310653 
L 126.26423 134.310653 
L 126.477062 134.15097 
L 126.689895 134.15097 
L 126.902727 133.671921 
L 130.733711 133.671921 
L 130.946544 133.352554 
L 131.159376 133.352554 
L 131.372209 132.873505 
L 132.436371 132.873505 
L 132.862036 127.444277 
L 133.287701 126.645861 
L 133.500533 124.56998 
L 133.713366 124.410297 
L 135.203193 120.897267 
L 135.628858 120.897267 
L 135.84169 119.300436 
L 136.054523 118.661703 
L 136.267355 118.50202 
L 136.480188 118.50202 
L 136.905853 118.182653 
L 137.118685 118.182653 
L 137.331518 116.905188 
L 137.54435 116.745505 
L 137.757182 116.106772 
L 138.608512 116.106772 
L 138.821345 115.627723 
L 140.524004 115.627723 
L 140.736837 115.46804 
L 142.439497 115.46804 
L 142.652329 115.308356 
L 151.37846 115.308356 
L 151.591292 115.148673 
L 155.209444 115.148673 
L 155.422277 114.350257 
L 155.635109 114.190574 
L 155.847942 113.711525 
L 156.060774 113.551842 
L 156.273606 113.551842 
L 156.486439 113.232475 
L 164.574072 113.232475 
L 164.786905 113.072792 
L 175.64136 113.072792 
L 175.854193 112.434059 
L 178.833847 112.434059 
L 179.04668 112.114693 
L 188.198475 112.114693 
L 188.411308 111.95501 
L 198.840098 111.95501 
L 199.052931 111.635644 
L 200.968423 111.635644 
L 201.181255 111.47596 
L 201.394088 111.47596 
L 201.60692 111.316277 
L 213.73837 111.316277 
L 213.951203 110.517861 
L 243.747747 110.517861 
L 243.96058 110.358178 
L 246.940234 110.358178 
L 247.365899 110.038812 
L 272.692962 110.038812 
L 272.905794 109.879129 
L 273.331459 109.879129 
L 273.544292 109.719446 
L 276.736778 109.719446 
L 276.949611 109.559762 
L 285.250077 109.559762 
L 285.462909 109.400079 
L 293.763375 109.400079 
L 293.976208 109.240396 
L 305.256328 109.240396 
L 305.46916 109.080713 
L 310.789972 109.080713 
L 311.002804 108.761347 
L 311.641302 108.761347 
L 311.854134 108.601663 
L 312.279799 108.601663 
L 312.492632 108.44198 
L 330.370558 108.44198 
L 330.583391 108.282297 
L 335.478537 108.282297 
L 335.69137 108.122614 
L 339.735186 108.122614 
L 339.948019 107.803248 
L 372.511385 107.803248 
L 372.724218 107.643564 
L 372.93705 107.164515 
L 373.149883 106.366099 
L 373.575547 106.046733 
L 373.78838 105.727366 
L 374.001212 105.727366 
L 374.214045 104.769267 
L 374.426877 104.449901 
L 374.852542 104.449901 
L 375.065375 104.290218 
L 375.916705 104.290218 
L 375.916705 104.290218 
" clip-path="url(#p5a43ee3201)" style="fill: none; stroke: #b9db57; stroke-width: 1.2; stroke-linecap: round"/>
   </g>
   <g id="line2d_48">
    <path d="M 69.650795 491.442059 
L 69.863628 490.404119 
L 70.289293 490.404119 
L 70.502125 438.666772 
L 70.92779 418.227327 
L 71.140623 415.991762 
L 71.353455 411.680317 
L 71.991953 406.410772 
L 72.204785 401.460594 
L 72.417617 400.981545 
L 73.056115 392.837703 
L 73.268947 392.837703 
L 73.48178 383.256713 
L 73.907445 374.474139 
L 74.545942 358.665505 
L 74.758774 358.665505 
L 74.971607 354.673426 
L 75.397272 334.23398 
L 75.822937 297.027802 
L 76.461434 281.059485 
L 76.674267 271.638178 
L 76.887099 271.638178 
L 77.099932 263.65402 
L 77.312764 263.494337 
L 77.525596 256.787644 
L 77.951261 252.955248 
L 78.376926 248.324436 
L 79.015424 231.557703 
L 79.228256 224.37196 
L 79.441089 224.052594 
L 79.653921 223.094495 
L 79.866754 222.934812 
L 80.079586 220.858931 
L 80.292418 220.060515 
L 80.505251 218.304 
L 80.930916 218.304 
L 81.143748 214.950653 
L 81.356581 213.673188 
L 81.569413 203.932515 
L 81.782246 203.772832 
L 81.995078 201.537267 
L 82.207911 201.377584 
L 82.420743 193.074059 
L 83.05924 192.11596 
L 83.272073 192.11596 
L 83.484905 191.956277 
L 83.697738 191.157861 
L 83.91057 191.157861 
L 84.336235 190.838495 
L 84.549068 190.838495 
L 84.7619 179.98004 
L 84.974733 175.349228 
L 85.400397 172.474931 
L 85.61323 171.995881 
L 85.826062 171.836198 
L 86.038895 171.357149 
L 86.251727 171.357149 
L 86.46456 169.760317 
L 86.677392 169.600634 
L 86.890225 169.281267 
L 87.103057 169.281267 
L 87.31589 168.961901 
L 87.528722 168.961901 
L 87.741555 168.802218 
L 87.954387 167.524752 
L 88.167219 167.365069 
L 88.592884 166.88602 
L 88.805717 166.88602 
L 89.018549 166.726337 
L 89.231382 166.087604 
L 89.444214 164.969822 
L 89.657047 164.810139 
L 89.869879 164.490772 
L 90.082712 164.490772 
L 90.295544 163.532673 
L 91.572539 161.776158 
L 92.636701 161.776158 
L 92.849534 161.297109 
L 94.339361 161.297109 
L 94.552193 161.137426 
L 95.190691 160.179327 
L 96.04202 160.179327 
L 96.254853 159.700277 
L 96.467685 158.582495 
L 96.89335 154.27105 
L 97.319015 149.161188 
L 97.531848 147.24499 
L 97.74468 147.24499 
L 97.957513 147.085307 
L 98.170345 146.127208 
L 98.383177 146.127208 
L 98.59601 145.807842 
L 98.808842 145.009426 
L 99.021675 144.690059 
L 99.234507 143.252911 
L 99.44734 142.933545 
L 99.873005 141.017347 
L 100.085837 141.017347 
L 100.29867 139.899564 
L 100.511502 139.899564 
L 101.362832 137.504317 
L 101.575664 136.067168 
L 101.788497 135.907485 
L 102.214162 133.991287 
L 103.065492 132.873505 
L 103.491157 132.873505 
L 103.703989 132.554139 
L 104.129654 132.554139 
L 104.342486 131.915406 
L 104.555319 131.755723 
L 104.768151 131.755723 
L 104.980984 130.637941 
L 105.193816 130.318574 
L 105.832314 130.318574 
L 106.045146 129.999208 
L 106.896476 129.999208 
L 107.322141 129.520158 
L 108.599136 129.520158 
L 108.811968 129.360475 
L 110.301795 129.360475 
L 110.514628 129.200792 
L 112.43012 129.200792 
L 112.642952 129.041109 
L 113.707115 129.041109 
L 113.919947 128.881426 
L 114.345612 128.881426 
L 114.771277 128.562059 
L 114.984109 128.562059 
L 115.196942 128.08301 
L 117.963764 128.08301 
L 118.176596 127.923327 
L 120.730586 127.923327 
L 120.943418 127.763644 
L 127.328392 127.763644 
L 127.541224 126.645861 
L 127.754057 123.931248 
L 133.287701 123.931248 
L 133.500533 117.703604 
L 133.713366 116.426139 
L 135.203193 116.426139 
L 135.416025 110.837228 
L 135.628858 110.677545 
L 135.84169 108.44198 
L 136.054523 108.44198 
L 136.480188 108.122614 
L 137.331518 108.122614 
L 137.54435 106.845149 
L 139.672675 106.845149 
L 139.885507 105.727366 
L 142.013832 105.727366 
L 142.226664 105.567683 
L 144.142156 105.567683 
L 144.354989 105.408 
L 154.996612 105.408 
L 155.209444 105.088634 
L 155.422277 104.130535 
L 157.337769 104.130535 
L 157.550601 103.970851 
L 157.763434 103.332119 
L 178.19535 103.332119 
L 178.408182 102.054653 
L 178.621015 102.054653 
L 178.833847 101.735287 
L 189.262638 101.735287 
L 189.47547 101.575604 
L 199.052931 101.575604 
L 199.265763 101.415921 
L 213.73837 101.415921 
L 213.951203 101.096554 
L 218.420685 101.096554 
L 218.633517 100.617505 
L 252.473878 100.617505 
L 252.686711 100.298139 
L 274.608454 100.298139 
L 275.034119 99.978772 
L 278.865103 99.978772 
L 279.077936 99.819089 
L 285.250077 99.819089 
L 285.462909 99.659406 
L 294.401873 99.659406 
L 294.614705 99.499723 
L 306.32049 99.499723 
L 306.533323 99.34004 
L 313.556794 99.34004 
L 313.769626 98.701307 
L 334.84004 98.701307 
L 335.052872 98.541624 
L 339.948019 98.541624 
L 340.160851 98.062574 
L 375.916705 98.062574 
L 375.916705 98.062574 
" clip-path="url(#p5a43ee3201)" style="fill: none; stroke: #57db94; stroke-width: 1.2; stroke-linecap: round"/>
   </g>
   <g id="line2d_49">
    <path d="M 69.650795 491.601743 
L 69.863628 469.006574 
L 70.07646 466.77101 
L 70.502125 459.106218 
L 70.714958 429.405149 
L 70.92779 423.017822 
L 71.140623 420.622574 
L 71.353455 415.35303 
L 71.566288 414.075564 
L 72.204785 405.77204 
L 72.417617 405.452673 
L 72.63045 403.855842 
L 73.268947 394.594218 
L 73.694612 388.526257 
L 74.120277 374.154772 
L 74.33311 367.448079 
L 74.545942 366.96903 
L 75.184439 352.118495 
L 75.397272 338.545426 
L 75.610104 317.307564 
L 75.822937 308.844356 
L 76.035769 305.970059 
L 76.248602 293.993822 
L 76.461434 291.438891 
L 76.887099 278.185188 
L 77.312764 268.923564 
L 78.376926 257.745743 
L 78.589759 252.316515 
L 78.802591 242.256475 
L 79.228256 234.591683 
L 79.441089 234.112634 
L 79.653921 233.95295 
L 79.866754 233.154535 
L 80.292418 229.002772 
L 80.505251 228.204356 
L 80.718083 225.649426 
L 80.930916 224.85101 
L 81.143748 224.85101 
L 81.782246 214.311921 
L 81.995078 212.23604 
L 82.207911 212.076356 
L 82.420743 212.076356 
L 82.633575 204.571248 
L 82.846408 204.251881 
L 83.05924 204.251881 
L 84.123403 202.814733 
L 84.336235 202.814733 
L 84.549068 195.149941 
L 84.7619 193.872475 
L 85.187565 187.964198 
L 85.400397 187.644832 
L 85.61323 187.006099 
L 85.826062 187.006099 
L 86.038895 186.367366 
L 86.251727 185.249584 
L 86.46456 185.249584 
L 86.677392 184.930218 
L 86.890225 184.930218 
L 87.528722 184.131802 
L 87.741555 183.01402 
L 88.167219 182.694653 
L 88.380052 182.375287 
L 88.805717 182.375287 
L 89.018549 182.215604 
L 89.231382 182.215604 
L 89.444214 180.618772 
L 89.657047 180.618772 
L 90.508376 178.862257 
L 91.146874 178.862257 
L 91.359706 178.383208 
L 91.572539 178.383208 
L 91.785371 178.063842 
L 92.849534 178.063842 
L 93.062366 177.584792 
L 94.339361 177.584792 
L 94.552193 177.425109 
L 94.977858 176.946059 
L 95.190691 176.946059 
L 95.403523 176.626693 
L 95.616356 176.626693 
L 95.829188 176.46701 
L 96.04202 176.46701 
L 96.467685 175.828277 
L 97.106183 175.828277 
L 97.319015 166.40697 
L 97.531848 165.289188 
L 97.74468 165.289188 
L 97.957513 165.129505 
L 98.170345 165.129505 
L 98.383177 164.171406 
L 98.59601 164.011723 
L 99.021675 163.213307 
L 99.234507 161.935842 
L 99.44734 161.935842 
L 99.660172 160.179327 
L 99.873005 160.179327 
L 100.29867 158.742178 
L 100.724335 158.742178 
L 100.937167 158.103446 
L 101.149999 158.103446 
L 101.362832 156.82598 
L 101.575664 156.82598 
L 102.001329 153.632317 
L 102.214162 153.632317 
L 102.426994 152.833901 
L 102.639827 152.833901 
L 102.852659 152.354851 
L 103.278324 152.354851 
L 103.491157 152.195168 
L 103.703989 151.875802 
L 104.342486 151.875802 
L 104.555319 151.077386 
L 104.980984 151.077386 
L 105.193816 149.959604 
L 105.406649 149.799921 
L 105.832314 149.799921 
L 106.045146 149.640238 
L 107.109308 149.640238 
L 107.322141 149.161188 
L 108.811968 149.161188 
L 109.0248 149.001505 
L 110.301795 149.001505 
L 110.514628 148.841822 
L 112.217287 148.841822 
L 112.43012 148.682139 
L 114.558444 148.682139 
L 114.771277 148.522455 
L 117.963764 148.522455 
L 118.176596 148.362772 
L 120.092088 148.362772 
L 120.517753 148.043406 
L 122.00758 148.043406 
L 122.220413 147.883723 
L 122.85891 147.883723 
L 123.071743 147.72404 
L 124.135905 147.72404 
L 124.348738 147.564356 
L 124.774402 147.564356 
L 124.987235 147.24499 
L 125.200067 147.24499 
L 125.4129 146.925624 
L 125.838565 145.488475 
L 126.051397 145.169109 
L 126.477062 145.169109 
L 126.902727 144.849743 
L 127.115559 144.530376 
L 130.946544 144.530376 
L 131.159376 144.051327 
L 131.372209 143.891644 
L 131.585041 143.412594 
L 132.010706 143.412594 
L 132.223539 142.933545 
L 132.436371 142.933545 
L 132.649203 142.614178 
L 132.862036 138.462416 
L 133.500533 137.18495 
L 133.926198 134.949386 
L 134.351863 134.310653 
L 134.564696 133.512238 
L 134.777528 133.512238 
L 134.99036 133.192871 
L 135.203193 132.394455 
L 135.84169 132.394455 
L 136.054523 130.478257 
L 136.480188 130.158891 
L 136.69302 130.158891 
L 136.905853 129.999208 
L 137.118685 129.520158 
L 137.331518 128.562059 
L 137.54435 128.402376 
L 137.757182 127.763644 
L 138.182847 127.763644 
L 138.39568 127.60396 
L 138.608512 127.60396 
L 138.821345 127.284594 
L 140.09834 127.284594 
L 140.311172 127.124911 
L 142.226664 127.124911 
L 142.439497 126.965228 
L 151.37846 126.965228 
L 151.591292 126.805545 
L 154.996612 126.805545 
L 155.209444 126.645861 
L 155.422277 126.645861 
L 155.635109 125.847446 
L 155.847942 125.847446 
L 156.060774 125.528079 
L 156.273606 125.528079 
L 156.486439 125.208713 
L 157.550601 125.208713 
L 157.763434 125.04903 
L 175.64136 125.04903 
L 175.854193 123.771564 
L 178.621015 123.771564 
L 178.833847 123.452198 
L 188.836973 123.452198 
L 189.049805 123.292515 
L 198.840098 123.292515 
L 199.052931 123.132832 
L 201.60692 123.132832 
L 201.819753 122.973149 
L 213.73837 122.973149 
L 213.951203 122.174733 
L 243.96058 122.174733 
L 244.173412 122.01505 
L 247.578732 122.01505 
L 247.791564 121.695683 
L 269.07481 121.695683 
L 269.287642 121.536 
L 272.692962 121.536 
L 272.905794 121.376317 
L 273.118627 121.376317 
L 273.331459 121.216634 
L 276.736778 121.216634 
L 276.949611 121.05695 
L 288.016899 121.05695 
L 288.229731 120.897267 
L 295.04037 120.897267 
L 295.253202 120.577901 
L 306.107658 120.577901 
L 306.32049 120.418218 
L 311.002804 120.418218 
L 311.215637 120.258535 
L 311.641302 120.258535 
L 311.854134 120.098851 
L 312.066967 120.098851 
L 312.279799 119.939168 
L 331.009056 119.939168 
L 331.221888 119.779485 
L 335.265705 119.779485 
L 335.478537 119.619802 
L 339.948019 119.619802 
L 340.160851 119.300436 
L 373.362715 119.300436 
L 373.575547 118.182653 
L 373.78838 118.182653 
L 374.001212 117.224554 
L 375.278207 117.224554 
L 375.49104 116.585822 
L 375.703872 116.585822 
L 375.916705 116.426139 
L 375.916705 116.426139 
" clip-path="url(#p5a43ee3201)" style="fill: none; stroke: #5784db; stroke-width: 1.2; stroke-linecap: round"/>
   </g>
   <g id="line2d_50">
    <path d="M 69.650795 487.769347 
L 70.07646 442.179802 
L 70.502125 426.211485 
L 70.714958 419.025743 
L 71.140623 413.596515 
L 71.353455 409.285069 
L 71.566288 407.847921 
L 72.417617 397.628198 
L 73.056115 389.803723 
L 73.694612 377.667802 
L 74.120277 361.859168 
L 74.758774 353.39596 
L 75.184439 335.830812 
L 75.610104 301.019881 
L 75.822937 290.959842 
L 76.035769 287.446812 
L 76.674267 267.007366 
L 76.887099 265.729901 
L 77.312764 256.468277 
L 77.525596 252.316515 
L 77.738429 250.879366 
L 78.376926 244.332356 
L 78.589759 239.222495 
L 79.015424 221.497663 
L 79.228256 220.379881 
L 79.441089 219.900832 
L 79.653921 218.942733 
L 79.866754 218.78305 
L 80.292418 215.110337 
L 80.505251 214.311921 
L 80.718083 211.277941 
L 81.143748 210.479525 
L 81.356581 207.126178 
L 81.569413 199.780752 
L 81.782246 199.301703 
L 81.995078 197.225822 
L 82.207911 197.225822 
L 82.420743 188.922297 
L 82.633575 188.762614 
L 82.846408 188.283564 
L 83.272073 187.964198 
L 83.484905 187.325465 
L 83.697738 187.165782 
L 83.91057 187.165782 
L 84.123403 187.006099 
L 84.336235 187.006099 
L 84.549068 176.46701 
L 84.7619 175.349228 
L 85.187565 169.44095 
L 85.400397 168.482851 
L 85.61323 168.482851 
L 85.826062 168.003802 
L 86.038895 168.003802 
L 86.251727 166.88602 
L 86.677392 166.087604 
L 86.890225 165.927921 
L 87.103057 165.927921 
L 87.528722 165.448871 
L 87.741555 164.171406 
L 87.954387 164.011723 
L 88.167219 164.011723 
L 88.592884 163.532673 
L 89.018549 163.213307 
L 89.231382 161.456792 
L 89.444214 161.456792 
L 89.657047 160.977743 
L 89.869879 160.977743 
L 90.295544 159.85996 
L 90.721209 159.540594 
L 90.934041 159.061545 
L 91.146874 158.901861 
L 91.359706 158.901861 
L 91.572539 158.582495 
L 92.636701 158.582495 
L 92.849534 158.103446 
L 94.339361 158.103446 
L 94.552193 157.943762 
L 95.190691 156.985663 
L 95.829188 156.985663 
L 96.04202 156.82598 
L 96.254853 156.506614 
L 96.467685 155.229149 
L 96.680518 153.153267 
L 97.106183 146.606257 
L 97.319015 145.648158 
L 97.531848 143.73196 
L 97.74468 143.572277 
L 98.170345 142.614178 
L 98.59601 142.294812 
L 98.808842 141.496396 
L 99.021675 141.17703 
L 99.234507 139.420515 
L 99.873005 137.18495 
L 100.085837 137.025267 
L 100.29867 136.067168 
L 100.511502 136.067168 
L 101.149999 134.310653 
L 101.362832 132.394455 
L 101.575664 132.234772 
L 102.639827 129.200792 
L 102.852659 129.200792 
L 103.065492 129.041109 
L 103.491157 129.041109 
L 103.703989 128.721743 
L 103.916821 128.721743 
L 104.129654 128.08301 
L 104.342486 128.08301 
L 104.555319 127.923327 
L 104.768151 127.60396 
L 104.980984 126.805545 
L 105.193816 126.486178 
L 105.832314 126.486178 
L 106.045146 126.166812 
L 106.896476 126.166812 
L 107.322141 125.687762 
L 108.386303 125.687762 
L 108.599136 125.528079 
L 110.088963 125.528079 
L 110.301795 125.368396 
L 112.217287 125.368396 
L 112.43012 125.208713 
L 114.345612 125.208713 
L 114.984109 124.729663 
L 115.196942 124.410297 
L 117.963764 124.410297 
L 118.176596 124.250614 
L 120.304921 124.250614 
L 120.517753 124.090931 
L 122.00758 124.090931 
L 122.220413 123.931248 
L 122.646078 123.931248 
L 122.85891 123.771564 
L 123.923073 123.771564 
L 124.348738 123.452198 
L 124.774402 122.973149 
L 125.200067 122.973149 
L 125.4129 122.494099 
L 125.625732 120.897267 
L 125.838565 120.897267 
L 126.051397 120.577901 
L 126.26423 120.577901 
L 126.477062 120.418218 
L 126.689895 120.418218 
L 126.902727 119.939168 
L 130.733711 119.939168 
L 130.946544 119.460119 
L 131.159376 119.460119 
L 131.372209 118.981069 
L 131.585041 118.821386 
L 132.010706 118.821386 
L 132.436371 118.342337 
L 132.862036 113.232475 
L 133.287701 112.114693 
L 133.500533 110.517861 
L 133.713366 110.358178 
L 133.926198 109.559762 
L 134.351863 108.92103 
L 134.564696 107.643564 
L 134.777528 107.483881 
L 134.99036 106.525782 
L 135.203193 106.366099 
L 135.628858 106.366099 
L 135.84169 104.130535 
L 136.054523 104.130535 
L 136.267355 103.811168 
L 136.480188 103.811168 
L 136.905853 103.491802 
L 137.757182 101.575604 
L 138.182847 101.575604 
L 138.39568 101.415921 
L 138.608512 101.415921 
L 138.821345 101.096554 
L 139.885507 101.096554 
L 140.09834 100.936871 
L 142.226664 100.936871 
L 142.439497 100.777188 
L 151.37846 100.777188 
L 151.591292 100.617505 
L 154.783779 100.617505 
L 154.996612 100.457822 
L 155.209444 100.457822 
L 155.422277 99.499723 
L 155.635109 99.499723 
L 156.060774 99.180356 
L 156.273606 99.180356 
L 156.486439 98.701307 
L 157.337769 98.701307 
L 157.550601 98.541624 
L 175.64136 98.541624 
L 175.854193 97.264158 
L 178.621015 97.264158 
L 178.833847 96.944792 
L 188.198475 96.944792 
L 188.411308 96.785109 
L 198.840098 96.785109 
L 199.052931 96.465743 
L 201.394088 96.465743 
L 201.60692 96.306059 
L 213.73837 96.306059 
L 213.951203 95.507644 
L 243.747747 95.507644 
L 243.96058 95.34796 
L 246.940234 95.34796 
L 247.365899 95.028594 
L 272.692962 95.028594 
L 272.905794 94.868911 
L 273.118627 94.868911 
L 273.331459 94.709228 
L 276.523946 94.709228 
L 276.736778 94.549545 
L 285.250077 94.549545 
L 285.462909 94.389861 
L 293.33771 94.389861 
L 293.550543 94.230178 
L 305.256328 94.230178 
L 305.46916 94.070495 
L 310.789972 94.070495 
L 311.002804 93.751129 
L 311.641302 93.751129 
L 311.854134 93.431762 
L 330.370558 93.431762 
L 330.583391 93.272079 
L 335.265705 93.272079 
L 335.478537 93.112396 
L 339.735186 93.112396 
L 339.948019 92.79303 
L 372.511385 92.79303 
L 372.724218 92.633347 
L 372.93705 92.154297 
L 373.149883 91.355881 
L 373.362715 91.196198 
L 373.575547 90.717149 
L 373.78838 90.557465 
L 374.001212 90.078416 
L 374.214045 89.918733 
L 374.426877 89.599366 
L 374.852542 89.599366 
L 375.065375 89.439683 
L 375.703872 89.439683 
L 375.916705 89.28 
L 375.916705 89.28 
" clip-path="url(#p5a43ee3201)" style="fill: none; stroke: #c957db; stroke-width: 1.2; stroke-linecap: round"/>
   </g>
   <g id="line2d_51"/>
   <g id="line2d_52"/>
   <g id="line2d_53"/>
   <g id="line2d_54"/>
   <g id="line2d_55"/>
   <g id="patch_3">
    <path d="M 54.3375 512.64 
L 54.3375 69.12 
" style="fill: none; stroke: #cccccc; stroke-linejoin: miter; stroke-linecap: square"/>
   </g>
   <g id="patch_4">
    <path d="M 54.3375 512.64 
L 391.23 512.64 
" style="fill: none; stroke: #cccccc; stroke-linejoin: miter; stroke-linecap: square"/>
   </g>
   <g id="text_48">
    <!-- Edge Coverage History -->
    <g style="fill: #262626" transform="translate(115.892262 63.12)scale(0.165888 -0.165888)">
     <defs>
      <path id="DejaVuSans-Bold-45" d="M 588 4666 
L 3834 4666 
L 3834 3756 
L 1791 3756 
L 1791 2888 
L 3713 2888 
L 3713 1978 
L 1791 1978 
L 1791 909 
L 3903 909 
L 3903 0 
L 588 0 
L 588 4666 
z
" transform="scale(0.015625)"/>
      <path id="DejaVuSans-Bold-64" d="M 2919 2988 
L 2919 4863 
L 4044 4863 
L 4044 0 
L 2919 0 
L 2919 506 
Q 2688 197 2409 53 
Q 2131 -91 1766 -91 
Q 1119 -91 703 423 
Q 288 938 288 1747 
Q 288 2556 703 3070 
Q 1119 3584 1766 3584 
Q 2128 3584 2408 3439 
Q 2688 3294 2919 2988 
z
M 2181 722 
Q 2541 722 2730 984 
Q 2919 1247 2919 1747 
Q 2919 2247 2730 2509 
Q 2541 2772 2181 2772 
Q 1825 2772 1636 2509 
Q 1447 2247 1447 1747 
Q 1447 1247 1636 984 
Q 1825 722 2181 722 
z
" transform="scale(0.015625)"/>
      <path id="DejaVuSans-Bold-67" d="M 2919 594 
Q 2688 288 2409 144 
Q 2131 0 1766 0 
Q 1125 0 706 504 
Q 288 1009 288 1791 
Q 288 2575 706 3076 
Q 1125 3578 1766 3578 
Q 2131 3578 2409 3434 
Q 2688 3291 2919 2981 
L 2919 3500 
L 4044 3500 
L 4044 353 
Q 4044 -491 3511 -936 
Q 2978 -1381 1966 -1381 
Q 1638 -1381 1331 -1331 
Q 1025 -1281 716 -1178 
L 716 -306 
Q 1009 -475 1290 -558 
Q 1572 -641 1856 -641 
Q 2406 -641 2662 -400 
Q 2919 -159 2919 353 
L 2919 594 
z
M 2181 2772 
Q 1834 2772 1640 2515 
Q 1447 2259 1447 1791 
Q 1447 1309 1634 1061 
Q 1822 813 2181 813 
Q 2531 813 2725 1069 
Q 2919 1325 2919 1791 
Q 2919 2259 2725 2515 
Q 2531 2772 2181 2772 
z
" transform="scale(0.015625)"/>
      <path id="DejaVuSans-Bold-65" d="M 4031 1759 
L 4031 1441 
L 1416 1441 
Q 1456 1047 1700 850 
Q 1944 653 2381 653 
Q 2734 653 3104 758 
Q 3475 863 3866 1075 
L 3866 213 
Q 3469 63 3072 -14 
Q 2675 -91 2278 -91 
Q 1328 -91 801 392 
Q 275 875 275 1747 
Q 275 2603 792 3093 
Q 1309 3584 2216 3584 
Q 3041 3584 3536 3087 
Q 4031 2591 4031 1759 
z
M 2881 2131 
Q 2881 2450 2695 2645 
Q 2509 2841 2209 2841 
Q 1884 2841 1681 2658 
Q 1478 2475 1428 2131 
L 2881 2131 
z
" transform="scale(0.015625)"/>
      <path id="DejaVuSans-Bold-20" transform="scale(0.015625)"/>
      <path id="DejaVuSans-Bold-43" d="M 4288 256 
Q 3956 84 3597 -3 
Q 3238 -91 2847 -91 
Q 1681 -91 1000 561 
Q 319 1213 319 2328 
Q 319 3447 1000 4098 
Q 1681 4750 2847 4750 
Q 3238 4750 3597 4662 
Q 3956 4575 4288 4403 
L 4288 3438 
Q 3953 3666 3628 3772 
Q 3303 3878 2944 3878 
Q 2300 3878 1931 3465 
Q 1563 3053 1563 2328 
Q 1563 1606 1931 1193 
Q 2300 781 2944 781 
Q 3303 781 3628 887 
Q 3953 994 4288 1222 
L 4288 256 
z
" transform="scale(0.015625)"/>
      <path id="DejaVuSans-Bold-6f" d="M 2203 2784 
Q 1831 2784 1636 2517 
Q 1441 2250 1441 1747 
Q 1441 1244 1636 976 
Q 1831 709 2203 709 
Q 2569 709 2762 976 
Q 2956 1244 2956 1747 
Q 2956 2250 2762 2517 
Q 2569 2784 2203 2784 
z
M 2203 3584 
Q 3106 3584 3614 3096 
Q 4122 2609 4122 1747 
Q 4122 884 3614 396 
Q 3106 -91 2203 -91 
Q 1297 -91 786 396 
Q 275 884 275 1747 
Q 275 2609 786 3096 
Q 1297 3584 2203 3584 
z
" transform="scale(0.015625)"/>
      <path id="DejaVuSans-Bold-76" d="M 97 3500 
L 1216 3500 
L 2088 1081 
L 2956 3500 
L 4078 3500 
L 2700 0 
L 1472 0 
L 97 3500 
z
" transform="scale(0.015625)"/>
      <path id="DejaVuSans-Bold-72" d="M 3138 2547 
Q 2991 2616 2845 2648 
Q 2700 2681 2553 2681 
Q 2122 2681 1889 2404 
Q 1656 2128 1656 1613 
L 1656 0 
L 538 0 
L 538 3500 
L 1656 3500 
L 1656 2925 
Q 1872 3269 2151 3426 
Q 2431 3584 2822 3584 
Q 2878 3584 2943 3579 
Q 3009 3575 3134 3559 
L 3138 2547 
z
" transform="scale(0.015625)"/>
      <path id="DejaVuSans-Bold-61" d="M 2106 1575 
Q 1756 1575 1579 1456 
Q 1403 1338 1403 1106 
Q 1403 894 1545 773 
Q 1688 653 1941 653 
Q 2256 653 2472 879 
Q 2688 1106 2688 1447 
L 2688 1575 
L 2106 1575 
z
M 3816 1997 
L 3816 0 
L 2688 0 
L 2688 519 
Q 2463 200 2181 54 
Q 1900 -91 1497 -91 
Q 953 -91 614 226 
Q 275 544 275 1050 
Q 275 1666 698 1953 
Q 1122 2241 2028 2241 
L 2688 2241 
L 2688 2328 
Q 2688 2594 2478 2717 
Q 2269 2841 1825 2841 
Q 1466 2841 1156 2769 
Q 847 2697 581 2553 
L 581 3406 
Q 941 3494 1303 3539 
Q 1666 3584 2028 3584 
Q 2975 3584 3395 3211 
Q 3816 2838 3816 1997 
z
" transform="scale(0.015625)"/>
      <path id="DejaVuSans-Bold-48" d="M 588 4666 
L 1791 4666 
L 1791 2888 
L 3566 2888 
L 3566 4666 
L 4769 4666 
L 4769 0 
L 3566 0 
L 3566 1978 
L 1791 1978 
L 1791 0 
L 588 0 
L 588 4666 
z
" transform="scale(0.015625)"/>
      <path id="DejaVuSans-Bold-69" d="M 538 3500 
L 1656 3500 
L 1656 0 
L 538 0 
L 538 3500 
z
M 538 4863 
L 1656 4863 
L 1656 3950 
L 538 3950 
L 538 4863 
z
" transform="scale(0.015625)"/>
      <path id="DejaVuSans-Bold-73" d="M 3272 3391 
L 3272 2541 
Q 2913 2691 2578 2766 
Q 2244 2841 1947 2841 
Q 1628 2841 1473 2761 
Q 1319 2681 1319 2516 
Q 1319 2381 1436 2309 
Q 1553 2238 1856 2203 
L 2053 2175 
Q 2913 2066 3209 1816 
Q 3506 1566 3506 1031 
Q 3506 472 3093 190 
Q 2681 -91 1863 -91 
Q 1516 -91 1145 -36 
Q 775 19 384 128 
L 384 978 
Q 719 816 1070 734 
Q 1422 653 1784 653 
Q 2113 653 2278 743 
Q 2444 834 2444 1013 
Q 2444 1163 2330 1236 
Q 2216 1309 1875 1350 
L 1678 1375 
Q 931 1469 631 1722 
Q 331 1975 331 2491 
Q 331 3047 712 3315 
Q 1094 3584 1881 3584 
Q 2191 3584 2531 3537 
Q 2872 3491 3272 3391 
z
" transform="scale(0.015625)"/>
      <path id="DejaVuSans-Bold-74" d="M 1759 4494 
L 1759 3500 
L 2913 3500 
L 2913 2700 
L 1759 2700 
L 1759 1216 
Q 1759 972 1856 886 
Q 1953 800 2241 800 
L 2816 800 
L 2816 0 
L 1856 0 
Q 1194 0 917 276 
Q 641 553 641 1216 
L 641 2700 
L 84 2700 
L 84 3500 
L 641 3500 
L 641 4494 
L 1759 4494 
z
" transform="scale(0.015625)"/>
      <path id="DejaVuSans-Bold-79" d="M 78 3500 
L 1197 3500 
L 2138 1125 
L 2938 3500 
L 4056 3500 
L 2584 -331 
Q 2363 -916 2067 -1148 
Q 1772 -1381 1288 -1381 
L 641 -1381 
L 641 -647 
L 991 -647 
Q 1275 -647 1404 -556 
Q 1534 -466 1606 -231 
L 1638 -134 
L 78 3500 
z
" transform="scale(0.015625)"/>
     </defs>
     <use xlink:href="#DejaVuSans-Bold-45"/>
     <use xlink:href="#DejaVuSans-Bold-64" x="68.310547"/>
     <use xlink:href="#DejaVuSans-Bold-67" x="139.892578"/>
     <use xlink:href="#DejaVuSans-Bold-65" x="211.474609"/>
     <use xlink:href="#DejaVuSans-Bold-20" x="279.296875"/>
     <use xlink:href="#DejaVuSans-Bold-43" x="314.111328"/>
     <use xlink:href="#DejaVuSans-Bold-6f" x="387.5"/>
     <use xlink:href="#DejaVuSans-Bold-76" x="456.201172"/>
     <use xlink:href="#DejaVuSans-Bold-65" x="521.386719"/>
     <use xlink:href="#DejaVuSans-Bold-72" x="589.208984"/>
     <use xlink:href="#DejaVuSans-Bold-61" x="638.525391"/>
     <use xlink:href="#DejaVuSans-Bold-67" x="706.005859"/>
     <use xlink:href="#DejaVuSans-Bold-65" x="777.587891"/>
     <use xlink:href="#DejaVuSans-Bold-20" x="845.410156"/>
     <use xlink:href="#DejaVuSans-Bold-48" x="880.224609"/>
     <use xlink:href="#DejaVuSans-Bold-69" x="963.916016"/>
     <use xlink:href="#DejaVuSans-Bold-73" x="998.193359"/>
     <use xlink:href="#DejaVuSans-Bold-74" x="1057.714844"/>
     <use xlink:href="#DejaVuSans-Bold-6f" x="1105.517578"/>
     <use xlink:href="#DejaVuSans-Bold-72" x="1174.21875"/>
     <use xlink:href="#DejaVuSans-Bold-79" x="1223.535156"/>
    </g>
   </g>
   <g id="legend_1">
    <g id="patch_5">
     <path d="M 273.541 508.24 
L 385.07 508.24 
Q 386.83 508.24 386.83 506.48 
L 386.83 428.8405 
Q 386.83 427.0805 385.07 427.0805 
L 273.541 427.0805 
Q 271.781 427.0805 271.781 428.8405 
L 271.781 506.48 
Q 271.781 508.24 273.541 508.24 
z
" style="fill: #ffffff; opacity: 0.8; stroke: #cccccc; stroke-width: 0.8; stroke-linejoin: miter"/>
    </g>
    <g id="text_49">
     <!-- fuzzer -->
     <g style="fill: #262626" transform="translate(314.6085 437.895)scale(0.096 -0.096)">
      <defs>
       <path id="DejaVuSans-66" d="M 2375 4863 
L 2375 4384 
L 1825 4384 
Q 1516 4384 1395 4259 
Q 1275 4134 1275 3809 
L 1275 3500 
L 2222 3500 
L 2222 3053 
L 1275 3053 
L 1275 0 
L 697 0 
L 697 3053 
L 147 3053 
L 147 3500 
L 697 3500 
L 697 3744 
Q 697 4328 969 4595 
Q 1241 4863 1831 4863 
L 2375 4863 
z
" transform="scale(0.015625)"/>
       <path id="DejaVuSans-7a" d="M 353 3500 
L 3084 3500 
L 3084 2975 
L 922 459 
L 3084 459 
L 3084 0 
L 275 0 
L 275 525 
L 2438 3041 
L 353 3041 
L 353 3500 
z
" transform="scale(0.015625)"/>
      </defs>
      <use xlink:href="#DejaVuSans-66"/>
      <use xlink:href="#DejaVuSans-75" x="35.205078"/>
      <use xlink:href="#DejaVuSans-7a" x="98.583984"/>
      <use xlink:href="#DejaVuSans-7a" x="151.074219"/>
      <use xlink:href="#DejaVuSans-65" x="203.564453"/>
      <use xlink:href="#DejaVuSans-72" x="265.087891"/>
     </g>
    </g>
    <g id="line2d_56">
     <path d="M 275.301 447.898125 
L 284.101 447.898125 
L 292.901 447.898125 
" style="fill: none; stroke: #db5f57; stroke-width: 1.2; stroke-linecap: round"/>
    </g>
    <g id="text_50">
     <!-- symcc-0-exid3 -->
     <g style="fill: #262626" transform="translate(299.941 450.978125)scale(0.088 -0.088)">
      <defs>
       <path id="DejaVuSans-79" d="M 2059 -325 
Q 1816 -950 1584 -1140 
Q 1353 -1331 966 -1331 
L 506 -1331 
L 506 -850 
L 844 -850 
Q 1081 -850 1212 -737 
Q 1344 -625 1503 -206 
L 1606 56 
L 191 3500 
L 800 3500 
L 1894 763 
L 2988 3500 
L 3597 3500 
L 2059 -325 
z
" transform="scale(0.015625)"/>
       <path id="DejaVuSans-63" d="M 3122 3366 
L 3122 2828 
Q 2878 2963 2633 3030 
Q 2388 3097 2138 3097 
Q 1578 3097 1268 2742 
Q 959 2388 959 1747 
Q 959 1106 1268 751 
Q 1578 397 2138 397 
Q 2388 397 2633 464 
Q 2878 531 3122 666 
L 3122 134 
Q 2881 22 2623 -34 
Q 2366 -91 2075 -91 
Q 1284 -91 818 406 
Q 353 903 353 1747 
Q 353 2603 823 3093 
Q 1294 3584 2113 3584 
Q 2378 3584 2631 3529 
Q 2884 3475 3122 3366 
z
" transform="scale(0.015625)"/>
       <path id="DejaVuSans-2d" d="M 313 2009 
L 1997 2009 
L 1997 1497 
L 313 1497 
L 313 2009 
z
" transform="scale(0.015625)"/>
       <path id="DejaVuSans-78" d="M 3513 3500 
L 2247 1797 
L 3578 0 
L 2900 0 
L 1881 1375 
L 863 0 
L 184 0 
L 1544 1831 
L 300 3500 
L 978 3500 
L 1906 2253 
L 2834 3500 
L 3513 3500 
z
" transform="scale(0.015625)"/>
      </defs>
      <use xlink:href="#DejaVuSans-73"/>
      <use xlink:href="#DejaVuSans-79" x="52.099609"/>
      <use xlink:href="#DejaVuSans-6d" x="111.279297"/>
      <use xlink:href="#DejaVuSans-63" x="208.691406"/>
      <use xlink:href="#DejaVuSans-63" x="263.671875"/>
      <use xlink:href="#DejaVuSans-2d" x="318.652344"/>
      <use xlink:href="#DejaVuSans-30" x="354.736328"/>
      <use xlink:href="#DejaVuSans-2d" x="418.359375"/>
      <use xlink:href="#DejaVuSans-65" x="454.443359"/>
      <use xlink:href="#DejaVuSans-78" x="514.216797"/>
      <use xlink:href="#DejaVuSans-69" x="573.396484"/>
      <use xlink:href="#DejaVuSans-64" x="601.179688"/>
      <use xlink:href="#DejaVuSans-33" x="664.65625"/>
     </g>
    </g>
    <g id="line2d_57">
     <path d="M 275.301 460.814875 
L 284.101 460.814875 
L 292.901 460.814875 
" style="fill: none; stroke: #b9db57; stroke-width: 1.2; stroke-linecap: round"/>
    </g>
    <g id="text_51">
     <!-- fairfuzz-0-exid3 -->
     <g style="fill: #262626" transform="translate(299.941 463.894875)scale(0.088 -0.088)">
      <use xlink:href="#DejaVuSans-66"/>
      <use xlink:href="#DejaVuSans-61" x="35.205078"/>
      <use xlink:href="#DejaVuSans-69" x="96.484375"/>
      <use xlink:href="#DejaVuSans-72" x="124.267578"/>
      <use xlink:href="#DejaVuSans-66" x="165.380859"/>
      <use xlink:href="#DejaVuSans-75" x="200.585938"/>
      <use xlink:href="#DejaVuSans-7a" x="263.964844"/>
      <use xlink:href="#DejaVuSans-7a" x="316.455078"/>
      <use xlink:href="#DejaVuSans-2d" x="368.945312"/>
      <use xlink:href="#DejaVuSans-30" x="405.029297"/>
      <use xlink:href="#DejaVuSans-2d" x="468.652344"/>
      <use xlink:href="#DejaVuSans-65" x="504.736328"/>
      <use xlink:href="#DejaVuSans-78" x="564.509766"/>
      <use xlink:href="#DejaVuSans-69" x="623.689453"/>
      <use xlink:href="#DejaVuSans-64" x="651.472656"/>
      <use xlink:href="#DejaVuSans-33" x="714.949219"/>
     </g>
    </g>
    <g id="line2d_58">
     <path d="M 275.301 473.731625 
L 284.101 473.731625 
L 292.901 473.731625 
" style="fill: none; stroke: #57db94; stroke-width: 1.2; stroke-linecap: round"/>
    </g>
    <g id="text_52">
     <!-- aflplusplus-0-exid3 -->
     <g style="fill: #262626" transform="translate(299.941 476.811625)scale(0.088 -0.088)">
      <defs>
       <path id="DejaVuSans-6c" d="M 603 4863 
L 1178 4863 
L 1178 0 
L 603 0 
L 603 4863 
z
" transform="scale(0.015625)"/>
       <path id="DejaVuSans-70" d="M 1159 525 
L 1159 -1331 
L 581 -1331 
L 581 3500 
L 1159 3500 
L 1159 2969 
Q 1341 3281 1617 3432 
Q 1894 3584 2278 3584 
Q 2916 3584 3314 3078 
Q 3713 2572 3713 1747 
Q 3713 922 3314 415 
Q 2916 -91 2278 -91 
Q 1894 -91 1617 61 
Q 1341 213 1159 525 
z
M 3116 1747 
Q 3116 2381 2855 2742 
Q 2594 3103 2138 3103 
Q 1681 3103 1420 2742 
Q 1159 2381 1159 1747 
Q 1159 1113 1420 752 
Q 1681 391 2138 391 
Q 2594 391 2855 752 
Q 3116 1113 3116 1747 
z
" transform="scale(0.015625)"/>
      </defs>
      <use xlink:href="#DejaVuSans-61"/>
      <use xlink:href="#DejaVuSans-66" x="61.279297"/>
      <use xlink:href="#DejaVuSans-6c" x="96.484375"/>
      <use xlink:href="#DejaVuSans-70" x="124.267578"/>
      <use xlink:href="#DejaVuSans-6c" x="187.744141"/>
      <use xlink:href="#DejaVuSans-75" x="215.527344"/>
      <use xlink:href="#DejaVuSans-73" x="278.90625"/>
      <use xlink:href="#DejaVuSans-70" x="331.005859"/>
      <use xlink:href="#DejaVuSans-6c" x="394.482422"/>
      <use xlink:href="#DejaVuSans-75" x="422.265625"/>
      <use xlink:href="#DejaVuSans-73" x="485.644531"/>
      <use xlink:href="#DejaVuSans-2d" x="537.744141"/>
      <use xlink:href="#DejaVuSans-30" x="573.828125"/>
      <use xlink:href="#DejaVuSans-2d" x="637.451172"/>
      <use xlink:href="#DejaVuSans-65" x="673.535156"/>
      <use xlink:href="#DejaVuSans-78" x="733.308594"/>
      <use xlink:href="#DejaVuSans-69" x="792.488281"/>
      <use xlink:href="#DejaVuSans-64" x="820.271484"/>
      <use xlink:href="#DejaVuSans-33" x="883.748047"/>
     </g>
    </g>
    <g id="line2d_59">
     <path d="M 275.301 486.648375 
L 284.101 486.648375 
L 292.901 486.648375 
" style="fill: none; stroke: #5784db; stroke-width: 1.2; stroke-linecap: round"/>
    </g>
    <g id="text_53">
     <!-- mopt-0-exid3 -->
     <g style="fill: #262626" transform="translate(299.941 489.728375)scale(0.088 -0.088)">
      <use xlink:href="#DejaVuSans-6d"/>
      <use xlink:href="#DejaVuSans-6f" x="97.412109"/>
      <use xlink:href="#DejaVuSans-70" x="158.59375"/>
      <use xlink:href="#DejaVuSans-74" x="222.070312"/>
      <use xlink:href="#DejaVuSans-2d" x="261.279297"/>
      <use xlink:href="#DejaVuSans-30" x="297.363281"/>
      <use xlink:href="#DejaVuSans-2d" x="360.986328"/>
      <use xlink:href="#DejaVuSans-65" x="397.070312"/>
      <use xlink:href="#DejaVuSans-78" x="456.84375"/>
      <use xlink:href="#DejaVuSans-69" x="516.023438"/>
      <use xlink:href="#DejaVuSans-64" x="543.806641"/>
      <use xlink:href="#DejaVuSans-33" x="607.283203"/>
     </g>
    </g>
    <g id="line2d_60">
     <path d="M 275.301 499.565125 
L 284.101 499.565125 
L 292.901 499.565125 
" style="fill: none; stroke: #c957db; stroke-width: 1.2; stroke-linecap: round"/>
    </g>
    <g id="text_54">
     <!-- fuzzer_global -->
     <g style="fill: #262626" transform="translate(299.941 502.645125)scale(0.088 -0.088)">
      <defs>
       <path id="DejaVuSans-5f" d="M 3263 -1063 
L 3263 -1509 
L -63 -1509 
L -63 -1063 
L 3263 -1063 
z
" transform="scale(0.015625)"/>
       <path id="DejaVuSans-62" d="M 3116 1747 
Q 3116 2381 2855 2742 
Q 2594 3103 2138 3103 
Q 1681 3103 1420 2742 
Q 1159 2381 1159 1747 
Q 1159 1113 1420 752 
Q 1681 391 2138 391 
Q 2594 391 2855 752 
Q 3116 1113 3116 1747 
z
M 1159 2969 
Q 1341 3281 1617 3432 
Q 1894 3584 2278 3584 
Q 2916 3584 3314 3078 
Q 3713 2572 3713 1747 
Q 3713 922 3314 415 
Q 2916 -91 2278 -91 
Q 1894 -91 1617 61 
Q 1341 213 1159 525 
L 1159 0 
L 581 0 
L 581 4863 
L 1159 4863 
L 1159 2969 
z
" transform="scale(0.015625)"/>
      </defs>
      <use xlink:href="#DejaVuSans-66"/>
      <use xlink:href="#DejaVuSans-75" x="35.205078"/>
      <use xlink:href="#DejaVuSans-7a" x="98.583984"/>
      <use xlink:href="#DejaVuSans-7a" x="151.074219"/>
      <use xlink:href="#DejaVuSans-65" x="203.564453"/>
      <use xlink:href="#DejaVuSans-72" x="265.087891"/>
      <use xlink:href="#DejaVuSans-5f" x="306.201172"/>
      <use xlink:href="#DejaVuSans-67" x="356.201172"/>
      <use xlink:href="#DejaVuSans-6c" x="419.677734"/>
      <use xlink:href="#DejaVuSans-6f" x="447.460938"/>
      <use xlink:href="#DejaVuSans-62" x="508.642578"/>
      <use xlink:href="#DejaVuSans-61" x="572.119141"/>
      <use xlink:href="#DejaVuSans-6c" x="633.398438"/>
     </g>
    </g>
   </g>
  </g>
 </g>
 <defs>
  <clipPath id="p5a43ee3201">
   <rect x="54.3375" y="69.12" width="336.8925" height="443.52"/>
  </clipPath>
 </defs>
</svg>
