<?xml version="1.0" encoding="utf-8" standalone="no"?>
<!DOCTYPE svg PUBLIC "-//W3C//DTD SVG 1.1//EN"
  "http://www.w3.org/Graphics/SVG/1.1/DTD/svg11.dtd">
<svg xmlns:xlink="http://www.w3.org/1999/xlink" width="434.7pt" height="576pt" viewBox="0 0 434.7 576" xmlns="http://www.w3.org/2000/svg" version="1.1">
 <metadata>
  <rdf:RDF xmlns:dc="http://purl.org/dc/elements/1.1/" xmlns:cc="http://creativecommons.org/ns#" xmlns:rdf="http://www.w3.org/1999/02/22-rdf-syntax-ns#">
   <cc:Work>
    <dc:type rdf:resource="http://purl.org/dc/dcmitype/StillImage"/>
    <dc:date>2022-09-15T09:12:11.449733</dc:date>
    <dc:format>image/svg+xml</dc:format>
    <dc:creator>
     <cc:Agent>
      <dc:title>Matplotlib v3.5.3, https://matplotlib.org/</dc:title>
     </cc:Agent>
    </dc:creator>
   </cc:Work>
  </rdf:RDF>
 </metadata>
 <defs>
  <style type="text/css">*{stroke-linejoin: round; stroke-linecap: butt}</style>
 </defs>
 <g id="figure_1">
  <g id="patch_1">
   <path d="M 0 576 
L 434.7 576 
L 434.7 0 
L 0 0 
z
" style="fill: #ffffff"/>
  </g>
  <g id="axes_1">
   <g id="patch_2">
    <path d="M 54.3375 512.64 
L 391.23 512.64 
L 391.23 69.12 
L 54.3375 69.12 
z
" style="fill: #ffffff"/>
   </g>
   <g id="matplotlib.axis_1">
    <g id="xtick_1">
     <g id="line2d_1">
      <path d="M 69.650795 512.64 
L 69.650795 69.12 
" clip-path="url(#p7cf892ea9c)" style="fill: none; stroke: #cccccc; stroke-width: 0.8; stroke-linecap: round"/>
     </g>
     <g id="text_1">
      <!-- 0 -->
      <g style="fill: #262626" transform="translate(69.388282 529.627249)rotate(-45)scale(0.088 -0.088)">
       <defs>
        <path id="DejaVuSans-30" d="M 2034 4250 
Q 1547 4250 1301 3770 
Q 1056 3291 1056 2328 
Q 1056 1369 1301 889 
Q 1547 409 2034 409 
Q 2525 409 2770 889 
Q 3016 1369 3016 2328 
Q 3016 3291 2770 3770 
Q 2525 4250 2034 4250 
z
M 2034 4750 
Q 2819 4750 3233 4129 
Q 3647 3509 3647 2328 
Q 3647 1150 3233 529 
Q 2819 -91 2034 -91 
Q 1250 -91 836 529 
Q 422 1150 422 2328 
Q 422 3509 836 4129 
Q 1250 4750 2034 4750 
z
" transform="scale(0.015625)"/>
       </defs>
       <use xlink:href="#DejaVuSans-30"/>
      </g>
     </g>
    </g>
    <g id="xtick_2">
     <g id="line2d_2">
      <path d="M 86.677392 512.64 
L 86.677392 69.12 
" clip-path="url(#p7cf892ea9c)" style="fill: none; stroke: #cccccc; stroke-width: 0.8; stroke-linecap: round"/>
     </g>
     <g id="text_2">
      <!-- 80 -->
      <g style="fill: #262626" transform="translate(84.435333 533.58634)rotate(-45)scale(0.088 -0.088)">
       <defs>
        <path id="DejaVuSans-38" d="M 2034 2216 
Q 1584 2216 1326 1975 
Q 1069 1734 1069 1313 
Q 1069 891 1326 650 
Q 1584 409 2034 409 
Q 2484 409 2743 651 
Q 3003 894 3003 1313 
Q 3003 1734 2745 1975 
Q 2488 2216 2034 2216 
z
M 1403 2484 
Q 997 2584 770 2862 
Q 544 3141 544 3541 
Q 544 4100 942 4425 
Q 1341 4750 2034 4750 
Q 2731 4750 3128 4425 
Q 3525 4100 3525 3541 
Q 3525 3141 3298 2862 
Q 3072 2584 2669 2484 
Q 3125 2378 3379 2068 
Q 3634 1759 3634 1313 
Q 3634 634 3220 271 
Q 2806 -91 2034 -91 
Q 1263 -91 848 271 
Q 434 634 434 1313 
Q 434 1759 690 2068 
Q 947 2378 1403 2484 
z
M 1172 3481 
Q 1172 3119 1398 2916 
Q 1625 2713 2034 2713 
Q 2441 2713 2670 2916 
Q 2900 3119 2900 3481 
Q 2900 3844 2670 4047 
Q 2441 4250 2034 4250 
Q 1625 4250 1398 4047 
Q 1172 3844 1172 3481 
z
" transform="scale(0.015625)"/>
       </defs>
       <use xlink:href="#DejaVuSans-38"/>
       <use xlink:href="#DejaVuSans-30" x="63.623047"/>
      </g>
     </g>
    </g>
    <g id="xtick_3">
     <g id="line2d_3">
      <path d="M 103.703989 512.64 
L 103.703989 69.12 
" clip-path="url(#p7cf892ea9c)" style="fill: none; stroke: #cccccc; stroke-width: 0.8; stroke-linecap: round"/>
     </g>
     <g id="text_3">
      <!-- 160 -->
      <g style="fill: #262626" transform="translate(99.482385 537.54543)rotate(-45)scale(0.088 -0.088)">
       <defs>
        <path id="DejaVuSans-31" d="M 794 531 
L 1825 531 
L 1825 4091 
L 703 3866 
L 703 4441 
L 1819 4666 
L 2450 4666 
L 2450 531 
L 3481 531 
L 3481 0 
L 794 0 
L 794 531 
z
" transform="scale(0.015625)"/>
        <path id="DejaVuSans-36" d="M 2113 2584 
Q 1688 2584 1439 2293 
Q 1191 2003 1191 1497 
Q 1191 994 1439 701 
Q 1688 409 2113 409 
Q 2538 409 2786 701 
Q 3034 994 3034 1497 
Q 3034 2003 2786 2293 
Q 2538 2584 2113 2584 
z
M 3366 4563 
L 3366 3988 
Q 3128 4100 2886 4159 
Q 2644 4219 2406 4219 
Q 1781 4219 1451 3797 
Q 1122 3375 1075 2522 
Q 1259 2794 1537 2939 
Q 1816 3084 2150 3084 
Q 2853 3084 3261 2657 
Q 3669 2231 3669 1497 
Q 3669 778 3244 343 
Q 2819 -91 2113 -91 
Q 1303 -91 875 529 
Q 447 1150 447 2328 
Q 447 3434 972 4092 
Q 1497 4750 2381 4750 
Q 2619 4750 2861 4703 
Q 3103 4656 3366 4563 
z
" transform="scale(0.015625)"/>
       </defs>
       <use xlink:href="#DejaVuSans-31"/>
       <use xlink:href="#DejaVuSans-36" x="63.623047"/>
       <use xlink:href="#DejaVuSans-30" x="127.246094"/>
      </g>
     </g>
    </g>
    <g id="xtick_4">
     <g id="line2d_4">
      <path d="M 120.730586 512.64 
L 120.730586 69.12 
" clip-path="url(#p7cf892ea9c)" style="fill: none; stroke: #cccccc; stroke-width: 0.8; stroke-linecap: round"/>
     </g>
     <g id="text_4">
      <!-- 240 -->
      <g style="fill: #262626" transform="translate(116.508981 537.54543)rotate(-45)scale(0.088 -0.088)">
       <defs>
        <path id="DejaVuSans-32" d="M 1228 531 
L 3431 531 
L 3431 0 
L 469 0 
L 469 531 
Q 828 903 1448 1529 
Q 2069 2156 2228 2338 
Q 2531 2678 2651 2914 
Q 2772 3150 2772 3378 
Q 2772 3750 2511 3984 
Q 2250 4219 1831 4219 
Q 1534 4219 1204 4116 
Q 875 4013 500 3803 
L 500 4441 
Q 881 4594 1212 4672 
Q 1544 4750 1819 4750 
Q 2544 4750 2975 4387 
Q 3406 4025 3406 3419 
Q 3406 3131 3298 2873 
Q 3191 2616 2906 2266 
Q 2828 2175 2409 1742 
Q 1991 1309 1228 531 
z
" transform="scale(0.015625)"/>
        <path id="DejaVuSans-34" d="M 2419 4116 
L 825 1625 
L 2419 1625 
L 2419 4116 
z
M 2253 4666 
L 3047 4666 
L 3047 1625 
L 3713 1625 
L 3713 1100 
L 3047 1100 
L 3047 0 
L 2419 0 
L 2419 1100 
L 313 1100 
L 313 1709 
L 2253 4666 
z
" transform="scale(0.015625)"/>
       </defs>
       <use xlink:href="#DejaVuSans-32"/>
       <use xlink:href="#DejaVuSans-34" x="63.623047"/>
       <use xlink:href="#DejaVuSans-30" x="127.246094"/>
      </g>
     </g>
    </g>
    <g id="xtick_5">
     <g id="line2d_5">
      <path d="M 137.757182 512.64 
L 137.757182 69.12 
" clip-path="url(#p7cf892ea9c)" style="fill: none; stroke: #cccccc; stroke-width: 0.8; stroke-linecap: round"/>
     </g>
     <g id="text_5">
      <!-- 320 -->
      <g style="fill: #262626" transform="translate(133.535578 537.54543)rotate(-45)scale(0.088 -0.088)">
       <defs>
        <path id="DejaVuSans-33" d="M 2597 2516 
Q 3050 2419 3304 2112 
Q 3559 1806 3559 1356 
Q 3559 666 3084 287 
Q 2609 -91 1734 -91 
Q 1441 -91 1130 -33 
Q 819 25 488 141 
L 488 750 
Q 750 597 1062 519 
Q 1375 441 1716 441 
Q 2309 441 2620 675 
Q 2931 909 2931 1356 
Q 2931 1769 2642 2001 
Q 2353 2234 1838 2234 
L 1294 2234 
L 1294 2753 
L 1863 2753 
Q 2328 2753 2575 2939 
Q 2822 3125 2822 3475 
Q 2822 3834 2567 4026 
Q 2313 4219 1838 4219 
Q 1578 4219 1281 4162 
Q 984 4106 628 3988 
L 628 4550 
Q 988 4650 1302 4700 
Q 1616 4750 1894 4750 
Q 2613 4750 3031 4423 
Q 3450 4097 3450 3541 
Q 3450 3153 3228 2886 
Q 3006 2619 2597 2516 
z
" transform="scale(0.015625)"/>
       </defs>
       <use xlink:href="#DejaVuSans-33"/>
       <use xlink:href="#DejaVuSans-32" x="63.623047"/>
       <use xlink:href="#DejaVuSans-30" x="127.246094"/>
      </g>
     </g>
    </g>
    <g id="xtick_6">
     <g id="line2d_6">
      <path d="M 154.783779 512.64 
L 154.783779 69.12 
" clip-path="url(#p7cf892ea9c)" style="fill: none; stroke: #cccccc; stroke-width: 0.8; stroke-linecap: round"/>
     </g>
     <g id="text_6">
      <!-- 400 -->
      <g style="fill: #262626" transform="translate(150.562175 537.54543)rotate(-45)scale(0.088 -0.088)">
       <use xlink:href="#DejaVuSans-34"/>
       <use xlink:href="#DejaVuSans-30" x="63.623047"/>
       <use xlink:href="#DejaVuSans-30" x="127.246094"/>
      </g>
     </g>
    </g>
    <g id="xtick_7">
     <g id="line2d_7">
      <path d="M 171.810376 512.64 
L 171.810376 69.12 
" clip-path="url(#p7cf892ea9c)" style="fill: none; stroke: #cccccc; stroke-width: 0.8; stroke-linecap: round"/>
     </g>
     <g id="text_7">
      <!-- 480 -->
      <g style="fill: #262626" transform="translate(167.588772 537.54543)rotate(-45)scale(0.088 -0.088)">
       <use xlink:href="#DejaVuSans-34"/>
       <use xlink:href="#DejaVuSans-38" x="63.623047"/>
       <use xlink:href="#DejaVuSans-30" x="127.246094"/>
      </g>
     </g>
    </g>
    <g id="xtick_8">
     <g id="line2d_8">
      <path d="M 188.836973 512.64 
L 188.836973 69.12 
" clip-path="url(#p7cf892ea9c)" style="fill: none; stroke: #cccccc; stroke-width: 0.8; stroke-linecap: round"/>
     </g>
     <g id="text_8">
      <!-- 560 -->
      <g style="fill: #262626" transform="translate(184.615368 537.54543)rotate(-45)scale(0.088 -0.088)">
       <defs>
        <path id="DejaVuSans-35" d="M 691 4666 
L 3169 4666 
L 3169 4134 
L 1269 4134 
L 1269 2991 
Q 1406 3038 1543 3061 
Q 1681 3084 1819 3084 
Q 2600 3084 3056 2656 
Q 3513 2228 3513 1497 
Q 3513 744 3044 326 
Q 2575 -91 1722 -91 
Q 1428 -91 1123 -41 
Q 819 9 494 109 
L 494 744 
Q 775 591 1075 516 
Q 1375 441 1709 441 
Q 2250 441 2565 725 
Q 2881 1009 2881 1497 
Q 2881 1984 2565 2268 
Q 2250 2553 1709 2553 
Q 1456 2553 1204 2497 
Q 953 2441 691 2322 
L 691 4666 
z
" transform="scale(0.015625)"/>
       </defs>
       <use xlink:href="#DejaVuSans-35"/>
       <use xlink:href="#DejaVuSans-36" x="63.623047"/>
       <use xlink:href="#DejaVuSans-30" x="127.246094"/>
      </g>
     </g>
    </g>
    <g id="xtick_9">
     <g id="line2d_9">
      <path d="M 205.863569 512.64 
L 205.863569 69.12 
" clip-path="url(#p7cf892ea9c)" style="fill: none; stroke: #cccccc; stroke-width: 0.8; stroke-linecap: round"/>
     </g>
     <g id="text_9">
      <!-- 640 -->
      <g style="fill: #262626" transform="translate(201.641965 537.54543)rotate(-45)scale(0.088 -0.088)">
       <use xlink:href="#DejaVuSans-36"/>
       <use xlink:href="#DejaVuSans-34" x="63.623047"/>
       <use xlink:href="#DejaVuSans-30" x="127.246094"/>
      </g>
     </g>
    </g>
    <g id="xtick_10">
     <g id="line2d_10">
      <path d="M 222.890166 512.64 
L 222.890166 69.12 
" clip-path="url(#p7cf892ea9c)" style="fill: none; stroke: #cccccc; stroke-width: 0.8; stroke-linecap: round"/>
     </g>
     <g id="text_10">
      <!-- 720 -->
      <g style="fill: #262626" transform="translate(218.668562 537.54543)rotate(-45)scale(0.088 -0.088)">
       <defs>
        <path id="DejaVuSans-37" d="M 525 4666 
L 3525 4666 
L 3525 4397 
L 1831 0 
L 1172 0 
L 2766 4134 
L 525 4134 
L 525 4666 
z
" transform="scale(0.015625)"/>
       </defs>
       <use xlink:href="#DejaVuSans-37"/>
       <use xlink:href="#DejaVuSans-32" x="63.623047"/>
       <use xlink:href="#DejaVuSans-30" x="127.246094"/>
      </g>
     </g>
    </g>
    <g id="xtick_11">
     <g id="line2d_11">
      <path d="M 239.916763 512.64 
L 239.916763 69.12 
" clip-path="url(#p7cf892ea9c)" style="fill: none; stroke: #cccccc; stroke-width: 0.8; stroke-linecap: round"/>
     </g>
     <g id="text_11">
      <!-- 800 -->
      <g style="fill: #262626" transform="translate(235.695159 537.54543)rotate(-45)scale(0.088 -0.088)">
       <use xlink:href="#DejaVuSans-38"/>
       <use xlink:href="#DejaVuSans-30" x="63.623047"/>
       <use xlink:href="#DejaVuSans-30" x="127.246094"/>
      </g>
     </g>
    </g>
    <g id="xtick_12">
     <g id="line2d_12">
      <path d="M 256.94336 512.64 
L 256.94336 69.12 
" clip-path="url(#p7cf892ea9c)" style="fill: none; stroke: #cccccc; stroke-width: 0.8; stroke-linecap: round"/>
     </g>
     <g id="text_12">
      <!-- 880 -->
      <g style="fill: #262626" transform="translate(252.721755 537.54543)rotate(-45)scale(0.088 -0.088)">
       <use xlink:href="#DejaVuSans-38"/>
       <use xlink:href="#DejaVuSans-38" x="63.623047"/>
       <use xlink:href="#DejaVuSans-30" x="127.246094"/>
      </g>
     </g>
    </g>
    <g id="xtick_13">
     <g id="line2d_13">
      <path d="M 273.969956 512.64 
L 273.969956 69.12 
" clip-path="url(#p7cf892ea9c)" style="fill: none; stroke: #cccccc; stroke-width: 0.8; stroke-linecap: round"/>
     </g>
     <g id="text_13">
      <!-- 960 -->
      <g style="fill: #262626" transform="translate(269.748352 537.54543)rotate(-45)scale(0.088 -0.088)">
       <defs>
        <path id="DejaVuSans-39" d="M 703 97 
L 703 672 
Q 941 559 1184 500 
Q 1428 441 1663 441 
Q 2288 441 2617 861 
Q 2947 1281 2994 2138 
Q 2813 1869 2534 1725 
Q 2256 1581 1919 1581 
Q 1219 1581 811 2004 
Q 403 2428 403 3163 
Q 403 3881 828 4315 
Q 1253 4750 1959 4750 
Q 2769 4750 3195 4129 
Q 3622 3509 3622 2328 
Q 3622 1225 3098 567 
Q 2575 -91 1691 -91 
Q 1453 -91 1209 -44 
Q 966 3 703 97 
z
M 1959 2075 
Q 2384 2075 2632 2365 
Q 2881 2656 2881 3163 
Q 2881 3666 2632 3958 
Q 2384 4250 1959 4250 
Q 1534 4250 1286 3958 
Q 1038 3666 1038 3163 
Q 1038 2656 1286 2365 
Q 1534 2075 1959 2075 
z
" transform="scale(0.015625)"/>
       </defs>
       <use xlink:href="#DejaVuSans-39"/>
       <use xlink:href="#DejaVuSans-36" x="63.623047"/>
       <use xlink:href="#DejaVuSans-30" x="127.246094"/>
      </g>
     </g>
    </g>
    <g id="xtick_14">
     <g id="line2d_14">
      <path d="M 290.996553 512.64 
L 290.996553 69.12 
" clip-path="url(#p7cf892ea9c)" style="fill: none; stroke: #cccccc; stroke-width: 0.8; stroke-linecap: round"/>
     </g>
     <g id="text_14">
      <!-- 1040 -->
      <g style="fill: #262626" transform="translate(284.795404 541.504521)rotate(-45)scale(0.088 -0.088)">
       <use xlink:href="#DejaVuSans-31"/>
       <use xlink:href="#DejaVuSans-30" x="63.623047"/>
       <use xlink:href="#DejaVuSans-34" x="127.246094"/>
       <use xlink:href="#DejaVuSans-30" x="190.869141"/>
      </g>
     </g>
    </g>
    <g id="xtick_15">
     <g id="line2d_15">
      <path d="M 308.02315 512.64 
L 308.02315 69.12 
" clip-path="url(#p7cf892ea9c)" style="fill: none; stroke: #cccccc; stroke-width: 0.8; stroke-linecap: round"/>
     </g>
     <g id="text_15">
      <!-- 1120 -->
      <g style="fill: #262626" transform="translate(301.822 541.504521)rotate(-45)scale(0.088 -0.088)">
       <use xlink:href="#DejaVuSans-31"/>
       <use xlink:href="#DejaVuSans-31" x="63.623047"/>
       <use xlink:href="#DejaVuSans-32" x="127.246094"/>
       <use xlink:href="#DejaVuSans-30" x="190.869141"/>
      </g>
     </g>
    </g>
    <g id="xtick_16">
     <g id="line2d_16">
      <path d="M 325.049747 512.64 
L 325.049747 69.12 
" clip-path="url(#p7cf892ea9c)" style="fill: none; stroke: #cccccc; stroke-width: 0.8; stroke-linecap: round"/>
     </g>
     <g id="text_16">
      <!-- 1200 -->
      <g style="fill: #262626" transform="translate(318.848597 541.504521)rotate(-45)scale(0.088 -0.088)">
       <use xlink:href="#DejaVuSans-31"/>
       <use xlink:href="#DejaVuSans-32" x="63.623047"/>
       <use xlink:href="#DejaVuSans-30" x="127.246094"/>
       <use xlink:href="#DejaVuSans-30" x="190.869141"/>
      </g>
     </g>
    </g>
    <g id="xtick_17">
     <g id="line2d_17">
      <path d="M 342.076343 512.64 
L 342.076343 69.12 
" clip-path="url(#p7cf892ea9c)" style="fill: none; stroke: #cccccc; stroke-width: 0.8; stroke-linecap: round"/>
     </g>
     <g id="text_17">
      <!-- 1280 -->
      <g style="fill: #262626" transform="translate(335.875194 541.504521)rotate(-45)scale(0.088 -0.088)">
       <use xlink:href="#DejaVuSans-31"/>
       <use xlink:href="#DejaVuSans-32" x="63.623047"/>
       <use xlink:href="#DejaVuSans-38" x="127.246094"/>
       <use xlink:href="#DejaVuSans-30" x="190.869141"/>
      </g>
     </g>
    </g>
    <g id="xtick_18">
     <g id="line2d_18">
      <path d="M 359.10294 512.64 
L 359.10294 69.12 
" clip-path="url(#p7cf892ea9c)" style="fill: none; stroke: #cccccc; stroke-width: 0.8; stroke-linecap: round"/>
     </g>
     <g id="text_18">
      <!-- 1360 -->
      <g style="fill: #262626" transform="translate(352.901791 541.504521)rotate(-45)scale(0.088 -0.088)">
       <use xlink:href="#DejaVuSans-31"/>
       <use xlink:href="#DejaVuSans-33" x="63.623047"/>
       <use xlink:href="#DejaVuSans-36" x="127.246094"/>
       <use xlink:href="#DejaVuSans-30" x="190.869141"/>
      </g>
     </g>
    </g>
    <g id="xtick_19">
     <g id="line2d_19">
      <path d="M 376.129537 512.64 
L 376.129537 69.12 
" clip-path="url(#p7cf892ea9c)" style="fill: none; stroke: #cccccc; stroke-width: 0.8; stroke-linecap: round"/>
     </g>
     <g id="text_19">
      <!-- 1440 -->
      <g style="fill: #262626" transform="translate(369.928387 541.504521)rotate(-45)scale(0.088 -0.088)">
       <use xlink:href="#DejaVuSans-31"/>
       <use xlink:href="#DejaVuSans-34" x="63.623047"/>
       <use xlink:href="#DejaVuSans-34" x="127.246094"/>
       <use xlink:href="#DejaVuSans-30" x="190.869141"/>
      </g>
     </g>
    </g>
    <g id="text_20">
     <!-- Time (Minutes) -->
     <g style="fill: #262626" transform="translate(186.87375 554.093115)scale(0.096 -0.096)">
      <defs>
       <path id="DejaVuSans-54" d="M -19 4666 
L 3928 4666 
L 3928 4134 
L 2272 4134 
L 2272 0 
L 1638 0 
L 1638 4134 
L -19 4134 
L -19 4666 
z
" transform="scale(0.015625)"/>
       <path id="DejaVuSans-69" d="M 603 3500 
L 1178 3500 
L 1178 0 
L 603 0 
L 603 3500 
z
M 603 4863 
L 1178 4863 
L 1178 4134 
L 603 4134 
L 603 4863 
z
" transform="scale(0.015625)"/>
       <path id="DejaVuSans-6d" d="M 3328 2828 
Q 3544 3216 3844 3400 
Q 4144 3584 4550 3584 
Q 5097 3584 5394 3201 
Q 5691 2819 5691 2113 
L 5691 0 
L 5113 0 
L 5113 2094 
Q 5113 2597 4934 2840 
Q 4756 3084 4391 3084 
Q 3944 3084 3684 2787 
Q 3425 2491 3425 1978 
L 3425 0 
L 2847 0 
L 2847 2094 
Q 2847 2600 2669 2842 
Q 2491 3084 2119 3084 
Q 1678 3084 1418 2786 
Q 1159 2488 1159 1978 
L 1159 0 
L 581 0 
L 581 3500 
L 1159 3500 
L 1159 2956 
Q 1356 3278 1631 3431 
Q 1906 3584 2284 3584 
Q 2666 3584 2933 3390 
Q 3200 3197 3328 2828 
z
" transform="scale(0.015625)"/>
       <path id="DejaVuSans-65" d="M 3597 1894 
L 3597 1613 
L 953 1613 
Q 991 1019 1311 708 
Q 1631 397 2203 397 
Q 2534 397 2845 478 
Q 3156 559 3463 722 
L 3463 178 
Q 3153 47 2828 -22 
Q 2503 -91 2169 -91 
Q 1331 -91 842 396 
Q 353 884 353 1716 
Q 353 2575 817 3079 
Q 1281 3584 2069 3584 
Q 2775 3584 3186 3129 
Q 3597 2675 3597 1894 
z
M 3022 2063 
Q 3016 2534 2758 2815 
Q 2500 3097 2075 3097 
Q 1594 3097 1305 2825 
Q 1016 2553 972 2059 
L 3022 2063 
z
" transform="scale(0.015625)"/>
       <path id="DejaVuSans-20" transform="scale(0.015625)"/>
       <path id="DejaVuSans-28" d="M 1984 4856 
Q 1566 4138 1362 3434 
Q 1159 2731 1159 2009 
Q 1159 1288 1364 580 
Q 1569 -128 1984 -844 
L 1484 -844 
Q 1016 -109 783 600 
Q 550 1309 550 2009 
Q 550 2706 781 3412 
Q 1013 4119 1484 4856 
L 1984 4856 
z
" transform="scale(0.015625)"/>
       <path id="DejaVuSans-4d" d="M 628 4666 
L 1569 4666 
L 2759 1491 
L 3956 4666 
L 4897 4666 
L 4897 0 
L 4281 0 
L 4281 4097 
L 3078 897 
L 2444 897 
L 1241 4097 
L 1241 0 
L 628 0 
L 628 4666 
z
" transform="scale(0.015625)"/>
       <path id="DejaVuSans-6e" d="M 3513 2113 
L 3513 0 
L 2938 0 
L 2938 2094 
Q 2938 2591 2744 2837 
Q 2550 3084 2163 3084 
Q 1697 3084 1428 2787 
Q 1159 2491 1159 1978 
L 1159 0 
L 581 0 
L 581 3500 
L 1159 3500 
L 1159 2956 
Q 1366 3272 1645 3428 
Q 1925 3584 2291 3584 
Q 2894 3584 3203 3211 
Q 3513 2838 3513 2113 
z
" transform="scale(0.015625)"/>
       <path id="DejaVuSans-75" d="M 544 1381 
L 544 3500 
L 1119 3500 
L 1119 1403 
Q 1119 906 1312 657 
Q 1506 409 1894 409 
Q 2359 409 2629 706 
Q 2900 1003 2900 1516 
L 2900 3500 
L 3475 3500 
L 3475 0 
L 2900 0 
L 2900 538 
Q 2691 219 2414 64 
Q 2138 -91 1772 -91 
Q 1169 -91 856 284 
Q 544 659 544 1381 
z
M 1991 3584 
L 1991 3584 
z
" transform="scale(0.015625)"/>
       <path id="DejaVuSans-74" d="M 1172 4494 
L 1172 3500 
L 2356 3500 
L 2356 3053 
L 1172 3053 
L 1172 1153 
Q 1172 725 1289 603 
Q 1406 481 1766 481 
L 2356 481 
L 2356 0 
L 1766 0 
Q 1100 0 847 248 
Q 594 497 594 1153 
L 594 3053 
L 172 3053 
L 172 3500 
L 594 3500 
L 594 4494 
L 1172 4494 
z
" transform="scale(0.015625)"/>
       <path id="DejaVuSans-73" d="M 2834 3397 
L 2834 2853 
Q 2591 2978 2328 3040 
Q 2066 3103 1784 3103 
Q 1356 3103 1142 2972 
Q 928 2841 928 2578 
Q 928 2378 1081 2264 
Q 1234 2150 1697 2047 
L 1894 2003 
Q 2506 1872 2764 1633 
Q 3022 1394 3022 966 
Q 3022 478 2636 193 
Q 2250 -91 1575 -91 
Q 1294 -91 989 -36 
Q 684 19 347 128 
L 347 722 
Q 666 556 975 473 
Q 1284 391 1588 391 
Q 1994 391 2212 530 
Q 2431 669 2431 922 
Q 2431 1156 2273 1281 
Q 2116 1406 1581 1522 
L 1381 1569 
Q 847 1681 609 1914 
Q 372 2147 372 2553 
Q 372 3047 722 3315 
Q 1072 3584 1716 3584 
Q 2034 3584 2315 3537 
Q 2597 3491 2834 3397 
z
" transform="scale(0.015625)"/>
       <path id="DejaVuSans-29" d="M 513 4856 
L 1013 4856 
Q 1481 4119 1714 3412 
Q 1947 2706 1947 2009 
Q 1947 1309 1714 600 
Q 1481 -109 1013 -844 
L 513 -844 
Q 928 -128 1133 580 
Q 1338 1288 1338 2009 
Q 1338 2731 1133 3434 
Q 928 4138 513 4856 
z
" transform="scale(0.015625)"/>
      </defs>
      <use xlink:href="#DejaVuSans-54"/>
      <use xlink:href="#DejaVuSans-69" x="57.958984"/>
      <use xlink:href="#DejaVuSans-6d" x="85.742188"/>
      <use xlink:href="#DejaVuSans-65" x="183.154297"/>
      <use xlink:href="#DejaVuSans-20" x="244.677734"/>
      <use xlink:href="#DejaVuSans-28" x="276.464844"/>
      <use xlink:href="#DejaVuSans-4d" x="315.478516"/>
      <use xlink:href="#DejaVuSans-69" x="401.757812"/>
      <use xlink:href="#DejaVuSans-6e" x="429.541016"/>
      <use xlink:href="#DejaVuSans-75" x="492.919922"/>
      <use xlink:href="#DejaVuSans-74" x="556.298828"/>
      <use xlink:href="#DejaVuSans-65" x="595.507812"/>
      <use xlink:href="#DejaVuSans-73" x="657.03125"/>
      <use xlink:href="#DejaVuSans-29" x="709.130859"/>
     </g>
    </g>
   </g>
   <g id="matplotlib.axis_2">
    <g id="ytick_1">
     <g id="line2d_20">
      <path d="M 54.3375 492.48 
L 391.23 492.48 
" clip-path="url(#p7cf892ea9c)" style="fill: none; stroke: #cccccc; stroke-width: 0.8; stroke-linecap: round"/>
     </g>
     <g id="text_21">
      <!-- 0 -->
      <g style="fill: #262626" transform="translate(40.4385 495.823313)scale(0.088 -0.088)">
       <use xlink:href="#DejaVuSans-30"/>
      </g>
     </g>
    </g>
    <g id="ytick_2">
     <g id="line2d_21">
      <path d="M 54.3375 441.116943 
L 391.23 441.116943 
" clip-path="url(#p7cf892ea9c)" style="fill: none; stroke: #cccccc; stroke-width: 0.8; stroke-linecap: round"/>
     </g>
     <g id="text_22">
      <!-- 100 -->
      <g style="fill: #262626" transform="translate(29.2405 444.460255)scale(0.088 -0.088)">
       <use xlink:href="#DejaVuSans-31"/>
       <use xlink:href="#DejaVuSans-30" x="63.623047"/>
       <use xlink:href="#DejaVuSans-30" x="127.246094"/>
      </g>
     </g>
    </g>
    <g id="ytick_3">
     <g id="line2d_22">
      <path d="M 54.3375 389.753885 
L 391.23 389.753885 
" clip-path="url(#p7cf892ea9c)" style="fill: none; stroke: #cccccc; stroke-width: 0.8; stroke-linecap: round"/>
     </g>
     <g id="text_23">
      <!-- 200 -->
      <g style="fill: #262626" transform="translate(29.2405 393.097198)scale(0.088 -0.088)">
       <use xlink:href="#DejaVuSans-32"/>
       <use xlink:href="#DejaVuSans-30" x="63.623047"/>
       <use xlink:href="#DejaVuSans-30" x="127.246094"/>
      </g>
     </g>
    </g>
    <g id="ytick_4">
     <g id="line2d_23">
      <path d="M 54.3375 338.390828 
L 391.23 338.390828 
" clip-path="url(#p7cf892ea9c)" style="fill: none; stroke: #cccccc; stroke-width: 0.8; stroke-linecap: round"/>
     </g>
     <g id="text_24">
      <!-- 300 -->
      <g style="fill: #262626" transform="translate(29.2405 341.734141)scale(0.088 -0.088)">
       <use xlink:href="#DejaVuSans-33"/>
       <use xlink:href="#DejaVuSans-30" x="63.623047"/>
       <use xlink:href="#DejaVuSans-30" x="127.246094"/>
      </g>
     </g>
    </g>
    <g id="ytick_5">
     <g id="line2d_24">
      <path d="M 54.3375 287.027771 
L 391.23 287.027771 
" clip-path="url(#p7cf892ea9c)" style="fill: none; stroke: #cccccc; stroke-width: 0.8; stroke-linecap: round"/>
     </g>
     <g id="text_25">
      <!-- 400 -->
      <g style="fill: #262626" transform="translate(29.2405 290.371083)scale(0.088 -0.088)">
       <use xlink:href="#DejaVuSans-34"/>
       <use xlink:href="#DejaVuSans-30" x="63.623047"/>
       <use xlink:href="#DejaVuSans-30" x="127.246094"/>
      </g>
     </g>
    </g>
    <g id="ytick_6">
     <g id="line2d_25">
      <path d="M 54.3375 235.664713 
L 391.23 235.664713 
" clip-path="url(#p7cf892ea9c)" style="fill: none; stroke: #cccccc; stroke-width: 0.8; stroke-linecap: round"/>
     </g>
     <g id="text_26">
      <!-- 500 -->
      <g style="fill: #262626" transform="translate(29.2405 239.008026)scale(0.088 -0.088)">
       <use xlink:href="#DejaVuSans-35"/>
       <use xlink:href="#DejaVuSans-30" x="63.623047"/>
       <use xlink:href="#DejaVuSans-30" x="127.246094"/>
      </g>
     </g>
    </g>
    <g id="ytick_7">
     <g id="line2d_26">
      <path d="M 54.3375 184.301656 
L 391.23 184.301656 
" clip-path="url(#p7cf892ea9c)" style="fill: none; stroke: #cccccc; stroke-width: 0.8; stroke-linecap: round"/>
     </g>
     <g id="text_27">
      <!-- 600 -->
      <g style="fill: #262626" transform="translate(29.2405 187.644969)scale(0.088 -0.088)">
       <use xlink:href="#DejaVuSans-36"/>
       <use xlink:href="#DejaVuSans-30" x="63.623047"/>
       <use xlink:href="#DejaVuSans-30" x="127.246094"/>
      </g>
     </g>
    </g>
    <g id="ytick_8">
     <g id="line2d_27">
      <path d="M 54.3375 132.938599 
L 391.23 132.938599 
" clip-path="url(#p7cf892ea9c)" style="fill: none; stroke: #cccccc; stroke-width: 0.8; stroke-linecap: round"/>
     </g>
     <g id="text_28">
      <!-- 700 -->
      <g style="fill: #262626" transform="translate(29.2405 136.281911)scale(0.088 -0.088)">
       <use xlink:href="#DejaVuSans-37"/>
       <use xlink:href="#DejaVuSans-30" x="63.623047"/>
       <use xlink:href="#DejaVuSans-30" x="127.246094"/>
      </g>
     </g>
    </g>
    <g id="text_29">
     <!-- Edge Coverages -->
     <g style="fill: #262626" transform="translate(23.244 329.98575)rotate(-90)scale(0.096 -0.096)">
      <defs>
       <path id="DejaVuSans-45" d="M 628 4666 
L 3578 4666 
L 3578 4134 
L 1259 4134 
L 1259 2753 
L 3481 2753 
L 3481 2222 
L 1259 2222 
L 1259 531 
L 3634 531 
L 3634 0 
L 628 0 
L 628 4666 
z
" transform="scale(0.015625)"/>
       <path id="DejaVuSans-64" d="M 2906 2969 
L 2906 4863 
L 3481 4863 
L 3481 0 
L 2906 0 
L 2906 525 
Q 2725 213 2448 61 
Q 2172 -91 1784 -91 
Q 1150 -91 751 415 
Q 353 922 353 1747 
Q 353 2572 751 3078 
Q 1150 3584 1784 3584 
Q 2172 3584 2448 3432 
Q 2725 3281 2906 2969 
z
M 947 1747 
Q 947 1113 1208 752 
Q 1469 391 1925 391 
Q 2381 391 2643 752 
Q 2906 1113 2906 1747 
Q 2906 2381 2643 2742 
Q 2381 3103 1925 3103 
Q 1469 3103 1208 2742 
Q 947 2381 947 1747 
z
" transform="scale(0.015625)"/>
       <path id="DejaVuSans-67" d="M 2906 1791 
Q 2906 2416 2648 2759 
Q 2391 3103 1925 3103 
Q 1463 3103 1205 2759 
Q 947 2416 947 1791 
Q 947 1169 1205 825 
Q 1463 481 1925 481 
Q 2391 481 2648 825 
Q 2906 1169 2906 1791 
z
M 3481 434 
Q 3481 -459 3084 -895 
Q 2688 -1331 1869 -1331 
Q 1566 -1331 1297 -1286 
Q 1028 -1241 775 -1147 
L 775 -588 
Q 1028 -725 1275 -790 
Q 1522 -856 1778 -856 
Q 2344 -856 2625 -561 
Q 2906 -266 2906 331 
L 2906 616 
Q 2728 306 2450 153 
Q 2172 0 1784 0 
Q 1141 0 747 490 
Q 353 981 353 1791 
Q 353 2603 747 3093 
Q 1141 3584 1784 3584 
Q 2172 3584 2450 3431 
Q 2728 3278 2906 2969 
L 2906 3500 
L 3481 3500 
L 3481 434 
z
" transform="scale(0.015625)"/>
       <path id="DejaVuSans-43" d="M 4122 4306 
L 4122 3641 
Q 3803 3938 3442 4084 
Q 3081 4231 2675 4231 
Q 1875 4231 1450 3742 
Q 1025 3253 1025 2328 
Q 1025 1406 1450 917 
Q 1875 428 2675 428 
Q 3081 428 3442 575 
Q 3803 722 4122 1019 
L 4122 359 
Q 3791 134 3420 21 
Q 3050 -91 2638 -91 
Q 1578 -91 968 557 
Q 359 1206 359 2328 
Q 359 3453 968 4101 
Q 1578 4750 2638 4750 
Q 3056 4750 3426 4639 
Q 3797 4528 4122 4306 
z
" transform="scale(0.015625)"/>
       <path id="DejaVuSans-6f" d="M 1959 3097 
Q 1497 3097 1228 2736 
Q 959 2375 959 1747 
Q 959 1119 1226 758 
Q 1494 397 1959 397 
Q 2419 397 2687 759 
Q 2956 1122 2956 1747 
Q 2956 2369 2687 2733 
Q 2419 3097 1959 3097 
z
M 1959 3584 
Q 2709 3584 3137 3096 
Q 3566 2609 3566 1747 
Q 3566 888 3137 398 
Q 2709 -91 1959 -91 
Q 1206 -91 779 398 
Q 353 888 353 1747 
Q 353 2609 779 3096 
Q 1206 3584 1959 3584 
z
" transform="scale(0.015625)"/>
       <path id="DejaVuSans-76" d="M 191 3500 
L 800 3500 
L 1894 563 
L 2988 3500 
L 3597 3500 
L 2284 0 
L 1503 0 
L 191 3500 
z
" transform="scale(0.015625)"/>
       <path id="DejaVuSans-72" d="M 2631 2963 
Q 2534 3019 2420 3045 
Q 2306 3072 2169 3072 
Q 1681 3072 1420 2755 
Q 1159 2438 1159 1844 
L 1159 0 
L 581 0 
L 581 3500 
L 1159 3500 
L 1159 2956 
Q 1341 3275 1631 3429 
Q 1922 3584 2338 3584 
Q 2397 3584 2469 3576 
Q 2541 3569 2628 3553 
L 2631 2963 
z
" transform="scale(0.015625)"/>
       <path id="DejaVuSans-61" d="M 2194 1759 
Q 1497 1759 1228 1600 
Q 959 1441 959 1056 
Q 959 750 1161 570 
Q 1363 391 1709 391 
Q 2188 391 2477 730 
Q 2766 1069 2766 1631 
L 2766 1759 
L 2194 1759 
z
M 3341 1997 
L 3341 0 
L 2766 0 
L 2766 531 
Q 2569 213 2275 61 
Q 1981 -91 1556 -91 
Q 1019 -91 701 211 
Q 384 513 384 1019 
Q 384 1609 779 1909 
Q 1175 2209 1959 2209 
L 2766 2209 
L 2766 2266 
Q 2766 2663 2505 2880 
Q 2244 3097 1772 3097 
Q 1472 3097 1187 3025 
Q 903 2953 641 2809 
L 641 3341 
Q 956 3463 1253 3523 
Q 1550 3584 1831 3584 
Q 2591 3584 2966 3190 
Q 3341 2797 3341 1997 
z
" transform="scale(0.015625)"/>
      </defs>
      <use xlink:href="#DejaVuSans-45"/>
      <use xlink:href="#DejaVuSans-64" x="63.183594"/>
      <use xlink:href="#DejaVuSans-67" x="126.660156"/>
      <use xlink:href="#DejaVuSans-65" x="190.136719"/>
      <use xlink:href="#DejaVuSans-20" x="251.660156"/>
      <use xlink:href="#DejaVuSans-43" x="283.447266"/>
      <use xlink:href="#DejaVuSans-6f" x="353.271484"/>
      <use xlink:href="#DejaVuSans-76" x="414.453125"/>
      <use xlink:href="#DejaVuSans-65" x="473.632812"/>
      <use xlink:href="#DejaVuSans-72" x="535.15625"/>
      <use xlink:href="#DejaVuSans-61" x="576.269531"/>
      <use xlink:href="#DejaVuSans-67" x="637.548828"/>
      <use xlink:href="#DejaVuSans-65" x="701.025391"/>
      <use xlink:href="#DejaVuSans-73" x="762.548828"/>
     </g>
    </g>
   </g>
   <g id="PolyCollection_1">
    <defs>
     <path id="ma073298f35" d="M 69.650795 -113.824204 
L 69.650795 -83.52 
L 69.650795 -113.824204 
L 69.650795 -113.824204 
z
" style="stroke: #db5f57; stroke-opacity: 0.2; stroke-width: 0.8"/>
    </defs>
    <g clip-path="url(#p7cf892ea9c)">
     <use xlink:href="#ma073298f35" x="0" y="576" style="fill: #db5f57; fill-opacity: 0.2; stroke: #db5f57; stroke-opacity: 0.2; stroke-width: 0.8"/>
    </g>
   </g>
   <g id="PolyCollection_2">
    <defs>
     <path id="m97fc5f4a9a" d="M 69.650795 -96.874395 
L 69.650795 -83.52 
L 69.650795 -96.874395 
L 69.650795 -96.874395 
z
" style="stroke: #b9db57; stroke-opacity: 0.2; stroke-width: 0.8"/>
    </defs>
    <g clip-path="url(#p7cf892ea9c)">
     <use xlink:href="#m97fc5f4a9a" x="0" y="576" style="fill: #b9db57; fill-opacity: 0.2; stroke: #b9db57; stroke-opacity: 0.2; stroke-width: 0.8"/>
    </g>
   </g>
   <g id="PolyCollection_3">
    <defs>
     <path id="m41a9990666" d="M 69.650795 -92.76535 
L 69.650795 -83.52 
L 69.650795 -92.76535 
L 69.650795 -92.76535 
z
" style="stroke: #57db94; stroke-opacity: 0.2; stroke-width: 0.8"/>
    </defs>
    <g clip-path="url(#p7cf892ea9c)">
     <use xlink:href="#m41a9990666" x="0" y="576" style="fill: #57db94; fill-opacity: 0.2; stroke: #57db94; stroke-opacity: 0.2; stroke-width: 0.8"/>
    </g>
   </g>
   <g id="PolyCollection_4">
    <defs>
     <path id="m2607ee36f4" d="M 69.650795 -126.151338 
L 69.650795 -83.52 
L 69.650795 -126.151338 
L 69.650795 -126.151338 
z
" style="stroke: #5784db; stroke-opacity: 0.2; stroke-width: 0.8"/>
    </defs>
    <g clip-path="url(#p7cf892ea9c)">
     <use xlink:href="#m2607ee36f4" x="0" y="576" style="fill: #5784db; fill-opacity: 0.2; stroke: #5784db; stroke-opacity: 0.2; stroke-width: 0.8"/>
    </g>
   </g>
   <g id="PolyCollection_5">
    <defs>
     <path id="mca45cd904a" d="M 69.650795 -127.692229 
L 69.650795 -83.52 
L 69.650795 -127.692229 
L 69.650795 -127.692229 
z
" style="stroke: #c957db; stroke-opacity: 0.2; stroke-width: 0.8"/>
    </defs>
    <g clip-path="url(#p7cf892ea9c)">
     <use xlink:href="#mca45cd904a" x="0" y="576" style="fill: #c957db; fill-opacity: 0.2; stroke: #c957db; stroke-opacity: 0.2; stroke-width: 0.8"/>
    </g>
   </g>
   <g id="line2d_28">
    <path d="M 69.650795 477.327898 
L 69.863628 438.035159 
L 70.289293 423.139873 
L 71.140623 416.976306 
L 71.353455 416.462675 
L 71.77912 410.812739 
L 71.991953 402.081019 
L 72.417617 401.053758 
L 73.056115 398.485605 
L 73.268947 397.971975 
L 73.48178 397.971975 
L 73.694612 396.944713 
L 74.120277 396.944713 
L 74.33311 394.376561 
L 74.545942 393.349299 
L 74.758774 393.349299 
L 75.184439 391.808408 
L 75.397272 391.294777 
L 75.610104 390.267516 
L 75.822937 388.212994 
L 76.035769 388.212994 
L 76.248602 371.776815 
L 76.461434 369.722293 
L 77.099932 369.722293 
L 77.312764 369.208662 
L 77.738429 369.208662 
L 78.164094 368.181401 
L 80.292418 368.181401 
L 80.718083 367.15414 
L 80.930916 367.15414 
L 81.143748 366.64051 
L 81.569413 365.099618 
L 81.782246 346.095287 
L 83.697738 346.095287 
L 83.91057 345.581656 
L 84.123403 344.554395 
L 84.549068 344.554395 
L 84.974733 343.527134 
L 86.038895 343.527134 
L 86.251727 343.013503 
L 86.46456 343.013503 
L 86.677392 342.499873 
L 87.741555 342.499873 
L 87.954387 330.686369 
L 88.380052 330.686369 
L 88.805717 329.659108 
L 89.231382 329.659108 
L 89.444214 329.145478 
L 90.934041 329.145478 
L 91.146874 328.631847 
L 91.785371 326.063694 
L 92.423869 326.063694 
L 92.636701 325.550064 
L 93.700863 325.550064 
L 93.913696 324.009172 
L 94.126528 323.495541 
L 96.89335 323.495541 
L 97.319015 315.791083 
L 97.531848 315.791083 
L 97.74468 313.736561 
L 98.170345 313.736561 
L 98.383177 313.22293 
L 99.021675 313.22293 
L 99.234507 311.168408 
L 99.873005 309.627516 
L 101.362832 309.627516 
L 101.575664 309.113885 
L 101.788497 299.354904 
L 102.001329 299.354904 
L 102.214162 298.841274 
L 102.852659 298.841274 
L 103.278324 295.75949 
L 103.703989 294.732229 
L 104.342486 294.732229 
L 104.555319 281.891465 
L 105.193816 281.891465 
L 105.406649 281.377834 
L 106.896476 281.377834 
L 107.109308 280.864204 
L 107.747806 280.864204 
L 107.960638 280.350573 
L 109.663298 280.350573 
L 109.87613 257.750828 
L 111.365957 257.750828 
L 111.791622 256.723567 
L 112.855785 256.723567 
L 113.28145 254.669045 
L 114.132779 254.669045 
L 114.345612 254.155414 
L 114.558444 254.155414 
L 114.771277 252.614522 
L 115.196942 252.614522 
L 115.409774 251.073631 
L 115.835439 251.073631 
L 116.048272 250.56 
L 117.538099 250.56 
L 117.750931 246.450955 
L 117.963764 245.937325 
L 119.879256 245.937325 
L 120.092088 245.423694 
L 122.85891 245.423694 
L 123.071743 244.910064 
L 123.284575 242.341911 
L 125.4129 242.341911 
L 125.625732 241.82828 
L 125.838565 240.287389 
L 126.689895 240.287389 
L 126.902727 239.773758 
L 127.115559 239.773758 
L 127.328392 239.260127 
L 127.541224 239.260127 
L 127.754057 238.746497 
L 129.031052 238.746497 
L 129.243884 238.232866 
L 129.456717 238.232866 
L 129.669549 237.719236 
L 130.308046 237.719236 
L 130.520879 225.392102 
L 130.946544 225.392102 
L 131.159376 224.364841 
L 131.585041 221.283057 
L 151.165627 221.283057 
L 151.37846 207.415032 
L 151.804125 204.846879 
L 152.442622 204.846879 
L 152.655455 204.333248 
L 152.868287 204.333248 
L 153.08112 203.819618 
L 154.358114 203.819618 
L 154.570947 198.169682 
L 154.996612 196.62879 
L 155.209444 196.115159 
L 155.422277 196.115159 
L 155.635109 195.601529 
L 157.337769 195.601529 
L 157.550601 193.547006 
L 163.50991 193.547006 
L 163.722743 192.006115 
L 164.786905 192.006115 
L 164.999737 191.492484 
L 166.0639 191.492484 
L 166.276732 190.465223 
L 168.192224 190.465223 
L 168.405057 185.328917 
L 179.04668 185.328917 
L 179.259512 179.678981 
L 180.749339 179.678981 
L 180.962172 179.16535 
L 181.175004 178.138089 
L 184.367491 178.138089 
L 184.793156 176.597197 
L 186.921481 176.597197 
L 187.347146 175.569936 
L 190.539632 175.569936 
L 190.752465 175.056306 
L 190.965297 175.056306 
L 191.17813 174.542675 
L 195.860444 174.542675 
L 196.073276 174.029045 
L 203.948077 174.029045 
L 204.16091 167.865478 
L 204.373742 165.810955 
L 205.863569 165.810955 
L 206.076402 165.297325 
L 208.417559 165.297325 
L 208.630391 164.783694 
L 209.907386 164.783694 
L 210.120219 163.756433 
L 219.910512 163.756433 
L 220.123344 161.701911 
L 220.336177 161.18828 
L 224.592826 161.18828 
L 224.805658 159.133758 
L 225.018491 158.620127 
L 225.231323 155.538344 
L 225.444156 155.024713 
L 225.656988 152.456561 
L 225.869821 152.456561 
L 226.295486 151.429299 
L 226.508318 151.429299 
L 226.72115 150.402038 
L 229.062308 150.402038 
L 229.27514 147.833885 
L 232.680459 147.833885 
L 232.893292 147.320255 
L 236.724276 147.320255 
L 236.937109 145.779363 
L 237.149941 145.779363 
L 237.362773 145.265732 
L 237.575606 143.724841 
L 238.001271 142.69758 
L 242.045088 142.69758 
L 242.25792 142.183949 
L 250.558386 142.183949 
L 250.771218 140.129427 
L 255.879197 140.129427 
L 256.09203 139.102166 
L 256.304862 139.102166 
L 256.517695 138.588535 
L 270.351805 138.588535 
L 270.564637 138.074904 
L 273.331459 138.074904 
L 273.757124 137.047643 
L 273.969956 136.020382 
L 274.182789 136.020382 
L 274.395621 135.506752 
L 274.821286 135.506752 
L 275.034119 134.993121 
L 276.098281 134.993121 
L 276.523946 133.96586 
L 280.780595 133.96586 
L 280.993428 133.452229 
L 299.297019 133.452229 
L 299.509852 122.665987 
L 299.722684 122.152357 
L 301.638176 122.152357 
L 301.851009 121.638726 
L 302.702339 121.638726 
L 302.915171 121.125096 
L 303.128003 117.016051 
L 303.979333 117.016051 
L 304.192166 116.50242 
L 307.384653 116.50242 
L 307.597485 115.475159 
L 308.661647 115.475159 
L 308.87448 114.961529 
L 309.72581 114.961529 
L 309.938642 114.447898 
L 318.664773 114.447898 
L 318.877605 113.934268 
L 328.667899 113.934268 
L 328.880731 113.420637 
L 333.775878 113.420637 
L 333.98871 112.907006 
L 334.201543 111.879745 
L 356.548951 111.879745 
L 356.761783 109.311592 
L 356.974616 108.797962 
L 357.187448 108.797962 
L 357.400281 108.284331 
L 358.038778 108.284331 
L 358.25161 107.770701 
L 361.231265 107.770701 
L 361.444097 105.716178 
L 361.65693 105.716178 
L 361.869762 105.202548 
L 365.275082 105.202548 
L 365.487914 104.688917 
L 375.916705 104.688917 
L 375.916705 104.688917 
" clip-path="url(#p7cf892ea9c)" style="fill: none; stroke: #db5f57; stroke-width: 1.2; stroke-linecap: round"/>
   </g>
   <g id="line2d_29">
    <path d="M 69.650795 485.802803 
L 69.863628 478.098344 
L 70.07646 478.098344 
L 70.289293 477.584713 
L 70.714958 477.584713 
L 70.92779 477.071083 
L 71.140623 415.949045 
L 71.353455 410.299108 
L 71.77912 407.217325 
L 71.991953 406.703694 
L 72.204785 406.703694 
L 72.417617 405.676433 
L 72.63045 405.676433 
L 73.056115 394.890191 
L 73.268947 393.86293 
L 73.48178 393.86293 
L 73.907445 392.835669 
L 74.120277 390.267516 
L 74.33311 385.644841 
L 74.545942 385.13121 
L 74.758774 385.13121 
L 75.397272 383.590318 
L 75.610104 376.913121 
L 76.248602 371.263185 
L 76.887099 371.263185 
L 77.099932 364.072357 
L 77.312764 363.558726 
L 77.525596 363.558726 
L 77.738429 358.936051 
L 77.951261 358.936051 
L 78.164094 357.395159 
L 78.376926 357.395159 
L 79.015424 355.854268 
L 79.441089 352.258854 
L 79.866754 352.258854 
L 80.079586 350.717962 
L 80.292418 350.717962 
L 80.718083 349.690701 
L 81.143748 349.690701 
L 81.356581 344.554395 
L 81.569413 344.040764 
L 82.633575 344.040764 
L 83.272073 338.904459 
L 85.826062 338.904459 
L 86.251727 331.2 
L 86.677392 331.2 
L 86.890225 330.686369 
L 103.278324 330.686369 
L 103.491157 329.145478 
L 103.703989 299.354904 
L 106.470811 299.354904 
L 106.683643 286.51414 
L 106.896476 282.405096 
L 107.109308 281.891465 
L 109.663298 281.891465 
L 109.87613 262.373503 
L 112.217287 262.373503 
L 112.43012 261.859873 
L 114.984109 261.859873 
L 115.196942 256.209936 
L 115.409774 256.209936 
L 115.622607 255.696306 
L 118.815094 255.696306 
L 119.027926 248.505478 
L 122.85891 248.505478 
L 123.071743 247.478217 
L 126.477062 247.478217 
L 126.689895 244.910064 
L 129.882381 244.910064 
L 130.095214 229.501146 
L 133.287701 229.501146 
L 133.500533 228.987516 
L 133.713366 228.987516 
L 133.926198 220.255796 
L 134.139031 219.742166 
L 134.777528 219.742166 
L 134.99036 219.228535 
L 140.09834 219.228535 
L 140.311172 218.714904 
L 144.780654 218.714904 
L 144.993486 218.201274 
L 148.185973 218.201274 
L 148.398805 214.60586 
L 148.82447 214.60586 
L 149.037303 213.578599 
L 152.655455 213.578599 
L 152.868287 209.983185 
L 156.273606 209.983185 
L 156.486439 209.469554 
L 159.040428 209.469554 
L 159.253261 208.955924 
L 163.084245 208.955924 
L 163.297078 208.442293 
L 169.043554 208.442293 
L 169.256386 190.465223 
L 172.023208 190.465223 
L 172.236041 187.89707 
L 175.428528 187.89707 
L 175.64136 184.301656 
L 178.621015 184.301656 
L 178.833847 183.274395 
L 182.451999 183.274395 
L 182.664831 181.219873 
L 183.090496 181.219873 
L 183.303329 180.706242 
L 186.708648 180.706242 
L 186.921481 179.678981 
L 195.221947 179.678981 
L 195.434779 179.16535 
L 200.968423 179.16535 
L 201.181255 178.65172 
L 201.60692 178.65172 
L 201.819753 177.624459 
L 205.01224 177.624459 
L 205.225072 175.056306 
L 208.843224 175.056306 
L 209.056056 174.029045 
L 212.248543 174.029045 
L 212.461376 171.974522 
L 216.079528 171.974522 
L 216.505192 170.947261 
L 219.697679 170.947261 
L 219.910512 170.433631 
L 228.210978 170.433631 
L 228.42381 159.647389 
L 232.254794 159.647389 
L 232.467627 157.592866 
L 235.660114 157.592866 
L 235.872946 157.079236 
L 239.916763 157.079236 
L 240.129595 152.456561 
L 243.534915 152.456561 
L 243.747747 151.94293 
L 244.386245 151.94293 
L 244.599077 151.429299 
L 251.196883 151.429299 
L 251.409716 150.915669 
L 255.453533 150.915669 
L 255.666365 149.888408 
L 276.523946 149.888408 
L 276.736778 148.347516 
L 291.422218 148.347516 
L 291.635051 147.833885 
L 300.148349 147.833885 
L 300.361181 137.047643 
L 300.574014 134.47949 
L 303.766501 134.47949 
L 303.979333 130.370446 
L 304.404998 130.370446 
L 304.617831 129.856815 
L 309.300145 129.856815 
L 309.512977 127.802293 
L 327.816569 127.802293 
L 328.029401 127.288662 
L 335.478537 127.288662 
L 335.69137 125.747771 
L 346.332993 125.747771 
L 346.545825 125.23414 
L 353.143631 125.23414 
L 353.356464 123.693248 
L 361.018432 123.693248 
L 361.231265 121.638726 
L 364.636584 121.638726 
L 364.849417 119.070573 
L 368.041904 119.070573 
L 368.254736 118.556943 
L 375.916705 118.556943 
L 375.916705 118.556943 
" clip-path="url(#p7cf892ea9c)" style="fill: none; stroke: #b9db57; stroke-width: 1.2; stroke-linecap: round"/>
   </g>
   <g id="line2d_30">
    <path d="M 69.650795 487.857325 
L 69.863628 482.721019 
L 70.07646 441.630573 
L 70.289293 440.089682 
L 70.502125 440.089682 
L 70.714958 439.06242 
L 70.92779 434.439745 
L 71.140623 432.385223 
L 71.566288 432.385223 
L 71.991953 431.357962 
L 72.417617 429.81707 
L 72.843282 428.789809 
L 73.056115 428.789809 
L 73.268947 427.248917 
L 73.694612 427.248917 
L 73.907445 426.735287 
L 74.120277 425.194395 
L 74.545942 425.194395 
L 74.758774 424.680764 
L 75.610104 424.680764 
L 76.035769 422.626242 
L 76.461434 422.626242 
L 76.887099 421.598981 
L 77.312764 421.598981 
L 77.525596 421.08535 
L 77.738429 418.517197 
L 78.164094 376.39949 
L 78.376926 374.344968 
L 78.802591 374.344968 
L 79.015424 371.263185 
L 79.228256 371.263185 
L 79.441089 369.722293 
L 79.653921 369.722293 
L 79.866754 369.208662 
L 80.505251 369.208662 
L 80.718083 368.695032 
L 83.272073 368.695032 
L 83.484905 368.181401 
L 86.038895 368.181401 
L 86.251727 345.068025 
L 87.741555 345.068025 
L 88.380052 343.527134 
L 89.869879 343.527134 
L 90.082712 340.958981 
L 90.508376 340.958981 
L 90.934041 339.93172 
L 91.572539 339.93172 
L 91.785371 336.849936 
L 97.106183 336.849936 
L 97.319015 336.336306 
L 99.234507 336.336306 
L 99.44734 325.036433 
L 101.575664 325.036433 
L 101.788497 324.522803 
L 102.852659 324.522803 
L 103.065492 308.600255 
L 104.980984 308.600255 
L 105.193816 295.75949 
L 106.257978 295.75949 
L 106.470811 295.24586 
L 107.747806 295.24586 
L 107.960638 278.296051 
L 109.663298 278.296051 
L 109.87613 272.646115 
L 110.72746 272.646115 
L 110.940293 272.132484 
L 112.642952 272.132484 
L 112.855785 271.618854 
L 114.345612 271.618854 
L 114.558444 269.050701 
L 115.835439 269.050701 
L 116.048272 265.455287 
L 117.112434 265.455287 
L 117.325266 262.373503 
L 118.176596 262.373503 
L 118.389429 259.80535 
L 124.774402 259.80535 
L 125.200067 256.723567 
L 132.436371 256.723567 
L 132.649203 237.719236 
L 133.713366 237.719236 
L 133.926198 237.205605 
L 134.564696 237.205605 
L 134.777528 231.042038 
L 138.821345 231.042038 
L 139.034177 230.528408 
L 142.013832 230.528408 
L 142.226664 230.014777 
L 146.270481 230.014777 
L 146.483313 227.960255 
L 147.334643 227.960255 
L 147.547476 227.446624 
L 147.973141 227.446624 
L 148.185973 226.932994 
L 156.273606 226.932994 
L 156.699271 211.524076 
L 162.445748 211.524076 
L 162.65858 211.010446 
L 170.959046 211.010446 
L 171.171879 202.792357 
L 171.810376 202.792357 
L 172.023208 200.737834 
L 173.087371 200.737834 
L 173.300203 198.683312 
L 178.408182 198.683312 
L 178.621015 196.62879 
L 181.600669 196.62879 
L 181.813502 194.574268 
L 184.793156 194.574268 
L 185.005988 194.060637 
L 192.880789 194.060637 
L 193.093622 193.547006 
L 193.306454 192.006115 
L 196.073276 192.006115 
L 196.286109 191.492484 
L 200.968423 191.492484 
L 201.181255 190.978854 
L 202.883915 190.978854 
L 203.096748 189.951592 
L 205.863569 189.951592 
L 206.076402 182.760764 
L 210.120219 182.760764 
L 210.333051 181.733503 
L 218.207852 181.733503 
L 218.420685 180.192611 
L 219.697679 180.192611 
L 219.910512 179.16535 
L 224.379993 179.16535 
L 224.592826 178.65172 
L 226.295486 178.65172 
L 226.508318 177.110828 
L 226.72115 169.92 
L 227.146815 169.92 
L 227.359648 169.406369 
L 229.913637 169.406369 
L 230.12647 167.351847 
L 232.041962 167.351847 
L 232.254794 165.810955 
L 235.447281 165.810955 
L 235.660114 165.297325 
L 237.575606 165.297325 
L 237.788438 163.756433 
L 238.426936 163.756433 
L 238.639768 163.242803 
L 239.491098 163.242803 
L 239.703931 162.729172 
L 240.129595 162.729172 
L 240.342428 161.701911 
L 243.96058 161.701911 
L 244.173412 161.18828 
L 244.81191 161.18828 
L 245.024742 160.67465 
L 248.430061 160.67465 
L 248.642894 160.161019 
L 255.027868 160.161019 
L 255.2407 159.647389 
L 257.79469 159.647389 
L 258.007522 159.133758 
L 262.689836 159.133758 
L 262.902669 158.620127 
L 269.713307 158.620127 
L 269.92614 158.106497 
L 271.415967 158.106497 
L 271.628799 157.592866 
L 273.118627 157.592866 
L 273.331459 157.079236 
L 273.757124 157.079236 
L 273.969956 156.565605 
L 274.821286 156.565605 
L 275.034119 155.538344 
L 280.780595 155.538344 
L 280.993428 153.483822 
L 292.48638 153.483822 
L 292.699213 152.970191 
L 299.722684 152.970191 
L 299.935517 152.456561 
L 300.148349 152.456561 
L 300.361181 141.156688 
L 304.830663 141.156688 
L 305.043496 137.047643 
L 318.877605 137.047643 
L 319.090438 134.47949 
L 333.98871 134.47949 
L 334.201543 133.96586 
L 336.755532 133.96586 
L 336.968364 132.938599 
L 343.991836 132.938599 
L 344.204668 132.424968 
L 352.717966 132.424968 
L 352.930799 130.884076 
L 357.825945 130.884076 
L 358.038778 129.343185 
L 359.10294 129.343185 
L 359.315773 128.829554 
L 361.444097 128.829554 
L 361.65693 126.775032 
L 362.721092 126.775032 
L 362.933925 126.261401 
L 365.913579 126.261401 
L 366.126411 125.747771 
L 375.916705 125.747771 
L 375.916705 125.747771 
" clip-path="url(#p7cf892ea9c)" style="fill: none; stroke: #57db94; stroke-width: 1.2; stroke-linecap: round"/>
   </g>
   <g id="line2d_31">
    <path d="M 69.650795 471.164331 
L 69.863628 440.603312 
L 70.07646 428.276178 
L 70.289293 428.276178 
L 70.502125 418.517197 
L 70.714958 418.517197 
L 70.92779 417.489936 
L 71.140623 413.380892 
L 71.353455 412.867261 
L 71.991953 406.190064 
L 72.204785 405.162803 
L 72.417617 400.540127 
L 72.63045 398.485605 
L 72.843282 398.485605 
L 73.694612 394.376561 
L 73.907445 390.781146 
L 74.33311 388.726624 
L 74.545942 386.158471 
L 74.758774 386.158471 
L 75.184439 384.61758 
L 75.397272 384.103949 
L 75.610104 384.103949 
L 75.822937 383.590318 
L 76.035769 382.049427 
L 76.248602 379.481274 
L 76.461434 378.454013 
L 76.887099 378.454013 
L 77.099932 375.88586 
L 77.312764 374.858599 
L 77.525596 371.263185 
L 77.738429 362.017834 
L 77.951261 361.504204 
L 78.589759 361.504204 
L 79.228256 359.963312 
L 79.441089 354.313376 
L 80.930916 354.313376 
L 81.143748 348.149809 
L 81.356581 348.149809 
L 81.569413 347.636178 
L 82.207911 347.636178 
L 82.420743 346.608917 
L 82.633575 346.608917 
L 82.846408 346.095287 
L 83.05924 343.527134 
L 83.272073 343.013503 
L 83.484905 343.013503 
L 83.697738 341.986242 
L 84.336235 341.986242 
L 84.7619 338.904459 
L 84.974733 338.904459 
L 85.187565 338.390828 
L 85.400397 334.795414 
L 85.61323 334.795414 
L 85.826062 334.281783 
L 88.167219 334.281783 
L 88.380052 333.768153 
L 88.592884 332.227261 
L 89.231382 332.227261 
L 89.444214 331.2 
L 90.082712 331.2 
L 90.295544 330.686369 
L 91.998204 330.686369 
L 92.423869 329.659108 
L 93.488031 329.659108 
L 93.700863 327.090955 
L 93.913696 327.090955 
L 94.339361 324.522803 
L 95.616356 324.522803 
L 95.829188 323.495541 
L 98.170345 323.495541 
L 98.383177 320.927389 
L 98.59601 320.927389 
L 98.808842 320.413758 
L 99.44734 320.413758 
L 99.660172 319.900127 
L 100.085837 319.900127 
L 100.511502 315.277452 
L 100.724335 315.277452 
L 101.149999 313.736561 
L 101.362832 313.22293 
L 102.001329 313.22293 
L 102.214162 312.709299 
L 102.426994 312.709299 
L 102.639827 303.463949 
L 103.491157 303.463949 
L 103.703989 296.273121 
L 104.129654 296.273121 
L 104.342486 289.595924 
L 104.768151 288.568662 
L 106.683643 288.568662 
L 106.896476 284.459618 
L 107.109308 270.591592 
L 107.322141 270.077962 
L 107.960638 270.077962 
L 108.173471 269.564331 
L 108.386303 269.564331 
L 108.599136 269.050701 
L 109.0248 269.050701 
L 109.237633 266.996178 
L 109.450465 266.996178 
L 109.663298 264.941656 
L 110.088963 264.941656 
L 110.301795 263.914395 
L 112.642952 263.914395 
L 112.855785 263.400764 
L 114.984109 263.400764 
L 115.196942 258.264459 
L 116.048272 258.264459 
L 116.261104 257.750828 
L 116.686769 257.750828 
L 116.899601 257.237197 
L 117.112434 254.155414 
L 117.325266 253.128153 
L 117.963764 253.128153 
L 118.176596 252.614522 
L 118.389429 251.587261 
L 119.027926 251.587261 
L 119.240758 251.073631 
L 119.879256 251.073631 
L 120.092088 250.56 
L 121.794748 250.56 
L 122.00758 250.046369 
L 123.071743 250.046369 
L 123.497408 249.019108 
L 123.923073 249.019108 
L 124.135905 247.991847 
L 125.625732 247.991847 
L 126.051397 246.964586 
L 127.115559 246.964586 
L 127.328392 245.937325 
L 127.754057 242.855541 
L 127.966889 242.341911 
L 128.392554 242.341911 
L 128.605387 237.205605 
L 129.243884 237.205605 
L 129.456717 233.096561 
L 129.669549 233.096561 
L 129.882381 231.555669 
L 131.372209 231.555669 
L 131.585041 228.473885 
L 133.287701 228.473885 
L 133.500533 227.446624 
L 134.351863 227.446624 
L 134.564696 226.932994 
L 135.84169 226.932994 
L 136.054523 221.796688 
L 138.182847 221.796688 
L 138.39568 221.283057 
L 141.162502 221.283057 
L 141.375334 220.769427 
L 145.631983 220.769427 
L 145.844816 218.714904 
L 146.696146 218.714904 
L 146.908978 217.687643 
L 147.973141 217.687643 
L 148.185973 217.174013 
L 148.398805 217.174013 
L 148.611638 216.660382 
L 148.82447 216.660382 
L 149.037303 216.146752 
L 149.250135 216.146752 
L 149.462968 215.633121 
L 149.6758 215.633121 
L 149.888633 215.11949 
L 152.22979 215.11949 
L 152.442622 214.60586 
L 153.293952 214.60586 
L 153.719617 208.955924 
L 153.932449 208.442293 
L 154.358114 208.442293 
L 154.570947 206.901401 
L 155.422277 206.901401 
L 155.635109 203.819618 
L 156.486439 203.819618 
L 156.699271 202.792357 
L 159.253261 202.792357 
L 159.466093 201.765096 
L 160.530256 201.765096 
L 160.743088 201.251465 
L 161.381585 201.251465 
L 161.80725 200.224204 
L 162.232915 200.224204 
L 162.445748 199.710573 
L 163.935575 199.710573 
L 164.148407 197.656051 
L 164.999737 197.656051 
L 165.21257 196.115159 
L 166.276732 196.115159 
L 166.489564 194.574268 
L 167.553727 194.574268 
L 167.766559 194.060637 
L 169.256386 194.060637 
L 169.469219 193.547006 
L 169.894884 193.547006 
L 170.107716 193.033376 
L 170.959046 193.033376 
L 171.171879 191.492484 
L 171.384711 190.978854 
L 172.448873 190.978854 
L 172.661706 190.465223 
L 173.087371 190.465223 
L 173.300203 188.410701 
L 173.938701 188.410701 
L 174.151533 187.89707 
L 175.002863 187.89707 
L 175.215695 187.383439 
L 175.854193 187.383439 
L 176.067025 186.869809 
L 176.918355 186.869809 
L 177.131187 186.356178 
L 180.536507 186.356178 
L 180.749339 185.842548 
L 182.239166 185.842548 
L 182.451999 184.301656 
L 184.367491 184.301656 
L 184.580324 183.788025 
L 184.793156 183.788025 
L 185.005988 183.274395 
L 189.901135 183.274395 
L 190.113967 182.760764 
L 200.117093 182.760764 
L 200.329926 182.247134 
L 201.394088 182.247134 
L 201.60692 181.219873 
L 203.948077 181.219873 
L 204.16091 180.706242 
L 204.373742 180.706242 
L 204.586575 179.16535 
L 210.120219 179.16535 
L 210.333051 177.624459 
L 210.545884 177.110828 
L 211.610046 177.110828 
L 211.822878 176.597197 
L 213.312706 176.597197 
L 213.525538 176.083567 
L 214.164035 176.083567 
L 214.376868 175.569936 
L 218.633517 175.569936 
L 218.84635 175.056306 
L 224.592826 175.056306 
L 224.805658 174.542675 
L 225.018491 174.542675 
L 225.444156 168.892739 
L 226.082653 168.892739 
L 226.295486 165.810955 
L 226.508318 165.297325 
L 226.72115 165.297325 
L 226.933983 164.783694 
L 227.998145 164.783694 
L 228.210978 164.270064 
L 230.764967 164.270064 
L 231.403465 162.729172 
L 231.616297 162.729172 
L 231.82913 162.215541 
L 235.234449 162.215541 
L 235.447281 161.701911 
L 236.937109 161.701911 
L 237.575606 160.161019 
L 239.278266 160.161019 
L 239.491098 158.106497 
L 239.703931 158.106497 
L 239.916763 157.079236 
L 242.25792 157.079236 
L 242.470752 156.565605 
L 244.173412 156.565605 
L 244.386245 156.051975 
L 248.004396 156.051975 
L 248.217229 155.538344 
L 254.815035 155.538344 
L 255.2407 154.511083 
L 282.696087 154.511083 
L 282.90892 152.970191 
L 297.381527 152.970191 
L 297.594359 150.915669 
L 297.807192 150.402038 
L 298.020024 145.779363 
L 298.232857 145.265732 
L 298.445689 143.21121 
L 298.658522 143.21121 
L 298.871354 142.69758 
L 299.297019 141.156688 
L 299.509852 141.156688 
L 299.722684 139.615796 
L 301.638176 139.615796 
L 301.851009 137.561274 
L 303.979333 137.561274 
L 304.192166 136.020382 
L 305.894825 136.020382 
L 306.107658 134.47949 
L 307.597485 134.47949 
L 307.810318 133.96586 
L 308.661647 133.96586 
L 308.87448 133.452229 
L 326.752406 133.452229 
L 326.965239 132.938599 
L 333.98871 132.938599 
L 334.201543 131.911338 
L 334.414375 131.911338 
L 334.627207 131.397707 
L 343.566171 131.397707 
L 343.779003 130.884076 
L 357.400281 130.884076 
L 357.613113 128.829554 
L 358.038778 128.829554 
L 358.25161 128.315924 
L 363.785254 128.315924 
L 363.998087 126.261401 
L 365.275082 126.261401 
L 365.700746 125.23414 
L 375.916705 125.23414 
L 375.916705 125.23414 
" clip-path="url(#p7cf892ea9c)" style="fill: none; stroke: #5784db; stroke-width: 1.2; stroke-linecap: round"/>
   </g>
   <g id="line2d_32">
    <path d="M 69.650795 470.393885 
L 69.863628 436.494268 
L 70.289293 419.544459 
L 70.714958 414.921783 
L 70.92779 412.867261 
L 71.77912 400.026497 
L 71.991953 397.458344 
L 72.63045 393.86293 
L 73.268947 389.753885 
L 73.48178 389.240255 
L 73.694612 387.185732 
L 73.907445 383.590318 
L 74.120277 383.590318 
L 74.33311 382.049427 
L 74.545942 379.481274 
L 74.758774 379.481274 
L 74.971607 376.913121 
L 75.184439 376.39949 
L 75.397272 374.858599 
L 75.610104 374.344968 
L 75.822937 369.722293 
L 76.035769 369.208662 
L 76.461434 363.558726 
L 76.887099 363.558726 
L 77.312764 359.963312 
L 77.525596 359.963312 
L 77.738429 355.854268 
L 78.164094 354.313376 
L 78.376926 354.313376 
L 78.589759 353.799745 
L 79.228256 351.231592 
L 79.441089 347.636178 
L 79.653921 347.636178 
L 79.866754 347.122548 
L 80.292418 347.122548 
L 80.718083 346.095287 
L 80.930916 346.095287 
L 81.143748 340.958981 
L 81.356581 340.958981 
L 81.569413 340.44535 
L 82.207911 340.44535 
L 82.420743 339.418089 
L 82.633575 339.418089 
L 82.846408 338.390828 
L 83.05924 335.822675 
L 83.272073 335.309045 
L 83.484905 335.309045 
L 84.123403 333.768153 
L 84.336235 333.768153 
L 84.974733 331.2 
L 85.187565 330.686369 
L 85.400397 327.604586 
L 85.61323 327.604586 
L 85.826062 327.090955 
L 86.038895 327.090955 
L 86.251727 326.063694 
L 86.677392 326.063694 
L 86.890225 325.550064 
L 87.741555 325.550064 
L 87.954387 325.036433 
L 88.167219 325.036433 
L 88.805717 323.495541 
L 89.231382 323.495541 
L 89.444214 321.95465 
L 90.082712 321.95465 
L 90.295544 321.441019 
L 90.508376 321.441019 
L 90.721209 320.927389 
L 90.934041 320.927389 
L 91.146874 320.413758 
L 91.785371 317.845605 
L 91.998204 317.845605 
L 92.636701 316.304713 
L 93.488031 316.304713 
L 94.126528 311.682038 
L 94.339361 311.168408 
L 95.616356 311.168408 
L 95.829188 310.141146 
L 97.531848 310.141146 
L 97.74468 308.086624 
L 98.170345 308.086624 
L 98.383177 307.572994 
L 98.59601 307.572994 
L 98.808842 307.059363 
L 99.021675 307.059363 
L 99.234507 305.518471 
L 99.44734 305.004841 
L 99.660172 303.97758 
L 100.085837 303.97758 
L 100.511502 299.868535 
L 100.724335 299.868535 
L 101.149999 298.327643 
L 101.575664 297.300382 
L 101.788497 292.677707 
L 102.001329 292.677707 
L 102.214162 291.650446 
L 102.426994 291.650446 
L 102.639827 288.055032 
L 102.852659 288.055032 
L 103.491157 284.973248 
L 103.703989 279.836943 
L 104.129654 279.836943 
L 104.342486 273.159745 
L 104.768151 272.132484 
L 105.193816 272.132484 
L 105.406649 271.618854 
L 106.683643 271.618854 
L 106.896476 267.509809 
L 107.109308 253.641783 
L 107.322141 253.128153 
L 107.960638 253.128153 
L 108.173471 252.614522 
L 108.386303 252.614522 
L 108.599136 252.100892 
L 109.0248 252.100892 
L 109.237633 250.046369 
L 109.450465 250.046369 
L 109.663298 247.991847 
L 109.87613 247.478217 
L 110.088963 247.478217 
L 110.301795 246.964586 
L 111.365957 246.964586 
L 111.57879 246.450955 
L 112.642952 246.450955 
L 113.068617 245.423694 
L 113.28145 244.396433 
L 114.132779 244.396433 
L 114.345612 243.882803 
L 114.558444 243.882803 
L 114.771277 242.341911 
L 114.984109 242.341911 
L 115.196942 240.801019 
L 115.409774 240.287389 
L 115.835439 240.287389 
L 116.261104 239.260127 
L 116.686769 239.260127 
L 116.899601 238.746497 
L 117.112434 236.691975 
L 117.325266 236.178344 
L 117.750931 236.178344 
L 117.963764 235.664713 
L 118.176596 235.664713 
L 118.389429 234.123822 
L 119.879256 234.123822 
L 120.092088 233.096561 
L 122.85891 233.096561 
L 123.497408 231.555669 
L 125.4129 231.555669 
L 125.838565 230.528408 
L 126.689895 230.528408 
L 126.902727 230.014777 
L 127.115559 230.014777 
L 127.328392 229.501146 
L 127.754057 226.419363 
L 127.966889 225.905732 
L 128.392554 225.905732 
L 128.605387 220.769427 
L 129.031052 220.769427 
L 129.243884 220.255796 
L 129.456717 216.660382 
L 129.669549 216.146752 
L 129.882381 215.11949 
L 130.946544 215.11949 
L 131.159376 214.60586 
L 131.585041 211.524076 
L 133.287701 211.524076 
L 133.500533 209.983185 
L 133.713366 209.983185 
L 133.926198 205.87414 
L 134.139031 205.36051 
L 134.351863 205.36051 
L 134.564696 204.846879 
L 138.182847 204.846879 
L 138.39568 204.333248 
L 141.162502 204.333248 
L 141.375334 203.819618 
L 145.631983 203.819618 
L 145.844816 201.765096 
L 146.696146 201.765096 
L 146.908978 200.737834 
L 147.973141 200.737834 
L 148.185973 200.224204 
L 148.398805 200.224204 
L 148.611638 199.710573 
L 148.82447 199.710573 
L 149.037303 199.196943 
L 149.250135 199.196943 
L 149.462968 198.683312 
L 149.6758 198.683312 
L 149.888633 198.169682 
L 151.37846 198.169682 
L 151.804125 195.601529 
L 152.22979 195.601529 
L 152.655455 194.574268 
L 152.868287 194.574268 
L 153.08112 194.060637 
L 153.293952 194.060637 
L 153.506784 193.033376 
L 153.719617 190.978854 
L 153.932449 190.465223 
L 154.358114 190.465223 
L 154.570947 187.383439 
L 154.996612 185.842548 
L 155.209444 185.328917 
L 155.422277 185.328917 
L 155.635109 184.301656 
L 156.273606 184.301656 
L 156.486439 183.788025 
L 157.337769 183.788025 
L 157.550601 183.274395 
L 159.040428 183.274395 
L 159.466093 182.247134 
L 160.530256 182.247134 
L 160.743088 181.733503 
L 161.381585 181.733503 
L 161.80725 180.706242 
L 162.232915 180.706242 
L 162.65858 179.678981 
L 163.084245 179.678981 
L 163.297078 179.16535 
L 163.50991 179.16535 
L 163.722743 177.624459 
L 164.786905 177.624459 
L 165.21257 176.597197 
L 166.0639 176.597197 
L 166.489564 175.056306 
L 167.553727 175.056306 
L 167.766559 174.542675 
L 168.192224 174.542675 
L 168.405057 174.029045 
L 169.894884 174.029045 
L 170.107716 173.515414 
L 170.959046 173.515414 
L 171.171879 171.974522 
L 171.384711 171.460892 
L 173.087371 171.460892 
L 173.300203 169.406369 
L 173.938701 169.406369 
L 174.151533 168.892739 
L 175.002863 168.892739 
L 175.215695 168.379108 
L 175.854193 168.379108 
L 176.067025 167.865478 
L 176.918355 167.865478 
L 177.131187 167.351847 
L 180.536507 167.351847 
L 180.962172 166.324586 
L 181.175004 165.297325 
L 184.367491 165.297325 
L 184.793156 164.270064 
L 186.921481 164.270064 
L 187.347146 163.242803 
L 189.901135 163.242803 
L 190.113967 162.729172 
L 190.965297 162.729172 
L 191.17813 162.215541 
L 195.860444 162.215541 
L 196.073276 161.701911 
L 200.117093 161.701911 
L 200.329926 161.18828 
L 201.394088 161.18828 
L 201.60692 160.161019 
L 203.948077 160.161019 
L 204.16091 153.483822 
L 205.863569 153.483822 
L 206.076402 152.970191 
L 208.417559 152.970191 
L 208.630391 152.456561 
L 209.907386 152.456561 
L 210.333051 150.915669 
L 213.312706 150.915669 
L 213.525538 150.402038 
L 214.164035 150.402038 
L 214.376868 149.888408 
L 219.697679 149.888408 
L 219.910512 148.861146 
L 224.379993 148.861146 
L 224.592826 148.347516 
L 224.805658 146.806624 
L 225.018491 146.292994 
L 225.231323 143.21121 
L 225.444156 142.69758 
L 225.656988 140.129427 
L 225.869821 140.129427 
L 226.508318 138.588535 
L 226.72115 138.588535 
L 226.933983 138.074904 
L 227.146815 138.074904 
L 227.359648 137.561274 
L 227.998145 137.561274 
L 228.210978 137.047643 
L 229.062308 137.047643 
L 229.27514 136.020382 
L 230.9778 136.020382 
L 231.403465 134.993121 
L 231.616297 134.993121 
L 231.82913 134.47949 
L 235.234449 134.47949 
L 235.447281 133.96586 
L 237.149941 133.96586 
L 237.362773 133.452229 
L 237.575606 131.911338 
L 238.001271 130.884076 
L 239.703931 130.884076 
L 239.916763 129.856815 
L 242.045088 129.856815 
L 242.25792 129.343185 
L 244.173412 129.343185 
L 244.386245 128.829554 
L 248.004396 128.829554 
L 248.217229 128.315924 
L 254.815035 128.315924 
L 255.2407 127.288662 
L 256.304862 127.288662 
L 256.517695 126.775032 
L 262.689836 126.775032 
L 262.902669 126.261401 
L 269.713307 126.261401 
L 269.92614 125.747771 
L 271.415967 125.747771 
L 271.628799 125.23414 
L 273.118627 125.23414 
L 273.969956 123.179618 
L 274.182789 123.179618 
L 274.395621 122.665987 
L 274.821286 122.665987 
L 275.034119 122.152357 
L 276.098281 122.152357 
L 276.523946 121.125096 
L 280.780595 121.125096 
L 280.993428 120.611465 
L 291.422218 120.611465 
L 291.635051 120.097834 
L 297.381527 120.097834 
L 297.594359 118.043312 
L 297.807192 117.529682 
L 298.020024 112.907006 
L 298.232857 112.393376 
L 298.445689 110.338854 
L 298.658522 110.338854 
L 298.871354 109.825223 
L 299.297019 108.284331 
L 299.509852 107.770701 
L 299.935517 106.229809 
L 301.638176 106.229809 
L 301.851009 103.661656 
L 302.915171 103.661656 
L 303.128003 101.607134 
L 303.979333 101.607134 
L 304.192166 101.093503 
L 305.894825 101.093503 
L 306.107658 100.066242 
L 307.597485 100.066242 
L 307.810318 99.552611 
L 308.661647 99.552611 
L 308.87448 99.038981 
L 318.664773 99.038981 
L 318.877605 98.52535 
L 326.752406 98.52535 
L 326.965239 98.01172 
L 333.775878 98.01172 
L 333.98871 97.498089 
L 334.201543 96.470828 
L 343.566171 96.470828 
L 343.779003 95.957197 
L 352.717966 95.957197 
L 352.930799 94.416306 
L 356.548951 94.416306 
L 356.974616 93.389045 
L 357.187448 93.389045 
L 357.400281 92.875414 
L 358.038778 92.875414 
L 358.25161 92.361783 
L 361.231265 92.361783 
L 361.444097 90.307261 
L 361.65693 90.307261 
L 361.869762 89.793631 
L 365.275082 89.793631 
L 365.487914 89.28 
L 375.916705 89.28 
L 375.916705 89.28 
" clip-path="url(#p7cf892ea9c)" style="fill: none; stroke: #c957db; stroke-width: 1.2; stroke-linecap: round"/>
   </g>
   <g id="line2d_33"/>
   <g id="line2d_34"/>
   <g id="line2d_35"/>
   <g id="line2d_36"/>
   <g id="line2d_37"/>
   <g id="patch_3">
    <path d="M 54.3375 512.64 
L 54.3375 69.12 
" style="fill: none; stroke: #cccccc; stroke-linejoin: miter; stroke-linecap: square"/>
   </g>
   <g id="patch_4">
    <path d="M 54.3375 512.64 
L 391.23 512.64 
" style="fill: none; stroke: #cccccc; stroke-linejoin: miter; stroke-linecap: square"/>
   </g>
   <g id="text_30">
    <!-- Edge Coverage History -->
    <g style="fill: #262626" transform="translate(115.892262 63.12)scale(0.165888 -0.165888)">
     <defs>
      <path id="DejaVuSans-Bold-45" d="M 588 4666 
L 3834 4666 
L 3834 3756 
L 1791 3756 
L 1791 2888 
L 3713 2888 
L 3713 1978 
L 1791 1978 
L 1791 909 
L 3903 909 
L 3903 0 
L 588 0 
L 588 4666 
z
" transform="scale(0.015625)"/>
      <path id="DejaVuSans-Bold-64" d="M 2919 2988 
L 2919 4863 
L 4044 4863 
L 4044 0 
L 2919 0 
L 2919 506 
Q 2688 197 2409 53 
Q 2131 -91 1766 -91 
Q 1119 -91 703 423 
Q 288 938 288 1747 
Q 288 2556 703 3070 
Q 1119 3584 1766 3584 
Q 2128 3584 2408 3439 
Q 2688 3294 2919 2988 
z
M 2181 722 
Q 2541 722 2730 984 
Q 2919 1247 2919 1747 
Q 2919 2247 2730 2509 
Q 2541 2772 2181 2772 
Q 1825 2772 1636 2509 
Q 1447 2247 1447 1747 
Q 1447 1247 1636 984 
Q 1825 722 2181 722 
z
" transform="scale(0.015625)"/>
      <path id="DejaVuSans-Bold-67" d="M 2919 594 
Q 2688 288 2409 144 
Q 2131 0 1766 0 
Q 1125 0 706 504 
Q 288 1009 288 1791 
Q 288 2575 706 3076 
Q 1125 3578 1766 3578 
Q 2131 3578 2409 3434 
Q 2688 3291 2919 2981 
L 2919 3500 
L 4044 3500 
L 4044 353 
Q 4044 -491 3511 -936 
Q 2978 -1381 1966 -1381 
Q 1638 -1381 1331 -1331 
Q 1025 -1281 716 -1178 
L 716 -306 
Q 1009 -475 1290 -558 
Q 1572 -641 1856 -641 
Q 2406 -641 2662 -400 
Q 2919 -159 2919 353 
L 2919 594 
z
M 2181 2772 
Q 1834 2772 1640 2515 
Q 1447 2259 1447 1791 
Q 1447 1309 1634 1061 
Q 1822 813 2181 813 
Q 2531 813 2725 1069 
Q 2919 1325 2919 1791 
Q 2919 2259 2725 2515 
Q 2531 2772 2181 2772 
z
" transform="scale(0.015625)"/>
      <path id="DejaVuSans-Bold-65" d="M 4031 1759 
L 4031 1441 
L 1416 1441 
Q 1456 1047 1700 850 
Q 1944 653 2381 653 
Q 2734 653 3104 758 
Q 3475 863 3866 1075 
L 3866 213 
Q 3469 63 3072 -14 
Q 2675 -91 2278 -91 
Q 1328 -91 801 392 
Q 275 875 275 1747 
Q 275 2603 792 3093 
Q 1309 3584 2216 3584 
Q 3041 3584 3536 3087 
Q 4031 2591 4031 1759 
z
M 2881 2131 
Q 2881 2450 2695 2645 
Q 2509 2841 2209 2841 
Q 1884 2841 1681 2658 
Q 1478 2475 1428 2131 
L 2881 2131 
z
" transform="scale(0.015625)"/>
      <path id="DejaVuSans-Bold-20" transform="scale(0.015625)"/>
      <path id="DejaVuSans-Bold-43" d="M 4288 256 
Q 3956 84 3597 -3 
Q 3238 -91 2847 -91 
Q 1681 -91 1000 561 
Q 319 1213 319 2328 
Q 319 3447 1000 4098 
Q 1681 4750 2847 4750 
Q 3238 4750 3597 4662 
Q 3956 4575 4288 4403 
L 4288 3438 
Q 3953 3666 3628 3772 
Q 3303 3878 2944 3878 
Q 2300 3878 1931 3465 
Q 1563 3053 1563 2328 
Q 1563 1606 1931 1193 
Q 2300 781 2944 781 
Q 3303 781 3628 887 
Q 3953 994 4288 1222 
L 4288 256 
z
" transform="scale(0.015625)"/>
      <path id="DejaVuSans-Bold-6f" d="M 2203 2784 
Q 1831 2784 1636 2517 
Q 1441 2250 1441 1747 
Q 1441 1244 1636 976 
Q 1831 709 2203 709 
Q 2569 709 2762 976 
Q 2956 1244 2956 1747 
Q 2956 2250 2762 2517 
Q 2569 2784 2203 2784 
z
M 2203 3584 
Q 3106 3584 3614 3096 
Q 4122 2609 4122 1747 
Q 4122 884 3614 396 
Q 3106 -91 2203 -91 
Q 1297 -91 786 396 
Q 275 884 275 1747 
Q 275 2609 786 3096 
Q 1297 3584 2203 3584 
z
" transform="scale(0.015625)"/>
      <path id="DejaVuSans-Bold-76" d="M 97 3500 
L 1216 3500 
L 2088 1081 
L 2956 3500 
L 4078 3500 
L 2700 0 
L 1472 0 
L 97 3500 
z
" transform="scale(0.015625)"/>
      <path id="DejaVuSans-Bold-72" d="M 3138 2547 
Q 2991 2616 2845 2648 
Q 2700 2681 2553 2681 
Q 2122 2681 1889 2404 
Q 1656 2128 1656 1613 
L 1656 0 
L 538 0 
L 538 3500 
L 1656 3500 
L 1656 2925 
Q 1872 3269 2151 3426 
Q 2431 3584 2822 3584 
Q 2878 3584 2943 3579 
Q 3009 3575 3134 3559 
L 3138 2547 
z
" transform="scale(0.015625)"/>
      <path id="DejaVuSans-Bold-61" d="M 2106 1575 
Q 1756 1575 1579 1456 
Q 1403 1338 1403 1106 
Q 1403 894 1545 773 
Q 1688 653 1941 653 
Q 2256 653 2472 879 
Q 2688 1106 2688 1447 
L 2688 1575 
L 2106 1575 
z
M 3816 1997 
L 3816 0 
L 2688 0 
L 2688 519 
Q 2463 200 2181 54 
Q 1900 -91 1497 -91 
Q 953 -91 614 226 
Q 275 544 275 1050 
Q 275 1666 698 1953 
Q 1122 2241 2028 2241 
L 2688 2241 
L 2688 2328 
Q 2688 2594 2478 2717 
Q 2269 2841 1825 2841 
Q 1466 2841 1156 2769 
Q 847 2697 581 2553 
L 581 3406 
Q 941 3494 1303 3539 
Q 1666 3584 2028 3584 
Q 2975 3584 3395 3211 
Q 3816 2838 3816 1997 
z
" transform="scale(0.015625)"/>
      <path id="DejaVuSans-Bold-48" d="M 588 4666 
L 1791 4666 
L 1791 2888 
L 3566 2888 
L 3566 4666 
L 4769 4666 
L 4769 0 
L 3566 0 
L 3566 1978 
L 1791 1978 
L 1791 0 
L 588 0 
L 588 4666 
z
" transform="scale(0.015625)"/>
      <path id="DejaVuSans-Bold-69" d="M 538 3500 
L 1656 3500 
L 1656 0 
L 538 0 
L 538 3500 
z
M 538 4863 
L 1656 4863 
L 1656 3950 
L 538 3950 
L 538 4863 
z
" transform="scale(0.015625)"/>
      <path id="DejaVuSans-Bold-73" d="M 3272 3391 
L 3272 2541 
Q 2913 2691 2578 2766 
Q 2244 2841 1947 2841 
Q 1628 2841 1473 2761 
Q 1319 2681 1319 2516 
Q 1319 2381 1436 2309 
Q 1553 2238 1856 2203 
L 2053 2175 
Q 2913 2066 3209 1816 
Q 3506 1566 3506 1031 
Q 3506 472 3093 190 
Q 2681 -91 1863 -91 
Q 1516 -91 1145 -36 
Q 775 19 384 128 
L 384 978 
Q 719 816 1070 734 
Q 1422 653 1784 653 
Q 2113 653 2278 743 
Q 2444 834 2444 1013 
Q 2444 1163 2330 1236 
Q 2216 1309 1875 1350 
L 1678 1375 
Q 931 1469 631 1722 
Q 331 1975 331 2491 
Q 331 3047 712 3315 
Q 1094 3584 1881 3584 
Q 2191 3584 2531 3537 
Q 2872 3491 3272 3391 
z
" transform="scale(0.015625)"/>
      <path id="DejaVuSans-Bold-74" d="M 1759 4494 
L 1759 3500 
L 2913 3500 
L 2913 2700 
L 1759 2700 
L 1759 1216 
Q 1759 972 1856 886 
Q 1953 800 2241 800 
L 2816 800 
L 2816 0 
L 1856 0 
Q 1194 0 917 276 
Q 641 553 641 1216 
L 641 2700 
L 84 2700 
L 84 3500 
L 641 3500 
L 641 4494 
L 1759 4494 
z
" transform="scale(0.015625)"/>
      <path id="DejaVuSans-Bold-79" d="M 78 3500 
L 1197 3500 
L 2138 1125 
L 2938 3500 
L 4056 3500 
L 2584 -331 
Q 2363 -916 2067 -1148 
Q 1772 -1381 1288 -1381 
L 641 -1381 
L 641 -647 
L 991 -647 
Q 1275 -647 1404 -556 
Q 1534 -466 1606 -231 
L 1638 -134 
L 78 3500 
z
" transform="scale(0.015625)"/>
     </defs>
     <use xlink:href="#DejaVuSans-Bold-45"/>
     <use xlink:href="#DejaVuSans-Bold-64" x="68.310547"/>
     <use xlink:href="#DejaVuSans-Bold-67" x="139.892578"/>
     <use xlink:href="#DejaVuSans-Bold-65" x="211.474609"/>
     <use xlink:href="#DejaVuSans-Bold-20" x="279.296875"/>
     <use xlink:href="#DejaVuSans-Bold-43" x="314.111328"/>
     <use xlink:href="#DejaVuSans-Bold-6f" x="387.5"/>
     <use xlink:href="#DejaVuSans-Bold-76" x="456.201172"/>
     <use xlink:href="#DejaVuSans-Bold-65" x="521.386719"/>
     <use xlink:href="#DejaVuSans-Bold-72" x="589.208984"/>
     <use xlink:href="#DejaVuSans-Bold-61" x="638.525391"/>
     <use xlink:href="#DejaVuSans-Bold-67" x="706.005859"/>
     <use xlink:href="#DejaVuSans-Bold-65" x="777.587891"/>
     <use xlink:href="#DejaVuSans-Bold-20" x="845.410156"/>
     <use xlink:href="#DejaVuSans-Bold-48" x="880.224609"/>
     <use xlink:href="#DejaVuSans-Bold-69" x="963.916016"/>
     <use xlink:href="#DejaVuSans-Bold-73" x="998.193359"/>
     <use xlink:href="#DejaVuSans-Bold-74" x="1057.714844"/>
     <use xlink:href="#DejaVuSans-Bold-6f" x="1105.517578"/>
     <use xlink:href="#DejaVuSans-Bold-72" x="1174.21875"/>
     <use xlink:href="#DejaVuSans-Bold-79" x="1223.535156"/>
    </g>
   </g>
   <g id="legend_1">
    <g id="patch_5">
     <path d="M 60.4975 154.6795 
L 172.0265 154.6795 
Q 173.7865 154.6795 173.7865 152.9195 
L 173.7865 75.28 
Q 173.7865 73.52 172.0265 73.52 
L 60.4975 73.52 
Q 58.7375 73.52 58.7375 75.28 
L 58.7375 152.9195 
Q 58.7375 154.6795 60.4975 154.6795 
z
" style="fill: #ffffff; opacity: 0.8; stroke: #cccccc; stroke-width: 0.8; stroke-linejoin: miter"/>
    </g>
    <g id="text_31">
     <!-- fuzzer -->
     <g style="fill: #262626" transform="translate(101.565 84.3345)scale(0.096 -0.096)">
      <defs>
       <path id="DejaVuSans-66" d="M 2375 4863 
L 2375 4384 
L 1825 4384 
Q 1516 4384 1395 4259 
Q 1275 4134 1275 3809 
L 1275 3500 
L 2222 3500 
L 2222 3053 
L 1275 3053 
L 1275 0 
L 697 0 
L 697 3053 
L 147 3053 
L 147 3500 
L 697 3500 
L 697 3744 
Q 697 4328 969 4595 
Q 1241 4863 1831 4863 
L 2375 4863 
z
" transform="scale(0.015625)"/>
       <path id="DejaVuSans-7a" d="M 353 3500 
L 3084 3500 
L 3084 2975 
L 922 459 
L 3084 459 
L 3084 0 
L 275 0 
L 275 525 
L 2438 3041 
L 353 3041 
L 353 3500 
z
" transform="scale(0.015625)"/>
      </defs>
      <use xlink:href="#DejaVuSans-66"/>
      <use xlink:href="#DejaVuSans-75" x="35.205078"/>
      <use xlink:href="#DejaVuSans-7a" x="98.583984"/>
      <use xlink:href="#DejaVuSans-7a" x="151.074219"/>
      <use xlink:href="#DejaVuSans-65" x="203.564453"/>
      <use xlink:href="#DejaVuSans-72" x="265.087891"/>
     </g>
    </g>
    <g id="line2d_38">
     <path d="M 62.2575 94.337625 
L 71.0575 94.337625 
L 79.8575 94.337625 
" style="fill: none; stroke: #db5f57; stroke-width: 1.2; stroke-linecap: round"/>
    </g>
    <g id="text_32">
     <!-- fairfuzz-0-exid2 -->
     <g style="fill: #262626" transform="translate(86.8975 97.417625)scale(0.088 -0.088)">
      <defs>
       <path id="DejaVuSans-2d" d="M 313 2009 
L 1997 2009 
L 1997 1497 
L 313 1497 
L 313 2009 
z
" transform="scale(0.015625)"/>
       <path id="DejaVuSans-78" d="M 3513 3500 
L 2247 1797 
L 3578 0 
L 2900 0 
L 1881 1375 
L 863 0 
L 184 0 
L 1544 1831 
L 300 3500 
L 978 3500 
L 1906 2253 
L 2834 3500 
L 3513 3500 
z
" transform="scale(0.015625)"/>
      </defs>
      <use xlink:href="#DejaVuSans-66"/>
      <use xlink:href="#DejaVuSans-61" x="35.205078"/>
      <use xlink:href="#DejaVuSans-69" x="96.484375"/>
      <use xlink:href="#DejaVuSans-72" x="124.267578"/>
      <use xlink:href="#DejaVuSans-66" x="165.380859"/>
      <use xlink:href="#DejaVuSans-75" x="200.585938"/>
      <use xlink:href="#DejaVuSans-7a" x="263.964844"/>
      <use xlink:href="#DejaVuSans-7a" x="316.455078"/>
      <use xlink:href="#DejaVuSans-2d" x="368.945312"/>
      <use xlink:href="#DejaVuSans-30" x="405.029297"/>
      <use xlink:href="#DejaVuSans-2d" x="468.652344"/>
      <use xlink:href="#DejaVuSans-65" x="504.736328"/>
      <use xlink:href="#DejaVuSans-78" x="564.509766"/>
      <use xlink:href="#DejaVuSans-69" x="623.689453"/>
      <use xlink:href="#DejaVuSans-64" x="651.472656"/>
      <use xlink:href="#DejaVuSans-32" x="714.949219"/>
     </g>
    </g>
    <g id="line2d_39">
     <path d="M 62.2575 107.254375 
L 71.0575 107.254375 
L 79.8575 107.254375 
" style="fill: none; stroke: #b9db57; stroke-width: 1.2; stroke-linecap: round"/>
    </g>
    <g id="text_33">
     <!-- aflplusplus-0-exid2 -->
     <g style="fill: #262626" transform="translate(86.8975 110.334375)scale(0.088 -0.088)">
      <defs>
       <path id="DejaVuSans-6c" d="M 603 4863 
L 1178 4863 
L 1178 0 
L 603 0 
L 603 4863 
z
" transform="scale(0.015625)"/>
       <path id="DejaVuSans-70" d="M 1159 525 
L 1159 -1331 
L 581 -1331 
L 581 3500 
L 1159 3500 
L 1159 2969 
Q 1341 3281 1617 3432 
Q 1894 3584 2278 3584 
Q 2916 3584 3314 3078 
Q 3713 2572 3713 1747 
Q 3713 922 3314 415 
Q 2916 -91 2278 -91 
Q 1894 -91 1617 61 
Q 1341 213 1159 525 
z
M 3116 1747 
Q 3116 2381 2855 2742 
Q 2594 3103 2138 3103 
Q 1681 3103 1420 2742 
Q 1159 2381 1159 1747 
Q 1159 1113 1420 752 
Q 1681 391 2138 391 
Q 2594 391 2855 752 
Q 3116 1113 3116 1747 
z
" transform="scale(0.015625)"/>
      </defs>
      <use xlink:href="#DejaVuSans-61"/>
      <use xlink:href="#DejaVuSans-66" x="61.279297"/>
      <use xlink:href="#DejaVuSans-6c" x="96.484375"/>
      <use xlink:href="#DejaVuSans-70" x="124.267578"/>
      <use xlink:href="#DejaVuSans-6c" x="187.744141"/>
      <use xlink:href="#DejaVuSans-75" x="215.527344"/>
      <use xlink:href="#DejaVuSans-73" x="278.90625"/>
      <use xlink:href="#DejaVuSans-70" x="331.005859"/>
      <use xlink:href="#DejaVuSans-6c" x="394.482422"/>
      <use xlink:href="#DejaVuSans-75" x="422.265625"/>
      <use xlink:href="#DejaVuSans-73" x="485.644531"/>
      <use xlink:href="#DejaVuSans-2d" x="537.744141"/>
      <use xlink:href="#DejaVuSans-30" x="573.828125"/>
      <use xlink:href="#DejaVuSans-2d" x="637.451172"/>
      <use xlink:href="#DejaVuSans-65" x="673.535156"/>
      <use xlink:href="#DejaVuSans-78" x="733.308594"/>
      <use xlink:href="#DejaVuSans-69" x="792.488281"/>
      <use xlink:href="#DejaVuSans-64" x="820.271484"/>
      <use xlink:href="#DejaVuSans-32" x="883.748047"/>
     </g>
    </g>
    <g id="line2d_40">
     <path d="M 62.2575 120.171125 
L 71.0575 120.171125 
L 79.8575 120.171125 
" style="fill: none; stroke: #57db94; stroke-width: 1.2; stroke-linecap: round"/>
    </g>
    <g id="text_34">
     <!-- mopt-0-exid2 -->
     <g style="fill: #262626" transform="translate(86.8975 123.251125)scale(0.088 -0.088)">
      <use xlink:href="#DejaVuSans-6d"/>
      <use xlink:href="#DejaVuSans-6f" x="97.412109"/>
      <use xlink:href="#DejaVuSans-70" x="158.59375"/>
      <use xlink:href="#DejaVuSans-74" x="222.070312"/>
      <use xlink:href="#DejaVuSans-2d" x="261.279297"/>
      <use xlink:href="#DejaVuSans-30" x="297.363281"/>
      <use xlink:href="#DejaVuSans-2d" x="360.986328"/>
      <use xlink:href="#DejaVuSans-65" x="397.070312"/>
      <use xlink:href="#DejaVuSans-78" x="456.84375"/>
      <use xlink:href="#DejaVuSans-69" x="516.023438"/>
      <use xlink:href="#DejaVuSans-64" x="543.806641"/>
      <use xlink:href="#DejaVuSans-32" x="607.283203"/>
     </g>
    </g>
    <g id="line2d_41">
     <path d="M 62.2575 133.087875 
L 71.0575 133.087875 
L 79.8575 133.087875 
" style="fill: none; stroke: #5784db; stroke-width: 1.2; stroke-linecap: round"/>
    </g>
    <g id="text_35">
     <!-- symcc-0-exid2 -->
     <g style="fill: #262626" transform="translate(86.8975 136.167875)scale(0.088 -0.088)">
      <defs>
       <path id="DejaVuSans-79" d="M 2059 -325 
Q 1816 -950 1584 -1140 
Q 1353 -1331 966 -1331 
L 506 -1331 
L 506 -850 
L 844 -850 
Q 1081 -850 1212 -737 
Q 1344 -625 1503 -206 
L 1606 56 
L 191 3500 
L 800 3500 
L 1894 763 
L 2988 3500 
L 3597 3500 
L 2059 -325 
z
" transform="scale(0.015625)"/>
       <path id="DejaVuSans-63" d="M 3122 3366 
L 3122 2828 
Q 2878 2963 2633 3030 
Q 2388 3097 2138 3097 
Q 1578 3097 1268 2742 
Q 959 2388 959 1747 
Q 959 1106 1268 751 
Q 1578 397 2138 397 
Q 2388 397 2633 464 
Q 2878 531 3122 666 
L 3122 134 
Q 2881 22 2623 -34 
Q 2366 -91 2075 -91 
Q 1284 -91 818 406 
Q 353 903 353 1747 
Q 353 2603 823 3093 
Q 1294 3584 2113 3584 
Q 2378 3584 2631 3529 
Q 2884 3475 3122 3366 
z
" transform="scale(0.015625)"/>
      </defs>
      <use xlink:href="#DejaVuSans-73"/>
      <use xlink:href="#DejaVuSans-79" x="52.099609"/>
      <use xlink:href="#DejaVuSans-6d" x="111.279297"/>
      <use xlink:href="#DejaVuSans-63" x="208.691406"/>
      <use xlink:href="#DejaVuSans-63" x="263.671875"/>
      <use xlink:href="#DejaVuSans-2d" x="318.652344"/>
      <use xlink:href="#DejaVuSans-30" x="354.736328"/>
      <use xlink:href="#DejaVuSans-2d" x="418.359375"/>
      <use xlink:href="#DejaVuSans-65" x="454.443359"/>
      <use xlink:href="#DejaVuSans-78" x="514.216797"/>
      <use xlink:href="#DejaVuSans-69" x="573.396484"/>
      <use xlink:href="#DejaVuSans-64" x="601.179688"/>
      <use xlink:href="#DejaVuSans-32" x="664.65625"/>
     </g>
    </g>
    <g id="line2d_42">
     <path d="M 62.2575 146.004625 
L 71.0575 146.004625 
L 79.8575 146.004625 
" style="fill: none; stroke: #c957db; stroke-width: 1.2; stroke-linecap: round"/>
    </g>
    <g id="text_36">
     <!-- fuzzer_global -->
     <g style="fill: #262626" transform="translate(86.8975 149.084625)scale(0.088 -0.088)">
      <defs>
       <path id="DejaVuSans-5f" d="M 3263 -1063 
L 3263 -1509 
L -63 -1509 
L -63 -1063 
L 3263 -1063 
z
" transform="scale(0.015625)"/>
       <path id="DejaVuSans-62" d="M 3116 1747 
Q 3116 2381 2855 2742 
Q 2594 3103 2138 3103 
Q 1681 3103 1420 2742 
Q 1159 2381 1159 1747 
Q 1159 1113 1420 752 
Q 1681 391 2138 391 
Q 2594 391 2855 752 
Q 3116 1113 3116 1747 
z
M 1159 2969 
Q 1341 3281 1617 3432 
Q 1894 3584 2278 3584 
Q 2916 3584 3314 3078 
Q 3713 2572 3713 1747 
Q 3713 922 3314 415 
Q 2916 -91 2278 -91 
Q 1894 -91 1617 61 
Q 1341 213 1159 525 
L 1159 0 
L 581 0 
L 581 4863 
L 1159 4863 
L 1159 2969 
z
" transform="scale(0.015625)"/>
      </defs>
      <use xlink:href="#DejaVuSans-66"/>
      <use xlink:href="#DejaVuSans-75" x="35.205078"/>
      <use xlink:href="#DejaVuSans-7a" x="98.583984"/>
      <use xlink:href="#DejaVuSans-7a" x="151.074219"/>
      <use xlink:href="#DejaVuSans-65" x="203.564453"/>
      <use xlink:href="#DejaVuSans-72" x="265.087891"/>
      <use xlink:href="#DejaVuSans-5f" x="306.201172"/>
      <use xlink:href="#DejaVuSans-67" x="356.201172"/>
      <use xlink:href="#DejaVuSans-6c" x="419.677734"/>
      <use xlink:href="#DejaVuSans-6f" x="447.460938"/>
      <use xlink:href="#DejaVuSans-62" x="508.642578"/>
      <use xlink:href="#DejaVuSans-61" x="572.119141"/>
      <use xlink:href="#DejaVuSans-6c" x="633.398438"/>
     </g>
    </g>
   </g>
  </g>
 </g>
 <defs>
  <clipPath id="p7cf892ea9c">
   <rect x="54.3375" y="69.12" width="336.8925" height="443.52"/>
  </clipPath>
 </defs>
</svg>
