<?xml version="1.0" encoding="utf-8" standalone="no"?>
<!DOCTYPE svg PUBLIC "-//W3C//DTD SVG 1.1//EN"
  "http://www.w3.org/Graphics/SVG/1.1/DTD/svg11.dtd">
<svg xmlns:xlink="http://www.w3.org/1999/xlink" width="434.7pt" height="576pt" viewBox="0 0 434.7 576" xmlns="http://www.w3.org/2000/svg" version="1.1">
 <metadata>
  <rdf:RDF xmlns:dc="http://purl.org/dc/elements/1.1/" xmlns:cc="http://creativecommons.org/ns#" xmlns:rdf="http://www.w3.org/1999/02/22-rdf-syntax-ns#">
   <cc:Work>
    <dc:type rdf:resource="http://purl.org/dc/dcmitype/StillImage"/>
    <dc:date>2022-09-15T10:57:17.169928</dc:date>
    <dc:format>image/svg+xml</dc:format>
    <dc:creator>
     <cc:Agent>
      <dc:title>Matplotlib v3.5.3, https://matplotlib.org/</dc:title>
     </cc:Agent>
    </dc:creator>
   </cc:Work>
  </rdf:RDF>
 </metadata>
 <defs>
  <style type="text/css">*{stroke-linejoin: round; stroke-linecap: butt}</style>
 </defs>
 <g id="figure_1">
  <g id="patch_1">
   <path d="M 0 576 
L 434.7 576 
L 434.7 0 
L 0 0 
z
" style="fill: #ffffff"/>
  </g>
  <g id="axes_1">
   <g id="patch_2">
    <path d="M 54.3375 512.64 
L 391.23 512.64 
L 391.23 69.12 
L 54.3375 69.12 
z
" style="fill: #ffffff"/>
   </g>
   <g id="matplotlib.axis_1">
    <g id="xtick_1">
     <g id="line2d_1">
      <path d="M 69.650795 512.64 
L 69.650795 69.12 
" clip-path="url(#pa2ee689d2f)" style="fill: none; stroke: #cccccc; stroke-width: 0.8; stroke-linecap: round"/>
     </g>
     <g id="text_1">
      <!-- 0 -->
      <g style="fill: #262626" transform="translate(69.388282 529.627249)rotate(-45)scale(0.088 -0.088)">
       <defs>
        <path id="DejaVuSans-30" d="M 2034 4250 
Q 1547 4250 1301 3770 
Q 1056 3291 1056 2328 
Q 1056 1369 1301 889 
Q 1547 409 2034 409 
Q 2525 409 2770 889 
Q 3016 1369 3016 2328 
Q 3016 3291 2770 3770 
Q 2525 4250 2034 4250 
z
M 2034 4750 
Q 2819 4750 3233 4129 
Q 3647 3509 3647 2328 
Q 3647 1150 3233 529 
Q 2819 -91 2034 -91 
Q 1250 -91 836 529 
Q 422 1150 422 2328 
Q 422 3509 836 4129 
Q 1250 4750 2034 4750 
z
" transform="scale(0.015625)"/>
       </defs>
       <use xlink:href="#DejaVuSans-30"/>
      </g>
     </g>
    </g>
    <g id="xtick_2">
     <g id="line2d_2">
      <path d="M 86.677392 512.64 
L 86.677392 69.12 
" clip-path="url(#pa2ee689d2f)" style="fill: none; stroke: #cccccc; stroke-width: 0.8; stroke-linecap: round"/>
     </g>
     <g id="text_2">
      <!-- 80 -->
      <g style="fill: #262626" transform="translate(84.435333 533.58634)rotate(-45)scale(0.088 -0.088)">
       <defs>
        <path id="DejaVuSans-38" d="M 2034 2216 
Q 1584 2216 1326 1975 
Q 1069 1734 1069 1313 
Q 1069 891 1326 650 
Q 1584 409 2034 409 
Q 2484 409 2743 651 
Q 3003 894 3003 1313 
Q 3003 1734 2745 1975 
Q 2488 2216 2034 2216 
z
M 1403 2484 
Q 997 2584 770 2862 
Q 544 3141 544 3541 
Q 544 4100 942 4425 
Q 1341 4750 2034 4750 
Q 2731 4750 3128 4425 
Q 3525 4100 3525 3541 
Q 3525 3141 3298 2862 
Q 3072 2584 2669 2484 
Q 3125 2378 3379 2068 
Q 3634 1759 3634 1313 
Q 3634 634 3220 271 
Q 2806 -91 2034 -91 
Q 1263 -91 848 271 
Q 434 634 434 1313 
Q 434 1759 690 2068 
Q 947 2378 1403 2484 
z
M 1172 3481 
Q 1172 3119 1398 2916 
Q 1625 2713 2034 2713 
Q 2441 2713 2670 2916 
Q 2900 3119 2900 3481 
Q 2900 3844 2670 4047 
Q 2441 4250 2034 4250 
Q 1625 4250 1398 4047 
Q 1172 3844 1172 3481 
z
" transform="scale(0.015625)"/>
       </defs>
       <use xlink:href="#DejaVuSans-38"/>
       <use xlink:href="#DejaVuSans-30" x="63.623047"/>
      </g>
     </g>
    </g>
    <g id="xtick_3">
     <g id="line2d_3">
      <path d="M 103.703989 512.64 
L 103.703989 69.12 
" clip-path="url(#pa2ee689d2f)" style="fill: none; stroke: #cccccc; stroke-width: 0.8; stroke-linecap: round"/>
     </g>
     <g id="text_3">
      <!-- 160 -->
      <g style="fill: #262626" transform="translate(99.482385 537.54543)rotate(-45)scale(0.088 -0.088)">
       <defs>
        <path id="DejaVuSans-31" d="M 794 531 
L 1825 531 
L 1825 4091 
L 703 3866 
L 703 4441 
L 1819 4666 
L 2450 4666 
L 2450 531 
L 3481 531 
L 3481 0 
L 794 0 
L 794 531 
z
" transform="scale(0.015625)"/>
        <path id="DejaVuSans-36" d="M 2113 2584 
Q 1688 2584 1439 2293 
Q 1191 2003 1191 1497 
Q 1191 994 1439 701 
Q 1688 409 2113 409 
Q 2538 409 2786 701 
Q 3034 994 3034 1497 
Q 3034 2003 2786 2293 
Q 2538 2584 2113 2584 
z
M 3366 4563 
L 3366 3988 
Q 3128 4100 2886 4159 
Q 2644 4219 2406 4219 
Q 1781 4219 1451 3797 
Q 1122 3375 1075 2522 
Q 1259 2794 1537 2939 
Q 1816 3084 2150 3084 
Q 2853 3084 3261 2657 
Q 3669 2231 3669 1497 
Q 3669 778 3244 343 
Q 2819 -91 2113 -91 
Q 1303 -91 875 529 
Q 447 1150 447 2328 
Q 447 3434 972 4092 
Q 1497 4750 2381 4750 
Q 2619 4750 2861 4703 
Q 3103 4656 3366 4563 
z
" transform="scale(0.015625)"/>
       </defs>
       <use xlink:href="#DejaVuSans-31"/>
       <use xlink:href="#DejaVuSans-36" x="63.623047"/>
       <use xlink:href="#DejaVuSans-30" x="127.246094"/>
      </g>
     </g>
    </g>
    <g id="xtick_4">
     <g id="line2d_4">
      <path d="M 120.730586 512.64 
L 120.730586 69.12 
" clip-path="url(#pa2ee689d2f)" style="fill: none; stroke: #cccccc; stroke-width: 0.8; stroke-linecap: round"/>
     </g>
     <g id="text_4">
      <!-- 240 -->
      <g style="fill: #262626" transform="translate(116.508981 537.54543)rotate(-45)scale(0.088 -0.088)">
       <defs>
        <path id="DejaVuSans-32" d="M 1228 531 
L 3431 531 
L 3431 0 
L 469 0 
L 469 531 
Q 828 903 1448 1529 
Q 2069 2156 2228 2338 
Q 2531 2678 2651 2914 
Q 2772 3150 2772 3378 
Q 2772 3750 2511 3984 
Q 2250 4219 1831 4219 
Q 1534 4219 1204 4116 
Q 875 4013 500 3803 
L 500 4441 
Q 881 4594 1212 4672 
Q 1544 4750 1819 4750 
Q 2544 4750 2975 4387 
Q 3406 4025 3406 3419 
Q 3406 3131 3298 2873 
Q 3191 2616 2906 2266 
Q 2828 2175 2409 1742 
Q 1991 1309 1228 531 
z
" transform="scale(0.015625)"/>
        <path id="DejaVuSans-34" d="M 2419 4116 
L 825 1625 
L 2419 1625 
L 2419 4116 
z
M 2253 4666 
L 3047 4666 
L 3047 1625 
L 3713 1625 
L 3713 1100 
L 3047 1100 
L 3047 0 
L 2419 0 
L 2419 1100 
L 313 1100 
L 313 1709 
L 2253 4666 
z
" transform="scale(0.015625)"/>
       </defs>
       <use xlink:href="#DejaVuSans-32"/>
       <use xlink:href="#DejaVuSans-34" x="63.623047"/>
       <use xlink:href="#DejaVuSans-30" x="127.246094"/>
      </g>
     </g>
    </g>
    <g id="xtick_5">
     <g id="line2d_5">
      <path d="M 137.757182 512.64 
L 137.757182 69.12 
" clip-path="url(#pa2ee689d2f)" style="fill: none; stroke: #cccccc; stroke-width: 0.8; stroke-linecap: round"/>
     </g>
     <g id="text_5">
      <!-- 320 -->
      <g style="fill: #262626" transform="translate(133.535578 537.54543)rotate(-45)scale(0.088 -0.088)">
       <defs>
        <path id="DejaVuSans-33" d="M 2597 2516 
Q 3050 2419 3304 2112 
Q 3559 1806 3559 1356 
Q 3559 666 3084 287 
Q 2609 -91 1734 -91 
Q 1441 -91 1130 -33 
Q 819 25 488 141 
L 488 750 
Q 750 597 1062 519 
Q 1375 441 1716 441 
Q 2309 441 2620 675 
Q 2931 909 2931 1356 
Q 2931 1769 2642 2001 
Q 2353 2234 1838 2234 
L 1294 2234 
L 1294 2753 
L 1863 2753 
Q 2328 2753 2575 2939 
Q 2822 3125 2822 3475 
Q 2822 3834 2567 4026 
Q 2313 4219 1838 4219 
Q 1578 4219 1281 4162 
Q 984 4106 628 3988 
L 628 4550 
Q 988 4650 1302 4700 
Q 1616 4750 1894 4750 
Q 2613 4750 3031 4423 
Q 3450 4097 3450 3541 
Q 3450 3153 3228 2886 
Q 3006 2619 2597 2516 
z
" transform="scale(0.015625)"/>
       </defs>
       <use xlink:href="#DejaVuSans-33"/>
       <use xlink:href="#DejaVuSans-32" x="63.623047"/>
       <use xlink:href="#DejaVuSans-30" x="127.246094"/>
      </g>
     </g>
    </g>
    <g id="xtick_6">
     <g id="line2d_6">
      <path d="M 154.783779 512.64 
L 154.783779 69.12 
" clip-path="url(#pa2ee689d2f)" style="fill: none; stroke: #cccccc; stroke-width: 0.8; stroke-linecap: round"/>
     </g>
     <g id="text_6">
      <!-- 400 -->
      <g style="fill: #262626" transform="translate(150.562175 537.54543)rotate(-45)scale(0.088 -0.088)">
       <use xlink:href="#DejaVuSans-34"/>
       <use xlink:href="#DejaVuSans-30" x="63.623047"/>
       <use xlink:href="#DejaVuSans-30" x="127.246094"/>
      </g>
     </g>
    </g>
    <g id="xtick_7">
     <g id="line2d_7">
      <path d="M 171.810376 512.64 
L 171.810376 69.12 
" clip-path="url(#pa2ee689d2f)" style="fill: none; stroke: #cccccc; stroke-width: 0.8; stroke-linecap: round"/>
     </g>
     <g id="text_7">
      <!-- 480 -->
      <g style="fill: #262626" transform="translate(167.588772 537.54543)rotate(-45)scale(0.088 -0.088)">
       <use xlink:href="#DejaVuSans-34"/>
       <use xlink:href="#DejaVuSans-38" x="63.623047"/>
       <use xlink:href="#DejaVuSans-30" x="127.246094"/>
      </g>
     </g>
    </g>
    <g id="xtick_8">
     <g id="line2d_8">
      <path d="M 188.836973 512.64 
L 188.836973 69.12 
" clip-path="url(#pa2ee689d2f)" style="fill: none; stroke: #cccccc; stroke-width: 0.8; stroke-linecap: round"/>
     </g>
     <g id="text_8">
      <!-- 560 -->
      <g style="fill: #262626" transform="translate(184.615368 537.54543)rotate(-45)scale(0.088 -0.088)">
       <defs>
        <path id="DejaVuSans-35" d="M 691 4666 
L 3169 4666 
L 3169 4134 
L 1269 4134 
L 1269 2991 
Q 1406 3038 1543 3061 
Q 1681 3084 1819 3084 
Q 2600 3084 3056 2656 
Q 3513 2228 3513 1497 
Q 3513 744 3044 326 
Q 2575 -91 1722 -91 
Q 1428 -91 1123 -41 
Q 819 9 494 109 
L 494 744 
Q 775 591 1075 516 
Q 1375 441 1709 441 
Q 2250 441 2565 725 
Q 2881 1009 2881 1497 
Q 2881 1984 2565 2268 
Q 2250 2553 1709 2553 
Q 1456 2553 1204 2497 
Q 953 2441 691 2322 
L 691 4666 
z
" transform="scale(0.015625)"/>
       </defs>
       <use xlink:href="#DejaVuSans-35"/>
       <use xlink:href="#DejaVuSans-36" x="63.623047"/>
       <use xlink:href="#DejaVuSans-30" x="127.246094"/>
      </g>
     </g>
    </g>
    <g id="xtick_9">
     <g id="line2d_9">
      <path d="M 205.863569 512.64 
L 205.863569 69.12 
" clip-path="url(#pa2ee689d2f)" style="fill: none; stroke: #cccccc; stroke-width: 0.8; stroke-linecap: round"/>
     </g>
     <g id="text_9">
      <!-- 640 -->
      <g style="fill: #262626" transform="translate(201.641965 537.54543)rotate(-45)scale(0.088 -0.088)">
       <use xlink:href="#DejaVuSans-36"/>
       <use xlink:href="#DejaVuSans-34" x="63.623047"/>
       <use xlink:href="#DejaVuSans-30" x="127.246094"/>
      </g>
     </g>
    </g>
    <g id="xtick_10">
     <g id="line2d_10">
      <path d="M 222.890166 512.64 
L 222.890166 69.12 
" clip-path="url(#pa2ee689d2f)" style="fill: none; stroke: #cccccc; stroke-width: 0.8; stroke-linecap: round"/>
     </g>
     <g id="text_10">
      <!-- 720 -->
      <g style="fill: #262626" transform="translate(218.668562 537.54543)rotate(-45)scale(0.088 -0.088)">
       <defs>
        <path id="DejaVuSans-37" d="M 525 4666 
L 3525 4666 
L 3525 4397 
L 1831 0 
L 1172 0 
L 2766 4134 
L 525 4134 
L 525 4666 
z
" transform="scale(0.015625)"/>
       </defs>
       <use xlink:href="#DejaVuSans-37"/>
       <use xlink:href="#DejaVuSans-32" x="63.623047"/>
       <use xlink:href="#DejaVuSans-30" x="127.246094"/>
      </g>
     </g>
    </g>
    <g id="xtick_11">
     <g id="line2d_11">
      <path d="M 239.916763 512.64 
L 239.916763 69.12 
" clip-path="url(#pa2ee689d2f)" style="fill: none; stroke: #cccccc; stroke-width: 0.8; stroke-linecap: round"/>
     </g>
     <g id="text_11">
      <!-- 800 -->
      <g style="fill: #262626" transform="translate(235.695159 537.54543)rotate(-45)scale(0.088 -0.088)">
       <use xlink:href="#DejaVuSans-38"/>
       <use xlink:href="#DejaVuSans-30" x="63.623047"/>
       <use xlink:href="#DejaVuSans-30" x="127.246094"/>
      </g>
     </g>
    </g>
    <g id="xtick_12">
     <g id="line2d_12">
      <path d="M 256.94336 512.64 
L 256.94336 69.12 
" clip-path="url(#pa2ee689d2f)" style="fill: none; stroke: #cccccc; stroke-width: 0.8; stroke-linecap: round"/>
     </g>
     <g id="text_12">
      <!-- 880 -->
      <g style="fill: #262626" transform="translate(252.721755 537.54543)rotate(-45)scale(0.088 -0.088)">
       <use xlink:href="#DejaVuSans-38"/>
       <use xlink:href="#DejaVuSans-38" x="63.623047"/>
       <use xlink:href="#DejaVuSans-30" x="127.246094"/>
      </g>
     </g>
    </g>
    <g id="xtick_13">
     <g id="line2d_13">
      <path d="M 273.969956 512.64 
L 273.969956 69.12 
" clip-path="url(#pa2ee689d2f)" style="fill: none; stroke: #cccccc; stroke-width: 0.8; stroke-linecap: round"/>
     </g>
     <g id="text_13">
      <!-- 960 -->
      <g style="fill: #262626" transform="translate(269.748352 537.54543)rotate(-45)scale(0.088 -0.088)">
       <defs>
        <path id="DejaVuSans-39" d="M 703 97 
L 703 672 
Q 941 559 1184 500 
Q 1428 441 1663 441 
Q 2288 441 2617 861 
Q 2947 1281 2994 2138 
Q 2813 1869 2534 1725 
Q 2256 1581 1919 1581 
Q 1219 1581 811 2004 
Q 403 2428 403 3163 
Q 403 3881 828 4315 
Q 1253 4750 1959 4750 
Q 2769 4750 3195 4129 
Q 3622 3509 3622 2328 
Q 3622 1225 3098 567 
Q 2575 -91 1691 -91 
Q 1453 -91 1209 -44 
Q 966 3 703 97 
z
M 1959 2075 
Q 2384 2075 2632 2365 
Q 2881 2656 2881 3163 
Q 2881 3666 2632 3958 
Q 2384 4250 1959 4250 
Q 1534 4250 1286 3958 
Q 1038 3666 1038 3163 
Q 1038 2656 1286 2365 
Q 1534 2075 1959 2075 
z
" transform="scale(0.015625)"/>
       </defs>
       <use xlink:href="#DejaVuSans-39"/>
       <use xlink:href="#DejaVuSans-36" x="63.623047"/>
       <use xlink:href="#DejaVuSans-30" x="127.246094"/>
      </g>
     </g>
    </g>
    <g id="xtick_14">
     <g id="line2d_14">
      <path d="M 290.996553 512.64 
L 290.996553 69.12 
" clip-path="url(#pa2ee689d2f)" style="fill: none; stroke: #cccccc; stroke-width: 0.8; stroke-linecap: round"/>
     </g>
     <g id="text_14">
      <!-- 1040 -->
      <g style="fill: #262626" transform="translate(284.795404 541.504521)rotate(-45)scale(0.088 -0.088)">
       <use xlink:href="#DejaVuSans-31"/>
       <use xlink:href="#DejaVuSans-30" x="63.623047"/>
       <use xlink:href="#DejaVuSans-34" x="127.246094"/>
       <use xlink:href="#DejaVuSans-30" x="190.869141"/>
      </g>
     </g>
    </g>
    <g id="xtick_15">
     <g id="line2d_15">
      <path d="M 308.02315 512.64 
L 308.02315 69.12 
" clip-path="url(#pa2ee689d2f)" style="fill: none; stroke: #cccccc; stroke-width: 0.8; stroke-linecap: round"/>
     </g>
     <g id="text_15">
      <!-- 1120 -->
      <g style="fill: #262626" transform="translate(301.822 541.504521)rotate(-45)scale(0.088 -0.088)">
       <use xlink:href="#DejaVuSans-31"/>
       <use xlink:href="#DejaVuSans-31" x="63.623047"/>
       <use xlink:href="#DejaVuSans-32" x="127.246094"/>
       <use xlink:href="#DejaVuSans-30" x="190.869141"/>
      </g>
     </g>
    </g>
    <g id="xtick_16">
     <g id="line2d_16">
      <path d="M 325.049747 512.64 
L 325.049747 69.12 
" clip-path="url(#pa2ee689d2f)" style="fill: none; stroke: #cccccc; stroke-width: 0.8; stroke-linecap: round"/>
     </g>
     <g id="text_16">
      <!-- 1200 -->
      <g style="fill: #262626" transform="translate(318.848597 541.504521)rotate(-45)scale(0.088 -0.088)">
       <use xlink:href="#DejaVuSans-31"/>
       <use xlink:href="#DejaVuSans-32" x="63.623047"/>
       <use xlink:href="#DejaVuSans-30" x="127.246094"/>
       <use xlink:href="#DejaVuSans-30" x="190.869141"/>
      </g>
     </g>
    </g>
    <g id="xtick_17">
     <g id="line2d_17">
      <path d="M 342.076343 512.64 
L 342.076343 69.12 
" clip-path="url(#pa2ee689d2f)" style="fill: none; stroke: #cccccc; stroke-width: 0.8; stroke-linecap: round"/>
     </g>
     <g id="text_17">
      <!-- 1280 -->
      <g style="fill: #262626" transform="translate(335.875194 541.504521)rotate(-45)scale(0.088 -0.088)">
       <use xlink:href="#DejaVuSans-31"/>
       <use xlink:href="#DejaVuSans-32" x="63.623047"/>
       <use xlink:href="#DejaVuSans-38" x="127.246094"/>
       <use xlink:href="#DejaVuSans-30" x="190.869141"/>
      </g>
     </g>
    </g>
    <g id="xtick_18">
     <g id="line2d_18">
      <path d="M 359.10294 512.64 
L 359.10294 69.12 
" clip-path="url(#pa2ee689d2f)" style="fill: none; stroke: #cccccc; stroke-width: 0.8; stroke-linecap: round"/>
     </g>
     <g id="text_18">
      <!-- 1360 -->
      <g style="fill: #262626" transform="translate(352.901791 541.504521)rotate(-45)scale(0.088 -0.088)">
       <use xlink:href="#DejaVuSans-31"/>
       <use xlink:href="#DejaVuSans-33" x="63.623047"/>
       <use xlink:href="#DejaVuSans-36" x="127.246094"/>
       <use xlink:href="#DejaVuSans-30" x="190.869141"/>
      </g>
     </g>
    </g>
    <g id="xtick_19">
     <g id="line2d_19">
      <path d="M 376.129537 512.64 
L 376.129537 69.12 
" clip-path="url(#pa2ee689d2f)" style="fill: none; stroke: #cccccc; stroke-width: 0.8; stroke-linecap: round"/>
     </g>
     <g id="text_19">
      <!-- 1440 -->
      <g style="fill: #262626" transform="translate(369.928387 541.504521)rotate(-45)scale(0.088 -0.088)">
       <use xlink:href="#DejaVuSans-31"/>
       <use xlink:href="#DejaVuSans-34" x="63.623047"/>
       <use xlink:href="#DejaVuSans-34" x="127.246094"/>
       <use xlink:href="#DejaVuSans-30" x="190.869141"/>
      </g>
     </g>
    </g>
    <g id="text_20">
     <!-- Time (Minutes) -->
     <g style="fill: #262626" transform="translate(186.87375 554.093115)scale(0.096 -0.096)">
      <defs>
       <path id="DejaVuSans-54" d="M -19 4666 
L 3928 4666 
L 3928 4134 
L 2272 4134 
L 2272 0 
L 1638 0 
L 1638 4134 
L -19 4134 
L -19 4666 
z
" transform="scale(0.015625)"/>
       <path id="DejaVuSans-69" d="M 603 3500 
L 1178 3500 
L 1178 0 
L 603 0 
L 603 3500 
z
M 603 4863 
L 1178 4863 
L 1178 4134 
L 603 4134 
L 603 4863 
z
" transform="scale(0.015625)"/>
       <path id="DejaVuSans-6d" d="M 3328 2828 
Q 3544 3216 3844 3400 
Q 4144 3584 4550 3584 
Q 5097 3584 5394 3201 
Q 5691 2819 5691 2113 
L 5691 0 
L 5113 0 
L 5113 2094 
Q 5113 2597 4934 2840 
Q 4756 3084 4391 3084 
Q 3944 3084 3684 2787 
Q 3425 2491 3425 1978 
L 3425 0 
L 2847 0 
L 2847 2094 
Q 2847 2600 2669 2842 
Q 2491 3084 2119 3084 
Q 1678 3084 1418 2786 
Q 1159 2488 1159 1978 
L 1159 0 
L 581 0 
L 581 3500 
L 1159 3500 
L 1159 2956 
Q 1356 3278 1631 3431 
Q 1906 3584 2284 3584 
Q 2666 3584 2933 3390 
Q 3200 3197 3328 2828 
z
" transform="scale(0.015625)"/>
       <path id="DejaVuSans-65" d="M 3597 1894 
L 3597 1613 
L 953 1613 
Q 991 1019 1311 708 
Q 1631 397 2203 397 
Q 2534 397 2845 478 
Q 3156 559 3463 722 
L 3463 178 
Q 3153 47 2828 -22 
Q 2503 -91 2169 -91 
Q 1331 -91 842 396 
Q 353 884 353 1716 
Q 353 2575 817 3079 
Q 1281 3584 2069 3584 
Q 2775 3584 3186 3129 
Q 3597 2675 3597 1894 
z
M 3022 2063 
Q 3016 2534 2758 2815 
Q 2500 3097 2075 3097 
Q 1594 3097 1305 2825 
Q 1016 2553 972 2059 
L 3022 2063 
z
" transform="scale(0.015625)"/>
       <path id="DejaVuSans-20" transform="scale(0.015625)"/>
       <path id="DejaVuSans-28" d="M 1984 4856 
Q 1566 4138 1362 3434 
Q 1159 2731 1159 2009 
Q 1159 1288 1364 580 
Q 1569 -128 1984 -844 
L 1484 -844 
Q 1016 -109 783 600 
Q 550 1309 550 2009 
Q 550 2706 781 3412 
Q 1013 4119 1484 4856 
L 1984 4856 
z
" transform="scale(0.015625)"/>
       <path id="DejaVuSans-4d" d="M 628 4666 
L 1569 4666 
L 2759 1491 
L 3956 4666 
L 4897 4666 
L 4897 0 
L 4281 0 
L 4281 4097 
L 3078 897 
L 2444 897 
L 1241 4097 
L 1241 0 
L 628 0 
L 628 4666 
z
" transform="scale(0.015625)"/>
       <path id="DejaVuSans-6e" d="M 3513 2113 
L 3513 0 
L 2938 0 
L 2938 2094 
Q 2938 2591 2744 2837 
Q 2550 3084 2163 3084 
Q 1697 3084 1428 2787 
Q 1159 2491 1159 1978 
L 1159 0 
L 581 0 
L 581 3500 
L 1159 3500 
L 1159 2956 
Q 1366 3272 1645 3428 
Q 1925 3584 2291 3584 
Q 2894 3584 3203 3211 
Q 3513 2838 3513 2113 
z
" transform="scale(0.015625)"/>
       <path id="DejaVuSans-75" d="M 544 1381 
L 544 3500 
L 1119 3500 
L 1119 1403 
Q 1119 906 1312 657 
Q 1506 409 1894 409 
Q 2359 409 2629 706 
Q 2900 1003 2900 1516 
L 2900 3500 
L 3475 3500 
L 3475 0 
L 2900 0 
L 2900 538 
Q 2691 219 2414 64 
Q 2138 -91 1772 -91 
Q 1169 -91 856 284 
Q 544 659 544 1381 
z
M 1991 3584 
L 1991 3584 
z
" transform="scale(0.015625)"/>
       <path id="DejaVuSans-74" d="M 1172 4494 
L 1172 3500 
L 2356 3500 
L 2356 3053 
L 1172 3053 
L 1172 1153 
Q 1172 725 1289 603 
Q 1406 481 1766 481 
L 2356 481 
L 2356 0 
L 1766 0 
Q 1100 0 847 248 
Q 594 497 594 1153 
L 594 3053 
L 172 3053 
L 172 3500 
L 594 3500 
L 594 4494 
L 1172 4494 
z
" transform="scale(0.015625)"/>
       <path id="DejaVuSans-73" d="M 2834 3397 
L 2834 2853 
Q 2591 2978 2328 3040 
Q 2066 3103 1784 3103 
Q 1356 3103 1142 2972 
Q 928 2841 928 2578 
Q 928 2378 1081 2264 
Q 1234 2150 1697 2047 
L 1894 2003 
Q 2506 1872 2764 1633 
Q 3022 1394 3022 966 
Q 3022 478 2636 193 
Q 2250 -91 1575 -91 
Q 1294 -91 989 -36 
Q 684 19 347 128 
L 347 722 
Q 666 556 975 473 
Q 1284 391 1588 391 
Q 1994 391 2212 530 
Q 2431 669 2431 922 
Q 2431 1156 2273 1281 
Q 2116 1406 1581 1522 
L 1381 1569 
Q 847 1681 609 1914 
Q 372 2147 372 2553 
Q 372 3047 722 3315 
Q 1072 3584 1716 3584 
Q 2034 3584 2315 3537 
Q 2597 3491 2834 3397 
z
" transform="scale(0.015625)"/>
       <path id="DejaVuSans-29" d="M 513 4856 
L 1013 4856 
Q 1481 4119 1714 3412 
Q 1947 2706 1947 2009 
Q 1947 1309 1714 600 
Q 1481 -109 1013 -844 
L 513 -844 
Q 928 -128 1133 580 
Q 1338 1288 1338 2009 
Q 1338 2731 1133 3434 
Q 928 4138 513 4856 
z
" transform="scale(0.015625)"/>
      </defs>
      <use xlink:href="#DejaVuSans-54"/>
      <use xlink:href="#DejaVuSans-69" x="57.958984"/>
      <use xlink:href="#DejaVuSans-6d" x="85.742188"/>
      <use xlink:href="#DejaVuSans-65" x="183.154297"/>
      <use xlink:href="#DejaVuSans-20" x="244.677734"/>
      <use xlink:href="#DejaVuSans-28" x="276.464844"/>
      <use xlink:href="#DejaVuSans-4d" x="315.478516"/>
      <use xlink:href="#DejaVuSans-69" x="401.757812"/>
      <use xlink:href="#DejaVuSans-6e" x="429.541016"/>
      <use xlink:href="#DejaVuSans-75" x="492.919922"/>
      <use xlink:href="#DejaVuSans-74" x="556.298828"/>
      <use xlink:href="#DejaVuSans-65" x="595.507812"/>
      <use xlink:href="#DejaVuSans-73" x="657.03125"/>
      <use xlink:href="#DejaVuSans-29" x="709.130859"/>
     </g>
    </g>
   </g>
   <g id="matplotlib.axis_2">
    <g id="ytick_1">
     <g id="line2d_20">
      <path d="M 54.3375 492.48 
L 391.23 492.48 
" clip-path="url(#pa2ee689d2f)" style="fill: none; stroke: #cccccc; stroke-width: 0.8; stroke-linecap: round"/>
     </g>
     <g id="text_21">
      <!-- 0 -->
      <g style="fill: #262626" transform="translate(40.4385 495.823312)scale(0.088 -0.088)">
       <use xlink:href="#DejaVuSans-30"/>
      </g>
     </g>
    </g>
    <g id="ytick_2">
     <g id="line2d_21">
      <path d="M 54.3375 426.705122 
L 391.23 426.705122 
" clip-path="url(#pa2ee689d2f)" style="fill: none; stroke: #cccccc; stroke-width: 0.8; stroke-linecap: round"/>
     </g>
     <g id="text_22">
      <!-- 100 -->
      <g style="fill: #262626" transform="translate(29.2405 430.048435)scale(0.088 -0.088)">
       <use xlink:href="#DejaVuSans-31"/>
       <use xlink:href="#DejaVuSans-30" x="63.623047"/>
       <use xlink:href="#DejaVuSans-30" x="127.246094"/>
      </g>
     </g>
    </g>
    <g id="ytick_3">
     <g id="line2d_22">
      <path d="M 54.3375 360.930245 
L 391.23 360.930245 
" clip-path="url(#pa2ee689d2f)" style="fill: none; stroke: #cccccc; stroke-width: 0.8; stroke-linecap: round"/>
     </g>
     <g id="text_23">
      <!-- 200 -->
      <g style="fill: #262626" transform="translate(29.2405 364.273557)scale(0.088 -0.088)">
       <use xlink:href="#DejaVuSans-32"/>
       <use xlink:href="#DejaVuSans-30" x="63.623047"/>
       <use xlink:href="#DejaVuSans-30" x="127.246094"/>
      </g>
     </g>
    </g>
    <g id="ytick_4">
     <g id="line2d_23">
      <path d="M 54.3375 295.155367 
L 391.23 295.155367 
" clip-path="url(#pa2ee689d2f)" style="fill: none; stroke: #cccccc; stroke-width: 0.8; stroke-linecap: round"/>
     </g>
     <g id="text_24">
      <!-- 300 -->
      <g style="fill: #262626" transform="translate(29.2405 298.49868)scale(0.088 -0.088)">
       <use xlink:href="#DejaVuSans-33"/>
       <use xlink:href="#DejaVuSans-30" x="63.623047"/>
       <use xlink:href="#DejaVuSans-30" x="127.246094"/>
      </g>
     </g>
    </g>
    <g id="ytick_5">
     <g id="line2d_24">
      <path d="M 54.3375 229.380489 
L 391.23 229.380489 
" clip-path="url(#pa2ee689d2f)" style="fill: none; stroke: #cccccc; stroke-width: 0.8; stroke-linecap: round"/>
     </g>
     <g id="text_25">
      <!-- 400 -->
      <g style="fill: #262626" transform="translate(29.2405 232.723802)scale(0.088 -0.088)">
       <use xlink:href="#DejaVuSans-34"/>
       <use xlink:href="#DejaVuSans-30" x="63.623047"/>
       <use xlink:href="#DejaVuSans-30" x="127.246094"/>
      </g>
     </g>
    </g>
    <g id="ytick_6">
     <g id="line2d_25">
      <path d="M 54.3375 163.605612 
L 391.23 163.605612 
" clip-path="url(#pa2ee689d2f)" style="fill: none; stroke: #cccccc; stroke-width: 0.8; stroke-linecap: round"/>
     </g>
     <g id="text_26">
      <!-- 500 -->
      <g style="fill: #262626" transform="translate(29.2405 166.948924)scale(0.088 -0.088)">
       <use xlink:href="#DejaVuSans-35"/>
       <use xlink:href="#DejaVuSans-30" x="63.623047"/>
       <use xlink:href="#DejaVuSans-30" x="127.246094"/>
      </g>
     </g>
    </g>
    <g id="ytick_7">
     <g id="line2d_26">
      <path d="M 54.3375 97.830734 
L 391.23 97.830734 
" clip-path="url(#pa2ee689d2f)" style="fill: none; stroke: #cccccc; stroke-width: 0.8; stroke-linecap: round"/>
     </g>
     <g id="text_27">
      <!-- 600 -->
      <g style="fill: #262626" transform="translate(29.2405 101.174047)scale(0.088 -0.088)">
       <use xlink:href="#DejaVuSans-36"/>
       <use xlink:href="#DejaVuSans-30" x="63.623047"/>
       <use xlink:href="#DejaVuSans-30" x="127.246094"/>
      </g>
     </g>
    </g>
    <g id="text_28">
     <!-- Edge Coverages -->
     <g style="fill: #262626" transform="translate(23.244 329.98575)rotate(-90)scale(0.096 -0.096)">
      <defs>
       <path id="DejaVuSans-45" d="M 628 4666 
L 3578 4666 
L 3578 4134 
L 1259 4134 
L 1259 2753 
L 3481 2753 
L 3481 2222 
L 1259 2222 
L 1259 531 
L 3634 531 
L 3634 0 
L 628 0 
L 628 4666 
z
" transform="scale(0.015625)"/>
       <path id="DejaVuSans-64" d="M 2906 2969 
L 2906 4863 
L 3481 4863 
L 3481 0 
L 2906 0 
L 2906 525 
Q 2725 213 2448 61 
Q 2172 -91 1784 -91 
Q 1150 -91 751 415 
Q 353 922 353 1747 
Q 353 2572 751 3078 
Q 1150 3584 1784 3584 
Q 2172 3584 2448 3432 
Q 2725 3281 2906 2969 
z
M 947 1747 
Q 947 1113 1208 752 
Q 1469 391 1925 391 
Q 2381 391 2643 752 
Q 2906 1113 2906 1747 
Q 2906 2381 2643 2742 
Q 2381 3103 1925 3103 
Q 1469 3103 1208 2742 
Q 947 2381 947 1747 
z
" transform="scale(0.015625)"/>
       <path id="DejaVuSans-67" d="M 2906 1791 
Q 2906 2416 2648 2759 
Q 2391 3103 1925 3103 
Q 1463 3103 1205 2759 
Q 947 2416 947 1791 
Q 947 1169 1205 825 
Q 1463 481 1925 481 
Q 2391 481 2648 825 
Q 2906 1169 2906 1791 
z
M 3481 434 
Q 3481 -459 3084 -895 
Q 2688 -1331 1869 -1331 
Q 1566 -1331 1297 -1286 
Q 1028 -1241 775 -1147 
L 775 -588 
Q 1028 -725 1275 -790 
Q 1522 -856 1778 -856 
Q 2344 -856 2625 -561 
Q 2906 -266 2906 331 
L 2906 616 
Q 2728 306 2450 153 
Q 2172 0 1784 0 
Q 1141 0 747 490 
Q 353 981 353 1791 
Q 353 2603 747 3093 
Q 1141 3584 1784 3584 
Q 2172 3584 2450 3431 
Q 2728 3278 2906 2969 
L 2906 3500 
L 3481 3500 
L 3481 434 
z
" transform="scale(0.015625)"/>
       <path id="DejaVuSans-43" d="M 4122 4306 
L 4122 3641 
Q 3803 3938 3442 4084 
Q 3081 4231 2675 4231 
Q 1875 4231 1450 3742 
Q 1025 3253 1025 2328 
Q 1025 1406 1450 917 
Q 1875 428 2675 428 
Q 3081 428 3442 575 
Q 3803 722 4122 1019 
L 4122 359 
Q 3791 134 3420 21 
Q 3050 -91 2638 -91 
Q 1578 -91 968 557 
Q 359 1206 359 2328 
Q 359 3453 968 4101 
Q 1578 4750 2638 4750 
Q 3056 4750 3426 4639 
Q 3797 4528 4122 4306 
z
" transform="scale(0.015625)"/>
       <path id="DejaVuSans-6f" d="M 1959 3097 
Q 1497 3097 1228 2736 
Q 959 2375 959 1747 
Q 959 1119 1226 758 
Q 1494 397 1959 397 
Q 2419 397 2687 759 
Q 2956 1122 2956 1747 
Q 2956 2369 2687 2733 
Q 2419 3097 1959 3097 
z
M 1959 3584 
Q 2709 3584 3137 3096 
Q 3566 2609 3566 1747 
Q 3566 888 3137 398 
Q 2709 -91 1959 -91 
Q 1206 -91 779 398 
Q 353 888 353 1747 
Q 353 2609 779 3096 
Q 1206 3584 1959 3584 
z
" transform="scale(0.015625)"/>
       <path id="DejaVuSans-76" d="M 191 3500 
L 800 3500 
L 1894 563 
L 2988 3500 
L 3597 3500 
L 2284 0 
L 1503 0 
L 191 3500 
z
" transform="scale(0.015625)"/>
       <path id="DejaVuSans-72" d="M 2631 2963 
Q 2534 3019 2420 3045 
Q 2306 3072 2169 3072 
Q 1681 3072 1420 2755 
Q 1159 2438 1159 1844 
L 1159 0 
L 581 0 
L 581 3500 
L 1159 3500 
L 1159 2956 
Q 1341 3275 1631 3429 
Q 1922 3584 2338 3584 
Q 2397 3584 2469 3576 
Q 2541 3569 2628 3553 
L 2631 2963 
z
" transform="scale(0.015625)"/>
       <path id="DejaVuSans-61" d="M 2194 1759 
Q 1497 1759 1228 1600 
Q 959 1441 959 1056 
Q 959 750 1161 570 
Q 1363 391 1709 391 
Q 2188 391 2477 730 
Q 2766 1069 2766 1631 
L 2766 1759 
L 2194 1759 
z
M 3341 1997 
L 3341 0 
L 2766 0 
L 2766 531 
Q 2569 213 2275 61 
Q 1981 -91 1556 -91 
Q 1019 -91 701 211 
Q 384 513 384 1019 
Q 384 1609 779 1909 
Q 1175 2209 1959 2209 
L 2766 2209 
L 2766 2266 
Q 2766 2663 2505 2880 
Q 2244 3097 1772 3097 
Q 1472 3097 1187 3025 
Q 903 2953 641 2809 
L 641 3341 
Q 956 3463 1253 3523 
Q 1550 3584 1831 3584 
Q 2591 3584 2966 3190 
Q 3341 2797 3341 1997 
z
" transform="scale(0.015625)"/>
      </defs>
      <use xlink:href="#DejaVuSans-45"/>
      <use xlink:href="#DejaVuSans-64" x="63.183594"/>
      <use xlink:href="#DejaVuSans-67" x="126.660156"/>
      <use xlink:href="#DejaVuSans-65" x="190.136719"/>
      <use xlink:href="#DejaVuSans-20" x="251.660156"/>
      <use xlink:href="#DejaVuSans-43" x="283.447266"/>
      <use xlink:href="#DejaVuSans-6f" x="353.271484"/>
      <use xlink:href="#DejaVuSans-76" x="414.453125"/>
      <use xlink:href="#DejaVuSans-65" x="473.632812"/>
      <use xlink:href="#DejaVuSans-72" x="535.15625"/>
      <use xlink:href="#DejaVuSans-61" x="576.269531"/>
      <use xlink:href="#DejaVuSans-67" x="637.548828"/>
      <use xlink:href="#DejaVuSans-65" x="701.025391"/>
      <use xlink:href="#DejaVuSans-73" x="762.548828"/>
     </g>
    </g>
   </g>
   <g id="PolyCollection_1">
    <defs>
     <path id="m95f2341173" d="M 69.650795 -99.305971 
L 69.650795 -83.52 
L 69.650795 -99.305971 
L 69.650795 -99.305971 
z
" style="stroke: #db5f57; stroke-opacity: 0.2; stroke-width: 0.8"/>
    </defs>
    <g clip-path="url(#pa2ee689d2f)">
     <use xlink:href="#m95f2341173" x="0" y="576" style="fill: #db5f57; fill-opacity: 0.2; stroke: #db5f57; stroke-opacity: 0.2; stroke-width: 0.8"/>
    </g>
   </g>
   <g id="PolyCollection_2">
    <defs>
     <path id="mab6266b1cf" d="M 69.650795 -102.594715 
L 69.650795 -83.52 
L 69.650795 -102.594715 
L 69.650795 -102.594715 
z
" style="stroke: #b9db57; stroke-opacity: 0.2; stroke-width: 0.8"/>
    </defs>
    <g clip-path="url(#pa2ee689d2f)">
     <use xlink:href="#mab6266b1cf" x="0" y="576" style="fill: #b9db57; fill-opacity: 0.2; stroke: #b9db57; stroke-opacity: 0.2; stroke-width: 0.8"/>
    </g>
   </g>
   <g id="PolyCollection_3">
    <defs>
     <path id="m02b94199f7" d="M 69.650795 -111.145449 
L 69.650795 -83.52 
L 69.650795 -111.145449 
L 69.650795 -111.145449 
z
" style="stroke: #57db94; stroke-opacity: 0.2; stroke-width: 0.8"/>
    </defs>
    <g clip-path="url(#pa2ee689d2f)">
     <use xlink:href="#m02b94199f7" x="0" y="576" style="fill: #57db94; fill-opacity: 0.2; stroke: #57db94; stroke-opacity: 0.2; stroke-width: 0.8"/>
    </g>
   </g>
   <g id="PolyCollection_4">
    <defs>
     <path id="m934f4098bc" d="M 69.650795 -109.829951 
L 69.650795 -83.52 
L 69.650795 -109.829951 
L 69.650795 -109.829951 
z
" style="stroke: #5784db; stroke-opacity: 0.2; stroke-width: 0.8"/>
    </defs>
    <g clip-path="url(#pa2ee689d2f)">
     <use xlink:href="#m934f4098bc" x="0" y="576" style="fill: #5784db; fill-opacity: 0.2; stroke: #5784db; stroke-opacity: 0.2; stroke-width: 0.8"/>
    </g>
   </g>
   <g id="PolyCollection_5">
    <defs>
     <path id="mca2b3d73e1" d="M 69.650795 -113.776444 
L 69.650795 -83.52 
L 69.650795 -113.776444 
L 69.650795 -113.776444 
z
" style="stroke: #c957db; stroke-opacity: 0.2; stroke-width: 0.8"/>
    </defs>
    <g clip-path="url(#pa2ee689d2f)">
     <use xlink:href="#mca2b3d73e1" x="0" y="576" style="fill: #c957db; fill-opacity: 0.2; stroke: #c957db; stroke-opacity: 0.2; stroke-width: 0.8"/>
    </g>
   </g>
   <g id="line2d_27">
    <path d="M 69.650795 484.587015 
L 69.863628 475.378532 
L 70.07646 474.720783 
L 70.502125 474.720783 
L 70.714958 474.063034 
L 70.92779 474.063034 
L 71.353455 383.293703 
L 71.566288 381.320457 
L 71.77912 376.716215 
L 71.991953 376.058467 
L 72.204785 361.587993 
L 72.417617 360.930245 
L 72.63045 358.956998 
L 73.056115 358.956998 
L 73.268947 357.641501 
L 74.971607 357.641501 
L 75.184439 356.983752 
L 75.397272 356.983752 
L 75.610104 355.010506 
L 76.248602 355.010506 
L 76.887099 353.037259 
L 77.099932 353.037259 
L 77.312764 352.379511 
L 80.505251 352.379511 
L 80.718083 351.721762 
L 81.782246 351.721762 
L 81.995078 351.064013 
L 83.484905 351.064013 
L 83.697738 350.406264 
L 85.400397 350.406264 
L 85.826062 349.090767 
L 86.46456 349.090767 
L 86.677392 348.433018 
L 87.31589 348.433018 
L 87.528722 347.775269 
L 88.167219 347.775269 
L 88.592884 346.459772 
L 88.805717 299.759608 
L 89.018549 292.524372 
L 91.359706 292.524372 
L 91.572539 291.866623 
L 91.785371 291.866623 
L 91.998204 291.208874 
L 103.916821 291.208874 
L 104.129654 254.374943 
L 104.555319 254.374943 
L 104.768151 253.059445 
L 107.109308 253.059445 
L 107.534973 251.743948 
L 122.00758 251.743948 
L 122.220413 214.910016 
L 124.348738 214.910016 
L 124.774402 212.93677 
L 124.987235 212.93677 
L 125.4129 211.621272 
L 126.477062 211.621272 
L 126.689895 210.963524 
L 126.902727 210.963524 
L 127.115559 210.305775 
L 127.328392 210.305775 
L 127.541224 208.990277 
L 150.101465 208.990277 
L 150.314298 189.257814 
L 150.52713 189.257814 
L 150.739962 188.600065 
L 152.655455 188.600065 
L 152.868287 182.022577 
L 153.293952 180.049331 
L 156.060774 180.049331 
L 156.273606 178.076085 
L 162.232915 178.076085 
L 162.445748 177.418336 
L 178.621015 177.418336 
L 178.833847 166.236607 
L 191.17813 166.236607 
L 191.390962 164.921109 
L 208.630391 164.921109 
L 208.843224 153.73938 
L 224.167161 153.73938 
L 224.379993 153.081631 
L 225.444156 153.081631 
L 225.656988 152.423883 
L 226.082653 152.423883 
L 226.295486 144.530897 
L 230.9778 144.530897 
L 231.190632 143.873148 
L 244.599077 143.873148 
L 244.81191 138.611158 
L 258.646019 138.611158 
L 258.858852 135.322414 
L 283.76025 135.322414 
L 283.973082 132.691419 
L 289.719558 132.691419 
L 289.932391 132.03367 
L 305.043496 132.03367 
L 305.256328 130.718173 
L 319.30327 130.718173 
L 319.516103 130.060424 
L 330.157726 130.060424 
L 330.370558 129.402675 
L 332.498883 129.402675 
L 332.711715 126.113931 
L 333.98871 126.113931 
L 334.201543 124.140685 
L 336.329867 124.140685 
L 336.5427 122.167439 
L 338.671024 122.167439 
L 338.883857 121.50969 
L 341.437846 121.50969 
L 341.650679 120.194192 
L 344.843165 120.194192 
L 345.055998 119.536444 
L 375.916705 119.536444 
L 375.916705 119.536444 
" clip-path="url(#pa2ee689d2f)" style="fill: none; stroke: #db5f57; stroke-width: 1.2; stroke-linecap: round"/>
   </g>
   <g id="line2d_28">
    <path d="M 69.650795 482.942643 
L 69.863628 473.405285 
L 70.92779 473.405285 
L 71.140623 390.52894 
L 71.77912 374.08522 
L 71.991953 372.111974 
L 72.204785 366.192235 
L 72.417617 366.192235 
L 72.63045 365.534486 
L 72.843282 358.956998 
L 73.056115 358.29925 
L 73.48178 355.010506 
L 73.694612 349.090767 
L 73.907445 348.433018 
L 74.120277 348.433018 
L 74.545942 345.802023 
L 74.758774 345.802023 
L 74.971607 345.144274 
L 75.610104 345.144274 
L 75.822937 340.540033 
L 76.035769 340.540033 
L 76.248602 337.909038 
L 76.461434 337.909038 
L 76.887099 335.278042 
L 77.099932 328.042806 
L 77.312764 328.042806 
L 77.525596 326.727308 
L 77.951261 326.727308 
L 78.164094 324.096313 
L 80.079586 324.096313 
L 80.292418 323.438564 
L 80.718083 323.438564 
L 80.930916 322.123067 
L 81.143748 322.123067 
L 81.356581 319.492072 
L 81.569413 319.492072 
L 82.633575 312.914584 
L 82.846408 312.914584 
L 83.05924 311.599086 
L 83.484905 311.599086 
L 83.697738 310.941338 
L 83.91057 310.941338 
L 84.123403 309.62584 
L 84.336235 309.62584 
L 84.549068 306.337096 
L 91.146874 306.337096 
L 91.359706 305.679347 
L 99.021675 305.679347 
L 99.234507 305.021599 
L 101.575664 305.021599 
L 101.788497 304.36385 
L 102.001329 304.36385 
L 102.214162 261.610179 
L 106.045146 261.610179 
L 106.257978 257.005938 
L 108.599136 257.005938 
L 108.811968 254.374943 
L 118.602261 254.374943 
L 118.815094 253.717194 
L 129.669549 253.717194 
L 129.882381 215.567765 
L 133.713366 215.567765 
L 133.926198 214.252268 
L 136.905853 214.252268 
L 137.118685 208.990277 
L 150.101465 208.990277 
L 150.314298 208.332529 
L 161.594418 208.332529 
L 161.80725 179.391582 
L 164.574072 179.391582 
L 164.786905 178.076085 
L 167.979392 178.076085 
L 168.192224 177.418336 
L 171.384711 177.418336 
L 171.597544 174.787341 
L 174.79003 174.787341 
L 175.002863 174.129592 
L 178.19535 174.129592 
L 178.408182 172.814095 
L 199.478596 172.814095 
L 199.691428 166.236607 
L 203.096748 166.236607 
L 203.30958 164.263361 
L 206.289234 164.263361 
L 206.502067 160.974617 
L 210.545884 160.974617 
L 210.758716 159.00137 
L 213.73837 159.00137 
L 213.951203 156.370375 
L 217.782187 156.370375 
L 217.99502 154.397129 
L 232.680459 154.397129 
L 232.893292 150.450636 
L 238.214103 150.450636 
L 238.426936 149.135139 
L 241.832255 149.135139 
L 242.045088 145.846395 
L 245.450407 145.846395 
L 245.663239 145.188646 
L 249.068559 145.188646 
L 249.281391 142.557651 
L 260.348679 142.557651 
L 260.561512 141.899902 
L 266.946485 141.899902 
L 267.159318 141.242153 
L 270.138972 141.242153 
L 270.351805 139.268907 
L 286.314239 139.268907 
L 286.527072 138.611158 
L 289.506726 138.611158 
L 289.719558 137.953409 
L 331.860385 137.953409 
L 332.073218 134.006917 
L 335.69137 134.006917 
L 335.904202 130.060424 
L 336.117035 129.402675 
L 342.502008 129.402675 
L 342.714841 128.087178 
L 359.315773 128.087178 
L 359.528605 127.429429 
L 375.916705 127.429429 
L 375.916705 127.429429 
" clip-path="url(#pa2ee689d2f)" style="fill: none; stroke: #b9db57; stroke-width: 1.2; stroke-linecap: round"/>
   </g>
   <g id="line2d_29">
    <path d="M 69.650795 478.667276 
L 69.863628 445.779837 
L 70.07646 440.517847 
L 70.289293 412.892398 
L 70.502125 406.972659 
L 70.92779 404.341664 
L 71.140623 399.737423 
L 71.353455 392.502186 
L 71.566288 391.844437 
L 71.77912 389.871191 
L 71.991953 386.582447 
L 72.204785 377.373964 
L 72.417617 374.742969 
L 72.63045 374.08522 
L 73.056115 370.796476 
L 73.268947 365.534486 
L 73.907445 361.587993 
L 74.120277 361.587993 
L 74.33311 360.272496 
L 74.545942 343.828777 
L 74.758774 343.171028 
L 75.184439 343.171028 
L 75.822937 339.882284 
L 76.035769 336.59354 
L 76.248602 336.59354 
L 76.461434 335.935791 
L 76.674267 335.935791 
L 76.887099 335.278042 
L 77.099932 335.278042 
L 77.525596 333.962545 
L 77.738429 333.962545 
L 77.951261 325.411811 
L 78.164094 324.754062 
L 79.015424 324.754062 
L 79.228256 323.438564 
L 79.441089 323.438564 
L 79.653921 322.780816 
L 79.866754 322.780816 
L 80.079586 322.123067 
L 80.505251 322.123067 
L 80.718083 321.465318 
L 80.930916 321.465318 
L 81.143748 319.492072 
L 81.356581 319.492072 
L 81.569413 318.176574 
L 82.420743 318.176574 
L 82.633575 313.572333 
L 83.697738 313.572333 
L 83.91057 312.914584 
L 84.123403 310.283589 
L 84.336235 310.283589 
L 84.549068 306.994845 
L 84.7619 306.994845 
L 84.974733 305.021599 
L 85.187565 304.36385 
L 85.400397 304.36385 
L 85.61323 303.048352 
L 85.826062 303.048352 
L 86.038895 301.732855 
L 86.677392 301.732855 
L 87.741555 298.444111 
L 89.018549 298.444111 
L 89.231382 297.786362 
L 89.444214 297.786362 
L 89.657047 297.128613 
L 89.869879 297.128613 
L 90.082712 296.470865 
L 90.295544 295.155367 
L 90.508376 289.893377 
L 90.934041 289.893377 
L 91.146874 289.235628 
L 91.998204 289.235628 
L 92.211036 284.631387 
L 94.552193 284.631387 
L 94.765026 283.973638 
L 94.977858 283.973638 
L 95.403523 282.65814 
L 95.616356 282.65814 
L 95.829188 280.027145 
L 97.106183 280.027145 
L 97.319015 277.39615 
L 97.531848 276.738401 
L 97.74468 276.738401 
L 97.957513 270.818662 
L 98.59601 270.818662 
L 98.808842 265.556672 
L 100.937167 265.556672 
L 101.149999 264.898923 
L 101.788497 264.898923 
L 102.001329 264.241175 
L 102.426994 264.241175 
L 102.639827 263.583426 
L 103.278324 263.583426 
L 103.491157 262.925677 
L 104.129654 262.925677 
L 104.555319 261.610179 
L 105.406649 261.610179 
L 105.619481 259.636933 
L 106.257978 259.636933 
L 106.470811 258.979184 
L 107.322141 258.979184 
L 107.747806 257.005938 
L 108.386303 257.005938 
L 108.599136 256.348189 
L 109.237633 256.348189 
L 109.450465 255.69044 
L 110.301795 255.69044 
L 110.514628 255.032692 
L 110.72746 253.717194 
L 112.43012 253.717194 
L 112.642952 253.059445 
L 112.855785 253.059445 
L 113.068617 252.401697 
L 114.345612 252.401697 
L 114.558444 251.743948 
L 114.771277 251.743948 
L 114.984109 250.42845 
L 115.835439 250.42845 
L 116.048272 249.112953 
L 116.261104 245.824209 
L 116.899601 245.824209 
L 117.112434 245.16646 
L 117.325266 245.16646 
L 117.538099 243.850962 
L 119.240758 243.850962 
L 119.453591 243.193214 
L 119.666423 241.219967 
L 119.879256 234.64248 
L 120.092088 233.326982 
L 120.304921 233.326982 
L 120.730586 231.353736 
L 120.943418 230.695987 
L 122.85891 230.695987 
L 123.071743 223.46075 
L 124.348738 223.46075 
L 124.774402 222.145253 
L 125.200067 222.145253 
L 125.4129 221.487504 
L 126.902727 221.487504 
L 127.115559 220.829755 
L 127.966889 220.829755 
L 128.179722 220.172007 
L 129.456717 220.172007 
L 129.669549 219.514258 
L 130.733711 219.514258 
L 130.946544 218.856509 
L 133.713366 218.856509 
L 133.926198 218.19876 
L 134.777528 218.19876 
L 135.203193 214.910016 
L 135.84169 214.910016 
L 136.054523 214.252268 
L 136.69302 214.252268 
L 136.905853 212.93677 
L 139.885507 212.93677 
L 140.09834 210.963524 
L 140.311172 210.305775 
L 141.162502 205.701533 
L 141.375334 205.043785 
L 144.142156 205.043785 
L 144.354989 202.41279 
L 145.631983 202.41279 
L 145.844816 201.755041 
L 146.483313 201.755041 
L 146.696146 201.097292 
L 147.121811 201.097292 
L 147.334643 199.781794 
L 150.314298 199.781794 
L 150.52713 199.124046 
L 150.739962 199.124046 
L 150.952795 198.466297 
L 151.37846 198.466297 
L 151.591292 197.808548 
L 151.804125 197.808548 
L 152.016957 196.493051 
L 152.655455 196.493051 
L 152.868287 195.835302 
L 153.506784 195.835302 
L 153.719617 190.573312 
L 154.570947 190.573312 
L 154.783779 189.915563 
L 155.422277 189.915563 
L 155.635109 188.600065 
L 156.699271 188.600065 
L 156.912104 187.942316 
L 160.530256 187.942316 
L 160.743088 186.626819 
L 160.955921 183.995824 
L 162.445748 183.995824 
L 162.65858 183.338075 
L 163.084245 183.338075 
L 163.297078 182.680326 
L 167.553727 182.680326 
L 167.766559 182.022577 
L 169.256386 182.022577 
L 169.469219 181.364829 
L 170.533381 181.364829 
L 170.746214 180.049331 
L 170.959046 180.049331 
L 171.171879 179.391582 
L 172.661706 179.391582 
L 172.874538 178.733834 
L 175.428528 178.733834 
L 175.64136 178.076085 
L 176.067025 178.076085 
L 176.279858 177.418336 
L 179.685177 177.418336 
L 179.898009 176.760587 
L 189.049805 176.760587 
L 189.262638 176.102838 
L 193.732119 176.102838 
L 193.944952 175.44509 
L 195.860444 175.44509 
L 196.073276 174.787341 
L 197.775936 174.787341 
L 197.988768 173.471843 
L 198.840098 173.471843 
L 199.052931 170.840848 
L 199.265763 170.1831 
L 200.117093 170.1831 
L 200.329926 168.209853 
L 207.140564 168.209853 
L 207.353397 164.921109 
L 208.630391 164.921109 
L 209.056056 163.605612 
L 215.653863 163.605612 
L 215.866695 162.947863 
L 216.079528 160.974617 
L 217.569355 160.974617 
L 217.782187 160.316868 
L 218.84635 160.316868 
L 219.059182 159.659119 
L 220.549009 159.659119 
L 220.761842 159.00137 
L 224.592826 159.00137 
L 224.805658 158.343622 
L 230.339302 158.343622 
L 230.552135 157.028124 
L 230.9778 157.028124 
L 231.190632 156.370375 
L 234.170287 156.370375 
L 234.383119 155.712626 
L 239.065433 155.712626 
L 239.278266 154.397129 
L 242.470752 154.397129 
L 242.683585 151.108385 
L 244.599077 151.108385 
L 244.81191 150.450636 
L 245.663239 150.450636 
L 245.876072 149.792887 
L 246.088904 149.792887 
L 246.301737 148.47739 
L 246.727402 148.47739 
L 246.940234 147.819641 
L 258.433187 147.819641 
L 258.646019 147.161892 
L 269.287642 147.161892 
L 269.713307 145.846395 
L 269.92614 145.846395 
L 270.138972 145.188646 
L 287.804066 145.188646 
L 288.016899 144.530897 
L 318.239108 144.530897 
L 318.451941 143.873148 
L 322.282925 143.873148 
L 322.495757 143.2154 
L 329.519228 143.2154 
L 329.732061 142.557651 
L 330.370558 142.557651 
L 330.796223 141.242153 
L 331.009056 141.242153 
L 331.434721 139.926656 
L 333.775878 139.926656 
L 333.98871 139.268907 
L 334.627207 139.268907 
L 334.84004 138.611158 
L 335.052872 137.295661 
L 335.478537 137.295661 
L 335.69137 136.637912 
L 339.735186 136.637912 
L 339.948019 135.980163 
L 341.225014 135.980163 
L 341.437846 135.322414 
L 342.714841 135.322414 
L 342.927673 134.664666 
L 355.059124 134.664666 
L 355.271956 134.006917 
L 375.916705 134.006917 
L 375.916705 134.006917 
" clip-path="url(#pa2ee689d2f)" style="fill: none; stroke: #57db94; stroke-width: 1.2; stroke-linecap: round"/>
   </g>
   <g id="line2d_30">
    <path d="M 69.650795 479.325024 
L 69.863628 447.753083 
L 70.07646 435.913605 
L 70.289293 406.31491 
L 70.502125 395.133181 
L 71.140623 384.609201 
L 71.353455 383.951452 
L 71.566288 380.662708 
L 71.77912 380.004959 
L 72.204785 377.373964 
L 72.63045 370.796476 
L 72.843282 366.192235 
L 73.268947 362.903491 
L 73.48178 362.903491 
L 74.120277 360.930245 
L 74.33311 359.614747 
L 74.545942 359.614747 
L 74.971607 357.641501 
L 76.035769 357.641501 
L 76.248602 356.983752 
L 76.461434 356.983752 
L 76.674267 355.010506 
L 76.887099 355.010506 
L 77.099932 354.352757 
L 78.164094 354.352757 
L 78.376926 353.695008 
L 79.441089 353.695008 
L 79.653921 349.748515 
L 80.079586 348.433018 
L 80.292418 347.11752 
L 80.718083 347.11752 
L 81.143748 345.802023 
L 81.356581 345.802023 
L 81.569413 345.144274 
L 81.782246 343.171028 
L 81.995078 342.513279 
L 82.207911 342.513279 
L 82.420743 341.85553 
L 82.633575 341.85553 
L 82.846408 305.679347 
L 83.272073 305.679347 
L 83.484905 304.36385 
L 84.549068 304.36385 
L 84.7619 303.706101 
L 84.974733 303.706101 
L 85.187565 303.048352 
L 86.251727 303.048352 
L 86.46456 302.390604 
L 87.31589 302.390604 
L 87.528722 301.732855 
L 88.592884 301.732855 
L 88.805717 301.075106 
L 89.657047 301.075106 
L 89.869879 300.417357 
L 90.082712 298.444111 
L 90.721209 298.444111 
L 90.934041 297.786362 
L 91.146874 297.786362 
L 91.359706 297.128613 
L 91.572539 295.813116 
L 93.700863 295.813116 
L 94.126528 294.497618 
L 94.339361 271.476411 
L 96.04202 271.476411 
L 96.680518 269.503165 
L 97.531848 269.503165 
L 97.957513 260.952431 
L 102.001329 260.952431 
L 102.214162 253.717194 
L 102.426994 253.059445 
L 104.342486 253.059445 
L 104.768151 251.743948 
L 105.406649 251.743948 
L 105.619481 251.086199 
L 107.322141 251.086199 
L 107.534973 247.139706 
L 109.663298 247.139706 
L 109.87613 246.481958 
L 110.301795 246.481958 
L 110.514628 245.16646 
L 110.72746 242.535465 
L 111.57879 242.535465 
L 111.791622 241.877716 
L 113.919947 241.877716 
L 114.132779 241.219967 
L 114.984109 241.219967 
L 115.196942 240.562219 
L 115.409774 240.562219 
L 115.622607 239.90447 
L 121.369083 239.90447 
L 121.794748 207.67478 
L 122.00758 207.017031 
L 124.56157 207.017031 
L 124.774402 206.359282 
L 129.031052 206.359282 
L 129.243884 205.701533 
L 130.946544 205.701533 
L 131.159376 205.043785 
L 132.223539 205.043785 
L 132.436371 201.755041 
L 140.09834 201.755041 
L 140.524004 188.600065 
L 145.206319 188.600065 
L 145.419151 185.96907 
L 145.631983 185.96907 
L 145.844816 185.311321 
L 150.314298 185.311321 
L 150.52713 184.653573 
L 150.952795 184.653573 
L 151.165627 183.995824 
L 151.804125 183.995824 
L 152.016957 183.338075 
L 152.22979 183.338075 
L 152.442622 182.680326 
L 153.08112 182.680326 
L 153.293952 182.022577 
L 154.145282 182.022577 
L 154.358114 172.814095 
L 156.912104 172.814095 
L 157.124936 172.156346 
L 159.253261 172.156346 
L 159.891758 168.867602 
L 160.317423 168.867602 
L 160.743088 166.894356 
L 161.80725 166.894356 
L 162.020083 166.236607 
L 164.999737 166.236607 
L 165.21257 163.605612 
L 170.107716 163.605612 
L 170.320549 162.947863 
L 171.810376 162.947863 
L 172.023208 160.316868 
L 174.364365 160.316868 
L 174.577198 159.659119 
L 179.472345 159.659119 
L 179.685177 159.00137 
L 179.898009 159.00137 
L 180.110842 157.685873 
L 183.728994 157.685873 
L 183.941826 157.028124 
L 190.965297 157.028124 
L 191.17813 156.370375 
L 196.498941 156.370375 
L 196.711774 155.712626 
L 197.137439 155.712626 
L 197.350271 155.054878 
L 199.052931 155.054878 
L 199.265763 154.397129 
L 203.096748 154.397129 
L 203.522412 143.2154 
L 203.948077 143.2154 
L 204.373742 141.899902 
L 208.417559 141.899902 
L 208.630391 141.242153 
L 210.758716 141.242153 
L 210.971549 140.584405 
L 212.035711 140.584405 
L 212.248543 139.926656 
L 212.674208 139.926656 
L 212.887041 139.268907 
L 213.312706 139.268907 
L 213.73837 137.953409 
L 215.228198 137.953409 
L 215.44103 137.295661 
L 215.866695 137.295661 
L 216.079528 136.637912 
L 219.272014 136.637912 
L 219.484847 134.664666 
L 220.123344 134.664666 
L 220.336177 134.006917 
L 225.869821 134.006917 
L 226.295486 131.375922 
L 237.149941 131.375922 
L 237.575606 129.402675 
L 240.129595 129.402675 
L 240.342428 128.087178 
L 240.55526 128.087178 
L 241.193758 126.113931 
L 242.25792 126.113931 
L 242.470752 124.140685 
L 245.663239 124.140685 
L 246.514569 121.50969 
L 249.707056 121.50969 
L 249.919889 120.851941 
L 258.007522 120.851941 
L 258.220354 120.194192 
L 266.095155 120.194192 
L 266.307988 119.536444 
L 267.797815 119.536444 
L 268.010648 118.878695 
L 270.351805 118.878695 
L 270.564637 117.563197 
L 280.35493 117.563197 
L 280.567763 116.905449 
L 287.591234 116.905449 
L 287.804066 116.2477 
L 318.239108 116.2477 
L 318.451941 115.589951 
L 331.434721 115.589951 
L 331.647553 113.616705 
L 332.073218 113.616705 
L 332.28605 112.958956 
L 333.775878 112.958956 
L 333.98871 112.301207 
L 335.904202 112.301207 
L 336.117035 111.643458 
L 336.329867 111.643458 
L 336.5427 110.327961 
L 336.755532 110.327961 
L 336.968364 109.670212 
L 339.309522 109.670212 
L 339.522354 108.354715 
L 341.437846 108.354715 
L 341.650679 107.039217 
L 345.481663 107.039217 
L 345.694495 106.381468 
L 346.12016 106.381468 
L 346.332993 105.723719 
L 375.916705 105.723719 
L 375.916705 105.723719 
" clip-path="url(#pa2ee689d2f)" style="fill: none; stroke: #5784db; stroke-width: 1.2; stroke-linecap: round"/>
   </g>
   <g id="line2d_31">
    <path d="M 69.650795 477.351778 
L 69.863628 440.517847 
L 70.07646 432.624861 
L 70.289293 400.395171 
L 70.502125 387.240196 
L 72.843282 345.144274 
L 73.056115 342.513279 
L 73.268947 336.59354 
L 73.907445 333.304796 
L 74.120277 333.304796 
L 74.33311 330.673801 
L 74.545942 330.673801 
L 74.758774 329.358303 
L 75.184439 329.358303 
L 75.822937 325.411811 
L 76.035769 322.780816 
L 76.248602 322.780816 
L 76.674267 319.492072 
L 76.887099 316.861077 
L 77.099932 311.599086 
L 77.525596 310.283589 
L 77.738429 310.283589 
L 77.951261 309.62584 
L 78.164094 307.652594 
L 79.866754 307.652594 
L 80.079586 306.994845 
L 80.505251 306.994845 
L 80.718083 305.679347 
L 80.930916 305.679347 
L 81.143748 303.048352 
L 81.569413 303.048352 
L 82.633575 297.128613 
L 82.846408 297.128613 
L 83.05924 295.813116 
L 83.272073 295.813116 
L 83.484905 294.497618 
L 83.697738 294.497618 
L 84.123403 293.182121 
L 84.336235 293.182121 
L 84.549068 289.893377 
L 84.7619 289.235628 
L 85.187565 285.946884 
L 85.826062 285.946884 
L 86.038895 284.631387 
L 86.251727 284.631387 
L 86.46456 283.973638 
L 86.677392 283.973638 
L 87.31589 282.000392 
L 87.528722 280.684894 
L 89.018549 280.684894 
L 89.231382 280.027145 
L 89.444214 280.027145 
L 89.657047 279.369396 
L 89.869879 279.369396 
L 90.295544 276.080653 
L 90.508376 270.818662 
L 90.721209 270.818662 
L 91.359706 268.845416 
L 91.572539 267.529918 
L 91.785371 267.529918 
L 91.998204 266.87217 
L 92.211036 264.241175 
L 93.913696 264.241175 
L 94.126528 263.583426 
L 94.339361 259.636933 
L 94.552193 259.636933 
L 94.765026 258.979184 
L 94.977858 258.979184 
L 95.403523 257.663687 
L 96.04202 257.663687 
L 96.680518 255.69044 
L 97.106183 255.69044 
L 97.531848 254.374943 
L 97.74468 249.770701 
L 97.957513 248.455204 
L 98.59601 248.455204 
L 98.808842 243.193214 
L 100.937167 243.193214 
L 101.149999 242.535465 
L 101.788497 242.535465 
L 102.639827 239.90447 
L 103.278324 239.90447 
L 103.491157 239.246721 
L 104.129654 239.246721 
L 104.555319 237.931223 
L 104.768151 235.957977 
L 105.406649 235.957977 
L 105.619481 235.300228 
L 106.257978 235.300228 
L 106.470811 234.64248 
L 107.109308 234.64248 
L 107.747806 232.669233 
L 108.386303 232.669233 
L 108.599136 232.011485 
L 109.237633 232.011485 
L 109.450465 231.353736 
L 109.663298 231.353736 
L 109.87613 230.695987 
L 110.301795 230.695987 
L 110.514628 229.380489 
L 111.57879 229.380489 
L 111.791622 228.722741 
L 112.43012 228.722741 
L 112.642952 228.064992 
L 112.855785 228.064992 
L 113.068617 227.407243 
L 114.345612 227.407243 
L 114.558444 226.749494 
L 114.771277 226.749494 
L 114.984109 225.433997 
L 115.409774 225.433997 
L 115.622607 224.776248 
L 115.835439 224.776248 
L 116.048272 223.46075 
L 116.261104 220.172007 
L 116.899601 220.172007 
L 117.112434 219.514258 
L 117.325266 219.514258 
L 117.538099 218.19876 
L 118.602261 218.19876 
L 118.815094 217.541011 
L 119.453591 217.541011 
L 119.666423 215.567765 
L 119.879256 208.990277 
L 120.092088 207.67478 
L 120.304921 207.67478 
L 120.730586 205.701533 
L 120.943418 205.043785 
L 121.581916 205.043785 
L 121.794748 194.519804 
L 122.00758 193.862055 
L 122.85891 193.862055 
L 123.071743 193.204307 
L 124.348738 193.204307 
L 124.774402 191.888809 
L 125.200067 191.888809 
L 125.4129 191.23106 
L 126.477062 191.23106 
L 126.689895 190.573312 
L 127.328392 190.573312 
L 127.541224 189.257814 
L 129.456717 189.257814 
L 129.669549 188.600065 
L 130.733711 188.600065 
L 130.946544 187.942316 
L 133.713366 187.942316 
L 133.926198 187.284568 
L 134.777528 187.284568 
L 135.203193 183.995824 
L 135.84169 183.995824 
L 136.054523 183.338075 
L 136.69302 183.338075 
L 136.905853 182.022577 
L 139.885507 182.022577 
L 140.09834 180.049331 
L 140.311172 176.102838 
L 140.524004 174.787341 
L 141.162502 174.787341 
L 141.375334 174.129592 
L 144.142156 174.129592 
L 144.354989 172.156346 
L 145.631983 172.156346 
L 145.844816 170.840848 
L 147.121811 170.840848 
L 147.334643 169.525351 
L 150.314298 169.525351 
L 150.52713 168.209853 
L 150.739962 168.209853 
L 151.165627 166.894356 
L 151.37846 166.894356 
L 151.591292 166.236607 
L 151.804125 166.236607 
L 152.016957 164.263361 
L 152.22979 164.263361 
L 152.442622 163.605612 
L 152.655455 163.605612 
L 153.08112 159.659119 
L 154.145282 159.659119 
L 154.358114 158.343622 
L 154.570947 158.343622 
L 154.783779 157.685873 
L 156.699271 157.685873 
L 157.124936 156.370375 
L 159.466093 156.370375 
L 159.891758 154.397129 
L 160.317423 154.397129 
L 160.955921 151.108385 
L 161.80725 151.108385 
L 162.020083 150.450636 
L 162.232915 150.450636 
L 162.65858 149.135139 
L 167.553727 149.135139 
L 167.766559 148.47739 
L 169.256386 148.47739 
L 169.469219 147.819641 
L 170.107716 147.819641 
L 170.320549 147.161892 
L 170.533381 147.161892 
L 170.746214 146.504144 
L 170.959046 146.504144 
L 171.171879 145.846395 
L 172.661706 145.846395 
L 172.874538 145.188646 
L 175.428528 145.188646 
L 175.64136 144.530897 
L 176.067025 144.530897 
L 176.279858 143.873148 
L 179.685177 143.873148 
L 179.898009 143.2154 
L 183.728994 143.2154 
L 183.941826 142.557651 
L 189.049805 142.557651 
L 189.262638 141.899902 
L 195.860444 141.899902 
L 196.073276 141.242153 
L 196.498941 141.242153 
L 196.711774 140.584405 
L 197.137439 140.584405 
L 197.350271 139.926656 
L 198.840098 139.926656 
L 199.052931 137.295661 
L 199.265763 136.637912 
L 200.117093 136.637912 
L 200.329926 134.664666 
L 203.30958 134.664666 
L 203.522412 128.087178 
L 203.948077 128.087178 
L 204.373742 126.77168 
L 208.417559 126.77168 
L 209.056056 124.798434 
L 210.758716 124.798434 
L 210.971549 124.140685 
L 212.035711 124.140685 
L 212.248543 123.482936 
L 212.674208 123.482936 
L 212.887041 122.825188 
L 213.312706 122.825188 
L 213.73837 121.50969 
L 215.228198 121.50969 
L 215.44103 120.851941 
L 215.653863 120.851941 
L 216.079528 119.536444 
L 220.123344 119.536444 
L 220.336177 118.878695 
L 224.592826 118.878695 
L 224.805658 118.220946 
L 225.444156 118.220946 
L 225.656988 117.563197 
L 225.869821 117.563197 
L 226.082653 116.2477 
L 230.9778 116.2477 
L 231.190632 115.589951 
L 237.149941 115.589951 
L 237.362773 114.274454 
L 240.129595 114.274454 
L 240.342428 112.958956 
L 240.55526 112.958956 
L 241.193758 110.98571 
L 242.25792 110.98571 
L 242.470752 109.012463 
L 245.663239 109.012463 
L 246.514569 106.381468 
L 249.707056 106.381468 
L 249.919889 105.723719 
L 258.007522 105.723719 
L 258.220354 105.065971 
L 266.095155 105.065971 
L 266.307988 104.408222 
L 267.797815 104.408222 
L 268.010648 103.750473 
L 269.500475 103.750473 
L 269.713307 103.092724 
L 269.92614 103.092724 
L 270.138972 102.434976 
L 280.35493 102.434976 
L 280.567763 101.777227 
L 287.591234 101.777227 
L 287.804066 101.119478 
L 318.239108 101.119478 
L 318.451941 100.461729 
L 329.519228 100.461729 
L 329.732061 99.80398 
L 330.370558 99.80398 
L 330.796223 98.488483 
L 331.009056 98.488483 
L 331.434721 97.172985 
L 332.073218 97.172985 
L 332.28605 96.515237 
L 333.775878 96.515237 
L 334.201543 94.54199 
L 334.84004 94.54199 
L 335.052872 93.226493 
L 335.904202 93.226493 
L 336.117035 92.568744 
L 336.755532 92.568744 
L 336.968364 91.910995 
L 339.735186 91.910995 
L 339.948019 91.253246 
L 341.225014 91.253246 
L 341.650679 89.937749 
L 342.714841 89.937749 
L 342.927673 89.28 
L 375.916705 89.28 
L 375.916705 89.28 
" clip-path="url(#pa2ee689d2f)" style="fill: none; stroke: #c957db; stroke-width: 1.2; stroke-linecap: round"/>
   </g>
   <g id="line2d_32"/>
   <g id="line2d_33"/>
   <g id="line2d_34"/>
   <g id="line2d_35"/>
   <g id="line2d_36"/>
   <g id="patch_3">
    <path d="M 54.3375 512.64 
L 54.3375 69.12 
" style="fill: none; stroke: #cccccc; stroke-linejoin: miter; stroke-linecap: square"/>
   </g>
   <g id="patch_4">
    <path d="M 54.3375 512.64 
L 391.23 512.64 
" style="fill: none; stroke: #cccccc; stroke-linejoin: miter; stroke-linecap: square"/>
   </g>
   <g id="text_29">
    <!-- Edge Coverage History -->
    <g style="fill: #262626" transform="translate(115.892262 63.12)scale(0.165888 -0.165888)">
     <defs>
      <path id="DejaVuSans-Bold-45" d="M 588 4666 
L 3834 4666 
L 3834 3756 
L 1791 3756 
L 1791 2888 
L 3713 2888 
L 3713 1978 
L 1791 1978 
L 1791 909 
L 3903 909 
L 3903 0 
L 588 0 
L 588 4666 
z
" transform="scale(0.015625)"/>
      <path id="DejaVuSans-Bold-64" d="M 2919 2988 
L 2919 4863 
L 4044 4863 
L 4044 0 
L 2919 0 
L 2919 506 
Q 2688 197 2409 53 
Q 2131 -91 1766 -91 
Q 1119 -91 703 423 
Q 288 938 288 1747 
Q 288 2556 703 3070 
Q 1119 3584 1766 3584 
Q 2128 3584 2408 3439 
Q 2688 3294 2919 2988 
z
M 2181 722 
Q 2541 722 2730 984 
Q 2919 1247 2919 1747 
Q 2919 2247 2730 2509 
Q 2541 2772 2181 2772 
Q 1825 2772 1636 2509 
Q 1447 2247 1447 1747 
Q 1447 1247 1636 984 
Q 1825 722 2181 722 
z
" transform="scale(0.015625)"/>
      <path id="DejaVuSans-Bold-67" d="M 2919 594 
Q 2688 288 2409 144 
Q 2131 0 1766 0 
Q 1125 0 706 504 
Q 288 1009 288 1791 
Q 288 2575 706 3076 
Q 1125 3578 1766 3578 
Q 2131 3578 2409 3434 
Q 2688 3291 2919 2981 
L 2919 3500 
L 4044 3500 
L 4044 353 
Q 4044 -491 3511 -936 
Q 2978 -1381 1966 -1381 
Q 1638 -1381 1331 -1331 
Q 1025 -1281 716 -1178 
L 716 -306 
Q 1009 -475 1290 -558 
Q 1572 -641 1856 -641 
Q 2406 -641 2662 -400 
Q 2919 -159 2919 353 
L 2919 594 
z
M 2181 2772 
Q 1834 2772 1640 2515 
Q 1447 2259 1447 1791 
Q 1447 1309 1634 1061 
Q 1822 813 2181 813 
Q 2531 813 2725 1069 
Q 2919 1325 2919 1791 
Q 2919 2259 2725 2515 
Q 2531 2772 2181 2772 
z
" transform="scale(0.015625)"/>
      <path id="DejaVuSans-Bold-65" d="M 4031 1759 
L 4031 1441 
L 1416 1441 
Q 1456 1047 1700 850 
Q 1944 653 2381 653 
Q 2734 653 3104 758 
Q 3475 863 3866 1075 
L 3866 213 
Q 3469 63 3072 -14 
Q 2675 -91 2278 -91 
Q 1328 -91 801 392 
Q 275 875 275 1747 
Q 275 2603 792 3093 
Q 1309 3584 2216 3584 
Q 3041 3584 3536 3087 
Q 4031 2591 4031 1759 
z
M 2881 2131 
Q 2881 2450 2695 2645 
Q 2509 2841 2209 2841 
Q 1884 2841 1681 2658 
Q 1478 2475 1428 2131 
L 2881 2131 
z
" transform="scale(0.015625)"/>
      <path id="DejaVuSans-Bold-20" transform="scale(0.015625)"/>
      <path id="DejaVuSans-Bold-43" d="M 4288 256 
Q 3956 84 3597 -3 
Q 3238 -91 2847 -91 
Q 1681 -91 1000 561 
Q 319 1213 319 2328 
Q 319 3447 1000 4098 
Q 1681 4750 2847 4750 
Q 3238 4750 3597 4662 
Q 3956 4575 4288 4403 
L 4288 3438 
Q 3953 3666 3628 3772 
Q 3303 3878 2944 3878 
Q 2300 3878 1931 3465 
Q 1563 3053 1563 2328 
Q 1563 1606 1931 1193 
Q 2300 781 2944 781 
Q 3303 781 3628 887 
Q 3953 994 4288 1222 
L 4288 256 
z
" transform="scale(0.015625)"/>
      <path id="DejaVuSans-Bold-6f" d="M 2203 2784 
Q 1831 2784 1636 2517 
Q 1441 2250 1441 1747 
Q 1441 1244 1636 976 
Q 1831 709 2203 709 
Q 2569 709 2762 976 
Q 2956 1244 2956 1747 
Q 2956 2250 2762 2517 
Q 2569 2784 2203 2784 
z
M 2203 3584 
Q 3106 3584 3614 3096 
Q 4122 2609 4122 1747 
Q 4122 884 3614 396 
Q 3106 -91 2203 -91 
Q 1297 -91 786 396 
Q 275 884 275 1747 
Q 275 2609 786 3096 
Q 1297 3584 2203 3584 
z
" transform="scale(0.015625)"/>
      <path id="DejaVuSans-Bold-76" d="M 97 3500 
L 1216 3500 
L 2088 1081 
L 2956 3500 
L 4078 3500 
L 2700 0 
L 1472 0 
L 97 3500 
z
" transform="scale(0.015625)"/>
      <path id="DejaVuSans-Bold-72" d="M 3138 2547 
Q 2991 2616 2845 2648 
Q 2700 2681 2553 2681 
Q 2122 2681 1889 2404 
Q 1656 2128 1656 1613 
L 1656 0 
L 538 0 
L 538 3500 
L 1656 3500 
L 1656 2925 
Q 1872 3269 2151 3426 
Q 2431 3584 2822 3584 
Q 2878 3584 2943 3579 
Q 3009 3575 3134 3559 
L 3138 2547 
z
" transform="scale(0.015625)"/>
      <path id="DejaVuSans-Bold-61" d="M 2106 1575 
Q 1756 1575 1579 1456 
Q 1403 1338 1403 1106 
Q 1403 894 1545 773 
Q 1688 653 1941 653 
Q 2256 653 2472 879 
Q 2688 1106 2688 1447 
L 2688 1575 
L 2106 1575 
z
M 3816 1997 
L 3816 0 
L 2688 0 
L 2688 519 
Q 2463 200 2181 54 
Q 1900 -91 1497 -91 
Q 953 -91 614 226 
Q 275 544 275 1050 
Q 275 1666 698 1953 
Q 1122 2241 2028 2241 
L 2688 2241 
L 2688 2328 
Q 2688 2594 2478 2717 
Q 2269 2841 1825 2841 
Q 1466 2841 1156 2769 
Q 847 2697 581 2553 
L 581 3406 
Q 941 3494 1303 3539 
Q 1666 3584 2028 3584 
Q 2975 3584 3395 3211 
Q 3816 2838 3816 1997 
z
" transform="scale(0.015625)"/>
      <path id="DejaVuSans-Bold-48" d="M 588 4666 
L 1791 4666 
L 1791 2888 
L 3566 2888 
L 3566 4666 
L 4769 4666 
L 4769 0 
L 3566 0 
L 3566 1978 
L 1791 1978 
L 1791 0 
L 588 0 
L 588 4666 
z
" transform="scale(0.015625)"/>
      <path id="DejaVuSans-Bold-69" d="M 538 3500 
L 1656 3500 
L 1656 0 
L 538 0 
L 538 3500 
z
M 538 4863 
L 1656 4863 
L 1656 3950 
L 538 3950 
L 538 4863 
z
" transform="scale(0.015625)"/>
      <path id="DejaVuSans-Bold-73" d="M 3272 3391 
L 3272 2541 
Q 2913 2691 2578 2766 
Q 2244 2841 1947 2841 
Q 1628 2841 1473 2761 
Q 1319 2681 1319 2516 
Q 1319 2381 1436 2309 
Q 1553 2238 1856 2203 
L 2053 2175 
Q 2913 2066 3209 1816 
Q 3506 1566 3506 1031 
Q 3506 472 3093 190 
Q 2681 -91 1863 -91 
Q 1516 -91 1145 -36 
Q 775 19 384 128 
L 384 978 
Q 719 816 1070 734 
Q 1422 653 1784 653 
Q 2113 653 2278 743 
Q 2444 834 2444 1013 
Q 2444 1163 2330 1236 
Q 2216 1309 1875 1350 
L 1678 1375 
Q 931 1469 631 1722 
Q 331 1975 331 2491 
Q 331 3047 712 3315 
Q 1094 3584 1881 3584 
Q 2191 3584 2531 3537 
Q 2872 3491 3272 3391 
z
" transform="scale(0.015625)"/>
      <path id="DejaVuSans-Bold-74" d="M 1759 4494 
L 1759 3500 
L 2913 3500 
L 2913 2700 
L 1759 2700 
L 1759 1216 
Q 1759 972 1856 886 
Q 1953 800 2241 800 
L 2816 800 
L 2816 0 
L 1856 0 
Q 1194 0 917 276 
Q 641 553 641 1216 
L 641 2700 
L 84 2700 
L 84 3500 
L 641 3500 
L 641 4494 
L 1759 4494 
z
" transform="scale(0.015625)"/>
      <path id="DejaVuSans-Bold-79" d="M 78 3500 
L 1197 3500 
L 2138 1125 
L 2938 3500 
L 4056 3500 
L 2584 -331 
Q 2363 -916 2067 -1148 
Q 1772 -1381 1288 -1381 
L 641 -1381 
L 641 -647 
L 991 -647 
Q 1275 -647 1404 -556 
Q 1534 -466 1606 -231 
L 1638 -134 
L 78 3500 
z
" transform="scale(0.015625)"/>
     </defs>
     <use xlink:href="#DejaVuSans-Bold-45"/>
     <use xlink:href="#DejaVuSans-Bold-64" x="68.310547"/>
     <use xlink:href="#DejaVuSans-Bold-67" x="139.892578"/>
     <use xlink:href="#DejaVuSans-Bold-65" x="211.474609"/>
     <use xlink:href="#DejaVuSans-Bold-20" x="279.296875"/>
     <use xlink:href="#DejaVuSans-Bold-43" x="314.111328"/>
     <use xlink:href="#DejaVuSans-Bold-6f" x="387.5"/>
     <use xlink:href="#DejaVuSans-Bold-76" x="456.201172"/>
     <use xlink:href="#DejaVuSans-Bold-65" x="521.386719"/>
     <use xlink:href="#DejaVuSans-Bold-72" x="589.208984"/>
     <use xlink:href="#DejaVuSans-Bold-61" x="638.525391"/>
     <use xlink:href="#DejaVuSans-Bold-67" x="706.005859"/>
     <use xlink:href="#DejaVuSans-Bold-65" x="777.587891"/>
     <use xlink:href="#DejaVuSans-Bold-20" x="845.410156"/>
     <use xlink:href="#DejaVuSans-Bold-48" x="880.224609"/>
     <use xlink:href="#DejaVuSans-Bold-69" x="963.916016"/>
     <use xlink:href="#DejaVuSans-Bold-73" x="998.193359"/>
     <use xlink:href="#DejaVuSans-Bold-74" x="1057.714844"/>
     <use xlink:href="#DejaVuSans-Bold-6f" x="1105.517578"/>
     <use xlink:href="#DejaVuSans-Bold-72" x="1174.21875"/>
     <use xlink:href="#DejaVuSans-Bold-79" x="1223.535156"/>
    </g>
   </g>
   <g id="legend_1">
    <g id="patch_5">
     <path d="M 267.942 508.24 
L 385.07 508.24 
Q 386.83 508.24 386.83 506.48 
L 386.83 428.8405 
Q 386.83 427.0805 385.07 427.0805 
L 267.942 427.0805 
Q 266.182 427.0805 266.182 428.8405 
L 266.182 506.48 
Q 266.182 508.24 267.942 508.24 
z
" style="fill: #ffffff; opacity: 0.8; stroke: #cccccc; stroke-width: 0.8; stroke-linejoin: miter"/>
    </g>
    <g id="text_30">
     <!-- fuzzer -->
     <g style="fill: #262626" transform="translate(311.809 437.895)scale(0.096 -0.096)">
      <defs>
       <path id="DejaVuSans-66" d="M 2375 4863 
L 2375 4384 
L 1825 4384 
Q 1516 4384 1395 4259 
Q 1275 4134 1275 3809 
L 1275 3500 
L 2222 3500 
L 2222 3053 
L 1275 3053 
L 1275 0 
L 697 0 
L 697 3053 
L 147 3053 
L 147 3500 
L 697 3500 
L 697 3744 
Q 697 4328 969 4595 
Q 1241 4863 1831 4863 
L 2375 4863 
z
" transform="scale(0.015625)"/>
       <path id="DejaVuSans-7a" d="M 353 3500 
L 3084 3500 
L 3084 2975 
L 922 459 
L 3084 459 
L 3084 0 
L 275 0 
L 275 525 
L 2438 3041 
L 353 3041 
L 353 3500 
z
" transform="scale(0.015625)"/>
      </defs>
      <use xlink:href="#DejaVuSans-66"/>
      <use xlink:href="#DejaVuSans-75" x="35.205078"/>
      <use xlink:href="#DejaVuSans-7a" x="98.583984"/>
      <use xlink:href="#DejaVuSans-7a" x="151.074219"/>
      <use xlink:href="#DejaVuSans-65" x="203.564453"/>
      <use xlink:href="#DejaVuSans-72" x="265.087891"/>
     </g>
    </g>
    <g id="line2d_37">
     <path d="M 269.702 447.898125 
L 278.502 447.898125 
L 287.302 447.898125 
" style="fill: none; stroke: #db5f57; stroke-width: 1.2; stroke-linecap: round"/>
    </g>
    <g id="text_31">
     <!-- aflfast-0-exid21 -->
     <g style="fill: #262626" transform="translate(294.342 450.978125)scale(0.088 -0.088)">
      <defs>
       <path id="DejaVuSans-6c" d="M 603 4863 
L 1178 4863 
L 1178 0 
L 603 0 
L 603 4863 
z
" transform="scale(0.015625)"/>
       <path id="DejaVuSans-2d" d="M 313 2009 
L 1997 2009 
L 1997 1497 
L 313 1497 
L 313 2009 
z
" transform="scale(0.015625)"/>
       <path id="DejaVuSans-78" d="M 3513 3500 
L 2247 1797 
L 3578 0 
L 2900 0 
L 1881 1375 
L 863 0 
L 184 0 
L 1544 1831 
L 300 3500 
L 978 3500 
L 1906 2253 
L 2834 3500 
L 3513 3500 
z
" transform="scale(0.015625)"/>
      </defs>
      <use xlink:href="#DejaVuSans-61"/>
      <use xlink:href="#DejaVuSans-66" x="61.279297"/>
      <use xlink:href="#DejaVuSans-6c" x="96.484375"/>
      <use xlink:href="#DejaVuSans-66" x="124.267578"/>
      <use xlink:href="#DejaVuSans-61" x="159.472656"/>
      <use xlink:href="#DejaVuSans-73" x="220.751953"/>
      <use xlink:href="#DejaVuSans-74" x="272.851562"/>
      <use xlink:href="#DejaVuSans-2d" x="312.060547"/>
      <use xlink:href="#DejaVuSans-30" x="348.144531"/>
      <use xlink:href="#DejaVuSans-2d" x="411.767578"/>
      <use xlink:href="#DejaVuSans-65" x="447.851562"/>
      <use xlink:href="#DejaVuSans-78" x="507.625"/>
      <use xlink:href="#DejaVuSans-69" x="566.804688"/>
      <use xlink:href="#DejaVuSans-64" x="594.587891"/>
      <use xlink:href="#DejaVuSans-32" x="658.064453"/>
      <use xlink:href="#DejaVuSans-31" x="721.6875"/>
     </g>
    </g>
    <g id="line2d_38">
     <path d="M 269.702 460.814875 
L 278.502 460.814875 
L 287.302 460.814875 
" style="fill: none; stroke: #b9db57; stroke-width: 1.2; stroke-linecap: round"/>
    </g>
    <g id="text_32">
     <!-- aflplusplus-0-exid21 -->
     <g style="fill: #262626" transform="translate(294.342 463.894875)scale(0.088 -0.088)">
      <defs>
       <path id="DejaVuSans-70" d="M 1159 525 
L 1159 -1331 
L 581 -1331 
L 581 3500 
L 1159 3500 
L 1159 2969 
Q 1341 3281 1617 3432 
Q 1894 3584 2278 3584 
Q 2916 3584 3314 3078 
Q 3713 2572 3713 1747 
Q 3713 922 3314 415 
Q 2916 -91 2278 -91 
Q 1894 -91 1617 61 
Q 1341 213 1159 525 
z
M 3116 1747 
Q 3116 2381 2855 2742 
Q 2594 3103 2138 3103 
Q 1681 3103 1420 2742 
Q 1159 2381 1159 1747 
Q 1159 1113 1420 752 
Q 1681 391 2138 391 
Q 2594 391 2855 752 
Q 3116 1113 3116 1747 
z
" transform="scale(0.015625)"/>
      </defs>
      <use xlink:href="#DejaVuSans-61"/>
      <use xlink:href="#DejaVuSans-66" x="61.279297"/>
      <use xlink:href="#DejaVuSans-6c" x="96.484375"/>
      <use xlink:href="#DejaVuSans-70" x="124.267578"/>
      <use xlink:href="#DejaVuSans-6c" x="187.744141"/>
      <use xlink:href="#DejaVuSans-75" x="215.527344"/>
      <use xlink:href="#DejaVuSans-73" x="278.90625"/>
      <use xlink:href="#DejaVuSans-70" x="331.005859"/>
      <use xlink:href="#DejaVuSans-6c" x="394.482422"/>
      <use xlink:href="#DejaVuSans-75" x="422.265625"/>
      <use xlink:href="#DejaVuSans-73" x="485.644531"/>
      <use xlink:href="#DejaVuSans-2d" x="537.744141"/>
      <use xlink:href="#DejaVuSans-30" x="573.828125"/>
      <use xlink:href="#DejaVuSans-2d" x="637.451172"/>
      <use xlink:href="#DejaVuSans-65" x="673.535156"/>
      <use xlink:href="#DejaVuSans-78" x="733.308594"/>
      <use xlink:href="#DejaVuSans-69" x="792.488281"/>
      <use xlink:href="#DejaVuSans-64" x="820.271484"/>
      <use xlink:href="#DejaVuSans-32" x="883.748047"/>
      <use xlink:href="#DejaVuSans-31" x="947.371094"/>
     </g>
    </g>
    <g id="line2d_39">
     <path d="M 269.702 473.731625 
L 278.502 473.731625 
L 287.302 473.731625 
" style="fill: none; stroke: #57db94; stroke-width: 1.2; stroke-linecap: round"/>
    </g>
    <g id="text_33">
     <!-- afl-0-exid21 -->
     <g style="fill: #262626" transform="translate(294.342 476.811625)scale(0.088 -0.088)">
      <use xlink:href="#DejaVuSans-61"/>
      <use xlink:href="#DejaVuSans-66" x="61.279297"/>
      <use xlink:href="#DejaVuSans-6c" x="96.484375"/>
      <use xlink:href="#DejaVuSans-2d" x="124.267578"/>
      <use xlink:href="#DejaVuSans-30" x="160.351562"/>
      <use xlink:href="#DejaVuSans-2d" x="223.974609"/>
      <use xlink:href="#DejaVuSans-65" x="260.058594"/>
      <use xlink:href="#DejaVuSans-78" x="319.832031"/>
      <use xlink:href="#DejaVuSans-69" x="379.011719"/>
      <use xlink:href="#DejaVuSans-64" x="406.794922"/>
      <use xlink:href="#DejaVuSans-32" x="470.271484"/>
      <use xlink:href="#DejaVuSans-31" x="533.894531"/>
     </g>
    </g>
    <g id="line2d_40">
     <path d="M 269.702 486.648375 
L 278.502 486.648375 
L 287.302 486.648375 
" style="fill: none; stroke: #5784db; stroke-width: 1.2; stroke-linecap: round"/>
    </g>
    <g id="text_34">
     <!-- fairfuzz-0-exid21 -->
     <g style="fill: #262626" transform="translate(294.342 489.728375)scale(0.088 -0.088)">
      <use xlink:href="#DejaVuSans-66"/>
      <use xlink:href="#DejaVuSans-61" x="35.205078"/>
      <use xlink:href="#DejaVuSans-69" x="96.484375"/>
      <use xlink:href="#DejaVuSans-72" x="124.267578"/>
      <use xlink:href="#DejaVuSans-66" x="165.380859"/>
      <use xlink:href="#DejaVuSans-75" x="200.585938"/>
      <use xlink:href="#DejaVuSans-7a" x="263.964844"/>
      <use xlink:href="#DejaVuSans-7a" x="316.455078"/>
      <use xlink:href="#DejaVuSans-2d" x="368.945312"/>
      <use xlink:href="#DejaVuSans-30" x="405.029297"/>
      <use xlink:href="#DejaVuSans-2d" x="468.652344"/>
      <use xlink:href="#DejaVuSans-65" x="504.736328"/>
      <use xlink:href="#DejaVuSans-78" x="564.509766"/>
      <use xlink:href="#DejaVuSans-69" x="623.689453"/>
      <use xlink:href="#DejaVuSans-64" x="651.472656"/>
      <use xlink:href="#DejaVuSans-32" x="714.949219"/>
      <use xlink:href="#DejaVuSans-31" x="778.572266"/>
     </g>
    </g>
    <g id="line2d_41">
     <path d="M 269.702 499.565125 
L 278.502 499.565125 
L 287.302 499.565125 
" style="fill: none; stroke: #c957db; stroke-width: 1.2; stroke-linecap: round"/>
    </g>
    <g id="text_35">
     <!-- fuzzer_global -->
     <g style="fill: #262626" transform="translate(294.342 502.645125)scale(0.088 -0.088)">
      <defs>
       <path id="DejaVuSans-5f" d="M 3263 -1063 
L 3263 -1509 
L -63 -1509 
L -63 -1063 
L 3263 -1063 
z
" transform="scale(0.015625)"/>
       <path id="DejaVuSans-62" d="M 3116 1747 
Q 3116 2381 2855 2742 
Q 2594 3103 2138 3103 
Q 1681 3103 1420 2742 
Q 1159 2381 1159 1747 
Q 1159 1113 1420 752 
Q 1681 391 2138 391 
Q 2594 391 2855 752 
Q 3116 1113 3116 1747 
z
M 1159 2969 
Q 1341 3281 1617 3432 
Q 1894 3584 2278 3584 
Q 2916 3584 3314 3078 
Q 3713 2572 3713 1747 
Q 3713 922 3314 415 
Q 2916 -91 2278 -91 
Q 1894 -91 1617 61 
Q 1341 213 1159 525 
L 1159 0 
L 581 0 
L 581 4863 
L 1159 4863 
L 1159 2969 
z
" transform="scale(0.015625)"/>
      </defs>
      <use xlink:href="#DejaVuSans-66"/>
      <use xlink:href="#DejaVuSans-75" x="35.205078"/>
      <use xlink:href="#DejaVuSans-7a" x="98.583984"/>
      <use xlink:href="#DejaVuSans-7a" x="151.074219"/>
      <use xlink:href="#DejaVuSans-65" x="203.564453"/>
      <use xlink:href="#DejaVuSans-72" x="265.087891"/>
      <use xlink:href="#DejaVuSans-5f" x="306.201172"/>
      <use xlink:href="#DejaVuSans-67" x="356.201172"/>
      <use xlink:href="#DejaVuSans-6c" x="419.677734"/>
      <use xlink:href="#DejaVuSans-6f" x="447.460938"/>
      <use xlink:href="#DejaVuSans-62" x="508.642578"/>
      <use xlink:href="#DejaVuSans-61" x="572.119141"/>
      <use xlink:href="#DejaVuSans-6c" x="633.398438"/>
     </g>
    </g>
   </g>
  </g>
 </g>
 <defs>
  <clipPath id="pa2ee689d2f">
   <rect x="54.3375" y="69.12" width="336.8925" height="443.52"/>
  </clipPath>
 </defs>
</svg>
