<?xml version="1.0" encoding="utf-8" standalone="no"?>
<!DOCTYPE svg PUBLIC "-//W3C//DTD SVG 1.1//EN"
  "http://www.w3.org/Graphics/SVG/1.1/DTD/svg11.dtd">
<svg xmlns:xlink="http://www.w3.org/1999/xlink" width="434.4pt" height="576pt" viewBox="0 0 434.4 576" xmlns="http://www.w3.org/2000/svg" version="1.1">
 <metadata>
  <rdf:RDF xmlns:dc="http://purl.org/dc/elements/1.1/" xmlns:cc="http://creativecommons.org/ns#" xmlns:rdf="http://www.w3.org/1999/02/22-rdf-syntax-ns#">
   <cc:Work>
    <dc:type rdf:resource="http://purl.org/dc/dcmitype/StillImage"/>
    <dc:date>2022-09-15T08:52:45.644391</dc:date>
    <dc:format>image/svg+xml</dc:format>
    <dc:creator>
     <cc:Agent>
      <dc:title>Matplotlib v3.5.3, https://matplotlib.org/</dc:title>
     </cc:Agent>
    </dc:creator>
   </cc:Work>
  </rdf:RDF>
 </metadata>
 <defs>
  <style type="text/css">*{stroke-linejoin: round; stroke-linecap: butt}</style>
 </defs>
 <g id="figure_1">
  <g id="patch_1">
   <path d="M 0 576 
L 434.4 576 
L 434.4 0 
L 0 0 
z
" style="fill: #ffffff"/>
  </g>
  <g id="axes_1">
   <g id="patch_2">
    <path d="M 54.3 512.64 
L 390.96 512.64 
L 390.96 69.12 
L 54.3 69.12 
z
" style="fill: #ffffff"/>
   </g>
   <g id="matplotlib.axis_1">
    <g id="xtick_1">
     <g id="line2d_1">
      <path d="M 69.602727 512.64 
L 69.602727 69.12 
" clip-path="url(#p0c98db9317)" style="fill: none; stroke: #cccccc; stroke-width: 0.8; stroke-linecap: round"/>
     </g>
     <g id="text_1">
      <!-- 0 -->
      <g style="fill: #262626" transform="translate(69.340214 529.627249)rotate(-45)scale(0.088 -0.088)">
       <defs>
        <path id="DejaVuSans-30" d="M 2034 4250 
Q 1547 4250 1301 3770 
Q 1056 3291 1056 2328 
Q 1056 1369 1301 889 
Q 1547 409 2034 409 
Q 2525 409 2770 889 
Q 3016 1369 3016 2328 
Q 3016 3291 2770 3770 
Q 2525 4250 2034 4250 
z
M 2034 4750 
Q 2819 4750 3233 4129 
Q 3647 3509 3647 2328 
Q 3647 1150 3233 529 
Q 2819 -91 2034 -91 
Q 1250 -91 836 529 
Q 422 1150 422 2328 
Q 422 3509 836 4129 
Q 1250 4750 2034 4750 
z
" transform="scale(0.015625)"/>
       </defs>
       <use xlink:href="#DejaVuSans-30"/>
      </g>
     </g>
    </g>
    <g id="xtick_2">
     <g id="line2d_2">
      <path d="M 86.629406 512.64 
L 86.629406 69.12 
" clip-path="url(#p0c98db9317)" style="fill: none; stroke: #cccccc; stroke-width: 0.8; stroke-linecap: round"/>
     </g>
     <g id="text_2">
      <!-- 80 -->
      <g style="fill: #262626" transform="translate(84.387347 533.58634)rotate(-45)scale(0.088 -0.088)">
       <defs>
        <path id="DejaVuSans-38" d="M 2034 2216 
Q 1584 2216 1326 1975 
Q 1069 1734 1069 1313 
Q 1069 891 1326 650 
Q 1584 409 2034 409 
Q 2484 409 2743 651 
Q 3003 894 3003 1313 
Q 3003 1734 2745 1975 
Q 2488 2216 2034 2216 
z
M 1403 2484 
Q 997 2584 770 2862 
Q 544 3141 544 3541 
Q 544 4100 942 4425 
Q 1341 4750 2034 4750 
Q 2731 4750 3128 4425 
Q 3525 4100 3525 3541 
Q 3525 3141 3298 2862 
Q 3072 2584 2669 2484 
Q 3125 2378 3379 2068 
Q 3634 1759 3634 1313 
Q 3634 634 3220 271 
Q 2806 -91 2034 -91 
Q 1263 -91 848 271 
Q 434 634 434 1313 
Q 434 1759 690 2068 
Q 947 2378 1403 2484 
z
M 1172 3481 
Q 1172 3119 1398 2916 
Q 1625 2713 2034 2713 
Q 2441 2713 2670 2916 
Q 2900 3119 2900 3481 
Q 2900 3844 2670 4047 
Q 2441 4250 2034 4250 
Q 1625 4250 1398 4047 
Q 1172 3844 1172 3481 
z
" transform="scale(0.015625)"/>
       </defs>
       <use xlink:href="#DejaVuSans-38"/>
       <use xlink:href="#DejaVuSans-30" x="63.623047"/>
      </g>
     </g>
    </g>
    <g id="xtick_3">
     <g id="line2d_3">
      <path d="M 103.656084 512.64 
L 103.656084 69.12 
" clip-path="url(#p0c98db9317)" style="fill: none; stroke: #cccccc; stroke-width: 0.8; stroke-linecap: round"/>
     </g>
     <g id="text_3">
      <!-- 160 -->
      <g style="fill: #262626" transform="translate(99.43448 537.54543)rotate(-45)scale(0.088 -0.088)">
       <defs>
        <path id="DejaVuSans-31" d="M 794 531 
L 1825 531 
L 1825 4091 
L 703 3866 
L 703 4441 
L 1819 4666 
L 2450 4666 
L 2450 531 
L 3481 531 
L 3481 0 
L 794 0 
L 794 531 
z
" transform="scale(0.015625)"/>
        <path id="DejaVuSans-36" d="M 2113 2584 
Q 1688 2584 1439 2293 
Q 1191 2003 1191 1497 
Q 1191 994 1439 701 
Q 1688 409 2113 409 
Q 2538 409 2786 701 
Q 3034 994 3034 1497 
Q 3034 2003 2786 2293 
Q 2538 2584 2113 2584 
z
M 3366 4563 
L 3366 3988 
Q 3128 4100 2886 4159 
Q 2644 4219 2406 4219 
Q 1781 4219 1451 3797 
Q 1122 3375 1075 2522 
Q 1259 2794 1537 2939 
Q 1816 3084 2150 3084 
Q 2853 3084 3261 2657 
Q 3669 2231 3669 1497 
Q 3669 778 3244 343 
Q 2819 -91 2113 -91 
Q 1303 -91 875 529 
Q 447 1150 447 2328 
Q 447 3434 972 4092 
Q 1497 4750 2381 4750 
Q 2619 4750 2861 4703 
Q 3103 4656 3366 4563 
z
" transform="scale(0.015625)"/>
       </defs>
       <use xlink:href="#DejaVuSans-31"/>
       <use xlink:href="#DejaVuSans-36" x="63.623047"/>
       <use xlink:href="#DejaVuSans-30" x="127.246094"/>
      </g>
     </g>
    </g>
    <g id="xtick_4">
     <g id="line2d_4">
      <path d="M 120.682763 512.64 
L 120.682763 69.12 
" clip-path="url(#p0c98db9317)" style="fill: none; stroke: #cccccc; stroke-width: 0.8; stroke-linecap: round"/>
     </g>
     <g id="text_4">
      <!-- 240 -->
      <g style="fill: #262626" transform="translate(116.461158 537.54543)rotate(-45)scale(0.088 -0.088)">
       <defs>
        <path id="DejaVuSans-32" d="M 1228 531 
L 3431 531 
L 3431 0 
L 469 0 
L 469 531 
Q 828 903 1448 1529 
Q 2069 2156 2228 2338 
Q 2531 2678 2651 2914 
Q 2772 3150 2772 3378 
Q 2772 3750 2511 3984 
Q 2250 4219 1831 4219 
Q 1534 4219 1204 4116 
Q 875 4013 500 3803 
L 500 4441 
Q 881 4594 1212 4672 
Q 1544 4750 1819 4750 
Q 2544 4750 2975 4387 
Q 3406 4025 3406 3419 
Q 3406 3131 3298 2873 
Q 3191 2616 2906 2266 
Q 2828 2175 2409 1742 
Q 1991 1309 1228 531 
z
" transform="scale(0.015625)"/>
        <path id="DejaVuSans-34" d="M 2419 4116 
L 825 1625 
L 2419 1625 
L 2419 4116 
z
M 2253 4666 
L 3047 4666 
L 3047 1625 
L 3713 1625 
L 3713 1100 
L 3047 1100 
L 3047 0 
L 2419 0 
L 2419 1100 
L 313 1100 
L 313 1709 
L 2253 4666 
z
" transform="scale(0.015625)"/>
       </defs>
       <use xlink:href="#DejaVuSans-32"/>
       <use xlink:href="#DejaVuSans-34" x="63.623047"/>
       <use xlink:href="#DejaVuSans-30" x="127.246094"/>
      </g>
     </g>
    </g>
    <g id="xtick_5">
     <g id="line2d_5">
      <path d="M 137.709441 512.64 
L 137.709441 69.12 
" clip-path="url(#p0c98db9317)" style="fill: none; stroke: #cccccc; stroke-width: 0.8; stroke-linecap: round"/>
     </g>
     <g id="text_5">
      <!-- 320 -->
      <g style="fill: #262626" transform="translate(133.487837 537.54543)rotate(-45)scale(0.088 -0.088)">
       <defs>
        <path id="DejaVuSans-33" d="M 2597 2516 
Q 3050 2419 3304 2112 
Q 3559 1806 3559 1356 
Q 3559 666 3084 287 
Q 2609 -91 1734 -91 
Q 1441 -91 1130 -33 
Q 819 25 488 141 
L 488 750 
Q 750 597 1062 519 
Q 1375 441 1716 441 
Q 2309 441 2620 675 
Q 2931 909 2931 1356 
Q 2931 1769 2642 2001 
Q 2353 2234 1838 2234 
L 1294 2234 
L 1294 2753 
L 1863 2753 
Q 2328 2753 2575 2939 
Q 2822 3125 2822 3475 
Q 2822 3834 2567 4026 
Q 2313 4219 1838 4219 
Q 1578 4219 1281 4162 
Q 984 4106 628 3988 
L 628 4550 
Q 988 4650 1302 4700 
Q 1616 4750 1894 4750 
Q 2613 4750 3031 4423 
Q 3450 4097 3450 3541 
Q 3450 3153 3228 2886 
Q 3006 2619 2597 2516 
z
" transform="scale(0.015625)"/>
       </defs>
       <use xlink:href="#DejaVuSans-33"/>
       <use xlink:href="#DejaVuSans-32" x="63.623047"/>
       <use xlink:href="#DejaVuSans-30" x="127.246094"/>
      </g>
     </g>
    </g>
    <g id="xtick_6">
     <g id="line2d_6">
      <path d="M 154.73612 512.64 
L 154.73612 69.12 
" clip-path="url(#p0c98db9317)" style="fill: none; stroke: #cccccc; stroke-width: 0.8; stroke-linecap: round"/>
     </g>
     <g id="text_6">
      <!-- 400 -->
      <g style="fill: #262626" transform="translate(150.514515 537.54543)rotate(-45)scale(0.088 -0.088)">
       <use xlink:href="#DejaVuSans-34"/>
       <use xlink:href="#DejaVuSans-30" x="63.623047"/>
       <use xlink:href="#DejaVuSans-30" x="127.246094"/>
      </g>
     </g>
    </g>
    <g id="xtick_7">
     <g id="line2d_7">
      <path d="M 171.762798 512.64 
L 171.762798 69.12 
" clip-path="url(#p0c98db9317)" style="fill: none; stroke: #cccccc; stroke-width: 0.8; stroke-linecap: round"/>
     </g>
     <g id="text_7">
      <!-- 480 -->
      <g style="fill: #262626" transform="translate(167.541194 537.54543)rotate(-45)scale(0.088 -0.088)">
       <use xlink:href="#DejaVuSans-34"/>
       <use xlink:href="#DejaVuSans-38" x="63.623047"/>
       <use xlink:href="#DejaVuSans-30" x="127.246094"/>
      </g>
     </g>
    </g>
    <g id="xtick_8">
     <g id="line2d_8">
      <path d="M 188.789477 512.64 
L 188.789477 69.12 
" clip-path="url(#p0c98db9317)" style="fill: none; stroke: #cccccc; stroke-width: 0.8; stroke-linecap: round"/>
     </g>
     <g id="text_8">
      <!-- 560 -->
      <g style="fill: #262626" transform="translate(184.567872 537.54543)rotate(-45)scale(0.088 -0.088)">
       <defs>
        <path id="DejaVuSans-35" d="M 691 4666 
L 3169 4666 
L 3169 4134 
L 1269 4134 
L 1269 2991 
Q 1406 3038 1543 3061 
Q 1681 3084 1819 3084 
Q 2600 3084 3056 2656 
Q 3513 2228 3513 1497 
Q 3513 744 3044 326 
Q 2575 -91 1722 -91 
Q 1428 -91 1123 -41 
Q 819 9 494 109 
L 494 744 
Q 775 591 1075 516 
Q 1375 441 1709 441 
Q 2250 441 2565 725 
Q 2881 1009 2881 1497 
Q 2881 1984 2565 2268 
Q 2250 2553 1709 2553 
Q 1456 2553 1204 2497 
Q 953 2441 691 2322 
L 691 4666 
z
" transform="scale(0.015625)"/>
       </defs>
       <use xlink:href="#DejaVuSans-35"/>
       <use xlink:href="#DejaVuSans-36" x="63.623047"/>
       <use xlink:href="#DejaVuSans-30" x="127.246094"/>
      </g>
     </g>
    </g>
    <g id="xtick_9">
     <g id="line2d_9">
      <path d="M 205.816155 512.64 
L 205.816155 69.12 
" clip-path="url(#p0c98db9317)" style="fill: none; stroke: #cccccc; stroke-width: 0.8; stroke-linecap: round"/>
     </g>
     <g id="text_9">
      <!-- 640 -->
      <g style="fill: #262626" transform="translate(201.594551 537.54543)rotate(-45)scale(0.088 -0.088)">
       <use xlink:href="#DejaVuSans-36"/>
       <use xlink:href="#DejaVuSans-34" x="63.623047"/>
       <use xlink:href="#DejaVuSans-30" x="127.246094"/>
      </g>
     </g>
    </g>
    <g id="xtick_10">
     <g id="line2d_10">
      <path d="M 222.842833 512.64 
L 222.842833 69.12 
" clip-path="url(#p0c98db9317)" style="fill: none; stroke: #cccccc; stroke-width: 0.8; stroke-linecap: round"/>
     </g>
     <g id="text_10">
      <!-- 720 -->
      <g style="fill: #262626" transform="translate(218.621229 537.54543)rotate(-45)scale(0.088 -0.088)">
       <defs>
        <path id="DejaVuSans-37" d="M 525 4666 
L 3525 4666 
L 3525 4397 
L 1831 0 
L 1172 0 
L 2766 4134 
L 525 4134 
L 525 4666 
z
" transform="scale(0.015625)"/>
       </defs>
       <use xlink:href="#DejaVuSans-37"/>
       <use xlink:href="#DejaVuSans-32" x="63.623047"/>
       <use xlink:href="#DejaVuSans-30" x="127.246094"/>
      </g>
     </g>
    </g>
    <g id="xtick_11">
     <g id="line2d_11">
      <path d="M 239.869512 512.64 
L 239.869512 69.12 
" clip-path="url(#p0c98db9317)" style="fill: none; stroke: #cccccc; stroke-width: 0.8; stroke-linecap: round"/>
     </g>
     <g id="text_11">
      <!-- 800 -->
      <g style="fill: #262626" transform="translate(235.647908 537.54543)rotate(-45)scale(0.088 -0.088)">
       <use xlink:href="#DejaVuSans-38"/>
       <use xlink:href="#DejaVuSans-30" x="63.623047"/>
       <use xlink:href="#DejaVuSans-30" x="127.246094"/>
      </g>
     </g>
    </g>
    <g id="xtick_12">
     <g id="line2d_12">
      <path d="M 256.89619 512.64 
L 256.89619 69.12 
" clip-path="url(#p0c98db9317)" style="fill: none; stroke: #cccccc; stroke-width: 0.8; stroke-linecap: round"/>
     </g>
     <g id="text_12">
      <!-- 880 -->
      <g style="fill: #262626" transform="translate(252.674586 537.54543)rotate(-45)scale(0.088 -0.088)">
       <use xlink:href="#DejaVuSans-38"/>
       <use xlink:href="#DejaVuSans-38" x="63.623047"/>
       <use xlink:href="#DejaVuSans-30" x="127.246094"/>
      </g>
     </g>
    </g>
    <g id="xtick_13">
     <g id="line2d_13">
      <path d="M 273.922869 512.64 
L 273.922869 69.12 
" clip-path="url(#p0c98db9317)" style="fill: none; stroke: #cccccc; stroke-width: 0.8; stroke-linecap: round"/>
     </g>
     <g id="text_13">
      <!-- 960 -->
      <g style="fill: #262626" transform="translate(269.701265 537.54543)rotate(-45)scale(0.088 -0.088)">
       <defs>
        <path id="DejaVuSans-39" d="M 703 97 
L 703 672 
Q 941 559 1184 500 
Q 1428 441 1663 441 
Q 2288 441 2617 861 
Q 2947 1281 2994 2138 
Q 2813 1869 2534 1725 
Q 2256 1581 1919 1581 
Q 1219 1581 811 2004 
Q 403 2428 403 3163 
Q 403 3881 828 4315 
Q 1253 4750 1959 4750 
Q 2769 4750 3195 4129 
Q 3622 3509 3622 2328 
Q 3622 1225 3098 567 
Q 2575 -91 1691 -91 
Q 1453 -91 1209 -44 
Q 966 3 703 97 
z
M 1959 2075 
Q 2384 2075 2632 2365 
Q 2881 2656 2881 3163 
Q 2881 3666 2632 3958 
Q 2384 4250 1959 4250 
Q 1534 4250 1286 3958 
Q 1038 3666 1038 3163 
Q 1038 2656 1286 2365 
Q 1534 2075 1959 2075 
z
" transform="scale(0.015625)"/>
       </defs>
       <use xlink:href="#DejaVuSans-39"/>
       <use xlink:href="#DejaVuSans-36" x="63.623047"/>
       <use xlink:href="#DejaVuSans-30" x="127.246094"/>
      </g>
     </g>
    </g>
    <g id="xtick_14">
     <g id="line2d_14">
      <path d="M 290.949547 512.64 
L 290.949547 69.12 
" clip-path="url(#p0c98db9317)" style="fill: none; stroke: #cccccc; stroke-width: 0.8; stroke-linecap: round"/>
     </g>
     <g id="text_14">
      <!-- 1040 -->
      <g style="fill: #262626" transform="translate(284.748398 541.504521)rotate(-45)scale(0.088 -0.088)">
       <use xlink:href="#DejaVuSans-31"/>
       <use xlink:href="#DejaVuSans-30" x="63.623047"/>
       <use xlink:href="#DejaVuSans-34" x="127.246094"/>
       <use xlink:href="#DejaVuSans-30" x="190.869141"/>
      </g>
     </g>
    </g>
    <g id="xtick_15">
     <g id="line2d_15">
      <path d="M 307.976226 512.64 
L 307.976226 69.12 
" clip-path="url(#p0c98db9317)" style="fill: none; stroke: #cccccc; stroke-width: 0.8; stroke-linecap: round"/>
     </g>
     <g id="text_15">
      <!-- 1120 -->
      <g style="fill: #262626" transform="translate(301.775076 541.504521)rotate(-45)scale(0.088 -0.088)">
       <use xlink:href="#DejaVuSans-31"/>
       <use xlink:href="#DejaVuSans-31" x="63.623047"/>
       <use xlink:href="#DejaVuSans-32" x="127.246094"/>
       <use xlink:href="#DejaVuSans-30" x="190.869141"/>
      </g>
     </g>
    </g>
    <g id="xtick_16">
     <g id="line2d_16">
      <path d="M 325.002904 512.64 
L 325.002904 69.12 
" clip-path="url(#p0c98db9317)" style="fill: none; stroke: #cccccc; stroke-width: 0.8; stroke-linecap: round"/>
     </g>
     <g id="text_16">
      <!-- 1200 -->
      <g style="fill: #262626" transform="translate(318.801755 541.504521)rotate(-45)scale(0.088 -0.088)">
       <use xlink:href="#DejaVuSans-31"/>
       <use xlink:href="#DejaVuSans-32" x="63.623047"/>
       <use xlink:href="#DejaVuSans-30" x="127.246094"/>
       <use xlink:href="#DejaVuSans-30" x="190.869141"/>
      </g>
     </g>
    </g>
    <g id="xtick_17">
     <g id="line2d_17">
      <path d="M 342.029583 512.64 
L 342.029583 69.12 
" clip-path="url(#p0c98db9317)" style="fill: none; stroke: #cccccc; stroke-width: 0.8; stroke-linecap: round"/>
     </g>
     <g id="text_17">
      <!-- 1280 -->
      <g style="fill: #262626" transform="translate(335.828433 541.504521)rotate(-45)scale(0.088 -0.088)">
       <use xlink:href="#DejaVuSans-31"/>
       <use xlink:href="#DejaVuSans-32" x="63.623047"/>
       <use xlink:href="#DejaVuSans-38" x="127.246094"/>
       <use xlink:href="#DejaVuSans-30" x="190.869141"/>
      </g>
     </g>
    </g>
    <g id="xtick_18">
     <g id="line2d_18">
      <path d="M 359.056261 512.64 
L 359.056261 69.12 
" clip-path="url(#p0c98db9317)" style="fill: none; stroke: #cccccc; stroke-width: 0.8; stroke-linecap: round"/>
     </g>
     <g id="text_18">
      <!-- 1360 -->
      <g style="fill: #262626" transform="translate(352.855112 541.504521)rotate(-45)scale(0.088 -0.088)">
       <use xlink:href="#DejaVuSans-31"/>
       <use xlink:href="#DejaVuSans-33" x="63.623047"/>
       <use xlink:href="#DejaVuSans-36" x="127.246094"/>
       <use xlink:href="#DejaVuSans-30" x="190.869141"/>
      </g>
     </g>
    </g>
    <g id="xtick_19">
     <g id="line2d_19">
      <path d="M 376.08294 512.64 
L 376.08294 69.12 
" clip-path="url(#p0c98db9317)" style="fill: none; stroke: #cccccc; stroke-width: 0.8; stroke-linecap: round"/>
     </g>
     <g id="text_19">
      <!-- 1440 -->
      <g style="fill: #262626" transform="translate(369.88179 541.504521)rotate(-45)scale(0.088 -0.088)">
       <use xlink:href="#DejaVuSans-31"/>
       <use xlink:href="#DejaVuSans-34" x="63.623047"/>
       <use xlink:href="#DejaVuSans-34" x="127.246094"/>
       <use xlink:href="#DejaVuSans-30" x="190.869141"/>
      </g>
     </g>
    </g>
    <g id="text_20">
     <!-- Time (Minutes) -->
     <g style="fill: #262626" transform="translate(186.72 554.093115)scale(0.096 -0.096)">
      <defs>
       <path id="DejaVuSans-54" d="M -19 4666 
L 3928 4666 
L 3928 4134 
L 2272 4134 
L 2272 0 
L 1638 0 
L 1638 4134 
L -19 4134 
L -19 4666 
z
" transform="scale(0.015625)"/>
       <path id="DejaVuSans-69" d="M 603 3500 
L 1178 3500 
L 1178 0 
L 603 0 
L 603 3500 
z
M 603 4863 
L 1178 4863 
L 1178 4134 
L 603 4134 
L 603 4863 
z
" transform="scale(0.015625)"/>
       <path id="DejaVuSans-6d" d="M 3328 2828 
Q 3544 3216 3844 3400 
Q 4144 3584 4550 3584 
Q 5097 3584 5394 3201 
Q 5691 2819 5691 2113 
L 5691 0 
L 5113 0 
L 5113 2094 
Q 5113 2597 4934 2840 
Q 4756 3084 4391 3084 
Q 3944 3084 3684 2787 
Q 3425 2491 3425 1978 
L 3425 0 
L 2847 0 
L 2847 2094 
Q 2847 2600 2669 2842 
Q 2491 3084 2119 3084 
Q 1678 3084 1418 2786 
Q 1159 2488 1159 1978 
L 1159 0 
L 581 0 
L 581 3500 
L 1159 3500 
L 1159 2956 
Q 1356 3278 1631 3431 
Q 1906 3584 2284 3584 
Q 2666 3584 2933 3390 
Q 3200 3197 3328 2828 
z
" transform="scale(0.015625)"/>
       <path id="DejaVuSans-65" d="M 3597 1894 
L 3597 1613 
L 953 1613 
Q 991 1019 1311 708 
Q 1631 397 2203 397 
Q 2534 397 2845 478 
Q 3156 559 3463 722 
L 3463 178 
Q 3153 47 2828 -22 
Q 2503 -91 2169 -91 
Q 1331 -91 842 396 
Q 353 884 353 1716 
Q 353 2575 817 3079 
Q 1281 3584 2069 3584 
Q 2775 3584 3186 3129 
Q 3597 2675 3597 1894 
z
M 3022 2063 
Q 3016 2534 2758 2815 
Q 2500 3097 2075 3097 
Q 1594 3097 1305 2825 
Q 1016 2553 972 2059 
L 3022 2063 
z
" transform="scale(0.015625)"/>
       <path id="DejaVuSans-20" transform="scale(0.015625)"/>
       <path id="DejaVuSans-28" d="M 1984 4856 
Q 1566 4138 1362 3434 
Q 1159 2731 1159 2009 
Q 1159 1288 1364 580 
Q 1569 -128 1984 -844 
L 1484 -844 
Q 1016 -109 783 600 
Q 550 1309 550 2009 
Q 550 2706 781 3412 
Q 1013 4119 1484 4856 
L 1984 4856 
z
" transform="scale(0.015625)"/>
       <path id="DejaVuSans-4d" d="M 628 4666 
L 1569 4666 
L 2759 1491 
L 3956 4666 
L 4897 4666 
L 4897 0 
L 4281 0 
L 4281 4097 
L 3078 897 
L 2444 897 
L 1241 4097 
L 1241 0 
L 628 0 
L 628 4666 
z
" transform="scale(0.015625)"/>
       <path id="DejaVuSans-6e" d="M 3513 2113 
L 3513 0 
L 2938 0 
L 2938 2094 
Q 2938 2591 2744 2837 
Q 2550 3084 2163 3084 
Q 1697 3084 1428 2787 
Q 1159 2491 1159 1978 
L 1159 0 
L 581 0 
L 581 3500 
L 1159 3500 
L 1159 2956 
Q 1366 3272 1645 3428 
Q 1925 3584 2291 3584 
Q 2894 3584 3203 3211 
Q 3513 2838 3513 2113 
z
" transform="scale(0.015625)"/>
       <path id="DejaVuSans-75" d="M 544 1381 
L 544 3500 
L 1119 3500 
L 1119 1403 
Q 1119 906 1312 657 
Q 1506 409 1894 409 
Q 2359 409 2629 706 
Q 2900 1003 2900 1516 
L 2900 3500 
L 3475 3500 
L 3475 0 
L 2900 0 
L 2900 538 
Q 2691 219 2414 64 
Q 2138 -91 1772 -91 
Q 1169 -91 856 284 
Q 544 659 544 1381 
z
M 1991 3584 
L 1991 3584 
z
" transform="scale(0.015625)"/>
       <path id="DejaVuSans-74" d="M 1172 4494 
L 1172 3500 
L 2356 3500 
L 2356 3053 
L 1172 3053 
L 1172 1153 
Q 1172 725 1289 603 
Q 1406 481 1766 481 
L 2356 481 
L 2356 0 
L 1766 0 
Q 1100 0 847 248 
Q 594 497 594 1153 
L 594 3053 
L 172 3053 
L 172 3500 
L 594 3500 
L 594 4494 
L 1172 4494 
z
" transform="scale(0.015625)"/>
       <path id="DejaVuSans-73" d="M 2834 3397 
L 2834 2853 
Q 2591 2978 2328 3040 
Q 2066 3103 1784 3103 
Q 1356 3103 1142 2972 
Q 928 2841 928 2578 
Q 928 2378 1081 2264 
Q 1234 2150 1697 2047 
L 1894 2003 
Q 2506 1872 2764 1633 
Q 3022 1394 3022 966 
Q 3022 478 2636 193 
Q 2250 -91 1575 -91 
Q 1294 -91 989 -36 
Q 684 19 347 128 
L 347 722 
Q 666 556 975 473 
Q 1284 391 1588 391 
Q 1994 391 2212 530 
Q 2431 669 2431 922 
Q 2431 1156 2273 1281 
Q 2116 1406 1581 1522 
L 1381 1569 
Q 847 1681 609 1914 
Q 372 2147 372 2553 
Q 372 3047 722 3315 
Q 1072 3584 1716 3584 
Q 2034 3584 2315 3537 
Q 2597 3491 2834 3397 
z
" transform="scale(0.015625)"/>
       <path id="DejaVuSans-29" d="M 513 4856 
L 1013 4856 
Q 1481 4119 1714 3412 
Q 1947 2706 1947 2009 
Q 1947 1309 1714 600 
Q 1481 -109 1013 -844 
L 513 -844 
Q 928 -128 1133 580 
Q 1338 1288 1338 2009 
Q 1338 2731 1133 3434 
Q 928 4138 513 4856 
z
" transform="scale(0.015625)"/>
      </defs>
      <use xlink:href="#DejaVuSans-54"/>
      <use xlink:href="#DejaVuSans-69" x="57.958984"/>
      <use xlink:href="#DejaVuSans-6d" x="85.742188"/>
      <use xlink:href="#DejaVuSans-65" x="183.154297"/>
      <use xlink:href="#DejaVuSans-20" x="244.677734"/>
      <use xlink:href="#DejaVuSans-28" x="276.464844"/>
      <use xlink:href="#DejaVuSans-4d" x="315.478516"/>
      <use xlink:href="#DejaVuSans-69" x="401.757812"/>
      <use xlink:href="#DejaVuSans-6e" x="429.541016"/>
      <use xlink:href="#DejaVuSans-75" x="492.919922"/>
      <use xlink:href="#DejaVuSans-74" x="556.298828"/>
      <use xlink:href="#DejaVuSans-65" x="595.507812"/>
      <use xlink:href="#DejaVuSans-73" x="657.03125"/>
      <use xlink:href="#DejaVuSans-29" x="709.130859"/>
     </g>
    </g>
   </g>
   <g id="matplotlib.axis_2">
    <g id="ytick_1">
     <g id="line2d_20">
      <path d="M 54.3 492.48 
L 390.96 492.48 
" clip-path="url(#p0c98db9317)" style="fill: none; stroke: #cccccc; stroke-width: 0.8; stroke-linecap: round"/>
     </g>
     <g id="text_21">
      <!-- 0 -->
      <g style="fill: #262626" transform="translate(40.401 495.823312)scale(0.088 -0.088)">
       <use xlink:href="#DejaVuSans-30"/>
      </g>
     </g>
    </g>
    <g id="ytick_2">
     <g id="line2d_21">
      <path d="M 54.3 453.896268 
L 390.96 453.896268 
" clip-path="url(#p0c98db9317)" style="fill: none; stroke: #cccccc; stroke-width: 0.8; stroke-linecap: round"/>
     </g>
     <g id="text_22">
      <!-- 100 -->
      <g style="fill: #262626" transform="translate(29.203 457.23958)scale(0.088 -0.088)">
       <use xlink:href="#DejaVuSans-31"/>
       <use xlink:href="#DejaVuSans-30" x="63.623047"/>
       <use xlink:href="#DejaVuSans-30" x="127.246094"/>
      </g>
     </g>
    </g>
    <g id="ytick_3">
     <g id="line2d_22">
      <path d="M 54.3 415.312536 
L 390.96 415.312536 
" clip-path="url(#p0c98db9317)" style="fill: none; stroke: #cccccc; stroke-width: 0.8; stroke-linecap: round"/>
     </g>
     <g id="text_23">
      <!-- 200 -->
      <g style="fill: #262626" transform="translate(29.203 418.655848)scale(0.088 -0.088)">
       <use xlink:href="#DejaVuSans-32"/>
       <use xlink:href="#DejaVuSans-30" x="63.623047"/>
       <use xlink:href="#DejaVuSans-30" x="127.246094"/>
      </g>
     </g>
    </g>
    <g id="ytick_4">
     <g id="line2d_23">
      <path d="M 54.3 376.728804 
L 390.96 376.728804 
" clip-path="url(#p0c98db9317)" style="fill: none; stroke: #cccccc; stroke-width: 0.8; stroke-linecap: round"/>
     </g>
     <g id="text_24">
      <!-- 300 -->
      <g style="fill: #262626" transform="translate(29.203 380.072116)scale(0.088 -0.088)">
       <use xlink:href="#DejaVuSans-33"/>
       <use xlink:href="#DejaVuSans-30" x="63.623047"/>
       <use xlink:href="#DejaVuSans-30" x="127.246094"/>
      </g>
     </g>
    </g>
    <g id="ytick_5">
     <g id="line2d_24">
      <path d="M 54.3 338.145072 
L 390.96 338.145072 
" clip-path="url(#p0c98db9317)" style="fill: none; stroke: #cccccc; stroke-width: 0.8; stroke-linecap: round"/>
     </g>
     <g id="text_25">
      <!-- 400 -->
      <g style="fill: #262626" transform="translate(29.203 341.488384)scale(0.088 -0.088)">
       <use xlink:href="#DejaVuSans-34"/>
       <use xlink:href="#DejaVuSans-30" x="63.623047"/>
       <use xlink:href="#DejaVuSans-30" x="127.246094"/>
      </g>
     </g>
    </g>
    <g id="ytick_6">
     <g id="line2d_25">
      <path d="M 54.3 299.56134 
L 390.96 299.56134 
" clip-path="url(#p0c98db9317)" style="fill: none; stroke: #cccccc; stroke-width: 0.8; stroke-linecap: round"/>
     </g>
     <g id="text_26">
      <!-- 500 -->
      <g style="fill: #262626" transform="translate(29.203 302.904652)scale(0.088 -0.088)">
       <use xlink:href="#DejaVuSans-35"/>
       <use xlink:href="#DejaVuSans-30" x="63.623047"/>
       <use xlink:href="#DejaVuSans-30" x="127.246094"/>
      </g>
     </g>
    </g>
    <g id="ytick_7">
     <g id="line2d_26">
      <path d="M 54.3 260.977608 
L 390.96 260.977608 
" clip-path="url(#p0c98db9317)" style="fill: none; stroke: #cccccc; stroke-width: 0.8; stroke-linecap: round"/>
     </g>
     <g id="text_27">
      <!-- 600 -->
      <g style="fill: #262626" transform="translate(29.203 264.32092)scale(0.088 -0.088)">
       <use xlink:href="#DejaVuSans-36"/>
       <use xlink:href="#DejaVuSans-30" x="63.623047"/>
       <use xlink:href="#DejaVuSans-30" x="127.246094"/>
      </g>
     </g>
    </g>
    <g id="ytick_8">
     <g id="line2d_27">
      <path d="M 54.3 222.393876 
L 390.96 222.393876 
" clip-path="url(#p0c98db9317)" style="fill: none; stroke: #cccccc; stroke-width: 0.8; stroke-linecap: round"/>
     </g>
     <g id="text_28">
      <!-- 700 -->
      <g style="fill: #262626" transform="translate(29.203 225.737188)scale(0.088 -0.088)">
       <use xlink:href="#DejaVuSans-37"/>
       <use xlink:href="#DejaVuSans-30" x="63.623047"/>
       <use xlink:href="#DejaVuSans-30" x="127.246094"/>
      </g>
     </g>
    </g>
    <g id="ytick_9">
     <g id="line2d_28">
      <path d="M 54.3 183.810144 
L 390.96 183.810144 
" clip-path="url(#p0c98db9317)" style="fill: none; stroke: #cccccc; stroke-width: 0.8; stroke-linecap: round"/>
     </g>
     <g id="text_29">
      <!-- 800 -->
      <g style="fill: #262626" transform="translate(29.203 187.153456)scale(0.088 -0.088)">
       <use xlink:href="#DejaVuSans-38"/>
       <use xlink:href="#DejaVuSans-30" x="63.623047"/>
       <use xlink:href="#DejaVuSans-30" x="127.246094"/>
      </g>
     </g>
    </g>
    <g id="ytick_10">
     <g id="line2d_29">
      <path d="M 54.3 145.226411 
L 390.96 145.226411 
" clip-path="url(#p0c98db9317)" style="fill: none; stroke: #cccccc; stroke-width: 0.8; stroke-linecap: round"/>
     </g>
     <g id="text_30">
      <!-- 900 -->
      <g style="fill: #262626" transform="translate(29.203 148.569724)scale(0.088 -0.088)">
       <use xlink:href="#DejaVuSans-39"/>
       <use xlink:href="#DejaVuSans-30" x="63.623047"/>
       <use xlink:href="#DejaVuSans-30" x="127.246094"/>
      </g>
     </g>
    </g>
    <g id="ytick_11">
     <g id="line2d_30">
      <path d="M 54.3 106.642679 
L 390.96 106.642679 
" clip-path="url(#p0c98db9317)" style="fill: none; stroke: #cccccc; stroke-width: 0.8; stroke-linecap: round"/>
     </g>
     <g id="text_31">
      <!-- 1000 -->
      <g style="fill: #262626" transform="translate(23.604 109.985992)scale(0.088 -0.088)">
       <use xlink:href="#DejaVuSans-31"/>
       <use xlink:href="#DejaVuSans-30" x="63.623047"/>
       <use xlink:href="#DejaVuSans-30" x="127.246094"/>
       <use xlink:href="#DejaVuSans-30" x="190.869141"/>
      </g>
     </g>
    </g>
    <g id="text_32">
     <!-- Edge Coverages -->
     <g style="fill: #262626" transform="translate(17.6075 329.98575)rotate(-90)scale(0.096 -0.096)">
      <defs>
       <path id="DejaVuSans-45" d="M 628 4666 
L 3578 4666 
L 3578 4134 
L 1259 4134 
L 1259 2753 
L 3481 2753 
L 3481 2222 
L 1259 2222 
L 1259 531 
L 3634 531 
L 3634 0 
L 628 0 
L 628 4666 
z
" transform="scale(0.015625)"/>
       <path id="DejaVuSans-64" d="M 2906 2969 
L 2906 4863 
L 3481 4863 
L 3481 0 
L 2906 0 
L 2906 525 
Q 2725 213 2448 61 
Q 2172 -91 1784 -91 
Q 1150 -91 751 415 
Q 353 922 353 1747 
Q 353 2572 751 3078 
Q 1150 3584 1784 3584 
Q 2172 3584 2448 3432 
Q 2725 3281 2906 2969 
z
M 947 1747 
Q 947 1113 1208 752 
Q 1469 391 1925 391 
Q 2381 391 2643 752 
Q 2906 1113 2906 1747 
Q 2906 2381 2643 2742 
Q 2381 3103 1925 3103 
Q 1469 3103 1208 2742 
Q 947 2381 947 1747 
z
" transform="scale(0.015625)"/>
       <path id="DejaVuSans-67" d="M 2906 1791 
Q 2906 2416 2648 2759 
Q 2391 3103 1925 3103 
Q 1463 3103 1205 2759 
Q 947 2416 947 1791 
Q 947 1169 1205 825 
Q 1463 481 1925 481 
Q 2391 481 2648 825 
Q 2906 1169 2906 1791 
z
M 3481 434 
Q 3481 -459 3084 -895 
Q 2688 -1331 1869 -1331 
Q 1566 -1331 1297 -1286 
Q 1028 -1241 775 -1147 
L 775 -588 
Q 1028 -725 1275 -790 
Q 1522 -856 1778 -856 
Q 2344 -856 2625 -561 
Q 2906 -266 2906 331 
L 2906 616 
Q 2728 306 2450 153 
Q 2172 0 1784 0 
Q 1141 0 747 490 
Q 353 981 353 1791 
Q 353 2603 747 3093 
Q 1141 3584 1784 3584 
Q 2172 3584 2450 3431 
Q 2728 3278 2906 2969 
L 2906 3500 
L 3481 3500 
L 3481 434 
z
" transform="scale(0.015625)"/>
       <path id="DejaVuSans-43" d="M 4122 4306 
L 4122 3641 
Q 3803 3938 3442 4084 
Q 3081 4231 2675 4231 
Q 1875 4231 1450 3742 
Q 1025 3253 1025 2328 
Q 1025 1406 1450 917 
Q 1875 428 2675 428 
Q 3081 428 3442 575 
Q 3803 722 4122 1019 
L 4122 359 
Q 3791 134 3420 21 
Q 3050 -91 2638 -91 
Q 1578 -91 968 557 
Q 359 1206 359 2328 
Q 359 3453 968 4101 
Q 1578 4750 2638 4750 
Q 3056 4750 3426 4639 
Q 3797 4528 4122 4306 
z
" transform="scale(0.015625)"/>
       <path id="DejaVuSans-6f" d="M 1959 3097 
Q 1497 3097 1228 2736 
Q 959 2375 959 1747 
Q 959 1119 1226 758 
Q 1494 397 1959 397 
Q 2419 397 2687 759 
Q 2956 1122 2956 1747 
Q 2956 2369 2687 2733 
Q 2419 3097 1959 3097 
z
M 1959 3584 
Q 2709 3584 3137 3096 
Q 3566 2609 3566 1747 
Q 3566 888 3137 398 
Q 2709 -91 1959 -91 
Q 1206 -91 779 398 
Q 353 888 353 1747 
Q 353 2609 779 3096 
Q 1206 3584 1959 3584 
z
" transform="scale(0.015625)"/>
       <path id="DejaVuSans-76" d="M 191 3500 
L 800 3500 
L 1894 563 
L 2988 3500 
L 3597 3500 
L 2284 0 
L 1503 0 
L 191 3500 
z
" transform="scale(0.015625)"/>
       <path id="DejaVuSans-72" d="M 2631 2963 
Q 2534 3019 2420 3045 
Q 2306 3072 2169 3072 
Q 1681 3072 1420 2755 
Q 1159 2438 1159 1844 
L 1159 0 
L 581 0 
L 581 3500 
L 1159 3500 
L 1159 2956 
Q 1341 3275 1631 3429 
Q 1922 3584 2338 3584 
Q 2397 3584 2469 3576 
Q 2541 3569 2628 3553 
L 2631 2963 
z
" transform="scale(0.015625)"/>
       <path id="DejaVuSans-61" d="M 2194 1759 
Q 1497 1759 1228 1600 
Q 959 1441 959 1056 
Q 959 750 1161 570 
Q 1363 391 1709 391 
Q 2188 391 2477 730 
Q 2766 1069 2766 1631 
L 2766 1759 
L 2194 1759 
z
M 3341 1997 
L 3341 0 
L 2766 0 
L 2766 531 
Q 2569 213 2275 61 
Q 1981 -91 1556 -91 
Q 1019 -91 701 211 
Q 384 513 384 1019 
Q 384 1609 779 1909 
Q 1175 2209 1959 2209 
L 2766 2209 
L 2766 2266 
Q 2766 2663 2505 2880 
Q 2244 3097 1772 3097 
Q 1472 3097 1187 3025 
Q 903 2953 641 2809 
L 641 3341 
Q 956 3463 1253 3523 
Q 1550 3584 1831 3584 
Q 2591 3584 2966 3190 
Q 3341 2797 3341 1997 
z
" transform="scale(0.015625)"/>
      </defs>
      <use xlink:href="#DejaVuSans-45"/>
      <use xlink:href="#DejaVuSans-64" x="63.183594"/>
      <use xlink:href="#DejaVuSans-67" x="126.660156"/>
      <use xlink:href="#DejaVuSans-65" x="190.136719"/>
      <use xlink:href="#DejaVuSans-20" x="251.660156"/>
      <use xlink:href="#DejaVuSans-43" x="283.447266"/>
      <use xlink:href="#DejaVuSans-6f" x="353.271484"/>
      <use xlink:href="#DejaVuSans-76" x="414.453125"/>
      <use xlink:href="#DejaVuSans-65" x="473.632812"/>
      <use xlink:href="#DejaVuSans-72" x="535.15625"/>
      <use xlink:href="#DejaVuSans-61" x="576.269531"/>
      <use xlink:href="#DejaVuSans-67" x="637.548828"/>
      <use xlink:href="#DejaVuSans-65" x="701.025391"/>
      <use xlink:href="#DejaVuSans-73" x="762.548828"/>
     </g>
    </g>
   </g>
   <g id="PolyCollection_1">
    <defs>
     <path id="m697b7c6eb5" d="M 69.602727 -102.426029 
L 69.602727 -83.52 
L 69.602727 -102.426029 
L 69.602727 -102.426029 
z
" style="stroke: #db5f57; stroke-opacity: 0.2; stroke-width: 0.8"/>
    </defs>
    <g clip-path="url(#p0c98db9317)">
     <use xlink:href="#m697b7c6eb5" x="0" y="576" style="fill: #db5f57; fill-opacity: 0.2; stroke: #db5f57; stroke-opacity: 0.2; stroke-width: 0.8"/>
    </g>
   </g>
   <g id="PolyCollection_2">
    <defs>
     <path id="ma0f526c069" d="M 69.602727 -90.465072 
L 69.602727 -83.52 
L 69.602727 -90.465072 
L 69.602727 -90.465072 
z
" style="stroke: #b9db57; stroke-opacity: 0.2; stroke-width: 0.8"/>
    </defs>
    <g clip-path="url(#p0c98db9317)">
     <use xlink:href="#ma0f526c069" x="0" y="576" style="fill: #b9db57; fill-opacity: 0.2; stroke: #b9db57; stroke-opacity: 0.2; stroke-width: 0.8"/>
    </g>
   </g>
   <g id="PolyCollection_3">
    <defs>
     <path id="m9a216292a1" d="M 69.602727 -98.953493 
L 69.602727 -83.52 
L 69.602727 -98.953493 
L 69.602727 -98.953493 
z
" style="stroke: #57db94; stroke-opacity: 0.2; stroke-width: 0.8"/>
    </defs>
    <g clip-path="url(#p0c98db9317)">
     <use xlink:href="#m9a216292a1" x="0" y="576" style="fill: #57db94; fill-opacity: 0.2; stroke: #57db94; stroke-opacity: 0.2; stroke-width: 0.8"/>
    </g>
   </g>
   <g id="PolyCollection_4">
    <defs>
     <path id="mcabb1c8700" d="M 69.602727 -92.780096 
L 69.602727 -83.52 
L 69.602727 -92.780096 
L 69.602727 -92.780096 
z
" style="stroke: #5784db; stroke-opacity: 0.2; stroke-width: 0.8"/>
    </defs>
    <g clip-path="url(#p0c98db9317)">
     <use xlink:href="#mcabb1c8700" x="0" y="576" style="fill: #5784db; fill-opacity: 0.2; stroke: #5784db; stroke-opacity: 0.2; stroke-width: 0.8"/>
    </g>
   </g>
   <g id="PolyCollection_5">
    <defs>
     <path id="mc471d1f6d7" d="M 69.602727 -103.969378 
L 69.602727 -83.52 
L 69.602727 -103.969378 
L 69.602727 -103.969378 
z
" style="stroke: #c957db; stroke-opacity: 0.2; stroke-width: 0.8"/>
    </defs>
    <g clip-path="url(#p0c98db9317)">
     <use xlink:href="#mc471d1f6d7" x="0" y="576" style="fill: #c957db; fill-opacity: 0.2; stroke: #c957db; stroke-opacity: 0.2; stroke-width: 0.8"/>
    </g>
   </g>
   <g id="line2d_31">
    <path d="M 69.602727 483.026986 
L 69.815561 460.84134 
L 70.028394 457.754641 
L 70.241228 440.777799 
L 70.454061 434.990239 
L 70.666895 433.832727 
L 70.879728 424.186794 
L 71.092562 421.100096 
L 71.305395 421.100096 
L 71.518229 419.556746 
L 71.943896 419.556746 
L 72.156729 415.698373 
L 72.582396 413.769187 
L 72.795229 413.769187 
L 73.008063 413.383349 
L 73.220896 413.383349 
L 73.43373 412.997512 
L 73.646563 412.997512 
L 74.07223 411.454163 
L 74.285064 409.139139 
L 74.497897 402.579904 
L 74.710731 402.579904 
L 74.923564 400.650718 
L 75.136398 400.650718 
L 75.349231 398.721531 
L 76.413399 398.721531 
L 76.839066 397.949856 
L 77.264733 397.949856 
L 77.6904 397.178182 
L 77.903233 391.776459 
L 78.3289 391.776459 
L 78.754567 391.004785 
L 79.393067 391.004785 
L 79.605901 390.618947 
L 79.818734 386.760574 
L 80.882902 386.760574 
L 81.734236 384.059713 
L 82.159903 383.288038 
L 82.372736 382.130526 
L 82.58557 382.130526 
L 82.798403 377.886316 
L 83.011237 377.886316 
L 83.22407 377.500478 
L 83.436904 377.500478 
L 83.649737 374.027943 
L 83.86257 373.642105 
L 84.075404 373.642105 
L 84.288237 373.256268 
L 84.713904 373.256268 
L 84.926738 370.555407 
L 85.778072 370.555407 
L 85.990905 369.397895 
L 86.203739 369.012057 
L 87.055073 369.012057 
L 87.693573 367.854545 
L 88.544907 362.83866 
L 89.396241 362.83866 
L 89.609074 362.066986 
L 89.821908 362.066986 
L 90.034741 360.523636 
L 90.460408 359.751962 
L 90.673242 359.751962 
L 90.886075 359.366124 
L 91.524576 359.366124 
L 91.737409 358.59445 
L 92.37591 358.59445 
L 92.588743 358.208612 
L 93.440077 358.208612 
L 93.652911 353.964402 
L 95.142745 353.964402 
L 95.355578 347.405167 
L 95.568412 345.861818 
L 96.632579 345.861818 
L 96.845413 341.23177 
L 97.058246 341.23177 
L 97.27108 339.688421 
L 97.696747 339.688421 
L 97.90958 339.302584 
L 98.548081 339.302584 
L 98.760914 329.270813 
L 98.973748 328.884976 
L 99.186581 328.884976 
L 99.399415 328.499139 
L 100.037915 328.499139 
L 100.250749 323.869091 
L 103.230417 323.869091 
L 103.443251 315.766507 
L 103.656084 315.38067 
L 104.294585 315.38067 
L 104.507418 314.608995 
L 110.253922 314.608995 
L 110.466756 313.451483 
L 111.530923 313.451483 
L 111.743756 312.679809 
L 112.382257 312.679809 
L 112.807924 311.908134 
L 113.659258 311.908134 
L 113.872091 311.522297 
L 115.361926 311.522297 
L 115.574759 311.136459 
L 116.638927 311.136459 
L 116.85176 310.750622 
L 118.128761 310.750622 
L 118.341594 309.59311 
L 118.767261 309.59311 
L 118.980095 308.435598 
L 119.192928 308.435598 
L 119.405762 308.049761 
L 119.831429 306.506411 
L 120.469929 306.506411 
L 120.682763 303.80555 
L 121.10843 303.80555 
L 121.534097 303.033876 
L 121.74693 302.262201 
L 121.959764 302.262201 
L 122.172597 296.474641 
L 122.385431 296.474641 
L 122.598264 296.088804 
L 123.875265 296.088804 
L 124.088098 295.702967 
L 124.513765 295.702967 
L 124.726599 295.317129 
L 125.365099 295.317129 
L 125.577933 294.545455 
L 126.429267 294.545455 
L 126.854934 293.387943 
L 127.067767 291.458756 
L 127.919101 291.458756 
L 128.344768 289.529569 
L 128.557601 288.757895 
L 130.260269 288.757895 
L 131.111603 286.057033 
L 136.43244 286.057033 
L 136.645274 285.671196 
L 137.709441 285.671196 
L 137.922275 285.285359 
L 138.986442 285.285359 
L 139.199276 284.513684 
L 139.624942 284.513684 
L 140.050609 283.74201 
L 140.263443 283.74201 
L 140.476276 283.356172 
L 141.114777 283.356172 
L 141.32761 282.970335 
L 141.540444 282.970335 
L 141.966111 282.19866 
L 142.178944 281.041148 
L 148.138282 281.041148 
L 148.351115 279.883636 
L 148.563949 279.883636 
L 148.776782 279.497799 
L 149.202449 279.497799 
L 149.415283 279.111962 
L 150.47945 279.111962 
L 150.692283 278.340287 
L 151.330784 278.340287 
L 151.756451 277.182775 
L 151.969284 277.182775 
L 152.182118 276.796938 
L 153.459119 276.796938 
L 153.671952 276.4111 
L 153.884786 276.4111 
L 154.097619 274.481914 
L 154.73612 274.481914 
L 154.948953 273.324402 
L 156.438787 273.324402 
L 156.651621 272.16689 
L 157.077288 272.16689 
L 157.290121 271.395215 
L 158.992789 271.395215 
L 159.205623 269.080191 
L 159.418456 268.694354 
L 159.844123 268.694354 
L 160.056957 267.536842 
L 161.121124 267.536842 
L 161.333958 265.607656 
L 162.398125 265.607656 
L 162.823792 264.450144 
L 163.036625 264.064306 
L 163.462292 260.59177 
L 163.675126 260.59177 
L 163.887959 259.820096 
L 164.313626 259.820096 
L 164.52646 259.048421 
L 164.739293 259.048421 
L 164.952127 257.119234 
L 165.16496 256.733397 
L 165.377794 256.733397 
L 165.590627 255.961722 
L 165.803461 255.961722 
L 166.016294 254.418373 
L 166.441961 254.418373 
L 166.654795 252.875024 
L 167.080461 252.103349 
L 167.293295 250.945837 
L 167.506128 250.56 
L 168.144629 250.56 
L 168.357462 249.788325 
L 168.570296 249.788325 
L 168.995963 248.630813 
L 169.208796 248.630813 
L 169.42163 248.244976 
L 169.847297 248.244976 
L 170.06013 247.473301 
L 170.272964 247.473301 
L 170.485797 247.087464 
L 171.549965 247.087464 
L 171.762798 244.000766 
L 171.975632 243.614928 
L 173.039799 243.614928 
L 173.252632 242.457416 
L 173.465466 242.457416 
L 173.678299 242.071579 
L 174.103966 242.071579 
L 174.3168 241.685742 
L 174.529633 241.685742 
L 174.742467 241.299904 
L 175.380967 241.299904 
L 175.806634 240.52823 
L 176.019468 240.52823 
L 176.232301 240.142392 
L 176.445135 240.142392 
L 176.657968 239.756555 
L 176.870802 239.756555 
L 177.083635 239.370718 
L 182.617306 239.370718 
L 182.830139 238.213206 
L 183.46864 238.213206 
L 183.681473 237.441531 
L 184.319973 237.441531 
L 184.74564 235.898182 
L 187.299642 235.898182 
L 187.512476 235.512344 
L 187.725309 235.512344 
L 187.938143 235.126507 
L 189.00231 235.126507 
L 189.215144 234.74067 
L 189.64081 234.74067 
L 189.853644 234.354833 
L 190.066477 234.354833 
L 190.279311 233.968995 
L 191.130645 233.968995 
L 191.343478 232.811483 
L 191.769145 232.811483 
L 191.981979 232.425646 
L 192.620479 232.425646 
L 192.833313 232.039809 
L 193.046146 232.039809 
L 193.25898 231.653971 
L 193.684647 231.653971 
L 193.89748 229.338947 
L 194.110314 229.338947 
L 194.323147 227.409761 
L 194.535981 223.937225 
L 194.748814 217.763828 
L 194.961647 217.763828 
L 195.174481 213.519617 
L 195.387314 212.747943 
L 195.600148 207.34622 
L 195.812981 207.34622 
L 196.025815 204.259522 
L 196.451482 204.259522 
L 196.664315 201.172823 
L 196.877149 200.786986 
L 197.089982 200.786986 
L 197.302816 198.086124 
L 197.515649 198.086124 
L 197.728483 196.156938 
L 197.941316 195.7711 
L 198.15415 194.227751 
L 198.366983 194.227751 
L 198.579817 188.054354 
L 198.79265 187.668517 
L 199.218317 187.668517 
L 199.431151 186.511005 
L 199.643984 186.511005 
L 199.856818 183.424306 
L 200.069651 183.038469 
L 200.282485 183.038469 
L 200.495318 181.880957 
L 200.708151 181.880957 
L 200.920985 180.723445 
L 201.133818 180.723445 
L 201.346652 179.180096 
L 201.772319 179.180096 
L 201.985152 178.408421 
L 202.197986 178.408421 
L 202.410819 177.636746 
L 202.623653 177.636746 
L 202.836486 177.250909 
L 203.04932 177.250909 
L 203.474987 176.479234 
L 204.113487 176.479234 
L 204.326321 174.164211 
L 204.964821 174.164211 
L 205.177655 173.006699 
L 205.816155 173.006699 
L 206.028988 172.620861 
L 206.241822 172.620861 
L 206.454655 171.077512 
L 206.667489 171.077512 
L 207.093156 169.92 
L 207.518823 169.92 
L 207.731656 166.061627 
L 207.94449 165.675789 
L 208.157323 164.904115 
L 208.370157 164.904115 
L 208.58299 164.518278 
L 209.008657 163.360766 
L 213.47816 163.360766 
L 213.690994 162.974928 
L 214.329494 162.974928 
L 214.542328 162.589091 
L 214.755161 162.589091 
L 214.967995 161.817416 
L 217.947663 161.817416 
L 218.160497 161.431579 
L 218.586164 161.431579 
L 218.798997 161.045742 
L 219.011831 161.045742 
L 219.224664 160.659904 
L 222.842833 160.659904 
L 223.055667 159.116555 
L 223.2685 159.116555 
L 223.481334 158.730718 
L 223.694167 158.730718 
L 223.907001 158.34488 
L 225.822502 158.34488 
L 226.035336 157.573206 
L 227.312337 157.573206 
L 227.52517 157.187368 
L 228.376504 157.187368 
L 228.589337 156.801531 
L 233.271674 156.801531 
L 233.484508 156.415694 
L 237.31551 156.415694 
L 237.528344 155.258182 
L 238.166844 155.258182 
L 238.379678 154.872344 
L 239.018178 154.872344 
L 239.231012 154.486507 
L 240.295179 154.486507 
L 240.508012 154.10067 
L 242.849181 154.10067 
L 243.062014 153.714833 
L 245.616016 153.714833 
L 245.828849 152.557321 
L 249.021352 152.557321 
L 249.234185 148.698947 
L 249.659852 148.698947 
L 249.872686 148.31311 
L 252.00102 148.31311 
L 252.213854 147.541435 
L 255.61919 147.541435 
L 255.832023 145.226411 
L 256.044856 145.226411 
L 256.25769 144.840574 
L 259.875859 144.840574 
L 260.088693 144.454737 
L 262.217027 144.454737 
L 262.429861 144.0689 
L 263.068361 144.0689 
L 263.281195 143.297225 
L 264.132529 143.297225 
L 264.345362 142.911388 
L 264.983863 140.596364 
L 265.196696 140.596364 
L 265.40953 138.28134 
L 265.622363 138.28134 
L 266.04803 137.509665 
L 272.007368 137.509665 
L 272.220201 137.123828 
L 275.412703 137.123828 
L 275.625537 136.73799 
L 279.030872 136.73799 
L 279.243706 136.352153 
L 289.88538 136.352153 
L 290.098213 135.966316 
L 290.311047 135.966316 
L 290.52388 135.194641 
L 290.736714 135.194641 
L 290.949547 134.422967 
L 291.375214 134.422967 
L 291.588048 134.037129 
L 293.929216 134.037129 
L 294.14205 133.651292 
L 294.78055 133.651292 
L 294.993383 133.265455 
L 296.057551 133.265455 
L 296.270384 132.879617 
L 296.696051 132.879617 
L 296.908885 132.49378 
L 300.314221 132.49378 
L 300.527054 131.336268 
L 301.165554 131.336268 
L 301.378388 130.564593 
L 301.591221 130.564593 
L 301.804055 130.178756 
L 302.442555 130.178756 
L 302.655389 129.407081 
L 302.868222 129.407081 
L 303.081056 129.021244 
L 303.506723 129.021244 
L 303.719556 128.635407 
L 303.93239 127.863732 
L 304.996557 127.863732 
L 305.209391 127.092057 
L 306.060724 127.092057 
L 306.273558 125.548708 
L 307.337725 125.548708 
L 307.550559 124.391196 
L 314.148397 124.391196 
L 314.36123 124.005359 
L 314.574064 124.005359 
L 314.999731 123.233684 
L 333.30341 123.233684 
L 333.516244 122.847847 
L 337.134413 122.847847 
L 337.347246 121.690335 
L 342.242416 121.690335 
L 342.45525 121.304498 
L 345.222085 121.304498 
L 345.434918 115.902775 
L 346.711919 115.902775 
L 346.924753 115.516938 
L 347.35042 115.516938 
L 347.776087 113.587751 
L 353.309757 113.587751 
L 353.522591 113.201914 
L 356.076592 113.201914 
L 356.289426 112.816077 
L 359.269095 112.816077 
L 359.481928 112.430239 
L 364.377098 112.430239 
L 364.589932 112.044402 
L 375.657273 112.044402 
L 375.657273 112.044402 
" clip-path="url(#p0c98db9317)" style="fill: none; stroke: #db5f57; stroke-width: 1.2; stroke-linecap: round"/>
   </g>
   <g id="line2d_32">
    <path d="M 69.602727 489.007464 
L 70.028394 462.770526 
L 70.879728 441.549474 
L 71.092562 427.273493 
L 71.305395 424.958469 
L 71.518229 424.958469 
L 71.731062 424.572632 
L 72.156729 418.399234 
L 72.369563 418.399234 
L 72.582396 418.013397 
L 72.795229 418.013397 
L 73.008063 414.155024 
L 73.220896 412.611675 
L 73.43373 412.225837 
L 73.646563 412.225837 
L 73.859397 411.84 
L 74.285064 410.296651 
L 74.497897 405.666603 
L 74.710731 404.894928 
L 75.562065 404.894928 
L 75.987732 396.406507 
L 76.413399 394.863158 
L 76.626232 392.548134 
L 76.839066 392.548134 
L 77.264733 389.847273 
L 77.477566 389.847273 
L 77.6904 389.461435 
L 79.180234 389.461435 
L 79.605901 388.689761 
L 79.818734 388.689761 
L 80.031568 388.303923 
L 81.095735 388.303923 
L 81.308569 387.918086 
L 81.734236 387.918086 
L 81.947069 387.532249 
L 82.159903 387.532249 
L 82.372736 387.146411 
L 84.501071 387.146411 
L 84.713904 386.760574 
L 85.139571 386.760574 
L 85.352405 386.374737 
L 85.565238 363.610335 
L 85.990905 363.610335 
L 86.203739 363.224498 
L 87.906407 363.224498 
L 88.11924 362.83866 
L 88.332074 359.751962 
L 89.609074 359.751962 
L 89.821908 353.578565 
L 90.034741 353.192727 
L 90.247575 352.035215 
L 90.673242 352.035215 
L 90.886075 350.491866 
L 93.865744 350.491866 
L 94.078578 344.704306 
L 94.929911 344.704306 
L 95.142745 344.318469 
L 95.781245 344.318469 
L 95.994079 337.373397 
L 97.058246 337.373397 
L 97.27108 333.129187 
L 98.548081 333.129187 
L 98.760914 328.499139 
L 98.973748 328.499139 
L 99.186581 328.113301 
L 100.463582 328.113301 
L 100.676415 327.727464 
L 101.314916 327.727464 
L 101.740583 314.608995 
L 106.848586 314.608995 
L 107.06142 313.065646 
L 107.274253 306.506411 
L 108.976921 306.506411 
L 109.189755 306.120574 
L 109.402588 306.120574 
L 109.615422 305.734737 
L 111.105256 305.734737 
L 111.31809 304.577225 
L 115.787593 304.577225 
L 116.000426 304.191388 
L 118.554428 304.191388 
L 118.767261 303.80555 
L 119.405762 303.80555 
L 119.618595 299.56134 
L 126.429267 299.56134 
L 126.6421 285.671196 
L 132.601438 285.671196 
L 132.814271 278.726124 
L 133.452772 278.726124 
L 133.665605 278.340287 
L 136.006773 278.340287 
L 136.219607 277.95445 
L 136.645274 277.95445 
L 136.858107 277.568612 
L 138.560775 277.568612 
L 138.773609 277.182775 
L 145.58428 277.182775 
L 145.797113 272.938565 
L 148.138282 272.938565 
L 148.351115 271.009378 
L 149.202449 271.009378 
L 149.415283 270.623541 
L 152.182118 270.623541 
L 152.394951 268.694354 
L 154.310453 268.694354 
L 154.523286 265.993493 
L 154.948953 265.993493 
L 155.161787 265.221818 
L 157.077288 265.221818 
L 157.502955 263.292632 
L 159.205623 263.292632 
L 159.418456 260.205933 
L 159.63129 260.205933 
L 160.056957 258.276746 
L 160.26979 258.276746 
L 160.695457 257.505072 
L 161.121124 257.505072 
L 161.333958 255.961722 
L 162.610958 255.961722 
L 162.823792 254.418373 
L 163.675126 254.418373 
L 164.100793 250.174163 
L 169.847297 250.174163 
L 170.06013 237.827368 
L 170.698631 237.827368 
L 170.911464 236.669856 
L 171.549965 236.669856 
L 171.762798 234.354833 
L 176.445135 234.354833 
L 176.657968 229.724785 
L 178.999136 229.724785 
L 179.21197 228.95311 
L 181.553138 228.95311 
L 181.765972 228.567273 
L 183.255806 228.567273 
L 183.46864 227.409761 
L 183.681473 227.023923 
L 184.532807 227.023923 
L 184.74564 225.866411 
L 188.150976 225.866411 
L 188.36381 224.323062 
L 188.576643 224.323062 
L 188.789477 223.937225 
L 192.620479 223.937225 
L 192.833313 221.622201 
L 193.25898 221.622201 
L 193.471813 221.236364 
L 195.387314 221.236364 
L 195.812981 201.55866 
L 196.238648 201.55866 
L 196.451482 196.928612 
L 196.877149 196.928612 
L 197.089982 194.227751 
L 197.728483 194.227751 
L 197.941316 190.369378 
L 199.218317 190.369378 
L 199.431151 183.810144 
L 200.069651 183.810144 
L 200.282485 183.424306 
L 201.985152 183.424306 
L 202.197986 183.038469 
L 202.836486 183.038469 
L 203.04932 175.321722 
L 204.751988 175.321722 
L 204.964821 172.235024 
L 205.177655 172.235024 
L 205.390488 171.463349 
L 206.241822 171.463349 
L 206.454655 170.691675 
L 206.667489 168.762488 
L 206.880322 167.990813 
L 207.305989 167.990813 
L 207.518823 167.219139 
L 208.370157 167.219139 
L 208.58299 162.203254 
L 208.795824 162.203254 
L 209.008657 161.817416 
L 209.221491 160.659904 
L 209.434324 160.659904 
L 209.647158 160.274067 
L 210.072825 160.274067 
L 210.285658 159.88823 
L 213.265327 159.88823 
L 213.47816 159.116555 
L 215.393662 159.116555 
L 215.606495 157.959043 
L 219.650331 157.959043 
L 219.863165 157.573206 
L 221.778666 157.573206 
L 222.204333 155.644019 
L 223.907001 155.644019 
L 224.119834 154.486507 
L 227.950837 154.486507 
L 228.376504 153.328995 
L 231.78184 153.328995 
L 231.994673 152.943158 
L 232.42034 152.943158 
L 232.633174 152.557321 
L 233.697341 152.557321 
L 233.910174 152.171483 
L 237.31551 152.171483 
L 237.528344 151.785646 
L 238.166844 151.785646 
L 238.379678 151.399809 
L 239.018178 151.399809 
L 239.231012 151.013971 
L 240.295179 151.013971 
L 240.508012 150.628134 
L 241.785013 150.628134 
L 241.997847 149.856459 
L 245.616016 149.856459 
L 245.828849 149.470622 
L 246.254516 149.470622 
L 246.46735 148.698947 
L 249.234185 148.698947 
L 249.447019 145.226411 
L 249.659852 145.226411 
L 249.872686 144.840574 
L 251.575353 144.840574 
L 252.00102 143.683062 
L 254.129355 143.683062 
L 254.342189 142.139713 
L 254.555022 142.139713 
L 254.767856 141.753876 
L 255.832023 141.753876 
L 256.044856 141.368038 
L 257.321857 141.368038 
L 257.534691 140.982201 
L 257.747524 140.982201 
L 257.960358 140.596364 
L 259.024525 140.596364 
L 259.237359 140.210526 
L 262.004194 140.210526 
L 262.217027 139.824689 
L 266.04803 139.824689 
L 266.260864 135.966316 
L 266.473697 134.422967 
L 266.686531 134.422967 
L 266.899364 134.037129 
L 270.517533 134.037129 
L 270.730367 133.651292 
L 271.581701 133.651292 
L 271.794534 133.265455 
L 273.922869 133.265455 
L 274.135702 132.879617 
L 275.19987 132.879617 
L 275.412703 132.49378 
L 281.372041 132.49378 
L 281.584874 132.107943 
L 289.88538 132.107943 
L 290.098213 131.722105 
L 298.398719 131.722105 
L 298.611553 128.249569 
L 299.250053 128.249569 
L 299.888554 127.092057 
L 301.378388 127.092057 
L 301.591221 125.934545 
L 302.016888 125.934545 
L 302.229722 125.548708 
L 302.655389 125.548708 
L 302.868222 125.162871 
L 303.081056 125.162871 
L 303.293889 124.777033 
L 304.358057 124.777033 
L 304.57089 123.619522 
L 304.996557 123.619522 
L 305.209391 122.847847 
L 306.060724 122.847847 
L 306.273558 121.690335 
L 306.699225 121.690335 
L 306.912058 121.304498 
L 308.401893 121.304498 
L 308.614726 120.532823 
L 313.935563 120.532823 
L 314.148397 120.146986 
L 314.574064 120.146986 
L 314.786897 119.375311 
L 325.428571 119.375311 
L 325.641405 118.989474 
L 335.006078 118.989474 
L 335.218911 118.603636 
L 335.644578 118.603636 
L 335.857412 117.446124 
L 342.880917 117.446124 
L 343.09375 111.658565 
L 348.627421 111.658565 
L 348.840254 111.272727 
L 349.053088 111.272727 
L 349.265921 109.343541 
L 355.863759 109.343541 
L 356.076592 108.957703 
L 357.566427 108.957703 
L 357.77926 108.571866 
L 364.377098 108.571866 
L 364.589932 108.186029 
L 375.657273 108.186029 
L 375.657273 108.186029 
" clip-path="url(#p0c98db9317)" style="fill: none; stroke: #b9db57; stroke-width: 1.2; stroke-linecap: round"/>
   </g>
   <g id="line2d_33">
    <path d="M 69.602727 484.763254 
L 69.815561 463.542201 
L 70.241228 446.951196 
L 70.666895 441.935311 
L 70.879728 441.549474 
L 71.305395 439.620287 
L 71.518229 439.23445 
L 71.943896 439.23445 
L 73.220896 431.903541 
L 73.43373 430.360191 
L 73.859397 430.360191 
L 74.07223 429.202679 
L 74.285064 426.115981 
L 74.497897 409.139139 
L 75.136398 409.139139 
L 75.349231 408.753301 
L 75.562065 408.753301 
L 76.200565 406.824115 
L 76.413399 406.824115 
L 76.626232 406.438278 
L 76.839066 406.438278 
L 77.051899 405.666603 
L 77.477566 405.666603 
L 77.6904 405.280766 
L 78.116067 405.280766 
L 78.541733 404.123254 
L 79.605901 404.123254 
L 79.818734 403.737416 
L 80.457235 403.737416 
L 80.670068 402.965742 
L 81.095735 402.965742 
L 81.521402 402.194067 
L 81.734236 402.194067 
L 81.947069 382.130526 
L 82.372736 380.20134 
L 83.22407 380.20134 
L 83.649737 379.429665 
L 84.926738 379.429665 
L 85.352405 378.65799 
L 85.565238 377.886316 
L 86.203739 377.886316 
L 86.416572 377.500478 
L 88.11924 377.500478 
L 88.332074 376.728804 
L 88.544907 372.484593 
L 88.757741 360.137799 
L 88.970574 360.137799 
L 89.183408 359.751962 
L 90.034741 359.751962 
L 90.247575 359.366124 
L 91.524576 359.366124 
L 91.737409 355.893589 
L 91.950243 355.121914 
L 92.163076 353.192727 
L 92.37591 352.80689 
L 93.440077 352.80689 
L 93.652911 352.421053 
L 97.058246 352.421053 
L 97.27108 338.145072 
L 100.676415 338.145072 
L 100.889249 337.759234 
L 102.591917 337.759234 
L 102.80475 321.939904 
L 103.230417 320.782392 
L 108.551254 320.782392 
L 108.976921 312.679809 
L 109.828255 312.679809 
L 110.041089 312.293971 
L 110.892423 312.293971 
L 111.105256 311.908134 
L 111.743756 311.908134 
L 111.95659 311.136459 
L 112.169423 311.136459 
L 112.382257 310.750622 
L 116.000426 310.750622 
L 116.21326 308.435598 
L 120.682763 308.435598 
L 120.895596 308.049761 
L 123.875265 308.049761 
L 124.088098 294.545455 
L 127.493434 294.545455 
L 127.706268 289.915407 
L 128.344768 289.915407 
L 128.770435 287.600383 
L 128.983268 286.828708 
L 132.175771 286.828708 
L 132.388604 284.127847 
L 138.347942 284.127847 
L 138.560775 282.970335 
L 139.837776 282.970335 
L 140.050609 281.426986 
L 140.263443 281.426986 
L 140.476276 281.041148 
L 142.178944 281.041148 
L 142.391778 279.111962 
L 146.648447 279.111962 
L 147.074114 276.796938 
L 150.053783 276.796938 
L 150.266617 276.025263 
L 150.47945 276.025263 
L 150.692283 275.639426 
L 154.097619 275.639426 
L 154.310453 272.552727 
L 154.523286 272.16689 
L 155.37462 272.16689 
L 155.587454 271.009378 
L 157.502955 271.009378 
L 157.715788 270.623541 
L 158.354289 270.623541 
L 158.567122 270.237703 
L 159.418456 270.237703 
L 159.63129 269.851866 
L 161.759624 269.851866 
L 161.972458 269.466029 
L 166.441961 269.466029 
L 166.654795 256.733397 
L 166.867628 255.961722 
L 167.080461 254.418373 
L 168.144629 252.489187 
L 168.357462 252.489187 
L 168.570296 252.103349 
L 168.783129 250.945837 
L 168.995963 250.56 
L 169.42163 250.56 
L 170.06013 248.630813 
L 170.272964 248.630813 
L 170.698631 247.859139 
L 170.911464 247.087464 
L 171.124298 247.087464 
L 171.549965 245.929952 
L 171.762798 245.929952 
L 171.975632 245.544115 
L 172.188465 245.544115 
L 172.401299 245.158278 
L 172.614132 244.386603 
L 172.826965 244.386603 
L 173.039799 243.229091 
L 173.252632 243.229091 
L 173.465466 242.843254 
L 173.891133 242.843254 
L 174.3168 242.071579 
L 174.742467 242.071579 
L 174.9553 241.685742 
L 175.593801 241.685742 
L 175.806634 241.299904 
L 176.445135 241.299904 
L 176.657968 239.370718 
L 178.573469 239.370718 
L 178.786303 238.98488 
L 181.978805 238.98488 
L 182.191639 238.213206 
L 182.830139 238.213206 
L 183.042973 237.827368 
L 185.171307 237.827368 
L 185.384141 237.441531 
L 185.596974 235.512344 
L 189.64081 235.512344 
L 190.279311 233.197321 
L 191.556312 233.197321 
L 191.769145 232.811483 
L 196.451482 232.811483 
L 196.664315 231.653971 
L 196.877149 206.188708 
L 197.089982 205.802871 
L 197.302816 205.802871 
L 197.728483 205.031196 
L 197.941316 201.944498 
L 198.15415 201.55866 
L 198.579817 195.7711 
L 198.79265 194.613589 
L 199.005484 194.227751 
L 199.218317 194.227751 
L 199.431151 193.841914 
L 199.643984 193.841914 
L 199.856818 193.456077 
L 200.069651 193.456077 
L 200.282485 189.597703 
L 200.495318 188.826029 
L 200.920985 188.826029 
L 201.133818 188.054354 
L 201.346652 188.054354 
L 201.559485 186.511005 
L 202.410819 186.511005 
L 202.836486 184.195981 
L 207.305989 184.195981 
L 207.94449 181.880957 
L 208.370157 179.565933 
L 208.58299 179.565933 
L 208.795824 171.849187 
L 209.859991 171.849187 
L 210.072825 171.463349 
L 211.349826 171.463349 
L 211.562659 171.077512 
L 211.775492 171.077512 
L 212.201159 169.92 
L 217.521996 169.92 
L 217.73483 169.534163 
L 218.160497 169.534163 
L 218.37333 168.376651 
L 221.565833 168.376651 
L 221.9915 167.604976 
L 222.204333 166.833301 
L 222.63 166.833301 
L 222.842833 166.447464 
L 223.481334 166.447464 
L 223.907001 165.675789 
L 224.119834 165.675789 
L 224.332668 165.289952 
L 224.971168 165.289952 
L 225.184002 164.518278 
L 225.609669 164.518278 
L 225.822502 164.13244 
L 226.035336 164.13244 
L 226.248169 163.746603 
L 228.163671 163.746603 
L 228.376504 163.360766 
L 232.207507 163.360766 
L 232.42034 162.589091 
L 238.379678 162.589091 
L 238.592511 161.431579 
L 238.805345 161.045742 
L 240.295179 161.045742 
L 240.508012 160.659904 
L 245.616016 160.659904 
L 245.828849 160.274067 
L 253.703688 160.274067 
L 254.342189 152.557321 
L 254.555022 152.171483 
L 255.406356 152.171483 
L 255.61919 151.785646 
L 257.534691 151.785646 
L 257.747524 151.399809 
L 258.598858 151.399809 
L 258.811692 151.013971 
L 269.240532 151.013971 
L 269.453366 144.454737 
L 269.879033 144.454737 
L 270.091866 144.0689 
L 271.368867 144.0689 
L 271.581701 143.683062 
L 272.007368 143.683062 
L 272.220201 143.297225 
L 275.625537 143.297225 
L 275.83837 142.911388 
L 278.392372 142.911388 
L 278.605205 142.52555 
L 289.24688 142.52555 
L 289.459713 142.139713 
L 292.865049 142.139713 
L 293.077882 140.210526 
L 294.993383 140.210526 
L 295.206217 139.438852 
L 300.952721 139.438852 
L 301.165554 137.509665 
L 301.378388 137.123828 
L 301.591221 137.123828 
L 301.804055 136.73799 
L 302.016888 136.73799 
L 302.229722 135.966316 
L 302.868222 135.966316 
L 303.081056 135.194641 
L 304.358057 135.194641 
L 304.57089 134.037129 
L 304.783724 133.651292 
L 304.996557 133.651292 
L 305.209391 133.265455 
L 305.635058 133.265455 
L 305.847891 132.879617 
L 306.060724 130.950431 
L 306.273558 130.950431 
L 306.486391 130.564593 
L 311.168728 130.564593 
L 311.381562 129.792919 
L 317.553732 129.792919 
L 317.766566 129.021244 
L 325.002904 129.021244 
L 325.215738 128.635407 
L 341.816749 128.635407 
L 342.242416 126.320383 
L 342.45525 122.076172 
L 342.668083 121.304498 
L 342.880917 121.304498 
L 343.09375 120.91866 
L 361.610263 120.91866 
L 361.823096 120.532823 
L 362.03593 120.532823 
L 362.461597 117.831962 
L 375.657273 117.831962 
L 375.657273 117.831962 
" clip-path="url(#p0c98db9317)" style="fill: none; stroke: #57db94; stroke-width: 1.2; stroke-linecap: round"/>
   </g>
   <g id="line2d_34">
    <path d="M 69.602727 487.849952 
L 69.815561 481.676555 
L 70.454061 481.676555 
L 70.666895 481.290718 
L 71.092562 481.290718 
L 71.518229 427.273493 
L 71.731062 425.730144 
L 71.943896 423.029282 
L 72.156729 421.87177 
L 72.795229 421.87177 
L 73.008063 421.485933 
L 73.220896 420.328421 
L 73.43373 420.328421 
L 73.646563 415.698373 
L 73.859397 415.698373 
L 74.07223 413.769187 
L 74.285064 413.383349 
L 74.497897 408.367464 
L 74.710731 407.981627 
L 74.923564 404.123254 
L 75.136398 404.123254 
L 75.774898 402.965742 
L 75.987732 402.194067 
L 76.626232 402.194067 
L 76.839066 397.949856 
L 77.051899 397.178182 
L 77.264733 397.178182 
L 77.477566 396.792344 
L 77.6904 396.792344 
L 77.903233 395.634833 
L 78.3289 395.634833 
L 78.541733 395.248995 
L 78.9674 395.248995 
L 79.180234 394.863158 
L 79.393067 394.863158 
L 79.605901 394.477321 
L 79.818734 391.390622 
L 80.031568 391.390622 
L 80.244401 390.618947 
L 80.670068 390.618947 
L 80.882902 390.23311 
L 81.095735 390.23311 
L 81.308569 388.303923 
L 81.734236 387.146411 
L 81.947069 387.146411 
L 82.372736 384.44555 
L 82.58557 384.44555 
L 82.798403 381.744689 
L 83.22407 381.744689 
L 83.436904 380.973014 
L 83.649737 380.973014 
L 83.86257 377.114641 
L 84.288237 377.114641 
L 84.501071 376.728804 
L 84.713904 376.728804 
L 84.926738 376.342967 
L 85.139571 374.027943 
L 88.332074 374.027943 
L 88.544907 367.854545 
L 88.757741 367.854545 
L 89.183408 367.082871 
L 89.609074 367.082871 
L 90.247575 365.153684 
L 90.460408 365.153684 
L 90.673242 363.996172 
L 90.886075 363.996172 
L 91.098909 363.610335 
L 93.227244 363.610335 
L 93.440077 363.224498 
L 93.865744 363.224498 
L 94.078578 358.59445 
L 96.632579 358.59445 
L 96.845413 346.247656 
L 97.058246 346.247656 
L 97.27108 345.861818 
L 97.483913 343.932632 
L 97.696747 343.546794 
L 97.90958 343.546794 
L 98.335247 342.77512 
L 101.527749 342.77512 
L 101.740583 328.113301 
L 103.017584 328.113301 
L 103.230417 327.341627 
L 106.210086 327.341627 
L 106.422919 318.853206 
L 110.041089 318.853206 
L 110.253922 318.467368 
L 110.466756 318.467368 
L 110.679589 318.081531 
L 114.510592 318.081531 
L 114.723425 317.695694 
L 126.216433 317.695694 
L 126.429267 298.789665 
L 126.6421 298.01799 
L 129.408935 298.01799 
L 129.621769 293.002105 
L 132.175771 293.002105 
L 132.388604 290.301244 
L 138.560775 290.301244 
L 138.773609 289.529569 
L 141.753277 289.529569 
L 141.966111 286.828708 
L 144.945779 286.828708 
L 145.158613 285.285359 
L 147.925448 285.285359 
L 148.138282 283.74201 
L 151.756451 283.74201 
L 151.969284 281.426986 
L 154.73612 281.426986 
L 154.948953 278.340287 
L 157.502955 278.340287 
L 157.715788 277.95445 
L 157.928622 275.639426 
L 160.482624 275.639426 
L 160.695457 271.395215 
L 163.249459 271.395215 
L 163.462292 266.765167 
L 164.100793 266.765167 
L 164.313626 264.064306 
L 166.441961 264.064306 
L 166.867628 257.505072 
L 167.293295 257.505072 
L 167.506128 255.190048 
L 169.847297 255.190048 
L 170.272964 251.331675 
L 170.485797 250.945837 
L 170.911464 250.945837 
L 171.124298 249.402488 
L 171.337131 249.402488 
L 171.549965 248.630813 
L 174.3168 248.630813 
L 174.529633 244.77244 
L 177.296469 244.77244 
L 177.509302 242.071579 
L 183.042973 242.071579 
L 183.255806 240.52823 
L 186.448308 240.52823 
L 186.661142 238.599043 
L 189.64081 238.599043 
L 190.066477 236.669856 
L 192.833313 236.669856 
L 193.046146 234.354833 
L 195.812981 234.354833 
L 196.025815 215.062967 
L 196.238648 209.661244 
L 199.005484 209.661244 
L 199.218317 190.369378 
L 199.643984 188.826029 
L 199.856818 186.125167 
L 203.262153 186.125167 
L 203.474987 179.95177 
L 203.68782 178.794258 
L 206.454655 178.794258 
L 206.667489 173.392536 
L 209.859991 173.392536 
L 210.072825 165.289952 
L 223.055667 165.289952 
L 223.2685 161.045742 
L 226.035336 161.045742 
L 226.248169 159.116555 
L 229.227838 159.116555 
L 229.440671 158.34488 
L 232.633174 158.34488 
L 232.846007 157.573206 
L 235.400009 157.573206 
L 235.612842 157.187368 
L 237.102677 157.187368 
L 237.31551 156.801531 
L 238.379678 156.801531 
L 238.592511 156.415694 
L 238.805345 156.415694 
L 239.018178 156.029856 
L 241.997847 156.029856 
L 242.21068 155.258182 
L 245.616016 155.258182 
L 245.828849 154.486507 
L 246.254516 154.486507 
L 246.46735 154.10067 
L 252.639521 154.10067 
L 252.852354 149.470622 
L 255.406356 149.470622 
L 255.61919 147.541435 
L 258.386025 147.541435 
L 258.598858 146.769761 
L 261.578527 146.769761 
L 261.79136 146.383923 
L 264.345362 146.383923 
L 264.558196 142.139713 
L 264.771029 141.368038 
L 268.389198 141.368038 
L 268.602032 138.667177 
L 274.135702 138.667177 
L 274.348536 138.28134 
L 278.179539 138.28134 
L 278.392372 137.895502 
L 282.223375 137.895502 
L 282.436208 137.509665 
L 289.459713 137.509665 
L 289.672546 137.123828 
L 293.077882 137.123828 
L 293.290716 135.194641 
L 296.483218 135.194641 
L 296.696051 134.037129 
L 296.908885 134.037129 
L 297.121718 133.651292 
L 301.165554 133.651292 
L 301.591221 131.336268 
L 304.57089 131.336268 
L 304.783724 128.635407 
L 308.189059 128.635407 
L 308.401893 125.162871 
L 314.786897 125.162871 
L 314.999731 124.005359 
L 333.090577 124.005359 
L 333.30341 122.847847 
L 333.729077 122.847847 
L 333.94191 122.46201 
L 337.134413 122.46201 
L 337.347246 122.076172 
L 345.434918 122.076172 
L 345.647752 115.902775 
L 348.627421 115.902775 
L 348.840254 113.587751 
L 356.289426 113.587751 
L 356.502259 112.816077 
L 359.694762 112.816077 
L 359.907595 112.430239 
L 366.2926 112.430239 
L 366.505433 112.044402 
L 375.657273 112.044402 
L 375.657273 112.044402 
" clip-path="url(#p0c98db9317)" style="fill: none; stroke: #5784db; stroke-width: 1.2; stroke-linecap: round"/>
   </g>
   <g id="line2d_35">
    <path d="M 69.602727 482.255311 
L 69.815561 459.683828 
L 70.028394 452.352919 
L 70.241228 435.761914 
L 70.454061 430.360191 
L 70.666895 428.816842 
L 71.092562 421.87177 
L 71.731062 419.942584 
L 71.943896 417.241722 
L 72.582396 414.155024 
L 72.795229 413.769187 
L 73.220896 411.84 
L 73.646563 411.84 
L 73.859397 410.682488 
L 74.07223 408.753301 
L 74.497897 401.036555 
L 74.923564 399.493206 
L 75.136398 399.493206 
L 75.349231 397.564019 
L 75.562065 397.178182 
L 75.987732 395.248995 
L 76.413399 392.933971 
L 77.264733 390.23311 
L 77.477566 390.23311 
L 77.6904 389.075598 
L 77.903233 388.689761 
L 78.116067 388.689761 
L 78.754567 387.532249 
L 79.393067 387.532249 
L 79.605901 387.146411 
L 79.818734 383.673876 
L 80.031568 383.673876 
L 80.244401 383.288038 
L 80.457235 383.288038 
L 80.670068 382.902201 
L 80.882902 382.902201 
L 81.734236 379.815502 
L 82.159903 376.342967 
L 82.372736 375.185455 
L 82.58557 375.185455 
L 82.798403 374.027943 
L 83.011237 374.027943 
L 83.436904 373.256268 
L 83.649737 369.783732 
L 83.86257 369.397895 
L 84.075404 369.397895 
L 84.288237 369.012057 
L 84.501071 369.012057 
L 84.713904 368.62622 
L 84.926738 366.697033 
L 85.139571 365.925359 
L 85.352405 365.925359 
L 85.565238 365.153684 
L 85.990905 365.153684 
L 86.203739 364.767847 
L 87.267906 364.767847 
L 87.693573 363.996172 
L 88.332074 360.909474 
L 88.544907 356.279426 
L 88.970574 356.279426 
L 89.183408 355.893589 
L 89.396241 355.893589 
L 89.609074 355.507751 
L 89.821908 355.507751 
L 90.034741 353.578565 
L 90.247575 352.80689 
L 90.673242 352.80689 
L 90.886075 352.421053 
L 91.524576 352.421053 
L 92.37591 348.176842 
L 92.588743 347.791005 
L 93.227244 347.791005 
L 93.440077 347.405167 
L 93.652911 346.633493 
L 94.929911 346.633493 
L 95.142745 346.247656 
L 95.355578 340.074258 
L 95.568412 338.530909 
L 96.632579 338.530909 
L 96.845413 333.900861 
L 97.058246 333.900861 
L 97.27108 330.042488 
L 97.696747 330.042488 
L 97.90958 329.656651 
L 98.122414 329.656651 
L 98.335247 329.270813 
L 98.548081 329.270813 
L 98.760914 320.782392 
L 98.973748 320.396555 
L 99.399415 319.239043 
L 100.037915 319.239043 
L 100.250749 315.38067 
L 100.463582 315.38067 
L 100.889249 314.608995 
L 102.80475 314.608995 
L 103.230417 313.451483 
L 103.443251 307.278086 
L 103.656084 306.892249 
L 104.294585 306.892249 
L 104.507418 306.120574 
L 108.764088 306.120574 
L 109.189755 305.3489 
L 109.828255 305.3489 
L 110.041089 304.963062 
L 110.253922 304.963062 
L 110.679589 303.80555 
L 111.743756 303.80555 
L 111.95659 303.033876 
L 112.169423 303.033876 
L 112.59509 302.262201 
L 113.659258 302.262201 
L 113.872091 301.876364 
L 115.361926 301.876364 
L 115.574759 301.490526 
L 116.638927 301.490526 
L 116.85176 301.104689 
L 118.128761 301.104689 
L 118.341594 299.947177 
L 118.767261 299.947177 
L 118.980095 298.789665 
L 119.405762 298.789665 
L 119.831429 297.246316 
L 120.469929 297.246316 
L 120.682763 294.545455 
L 120.895596 294.159617 
L 121.10843 294.159617 
L 121.74693 293.002105 
L 121.959764 293.002105 
L 122.172597 287.214545 
L 122.385431 287.214545 
L 122.598264 286.828708 
L 123.875265 286.828708 
L 124.088098 286.442871 
L 124.513765 286.442871 
L 124.726599 286.057033 
L 125.365099 286.057033 
L 125.577933 285.285359 
L 126.429267 285.285359 
L 126.854934 284.127847 
L 127.067767 282.19866 
L 127.493434 282.19866 
L 127.706268 281.426986 
L 127.919101 281.426986 
L 128.131935 281.041148 
L 128.983268 278.340287 
L 130.260269 278.340287 
L 131.111603 275.639426 
L 133.452772 275.639426 
L 133.665605 275.253589 
L 136.43244 275.253589 
L 136.645274 274.867751 
L 137.709441 274.867751 
L 137.922275 274.481914 
L 138.986442 274.481914 
L 139.199276 273.710239 
L 139.624942 273.710239 
L 140.050609 272.938565 
L 140.263443 272.938565 
L 140.476276 272.16689 
L 141.114777 272.16689 
L 141.32761 271.781053 
L 141.966111 271.781053 
L 142.178944 270.623541 
L 145.58428 270.623541 
L 145.797113 270.237703 
L 146.648447 270.237703 
L 147.286948 268.308517 
L 149.202449 268.308517 
L 149.415283 267.922679 
L 150.053783 267.922679 
L 150.266617 267.536842 
L 150.47945 267.536842 
L 150.692283 267.151005 
L 151.330784 267.151005 
L 151.756451 266.37933 
L 151.969284 266.37933 
L 152.182118 265.993493 
L 153.459119 265.993493 
L 153.671952 265.607656 
L 153.884786 265.607656 
L 154.097619 263.678469 
L 154.310453 263.678469 
L 154.523286 263.292632 
L 154.73612 263.292632 
L 154.948953 262.520957 
L 155.37462 262.520957 
L 155.587454 262.13512 
L 156.438787 262.13512 
L 156.651621 261.363445 
L 157.077288 261.363445 
L 157.290121 260.59177 
L 157.502955 260.59177 
L 157.715788 260.205933 
L 158.354289 260.205933 
L 158.567122 259.820096 
L 158.992789 259.820096 
L 159.205623 257.505072 
L 159.844123 256.34756 
L 160.056957 255.575885 
L 160.26979 255.575885 
L 160.695457 254.804211 
L 161.121124 254.804211 
L 161.333958 253.260861 
L 161.759624 253.260861 
L 161.972458 252.875024 
L 162.398125 252.875024 
L 162.823792 251.717512 
L 163.036625 251.331675 
L 163.462292 248.244976 
L 163.675126 248.244976 
L 163.887959 247.473301 
L 164.313626 247.473301 
L 164.52646 246.701627 
L 164.739293 246.701627 
L 164.952127 244.77244 
L 165.16496 244.386603 
L 165.377794 244.386603 
L 165.590627 243.614928 
L 165.803461 243.614928 
L 166.016294 242.071579 
L 166.441961 242.071579 
L 166.867628 239.756555 
L 167.080461 237.827368 
L 167.931795 236.284019 
L 168.357462 236.284019 
L 168.783129 235.512344 
L 168.995963 234.74067 
L 169.42163 234.74067 
L 169.847297 233.583158 
L 170.06013 233.197321 
L 170.272964 233.197321 
L 170.911464 231.268134 
L 171.124298 231.268134 
L 171.762798 229.338947 
L 171.975632 228.95311 
L 172.401299 228.95311 
L 172.614132 228.181435 
L 172.826965 228.181435 
L 173.039799 227.795598 
L 173.252632 227.795598 
L 173.678299 227.023923 
L 173.891133 227.023923 
L 174.3168 226.252249 
L 174.742467 226.252249 
L 174.9553 225.866411 
L 175.380967 225.866411 
L 175.593801 225.480574 
L 175.806634 224.7089 
L 176.019468 224.7089 
L 176.232301 224.323062 
L 176.445135 224.323062 
L 176.657968 223.551388 
L 181.553138 223.551388 
L 181.765972 223.16555 
L 181.978805 223.16555 
L 182.191639 222.779713 
L 182.617306 222.779713 
L 183.042973 222.008038 
L 183.46864 222.008038 
L 183.681473 221.622201 
L 184.319973 221.622201 
L 184.74564 220.078852 
L 185.171307 220.078852 
L 185.384141 219.693014 
L 187.299642 219.693014 
L 187.512476 219.307177 
L 187.725309 219.307177 
L 187.938143 218.92134 
L 188.576643 218.92134 
L 188.789477 218.535502 
L 189.64081 218.535502 
L 189.853644 217.763828 
L 190.066477 217.763828 
L 190.279311 216.992153 
L 191.130645 216.992153 
L 191.343478 216.606316 
L 191.556312 216.606316 
L 191.981979 215.834641 
L 193.046146 215.834641 
L 193.25898 215.448804 
L 193.684647 215.448804 
L 193.89748 213.13378 
L 194.110314 213.13378 
L 194.323147 211.204593 
L 194.535981 207.732057 
L 194.748814 201.55866 
L 194.961647 201.55866 
L 195.174481 197.31445 
L 195.387314 196.542775 
L 195.600148 191.141053 
L 195.812981 191.141053 
L 196.025815 188.054354 
L 196.451482 188.054354 
L 196.664315 184.967656 
L 197.089982 184.195981 
L 197.302816 181.880957 
L 197.515649 181.49512 
L 197.728483 179.95177 
L 197.941316 179.565933 
L 198.15415 178.022584 
L 198.579817 171.463349 
L 198.79265 171.077512 
L 199.218317 171.077512 
L 199.431151 169.534163 
L 199.643984 169.534163 
L 199.856818 166.833301 
L 200.069651 166.447464 
L 200.282485 166.447464 
L 200.495318 164.904115 
L 200.708151 164.904115 
L 201.346652 162.589091 
L 201.772319 162.589091 
L 202.197986 161.431579 
L 202.410819 161.045742 
L 202.623653 161.045742 
L 202.836486 160.274067 
L 203.262153 160.274067 
L 203.474987 159.88823 
L 204.113487 159.88823 
L 204.326321 157.573206 
L 204.964821 157.573206 
L 205.177655 156.415694 
L 205.816155 156.415694 
L 206.028988 156.029856 
L 206.241822 156.029856 
L 206.667489 153.714833 
L 206.880322 152.943158 
L 207.305989 152.943158 
L 207.518823 152.171483 
L 207.731656 149.084785 
L 208.370157 147.155598 
L 208.58299 147.155598 
L 209.008657 145.612249 
L 209.434324 145.612249 
L 209.647158 145.226411 
L 209.859991 145.226411 
L 210.072825 144.840574 
L 211.349826 144.840574 
L 211.562659 144.454737 
L 211.988326 144.454737 
L 212.201159 144.0689 
L 214.329494 144.0689 
L 214.542328 143.683062 
L 214.755161 143.683062 
L 214.967995 142.911388 
L 215.393662 142.911388 
L 215.606495 142.52555 
L 217.521996 142.52555 
L 217.73483 142.139713 
L 219.011831 142.139713 
L 219.224664 141.753876 
L 221.778666 141.753876 
L 222.204333 140.210526 
L 222.63 140.210526 
L 222.842833 139.824689 
L 223.481334 139.824689 
L 223.907001 139.053014 
L 224.971168 139.053014 
L 225.184002 138.667177 
L 225.609669 138.667177 
L 225.822502 138.28134 
L 226.035336 138.28134 
L 226.248169 137.895502 
L 228.163671 137.895502 
L 228.376504 137.509665 
L 232.207507 137.509665 
L 232.42034 136.73799 
L 233.271674 136.73799 
L 233.484508 136.352153 
L 237.102677 136.352153 
L 237.31551 135.966316 
L 238.166844 135.966316 
L 238.379678 135.580478 
L 238.592511 135.580478 
L 238.805345 135.194641 
L 240.295179 135.194641 
L 240.508012 134.422967 
L 241.785013 134.422967 
L 241.997847 134.037129 
L 245.616016 134.037129 
L 245.828849 132.49378 
L 249.021352 132.49378 
L 249.234185 129.021244 
L 249.659852 129.021244 
L 249.872686 128.635407 
L 251.575353 128.635407 
L 251.788187 127.863732 
L 254.129355 127.863732 
L 254.342189 126.320383 
L 254.555022 125.934545 
L 255.406356 125.934545 
L 255.61919 125.548708 
L 256.044856 125.548708 
L 256.25769 125.162871 
L 257.747524 125.162871 
L 257.960358 124.777033 
L 259.024525 124.777033 
L 259.237359 124.391196 
L 262.004194 124.391196 
L 262.217027 124.005359 
L 263.068361 124.005359 
L 263.281195 123.233684 
L 264.132529 123.233684 
L 264.345362 122.847847 
L 264.558196 120.532823 
L 264.983863 118.989474 
L 265.196696 118.989474 
L 265.40953 117.831962 
L 265.622363 117.831962 
L 266.04803 117.060287 
L 269.879033 117.060287 
L 270.091866 116.67445 
L 271.368867 116.67445 
L 271.581701 116.288612 
L 272.007368 116.288612 
L 272.220201 115.902775 
L 275.19987 115.902775 
L 275.412703 115.516938 
L 278.392372 115.516938 
L 278.605205 115.1311 
L 289.24688 115.1311 
L 289.459713 114.745263 
L 290.311047 114.745263 
L 290.52388 113.973589 
L 290.736714 113.973589 
L 290.949547 113.201914 
L 291.375214 113.201914 
L 291.588048 112.816077 
L 293.929216 112.816077 
L 294.14205 112.430239 
L 294.78055 112.430239 
L 294.993383 112.044402 
L 296.057551 112.044402 
L 296.270384 111.658565 
L 296.696051 111.658565 
L 296.908885 111.272727 
L 299.250053 111.272727 
L 299.888554 110.115215 
L 301.165554 110.115215 
L 301.378388 108.957703 
L 302.016888 108.957703 
L 302.229722 108.571866 
L 302.442555 108.571866 
L 302.655389 108.186029 
L 302.868222 108.186029 
L 303.081056 107.800191 
L 303.506723 107.800191 
L 303.719556 107.414354 
L 303.93239 106.642679 
L 304.57089 106.642679 
L 304.783724 106.256842 
L 304.996557 106.256842 
L 305.209391 105.871005 
L 305.635058 105.871005 
L 305.847891 105.485167 
L 306.060724 103.555981 
L 306.273558 103.555981 
L 306.486391 103.170144 
L 307.337725 103.170144 
L 307.550559 102.398469 
L 313.935563 102.398469 
L 314.148397 102.012632 
L 314.574064 102.012632 
L 314.786897 101.240957 
L 325.002904 101.240957 
L 325.215738 100.85512 
L 333.090577 100.85512 
L 333.30341 99.697608 
L 333.516244 99.31177 
L 335.006078 99.31177 
L 335.218911 98.925933 
L 342.029583 98.925933 
L 342.242416 98.154258 
L 342.45525 93.524211 
L 342.668083 92.752536 
L 346.711919 92.752536 
L 346.924753 92.366699 
L 347.35042 92.366699 
L 347.776087 90.437512 
L 353.309757 90.437512 
L 353.522591 90.051675 
L 357.566427 90.051675 
L 357.77926 89.665837 
L 364.377098 89.665837 
L 364.589932 89.28 
L 375.657273 89.28 
L 375.657273 89.28 
" clip-path="url(#p0c98db9317)" style="fill: none; stroke: #c957db; stroke-width: 1.2; stroke-linecap: round"/>
   </g>
   <g id="line2d_36"/>
   <g id="line2d_37"/>
   <g id="line2d_38"/>
   <g id="line2d_39"/>
   <g id="line2d_40"/>
   <g id="patch_3">
    <path d="M 54.3 512.64 
L 54.3 69.12 
" style="fill: none; stroke: #cccccc; stroke-linejoin: miter; stroke-linecap: square"/>
   </g>
   <g id="patch_4">
    <path d="M 54.3 512.64 
L 390.96 512.64 
" style="fill: none; stroke: #cccccc; stroke-linejoin: miter; stroke-linecap: square"/>
   </g>
   <g id="text_33">
    <!-- Edge Coverage History -->
    <g style="fill: #262626" transform="translate(115.738512 63.12)scale(0.165888 -0.165888)">
     <defs>
      <path id="DejaVuSans-Bold-45" d="M 588 4666 
L 3834 4666 
L 3834 3756 
L 1791 3756 
L 1791 2888 
L 3713 2888 
L 3713 1978 
L 1791 1978 
L 1791 909 
L 3903 909 
L 3903 0 
L 588 0 
L 588 4666 
z
" transform="scale(0.015625)"/>
      <path id="DejaVuSans-Bold-64" d="M 2919 2988 
L 2919 4863 
L 4044 4863 
L 4044 0 
L 2919 0 
L 2919 506 
Q 2688 197 2409 53 
Q 2131 -91 1766 -91 
Q 1119 -91 703 423 
Q 288 938 288 1747 
Q 288 2556 703 3070 
Q 1119 3584 1766 3584 
Q 2128 3584 2408 3439 
Q 2688 3294 2919 2988 
z
M 2181 722 
Q 2541 722 2730 984 
Q 2919 1247 2919 1747 
Q 2919 2247 2730 2509 
Q 2541 2772 2181 2772 
Q 1825 2772 1636 2509 
Q 1447 2247 1447 1747 
Q 1447 1247 1636 984 
Q 1825 722 2181 722 
z
" transform="scale(0.015625)"/>
      <path id="DejaVuSans-Bold-67" d="M 2919 594 
Q 2688 288 2409 144 
Q 2131 0 1766 0 
Q 1125 0 706 504 
Q 288 1009 288 1791 
Q 288 2575 706 3076 
Q 1125 3578 1766 3578 
Q 2131 3578 2409 3434 
Q 2688 3291 2919 2981 
L 2919 3500 
L 4044 3500 
L 4044 353 
Q 4044 -491 3511 -936 
Q 2978 -1381 1966 -1381 
Q 1638 -1381 1331 -1331 
Q 1025 -1281 716 -1178 
L 716 -306 
Q 1009 -475 1290 -558 
Q 1572 -641 1856 -641 
Q 2406 -641 2662 -400 
Q 2919 -159 2919 353 
L 2919 594 
z
M 2181 2772 
Q 1834 2772 1640 2515 
Q 1447 2259 1447 1791 
Q 1447 1309 1634 1061 
Q 1822 813 2181 813 
Q 2531 813 2725 1069 
Q 2919 1325 2919 1791 
Q 2919 2259 2725 2515 
Q 2531 2772 2181 2772 
z
" transform="scale(0.015625)"/>
      <path id="DejaVuSans-Bold-65" d="M 4031 1759 
L 4031 1441 
L 1416 1441 
Q 1456 1047 1700 850 
Q 1944 653 2381 653 
Q 2734 653 3104 758 
Q 3475 863 3866 1075 
L 3866 213 
Q 3469 63 3072 -14 
Q 2675 -91 2278 -91 
Q 1328 -91 801 392 
Q 275 875 275 1747 
Q 275 2603 792 3093 
Q 1309 3584 2216 3584 
Q 3041 3584 3536 3087 
Q 4031 2591 4031 1759 
z
M 2881 2131 
Q 2881 2450 2695 2645 
Q 2509 2841 2209 2841 
Q 1884 2841 1681 2658 
Q 1478 2475 1428 2131 
L 2881 2131 
z
" transform="scale(0.015625)"/>
      <path id="DejaVuSans-Bold-20" transform="scale(0.015625)"/>
      <path id="DejaVuSans-Bold-43" d="M 4288 256 
Q 3956 84 3597 -3 
Q 3238 -91 2847 -91 
Q 1681 -91 1000 561 
Q 319 1213 319 2328 
Q 319 3447 1000 4098 
Q 1681 4750 2847 4750 
Q 3238 4750 3597 4662 
Q 3956 4575 4288 4403 
L 4288 3438 
Q 3953 3666 3628 3772 
Q 3303 3878 2944 3878 
Q 2300 3878 1931 3465 
Q 1563 3053 1563 2328 
Q 1563 1606 1931 1193 
Q 2300 781 2944 781 
Q 3303 781 3628 887 
Q 3953 994 4288 1222 
L 4288 256 
z
" transform="scale(0.015625)"/>
      <path id="DejaVuSans-Bold-6f" d="M 2203 2784 
Q 1831 2784 1636 2517 
Q 1441 2250 1441 1747 
Q 1441 1244 1636 976 
Q 1831 709 2203 709 
Q 2569 709 2762 976 
Q 2956 1244 2956 1747 
Q 2956 2250 2762 2517 
Q 2569 2784 2203 2784 
z
M 2203 3584 
Q 3106 3584 3614 3096 
Q 4122 2609 4122 1747 
Q 4122 884 3614 396 
Q 3106 -91 2203 -91 
Q 1297 -91 786 396 
Q 275 884 275 1747 
Q 275 2609 786 3096 
Q 1297 3584 2203 3584 
z
" transform="scale(0.015625)"/>
      <path id="DejaVuSans-Bold-76" d="M 97 3500 
L 1216 3500 
L 2088 1081 
L 2956 3500 
L 4078 3500 
L 2700 0 
L 1472 0 
L 97 3500 
z
" transform="scale(0.015625)"/>
      <path id="DejaVuSans-Bold-72" d="M 3138 2547 
Q 2991 2616 2845 2648 
Q 2700 2681 2553 2681 
Q 2122 2681 1889 2404 
Q 1656 2128 1656 1613 
L 1656 0 
L 538 0 
L 538 3500 
L 1656 3500 
L 1656 2925 
Q 1872 3269 2151 3426 
Q 2431 3584 2822 3584 
Q 2878 3584 2943 3579 
Q 3009 3575 3134 3559 
L 3138 2547 
z
" transform="scale(0.015625)"/>
      <path id="DejaVuSans-Bold-61" d="M 2106 1575 
Q 1756 1575 1579 1456 
Q 1403 1338 1403 1106 
Q 1403 894 1545 773 
Q 1688 653 1941 653 
Q 2256 653 2472 879 
Q 2688 1106 2688 1447 
L 2688 1575 
L 2106 1575 
z
M 3816 1997 
L 3816 0 
L 2688 0 
L 2688 519 
Q 2463 200 2181 54 
Q 1900 -91 1497 -91 
Q 953 -91 614 226 
Q 275 544 275 1050 
Q 275 1666 698 1953 
Q 1122 2241 2028 2241 
L 2688 2241 
L 2688 2328 
Q 2688 2594 2478 2717 
Q 2269 2841 1825 2841 
Q 1466 2841 1156 2769 
Q 847 2697 581 2553 
L 581 3406 
Q 941 3494 1303 3539 
Q 1666 3584 2028 3584 
Q 2975 3584 3395 3211 
Q 3816 2838 3816 1997 
z
" transform="scale(0.015625)"/>
      <path id="DejaVuSans-Bold-48" d="M 588 4666 
L 1791 4666 
L 1791 2888 
L 3566 2888 
L 3566 4666 
L 4769 4666 
L 4769 0 
L 3566 0 
L 3566 1978 
L 1791 1978 
L 1791 0 
L 588 0 
L 588 4666 
z
" transform="scale(0.015625)"/>
      <path id="DejaVuSans-Bold-69" d="M 538 3500 
L 1656 3500 
L 1656 0 
L 538 0 
L 538 3500 
z
M 538 4863 
L 1656 4863 
L 1656 3950 
L 538 3950 
L 538 4863 
z
" transform="scale(0.015625)"/>
      <path id="DejaVuSans-Bold-73" d="M 3272 3391 
L 3272 2541 
Q 2913 2691 2578 2766 
Q 2244 2841 1947 2841 
Q 1628 2841 1473 2761 
Q 1319 2681 1319 2516 
Q 1319 2381 1436 2309 
Q 1553 2238 1856 2203 
L 2053 2175 
Q 2913 2066 3209 1816 
Q 3506 1566 3506 1031 
Q 3506 472 3093 190 
Q 2681 -91 1863 -91 
Q 1516 -91 1145 -36 
Q 775 19 384 128 
L 384 978 
Q 719 816 1070 734 
Q 1422 653 1784 653 
Q 2113 653 2278 743 
Q 2444 834 2444 1013 
Q 2444 1163 2330 1236 
Q 2216 1309 1875 1350 
L 1678 1375 
Q 931 1469 631 1722 
Q 331 1975 331 2491 
Q 331 3047 712 3315 
Q 1094 3584 1881 3584 
Q 2191 3584 2531 3537 
Q 2872 3491 3272 3391 
z
" transform="scale(0.015625)"/>
      <path id="DejaVuSans-Bold-74" d="M 1759 4494 
L 1759 3500 
L 2913 3500 
L 2913 2700 
L 1759 2700 
L 1759 1216 
Q 1759 972 1856 886 
Q 1953 800 2241 800 
L 2816 800 
L 2816 0 
L 1856 0 
Q 1194 0 917 276 
Q 641 553 641 1216 
L 641 2700 
L 84 2700 
L 84 3500 
L 641 3500 
L 641 4494 
L 1759 4494 
z
" transform="scale(0.015625)"/>
      <path id="DejaVuSans-Bold-79" d="M 78 3500 
L 1197 3500 
L 2138 1125 
L 2938 3500 
L 4056 3500 
L 2584 -331 
Q 2363 -916 2067 -1148 
Q 1772 -1381 1288 -1381 
L 641 -1381 
L 641 -647 
L 991 -647 
Q 1275 -647 1404 -556 
Q 1534 -466 1606 -231 
L 1638 -134 
L 78 3500 
z
" transform="scale(0.015625)"/>
     </defs>
     <use xlink:href="#DejaVuSans-Bold-45"/>
     <use xlink:href="#DejaVuSans-Bold-64" x="68.310547"/>
     <use xlink:href="#DejaVuSans-Bold-67" x="139.892578"/>
     <use xlink:href="#DejaVuSans-Bold-65" x="211.474609"/>
     <use xlink:href="#DejaVuSans-Bold-20" x="279.296875"/>
     <use xlink:href="#DejaVuSans-Bold-43" x="314.111328"/>
     <use xlink:href="#DejaVuSans-Bold-6f" x="387.5"/>
     <use xlink:href="#DejaVuSans-Bold-76" x="456.201172"/>
     <use xlink:href="#DejaVuSans-Bold-65" x="521.386719"/>
     <use xlink:href="#DejaVuSans-Bold-72" x="589.208984"/>
     <use xlink:href="#DejaVuSans-Bold-61" x="638.525391"/>
     <use xlink:href="#DejaVuSans-Bold-67" x="706.005859"/>
     <use xlink:href="#DejaVuSans-Bold-65" x="777.587891"/>
     <use xlink:href="#DejaVuSans-Bold-20" x="845.410156"/>
     <use xlink:href="#DejaVuSans-Bold-48" x="880.224609"/>
     <use xlink:href="#DejaVuSans-Bold-69" x="963.916016"/>
     <use xlink:href="#DejaVuSans-Bold-73" x="998.193359"/>
     <use xlink:href="#DejaVuSans-Bold-74" x="1057.714844"/>
     <use xlink:href="#DejaVuSans-Bold-6f" x="1105.517578"/>
     <use xlink:href="#DejaVuSans-Bold-72" x="1174.21875"/>
     <use xlink:href="#DejaVuSans-Bold-79" x="1223.535156"/>
    </g>
   </g>
   <g id="legend_1">
    <g id="patch_5">
     <path d="M 60.46 154.6795 
L 171.989 154.6795 
Q 173.749 154.6795 173.749 152.9195 
L 173.749 75.28 
Q 173.749 73.52 171.989 73.52 
L 60.46 73.52 
Q 58.7 73.52 58.7 75.28 
L 58.7 152.9195 
Q 58.7 154.6795 60.46 154.6795 
z
" style="fill: #ffffff; opacity: 0.8; stroke: #cccccc; stroke-width: 0.8; stroke-linejoin: miter"/>
    </g>
    <g id="text_34">
     <!-- fuzzer -->
     <g style="fill: #262626" transform="translate(101.5275 84.3345)scale(0.096 -0.096)">
      <defs>
       <path id="DejaVuSans-66" d="M 2375 4863 
L 2375 4384 
L 1825 4384 
Q 1516 4384 1395 4259 
Q 1275 4134 1275 3809 
L 1275 3500 
L 2222 3500 
L 2222 3053 
L 1275 3053 
L 1275 0 
L 697 0 
L 697 3053 
L 147 3053 
L 147 3500 
L 697 3500 
L 697 3744 
Q 697 4328 969 4595 
Q 1241 4863 1831 4863 
L 2375 4863 
z
" transform="scale(0.015625)"/>
       <path id="DejaVuSans-7a" d="M 353 3500 
L 3084 3500 
L 3084 2975 
L 922 459 
L 3084 459 
L 3084 0 
L 275 0 
L 275 525 
L 2438 3041 
L 353 3041 
L 353 3500 
z
" transform="scale(0.015625)"/>
      </defs>
      <use xlink:href="#DejaVuSans-66"/>
      <use xlink:href="#DejaVuSans-75" x="35.205078"/>
      <use xlink:href="#DejaVuSans-7a" x="98.583984"/>
      <use xlink:href="#DejaVuSans-7a" x="151.074219"/>
      <use xlink:href="#DejaVuSans-65" x="203.564453"/>
      <use xlink:href="#DejaVuSans-72" x="265.087891"/>
     </g>
    </g>
    <g id="line2d_41">
     <path d="M 62.22 94.337625 
L 71.02 94.337625 
L 79.82 94.337625 
" style="fill: none; stroke: #db5f57; stroke-width: 1.2; stroke-linecap: round"/>
    </g>
    <g id="text_35">
     <!-- symcc-0-exid4 -->
     <g style="fill: #262626" transform="translate(86.86 97.417625)scale(0.088 -0.088)">
      <defs>
       <path id="DejaVuSans-79" d="M 2059 -325 
Q 1816 -950 1584 -1140 
Q 1353 -1331 966 -1331 
L 506 -1331 
L 506 -850 
L 844 -850 
Q 1081 -850 1212 -737 
Q 1344 -625 1503 -206 
L 1606 56 
L 191 3500 
L 800 3500 
L 1894 763 
L 2988 3500 
L 3597 3500 
L 2059 -325 
z
" transform="scale(0.015625)"/>
       <path id="DejaVuSans-63" d="M 3122 3366 
L 3122 2828 
Q 2878 2963 2633 3030 
Q 2388 3097 2138 3097 
Q 1578 3097 1268 2742 
Q 959 2388 959 1747 
Q 959 1106 1268 751 
Q 1578 397 2138 397 
Q 2388 397 2633 464 
Q 2878 531 3122 666 
L 3122 134 
Q 2881 22 2623 -34 
Q 2366 -91 2075 -91 
Q 1284 -91 818 406 
Q 353 903 353 1747 
Q 353 2603 823 3093 
Q 1294 3584 2113 3584 
Q 2378 3584 2631 3529 
Q 2884 3475 3122 3366 
z
" transform="scale(0.015625)"/>
       <path id="DejaVuSans-2d" d="M 313 2009 
L 1997 2009 
L 1997 1497 
L 313 1497 
L 313 2009 
z
" transform="scale(0.015625)"/>
       <path id="DejaVuSans-78" d="M 3513 3500 
L 2247 1797 
L 3578 0 
L 2900 0 
L 1881 1375 
L 863 0 
L 184 0 
L 1544 1831 
L 300 3500 
L 978 3500 
L 1906 2253 
L 2834 3500 
L 3513 3500 
z
" transform="scale(0.015625)"/>
      </defs>
      <use xlink:href="#DejaVuSans-73"/>
      <use xlink:href="#DejaVuSans-79" x="52.099609"/>
      <use xlink:href="#DejaVuSans-6d" x="111.279297"/>
      <use xlink:href="#DejaVuSans-63" x="208.691406"/>
      <use xlink:href="#DejaVuSans-63" x="263.671875"/>
      <use xlink:href="#DejaVuSans-2d" x="318.652344"/>
      <use xlink:href="#DejaVuSans-30" x="354.736328"/>
      <use xlink:href="#DejaVuSans-2d" x="418.359375"/>
      <use xlink:href="#DejaVuSans-65" x="454.443359"/>
      <use xlink:href="#DejaVuSans-78" x="514.216797"/>
      <use xlink:href="#DejaVuSans-69" x="573.396484"/>
      <use xlink:href="#DejaVuSans-64" x="601.179688"/>
      <use xlink:href="#DejaVuSans-34" x="664.65625"/>
     </g>
    </g>
    <g id="line2d_42">
     <path d="M 62.22 107.254375 
L 71.02 107.254375 
L 79.82 107.254375 
" style="fill: none; stroke: #b9db57; stroke-width: 1.2; stroke-linecap: round"/>
    </g>
    <g id="text_36">
     <!-- mopt-0-exid4 -->
     <g style="fill: #262626" transform="translate(86.86 110.334375)scale(0.088 -0.088)">
      <defs>
       <path id="DejaVuSans-70" d="M 1159 525 
L 1159 -1331 
L 581 -1331 
L 581 3500 
L 1159 3500 
L 1159 2969 
Q 1341 3281 1617 3432 
Q 1894 3584 2278 3584 
Q 2916 3584 3314 3078 
Q 3713 2572 3713 1747 
Q 3713 922 3314 415 
Q 2916 -91 2278 -91 
Q 1894 -91 1617 61 
Q 1341 213 1159 525 
z
M 3116 1747 
Q 3116 2381 2855 2742 
Q 2594 3103 2138 3103 
Q 1681 3103 1420 2742 
Q 1159 2381 1159 1747 
Q 1159 1113 1420 752 
Q 1681 391 2138 391 
Q 2594 391 2855 752 
Q 3116 1113 3116 1747 
z
" transform="scale(0.015625)"/>
      </defs>
      <use xlink:href="#DejaVuSans-6d"/>
      <use xlink:href="#DejaVuSans-6f" x="97.412109"/>
      <use xlink:href="#DejaVuSans-70" x="158.59375"/>
      <use xlink:href="#DejaVuSans-74" x="222.070312"/>
      <use xlink:href="#DejaVuSans-2d" x="261.279297"/>
      <use xlink:href="#DejaVuSans-30" x="297.363281"/>
      <use xlink:href="#DejaVuSans-2d" x="360.986328"/>
      <use xlink:href="#DejaVuSans-65" x="397.070312"/>
      <use xlink:href="#DejaVuSans-78" x="456.84375"/>
      <use xlink:href="#DejaVuSans-69" x="516.023438"/>
      <use xlink:href="#DejaVuSans-64" x="543.806641"/>
      <use xlink:href="#DejaVuSans-34" x="607.283203"/>
     </g>
    </g>
    <g id="line2d_43">
     <path d="M 62.22 120.171125 
L 71.02 120.171125 
L 79.82 120.171125 
" style="fill: none; stroke: #57db94; stroke-width: 1.2; stroke-linecap: round"/>
    </g>
    <g id="text_37">
     <!-- fairfuzz-0-exid4 -->
     <g style="fill: #262626" transform="translate(86.86 123.251125)scale(0.088 -0.088)">
      <use xlink:href="#DejaVuSans-66"/>
      <use xlink:href="#DejaVuSans-61" x="35.205078"/>
      <use xlink:href="#DejaVuSans-69" x="96.484375"/>
      <use xlink:href="#DejaVuSans-72" x="124.267578"/>
      <use xlink:href="#DejaVuSans-66" x="165.380859"/>
      <use xlink:href="#DejaVuSans-75" x="200.585938"/>
      <use xlink:href="#DejaVuSans-7a" x="263.964844"/>
      <use xlink:href="#DejaVuSans-7a" x="316.455078"/>
      <use xlink:href="#DejaVuSans-2d" x="368.945312"/>
      <use xlink:href="#DejaVuSans-30" x="405.029297"/>
      <use xlink:href="#DejaVuSans-2d" x="468.652344"/>
      <use xlink:href="#DejaVuSans-65" x="504.736328"/>
      <use xlink:href="#DejaVuSans-78" x="564.509766"/>
      <use xlink:href="#DejaVuSans-69" x="623.689453"/>
      <use xlink:href="#DejaVuSans-64" x="651.472656"/>
      <use xlink:href="#DejaVuSans-34" x="714.949219"/>
     </g>
    </g>
    <g id="line2d_44">
     <path d="M 62.22 133.087875 
L 71.02 133.087875 
L 79.82 133.087875 
" style="fill: none; stroke: #5784db; stroke-width: 1.2; stroke-linecap: round"/>
    </g>
    <g id="text_38">
     <!-- aflplusplus-0-exid4 -->
     <g style="fill: #262626" transform="translate(86.86 136.167875)scale(0.088 -0.088)">
      <defs>
       <path id="DejaVuSans-6c" d="M 603 4863 
L 1178 4863 
L 1178 0 
L 603 0 
L 603 4863 
z
" transform="scale(0.015625)"/>
      </defs>
      <use xlink:href="#DejaVuSans-61"/>
      <use xlink:href="#DejaVuSans-66" x="61.279297"/>
      <use xlink:href="#DejaVuSans-6c" x="96.484375"/>
      <use xlink:href="#DejaVuSans-70" x="124.267578"/>
      <use xlink:href="#DejaVuSans-6c" x="187.744141"/>
      <use xlink:href="#DejaVuSans-75" x="215.527344"/>
      <use xlink:href="#DejaVuSans-73" x="278.90625"/>
      <use xlink:href="#DejaVuSans-70" x="331.005859"/>
      <use xlink:href="#DejaVuSans-6c" x="394.482422"/>
      <use xlink:href="#DejaVuSans-75" x="422.265625"/>
      <use xlink:href="#DejaVuSans-73" x="485.644531"/>
      <use xlink:href="#DejaVuSans-2d" x="537.744141"/>
      <use xlink:href="#DejaVuSans-30" x="573.828125"/>
      <use xlink:href="#DejaVuSans-2d" x="637.451172"/>
      <use xlink:href="#DejaVuSans-65" x="673.535156"/>
      <use xlink:href="#DejaVuSans-78" x="733.308594"/>
      <use xlink:href="#DejaVuSans-69" x="792.488281"/>
      <use xlink:href="#DejaVuSans-64" x="820.271484"/>
      <use xlink:href="#DejaVuSans-34" x="883.748047"/>
     </g>
    </g>
    <g id="line2d_45">
     <path d="M 62.22 146.004625 
L 71.02 146.004625 
L 79.82 146.004625 
" style="fill: none; stroke: #c957db; stroke-width: 1.2; stroke-linecap: round"/>
    </g>
    <g id="text_39">
     <!-- fuzzer_global -->
     <g style="fill: #262626" transform="translate(86.86 149.084625)scale(0.088 -0.088)">
      <defs>
       <path id="DejaVuSans-5f" d="M 3263 -1063 
L 3263 -1509 
L -63 -1509 
L -63 -1063 
L 3263 -1063 
z
" transform="scale(0.015625)"/>
       <path id="DejaVuSans-62" d="M 3116 1747 
Q 3116 2381 2855 2742 
Q 2594 3103 2138 3103 
Q 1681 3103 1420 2742 
Q 1159 2381 1159 1747 
Q 1159 1113 1420 752 
Q 1681 391 2138 391 
Q 2594 391 2855 752 
Q 3116 1113 3116 1747 
z
M 1159 2969 
Q 1341 3281 1617 3432 
Q 1894 3584 2278 3584 
Q 2916 3584 3314 3078 
Q 3713 2572 3713 1747 
Q 3713 922 3314 415 
Q 2916 -91 2278 -91 
Q 1894 -91 1617 61 
Q 1341 213 1159 525 
L 1159 0 
L 581 0 
L 581 4863 
L 1159 4863 
L 1159 2969 
z
" transform="scale(0.015625)"/>
      </defs>
      <use xlink:href="#DejaVuSans-66"/>
      <use xlink:href="#DejaVuSans-75" x="35.205078"/>
      <use xlink:href="#DejaVuSans-7a" x="98.583984"/>
      <use xlink:href="#DejaVuSans-7a" x="151.074219"/>
      <use xlink:href="#DejaVuSans-65" x="203.564453"/>
      <use xlink:href="#DejaVuSans-72" x="265.087891"/>
      <use xlink:href="#DejaVuSans-5f" x="306.201172"/>
      <use xlink:href="#DejaVuSans-67" x="356.201172"/>
      <use xlink:href="#DejaVuSans-6c" x="419.677734"/>
      <use xlink:href="#DejaVuSans-6f" x="447.460938"/>
      <use xlink:href="#DejaVuSans-62" x="508.642578"/>
      <use xlink:href="#DejaVuSans-61" x="572.119141"/>
      <use xlink:href="#DejaVuSans-6c" x="633.398438"/>
     </g>
    </g>
   </g>
  </g>
 </g>
 <defs>
  <clipPath id="p0c98db9317">
   <rect x="54.3" y="69.12" width="336.66" height="443.52"/>
  </clipPath>
 </defs>
</svg>
