<?xml version="1.0" encoding="utf-8" standalone="no"?>
<!DOCTYPE svg PUBLIC "-//W3C//DTD SVG 1.1//EN"
  "http://www.w3.org/Graphics/SVG/1.1/DTD/svg11.dtd">
<svg xmlns:xlink="http://www.w3.org/1999/xlink" width="434.7pt" height="576pt" viewBox="0 0 434.7 576" xmlns="http://www.w3.org/2000/svg" version="1.1">
 <metadata>
  <rdf:RDF xmlns:dc="http://purl.org/dc/elements/1.1/" xmlns:cc="http://creativecommons.org/ns#" xmlns:rdf="http://www.w3.org/1999/02/22-rdf-syntax-ns#">
   <cc:Work>
    <dc:type rdf:resource="http://purl.org/dc/dcmitype/StillImage"/>
    <dc:date>2022-09-15T10:12:04.829756</dc:date>
    <dc:format>image/svg+xml</dc:format>
    <dc:creator>
     <cc:Agent>
      <dc:title>Matplotlib v3.5.3, https://matplotlib.org/</dc:title>
     </cc:Agent>
    </dc:creator>
   </cc:Work>
  </rdf:RDF>
 </metadata>
 <defs>
  <style type="text/css">*{stroke-linejoin: round; stroke-linecap: butt}</style>
 </defs>
 <g id="figure_1">
  <g id="patch_1">
   <path d="M 0 576 
L 434.7 576 
L 434.7 0 
L 0 0 
z
" style="fill: #ffffff"/>
  </g>
  <g id="axes_1">
   <g id="patch_2">
    <path d="M 54.3375 512.64 
L 391.23 512.64 
L 391.23 69.12 
L 54.3375 69.12 
z
" style="fill: #ffffff"/>
   </g>
   <g id="matplotlib.axis_1">
    <g id="xtick_1">
     <g id="line2d_1">
      <path d="M 69.650795 512.64 
L 69.650795 69.12 
" clip-path="url(#p25dc6edd14)" style="fill: none; stroke: #cccccc; stroke-width: 0.8; stroke-linecap: round"/>
     </g>
     <g id="text_1">
      <!-- 0 -->
      <g style="fill: #262626" transform="translate(69.388282 529.627249)rotate(-45)scale(0.088 -0.088)">
       <defs>
        <path id="DejaVuSans-30" d="M 2034 4250 
Q 1547 4250 1301 3770 
Q 1056 3291 1056 2328 
Q 1056 1369 1301 889 
Q 1547 409 2034 409 
Q 2525 409 2770 889 
Q 3016 1369 3016 2328 
Q 3016 3291 2770 3770 
Q 2525 4250 2034 4250 
z
M 2034 4750 
Q 2819 4750 3233 4129 
Q 3647 3509 3647 2328 
Q 3647 1150 3233 529 
Q 2819 -91 2034 -91 
Q 1250 -91 836 529 
Q 422 1150 422 2328 
Q 422 3509 836 4129 
Q 1250 4750 2034 4750 
z
" transform="scale(0.015625)"/>
       </defs>
       <use xlink:href="#DejaVuSans-30"/>
      </g>
     </g>
    </g>
    <g id="xtick_2">
     <g id="line2d_2">
      <path d="M 86.677392 512.64 
L 86.677392 69.12 
" clip-path="url(#p25dc6edd14)" style="fill: none; stroke: #cccccc; stroke-width: 0.8; stroke-linecap: round"/>
     </g>
     <g id="text_2">
      <!-- 80 -->
      <g style="fill: #262626" transform="translate(84.435333 533.58634)rotate(-45)scale(0.088 -0.088)">
       <defs>
        <path id="DejaVuSans-38" d="M 2034 2216 
Q 1584 2216 1326 1975 
Q 1069 1734 1069 1313 
Q 1069 891 1326 650 
Q 1584 409 2034 409 
Q 2484 409 2743 651 
Q 3003 894 3003 1313 
Q 3003 1734 2745 1975 
Q 2488 2216 2034 2216 
z
M 1403 2484 
Q 997 2584 770 2862 
Q 544 3141 544 3541 
Q 544 4100 942 4425 
Q 1341 4750 2034 4750 
Q 2731 4750 3128 4425 
Q 3525 4100 3525 3541 
Q 3525 3141 3298 2862 
Q 3072 2584 2669 2484 
Q 3125 2378 3379 2068 
Q 3634 1759 3634 1313 
Q 3634 634 3220 271 
Q 2806 -91 2034 -91 
Q 1263 -91 848 271 
Q 434 634 434 1313 
Q 434 1759 690 2068 
Q 947 2378 1403 2484 
z
M 1172 3481 
Q 1172 3119 1398 2916 
Q 1625 2713 2034 2713 
Q 2441 2713 2670 2916 
Q 2900 3119 2900 3481 
Q 2900 3844 2670 4047 
Q 2441 4250 2034 4250 
Q 1625 4250 1398 4047 
Q 1172 3844 1172 3481 
z
" transform="scale(0.015625)"/>
       </defs>
       <use xlink:href="#DejaVuSans-38"/>
       <use xlink:href="#DejaVuSans-30" x="63.623047"/>
      </g>
     </g>
    </g>
    <g id="xtick_3">
     <g id="line2d_3">
      <path d="M 103.703989 512.64 
L 103.703989 69.12 
" clip-path="url(#p25dc6edd14)" style="fill: none; stroke: #cccccc; stroke-width: 0.8; stroke-linecap: round"/>
     </g>
     <g id="text_3">
      <!-- 160 -->
      <g style="fill: #262626" transform="translate(99.482385 537.54543)rotate(-45)scale(0.088 -0.088)">
       <defs>
        <path id="DejaVuSans-31" d="M 794 531 
L 1825 531 
L 1825 4091 
L 703 3866 
L 703 4441 
L 1819 4666 
L 2450 4666 
L 2450 531 
L 3481 531 
L 3481 0 
L 794 0 
L 794 531 
z
" transform="scale(0.015625)"/>
        <path id="DejaVuSans-36" d="M 2113 2584 
Q 1688 2584 1439 2293 
Q 1191 2003 1191 1497 
Q 1191 994 1439 701 
Q 1688 409 2113 409 
Q 2538 409 2786 701 
Q 3034 994 3034 1497 
Q 3034 2003 2786 2293 
Q 2538 2584 2113 2584 
z
M 3366 4563 
L 3366 3988 
Q 3128 4100 2886 4159 
Q 2644 4219 2406 4219 
Q 1781 4219 1451 3797 
Q 1122 3375 1075 2522 
Q 1259 2794 1537 2939 
Q 1816 3084 2150 3084 
Q 2853 3084 3261 2657 
Q 3669 2231 3669 1497 
Q 3669 778 3244 343 
Q 2819 -91 2113 -91 
Q 1303 -91 875 529 
Q 447 1150 447 2328 
Q 447 3434 972 4092 
Q 1497 4750 2381 4750 
Q 2619 4750 2861 4703 
Q 3103 4656 3366 4563 
z
" transform="scale(0.015625)"/>
       </defs>
       <use xlink:href="#DejaVuSans-31"/>
       <use xlink:href="#DejaVuSans-36" x="63.623047"/>
       <use xlink:href="#DejaVuSans-30" x="127.246094"/>
      </g>
     </g>
    </g>
    <g id="xtick_4">
     <g id="line2d_4">
      <path d="M 120.730586 512.64 
L 120.730586 69.12 
" clip-path="url(#p25dc6edd14)" style="fill: none; stroke: #cccccc; stroke-width: 0.8; stroke-linecap: round"/>
     </g>
     <g id="text_4">
      <!-- 240 -->
      <g style="fill: #262626" transform="translate(116.508981 537.54543)rotate(-45)scale(0.088 -0.088)">
       <defs>
        <path id="DejaVuSans-32" d="M 1228 531 
L 3431 531 
L 3431 0 
L 469 0 
L 469 531 
Q 828 903 1448 1529 
Q 2069 2156 2228 2338 
Q 2531 2678 2651 2914 
Q 2772 3150 2772 3378 
Q 2772 3750 2511 3984 
Q 2250 4219 1831 4219 
Q 1534 4219 1204 4116 
Q 875 4013 500 3803 
L 500 4441 
Q 881 4594 1212 4672 
Q 1544 4750 1819 4750 
Q 2544 4750 2975 4387 
Q 3406 4025 3406 3419 
Q 3406 3131 3298 2873 
Q 3191 2616 2906 2266 
Q 2828 2175 2409 1742 
Q 1991 1309 1228 531 
z
" transform="scale(0.015625)"/>
        <path id="DejaVuSans-34" d="M 2419 4116 
L 825 1625 
L 2419 1625 
L 2419 4116 
z
M 2253 4666 
L 3047 4666 
L 3047 1625 
L 3713 1625 
L 3713 1100 
L 3047 1100 
L 3047 0 
L 2419 0 
L 2419 1100 
L 313 1100 
L 313 1709 
L 2253 4666 
z
" transform="scale(0.015625)"/>
       </defs>
       <use xlink:href="#DejaVuSans-32"/>
       <use xlink:href="#DejaVuSans-34" x="63.623047"/>
       <use xlink:href="#DejaVuSans-30" x="127.246094"/>
      </g>
     </g>
    </g>
    <g id="xtick_5">
     <g id="line2d_5">
      <path d="M 137.757182 512.64 
L 137.757182 69.12 
" clip-path="url(#p25dc6edd14)" style="fill: none; stroke: #cccccc; stroke-width: 0.8; stroke-linecap: round"/>
     </g>
     <g id="text_5">
      <!-- 320 -->
      <g style="fill: #262626" transform="translate(133.535578 537.54543)rotate(-45)scale(0.088 -0.088)">
       <defs>
        <path id="DejaVuSans-33" d="M 2597 2516 
Q 3050 2419 3304 2112 
Q 3559 1806 3559 1356 
Q 3559 666 3084 287 
Q 2609 -91 1734 -91 
Q 1441 -91 1130 -33 
Q 819 25 488 141 
L 488 750 
Q 750 597 1062 519 
Q 1375 441 1716 441 
Q 2309 441 2620 675 
Q 2931 909 2931 1356 
Q 2931 1769 2642 2001 
Q 2353 2234 1838 2234 
L 1294 2234 
L 1294 2753 
L 1863 2753 
Q 2328 2753 2575 2939 
Q 2822 3125 2822 3475 
Q 2822 3834 2567 4026 
Q 2313 4219 1838 4219 
Q 1578 4219 1281 4162 
Q 984 4106 628 3988 
L 628 4550 
Q 988 4650 1302 4700 
Q 1616 4750 1894 4750 
Q 2613 4750 3031 4423 
Q 3450 4097 3450 3541 
Q 3450 3153 3228 2886 
Q 3006 2619 2597 2516 
z
" transform="scale(0.015625)"/>
       </defs>
       <use xlink:href="#DejaVuSans-33"/>
       <use xlink:href="#DejaVuSans-32" x="63.623047"/>
       <use xlink:href="#DejaVuSans-30" x="127.246094"/>
      </g>
     </g>
    </g>
    <g id="xtick_6">
     <g id="line2d_6">
      <path d="M 154.783779 512.64 
L 154.783779 69.12 
" clip-path="url(#p25dc6edd14)" style="fill: none; stroke: #cccccc; stroke-width: 0.8; stroke-linecap: round"/>
     </g>
     <g id="text_6">
      <!-- 400 -->
      <g style="fill: #262626" transform="translate(150.562175 537.54543)rotate(-45)scale(0.088 -0.088)">
       <use xlink:href="#DejaVuSans-34"/>
       <use xlink:href="#DejaVuSans-30" x="63.623047"/>
       <use xlink:href="#DejaVuSans-30" x="127.246094"/>
      </g>
     </g>
    </g>
    <g id="xtick_7">
     <g id="line2d_7">
      <path d="M 171.810376 512.64 
L 171.810376 69.12 
" clip-path="url(#p25dc6edd14)" style="fill: none; stroke: #cccccc; stroke-width: 0.8; stroke-linecap: round"/>
     </g>
     <g id="text_7">
      <!-- 480 -->
      <g style="fill: #262626" transform="translate(167.588772 537.54543)rotate(-45)scale(0.088 -0.088)">
       <use xlink:href="#DejaVuSans-34"/>
       <use xlink:href="#DejaVuSans-38" x="63.623047"/>
       <use xlink:href="#DejaVuSans-30" x="127.246094"/>
      </g>
     </g>
    </g>
    <g id="xtick_8">
     <g id="line2d_8">
      <path d="M 188.836973 512.64 
L 188.836973 69.12 
" clip-path="url(#p25dc6edd14)" style="fill: none; stroke: #cccccc; stroke-width: 0.8; stroke-linecap: round"/>
     </g>
     <g id="text_8">
      <!-- 560 -->
      <g style="fill: #262626" transform="translate(184.615368 537.54543)rotate(-45)scale(0.088 -0.088)">
       <defs>
        <path id="DejaVuSans-35" d="M 691 4666 
L 3169 4666 
L 3169 4134 
L 1269 4134 
L 1269 2991 
Q 1406 3038 1543 3061 
Q 1681 3084 1819 3084 
Q 2600 3084 3056 2656 
Q 3513 2228 3513 1497 
Q 3513 744 3044 326 
Q 2575 -91 1722 -91 
Q 1428 -91 1123 -41 
Q 819 9 494 109 
L 494 744 
Q 775 591 1075 516 
Q 1375 441 1709 441 
Q 2250 441 2565 725 
Q 2881 1009 2881 1497 
Q 2881 1984 2565 2268 
Q 2250 2553 1709 2553 
Q 1456 2553 1204 2497 
Q 953 2441 691 2322 
L 691 4666 
z
" transform="scale(0.015625)"/>
       </defs>
       <use xlink:href="#DejaVuSans-35"/>
       <use xlink:href="#DejaVuSans-36" x="63.623047"/>
       <use xlink:href="#DejaVuSans-30" x="127.246094"/>
      </g>
     </g>
    </g>
    <g id="xtick_9">
     <g id="line2d_9">
      <path d="M 205.863569 512.64 
L 205.863569 69.12 
" clip-path="url(#p25dc6edd14)" style="fill: none; stroke: #cccccc; stroke-width: 0.8; stroke-linecap: round"/>
     </g>
     <g id="text_9">
      <!-- 640 -->
      <g style="fill: #262626" transform="translate(201.641965 537.54543)rotate(-45)scale(0.088 -0.088)">
       <use xlink:href="#DejaVuSans-36"/>
       <use xlink:href="#DejaVuSans-34" x="63.623047"/>
       <use xlink:href="#DejaVuSans-30" x="127.246094"/>
      </g>
     </g>
    </g>
    <g id="xtick_10">
     <g id="line2d_10">
      <path d="M 222.890166 512.64 
L 222.890166 69.12 
" clip-path="url(#p25dc6edd14)" style="fill: none; stroke: #cccccc; stroke-width: 0.8; stroke-linecap: round"/>
     </g>
     <g id="text_10">
      <!-- 720 -->
      <g style="fill: #262626" transform="translate(218.668562 537.54543)rotate(-45)scale(0.088 -0.088)">
       <defs>
        <path id="DejaVuSans-37" d="M 525 4666 
L 3525 4666 
L 3525 4397 
L 1831 0 
L 1172 0 
L 2766 4134 
L 525 4134 
L 525 4666 
z
" transform="scale(0.015625)"/>
       </defs>
       <use xlink:href="#DejaVuSans-37"/>
       <use xlink:href="#DejaVuSans-32" x="63.623047"/>
       <use xlink:href="#DejaVuSans-30" x="127.246094"/>
      </g>
     </g>
    </g>
    <g id="xtick_11">
     <g id="line2d_11">
      <path d="M 239.916763 512.64 
L 239.916763 69.12 
" clip-path="url(#p25dc6edd14)" style="fill: none; stroke: #cccccc; stroke-width: 0.8; stroke-linecap: round"/>
     </g>
     <g id="text_11">
      <!-- 800 -->
      <g style="fill: #262626" transform="translate(235.695159 537.54543)rotate(-45)scale(0.088 -0.088)">
       <use xlink:href="#DejaVuSans-38"/>
       <use xlink:href="#DejaVuSans-30" x="63.623047"/>
       <use xlink:href="#DejaVuSans-30" x="127.246094"/>
      </g>
     </g>
    </g>
    <g id="xtick_12">
     <g id="line2d_12">
      <path d="M 256.94336 512.64 
L 256.94336 69.12 
" clip-path="url(#p25dc6edd14)" style="fill: none; stroke: #cccccc; stroke-width: 0.8; stroke-linecap: round"/>
     </g>
     <g id="text_12">
      <!-- 880 -->
      <g style="fill: #262626" transform="translate(252.721755 537.54543)rotate(-45)scale(0.088 -0.088)">
       <use xlink:href="#DejaVuSans-38"/>
       <use xlink:href="#DejaVuSans-38" x="63.623047"/>
       <use xlink:href="#DejaVuSans-30" x="127.246094"/>
      </g>
     </g>
    </g>
    <g id="xtick_13">
     <g id="line2d_13">
      <path d="M 273.969956 512.64 
L 273.969956 69.12 
" clip-path="url(#p25dc6edd14)" style="fill: none; stroke: #cccccc; stroke-width: 0.8; stroke-linecap: round"/>
     </g>
     <g id="text_13">
      <!-- 960 -->
      <g style="fill: #262626" transform="translate(269.748352 537.54543)rotate(-45)scale(0.088 -0.088)">
       <defs>
        <path id="DejaVuSans-39" d="M 703 97 
L 703 672 
Q 941 559 1184 500 
Q 1428 441 1663 441 
Q 2288 441 2617 861 
Q 2947 1281 2994 2138 
Q 2813 1869 2534 1725 
Q 2256 1581 1919 1581 
Q 1219 1581 811 2004 
Q 403 2428 403 3163 
Q 403 3881 828 4315 
Q 1253 4750 1959 4750 
Q 2769 4750 3195 4129 
Q 3622 3509 3622 2328 
Q 3622 1225 3098 567 
Q 2575 -91 1691 -91 
Q 1453 -91 1209 -44 
Q 966 3 703 97 
z
M 1959 2075 
Q 2384 2075 2632 2365 
Q 2881 2656 2881 3163 
Q 2881 3666 2632 3958 
Q 2384 4250 1959 4250 
Q 1534 4250 1286 3958 
Q 1038 3666 1038 3163 
Q 1038 2656 1286 2365 
Q 1534 2075 1959 2075 
z
" transform="scale(0.015625)"/>
       </defs>
       <use xlink:href="#DejaVuSans-39"/>
       <use xlink:href="#DejaVuSans-36" x="63.623047"/>
       <use xlink:href="#DejaVuSans-30" x="127.246094"/>
      </g>
     </g>
    </g>
    <g id="xtick_14">
     <g id="line2d_14">
      <path d="M 290.996553 512.64 
L 290.996553 69.12 
" clip-path="url(#p25dc6edd14)" style="fill: none; stroke: #cccccc; stroke-width: 0.8; stroke-linecap: round"/>
     </g>
     <g id="text_14">
      <!-- 1040 -->
      <g style="fill: #262626" transform="translate(284.795404 541.504521)rotate(-45)scale(0.088 -0.088)">
       <use xlink:href="#DejaVuSans-31"/>
       <use xlink:href="#DejaVuSans-30" x="63.623047"/>
       <use xlink:href="#DejaVuSans-34" x="127.246094"/>
       <use xlink:href="#DejaVuSans-30" x="190.869141"/>
      </g>
     </g>
    </g>
    <g id="xtick_15">
     <g id="line2d_15">
      <path d="M 308.02315 512.64 
L 308.02315 69.12 
" clip-path="url(#p25dc6edd14)" style="fill: none; stroke: #cccccc; stroke-width: 0.8; stroke-linecap: round"/>
     </g>
     <g id="text_15">
      <!-- 1120 -->
      <g style="fill: #262626" transform="translate(301.822 541.504521)rotate(-45)scale(0.088 -0.088)">
       <use xlink:href="#DejaVuSans-31"/>
       <use xlink:href="#DejaVuSans-31" x="63.623047"/>
       <use xlink:href="#DejaVuSans-32" x="127.246094"/>
       <use xlink:href="#DejaVuSans-30" x="190.869141"/>
      </g>
     </g>
    </g>
    <g id="xtick_16">
     <g id="line2d_16">
      <path d="M 325.049747 512.64 
L 325.049747 69.12 
" clip-path="url(#p25dc6edd14)" style="fill: none; stroke: #cccccc; stroke-width: 0.8; stroke-linecap: round"/>
     </g>
     <g id="text_16">
      <!-- 1200 -->
      <g style="fill: #262626" transform="translate(318.848597 541.504521)rotate(-45)scale(0.088 -0.088)">
       <use xlink:href="#DejaVuSans-31"/>
       <use xlink:href="#DejaVuSans-32" x="63.623047"/>
       <use xlink:href="#DejaVuSans-30" x="127.246094"/>
       <use xlink:href="#DejaVuSans-30" x="190.869141"/>
      </g>
     </g>
    </g>
    <g id="xtick_17">
     <g id="line2d_17">
      <path d="M 342.076343 512.64 
L 342.076343 69.12 
" clip-path="url(#p25dc6edd14)" style="fill: none; stroke: #cccccc; stroke-width: 0.8; stroke-linecap: round"/>
     </g>
     <g id="text_17">
      <!-- 1280 -->
      <g style="fill: #262626" transform="translate(335.875194 541.504521)rotate(-45)scale(0.088 -0.088)">
       <use xlink:href="#DejaVuSans-31"/>
       <use xlink:href="#DejaVuSans-32" x="63.623047"/>
       <use xlink:href="#DejaVuSans-38" x="127.246094"/>
       <use xlink:href="#DejaVuSans-30" x="190.869141"/>
      </g>
     </g>
    </g>
    <g id="xtick_18">
     <g id="line2d_18">
      <path d="M 359.10294 512.64 
L 359.10294 69.12 
" clip-path="url(#p25dc6edd14)" style="fill: none; stroke: #cccccc; stroke-width: 0.8; stroke-linecap: round"/>
     </g>
     <g id="text_18">
      <!-- 1360 -->
      <g style="fill: #262626" transform="translate(352.901791 541.504521)rotate(-45)scale(0.088 -0.088)">
       <use xlink:href="#DejaVuSans-31"/>
       <use xlink:href="#DejaVuSans-33" x="63.623047"/>
       <use xlink:href="#DejaVuSans-36" x="127.246094"/>
       <use xlink:href="#DejaVuSans-30" x="190.869141"/>
      </g>
     </g>
    </g>
    <g id="xtick_19">
     <g id="line2d_19">
      <path d="M 376.129537 512.64 
L 376.129537 69.12 
" clip-path="url(#p25dc6edd14)" style="fill: none; stroke: #cccccc; stroke-width: 0.8; stroke-linecap: round"/>
     </g>
     <g id="text_19">
      <!-- 1440 -->
      <g style="fill: #262626" transform="translate(369.928387 541.504521)rotate(-45)scale(0.088 -0.088)">
       <use xlink:href="#DejaVuSans-31"/>
       <use xlink:href="#DejaVuSans-34" x="63.623047"/>
       <use xlink:href="#DejaVuSans-34" x="127.246094"/>
       <use xlink:href="#DejaVuSans-30" x="190.869141"/>
      </g>
     </g>
    </g>
    <g id="text_20">
     <!-- Time (Minutes) -->
     <g style="fill: #262626" transform="translate(186.87375 554.093115)scale(0.096 -0.096)">
      <defs>
       <path id="DejaVuSans-54" d="M -19 4666 
L 3928 4666 
L 3928 4134 
L 2272 4134 
L 2272 0 
L 1638 0 
L 1638 4134 
L -19 4134 
L -19 4666 
z
" transform="scale(0.015625)"/>
       <path id="DejaVuSans-69" d="M 603 3500 
L 1178 3500 
L 1178 0 
L 603 0 
L 603 3500 
z
M 603 4863 
L 1178 4863 
L 1178 4134 
L 603 4134 
L 603 4863 
z
" transform="scale(0.015625)"/>
       <path id="DejaVuSans-6d" d="M 3328 2828 
Q 3544 3216 3844 3400 
Q 4144 3584 4550 3584 
Q 5097 3584 5394 3201 
Q 5691 2819 5691 2113 
L 5691 0 
L 5113 0 
L 5113 2094 
Q 5113 2597 4934 2840 
Q 4756 3084 4391 3084 
Q 3944 3084 3684 2787 
Q 3425 2491 3425 1978 
L 3425 0 
L 2847 0 
L 2847 2094 
Q 2847 2600 2669 2842 
Q 2491 3084 2119 3084 
Q 1678 3084 1418 2786 
Q 1159 2488 1159 1978 
L 1159 0 
L 581 0 
L 581 3500 
L 1159 3500 
L 1159 2956 
Q 1356 3278 1631 3431 
Q 1906 3584 2284 3584 
Q 2666 3584 2933 3390 
Q 3200 3197 3328 2828 
z
" transform="scale(0.015625)"/>
       <path id="DejaVuSans-65" d="M 3597 1894 
L 3597 1613 
L 953 1613 
Q 991 1019 1311 708 
Q 1631 397 2203 397 
Q 2534 397 2845 478 
Q 3156 559 3463 722 
L 3463 178 
Q 3153 47 2828 -22 
Q 2503 -91 2169 -91 
Q 1331 -91 842 396 
Q 353 884 353 1716 
Q 353 2575 817 3079 
Q 1281 3584 2069 3584 
Q 2775 3584 3186 3129 
Q 3597 2675 3597 1894 
z
M 3022 2063 
Q 3016 2534 2758 2815 
Q 2500 3097 2075 3097 
Q 1594 3097 1305 2825 
Q 1016 2553 972 2059 
L 3022 2063 
z
" transform="scale(0.015625)"/>
       <path id="DejaVuSans-20" transform="scale(0.015625)"/>
       <path id="DejaVuSans-28" d="M 1984 4856 
Q 1566 4138 1362 3434 
Q 1159 2731 1159 2009 
Q 1159 1288 1364 580 
Q 1569 -128 1984 -844 
L 1484 -844 
Q 1016 -109 783 600 
Q 550 1309 550 2009 
Q 550 2706 781 3412 
Q 1013 4119 1484 4856 
L 1984 4856 
z
" transform="scale(0.015625)"/>
       <path id="DejaVuSans-4d" d="M 628 4666 
L 1569 4666 
L 2759 1491 
L 3956 4666 
L 4897 4666 
L 4897 0 
L 4281 0 
L 4281 4097 
L 3078 897 
L 2444 897 
L 1241 4097 
L 1241 0 
L 628 0 
L 628 4666 
z
" transform="scale(0.015625)"/>
       <path id="DejaVuSans-6e" d="M 3513 2113 
L 3513 0 
L 2938 0 
L 2938 2094 
Q 2938 2591 2744 2837 
Q 2550 3084 2163 3084 
Q 1697 3084 1428 2787 
Q 1159 2491 1159 1978 
L 1159 0 
L 581 0 
L 581 3500 
L 1159 3500 
L 1159 2956 
Q 1366 3272 1645 3428 
Q 1925 3584 2291 3584 
Q 2894 3584 3203 3211 
Q 3513 2838 3513 2113 
z
" transform="scale(0.015625)"/>
       <path id="DejaVuSans-75" d="M 544 1381 
L 544 3500 
L 1119 3500 
L 1119 1403 
Q 1119 906 1312 657 
Q 1506 409 1894 409 
Q 2359 409 2629 706 
Q 2900 1003 2900 1516 
L 2900 3500 
L 3475 3500 
L 3475 0 
L 2900 0 
L 2900 538 
Q 2691 219 2414 64 
Q 2138 -91 1772 -91 
Q 1169 -91 856 284 
Q 544 659 544 1381 
z
M 1991 3584 
L 1991 3584 
z
" transform="scale(0.015625)"/>
       <path id="DejaVuSans-74" d="M 1172 4494 
L 1172 3500 
L 2356 3500 
L 2356 3053 
L 1172 3053 
L 1172 1153 
Q 1172 725 1289 603 
Q 1406 481 1766 481 
L 2356 481 
L 2356 0 
L 1766 0 
Q 1100 0 847 248 
Q 594 497 594 1153 
L 594 3053 
L 172 3053 
L 172 3500 
L 594 3500 
L 594 4494 
L 1172 4494 
z
" transform="scale(0.015625)"/>
       <path id="DejaVuSans-73" d="M 2834 3397 
L 2834 2853 
Q 2591 2978 2328 3040 
Q 2066 3103 1784 3103 
Q 1356 3103 1142 2972 
Q 928 2841 928 2578 
Q 928 2378 1081 2264 
Q 1234 2150 1697 2047 
L 1894 2003 
Q 2506 1872 2764 1633 
Q 3022 1394 3022 966 
Q 3022 478 2636 193 
Q 2250 -91 1575 -91 
Q 1294 -91 989 -36 
Q 684 19 347 128 
L 347 722 
Q 666 556 975 473 
Q 1284 391 1588 391 
Q 1994 391 2212 530 
Q 2431 669 2431 922 
Q 2431 1156 2273 1281 
Q 2116 1406 1581 1522 
L 1381 1569 
Q 847 1681 609 1914 
Q 372 2147 372 2553 
Q 372 3047 722 3315 
Q 1072 3584 1716 3584 
Q 2034 3584 2315 3537 
Q 2597 3491 2834 3397 
z
" transform="scale(0.015625)"/>
       <path id="DejaVuSans-29" d="M 513 4856 
L 1013 4856 
Q 1481 4119 1714 3412 
Q 1947 2706 1947 2009 
Q 1947 1309 1714 600 
Q 1481 -109 1013 -844 
L 513 -844 
Q 928 -128 1133 580 
Q 1338 1288 1338 2009 
Q 1338 2731 1133 3434 
Q 928 4138 513 4856 
z
" transform="scale(0.015625)"/>
      </defs>
      <use xlink:href="#DejaVuSans-54"/>
      <use xlink:href="#DejaVuSans-69" x="57.958984"/>
      <use xlink:href="#DejaVuSans-6d" x="85.742188"/>
      <use xlink:href="#DejaVuSans-65" x="183.154297"/>
      <use xlink:href="#DejaVuSans-20" x="244.677734"/>
      <use xlink:href="#DejaVuSans-28" x="276.464844"/>
      <use xlink:href="#DejaVuSans-4d" x="315.478516"/>
      <use xlink:href="#DejaVuSans-69" x="401.757812"/>
      <use xlink:href="#DejaVuSans-6e" x="429.541016"/>
      <use xlink:href="#DejaVuSans-75" x="492.919922"/>
      <use xlink:href="#DejaVuSans-74" x="556.298828"/>
      <use xlink:href="#DejaVuSans-65" x="595.507812"/>
      <use xlink:href="#DejaVuSans-73" x="657.03125"/>
      <use xlink:href="#DejaVuSans-29" x="709.130859"/>
     </g>
    </g>
   </g>
   <g id="matplotlib.axis_2">
    <g id="ytick_1">
     <g id="line2d_20">
      <path d="M 54.3375 492.48 
L 391.23 492.48 
" clip-path="url(#p25dc6edd14)" style="fill: none; stroke: #cccccc; stroke-width: 0.8; stroke-linecap: round"/>
     </g>
     <g id="text_21">
      <!-- 0 -->
      <g style="fill: #262626" transform="translate(40.4385 495.823312)scale(0.088 -0.088)">
       <use xlink:href="#DejaVuSans-30"/>
      </g>
     </g>
    </g>
    <g id="ytick_2">
     <g id="line2d_21">
      <path d="M 54.3375 469.254194 
L 391.23 469.254194 
" clip-path="url(#p25dc6edd14)" style="fill: none; stroke: #cccccc; stroke-width: 0.8; stroke-linecap: round"/>
     </g>
     <g id="text_22">
      <!-- 100 -->
      <g style="fill: #262626" transform="translate(29.2405 472.597506)scale(0.088 -0.088)">
       <use xlink:href="#DejaVuSans-31"/>
       <use xlink:href="#DejaVuSans-30" x="63.623047"/>
       <use xlink:href="#DejaVuSans-30" x="127.246094"/>
      </g>
     </g>
    </g>
    <g id="ytick_3">
     <g id="line2d_22">
      <path d="M 54.3375 446.028387 
L 391.23 446.028387 
" clip-path="url(#p25dc6edd14)" style="fill: none; stroke: #cccccc; stroke-width: 0.8; stroke-linecap: round"/>
     </g>
     <g id="text_23">
      <!-- 200 -->
      <g style="fill: #262626" transform="translate(29.2405 449.3717)scale(0.088 -0.088)">
       <use xlink:href="#DejaVuSans-32"/>
       <use xlink:href="#DejaVuSans-30" x="63.623047"/>
       <use xlink:href="#DejaVuSans-30" x="127.246094"/>
      </g>
     </g>
    </g>
    <g id="ytick_4">
     <g id="line2d_23">
      <path d="M 54.3375 422.802581 
L 391.23 422.802581 
" clip-path="url(#p25dc6edd14)" style="fill: none; stroke: #cccccc; stroke-width: 0.8; stroke-linecap: round"/>
     </g>
     <g id="text_24">
      <!-- 300 -->
      <g style="fill: #262626" transform="translate(29.2405 426.145893)scale(0.088 -0.088)">
       <use xlink:href="#DejaVuSans-33"/>
       <use xlink:href="#DejaVuSans-30" x="63.623047"/>
       <use xlink:href="#DejaVuSans-30" x="127.246094"/>
      </g>
     </g>
    </g>
    <g id="ytick_5">
     <g id="line2d_24">
      <path d="M 54.3375 399.576774 
L 391.23 399.576774 
" clip-path="url(#p25dc6edd14)" style="fill: none; stroke: #cccccc; stroke-width: 0.8; stroke-linecap: round"/>
     </g>
     <g id="text_25">
      <!-- 400 -->
      <g style="fill: #262626" transform="translate(29.2405 402.920087)scale(0.088 -0.088)">
       <use xlink:href="#DejaVuSans-34"/>
       <use xlink:href="#DejaVuSans-30" x="63.623047"/>
       <use xlink:href="#DejaVuSans-30" x="127.246094"/>
      </g>
     </g>
    </g>
    <g id="ytick_6">
     <g id="line2d_25">
      <path d="M 54.3375 376.350968 
L 391.23 376.350968 
" clip-path="url(#p25dc6edd14)" style="fill: none; stroke: #cccccc; stroke-width: 0.8; stroke-linecap: round"/>
     </g>
     <g id="text_26">
      <!-- 500 -->
      <g style="fill: #262626" transform="translate(29.2405 379.69428)scale(0.088 -0.088)">
       <use xlink:href="#DejaVuSans-35"/>
       <use xlink:href="#DejaVuSans-30" x="63.623047"/>
       <use xlink:href="#DejaVuSans-30" x="127.246094"/>
      </g>
     </g>
    </g>
    <g id="ytick_7">
     <g id="line2d_26">
      <path d="M 54.3375 353.125161 
L 391.23 353.125161 
" clip-path="url(#p25dc6edd14)" style="fill: none; stroke: #cccccc; stroke-width: 0.8; stroke-linecap: round"/>
     </g>
     <g id="text_27">
      <!-- 600 -->
      <g style="fill: #262626" transform="translate(29.2405 356.468474)scale(0.088 -0.088)">
       <use xlink:href="#DejaVuSans-36"/>
       <use xlink:href="#DejaVuSans-30" x="63.623047"/>
       <use xlink:href="#DejaVuSans-30" x="127.246094"/>
      </g>
     </g>
    </g>
    <g id="ytick_8">
     <g id="line2d_27">
      <path d="M 54.3375 329.899355 
L 391.23 329.899355 
" clip-path="url(#p25dc6edd14)" style="fill: none; stroke: #cccccc; stroke-width: 0.8; stroke-linecap: round"/>
     </g>
     <g id="text_28">
      <!-- 700 -->
      <g style="fill: #262626" transform="translate(29.2405 333.242667)scale(0.088 -0.088)">
       <use xlink:href="#DejaVuSans-37"/>
       <use xlink:href="#DejaVuSans-30" x="63.623047"/>
       <use xlink:href="#DejaVuSans-30" x="127.246094"/>
      </g>
     </g>
    </g>
    <g id="ytick_9">
     <g id="line2d_28">
      <path d="M 54.3375 306.673548 
L 391.23 306.673548 
" clip-path="url(#p25dc6edd14)" style="fill: none; stroke: #cccccc; stroke-width: 0.8; stroke-linecap: round"/>
     </g>
     <g id="text_29">
      <!-- 800 -->
      <g style="fill: #262626" transform="translate(29.2405 310.016861)scale(0.088 -0.088)">
       <use xlink:href="#DejaVuSans-38"/>
       <use xlink:href="#DejaVuSans-30" x="63.623047"/>
       <use xlink:href="#DejaVuSans-30" x="127.246094"/>
      </g>
     </g>
    </g>
    <g id="ytick_10">
     <g id="line2d_29">
      <path d="M 54.3375 283.447742 
L 391.23 283.447742 
" clip-path="url(#p25dc6edd14)" style="fill: none; stroke: #cccccc; stroke-width: 0.8; stroke-linecap: round"/>
     </g>
     <g id="text_30">
      <!-- 900 -->
      <g style="fill: #262626" transform="translate(29.2405 286.791054)scale(0.088 -0.088)">
       <use xlink:href="#DejaVuSans-39"/>
       <use xlink:href="#DejaVuSans-30" x="63.623047"/>
       <use xlink:href="#DejaVuSans-30" x="127.246094"/>
      </g>
     </g>
    </g>
    <g id="ytick_11">
     <g id="line2d_30">
      <path d="M 54.3375 260.221935 
L 391.23 260.221935 
" clip-path="url(#p25dc6edd14)" style="fill: none; stroke: #cccccc; stroke-width: 0.8; stroke-linecap: round"/>
     </g>
     <g id="text_31">
      <!-- 1000 -->
      <g style="fill: #262626" transform="translate(23.6415 263.565248)scale(0.088 -0.088)">
       <use xlink:href="#DejaVuSans-31"/>
       <use xlink:href="#DejaVuSans-30" x="63.623047"/>
       <use xlink:href="#DejaVuSans-30" x="127.246094"/>
       <use xlink:href="#DejaVuSans-30" x="190.869141"/>
      </g>
     </g>
    </g>
    <g id="ytick_12">
     <g id="line2d_31">
      <path d="M 54.3375 236.996129 
L 391.23 236.996129 
" clip-path="url(#p25dc6edd14)" style="fill: none; stroke: #cccccc; stroke-width: 0.8; stroke-linecap: round"/>
     </g>
     <g id="text_32">
      <!-- 1100 -->
      <g style="fill: #262626" transform="translate(23.6415 240.339442)scale(0.088 -0.088)">
       <use xlink:href="#DejaVuSans-31"/>
       <use xlink:href="#DejaVuSans-31" x="63.623047"/>
       <use xlink:href="#DejaVuSans-30" x="127.246094"/>
       <use xlink:href="#DejaVuSans-30" x="190.869141"/>
      </g>
     </g>
    </g>
    <g id="ytick_13">
     <g id="line2d_32">
      <path d="M 54.3375 213.770323 
L 391.23 213.770323 
" clip-path="url(#p25dc6edd14)" style="fill: none; stroke: #cccccc; stroke-width: 0.8; stroke-linecap: round"/>
     </g>
     <g id="text_33">
      <!-- 1200 -->
      <g style="fill: #262626" transform="translate(23.6415 217.113635)scale(0.088 -0.088)">
       <use xlink:href="#DejaVuSans-31"/>
       <use xlink:href="#DejaVuSans-32" x="63.623047"/>
       <use xlink:href="#DejaVuSans-30" x="127.246094"/>
       <use xlink:href="#DejaVuSans-30" x="190.869141"/>
      </g>
     </g>
    </g>
    <g id="ytick_14">
     <g id="line2d_33">
      <path d="M 54.3375 190.544516 
L 391.23 190.544516 
" clip-path="url(#p25dc6edd14)" style="fill: none; stroke: #cccccc; stroke-width: 0.8; stroke-linecap: round"/>
     </g>
     <g id="text_34">
      <!-- 1300 -->
      <g style="fill: #262626" transform="translate(23.6415 193.887829)scale(0.088 -0.088)">
       <use xlink:href="#DejaVuSans-31"/>
       <use xlink:href="#DejaVuSans-33" x="63.623047"/>
       <use xlink:href="#DejaVuSans-30" x="127.246094"/>
       <use xlink:href="#DejaVuSans-30" x="190.869141"/>
      </g>
     </g>
    </g>
    <g id="ytick_15">
     <g id="line2d_34">
      <path d="M 54.3375 167.31871 
L 391.23 167.31871 
" clip-path="url(#p25dc6edd14)" style="fill: none; stroke: #cccccc; stroke-width: 0.8; stroke-linecap: round"/>
     </g>
     <g id="text_35">
      <!-- 1400 -->
      <g style="fill: #262626" transform="translate(23.6415 170.662022)scale(0.088 -0.088)">
       <use xlink:href="#DejaVuSans-31"/>
       <use xlink:href="#DejaVuSans-34" x="63.623047"/>
       <use xlink:href="#DejaVuSans-30" x="127.246094"/>
       <use xlink:href="#DejaVuSans-30" x="190.869141"/>
      </g>
     </g>
    </g>
    <g id="ytick_16">
     <g id="line2d_35">
      <path d="M 54.3375 144.092903 
L 391.23 144.092903 
" clip-path="url(#p25dc6edd14)" style="fill: none; stroke: #cccccc; stroke-width: 0.8; stroke-linecap: round"/>
     </g>
     <g id="text_36">
      <!-- 1500 -->
      <g style="fill: #262626" transform="translate(23.6415 147.436216)scale(0.088 -0.088)">
       <use xlink:href="#DejaVuSans-31"/>
       <use xlink:href="#DejaVuSans-35" x="63.623047"/>
       <use xlink:href="#DejaVuSans-30" x="127.246094"/>
       <use xlink:href="#DejaVuSans-30" x="190.869141"/>
      </g>
     </g>
    </g>
    <g id="ytick_17">
     <g id="line2d_36">
      <path d="M 54.3375 120.867097 
L 391.23 120.867097 
" clip-path="url(#p25dc6edd14)" style="fill: none; stroke: #cccccc; stroke-width: 0.8; stroke-linecap: round"/>
     </g>
     <g id="text_37">
      <!-- 1600 -->
      <g style="fill: #262626" transform="translate(23.6415 124.210409)scale(0.088 -0.088)">
       <use xlink:href="#DejaVuSans-31"/>
       <use xlink:href="#DejaVuSans-36" x="63.623047"/>
       <use xlink:href="#DejaVuSans-30" x="127.246094"/>
       <use xlink:href="#DejaVuSans-30" x="190.869141"/>
      </g>
     </g>
    </g>
    <g id="ytick_18">
     <g id="line2d_37">
      <path d="M 54.3375 97.64129 
L 391.23 97.64129 
" clip-path="url(#p25dc6edd14)" style="fill: none; stroke: #cccccc; stroke-width: 0.8; stroke-linecap: round"/>
     </g>
     <g id="text_38">
      <!-- 1700 -->
      <g style="fill: #262626" transform="translate(23.6415 100.984603)scale(0.088 -0.088)">
       <use xlink:href="#DejaVuSans-31"/>
       <use xlink:href="#DejaVuSans-37" x="63.623047"/>
       <use xlink:href="#DejaVuSans-30" x="127.246094"/>
       <use xlink:href="#DejaVuSans-30" x="190.869141"/>
      </g>
     </g>
    </g>
    <g id="text_39">
     <!-- Edge Coverages -->
     <g style="fill: #262626" transform="translate(17.645 329.98575)rotate(-90)scale(0.096 -0.096)">
      <defs>
       <path id="DejaVuSans-45" d="M 628 4666 
L 3578 4666 
L 3578 4134 
L 1259 4134 
L 1259 2753 
L 3481 2753 
L 3481 2222 
L 1259 2222 
L 1259 531 
L 3634 531 
L 3634 0 
L 628 0 
L 628 4666 
z
" transform="scale(0.015625)"/>
       <path id="DejaVuSans-64" d="M 2906 2969 
L 2906 4863 
L 3481 4863 
L 3481 0 
L 2906 0 
L 2906 525 
Q 2725 213 2448 61 
Q 2172 -91 1784 -91 
Q 1150 -91 751 415 
Q 353 922 353 1747 
Q 353 2572 751 3078 
Q 1150 3584 1784 3584 
Q 2172 3584 2448 3432 
Q 2725 3281 2906 2969 
z
M 947 1747 
Q 947 1113 1208 752 
Q 1469 391 1925 391 
Q 2381 391 2643 752 
Q 2906 1113 2906 1747 
Q 2906 2381 2643 2742 
Q 2381 3103 1925 3103 
Q 1469 3103 1208 2742 
Q 947 2381 947 1747 
z
" transform="scale(0.015625)"/>
       <path id="DejaVuSans-67" d="M 2906 1791 
Q 2906 2416 2648 2759 
Q 2391 3103 1925 3103 
Q 1463 3103 1205 2759 
Q 947 2416 947 1791 
Q 947 1169 1205 825 
Q 1463 481 1925 481 
Q 2391 481 2648 825 
Q 2906 1169 2906 1791 
z
M 3481 434 
Q 3481 -459 3084 -895 
Q 2688 -1331 1869 -1331 
Q 1566 -1331 1297 -1286 
Q 1028 -1241 775 -1147 
L 775 -588 
Q 1028 -725 1275 -790 
Q 1522 -856 1778 -856 
Q 2344 -856 2625 -561 
Q 2906 -266 2906 331 
L 2906 616 
Q 2728 306 2450 153 
Q 2172 0 1784 0 
Q 1141 0 747 490 
Q 353 981 353 1791 
Q 353 2603 747 3093 
Q 1141 3584 1784 3584 
Q 2172 3584 2450 3431 
Q 2728 3278 2906 2969 
L 2906 3500 
L 3481 3500 
L 3481 434 
z
" transform="scale(0.015625)"/>
       <path id="DejaVuSans-43" d="M 4122 4306 
L 4122 3641 
Q 3803 3938 3442 4084 
Q 3081 4231 2675 4231 
Q 1875 4231 1450 3742 
Q 1025 3253 1025 2328 
Q 1025 1406 1450 917 
Q 1875 428 2675 428 
Q 3081 428 3442 575 
Q 3803 722 4122 1019 
L 4122 359 
Q 3791 134 3420 21 
Q 3050 -91 2638 -91 
Q 1578 -91 968 557 
Q 359 1206 359 2328 
Q 359 3453 968 4101 
Q 1578 4750 2638 4750 
Q 3056 4750 3426 4639 
Q 3797 4528 4122 4306 
z
" transform="scale(0.015625)"/>
       <path id="DejaVuSans-6f" d="M 1959 3097 
Q 1497 3097 1228 2736 
Q 959 2375 959 1747 
Q 959 1119 1226 758 
Q 1494 397 1959 397 
Q 2419 397 2687 759 
Q 2956 1122 2956 1747 
Q 2956 2369 2687 2733 
Q 2419 3097 1959 3097 
z
M 1959 3584 
Q 2709 3584 3137 3096 
Q 3566 2609 3566 1747 
Q 3566 888 3137 398 
Q 2709 -91 1959 -91 
Q 1206 -91 779 398 
Q 353 888 353 1747 
Q 353 2609 779 3096 
Q 1206 3584 1959 3584 
z
" transform="scale(0.015625)"/>
       <path id="DejaVuSans-76" d="M 191 3500 
L 800 3500 
L 1894 563 
L 2988 3500 
L 3597 3500 
L 2284 0 
L 1503 0 
L 191 3500 
z
" transform="scale(0.015625)"/>
       <path id="DejaVuSans-72" d="M 2631 2963 
Q 2534 3019 2420 3045 
Q 2306 3072 2169 3072 
Q 1681 3072 1420 2755 
Q 1159 2438 1159 1844 
L 1159 0 
L 581 0 
L 581 3500 
L 1159 3500 
L 1159 2956 
Q 1341 3275 1631 3429 
Q 1922 3584 2338 3584 
Q 2397 3584 2469 3576 
Q 2541 3569 2628 3553 
L 2631 2963 
z
" transform="scale(0.015625)"/>
       <path id="DejaVuSans-61" d="M 2194 1759 
Q 1497 1759 1228 1600 
Q 959 1441 959 1056 
Q 959 750 1161 570 
Q 1363 391 1709 391 
Q 2188 391 2477 730 
Q 2766 1069 2766 1631 
L 2766 1759 
L 2194 1759 
z
M 3341 1997 
L 3341 0 
L 2766 0 
L 2766 531 
Q 2569 213 2275 61 
Q 1981 -91 1556 -91 
Q 1019 -91 701 211 
Q 384 513 384 1019 
Q 384 1609 779 1909 
Q 1175 2209 1959 2209 
L 2766 2209 
L 2766 2266 
Q 2766 2663 2505 2880 
Q 2244 3097 1772 3097 
Q 1472 3097 1187 3025 
Q 903 2953 641 2809 
L 641 3341 
Q 956 3463 1253 3523 
Q 1550 3584 1831 3584 
Q 2591 3584 2966 3190 
Q 3341 2797 3341 1997 
z
" transform="scale(0.015625)"/>
      </defs>
      <use xlink:href="#DejaVuSans-45"/>
      <use xlink:href="#DejaVuSans-64" x="63.183594"/>
      <use xlink:href="#DejaVuSans-67" x="126.660156"/>
      <use xlink:href="#DejaVuSans-65" x="190.136719"/>
      <use xlink:href="#DejaVuSans-20" x="251.660156"/>
      <use xlink:href="#DejaVuSans-43" x="283.447266"/>
      <use xlink:href="#DejaVuSans-6f" x="353.271484"/>
      <use xlink:href="#DejaVuSans-76" x="414.453125"/>
      <use xlink:href="#DejaVuSans-65" x="473.632812"/>
      <use xlink:href="#DejaVuSans-72" x="535.15625"/>
      <use xlink:href="#DejaVuSans-61" x="576.269531"/>
      <use xlink:href="#DejaVuSans-67" x="637.548828"/>
      <use xlink:href="#DejaVuSans-65" x="701.025391"/>
      <use xlink:href="#DejaVuSans-73" x="762.548828"/>
     </g>
    </g>
   </g>
   <g id="PolyCollection_1">
    <defs>
     <path id="m22b9b7c9e4" d="M 69.650795 -89.55871 
L 69.650795 -83.52 
L 69.650795 -89.55871 
L 69.650795 -89.55871 
z
" style="stroke: #db5f57; stroke-opacity: 0.2; stroke-width: 0.8"/>
    </defs>
    <g clip-path="url(#p25dc6edd14)">
     <use xlink:href="#m22b9b7c9e4" x="0" y="576" style="fill: #db5f57; fill-opacity: 0.2; stroke: #db5f57; stroke-opacity: 0.2; stroke-width: 0.8"/>
    </g>
   </g>
   <g id="PolyCollection_2">
    <defs>
     <path id="m68f041a2f4" d="M 69.650795 -94.900645 
L 69.650795 -83.52 
L 69.650795 -94.900645 
L 69.650795 -94.900645 
z
" style="stroke: #b9db57; stroke-opacity: 0.2; stroke-width: 0.8"/>
    </defs>
    <g clip-path="url(#p25dc6edd14)">
     <use xlink:href="#m68f041a2f4" x="0" y="576" style="fill: #b9db57; fill-opacity: 0.2; stroke: #b9db57; stroke-opacity: 0.2; stroke-width: 0.8"/>
    </g>
   </g>
   <g id="PolyCollection_3">
    <defs>
     <path id="ma56c515165" d="M 69.650795 -89.55871 
L 69.650795 -83.52 
L 69.650795 -89.55871 
L 69.650795 -89.55871 
z
" style="stroke: #57db94; stroke-opacity: 0.2; stroke-width: 0.8"/>
    </defs>
    <g clip-path="url(#p25dc6edd14)">
     <use xlink:href="#ma56c515165" x="0" y="576" style="fill: #57db94; fill-opacity: 0.2; stroke: #57db94; stroke-opacity: 0.2; stroke-width: 0.8"/>
    </g>
   </g>
   <g id="PolyCollection_4">
    <defs>
     <path id="mdc1b659ee5" d="M 69.650795 -93.971613 
L 69.650795 -83.52 
L 69.650795 -93.971613 
L 69.650795 -93.971613 
z
" style="stroke: #5784db; stroke-opacity: 0.2; stroke-width: 0.8"/>
    </defs>
    <g clip-path="url(#p25dc6edd14)">
     <use xlink:href="#mdc1b659ee5" x="0" y="576" style="fill: #5784db; fill-opacity: 0.2; stroke: #5784db; stroke-opacity: 0.2; stroke-width: 0.8"/>
    </g>
   </g>
   <g id="PolyCollection_5">
    <defs>
     <path id="m54d988fe17" d="M 69.650795 -95.829677 
L 69.650795 -83.52 
L 69.650795 -95.829677 
L 69.650795 -95.829677 
z
" style="stroke: #c957db; stroke-opacity: 0.2; stroke-width: 0.8"/>
    </defs>
    <g clip-path="url(#p25dc6edd14)">
     <use xlink:href="#m54d988fe17" x="0" y="576" style="fill: #c957db; fill-opacity: 0.2; stroke: #c957db; stroke-opacity: 0.2; stroke-width: 0.8"/>
    </g>
   </g>
   <g id="line2d_38">
    <path d="M 69.650795 489.460645 
L 69.863628 486.44129 
L 70.289293 485.976774 
L 70.502125 485.512258 
L 70.92779 439.060645 
L 71.140623 437.899355 
L 71.77912 436.738065 
L 71.991953 419.550968 
L 72.417617 413.744516 
L 72.63045 413.512258 
L 73.056115 412.815484 
L 73.268947 412.583226 
L 73.48178 399.809032 
L 73.694612 397.254194 
L 74.120277 396.789677 
L 74.545942 396.789677 
L 74.758774 381.228387 
L 74.971607 377.976774 
L 75.184439 377.047742 
L 75.397272 370.08 
L 75.610104 370.08 
L 76.035769 368.221935 
L 76.461434 367.525161 
L 76.674267 349.64129 
L 77.099932 349.64129 
L 77.312764 349.409032 
L 77.951261 349.409032 
L 78.164094 336.634839 
L 78.376926 335.473548 
L 78.589759 335.009032 
L 78.802591 335.009032 
L 79.015424 334.776774 
L 79.441089 334.776774 
L 79.653921 326.183226 
L 79.866754 322.931613 
L 80.292418 322.467097 
L 80.505251 322.467097 
L 80.718083 322.234839 
L 80.930916 317.589677 
L 81.356581 314.570323 
L 81.782246 314.570323 
L 81.995078 309.460645 
L 82.207911 309.228387 
L 82.420743 308.763871 
L 82.633575 308.763871 
L 82.846408 308.531613 
L 83.05924 308.531613 
L 83.272073 303.886452 
L 83.484905 303.886452 
L 83.91057 303.189677 
L 84.123403 303.189677 
L 84.336235 297.847742 
L 84.7619 296.686452 
L 84.974733 296.454194 
L 85.187565 296.454194 
L 85.400397 292.970323 
L 85.61323 292.273548 
L 86.251727 289.254194 
L 86.46456 288.789677 
L 87.103057 288.789677 
L 87.31589 286.931613 
L 87.528722 286.699355 
L 87.741555 285.770323 
L 88.592884 284.84129 
L 88.805717 281.357419 
L 89.444214 279.963871 
L 90.508376 279.963871 
L 90.934041 278.802581 
L 91.998204 276.712258 
L 92.636701 276.712258 
L 93.275198 274.854194 
L 93.700863 274.389677 
L 94.552193 274.389677 
L 94.977858 273.228387 
L 95.190691 271.834839 
L 95.403523 271.834839 
L 95.829188 270.44129 
L 96.467685 268.583226 
L 97.106183 267.886452 
L 97.531848 267.886452 
L 97.74468 266.725161 
L 98.383177 266.725161 
L 98.59601 266.492903 
L 98.808842 266.028387 
L 99.234507 261.615484 
L 99.44734 261.150968 
L 99.660172 261.150968 
L 100.085837 259.060645 
L 100.724335 259.060645 
L 100.937167 258.828387 
L 101.149999 258.828387 
L 101.362832 256.970323 
L 101.788497 256.505806 
L 102.214162 256.505806 
L 102.639827 255.576774 
L 104.768151 255.576774 
L 104.980984 255.344516 
L 105.193816 254.88 
L 106.045146 254.88 
L 106.257978 252.789677 
L 106.470811 252.557419 
L 107.109308 252.557419 
L 107.534973 250.467097 
L 107.747806 250.467097 
L 107.960638 250.234839 
L 108.386303 250.234839 
L 108.599136 249.538065 
L 108.811968 249.538065 
L 109.0248 249.073548 
L 109.663298 249.073548 
L 109.87613 246.51871 
L 110.514628 246.51871 
L 110.72746 246.286452 
L 111.153125 246.286452 
L 111.365957 246.054194 
L 114.132779 246.054194 
L 114.345612 241.64129 
L 114.558444 241.409032 
L 115.622607 241.409032 
L 116.899601 238.621935 
L 117.112434 238.621935 
L 117.325266 238.157419 
L 118.176596 238.157419 
L 118.389429 237.692903 
L 118.815094 237.692903 
L 119.027926 236.531613 
L 119.240758 236.531613 
L 119.453591 236.299355 
L 119.666423 236.299355 
L 119.879256 236.067097 
L 120.092088 234.905806 
L 120.517753 234.905806 
L 120.730586 234.673548 
L 121.156251 233.28 
L 122.00758 231.654194 
L 122.220413 231.654194 
L 122.433245 230.957419 
L 122.646078 230.957419 
L 122.85891 230.492903 
L 123.284575 230.492903 
L 123.497408 230.260645 
L 125.625732 230.260645 
L 125.838565 230.028387 
L 126.26423 230.028387 
L 126.477062 229.099355 
L 126.689895 229.099355 
L 127.115559 228.634839 
L 133.074868 228.634839 
L 133.287701 228.402581 
L 135.203193 228.402581 
L 135.628858 227.24129 
L 137.331518 227.24129 
L 137.757182 226.544516 
L 138.39568 226.544516 
L 138.608512 226.312258 
L 138.821345 225.615484 
L 139.034177 225.383226 
L 139.24701 224.91871 
L 139.885507 224.91871 
L 140.311172 223.525161 
L 141.375334 223.525161 
L 141.588167 223.060645 
L 141.800999 223.060645 
L 142.013832 222.828387 
L 142.865161 222.828387 
L 143.077994 222.131613 
L 143.290826 222.131613 
L 143.503659 221.899355 
L 144.142156 221.899355 
L 144.354989 221.434839 
L 144.567821 221.434839 
L 144.780654 220.738065 
L 144.993486 220.738065 
L 145.206319 220.505806 
L 146.057648 220.505806 
L 146.270481 220.273548 
L 148.185973 220.273548 
L 148.398805 219.809032 
L 150.739962 219.809032 
L 150.952795 219.576774 
L 152.22979 219.576774 
L 152.442622 218.415484 
L 152.655455 218.183226 
L 157.337769 218.183226 
L 157.550601 217.950968 
L 161.594418 217.950968 
L 161.80725 217.254194 
L 166.0639 217.254194 
L 166.276732 217.021935 
L 167.766559 217.021935 
L 167.979392 216.789677 
L 169.682051 216.789677 
L 170.107716 215.860645 
L 170.746214 215.860645 
L 170.959046 215.628387 
L 171.171879 215.628387 
L 171.597544 215.163871 
L 172.236041 215.163871 
L 172.448873 214.699355 
L 173.300203 214.699355 
L 173.725868 214.234839 
L 179.685177 214.234839 
L 179.898009 213.538065 
L 180.110842 213.305806 
L 180.323674 213.305806 
L 180.536507 213.073548 
L 180.962172 213.073548 
L 181.175004 212.84129 
L 188.411308 212.84129 
L 188.62414 212.376774 
L 188.836973 212.376774 
L 189.049805 211.215484 
L 189.262638 205.409032 
L 189.688303 202.621935 
L 189.901135 202.621935 
L 190.3268 198.209032 
L 190.539632 197.047742 
L 190.752465 196.815484 
L 190.965297 193.563871 
L 191.17813 193.563871 
L 191.390962 188.686452 
L 191.816627 186.596129 
L 192.455125 186.596129 
L 192.667957 184.970323 
L 192.880789 184.505806 
L 194.583449 184.505806 
L 194.796282 181.71871 
L 198.627266 181.71871 
L 198.840098 177.538065 
L 199.052931 177.538065 
L 199.265763 177.305806 
L 199.478596 177.305806 
L 199.691428 176.84129 
L 199.904261 176.84129 
L 200.117093 176.609032 
L 200.968423 176.609032 
L 201.181255 176.376774 
L 208.630391 176.376774 
L 208.843224 176.144516 
L 210.333051 176.144516 
L 210.545884 175.912258 
L 212.461376 175.912258 
L 212.887041 175.447742 
L 214.376868 175.447742 
L 214.5897 175.215484 
L 217.782187 175.215484 
L 217.99502 174.750968 
L 226.295486 174.750968 
L 226.508318 174.51871 
L 235.021616 174.51871 
L 235.234449 171.034839 
L 237.362773 171.034839 
L 237.575606 170.802581 
L 237.788438 170.802581 
L 238.001271 170.570323 
L 238.214103 170.570323 
L 238.426936 170.338065 
L 241.193758 170.338065 
L 241.619423 169.873548 
L 242.045088 169.873548 
L 242.25792 167.31871 
L 244.386245 167.31871 
L 244.599077 165.925161 
L 245.024742 165.925161 
L 245.237574 165.692903 
L 246.088904 165.692903 
L 246.514569 165.228387 
L 250.558386 165.228387 
L 250.771218 164.763871 
L 268.861977 164.763871 
L 269.07481 157.796129 
L 269.287642 157.796129 
L 269.713307 157.099355 
L 269.92614 155.473548 
L 272.905794 155.473548 
L 273.118627 153.847742 
L 277.588108 153.847742 
L 278.013773 153.383226 
L 278.439438 153.383226 
L 278.652271 152.91871 
L 280.567763 152.91871 
L 280.780595 152.686452 
L 297.381527 152.686452 
L 297.594359 152.454194 
L 326.539574 152.454194 
L 326.752406 152.221935 
L 362.295427 152.221935 
L 362.721092 151.757419 
L 365.275082 151.757419 
L 365.487914 151.292903 
L 366.339244 151.292903 
L 366.764909 150.363871 
L 375.916705 150.363871 
L 375.916705 150.363871 
" clip-path="url(#p25dc6edd14)" style="fill: none; stroke: #db5f57; stroke-width: 1.2; stroke-linecap: round"/>
   </g>
   <g id="line2d_39">
    <path d="M 69.650795 486.789677 
L 70.714958 445.331613 
L 71.140623 432.557419 
L 71.353455 429.538065 
L 71.566288 428.144516 
L 72.204785 420.48 
L 72.63045 413.047742 
L 73.48178 407.009032 
L 73.694612 398.88 
L 74.33311 391.447742 
L 74.758774 384.015484 
L 74.971607 382.621935 
L 75.397272 371.473548 
L 76.035769 361.021935 
L 76.461434 354.51871 
L 76.887099 353.357419 
L 77.099932 352.428387 
L 77.738429 346.621935 
L 78.376926 341.976774 
L 79.015424 334.544516 
L 79.653921 330.596129 
L 79.866754 327.809032 
L 80.930916 322.467097 
L 81.143748 321.538065 
L 81.569413 317.821935 
L 82.420743 312.247742 
L 82.633575 312.015484 
L 82.846408 311.550968 
L 83.05924 310.389677 
L 83.272073 309.925161 
L 83.697738 307.138065 
L 84.123403 303.886452 
L 84.336235 303.654194 
L 84.549068 303.189677 
L 84.7619 302.260645 
L 84.974733 302.260645 
L 85.187565 301.563871 
L 85.400397 299.938065 
L 85.61323 299.24129 
L 85.826062 297.615484 
L 86.038895 296.91871 
L 86.251727 296.686452 
L 86.677392 295.525161 
L 86.890225 295.060645 
L 87.103057 295.060645 
L 87.31589 294.363871 
L 87.528722 294.131613 
L 87.741555 293.667097 
L 88.167219 293.667097 
L 88.380052 292.505806 
L 88.592884 290.647742 
L 89.018549 289.71871 
L 89.231382 289.71871 
L 89.444214 289.486452 
L 89.657047 289.021935 
L 90.721209 289.021935 
L 90.934041 288.789677 
L 91.146874 288.789677 
L 91.359706 287.860645 
L 91.572539 287.860645 
L 91.998204 286.699355 
L 92.211036 286.467097 
L 92.423869 286.467097 
L 92.636701 286.234839 
L 92.849534 285.770323 
L 93.062366 285.770323 
L 93.488031 285.073548 
L 93.913696 284.609032 
L 94.765026 284.609032 
L 95.616356 282.054194 
L 96.04202 281.125161 
L 96.254853 279.963871 
L 96.467685 279.731613 
L 96.680518 279.731613 
L 96.89335 278.802581 
L 97.319015 278.338065 
L 97.74468 278.338065 
L 97.957513 278.105806 
L 98.59601 278.105806 
L 98.808842 277.873548 
L 99.234507 277.873548 
L 99.44734 273.460645 
L 99.660172 272.531613 
L 99.873005 272.531613 
L 100.085837 271.602581 
L 100.29867 271.602581 
L 100.724335 270.905806 
L 101.149999 270.44129 
L 101.362832 270.44129 
L 101.575664 269.512258 
L 101.788497 269.512258 
L 102.001329 269.28 
L 102.214162 268.815484 
L 102.426994 268.815484 
L 102.852659 268.350968 
L 103.916821 268.350968 
L 104.129654 267.654194 
L 104.980984 267.654194 
L 105.193816 267.421935 
L 105.832314 267.421935 
L 106.257978 265.796129 
L 106.470811 263.938065 
L 107.322141 263.938065 
L 107.534973 263.24129 
L 107.960638 262.776774 
L 108.599136 262.776774 
L 109.0248 262.312258 
L 109.450465 262.312258 
L 109.663298 260.91871 
L 109.87613 260.91871 
L 110.088963 259.757419 
L 110.72746 258.596129 
L 110.940293 258.596129 
L 111.153125 258.131613 
L 111.365957 258.131613 
L 111.57879 257.434839 
L 112.004455 256.970323 
L 112.217287 256.970323 
L 112.642952 256.273548 
L 113.919947 256.273548 
L 114.558444 255.576774 
L 115.196942 255.576774 
L 115.409774 255.344516 
L 115.835439 255.344516 
L 116.048272 254.88 
L 116.261104 254.88 
L 116.473937 253.950968 
L 116.686769 253.71871 
L 116.899601 252.557419 
L 117.538099 252.557419 
L 117.750931 252.325161 
L 118.176596 252.325161 
L 118.602261 251.628387 
L 119.027926 251.628387 
L 119.240758 251.396129 
L 119.666423 251.396129 
L 119.879256 251.163871 
L 120.092088 250.002581 
L 120.517753 250.002581 
L 120.730586 249.538065 
L 120.943418 248.376774 
L 121.156251 248.144516 
L 121.369083 248.144516 
L 122.00758 246.750968 
L 122.433245 246.750968 
L 122.646078 246.054194 
L 122.85891 245.821935 
L 123.71024 245.821935 
L 123.923073 245.589677 
L 124.987235 245.589677 
L 125.200067 245.357419 
L 125.838565 245.357419 
L 126.689895 244.428387 
L 127.115559 244.428387 
L 127.541224 243.963871 
L 127.966889 243.963871 
L 128.179722 243.731613 
L 128.392554 243.731613 
L 128.605387 243.499355 
L 134.351863 243.499355 
L 134.564696 243.267097 
L 134.777528 243.267097 
L 134.99036 242.802581 
L 136.054523 242.802581 
L 136.267355 242.570323 
L 137.118685 242.570323 
L 137.331518 242.338065 
L 137.757182 242.338065 
L 137.970015 242.105806 
L 138.608512 242.105806 
L 138.821345 241.873548 
L 139.034177 240.712258 
L 139.24701 240.712258 
L 139.885507 240.015484 
L 140.09834 240.015484 
L 140.311172 239.550968 
L 140.524004 239.550968 
L 140.736837 239.31871 
L 141.162502 239.31871 
L 141.375334 239.086452 
L 142.652329 239.086452 
L 142.865161 238.621935 
L 143.503659 238.621935 
L 143.716491 238.389677 
L 144.142156 238.389677 
L 144.354989 238.157419 
L 144.567821 238.157419 
L 144.780654 237.925161 
L 144.993486 237.925161 
L 145.206319 237.692903 
L 145.631983 237.692903 
L 146.057648 237.228387 
L 147.760308 237.228387 
L 147.973141 236.996129 
L 148.185973 236.996129 
L 148.398805 236.531613 
L 148.82447 236.531613 
L 149.037303 236.299355 
L 149.250135 236.299355 
L 149.462968 236.067097 
L 149.888633 236.067097 
L 150.101465 235.834839 
L 151.165627 235.834839 
L 151.37846 235.602581 
L 151.591292 235.602581 
L 151.804125 235.370323 
L 152.016957 234.905806 
L 152.442622 234.905806 
L 152.655455 234.673548 
L 155.209444 234.673548 
L 155.422277 234.44129 
L 160.317423 234.44129 
L 160.530256 234.209032 
L 168.830722 234.209032 
L 169.043554 233.976774 
L 169.256386 233.976774 
L 169.469219 233.744516 
L 170.320549 233.744516 
L 170.533381 233.512258 
L 170.959046 233.512258 
L 171.171879 233.047742 
L 171.384711 233.047742 
L 171.597544 232.815484 
L 172.236041 232.815484 
L 172.448873 232.350968 
L 173.513036 232.350968 
L 173.725868 232.11871 
L 175.64136 232.11871 
L 175.854193 231.654194 
L 177.982517 231.654194 
L 178.19535 231.421935 
L 178.833847 231.421935 
L 179.04668 231.189677 
L 180.323674 231.189677 
L 180.536507 230.725161 
L 182.451999 230.725161 
L 182.664831 230.492903 
L 186.495816 230.492903 
L 186.708648 230.260645 
L 189.049805 230.260645 
L 189.47547 221.899355 
L 189.688303 220.505806 
L 189.901135 220.273548 
L 190.3268 217.254194 
L 190.539632 216.557419 
L 190.752465 215.396129 
L 191.17813 208.892903 
L 191.816627 205.873548 
L 192.02946 205.176774 
L 192.455125 205.176774 
L 192.880789 204.247742 
L 193.093622 203.31871 
L 193.306454 203.086452 
L 193.732119 203.086452 
L 193.944952 202.854194 
L 194.157784 202.157419 
L 194.370617 202.157419 
L 194.583449 201.692903 
L 195.009114 201.692903 
L 195.647611 200.996129 
L 196.073276 200.996129 
L 196.286109 200.531613 
L 197.350271 200.531613 
L 197.563104 198.905806 
L 197.775936 198.44129 
L 198.201601 198.44129 
L 198.414433 197.976774 
L 198.840098 197.976774 
L 199.052931 197.512258 
L 199.265763 197.512258 
L 199.478596 197.047742 
L 199.904261 197.047742 
L 200.117093 196.815484 
L 200.329926 196.815484 
L 200.542758 196.583226 
L 203.735245 196.583226 
L 203.948077 196.350968 
L 208.417559 196.350968 
L 208.630391 196.11871 
L 210.333051 196.11871 
L 210.545884 195.886452 
L 212.674208 195.886452 
L 212.887041 195.654194 
L 217.782187 195.654194 
L 218.207852 194.957419 
L 220.974674 194.957419 
L 221.187507 194.725161 
L 222.038836 194.725161 
L 222.464501 194.260645 
L 223.954329 194.260645 
L 224.167161 194.028387 
L 226.508318 194.028387 
L 226.72115 193.796129 
L 230.764967 193.796129 
L 230.9778 193.099355 
L 231.190632 193.099355 
L 231.403465 192.867097 
L 237.362773 192.867097 
L 237.575606 192.634839 
L 238.001271 192.634839 
L 238.214103 192.402581 
L 238.426936 192.402581 
L 238.639768 192.170323 
L 241.193758 192.170323 
L 241.40659 191.705806 
L 241.619423 191.705806 
L 242.045088 189.615484 
L 242.25792 189.150968 
L 242.683585 189.150968 
L 242.896417 188.454194 
L 243.10925 188.454194 
L 243.322082 187.989677 
L 245.024742 187.989677 
L 245.237574 187.757419 
L 250.558386 187.757419 
L 250.771218 187.525161 
L 251.622548 187.525161 
L 251.835381 187.292903 
L 252.261046 187.292903 
L 252.473878 186.828387 
L 255.2407 186.828387 
L 255.453533 186.596129 
L 258.007522 186.596129 
L 258.220354 186.363871 
L 261.625674 186.363871 
L 261.838506 185.899355 
L 262.051339 183.112258 
L 262.264171 182.183226 
L 267.584983 182.183226 
L 268.010648 181.486452 
L 268.861977 181.486452 
L 269.07481 181.021935 
L 269.500475 181.021935 
L 269.713307 180.789677 
L 269.92614 180.325161 
L 270.138972 180.325161 
L 270.351805 178.467097 
L 270.564637 177.770323 
L 272.267297 177.770323 
L 272.480129 177.538065 
L 275.034119 177.538065 
L 275.246951 177.305806 
L 275.459784 177.305806 
L 275.672616 177.073548 
L 278.013773 177.073548 
L 278.226606 176.84129 
L 278.439438 176.84129 
L 278.652271 176.609032 
L 292.060716 176.609032 
L 292.273548 176.376774 
L 313.131129 176.376774 
L 313.343961 176.144516 
L 326.539574 176.144516 
L 326.752406 175.912258 
L 332.924548 175.912258 
L 333.13738 175.68 
L 344.843165 175.68 
L 345.055998 175.447742 
L 359.95427 175.447742 
L 360.167103 175.215484 
L 362.295427 175.215484 
L 362.50826 174.983226 
L 362.721092 174.983226 
L 362.933925 174.750968 
L 364.636584 174.750968 
L 365.275082 174.054194 
L 365.700746 174.054194 
L 365.913579 173.821935 
L 366.977741 173.821935 
L 367.190574 173.357419 
L 375.916705 173.357419 
L 375.916705 173.357419 
" clip-path="url(#p25dc6edd14)" style="fill: none; stroke: #b9db57; stroke-width: 1.2; stroke-linecap: round"/>
   </g>
   <g id="line2d_40">
    <path d="M 69.650795 489.460645 
L 69.863628 485.512258 
L 70.502125 485.512258 
L 70.92779 435.576774 
L 71.140623 432.789677 
L 71.353455 427.447742 
L 71.991953 420.247742 
L 72.204785 417.460645 
L 72.417617 411.886452 
L 72.843282 408.634839 
L 73.056115 407.938065 
L 73.907445 407.938065 
L 74.120277 390.983226 
L 74.33311 389.589677 
L 74.545942 387.267097 
L 74.758774 382.389677 
L 75.822937 382.389677 
L 76.035769 357.770323 
L 76.674267 350.338065 
L 77.312764 348.48 
L 77.525596 348.247742 
L 77.738429 348.247742 
L 78.164094 347.783226 
L 78.376926 336.402581 
L 78.589759 334.776774 
L 79.015424 329.434839 
L 79.441089 327.576774 
L 79.653921 324.789677 
L 79.866754 323.860645 
L 80.079586 323.860645 
L 80.292418 323.628387 
L 80.505251 323.628387 
L 80.718083 323.396129 
L 80.930916 317.821935 
L 81.143748 317.589677 
L 81.356581 317.589677 
L 81.782246 317.125161 
L 81.995078 317.125161 
L 82.207911 307.370323 
L 82.420743 305.744516 
L 83.05924 304.11871 
L 83.697738 300.867097 
L 83.91057 300.170323 
L 84.123403 297.847742 
L 84.336235 296.91871 
L 85.400397 296.91871 
L 85.61323 291.576774 
L 85.826062 291.112258 
L 86.038895 289.021935 
L 86.46456 287.860645 
L 86.890225 287.396129 
L 87.31589 286.467097 
L 87.528722 286.467097 
L 87.741555 285.305806 
L 87.954387 285.073548 
L 88.167219 284.144516 
L 88.380052 283.912258 
L 88.592884 282.51871 
L 88.805717 282.51871 
L 89.018549 280.660645 
L 89.231382 280.660645 
L 89.657047 280.196129 
L 89.869879 280.196129 
L 90.082712 279.963871 
L 90.508376 279.963871 
L 90.721209 279.731613 
L 91.359706 279.731613 
L 91.572539 277.176774 
L 91.785371 276.712258 
L 91.998204 276.712258 
L 92.211036 276.48 
L 92.423869 276.48 
L 92.636701 276.247742 
L 92.849534 276.247742 
L 93.062366 274.621935 
L 93.275198 274.157419 
L 93.488031 274.157419 
L 93.700863 273.460645 
L 94.552193 273.460645 
L 94.765026 273.228387 
L 94.977858 273.228387 
L 95.190691 272.299355 
L 95.403523 272.299355 
L 95.616356 270.673548 
L 95.829188 269.976774 
L 96.04202 269.976774 
L 96.254853 268.350968 
L 97.106183 266.725161 
L 97.319015 266.492903 
L 98.808842 266.492903 
L 99.021675 263.705806 
L 99.234507 263.705806 
L 99.44734 260.91871 
L 99.873005 258.828387 
L 100.29867 258.828387 
L 100.724335 258.131613 
L 100.937167 258.131613 
L 101.362832 257.434839 
L 101.575664 257.434839 
L 101.788497 256.273548 
L 102.001329 256.273548 
L 102.426994 255.809032 
L 102.639827 255.809032 
L 102.852659 255.344516 
L 103.703989 255.344516 
L 103.916821 255.112258 
L 104.129654 255.112258 
L 104.555319 254.415484 
L 105.193816 254.415484 
L 105.406649 253.71871 
L 105.832314 253.71871 
L 106.045146 252.789677 
L 106.257978 251.163871 
L 106.470811 250.467097 
L 107.322141 250.467097 
L 107.534973 249.770323 
L 108.599136 249.770323 
L 108.811968 248.84129 
L 109.237633 248.84129 
L 109.450465 248.376774 
L 109.663298 248.376774 
L 109.87613 245.589677 
L 110.088963 245.589677 
L 110.301795 244.660645 
L 110.514628 244.428387 
L 110.72746 243.963871 
L 110.940293 243.963871 
L 111.57879 242.802581 
L 111.791622 242.570323 
L 112.004455 242.105806 
L 112.43012 240.712258 
L 113.28145 240.712258 
L 113.494282 240.247742 
L 113.919947 240.247742 
L 114.345612 239.783226 
L 114.558444 239.783226 
L 114.771277 239.550968 
L 115.622607 239.550968 
L 115.835439 239.086452 
L 116.261104 239.086452 
L 116.473937 237.925161 
L 117.112434 237.925161 
L 117.325266 236.531613 
L 119.240758 236.531613 
L 119.453591 234.905806 
L 119.879256 234.44129 
L 120.092088 233.976774 
L 120.304921 233.976774 
L 120.517753 233.28 
L 120.730586 233.047742 
L 120.943418 231.654194 
L 121.156251 231.189677 
L 121.369083 231.189677 
L 121.581916 230.492903 
L 121.794748 230.260645 
L 122.220413 229.563871 
L 122.433245 229.331613 
L 122.646078 228.867097 
L 123.497408 228.867097 
L 123.71024 228.634839 
L 124.987235 228.634839 
L 125.200067 228.170323 
L 126.477062 228.170323 
L 126.689895 227.009032 
L 126.902727 227.009032 
L 127.115559 226.776774 
L 134.139031 226.776774 
L 134.351863 226.544516 
L 134.777528 226.544516 
L 134.99036 226.08 
L 135.416025 226.08 
L 135.628858 225.615484 
L 137.331518 225.615484 
L 137.757182 225.150968 
L 138.608512 225.150968 
L 138.821345 224.221935 
L 139.034177 224.221935 
L 139.459842 223.060645 
L 140.311172 223.060645 
L 140.524004 222.363871 
L 140.736837 222.363871 
L 140.949669 221.899355 
L 142.226664 221.899355 
L 142.439497 221.667097 
L 142.652329 221.667097 
L 143.077994 220.970323 
L 143.290826 220.970323 
L 143.503659 220.738065 
L 144.142156 220.738065 
L 144.354989 220.273548 
L 144.567821 220.273548 
L 144.780654 219.576774 
L 145.631983 219.576774 
L 146.057648 219.112258 
L 148.398805 219.112258 
L 148.611638 218.415484 
L 149.250135 218.415484 
L 149.462968 217.950968 
L 149.888633 217.950968 
L 150.101465 217.71871 
L 151.591292 217.71871 
L 152.016957 217.254194 
L 152.655455 217.254194 
L 152.868287 217.021935 
L 154.358114 217.021935 
L 154.570947 216.789677 
L 162.871413 216.789677 
L 163.084245 216.092903 
L 166.915229 216.092903 
L 167.128062 215.860645 
L 169.682051 215.860645 
L 169.894884 215.396129 
L 170.959046 215.396129 
L 171.171879 214.931613 
L 171.384711 214.931613 
L 171.810376 214.467097 
L 172.236041 214.467097 
L 172.448873 214.002581 
L 172.874538 214.002581 
L 173.087371 213.770323 
L 173.725868 213.770323 
L 173.938701 213.305806 
L 175.854193 213.305806 
L 176.067025 212.84129 
L 178.833847 212.84129 
L 179.04668 212.609032 
L 179.898009 212.609032 
L 180.110842 212.376774 
L 180.323674 212.376774 
L 180.749339 211.912258 
L 184.793156 211.912258 
L 185.005988 211.68 
L 189.262638 211.68 
L 189.47547 203.086452 
L 189.688303 200.996129 
L 189.901135 200.763871 
L 190.3268 200.763871 
L 190.539632 197.047742 
L 191.390962 197.047742 
L 191.603795 186.596129 
L 191.816627 186.131613 
L 192.02946 184.505806 
L 192.455125 184.505806 
L 192.667957 183.809032 
L 193.519287 183.809032 
L 193.732119 182.183226 
L 193.944952 182.183226 
L 194.157784 181.486452 
L 195.009114 181.486452 
L 195.221947 180.325161 
L 195.434779 180.325161 
L 195.860444 179.628387 
L 196.711774 179.628387 
L 196.924606 179.163871 
L 197.775936 179.163871 
L 197.988768 176.84129 
L 199.265763 176.84129 
L 199.478596 175.447742 
L 202.671083 175.447742 
L 203.096748 174.51871 
L 203.30958 174.51871 
L 203.522412 174.286452 
L 213.525538 174.286452 
L 213.73837 173.589677 
L 215.015365 173.589677 
L 215.228198 173.357419 
L 215.653863 173.357419 
L 215.866695 173.125161 
L 217.782187 173.125161 
L 217.99502 172.660645 
L 220.974674 172.660645 
L 221.187507 172.428387 
L 222.890166 172.428387 
L 223.102999 171.499355 
L 225.869821 171.499355 
L 226.082653 170.802581 
L 226.72115 170.802581 
L 226.933983 170.338065 
L 229.487972 170.338065 
L 229.913637 169.873548 
L 230.764967 169.873548 
L 230.9778 169.176774 
L 231.190632 169.176774 
L 231.403465 168.944516 
L 239.703931 168.944516 
L 239.916763 168.247742 
L 245.876072 168.247742 
L 246.088904 163.602581 
L 252.473878 163.602581 
L 252.686711 162.673548 
L 255.2407 162.673548 
L 255.453533 162.44129 
L 261.838506 162.44129 
L 262.051339 158.492903 
L 262.264171 158.260645 
L 262.477004 158.260645 
L 262.689836 157.563871 
L 263.115501 157.563871 
L 263.328334 157.331613 
L 267.797815 157.331613 
L 268.010648 156.402581 
L 268.436313 156.402581 
L 269.07481 155.705806 
L 269.287642 155.705806 
L 269.92614 154.312258 
L 270.138972 152.454194 
L 270.351805 152.221935 
L 271.415967 152.221935 
L 271.628799 151.989677 
L 272.480129 151.989677 
L 272.692962 151.757419 
L 296.955862 151.757419 
L 297.168695 150.828387 
L 313.131129 150.828387 
L 313.343961 150.596129 
L 333.13738 150.596129 
L 333.350213 150.363871 
L 373.78838 150.363871 
L 374.001212 148.273548 
L 375.916705 148.273548 
L 375.916705 148.273548 
" clip-path="url(#p25dc6edd14)" style="fill: none; stroke: #57db94; stroke-width: 1.2; stroke-linecap: round"/>
   </g>
   <g id="line2d_41">
    <path d="M 69.650795 487.254194 
L 70.92779 435.112258 
L 71.353455 423.267097 
L 71.991953 415.370323 
L 72.63045 402.828387 
L 73.48178 391.912258 
L 73.694612 385.176774 
L 73.907445 382.389677 
L 74.33311 379.834839 
L 74.971607 364.273548 
L 75.184439 361.71871 
L 75.610104 350.802581 
L 75.822937 350.105806 
L 76.248602 338.492903 
L 76.674267 334.776774 
L 76.887099 334.312258 
L 77.099932 333.150968 
L 77.312764 330.596129 
L 77.525596 330.363871 
L 77.738429 326.415484 
L 77.951261 325.021935 
L 78.376926 318.750968 
L 78.589759 316.892903 
L 78.802591 316.196129 
L 79.228256 309.692903 
L 79.441089 308.531613 
L 79.653921 305.976774 
L 79.866754 304.815484 
L 80.079586 302.028387 
L 81.143748 295.989677 
L 81.356581 293.667097 
L 81.569413 293.434839 
L 81.995078 287.860645 
L 82.420743 283.68 
L 82.633575 282.51871 
L 83.05924 281.589677 
L 83.484905 278.802581 
L 84.123403 274.621935 
L 84.336235 271.370323 
L 84.549068 271.370323 
L 85.187565 268.350968 
L 85.61323 261.847742 
L 86.038895 259.757419 
L 86.251727 258.596129 
L 86.46456 258.596129 
L 86.890225 256.970323 
L 87.103057 256.738065 
L 87.741555 254.647742 
L 87.954387 254.415484 
L 88.167219 253.486452 
L 88.380052 253.254194 
L 88.592884 250.931613 
L 88.805717 250.002581 
L 89.018549 249.770323 
L 89.231382 248.84129 
L 89.444214 248.84129 
L 89.657047 248.609032 
L 89.869879 248.609032 
L 90.721209 246.51871 
L 90.934041 245.821935 
L 91.146874 243.963871 
L 91.359706 243.963871 
L 91.572539 243.731613 
L 91.785371 243.034839 
L 92.423869 243.034839 
L 93.275198 239.783226 
L 93.488031 239.783226 
L 93.913696 237.460645 
L 94.339361 236.996129 
L 95.403523 234.44129 
L 95.829188 231.654194 
L 96.04202 231.421935 
L 96.89335 228.867097 
L 97.106183 228.867097 
L 97.319015 228.170323 
L 98.383177 228.170323 
L 98.808842 226.544516 
L 99.021675 221.899355 
L 99.660172 220.738065 
L 99.873005 219.112258 
L 100.724335 217.254194 
L 100.937167 217.254194 
L 101.362832 215.860645 
L 101.788497 213.770323 
L 102.001329 213.538065 
L 102.214162 213.073548 
L 102.426994 213.073548 
L 102.852659 212.609032 
L 103.278324 212.609032 
L 103.491157 212.376774 
L 103.703989 212.376774 
L 103.916821 212.144516 
L 104.342486 212.144516 
L 104.555319 211.912258 
L 104.980984 211.912258 
L 105.406649 211.215484 
L 105.619481 211.215484 
L 105.832314 210.750968 
L 106.045146 210.750968 
L 106.257978 208.196129 
L 106.470811 207.499355 
L 106.683643 207.499355 
L 106.896476 206.802581 
L 107.322141 206.802581 
L 107.747806 205.64129 
L 108.173471 205.64129 
L 108.599136 205.176774 
L 109.237633 204.015484 
L 109.663298 201.228387 
L 109.87613 200.299355 
L 110.088963 200.067097 
L 110.514628 198.905806 
L 110.940293 198.44129 
L 111.365957 196.815484 
L 111.57879 196.583226 
L 112.642952 194.492903 
L 113.068617 194.028387 
L 113.28145 194.028387 
L 113.707115 193.331613 
L 113.919947 193.331613 
L 114.132779 193.099355 
L 114.345612 193.099355 
L 114.558444 192.867097 
L 115.622607 192.867097 
L 116.048272 192.402581 
L 116.473937 190.776774 
L 117.112434 190.08 
L 117.538099 190.08 
L 117.750931 189.847742 
L 118.176596 189.847742 
L 118.389429 189.150968 
L 118.602261 189.150968 
L 119.027926 188.221935 
L 119.240758 188.221935 
L 119.453591 187.989677 
L 119.879256 187.989677 
L 120.092088 187.757419 
L 120.304921 187.757419 
L 120.517753 186.363871 
L 120.730586 186.363871 
L 121.581916 181.021935 
L 122.220413 179.628387 
L 122.646078 177.073548 
L 122.85891 177.073548 
L 123.071743 176.609032 
L 123.497408 176.609032 
L 123.71024 176.376774 
L 124.774402 176.376774 
L 124.987235 176.144516 
L 125.838565 176.144516 
L 126.051397 175.447742 
L 126.26423 175.447742 
L 126.689895 174.983226 
L 126.902727 174.983226 
L 127.115559 174.750968 
L 128.179722 174.750968 
L 128.392554 174.51871 
L 133.074868 174.51871 
L 133.287701 174.286452 
L 133.500533 174.286452 
L 133.926198 173.821935 
L 134.139031 173.821935 
L 134.351863 173.589677 
L 134.777528 173.589677 
L 134.99036 173.125161 
L 135.416025 173.125161 
L 135.628858 172.428387 
L 137.331518 172.428387 
L 137.757182 171.963871 
L 138.39568 171.963871 
L 138.608512 171.267097 
L 139.034177 171.267097 
L 139.24701 171.034839 
L 140.311172 171.034839 
L 140.524004 169.873548 
L 140.949669 169.176774 
L 141.162502 169.176774 
L 141.375334 168.944516 
L 141.800999 168.944516 
L 142.013832 168.712258 
L 142.439497 168.712258 
L 142.652329 168.48 
L 143.077994 167.783226 
L 143.290826 167.783226 
L 143.503659 167.550968 
L 143.929324 167.550968 
L 144.354989 167.086452 
L 144.567821 167.086452 
L 144.780654 166.157419 
L 144.993486 165.925161 
L 147.121811 165.925161 
L 147.334643 165.692903 
L 147.760308 165.692903 
L 147.973141 165.228387 
L 148.185973 165.228387 
L 148.398805 164.763871 
L 148.82447 164.763871 
L 149.250135 164.067097 
L 150.101465 164.067097 
L 150.314298 163.834839 
L 151.804125 163.834839 
L 152.016957 163.370323 
L 152.442622 163.370323 
L 152.655455 163.138065 
L 153.08112 163.138065 
L 153.293952 162.905806 
L 155.847942 162.905806 
L 156.060774 162.673548 
L 158.827596 162.673548 
L 159.040428 162.44129 
L 160.317423 162.44129 
L 160.530256 162.209032 
L 161.168753 162.209032 
L 161.381585 161.976774 
L 166.702397 161.976774 
L 166.915229 161.744516 
L 168.830722 161.744516 
L 169.256386 161.28 
L 170.533381 161.28 
L 170.746214 160.815484 
L 170.959046 160.815484 
L 171.171879 160.583226 
L 172.023208 160.583226 
L 172.448873 159.886452 
L 173.725868 159.886452 
L 173.938701 159.654194 
L 175.002863 159.654194 
L 175.215695 159.421935 
L 175.64136 159.421935 
L 175.854193 159.189677 
L 188.198475 159.189677 
L 188.836973 156.867097 
L 189.688303 148.04129 
L 189.901135 148.04129 
L 190.113967 147.809032 
L 190.3268 144.557419 
L 190.539632 143.396129 
L 190.752465 143.163871 
L 191.17813 134.802581 
L 191.390962 134.570323 
L 191.603795 133.176774 
L 191.816627 132.712258 
L 192.02946 131.783226 
L 192.242292 131.550968 
L 193.519287 128.996129 
L 193.732119 128.996129 
L 193.944952 128.531613 
L 194.157784 127.602581 
L 194.370617 127.370323 
L 195.221947 127.370323 
L 195.434779 127.138065 
L 195.647611 126.673548 
L 196.073276 126.673548 
L 196.286109 126.209032 
L 196.924606 126.209032 
L 197.137439 125.744516 
L 197.350271 124.350968 
L 197.775936 123.886452 
L 198.201601 123.886452 
L 198.414433 123.421935 
L 198.627266 123.421935 
L 198.840098 122.957419 
L 199.265763 122.957419 
L 199.478596 122.725161 
L 199.691428 122.725161 
L 200.117093 122.260645 
L 208.417559 122.260645 
L 208.630391 122.028387 
L 210.333051 122.028387 
L 210.545884 121.796129 
L 210.971549 121.796129 
L 211.184381 121.563871 
L 212.035711 121.563871 
L 212.248543 121.331613 
L 214.376868 121.331613 
L 214.5897 121.099355 
L 216.718025 121.099355 
L 216.930857 120.867097 
L 217.782187 120.867097 
L 217.99502 120.402581 
L 221.187507 120.402581 
L 221.400339 120.170323 
L 222.038836 120.170323 
L 222.251669 119.009032 
L 222.464501 118.776774 
L 223.954329 118.776774 
L 224.167161 118.08 
L 225.444156 118.08 
L 225.656988 117.847742 
L 226.295486 117.847742 
L 226.508318 117.615484 
L 226.933983 117.615484 
L 227.146815 117.383226 
L 229.27514 117.383226 
L 229.700805 116.91871 
L 230.764967 116.91871 
L 230.9778 116.221935 
L 231.190632 115.989677 
L 234.170287 115.989677 
L 234.383119 115.757419 
L 237.362773 115.757419 
L 237.575606 115.525161 
L 237.788438 115.525161 
L 238.214103 115.060645 
L 241.40659 115.060645 
L 241.832255 112.505806 
L 242.045088 112.505806 
L 242.25792 112.04129 
L 242.470752 112.04129 
L 242.683585 111.344516 
L 242.896417 111.344516 
L 243.10925 110.88 
L 243.322082 110.88 
L 243.534915 110.647742 
L 243.747747 110.647742 
L 243.96058 110.415484 
L 245.237574 110.415484 
L 245.450407 110.183226 
L 250.132721 110.183226 
L 250.345553 109.950968 
L 250.984051 109.950968 
L 251.196883 109.71871 
L 252.261046 109.71871 
L 252.473878 109.254194 
L 255.2407 109.254194 
L 255.453533 109.021935 
L 261.625674 109.021935 
L 261.838506 105.305806 
L 262.264171 103.912258 
L 267.584983 103.912258 
L 267.797815 102.750968 
L 268.010648 102.750968 
L 268.22348 102.286452 
L 268.649145 102.286452 
L 269.287642 101.589677 
L 269.500475 101.589677 
L 269.713307 101.357419 
L 269.92614 100.892903 
L 270.138972 98.802581 
L 270.351805 98.338065 
L 282.483255 98.338065 
L 282.696087 97.409032 
L 341.437846 97.409032 
L 341.650679 97.176774 
L 350.163977 97.176774 
L 350.376809 96.944516 
L 357.825945 96.944516 
L 358.038778 96.712258 
L 360.379935 96.712258 
L 360.592767 96.48 
L 363.146757 96.48 
L 363.359589 96.247742 
L 364.423752 96.247742 
L 364.636584 96.015484 
L 365.062249 96.015484 
L 365.275082 95.783226 
L 365.487914 95.783226 
L 365.700746 95.086452 
L 375.49104 95.086452 
L 375.703872 94.621935 
L 375.916705 94.621935 
L 375.916705 94.621935 
" clip-path="url(#p25dc6edd14)" style="fill: none; stroke: #5784db; stroke-width: 1.2; stroke-linecap: round"/>
   </g>
   <g id="line2d_42">
    <path d="M 69.650795 486.325161 
L 70.289293 457.409032 
L 71.353455 422.338065 
L 72.204785 409.796129 
L 72.417617 403.525161 
L 73.268947 394.699355 
L 73.694612 384.247742 
L 74.545942 371.24129 
L 75.610104 348.015484 
L 76.248602 335.24129 
L 76.461434 333.383226 
L 76.887099 331.757419 
L 77.099932 330.828387 
L 77.312764 327.344516 
L 77.525596 326.415484 
L 80.079586 299.24129 
L 81.143748 293.434839 
L 81.782246 286.699355 
L 82.633575 279.731613 
L 83.05924 278.338065 
L 83.697738 274.157419 
L 84.336235 268.350968 
L 84.549068 267.886452 
L 84.7619 266.260645 
L 85.187565 265.099355 
L 85.61323 258.828387 
L 85.826062 257.202581 
L 86.038895 256.505806 
L 86.251727 255.344516 
L 86.46456 255.112258 
L 86.890225 253.71871 
L 87.103057 253.486452 
L 87.741555 251.396129 
L 87.954387 251.163871 
L 88.167219 249.770323 
L 88.380052 249.305806 
L 88.592884 247.447742 
L 89.231382 245.589677 
L 89.657047 245.125161 
L 89.869879 245.125161 
L 90.082712 244.892903 
L 90.295544 244.196129 
L 90.508376 244.196129 
L 90.934041 242.338065 
L 91.146874 240.712258 
L 91.359706 240.712258 
L 91.572539 240.48 
L 91.785371 239.783226 
L 92.423869 239.783226 
L 93.062366 236.996129 
L 93.488031 236.531613 
L 93.700863 234.673548 
L 94.339361 233.976774 
L 94.977858 232.583226 
L 95.403523 230.492903 
L 95.829188 228.634839 
L 96.04202 228.402581 
L 96.254853 227.24129 
L 96.467685 227.009032 
L 96.89335 225.847742 
L 97.106183 225.615484 
L 97.319015 225.150968 
L 98.383177 225.150968 
L 98.59601 224.454194 
L 98.808842 223.292903 
L 99.021675 218.88 
L 99.660172 217.254194 
L 99.873005 216.092903 
L 101.362832 212.84129 
L 101.788497 210.750968 
L 102.001329 210.51871 
L 102.214162 210.054194 
L 102.426994 210.054194 
L 102.639827 209.589677 
L 103.278324 209.589677 
L 103.491157 209.357419 
L 103.703989 209.357419 
L 103.916821 209.125161 
L 104.342486 209.125161 
L 104.555319 208.892903 
L 104.980984 208.892903 
L 105.193816 208.196129 
L 105.406649 207.963871 
L 105.619481 207.963871 
L 105.832314 207.731613 
L 106.045146 207.034839 
L 106.257978 205.176774 
L 106.470811 204.48 
L 106.683643 204.48 
L 106.896476 203.783226 
L 107.322141 203.783226 
L 107.747806 202.621935 
L 107.960638 202.389677 
L 108.386303 202.389677 
L 108.599136 202.157419 
L 108.811968 201.692903 
L 109.0248 200.763871 
L 109.237633 200.763871 
L 109.87613 197.047742 
L 110.088963 196.815484 
L 110.72746 195.654194 
L 110.940293 195.421935 
L 111.365957 193.563871 
L 111.57879 193.563871 
L 112.217287 191.705806 
L 113.068617 190.776774 
L 113.28145 190.776774 
L 113.707115 190.08 
L 113.919947 190.08 
L 114.132779 189.847742 
L 114.345612 189.847742 
L 114.558444 189.615484 
L 115.622607 189.615484 
L 115.835439 189.150968 
L 116.048272 189.150968 
L 116.473937 187.525161 
L 116.686769 187.292903 
L 117.112434 186.596129 
L 117.538099 186.596129 
L 117.750931 186.363871 
L 118.176596 186.363871 
L 118.389429 185.667097 
L 118.602261 185.667097 
L 119.027926 184.738065 
L 119.240758 184.738065 
L 119.453591 184.505806 
L 119.666423 184.505806 
L 119.879256 184.273548 
L 120.092088 183.112258 
L 120.517753 183.112258 
L 120.730586 182.88 
L 121.156251 180.325161 
L 121.581916 177.770323 
L 121.794748 176.84129 
L 122.00758 176.609032 
L 122.220413 176.144516 
L 122.646078 173.821935 
L 122.85891 173.821935 
L 123.071743 173.357419 
L 123.284575 173.357419 
L 123.497408 173.125161 
L 124.774402 173.125161 
L 124.987235 172.892903 
L 125.838565 172.892903 
L 126.051397 172.196129 
L 126.26423 172.196129 
L 126.689895 171.731613 
L 126.902727 171.731613 
L 127.115559 171.499355 
L 128.179722 171.499355 
L 128.392554 171.267097 
L 133.074868 171.267097 
L 133.287701 171.034839 
L 133.500533 171.034839 
L 133.926198 170.570323 
L 134.139031 170.570323 
L 134.351863 170.338065 
L 134.777528 170.338065 
L 134.99036 169.873548 
L 135.416025 169.873548 
L 135.628858 169.176774 
L 137.118685 169.176774 
L 137.331518 168.944516 
L 137.54435 168.944516 
L 137.757182 168.712258 
L 138.39568 168.712258 
L 138.608512 168.015484 
L 138.821345 167.783226 
L 139.459842 166.621935 
L 139.672675 166.621935 
L 139.885507 166.389677 
L 140.09834 166.389677 
L 140.311172 165.925161 
L 140.524004 165.925161 
L 140.949669 165.228387 
L 141.162502 165.228387 
L 141.375334 164.996129 
L 141.800999 164.996129 
L 142.013832 164.763871 
L 142.439497 164.763871 
L 142.652329 164.531613 
L 143.077994 163.834839 
L 143.290826 163.834839 
L 143.503659 163.602581 
L 143.929324 163.602581 
L 144.354989 163.138065 
L 144.567821 163.138065 
L 144.780654 162.209032 
L 144.993486 161.976774 
L 145.844816 161.976774 
L 146.057648 161.744516 
L 147.121811 161.744516 
L 147.334643 161.512258 
L 147.760308 161.512258 
L 147.973141 161.047742 
L 148.185973 161.047742 
L 148.398805 160.583226 
L 148.82447 160.583226 
L 149.250135 159.886452 
L 149.888633 159.886452 
L 150.101465 159.654194 
L 151.591292 159.654194 
L 152.016957 159.189677 
L 152.442622 159.189677 
L 152.655455 158.957419 
L 153.08112 158.957419 
L 153.293952 158.725161 
L 155.847942 158.725161 
L 156.060774 158.492903 
L 158.827596 158.492903 
L 159.040428 158.260645 
L 160.317423 158.260645 
L 160.530256 158.028387 
L 161.168753 158.028387 
L 161.381585 157.796129 
L 166.702397 157.796129 
L 166.915229 157.563871 
L 168.830722 157.563871 
L 169.256386 157.099355 
L 169.894884 157.099355 
L 170.107716 156.867097 
L 170.533381 156.867097 
L 170.746214 156.634839 
L 170.959046 156.634839 
L 171.171879 156.402581 
L 171.384711 156.402581 
L 171.597544 156.170323 
L 172.023208 156.170323 
L 172.448873 155.705806 
L 173.513036 155.705806 
L 173.725868 155.473548 
L 175.002863 155.473548 
L 175.215695 155.24129 
L 175.64136 155.24129 
L 175.854193 155.009032 
L 178.833847 155.009032 
L 179.04668 154.776774 
L 180.323674 154.776774 
L 180.536507 154.312258 
L 188.411308 154.312258 
L 188.836973 152.686452 
L 189.049805 150.363871 
L 189.47547 144.789677 
L 189.688303 143.396129 
L 189.901135 143.163871 
L 190.539632 138.286452 
L 190.752465 138.286452 
L 190.965297 132.712258 
L 191.17813 130.157419 
L 191.390962 129.692903 
L 191.816627 127.602581 
L 192.02946 126.673548 
L 192.242292 126.44129 
L 192.455125 126.44129 
L 192.880789 125.512258 
L 193.093622 124.583226 
L 193.306454 124.350968 
L 193.732119 124.350968 
L 193.944952 123.886452 
L 194.157784 122.957419 
L 194.370617 122.725161 
L 195.009114 122.725161 
L 195.647611 122.028387 
L 196.073276 122.028387 
L 196.286109 121.563871 
L 196.924606 121.563871 
L 197.137439 121.099355 
L 197.350271 119.705806 
L 197.775936 119.24129 
L 198.201601 119.24129 
L 198.414433 118.776774 
L 198.627266 118.776774 
L 198.840098 118.312258 
L 199.052931 118.312258 
L 199.478596 117.847742 
L 199.904261 117.847742 
L 200.117093 117.615484 
L 200.329926 117.615484 
L 200.542758 117.383226 
L 208.417559 117.383226 
L 208.630391 117.150968 
L 210.333051 117.150968 
L 210.545884 116.91871 
L 210.971549 116.91871 
L 211.184381 116.686452 
L 212.035711 116.686452 
L 212.248543 116.454194 
L 214.376868 116.454194 
L 214.5897 116.221935 
L 217.782187 116.221935 
L 217.99502 115.757419 
L 220.974674 115.757419 
L 221.187507 115.525161 
L 222.038836 115.525161 
L 222.251669 114.363871 
L 222.464501 114.131613 
L 223.954329 114.131613 
L 224.167161 113.434839 
L 225.444156 113.434839 
L 225.656988 113.202581 
L 226.295486 113.202581 
L 226.508318 112.738065 
L 229.27514 112.738065 
L 229.700805 112.273548 
L 230.764967 112.273548 
L 230.9778 111.576774 
L 231.190632 111.344516 
L 234.170287 111.344516 
L 234.383119 111.112258 
L 237.362773 111.112258 
L 237.575606 110.88 
L 237.788438 110.88 
L 238.214103 110.415484 
L 241.193758 110.415484 
L 241.40659 110.183226 
L 241.832255 107.860645 
L 242.045088 107.860645 
L 242.25792 107.396129 
L 242.470752 107.396129 
L 242.683585 106.699355 
L 242.896417 106.699355 
L 243.322082 106.002581 
L 243.747747 106.002581 
L 243.96058 105.770323 
L 245.024742 105.770323 
L 245.237574 105.538065 
L 250.132721 105.538065 
L 250.345553 105.305806 
L 250.558386 105.305806 
L 250.771218 105.073548 
L 252.261046 105.073548 
L 252.473878 104.609032 
L 255.2407 104.609032 
L 255.453533 104.376774 
L 261.625674 104.376774 
L 261.838506 100.660645 
L 262.264171 99.267097 
L 267.584983 99.267097 
L 267.797815 98.105806 
L 268.010648 98.105806 
L 268.22348 97.64129 
L 268.649145 97.64129 
L 269.500475 96.712258 
L 269.713307 96.247742 
L 269.92614 94.157419 
L 270.138972 93.925161 
L 270.351805 93.460645 
L 272.267297 93.460645 
L 272.480129 93.228387 
L 277.588108 93.228387 
L 278.013773 92.763871 
L 278.439438 92.763871 
L 278.652271 92.299355 
L 326.539574 92.299355 
L 326.752406 92.067097 
L 350.163977 92.067097 
L 350.376809 91.834839 
L 357.825945 91.834839 
L 358.038778 91.602581 
L 360.379935 91.602581 
L 360.592767 91.370323 
L 362.295427 91.370323 
L 362.721092 90.905806 
L 364.423752 90.905806 
L 364.636584 90.673548 
L 365.062249 90.673548 
L 365.275082 90.44129 
L 365.487914 90.44129 
L 365.700746 89.744516 
L 366.552076 89.744516 
L 366.764909 89.28 
L 375.916705 89.28 
L 375.916705 89.28 
" clip-path="url(#p25dc6edd14)" style="fill: none; stroke: #c957db; stroke-width: 1.2; stroke-linecap: round"/>
   </g>
   <g id="line2d_43"/>
   <g id="line2d_44"/>
   <g id="line2d_45"/>
   <g id="line2d_46"/>
   <g id="line2d_47"/>
   <g id="patch_3">
    <path d="M 54.3375 512.64 
L 54.3375 69.12 
" style="fill: none; stroke: #cccccc; stroke-linejoin: miter; stroke-linecap: square"/>
   </g>
   <g id="patch_4">
    <path d="M 54.3375 512.64 
L 391.23 512.64 
" style="fill: none; stroke: #cccccc; stroke-linejoin: miter; stroke-linecap: square"/>
   </g>
   <g id="text_40">
    <!-- Edge Coverage History -->
    <g style="fill: #262626" transform="translate(115.892262 63.12)scale(0.165888 -0.165888)">
     <defs>
      <path id="DejaVuSans-Bold-45" d="M 588 4666 
L 3834 4666 
L 3834 3756 
L 1791 3756 
L 1791 2888 
L 3713 2888 
L 3713 1978 
L 1791 1978 
L 1791 909 
L 3903 909 
L 3903 0 
L 588 0 
L 588 4666 
z
" transform="scale(0.015625)"/>
      <path id="DejaVuSans-Bold-64" d="M 2919 2988 
L 2919 4863 
L 4044 4863 
L 4044 0 
L 2919 0 
L 2919 506 
Q 2688 197 2409 53 
Q 2131 -91 1766 -91 
Q 1119 -91 703 423 
Q 288 938 288 1747 
Q 288 2556 703 3070 
Q 1119 3584 1766 3584 
Q 2128 3584 2408 3439 
Q 2688 3294 2919 2988 
z
M 2181 722 
Q 2541 722 2730 984 
Q 2919 1247 2919 1747 
Q 2919 2247 2730 2509 
Q 2541 2772 2181 2772 
Q 1825 2772 1636 2509 
Q 1447 2247 1447 1747 
Q 1447 1247 1636 984 
Q 1825 722 2181 722 
z
" transform="scale(0.015625)"/>
      <path id="DejaVuSans-Bold-67" d="M 2919 594 
Q 2688 288 2409 144 
Q 2131 0 1766 0 
Q 1125 0 706 504 
Q 288 1009 288 1791 
Q 288 2575 706 3076 
Q 1125 3578 1766 3578 
Q 2131 3578 2409 3434 
Q 2688 3291 2919 2981 
L 2919 3500 
L 4044 3500 
L 4044 353 
Q 4044 -491 3511 -936 
Q 2978 -1381 1966 -1381 
Q 1638 -1381 1331 -1331 
Q 1025 -1281 716 -1178 
L 716 -306 
Q 1009 -475 1290 -558 
Q 1572 -641 1856 -641 
Q 2406 -641 2662 -400 
Q 2919 -159 2919 353 
L 2919 594 
z
M 2181 2772 
Q 1834 2772 1640 2515 
Q 1447 2259 1447 1791 
Q 1447 1309 1634 1061 
Q 1822 813 2181 813 
Q 2531 813 2725 1069 
Q 2919 1325 2919 1791 
Q 2919 2259 2725 2515 
Q 2531 2772 2181 2772 
z
" transform="scale(0.015625)"/>
      <path id="DejaVuSans-Bold-65" d="M 4031 1759 
L 4031 1441 
L 1416 1441 
Q 1456 1047 1700 850 
Q 1944 653 2381 653 
Q 2734 653 3104 758 
Q 3475 863 3866 1075 
L 3866 213 
Q 3469 63 3072 -14 
Q 2675 -91 2278 -91 
Q 1328 -91 801 392 
Q 275 875 275 1747 
Q 275 2603 792 3093 
Q 1309 3584 2216 3584 
Q 3041 3584 3536 3087 
Q 4031 2591 4031 1759 
z
M 2881 2131 
Q 2881 2450 2695 2645 
Q 2509 2841 2209 2841 
Q 1884 2841 1681 2658 
Q 1478 2475 1428 2131 
L 2881 2131 
z
" transform="scale(0.015625)"/>
      <path id="DejaVuSans-Bold-20" transform="scale(0.015625)"/>
      <path id="DejaVuSans-Bold-43" d="M 4288 256 
Q 3956 84 3597 -3 
Q 3238 -91 2847 -91 
Q 1681 -91 1000 561 
Q 319 1213 319 2328 
Q 319 3447 1000 4098 
Q 1681 4750 2847 4750 
Q 3238 4750 3597 4662 
Q 3956 4575 4288 4403 
L 4288 3438 
Q 3953 3666 3628 3772 
Q 3303 3878 2944 3878 
Q 2300 3878 1931 3465 
Q 1563 3053 1563 2328 
Q 1563 1606 1931 1193 
Q 2300 781 2944 781 
Q 3303 781 3628 887 
Q 3953 994 4288 1222 
L 4288 256 
z
" transform="scale(0.015625)"/>
      <path id="DejaVuSans-Bold-6f" d="M 2203 2784 
Q 1831 2784 1636 2517 
Q 1441 2250 1441 1747 
Q 1441 1244 1636 976 
Q 1831 709 2203 709 
Q 2569 709 2762 976 
Q 2956 1244 2956 1747 
Q 2956 2250 2762 2517 
Q 2569 2784 2203 2784 
z
M 2203 3584 
Q 3106 3584 3614 3096 
Q 4122 2609 4122 1747 
Q 4122 884 3614 396 
Q 3106 -91 2203 -91 
Q 1297 -91 786 396 
Q 275 884 275 1747 
Q 275 2609 786 3096 
Q 1297 3584 2203 3584 
z
" transform="scale(0.015625)"/>
      <path id="DejaVuSans-Bold-76" d="M 97 3500 
L 1216 3500 
L 2088 1081 
L 2956 3500 
L 4078 3500 
L 2700 0 
L 1472 0 
L 97 3500 
z
" transform="scale(0.015625)"/>
      <path id="DejaVuSans-Bold-72" d="M 3138 2547 
Q 2991 2616 2845 2648 
Q 2700 2681 2553 2681 
Q 2122 2681 1889 2404 
Q 1656 2128 1656 1613 
L 1656 0 
L 538 0 
L 538 3500 
L 1656 3500 
L 1656 2925 
Q 1872 3269 2151 3426 
Q 2431 3584 2822 3584 
Q 2878 3584 2943 3579 
Q 3009 3575 3134 3559 
L 3138 2547 
z
" transform="scale(0.015625)"/>
      <path id="DejaVuSans-Bold-61" d="M 2106 1575 
Q 1756 1575 1579 1456 
Q 1403 1338 1403 1106 
Q 1403 894 1545 773 
Q 1688 653 1941 653 
Q 2256 653 2472 879 
Q 2688 1106 2688 1447 
L 2688 1575 
L 2106 1575 
z
M 3816 1997 
L 3816 0 
L 2688 0 
L 2688 519 
Q 2463 200 2181 54 
Q 1900 -91 1497 -91 
Q 953 -91 614 226 
Q 275 544 275 1050 
Q 275 1666 698 1953 
Q 1122 2241 2028 2241 
L 2688 2241 
L 2688 2328 
Q 2688 2594 2478 2717 
Q 2269 2841 1825 2841 
Q 1466 2841 1156 2769 
Q 847 2697 581 2553 
L 581 3406 
Q 941 3494 1303 3539 
Q 1666 3584 2028 3584 
Q 2975 3584 3395 3211 
Q 3816 2838 3816 1997 
z
" transform="scale(0.015625)"/>
      <path id="DejaVuSans-Bold-48" d="M 588 4666 
L 1791 4666 
L 1791 2888 
L 3566 2888 
L 3566 4666 
L 4769 4666 
L 4769 0 
L 3566 0 
L 3566 1978 
L 1791 1978 
L 1791 0 
L 588 0 
L 588 4666 
z
" transform="scale(0.015625)"/>
      <path id="DejaVuSans-Bold-69" d="M 538 3500 
L 1656 3500 
L 1656 0 
L 538 0 
L 538 3500 
z
M 538 4863 
L 1656 4863 
L 1656 3950 
L 538 3950 
L 538 4863 
z
" transform="scale(0.015625)"/>
      <path id="DejaVuSans-Bold-73" d="M 3272 3391 
L 3272 2541 
Q 2913 2691 2578 2766 
Q 2244 2841 1947 2841 
Q 1628 2841 1473 2761 
Q 1319 2681 1319 2516 
Q 1319 2381 1436 2309 
Q 1553 2238 1856 2203 
L 2053 2175 
Q 2913 2066 3209 1816 
Q 3506 1566 3506 1031 
Q 3506 472 3093 190 
Q 2681 -91 1863 -91 
Q 1516 -91 1145 -36 
Q 775 19 384 128 
L 384 978 
Q 719 816 1070 734 
Q 1422 653 1784 653 
Q 2113 653 2278 743 
Q 2444 834 2444 1013 
Q 2444 1163 2330 1236 
Q 2216 1309 1875 1350 
L 1678 1375 
Q 931 1469 631 1722 
Q 331 1975 331 2491 
Q 331 3047 712 3315 
Q 1094 3584 1881 3584 
Q 2191 3584 2531 3537 
Q 2872 3491 3272 3391 
z
" transform="scale(0.015625)"/>
      <path id="DejaVuSans-Bold-74" d="M 1759 4494 
L 1759 3500 
L 2913 3500 
L 2913 2700 
L 1759 2700 
L 1759 1216 
Q 1759 972 1856 886 
Q 1953 800 2241 800 
L 2816 800 
L 2816 0 
L 1856 0 
Q 1194 0 917 276 
Q 641 553 641 1216 
L 641 2700 
L 84 2700 
L 84 3500 
L 641 3500 
L 641 4494 
L 1759 4494 
z
" transform="scale(0.015625)"/>
      <path id="DejaVuSans-Bold-79" d="M 78 3500 
L 1197 3500 
L 2138 1125 
L 2938 3500 
L 4056 3500 
L 2584 -331 
Q 2363 -916 2067 -1148 
Q 1772 -1381 1288 -1381 
L 641 -1381 
L 641 -647 
L 991 -647 
Q 1275 -647 1404 -556 
Q 1534 -466 1606 -231 
L 1638 -134 
L 78 3500 
z
" transform="scale(0.015625)"/>
     </defs>
     <use xlink:href="#DejaVuSans-Bold-45"/>
     <use xlink:href="#DejaVuSans-Bold-64" x="68.310547"/>
     <use xlink:href="#DejaVuSans-Bold-67" x="139.892578"/>
     <use xlink:href="#DejaVuSans-Bold-65" x="211.474609"/>
     <use xlink:href="#DejaVuSans-Bold-20" x="279.296875"/>
     <use xlink:href="#DejaVuSans-Bold-43" x="314.111328"/>
     <use xlink:href="#DejaVuSans-Bold-6f" x="387.5"/>
     <use xlink:href="#DejaVuSans-Bold-76" x="456.201172"/>
     <use xlink:href="#DejaVuSans-Bold-65" x="521.386719"/>
     <use xlink:href="#DejaVuSans-Bold-72" x="589.208984"/>
     <use xlink:href="#DejaVuSans-Bold-61" x="638.525391"/>
     <use xlink:href="#DejaVuSans-Bold-67" x="706.005859"/>
     <use xlink:href="#DejaVuSans-Bold-65" x="777.587891"/>
     <use xlink:href="#DejaVuSans-Bold-20" x="845.410156"/>
     <use xlink:href="#DejaVuSans-Bold-48" x="880.224609"/>
     <use xlink:href="#DejaVuSans-Bold-69" x="963.916016"/>
     <use xlink:href="#DejaVuSans-Bold-73" x="998.193359"/>
     <use xlink:href="#DejaVuSans-Bold-74" x="1057.714844"/>
     <use xlink:href="#DejaVuSans-Bold-6f" x="1105.517578"/>
     <use xlink:href="#DejaVuSans-Bold-72" x="1174.21875"/>
     <use xlink:href="#DejaVuSans-Bold-79" x="1223.535156"/>
    </g>
   </g>
   <g id="legend_1">
    <g id="patch_5">
     <path d="M 60.4975 154.6795 
L 177.6255 154.6795 
Q 179.3855 154.6795 179.3855 152.9195 
L 179.3855 75.28 
Q 179.3855 73.52 177.6255 73.52 
L 60.4975 73.52 
Q 58.7375 73.52 58.7375 75.28 
L 58.7375 152.9195 
Q 58.7375 154.6795 60.4975 154.6795 
z
" style="fill: #ffffff; opacity: 0.8; stroke: #cccccc; stroke-width: 0.8; stroke-linejoin: miter"/>
    </g>
    <g id="text_41">
     <!-- fuzzer -->
     <g style="fill: #262626" transform="translate(104.3645 84.3345)scale(0.096 -0.096)">
      <defs>
       <path id="DejaVuSans-66" d="M 2375 4863 
L 2375 4384 
L 1825 4384 
Q 1516 4384 1395 4259 
Q 1275 4134 1275 3809 
L 1275 3500 
L 2222 3500 
L 2222 3053 
L 1275 3053 
L 1275 0 
L 697 0 
L 697 3053 
L 147 3053 
L 147 3500 
L 697 3500 
L 697 3744 
Q 697 4328 969 4595 
Q 1241 4863 1831 4863 
L 2375 4863 
z
" transform="scale(0.015625)"/>
       <path id="DejaVuSans-7a" d="M 353 3500 
L 3084 3500 
L 3084 2975 
L 922 459 
L 3084 459 
L 3084 0 
L 275 0 
L 275 525 
L 2438 3041 
L 353 3041 
L 353 3500 
z
" transform="scale(0.015625)"/>
      </defs>
      <use xlink:href="#DejaVuSans-66"/>
      <use xlink:href="#DejaVuSans-75" x="35.205078"/>
      <use xlink:href="#DejaVuSans-7a" x="98.583984"/>
      <use xlink:href="#DejaVuSans-7a" x="151.074219"/>
      <use xlink:href="#DejaVuSans-65" x="203.564453"/>
      <use xlink:href="#DejaVuSans-72" x="265.087891"/>
     </g>
    </g>
    <g id="line2d_48">
     <path d="M 62.2575 94.337625 
L 71.0575 94.337625 
L 79.8575 94.337625 
" style="fill: none; stroke: #db5f57; stroke-width: 1.2; stroke-linecap: round"/>
    </g>
    <g id="text_42">
     <!-- aflfast-0-exid22 -->
     <g style="fill: #262626" transform="translate(86.8975 97.417625)scale(0.088 -0.088)">
      <defs>
       <path id="DejaVuSans-6c" d="M 603 4863 
L 1178 4863 
L 1178 0 
L 603 0 
L 603 4863 
z
" transform="scale(0.015625)"/>
       <path id="DejaVuSans-2d" d="M 313 2009 
L 1997 2009 
L 1997 1497 
L 313 1497 
L 313 2009 
z
" transform="scale(0.015625)"/>
       <path id="DejaVuSans-78" d="M 3513 3500 
L 2247 1797 
L 3578 0 
L 2900 0 
L 1881 1375 
L 863 0 
L 184 0 
L 1544 1831 
L 300 3500 
L 978 3500 
L 1906 2253 
L 2834 3500 
L 3513 3500 
z
" transform="scale(0.015625)"/>
      </defs>
      <use xlink:href="#DejaVuSans-61"/>
      <use xlink:href="#DejaVuSans-66" x="61.279297"/>
      <use xlink:href="#DejaVuSans-6c" x="96.484375"/>
      <use xlink:href="#DejaVuSans-66" x="124.267578"/>
      <use xlink:href="#DejaVuSans-61" x="159.472656"/>
      <use xlink:href="#DejaVuSans-73" x="220.751953"/>
      <use xlink:href="#DejaVuSans-74" x="272.851562"/>
      <use xlink:href="#DejaVuSans-2d" x="312.060547"/>
      <use xlink:href="#DejaVuSans-30" x="348.144531"/>
      <use xlink:href="#DejaVuSans-2d" x="411.767578"/>
      <use xlink:href="#DejaVuSans-65" x="447.851562"/>
      <use xlink:href="#DejaVuSans-78" x="507.625"/>
      <use xlink:href="#DejaVuSans-69" x="566.804688"/>
      <use xlink:href="#DejaVuSans-64" x="594.587891"/>
      <use xlink:href="#DejaVuSans-32" x="658.064453"/>
      <use xlink:href="#DejaVuSans-32" x="721.6875"/>
     </g>
    </g>
    <g id="line2d_49">
     <path d="M 62.2575 107.254375 
L 71.0575 107.254375 
L 79.8575 107.254375 
" style="fill: none; stroke: #b9db57; stroke-width: 1.2; stroke-linecap: round"/>
    </g>
    <g id="text_43">
     <!-- afl-0-exid22 -->
     <g style="fill: #262626" transform="translate(86.8975 110.334375)scale(0.088 -0.088)">
      <use xlink:href="#DejaVuSans-61"/>
      <use xlink:href="#DejaVuSans-66" x="61.279297"/>
      <use xlink:href="#DejaVuSans-6c" x="96.484375"/>
      <use xlink:href="#DejaVuSans-2d" x="124.267578"/>
      <use xlink:href="#DejaVuSans-30" x="160.351562"/>
      <use xlink:href="#DejaVuSans-2d" x="223.974609"/>
      <use xlink:href="#DejaVuSans-65" x="260.058594"/>
      <use xlink:href="#DejaVuSans-78" x="319.832031"/>
      <use xlink:href="#DejaVuSans-69" x="379.011719"/>
      <use xlink:href="#DejaVuSans-64" x="406.794922"/>
      <use xlink:href="#DejaVuSans-32" x="470.271484"/>
      <use xlink:href="#DejaVuSans-32" x="533.894531"/>
     </g>
    </g>
    <g id="line2d_50">
     <path d="M 62.2575 120.171125 
L 71.0575 120.171125 
L 79.8575 120.171125 
" style="fill: none; stroke: #57db94; stroke-width: 1.2; stroke-linecap: round"/>
    </g>
    <g id="text_44">
     <!-- aflplusplus-0-exid22 -->
     <g style="fill: #262626" transform="translate(86.8975 123.251125)scale(0.088 -0.088)">
      <defs>
       <path id="DejaVuSans-70" d="M 1159 525 
L 1159 -1331 
L 581 -1331 
L 581 3500 
L 1159 3500 
L 1159 2969 
Q 1341 3281 1617 3432 
Q 1894 3584 2278 3584 
Q 2916 3584 3314 3078 
Q 3713 2572 3713 1747 
Q 3713 922 3314 415 
Q 2916 -91 2278 -91 
Q 1894 -91 1617 61 
Q 1341 213 1159 525 
z
M 3116 1747 
Q 3116 2381 2855 2742 
Q 2594 3103 2138 3103 
Q 1681 3103 1420 2742 
Q 1159 2381 1159 1747 
Q 1159 1113 1420 752 
Q 1681 391 2138 391 
Q 2594 391 2855 752 
Q 3116 1113 3116 1747 
z
" transform="scale(0.015625)"/>
      </defs>
      <use xlink:href="#DejaVuSans-61"/>
      <use xlink:href="#DejaVuSans-66" x="61.279297"/>
      <use xlink:href="#DejaVuSans-6c" x="96.484375"/>
      <use xlink:href="#DejaVuSans-70" x="124.267578"/>
      <use xlink:href="#DejaVuSans-6c" x="187.744141"/>
      <use xlink:href="#DejaVuSans-75" x="215.527344"/>
      <use xlink:href="#DejaVuSans-73" x="278.90625"/>
      <use xlink:href="#DejaVuSans-70" x="331.005859"/>
      <use xlink:href="#DejaVuSans-6c" x="394.482422"/>
      <use xlink:href="#DejaVuSans-75" x="422.265625"/>
      <use xlink:href="#DejaVuSans-73" x="485.644531"/>
      <use xlink:href="#DejaVuSans-2d" x="537.744141"/>
      <use xlink:href="#DejaVuSans-30" x="573.828125"/>
      <use xlink:href="#DejaVuSans-2d" x="637.451172"/>
      <use xlink:href="#DejaVuSans-65" x="673.535156"/>
      <use xlink:href="#DejaVuSans-78" x="733.308594"/>
      <use xlink:href="#DejaVuSans-69" x="792.488281"/>
      <use xlink:href="#DejaVuSans-64" x="820.271484"/>
      <use xlink:href="#DejaVuSans-32" x="883.748047"/>
      <use xlink:href="#DejaVuSans-32" x="947.371094"/>
     </g>
    </g>
    <g id="line2d_51">
     <path d="M 62.2575 133.087875 
L 71.0575 133.087875 
L 79.8575 133.087875 
" style="fill: none; stroke: #5784db; stroke-width: 1.2; stroke-linecap: round"/>
    </g>
    <g id="text_45">
     <!-- fairfuzz-0-exid22 -->
     <g style="fill: #262626" transform="translate(86.8975 136.167875)scale(0.088 -0.088)">
      <use xlink:href="#DejaVuSans-66"/>
      <use xlink:href="#DejaVuSans-61" x="35.205078"/>
      <use xlink:href="#DejaVuSans-69" x="96.484375"/>
      <use xlink:href="#DejaVuSans-72" x="124.267578"/>
      <use xlink:href="#DejaVuSans-66" x="165.380859"/>
      <use xlink:href="#DejaVuSans-75" x="200.585938"/>
      <use xlink:href="#DejaVuSans-7a" x="263.964844"/>
      <use xlink:href="#DejaVuSans-7a" x="316.455078"/>
      <use xlink:href="#DejaVuSans-2d" x="368.945312"/>
      <use xlink:href="#DejaVuSans-30" x="405.029297"/>
      <use xlink:href="#DejaVuSans-2d" x="468.652344"/>
      <use xlink:href="#DejaVuSans-65" x="504.736328"/>
      <use xlink:href="#DejaVuSans-78" x="564.509766"/>
      <use xlink:href="#DejaVuSans-69" x="623.689453"/>
      <use xlink:href="#DejaVuSans-64" x="651.472656"/>
      <use xlink:href="#DejaVuSans-32" x="714.949219"/>
      <use xlink:href="#DejaVuSans-32" x="778.572266"/>
     </g>
    </g>
    <g id="line2d_52">
     <path d="M 62.2575 146.004625 
L 71.0575 146.004625 
L 79.8575 146.004625 
" style="fill: none; stroke: #c957db; stroke-width: 1.2; stroke-linecap: round"/>
    </g>
    <g id="text_46">
     <!-- fuzzer_global -->
     <g style="fill: #262626" transform="translate(86.8975 149.084625)scale(0.088 -0.088)">
      <defs>
       <path id="DejaVuSans-5f" d="M 3263 -1063 
L 3263 -1509 
L -63 -1509 
L -63 -1063 
L 3263 -1063 
z
" transform="scale(0.015625)"/>
       <path id="DejaVuSans-62" d="M 3116 1747 
Q 3116 2381 2855 2742 
Q 2594 3103 2138 3103 
Q 1681 3103 1420 2742 
Q 1159 2381 1159 1747 
Q 1159 1113 1420 752 
Q 1681 391 2138 391 
Q 2594 391 2855 752 
Q 3116 1113 3116 1747 
z
M 1159 2969 
Q 1341 3281 1617 3432 
Q 1894 3584 2278 3584 
Q 2916 3584 3314 3078 
Q 3713 2572 3713 1747 
Q 3713 922 3314 415 
Q 2916 -91 2278 -91 
Q 1894 -91 1617 61 
Q 1341 213 1159 525 
L 1159 0 
L 581 0 
L 581 4863 
L 1159 4863 
L 1159 2969 
z
" transform="scale(0.015625)"/>
      </defs>
      <use xlink:href="#DejaVuSans-66"/>
      <use xlink:href="#DejaVuSans-75" x="35.205078"/>
      <use xlink:href="#DejaVuSans-7a" x="98.583984"/>
      <use xlink:href="#DejaVuSans-7a" x="151.074219"/>
      <use xlink:href="#DejaVuSans-65" x="203.564453"/>
      <use xlink:href="#DejaVuSans-72" x="265.087891"/>
      <use xlink:href="#DejaVuSans-5f" x="306.201172"/>
      <use xlink:href="#DejaVuSans-67" x="356.201172"/>
      <use xlink:href="#DejaVuSans-6c" x="419.677734"/>
      <use xlink:href="#DejaVuSans-6f" x="447.460938"/>
      <use xlink:href="#DejaVuSans-62" x="508.642578"/>
      <use xlink:href="#DejaVuSans-61" x="572.119141"/>
      <use xlink:href="#DejaVuSans-6c" x="633.398438"/>
     </g>
    </g>
   </g>
  </g>
 </g>
 <defs>
  <clipPath id="p25dc6edd14">
   <rect x="54.3375" y="69.12" width="336.8925" height="443.52"/>
  </clipPath>
 </defs>
</svg>
