<?xml version="1.0" encoding="utf-8" standalone="no"?>
<!DOCTYPE svg PUBLIC "-//W3C//DTD SVG 1.1//EN"
  "http://www.w3.org/Graphics/SVG/1.1/DTD/svg11.dtd">
<svg xmlns:xlink="http://www.w3.org/1999/xlink" width="434.7pt" height="576pt" viewBox="0 0 434.7 576" xmlns="http://www.w3.org/2000/svg" version="1.1">
 <metadata>
  <rdf:RDF xmlns:dc="http://purl.org/dc/elements/1.1/" xmlns:cc="http://creativecommons.org/ns#" xmlns:rdf="http://www.w3.org/1999/02/22-rdf-syntax-ns#">
   <cc:Work>
    <dc:type rdf:resource="http://purl.org/dc/dcmitype/StillImage"/>
    <dc:date>2022-09-15T10:53:30.461264</dc:date>
    <dc:format>image/svg+xml</dc:format>
    <dc:creator>
     <cc:Agent>
      <dc:title>Matplotlib v3.5.3, https://matplotlib.org/</dc:title>
     </cc:Agent>
    </dc:creator>
   </cc:Work>
  </rdf:RDF>
 </metadata>
 <defs>
  <style type="text/css">*{stroke-linejoin: round; stroke-linecap: butt}</style>
 </defs>
 <g id="figure_1">
  <g id="patch_1">
   <path d="M 0 576 
L 434.7 576 
L 434.7 0 
L 0 0 
z
" style="fill: #ffffff"/>
  </g>
  <g id="axes_1">
   <g id="patch_2">
    <path d="M 54.3375 512.64 
L 391.23 512.64 
L 391.23 69.12 
L 54.3375 69.12 
z
" style="fill: #ffffff"/>
   </g>
   <g id="matplotlib.axis_1">
    <g id="xtick_1">
     <g id="line2d_1">
      <path d="M 69.650795 512.64 
L 69.650795 69.12 
" clip-path="url(#p8dddc6e5a1)" style="fill: none; stroke: #cccccc; stroke-width: 0.8; stroke-linecap: round"/>
     </g>
     <g id="text_1">
      <!-- 0 -->
      <g style="fill: #262626" transform="translate(69.388282 529.627249)rotate(-45)scale(0.088 -0.088)">
       <defs>
        <path id="DejaVuSans-30" d="M 2034 4250 
Q 1547 4250 1301 3770 
Q 1056 3291 1056 2328 
Q 1056 1369 1301 889 
Q 1547 409 2034 409 
Q 2525 409 2770 889 
Q 3016 1369 3016 2328 
Q 3016 3291 2770 3770 
Q 2525 4250 2034 4250 
z
M 2034 4750 
Q 2819 4750 3233 4129 
Q 3647 3509 3647 2328 
Q 3647 1150 3233 529 
Q 2819 -91 2034 -91 
Q 1250 -91 836 529 
Q 422 1150 422 2328 
Q 422 3509 836 4129 
Q 1250 4750 2034 4750 
z
" transform="scale(0.015625)"/>
       </defs>
       <use xlink:href="#DejaVuSans-30"/>
      </g>
     </g>
    </g>
    <g id="xtick_2">
     <g id="line2d_2">
      <path d="M 86.677392 512.64 
L 86.677392 69.12 
" clip-path="url(#p8dddc6e5a1)" style="fill: none; stroke: #cccccc; stroke-width: 0.8; stroke-linecap: round"/>
     </g>
     <g id="text_2">
      <!-- 80 -->
      <g style="fill: #262626" transform="translate(84.435333 533.58634)rotate(-45)scale(0.088 -0.088)">
       <defs>
        <path id="DejaVuSans-38" d="M 2034 2216 
Q 1584 2216 1326 1975 
Q 1069 1734 1069 1313 
Q 1069 891 1326 650 
Q 1584 409 2034 409 
Q 2484 409 2743 651 
Q 3003 894 3003 1313 
Q 3003 1734 2745 1975 
Q 2488 2216 2034 2216 
z
M 1403 2484 
Q 997 2584 770 2862 
Q 544 3141 544 3541 
Q 544 4100 942 4425 
Q 1341 4750 2034 4750 
Q 2731 4750 3128 4425 
Q 3525 4100 3525 3541 
Q 3525 3141 3298 2862 
Q 3072 2584 2669 2484 
Q 3125 2378 3379 2068 
Q 3634 1759 3634 1313 
Q 3634 634 3220 271 
Q 2806 -91 2034 -91 
Q 1263 -91 848 271 
Q 434 634 434 1313 
Q 434 1759 690 2068 
Q 947 2378 1403 2484 
z
M 1172 3481 
Q 1172 3119 1398 2916 
Q 1625 2713 2034 2713 
Q 2441 2713 2670 2916 
Q 2900 3119 2900 3481 
Q 2900 3844 2670 4047 
Q 2441 4250 2034 4250 
Q 1625 4250 1398 4047 
Q 1172 3844 1172 3481 
z
" transform="scale(0.015625)"/>
       </defs>
       <use xlink:href="#DejaVuSans-38"/>
       <use xlink:href="#DejaVuSans-30" x="63.623047"/>
      </g>
     </g>
    </g>
    <g id="xtick_3">
     <g id="line2d_3">
      <path d="M 103.703989 512.64 
L 103.703989 69.12 
" clip-path="url(#p8dddc6e5a1)" style="fill: none; stroke: #cccccc; stroke-width: 0.8; stroke-linecap: round"/>
     </g>
     <g id="text_3">
      <!-- 160 -->
      <g style="fill: #262626" transform="translate(99.482385 537.54543)rotate(-45)scale(0.088 -0.088)">
       <defs>
        <path id="DejaVuSans-31" d="M 794 531 
L 1825 531 
L 1825 4091 
L 703 3866 
L 703 4441 
L 1819 4666 
L 2450 4666 
L 2450 531 
L 3481 531 
L 3481 0 
L 794 0 
L 794 531 
z
" transform="scale(0.015625)"/>
        <path id="DejaVuSans-36" d="M 2113 2584 
Q 1688 2584 1439 2293 
Q 1191 2003 1191 1497 
Q 1191 994 1439 701 
Q 1688 409 2113 409 
Q 2538 409 2786 701 
Q 3034 994 3034 1497 
Q 3034 2003 2786 2293 
Q 2538 2584 2113 2584 
z
M 3366 4563 
L 3366 3988 
Q 3128 4100 2886 4159 
Q 2644 4219 2406 4219 
Q 1781 4219 1451 3797 
Q 1122 3375 1075 2522 
Q 1259 2794 1537 2939 
Q 1816 3084 2150 3084 
Q 2853 3084 3261 2657 
Q 3669 2231 3669 1497 
Q 3669 778 3244 343 
Q 2819 -91 2113 -91 
Q 1303 -91 875 529 
Q 447 1150 447 2328 
Q 447 3434 972 4092 
Q 1497 4750 2381 4750 
Q 2619 4750 2861 4703 
Q 3103 4656 3366 4563 
z
" transform="scale(0.015625)"/>
       </defs>
       <use xlink:href="#DejaVuSans-31"/>
       <use xlink:href="#DejaVuSans-36" x="63.623047"/>
       <use xlink:href="#DejaVuSans-30" x="127.246094"/>
      </g>
     </g>
    </g>
    <g id="xtick_4">
     <g id="line2d_4">
      <path d="M 120.730586 512.64 
L 120.730586 69.12 
" clip-path="url(#p8dddc6e5a1)" style="fill: none; stroke: #cccccc; stroke-width: 0.8; stroke-linecap: round"/>
     </g>
     <g id="text_4">
      <!-- 240 -->
      <g style="fill: #262626" transform="translate(116.508981 537.54543)rotate(-45)scale(0.088 -0.088)">
       <defs>
        <path id="DejaVuSans-32" d="M 1228 531 
L 3431 531 
L 3431 0 
L 469 0 
L 469 531 
Q 828 903 1448 1529 
Q 2069 2156 2228 2338 
Q 2531 2678 2651 2914 
Q 2772 3150 2772 3378 
Q 2772 3750 2511 3984 
Q 2250 4219 1831 4219 
Q 1534 4219 1204 4116 
Q 875 4013 500 3803 
L 500 4441 
Q 881 4594 1212 4672 
Q 1544 4750 1819 4750 
Q 2544 4750 2975 4387 
Q 3406 4025 3406 3419 
Q 3406 3131 3298 2873 
Q 3191 2616 2906 2266 
Q 2828 2175 2409 1742 
Q 1991 1309 1228 531 
z
" transform="scale(0.015625)"/>
        <path id="DejaVuSans-34" d="M 2419 4116 
L 825 1625 
L 2419 1625 
L 2419 4116 
z
M 2253 4666 
L 3047 4666 
L 3047 1625 
L 3713 1625 
L 3713 1100 
L 3047 1100 
L 3047 0 
L 2419 0 
L 2419 1100 
L 313 1100 
L 313 1709 
L 2253 4666 
z
" transform="scale(0.015625)"/>
       </defs>
       <use xlink:href="#DejaVuSans-32"/>
       <use xlink:href="#DejaVuSans-34" x="63.623047"/>
       <use xlink:href="#DejaVuSans-30" x="127.246094"/>
      </g>
     </g>
    </g>
    <g id="xtick_5">
     <g id="line2d_5">
      <path d="M 137.757182 512.64 
L 137.757182 69.12 
" clip-path="url(#p8dddc6e5a1)" style="fill: none; stroke: #cccccc; stroke-width: 0.8; stroke-linecap: round"/>
     </g>
     <g id="text_5">
      <!-- 320 -->
      <g style="fill: #262626" transform="translate(133.535578 537.54543)rotate(-45)scale(0.088 -0.088)">
       <defs>
        <path id="DejaVuSans-33" d="M 2597 2516 
Q 3050 2419 3304 2112 
Q 3559 1806 3559 1356 
Q 3559 666 3084 287 
Q 2609 -91 1734 -91 
Q 1441 -91 1130 -33 
Q 819 25 488 141 
L 488 750 
Q 750 597 1062 519 
Q 1375 441 1716 441 
Q 2309 441 2620 675 
Q 2931 909 2931 1356 
Q 2931 1769 2642 2001 
Q 2353 2234 1838 2234 
L 1294 2234 
L 1294 2753 
L 1863 2753 
Q 2328 2753 2575 2939 
Q 2822 3125 2822 3475 
Q 2822 3834 2567 4026 
Q 2313 4219 1838 4219 
Q 1578 4219 1281 4162 
Q 984 4106 628 3988 
L 628 4550 
Q 988 4650 1302 4700 
Q 1616 4750 1894 4750 
Q 2613 4750 3031 4423 
Q 3450 4097 3450 3541 
Q 3450 3153 3228 2886 
Q 3006 2619 2597 2516 
z
" transform="scale(0.015625)"/>
       </defs>
       <use xlink:href="#DejaVuSans-33"/>
       <use xlink:href="#DejaVuSans-32" x="63.623047"/>
       <use xlink:href="#DejaVuSans-30" x="127.246094"/>
      </g>
     </g>
    </g>
    <g id="xtick_6">
     <g id="line2d_6">
      <path d="M 154.783779 512.64 
L 154.783779 69.12 
" clip-path="url(#p8dddc6e5a1)" style="fill: none; stroke: #cccccc; stroke-width: 0.8; stroke-linecap: round"/>
     </g>
     <g id="text_6">
      <!-- 400 -->
      <g style="fill: #262626" transform="translate(150.562175 537.54543)rotate(-45)scale(0.088 -0.088)">
       <use xlink:href="#DejaVuSans-34"/>
       <use xlink:href="#DejaVuSans-30" x="63.623047"/>
       <use xlink:href="#DejaVuSans-30" x="127.246094"/>
      </g>
     </g>
    </g>
    <g id="xtick_7">
     <g id="line2d_7">
      <path d="M 171.810376 512.64 
L 171.810376 69.12 
" clip-path="url(#p8dddc6e5a1)" style="fill: none; stroke: #cccccc; stroke-width: 0.8; stroke-linecap: round"/>
     </g>
     <g id="text_7">
      <!-- 480 -->
      <g style="fill: #262626" transform="translate(167.588772 537.54543)rotate(-45)scale(0.088 -0.088)">
       <use xlink:href="#DejaVuSans-34"/>
       <use xlink:href="#DejaVuSans-38" x="63.623047"/>
       <use xlink:href="#DejaVuSans-30" x="127.246094"/>
      </g>
     </g>
    </g>
    <g id="xtick_8">
     <g id="line2d_8">
      <path d="M 188.836973 512.64 
L 188.836973 69.12 
" clip-path="url(#p8dddc6e5a1)" style="fill: none; stroke: #cccccc; stroke-width: 0.8; stroke-linecap: round"/>
     </g>
     <g id="text_8">
      <!-- 560 -->
      <g style="fill: #262626" transform="translate(184.615368 537.54543)rotate(-45)scale(0.088 -0.088)">
       <defs>
        <path id="DejaVuSans-35" d="M 691 4666 
L 3169 4666 
L 3169 4134 
L 1269 4134 
L 1269 2991 
Q 1406 3038 1543 3061 
Q 1681 3084 1819 3084 
Q 2600 3084 3056 2656 
Q 3513 2228 3513 1497 
Q 3513 744 3044 326 
Q 2575 -91 1722 -91 
Q 1428 -91 1123 -41 
Q 819 9 494 109 
L 494 744 
Q 775 591 1075 516 
Q 1375 441 1709 441 
Q 2250 441 2565 725 
Q 2881 1009 2881 1497 
Q 2881 1984 2565 2268 
Q 2250 2553 1709 2553 
Q 1456 2553 1204 2497 
Q 953 2441 691 2322 
L 691 4666 
z
" transform="scale(0.015625)"/>
       </defs>
       <use xlink:href="#DejaVuSans-35"/>
       <use xlink:href="#DejaVuSans-36" x="63.623047"/>
       <use xlink:href="#DejaVuSans-30" x="127.246094"/>
      </g>
     </g>
    </g>
    <g id="xtick_9">
     <g id="line2d_9">
      <path d="M 205.863569 512.64 
L 205.863569 69.12 
" clip-path="url(#p8dddc6e5a1)" style="fill: none; stroke: #cccccc; stroke-width: 0.8; stroke-linecap: round"/>
     </g>
     <g id="text_9">
      <!-- 640 -->
      <g style="fill: #262626" transform="translate(201.641965 537.54543)rotate(-45)scale(0.088 -0.088)">
       <use xlink:href="#DejaVuSans-36"/>
       <use xlink:href="#DejaVuSans-34" x="63.623047"/>
       <use xlink:href="#DejaVuSans-30" x="127.246094"/>
      </g>
     </g>
    </g>
    <g id="xtick_10">
     <g id="line2d_10">
      <path d="M 222.890166 512.64 
L 222.890166 69.12 
" clip-path="url(#p8dddc6e5a1)" style="fill: none; stroke: #cccccc; stroke-width: 0.8; stroke-linecap: round"/>
     </g>
     <g id="text_10">
      <!-- 720 -->
      <g style="fill: #262626" transform="translate(218.668562 537.54543)rotate(-45)scale(0.088 -0.088)">
       <defs>
        <path id="DejaVuSans-37" d="M 525 4666 
L 3525 4666 
L 3525 4397 
L 1831 0 
L 1172 0 
L 2766 4134 
L 525 4134 
L 525 4666 
z
" transform="scale(0.015625)"/>
       </defs>
       <use xlink:href="#DejaVuSans-37"/>
       <use xlink:href="#DejaVuSans-32" x="63.623047"/>
       <use xlink:href="#DejaVuSans-30" x="127.246094"/>
      </g>
     </g>
    </g>
    <g id="xtick_11">
     <g id="line2d_11">
      <path d="M 239.916763 512.64 
L 239.916763 69.12 
" clip-path="url(#p8dddc6e5a1)" style="fill: none; stroke: #cccccc; stroke-width: 0.8; stroke-linecap: round"/>
     </g>
     <g id="text_11">
      <!-- 800 -->
      <g style="fill: #262626" transform="translate(235.695159 537.54543)rotate(-45)scale(0.088 -0.088)">
       <use xlink:href="#DejaVuSans-38"/>
       <use xlink:href="#DejaVuSans-30" x="63.623047"/>
       <use xlink:href="#DejaVuSans-30" x="127.246094"/>
      </g>
     </g>
    </g>
    <g id="xtick_12">
     <g id="line2d_12">
      <path d="M 256.94336 512.64 
L 256.94336 69.12 
" clip-path="url(#p8dddc6e5a1)" style="fill: none; stroke: #cccccc; stroke-width: 0.8; stroke-linecap: round"/>
     </g>
     <g id="text_12">
      <!-- 880 -->
      <g style="fill: #262626" transform="translate(252.721755 537.54543)rotate(-45)scale(0.088 -0.088)">
       <use xlink:href="#DejaVuSans-38"/>
       <use xlink:href="#DejaVuSans-38" x="63.623047"/>
       <use xlink:href="#DejaVuSans-30" x="127.246094"/>
      </g>
     </g>
    </g>
    <g id="xtick_13">
     <g id="line2d_13">
      <path d="M 273.969956 512.64 
L 273.969956 69.12 
" clip-path="url(#p8dddc6e5a1)" style="fill: none; stroke: #cccccc; stroke-width: 0.8; stroke-linecap: round"/>
     </g>
     <g id="text_13">
      <!-- 960 -->
      <g style="fill: #262626" transform="translate(269.748352 537.54543)rotate(-45)scale(0.088 -0.088)">
       <defs>
        <path id="DejaVuSans-39" d="M 703 97 
L 703 672 
Q 941 559 1184 500 
Q 1428 441 1663 441 
Q 2288 441 2617 861 
Q 2947 1281 2994 2138 
Q 2813 1869 2534 1725 
Q 2256 1581 1919 1581 
Q 1219 1581 811 2004 
Q 403 2428 403 3163 
Q 403 3881 828 4315 
Q 1253 4750 1959 4750 
Q 2769 4750 3195 4129 
Q 3622 3509 3622 2328 
Q 3622 1225 3098 567 
Q 2575 -91 1691 -91 
Q 1453 -91 1209 -44 
Q 966 3 703 97 
z
M 1959 2075 
Q 2384 2075 2632 2365 
Q 2881 2656 2881 3163 
Q 2881 3666 2632 3958 
Q 2384 4250 1959 4250 
Q 1534 4250 1286 3958 
Q 1038 3666 1038 3163 
Q 1038 2656 1286 2365 
Q 1534 2075 1959 2075 
z
" transform="scale(0.015625)"/>
       </defs>
       <use xlink:href="#DejaVuSans-39"/>
       <use xlink:href="#DejaVuSans-36" x="63.623047"/>
       <use xlink:href="#DejaVuSans-30" x="127.246094"/>
      </g>
     </g>
    </g>
    <g id="xtick_14">
     <g id="line2d_14">
      <path d="M 290.996553 512.64 
L 290.996553 69.12 
" clip-path="url(#p8dddc6e5a1)" style="fill: none; stroke: #cccccc; stroke-width: 0.8; stroke-linecap: round"/>
     </g>
     <g id="text_14">
      <!-- 1040 -->
      <g style="fill: #262626" transform="translate(284.795404 541.504521)rotate(-45)scale(0.088 -0.088)">
       <use xlink:href="#DejaVuSans-31"/>
       <use xlink:href="#DejaVuSans-30" x="63.623047"/>
       <use xlink:href="#DejaVuSans-34" x="127.246094"/>
       <use xlink:href="#DejaVuSans-30" x="190.869141"/>
      </g>
     </g>
    </g>
    <g id="xtick_15">
     <g id="line2d_15">
      <path d="M 308.02315 512.64 
L 308.02315 69.12 
" clip-path="url(#p8dddc6e5a1)" style="fill: none; stroke: #cccccc; stroke-width: 0.8; stroke-linecap: round"/>
     </g>
     <g id="text_15">
      <!-- 1120 -->
      <g style="fill: #262626" transform="translate(301.822 541.504521)rotate(-45)scale(0.088 -0.088)">
       <use xlink:href="#DejaVuSans-31"/>
       <use xlink:href="#DejaVuSans-31" x="63.623047"/>
       <use xlink:href="#DejaVuSans-32" x="127.246094"/>
       <use xlink:href="#DejaVuSans-30" x="190.869141"/>
      </g>
     </g>
    </g>
    <g id="xtick_16">
     <g id="line2d_16">
      <path d="M 325.049747 512.64 
L 325.049747 69.12 
" clip-path="url(#p8dddc6e5a1)" style="fill: none; stroke: #cccccc; stroke-width: 0.8; stroke-linecap: round"/>
     </g>
     <g id="text_16">
      <!-- 1200 -->
      <g style="fill: #262626" transform="translate(318.848597 541.504521)rotate(-45)scale(0.088 -0.088)">
       <use xlink:href="#DejaVuSans-31"/>
       <use xlink:href="#DejaVuSans-32" x="63.623047"/>
       <use xlink:href="#DejaVuSans-30" x="127.246094"/>
       <use xlink:href="#DejaVuSans-30" x="190.869141"/>
      </g>
     </g>
    </g>
    <g id="xtick_17">
     <g id="line2d_17">
      <path d="M 342.076343 512.64 
L 342.076343 69.12 
" clip-path="url(#p8dddc6e5a1)" style="fill: none; stroke: #cccccc; stroke-width: 0.8; stroke-linecap: round"/>
     </g>
     <g id="text_17">
      <!-- 1280 -->
      <g style="fill: #262626" transform="translate(335.875194 541.504521)rotate(-45)scale(0.088 -0.088)">
       <use xlink:href="#DejaVuSans-31"/>
       <use xlink:href="#DejaVuSans-32" x="63.623047"/>
       <use xlink:href="#DejaVuSans-38" x="127.246094"/>
       <use xlink:href="#DejaVuSans-30" x="190.869141"/>
      </g>
     </g>
    </g>
    <g id="xtick_18">
     <g id="line2d_18">
      <path d="M 359.10294 512.64 
L 359.10294 69.12 
" clip-path="url(#p8dddc6e5a1)" style="fill: none; stroke: #cccccc; stroke-width: 0.8; stroke-linecap: round"/>
     </g>
     <g id="text_18">
      <!-- 1360 -->
      <g style="fill: #262626" transform="translate(352.901791 541.504521)rotate(-45)scale(0.088 -0.088)">
       <use xlink:href="#DejaVuSans-31"/>
       <use xlink:href="#DejaVuSans-33" x="63.623047"/>
       <use xlink:href="#DejaVuSans-36" x="127.246094"/>
       <use xlink:href="#DejaVuSans-30" x="190.869141"/>
      </g>
     </g>
    </g>
    <g id="xtick_19">
     <g id="line2d_19">
      <path d="M 376.129537 512.64 
L 376.129537 69.12 
" clip-path="url(#p8dddc6e5a1)" style="fill: none; stroke: #cccccc; stroke-width: 0.8; stroke-linecap: round"/>
     </g>
     <g id="text_19">
      <!-- 1440 -->
      <g style="fill: #262626" transform="translate(369.928387 541.504521)rotate(-45)scale(0.088 -0.088)">
       <use xlink:href="#DejaVuSans-31"/>
       <use xlink:href="#DejaVuSans-34" x="63.623047"/>
       <use xlink:href="#DejaVuSans-34" x="127.246094"/>
       <use xlink:href="#DejaVuSans-30" x="190.869141"/>
      </g>
     </g>
    </g>
    <g id="text_20">
     <!-- Time (Minutes) -->
     <g style="fill: #262626" transform="translate(186.87375 554.093115)scale(0.096 -0.096)">
      <defs>
       <path id="DejaVuSans-54" d="M -19 4666 
L 3928 4666 
L 3928 4134 
L 2272 4134 
L 2272 0 
L 1638 0 
L 1638 4134 
L -19 4134 
L -19 4666 
z
" transform="scale(0.015625)"/>
       <path id="DejaVuSans-69" d="M 603 3500 
L 1178 3500 
L 1178 0 
L 603 0 
L 603 3500 
z
M 603 4863 
L 1178 4863 
L 1178 4134 
L 603 4134 
L 603 4863 
z
" transform="scale(0.015625)"/>
       <path id="DejaVuSans-6d" d="M 3328 2828 
Q 3544 3216 3844 3400 
Q 4144 3584 4550 3584 
Q 5097 3584 5394 3201 
Q 5691 2819 5691 2113 
L 5691 0 
L 5113 0 
L 5113 2094 
Q 5113 2597 4934 2840 
Q 4756 3084 4391 3084 
Q 3944 3084 3684 2787 
Q 3425 2491 3425 1978 
L 3425 0 
L 2847 0 
L 2847 2094 
Q 2847 2600 2669 2842 
Q 2491 3084 2119 3084 
Q 1678 3084 1418 2786 
Q 1159 2488 1159 1978 
L 1159 0 
L 581 0 
L 581 3500 
L 1159 3500 
L 1159 2956 
Q 1356 3278 1631 3431 
Q 1906 3584 2284 3584 
Q 2666 3584 2933 3390 
Q 3200 3197 3328 2828 
z
" transform="scale(0.015625)"/>
       <path id="DejaVuSans-65" d="M 3597 1894 
L 3597 1613 
L 953 1613 
Q 991 1019 1311 708 
Q 1631 397 2203 397 
Q 2534 397 2845 478 
Q 3156 559 3463 722 
L 3463 178 
Q 3153 47 2828 -22 
Q 2503 -91 2169 -91 
Q 1331 -91 842 396 
Q 353 884 353 1716 
Q 353 2575 817 3079 
Q 1281 3584 2069 3584 
Q 2775 3584 3186 3129 
Q 3597 2675 3597 1894 
z
M 3022 2063 
Q 3016 2534 2758 2815 
Q 2500 3097 2075 3097 
Q 1594 3097 1305 2825 
Q 1016 2553 972 2059 
L 3022 2063 
z
" transform="scale(0.015625)"/>
       <path id="DejaVuSans-20" transform="scale(0.015625)"/>
       <path id="DejaVuSans-28" d="M 1984 4856 
Q 1566 4138 1362 3434 
Q 1159 2731 1159 2009 
Q 1159 1288 1364 580 
Q 1569 -128 1984 -844 
L 1484 -844 
Q 1016 -109 783 600 
Q 550 1309 550 2009 
Q 550 2706 781 3412 
Q 1013 4119 1484 4856 
L 1984 4856 
z
" transform="scale(0.015625)"/>
       <path id="DejaVuSans-4d" d="M 628 4666 
L 1569 4666 
L 2759 1491 
L 3956 4666 
L 4897 4666 
L 4897 0 
L 4281 0 
L 4281 4097 
L 3078 897 
L 2444 897 
L 1241 4097 
L 1241 0 
L 628 0 
L 628 4666 
z
" transform="scale(0.015625)"/>
       <path id="DejaVuSans-6e" d="M 3513 2113 
L 3513 0 
L 2938 0 
L 2938 2094 
Q 2938 2591 2744 2837 
Q 2550 3084 2163 3084 
Q 1697 3084 1428 2787 
Q 1159 2491 1159 1978 
L 1159 0 
L 581 0 
L 581 3500 
L 1159 3500 
L 1159 2956 
Q 1366 3272 1645 3428 
Q 1925 3584 2291 3584 
Q 2894 3584 3203 3211 
Q 3513 2838 3513 2113 
z
" transform="scale(0.015625)"/>
       <path id="DejaVuSans-75" d="M 544 1381 
L 544 3500 
L 1119 3500 
L 1119 1403 
Q 1119 906 1312 657 
Q 1506 409 1894 409 
Q 2359 409 2629 706 
Q 2900 1003 2900 1516 
L 2900 3500 
L 3475 3500 
L 3475 0 
L 2900 0 
L 2900 538 
Q 2691 219 2414 64 
Q 2138 -91 1772 -91 
Q 1169 -91 856 284 
Q 544 659 544 1381 
z
M 1991 3584 
L 1991 3584 
z
" transform="scale(0.015625)"/>
       <path id="DejaVuSans-74" d="M 1172 4494 
L 1172 3500 
L 2356 3500 
L 2356 3053 
L 1172 3053 
L 1172 1153 
Q 1172 725 1289 603 
Q 1406 481 1766 481 
L 2356 481 
L 2356 0 
L 1766 0 
Q 1100 0 847 248 
Q 594 497 594 1153 
L 594 3053 
L 172 3053 
L 172 3500 
L 594 3500 
L 594 4494 
L 1172 4494 
z
" transform="scale(0.015625)"/>
       <path id="DejaVuSans-73" d="M 2834 3397 
L 2834 2853 
Q 2591 2978 2328 3040 
Q 2066 3103 1784 3103 
Q 1356 3103 1142 2972 
Q 928 2841 928 2578 
Q 928 2378 1081 2264 
Q 1234 2150 1697 2047 
L 1894 2003 
Q 2506 1872 2764 1633 
Q 3022 1394 3022 966 
Q 3022 478 2636 193 
Q 2250 -91 1575 -91 
Q 1294 -91 989 -36 
Q 684 19 347 128 
L 347 722 
Q 666 556 975 473 
Q 1284 391 1588 391 
Q 1994 391 2212 530 
Q 2431 669 2431 922 
Q 2431 1156 2273 1281 
Q 2116 1406 1581 1522 
L 1381 1569 
Q 847 1681 609 1914 
Q 372 2147 372 2553 
Q 372 3047 722 3315 
Q 1072 3584 1716 3584 
Q 2034 3584 2315 3537 
Q 2597 3491 2834 3397 
z
" transform="scale(0.015625)"/>
       <path id="DejaVuSans-29" d="M 513 4856 
L 1013 4856 
Q 1481 4119 1714 3412 
Q 1947 2706 1947 2009 
Q 1947 1309 1714 600 
Q 1481 -109 1013 -844 
L 513 -844 
Q 928 -128 1133 580 
Q 1338 1288 1338 2009 
Q 1338 2731 1133 3434 
Q 928 4138 513 4856 
z
" transform="scale(0.015625)"/>
      </defs>
      <use xlink:href="#DejaVuSans-54"/>
      <use xlink:href="#DejaVuSans-69" x="57.958984"/>
      <use xlink:href="#DejaVuSans-6d" x="85.742188"/>
      <use xlink:href="#DejaVuSans-65" x="183.154297"/>
      <use xlink:href="#DejaVuSans-20" x="244.677734"/>
      <use xlink:href="#DejaVuSans-28" x="276.464844"/>
      <use xlink:href="#DejaVuSans-4d" x="315.478516"/>
      <use xlink:href="#DejaVuSans-69" x="401.757812"/>
      <use xlink:href="#DejaVuSans-6e" x="429.541016"/>
      <use xlink:href="#DejaVuSans-75" x="492.919922"/>
      <use xlink:href="#DejaVuSans-74" x="556.298828"/>
      <use xlink:href="#DejaVuSans-65" x="595.507812"/>
      <use xlink:href="#DejaVuSans-73" x="657.03125"/>
      <use xlink:href="#DejaVuSans-29" x="709.130859"/>
     </g>
    </g>
   </g>
   <g id="matplotlib.axis_2">
    <g id="ytick_1">
     <g id="line2d_20">
      <path d="M 54.3375 492.48 
L 391.23 492.48 
" clip-path="url(#p8dddc6e5a1)" style="fill: none; stroke: #cccccc; stroke-width: 0.8; stroke-linecap: round"/>
     </g>
     <g id="text_21">
      <!-- 0 -->
      <g style="fill: #262626" transform="translate(40.4385 495.823312)scale(0.088 -0.088)">
       <use xlink:href="#DejaVuSans-30"/>
      </g>
     </g>
    </g>
    <g id="ytick_2">
     <g id="line2d_21">
      <path d="M 54.3375 476.409853 
L 391.23 476.409853 
" clip-path="url(#p8dddc6e5a1)" style="fill: none; stroke: #cccccc; stroke-width: 0.8; stroke-linecap: round"/>
     </g>
     <g id="text_22">
      <!-- 100 -->
      <g style="fill: #262626" transform="translate(29.2405 479.753165)scale(0.088 -0.088)">
       <use xlink:href="#DejaVuSans-31"/>
       <use xlink:href="#DejaVuSans-30" x="63.623047"/>
       <use xlink:href="#DejaVuSans-30" x="127.246094"/>
      </g>
     </g>
    </g>
    <g id="ytick_3">
     <g id="line2d_22">
      <path d="M 54.3375 460.339705 
L 391.23 460.339705 
" clip-path="url(#p8dddc6e5a1)" style="fill: none; stroke: #cccccc; stroke-width: 0.8; stroke-linecap: round"/>
     </g>
     <g id="text_23">
      <!-- 200 -->
      <g style="fill: #262626" transform="translate(29.2405 463.683018)scale(0.088 -0.088)">
       <use xlink:href="#DejaVuSans-32"/>
       <use xlink:href="#DejaVuSans-30" x="63.623047"/>
       <use xlink:href="#DejaVuSans-30" x="127.246094"/>
      </g>
     </g>
    </g>
    <g id="ytick_4">
     <g id="line2d_23">
      <path d="M 54.3375 444.269558 
L 391.23 444.269558 
" clip-path="url(#p8dddc6e5a1)" style="fill: none; stroke: #cccccc; stroke-width: 0.8; stroke-linecap: round"/>
     </g>
     <g id="text_24">
      <!-- 300 -->
      <g style="fill: #262626" transform="translate(29.2405 447.61287)scale(0.088 -0.088)">
       <use xlink:href="#DejaVuSans-33"/>
       <use xlink:href="#DejaVuSans-30" x="63.623047"/>
       <use xlink:href="#DejaVuSans-30" x="127.246094"/>
      </g>
     </g>
    </g>
    <g id="ytick_5">
     <g id="line2d_24">
      <path d="M 54.3375 428.19941 
L 391.23 428.19941 
" clip-path="url(#p8dddc6e5a1)" style="fill: none; stroke: #cccccc; stroke-width: 0.8; stroke-linecap: round"/>
     </g>
     <g id="text_25">
      <!-- 400 -->
      <g style="fill: #262626" transform="translate(29.2405 431.542723)scale(0.088 -0.088)">
       <use xlink:href="#DejaVuSans-34"/>
       <use xlink:href="#DejaVuSans-30" x="63.623047"/>
       <use xlink:href="#DejaVuSans-30" x="127.246094"/>
      </g>
     </g>
    </g>
    <g id="ytick_6">
     <g id="line2d_25">
      <path d="M 54.3375 412.129263 
L 391.23 412.129263 
" clip-path="url(#p8dddc6e5a1)" style="fill: none; stroke: #cccccc; stroke-width: 0.8; stroke-linecap: round"/>
     </g>
     <g id="text_26">
      <!-- 500 -->
      <g style="fill: #262626" transform="translate(29.2405 415.472575)scale(0.088 -0.088)">
       <use xlink:href="#DejaVuSans-35"/>
       <use xlink:href="#DejaVuSans-30" x="63.623047"/>
       <use xlink:href="#DejaVuSans-30" x="127.246094"/>
      </g>
     </g>
    </g>
    <g id="ytick_7">
     <g id="line2d_26">
      <path d="M 54.3375 396.059115 
L 391.23 396.059115 
" clip-path="url(#p8dddc6e5a1)" style="fill: none; stroke: #cccccc; stroke-width: 0.8; stroke-linecap: round"/>
     </g>
     <g id="text_27">
      <!-- 600 -->
      <g style="fill: #262626" transform="translate(29.2405 399.402428)scale(0.088 -0.088)">
       <use xlink:href="#DejaVuSans-36"/>
       <use xlink:href="#DejaVuSans-30" x="63.623047"/>
       <use xlink:href="#DejaVuSans-30" x="127.246094"/>
      </g>
     </g>
    </g>
    <g id="ytick_8">
     <g id="line2d_27">
      <path d="M 54.3375 379.988968 
L 391.23 379.988968 
" clip-path="url(#p8dddc6e5a1)" style="fill: none; stroke: #cccccc; stroke-width: 0.8; stroke-linecap: round"/>
     </g>
     <g id="text_28">
      <!-- 700 -->
      <g style="fill: #262626" transform="translate(29.2405 383.33228)scale(0.088 -0.088)">
       <use xlink:href="#DejaVuSans-37"/>
       <use xlink:href="#DejaVuSans-30" x="63.623047"/>
       <use xlink:href="#DejaVuSans-30" x="127.246094"/>
      </g>
     </g>
    </g>
    <g id="ytick_9">
     <g id="line2d_28">
      <path d="M 54.3375 363.91882 
L 391.23 363.91882 
" clip-path="url(#p8dddc6e5a1)" style="fill: none; stroke: #cccccc; stroke-width: 0.8; stroke-linecap: round"/>
     </g>
     <g id="text_29">
      <!-- 800 -->
      <g style="fill: #262626" transform="translate(29.2405 367.262133)scale(0.088 -0.088)">
       <use xlink:href="#DejaVuSans-38"/>
       <use xlink:href="#DejaVuSans-30" x="63.623047"/>
       <use xlink:href="#DejaVuSans-30" x="127.246094"/>
      </g>
     </g>
    </g>
    <g id="ytick_10">
     <g id="line2d_29">
      <path d="M 54.3375 347.848673 
L 391.23 347.848673 
" clip-path="url(#p8dddc6e5a1)" style="fill: none; stroke: #cccccc; stroke-width: 0.8; stroke-linecap: round"/>
     </g>
     <g id="text_30">
      <!-- 900 -->
      <g style="fill: #262626" transform="translate(29.2405 351.191985)scale(0.088 -0.088)">
       <use xlink:href="#DejaVuSans-39"/>
       <use xlink:href="#DejaVuSans-30" x="63.623047"/>
       <use xlink:href="#DejaVuSans-30" x="127.246094"/>
      </g>
     </g>
    </g>
    <g id="ytick_11">
     <g id="line2d_30">
      <path d="M 54.3375 331.778525 
L 391.23 331.778525 
" clip-path="url(#p8dddc6e5a1)" style="fill: none; stroke: #cccccc; stroke-width: 0.8; stroke-linecap: round"/>
     </g>
     <g id="text_31">
      <!-- 1000 -->
      <g style="fill: #262626" transform="translate(23.6415 335.121838)scale(0.088 -0.088)">
       <use xlink:href="#DejaVuSans-31"/>
       <use xlink:href="#DejaVuSans-30" x="63.623047"/>
       <use xlink:href="#DejaVuSans-30" x="127.246094"/>
       <use xlink:href="#DejaVuSans-30" x="190.869141"/>
      </g>
     </g>
    </g>
    <g id="ytick_12">
     <g id="line2d_31">
      <path d="M 54.3375 315.708378 
L 391.23 315.708378 
" clip-path="url(#p8dddc6e5a1)" style="fill: none; stroke: #cccccc; stroke-width: 0.8; stroke-linecap: round"/>
     </g>
     <g id="text_32">
      <!-- 1100 -->
      <g style="fill: #262626" transform="translate(23.6415 319.05169)scale(0.088 -0.088)">
       <use xlink:href="#DejaVuSans-31"/>
       <use xlink:href="#DejaVuSans-31" x="63.623047"/>
       <use xlink:href="#DejaVuSans-30" x="127.246094"/>
       <use xlink:href="#DejaVuSans-30" x="190.869141"/>
      </g>
     </g>
    </g>
    <g id="ytick_13">
     <g id="line2d_32">
      <path d="M 54.3375 299.63823 
L 391.23 299.63823 
" clip-path="url(#p8dddc6e5a1)" style="fill: none; stroke: #cccccc; stroke-width: 0.8; stroke-linecap: round"/>
     </g>
     <g id="text_33">
      <!-- 1200 -->
      <g style="fill: #262626" transform="translate(23.6415 302.981543)scale(0.088 -0.088)">
       <use xlink:href="#DejaVuSans-31"/>
       <use xlink:href="#DejaVuSans-32" x="63.623047"/>
       <use xlink:href="#DejaVuSans-30" x="127.246094"/>
       <use xlink:href="#DejaVuSans-30" x="190.869141"/>
      </g>
     </g>
    </g>
    <g id="ytick_14">
     <g id="line2d_33">
      <path d="M 54.3375 283.568083 
L 391.23 283.568083 
" clip-path="url(#p8dddc6e5a1)" style="fill: none; stroke: #cccccc; stroke-width: 0.8; stroke-linecap: round"/>
     </g>
     <g id="text_34">
      <!-- 1300 -->
      <g style="fill: #262626" transform="translate(23.6415 286.911395)scale(0.088 -0.088)">
       <use xlink:href="#DejaVuSans-31"/>
       <use xlink:href="#DejaVuSans-33" x="63.623047"/>
       <use xlink:href="#DejaVuSans-30" x="127.246094"/>
       <use xlink:href="#DejaVuSans-30" x="190.869141"/>
      </g>
     </g>
    </g>
    <g id="ytick_15">
     <g id="line2d_34">
      <path d="M 54.3375 267.497935 
L 391.23 267.497935 
" clip-path="url(#p8dddc6e5a1)" style="fill: none; stroke: #cccccc; stroke-width: 0.8; stroke-linecap: round"/>
     </g>
     <g id="text_35">
      <!-- 1400 -->
      <g style="fill: #262626" transform="translate(23.6415 270.841248)scale(0.088 -0.088)">
       <use xlink:href="#DejaVuSans-31"/>
       <use xlink:href="#DejaVuSans-34" x="63.623047"/>
       <use xlink:href="#DejaVuSans-30" x="127.246094"/>
       <use xlink:href="#DejaVuSans-30" x="190.869141"/>
      </g>
     </g>
    </g>
    <g id="ytick_16">
     <g id="line2d_35">
      <path d="M 54.3375 251.427788 
L 391.23 251.427788 
" clip-path="url(#p8dddc6e5a1)" style="fill: none; stroke: #cccccc; stroke-width: 0.8; stroke-linecap: round"/>
     </g>
     <g id="text_36">
      <!-- 1500 -->
      <g style="fill: #262626" transform="translate(23.6415 254.7711)scale(0.088 -0.088)">
       <use xlink:href="#DejaVuSans-31"/>
       <use xlink:href="#DejaVuSans-35" x="63.623047"/>
       <use xlink:href="#DejaVuSans-30" x="127.246094"/>
       <use xlink:href="#DejaVuSans-30" x="190.869141"/>
      </g>
     </g>
    </g>
    <g id="ytick_17">
     <g id="line2d_36">
      <path d="M 54.3375 235.35764 
L 391.23 235.35764 
" clip-path="url(#p8dddc6e5a1)" style="fill: none; stroke: #cccccc; stroke-width: 0.8; stroke-linecap: round"/>
     </g>
     <g id="text_37">
      <!-- 1600 -->
      <g style="fill: #262626" transform="translate(23.6415 238.700953)scale(0.088 -0.088)">
       <use xlink:href="#DejaVuSans-31"/>
       <use xlink:href="#DejaVuSans-36" x="63.623047"/>
       <use xlink:href="#DejaVuSans-30" x="127.246094"/>
       <use xlink:href="#DejaVuSans-30" x="190.869141"/>
      </g>
     </g>
    </g>
    <g id="ytick_18">
     <g id="line2d_37">
      <path d="M 54.3375 219.287493 
L 391.23 219.287493 
" clip-path="url(#p8dddc6e5a1)" style="fill: none; stroke: #cccccc; stroke-width: 0.8; stroke-linecap: round"/>
     </g>
     <g id="text_38">
      <!-- 1700 -->
      <g style="fill: #262626" transform="translate(23.6415 222.630806)scale(0.088 -0.088)">
       <use xlink:href="#DejaVuSans-31"/>
       <use xlink:href="#DejaVuSans-37" x="63.623047"/>
       <use xlink:href="#DejaVuSans-30" x="127.246094"/>
       <use xlink:href="#DejaVuSans-30" x="190.869141"/>
      </g>
     </g>
    </g>
    <g id="ytick_19">
     <g id="line2d_38">
      <path d="M 54.3375 203.217346 
L 391.23 203.217346 
" clip-path="url(#p8dddc6e5a1)" style="fill: none; stroke: #cccccc; stroke-width: 0.8; stroke-linecap: round"/>
     </g>
     <g id="text_39">
      <!-- 1800 -->
      <g style="fill: #262626" transform="translate(23.6415 206.560658)scale(0.088 -0.088)">
       <use xlink:href="#DejaVuSans-31"/>
       <use xlink:href="#DejaVuSans-38" x="63.623047"/>
       <use xlink:href="#DejaVuSans-30" x="127.246094"/>
       <use xlink:href="#DejaVuSans-30" x="190.869141"/>
      </g>
     </g>
    </g>
    <g id="ytick_20">
     <g id="line2d_39">
      <path d="M 54.3375 187.147198 
L 391.23 187.147198 
" clip-path="url(#p8dddc6e5a1)" style="fill: none; stroke: #cccccc; stroke-width: 0.8; stroke-linecap: round"/>
     </g>
     <g id="text_40">
      <!-- 1900 -->
      <g style="fill: #262626" transform="translate(23.6415 190.490511)scale(0.088 -0.088)">
       <use xlink:href="#DejaVuSans-31"/>
       <use xlink:href="#DejaVuSans-39" x="63.623047"/>
       <use xlink:href="#DejaVuSans-30" x="127.246094"/>
       <use xlink:href="#DejaVuSans-30" x="190.869141"/>
      </g>
     </g>
    </g>
    <g id="ytick_21">
     <g id="line2d_40">
      <path d="M 54.3375 171.077051 
L 391.23 171.077051 
" clip-path="url(#p8dddc6e5a1)" style="fill: none; stroke: #cccccc; stroke-width: 0.8; stroke-linecap: round"/>
     </g>
     <g id="text_41">
      <!-- 2000 -->
      <g style="fill: #262626" transform="translate(23.6415 174.420363)scale(0.088 -0.088)">
       <use xlink:href="#DejaVuSans-32"/>
       <use xlink:href="#DejaVuSans-30" x="63.623047"/>
       <use xlink:href="#DejaVuSans-30" x="127.246094"/>
       <use xlink:href="#DejaVuSans-30" x="190.869141"/>
      </g>
     </g>
    </g>
    <g id="ytick_22">
     <g id="line2d_41">
      <path d="M 54.3375 155.006903 
L 391.23 155.006903 
" clip-path="url(#p8dddc6e5a1)" style="fill: none; stroke: #cccccc; stroke-width: 0.8; stroke-linecap: round"/>
     </g>
     <g id="text_42">
      <!-- 2100 -->
      <g style="fill: #262626" transform="translate(23.6415 158.350216)scale(0.088 -0.088)">
       <use xlink:href="#DejaVuSans-32"/>
       <use xlink:href="#DejaVuSans-31" x="63.623047"/>
       <use xlink:href="#DejaVuSans-30" x="127.246094"/>
       <use xlink:href="#DejaVuSans-30" x="190.869141"/>
      </g>
     </g>
    </g>
    <g id="ytick_23">
     <g id="line2d_42">
      <path d="M 54.3375 138.936756 
L 391.23 138.936756 
" clip-path="url(#p8dddc6e5a1)" style="fill: none; stroke: #cccccc; stroke-width: 0.8; stroke-linecap: round"/>
     </g>
     <g id="text_43">
      <!-- 2200 -->
      <g style="fill: #262626" transform="translate(23.6415 142.280068)scale(0.088 -0.088)">
       <use xlink:href="#DejaVuSans-32"/>
       <use xlink:href="#DejaVuSans-32" x="63.623047"/>
       <use xlink:href="#DejaVuSans-30" x="127.246094"/>
       <use xlink:href="#DejaVuSans-30" x="190.869141"/>
      </g>
     </g>
    </g>
    <g id="ytick_24">
     <g id="line2d_43">
      <path d="M 54.3375 122.866608 
L 391.23 122.866608 
" clip-path="url(#p8dddc6e5a1)" style="fill: none; stroke: #cccccc; stroke-width: 0.8; stroke-linecap: round"/>
     </g>
     <g id="text_44">
      <!-- 2300 -->
      <g style="fill: #262626" transform="translate(23.6415 126.209921)scale(0.088 -0.088)">
       <use xlink:href="#DejaVuSans-32"/>
       <use xlink:href="#DejaVuSans-33" x="63.623047"/>
       <use xlink:href="#DejaVuSans-30" x="127.246094"/>
       <use xlink:href="#DejaVuSans-30" x="190.869141"/>
      </g>
     </g>
    </g>
    <g id="ytick_25">
     <g id="line2d_44">
      <path d="M 54.3375 106.796461 
L 391.23 106.796461 
" clip-path="url(#p8dddc6e5a1)" style="fill: none; stroke: #cccccc; stroke-width: 0.8; stroke-linecap: round"/>
     </g>
     <g id="text_45">
      <!-- 2400 -->
      <g style="fill: #262626" transform="translate(23.6415 110.139773)scale(0.088 -0.088)">
       <use xlink:href="#DejaVuSans-32"/>
       <use xlink:href="#DejaVuSans-34" x="63.623047"/>
       <use xlink:href="#DejaVuSans-30" x="127.246094"/>
       <use xlink:href="#DejaVuSans-30" x="190.869141"/>
      </g>
     </g>
    </g>
    <g id="ytick_26">
     <g id="line2d_45">
      <path d="M 54.3375 90.726313 
L 391.23 90.726313 
" clip-path="url(#p8dddc6e5a1)" style="fill: none; stroke: #cccccc; stroke-width: 0.8; stroke-linecap: round"/>
     </g>
     <g id="text_46">
      <!-- 2500 -->
      <g style="fill: #262626" transform="translate(23.6415 94.069626)scale(0.088 -0.088)">
       <use xlink:href="#DejaVuSans-32"/>
       <use xlink:href="#DejaVuSans-35" x="63.623047"/>
       <use xlink:href="#DejaVuSans-30" x="127.246094"/>
       <use xlink:href="#DejaVuSans-30" x="190.869141"/>
      </g>
     </g>
    </g>
    <g id="text_47">
     <!-- Edge Coverages -->
     <g style="fill: #262626" transform="translate(17.645 329.98575)rotate(-90)scale(0.096 -0.096)">
      <defs>
       <path id="DejaVuSans-45" d="M 628 4666 
L 3578 4666 
L 3578 4134 
L 1259 4134 
L 1259 2753 
L 3481 2753 
L 3481 2222 
L 1259 2222 
L 1259 531 
L 3634 531 
L 3634 0 
L 628 0 
L 628 4666 
z
" transform="scale(0.015625)"/>
       <path id="DejaVuSans-64" d="M 2906 2969 
L 2906 4863 
L 3481 4863 
L 3481 0 
L 2906 0 
L 2906 525 
Q 2725 213 2448 61 
Q 2172 -91 1784 -91 
Q 1150 -91 751 415 
Q 353 922 353 1747 
Q 353 2572 751 3078 
Q 1150 3584 1784 3584 
Q 2172 3584 2448 3432 
Q 2725 3281 2906 2969 
z
M 947 1747 
Q 947 1113 1208 752 
Q 1469 391 1925 391 
Q 2381 391 2643 752 
Q 2906 1113 2906 1747 
Q 2906 2381 2643 2742 
Q 2381 3103 1925 3103 
Q 1469 3103 1208 2742 
Q 947 2381 947 1747 
z
" transform="scale(0.015625)"/>
       <path id="DejaVuSans-67" d="M 2906 1791 
Q 2906 2416 2648 2759 
Q 2391 3103 1925 3103 
Q 1463 3103 1205 2759 
Q 947 2416 947 1791 
Q 947 1169 1205 825 
Q 1463 481 1925 481 
Q 2391 481 2648 825 
Q 2906 1169 2906 1791 
z
M 3481 434 
Q 3481 -459 3084 -895 
Q 2688 -1331 1869 -1331 
Q 1566 -1331 1297 -1286 
Q 1028 -1241 775 -1147 
L 775 -588 
Q 1028 -725 1275 -790 
Q 1522 -856 1778 -856 
Q 2344 -856 2625 -561 
Q 2906 -266 2906 331 
L 2906 616 
Q 2728 306 2450 153 
Q 2172 0 1784 0 
Q 1141 0 747 490 
Q 353 981 353 1791 
Q 353 2603 747 3093 
Q 1141 3584 1784 3584 
Q 2172 3584 2450 3431 
Q 2728 3278 2906 2969 
L 2906 3500 
L 3481 3500 
L 3481 434 
z
" transform="scale(0.015625)"/>
       <path id="DejaVuSans-43" d="M 4122 4306 
L 4122 3641 
Q 3803 3938 3442 4084 
Q 3081 4231 2675 4231 
Q 1875 4231 1450 3742 
Q 1025 3253 1025 2328 
Q 1025 1406 1450 917 
Q 1875 428 2675 428 
Q 3081 428 3442 575 
Q 3803 722 4122 1019 
L 4122 359 
Q 3791 134 3420 21 
Q 3050 -91 2638 -91 
Q 1578 -91 968 557 
Q 359 1206 359 2328 
Q 359 3453 968 4101 
Q 1578 4750 2638 4750 
Q 3056 4750 3426 4639 
Q 3797 4528 4122 4306 
z
" transform="scale(0.015625)"/>
       <path id="DejaVuSans-6f" d="M 1959 3097 
Q 1497 3097 1228 2736 
Q 959 2375 959 1747 
Q 959 1119 1226 758 
Q 1494 397 1959 397 
Q 2419 397 2687 759 
Q 2956 1122 2956 1747 
Q 2956 2369 2687 2733 
Q 2419 3097 1959 3097 
z
M 1959 3584 
Q 2709 3584 3137 3096 
Q 3566 2609 3566 1747 
Q 3566 888 3137 398 
Q 2709 -91 1959 -91 
Q 1206 -91 779 398 
Q 353 888 353 1747 
Q 353 2609 779 3096 
Q 1206 3584 1959 3584 
z
" transform="scale(0.015625)"/>
       <path id="DejaVuSans-76" d="M 191 3500 
L 800 3500 
L 1894 563 
L 2988 3500 
L 3597 3500 
L 2284 0 
L 1503 0 
L 191 3500 
z
" transform="scale(0.015625)"/>
       <path id="DejaVuSans-72" d="M 2631 2963 
Q 2534 3019 2420 3045 
Q 2306 3072 2169 3072 
Q 1681 3072 1420 2755 
Q 1159 2438 1159 1844 
L 1159 0 
L 581 0 
L 581 3500 
L 1159 3500 
L 1159 2956 
Q 1341 3275 1631 3429 
Q 1922 3584 2338 3584 
Q 2397 3584 2469 3576 
Q 2541 3569 2628 3553 
L 2631 2963 
z
" transform="scale(0.015625)"/>
       <path id="DejaVuSans-61" d="M 2194 1759 
Q 1497 1759 1228 1600 
Q 959 1441 959 1056 
Q 959 750 1161 570 
Q 1363 391 1709 391 
Q 2188 391 2477 730 
Q 2766 1069 2766 1631 
L 2766 1759 
L 2194 1759 
z
M 3341 1997 
L 3341 0 
L 2766 0 
L 2766 531 
Q 2569 213 2275 61 
Q 1981 -91 1556 -91 
Q 1019 -91 701 211 
Q 384 513 384 1019 
Q 384 1609 779 1909 
Q 1175 2209 1959 2209 
L 2766 2209 
L 2766 2266 
Q 2766 2663 2505 2880 
Q 2244 3097 1772 3097 
Q 1472 3097 1187 3025 
Q 903 2953 641 2809 
L 641 3341 
Q 956 3463 1253 3523 
Q 1550 3584 1831 3584 
Q 2591 3584 2966 3190 
Q 3341 2797 3341 1997 
z
" transform="scale(0.015625)"/>
      </defs>
      <use xlink:href="#DejaVuSans-45"/>
      <use xlink:href="#DejaVuSans-64" x="63.183594"/>
      <use xlink:href="#DejaVuSans-67" x="126.660156"/>
      <use xlink:href="#DejaVuSans-65" x="190.136719"/>
      <use xlink:href="#DejaVuSans-20" x="251.660156"/>
      <use xlink:href="#DejaVuSans-43" x="283.447266"/>
      <use xlink:href="#DejaVuSans-6f" x="353.271484"/>
      <use xlink:href="#DejaVuSans-76" x="414.453125"/>
      <use xlink:href="#DejaVuSans-65" x="473.632812"/>
      <use xlink:href="#DejaVuSans-72" x="535.15625"/>
      <use xlink:href="#DejaVuSans-61" x="576.269531"/>
      <use xlink:href="#DejaVuSans-67" x="637.548828"/>
      <use xlink:href="#DejaVuSans-65" x="701.025391"/>
      <use xlink:href="#DejaVuSans-73" x="762.548828"/>
     </g>
    </g>
   </g>
   <g id="PolyCollection_1">
    <defs>
     <path id="m4dcacd9bf0" d="M 69.650795 -86.573328 
L 69.650795 -83.52 
L 69.650795 -86.573328 
L 69.650795 -86.573328 
z
" style="stroke: #db5f57; stroke-opacity: 0.2; stroke-width: 0.8"/>
    </defs>
    <g clip-path="url(#p8dddc6e5a1)">
     <use xlink:href="#m4dcacd9bf0" x="0" y="576" style="fill: #db5f57; fill-opacity: 0.2; stroke: #db5f57; stroke-opacity: 0.2; stroke-width: 0.8"/>
    </g>
   </g>
   <g id="PolyCollection_2">
    <defs>
     <path id="m1c7342b35e" d="M 69.650795 -86.573328 
L 69.650795 -83.52 
L 69.650795 -86.573328 
L 69.650795 -86.573328 
z
" style="stroke: #b9db57; stroke-opacity: 0.2; stroke-width: 0.8"/>
    </defs>
    <g clip-path="url(#p8dddc6e5a1)">
     <use xlink:href="#m1c7342b35e" x="0" y="576" style="fill: #b9db57; fill-opacity: 0.2; stroke: #b9db57; stroke-opacity: 0.2; stroke-width: 0.8"/>
    </g>
   </g>
   <g id="PolyCollection_3">
    <defs>
     <path id="m2d954f86ba" d="M 69.650795 -84.805612 
L 69.650795 -83.52 
L 69.650795 -84.805612 
L 69.650795 -84.805612 
z
" style="stroke: #57db94; stroke-opacity: 0.2; stroke-width: 0.8"/>
    </defs>
    <g clip-path="url(#p8dddc6e5a1)">
     <use xlink:href="#m2d954f86ba" x="0" y="576" style="fill: #57db94; fill-opacity: 0.2; stroke: #57db94; stroke-opacity: 0.2; stroke-width: 0.8"/>
    </g>
   </g>
   <g id="PolyCollection_4">
    <defs>
     <path id="m31206b1527" d="M 69.650795 -85.448418 
L 69.650795 -83.52 
L 69.650795 -85.448418 
L 69.650795 -85.448418 
z
" style="stroke: #5784db; stroke-opacity: 0.2; stroke-width: 0.8"/>
    </defs>
    <g clip-path="url(#p8dddc6e5a1)">
     <use xlink:href="#m31206b1527" x="0" y="576" style="fill: #5784db; fill-opacity: 0.2; stroke: #5784db; stroke-opacity: 0.2; stroke-width: 0.8"/>
    </g>
   </g>
   <g id="PolyCollection_5">
    <defs>
     <path id="m5823313a89" d="M 69.650795 -86.573328 
L 69.650795 -83.52 
L 69.650795 -86.573328 
L 69.650795 -86.573328 
z
" style="stroke: #c957db; stroke-opacity: 0.2; stroke-width: 0.8"/>
    </defs>
    <g clip-path="url(#p8dddc6e5a1)">
     <use xlink:href="#m5823313a89" x="0" y="576" style="fill: #c957db; fill-opacity: 0.2; stroke: #c957db; stroke-opacity: 0.2; stroke-width: 0.8"/>
    </g>
   </g>
   <g id="line2d_46">
    <path d="M 69.650795 490.953336 
L 69.863628 489.426672 
L 71.353455 489.426672 
L 71.991953 484.766329 
L 74.33311 484.766329 
L 74.758774 464.357242 
L 74.971607 453.429542 
L 75.184439 448.608497 
L 75.397272 438.645006 
L 76.887099 424.342575 
L 77.099932 420.646441 
L 77.738429 416.307501 
L 77.951261 415.825397 
L 78.802591 411.968561 
L 79.228256 411.647158 
L 79.441089 410.200845 
L 80.079586 408.59383 
L 80.292418 406.826114 
L 80.718083 406.022607 
L 80.930916 401.201562 
L 81.143748 400.398055 
L 81.356581 398.79104 
L 81.782246 377.899849 
L 81.995078 375.650028 
L 82.207911 374.846521 
L 82.633575 343.670434 
L 83.05924 322.45784 
L 83.272073 318.601004 
L 83.484905 312.333647 
L 83.697738 311.369438 
L 83.91057 301.405947 
L 84.123403 299.959633 
L 84.336235 299.959633 
L 84.549068 294.656485 
L 84.7619 283.728784 
L 84.974733 279.389845 
L 85.187565 279.068442 
L 85.400397 277.461427 
L 86.038895 253.999012 
L 86.46456 251.749191 
L 86.677392 245.803236 
L 86.890225 244.03552 
L 87.103057 244.03552 
L 87.31589 240.821491 
L 87.528722 223.30503 
L 87.954387 208.03839 
L 88.167219 207.074181 
L 88.380052 207.074181 
L 88.805717 193.89666 
L 89.231382 192.77175 
L 89.869879 191.968242 
L 90.082712 191.968242 
L 90.295544 191.486138 
L 90.508376 188.754213 
L 90.934041 186.825795 
L 91.146874 186.825795 
L 91.359706 176.219498 
L 91.572539 175.255289 
L 91.785371 175.094587 
L 91.998204 175.094587 
L 92.211036 174.773185 
L 92.423869 174.773185 
L 92.636701 174.451782 
L 93.488031 154.364097 
L 93.913696 154.364097 
L 94.126528 154.203396 
L 94.977858 154.203396 
L 95.190691 154.042694 
L 95.403523 154.042694 
L 95.829188 153.399888 
L 96.04202 153.399888 
L 96.467685 153.078485 
L 96.680518 153.078485 
L 96.89335 152.43568 
L 97.106183 152.43568 
L 97.531848 151.953575 
L 97.74468 151.953575 
L 98.170345 150.34656 
L 98.59601 149.543053 
L 98.808842 148.09674 
L 99.234507 147.453934 
L 99.44734 146.489725 
L 99.873005 146.489725 
L 100.085837 146.329024 
L 100.29867 146.007621 
L 100.511502 145.204113 
L 101.149999 144.400606 
L 104.980984 144.400606 
L 105.406649 144.079203 
L 105.832314 144.079203 
L 106.257978 143.7578 
L 106.470811 143.7578 
L 106.683643 143.597098 
L 106.896476 143.597098 
L 107.109308 143.436397 
L 107.534973 143.436397 
L 107.747806 143.275695 
L 111.57879 143.275695 
L 112.004455 141.668681 
L 112.642952 141.668681 
L 112.855785 141.507979 
L 113.494282 141.507979 
L 113.707115 141.347278 
L 114.345612 141.347278 
L 114.558444 141.025875 
L 114.771277 141.025875 
L 114.984109 140.865173 
L 117.112434 140.865173 
L 117.325266 140.704472 
L 119.027926 140.704472 
L 119.240758 140.54377 
L 122.220413 140.54377 
L 122.433245 140.383069 
L 123.497408 140.383069 
L 123.71024 140.222367 
L 124.135905 140.222367 
L 124.56157 139.900965 
L 124.774402 139.579562 
L 135.203193 139.579562 
L 135.416025 139.41886 
L 137.331518 139.41886 
L 137.757182 139.097457 
L 138.39568 137.972547 
L 138.608512 135.883428 
L 139.034177 134.919219 
L 139.672675 132.026592 
L 140.09834 131.544488 
L 140.524004 131.544488 
L 140.949669 131.223085 
L 141.162502 131.223085 
L 141.375334 130.419578 
L 141.588167 129.133966 
L 141.800999 128.973264 
L 142.013832 128.973264 
L 142.226664 128.812563 
L 142.439497 128.330458 
L 142.652329 128.169757 
L 142.865161 128.169757 
L 143.077994 128.009055 
L 144.354989 128.009055 
L 144.567821 127.848354 
L 145.206319 127.848354 
L 145.419151 127.687652 
L 145.631983 127.687652 
L 145.844816 127.526951 
L 146.057648 127.526951 
L 146.270481 127.36625 
L 146.696146 124.634324 
L 147.121811 123.670116 
L 147.334643 123.670116 
L 147.973141 122.384504 
L 148.185973 122.384504 
L 148.398805 122.223802 
L 149.462968 122.223802 
L 149.888633 121.902399 
L 150.101465 121.259593 
L 150.314298 121.098892 
L 151.165627 121.098892 
L 151.37846 120.938191 
L 152.868287 120.938191 
L 153.293952 120.616788 
L 153.719617 120.616788 
L 153.932449 120.456086 
L 154.358114 120.456086 
L 154.570947 120.295385 
L 154.996612 119.81328 
L 156.060774 119.81328 
L 156.486439 119.331176 
L 156.699271 119.170474 
L 160.530256 119.170474 
L 160.743088 119.009773 
L 160.955921 119.009773 
L 161.168753 118.68837 
L 163.50991 118.68837 
L 163.722743 118.527668 
L 167.128062 118.527668 
L 167.553727 118.206265 
L 169.256386 118.206265 
L 169.469219 117.724161 
L 174.151533 117.724161 
L 174.364365 117.56346 
L 174.577198 117.56346 
L 174.79003 117.402758 
L 183.728994 117.402758 
L 183.941826 117.242057 
L 184.367491 117.242057 
L 184.580324 117.081355 
L 195.647611 117.081355 
L 195.860444 116.920654 
L 197.988768 116.920654 
L 198.201601 116.759952 
L 205.863569 116.759952 
L 206.076402 116.599251 
L 218.633517 116.599251 
L 218.84635 116.117146 
L 224.167161 116.117146 
L 224.379993 115.956445 
L 228.849475 115.956445 
L 229.062308 115.795743 
L 230.552135 115.795743 
L 230.764967 115.635042 
L 230.9778 115.635042 
L 231.190632 115.313639 
L 233.106124 115.313639 
L 233.318957 115.152937 
L 235.021616 115.152937 
L 235.447281 114.188729 
L 235.872946 113.867326 
L 236.085779 113.867326 
L 236.298611 113.706624 
L 236.511444 113.706624 
L 236.724276 112.260311 
L 237.788438 112.260311 
L 238.001271 112.099609 
L 238.214103 112.099609 
L 238.426936 111.778206 
L 246.727402 111.778206 
L 246.940234 111.456804 
L 265.243826 111.456804 
L 265.456658 111.296102 
L 266.52082 111.296102 
L 266.733653 111.135401 
L 267.797815 111.135401 
L 268.010648 110.974699 
L 270.564637 110.974699 
L 270.77747 110.813998 
L 275.246951 110.813998 
L 275.459784 110.171192 
L 275.672616 110.01049 
L 275.885449 109.206983 
L 283.547417 109.206983 
L 283.76025 108.724878 
L 289.932391 108.724878 
L 290.145223 108.564177 
L 290.996553 108.564177 
L 291.209386 108.403475 
L 291.422218 107.921371 
L 291.635051 107.117864 
L 291.847883 106.957162 
L 292.060716 106.635759 
L 293.124878 103.743133 
L 293.763375 102.939625 
L 295.466035 102.939625 
L 295.8917 102.457521 
L 296.74303 102.457521 
L 296.955862 102.296819 
L 310.364307 102.296819 
L 310.57714 102.136118 
L 311.002804 102.136118 
L 311.215637 101.493312 
L 311.428469 101.332611 
L 315.046621 101.332611 
L 315.259454 101.171909 
L 316.962113 101.171909 
L 317.174946 101.011208 
L 321.644427 101.011208 
L 321.85726 100.850506 
L 324.836914 100.850506 
L 325.049747 100.689805 
L 328.667899 100.689805 
L 328.880731 100.529103 
L 335.478537 100.529103 
L 335.69137 100.368402 
L 335.904202 100.368402 
L 336.117035 100.2077 
L 341.225014 100.2077 
L 341.437846 99.725596 
L 350.163977 99.725596 
L 350.376809 99.564894 
L 350.589642 99.564894 
L 350.802474 99.404193 
L 364.210919 99.404193 
L 364.423752 99.243491 
L 372.511385 99.243491 
L 372.724218 98.922088 
L 375.916705 98.922088 
L 375.916705 98.922088 
" clip-path="url(#p8dddc6e5a1)" style="fill: none; stroke: #db5f57; stroke-width: 1.2; stroke-linecap: round"/>
   </g>
   <g id="line2d_47">
    <path d="M 69.650795 490.953336 
L 69.863628 489.426672 
L 71.353455 489.426672 
L 71.77912 486.212642 
L 71.991953 486.212642 
L 72.204785 486.051941 
L 74.120277 486.051941 
L 74.545942 476.570554 
L 74.758774 466.767764 
L 74.971607 464.035839 
L 75.184439 449.894109 
L 75.397272 448.608497 
L 75.610104 439.609215 
L 76.035769 433.341857 
L 76.248602 433.181156 
L 76.461434 431.895544 
L 76.887099 425.949589 
L 77.099932 425.949589 
L 77.312764 422.253456 
L 77.525596 422.092754 
L 77.738429 418.718023 
L 77.951261 418.718023 
L 78.164094 416.950307 
L 78.376926 416.1468 
L 78.802591 413.896979 
L 79.015424 413.575576 
L 79.228256 413.575576 
L 79.441089 413.414874 
L 79.653921 413.414874 
L 79.866754 411.486457 
L 80.079586 411.325755 
L 80.292418 410.522248 
L 80.505251 410.522248 
L 80.718083 408.754532 
L 80.930916 404.094189 
L 81.143748 402.487174 
L 81.569413 395.577011 
L 81.782246 376.132132 
L 82.420743 361.186895 
L 82.846408 334.992555 
L 83.05924 334.992555 
L 83.697738 307.673304 
L 83.91057 302.85226 
L 84.123403 302.209454 
L 84.7619 287.103515 
L 85.187565 273.925994 
L 85.400397 271.354771 
L 85.61323 271.194069 
L 85.826062 269.426353 
L 86.038895 258.337951 
L 86.46456 250.784982 
L 86.677392 249.017266 
L 86.890225 249.017266 
L 87.31589 245.16043 
L 88.167219 211.252419 
L 88.380052 210.609613 
L 88.592884 207.395584 
L 88.805717 201.931734 
L 89.231382 200.164018 
L 89.657047 199.842615 
L 89.869879 199.36051 
L 90.082712 199.199809 
L 90.295544 199.199809 
L 90.508376 197.914197 
L 90.721209 194.218063 
L 90.934041 193.89666 
L 91.146874 193.89666 
L 91.359706 193.253854 
L 91.572539 183.772467 
L 91.785371 183.611766 
L 92.211036 183.129661 
L 92.423869 183.129661 
L 92.849534 180.237035 
L 93.062366 177.023005 
L 93.275198 177.023005 
L 93.488031 168.987931 
L 93.700863 168.987931 
L 93.913696 163.845484 
L 94.126528 163.845484 
L 94.339361 163.684783 
L 95.190691 163.684783 
L 95.403523 163.524081 
L 95.829188 163.041977 
L 96.04202 162.881275 
L 96.254853 162.881275 
L 96.467685 162.559872 
L 97.106183 162.559872 
L 97.531848 161.274261 
L 97.74468 161.274261 
L 97.957513 161.113559 
L 98.170345 160.14935 
L 98.383177 160.14935 
L 99.021675 157.738828 
L 99.234507 157.738828 
L 99.44734 157.417425 
L 99.660172 156.453216 
L 100.085837 156.453216 
L 100.29867 156.131813 
L 100.511502 156.131813 
L 100.724335 155.167605 
L 100.937167 155.167605 
L 101.149999 154.6855 
L 105.193816 154.6855 
L 105.406649 154.364097 
L 105.832314 154.364097 
L 106.470811 153.881993 
L 107.109308 153.881993 
L 107.322141 153.721291 
L 111.791622 153.721291 
L 112.004455 152.43568 
L 112.855785 152.43568 
L 113.068617 152.274978 
L 113.494282 152.274978 
L 113.707115 152.114277 
L 114.345612 152.114277 
L 114.558444 151.953575 
L 114.771277 151.953575 
L 114.984109 151.792874 
L 119.027926 151.792874 
L 119.240758 151.632172 
L 121.794748 151.632172 
L 122.00758 151.471471 
L 123.71024 151.471471 
L 123.923073 151.310769 
L 124.56157 151.310769 
L 124.987235 150.828665 
L 133.287701 150.828665 
L 133.500533 150.667963 
L 134.99036 150.667963 
L 135.203193 150.507262 
L 136.905853 150.507262 
L 137.118685 150.34656 
L 137.54435 150.34656 
L 137.757182 150.185859 
L 138.182847 149.703754 
L 138.608512 149.703754 
L 138.821345 147.293232 
L 139.034177 146.971829 
L 139.24701 146.971829 
L 139.672675 144.722009 
L 139.885507 143.597098 
L 140.09834 143.114994 
L 140.736837 143.114994 
L 141.162502 142.793591 
L 141.800999 140.704472 
L 142.013832 140.54377 
L 142.226664 140.54377 
L 142.439497 139.900965 
L 142.652329 139.900965 
L 142.865161 139.740263 
L 143.077994 139.740263 
L 143.290826 139.579562 
L 144.567821 139.579562 
L 144.780654 139.41886 
L 145.419151 139.41886 
L 145.631983 139.258159 
L 146.057648 139.258159 
L 146.270481 138.936756 
L 146.483313 138.936756 
L 147.121811 135.562025 
L 147.547476 135.562025 
L 147.760308 135.07992 
L 147.973141 135.07992 
L 148.185973 134.437114 
L 148.398805 134.437114 
L 148.611638 134.276413 
L 149.462968 134.276413 
L 149.888633 133.95501 
L 150.101465 133.312204 
L 150.314298 133.312204 
L 150.52713 133.151503 
L 153.08112 133.151503 
L 153.506784 132.8301 
L 153.719617 132.8301 
L 154.145282 132.508697 
L 154.570947 132.508697 
L 154.783779 132.026592 
L 154.996612 132.026592 
L 155.209444 131.865891 
L 155.847942 131.865891 
L 156.699271 131.223085 
L 160.317423 131.223085 
L 160.530256 131.062383 
L 160.955921 131.062383 
L 161.168753 130.74098 
L 163.084245 130.74098 
L 163.297078 130.580279 
L 167.340894 130.580279 
L 167.553727 130.258876 
L 169.256386 130.258876 
L 169.469219 129.937473 
L 174.151533 129.937473 
L 174.364365 129.776772 
L 183.516161 129.776772 
L 183.728994 129.61607 
L 195.860444 129.61607 
L 196.073276 129.455369 
L 197.775936 129.455369 
L 197.988768 129.294667 
L 205.650737 129.294667 
L 205.863569 129.133966 
L 218.420685 129.133966 
L 218.633517 128.651861 
L 224.379993 128.651861 
L 224.592826 128.49116 
L 228.849475 128.49116 
L 229.062308 128.330458 
L 230.9778 128.330458 
L 231.190632 127.848354 
L 232.680459 127.848354 
L 232.893292 127.687652 
L 234.595951 127.687652 
L 235.234449 126.884145 
L 235.447281 126.723444 
L 235.660114 126.723444 
L 236.085779 126.241339 
L 236.511444 126.241339 
L 236.724276 124.795026 
L 236.937109 124.312921 
L 238.001271 124.312921 
L 238.214103 124.15222 
L 238.426936 124.15222 
L 238.639768 123.830817 
L 246.727402 123.830817 
L 246.940234 123.509414 
L 265.456658 123.509414 
L 265.669491 123.348713 
L 266.52082 123.348713 
L 266.733653 123.188011 
L 270.138972 123.188011 
L 270.351805 123.02731 
L 272.267297 123.02731 
L 272.480129 122.866608 
L 275.246951 122.866608 
L 275.459784 122.384504 
L 275.672616 122.384504 
L 275.885449 121.741698 
L 283.334585 121.741698 
L 283.76025 121.259593 
L 290.145223 121.259593 
L 290.358056 121.098892 
L 291.209386 121.098892 
L 291.422218 120.938191 
L 291.847883 119.652579 
L 292.060716 119.491877 
L 292.273548 119.170474 
L 292.48638 119.170474 
L 292.699213 118.366967 
L 292.912045 116.759952 
L 293.124878 116.759952 
L 293.33771 116.438549 
L 293.550543 116.438549 
L 293.976208 115.956445 
L 295.466035 115.956445 
L 295.8917 115.47434 
L 296.530197 115.47434 
L 296.74303 115.313639 
L 310.151475 115.313639 
L 310.364307 115.152937 
L 311.002804 115.152937 
L 311.215637 114.992236 
L 311.428469 114.34943 
L 315.259454 114.34943 
L 315.472286 114.188729 
L 316.749281 114.188729 
L 316.962113 114.028027 
L 321.431595 114.028027 
L 321.644427 113.867326 
L 324.624082 113.867326 
L 324.836914 113.545923 
L 328.880731 113.545923 
L 329.093563 113.385221 
L 335.69137 113.385221 
L 336.117035 113.063818 
L 341.225014 113.063818 
L 341.437846 112.742415 
L 349.738312 112.742415 
L 349.951144 112.581714 
L 350.589642 112.581714 
L 350.802474 112.260311 
L 364.210919 112.260311 
L 364.423752 112.099609 
L 372.724218 112.099609 
L 372.93705 111.778206 
L 375.916705 111.778206 
L 375.916705 111.778206 
" clip-path="url(#p8dddc6e5a1)" style="fill: none; stroke: #b9db57; stroke-width: 1.2; stroke-linecap: round"/>
   </g>
   <g id="line2d_48">
    <path d="M 69.650795 491.837194 
L 69.863628 491.033687 
L 70.289293 491.033687 
L 70.502125 489.426672 
L 71.353455 489.426672 
L 71.77912 486.212642 
L 71.991953 486.051941 
L 74.120277 486.051941 
L 74.545942 479.141778 
L 74.758774 477.374061 
L 74.971607 476.570554 
L 75.184439 474.802838 
L 75.397272 474.160032 
L 75.610104 437.841499 
L 75.822937 434.948872 
L 76.035769 434.466768 
L 76.248602 434.466768 
L 76.461434 434.306066 
L 76.674267 433.984663 
L 76.887099 433.984663 
L 77.312764 433.66326 
L 77.525596 433.341857 
L 77.738429 416.628904 
L 78.376926 416.628904 
L 78.589759 416.307501 
L 79.441089 416.307501 
L 79.653921 416.1468 
L 80.292418 416.1468 
L 80.930916 415.664695 
L 81.143748 415.664695 
L 81.569413 384.970713 
L 81.782246 380.310371 
L 81.995078 367.775656 
L 82.207911 363.276014 
L 82.420743 363.115313 
L 82.633575 351.223404 
L 82.846408 330.975018 
L 83.05924 330.975018 
L 83.272073 330.653615 
L 83.484905 329.528705 
L 83.697738 329.368003 
L 84.123403 329.368003 
L 84.336235 329.0466 
L 86.251727 329.0466 
L 86.677392 242.749908 
L 86.890225 242.589207 
L 87.31589 242.589207 
L 87.528722 241.946401 
L 90.295544 241.946401 
L 90.508376 241.785699 
L 90.934041 241.785699 
L 91.146874 197.914197 
L 91.359706 180.397736 
L 91.572539 180.397736 
L 91.785371 180.237035 
L 92.636701 180.237035 
L 92.849534 180.076333 
L 94.977858 180.076333 
L 95.190691 149.060949 
L 98.383177 149.060949 
L 98.59601 144.400606 
L 99.44734 144.400606 
L 99.660172 141.186576 
L 103.703989 141.186576 
L 103.916821 139.258159 
L 106.257978 139.258159 
L 106.470811 138.454651 
L 109.450465 138.454651 
L 109.663298 138.133248 
L 113.068617 138.133248 
L 113.28145 136.365532 
L 118.815094 136.365532 
L 119.027926 135.722726 
L 119.240758 135.562025 
L 125.838565 135.562025 
L 126.051397 134.597816 
L 138.182847 134.597816 
L 138.39568 133.472906 
L 142.013832 133.472906 
L 142.226664 124.15222 
L 145.844816 124.15222 
L 146.057648 122.705907 
L 148.398805 122.705907 
L 148.611638 117.56346 
L 152.868287 117.56346 
L 153.08112 116.277848 
L 156.273606 116.277848 
L 156.486439 116.117146 
L 156.699271 116.117146 
L 156.912104 114.510132 
L 161.80725 114.510132 
L 162.020083 114.028027 
L 164.36124 114.028027 
L 164.574072 113.867326 
L 170.533381 113.867326 
L 170.746214 113.063818 
L 175.428528 113.063818 
L 175.64136 112.903117 
L 187.77281 112.903117 
L 187.985643 112.742415 
L 198.201601 112.742415 
L 198.414433 112.421012 
L 207.779062 112.421012 
L 207.991894 112.260311 
L 220.974674 112.260311 
L 221.187507 111.778206 
L 224.592826 111.778206 
L 224.805658 111.617505 
L 232.680459 111.617505 
L 232.893292 110.974699 
L 236.511444 110.974699 
L 236.724276 107.921371 
L 239.916763 107.921371 
L 240.129595 106.957162 
L 240.342428 106.796461 
L 249.281391 106.796461 
L 249.494224 106.475058 
L 267.584983 106.475058 
L 267.797815 106.153655 
L 272.692962 106.153655 
L 272.905794 105.832252 
L 279.077936 105.832252 
L 279.290768 104.54664 
L 283.76025 104.54664 
L 283.973082 104.064536 
L 290.996553 104.064536 
L 291.422218 103.582431 
L 292.060716 103.582431 
L 292.273548 101.975417 
L 295.678867 101.975417 
L 295.8917 97.797178 
L 299.084187 97.797178 
L 299.297019 97.636477 
L 310.151475 97.636477 
L 310.364307 97.475775 
L 310.789972 97.475775 
L 311.215637 97.154372 
L 311.428469 96.672268 
L 315.046621 96.672268 
L 315.259454 96.511566 
L 318.451941 96.511566 
L 318.664773 96.350865 
L 324.411249 96.350865 
L 324.836914 95.86876 
L 331.221888 95.86876 
L 331.434721 95.708059 
L 337.394029 95.708059 
L 337.606862 95.386656 
L 343.779003 95.386656 
L 343.991836 94.904552 
L 350.376809 94.904552 
L 350.802474 94.583149 
L 353.143631 94.583149 
L 353.356464 94.422447 
L 365.913579 94.422447 
L 366.126411 94.261746 
L 373.149883 94.261746 
L 373.362715 93.940343 
L 375.916705 93.940343 
L 375.916705 93.940343 
" clip-path="url(#p8dddc6e5a1)" style="fill: none; stroke: #57db94; stroke-width: 1.2; stroke-linecap: round"/>
   </g>
   <g id="line2d_49">
    <path d="M 69.650795 491.515791 
L 69.863628 490.390881 
L 70.07646 490.069478 
L 70.289293 490.069478 
L 70.502125 489.426672 
L 71.353455 489.426672 
L 71.77912 486.373344 
L 71.991953 486.373344 
L 72.204785 486.051941 
L 74.545942 486.051941 
L 74.971607 456.804273 
L 75.397272 438.645006 
L 75.610104 438.484305 
L 75.822937 438.162902 
L 76.035769 438.162902 
L 76.248602 430.609932 
L 77.312764 420.325038 
L 130.095214 420.325038 
L 130.946544 134.276413 
L 146.908978 134.276413 
L 147.121811 129.294667 
L 147.334643 118.68837 
L 147.547476 118.206265 
L 147.760308 118.206265 
L 147.973141 117.402758 
L 148.398805 117.402758 
L 148.611638 117.242057 
L 149.462968 117.242057 
L 149.6758 117.081355 
L 149.888633 117.081355 
L 150.314298 116.117146 
L 153.08112 116.117146 
L 153.293952 115.795743 
L 154.783779 115.795743 
L 154.996612 114.831534 
L 156.060774 114.831534 
L 156.486439 114.34943 
L 157.763434 114.34943 
L 157.976266 114.188729 
L 161.381585 114.188729 
L 161.594418 113.706624 
L 163.084245 113.706624 
L 163.297078 113.545923 
L 167.340894 113.545923 
L 167.553727 113.385221 
L 168.830722 113.385221 
L 169.043554 113.22452 
L 169.256386 113.22452 
L 169.469219 112.742415 
L 175.215695 112.742415 
L 175.428528 112.581714 
L 183.941826 112.581714 
L 184.154659 112.421012 
L 195.647611 112.421012 
L 195.860444 112.260311 
L 197.775936 112.260311 
L 197.988768 112.099609 
L 205.650737 112.099609 
L 205.863569 111.938908 
L 218.207852 111.938908 
L 218.420685 111.456804 
L 224.379993 111.456804 
L 224.592826 111.296102 
L 229.487972 111.296102 
L 229.700805 111.135401 
L 230.552135 111.135401 
L 230.764967 110.974699 
L 230.9778 110.653296 
L 232.893292 110.653296 
L 233.106124 110.492595 
L 235.234449 110.492595 
L 235.447281 109.528386 
L 236.085779 109.528386 
L 236.298611 109.046281 
L 236.724276 109.046281 
L 236.937109 107.117864 
L 238.001271 107.117864 
L 238.214103 106.957162 
L 240.129595 106.957162 
L 240.342428 106.635759 
L 247.791564 106.635759 
L 248.004396 106.314356 
L 268.010648 106.314356 
L 268.22348 105.992953 
L 272.054464 105.992953 
L 272.267297 105.832252 
L 275.672616 105.832252 
L 275.885449 104.225237 
L 283.547417 104.225237 
L 283.76025 103.903834 
L 285.888574 103.903834 
L 286.101407 103.743133 
L 292.060716 103.743133 
L 292.273548 101.332611 
L 296.104532 101.332611 
L 296.317365 97.475775 
L 298.658522 97.475775 
L 298.871354 97.315074 
L 311.002804 97.315074 
L 311.215637 96.993671 
L 316.110783 96.993671 
L 316.323616 96.190163 
L 318.877605 96.190163 
L 319.090438 96.029462 
L 322.921422 96.029462 
L 323.134255 95.86876 
L 327.390904 95.86876 
L 327.603736 95.547358 
L 329.944893 95.547358 
L 330.157726 95.386656 
L 337.181197 95.386656 
L 337.606862 94.904552 
L 341.863511 94.904552 
L 342.076343 94.422447 
L 350.589642 94.422447 
L 350.802474 94.101044 
L 356.336118 94.101044 
L 356.548951 93.940343 
L 366.339244 93.940343 
L 366.552076 93.779641 
L 374.63971 93.779641 
L 374.852542 93.458238 
L 375.916705 93.458238 
L 375.916705 93.458238 
" clip-path="url(#p8dddc6e5a1)" style="fill: none; stroke: #5784db; stroke-width: 1.2; stroke-linecap: round"/>
   </g>
   <g id="line2d_50">
    <path d="M 69.650795 490.953336 
L 69.863628 489.426672 
L 71.353455 489.426672 
L 71.991953 484.444926 
L 74.120277 484.444926 
L 74.33311 478.820375 
L 74.971607 451.661825 
L 75.184439 445.876572 
L 75.397272 436.555887 
L 76.035769 429.967126 
L 76.248602 428.19941 
L 76.674267 423.539067 
L 76.887099 422.092754 
L 77.099932 418.235919 
L 77.951261 413.575576 
L 78.802591 409.558039 
L 79.015424 409.397338 
L 79.228256 409.397338 
L 79.441089 407.951024 
L 80.079586 406.34401 
L 80.292418 404.576293 
L 80.718083 403.612084 
L 80.930916 398.79104 
L 81.143748 397.344727 
L 81.356581 393.487892 
L 81.782246 369.38267 
L 82.207911 357.812164 
L 82.420743 350.741299 
L 82.846408 325.350466 
L 83.05924 315.708378 
L 83.272073 314.583468 
L 83.484905 302.048752 
L 83.91057 293.370873 
L 84.123403 291.603157 
L 84.549068 282.282471 
L 84.974733 269.10495 
L 85.400397 258.980757 
L 85.61323 258.820056 
L 86.038895 245.963938 
L 86.46456 238.732371 
L 86.890225 235.036238 
L 87.103057 235.036238 
L 87.31589 230.857999 
L 87.528722 213.020136 
L 87.954387 196.949988 
L 88.380052 195.02157 
L 88.592884 191.486138 
L 88.805717 185.700885 
L 89.231382 184.415273 
L 89.444214 184.254572 
L 90.082712 183.451064 
L 90.295544 183.290363 
L 90.508376 179.272826 
L 90.934041 177.987214 
L 91.146874 177.987214 
L 91.359706 167.059514 
L 91.785371 166.416708 
L 91.998204 166.416708 
L 92.211036 166.256006 
L 92.423869 166.256006 
L 92.636701 164.648992 
L 92.849534 160.310052 
L 93.062366 152.43568 
L 93.275198 151.953575 
L 93.488031 146.007621 
L 93.913696 146.007621 
L 94.126528 145.846919 
L 94.977858 145.846919 
L 95.190691 145.686218 
L 95.403523 145.686218 
L 95.829188 145.043412 
L 96.04202 145.043412 
L 96.467685 144.722009 
L 96.680518 144.722009 
L 96.89335 144.079203 
L 97.106183 144.079203 
L 97.531848 143.436397 
L 97.74468 143.436397 
L 98.170345 141.829382 
L 98.59601 141.025875 
L 98.808842 139.579562 
L 99.234507 138.936756 
L 99.44734 137.972547 
L 99.873005 137.972547 
L 100.085837 137.811845 
L 100.29867 137.490442 
L 100.511502 136.686935 
L 101.149999 135.883428 
L 104.980984 135.883428 
L 105.406649 135.562025 
L 105.832314 135.562025 
L 106.045146 135.401323 
L 106.257978 135.07992 
L 106.896476 135.07992 
L 107.322141 134.758517 
L 111.57879 134.758517 
L 112.004455 133.151503 
L 112.642952 133.151503 
L 112.855785 132.990801 
L 113.494282 132.990801 
L 113.707115 132.8301 
L 114.345612 132.8301 
L 114.558444 132.508697 
L 114.771277 132.508697 
L 114.984109 132.347995 
L 117.112434 132.347995 
L 117.325266 132.187294 
L 119.027926 132.187294 
L 119.240758 132.026592 
L 121.794748 132.026592 
L 122.00758 131.865891 
L 123.497408 131.865891 
L 123.71024 131.705189 
L 124.135905 131.705189 
L 124.56157 131.383786 
L 124.774402 131.062383 
L 134.99036 131.062383 
L 135.203193 130.901682 
L 137.331518 130.901682 
L 137.757182 130.580279 
L 138.39568 129.455369 
L 138.608512 127.36625 
L 139.034177 126.402041 
L 139.672675 123.509414 
L 140.09834 123.02731 
L 140.524004 123.02731 
L 140.949669 122.705907 
L 141.162502 122.705907 
L 141.375334 121.902399 
L 141.588167 120.616788 
L 141.800999 120.456086 
L 142.013832 120.456086 
L 142.226664 120.295385 
L 142.439497 119.81328 
L 142.652329 119.652579 
L 142.865161 119.652579 
L 143.077994 119.491877 
L 144.354989 119.491877 
L 144.567821 119.331176 
L 145.206319 119.331176 
L 145.419151 119.170474 
L 145.631983 119.170474 
L 145.844816 119.009773 
L 146.057648 119.009773 
L 146.270481 118.849071 
L 146.696146 116.117146 
L 147.121811 115.152937 
L 147.334643 115.152937 
L 147.973141 113.867326 
L 148.185973 113.867326 
L 148.398805 113.706624 
L 149.462968 113.706624 
L 149.888633 113.385221 
L 150.101465 112.742415 
L 150.314298 112.581714 
L 151.165627 112.581714 
L 151.37846 112.421012 
L 152.868287 112.421012 
L 153.293952 112.099609 
L 153.719617 112.099609 
L 154.145282 111.778206 
L 154.358114 111.778206 
L 154.570947 111.617505 
L 154.996612 111.135401 
L 155.847942 111.135401 
L 156.699271 110.492595 
L 160.317423 110.492595 
L 160.530256 110.331893 
L 160.955921 110.331893 
L 161.168753 110.01049 
L 163.084245 110.01049 
L 163.297078 109.849789 
L 167.128062 109.849789 
L 167.553727 109.528386 
L 169.256386 109.528386 
L 169.469219 109.046281 
L 174.151533 109.046281 
L 174.364365 108.88558 
L 183.516161 108.88558 
L 183.728994 108.724878 
L 184.367491 108.724878 
L 184.580324 108.564177 
L 195.647611 108.564177 
L 195.860444 108.403475 
L 197.775936 108.403475 
L 197.988768 108.242774 
L 205.650737 108.242774 
L 205.863569 108.082073 
L 218.207852 108.082073 
L 218.420685 107.599968 
L 224.167161 107.599968 
L 224.379993 107.439267 
L 228.849475 107.439267 
L 229.062308 107.278565 
L 230.552135 107.278565 
L 230.764967 107.117864 
L 230.9778 106.796461 
L 232.680459 106.796461 
L 232.893292 106.635759 
L 234.595951 106.635759 
L 235.234449 105.832252 
L 236.085779 105.189446 
L 236.511444 105.189446 
L 236.724276 103.261028 
L 237.788438 103.261028 
L 238.001271 103.100327 
L 238.214103 103.100327 
L 238.426936 102.778924 
L 246.727402 102.778924 
L 246.940234 102.457521 
L 265.243826 102.457521 
L 265.456658 102.296819 
L 266.52082 102.296819 
L 266.733653 102.136118 
L 267.797815 102.136118 
L 268.010648 101.975417 
L 270.138972 101.975417 
L 270.351805 101.814715 
L 272.267297 101.814715 
L 272.480129 101.654014 
L 275.246951 101.654014 
L 275.459784 101.011208 
L 275.672616 100.850506 
L 275.885449 100.046999 
L 283.334585 100.046999 
L 283.76025 99.404193 
L 289.932391 99.404193 
L 290.145223 99.243491 
L 290.996553 99.243491 
L 291.209386 99.08279 
L 291.422218 98.600686 
L 291.635051 97.797178 
L 291.847883 97.636477 
L 292.060716 97.315074 
L 293.124878 94.422447 
L 293.763375 93.61894 
L 295.466035 93.61894 
L 295.8917 93.136835 
L 296.530197 93.136835 
L 296.74303 92.976134 
L 310.151475 92.976134 
L 310.364307 92.815432 
L 310.789972 92.815432 
L 311.002804 92.654731 
L 311.215637 92.172627 
L 311.428469 92.011925 
L 315.046621 92.011925 
L 315.259454 91.851224 
L 316.749281 91.851224 
L 316.962113 91.690522 
L 321.431595 91.690522 
L 321.644427 91.529821 
L 324.411249 91.529821 
L 324.836914 91.208418 
L 328.667899 91.208418 
L 328.880731 91.047716 
L 335.478537 91.047716 
L 335.69137 90.887015 
L 335.904202 90.887015 
L 336.117035 90.726313 
L 341.225014 90.726313 
L 341.437846 90.244209 
L 349.738312 90.244209 
L 349.951144 90.083507 
L 350.376809 90.083507 
L 350.802474 89.762104 
L 364.210919 89.762104 
L 364.423752 89.601403 
L 372.511385 89.601403 
L 372.724218 89.28 
L 375.916705 89.28 
L 375.916705 89.28 
" clip-path="url(#p8dddc6e5a1)" style="fill: none; stroke: #c957db; stroke-width: 1.2; stroke-linecap: round"/>
   </g>
   <g id="line2d_51"/>
   <g id="line2d_52"/>
   <g id="line2d_53"/>
   <g id="line2d_54"/>
   <g id="line2d_55"/>
   <g id="patch_3">
    <path d="M 54.3375 512.64 
L 54.3375 69.12 
" style="fill: none; stroke: #cccccc; stroke-linejoin: miter; stroke-linecap: square"/>
   </g>
   <g id="patch_4">
    <path d="M 54.3375 512.64 
L 391.23 512.64 
" style="fill: none; stroke: #cccccc; stroke-linejoin: miter; stroke-linecap: square"/>
   </g>
   <g id="text_48">
    <!-- Edge Coverage History -->
    <g style="fill: #262626" transform="translate(115.892262 63.12)scale(0.165888 -0.165888)">
     <defs>
      <path id="DejaVuSans-Bold-45" d="M 588 4666 
L 3834 4666 
L 3834 3756 
L 1791 3756 
L 1791 2888 
L 3713 2888 
L 3713 1978 
L 1791 1978 
L 1791 909 
L 3903 909 
L 3903 0 
L 588 0 
L 588 4666 
z
" transform="scale(0.015625)"/>
      <path id="DejaVuSans-Bold-64" d="M 2919 2988 
L 2919 4863 
L 4044 4863 
L 4044 0 
L 2919 0 
L 2919 506 
Q 2688 197 2409 53 
Q 2131 -91 1766 -91 
Q 1119 -91 703 423 
Q 288 938 288 1747 
Q 288 2556 703 3070 
Q 1119 3584 1766 3584 
Q 2128 3584 2408 3439 
Q 2688 3294 2919 2988 
z
M 2181 722 
Q 2541 722 2730 984 
Q 2919 1247 2919 1747 
Q 2919 2247 2730 2509 
Q 2541 2772 2181 2772 
Q 1825 2772 1636 2509 
Q 1447 2247 1447 1747 
Q 1447 1247 1636 984 
Q 1825 722 2181 722 
z
" transform="scale(0.015625)"/>
      <path id="DejaVuSans-Bold-67" d="M 2919 594 
Q 2688 288 2409 144 
Q 2131 0 1766 0 
Q 1125 0 706 504 
Q 288 1009 288 1791 
Q 288 2575 706 3076 
Q 1125 3578 1766 3578 
Q 2131 3578 2409 3434 
Q 2688 3291 2919 2981 
L 2919 3500 
L 4044 3500 
L 4044 353 
Q 4044 -491 3511 -936 
Q 2978 -1381 1966 -1381 
Q 1638 -1381 1331 -1331 
Q 1025 -1281 716 -1178 
L 716 -306 
Q 1009 -475 1290 -558 
Q 1572 -641 1856 -641 
Q 2406 -641 2662 -400 
Q 2919 -159 2919 353 
L 2919 594 
z
M 2181 2772 
Q 1834 2772 1640 2515 
Q 1447 2259 1447 1791 
Q 1447 1309 1634 1061 
Q 1822 813 2181 813 
Q 2531 813 2725 1069 
Q 2919 1325 2919 1791 
Q 2919 2259 2725 2515 
Q 2531 2772 2181 2772 
z
" transform="scale(0.015625)"/>
      <path id="DejaVuSans-Bold-65" d="M 4031 1759 
L 4031 1441 
L 1416 1441 
Q 1456 1047 1700 850 
Q 1944 653 2381 653 
Q 2734 653 3104 758 
Q 3475 863 3866 1075 
L 3866 213 
Q 3469 63 3072 -14 
Q 2675 -91 2278 -91 
Q 1328 -91 801 392 
Q 275 875 275 1747 
Q 275 2603 792 3093 
Q 1309 3584 2216 3584 
Q 3041 3584 3536 3087 
Q 4031 2591 4031 1759 
z
M 2881 2131 
Q 2881 2450 2695 2645 
Q 2509 2841 2209 2841 
Q 1884 2841 1681 2658 
Q 1478 2475 1428 2131 
L 2881 2131 
z
" transform="scale(0.015625)"/>
      <path id="DejaVuSans-Bold-20" transform="scale(0.015625)"/>
      <path id="DejaVuSans-Bold-43" d="M 4288 256 
Q 3956 84 3597 -3 
Q 3238 -91 2847 -91 
Q 1681 -91 1000 561 
Q 319 1213 319 2328 
Q 319 3447 1000 4098 
Q 1681 4750 2847 4750 
Q 3238 4750 3597 4662 
Q 3956 4575 4288 4403 
L 4288 3438 
Q 3953 3666 3628 3772 
Q 3303 3878 2944 3878 
Q 2300 3878 1931 3465 
Q 1563 3053 1563 2328 
Q 1563 1606 1931 1193 
Q 2300 781 2944 781 
Q 3303 781 3628 887 
Q 3953 994 4288 1222 
L 4288 256 
z
" transform="scale(0.015625)"/>
      <path id="DejaVuSans-Bold-6f" d="M 2203 2784 
Q 1831 2784 1636 2517 
Q 1441 2250 1441 1747 
Q 1441 1244 1636 976 
Q 1831 709 2203 709 
Q 2569 709 2762 976 
Q 2956 1244 2956 1747 
Q 2956 2250 2762 2517 
Q 2569 2784 2203 2784 
z
M 2203 3584 
Q 3106 3584 3614 3096 
Q 4122 2609 4122 1747 
Q 4122 884 3614 396 
Q 3106 -91 2203 -91 
Q 1297 -91 786 396 
Q 275 884 275 1747 
Q 275 2609 786 3096 
Q 1297 3584 2203 3584 
z
" transform="scale(0.015625)"/>
      <path id="DejaVuSans-Bold-76" d="M 97 3500 
L 1216 3500 
L 2088 1081 
L 2956 3500 
L 4078 3500 
L 2700 0 
L 1472 0 
L 97 3500 
z
" transform="scale(0.015625)"/>
      <path id="DejaVuSans-Bold-72" d="M 3138 2547 
Q 2991 2616 2845 2648 
Q 2700 2681 2553 2681 
Q 2122 2681 1889 2404 
Q 1656 2128 1656 1613 
L 1656 0 
L 538 0 
L 538 3500 
L 1656 3500 
L 1656 2925 
Q 1872 3269 2151 3426 
Q 2431 3584 2822 3584 
Q 2878 3584 2943 3579 
Q 3009 3575 3134 3559 
L 3138 2547 
z
" transform="scale(0.015625)"/>
      <path id="DejaVuSans-Bold-61" d="M 2106 1575 
Q 1756 1575 1579 1456 
Q 1403 1338 1403 1106 
Q 1403 894 1545 773 
Q 1688 653 1941 653 
Q 2256 653 2472 879 
Q 2688 1106 2688 1447 
L 2688 1575 
L 2106 1575 
z
M 3816 1997 
L 3816 0 
L 2688 0 
L 2688 519 
Q 2463 200 2181 54 
Q 1900 -91 1497 -91 
Q 953 -91 614 226 
Q 275 544 275 1050 
Q 275 1666 698 1953 
Q 1122 2241 2028 2241 
L 2688 2241 
L 2688 2328 
Q 2688 2594 2478 2717 
Q 2269 2841 1825 2841 
Q 1466 2841 1156 2769 
Q 847 2697 581 2553 
L 581 3406 
Q 941 3494 1303 3539 
Q 1666 3584 2028 3584 
Q 2975 3584 3395 3211 
Q 3816 2838 3816 1997 
z
" transform="scale(0.015625)"/>
      <path id="DejaVuSans-Bold-48" d="M 588 4666 
L 1791 4666 
L 1791 2888 
L 3566 2888 
L 3566 4666 
L 4769 4666 
L 4769 0 
L 3566 0 
L 3566 1978 
L 1791 1978 
L 1791 0 
L 588 0 
L 588 4666 
z
" transform="scale(0.015625)"/>
      <path id="DejaVuSans-Bold-69" d="M 538 3500 
L 1656 3500 
L 1656 0 
L 538 0 
L 538 3500 
z
M 538 4863 
L 1656 4863 
L 1656 3950 
L 538 3950 
L 538 4863 
z
" transform="scale(0.015625)"/>
      <path id="DejaVuSans-Bold-73" d="M 3272 3391 
L 3272 2541 
Q 2913 2691 2578 2766 
Q 2244 2841 1947 2841 
Q 1628 2841 1473 2761 
Q 1319 2681 1319 2516 
Q 1319 2381 1436 2309 
Q 1553 2238 1856 2203 
L 2053 2175 
Q 2913 2066 3209 1816 
Q 3506 1566 3506 1031 
Q 3506 472 3093 190 
Q 2681 -91 1863 -91 
Q 1516 -91 1145 -36 
Q 775 19 384 128 
L 384 978 
Q 719 816 1070 734 
Q 1422 653 1784 653 
Q 2113 653 2278 743 
Q 2444 834 2444 1013 
Q 2444 1163 2330 1236 
Q 2216 1309 1875 1350 
L 1678 1375 
Q 931 1469 631 1722 
Q 331 1975 331 2491 
Q 331 3047 712 3315 
Q 1094 3584 1881 3584 
Q 2191 3584 2531 3537 
Q 2872 3491 3272 3391 
z
" transform="scale(0.015625)"/>
      <path id="DejaVuSans-Bold-74" d="M 1759 4494 
L 1759 3500 
L 2913 3500 
L 2913 2700 
L 1759 2700 
L 1759 1216 
Q 1759 972 1856 886 
Q 1953 800 2241 800 
L 2816 800 
L 2816 0 
L 1856 0 
Q 1194 0 917 276 
Q 641 553 641 1216 
L 641 2700 
L 84 2700 
L 84 3500 
L 641 3500 
L 641 4494 
L 1759 4494 
z
" transform="scale(0.015625)"/>
      <path id="DejaVuSans-Bold-79" d="M 78 3500 
L 1197 3500 
L 2138 1125 
L 2938 3500 
L 4056 3500 
L 2584 -331 
Q 2363 -916 2067 -1148 
Q 1772 -1381 1288 -1381 
L 641 -1381 
L 641 -647 
L 991 -647 
Q 1275 -647 1404 -556 
Q 1534 -466 1606 -231 
L 1638 -134 
L 78 3500 
z
" transform="scale(0.015625)"/>
     </defs>
     <use xlink:href="#DejaVuSans-Bold-45"/>
     <use xlink:href="#DejaVuSans-Bold-64" x="68.310547"/>
     <use xlink:href="#DejaVuSans-Bold-67" x="139.892578"/>
     <use xlink:href="#DejaVuSans-Bold-65" x="211.474609"/>
     <use xlink:href="#DejaVuSans-Bold-20" x="279.296875"/>
     <use xlink:href="#DejaVuSans-Bold-43" x="314.111328"/>
     <use xlink:href="#DejaVuSans-Bold-6f" x="387.5"/>
     <use xlink:href="#DejaVuSans-Bold-76" x="456.201172"/>
     <use xlink:href="#DejaVuSans-Bold-65" x="521.386719"/>
     <use xlink:href="#DejaVuSans-Bold-72" x="589.208984"/>
     <use xlink:href="#DejaVuSans-Bold-61" x="638.525391"/>
     <use xlink:href="#DejaVuSans-Bold-67" x="706.005859"/>
     <use xlink:href="#DejaVuSans-Bold-65" x="777.587891"/>
     <use xlink:href="#DejaVuSans-Bold-20" x="845.410156"/>
     <use xlink:href="#DejaVuSans-Bold-48" x="880.224609"/>
     <use xlink:href="#DejaVuSans-Bold-69" x="963.916016"/>
     <use xlink:href="#DejaVuSans-Bold-73" x="998.193359"/>
     <use xlink:href="#DejaVuSans-Bold-74" x="1057.714844"/>
     <use xlink:href="#DejaVuSans-Bold-6f" x="1105.517578"/>
     <use xlink:href="#DejaVuSans-Bold-72" x="1174.21875"/>
     <use xlink:href="#DejaVuSans-Bold-79" x="1223.535156"/>
    </g>
   </g>
   <g id="legend_1">
    <g id="patch_5">
     <path d="M 267.942 508.24 
L 385.07 508.24 
Q 386.83 508.24 386.83 506.48 
L 386.83 428.8405 
Q 386.83 427.0805 385.07 427.0805 
L 267.942 427.0805 
Q 266.182 427.0805 266.182 428.8405 
L 266.182 506.48 
Q 266.182 508.24 267.942 508.24 
z
" style="fill: #ffffff; opacity: 0.8; stroke: #cccccc; stroke-width: 0.8; stroke-linejoin: miter"/>
    </g>
    <g id="text_49">
     <!-- fuzzer -->
     <g style="fill: #262626" transform="translate(311.809 437.895)scale(0.096 -0.096)">
      <defs>
       <path id="DejaVuSans-66" d="M 2375 4863 
L 2375 4384 
L 1825 4384 
Q 1516 4384 1395 4259 
Q 1275 4134 1275 3809 
L 1275 3500 
L 2222 3500 
L 2222 3053 
L 1275 3053 
L 1275 0 
L 697 0 
L 697 3053 
L 147 3053 
L 147 3500 
L 697 3500 
L 697 3744 
Q 697 4328 969 4595 
Q 1241 4863 1831 4863 
L 2375 4863 
z
" transform="scale(0.015625)"/>
       <path id="DejaVuSans-7a" d="M 353 3500 
L 3084 3500 
L 3084 2975 
L 922 459 
L 3084 459 
L 3084 0 
L 275 0 
L 275 525 
L 2438 3041 
L 353 3041 
L 353 3500 
z
" transform="scale(0.015625)"/>
      </defs>
      <use xlink:href="#DejaVuSans-66"/>
      <use xlink:href="#DejaVuSans-75" x="35.205078"/>
      <use xlink:href="#DejaVuSans-7a" x="98.583984"/>
      <use xlink:href="#DejaVuSans-7a" x="151.074219"/>
      <use xlink:href="#DejaVuSans-65" x="203.564453"/>
      <use xlink:href="#DejaVuSans-72" x="265.087891"/>
     </g>
    </g>
    <g id="line2d_56">
     <path d="M 269.702 447.898125 
L 278.502 447.898125 
L 287.302 447.898125 
" style="fill: none; stroke: #db5f57; stroke-width: 1.2; stroke-linecap: round"/>
    </g>
    <g id="text_50">
     <!-- fairfuzz-0-exid20 -->
     <g style="fill: #262626" transform="translate(294.342 450.978125)scale(0.088 -0.088)">
      <defs>
       <path id="DejaVuSans-2d" d="M 313 2009 
L 1997 2009 
L 1997 1497 
L 313 1497 
L 313 2009 
z
" transform="scale(0.015625)"/>
       <path id="DejaVuSans-78" d="M 3513 3500 
L 2247 1797 
L 3578 0 
L 2900 0 
L 1881 1375 
L 863 0 
L 184 0 
L 1544 1831 
L 300 3500 
L 978 3500 
L 1906 2253 
L 2834 3500 
L 3513 3500 
z
" transform="scale(0.015625)"/>
      </defs>
      <use xlink:href="#DejaVuSans-66"/>
      <use xlink:href="#DejaVuSans-61" x="35.205078"/>
      <use xlink:href="#DejaVuSans-69" x="96.484375"/>
      <use xlink:href="#DejaVuSans-72" x="124.267578"/>
      <use xlink:href="#DejaVuSans-66" x="165.380859"/>
      <use xlink:href="#DejaVuSans-75" x="200.585938"/>
      <use xlink:href="#DejaVuSans-7a" x="263.964844"/>
      <use xlink:href="#DejaVuSans-7a" x="316.455078"/>
      <use xlink:href="#DejaVuSans-2d" x="368.945312"/>
      <use xlink:href="#DejaVuSans-30" x="405.029297"/>
      <use xlink:href="#DejaVuSans-2d" x="468.652344"/>
      <use xlink:href="#DejaVuSans-65" x="504.736328"/>
      <use xlink:href="#DejaVuSans-78" x="564.509766"/>
      <use xlink:href="#DejaVuSans-69" x="623.689453"/>
      <use xlink:href="#DejaVuSans-64" x="651.472656"/>
      <use xlink:href="#DejaVuSans-32" x="714.949219"/>
      <use xlink:href="#DejaVuSans-30" x="778.572266"/>
     </g>
    </g>
    <g id="line2d_57">
     <path d="M 269.702 460.814875 
L 278.502 460.814875 
L 287.302 460.814875 
" style="fill: none; stroke: #b9db57; stroke-width: 1.2; stroke-linecap: round"/>
    </g>
    <g id="text_51">
     <!-- afl-0-exid20 -->
     <g style="fill: #262626" transform="translate(294.342 463.894875)scale(0.088 -0.088)">
      <defs>
       <path id="DejaVuSans-6c" d="M 603 4863 
L 1178 4863 
L 1178 0 
L 603 0 
L 603 4863 
z
" transform="scale(0.015625)"/>
      </defs>
      <use xlink:href="#DejaVuSans-61"/>
      <use xlink:href="#DejaVuSans-66" x="61.279297"/>
      <use xlink:href="#DejaVuSans-6c" x="96.484375"/>
      <use xlink:href="#DejaVuSans-2d" x="124.267578"/>
      <use xlink:href="#DejaVuSans-30" x="160.351562"/>
      <use xlink:href="#DejaVuSans-2d" x="223.974609"/>
      <use xlink:href="#DejaVuSans-65" x="260.058594"/>
      <use xlink:href="#DejaVuSans-78" x="319.832031"/>
      <use xlink:href="#DejaVuSans-69" x="379.011719"/>
      <use xlink:href="#DejaVuSans-64" x="406.794922"/>
      <use xlink:href="#DejaVuSans-32" x="470.271484"/>
      <use xlink:href="#DejaVuSans-30" x="533.894531"/>
     </g>
    </g>
    <g id="line2d_58">
     <path d="M 269.702 473.731625 
L 278.502 473.731625 
L 287.302 473.731625 
" style="fill: none; stroke: #57db94; stroke-width: 1.2; stroke-linecap: round"/>
    </g>
    <g id="text_52">
     <!-- aflfast-0-exid20 -->
     <g style="fill: #262626" transform="translate(294.342 476.811625)scale(0.088 -0.088)">
      <use xlink:href="#DejaVuSans-61"/>
      <use xlink:href="#DejaVuSans-66" x="61.279297"/>
      <use xlink:href="#DejaVuSans-6c" x="96.484375"/>
      <use xlink:href="#DejaVuSans-66" x="124.267578"/>
      <use xlink:href="#DejaVuSans-61" x="159.472656"/>
      <use xlink:href="#DejaVuSans-73" x="220.751953"/>
      <use xlink:href="#DejaVuSans-74" x="272.851562"/>
      <use xlink:href="#DejaVuSans-2d" x="312.060547"/>
      <use xlink:href="#DejaVuSans-30" x="348.144531"/>
      <use xlink:href="#DejaVuSans-2d" x="411.767578"/>
      <use xlink:href="#DejaVuSans-65" x="447.851562"/>
      <use xlink:href="#DejaVuSans-78" x="507.625"/>
      <use xlink:href="#DejaVuSans-69" x="566.804688"/>
      <use xlink:href="#DejaVuSans-64" x="594.587891"/>
      <use xlink:href="#DejaVuSans-32" x="658.064453"/>
      <use xlink:href="#DejaVuSans-30" x="721.6875"/>
     </g>
    </g>
    <g id="line2d_59">
     <path d="M 269.702 486.648375 
L 278.502 486.648375 
L 287.302 486.648375 
" style="fill: none; stroke: #5784db; stroke-width: 1.2; stroke-linecap: round"/>
    </g>
    <g id="text_53">
     <!-- aflplusplus-0-exid20 -->
     <g style="fill: #262626" transform="translate(294.342 489.728375)scale(0.088 -0.088)">
      <defs>
       <path id="DejaVuSans-70" d="M 1159 525 
L 1159 -1331 
L 581 -1331 
L 581 3500 
L 1159 3500 
L 1159 2969 
Q 1341 3281 1617 3432 
Q 1894 3584 2278 3584 
Q 2916 3584 3314 3078 
Q 3713 2572 3713 1747 
Q 3713 922 3314 415 
Q 2916 -91 2278 -91 
Q 1894 -91 1617 61 
Q 1341 213 1159 525 
z
M 3116 1747 
Q 3116 2381 2855 2742 
Q 2594 3103 2138 3103 
Q 1681 3103 1420 2742 
Q 1159 2381 1159 1747 
Q 1159 1113 1420 752 
Q 1681 391 2138 391 
Q 2594 391 2855 752 
Q 3116 1113 3116 1747 
z
" transform="scale(0.015625)"/>
      </defs>
      <use xlink:href="#DejaVuSans-61"/>
      <use xlink:href="#DejaVuSans-66" x="61.279297"/>
      <use xlink:href="#DejaVuSans-6c" x="96.484375"/>
      <use xlink:href="#DejaVuSans-70" x="124.267578"/>
      <use xlink:href="#DejaVuSans-6c" x="187.744141"/>
      <use xlink:href="#DejaVuSans-75" x="215.527344"/>
      <use xlink:href="#DejaVuSans-73" x="278.90625"/>
      <use xlink:href="#DejaVuSans-70" x="331.005859"/>
      <use xlink:href="#DejaVuSans-6c" x="394.482422"/>
      <use xlink:href="#DejaVuSans-75" x="422.265625"/>
      <use xlink:href="#DejaVuSans-73" x="485.644531"/>
      <use xlink:href="#DejaVuSans-2d" x="537.744141"/>
      <use xlink:href="#DejaVuSans-30" x="573.828125"/>
      <use xlink:href="#DejaVuSans-2d" x="637.451172"/>
      <use xlink:href="#DejaVuSans-65" x="673.535156"/>
      <use xlink:href="#DejaVuSans-78" x="733.308594"/>
      <use xlink:href="#DejaVuSans-69" x="792.488281"/>
      <use xlink:href="#DejaVuSans-64" x="820.271484"/>
      <use xlink:href="#DejaVuSans-32" x="883.748047"/>
      <use xlink:href="#DejaVuSans-30" x="947.371094"/>
     </g>
    </g>
    <g id="line2d_60">
     <path d="M 269.702 499.565125 
L 278.502 499.565125 
L 287.302 499.565125 
" style="fill: none; stroke: #c957db; stroke-width: 1.2; stroke-linecap: round"/>
    </g>
    <g id="text_54">
     <!-- fuzzer_global -->
     <g style="fill: #262626" transform="translate(294.342 502.645125)scale(0.088 -0.088)">
      <defs>
       <path id="DejaVuSans-5f" d="M 3263 -1063 
L 3263 -1509 
L -63 -1509 
L -63 -1063 
L 3263 -1063 
z
" transform="scale(0.015625)"/>
       <path id="DejaVuSans-62" d="M 3116 1747 
Q 3116 2381 2855 2742 
Q 2594 3103 2138 3103 
Q 1681 3103 1420 2742 
Q 1159 2381 1159 1747 
Q 1159 1113 1420 752 
Q 1681 391 2138 391 
Q 2594 391 2855 752 
Q 3116 1113 3116 1747 
z
M 1159 2969 
Q 1341 3281 1617 3432 
Q 1894 3584 2278 3584 
Q 2916 3584 3314 3078 
Q 3713 2572 3713 1747 
Q 3713 922 3314 415 
Q 2916 -91 2278 -91 
Q 1894 -91 1617 61 
Q 1341 213 1159 525 
L 1159 0 
L 581 0 
L 581 4863 
L 1159 4863 
L 1159 2969 
z
" transform="scale(0.015625)"/>
      </defs>
      <use xlink:href="#DejaVuSans-66"/>
      <use xlink:href="#DejaVuSans-75" x="35.205078"/>
      <use xlink:href="#DejaVuSans-7a" x="98.583984"/>
      <use xlink:href="#DejaVuSans-7a" x="151.074219"/>
      <use xlink:href="#DejaVuSans-65" x="203.564453"/>
      <use xlink:href="#DejaVuSans-72" x="265.087891"/>
      <use xlink:href="#DejaVuSans-5f" x="306.201172"/>
      <use xlink:href="#DejaVuSans-67" x="356.201172"/>
      <use xlink:href="#DejaVuSans-6c" x="419.677734"/>
      <use xlink:href="#DejaVuSans-6f" x="447.460938"/>
      <use xlink:href="#DejaVuSans-62" x="508.642578"/>
      <use xlink:href="#DejaVuSans-61" x="572.119141"/>
      <use xlink:href="#DejaVuSans-6c" x="633.398438"/>
     </g>
    </g>
   </g>
  </g>
 </g>
 <defs>
  <clipPath id="p8dddc6e5a1">
   <rect x="54.3375" y="69.12" width="336.8925" height="443.52"/>
  </clipPath>
 </defs>
</svg>
