<?xml version="1.0" encoding="utf-8" standalone="no"?>
<!DOCTYPE svg PUBLIC "-//W3C//DTD SVG 1.1//EN"
  "http://www.w3.org/Graphics/SVG/1.1/DTD/svg11.dtd">
<svg xmlns:xlink="http://www.w3.org/1999/xlink" width="434.4pt" height="576pt" viewBox="0 0 434.4 576" xmlns="http://www.w3.org/2000/svg" version="1.1">
 <metadata>
  <rdf:RDF xmlns:dc="http://purl.org/dc/elements/1.1/" xmlns:cc="http://creativecommons.org/ns#" xmlns:rdf="http://www.w3.org/1999/02/22-rdf-syntax-ns#">
   <cc:Work>
    <dc:type rdf:resource="http://purl.org/dc/dcmitype/StillImage"/>
    <dc:date>2022-09-15T10:10:40.031418</dc:date>
    <dc:format>image/svg+xml</dc:format>
    <dc:creator>
     <cc:Agent>
      <dc:title>Matplotlib v3.5.3, https://matplotlib.org/</dc:title>
     </cc:Agent>
    </dc:creator>
   </cc:Work>
  </rdf:RDF>
 </metadata>
 <defs>
  <style type="text/css">*{stroke-linejoin: round; stroke-linecap: butt}</style>
 </defs>
 <g id="figure_1">
  <g id="patch_1">
   <path d="M 0 576 
L 434.4 576 
L 434.4 0 
L 0 0 
z
" style="fill: #ffffff"/>
  </g>
  <g id="axes_1">
   <g id="patch_2">
    <path d="M 54.3 512.64 
L 390.96 512.64 
L 390.96 69.12 
L 54.3 69.12 
z
" style="fill: #ffffff"/>
   </g>
   <g id="matplotlib.axis_1">
    <g id="xtick_1">
     <g id="line2d_1">
      <path d="M 69.602727 512.64 
L 69.602727 69.12 
" clip-path="url(#pe61e406403)" style="fill: none; stroke: #cccccc; stroke-width: 0.8; stroke-linecap: round"/>
     </g>
     <g id="text_1">
      <!-- 0 -->
      <g style="fill: #262626" transform="translate(69.340214 529.627249)rotate(-45)scale(0.088 -0.088)">
       <defs>
        <path id="DejaVuSans-30" d="M 2034 4250 
Q 1547 4250 1301 3770 
Q 1056 3291 1056 2328 
Q 1056 1369 1301 889 
Q 1547 409 2034 409 
Q 2525 409 2770 889 
Q 3016 1369 3016 2328 
Q 3016 3291 2770 3770 
Q 2525 4250 2034 4250 
z
M 2034 4750 
Q 2819 4750 3233 4129 
Q 3647 3509 3647 2328 
Q 3647 1150 3233 529 
Q 2819 -91 2034 -91 
Q 1250 -91 836 529 
Q 422 1150 422 2328 
Q 422 3509 836 4129 
Q 1250 4750 2034 4750 
z
" transform="scale(0.015625)"/>
       </defs>
       <use xlink:href="#DejaVuSans-30"/>
      </g>
     </g>
    </g>
    <g id="xtick_2">
     <g id="line2d_2">
      <path d="M 86.629406 512.64 
L 86.629406 69.12 
" clip-path="url(#pe61e406403)" style="fill: none; stroke: #cccccc; stroke-width: 0.8; stroke-linecap: round"/>
     </g>
     <g id="text_2">
      <!-- 80 -->
      <g style="fill: #262626" transform="translate(84.387347 533.58634)rotate(-45)scale(0.088 -0.088)">
       <defs>
        <path id="DejaVuSans-38" d="M 2034 2216 
Q 1584 2216 1326 1975 
Q 1069 1734 1069 1313 
Q 1069 891 1326 650 
Q 1584 409 2034 409 
Q 2484 409 2743 651 
Q 3003 894 3003 1313 
Q 3003 1734 2745 1975 
Q 2488 2216 2034 2216 
z
M 1403 2484 
Q 997 2584 770 2862 
Q 544 3141 544 3541 
Q 544 4100 942 4425 
Q 1341 4750 2034 4750 
Q 2731 4750 3128 4425 
Q 3525 4100 3525 3541 
Q 3525 3141 3298 2862 
Q 3072 2584 2669 2484 
Q 3125 2378 3379 2068 
Q 3634 1759 3634 1313 
Q 3634 634 3220 271 
Q 2806 -91 2034 -91 
Q 1263 -91 848 271 
Q 434 634 434 1313 
Q 434 1759 690 2068 
Q 947 2378 1403 2484 
z
M 1172 3481 
Q 1172 3119 1398 2916 
Q 1625 2713 2034 2713 
Q 2441 2713 2670 2916 
Q 2900 3119 2900 3481 
Q 2900 3844 2670 4047 
Q 2441 4250 2034 4250 
Q 1625 4250 1398 4047 
Q 1172 3844 1172 3481 
z
" transform="scale(0.015625)"/>
       </defs>
       <use xlink:href="#DejaVuSans-38"/>
       <use xlink:href="#DejaVuSans-30" x="63.623047"/>
      </g>
     </g>
    </g>
    <g id="xtick_3">
     <g id="line2d_3">
      <path d="M 103.656084 512.64 
L 103.656084 69.12 
" clip-path="url(#pe61e406403)" style="fill: none; stroke: #cccccc; stroke-width: 0.8; stroke-linecap: round"/>
     </g>
     <g id="text_3">
      <!-- 160 -->
      <g style="fill: #262626" transform="translate(99.43448 537.54543)rotate(-45)scale(0.088 -0.088)">
       <defs>
        <path id="DejaVuSans-31" d="M 794 531 
L 1825 531 
L 1825 4091 
L 703 3866 
L 703 4441 
L 1819 4666 
L 2450 4666 
L 2450 531 
L 3481 531 
L 3481 0 
L 794 0 
L 794 531 
z
" transform="scale(0.015625)"/>
        <path id="DejaVuSans-36" d="M 2113 2584 
Q 1688 2584 1439 2293 
Q 1191 2003 1191 1497 
Q 1191 994 1439 701 
Q 1688 409 2113 409 
Q 2538 409 2786 701 
Q 3034 994 3034 1497 
Q 3034 2003 2786 2293 
Q 2538 2584 2113 2584 
z
M 3366 4563 
L 3366 3988 
Q 3128 4100 2886 4159 
Q 2644 4219 2406 4219 
Q 1781 4219 1451 3797 
Q 1122 3375 1075 2522 
Q 1259 2794 1537 2939 
Q 1816 3084 2150 3084 
Q 2853 3084 3261 2657 
Q 3669 2231 3669 1497 
Q 3669 778 3244 343 
Q 2819 -91 2113 -91 
Q 1303 -91 875 529 
Q 447 1150 447 2328 
Q 447 3434 972 4092 
Q 1497 4750 2381 4750 
Q 2619 4750 2861 4703 
Q 3103 4656 3366 4563 
z
" transform="scale(0.015625)"/>
       </defs>
       <use xlink:href="#DejaVuSans-31"/>
       <use xlink:href="#DejaVuSans-36" x="63.623047"/>
       <use xlink:href="#DejaVuSans-30" x="127.246094"/>
      </g>
     </g>
    </g>
    <g id="xtick_4">
     <g id="line2d_4">
      <path d="M 120.682763 512.64 
L 120.682763 69.12 
" clip-path="url(#pe61e406403)" style="fill: none; stroke: #cccccc; stroke-width: 0.8; stroke-linecap: round"/>
     </g>
     <g id="text_4">
      <!-- 240 -->
      <g style="fill: #262626" transform="translate(116.461158 537.54543)rotate(-45)scale(0.088 -0.088)">
       <defs>
        <path id="DejaVuSans-32" d="M 1228 531 
L 3431 531 
L 3431 0 
L 469 0 
L 469 531 
Q 828 903 1448 1529 
Q 2069 2156 2228 2338 
Q 2531 2678 2651 2914 
Q 2772 3150 2772 3378 
Q 2772 3750 2511 3984 
Q 2250 4219 1831 4219 
Q 1534 4219 1204 4116 
Q 875 4013 500 3803 
L 500 4441 
Q 881 4594 1212 4672 
Q 1544 4750 1819 4750 
Q 2544 4750 2975 4387 
Q 3406 4025 3406 3419 
Q 3406 3131 3298 2873 
Q 3191 2616 2906 2266 
Q 2828 2175 2409 1742 
Q 1991 1309 1228 531 
z
" transform="scale(0.015625)"/>
        <path id="DejaVuSans-34" d="M 2419 4116 
L 825 1625 
L 2419 1625 
L 2419 4116 
z
M 2253 4666 
L 3047 4666 
L 3047 1625 
L 3713 1625 
L 3713 1100 
L 3047 1100 
L 3047 0 
L 2419 0 
L 2419 1100 
L 313 1100 
L 313 1709 
L 2253 4666 
z
" transform="scale(0.015625)"/>
       </defs>
       <use xlink:href="#DejaVuSans-32"/>
       <use xlink:href="#DejaVuSans-34" x="63.623047"/>
       <use xlink:href="#DejaVuSans-30" x="127.246094"/>
      </g>
     </g>
    </g>
    <g id="xtick_5">
     <g id="line2d_5">
      <path d="M 137.709441 512.64 
L 137.709441 69.12 
" clip-path="url(#pe61e406403)" style="fill: none; stroke: #cccccc; stroke-width: 0.8; stroke-linecap: round"/>
     </g>
     <g id="text_5">
      <!-- 320 -->
      <g style="fill: #262626" transform="translate(133.487837 537.54543)rotate(-45)scale(0.088 -0.088)">
       <defs>
        <path id="DejaVuSans-33" d="M 2597 2516 
Q 3050 2419 3304 2112 
Q 3559 1806 3559 1356 
Q 3559 666 3084 287 
Q 2609 -91 1734 -91 
Q 1441 -91 1130 -33 
Q 819 25 488 141 
L 488 750 
Q 750 597 1062 519 
Q 1375 441 1716 441 
Q 2309 441 2620 675 
Q 2931 909 2931 1356 
Q 2931 1769 2642 2001 
Q 2353 2234 1838 2234 
L 1294 2234 
L 1294 2753 
L 1863 2753 
Q 2328 2753 2575 2939 
Q 2822 3125 2822 3475 
Q 2822 3834 2567 4026 
Q 2313 4219 1838 4219 
Q 1578 4219 1281 4162 
Q 984 4106 628 3988 
L 628 4550 
Q 988 4650 1302 4700 
Q 1616 4750 1894 4750 
Q 2613 4750 3031 4423 
Q 3450 4097 3450 3541 
Q 3450 3153 3228 2886 
Q 3006 2619 2597 2516 
z
" transform="scale(0.015625)"/>
       </defs>
       <use xlink:href="#DejaVuSans-33"/>
       <use xlink:href="#DejaVuSans-32" x="63.623047"/>
       <use xlink:href="#DejaVuSans-30" x="127.246094"/>
      </g>
     </g>
    </g>
    <g id="xtick_6">
     <g id="line2d_6">
      <path d="M 154.73612 512.64 
L 154.73612 69.12 
" clip-path="url(#pe61e406403)" style="fill: none; stroke: #cccccc; stroke-width: 0.8; stroke-linecap: round"/>
     </g>
     <g id="text_6">
      <!-- 400 -->
      <g style="fill: #262626" transform="translate(150.514515 537.54543)rotate(-45)scale(0.088 -0.088)">
       <use xlink:href="#DejaVuSans-34"/>
       <use xlink:href="#DejaVuSans-30" x="63.623047"/>
       <use xlink:href="#DejaVuSans-30" x="127.246094"/>
      </g>
     </g>
    </g>
    <g id="xtick_7">
     <g id="line2d_7">
      <path d="M 171.762798 512.64 
L 171.762798 69.12 
" clip-path="url(#pe61e406403)" style="fill: none; stroke: #cccccc; stroke-width: 0.8; stroke-linecap: round"/>
     </g>
     <g id="text_7">
      <!-- 480 -->
      <g style="fill: #262626" transform="translate(167.541194 537.54543)rotate(-45)scale(0.088 -0.088)">
       <use xlink:href="#DejaVuSans-34"/>
       <use xlink:href="#DejaVuSans-38" x="63.623047"/>
       <use xlink:href="#DejaVuSans-30" x="127.246094"/>
      </g>
     </g>
    </g>
    <g id="xtick_8">
     <g id="line2d_8">
      <path d="M 188.789477 512.64 
L 188.789477 69.12 
" clip-path="url(#pe61e406403)" style="fill: none; stroke: #cccccc; stroke-width: 0.8; stroke-linecap: round"/>
     </g>
     <g id="text_8">
      <!-- 560 -->
      <g style="fill: #262626" transform="translate(184.567872 537.54543)rotate(-45)scale(0.088 -0.088)">
       <defs>
        <path id="DejaVuSans-35" d="M 691 4666 
L 3169 4666 
L 3169 4134 
L 1269 4134 
L 1269 2991 
Q 1406 3038 1543 3061 
Q 1681 3084 1819 3084 
Q 2600 3084 3056 2656 
Q 3513 2228 3513 1497 
Q 3513 744 3044 326 
Q 2575 -91 1722 -91 
Q 1428 -91 1123 -41 
Q 819 9 494 109 
L 494 744 
Q 775 591 1075 516 
Q 1375 441 1709 441 
Q 2250 441 2565 725 
Q 2881 1009 2881 1497 
Q 2881 1984 2565 2268 
Q 2250 2553 1709 2553 
Q 1456 2553 1204 2497 
Q 953 2441 691 2322 
L 691 4666 
z
" transform="scale(0.015625)"/>
       </defs>
       <use xlink:href="#DejaVuSans-35"/>
       <use xlink:href="#DejaVuSans-36" x="63.623047"/>
       <use xlink:href="#DejaVuSans-30" x="127.246094"/>
      </g>
     </g>
    </g>
    <g id="xtick_9">
     <g id="line2d_9">
      <path d="M 205.816155 512.64 
L 205.816155 69.12 
" clip-path="url(#pe61e406403)" style="fill: none; stroke: #cccccc; stroke-width: 0.8; stroke-linecap: round"/>
     </g>
     <g id="text_9">
      <!-- 640 -->
      <g style="fill: #262626" transform="translate(201.594551 537.54543)rotate(-45)scale(0.088 -0.088)">
       <use xlink:href="#DejaVuSans-36"/>
       <use xlink:href="#DejaVuSans-34" x="63.623047"/>
       <use xlink:href="#DejaVuSans-30" x="127.246094"/>
      </g>
     </g>
    </g>
    <g id="xtick_10">
     <g id="line2d_10">
      <path d="M 222.842833 512.64 
L 222.842833 69.12 
" clip-path="url(#pe61e406403)" style="fill: none; stroke: #cccccc; stroke-width: 0.8; stroke-linecap: round"/>
     </g>
     <g id="text_10">
      <!-- 720 -->
      <g style="fill: #262626" transform="translate(218.621229 537.54543)rotate(-45)scale(0.088 -0.088)">
       <defs>
        <path id="DejaVuSans-37" d="M 525 4666 
L 3525 4666 
L 3525 4397 
L 1831 0 
L 1172 0 
L 2766 4134 
L 525 4134 
L 525 4666 
z
" transform="scale(0.015625)"/>
       </defs>
       <use xlink:href="#DejaVuSans-37"/>
       <use xlink:href="#DejaVuSans-32" x="63.623047"/>
       <use xlink:href="#DejaVuSans-30" x="127.246094"/>
      </g>
     </g>
    </g>
    <g id="xtick_11">
     <g id="line2d_11">
      <path d="M 239.869512 512.64 
L 239.869512 69.12 
" clip-path="url(#pe61e406403)" style="fill: none; stroke: #cccccc; stroke-width: 0.8; stroke-linecap: round"/>
     </g>
     <g id="text_11">
      <!-- 800 -->
      <g style="fill: #262626" transform="translate(235.647908 537.54543)rotate(-45)scale(0.088 -0.088)">
       <use xlink:href="#DejaVuSans-38"/>
       <use xlink:href="#DejaVuSans-30" x="63.623047"/>
       <use xlink:href="#DejaVuSans-30" x="127.246094"/>
      </g>
     </g>
    </g>
    <g id="xtick_12">
     <g id="line2d_12">
      <path d="M 256.89619 512.64 
L 256.89619 69.12 
" clip-path="url(#pe61e406403)" style="fill: none; stroke: #cccccc; stroke-width: 0.8; stroke-linecap: round"/>
     </g>
     <g id="text_12">
      <!-- 880 -->
      <g style="fill: #262626" transform="translate(252.674586 537.54543)rotate(-45)scale(0.088 -0.088)">
       <use xlink:href="#DejaVuSans-38"/>
       <use xlink:href="#DejaVuSans-38" x="63.623047"/>
       <use xlink:href="#DejaVuSans-30" x="127.246094"/>
      </g>
     </g>
    </g>
    <g id="xtick_13">
     <g id="line2d_13">
      <path d="M 273.922869 512.64 
L 273.922869 69.12 
" clip-path="url(#pe61e406403)" style="fill: none; stroke: #cccccc; stroke-width: 0.8; stroke-linecap: round"/>
     </g>
     <g id="text_13">
      <!-- 960 -->
      <g style="fill: #262626" transform="translate(269.701265 537.54543)rotate(-45)scale(0.088 -0.088)">
       <defs>
        <path id="DejaVuSans-39" d="M 703 97 
L 703 672 
Q 941 559 1184 500 
Q 1428 441 1663 441 
Q 2288 441 2617 861 
Q 2947 1281 2994 2138 
Q 2813 1869 2534 1725 
Q 2256 1581 1919 1581 
Q 1219 1581 811 2004 
Q 403 2428 403 3163 
Q 403 3881 828 4315 
Q 1253 4750 1959 4750 
Q 2769 4750 3195 4129 
Q 3622 3509 3622 2328 
Q 3622 1225 3098 567 
Q 2575 -91 1691 -91 
Q 1453 -91 1209 -44 
Q 966 3 703 97 
z
M 1959 2075 
Q 2384 2075 2632 2365 
Q 2881 2656 2881 3163 
Q 2881 3666 2632 3958 
Q 2384 4250 1959 4250 
Q 1534 4250 1286 3958 
Q 1038 3666 1038 3163 
Q 1038 2656 1286 2365 
Q 1534 2075 1959 2075 
z
" transform="scale(0.015625)"/>
       </defs>
       <use xlink:href="#DejaVuSans-39"/>
       <use xlink:href="#DejaVuSans-36" x="63.623047"/>
       <use xlink:href="#DejaVuSans-30" x="127.246094"/>
      </g>
     </g>
    </g>
    <g id="xtick_14">
     <g id="line2d_14">
      <path d="M 290.949547 512.64 
L 290.949547 69.12 
" clip-path="url(#pe61e406403)" style="fill: none; stroke: #cccccc; stroke-width: 0.8; stroke-linecap: round"/>
     </g>
     <g id="text_14">
      <!-- 1040 -->
      <g style="fill: #262626" transform="translate(284.748398 541.504521)rotate(-45)scale(0.088 -0.088)">
       <use xlink:href="#DejaVuSans-31"/>
       <use xlink:href="#DejaVuSans-30" x="63.623047"/>
       <use xlink:href="#DejaVuSans-34" x="127.246094"/>
       <use xlink:href="#DejaVuSans-30" x="190.869141"/>
      </g>
     </g>
    </g>
    <g id="xtick_15">
     <g id="line2d_15">
      <path d="M 307.976226 512.64 
L 307.976226 69.12 
" clip-path="url(#pe61e406403)" style="fill: none; stroke: #cccccc; stroke-width: 0.8; stroke-linecap: round"/>
     </g>
     <g id="text_15">
      <!-- 1120 -->
      <g style="fill: #262626" transform="translate(301.775076 541.504521)rotate(-45)scale(0.088 -0.088)">
       <use xlink:href="#DejaVuSans-31"/>
       <use xlink:href="#DejaVuSans-31" x="63.623047"/>
       <use xlink:href="#DejaVuSans-32" x="127.246094"/>
       <use xlink:href="#DejaVuSans-30" x="190.869141"/>
      </g>
     </g>
    </g>
    <g id="xtick_16">
     <g id="line2d_16">
      <path d="M 325.002904 512.64 
L 325.002904 69.12 
" clip-path="url(#pe61e406403)" style="fill: none; stroke: #cccccc; stroke-width: 0.8; stroke-linecap: round"/>
     </g>
     <g id="text_16">
      <!-- 1200 -->
      <g style="fill: #262626" transform="translate(318.801755 541.504521)rotate(-45)scale(0.088 -0.088)">
       <use xlink:href="#DejaVuSans-31"/>
       <use xlink:href="#DejaVuSans-32" x="63.623047"/>
       <use xlink:href="#DejaVuSans-30" x="127.246094"/>
       <use xlink:href="#DejaVuSans-30" x="190.869141"/>
      </g>
     </g>
    </g>
    <g id="xtick_17">
     <g id="line2d_17">
      <path d="M 342.029583 512.64 
L 342.029583 69.12 
" clip-path="url(#pe61e406403)" style="fill: none; stroke: #cccccc; stroke-width: 0.8; stroke-linecap: round"/>
     </g>
     <g id="text_17">
      <!-- 1280 -->
      <g style="fill: #262626" transform="translate(335.828433 541.504521)rotate(-45)scale(0.088 -0.088)">
       <use xlink:href="#DejaVuSans-31"/>
       <use xlink:href="#DejaVuSans-32" x="63.623047"/>
       <use xlink:href="#DejaVuSans-38" x="127.246094"/>
       <use xlink:href="#DejaVuSans-30" x="190.869141"/>
      </g>
     </g>
    </g>
    <g id="xtick_18">
     <g id="line2d_18">
      <path d="M 359.056261 512.64 
L 359.056261 69.12 
" clip-path="url(#pe61e406403)" style="fill: none; stroke: #cccccc; stroke-width: 0.8; stroke-linecap: round"/>
     </g>
     <g id="text_18">
      <!-- 1360 -->
      <g style="fill: #262626" transform="translate(352.855112 541.504521)rotate(-45)scale(0.088 -0.088)">
       <use xlink:href="#DejaVuSans-31"/>
       <use xlink:href="#DejaVuSans-33" x="63.623047"/>
       <use xlink:href="#DejaVuSans-36" x="127.246094"/>
       <use xlink:href="#DejaVuSans-30" x="190.869141"/>
      </g>
     </g>
    </g>
    <g id="xtick_19">
     <g id="line2d_19">
      <path d="M 376.08294 512.64 
L 376.08294 69.12 
" clip-path="url(#pe61e406403)" style="fill: none; stroke: #cccccc; stroke-width: 0.8; stroke-linecap: round"/>
     </g>
     <g id="text_19">
      <!-- 1440 -->
      <g style="fill: #262626" transform="translate(369.88179 541.504521)rotate(-45)scale(0.088 -0.088)">
       <use xlink:href="#DejaVuSans-31"/>
       <use xlink:href="#DejaVuSans-34" x="63.623047"/>
       <use xlink:href="#DejaVuSans-34" x="127.246094"/>
       <use xlink:href="#DejaVuSans-30" x="190.869141"/>
      </g>
     </g>
    </g>
    <g id="text_20">
     <!-- Time (Minutes) -->
     <g style="fill: #262626" transform="translate(186.72 554.093115)scale(0.096 -0.096)">
      <defs>
       <path id="DejaVuSans-54" d="M -19 4666 
L 3928 4666 
L 3928 4134 
L 2272 4134 
L 2272 0 
L 1638 0 
L 1638 4134 
L -19 4134 
L -19 4666 
z
" transform="scale(0.015625)"/>
       <path id="DejaVuSans-69" d="M 603 3500 
L 1178 3500 
L 1178 0 
L 603 0 
L 603 3500 
z
M 603 4863 
L 1178 4863 
L 1178 4134 
L 603 4134 
L 603 4863 
z
" transform="scale(0.015625)"/>
       <path id="DejaVuSans-6d" d="M 3328 2828 
Q 3544 3216 3844 3400 
Q 4144 3584 4550 3584 
Q 5097 3584 5394 3201 
Q 5691 2819 5691 2113 
L 5691 0 
L 5113 0 
L 5113 2094 
Q 5113 2597 4934 2840 
Q 4756 3084 4391 3084 
Q 3944 3084 3684 2787 
Q 3425 2491 3425 1978 
L 3425 0 
L 2847 0 
L 2847 2094 
Q 2847 2600 2669 2842 
Q 2491 3084 2119 3084 
Q 1678 3084 1418 2786 
Q 1159 2488 1159 1978 
L 1159 0 
L 581 0 
L 581 3500 
L 1159 3500 
L 1159 2956 
Q 1356 3278 1631 3431 
Q 1906 3584 2284 3584 
Q 2666 3584 2933 3390 
Q 3200 3197 3328 2828 
z
" transform="scale(0.015625)"/>
       <path id="DejaVuSans-65" d="M 3597 1894 
L 3597 1613 
L 953 1613 
Q 991 1019 1311 708 
Q 1631 397 2203 397 
Q 2534 397 2845 478 
Q 3156 559 3463 722 
L 3463 178 
Q 3153 47 2828 -22 
Q 2503 -91 2169 -91 
Q 1331 -91 842 396 
Q 353 884 353 1716 
Q 353 2575 817 3079 
Q 1281 3584 2069 3584 
Q 2775 3584 3186 3129 
Q 3597 2675 3597 1894 
z
M 3022 2063 
Q 3016 2534 2758 2815 
Q 2500 3097 2075 3097 
Q 1594 3097 1305 2825 
Q 1016 2553 972 2059 
L 3022 2063 
z
" transform="scale(0.015625)"/>
       <path id="DejaVuSans-20" transform="scale(0.015625)"/>
       <path id="DejaVuSans-28" d="M 1984 4856 
Q 1566 4138 1362 3434 
Q 1159 2731 1159 2009 
Q 1159 1288 1364 580 
Q 1569 -128 1984 -844 
L 1484 -844 
Q 1016 -109 783 600 
Q 550 1309 550 2009 
Q 550 2706 781 3412 
Q 1013 4119 1484 4856 
L 1984 4856 
z
" transform="scale(0.015625)"/>
       <path id="DejaVuSans-4d" d="M 628 4666 
L 1569 4666 
L 2759 1491 
L 3956 4666 
L 4897 4666 
L 4897 0 
L 4281 0 
L 4281 4097 
L 3078 897 
L 2444 897 
L 1241 4097 
L 1241 0 
L 628 0 
L 628 4666 
z
" transform="scale(0.015625)"/>
       <path id="DejaVuSans-6e" d="M 3513 2113 
L 3513 0 
L 2938 0 
L 2938 2094 
Q 2938 2591 2744 2837 
Q 2550 3084 2163 3084 
Q 1697 3084 1428 2787 
Q 1159 2491 1159 1978 
L 1159 0 
L 581 0 
L 581 3500 
L 1159 3500 
L 1159 2956 
Q 1366 3272 1645 3428 
Q 1925 3584 2291 3584 
Q 2894 3584 3203 3211 
Q 3513 2838 3513 2113 
z
" transform="scale(0.015625)"/>
       <path id="DejaVuSans-75" d="M 544 1381 
L 544 3500 
L 1119 3500 
L 1119 1403 
Q 1119 906 1312 657 
Q 1506 409 1894 409 
Q 2359 409 2629 706 
Q 2900 1003 2900 1516 
L 2900 3500 
L 3475 3500 
L 3475 0 
L 2900 0 
L 2900 538 
Q 2691 219 2414 64 
Q 2138 -91 1772 -91 
Q 1169 -91 856 284 
Q 544 659 544 1381 
z
M 1991 3584 
L 1991 3584 
z
" transform="scale(0.015625)"/>
       <path id="DejaVuSans-74" d="M 1172 4494 
L 1172 3500 
L 2356 3500 
L 2356 3053 
L 1172 3053 
L 1172 1153 
Q 1172 725 1289 603 
Q 1406 481 1766 481 
L 2356 481 
L 2356 0 
L 1766 0 
Q 1100 0 847 248 
Q 594 497 594 1153 
L 594 3053 
L 172 3053 
L 172 3500 
L 594 3500 
L 594 4494 
L 1172 4494 
z
" transform="scale(0.015625)"/>
       <path id="DejaVuSans-73" d="M 2834 3397 
L 2834 2853 
Q 2591 2978 2328 3040 
Q 2066 3103 1784 3103 
Q 1356 3103 1142 2972 
Q 928 2841 928 2578 
Q 928 2378 1081 2264 
Q 1234 2150 1697 2047 
L 1894 2003 
Q 2506 1872 2764 1633 
Q 3022 1394 3022 966 
Q 3022 478 2636 193 
Q 2250 -91 1575 -91 
Q 1294 -91 989 -36 
Q 684 19 347 128 
L 347 722 
Q 666 556 975 473 
Q 1284 391 1588 391 
Q 1994 391 2212 530 
Q 2431 669 2431 922 
Q 2431 1156 2273 1281 
Q 2116 1406 1581 1522 
L 1381 1569 
Q 847 1681 609 1914 
Q 372 2147 372 2553 
Q 372 3047 722 3315 
Q 1072 3584 1716 3584 
Q 2034 3584 2315 3537 
Q 2597 3491 2834 3397 
z
" transform="scale(0.015625)"/>
       <path id="DejaVuSans-29" d="M 513 4856 
L 1013 4856 
Q 1481 4119 1714 3412 
Q 1947 2706 1947 2009 
Q 1947 1309 1714 600 
Q 1481 -109 1013 -844 
L 513 -844 
Q 928 -128 1133 580 
Q 1338 1288 1338 2009 
Q 1338 2731 1133 3434 
Q 928 4138 513 4856 
z
" transform="scale(0.015625)"/>
      </defs>
      <use xlink:href="#DejaVuSans-54"/>
      <use xlink:href="#DejaVuSans-69" x="57.958984"/>
      <use xlink:href="#DejaVuSans-6d" x="85.742188"/>
      <use xlink:href="#DejaVuSans-65" x="183.154297"/>
      <use xlink:href="#DejaVuSans-20" x="244.677734"/>
      <use xlink:href="#DejaVuSans-28" x="276.464844"/>
      <use xlink:href="#DejaVuSans-4d" x="315.478516"/>
      <use xlink:href="#DejaVuSans-69" x="401.757812"/>
      <use xlink:href="#DejaVuSans-6e" x="429.541016"/>
      <use xlink:href="#DejaVuSans-75" x="492.919922"/>
      <use xlink:href="#DejaVuSans-74" x="556.298828"/>
      <use xlink:href="#DejaVuSans-65" x="595.507812"/>
      <use xlink:href="#DejaVuSans-73" x="657.03125"/>
      <use xlink:href="#DejaVuSans-29" x="709.130859"/>
     </g>
    </g>
   </g>
   <g id="matplotlib.axis_2">
    <g id="ytick_1">
     <g id="line2d_20">
      <path d="M 54.3 492.48 
L 390.96 492.48 
" clip-path="url(#pe61e406403)" style="fill: none; stroke: #cccccc; stroke-width: 0.8; stroke-linecap: round"/>
     </g>
     <g id="text_21">
      <!-- 0 -->
      <g style="fill: #262626" transform="translate(40.401 495.823313)scale(0.088 -0.088)">
       <use xlink:href="#DejaVuSans-30"/>
      </g>
     </g>
    </g>
    <g id="ytick_2">
     <g id="line2d_21">
      <path d="M 54.3 424.024992 
L 390.96 424.024992 
" clip-path="url(#pe61e406403)" style="fill: none; stroke: #cccccc; stroke-width: 0.8; stroke-linecap: round"/>
     </g>
     <g id="text_22">
      <!-- 100 -->
      <g style="fill: #262626" transform="translate(29.203 427.368304)scale(0.088 -0.088)">
       <use xlink:href="#DejaVuSans-31"/>
       <use xlink:href="#DejaVuSans-30" x="63.623047"/>
       <use xlink:href="#DejaVuSans-30" x="127.246094"/>
      </g>
     </g>
    </g>
    <g id="ytick_3">
     <g id="line2d_22">
      <path d="M 54.3 355.569983 
L 390.96 355.569983 
" clip-path="url(#pe61e406403)" style="fill: none; stroke: #cccccc; stroke-width: 0.8; stroke-linecap: round"/>
     </g>
     <g id="text_23">
      <!-- 200 -->
      <g style="fill: #262626" transform="translate(29.203 358.913296)scale(0.088 -0.088)">
       <use xlink:href="#DejaVuSans-32"/>
       <use xlink:href="#DejaVuSans-30" x="63.623047"/>
       <use xlink:href="#DejaVuSans-30" x="127.246094"/>
      </g>
     </g>
    </g>
    <g id="ytick_4">
     <g id="line2d_23">
      <path d="M 54.3 287.114975 
L 390.96 287.114975 
" clip-path="url(#pe61e406403)" style="fill: none; stroke: #cccccc; stroke-width: 0.8; stroke-linecap: round"/>
     </g>
     <g id="text_24">
      <!-- 300 -->
      <g style="fill: #262626" transform="translate(29.203 290.458287)scale(0.088 -0.088)">
       <use xlink:href="#DejaVuSans-33"/>
       <use xlink:href="#DejaVuSans-30" x="63.623047"/>
       <use xlink:href="#DejaVuSans-30" x="127.246094"/>
      </g>
     </g>
    </g>
    <g id="ytick_5">
     <g id="line2d_24">
      <path d="M 54.3 218.659966 
L 390.96 218.659966 
" clip-path="url(#pe61e406403)" style="fill: none; stroke: #cccccc; stroke-width: 0.8; stroke-linecap: round"/>
     </g>
     <g id="text_25">
      <!-- 400 -->
      <g style="fill: #262626" transform="translate(29.203 222.003279)scale(0.088 -0.088)">
       <use xlink:href="#DejaVuSans-34"/>
       <use xlink:href="#DejaVuSans-30" x="63.623047"/>
       <use xlink:href="#DejaVuSans-30" x="127.246094"/>
      </g>
     </g>
    </g>
    <g id="ytick_6">
     <g id="line2d_25">
      <path d="M 54.3 150.204958 
L 390.96 150.204958 
" clip-path="url(#pe61e406403)" style="fill: none; stroke: #cccccc; stroke-width: 0.8; stroke-linecap: round"/>
     </g>
     <g id="text_26">
      <!-- 500 -->
      <g style="fill: #262626" transform="translate(29.203 153.54827)scale(0.088 -0.088)">
       <use xlink:href="#DejaVuSans-35"/>
       <use xlink:href="#DejaVuSans-30" x="63.623047"/>
       <use xlink:href="#DejaVuSans-30" x="127.246094"/>
      </g>
     </g>
    </g>
    <g id="text_27">
     <!-- Edge Coverages -->
     <g style="fill: #262626" transform="translate(23.2065 329.98575)rotate(-90)scale(0.096 -0.096)">
      <defs>
       <path id="DejaVuSans-45" d="M 628 4666 
L 3578 4666 
L 3578 4134 
L 1259 4134 
L 1259 2753 
L 3481 2753 
L 3481 2222 
L 1259 2222 
L 1259 531 
L 3634 531 
L 3634 0 
L 628 0 
L 628 4666 
z
" transform="scale(0.015625)"/>
       <path id="DejaVuSans-64" d="M 2906 2969 
L 2906 4863 
L 3481 4863 
L 3481 0 
L 2906 0 
L 2906 525 
Q 2725 213 2448 61 
Q 2172 -91 1784 -91 
Q 1150 -91 751 415 
Q 353 922 353 1747 
Q 353 2572 751 3078 
Q 1150 3584 1784 3584 
Q 2172 3584 2448 3432 
Q 2725 3281 2906 2969 
z
M 947 1747 
Q 947 1113 1208 752 
Q 1469 391 1925 391 
Q 2381 391 2643 752 
Q 2906 1113 2906 1747 
Q 2906 2381 2643 2742 
Q 2381 3103 1925 3103 
Q 1469 3103 1208 2742 
Q 947 2381 947 1747 
z
" transform="scale(0.015625)"/>
       <path id="DejaVuSans-67" d="M 2906 1791 
Q 2906 2416 2648 2759 
Q 2391 3103 1925 3103 
Q 1463 3103 1205 2759 
Q 947 2416 947 1791 
Q 947 1169 1205 825 
Q 1463 481 1925 481 
Q 2391 481 2648 825 
Q 2906 1169 2906 1791 
z
M 3481 434 
Q 3481 -459 3084 -895 
Q 2688 -1331 1869 -1331 
Q 1566 -1331 1297 -1286 
Q 1028 -1241 775 -1147 
L 775 -588 
Q 1028 -725 1275 -790 
Q 1522 -856 1778 -856 
Q 2344 -856 2625 -561 
Q 2906 -266 2906 331 
L 2906 616 
Q 2728 306 2450 153 
Q 2172 0 1784 0 
Q 1141 0 747 490 
Q 353 981 353 1791 
Q 353 2603 747 3093 
Q 1141 3584 1784 3584 
Q 2172 3584 2450 3431 
Q 2728 3278 2906 2969 
L 2906 3500 
L 3481 3500 
L 3481 434 
z
" transform="scale(0.015625)"/>
       <path id="DejaVuSans-43" d="M 4122 4306 
L 4122 3641 
Q 3803 3938 3442 4084 
Q 3081 4231 2675 4231 
Q 1875 4231 1450 3742 
Q 1025 3253 1025 2328 
Q 1025 1406 1450 917 
Q 1875 428 2675 428 
Q 3081 428 3442 575 
Q 3803 722 4122 1019 
L 4122 359 
Q 3791 134 3420 21 
Q 3050 -91 2638 -91 
Q 1578 -91 968 557 
Q 359 1206 359 2328 
Q 359 3453 968 4101 
Q 1578 4750 2638 4750 
Q 3056 4750 3426 4639 
Q 3797 4528 4122 4306 
z
" transform="scale(0.015625)"/>
       <path id="DejaVuSans-6f" d="M 1959 3097 
Q 1497 3097 1228 2736 
Q 959 2375 959 1747 
Q 959 1119 1226 758 
Q 1494 397 1959 397 
Q 2419 397 2687 759 
Q 2956 1122 2956 1747 
Q 2956 2369 2687 2733 
Q 2419 3097 1959 3097 
z
M 1959 3584 
Q 2709 3584 3137 3096 
Q 3566 2609 3566 1747 
Q 3566 888 3137 398 
Q 2709 -91 1959 -91 
Q 1206 -91 779 398 
Q 353 888 353 1747 
Q 353 2609 779 3096 
Q 1206 3584 1959 3584 
z
" transform="scale(0.015625)"/>
       <path id="DejaVuSans-76" d="M 191 3500 
L 800 3500 
L 1894 563 
L 2988 3500 
L 3597 3500 
L 2284 0 
L 1503 0 
L 191 3500 
z
" transform="scale(0.015625)"/>
       <path id="DejaVuSans-72" d="M 2631 2963 
Q 2534 3019 2420 3045 
Q 2306 3072 2169 3072 
Q 1681 3072 1420 2755 
Q 1159 2438 1159 1844 
L 1159 0 
L 581 0 
L 581 3500 
L 1159 3500 
L 1159 2956 
Q 1341 3275 1631 3429 
Q 1922 3584 2338 3584 
Q 2397 3584 2469 3576 
Q 2541 3569 2628 3553 
L 2631 2963 
z
" transform="scale(0.015625)"/>
       <path id="DejaVuSans-61" d="M 2194 1759 
Q 1497 1759 1228 1600 
Q 959 1441 959 1056 
Q 959 750 1161 570 
Q 1363 391 1709 391 
Q 2188 391 2477 730 
Q 2766 1069 2766 1631 
L 2766 1759 
L 2194 1759 
z
M 3341 1997 
L 3341 0 
L 2766 0 
L 2766 531 
Q 2569 213 2275 61 
Q 1981 -91 1556 -91 
Q 1019 -91 701 211 
Q 384 513 384 1019 
Q 384 1609 779 1909 
Q 1175 2209 1959 2209 
L 2766 2209 
L 2766 2266 
Q 2766 2663 2505 2880 
Q 2244 3097 1772 3097 
Q 1472 3097 1187 3025 
Q 903 2953 641 2809 
L 641 3341 
Q 956 3463 1253 3523 
Q 1550 3584 1831 3584 
Q 2591 3584 2966 3190 
Q 3341 2797 3341 1997 
z
" transform="scale(0.015625)"/>
      </defs>
      <use xlink:href="#DejaVuSans-45"/>
      <use xlink:href="#DejaVuSans-64" x="63.183594"/>
      <use xlink:href="#DejaVuSans-67" x="126.660156"/>
      <use xlink:href="#DejaVuSans-65" x="190.136719"/>
      <use xlink:href="#DejaVuSans-20" x="251.660156"/>
      <use xlink:href="#DejaVuSans-43" x="283.447266"/>
      <use xlink:href="#DejaVuSans-6f" x="353.271484"/>
      <use xlink:href="#DejaVuSans-76" x="414.453125"/>
      <use xlink:href="#DejaVuSans-65" x="473.632812"/>
      <use xlink:href="#DejaVuSans-72" x="535.15625"/>
      <use xlink:href="#DejaVuSans-61" x="576.269531"/>
      <use xlink:href="#DejaVuSans-67" x="637.548828"/>
      <use xlink:href="#DejaVuSans-65" x="701.025391"/>
      <use xlink:href="#DejaVuSans-73" x="762.548828"/>
     </g>
    </g>
   </g>
   <g id="PolyCollection_1">
    <defs>
     <path id="mbf44d7d2e7" d="M 69.602727 -142.391307 
L 69.602727 -83.52 
L 69.602727 -142.391307 
L 69.602727 -142.391307 
z
" style="stroke: #db5f57; stroke-opacity: 0.2; stroke-width: 0.8"/>
    </defs>
    <g clip-path="url(#pe61e406403)">
     <use xlink:href="#mbf44d7d2e7" x="0" y="576" style="fill: #db5f57; fill-opacity: 0.2; stroke: #db5f57; stroke-opacity: 0.2; stroke-width: 0.8"/>
    </g>
   </g>
   <g id="PolyCollection_2">
    <defs>
     <path id="m106c1673ac" d="M 69.602727 -116.378404 
L 69.602727 -83.52 
L 69.602727 -116.378404 
L 69.602727 -116.378404 
z
" style="stroke: #b9db57; stroke-opacity: 0.2; stroke-width: 0.8"/>
    </defs>
    <g clip-path="url(#pe61e406403)">
     <use xlink:href="#m106c1673ac" x="0" y="576" style="fill: #b9db57; fill-opacity: 0.2; stroke: #b9db57; stroke-opacity: 0.2; stroke-width: 0.8"/>
    </g>
   </g>
   <g id="PolyCollection_3">
    <defs>
     <path id="ma16112dbcd" d="M 69.602727 -114.324754 
L 69.602727 -83.52 
L 69.602727 -114.324754 
L 69.602727 -114.324754 
z
" style="stroke: #57db94; stroke-opacity: 0.2; stroke-width: 0.8"/>
    </defs>
    <g clip-path="url(#pe61e406403)">
     <use xlink:href="#ma16112dbcd" x="0" y="576" style="fill: #57db94; fill-opacity: 0.2; stroke: #57db94; stroke-opacity: 0.2; stroke-width: 0.8"/>
    </g>
   </g>
   <g id="PolyCollection_4">
    <defs>
     <path id="m72942257c1" d="M 69.602727 -108.848353 
L 69.602727 -83.52 
L 69.602727 -108.848353 
L 69.602727 -108.848353 
z
" style="stroke: #5784db; stroke-opacity: 0.2; stroke-width: 0.8"/>
    </defs>
    <g clip-path="url(#pe61e406403)">
     <use xlink:href="#m72942257c1" x="0" y="576" style="fill: #5784db; fill-opacity: 0.2; stroke: #5784db; stroke-opacity: 0.2; stroke-width: 0.8"/>
    </g>
   </g>
   <g id="PolyCollection_5">
    <defs>
     <path id="m31b9f4e5b7" d="M 69.602727 -154.713209 
L 69.602727 -83.52 
L 69.602727 -154.713209 
L 69.602727 -154.713209 
z
" style="stroke: #c957db; stroke-opacity: 0.2; stroke-width: 0.8"/>
    </defs>
    <g clip-path="url(#pe61e406403)">
     <use xlink:href="#m31b9f4e5b7" x="0" y="576" style="fill: #c957db; fill-opacity: 0.2; stroke: #c957db; stroke-opacity: 0.2; stroke-width: 0.8"/>
    </g>
   </g>
   <g id="line2d_26">
    <path d="M 69.602727 463.044346 
L 69.815561 409.64944 
L 70.666895 379.529236 
L 70.879728 374.052835 
L 71.092562 374.052835 
L 71.305395 371.999185 
L 71.518229 371.314635 
L 71.731062 369.260985 
L 71.943896 362.415484 
L 72.795229 357.623633 
L 73.008063 348.039932 
L 73.220896 347.355382 
L 74.07223 342.563531 
L 74.285064 341.878981 
L 74.497897 339.140781 
L 74.923564 339.140781 
L 75.136398 338.456231 
L 78.754567 338.456231 
L 78.9674 337.771681 
L 80.031568 331.61073 
L 80.244401 330.92618 
L 80.457235 328.87253 
L 80.670068 328.18798 
L 81.095735 325.449779 
L 81.308569 233.035518 
L 82.798403 233.035518 
L 83.011237 228.928217 
L 92.588743 228.928217 
L 92.801577 228.243667 
L 98.335247 228.243667 
L 98.548081 198.123463 
L 107.912754 198.123463 
L 108.125587 193.331613 
L 117.915927 193.331613 
L 118.128761 189.908862 
L 131.111603 189.908862 
L 131.324437 184.432462 
L 141.114777 184.432462 
L 141.32761 165.265059 
L 154.523286 165.265059 
L 154.73612 154.996808 
L 167.718962 154.996808 
L 167.931795 144.728557 
L 180.914638 144.728557 
L 181.127471 135.144856 
L 193.89748 135.144856 
L 194.110314 131.722105 
L 204.113487 131.722105 
L 204.326321 129.668455 
L 217.309163 129.668455 
L 217.521996 125.561154 
L 228.376504 125.561154 
L 228.589337 124.192054 
L 241.785013 124.192054 
L 241.997847 122.822954 
L 255.193523 122.822954 
L 255.406356 122.138404 
L 269.027699 122.138404 
L 269.240532 120.769304 
L 282.649042 120.769304 
L 282.861875 119.400204 
L 293.503549 119.400204 
L 293.716383 116.662003 
L 307.124892 116.662003 
L 307.337725 115.977453 
L 331.813576 115.977453 
L 332.026409 108.447402 
L 343.09375 108.447402 
L 343.306584 102.286452 
L 365.866933 102.286452 
L 366.079766 100.232801 
L 367.782434 100.232801 
L 367.995267 99.548251 
L 375.657273 99.548251 
L 375.657273 99.548251 
" clip-path="url(#pe61e406403)" style="fill: none; stroke: #db5f57; stroke-width: 1.2; stroke-linecap: round"/>
   </g>
   <g id="line2d_27">
    <path d="M 69.602727 476.050798 
L 70.028394 436.346893 
L 70.241228 431.555042 
L 70.454061 412.38764 
L 70.666895 404.173039 
L 70.879728 336.402581 
L 71.518229 323.396129 
L 71.731062 322.027029 
L 71.943896 319.288829 
L 72.156729 318.604278 
L 72.369563 309.020577 
L 72.795229 304.228727 
L 73.220896 281.638574 
L 73.43373 274.793073 
L 73.859397 272.739423 
L 74.07223 272.739423 
L 74.285064 270.001222 
L 74.497897 270.001222 
L 74.710731 269.316672 
L 74.923564 269.316672 
L 75.136398 265.893922 
L 75.349231 265.209372 
L 76.626232 265.209372 
L 76.839066 264.524822 
L 77.477566 264.524822 
L 77.903233 261.786621 
L 78.3289 261.786621 
L 78.754567 259.048421 
L 78.9674 259.048421 
L 79.180234 258.363871 
L 79.605901 252.88747 
L 79.818734 252.20292 
L 80.031568 252.20292 
L 80.244401 250.83382 
L 80.457235 250.83382 
L 80.670068 250.14927 
L 80.882902 246.72652 
L 81.095735 246.72652 
L 81.521402 242.619219 
L 82.159903 242.619219 
L 82.372736 241.934669 
L 82.798403 239.881019 
L 83.22407 239.881019 
L 83.649737 237.142818 
L 84.713904 237.142818 
L 84.926738 236.458268 
L 85.352405 236.458268 
L 85.565238 235.773718 
L 85.778072 235.773718 
L 85.990905 234.404618 
L 86.203739 234.404618 
L 86.416572 233.720068 
L 86.629406 233.720068 
L 86.842239 233.035518 
L 87.267906 233.035518 
L 87.48074 232.350968 
L 87.693573 230.981868 
L 88.757741 230.981868 
L 89.183408 228.928217 
L 89.396241 228.928217 
L 89.821908 226.874567 
L 90.034741 226.190017 
L 90.673242 222.767267 
L 90.886075 222.082716 
L 91.098909 220.713616 
L 91.737409 220.713616 
L 91.950243 218.659966 
L 92.163076 218.659966 
L 92.37591 217.290866 
L 92.801577 217.290866 
L 93.01441 215.237216 
L 93.440077 215.237216 
L 93.652911 213.868115 
L 93.865744 213.868115 
L 94.504245 211.814465 
L 95.568412 211.814465 
L 95.781245 211.129915 
L 95.994079 211.129915 
L 96.206912 209.760815 
L 97.27108 209.760815 
L 97.483913 209.076265 
L 97.696747 209.076265 
L 97.90958 208.391715 
L 98.122414 208.391715 
L 98.335247 207.022615 
L 99.186581 207.022615 
L 99.399415 206.338065 
L 100.676415 206.338065 
L 100.889249 205.653514 
L 101.102082 205.653514 
L 101.314916 204.284414 
L 102.16625 204.284414 
L 102.379083 202.915314 
L 102.80475 202.915314 
L 103.230417 201.546214 
L 107.274253 201.546214 
L 107.487087 200.861664 
L 113.233591 200.861664 
L 113.446424 200.177114 
L 113.659258 200.177114 
L 113.872091 198.808014 
L 115.361926 198.808014 
L 115.787593 197.438913 
L 121.321263 197.438913 
L 121.74693 196.069813 
L 124.726599 196.069813 
L 125.152266 194.700713 
L 125.365099 194.700713 
L 125.577933 193.331613 
L 126.0036 193.331613 
L 126.216433 192.647063 
L 126.429267 192.647063 
L 126.6421 191.962513 
L 131.324437 191.962513 
L 131.53727 191.277963 
L 133.239938 191.277963 
L 133.452772 189.908862 
L 136.006773 189.908862 
L 136.219607 189.224312 
L 136.43244 187.170662 
L 137.283774 187.170662 
L 137.496608 186.486112 
L 139.199276 186.486112 
L 139.412109 185.801562 
L 139.837776 183.747912 
L 140.050609 183.747912 
L 140.263443 178.956061 
L 140.476276 177.586961 
L 140.68911 177.586961 
L 140.901943 174.848761 
L 141.114777 174.848761 
L 141.753277 172.79511 
L 143.243112 172.79511 
L 143.455945 170.05691 
L 146.22278 170.05691 
L 146.435614 169.37236 
L 147.925448 169.37236 
L 148.138282 168.68781 
L 148.989616 168.68781 
L 149.415283 166.63416 
L 158.354289 166.63416 
L 158.567122 165.94961 
L 158.779956 165.94961 
L 158.992789 165.265059 
L 161.121124 165.265059 
L 161.333958 164.580509 
L 166.229128 164.580509 
L 166.441961 163.895959 
L 166.654795 161.842309 
L 166.867628 161.842309 
L 167.293295 159.788659 
L 167.506128 159.788659 
L 167.718962 157.050458 
L 167.931795 157.050458 
L 168.144629 156.365908 
L 168.783129 156.365908 
L 168.995963 155.681358 
L 169.208796 155.681358 
L 169.42163 154.996808 
L 169.847297 154.996808 
L 170.06013 154.312258 
L 170.272964 154.312258 
L 170.485797 153.627708 
L 170.911464 153.627708 
L 171.124298 152.258608 
L 171.337131 152.258608 
L 171.549965 150.204958 
L 171.762798 150.204958 
L 171.975632 149.520407 
L 172.188465 149.520407 
L 172.401299 148.835857 
L 175.593801 148.835857 
L 175.806634 148.151307 
L 177.083635 148.151307 
L 177.296469 147.466757 
L 186.661142 147.466757 
L 186.873975 146.782207 
L 189.215144 146.782207 
L 189.64081 145.413107 
L 191.769145 145.413107 
L 191.981979 144.728557 
L 192.194812 144.728557 
L 192.407646 144.044007 
L 193.471813 144.044007 
L 193.684647 143.359457 
L 196.877149 143.359457 
L 197.089982 142.674907 
L 200.708151 142.674907 
L 200.920985 141.990357 
L 203.68782 141.990357 
L 203.900654 141.305806 
L 205.390488 141.305806 
L 205.603322 140.621256 
L 207.731656 140.621256 
L 207.94449 139.936706 
L 211.988326 139.936706 
L 212.201159 139.252156 
L 212.83966 139.252156 
L 213.052493 138.567606 
L 214.542328 138.567606 
L 214.755161 137.883056 
L 216.244996 137.883056 
L 216.457829 137.198506 
L 218.586164 137.198506 
L 218.798997 136.513956 
L 226.461003 136.513956 
L 226.673836 135.829406 
L 236.464176 135.829406 
L 236.67701 135.144856 
L 240.295179 135.144856 
L 240.508012 134.460306 
L 241.997847 134.460306 
L 242.21068 133.775756 
L 267.537864 133.775756 
L 267.750698 133.091205 
L 269.027699 133.091205 
L 269.240532 132.406655 
L 277.328205 132.406655 
L 277.753872 131.037555 
L 284.351709 131.037555 
L 284.564543 130.353005 
L 285.203043 130.353005 
L 285.415877 129.668455 
L 287.118545 129.668455 
L 287.331378 128.983905 
L 288.821213 128.983905 
L 289.034046 128.299355 
L 304.57089 128.299355 
L 304.783724 127.614805 
L 325.854238 127.614805 
L 326.067072 126.930255 
L 326.279905 126.930255 
L 326.492739 125.561154 
L 327.76974 125.561154 
L 328.195406 124.192054 
L 329.898074 124.192054 
L 330.110908 122.822954 
L 332.452076 122.822954 
L 332.66491 122.138404 
L 334.793244 122.138404 
L 335.006078 121.453854 
L 348.840254 121.453854 
L 349.053088 120.769304 
L 359.481928 120.769304 
L 359.694762 120.084754 
L 365.228432 120.084754 
L 365.441266 119.400204 
L 365.866933 119.400204 
L 366.079766 118.715654 
L 369.910769 118.715654 
L 370.123602 118.031104 
L 370.549269 118.031104 
L 370.762103 117.346553 
L 375.657273 117.346553 
L 375.657273 117.346553 
" clip-path="url(#pe61e406403)" style="fill: none; stroke: #b9db57; stroke-width: 1.2; stroke-linecap: round"/>
   </g>
   <g id="line2d_28">
    <path d="M 69.602727 477.077623 
L 69.815561 455.514295 
L 70.241228 447.299694 
L 70.454061 446.615144 
L 70.666895 443.876944 
L 70.879728 443.192394 
L 71.092562 441.823294 
L 71.518229 437.031443 
L 71.943896 435.662343 
L 72.156729 435.662343 
L 72.369563 434.293243 
L 74.710731 434.293243 
L 75.136398 426.763192 
L 75.349231 424.024992 
L 75.987732 421.971341 
L 79.605901 421.971341 
L 79.818734 365.153684 
L 80.031568 243.988319 
L 80.670068 243.988319 
L 80.882902 243.303769 
L 81.095735 241.934669 
L 81.308569 241.934669 
L 81.521402 241.250119 
L 82.58557 241.250119 
L 82.798403 240.565569 
L 83.011237 240.565569 
L 83.22407 239.881019 
L 84.288237 239.881019 
L 84.501071 239.196469 
L 94.291411 239.196469 
L 94.504245 238.511919 
L 97.27108 238.511919 
L 97.696747 237.142818 
L 101.527749 237.142818 
L 101.740583 197.438913 
L 101.953416 195.385263 
L 102.16625 194.700713 
L 102.80475 194.700713 
L 103.017584 194.016163 
L 116.85176 194.016163 
L 117.064594 189.908862 
L 118.341594 189.908862 
L 118.554428 189.224312 
L 138.986442 189.224312 
L 139.199276 178.956061 
L 139.412109 176.902411 
L 139.624942 173.47966 
L 139.837776 173.47966 
L 140.050609 172.11056 
L 140.263443 172.11056 
L 140.68911 168.68781 
L 141.32761 168.68781 
L 141.540444 168.00326 
L 143.030278 168.00326 
L 143.243112 164.580509 
L 143.455945 163.895959 
L 145.797113 163.895959 
L 146.009947 162.526859 
L 148.138282 162.526859 
L 148.351115 161.842309 
L 157.290121 161.842309 
L 157.502955 160.473209 
L 158.779956 160.473209 
L 158.992789 159.788659 
L 167.080461 159.788659 
L 167.293295 148.835857 
L 167.506128 146.097657 
L 181.340305 146.097657 
L 181.553138 134.460306 
L 187.086809 134.460306 
L 187.299642 133.775756 
L 209.221491 133.775756 
L 209.434324 127.614805 
L 223.907001 127.614805 
L 224.119834 124.192054 
L 325.641405 124.192054 
L 325.854238 115.292903 
L 326.067072 114.608353 
L 326.279905 113.239253 
L 326.918406 113.239253 
L 327.556906 111.185603 
L 327.982573 111.185603 
L 328.195406 110.501053 
L 328.40824 110.501053 
L 328.621073 109.131952 
L 329.685241 109.131952 
L 330.110908 107.762852 
L 332.452076 107.762852 
L 332.66491 102.286452 
L 361.823096 102.286452 
L 362.03593 100.917351 
L 365.015599 100.917351 
L 365.228432 100.232801 
L 365.654099 100.232801 
L 365.866933 99.548251 
L 375.657273 99.548251 
L 375.657273 99.548251 
" clip-path="url(#pe61e406403)" style="fill: none; stroke: #57db94; stroke-width: 1.2; stroke-linecap: round"/>
   </g>
   <g id="line2d_29">
    <path d="M 69.602727 479.815823 
L 70.241228 428.132292 
L 70.454061 417.179491 
L 70.666895 412.38764 
L 70.879728 404.857589 
L 71.092562 402.119389 
L 71.305395 401.434839 
L 71.731062 384.321087 
L 72.156729 375.421935 
L 72.369563 365.153684 
L 72.582396 360.361834 
L 73.220896 332.97983 
L 73.43373 280.954024 
L 73.646563 280.954024 
L 73.859397 280.269474 
L 74.285064 280.269474 
L 74.497897 278.900374 
L 74.710731 273.423973 
L 74.923564 271.370323 
L 75.136398 270.685772 
L 76.200565 270.685772 
L 76.413399 268.632122 
L 77.477566 268.632122 
L 77.6904 266.578472 
L 78.3289 264.524822 
L 78.541733 263.155722 
L 78.754567 263.155722 
L 79.180234 261.786621 
L 79.393067 259.732971 
L 80.031568 259.732971 
L 80.244401 254.25657 
L 80.457235 254.25657 
L 80.670068 253.57202 
L 80.882902 251.51837 
L 81.095735 251.51837 
L 81.308569 250.83382 
L 81.521402 246.72652 
L 81.947069 246.72652 
L 82.372736 245.357419 
L 82.58557 243.988319 
L 83.22407 243.988319 
L 83.436904 241.934669 
L 83.86257 241.934669 
L 84.075404 241.250119 
L 84.288237 239.881019 
L 85.139571 239.881019 
L 85.352405 239.196469 
L 85.565238 239.196469 
L 85.778072 238.511919 
L 85.990905 238.511919 
L 86.203739 237.827368 
L 86.629406 235.773718 
L 87.48074 235.773718 
L 87.693573 235.089168 
L 87.906407 235.089168 
L 88.11924 233.720068 
L 88.332074 233.720068 
L 88.544907 233.035518 
L 89.183408 233.035518 
L 89.396241 231.666418 
L 90.673242 231.666418 
L 90.886075 225.505467 
L 91.311742 225.505467 
L 91.524576 224.820917 
L 92.37591 224.820917 
L 92.588743 223.451817 
L 93.01441 219.344516 
L 93.227244 218.659966 
L 95.355578 218.659966 
L 95.568412 217.290866 
L 95.781245 217.290866 
L 95.994079 216.606316 
L 96.845413 216.606316 
L 97.058246 215.921766 
L 97.90958 215.921766 
L 98.122414 214.552666 
L 98.760914 214.552666 
L 98.973748 213.868115 
L 99.399415 213.868115 
L 99.612248 212.499015 
L 100.889249 212.499015 
L 101.102082 211.814465 
L 101.314916 211.814465 
L 101.527749 209.760815 
L 102.379083 209.760815 
L 102.591917 209.076265 
L 103.868918 209.076265 
L 104.294585 207.707165 
L 106.848586 207.707165 
L 107.06142 207.022615 
L 375.657273 207.022615 
L 375.657273 207.022615 
" clip-path="url(#pe61e406403)" style="fill: none; stroke: #5784db; stroke-width: 1.2; stroke-linecap: round"/>
   </g>
   <g id="line2d_30">
    <path d="M 69.602727 456.883396 
L 69.815561 393.220238 
L 70.879728 321.342479 
L 71.305395 316.550628 
L 71.518229 313.127878 
L 71.731062 311.758778 
L 72.156729 304.228727 
L 72.795229 287.799525 
L 73.220896 265.893922 
L 75.349231 252.20292 
L 75.774898 252.20292 
L 75.987732 251.51837 
L 76.626232 251.51837 
L 76.839066 250.83382 
L 77.477566 250.83382 
L 77.6904 248.78017 
L 77.903233 248.09562 
L 78.116067 248.09562 
L 78.3289 247.41107 
L 78.754567 245.357419 
L 79.180234 243.988319 
L 79.393067 239.196469 
L 79.605901 238.511919 
L 79.818734 238.511919 
L 80.031568 237.142818 
L 80.244401 237.142818 
L 80.457235 236.458268 
L 81.308569 228.243667 
L 81.521402 227.559117 
L 81.947069 227.559117 
L 82.159903 226.874567 
L 82.372736 225.505467 
L 82.58557 225.505467 
L 82.798403 224.820917 
L 83.011237 224.820917 
L 83.22407 224.136367 
L 83.649737 222.082716 
L 84.288237 222.082716 
L 84.501071 221.398166 
L 85.352405 221.398166 
L 86.203739 218.659966 
L 86.416572 218.659966 
L 86.629406 217.975416 
L 87.267906 217.975416 
L 87.48074 217.290866 
L 87.693573 215.921766 
L 87.906407 215.921766 
L 88.11924 215.237216 
L 88.757741 215.237216 
L 89.183408 213.183565 
L 89.396241 213.183565 
L 89.821908 211.129915 
L 90.034741 210.445365 
L 90.673242 207.022615 
L 90.886075 207.022615 
L 91.098909 205.653514 
L 91.311742 205.653514 
L 91.524576 204.968964 
L 91.737409 204.968964 
L 91.950243 203.599864 
L 92.163076 203.599864 
L 92.801577 200.177114 
L 93.227244 198.808014 
L 94.291411 198.808014 
L 94.504245 198.123463 
L 95.355578 198.123463 
L 95.994079 196.069813 
L 97.27108 196.069813 
L 97.483913 195.385263 
L 97.696747 194.016163 
L 98.122414 194.016163 
L 98.335247 192.647063 
L 98.760914 192.647063 
L 98.973748 191.962513 
L 100.676415 191.962513 
L 101.527749 189.224312 
L 101.740583 189.224312 
L 102.16625 187.855212 
L 102.80475 187.855212 
L 103.017584 186.486112 
L 106.848586 186.486112 
L 107.06142 185.801562 
L 113.233591 185.801562 
L 113.446424 185.117012 
L 113.659258 185.117012 
L 113.872091 183.747912 
L 115.361926 183.747912 
L 115.787593 182.378812 
L 118.341594 182.378812 
L 118.554428 181.694261 
L 121.321263 181.694261 
L 121.534097 181.009711 
L 124.726599 181.009711 
L 125.152266 179.640611 
L 125.365099 179.640611 
L 125.577933 178.271511 
L 126.0036 178.271511 
L 126.216433 177.586961 
L 126.429267 177.586961 
L 126.6421 176.902411 
L 131.324437 176.902411 
L 131.53727 176.217861 
L 133.239938 176.217861 
L 133.452772 174.848761 
L 136.006773 174.848761 
L 136.219607 174.164211 
L 136.43244 172.11056 
L 137.283774 172.11056 
L 137.496608 171.42601 
L 139.199276 171.42601 
L 139.412109 169.37236 
L 139.624942 164.580509 
L 139.837776 163.895959 
L 140.050609 162.526859 
L 140.263443 162.526859 
L 140.476276 159.104109 
L 140.68911 157.735008 
L 141.114777 157.735008 
L 141.32761 157.050458 
L 141.540444 155.681358 
L 143.030278 155.681358 
L 143.243112 152.258608 
L 143.455945 151.574058 
L 145.797113 151.574058 
L 146.009947 150.204958 
L 147.925448 150.204958 
L 148.351115 148.835857 
L 148.989616 148.835857 
L 149.415283 147.466757 
L 157.290121 147.466757 
L 157.502955 146.097657 
L 158.779956 146.097657 
L 158.992789 145.413107 
L 161.121124 145.413107 
L 161.333958 144.728557 
L 166.229128 144.728557 
L 166.441961 144.044007 
L 166.654795 141.990357 
L 166.867628 141.990357 
L 167.293295 139.936706 
L 167.506128 139.252156 
L 167.718962 137.198506 
L 167.931795 137.198506 
L 168.144629 136.513956 
L 168.783129 136.513956 
L 168.995963 135.829406 
L 169.208796 135.829406 
L 169.42163 135.144856 
L 169.847297 135.144856 
L 170.06013 134.460306 
L 170.272964 134.460306 
L 170.485797 133.775756 
L 170.911464 133.775756 
L 171.124298 132.406655 
L 171.337131 132.406655 
L 171.549965 130.353005 
L 171.762798 130.353005 
L 171.975632 129.668455 
L 172.188465 129.668455 
L 172.401299 128.983905 
L 175.593801 128.983905 
L 175.806634 128.299355 
L 177.083635 128.299355 
L 177.296469 127.614805 
L 186.661142 127.614805 
L 186.873975 126.930255 
L 189.215144 126.930255 
L 189.64081 125.561154 
L 191.769145 125.561154 
L 191.981979 124.876604 
L 192.194812 124.876604 
L 192.407646 124.192054 
L 193.471813 124.192054 
L 193.684647 123.507504 
L 196.877149 123.507504 
L 197.089982 122.822954 
L 200.708151 122.822954 
L 200.920985 122.138404 
L 203.68782 122.138404 
L 203.900654 121.453854 
L 205.390488 121.453854 
L 205.603322 120.769304 
L 207.731656 120.769304 
L 207.94449 120.084754 
L 211.988326 120.084754 
L 212.201159 119.400204 
L 212.83966 119.400204 
L 213.052493 118.715654 
L 214.542328 118.715654 
L 214.755161 118.031104 
L 216.244996 118.031104 
L 216.457829 117.346553 
L 218.586164 117.346553 
L 218.798997 116.662003 
L 226.461003 116.662003 
L 226.673836 115.977453 
L 236.464176 115.977453 
L 236.67701 115.292903 
L 240.295179 115.292903 
L 240.508012 114.608353 
L 241.997847 114.608353 
L 242.21068 113.923803 
L 267.537864 113.923803 
L 267.750698 113.239253 
L 269.027699 113.239253 
L 269.240532 112.554703 
L 277.328205 112.554703 
L 277.753872 111.185603 
L 284.351709 111.185603 
L 284.564543 110.501053 
L 285.203043 110.501053 
L 285.415877 109.816503 
L 287.118545 109.816503 
L 287.331378 109.131952 
L 288.821213 109.131952 
L 289.034046 108.447402 
L 304.57089 108.447402 
L 304.783724 107.762852 
L 325.854238 107.762852 
L 326.067072 107.078302 
L 326.279905 105.709202 
L 326.918406 105.709202 
L 327.556906 103.655552 
L 327.982573 103.655552 
L 328.195406 102.971002 
L 328.40824 102.971002 
L 328.621073 101.601902 
L 329.685241 101.601902 
L 330.110908 100.232801 
L 332.452076 100.232801 
L 332.66491 94.756401 
L 334.793244 94.756401 
L 335.006078 94.071851 
L 348.840254 94.071851 
L 349.053088 93.387301 
L 359.481928 93.387301 
L 359.694762 92.70275 
L 365.015599 92.70275 
L 365.228432 92.0182 
L 365.654099 92.0182 
L 365.866933 91.33365 
L 367.782434 91.33365 
L 367.995267 90.6491 
L 369.910769 90.6491 
L 370.123602 89.96455 
L 370.549269 89.96455 
L 370.762103 89.28 
L 375.657273 89.28 
L 375.657273 89.28 
" clip-path="url(#pe61e406403)" style="fill: none; stroke: #c957db; stroke-width: 1.2; stroke-linecap: round"/>
   </g>
   <g id="line2d_31"/>
   <g id="line2d_32"/>
   <g id="line2d_33"/>
   <g id="line2d_34"/>
   <g id="line2d_35"/>
   <g id="patch_3">
    <path d="M 54.3 512.64 
L 54.3 69.12 
" style="fill: none; stroke: #cccccc; stroke-linejoin: miter; stroke-linecap: square"/>
   </g>
   <g id="patch_4">
    <path d="M 54.3 512.64 
L 390.96 512.64 
" style="fill: none; stroke: #cccccc; stroke-linejoin: miter; stroke-linecap: square"/>
   </g>
   <g id="text_28">
    <!-- Edge Coverage History -->
    <g style="fill: #262626" transform="translate(115.738512 63.12)scale(0.165888 -0.165888)">
     <defs>
      <path id="DejaVuSans-Bold-45" d="M 588 4666 
L 3834 4666 
L 3834 3756 
L 1791 3756 
L 1791 2888 
L 3713 2888 
L 3713 1978 
L 1791 1978 
L 1791 909 
L 3903 909 
L 3903 0 
L 588 0 
L 588 4666 
z
" transform="scale(0.015625)"/>
      <path id="DejaVuSans-Bold-64" d="M 2919 2988 
L 2919 4863 
L 4044 4863 
L 4044 0 
L 2919 0 
L 2919 506 
Q 2688 197 2409 53 
Q 2131 -91 1766 -91 
Q 1119 -91 703 423 
Q 288 938 288 1747 
Q 288 2556 703 3070 
Q 1119 3584 1766 3584 
Q 2128 3584 2408 3439 
Q 2688 3294 2919 2988 
z
M 2181 722 
Q 2541 722 2730 984 
Q 2919 1247 2919 1747 
Q 2919 2247 2730 2509 
Q 2541 2772 2181 2772 
Q 1825 2772 1636 2509 
Q 1447 2247 1447 1747 
Q 1447 1247 1636 984 
Q 1825 722 2181 722 
z
" transform="scale(0.015625)"/>
      <path id="DejaVuSans-Bold-67" d="M 2919 594 
Q 2688 288 2409 144 
Q 2131 0 1766 0 
Q 1125 0 706 504 
Q 288 1009 288 1791 
Q 288 2575 706 3076 
Q 1125 3578 1766 3578 
Q 2131 3578 2409 3434 
Q 2688 3291 2919 2981 
L 2919 3500 
L 4044 3500 
L 4044 353 
Q 4044 -491 3511 -936 
Q 2978 -1381 1966 -1381 
Q 1638 -1381 1331 -1331 
Q 1025 -1281 716 -1178 
L 716 -306 
Q 1009 -475 1290 -558 
Q 1572 -641 1856 -641 
Q 2406 -641 2662 -400 
Q 2919 -159 2919 353 
L 2919 594 
z
M 2181 2772 
Q 1834 2772 1640 2515 
Q 1447 2259 1447 1791 
Q 1447 1309 1634 1061 
Q 1822 813 2181 813 
Q 2531 813 2725 1069 
Q 2919 1325 2919 1791 
Q 2919 2259 2725 2515 
Q 2531 2772 2181 2772 
z
" transform="scale(0.015625)"/>
      <path id="DejaVuSans-Bold-65" d="M 4031 1759 
L 4031 1441 
L 1416 1441 
Q 1456 1047 1700 850 
Q 1944 653 2381 653 
Q 2734 653 3104 758 
Q 3475 863 3866 1075 
L 3866 213 
Q 3469 63 3072 -14 
Q 2675 -91 2278 -91 
Q 1328 -91 801 392 
Q 275 875 275 1747 
Q 275 2603 792 3093 
Q 1309 3584 2216 3584 
Q 3041 3584 3536 3087 
Q 4031 2591 4031 1759 
z
M 2881 2131 
Q 2881 2450 2695 2645 
Q 2509 2841 2209 2841 
Q 1884 2841 1681 2658 
Q 1478 2475 1428 2131 
L 2881 2131 
z
" transform="scale(0.015625)"/>
      <path id="DejaVuSans-Bold-20" transform="scale(0.015625)"/>
      <path id="DejaVuSans-Bold-43" d="M 4288 256 
Q 3956 84 3597 -3 
Q 3238 -91 2847 -91 
Q 1681 -91 1000 561 
Q 319 1213 319 2328 
Q 319 3447 1000 4098 
Q 1681 4750 2847 4750 
Q 3238 4750 3597 4662 
Q 3956 4575 4288 4403 
L 4288 3438 
Q 3953 3666 3628 3772 
Q 3303 3878 2944 3878 
Q 2300 3878 1931 3465 
Q 1563 3053 1563 2328 
Q 1563 1606 1931 1193 
Q 2300 781 2944 781 
Q 3303 781 3628 887 
Q 3953 994 4288 1222 
L 4288 256 
z
" transform="scale(0.015625)"/>
      <path id="DejaVuSans-Bold-6f" d="M 2203 2784 
Q 1831 2784 1636 2517 
Q 1441 2250 1441 1747 
Q 1441 1244 1636 976 
Q 1831 709 2203 709 
Q 2569 709 2762 976 
Q 2956 1244 2956 1747 
Q 2956 2250 2762 2517 
Q 2569 2784 2203 2784 
z
M 2203 3584 
Q 3106 3584 3614 3096 
Q 4122 2609 4122 1747 
Q 4122 884 3614 396 
Q 3106 -91 2203 -91 
Q 1297 -91 786 396 
Q 275 884 275 1747 
Q 275 2609 786 3096 
Q 1297 3584 2203 3584 
z
" transform="scale(0.015625)"/>
      <path id="DejaVuSans-Bold-76" d="M 97 3500 
L 1216 3500 
L 2088 1081 
L 2956 3500 
L 4078 3500 
L 2700 0 
L 1472 0 
L 97 3500 
z
" transform="scale(0.015625)"/>
      <path id="DejaVuSans-Bold-72" d="M 3138 2547 
Q 2991 2616 2845 2648 
Q 2700 2681 2553 2681 
Q 2122 2681 1889 2404 
Q 1656 2128 1656 1613 
L 1656 0 
L 538 0 
L 538 3500 
L 1656 3500 
L 1656 2925 
Q 1872 3269 2151 3426 
Q 2431 3584 2822 3584 
Q 2878 3584 2943 3579 
Q 3009 3575 3134 3559 
L 3138 2547 
z
" transform="scale(0.015625)"/>
      <path id="DejaVuSans-Bold-61" d="M 2106 1575 
Q 1756 1575 1579 1456 
Q 1403 1338 1403 1106 
Q 1403 894 1545 773 
Q 1688 653 1941 653 
Q 2256 653 2472 879 
Q 2688 1106 2688 1447 
L 2688 1575 
L 2106 1575 
z
M 3816 1997 
L 3816 0 
L 2688 0 
L 2688 519 
Q 2463 200 2181 54 
Q 1900 -91 1497 -91 
Q 953 -91 614 226 
Q 275 544 275 1050 
Q 275 1666 698 1953 
Q 1122 2241 2028 2241 
L 2688 2241 
L 2688 2328 
Q 2688 2594 2478 2717 
Q 2269 2841 1825 2841 
Q 1466 2841 1156 2769 
Q 847 2697 581 2553 
L 581 3406 
Q 941 3494 1303 3539 
Q 1666 3584 2028 3584 
Q 2975 3584 3395 3211 
Q 3816 2838 3816 1997 
z
" transform="scale(0.015625)"/>
      <path id="DejaVuSans-Bold-48" d="M 588 4666 
L 1791 4666 
L 1791 2888 
L 3566 2888 
L 3566 4666 
L 4769 4666 
L 4769 0 
L 3566 0 
L 3566 1978 
L 1791 1978 
L 1791 0 
L 588 0 
L 588 4666 
z
" transform="scale(0.015625)"/>
      <path id="DejaVuSans-Bold-69" d="M 538 3500 
L 1656 3500 
L 1656 0 
L 538 0 
L 538 3500 
z
M 538 4863 
L 1656 4863 
L 1656 3950 
L 538 3950 
L 538 4863 
z
" transform="scale(0.015625)"/>
      <path id="DejaVuSans-Bold-73" d="M 3272 3391 
L 3272 2541 
Q 2913 2691 2578 2766 
Q 2244 2841 1947 2841 
Q 1628 2841 1473 2761 
Q 1319 2681 1319 2516 
Q 1319 2381 1436 2309 
Q 1553 2238 1856 2203 
L 2053 2175 
Q 2913 2066 3209 1816 
Q 3506 1566 3506 1031 
Q 3506 472 3093 190 
Q 2681 -91 1863 -91 
Q 1516 -91 1145 -36 
Q 775 19 384 128 
L 384 978 
Q 719 816 1070 734 
Q 1422 653 1784 653 
Q 2113 653 2278 743 
Q 2444 834 2444 1013 
Q 2444 1163 2330 1236 
Q 2216 1309 1875 1350 
L 1678 1375 
Q 931 1469 631 1722 
Q 331 1975 331 2491 
Q 331 3047 712 3315 
Q 1094 3584 1881 3584 
Q 2191 3584 2531 3537 
Q 2872 3491 3272 3391 
z
" transform="scale(0.015625)"/>
      <path id="DejaVuSans-Bold-74" d="M 1759 4494 
L 1759 3500 
L 2913 3500 
L 2913 2700 
L 1759 2700 
L 1759 1216 
Q 1759 972 1856 886 
Q 1953 800 2241 800 
L 2816 800 
L 2816 0 
L 1856 0 
Q 1194 0 917 276 
Q 641 553 641 1216 
L 641 2700 
L 84 2700 
L 84 3500 
L 641 3500 
L 641 4494 
L 1759 4494 
z
" transform="scale(0.015625)"/>
      <path id="DejaVuSans-Bold-79" d="M 78 3500 
L 1197 3500 
L 2138 1125 
L 2938 3500 
L 4056 3500 
L 2584 -331 
Q 2363 -916 2067 -1148 
Q 1772 -1381 1288 -1381 
L 641 -1381 
L 641 -647 
L 991 -647 
Q 1275 -647 1404 -556 
Q 1534 -466 1606 -231 
L 1638 -134 
L 78 3500 
z
" transform="scale(0.015625)"/>
     </defs>
     <use xlink:href="#DejaVuSans-Bold-45"/>
     <use xlink:href="#DejaVuSans-Bold-64" x="68.310547"/>
     <use xlink:href="#DejaVuSans-Bold-67" x="139.892578"/>
     <use xlink:href="#DejaVuSans-Bold-65" x="211.474609"/>
     <use xlink:href="#DejaVuSans-Bold-20" x="279.296875"/>
     <use xlink:href="#DejaVuSans-Bold-43" x="314.111328"/>
     <use xlink:href="#DejaVuSans-Bold-6f" x="387.5"/>
     <use xlink:href="#DejaVuSans-Bold-76" x="456.201172"/>
     <use xlink:href="#DejaVuSans-Bold-65" x="521.386719"/>
     <use xlink:href="#DejaVuSans-Bold-72" x="589.208984"/>
     <use xlink:href="#DejaVuSans-Bold-61" x="638.525391"/>
     <use xlink:href="#DejaVuSans-Bold-67" x="706.005859"/>
     <use xlink:href="#DejaVuSans-Bold-65" x="777.587891"/>
     <use xlink:href="#DejaVuSans-Bold-20" x="845.410156"/>
     <use xlink:href="#DejaVuSans-Bold-48" x="880.224609"/>
     <use xlink:href="#DejaVuSans-Bold-69" x="963.916016"/>
     <use xlink:href="#DejaVuSans-Bold-73" x="998.193359"/>
     <use xlink:href="#DejaVuSans-Bold-74" x="1057.714844"/>
     <use xlink:href="#DejaVuSans-Bold-6f" x="1105.517578"/>
     <use xlink:href="#DejaVuSans-Bold-72" x="1174.21875"/>
     <use xlink:href="#DejaVuSans-Bold-79" x="1223.535156"/>
    </g>
   </g>
   <g id="legend_1">
    <g id="patch_5">
     <path d="M 267.672 508.24 
L 384.8 508.24 
Q 386.56 508.24 386.56 506.48 
L 386.56 428.8405 
Q 386.56 427.0805 384.8 427.0805 
L 267.672 427.0805 
Q 265.912 427.0805 265.912 428.8405 
L 265.912 506.48 
Q 265.912 508.24 267.672 508.24 
z
" style="fill: #ffffff; opacity: 0.8; stroke: #cccccc; stroke-width: 0.8; stroke-linejoin: miter"/>
    </g>
    <g id="text_29">
     <!-- fuzzer -->
     <g style="fill: #262626" transform="translate(311.539 437.895)scale(0.096 -0.096)">
      <defs>
       <path id="DejaVuSans-66" d="M 2375 4863 
L 2375 4384 
L 1825 4384 
Q 1516 4384 1395 4259 
Q 1275 4134 1275 3809 
L 1275 3500 
L 2222 3500 
L 2222 3053 
L 1275 3053 
L 1275 0 
L 697 0 
L 697 3053 
L 147 3053 
L 147 3500 
L 697 3500 
L 697 3744 
Q 697 4328 969 4595 
Q 1241 4863 1831 4863 
L 2375 4863 
z
" transform="scale(0.015625)"/>
       <path id="DejaVuSans-7a" d="M 353 3500 
L 3084 3500 
L 3084 2975 
L 922 459 
L 3084 459 
L 3084 0 
L 275 0 
L 275 525 
L 2438 3041 
L 353 3041 
L 353 3500 
z
" transform="scale(0.015625)"/>
      </defs>
      <use xlink:href="#DejaVuSans-66"/>
      <use xlink:href="#DejaVuSans-75" x="35.205078"/>
      <use xlink:href="#DejaVuSans-7a" x="98.583984"/>
      <use xlink:href="#DejaVuSans-7a" x="151.074219"/>
      <use xlink:href="#DejaVuSans-65" x="203.564453"/>
      <use xlink:href="#DejaVuSans-72" x="265.087891"/>
     </g>
    </g>
    <g id="line2d_36">
     <path d="M 269.432 447.898125 
L 278.232 447.898125 
L 287.032 447.898125 
" style="fill: none; stroke: #db5f57; stroke-width: 1.2; stroke-linecap: round"/>
    </g>
    <g id="text_30">
     <!-- aflplusplus-0-exid21 -->
     <g style="fill: #262626" transform="translate(294.072 450.978125)scale(0.088 -0.088)">
      <defs>
       <path id="DejaVuSans-6c" d="M 603 4863 
L 1178 4863 
L 1178 0 
L 603 0 
L 603 4863 
z
" transform="scale(0.015625)"/>
       <path id="DejaVuSans-70" d="M 1159 525 
L 1159 -1331 
L 581 -1331 
L 581 3500 
L 1159 3500 
L 1159 2969 
Q 1341 3281 1617 3432 
Q 1894 3584 2278 3584 
Q 2916 3584 3314 3078 
Q 3713 2572 3713 1747 
Q 3713 922 3314 415 
Q 2916 -91 2278 -91 
Q 1894 -91 1617 61 
Q 1341 213 1159 525 
z
M 3116 1747 
Q 3116 2381 2855 2742 
Q 2594 3103 2138 3103 
Q 1681 3103 1420 2742 
Q 1159 2381 1159 1747 
Q 1159 1113 1420 752 
Q 1681 391 2138 391 
Q 2594 391 2855 752 
Q 3116 1113 3116 1747 
z
" transform="scale(0.015625)"/>
       <path id="DejaVuSans-2d" d="M 313 2009 
L 1997 2009 
L 1997 1497 
L 313 1497 
L 313 2009 
z
" transform="scale(0.015625)"/>
       <path id="DejaVuSans-78" d="M 3513 3500 
L 2247 1797 
L 3578 0 
L 2900 0 
L 1881 1375 
L 863 0 
L 184 0 
L 1544 1831 
L 300 3500 
L 978 3500 
L 1906 2253 
L 2834 3500 
L 3513 3500 
z
" transform="scale(0.015625)"/>
      </defs>
      <use xlink:href="#DejaVuSans-61"/>
      <use xlink:href="#DejaVuSans-66" x="61.279297"/>
      <use xlink:href="#DejaVuSans-6c" x="96.484375"/>
      <use xlink:href="#DejaVuSans-70" x="124.267578"/>
      <use xlink:href="#DejaVuSans-6c" x="187.744141"/>
      <use xlink:href="#DejaVuSans-75" x="215.527344"/>
      <use xlink:href="#DejaVuSans-73" x="278.90625"/>
      <use xlink:href="#DejaVuSans-70" x="331.005859"/>
      <use xlink:href="#DejaVuSans-6c" x="394.482422"/>
      <use xlink:href="#DejaVuSans-75" x="422.265625"/>
      <use xlink:href="#DejaVuSans-73" x="485.644531"/>
      <use xlink:href="#DejaVuSans-2d" x="537.744141"/>
      <use xlink:href="#DejaVuSans-30" x="573.828125"/>
      <use xlink:href="#DejaVuSans-2d" x="637.451172"/>
      <use xlink:href="#DejaVuSans-65" x="673.535156"/>
      <use xlink:href="#DejaVuSans-78" x="733.308594"/>
      <use xlink:href="#DejaVuSans-69" x="792.488281"/>
      <use xlink:href="#DejaVuSans-64" x="820.271484"/>
      <use xlink:href="#DejaVuSans-32" x="883.748047"/>
      <use xlink:href="#DejaVuSans-31" x="947.371094"/>
     </g>
    </g>
    <g id="line2d_37">
     <path d="M 269.432 460.814875 
L 278.232 460.814875 
L 287.032 460.814875 
" style="fill: none; stroke: #b9db57; stroke-width: 1.2; stroke-linecap: round"/>
    </g>
    <g id="text_31">
     <!-- afl-0-exid21 -->
     <g style="fill: #262626" transform="translate(294.072 463.894875)scale(0.088 -0.088)">
      <use xlink:href="#DejaVuSans-61"/>
      <use xlink:href="#DejaVuSans-66" x="61.279297"/>
      <use xlink:href="#DejaVuSans-6c" x="96.484375"/>
      <use xlink:href="#DejaVuSans-2d" x="124.267578"/>
      <use xlink:href="#DejaVuSans-30" x="160.351562"/>
      <use xlink:href="#DejaVuSans-2d" x="223.974609"/>
      <use xlink:href="#DejaVuSans-65" x="260.058594"/>
      <use xlink:href="#DejaVuSans-78" x="319.832031"/>
      <use xlink:href="#DejaVuSans-69" x="379.011719"/>
      <use xlink:href="#DejaVuSans-64" x="406.794922"/>
      <use xlink:href="#DejaVuSans-32" x="470.271484"/>
      <use xlink:href="#DejaVuSans-31" x="533.894531"/>
     </g>
    </g>
    <g id="line2d_38">
     <path d="M 269.432 473.731625 
L 278.232 473.731625 
L 287.032 473.731625 
" style="fill: none; stroke: #57db94; stroke-width: 1.2; stroke-linecap: round"/>
    </g>
    <g id="text_32">
     <!-- aflfast-0-exid21 -->
     <g style="fill: #262626" transform="translate(294.072 476.811625)scale(0.088 -0.088)">
      <use xlink:href="#DejaVuSans-61"/>
      <use xlink:href="#DejaVuSans-66" x="61.279297"/>
      <use xlink:href="#DejaVuSans-6c" x="96.484375"/>
      <use xlink:href="#DejaVuSans-66" x="124.267578"/>
      <use xlink:href="#DejaVuSans-61" x="159.472656"/>
      <use xlink:href="#DejaVuSans-73" x="220.751953"/>
      <use xlink:href="#DejaVuSans-74" x="272.851562"/>
      <use xlink:href="#DejaVuSans-2d" x="312.060547"/>
      <use xlink:href="#DejaVuSans-30" x="348.144531"/>
      <use xlink:href="#DejaVuSans-2d" x="411.767578"/>
      <use xlink:href="#DejaVuSans-65" x="447.851562"/>
      <use xlink:href="#DejaVuSans-78" x="507.625"/>
      <use xlink:href="#DejaVuSans-69" x="566.804688"/>
      <use xlink:href="#DejaVuSans-64" x="594.587891"/>
      <use xlink:href="#DejaVuSans-32" x="658.064453"/>
      <use xlink:href="#DejaVuSans-31" x="721.6875"/>
     </g>
    </g>
    <g id="line2d_39">
     <path d="M 269.432 486.648375 
L 278.232 486.648375 
L 287.032 486.648375 
" style="fill: none; stroke: #5784db; stroke-width: 1.2; stroke-linecap: round"/>
    </g>
    <g id="text_33">
     <!-- fairfuzz-0-exid21 -->
     <g style="fill: #262626" transform="translate(294.072 489.728375)scale(0.088 -0.088)">
      <use xlink:href="#DejaVuSans-66"/>
      <use xlink:href="#DejaVuSans-61" x="35.205078"/>
      <use xlink:href="#DejaVuSans-69" x="96.484375"/>
      <use xlink:href="#DejaVuSans-72" x="124.267578"/>
      <use xlink:href="#DejaVuSans-66" x="165.380859"/>
      <use xlink:href="#DejaVuSans-75" x="200.585938"/>
      <use xlink:href="#DejaVuSans-7a" x="263.964844"/>
      <use xlink:href="#DejaVuSans-7a" x="316.455078"/>
      <use xlink:href="#DejaVuSans-2d" x="368.945312"/>
      <use xlink:href="#DejaVuSans-30" x="405.029297"/>
      <use xlink:href="#DejaVuSans-2d" x="468.652344"/>
      <use xlink:href="#DejaVuSans-65" x="504.736328"/>
      <use xlink:href="#DejaVuSans-78" x="564.509766"/>
      <use xlink:href="#DejaVuSans-69" x="623.689453"/>
      <use xlink:href="#DejaVuSans-64" x="651.472656"/>
      <use xlink:href="#DejaVuSans-32" x="714.949219"/>
      <use xlink:href="#DejaVuSans-31" x="778.572266"/>
     </g>
    </g>
    <g id="line2d_40">
     <path d="M 269.432 499.565125 
L 278.232 499.565125 
L 287.032 499.565125 
" style="fill: none; stroke: #c957db; stroke-width: 1.2; stroke-linecap: round"/>
    </g>
    <g id="text_34">
     <!-- fuzzer_global -->
     <g style="fill: #262626" transform="translate(294.072 502.645125)scale(0.088 -0.088)">
      <defs>
       <path id="DejaVuSans-5f" d="M 3263 -1063 
L 3263 -1509 
L -63 -1509 
L -63 -1063 
L 3263 -1063 
z
" transform="scale(0.015625)"/>
       <path id="DejaVuSans-62" d="M 3116 1747 
Q 3116 2381 2855 2742 
Q 2594 3103 2138 3103 
Q 1681 3103 1420 2742 
Q 1159 2381 1159 1747 
Q 1159 1113 1420 752 
Q 1681 391 2138 391 
Q 2594 391 2855 752 
Q 3116 1113 3116 1747 
z
M 1159 2969 
Q 1341 3281 1617 3432 
Q 1894 3584 2278 3584 
Q 2916 3584 3314 3078 
Q 3713 2572 3713 1747 
Q 3713 922 3314 415 
Q 2916 -91 2278 -91 
Q 1894 -91 1617 61 
Q 1341 213 1159 525 
L 1159 0 
L 581 0 
L 581 4863 
L 1159 4863 
L 1159 2969 
z
" transform="scale(0.015625)"/>
      </defs>
      <use xlink:href="#DejaVuSans-66"/>
      <use xlink:href="#DejaVuSans-75" x="35.205078"/>
      <use xlink:href="#DejaVuSans-7a" x="98.583984"/>
      <use xlink:href="#DejaVuSans-7a" x="151.074219"/>
      <use xlink:href="#DejaVuSans-65" x="203.564453"/>
      <use xlink:href="#DejaVuSans-72" x="265.087891"/>
      <use xlink:href="#DejaVuSans-5f" x="306.201172"/>
      <use xlink:href="#DejaVuSans-67" x="356.201172"/>
      <use xlink:href="#DejaVuSans-6c" x="419.677734"/>
      <use xlink:href="#DejaVuSans-6f" x="447.460938"/>
      <use xlink:href="#DejaVuSans-62" x="508.642578"/>
      <use xlink:href="#DejaVuSans-61" x="572.119141"/>
      <use xlink:href="#DejaVuSans-6c" x="633.398438"/>
     </g>
    </g>
   </g>
  </g>
 </g>
 <defs>
  <clipPath id="pe61e406403">
   <rect x="54.3" y="69.12" width="336.66" height="443.52"/>
  </clipPath>
 </defs>
</svg>
