<?xml version="1.0" encoding="utf-8" standalone="no"?>
<!DOCTYPE svg PUBLIC "-//W3C//DTD SVG 1.1//EN"
  "http://www.w3.org/Graphics/SVG/1.1/DTD/svg11.dtd">
<svg xmlns:xlink="http://www.w3.org/1999/xlink" width="2764.8pt" height="2073.6pt" viewBox="0 0 2764.8 2073.6" xmlns="http://www.w3.org/2000/svg" version="1.1">
 <metadata>
  <rdf:RDF xmlns:dc="http://purl.org/dc/elements/1.1/" xmlns:cc="http://creativecommons.org/ns#" xmlns:rdf="http://www.w3.org/1999/02/22-rdf-syntax-ns#">
   <cc:Work>
    <dc:type rdf:resource="http://purl.org/dc/dcmitype/StillImage"/>
    <dc:date>2022-09-15T05:52:53.746933</dc:date>
    <dc:format>image/svg+xml</dc:format>
    <dc:creator>
     <cc:Agent>
      <dc:title>Matplotlib v3.5.3, https://matplotlib.org/</dc:title>
     </cc:Agent>
    </dc:creator>
   </cc:Work>
  </rdf:RDF>
 </metadata>
 <defs>
  <style type="text/css">*{stroke-linejoin: round; stroke-linecap: butt}</style>
 </defs>
 <g id="figure_1">
  <g id="patch_1">
   <path d="M 0 2073.6 
L 2764.8 2073.6 
L 2764.8 0 
L 0 0 
z
" style="fill: #ffffff"/>
  </g>
  <g id="axes_1">
   <g id="patch_2">
    <path d="M 345.6 1845.504 
L 2488.32 1845.504 
L 2488.32 248.832 
L 345.6 248.832 
z
" style="fill: #ffffff"/>
   </g>
   <g id="matplotlib.axis_1">
    <g id="xtick_1">
     <g id="line2d_1">
      <path d="M 442.996364 1845.504 
L 442.996364 248.832 
" clip-path="url(#pca0c1e5052)" style="fill: none; stroke: #cccccc; stroke-linecap: round"/>
     </g>
     <g id="text_1">
      <!-- 0 -->
      <g style="fill: #262626" transform="translate(439.496989 1863.362281)scale(0.11 -0.11)">
       <defs>
        <path id="DejaVuSans-30" d="M 2034 4250 
Q 1547 4250 1301 3770 
Q 1056 3291 1056 2328 
Q 1056 1369 1301 889 
Q 1547 409 2034 409 
Q 2525 409 2770 889 
Q 3016 1369 3016 2328 
Q 3016 3291 2770 3770 
Q 2525 4250 2034 4250 
z
M 2034 4750 
Q 2819 4750 3233 4129 
Q 3647 3509 3647 2328 
Q 3647 1150 3233 529 
Q 2819 -91 2034 -91 
Q 1250 -91 836 529 
Q 422 1150 422 2328 
Q 422 3509 836 4129 
Q 1250 4750 2034 4750 
z
" transform="scale(0.015625)"/>
       </defs>
       <use xlink:href="#DejaVuSans-30"/>
      </g>
     </g>
    </g>
    <g id="xtick_2">
     <g id="line2d_2">
      <path d="M 714.106631 1845.504 
L 714.106631 248.832 
" clip-path="url(#pca0c1e5052)" style="fill: none; stroke: #cccccc; stroke-linecap: round"/>
     </g>
     <g id="text_2">
      <!-- 200 -->
      <g style="fill: #262626" transform="translate(703.608506 1863.362281)scale(0.11 -0.11)">
       <defs>
        <path id="DejaVuSans-32" d="M 1228 531 
L 3431 531 
L 3431 0 
L 469 0 
L 469 531 
Q 828 903 1448 1529 
Q 2069 2156 2228 2338 
Q 2531 2678 2651 2914 
Q 2772 3150 2772 3378 
Q 2772 3750 2511 3984 
Q 2250 4219 1831 4219 
Q 1534 4219 1204 4116 
Q 875 4013 500 3803 
L 500 4441 
Q 881 4594 1212 4672 
Q 1544 4750 1819 4750 
Q 2544 4750 2975 4387 
Q 3406 4025 3406 3419 
Q 3406 3131 3298 2873 
Q 3191 2616 2906 2266 
Q 2828 2175 2409 1742 
Q 1991 1309 1228 531 
z
" transform="scale(0.015625)"/>
       </defs>
       <use xlink:href="#DejaVuSans-32"/>
       <use xlink:href="#DejaVuSans-30" x="63.623047"/>
       <use xlink:href="#DejaVuSans-30" x="127.246094"/>
      </g>
     </g>
    </g>
    <g id="xtick_3">
     <g id="line2d_3">
      <path d="M 985.216899 1845.504 
L 985.216899 248.832 
" clip-path="url(#pca0c1e5052)" style="fill: none; stroke: #cccccc; stroke-linecap: round"/>
     </g>
     <g id="text_3">
      <!-- 400 -->
      <g style="fill: #262626" transform="translate(974.718774 1863.362281)scale(0.11 -0.11)">
       <defs>
        <path id="DejaVuSans-34" d="M 2419 4116 
L 825 1625 
L 2419 1625 
L 2419 4116 
z
M 2253 4666 
L 3047 4666 
L 3047 1625 
L 3713 1625 
L 3713 1100 
L 3047 1100 
L 3047 0 
L 2419 0 
L 2419 1100 
L 313 1100 
L 313 1709 
L 2253 4666 
z
" transform="scale(0.015625)"/>
       </defs>
       <use xlink:href="#DejaVuSans-34"/>
       <use xlink:href="#DejaVuSans-30" x="63.623047"/>
       <use xlink:href="#DejaVuSans-30" x="127.246094"/>
      </g>
     </g>
    </g>
    <g id="xtick_4">
     <g id="line2d_4">
      <path d="M 1256.327166 1845.504 
L 1256.327166 248.832 
" clip-path="url(#pca0c1e5052)" style="fill: none; stroke: #cccccc; stroke-linecap: round"/>
     </g>
     <g id="text_4">
      <!-- 600 -->
      <g style="fill: #262626" transform="translate(1245.829041 1863.362281)scale(0.11 -0.11)">
       <defs>
        <path id="DejaVuSans-36" d="M 2113 2584 
Q 1688 2584 1439 2293 
Q 1191 2003 1191 1497 
Q 1191 994 1439 701 
Q 1688 409 2113 409 
Q 2538 409 2786 701 
Q 3034 994 3034 1497 
Q 3034 2003 2786 2293 
Q 2538 2584 2113 2584 
z
M 3366 4563 
L 3366 3988 
Q 3128 4100 2886 4159 
Q 2644 4219 2406 4219 
Q 1781 4219 1451 3797 
Q 1122 3375 1075 2522 
Q 1259 2794 1537 2939 
Q 1816 3084 2150 3084 
Q 2853 3084 3261 2657 
Q 3669 2231 3669 1497 
Q 3669 778 3244 343 
Q 2819 -91 2113 -91 
Q 1303 -91 875 529 
Q 447 1150 447 2328 
Q 447 3434 972 4092 
Q 1497 4750 2381 4750 
Q 2619 4750 2861 4703 
Q 3103 4656 3366 4563 
z
" transform="scale(0.015625)"/>
       </defs>
       <use xlink:href="#DejaVuSans-36"/>
       <use xlink:href="#DejaVuSans-30" x="63.623047"/>
       <use xlink:href="#DejaVuSans-30" x="127.246094"/>
      </g>
     </g>
    </g>
    <g id="xtick_5">
     <g id="line2d_5">
      <path d="M 1527.437434 1845.504 
L 1527.437434 248.832 
" clip-path="url(#pca0c1e5052)" style="fill: none; stroke: #cccccc; stroke-linecap: round"/>
     </g>
     <g id="text_5">
      <!-- 800 -->
      <g style="fill: #262626" transform="translate(1516.939309 1863.362281)scale(0.11 -0.11)">
       <defs>
        <path id="DejaVuSans-38" d="M 2034 2216 
Q 1584 2216 1326 1975 
Q 1069 1734 1069 1313 
Q 1069 891 1326 650 
Q 1584 409 2034 409 
Q 2484 409 2743 651 
Q 3003 894 3003 1313 
Q 3003 1734 2745 1975 
Q 2488 2216 2034 2216 
z
M 1403 2484 
Q 997 2584 770 2862 
Q 544 3141 544 3541 
Q 544 4100 942 4425 
Q 1341 4750 2034 4750 
Q 2731 4750 3128 4425 
Q 3525 4100 3525 3541 
Q 3525 3141 3298 2862 
Q 3072 2584 2669 2484 
Q 3125 2378 3379 2068 
Q 3634 1759 3634 1313 
Q 3634 634 3220 271 
Q 2806 -91 2034 -91 
Q 1263 -91 848 271 
Q 434 634 434 1313 
Q 434 1759 690 2068 
Q 947 2378 1403 2484 
z
M 1172 3481 
Q 1172 3119 1398 2916 
Q 1625 2713 2034 2713 
Q 2441 2713 2670 2916 
Q 2900 3119 2900 3481 
Q 2900 3844 2670 4047 
Q 2441 4250 2034 4250 
Q 1625 4250 1398 4047 
Q 1172 3844 1172 3481 
z
" transform="scale(0.015625)"/>
       </defs>
       <use xlink:href="#DejaVuSans-38"/>
       <use xlink:href="#DejaVuSans-30" x="63.623047"/>
       <use xlink:href="#DejaVuSans-30" x="127.246094"/>
      </g>
     </g>
    </g>
    <g id="xtick_6">
     <g id="line2d_6">
      <path d="M 1798.547702 1845.504 
L 1798.547702 248.832 
" clip-path="url(#pca0c1e5052)" style="fill: none; stroke: #cccccc; stroke-linecap: round"/>
     </g>
     <g id="text_6">
      <!-- 1000 -->
      <g style="fill: #262626" transform="translate(1784.550202 1863.362281)scale(0.11 -0.11)">
       <defs>
        <path id="DejaVuSans-31" d="M 794 531 
L 1825 531 
L 1825 4091 
L 703 3866 
L 703 4441 
L 1819 4666 
L 2450 4666 
L 2450 531 
L 3481 531 
L 3481 0 
L 794 0 
L 794 531 
z
" transform="scale(0.015625)"/>
       </defs>
       <use xlink:href="#DejaVuSans-31"/>
       <use xlink:href="#DejaVuSans-30" x="63.623047"/>
       <use xlink:href="#DejaVuSans-30" x="127.246094"/>
       <use xlink:href="#DejaVuSans-30" x="190.869141"/>
      </g>
     </g>
    </g>
    <g id="xtick_7">
     <g id="line2d_7">
      <path d="M 2069.657969 1845.504 
L 2069.657969 248.832 
" clip-path="url(#pca0c1e5052)" style="fill: none; stroke: #cccccc; stroke-linecap: round"/>
     </g>
     <g id="text_7">
      <!-- 1200 -->
      <g style="fill: #262626" transform="translate(2055.660469 1863.362281)scale(0.11 -0.11)">
       <use xlink:href="#DejaVuSans-31"/>
       <use xlink:href="#DejaVuSans-32" x="63.623047"/>
       <use xlink:href="#DejaVuSans-30" x="127.246094"/>
       <use xlink:href="#DejaVuSans-30" x="190.869141"/>
      </g>
     </g>
    </g>
    <g id="xtick_8">
     <g id="line2d_8">
      <path d="M 2340.768237 1845.504 
L 2340.768237 248.832 
" clip-path="url(#pca0c1e5052)" style="fill: none; stroke: #cccccc; stroke-linecap: round"/>
     </g>
     <g id="text_8">
      <!-- 1400 -->
      <g style="fill: #262626" transform="translate(2326.770737 1863.362281)scale(0.11 -0.11)">
       <use xlink:href="#DejaVuSans-31"/>
       <use xlink:href="#DejaVuSans-34" x="63.623047"/>
       <use xlink:href="#DejaVuSans-30" x="127.246094"/>
       <use xlink:href="#DejaVuSans-30" x="190.869141"/>
      </g>
     </g>
    </g>
    <g id="text_9">
     <!-- Discovery Time (Minutes) -->
     <g style="fill: #262626" transform="translate(1340.521875 1878.768062)scale(0.12 -0.12)">
      <defs>
       <path id="DejaVuSans-44" d="M 1259 4147 
L 1259 519 
L 2022 519 
Q 2988 519 3436 956 
Q 3884 1394 3884 2338 
Q 3884 3275 3436 3711 
Q 2988 4147 2022 4147 
L 1259 4147 
z
M 628 4666 
L 1925 4666 
Q 3281 4666 3915 4102 
Q 4550 3538 4550 2338 
Q 4550 1131 3912 565 
Q 3275 0 1925 0 
L 628 0 
L 628 4666 
z
" transform="scale(0.015625)"/>
       <path id="DejaVuSans-69" d="M 603 3500 
L 1178 3500 
L 1178 0 
L 603 0 
L 603 3500 
z
M 603 4863 
L 1178 4863 
L 1178 4134 
L 603 4134 
L 603 4863 
z
" transform="scale(0.015625)"/>
       <path id="DejaVuSans-73" d="M 2834 3397 
L 2834 2853 
Q 2591 2978 2328 3040 
Q 2066 3103 1784 3103 
Q 1356 3103 1142 2972 
Q 928 2841 928 2578 
Q 928 2378 1081 2264 
Q 1234 2150 1697 2047 
L 1894 2003 
Q 2506 1872 2764 1633 
Q 3022 1394 3022 966 
Q 3022 478 2636 193 
Q 2250 -91 1575 -91 
Q 1294 -91 989 -36 
Q 684 19 347 128 
L 347 722 
Q 666 556 975 473 
Q 1284 391 1588 391 
Q 1994 391 2212 530 
Q 2431 669 2431 922 
Q 2431 1156 2273 1281 
Q 2116 1406 1581 1522 
L 1381 1569 
Q 847 1681 609 1914 
Q 372 2147 372 2553 
Q 372 3047 722 3315 
Q 1072 3584 1716 3584 
Q 2034 3584 2315 3537 
Q 2597 3491 2834 3397 
z
" transform="scale(0.015625)"/>
       <path id="DejaVuSans-63" d="M 3122 3366 
L 3122 2828 
Q 2878 2963 2633 3030 
Q 2388 3097 2138 3097 
Q 1578 3097 1268 2742 
Q 959 2388 959 1747 
Q 959 1106 1268 751 
Q 1578 397 2138 397 
Q 2388 397 2633 464 
Q 2878 531 3122 666 
L 3122 134 
Q 2881 22 2623 -34 
Q 2366 -91 2075 -91 
Q 1284 -91 818 406 
Q 353 903 353 1747 
Q 353 2603 823 3093 
Q 1294 3584 2113 3584 
Q 2378 3584 2631 3529 
Q 2884 3475 3122 3366 
z
" transform="scale(0.015625)"/>
       <path id="DejaVuSans-6f" d="M 1959 3097 
Q 1497 3097 1228 2736 
Q 959 2375 959 1747 
Q 959 1119 1226 758 
Q 1494 397 1959 397 
Q 2419 397 2687 759 
Q 2956 1122 2956 1747 
Q 2956 2369 2687 2733 
Q 2419 3097 1959 3097 
z
M 1959 3584 
Q 2709 3584 3137 3096 
Q 3566 2609 3566 1747 
Q 3566 888 3137 398 
Q 2709 -91 1959 -91 
Q 1206 -91 779 398 
Q 353 888 353 1747 
Q 353 2609 779 3096 
Q 1206 3584 1959 3584 
z
" transform="scale(0.015625)"/>
       <path id="DejaVuSans-76" d="M 191 3500 
L 800 3500 
L 1894 563 
L 2988 3500 
L 3597 3500 
L 2284 0 
L 1503 0 
L 191 3500 
z
" transform="scale(0.015625)"/>
       <path id="DejaVuSans-65" d="M 3597 1894 
L 3597 1613 
L 953 1613 
Q 991 1019 1311 708 
Q 1631 397 2203 397 
Q 2534 397 2845 478 
Q 3156 559 3463 722 
L 3463 178 
Q 3153 47 2828 -22 
Q 2503 -91 2169 -91 
Q 1331 -91 842 396 
Q 353 884 353 1716 
Q 353 2575 817 3079 
Q 1281 3584 2069 3584 
Q 2775 3584 3186 3129 
Q 3597 2675 3597 1894 
z
M 3022 2063 
Q 3016 2534 2758 2815 
Q 2500 3097 2075 3097 
Q 1594 3097 1305 2825 
Q 1016 2553 972 2059 
L 3022 2063 
z
" transform="scale(0.015625)"/>
       <path id="DejaVuSans-72" d="M 2631 2963 
Q 2534 3019 2420 3045 
Q 2306 3072 2169 3072 
Q 1681 3072 1420 2755 
Q 1159 2438 1159 1844 
L 1159 0 
L 581 0 
L 581 3500 
L 1159 3500 
L 1159 2956 
Q 1341 3275 1631 3429 
Q 1922 3584 2338 3584 
Q 2397 3584 2469 3576 
Q 2541 3569 2628 3553 
L 2631 2963 
z
" transform="scale(0.015625)"/>
       <path id="DejaVuSans-79" d="M 2059 -325 
Q 1816 -950 1584 -1140 
Q 1353 -1331 966 -1331 
L 506 -1331 
L 506 -850 
L 844 -850 
Q 1081 -850 1212 -737 
Q 1344 -625 1503 -206 
L 1606 56 
L 191 3500 
L 800 3500 
L 1894 763 
L 2988 3500 
L 3597 3500 
L 2059 -325 
z
" transform="scale(0.015625)"/>
       <path id="DejaVuSans-20" transform="scale(0.015625)"/>
       <path id="DejaVuSans-54" d="M -19 4666 
L 3928 4666 
L 3928 4134 
L 2272 4134 
L 2272 0 
L 1638 0 
L 1638 4134 
L -19 4134 
L -19 4666 
z
" transform="scale(0.015625)"/>
       <path id="DejaVuSans-6d" d="M 3328 2828 
Q 3544 3216 3844 3400 
Q 4144 3584 4550 3584 
Q 5097 3584 5394 3201 
Q 5691 2819 5691 2113 
L 5691 0 
L 5113 0 
L 5113 2094 
Q 5113 2597 4934 2840 
Q 4756 3084 4391 3084 
Q 3944 3084 3684 2787 
Q 3425 2491 3425 1978 
L 3425 0 
L 2847 0 
L 2847 2094 
Q 2847 2600 2669 2842 
Q 2491 3084 2119 3084 
Q 1678 3084 1418 2786 
Q 1159 2488 1159 1978 
L 1159 0 
L 581 0 
L 581 3500 
L 1159 3500 
L 1159 2956 
Q 1356 3278 1631 3431 
Q 1906 3584 2284 3584 
Q 2666 3584 2933 3390 
Q 3200 3197 3328 2828 
z
" transform="scale(0.015625)"/>
       <path id="DejaVuSans-28" d="M 1984 4856 
Q 1566 4138 1362 3434 
Q 1159 2731 1159 2009 
Q 1159 1288 1364 580 
Q 1569 -128 1984 -844 
L 1484 -844 
Q 1016 -109 783 600 
Q 550 1309 550 2009 
Q 550 2706 781 3412 
Q 1013 4119 1484 4856 
L 1984 4856 
z
" transform="scale(0.015625)"/>
       <path id="DejaVuSans-4d" d="M 628 4666 
L 1569 4666 
L 2759 1491 
L 3956 4666 
L 4897 4666 
L 4897 0 
L 4281 0 
L 4281 4097 
L 3078 897 
L 2444 897 
L 1241 4097 
L 1241 0 
L 628 0 
L 628 4666 
z
" transform="scale(0.015625)"/>
       <path id="DejaVuSans-6e" d="M 3513 2113 
L 3513 0 
L 2938 0 
L 2938 2094 
Q 2938 2591 2744 2837 
Q 2550 3084 2163 3084 
Q 1697 3084 1428 2787 
Q 1159 2491 1159 1978 
L 1159 0 
L 581 0 
L 581 3500 
L 1159 3500 
L 1159 2956 
Q 1366 3272 1645 3428 
Q 1925 3584 2291 3584 
Q 2894 3584 3203 3211 
Q 3513 2838 3513 2113 
z
" transform="scale(0.015625)"/>
       <path id="DejaVuSans-75" d="M 544 1381 
L 544 3500 
L 1119 3500 
L 1119 1403 
Q 1119 906 1312 657 
Q 1506 409 1894 409 
Q 2359 409 2629 706 
Q 2900 1003 2900 1516 
L 2900 3500 
L 3475 3500 
L 3475 0 
L 2900 0 
L 2900 538 
Q 2691 219 2414 64 
Q 2138 -91 1772 -91 
Q 1169 -91 856 284 
Q 544 659 544 1381 
z
M 1991 3584 
L 1991 3584 
z
" transform="scale(0.015625)"/>
       <path id="DejaVuSans-74" d="M 1172 4494 
L 1172 3500 
L 2356 3500 
L 2356 3053 
L 1172 3053 
L 1172 1153 
Q 1172 725 1289 603 
Q 1406 481 1766 481 
L 2356 481 
L 2356 0 
L 1766 0 
Q 1100 0 847 248 
Q 594 497 594 1153 
L 594 3053 
L 172 3053 
L 172 3500 
L 594 3500 
L 594 4494 
L 1172 4494 
z
" transform="scale(0.015625)"/>
       <path id="DejaVuSans-29" d="M 513 4856 
L 1013 4856 
Q 1481 4119 1714 3412 
Q 1947 2706 1947 2009 
Q 1947 1309 1714 600 
Q 1481 -109 1013 -844 
L 513 -844 
Q 928 -128 1133 580 
Q 1338 1288 1338 2009 
Q 1338 2731 1133 3434 
Q 928 4138 513 4856 
z
" transform="scale(0.015625)"/>
      </defs>
      <use xlink:href="#DejaVuSans-44"/>
      <use xlink:href="#DejaVuSans-69" x="77.001953"/>
      <use xlink:href="#DejaVuSans-73" x="104.785156"/>
      <use xlink:href="#DejaVuSans-63" x="156.884766"/>
      <use xlink:href="#DejaVuSans-6f" x="211.865234"/>
      <use xlink:href="#DejaVuSans-76" x="273.046875"/>
      <use xlink:href="#DejaVuSans-65" x="332.226562"/>
      <use xlink:href="#DejaVuSans-72" x="393.75"/>
      <use xlink:href="#DejaVuSans-79" x="434.863281"/>
      <use xlink:href="#DejaVuSans-20" x="494.042969"/>
      <use xlink:href="#DejaVuSans-54" x="525.830078"/>
      <use xlink:href="#DejaVuSans-69" x="583.789062"/>
      <use xlink:href="#DejaVuSans-6d" x="611.572266"/>
      <use xlink:href="#DejaVuSans-65" x="708.984375"/>
      <use xlink:href="#DejaVuSans-20" x="770.507812"/>
      <use xlink:href="#DejaVuSans-28" x="802.294922"/>
      <use xlink:href="#DejaVuSans-4d" x="841.308594"/>
      <use xlink:href="#DejaVuSans-69" x="927.587891"/>
      <use xlink:href="#DejaVuSans-6e" x="955.371094"/>
      <use xlink:href="#DejaVuSans-75" x="1018.75"/>
      <use xlink:href="#DejaVuSans-74" x="1082.128906"/>
      <use xlink:href="#DejaVuSans-65" x="1121.337891"/>
      <use xlink:href="#DejaVuSans-73" x="1182.861328"/>
      <use xlink:href="#DejaVuSans-29" x="1234.960938"/>
     </g>
    </g>
   </g>
   <g id="matplotlib.axis_2">
    <g id="ytick_1">
     <g id="line2d_9">
      <path d="M 345.6 1772.928 
L 2488.32 1772.928 
" clip-path="url(#pca0c1e5052)" style="fill: none; stroke: #cccccc; stroke-linecap: round"/>
     </g>
     <g id="text_10">
      <!-- 0 -->
      <g style="fill: #262626" transform="translate(329.10125 1777.107141)scale(0.11 -0.11)">
       <use xlink:href="#DejaVuSans-30"/>
      </g>
     </g>
    </g>
    <g id="ytick_2">
     <g id="line2d_10">
      <path d="M 345.6 1591.260916 
L 2488.32 1591.260916 
" clip-path="url(#pca0c1e5052)" style="fill: none; stroke: #cccccc; stroke-linecap: round"/>
     </g>
     <g id="text_11">
      <!-- 200 -->
      <g style="fill: #262626" transform="translate(315.10375 1595.440057)scale(0.11 -0.11)">
       <use xlink:href="#DejaVuSans-32"/>
       <use xlink:href="#DejaVuSans-30" x="63.623047"/>
       <use xlink:href="#DejaVuSans-30" x="127.246094"/>
      </g>
     </g>
    </g>
    <g id="ytick_3">
     <g id="line2d_11">
      <path d="M 345.6 1409.593832 
L 2488.32 1409.593832 
" clip-path="url(#pca0c1e5052)" style="fill: none; stroke: #cccccc; stroke-linecap: round"/>
     </g>
     <g id="text_12">
      <!-- 400 -->
      <g style="fill: #262626" transform="translate(315.10375 1413.772973)scale(0.11 -0.11)">
       <use xlink:href="#DejaVuSans-34"/>
       <use xlink:href="#DejaVuSans-30" x="63.623047"/>
       <use xlink:href="#DejaVuSans-30" x="127.246094"/>
      </g>
     </g>
    </g>
    <g id="ytick_4">
     <g id="line2d_12">
      <path d="M 345.6 1227.926748 
L 2488.32 1227.926748 
" clip-path="url(#pca0c1e5052)" style="fill: none; stroke: #cccccc; stroke-linecap: round"/>
     </g>
     <g id="text_13">
      <!-- 600 -->
      <g style="fill: #262626" transform="translate(315.10375 1232.105889)scale(0.11 -0.11)">
       <use xlink:href="#DejaVuSans-36"/>
       <use xlink:href="#DejaVuSans-30" x="63.623047"/>
       <use xlink:href="#DejaVuSans-30" x="127.246094"/>
      </g>
     </g>
    </g>
    <g id="ytick_5">
     <g id="line2d_13">
      <path d="M 345.6 1046.259665 
L 2488.32 1046.259665 
" clip-path="url(#pca0c1e5052)" style="fill: none; stroke: #cccccc; stroke-linecap: round"/>
     </g>
     <g id="text_14">
      <!-- 800 -->
      <g style="fill: #262626" transform="translate(315.10375 1050.438805)scale(0.11 -0.11)">
       <use xlink:href="#DejaVuSans-38"/>
       <use xlink:href="#DejaVuSans-30" x="63.623047"/>
       <use xlink:href="#DejaVuSans-30" x="127.246094"/>
      </g>
     </g>
    </g>
    <g id="ytick_6">
     <g id="line2d_14">
      <path d="M 345.6 864.592581 
L 2488.32 864.592581 
" clip-path="url(#pca0c1e5052)" style="fill: none; stroke: #cccccc; stroke-linecap: round"/>
     </g>
     <g id="text_15">
      <!-- 1000 -->
      <g style="fill: #262626" transform="translate(308.105 868.771721)scale(0.11 -0.11)">
       <use xlink:href="#DejaVuSans-31"/>
       <use xlink:href="#DejaVuSans-30" x="63.623047"/>
       <use xlink:href="#DejaVuSans-30" x="127.246094"/>
       <use xlink:href="#DejaVuSans-30" x="190.869141"/>
      </g>
     </g>
    </g>
    <g id="ytick_7">
     <g id="line2d_15">
      <path d="M 345.6 682.925497 
L 2488.32 682.925497 
" clip-path="url(#pca0c1e5052)" style="fill: none; stroke: #cccccc; stroke-linecap: round"/>
     </g>
     <g id="text_16">
      <!-- 1200 -->
      <g style="fill: #262626" transform="translate(308.105 687.104637)scale(0.11 -0.11)">
       <use xlink:href="#DejaVuSans-31"/>
       <use xlink:href="#DejaVuSans-32" x="63.623047"/>
       <use xlink:href="#DejaVuSans-30" x="127.246094"/>
       <use xlink:href="#DejaVuSans-30" x="190.869141"/>
      </g>
     </g>
    </g>
    <g id="ytick_8">
     <g id="line2d_16">
      <path d="M 345.6 501.258413 
L 2488.32 501.258413 
" clip-path="url(#pca0c1e5052)" style="fill: none; stroke: #cccccc; stroke-linecap: round"/>
     </g>
     <g id="text_17">
      <!-- 1400 -->
      <g style="fill: #262626" transform="translate(308.105 505.437554)scale(0.11 -0.11)">
       <use xlink:href="#DejaVuSans-31"/>
       <use xlink:href="#DejaVuSans-34" x="63.623047"/>
       <use xlink:href="#DejaVuSans-30" x="127.246094"/>
       <use xlink:href="#DejaVuSans-30" x="190.869141"/>
      </g>
     </g>
    </g>
    <g id="ytick_9">
     <g id="line2d_17">
      <path d="M 345.6 319.591329 
L 2488.32 319.591329 
" clip-path="url(#pca0c1e5052)" style="fill: none; stroke: #cccccc; stroke-linecap: round"/>
     </g>
     <g id="text_18">
      <!-- 1600 -->
      <g style="fill: #262626" transform="translate(308.105 323.77047)scale(0.11 -0.11)">
       <use xlink:href="#DejaVuSans-31"/>
       <use xlink:href="#DejaVuSans-36" x="63.623047"/>
       <use xlink:href="#DejaVuSans-30" x="127.246094"/>
       <use xlink:href="#DejaVuSans-30" x="190.869141"/>
      </g>
     </g>
    </g>
    <g id="text_19">
     <!-- Bug Count -->
     <g style="fill: #262626" transform="translate(301.609375 1078.621125)rotate(-90)scale(0.12 -0.12)">
      <defs>
       <path id="DejaVuSans-42" d="M 1259 2228 
L 1259 519 
L 2272 519 
Q 2781 519 3026 730 
Q 3272 941 3272 1375 
Q 3272 1813 3026 2020 
Q 2781 2228 2272 2228 
L 1259 2228 
z
M 1259 4147 
L 1259 2741 
L 2194 2741 
Q 2656 2741 2882 2914 
Q 3109 3088 3109 3444 
Q 3109 3797 2882 3972 
Q 2656 4147 2194 4147 
L 1259 4147 
z
M 628 4666 
L 2241 4666 
Q 2963 4666 3353 4366 
Q 3744 4066 3744 3513 
Q 3744 3084 3544 2831 
Q 3344 2578 2956 2516 
Q 3422 2416 3680 2098 
Q 3938 1781 3938 1306 
Q 3938 681 3513 340 
Q 3088 0 2303 0 
L 628 0 
L 628 4666 
z
" transform="scale(0.015625)"/>
       <path id="DejaVuSans-67" d="M 2906 1791 
Q 2906 2416 2648 2759 
Q 2391 3103 1925 3103 
Q 1463 3103 1205 2759 
Q 947 2416 947 1791 
Q 947 1169 1205 825 
Q 1463 481 1925 481 
Q 2391 481 2648 825 
Q 2906 1169 2906 1791 
z
M 3481 434 
Q 3481 -459 3084 -895 
Q 2688 -1331 1869 -1331 
Q 1566 -1331 1297 -1286 
Q 1028 -1241 775 -1147 
L 775 -588 
Q 1028 -725 1275 -790 
Q 1522 -856 1778 -856 
Q 2344 -856 2625 -561 
Q 2906 -266 2906 331 
L 2906 616 
Q 2728 306 2450 153 
Q 2172 0 1784 0 
Q 1141 0 747 490 
Q 353 981 353 1791 
Q 353 2603 747 3093 
Q 1141 3584 1784 3584 
Q 2172 3584 2450 3431 
Q 2728 3278 2906 2969 
L 2906 3500 
L 3481 3500 
L 3481 434 
z
" transform="scale(0.015625)"/>
       <path id="DejaVuSans-43" d="M 4122 4306 
L 4122 3641 
Q 3803 3938 3442 4084 
Q 3081 4231 2675 4231 
Q 1875 4231 1450 3742 
Q 1025 3253 1025 2328 
Q 1025 1406 1450 917 
Q 1875 428 2675 428 
Q 3081 428 3442 575 
Q 3803 722 4122 1019 
L 4122 359 
Q 3791 134 3420 21 
Q 3050 -91 2638 -91 
Q 1578 -91 968 557 
Q 359 1206 359 2328 
Q 359 3453 968 4101 
Q 1578 4750 2638 4750 
Q 3056 4750 3426 4639 
Q 3797 4528 4122 4306 
z
" transform="scale(0.015625)"/>
      </defs>
      <use xlink:href="#DejaVuSans-42"/>
      <use xlink:href="#DejaVuSans-75" x="68.603516"/>
      <use xlink:href="#DejaVuSans-67" x="131.982422"/>
      <use xlink:href="#DejaVuSans-20" x="195.458984"/>
      <use xlink:href="#DejaVuSans-43" x="227.246094"/>
      <use xlink:href="#DejaVuSans-6f" x="297.070312"/>
      <use xlink:href="#DejaVuSans-75" x="358.251953"/>
      <use xlink:href="#DejaVuSans-6e" x="421.630859"/>
      <use xlink:href="#DejaVuSans-74" x="485.009766"/>
     </g>
    </g>
   </g>
   <g id="PolyCollection_1">
    <path d="M 734.439901 1768.386323 
L 734.439901 1768.386323 
L 764.262031 1764.450203 
L 794.08416 1757.486298 
L 795.439712 1754.761292 
L 796.795263 1752.036285 
L 813.061879 1749.311279 
L 829.328495 1746.586273 
L 830.684046 1743.861267 
L 864.57283 1741.13626 
L 924.217089 1738.411254 
L 1039.438952 1734.777912 
L 1040.794504 1732.052906 
L 1043.505606 1729.3279 
L 1051.638914 1726.602894 
L 1076.038838 1723.877887 
L 1089.594352 1721.152881 
L 1103.149865 1718.427875 
L 1104.505417 1715.702869 
L 1108.572071 1712.977862 
L 1109.927622 1706.624056 
L 1115.349827 1693.902819 
L 1116.705379 1691.177812 
L 1128.905341 1688.452806 
L 1134.327546 1685.7278 
L 1137.038649 1683.002793 
L 1139.749751 1680.277787 
L 1180.416292 1677.552781 
L 1180.416292 1677.552781 
L 1180.416292 1677.552781 
L 1139.749751 1680.277787 
L 1137.038649 1683.002793 
L 1134.327546 1685.7278 
L 1128.905341 1688.452806 
L 1116.705379 1691.177812 
L 1115.349827 1693.902819 
L 1109.927622 1702.804506 
L 1108.572071 1712.977862 
L 1104.505417 1715.702869 
L 1103.149865 1718.427875 
L 1089.594352 1721.152881 
L 1076.038838 1723.877887 
L 1051.638914 1726.602894 
L 1043.505606 1729.3279 
L 1040.794504 1732.052906 
L 1039.438952 1734.777912 
L 924.217089 1738.411254 
L 864.57283 1741.13626 
L 830.684046 1743.861267 
L 829.328495 1746.586273 
L 813.061879 1749.311279 
L 796.795263 1752.036285 
L 795.439712 1754.761292 
L 794.08416 1757.486298 
L 764.262031 1761.422418 
L 734.439901 1768.386323 
z
" clip-path="url(#pca0c1e5052)" style="fill: #4c72b0; fill-opacity: 0.2; stroke: #4c72b0; stroke-opacity: 0.2"/>
    <path d="M 1204.816216 1673.011104 
L 1204.816216 1673.011104 
L 1221.082832 1670.286098 
L 1225.149486 1664.836085 
L 1226.505037 1662.111079 
L 1229.21614 1661.202743 
L 1233.282794 1656.661066 
L 1249.54941 1653.027725 
L 1250.904961 1647.298224 
L 1252.260512 1637.283244 
L 1253.616064 1630.319339 
L 1254.971615 1626.685997 
L 1257.682718 1625.777662 
L 1259.038269 1622.14432 
L 1260.39382 1619.419314 
L 1260.39382 1618.738063 
L 1260.39382 1618.738063 
L 1259.038269 1622.14432 
L 1257.682718 1624.869327 
L 1254.971615 1626.685997 
L 1253.616064 1629.638088 
L 1252.260512 1634.255459 
L 1250.904961 1643.94437 
L 1249.54941 1653.027725 
L 1233.282794 1656.116065 
L 1229.21614 1660.294408 
L 1226.505037 1662.111079 
L 1225.149486 1664.836085 
L 1221.082832 1670.286098 
L 1204.816216 1673.011104 
z
" clip-path="url(#pca0c1e5052)" style="fill: #4c72b0; fill-opacity: 0.2; stroke: #4c72b0; stroke-opacity: 0.2"/>
    <path d="M 1265.816026 1613.969302 
L 1265.816026 1613.969302 
L 1265.816026 1613.969302 
L 1265.816026 1613.969302 
z
" clip-path="url(#pca0c1e5052)" style="fill: #4c72b0; fill-opacity: 0.2; stroke: #4c72b0; stroke-opacity: 0.2"/>
    <path d="M 1362.060171 1609.427625 
L 1362.060171 1609.427625 
L 1425.771084 1606.702618 
L 1431.193289 1603.977612 
L 1451.526559 1601.252606 
L 1458.304316 1598.073432 
L 1458.304316 1596.256761 
L 1458.304316 1596.256761 
L 1451.526559 1601.252606 
L 1431.193289 1603.977612 
L 1425.771084 1606.702618 
L 1362.060171 1609.427625 
z
" clip-path="url(#pca0c1e5052)" style="fill: #4c72b0; fill-opacity: 0.2; stroke: #4c72b0; stroke-opacity: 0.2"/>
    <path d="M 1474.570932 1591.260916 
L 1474.570932 1593.304671 
L 1573.52618 1588.53591 
L 1573.52618 1588.53591 
L 1573.52618 1588.53591 
L 1474.570932 1591.260916 
z
" clip-path="url(#pca0c1e5052)" style="fill: #4c72b0; fill-opacity: 0.2; stroke: #4c72b0; stroke-opacity: 0.2"/>
    <path d="M 1660.281465 1584.902568 
L 1660.281465 1584.902568 
L 1664.348119 1581.723394 
L 1677.903633 1576.727549 
L 1728.059032 1574.002543 
L 1730.770135 1571.277537 
L 1738.903443 1568.552531 
L 1766.01447 1565.827524 
L 1775.503329 1562.64835 
L 1812.103215 1557.652506 
L 1818.880972 1554.473332 
L 1820.236523 1549.477487 
L 1828.369831 1545.541367 
L 1828.369831 1542.513582 
L 1828.369831 1542.513582 
L 1820.236523 1549.477487 
L 1818.880972 1552.656661 
L 1812.103215 1557.652506 
L 1775.503329 1560.83168 
L 1766.01447 1565.827524 
L 1738.903443 1568.552531 
L 1730.770135 1571.277537 
L 1728.059032 1574.002543 
L 1677.903633 1576.727549 
L 1664.348119 1579.906723 
L 1660.281465 1584.902568 
z
" clip-path="url(#pca0c1e5052)" style="fill: #4c72b0; fill-opacity: 0.2; stroke: #4c72b0; stroke-opacity: 0.2"/>
    <path d="M 1852.769755 1537.669126 
L 1852.769755 1537.669126 
L 1854.125307 1534.94412 
L 1866.325269 1532.219114 
L 1889.369641 1529.494108 
L 1912.414014 1526.314934 
L 1913.769565 1520.864921 
L 1915.125117 1515.869076 
L 1917.836219 1513.14407 
L 1920.547322 1510.419064 
L 1927.325079 1506.482944 
L 1961.213862 1499.519039 
L 1961.213862 1499.519039 
L 1961.213862 1499.519039 
L 1927.325079 1503.455159 
L 1920.547322 1510.419064 
L 1917.836219 1513.14407 
L 1915.125117 1515.869076 
L 1913.769565 1519.04825 
L 1912.414014 1524.498263 
L 1889.369641 1529.494108 
L 1866.325269 1532.219114 
L 1854.125307 1534.94412 
L 1852.769755 1537.669126 
z
" clip-path="url(#pca0c1e5052)" style="fill: #4c72b0; fill-opacity: 0.2; stroke: #4c72b0; stroke-opacity: 0.2"/>
    <path d="M 2037.124737 1493.160691 
L 2037.124737 1493.160691 
L 2100.83565 1490.435685 
L 2174.035422 1486.802343 
L 2178.102076 1484.077337 
L 2183.524282 1478.627324 
L 2183.524282 1478.627324 
L 2183.524282 1478.627324 
L 2178.102076 1484.077337 
L 2174.035422 1486.802343 
L 2100.83565 1490.435685 
L 2037.124737 1493.160691 
z
" clip-path="url(#pca0c1e5052)" style="fill: #4c72b0; fill-opacity: 0.2; stroke: #4c72b0; stroke-opacity: 0.2"/>
    <path d="M 2248.590746 1472.723144 
L 2248.590746 1474.539815 
L 2271.635119 1469.54397 
L 2291.968389 1465.910628 
L 2291.968389 1465.910628 
L 2291.968389 1465.910628 
L 2271.635119 1469.54397 
L 2248.590746 1472.723144 
z
" clip-path="url(#pca0c1e5052)" style="fill: #4c72b0; fill-opacity: 0.2; stroke: #4c72b0; stroke-opacity: 0.2"/>
   </g>
   <g id="PolyCollection_2">
    <defs>
     <path id="m0cad789cb5" d="M 502.640623 -307.635905 
L 502.640623 -304.60812 
L 503.996174 -312.026193 
L 508.062828 -317.022038 
L 513.485033 -339.062796 
L 514.840585 -373.641612 
L 533.818303 -399.317227 
L 535.173855 -411.488921 
L 544.662714 -415.122263 
L 550.084919 -419.135159 
L 551.440471 -446.308025 
L 556.862676 -474.466844 
L 558.218227 -492.659013 
L 559.573779 -544.374468 
L 560.92933 -605.408679 
L 562.284881 -642.172476 
L 570.418189 -658.556155 
L 581.2626 -661.281161 
L 585.329254 -666.50409 
L 593.462562 -681.172572 
L 596.173665 -693.527069 
L 597.529216 -698.977081 
L 607.018076 -706.697932 
L 608.373627 -715.327119 
L 617.862486 -721.231299 
L 644.973513 -724.410473 
L 647.684616 -731.132155 
L 649.040167 -739.398008 
L 650.395718 -743.031349 
L 651.75127 -745.756355 
L 681.573399 -748.935529 
L 684.284502 -754.385542 
L 685.640053 -764.320461 
L 686.995604 -774.823089 
L 688.351156 -779.271662 
L 693.773361 -787.085617 
L 711.395529 -792.081462 
L 715.462183 -794.806468 
L 716.817734 -797.531474 
L 718.173285 -800.256481 
L 719.528837 -803.500536 
L 720.884388 -814.285217 
L 722.239939 -826.72797 
L 723.595491 -832.956556 
L 729.017696 -835.681562 
L 737.151004 -838.406568 
L 738.506555 -841.131574 
L 745.284312 -844.310748 
L 756.128723 -849.306593 
L 757.484274 -852.939935 
L 758.839825 -855.664941 
L 760.195377 -863.486718 
L 761.550928 -874.739985 
L 765.617582 -878.373327 
L 766.973133 -881.617382 
L 768.328685 -887.456681 
L 769.684236 -890.635855 
L 779.173095 -896.085867 
L 781.884198 -901.990048 
L 783.239749 -904.715054 
L 784.595301 -908.478158 
L 795.439712 -913.798408 
L 798.150814 -916.523414 
L 802.217468 -920.459534 
L 803.57302 -927.423439 
L 807.639674 -930.148446 
L 810.350776 -932.873452 
L 813.061879 -935.598458 
L 815.772982 -938.323464 
L 817.128533 -941.956806 
L 821.195187 -943.773477 
L 822.550738 -946.498483 
L 823.90629 -951.948496 
L 825.261841 -962.329472 
L 840.172906 -968.601312 
L 842.884008 -976.473552 
L 844.23956 -980.924395 
L 855.08397 -989.579534 
L 863.217278 -994.64026 
L 865.928381 -997.365267 
L 880.839446 -1000.090273 
L 905.23937 -1003.853377 
L 925.57264 -1009.627795 
L 926.928191 -1014.62364 
L 928.283743 -1017.348646 
L 936.417051 -1025.42805 
L 937.772602 -1037.332025 
L 939.128153 -1040.057031 
L 941.839256 -1043.236205 
L 944.550359 -1048.23205 
L 948.617013 -1051.476105 
L 952.683667 -1057.315404 
L 954.039218 -1060.040411 
L 956.750321 -1063.976531 
L 958.105872 -1075.300446 
L 963.528077 -1084.565467 
L 964.883629 -1087.290473 
L 967.594731 -1090.015479 
L 970.305834 -1092.740486 
L 971.661385 -1095.102158 
L 977.083591 -1100.007169 
L 979.794693 -1103.251224 
L 981.150245 -1109.090523 
L 985.216899 -1111.815529 
L 987.928002 -1116.852662 
L 991.994656 -1124.532225 
L 993.350207 -1127.257232 
L 997.416861 -1129.982238 
L 1002.839066 -1132.707244 
L 1005.550169 -1139.969386 
L 1008.261272 -1149.511449 
L 1010.972374 -1154.507294 
L 1012.327926 -1157.2323 
L 1013.683477 -1159.957307 
L 1028.594542 -1162.682313 
L 1034.016747 -1165.407319 
L 1035.372298 -1169.040661 
L 1043.505606 -1171.765667 
L 1046.216709 -1174.490673 
L 1048.927812 -1177.21568 
L 1050.283363 -1179.940686 
L 1051.638914 -1183.11986 
L 1054.350017 -1189.153802 
L 1055.705568 -1194.474053 
L 1065.194428 -1197.199059 
L 1069.261082 -1200.378233 
L 1080.105493 -1205.374078 
L 1086.883249 -1208.099084 
L 1089.594352 -1211.732426 
L 1090.949903 -1214.457432 
L 1113.994276 -1217.182438 
L 1119.416481 -1223.121554 
L 1127.549789 -1233.078308 
L 1128.905341 -1238.982488 
L 1147.883059 -1243.005116 
L 1149.238611 -1248.065842 
L 1156.016367 -1252.153352 
L 1196.682908 -1258.057532 
L 1217.016178 -1261.690874 
L 1219.72728 -1264.41588 
L 1222.438383 -1267.140886 
L 1223.793934 -1270.774228 
L 1225.149486 -1274.407569 
L 1226.505037 -1277.132576 
L 1227.860588 -1283.490924 
L 1230.571691 -1288.940936 
L 1347.149106 -1294.693727 
L 1356.637965 -1299.840961 
L 1359.349068 -1302.565967 
L 1362.060171 -1305.745141 
L 1364.771273 -1310.740986 
L 1368.837928 -1313.465992 
L 1375.615684 -1317.099334 
L 1379.682338 -1319.82434 
L 1395.948954 -1323.457682 
L 1398.660057 -1326.182688 
L 1405.437814 -1330.906033 
L 1408.148916 -1337.991049 
L 1409.504468 -1340.716055 
L 1414.926673 -1343.441061 
L 1429.837738 -1347.074403 
L 1431.193289 -1349.799409 
L 1432.54884 -1354.795254 
L 1436.615494 -1360.050623 
L 1440.682148 -1368.874453 
L 1450.171008 -1373.41613 
L 1451.526559 -1376.141136 
L 1452.88211 -1379.32031 
L 1577.592834 -1384.316155 
L 1578.948385 -1387.041161 
L 1606.059412 -1390.674503 
L 1607.414963 -1393.399509 
L 1635.881541 -1396.578683 
L 1641.303746 -1401.574528 
L 1642.659298 -1404.299534 
L 1644.014849 -1407.024541 
L 1645.3704 -1408.841212 
L 1661.637017 -1412.474553 
L 1675.19253 -1415.199559 
L 1677.903633 -1417.924566 
L 1681.970287 -1420.649572 
L 1683.325838 -1423.374578 
L 1686.036941 -1426.099584 
L 1722.636827 -1428.824591 
L 1742.970097 -1430.414178 
L 1744.325648 -1435.637106 
L 1747.036751 -1440.632951 
L 1749.747853 -1443.357957 
L 1753.814507 -1446.537131 
L 1759.236713 -1457.134378 
L 1760.592264 -1467.883014 
L 1761.947816 -1470.60802 
L 1763.303367 -1473.333026 
L 1764.658918 -1476.058033 
L 1779.569983 -1478.783039 
L 1780.925534 -1481.508045 
L 1783.636637 -1484.233051 
L 1787.703291 -1486.958058 
L 1794.481048 -1490.137232 
L 1798.547702 -1495.587244 
L 1799.903253 -1500.583089 
L 1802.614356 -1503.308095 
L 1803.969907 -1506.487269 
L 1813.458766 -1511.937282 
L 1814.814318 -1516.933126 
L 1816.169869 -1519.658133 
L 1818.880972 -1524.653977 
L 1820.236523 -1534.494278 
L 1822.947626 -1541.458183 
L 1824.303177 -1545.091524 
L 1829.725382 -1547.816531 
L 1832.436485 -1550.541537 
L 1833.792036 -1554.174879 
L 1835.147588 -1556.899885 
L 1877.169679 -1559.624891 
L 1883.947436 -1563.647519 
L 1896.147398 -1568.708245 
L 1911.058463 -1574.453467 
L 1917.836219 -1580.516606 
L 1919.191771 -1583.241612 
L 1924.613976 -1585.966618 
L 1925.969527 -1588.691625 
L 1927.325079 -1592.324966 
L 1944.947246 -1595.049972 
L 1963.924965 -1597.774979 
L 1974.769376 -1600.954153 
L 1976.124927 -1606.404165 
L 1984.258235 -1612.308345 
L 2003.235954 -1615.033352 
L 2014.080364 -1617.758358 
L 2050.680251 -1620.483364 
L 2066.946867 -1623.20837 
L 2075.080175 -1625.933377 
L 2079.146829 -1628.658383 
L 2084.569034 -1632.291725 
L 2096.768996 -1635.925066 
L 2098.124547 -1638.650073 
L 2102.191201 -1642.672701 
L 2110.324509 -1647.733427 
L 2111.680061 -1651.366768 
L 2140.146639 -1654.091775 
L 2141.50219 -1658.716028 
L 2142.857742 -1666.808471 
L 2156.413255 -1670.441812 
L 2157.768806 -1674.075154 
L 2159.124358 -1676.80016 
L 2161.83546 -1679.525166 
L 2211.99086 -1682.250173 
L 2256.724054 -1684.975179 
L 2259.435157 -1688.911299 
L 2260.790708 -1695.875204 
L 2267.568465 -1699.962713 
L 2271.635119 -1707.380786 
L 2272.99067 -1714.041912 
L 2277.057324 -1718.064541 
L 2282.479529 -1723.125267 
L 2283.835081 -1726.758608 
L 2291.968389 -1729.483615 
L 2293.32394 -1732.208621 
L 2329.923826 -1734.933627 
L 2333.99048 -1738.566969 
L 2339.412686 -1741.291975 
L 2377.368123 -1744.016981 
L 2380.079226 -1746.741987 
L 2388.212534 -1749.466994 
L 2390.923636 -1752.192 
L 2390.923636 -1752.192 
L 2390.923636 -1752.192 
L 2388.212534 -1749.466994 
L 2380.079226 -1746.741987 
L 2377.368123 -1744.016981 
L 2339.412686 -1741.291975 
L 2333.99048 -1738.566969 
L 2329.923826 -1734.933627 
L 2293.32394 -1732.208621 
L 2291.968389 -1729.483615 
L 2283.835081 -1726.758608 
L 2282.479529 -1723.125267 
L 2277.057324 -1719.621687 
L 2272.99067 -1714.041912 
L 2271.635119 -1710.105792 
L 2267.568465 -1702.68772 
L 2260.790708 -1695.875204 
L 2259.435157 -1691.939084 
L 2256.724054 -1684.975179 
L 2211.99086 -1682.250173 
L 2161.83546 -1679.525166 
L 2159.124358 -1676.80016 
L 2157.768806 -1674.075154 
L 2156.413255 -1670.441812 
L 2142.857742 -1666.808471 
L 2141.50219 -1661.855978 
L 2140.146639 -1654.091775 
L 2111.680061 -1651.366768 
L 2110.324509 -1647.733427 
L 2102.191201 -1644.619134 
L 2098.124547 -1638.650073 
L 2096.768996 -1635.925066 
L 2084.569034 -1632.291725 
L 2079.146829 -1628.658383 
L 2075.080175 -1625.933377 
L 2066.946867 -1623.20837 
L 2050.680251 -1620.483364 
L 2014.080364 -1617.758358 
L 2003.235954 -1615.033352 
L 1984.258235 -1612.308345 
L 1976.124927 -1608.220836 
L 1974.769376 -1602.770824 
L 1963.924965 -1597.774979 
L 1944.947246 -1595.049972 
L 1927.325079 -1592.324966 
L 1925.969527 -1588.691625 
L 1924.613976 -1585.966618 
L 1919.191771 -1583.241612 
L 1917.836219 -1580.516606 
L 1911.058463 -1575.974929 
L 1896.147398 -1568.708245 
L 1883.947436 -1565.204666 
L 1877.169679 -1559.624891 
L 1835.147588 -1556.899885 
L 1833.792036 -1554.174879 
L 1832.436485 -1550.541537 
L 1829.725382 -1547.816531 
L 1824.303177 -1545.091524 
L 1822.947626 -1541.458183 
L 1820.236523 -1537.522063 
L 1818.880972 -1528.287319 
L 1816.169869 -1519.658133 
L 1814.814318 -1516.933126 
L 1813.458766 -1513.753952 
L 1803.969907 -1508.30394 
L 1802.614356 -1503.308095 
L 1799.903253 -1500.583089 
L 1798.547702 -1497.403915 
L 1794.481048 -1491.953902 
L 1787.703291 -1486.958058 
L 1783.636637 -1484.233051 
L 1780.925534 -1481.508045 
L 1779.569983 -1478.783039 
L 1764.658918 -1476.058033 
L 1763.303367 -1473.333026 
L 1761.947816 -1470.60802 
L 1760.592264 -1467.883014 
L 1759.236713 -1460.61633 
L 1753.814507 -1448.353802 
L 1749.747853 -1443.357957 
L 1747.036751 -1440.632951 
L 1744.325648 -1437.453777 
L 1742.970097 -1432.457932 
L 1722.636827 -1428.824591 
L 1686.036941 -1426.099584 
L 1683.325838 -1423.374578 
L 1681.970287 -1420.649572 
L 1677.903633 -1417.924566 
L 1675.19253 -1415.199559 
L 1661.637017 -1412.474553 
L 1645.3704 -1408.841212 
L 1644.014849 -1407.024541 
L 1642.659298 -1404.299534 
L 1641.303746 -1401.574528 
L 1635.881541 -1398.395354 
L 1607.414963 -1393.399509 
L 1606.059412 -1390.674503 
L 1578.948385 -1387.041161 
L 1577.592834 -1384.316155 
L 1452.88211 -1381.136981 
L 1451.526559 -1376.141136 
L 1450.171008 -1373.41613 
L 1440.682148 -1370.009872 
L 1436.615494 -1362.516105 
L 1432.54884 -1356.611925 
L 1431.193289 -1351.252746 
L 1429.837738 -1347.074403 
L 1414.926673 -1343.441061 
L 1409.504468 -1340.716055 
L 1408.148916 -1337.991049 
L 1405.437814 -1333.631039 
L 1398.660057 -1326.182688 
L 1395.948954 -1323.457682 
L 1379.682338 -1319.82434 
L 1375.615684 -1317.099334 
L 1368.837928 -1313.465992 
L 1364.771273 -1310.740986 
L 1362.060171 -1307.561812 
L 1359.349068 -1302.565967 
L 1356.637965 -1299.840961 
L 1347.149106 -1296.20762 
L 1230.571691 -1288.940936 
L 1227.860588 -1285.125927 
L 1226.505037 -1277.132576 
L 1225.149486 -1274.407569 
L 1223.793934 -1270.774228 
L 1222.438383 -1267.140886 
L 1219.72728 -1264.41588 
L 1217.016178 -1261.690874 
L 1196.682908 -1258.057532 
L 1156.016367 -1254.878358 
L 1149.238611 -1248.065842 
L 1147.883059 -1244.951549 
L 1128.905341 -1238.982488 
L 1127.549789 -1235.803314 
L 1119.416481 -1227.523487 
L 1113.994276 -1217.182438 
L 1090.949903 -1214.457432 
L 1089.594352 -1211.732426 
L 1086.883249 -1208.099084 
L 1080.105493 -1205.374078 
L 1069.261082 -1202.194904 
L 1065.194428 -1197.199059 
L 1055.705568 -1194.474053 
L 1054.350017 -1191.229997 
L 1051.638914 -1184.936531 
L 1050.283363 -1179.940686 
L 1048.927812 -1177.21568 
L 1046.216709 -1174.490673 
L 1043.505606 -1171.765667 
L 1035.372298 -1169.040661 
L 1034.016747 -1165.407319 
L 1028.594542 -1162.682313 
L 1013.683477 -1159.957307 
L 1012.327926 -1157.2323 
L 1010.972374 -1154.507294 
L 1008.261272 -1151.32812 
L 1005.550169 -1143.062268 
L 1002.839066 -1132.707244 
L 997.416861 -1129.982238 
L 993.350207 -1127.257232 
L 991.994656 -1124.532225 
L 987.928002 -1120.1557 
L 985.216899 -1111.815529 
L 981.150245 -1109.090523 
L 979.794693 -1105.846468 
L 977.083591 -1100.007169 
L 971.661385 -1097.282163 
L 970.305834 -1092.740486 
L 967.594731 -1090.015479 
L 964.883629 -1087.290473 
L 963.528077 -1084.565467 
L 958.105872 -1079.297121 
L 956.750321 -1067.004315 
L 954.039218 -1060.040411 
L 952.683667 -1057.315404 
L 948.617013 -1054.071349 
L 944.550359 -1048.23205 
L 941.839256 -1045.052876 
L 939.128153 -1040.057031 
L 937.772602 -1037.332025 
L 936.417051 -1029.58727 
L 928.283743 -1017.348646 
L 926.928191 -1014.62364 
L 925.57264 -1011.444466 
L 905.23937 -1005.929572 
L 880.839446 -1000.090273 
L 865.928381 -997.365267 
L 863.217278 -994.64026 
L 855.08397 -991.525967 
L 844.23956 -984.194403 
L 842.884008 -976.473552 
L 840.172906 -971.629096 
L 825.261841 -964.275905 
L 823.90629 -955.581837 
L 822.550738 -946.498483 
L 821.195187 -943.773477 
L 817.128533 -941.956806 
L 815.772982 -938.323464 
L 813.061879 -935.598458 
L 810.350776 -932.873452 
L 807.639674 -930.148446 
L 803.57302 -927.423439 
L 802.217468 -923.487319 
L 798.150814 -916.523414 
L 795.439712 -913.798408 
L 784.595301 -910.554353 
L 783.239749 -904.715054 
L 781.884198 -901.990048 
L 779.173095 -897.902538 
L 769.684236 -892.452526 
L 768.328685 -887.456681 
L 766.973133 -884.212626 
L 765.617582 -878.373327 
L 761.550928 -874.739985 
L 760.195377 -867.574228 
L 758.839825 -855.664941 
L 757.484274 -852.939935 
L 756.128723 -849.306593 
L 745.284312 -846.127419 
L 738.506555 -841.131574 
L 737.151004 -838.406568 
L 729.017696 -835.681562 
L 723.595491 -832.956556 
L 722.239939 -828.804165 
L 720.884388 -818.675504 
L 719.528837 -806.09578 
L 718.173285 -800.256481 
L 716.817734 -797.531474 
L 715.462183 -794.806468 
L 711.395529 -792.081462 
L 693.773361 -788.902288 
L 688.351156 -782.54394 
L 686.995604 -774.823089 
L 685.640053 -767.84026 
L 684.284502 -756.202213 
L 681.573399 -750.7522 
L 651.75127 -745.756355 
L 650.395718 -743.031349 
L 649.040167 -739.398008 
L 647.684616 -734.402163 
L 644.973513 -726.227144 
L 617.862486 -721.231299 
L 608.373627 -717.14379 
L 607.018076 -710.331274 
L 597.529216 -700.793752 
L 596.173665 -695.34374 
L 593.462562 -685.580269 
L 585.329254 -669.683264 
L 581.2626 -661.281161 
L 570.418189 -658.556155 
L 562.284881 -647.791539 
L 560.92933 -612.574674 
L 559.573779 -553.190929 
L 558.218227 -498.716647 
L 556.862676 -477.494628 
L 551.440471 -454.56799 
L 550.084919 -421.091324 
L 544.662714 -415.122263 
L 535.173855 -411.488921 
L 533.818303 -403.858904 
L 514.840585 -379.772876 
L 513.485033 -344.574879 
L 508.062828 -317.022038 
L 503.996174 -313.842864 
L 502.640623 -307.635905 
z
" style="stroke: #dd8452; stroke-opacity: 0.2"/>
    </defs>
    <g clip-path="url(#pca0c1e5052)">
     <use xlink:href="#m0cad789cb5" x="0" y="2073.6" style="fill: #dd8452; fill-opacity: 0.2; stroke: #dd8452; stroke-opacity: 0.2"/>
    </g>
   </g>
   <g id="PolyCollection_3">
    <path d="M 503.996174 1766.266874 
L 503.996174 1768.99188 
L 512.129482 1758.5763 
L 513.485033 1747.948776 
L 522.973893 1742.952931 
L 524.329444 1732.701717 
L 525.684995 1720.698713 
L 529.751649 1715.702869 
L 536.529406 1712.977862 
L 539.240509 1710.252856 
L 547.373817 1706.619514 
L 548.729368 1700.018944 
L 550.084919 1680.751299 
L 554.151573 1665.290253 
L 558.218227 1657.274193 
L 560.92933 1648.875334 
L 562.284881 1641.673532 
L 563.640433 1619.96854 
L 564.995984 1591.488 
L 566.351535 1581.269227 
L 570.418189 1575.681217 
L 574.484843 1566.73586 
L 577.195946 1563.102518 
L 579.907049 1559.923344 
L 585.329254 1554.927499 
L 589.395908 1552.202493 
L 590.751459 1548.179865 
L 592.107011 1540.395879 
L 594.818113 1530.402443 
L 596.173665 1527.677437 
L 604.306973 1524.952431 
L 605.662524 1521.01631 
L 611.08473 1513.14407 
L 612.440281 1510.419064 
L 616.506935 1506.785722 
L 621.92914 1504.060716 
L 628.706897 1496.794033 
L 630.062448 1493.160691 
L 649.040167 1489.527349 
L 651.75127 1486.802343 
L 653.106821 1484.077337 
L 655.817924 1481.35233 
L 657.173475 1478.627324 
L 662.59568 1475.902318 
L 666.662334 1473.177312 
L 684.284502 1469.54397 
L 685.640053 1459.742463 
L 686.995604 1444.110578 
L 692.41781 1441.385572 
L 693.773361 1438.660566 
L 699.195567 1435.935559 
L 703.262221 1433.210553 
L 723.595491 1429.577212 
L 726.306593 1426.852205 
L 749.350966 1424.127199 
L 750.706517 1421.402193 
L 752.062069 1418.677186 
L 753.41762 1415.043845 
L 754.773171 1411.410503 
L 756.128723 1408.685497 
L 757.484274 1405.506323 
L 758.839825 1399.602143 
L 764.262031 1395.666023 
L 768.328685 1384.387524 
L 772.395339 1374.168751 
L 773.75089 1370.535409 
L 783.239749 1367.810403 
L 798.150814 1365.085397 
L 808.995225 1362.36039 
L 811.706328 1359.635384 
L 814.41743 1356.910378 
L 815.772982 1353.277036 
L 817.128533 1350.097862 
L 826.617392 1345.102018 
L 827.972944 1341.014508 
L 846.950662 1334.65616 
L 852.372868 1329.660315 
L 853.728419 1326.935309 
L 863.217278 1324.210303 
L 865.928381 1321.485297 
L 871.350586 1318.76029 
L 894.394959 1315.126949 
L 898.461613 1312.401942 
L 902.528267 1309.676936 
L 903.883819 1306.95193 
L 905.23937 1303.318588 
L 922.861537 1299.685247 
L 949.972564 1296.051905 
L 958.105872 1293.326899 
L 959.461423 1283.675835 
L 975.728039 1268.801842 
L 977.083591 1265.168501 
L 981.150245 1249.751348 
L 989.283553 1228.380916 
L 990.639104 1222.476736 
L 997.416861 1219.297562 
L 998.772412 1214.301717 
L 1001.483515 1210.668375 
L 1004.194618 1206.732255 
L 1005.550169 1198.860015 
L 1006.90572 1194.136671 
L 1008.261272 1187.051655 
L 1009.616823 1183.872481 
L 1010.972374 1177.9683 
L 1050.283363 1175.243294 
L 1058.416671 1171.609952 
L 1066.549979 1168.430778 
L 1071.972184 1163.434934 
L 1077.39439 1160.709927 
L 1078.749941 1157.530753 
L 1081.461044 1152.534909 
L 1088.238801 1149.809902 
L 1093.661006 1147.084896 
L 1095.016557 1143.917076 
L 1096.372109 1138.909877 
L 1097.72766 1136.184871 
L 1100.438763 1132.551529 
L 1101.794314 1129.826523 
L 1104.505417 1127.101517 
L 1139.749751 1123.468175 
L 1141.105303 1120.743169 
L 1179.06074 1118.018163 
L 1187.194048 1115.293156 
L 1237.349448 1111.659815 
L 1238.704999 1108.480641 
L 1252.260512 1103.484796 
L 1276.660437 1099.851454 
L 1278.015988 1097.126448 
L 1292.927053 1094.401442 
L 1305.127015 1091.676436 
L 1360.704619 1088.043094 
L 1375.615684 1083.955584 
L 1379.682338 1078.051404 
L 1386.460095 1075.326398 
L 1429.837738 1070.289265 
L 1436.615494 1062.609702 
L 1439.326597 1059.884696 
L 1455.593213 1055.948576 
L 1458.304316 1045.351329 
L 1461.015418 1042.626323 
L 1462.37097 1038.690203 
L 1471.859829 1031.726298 
L 1473.215381 1029.001292 
L 1494.904202 1026.276285 
L 1524.726331 1022.642944 
L 1526.081883 1019.917937 
L 1532.859639 1016.738763 
L 1547.770704 1011.742919 
L 1550.481807 1008.109577 
L 1564.03732 1005.384571 
L 1565.392872 1002.659564 
L 1566.748423 999.934558 
L 1577.592834 996.301217 
L 1622.326028 993.57621 
L 1626.392682 990.851204 
L 1629.103784 988.126198 
L 1646.725952 984.492856 
L 1668.414773 981.76785 
L 1668.414773 981.76785 
L 1668.414773 981.76785 
L 1646.725952 984.492856 
L 1629.103784 988.126198 
L 1626.392682 990.851204 
L 1622.326028 993.57621 
L 1577.592834 996.301217 
L 1566.748423 999.934558 
L 1565.392872 1002.659564 
L 1564.03732 1005.384571 
L 1550.481807 1008.109577 
L 1547.770704 1011.742919 
L 1532.859639 1014.922093 
L 1526.081883 1019.917937 
L 1524.726331 1022.642944 
L 1494.904202 1026.276285 
L 1473.215381 1029.001292 
L 1471.859829 1031.726298 
L 1462.37097 1035.662418 
L 1461.015418 1042.626323 
L 1458.304316 1045.351329 
L 1455.593213 1052.920791 
L 1439.326597 1059.884696 
L 1436.615494 1062.609702 
L 1429.837738 1066.986227 
L 1386.460095 1075.326398 
L 1379.682338 1078.051404 
L 1375.615684 1081.230578 
L 1360.704619 1088.043094 
L 1305.127015 1091.676436 
L 1292.927053 1094.401442 
L 1278.015988 1097.126448 
L 1276.660437 1099.851454 
L 1252.260512 1103.484796 
L 1238.704999 1106.66397 
L 1237.349448 1111.659815 
L 1187.194048 1115.293156 
L 1179.06074 1118.018163 
L 1141.105303 1120.743169 
L 1139.749751 1123.468175 
L 1104.505417 1127.101517 
L 1101.794314 1129.826523 
L 1100.438763 1132.551529 
L 1097.72766 1136.184871 
L 1096.372109 1138.909877 
L 1095.016557 1142.089051 
L 1093.661006 1147.084896 
L 1088.238801 1149.809902 
L 1081.461044 1152.534909 
L 1078.749941 1155.714083 
L 1077.39439 1160.709927 
L 1071.972184 1163.434934 
L 1066.549979 1166.614108 
L 1058.416671 1171.609952 
L 1050.283363 1175.243294 
L 1010.972374 1177.9683 
L 1009.616823 1182.05581 
L 1008.261272 1187.051655 
L 1006.90572 1191.411665 
L 1005.550169 1198.860015 
L 1004.194618 1203.704471 
L 1001.483515 1210.668375 
L 998.772412 1214.301717 
L 997.416861 1217.480891 
L 990.639104 1222.476736 
L 989.283553 1226.564245 
L 981.150245 1243.563006 
L 977.083591 1265.168501 
L 975.728039 1268.801842 
L 959.461423 1278.67999 
L 958.105872 1293.326899 
L 949.972564 1296.051905 
L 922.861537 1299.685247 
L 905.23937 1303.318588 
L 903.883819 1306.95193 
L 902.528267 1309.676936 
L 898.461613 1312.401942 
L 894.394959 1315.126949 
L 871.350586 1318.76029 
L 865.928381 1321.485297 
L 863.217278 1324.210303 
L 853.728419 1326.935309 
L 852.372868 1329.660315 
L 846.950662 1332.839489 
L 827.972944 1338.74367 
L 826.617392 1345.102018 
L 817.128533 1348.281191 
L 815.772982 1353.277036 
L 814.41743 1356.910378 
L 811.706328 1359.635384 
L 808.995225 1362.36039 
L 798.150814 1365.085397 
L 783.239749 1367.810403 
L 773.75089 1370.535409 
L 772.395339 1374.168751 
L 768.328685 1380.300015 
L 764.262031 1392.638238 
L 758.839825 1399.602143 
L 757.484274 1403.689652 
L 756.128723 1408.685497 
L 754.773171 1411.410503 
L 753.41762 1415.043845 
L 752.062069 1418.677186 
L 750.706517 1421.402193 
L 749.350966 1424.127199 
L 726.306593 1426.852205 
L 723.595491 1429.577212 
L 703.262221 1433.210553 
L 699.195567 1435.935559 
L 693.773361 1438.660566 
L 692.41781 1441.385572 
L 686.995604 1444.110578 
L 685.640053 1454.594283 
L 684.284502 1469.54397 
L 666.662334 1473.177312 
L 662.59568 1475.902318 
L 657.173475 1478.627324 
L 655.817924 1481.35233 
L 653.106821 1484.077337 
L 651.75127 1486.802343 
L 649.040167 1489.527349 
L 630.062448 1493.160691 
L 628.706897 1496.794033 
L 621.92914 1504.060716 
L 616.506935 1506.785722 
L 612.440281 1510.419064 
L 611.08473 1513.14407 
L 605.662524 1517.988526 
L 604.306973 1524.952431 
L 596.173665 1527.677437 
L 594.818113 1530.402443 
L 592.107011 1536.551175 
L 590.751459 1546.233432 
L 589.395908 1552.202493 
L 585.329254 1554.927499 
L 579.907049 1558.106673 
L 577.195946 1563.102518 
L 574.484843 1566.73586 
L 570.418189 1572.185872 
L 566.351535 1581.269227 
L 564.995984 1587.627574 
L 563.640433 1612.870849 
L 562.284881 1638.948526 
L 560.92933 1646.28009 
L 558.218227 1653.93606 
L 554.151573 1663.473582 
L 550.084919 1676.072531 
L 548.729368 1696.143379 
L 547.373817 1706.619514 
L 539.240509 1710.252856 
L 536.529406 1712.977862 
L 529.751649 1715.702869 
L 525.684995 1718.882043 
L 524.329444 1728.679089 
L 522.973893 1742.952931 
L 513.485033 1746.132105 
L 512.129482 1754.761292 
L 503.996174 1766.266874 
z
" clip-path="url(#pca0c1e5052)" style="fill: #55a868; fill-opacity: 0.2; stroke: #55a868; stroke-opacity: 0.2"/>
    <path d="M 1675.19253 978.134508 
L 1675.19253 978.134508 
L 1680.614735 974.11188 
L 1698.236903 969.051154 
L 1703.659108 966.326148 
L 1715.85907 963.601141 
L 1719.925724 960.876135 
L 1721.281275 958.151129 
L 1742.970097 955.426123 
L 1748.392302 952.246949 
L 1752.458956 947.251104 
L 1755.170059 944.526098 
L 1760.592264 941.801091 
L 1763.303367 938.621917 
L 1802.614356 933.626073 
L 1806.68101 930.382018 
L 1810.747664 923.634383 
L 1812.103215 920.455209 
L 1813.458766 915.459364 
L 1824.303177 912.28019 
L 1827.01428 907.284345 
L 1833.792036 904.559339 
L 1841.925344 901.834333 
L 1843.280896 899.109327 
L 1844.636447 895.930153 
L 1848.703101 890.934308 
L 1855.480858 888.209302 
L 1930.036181 885.030128 
L 1932.747284 880.034283 
L 1955.791657 877.309277 
L 1957.147208 871.859264 
L 1961.213862 869.134258 
L 1972.058273 865.500916 
L 1974.769376 862.321742 
L 1999.1693 856.417562 
L 2007.302608 853.692556 
L 2058.813559 850.967549 
L 2125.235574 848.242543 
L 2133.368882 844.306423 
L 2136.079985 837.342518 
L 2140.146639 833.406398 
L 2141.50219 825.988325 
L 2142.857742 819.010658 
L 2148.279947 811.000791 
L 2149.635498 808.275785 
L 2153.702152 805.550778 
L 2175.390974 802.825772 
L 2207.924206 800.100766 
L 2214.701962 797.37576 
L 2249.946297 794.650753 
L 2251.301849 791.017412 
L 2252.6574 789.200741 
L 2289.257286 786.475735 
L 2290.612837 783.750728 
L 2320.434967 781.025722 
L 2324.501621 778.300716 
L 2340.768237 775.57571 
L 2382.790328 772.850703 
L 2382.790328 772.850703 
L 2382.790328 772.850703 
L 2340.768237 775.57571 
L 2324.501621 778.300716 
L 2320.434967 781.025722 
L 2290.612837 783.750728 
L 2289.257286 786.475735 
L 2252.6574 789.200741 
L 2251.301849 791.017412 
L 2249.946297 794.650753 
L 2214.701962 797.37576 
L 2207.924206 800.100766 
L 2175.390974 802.825772 
L 2153.702152 805.550778 
L 2149.635498 808.275785 
L 2148.279947 811.000791 
L 2142.857742 816.035859 
L 2141.50219 824.171655 
L 2140.146639 830.378613 
L 2136.079985 837.342518 
L 2133.368882 841.278638 
L 2125.235574 848.242543 
L 2058.813559 850.967549 
L 2007.302608 853.692556 
L 1999.1693 856.417562 
L 1974.769376 860.505071 
L 1972.058273 865.500916 
L 1961.213862 869.134258 
L 1957.147208 871.859264 
L 1955.791657 877.309277 
L 1932.747284 880.034283 
L 1930.036181 883.213457 
L 1855.480858 888.209302 
L 1848.703101 890.934308 
L 1844.636447 894.113482 
L 1843.280896 899.109327 
L 1841.925344 901.834333 
L 1833.792036 904.559339 
L 1827.01428 907.284345 
L 1824.303177 910.463519 
L 1813.458766 915.459364 
L 1812.103215 918.638538 
L 1810.747664 923.634383 
L 1806.68101 927.786773 
L 1802.614356 933.626073 
L 1763.303367 936.805247 
L 1760.592264 941.801091 
L 1755.170059 944.526098 
L 1752.458956 947.251104 
L 1748.392302 950.430278 
L 1742.970097 955.426123 
L 1721.281275 958.151129 
L 1719.925724 960.876135 
L 1715.85907 963.601141 
L 1703.659108 966.326148 
L 1698.236903 969.051154 
L 1680.614735 972.545001 
L 1675.19253 978.134508 
z
" clip-path="url(#pca0c1e5052)" style="fill: #55a868; fill-opacity: 0.2; stroke: #55a868; stroke-opacity: 0.2"/>
   </g>
   <g id="PolyCollection_4">
    <defs>
     <path id="mee53883d50" d="M 579.907049 -310.845357 
L 579.907049 -307.025806 
L 581.2626 -318.233151 
L 605.662524 -327.011456 
L 623.284692 -334.280411 
L 640.906859 -337.913752 
L 655.817924 -341.547094 
L 670.728988 -344.2721 
L 685.640053 -346.997106 
L 837.461803 -349.722113 
L 844.23956 -352.447119 
L 852.372868 -356.383239 
L 855.08397 -365.845066 
L 856.439522 -376.745091 
L 912.017127 -385.147194 
L 916.083781 -387.8722 
L 945.90591 -390.597207 
L 951.328115 -394.230548 
L 967.594731 -396.955554 
L 971.661385 -399.680561 
L 982.505796 -403.313902 
L 983.861348 -407.855579 
L 987.928002 -414.213927 
L 989.283553 -417.847269 
L 1012.327926 -421.480611 
L 1024.527888 -424.205617 
L 1029.950093 -431.775079 
L 1034.016747 -438.738984 
L 1042.150055 -442.372325 
L 1050.283363 -446.005667 
L 1111.283173 -448.730673 
L 1162.794124 -453.947925 
L 1164.149675 -462.355705 
L 1165.505227 -467.351549 
L 1166.860778 -475.980736 
L 1168.216329 -480.976581 
L 1169.571881 -489.605767 
L 1170.927432 -492.784941 
L 1173.638535 -500.092913 
L 1174.994086 -507.772476 
L 1177.705189 -511.405817 
L 1179.06074 -514.130824 
L 1219.72728 -516.85583 
L 1360.704619 -519.580836 
L 1368.837928 -527.150298 
L 1370.193479 -539.110048 
L 1410.860019 -545.014228 
L 1452.88211 -548.647569 
L 1671.125876 -551.372576 
L 1684.681389 -554.097582 
L 1737.547891 -556.822588 
L 1965.280516 -559.547594 
L 1996.458197 -563.180936 
L 2012.724813 -566.814278 
L 2072.369072 -569.539284 
L 2072.369072 -569.539284 
L 2072.369072 -569.539284 
L 2012.724813 -566.814278 
L 1996.458197 -563.180936 
L 1965.280516 -559.547594 
L 1737.547891 -556.822588 
L 1684.681389 -554.097582 
L 1671.125876 -551.372576 
L 1452.88211 -548.647569 
L 1410.860019 -545.014228 
L 1370.193479 -540.926718 
L 1368.837928 -531.843364 
L 1360.704619 -519.580836 
L 1219.72728 -516.85583 
L 1179.06074 -514.130824 
L 1177.705189 -511.405817 
L 1174.994086 -507.772476 
L 1173.638535 -503.39595 
L 1170.927432 -494.601612 
L 1169.571881 -489.605767 
L 1168.216329 -484.382839 
L 1166.860778 -475.980736 
L 1165.505227 -470.984891 
L 1164.149675 -462.355705 
L 1162.794124 -457.138453 
L 1111.283173 -448.730673 
L 1050.283363 -446.005667 
L 1042.150055 -442.372325 
L 1034.016747 -438.738984 
L 1029.950093 -433.59175 
L 1024.527888 -424.205617 
L 1012.327926 -421.480611 
L 989.283553 -417.847269 
L 987.928002 -414.213927 
L 983.861348 -411.488921 
L 982.505796 -403.313902 
L 971.661385 -399.680561 
L 967.594731 -396.955554 
L 951.328115 -394.230548 
L 945.90591 -390.597207 
L 916.083781 -387.8722 
L 912.017127 -385.147194 
L 856.439522 -379.929942 
L 855.08397 -369.02424 
L 852.372868 -359.108245 
L 844.23956 -352.447119 
L 837.461803 -349.722113 
L 685.640053 -346.997106 
L 670.728988 -344.2721 
L 655.817924 -341.547094 
L 640.906859 -337.913752 
L 623.284692 -334.280411 
L 605.662524 -330.102068 
L 581.2626 -321.260936 
L 579.907049 -310.845357 
z
" style="stroke: #c44e52; stroke-opacity: 0.2"/>
    </defs>
    <g clip-path="url(#pca0c1e5052)">
     <use xlink:href="#mee53883d50" x="0" y="2073.6" style="fill: #c44e52; fill-opacity: 0.2; stroke: #c44e52; stroke-opacity: 0.2"/>
    </g>
   </g>
   <g id="line2d_18">
    <path d="M 442.996364 1772.928 
L 456.551877 1772.019665 
L 676.151194 1771.111329 
L 734.439901 1768.386323 
L 764.262031 1762.93631 
L 794.08416 1757.486298 
L 795.439712 1754.761292 
L 796.795263 1752.036285 
L 813.061879 1749.311279 
L 829.328495 1746.586273 
L 830.684046 1743.861267 
L 864.57283 1741.13626 
L 924.217089 1738.411254 
L 1039.438952 1734.777912 
L 1040.794504 1732.052906 
L 1043.505606 1729.3279 
L 1051.638914 1726.602894 
L 1076.038838 1723.877887 
L 1089.594352 1721.152881 
L 1103.149865 1718.427875 
L 1104.505417 1715.702869 
L 1108.572071 1712.977862 
L 1109.927622 1704.802844 
L 1115.349827 1693.902819 
L 1116.705379 1691.177812 
L 1128.905341 1688.452806 
L 1134.327546 1685.7278 
L 1137.038649 1683.002793 
L 1139.749751 1680.277787 
L 1180.416292 1677.552781 
L 1195.327356 1676.644446 
L 1203.460664 1675.73611 
L 1204.816216 1673.011104 
L 1221.082832 1670.286098 
L 1225.149486 1664.836085 
L 1226.505037 1662.111079 
L 1229.21614 1660.748576 
L 1233.282794 1656.479399 
L 1249.54941 1653.027725 
L 1250.904961 1645.621297 
L 1252.260512 1635.769352 
L 1253.616064 1630.092255 
L 1254.971615 1626.685997 
L 1257.682718 1625.323494 
L 1259.038269 1622.14432 
L 1260.39382 1619.19223 
L 1263.104923 1617.602643 
L 1264.460474 1616.694308 
L 1265.816026 1613.969302 
L 1286.149296 1613.060966 
L 1292.927053 1612.152631 
L 1362.060171 1609.427625 
L 1425.771084 1606.702618 
L 1431.193289 1603.977612 
L 1451.526559 1601.252606 
L 1458.304316 1597.165096 
L 1473.215381 1594.894258 
L 1474.570932 1591.942168 
L 1573.52618 1588.53591 
L 1595.215001 1587.627574 
L 1660.281465 1584.902568 
L 1664.348119 1580.815059 
L 1677.903633 1576.727549 
L 1728.059032 1574.002543 
L 1730.770135 1571.277537 
L 1738.903443 1568.552531 
L 1766.01447 1565.827524 
L 1775.503329 1561.740015 
L 1812.103215 1557.652506 
L 1818.880972 1553.564996 
L 1820.236523 1549.477487 
L 1828.369831 1544.027474 
L 1844.636447 1540.394133 
L 1852.769755 1537.669126 
L 1854.125307 1534.94412 
L 1866.325269 1532.219114 
L 1889.369641 1529.494108 
L 1912.414014 1525.406598 
L 1913.769565 1519.956586 
L 1915.125117 1515.869076 
L 1917.836219 1513.14407 
L 1920.547322 1510.419064 
L 1927.325079 1504.969051 
L 1961.213862 1499.519039 
L 1970.702722 1498.610703 
L 1993.747094 1497.702368 
L 1995.102646 1496.794033 
L 2005.947056 1495.885697 
L 2037.124737 1493.160691 
L 2100.83565 1490.435685 
L 2174.035422 1486.802343 
L 2178.102076 1484.077337 
L 2183.524282 1478.627324 
L 2224.190822 1477.718989 
L 2248.590746 1473.631479 
L 2271.635119 1469.54397 
L 2291.968389 1465.910628 
" clip-path="url(#pca0c1e5052)" style="fill: none; stroke: #4c72b0; stroke-width: 1.5; stroke-linecap: round"/>
   </g>
   <g id="line2d_19">
    <path d="M 442.996364 1772.928 
L 502.640623 1767.477987 
L 503.996174 1760.665472 
L 508.062828 1756.577962 
L 513.485033 1731.689572 
L 514.840585 1696.854909 
L 533.818303 1672.102768 
L 535.173855 1662.111079 
L 544.662714 1658.477737 
L 550.084919 1653.676536 
L 551.440471 1623.136761 
L 556.862676 1597.619264 
L 558.218227 1577.773511 
L 559.573779 1524.829076 
L 560.92933 1464.693802 
L 562.284881 1428.635234 
L 570.418189 1415.043845 
L 581.2626 1412.318839 
L 585.329254 1405.506323 
L 593.462562 1390.246288 
L 597.529216 1373.714583 
L 607.018076 1365.085397 
L 608.373627 1357.364546 
L 617.862486 1352.368701 
L 644.973513 1348.281191 
L 647.684616 1340.832841 
L 649.040167 1334.201992 
L 650.395718 1330.568651 
L 651.75127 1327.843645 
L 681.573399 1323.756135 
L 684.284502 1318.306123 
L 685.640053 1307.51964 
L 686.995604 1298.776911 
L 688.351156 1292.691064 
L 693.773361 1285.606048 
L 711.395529 1281.518538 
L 715.462183 1278.793532 
L 718.173285 1273.343519 
L 719.528837 1268.542318 
L 722.239939 1245.833932 
L 723.595491 1240.643444 
L 729.017696 1237.918438 
L 737.151004 1235.193432 
L 738.506555 1232.468426 
L 745.284312 1228.380916 
L 756.128723 1224.293407 
L 757.484274 1220.660065 
L 758.839825 1217.935059 
L 761.550928 1198.860015 
L 765.617582 1195.226673 
L 766.973133 1190.425472 
L 769.684236 1182.05581 
L 779.173095 1176.605797 
L 783.239749 1168.884946 
L 784.595301 1164.083745 
L 795.439712 1159.801592 
L 798.150814 1157.076586 
L 802.217468 1151.626573 
L 803.57302 1146.176561 
L 807.639674 1143.451554 
L 815.772982 1135.276536 
L 817.128533 1131.643194 
L 821.195187 1129.826523 
L 822.550738 1127.101517 
L 823.90629 1119.69509 
L 825.261841 1110.491955 
L 840.172906 1103.484796 
L 842.884008 1097.126448 
L 844.23956 1091.040601 
L 855.08397 1083.241892 
L 863.217278 1078.95974 
L 865.928381 1076.234733 
L 880.839446 1073.509727 
L 905.23937 1068.708526 
L 925.57264 1063.06387 
L 926.928191 1058.97636 
L 928.283743 1056.251354 
L 936.417051 1046.16405 
L 937.772602 1036.267975 
L 939.128153 1033.542969 
L 944.550359 1025.36795 
L 948.617013 1020.566748 
L 952.683667 1016.284596 
L 956.750321 1008.109577 
L 958.105872 996.119549 
L 963.528077 989.034533 
L 964.883629 986.309527 
L 970.305834 980.859514 
L 971.661385 977.40784 
L 977.083591 973.592831 
L 979.794693 968.79163 
L 981.150245 964.509477 
L 985.216899 961.784471 
L 987.928002 955.095819 
L 991.994656 949.067775 
L 993.350207 946.342768 
L 997.416861 943.617762 
L 1002.839066 940.892756 
L 1008.261272 923.180215 
L 1010.972374 919.092706 
L 1013.683477 913.642693 
L 1028.594542 910.917687 
L 1034.016747 908.192681 
L 1035.372298 904.559339 
L 1043.505606 901.834333 
L 1048.927812 896.38432 
L 1050.283363 893.659314 
L 1051.638914 889.571805 
L 1054.350017 883.4081 
L 1055.705568 879.125947 
L 1065.194428 876.400941 
L 1069.261082 872.313432 
L 1080.105493 868.225922 
L 1086.883249 865.500916 
L 1089.594352 861.867574 
L 1090.949903 859.142568 
L 1113.994276 856.417562 
L 1119.416481 848.172671 
L 1127.549789 839.159189 
L 1128.905341 834.617512 
L 1147.883059 829.81631 
L 1149.238611 825.534158 
L 1156.016367 820.084145 
L 1196.682908 815.542468 
L 1217.016178 811.909126 
L 1222.438383 806.459114 
L 1225.149486 799.192431 
L 1226.505037 796.467424 
L 1227.860588 789.291574 
L 1230.571691 784.659064 
L 1347.149106 778.300716 
L 1356.637965 773.759039 
L 1359.349068 771.034033 
L 1364.771273 762.859014 
L 1368.837928 760.134008 
L 1375.615684 756.500666 
L 1379.682338 753.77566 
L 1395.948954 750.142318 
L 1398.660057 747.417312 
L 1405.437814 741.331464 
L 1409.504468 732.883945 
L 1414.926673 730.158939 
L 1429.837738 726.525597 
L 1431.193289 723.073922 
L 1432.54884 717.896411 
L 1436.615494 712.251755 
L 1440.682148 704.271379 
L 1450.171008 700.18387 
L 1451.526559 697.458864 
L 1452.88211 693.371354 
L 1577.592834 689.283845 
L 1578.948385 686.558839 
L 1606.059412 682.925497 
L 1607.414963 680.200491 
L 1635.881541 676.112981 
L 1641.303746 672.025472 
L 1644.014849 666.575459 
L 1645.3704 664.758788 
L 1661.637017 661.125447 
L 1675.19253 658.400441 
L 1677.903633 655.675434 
L 1681.970287 652.950428 
L 1683.325838 650.225422 
L 1686.036941 647.500416 
L 1722.636827 644.775409 
L 1742.970097 641.823319 
L 1744.325648 637.054558 
L 1747.036751 632.967049 
L 1753.814507 626.154533 
L 1759.236713 614.80034 
L 1760.592264 605.716986 
L 1764.658918 597.541967 
L 1779.569983 594.816961 
L 1780.925534 592.091955 
L 1783.636637 589.366949 
L 1787.703291 586.641942 
L 1794.481048 582.554433 
L 1798.547702 577.104421 
L 1799.903253 573.016911 
L 1802.614356 570.291905 
L 1803.969907 566.204395 
L 1813.458766 560.754383 
L 1814.814318 556.666874 
L 1816.169869 553.941867 
L 1818.880972 547.129352 
L 1820.236523 537.59183 
L 1822.947626 532.141817 
L 1824.303177 528.508476 
L 1829.725382 525.783469 
L 1832.436485 523.058463 
L 1833.792036 519.425121 
L 1835.147588 516.700115 
L 1877.169679 513.975109 
L 1883.947436 509.173907 
L 1896.147398 504.891755 
L 1911.058463 498.533407 
L 1917.836219 493.083394 
L 1919.191771 490.358388 
L 1924.613976 487.633382 
L 1925.969527 484.908375 
L 1927.325079 481.275034 
L 1944.947246 478.550028 
L 1963.924965 475.825021 
L 1974.769376 471.737512 
L 1976.124927 466.287499 
L 1984.258235 461.291655 
L 2003.235954 458.566648 
L 2014.080364 455.841642 
L 2050.680251 453.116636 
L 2066.946867 450.39163 
L 2075.080175 447.666623 
L 2084.569034 441.308275 
L 2096.768996 437.674934 
L 2098.124547 434.949927 
L 2102.191201 430.148726 
L 2110.324509 425.866573 
L 2111.680061 422.233232 
L 2140.146639 419.508225 
L 2142.857742 406.791529 
L 2156.413255 403.158188 
L 2157.768806 399.524846 
L 2159.124358 396.79984 
L 2161.83546 394.074834 
L 2211.99086 391.349827 
L 2256.724054 388.624821 
L 2259.435157 383.174809 
L 2260.790708 377.724796 
L 2267.568465 372.274783 
L 2271.635119 365.0081 
L 2272.99067 359.558088 
L 2277.057324 354.756886 
L 2282.479529 350.474733 
L 2283.835081 346.841392 
L 2291.968389 344.116385 
L 2293.32394 341.391379 
L 2329.923826 338.666373 
L 2333.99048 335.033031 
L 2339.412686 332.308025 
L 2377.368123 329.583019 
L 2380.079226 326.858013 
L 2388.212534 324.133006 
L 2390.923636 321.408 
L 2390.923636 321.408 
" clip-path="url(#pca0c1e5052)" style="fill: none; stroke: #dd8452; stroke-width: 1.5; stroke-linecap: round"/>
   </g>
   <g id="line2d_20">
    <path d="M 442.996364 1772.928 
L 503.996174 1767.477987 
L 512.129482 1756.577962 
L 513.485033 1747.040441 
L 522.973893 1742.952931 
L 524.329444 1730.49576 
L 525.684995 1719.790378 
L 529.751649 1715.702869 
L 536.529406 1712.977862 
L 539.240509 1710.252856 
L 547.373817 1706.619514 
L 548.729368 1698.081161 
L 550.084919 1678.427474 
L 554.151573 1664.381917 
L 558.218227 1655.752731 
L 560.92933 1647.318188 
L 562.284881 1640.311029 
L 563.640433 1616.504191 
L 564.995984 1589.444245 
L 566.351535 1581.269227 
L 570.418189 1573.862799 
L 574.484843 1566.73586 
L 577.195946 1563.102518 
L 579.907049 1559.015009 
L 585.329254 1554.927499 
L 589.395908 1552.202493 
L 590.751459 1547.401292 
L 592.107011 1538.437718 
L 594.818113 1530.402443 
L 596.173665 1527.677437 
L 604.306973 1524.952431 
L 605.662524 1519.502418 
L 611.08473 1513.14407 
L 612.440281 1510.419064 
L 616.506935 1506.785722 
L 621.92914 1504.060716 
L 628.706897 1496.794033 
L 630.062448 1493.160691 
L 649.040167 1489.527349 
L 651.75127 1486.802343 
L 653.106821 1484.077337 
L 655.817924 1481.35233 
L 657.173475 1478.627324 
L 662.59568 1475.902318 
L 666.662334 1473.177312 
L 684.284502 1469.54397 
L 686.995604 1444.110578 
L 692.41781 1441.385572 
L 693.773361 1438.660566 
L 699.195567 1435.935559 
L 703.262221 1433.210553 
L 723.595491 1429.577212 
L 726.306593 1426.852205 
L 749.350966 1424.127199 
L 752.062069 1418.677186 
L 754.773171 1411.410503 
L 756.128723 1408.685497 
L 757.484274 1404.597987 
L 758.839825 1399.602143 
L 764.262031 1394.15213 
L 768.328685 1382.34377 
L 772.395339 1374.168751 
L 773.75089 1370.535409 
L 783.239749 1367.810403 
L 798.150814 1365.085397 
L 808.995225 1362.36039 
L 814.41743 1356.910378 
L 815.772982 1353.277036 
L 817.128533 1349.189527 
L 826.617392 1345.102018 
L 827.972944 1339.652005 
L 846.950662 1333.747825 
L 852.372868 1329.660315 
L 853.728419 1326.935309 
L 863.217278 1324.210303 
L 865.928381 1321.485297 
L 871.350586 1318.76029 
L 894.394959 1315.126949 
L 902.528267 1309.676936 
L 903.883819 1306.95193 
L 905.23937 1303.318588 
L 922.861537 1299.685247 
L 949.972564 1296.051905 
L 958.105872 1293.326899 
L 959.461423 1281.06437 
L 975.728039 1268.801842 
L 977.083591 1265.168501 
L 981.150245 1246.5108 
L 989.283553 1227.472581 
L 990.639104 1222.476736 
L 997.416861 1218.389227 
L 998.772412 1214.301717 
L 1001.483515 1210.668375 
L 1004.194618 1205.218363 
L 1006.90572 1192.774168 
L 1008.261272 1187.051655 
L 1009.616823 1182.964145 
L 1010.972374 1177.9683 
L 1050.283363 1175.243294 
L 1058.416671 1171.609952 
L 1066.549979 1167.522443 
L 1071.972184 1163.434934 
L 1077.39439 1160.709927 
L 1078.749941 1156.622418 
L 1081.461044 1152.534909 
L 1088.238801 1149.809902 
L 1093.661006 1147.084896 
L 1096.372109 1138.909877 
L 1097.72766 1136.184871 
L 1100.438763 1132.551529 
L 1101.794314 1129.826523 
L 1104.505417 1127.101517 
L 1139.749751 1123.468175 
L 1141.105303 1120.743169 
L 1179.06074 1118.018163 
L 1187.194048 1115.293156 
L 1237.349448 1111.659815 
L 1238.704999 1107.572305 
L 1252.260512 1103.484796 
L 1276.660437 1099.851454 
L 1278.015988 1097.126448 
L 1292.927053 1094.401442 
L 1305.127015 1091.676436 
L 1360.704619 1088.043094 
L 1375.615684 1082.593081 
L 1379.682338 1078.051404 
L 1386.460095 1075.326398 
L 1429.837738 1068.637746 
L 1436.615494 1062.609702 
L 1439.326597 1059.884696 
L 1455.593213 1054.434683 
L 1458.304316 1045.351329 
L 1461.015418 1042.626323 
L 1462.37097 1037.17631 
L 1471.859829 1031.726298 
L 1473.215381 1029.001292 
L 1494.904202 1026.276285 
L 1524.726331 1022.642944 
L 1526.081883 1019.917937 
L 1532.859639 1015.830428 
L 1547.770704 1011.742919 
L 1550.481807 1008.109577 
L 1564.03732 1005.384571 
L 1566.748423 999.934558 
L 1577.592834 996.301217 
L 1622.326028 993.57621 
L 1626.392682 990.851204 
L 1629.103784 988.126198 
L 1646.725952 984.492856 
L 1668.414773 981.76785 
L 1671.125876 980.859514 
L 1675.19253 978.134508 
L 1680.614735 973.333307 
L 1698.236903 969.051154 
L 1703.659108 966.326148 
L 1715.85907 963.601141 
L 1719.925724 960.876135 
L 1721.281275 958.151129 
L 1742.970097 955.426123 
L 1748.392302 951.338613 
L 1755.170059 944.526098 
L 1760.592264 941.801091 
L 1763.303367 937.713582 
L 1802.614356 933.626073 
L 1806.68101 928.824871 
L 1810.747664 923.634383 
L 1813.458766 915.459364 
L 1824.303177 911.371855 
L 1827.01428 907.284345 
L 1833.792036 904.559339 
L 1841.925344 901.834333 
L 1843.280896 899.109327 
L 1844.636447 895.021817 
L 1848.703101 890.934308 
L 1855.480858 888.209302 
L 1930.036181 884.121792 
L 1932.747284 880.034283 
L 1955.791657 877.309277 
L 1957.147208 871.859264 
L 1961.213862 869.134258 
L 1972.058273 865.500916 
L 1974.769376 861.413407 
L 1999.1693 856.417562 
L 2007.302608 853.692556 
L 2058.813559 850.967549 
L 2125.235574 848.242543 
L 2133.368882 842.792531 
L 2136.079985 837.342518 
L 2140.146639 831.892506 
L 2141.50219 825.07999 
L 2142.857742 817.441715 
L 2148.279947 811.000791 
L 2149.635498 808.275785 
L 2153.702152 805.550778 
L 2175.390974 802.825772 
L 2207.924206 800.100766 
L 2214.701962 797.37576 
L 2249.946297 794.650753 
L 2251.301849 791.017412 
L 2252.6574 789.200741 
L 2289.257286 786.475735 
L 2290.612837 783.750728 
L 2320.434967 781.025722 
L 2324.501621 778.300716 
L 2340.768237 775.57571 
L 2382.790328 772.850703 
L 2382.790328 772.850703 
" clip-path="url(#pca0c1e5052)" style="fill: none; stroke: #55a868; stroke-width: 1.5; stroke-linecap: round"/>
   </g>
   <g id="line2d_21">
    <path d="M 442.996364 1772.928 
L 579.907049 1764.752981 
L 581.2626 1753.852956 
L 605.662524 1745.042103 
L 623.284692 1739.319589 
L 640.906859 1735.686248 
L 655.817924 1732.052906 
L 670.728988 1729.3279 
L 685.640053 1726.602894 
L 837.461803 1723.877887 
L 844.23956 1721.152881 
L 852.372868 1715.702869 
L 855.08397 1706.165347 
L 856.439522 1695.265322 
L 912.017127 1688.452806 
L 916.083781 1685.7278 
L 945.90591 1683.002793 
L 951.328115 1679.369452 
L 967.594731 1676.644446 
L 971.661385 1673.919439 
L 982.505796 1670.286098 
L 983.861348 1663.92775 
L 987.928002 1659.386073 
L 989.283553 1655.752731 
L 1012.327926 1652.119389 
L 1024.527888 1649.394383 
L 1029.950093 1640.916586 
L 1034.016747 1634.861016 
L 1042.150055 1631.227675 
L 1050.283363 1627.594333 
L 1111.283173 1624.869327 
L 1162.794124 1618.056811 
L 1164.149675 1611.244295 
L 1165.505227 1604.43178 
L 1166.860778 1597.619264 
L 1168.216329 1590.806748 
L 1169.571881 1583.994233 
L 1170.927432 1579.906723 
L 1173.638535 1571.855569 
L 1174.994086 1565.827524 
L 1177.705189 1562.194183 
L 1179.06074 1559.469176 
L 1219.72728 1556.74417 
L 1360.704619 1554.019164 
L 1368.837928 1544.027474 
L 1370.193479 1533.581617 
L 1410.860019 1528.585772 
L 1452.88211 1524.952431 
L 1671.125876 1522.227424 
L 1684.681389 1519.502418 
L 1737.547891 1516.777412 
L 1965.280516 1514.052406 
L 1996.458197 1510.419064 
L 2012.724813 1506.785722 
L 2072.369072 1504.060716 
" clip-path="url(#pca0c1e5052)" style="fill: none; stroke: #c44e52; stroke-width: 1.5; stroke-linecap: round"/>
   </g>
   <g id="line2d_22"/>
   <g id="line2d_23"/>
   <g id="line2d_24"/>
   <g id="line2d_25"/>
   <g id="patch_3">
    <path d="M 345.6 1845.504 
L 345.6 248.832 
" style="fill: none; stroke: #cccccc; stroke-width: 1.25; stroke-linejoin: miter; stroke-linecap: square"/>
   </g>
   <g id="patch_4">
    <path d="M 345.6 1845.504 
L 2488.32 1845.504 
" style="fill: none; stroke: #cccccc; stroke-width: 1.25; stroke-linejoin: miter; stroke-linecap: square"/>
   </g>
   <g id="text_20">
    <!-- Bug Discovery History -->
    <g style="fill: #262626" transform="translate(1287.42156 242.832)scale(0.20736 -0.20736)">
     <defs>
      <path id="DejaVuSans-Bold-42" d="M 2456 2859 
Q 2741 2859 2887 2984 
Q 3034 3109 3034 3353 
Q 3034 3594 2887 3720 
Q 2741 3847 2456 3847 
L 1791 3847 
L 1791 2859 
L 2456 2859 
z
M 2497 819 
Q 2859 819 3042 972 
Q 3225 1125 3225 1434 
Q 3225 1738 3044 1889 
Q 2863 2041 2497 2041 
L 1791 2041 
L 1791 819 
L 2497 819 
z
M 3616 2497 
Q 4003 2384 4215 2081 
Q 4428 1778 4428 1338 
Q 4428 663 3972 331 
Q 3516 0 2584 0 
L 588 0 
L 588 4666 
L 2394 4666 
Q 3366 4666 3802 4372 
Q 4238 4078 4238 3431 
Q 4238 3091 4078 2852 
Q 3919 2613 3616 2497 
z
" transform="scale(0.015625)"/>
      <path id="DejaVuSans-Bold-75" d="M 500 1363 
L 500 3500 
L 1625 3500 
L 1625 3150 
Q 1625 2866 1622 2436 
Q 1619 2006 1619 1863 
Q 1619 1441 1641 1255 
Q 1663 1069 1716 984 
Q 1784 875 1895 815 
Q 2006 756 2150 756 
Q 2500 756 2700 1025 
Q 2900 1294 2900 1772 
L 2900 3500 
L 4019 3500 
L 4019 0 
L 2900 0 
L 2900 506 
Q 2647 200 2364 54 
Q 2081 -91 1741 -91 
Q 1134 -91 817 281 
Q 500 653 500 1363 
z
" transform="scale(0.015625)"/>
      <path id="DejaVuSans-Bold-67" d="M 2919 594 
Q 2688 288 2409 144 
Q 2131 0 1766 0 
Q 1125 0 706 504 
Q 288 1009 288 1791 
Q 288 2575 706 3076 
Q 1125 3578 1766 3578 
Q 2131 3578 2409 3434 
Q 2688 3291 2919 2981 
L 2919 3500 
L 4044 3500 
L 4044 353 
Q 4044 -491 3511 -936 
Q 2978 -1381 1966 -1381 
Q 1638 -1381 1331 -1331 
Q 1025 -1281 716 -1178 
L 716 -306 
Q 1009 -475 1290 -558 
Q 1572 -641 1856 -641 
Q 2406 -641 2662 -400 
Q 2919 -159 2919 353 
L 2919 594 
z
M 2181 2772 
Q 1834 2772 1640 2515 
Q 1447 2259 1447 1791 
Q 1447 1309 1634 1061 
Q 1822 813 2181 813 
Q 2531 813 2725 1069 
Q 2919 1325 2919 1791 
Q 2919 2259 2725 2515 
Q 2531 2772 2181 2772 
z
" transform="scale(0.015625)"/>
      <path id="DejaVuSans-Bold-20" transform="scale(0.015625)"/>
      <path id="DejaVuSans-Bold-44" d="M 1791 3756 
L 1791 909 
L 2222 909 
Q 2959 909 3348 1275 
Q 3738 1641 3738 2338 
Q 3738 3031 3350 3393 
Q 2963 3756 2222 3756 
L 1791 3756 
z
M 588 4666 
L 1856 4666 
Q 2919 4666 3439 4514 
Q 3959 4363 4331 4000 
Q 4659 3684 4818 3271 
Q 4978 2859 4978 2338 
Q 4978 1809 4818 1395 
Q 4659 981 4331 666 
Q 3956 303 3431 151 
Q 2906 0 1856 0 
L 588 0 
L 588 4666 
z
" transform="scale(0.015625)"/>
      <path id="DejaVuSans-Bold-69" d="M 538 3500 
L 1656 3500 
L 1656 0 
L 538 0 
L 538 3500 
z
M 538 4863 
L 1656 4863 
L 1656 3950 
L 538 3950 
L 538 4863 
z
" transform="scale(0.015625)"/>
      <path id="DejaVuSans-Bold-73" d="M 3272 3391 
L 3272 2541 
Q 2913 2691 2578 2766 
Q 2244 2841 1947 2841 
Q 1628 2841 1473 2761 
Q 1319 2681 1319 2516 
Q 1319 2381 1436 2309 
Q 1553 2238 1856 2203 
L 2053 2175 
Q 2913 2066 3209 1816 
Q 3506 1566 3506 1031 
Q 3506 472 3093 190 
Q 2681 -91 1863 -91 
Q 1516 -91 1145 -36 
Q 775 19 384 128 
L 384 978 
Q 719 816 1070 734 
Q 1422 653 1784 653 
Q 2113 653 2278 743 
Q 2444 834 2444 1013 
Q 2444 1163 2330 1236 
Q 2216 1309 1875 1350 
L 1678 1375 
Q 931 1469 631 1722 
Q 331 1975 331 2491 
Q 331 3047 712 3315 
Q 1094 3584 1881 3584 
Q 2191 3584 2531 3537 
Q 2872 3491 3272 3391 
z
" transform="scale(0.015625)"/>
      <path id="DejaVuSans-Bold-63" d="M 3366 3391 
L 3366 2478 
Q 3138 2634 2908 2709 
Q 2678 2784 2431 2784 
Q 1963 2784 1702 2511 
Q 1441 2238 1441 1747 
Q 1441 1256 1702 982 
Q 1963 709 2431 709 
Q 2694 709 2930 787 
Q 3166 866 3366 1019 
L 3366 103 
Q 3103 6 2833 -42 
Q 2563 -91 2291 -91 
Q 1344 -91 809 395 
Q 275 881 275 1747 
Q 275 2613 809 3098 
Q 1344 3584 2291 3584 
Q 2566 3584 2833 3536 
Q 3100 3488 3366 3391 
z
" transform="scale(0.015625)"/>
      <path id="DejaVuSans-Bold-6f" d="M 2203 2784 
Q 1831 2784 1636 2517 
Q 1441 2250 1441 1747 
Q 1441 1244 1636 976 
Q 1831 709 2203 709 
Q 2569 709 2762 976 
Q 2956 1244 2956 1747 
Q 2956 2250 2762 2517 
Q 2569 2784 2203 2784 
z
M 2203 3584 
Q 3106 3584 3614 3096 
Q 4122 2609 4122 1747 
Q 4122 884 3614 396 
Q 3106 -91 2203 -91 
Q 1297 -91 786 396 
Q 275 884 275 1747 
Q 275 2609 786 3096 
Q 1297 3584 2203 3584 
z
" transform="scale(0.015625)"/>
      <path id="DejaVuSans-Bold-76" d="M 97 3500 
L 1216 3500 
L 2088 1081 
L 2956 3500 
L 4078 3500 
L 2700 0 
L 1472 0 
L 97 3500 
z
" transform="scale(0.015625)"/>
      <path id="DejaVuSans-Bold-65" d="M 4031 1759 
L 4031 1441 
L 1416 1441 
Q 1456 1047 1700 850 
Q 1944 653 2381 653 
Q 2734 653 3104 758 
Q 3475 863 3866 1075 
L 3866 213 
Q 3469 63 3072 -14 
Q 2675 -91 2278 -91 
Q 1328 -91 801 392 
Q 275 875 275 1747 
Q 275 2603 792 3093 
Q 1309 3584 2216 3584 
Q 3041 3584 3536 3087 
Q 4031 2591 4031 1759 
z
M 2881 2131 
Q 2881 2450 2695 2645 
Q 2509 2841 2209 2841 
Q 1884 2841 1681 2658 
Q 1478 2475 1428 2131 
L 2881 2131 
z
" transform="scale(0.015625)"/>
      <path id="DejaVuSans-Bold-72" d="M 3138 2547 
Q 2991 2616 2845 2648 
Q 2700 2681 2553 2681 
Q 2122 2681 1889 2404 
Q 1656 2128 1656 1613 
L 1656 0 
L 538 0 
L 538 3500 
L 1656 3500 
L 1656 2925 
Q 1872 3269 2151 3426 
Q 2431 3584 2822 3584 
Q 2878 3584 2943 3579 
Q 3009 3575 3134 3559 
L 3138 2547 
z
" transform="scale(0.015625)"/>
      <path id="DejaVuSans-Bold-79" d="M 78 3500 
L 1197 3500 
L 2138 1125 
L 2938 3500 
L 4056 3500 
L 2584 -331 
Q 2363 -916 2067 -1148 
Q 1772 -1381 1288 -1381 
L 641 -1381 
L 641 -647 
L 991 -647 
Q 1275 -647 1404 -556 
Q 1534 -466 1606 -231 
L 1638 -134 
L 78 3500 
z
" transform="scale(0.015625)"/>
      <path id="DejaVuSans-Bold-48" d="M 588 4666 
L 1791 4666 
L 1791 2888 
L 3566 2888 
L 3566 4666 
L 4769 4666 
L 4769 0 
L 3566 0 
L 3566 1978 
L 1791 1978 
L 1791 0 
L 588 0 
L 588 4666 
z
" transform="scale(0.015625)"/>
      <path id="DejaVuSans-Bold-74" d="M 1759 4494 
L 1759 3500 
L 2913 3500 
L 2913 2700 
L 1759 2700 
L 1759 1216 
Q 1759 972 1856 886 
Q 1953 800 2241 800 
L 2816 800 
L 2816 0 
L 1856 0 
Q 1194 0 917 276 
Q 641 553 641 1216 
L 641 2700 
L 84 2700 
L 84 3500 
L 641 3500 
L 641 4494 
L 1759 4494 
z
" transform="scale(0.015625)"/>
     </defs>
     <use xlink:href="#DejaVuSans-Bold-42"/>
     <use xlink:href="#DejaVuSans-Bold-75" x="76.220703"/>
     <use xlink:href="#DejaVuSans-Bold-67" x="147.412109"/>
     <use xlink:href="#DejaVuSans-Bold-20" x="218.994141"/>
     <use xlink:href="#DejaVuSans-Bold-44" x="253.808594"/>
     <use xlink:href="#DejaVuSans-Bold-69" x="336.816406"/>
     <use xlink:href="#DejaVuSans-Bold-73" x="371.09375"/>
     <use xlink:href="#DejaVuSans-Bold-63" x="430.615234"/>
     <use xlink:href="#DejaVuSans-Bold-6f" x="489.892578"/>
     <use xlink:href="#DejaVuSans-Bold-76" x="558.59375"/>
     <use xlink:href="#DejaVuSans-Bold-65" x="623.779297"/>
     <use xlink:href="#DejaVuSans-Bold-72" x="691.601562"/>
     <use xlink:href="#DejaVuSans-Bold-79" x="740.917969"/>
     <use xlink:href="#DejaVuSans-Bold-20" x="806.103516"/>
     <use xlink:href="#DejaVuSans-Bold-48" x="840.917969"/>
     <use xlink:href="#DejaVuSans-Bold-69" x="924.609375"/>
     <use xlink:href="#DejaVuSans-Bold-73" x="958.886719"/>
     <use xlink:href="#DejaVuSans-Bold-74" x="1018.408203"/>
     <use xlink:href="#DejaVuSans-Bold-6f" x="1066.210938"/>
     <use xlink:href="#DejaVuSans-Bold-72" x="1134.912109"/>
     <use xlink:href="#DejaVuSans-Bold-79" x="1184.228516"/>
    </g>
   </g>
   <g id="legend_1">
    <g id="patch_5">
     <path d="M 353.3 339.3295 
L 492.71125 339.3295 
Q 494.91125 339.3295 494.91125 337.1295 
L 494.91125 256.532 
Q 494.91125 254.332 492.71125 254.332 
L 353.3 254.332 
Q 351.1 254.332 351.1 256.532 
L 351.1 337.1295 
Q 351.1 339.3295 353.3 339.3295 
z
" style="fill: #ffffff; opacity: 0.8; stroke: #cccccc; stroke-linejoin: miter"/>
    </g>
    <g id="text_21">
     <!-- fuzzer -->
     <g style="fill: #262626" transform="translate(404.634375 267.850125)scale(0.12 -0.12)">
      <defs>
       <path id="DejaVuSans-66" d="M 2375 4863 
L 2375 4384 
L 1825 4384 
Q 1516 4384 1395 4259 
Q 1275 4134 1275 3809 
L 1275 3500 
L 2222 3500 
L 2222 3053 
L 1275 3053 
L 1275 0 
L 697 0 
L 697 3053 
L 147 3053 
L 147 3500 
L 697 3500 
L 697 3744 
Q 697 4328 969 4595 
Q 1241 4863 1831 4863 
L 2375 4863 
z
" transform="scale(0.015625)"/>
       <path id="DejaVuSans-7a" d="M 353 3500 
L 3084 3500 
L 3084 2975 
L 922 459 
L 3084 459 
L 3084 0 
L 275 0 
L 275 525 
L 2438 3041 
L 353 3041 
L 353 3500 
z
" transform="scale(0.015625)"/>
      </defs>
      <use xlink:href="#DejaVuSans-66"/>
      <use xlink:href="#DejaVuSans-75" x="35.205078"/>
      <use xlink:href="#DejaVuSans-7a" x="98.583984"/>
      <use xlink:href="#DejaVuSans-7a" x="151.074219"/>
      <use xlink:href="#DejaVuSans-65" x="203.564453"/>
      <use xlink:href="#DejaVuSans-72" x="265.087891"/>
     </g>
    </g>
    <g id="line2d_26">
     <path d="M 355.5 280.354031 
L 366.5 280.354031 
L 377.5 280.354031 
" style="fill: none; stroke: #4c72b0; stroke-width: 1.5; stroke-linecap: round"/>
    </g>
    <g id="text_22">
     <!-- mopt-0-exid4 -->
     <g style="fill: #262626" transform="translate(386.3 284.204031)scale(0.11 -0.11)">
      <defs>
       <path id="DejaVuSans-70" d="M 1159 525 
L 1159 -1331 
L 581 -1331 
L 581 3500 
L 1159 3500 
L 1159 2969 
Q 1341 3281 1617 3432 
Q 1894 3584 2278 3584 
Q 2916 3584 3314 3078 
Q 3713 2572 3713 1747 
Q 3713 922 3314 415 
Q 2916 -91 2278 -91 
Q 1894 -91 1617 61 
Q 1341 213 1159 525 
z
M 3116 1747 
Q 3116 2381 2855 2742 
Q 2594 3103 2138 3103 
Q 1681 3103 1420 2742 
Q 1159 2381 1159 1747 
Q 1159 1113 1420 752 
Q 1681 391 2138 391 
Q 2594 391 2855 752 
Q 3116 1113 3116 1747 
z
" transform="scale(0.015625)"/>
       <path id="DejaVuSans-2d" d="M 313 2009 
L 1997 2009 
L 1997 1497 
L 313 1497 
L 313 2009 
z
" transform="scale(0.015625)"/>
       <path id="DejaVuSans-78" d="M 3513 3500 
L 2247 1797 
L 3578 0 
L 2900 0 
L 1881 1375 
L 863 0 
L 184 0 
L 1544 1831 
L 300 3500 
L 978 3500 
L 1906 2253 
L 2834 3500 
L 3513 3500 
z
" transform="scale(0.015625)"/>
       <path id="DejaVuSans-64" d="M 2906 2969 
L 2906 4863 
L 3481 4863 
L 3481 0 
L 2906 0 
L 2906 525 
Q 2725 213 2448 61 
Q 2172 -91 1784 -91 
Q 1150 -91 751 415 
Q 353 922 353 1747 
Q 353 2572 751 3078 
Q 1150 3584 1784 3584 
Q 2172 3584 2448 3432 
Q 2725 3281 2906 2969 
z
M 947 1747 
Q 947 1113 1208 752 
Q 1469 391 1925 391 
Q 2381 391 2643 752 
Q 2906 1113 2906 1747 
Q 2906 2381 2643 2742 
Q 2381 3103 1925 3103 
Q 1469 3103 1208 2742 
Q 947 2381 947 1747 
z
" transform="scale(0.015625)"/>
      </defs>
      <use xlink:href="#DejaVuSans-6d"/>
      <use xlink:href="#DejaVuSans-6f" x="97.412109"/>
      <use xlink:href="#DejaVuSans-70" x="158.59375"/>
      <use xlink:href="#DejaVuSans-74" x="222.070312"/>
      <use xlink:href="#DejaVuSans-2d" x="261.279297"/>
      <use xlink:href="#DejaVuSans-30" x="297.363281"/>
      <use xlink:href="#DejaVuSans-2d" x="360.986328"/>
      <use xlink:href="#DejaVuSans-65" x="397.070312"/>
      <use xlink:href="#DejaVuSans-78" x="456.84375"/>
      <use xlink:href="#DejaVuSans-69" x="516.023438"/>
      <use xlink:href="#DejaVuSans-64" x="543.806641"/>
      <use xlink:href="#DejaVuSans-34" x="607.283203"/>
     </g>
    </g>
    <g id="line2d_27">
     <path d="M 355.5 296.499969 
L 366.5 296.499969 
L 377.5 296.499969 
" style="fill: none; stroke: #dd8452; stroke-width: 1.5; stroke-linecap: round"/>
    </g>
    <g id="text_23">
     <!-- fairfuzz-0-exid4 -->
     <g style="fill: #262626" transform="translate(386.3 300.349969)scale(0.11 -0.11)">
      <defs>
       <path id="DejaVuSans-61" d="M 2194 1759 
Q 1497 1759 1228 1600 
Q 959 1441 959 1056 
Q 959 750 1161 570 
Q 1363 391 1709 391 
Q 2188 391 2477 730 
Q 2766 1069 2766 1631 
L 2766 1759 
L 2194 1759 
z
M 3341 1997 
L 3341 0 
L 2766 0 
L 2766 531 
Q 2569 213 2275 61 
Q 1981 -91 1556 -91 
Q 1019 -91 701 211 
Q 384 513 384 1019 
Q 384 1609 779 1909 
Q 1175 2209 1959 2209 
L 2766 2209 
L 2766 2266 
Q 2766 2663 2505 2880 
Q 2244 3097 1772 3097 
Q 1472 3097 1187 3025 
Q 903 2953 641 2809 
L 641 3341 
Q 956 3463 1253 3523 
Q 1550 3584 1831 3584 
Q 2591 3584 2966 3190 
Q 3341 2797 3341 1997 
z
" transform="scale(0.015625)"/>
      </defs>
      <use xlink:href="#DejaVuSans-66"/>
      <use xlink:href="#DejaVuSans-61" x="35.205078"/>
      <use xlink:href="#DejaVuSans-69" x="96.484375"/>
      <use xlink:href="#DejaVuSans-72" x="124.267578"/>
      <use xlink:href="#DejaVuSans-66" x="165.380859"/>
      <use xlink:href="#DejaVuSans-75" x="200.585938"/>
      <use xlink:href="#DejaVuSans-7a" x="263.964844"/>
      <use xlink:href="#DejaVuSans-7a" x="316.455078"/>
      <use xlink:href="#DejaVuSans-2d" x="368.945312"/>
      <use xlink:href="#DejaVuSans-30" x="405.029297"/>
      <use xlink:href="#DejaVuSans-2d" x="468.652344"/>
      <use xlink:href="#DejaVuSans-65" x="504.736328"/>
      <use xlink:href="#DejaVuSans-78" x="564.509766"/>
      <use xlink:href="#DejaVuSans-69" x="623.689453"/>
      <use xlink:href="#DejaVuSans-64" x="651.472656"/>
      <use xlink:href="#DejaVuSans-34" x="714.949219"/>
     </g>
    </g>
    <g id="line2d_28">
     <path d="M 355.5 312.645906 
L 366.5 312.645906 
L 377.5 312.645906 
" style="fill: none; stroke: #55a868; stroke-width: 1.5; stroke-linecap: round"/>
    </g>
    <g id="text_24">
     <!-- symcc-0-exid4 -->
     <g style="fill: #262626" transform="translate(386.3 316.495906)scale(0.11 -0.11)">
      <use xlink:href="#DejaVuSans-73"/>
      <use xlink:href="#DejaVuSans-79" x="52.099609"/>
      <use xlink:href="#DejaVuSans-6d" x="111.279297"/>
      <use xlink:href="#DejaVuSans-63" x="208.691406"/>
      <use xlink:href="#DejaVuSans-63" x="263.671875"/>
      <use xlink:href="#DejaVuSans-2d" x="318.652344"/>
      <use xlink:href="#DejaVuSans-30" x="354.736328"/>
      <use xlink:href="#DejaVuSans-2d" x="418.359375"/>
      <use xlink:href="#DejaVuSans-65" x="454.443359"/>
      <use xlink:href="#DejaVuSans-78" x="514.216797"/>
      <use xlink:href="#DejaVuSans-69" x="573.396484"/>
      <use xlink:href="#DejaVuSans-64" x="601.179688"/>
      <use xlink:href="#DejaVuSans-34" x="664.65625"/>
     </g>
    </g>
    <g id="line2d_29">
     <path d="M 355.5 328.791844 
L 366.5 328.791844 
L 377.5 328.791844 
" style="fill: none; stroke: #c44e52; stroke-width: 1.5; stroke-linecap: round"/>
    </g>
    <g id="text_25">
     <!-- aflplusplus-0-exid4 -->
     <g style="fill: #262626" transform="translate(386.3 332.641844)scale(0.11 -0.11)">
      <defs>
       <path id="DejaVuSans-6c" d="M 603 4863 
L 1178 4863 
L 1178 0 
L 603 0 
L 603 4863 
z
" transform="scale(0.015625)"/>
      </defs>
      <use xlink:href="#DejaVuSans-61"/>
      <use xlink:href="#DejaVuSans-66" x="61.279297"/>
      <use xlink:href="#DejaVuSans-6c" x="96.484375"/>
      <use xlink:href="#DejaVuSans-70" x="124.267578"/>
      <use xlink:href="#DejaVuSans-6c" x="187.744141"/>
      <use xlink:href="#DejaVuSans-75" x="215.527344"/>
      <use xlink:href="#DejaVuSans-73" x="278.90625"/>
      <use xlink:href="#DejaVuSans-70" x="331.005859"/>
      <use xlink:href="#DejaVuSans-6c" x="394.482422"/>
      <use xlink:href="#DejaVuSans-75" x="422.265625"/>
      <use xlink:href="#DejaVuSans-73" x="485.644531"/>
      <use xlink:href="#DejaVuSans-2d" x="537.744141"/>
      <use xlink:href="#DejaVuSans-30" x="573.828125"/>
      <use xlink:href="#DejaVuSans-2d" x="637.451172"/>
      <use xlink:href="#DejaVuSans-65" x="673.535156"/>
      <use xlink:href="#DejaVuSans-78" x="733.308594"/>
      <use xlink:href="#DejaVuSans-69" x="792.488281"/>
      <use xlink:href="#DejaVuSans-64" x="820.271484"/>
      <use xlink:href="#DejaVuSans-34" x="883.748047"/>
     </g>
    </g>
   </g>
  </g>
 </g>
 <defs>
  <clipPath id="pca0c1e5052">
   <rect x="345.6" y="248.832" width="2142.72" height="1596.672"/>
  </clipPath>
 </defs>
</svg>
