<?xml version="1.0" encoding="utf-8" standalone="no"?>
<!DOCTYPE svg PUBLIC "-//W3C//DTD SVG 1.1//EN"
  "http://www.w3.org/Graphics/SVG/1.1/DTD/svg11.dtd">
<svg xmlns:xlink="http://www.w3.org/1999/xlink" width="434.7pt" height="576pt" viewBox="0 0 434.7 576" xmlns="http://www.w3.org/2000/svg" version="1.1">
 <metadata>
  <rdf:RDF xmlns:dc="http://purl.org/dc/elements/1.1/" xmlns:cc="http://creativecommons.org/ns#" xmlns:rdf="http://www.w3.org/1999/02/22-rdf-syntax-ns#">
   <cc:Work>
    <dc:type rdf:resource="http://purl.org/dc/dcmitype/StillImage"/>
    <dc:date>2022-09-15T10:40:09.417404</dc:date>
    <dc:format>image/svg+xml</dc:format>
    <dc:creator>
     <cc:Agent>
      <dc:title>Matplotlib v3.5.3, https://matplotlib.org/</dc:title>
     </cc:Agent>
    </dc:creator>
   </cc:Work>
  </rdf:RDF>
 </metadata>
 <defs>
  <style type="text/css">*{stroke-linejoin: round; stroke-linecap: butt}</style>
 </defs>
 <g id="figure_1">
  <g id="patch_1">
   <path d="M 0 576 
L 434.7 576 
L 434.7 0 
L 0 0 
z
" style="fill: #ffffff"/>
  </g>
  <g id="axes_1">
   <g id="patch_2">
    <path d="M 54.3375 512.64 
L 391.23 512.64 
L 391.23 69.12 
L 54.3375 69.12 
z
" style="fill: #ffffff"/>
   </g>
   <g id="matplotlib.axis_1">
    <g id="xtick_1">
     <g id="line2d_1">
      <path d="M 69.650795 512.64 
L 69.650795 69.12 
" clip-path="url(#p11b053011e)" style="fill: none; stroke: #cccccc; stroke-width: 0.8; stroke-linecap: round"/>
     </g>
     <g id="text_1">
      <!-- 0 -->
      <g style="fill: #262626" transform="translate(69.388282 529.627249)rotate(-45)scale(0.088 -0.088)">
       <defs>
        <path id="DejaVuSans-30" d="M 2034 4250 
Q 1547 4250 1301 3770 
Q 1056 3291 1056 2328 
Q 1056 1369 1301 889 
Q 1547 409 2034 409 
Q 2525 409 2770 889 
Q 3016 1369 3016 2328 
Q 3016 3291 2770 3770 
Q 2525 4250 2034 4250 
z
M 2034 4750 
Q 2819 4750 3233 4129 
Q 3647 3509 3647 2328 
Q 3647 1150 3233 529 
Q 2819 -91 2034 -91 
Q 1250 -91 836 529 
Q 422 1150 422 2328 
Q 422 3509 836 4129 
Q 1250 4750 2034 4750 
z
" transform="scale(0.015625)"/>
       </defs>
       <use xlink:href="#DejaVuSans-30"/>
      </g>
     </g>
    </g>
    <g id="xtick_2">
     <g id="line2d_2">
      <path d="M 86.677392 512.64 
L 86.677392 69.12 
" clip-path="url(#p11b053011e)" style="fill: none; stroke: #cccccc; stroke-width: 0.8; stroke-linecap: round"/>
     </g>
     <g id="text_2">
      <!-- 80 -->
      <g style="fill: #262626" transform="translate(84.435333 533.58634)rotate(-45)scale(0.088 -0.088)">
       <defs>
        <path id="DejaVuSans-38" d="M 2034 2216 
Q 1584 2216 1326 1975 
Q 1069 1734 1069 1313 
Q 1069 891 1326 650 
Q 1584 409 2034 409 
Q 2484 409 2743 651 
Q 3003 894 3003 1313 
Q 3003 1734 2745 1975 
Q 2488 2216 2034 2216 
z
M 1403 2484 
Q 997 2584 770 2862 
Q 544 3141 544 3541 
Q 544 4100 942 4425 
Q 1341 4750 2034 4750 
Q 2731 4750 3128 4425 
Q 3525 4100 3525 3541 
Q 3525 3141 3298 2862 
Q 3072 2584 2669 2484 
Q 3125 2378 3379 2068 
Q 3634 1759 3634 1313 
Q 3634 634 3220 271 
Q 2806 -91 2034 -91 
Q 1263 -91 848 271 
Q 434 634 434 1313 
Q 434 1759 690 2068 
Q 947 2378 1403 2484 
z
M 1172 3481 
Q 1172 3119 1398 2916 
Q 1625 2713 2034 2713 
Q 2441 2713 2670 2916 
Q 2900 3119 2900 3481 
Q 2900 3844 2670 4047 
Q 2441 4250 2034 4250 
Q 1625 4250 1398 4047 
Q 1172 3844 1172 3481 
z
" transform="scale(0.015625)"/>
       </defs>
       <use xlink:href="#DejaVuSans-38"/>
       <use xlink:href="#DejaVuSans-30" x="63.623047"/>
      </g>
     </g>
    </g>
    <g id="xtick_3">
     <g id="line2d_3">
      <path d="M 103.703989 512.64 
L 103.703989 69.12 
" clip-path="url(#p11b053011e)" style="fill: none; stroke: #cccccc; stroke-width: 0.8; stroke-linecap: round"/>
     </g>
     <g id="text_3">
      <!-- 160 -->
      <g style="fill: #262626" transform="translate(99.482385 537.54543)rotate(-45)scale(0.088 -0.088)">
       <defs>
        <path id="DejaVuSans-31" d="M 794 531 
L 1825 531 
L 1825 4091 
L 703 3866 
L 703 4441 
L 1819 4666 
L 2450 4666 
L 2450 531 
L 3481 531 
L 3481 0 
L 794 0 
L 794 531 
z
" transform="scale(0.015625)"/>
        <path id="DejaVuSans-36" d="M 2113 2584 
Q 1688 2584 1439 2293 
Q 1191 2003 1191 1497 
Q 1191 994 1439 701 
Q 1688 409 2113 409 
Q 2538 409 2786 701 
Q 3034 994 3034 1497 
Q 3034 2003 2786 2293 
Q 2538 2584 2113 2584 
z
M 3366 4563 
L 3366 3988 
Q 3128 4100 2886 4159 
Q 2644 4219 2406 4219 
Q 1781 4219 1451 3797 
Q 1122 3375 1075 2522 
Q 1259 2794 1537 2939 
Q 1816 3084 2150 3084 
Q 2853 3084 3261 2657 
Q 3669 2231 3669 1497 
Q 3669 778 3244 343 
Q 2819 -91 2113 -91 
Q 1303 -91 875 529 
Q 447 1150 447 2328 
Q 447 3434 972 4092 
Q 1497 4750 2381 4750 
Q 2619 4750 2861 4703 
Q 3103 4656 3366 4563 
z
" transform="scale(0.015625)"/>
       </defs>
       <use xlink:href="#DejaVuSans-31"/>
       <use xlink:href="#DejaVuSans-36" x="63.623047"/>
       <use xlink:href="#DejaVuSans-30" x="127.246094"/>
      </g>
     </g>
    </g>
    <g id="xtick_4">
     <g id="line2d_4">
      <path d="M 120.730586 512.64 
L 120.730586 69.12 
" clip-path="url(#p11b053011e)" style="fill: none; stroke: #cccccc; stroke-width: 0.8; stroke-linecap: round"/>
     </g>
     <g id="text_4">
      <!-- 240 -->
      <g style="fill: #262626" transform="translate(116.508981 537.54543)rotate(-45)scale(0.088 -0.088)">
       <defs>
        <path id="DejaVuSans-32" d="M 1228 531 
L 3431 531 
L 3431 0 
L 469 0 
L 469 531 
Q 828 903 1448 1529 
Q 2069 2156 2228 2338 
Q 2531 2678 2651 2914 
Q 2772 3150 2772 3378 
Q 2772 3750 2511 3984 
Q 2250 4219 1831 4219 
Q 1534 4219 1204 4116 
Q 875 4013 500 3803 
L 500 4441 
Q 881 4594 1212 4672 
Q 1544 4750 1819 4750 
Q 2544 4750 2975 4387 
Q 3406 4025 3406 3419 
Q 3406 3131 3298 2873 
Q 3191 2616 2906 2266 
Q 2828 2175 2409 1742 
Q 1991 1309 1228 531 
z
" transform="scale(0.015625)"/>
        <path id="DejaVuSans-34" d="M 2419 4116 
L 825 1625 
L 2419 1625 
L 2419 4116 
z
M 2253 4666 
L 3047 4666 
L 3047 1625 
L 3713 1625 
L 3713 1100 
L 3047 1100 
L 3047 0 
L 2419 0 
L 2419 1100 
L 313 1100 
L 313 1709 
L 2253 4666 
z
" transform="scale(0.015625)"/>
       </defs>
       <use xlink:href="#DejaVuSans-32"/>
       <use xlink:href="#DejaVuSans-34" x="63.623047"/>
       <use xlink:href="#DejaVuSans-30" x="127.246094"/>
      </g>
     </g>
    </g>
    <g id="xtick_5">
     <g id="line2d_5">
      <path d="M 137.757182 512.64 
L 137.757182 69.12 
" clip-path="url(#p11b053011e)" style="fill: none; stroke: #cccccc; stroke-width: 0.8; stroke-linecap: round"/>
     </g>
     <g id="text_5">
      <!-- 320 -->
      <g style="fill: #262626" transform="translate(133.535578 537.54543)rotate(-45)scale(0.088 -0.088)">
       <defs>
        <path id="DejaVuSans-33" d="M 2597 2516 
Q 3050 2419 3304 2112 
Q 3559 1806 3559 1356 
Q 3559 666 3084 287 
Q 2609 -91 1734 -91 
Q 1441 -91 1130 -33 
Q 819 25 488 141 
L 488 750 
Q 750 597 1062 519 
Q 1375 441 1716 441 
Q 2309 441 2620 675 
Q 2931 909 2931 1356 
Q 2931 1769 2642 2001 
Q 2353 2234 1838 2234 
L 1294 2234 
L 1294 2753 
L 1863 2753 
Q 2328 2753 2575 2939 
Q 2822 3125 2822 3475 
Q 2822 3834 2567 4026 
Q 2313 4219 1838 4219 
Q 1578 4219 1281 4162 
Q 984 4106 628 3988 
L 628 4550 
Q 988 4650 1302 4700 
Q 1616 4750 1894 4750 
Q 2613 4750 3031 4423 
Q 3450 4097 3450 3541 
Q 3450 3153 3228 2886 
Q 3006 2619 2597 2516 
z
" transform="scale(0.015625)"/>
       </defs>
       <use xlink:href="#DejaVuSans-33"/>
       <use xlink:href="#DejaVuSans-32" x="63.623047"/>
       <use xlink:href="#DejaVuSans-30" x="127.246094"/>
      </g>
     </g>
    </g>
    <g id="xtick_6">
     <g id="line2d_6">
      <path d="M 154.783779 512.64 
L 154.783779 69.12 
" clip-path="url(#p11b053011e)" style="fill: none; stroke: #cccccc; stroke-width: 0.8; stroke-linecap: round"/>
     </g>
     <g id="text_6">
      <!-- 400 -->
      <g style="fill: #262626" transform="translate(150.562175 537.54543)rotate(-45)scale(0.088 -0.088)">
       <use xlink:href="#DejaVuSans-34"/>
       <use xlink:href="#DejaVuSans-30" x="63.623047"/>
       <use xlink:href="#DejaVuSans-30" x="127.246094"/>
      </g>
     </g>
    </g>
    <g id="xtick_7">
     <g id="line2d_7">
      <path d="M 171.810376 512.64 
L 171.810376 69.12 
" clip-path="url(#p11b053011e)" style="fill: none; stroke: #cccccc; stroke-width: 0.8; stroke-linecap: round"/>
     </g>
     <g id="text_7">
      <!-- 480 -->
      <g style="fill: #262626" transform="translate(167.588772 537.54543)rotate(-45)scale(0.088 -0.088)">
       <use xlink:href="#DejaVuSans-34"/>
       <use xlink:href="#DejaVuSans-38" x="63.623047"/>
       <use xlink:href="#DejaVuSans-30" x="127.246094"/>
      </g>
     </g>
    </g>
    <g id="xtick_8">
     <g id="line2d_8">
      <path d="M 188.836973 512.64 
L 188.836973 69.12 
" clip-path="url(#p11b053011e)" style="fill: none; stroke: #cccccc; stroke-width: 0.8; stroke-linecap: round"/>
     </g>
     <g id="text_8">
      <!-- 560 -->
      <g style="fill: #262626" transform="translate(184.615368 537.54543)rotate(-45)scale(0.088 -0.088)">
       <defs>
        <path id="DejaVuSans-35" d="M 691 4666 
L 3169 4666 
L 3169 4134 
L 1269 4134 
L 1269 2991 
Q 1406 3038 1543 3061 
Q 1681 3084 1819 3084 
Q 2600 3084 3056 2656 
Q 3513 2228 3513 1497 
Q 3513 744 3044 326 
Q 2575 -91 1722 -91 
Q 1428 -91 1123 -41 
Q 819 9 494 109 
L 494 744 
Q 775 591 1075 516 
Q 1375 441 1709 441 
Q 2250 441 2565 725 
Q 2881 1009 2881 1497 
Q 2881 1984 2565 2268 
Q 2250 2553 1709 2553 
Q 1456 2553 1204 2497 
Q 953 2441 691 2322 
L 691 4666 
z
" transform="scale(0.015625)"/>
       </defs>
       <use xlink:href="#DejaVuSans-35"/>
       <use xlink:href="#DejaVuSans-36" x="63.623047"/>
       <use xlink:href="#DejaVuSans-30" x="127.246094"/>
      </g>
     </g>
    </g>
    <g id="xtick_9">
     <g id="line2d_9">
      <path d="M 205.863569 512.64 
L 205.863569 69.12 
" clip-path="url(#p11b053011e)" style="fill: none; stroke: #cccccc; stroke-width: 0.8; stroke-linecap: round"/>
     </g>
     <g id="text_9">
      <!-- 640 -->
      <g style="fill: #262626" transform="translate(201.641965 537.54543)rotate(-45)scale(0.088 -0.088)">
       <use xlink:href="#DejaVuSans-36"/>
       <use xlink:href="#DejaVuSans-34" x="63.623047"/>
       <use xlink:href="#DejaVuSans-30" x="127.246094"/>
      </g>
     </g>
    </g>
    <g id="xtick_10">
     <g id="line2d_10">
      <path d="M 222.890166 512.64 
L 222.890166 69.12 
" clip-path="url(#p11b053011e)" style="fill: none; stroke: #cccccc; stroke-width: 0.8; stroke-linecap: round"/>
     </g>
     <g id="text_10">
      <!-- 720 -->
      <g style="fill: #262626" transform="translate(218.668562 537.54543)rotate(-45)scale(0.088 -0.088)">
       <defs>
        <path id="DejaVuSans-37" d="M 525 4666 
L 3525 4666 
L 3525 4397 
L 1831 0 
L 1172 0 
L 2766 4134 
L 525 4134 
L 525 4666 
z
" transform="scale(0.015625)"/>
       </defs>
       <use xlink:href="#DejaVuSans-37"/>
       <use xlink:href="#DejaVuSans-32" x="63.623047"/>
       <use xlink:href="#DejaVuSans-30" x="127.246094"/>
      </g>
     </g>
    </g>
    <g id="xtick_11">
     <g id="line2d_11">
      <path d="M 239.916763 512.64 
L 239.916763 69.12 
" clip-path="url(#p11b053011e)" style="fill: none; stroke: #cccccc; stroke-width: 0.8; stroke-linecap: round"/>
     </g>
     <g id="text_11">
      <!-- 800 -->
      <g style="fill: #262626" transform="translate(235.695159 537.54543)rotate(-45)scale(0.088 -0.088)">
       <use xlink:href="#DejaVuSans-38"/>
       <use xlink:href="#DejaVuSans-30" x="63.623047"/>
       <use xlink:href="#DejaVuSans-30" x="127.246094"/>
      </g>
     </g>
    </g>
    <g id="xtick_12">
     <g id="line2d_12">
      <path d="M 256.94336 512.64 
L 256.94336 69.12 
" clip-path="url(#p11b053011e)" style="fill: none; stroke: #cccccc; stroke-width: 0.8; stroke-linecap: round"/>
     </g>
     <g id="text_12">
      <!-- 880 -->
      <g style="fill: #262626" transform="translate(252.721755 537.54543)rotate(-45)scale(0.088 -0.088)">
       <use xlink:href="#DejaVuSans-38"/>
       <use xlink:href="#DejaVuSans-38" x="63.623047"/>
       <use xlink:href="#DejaVuSans-30" x="127.246094"/>
      </g>
     </g>
    </g>
    <g id="xtick_13">
     <g id="line2d_13">
      <path d="M 273.969956 512.64 
L 273.969956 69.12 
" clip-path="url(#p11b053011e)" style="fill: none; stroke: #cccccc; stroke-width: 0.8; stroke-linecap: round"/>
     </g>
     <g id="text_13">
      <!-- 960 -->
      <g style="fill: #262626" transform="translate(269.748352 537.54543)rotate(-45)scale(0.088 -0.088)">
       <defs>
        <path id="DejaVuSans-39" d="M 703 97 
L 703 672 
Q 941 559 1184 500 
Q 1428 441 1663 441 
Q 2288 441 2617 861 
Q 2947 1281 2994 2138 
Q 2813 1869 2534 1725 
Q 2256 1581 1919 1581 
Q 1219 1581 811 2004 
Q 403 2428 403 3163 
Q 403 3881 828 4315 
Q 1253 4750 1959 4750 
Q 2769 4750 3195 4129 
Q 3622 3509 3622 2328 
Q 3622 1225 3098 567 
Q 2575 -91 1691 -91 
Q 1453 -91 1209 -44 
Q 966 3 703 97 
z
M 1959 2075 
Q 2384 2075 2632 2365 
Q 2881 2656 2881 3163 
Q 2881 3666 2632 3958 
Q 2384 4250 1959 4250 
Q 1534 4250 1286 3958 
Q 1038 3666 1038 3163 
Q 1038 2656 1286 2365 
Q 1534 2075 1959 2075 
z
" transform="scale(0.015625)"/>
       </defs>
       <use xlink:href="#DejaVuSans-39"/>
       <use xlink:href="#DejaVuSans-36" x="63.623047"/>
       <use xlink:href="#DejaVuSans-30" x="127.246094"/>
      </g>
     </g>
    </g>
    <g id="xtick_14">
     <g id="line2d_14">
      <path d="M 290.996553 512.64 
L 290.996553 69.12 
" clip-path="url(#p11b053011e)" style="fill: none; stroke: #cccccc; stroke-width: 0.8; stroke-linecap: round"/>
     </g>
     <g id="text_14">
      <!-- 1040 -->
      <g style="fill: #262626" transform="translate(284.795404 541.504521)rotate(-45)scale(0.088 -0.088)">
       <use xlink:href="#DejaVuSans-31"/>
       <use xlink:href="#DejaVuSans-30" x="63.623047"/>
       <use xlink:href="#DejaVuSans-34" x="127.246094"/>
       <use xlink:href="#DejaVuSans-30" x="190.869141"/>
      </g>
     </g>
    </g>
    <g id="xtick_15">
     <g id="line2d_15">
      <path d="M 308.02315 512.64 
L 308.02315 69.12 
" clip-path="url(#p11b053011e)" style="fill: none; stroke: #cccccc; stroke-width: 0.8; stroke-linecap: round"/>
     </g>
     <g id="text_15">
      <!-- 1120 -->
      <g style="fill: #262626" transform="translate(301.822 541.504521)rotate(-45)scale(0.088 -0.088)">
       <use xlink:href="#DejaVuSans-31"/>
       <use xlink:href="#DejaVuSans-31" x="63.623047"/>
       <use xlink:href="#DejaVuSans-32" x="127.246094"/>
       <use xlink:href="#DejaVuSans-30" x="190.869141"/>
      </g>
     </g>
    </g>
    <g id="xtick_16">
     <g id="line2d_16">
      <path d="M 325.049747 512.64 
L 325.049747 69.12 
" clip-path="url(#p11b053011e)" style="fill: none; stroke: #cccccc; stroke-width: 0.8; stroke-linecap: round"/>
     </g>
     <g id="text_16">
      <!-- 1200 -->
      <g style="fill: #262626" transform="translate(318.848597 541.504521)rotate(-45)scale(0.088 -0.088)">
       <use xlink:href="#DejaVuSans-31"/>
       <use xlink:href="#DejaVuSans-32" x="63.623047"/>
       <use xlink:href="#DejaVuSans-30" x="127.246094"/>
       <use xlink:href="#DejaVuSans-30" x="190.869141"/>
      </g>
     </g>
    </g>
    <g id="xtick_17">
     <g id="line2d_17">
      <path d="M 342.076343 512.64 
L 342.076343 69.12 
" clip-path="url(#p11b053011e)" style="fill: none; stroke: #cccccc; stroke-width: 0.8; stroke-linecap: round"/>
     </g>
     <g id="text_17">
      <!-- 1280 -->
      <g style="fill: #262626" transform="translate(335.875194 541.504521)rotate(-45)scale(0.088 -0.088)">
       <use xlink:href="#DejaVuSans-31"/>
       <use xlink:href="#DejaVuSans-32" x="63.623047"/>
       <use xlink:href="#DejaVuSans-38" x="127.246094"/>
       <use xlink:href="#DejaVuSans-30" x="190.869141"/>
      </g>
     </g>
    </g>
    <g id="xtick_18">
     <g id="line2d_18">
      <path d="M 359.10294 512.64 
L 359.10294 69.12 
" clip-path="url(#p11b053011e)" style="fill: none; stroke: #cccccc; stroke-width: 0.8; stroke-linecap: round"/>
     </g>
     <g id="text_18">
      <!-- 1360 -->
      <g style="fill: #262626" transform="translate(352.901791 541.504521)rotate(-45)scale(0.088 -0.088)">
       <use xlink:href="#DejaVuSans-31"/>
       <use xlink:href="#DejaVuSans-33" x="63.623047"/>
       <use xlink:href="#DejaVuSans-36" x="127.246094"/>
       <use xlink:href="#DejaVuSans-30" x="190.869141"/>
      </g>
     </g>
    </g>
    <g id="xtick_19">
     <g id="line2d_19">
      <path d="M 376.129537 512.64 
L 376.129537 69.12 
" clip-path="url(#p11b053011e)" style="fill: none; stroke: #cccccc; stroke-width: 0.8; stroke-linecap: round"/>
     </g>
     <g id="text_19">
      <!-- 1440 -->
      <g style="fill: #262626" transform="translate(369.928387 541.504521)rotate(-45)scale(0.088 -0.088)">
       <use xlink:href="#DejaVuSans-31"/>
       <use xlink:href="#DejaVuSans-34" x="63.623047"/>
       <use xlink:href="#DejaVuSans-34" x="127.246094"/>
       <use xlink:href="#DejaVuSans-30" x="190.869141"/>
      </g>
     </g>
    </g>
    <g id="text_20">
     <!-- Time (Minutes) -->
     <g style="fill: #262626" transform="translate(186.87375 554.093115)scale(0.096 -0.096)">
      <defs>
       <path id="DejaVuSans-54" d="M -19 4666 
L 3928 4666 
L 3928 4134 
L 2272 4134 
L 2272 0 
L 1638 0 
L 1638 4134 
L -19 4134 
L -19 4666 
z
" transform="scale(0.015625)"/>
       <path id="DejaVuSans-69" d="M 603 3500 
L 1178 3500 
L 1178 0 
L 603 0 
L 603 3500 
z
M 603 4863 
L 1178 4863 
L 1178 4134 
L 603 4134 
L 603 4863 
z
" transform="scale(0.015625)"/>
       <path id="DejaVuSans-6d" d="M 3328 2828 
Q 3544 3216 3844 3400 
Q 4144 3584 4550 3584 
Q 5097 3584 5394 3201 
Q 5691 2819 5691 2113 
L 5691 0 
L 5113 0 
L 5113 2094 
Q 5113 2597 4934 2840 
Q 4756 3084 4391 3084 
Q 3944 3084 3684 2787 
Q 3425 2491 3425 1978 
L 3425 0 
L 2847 0 
L 2847 2094 
Q 2847 2600 2669 2842 
Q 2491 3084 2119 3084 
Q 1678 3084 1418 2786 
Q 1159 2488 1159 1978 
L 1159 0 
L 581 0 
L 581 3500 
L 1159 3500 
L 1159 2956 
Q 1356 3278 1631 3431 
Q 1906 3584 2284 3584 
Q 2666 3584 2933 3390 
Q 3200 3197 3328 2828 
z
" transform="scale(0.015625)"/>
       <path id="DejaVuSans-65" d="M 3597 1894 
L 3597 1613 
L 953 1613 
Q 991 1019 1311 708 
Q 1631 397 2203 397 
Q 2534 397 2845 478 
Q 3156 559 3463 722 
L 3463 178 
Q 3153 47 2828 -22 
Q 2503 -91 2169 -91 
Q 1331 -91 842 396 
Q 353 884 353 1716 
Q 353 2575 817 3079 
Q 1281 3584 2069 3584 
Q 2775 3584 3186 3129 
Q 3597 2675 3597 1894 
z
M 3022 2063 
Q 3016 2534 2758 2815 
Q 2500 3097 2075 3097 
Q 1594 3097 1305 2825 
Q 1016 2553 972 2059 
L 3022 2063 
z
" transform="scale(0.015625)"/>
       <path id="DejaVuSans-20" transform="scale(0.015625)"/>
       <path id="DejaVuSans-28" d="M 1984 4856 
Q 1566 4138 1362 3434 
Q 1159 2731 1159 2009 
Q 1159 1288 1364 580 
Q 1569 -128 1984 -844 
L 1484 -844 
Q 1016 -109 783 600 
Q 550 1309 550 2009 
Q 550 2706 781 3412 
Q 1013 4119 1484 4856 
L 1984 4856 
z
" transform="scale(0.015625)"/>
       <path id="DejaVuSans-4d" d="M 628 4666 
L 1569 4666 
L 2759 1491 
L 3956 4666 
L 4897 4666 
L 4897 0 
L 4281 0 
L 4281 4097 
L 3078 897 
L 2444 897 
L 1241 4097 
L 1241 0 
L 628 0 
L 628 4666 
z
" transform="scale(0.015625)"/>
       <path id="DejaVuSans-6e" d="M 3513 2113 
L 3513 0 
L 2938 0 
L 2938 2094 
Q 2938 2591 2744 2837 
Q 2550 3084 2163 3084 
Q 1697 3084 1428 2787 
Q 1159 2491 1159 1978 
L 1159 0 
L 581 0 
L 581 3500 
L 1159 3500 
L 1159 2956 
Q 1366 3272 1645 3428 
Q 1925 3584 2291 3584 
Q 2894 3584 3203 3211 
Q 3513 2838 3513 2113 
z
" transform="scale(0.015625)"/>
       <path id="DejaVuSans-75" d="M 544 1381 
L 544 3500 
L 1119 3500 
L 1119 1403 
Q 1119 906 1312 657 
Q 1506 409 1894 409 
Q 2359 409 2629 706 
Q 2900 1003 2900 1516 
L 2900 3500 
L 3475 3500 
L 3475 0 
L 2900 0 
L 2900 538 
Q 2691 219 2414 64 
Q 2138 -91 1772 -91 
Q 1169 -91 856 284 
Q 544 659 544 1381 
z
M 1991 3584 
L 1991 3584 
z
" transform="scale(0.015625)"/>
       <path id="DejaVuSans-74" d="M 1172 4494 
L 1172 3500 
L 2356 3500 
L 2356 3053 
L 1172 3053 
L 1172 1153 
Q 1172 725 1289 603 
Q 1406 481 1766 481 
L 2356 481 
L 2356 0 
L 1766 0 
Q 1100 0 847 248 
Q 594 497 594 1153 
L 594 3053 
L 172 3053 
L 172 3500 
L 594 3500 
L 594 4494 
L 1172 4494 
z
" transform="scale(0.015625)"/>
       <path id="DejaVuSans-73" d="M 2834 3397 
L 2834 2853 
Q 2591 2978 2328 3040 
Q 2066 3103 1784 3103 
Q 1356 3103 1142 2972 
Q 928 2841 928 2578 
Q 928 2378 1081 2264 
Q 1234 2150 1697 2047 
L 1894 2003 
Q 2506 1872 2764 1633 
Q 3022 1394 3022 966 
Q 3022 478 2636 193 
Q 2250 -91 1575 -91 
Q 1294 -91 989 -36 
Q 684 19 347 128 
L 347 722 
Q 666 556 975 473 
Q 1284 391 1588 391 
Q 1994 391 2212 530 
Q 2431 669 2431 922 
Q 2431 1156 2273 1281 
Q 2116 1406 1581 1522 
L 1381 1569 
Q 847 1681 609 1914 
Q 372 2147 372 2553 
Q 372 3047 722 3315 
Q 1072 3584 1716 3584 
Q 2034 3584 2315 3537 
Q 2597 3491 2834 3397 
z
" transform="scale(0.015625)"/>
       <path id="DejaVuSans-29" d="M 513 4856 
L 1013 4856 
Q 1481 4119 1714 3412 
Q 1947 2706 1947 2009 
Q 1947 1309 1714 600 
Q 1481 -109 1013 -844 
L 513 -844 
Q 928 -128 1133 580 
Q 1338 1288 1338 2009 
Q 1338 2731 1133 3434 
Q 928 4138 513 4856 
z
" transform="scale(0.015625)"/>
      </defs>
      <use xlink:href="#DejaVuSans-54"/>
      <use xlink:href="#DejaVuSans-69" x="57.958984"/>
      <use xlink:href="#DejaVuSans-6d" x="85.742188"/>
      <use xlink:href="#DejaVuSans-65" x="183.154297"/>
      <use xlink:href="#DejaVuSans-20" x="244.677734"/>
      <use xlink:href="#DejaVuSans-28" x="276.464844"/>
      <use xlink:href="#DejaVuSans-4d" x="315.478516"/>
      <use xlink:href="#DejaVuSans-69" x="401.757812"/>
      <use xlink:href="#DejaVuSans-6e" x="429.541016"/>
      <use xlink:href="#DejaVuSans-75" x="492.919922"/>
      <use xlink:href="#DejaVuSans-74" x="556.298828"/>
      <use xlink:href="#DejaVuSans-65" x="595.507812"/>
      <use xlink:href="#DejaVuSans-73" x="657.03125"/>
      <use xlink:href="#DejaVuSans-29" x="709.130859"/>
     </g>
    </g>
   </g>
   <g id="matplotlib.axis_2">
    <g id="ytick_1">
     <g id="line2d_20">
      <path d="M 54.3375 492.48 
L 391.23 492.48 
" clip-path="url(#p11b053011e)" style="fill: none; stroke: #cccccc; stroke-width: 0.8; stroke-linecap: round"/>
     </g>
     <g id="text_21">
      <!-- 0 -->
      <g style="fill: #262626" transform="translate(40.4385 495.823312)scale(0.088 -0.088)">
       <use xlink:href="#DejaVuSans-30"/>
      </g>
     </g>
    </g>
    <g id="ytick_2">
     <g id="line2d_21">
      <path d="M 54.3375 470.191443 
L 391.23 470.191443 
" clip-path="url(#p11b053011e)" style="fill: none; stroke: #cccccc; stroke-width: 0.8; stroke-linecap: round"/>
     </g>
     <g id="text_22">
      <!-- 100 -->
      <g style="fill: #262626" transform="translate(29.2405 473.534755)scale(0.088 -0.088)">
       <use xlink:href="#DejaVuSans-31"/>
       <use xlink:href="#DejaVuSans-30" x="63.623047"/>
       <use xlink:href="#DejaVuSans-30" x="127.246094"/>
      </g>
     </g>
    </g>
    <g id="ytick_3">
     <g id="line2d_22">
      <path d="M 54.3375 447.902886 
L 391.23 447.902886 
" clip-path="url(#p11b053011e)" style="fill: none; stroke: #cccccc; stroke-width: 0.8; stroke-linecap: round"/>
     </g>
     <g id="text_23">
      <!-- 200 -->
      <g style="fill: #262626" transform="translate(29.2405 451.246198)scale(0.088 -0.088)">
       <use xlink:href="#DejaVuSans-32"/>
       <use xlink:href="#DejaVuSans-30" x="63.623047"/>
       <use xlink:href="#DejaVuSans-30" x="127.246094"/>
      </g>
     </g>
    </g>
    <g id="ytick_4">
     <g id="line2d_23">
      <path d="M 54.3375 425.614328 
L 391.23 425.614328 
" clip-path="url(#p11b053011e)" style="fill: none; stroke: #cccccc; stroke-width: 0.8; stroke-linecap: round"/>
     </g>
     <g id="text_24">
      <!-- 300 -->
      <g style="fill: #262626" transform="translate(29.2405 428.957641)scale(0.088 -0.088)">
       <use xlink:href="#DejaVuSans-33"/>
       <use xlink:href="#DejaVuSans-30" x="63.623047"/>
       <use xlink:href="#DejaVuSans-30" x="127.246094"/>
      </g>
     </g>
    </g>
    <g id="ytick_5">
     <g id="line2d_24">
      <path d="M 54.3375 403.325771 
L 391.23 403.325771 
" clip-path="url(#p11b053011e)" style="fill: none; stroke: #cccccc; stroke-width: 0.8; stroke-linecap: round"/>
     </g>
     <g id="text_25">
      <!-- 400 -->
      <g style="fill: #262626" transform="translate(29.2405 406.669084)scale(0.088 -0.088)">
       <use xlink:href="#DejaVuSans-34"/>
       <use xlink:href="#DejaVuSans-30" x="63.623047"/>
       <use xlink:href="#DejaVuSans-30" x="127.246094"/>
      </g>
     </g>
    </g>
    <g id="ytick_6">
     <g id="line2d_25">
      <path d="M 54.3375 381.037214 
L 391.23 381.037214 
" clip-path="url(#p11b053011e)" style="fill: none; stroke: #cccccc; stroke-width: 0.8; stroke-linecap: round"/>
     </g>
     <g id="text_26">
      <!-- 500 -->
      <g style="fill: #262626" transform="translate(29.2405 384.380526)scale(0.088 -0.088)">
       <use xlink:href="#DejaVuSans-35"/>
       <use xlink:href="#DejaVuSans-30" x="63.623047"/>
       <use xlink:href="#DejaVuSans-30" x="127.246094"/>
      </g>
     </g>
    </g>
    <g id="ytick_7">
     <g id="line2d_26">
      <path d="M 54.3375 358.748657 
L 391.23 358.748657 
" clip-path="url(#p11b053011e)" style="fill: none; stroke: #cccccc; stroke-width: 0.8; stroke-linecap: round"/>
     </g>
     <g id="text_27">
      <!-- 600 -->
      <g style="fill: #262626" transform="translate(29.2405 362.091969)scale(0.088 -0.088)">
       <use xlink:href="#DejaVuSans-36"/>
       <use xlink:href="#DejaVuSans-30" x="63.623047"/>
       <use xlink:href="#DejaVuSans-30" x="127.246094"/>
      </g>
     </g>
    </g>
    <g id="ytick_8">
     <g id="line2d_27">
      <path d="M 54.3375 336.4601 
L 391.23 336.4601 
" clip-path="url(#p11b053011e)" style="fill: none; stroke: #cccccc; stroke-width: 0.8; stroke-linecap: round"/>
     </g>
     <g id="text_28">
      <!-- 700 -->
      <g style="fill: #262626" transform="translate(29.2405 339.803412)scale(0.088 -0.088)">
       <use xlink:href="#DejaVuSans-37"/>
       <use xlink:href="#DejaVuSans-30" x="63.623047"/>
       <use xlink:href="#DejaVuSans-30" x="127.246094"/>
      </g>
     </g>
    </g>
    <g id="ytick_9">
     <g id="line2d_28">
      <path d="M 54.3375 314.171542 
L 391.23 314.171542 
" clip-path="url(#p11b053011e)" style="fill: none; stroke: #cccccc; stroke-width: 0.8; stroke-linecap: round"/>
     </g>
     <g id="text_29">
      <!-- 800 -->
      <g style="fill: #262626" transform="translate(29.2405 317.514855)scale(0.088 -0.088)">
       <use xlink:href="#DejaVuSans-38"/>
       <use xlink:href="#DejaVuSans-30" x="63.623047"/>
       <use xlink:href="#DejaVuSans-30" x="127.246094"/>
      </g>
     </g>
    </g>
    <g id="ytick_10">
     <g id="line2d_29">
      <path d="M 54.3375 291.882985 
L 391.23 291.882985 
" clip-path="url(#p11b053011e)" style="fill: none; stroke: #cccccc; stroke-width: 0.8; stroke-linecap: round"/>
     </g>
     <g id="text_30">
      <!-- 900 -->
      <g style="fill: #262626" transform="translate(29.2405 295.226298)scale(0.088 -0.088)">
       <use xlink:href="#DejaVuSans-39"/>
       <use xlink:href="#DejaVuSans-30" x="63.623047"/>
       <use xlink:href="#DejaVuSans-30" x="127.246094"/>
      </g>
     </g>
    </g>
    <g id="ytick_11">
     <g id="line2d_30">
      <path d="M 54.3375 269.594428 
L 391.23 269.594428 
" clip-path="url(#p11b053011e)" style="fill: none; stroke: #cccccc; stroke-width: 0.8; stroke-linecap: round"/>
     </g>
     <g id="text_31">
      <!-- 1000 -->
      <g style="fill: #262626" transform="translate(23.6415 272.93774)scale(0.088 -0.088)">
       <use xlink:href="#DejaVuSans-31"/>
       <use xlink:href="#DejaVuSans-30" x="63.623047"/>
       <use xlink:href="#DejaVuSans-30" x="127.246094"/>
       <use xlink:href="#DejaVuSans-30" x="190.869141"/>
      </g>
     </g>
    </g>
    <g id="ytick_12">
     <g id="line2d_31">
      <path d="M 54.3375 247.305871 
L 391.23 247.305871 
" clip-path="url(#p11b053011e)" style="fill: none; stroke: #cccccc; stroke-width: 0.8; stroke-linecap: round"/>
     </g>
     <g id="text_32">
      <!-- 1100 -->
      <g style="fill: #262626" transform="translate(23.6415 250.649183)scale(0.088 -0.088)">
       <use xlink:href="#DejaVuSans-31"/>
       <use xlink:href="#DejaVuSans-31" x="63.623047"/>
       <use xlink:href="#DejaVuSans-30" x="127.246094"/>
       <use xlink:href="#DejaVuSans-30" x="190.869141"/>
      </g>
     </g>
    </g>
    <g id="ytick_13">
     <g id="line2d_32">
      <path d="M 54.3375 225.017313 
L 391.23 225.017313 
" clip-path="url(#p11b053011e)" style="fill: none; stroke: #cccccc; stroke-width: 0.8; stroke-linecap: round"/>
     </g>
     <g id="text_33">
      <!-- 1200 -->
      <g style="fill: #262626" transform="translate(23.6415 228.360626)scale(0.088 -0.088)">
       <use xlink:href="#DejaVuSans-31"/>
       <use xlink:href="#DejaVuSans-32" x="63.623047"/>
       <use xlink:href="#DejaVuSans-30" x="127.246094"/>
       <use xlink:href="#DejaVuSans-30" x="190.869141"/>
      </g>
     </g>
    </g>
    <g id="ytick_14">
     <g id="line2d_33">
      <path d="M 54.3375 202.728756 
L 391.23 202.728756 
" clip-path="url(#p11b053011e)" style="fill: none; stroke: #cccccc; stroke-width: 0.8; stroke-linecap: round"/>
     </g>
     <g id="text_34">
      <!-- 1300 -->
      <g style="fill: #262626" transform="translate(23.6415 206.072069)scale(0.088 -0.088)">
       <use xlink:href="#DejaVuSans-31"/>
       <use xlink:href="#DejaVuSans-33" x="63.623047"/>
       <use xlink:href="#DejaVuSans-30" x="127.246094"/>
       <use xlink:href="#DejaVuSans-30" x="190.869141"/>
      </g>
     </g>
    </g>
    <g id="ytick_15">
     <g id="line2d_34">
      <path d="M 54.3375 180.440199 
L 391.23 180.440199 
" clip-path="url(#p11b053011e)" style="fill: none; stroke: #cccccc; stroke-width: 0.8; stroke-linecap: round"/>
     </g>
     <g id="text_35">
      <!-- 1400 -->
      <g style="fill: #262626" transform="translate(23.6415 183.783512)scale(0.088 -0.088)">
       <use xlink:href="#DejaVuSans-31"/>
       <use xlink:href="#DejaVuSans-34" x="63.623047"/>
       <use xlink:href="#DejaVuSans-30" x="127.246094"/>
       <use xlink:href="#DejaVuSans-30" x="190.869141"/>
      </g>
     </g>
    </g>
    <g id="ytick_16">
     <g id="line2d_35">
      <path d="M 54.3375 158.151642 
L 391.23 158.151642 
" clip-path="url(#p11b053011e)" style="fill: none; stroke: #cccccc; stroke-width: 0.8; stroke-linecap: round"/>
     </g>
     <g id="text_36">
      <!-- 1500 -->
      <g style="fill: #262626" transform="translate(23.6415 161.494954)scale(0.088 -0.088)">
       <use xlink:href="#DejaVuSans-31"/>
       <use xlink:href="#DejaVuSans-35" x="63.623047"/>
       <use xlink:href="#DejaVuSans-30" x="127.246094"/>
       <use xlink:href="#DejaVuSans-30" x="190.869141"/>
      </g>
     </g>
    </g>
    <g id="ytick_17">
     <g id="line2d_36">
      <path d="M 54.3375 135.863085 
L 391.23 135.863085 
" clip-path="url(#p11b053011e)" style="fill: none; stroke: #cccccc; stroke-width: 0.8; stroke-linecap: round"/>
     </g>
     <g id="text_37">
      <!-- 1600 -->
      <g style="fill: #262626" transform="translate(23.6415 139.206397)scale(0.088 -0.088)">
       <use xlink:href="#DejaVuSans-31"/>
       <use xlink:href="#DejaVuSans-36" x="63.623047"/>
       <use xlink:href="#DejaVuSans-30" x="127.246094"/>
       <use xlink:href="#DejaVuSans-30" x="190.869141"/>
      </g>
     </g>
    </g>
    <g id="ytick_18">
     <g id="line2d_37">
      <path d="M 54.3375 113.574527 
L 391.23 113.574527 
" clip-path="url(#p11b053011e)" style="fill: none; stroke: #cccccc; stroke-width: 0.8; stroke-linecap: round"/>
     </g>
     <g id="text_38">
      <!-- 1700 -->
      <g style="fill: #262626" transform="translate(23.6415 116.91784)scale(0.088 -0.088)">
       <use xlink:href="#DejaVuSans-31"/>
       <use xlink:href="#DejaVuSans-37" x="63.623047"/>
       <use xlink:href="#DejaVuSans-30" x="127.246094"/>
       <use xlink:href="#DejaVuSans-30" x="190.869141"/>
      </g>
     </g>
    </g>
    <g id="ytick_19">
     <g id="line2d_38">
      <path d="M 54.3375 91.28597 
L 391.23 91.28597 
" clip-path="url(#p11b053011e)" style="fill: none; stroke: #cccccc; stroke-width: 0.8; stroke-linecap: round"/>
     </g>
     <g id="text_39">
      <!-- 1800 -->
      <g style="fill: #262626" transform="translate(23.6415 94.629283)scale(0.088 -0.088)">
       <use xlink:href="#DejaVuSans-31"/>
       <use xlink:href="#DejaVuSans-38" x="63.623047"/>
       <use xlink:href="#DejaVuSans-30" x="127.246094"/>
       <use xlink:href="#DejaVuSans-30" x="190.869141"/>
      </g>
     </g>
    </g>
    <g id="text_40">
     <!-- Edge Coverages -->
     <g style="fill: #262626" transform="translate(17.645 329.98575)rotate(-90)scale(0.096 -0.096)">
      <defs>
       <path id="DejaVuSans-45" d="M 628 4666 
L 3578 4666 
L 3578 4134 
L 1259 4134 
L 1259 2753 
L 3481 2753 
L 3481 2222 
L 1259 2222 
L 1259 531 
L 3634 531 
L 3634 0 
L 628 0 
L 628 4666 
z
" transform="scale(0.015625)"/>
       <path id="DejaVuSans-64" d="M 2906 2969 
L 2906 4863 
L 3481 4863 
L 3481 0 
L 2906 0 
L 2906 525 
Q 2725 213 2448 61 
Q 2172 -91 1784 -91 
Q 1150 -91 751 415 
Q 353 922 353 1747 
Q 353 2572 751 3078 
Q 1150 3584 1784 3584 
Q 2172 3584 2448 3432 
Q 2725 3281 2906 2969 
z
M 947 1747 
Q 947 1113 1208 752 
Q 1469 391 1925 391 
Q 2381 391 2643 752 
Q 2906 1113 2906 1747 
Q 2906 2381 2643 2742 
Q 2381 3103 1925 3103 
Q 1469 3103 1208 2742 
Q 947 2381 947 1747 
z
" transform="scale(0.015625)"/>
       <path id="DejaVuSans-67" d="M 2906 1791 
Q 2906 2416 2648 2759 
Q 2391 3103 1925 3103 
Q 1463 3103 1205 2759 
Q 947 2416 947 1791 
Q 947 1169 1205 825 
Q 1463 481 1925 481 
Q 2391 481 2648 825 
Q 2906 1169 2906 1791 
z
M 3481 434 
Q 3481 -459 3084 -895 
Q 2688 -1331 1869 -1331 
Q 1566 -1331 1297 -1286 
Q 1028 -1241 775 -1147 
L 775 -588 
Q 1028 -725 1275 -790 
Q 1522 -856 1778 -856 
Q 2344 -856 2625 -561 
Q 2906 -266 2906 331 
L 2906 616 
Q 2728 306 2450 153 
Q 2172 0 1784 0 
Q 1141 0 747 490 
Q 353 981 353 1791 
Q 353 2603 747 3093 
Q 1141 3584 1784 3584 
Q 2172 3584 2450 3431 
Q 2728 3278 2906 2969 
L 2906 3500 
L 3481 3500 
L 3481 434 
z
" transform="scale(0.015625)"/>
       <path id="DejaVuSans-43" d="M 4122 4306 
L 4122 3641 
Q 3803 3938 3442 4084 
Q 3081 4231 2675 4231 
Q 1875 4231 1450 3742 
Q 1025 3253 1025 2328 
Q 1025 1406 1450 917 
Q 1875 428 2675 428 
Q 3081 428 3442 575 
Q 3803 722 4122 1019 
L 4122 359 
Q 3791 134 3420 21 
Q 3050 -91 2638 -91 
Q 1578 -91 968 557 
Q 359 1206 359 2328 
Q 359 3453 968 4101 
Q 1578 4750 2638 4750 
Q 3056 4750 3426 4639 
Q 3797 4528 4122 4306 
z
" transform="scale(0.015625)"/>
       <path id="DejaVuSans-6f" d="M 1959 3097 
Q 1497 3097 1228 2736 
Q 959 2375 959 1747 
Q 959 1119 1226 758 
Q 1494 397 1959 397 
Q 2419 397 2687 759 
Q 2956 1122 2956 1747 
Q 2956 2369 2687 2733 
Q 2419 3097 1959 3097 
z
M 1959 3584 
Q 2709 3584 3137 3096 
Q 3566 2609 3566 1747 
Q 3566 888 3137 398 
Q 2709 -91 1959 -91 
Q 1206 -91 779 398 
Q 353 888 353 1747 
Q 353 2609 779 3096 
Q 1206 3584 1959 3584 
z
" transform="scale(0.015625)"/>
       <path id="DejaVuSans-76" d="M 191 3500 
L 800 3500 
L 1894 563 
L 2988 3500 
L 3597 3500 
L 2284 0 
L 1503 0 
L 191 3500 
z
" transform="scale(0.015625)"/>
       <path id="DejaVuSans-72" d="M 2631 2963 
Q 2534 3019 2420 3045 
Q 2306 3072 2169 3072 
Q 1681 3072 1420 2755 
Q 1159 2438 1159 1844 
L 1159 0 
L 581 0 
L 581 3500 
L 1159 3500 
L 1159 2956 
Q 1341 3275 1631 3429 
Q 1922 3584 2338 3584 
Q 2397 3584 2469 3576 
Q 2541 3569 2628 3553 
L 2631 2963 
z
" transform="scale(0.015625)"/>
       <path id="DejaVuSans-61" d="M 2194 1759 
Q 1497 1759 1228 1600 
Q 959 1441 959 1056 
Q 959 750 1161 570 
Q 1363 391 1709 391 
Q 2188 391 2477 730 
Q 2766 1069 2766 1631 
L 2766 1759 
L 2194 1759 
z
M 3341 1997 
L 3341 0 
L 2766 0 
L 2766 531 
Q 2569 213 2275 61 
Q 1981 -91 1556 -91 
Q 1019 -91 701 211 
Q 384 513 384 1019 
Q 384 1609 779 1909 
Q 1175 2209 1959 2209 
L 2766 2209 
L 2766 2266 
Q 2766 2663 2505 2880 
Q 2244 3097 1772 3097 
Q 1472 3097 1187 3025 
Q 903 2953 641 2809 
L 641 3341 
Q 956 3463 1253 3523 
Q 1550 3584 1831 3584 
Q 2591 3584 2966 3190 
Q 3341 2797 3341 1997 
z
" transform="scale(0.015625)"/>
      </defs>
      <use xlink:href="#DejaVuSans-45"/>
      <use xlink:href="#DejaVuSans-64" x="63.183594"/>
      <use xlink:href="#DejaVuSans-67" x="126.660156"/>
      <use xlink:href="#DejaVuSans-65" x="190.136719"/>
      <use xlink:href="#DejaVuSans-20" x="251.660156"/>
      <use xlink:href="#DejaVuSans-43" x="283.447266"/>
      <use xlink:href="#DejaVuSans-6f" x="353.271484"/>
      <use xlink:href="#DejaVuSans-76" x="414.453125"/>
      <use xlink:href="#DejaVuSans-65" x="473.632812"/>
      <use xlink:href="#DejaVuSans-72" x="535.15625"/>
      <use xlink:href="#DejaVuSans-61" x="576.269531"/>
      <use xlink:href="#DejaVuSans-67" x="637.548828"/>
      <use xlink:href="#DejaVuSans-65" x="701.025391"/>
      <use xlink:href="#DejaVuSans-73" x="762.548828"/>
     </g>
    </g>
   </g>
   <g id="PolyCollection_1">
    <defs>
     <path id="m0a814ab989" d="M 69.650795 -113.832438 
L 69.650795 -83.52 
L 69.650795 -113.832438 
L 69.650795 -113.832438 
z
" style="stroke: #db5f57; stroke-opacity: 0.2; stroke-width: 0.8"/>
    </defs>
    <g clip-path="url(#p11b053011e)">
     <use xlink:href="#m0a814ab989" x="0" y="576" style="fill: #db5f57; fill-opacity: 0.2; stroke: #db5f57; stroke-opacity: 0.2; stroke-width: 0.8"/>
    </g>
   </g>
   <g id="PolyCollection_2">
    <defs>
     <path id="mf045bfe6a4" d="M 69.650795 -113.163781 
L 69.650795 -83.52 
L 69.650795 -113.163781 
L 69.650795 -113.163781 
z
" style="stroke: #b9db57; stroke-opacity: 0.2; stroke-width: 0.8"/>
    </defs>
    <g clip-path="url(#p11b053011e)">
     <use xlink:href="#mf045bfe6a4" x="0" y="576" style="fill: #b9db57; fill-opacity: 0.2; stroke: #b9db57; stroke-opacity: 0.2; stroke-width: 0.8"/>
    </g>
   </g>
   <g id="PolyCollection_3">
    <defs>
     <path id="m516ffa160e" d="M 69.650795 -101.796617 
L 69.650795 -83.52 
L 69.650795 -101.796617 
L 69.650795 -101.796617 
z
" style="stroke: #57db94; stroke-opacity: 0.2; stroke-width: 0.8"/>
    </defs>
    <g clip-path="url(#p11b053011e)">
     <use xlink:href="#m516ffa160e" x="0" y="576" style="fill: #57db94; fill-opacity: 0.2; stroke: #57db94; stroke-opacity: 0.2; stroke-width: 0.8"/>
    </g>
   </g>
   <g id="PolyCollection_4">
    <defs>
     <path id="m3974f9b8ef" d="M 69.650795 -101.796617 
L 69.650795 -83.52 
L 69.650795 -101.796617 
L 69.650795 -101.796617 
z
" style="stroke: #5784db; stroke-opacity: 0.2; stroke-width: 0.8"/>
    </defs>
    <g clip-path="url(#p11b053011e)">
     <use xlink:href="#m3974f9b8ef" x="0" y="576" style="fill: #5784db; fill-opacity: 0.2; stroke: #5784db; stroke-opacity: 0.2; stroke-width: 0.8"/>
    </g>
   </g>
   <g id="PolyCollection_5">
    <defs>
     <path id="m38f66eedb9" d="M 69.650795 -120.073234 
L 69.650795 -83.52 
L 69.650795 -120.073234 
L 69.650795 -120.073234 
z
" style="stroke: #c957db; stroke-opacity: 0.2; stroke-width: 0.8"/>
    </defs>
    <g clip-path="url(#p11b053011e)">
     <use xlink:href="#m38f66eedb9" x="0" y="576" style="fill: #c957db; fill-opacity: 0.2; stroke: #c957db; stroke-opacity: 0.2; stroke-width: 0.8"/>
    </g>
   </g>
   <g id="line2d_39">
    <path d="M 69.650795 477.323781 
L 70.07646 426.728756 
L 70.714958 361.200398 
L 71.140623 323.086965 
L 71.77912 292.105871 
L 71.991953 289.654129 
L 72.204785 281.184478 
L 72.417617 280.961592 
L 72.63045 272.714826 
L 72.843282 272.269055 
L 73.056115 267.588458 
L 73.268947 266.251144 
L 73.48178 260.233234 
L 73.694612 259.787463 
L 73.907445 249.534726 
L 74.120277 247.751642 
L 75.184439 227.469055 
L 75.610104 223.011343 
L 76.248602 218.999403 
L 76.461434 215.656119 
L 77.099932 211.198408 
L 77.312764 210.306866 
L 77.738429 206.517811 
L 79.015424 198.271045 
L 79.228256 198.271045 
L 79.653921 195.373532 
L 80.505251 192.698905 
L 80.718083 191.361592 
L 81.143748 190.247164 
L 81.356581 189.132736 
L 81.569413 188.909851 
L 81.782246 188.46408 
L 81.995078 186.235224 
L 82.207911 185.566567 
L 82.420743 184.006368 
L 82.633575 183.560597 
L 83.272073 179.994428 
L 83.484905 179.771542 
L 83.697738 179.771542 
L 84.974733 175.536716 
L 85.400397 173.753632 
L 85.61323 173.753632 
L 86.038895 172.639204 
L 86.251727 171.970547 
L 86.46456 171.747662 
L 87.31589 169.741692 
L 87.954387 167.512836 
L 88.167219 166.844179 
L 88.380052 166.844179 
L 89.231382 165.28398 
L 89.444214 165.28398 
L 89.657047 165.061095 
L 89.869879 164.615323 
L 90.295544 164.615323 
L 90.508376 161.940697 
L 90.721209 161.940697 
L 91.146874 161.494925 
L 91.359706 161.049154 
L 91.572539 160.157612 
L 91.998204 159.711841 
L 92.211036 159.043184 
L 92.423869 158.820299 
L 92.636701 157.705871 
L 92.849534 157.705871 
L 93.700863 156.145672 
L 93.913696 156.145672 
L 94.126528 155.922786 
L 94.552193 155.922786 
L 94.977858 155.031244 
L 95.190691 155.031244 
L 95.403523 154.585473 
L 95.829188 153.025274 
L 96.04202 153.025274 
L 96.254853 152.802388 
L 96.680518 152.133731 
L 97.106183 151.68796 
L 97.319015 149.013333 
L 97.531848 148.790448 
L 98.383177 147.230249 
L 99.021675 147.230249 
L 99.44734 146.784478 
L 99.660172 146.784478 
L 99.873005 146.561592 
L 100.085837 146.115821 
L 100.511502 146.115821 
L 100.724335 145.001393 
L 101.149999 145.001393 
L 101.362832 144.778507 
L 101.575664 144.332736 
L 101.788497 144.332736 
L 102.001329 144.109851 
L 103.278324 141.658109 
L 103.916821 141.658109 
L 104.129654 141.435224 
L 104.342486 140.989453 
L 104.980984 140.989453 
L 105.406649 140.543682 
L 105.619481 140.543682 
L 106.470811 138.983483 
L 106.896476 138.983483 
L 107.109308 138.760597 
L 107.322141 138.760597 
L 107.534973 138.537711 
L 107.960638 137.646169 
L 108.599136 137.646169 
L 109.0248 137.200398 
L 109.450465 137.200398 
L 109.663298 136.754627 
L 111.57879 136.754627 
L 111.791622 136.531741 
L 112.217287 136.531741 
L 112.43012 136.08597 
L 113.068617 136.08597 
L 113.494282 135.417313 
L 114.132779 135.417313 
L 114.558444 134.748657 
L 115.196942 134.748657 
L 115.409774 134.525771 
L 116.048272 134.525771 
L 116.261104 134.302886 
L 117.538099 134.302886 
L 117.963764 133.634229 
L 118.602261 133.634229 
L 119.027926 133.188458 
L 119.240758 131.851144 
L 119.666423 131.851144 
L 119.879256 131.405373 
L 121.369083 131.405373 
L 121.794748 130.959602 
L 122.00758 130.959602 
L 122.220413 130.736716 
L 122.433245 130.736716 
L 122.646078 130.513831 
L 123.071743 130.513831 
L 123.284575 130.290945 
L 124.774402 130.290945 
L 124.987235 130.06806 
L 125.200067 130.06806 
L 125.4129 129.845174 
L 125.838565 129.845174 
L 126.051397 129.622289 
L 126.477062 129.622289 
L 126.689895 129.176517 
L 126.902727 129.176517 
L 127.115559 128.953632 
L 130.095214 128.953632 
L 130.520879 128.507861 
L 132.010706 128.507861 
L 132.223539 128.284975 
L 135.203193 128.284975 
L 135.416025 127.839204 
L 136.480188 127.839204 
L 136.69302 127.616318 
L 137.118685 127.616318 
L 137.331518 127.393433 
L 141.375334 127.393433 
L 141.588167 127.170547 
L 144.354989 127.170547 
L 144.567821 126.947662 
L 160.317423 126.947662 
L 160.530256 126.724776 
L 162.65858 126.724776 
L 162.871413 126.501891 
L 164.786905 126.501891 
L 164.999737 126.279005 
L 165.21257 126.279005 
L 165.425402 126.056119 
L 166.915229 126.056119 
L 167.128062 125.833234 
L 167.766559 125.833234 
L 167.979392 125.610348 
L 168.617889 125.610348 
L 168.830722 125.387463 
L 169.043554 125.387463 
L 169.256386 125.164577 
L 169.469219 125.164577 
L 169.682051 124.941692 
L 171.810376 124.941692 
L 172.023208 124.718806 
L 173.087371 124.718806 
L 173.300203 124.49592 
L 173.513036 124.49592 
L 173.938701 124.050149 
L 177.34402 124.050149 
L 177.556852 123.827264 
L 180.962172 123.827264 
L 181.175004 123.604378 
L 183.303329 123.604378 
L 183.516161 123.381493 
L 184.367491 123.381493 
L 184.580324 123.158607 
L 190.113967 123.158607 
L 190.3268 122.935721 
L 190.752465 122.935721 
L 190.965297 122.712836 
L 193.732119 122.712836 
L 193.944952 122.044179 
L 194.157784 121.821294 
L 195.009114 121.821294 
L 195.221947 121.598408 
L 217.569355 121.598408 
L 217.782187 121.375522 
L 219.910512 121.375522 
L 220.123344 120.929751 
L 224.379993 120.929751 
L 224.592826 120.706866 
L 225.231323 120.706866 
L 225.656988 120.261095 
L 229.913637 120.261095 
L 230.12647 120.038209 
L 233.531789 120.038209 
L 233.744622 119.815323 
L 242.25792 119.815323 
L 242.470752 119.592438 
L 244.599077 119.592438 
L 244.81191 119.369552 
L 247.153067 119.369552 
L 247.365899 119.146667 
L 250.345553 119.146667 
L 250.558386 118.923781 
L 250.771218 118.923781 
L 250.984051 118.700896 
L 255.453533 118.700896 
L 255.666365 118.47801 
L 256.730527 118.47801 
L 256.94336 118.255124 
L 257.156192 117.809353 
L 259.497349 117.809353 
L 259.710182 117.586468 
L 261.838506 117.586468 
L 262.264171 117.140697 
L 265.456658 117.140697 
L 265.669491 116.694925 
L 275.459784 116.694925 
L 275.672616 116.47204 
L 275.885449 116.47204 
L 276.098281 116.249154 
L 279.716433 116.249154 
L 279.929265 116.026269 
L 301.638176 116.026269 
L 301.851009 115.803383 
L 302.063841 115.803383 
L 302.276674 115.580498 
L 307.384653 115.580498 
L 307.597485 115.357612 
L 317.600611 115.357612 
L 317.813443 115.134726 
L 319.516103 115.134726 
L 319.728935 114.911841 
L 320.367433 114.911841 
L 320.580265 114.688955 
L 342.502008 114.688955 
L 342.714841 114.46607 
L 347.184323 114.46607 
L 347.397155 114.243184 
L 349.52548 114.243184 
L 349.738312 114.020299 
L 350.163977 114.020299 
L 350.589642 113.574527 
L 351.015307 113.574527 
L 351.440972 113.128756 
L 352.079469 113.128756 
L 352.292302 112.682985 
L 356.336118 112.682985 
L 356.548951 112.4601 
L 373.575547 112.4601 
L 373.78838 112.237214 
L 374.426877 112.237214 
L 374.63971 112.014328 
L 375.916705 112.014328 
L 375.916705 112.014328 
" clip-path="url(#p11b053011e)" style="fill: none; stroke: #db5f57; stroke-width: 1.2; stroke-linecap: round"/>
   </g>
   <g id="line2d_40">
    <path d="M 69.650795 477.658109 
L 70.07646 428.734726 
L 70.502125 376.356617 
L 70.714958 369.447164 
L 70.92779 355.628259 
L 71.140623 330.442189 
L 71.566288 318.406368 
L 71.77912 302.804378 
L 71.991953 302.135721 
L 72.417617 292.774527 
L 73.056115 280.961592 
L 73.48178 274.052139 
L 73.694612 266.47403 
L 74.120277 261.570547 
L 74.758774 246.191443 
L 74.971607 242.625274 
L 75.184439 241.956617 
L 75.610104 238.836219 
L 75.822937 238.167562 
L 76.035769 236.607363 
L 76.248602 235.938706 
L 76.674267 232.818308 
L 76.887099 232.595423 
L 77.525596 229.475025 
L 77.738429 227.023284 
L 77.951261 226.354627 
L 78.164094 224.571542 
L 78.376926 224.125771 
L 78.802591 220.336716 
L 79.441089 218.107861 
L 80.718083 213.204378 
L 81.143748 212.08995 
L 81.356581 211.644179 
L 81.569413 211.644179 
L 81.782246 211.198408 
L 81.995078 211.198408 
L 82.207911 208.969552 
L 82.420743 208.969552 
L 82.633575 206.963582 
L 83.05924 205.626269 
L 83.272073 205.626269 
L 83.484905 204.511841 
L 83.697738 204.288955 
L 83.91057 203.397413 
L 84.123403 201.614328 
L 84.336235 200.945672 
L 84.7619 199.162587 
L 85.187565 198.048159 
L 85.400397 197.156617 
L 85.61323 197.156617 
L 85.826062 196.933731 
L 86.038895 196.042189 
L 86.46456 195.596418 
L 86.890225 194.927761 
L 87.103057 194.704876 
L 87.31589 193.367562 
L 88.167219 191.361592 
L 88.380052 190.692935 
L 88.805717 190.247164 
L 89.231382 189.578507 
L 91.359706 189.578507 
L 91.572539 188.909851 
L 93.913696 188.909851 
L 94.126528 185.343682 
L 94.765026 184.675025 
L 95.829188 182.446169 
L 96.04202 182.446169 
L 96.467685 181.554627 
L 96.89335 181.554627 
L 97.106183 179.771542 
L 97.319015 179.102886 
L 97.531848 178.88 
L 97.74468 178.88 
L 98.383177 177.765572 
L 98.59601 177.542687 
L 99.021675 177.542687 
L 99.234507 177.319801 
L 102.426994 177.319801 
L 102.639827 177.096915 
L 104.555319 177.096915 
L 104.768151 172.86209 
L 106.683643 172.86209 
L 106.896476 172.639204 
L 107.109308 172.639204 
L 107.322141 172.416318 
L 107.534973 171.970547 
L 107.960638 169.29592 
L 109.450465 169.29592 
L 109.663298 169.073035 
L 118.815094 169.073035 
L 119.027926 166.175522 
L 123.071743 166.175522 
L 123.284575 163.500896 
L 161.594418 163.500896 
L 161.80725 160.603383 
L 162.445748 160.603383 
L 162.65858 160.380498 
L 165.21257 160.380498 
L 165.425402 160.157612 
L 165.638235 159.711841 
L 166.276732 159.711841 
L 166.489564 159.488955 
L 167.340894 159.488955 
L 167.553727 159.26607 
L 167.766559 159.26607 
L 167.979392 159.043184 
L 168.192224 159.043184 
L 168.405057 158.820299 
L 170.533381 158.820299 
L 170.746214 158.374527 
L 222.251669 158.374527 
L 222.464501 156.368557 
L 224.167161 156.368557 
L 224.592826 155.922786 
L 224.805658 155.922786 
L 225.231323 155.477015 
L 225.444156 154.808358 
L 225.656988 154.585473 
L 234.808784 154.585473 
L 235.021616 153.916816 
L 294.401873 153.916816 
L 294.614705 153.69393 
L 308.87448 153.69393 
L 309.087312 150.796418 
L 311.215637 150.796418 
L 311.428469 150.573532 
L 318.026276 150.573532 
L 318.239108 150.350647 
L 323.347087 150.350647 
L 323.55992 150.127761 
L 332.073218 150.127761 
L 332.28605 149.68199 
L 333.98871 149.68199 
L 334.201543 149.459104 
L 339.948019 149.459104 
L 340.160851 149.236219 
L 347.184323 149.236219 
L 347.397155 149.013333 
L 349.52548 149.013333 
L 349.738312 148.567562 
L 350.376809 148.567562 
L 350.802474 148.121791 
L 351.228139 148.121791 
L 351.440972 147.898905 
L 352.292302 147.898905 
L 352.505134 147.453134 
L 354.633459 147.453134 
L 354.846291 147.230249 
L 355.697621 147.230249 
L 355.910453 147.007363 
L 356.123286 147.007363 
L 356.336118 146.784478 
L 372.93705 146.784478 
L 373.149883 146.561592 
L 374.426877 146.561592 
L 374.63971 145.892935 
L 375.916705 145.892935 
L 375.916705 145.892935 
" clip-path="url(#p11b053011e)" style="fill: none; stroke: #b9db57; stroke-width: 1.2; stroke-linecap: round"/>
   </g>
   <g id="line2d_41">
    <path d="M 69.650795 483.341692 
L 70.07646 431.632239 
L 70.289293 417.590448 
L 70.502125 416.030249 
L 70.92779 414.47005 
L 71.353455 412.241194 
L 71.566288 402.88 
L 71.991953 398.199403 
L 72.417617 396.193433 
L 72.63045 395.301891 
L 72.843282 379.922786 
L 73.056115 297.009353 
L 73.268947 266.028259 
L 73.48178 265.582488 
L 73.694612 265.582488 
L 73.907445 264.690945 
L 74.120277 264.690945 
L 74.33311 264.46806 
L 74.545942 264.46806 
L 74.971607 264.022289 
L 75.184439 227.469055 
L 75.397272 226.800398 
L 75.610104 226.577512 
L 76.035769 226.577512 
L 76.461434 226.131741 
L 76.674267 215.656119 
L 77.099932 215.656119 
L 77.951261 213.873035 
L 78.164094 213.873035 
L 78.376926 213.650149 
L 78.589759 213.650149 
L 78.802591 201.837214 
L 79.015424 201.837214 
L 79.441089 201.391443 
L 79.866754 200.722786 
L 80.079586 200.722786 
L 80.292418 194.48199 
L 80.505251 194.259104 
L 80.718083 193.590448 
L 81.356581 193.590448 
L 81.569413 193.367562 
L 81.782246 189.132736 
L 81.995078 187.795423 
L 82.846408 187.795423 
L 83.272073 187.126766 
L 83.484905 182.446169 
L 84.336235 182.446169 
L 84.549068 182.223284 
L 85.400397 182.223284 
L 85.61323 175.536716 
L 86.038895 175.536716 
L 86.251727 174.199403 
L 87.31589 174.199403 
L 87.528722 171.079005 
L 87.954387 171.079005 
L 88.167219 169.518806 
L 89.444214 169.518806 
L 89.657047 167.735721 
L 89.869879 167.512836 
L 90.082712 167.512836 
L 90.295544 167.067065 
L 91.359706 167.067065 
L 91.572539 166.844179 
L 92.423869 166.844179 
L 92.636701 162.386468 
L 92.849534 161.27204 
L 94.126528 161.27204 
L 94.552193 158.820299 
L 95.403523 158.820299 
L 96.04202 157.705871 
L 96.254853 155.254129 
L 96.467685 155.031244 
L 96.680518 155.031244 
L 96.89335 154.808358 
L 97.106183 154.808358 
L 97.531848 151.910846 
L 97.74468 151.910846 
L 97.957513 151.019303 
L 99.44734 151.019303 
L 99.873005 149.68199 
L 100.937167 148.567562 
L 101.149999 148.567562 
L 101.362832 148.344677 
L 101.575664 147.453134 
L 102.001329 147.453134 
L 102.214162 147.007363 
L 102.639827 147.007363 
L 103.065492 145.001393 
L 103.278324 144.778507 
L 104.342486 144.778507 
L 104.555319 144.332736 
L 105.406649 144.332736 
L 105.619481 143.218308 
L 106.045146 142.772537 
L 106.257978 142.772537 
L 106.470811 141.880995 
L 109.663298 141.880995 
L 109.87613 140.320796 
L 111.791622 140.320796 
L 112.004455 140.09791 
L 112.217287 140.09791 
L 112.43012 139.429254 
L 115.622607 139.429254 
L 115.835439 139.206368 
L 116.686769 139.206368 
L 116.899601 138.09194 
L 117.538099 138.09194 
L 117.750931 137.869055 
L 118.389429 137.869055 
L 118.602261 137.646169 
L 119.240758 137.646169 
L 119.453591 135.640199 
L 119.666423 135.640199 
L 119.879256 135.417313 
L 120.092088 134.971542 
L 121.794748 134.971542 
L 122.00758 134.302886 
L 122.220413 134.08 
L 122.646078 134.08 
L 122.85891 133.411343 
L 123.71024 133.411343 
L 123.923073 133.188458 
L 124.135905 133.188458 
L 124.348738 132.965572 
L 124.987235 132.965572 
L 125.4129 132.296915 
L 125.838565 132.296915 
L 126.051397 132.07403 
L 126.26423 132.07403 
L 126.477062 131.628259 
L 126.902727 131.628259 
L 127.115559 131.405373 
L 128.818219 131.405373 
L 129.031052 131.182488 
L 131.372209 131.182488 
L 131.585041 130.736716 
L 134.139031 130.736716 
L 134.351863 130.513831 
L 137.970015 130.513831 
L 138.182847 130.290945 
L 138.608512 130.290945 
L 138.821345 129.845174 
L 140.736837 129.845174 
L 140.949669 129.399403 
L 141.375334 129.399403 
L 141.588167 129.176517 
L 142.226664 129.176517 
L 142.439497 128.953632 
L 143.077994 128.953632 
L 143.290826 128.730746 
L 143.503659 128.730746 
L 143.716491 128.507861 
L 144.993486 128.507861 
L 145.206319 128.284975 
L 145.844816 128.284975 
L 146.057648 127.839204 
L 150.52713 127.839204 
L 150.952795 127.393433 
L 160.955921 127.393433 
L 161.381585 126.947662 
L 163.935575 126.947662 
L 164.148407 126.724776 
L 165.21257 126.724776 
L 165.425402 126.501891 
L 167.128062 126.501891 
L 167.340894 126.279005 
L 168.192224 126.279005 
L 168.405057 126.056119 
L 169.469219 126.056119 
L 169.682051 125.833234 
L 170.533381 125.833234 
L 170.746214 125.164577 
L 171.171879 125.164577 
L 171.384711 124.941692 
L 173.300203 124.941692 
L 173.513036 124.718806 
L 174.364365 124.718806 
L 174.577198 124.49592 
L 179.04668 124.49592 
L 179.259512 124.273035 
L 182.026334 124.273035 
L 182.239166 124.050149 
L 184.793156 124.050149 
L 185.005988 123.604378 
L 188.836973 123.604378 
L 189.049805 123.381493 
L 189.688303 123.381493 
L 189.901135 122.712836 
L 190.965297 122.712836 
L 191.17813 122.48995 
L 194.157784 122.48995 
L 194.583449 122.044179 
L 194.796282 122.044179 
L 195.009114 121.821294 
L 197.350271 121.821294 
L 197.563104 121.598408 
L 200.542758 121.598408 
L 200.75559 121.375522 
L 206.076402 121.375522 
L 206.289234 121.152637 
L 207.566229 121.152637 
L 207.779062 120.929751 
L 211.184381 120.929751 
L 211.397213 120.706866 
L 217.782187 120.706866 
L 217.99502 120.48398 
L 218.633517 120.48398 
L 218.84635 120.261095 
L 221.400339 120.261095 
L 221.613171 120.038209 
L 222.251669 120.038209 
L 222.677334 119.592438 
L 224.379993 119.592438 
L 225.018491 118.923781 
L 225.444156 118.032239 
L 227.998145 118.032239 
L 228.210978 117.363582 
L 229.913637 117.363582 
L 230.12647 117.140697 
L 233.531789 117.140697 
L 233.744622 116.917811 
L 236.724276 116.917811 
L 237.149941 116.47204 
L 240.129595 116.47204 
L 240.342428 116.249154 
L 241.619423 116.249154 
L 241.832255 116.026269 
L 243.747747 116.026269 
L 243.96058 115.580498 
L 246.088904 115.580498 
L 246.301737 115.357612 
L 247.153067 115.357612 
L 247.365899 115.134726 
L 248.642894 115.134726 
L 249.068559 114.688955 
L 250.984051 114.688955 
L 251.409716 114.243184 
L 255.666365 114.243184 
L 255.879197 114.020299 
L 257.156192 114.020299 
L 257.369025 113.574527 
L 259.497349 113.574527 
L 259.710182 113.351642 
L 261.838506 113.351642 
L 262.051339 113.128756 
L 262.477004 113.128756 
L 262.689836 112.905871 
L 267.159318 112.905871 
L 267.37215 112.4601 
L 275.459784 112.4601 
L 275.672616 112.237214 
L 276.098281 112.237214 
L 276.311114 112.014328 
L 279.716433 112.014328 
L 279.929265 111.791443 
L 280.35493 111.791443 
L 280.780595 111.345672 
L 289.293894 111.345672 
L 289.506726 111.122786 
L 302.063841 111.122786 
L 302.276674 110.8999 
L 310.151475 110.8999 
L 310.364307 110.454129 
L 316.323616 110.454129 
L 316.536448 110.231244 
L 317.600611 110.231244 
L 317.813443 110.008358 
L 319.516103 110.008358 
L 319.728935 109.562587 
L 322.70859 109.562587 
L 322.921422 109.339701 
L 342.076343 109.339701 
L 342.289176 109.116816 
L 342.714841 109.116816 
L 342.927673 108.89393 
L 349.738312 108.89393 
L 349.951144 108.671045 
L 350.802474 108.671045 
L 351.015307 108.448159 
L 351.866637 108.448159 
L 352.079469 108.225274 
L 352.505134 108.225274 
L 352.717966 108.002388 
L 356.336118 108.002388 
L 356.548951 107.779502 
L 372.298553 107.779502 
L 372.511385 107.556617 
L 374.001212 107.556617 
L 374.214045 107.333731 
L 374.852542 107.333731 
L 375.065375 107.110846 
L 375.916705 107.110846 
L 375.916705 107.110846 
" clip-path="url(#p11b053011e)" style="fill: none; stroke: #57db94; stroke-width: 1.2; stroke-linecap: round"/>
   </g>
   <g id="line2d_42">
    <path d="M 69.650795 483.341692 
L 70.07646 434.306866 
L 70.289293 419.373532 
L 70.502125 416.921791 
L 71.353455 412.909851 
L 71.566288 400.87403 
L 71.77912 377.69393 
L 71.991953 303.473035 
L 72.204785 281.184478 
L 72.417617 281.184478 
L 72.63045 280.961592 
L 72.843282 280.961592 
L 73.056115 280.515821 
L 73.268947 262.239204 
L 73.694612 262.239204 
L 74.33311 258.89592 
L 75.184439 257.335721 
L 75.397272 226.354627 
L 75.610104 224.794428 
L 76.035769 224.348657 
L 76.248602 224.348657 
L 76.887099 221.896915 
L 77.099932 221.451144 
L 77.312764 221.451144 
L 77.525596 208.746667 
L 77.738429 208.746667 
L 77.951261 204.734726 
L 78.164094 204.511841 
L 78.589759 203.620299 
L 78.802591 203.620299 
L 79.015424 203.397413 
L 79.441089 203.397413 
L 79.653921 194.704876 
L 79.866754 193.590448 
L 80.079586 193.367562 
L 80.930916 193.367562 
L 81.356581 192.47602 
L 81.569413 192.47602 
L 81.782246 192.253134 
L 81.995078 191.807363 
L 82.207911 191.807363 
L 82.420743 191.584478 
L 82.633575 183.783483 
L 82.846408 183.783483 
L 83.05924 183.560597 
L 83.91057 183.560597 
L 84.123403 179.102886 
L 84.336235 178.434229 
L 85.61323 178.434229 
L 85.826062 173.753632 
L 86.038895 173.084975 
L 86.251727 173.084975 
L 86.46456 172.86209 
L 86.677392 172.193433 
L 86.890225 171.970547 
L 87.103057 171.970547 
L 87.31589 171.524776 
L 87.954387 171.524776 
L 88.167219 167.958607 
L 88.380052 167.735721 
L 89.018549 167.735721 
L 89.231382 165.729751 
L 89.869879 165.729751 
L 90.082712 165.061095 
L 90.508376 165.061095 
L 90.721209 163.27801 
L 90.934041 162.609353 
L 91.359706 162.163582 
L 91.785371 162.163582 
L 91.998204 161.940697 
L 92.849534 161.940697 
L 93.062366 159.488955 
L 93.275198 158.820299 
L 94.552193 158.820299 
L 94.765026 157.482985 
L 95.190691 157.482985 
L 95.403523 156.145672 
L 95.616356 155.922786 
L 96.04202 155.922786 
L 96.254853 155.6999 
L 96.89335 155.6999 
L 97.106183 155.477015 
L 97.319015 151.465075 
L 98.383177 151.465075 
L 98.59601 149.68199 
L 99.234507 149.68199 
L 99.44734 149.459104 
L 99.873005 149.459104 
L 100.085837 148.344677 
L 100.511502 148.344677 
L 100.724335 148.121791 
L 101.362832 148.121791 
L 101.575664 146.338706 
L 102.639827 146.338706 
L 102.852659 144.109851 
L 103.065492 143.886965 
L 103.278324 143.886965 
L 103.491157 143.66408 
L 103.703989 143.66408 
L 103.916821 143.441194 
L 104.129654 143.441194 
L 104.342486 143.218308 
L 104.768151 143.218308 
L 105.193816 142.549652 
L 105.406649 142.549652 
L 105.619481 141.880995 
L 106.045146 141.880995 
L 106.257978 141.658109 
L 106.470811 140.320796 
L 107.322141 140.320796 
L 107.534973 139.875025 
L 108.173471 139.875025 
L 108.386303 139.206368 
L 108.599136 139.206368 
L 108.811968 138.983483 
L 109.450465 138.983483 
L 110.088963 138.314826 
L 110.514628 138.314826 
L 110.72746 138.09194 
L 111.365957 138.09194 
L 111.791622 137.423284 
L 112.642952 137.423284 
L 112.855785 136.977512 
L 113.28145 136.977512 
L 113.494282 136.531741 
L 114.132779 136.531741 
L 114.558444 136.08597 
L 115.196942 136.08597 
L 115.409774 135.863085 
L 115.622607 135.863085 
L 115.835439 135.640199 
L 117.963764 135.640199 
L 118.176596 135.417313 
L 119.453591 135.417313 
L 119.666423 133.188458 
L 119.879256 133.188458 
L 120.092088 132.742687 
L 121.581916 132.742687 
L 121.794748 132.519801 
L 122.00758 132.519801 
L 122.220413 132.296915 
L 122.646078 132.296915 
L 122.85891 132.07403 
L 123.071743 132.07403 
L 123.284575 131.851144 
L 125.200067 131.851144 
L 125.4129 131.628259 
L 125.838565 131.628259 
L 126.051397 131.405373 
L 126.477062 131.405373 
L 126.689895 130.959602 
L 127.115559 130.959602 
L 127.328392 130.513831 
L 130.095214 130.513831 
L 130.520879 130.06806 
L 132.223539 130.06806 
L 132.436371 129.845174 
L 136.905853 129.845174 
L 137.118685 129.622289 
L 139.672675 129.622289 
L 139.885507 129.399403 
L 141.375334 129.399403 
L 141.588167 129.176517 
L 141.800999 129.176517 
L 142.013832 128.730746 
L 143.503659 128.730746 
L 143.716491 128.507861 
L 144.354989 128.507861 
L 144.567821 128.284975 
L 146.270481 128.284975 
L 146.483313 128.06209 
L 160.317423 128.06209 
L 160.530256 127.839204 
L 162.445748 127.839204 
L 162.65858 127.616318 
L 165.638235 127.616318 
L 165.851067 127.393433 
L 167.553727 127.393433 
L 167.766559 127.170547 
L 168.405057 127.170547 
L 168.617889 126.947662 
L 168.830722 126.947662 
L 169.043554 126.724776 
L 169.469219 126.724776 
L 169.682051 126.279005 
L 170.320549 126.279005 
L 170.533381 126.056119 
L 170.746214 126.056119 
L 170.959046 125.833234 
L 171.171879 125.833234 
L 171.384711 125.610348 
L 173.725868 125.610348 
L 173.938701 125.387463 
L 177.556852 125.387463 
L 177.769685 125.164577 
L 180.962172 125.164577 
L 181.387837 124.718806 
L 183.303329 124.718806 
L 183.516161 124.49592 
L 184.367491 124.49592 
L 184.580324 124.273035 
L 188.836973 124.273035 
L 189.049805 124.050149 
L 190.113967 124.050149 
L 190.3268 123.381493 
L 190.965297 123.381493 
L 191.17813 123.158607 
L 194.370617 123.158607 
L 194.583449 122.935721 
L 208.204727 122.935721 
L 208.417559 122.712836 
L 208.630391 122.712836 
L 208.843224 122.48995 
L 209.907386 122.48995 
L 210.120219 122.267065 
L 217.14369 122.267065 
L 217.356522 122.044179 
L 217.569355 122.044179 
L 217.782187 121.821294 
L 220.549009 121.821294 
L 220.761842 121.598408 
L 221.613171 121.598408 
L 221.826004 121.375522 
L 222.038836 121.375522 
L 222.251669 121.152637 
L 224.805658 121.152637 
L 225.018491 120.929751 
L 225.231323 120.929751 
L 225.444156 120.48398 
L 225.869821 120.48398 
L 226.082653 120.261095 
L 229.062308 120.261095 
L 229.27514 120.038209 
L 233.744622 120.038209 
L 233.957454 119.815323 
L 236.724276 119.815323 
L 237.149941 119.369552 
L 237.788438 119.369552 
L 238.001271 119.146667 
L 242.25792 119.146667 
L 242.470752 118.923781 
L 243.96058 118.923781 
L 244.173412 118.700896 
L 245.024742 118.700896 
L 245.237574 118.47801 
L 246.727402 118.47801 
L 247.153067 118.032239 
L 249.281391 118.032239 
L 249.494224 117.809353 
L 251.196883 117.809353 
L 251.622548 117.363582 
L 253.750873 117.363582 
L 253.963705 117.140697 
L 255.666365 117.140697 
L 255.879197 116.917811 
L 257.369025 116.917811 
L 257.581857 116.694925 
L 261.838506 116.694925 
L 262.051339 116.47204 
L 263.753998 116.47204 
L 263.966831 116.249154 
L 265.243826 116.249154 
L 265.669491 115.803383 
L 275.459784 115.803383 
L 275.672616 115.580498 
L 276.311114 115.580498 
L 276.523946 115.357612 
L 280.567763 115.357612 
L 280.780595 115.134726 
L 295.253202 115.134726 
L 295.466035 114.911841 
L 301.638176 114.911841 
L 301.851009 114.688955 
L 313.131129 114.688955 
L 313.343961 114.46607 
L 317.813443 114.46607 
L 318.026276 114.243184 
L 319.30327 114.243184 
L 319.516103 114.020299 
L 319.941768 114.020299 
L 320.1546 113.797413 
L 320.580265 113.797413 
L 320.793098 113.574527 
L 331.860385 113.574527 
L 332.073218 113.351642 
L 339.735186 113.351642 
L 339.948019 113.128756 
L 343.991836 113.128756 
L 344.204668 112.905871 
L 352.079469 112.905871 
L 352.292302 112.237214 
L 352.505134 112.014328 
L 358.677275 112.014328 
L 358.890108 111.791443 
L 363.359589 111.791443 
L 363.572422 111.568557 
L 373.575547 111.568557 
L 373.78838 111.345672 
L 374.63971 111.345672 
L 374.852542 111.122786 
L 375.916705 111.122786 
L 375.916705 111.122786 
" clip-path="url(#p11b053011e)" style="fill: none; stroke: #5784db; stroke-width: 1.2; stroke-linecap: round"/>
   </g>
   <g id="line2d_43">
    <path d="M 69.650795 474.203383 
L 70.502125 349.833234 
L 70.714958 337.574527 
L 71.140623 305.033234 
L 71.566288 284.750647 
L 71.77912 275.835224 
L 72.204785 268.48 
L 72.417617 266.47403 
L 72.843282 256.667065 
L 73.056115 254.438209 
L 73.48178 246.191443 
L 73.907445 235.047164 
L 74.120277 231.258109 
L 74.545942 218.553632 
L 74.758774 216.547662 
L 75.184439 210.752637 
L 75.397272 209.638209 
L 75.822937 205.849154 
L 76.248602 203.397413 
L 76.674267 197.602388 
L 77.099932 194.259104 
L 77.312764 193.367562 
L 77.738429 189.132736 
L 78.376926 184.89791 
L 78.589759 183.783483 
L 79.015424 180.663085 
L 79.228256 179.994428 
L 79.866754 177.096915 
L 80.505251 174.86806 
L 81.356581 171.747662 
L 81.782246 170.633234 
L 82.420743 166.621294 
L 82.846408 165.28398 
L 83.272073 162.832239 
L 83.697738 162.386468 
L 83.91057 161.940697 
L 84.123403 160.603383 
L 84.336235 160.157612 
L 84.549068 159.043184 
L 84.7619 158.597413 
L 85.187565 156.368557 
L 85.400397 155.477015 
L 85.61323 155.477015 
L 85.826062 155.254129 
L 86.251727 153.916816 
L 86.46456 153.69393 
L 86.677392 152.802388 
L 86.890225 152.802388 
L 88.167219 147.898905 
L 88.592884 147.453134 
L 89.231382 146.338706 
L 89.444214 146.338706 
L 89.657047 146.115821 
L 89.869879 145.67005 
L 90.295544 145.67005 
L 90.508376 142.995423 
L 90.721209 142.995423 
L 90.934041 142.772537 
L 91.146874 142.772537 
L 91.359706 142.549652 
L 91.572539 141.658109 
L 91.998204 141.212338 
L 92.423869 140.543682 
L 92.636701 139.429254 
L 92.849534 139.429254 
L 93.700863 137.869055 
L 93.913696 137.869055 
L 94.126528 137.646169 
L 94.339361 137.646169 
L 94.765026 137.200398 
L 94.977858 136.531741 
L 95.190691 136.308856 
L 95.403523 135.863085 
L 95.829188 134.08 
L 96.04202 133.857114 
L 96.467685 133.188458 
L 96.680518 132.965572 
L 96.89335 132.965572 
L 97.319015 129.845174 
L 97.74468 129.399403 
L 98.383177 128.06209 
L 99.021675 128.06209 
L 99.234507 127.839204 
L 99.660172 127.839204 
L 100.29867 126.724776 
L 100.511502 126.724776 
L 100.724335 125.610348 
L 101.149999 125.610348 
L 101.575664 124.941692 
L 101.788497 124.941692 
L 102.001329 124.718806 
L 103.278324 122.267065 
L 103.703989 122.267065 
L 103.916821 122.044179 
L 104.129654 122.044179 
L 104.342486 121.598408 
L 104.980984 121.598408 
L 105.193816 121.152637 
L 105.406649 121.152637 
L 105.832314 120.48398 
L 106.045146 120.261095 
L 106.257978 119.592438 
L 106.470811 119.369552 
L 106.683643 119.369552 
L 106.896476 119.146667 
L 107.322141 119.146667 
L 107.960638 118.032239 
L 108.811968 118.032239 
L 109.0248 117.809353 
L 109.450465 117.809353 
L 109.663298 117.363582 
L 111.365957 117.363582 
L 111.791622 116.917811 
L 112.217287 116.917811 
L 112.43012 116.47204 
L 113.068617 116.47204 
L 113.494282 115.803383 
L 114.132779 115.803383 
L 114.558444 115.134726 
L 115.196942 115.134726 
L 115.409774 114.911841 
L 115.622607 114.911841 
L 115.835439 114.688955 
L 117.538099 114.688955 
L 117.963764 114.243184 
L 118.389429 114.243184 
L 119.027926 113.574527 
L 119.240758 112.237214 
L 119.453591 112.014328 
L 119.666423 112.014328 
L 119.879256 111.568557 
L 121.369083 111.568557 
L 121.794748 111.122786 
L 122.00758 111.122786 
L 122.220413 110.8999 
L 122.433245 110.8999 
L 122.646078 110.677015 
L 123.071743 110.677015 
L 123.284575 110.454129 
L 125.200067 110.454129 
L 125.4129 110.231244 
L 125.838565 110.231244 
L 126.051397 109.785473 
L 126.26423 109.785473 
L 126.477062 109.339701 
L 126.902727 109.339701 
L 127.115559 108.89393 
L 130.095214 108.89393 
L 130.520879 108.448159 
L 132.010706 108.448159 
L 132.223539 108.225274 
L 135.203193 108.225274 
L 135.416025 108.002388 
L 136.480188 108.002388 
L 136.69302 107.779502 
L 137.118685 107.779502 
L 137.331518 107.556617 
L 141.375334 107.556617 
L 141.588167 107.110846 
L 143.503659 107.110846 
L 143.716491 106.88796 
L 144.354989 106.88796 
L 144.567821 106.665075 
L 145.844816 106.665075 
L 146.057648 106.442189 
L 160.317423 106.442189 
L 160.530256 106.219303 
L 162.445748 106.219303 
L 162.65858 105.996418 
L 164.786905 105.996418 
L 164.999737 105.773532 
L 165.21257 105.773532 
L 165.425402 105.550647 
L 166.915229 105.550647 
L 167.128062 105.327761 
L 167.766559 105.327761 
L 167.979392 105.104876 
L 168.617889 105.104876 
L 168.830722 104.88199 
L 169.043554 104.88199 
L 169.256386 104.659104 
L 169.469219 104.659104 
L 169.682051 104.436219 
L 170.320549 104.436219 
L 170.533381 104.213333 
L 171.171879 104.213333 
L 171.384711 103.990448 
L 173.087371 103.990448 
L 173.300203 103.767562 
L 177.34402 103.767562 
L 177.556852 103.544677 
L 180.962172 103.544677 
L 181.175004 103.321791 
L 183.303329 103.321791 
L 183.516161 103.098905 
L 184.367491 103.098905 
L 184.580324 102.87602 
L 188.836973 102.87602 
L 189.049805 102.653134 
L 189.688303 102.653134 
L 189.901135 101.984478 
L 190.752465 101.984478 
L 190.965297 101.761592 
L 193.732119 101.761592 
L 194.157784 101.092935 
L 195.009114 101.092935 
L 195.221947 100.87005 
L 208.204727 100.87005 
L 208.417559 100.647164 
L 209.907386 100.647164 
L 210.120219 100.424279 
L 217.569355 100.424279 
L 217.782187 100.201393 
L 219.910512 100.201393 
L 220.123344 99.755622 
L 221.400339 99.755622 
L 221.613171 99.532736 
L 222.038836 99.532736 
L 222.251669 99.309851 
L 224.167161 99.309851 
L 224.592826 98.86408 
L 225.231323 98.86408 
L 225.656988 98.195423 
L 229.062308 98.195423 
L 229.27514 97.972537 
L 233.531789 97.972537 
L 233.744622 97.749652 
L 236.724276 97.749652 
L 237.149941 97.303881 
L 242.25792 97.303881 
L 242.470752 97.080995 
L 243.747747 97.080995 
L 243.96058 96.858109 
L 244.599077 96.858109 
L 244.81191 96.635224 
L 246.940234 96.635224 
L 247.153067 96.412338 
L 248.642894 96.412338 
L 248.855726 96.189453 
L 250.771218 96.189453 
L 250.984051 95.966567 
L 251.196883 95.966567 
L 251.409716 95.743682 
L 255.453533 95.743682 
L 255.666365 95.520796 
L 256.730527 95.520796 
L 256.94336 95.29791 
L 257.156192 94.852139 
L 261.838506 94.852139 
L 262.264171 94.406368 
L 265.243826 94.406368 
L 265.669491 93.960597 
L 275.459784 93.960597 
L 275.672616 93.737711 
L 275.885449 93.737711 
L 276.098281 93.514826 
L 280.567763 93.514826 
L 280.780595 93.29194 
L 294.401873 93.29194 
L 294.614705 93.069055 
L 301.638176 93.069055 
L 301.851009 92.846169 
L 307.384653 92.846169 
L 307.597485 92.623284 
L 317.600611 92.623284 
L 317.813443 92.400398 
L 319.30327 92.400398 
L 319.728935 91.954627 
L 320.367433 91.954627 
L 320.580265 91.731741 
L 339.735186 91.731741 
L 339.948019 91.508856 
L 342.714841 91.508856 
L 342.927673 91.28597 
L 347.184323 91.28597 
L 347.397155 91.063085 
L 349.52548 91.063085 
L 349.738312 90.617313 
L 350.376809 90.617313 
L 350.589642 90.394428 
L 351.228139 90.394428 
L 351.440972 90.171542 
L 352.079469 90.171542 
L 352.292302 89.948657 
L 355.697621 89.948657 
L 355.910453 89.725771 
L 373.575547 89.725771 
L 373.78838 89.502886 
L 374.426877 89.502886 
L 374.63971 89.28 
L 375.916705 89.28 
L 375.916705 89.28 
" clip-path="url(#p11b053011e)" style="fill: none; stroke: #c957db; stroke-width: 1.2; stroke-linecap: round"/>
   </g>
   <g id="line2d_44"/>
   <g id="line2d_45"/>
   <g id="line2d_46"/>
   <g id="line2d_47"/>
   <g id="line2d_48"/>
   <g id="patch_3">
    <path d="M 54.3375 512.64 
L 54.3375 69.12 
" style="fill: none; stroke: #cccccc; stroke-linejoin: miter; stroke-linecap: square"/>
   </g>
   <g id="patch_4">
    <path d="M 54.3375 512.64 
L 391.23 512.64 
" style="fill: none; stroke: #cccccc; stroke-linejoin: miter; stroke-linecap: square"/>
   </g>
   <g id="text_41">
    <!-- Edge Coverage History -->
    <g style="fill: #262626" transform="translate(115.892262 63.12)scale(0.165888 -0.165888)">
     <defs>
      <path id="DejaVuSans-Bold-45" d="M 588 4666 
L 3834 4666 
L 3834 3756 
L 1791 3756 
L 1791 2888 
L 3713 2888 
L 3713 1978 
L 1791 1978 
L 1791 909 
L 3903 909 
L 3903 0 
L 588 0 
L 588 4666 
z
" transform="scale(0.015625)"/>
      <path id="DejaVuSans-Bold-64" d="M 2919 2988 
L 2919 4863 
L 4044 4863 
L 4044 0 
L 2919 0 
L 2919 506 
Q 2688 197 2409 53 
Q 2131 -91 1766 -91 
Q 1119 -91 703 423 
Q 288 938 288 1747 
Q 288 2556 703 3070 
Q 1119 3584 1766 3584 
Q 2128 3584 2408 3439 
Q 2688 3294 2919 2988 
z
M 2181 722 
Q 2541 722 2730 984 
Q 2919 1247 2919 1747 
Q 2919 2247 2730 2509 
Q 2541 2772 2181 2772 
Q 1825 2772 1636 2509 
Q 1447 2247 1447 1747 
Q 1447 1247 1636 984 
Q 1825 722 2181 722 
z
" transform="scale(0.015625)"/>
      <path id="DejaVuSans-Bold-67" d="M 2919 594 
Q 2688 288 2409 144 
Q 2131 0 1766 0 
Q 1125 0 706 504 
Q 288 1009 288 1791 
Q 288 2575 706 3076 
Q 1125 3578 1766 3578 
Q 2131 3578 2409 3434 
Q 2688 3291 2919 2981 
L 2919 3500 
L 4044 3500 
L 4044 353 
Q 4044 -491 3511 -936 
Q 2978 -1381 1966 -1381 
Q 1638 -1381 1331 -1331 
Q 1025 -1281 716 -1178 
L 716 -306 
Q 1009 -475 1290 -558 
Q 1572 -641 1856 -641 
Q 2406 -641 2662 -400 
Q 2919 -159 2919 353 
L 2919 594 
z
M 2181 2772 
Q 1834 2772 1640 2515 
Q 1447 2259 1447 1791 
Q 1447 1309 1634 1061 
Q 1822 813 2181 813 
Q 2531 813 2725 1069 
Q 2919 1325 2919 1791 
Q 2919 2259 2725 2515 
Q 2531 2772 2181 2772 
z
" transform="scale(0.015625)"/>
      <path id="DejaVuSans-Bold-65" d="M 4031 1759 
L 4031 1441 
L 1416 1441 
Q 1456 1047 1700 850 
Q 1944 653 2381 653 
Q 2734 653 3104 758 
Q 3475 863 3866 1075 
L 3866 213 
Q 3469 63 3072 -14 
Q 2675 -91 2278 -91 
Q 1328 -91 801 392 
Q 275 875 275 1747 
Q 275 2603 792 3093 
Q 1309 3584 2216 3584 
Q 3041 3584 3536 3087 
Q 4031 2591 4031 1759 
z
M 2881 2131 
Q 2881 2450 2695 2645 
Q 2509 2841 2209 2841 
Q 1884 2841 1681 2658 
Q 1478 2475 1428 2131 
L 2881 2131 
z
" transform="scale(0.015625)"/>
      <path id="DejaVuSans-Bold-20" transform="scale(0.015625)"/>
      <path id="DejaVuSans-Bold-43" d="M 4288 256 
Q 3956 84 3597 -3 
Q 3238 -91 2847 -91 
Q 1681 -91 1000 561 
Q 319 1213 319 2328 
Q 319 3447 1000 4098 
Q 1681 4750 2847 4750 
Q 3238 4750 3597 4662 
Q 3956 4575 4288 4403 
L 4288 3438 
Q 3953 3666 3628 3772 
Q 3303 3878 2944 3878 
Q 2300 3878 1931 3465 
Q 1563 3053 1563 2328 
Q 1563 1606 1931 1193 
Q 2300 781 2944 781 
Q 3303 781 3628 887 
Q 3953 994 4288 1222 
L 4288 256 
z
" transform="scale(0.015625)"/>
      <path id="DejaVuSans-Bold-6f" d="M 2203 2784 
Q 1831 2784 1636 2517 
Q 1441 2250 1441 1747 
Q 1441 1244 1636 976 
Q 1831 709 2203 709 
Q 2569 709 2762 976 
Q 2956 1244 2956 1747 
Q 2956 2250 2762 2517 
Q 2569 2784 2203 2784 
z
M 2203 3584 
Q 3106 3584 3614 3096 
Q 4122 2609 4122 1747 
Q 4122 884 3614 396 
Q 3106 -91 2203 -91 
Q 1297 -91 786 396 
Q 275 884 275 1747 
Q 275 2609 786 3096 
Q 1297 3584 2203 3584 
z
" transform="scale(0.015625)"/>
      <path id="DejaVuSans-Bold-76" d="M 97 3500 
L 1216 3500 
L 2088 1081 
L 2956 3500 
L 4078 3500 
L 2700 0 
L 1472 0 
L 97 3500 
z
" transform="scale(0.015625)"/>
      <path id="DejaVuSans-Bold-72" d="M 3138 2547 
Q 2991 2616 2845 2648 
Q 2700 2681 2553 2681 
Q 2122 2681 1889 2404 
Q 1656 2128 1656 1613 
L 1656 0 
L 538 0 
L 538 3500 
L 1656 3500 
L 1656 2925 
Q 1872 3269 2151 3426 
Q 2431 3584 2822 3584 
Q 2878 3584 2943 3579 
Q 3009 3575 3134 3559 
L 3138 2547 
z
" transform="scale(0.015625)"/>
      <path id="DejaVuSans-Bold-61" d="M 2106 1575 
Q 1756 1575 1579 1456 
Q 1403 1338 1403 1106 
Q 1403 894 1545 773 
Q 1688 653 1941 653 
Q 2256 653 2472 879 
Q 2688 1106 2688 1447 
L 2688 1575 
L 2106 1575 
z
M 3816 1997 
L 3816 0 
L 2688 0 
L 2688 519 
Q 2463 200 2181 54 
Q 1900 -91 1497 -91 
Q 953 -91 614 226 
Q 275 544 275 1050 
Q 275 1666 698 1953 
Q 1122 2241 2028 2241 
L 2688 2241 
L 2688 2328 
Q 2688 2594 2478 2717 
Q 2269 2841 1825 2841 
Q 1466 2841 1156 2769 
Q 847 2697 581 2553 
L 581 3406 
Q 941 3494 1303 3539 
Q 1666 3584 2028 3584 
Q 2975 3584 3395 3211 
Q 3816 2838 3816 1997 
z
" transform="scale(0.015625)"/>
      <path id="DejaVuSans-Bold-48" d="M 588 4666 
L 1791 4666 
L 1791 2888 
L 3566 2888 
L 3566 4666 
L 4769 4666 
L 4769 0 
L 3566 0 
L 3566 1978 
L 1791 1978 
L 1791 0 
L 588 0 
L 588 4666 
z
" transform="scale(0.015625)"/>
      <path id="DejaVuSans-Bold-69" d="M 538 3500 
L 1656 3500 
L 1656 0 
L 538 0 
L 538 3500 
z
M 538 4863 
L 1656 4863 
L 1656 3950 
L 538 3950 
L 538 4863 
z
" transform="scale(0.015625)"/>
      <path id="DejaVuSans-Bold-73" d="M 3272 3391 
L 3272 2541 
Q 2913 2691 2578 2766 
Q 2244 2841 1947 2841 
Q 1628 2841 1473 2761 
Q 1319 2681 1319 2516 
Q 1319 2381 1436 2309 
Q 1553 2238 1856 2203 
L 2053 2175 
Q 2913 2066 3209 1816 
Q 3506 1566 3506 1031 
Q 3506 472 3093 190 
Q 2681 -91 1863 -91 
Q 1516 -91 1145 -36 
Q 775 19 384 128 
L 384 978 
Q 719 816 1070 734 
Q 1422 653 1784 653 
Q 2113 653 2278 743 
Q 2444 834 2444 1013 
Q 2444 1163 2330 1236 
Q 2216 1309 1875 1350 
L 1678 1375 
Q 931 1469 631 1722 
Q 331 1975 331 2491 
Q 331 3047 712 3315 
Q 1094 3584 1881 3584 
Q 2191 3584 2531 3537 
Q 2872 3491 3272 3391 
z
" transform="scale(0.015625)"/>
      <path id="DejaVuSans-Bold-74" d="M 1759 4494 
L 1759 3500 
L 2913 3500 
L 2913 2700 
L 1759 2700 
L 1759 1216 
Q 1759 972 1856 886 
Q 1953 800 2241 800 
L 2816 800 
L 2816 0 
L 1856 0 
Q 1194 0 917 276 
Q 641 553 641 1216 
L 641 2700 
L 84 2700 
L 84 3500 
L 641 3500 
L 641 4494 
L 1759 4494 
z
" transform="scale(0.015625)"/>
      <path id="DejaVuSans-Bold-79" d="M 78 3500 
L 1197 3500 
L 2138 1125 
L 2938 3500 
L 4056 3500 
L 2584 -331 
Q 2363 -916 2067 -1148 
Q 1772 -1381 1288 -1381 
L 641 -1381 
L 641 -647 
L 991 -647 
Q 1275 -647 1404 -556 
Q 1534 -466 1606 -231 
L 1638 -134 
L 78 3500 
z
" transform="scale(0.015625)"/>
     </defs>
     <use xlink:href="#DejaVuSans-Bold-45"/>
     <use xlink:href="#DejaVuSans-Bold-64" x="68.310547"/>
     <use xlink:href="#DejaVuSans-Bold-67" x="139.892578"/>
     <use xlink:href="#DejaVuSans-Bold-65" x="211.474609"/>
     <use xlink:href="#DejaVuSans-Bold-20" x="279.296875"/>
     <use xlink:href="#DejaVuSans-Bold-43" x="314.111328"/>
     <use xlink:href="#DejaVuSans-Bold-6f" x="387.5"/>
     <use xlink:href="#DejaVuSans-Bold-76" x="456.201172"/>
     <use xlink:href="#DejaVuSans-Bold-65" x="521.386719"/>
     <use xlink:href="#DejaVuSans-Bold-72" x="589.208984"/>
     <use xlink:href="#DejaVuSans-Bold-61" x="638.525391"/>
     <use xlink:href="#DejaVuSans-Bold-67" x="706.005859"/>
     <use xlink:href="#DejaVuSans-Bold-65" x="777.587891"/>
     <use xlink:href="#DejaVuSans-Bold-20" x="845.410156"/>
     <use xlink:href="#DejaVuSans-Bold-48" x="880.224609"/>
     <use xlink:href="#DejaVuSans-Bold-69" x="963.916016"/>
     <use xlink:href="#DejaVuSans-Bold-73" x="998.193359"/>
     <use xlink:href="#DejaVuSans-Bold-74" x="1057.714844"/>
     <use xlink:href="#DejaVuSans-Bold-6f" x="1105.517578"/>
     <use xlink:href="#DejaVuSans-Bold-72" x="1174.21875"/>
     <use xlink:href="#DejaVuSans-Bold-79" x="1223.535156"/>
    </g>
   </g>
   <g id="legend_1">
    <g id="patch_5">
     <path d="M 267.942 508.24 
L 385.07 508.24 
Q 386.83 508.24 386.83 506.48 
L 386.83 428.8405 
Q 386.83 427.0805 385.07 427.0805 
L 267.942 427.0805 
Q 266.182 427.0805 266.182 428.8405 
L 266.182 506.48 
Q 266.182 508.24 267.942 508.24 
z
" style="fill: #ffffff; opacity: 0.8; stroke: #cccccc; stroke-width: 0.8; stroke-linejoin: miter"/>
    </g>
    <g id="text_42">
     <!-- fuzzer -->
     <g style="fill: #262626" transform="translate(311.809 437.895)scale(0.096 -0.096)">
      <defs>
       <path id="DejaVuSans-66" d="M 2375 4863 
L 2375 4384 
L 1825 4384 
Q 1516 4384 1395 4259 
Q 1275 4134 1275 3809 
L 1275 3500 
L 2222 3500 
L 2222 3053 
L 1275 3053 
L 1275 0 
L 697 0 
L 697 3053 
L 147 3053 
L 147 3500 
L 697 3500 
L 697 3744 
Q 697 4328 969 4595 
Q 1241 4863 1831 4863 
L 2375 4863 
z
" transform="scale(0.015625)"/>
       <path id="DejaVuSans-7a" d="M 353 3500 
L 3084 3500 
L 3084 2975 
L 922 459 
L 3084 459 
L 3084 0 
L 275 0 
L 275 525 
L 2438 3041 
L 353 3041 
L 353 3500 
z
" transform="scale(0.015625)"/>
      </defs>
      <use xlink:href="#DejaVuSans-66"/>
      <use xlink:href="#DejaVuSans-75" x="35.205078"/>
      <use xlink:href="#DejaVuSans-7a" x="98.583984"/>
      <use xlink:href="#DejaVuSans-7a" x="151.074219"/>
      <use xlink:href="#DejaVuSans-65" x="203.564453"/>
      <use xlink:href="#DejaVuSans-72" x="265.087891"/>
     </g>
    </g>
    <g id="line2d_49">
     <path d="M 269.702 447.898125 
L 278.502 447.898125 
L 287.302 447.898125 
" style="fill: none; stroke: #db5f57; stroke-width: 1.2; stroke-linecap: round"/>
    </g>
    <g id="text_43">
     <!-- afl-0-exid22 -->
     <g style="fill: #262626" transform="translate(294.342 450.978125)scale(0.088 -0.088)">
      <defs>
       <path id="DejaVuSans-6c" d="M 603 4863 
L 1178 4863 
L 1178 0 
L 603 0 
L 603 4863 
z
" transform="scale(0.015625)"/>
       <path id="DejaVuSans-2d" d="M 313 2009 
L 1997 2009 
L 1997 1497 
L 313 1497 
L 313 2009 
z
" transform="scale(0.015625)"/>
       <path id="DejaVuSans-78" d="M 3513 3500 
L 2247 1797 
L 3578 0 
L 2900 0 
L 1881 1375 
L 863 0 
L 184 0 
L 1544 1831 
L 300 3500 
L 978 3500 
L 1906 2253 
L 2834 3500 
L 3513 3500 
z
" transform="scale(0.015625)"/>
      </defs>
      <use xlink:href="#DejaVuSans-61"/>
      <use xlink:href="#DejaVuSans-66" x="61.279297"/>
      <use xlink:href="#DejaVuSans-6c" x="96.484375"/>
      <use xlink:href="#DejaVuSans-2d" x="124.267578"/>
      <use xlink:href="#DejaVuSans-30" x="160.351562"/>
      <use xlink:href="#DejaVuSans-2d" x="223.974609"/>
      <use xlink:href="#DejaVuSans-65" x="260.058594"/>
      <use xlink:href="#DejaVuSans-78" x="319.832031"/>
      <use xlink:href="#DejaVuSans-69" x="379.011719"/>
      <use xlink:href="#DejaVuSans-64" x="406.794922"/>
      <use xlink:href="#DejaVuSans-32" x="470.271484"/>
      <use xlink:href="#DejaVuSans-32" x="533.894531"/>
     </g>
    </g>
    <g id="line2d_50">
     <path d="M 269.702 460.814875 
L 278.502 460.814875 
L 287.302 460.814875 
" style="fill: none; stroke: #b9db57; stroke-width: 1.2; stroke-linecap: round"/>
    </g>
    <g id="text_44">
     <!-- fairfuzz-0-exid22 -->
     <g style="fill: #262626" transform="translate(294.342 463.894875)scale(0.088 -0.088)">
      <use xlink:href="#DejaVuSans-66"/>
      <use xlink:href="#DejaVuSans-61" x="35.205078"/>
      <use xlink:href="#DejaVuSans-69" x="96.484375"/>
      <use xlink:href="#DejaVuSans-72" x="124.267578"/>
      <use xlink:href="#DejaVuSans-66" x="165.380859"/>
      <use xlink:href="#DejaVuSans-75" x="200.585938"/>
      <use xlink:href="#DejaVuSans-7a" x="263.964844"/>
      <use xlink:href="#DejaVuSans-7a" x="316.455078"/>
      <use xlink:href="#DejaVuSans-2d" x="368.945312"/>
      <use xlink:href="#DejaVuSans-30" x="405.029297"/>
      <use xlink:href="#DejaVuSans-2d" x="468.652344"/>
      <use xlink:href="#DejaVuSans-65" x="504.736328"/>
      <use xlink:href="#DejaVuSans-78" x="564.509766"/>
      <use xlink:href="#DejaVuSans-69" x="623.689453"/>
      <use xlink:href="#DejaVuSans-64" x="651.472656"/>
      <use xlink:href="#DejaVuSans-32" x="714.949219"/>
      <use xlink:href="#DejaVuSans-32" x="778.572266"/>
     </g>
    </g>
    <g id="line2d_51">
     <path d="M 269.702 473.731625 
L 278.502 473.731625 
L 287.302 473.731625 
" style="fill: none; stroke: #57db94; stroke-width: 1.2; stroke-linecap: round"/>
    </g>
    <g id="text_45">
     <!-- aflfast-0-exid22 -->
     <g style="fill: #262626" transform="translate(294.342 476.811625)scale(0.088 -0.088)">
      <use xlink:href="#DejaVuSans-61"/>
      <use xlink:href="#DejaVuSans-66" x="61.279297"/>
      <use xlink:href="#DejaVuSans-6c" x="96.484375"/>
      <use xlink:href="#DejaVuSans-66" x="124.267578"/>
      <use xlink:href="#DejaVuSans-61" x="159.472656"/>
      <use xlink:href="#DejaVuSans-73" x="220.751953"/>
      <use xlink:href="#DejaVuSans-74" x="272.851562"/>
      <use xlink:href="#DejaVuSans-2d" x="312.060547"/>
      <use xlink:href="#DejaVuSans-30" x="348.144531"/>
      <use xlink:href="#DejaVuSans-2d" x="411.767578"/>
      <use xlink:href="#DejaVuSans-65" x="447.851562"/>
      <use xlink:href="#DejaVuSans-78" x="507.625"/>
      <use xlink:href="#DejaVuSans-69" x="566.804688"/>
      <use xlink:href="#DejaVuSans-64" x="594.587891"/>
      <use xlink:href="#DejaVuSans-32" x="658.064453"/>
      <use xlink:href="#DejaVuSans-32" x="721.6875"/>
     </g>
    </g>
    <g id="line2d_52">
     <path d="M 269.702 486.648375 
L 278.502 486.648375 
L 287.302 486.648375 
" style="fill: none; stroke: #5784db; stroke-width: 1.2; stroke-linecap: round"/>
    </g>
    <g id="text_46">
     <!-- aflplusplus-0-exid22 -->
     <g style="fill: #262626" transform="translate(294.342 489.728375)scale(0.088 -0.088)">
      <defs>
       <path id="DejaVuSans-70" d="M 1159 525 
L 1159 -1331 
L 581 -1331 
L 581 3500 
L 1159 3500 
L 1159 2969 
Q 1341 3281 1617 3432 
Q 1894 3584 2278 3584 
Q 2916 3584 3314 3078 
Q 3713 2572 3713 1747 
Q 3713 922 3314 415 
Q 2916 -91 2278 -91 
Q 1894 -91 1617 61 
Q 1341 213 1159 525 
z
M 3116 1747 
Q 3116 2381 2855 2742 
Q 2594 3103 2138 3103 
Q 1681 3103 1420 2742 
Q 1159 2381 1159 1747 
Q 1159 1113 1420 752 
Q 1681 391 2138 391 
Q 2594 391 2855 752 
Q 3116 1113 3116 1747 
z
" transform="scale(0.015625)"/>
      </defs>
      <use xlink:href="#DejaVuSans-61"/>
      <use xlink:href="#DejaVuSans-66" x="61.279297"/>
      <use xlink:href="#DejaVuSans-6c" x="96.484375"/>
      <use xlink:href="#DejaVuSans-70" x="124.267578"/>
      <use xlink:href="#DejaVuSans-6c" x="187.744141"/>
      <use xlink:href="#DejaVuSans-75" x="215.527344"/>
      <use xlink:href="#DejaVuSans-73" x="278.90625"/>
      <use xlink:href="#DejaVuSans-70" x="331.005859"/>
      <use xlink:href="#DejaVuSans-6c" x="394.482422"/>
      <use xlink:href="#DejaVuSans-75" x="422.265625"/>
      <use xlink:href="#DejaVuSans-73" x="485.644531"/>
      <use xlink:href="#DejaVuSans-2d" x="537.744141"/>
      <use xlink:href="#DejaVuSans-30" x="573.828125"/>
      <use xlink:href="#DejaVuSans-2d" x="637.451172"/>
      <use xlink:href="#DejaVuSans-65" x="673.535156"/>
      <use xlink:href="#DejaVuSans-78" x="733.308594"/>
      <use xlink:href="#DejaVuSans-69" x="792.488281"/>
      <use xlink:href="#DejaVuSans-64" x="820.271484"/>
      <use xlink:href="#DejaVuSans-32" x="883.748047"/>
      <use xlink:href="#DejaVuSans-32" x="947.371094"/>
     </g>
    </g>
    <g id="line2d_53">
     <path d="M 269.702 499.565125 
L 278.502 499.565125 
L 287.302 499.565125 
" style="fill: none; stroke: #c957db; stroke-width: 1.2; stroke-linecap: round"/>
    </g>
    <g id="text_47">
     <!-- fuzzer_global -->
     <g style="fill: #262626" transform="translate(294.342 502.645125)scale(0.088 -0.088)">
      <defs>
       <path id="DejaVuSans-5f" d="M 3263 -1063 
L 3263 -1509 
L -63 -1509 
L -63 -1063 
L 3263 -1063 
z
" transform="scale(0.015625)"/>
       <path id="DejaVuSans-62" d="M 3116 1747 
Q 3116 2381 2855 2742 
Q 2594 3103 2138 3103 
Q 1681 3103 1420 2742 
Q 1159 2381 1159 1747 
Q 1159 1113 1420 752 
Q 1681 391 2138 391 
Q 2594 391 2855 752 
Q 3116 1113 3116 1747 
z
M 1159 2969 
Q 1341 3281 1617 3432 
Q 1894 3584 2278 3584 
Q 2916 3584 3314 3078 
Q 3713 2572 3713 1747 
Q 3713 922 3314 415 
Q 2916 -91 2278 -91 
Q 1894 -91 1617 61 
Q 1341 213 1159 525 
L 1159 0 
L 581 0 
L 581 4863 
L 1159 4863 
L 1159 2969 
z
" transform="scale(0.015625)"/>
      </defs>
      <use xlink:href="#DejaVuSans-66"/>
      <use xlink:href="#DejaVuSans-75" x="35.205078"/>
      <use xlink:href="#DejaVuSans-7a" x="98.583984"/>
      <use xlink:href="#DejaVuSans-7a" x="151.074219"/>
      <use xlink:href="#DejaVuSans-65" x="203.564453"/>
      <use xlink:href="#DejaVuSans-72" x="265.087891"/>
      <use xlink:href="#DejaVuSans-5f" x="306.201172"/>
      <use xlink:href="#DejaVuSans-67" x="356.201172"/>
      <use xlink:href="#DejaVuSans-6c" x="419.677734"/>
      <use xlink:href="#DejaVuSans-6f" x="447.460938"/>
      <use xlink:href="#DejaVuSans-62" x="508.642578"/>
      <use xlink:href="#DejaVuSans-61" x="572.119141"/>
      <use xlink:href="#DejaVuSans-6c" x="633.398438"/>
     </g>
    </g>
   </g>
  </g>
 </g>
 <defs>
  <clipPath id="p11b053011e">
   <rect x="54.3375" y="69.12" width="336.8925" height="443.52"/>
  </clipPath>
 </defs>
</svg>
