<?xml version="1.0" encoding="utf-8" standalone="no"?>
<!DOCTYPE svg PUBLIC "-//W3C//DTD SVG 1.1//EN"
  "http://www.w3.org/Graphics/SVG/1.1/DTD/svg11.dtd">
<svg xmlns:xlink="http://www.w3.org/1999/xlink" width="435pt" height="576pt" viewBox="0 0 435 576" xmlns="http://www.w3.org/2000/svg" version="1.1">
 <metadata>
  <rdf:RDF xmlns:dc="http://purl.org/dc/elements/1.1/" xmlns:cc="http://creativecommons.org/ns#" xmlns:rdf="http://www.w3.org/1999/02/22-rdf-syntax-ns#">
   <cc:Work>
    <dc:type rdf:resource="http://purl.org/dc/dcmitype/StillImage"/>
    <dc:date>2022-09-15T10:28:52.553708</dc:date>
    <dc:format>image/svg+xml</dc:format>
    <dc:creator>
     <cc:Agent>
      <dc:title>Matplotlib v3.5.3, https://matplotlib.org/</dc:title>
     </cc:Agent>
    </dc:creator>
   </cc:Work>
  </rdf:RDF>
 </metadata>
 <defs>
  <style type="text/css">*{stroke-linejoin: round; stroke-linecap: butt}</style>
 </defs>
 <g id="figure_1">
  <g id="patch_1">
   <path d="M 0 576 
L 435 576 
L 435 0 
L 0 0 
z
" style="fill: #ffffff"/>
  </g>
  <g id="axes_1">
   <g id="patch_2">
    <path d="M 54.375 512.64 
L 391.5 512.64 
L 391.5 69.12 
L 54.375 69.12 
z
" style="fill: #ffffff"/>
   </g>
   <g id="matplotlib.axis_1">
    <g id="xtick_1">
     <g id="line2d_1">
      <path d="M 69.698864 512.64 
L 69.698864 69.12 
" clip-path="url(#pcc6d456fe8)" style="fill: none; stroke: #cccccc; stroke-width: 0.8; stroke-linecap: round"/>
     </g>
     <g id="text_1">
      <!-- 0 -->
      <g style="fill: #262626" transform="translate(69.43635 529.627249)rotate(-45)scale(0.088 -0.088)">
       <defs>
        <path id="DejaVuSans-30" d="M 2034 4250 
Q 1547 4250 1301 3770 
Q 1056 3291 1056 2328 
Q 1056 1369 1301 889 
Q 1547 409 2034 409 
Q 2525 409 2770 889 
Q 3016 1369 3016 2328 
Q 3016 3291 2770 3770 
Q 2525 4250 2034 4250 
z
M 2034 4750 
Q 2819 4750 3233 4129 
Q 3647 3509 3647 2328 
Q 3647 1150 3233 529 
Q 2819 -91 2034 -91 
Q 1250 -91 836 529 
Q 422 1150 422 2328 
Q 422 3509 836 4129 
Q 1250 4750 2034 4750 
z
" transform="scale(0.015625)"/>
       </defs>
       <use xlink:href="#DejaVuSans-30"/>
      </g>
     </g>
    </g>
    <g id="xtick_2">
     <g id="line2d_2">
      <path d="M 86.725379 512.64 
L 86.725379 69.12 
" clip-path="url(#pcc6d456fe8)" style="fill: none; stroke: #cccccc; stroke-width: 0.8; stroke-linecap: round"/>
     </g>
     <g id="text_2">
      <!-- 80 -->
      <g style="fill: #262626" transform="translate(84.48332 533.58634)rotate(-45)scale(0.088 -0.088)">
       <defs>
        <path id="DejaVuSans-38" d="M 2034 2216 
Q 1584 2216 1326 1975 
Q 1069 1734 1069 1313 
Q 1069 891 1326 650 
Q 1584 409 2034 409 
Q 2484 409 2743 651 
Q 3003 894 3003 1313 
Q 3003 1734 2745 1975 
Q 2488 2216 2034 2216 
z
M 1403 2484 
Q 997 2584 770 2862 
Q 544 3141 544 3541 
Q 544 4100 942 4425 
Q 1341 4750 2034 4750 
Q 2731 4750 3128 4425 
Q 3525 4100 3525 3541 
Q 3525 3141 3298 2862 
Q 3072 2584 2669 2484 
Q 3125 2378 3379 2068 
Q 3634 1759 3634 1313 
Q 3634 634 3220 271 
Q 2806 -91 2034 -91 
Q 1263 -91 848 271 
Q 434 634 434 1313 
Q 434 1759 690 2068 
Q 947 2378 1403 2484 
z
M 1172 3481 
Q 1172 3119 1398 2916 
Q 1625 2713 2034 2713 
Q 2441 2713 2670 2916 
Q 2900 3119 2900 3481 
Q 2900 3844 2670 4047 
Q 2441 4250 2034 4250 
Q 1625 4250 1398 4047 
Q 1172 3844 1172 3481 
z
" transform="scale(0.015625)"/>
       </defs>
       <use xlink:href="#DejaVuSans-38"/>
       <use xlink:href="#DejaVuSans-30" x="63.623047"/>
      </g>
     </g>
    </g>
    <g id="xtick_3">
     <g id="line2d_3">
      <path d="M 103.751894 512.64 
L 103.751894 69.12 
" clip-path="url(#pcc6d456fe8)" style="fill: none; stroke: #cccccc; stroke-width: 0.8; stroke-linecap: round"/>
     </g>
     <g id="text_3">
      <!-- 160 -->
      <g style="fill: #262626" transform="translate(99.53029 537.54543)rotate(-45)scale(0.088 -0.088)">
       <defs>
        <path id="DejaVuSans-31" d="M 794 531 
L 1825 531 
L 1825 4091 
L 703 3866 
L 703 4441 
L 1819 4666 
L 2450 4666 
L 2450 531 
L 3481 531 
L 3481 0 
L 794 0 
L 794 531 
z
" transform="scale(0.015625)"/>
        <path id="DejaVuSans-36" d="M 2113 2584 
Q 1688 2584 1439 2293 
Q 1191 2003 1191 1497 
Q 1191 994 1439 701 
Q 1688 409 2113 409 
Q 2538 409 2786 701 
Q 3034 994 3034 1497 
Q 3034 2003 2786 2293 
Q 2538 2584 2113 2584 
z
M 3366 4563 
L 3366 3988 
Q 3128 4100 2886 4159 
Q 2644 4219 2406 4219 
Q 1781 4219 1451 3797 
Q 1122 3375 1075 2522 
Q 1259 2794 1537 2939 
Q 1816 3084 2150 3084 
Q 2853 3084 3261 2657 
Q 3669 2231 3669 1497 
Q 3669 778 3244 343 
Q 2819 -91 2113 -91 
Q 1303 -91 875 529 
Q 447 1150 447 2328 
Q 447 3434 972 4092 
Q 1497 4750 2381 4750 
Q 2619 4750 2861 4703 
Q 3103 4656 3366 4563 
z
" transform="scale(0.015625)"/>
       </defs>
       <use xlink:href="#DejaVuSans-31"/>
       <use xlink:href="#DejaVuSans-36" x="63.623047"/>
       <use xlink:href="#DejaVuSans-30" x="127.246094"/>
      </g>
     </g>
    </g>
    <g id="xtick_4">
     <g id="line2d_4">
      <path d="M 120.778409 512.64 
L 120.778409 69.12 
" clip-path="url(#pcc6d456fe8)" style="fill: none; stroke: #cccccc; stroke-width: 0.8; stroke-linecap: round"/>
     </g>
     <g id="text_4">
      <!-- 240 -->
      <g style="fill: #262626" transform="translate(116.556805 537.54543)rotate(-45)scale(0.088 -0.088)">
       <defs>
        <path id="DejaVuSans-32" d="M 1228 531 
L 3431 531 
L 3431 0 
L 469 0 
L 469 531 
Q 828 903 1448 1529 
Q 2069 2156 2228 2338 
Q 2531 2678 2651 2914 
Q 2772 3150 2772 3378 
Q 2772 3750 2511 3984 
Q 2250 4219 1831 4219 
Q 1534 4219 1204 4116 
Q 875 4013 500 3803 
L 500 4441 
Q 881 4594 1212 4672 
Q 1544 4750 1819 4750 
Q 2544 4750 2975 4387 
Q 3406 4025 3406 3419 
Q 3406 3131 3298 2873 
Q 3191 2616 2906 2266 
Q 2828 2175 2409 1742 
Q 1991 1309 1228 531 
z
" transform="scale(0.015625)"/>
        <path id="DejaVuSans-34" d="M 2419 4116 
L 825 1625 
L 2419 1625 
L 2419 4116 
z
M 2253 4666 
L 3047 4666 
L 3047 1625 
L 3713 1625 
L 3713 1100 
L 3047 1100 
L 3047 0 
L 2419 0 
L 2419 1100 
L 313 1100 
L 313 1709 
L 2253 4666 
z
" transform="scale(0.015625)"/>
       </defs>
       <use xlink:href="#DejaVuSans-32"/>
       <use xlink:href="#DejaVuSans-34" x="63.623047"/>
       <use xlink:href="#DejaVuSans-30" x="127.246094"/>
      </g>
     </g>
    </g>
    <g id="xtick_5">
     <g id="line2d_5">
      <path d="M 137.804924 512.64 
L 137.804924 69.12 
" clip-path="url(#pcc6d456fe8)" style="fill: none; stroke: #cccccc; stroke-width: 0.8; stroke-linecap: round"/>
     </g>
     <g id="text_5">
      <!-- 320 -->
      <g style="fill: #262626" transform="translate(133.58332 537.54543)rotate(-45)scale(0.088 -0.088)">
       <defs>
        <path id="DejaVuSans-33" d="M 2597 2516 
Q 3050 2419 3304 2112 
Q 3559 1806 3559 1356 
Q 3559 666 3084 287 
Q 2609 -91 1734 -91 
Q 1441 -91 1130 -33 
Q 819 25 488 141 
L 488 750 
Q 750 597 1062 519 
Q 1375 441 1716 441 
Q 2309 441 2620 675 
Q 2931 909 2931 1356 
Q 2931 1769 2642 2001 
Q 2353 2234 1838 2234 
L 1294 2234 
L 1294 2753 
L 1863 2753 
Q 2328 2753 2575 2939 
Q 2822 3125 2822 3475 
Q 2822 3834 2567 4026 
Q 2313 4219 1838 4219 
Q 1578 4219 1281 4162 
Q 984 4106 628 3988 
L 628 4550 
Q 988 4650 1302 4700 
Q 1616 4750 1894 4750 
Q 2613 4750 3031 4423 
Q 3450 4097 3450 3541 
Q 3450 3153 3228 2886 
Q 3006 2619 2597 2516 
z
" transform="scale(0.015625)"/>
       </defs>
       <use xlink:href="#DejaVuSans-33"/>
       <use xlink:href="#DejaVuSans-32" x="63.623047"/>
       <use xlink:href="#DejaVuSans-30" x="127.246094"/>
      </g>
     </g>
    </g>
    <g id="xtick_6">
     <g id="line2d_6">
      <path d="M 154.831439 512.64 
L 154.831439 69.12 
" clip-path="url(#pcc6d456fe8)" style="fill: none; stroke: #cccccc; stroke-width: 0.8; stroke-linecap: round"/>
     </g>
     <g id="text_6">
      <!-- 400 -->
      <g style="fill: #262626" transform="translate(150.609835 537.54543)rotate(-45)scale(0.088 -0.088)">
       <use xlink:href="#DejaVuSans-34"/>
       <use xlink:href="#DejaVuSans-30" x="63.623047"/>
       <use xlink:href="#DejaVuSans-30" x="127.246094"/>
      </g>
     </g>
    </g>
    <g id="xtick_7">
     <g id="line2d_7">
      <path d="M 171.857955 512.64 
L 171.857955 69.12 
" clip-path="url(#pcc6d456fe8)" style="fill: none; stroke: #cccccc; stroke-width: 0.8; stroke-linecap: round"/>
     </g>
     <g id="text_7">
      <!-- 480 -->
      <g style="fill: #262626" transform="translate(167.63635 537.54543)rotate(-45)scale(0.088 -0.088)">
       <use xlink:href="#DejaVuSans-34"/>
       <use xlink:href="#DejaVuSans-38" x="63.623047"/>
       <use xlink:href="#DejaVuSans-30" x="127.246094"/>
      </g>
     </g>
    </g>
    <g id="xtick_8">
     <g id="line2d_8">
      <path d="M 188.88447 512.64 
L 188.88447 69.12 
" clip-path="url(#pcc6d456fe8)" style="fill: none; stroke: #cccccc; stroke-width: 0.8; stroke-linecap: round"/>
     </g>
     <g id="text_8">
      <!-- 560 -->
      <g style="fill: #262626" transform="translate(184.662865 537.54543)rotate(-45)scale(0.088 -0.088)">
       <defs>
        <path id="DejaVuSans-35" d="M 691 4666 
L 3169 4666 
L 3169 4134 
L 1269 4134 
L 1269 2991 
Q 1406 3038 1543 3061 
Q 1681 3084 1819 3084 
Q 2600 3084 3056 2656 
Q 3513 2228 3513 1497 
Q 3513 744 3044 326 
Q 2575 -91 1722 -91 
Q 1428 -91 1123 -41 
Q 819 9 494 109 
L 494 744 
Q 775 591 1075 516 
Q 1375 441 1709 441 
Q 2250 441 2565 725 
Q 2881 1009 2881 1497 
Q 2881 1984 2565 2268 
Q 2250 2553 1709 2553 
Q 1456 2553 1204 2497 
Q 953 2441 691 2322 
L 691 4666 
z
" transform="scale(0.015625)"/>
       </defs>
       <use xlink:href="#DejaVuSans-35"/>
       <use xlink:href="#DejaVuSans-36" x="63.623047"/>
       <use xlink:href="#DejaVuSans-30" x="127.246094"/>
      </g>
     </g>
    </g>
    <g id="xtick_9">
     <g id="line2d_9">
      <path d="M 205.910985 512.64 
L 205.910985 69.12 
" clip-path="url(#pcc6d456fe8)" style="fill: none; stroke: #cccccc; stroke-width: 0.8; stroke-linecap: round"/>
     </g>
     <g id="text_9">
      <!-- 640 -->
      <g style="fill: #262626" transform="translate(201.689381 537.54543)rotate(-45)scale(0.088 -0.088)">
       <use xlink:href="#DejaVuSans-36"/>
       <use xlink:href="#DejaVuSans-34" x="63.623047"/>
       <use xlink:href="#DejaVuSans-30" x="127.246094"/>
      </g>
     </g>
    </g>
    <g id="xtick_10">
     <g id="line2d_10">
      <path d="M 222.9375 512.64 
L 222.9375 69.12 
" clip-path="url(#pcc6d456fe8)" style="fill: none; stroke: #cccccc; stroke-width: 0.8; stroke-linecap: round"/>
     </g>
     <g id="text_10">
      <!-- 720 -->
      <g style="fill: #262626" transform="translate(218.715896 537.54543)rotate(-45)scale(0.088 -0.088)">
       <defs>
        <path id="DejaVuSans-37" d="M 525 4666 
L 3525 4666 
L 3525 4397 
L 1831 0 
L 1172 0 
L 2766 4134 
L 525 4134 
L 525 4666 
z
" transform="scale(0.015625)"/>
       </defs>
       <use xlink:href="#DejaVuSans-37"/>
       <use xlink:href="#DejaVuSans-32" x="63.623047"/>
       <use xlink:href="#DejaVuSans-30" x="127.246094"/>
      </g>
     </g>
    </g>
    <g id="xtick_11">
     <g id="line2d_11">
      <path d="M 239.964015 512.64 
L 239.964015 69.12 
" clip-path="url(#pcc6d456fe8)" style="fill: none; stroke: #cccccc; stroke-width: 0.8; stroke-linecap: round"/>
     </g>
     <g id="text_11">
      <!-- 800 -->
      <g style="fill: #262626" transform="translate(235.742411 537.54543)rotate(-45)scale(0.088 -0.088)">
       <use xlink:href="#DejaVuSans-38"/>
       <use xlink:href="#DejaVuSans-30" x="63.623047"/>
       <use xlink:href="#DejaVuSans-30" x="127.246094"/>
      </g>
     </g>
    </g>
    <g id="xtick_12">
     <g id="line2d_12">
      <path d="M 256.99053 512.64 
L 256.99053 69.12 
" clip-path="url(#pcc6d456fe8)" style="fill: none; stroke: #cccccc; stroke-width: 0.8; stroke-linecap: round"/>
     </g>
     <g id="text_12">
      <!-- 880 -->
      <g style="fill: #262626" transform="translate(252.768926 537.54543)rotate(-45)scale(0.088 -0.088)">
       <use xlink:href="#DejaVuSans-38"/>
       <use xlink:href="#DejaVuSans-38" x="63.623047"/>
       <use xlink:href="#DejaVuSans-30" x="127.246094"/>
      </g>
     </g>
    </g>
    <g id="xtick_13">
     <g id="line2d_13">
      <path d="M 274.017045 512.64 
L 274.017045 69.12 
" clip-path="url(#pcc6d456fe8)" style="fill: none; stroke: #cccccc; stroke-width: 0.8; stroke-linecap: round"/>
     </g>
     <g id="text_13">
      <!-- 960 -->
      <g style="fill: #262626" transform="translate(269.795441 537.54543)rotate(-45)scale(0.088 -0.088)">
       <defs>
        <path id="DejaVuSans-39" d="M 703 97 
L 703 672 
Q 941 559 1184 500 
Q 1428 441 1663 441 
Q 2288 441 2617 861 
Q 2947 1281 2994 2138 
Q 2813 1869 2534 1725 
Q 2256 1581 1919 1581 
Q 1219 1581 811 2004 
Q 403 2428 403 3163 
Q 403 3881 828 4315 
Q 1253 4750 1959 4750 
Q 2769 4750 3195 4129 
Q 3622 3509 3622 2328 
Q 3622 1225 3098 567 
Q 2575 -91 1691 -91 
Q 1453 -91 1209 -44 
Q 966 3 703 97 
z
M 1959 2075 
Q 2384 2075 2632 2365 
Q 2881 2656 2881 3163 
Q 2881 3666 2632 3958 
Q 2384 4250 1959 4250 
Q 1534 4250 1286 3958 
Q 1038 3666 1038 3163 
Q 1038 2656 1286 2365 
Q 1534 2075 1959 2075 
z
" transform="scale(0.015625)"/>
       </defs>
       <use xlink:href="#DejaVuSans-39"/>
       <use xlink:href="#DejaVuSans-36" x="63.623047"/>
       <use xlink:href="#DejaVuSans-30" x="127.246094"/>
      </g>
     </g>
    </g>
    <g id="xtick_14">
     <g id="line2d_14">
      <path d="M 291.043561 512.64 
L 291.043561 69.12 
" clip-path="url(#pcc6d456fe8)" style="fill: none; stroke: #cccccc; stroke-width: 0.8; stroke-linecap: round"/>
     </g>
     <g id="text_14">
      <!-- 1040 -->
      <g style="fill: #262626" transform="translate(284.842411 541.504521)rotate(-45)scale(0.088 -0.088)">
       <use xlink:href="#DejaVuSans-31"/>
       <use xlink:href="#DejaVuSans-30" x="63.623047"/>
       <use xlink:href="#DejaVuSans-34" x="127.246094"/>
       <use xlink:href="#DejaVuSans-30" x="190.869141"/>
      </g>
     </g>
    </g>
    <g id="xtick_15">
     <g id="line2d_15">
      <path d="M 308.070076 512.64 
L 308.070076 69.12 
" clip-path="url(#pcc6d456fe8)" style="fill: none; stroke: #cccccc; stroke-width: 0.8; stroke-linecap: round"/>
     </g>
     <g id="text_15">
      <!-- 1120 -->
      <g style="fill: #262626" transform="translate(301.868926 541.504521)rotate(-45)scale(0.088 -0.088)">
       <use xlink:href="#DejaVuSans-31"/>
       <use xlink:href="#DejaVuSans-31" x="63.623047"/>
       <use xlink:href="#DejaVuSans-32" x="127.246094"/>
       <use xlink:href="#DejaVuSans-30" x="190.869141"/>
      </g>
     </g>
    </g>
    <g id="xtick_16">
     <g id="line2d_16">
      <path d="M 325.096591 512.64 
L 325.096591 69.12 
" clip-path="url(#pcc6d456fe8)" style="fill: none; stroke: #cccccc; stroke-width: 0.8; stroke-linecap: round"/>
     </g>
     <g id="text_16">
      <!-- 1200 -->
      <g style="fill: #262626" transform="translate(318.895441 541.504521)rotate(-45)scale(0.088 -0.088)">
       <use xlink:href="#DejaVuSans-31"/>
       <use xlink:href="#DejaVuSans-32" x="63.623047"/>
       <use xlink:href="#DejaVuSans-30" x="127.246094"/>
       <use xlink:href="#DejaVuSans-30" x="190.869141"/>
      </g>
     </g>
    </g>
    <g id="xtick_17">
     <g id="line2d_17">
      <path d="M 342.123106 512.64 
L 342.123106 69.12 
" clip-path="url(#pcc6d456fe8)" style="fill: none; stroke: #cccccc; stroke-width: 0.8; stroke-linecap: round"/>
     </g>
     <g id="text_17">
      <!-- 1280 -->
      <g style="fill: #262626" transform="translate(335.921956 541.504521)rotate(-45)scale(0.088 -0.088)">
       <use xlink:href="#DejaVuSans-31"/>
       <use xlink:href="#DejaVuSans-32" x="63.623047"/>
       <use xlink:href="#DejaVuSans-38" x="127.246094"/>
       <use xlink:href="#DejaVuSans-30" x="190.869141"/>
      </g>
     </g>
    </g>
    <g id="xtick_18">
     <g id="line2d_18">
      <path d="M 359.149621 512.64 
L 359.149621 69.12 
" clip-path="url(#pcc6d456fe8)" style="fill: none; stroke: #cccccc; stroke-width: 0.8; stroke-linecap: round"/>
     </g>
     <g id="text_18">
      <!-- 1360 -->
      <g style="fill: #262626" transform="translate(352.948472 541.504521)rotate(-45)scale(0.088 -0.088)">
       <use xlink:href="#DejaVuSans-31"/>
       <use xlink:href="#DejaVuSans-33" x="63.623047"/>
       <use xlink:href="#DejaVuSans-36" x="127.246094"/>
       <use xlink:href="#DejaVuSans-30" x="190.869141"/>
      </g>
     </g>
    </g>
    <g id="xtick_19">
     <g id="line2d_19">
      <path d="M 376.176136 512.64 
L 376.176136 69.12 
" clip-path="url(#pcc6d456fe8)" style="fill: none; stroke: #cccccc; stroke-width: 0.8; stroke-linecap: round"/>
     </g>
     <g id="text_19">
      <!-- 1440 -->
      <g style="fill: #262626" transform="translate(369.974987 541.504521)rotate(-45)scale(0.088 -0.088)">
       <use xlink:href="#DejaVuSans-31"/>
       <use xlink:href="#DejaVuSans-34" x="63.623047"/>
       <use xlink:href="#DejaVuSans-34" x="127.246094"/>
       <use xlink:href="#DejaVuSans-30" x="190.869141"/>
      </g>
     </g>
    </g>
    <g id="text_20">
     <!-- Time (Minutes) -->
     <g style="fill: #262626" transform="translate(187.0275 554.093115)scale(0.096 -0.096)">
      <defs>
       <path id="DejaVuSans-54" d="M -19 4666 
L 3928 4666 
L 3928 4134 
L 2272 4134 
L 2272 0 
L 1638 0 
L 1638 4134 
L -19 4134 
L -19 4666 
z
" transform="scale(0.015625)"/>
       <path id="DejaVuSans-69" d="M 603 3500 
L 1178 3500 
L 1178 0 
L 603 0 
L 603 3500 
z
M 603 4863 
L 1178 4863 
L 1178 4134 
L 603 4134 
L 603 4863 
z
" transform="scale(0.015625)"/>
       <path id="DejaVuSans-6d" d="M 3328 2828 
Q 3544 3216 3844 3400 
Q 4144 3584 4550 3584 
Q 5097 3584 5394 3201 
Q 5691 2819 5691 2113 
L 5691 0 
L 5113 0 
L 5113 2094 
Q 5113 2597 4934 2840 
Q 4756 3084 4391 3084 
Q 3944 3084 3684 2787 
Q 3425 2491 3425 1978 
L 3425 0 
L 2847 0 
L 2847 2094 
Q 2847 2600 2669 2842 
Q 2491 3084 2119 3084 
Q 1678 3084 1418 2786 
Q 1159 2488 1159 1978 
L 1159 0 
L 581 0 
L 581 3500 
L 1159 3500 
L 1159 2956 
Q 1356 3278 1631 3431 
Q 1906 3584 2284 3584 
Q 2666 3584 2933 3390 
Q 3200 3197 3328 2828 
z
" transform="scale(0.015625)"/>
       <path id="DejaVuSans-65" d="M 3597 1894 
L 3597 1613 
L 953 1613 
Q 991 1019 1311 708 
Q 1631 397 2203 397 
Q 2534 397 2845 478 
Q 3156 559 3463 722 
L 3463 178 
Q 3153 47 2828 -22 
Q 2503 -91 2169 -91 
Q 1331 -91 842 396 
Q 353 884 353 1716 
Q 353 2575 817 3079 
Q 1281 3584 2069 3584 
Q 2775 3584 3186 3129 
Q 3597 2675 3597 1894 
z
M 3022 2063 
Q 3016 2534 2758 2815 
Q 2500 3097 2075 3097 
Q 1594 3097 1305 2825 
Q 1016 2553 972 2059 
L 3022 2063 
z
" transform="scale(0.015625)"/>
       <path id="DejaVuSans-20" transform="scale(0.015625)"/>
       <path id="DejaVuSans-28" d="M 1984 4856 
Q 1566 4138 1362 3434 
Q 1159 2731 1159 2009 
Q 1159 1288 1364 580 
Q 1569 -128 1984 -844 
L 1484 -844 
Q 1016 -109 783 600 
Q 550 1309 550 2009 
Q 550 2706 781 3412 
Q 1013 4119 1484 4856 
L 1984 4856 
z
" transform="scale(0.015625)"/>
       <path id="DejaVuSans-4d" d="M 628 4666 
L 1569 4666 
L 2759 1491 
L 3956 4666 
L 4897 4666 
L 4897 0 
L 4281 0 
L 4281 4097 
L 3078 897 
L 2444 897 
L 1241 4097 
L 1241 0 
L 628 0 
L 628 4666 
z
" transform="scale(0.015625)"/>
       <path id="DejaVuSans-6e" d="M 3513 2113 
L 3513 0 
L 2938 0 
L 2938 2094 
Q 2938 2591 2744 2837 
Q 2550 3084 2163 3084 
Q 1697 3084 1428 2787 
Q 1159 2491 1159 1978 
L 1159 0 
L 581 0 
L 581 3500 
L 1159 3500 
L 1159 2956 
Q 1366 3272 1645 3428 
Q 1925 3584 2291 3584 
Q 2894 3584 3203 3211 
Q 3513 2838 3513 2113 
z
" transform="scale(0.015625)"/>
       <path id="DejaVuSans-75" d="M 544 1381 
L 544 3500 
L 1119 3500 
L 1119 1403 
Q 1119 906 1312 657 
Q 1506 409 1894 409 
Q 2359 409 2629 706 
Q 2900 1003 2900 1516 
L 2900 3500 
L 3475 3500 
L 3475 0 
L 2900 0 
L 2900 538 
Q 2691 219 2414 64 
Q 2138 -91 1772 -91 
Q 1169 -91 856 284 
Q 544 659 544 1381 
z
M 1991 3584 
L 1991 3584 
z
" transform="scale(0.015625)"/>
       <path id="DejaVuSans-74" d="M 1172 4494 
L 1172 3500 
L 2356 3500 
L 2356 3053 
L 1172 3053 
L 1172 1153 
Q 1172 725 1289 603 
Q 1406 481 1766 481 
L 2356 481 
L 2356 0 
L 1766 0 
Q 1100 0 847 248 
Q 594 497 594 1153 
L 594 3053 
L 172 3053 
L 172 3500 
L 594 3500 
L 594 4494 
L 1172 4494 
z
" transform="scale(0.015625)"/>
       <path id="DejaVuSans-73" d="M 2834 3397 
L 2834 2853 
Q 2591 2978 2328 3040 
Q 2066 3103 1784 3103 
Q 1356 3103 1142 2972 
Q 928 2841 928 2578 
Q 928 2378 1081 2264 
Q 1234 2150 1697 2047 
L 1894 2003 
Q 2506 1872 2764 1633 
Q 3022 1394 3022 966 
Q 3022 478 2636 193 
Q 2250 -91 1575 -91 
Q 1294 -91 989 -36 
Q 684 19 347 128 
L 347 722 
Q 666 556 975 473 
Q 1284 391 1588 391 
Q 1994 391 2212 530 
Q 2431 669 2431 922 
Q 2431 1156 2273 1281 
Q 2116 1406 1581 1522 
L 1381 1569 
Q 847 1681 609 1914 
Q 372 2147 372 2553 
Q 372 3047 722 3315 
Q 1072 3584 1716 3584 
Q 2034 3584 2315 3537 
Q 2597 3491 2834 3397 
z
" transform="scale(0.015625)"/>
       <path id="DejaVuSans-29" d="M 513 4856 
L 1013 4856 
Q 1481 4119 1714 3412 
Q 1947 2706 1947 2009 
Q 1947 1309 1714 600 
Q 1481 -109 1013 -844 
L 513 -844 
Q 928 -128 1133 580 
Q 1338 1288 1338 2009 
Q 1338 2731 1133 3434 
Q 928 4138 513 4856 
z
" transform="scale(0.015625)"/>
      </defs>
      <use xlink:href="#DejaVuSans-54"/>
      <use xlink:href="#DejaVuSans-69" x="57.958984"/>
      <use xlink:href="#DejaVuSans-6d" x="85.742188"/>
      <use xlink:href="#DejaVuSans-65" x="183.154297"/>
      <use xlink:href="#DejaVuSans-20" x="244.677734"/>
      <use xlink:href="#DejaVuSans-28" x="276.464844"/>
      <use xlink:href="#DejaVuSans-4d" x="315.478516"/>
      <use xlink:href="#DejaVuSans-69" x="401.757812"/>
      <use xlink:href="#DejaVuSans-6e" x="429.541016"/>
      <use xlink:href="#DejaVuSans-75" x="492.919922"/>
      <use xlink:href="#DejaVuSans-74" x="556.298828"/>
      <use xlink:href="#DejaVuSans-65" x="595.507812"/>
      <use xlink:href="#DejaVuSans-73" x="657.03125"/>
      <use xlink:href="#DejaVuSans-29" x="709.130859"/>
     </g>
    </g>
   </g>
   <g id="matplotlib.axis_2">
    <g id="ytick_1">
     <g id="line2d_20">
      <path d="M 54.375 492.48 
L 391.5 492.48 
" clip-path="url(#pcc6d456fe8)" style="fill: none; stroke: #cccccc; stroke-width: 0.8; stroke-linecap: round"/>
     </g>
     <g id="text_21">
      <!-- 0 -->
      <g style="fill: #262626" transform="translate(40.476 495.823313)scale(0.088 -0.088)">
       <use xlink:href="#DejaVuSans-30"/>
      </g>
     </g>
    </g>
    <g id="ytick_2">
     <g id="line2d_21">
      <path d="M 54.375 476.358449 
L 391.5 476.358449 
" clip-path="url(#pcc6d456fe8)" style="fill: none; stroke: #cccccc; stroke-width: 0.8; stroke-linecap: round"/>
     </g>
     <g id="text_22">
      <!-- 100 -->
      <g style="fill: #262626" transform="translate(29.278 479.701761)scale(0.088 -0.088)">
       <use xlink:href="#DejaVuSans-31"/>
       <use xlink:href="#DejaVuSans-30" x="63.623047"/>
       <use xlink:href="#DejaVuSans-30" x="127.246094"/>
      </g>
     </g>
    </g>
    <g id="ytick_3">
     <g id="line2d_22">
      <path d="M 54.375 460.236897 
L 391.5 460.236897 
" clip-path="url(#pcc6d456fe8)" style="fill: none; stroke: #cccccc; stroke-width: 0.8; stroke-linecap: round"/>
     </g>
     <g id="text_23">
      <!-- 200 -->
      <g style="fill: #262626" transform="translate(29.278 463.58021)scale(0.088 -0.088)">
       <use xlink:href="#DejaVuSans-32"/>
       <use xlink:href="#DejaVuSans-30" x="63.623047"/>
       <use xlink:href="#DejaVuSans-30" x="127.246094"/>
      </g>
     </g>
    </g>
    <g id="ytick_4">
     <g id="line2d_23">
      <path d="M 54.375 444.115346 
L 391.5 444.115346 
" clip-path="url(#pcc6d456fe8)" style="fill: none; stroke: #cccccc; stroke-width: 0.8; stroke-linecap: round"/>
     </g>
     <g id="text_24">
      <!-- 300 -->
      <g style="fill: #262626" transform="translate(29.278 447.458658)scale(0.088 -0.088)">
       <use xlink:href="#DejaVuSans-33"/>
       <use xlink:href="#DejaVuSans-30" x="63.623047"/>
       <use xlink:href="#DejaVuSans-30" x="127.246094"/>
      </g>
     </g>
    </g>
    <g id="ytick_5">
     <g id="line2d_24">
      <path d="M 54.375 427.993794 
L 391.5 427.993794 
" clip-path="url(#pcc6d456fe8)" style="fill: none; stroke: #cccccc; stroke-width: 0.8; stroke-linecap: round"/>
     </g>
     <g id="text_25">
      <!-- 400 -->
      <g style="fill: #262626" transform="translate(29.278 431.337107)scale(0.088 -0.088)">
       <use xlink:href="#DejaVuSans-34"/>
       <use xlink:href="#DejaVuSans-30" x="63.623047"/>
       <use xlink:href="#DejaVuSans-30" x="127.246094"/>
      </g>
     </g>
    </g>
    <g id="ytick_6">
     <g id="line2d_25">
      <path d="M 54.375 411.872243 
L 391.5 411.872243 
" clip-path="url(#pcc6d456fe8)" style="fill: none; stroke: #cccccc; stroke-width: 0.8; stroke-linecap: round"/>
     </g>
     <g id="text_26">
      <!-- 500 -->
      <g style="fill: #262626" transform="translate(29.278 415.215556)scale(0.088 -0.088)">
       <use xlink:href="#DejaVuSans-35"/>
       <use xlink:href="#DejaVuSans-30" x="63.623047"/>
       <use xlink:href="#DejaVuSans-30" x="127.246094"/>
      </g>
     </g>
    </g>
    <g id="ytick_7">
     <g id="line2d_26">
      <path d="M 54.375 395.750692 
L 391.5 395.750692 
" clip-path="url(#pcc6d456fe8)" style="fill: none; stroke: #cccccc; stroke-width: 0.8; stroke-linecap: round"/>
     </g>
     <g id="text_27">
      <!-- 600 -->
      <g style="fill: #262626" transform="translate(29.278 399.094004)scale(0.088 -0.088)">
       <use xlink:href="#DejaVuSans-36"/>
       <use xlink:href="#DejaVuSans-30" x="63.623047"/>
       <use xlink:href="#DejaVuSans-30" x="127.246094"/>
      </g>
     </g>
    </g>
    <g id="ytick_8">
     <g id="line2d_27">
      <path d="M 54.375 379.62914 
L 391.5 379.62914 
" clip-path="url(#pcc6d456fe8)" style="fill: none; stroke: #cccccc; stroke-width: 0.8; stroke-linecap: round"/>
     </g>
     <g id="text_28">
      <!-- 700 -->
      <g style="fill: #262626" transform="translate(29.278 382.972453)scale(0.088 -0.088)">
       <use xlink:href="#DejaVuSans-37"/>
       <use xlink:href="#DejaVuSans-30" x="63.623047"/>
       <use xlink:href="#DejaVuSans-30" x="127.246094"/>
      </g>
     </g>
    </g>
    <g id="ytick_9">
     <g id="line2d_28">
      <path d="M 54.375 363.507589 
L 391.5 363.507589 
" clip-path="url(#pcc6d456fe8)" style="fill: none; stroke: #cccccc; stroke-width: 0.8; stroke-linecap: round"/>
     </g>
     <g id="text_29">
      <!-- 800 -->
      <g style="fill: #262626" transform="translate(29.278 366.850901)scale(0.088 -0.088)">
       <use xlink:href="#DejaVuSans-38"/>
       <use xlink:href="#DejaVuSans-30" x="63.623047"/>
       <use xlink:href="#DejaVuSans-30" x="127.246094"/>
      </g>
     </g>
    </g>
    <g id="ytick_10">
     <g id="line2d_29">
      <path d="M 54.375 347.386038 
L 391.5 347.386038 
" clip-path="url(#pcc6d456fe8)" style="fill: none; stroke: #cccccc; stroke-width: 0.8; stroke-linecap: round"/>
     </g>
     <g id="text_30">
      <!-- 900 -->
      <g style="fill: #262626" transform="translate(29.278 350.72935)scale(0.088 -0.088)">
       <use xlink:href="#DejaVuSans-39"/>
       <use xlink:href="#DejaVuSans-30" x="63.623047"/>
       <use xlink:href="#DejaVuSans-30" x="127.246094"/>
      </g>
     </g>
    </g>
    <g id="ytick_11">
     <g id="line2d_30">
      <path d="M 54.375 331.264486 
L 391.5 331.264486 
" clip-path="url(#pcc6d456fe8)" style="fill: none; stroke: #cccccc; stroke-width: 0.8; stroke-linecap: round"/>
     </g>
     <g id="text_31">
      <!-- 1000 -->
      <g style="fill: #262626" transform="translate(23.679 334.607799)scale(0.088 -0.088)">
       <use xlink:href="#DejaVuSans-31"/>
       <use xlink:href="#DejaVuSans-30" x="63.623047"/>
       <use xlink:href="#DejaVuSans-30" x="127.246094"/>
       <use xlink:href="#DejaVuSans-30" x="190.869141"/>
      </g>
     </g>
    </g>
    <g id="ytick_12">
     <g id="line2d_31">
      <path d="M 54.375 315.142935 
L 391.5 315.142935 
" clip-path="url(#pcc6d456fe8)" style="fill: none; stroke: #cccccc; stroke-width: 0.8; stroke-linecap: round"/>
     </g>
     <g id="text_32">
      <!-- 1100 -->
      <g style="fill: #262626" transform="translate(23.679 318.486247)scale(0.088 -0.088)">
       <use xlink:href="#DejaVuSans-31"/>
       <use xlink:href="#DejaVuSans-31" x="63.623047"/>
       <use xlink:href="#DejaVuSans-30" x="127.246094"/>
       <use xlink:href="#DejaVuSans-30" x="190.869141"/>
      </g>
     </g>
    </g>
    <g id="ytick_13">
     <g id="line2d_32">
      <path d="M 54.375 299.021383 
L 391.5 299.021383 
" clip-path="url(#pcc6d456fe8)" style="fill: none; stroke: #cccccc; stroke-width: 0.8; stroke-linecap: round"/>
     </g>
     <g id="text_33">
      <!-- 1200 -->
      <g style="fill: #262626" transform="translate(23.679 302.364696)scale(0.088 -0.088)">
       <use xlink:href="#DejaVuSans-31"/>
       <use xlink:href="#DejaVuSans-32" x="63.623047"/>
       <use xlink:href="#DejaVuSans-30" x="127.246094"/>
       <use xlink:href="#DejaVuSans-30" x="190.869141"/>
      </g>
     </g>
    </g>
    <g id="ytick_14">
     <g id="line2d_33">
      <path d="M 54.375 282.899832 
L 391.5 282.899832 
" clip-path="url(#pcc6d456fe8)" style="fill: none; stroke: #cccccc; stroke-width: 0.8; stroke-linecap: round"/>
     </g>
     <g id="text_34">
      <!-- 1300 -->
      <g style="fill: #262626" transform="translate(23.679 286.243145)scale(0.088 -0.088)">
       <use xlink:href="#DejaVuSans-31"/>
       <use xlink:href="#DejaVuSans-33" x="63.623047"/>
       <use xlink:href="#DejaVuSans-30" x="127.246094"/>
       <use xlink:href="#DejaVuSans-30" x="190.869141"/>
      </g>
     </g>
    </g>
    <g id="ytick_15">
     <g id="line2d_34">
      <path d="M 54.375 266.778281 
L 391.5 266.778281 
" clip-path="url(#pcc6d456fe8)" style="fill: none; stroke: #cccccc; stroke-width: 0.8; stroke-linecap: round"/>
     </g>
     <g id="text_35">
      <!-- 1400 -->
      <g style="fill: #262626" transform="translate(23.679 270.121593)scale(0.088 -0.088)">
       <use xlink:href="#DejaVuSans-31"/>
       <use xlink:href="#DejaVuSans-34" x="63.623047"/>
       <use xlink:href="#DejaVuSans-30" x="127.246094"/>
       <use xlink:href="#DejaVuSans-30" x="190.869141"/>
      </g>
     </g>
    </g>
    <g id="ytick_16">
     <g id="line2d_35">
      <path d="M 54.375 250.656729 
L 391.5 250.656729 
" clip-path="url(#pcc6d456fe8)" style="fill: none; stroke: #cccccc; stroke-width: 0.8; stroke-linecap: round"/>
     </g>
     <g id="text_36">
      <!-- 1500 -->
      <g style="fill: #262626" transform="translate(23.679 254.000042)scale(0.088 -0.088)">
       <use xlink:href="#DejaVuSans-31"/>
       <use xlink:href="#DejaVuSans-35" x="63.623047"/>
       <use xlink:href="#DejaVuSans-30" x="127.246094"/>
       <use xlink:href="#DejaVuSans-30" x="190.869141"/>
      </g>
     </g>
    </g>
    <g id="ytick_17">
     <g id="line2d_36">
      <path d="M 54.375 234.535178 
L 391.5 234.535178 
" clip-path="url(#pcc6d456fe8)" style="fill: none; stroke: #cccccc; stroke-width: 0.8; stroke-linecap: round"/>
     </g>
     <g id="text_37">
      <!-- 1600 -->
      <g style="fill: #262626" transform="translate(23.679 237.87849)scale(0.088 -0.088)">
       <use xlink:href="#DejaVuSans-31"/>
       <use xlink:href="#DejaVuSans-36" x="63.623047"/>
       <use xlink:href="#DejaVuSans-30" x="127.246094"/>
       <use xlink:href="#DejaVuSans-30" x="190.869141"/>
      </g>
     </g>
    </g>
    <g id="ytick_18">
     <g id="line2d_37">
      <path d="M 54.375 218.413627 
L 391.5 218.413627 
" clip-path="url(#pcc6d456fe8)" style="fill: none; stroke: #cccccc; stroke-width: 0.8; stroke-linecap: round"/>
     </g>
     <g id="text_38">
      <!-- 1700 -->
      <g style="fill: #262626" transform="translate(23.679 221.756939)scale(0.088 -0.088)">
       <use xlink:href="#DejaVuSans-31"/>
       <use xlink:href="#DejaVuSans-37" x="63.623047"/>
       <use xlink:href="#DejaVuSans-30" x="127.246094"/>
       <use xlink:href="#DejaVuSans-30" x="190.869141"/>
      </g>
     </g>
    </g>
    <g id="ytick_19">
     <g id="line2d_38">
      <path d="M 54.375 202.292075 
L 391.5 202.292075 
" clip-path="url(#pcc6d456fe8)" style="fill: none; stroke: #cccccc; stroke-width: 0.8; stroke-linecap: round"/>
     </g>
     <g id="text_39">
      <!-- 1800 -->
      <g style="fill: #262626" transform="translate(23.679 205.635388)scale(0.088 -0.088)">
       <use xlink:href="#DejaVuSans-31"/>
       <use xlink:href="#DejaVuSans-38" x="63.623047"/>
       <use xlink:href="#DejaVuSans-30" x="127.246094"/>
       <use xlink:href="#DejaVuSans-30" x="190.869141"/>
      </g>
     </g>
    </g>
    <g id="ytick_20">
     <g id="line2d_39">
      <path d="M 54.375 186.170524 
L 391.5 186.170524 
" clip-path="url(#pcc6d456fe8)" style="fill: none; stroke: #cccccc; stroke-width: 0.8; stroke-linecap: round"/>
     </g>
     <g id="text_40">
      <!-- 1900 -->
      <g style="fill: #262626" transform="translate(23.679 189.513836)scale(0.088 -0.088)">
       <use xlink:href="#DejaVuSans-31"/>
       <use xlink:href="#DejaVuSans-39" x="63.623047"/>
       <use xlink:href="#DejaVuSans-30" x="127.246094"/>
       <use xlink:href="#DejaVuSans-30" x="190.869141"/>
      </g>
     </g>
    </g>
    <g id="ytick_21">
     <g id="line2d_40">
      <path d="M 54.375 170.048972 
L 391.5 170.048972 
" clip-path="url(#pcc6d456fe8)" style="fill: none; stroke: #cccccc; stroke-width: 0.8; stroke-linecap: round"/>
     </g>
     <g id="text_41">
      <!-- 2000 -->
      <g style="fill: #262626" transform="translate(23.679 173.392285)scale(0.088 -0.088)">
       <use xlink:href="#DejaVuSans-32"/>
       <use xlink:href="#DejaVuSans-30" x="63.623047"/>
       <use xlink:href="#DejaVuSans-30" x="127.246094"/>
       <use xlink:href="#DejaVuSans-30" x="190.869141"/>
      </g>
     </g>
    </g>
    <g id="ytick_22">
     <g id="line2d_41">
      <path d="M 54.375 153.927421 
L 391.5 153.927421 
" clip-path="url(#pcc6d456fe8)" style="fill: none; stroke: #cccccc; stroke-width: 0.8; stroke-linecap: round"/>
     </g>
     <g id="text_42">
      <!-- 2100 -->
      <g style="fill: #262626" transform="translate(23.679 157.270734)scale(0.088 -0.088)">
       <use xlink:href="#DejaVuSans-32"/>
       <use xlink:href="#DejaVuSans-31" x="63.623047"/>
       <use xlink:href="#DejaVuSans-30" x="127.246094"/>
       <use xlink:href="#DejaVuSans-30" x="190.869141"/>
      </g>
     </g>
    </g>
    <g id="ytick_23">
     <g id="line2d_42">
      <path d="M 54.375 137.80587 
L 391.5 137.80587 
" clip-path="url(#pcc6d456fe8)" style="fill: none; stroke: #cccccc; stroke-width: 0.8; stroke-linecap: round"/>
     </g>
     <g id="text_43">
      <!-- 2200 -->
      <g style="fill: #262626" transform="translate(23.679 141.149182)scale(0.088 -0.088)">
       <use xlink:href="#DejaVuSans-32"/>
       <use xlink:href="#DejaVuSans-32" x="63.623047"/>
       <use xlink:href="#DejaVuSans-30" x="127.246094"/>
       <use xlink:href="#DejaVuSans-30" x="190.869141"/>
      </g>
     </g>
    </g>
    <g id="ytick_24">
     <g id="line2d_43">
      <path d="M 54.375 121.684318 
L 391.5 121.684318 
" clip-path="url(#pcc6d456fe8)" style="fill: none; stroke: #cccccc; stroke-width: 0.8; stroke-linecap: round"/>
     </g>
     <g id="text_44">
      <!-- 2300 -->
      <g style="fill: #262626" transform="translate(23.679 125.027631)scale(0.088 -0.088)">
       <use xlink:href="#DejaVuSans-32"/>
       <use xlink:href="#DejaVuSans-33" x="63.623047"/>
       <use xlink:href="#DejaVuSans-30" x="127.246094"/>
       <use xlink:href="#DejaVuSans-30" x="190.869141"/>
      </g>
     </g>
    </g>
    <g id="ytick_25">
     <g id="line2d_44">
      <path d="M 54.375 105.562767 
L 391.5 105.562767 
" clip-path="url(#pcc6d456fe8)" style="fill: none; stroke: #cccccc; stroke-width: 0.8; stroke-linecap: round"/>
     </g>
     <g id="text_45">
      <!-- 2400 -->
      <g style="fill: #262626" transform="translate(23.679 108.906079)scale(0.088 -0.088)">
       <use xlink:href="#DejaVuSans-32"/>
       <use xlink:href="#DejaVuSans-34" x="63.623047"/>
       <use xlink:href="#DejaVuSans-30" x="127.246094"/>
       <use xlink:href="#DejaVuSans-30" x="190.869141"/>
      </g>
     </g>
    </g>
    <g id="ytick_26">
     <g id="line2d_45">
      <path d="M 54.375 89.441216 
L 391.5 89.441216 
" clip-path="url(#pcc6d456fe8)" style="fill: none; stroke: #cccccc; stroke-width: 0.8; stroke-linecap: round"/>
     </g>
     <g id="text_46">
      <!-- 2500 -->
      <g style="fill: #262626" transform="translate(23.679 92.784528)scale(0.088 -0.088)">
       <use xlink:href="#DejaVuSans-32"/>
       <use xlink:href="#DejaVuSans-35" x="63.623047"/>
       <use xlink:href="#DejaVuSans-30" x="127.246094"/>
       <use xlink:href="#DejaVuSans-30" x="190.869141"/>
      </g>
     </g>
    </g>
    <g id="text_47">
     <!-- Edge Coverages -->
     <g style="fill: #262626" transform="translate(17.6825 329.98575)rotate(-90)scale(0.096 -0.096)">
      <defs>
       <path id="DejaVuSans-45" d="M 628 4666 
L 3578 4666 
L 3578 4134 
L 1259 4134 
L 1259 2753 
L 3481 2753 
L 3481 2222 
L 1259 2222 
L 1259 531 
L 3634 531 
L 3634 0 
L 628 0 
L 628 4666 
z
" transform="scale(0.015625)"/>
       <path id="DejaVuSans-64" d="M 2906 2969 
L 2906 4863 
L 3481 4863 
L 3481 0 
L 2906 0 
L 2906 525 
Q 2725 213 2448 61 
Q 2172 -91 1784 -91 
Q 1150 -91 751 415 
Q 353 922 353 1747 
Q 353 2572 751 3078 
Q 1150 3584 1784 3584 
Q 2172 3584 2448 3432 
Q 2725 3281 2906 2969 
z
M 947 1747 
Q 947 1113 1208 752 
Q 1469 391 1925 391 
Q 2381 391 2643 752 
Q 2906 1113 2906 1747 
Q 2906 2381 2643 2742 
Q 2381 3103 1925 3103 
Q 1469 3103 1208 2742 
Q 947 2381 947 1747 
z
" transform="scale(0.015625)"/>
       <path id="DejaVuSans-67" d="M 2906 1791 
Q 2906 2416 2648 2759 
Q 2391 3103 1925 3103 
Q 1463 3103 1205 2759 
Q 947 2416 947 1791 
Q 947 1169 1205 825 
Q 1463 481 1925 481 
Q 2391 481 2648 825 
Q 2906 1169 2906 1791 
z
M 3481 434 
Q 3481 -459 3084 -895 
Q 2688 -1331 1869 -1331 
Q 1566 -1331 1297 -1286 
Q 1028 -1241 775 -1147 
L 775 -588 
Q 1028 -725 1275 -790 
Q 1522 -856 1778 -856 
Q 2344 -856 2625 -561 
Q 2906 -266 2906 331 
L 2906 616 
Q 2728 306 2450 153 
Q 2172 0 1784 0 
Q 1141 0 747 490 
Q 353 981 353 1791 
Q 353 2603 747 3093 
Q 1141 3584 1784 3584 
Q 2172 3584 2450 3431 
Q 2728 3278 2906 2969 
L 2906 3500 
L 3481 3500 
L 3481 434 
z
" transform="scale(0.015625)"/>
       <path id="DejaVuSans-43" d="M 4122 4306 
L 4122 3641 
Q 3803 3938 3442 4084 
Q 3081 4231 2675 4231 
Q 1875 4231 1450 3742 
Q 1025 3253 1025 2328 
Q 1025 1406 1450 917 
Q 1875 428 2675 428 
Q 3081 428 3442 575 
Q 3803 722 4122 1019 
L 4122 359 
Q 3791 134 3420 21 
Q 3050 -91 2638 -91 
Q 1578 -91 968 557 
Q 359 1206 359 2328 
Q 359 3453 968 4101 
Q 1578 4750 2638 4750 
Q 3056 4750 3426 4639 
Q 3797 4528 4122 4306 
z
" transform="scale(0.015625)"/>
       <path id="DejaVuSans-6f" d="M 1959 3097 
Q 1497 3097 1228 2736 
Q 959 2375 959 1747 
Q 959 1119 1226 758 
Q 1494 397 1959 397 
Q 2419 397 2687 759 
Q 2956 1122 2956 1747 
Q 2956 2369 2687 2733 
Q 2419 3097 1959 3097 
z
M 1959 3584 
Q 2709 3584 3137 3096 
Q 3566 2609 3566 1747 
Q 3566 888 3137 398 
Q 2709 -91 1959 -91 
Q 1206 -91 779 398 
Q 353 888 353 1747 
Q 353 2609 779 3096 
Q 1206 3584 1959 3584 
z
" transform="scale(0.015625)"/>
       <path id="DejaVuSans-76" d="M 191 3500 
L 800 3500 
L 1894 563 
L 2988 3500 
L 3597 3500 
L 2284 0 
L 1503 0 
L 191 3500 
z
" transform="scale(0.015625)"/>
       <path id="DejaVuSans-72" d="M 2631 2963 
Q 2534 3019 2420 3045 
Q 2306 3072 2169 3072 
Q 1681 3072 1420 2755 
Q 1159 2438 1159 1844 
L 1159 0 
L 581 0 
L 581 3500 
L 1159 3500 
L 1159 2956 
Q 1341 3275 1631 3429 
Q 1922 3584 2338 3584 
Q 2397 3584 2469 3576 
Q 2541 3569 2628 3553 
L 2631 2963 
z
" transform="scale(0.015625)"/>
       <path id="DejaVuSans-61" d="M 2194 1759 
Q 1497 1759 1228 1600 
Q 959 1441 959 1056 
Q 959 750 1161 570 
Q 1363 391 1709 391 
Q 2188 391 2477 730 
Q 2766 1069 2766 1631 
L 2766 1759 
L 2194 1759 
z
M 3341 1997 
L 3341 0 
L 2766 0 
L 2766 531 
Q 2569 213 2275 61 
Q 1981 -91 1556 -91 
Q 1019 -91 701 211 
Q 384 513 384 1019 
Q 384 1609 779 1909 
Q 1175 2209 1959 2209 
L 2766 2209 
L 2766 2266 
Q 2766 2663 2505 2880 
Q 2244 3097 1772 3097 
Q 1472 3097 1187 3025 
Q 903 2953 641 2809 
L 641 3341 
Q 956 3463 1253 3523 
Q 1550 3584 1831 3584 
Q 2591 3584 2966 3190 
Q 3341 2797 3341 1997 
z
" transform="scale(0.015625)"/>
      </defs>
      <use xlink:href="#DejaVuSans-45"/>
      <use xlink:href="#DejaVuSans-64" x="63.183594"/>
      <use xlink:href="#DejaVuSans-67" x="126.660156"/>
      <use xlink:href="#DejaVuSans-65" x="190.136719"/>
      <use xlink:href="#DejaVuSans-20" x="251.660156"/>
      <use xlink:href="#DejaVuSans-43" x="283.447266"/>
      <use xlink:href="#DejaVuSans-6f" x="353.271484"/>
      <use xlink:href="#DejaVuSans-76" x="414.453125"/>
      <use xlink:href="#DejaVuSans-65" x="473.632812"/>
      <use xlink:href="#DejaVuSans-72" x="535.15625"/>
      <use xlink:href="#DejaVuSans-61" x="576.269531"/>
      <use xlink:href="#DejaVuSans-67" x="637.548828"/>
      <use xlink:href="#DejaVuSans-65" x="701.025391"/>
      <use xlink:href="#DejaVuSans-73" x="762.548828"/>
     </g>
    </g>
   </g>
   <g id="PolyCollection_1">
    <defs>
     <path id="mb91e99b7be" d="M 69.698864 -85.132155 
L 69.698864 -83.52 
L 69.698864 -85.132155 
L 69.698864 -85.132155 
z
" style="stroke: #db5f57; stroke-opacity: 0.2; stroke-width: 0.8"/>
    </defs>
    <g clip-path="url(#pcc6d456fe8)">
     <use xlink:href="#mb91e99b7be" x="0" y="576" style="fill: #db5f57; fill-opacity: 0.2; stroke: #db5f57; stroke-opacity: 0.2; stroke-width: 0.8"/>
    </g>
   </g>
   <g id="PolyCollection_2">
    <defs>
     <path id="m3aa7efbf1e" d="M 69.698864 -86.583095 
L 69.698864 -83.52 
L 69.698864 -86.583095 
L 69.698864 -86.583095 
z
" style="stroke: #b9db57; stroke-opacity: 0.2; stroke-width: 0.8"/>
    </defs>
    <g clip-path="url(#pcc6d456fe8)">
     <use xlink:href="#m3aa7efbf1e" x="0" y="576" style="fill: #b9db57; fill-opacity: 0.2; stroke: #b9db57; stroke-opacity: 0.2; stroke-width: 0.8"/>
    </g>
   </g>
   <g id="PolyCollection_3">
    <defs>
     <path id="mff0e3092d1" d="M 69.698864 -86.583095 
L 69.698864 -83.52 
L 69.698864 -86.583095 
L 69.698864 -86.583095 
z
" style="stroke: #57db94; stroke-opacity: 0.2; stroke-width: 0.8"/>
    </defs>
    <g clip-path="url(#pcc6d456fe8)">
     <use xlink:href="#mff0e3092d1" x="0" y="576" style="fill: #57db94; fill-opacity: 0.2; stroke: #57db94; stroke-opacity: 0.2; stroke-width: 0.8"/>
    </g>
   </g>
   <g id="PolyCollection_4">
    <defs>
     <path id="m404676b177" d="M 69.698864 -85.615802 
L 69.698864 -83.52 
L 69.698864 -85.615802 
L 69.698864 -85.615802 
z
" style="stroke: #5784db; stroke-opacity: 0.2; stroke-width: 0.8"/>
    </defs>
    <g clip-path="url(#pcc6d456fe8)">
     <use xlink:href="#m404676b177" x="0" y="576" style="fill: #5784db; fill-opacity: 0.2; stroke: #5784db; stroke-opacity: 0.2; stroke-width: 0.8"/>
    </g>
   </g>
   <g id="PolyCollection_5">
    <defs>
     <path id="m520abb76f4" d="M 69.698864 -86.583095 
L 69.698864 -83.52 
L 69.698864 -86.583095 
L 69.698864 -86.583095 
z
" style="stroke: #c957db; stroke-opacity: 0.2; stroke-width: 0.8"/>
    </defs>
    <g clip-path="url(#pcc6d456fe8)">
     <use xlink:href="#m520abb76f4" x="0" y="576" style="fill: #c957db; fill-opacity: 0.2; stroke: #c957db; stroke-opacity: 0.2; stroke-width: 0.8"/>
    </g>
   </g>
   <g id="line2d_46">
    <path d="M 69.698864 491.673922 
L 69.911695 490.706629 
L 70.124527 490.706629 
L 70.337358 489.25569 
L 71.401515 489.25569 
L 71.614347 487.159888 
L 71.827178 486.676242 
L 72.040009 486.676242 
L 72.465672 486.35381 
L 72.678504 485.708948 
L 72.891335 479.421543 
L 73.52983 472.650492 
L 73.742661 472.166845 
L 73.955492 435.087277 
L 74.381155 422.996114 
L 74.593987 422.673683 
L 75.01965 422.673683 
L 75.445312 421.383958 
L 81.617424 421.383958 
L 81.830256 421.222743 
L 82.043087 421.222743 
L 82.255919 421.061527 
L 82.46875 421.061527 
L 82.894413 420.577881 
L 83.107244 420.577881 
L 83.320076 420.416665 
L 83.532907 420.416665 
L 84.171402 243.402031 
L 84.809896 243.402031 
L 85.022727 243.240816 
L 89.492188 243.240816 
L 89.705019 191.32942 
L 90.343513 191.32942 
L 90.556345 191.168205 
L 96.302794 191.168205 
L 96.515625 160.537257 
L 103.1134 160.537257 
L 103.326231 147.962447 
L 109.498343 147.962447 
L 109.711174 140.707749 
L 110.5625 140.707749 
L 110.775331 140.546533 
L 118.862926 140.546533 
L 119.075758 133.13062 
L 119.288589 133.13062 
L 119.50142 132.969404 
L 125.035038 132.969404 
L 125.247869 132.808189 
L 125.886364 132.808189 
L 126.099195 126.037137 
L 142.061553 126.037137 
L 142.274384 122.812827 
L 155.682765 122.812827 
L 155.895597 122.651611 
L 156.534091 122.651611 
L 156.746922 122.490396 
L 158.875237 122.490396 
L 159.088068 122.006749 
L 159.726562 122.006749 
L 159.939394 121.845534 
L 167.175663 121.845534 
L 167.388494 121.523103 
L 176.114583 121.523103 
L 176.327415 118.137577 
L 182.499527 118.137577 
L 182.712358 117.170284 
L 182.925189 117.009068 
L 183.350852 117.009068 
L 183.563684 116.847853 
L 187.820312 116.847853 
L 188.033144 116.041775 
L 194.84375 116.041775 
L 195.056581 115.558129 
L 203.78267 115.558129 
L 203.995502 115.396913 
L 226.768466 115.396913 
L 226.981297 115.074482 
L 228.89678 115.074482 
L 229.109612 112.172603 
L 234.856061 112.172603 
L 235.068892 104.917905 
L 240.389678 104.917905 
L 240.602509 103.144534 
L 249.115767 103.144534 
L 249.328598 102.983319 
L 249.754261 102.983319 
L 249.967093 102.822103 
L 251.244081 102.822103 
L 251.456913 102.660888 
L 262.524148 102.660888 
L 262.736979 101.693595 
L 296.364347 101.693595 
L 296.577178 101.209948 
L 314.880682 101.209948 
L 315.093513 101.048733 
L 322.542614 101.048733 
L 322.755445 100.887517 
L 376.176136 100.887517 
L 376.176136 100.887517 
" clip-path="url(#pcc6d456fe8)" style="fill: none; stroke: #db5f57; stroke-width: 1.2; stroke-linecap: round"/>
   </g>
   <g id="line2d_47">
    <path d="M 69.698864 490.948453 
L 69.911695 489.416905 
L 71.401515 489.416905 
L 71.614347 487.80475 
L 71.827178 487.159888 
L 72.040009 487.159888 
L 72.252841 486.998673 
L 72.465672 486.998673 
L 72.678504 486.192595 
L 72.891335 477.970604 
L 73.104167 460.398113 
L 73.52983 441.052251 
L 73.742661 440.084958 
L 74.593987 420.25545 
L 74.806818 418.965726 
L 75.445312 411.711028 
L 75.870975 409.776441 
L 76.083807 409.615226 
L 77.147964 403.650252 
L 77.573627 400.748373 
L 77.786458 400.264726 
L 77.99929 399.297433 
L 78.424953 394.944614 
L 78.850616 377.694554 
L 79.063447 371.568365 
L 79.276278 369.794994 
L 79.914773 346.257529 
L 80.340436 326.911667 
L 80.766098 323.687357 
L 80.97893 319.334538 
L 81.191761 309.984038 
L 81.404593 289.670884 
L 81.617424 288.542375 
L 81.830256 288.219944 
L 82.043087 286.93022 
L 82.255919 286.93022 
L 82.46875 285.318065 
L 82.681581 280.159168 
L 83.107244 259.201152 
L 83.320076 253.719824 
L 83.532907 251.624022 
L 83.745739 251.301591 
L 83.95857 250.011867 
L 84.171402 245.497833 
L 84.384233 243.402031 
L 84.597064 237.598273 
L 85.022727 237.275842 
L 85.44839 228.731419 
L 85.661222 228.570204 
L 86.086884 228.086557 
L 86.299716 228.086557 
L 86.725379 227.28048 
L 86.93821 226.635618 
L 87.151042 222.121583 
L 87.363873 222.121583 
L 87.789536 214.060808 
L 88.002367 203.420584 
L 88.215199 201.002351 
L 88.640862 200.196273 
L 88.853693 198.261687 
L 89.066525 193.425222 
L 89.279356 193.102791 
L 89.492188 193.102791 
L 90.130682 192.619144 
L 90.556345 191.651851 
L 90.769176 191.168205 
L 90.982008 191.006989 
L 91.40767 191.006989 
L 91.620502 190.039696 
L 91.833333 190.039696 
L 92.258996 189.717265 
L 92.471828 185.686877 
L 92.684659 184.558369 
L 92.897491 184.558369 
L 93.110322 177.303671 
L 93.535985 177.303671 
L 93.748816 177.142455 
L 93.961648 175.852731 
L 94.387311 175.852731 
L 94.600142 171.338697 
L 94.812973 171.338697 
L 95.025805 170.532619 
L 95.238636 170.532619 
L 95.451468 166.018585 
L 95.664299 164.890076 
L 95.877131 164.890076 
L 96.089962 164.406429 
L 96.302794 164.406429 
L 96.515625 164.245214 
L 96.941288 164.245214 
L 97.154119 162.95549 
L 97.366951 162.471843 
L 97.579782 162.471843 
L 97.792614 159.247533 
L 98.005445 159.247533 
L 98.218277 159.086317 
L 98.431108 159.086317 
L 98.643939 158.763886 
L 99.069602 158.763886 
L 99.495265 157.312947 
L 99.708097 156.8293 
L 99.920928 156.8293 
L 100.133759 156.506869 
L 100.559422 156.506869 
L 100.772254 156.023223 
L 101.410748 156.023223 
L 102.049242 153.766206 
L 102.262074 153.766206 
L 102.474905 152.960128 
L 102.687737 152.637697 
L 102.900568 152.637697 
L 103.1134 152.315266 
L 103.964725 152.315266 
L 104.177557 151.992835 
L 104.60322 151.992835 
L 104.816051 151.186757 
L 105.028883 151.186757 
L 105.241714 150.38068 
L 105.667377 150.38068 
L 105.880208 149.735818 
L 106.09304 149.735818 
L 106.305871 149.413387 
L 106.731534 149.413387 
L 107.157197 148.123663 
L 107.370028 148.123663 
L 107.58286 147.801232 
L 107.795691 147.801232 
L 108.008523 147.4788 
L 109.07268 147.4788 
L 109.285511 146.027861 
L 109.711174 146.027861 
L 109.924006 145.544214 
L 110.349669 145.544214 
L 110.5625 144.899352 
L 114.606297 144.899352 
L 114.819129 144.738137 
L 115.670455 144.738137 
L 115.883286 144.415706 
L 117.160275 144.415706 
L 117.585938 142.642335 
L 117.798769 142.642335 
L 118.0116 141.191395 
L 118.224432 141.191395 
L 118.862926 138.611947 
L 119.288589 138.611947 
L 119.50142 137.80587 
L 119.714252 137.80587 
L 119.927083 137.644654 
L 120.565578 137.644654 
L 120.778409 137.322223 
L 120.991241 137.322223 
L 121.204072 137.161008 
L 121.416903 137.161008 
L 121.629735 136.999792 
L 121.842566 136.999792 
L 122.055398 136.677361 
L 122.268229 136.677361 
L 122.481061 136.193715 
L 122.693892 136.193715 
L 122.906723 135.387637 
L 123.119555 135.387637 
L 123.545218 134.259128 
L 123.970881 134.259128 
L 124.183712 133.936697 
L 124.396544 133.936697 
L 124.609375 133.614266 
L 125.035038 133.614266 
L 125.247869 132.324542 
L 125.460701 132.324542 
L 125.673532 132.163327 
L 125.886364 132.163327 
L 126.099195 131.67968 
L 127.376184 131.67968 
L 127.589015 131.518465 
L 130.781487 131.518465 
L 130.994318 131.357249 
L 133.548295 131.357249 
L 133.761127 130.873603 
L 135.67661 130.873603 
L 135.889441 130.712387 
L 136.315104 130.712387 
L 136.527936 130.551172 
L 136.953598 130.551172 
L 137.16643 130.228741 
L 137.592093 130.228741 
L 137.804924 129.745094 
L 138.443419 129.745094 
L 138.65625 129.583878 
L 139.294744 129.583878 
L 139.507576 129.422663 
L 141.63589 129.422663 
L 141.848722 129.100232 
L 142.274384 129.100232 
L 142.487216 128.616585 
L 156.108428 128.616585 
L 156.321259 128.45537 
L 156.534091 128.45537 
L 156.746922 128.294154 
L 156.959754 127.810508 
L 159.088068 127.810508 
L 159.3009 127.649292 
L 160.577888 127.649292 
L 160.79072 127.326861 
L 164.621686 127.326861 
L 164.834517 127.165646 
L 167.388494 127.165646 
L 167.601326 126.843215 
L 168.23982 126.843215 
L 168.665483 126.520784 
L 173.134943 126.520784 
L 173.347775 126.359568 
L 173.560606 126.359568 
L 173.773438 125.23106 
L 173.986269 125.23106 
L 174.1991 124.747413 
L 174.837595 124.747413 
L 175.050426 124.586198 
L 175.263258 123.941335 
L 175.476089 123.78012 
L 176.540246 123.78012 
L 176.753078 123.618904 
L 179.945549 123.618904 
L 180.158381 123.457689 
L 180.371212 123.457689 
L 180.584044 122.974042 
L 182.712358 122.974042 
L 183.138021 122.651611 
L 183.350852 122.651611 
L 183.563684 122.490396 
L 183.776515 122.490396 
L 184.202178 121.845534 
L 192.928267 121.845534 
L 193.141098 121.684318 
L 193.779593 121.684318 
L 193.992424 121.361887 
L 200.80303 121.361887 
L 201.015862 121.200672 
L 223.788826 121.200672 
L 224.001657 121.039456 
L 226.342803 121.039456 
L 226.555634 120.878241 
L 228.471117 120.878241 
L 228.683949 120.717025 
L 229.109612 118.298792 
L 229.322443 118.298792 
L 229.748106 116.847853 
L 229.960938 116.847853 
L 230.173769 116.525422 
L 230.3866 116.525422 
L 230.812263 114.590836 
L 231.025095 114.590836 
L 231.237926 113.945974 
L 232.302083 113.945974 
L 232.514915 113.784758 
L 232.940578 113.784758 
L 233.366241 112.978681 
L 233.579072 112.978681 
L 234.217566 112.495034 
L 234.430398 112.495034 
L 234.856061 112.172603 
L 235.068892 112.172603 
L 235.281723 111.850172 
L 235.707386 111.850172 
L 236.133049 111.366525 
L 237.622869 111.366525 
L 237.835701 111.20531 
L 238.048532 110.882879 
L 238.261364 110.882879 
L 238.687027 110.560448 
L 238.899858 110.560448 
L 239.112689 110.399232 
L 239.325521 110.399232 
L 239.538352 110.238017 
L 239.964015 110.238017 
L 240.176847 110.076801 
L 240.815341 110.076801 
L 241.028172 109.915586 
L 258.267519 109.915586 
L 258.48035 109.75437 
L 258.906013 109.270724 
L 259.118845 109.109508 
L 259.544508 109.109508 
L 259.757339 108.948293 
L 276.14536 108.948293 
L 276.358191 108.787077 
L 277.209517 108.787077 
L 277.422348 108.625862 
L 283.168797 108.625862 
L 283.381629 108.464646 
L 307.005919 108.464646 
L 307.21875 108.303431 
L 317.434659 108.303431 
L 317.647491 108.142215 
L 335.3125 108.142215 
L 335.525331 107.981 
L 343.825758 107.981 
L 344.038589 107.819784 
L 352.126184 107.819784 
L 352.339015 106.852491 
L 352.551847 105.240336 
L 353.190341 104.434258 
L 353.616004 104.434258 
L 353.828835 103.950612 
L 354.041667 103.789396 
L 358.298295 103.789396 
L 358.511127 103.628181 
L 376.176136 103.628181 
L 376.176136 103.628181 
" clip-path="url(#pcc6d456fe8)" style="fill: none; stroke: #b9db57; stroke-width: 1.2; stroke-linecap: round"/>
   </g>
   <g id="line2d_48">
    <path d="M 69.698864 490.948453 
L 69.911695 489.416905 
L 71.401515 489.416905 
L 71.827178 486.515026 
L 72.040009 485.547733 
L 72.252841 485.386517 
L 72.465672 485.386517 
L 72.678504 484.58044 
L 73.52983 440.568605 
L 73.742661 436.538217 
L 73.955492 434.764846 
L 74.168324 424.285838 
L 75.870975 409.776441 
L 76.083807 409.615226 
L 76.296638 408.809148 
L 76.50947 406.552131 
L 76.935133 405.746054 
L 77.147964 404.133898 
L 77.360795 401.393235 
L 77.786458 400.748373 
L 77.99929 400.103511 
L 78.212121 397.685278 
L 78.424953 396.556769 
L 78.637784 393.977321 
L 78.850616 382.369804 
L 79.063447 381.241295 
L 79.276278 379.145494 
L 79.48911 365.119744 
L 79.914773 355.93046 
L 80.127604 355.124382 
L 80.340436 348.353331 
L 80.553267 329.974762 
L 80.766098 329.652331 
L 80.97893 323.203711 
L 81.191761 322.881279 
L 81.617424 322.881279 
L 81.830256 297.570444 
L 82.043087 297.086797 
L 82.681581 293.217625 
L 82.894413 292.733978 
L 83.107244 292.733978 
L 83.745739 291.121823 
L 83.95857 285.318065 
L 84.171402 284.028341 
L 84.384233 256.944134 
L 84.597064 253.236178 
L 84.809896 253.236178 
L 85.022727 252.591315 
L 85.235559 249.689436 
L 85.44839 249.689436 
L 85.661222 249.528221 
L 86.299716 249.528221 
L 86.512547 249.367005 
L 86.93821 248.722143 
L 87.363873 238.565566 
L 87.576705 236.469764 
L 87.789536 235.824902 
L 88.002367 233.890316 
L 88.215199 221.637937 
L 88.42803 221.637937 
L 88.640862 221.15429 
L 88.853693 215.672963 
L 89.705019 215.672963 
L 89.91785 212.126222 
L 90.130682 212.126222 
L 90.343513 211.481359 
L 90.769176 211.158928 
L 90.982008 211.158928 
L 91.40767 209.063127 
L 92.258996 209.063127 
L 92.471828 196.971963 
L 92.684659 196.810748 
L 92.897491 196.810748 
L 93.110322 195.359808 
L 93.961648 195.359808 
L 94.174479 194.553731 
L 94.387311 192.457929 
L 94.600142 189.072403 
L 94.812973 188.588756 
L 95.025805 188.588756 
L 95.238636 186.815386 
L 95.451468 181.817705 
L 95.664299 181.817705 
L 96.089962 181.011627 
L 96.515625 180.689196 
L 96.728456 180.689196 
L 96.941288 179.399472 
L 97.154119 179.399472 
L 97.366951 174.724222 
L 97.792614 174.240576 
L 98.005445 174.240576 
L 98.431108 173.756929 
L 98.643939 173.595714 
L 98.856771 173.595714 
L 99.069602 172.789636 
L 99.282434 172.789636 
L 99.495265 172.30599 
L 99.708097 172.30599 
L 99.920928 172.144774 
L 100.133759 171.822343 
L 100.346591 171.822343 
L 100.559422 171.338697 
L 100.772254 171.338697 
L 100.985085 171.177481 
L 101.197917 171.177481 
L 101.410748 170.85505 
L 101.62358 170.210188 
L 102.049242 167.953171 
L 102.474905 167.953171 
L 102.687737 167.469524 
L 103.1134 167.147093 
L 103.751894 167.147093 
L 103.964725 166.985878 
L 104.177557 166.502231 
L 104.390388 165.696154 
L 104.60322 165.696154 
L 104.816051 165.051291 
L 105.028883 165.051291 
L 105.241714 164.890076 
L 105.454545 164.406429 
L 105.667377 164.245214 
L 106.09304 164.245214 
L 106.518703 163.761567 
L 106.731534 163.761567 
L 107.157197 162.310628 
L 107.58286 161.988197 
L 107.795691 161.988197 
L 108.008523 161.50455 
L 108.434186 161.50455 
L 108.647017 161.343335 
L 108.859848 160.214826 
L 109.498343 159.408749 
L 109.711174 159.408749 
L 109.924006 159.247533 
L 110.136837 158.763886 
L 110.349669 158.763886 
L 110.5625 158.602671 
L 113.967803 158.602671 
L 114.180634 158.441455 
L 114.393466 158.441455 
L 114.606297 158.28024 
L 115.457623 158.28024 
L 115.883286 157.635378 
L 116.734612 157.635378 
L 117.160275 156.990516 
L 118.0116 153.60499 
L 118.224432 153.443774 
L 118.437263 152.476481 
L 118.862926 151.831619 
L 119.075758 151.831619 
L 119.288589 151.670404 
L 119.50142 151.186757 
L 120.139915 151.186757 
L 120.778409 150.38068 
L 120.991241 150.38068 
L 121.416903 150.058249 
L 121.629735 150.058249 
L 122.055398 149.735818 
L 122.268229 149.413387 
L 122.693892 149.413387 
L 123.119555 148.123663 
L 123.332386 147.640016 
L 123.970881 147.156369 
L 124.183712 147.156369 
L 124.609375 146.511507 
L 124.822206 145.70543 
L 125.035038 145.70543 
L 125.247869 145.544214 
L 125.886364 144.738137 
L 126.737689 144.738137 
L 126.950521 144.576921 
L 129.291667 144.576921 
L 129.504498 144.415706 
L 132.484138 144.415706 
L 132.69697 144.25449 
L 133.122633 144.25449 
L 133.335464 143.932059 
L 133.548295 143.932059 
L 133.761127 143.770844 
L 135.463778 143.770844 
L 135.67661 143.609628 
L 136.102273 143.609628 
L 136.315104 143.448413 
L 136.527936 143.448413 
L 136.740767 143.287197 
L 137.379261 142.48112 
L 137.592093 142.48112 
L 137.804924 142.319904 
L 139.507576 142.319904 
L 139.720407 142.158689 
L 141.423059 142.158689 
L 141.63589 141.836257 
L 141.848722 141.836257 
L 142.061553 141.352611 
L 156.534091 141.352611 
L 156.746922 140.546533 
L 156.959754 140.546533 
L 157.172585 140.385318 
L 159.513731 140.385318 
L 159.726562 140.224102 
L 161.003551 140.224102 
L 161.216383 140.062887 
L 164.196023 140.062887 
L 164.408854 139.901671 
L 168.026989 139.901671 
L 168.452652 139.418025 
L 168.665483 139.256809 
L 173.134943 139.256809 
L 173.347775 137.967085 
L 173.560606 137.80587 
L 173.773438 137.80587 
L 173.986269 137.322223 
L 174.837595 137.322223 
L 175.263258 136.838577 
L 175.476089 136.677361 
L 178.242898 136.677361 
L 178.455729 136.516146 
L 178.881392 136.516146 
L 179.094223 136.35493 
L 179.945549 136.35493 
L 180.158381 136.193715 
L 180.371212 135.710068 
L 183.350852 135.710068 
L 183.563684 135.226421 
L 183.776515 135.226421 
L 183.989347 134.581559 
L 193.779593 134.581559 
L 193.992424 134.259128 
L 194.84375 134.259128 
L 195.056581 134.097913 
L 200.590199 134.097913 
L 200.80303 133.936697 
L 226.129972 133.936697 
L 226.342803 133.453051 
L 228.258286 133.453051 
L 228.683949 133.13062 
L 228.89678 130.712387 
L 229.109612 130.551172 
L 229.535275 128.616585 
L 229.960938 128.616585 
L 230.173769 127.971723 
L 230.599432 125.875922 
L 230.812263 125.875922 
L 231.025095 125.23106 
L 232.514915 125.23106 
L 232.940578 124.747413 
L 233.153409 124.586198 
L 233.579072 124.102551 
L 234.004735 123.78012 
L 234.217566 123.78012 
L 234.643229 123.457689 
L 234.856061 123.457689 
L 235.281723 122.812827 
L 235.707386 122.812827 
L 235.920218 122.651611 
L 237.622869 122.651611 
L 237.835701 122.167965 
L 238.048532 122.006749 
L 238.899858 122.006749 
L 239.112689 121.845534 
L 239.751184 121.845534 
L 239.964015 121.684318 
L 241.879498 121.684318 
L 242.09233 121.523103 
L 258.267519 121.523103 
L 258.48035 121.361887 
L 258.693182 120.878241 
L 258.906013 120.717025 
L 259.544508 120.717025 
L 259.757339 120.55581 
L 276.14536 120.55581 
L 276.358191 120.394594 
L 277.209517 120.394594 
L 277.422348 120.233379 
L 283.381629 120.233379 
L 283.59446 120.072163 
L 306.793087 120.072163 
L 307.005919 119.910948 
L 317.221828 119.910948 
L 317.434659 119.749732 
L 335.099669 119.749732 
L 335.3125 119.588517 
L 343.612926 119.588517 
L 343.825758 119.427301 
L 352.126184 119.427301 
L 352.339015 118.782439 
L 352.551847 116.525422 
L 352.764678 116.364206 
L 352.977509 116.041775 
L 353.403172 116.041775 
L 354.041667 115.235698 
L 358.298295 115.235698 
L 358.511127 115.074482 
L 376.176136 115.074482 
L 376.176136 115.074482 
" clip-path="url(#pcc6d456fe8)" style="fill: none; stroke: #57db94; stroke-width: 1.2; stroke-linecap: round"/>
   </g>
   <g id="line2d_49">
    <path d="M 69.698864 491.432099 
L 69.911695 490.222983 
L 70.124527 490.222983 
L 70.337358 489.416905 
L 71.401515 489.416905 
L 71.614347 487.643535 
L 71.827178 486.998673 
L 72.252841 486.676242 
L 72.465672 486.676242 
L 72.678504 485.870164 
L 72.891335 477.003311 
L 73.104167 457.657449 
L 73.52983 453.30463 
L 73.742661 452.337337 
L 73.955492 431.056889 
L 74.168324 431.056889 
L 74.381155 430.895674 
L 74.593987 430.895674 
L 74.806818 430.573243 
L 76.083807 430.573243 
L 76.296638 426.220424 
L 76.50947 406.2297 
L 76.722301 405.423623 
L 77.147964 404.77876 
L 77.573627 404.77876 
L 77.786458 399.619864 
L 77.99929 399.136218 
L 78.637784 391.397873 
L 78.850616 376.566046 
L 79.063447 376.566046 
L 79.914773 347.063607 
L 80.127604 347.063607 
L 80.340436 330.78084 
L 80.553267 324.65465 
L 80.766098 322.558848 
L 80.97893 315.626581 
L 81.191761 315.626581 
L 81.404593 306.759728 
L 81.617424 287.413866 
L 81.830256 287.091435 
L 82.255919 287.091435 
L 82.894413 277.57972 
L 83.107244 259.039936 
L 85.022727 259.039936 
L 85.235559 232.923023 
L 85.44839 227.925342 
L 85.661222 227.925342 
L 85.874053 227.764126 
L 86.512547 227.764126 
L 86.725379 226.796833 
L 86.93821 226.796833 
L 87.151042 225.345894 
L 87.363873 221.315506 
L 87.576705 221.315506 
L 88.42803 199.551411 
L 88.640862 199.067765 
L 89.066525 191.490636 
L 89.279356 191.168205 
L 89.705019 191.168205 
L 90.130682 190.845774 
L 90.343513 190.039696 
L 92.258996 190.039696 
L 92.471828 186.976601 
L 92.684659 174.401791 
L 93.961648 174.401791 
L 94.174479 172.950852 
L 96.515625 172.950852 
L 96.728456 160.214826 
L 96.941288 160.214826 
L 97.154119 158.925102 
L 97.579782 154.733499 
L 97.792614 154.572283 
L 98.005445 154.572283 
L 98.218277 154.411068 
L 98.643939 153.927421 
L 98.856771 153.927421 
L 99.069602 153.121343 
L 99.282434 153.121343 
L 99.495265 152.315266 
L 99.708097 152.315266 
L 99.920928 152.15405 
L 100.133759 152.15405 
L 100.346591 151.992835 
L 100.559422 151.509188 
L 101.410748 151.509188 
L 102.049242 148.446094 
L 102.262074 148.284878 
L 102.474905 148.284878 
L 102.687737 147.962447 
L 102.900568 147.962447 
L 103.1134 147.640016 
L 103.964725 147.640016 
L 104.177557 147.317585 
L 104.390388 147.317585 
L 104.816051 145.866645 
L 105.028883 145.70543 
L 105.241714 145.70543 
L 105.454545 145.544214 
L 106.09304 145.544214 
L 106.305871 144.576921 
L 107.157197 144.576921 
L 107.370028 142.803551 
L 107.795691 142.803551 
L 108.221354 142.319904 
L 108.859848 142.319904 
L 109.285511 140.385318 
L 110.136837 140.385318 
L 110.349669 139.740456 
L 110.5625 139.57924 
L 114.606297 139.57924 
L 114.819129 139.418025 
L 118.0116 139.418025 
L 118.224432 134.90399 
L 118.650095 133.453051 
L 118.862926 133.453051 
L 119.075758 133.13062 
L 119.714252 133.13062 
L 119.927083 132.324542 
L 120.991241 132.324542 
L 121.204072 131.67968 
L 121.416903 131.518465 
L 121.842566 131.518465 
L 122.481061 130.712387 
L 123.119555 130.712387 
L 123.332386 128.939016 
L 125.035038 128.939016 
L 125.247869 126.681999 
L 125.460701 126.520784 
L 125.673532 126.520784 
L 125.886364 126.037137 
L 126.950521 126.037137 
L 127.163352 125.875922 
L 129.504498 125.875922 
L 129.71733 125.714706 
L 130.568655 125.714706 
L 130.781487 125.553491 
L 135.67661 125.553491 
L 135.889441 124.908629 
L 136.102273 124.908629 
L 136.315104 124.747413 
L 136.527936 124.747413 
L 136.740767 124.586198 
L 137.379261 123.78012 
L 137.592093 123.78012 
L 137.804924 123.618904 
L 138.869081 123.618904 
L 139.081913 123.457689 
L 144.402699 123.457689 
L 144.61553 122.812827 
L 162.28054 122.812827 
L 162.493371 121.684318 
L 166.75 121.684318 
L 166.962831 121.523103 
L 167.601326 121.523103 
L 167.814157 121.200672 
L 169.516809 121.200672 
L 169.72964 120.878241 
L 173.773438 120.878241 
L 173.986269 118.943655 
L 177.604403 118.943655 
L 177.817235 117.976361 
L 185.90483 117.976361 
L 186.117661 116.041775 
L 193.779593 116.041775 
L 193.992424 115.719344 
L 205.485322 115.719344 
L 205.698153 115.396913 
L 231.025095 115.396913 
L 231.237926 106.852491 
L 241.666667 106.852491 
L 241.879498 102.983319 
L 259.331676 102.983319 
L 259.544508 102.822103 
L 261.459991 102.822103 
L 261.672822 102.016026 
L 276.783854 102.016026 
L 276.996686 101.85481 
L 283.381629 101.85481 
L 283.59446 101.532379 
L 308.282907 101.532379 
L 308.495739 101.371164 
L 327.8634 101.371164 
L 328.076231 101.209948 
L 335.3125 101.209948 
L 335.525331 101.048733 
L 376.176136 101.048733 
L 376.176136 101.048733 
" clip-path="url(#pcc6d456fe8)" style="fill: none; stroke: #5784db; stroke-width: 1.2; stroke-linecap: round"/>
   </g>
   <g id="line2d_50">
    <path d="M 69.698864 490.948453 
L 69.911695 489.416905 
L 71.401515 489.416905 
L 71.614347 486.998673 
L 71.827178 485.870164 
L 72.040009 485.386517 
L 72.465672 485.064086 
L 72.678504 484.419224 
L 73.316998 443.95413 
L 74.168324 422.512467 
L 75.01965 413.484398 
L 75.658144 408.164286 
L 76.083807 407.196993 
L 76.50947 404.295114 
L 76.935133 403.00539 
L 77.360795 399.136218 
L 77.786458 397.201631 
L 77.99929 396.073123 
L 78.424953 391.881519 
L 78.850616 373.341735 
L 79.701941 351.738856 
L 80.127604 329.168685 
L 80.340436 322.236417 
L 80.766098 319.173323 
L 80.97893 308.371883 
L 81.191761 304.986357 
L 81.404593 284.673203 
L 81.617424 283.383479 
L 81.830256 283.222263 
L 82.46875 279.353091 
L 82.681581 274.839056 
L 83.107244 254.042255 
L 83.320076 248.238497 
L 83.532907 246.30391 
L 83.745739 246.142695 
L 83.95857 240.016505 
L 84.384233 235.824902 
L 84.597064 231.794514 
L 84.809896 231.633299 
L 85.022727 230.827221 
L 85.235559 228.086557 
L 85.44839 223.088876 
L 85.661222 222.927661 
L 86.086884 222.444014 
L 86.299716 222.444014 
L 86.725379 221.315506 
L 86.93821 220.670644 
L 87.363873 212.609868 
L 87.789536 207.450972 
L 88.002367 196.488317 
L 88.215199 194.876162 
L 88.42803 194.714946 
L 88.640862 194.231299 
L 88.853693 186.815386 
L 89.066525 186.65417 
L 89.279356 186.331739 
L 89.492188 186.331739 
L 90.130682 185.848093 
L 90.556345 184.719584 
L 90.982008 184.235938 
L 91.194839 183.268645 
L 91.833333 183.268645 
L 92.258996 182.946214 
L 92.471828 170.85505 
L 92.684659 169.565326 
L 93.535985 169.565326 
L 93.748816 169.40411 
L 94.174479 167.308309 
L 94.387311 166.824662 
L 94.600142 163.277921 
L 94.812973 162.794274 
L 95.025805 162.794274 
L 95.238636 161.020904 
L 95.451468 156.023223 
L 95.664299 156.023223 
L 96.089962 155.378361 
L 96.728456 155.378361 
L 96.941288 154.088637 
L 97.154119 154.088637 
L 97.366951 149.897033 
L 97.792614 149.574602 
L 98.005445 149.574602 
L 98.218277 149.090956 
L 98.431108 149.090956 
L 98.643939 148.92974 
L 98.856771 148.92974 
L 99.069602 148.123663 
L 99.282434 148.123663 
L 99.495265 147.317585 
L 99.708097 147.317585 
L 100.133759 146.995154 
L 100.346591 146.995154 
L 100.559422 146.511507 
L 101.197917 146.511507 
L 101.410748 146.189076 
L 101.62358 145.382999 
L 102.049242 143.125982 
L 102.474905 143.125982 
L 102.900568 142.642335 
L 103.1134 142.48112 
L 103.751894 142.48112 
L 103.964725 142.319904 
L 104.177557 141.836257 
L 104.390388 141.03018 
L 104.60322 141.03018 
L 104.816051 140.385318 
L 105.028883 140.385318 
L 105.241714 140.224102 
L 105.454545 139.740456 
L 105.667377 139.57924 
L 106.09304 139.57924 
L 106.518703 139.095594 
L 106.731534 139.095594 
L 107.157197 137.644654 
L 107.58286 137.322223 
L 107.795691 137.322223 
L 108.008523 136.838577 
L 108.434186 136.838577 
L 108.647017 136.677361 
L 108.859848 135.548852 
L 109.498343 134.742775 
L 109.711174 134.742775 
L 109.924006 134.581559 
L 110.136837 134.097913 
L 110.349669 134.097913 
L 110.5625 133.936697 
L 113.967803 133.936697 
L 114.180634 133.775482 
L 114.393466 133.775482 
L 114.606297 133.614266 
L 115.457623 133.614266 
L 115.883286 132.969404 
L 116.734612 132.969404 
L 117.160275 132.324542 
L 118.0116 128.939016 
L 118.224432 128.777801 
L 118.437263 127.810508 
L 118.862926 127.165646 
L 119.075758 127.165646 
L 119.288589 127.00443 
L 119.50142 126.359568 
L 119.714252 126.359568 
L 119.927083 126.198353 
L 120.352746 126.198353 
L 120.778409 125.714706 
L 120.991241 125.714706 
L 121.416903 125.392275 
L 121.629735 125.392275 
L 121.842566 125.23106 
L 122.268229 124.747413 
L 122.481061 124.586198 
L 122.693892 124.586198 
L 123.119555 123.296473 
L 123.332386 122.812827 
L 123.970881 122.32918 
L 124.183712 122.32918 
L 124.609375 121.684318 
L 124.822206 120.878241 
L 125.035038 120.878241 
L 125.460701 120.394594 
L 125.673532 120.233379 
L 125.886364 119.910948 
L 126.737689 119.910948 
L 126.950521 119.749732 
L 129.291667 119.749732 
L 129.504498 119.588517 
L 130.568655 119.588517 
L 130.781487 119.427301 
L 133.122633 119.427301 
L 133.335464 119.10487 
L 133.548295 119.10487 
L 133.761127 118.943655 
L 135.463778 118.943655 
L 135.67661 118.782439 
L 136.102273 118.782439 
L 136.315104 118.621224 
L 136.527936 118.621224 
L 136.740767 118.460008 
L 137.379261 117.65393 
L 137.592093 117.65393 
L 137.804924 117.492715 
L 138.869081 117.492715 
L 139.081913 117.331499 
L 141.423059 117.331499 
L 141.63589 117.009068 
L 141.848722 117.009068 
L 142.061553 116.525422 
L 155.682765 116.525422 
L 155.895597 116.364206 
L 156.534091 116.364206 
L 156.746922 115.558129 
L 159.088068 115.558129 
L 159.3009 115.396913 
L 160.577888 115.396913 
L 160.79072 115.074482 
L 164.196023 115.074482 
L 164.408854 114.913267 
L 167.388494 114.913267 
L 167.601326 114.590836 
L 168.23982 114.590836 
L 168.665483 114.268405 
L 173.134943 114.268405 
L 173.347775 112.978681 
L 173.560606 112.817465 
L 173.773438 112.817465 
L 173.986269 112.333818 
L 174.837595 112.333818 
L 175.476089 111.527741 
L 176.540246 111.527741 
L 176.753078 111.366525 
L 178.242898 111.366525 
L 178.455729 111.20531 
L 179.945549 111.20531 
L 180.158381 111.044094 
L 180.371212 110.560448 
L 182.712358 110.560448 
L 183.138021 110.238017 
L 183.350852 110.238017 
L 183.563684 110.076801 
L 183.776515 110.076801 
L 183.989347 109.431939 
L 192.928267 109.431939 
L 193.141098 109.270724 
L 193.779593 109.270724 
L 193.992424 108.948293 
L 200.590199 108.948293 
L 200.80303 108.787077 
L 223.788826 108.787077 
L 224.001657 108.625862 
L 226.129972 108.625862 
L 226.342803 108.303431 
L 228.258286 108.303431 
L 228.683949 107.981 
L 228.89678 105.401551 
L 229.109612 105.240336 
L 229.535275 103.466965 
L 229.960938 103.466965 
L 230.173769 102.822103 
L 230.599432 100.726301 
L 230.812263 100.726301 
L 231.025095 100.081439 
L 232.302083 100.081439 
L 233.153409 99.436577 
L 233.579072 98.952931 
L 234.004735 98.6305 
L 234.217566 98.6305 
L 234.643229 98.308069 
L 234.856061 98.308069 
L 235.281723 97.663207 
L 235.707386 97.663207 
L 235.920218 97.501991 
L 237.622869 97.501991 
L 237.835701 97.018345 
L 238.048532 96.857129 
L 238.474195 96.857129 
L 238.687027 96.695914 
L 238.899858 96.695914 
L 239.112689 96.373483 
L 239.751184 96.373483 
L 239.964015 96.212267 
L 240.815341 96.212267 
L 241.028172 96.051052 
L 258.267519 96.051052 
L 258.48035 95.889836 
L 258.693182 95.40619 
L 258.906013 95.244974 
L 259.331676 95.244974 
L 259.544508 95.083758 
L 276.14536 95.083758 
L 276.358191 94.922543 
L 277.209517 94.922543 
L 277.422348 94.761327 
L 283.168797 94.761327 
L 283.381629 94.600112 
L 306.793087 94.600112 
L 307.005919 94.438896 
L 317.221828 94.438896 
L 317.434659 94.277681 
L 335.099669 94.277681 
L 335.3125 94.116465 
L 343.612926 94.116465 
L 343.825758 93.95525 
L 352.126184 93.95525 
L 352.339015 92.987957 
L 352.551847 90.73094 
L 352.764678 90.569724 
L 352.977509 90.247293 
L 353.403172 90.247293 
L 354.041667 89.441216 
L 358.298295 89.441216 
L 358.511127 89.28 
L 376.176136 89.28 
L 376.176136 89.28 
" clip-path="url(#pcc6d456fe8)" style="fill: none; stroke: #c957db; stroke-width: 1.2; stroke-linecap: round"/>
   </g>
   <g id="line2d_51"/>
   <g id="line2d_52"/>
   <g id="line2d_53"/>
   <g id="line2d_54"/>
   <g id="line2d_55"/>
   <g id="patch_3">
    <path d="M 54.375 512.64 
L 54.375 69.12 
" style="fill: none; stroke: #cccccc; stroke-linejoin: miter; stroke-linecap: square"/>
   </g>
   <g id="patch_4">
    <path d="M 54.375 512.64 
L 391.5 512.64 
" style="fill: none; stroke: #cccccc; stroke-linejoin: miter; stroke-linecap: square"/>
   </g>
   <g id="text_48">
    <!-- Edge Coverage History -->
    <g style="fill: #262626" transform="translate(116.046012 63.12)scale(0.165888 -0.165888)">
     <defs>
      <path id="DejaVuSans-Bold-45" d="M 588 4666 
L 3834 4666 
L 3834 3756 
L 1791 3756 
L 1791 2888 
L 3713 2888 
L 3713 1978 
L 1791 1978 
L 1791 909 
L 3903 909 
L 3903 0 
L 588 0 
L 588 4666 
z
" transform="scale(0.015625)"/>
      <path id="DejaVuSans-Bold-64" d="M 2919 2988 
L 2919 4863 
L 4044 4863 
L 4044 0 
L 2919 0 
L 2919 506 
Q 2688 197 2409 53 
Q 2131 -91 1766 -91 
Q 1119 -91 703 423 
Q 288 938 288 1747 
Q 288 2556 703 3070 
Q 1119 3584 1766 3584 
Q 2128 3584 2408 3439 
Q 2688 3294 2919 2988 
z
M 2181 722 
Q 2541 722 2730 984 
Q 2919 1247 2919 1747 
Q 2919 2247 2730 2509 
Q 2541 2772 2181 2772 
Q 1825 2772 1636 2509 
Q 1447 2247 1447 1747 
Q 1447 1247 1636 984 
Q 1825 722 2181 722 
z
" transform="scale(0.015625)"/>
      <path id="DejaVuSans-Bold-67" d="M 2919 594 
Q 2688 288 2409 144 
Q 2131 0 1766 0 
Q 1125 0 706 504 
Q 288 1009 288 1791 
Q 288 2575 706 3076 
Q 1125 3578 1766 3578 
Q 2131 3578 2409 3434 
Q 2688 3291 2919 2981 
L 2919 3500 
L 4044 3500 
L 4044 353 
Q 4044 -491 3511 -936 
Q 2978 -1381 1966 -1381 
Q 1638 -1381 1331 -1331 
Q 1025 -1281 716 -1178 
L 716 -306 
Q 1009 -475 1290 -558 
Q 1572 -641 1856 -641 
Q 2406 -641 2662 -400 
Q 2919 -159 2919 353 
L 2919 594 
z
M 2181 2772 
Q 1834 2772 1640 2515 
Q 1447 2259 1447 1791 
Q 1447 1309 1634 1061 
Q 1822 813 2181 813 
Q 2531 813 2725 1069 
Q 2919 1325 2919 1791 
Q 2919 2259 2725 2515 
Q 2531 2772 2181 2772 
z
" transform="scale(0.015625)"/>
      <path id="DejaVuSans-Bold-65" d="M 4031 1759 
L 4031 1441 
L 1416 1441 
Q 1456 1047 1700 850 
Q 1944 653 2381 653 
Q 2734 653 3104 758 
Q 3475 863 3866 1075 
L 3866 213 
Q 3469 63 3072 -14 
Q 2675 -91 2278 -91 
Q 1328 -91 801 392 
Q 275 875 275 1747 
Q 275 2603 792 3093 
Q 1309 3584 2216 3584 
Q 3041 3584 3536 3087 
Q 4031 2591 4031 1759 
z
M 2881 2131 
Q 2881 2450 2695 2645 
Q 2509 2841 2209 2841 
Q 1884 2841 1681 2658 
Q 1478 2475 1428 2131 
L 2881 2131 
z
" transform="scale(0.015625)"/>
      <path id="DejaVuSans-Bold-20" transform="scale(0.015625)"/>
      <path id="DejaVuSans-Bold-43" d="M 4288 256 
Q 3956 84 3597 -3 
Q 3238 -91 2847 -91 
Q 1681 -91 1000 561 
Q 319 1213 319 2328 
Q 319 3447 1000 4098 
Q 1681 4750 2847 4750 
Q 3238 4750 3597 4662 
Q 3956 4575 4288 4403 
L 4288 3438 
Q 3953 3666 3628 3772 
Q 3303 3878 2944 3878 
Q 2300 3878 1931 3465 
Q 1563 3053 1563 2328 
Q 1563 1606 1931 1193 
Q 2300 781 2944 781 
Q 3303 781 3628 887 
Q 3953 994 4288 1222 
L 4288 256 
z
" transform="scale(0.015625)"/>
      <path id="DejaVuSans-Bold-6f" d="M 2203 2784 
Q 1831 2784 1636 2517 
Q 1441 2250 1441 1747 
Q 1441 1244 1636 976 
Q 1831 709 2203 709 
Q 2569 709 2762 976 
Q 2956 1244 2956 1747 
Q 2956 2250 2762 2517 
Q 2569 2784 2203 2784 
z
M 2203 3584 
Q 3106 3584 3614 3096 
Q 4122 2609 4122 1747 
Q 4122 884 3614 396 
Q 3106 -91 2203 -91 
Q 1297 -91 786 396 
Q 275 884 275 1747 
Q 275 2609 786 3096 
Q 1297 3584 2203 3584 
z
" transform="scale(0.015625)"/>
      <path id="DejaVuSans-Bold-76" d="M 97 3500 
L 1216 3500 
L 2088 1081 
L 2956 3500 
L 4078 3500 
L 2700 0 
L 1472 0 
L 97 3500 
z
" transform="scale(0.015625)"/>
      <path id="DejaVuSans-Bold-72" d="M 3138 2547 
Q 2991 2616 2845 2648 
Q 2700 2681 2553 2681 
Q 2122 2681 1889 2404 
Q 1656 2128 1656 1613 
L 1656 0 
L 538 0 
L 538 3500 
L 1656 3500 
L 1656 2925 
Q 1872 3269 2151 3426 
Q 2431 3584 2822 3584 
Q 2878 3584 2943 3579 
Q 3009 3575 3134 3559 
L 3138 2547 
z
" transform="scale(0.015625)"/>
      <path id="DejaVuSans-Bold-61" d="M 2106 1575 
Q 1756 1575 1579 1456 
Q 1403 1338 1403 1106 
Q 1403 894 1545 773 
Q 1688 653 1941 653 
Q 2256 653 2472 879 
Q 2688 1106 2688 1447 
L 2688 1575 
L 2106 1575 
z
M 3816 1997 
L 3816 0 
L 2688 0 
L 2688 519 
Q 2463 200 2181 54 
Q 1900 -91 1497 -91 
Q 953 -91 614 226 
Q 275 544 275 1050 
Q 275 1666 698 1953 
Q 1122 2241 2028 2241 
L 2688 2241 
L 2688 2328 
Q 2688 2594 2478 2717 
Q 2269 2841 1825 2841 
Q 1466 2841 1156 2769 
Q 847 2697 581 2553 
L 581 3406 
Q 941 3494 1303 3539 
Q 1666 3584 2028 3584 
Q 2975 3584 3395 3211 
Q 3816 2838 3816 1997 
z
" transform="scale(0.015625)"/>
      <path id="DejaVuSans-Bold-48" d="M 588 4666 
L 1791 4666 
L 1791 2888 
L 3566 2888 
L 3566 4666 
L 4769 4666 
L 4769 0 
L 3566 0 
L 3566 1978 
L 1791 1978 
L 1791 0 
L 588 0 
L 588 4666 
z
" transform="scale(0.015625)"/>
      <path id="DejaVuSans-Bold-69" d="M 538 3500 
L 1656 3500 
L 1656 0 
L 538 0 
L 538 3500 
z
M 538 4863 
L 1656 4863 
L 1656 3950 
L 538 3950 
L 538 4863 
z
" transform="scale(0.015625)"/>
      <path id="DejaVuSans-Bold-73" d="M 3272 3391 
L 3272 2541 
Q 2913 2691 2578 2766 
Q 2244 2841 1947 2841 
Q 1628 2841 1473 2761 
Q 1319 2681 1319 2516 
Q 1319 2381 1436 2309 
Q 1553 2238 1856 2203 
L 2053 2175 
Q 2913 2066 3209 1816 
Q 3506 1566 3506 1031 
Q 3506 472 3093 190 
Q 2681 -91 1863 -91 
Q 1516 -91 1145 -36 
Q 775 19 384 128 
L 384 978 
Q 719 816 1070 734 
Q 1422 653 1784 653 
Q 2113 653 2278 743 
Q 2444 834 2444 1013 
Q 2444 1163 2330 1236 
Q 2216 1309 1875 1350 
L 1678 1375 
Q 931 1469 631 1722 
Q 331 1975 331 2491 
Q 331 3047 712 3315 
Q 1094 3584 1881 3584 
Q 2191 3584 2531 3537 
Q 2872 3491 3272 3391 
z
" transform="scale(0.015625)"/>
      <path id="DejaVuSans-Bold-74" d="M 1759 4494 
L 1759 3500 
L 2913 3500 
L 2913 2700 
L 1759 2700 
L 1759 1216 
Q 1759 972 1856 886 
Q 1953 800 2241 800 
L 2816 800 
L 2816 0 
L 1856 0 
Q 1194 0 917 276 
Q 641 553 641 1216 
L 641 2700 
L 84 2700 
L 84 3500 
L 641 3500 
L 641 4494 
L 1759 4494 
z
" transform="scale(0.015625)"/>
      <path id="DejaVuSans-Bold-79" d="M 78 3500 
L 1197 3500 
L 2138 1125 
L 2938 3500 
L 4056 3500 
L 2584 -331 
Q 2363 -916 2067 -1148 
Q 1772 -1381 1288 -1381 
L 641 -1381 
L 641 -647 
L 991 -647 
Q 1275 -647 1404 -556 
Q 1534 -466 1606 -231 
L 1638 -134 
L 78 3500 
z
" transform="scale(0.015625)"/>
     </defs>
     <use xlink:href="#DejaVuSans-Bold-45"/>
     <use xlink:href="#DejaVuSans-Bold-64" x="68.310547"/>
     <use xlink:href="#DejaVuSans-Bold-67" x="139.892578"/>
     <use xlink:href="#DejaVuSans-Bold-65" x="211.474609"/>
     <use xlink:href="#DejaVuSans-Bold-20" x="279.296875"/>
     <use xlink:href="#DejaVuSans-Bold-43" x="314.111328"/>
     <use xlink:href="#DejaVuSans-Bold-6f" x="387.5"/>
     <use xlink:href="#DejaVuSans-Bold-76" x="456.201172"/>
     <use xlink:href="#DejaVuSans-Bold-65" x="521.386719"/>
     <use xlink:href="#DejaVuSans-Bold-72" x="589.208984"/>
     <use xlink:href="#DejaVuSans-Bold-61" x="638.525391"/>
     <use xlink:href="#DejaVuSans-Bold-67" x="706.005859"/>
     <use xlink:href="#DejaVuSans-Bold-65" x="777.587891"/>
     <use xlink:href="#DejaVuSans-Bold-20" x="845.410156"/>
     <use xlink:href="#DejaVuSans-Bold-48" x="880.224609"/>
     <use xlink:href="#DejaVuSans-Bold-69" x="963.916016"/>
     <use xlink:href="#DejaVuSans-Bold-73" x="998.193359"/>
     <use xlink:href="#DejaVuSans-Bold-74" x="1057.714844"/>
     <use xlink:href="#DejaVuSans-Bold-6f" x="1105.517578"/>
     <use xlink:href="#DejaVuSans-Bold-72" x="1174.21875"/>
     <use xlink:href="#DejaVuSans-Bold-79" x="1223.535156"/>
    </g>
   </g>
   <g id="legend_1">
    <g id="patch_5">
     <path d="M 268.212 508.24 
L 385.34 508.24 
Q 387.1 508.24 387.1 506.48 
L 387.1 428.8405 
Q 387.1 427.0805 385.34 427.0805 
L 268.212 427.0805 
Q 266.452 427.0805 266.452 428.8405 
L 266.452 506.48 
Q 266.452 508.24 268.212 508.24 
z
" style="fill: #ffffff; opacity: 0.8; stroke: #cccccc; stroke-width: 0.8; stroke-linejoin: miter"/>
    </g>
    <g id="text_49">
     <!-- fuzzer -->
     <g style="fill: #262626" transform="translate(312.079 437.895)scale(0.096 -0.096)">
      <defs>
       <path id="DejaVuSans-66" d="M 2375 4863 
L 2375 4384 
L 1825 4384 
Q 1516 4384 1395 4259 
Q 1275 4134 1275 3809 
L 1275 3500 
L 2222 3500 
L 2222 3053 
L 1275 3053 
L 1275 0 
L 697 0 
L 697 3053 
L 147 3053 
L 147 3500 
L 697 3500 
L 697 3744 
Q 697 4328 969 4595 
Q 1241 4863 1831 4863 
L 2375 4863 
z
" transform="scale(0.015625)"/>
       <path id="DejaVuSans-7a" d="M 353 3500 
L 3084 3500 
L 3084 2975 
L 922 459 
L 3084 459 
L 3084 0 
L 275 0 
L 275 525 
L 2438 3041 
L 353 3041 
L 353 3500 
z
" transform="scale(0.015625)"/>
      </defs>
      <use xlink:href="#DejaVuSans-66"/>
      <use xlink:href="#DejaVuSans-75" x="35.205078"/>
      <use xlink:href="#DejaVuSans-7a" x="98.583984"/>
      <use xlink:href="#DejaVuSans-7a" x="151.074219"/>
      <use xlink:href="#DejaVuSans-65" x="203.564453"/>
      <use xlink:href="#DejaVuSans-72" x="265.087891"/>
     </g>
    </g>
    <g id="line2d_56">
     <path d="M 269.972 447.898125 
L 278.772 447.898125 
L 287.572 447.898125 
" style="fill: none; stroke: #db5f57; stroke-width: 1.2; stroke-linecap: round"/>
    </g>
    <g id="text_50">
     <!-- aflfast-0-exid20 -->
     <g style="fill: #262626" transform="translate(294.612 450.978125)scale(0.088 -0.088)">
      <defs>
       <path id="DejaVuSans-6c" d="M 603 4863 
L 1178 4863 
L 1178 0 
L 603 0 
L 603 4863 
z
" transform="scale(0.015625)"/>
       <path id="DejaVuSans-2d" d="M 313 2009 
L 1997 2009 
L 1997 1497 
L 313 1497 
L 313 2009 
z
" transform="scale(0.015625)"/>
       <path id="DejaVuSans-78" d="M 3513 3500 
L 2247 1797 
L 3578 0 
L 2900 0 
L 1881 1375 
L 863 0 
L 184 0 
L 1544 1831 
L 300 3500 
L 978 3500 
L 1906 2253 
L 2834 3500 
L 3513 3500 
z
" transform="scale(0.015625)"/>
      </defs>
      <use xlink:href="#DejaVuSans-61"/>
      <use xlink:href="#DejaVuSans-66" x="61.279297"/>
      <use xlink:href="#DejaVuSans-6c" x="96.484375"/>
      <use xlink:href="#DejaVuSans-66" x="124.267578"/>
      <use xlink:href="#DejaVuSans-61" x="159.472656"/>
      <use xlink:href="#DejaVuSans-73" x="220.751953"/>
      <use xlink:href="#DejaVuSans-74" x="272.851562"/>
      <use xlink:href="#DejaVuSans-2d" x="312.060547"/>
      <use xlink:href="#DejaVuSans-30" x="348.144531"/>
      <use xlink:href="#DejaVuSans-2d" x="411.767578"/>
      <use xlink:href="#DejaVuSans-65" x="447.851562"/>
      <use xlink:href="#DejaVuSans-78" x="507.625"/>
      <use xlink:href="#DejaVuSans-69" x="566.804688"/>
      <use xlink:href="#DejaVuSans-64" x="594.587891"/>
      <use xlink:href="#DejaVuSans-32" x="658.064453"/>
      <use xlink:href="#DejaVuSans-30" x="721.6875"/>
     </g>
    </g>
    <g id="line2d_57">
     <path d="M 269.972 460.814875 
L 278.772 460.814875 
L 287.572 460.814875 
" style="fill: none; stroke: #b9db57; stroke-width: 1.2; stroke-linecap: round"/>
    </g>
    <g id="text_51">
     <!-- afl-0-exid20 -->
     <g style="fill: #262626" transform="translate(294.612 463.894875)scale(0.088 -0.088)">
      <use xlink:href="#DejaVuSans-61"/>
      <use xlink:href="#DejaVuSans-66" x="61.279297"/>
      <use xlink:href="#DejaVuSans-6c" x="96.484375"/>
      <use xlink:href="#DejaVuSans-2d" x="124.267578"/>
      <use xlink:href="#DejaVuSans-30" x="160.351562"/>
      <use xlink:href="#DejaVuSans-2d" x="223.974609"/>
      <use xlink:href="#DejaVuSans-65" x="260.058594"/>
      <use xlink:href="#DejaVuSans-78" x="319.832031"/>
      <use xlink:href="#DejaVuSans-69" x="379.011719"/>
      <use xlink:href="#DejaVuSans-64" x="406.794922"/>
      <use xlink:href="#DejaVuSans-32" x="470.271484"/>
      <use xlink:href="#DejaVuSans-30" x="533.894531"/>
     </g>
    </g>
    <g id="line2d_58">
     <path d="M 269.972 473.731625 
L 278.772 473.731625 
L 287.572 473.731625 
" style="fill: none; stroke: #57db94; stroke-width: 1.2; stroke-linecap: round"/>
    </g>
    <g id="text_52">
     <!-- fairfuzz-0-exid20 -->
     <g style="fill: #262626" transform="translate(294.612 476.811625)scale(0.088 -0.088)">
      <use xlink:href="#DejaVuSans-66"/>
      <use xlink:href="#DejaVuSans-61" x="35.205078"/>
      <use xlink:href="#DejaVuSans-69" x="96.484375"/>
      <use xlink:href="#DejaVuSans-72" x="124.267578"/>
      <use xlink:href="#DejaVuSans-66" x="165.380859"/>
      <use xlink:href="#DejaVuSans-75" x="200.585938"/>
      <use xlink:href="#DejaVuSans-7a" x="263.964844"/>
      <use xlink:href="#DejaVuSans-7a" x="316.455078"/>
      <use xlink:href="#DejaVuSans-2d" x="368.945312"/>
      <use xlink:href="#DejaVuSans-30" x="405.029297"/>
      <use xlink:href="#DejaVuSans-2d" x="468.652344"/>
      <use xlink:href="#DejaVuSans-65" x="504.736328"/>
      <use xlink:href="#DejaVuSans-78" x="564.509766"/>
      <use xlink:href="#DejaVuSans-69" x="623.689453"/>
      <use xlink:href="#DejaVuSans-64" x="651.472656"/>
      <use xlink:href="#DejaVuSans-32" x="714.949219"/>
      <use xlink:href="#DejaVuSans-30" x="778.572266"/>
     </g>
    </g>
    <g id="line2d_59">
     <path d="M 269.972 486.648375 
L 278.772 486.648375 
L 287.572 486.648375 
" style="fill: none; stroke: #5784db; stroke-width: 1.2; stroke-linecap: round"/>
    </g>
    <g id="text_53">
     <!-- aflplusplus-0-exid20 -->
     <g style="fill: #262626" transform="translate(294.612 489.728375)scale(0.088 -0.088)">
      <defs>
       <path id="DejaVuSans-70" d="M 1159 525 
L 1159 -1331 
L 581 -1331 
L 581 3500 
L 1159 3500 
L 1159 2969 
Q 1341 3281 1617 3432 
Q 1894 3584 2278 3584 
Q 2916 3584 3314 3078 
Q 3713 2572 3713 1747 
Q 3713 922 3314 415 
Q 2916 -91 2278 -91 
Q 1894 -91 1617 61 
Q 1341 213 1159 525 
z
M 3116 1747 
Q 3116 2381 2855 2742 
Q 2594 3103 2138 3103 
Q 1681 3103 1420 2742 
Q 1159 2381 1159 1747 
Q 1159 1113 1420 752 
Q 1681 391 2138 391 
Q 2594 391 2855 752 
Q 3116 1113 3116 1747 
z
" transform="scale(0.015625)"/>
      </defs>
      <use xlink:href="#DejaVuSans-61"/>
      <use xlink:href="#DejaVuSans-66" x="61.279297"/>
      <use xlink:href="#DejaVuSans-6c" x="96.484375"/>
      <use xlink:href="#DejaVuSans-70" x="124.267578"/>
      <use xlink:href="#DejaVuSans-6c" x="187.744141"/>
      <use xlink:href="#DejaVuSans-75" x="215.527344"/>
      <use xlink:href="#DejaVuSans-73" x="278.90625"/>
      <use xlink:href="#DejaVuSans-70" x="331.005859"/>
      <use xlink:href="#DejaVuSans-6c" x="394.482422"/>
      <use xlink:href="#DejaVuSans-75" x="422.265625"/>
      <use xlink:href="#DejaVuSans-73" x="485.644531"/>
      <use xlink:href="#DejaVuSans-2d" x="537.744141"/>
      <use xlink:href="#DejaVuSans-30" x="573.828125"/>
      <use xlink:href="#DejaVuSans-2d" x="637.451172"/>
      <use xlink:href="#DejaVuSans-65" x="673.535156"/>
      <use xlink:href="#DejaVuSans-78" x="733.308594"/>
      <use xlink:href="#DejaVuSans-69" x="792.488281"/>
      <use xlink:href="#DejaVuSans-64" x="820.271484"/>
      <use xlink:href="#DejaVuSans-32" x="883.748047"/>
      <use xlink:href="#DejaVuSans-30" x="947.371094"/>
     </g>
    </g>
    <g id="line2d_60">
     <path d="M 269.972 499.565125 
L 278.772 499.565125 
L 287.572 499.565125 
" style="fill: none; stroke: #c957db; stroke-width: 1.2; stroke-linecap: round"/>
    </g>
    <g id="text_54">
     <!-- fuzzer_global -->
     <g style="fill: #262626" transform="translate(294.612 502.645125)scale(0.088 -0.088)">
      <defs>
       <path id="DejaVuSans-5f" d="M 3263 -1063 
L 3263 -1509 
L -63 -1509 
L -63 -1063 
L 3263 -1063 
z
" transform="scale(0.015625)"/>
       <path id="DejaVuSans-62" d="M 3116 1747 
Q 3116 2381 2855 2742 
Q 2594 3103 2138 3103 
Q 1681 3103 1420 2742 
Q 1159 2381 1159 1747 
Q 1159 1113 1420 752 
Q 1681 391 2138 391 
Q 2594 391 2855 752 
Q 3116 1113 3116 1747 
z
M 1159 2969 
Q 1341 3281 1617 3432 
Q 1894 3584 2278 3584 
Q 2916 3584 3314 3078 
Q 3713 2572 3713 1747 
Q 3713 922 3314 415 
Q 2916 -91 2278 -91 
Q 1894 -91 1617 61 
Q 1341 213 1159 525 
L 1159 0 
L 581 0 
L 581 4863 
L 1159 4863 
L 1159 2969 
z
" transform="scale(0.015625)"/>
      </defs>
      <use xlink:href="#DejaVuSans-66"/>
      <use xlink:href="#DejaVuSans-75" x="35.205078"/>
      <use xlink:href="#DejaVuSans-7a" x="98.583984"/>
      <use xlink:href="#DejaVuSans-7a" x="151.074219"/>
      <use xlink:href="#DejaVuSans-65" x="203.564453"/>
      <use xlink:href="#DejaVuSans-72" x="265.087891"/>
      <use xlink:href="#DejaVuSans-5f" x="306.201172"/>
      <use xlink:href="#DejaVuSans-67" x="356.201172"/>
      <use xlink:href="#DejaVuSans-6c" x="419.677734"/>
      <use xlink:href="#DejaVuSans-6f" x="447.460938"/>
      <use xlink:href="#DejaVuSans-62" x="508.642578"/>
      <use xlink:href="#DejaVuSans-61" x="572.119141"/>
      <use xlink:href="#DejaVuSans-6c" x="633.398438"/>
     </g>
    </g>
   </g>
  </g>
 </g>
 <defs>
  <clipPath id="pcc6d456fe8">
   <rect x="54.375" y="69.12" width="337.125" height="443.52"/>
  </clipPath>
 </defs>
</svg>
