<?xml version="1.0" encoding="utf-8" standalone="no"?>
<!DOCTYPE svg PUBLIC "-//W3C//DTD SVG 1.1//EN"
  "http://www.w3.org/Graphics/SVG/1.1/DTD/svg11.dtd">
<svg xmlns:xlink="http://www.w3.org/1999/xlink" width="434.7pt" height="576pt" viewBox="0 0 434.7 576" xmlns="http://www.w3.org/2000/svg" version="1.1">
 <metadata>
  <rdf:RDF xmlns:dc="http://purl.org/dc/elements/1.1/" xmlns:cc="http://creativecommons.org/ns#" xmlns:rdf="http://www.w3.org/1999/02/22-rdf-syntax-ns#">
   <cc:Work>
    <dc:type rdf:resource="http://purl.org/dc/dcmitype/StillImage"/>
    <dc:date>2022-09-15T09:30:41.571824</dc:date>
    <dc:format>image/svg+xml</dc:format>
    <dc:creator>
     <cc:Agent>
      <dc:title>Matplotlib v3.5.3, https://matplotlib.org/</dc:title>
     </cc:Agent>
    </dc:creator>
   </cc:Work>
  </rdf:RDF>
 </metadata>
 <defs>
  <style type="text/css">*{stroke-linejoin: round; stroke-linecap: butt}</style>
 </defs>
 <g id="figure_1">
  <g id="patch_1">
   <path d="M 0 576 
L 434.7 576 
L 434.7 0 
L 0 0 
z
" style="fill: #ffffff"/>
  </g>
  <g id="axes_1">
   <g id="patch_2">
    <path d="M 54.3375 512.64 
L 391.23 512.64 
L 391.23 69.12 
L 54.3375 69.12 
z
" style="fill: #ffffff"/>
   </g>
   <g id="matplotlib.axis_1">
    <g id="xtick_1">
     <g id="line2d_1">
      <path d="M 69.650795 512.64 
L 69.650795 69.12 
" clip-path="url(#p0999a2594b)" style="fill: none; stroke: #cccccc; stroke-width: 0.8; stroke-linecap: round"/>
     </g>
     <g id="text_1">
      <!-- 0 -->
      <g style="fill: #262626" transform="translate(69.388282 529.627249)rotate(-45)scale(0.088 -0.088)">
       <defs>
        <path id="DejaVuSans-30" d="M 2034 4250 
Q 1547 4250 1301 3770 
Q 1056 3291 1056 2328 
Q 1056 1369 1301 889 
Q 1547 409 2034 409 
Q 2525 409 2770 889 
Q 3016 1369 3016 2328 
Q 3016 3291 2770 3770 
Q 2525 4250 2034 4250 
z
M 2034 4750 
Q 2819 4750 3233 4129 
Q 3647 3509 3647 2328 
Q 3647 1150 3233 529 
Q 2819 -91 2034 -91 
Q 1250 -91 836 529 
Q 422 1150 422 2328 
Q 422 3509 836 4129 
Q 1250 4750 2034 4750 
z
" transform="scale(0.015625)"/>
       </defs>
       <use xlink:href="#DejaVuSans-30"/>
      </g>
     </g>
    </g>
    <g id="xtick_2">
     <g id="line2d_2">
      <path d="M 86.677392 512.64 
L 86.677392 69.12 
" clip-path="url(#p0999a2594b)" style="fill: none; stroke: #cccccc; stroke-width: 0.8; stroke-linecap: round"/>
     </g>
     <g id="text_2">
      <!-- 80 -->
      <g style="fill: #262626" transform="translate(84.435333 533.58634)rotate(-45)scale(0.088 -0.088)">
       <defs>
        <path id="DejaVuSans-38" d="M 2034 2216 
Q 1584 2216 1326 1975 
Q 1069 1734 1069 1313 
Q 1069 891 1326 650 
Q 1584 409 2034 409 
Q 2484 409 2743 651 
Q 3003 894 3003 1313 
Q 3003 1734 2745 1975 
Q 2488 2216 2034 2216 
z
M 1403 2484 
Q 997 2584 770 2862 
Q 544 3141 544 3541 
Q 544 4100 942 4425 
Q 1341 4750 2034 4750 
Q 2731 4750 3128 4425 
Q 3525 4100 3525 3541 
Q 3525 3141 3298 2862 
Q 3072 2584 2669 2484 
Q 3125 2378 3379 2068 
Q 3634 1759 3634 1313 
Q 3634 634 3220 271 
Q 2806 -91 2034 -91 
Q 1263 -91 848 271 
Q 434 634 434 1313 
Q 434 1759 690 2068 
Q 947 2378 1403 2484 
z
M 1172 3481 
Q 1172 3119 1398 2916 
Q 1625 2713 2034 2713 
Q 2441 2713 2670 2916 
Q 2900 3119 2900 3481 
Q 2900 3844 2670 4047 
Q 2441 4250 2034 4250 
Q 1625 4250 1398 4047 
Q 1172 3844 1172 3481 
z
" transform="scale(0.015625)"/>
       </defs>
       <use xlink:href="#DejaVuSans-38"/>
       <use xlink:href="#DejaVuSans-30" x="63.623047"/>
      </g>
     </g>
    </g>
    <g id="xtick_3">
     <g id="line2d_3">
      <path d="M 103.703989 512.64 
L 103.703989 69.12 
" clip-path="url(#p0999a2594b)" style="fill: none; stroke: #cccccc; stroke-width: 0.8; stroke-linecap: round"/>
     </g>
     <g id="text_3">
      <!-- 160 -->
      <g style="fill: #262626" transform="translate(99.482385 537.54543)rotate(-45)scale(0.088 -0.088)">
       <defs>
        <path id="DejaVuSans-31" d="M 794 531 
L 1825 531 
L 1825 4091 
L 703 3866 
L 703 4441 
L 1819 4666 
L 2450 4666 
L 2450 531 
L 3481 531 
L 3481 0 
L 794 0 
L 794 531 
z
" transform="scale(0.015625)"/>
        <path id="DejaVuSans-36" d="M 2113 2584 
Q 1688 2584 1439 2293 
Q 1191 2003 1191 1497 
Q 1191 994 1439 701 
Q 1688 409 2113 409 
Q 2538 409 2786 701 
Q 3034 994 3034 1497 
Q 3034 2003 2786 2293 
Q 2538 2584 2113 2584 
z
M 3366 4563 
L 3366 3988 
Q 3128 4100 2886 4159 
Q 2644 4219 2406 4219 
Q 1781 4219 1451 3797 
Q 1122 3375 1075 2522 
Q 1259 2794 1537 2939 
Q 1816 3084 2150 3084 
Q 2853 3084 3261 2657 
Q 3669 2231 3669 1497 
Q 3669 778 3244 343 
Q 2819 -91 2113 -91 
Q 1303 -91 875 529 
Q 447 1150 447 2328 
Q 447 3434 972 4092 
Q 1497 4750 2381 4750 
Q 2619 4750 2861 4703 
Q 3103 4656 3366 4563 
z
" transform="scale(0.015625)"/>
       </defs>
       <use xlink:href="#DejaVuSans-31"/>
       <use xlink:href="#DejaVuSans-36" x="63.623047"/>
       <use xlink:href="#DejaVuSans-30" x="127.246094"/>
      </g>
     </g>
    </g>
    <g id="xtick_4">
     <g id="line2d_4">
      <path d="M 120.730586 512.64 
L 120.730586 69.12 
" clip-path="url(#p0999a2594b)" style="fill: none; stroke: #cccccc; stroke-width: 0.8; stroke-linecap: round"/>
     </g>
     <g id="text_4">
      <!-- 240 -->
      <g style="fill: #262626" transform="translate(116.508981 537.54543)rotate(-45)scale(0.088 -0.088)">
       <defs>
        <path id="DejaVuSans-32" d="M 1228 531 
L 3431 531 
L 3431 0 
L 469 0 
L 469 531 
Q 828 903 1448 1529 
Q 2069 2156 2228 2338 
Q 2531 2678 2651 2914 
Q 2772 3150 2772 3378 
Q 2772 3750 2511 3984 
Q 2250 4219 1831 4219 
Q 1534 4219 1204 4116 
Q 875 4013 500 3803 
L 500 4441 
Q 881 4594 1212 4672 
Q 1544 4750 1819 4750 
Q 2544 4750 2975 4387 
Q 3406 4025 3406 3419 
Q 3406 3131 3298 2873 
Q 3191 2616 2906 2266 
Q 2828 2175 2409 1742 
Q 1991 1309 1228 531 
z
" transform="scale(0.015625)"/>
        <path id="DejaVuSans-34" d="M 2419 4116 
L 825 1625 
L 2419 1625 
L 2419 4116 
z
M 2253 4666 
L 3047 4666 
L 3047 1625 
L 3713 1625 
L 3713 1100 
L 3047 1100 
L 3047 0 
L 2419 0 
L 2419 1100 
L 313 1100 
L 313 1709 
L 2253 4666 
z
" transform="scale(0.015625)"/>
       </defs>
       <use xlink:href="#DejaVuSans-32"/>
       <use xlink:href="#DejaVuSans-34" x="63.623047"/>
       <use xlink:href="#DejaVuSans-30" x="127.246094"/>
      </g>
     </g>
    </g>
    <g id="xtick_5">
     <g id="line2d_5">
      <path d="M 137.757182 512.64 
L 137.757182 69.12 
" clip-path="url(#p0999a2594b)" style="fill: none; stroke: #cccccc; stroke-width: 0.8; stroke-linecap: round"/>
     </g>
     <g id="text_5">
      <!-- 320 -->
      <g style="fill: #262626" transform="translate(133.535578 537.54543)rotate(-45)scale(0.088 -0.088)">
       <defs>
        <path id="DejaVuSans-33" d="M 2597 2516 
Q 3050 2419 3304 2112 
Q 3559 1806 3559 1356 
Q 3559 666 3084 287 
Q 2609 -91 1734 -91 
Q 1441 -91 1130 -33 
Q 819 25 488 141 
L 488 750 
Q 750 597 1062 519 
Q 1375 441 1716 441 
Q 2309 441 2620 675 
Q 2931 909 2931 1356 
Q 2931 1769 2642 2001 
Q 2353 2234 1838 2234 
L 1294 2234 
L 1294 2753 
L 1863 2753 
Q 2328 2753 2575 2939 
Q 2822 3125 2822 3475 
Q 2822 3834 2567 4026 
Q 2313 4219 1838 4219 
Q 1578 4219 1281 4162 
Q 984 4106 628 3988 
L 628 4550 
Q 988 4650 1302 4700 
Q 1616 4750 1894 4750 
Q 2613 4750 3031 4423 
Q 3450 4097 3450 3541 
Q 3450 3153 3228 2886 
Q 3006 2619 2597 2516 
z
" transform="scale(0.015625)"/>
       </defs>
       <use xlink:href="#DejaVuSans-33"/>
       <use xlink:href="#DejaVuSans-32" x="63.623047"/>
       <use xlink:href="#DejaVuSans-30" x="127.246094"/>
      </g>
     </g>
    </g>
    <g id="xtick_6">
     <g id="line2d_6">
      <path d="M 154.783779 512.64 
L 154.783779 69.12 
" clip-path="url(#p0999a2594b)" style="fill: none; stroke: #cccccc; stroke-width: 0.8; stroke-linecap: round"/>
     </g>
     <g id="text_6">
      <!-- 400 -->
      <g style="fill: #262626" transform="translate(150.562175 537.54543)rotate(-45)scale(0.088 -0.088)">
       <use xlink:href="#DejaVuSans-34"/>
       <use xlink:href="#DejaVuSans-30" x="63.623047"/>
       <use xlink:href="#DejaVuSans-30" x="127.246094"/>
      </g>
     </g>
    </g>
    <g id="xtick_7">
     <g id="line2d_7">
      <path d="M 171.810376 512.64 
L 171.810376 69.12 
" clip-path="url(#p0999a2594b)" style="fill: none; stroke: #cccccc; stroke-width: 0.8; stroke-linecap: round"/>
     </g>
     <g id="text_7">
      <!-- 480 -->
      <g style="fill: #262626" transform="translate(167.588772 537.54543)rotate(-45)scale(0.088 -0.088)">
       <use xlink:href="#DejaVuSans-34"/>
       <use xlink:href="#DejaVuSans-38" x="63.623047"/>
       <use xlink:href="#DejaVuSans-30" x="127.246094"/>
      </g>
     </g>
    </g>
    <g id="xtick_8">
     <g id="line2d_8">
      <path d="M 188.836973 512.64 
L 188.836973 69.12 
" clip-path="url(#p0999a2594b)" style="fill: none; stroke: #cccccc; stroke-width: 0.8; stroke-linecap: round"/>
     </g>
     <g id="text_8">
      <!-- 560 -->
      <g style="fill: #262626" transform="translate(184.615368 537.54543)rotate(-45)scale(0.088 -0.088)">
       <defs>
        <path id="DejaVuSans-35" d="M 691 4666 
L 3169 4666 
L 3169 4134 
L 1269 4134 
L 1269 2991 
Q 1406 3038 1543 3061 
Q 1681 3084 1819 3084 
Q 2600 3084 3056 2656 
Q 3513 2228 3513 1497 
Q 3513 744 3044 326 
Q 2575 -91 1722 -91 
Q 1428 -91 1123 -41 
Q 819 9 494 109 
L 494 744 
Q 775 591 1075 516 
Q 1375 441 1709 441 
Q 2250 441 2565 725 
Q 2881 1009 2881 1497 
Q 2881 1984 2565 2268 
Q 2250 2553 1709 2553 
Q 1456 2553 1204 2497 
Q 953 2441 691 2322 
L 691 4666 
z
" transform="scale(0.015625)"/>
       </defs>
       <use xlink:href="#DejaVuSans-35"/>
       <use xlink:href="#DejaVuSans-36" x="63.623047"/>
       <use xlink:href="#DejaVuSans-30" x="127.246094"/>
      </g>
     </g>
    </g>
    <g id="xtick_9">
     <g id="line2d_9">
      <path d="M 205.863569 512.64 
L 205.863569 69.12 
" clip-path="url(#p0999a2594b)" style="fill: none; stroke: #cccccc; stroke-width: 0.8; stroke-linecap: round"/>
     </g>
     <g id="text_9">
      <!-- 640 -->
      <g style="fill: #262626" transform="translate(201.641965 537.54543)rotate(-45)scale(0.088 -0.088)">
       <use xlink:href="#DejaVuSans-36"/>
       <use xlink:href="#DejaVuSans-34" x="63.623047"/>
       <use xlink:href="#DejaVuSans-30" x="127.246094"/>
      </g>
     </g>
    </g>
    <g id="xtick_10">
     <g id="line2d_10">
      <path d="M 222.890166 512.64 
L 222.890166 69.12 
" clip-path="url(#p0999a2594b)" style="fill: none; stroke: #cccccc; stroke-width: 0.8; stroke-linecap: round"/>
     </g>
     <g id="text_10">
      <!-- 720 -->
      <g style="fill: #262626" transform="translate(218.668562 537.54543)rotate(-45)scale(0.088 -0.088)">
       <defs>
        <path id="DejaVuSans-37" d="M 525 4666 
L 3525 4666 
L 3525 4397 
L 1831 0 
L 1172 0 
L 2766 4134 
L 525 4134 
L 525 4666 
z
" transform="scale(0.015625)"/>
       </defs>
       <use xlink:href="#DejaVuSans-37"/>
       <use xlink:href="#DejaVuSans-32" x="63.623047"/>
       <use xlink:href="#DejaVuSans-30" x="127.246094"/>
      </g>
     </g>
    </g>
    <g id="xtick_11">
     <g id="line2d_11">
      <path d="M 239.916763 512.64 
L 239.916763 69.12 
" clip-path="url(#p0999a2594b)" style="fill: none; stroke: #cccccc; stroke-width: 0.8; stroke-linecap: round"/>
     </g>
     <g id="text_11">
      <!-- 800 -->
      <g style="fill: #262626" transform="translate(235.695159 537.54543)rotate(-45)scale(0.088 -0.088)">
       <use xlink:href="#DejaVuSans-38"/>
       <use xlink:href="#DejaVuSans-30" x="63.623047"/>
       <use xlink:href="#DejaVuSans-30" x="127.246094"/>
      </g>
     </g>
    </g>
    <g id="xtick_12">
     <g id="line2d_12">
      <path d="M 256.94336 512.64 
L 256.94336 69.12 
" clip-path="url(#p0999a2594b)" style="fill: none; stroke: #cccccc; stroke-width: 0.8; stroke-linecap: round"/>
     </g>
     <g id="text_12">
      <!-- 880 -->
      <g style="fill: #262626" transform="translate(252.721755 537.54543)rotate(-45)scale(0.088 -0.088)">
       <use xlink:href="#DejaVuSans-38"/>
       <use xlink:href="#DejaVuSans-38" x="63.623047"/>
       <use xlink:href="#DejaVuSans-30" x="127.246094"/>
      </g>
     </g>
    </g>
    <g id="xtick_13">
     <g id="line2d_13">
      <path d="M 273.969956 512.64 
L 273.969956 69.12 
" clip-path="url(#p0999a2594b)" style="fill: none; stroke: #cccccc; stroke-width: 0.8; stroke-linecap: round"/>
     </g>
     <g id="text_13">
      <!-- 960 -->
      <g style="fill: #262626" transform="translate(269.748352 537.54543)rotate(-45)scale(0.088 -0.088)">
       <defs>
        <path id="DejaVuSans-39" d="M 703 97 
L 703 672 
Q 941 559 1184 500 
Q 1428 441 1663 441 
Q 2288 441 2617 861 
Q 2947 1281 2994 2138 
Q 2813 1869 2534 1725 
Q 2256 1581 1919 1581 
Q 1219 1581 811 2004 
Q 403 2428 403 3163 
Q 403 3881 828 4315 
Q 1253 4750 1959 4750 
Q 2769 4750 3195 4129 
Q 3622 3509 3622 2328 
Q 3622 1225 3098 567 
Q 2575 -91 1691 -91 
Q 1453 -91 1209 -44 
Q 966 3 703 97 
z
M 1959 2075 
Q 2384 2075 2632 2365 
Q 2881 2656 2881 3163 
Q 2881 3666 2632 3958 
Q 2384 4250 1959 4250 
Q 1534 4250 1286 3958 
Q 1038 3666 1038 3163 
Q 1038 2656 1286 2365 
Q 1534 2075 1959 2075 
z
" transform="scale(0.015625)"/>
       </defs>
       <use xlink:href="#DejaVuSans-39"/>
       <use xlink:href="#DejaVuSans-36" x="63.623047"/>
       <use xlink:href="#DejaVuSans-30" x="127.246094"/>
      </g>
     </g>
    </g>
    <g id="xtick_14">
     <g id="line2d_14">
      <path d="M 290.996553 512.64 
L 290.996553 69.12 
" clip-path="url(#p0999a2594b)" style="fill: none; stroke: #cccccc; stroke-width: 0.8; stroke-linecap: round"/>
     </g>
     <g id="text_14">
      <!-- 1040 -->
      <g style="fill: #262626" transform="translate(284.795404 541.504521)rotate(-45)scale(0.088 -0.088)">
       <use xlink:href="#DejaVuSans-31"/>
       <use xlink:href="#DejaVuSans-30" x="63.623047"/>
       <use xlink:href="#DejaVuSans-34" x="127.246094"/>
       <use xlink:href="#DejaVuSans-30" x="190.869141"/>
      </g>
     </g>
    </g>
    <g id="xtick_15">
     <g id="line2d_15">
      <path d="M 308.02315 512.64 
L 308.02315 69.12 
" clip-path="url(#p0999a2594b)" style="fill: none; stroke: #cccccc; stroke-width: 0.8; stroke-linecap: round"/>
     </g>
     <g id="text_15">
      <!-- 1120 -->
      <g style="fill: #262626" transform="translate(301.822 541.504521)rotate(-45)scale(0.088 -0.088)">
       <use xlink:href="#DejaVuSans-31"/>
       <use xlink:href="#DejaVuSans-31" x="63.623047"/>
       <use xlink:href="#DejaVuSans-32" x="127.246094"/>
       <use xlink:href="#DejaVuSans-30" x="190.869141"/>
      </g>
     </g>
    </g>
    <g id="xtick_16">
     <g id="line2d_16">
      <path d="M 325.049747 512.64 
L 325.049747 69.12 
" clip-path="url(#p0999a2594b)" style="fill: none; stroke: #cccccc; stroke-width: 0.8; stroke-linecap: round"/>
     </g>
     <g id="text_16">
      <!-- 1200 -->
      <g style="fill: #262626" transform="translate(318.848597 541.504521)rotate(-45)scale(0.088 -0.088)">
       <use xlink:href="#DejaVuSans-31"/>
       <use xlink:href="#DejaVuSans-32" x="63.623047"/>
       <use xlink:href="#DejaVuSans-30" x="127.246094"/>
       <use xlink:href="#DejaVuSans-30" x="190.869141"/>
      </g>
     </g>
    </g>
    <g id="xtick_17">
     <g id="line2d_17">
      <path d="M 342.076343 512.64 
L 342.076343 69.12 
" clip-path="url(#p0999a2594b)" style="fill: none; stroke: #cccccc; stroke-width: 0.8; stroke-linecap: round"/>
     </g>
     <g id="text_17">
      <!-- 1280 -->
      <g style="fill: #262626" transform="translate(335.875194 541.504521)rotate(-45)scale(0.088 -0.088)">
       <use xlink:href="#DejaVuSans-31"/>
       <use xlink:href="#DejaVuSans-32" x="63.623047"/>
       <use xlink:href="#DejaVuSans-38" x="127.246094"/>
       <use xlink:href="#DejaVuSans-30" x="190.869141"/>
      </g>
     </g>
    </g>
    <g id="xtick_18">
     <g id="line2d_18">
      <path d="M 359.10294 512.64 
L 359.10294 69.12 
" clip-path="url(#p0999a2594b)" style="fill: none; stroke: #cccccc; stroke-width: 0.8; stroke-linecap: round"/>
     </g>
     <g id="text_18">
      <!-- 1360 -->
      <g style="fill: #262626" transform="translate(352.901791 541.504521)rotate(-45)scale(0.088 -0.088)">
       <use xlink:href="#DejaVuSans-31"/>
       <use xlink:href="#DejaVuSans-33" x="63.623047"/>
       <use xlink:href="#DejaVuSans-36" x="127.246094"/>
       <use xlink:href="#DejaVuSans-30" x="190.869141"/>
      </g>
     </g>
    </g>
    <g id="xtick_19">
     <g id="line2d_19">
      <path d="M 376.129537 512.64 
L 376.129537 69.12 
" clip-path="url(#p0999a2594b)" style="fill: none; stroke: #cccccc; stroke-width: 0.8; stroke-linecap: round"/>
     </g>
     <g id="text_19">
      <!-- 1440 -->
      <g style="fill: #262626" transform="translate(369.928387 541.504521)rotate(-45)scale(0.088 -0.088)">
       <use xlink:href="#DejaVuSans-31"/>
       <use xlink:href="#DejaVuSans-34" x="63.623047"/>
       <use xlink:href="#DejaVuSans-34" x="127.246094"/>
       <use xlink:href="#DejaVuSans-30" x="190.869141"/>
      </g>
     </g>
    </g>
    <g id="text_20">
     <!-- Time (Minutes) -->
     <g style="fill: #262626" transform="translate(186.87375 554.093115)scale(0.096 -0.096)">
      <defs>
       <path id="DejaVuSans-54" d="M -19 4666 
L 3928 4666 
L 3928 4134 
L 2272 4134 
L 2272 0 
L 1638 0 
L 1638 4134 
L -19 4134 
L -19 4666 
z
" transform="scale(0.015625)"/>
       <path id="DejaVuSans-69" d="M 603 3500 
L 1178 3500 
L 1178 0 
L 603 0 
L 603 3500 
z
M 603 4863 
L 1178 4863 
L 1178 4134 
L 603 4134 
L 603 4863 
z
" transform="scale(0.015625)"/>
       <path id="DejaVuSans-6d" d="M 3328 2828 
Q 3544 3216 3844 3400 
Q 4144 3584 4550 3584 
Q 5097 3584 5394 3201 
Q 5691 2819 5691 2113 
L 5691 0 
L 5113 0 
L 5113 2094 
Q 5113 2597 4934 2840 
Q 4756 3084 4391 3084 
Q 3944 3084 3684 2787 
Q 3425 2491 3425 1978 
L 3425 0 
L 2847 0 
L 2847 2094 
Q 2847 2600 2669 2842 
Q 2491 3084 2119 3084 
Q 1678 3084 1418 2786 
Q 1159 2488 1159 1978 
L 1159 0 
L 581 0 
L 581 3500 
L 1159 3500 
L 1159 2956 
Q 1356 3278 1631 3431 
Q 1906 3584 2284 3584 
Q 2666 3584 2933 3390 
Q 3200 3197 3328 2828 
z
" transform="scale(0.015625)"/>
       <path id="DejaVuSans-65" d="M 3597 1894 
L 3597 1613 
L 953 1613 
Q 991 1019 1311 708 
Q 1631 397 2203 397 
Q 2534 397 2845 478 
Q 3156 559 3463 722 
L 3463 178 
Q 3153 47 2828 -22 
Q 2503 -91 2169 -91 
Q 1331 -91 842 396 
Q 353 884 353 1716 
Q 353 2575 817 3079 
Q 1281 3584 2069 3584 
Q 2775 3584 3186 3129 
Q 3597 2675 3597 1894 
z
M 3022 2063 
Q 3016 2534 2758 2815 
Q 2500 3097 2075 3097 
Q 1594 3097 1305 2825 
Q 1016 2553 972 2059 
L 3022 2063 
z
" transform="scale(0.015625)"/>
       <path id="DejaVuSans-20" transform="scale(0.015625)"/>
       <path id="DejaVuSans-28" d="M 1984 4856 
Q 1566 4138 1362 3434 
Q 1159 2731 1159 2009 
Q 1159 1288 1364 580 
Q 1569 -128 1984 -844 
L 1484 -844 
Q 1016 -109 783 600 
Q 550 1309 550 2009 
Q 550 2706 781 3412 
Q 1013 4119 1484 4856 
L 1984 4856 
z
" transform="scale(0.015625)"/>
       <path id="DejaVuSans-4d" d="M 628 4666 
L 1569 4666 
L 2759 1491 
L 3956 4666 
L 4897 4666 
L 4897 0 
L 4281 0 
L 4281 4097 
L 3078 897 
L 2444 897 
L 1241 4097 
L 1241 0 
L 628 0 
L 628 4666 
z
" transform="scale(0.015625)"/>
       <path id="DejaVuSans-6e" d="M 3513 2113 
L 3513 0 
L 2938 0 
L 2938 2094 
Q 2938 2591 2744 2837 
Q 2550 3084 2163 3084 
Q 1697 3084 1428 2787 
Q 1159 2491 1159 1978 
L 1159 0 
L 581 0 
L 581 3500 
L 1159 3500 
L 1159 2956 
Q 1366 3272 1645 3428 
Q 1925 3584 2291 3584 
Q 2894 3584 3203 3211 
Q 3513 2838 3513 2113 
z
" transform="scale(0.015625)"/>
       <path id="DejaVuSans-75" d="M 544 1381 
L 544 3500 
L 1119 3500 
L 1119 1403 
Q 1119 906 1312 657 
Q 1506 409 1894 409 
Q 2359 409 2629 706 
Q 2900 1003 2900 1516 
L 2900 3500 
L 3475 3500 
L 3475 0 
L 2900 0 
L 2900 538 
Q 2691 219 2414 64 
Q 2138 -91 1772 -91 
Q 1169 -91 856 284 
Q 544 659 544 1381 
z
M 1991 3584 
L 1991 3584 
z
" transform="scale(0.015625)"/>
       <path id="DejaVuSans-74" d="M 1172 4494 
L 1172 3500 
L 2356 3500 
L 2356 3053 
L 1172 3053 
L 1172 1153 
Q 1172 725 1289 603 
Q 1406 481 1766 481 
L 2356 481 
L 2356 0 
L 1766 0 
Q 1100 0 847 248 
Q 594 497 594 1153 
L 594 3053 
L 172 3053 
L 172 3500 
L 594 3500 
L 594 4494 
L 1172 4494 
z
" transform="scale(0.015625)"/>
       <path id="DejaVuSans-73" d="M 2834 3397 
L 2834 2853 
Q 2591 2978 2328 3040 
Q 2066 3103 1784 3103 
Q 1356 3103 1142 2972 
Q 928 2841 928 2578 
Q 928 2378 1081 2264 
Q 1234 2150 1697 2047 
L 1894 2003 
Q 2506 1872 2764 1633 
Q 3022 1394 3022 966 
Q 3022 478 2636 193 
Q 2250 -91 1575 -91 
Q 1294 -91 989 -36 
Q 684 19 347 128 
L 347 722 
Q 666 556 975 473 
Q 1284 391 1588 391 
Q 1994 391 2212 530 
Q 2431 669 2431 922 
Q 2431 1156 2273 1281 
Q 2116 1406 1581 1522 
L 1381 1569 
Q 847 1681 609 1914 
Q 372 2147 372 2553 
Q 372 3047 722 3315 
Q 1072 3584 1716 3584 
Q 2034 3584 2315 3537 
Q 2597 3491 2834 3397 
z
" transform="scale(0.015625)"/>
       <path id="DejaVuSans-29" d="M 513 4856 
L 1013 4856 
Q 1481 4119 1714 3412 
Q 1947 2706 1947 2009 
Q 1947 1309 1714 600 
Q 1481 -109 1013 -844 
L 513 -844 
Q 928 -128 1133 580 
Q 1338 1288 1338 2009 
Q 1338 2731 1133 3434 
Q 928 4138 513 4856 
z
" transform="scale(0.015625)"/>
      </defs>
      <use xlink:href="#DejaVuSans-54"/>
      <use xlink:href="#DejaVuSans-69" x="57.958984"/>
      <use xlink:href="#DejaVuSans-6d" x="85.742188"/>
      <use xlink:href="#DejaVuSans-65" x="183.154297"/>
      <use xlink:href="#DejaVuSans-20" x="244.677734"/>
      <use xlink:href="#DejaVuSans-28" x="276.464844"/>
      <use xlink:href="#DejaVuSans-4d" x="315.478516"/>
      <use xlink:href="#DejaVuSans-69" x="401.757812"/>
      <use xlink:href="#DejaVuSans-6e" x="429.541016"/>
      <use xlink:href="#DejaVuSans-75" x="492.919922"/>
      <use xlink:href="#DejaVuSans-74" x="556.298828"/>
      <use xlink:href="#DejaVuSans-65" x="595.507812"/>
      <use xlink:href="#DejaVuSans-73" x="657.03125"/>
      <use xlink:href="#DejaVuSans-29" x="709.130859"/>
     </g>
    </g>
   </g>
   <g id="matplotlib.axis_2">
    <g id="ytick_1">
     <g id="line2d_20">
      <path d="M 54.3375 492.48 
L 391.23 492.48 
" clip-path="url(#p0999a2594b)" style="fill: none; stroke: #cccccc; stroke-width: 0.8; stroke-linecap: round"/>
     </g>
     <g id="text_21">
      <!-- 0 -->
      <g style="fill: #262626" transform="translate(40.4385 495.823312)scale(0.088 -0.088)">
       <use xlink:href="#DejaVuSans-30"/>
      </g>
     </g>
    </g>
    <g id="ytick_2">
     <g id="line2d_21">
      <path d="M 54.3375 468.508537 
L 391.23 468.508537 
" clip-path="url(#p0999a2594b)" style="fill: none; stroke: #cccccc; stroke-width: 0.8; stroke-linecap: round"/>
     </g>
     <g id="text_22">
      <!-- 100 -->
      <g style="fill: #262626" transform="translate(29.2405 471.85185)scale(0.088 -0.088)">
       <use xlink:href="#DejaVuSans-31"/>
       <use xlink:href="#DejaVuSans-30" x="63.623047"/>
       <use xlink:href="#DejaVuSans-30" x="127.246094"/>
      </g>
     </g>
    </g>
    <g id="ytick_3">
     <g id="line2d_22">
      <path d="M 54.3375 444.537075 
L 391.23 444.537075 
" clip-path="url(#p0999a2594b)" style="fill: none; stroke: #cccccc; stroke-width: 0.8; stroke-linecap: round"/>
     </g>
     <g id="text_23">
      <!-- 200 -->
      <g style="fill: #262626" transform="translate(29.2405 447.880387)scale(0.088 -0.088)">
       <use xlink:href="#DejaVuSans-32"/>
       <use xlink:href="#DejaVuSans-30" x="63.623047"/>
       <use xlink:href="#DejaVuSans-30" x="127.246094"/>
      </g>
     </g>
    </g>
    <g id="ytick_4">
     <g id="line2d_23">
      <path d="M 54.3375 420.565612 
L 391.23 420.565612 
" clip-path="url(#p0999a2594b)" style="fill: none; stroke: #cccccc; stroke-width: 0.8; stroke-linecap: round"/>
     </g>
     <g id="text_24">
      <!-- 300 -->
      <g style="fill: #262626" transform="translate(29.2405 423.908925)scale(0.088 -0.088)">
       <use xlink:href="#DejaVuSans-33"/>
       <use xlink:href="#DejaVuSans-30" x="63.623047"/>
       <use xlink:href="#DejaVuSans-30" x="127.246094"/>
      </g>
     </g>
    </g>
    <g id="ytick_5">
     <g id="line2d_24">
      <path d="M 54.3375 396.59415 
L 391.23 396.59415 
" clip-path="url(#p0999a2594b)" style="fill: none; stroke: #cccccc; stroke-width: 0.8; stroke-linecap: round"/>
     </g>
     <g id="text_25">
      <!-- 400 -->
      <g style="fill: #262626" transform="translate(29.2405 399.937462)scale(0.088 -0.088)">
       <use xlink:href="#DejaVuSans-34"/>
       <use xlink:href="#DejaVuSans-30" x="63.623047"/>
       <use xlink:href="#DejaVuSans-30" x="127.246094"/>
      </g>
     </g>
    </g>
    <g id="ytick_6">
     <g id="line2d_25">
      <path d="M 54.3375 372.622687 
L 391.23 372.622687 
" clip-path="url(#p0999a2594b)" style="fill: none; stroke: #cccccc; stroke-width: 0.8; stroke-linecap: round"/>
     </g>
     <g id="text_26">
      <!-- 500 -->
      <g style="fill: #262626" transform="translate(29.2405 375.966)scale(0.088 -0.088)">
       <use xlink:href="#DejaVuSans-35"/>
       <use xlink:href="#DejaVuSans-30" x="63.623047"/>
       <use xlink:href="#DejaVuSans-30" x="127.246094"/>
      </g>
     </g>
    </g>
    <g id="ytick_7">
     <g id="line2d_26">
      <path d="M 54.3375 348.651225 
L 391.23 348.651225 
" clip-path="url(#p0999a2594b)" style="fill: none; stroke: #cccccc; stroke-width: 0.8; stroke-linecap: round"/>
     </g>
     <g id="text_27">
      <!-- 600 -->
      <g style="fill: #262626" transform="translate(29.2405 351.994537)scale(0.088 -0.088)">
       <use xlink:href="#DejaVuSans-36"/>
       <use xlink:href="#DejaVuSans-30" x="63.623047"/>
       <use xlink:href="#DejaVuSans-30" x="127.246094"/>
      </g>
     </g>
    </g>
    <g id="ytick_8">
     <g id="line2d_27">
      <path d="M 54.3375 324.679762 
L 391.23 324.679762 
" clip-path="url(#p0999a2594b)" style="fill: none; stroke: #cccccc; stroke-width: 0.8; stroke-linecap: round"/>
     </g>
     <g id="text_28">
      <!-- 700 -->
      <g style="fill: #262626" transform="translate(29.2405 328.023075)scale(0.088 -0.088)">
       <use xlink:href="#DejaVuSans-37"/>
       <use xlink:href="#DejaVuSans-30" x="63.623047"/>
       <use xlink:href="#DejaVuSans-30" x="127.246094"/>
      </g>
     </g>
    </g>
    <g id="ytick_9">
     <g id="line2d_28">
      <path d="M 54.3375 300.7083 
L 391.23 300.7083 
" clip-path="url(#p0999a2594b)" style="fill: none; stroke: #cccccc; stroke-width: 0.8; stroke-linecap: round"/>
     </g>
     <g id="text_29">
      <!-- 800 -->
      <g style="fill: #262626" transform="translate(29.2405 304.051612)scale(0.088 -0.088)">
       <use xlink:href="#DejaVuSans-38"/>
       <use xlink:href="#DejaVuSans-30" x="63.623047"/>
       <use xlink:href="#DejaVuSans-30" x="127.246094"/>
      </g>
     </g>
    </g>
    <g id="ytick_10">
     <g id="line2d_29">
      <path d="M 54.3375 276.736837 
L 391.23 276.736837 
" clip-path="url(#p0999a2594b)" style="fill: none; stroke: #cccccc; stroke-width: 0.8; stroke-linecap: round"/>
     </g>
     <g id="text_30">
      <!-- 900 -->
      <g style="fill: #262626" transform="translate(29.2405 280.08015)scale(0.088 -0.088)">
       <use xlink:href="#DejaVuSans-39"/>
       <use xlink:href="#DejaVuSans-30" x="63.623047"/>
       <use xlink:href="#DejaVuSans-30" x="127.246094"/>
      </g>
     </g>
    </g>
    <g id="ytick_11">
     <g id="line2d_30">
      <path d="M 54.3375 252.765375 
L 391.23 252.765375 
" clip-path="url(#p0999a2594b)" style="fill: none; stroke: #cccccc; stroke-width: 0.8; stroke-linecap: round"/>
     </g>
     <g id="text_31">
      <!-- 1000 -->
      <g style="fill: #262626" transform="translate(23.6415 256.108687)scale(0.088 -0.088)">
       <use xlink:href="#DejaVuSans-31"/>
       <use xlink:href="#DejaVuSans-30" x="63.623047"/>
       <use xlink:href="#DejaVuSans-30" x="127.246094"/>
       <use xlink:href="#DejaVuSans-30" x="190.869141"/>
      </g>
     </g>
    </g>
    <g id="ytick_12">
     <g id="line2d_31">
      <path d="M 54.3375 228.793912 
L 391.23 228.793912 
" clip-path="url(#p0999a2594b)" style="fill: none; stroke: #cccccc; stroke-width: 0.8; stroke-linecap: round"/>
     </g>
     <g id="text_32">
      <!-- 1100 -->
      <g style="fill: #262626" transform="translate(23.6415 232.137225)scale(0.088 -0.088)">
       <use xlink:href="#DejaVuSans-31"/>
       <use xlink:href="#DejaVuSans-31" x="63.623047"/>
       <use xlink:href="#DejaVuSans-30" x="127.246094"/>
       <use xlink:href="#DejaVuSans-30" x="190.869141"/>
      </g>
     </g>
    </g>
    <g id="ytick_13">
     <g id="line2d_32">
      <path d="M 54.3375 204.822449 
L 391.23 204.822449 
" clip-path="url(#p0999a2594b)" style="fill: none; stroke: #cccccc; stroke-width: 0.8; stroke-linecap: round"/>
     </g>
     <g id="text_33">
      <!-- 1200 -->
      <g style="fill: #262626" transform="translate(23.6415 208.165762)scale(0.088 -0.088)">
       <use xlink:href="#DejaVuSans-31"/>
       <use xlink:href="#DejaVuSans-32" x="63.623047"/>
       <use xlink:href="#DejaVuSans-30" x="127.246094"/>
       <use xlink:href="#DejaVuSans-30" x="190.869141"/>
      </g>
     </g>
    </g>
    <g id="ytick_14">
     <g id="line2d_33">
      <path d="M 54.3375 180.850987 
L 391.23 180.850987 
" clip-path="url(#p0999a2594b)" style="fill: none; stroke: #cccccc; stroke-width: 0.8; stroke-linecap: round"/>
     </g>
     <g id="text_34">
      <!-- 1300 -->
      <g style="fill: #262626" transform="translate(23.6415 184.194299)scale(0.088 -0.088)">
       <use xlink:href="#DejaVuSans-31"/>
       <use xlink:href="#DejaVuSans-33" x="63.623047"/>
       <use xlink:href="#DejaVuSans-30" x="127.246094"/>
       <use xlink:href="#DejaVuSans-30" x="190.869141"/>
      </g>
     </g>
    </g>
    <g id="ytick_15">
     <g id="line2d_34">
      <path d="M 54.3375 156.879524 
L 391.23 156.879524 
" clip-path="url(#p0999a2594b)" style="fill: none; stroke: #cccccc; stroke-width: 0.8; stroke-linecap: round"/>
     </g>
     <g id="text_35">
      <!-- 1400 -->
      <g style="fill: #262626" transform="translate(23.6415 160.222837)scale(0.088 -0.088)">
       <use xlink:href="#DejaVuSans-31"/>
       <use xlink:href="#DejaVuSans-34" x="63.623047"/>
       <use xlink:href="#DejaVuSans-30" x="127.246094"/>
       <use xlink:href="#DejaVuSans-30" x="190.869141"/>
      </g>
     </g>
    </g>
    <g id="ytick_16">
     <g id="line2d_35">
      <path d="M 54.3375 132.908062 
L 391.23 132.908062 
" clip-path="url(#p0999a2594b)" style="fill: none; stroke: #cccccc; stroke-width: 0.8; stroke-linecap: round"/>
     </g>
     <g id="text_36">
      <!-- 1500 -->
      <g style="fill: #262626" transform="translate(23.6415 136.251374)scale(0.088 -0.088)">
       <use xlink:href="#DejaVuSans-31"/>
       <use xlink:href="#DejaVuSans-35" x="63.623047"/>
       <use xlink:href="#DejaVuSans-30" x="127.246094"/>
       <use xlink:href="#DejaVuSans-30" x="190.869141"/>
      </g>
     </g>
    </g>
    <g id="ytick_17">
     <g id="line2d_36">
      <path d="M 54.3375 108.936599 
L 391.23 108.936599 
" clip-path="url(#p0999a2594b)" style="fill: none; stroke: #cccccc; stroke-width: 0.8; stroke-linecap: round"/>
     </g>
     <g id="text_37">
      <!-- 1600 -->
      <g style="fill: #262626" transform="translate(23.6415 112.279912)scale(0.088 -0.088)">
       <use xlink:href="#DejaVuSans-31"/>
       <use xlink:href="#DejaVuSans-36" x="63.623047"/>
       <use xlink:href="#DejaVuSans-30" x="127.246094"/>
       <use xlink:href="#DejaVuSans-30" x="190.869141"/>
      </g>
     </g>
    </g>
    <g id="text_38">
     <!-- Edge Coverages -->
     <g style="fill: #262626" transform="translate(17.645 329.98575)rotate(-90)scale(0.096 -0.096)">
      <defs>
       <path id="DejaVuSans-45" d="M 628 4666 
L 3578 4666 
L 3578 4134 
L 1259 4134 
L 1259 2753 
L 3481 2753 
L 3481 2222 
L 1259 2222 
L 1259 531 
L 3634 531 
L 3634 0 
L 628 0 
L 628 4666 
z
" transform="scale(0.015625)"/>
       <path id="DejaVuSans-64" d="M 2906 2969 
L 2906 4863 
L 3481 4863 
L 3481 0 
L 2906 0 
L 2906 525 
Q 2725 213 2448 61 
Q 2172 -91 1784 -91 
Q 1150 -91 751 415 
Q 353 922 353 1747 
Q 353 2572 751 3078 
Q 1150 3584 1784 3584 
Q 2172 3584 2448 3432 
Q 2725 3281 2906 2969 
z
M 947 1747 
Q 947 1113 1208 752 
Q 1469 391 1925 391 
Q 2381 391 2643 752 
Q 2906 1113 2906 1747 
Q 2906 2381 2643 2742 
Q 2381 3103 1925 3103 
Q 1469 3103 1208 2742 
Q 947 2381 947 1747 
z
" transform="scale(0.015625)"/>
       <path id="DejaVuSans-67" d="M 2906 1791 
Q 2906 2416 2648 2759 
Q 2391 3103 1925 3103 
Q 1463 3103 1205 2759 
Q 947 2416 947 1791 
Q 947 1169 1205 825 
Q 1463 481 1925 481 
Q 2391 481 2648 825 
Q 2906 1169 2906 1791 
z
M 3481 434 
Q 3481 -459 3084 -895 
Q 2688 -1331 1869 -1331 
Q 1566 -1331 1297 -1286 
Q 1028 -1241 775 -1147 
L 775 -588 
Q 1028 -725 1275 -790 
Q 1522 -856 1778 -856 
Q 2344 -856 2625 -561 
Q 2906 -266 2906 331 
L 2906 616 
Q 2728 306 2450 153 
Q 2172 0 1784 0 
Q 1141 0 747 490 
Q 353 981 353 1791 
Q 353 2603 747 3093 
Q 1141 3584 1784 3584 
Q 2172 3584 2450 3431 
Q 2728 3278 2906 2969 
L 2906 3500 
L 3481 3500 
L 3481 434 
z
" transform="scale(0.015625)"/>
       <path id="DejaVuSans-43" d="M 4122 4306 
L 4122 3641 
Q 3803 3938 3442 4084 
Q 3081 4231 2675 4231 
Q 1875 4231 1450 3742 
Q 1025 3253 1025 2328 
Q 1025 1406 1450 917 
Q 1875 428 2675 428 
Q 3081 428 3442 575 
Q 3803 722 4122 1019 
L 4122 359 
Q 3791 134 3420 21 
Q 3050 -91 2638 -91 
Q 1578 -91 968 557 
Q 359 1206 359 2328 
Q 359 3453 968 4101 
Q 1578 4750 2638 4750 
Q 3056 4750 3426 4639 
Q 3797 4528 4122 4306 
z
" transform="scale(0.015625)"/>
       <path id="DejaVuSans-6f" d="M 1959 3097 
Q 1497 3097 1228 2736 
Q 959 2375 959 1747 
Q 959 1119 1226 758 
Q 1494 397 1959 397 
Q 2419 397 2687 759 
Q 2956 1122 2956 1747 
Q 2956 2369 2687 2733 
Q 2419 3097 1959 3097 
z
M 1959 3584 
Q 2709 3584 3137 3096 
Q 3566 2609 3566 1747 
Q 3566 888 3137 398 
Q 2709 -91 1959 -91 
Q 1206 -91 779 398 
Q 353 888 353 1747 
Q 353 2609 779 3096 
Q 1206 3584 1959 3584 
z
" transform="scale(0.015625)"/>
       <path id="DejaVuSans-76" d="M 191 3500 
L 800 3500 
L 1894 563 
L 2988 3500 
L 3597 3500 
L 2284 0 
L 1503 0 
L 191 3500 
z
" transform="scale(0.015625)"/>
       <path id="DejaVuSans-72" d="M 2631 2963 
Q 2534 3019 2420 3045 
Q 2306 3072 2169 3072 
Q 1681 3072 1420 2755 
Q 1159 2438 1159 1844 
L 1159 0 
L 581 0 
L 581 3500 
L 1159 3500 
L 1159 2956 
Q 1341 3275 1631 3429 
Q 1922 3584 2338 3584 
Q 2397 3584 2469 3576 
Q 2541 3569 2628 3553 
L 2631 2963 
z
" transform="scale(0.015625)"/>
       <path id="DejaVuSans-61" d="M 2194 1759 
Q 1497 1759 1228 1600 
Q 959 1441 959 1056 
Q 959 750 1161 570 
Q 1363 391 1709 391 
Q 2188 391 2477 730 
Q 2766 1069 2766 1631 
L 2766 1759 
L 2194 1759 
z
M 3341 1997 
L 3341 0 
L 2766 0 
L 2766 531 
Q 2569 213 2275 61 
Q 1981 -91 1556 -91 
Q 1019 -91 701 211 
Q 384 513 384 1019 
Q 384 1609 779 1909 
Q 1175 2209 1959 2209 
L 2766 2209 
L 2766 2266 
Q 2766 2663 2505 2880 
Q 2244 3097 1772 3097 
Q 1472 3097 1187 3025 
Q 903 2953 641 2809 
L 641 3341 
Q 956 3463 1253 3523 
Q 1550 3584 1831 3584 
Q 2591 3584 2966 3190 
Q 3341 2797 3341 1997 
z
" transform="scale(0.015625)"/>
      </defs>
      <use xlink:href="#DejaVuSans-45"/>
      <use xlink:href="#DejaVuSans-64" x="63.183594"/>
      <use xlink:href="#DejaVuSans-67" x="126.660156"/>
      <use xlink:href="#DejaVuSans-65" x="190.136719"/>
      <use xlink:href="#DejaVuSans-20" x="251.660156"/>
      <use xlink:href="#DejaVuSans-43" x="283.447266"/>
      <use xlink:href="#DejaVuSans-6f" x="353.271484"/>
      <use xlink:href="#DejaVuSans-76" x="414.453125"/>
      <use xlink:href="#DejaVuSans-65" x="473.632812"/>
      <use xlink:href="#DejaVuSans-72" x="535.15625"/>
      <use xlink:href="#DejaVuSans-61" x="576.269531"/>
      <use xlink:href="#DejaVuSans-67" x="637.548828"/>
      <use xlink:href="#DejaVuSans-65" x="701.025391"/>
      <use xlink:href="#DejaVuSans-73" x="762.548828"/>
     </g>
    </g>
   </g>
   <g id="PolyCollection_1">
    <defs>
     <path id="mb0c81b0a0c" d="M 69.650795 -90.471724 
L 69.650795 -83.52 
L 69.650795 -90.471724 
L 69.650795 -90.471724 
z
" style="stroke: #db5f57; stroke-opacity: 0.2; stroke-width: 0.8"/>
    </defs>
    <g clip-path="url(#p0999a2594b)">
     <use xlink:href="#mb0c81b0a0c" x="0" y="576" style="fill: #db5f57; fill-opacity: 0.2; stroke: #db5f57; stroke-opacity: 0.2; stroke-width: 0.8"/>
    </g>
   </g>
   <g id="PolyCollection_2">
    <defs>
     <path id="m3fa0897e3a" d="M 69.650795 -110.847467 
L 69.650795 -83.52 
L 69.650795 -110.847467 
L 69.650795 -110.847467 
z
" style="stroke: #b9db57; stroke-opacity: 0.2; stroke-width: 0.8"/>
    </defs>
    <g clip-path="url(#p0999a2594b)">
     <use xlink:href="#m3fa0897e3a" x="0" y="576" style="fill: #b9db57; fill-opacity: 0.2; stroke: #b9db57; stroke-opacity: 0.2; stroke-width: 0.8"/>
    </g>
   </g>
   <g id="PolyCollection_3">
    <defs>
     <path id="m266c5c473f" d="M 69.650795 -87.834863 
L 69.650795 -83.52 
L 69.650795 -87.834863 
L 69.650795 -87.834863 
z
" style="stroke: #57db94; stroke-opacity: 0.2; stroke-width: 0.8"/>
    </defs>
    <g clip-path="url(#p0999a2594b)">
     <use xlink:href="#m266c5c473f" x="0" y="576" style="fill: #57db94; fill-opacity: 0.2; stroke: #57db94; stroke-opacity: 0.2; stroke-width: 0.8"/>
    </g>
   </g>
   <g id="PolyCollection_4">
    <defs>
     <path id="m9db7473572" d="M 69.650795 -104.375172 
L 69.650795 -83.52 
L 69.650795 -104.375172 
L 69.650795 -104.375172 
z
" style="stroke: #5784db; stroke-opacity: 0.2; stroke-width: 0.8"/>
    </defs>
    <g clip-path="url(#p0999a2594b)">
     <use xlink:href="#m9db7473572" x="0" y="576" style="fill: #5784db; fill-opacity: 0.2; stroke: #5784db; stroke-opacity: 0.2; stroke-width: 0.8"/>
    </g>
   </g>
   <g id="PolyCollection_5">
    <defs>
     <path id="mb528fff6a4" d="M 69.650795 -112.04604 
L 69.650795 -83.52 
L 69.650795 -112.04604 
L 69.650795 -112.04604 
z
" style="stroke: #c957db; stroke-opacity: 0.2; stroke-width: 0.8"/>
    </defs>
    <g clip-path="url(#p0999a2594b)">
     <use xlink:href="#mb528fff6a4" x="0" y="576" style="fill: #c957db; fill-opacity: 0.2; stroke: #c957db; stroke-opacity: 0.2; stroke-width: 0.8"/>
    </g>
   </g>
   <g id="line2d_37">
    <path d="M 69.650795 489.004138 
L 69.863628 485.288561 
L 70.289293 485.288561 
L 70.714958 432.791058 
L 71.353455 422.962759 
L 71.566288 422.243615 
L 71.991953 414.572747 
L 72.204785 413.374174 
L 72.417617 411.456457 
L 72.63045 410.977027 
L 72.843282 408.819596 
L 73.056115 403.785589 
L 73.268947 403.066445 
L 73.694612 396.833864 
L 73.907445 393.47786 
L 74.545942 389.88214 
L 74.758774 389.642426 
L 75.397272 368.307824 
L 75.610104 367.109251 
L 75.822937 364.232675 
L 76.035769 363.034102 
L 76.461434 356.561807 
L 76.674267 356.082378 
L 77.099932 350.808656 
L 77.312764 349.610083 
L 77.525596 347.692366 
L 77.738429 343.617218 
L 78.376926 339.06264 
L 79.228256 339.06264 
L 79.441089 331.391772 
L 79.866754 329.953484 
L 80.292418 324.679762 
L 80.505251 323.720904 
L 80.930916 317.728038 
L 81.143748 317.488323 
L 81.356581 317.488323 
L 81.569413 313.17346 
L 81.995078 311.016029 
L 82.207911 309.338026 
L 82.420743 308.858597 
L 82.846408 305.742307 
L 83.272073 303.345161 
L 83.484905 303.345161 
L 83.697738 302.626017 
L 84.123403 300.468585 
L 84.336235 300.22887 
L 85.400397 296.393436 
L 85.61323 296.393436 
L 85.826062 295.914007 
L 86.038895 295.914007 
L 86.251727 295.434578 
L 86.677392 295.434578 
L 87.528722 293.516861 
L 87.741555 292.558002 
L 87.954387 292.558002 
L 88.167219 291.599144 
L 88.380052 291.599144 
L 88.592884 288.962283 
L 88.805717 288.003424 
L 89.018549 288.003424 
L 89.231382 287.284281 
L 89.444214 287.284281 
L 89.657047 287.044566 
L 89.869879 287.044566 
L 90.295544 285.606278 
L 90.508376 285.126849 
L 90.721209 285.126849 
L 91.146874 284.407705 
L 91.359706 284.16799 
L 94.339361 284.16799 
L 94.552193 281.0517 
L 94.977858 281.0517 
L 95.403523 279.853127 
L 95.616356 279.613413 
L 95.829188 279.613413 
L 96.04202 279.133983 
L 96.680518 276.017693 
L 96.89335 276.017693 
L 97.106183 274.339691 
L 97.319015 273.620547 
L 97.531848 272.182259 
L 97.74468 271.942545 
L 97.957513 269.545398 
L 98.59601 266.668823 
L 98.808842 266.429108 
L 99.44734 266.429108 
L 99.873005 265.949679 
L 100.085837 264.751106 
L 100.29867 264.271677 
L 100.937167 260.436243 
L 101.149999 260.196528 
L 101.362832 259.717099 
L 101.575664 258.518526 
L 101.788497 258.518526 
L 102.001329 258.039096 
L 102.214162 258.039096 
L 102.852659 256.840523 
L 103.491157 256.840523 
L 103.703989 256.600809 
L 103.916821 256.600809 
L 104.129654 256.361094 
L 104.555319 255.402235 
L 105.193816 255.402235 
L 105.406649 255.162521 
L 105.619481 255.162521 
L 105.832314 254.922806 
L 106.896476 254.922806 
L 107.109308 254.443377 
L 108.599136 254.443377 
L 108.811968 253.244804 
L 109.0248 253.244804 
L 109.237633 253.005089 
L 109.663298 253.005089 
L 109.87613 252.765375 
L 112.642952 252.765375 
L 112.855785 251.566801 
L 113.068617 251.566801 
L 113.28145 251.327087 
L 114.771277 251.327087 
L 114.984109 250.847658 
L 115.196942 250.847658 
L 115.409774 248.690226 
L 115.835439 239.58107 
L 116.048272 238.622212 
L 116.261104 234.547063 
L 116.473937 234.307348 
L 117.112434 234.307348 
L 117.325266 223.99962 
L 117.538099 223.99962 
L 117.750931 222.561332 
L 118.389429 222.561332 
L 118.602261 222.321617 
L 118.815094 222.321617 
L 119.027926 222.081902 
L 119.453591 222.081902 
L 119.666423 221.842188 
L 120.304921 219.924471 
L 120.730586 219.924471 
L 120.943418 219.684756 
L 121.156251 219.205327 
L 129.031052 219.205327 
L 129.243884 215.849322 
L 131.585041 215.849322 
L 131.797874 215.369893 
L 132.010706 215.369893 
L 132.223539 214.650749 
L 132.436371 214.650749 
L 132.649203 208.897598 
L 133.074868 208.897598 
L 133.287701 208.418169 
L 133.926198 208.418169 
L 134.139031 206.021023 
L 140.524004 206.021023 
L 140.736837 204.822449 
L 142.439497 204.822449 
L 142.865161 204.34302 
L 144.993486 204.34302 
L 145.206319 203.384162 
L 146.483313 203.384162 
L 146.696146 203.144447 
L 147.973141 203.144447 
L 148.185973 202.904732 
L 149.888633 202.904732 
L 150.314298 202.425303 
L 171.171879 202.425303 
L 171.384711 185.884994 
L 174.79003 185.884994 
L 175.002863 185.645279 
L 199.265763 185.645279 
L 199.478596 180.850987 
L 203.096748 180.850987 
L 203.30958 180.131843 
L 203.522412 180.131843 
L 203.735245 179.892128 
L 206.714899 179.892128 
L 206.927732 179.172985 
L 207.140564 179.172985 
L 207.353397 178.93327 
L 207.566229 178.93327 
L 207.991894 178.453841 
L 209.268889 178.453841 
L 209.481721 177.015553 
L 209.694554 177.015553 
L 209.907386 176.296409 
L 210.971549 176.296409 
L 211.184381 176.056694 
L 227.359648 176.056694 
L 227.57248 175.81698 
L 236.937109 175.81698 
L 237.149941 175.577265 
L 239.916763 175.577265 
L 240.129595 175.337551 
L 245.876072 175.337551 
L 246.088904 175.097836 
L 247.791564 175.097836 
L 248.004396 174.858121 
L 249.919889 174.858121 
L 250.132721 174.618407 
L 250.558386 174.618407 
L 250.984051 174.138977 
L 251.409716 174.138977 
L 251.835381 173.659548 
L 252.048213 172.940404 
L 252.261046 172.70069 
L 252.473878 171.981546 
L 252.686711 171.741831 
L 254.602203 171.741831 
L 254.815035 169.5844 
L 255.027868 169.5844 
L 255.2407 168.865256 
L 259.071684 168.865256 
L 259.284517 168.625541 
L 259.923014 168.625541 
L 260.348679 168.146112 
L 261.412841 168.146112 
L 261.625674 167.906397 
L 262.264171 167.906397 
L 262.689836 167.426968 
L 262.902669 167.426968 
L 263.115501 167.187253 
L 268.436313 167.187253 
L 268.649145 166.468109 
L 281.419093 166.468109 
L 281.631925 165.029822 
L 282.270422 165.029822 
L 282.483255 164.790107 
L 291.847883 164.790107 
L 292.060716 164.310678 
L 292.912045 164.310678 
L 293.124878 164.070963 
L 293.976208 164.070963 
L 294.401873 163.351819 
L 295.04037 163.351819 
L 295.253202 163.112105 
L 295.678867 163.112105 
L 295.8917 162.153246 
L 299.935517 162.153246 
L 300.148349 161.913532 
L 301.638176 161.913532 
L 301.851009 161.673817 
L 305.46916 161.673817 
L 305.681993 161.434102 
L 309.938642 161.434102 
L 310.151475 161.194388 
L 327.178071 161.194388 
L 327.390904 160.954673 
L 332.498883 160.954673 
L 332.711715 160.714958 
L 359.10294 160.714958 
L 359.528605 160.235529 
L 361.231265 160.235529 
L 361.444097 159.995815 
L 362.933925 159.995815 
L 363.146757 159.7561 
L 372.08572 159.7561 
L 372.298553 159.036956 
L 372.511385 158.797241 
L 375.916705 158.797241 
L 375.916705 158.797241 
" clip-path="url(#p0999a2594b)" style="fill: none; stroke: #db5f57; stroke-width: 1.2; stroke-linecap: round"/>
   </g>
   <g id="line2d_38">
    <path d="M 69.650795 478.816266 
L 69.863628 461.796528 
L 70.502125 450.050511 
L 70.714958 435.907348 
L 71.991953 418.408181 
L 72.63045 414.333032 
L 73.056115 407.860737 
L 73.48178 404.265018 
L 74.120277 396.354435 
L 74.758774 393.957289 
L 75.397272 374.060975 
L 77.525596 352.486659 
L 77.738429 348.890939 
L 78.164094 346.733508 
L 78.802591 340.500927 
L 79.015424 339.781784 
L 79.441089 336.905208 
L 79.653921 335.94635 
L 79.866754 335.706635 
L 80.505251 330.193199 
L 80.930916 323.720904 
L 81.143748 323.720904 
L 81.356581 322.522331 
L 81.782246 318.207467 
L 82.207911 316.76918 
L 82.420743 315.570606 
L 82.846408 311.974887 
L 83.05924 311.255743 
L 83.272073 309.817455 
L 83.484905 309.577741 
L 83.697738 309.098312 
L 83.91057 307.899738 
L 84.123403 307.899738 
L 84.549068 305.742307 
L 84.7619 305.502592 
L 84.974733 305.023163 
L 85.187565 304.064304 
L 85.61323 303.584875 
L 85.826062 302.865731 
L 86.46456 302.865731 
L 86.890225 302.386302 
L 87.103057 301.667158 
L 87.31589 301.667158 
L 87.741555 299.989156 
L 88.167219 299.989156 
L 88.592884 295.914007 
L 88.805717 295.194863 
L 89.018549 295.194863 
L 89.231382 294.955149 
L 89.444214 294.955149 
L 89.657047 294.715434 
L 89.869879 294.715434 
L 90.295544 293.516861 
L 90.508376 293.277146 
L 90.721209 293.277146 
L 91.359706 292.558002 
L 91.572539 292.558002 
L 92.211036 291.838859 
L 93.488031 291.838859 
L 93.700863 291.359429 
L 93.913696 291.359429 
L 94.126528 290.640285 
L 94.339361 290.640285 
L 94.552193 290.400571 
L 94.765026 290.400571 
L 94.977858 290.160856 
L 95.190691 289.681427 
L 95.403523 289.681427 
L 95.616356 288.482854 
L 95.829188 288.482854 
L 96.04202 288.243139 
L 96.680518 285.366564 
L 96.89335 285.126849 
L 97.319015 282.489988 
L 97.74468 281.291415 
L 98.170345 278.175125 
L 98.383177 276.976552 
L 98.808842 276.497122 
L 99.021675 276.497122 
L 99.234507 276.257408 
L 99.44734 276.257408 
L 100.511502 273.620547 
L 101.362832 270.264542 
L 101.575664 269.545398 
L 101.788497 269.305684 
L 102.214162 268.58654 
L 102.426994 268.58654 
L 103.065492 267.387967 
L 103.491157 267.387967 
L 103.703989 266.908537 
L 104.129654 266.908537 
L 104.555319 265.949679 
L 104.980984 265.949679 
L 105.406649 265.47025 
L 106.896476 265.47025 
L 107.109308 265.230535 
L 108.173471 265.230535 
L 108.386303 264.751106 
L 108.599136 264.751106 
L 108.811968 264.271677 
L 109.0248 264.271677 
L 109.237633 263.792247 
L 109.663298 263.792247 
L 109.87613 263.552533 
L 110.514628 263.552533 
L 110.72746 263.312818 
L 111.791622 263.312818 
L 112.004455 263.073103 
L 112.217287 262.593674 
L 113.068617 262.593674 
L 113.28145 262.35396 
L 113.919947 262.35396 
L 114.345612 261.87453 
L 114.771277 261.87453 
L 114.984109 261.634816 
L 115.409774 259.477384 
L 115.622607 256.121379 
L 116.048272 246.053365 
L 116.899601 235.266207 
L 117.112434 235.266207 
L 117.325266 234.786778 
L 117.538099 233.827919 
L 117.750931 233.588205 
L 118.389429 233.588205 
L 118.815094 233.108775 
L 119.453591 233.108775 
L 119.666423 232.869061 
L 119.879256 232.149917 
L 120.092088 230.951344 
L 120.517753 230.951344 
L 120.730586 230.711629 
L 120.943418 230.711629 
L 121.156251 230.471914 
L 121.369083 229.992485 
L 122.220413 229.992485 
L 122.433245 229.752771 
L 122.85891 229.752771 
L 123.071743 229.513056 
L 123.284575 229.513056 
L 123.497408 229.273341 
L 125.4129 229.273341 
L 125.625732 228.074768 
L 125.838565 228.074768 
L 126.051397 227.835054 
L 127.328392 227.835054 
L 127.541224 227.595339 
L 128.179722 227.595339 
L 128.392554 227.355624 
L 130.733711 227.355624 
L 130.946544 227.11591 
L 131.372209 227.11591 
L 131.585041 226.876195 
L 131.797874 226.876195 
L 132.010706 226.157051 
L 132.436371 220.643615 
L 132.649203 220.643615 
L 133.074868 219.924471 
L 133.287701 219.924471 
L 133.500533 219.684756 
L 133.713366 219.684756 
L 133.926198 219.205327 
L 134.139031 217.527325 
L 134.351863 217.28761 
L 136.69302 217.28761 
L 137.118685 216.808181 
L 137.970015 216.808181 
L 138.182847 216.568466 
L 138.39568 216.568466 
L 138.608512 216.328751 
L 139.034177 216.328751 
L 139.24701 216.089037 
L 139.672675 216.089037 
L 139.885507 215.849322 
L 144.354989 215.849322 
L 144.567821 215.130178 
L 144.780654 214.890464 
L 146.057648 214.890464 
L 146.270481 214.650749 
L 149.6758 214.650749 
L 149.888633 214.411034 
L 150.101465 214.411034 
L 150.314298 214.17132 
L 152.016957 214.17132 
L 152.22979 213.931605 
L 152.442622 212.253603 
L 152.655455 212.013888 
L 152.868287 211.534459 
L 153.08112 211.534459 
L 153.293952 211.294744 
L 153.506784 209.616742 
L 154.996612 209.616742 
L 155.209444 209.377027 
L 159.678926 209.377027 
L 159.891758 209.137313 
L 160.104591 209.137313 
L 160.530256 208.657883 
L 161.168753 208.657883 
L 161.381585 208.418169 
L 161.80725 207.699025 
L 163.297078 207.699025 
L 163.50991 207.45931 
L 164.148407 207.45931 
L 164.36124 207.219596 
L 164.574072 206.500452 
L 164.786905 206.260737 
L 165.425402 206.260737 
L 165.638235 206.021023 
L 165.851067 205.062164 
L 166.0639 205.062164 
L 166.276732 203.384162 
L 166.489564 203.384162 
L 166.702397 202.185589 
L 166.915229 201.945874 
L 167.128062 201.945874 
L 167.340894 201.706159 
L 167.766559 199.788442 
L 167.979392 199.548728 
L 168.192224 199.548728 
L 168.617889 198.589869 
L 174.577198 198.589869 
L 174.79003 198.350155 
L 180.749339 198.350155 
L 180.962172 198.11044 
L 181.175004 198.11044 
L 181.387837 197.870725 
L 187.347146 197.870725 
L 187.559978 197.631011 
L 187.77281 197.631011 
L 187.985643 197.391296 
L 188.198475 197.391296 
L 188.411308 196.192723 
L 188.62414 195.713294 
L 190.3268 195.713294 
L 190.539632 195.473579 
L 193.732119 195.473579 
L 194.157784 194.99415 
L 194.583449 194.275006 
L 197.988768 194.275006 
L 198.201601 194.035291 
L 199.265763 194.035291 
L 199.478596 193.795577 
L 202.883915 193.795577 
L 203.30958 193.076433 
L 203.522412 193.076433 
L 203.735245 192.836718 
L 205.650737 192.836718 
L 205.863569 192.597004 
L 206.076402 192.597004 
L 206.289234 192.117574 
L 207.140564 192.117574 
L 207.353397 191.87786 
L 207.566229 191.87786 
L 207.991894 191.39843 
L 209.056056 191.39843 
L 209.268889 190.439572 
L 209.481721 190.199857 
L 209.694554 190.199857 
L 210.120219 189.480713 
L 210.971549 189.480713 
L 211.184381 189.240999 
L 226.72115 189.240999 
L 226.933983 189.001284 
L 233.106124 189.001284 
L 233.318957 188.76157 
L 239.065433 188.76157 
L 239.278266 188.521855 
L 244.386245 188.521855 
L 244.599077 188.28214 
L 247.365899 188.28214 
L 247.578732 188.042426 
L 250.132721 188.042426 
L 250.345553 187.802711 
L 250.558386 187.323282 
L 251.409716 187.323282 
L 251.622548 187.083567 
L 251.835381 187.083567 
L 252.048213 186.124709 
L 252.261046 186.124709 
L 252.686711 185.405565 
L 252.899543 185.16585 
L 253.53804 183.727562 
L 253.750873 183.727562 
L 253.963705 183.487848 
L 254.38937 183.487848 
L 254.602203 183.248133 
L 255.027868 182.289275 
L 259.071684 182.289275 
L 259.284517 182.04956 
L 259.923014 182.04956 
L 260.135847 181.570131 
L 261.412841 181.570131 
L 261.625674 181.330416 
L 262.264171 181.330416 
L 262.689836 180.850987 
L 262.902669 180.850987 
L 263.115501 180.611272 
L 268.436313 180.611272 
L 268.649145 180.371558 
L 276.098281 180.371558 
L 276.311114 180.131843 
L 276.949611 180.131843 
L 277.162443 179.892128 
L 278.865103 179.892128 
L 279.077936 179.652414 
L 280.35493 179.652414 
L 280.567763 179.412699 
L 280.993428 179.412699 
L 281.20626 179.172985 
L 290.996553 179.172985 
L 291.209386 178.93327 
L 291.635051 178.93327 
L 291.847883 178.693555 
L 292.912045 178.693555 
L 293.124878 178.453841 
L 293.33771 177.974411 
L 294.18904 177.974411 
L 294.401873 177.734697 
L 294.614705 177.734697 
L 294.827538 177.494982 
L 295.253202 177.494982 
L 295.678867 176.775838 
L 299.722684 176.775838 
L 299.935517 176.536124 
L 300.999679 176.536124 
L 301.212511 176.296409 
L 304.830663 176.296409 
L 305.043496 176.056694 
L 311.641302 176.056694 
L 311.854134 175.81698 
L 332.498883 175.81698 
L 332.711715 175.577265 
L 358.677275 175.577265 
L 359.10294 175.097836 
L 361.231265 175.097836 
L 361.444097 174.858121 
L 361.65693 174.858121 
L 361.869762 174.618407 
L 372.08572 174.618407 
L 372.298553 173.899263 
L 372.724218 173.419834 
L 373.362715 173.419834 
L 373.575547 173.180119 
L 375.916705 173.180119 
L 375.916705 173.180119 
" clip-path="url(#p0999a2594b)" style="fill: none; stroke: #b9db57; stroke-width: 1.2; stroke-linecap: round"/>
   </g>
   <g id="line2d_39">
    <path d="M 69.650795 490.322568 
L 70.07646 466.351106 
L 70.502125 466.351106 
L 70.714958 445.735648 
L 70.92779 445.495933 
L 71.140623 445.495933 
L 71.353455 445.016504 
L 71.566288 443.578216 
L 71.77912 443.098787 
L 71.991953 420.565612 
L 72.204785 420.565612 
L 72.417617 417.209608 
L 72.63045 417.209608 
L 73.056115 410.257883 
L 74.120277 410.257883 
L 74.33311 396.59415 
L 74.545942 395.635291 
L 74.758774 395.635291 
L 74.971607 392.279287 
L 75.184439 392.279287 
L 75.397272 376.937551 
L 75.610104 373.102117 
L 76.035769 373.102117 
L 76.248602 366.390107 
L 76.887099 358.479524 
L 77.099932 358.479524 
L 77.312764 356.082378 
L 77.525596 356.082378 
L 77.738429 351.5278 
L 78.164094 351.5278 
L 78.376926 344.096647 
L 78.589759 344.096647 
L 78.802591 341.220071 
L 79.015424 341.220071 
L 79.228256 337.624352 
L 79.653921 337.624352 
L 79.866754 335.46692 
L 80.292418 335.46692 
L 80.505251 335.227206 
L 80.718083 327.316623 
L 80.930916 325.638621 
L 81.143748 322.522331 
L 81.569413 322.522331 
L 81.782246 317.967753 
L 81.995078 317.488323 
L 82.420743 317.488323 
L 82.633575 314.132319 
L 82.846408 314.132319 
L 83.05924 310.776314 
L 83.484905 310.776314 
L 83.697738 308.379168 
L 83.91057 308.379168 
L 84.336235 304.783448 
L 84.549068 304.783448 
L 84.7619 303.345161 
L 84.974733 303.345161 
L 85.187565 300.7083 
L 85.400397 300.7083 
L 85.61323 299.749441 
L 85.826062 299.749441 
L 86.038895 298.790583 
L 86.251727 298.790583 
L 86.46456 296.872866 
L 86.890225 296.872866 
L 87.103057 295.674293 
L 87.31589 295.674293 
L 87.528722 294.236005 
L 87.741555 294.236005 
L 87.954387 293.037432 
L 88.167219 293.037432 
L 88.592884 289.681427 
L 88.805717 289.681427 
L 89.018549 288.482854 
L 89.231382 288.482854 
L 89.657047 287.76371 
L 90.082712 287.76371 
L 90.295544 286.565137 
L 90.721209 285.845993 
L 91.146874 285.845993 
L 91.572539 284.407705 
L 91.785371 284.407705 
L 91.998204 284.16799 
L 93.700863 284.16799 
L 93.913696 280.572271 
L 94.339361 280.572271 
L 94.552193 278.894269 
L 94.765026 278.894269 
L 94.977858 277.93541 
L 95.190691 277.93541 
L 95.829188 275.538264 
L 96.04202 275.058835 
L 96.254853 275.058835 
L 96.680518 270.743971 
L 97.106183 270.743971 
L 97.319015 267.387967 
L 97.531848 267.387967 
L 97.74468 266.189394 
L 97.957513 263.552533 
L 98.170345 263.552533 
L 98.383177 259.956813 
L 98.59601 259.956813 
L 98.808842 259.477384 
L 99.234507 259.477384 
L 99.44734 258.278811 
L 99.660172 258.039096 
L 99.873005 258.039096 
L 100.085837 256.840523 
L 100.29867 256.840523 
L 100.511502 255.162521 
L 100.724335 255.162521 
L 101.149999 252.046231 
L 101.362832 252.046231 
L 101.788497 250.368228 
L 102.214162 250.368228 
L 102.852659 247.491653 
L 103.065492 247.491653 
L 103.278324 246.772509 
L 103.703989 246.29308 
L 104.342486 246.29308 
L 104.555319 244.135648 
L 104.980984 244.135648 
L 105.193816 243.416504 
L 105.619481 243.416504 
L 105.832314 243.17679 
L 106.470811 243.17679 
L 106.683643 242.69736 
L 106.896476 242.69736 
L 107.109308 242.217931 
L 107.534973 242.217931 
L 107.747806 241.259073 
L 107.960638 241.019358 
L 108.173471 240.539929 
L 108.386303 240.539929 
L 108.811968 239.101641 
L 109.237633 239.101641 
L 109.450465 238.861926 
L 110.514628 238.861926 
L 110.72746 237.663353 
L 111.365957 237.663353 
L 111.57879 237.423639 
L 112.004455 237.423639 
L 112.217287 236.704495 
L 113.068617 236.704495 
L 113.494282 236.225065 
L 113.919947 236.225065 
L 114.132779 235.745636 
L 114.984109 235.745636 
L 115.196942 235.505922 
L 115.409774 235.505922 
L 115.622607 230.2322 
L 116.261104 230.2322 
L 116.473937 218.246468 
L 116.686769 218.246468 
L 116.899601 213.452176 
L 117.750931 213.452176 
L 117.963764 212.013888 
L 118.176596 212.013888 
L 118.389429 211.774174 
L 119.027926 211.774174 
L 119.240758 211.294744 
L 119.879256 211.294744 
L 120.092088 209.616742 
L 120.517753 209.616742 
L 120.730586 209.377027 
L 120.943418 209.377027 
L 121.156251 208.657883 
L 121.369083 208.657883 
L 121.581916 207.93874 
L 123.71024 207.93874 
L 123.923073 206.500452 
L 124.56157 206.500452 
L 124.774402 206.021023 
L 124.987235 206.021023 
L 125.200067 205.781308 
L 126.689895 205.781308 
L 126.902727 204.103306 
L 127.115559 204.103306 
L 127.328392 203.863591 
L 127.754057 203.863591 
L 127.966889 203.623876 
L 128.179722 203.623876 
L 128.392554 203.144447 
L 130.733711 203.144447 
L 130.946544 202.904732 
L 132.223539 202.904732 
L 132.436371 197.151581 
L 132.862036 197.151581 
L 133.074868 196.192723 
L 133.287701 196.192723 
L 133.500533 195.953008 
L 133.926198 195.953008 
L 134.139031 193.316147 
L 136.69302 193.316147 
L 136.905853 193.076433 
L 137.331518 193.076433 
L 137.54435 192.836718 
L 137.970015 192.836718 
L 138.39568 192.357289 
L 139.672675 192.357289 
L 139.885507 192.117574 
L 144.354989 192.117574 
L 144.567821 189.480713 
L 144.780654 189.480713 
L 144.993486 188.042426 
L 145.844816 188.042426 
L 146.057648 187.802711 
L 146.908978 187.802711 
L 147.121811 187.562996 
L 147.760308 187.562996 
L 147.973141 187.323282 
L 150.101465 187.323282 
L 150.314298 187.083567 
L 153.719617 187.083567 
L 153.932449 182.528989 
L 158.614763 182.528989 
L 158.827596 182.04956 
L 159.678926 182.04956 
L 159.891758 181.570131 
L 160.317423 181.570131 
L 160.530256 180.850987 
L 160.743088 180.611272 
L 161.381585 180.611272 
L 161.594418 180.131843 
L 162.65858 180.131843 
L 163.084245 179.412699 
L 163.50991 178.93327 
L 163.722743 178.453841 
L 163.935575 178.453841 
L 164.148407 177.974411 
L 164.786905 177.974411 
L 164.999737 177.734697 
L 165.21257 177.015553 
L 165.638235 177.015553 
L 165.851067 176.056694 
L 166.915229 176.056694 
L 167.128062 173.180119 
L 167.340894 173.180119 
L 167.553727 172.460975 
L 167.766559 172.460975 
L 167.979392 171.502117 
L 168.617889 171.502117 
L 168.830722 170.543258 
L 170.746214 170.543258 
L 170.959046 170.063829 
L 171.171879 170.063829 
L 171.384711 169.5844 
L 173.087371 169.5844 
L 173.300203 169.344685 
L 173.725868 169.344685 
L 173.938701 169.10497 
L 175.215695 169.10497 
L 175.428528 168.865256 
L 176.279858 168.865256 
L 176.49269 168.146112 
L 176.705523 168.146112 
L 176.918355 167.906397 
L 178.19535 167.906397 
L 178.408182 167.666683 
L 181.387837 167.666683 
L 181.600669 167.426968 
L 184.580324 167.426968 
L 184.793156 167.187253 
L 185.857318 167.187253 
L 186.070151 166.947539 
L 187.559978 166.947539 
L 187.77281 166.468109 
L 187.985643 166.468109 
L 188.198475 165.98868 
L 188.411308 165.98868 
L 188.836973 164.790107 
L 189.049805 164.790107 
L 189.262638 164.550392 
L 190.3268 164.550392 
L 190.539632 164.310678 
L 193.944952 164.310678 
L 194.157784 163.831249 
L 194.370617 163.831249 
L 194.583449 162.87239 
L 198.627266 162.87239 
L 198.840098 162.632675 
L 199.265763 162.632675 
L 199.478596 162.392961 
L 202.883915 162.392961 
L 203.096748 161.913532 
L 203.735245 161.913532 
L 203.948077 161.434102 
L 206.076402 161.434102 
L 206.289234 160.714958 
L 207.140564 160.714958 
L 207.353397 160.475244 
L 207.566229 160.475244 
L 207.779062 160.235529 
L 207.991894 160.235529 
L 208.204727 159.995815 
L 209.268889 159.995815 
L 209.481721 158.797241 
L 211.610046 158.797241 
L 211.822878 158.557527 
L 213.099873 158.557527 
L 213.312706 157.838383 
L 233.318957 157.838383 
L 233.531789 157.598668 
L 234.383119 157.598668 
L 234.595951 157.358954 
L 238.426936 157.358954 
L 238.639768 157.119239 
L 240.980925 157.119239 
L 241.193758 156.879524 
L 243.747747 156.879524 
L 243.96058 156.63981 
L 244.81191 156.63981 
L 245.024742 156.400095 
L 251.409716 156.400095 
L 251.622548 155.680951 
L 252.261046 155.680951 
L 252.473878 153.52352 
L 252.686711 153.52352 
L 252.899543 153.04409 
L 253.112375 153.04409 
L 253.325208 152.085232 
L 253.53804 152.085232 
L 253.750873 151.845517 
L 253.963705 151.845517 
L 254.176538 151.126373 
L 254.815035 151.126373 
L 255.2407 150.407229 
L 258.433187 150.407229 
L 258.646019 150.167515 
L 261.412841 150.167515 
L 261.625674 148.968942 
L 265.030993 148.968942 
L 265.243826 147.530654 
L 269.500475 147.530654 
L 269.713307 147.290939 
L 282.05759 147.290939 
L 282.270422 146.332081 
L 284.824412 146.332081 
L 285.037244 145.852652 
L 289.506726 145.852652 
L 289.719558 145.612937 
L 292.273548 145.612937 
L 292.48638 144.654078 
L 297.381527 144.654078 
L 297.594359 143.215791 
L 302.915171 143.215791 
L 303.128003 142.976076 
L 305.681993 142.976076 
L 305.894825 142.736361 
L 307.810318 142.736361 
L 308.02315 142.496647 
L 327.178071 142.496647 
L 327.390904 142.256932 
L 329.306396 142.256932 
L 329.519228 142.017218 
L 342.927673 142.017218 
L 343.140506 141.777503 
L 358.890108 141.777503 
L 359.10294 141.537788 
L 365.275082 141.537788 
L 365.487914 140.818644 
L 368.893233 140.818644 
L 369.106066 140.57893 
L 369.744563 140.57893 
L 369.957396 140.339215 
L 372.511385 140.339215 
L 372.724218 139.140642 
L 372.93705 139.140642 
L 373.149883 138.900927 
L 373.575547 138.900927 
L 373.78838 138.661213 
L 375.49104 138.661213 
L 375.703872 138.421498 
L 375.916705 138.421498 
L 375.916705 138.421498 
" clip-path="url(#p0999a2594b)" style="fill: none; stroke: #57db94; stroke-width: 1.2; stroke-linecap: round"/>
   </g>
   <g id="line2d_40">
    <path d="M 69.650795 482.052414 
L 69.863628 462.515672 
L 70.07646 457.961094 
L 70.289293 456.283092 
L 70.714958 431.352771 
L 70.92779 428.71591 
L 71.140623 424.161332 
L 71.353455 423.202473 
L 71.566288 415.531605 
L 72.417617 407.381308 
L 72.63045 406.182735 
L 73.056115 399.470725 
L 73.268947 397.792723 
L 73.48178 392.758716 
L 73.694612 391.080713 
L 73.907445 386.526136 
L 74.33311 382.930416 
L 74.545942 382.211272 
L 74.758774 380.53327 
L 75.610104 356.801522 
L 75.822937 355.12352 
L 76.887099 341.699501 
L 77.312764 336.905208 
L 77.951261 329.474055 
L 78.164094 328.275482 
L 78.589759 322.762045 
L 78.802591 322.042901 
L 79.228256 318.207467 
L 79.441089 317.967753 
L 79.653921 317.488323 
L 80.079586 312.694031 
L 80.292418 311.495458 
L 80.718083 305.262878 
L 81.143748 301.667158 
L 81.356581 298.071439 
L 81.782246 297.352295 
L 82.846408 289.201998 
L 83.05924 288.962283 
L 83.272073 288.482854 
L 83.484905 286.325422 
L 83.697738 285.606278 
L 84.123403 282.969417 
L 84.336235 282.729703 
L 84.7619 282.010559 
L 85.187565 278.414839 
L 85.61323 276.736837 
L 85.826062 276.736837 
L 86.251727 274.339691 
L 86.46456 274.099976 
L 86.677392 273.380832 
L 86.890225 273.380832 
L 87.103057 272.901403 
L 87.31589 271.942545 
L 87.528722 271.70283 
L 87.954387 270.024828 
L 88.167219 269.785113 
L 88.592884 266.189394 
L 88.805717 265.47025 
L 89.231382 264.99082 
L 89.444214 264.99082 
L 89.657047 264.751106 
L 90.082712 263.552533 
L 91.146874 261.395101 
L 91.359706 261.155386 
L 91.572539 260.675957 
L 92.211036 260.675957 
L 92.423869 259.477384 
L 93.062366 258.75824 
L 93.488031 256.600809 
L 93.913696 256.600809 
L 94.339361 255.162521 
L 94.552193 254.683092 
L 94.765026 253.724233 
L 94.977858 253.484518 
L 95.616356 251.087372 
L 96.04202 250.607943 
L 96.467685 246.053365 
L 96.680518 245.573936 
L 96.89335 243.416504 
L 97.106183 242.457646 
L 97.319015 240.300214 
L 97.74468 239.101641 
L 97.957513 237.663353 
L 98.170345 233.827919 
L 98.383177 232.629346 
L 98.59601 232.389631 
L 98.808842 231.430773 
L 99.021675 231.430773 
L 99.234507 230.471914 
L 99.44734 230.471914 
L 99.660172 230.2322 
L 99.873005 229.752771 
L 100.29867 227.595339 
L 101.575664 222.321617 
L 102.001329 221.842188 
L 102.214162 221.123044 
L 102.426994 220.883329 
L 103.065492 218.725898 
L 103.278324 218.725898 
L 103.703989 217.767039 
L 103.916821 217.767039 
L 104.342486 216.328751 
L 104.768151 216.328751 
L 104.980984 215.369893 
L 105.193816 215.130178 
L 105.406649 215.130178 
L 105.832314 214.650749 
L 106.045146 214.650749 
L 106.470811 214.17132 
L 106.683643 214.17132 
L 107.322141 213.452176 
L 107.747806 212.013888 
L 107.960638 212.013888 
L 108.386303 211.05503 
L 108.811968 209.616742 
L 109.237633 209.137313 
L 109.663298 208.418169 
L 109.87613 208.178454 
L 110.514628 208.178454 
L 110.72746 207.45931 
L 110.940293 207.219596 
L 111.791622 207.219596 
L 112.217287 206.260737 
L 112.642952 206.260737 
L 112.855785 206.021023 
L 113.28145 206.021023 
L 113.494282 205.541593 
L 115.196942 205.541593 
L 115.409774 203.384162 
L 116.048272 189.720428 
L 116.473937 185.645279 
L 116.686769 181.809845 
L 116.899601 180.131843 
L 117.112434 179.652414 
L 117.325266 179.652414 
L 117.538099 179.172985 
L 117.750931 177.974411 
L 120.092088 177.974411 
L 120.304921 177.734697 
L 120.730586 177.734697 
L 120.943418 177.494982 
L 121.156251 173.659548 
L 122.220413 173.659548 
L 122.433245 173.419834 
L 122.646078 173.419834 
L 122.85891 172.70069 
L 123.071743 172.460975 
L 123.497408 172.460975 
L 123.923073 171.981546 
L 124.56157 171.981546 
L 124.987235 171.262402 
L 125.200067 171.022687 
L 125.4129 171.022687 
L 125.838565 169.5844 
L 126.051397 169.10497 
L 127.115559 169.10497 
L 127.541224 168.625541 
L 127.966889 168.625541 
L 128.392554 168.146112 
L 131.159376 168.146112 
L 131.585041 167.426968 
L 132.010706 167.426968 
L 132.223539 162.153246 
L 132.436371 161.434102 
L 132.649203 161.194388 
L 132.862036 160.714958 
L 133.500533 160.714958 
L 133.713366 160.475244 
L 133.926198 158.317812 
L 134.139031 157.838383 
L 136.69302 157.838383 
L 137.118685 157.358954 
L 137.970015 157.358954 
L 138.182847 157.119239 
L 138.39568 157.119239 
L 138.608512 156.879524 
L 138.821345 156.879524 
L 139.034177 156.63981 
L 142.439497 156.63981 
L 143.503659 154.242663 
L 143.716491 154.242663 
L 144.142156 153.52352 
L 144.567821 153.04409 
L 144.780654 153.04409 
L 144.993486 152.085232 
L 146.057648 152.085232 
L 146.270481 151.845517 
L 146.696146 151.845517 
L 146.908978 151.605803 
L 147.760308 151.605803 
L 147.973141 151.366088 
L 150.314298 151.366088 
L 150.52713 151.126373 
L 152.016957 151.126373 
L 152.442622 148.968942 
L 152.655455 148.249798 
L 152.868287 148.249798 
L 153.08112 148.010083 
L 153.506784 145.612937 
L 158.189099 145.612937 
L 158.401931 145.133508 
L 159.253261 145.133508 
L 159.466093 144.893793 
L 159.678926 144.893793 
L 160.104591 144.414364 
L 160.530256 143.69522 
L 161.168753 143.69522 
L 161.80725 142.976076 
L 162.020083 142.496647 
L 163.297078 142.496647 
L 164.148407 141.537788 
L 164.36124 141.537788 
L 164.574072 140.57893 
L 164.999737 140.099501 
L 165.425402 140.099501 
L 165.638235 139.859786 
L 165.851067 138.900927 
L 166.0639 138.661213 
L 166.702397 135.784637 
L 166.915229 135.544923 
L 167.128062 135.544923 
L 167.340894 135.065493 
L 167.766559 132.908062 
L 168.617889 132.908062 
L 168.830722 131.709489 
L 170.320549 131.709489 
L 170.746214 131.230059 
L 171.171879 131.230059 
L 171.384711 130.75063 
L 173.725868 130.75063 
L 173.938701 130.510916 
L 174.79003 130.510916 
L 175.002863 130.271201 
L 175.64136 130.271201 
L 175.854193 130.031486 
L 176.067025 130.031486 
L 176.279858 129.552057 
L 176.918355 129.552057 
L 177.131187 129.312342 
L 177.982517 129.312342 
L 178.19535 129.072628 
L 181.175004 129.072628 
L 181.387837 128.832913 
L 184.154659 128.832913 
L 184.367491 128.593199 
L 185.644486 128.593199 
L 185.857318 128.353484 
L 187.347146 128.353484 
L 187.77281 127.874055 
L 188.198475 127.154911 
L 188.411308 127.154911 
L 188.62414 126.435767 
L 188.836973 126.196052 
L 189.049805 126.196052 
L 189.262638 125.956338 
L 190.3268 125.956338 
L 190.539632 125.716623 
L 194.157784 125.716623 
L 194.370617 124.51805 
L 194.583449 124.278335 
L 197.775936 124.278335 
L 197.988768 124.038621 
L 199.265763 124.038621 
L 199.478596 123.798906 
L 202.671083 123.798906 
L 203.30958 123.079762 
L 203.522412 123.079762 
L 203.735245 122.840048 
L 205.225072 122.840048 
L 205.437905 122.600333 
L 206.289234 122.600333 
L 206.502067 121.881189 
L 207.353397 121.881189 
L 207.566229 121.40176 
L 207.779062 121.40176 
L 207.991894 121.162045 
L 209.056056 121.162045 
L 209.268889 119.963472 
L 209.694554 119.484043 
L 209.907386 119.004614 
L 210.971549 119.004614 
L 211.184381 118.764899 
L 233.318957 118.764899 
L 233.531789 118.525184 
L 233.957454 118.525184 
L 234.170287 118.28547 
L 235.872946 118.28547 
L 236.085779 118.045755 
L 241.40659 118.045755 
L 241.619423 117.80604 
L 244.386245 117.80604 
L 244.599077 117.566326 
L 246.301737 117.566326 
L 246.727402 116.847182 
L 250.132721 116.847182 
L 250.558386 116.367753 
L 250.771218 115.888323 
L 251.409716 115.888323 
L 251.622548 115.648609 
L 252.473878 113.491177 
L 252.686711 112.772033 
L 252.899543 112.772033 
L 253.112375 112.532319 
L 253.963705 112.532319 
L 254.176538 110.614602 
L 254.602203 110.614602 
L 254.815035 110.135172 
L 255.027868 110.135172 
L 255.2407 109.895458 
L 255.879197 109.895458 
L 256.09203 109.655743 
L 257.79469 109.655743 
L 258.007522 109.416029 
L 258.646019 109.416029 
L 258.858852 109.176314 
L 259.497349 109.176314 
L 259.710182 108.936599 
L 259.923014 108.936599 
L 260.135847 108.45717 
L 261.412841 108.45717 
L 261.838506 107.977741 
L 262.051339 107.498312 
L 262.264171 107.498312 
L 262.689836 107.018882 
L 263.115501 107.018882 
L 263.328334 106.779168 
L 280.993428 106.779168 
L 281.20626 105.34088 
L 282.483255 105.34088 
L 282.696087 105.101165 
L 283.121752 105.101165 
L 283.334585 104.861451 
L 286.101407 104.861451 
L 286.314239 104.621736 
L 291.209386 104.621736 
L 291.422218 104.382021 
L 292.273548 104.382021 
L 292.48638 103.902592 
L 292.912045 103.902592 
L 293.33771 103.423163 
L 294.18904 103.423163 
L 294.614705 102.943734 
L 295.04037 102.943734 
L 295.466035 102.464304 
L 295.678867 101.984875 
L 299.935517 101.984875 
L 300.148349 101.745161 
L 304.617831 101.745161 
L 304.830663 101.505446 
L 306.32049 101.505446 
L 306.533323 101.265731 
L 326.965239 101.265731 
L 327.178071 101.026017 
L 329.093563 101.026017 
L 329.306396 100.786302 
L 341.012181 100.786302 
L 341.225014 100.546587 
L 358.677275 100.546587 
L 358.890108 100.306873 
L 361.231265 100.306873 
L 361.869762 99.587729 
L 365.700746 99.587729 
L 365.913579 99.348014 
L 369.531731 99.348014 
L 369.744563 99.1083 
L 370.808726 99.1083 
L 371.021558 98.868585 
L 372.08572 98.868585 
L 372.511385 97.430297 
L 373.575547 97.430297 
L 374.001212 96.950868 
L 375.916705 96.950868 
L 375.916705 96.950868 
" clip-path="url(#p0999a2594b)" style="fill: none; stroke: #5784db; stroke-width: 1.2; stroke-linecap: round"/>
   </g>
   <g id="line2d_41">
    <path d="M 69.650795 478.21698 
L 69.863628 460.118526 
L 70.07646 454.605089 
L 70.289293 452.927087 
L 70.714958 428.476195 
L 71.991953 407.381308 
L 72.63045 403.066445 
L 73.48178 389.402711 
L 73.694612 387.724709 
L 73.907445 382.690702 
L 74.758774 377.41698 
L 75.184439 358.958954 
L 75.610104 353.685232 
L 75.822937 352.246944 
L 76.461434 343.377503 
L 76.674267 341.459786 
L 76.887099 337.864067 
L 77.312764 333.788918 
L 77.951261 326.357765 
L 79.015424 316.28975 
L 79.441089 314.132319 
L 79.653921 313.17346 
L 80.079586 309.098312 
L 81.356581 294.475719 
L 81.569413 293.99629 
L 83.484905 281.770844 
L 84.549068 277.216266 
L 84.7619 276.736837 
L 85.400397 273.141118 
L 85.61323 272.182259 
L 85.826062 272.182259 
L 86.677392 268.826254 
L 86.890225 268.58654 
L 87.31589 267.387967 
L 87.528722 266.908537 
L 87.954387 265.230535 
L 88.167219 264.99082 
L 88.592884 261.155386 
L 89.231382 260.436243 
L 89.444214 260.436243 
L 89.657047 260.196528 
L 90.295544 258.278811 
L 90.934041 257.559667 
L 91.572539 256.361094 
L 92.211036 256.361094 
L 92.423869 255.162521 
L 93.062366 254.443377 
L 93.488031 252.285945 
L 93.913696 252.285945 
L 94.339361 250.847658 
L 94.552193 250.368228 
L 94.765026 249.40937 
L 94.977858 249.169655 
L 95.616356 246.772509 
L 96.04202 246.053365 
L 97.106183 237.183924 
L 97.319015 235.985351 
L 97.531848 235.505922 
L 97.74468 234.547063 
L 98.170345 229.513056 
L 98.383177 228.074768 
L 98.59601 227.835054 
L 98.808842 226.876195 
L 99.021675 226.876195 
L 99.234507 225.917337 
L 99.44734 225.917337 
L 99.660172 225.677622 
L 99.873005 224.958478 
L 100.29867 222.321617 
L 100.724335 220.643615 
L 100.937167 219.205327 
L 101.362832 218.006754 
L 101.575664 217.047895 
L 101.788497 217.047895 
L 102.639827 215.130178 
L 102.852659 213.931605 
L 103.065492 213.452176 
L 103.278324 213.452176 
L 104.555319 210.5756 
L 104.768151 210.5756 
L 105.193816 210.096171 
L 105.406649 210.096171 
L 105.832314 209.616742 
L 106.045146 209.616742 
L 106.470811 209.137313 
L 106.683643 209.137313 
L 107.322141 208.418169 
L 107.747806 206.979881 
L 107.960638 206.979881 
L 108.386303 206.021023 
L 108.811968 204.582735 
L 109.0248 204.34302 
L 109.450465 203.384162 
L 109.663298 203.384162 
L 109.87613 203.144447 
L 110.514628 203.144447 
L 110.72746 202.425303 
L 110.940293 202.185589 
L 111.791622 202.185589 
L 112.217287 201.22673 
L 112.642952 201.22673 
L 112.855785 200.987015 
L 113.068617 200.987015 
L 113.494282 200.507586 
L 113.919947 200.507586 
L 114.132779 200.267872 
L 114.771277 200.267872 
L 114.984109 200.028157 
L 115.409774 197.870725 
L 116.261104 180.371558 
L 116.473937 178.93327 
L 116.899601 173.180119 
L 117.112434 173.180119 
L 117.750931 171.022687 
L 118.176596 171.022687 
L 118.815094 170.303543 
L 119.453591 170.303543 
L 119.666423 170.063829 
L 119.879256 169.344685 
L 120.092088 168.146112 
L 120.730586 168.146112 
L 120.943418 167.666683 
L 121.156251 166.707824 
L 122.220413 166.707824 
L 122.433245 166.468109 
L 122.646078 166.468109 
L 122.85891 165.748966 
L 123.071743 165.509251 
L 123.497408 165.509251 
L 123.923073 165.029822 
L 124.56157 165.029822 
L 124.987235 164.310678 
L 125.200067 164.070963 
L 125.4129 164.070963 
L 125.625732 162.632675 
L 125.838565 162.632675 
L 126.051397 162.153246 
L 127.115559 162.153246 
L 127.328392 161.673817 
L 127.966889 161.673817 
L 128.392554 161.194388 
L 130.733711 161.194388 
L 130.946544 160.954673 
L 131.159376 160.954673 
L 131.585041 160.475244 
L 131.797874 160.475244 
L 132.010706 159.7561 
L 132.223539 154.961807 
L 132.436371 154.242663 
L 132.649203 154.002949 
L 132.862036 153.52352 
L 133.287701 153.52352 
L 133.500533 153.283805 
L 133.713366 153.283805 
L 133.926198 151.126373 
L 134.139031 150.646944 
L 136.69302 150.646944 
L 137.118685 150.167515 
L 137.970015 150.167515 
L 138.39568 149.688086 
L 138.821345 149.688086 
L 139.034177 149.448371 
L 142.439497 149.448371 
L 143.503659 147.051225 
L 143.716491 147.051225 
L 144.142156 146.332081 
L 144.354989 146.092366 
L 144.567821 145.373222 
L 144.780654 145.373222 
L 144.993486 144.893793 
L 145.844816 144.893793 
L 146.057648 144.654078 
L 146.696146 144.654078 
L 146.908978 144.414364 
L 147.760308 144.414364 
L 147.973141 144.174649 
L 149.6758 144.174649 
L 149.888633 143.934935 
L 150.101465 143.934935 
L 150.314298 143.69522 
L 152.016957 143.69522 
L 152.442622 141.537788 
L 152.655455 140.818644 
L 152.868287 140.818644 
L 153.08112 140.57893 
L 153.506784 138.181784 
L 158.189099 138.181784 
L 158.401931 137.702354 
L 159.253261 137.702354 
L 159.466093 137.46264 
L 159.678926 137.46264 
L 160.104591 136.98321 
L 160.530256 136.264067 
L 161.168753 136.264067 
L 161.80725 135.544923 
L 162.020083 135.065493 
L 163.297078 135.065493 
L 164.36124 133.86692 
L 164.574072 133.147776 
L 164.999737 132.668347 
L 165.425402 132.668347 
L 165.638235 132.428633 
L 165.851067 131.469774 
L 166.0639 131.230059 
L 166.489564 128.353484 
L 166.915229 127.874055 
L 167.128062 127.874055 
L 167.340894 127.63434 
L 167.553727 125.956338 
L 167.766559 125.237194 
L 168.192224 125.237194 
L 168.617889 124.278335 
L 170.320549 124.278335 
L 170.746214 123.798906 
L 171.171879 123.798906 
L 171.384711 123.319477 
L 173.087371 123.319477 
L 173.300203 123.079762 
L 173.725868 123.079762 
L 173.938701 122.840048 
L 174.577198 122.840048 
L 174.79003 122.600333 
L 175.64136 122.600333 
L 175.854193 122.360618 
L 176.067025 122.360618 
L 176.279858 121.881189 
L 176.705523 121.881189 
L 176.918355 121.641474 
L 177.982517 121.641474 
L 178.19535 121.40176 
L 181.175004 121.40176 
L 181.387837 121.162045 
L 184.154659 121.162045 
L 184.367491 120.922331 
L 185.644486 120.922331 
L 185.857318 120.682616 
L 187.347146 120.682616 
L 187.77281 120.203187 
L 188.62414 118.28547 
L 190.3268 118.28547 
L 190.539632 118.045755 
L 193.732119 118.045755 
L 194.157784 117.566326 
L 194.370617 116.847182 
L 194.583449 116.607467 
L 197.775936 116.607467 
L 197.988768 116.367753 
L 199.265763 116.367753 
L 199.478596 116.128038 
L 202.671083 116.128038 
L 203.30958 115.408894 
L 203.522412 115.408894 
L 203.735245 115.16918 
L 205.225072 115.16918 
L 205.437905 114.929465 
L 205.650737 114.929465 
L 205.863569 114.68975 
L 206.076402 114.68975 
L 206.289234 114.210321 
L 207.140564 114.210321 
L 207.566229 113.730892 
L 207.779062 113.730892 
L 207.991894 113.491177 
L 209.056056 113.491177 
L 209.268889 112.292604 
L 209.694554 111.813175 
L 209.907386 111.333746 
L 210.971549 111.333746 
L 211.184381 111.094031 
L 233.106124 111.094031 
L 233.318957 110.854316 
L 233.957454 110.854316 
L 234.170287 110.614602 
L 235.872946 110.614602 
L 236.085779 110.374887 
L 241.40659 110.374887 
L 241.619423 110.135172 
L 244.386245 110.135172 
L 244.599077 109.895458 
L 246.301737 109.895458 
L 246.727402 109.176314 
L 249.919889 109.176314 
L 250.132721 108.936599 
L 250.345553 108.936599 
L 250.771218 108.217455 
L 251.409716 108.217455 
L 251.835381 107.258597 
L 252.048213 106.060024 
L 252.261046 106.060024 
L 252.686711 104.861451 
L 252.899543 104.861451 
L 253.53804 103.662878 
L 253.750873 103.662878 
L 253.963705 103.423163 
L 254.176538 102.943734 
L 254.602203 102.943734 
L 254.815035 102.464304 
L 255.027868 102.464304 
L 255.2407 102.22459 
L 255.879197 102.22459 
L 256.09203 101.984875 
L 257.79469 101.984875 
L 258.007522 101.745161 
L 258.646019 101.745161 
L 258.858852 101.505446 
L 259.071684 101.505446 
L 259.284517 101.265731 
L 259.923014 101.265731 
L 260.135847 100.786302 
L 261.412841 100.786302 
L 261.838506 100.306873 
L 262.051339 99.827444 
L 262.264171 99.827444 
L 262.689836 99.348014 
L 262.902669 99.348014 
L 263.115501 99.1083 
L 268.436313 99.1083 
L 268.649145 98.868585 
L 280.993428 98.868585 
L 281.20626 97.670012 
L 282.483255 97.670012 
L 282.696087 97.430297 
L 283.121752 97.430297 
L 283.334585 97.190583 
L 286.101407 97.190583 
L 286.314239 96.950868 
L 290.996553 96.950868 
L 291.209386 96.711153 
L 291.635051 96.711153 
L 291.847883 96.471439 
L 292.273548 96.471439 
L 292.48638 95.99201 
L 292.912045 95.99201 
L 293.33771 95.51258 
L 294.18904 95.51258 
L 294.614705 95.033151 
L 295.04037 95.033151 
L 295.466035 94.553722 
L 295.678867 94.074293 
L 299.722684 94.074293 
L 299.935517 93.834578 
L 304.617831 93.834578 
L 304.830663 93.594863 
L 306.32049 93.594863 
L 306.533323 93.355149 
L 327.178071 93.355149 
L 327.390904 93.115434 
L 329.093563 93.115434 
L 329.306396 92.875719 
L 341.012181 92.875719 
L 341.225014 92.636005 
L 358.677275 92.636005 
L 358.890108 92.39629 
L 361.231265 92.39629 
L 361.869762 91.677146 
L 365.700746 91.677146 
L 365.913579 91.437432 
L 369.531731 91.437432 
L 369.744563 91.197717 
L 372.08572 91.197717 
L 372.511385 89.759429 
L 373.362715 89.759429 
L 373.575547 89.519715 
L 373.78838 89.519715 
L 374.001212 89.28 
L 375.916705 89.28 
L 375.916705 89.28 
" clip-path="url(#p0999a2594b)" style="fill: none; stroke: #c957db; stroke-width: 1.2; stroke-linecap: round"/>
   </g>
   <g id="line2d_42"/>
   <g id="line2d_43"/>
   <g id="line2d_44"/>
   <g id="line2d_45"/>
   <g id="line2d_46"/>
   <g id="patch_3">
    <path d="M 54.3375 512.64 
L 54.3375 69.12 
" style="fill: none; stroke: #cccccc; stroke-linejoin: miter; stroke-linecap: square"/>
   </g>
   <g id="patch_4">
    <path d="M 54.3375 512.64 
L 391.23 512.64 
" style="fill: none; stroke: #cccccc; stroke-linejoin: miter; stroke-linecap: square"/>
   </g>
   <g id="text_39">
    <!-- Edge Coverage History -->
    <g style="fill: #262626" transform="translate(115.892262 63.12)scale(0.165888 -0.165888)">
     <defs>
      <path id="DejaVuSans-Bold-45" d="M 588 4666 
L 3834 4666 
L 3834 3756 
L 1791 3756 
L 1791 2888 
L 3713 2888 
L 3713 1978 
L 1791 1978 
L 1791 909 
L 3903 909 
L 3903 0 
L 588 0 
L 588 4666 
z
" transform="scale(0.015625)"/>
      <path id="DejaVuSans-Bold-64" d="M 2919 2988 
L 2919 4863 
L 4044 4863 
L 4044 0 
L 2919 0 
L 2919 506 
Q 2688 197 2409 53 
Q 2131 -91 1766 -91 
Q 1119 -91 703 423 
Q 288 938 288 1747 
Q 288 2556 703 3070 
Q 1119 3584 1766 3584 
Q 2128 3584 2408 3439 
Q 2688 3294 2919 2988 
z
M 2181 722 
Q 2541 722 2730 984 
Q 2919 1247 2919 1747 
Q 2919 2247 2730 2509 
Q 2541 2772 2181 2772 
Q 1825 2772 1636 2509 
Q 1447 2247 1447 1747 
Q 1447 1247 1636 984 
Q 1825 722 2181 722 
z
" transform="scale(0.015625)"/>
      <path id="DejaVuSans-Bold-67" d="M 2919 594 
Q 2688 288 2409 144 
Q 2131 0 1766 0 
Q 1125 0 706 504 
Q 288 1009 288 1791 
Q 288 2575 706 3076 
Q 1125 3578 1766 3578 
Q 2131 3578 2409 3434 
Q 2688 3291 2919 2981 
L 2919 3500 
L 4044 3500 
L 4044 353 
Q 4044 -491 3511 -936 
Q 2978 -1381 1966 -1381 
Q 1638 -1381 1331 -1331 
Q 1025 -1281 716 -1178 
L 716 -306 
Q 1009 -475 1290 -558 
Q 1572 -641 1856 -641 
Q 2406 -641 2662 -400 
Q 2919 -159 2919 353 
L 2919 594 
z
M 2181 2772 
Q 1834 2772 1640 2515 
Q 1447 2259 1447 1791 
Q 1447 1309 1634 1061 
Q 1822 813 2181 813 
Q 2531 813 2725 1069 
Q 2919 1325 2919 1791 
Q 2919 2259 2725 2515 
Q 2531 2772 2181 2772 
z
" transform="scale(0.015625)"/>
      <path id="DejaVuSans-Bold-65" d="M 4031 1759 
L 4031 1441 
L 1416 1441 
Q 1456 1047 1700 850 
Q 1944 653 2381 653 
Q 2734 653 3104 758 
Q 3475 863 3866 1075 
L 3866 213 
Q 3469 63 3072 -14 
Q 2675 -91 2278 -91 
Q 1328 -91 801 392 
Q 275 875 275 1747 
Q 275 2603 792 3093 
Q 1309 3584 2216 3584 
Q 3041 3584 3536 3087 
Q 4031 2591 4031 1759 
z
M 2881 2131 
Q 2881 2450 2695 2645 
Q 2509 2841 2209 2841 
Q 1884 2841 1681 2658 
Q 1478 2475 1428 2131 
L 2881 2131 
z
" transform="scale(0.015625)"/>
      <path id="DejaVuSans-Bold-20" transform="scale(0.015625)"/>
      <path id="DejaVuSans-Bold-43" d="M 4288 256 
Q 3956 84 3597 -3 
Q 3238 -91 2847 -91 
Q 1681 -91 1000 561 
Q 319 1213 319 2328 
Q 319 3447 1000 4098 
Q 1681 4750 2847 4750 
Q 3238 4750 3597 4662 
Q 3956 4575 4288 4403 
L 4288 3438 
Q 3953 3666 3628 3772 
Q 3303 3878 2944 3878 
Q 2300 3878 1931 3465 
Q 1563 3053 1563 2328 
Q 1563 1606 1931 1193 
Q 2300 781 2944 781 
Q 3303 781 3628 887 
Q 3953 994 4288 1222 
L 4288 256 
z
" transform="scale(0.015625)"/>
      <path id="DejaVuSans-Bold-6f" d="M 2203 2784 
Q 1831 2784 1636 2517 
Q 1441 2250 1441 1747 
Q 1441 1244 1636 976 
Q 1831 709 2203 709 
Q 2569 709 2762 976 
Q 2956 1244 2956 1747 
Q 2956 2250 2762 2517 
Q 2569 2784 2203 2784 
z
M 2203 3584 
Q 3106 3584 3614 3096 
Q 4122 2609 4122 1747 
Q 4122 884 3614 396 
Q 3106 -91 2203 -91 
Q 1297 -91 786 396 
Q 275 884 275 1747 
Q 275 2609 786 3096 
Q 1297 3584 2203 3584 
z
" transform="scale(0.015625)"/>
      <path id="DejaVuSans-Bold-76" d="M 97 3500 
L 1216 3500 
L 2088 1081 
L 2956 3500 
L 4078 3500 
L 2700 0 
L 1472 0 
L 97 3500 
z
" transform="scale(0.015625)"/>
      <path id="DejaVuSans-Bold-72" d="M 3138 2547 
Q 2991 2616 2845 2648 
Q 2700 2681 2553 2681 
Q 2122 2681 1889 2404 
Q 1656 2128 1656 1613 
L 1656 0 
L 538 0 
L 538 3500 
L 1656 3500 
L 1656 2925 
Q 1872 3269 2151 3426 
Q 2431 3584 2822 3584 
Q 2878 3584 2943 3579 
Q 3009 3575 3134 3559 
L 3138 2547 
z
" transform="scale(0.015625)"/>
      <path id="DejaVuSans-Bold-61" d="M 2106 1575 
Q 1756 1575 1579 1456 
Q 1403 1338 1403 1106 
Q 1403 894 1545 773 
Q 1688 653 1941 653 
Q 2256 653 2472 879 
Q 2688 1106 2688 1447 
L 2688 1575 
L 2106 1575 
z
M 3816 1997 
L 3816 0 
L 2688 0 
L 2688 519 
Q 2463 200 2181 54 
Q 1900 -91 1497 -91 
Q 953 -91 614 226 
Q 275 544 275 1050 
Q 275 1666 698 1953 
Q 1122 2241 2028 2241 
L 2688 2241 
L 2688 2328 
Q 2688 2594 2478 2717 
Q 2269 2841 1825 2841 
Q 1466 2841 1156 2769 
Q 847 2697 581 2553 
L 581 3406 
Q 941 3494 1303 3539 
Q 1666 3584 2028 3584 
Q 2975 3584 3395 3211 
Q 3816 2838 3816 1997 
z
" transform="scale(0.015625)"/>
      <path id="DejaVuSans-Bold-48" d="M 588 4666 
L 1791 4666 
L 1791 2888 
L 3566 2888 
L 3566 4666 
L 4769 4666 
L 4769 0 
L 3566 0 
L 3566 1978 
L 1791 1978 
L 1791 0 
L 588 0 
L 588 4666 
z
" transform="scale(0.015625)"/>
      <path id="DejaVuSans-Bold-69" d="M 538 3500 
L 1656 3500 
L 1656 0 
L 538 0 
L 538 3500 
z
M 538 4863 
L 1656 4863 
L 1656 3950 
L 538 3950 
L 538 4863 
z
" transform="scale(0.015625)"/>
      <path id="DejaVuSans-Bold-73" d="M 3272 3391 
L 3272 2541 
Q 2913 2691 2578 2766 
Q 2244 2841 1947 2841 
Q 1628 2841 1473 2761 
Q 1319 2681 1319 2516 
Q 1319 2381 1436 2309 
Q 1553 2238 1856 2203 
L 2053 2175 
Q 2913 2066 3209 1816 
Q 3506 1566 3506 1031 
Q 3506 472 3093 190 
Q 2681 -91 1863 -91 
Q 1516 -91 1145 -36 
Q 775 19 384 128 
L 384 978 
Q 719 816 1070 734 
Q 1422 653 1784 653 
Q 2113 653 2278 743 
Q 2444 834 2444 1013 
Q 2444 1163 2330 1236 
Q 2216 1309 1875 1350 
L 1678 1375 
Q 931 1469 631 1722 
Q 331 1975 331 2491 
Q 331 3047 712 3315 
Q 1094 3584 1881 3584 
Q 2191 3584 2531 3537 
Q 2872 3491 3272 3391 
z
" transform="scale(0.015625)"/>
      <path id="DejaVuSans-Bold-74" d="M 1759 4494 
L 1759 3500 
L 2913 3500 
L 2913 2700 
L 1759 2700 
L 1759 1216 
Q 1759 972 1856 886 
Q 1953 800 2241 800 
L 2816 800 
L 2816 0 
L 1856 0 
Q 1194 0 917 276 
Q 641 553 641 1216 
L 641 2700 
L 84 2700 
L 84 3500 
L 641 3500 
L 641 4494 
L 1759 4494 
z
" transform="scale(0.015625)"/>
      <path id="DejaVuSans-Bold-79" d="M 78 3500 
L 1197 3500 
L 2138 1125 
L 2938 3500 
L 4056 3500 
L 2584 -331 
Q 2363 -916 2067 -1148 
Q 1772 -1381 1288 -1381 
L 641 -1381 
L 641 -647 
L 991 -647 
Q 1275 -647 1404 -556 
Q 1534 -466 1606 -231 
L 1638 -134 
L 78 3500 
z
" transform="scale(0.015625)"/>
     </defs>
     <use xlink:href="#DejaVuSans-Bold-45"/>
     <use xlink:href="#DejaVuSans-Bold-64" x="68.310547"/>
     <use xlink:href="#DejaVuSans-Bold-67" x="139.892578"/>
     <use xlink:href="#DejaVuSans-Bold-65" x="211.474609"/>
     <use xlink:href="#DejaVuSans-Bold-20" x="279.296875"/>
     <use xlink:href="#DejaVuSans-Bold-43" x="314.111328"/>
     <use xlink:href="#DejaVuSans-Bold-6f" x="387.5"/>
     <use xlink:href="#DejaVuSans-Bold-76" x="456.201172"/>
     <use xlink:href="#DejaVuSans-Bold-65" x="521.386719"/>
     <use xlink:href="#DejaVuSans-Bold-72" x="589.208984"/>
     <use xlink:href="#DejaVuSans-Bold-61" x="638.525391"/>
     <use xlink:href="#DejaVuSans-Bold-67" x="706.005859"/>
     <use xlink:href="#DejaVuSans-Bold-65" x="777.587891"/>
     <use xlink:href="#DejaVuSans-Bold-20" x="845.410156"/>
     <use xlink:href="#DejaVuSans-Bold-48" x="880.224609"/>
     <use xlink:href="#DejaVuSans-Bold-69" x="963.916016"/>
     <use xlink:href="#DejaVuSans-Bold-73" x="998.193359"/>
     <use xlink:href="#DejaVuSans-Bold-74" x="1057.714844"/>
     <use xlink:href="#DejaVuSans-Bold-6f" x="1105.517578"/>
     <use xlink:href="#DejaVuSans-Bold-72" x="1174.21875"/>
     <use xlink:href="#DejaVuSans-Bold-79" x="1223.535156"/>
    </g>
   </g>
   <g id="legend_1">
    <g id="patch_5">
     <path d="M 273.541 508.24 
L 385.07 508.24 
Q 386.83 508.24 386.83 506.48 
L 386.83 428.8405 
Q 386.83 427.0805 385.07 427.0805 
L 273.541 427.0805 
Q 271.781 427.0805 271.781 428.8405 
L 271.781 506.48 
Q 271.781 508.24 273.541 508.24 
z
" style="fill: #ffffff; opacity: 0.8; stroke: #cccccc; stroke-width: 0.8; stroke-linejoin: miter"/>
    </g>
    <g id="text_40">
     <!-- fuzzer -->
     <g style="fill: #262626" transform="translate(314.6085 437.895)scale(0.096 -0.096)">
      <defs>
       <path id="DejaVuSans-66" d="M 2375 4863 
L 2375 4384 
L 1825 4384 
Q 1516 4384 1395 4259 
Q 1275 4134 1275 3809 
L 1275 3500 
L 2222 3500 
L 2222 3053 
L 1275 3053 
L 1275 0 
L 697 0 
L 697 3053 
L 147 3053 
L 147 3500 
L 697 3500 
L 697 3744 
Q 697 4328 969 4595 
Q 1241 4863 1831 4863 
L 2375 4863 
z
" transform="scale(0.015625)"/>
       <path id="DejaVuSans-7a" d="M 353 3500 
L 3084 3500 
L 3084 2975 
L 922 459 
L 3084 459 
L 3084 0 
L 275 0 
L 275 525 
L 2438 3041 
L 353 3041 
L 353 3500 
z
" transform="scale(0.015625)"/>
      </defs>
      <use xlink:href="#DejaVuSans-66"/>
      <use xlink:href="#DejaVuSans-75" x="35.205078"/>
      <use xlink:href="#DejaVuSans-7a" x="98.583984"/>
      <use xlink:href="#DejaVuSans-7a" x="151.074219"/>
      <use xlink:href="#DejaVuSans-65" x="203.564453"/>
      <use xlink:href="#DejaVuSans-72" x="265.087891"/>
     </g>
    </g>
    <g id="line2d_47">
     <path d="M 275.301 447.898125 
L 284.101 447.898125 
L 292.901 447.898125 
" style="fill: none; stroke: #db5f57; stroke-width: 1.2; stroke-linecap: round"/>
    </g>
    <g id="text_41">
     <!-- aflplusplus-0-exid0 -->
     <g style="fill: #262626" transform="translate(299.941 450.978125)scale(0.088 -0.088)">
      <defs>
       <path id="DejaVuSans-6c" d="M 603 4863 
L 1178 4863 
L 1178 0 
L 603 0 
L 603 4863 
z
" transform="scale(0.015625)"/>
       <path id="DejaVuSans-70" d="M 1159 525 
L 1159 -1331 
L 581 -1331 
L 581 3500 
L 1159 3500 
L 1159 2969 
Q 1341 3281 1617 3432 
Q 1894 3584 2278 3584 
Q 2916 3584 3314 3078 
Q 3713 2572 3713 1747 
Q 3713 922 3314 415 
Q 2916 -91 2278 -91 
Q 1894 -91 1617 61 
Q 1341 213 1159 525 
z
M 3116 1747 
Q 3116 2381 2855 2742 
Q 2594 3103 2138 3103 
Q 1681 3103 1420 2742 
Q 1159 2381 1159 1747 
Q 1159 1113 1420 752 
Q 1681 391 2138 391 
Q 2594 391 2855 752 
Q 3116 1113 3116 1747 
z
" transform="scale(0.015625)"/>
       <path id="DejaVuSans-2d" d="M 313 2009 
L 1997 2009 
L 1997 1497 
L 313 1497 
L 313 2009 
z
" transform="scale(0.015625)"/>
       <path id="DejaVuSans-78" d="M 3513 3500 
L 2247 1797 
L 3578 0 
L 2900 0 
L 1881 1375 
L 863 0 
L 184 0 
L 1544 1831 
L 300 3500 
L 978 3500 
L 1906 2253 
L 2834 3500 
L 3513 3500 
z
" transform="scale(0.015625)"/>
      </defs>
      <use xlink:href="#DejaVuSans-61"/>
      <use xlink:href="#DejaVuSans-66" x="61.279297"/>
      <use xlink:href="#DejaVuSans-6c" x="96.484375"/>
      <use xlink:href="#DejaVuSans-70" x="124.267578"/>
      <use xlink:href="#DejaVuSans-6c" x="187.744141"/>
      <use xlink:href="#DejaVuSans-75" x="215.527344"/>
      <use xlink:href="#DejaVuSans-73" x="278.90625"/>
      <use xlink:href="#DejaVuSans-70" x="331.005859"/>
      <use xlink:href="#DejaVuSans-6c" x="394.482422"/>
      <use xlink:href="#DejaVuSans-75" x="422.265625"/>
      <use xlink:href="#DejaVuSans-73" x="485.644531"/>
      <use xlink:href="#DejaVuSans-2d" x="537.744141"/>
      <use xlink:href="#DejaVuSans-30" x="573.828125"/>
      <use xlink:href="#DejaVuSans-2d" x="637.451172"/>
      <use xlink:href="#DejaVuSans-65" x="673.535156"/>
      <use xlink:href="#DejaVuSans-78" x="733.308594"/>
      <use xlink:href="#DejaVuSans-69" x="792.488281"/>
      <use xlink:href="#DejaVuSans-64" x="820.271484"/>
      <use xlink:href="#DejaVuSans-30" x="883.748047"/>
     </g>
    </g>
    <g id="line2d_48">
     <path d="M 275.301 460.814875 
L 284.101 460.814875 
L 292.901 460.814875 
" style="fill: none; stroke: #b9db57; stroke-width: 1.2; stroke-linecap: round"/>
    </g>
    <g id="text_42">
     <!-- symcc-0-exid0 -->
     <g style="fill: #262626" transform="translate(299.941 463.894875)scale(0.088 -0.088)">
      <defs>
       <path id="DejaVuSans-79" d="M 2059 -325 
Q 1816 -950 1584 -1140 
Q 1353 -1331 966 -1331 
L 506 -1331 
L 506 -850 
L 844 -850 
Q 1081 -850 1212 -737 
Q 1344 -625 1503 -206 
L 1606 56 
L 191 3500 
L 800 3500 
L 1894 763 
L 2988 3500 
L 3597 3500 
L 2059 -325 
z
" transform="scale(0.015625)"/>
       <path id="DejaVuSans-63" d="M 3122 3366 
L 3122 2828 
Q 2878 2963 2633 3030 
Q 2388 3097 2138 3097 
Q 1578 3097 1268 2742 
Q 959 2388 959 1747 
Q 959 1106 1268 751 
Q 1578 397 2138 397 
Q 2388 397 2633 464 
Q 2878 531 3122 666 
L 3122 134 
Q 2881 22 2623 -34 
Q 2366 -91 2075 -91 
Q 1284 -91 818 406 
Q 353 903 353 1747 
Q 353 2603 823 3093 
Q 1294 3584 2113 3584 
Q 2378 3584 2631 3529 
Q 2884 3475 3122 3366 
z
" transform="scale(0.015625)"/>
      </defs>
      <use xlink:href="#DejaVuSans-73"/>
      <use xlink:href="#DejaVuSans-79" x="52.099609"/>
      <use xlink:href="#DejaVuSans-6d" x="111.279297"/>
      <use xlink:href="#DejaVuSans-63" x="208.691406"/>
      <use xlink:href="#DejaVuSans-63" x="263.671875"/>
      <use xlink:href="#DejaVuSans-2d" x="318.652344"/>
      <use xlink:href="#DejaVuSans-30" x="354.736328"/>
      <use xlink:href="#DejaVuSans-2d" x="418.359375"/>
      <use xlink:href="#DejaVuSans-65" x="454.443359"/>
      <use xlink:href="#DejaVuSans-78" x="514.216797"/>
      <use xlink:href="#DejaVuSans-69" x="573.396484"/>
      <use xlink:href="#DejaVuSans-64" x="601.179688"/>
      <use xlink:href="#DejaVuSans-30" x="664.65625"/>
     </g>
    </g>
    <g id="line2d_49">
     <path d="M 275.301 473.731625 
L 284.101 473.731625 
L 292.901 473.731625 
" style="fill: none; stroke: #57db94; stroke-width: 1.2; stroke-linecap: round"/>
    </g>
    <g id="text_43">
     <!-- mopt-0-exid0 -->
     <g style="fill: #262626" transform="translate(299.941 476.811625)scale(0.088 -0.088)">
      <use xlink:href="#DejaVuSans-6d"/>
      <use xlink:href="#DejaVuSans-6f" x="97.412109"/>
      <use xlink:href="#DejaVuSans-70" x="158.59375"/>
      <use xlink:href="#DejaVuSans-74" x="222.070312"/>
      <use xlink:href="#DejaVuSans-2d" x="261.279297"/>
      <use xlink:href="#DejaVuSans-30" x="297.363281"/>
      <use xlink:href="#DejaVuSans-2d" x="360.986328"/>
      <use xlink:href="#DejaVuSans-65" x="397.070312"/>
      <use xlink:href="#DejaVuSans-78" x="456.84375"/>
      <use xlink:href="#DejaVuSans-69" x="516.023438"/>
      <use xlink:href="#DejaVuSans-64" x="543.806641"/>
      <use xlink:href="#DejaVuSans-30" x="607.283203"/>
     </g>
    </g>
    <g id="line2d_50">
     <path d="M 275.301 486.648375 
L 284.101 486.648375 
L 292.901 486.648375 
" style="fill: none; stroke: #5784db; stroke-width: 1.2; stroke-linecap: round"/>
    </g>
    <g id="text_44">
     <!-- fairfuzz-0-exid0 -->
     <g style="fill: #262626" transform="translate(299.941 489.728375)scale(0.088 -0.088)">
      <use xlink:href="#DejaVuSans-66"/>
      <use xlink:href="#DejaVuSans-61" x="35.205078"/>
      <use xlink:href="#DejaVuSans-69" x="96.484375"/>
      <use xlink:href="#DejaVuSans-72" x="124.267578"/>
      <use xlink:href="#DejaVuSans-66" x="165.380859"/>
      <use xlink:href="#DejaVuSans-75" x="200.585938"/>
      <use xlink:href="#DejaVuSans-7a" x="263.964844"/>
      <use xlink:href="#DejaVuSans-7a" x="316.455078"/>
      <use xlink:href="#DejaVuSans-2d" x="368.945312"/>
      <use xlink:href="#DejaVuSans-30" x="405.029297"/>
      <use xlink:href="#DejaVuSans-2d" x="468.652344"/>
      <use xlink:href="#DejaVuSans-65" x="504.736328"/>
      <use xlink:href="#DejaVuSans-78" x="564.509766"/>
      <use xlink:href="#DejaVuSans-69" x="623.689453"/>
      <use xlink:href="#DejaVuSans-64" x="651.472656"/>
      <use xlink:href="#DejaVuSans-30" x="714.949219"/>
     </g>
    </g>
    <g id="line2d_51">
     <path d="M 275.301 499.565125 
L 284.101 499.565125 
L 292.901 499.565125 
" style="fill: none; stroke: #c957db; stroke-width: 1.2; stroke-linecap: round"/>
    </g>
    <g id="text_45">
     <!-- fuzzer_global -->
     <g style="fill: #262626" transform="translate(299.941 502.645125)scale(0.088 -0.088)">
      <defs>
       <path id="DejaVuSans-5f" d="M 3263 -1063 
L 3263 -1509 
L -63 -1509 
L -63 -1063 
L 3263 -1063 
z
" transform="scale(0.015625)"/>
       <path id="DejaVuSans-62" d="M 3116 1747 
Q 3116 2381 2855 2742 
Q 2594 3103 2138 3103 
Q 1681 3103 1420 2742 
Q 1159 2381 1159 1747 
Q 1159 1113 1420 752 
Q 1681 391 2138 391 
Q 2594 391 2855 752 
Q 3116 1113 3116 1747 
z
M 1159 2969 
Q 1341 3281 1617 3432 
Q 1894 3584 2278 3584 
Q 2916 3584 3314 3078 
Q 3713 2572 3713 1747 
Q 3713 922 3314 415 
Q 2916 -91 2278 -91 
Q 1894 -91 1617 61 
Q 1341 213 1159 525 
L 1159 0 
L 581 0 
L 581 4863 
L 1159 4863 
L 1159 2969 
z
" transform="scale(0.015625)"/>
      </defs>
      <use xlink:href="#DejaVuSans-66"/>
      <use xlink:href="#DejaVuSans-75" x="35.205078"/>
      <use xlink:href="#DejaVuSans-7a" x="98.583984"/>
      <use xlink:href="#DejaVuSans-7a" x="151.074219"/>
      <use xlink:href="#DejaVuSans-65" x="203.564453"/>
      <use xlink:href="#DejaVuSans-72" x="265.087891"/>
      <use xlink:href="#DejaVuSans-5f" x="306.201172"/>
      <use xlink:href="#DejaVuSans-67" x="356.201172"/>
      <use xlink:href="#DejaVuSans-6c" x="419.677734"/>
      <use xlink:href="#DejaVuSans-6f" x="447.460938"/>
      <use xlink:href="#DejaVuSans-62" x="508.642578"/>
      <use xlink:href="#DejaVuSans-61" x="572.119141"/>
      <use xlink:href="#DejaVuSans-6c" x="633.398438"/>
     </g>
    </g>
   </g>
  </g>
 </g>
 <defs>
  <clipPath id="p0999a2594b">
   <rect x="54.3375" y="69.12" width="336.8925" height="443.52"/>
  </clipPath>
 </defs>
</svg>
