<?xml version="1.0" encoding="utf-8" standalone="no"?>
<!DOCTYPE svg PUBLIC "-//W3C//DTD SVG 1.1//EN"
  "http://www.w3.org/Graphics/SVG/1.1/DTD/svg11.dtd">
<svg xmlns:xlink="http://www.w3.org/1999/xlink" width="434.4pt" height="576pt" viewBox="0 0 434.4 576" xmlns="http://www.w3.org/2000/svg" version="1.1">
 <metadata>
  <rdf:RDF xmlns:dc="http://purl.org/dc/elements/1.1/" xmlns:cc="http://creativecommons.org/ns#" xmlns:rdf="http://www.w3.org/1999/02/22-rdf-syntax-ns#">
   <cc:Work>
    <dc:type rdf:resource="http://purl.org/dc/dcmitype/StillImage"/>
    <dc:date>2022-09-15T08:33:41.566631</dc:date>
    <dc:format>image/svg+xml</dc:format>
    <dc:creator>
     <cc:Agent>
      <dc:title>Matplotlib v3.5.3, https://matplotlib.org/</dc:title>
     </cc:Agent>
    </dc:creator>
   </cc:Work>
  </rdf:RDF>
 </metadata>
 <defs>
  <style type="text/css">*{stroke-linejoin: round; stroke-linecap: butt}</style>
 </defs>
 <g id="figure_1">
  <g id="patch_1">
   <path d="M 0 576 
L 434.4 576 
L 434.4 0 
L 0 0 
z
" style="fill: #ffffff"/>
  </g>
  <g id="axes_1">
   <g id="patch_2">
    <path d="M 54.3 512.64 
L 390.96 512.64 
L 390.96 69.12 
L 54.3 69.12 
z
" style="fill: #ffffff"/>
   </g>
   <g id="matplotlib.axis_1">
    <g id="xtick_1">
     <g id="line2d_1">
      <path d="M 69.602727 512.64 
L 69.602727 69.12 
" clip-path="url(#p58933b5510)" style="fill: none; stroke: #cccccc; stroke-width: 0.8; stroke-linecap: round"/>
     </g>
     <g id="text_1">
      <!-- 0 -->
      <g style="fill: #262626" transform="translate(69.340214 529.627249)rotate(-45)scale(0.088 -0.088)">
       <defs>
        <path id="DejaVuSans-30" d="M 2034 4250 
Q 1547 4250 1301 3770 
Q 1056 3291 1056 2328 
Q 1056 1369 1301 889 
Q 1547 409 2034 409 
Q 2525 409 2770 889 
Q 3016 1369 3016 2328 
Q 3016 3291 2770 3770 
Q 2525 4250 2034 4250 
z
M 2034 4750 
Q 2819 4750 3233 4129 
Q 3647 3509 3647 2328 
Q 3647 1150 3233 529 
Q 2819 -91 2034 -91 
Q 1250 -91 836 529 
Q 422 1150 422 2328 
Q 422 3509 836 4129 
Q 1250 4750 2034 4750 
z
" transform="scale(0.015625)"/>
       </defs>
       <use xlink:href="#DejaVuSans-30"/>
      </g>
     </g>
    </g>
    <g id="xtick_2">
     <g id="line2d_2">
      <path d="M 86.629406 512.64 
L 86.629406 69.12 
" clip-path="url(#p58933b5510)" style="fill: none; stroke: #cccccc; stroke-width: 0.8; stroke-linecap: round"/>
     </g>
     <g id="text_2">
      <!-- 80 -->
      <g style="fill: #262626" transform="translate(84.387347 533.58634)rotate(-45)scale(0.088 -0.088)">
       <defs>
        <path id="DejaVuSans-38" d="M 2034 2216 
Q 1584 2216 1326 1975 
Q 1069 1734 1069 1313 
Q 1069 891 1326 650 
Q 1584 409 2034 409 
Q 2484 409 2743 651 
Q 3003 894 3003 1313 
Q 3003 1734 2745 1975 
Q 2488 2216 2034 2216 
z
M 1403 2484 
Q 997 2584 770 2862 
Q 544 3141 544 3541 
Q 544 4100 942 4425 
Q 1341 4750 2034 4750 
Q 2731 4750 3128 4425 
Q 3525 4100 3525 3541 
Q 3525 3141 3298 2862 
Q 3072 2584 2669 2484 
Q 3125 2378 3379 2068 
Q 3634 1759 3634 1313 
Q 3634 634 3220 271 
Q 2806 -91 2034 -91 
Q 1263 -91 848 271 
Q 434 634 434 1313 
Q 434 1759 690 2068 
Q 947 2378 1403 2484 
z
M 1172 3481 
Q 1172 3119 1398 2916 
Q 1625 2713 2034 2713 
Q 2441 2713 2670 2916 
Q 2900 3119 2900 3481 
Q 2900 3844 2670 4047 
Q 2441 4250 2034 4250 
Q 1625 4250 1398 4047 
Q 1172 3844 1172 3481 
z
" transform="scale(0.015625)"/>
       </defs>
       <use xlink:href="#DejaVuSans-38"/>
       <use xlink:href="#DejaVuSans-30" x="63.623047"/>
      </g>
     </g>
    </g>
    <g id="xtick_3">
     <g id="line2d_3">
      <path d="M 103.656084 512.64 
L 103.656084 69.12 
" clip-path="url(#p58933b5510)" style="fill: none; stroke: #cccccc; stroke-width: 0.8; stroke-linecap: round"/>
     </g>
     <g id="text_3">
      <!-- 160 -->
      <g style="fill: #262626" transform="translate(99.43448 537.54543)rotate(-45)scale(0.088 -0.088)">
       <defs>
        <path id="DejaVuSans-31" d="M 794 531 
L 1825 531 
L 1825 4091 
L 703 3866 
L 703 4441 
L 1819 4666 
L 2450 4666 
L 2450 531 
L 3481 531 
L 3481 0 
L 794 0 
L 794 531 
z
" transform="scale(0.015625)"/>
        <path id="DejaVuSans-36" d="M 2113 2584 
Q 1688 2584 1439 2293 
Q 1191 2003 1191 1497 
Q 1191 994 1439 701 
Q 1688 409 2113 409 
Q 2538 409 2786 701 
Q 3034 994 3034 1497 
Q 3034 2003 2786 2293 
Q 2538 2584 2113 2584 
z
M 3366 4563 
L 3366 3988 
Q 3128 4100 2886 4159 
Q 2644 4219 2406 4219 
Q 1781 4219 1451 3797 
Q 1122 3375 1075 2522 
Q 1259 2794 1537 2939 
Q 1816 3084 2150 3084 
Q 2853 3084 3261 2657 
Q 3669 2231 3669 1497 
Q 3669 778 3244 343 
Q 2819 -91 2113 -91 
Q 1303 -91 875 529 
Q 447 1150 447 2328 
Q 447 3434 972 4092 
Q 1497 4750 2381 4750 
Q 2619 4750 2861 4703 
Q 3103 4656 3366 4563 
z
" transform="scale(0.015625)"/>
       </defs>
       <use xlink:href="#DejaVuSans-31"/>
       <use xlink:href="#DejaVuSans-36" x="63.623047"/>
       <use xlink:href="#DejaVuSans-30" x="127.246094"/>
      </g>
     </g>
    </g>
    <g id="xtick_4">
     <g id="line2d_4">
      <path d="M 120.682763 512.64 
L 120.682763 69.12 
" clip-path="url(#p58933b5510)" style="fill: none; stroke: #cccccc; stroke-width: 0.8; stroke-linecap: round"/>
     </g>
     <g id="text_4">
      <!-- 240 -->
      <g style="fill: #262626" transform="translate(116.461158 537.54543)rotate(-45)scale(0.088 -0.088)">
       <defs>
        <path id="DejaVuSans-32" d="M 1228 531 
L 3431 531 
L 3431 0 
L 469 0 
L 469 531 
Q 828 903 1448 1529 
Q 2069 2156 2228 2338 
Q 2531 2678 2651 2914 
Q 2772 3150 2772 3378 
Q 2772 3750 2511 3984 
Q 2250 4219 1831 4219 
Q 1534 4219 1204 4116 
Q 875 4013 500 3803 
L 500 4441 
Q 881 4594 1212 4672 
Q 1544 4750 1819 4750 
Q 2544 4750 2975 4387 
Q 3406 4025 3406 3419 
Q 3406 3131 3298 2873 
Q 3191 2616 2906 2266 
Q 2828 2175 2409 1742 
Q 1991 1309 1228 531 
z
" transform="scale(0.015625)"/>
        <path id="DejaVuSans-34" d="M 2419 4116 
L 825 1625 
L 2419 1625 
L 2419 4116 
z
M 2253 4666 
L 3047 4666 
L 3047 1625 
L 3713 1625 
L 3713 1100 
L 3047 1100 
L 3047 0 
L 2419 0 
L 2419 1100 
L 313 1100 
L 313 1709 
L 2253 4666 
z
" transform="scale(0.015625)"/>
       </defs>
       <use xlink:href="#DejaVuSans-32"/>
       <use xlink:href="#DejaVuSans-34" x="63.623047"/>
       <use xlink:href="#DejaVuSans-30" x="127.246094"/>
      </g>
     </g>
    </g>
    <g id="xtick_5">
     <g id="line2d_5">
      <path d="M 137.709441 512.64 
L 137.709441 69.12 
" clip-path="url(#p58933b5510)" style="fill: none; stroke: #cccccc; stroke-width: 0.8; stroke-linecap: round"/>
     </g>
     <g id="text_5">
      <!-- 320 -->
      <g style="fill: #262626" transform="translate(133.487837 537.54543)rotate(-45)scale(0.088 -0.088)">
       <defs>
        <path id="DejaVuSans-33" d="M 2597 2516 
Q 3050 2419 3304 2112 
Q 3559 1806 3559 1356 
Q 3559 666 3084 287 
Q 2609 -91 1734 -91 
Q 1441 -91 1130 -33 
Q 819 25 488 141 
L 488 750 
Q 750 597 1062 519 
Q 1375 441 1716 441 
Q 2309 441 2620 675 
Q 2931 909 2931 1356 
Q 2931 1769 2642 2001 
Q 2353 2234 1838 2234 
L 1294 2234 
L 1294 2753 
L 1863 2753 
Q 2328 2753 2575 2939 
Q 2822 3125 2822 3475 
Q 2822 3834 2567 4026 
Q 2313 4219 1838 4219 
Q 1578 4219 1281 4162 
Q 984 4106 628 3988 
L 628 4550 
Q 988 4650 1302 4700 
Q 1616 4750 1894 4750 
Q 2613 4750 3031 4423 
Q 3450 4097 3450 3541 
Q 3450 3153 3228 2886 
Q 3006 2619 2597 2516 
z
" transform="scale(0.015625)"/>
       </defs>
       <use xlink:href="#DejaVuSans-33"/>
       <use xlink:href="#DejaVuSans-32" x="63.623047"/>
       <use xlink:href="#DejaVuSans-30" x="127.246094"/>
      </g>
     </g>
    </g>
    <g id="xtick_6">
     <g id="line2d_6">
      <path d="M 154.73612 512.64 
L 154.73612 69.12 
" clip-path="url(#p58933b5510)" style="fill: none; stroke: #cccccc; stroke-width: 0.8; stroke-linecap: round"/>
     </g>
     <g id="text_6">
      <!-- 400 -->
      <g style="fill: #262626" transform="translate(150.514515 537.54543)rotate(-45)scale(0.088 -0.088)">
       <use xlink:href="#DejaVuSans-34"/>
       <use xlink:href="#DejaVuSans-30" x="63.623047"/>
       <use xlink:href="#DejaVuSans-30" x="127.246094"/>
      </g>
     </g>
    </g>
    <g id="xtick_7">
     <g id="line2d_7">
      <path d="M 171.762798 512.64 
L 171.762798 69.12 
" clip-path="url(#p58933b5510)" style="fill: none; stroke: #cccccc; stroke-width: 0.8; stroke-linecap: round"/>
     </g>
     <g id="text_7">
      <!-- 480 -->
      <g style="fill: #262626" transform="translate(167.541194 537.54543)rotate(-45)scale(0.088 -0.088)">
       <use xlink:href="#DejaVuSans-34"/>
       <use xlink:href="#DejaVuSans-38" x="63.623047"/>
       <use xlink:href="#DejaVuSans-30" x="127.246094"/>
      </g>
     </g>
    </g>
    <g id="xtick_8">
     <g id="line2d_8">
      <path d="M 188.789477 512.64 
L 188.789477 69.12 
" clip-path="url(#p58933b5510)" style="fill: none; stroke: #cccccc; stroke-width: 0.8; stroke-linecap: round"/>
     </g>
     <g id="text_8">
      <!-- 560 -->
      <g style="fill: #262626" transform="translate(184.567872 537.54543)rotate(-45)scale(0.088 -0.088)">
       <defs>
        <path id="DejaVuSans-35" d="M 691 4666 
L 3169 4666 
L 3169 4134 
L 1269 4134 
L 1269 2991 
Q 1406 3038 1543 3061 
Q 1681 3084 1819 3084 
Q 2600 3084 3056 2656 
Q 3513 2228 3513 1497 
Q 3513 744 3044 326 
Q 2575 -91 1722 -91 
Q 1428 -91 1123 -41 
Q 819 9 494 109 
L 494 744 
Q 775 591 1075 516 
Q 1375 441 1709 441 
Q 2250 441 2565 725 
Q 2881 1009 2881 1497 
Q 2881 1984 2565 2268 
Q 2250 2553 1709 2553 
Q 1456 2553 1204 2497 
Q 953 2441 691 2322 
L 691 4666 
z
" transform="scale(0.015625)"/>
       </defs>
       <use xlink:href="#DejaVuSans-35"/>
       <use xlink:href="#DejaVuSans-36" x="63.623047"/>
       <use xlink:href="#DejaVuSans-30" x="127.246094"/>
      </g>
     </g>
    </g>
    <g id="xtick_9">
     <g id="line2d_9">
      <path d="M 205.816155 512.64 
L 205.816155 69.12 
" clip-path="url(#p58933b5510)" style="fill: none; stroke: #cccccc; stroke-width: 0.8; stroke-linecap: round"/>
     </g>
     <g id="text_9">
      <!-- 640 -->
      <g style="fill: #262626" transform="translate(201.594551 537.54543)rotate(-45)scale(0.088 -0.088)">
       <use xlink:href="#DejaVuSans-36"/>
       <use xlink:href="#DejaVuSans-34" x="63.623047"/>
       <use xlink:href="#DejaVuSans-30" x="127.246094"/>
      </g>
     </g>
    </g>
    <g id="xtick_10">
     <g id="line2d_10">
      <path d="M 222.842833 512.64 
L 222.842833 69.12 
" clip-path="url(#p58933b5510)" style="fill: none; stroke: #cccccc; stroke-width: 0.8; stroke-linecap: round"/>
     </g>
     <g id="text_10">
      <!-- 720 -->
      <g style="fill: #262626" transform="translate(218.621229 537.54543)rotate(-45)scale(0.088 -0.088)">
       <defs>
        <path id="DejaVuSans-37" d="M 525 4666 
L 3525 4666 
L 3525 4397 
L 1831 0 
L 1172 0 
L 2766 4134 
L 525 4134 
L 525 4666 
z
" transform="scale(0.015625)"/>
       </defs>
       <use xlink:href="#DejaVuSans-37"/>
       <use xlink:href="#DejaVuSans-32" x="63.623047"/>
       <use xlink:href="#DejaVuSans-30" x="127.246094"/>
      </g>
     </g>
    </g>
    <g id="xtick_11">
     <g id="line2d_11">
      <path d="M 239.869512 512.64 
L 239.869512 69.12 
" clip-path="url(#p58933b5510)" style="fill: none; stroke: #cccccc; stroke-width: 0.8; stroke-linecap: round"/>
     </g>
     <g id="text_11">
      <!-- 800 -->
      <g style="fill: #262626" transform="translate(235.647908 537.54543)rotate(-45)scale(0.088 -0.088)">
       <use xlink:href="#DejaVuSans-38"/>
       <use xlink:href="#DejaVuSans-30" x="63.623047"/>
       <use xlink:href="#DejaVuSans-30" x="127.246094"/>
      </g>
     </g>
    </g>
    <g id="xtick_12">
     <g id="line2d_12">
      <path d="M 256.89619 512.64 
L 256.89619 69.12 
" clip-path="url(#p58933b5510)" style="fill: none; stroke: #cccccc; stroke-width: 0.8; stroke-linecap: round"/>
     </g>
     <g id="text_12">
      <!-- 880 -->
      <g style="fill: #262626" transform="translate(252.674586 537.54543)rotate(-45)scale(0.088 -0.088)">
       <use xlink:href="#DejaVuSans-38"/>
       <use xlink:href="#DejaVuSans-38" x="63.623047"/>
       <use xlink:href="#DejaVuSans-30" x="127.246094"/>
      </g>
     </g>
    </g>
    <g id="xtick_13">
     <g id="line2d_13">
      <path d="M 273.922869 512.64 
L 273.922869 69.12 
" clip-path="url(#p58933b5510)" style="fill: none; stroke: #cccccc; stroke-width: 0.8; stroke-linecap: round"/>
     </g>
     <g id="text_13">
      <!-- 960 -->
      <g style="fill: #262626" transform="translate(269.701265 537.54543)rotate(-45)scale(0.088 -0.088)">
       <defs>
        <path id="DejaVuSans-39" d="M 703 97 
L 703 672 
Q 941 559 1184 500 
Q 1428 441 1663 441 
Q 2288 441 2617 861 
Q 2947 1281 2994 2138 
Q 2813 1869 2534 1725 
Q 2256 1581 1919 1581 
Q 1219 1581 811 2004 
Q 403 2428 403 3163 
Q 403 3881 828 4315 
Q 1253 4750 1959 4750 
Q 2769 4750 3195 4129 
Q 3622 3509 3622 2328 
Q 3622 1225 3098 567 
Q 2575 -91 1691 -91 
Q 1453 -91 1209 -44 
Q 966 3 703 97 
z
M 1959 2075 
Q 2384 2075 2632 2365 
Q 2881 2656 2881 3163 
Q 2881 3666 2632 3958 
Q 2384 4250 1959 4250 
Q 1534 4250 1286 3958 
Q 1038 3666 1038 3163 
Q 1038 2656 1286 2365 
Q 1534 2075 1959 2075 
z
" transform="scale(0.015625)"/>
       </defs>
       <use xlink:href="#DejaVuSans-39"/>
       <use xlink:href="#DejaVuSans-36" x="63.623047"/>
       <use xlink:href="#DejaVuSans-30" x="127.246094"/>
      </g>
     </g>
    </g>
    <g id="xtick_14">
     <g id="line2d_14">
      <path d="M 290.949547 512.64 
L 290.949547 69.12 
" clip-path="url(#p58933b5510)" style="fill: none; stroke: #cccccc; stroke-width: 0.8; stroke-linecap: round"/>
     </g>
     <g id="text_14">
      <!-- 1040 -->
      <g style="fill: #262626" transform="translate(284.748398 541.504521)rotate(-45)scale(0.088 -0.088)">
       <use xlink:href="#DejaVuSans-31"/>
       <use xlink:href="#DejaVuSans-30" x="63.623047"/>
       <use xlink:href="#DejaVuSans-34" x="127.246094"/>
       <use xlink:href="#DejaVuSans-30" x="190.869141"/>
      </g>
     </g>
    </g>
    <g id="xtick_15">
     <g id="line2d_15">
      <path d="M 307.976226 512.64 
L 307.976226 69.12 
" clip-path="url(#p58933b5510)" style="fill: none; stroke: #cccccc; stroke-width: 0.8; stroke-linecap: round"/>
     </g>
     <g id="text_15">
      <!-- 1120 -->
      <g style="fill: #262626" transform="translate(301.775076 541.504521)rotate(-45)scale(0.088 -0.088)">
       <use xlink:href="#DejaVuSans-31"/>
       <use xlink:href="#DejaVuSans-31" x="63.623047"/>
       <use xlink:href="#DejaVuSans-32" x="127.246094"/>
       <use xlink:href="#DejaVuSans-30" x="190.869141"/>
      </g>
     </g>
    </g>
    <g id="xtick_16">
     <g id="line2d_16">
      <path d="M 325.002904 512.64 
L 325.002904 69.12 
" clip-path="url(#p58933b5510)" style="fill: none; stroke: #cccccc; stroke-width: 0.8; stroke-linecap: round"/>
     </g>
     <g id="text_16">
      <!-- 1200 -->
      <g style="fill: #262626" transform="translate(318.801755 541.504521)rotate(-45)scale(0.088 -0.088)">
       <use xlink:href="#DejaVuSans-31"/>
       <use xlink:href="#DejaVuSans-32" x="63.623047"/>
       <use xlink:href="#DejaVuSans-30" x="127.246094"/>
       <use xlink:href="#DejaVuSans-30" x="190.869141"/>
      </g>
     </g>
    </g>
    <g id="xtick_17">
     <g id="line2d_17">
      <path d="M 342.029583 512.64 
L 342.029583 69.12 
" clip-path="url(#p58933b5510)" style="fill: none; stroke: #cccccc; stroke-width: 0.8; stroke-linecap: round"/>
     </g>
     <g id="text_17">
      <!-- 1280 -->
      <g style="fill: #262626" transform="translate(335.828433 541.504521)rotate(-45)scale(0.088 -0.088)">
       <use xlink:href="#DejaVuSans-31"/>
       <use xlink:href="#DejaVuSans-32" x="63.623047"/>
       <use xlink:href="#DejaVuSans-38" x="127.246094"/>
       <use xlink:href="#DejaVuSans-30" x="190.869141"/>
      </g>
     </g>
    </g>
    <g id="xtick_18">
     <g id="line2d_18">
      <path d="M 359.056261 512.64 
L 359.056261 69.12 
" clip-path="url(#p58933b5510)" style="fill: none; stroke: #cccccc; stroke-width: 0.8; stroke-linecap: round"/>
     </g>
     <g id="text_18">
      <!-- 1360 -->
      <g style="fill: #262626" transform="translate(352.855112 541.504521)rotate(-45)scale(0.088 -0.088)">
       <use xlink:href="#DejaVuSans-31"/>
       <use xlink:href="#DejaVuSans-33" x="63.623047"/>
       <use xlink:href="#DejaVuSans-36" x="127.246094"/>
       <use xlink:href="#DejaVuSans-30" x="190.869141"/>
      </g>
     </g>
    </g>
    <g id="xtick_19">
     <g id="line2d_19">
      <path d="M 376.08294 512.64 
L 376.08294 69.12 
" clip-path="url(#p58933b5510)" style="fill: none; stroke: #cccccc; stroke-width: 0.8; stroke-linecap: round"/>
     </g>
     <g id="text_19">
      <!-- 1440 -->
      <g style="fill: #262626" transform="translate(369.88179 541.504521)rotate(-45)scale(0.088 -0.088)">
       <use xlink:href="#DejaVuSans-31"/>
       <use xlink:href="#DejaVuSans-34" x="63.623047"/>
       <use xlink:href="#DejaVuSans-34" x="127.246094"/>
       <use xlink:href="#DejaVuSans-30" x="190.869141"/>
      </g>
     </g>
    </g>
    <g id="text_20">
     <!-- Time (Minutes) -->
     <g style="fill: #262626" transform="translate(186.72 554.093115)scale(0.096 -0.096)">
      <defs>
       <path id="DejaVuSans-54" d="M -19 4666 
L 3928 4666 
L 3928 4134 
L 2272 4134 
L 2272 0 
L 1638 0 
L 1638 4134 
L -19 4134 
L -19 4666 
z
" transform="scale(0.015625)"/>
       <path id="DejaVuSans-69" d="M 603 3500 
L 1178 3500 
L 1178 0 
L 603 0 
L 603 3500 
z
M 603 4863 
L 1178 4863 
L 1178 4134 
L 603 4134 
L 603 4863 
z
" transform="scale(0.015625)"/>
       <path id="DejaVuSans-6d" d="M 3328 2828 
Q 3544 3216 3844 3400 
Q 4144 3584 4550 3584 
Q 5097 3584 5394 3201 
Q 5691 2819 5691 2113 
L 5691 0 
L 5113 0 
L 5113 2094 
Q 5113 2597 4934 2840 
Q 4756 3084 4391 3084 
Q 3944 3084 3684 2787 
Q 3425 2491 3425 1978 
L 3425 0 
L 2847 0 
L 2847 2094 
Q 2847 2600 2669 2842 
Q 2491 3084 2119 3084 
Q 1678 3084 1418 2786 
Q 1159 2488 1159 1978 
L 1159 0 
L 581 0 
L 581 3500 
L 1159 3500 
L 1159 2956 
Q 1356 3278 1631 3431 
Q 1906 3584 2284 3584 
Q 2666 3584 2933 3390 
Q 3200 3197 3328 2828 
z
" transform="scale(0.015625)"/>
       <path id="DejaVuSans-65" d="M 3597 1894 
L 3597 1613 
L 953 1613 
Q 991 1019 1311 708 
Q 1631 397 2203 397 
Q 2534 397 2845 478 
Q 3156 559 3463 722 
L 3463 178 
Q 3153 47 2828 -22 
Q 2503 -91 2169 -91 
Q 1331 -91 842 396 
Q 353 884 353 1716 
Q 353 2575 817 3079 
Q 1281 3584 2069 3584 
Q 2775 3584 3186 3129 
Q 3597 2675 3597 1894 
z
M 3022 2063 
Q 3016 2534 2758 2815 
Q 2500 3097 2075 3097 
Q 1594 3097 1305 2825 
Q 1016 2553 972 2059 
L 3022 2063 
z
" transform="scale(0.015625)"/>
       <path id="DejaVuSans-20" transform="scale(0.015625)"/>
       <path id="DejaVuSans-28" d="M 1984 4856 
Q 1566 4138 1362 3434 
Q 1159 2731 1159 2009 
Q 1159 1288 1364 580 
Q 1569 -128 1984 -844 
L 1484 -844 
Q 1016 -109 783 600 
Q 550 1309 550 2009 
Q 550 2706 781 3412 
Q 1013 4119 1484 4856 
L 1984 4856 
z
" transform="scale(0.015625)"/>
       <path id="DejaVuSans-4d" d="M 628 4666 
L 1569 4666 
L 2759 1491 
L 3956 4666 
L 4897 4666 
L 4897 0 
L 4281 0 
L 4281 4097 
L 3078 897 
L 2444 897 
L 1241 4097 
L 1241 0 
L 628 0 
L 628 4666 
z
" transform="scale(0.015625)"/>
       <path id="DejaVuSans-6e" d="M 3513 2113 
L 3513 0 
L 2938 0 
L 2938 2094 
Q 2938 2591 2744 2837 
Q 2550 3084 2163 3084 
Q 1697 3084 1428 2787 
Q 1159 2491 1159 1978 
L 1159 0 
L 581 0 
L 581 3500 
L 1159 3500 
L 1159 2956 
Q 1366 3272 1645 3428 
Q 1925 3584 2291 3584 
Q 2894 3584 3203 3211 
Q 3513 2838 3513 2113 
z
" transform="scale(0.015625)"/>
       <path id="DejaVuSans-75" d="M 544 1381 
L 544 3500 
L 1119 3500 
L 1119 1403 
Q 1119 906 1312 657 
Q 1506 409 1894 409 
Q 2359 409 2629 706 
Q 2900 1003 2900 1516 
L 2900 3500 
L 3475 3500 
L 3475 0 
L 2900 0 
L 2900 538 
Q 2691 219 2414 64 
Q 2138 -91 1772 -91 
Q 1169 -91 856 284 
Q 544 659 544 1381 
z
M 1991 3584 
L 1991 3584 
z
" transform="scale(0.015625)"/>
       <path id="DejaVuSans-74" d="M 1172 4494 
L 1172 3500 
L 2356 3500 
L 2356 3053 
L 1172 3053 
L 1172 1153 
Q 1172 725 1289 603 
Q 1406 481 1766 481 
L 2356 481 
L 2356 0 
L 1766 0 
Q 1100 0 847 248 
Q 594 497 594 1153 
L 594 3053 
L 172 3053 
L 172 3500 
L 594 3500 
L 594 4494 
L 1172 4494 
z
" transform="scale(0.015625)"/>
       <path id="DejaVuSans-73" d="M 2834 3397 
L 2834 2853 
Q 2591 2978 2328 3040 
Q 2066 3103 1784 3103 
Q 1356 3103 1142 2972 
Q 928 2841 928 2578 
Q 928 2378 1081 2264 
Q 1234 2150 1697 2047 
L 1894 2003 
Q 2506 1872 2764 1633 
Q 3022 1394 3022 966 
Q 3022 478 2636 193 
Q 2250 -91 1575 -91 
Q 1294 -91 989 -36 
Q 684 19 347 128 
L 347 722 
Q 666 556 975 473 
Q 1284 391 1588 391 
Q 1994 391 2212 530 
Q 2431 669 2431 922 
Q 2431 1156 2273 1281 
Q 2116 1406 1581 1522 
L 1381 1569 
Q 847 1681 609 1914 
Q 372 2147 372 2553 
Q 372 3047 722 3315 
Q 1072 3584 1716 3584 
Q 2034 3584 2315 3537 
Q 2597 3491 2834 3397 
z
" transform="scale(0.015625)"/>
       <path id="DejaVuSans-29" d="M 513 4856 
L 1013 4856 
Q 1481 4119 1714 3412 
Q 1947 2706 1947 2009 
Q 1947 1309 1714 600 
Q 1481 -109 1013 -844 
L 513 -844 
Q 928 -128 1133 580 
Q 1338 1288 1338 2009 
Q 1338 2731 1133 3434 
Q 928 4138 513 4856 
z
" transform="scale(0.015625)"/>
      </defs>
      <use xlink:href="#DejaVuSans-54"/>
      <use xlink:href="#DejaVuSans-69" x="57.958984"/>
      <use xlink:href="#DejaVuSans-6d" x="85.742188"/>
      <use xlink:href="#DejaVuSans-65" x="183.154297"/>
      <use xlink:href="#DejaVuSans-20" x="244.677734"/>
      <use xlink:href="#DejaVuSans-28" x="276.464844"/>
      <use xlink:href="#DejaVuSans-4d" x="315.478516"/>
      <use xlink:href="#DejaVuSans-69" x="401.757812"/>
      <use xlink:href="#DejaVuSans-6e" x="429.541016"/>
      <use xlink:href="#DejaVuSans-75" x="492.919922"/>
      <use xlink:href="#DejaVuSans-74" x="556.298828"/>
      <use xlink:href="#DejaVuSans-65" x="595.507812"/>
      <use xlink:href="#DejaVuSans-73" x="657.03125"/>
      <use xlink:href="#DejaVuSans-29" x="709.130859"/>
     </g>
    </g>
   </g>
   <g id="matplotlib.axis_2">
    <g id="ytick_1">
     <g id="line2d_20">
      <path d="M 54.3 492.48 
L 390.96 492.48 
" clip-path="url(#p58933b5510)" style="fill: none; stroke: #cccccc; stroke-width: 0.8; stroke-linecap: round"/>
     </g>
     <g id="text_21">
      <!-- 0 -->
      <g style="fill: #262626" transform="translate(40.401 495.823312)scale(0.088 -0.088)">
       <use xlink:href="#DejaVuSans-30"/>
      </g>
     </g>
    </g>
    <g id="ytick_2">
     <g id="line2d_21">
      <path d="M 54.3 434.548966 
L 390.96 434.548966 
" clip-path="url(#p58933b5510)" style="fill: none; stroke: #cccccc; stroke-width: 0.8; stroke-linecap: round"/>
     </g>
     <g id="text_22">
      <!-- 100 -->
      <g style="fill: #262626" transform="translate(29.203 437.892278)scale(0.088 -0.088)">
       <use xlink:href="#DejaVuSans-31"/>
       <use xlink:href="#DejaVuSans-30" x="63.623047"/>
       <use xlink:href="#DejaVuSans-30" x="127.246094"/>
      </g>
     </g>
    </g>
    <g id="ytick_3">
     <g id="line2d_22">
      <path d="M 54.3 376.617931 
L 390.96 376.617931 
" clip-path="url(#p58933b5510)" style="fill: none; stroke: #cccccc; stroke-width: 0.8; stroke-linecap: round"/>
     </g>
     <g id="text_23">
      <!-- 200 -->
      <g style="fill: #262626" transform="translate(29.203 379.961244)scale(0.088 -0.088)">
       <use xlink:href="#DejaVuSans-32"/>
       <use xlink:href="#DejaVuSans-30" x="63.623047"/>
       <use xlink:href="#DejaVuSans-30" x="127.246094"/>
      </g>
     </g>
    </g>
    <g id="ytick_4">
     <g id="line2d_23">
      <path d="M 54.3 318.686897 
L 390.96 318.686897 
" clip-path="url(#p58933b5510)" style="fill: none; stroke: #cccccc; stroke-width: 0.8; stroke-linecap: round"/>
     </g>
     <g id="text_24">
      <!-- 300 -->
      <g style="fill: #262626" transform="translate(29.203 322.030209)scale(0.088 -0.088)">
       <use xlink:href="#DejaVuSans-33"/>
       <use xlink:href="#DejaVuSans-30" x="63.623047"/>
       <use xlink:href="#DejaVuSans-30" x="127.246094"/>
      </g>
     </g>
    </g>
    <g id="ytick_5">
     <g id="line2d_24">
      <path d="M 54.3 260.755862 
L 390.96 260.755862 
" clip-path="url(#p58933b5510)" style="fill: none; stroke: #cccccc; stroke-width: 0.8; stroke-linecap: round"/>
     </g>
     <g id="text_25">
      <!-- 400 -->
      <g style="fill: #262626" transform="translate(29.203 264.099175)scale(0.088 -0.088)">
       <use xlink:href="#DejaVuSans-34"/>
       <use xlink:href="#DejaVuSans-30" x="63.623047"/>
       <use xlink:href="#DejaVuSans-30" x="127.246094"/>
      </g>
     </g>
    </g>
    <g id="ytick_6">
     <g id="line2d_25">
      <path d="M 54.3 202.824828 
L 390.96 202.824828 
" clip-path="url(#p58933b5510)" style="fill: none; stroke: #cccccc; stroke-width: 0.8; stroke-linecap: round"/>
     </g>
     <g id="text_26">
      <!-- 500 -->
      <g style="fill: #262626" transform="translate(29.203 206.16814)scale(0.088 -0.088)">
       <use xlink:href="#DejaVuSans-35"/>
       <use xlink:href="#DejaVuSans-30" x="63.623047"/>
       <use xlink:href="#DejaVuSans-30" x="127.246094"/>
      </g>
     </g>
    </g>
    <g id="ytick_7">
     <g id="line2d_26">
      <path d="M 54.3 144.893793 
L 390.96 144.893793 
" clip-path="url(#p58933b5510)" style="fill: none; stroke: #cccccc; stroke-width: 0.8; stroke-linecap: round"/>
     </g>
     <g id="text_27">
      <!-- 600 -->
      <g style="fill: #262626" transform="translate(29.203 148.237106)scale(0.088 -0.088)">
       <use xlink:href="#DejaVuSans-36"/>
       <use xlink:href="#DejaVuSans-30" x="63.623047"/>
       <use xlink:href="#DejaVuSans-30" x="127.246094"/>
      </g>
     </g>
    </g>
    <g id="text_28">
     <!-- Edge Coverages -->
     <g style="fill: #262626" transform="translate(23.2065 329.98575)rotate(-90)scale(0.096 -0.096)">
      <defs>
       <path id="DejaVuSans-45" d="M 628 4666 
L 3578 4666 
L 3578 4134 
L 1259 4134 
L 1259 2753 
L 3481 2753 
L 3481 2222 
L 1259 2222 
L 1259 531 
L 3634 531 
L 3634 0 
L 628 0 
L 628 4666 
z
" transform="scale(0.015625)"/>
       <path id="DejaVuSans-64" d="M 2906 2969 
L 2906 4863 
L 3481 4863 
L 3481 0 
L 2906 0 
L 2906 525 
Q 2725 213 2448 61 
Q 2172 -91 1784 -91 
Q 1150 -91 751 415 
Q 353 922 353 1747 
Q 353 2572 751 3078 
Q 1150 3584 1784 3584 
Q 2172 3584 2448 3432 
Q 2725 3281 2906 2969 
z
M 947 1747 
Q 947 1113 1208 752 
Q 1469 391 1925 391 
Q 2381 391 2643 752 
Q 2906 1113 2906 1747 
Q 2906 2381 2643 2742 
Q 2381 3103 1925 3103 
Q 1469 3103 1208 2742 
Q 947 2381 947 1747 
z
" transform="scale(0.015625)"/>
       <path id="DejaVuSans-67" d="M 2906 1791 
Q 2906 2416 2648 2759 
Q 2391 3103 1925 3103 
Q 1463 3103 1205 2759 
Q 947 2416 947 1791 
Q 947 1169 1205 825 
Q 1463 481 1925 481 
Q 2391 481 2648 825 
Q 2906 1169 2906 1791 
z
M 3481 434 
Q 3481 -459 3084 -895 
Q 2688 -1331 1869 -1331 
Q 1566 -1331 1297 -1286 
Q 1028 -1241 775 -1147 
L 775 -588 
Q 1028 -725 1275 -790 
Q 1522 -856 1778 -856 
Q 2344 -856 2625 -561 
Q 2906 -266 2906 331 
L 2906 616 
Q 2728 306 2450 153 
Q 2172 0 1784 0 
Q 1141 0 747 490 
Q 353 981 353 1791 
Q 353 2603 747 3093 
Q 1141 3584 1784 3584 
Q 2172 3584 2450 3431 
Q 2728 3278 2906 2969 
L 2906 3500 
L 3481 3500 
L 3481 434 
z
" transform="scale(0.015625)"/>
       <path id="DejaVuSans-43" d="M 4122 4306 
L 4122 3641 
Q 3803 3938 3442 4084 
Q 3081 4231 2675 4231 
Q 1875 4231 1450 3742 
Q 1025 3253 1025 2328 
Q 1025 1406 1450 917 
Q 1875 428 2675 428 
Q 3081 428 3442 575 
Q 3803 722 4122 1019 
L 4122 359 
Q 3791 134 3420 21 
Q 3050 -91 2638 -91 
Q 1578 -91 968 557 
Q 359 1206 359 2328 
Q 359 3453 968 4101 
Q 1578 4750 2638 4750 
Q 3056 4750 3426 4639 
Q 3797 4528 4122 4306 
z
" transform="scale(0.015625)"/>
       <path id="DejaVuSans-6f" d="M 1959 3097 
Q 1497 3097 1228 2736 
Q 959 2375 959 1747 
Q 959 1119 1226 758 
Q 1494 397 1959 397 
Q 2419 397 2687 759 
Q 2956 1122 2956 1747 
Q 2956 2369 2687 2733 
Q 2419 3097 1959 3097 
z
M 1959 3584 
Q 2709 3584 3137 3096 
Q 3566 2609 3566 1747 
Q 3566 888 3137 398 
Q 2709 -91 1959 -91 
Q 1206 -91 779 398 
Q 353 888 353 1747 
Q 353 2609 779 3096 
Q 1206 3584 1959 3584 
z
" transform="scale(0.015625)"/>
       <path id="DejaVuSans-76" d="M 191 3500 
L 800 3500 
L 1894 563 
L 2988 3500 
L 3597 3500 
L 2284 0 
L 1503 0 
L 191 3500 
z
" transform="scale(0.015625)"/>
       <path id="DejaVuSans-72" d="M 2631 2963 
Q 2534 3019 2420 3045 
Q 2306 3072 2169 3072 
Q 1681 3072 1420 2755 
Q 1159 2438 1159 1844 
L 1159 0 
L 581 0 
L 581 3500 
L 1159 3500 
L 1159 2956 
Q 1341 3275 1631 3429 
Q 1922 3584 2338 3584 
Q 2397 3584 2469 3576 
Q 2541 3569 2628 3553 
L 2631 2963 
z
" transform="scale(0.015625)"/>
       <path id="DejaVuSans-61" d="M 2194 1759 
Q 1497 1759 1228 1600 
Q 959 1441 959 1056 
Q 959 750 1161 570 
Q 1363 391 1709 391 
Q 2188 391 2477 730 
Q 2766 1069 2766 1631 
L 2766 1759 
L 2194 1759 
z
M 3341 1997 
L 3341 0 
L 2766 0 
L 2766 531 
Q 2569 213 2275 61 
Q 1981 -91 1556 -91 
Q 1019 -91 701 211 
Q 384 513 384 1019 
Q 384 1609 779 1909 
Q 1175 2209 1959 2209 
L 2766 2209 
L 2766 2266 
Q 2766 2663 2505 2880 
Q 2244 3097 1772 3097 
Q 1472 3097 1187 3025 
Q 903 2953 641 2809 
L 641 3341 
Q 956 3463 1253 3523 
Q 1550 3584 1831 3584 
Q 2591 3584 2966 3190 
Q 3341 2797 3341 1997 
z
" transform="scale(0.015625)"/>
      </defs>
      <use xlink:href="#DejaVuSans-45"/>
      <use xlink:href="#DejaVuSans-64" x="63.183594"/>
      <use xlink:href="#DejaVuSans-67" x="126.660156"/>
      <use xlink:href="#DejaVuSans-65" x="190.136719"/>
      <use xlink:href="#DejaVuSans-20" x="251.660156"/>
      <use xlink:href="#DejaVuSans-43" x="283.447266"/>
      <use xlink:href="#DejaVuSans-6f" x="353.271484"/>
      <use xlink:href="#DejaVuSans-76" x="414.453125"/>
      <use xlink:href="#DejaVuSans-65" x="473.632812"/>
      <use xlink:href="#DejaVuSans-72" x="535.15625"/>
      <use xlink:href="#DejaVuSans-61" x="576.269531"/>
      <use xlink:href="#DejaVuSans-67" x="637.548828"/>
      <use xlink:href="#DejaVuSans-65" x="701.025391"/>
      <use xlink:href="#DejaVuSans-73" x="762.548828"/>
     </g>
    </g>
   </g>
   <g id="PolyCollection_1">
    <defs>
     <path id="m68525ecea9" d="M 69.602727 -119.437241 
L 69.602727 -83.52 
L 69.602727 -119.437241 
L 69.602727 -119.437241 
z
" style="stroke: #db5f57; stroke-opacity: 0.2; stroke-width: 0.8"/>
    </defs>
    <g clip-path="url(#p58933b5510)">
     <use xlink:href="#m68525ecea9" x="0" y="576" style="fill: #db5f57; fill-opacity: 0.2; stroke: #db5f57; stroke-opacity: 0.2; stroke-width: 0.8"/>
    </g>
   </g>
   <g id="PolyCollection_2">
    <defs>
     <path id="mfe0911ddc3" d="M 69.602727 -112.485517 
L 69.602727 -83.52 
L 69.602727 -112.485517 
L 69.602727 -112.485517 
z
" style="stroke: #b9db57; stroke-opacity: 0.2; stroke-width: 0.8"/>
    </defs>
    <g clip-path="url(#p58933b5510)">
     <use xlink:href="#mfe0911ddc3" x="0" y="576" style="fill: #b9db57; fill-opacity: 0.2; stroke: #b9db57; stroke-opacity: 0.2; stroke-width: 0.8"/>
    </g>
   </g>
   <g id="PolyCollection_3">
    <defs>
     <path id="ma28654210a" d="M 69.602727 -92.788966 
L 69.602727 -83.52 
L 69.602727 -92.788966 
L 69.602727 -92.788966 
z
" style="stroke: #57db94; stroke-opacity: 0.2; stroke-width: 0.8"/>
    </defs>
    <g clip-path="url(#p58933b5510)">
     <use xlink:href="#ma28654210a" x="0" y="576" style="fill: #57db94; fill-opacity: 0.2; stroke: #57db94; stroke-opacity: 0.2; stroke-width: 0.8"/>
    </g>
   </g>
   <g id="PolyCollection_4">
    <defs>
     <path id="mef13141643" d="M 69.602727 -99.161379 
L 69.602727 -83.52 
L 69.602727 -99.161379 
L 69.602727 -99.161379 
z
" style="stroke: #5784db; stroke-opacity: 0.2; stroke-width: 0.8"/>
    </defs>
    <g clip-path="url(#p58933b5510)">
     <use xlink:href="#mef13141643" x="0" y="576" style="fill: #5784db; fill-opacity: 0.2; stroke: #5784db; stroke-opacity: 0.2; stroke-width: 0.8"/>
    </g>
   </g>
   <g id="PolyCollection_5">
    <defs>
     <path id="m2de678d58d" d="M 69.602727 -121.175172 
L 69.602727 -83.52 
L 69.602727 -121.175172 
L 69.602727 -121.175172 
z
" style="stroke: #c957db; stroke-opacity: 0.2; stroke-width: 0.8"/>
    </defs>
    <g clip-path="url(#p58933b5510)">
     <use xlink:href="#m2de678d58d" x="0" y="576" style="fill: #c957db; fill-opacity: 0.2; stroke: #c957db; stroke-opacity: 0.2; stroke-width: 0.8"/>
    </g>
   </g>
   <g id="line2d_27">
    <path d="M 69.602727 474.521379 
L 69.815561 447.873103 
L 70.028394 445.555862 
L 70.241228 438.604138 
L 70.454061 436.866207 
L 70.666895 433.969655 
L 70.879728 433.390345 
L 71.305395 429.914483 
L 71.731062 428.755862 
L 71.943896 422.383448 
L 72.156729 421.804138 
L 72.582396 418.328276 
L 72.795229 418.328276 
L 73.220896 416.590345 
L 73.43373 416.011034 
L 73.646563 411.955862 
L 73.859397 404.424828 
L 75.562065 404.424828 
L 75.774898 398.631724 
L 75.987732 398.052414 
L 76.413399 396.314483 
L 76.626232 395.735172 
L 77.477566 387.045517 
L 77.903233 387.045517 
L 78.3289 384.148966 
L 78.541733 380.673103 
L 79.180234 380.673103 
L 79.393067 380.093793 
L 80.031568 380.093793 
L 80.244401 379.514483 
L 80.457235 376.038621 
L 80.882902 376.038621 
L 81.308569 374.88 
L 81.521402 374.88 
L 81.734236 373.721379 
L 81.947069 373.721379 
L 82.159903 373.142069 
L 82.372736 373.142069 
L 82.58557 371.404138 
L 82.798403 370.824828 
L 83.011237 365.611034 
L 83.649737 365.611034 
L 84.288237 362.714483 
L 84.501071 362.714483 
L 84.713904 362.135172 
L 85.139571 362.135172 
L 85.352405 360.976552 
L 85.778072 360.976552 
L 85.990905 359.817931 
L 86.842239 359.817931 
L 87.055073 357.50069 
L 87.693573 357.50069 
L 87.906407 356.921379 
L 88.11924 351.128276 
L 88.970574 351.128276 
L 89.396241 349.969655 
L 89.821908 349.969655 
L 90.034741 347.073103 
L 90.247575 347.073103 
L 90.673242 345.914483 
L 91.737409 345.914483 
L 91.950243 340.70069 
L 92.163076 339.542069 
L 93.227244 339.542069 
L 93.652911 334.907586 
L 93.865744 334.907586 
L 94.078578 332.590345 
L 95.568412 332.590345 
L 95.781245 327.376552 
L 96.419746 327.376552 
L 96.632579 326.797241 
L 97.058246 326.797241 
L 97.27108 323.321379 
L 97.483913 323.321379 
L 97.90958 322.162759 
L 98.335247 322.162759 
L 98.548081 319.266207 
L 100.463582 319.266207 
L 100.676415 318.107586 
L 101.740583 318.107586 
L 101.953416 316.369655 
L 102.591917 316.369655 
L 102.80475 312.893793 
L 103.656084 312.893793 
L 104.081751 309.417931 
L 104.720252 309.417931 
L 104.933085 307.68 
L 105.358752 307.68 
L 105.571586 303.045517 
L 106.635753 303.045517 
L 106.848586 302.466207 
L 107.69992 302.466207 
L 107.912754 300.148966 
L 108.551254 300.148966 
L 108.764088 299.569655 
L 109.828255 299.569655 
L 110.041089 298.990345 
L 110.253922 298.990345 
L 110.466756 298.411034 
L 110.679589 296.673103 
L 110.892423 296.093793 
L 111.105256 294.935172 
L 111.743756 294.935172 
L 111.95659 294.355862 
L 113.020757 294.355862 
L 113.233591 293.197241 
L 115.149092 293.197241 
L 115.361926 292.617931 
L 116.000426 292.617931 
L 116.21326 292.038621 
L 116.638927 292.038621 
L 116.85176 291.45931 
L 120.257096 291.45931 
L 120.469929 290.30069 
L 121.534097 290.30069 
L 121.74693 289.142069 
L 121.959764 289.142069 
L 122.172597 288.562759 
L 123.236764 288.562759 
L 123.449598 283.928276 
L 123.662431 283.928276 
L 123.875265 281.611034 
L 124.726599 281.611034 
L 125.365099 279.873103 
L 125.577933 279.873103 
L 125.790766 276.397241 
L 127.493434 276.397241 
L 127.706268 269.445517 
L 127.919101 269.445517 
L 128.131935 257.28 
L 128.557601 257.28 
L 128.770435 256.70069 
L 128.983268 243.376552 
L 129.196102 243.376552 
L 129.408935 242.797241 
L 130.473103 242.797241 
L 130.685936 229.473103 
L 132.175771 229.473103 
L 132.388604 223.10069 
L 133.452772 223.10069 
L 133.665605 220.204138 
L 135.368273 220.204138 
L 135.581106 217.886897 
L 136.858107 217.886897 
L 137.070941 216.148966 
L 138.135108 216.148966 
L 138.347942 210.935172 
L 139.624942 210.935172 
L 139.837776 209.197241 
L 140.263443 209.197241 
L 140.476276 208.617931 
L 141.753277 208.617931 
L 141.966111 208.038621 
L 142.178944 208.038621 
L 142.391778 201.086897 
L 142.604611 199.928276 
L 144.945779 199.928276 
L 145.158613 198.769655 
L 145.797113 198.769655 
L 146.009947 198.190345 
L 151.969284 198.190345 
L 152.394951 197.031724 
L 153.671952 197.031724 
L 153.884786 196.452414 
L 154.097619 194.714483 
L 154.310453 194.135172 
L 160.695457 194.135172 
L 160.908291 193.555862 
L 161.333958 190.65931 
L 163.036625 190.65931 
L 163.249459 188.342069 
L 163.462292 188.342069 
L 163.675126 187.762759 
L 163.887959 187.762759 
L 164.100793 187.183448 
L 164.52646 187.183448 
L 164.739293 186.604138 
L 166.441961 186.604138 
L 166.654795 186.024828 
L 167.080461 186.024828 
L 167.506128 181.390345 
L 167.931795 181.390345 
L 168.144629 180.231724 
L 169.42163 180.231724 
L 169.847297 179.073103 
L 171.337131 179.073103 
L 171.549965 178.493793 
L 172.188465 178.493793 
L 172.614132 177.335172 
L 174.529633 177.335172 
L 174.742467 176.755862 
L 175.380967 176.755862 
L 175.593801 175.017931 
L 176.870802 175.017931 
L 177.083635 174.438621 
L 178.360636 174.438621 
L 178.573469 173.85931 
L 180.276137 173.85931 
L 180.488971 173.28 
L 181.127471 173.28 
L 181.340305 172.121379 
L 184.10714 172.121379 
L 184.319973 171.542069 
L 184.958474 171.542069 
L 185.171307 169.224828 
L 190.492144 169.224828 
L 190.704978 167.486897 
L 192.407646 167.486897 
L 192.620479 166.907586 
L 193.471813 166.907586 
L 193.684647 166.328276 
L 195.387314 166.328276 
L 195.600148 165.748966 
L 199.643984 165.748966 
L 199.856818 164.011034 
L 200.282485 164.011034 
L 200.495318 163.431724 
L 200.920985 163.431724 
L 201.133818 161.693793 
L 201.772319 161.693793 
L 201.985152 161.114483 
L 206.880322 161.114483 
L 207.093156 160.535172 
L 209.859991 160.535172 
L 210.072825 159.955862 
L 216.883496 159.955862 
L 217.096329 153.583448 
L 217.947663 153.583448 
L 218.160497 153.004138 
L 219.224664 153.004138 
L 219.437498 150.107586 
L 219.650331 148.948966 
L 221.565833 148.948966 
L 221.778666 148.369655 
L 221.9915 147.211034 
L 222.204333 147.211034 
L 222.417167 143.155862 
L 222.63 143.155862 
L 223.055667 141.997241 
L 236.251343 141.997241 
L 236.464176 141.417931 
L 244.977515 141.417931 
L 245.190349 140.25931 
L 250.298353 140.25931 
L 250.511186 139.68 
L 250.724019 139.68 
L 250.936853 139.10069 
L 251.788187 139.10069 
L 252.00102 138.521379 
L 255.832023 138.521379 
L 256.044856 137.942069 
L 256.25769 136.783448 
L 262.217027 136.783448 
L 262.429861 135.624828 
L 265.622363 135.624828 
L 265.835197 135.045517 
L 266.899364 135.045517 
L 267.112197 133.886897 
L 270.730367 133.886897 
L 270.9432 132.728276 
L 279.243706 132.728276 
L 279.456539 131.569655 
L 281.584874 131.569655 
L 281.797708 130.990345 
L 283.713209 130.990345 
L 283.926042 130.411034 
L 287.757045 130.411034 
L 287.969879 129.831724 
L 289.034046 129.831724 
L 289.24688 129.252414 
L 306.060724 129.252414 
L 306.273558 128.673103 
L 306.912058 128.673103 
L 307.124892 128.093793 
L 369.910769 128.093793 
L 370.123602 126.935172 
L 370.336436 124.617931 
L 372.464771 124.617931 
L 372.677604 124.038621 
L 373.316104 124.038621 
L 373.528938 123.45931 
L 375.657273 123.45931 
L 375.657273 123.45931 
" clip-path="url(#p58933b5510)" style="fill: none; stroke: #db5f57; stroke-width: 1.2; stroke-linecap: round"/>
   </g>
   <g id="line2d_28">
    <path d="M 69.602727 477.997241 
L 69.815561 457.721379 
L 70.241228 444.976552 
L 70.454061 432.231724 
L 70.666895 431.652414 
L 70.879728 431.652414 
L 71.518229 427.597241 
L 71.731062 424.121379 
L 71.943896 423.542069 
L 72.369563 421.804138 
L 73.008063 420.066207 
L 73.220896 420.066207 
L 73.43373 419.486897 
L 73.859397 419.486897 
L 74.07223 418.907586 
L 74.497897 416.590345 
L 74.710731 416.590345 
L 74.923564 415.431724 
L 75.136398 415.431724 
L 75.349231 414.852414 
L 75.562065 413.114483 
L 75.774898 413.114483 
L 76.200565 399.790345 
L 76.413399 399.211034 
L 76.626232 398.052414 
L 77.051899 398.052414 
L 77.264733 397.473103 
L 77.6904 395.735172 
L 77.903233 395.155862 
L 78.116067 395.155862 
L 78.3289 393.417931 
L 78.541733 393.417931 
L 78.754567 392.838621 
L 78.9674 392.838621 
L 79.180234 390.521379 
L 79.393067 389.942069 
L 79.818734 388.204138 
L 80.031568 380.093793 
L 80.244401 362.135172 
L 80.457235 357.50069 
L 83.649737 357.50069 
L 83.86257 356.342069 
L 84.926738 356.342069 
L 85.139571 355.762759 
L 87.48074 355.762759 
L 87.906407 354.604138 
L 88.544907 354.604138 
L 88.970574 353.445517 
L 89.183408 353.445517 
L 89.821908 351.707586 
L 90.034741 351.707586 
L 90.247575 350.548966 
L 90.460408 350.548966 
L 90.673242 349.969655 
L 90.886075 349.969655 
L 91.098909 349.390345 
L 91.524576 349.390345 
L 91.950243 348.231724 
L 92.163076 320.424828 
L 93.440077 320.424828 
L 93.652911 319.845517 
L 94.078578 319.845517 
L 94.291411 319.266207 
L 97.27108 319.266207 
L 97.483913 317.528276 
L 97.696747 301.886897 
L 98.973748 301.886897 
L 99.186581 301.307586 
L 99.399415 301.307586 
L 99.612248 300.728276 
L 100.676415 300.728276 
L 100.889249 296.673103 
L 101.102082 296.093793 
L 104.294585 296.093793 
L 104.507418 293.776552 
L 105.784419 293.776552 
L 105.997252 282.190345 
L 107.274253 282.190345 
L 107.487087 281.611034 
L 110.041089 281.611034 
L 110.253922 277.555862 
L 110.466756 276.976552 
L 110.679589 276.976552 
L 110.892423 276.397241 
L 111.31809 276.397241 
L 111.530923 275.817931 
L 114.084925 275.817931 
L 114.297758 275.238621 
L 116.638927 275.238621 
L 116.85176 274.65931 
L 117.277427 274.65931 
L 117.49026 271.762759 
L 119.831429 271.762759 
L 120.044262 271.183448 
L 122.172597 271.183448 
L 122.385431 268.866207 
L 123.023931 268.866207 
L 123.236764 268.286897 
L 125.365099 268.286897 
L 125.577933 265.969655 
L 125.790766 265.969655 
L 126.0036 265.390345 
L 126.854934 265.390345 
L 127.067767 255.542069 
L 128.344768 255.542069 
L 128.557601 254.962759 
L 129.834602 254.962759 
L 130.047436 254.383448 
L 131.53727 254.383448 
L 131.750104 216.728276 
L 131.962937 216.728276 
L 132.175771 213.831724 
L 133.452772 213.831724 
L 134.091272 212.093793 
L 135.155439 212.093793 
L 135.368273 210.935172 
L 135.581106 210.935172 
L 135.79394 202.824828 
L 136.219607 202.824828 
L 136.43244 202.245517 
L 139.199276 202.245517 
L 139.412109 201.086897 
L 139.624942 195.293793 
L 139.837776 194.714483 
L 140.263443 192.976552 
L 140.476276 192.397241 
L 140.68911 188.342069 
L 140.901943 187.762759 
L 141.540444 187.762759 
L 142.178944 184.866207 
L 142.604611 184.866207 
L 142.817445 181.969655 
L 144.732946 181.969655 
L 144.945779 181.390345 
L 145.371446 181.390345 
L 145.58428 180.811034 
L 147.499781 180.811034 
L 147.712615 179.652414 
L 148.351115 179.652414 
L 148.563949 178.493793 
L 156.864454 178.493793 
L 157.077288 175.017931 
L 160.056957 175.017931 
L 160.26979 174.438621 
L 161.333958 174.438621 
L 161.759624 173.28 
L 164.52646 173.28 
L 164.739293 168.645517 
L 167.506128 168.645517 
L 167.931795 165.748966 
L 168.144629 162.852414 
L 168.783129 162.852414 
L 168.995963 162.273103 
L 174.3168 162.273103 
L 174.529633 161.693793 
L 174.742467 161.693793 
L 174.9553 159.955862 
L 175.168134 159.376552 
L 176.445135 159.376552 
L 176.870802 158.217931 
L 177.722136 158.217931 
L 177.934969 157.05931 
L 180.063304 157.05931 
L 180.276137 156.48 
L 180.701804 156.48 
L 180.914638 155.90069 
L 183.255806 155.90069 
L 183.46864 155.321379 
L 189.215144 155.321379 
L 189.427977 154.742069 
L 189.64081 154.742069 
L 189.853644 154.162759 
L 190.066477 154.162759 
L 190.492144 153.004138 
L 191.130645 153.004138 
L 191.343478 152.424828 
L 191.769145 152.424828 
L 191.981979 151.845517 
L 196.238648 151.845517 
L 196.451482 145.473103 
L 197.515649 145.473103 
L 197.941316 144.314483 
L 199.005484 144.314483 
L 199.218317 143.735172 
L 208.370157 143.735172 
L 208.58299 138.521379 
L 209.859991 132.148966 
L 210.711325 129.831724 
L 217.096329 129.831724 
L 217.521996 127.514483 
L 217.73483 127.514483 
L 218.37333 125.776552 
L 221.9915 125.776552 
L 222.204333 122.30069 
L 222.417167 121.142069 
L 228.589337 121.142069 
L 228.802171 118.245517 
L 229.015004 117.666207 
L 234.123008 117.666207 
L 234.335841 117.086897 
L 236.67701 117.086897 
L 236.889843 116.507586 
L 244.551849 116.507586 
L 244.764682 115.928276 
L 246.254516 115.928276 
L 246.46735 115.348966 
L 247.957184 115.348966 
L 248.170018 114.190345 
L 251.36252 114.190345 
L 251.575353 112.452414 
L 257.960358 112.452414 
L 258.173191 110.714483 
L 262.217027 110.714483 
L 262.429861 109.555862 
L 265.622363 109.555862 
L 265.835197 108.976552 
L 266.04803 108.976552 
L 266.260864 108.397241 
L 267.112197 108.397241 
L 267.325031 107.817931 
L 269.240532 107.817931 
L 269.453366 107.238621 
L 275.19987 107.238621 
L 275.412703 106.65931 
L 282.649042 106.65931 
L 282.861875 106.08 
L 287.331378 106.08 
L 287.544212 104.921379 
L 288.821213 104.921379 
L 289.034046 104.342069 
L 296.696051 104.342069 
L 296.908885 102.604138 
L 351.819923 102.604138 
L 352.24559 100.866207 
L 359.269095 100.866207 
L 359.481928 99.707586 
L 360.758929 99.707586 
L 360.971763 99.128276 
L 361.184596 99.128276 
L 361.39743 98.548966 
L 361.823096 98.548966 
L 362.248763 97.390345 
L 371.82627 97.390345 
L 372.039104 96.811034 
L 373.954605 96.811034 
L 374.167438 96.231724 
L 375.231606 96.231724 
L 375.444439 95.652414 
L 375.657273 95.652414 
L 375.657273 95.652414 
" clip-path="url(#p58933b5510)" style="fill: none; stroke: #b9db57; stroke-width: 1.2; stroke-linecap: round"/>
   </g>
   <g id="line2d_29">
    <path d="M 69.602727 487.845517 
L 69.815561 482.631724 
L 70.028394 455.983448 
L 70.241228 450.769655 
L 70.454061 449.031724 
L 70.879728 447.873103 
L 71.092562 446.714483 
L 71.305395 446.714483 
L 71.518229 446.135172 
L 71.731062 446.135172 
L 72.156729 444.397241 
L 73.008063 442.08 
L 73.220896 439.762759 
L 73.646563 439.762759 
L 74.07223 412.535172 
L 75.562065 412.535172 
L 75.774898 410.217931 
L 75.987732 405.583448 
L 76.200565 405.583448 
L 76.626232 404.424828 
L 76.839066 394.576552 
L 77.264733 394.576552 
L 77.477566 393.997241 
L 78.3289 393.997241 
L 78.541733 393.417931 
L 79.605901 393.417931 
L 80.457235 391.10069 
L 80.670068 384.728276 
L 80.882902 374.88 
L 81.308569 374.88 
L 81.521402 373.142069 
L 81.734236 373.142069 
L 82.159903 371.983448 
L 82.798403 371.983448 
L 83.011237 371.404138 
L 83.22407 371.404138 
L 83.436904 363.873103 
L 83.86257 363.873103 
L 84.075404 362.135172 
L 84.288237 362.135172 
L 84.501071 360.397241 
L 87.055073 360.397241 
L 87.267906 351.128276 
L 88.11924 351.128276 
L 88.332074 350.548966 
L 88.544907 349.390345 
L 89.396241 349.390345 
L 89.609074 347.073103 
L 94.078578 347.073103 
L 94.291411 346.493793 
L 96.845413 346.493793 
L 97.058246 324.48 
L 99.186581 324.48 
L 99.399415 316.948966 
L 99.612248 316.948966 
L 99.825082 316.369655 
L 101.527749 316.369655 
L 101.740583 314.052414 
L 103.656084 314.052414 
L 103.868918 307.10069 
L 105.784419 307.10069 
L 105.997252 298.990345 
L 106.848586 298.990345 
L 107.06142 298.411034 
L 110.679589 298.411034 
L 110.892423 293.197241 
L 114.936259 293.197241 
L 115.149092 290.30069 
L 119.405762 290.30069 
L 119.618595 288.562759 
L 120.682763 288.562759 
L 120.895596 287.983448 
L 127.067767 287.983448 
L 127.280601 273.50069 
L 130.685936 273.50069 
L 130.89877 232.948966 
L 133.027105 232.948966 
L 133.239938 224.838621 
L 136.219607 224.838621 
L 136.43244 219.045517 
L 138.773609 219.045517 
L 138.986442 213.252414 
L 139.199276 213.252414 
L 139.412109 212.673103 
L 140.68911 212.673103 
L 140.901943 206.30069 
L 141.540444 206.30069 
L 141.753277 204.562759 
L 142.604611 204.562759 
L 142.817445 199.928276 
L 148.138282 199.928276 
L 148.351115 196.452414 
L 152.820618 196.452414 
L 153.246285 194.714483 
L 154.097619 194.714483 
L 154.310453 192.976552 
L 160.908291 192.976552 
L 161.121124 192.397241 
L 162.823792 192.397241 
L 163.036625 188.342069 
L 163.249459 188.342069 
L 163.462292 187.762759 
L 164.52646 187.762759 
L 164.739293 186.024828 
L 166.229128 186.024828 
L 166.441961 185.445517 
L 167.718962 185.445517 
L 167.931795 181.390345 
L 171.762798 181.390345 
L 171.975632 179.073103 
L 173.891133 179.073103 
L 174.103966 178.493793 
L 176.657968 178.493793 
L 176.870802 177.914483 
L 179.85047 177.914483 
L 180.063304 176.755862 
L 181.340305 176.755862 
L 181.553138 170.962759 
L 183.46864 170.962759 
L 183.681473 170.383448 
L 187.299642 170.383448 
L 187.512476 168.645517 
L 187.725309 168.066207 
L 191.130645 168.066207 
L 191.343478 165.169655 
L 195.600148 165.169655 
L 195.812981 164.011034 
L 198.366983 164.011034 
L 198.579817 162.852414 
L 202.410819 162.852414 
L 202.623653 158.797241 
L 210.924159 158.797241 
L 211.136992 149.528276 
L 213.052493 149.528276 
L 213.265327 148.948966 
L 217.521996 148.948966 
L 217.73483 146.631724 
L 219.863165 146.631724 
L 220.075998 145.473103 
L 221.140166 145.473103 
L 221.352999 144.893793 
L 222.417167 144.893793 
L 222.63 140.838621 
L 222.842833 140.25931 
L 223.055667 140.25931 
L 223.2685 139.68 
L 229.227838 139.68 
L 229.440671 139.10069 
L 236.464176 139.10069 
L 236.67701 138.521379 
L 246.254516 138.521379 
L 246.46735 137.362759 
L 246.680183 137.362759 
L 246.893017 136.783448 
L 251.149686 136.783448 
L 251.36252 135.624828 
L 251.575353 135.624828 
L 251.788187 135.045517 
L 258.386025 135.045517 
L 258.598858 133.307586 
L 262.004194 133.307586 
L 262.217027 132.728276 
L 265.196696 132.728276 
L 265.40953 132.148966 
L 266.473697 132.148966 
L 266.686531 130.990345 
L 267.325031 130.990345 
L 267.537864 130.411034 
L 271.581701 130.411034 
L 271.794534 129.831724 
L 276.264037 129.831724 
L 276.476871 128.673103 
L 282.649042 128.673103 
L 282.861875 127.514483 
L 285.203043 127.514483 
L 285.415877 126.935172 
L 285.62871 126.935172 
L 285.841544 126.355862 
L 287.969879 126.355862 
L 288.182712 125.776552 
L 291.375214 125.776552 
L 291.588048 125.197241 
L 294.354883 125.197241 
L 294.567717 124.617931 
L 335.006078 124.617931 
L 335.218911 124.038621 
L 346.924753 124.038621 
L 347.137586 123.45931 
L 351.607089 123.45931 
L 351.819923 122.88 
L 359.056261 122.88 
L 359.269095 121.721379 
L 360.758929 121.721379 
L 360.971763 121.142069 
L 366.718267 121.142069 
L 366.9311 118.824828 
L 375.657273 118.824828 
L 375.657273 118.824828 
" clip-path="url(#p58933b5510)" style="fill: none; stroke: #57db94; stroke-width: 1.2; stroke-linecap: round"/>
   </g>
   <g id="line2d_30">
    <path d="M 69.602727 484.65931 
L 69.815561 476.838621 
L 70.241228 475.68 
L 71.092562 475.68 
L 71.305395 443.817931 
L 71.518229 434.548966 
L 72.582396 420.066207 
L 73.008063 418.328276 
L 73.43373 417.169655 
L 73.859397 417.169655 
L 74.07223 409.638621 
L 74.710731 409.638621 
L 74.923564 409.05931 
L 75.136398 409.05931 
L 75.349231 408.48 
L 76.413399 408.48 
L 76.626232 407.321379 
L 77.6904 407.321379 
L 77.903233 403.266207 
L 78.116067 387.624828 
L 78.3289 387.624828 
L 78.541733 387.045517 
L 79.180234 387.045517 
L 80.031568 384.728276 
L 80.244401 377.197241 
L 80.670068 377.197241 
L 80.882902 376.617931 
L 81.308569 376.617931 
L 81.521402 376.038621 
L 81.734236 376.038621 
L 81.947069 374.30069 
L 82.159903 370.824828 
L 82.58557 369.666207 
L 83.22407 369.666207 
L 83.436904 365.611034 
L 83.86257 365.611034 
L 84.288237 362.714483 
L 84.713904 361.555862 
L 85.565238 361.555862 
L 85.778072 360.976552 
L 85.990905 360.976552 
L 86.203739 360.397241 
L 86.629406 360.397241 
L 86.842239 359.817931 
L 87.055073 358.08 
L 87.267906 353.445517 
L 88.332074 353.445517 
L 88.544907 351.707586 
L 91.737409 351.707586 
L 91.950243 349.390345 
L 92.163076 341.28 
L 92.801577 341.28 
L 93.01441 340.121379 
L 107.274253 340.121379 
L 107.69992 303.045517 
L 109.828255 303.045517 
L 110.041089 300.728276 
L 110.253922 300.728276 
L 110.466756 297.831724 
L 110.679589 297.831724 
L 110.892423 297.252414 
L 111.105256 297.252414 
L 111.530923 295.514483 
L 112.382257 295.514483 
L 112.59509 294.935172 
L 118.554428 294.935172 
L 118.767261 292.617931 
L 120.895596 292.617931 
L 121.10843 291.45931 
L 121.534097 291.45931 
L 121.74693 290.30069 
L 128.344768 290.30069 
L 128.557601 257.85931 
L 132.175771 257.85931 
L 132.388604 228.893793 
L 135.581106 228.893793 
L 135.79394 218.466207 
L 140.050609 218.466207 
L 140.263443 209.776552 
L 143.243112 209.776552 
L 143.455945 201.086897 
L 155.161787 201.086897 
L 155.37462 195.873103 
L 164.313626 195.873103 
L 164.52646 188.921379 
L 168.357462 188.921379 
L 168.570296 181.969655 
L 173.039799 181.969655 
L 173.252632 179.073103 
L 177.083635 179.073103 
L 177.296469 175.597241 
L 181.553138 175.597241 
L 181.765972 173.28 
L 183.255806 173.28 
L 183.46864 172.70069 
L 185.384141 172.70069 
L 185.596974 170.383448 
L 187.938143 170.383448 
L 188.150976 169.804138 
L 189.215144 169.804138 
L 189.427977 169.224828 
L 194.110314 169.224828 
L 194.323147 166.328276 
L 198.15415 166.328276 
L 198.366983 165.169655 
L 201.346652 165.169655 
L 201.559485 162.273103 
L 202.623653 162.273103 
L 202.836486 161.693793 
L 210.498492 161.693793 
L 210.711325 160.535172 
L 211.136992 160.535172 
L 211.349826 154.742069 
L 214.755161 154.742069 
L 214.967995 154.162759 
L 229.015004 154.162759 
L 229.227838 140.25931 
L 236.251343 140.25931 
L 236.464176 139.68 
L 246.680183 139.68 
L 246.893017 137.942069 
L 250.511186 137.942069 
L 250.724019 137.362759 
L 254.129355 137.362759 
L 254.342189 136.204138 
L 257.321857 136.204138 
L 257.534691 134.466207 
L 265.196696 134.466207 
L 265.40953 133.307586 
L 268.602032 133.307586 
L 268.814865 131.569655 
L 269.453366 131.569655 
L 269.666199 130.990345 
L 271.156034 130.990345 
L 271.368867 130.411034 
L 274.561369 130.411034 
L 274.774203 129.831724 
L 275.625537 129.831724 
L 275.83837 129.252414 
L 281.797708 129.252414 
L 282.223375 128.093793 
L 285.62871 128.093793 
L 285.841544 127.514483 
L 289.24688 127.514483 
L 289.459713 126.935172 
L 307.763392 126.935172 
L 307.976226 125.776552 
L 352.032756 125.776552 
L 352.24559 124.617931 
L 359.481928 124.617931 
L 359.694762 124.038621 
L 363.525764 124.038621 
L 363.738598 121.721379 
L 374.805939 121.721379 
L 375.018772 119.983448 
L 375.657273 119.983448 
L 375.657273 119.983448 
" clip-path="url(#p58933b5510)" style="fill: none; stroke: #5784db; stroke-width: 1.2; stroke-linecap: round"/>
   </g>
   <g id="line2d_31">
    <path d="M 69.602727 473.652414 
L 69.815561 445.555862 
L 70.028394 442.08 
L 70.241228 434.548966 
L 71.092562 427.017931 
L 71.731062 418.907586 
L 72.156729 411.376552 
L 72.795229 405.004138 
L 73.008063 405.004138 
L 73.220896 404.424828 
L 73.646563 402.107586 
L 73.859397 396.314483 
L 74.07223 396.314483 
L 74.285064 395.735172 
L 74.710731 395.735172 
L 74.923564 395.155862 
L 75.136398 395.155862 
L 75.349231 394.576552 
L 75.562065 394.576552 
L 75.987732 387.624828 
L 77.477566 376.038621 
L 77.6904 376.038621 
L 77.903233 375.45931 
L 78.116067 373.721379 
L 78.3289 373.721379 
L 78.541733 369.086897 
L 78.9674 369.086897 
L 79.180234 368.507586 
L 80.244401 363.293793 
L 80.670068 363.293793 
L 80.882902 362.714483 
L 81.095735 362.714483 
L 81.308569 362.135172 
L 81.521402 362.135172 
L 81.947069 360.397241 
L 82.159903 356.921379 
L 82.372736 356.342069 
L 82.58557 354.024828 
L 82.798403 353.445517 
L 83.011237 352.286897 
L 83.649737 352.286897 
L 83.86257 350.548966 
L 84.075404 349.969655 
L 84.288237 348.811034 
L 84.501071 348.811034 
L 84.713904 348.231724 
L 84.926738 348.231724 
L 85.139571 347.652414 
L 85.565238 347.652414 
L 85.990905 346.493793 
L 86.629406 346.493793 
L 86.842239 345.914483 
L 87.055073 344.176552 
L 87.267906 339.542069 
L 87.693573 339.542069 
L 87.906407 338.962759 
L 88.11924 337.804138 
L 88.757741 337.804138 
L 89.183408 336.645517 
L 89.609074 334.907586 
L 89.821908 334.907586 
L 90.673242 330.852414 
L 91.737409 330.852414 
L 91.950243 326.217931 
L 92.163076 325.05931 
L 93.227244 325.05931 
L 93.652911 320.424828 
L 93.865744 320.424828 
L 94.291411 317.528276 
L 95.568412 317.528276 
L 95.781245 312.893793 
L 96.419746 312.893793 
L 96.632579 312.314483 
L 97.058246 312.314483 
L 97.483913 307.10069 
L 97.90958 305.942069 
L 98.335247 305.942069 
L 98.548081 304.204138 
L 99.399415 304.204138 
L 99.825082 303.045517 
L 100.463582 303.045517 
L 101.102082 301.307586 
L 101.740583 301.307586 
L 101.953416 299.569655 
L 102.591917 299.569655 
L 102.80475 296.673103 
L 103.656084 296.673103 
L 104.081751 293.197241 
L 104.294585 293.197241 
L 104.507418 290.88 
L 104.720252 290.88 
L 104.933085 289.142069 
L 105.358752 289.142069 
L 105.571586 286.824828 
L 105.784419 286.824828 
L 105.997252 286.245517 
L 106.635753 286.245517 
L 106.848586 285.666207 
L 107.274253 285.666207 
L 107.487087 285.086897 
L 107.69992 285.086897 
L 107.912754 283.928276 
L 108.551254 283.928276 
L 108.764088 283.348966 
L 109.828255 283.348966 
L 110.041089 282.769655 
L 110.466756 280.452414 
L 110.679589 280.452414 
L 110.892423 279.873103 
L 111.105256 278.714483 
L 111.31809 278.714483 
L 111.530923 278.135172 
L 111.743756 278.135172 
L 111.95659 277.555862 
L 113.020757 277.555862 
L 113.233591 276.976552 
L 115.149092 276.976552 
L 115.361926 276.397241 
L 116.000426 276.397241 
L 116.21326 275.817931 
L 116.638927 275.817931 
L 116.85176 275.238621 
L 119.831429 275.238621 
L 120.044262 274.65931 
L 121.534097 274.65931 
L 121.74693 273.50069 
L 121.959764 273.50069 
L 122.172597 272.921379 
L 122.385431 270.604138 
L 123.023931 270.604138 
L 123.236764 270.024828 
L 123.449598 268.286897 
L 123.662431 268.286897 
L 123.875265 265.969655 
L 124.726599 265.969655 
L 125.365099 264.231724 
L 125.790766 259.597241 
L 126.0036 259.017931 
L 127.493434 259.017931 
L 127.706268 252.645517 
L 127.919101 252.645517 
L 128.131935 240.48 
L 128.344768 240.48 
L 128.770435 239.321379 
L 128.983268 226.576552 
L 129.196102 226.576552 
L 129.408935 225.997241 
L 129.834602 225.997241 
L 130.047436 225.417931 
L 130.473103 225.417931 
L 130.685936 212.673103 
L 131.962937 212.673103 
L 132.175771 209.776552 
L 132.388604 204.562759 
L 133.452772 204.562759 
L 133.665605 201.666207 
L 134.091272 200.507586 
L 135.155439 200.507586 
L 135.79394 198.769655 
L 136.219607 198.769655 
L 136.43244 198.190345 
L 136.858107 198.190345 
L 137.070941 197.611034 
L 138.135108 197.611034 
L 138.347942 192.397241 
L 139.199276 192.397241 
L 139.837776 188.921379 
L 140.263443 188.921379 
L 140.476276 187.762759 
L 140.68911 184.286897 
L 140.901943 183.707586 
L 141.540444 183.707586 
L 142.604611 177.914483 
L 144.732946 177.914483 
L 145.158613 176.755862 
L 145.371446 176.755862 
L 145.58428 176.176552 
L 145.797113 176.176552 
L 146.009947 175.597241 
L 147.499781 175.597241 
L 147.712615 174.438621 
L 151.969284 174.438621 
L 152.394951 173.28 
L 153.033452 173.28 
L 153.246285 172.70069 
L 153.671952 172.70069 
L 153.884786 172.121379 
L 154.097619 170.383448 
L 160.056957 170.383448 
L 160.26979 169.804138 
L 160.908291 169.804138 
L 161.333958 166.907586 
L 161.759624 165.748966 
L 163.036625 165.748966 
L 163.675126 164.011034 
L 163.887959 164.011034 
L 164.100793 163.431724 
L 164.52646 163.431724 
L 164.739293 162.852414 
L 166.441961 162.852414 
L 166.654795 162.273103 
L 167.080461 162.273103 
L 167.506128 157.638621 
L 167.718962 157.638621 
L 168.144629 156.48 
L 168.783129 156.48 
L 168.995963 155.90069 
L 169.634463 155.90069 
L 169.847297 155.321379 
L 172.401299 155.321379 
L 172.614132 154.742069 
L 174.3168 154.742069 
L 174.529633 154.162759 
L 174.742467 154.162759 
L 175.168134 153.004138 
L 175.380967 153.004138 
L 175.593801 152.424828 
L 176.657968 152.424828 
L 177.083635 150.686897 
L 178.360636 150.686897 
L 178.573469 150.107586 
L 179.85047 150.107586 
L 180.276137 148.369655 
L 180.488971 147.790345 
L 180.701804 147.790345 
L 180.914638 147.211034 
L 183.255806 147.211034 
L 183.46864 146.631724 
L 184.958474 146.631724 
L 185.171307 144.314483 
L 187.938143 144.314483 
L 188.150976 143.735172 
L 189.215144 143.735172 
L 189.427977 143.155862 
L 189.64081 143.155862 
L 189.853644 142.576552 
L 190.066477 142.576552 
L 190.492144 141.417931 
L 191.130645 141.417931 
L 191.343478 140.838621 
L 193.471813 140.838621 
L 193.684647 140.25931 
L 195.387314 140.25931 
L 195.600148 139.68 
L 197.515649 139.68 
L 197.941316 138.521379 
L 199.005484 138.521379 
L 199.218317 137.942069 
L 199.643984 137.942069 
L 199.856818 137.362759 
L 200.282485 137.362759 
L 200.495318 136.783448 
L 200.920985 136.783448 
L 201.133818 135.045517 
L 201.772319 135.045517 
L 201.985152 134.466207 
L 208.370157 134.466207 
L 209.008657 129.831724 
L 209.647158 126.935172 
L 209.859991 126.355862 
L 210.285658 124.617931 
L 210.498492 124.038621 
L 213.052493 124.038621 
L 213.265327 123.45931 
L 217.096329 123.45931 
L 217.521996 121.142069 
L 217.73483 121.142069 
L 218.37333 119.404138 
L 219.437498 119.404138 
L 219.650331 118.824828 
L 221.140166 118.824828 
L 221.352999 118.245517 
L 221.9915 118.245517 
L 222.417167 113.031724 
L 222.63 113.031724 
L 223.055667 111.873103 
L 228.802171 111.873103 
L 229.015004 111.293793 
L 234.123008 111.293793 
L 234.335841 110.714483 
L 236.464176 110.714483 
L 236.67701 110.135172 
L 244.977515 110.135172 
L 245.190349 108.976552 
L 246.254516 108.976552 
L 246.46735 108.397241 
L 250.298353 108.397241 
L 250.511186 107.817931 
L 250.724019 107.817931 
L 250.936853 107.238621 
L 251.36252 107.238621 
L 251.575353 106.65931 
L 255.832023 106.65931 
L 256.044856 106.08 
L 256.25769 104.921379 
L 262.004194 104.921379 
L 262.429861 103.762759 
L 265.622363 103.762759 
L 265.835197 103.183448 
L 266.04803 103.183448 
L 266.260864 102.604138 
L 266.899364 102.604138 
L 267.112197 102.024828 
L 269.240532 102.024828 
L 269.453366 101.445517 
L 274.561369 101.445517 
L 274.774203 100.866207 
L 275.19987 100.866207 
L 275.412703 100.286897 
L 281.584874 100.286897 
L 281.797708 99.707586 
L 282.010541 99.707586 
L 282.223375 99.128276 
L 283.713209 99.128276 
L 283.926042 98.548966 
L 285.203043 98.548966 
L 285.415877 97.969655 
L 287.757045 97.969655 
L 287.969879 97.390345 
L 291.375214 97.390345 
L 291.588048 96.811034 
L 294.354883 96.811034 
L 294.567717 96.231724 
L 346.924753 96.231724 
L 347.137586 95.652414 
L 351.607089 95.652414 
L 351.819923 95.073103 
L 352.032756 95.073103 
L 352.24559 93.914483 
L 359.269095 93.914483 
L 359.481928 93.335172 
L 360.758929 93.335172 
L 360.971763 92.755862 
L 361.184596 92.755862 
L 361.39743 92.176552 
L 361.823096 92.176552 
L 362.248763 91.017931 
L 371.82627 91.017931 
L 372.039104 90.438621 
L 373.316104 90.438621 
L 373.528938 89.85931 
L 373.954605 89.85931 
L 374.167438 89.28 
L 375.657273 89.28 
L 375.657273 89.28 
" clip-path="url(#p58933b5510)" style="fill: none; stroke: #c957db; stroke-width: 1.2; stroke-linecap: round"/>
   </g>
   <g id="line2d_32"/>
   <g id="line2d_33"/>
   <g id="line2d_34"/>
   <g id="line2d_35"/>
   <g id="line2d_36"/>
   <g id="patch_3">
    <path d="M 54.3 512.64 
L 54.3 69.12 
" style="fill: none; stroke: #cccccc; stroke-linejoin: miter; stroke-linecap: square"/>
   </g>
   <g id="patch_4">
    <path d="M 54.3 512.64 
L 390.96 512.64 
" style="fill: none; stroke: #cccccc; stroke-linejoin: miter; stroke-linecap: square"/>
   </g>
   <g id="text_29">
    <!-- Edge Coverage History -->
    <g style="fill: #262626" transform="translate(115.738512 63.12)scale(0.165888 -0.165888)">
     <defs>
      <path id="DejaVuSans-Bold-45" d="M 588 4666 
L 3834 4666 
L 3834 3756 
L 1791 3756 
L 1791 2888 
L 3713 2888 
L 3713 1978 
L 1791 1978 
L 1791 909 
L 3903 909 
L 3903 0 
L 588 0 
L 588 4666 
z
" transform="scale(0.015625)"/>
      <path id="DejaVuSans-Bold-64" d="M 2919 2988 
L 2919 4863 
L 4044 4863 
L 4044 0 
L 2919 0 
L 2919 506 
Q 2688 197 2409 53 
Q 2131 -91 1766 -91 
Q 1119 -91 703 423 
Q 288 938 288 1747 
Q 288 2556 703 3070 
Q 1119 3584 1766 3584 
Q 2128 3584 2408 3439 
Q 2688 3294 2919 2988 
z
M 2181 722 
Q 2541 722 2730 984 
Q 2919 1247 2919 1747 
Q 2919 2247 2730 2509 
Q 2541 2772 2181 2772 
Q 1825 2772 1636 2509 
Q 1447 2247 1447 1747 
Q 1447 1247 1636 984 
Q 1825 722 2181 722 
z
" transform="scale(0.015625)"/>
      <path id="DejaVuSans-Bold-67" d="M 2919 594 
Q 2688 288 2409 144 
Q 2131 0 1766 0 
Q 1125 0 706 504 
Q 288 1009 288 1791 
Q 288 2575 706 3076 
Q 1125 3578 1766 3578 
Q 2131 3578 2409 3434 
Q 2688 3291 2919 2981 
L 2919 3500 
L 4044 3500 
L 4044 353 
Q 4044 -491 3511 -936 
Q 2978 -1381 1966 -1381 
Q 1638 -1381 1331 -1331 
Q 1025 -1281 716 -1178 
L 716 -306 
Q 1009 -475 1290 -558 
Q 1572 -641 1856 -641 
Q 2406 -641 2662 -400 
Q 2919 -159 2919 353 
L 2919 594 
z
M 2181 2772 
Q 1834 2772 1640 2515 
Q 1447 2259 1447 1791 
Q 1447 1309 1634 1061 
Q 1822 813 2181 813 
Q 2531 813 2725 1069 
Q 2919 1325 2919 1791 
Q 2919 2259 2725 2515 
Q 2531 2772 2181 2772 
z
" transform="scale(0.015625)"/>
      <path id="DejaVuSans-Bold-65" d="M 4031 1759 
L 4031 1441 
L 1416 1441 
Q 1456 1047 1700 850 
Q 1944 653 2381 653 
Q 2734 653 3104 758 
Q 3475 863 3866 1075 
L 3866 213 
Q 3469 63 3072 -14 
Q 2675 -91 2278 -91 
Q 1328 -91 801 392 
Q 275 875 275 1747 
Q 275 2603 792 3093 
Q 1309 3584 2216 3584 
Q 3041 3584 3536 3087 
Q 4031 2591 4031 1759 
z
M 2881 2131 
Q 2881 2450 2695 2645 
Q 2509 2841 2209 2841 
Q 1884 2841 1681 2658 
Q 1478 2475 1428 2131 
L 2881 2131 
z
" transform="scale(0.015625)"/>
      <path id="DejaVuSans-Bold-20" transform="scale(0.015625)"/>
      <path id="DejaVuSans-Bold-43" d="M 4288 256 
Q 3956 84 3597 -3 
Q 3238 -91 2847 -91 
Q 1681 -91 1000 561 
Q 319 1213 319 2328 
Q 319 3447 1000 4098 
Q 1681 4750 2847 4750 
Q 3238 4750 3597 4662 
Q 3956 4575 4288 4403 
L 4288 3438 
Q 3953 3666 3628 3772 
Q 3303 3878 2944 3878 
Q 2300 3878 1931 3465 
Q 1563 3053 1563 2328 
Q 1563 1606 1931 1193 
Q 2300 781 2944 781 
Q 3303 781 3628 887 
Q 3953 994 4288 1222 
L 4288 256 
z
" transform="scale(0.015625)"/>
      <path id="DejaVuSans-Bold-6f" d="M 2203 2784 
Q 1831 2784 1636 2517 
Q 1441 2250 1441 1747 
Q 1441 1244 1636 976 
Q 1831 709 2203 709 
Q 2569 709 2762 976 
Q 2956 1244 2956 1747 
Q 2956 2250 2762 2517 
Q 2569 2784 2203 2784 
z
M 2203 3584 
Q 3106 3584 3614 3096 
Q 4122 2609 4122 1747 
Q 4122 884 3614 396 
Q 3106 -91 2203 -91 
Q 1297 -91 786 396 
Q 275 884 275 1747 
Q 275 2609 786 3096 
Q 1297 3584 2203 3584 
z
" transform="scale(0.015625)"/>
      <path id="DejaVuSans-Bold-76" d="M 97 3500 
L 1216 3500 
L 2088 1081 
L 2956 3500 
L 4078 3500 
L 2700 0 
L 1472 0 
L 97 3500 
z
" transform="scale(0.015625)"/>
      <path id="DejaVuSans-Bold-72" d="M 3138 2547 
Q 2991 2616 2845 2648 
Q 2700 2681 2553 2681 
Q 2122 2681 1889 2404 
Q 1656 2128 1656 1613 
L 1656 0 
L 538 0 
L 538 3500 
L 1656 3500 
L 1656 2925 
Q 1872 3269 2151 3426 
Q 2431 3584 2822 3584 
Q 2878 3584 2943 3579 
Q 3009 3575 3134 3559 
L 3138 2547 
z
" transform="scale(0.015625)"/>
      <path id="DejaVuSans-Bold-61" d="M 2106 1575 
Q 1756 1575 1579 1456 
Q 1403 1338 1403 1106 
Q 1403 894 1545 773 
Q 1688 653 1941 653 
Q 2256 653 2472 879 
Q 2688 1106 2688 1447 
L 2688 1575 
L 2106 1575 
z
M 3816 1997 
L 3816 0 
L 2688 0 
L 2688 519 
Q 2463 200 2181 54 
Q 1900 -91 1497 -91 
Q 953 -91 614 226 
Q 275 544 275 1050 
Q 275 1666 698 1953 
Q 1122 2241 2028 2241 
L 2688 2241 
L 2688 2328 
Q 2688 2594 2478 2717 
Q 2269 2841 1825 2841 
Q 1466 2841 1156 2769 
Q 847 2697 581 2553 
L 581 3406 
Q 941 3494 1303 3539 
Q 1666 3584 2028 3584 
Q 2975 3584 3395 3211 
Q 3816 2838 3816 1997 
z
" transform="scale(0.015625)"/>
      <path id="DejaVuSans-Bold-48" d="M 588 4666 
L 1791 4666 
L 1791 2888 
L 3566 2888 
L 3566 4666 
L 4769 4666 
L 4769 0 
L 3566 0 
L 3566 1978 
L 1791 1978 
L 1791 0 
L 588 0 
L 588 4666 
z
" transform="scale(0.015625)"/>
      <path id="DejaVuSans-Bold-69" d="M 538 3500 
L 1656 3500 
L 1656 0 
L 538 0 
L 538 3500 
z
M 538 4863 
L 1656 4863 
L 1656 3950 
L 538 3950 
L 538 4863 
z
" transform="scale(0.015625)"/>
      <path id="DejaVuSans-Bold-73" d="M 3272 3391 
L 3272 2541 
Q 2913 2691 2578 2766 
Q 2244 2841 1947 2841 
Q 1628 2841 1473 2761 
Q 1319 2681 1319 2516 
Q 1319 2381 1436 2309 
Q 1553 2238 1856 2203 
L 2053 2175 
Q 2913 2066 3209 1816 
Q 3506 1566 3506 1031 
Q 3506 472 3093 190 
Q 2681 -91 1863 -91 
Q 1516 -91 1145 -36 
Q 775 19 384 128 
L 384 978 
Q 719 816 1070 734 
Q 1422 653 1784 653 
Q 2113 653 2278 743 
Q 2444 834 2444 1013 
Q 2444 1163 2330 1236 
Q 2216 1309 1875 1350 
L 1678 1375 
Q 931 1469 631 1722 
Q 331 1975 331 2491 
Q 331 3047 712 3315 
Q 1094 3584 1881 3584 
Q 2191 3584 2531 3537 
Q 2872 3491 3272 3391 
z
" transform="scale(0.015625)"/>
      <path id="DejaVuSans-Bold-74" d="M 1759 4494 
L 1759 3500 
L 2913 3500 
L 2913 2700 
L 1759 2700 
L 1759 1216 
Q 1759 972 1856 886 
Q 1953 800 2241 800 
L 2816 800 
L 2816 0 
L 1856 0 
Q 1194 0 917 276 
Q 641 553 641 1216 
L 641 2700 
L 84 2700 
L 84 3500 
L 641 3500 
L 641 4494 
L 1759 4494 
z
" transform="scale(0.015625)"/>
      <path id="DejaVuSans-Bold-79" d="M 78 3500 
L 1197 3500 
L 2138 1125 
L 2938 3500 
L 4056 3500 
L 2584 -331 
Q 2363 -916 2067 -1148 
Q 1772 -1381 1288 -1381 
L 641 -1381 
L 641 -647 
L 991 -647 
Q 1275 -647 1404 -556 
Q 1534 -466 1606 -231 
L 1638 -134 
L 78 3500 
z
" transform="scale(0.015625)"/>
     </defs>
     <use xlink:href="#DejaVuSans-Bold-45"/>
     <use xlink:href="#DejaVuSans-Bold-64" x="68.310547"/>
     <use xlink:href="#DejaVuSans-Bold-67" x="139.892578"/>
     <use xlink:href="#DejaVuSans-Bold-65" x="211.474609"/>
     <use xlink:href="#DejaVuSans-Bold-20" x="279.296875"/>
     <use xlink:href="#DejaVuSans-Bold-43" x="314.111328"/>
     <use xlink:href="#DejaVuSans-Bold-6f" x="387.5"/>
     <use xlink:href="#DejaVuSans-Bold-76" x="456.201172"/>
     <use xlink:href="#DejaVuSans-Bold-65" x="521.386719"/>
     <use xlink:href="#DejaVuSans-Bold-72" x="589.208984"/>
     <use xlink:href="#DejaVuSans-Bold-61" x="638.525391"/>
     <use xlink:href="#DejaVuSans-Bold-67" x="706.005859"/>
     <use xlink:href="#DejaVuSans-Bold-65" x="777.587891"/>
     <use xlink:href="#DejaVuSans-Bold-20" x="845.410156"/>
     <use xlink:href="#DejaVuSans-Bold-48" x="880.224609"/>
     <use xlink:href="#DejaVuSans-Bold-69" x="963.916016"/>
     <use xlink:href="#DejaVuSans-Bold-73" x="998.193359"/>
     <use xlink:href="#DejaVuSans-Bold-74" x="1057.714844"/>
     <use xlink:href="#DejaVuSans-Bold-6f" x="1105.517578"/>
     <use xlink:href="#DejaVuSans-Bold-72" x="1174.21875"/>
     <use xlink:href="#DejaVuSans-Bold-79" x="1223.535156"/>
    </g>
   </g>
   <g id="legend_1">
    <g id="patch_5">
     <path d="M 60.46 154.6795 
L 171.989 154.6795 
Q 173.749 154.6795 173.749 152.9195 
L 173.749 75.28 
Q 173.749 73.52 171.989 73.52 
L 60.46 73.52 
Q 58.7 73.52 58.7 75.28 
L 58.7 152.9195 
Q 58.7 154.6795 60.46 154.6795 
z
" style="fill: #ffffff; opacity: 0.8; stroke: #cccccc; stroke-width: 0.8; stroke-linejoin: miter"/>
    </g>
    <g id="text_30">
     <!-- fuzzer -->
     <g style="fill: #262626" transform="translate(101.5275 84.3345)scale(0.096 -0.096)">
      <defs>
       <path id="DejaVuSans-66" d="M 2375 4863 
L 2375 4384 
L 1825 4384 
Q 1516 4384 1395 4259 
Q 1275 4134 1275 3809 
L 1275 3500 
L 2222 3500 
L 2222 3053 
L 1275 3053 
L 1275 0 
L 697 0 
L 697 3053 
L 147 3053 
L 147 3500 
L 697 3500 
L 697 3744 
Q 697 4328 969 4595 
Q 1241 4863 1831 4863 
L 2375 4863 
z
" transform="scale(0.015625)"/>
       <path id="DejaVuSans-7a" d="M 353 3500 
L 3084 3500 
L 3084 2975 
L 922 459 
L 3084 459 
L 3084 0 
L 275 0 
L 275 525 
L 2438 3041 
L 353 3041 
L 353 3500 
z
" transform="scale(0.015625)"/>
      </defs>
      <use xlink:href="#DejaVuSans-66"/>
      <use xlink:href="#DejaVuSans-75" x="35.205078"/>
      <use xlink:href="#DejaVuSans-7a" x="98.583984"/>
      <use xlink:href="#DejaVuSans-7a" x="151.074219"/>
      <use xlink:href="#DejaVuSans-65" x="203.564453"/>
      <use xlink:href="#DejaVuSans-72" x="265.087891"/>
     </g>
    </g>
    <g id="line2d_37">
     <path d="M 62.22 94.337625 
L 71.02 94.337625 
L 79.82 94.337625 
" style="fill: none; stroke: #db5f57; stroke-width: 1.2; stroke-linecap: round"/>
    </g>
    <g id="text_31">
     <!-- symcc-0-exid1 -->
     <g style="fill: #262626" transform="translate(86.86 97.417625)scale(0.088 -0.088)">
      <defs>
       <path id="DejaVuSans-79" d="M 2059 -325 
Q 1816 -950 1584 -1140 
Q 1353 -1331 966 -1331 
L 506 -1331 
L 506 -850 
L 844 -850 
Q 1081 -850 1212 -737 
Q 1344 -625 1503 -206 
L 1606 56 
L 191 3500 
L 800 3500 
L 1894 763 
L 2988 3500 
L 3597 3500 
L 2059 -325 
z
" transform="scale(0.015625)"/>
       <path id="DejaVuSans-63" d="M 3122 3366 
L 3122 2828 
Q 2878 2963 2633 3030 
Q 2388 3097 2138 3097 
Q 1578 3097 1268 2742 
Q 959 2388 959 1747 
Q 959 1106 1268 751 
Q 1578 397 2138 397 
Q 2388 397 2633 464 
Q 2878 531 3122 666 
L 3122 134 
Q 2881 22 2623 -34 
Q 2366 -91 2075 -91 
Q 1284 -91 818 406 
Q 353 903 353 1747 
Q 353 2603 823 3093 
Q 1294 3584 2113 3584 
Q 2378 3584 2631 3529 
Q 2884 3475 3122 3366 
z
" transform="scale(0.015625)"/>
       <path id="DejaVuSans-2d" d="M 313 2009 
L 1997 2009 
L 1997 1497 
L 313 1497 
L 313 2009 
z
" transform="scale(0.015625)"/>
       <path id="DejaVuSans-78" d="M 3513 3500 
L 2247 1797 
L 3578 0 
L 2900 0 
L 1881 1375 
L 863 0 
L 184 0 
L 1544 1831 
L 300 3500 
L 978 3500 
L 1906 2253 
L 2834 3500 
L 3513 3500 
z
" transform="scale(0.015625)"/>
      </defs>
      <use xlink:href="#DejaVuSans-73"/>
      <use xlink:href="#DejaVuSans-79" x="52.099609"/>
      <use xlink:href="#DejaVuSans-6d" x="111.279297"/>
      <use xlink:href="#DejaVuSans-63" x="208.691406"/>
      <use xlink:href="#DejaVuSans-63" x="263.671875"/>
      <use xlink:href="#DejaVuSans-2d" x="318.652344"/>
      <use xlink:href="#DejaVuSans-30" x="354.736328"/>
      <use xlink:href="#DejaVuSans-2d" x="418.359375"/>
      <use xlink:href="#DejaVuSans-65" x="454.443359"/>
      <use xlink:href="#DejaVuSans-78" x="514.216797"/>
      <use xlink:href="#DejaVuSans-69" x="573.396484"/>
      <use xlink:href="#DejaVuSans-64" x="601.179688"/>
      <use xlink:href="#DejaVuSans-31" x="664.65625"/>
     </g>
    </g>
    <g id="line2d_38">
     <path d="M 62.22 107.254375 
L 71.02 107.254375 
L 79.82 107.254375 
" style="fill: none; stroke: #b9db57; stroke-width: 1.2; stroke-linecap: round"/>
    </g>
    <g id="text_32">
     <!-- fairfuzz-0-exid1 -->
     <g style="fill: #262626" transform="translate(86.86 110.334375)scale(0.088 -0.088)">
      <use xlink:href="#DejaVuSans-66"/>
      <use xlink:href="#DejaVuSans-61" x="35.205078"/>
      <use xlink:href="#DejaVuSans-69" x="96.484375"/>
      <use xlink:href="#DejaVuSans-72" x="124.267578"/>
      <use xlink:href="#DejaVuSans-66" x="165.380859"/>
      <use xlink:href="#DejaVuSans-75" x="200.585938"/>
      <use xlink:href="#DejaVuSans-7a" x="263.964844"/>
      <use xlink:href="#DejaVuSans-7a" x="316.455078"/>
      <use xlink:href="#DejaVuSans-2d" x="368.945312"/>
      <use xlink:href="#DejaVuSans-30" x="405.029297"/>
      <use xlink:href="#DejaVuSans-2d" x="468.652344"/>
      <use xlink:href="#DejaVuSans-65" x="504.736328"/>
      <use xlink:href="#DejaVuSans-78" x="564.509766"/>
      <use xlink:href="#DejaVuSans-69" x="623.689453"/>
      <use xlink:href="#DejaVuSans-64" x="651.472656"/>
      <use xlink:href="#DejaVuSans-31" x="714.949219"/>
     </g>
    </g>
    <g id="line2d_39">
     <path d="M 62.22 120.171125 
L 71.02 120.171125 
L 79.82 120.171125 
" style="fill: none; stroke: #57db94; stroke-width: 1.2; stroke-linecap: round"/>
    </g>
    <g id="text_33">
     <!-- mopt-0-exid1 -->
     <g style="fill: #262626" transform="translate(86.86 123.251125)scale(0.088 -0.088)">
      <defs>
       <path id="DejaVuSans-70" d="M 1159 525 
L 1159 -1331 
L 581 -1331 
L 581 3500 
L 1159 3500 
L 1159 2969 
Q 1341 3281 1617 3432 
Q 1894 3584 2278 3584 
Q 2916 3584 3314 3078 
Q 3713 2572 3713 1747 
Q 3713 922 3314 415 
Q 2916 -91 2278 -91 
Q 1894 -91 1617 61 
Q 1341 213 1159 525 
z
M 3116 1747 
Q 3116 2381 2855 2742 
Q 2594 3103 2138 3103 
Q 1681 3103 1420 2742 
Q 1159 2381 1159 1747 
Q 1159 1113 1420 752 
Q 1681 391 2138 391 
Q 2594 391 2855 752 
Q 3116 1113 3116 1747 
z
" transform="scale(0.015625)"/>
      </defs>
      <use xlink:href="#DejaVuSans-6d"/>
      <use xlink:href="#DejaVuSans-6f" x="97.412109"/>
      <use xlink:href="#DejaVuSans-70" x="158.59375"/>
      <use xlink:href="#DejaVuSans-74" x="222.070312"/>
      <use xlink:href="#DejaVuSans-2d" x="261.279297"/>
      <use xlink:href="#DejaVuSans-30" x="297.363281"/>
      <use xlink:href="#DejaVuSans-2d" x="360.986328"/>
      <use xlink:href="#DejaVuSans-65" x="397.070312"/>
      <use xlink:href="#DejaVuSans-78" x="456.84375"/>
      <use xlink:href="#DejaVuSans-69" x="516.023438"/>
      <use xlink:href="#DejaVuSans-64" x="543.806641"/>
      <use xlink:href="#DejaVuSans-31" x="607.283203"/>
     </g>
    </g>
    <g id="line2d_40">
     <path d="M 62.22 133.087875 
L 71.02 133.087875 
L 79.82 133.087875 
" style="fill: none; stroke: #5784db; stroke-width: 1.2; stroke-linecap: round"/>
    </g>
    <g id="text_34">
     <!-- aflplusplus-0-exid1 -->
     <g style="fill: #262626" transform="translate(86.86 136.167875)scale(0.088 -0.088)">
      <defs>
       <path id="DejaVuSans-6c" d="M 603 4863 
L 1178 4863 
L 1178 0 
L 603 0 
L 603 4863 
z
" transform="scale(0.015625)"/>
      </defs>
      <use xlink:href="#DejaVuSans-61"/>
      <use xlink:href="#DejaVuSans-66" x="61.279297"/>
      <use xlink:href="#DejaVuSans-6c" x="96.484375"/>
      <use xlink:href="#DejaVuSans-70" x="124.267578"/>
      <use xlink:href="#DejaVuSans-6c" x="187.744141"/>
      <use xlink:href="#DejaVuSans-75" x="215.527344"/>
      <use xlink:href="#DejaVuSans-73" x="278.90625"/>
      <use xlink:href="#DejaVuSans-70" x="331.005859"/>
      <use xlink:href="#DejaVuSans-6c" x="394.482422"/>
      <use xlink:href="#DejaVuSans-75" x="422.265625"/>
      <use xlink:href="#DejaVuSans-73" x="485.644531"/>
      <use xlink:href="#DejaVuSans-2d" x="537.744141"/>
      <use xlink:href="#DejaVuSans-30" x="573.828125"/>
      <use xlink:href="#DejaVuSans-2d" x="637.451172"/>
      <use xlink:href="#DejaVuSans-65" x="673.535156"/>
      <use xlink:href="#DejaVuSans-78" x="733.308594"/>
      <use xlink:href="#DejaVuSans-69" x="792.488281"/>
      <use xlink:href="#DejaVuSans-64" x="820.271484"/>
      <use xlink:href="#DejaVuSans-31" x="883.748047"/>
     </g>
    </g>
    <g id="line2d_41">
     <path d="M 62.22 146.004625 
L 71.02 146.004625 
L 79.82 146.004625 
" style="fill: none; stroke: #c957db; stroke-width: 1.2; stroke-linecap: round"/>
    </g>
    <g id="text_35">
     <!-- fuzzer_global -->
     <g style="fill: #262626" transform="translate(86.86 149.084625)scale(0.088 -0.088)">
      <defs>
       <path id="DejaVuSans-5f" d="M 3263 -1063 
L 3263 -1509 
L -63 -1509 
L -63 -1063 
L 3263 -1063 
z
" transform="scale(0.015625)"/>
       <path id="DejaVuSans-62" d="M 3116 1747 
Q 3116 2381 2855 2742 
Q 2594 3103 2138 3103 
Q 1681 3103 1420 2742 
Q 1159 2381 1159 1747 
Q 1159 1113 1420 752 
Q 1681 391 2138 391 
Q 2594 391 2855 752 
Q 3116 1113 3116 1747 
z
M 1159 2969 
Q 1341 3281 1617 3432 
Q 1894 3584 2278 3584 
Q 2916 3584 3314 3078 
Q 3713 2572 3713 1747 
Q 3713 922 3314 415 
Q 2916 -91 2278 -91 
Q 1894 -91 1617 61 
Q 1341 213 1159 525 
L 1159 0 
L 581 0 
L 581 4863 
L 1159 4863 
L 1159 2969 
z
" transform="scale(0.015625)"/>
      </defs>
      <use xlink:href="#DejaVuSans-66"/>
      <use xlink:href="#DejaVuSans-75" x="35.205078"/>
      <use xlink:href="#DejaVuSans-7a" x="98.583984"/>
      <use xlink:href="#DejaVuSans-7a" x="151.074219"/>
      <use xlink:href="#DejaVuSans-65" x="203.564453"/>
      <use xlink:href="#DejaVuSans-72" x="265.087891"/>
      <use xlink:href="#DejaVuSans-5f" x="306.201172"/>
      <use xlink:href="#DejaVuSans-67" x="356.201172"/>
      <use xlink:href="#DejaVuSans-6c" x="419.677734"/>
      <use xlink:href="#DejaVuSans-6f" x="447.460938"/>
      <use xlink:href="#DejaVuSans-62" x="508.642578"/>
      <use xlink:href="#DejaVuSans-61" x="572.119141"/>
      <use xlink:href="#DejaVuSans-6c" x="633.398438"/>
     </g>
    </g>
   </g>
  </g>
 </g>
 <defs>
  <clipPath id="p58933b5510">
   <rect x="54.3" y="69.12" width="336.66" height="443.52"/>
  </clipPath>
 </defs>
</svg>
