<?xml version="1.0" encoding="utf-8" standalone="no"?>
<!DOCTYPE svg PUBLIC "-//W3C//DTD SVG 1.1//EN"
  "http://www.w3.org/Graphics/SVG/1.1/DTD/svg11.dtd">
<svg xmlns:xlink="http://www.w3.org/1999/xlink" width="2764.8pt" height="2073.6pt" viewBox="0 0 2764.8 2073.6" xmlns="http://www.w3.org/2000/svg" version="1.1">
 <metadata>
  <rdf:RDF xmlns:dc="http://purl.org/dc/elements/1.1/" xmlns:cc="http://creativecommons.org/ns#" xmlns:rdf="http://www.w3.org/1999/02/22-rdf-syntax-ns#">
   <cc:Work>
    <dc:type rdf:resource="http://purl.org/dc/dcmitype/StillImage"/>
    <dc:date>2022-09-15T06:01:11.272803</dc:date>
    <dc:format>image/svg+xml</dc:format>
    <dc:creator>
     <cc:Agent>
      <dc:title>Matplotlib v3.5.3, https://matplotlib.org/</dc:title>
     </cc:Agent>
    </dc:creator>
   </cc:Work>
  </rdf:RDF>
 </metadata>
 <defs>
  <style type="text/css">*{stroke-linejoin: round; stroke-linecap: butt}</style>
 </defs>
 <g id="figure_1">
  <g id="patch_1">
   <path d="M 0 2073.6 
L 2764.8 2073.6 
L 2764.8 0 
L 0 0 
z
" style="fill: #ffffff"/>
  </g>
  <g id="axes_1">
   <g id="patch_2">
    <path d="M 345.6 1845.504 
L 2488.32 1845.504 
L 2488.32 248.832 
L 345.6 248.832 
z
" style="fill: #ffffff"/>
   </g>
   <g id="matplotlib.axis_1">
    <g id="xtick_1">
     <g id="line2d_1">
      <path d="M 442.996364 1845.504 
L 442.996364 248.832 
" clip-path="url(#pefc44b67fb)" style="fill: none; stroke: #cccccc; stroke-linecap: round"/>
     </g>
     <g id="text_1">
      <!-- 0 -->
      <g style="fill: #262626" transform="translate(439.496989 1863.362281)scale(0.11 -0.11)">
       <defs>
        <path id="DejaVuSans-30" d="M 2034 4250 
Q 1547 4250 1301 3770 
Q 1056 3291 1056 2328 
Q 1056 1369 1301 889 
Q 1547 409 2034 409 
Q 2525 409 2770 889 
Q 3016 1369 3016 2328 
Q 3016 3291 2770 3770 
Q 2525 4250 2034 4250 
z
M 2034 4750 
Q 2819 4750 3233 4129 
Q 3647 3509 3647 2328 
Q 3647 1150 3233 529 
Q 2819 -91 2034 -91 
Q 1250 -91 836 529 
Q 422 1150 422 2328 
Q 422 3509 836 4129 
Q 1250 4750 2034 4750 
z
" transform="scale(0.015625)"/>
       </defs>
       <use xlink:href="#DejaVuSans-30"/>
      </g>
     </g>
    </g>
    <g id="xtick_2">
     <g id="line2d_2">
      <path d="M 759.218323 1845.504 
L 759.218323 248.832 
" clip-path="url(#pefc44b67fb)" style="fill: none; stroke: #cccccc; stroke-linecap: round"/>
     </g>
     <g id="text_2">
      <!-- 200 -->
      <g style="fill: #262626" transform="translate(748.720198 1863.362281)scale(0.11 -0.11)">
       <defs>
        <path id="DejaVuSans-32" d="M 1228 531 
L 3431 531 
L 3431 0 
L 469 0 
L 469 531 
Q 828 903 1448 1529 
Q 2069 2156 2228 2338 
Q 2531 2678 2651 2914 
Q 2772 3150 2772 3378 
Q 2772 3750 2511 3984 
Q 2250 4219 1831 4219 
Q 1534 4219 1204 4116 
Q 875 4013 500 3803 
L 500 4441 
Q 881 4594 1212 4672 
Q 1544 4750 1819 4750 
Q 2544 4750 2975 4387 
Q 3406 4025 3406 3419 
Q 3406 3131 3298 2873 
Q 3191 2616 2906 2266 
Q 2828 2175 2409 1742 
Q 1991 1309 1228 531 
z
" transform="scale(0.015625)"/>
       </defs>
       <use xlink:href="#DejaVuSans-32"/>
       <use xlink:href="#DejaVuSans-30" x="63.623047"/>
       <use xlink:href="#DejaVuSans-30" x="127.246094"/>
      </g>
     </g>
    </g>
    <g id="xtick_3">
     <g id="line2d_3">
      <path d="M 1075.440283 1845.504 
L 1075.440283 248.832 
" clip-path="url(#pefc44b67fb)" style="fill: none; stroke: #cccccc; stroke-linecap: round"/>
     </g>
     <g id="text_3">
      <!-- 400 -->
      <g style="fill: #262626" transform="translate(1064.942158 1863.362281)scale(0.11 -0.11)">
       <defs>
        <path id="DejaVuSans-34" d="M 2419 4116 
L 825 1625 
L 2419 1625 
L 2419 4116 
z
M 2253 4666 
L 3047 4666 
L 3047 1625 
L 3713 1625 
L 3713 1100 
L 3047 1100 
L 3047 0 
L 2419 0 
L 2419 1100 
L 313 1100 
L 313 1709 
L 2253 4666 
z
" transform="scale(0.015625)"/>
       </defs>
       <use xlink:href="#DejaVuSans-34"/>
       <use xlink:href="#DejaVuSans-30" x="63.623047"/>
       <use xlink:href="#DejaVuSans-30" x="127.246094"/>
      </g>
     </g>
    </g>
    <g id="xtick_4">
     <g id="line2d_4">
      <path d="M 1391.662243 1845.504 
L 1391.662243 248.832 
" clip-path="url(#pefc44b67fb)" style="fill: none; stroke: #cccccc; stroke-linecap: round"/>
     </g>
     <g id="text_4">
      <!-- 600 -->
      <g style="fill: #262626" transform="translate(1381.164118 1863.362281)scale(0.11 -0.11)">
       <defs>
        <path id="DejaVuSans-36" d="M 2113 2584 
Q 1688 2584 1439 2293 
Q 1191 2003 1191 1497 
Q 1191 994 1439 701 
Q 1688 409 2113 409 
Q 2538 409 2786 701 
Q 3034 994 3034 1497 
Q 3034 2003 2786 2293 
Q 2538 2584 2113 2584 
z
M 3366 4563 
L 3366 3988 
Q 3128 4100 2886 4159 
Q 2644 4219 2406 4219 
Q 1781 4219 1451 3797 
Q 1122 3375 1075 2522 
Q 1259 2794 1537 2939 
Q 1816 3084 2150 3084 
Q 2853 3084 3261 2657 
Q 3669 2231 3669 1497 
Q 3669 778 3244 343 
Q 2819 -91 2113 -91 
Q 1303 -91 875 529 
Q 447 1150 447 2328 
Q 447 3434 972 4092 
Q 1497 4750 2381 4750 
Q 2619 4750 2861 4703 
Q 3103 4656 3366 4563 
z
" transform="scale(0.015625)"/>
       </defs>
       <use xlink:href="#DejaVuSans-36"/>
       <use xlink:href="#DejaVuSans-30" x="63.623047"/>
       <use xlink:href="#DejaVuSans-30" x="127.246094"/>
      </g>
     </g>
    </g>
    <g id="xtick_5">
     <g id="line2d_5">
      <path d="M 1707.884203 1845.504 
L 1707.884203 248.832 
" clip-path="url(#pefc44b67fb)" style="fill: none; stroke: #cccccc; stroke-linecap: round"/>
     </g>
     <g id="text_5">
      <!-- 800 -->
      <g style="fill: #262626" transform="translate(1697.386078 1863.362281)scale(0.11 -0.11)">
       <defs>
        <path id="DejaVuSans-38" d="M 2034 2216 
Q 1584 2216 1326 1975 
Q 1069 1734 1069 1313 
Q 1069 891 1326 650 
Q 1584 409 2034 409 
Q 2484 409 2743 651 
Q 3003 894 3003 1313 
Q 3003 1734 2745 1975 
Q 2488 2216 2034 2216 
z
M 1403 2484 
Q 997 2584 770 2862 
Q 544 3141 544 3541 
Q 544 4100 942 4425 
Q 1341 4750 2034 4750 
Q 2731 4750 3128 4425 
Q 3525 4100 3525 3541 
Q 3525 3141 3298 2862 
Q 3072 2584 2669 2484 
Q 3125 2378 3379 2068 
Q 3634 1759 3634 1313 
Q 3634 634 3220 271 
Q 2806 -91 2034 -91 
Q 1263 -91 848 271 
Q 434 634 434 1313 
Q 434 1759 690 2068 
Q 947 2378 1403 2484 
z
M 1172 3481 
Q 1172 3119 1398 2916 
Q 1625 2713 2034 2713 
Q 2441 2713 2670 2916 
Q 2900 3119 2900 3481 
Q 2900 3844 2670 4047 
Q 2441 4250 2034 4250 
Q 1625 4250 1398 4047 
Q 1172 3844 1172 3481 
z
" transform="scale(0.015625)"/>
       </defs>
       <use xlink:href="#DejaVuSans-38"/>
       <use xlink:href="#DejaVuSans-30" x="63.623047"/>
       <use xlink:href="#DejaVuSans-30" x="127.246094"/>
      </g>
     </g>
    </g>
    <g id="xtick_6">
     <g id="line2d_6">
      <path d="M 2024.106163 1845.504 
L 2024.106163 248.832 
" clip-path="url(#pefc44b67fb)" style="fill: none; stroke: #cccccc; stroke-linecap: round"/>
     </g>
     <g id="text_6">
      <!-- 1000 -->
      <g style="fill: #262626" transform="translate(2010.108663 1863.362281)scale(0.11 -0.11)">
       <defs>
        <path id="DejaVuSans-31" d="M 794 531 
L 1825 531 
L 1825 4091 
L 703 3866 
L 703 4441 
L 1819 4666 
L 2450 4666 
L 2450 531 
L 3481 531 
L 3481 0 
L 794 0 
L 794 531 
z
" transform="scale(0.015625)"/>
       </defs>
       <use xlink:href="#DejaVuSans-31"/>
       <use xlink:href="#DejaVuSans-30" x="63.623047"/>
       <use xlink:href="#DejaVuSans-30" x="127.246094"/>
       <use xlink:href="#DejaVuSans-30" x="190.869141"/>
      </g>
     </g>
    </g>
    <g id="xtick_7">
     <g id="line2d_7">
      <path d="M 2340.328123 1845.504 
L 2340.328123 248.832 
" clip-path="url(#pefc44b67fb)" style="fill: none; stroke: #cccccc; stroke-linecap: round"/>
     </g>
     <g id="text_7">
      <!-- 1200 -->
      <g style="fill: #262626" transform="translate(2326.330623 1863.362281)scale(0.11 -0.11)">
       <use xlink:href="#DejaVuSans-31"/>
       <use xlink:href="#DejaVuSans-32" x="63.623047"/>
       <use xlink:href="#DejaVuSans-30" x="127.246094"/>
       <use xlink:href="#DejaVuSans-30" x="190.869141"/>
      </g>
     </g>
    </g>
    <g id="text_8">
     <!-- Discovery Time (Minutes) -->
     <g style="fill: #262626" transform="translate(1340.521875 1878.768062)scale(0.12 -0.12)">
      <defs>
       <path id="DejaVuSans-44" d="M 1259 4147 
L 1259 519 
L 2022 519 
Q 2988 519 3436 956 
Q 3884 1394 3884 2338 
Q 3884 3275 3436 3711 
Q 2988 4147 2022 4147 
L 1259 4147 
z
M 628 4666 
L 1925 4666 
Q 3281 4666 3915 4102 
Q 4550 3538 4550 2338 
Q 4550 1131 3912 565 
Q 3275 0 1925 0 
L 628 0 
L 628 4666 
z
" transform="scale(0.015625)"/>
       <path id="DejaVuSans-69" d="M 603 3500 
L 1178 3500 
L 1178 0 
L 603 0 
L 603 3500 
z
M 603 4863 
L 1178 4863 
L 1178 4134 
L 603 4134 
L 603 4863 
z
" transform="scale(0.015625)"/>
       <path id="DejaVuSans-73" d="M 2834 3397 
L 2834 2853 
Q 2591 2978 2328 3040 
Q 2066 3103 1784 3103 
Q 1356 3103 1142 2972 
Q 928 2841 928 2578 
Q 928 2378 1081 2264 
Q 1234 2150 1697 2047 
L 1894 2003 
Q 2506 1872 2764 1633 
Q 3022 1394 3022 966 
Q 3022 478 2636 193 
Q 2250 -91 1575 -91 
Q 1294 -91 989 -36 
Q 684 19 347 128 
L 347 722 
Q 666 556 975 473 
Q 1284 391 1588 391 
Q 1994 391 2212 530 
Q 2431 669 2431 922 
Q 2431 1156 2273 1281 
Q 2116 1406 1581 1522 
L 1381 1569 
Q 847 1681 609 1914 
Q 372 2147 372 2553 
Q 372 3047 722 3315 
Q 1072 3584 1716 3584 
Q 2034 3584 2315 3537 
Q 2597 3491 2834 3397 
z
" transform="scale(0.015625)"/>
       <path id="DejaVuSans-63" d="M 3122 3366 
L 3122 2828 
Q 2878 2963 2633 3030 
Q 2388 3097 2138 3097 
Q 1578 3097 1268 2742 
Q 959 2388 959 1747 
Q 959 1106 1268 751 
Q 1578 397 2138 397 
Q 2388 397 2633 464 
Q 2878 531 3122 666 
L 3122 134 
Q 2881 22 2623 -34 
Q 2366 -91 2075 -91 
Q 1284 -91 818 406 
Q 353 903 353 1747 
Q 353 2603 823 3093 
Q 1294 3584 2113 3584 
Q 2378 3584 2631 3529 
Q 2884 3475 3122 3366 
z
" transform="scale(0.015625)"/>
       <path id="DejaVuSans-6f" d="M 1959 3097 
Q 1497 3097 1228 2736 
Q 959 2375 959 1747 
Q 959 1119 1226 758 
Q 1494 397 1959 397 
Q 2419 397 2687 759 
Q 2956 1122 2956 1747 
Q 2956 2369 2687 2733 
Q 2419 3097 1959 3097 
z
M 1959 3584 
Q 2709 3584 3137 3096 
Q 3566 2609 3566 1747 
Q 3566 888 3137 398 
Q 2709 -91 1959 -91 
Q 1206 -91 779 398 
Q 353 888 353 1747 
Q 353 2609 779 3096 
Q 1206 3584 1959 3584 
z
" transform="scale(0.015625)"/>
       <path id="DejaVuSans-76" d="M 191 3500 
L 800 3500 
L 1894 563 
L 2988 3500 
L 3597 3500 
L 2284 0 
L 1503 0 
L 191 3500 
z
" transform="scale(0.015625)"/>
       <path id="DejaVuSans-65" d="M 3597 1894 
L 3597 1613 
L 953 1613 
Q 991 1019 1311 708 
Q 1631 397 2203 397 
Q 2534 397 2845 478 
Q 3156 559 3463 722 
L 3463 178 
Q 3153 47 2828 -22 
Q 2503 -91 2169 -91 
Q 1331 -91 842 396 
Q 353 884 353 1716 
Q 353 2575 817 3079 
Q 1281 3584 2069 3584 
Q 2775 3584 3186 3129 
Q 3597 2675 3597 1894 
z
M 3022 2063 
Q 3016 2534 2758 2815 
Q 2500 3097 2075 3097 
Q 1594 3097 1305 2825 
Q 1016 2553 972 2059 
L 3022 2063 
z
" transform="scale(0.015625)"/>
       <path id="DejaVuSans-72" d="M 2631 2963 
Q 2534 3019 2420 3045 
Q 2306 3072 2169 3072 
Q 1681 3072 1420 2755 
Q 1159 2438 1159 1844 
L 1159 0 
L 581 0 
L 581 3500 
L 1159 3500 
L 1159 2956 
Q 1341 3275 1631 3429 
Q 1922 3584 2338 3584 
Q 2397 3584 2469 3576 
Q 2541 3569 2628 3553 
L 2631 2963 
z
" transform="scale(0.015625)"/>
       <path id="DejaVuSans-79" d="M 2059 -325 
Q 1816 -950 1584 -1140 
Q 1353 -1331 966 -1331 
L 506 -1331 
L 506 -850 
L 844 -850 
Q 1081 -850 1212 -737 
Q 1344 -625 1503 -206 
L 1606 56 
L 191 3500 
L 800 3500 
L 1894 763 
L 2988 3500 
L 3597 3500 
L 2059 -325 
z
" transform="scale(0.015625)"/>
       <path id="DejaVuSans-20" transform="scale(0.015625)"/>
       <path id="DejaVuSans-54" d="M -19 4666 
L 3928 4666 
L 3928 4134 
L 2272 4134 
L 2272 0 
L 1638 0 
L 1638 4134 
L -19 4134 
L -19 4666 
z
" transform="scale(0.015625)"/>
       <path id="DejaVuSans-6d" d="M 3328 2828 
Q 3544 3216 3844 3400 
Q 4144 3584 4550 3584 
Q 5097 3584 5394 3201 
Q 5691 2819 5691 2113 
L 5691 0 
L 5113 0 
L 5113 2094 
Q 5113 2597 4934 2840 
Q 4756 3084 4391 3084 
Q 3944 3084 3684 2787 
Q 3425 2491 3425 1978 
L 3425 0 
L 2847 0 
L 2847 2094 
Q 2847 2600 2669 2842 
Q 2491 3084 2119 3084 
Q 1678 3084 1418 2786 
Q 1159 2488 1159 1978 
L 1159 0 
L 581 0 
L 581 3500 
L 1159 3500 
L 1159 2956 
Q 1356 3278 1631 3431 
Q 1906 3584 2284 3584 
Q 2666 3584 2933 3390 
Q 3200 3197 3328 2828 
z
" transform="scale(0.015625)"/>
       <path id="DejaVuSans-28" d="M 1984 4856 
Q 1566 4138 1362 3434 
Q 1159 2731 1159 2009 
Q 1159 1288 1364 580 
Q 1569 -128 1984 -844 
L 1484 -844 
Q 1016 -109 783 600 
Q 550 1309 550 2009 
Q 550 2706 781 3412 
Q 1013 4119 1484 4856 
L 1984 4856 
z
" transform="scale(0.015625)"/>
       <path id="DejaVuSans-4d" d="M 628 4666 
L 1569 4666 
L 2759 1491 
L 3956 4666 
L 4897 4666 
L 4897 0 
L 4281 0 
L 4281 4097 
L 3078 897 
L 2444 897 
L 1241 4097 
L 1241 0 
L 628 0 
L 628 4666 
z
" transform="scale(0.015625)"/>
       <path id="DejaVuSans-6e" d="M 3513 2113 
L 3513 0 
L 2938 0 
L 2938 2094 
Q 2938 2591 2744 2837 
Q 2550 3084 2163 3084 
Q 1697 3084 1428 2787 
Q 1159 2491 1159 1978 
L 1159 0 
L 581 0 
L 581 3500 
L 1159 3500 
L 1159 2956 
Q 1366 3272 1645 3428 
Q 1925 3584 2291 3584 
Q 2894 3584 3203 3211 
Q 3513 2838 3513 2113 
z
" transform="scale(0.015625)"/>
       <path id="DejaVuSans-75" d="M 544 1381 
L 544 3500 
L 1119 3500 
L 1119 1403 
Q 1119 906 1312 657 
Q 1506 409 1894 409 
Q 2359 409 2629 706 
Q 2900 1003 2900 1516 
L 2900 3500 
L 3475 3500 
L 3475 0 
L 2900 0 
L 2900 538 
Q 2691 219 2414 64 
Q 2138 -91 1772 -91 
Q 1169 -91 856 284 
Q 544 659 544 1381 
z
M 1991 3584 
L 1991 3584 
z
" transform="scale(0.015625)"/>
       <path id="DejaVuSans-74" d="M 1172 4494 
L 1172 3500 
L 2356 3500 
L 2356 3053 
L 1172 3053 
L 1172 1153 
Q 1172 725 1289 603 
Q 1406 481 1766 481 
L 2356 481 
L 2356 0 
L 1766 0 
Q 1100 0 847 248 
Q 594 497 594 1153 
L 594 3053 
L 172 3053 
L 172 3500 
L 594 3500 
L 594 4494 
L 1172 4494 
z
" transform="scale(0.015625)"/>
       <path id="DejaVuSans-29" d="M 513 4856 
L 1013 4856 
Q 1481 4119 1714 3412 
Q 1947 2706 1947 2009 
Q 1947 1309 1714 600 
Q 1481 -109 1013 -844 
L 513 -844 
Q 928 -128 1133 580 
Q 1338 1288 1338 2009 
Q 1338 2731 1133 3434 
Q 928 4138 513 4856 
z
" transform="scale(0.015625)"/>
      </defs>
      <use xlink:href="#DejaVuSans-44"/>
      <use xlink:href="#DejaVuSans-69" x="77.001953"/>
      <use xlink:href="#DejaVuSans-73" x="104.785156"/>
      <use xlink:href="#DejaVuSans-63" x="156.884766"/>
      <use xlink:href="#DejaVuSans-6f" x="211.865234"/>
      <use xlink:href="#DejaVuSans-76" x="273.046875"/>
      <use xlink:href="#DejaVuSans-65" x="332.226562"/>
      <use xlink:href="#DejaVuSans-72" x="393.75"/>
      <use xlink:href="#DejaVuSans-79" x="434.863281"/>
      <use xlink:href="#DejaVuSans-20" x="494.042969"/>
      <use xlink:href="#DejaVuSans-54" x="525.830078"/>
      <use xlink:href="#DejaVuSans-69" x="583.789062"/>
      <use xlink:href="#DejaVuSans-6d" x="611.572266"/>
      <use xlink:href="#DejaVuSans-65" x="708.984375"/>
      <use xlink:href="#DejaVuSans-20" x="770.507812"/>
      <use xlink:href="#DejaVuSans-28" x="802.294922"/>
      <use xlink:href="#DejaVuSans-4d" x="841.308594"/>
      <use xlink:href="#DejaVuSans-69" x="927.587891"/>
      <use xlink:href="#DejaVuSans-6e" x="955.371094"/>
      <use xlink:href="#DejaVuSans-75" x="1018.75"/>
      <use xlink:href="#DejaVuSans-74" x="1082.128906"/>
      <use xlink:href="#DejaVuSans-65" x="1121.337891"/>
      <use xlink:href="#DejaVuSans-73" x="1182.861328"/>
      <use xlink:href="#DejaVuSans-29" x="1234.960938"/>
     </g>
    </g>
   </g>
   <g id="matplotlib.axis_2">
    <g id="ytick_1">
     <g id="line2d_8">
      <path d="M 345.6 1772.928 
L 2488.32 1772.928 
" clip-path="url(#pefc44b67fb)" style="fill: none; stroke: #cccccc; stroke-linecap: round"/>
     </g>
     <g id="text_9">
      <!-- 0 -->
      <g style="fill: #262626" transform="translate(329.10125 1777.107141)scale(0.11 -0.11)">
       <use xlink:href="#DejaVuSans-30"/>
      </g>
     </g>
    </g>
    <g id="ytick_2">
     <g id="line2d_9">
      <path d="M 345.6 1491.079456 
L 2488.32 1491.079456 
" clip-path="url(#pefc44b67fb)" style="fill: none; stroke: #cccccc; stroke-linecap: round"/>
     </g>
     <g id="text_10">
      <!-- 100 -->
      <g style="fill: #262626" transform="translate(315.10375 1495.258597)scale(0.11 -0.11)">
       <use xlink:href="#DejaVuSans-31"/>
       <use xlink:href="#DejaVuSans-30" x="63.623047"/>
       <use xlink:href="#DejaVuSans-30" x="127.246094"/>
      </g>
     </g>
    </g>
    <g id="ytick_3">
     <g id="line2d_10">
      <path d="M 345.6 1209.230913 
L 2488.32 1209.230913 
" clip-path="url(#pefc44b67fb)" style="fill: none; stroke: #cccccc; stroke-linecap: round"/>
     </g>
     <g id="text_11">
      <!-- 200 -->
      <g style="fill: #262626" transform="translate(315.10375 1213.410053)scale(0.11 -0.11)">
       <use xlink:href="#DejaVuSans-32"/>
       <use xlink:href="#DejaVuSans-30" x="63.623047"/>
       <use xlink:href="#DejaVuSans-30" x="127.246094"/>
      </g>
     </g>
    </g>
    <g id="ytick_4">
     <g id="line2d_11">
      <path d="M 345.6 927.382369 
L 2488.32 927.382369 
" clip-path="url(#pefc44b67fb)" style="fill: none; stroke: #cccccc; stroke-linecap: round"/>
     </g>
     <g id="text_12">
      <!-- 300 -->
      <g style="fill: #262626" transform="translate(315.10375 931.56151)scale(0.11 -0.11)">
       <defs>
        <path id="DejaVuSans-33" d="M 2597 2516 
Q 3050 2419 3304 2112 
Q 3559 1806 3559 1356 
Q 3559 666 3084 287 
Q 2609 -91 1734 -91 
Q 1441 -91 1130 -33 
Q 819 25 488 141 
L 488 750 
Q 750 597 1062 519 
Q 1375 441 1716 441 
Q 2309 441 2620 675 
Q 2931 909 2931 1356 
Q 2931 1769 2642 2001 
Q 2353 2234 1838 2234 
L 1294 2234 
L 1294 2753 
L 1863 2753 
Q 2328 2753 2575 2939 
Q 2822 3125 2822 3475 
Q 2822 3834 2567 4026 
Q 2313 4219 1838 4219 
Q 1578 4219 1281 4162 
Q 984 4106 628 3988 
L 628 4550 
Q 988 4650 1302 4700 
Q 1616 4750 1894 4750 
Q 2613 4750 3031 4423 
Q 3450 4097 3450 3541 
Q 3450 3153 3228 2886 
Q 3006 2619 2597 2516 
z
" transform="scale(0.015625)"/>
       </defs>
       <use xlink:href="#DejaVuSans-33"/>
       <use xlink:href="#DejaVuSans-30" x="63.623047"/>
       <use xlink:href="#DejaVuSans-30" x="127.246094"/>
      </g>
     </g>
    </g>
    <g id="ytick_5">
     <g id="line2d_12">
      <path d="M 345.6 645.533825 
L 2488.32 645.533825 
" clip-path="url(#pefc44b67fb)" style="fill: none; stroke: #cccccc; stroke-linecap: round"/>
     </g>
     <g id="text_13">
      <!-- 400 -->
      <g style="fill: #262626" transform="translate(315.10375 649.712966)scale(0.11 -0.11)">
       <use xlink:href="#DejaVuSans-34"/>
       <use xlink:href="#DejaVuSans-30" x="63.623047"/>
       <use xlink:href="#DejaVuSans-30" x="127.246094"/>
      </g>
     </g>
    </g>
    <g id="ytick_6">
     <g id="line2d_13">
      <path d="M 345.6 363.685282 
L 2488.32 363.685282 
" clip-path="url(#pefc44b67fb)" style="fill: none; stroke: #cccccc; stroke-linecap: round"/>
     </g>
     <g id="text_14">
      <!-- 500 -->
      <g style="fill: #262626" transform="translate(315.10375 367.864422)scale(0.11 -0.11)">
       <defs>
        <path id="DejaVuSans-35" d="M 691 4666 
L 3169 4666 
L 3169 4134 
L 1269 4134 
L 1269 2991 
Q 1406 3038 1543 3061 
Q 1681 3084 1819 3084 
Q 2600 3084 3056 2656 
Q 3513 2228 3513 1497 
Q 3513 744 3044 326 
Q 2575 -91 1722 -91 
Q 1428 -91 1123 -41 
Q 819 9 494 109 
L 494 744 
Q 775 591 1075 516 
Q 1375 441 1709 441 
Q 2250 441 2565 725 
Q 2881 1009 2881 1497 
Q 2881 1984 2565 2268 
Q 2250 2553 1709 2553 
Q 1456 2553 1204 2497 
Q 953 2441 691 2322 
L 691 4666 
z
" transform="scale(0.015625)"/>
       </defs>
       <use xlink:href="#DejaVuSans-35"/>
       <use xlink:href="#DejaVuSans-30" x="63.623047"/>
       <use xlink:href="#DejaVuSans-30" x="127.246094"/>
      </g>
     </g>
    </g>
    <g id="text_15">
     <!-- Bug Count -->
     <g style="fill: #262626" transform="translate(308.608125 1078.621125)rotate(-90)scale(0.12 -0.12)">
      <defs>
       <path id="DejaVuSans-42" d="M 1259 2228 
L 1259 519 
L 2272 519 
Q 2781 519 3026 730 
Q 3272 941 3272 1375 
Q 3272 1813 3026 2020 
Q 2781 2228 2272 2228 
L 1259 2228 
z
M 1259 4147 
L 1259 2741 
L 2194 2741 
Q 2656 2741 2882 2914 
Q 3109 3088 3109 3444 
Q 3109 3797 2882 3972 
Q 2656 4147 2194 4147 
L 1259 4147 
z
M 628 4666 
L 2241 4666 
Q 2963 4666 3353 4366 
Q 3744 4066 3744 3513 
Q 3744 3084 3544 2831 
Q 3344 2578 2956 2516 
Q 3422 2416 3680 2098 
Q 3938 1781 3938 1306 
Q 3938 681 3513 340 
Q 3088 0 2303 0 
L 628 0 
L 628 4666 
z
" transform="scale(0.015625)"/>
       <path id="DejaVuSans-67" d="M 2906 1791 
Q 2906 2416 2648 2759 
Q 2391 3103 1925 3103 
Q 1463 3103 1205 2759 
Q 947 2416 947 1791 
Q 947 1169 1205 825 
Q 1463 481 1925 481 
Q 2391 481 2648 825 
Q 2906 1169 2906 1791 
z
M 3481 434 
Q 3481 -459 3084 -895 
Q 2688 -1331 1869 -1331 
Q 1566 -1331 1297 -1286 
Q 1028 -1241 775 -1147 
L 775 -588 
Q 1028 -725 1275 -790 
Q 1522 -856 1778 -856 
Q 2344 -856 2625 -561 
Q 2906 -266 2906 331 
L 2906 616 
Q 2728 306 2450 153 
Q 2172 0 1784 0 
Q 1141 0 747 490 
Q 353 981 353 1791 
Q 353 2603 747 3093 
Q 1141 3584 1784 3584 
Q 2172 3584 2450 3431 
Q 2728 3278 2906 2969 
L 2906 3500 
L 3481 3500 
L 3481 434 
z
" transform="scale(0.015625)"/>
       <path id="DejaVuSans-43" d="M 4122 4306 
L 4122 3641 
Q 3803 3938 3442 4084 
Q 3081 4231 2675 4231 
Q 1875 4231 1450 3742 
Q 1025 3253 1025 2328 
Q 1025 1406 1450 917 
Q 1875 428 2675 428 
Q 3081 428 3442 575 
Q 3803 722 4122 1019 
L 4122 359 
Q 3791 134 3420 21 
Q 3050 -91 2638 -91 
Q 1578 -91 968 557 
Q 359 1206 359 2328 
Q 359 3453 968 4101 
Q 1578 4750 2638 4750 
Q 3056 4750 3426 4639 
Q 3797 4528 4122 4306 
z
" transform="scale(0.015625)"/>
      </defs>
      <use xlink:href="#DejaVuSans-42"/>
      <use xlink:href="#DejaVuSans-75" x="68.603516"/>
      <use xlink:href="#DejaVuSans-67" x="131.982422"/>
      <use xlink:href="#DejaVuSans-20" x="195.458984"/>
      <use xlink:href="#DejaVuSans-43" x="227.246094"/>
      <use xlink:href="#DejaVuSans-6f" x="297.070312"/>
      <use xlink:href="#DejaVuSans-75" x="358.251953"/>
      <use xlink:href="#DejaVuSans-6e" x="421.630859"/>
      <use xlink:href="#DejaVuSans-74" x="485.009766"/>
     </g>
    </g>
   </g>
   <g id="PolyCollection_1">
    <defs>
     <path id="m79608353a1" d="M 534.700732 -323.219883 
L 534.700732 -323.219883 
L 559.998489 -337.312311 
L 561.579599 -397.09387 
L 563.160708 -464.144155 
L 567.904038 -469.781126 
L 582.134026 -475.418097 
L 613.756222 -532.770753 
L 623.242881 -599.431456 
L 637.472869 -613.523883 
L 639.053979 -650.633942 
L 640.635089 -701.27273 
L 645.378418 -799.963172 
L 646.959528 -864.369087 
L 648.540638 -870.006058 
L 651.702857 -875.643029 
L 654.865077 -881.28 
L 656.446187 -886.916971 
L 658.027296 -898.190913 
L 659.608406 -909.464854 
L 661.189516 -915.101825 
L 662.770626 -926.375767 
L 664.351736 -932.012738 
L 667.513955 -937.649709 
L 684.906163 -943.28668 
L 692.811712 -948.92365 
L 694.392822 -954.560621 
L 697.555041 -960.197592 
L 699.136151 -971.471534 
L 705.46059 -982.745476 
L 718.109469 -988.382447 
L 722.852798 -994.019417 
L 726.015018 -1005.293359 
L 730.758347 -1010.93033 
L 732.339457 -1021.49965 
L 740.245006 -1044.752155 
L 746.569445 -1050.389126 
L 749.731665 -1056.026097 
L 759.218323 -1061.663068 
L 763.961653 -1067.300039 
L 765.542763 -1072.93701 
L 767.123872 -1084.210951 
L 771.867202 -1095.484893 
L 784.51608 -1101.121864 
L 789.25941 -1106.758835 
L 795.583849 -1112.395806 
L 798.746068 -1118.032777 
L 803.489398 -1129.306718 
L 819.300496 -1134.943689 
L 839.854923 -1140.58066 
L 841.436033 -1146.217631 
L 854.084911 -1151.854602 
L 861.99046 -1163.128544 
L 874.639339 -1179.557965 
L 880.963778 -1208.224311 
L 893.612656 -1219.498252 
L 911.004864 -1225.135223 
L 912.585974 -1236.409165 
L 925.234852 -1242.046136 
L 926.815962 -1253.320078 
L 941.04595 -1258.957049 
L 961.600378 -1270.23099 
L 975.830366 -1275.867961 
L 982.154805 -1281.504932 
L 1032.750319 -1287.141903 
L 1078.602503 -1292.778874 
L 1084.926942 -1298.415845 
L 1100.73804 -1304.052816 
L 1105.48137 -1309.689786 
L 1156.076883 -1320.963728 
L 1280.984557 -1326.600699 
L 1282.565667 -1332.23767 
L 1298.376765 -1337.874641 
L 1312.606753 -1349.148583 
L 1320.512302 -1360.422524 
L 1375.851145 -1366.059495 
L 1391.662243 -1371.696466 
L 1404.311122 -1382.970408 
L 1421.703329 -1388.607379 
L 1443.838867 -1399.88132 
L 1467.555514 -1412.564505 
L 1472.298843 -1428.066175 
L 1494.43438 -1433.703146 
L 1546.611004 -1439.340117 
L 1584.557639 -1444.977087 
L 1592.463188 -1450.614058 
L 1636.734262 -1456.251029 
L 1641.477591 -1461.888 
L 1669.937568 -1467.524971 
L 1709.465313 -1473.161942 
L 1916.590697 -1478.798913 
L 1965.6051 -1484.435883 
L 2074.701677 -1490.072854 
L 2141.108288 -1495.709825 
L 2141.108288 -1495.709825 
L 2141.108288 -1495.709825 
L 2074.701677 -1490.072854 
L 1965.6051 -1484.435883 
L 1916.590697 -1478.798913 
L 1709.465313 -1473.161942 
L 1669.937568 -1467.524971 
L 1641.477591 -1461.888 
L 1636.734262 -1456.251029 
L 1592.463188 -1450.614058 
L 1584.557639 -1444.977087 
L 1546.611004 -1439.340117 
L 1494.43438 -1433.703146 
L 1472.298843 -1428.066175 
L 1467.555514 -1418.906097 
L 1443.838867 -1399.88132 
L 1421.703329 -1394.24435 
L 1404.311122 -1382.970408 
L 1391.662243 -1377.333437 
L 1375.851145 -1366.059495 
L 1320.512302 -1360.422524 
L 1312.606753 -1349.148583 
L 1298.376765 -1343.511612 
L 1282.565667 -1332.23767 
L 1280.984557 -1326.600699 
L 1156.076883 -1320.963728 
L 1105.48137 -1315.326757 
L 1100.73804 -1304.052816 
L 1084.926942 -1298.415845 
L 1078.602503 -1292.778874 
L 1032.750319 -1287.141903 
L 982.154805 -1281.504932 
L 975.830366 -1275.867961 
L 961.600378 -1270.23099 
L 941.04595 -1264.594019 
L 926.815962 -1253.320078 
L 925.234852 -1247.683107 
L 912.585974 -1236.409165 
L 911.004864 -1230.772194 
L 893.612656 -1219.498252 
L 880.963778 -1211.982291 
L 874.639339 -1189.904155 
L 861.99046 -1163.128544 
L 854.084911 -1157.491573 
L 841.436033 -1146.217631 
L 839.854923 -1140.58066 
L 819.300496 -1134.943689 
L 803.489398 -1129.306718 
L 798.746068 -1118.032777 
L 795.583849 -1112.395806 
L 789.25941 -1106.758835 
L 784.51608 -1101.121864 
L 771.867202 -1095.484893 
L 767.123872 -1087.968932 
L 765.542763 -1072.93701 
L 763.961653 -1067.300039 
L 759.218323 -1061.663068 
L 749.731665 -1056.026097 
L 746.569445 -1050.389126 
L 740.245006 -1044.752155 
L 732.339457 -1031.36435 
L 730.758347 -1010.93033 
L 726.015018 -1005.293359 
L 722.852798 -999.656388 
L 718.109469 -988.382447 
L 705.46059 -982.745476 
L 699.136151 -977.108505 
L 697.555041 -965.834563 
L 694.392822 -954.560621 
L 692.811712 -948.92365 
L 684.906163 -943.28668 
L 667.513955 -937.649709 
L 664.351736 -932.012738 
L 662.770626 -926.375767 
L 661.189516 -915.101825 
L 659.608406 -909.464854 
L 658.027296 -903.827883 
L 656.446187 -892.553942 
L 654.865077 -881.28 
L 651.702857 -875.643029 
L 648.540638 -870.006058 
L 646.959528 -864.369087 
L 645.378418 -819.840541 
L 640.635089 -719.686835 
L 639.053979 -655.801165 
L 637.472869 -621.97934 
L 623.242881 -599.431456 
L 613.756222 -552.225348 
L 582.134026 -481.055068 
L 567.904038 -469.781126 
L 563.160708 -464.144155 
L 561.579599 -415.191514 
L 559.998489 -345.767767 
L 534.700732 -323.219883 
z
" style="stroke: #4c72b0; stroke-opacity: 0.2"/>
    </defs>
    <g clip-path="url(#pefc44b67fb)">
     <use xlink:href="#m79608353a1" x="0" y="2073.6" style="fill: #4c72b0; fill-opacity: 0.2; stroke: #4c72b0; stroke-opacity: 0.2"/>
    </g>
   </g>
   <g id="PolyCollection_2">
    <path d="M 566.322928 1767.291029 
L 566.322928 1767.291029 
L 719.690579 1761.654058 
L 1024.84477 1750.380117 
L 1035.912538 1737.227184 
L 1039.074758 1722.195262 
L 1042.236978 1712.330563 
L 1043.818087 1694.010408 
L 1048.561417 1688.373437 
L 1050.142527 1682.736466 
L 1053.304746 1677.099495 
L 1056.466966 1671.462524 
L 1058.048076 1665.825553 
L 1160.820213 1654.551612 
L 1227.226824 1648.914641 
L 1228.807934 1639.754563 
L 1231.970153 1620.729786 
L 1233.551263 1605.228117 
L 1235.132373 1586.907961 
L 1236.713483 1575.634019 
L 1238.294593 1564.360078 
L 1239.875702 1556.844117 
L 1241.456812 1539.933204 
L 1243.037922 1524.901282 
L 1244.619032 1513.62734 
L 1246.200142 1498.12567 
L 1247.781251 1475.577786 
L 1249.362361 1455.378641 
L 1250.943471 1440.346718 
L 1252.524581 1429.072777 
L 1254.105691 1415.919845 
L 1255.6868 1400.887922 
L 1257.26791 1395.250951 
L 1260.43013 1383.97701 
L 1262.01124 1252.684031 
L 1263.592349 1034.484816 
L 1265.173459 917.902009 
L 1274.660118 876.649631 
L 1280.984557 858.329476 
L 1282.565667 842.827806 
L 1284.146777 825.916893 
L 1293.633436 816.052194 
L 1409.054451 797.732039 
L 1415.37889 792.095068 
L 1638.315372 786.458097 
L 1646.220921 780.821126 
L 1657.288689 775.184155 
L 1662.032019 769.547184 
L 1665.194238 763.910214 
L 1677.843117 758.273243 
L 1685.748666 752.636272 
L 1687.329776 746.999301 
L 1690.491995 733.846369 
L 1693.654215 718.814447 
L 1695.235325 707.540505 
L 1696.816434 701.903534 
L 1701.559764 679.825398 
L 1704.721983 656.807767 
L 1711.046423 645.533825 
L 1712.627532 639.896854 
L 1715.789752 634.259883 
L 1720.533081 622.985942 
L 1726.857521 617.348971 
L 1731.60085 604.196039 
L 1733.18196 589.164117 
L 1736.344179 583.527146 
L 1737.925289 572.253204 
L 1739.506399 566.616233 
L 1755.317497 560.979262 
L 1756.898607 555.342291 
L 1777.453034 549.70532 
L 1782.196364 544.06835 
L 1783.777473 528.56668 
L 1785.358583 508.367534 
L 1794.845242 493.335612 
L 1892.87405 482.06167 
L 1894.455159 476.424699 
L 1910.266257 465.150757 
L 1927.658465 433.132763 
L 2020.943943 389.05165 
L 2035.173932 377.777709 
L 2036.755041 366.503767 
L 2038.336151 353.350835 
L 2039.917261 338.318913 
L 2039.917261 338.318913 
L 2039.917261 338.318913 
L 2038.336151 345.834874 
L 2036.755041 360.866796 
L 2035.173932 372.140738 
L 2020.943943 383.41468 
L 1927.658465 416.33459 
L 1910.266257 465.150757 
L 1894.455159 470.787728 
L 1892.87405 482.06167 
L 1794.845242 487.698641 
L 1785.358583 500.851573 
L 1783.777473 520.111223 
L 1782.196364 538.431379 
L 1777.453034 549.70532 
L 1756.898607 555.342291 
L 1755.317497 560.979262 
L 1739.506399 566.616233 
L 1737.925289 572.253204 
L 1736.344179 583.527146 
L 1733.18196 589.164117 
L 1731.60085 596.680078 
L 1726.857521 611.712 
L 1720.533081 622.985942 
L 1715.789752 628.622913 
L 1712.627532 639.896854 
L 1711.046423 645.533825 
L 1704.721983 651.170796 
L 1701.559764 669.021204 
L 1696.816434 696.266563 
L 1695.235325 707.540505 
L 1693.654215 713.177476 
L 1690.491995 726.330408 
L 1687.329776 741.36233 
L 1685.748666 752.636272 
L 1677.843117 758.273243 
L 1665.194238 763.910214 
L 1662.032019 769.547184 
L 1657.288689 775.184155 
L 1646.220921 780.821126 
L 1638.315372 786.458097 
L 1415.37889 792.095068 
L 1409.054451 797.732039 
L 1293.633436 807.596738 
L 1284.146777 825.916893 
L 1282.565667 837.190835 
L 1280.984557 852.692505 
L 1274.660118 871.01266 
L 1265.173459 903.290724 
L 1263.592349 1010.187527 
L 1262.01124 1222.549724 
L 1260.43013 1378.340039 
L 1257.26791 1389.613981 
L 1255.6868 1400.887922 
L 1254.105691 1408.403883 
L 1252.524581 1423.435806 
L 1250.943471 1434.709748 
L 1249.362361 1447.86268 
L 1247.781251 1467.12233 
L 1246.200142 1489.670214 
L 1244.619032 1507.990369 
L 1243.037922 1519.264311 
L 1241.456812 1532.417243 
L 1239.875702 1549.328155 
L 1238.294593 1564.360078 
L 1236.713483 1569.997049 
L 1235.132373 1581.27099 
L 1233.551263 1596.77266 
L 1231.970153 1615.092816 
L 1228.807934 1630.594485 
L 1227.226824 1648.914641 
L 1160.820213 1654.551612 
L 1058.048076 1660.188583 
L 1056.466966 1671.462524 
L 1053.304746 1677.099495 
L 1050.142527 1682.736466 
L 1048.561417 1688.373437 
L 1043.818087 1694.010408 
L 1042.236978 1703.875107 
L 1039.074758 1722.195262 
L 1035.912538 1729.711223 
L 1024.84477 1744.743146 
L 719.690579 1756.017087 
L 566.322928 1767.291029 
z
" clip-path="url(#pefc44b67fb)" style="fill: #dd8452; fill-opacity: 0.2; stroke: #dd8452; stroke-opacity: 0.2"/>
    <path d="M 2362.46366 329.863456 
L 2362.46366 332.681942 
L 2362.46366 329.863456 
L 2362.46366 329.863456 
z
" clip-path="url(#pefc44b67fb)" style="fill: #dd8452; fill-opacity: 0.2; stroke: #dd8452; stroke-opacity: 0.2"/>
    <path d="M 2390.923636 321.408 
L 2390.923636 321.408 
L 2390.923636 321.408 
L 2390.923636 321.408 
z
" clip-path="url(#pefc44b67fb)" style="fill: #dd8452; fill-opacity: 0.2; stroke: #dd8452; stroke-opacity: 0.2"/>
   </g>
   <g id="line2d_14">
    <path d="M 442.996364 1772.928 
L 534.700732 1750.380117 
L 559.998489 1732.059961 
L 561.579599 1667.308967 
L 563.160708 1609.455845 
L 567.904038 1603.818874 
L 582.134026 1595.363417 
L 613.756222 1531.10195 
L 623.242881 1474.168544 
L 637.472869 1456.130237 
L 639.053979 1420.61732 
L 640.635089 1363.308117 
L 645.378418 1263.345833 
L 646.959528 1209.230913 
L 648.540638 1203.593942 
L 651.702857 1197.956971 
L 654.865077 1192.32 
L 656.446187 1183.864544 
L 658.027296 1172.590602 
L 659.608406 1164.135146 
L 661.189516 1158.498175 
L 662.770626 1147.224233 
L 664.351736 1141.587262 
L 667.513955 1135.950291 
L 684.906163 1130.31332 
L 692.811712 1124.67635 
L 694.392822 1119.039379 
L 697.555041 1110.583922 
L 699.136151 1099.309981 
L 705.46059 1090.854524 
L 718.109469 1085.217553 
L 722.852798 1076.762097 
L 726.015018 1068.306641 
L 730.758347 1062.66967 
L 732.339457 1047.168 
L 740.245006 1028.847845 
L 746.569445 1023.210874 
L 749.731665 1017.573903 
L 759.218323 1011.936932 
L 763.961653 1006.299961 
L 765.542763 1000.66299 
L 767.123872 987.510058 
L 771.867202 978.115107 
L 784.51608 972.478136 
L 789.25941 966.841165 
L 795.583849 961.204194 
L 798.746068 955.567223 
L 803.489398 944.293282 
L 819.300496 938.656311 
L 839.854923 933.01934 
L 841.436033 927.382369 
L 854.084911 918.926913 
L 861.99046 910.471456 
L 874.639339 888.863068 
L 880.963778 863.496699 
L 893.612656 854.101748 
L 911.004864 845.646291 
L 912.585974 837.190835 
L 925.234852 828.735379 
L 926.815962 820.279922 
L 941.04595 811.824466 
L 961.600378 803.36901 
L 975.830366 797.732039 
L 982.154805 792.095068 
L 1032.750319 786.458097 
L 1078.602503 780.821126 
L 1084.926942 775.184155 
L 1100.73804 769.547184 
L 1105.48137 761.091728 
L 1156.076883 752.636272 
L 1280.984557 746.999301 
L 1282.565667 741.36233 
L 1298.376765 732.906874 
L 1312.606753 724.451417 
L 1320.512302 713.177476 
L 1375.851145 707.540505 
L 1391.662243 699.085049 
L 1404.311122 690.629592 
L 1421.703329 682.174136 
L 1443.838867 673.71868 
L 1467.555514 658.21701 
L 1472.298843 645.533825 
L 1494.43438 639.896854 
L 1546.611004 634.259883 
L 1584.557639 628.622913 
L 1592.463188 622.985942 
L 1636.734262 617.348971 
L 1641.477591 611.712 
L 1669.937568 606.075029 
L 1709.465313 600.438058 
L 1916.590697 594.801087 
L 1965.6051 589.164117 
L 2074.701677 583.527146 
L 2141.108288 577.890175 
" clip-path="url(#pefc44b67fb)" style="fill: none; stroke: #4c72b0; stroke-width: 1.5; stroke-linecap: round"/>
   </g>
   <g id="line2d_15">
    <path d="M 442.996364 1772.928 
L 566.322928 1767.291029 
L 719.690579 1758.835573 
L 1024.84477 1747.561631 
L 1035.912538 1733.469204 
L 1039.074758 1722.195262 
L 1042.236978 1708.102835 
L 1043.818087 1694.010408 
L 1048.561417 1688.373437 
L 1050.142527 1682.736466 
L 1053.304746 1677.099495 
L 1056.466966 1671.462524 
L 1058.048076 1663.007068 
L 1160.820213 1654.551612 
L 1227.226824 1648.914641 
L 1228.807934 1634.822214 
L 1231.970153 1617.911301 
L 1233.551263 1601.000388 
L 1235.132373 1584.089476 
L 1236.713483 1572.815534 
L 1238.294593 1564.360078 
L 1239.875702 1553.086136 
L 1241.456812 1536.175223 
L 1243.037922 1522.082796 
L 1244.619032 1510.808854 
L 1246.200142 1493.897942 
L 1247.781251 1471.350058 
L 1249.362361 1451.62066 
L 1250.943471 1437.528233 
L 1252.524581 1426.254291 
L 1254.105691 1412.161864 
L 1255.6868 1400.887922 
L 1257.26791 1392.432466 
L 1260.43013 1381.158524 
L 1262.01124 1238.002951 
L 1263.592349 1022.627739 
L 1265.173459 910.471456 
L 1274.660118 873.831146 
L 1280.984557 855.51099 
L 1282.565667 840.00932 
L 1284.146777 825.916893 
L 1293.633436 811.824466 
L 1409.054451 797.732039 
L 1415.37889 792.095068 
L 1638.315372 786.458097 
L 1646.220921 780.821126 
L 1657.288689 775.184155 
L 1662.032019 769.547184 
L 1665.194238 763.910214 
L 1677.843117 758.273243 
L 1685.748666 752.636272 
L 1687.329776 744.180816 
L 1690.491995 730.088388 
L 1693.654215 715.995961 
L 1695.235325 707.540505 
L 1696.816434 699.085049 
L 1701.559764 674.658175 
L 1704.721983 653.989282 
L 1711.046423 645.533825 
L 1712.627532 639.896854 
L 1715.789752 631.441398 
L 1720.533081 622.985942 
L 1726.857521 614.530485 
L 1731.60085 600.438058 
L 1733.18196 589.164117 
L 1736.344179 583.527146 
L 1737.925289 572.253204 
L 1739.506399 566.616233 
L 1755.317497 560.979262 
L 1756.898607 555.342291 
L 1777.453034 549.70532 
L 1782.196364 541.249864 
L 1783.777473 524.338951 
L 1785.358583 504.609553 
L 1794.845242 490.517126 
L 1892.87405 482.06167 
L 1894.455159 473.606214 
L 1910.266257 465.150757 
L 1927.658465 424.677306 
L 2020.943943 386.233165 
L 2035.173932 374.959223 
L 2036.755041 363.685282 
L 2038.336151 349.592854 
L 2039.917261 338.318913 
L 2360.88255 335.500427 
L 2362.46366 331.272699 
L 2370.369209 327.044971 
L 2390.923636 321.408 
" clip-path="url(#pefc44b67fb)" style="fill: none; stroke: #dd8452; stroke-width: 1.5; stroke-linecap: round"/>
   </g>
   <g id="line2d_16"/>
   <g id="line2d_17"/>
   <g id="patch_3">
    <path d="M 345.6 1845.504 
L 345.6 248.832 
" style="fill: none; stroke: #cccccc; stroke-width: 1.25; stroke-linejoin: miter; stroke-linecap: square"/>
   </g>
   <g id="patch_4">
    <path d="M 345.6 1845.504 
L 2488.32 1845.504 
" style="fill: none; stroke: #cccccc; stroke-width: 1.25; stroke-linejoin: miter; stroke-linecap: square"/>
   </g>
   <g id="text_16">
    <!-- Bug Discovery History -->
    <g style="fill: #262626" transform="translate(1287.42156 242.832)scale(0.20736 -0.20736)">
     <defs>
      <path id="DejaVuSans-Bold-42" d="M 2456 2859 
Q 2741 2859 2887 2984 
Q 3034 3109 3034 3353 
Q 3034 3594 2887 3720 
Q 2741 3847 2456 3847 
L 1791 3847 
L 1791 2859 
L 2456 2859 
z
M 2497 819 
Q 2859 819 3042 972 
Q 3225 1125 3225 1434 
Q 3225 1738 3044 1889 
Q 2863 2041 2497 2041 
L 1791 2041 
L 1791 819 
L 2497 819 
z
M 3616 2497 
Q 4003 2384 4215 2081 
Q 4428 1778 4428 1338 
Q 4428 663 3972 331 
Q 3516 0 2584 0 
L 588 0 
L 588 4666 
L 2394 4666 
Q 3366 4666 3802 4372 
Q 4238 4078 4238 3431 
Q 4238 3091 4078 2852 
Q 3919 2613 3616 2497 
z
" transform="scale(0.015625)"/>
      <path id="DejaVuSans-Bold-75" d="M 500 1363 
L 500 3500 
L 1625 3500 
L 1625 3150 
Q 1625 2866 1622 2436 
Q 1619 2006 1619 1863 
Q 1619 1441 1641 1255 
Q 1663 1069 1716 984 
Q 1784 875 1895 815 
Q 2006 756 2150 756 
Q 2500 756 2700 1025 
Q 2900 1294 2900 1772 
L 2900 3500 
L 4019 3500 
L 4019 0 
L 2900 0 
L 2900 506 
Q 2647 200 2364 54 
Q 2081 -91 1741 -91 
Q 1134 -91 817 281 
Q 500 653 500 1363 
z
" transform="scale(0.015625)"/>
      <path id="DejaVuSans-Bold-67" d="M 2919 594 
Q 2688 288 2409 144 
Q 2131 0 1766 0 
Q 1125 0 706 504 
Q 288 1009 288 1791 
Q 288 2575 706 3076 
Q 1125 3578 1766 3578 
Q 2131 3578 2409 3434 
Q 2688 3291 2919 2981 
L 2919 3500 
L 4044 3500 
L 4044 353 
Q 4044 -491 3511 -936 
Q 2978 -1381 1966 -1381 
Q 1638 -1381 1331 -1331 
Q 1025 -1281 716 -1178 
L 716 -306 
Q 1009 -475 1290 -558 
Q 1572 -641 1856 -641 
Q 2406 -641 2662 -400 
Q 2919 -159 2919 353 
L 2919 594 
z
M 2181 2772 
Q 1834 2772 1640 2515 
Q 1447 2259 1447 1791 
Q 1447 1309 1634 1061 
Q 1822 813 2181 813 
Q 2531 813 2725 1069 
Q 2919 1325 2919 1791 
Q 2919 2259 2725 2515 
Q 2531 2772 2181 2772 
z
" transform="scale(0.015625)"/>
      <path id="DejaVuSans-Bold-20" transform="scale(0.015625)"/>
      <path id="DejaVuSans-Bold-44" d="M 1791 3756 
L 1791 909 
L 2222 909 
Q 2959 909 3348 1275 
Q 3738 1641 3738 2338 
Q 3738 3031 3350 3393 
Q 2963 3756 2222 3756 
L 1791 3756 
z
M 588 4666 
L 1856 4666 
Q 2919 4666 3439 4514 
Q 3959 4363 4331 4000 
Q 4659 3684 4818 3271 
Q 4978 2859 4978 2338 
Q 4978 1809 4818 1395 
Q 4659 981 4331 666 
Q 3956 303 3431 151 
Q 2906 0 1856 0 
L 588 0 
L 588 4666 
z
" transform="scale(0.015625)"/>
      <path id="DejaVuSans-Bold-69" d="M 538 3500 
L 1656 3500 
L 1656 0 
L 538 0 
L 538 3500 
z
M 538 4863 
L 1656 4863 
L 1656 3950 
L 538 3950 
L 538 4863 
z
" transform="scale(0.015625)"/>
      <path id="DejaVuSans-Bold-73" d="M 3272 3391 
L 3272 2541 
Q 2913 2691 2578 2766 
Q 2244 2841 1947 2841 
Q 1628 2841 1473 2761 
Q 1319 2681 1319 2516 
Q 1319 2381 1436 2309 
Q 1553 2238 1856 2203 
L 2053 2175 
Q 2913 2066 3209 1816 
Q 3506 1566 3506 1031 
Q 3506 472 3093 190 
Q 2681 -91 1863 -91 
Q 1516 -91 1145 -36 
Q 775 19 384 128 
L 384 978 
Q 719 816 1070 734 
Q 1422 653 1784 653 
Q 2113 653 2278 743 
Q 2444 834 2444 1013 
Q 2444 1163 2330 1236 
Q 2216 1309 1875 1350 
L 1678 1375 
Q 931 1469 631 1722 
Q 331 1975 331 2491 
Q 331 3047 712 3315 
Q 1094 3584 1881 3584 
Q 2191 3584 2531 3537 
Q 2872 3491 3272 3391 
z
" transform="scale(0.015625)"/>
      <path id="DejaVuSans-Bold-63" d="M 3366 3391 
L 3366 2478 
Q 3138 2634 2908 2709 
Q 2678 2784 2431 2784 
Q 1963 2784 1702 2511 
Q 1441 2238 1441 1747 
Q 1441 1256 1702 982 
Q 1963 709 2431 709 
Q 2694 709 2930 787 
Q 3166 866 3366 1019 
L 3366 103 
Q 3103 6 2833 -42 
Q 2563 -91 2291 -91 
Q 1344 -91 809 395 
Q 275 881 275 1747 
Q 275 2613 809 3098 
Q 1344 3584 2291 3584 
Q 2566 3584 2833 3536 
Q 3100 3488 3366 3391 
z
" transform="scale(0.015625)"/>
      <path id="DejaVuSans-Bold-6f" d="M 2203 2784 
Q 1831 2784 1636 2517 
Q 1441 2250 1441 1747 
Q 1441 1244 1636 976 
Q 1831 709 2203 709 
Q 2569 709 2762 976 
Q 2956 1244 2956 1747 
Q 2956 2250 2762 2517 
Q 2569 2784 2203 2784 
z
M 2203 3584 
Q 3106 3584 3614 3096 
Q 4122 2609 4122 1747 
Q 4122 884 3614 396 
Q 3106 -91 2203 -91 
Q 1297 -91 786 396 
Q 275 884 275 1747 
Q 275 2609 786 3096 
Q 1297 3584 2203 3584 
z
" transform="scale(0.015625)"/>
      <path id="DejaVuSans-Bold-76" d="M 97 3500 
L 1216 3500 
L 2088 1081 
L 2956 3500 
L 4078 3500 
L 2700 0 
L 1472 0 
L 97 3500 
z
" transform="scale(0.015625)"/>
      <path id="DejaVuSans-Bold-65" d="M 4031 1759 
L 4031 1441 
L 1416 1441 
Q 1456 1047 1700 850 
Q 1944 653 2381 653 
Q 2734 653 3104 758 
Q 3475 863 3866 1075 
L 3866 213 
Q 3469 63 3072 -14 
Q 2675 -91 2278 -91 
Q 1328 -91 801 392 
Q 275 875 275 1747 
Q 275 2603 792 3093 
Q 1309 3584 2216 3584 
Q 3041 3584 3536 3087 
Q 4031 2591 4031 1759 
z
M 2881 2131 
Q 2881 2450 2695 2645 
Q 2509 2841 2209 2841 
Q 1884 2841 1681 2658 
Q 1478 2475 1428 2131 
L 2881 2131 
z
" transform="scale(0.015625)"/>
      <path id="DejaVuSans-Bold-72" d="M 3138 2547 
Q 2991 2616 2845 2648 
Q 2700 2681 2553 2681 
Q 2122 2681 1889 2404 
Q 1656 2128 1656 1613 
L 1656 0 
L 538 0 
L 538 3500 
L 1656 3500 
L 1656 2925 
Q 1872 3269 2151 3426 
Q 2431 3584 2822 3584 
Q 2878 3584 2943 3579 
Q 3009 3575 3134 3559 
L 3138 2547 
z
" transform="scale(0.015625)"/>
      <path id="DejaVuSans-Bold-79" d="M 78 3500 
L 1197 3500 
L 2138 1125 
L 2938 3500 
L 4056 3500 
L 2584 -331 
Q 2363 -916 2067 -1148 
Q 1772 -1381 1288 -1381 
L 641 -1381 
L 641 -647 
L 991 -647 
Q 1275 -647 1404 -556 
Q 1534 -466 1606 -231 
L 1638 -134 
L 78 3500 
z
" transform="scale(0.015625)"/>
      <path id="DejaVuSans-Bold-48" d="M 588 4666 
L 1791 4666 
L 1791 2888 
L 3566 2888 
L 3566 4666 
L 4769 4666 
L 4769 0 
L 3566 0 
L 3566 1978 
L 1791 1978 
L 1791 0 
L 588 0 
L 588 4666 
z
" transform="scale(0.015625)"/>
      <path id="DejaVuSans-Bold-74" d="M 1759 4494 
L 1759 3500 
L 2913 3500 
L 2913 2700 
L 1759 2700 
L 1759 1216 
Q 1759 972 1856 886 
Q 1953 800 2241 800 
L 2816 800 
L 2816 0 
L 1856 0 
Q 1194 0 917 276 
Q 641 553 641 1216 
L 641 2700 
L 84 2700 
L 84 3500 
L 641 3500 
L 641 4494 
L 1759 4494 
z
" transform="scale(0.015625)"/>
     </defs>
     <use xlink:href="#DejaVuSans-Bold-42"/>
     <use xlink:href="#DejaVuSans-Bold-75" x="76.220703"/>
     <use xlink:href="#DejaVuSans-Bold-67" x="147.412109"/>
     <use xlink:href="#DejaVuSans-Bold-20" x="218.994141"/>
     <use xlink:href="#DejaVuSans-Bold-44" x="253.808594"/>
     <use xlink:href="#DejaVuSans-Bold-69" x="336.816406"/>
     <use xlink:href="#DejaVuSans-Bold-73" x="371.09375"/>
     <use xlink:href="#DejaVuSans-Bold-63" x="430.615234"/>
     <use xlink:href="#DejaVuSans-Bold-6f" x="489.892578"/>
     <use xlink:href="#DejaVuSans-Bold-76" x="558.59375"/>
     <use xlink:href="#DejaVuSans-Bold-65" x="623.779297"/>
     <use xlink:href="#DejaVuSans-Bold-72" x="691.601562"/>
     <use xlink:href="#DejaVuSans-Bold-79" x="740.917969"/>
     <use xlink:href="#DejaVuSans-Bold-20" x="806.103516"/>
     <use xlink:href="#DejaVuSans-Bold-48" x="840.917969"/>
     <use xlink:href="#DejaVuSans-Bold-69" x="924.609375"/>
     <use xlink:href="#DejaVuSans-Bold-73" x="958.886719"/>
     <use xlink:href="#DejaVuSans-Bold-74" x="1018.408203"/>
     <use xlink:href="#DejaVuSans-Bold-6f" x="1066.210938"/>
     <use xlink:href="#DejaVuSans-Bold-72" x="1134.912109"/>
     <use xlink:href="#DejaVuSans-Bold-79" x="1184.228516"/>
    </g>
   </g>
   <g id="legend_1">
    <g id="patch_5">
     <path d="M 2352.779375 307.037625 
L 2480.62 307.037625 
Q 2482.82 307.037625 2482.82 304.837625 
L 2482.82 256.532 
Q 2482.82 254.332 2480.62 254.332 
L 2352.779375 254.332 
Q 2350.579375 254.332 2350.579375 256.532 
L 2350.579375 304.837625 
Q 2350.579375 307.037625 2352.779375 307.037625 
z
" style="fill: #ffffff; opacity: 0.8; stroke: #cccccc; stroke-linejoin: miter"/>
    </g>
    <g id="text_17">
     <!-- fuzzer -->
     <g style="fill: #262626" transform="translate(2398.328437 267.850125)scale(0.12 -0.12)">
      <defs>
       <path id="DejaVuSans-66" d="M 2375 4863 
L 2375 4384 
L 1825 4384 
Q 1516 4384 1395 4259 
Q 1275 4134 1275 3809 
L 1275 3500 
L 2222 3500 
L 2222 3053 
L 1275 3053 
L 1275 0 
L 697 0 
L 697 3053 
L 147 3053 
L 147 3500 
L 697 3500 
L 697 3744 
Q 697 4328 969 4595 
Q 1241 4863 1831 4863 
L 2375 4863 
z
" transform="scale(0.015625)"/>
       <path id="DejaVuSans-7a" d="M 353 3500 
L 3084 3500 
L 3084 2975 
L 922 459 
L 3084 459 
L 3084 0 
L 275 0 
L 275 525 
L 2438 3041 
L 353 3041 
L 353 3500 
z
" transform="scale(0.015625)"/>
      </defs>
      <use xlink:href="#DejaVuSans-66"/>
      <use xlink:href="#DejaVuSans-75" x="35.205078"/>
      <use xlink:href="#DejaVuSans-7a" x="98.583984"/>
      <use xlink:href="#DejaVuSans-7a" x="151.074219"/>
      <use xlink:href="#DejaVuSans-65" x="203.564453"/>
      <use xlink:href="#DejaVuSans-72" x="265.087891"/>
     </g>
    </g>
    <g id="line2d_18">
     <path d="M 2354.979375 280.354031 
L 2365.979375 280.354031 
L 2376.979375 280.354031 
" style="fill: none; stroke: #4c72b0; stroke-width: 1.5; stroke-linecap: round"/>
    </g>
    <g id="text_18">
     <!-- afl-0-exid23 -->
     <g style="fill: #262626" transform="translate(2385.779375 284.204031)scale(0.11 -0.11)">
      <defs>
       <path id="DejaVuSans-61" d="M 2194 1759 
Q 1497 1759 1228 1600 
Q 959 1441 959 1056 
Q 959 750 1161 570 
Q 1363 391 1709 391 
Q 2188 391 2477 730 
Q 2766 1069 2766 1631 
L 2766 1759 
L 2194 1759 
z
M 3341 1997 
L 3341 0 
L 2766 0 
L 2766 531 
Q 2569 213 2275 61 
Q 1981 -91 1556 -91 
Q 1019 -91 701 211 
Q 384 513 384 1019 
Q 384 1609 779 1909 
Q 1175 2209 1959 2209 
L 2766 2209 
L 2766 2266 
Q 2766 2663 2505 2880 
Q 2244 3097 1772 3097 
Q 1472 3097 1187 3025 
Q 903 2953 641 2809 
L 641 3341 
Q 956 3463 1253 3523 
Q 1550 3584 1831 3584 
Q 2591 3584 2966 3190 
Q 3341 2797 3341 1997 
z
" transform="scale(0.015625)"/>
       <path id="DejaVuSans-6c" d="M 603 4863 
L 1178 4863 
L 1178 0 
L 603 0 
L 603 4863 
z
" transform="scale(0.015625)"/>
       <path id="DejaVuSans-2d" d="M 313 2009 
L 1997 2009 
L 1997 1497 
L 313 1497 
L 313 2009 
z
" transform="scale(0.015625)"/>
       <path id="DejaVuSans-78" d="M 3513 3500 
L 2247 1797 
L 3578 0 
L 2900 0 
L 1881 1375 
L 863 0 
L 184 0 
L 1544 1831 
L 300 3500 
L 978 3500 
L 1906 2253 
L 2834 3500 
L 3513 3500 
z
" transform="scale(0.015625)"/>
       <path id="DejaVuSans-64" d="M 2906 2969 
L 2906 4863 
L 3481 4863 
L 3481 0 
L 2906 0 
L 2906 525 
Q 2725 213 2448 61 
Q 2172 -91 1784 -91 
Q 1150 -91 751 415 
Q 353 922 353 1747 
Q 353 2572 751 3078 
Q 1150 3584 1784 3584 
Q 2172 3584 2448 3432 
Q 2725 3281 2906 2969 
z
M 947 1747 
Q 947 1113 1208 752 
Q 1469 391 1925 391 
Q 2381 391 2643 752 
Q 2906 1113 2906 1747 
Q 2906 2381 2643 2742 
Q 2381 3103 1925 3103 
Q 1469 3103 1208 2742 
Q 947 2381 947 1747 
z
" transform="scale(0.015625)"/>
      </defs>
      <use xlink:href="#DejaVuSans-61"/>
      <use xlink:href="#DejaVuSans-66" x="61.279297"/>
      <use xlink:href="#DejaVuSans-6c" x="96.484375"/>
      <use xlink:href="#DejaVuSans-2d" x="124.267578"/>
      <use xlink:href="#DejaVuSans-30" x="160.351562"/>
      <use xlink:href="#DejaVuSans-2d" x="223.974609"/>
      <use xlink:href="#DejaVuSans-65" x="260.058594"/>
      <use xlink:href="#DejaVuSans-78" x="319.832031"/>
      <use xlink:href="#DejaVuSans-69" x="379.011719"/>
      <use xlink:href="#DejaVuSans-64" x="406.794922"/>
      <use xlink:href="#DejaVuSans-32" x="470.271484"/>
      <use xlink:href="#DejaVuSans-33" x="533.894531"/>
     </g>
    </g>
    <g id="line2d_19">
     <path d="M 2354.979375 296.499969 
L 2365.979375 296.499969 
L 2376.979375 296.499969 
" style="fill: none; stroke: #dd8452; stroke-width: 1.5; stroke-linecap: round"/>
    </g>
    <g id="text_19">
     <!-- fairfuzz-0-exid23 -->
     <g style="fill: #262626" transform="translate(2385.779375 300.349969)scale(0.11 -0.11)">
      <use xlink:href="#DejaVuSans-66"/>
      <use xlink:href="#DejaVuSans-61" x="35.205078"/>
      <use xlink:href="#DejaVuSans-69" x="96.484375"/>
      <use xlink:href="#DejaVuSans-72" x="124.267578"/>
      <use xlink:href="#DejaVuSans-66" x="165.380859"/>
      <use xlink:href="#DejaVuSans-75" x="200.585938"/>
      <use xlink:href="#DejaVuSans-7a" x="263.964844"/>
      <use xlink:href="#DejaVuSans-7a" x="316.455078"/>
      <use xlink:href="#DejaVuSans-2d" x="368.945312"/>
      <use xlink:href="#DejaVuSans-30" x="405.029297"/>
      <use xlink:href="#DejaVuSans-2d" x="468.652344"/>
      <use xlink:href="#DejaVuSans-65" x="504.736328"/>
      <use xlink:href="#DejaVuSans-78" x="564.509766"/>
      <use xlink:href="#DejaVuSans-69" x="623.689453"/>
      <use xlink:href="#DejaVuSans-64" x="651.472656"/>
      <use xlink:href="#DejaVuSans-32" x="714.949219"/>
      <use xlink:href="#DejaVuSans-33" x="778.572266"/>
     </g>
    </g>
   </g>
  </g>
 </g>
 <defs>
  <clipPath id="pefc44b67fb">
   <rect x="345.6" y="248.832" width="2142.72" height="1596.672"/>
  </clipPath>
 </defs>
</svg>
