<?xml version="1.0" encoding="utf-8" standalone="no"?>
<!DOCTYPE svg PUBLIC "-//W3C//DTD SVG 1.1//EN"
  "http://www.w3.org/Graphics/SVG/1.1/DTD/svg11.dtd">
<svg xmlns:xlink="http://www.w3.org/1999/xlink" width="434.7pt" height="576pt" viewBox="0 0 434.7 576" xmlns="http://www.w3.org/2000/svg" version="1.1">
 <metadata>
  <rdf:RDF xmlns:dc="http://purl.org/dc/elements/1.1/" xmlns:cc="http://creativecommons.org/ns#" xmlns:rdf="http://www.w3.org/1999/02/22-rdf-syntax-ns#">
   <cc:Work>
    <dc:type rdf:resource="http://purl.org/dc/dcmitype/StillImage"/>
    <dc:date>2022-09-15T11:27:36.475188</dc:date>
    <dc:format>image/svg+xml</dc:format>
    <dc:creator>
     <cc:Agent>
      <dc:title>Matplotlib v3.5.3, https://matplotlib.org/</dc:title>
     </cc:Agent>
    </dc:creator>
   </cc:Work>
  </rdf:RDF>
 </metadata>
 <defs>
  <style type="text/css">*{stroke-linejoin: round; stroke-linecap: butt}</style>
 </defs>
 <g id="figure_1">
  <g id="patch_1">
   <path d="M 0 576 
L 434.7 576 
L 434.7 0 
L 0 0 
z
" style="fill: #ffffff"/>
  </g>
  <g id="axes_1">
   <g id="patch_2">
    <path d="M 54.3375 512.64 
L 391.23 512.64 
L 391.23 69.12 
L 54.3375 69.12 
z
" style="fill: #ffffff"/>
   </g>
   <g id="matplotlib.axis_1">
    <g id="xtick_1">
     <g id="line2d_1">
      <path d="M 69.650795 512.64 
L 69.650795 69.12 
" clip-path="url(#p878d49d7a7)" style="fill: none; stroke: #cccccc; stroke-width: 0.8; stroke-linecap: round"/>
     </g>
     <g id="text_1">
      <!-- 0 -->
      <g style="fill: #262626" transform="translate(69.388282 529.627249)rotate(-45)scale(0.088 -0.088)">
       <defs>
        <path id="DejaVuSans-30" d="M 2034 4250 
Q 1547 4250 1301 3770 
Q 1056 3291 1056 2328 
Q 1056 1369 1301 889 
Q 1547 409 2034 409 
Q 2525 409 2770 889 
Q 3016 1369 3016 2328 
Q 3016 3291 2770 3770 
Q 2525 4250 2034 4250 
z
M 2034 4750 
Q 2819 4750 3233 4129 
Q 3647 3509 3647 2328 
Q 3647 1150 3233 529 
Q 2819 -91 2034 -91 
Q 1250 -91 836 529 
Q 422 1150 422 2328 
Q 422 3509 836 4129 
Q 1250 4750 2034 4750 
z
" transform="scale(0.015625)"/>
       </defs>
       <use xlink:href="#DejaVuSans-30"/>
      </g>
     </g>
    </g>
    <g id="xtick_2">
     <g id="line2d_2">
      <path d="M 86.677392 512.64 
L 86.677392 69.12 
" clip-path="url(#p878d49d7a7)" style="fill: none; stroke: #cccccc; stroke-width: 0.8; stroke-linecap: round"/>
     </g>
     <g id="text_2">
      <!-- 80 -->
      <g style="fill: #262626" transform="translate(84.435333 533.58634)rotate(-45)scale(0.088 -0.088)">
       <defs>
        <path id="DejaVuSans-38" d="M 2034 2216 
Q 1584 2216 1326 1975 
Q 1069 1734 1069 1313 
Q 1069 891 1326 650 
Q 1584 409 2034 409 
Q 2484 409 2743 651 
Q 3003 894 3003 1313 
Q 3003 1734 2745 1975 
Q 2488 2216 2034 2216 
z
M 1403 2484 
Q 997 2584 770 2862 
Q 544 3141 544 3541 
Q 544 4100 942 4425 
Q 1341 4750 2034 4750 
Q 2731 4750 3128 4425 
Q 3525 4100 3525 3541 
Q 3525 3141 3298 2862 
Q 3072 2584 2669 2484 
Q 3125 2378 3379 2068 
Q 3634 1759 3634 1313 
Q 3634 634 3220 271 
Q 2806 -91 2034 -91 
Q 1263 -91 848 271 
Q 434 634 434 1313 
Q 434 1759 690 2068 
Q 947 2378 1403 2484 
z
M 1172 3481 
Q 1172 3119 1398 2916 
Q 1625 2713 2034 2713 
Q 2441 2713 2670 2916 
Q 2900 3119 2900 3481 
Q 2900 3844 2670 4047 
Q 2441 4250 2034 4250 
Q 1625 4250 1398 4047 
Q 1172 3844 1172 3481 
z
" transform="scale(0.015625)"/>
       </defs>
       <use xlink:href="#DejaVuSans-38"/>
       <use xlink:href="#DejaVuSans-30" x="63.623047"/>
      </g>
     </g>
    </g>
    <g id="xtick_3">
     <g id="line2d_3">
      <path d="M 103.703989 512.64 
L 103.703989 69.12 
" clip-path="url(#p878d49d7a7)" style="fill: none; stroke: #cccccc; stroke-width: 0.8; stroke-linecap: round"/>
     </g>
     <g id="text_3">
      <!-- 160 -->
      <g style="fill: #262626" transform="translate(99.482385 537.54543)rotate(-45)scale(0.088 -0.088)">
       <defs>
        <path id="DejaVuSans-31" d="M 794 531 
L 1825 531 
L 1825 4091 
L 703 3866 
L 703 4441 
L 1819 4666 
L 2450 4666 
L 2450 531 
L 3481 531 
L 3481 0 
L 794 0 
L 794 531 
z
" transform="scale(0.015625)"/>
        <path id="DejaVuSans-36" d="M 2113 2584 
Q 1688 2584 1439 2293 
Q 1191 2003 1191 1497 
Q 1191 994 1439 701 
Q 1688 409 2113 409 
Q 2538 409 2786 701 
Q 3034 994 3034 1497 
Q 3034 2003 2786 2293 
Q 2538 2584 2113 2584 
z
M 3366 4563 
L 3366 3988 
Q 3128 4100 2886 4159 
Q 2644 4219 2406 4219 
Q 1781 4219 1451 3797 
Q 1122 3375 1075 2522 
Q 1259 2794 1537 2939 
Q 1816 3084 2150 3084 
Q 2853 3084 3261 2657 
Q 3669 2231 3669 1497 
Q 3669 778 3244 343 
Q 2819 -91 2113 -91 
Q 1303 -91 875 529 
Q 447 1150 447 2328 
Q 447 3434 972 4092 
Q 1497 4750 2381 4750 
Q 2619 4750 2861 4703 
Q 3103 4656 3366 4563 
z
" transform="scale(0.015625)"/>
       </defs>
       <use xlink:href="#DejaVuSans-31"/>
       <use xlink:href="#DejaVuSans-36" x="63.623047"/>
       <use xlink:href="#DejaVuSans-30" x="127.246094"/>
      </g>
     </g>
    </g>
    <g id="xtick_4">
     <g id="line2d_4">
      <path d="M 120.730586 512.64 
L 120.730586 69.12 
" clip-path="url(#p878d49d7a7)" style="fill: none; stroke: #cccccc; stroke-width: 0.8; stroke-linecap: round"/>
     </g>
     <g id="text_4">
      <!-- 240 -->
      <g style="fill: #262626" transform="translate(116.508981 537.54543)rotate(-45)scale(0.088 -0.088)">
       <defs>
        <path id="DejaVuSans-32" d="M 1228 531 
L 3431 531 
L 3431 0 
L 469 0 
L 469 531 
Q 828 903 1448 1529 
Q 2069 2156 2228 2338 
Q 2531 2678 2651 2914 
Q 2772 3150 2772 3378 
Q 2772 3750 2511 3984 
Q 2250 4219 1831 4219 
Q 1534 4219 1204 4116 
Q 875 4013 500 3803 
L 500 4441 
Q 881 4594 1212 4672 
Q 1544 4750 1819 4750 
Q 2544 4750 2975 4387 
Q 3406 4025 3406 3419 
Q 3406 3131 3298 2873 
Q 3191 2616 2906 2266 
Q 2828 2175 2409 1742 
Q 1991 1309 1228 531 
z
" transform="scale(0.015625)"/>
        <path id="DejaVuSans-34" d="M 2419 4116 
L 825 1625 
L 2419 1625 
L 2419 4116 
z
M 2253 4666 
L 3047 4666 
L 3047 1625 
L 3713 1625 
L 3713 1100 
L 3047 1100 
L 3047 0 
L 2419 0 
L 2419 1100 
L 313 1100 
L 313 1709 
L 2253 4666 
z
" transform="scale(0.015625)"/>
       </defs>
       <use xlink:href="#DejaVuSans-32"/>
       <use xlink:href="#DejaVuSans-34" x="63.623047"/>
       <use xlink:href="#DejaVuSans-30" x="127.246094"/>
      </g>
     </g>
    </g>
    <g id="xtick_5">
     <g id="line2d_5">
      <path d="M 137.757182 512.64 
L 137.757182 69.12 
" clip-path="url(#p878d49d7a7)" style="fill: none; stroke: #cccccc; stroke-width: 0.8; stroke-linecap: round"/>
     </g>
     <g id="text_5">
      <!-- 320 -->
      <g style="fill: #262626" transform="translate(133.535578 537.54543)rotate(-45)scale(0.088 -0.088)">
       <defs>
        <path id="DejaVuSans-33" d="M 2597 2516 
Q 3050 2419 3304 2112 
Q 3559 1806 3559 1356 
Q 3559 666 3084 287 
Q 2609 -91 1734 -91 
Q 1441 -91 1130 -33 
Q 819 25 488 141 
L 488 750 
Q 750 597 1062 519 
Q 1375 441 1716 441 
Q 2309 441 2620 675 
Q 2931 909 2931 1356 
Q 2931 1769 2642 2001 
Q 2353 2234 1838 2234 
L 1294 2234 
L 1294 2753 
L 1863 2753 
Q 2328 2753 2575 2939 
Q 2822 3125 2822 3475 
Q 2822 3834 2567 4026 
Q 2313 4219 1838 4219 
Q 1578 4219 1281 4162 
Q 984 4106 628 3988 
L 628 4550 
Q 988 4650 1302 4700 
Q 1616 4750 1894 4750 
Q 2613 4750 3031 4423 
Q 3450 4097 3450 3541 
Q 3450 3153 3228 2886 
Q 3006 2619 2597 2516 
z
" transform="scale(0.015625)"/>
       </defs>
       <use xlink:href="#DejaVuSans-33"/>
       <use xlink:href="#DejaVuSans-32" x="63.623047"/>
       <use xlink:href="#DejaVuSans-30" x="127.246094"/>
      </g>
     </g>
    </g>
    <g id="xtick_6">
     <g id="line2d_6">
      <path d="M 154.783779 512.64 
L 154.783779 69.12 
" clip-path="url(#p878d49d7a7)" style="fill: none; stroke: #cccccc; stroke-width: 0.8; stroke-linecap: round"/>
     </g>
     <g id="text_6">
      <!-- 400 -->
      <g style="fill: #262626" transform="translate(150.562175 537.54543)rotate(-45)scale(0.088 -0.088)">
       <use xlink:href="#DejaVuSans-34"/>
       <use xlink:href="#DejaVuSans-30" x="63.623047"/>
       <use xlink:href="#DejaVuSans-30" x="127.246094"/>
      </g>
     </g>
    </g>
    <g id="xtick_7">
     <g id="line2d_7">
      <path d="M 171.810376 512.64 
L 171.810376 69.12 
" clip-path="url(#p878d49d7a7)" style="fill: none; stroke: #cccccc; stroke-width: 0.8; stroke-linecap: round"/>
     </g>
     <g id="text_7">
      <!-- 480 -->
      <g style="fill: #262626" transform="translate(167.588772 537.54543)rotate(-45)scale(0.088 -0.088)">
       <use xlink:href="#DejaVuSans-34"/>
       <use xlink:href="#DejaVuSans-38" x="63.623047"/>
       <use xlink:href="#DejaVuSans-30" x="127.246094"/>
      </g>
     </g>
    </g>
    <g id="xtick_8">
     <g id="line2d_8">
      <path d="M 188.836973 512.64 
L 188.836973 69.12 
" clip-path="url(#p878d49d7a7)" style="fill: none; stroke: #cccccc; stroke-width: 0.8; stroke-linecap: round"/>
     </g>
     <g id="text_8">
      <!-- 560 -->
      <g style="fill: #262626" transform="translate(184.615368 537.54543)rotate(-45)scale(0.088 -0.088)">
       <defs>
        <path id="DejaVuSans-35" d="M 691 4666 
L 3169 4666 
L 3169 4134 
L 1269 4134 
L 1269 2991 
Q 1406 3038 1543 3061 
Q 1681 3084 1819 3084 
Q 2600 3084 3056 2656 
Q 3513 2228 3513 1497 
Q 3513 744 3044 326 
Q 2575 -91 1722 -91 
Q 1428 -91 1123 -41 
Q 819 9 494 109 
L 494 744 
Q 775 591 1075 516 
Q 1375 441 1709 441 
Q 2250 441 2565 725 
Q 2881 1009 2881 1497 
Q 2881 1984 2565 2268 
Q 2250 2553 1709 2553 
Q 1456 2553 1204 2497 
Q 953 2441 691 2322 
L 691 4666 
z
" transform="scale(0.015625)"/>
       </defs>
       <use xlink:href="#DejaVuSans-35"/>
       <use xlink:href="#DejaVuSans-36" x="63.623047"/>
       <use xlink:href="#DejaVuSans-30" x="127.246094"/>
      </g>
     </g>
    </g>
    <g id="xtick_9">
     <g id="line2d_9">
      <path d="M 205.863569 512.64 
L 205.863569 69.12 
" clip-path="url(#p878d49d7a7)" style="fill: none; stroke: #cccccc; stroke-width: 0.8; stroke-linecap: round"/>
     </g>
     <g id="text_9">
      <!-- 640 -->
      <g style="fill: #262626" transform="translate(201.641965 537.54543)rotate(-45)scale(0.088 -0.088)">
       <use xlink:href="#DejaVuSans-36"/>
       <use xlink:href="#DejaVuSans-34" x="63.623047"/>
       <use xlink:href="#DejaVuSans-30" x="127.246094"/>
      </g>
     </g>
    </g>
    <g id="xtick_10">
     <g id="line2d_10">
      <path d="M 222.890166 512.64 
L 222.890166 69.12 
" clip-path="url(#p878d49d7a7)" style="fill: none; stroke: #cccccc; stroke-width: 0.8; stroke-linecap: round"/>
     </g>
     <g id="text_10">
      <!-- 720 -->
      <g style="fill: #262626" transform="translate(218.668562 537.54543)rotate(-45)scale(0.088 -0.088)">
       <defs>
        <path id="DejaVuSans-37" d="M 525 4666 
L 3525 4666 
L 3525 4397 
L 1831 0 
L 1172 0 
L 2766 4134 
L 525 4134 
L 525 4666 
z
" transform="scale(0.015625)"/>
       </defs>
       <use xlink:href="#DejaVuSans-37"/>
       <use xlink:href="#DejaVuSans-32" x="63.623047"/>
       <use xlink:href="#DejaVuSans-30" x="127.246094"/>
      </g>
     </g>
    </g>
    <g id="xtick_11">
     <g id="line2d_11">
      <path d="M 239.916763 512.64 
L 239.916763 69.12 
" clip-path="url(#p878d49d7a7)" style="fill: none; stroke: #cccccc; stroke-width: 0.8; stroke-linecap: round"/>
     </g>
     <g id="text_11">
      <!-- 800 -->
      <g style="fill: #262626" transform="translate(235.695159 537.54543)rotate(-45)scale(0.088 -0.088)">
       <use xlink:href="#DejaVuSans-38"/>
       <use xlink:href="#DejaVuSans-30" x="63.623047"/>
       <use xlink:href="#DejaVuSans-30" x="127.246094"/>
      </g>
     </g>
    </g>
    <g id="xtick_12">
     <g id="line2d_12">
      <path d="M 256.94336 512.64 
L 256.94336 69.12 
" clip-path="url(#p878d49d7a7)" style="fill: none; stroke: #cccccc; stroke-width: 0.8; stroke-linecap: round"/>
     </g>
     <g id="text_12">
      <!-- 880 -->
      <g style="fill: #262626" transform="translate(252.721755 537.54543)rotate(-45)scale(0.088 -0.088)">
       <use xlink:href="#DejaVuSans-38"/>
       <use xlink:href="#DejaVuSans-38" x="63.623047"/>
       <use xlink:href="#DejaVuSans-30" x="127.246094"/>
      </g>
     </g>
    </g>
    <g id="xtick_13">
     <g id="line2d_13">
      <path d="M 273.969956 512.64 
L 273.969956 69.12 
" clip-path="url(#p878d49d7a7)" style="fill: none; stroke: #cccccc; stroke-width: 0.8; stroke-linecap: round"/>
     </g>
     <g id="text_13">
      <!-- 960 -->
      <g style="fill: #262626" transform="translate(269.748352 537.54543)rotate(-45)scale(0.088 -0.088)">
       <defs>
        <path id="DejaVuSans-39" d="M 703 97 
L 703 672 
Q 941 559 1184 500 
Q 1428 441 1663 441 
Q 2288 441 2617 861 
Q 2947 1281 2994 2138 
Q 2813 1869 2534 1725 
Q 2256 1581 1919 1581 
Q 1219 1581 811 2004 
Q 403 2428 403 3163 
Q 403 3881 828 4315 
Q 1253 4750 1959 4750 
Q 2769 4750 3195 4129 
Q 3622 3509 3622 2328 
Q 3622 1225 3098 567 
Q 2575 -91 1691 -91 
Q 1453 -91 1209 -44 
Q 966 3 703 97 
z
M 1959 2075 
Q 2384 2075 2632 2365 
Q 2881 2656 2881 3163 
Q 2881 3666 2632 3958 
Q 2384 4250 1959 4250 
Q 1534 4250 1286 3958 
Q 1038 3666 1038 3163 
Q 1038 2656 1286 2365 
Q 1534 2075 1959 2075 
z
" transform="scale(0.015625)"/>
       </defs>
       <use xlink:href="#DejaVuSans-39"/>
       <use xlink:href="#DejaVuSans-36" x="63.623047"/>
       <use xlink:href="#DejaVuSans-30" x="127.246094"/>
      </g>
     </g>
    </g>
    <g id="xtick_14">
     <g id="line2d_14">
      <path d="M 290.996553 512.64 
L 290.996553 69.12 
" clip-path="url(#p878d49d7a7)" style="fill: none; stroke: #cccccc; stroke-width: 0.8; stroke-linecap: round"/>
     </g>
     <g id="text_14">
      <!-- 1040 -->
      <g style="fill: #262626" transform="translate(284.795404 541.504521)rotate(-45)scale(0.088 -0.088)">
       <use xlink:href="#DejaVuSans-31"/>
       <use xlink:href="#DejaVuSans-30" x="63.623047"/>
       <use xlink:href="#DejaVuSans-34" x="127.246094"/>
       <use xlink:href="#DejaVuSans-30" x="190.869141"/>
      </g>
     </g>
    </g>
    <g id="xtick_15">
     <g id="line2d_15">
      <path d="M 308.02315 512.64 
L 308.02315 69.12 
" clip-path="url(#p878d49d7a7)" style="fill: none; stroke: #cccccc; stroke-width: 0.8; stroke-linecap: round"/>
     </g>
     <g id="text_15">
      <!-- 1120 -->
      <g style="fill: #262626" transform="translate(301.822 541.504521)rotate(-45)scale(0.088 -0.088)">
       <use xlink:href="#DejaVuSans-31"/>
       <use xlink:href="#DejaVuSans-31" x="63.623047"/>
       <use xlink:href="#DejaVuSans-32" x="127.246094"/>
       <use xlink:href="#DejaVuSans-30" x="190.869141"/>
      </g>
     </g>
    </g>
    <g id="xtick_16">
     <g id="line2d_16">
      <path d="M 325.049747 512.64 
L 325.049747 69.12 
" clip-path="url(#p878d49d7a7)" style="fill: none; stroke: #cccccc; stroke-width: 0.8; stroke-linecap: round"/>
     </g>
     <g id="text_16">
      <!-- 1200 -->
      <g style="fill: #262626" transform="translate(318.848597 541.504521)rotate(-45)scale(0.088 -0.088)">
       <use xlink:href="#DejaVuSans-31"/>
       <use xlink:href="#DejaVuSans-32" x="63.623047"/>
       <use xlink:href="#DejaVuSans-30" x="127.246094"/>
       <use xlink:href="#DejaVuSans-30" x="190.869141"/>
      </g>
     </g>
    </g>
    <g id="xtick_17">
     <g id="line2d_17">
      <path d="M 342.076343 512.64 
L 342.076343 69.12 
" clip-path="url(#p878d49d7a7)" style="fill: none; stroke: #cccccc; stroke-width: 0.8; stroke-linecap: round"/>
     </g>
     <g id="text_17">
      <!-- 1280 -->
      <g style="fill: #262626" transform="translate(335.875194 541.504521)rotate(-45)scale(0.088 -0.088)">
       <use xlink:href="#DejaVuSans-31"/>
       <use xlink:href="#DejaVuSans-32" x="63.623047"/>
       <use xlink:href="#DejaVuSans-38" x="127.246094"/>
       <use xlink:href="#DejaVuSans-30" x="190.869141"/>
      </g>
     </g>
    </g>
    <g id="xtick_18">
     <g id="line2d_18">
      <path d="M 359.10294 512.64 
L 359.10294 69.12 
" clip-path="url(#p878d49d7a7)" style="fill: none; stroke: #cccccc; stroke-width: 0.8; stroke-linecap: round"/>
     </g>
     <g id="text_18">
      <!-- 1360 -->
      <g style="fill: #262626" transform="translate(352.901791 541.504521)rotate(-45)scale(0.088 -0.088)">
       <use xlink:href="#DejaVuSans-31"/>
       <use xlink:href="#DejaVuSans-33" x="63.623047"/>
       <use xlink:href="#DejaVuSans-36" x="127.246094"/>
       <use xlink:href="#DejaVuSans-30" x="190.869141"/>
      </g>
     </g>
    </g>
    <g id="xtick_19">
     <g id="line2d_19">
      <path d="M 376.129537 512.64 
L 376.129537 69.12 
" clip-path="url(#p878d49d7a7)" style="fill: none; stroke: #cccccc; stroke-width: 0.8; stroke-linecap: round"/>
     </g>
     <g id="text_19">
      <!-- 1440 -->
      <g style="fill: #262626" transform="translate(369.928387 541.504521)rotate(-45)scale(0.088 -0.088)">
       <use xlink:href="#DejaVuSans-31"/>
       <use xlink:href="#DejaVuSans-34" x="63.623047"/>
       <use xlink:href="#DejaVuSans-34" x="127.246094"/>
       <use xlink:href="#DejaVuSans-30" x="190.869141"/>
      </g>
     </g>
    </g>
    <g id="text_20">
     <!-- Time (Minutes) -->
     <g style="fill: #262626" transform="translate(186.87375 554.093115)scale(0.096 -0.096)">
      <defs>
       <path id="DejaVuSans-54" d="M -19 4666 
L 3928 4666 
L 3928 4134 
L 2272 4134 
L 2272 0 
L 1638 0 
L 1638 4134 
L -19 4134 
L -19 4666 
z
" transform="scale(0.015625)"/>
       <path id="DejaVuSans-69" d="M 603 3500 
L 1178 3500 
L 1178 0 
L 603 0 
L 603 3500 
z
M 603 4863 
L 1178 4863 
L 1178 4134 
L 603 4134 
L 603 4863 
z
" transform="scale(0.015625)"/>
       <path id="DejaVuSans-6d" d="M 3328 2828 
Q 3544 3216 3844 3400 
Q 4144 3584 4550 3584 
Q 5097 3584 5394 3201 
Q 5691 2819 5691 2113 
L 5691 0 
L 5113 0 
L 5113 2094 
Q 5113 2597 4934 2840 
Q 4756 3084 4391 3084 
Q 3944 3084 3684 2787 
Q 3425 2491 3425 1978 
L 3425 0 
L 2847 0 
L 2847 2094 
Q 2847 2600 2669 2842 
Q 2491 3084 2119 3084 
Q 1678 3084 1418 2786 
Q 1159 2488 1159 1978 
L 1159 0 
L 581 0 
L 581 3500 
L 1159 3500 
L 1159 2956 
Q 1356 3278 1631 3431 
Q 1906 3584 2284 3584 
Q 2666 3584 2933 3390 
Q 3200 3197 3328 2828 
z
" transform="scale(0.015625)"/>
       <path id="DejaVuSans-65" d="M 3597 1894 
L 3597 1613 
L 953 1613 
Q 991 1019 1311 708 
Q 1631 397 2203 397 
Q 2534 397 2845 478 
Q 3156 559 3463 722 
L 3463 178 
Q 3153 47 2828 -22 
Q 2503 -91 2169 -91 
Q 1331 -91 842 396 
Q 353 884 353 1716 
Q 353 2575 817 3079 
Q 1281 3584 2069 3584 
Q 2775 3584 3186 3129 
Q 3597 2675 3597 1894 
z
M 3022 2063 
Q 3016 2534 2758 2815 
Q 2500 3097 2075 3097 
Q 1594 3097 1305 2825 
Q 1016 2553 972 2059 
L 3022 2063 
z
" transform="scale(0.015625)"/>
       <path id="DejaVuSans-20" transform="scale(0.015625)"/>
       <path id="DejaVuSans-28" d="M 1984 4856 
Q 1566 4138 1362 3434 
Q 1159 2731 1159 2009 
Q 1159 1288 1364 580 
Q 1569 -128 1984 -844 
L 1484 -844 
Q 1016 -109 783 600 
Q 550 1309 550 2009 
Q 550 2706 781 3412 
Q 1013 4119 1484 4856 
L 1984 4856 
z
" transform="scale(0.015625)"/>
       <path id="DejaVuSans-4d" d="M 628 4666 
L 1569 4666 
L 2759 1491 
L 3956 4666 
L 4897 4666 
L 4897 0 
L 4281 0 
L 4281 4097 
L 3078 897 
L 2444 897 
L 1241 4097 
L 1241 0 
L 628 0 
L 628 4666 
z
" transform="scale(0.015625)"/>
       <path id="DejaVuSans-6e" d="M 3513 2113 
L 3513 0 
L 2938 0 
L 2938 2094 
Q 2938 2591 2744 2837 
Q 2550 3084 2163 3084 
Q 1697 3084 1428 2787 
Q 1159 2491 1159 1978 
L 1159 0 
L 581 0 
L 581 3500 
L 1159 3500 
L 1159 2956 
Q 1366 3272 1645 3428 
Q 1925 3584 2291 3584 
Q 2894 3584 3203 3211 
Q 3513 2838 3513 2113 
z
" transform="scale(0.015625)"/>
       <path id="DejaVuSans-75" d="M 544 1381 
L 544 3500 
L 1119 3500 
L 1119 1403 
Q 1119 906 1312 657 
Q 1506 409 1894 409 
Q 2359 409 2629 706 
Q 2900 1003 2900 1516 
L 2900 3500 
L 3475 3500 
L 3475 0 
L 2900 0 
L 2900 538 
Q 2691 219 2414 64 
Q 2138 -91 1772 -91 
Q 1169 -91 856 284 
Q 544 659 544 1381 
z
M 1991 3584 
L 1991 3584 
z
" transform="scale(0.015625)"/>
       <path id="DejaVuSans-74" d="M 1172 4494 
L 1172 3500 
L 2356 3500 
L 2356 3053 
L 1172 3053 
L 1172 1153 
Q 1172 725 1289 603 
Q 1406 481 1766 481 
L 2356 481 
L 2356 0 
L 1766 0 
Q 1100 0 847 248 
Q 594 497 594 1153 
L 594 3053 
L 172 3053 
L 172 3500 
L 594 3500 
L 594 4494 
L 1172 4494 
z
" transform="scale(0.015625)"/>
       <path id="DejaVuSans-73" d="M 2834 3397 
L 2834 2853 
Q 2591 2978 2328 3040 
Q 2066 3103 1784 3103 
Q 1356 3103 1142 2972 
Q 928 2841 928 2578 
Q 928 2378 1081 2264 
Q 1234 2150 1697 2047 
L 1894 2003 
Q 2506 1872 2764 1633 
Q 3022 1394 3022 966 
Q 3022 478 2636 193 
Q 2250 -91 1575 -91 
Q 1294 -91 989 -36 
Q 684 19 347 128 
L 347 722 
Q 666 556 975 473 
Q 1284 391 1588 391 
Q 1994 391 2212 530 
Q 2431 669 2431 922 
Q 2431 1156 2273 1281 
Q 2116 1406 1581 1522 
L 1381 1569 
Q 847 1681 609 1914 
Q 372 2147 372 2553 
Q 372 3047 722 3315 
Q 1072 3584 1716 3584 
Q 2034 3584 2315 3537 
Q 2597 3491 2834 3397 
z
" transform="scale(0.015625)"/>
       <path id="DejaVuSans-29" d="M 513 4856 
L 1013 4856 
Q 1481 4119 1714 3412 
Q 1947 2706 1947 2009 
Q 1947 1309 1714 600 
Q 1481 -109 1013 -844 
L 513 -844 
Q 928 -128 1133 580 
Q 1338 1288 1338 2009 
Q 1338 2731 1133 3434 
Q 928 4138 513 4856 
z
" transform="scale(0.015625)"/>
      </defs>
      <use xlink:href="#DejaVuSans-54"/>
      <use xlink:href="#DejaVuSans-69" x="57.958984"/>
      <use xlink:href="#DejaVuSans-6d" x="85.742188"/>
      <use xlink:href="#DejaVuSans-65" x="183.154297"/>
      <use xlink:href="#DejaVuSans-20" x="244.677734"/>
      <use xlink:href="#DejaVuSans-28" x="276.464844"/>
      <use xlink:href="#DejaVuSans-4d" x="315.478516"/>
      <use xlink:href="#DejaVuSans-69" x="401.757812"/>
      <use xlink:href="#DejaVuSans-6e" x="429.541016"/>
      <use xlink:href="#DejaVuSans-75" x="492.919922"/>
      <use xlink:href="#DejaVuSans-74" x="556.298828"/>
      <use xlink:href="#DejaVuSans-65" x="595.507812"/>
      <use xlink:href="#DejaVuSans-73" x="657.03125"/>
      <use xlink:href="#DejaVuSans-29" x="709.130859"/>
     </g>
    </g>
   </g>
   <g id="matplotlib.axis_2">
    <g id="ytick_1">
     <g id="line2d_20">
      <path d="M 54.3375 492.48 
L 391.23 492.48 
" clip-path="url(#p878d49d7a7)" style="fill: none; stroke: #cccccc; stroke-width: 0.8; stroke-linecap: round"/>
     </g>
     <g id="text_21">
      <!-- 0 -->
      <g style="fill: #262626" transform="translate(40.4385 495.823313)scale(0.088 -0.088)">
       <use xlink:href="#DejaVuSans-30"/>
      </g>
     </g>
    </g>
    <g id="ytick_2">
     <g id="line2d_21">
      <path d="M 54.3375 475.77051 
L 391.23 475.77051 
" clip-path="url(#p878d49d7a7)" style="fill: none; stroke: #cccccc; stroke-width: 0.8; stroke-linecap: round"/>
     </g>
     <g id="text_22">
      <!-- 100 -->
      <g style="fill: #262626" transform="translate(29.2405 479.113822)scale(0.088 -0.088)">
       <use xlink:href="#DejaVuSans-31"/>
       <use xlink:href="#DejaVuSans-30" x="63.623047"/>
       <use xlink:href="#DejaVuSans-30" x="127.246094"/>
      </g>
     </g>
    </g>
    <g id="ytick_3">
     <g id="line2d_22">
      <path d="M 54.3375 459.061019 
L 391.23 459.061019 
" clip-path="url(#p878d49d7a7)" style="fill: none; stroke: #cccccc; stroke-width: 0.8; stroke-linecap: round"/>
     </g>
     <g id="text_23">
      <!-- 200 -->
      <g style="fill: #262626" transform="translate(29.2405 462.404332)scale(0.088 -0.088)">
       <use xlink:href="#DejaVuSans-32"/>
       <use xlink:href="#DejaVuSans-30" x="63.623047"/>
       <use xlink:href="#DejaVuSans-30" x="127.246094"/>
      </g>
     </g>
    </g>
    <g id="ytick_4">
     <g id="line2d_23">
      <path d="M 54.3375 442.351529 
L 391.23 442.351529 
" clip-path="url(#p878d49d7a7)" style="fill: none; stroke: #cccccc; stroke-width: 0.8; stroke-linecap: round"/>
     </g>
     <g id="text_24">
      <!-- 300 -->
      <g style="fill: #262626" transform="translate(29.2405 445.694842)scale(0.088 -0.088)">
       <use xlink:href="#DejaVuSans-33"/>
       <use xlink:href="#DejaVuSans-30" x="63.623047"/>
       <use xlink:href="#DejaVuSans-30" x="127.246094"/>
      </g>
     </g>
    </g>
    <g id="ytick_5">
     <g id="line2d_24">
      <path d="M 54.3375 425.642039 
L 391.23 425.642039 
" clip-path="url(#p878d49d7a7)" style="fill: none; stroke: #cccccc; stroke-width: 0.8; stroke-linecap: round"/>
     </g>
     <g id="text_25">
      <!-- 400 -->
      <g style="fill: #262626" transform="translate(29.2405 428.985351)scale(0.088 -0.088)">
       <use xlink:href="#DejaVuSans-34"/>
       <use xlink:href="#DejaVuSans-30" x="63.623047"/>
       <use xlink:href="#DejaVuSans-30" x="127.246094"/>
      </g>
     </g>
    </g>
    <g id="ytick_6">
     <g id="line2d_25">
      <path d="M 54.3375 408.932549 
L 391.23 408.932549 
" clip-path="url(#p878d49d7a7)" style="fill: none; stroke: #cccccc; stroke-width: 0.8; stroke-linecap: round"/>
     </g>
     <g id="text_26">
      <!-- 500 -->
      <g style="fill: #262626" transform="translate(29.2405 412.275861)scale(0.088 -0.088)">
       <use xlink:href="#DejaVuSans-35"/>
       <use xlink:href="#DejaVuSans-30" x="63.623047"/>
       <use xlink:href="#DejaVuSans-30" x="127.246094"/>
      </g>
     </g>
    </g>
    <g id="ytick_7">
     <g id="line2d_26">
      <path d="M 54.3375 392.223058 
L 391.23 392.223058 
" clip-path="url(#p878d49d7a7)" style="fill: none; stroke: #cccccc; stroke-width: 0.8; stroke-linecap: round"/>
     </g>
     <g id="text_27">
      <!-- 600 -->
      <g style="fill: #262626" transform="translate(29.2405 395.566371)scale(0.088 -0.088)">
       <use xlink:href="#DejaVuSans-36"/>
       <use xlink:href="#DejaVuSans-30" x="63.623047"/>
       <use xlink:href="#DejaVuSans-30" x="127.246094"/>
      </g>
     </g>
    </g>
    <g id="ytick_8">
     <g id="line2d_27">
      <path d="M 54.3375 375.513568 
L 391.23 375.513568 
" clip-path="url(#p878d49d7a7)" style="fill: none; stroke: #cccccc; stroke-width: 0.8; stroke-linecap: round"/>
     </g>
     <g id="text_28">
      <!-- 700 -->
      <g style="fill: #262626" transform="translate(29.2405 378.856881)scale(0.088 -0.088)">
       <use xlink:href="#DejaVuSans-37"/>
       <use xlink:href="#DejaVuSans-30" x="63.623047"/>
       <use xlink:href="#DejaVuSans-30" x="127.246094"/>
      </g>
     </g>
    </g>
    <g id="ytick_9">
     <g id="line2d_28">
      <path d="M 54.3375 358.804078 
L 391.23 358.804078 
" clip-path="url(#p878d49d7a7)" style="fill: none; stroke: #cccccc; stroke-width: 0.8; stroke-linecap: round"/>
     </g>
     <g id="text_29">
      <!-- 800 -->
      <g style="fill: #262626" transform="translate(29.2405 362.14739)scale(0.088 -0.088)">
       <use xlink:href="#DejaVuSans-38"/>
       <use xlink:href="#DejaVuSans-30" x="63.623047"/>
       <use xlink:href="#DejaVuSans-30" x="127.246094"/>
      </g>
     </g>
    </g>
    <g id="ytick_10">
     <g id="line2d_29">
      <path d="M 54.3375 342.094588 
L 391.23 342.094588 
" clip-path="url(#p878d49d7a7)" style="fill: none; stroke: #cccccc; stroke-width: 0.8; stroke-linecap: round"/>
     </g>
     <g id="text_30">
      <!-- 900 -->
      <g style="fill: #262626" transform="translate(29.2405 345.4379)scale(0.088 -0.088)">
       <use xlink:href="#DejaVuSans-39"/>
       <use xlink:href="#DejaVuSans-30" x="63.623047"/>
       <use xlink:href="#DejaVuSans-30" x="127.246094"/>
      </g>
     </g>
    </g>
    <g id="ytick_11">
     <g id="line2d_30">
      <path d="M 54.3375 325.385097 
L 391.23 325.385097 
" clip-path="url(#p878d49d7a7)" style="fill: none; stroke: #cccccc; stroke-width: 0.8; stroke-linecap: round"/>
     </g>
     <g id="text_31">
      <!-- 1000 -->
      <g style="fill: #262626" transform="translate(23.6415 328.72841)scale(0.088 -0.088)">
       <use xlink:href="#DejaVuSans-31"/>
       <use xlink:href="#DejaVuSans-30" x="63.623047"/>
       <use xlink:href="#DejaVuSans-30" x="127.246094"/>
       <use xlink:href="#DejaVuSans-30" x="190.869141"/>
      </g>
     </g>
    </g>
    <g id="ytick_12">
     <g id="line2d_31">
      <path d="M 54.3375 308.675607 
L 391.23 308.675607 
" clip-path="url(#p878d49d7a7)" style="fill: none; stroke: #cccccc; stroke-width: 0.8; stroke-linecap: round"/>
     </g>
     <g id="text_32">
      <!-- 1100 -->
      <g style="fill: #262626" transform="translate(23.6415 312.01892)scale(0.088 -0.088)">
       <use xlink:href="#DejaVuSans-31"/>
       <use xlink:href="#DejaVuSans-31" x="63.623047"/>
       <use xlink:href="#DejaVuSans-30" x="127.246094"/>
       <use xlink:href="#DejaVuSans-30" x="190.869141"/>
      </g>
     </g>
    </g>
    <g id="ytick_13">
     <g id="line2d_32">
      <path d="M 54.3375 291.966117 
L 391.23 291.966117 
" clip-path="url(#p878d49d7a7)" style="fill: none; stroke: #cccccc; stroke-width: 0.8; stroke-linecap: round"/>
     </g>
     <g id="text_33">
      <!-- 1200 -->
      <g style="fill: #262626" transform="translate(23.6415 295.309429)scale(0.088 -0.088)">
       <use xlink:href="#DejaVuSans-31"/>
       <use xlink:href="#DejaVuSans-32" x="63.623047"/>
       <use xlink:href="#DejaVuSans-30" x="127.246094"/>
       <use xlink:href="#DejaVuSans-30" x="190.869141"/>
      </g>
     </g>
    </g>
    <g id="ytick_14">
     <g id="line2d_33">
      <path d="M 54.3375 275.256627 
L 391.23 275.256627 
" clip-path="url(#p878d49d7a7)" style="fill: none; stroke: #cccccc; stroke-width: 0.8; stroke-linecap: round"/>
     </g>
     <g id="text_34">
      <!-- 1300 -->
      <g style="fill: #262626" transform="translate(23.6415 278.599939)scale(0.088 -0.088)">
       <use xlink:href="#DejaVuSans-31"/>
       <use xlink:href="#DejaVuSans-33" x="63.623047"/>
       <use xlink:href="#DejaVuSans-30" x="127.246094"/>
       <use xlink:href="#DejaVuSans-30" x="190.869141"/>
      </g>
     </g>
    </g>
    <g id="ytick_15">
     <g id="line2d_34">
      <path d="M 54.3375 258.547136 
L 391.23 258.547136 
" clip-path="url(#p878d49d7a7)" style="fill: none; stroke: #cccccc; stroke-width: 0.8; stroke-linecap: round"/>
     </g>
     <g id="text_35">
      <!-- 1400 -->
      <g style="fill: #262626" transform="translate(23.6415 261.890449)scale(0.088 -0.088)">
       <use xlink:href="#DejaVuSans-31"/>
       <use xlink:href="#DejaVuSans-34" x="63.623047"/>
       <use xlink:href="#DejaVuSans-30" x="127.246094"/>
       <use xlink:href="#DejaVuSans-30" x="190.869141"/>
      </g>
     </g>
    </g>
    <g id="ytick_16">
     <g id="line2d_35">
      <path d="M 54.3375 241.837646 
L 391.23 241.837646 
" clip-path="url(#p878d49d7a7)" style="fill: none; stroke: #cccccc; stroke-width: 0.8; stroke-linecap: round"/>
     </g>
     <g id="text_36">
      <!-- 1500 -->
      <g style="fill: #262626" transform="translate(23.6415 245.180959)scale(0.088 -0.088)">
       <use xlink:href="#DejaVuSans-31"/>
       <use xlink:href="#DejaVuSans-35" x="63.623047"/>
       <use xlink:href="#DejaVuSans-30" x="127.246094"/>
       <use xlink:href="#DejaVuSans-30" x="190.869141"/>
      </g>
     </g>
    </g>
    <g id="ytick_17">
     <g id="line2d_36">
      <path d="M 54.3375 225.128156 
L 391.23 225.128156 
" clip-path="url(#p878d49d7a7)" style="fill: none; stroke: #cccccc; stroke-width: 0.8; stroke-linecap: round"/>
     </g>
     <g id="text_37">
      <!-- 1600 -->
      <g style="fill: #262626" transform="translate(23.6415 228.471468)scale(0.088 -0.088)">
       <use xlink:href="#DejaVuSans-31"/>
       <use xlink:href="#DejaVuSans-36" x="63.623047"/>
       <use xlink:href="#DejaVuSans-30" x="127.246094"/>
       <use xlink:href="#DejaVuSans-30" x="190.869141"/>
      </g>
     </g>
    </g>
    <g id="ytick_18">
     <g id="line2d_37">
      <path d="M 54.3375 208.418666 
L 391.23 208.418666 
" clip-path="url(#p878d49d7a7)" style="fill: none; stroke: #cccccc; stroke-width: 0.8; stroke-linecap: round"/>
     </g>
     <g id="text_38">
      <!-- 1700 -->
      <g style="fill: #262626" transform="translate(23.6415 211.761978)scale(0.088 -0.088)">
       <use xlink:href="#DejaVuSans-31"/>
       <use xlink:href="#DejaVuSans-37" x="63.623047"/>
       <use xlink:href="#DejaVuSans-30" x="127.246094"/>
       <use xlink:href="#DejaVuSans-30" x="190.869141"/>
      </g>
     </g>
    </g>
    <g id="ytick_19">
     <g id="line2d_38">
      <path d="M 54.3375 191.709175 
L 391.23 191.709175 
" clip-path="url(#p878d49d7a7)" style="fill: none; stroke: #cccccc; stroke-width: 0.8; stroke-linecap: round"/>
     </g>
     <g id="text_39">
      <!-- 1800 -->
      <g style="fill: #262626" transform="translate(23.6415 195.052488)scale(0.088 -0.088)">
       <use xlink:href="#DejaVuSans-31"/>
       <use xlink:href="#DejaVuSans-38" x="63.623047"/>
       <use xlink:href="#DejaVuSans-30" x="127.246094"/>
       <use xlink:href="#DejaVuSans-30" x="190.869141"/>
      </g>
     </g>
    </g>
    <g id="ytick_20">
     <g id="line2d_39">
      <path d="M 54.3375 174.999685 
L 391.23 174.999685 
" clip-path="url(#p878d49d7a7)" style="fill: none; stroke: #cccccc; stroke-width: 0.8; stroke-linecap: round"/>
     </g>
     <g id="text_40">
      <!-- 1900 -->
      <g style="fill: #262626" transform="translate(23.6415 178.342998)scale(0.088 -0.088)">
       <use xlink:href="#DejaVuSans-31"/>
       <use xlink:href="#DejaVuSans-39" x="63.623047"/>
       <use xlink:href="#DejaVuSans-30" x="127.246094"/>
       <use xlink:href="#DejaVuSans-30" x="190.869141"/>
      </g>
     </g>
    </g>
    <g id="ytick_21">
     <g id="line2d_40">
      <path d="M 54.3375 158.290195 
L 391.23 158.290195 
" clip-path="url(#p878d49d7a7)" style="fill: none; stroke: #cccccc; stroke-width: 0.8; stroke-linecap: round"/>
     </g>
     <g id="text_41">
      <!-- 2000 -->
      <g style="fill: #262626" transform="translate(23.6415 161.633507)scale(0.088 -0.088)">
       <use xlink:href="#DejaVuSans-32"/>
       <use xlink:href="#DejaVuSans-30" x="63.623047"/>
       <use xlink:href="#DejaVuSans-30" x="127.246094"/>
       <use xlink:href="#DejaVuSans-30" x="190.869141"/>
      </g>
     </g>
    </g>
    <g id="ytick_22">
     <g id="line2d_41">
      <path d="M 54.3375 141.580705 
L 391.23 141.580705 
" clip-path="url(#p878d49d7a7)" style="fill: none; stroke: #cccccc; stroke-width: 0.8; stroke-linecap: round"/>
     </g>
     <g id="text_42">
      <!-- 2100 -->
      <g style="fill: #262626" transform="translate(23.6415 144.924017)scale(0.088 -0.088)">
       <use xlink:href="#DejaVuSans-32"/>
       <use xlink:href="#DejaVuSans-31" x="63.623047"/>
       <use xlink:href="#DejaVuSans-30" x="127.246094"/>
       <use xlink:href="#DejaVuSans-30" x="190.869141"/>
      </g>
     </g>
    </g>
    <g id="ytick_23">
     <g id="line2d_42">
      <path d="M 54.3375 124.871214 
L 391.23 124.871214 
" clip-path="url(#p878d49d7a7)" style="fill: none; stroke: #cccccc; stroke-width: 0.8; stroke-linecap: round"/>
     </g>
     <g id="text_43">
      <!-- 2200 -->
      <g style="fill: #262626" transform="translate(23.6415 128.214527)scale(0.088 -0.088)">
       <use xlink:href="#DejaVuSans-32"/>
       <use xlink:href="#DejaVuSans-32" x="63.623047"/>
       <use xlink:href="#DejaVuSans-30" x="127.246094"/>
       <use xlink:href="#DejaVuSans-30" x="190.869141"/>
      </g>
     </g>
    </g>
    <g id="ytick_24">
     <g id="line2d_43">
      <path d="M 54.3375 108.161724 
L 391.23 108.161724 
" clip-path="url(#p878d49d7a7)" style="fill: none; stroke: #cccccc; stroke-width: 0.8; stroke-linecap: round"/>
     </g>
     <g id="text_44">
      <!-- 2300 -->
      <g style="fill: #262626" transform="translate(23.6415 111.505036)scale(0.088 -0.088)">
       <use xlink:href="#DejaVuSans-32"/>
       <use xlink:href="#DejaVuSans-33" x="63.623047"/>
       <use xlink:href="#DejaVuSans-30" x="127.246094"/>
       <use xlink:href="#DejaVuSans-30" x="190.869141"/>
      </g>
     </g>
    </g>
    <g id="ytick_25">
     <g id="line2d_44">
      <path d="M 54.3375 91.452234 
L 391.23 91.452234 
" clip-path="url(#p878d49d7a7)" style="fill: none; stroke: #cccccc; stroke-width: 0.8; stroke-linecap: round"/>
     </g>
     <g id="text_45">
      <!-- 2400 -->
      <g style="fill: #262626" transform="translate(23.6415 94.795546)scale(0.088 -0.088)">
       <use xlink:href="#DejaVuSans-32"/>
       <use xlink:href="#DejaVuSans-34" x="63.623047"/>
       <use xlink:href="#DejaVuSans-30" x="127.246094"/>
       <use xlink:href="#DejaVuSans-30" x="190.869141"/>
      </g>
     </g>
    </g>
    <g id="text_46">
     <!-- Edge Coverages -->
     <g style="fill: #262626" transform="translate(17.645 329.98575)rotate(-90)scale(0.096 -0.096)">
      <defs>
       <path id="DejaVuSans-45" d="M 628 4666 
L 3578 4666 
L 3578 4134 
L 1259 4134 
L 1259 2753 
L 3481 2753 
L 3481 2222 
L 1259 2222 
L 1259 531 
L 3634 531 
L 3634 0 
L 628 0 
L 628 4666 
z
" transform="scale(0.015625)"/>
       <path id="DejaVuSans-64" d="M 2906 2969 
L 2906 4863 
L 3481 4863 
L 3481 0 
L 2906 0 
L 2906 525 
Q 2725 213 2448 61 
Q 2172 -91 1784 -91 
Q 1150 -91 751 415 
Q 353 922 353 1747 
Q 353 2572 751 3078 
Q 1150 3584 1784 3584 
Q 2172 3584 2448 3432 
Q 2725 3281 2906 2969 
z
M 947 1747 
Q 947 1113 1208 752 
Q 1469 391 1925 391 
Q 2381 391 2643 752 
Q 2906 1113 2906 1747 
Q 2906 2381 2643 2742 
Q 2381 3103 1925 3103 
Q 1469 3103 1208 2742 
Q 947 2381 947 1747 
z
" transform="scale(0.015625)"/>
       <path id="DejaVuSans-67" d="M 2906 1791 
Q 2906 2416 2648 2759 
Q 2391 3103 1925 3103 
Q 1463 3103 1205 2759 
Q 947 2416 947 1791 
Q 947 1169 1205 825 
Q 1463 481 1925 481 
Q 2391 481 2648 825 
Q 2906 1169 2906 1791 
z
M 3481 434 
Q 3481 -459 3084 -895 
Q 2688 -1331 1869 -1331 
Q 1566 -1331 1297 -1286 
Q 1028 -1241 775 -1147 
L 775 -588 
Q 1028 -725 1275 -790 
Q 1522 -856 1778 -856 
Q 2344 -856 2625 -561 
Q 2906 -266 2906 331 
L 2906 616 
Q 2728 306 2450 153 
Q 2172 0 1784 0 
Q 1141 0 747 490 
Q 353 981 353 1791 
Q 353 2603 747 3093 
Q 1141 3584 1784 3584 
Q 2172 3584 2450 3431 
Q 2728 3278 2906 2969 
L 2906 3500 
L 3481 3500 
L 3481 434 
z
" transform="scale(0.015625)"/>
       <path id="DejaVuSans-43" d="M 4122 4306 
L 4122 3641 
Q 3803 3938 3442 4084 
Q 3081 4231 2675 4231 
Q 1875 4231 1450 3742 
Q 1025 3253 1025 2328 
Q 1025 1406 1450 917 
Q 1875 428 2675 428 
Q 3081 428 3442 575 
Q 3803 722 4122 1019 
L 4122 359 
Q 3791 134 3420 21 
Q 3050 -91 2638 -91 
Q 1578 -91 968 557 
Q 359 1206 359 2328 
Q 359 3453 968 4101 
Q 1578 4750 2638 4750 
Q 3056 4750 3426 4639 
Q 3797 4528 4122 4306 
z
" transform="scale(0.015625)"/>
       <path id="DejaVuSans-6f" d="M 1959 3097 
Q 1497 3097 1228 2736 
Q 959 2375 959 1747 
Q 959 1119 1226 758 
Q 1494 397 1959 397 
Q 2419 397 2687 759 
Q 2956 1122 2956 1747 
Q 2956 2369 2687 2733 
Q 2419 3097 1959 3097 
z
M 1959 3584 
Q 2709 3584 3137 3096 
Q 3566 2609 3566 1747 
Q 3566 888 3137 398 
Q 2709 -91 1959 -91 
Q 1206 -91 779 398 
Q 353 888 353 1747 
Q 353 2609 779 3096 
Q 1206 3584 1959 3584 
z
" transform="scale(0.015625)"/>
       <path id="DejaVuSans-76" d="M 191 3500 
L 800 3500 
L 1894 563 
L 2988 3500 
L 3597 3500 
L 2284 0 
L 1503 0 
L 191 3500 
z
" transform="scale(0.015625)"/>
       <path id="DejaVuSans-72" d="M 2631 2963 
Q 2534 3019 2420 3045 
Q 2306 3072 2169 3072 
Q 1681 3072 1420 2755 
Q 1159 2438 1159 1844 
L 1159 0 
L 581 0 
L 581 3500 
L 1159 3500 
L 1159 2956 
Q 1341 3275 1631 3429 
Q 1922 3584 2338 3584 
Q 2397 3584 2469 3576 
Q 2541 3569 2628 3553 
L 2631 2963 
z
" transform="scale(0.015625)"/>
       <path id="DejaVuSans-61" d="M 2194 1759 
Q 1497 1759 1228 1600 
Q 959 1441 959 1056 
Q 959 750 1161 570 
Q 1363 391 1709 391 
Q 2188 391 2477 730 
Q 2766 1069 2766 1631 
L 2766 1759 
L 2194 1759 
z
M 3341 1997 
L 3341 0 
L 2766 0 
L 2766 531 
Q 2569 213 2275 61 
Q 1981 -91 1556 -91 
Q 1019 -91 701 211 
Q 384 513 384 1019 
Q 384 1609 779 1909 
Q 1175 2209 1959 2209 
L 2766 2209 
L 2766 2266 
Q 2766 2663 2505 2880 
Q 2244 3097 1772 3097 
Q 1472 3097 1187 3025 
Q 903 2953 641 2809 
L 641 3341 
Q 956 3463 1253 3523 
Q 1550 3584 1831 3584 
Q 2591 3584 2966 3190 
Q 3341 2797 3341 1997 
z
" transform="scale(0.015625)"/>
      </defs>
      <use xlink:href="#DejaVuSans-45"/>
      <use xlink:href="#DejaVuSans-64" x="63.183594"/>
      <use xlink:href="#DejaVuSans-67" x="126.660156"/>
      <use xlink:href="#DejaVuSans-65" x="190.136719"/>
      <use xlink:href="#DejaVuSans-20" x="251.660156"/>
      <use xlink:href="#DejaVuSans-43" x="283.447266"/>
      <use xlink:href="#DejaVuSans-6f" x="353.271484"/>
      <use xlink:href="#DejaVuSans-76" x="414.453125"/>
      <use xlink:href="#DejaVuSans-65" x="473.632812"/>
      <use xlink:href="#DejaVuSans-72" x="535.15625"/>
      <use xlink:href="#DejaVuSans-61" x="576.269531"/>
      <use xlink:href="#DejaVuSans-67" x="637.548828"/>
      <use xlink:href="#DejaVuSans-65" x="701.025391"/>
      <use xlink:href="#DejaVuSans-73" x="762.548828"/>
     </g>
    </g>
   </g>
   <g id="PolyCollection_1">
    <defs>
     <path id="m9994199b8d" d="M 69.650795 -86.694803 
L 69.650795 -83.52 
L 69.650795 -86.694803 
L 69.650795 -86.694803 
z
" style="stroke: #db5f57; stroke-opacity: 0.2; stroke-width: 0.8"/>
    </defs>
    <g clip-path="url(#p878d49d7a7)">
     <use xlink:href="#m9994199b8d" x="0" y="576" style="fill: #db5f57; fill-opacity: 0.2; stroke: #db5f57; stroke-opacity: 0.2; stroke-width: 0.8"/>
    </g>
   </g>
   <g id="PolyCollection_2">
    <defs>
     <path id="mc4bc45af2c" d="M 69.650795 -86.694803 
L 69.650795 -83.52 
L 69.650795 -86.694803 
L 69.650795 -86.694803 
z
" style="stroke: #b9db57; stroke-opacity: 0.2; stroke-width: 0.8"/>
    </defs>
    <g clip-path="url(#p878d49d7a7)">
     <use xlink:href="#mc4bc45af2c" x="0" y="576" style="fill: #b9db57; fill-opacity: 0.2; stroke: #b9db57; stroke-opacity: 0.2; stroke-width: 0.8"/>
    </g>
   </g>
   <g id="PolyCollection_3">
    <defs>
     <path id="m845c11761e" d="M 69.650795 -85.692234 
L 69.650795 -83.52 
L 69.650795 -85.692234 
L 69.650795 -85.692234 
z
" style="stroke: #57db94; stroke-opacity: 0.2; stroke-width: 0.8"/>
    </defs>
    <g clip-path="url(#p878d49d7a7)">
     <use xlink:href="#m845c11761e" x="0" y="576" style="fill: #57db94; fill-opacity: 0.2; stroke: #57db94; stroke-opacity: 0.2; stroke-width: 0.8"/>
    </g>
   </g>
   <g id="PolyCollection_4">
    <defs>
     <path id="m67451a719f" d="M 69.650795 -85.023854 
L 69.650795 -83.52 
L 69.650795 -85.023854 
L 69.650795 -85.023854 
z
" style="stroke: #5784db; stroke-opacity: 0.2; stroke-width: 0.8"/>
    </defs>
    <g clip-path="url(#p878d49d7a7)">
     <use xlink:href="#m67451a719f" x="0" y="576" style="fill: #5784db; fill-opacity: 0.2; stroke: #5784db; stroke-opacity: 0.2; stroke-width: 0.8"/>
    </g>
   </g>
   <g id="PolyCollection_5">
    <defs>
     <path id="m2c1d1b1b92" d="M 69.650795 -86.694803 
L 69.650795 -83.52 
L 69.650795 -86.694803 
L 69.650795 -86.694803 
z
" style="stroke: #c957db; stroke-opacity: 0.2; stroke-width: 0.8"/>
    </defs>
    <g clip-path="url(#p878d49d7a7)">
     <use xlink:href="#m2c1d1b1b92" x="0" y="576" style="fill: #c957db; fill-opacity: 0.2; stroke: #c957db; stroke-opacity: 0.2; stroke-width: 0.8"/>
    </g>
   </g>
   <g id="line2d_45">
    <path d="M 69.650795 490.892598 
L 69.863628 489.305197 
L 71.140623 489.305197 
L 71.353455 487.467153 
L 72.204785 484.29235 
L 72.417617 483.95816 
L 72.63045 483.95816 
L 73.056115 466.58029 
L 73.268947 450.706274 
L 73.48178 448.032756 
L 73.694612 441.34896 
L 73.907445 439.510916 
L 74.120277 433.328404 
L 74.33311 431.82455 
L 74.545942 431.82455 
L 74.758774 425.307849 
L 74.971607 423.135615 
L 75.397272 416.11763 
L 75.822937 412.608637 
L 76.035769 412.441542 
L 76.461434 412.441542 
L 76.674267 412.107352 
L 77.099932 412.107352 
L 77.312764 408.264169 
L 77.738429 408.264169 
L 78.164094 407.595789 
L 78.589759 407.595789 
L 78.802591 406.59322 
L 79.015424 406.59322 
L 79.228256 402.750037 
L 79.441089 401.413278 
L 79.653921 401.413278 
L 80.718083 393.894007 
L 80.930916 393.392723 
L 81.356581 390.050825 
L 81.569413 386.708927 
L 81.782246 379.690941 
L 81.995078 379.189656 
L 82.207911 372.84005 
L 82.420743 372.84005 
L 82.633575 371.83748 
L 82.846408 352.287377 
L 83.05924 345.603581 
L 83.272073 345.436486 
L 83.484905 343.932632 
L 83.697738 335.744981 
L 84.336235 323.714148 
L 84.549068 294.639635 
L 84.7619 292.300307 
L 84.974733 291.297737 
L 85.187565 291.297737 
L 85.400397 291.130642 
L 85.61323 289.793883 
L 85.826062 276.426291 
L 86.038895 276.426291 
L 86.251727 276.259196 
L 86.46456 275.590816 
L 86.677392 275.590816 
L 86.890225 275.256627 
L 87.31589 275.256627 
L 87.528722 274.755342 
L 87.741555 270.912159 
L 89.018549 270.912159 
L 89.231382 270.577969 
L 89.444214 266.734787 
L 89.657047 266.734787 
L 90.082712 266.400597 
L 90.295544 266.066407 
L 90.508376 262.390319 
L 90.721209 262.390319 
L 90.934041 260.886465 
L 91.146874 260.886465 
L 91.359706 255.038143 
L 91.572539 252.86591 
L 91.785371 251.86334 
L 91.998204 241.336361 
L 93.488031 241.336361 
L 93.700863 241.169266 
L 93.913696 241.169266 
L 94.126528 240.835077 
L 94.339361 238.829938 
L 94.552193 238.829938 
L 94.765026 238.495748 
L 96.89335 238.495748 
L 97.106183 238.328653 
L 97.319015 229.305528 
L 97.531848 229.138433 
L 97.74468 228.637149 
L 97.957513 221.786258 
L 98.170345 221.786258 
L 98.383177 221.619163 
L 98.808842 221.619163 
L 99.234507 220.115309 
L 99.660172 219.781119 
L 100.085837 219.279834 
L 100.29867 215.436651 
L 100.511502 215.269557 
L 100.724335 214.266987 
L 100.937167 208.418666 
L 101.149999 208.251571 
L 101.575664 208.251571 
L 101.788497 208.084476 
L 102.001329 207.583191 
L 102.426994 207.583191 
L 102.639827 199.395541 
L 102.852659 196.387833 
L 103.065492 195.218168 
L 104.129654 195.218168 
L 104.555319 192.377555 
L 104.768151 192.043365 
L 104.980984 192.043365 
L 105.193816 191.709175 
L 105.832314 189.202752 
L 106.470811 172.827451 
L 106.683643 172.827451 
L 106.896476 172.493262 
L 107.109308 165.809465 
L 107.322141 165.141086 
L 107.747806 158.791479 
L 107.960638 156.452151 
L 108.173471 156.285056 
L 108.386303 154.279917 
L 109.450465 154.279917 
L 109.87613 153.945727 
L 110.72746 153.945727 
L 110.940293 153.778632 
L 112.43012 153.778632 
L 113.068617 153.277348 
L 113.28145 152.776063 
L 113.494282 152.776063 
L 113.707115 152.608968 
L 114.984109 152.608968 
L 115.196942 152.441873 
L 116.686769 152.441873 
L 116.899601 151.940588 
L 117.963764 151.940588 
L 118.176596 151.439304 
L 120.730586 151.439304 
L 120.943418 151.272209 
L 121.369083 150.436734 
L 121.581916 150.269639 
L 121.794748 149.60126 
L 122.00758 149.60126 
L 122.646078 149.099975 
L 122.85891 149.099975 
L 123.071743 148.765785 
L 123.284575 146.593552 
L 123.497408 146.593552 
L 123.71024 146.426457 
L 125.4129 146.426457 
L 125.625732 146.259362 
L 126.051397 146.259362 
L 126.477062 145.590982 
L 126.689895 145.590982 
L 126.902727 145.256792 
L 127.115559 145.256792 
L 127.328392 143.585843 
L 127.966889 142.416179 
L 128.179722 141.747799 
L 128.392554 140.243945 
L 130.520879 140.243945 
L 130.733711 139.575566 
L 131.159376 137.570427 
L 132.223539 136.066573 
L 132.436371 135.899478 
L 135.416025 135.899478 
L 135.84169 135.565288 
L 136.054523 135.565288 
L 136.267355 135.398193 
L 140.736837 135.398193 
L 140.949669 135.231098 
L 141.162502 135.231098 
L 141.588167 134.729814 
L 141.800999 134.729814 
L 142.013832 134.562719 
L 142.865161 134.562719 
L 143.077994 133.560149 
L 143.503659 132.89177 
L 144.354989 132.89177 
L 144.780654 132.390485 
L 144.993486 132.390485 
L 145.419151 131.8892 
L 145.631983 130.552441 
L 146.057648 129.716966 
L 146.270481 129.549872 
L 146.483313 129.048587 
L 146.696146 128.046017 
L 146.908978 127.711828 
L 147.121811 127.043448 
L 147.547476 126.709258 
L 147.760308 126.375068 
L 148.185973 126.375068 
L 148.398805 126.207973 
L 150.101465 126.207973 
L 150.314298 126.040879 
L 152.442622 126.040879 
L 152.868287 125.706689 
L 159.040428 125.706689 
L 159.253261 125.539594 
L 159.466093 125.539594 
L 159.678926 125.372499 
L 159.891758 125.372499 
L 160.317423 125.038309 
L 171.384711 125.038309 
L 171.597544 124.871214 
L 173.513036 124.871214 
L 173.725868 124.704119 
L 174.577198 124.704119 
L 174.79003 124.537024 
L 179.685177 124.537024 
L 179.898009 124.36993 
L 180.110842 124.36993 
L 180.536507 124.03574 
L 180.749339 124.03574 
L 180.962172 123.868645 
L 181.600669 122.866075 
L 181.813502 122.866075 
L 182.026334 122.364791 
L 182.239166 122.197696 
L 182.451999 121.696411 
L 182.664831 121.696411 
L 182.877664 121.529316 
L 183.090496 120.860937 
L 183.303329 120.860937 
L 183.516161 120.693842 
L 184.154659 120.693842 
L 184.367491 120.359652 
L 186.070151 120.359652 
L 186.282983 120.192557 
L 187.559978 120.192557 
L 187.77281 120.025462 
L 188.198475 120.025462 
L 188.411308 119.858367 
L 188.62414 119.858367 
L 188.836973 119.691272 
L 190.113967 119.691272 
L 190.3268 119.189988 
L 190.539632 118.020323 
L 190.965297 117.519039 
L 196.498941 117.519039 
L 196.711774 117.184849 
L 200.329926 117.184849 
L 200.542758 116.683564 
L 201.394088 116.683564 
L 201.60692 116.516469 
L 201.819753 116.516469 
L 202.032585 116.349374 
L 209.481721 116.349374 
L 209.694554 116.182279 
L 209.907386 115.680995 
L 220.123344 115.680995 
L 220.336177 115.5139 
L 224.167161 115.5139 
L 224.592826 115.012615 
L 228.42381 115.012615 
L 228.636643 114.678425 
L 229.913637 114.678425 
L 230.339302 114.344235 
L 230.9778 114.344235 
L 231.190632 114.17714 
L 232.680459 114.17714 
L 232.893292 114.010046 
L 233.106124 114.010046 
L 233.318957 113.842951 
L 244.386245 113.842951 
L 245.024742 112.840381 
L 245.450407 112.840381 
L 245.663239 112.673286 
L 252.686711 112.673286 
L 252.899543 112.506191 
L 268.861977 112.506191 
L 269.07481 112.004907 
L 269.287642 112.004907 
L 269.713307 111.670717 
L 272.054464 111.670717 
L 272.267297 111.503622 
L 277.162443 111.503622 
L 277.375276 111.336527 
L 283.547417 111.336527 
L 283.76025 111.169432 
L 332.28605 111.169432 
L 332.498883 111.002337 
L 338.883857 111.002337 
L 339.309522 110.668148 
L 356.761783 110.668148 
L 356.974616 110.501053 
L 358.25161 110.501053 
L 358.464443 110.333958 
L 359.10294 105.822395 
L 359.528605 105.321111 
L 359.741438 105.321111 
L 360.379935 104.819826 
L 369.957396 104.819826 
L 370.170228 104.652731 
L 375.916705 104.652731 
L 375.916705 104.652731 
" clip-path="url(#p878d49d7a7)" style="fill: none; stroke: #db5f57; stroke-width: 1.2; stroke-linecap: round"/>
   </g>
   <g id="line2d_46">
    <path d="M 69.650795 490.892598 
L 69.863628 489.305197 
L 71.140623 489.305197 
L 71.77912 486.130394 
L 71.991953 485.963299 
L 72.417617 485.294919 
L 72.63045 485.294919 
L 72.843282 477.107269 
L 73.268947 457.055881 
L 73.48178 448.534041 
L 73.694612 445.192143 
L 73.907445 439.510916 
L 74.120277 437.839967 
L 74.33311 434.665164 
L 74.758774 432.82712 
L 75.397272 420.796287 
L 76.035769 417.120199 
L 76.461434 416.284724 
L 76.674267 414.44668 
L 76.887099 414.279586 
L 77.099932 413.611206 
L 77.312764 413.444111 
L 77.738429 413.444111 
L 78.164094 412.274447 
L 78.376926 412.274447 
L 78.589759 412.107352 
L 78.802591 411.773162 
L 79.015424 411.773162 
L 79.228256 408.097074 
L 79.653921 405.423556 
L 79.866754 404.755176 
L 80.079586 401.747468 
L 80.292418 400.577804 
L 80.505251 400.076519 
L 80.718083 399.241044 
L 80.930916 399.073949 
L 81.356581 396.567526 
L 81.569413 393.726913 
L 81.995078 380.025131 
L 82.207911 374.510999 
L 83.272073 333.071463 
L 83.484905 330.23085 
L 83.91057 313.855549 
L 84.123403 313.354264 
L 84.336235 298.148628 
L 84.549068 291.464832 
L 84.7619 290.629358 
L 85.187565 277.094671 
L 85.400397 276.092101 
L 85.61323 273.752772 
L 85.826062 272.917298 
L 86.038895 271.413444 
L 86.251727 271.246349 
L 86.46456 270.577969 
L 86.677392 269.408305 
L 86.890225 268.90702 
L 87.103057 268.90702 
L 87.31589 268.739925 
L 87.741555 267.904451 
L 87.954387 267.068976 
L 88.592884 266.233502 
L 88.805717 266.066407 
L 89.018549 263.727078 
L 89.444214 262.223224 
L 89.657047 262.223224 
L 90.082712 260.71937 
L 90.295544 260.71937 
L 90.508376 260.38518 
L 90.721209 257.043282 
L 91.146874 257.043282 
L 91.359706 256.709092 
L 91.572539 249.022727 
L 91.785371 248.020157 
L 91.998204 247.853063 
L 92.211036 238.829938 
L 92.636701 238.829938 
L 92.849534 238.662843 
L 93.062366 238.662843 
L 93.700863 238.161558 
L 93.913696 238.161558 
L 94.126528 237.994463 
L 94.339361 237.994463 
L 94.765026 237.493179 
L 94.977858 237.326084 
L 95.190691 236.991894 
L 95.403523 236.323514 
L 95.616356 236.156419 
L 95.829188 234.986755 
L 96.254853 229.472623 
L 96.467685 226.9662 
L 96.680518 226.464915 
L 96.89335 226.29782 
L 97.319015 225.796535 
L 97.531848 225.629441 
L 97.74468 225.295251 
L 97.957513 218.945644 
L 98.383177 218.945644 
L 98.59601 218.77855 
L 98.808842 218.77855 
L 99.021675 218.44436 
L 99.234507 217.274695 
L 99.660172 216.773411 
L 99.873005 215.269557 
L 100.085837 214.935367 
L 100.511502 214.935367 
L 100.724335 212.930228 
L 100.937167 212.930228 
L 101.149999 207.249001 
L 101.362832 207.249001 
L 101.788497 206.914811 
L 102.214162 206.914811 
L 102.426994 206.413527 
L 102.639827 206.413527 
L 102.852659 196.722022 
L 103.065492 196.554927 
L 103.278324 196.554927 
L 103.491157 195.552358 
L 103.703989 195.552358 
L 103.916821 195.385263 
L 104.768151 195.385263 
L 104.980984 192.54465 
L 105.193816 192.54465 
L 105.406649 192.377555 
L 105.832314 192.377555 
L 106.045146 187.364708 
L 106.257978 186.027949 
L 106.470811 186.027949 
L 106.683643 176.503539 
L 107.322141 176.503539 
L 107.534973 168.315889 
L 107.747806 168.315889 
L 107.960638 162.634662 
L 108.386303 162.634662 
L 108.599136 159.794049 
L 109.663298 159.794049 
L 109.87613 159.626954 
L 110.301795 159.626954 
L 110.514628 159.459859 
L 111.153125 159.459859 
L 111.365957 159.292764 
L 112.43012 159.292764 
L 112.642952 159.125669 
L 112.855785 159.125669 
L 113.068617 158.791479 
L 113.707115 158.791479 
L 113.919947 158.1231 
L 114.132779 158.1231 
L 114.345612 157.956005 
L 115.196942 157.956005 
L 115.409774 157.78891 
L 116.686769 157.78891 
L 116.899601 157.621815 
L 118.176596 157.621815 
L 118.389429 157.12053 
L 120.730586 157.12053 
L 120.943418 156.953436 
L 121.156251 156.953436 
L 121.369083 156.117961 
L 121.794748 156.117961 
L 122.00758 155.449581 
L 122.220413 155.449581 
L 122.433245 155.115392 
L 122.646078 155.115392 
L 122.85891 154.948297 
L 123.071743 154.948297 
L 123.284575 153.110253 
L 123.497408 153.110253 
L 123.923073 152.608968 
L 125.200067 152.608968 
L 125.4129 152.441873 
L 126.26423 152.441873 
L 126.689895 151.773494 
L 126.902727 151.773494 
L 127.115559 151.439304 
L 127.328392 151.439304 
L 127.541224 151.272209 
L 127.754057 149.26707 
L 127.966889 149.26707 
L 128.179722 148.431596 
L 128.392554 148.431596 
L 128.605387 146.760646 
L 130.733711 146.760646 
L 130.946544 145.758077 
L 131.159376 145.758077 
L 131.585041 143.752938 
L 131.797874 143.585843 
L 132.010706 143.251654 
L 132.436371 143.251654 
L 132.649203 142.750369 
L 133.287701 142.750369 
L 133.500533 142.583274 
L 135.416025 142.583274 
L 135.628858 142.416179 
L 135.84169 142.416179 
L 136.054523 142.249084 
L 140.949669 142.249084 
L 141.162502 142.081989 
L 141.375334 141.747799 
L 141.588167 141.747799 
L 141.800999 141.580705 
L 142.226664 140.41104 
L 143.077994 140.41104 
L 143.290826 140.243945 
L 143.503659 140.243945 
L 143.716491 139.909755 
L 144.567821 139.909755 
L 144.780654 139.408471 
L 144.993486 139.408471 
L 145.206319 139.074281 
L 145.419151 139.074281 
L 145.631983 138.907186 
L 146.057648 138.907186 
L 146.270481 136.734952 
L 146.483313 136.734952 
L 146.908978 135.398193 
L 147.121811 135.231098 
L 147.334643 134.395624 
L 147.547476 134.228529 
L 147.760308 134.228529 
L 147.973141 133.727244 
L 148.398805 133.727244 
L 148.611638 133.560149 
L 149.6758 133.560149 
L 149.888633 133.393054 
L 151.591292 133.393054 
L 151.804125 133.225959 
L 152.655455 133.225959 
L 152.868287 133.058864 
L 153.932449 133.058864 
L 154.145282 132.89177 
L 154.783779 132.89177 
L 154.996612 132.724675 
L 158.614763 132.724675 
L 158.827596 132.55758 
L 159.891758 132.55758 
L 160.317423 132.056295 
L 160.743088 132.056295 
L 160.955921 131.8892 
L 172.874538 131.8892 
L 173.087371 131.722105 
L 173.725868 131.722105 
L 173.938701 131.55501 
L 179.898009 131.55501 
L 180.110842 131.387915 
L 180.323674 131.387915 
L 180.536507 131.053726 
L 180.749339 131.053726 
L 180.962172 130.886631 
L 181.175004 130.886631 
L 181.600669 129.884061 
L 182.026334 129.884061 
L 182.451999 128.714397 
L 182.664831 128.714397 
L 182.877664 128.547302 
L 183.090496 128.046017 
L 183.303329 127.878923 
L 183.516161 127.878923 
L 183.728994 127.711828 
L 184.367491 127.711828 
L 184.580324 127.377638 
L 187.347146 127.377638 
L 187.559978 127.043448 
L 187.77281 127.043448 
L 187.985643 126.876353 
L 188.62414 126.876353 
L 188.836973 126.709258 
L 189.262638 126.709258 
L 189.47547 126.542163 
L 189.901135 126.542163 
L 190.3268 126.207973 
L 190.539632 126.207973 
L 190.752465 125.038309 
L 190.965297 124.871214 
L 195.647611 124.871214 
L 195.860444 124.704119 
L 196.711774 124.704119 
L 196.924606 124.537024 
L 200.542758 124.537024 
L 200.75559 124.202835 
L 202.032585 124.202835 
L 202.245418 124.03574 
L 208.843224 124.03574 
L 209.056056 123.868645 
L 209.694554 123.868645 
L 209.907386 123.36736 
L 219.272014 123.36736 
L 219.484847 123.03317 
L 223.954329 123.03317 
L 224.167161 122.866075 
L 224.379993 122.866075 
L 224.592826 122.698981 
L 228.210978 122.698981 
L 228.42381 122.364791 
L 230.12647 122.364791 
L 230.339302 122.197696 
L 230.552135 122.197696 
L 230.9778 121.863506 
L 232.467627 121.863506 
L 232.680459 121.696411 
L 233.318957 121.696411 
L 233.531789 121.529316 
L 244.386245 121.529316 
L 244.599077 121.195126 
L 244.81191 121.195126 
L 245.237574 120.526747 
L 245.450407 120.526747 
L 245.663239 120.359652 
L 252.686711 120.359652 
L 252.899543 120.192557 
L 268.861977 120.192557 
L 269.07481 119.691272 
L 269.713307 119.691272 
L 269.92614 119.524177 
L 272.267297 119.524177 
L 272.480129 119.357082 
L 276.949611 119.357082 
L 277.162443 119.189988 
L 283.973082 119.189988 
L 284.185915 119.022893 
L 331.860385 119.022893 
L 332.073218 118.855798 
L 338.032527 118.855798 
L 338.245359 118.688703 
L 339.096689 118.688703 
L 339.309522 118.521608 
L 356.974616 118.521608 
L 357.187448 118.354513 
L 358.464443 118.354513 
L 359.10294 113.675856 
L 359.315773 113.675856 
L 359.528605 113.174571 
L 359.95427 113.174571 
L 360.379935 112.673286 
L 370.170228 112.673286 
L 370.383061 112.506191 
L 375.916705 112.506191 
L 375.916705 112.506191 
" clip-path="url(#p878d49d7a7)" style="fill: none; stroke: #b9db57; stroke-width: 1.2; stroke-linecap: round"/>
   </g>
   <g id="line2d_47">
    <path d="M 69.650795 491.393883 
L 69.863628 490.307766 
L 70.289293 490.307766 
L 70.502125 489.305197 
L 71.140623 489.305197 
L 71.353455 488.636817 
L 71.566288 486.965868 
L 71.991953 485.963299 
L 72.204785 485.796204 
L 72.417617 485.294919 
L 72.63045 485.127824 
L 72.843282 480.114977 
L 97.957513 480.114977 
L 98.170345 448.366946 
L 98.808842 211.927659 
L 99.021675 211.927659 
L 99.234507 210.925089 
L 99.44734 210.925089 
L 99.873005 208.418666 
L 100.085837 208.084476 
L 100.511502 205.912242 
L 100.724335 205.745147 
L 100.937167 199.228446 
L 101.149999 199.061351 
L 102.639827 199.061351 
L 102.852659 187.197613 
L 103.703989 187.197613 
L 103.916821 185.860854 
L 104.129654 185.860854 
L 104.342486 185.526664 
L 104.555319 183.02024 
L 104.768151 182.518956 
L 105.406649 182.518956 
L 105.832314 180.012532 
L 106.045146 177.004824 
L 106.257978 177.004824 
L 106.470811 164.305611 
L 106.896476 164.305611 
L 107.109308 158.290195 
L 107.322141 156.452151 
L 107.960638 156.452151 
L 108.173471 156.117961 
L 108.386303 147.261931 
L 109.0248 147.261931 
L 109.237633 145.256792 
L 109.450465 145.256792 
L 109.663298 145.089697 
L 109.87613 145.089697 
L 110.088963 144.922603 
L 112.642952 144.922603 
L 113.068617 144.421318 
L 113.494282 144.421318 
L 113.707115 143.752938 
L 113.919947 143.585843 
L 114.345612 143.585843 
L 114.558444 143.418748 
L 115.622607 143.418748 
L 115.835439 143.251654 
L 116.686769 143.251654 
L 116.899601 143.084559 
L 119.453591 143.084559 
L 119.666423 142.583274 
L 120.730586 142.583274 
L 120.943418 142.416179 
L 121.581916 141.580705 
L 121.794748 141.580705 
L 122.00758 140.74523 
L 138.608512 140.74523 
L 138.821345 126.709258 
L 144.993486 126.709258 
L 145.206319 123.868645 
L 145.419151 123.36736 
L 145.631983 122.197696 
L 146.057648 122.197696 
L 146.270481 121.028031 
L 146.483313 120.526747 
L 146.696146 119.524177 
L 146.908978 119.189988 
L 147.121811 118.521608 
L 147.334643 118.521608 
L 147.547476 118.354513 
L 147.760308 118.020323 
L 148.398805 118.020323 
L 148.611638 117.686133 
L 149.888633 117.686133 
L 150.101465 117.519039 
L 151.591292 117.519039 
L 151.804125 117.351944 
L 153.08112 117.351944 
L 153.293952 117.184849 
L 155.847942 117.184849 
L 156.060774 117.017754 
L 159.466093 117.017754 
L 159.891758 116.516469 
L 160.104591 116.516469 
L 160.317423 116.349374 
L 173.087371 116.349374 
L 173.300203 116.182279 
L 175.854193 116.182279 
L 176.067025 116.015184 
L 180.536507 116.015184 
L 180.749339 115.5139 
L 184.154659 115.5139 
L 184.367491 111.837812 
L 187.347146 111.837812 
L 187.559978 111.503622 
L 187.77281 111.503622 
L 187.985643 111.336527 
L 191.816627 111.336527 
L 192.02946 108.997199 
L 196.498941 108.997199 
L 196.711774 108.830104 
L 197.775936 108.830104 
L 197.988768 108.663009 
L 232.041962 108.663009 
L 232.254794 105.822395 
L 232.893292 105.822395 
L 233.106124 105.6553 
L 234.170287 105.6553 
L 234.383119 105.488206 
L 244.81191 105.488206 
L 245.024742 104.485636 
L 246.940234 104.485636 
L 247.153067 104.318541 
L 253.112375 104.318541 
L 253.325208 104.151446 
L 268.649145 104.151446 
L 269.07481 103.650162 
L 269.92614 103.650162 
L 270.138972 103.315972 
L 272.267297 103.315972 
L 272.480129 103.148877 
L 277.588108 103.148877 
L 277.800941 102.981782 
L 283.76025 102.981782 
L 283.973082 102.814687 
L 341.437846 102.814687 
L 341.650679 102.313402 
L 358.25161 102.313402 
L 358.464443 101.310833 
L 358.677275 101.310833 
L 358.890108 100.475358 
L 359.741438 98.971504 
L 359.95427 98.47022 
L 360.167103 98.303125 
L 360.379935 97.80184 
L 360.592767 97.634745 
L 360.8056 96.799271 
L 361.869762 96.799271 
L 362.082595 96.465081 
L 369.957396 96.465081 
L 370.170228 96.297986 
L 375.916705 96.297986 
L 375.916705 96.297986 
" clip-path="url(#p878d49d7a7)" style="fill: none; stroke: #57db94; stroke-width: 1.2; stroke-linecap: round"/>
   </g>
   <g id="line2d_48">
    <path d="M 69.650795 491.728073 
L 69.863628 490.809051 
L 70.289293 490.809051 
L 70.502125 490.307766 
L 70.714958 489.305197 
L 71.353455 489.305197 
L 71.566288 486.965868 
L 71.77912 486.631678 
L 72.204785 485.462014 
L 72.417617 485.294919 
L 72.63045 484.62654 
L 72.843282 478.778218 
L 73.268947 475.43632 
L 73.48178 474.099561 
L 73.694612 445.693427 
L 73.907445 445.693427 
L 74.33311 444.857953 
L 74.545942 444.523763 
L 74.971607 443.019909 
L 75.184439 423.803995 
L 75.610104 417.788579 
L 76.035769 415.78344 
L 76.248602 415.616345 
L 76.887099 412.608637 
L 77.099932 412.274447 
L 77.312764 412.274447 
L 77.525596 411.606067 
L 103.916821 411.606067 
L 104.129654 400.577804 
L 104.555319 222.120448 
L 104.768151 187.197613 
L 104.980984 187.197613 
L 105.193816 187.030518 
L 105.406649 183.187335 
L 106.257978 183.187335 
L 106.470811 183.02024 
L 107.109308 183.02024 
L 107.322141 182.853145 
L 120.304921 182.853145 
L 120.517753 143.920033 
L 122.220413 143.920033 
L 122.433245 143.752938 
L 131.372209 143.752938 
L 131.585041 129.549872 
L 132.010706 129.549872 
L 132.223539 129.382777 
L 148.611638 129.382777 
L 148.82447 126.375068 
L 149.037303 118.855798 
L 149.888633 118.855798 
L 150.314298 118.521608 
L 151.37846 118.521608 
L 151.591292 118.354513 
L 154.996612 118.354513 
L 155.209444 118.187418 
L 183.303329 118.187418 
L 183.516161 113.174571 
L 199.052931 113.174571 
L 199.265763 109.498483 
L 212.887041 109.498483 
L 213.099873 108.161724 
L 213.951203 108.161724 
L 214.164035 107.994629 
L 226.295486 107.994629 
L 226.508318 107.326249 
L 227.785313 107.326249 
L 228.210978 106.99206 
L 248.004396 106.99206 
L 248.217229 104.986921 
L 260.348679 104.986921 
L 260.561512 104.819826 
L 273.757124 104.819826 
L 273.969956 103.817257 
L 286.314239 103.817257 
L 286.527072 103.483067 
L 313.982459 103.483067 
L 314.195291 103.148877 
L 346.545825 103.148877 
L 346.758658 102.647592 
L 360.8056 102.647592 
L 361.018432 96.799271 
L 375.916705 96.799271 
L 375.916705 96.799271 
" clip-path="url(#p878d49d7a7)" style="fill: none; stroke: #5784db; stroke-width: 1.2; stroke-linecap: round"/>
   </g>
   <g id="line2d_49">
    <path d="M 69.650795 490.892598 
L 69.863628 489.305197 
L 71.140623 489.305197 
L 71.353455 486.965868 
L 71.566288 486.297489 
L 71.77912 484.793634 
L 72.417617 483.791065 
L 72.63045 483.122685 
L 73.268947 449.703705 
L 73.907445 435.166448 
L 74.33311 429.986506 
L 74.545942 428.983937 
L 74.971607 421.130477 
L 75.397272 414.279586 
L 75.822937 411.271877 
L 76.461434 409.935118 
L 76.674267 408.097074 
L 76.887099 407.929979 
L 77.099932 407.2616 
L 77.312764 407.094505 
L 77.738429 407.094505 
L 78.164094 405.92484 
L 78.376926 405.92484 
L 78.589759 405.757746 
L 78.802591 405.256461 
L 79.015424 405.256461 
L 79.228256 401.246183 
L 79.653921 398.906855 
L 79.866754 398.238475 
L 80.079586 395.063672 
L 80.505251 392.724343 
L 80.930916 391.721774 
L 81.356581 388.045686 
L 81.995078 372.17167 
L 82.633575 349.279668 
L 83.272073 325.050908 
L 83.484905 321.207725 
L 83.91057 305.667899 
L 84.123403 303.829855 
L 84.336235 287.28746 
L 85.187565 268.405736 
L 85.400397 267.570261 
L 85.61323 265.063838 
L 85.826062 264.228363 
L 86.038895 262.724509 
L 86.251727 262.557414 
L 86.677392 260.552275 
L 86.890225 260.05099 
L 87.103057 260.05099 
L 87.31589 259.883896 
L 87.954387 258.212947 
L 88.592884 257.377472 
L 88.805717 257.210377 
L 89.018549 254.871048 
L 89.444214 253.367194 
L 89.657047 253.367194 
L 90.082712 251.86334 
L 90.295544 251.52915 
L 90.508376 248.020157 
L 91.146874 248.020157 
L 91.359706 241.837646 
L 91.572539 238.997033 
L 91.785371 237.994463 
L 91.998204 227.30039 
L 92.211036 227.133295 
L 92.636701 227.133295 
L 92.849534 226.9662 
L 93.062366 226.9662 
L 93.488031 226.63201 
L 93.700863 226.29782 
L 93.913696 226.29782 
L 94.126528 225.96363 
L 94.552193 225.96363 
L 94.765026 225.462346 
L 94.977858 225.295251 
L 95.190691 225.295251 
L 95.403523 224.626871 
L 95.616356 224.459776 
L 95.829188 223.290112 
L 96.254853 217.77598 
L 96.467685 215.269557 
L 96.680518 214.768272 
L 96.89335 214.601177 
L 97.106183 214.099892 
L 97.319015 214.099892 
L 97.531848 213.765702 
L 97.74468 213.097323 
L 97.957513 206.246432 
L 98.170345 206.246432 
L 98.383177 206.079337 
L 98.808842 206.079337 
L 99.234507 204.575483 
L 99.660172 203.740008 
L 99.873005 202.570344 
L 100.085837 202.236154 
L 100.29867 200.231015 
L 100.511502 200.06392 
L 100.724335 199.061351 
L 100.937167 193.213029 
L 101.149999 193.045935 
L 101.575664 193.045935 
L 101.788497 192.87884 
L 102.001329 192.377555 
L 102.426994 192.377555 
L 102.639827 184.189905 
L 102.852659 181.182196 
L 103.065492 180.012532 
L 103.703989 180.012532 
L 103.916821 179.845437 
L 104.129654 179.845437 
L 104.555319 177.004824 
L 104.768151 176.503539 
L 105.193816 176.503539 
L 105.832314 173.997116 
L 106.470811 157.621815 
L 106.683643 157.621815 
L 106.896476 157.287625 
L 107.109308 150.603829 
L 107.322141 149.93545 
L 107.747806 143.585843 
L 107.960638 141.246515 
L 108.173471 141.07942 
L 108.386303 139.074281 
L 109.450465 139.074281 
L 109.87613 138.740091 
L 110.72746 138.740091 
L 110.940293 138.572996 
L 112.43012 138.572996 
L 113.068617 138.071712 
L 113.28145 137.570427 
L 113.494282 137.570427 
L 113.707115 137.403332 
L 114.132779 137.403332 
L 114.345612 137.236237 
L 114.984109 137.236237 
L 115.196942 137.069142 
L 116.686769 137.069142 
L 116.899601 136.902047 
L 117.963764 136.902047 
L 118.176596 136.400763 
L 120.730586 136.400763 
L 122.00758 134.562719 
L 122.220413 134.395624 
L 122.646078 133.894339 
L 122.85891 133.894339 
L 123.071743 133.727244 
L 123.284575 131.55501 
L 123.497408 131.55501 
L 123.71024 131.387915 
L 125.200067 131.387915 
L 125.4129 131.220821 
L 126.051397 131.220821 
L 126.477062 130.552441 
L 126.689895 130.552441 
L 126.902727 130.218251 
L 127.115559 130.218251 
L 127.328392 128.547302 
L 128.179722 126.709258 
L 128.392554 125.205404 
L 130.520879 125.205404 
L 130.733711 124.537024 
L 131.159376 122.531886 
L 132.223539 121.028031 
L 132.436371 120.860937 
L 135.416025 120.860937 
L 135.84169 120.526747 
L 136.054523 120.526747 
L 136.267355 120.359652 
L 140.736837 120.359652 
L 140.949669 120.192557 
L 141.162502 120.192557 
L 141.588167 119.691272 
L 141.800999 119.691272 
L 142.226664 118.354513 
L 143.077994 118.354513 
L 143.503659 117.686133 
L 144.354989 117.686133 
L 144.780654 117.184849 
L 144.993486 117.184849 
L 145.419151 116.683564 
L 145.631983 115.346805 
L 146.057648 114.51133 
L 146.270481 114.344235 
L 146.483313 113.842951 
L 146.696146 112.840381 
L 146.908978 112.506191 
L 147.121811 111.837812 
L 147.547476 111.503622 
L 147.760308 111.169432 
L 148.185973 111.169432 
L 148.398805 111.002337 
L 149.6758 111.002337 
L 149.888633 110.835242 
L 151.37846 110.835242 
L 151.591292 110.668148 
L 152.655455 110.668148 
L 152.868287 110.501053 
L 154.783779 110.501053 
L 154.996612 110.333958 
L 158.614763 110.333958 
L 158.827596 110.166863 
L 159.466093 110.166863 
L 159.891758 109.832673 
L 160.104591 109.832673 
L 160.317423 109.665578 
L 172.874538 109.665578 
L 173.087371 109.498483 
L 173.725868 109.498483 
L 173.938701 109.331388 
L 179.685177 109.331388 
L 179.898009 109.164293 
L 180.110842 109.164293 
L 180.536507 108.830104 
L 180.749339 108.830104 
L 180.962172 108.663009 
L 181.600669 107.660439 
L 181.813502 107.660439 
L 182.026334 107.159155 
L 182.239166 106.99206 
L 182.451999 106.490775 
L 182.664831 106.490775 
L 182.877664 106.32368 
L 183.090496 105.6553 
L 183.303329 105.6553 
L 183.516161 105.488206 
L 184.154659 105.488206 
L 184.367491 105.154016 
L 186.070151 105.154016 
L 186.282983 104.986921 
L 187.347146 104.986921 
L 187.77281 104.485636 
L 188.62414 104.485636 
L 188.836973 104.318541 
L 189.262638 104.318541 
L 189.47547 104.151446 
L 189.901135 104.151446 
L 190.3268 103.817257 
L 190.539632 102.647592 
L 190.965297 102.146308 
L 195.647611 102.146308 
L 195.860444 101.979213 
L 196.498941 101.979213 
L 196.711774 101.812118 
L 200.329926 101.812118 
L 200.542758 101.310833 
L 201.394088 101.310833 
L 201.60692 101.143738 
L 201.819753 101.143738 
L 202.032585 100.976643 
L 208.843224 100.976643 
L 209.056056 100.809548 
L 209.694554 100.809548 
L 209.907386 100.308264 
L 219.272014 100.308264 
L 219.484847 100.141169 
L 223.954329 100.141169 
L 224.592826 99.639884 
L 227.785313 99.639884 
L 228.210978 99.305694 
L 229.913637 99.305694 
L 230.339302 98.971504 
L 230.764967 98.971504 
L 230.9778 98.804409 
L 232.467627 98.804409 
L 232.680459 98.637315 
L 233.106124 98.637315 
L 233.318957 98.47022 
L 244.386245 98.47022 
L 245.024742 97.46765 
L 245.450407 97.46765 
L 245.663239 97.300555 
L 252.686711 97.300555 
L 252.899543 97.13346 
L 268.649145 97.13346 
L 269.07481 96.632176 
L 269.287642 96.632176 
L 269.713307 96.297986 
L 272.054464 96.297986 
L 272.267297 96.130891 
L 276.949611 96.130891 
L 277.162443 95.963796 
L 283.547417 95.963796 
L 283.76025 95.796701 
L 331.860385 95.796701 
L 332.073218 95.629606 
L 338.032527 95.629606 
L 338.245359 95.462511 
L 339.096689 95.462511 
L 339.309522 95.295416 
L 356.761783 95.295416 
L 356.974616 95.128322 
L 358.25161 95.128322 
L 358.464443 94.292847 
L 358.890108 91.285139 
L 359.315773 89.94838 
L 359.741438 89.94838 
L 360.379935 89.447095 
L 369.957396 89.447095 
L 370.170228 89.28 
L 375.916705 89.28 
L 375.916705 89.28 
" clip-path="url(#p878d49d7a7)" style="fill: none; stroke: #c957db; stroke-width: 1.2; stroke-linecap: round"/>
   </g>
   <g id="line2d_50"/>
   <g id="line2d_51"/>
   <g id="line2d_52"/>
   <g id="line2d_53"/>
   <g id="line2d_54"/>
   <g id="patch_3">
    <path d="M 54.3375 512.64 
L 54.3375 69.12 
" style="fill: none; stroke: #cccccc; stroke-linejoin: miter; stroke-linecap: square"/>
   </g>
   <g id="patch_4">
    <path d="M 54.3375 512.64 
L 391.23 512.64 
" style="fill: none; stroke: #cccccc; stroke-linejoin: miter; stroke-linecap: square"/>
   </g>
   <g id="text_47">
    <!-- Edge Coverage History -->
    <g style="fill: #262626" transform="translate(115.892262 63.12)scale(0.165888 -0.165888)">
     <defs>
      <path id="DejaVuSans-Bold-45" d="M 588 4666 
L 3834 4666 
L 3834 3756 
L 1791 3756 
L 1791 2888 
L 3713 2888 
L 3713 1978 
L 1791 1978 
L 1791 909 
L 3903 909 
L 3903 0 
L 588 0 
L 588 4666 
z
" transform="scale(0.015625)"/>
      <path id="DejaVuSans-Bold-64" d="M 2919 2988 
L 2919 4863 
L 4044 4863 
L 4044 0 
L 2919 0 
L 2919 506 
Q 2688 197 2409 53 
Q 2131 -91 1766 -91 
Q 1119 -91 703 423 
Q 288 938 288 1747 
Q 288 2556 703 3070 
Q 1119 3584 1766 3584 
Q 2128 3584 2408 3439 
Q 2688 3294 2919 2988 
z
M 2181 722 
Q 2541 722 2730 984 
Q 2919 1247 2919 1747 
Q 2919 2247 2730 2509 
Q 2541 2772 2181 2772 
Q 1825 2772 1636 2509 
Q 1447 2247 1447 1747 
Q 1447 1247 1636 984 
Q 1825 722 2181 722 
z
" transform="scale(0.015625)"/>
      <path id="DejaVuSans-Bold-67" d="M 2919 594 
Q 2688 288 2409 144 
Q 2131 0 1766 0 
Q 1125 0 706 504 
Q 288 1009 288 1791 
Q 288 2575 706 3076 
Q 1125 3578 1766 3578 
Q 2131 3578 2409 3434 
Q 2688 3291 2919 2981 
L 2919 3500 
L 4044 3500 
L 4044 353 
Q 4044 -491 3511 -936 
Q 2978 -1381 1966 -1381 
Q 1638 -1381 1331 -1331 
Q 1025 -1281 716 -1178 
L 716 -306 
Q 1009 -475 1290 -558 
Q 1572 -641 1856 -641 
Q 2406 -641 2662 -400 
Q 2919 -159 2919 353 
L 2919 594 
z
M 2181 2772 
Q 1834 2772 1640 2515 
Q 1447 2259 1447 1791 
Q 1447 1309 1634 1061 
Q 1822 813 2181 813 
Q 2531 813 2725 1069 
Q 2919 1325 2919 1791 
Q 2919 2259 2725 2515 
Q 2531 2772 2181 2772 
z
" transform="scale(0.015625)"/>
      <path id="DejaVuSans-Bold-65" d="M 4031 1759 
L 4031 1441 
L 1416 1441 
Q 1456 1047 1700 850 
Q 1944 653 2381 653 
Q 2734 653 3104 758 
Q 3475 863 3866 1075 
L 3866 213 
Q 3469 63 3072 -14 
Q 2675 -91 2278 -91 
Q 1328 -91 801 392 
Q 275 875 275 1747 
Q 275 2603 792 3093 
Q 1309 3584 2216 3584 
Q 3041 3584 3536 3087 
Q 4031 2591 4031 1759 
z
M 2881 2131 
Q 2881 2450 2695 2645 
Q 2509 2841 2209 2841 
Q 1884 2841 1681 2658 
Q 1478 2475 1428 2131 
L 2881 2131 
z
" transform="scale(0.015625)"/>
      <path id="DejaVuSans-Bold-20" transform="scale(0.015625)"/>
      <path id="DejaVuSans-Bold-43" d="M 4288 256 
Q 3956 84 3597 -3 
Q 3238 -91 2847 -91 
Q 1681 -91 1000 561 
Q 319 1213 319 2328 
Q 319 3447 1000 4098 
Q 1681 4750 2847 4750 
Q 3238 4750 3597 4662 
Q 3956 4575 4288 4403 
L 4288 3438 
Q 3953 3666 3628 3772 
Q 3303 3878 2944 3878 
Q 2300 3878 1931 3465 
Q 1563 3053 1563 2328 
Q 1563 1606 1931 1193 
Q 2300 781 2944 781 
Q 3303 781 3628 887 
Q 3953 994 4288 1222 
L 4288 256 
z
" transform="scale(0.015625)"/>
      <path id="DejaVuSans-Bold-6f" d="M 2203 2784 
Q 1831 2784 1636 2517 
Q 1441 2250 1441 1747 
Q 1441 1244 1636 976 
Q 1831 709 2203 709 
Q 2569 709 2762 976 
Q 2956 1244 2956 1747 
Q 2956 2250 2762 2517 
Q 2569 2784 2203 2784 
z
M 2203 3584 
Q 3106 3584 3614 3096 
Q 4122 2609 4122 1747 
Q 4122 884 3614 396 
Q 3106 -91 2203 -91 
Q 1297 -91 786 396 
Q 275 884 275 1747 
Q 275 2609 786 3096 
Q 1297 3584 2203 3584 
z
" transform="scale(0.015625)"/>
      <path id="DejaVuSans-Bold-76" d="M 97 3500 
L 1216 3500 
L 2088 1081 
L 2956 3500 
L 4078 3500 
L 2700 0 
L 1472 0 
L 97 3500 
z
" transform="scale(0.015625)"/>
      <path id="DejaVuSans-Bold-72" d="M 3138 2547 
Q 2991 2616 2845 2648 
Q 2700 2681 2553 2681 
Q 2122 2681 1889 2404 
Q 1656 2128 1656 1613 
L 1656 0 
L 538 0 
L 538 3500 
L 1656 3500 
L 1656 2925 
Q 1872 3269 2151 3426 
Q 2431 3584 2822 3584 
Q 2878 3584 2943 3579 
Q 3009 3575 3134 3559 
L 3138 2547 
z
" transform="scale(0.015625)"/>
      <path id="DejaVuSans-Bold-61" d="M 2106 1575 
Q 1756 1575 1579 1456 
Q 1403 1338 1403 1106 
Q 1403 894 1545 773 
Q 1688 653 1941 653 
Q 2256 653 2472 879 
Q 2688 1106 2688 1447 
L 2688 1575 
L 2106 1575 
z
M 3816 1997 
L 3816 0 
L 2688 0 
L 2688 519 
Q 2463 200 2181 54 
Q 1900 -91 1497 -91 
Q 953 -91 614 226 
Q 275 544 275 1050 
Q 275 1666 698 1953 
Q 1122 2241 2028 2241 
L 2688 2241 
L 2688 2328 
Q 2688 2594 2478 2717 
Q 2269 2841 1825 2841 
Q 1466 2841 1156 2769 
Q 847 2697 581 2553 
L 581 3406 
Q 941 3494 1303 3539 
Q 1666 3584 2028 3584 
Q 2975 3584 3395 3211 
Q 3816 2838 3816 1997 
z
" transform="scale(0.015625)"/>
      <path id="DejaVuSans-Bold-48" d="M 588 4666 
L 1791 4666 
L 1791 2888 
L 3566 2888 
L 3566 4666 
L 4769 4666 
L 4769 0 
L 3566 0 
L 3566 1978 
L 1791 1978 
L 1791 0 
L 588 0 
L 588 4666 
z
" transform="scale(0.015625)"/>
      <path id="DejaVuSans-Bold-69" d="M 538 3500 
L 1656 3500 
L 1656 0 
L 538 0 
L 538 3500 
z
M 538 4863 
L 1656 4863 
L 1656 3950 
L 538 3950 
L 538 4863 
z
" transform="scale(0.015625)"/>
      <path id="DejaVuSans-Bold-73" d="M 3272 3391 
L 3272 2541 
Q 2913 2691 2578 2766 
Q 2244 2841 1947 2841 
Q 1628 2841 1473 2761 
Q 1319 2681 1319 2516 
Q 1319 2381 1436 2309 
Q 1553 2238 1856 2203 
L 2053 2175 
Q 2913 2066 3209 1816 
Q 3506 1566 3506 1031 
Q 3506 472 3093 190 
Q 2681 -91 1863 -91 
Q 1516 -91 1145 -36 
Q 775 19 384 128 
L 384 978 
Q 719 816 1070 734 
Q 1422 653 1784 653 
Q 2113 653 2278 743 
Q 2444 834 2444 1013 
Q 2444 1163 2330 1236 
Q 2216 1309 1875 1350 
L 1678 1375 
Q 931 1469 631 1722 
Q 331 1975 331 2491 
Q 331 3047 712 3315 
Q 1094 3584 1881 3584 
Q 2191 3584 2531 3537 
Q 2872 3491 3272 3391 
z
" transform="scale(0.015625)"/>
      <path id="DejaVuSans-Bold-74" d="M 1759 4494 
L 1759 3500 
L 2913 3500 
L 2913 2700 
L 1759 2700 
L 1759 1216 
Q 1759 972 1856 886 
Q 1953 800 2241 800 
L 2816 800 
L 2816 0 
L 1856 0 
Q 1194 0 917 276 
Q 641 553 641 1216 
L 641 2700 
L 84 2700 
L 84 3500 
L 641 3500 
L 641 4494 
L 1759 4494 
z
" transform="scale(0.015625)"/>
      <path id="DejaVuSans-Bold-79" d="M 78 3500 
L 1197 3500 
L 2138 1125 
L 2938 3500 
L 4056 3500 
L 2584 -331 
Q 2363 -916 2067 -1148 
Q 1772 -1381 1288 -1381 
L 641 -1381 
L 641 -647 
L 991 -647 
Q 1275 -647 1404 -556 
Q 1534 -466 1606 -231 
L 1638 -134 
L 78 3500 
z
" transform="scale(0.015625)"/>
     </defs>
     <use xlink:href="#DejaVuSans-Bold-45"/>
     <use xlink:href="#DejaVuSans-Bold-64" x="68.310547"/>
     <use xlink:href="#DejaVuSans-Bold-67" x="139.892578"/>
     <use xlink:href="#DejaVuSans-Bold-65" x="211.474609"/>
     <use xlink:href="#DejaVuSans-Bold-20" x="279.296875"/>
     <use xlink:href="#DejaVuSans-Bold-43" x="314.111328"/>
     <use xlink:href="#DejaVuSans-Bold-6f" x="387.5"/>
     <use xlink:href="#DejaVuSans-Bold-76" x="456.201172"/>
     <use xlink:href="#DejaVuSans-Bold-65" x="521.386719"/>
     <use xlink:href="#DejaVuSans-Bold-72" x="589.208984"/>
     <use xlink:href="#DejaVuSans-Bold-61" x="638.525391"/>
     <use xlink:href="#DejaVuSans-Bold-67" x="706.005859"/>
     <use xlink:href="#DejaVuSans-Bold-65" x="777.587891"/>
     <use xlink:href="#DejaVuSans-Bold-20" x="845.410156"/>
     <use xlink:href="#DejaVuSans-Bold-48" x="880.224609"/>
     <use xlink:href="#DejaVuSans-Bold-69" x="963.916016"/>
     <use xlink:href="#DejaVuSans-Bold-73" x="998.193359"/>
     <use xlink:href="#DejaVuSans-Bold-74" x="1057.714844"/>
     <use xlink:href="#DejaVuSans-Bold-6f" x="1105.517578"/>
     <use xlink:href="#DejaVuSans-Bold-72" x="1174.21875"/>
     <use xlink:href="#DejaVuSans-Bold-79" x="1223.535156"/>
    </g>
   </g>
   <g id="legend_1">
    <g id="patch_5">
     <path d="M 267.942 508.24 
L 385.07 508.24 
Q 386.83 508.24 386.83 506.48 
L 386.83 428.8405 
Q 386.83 427.0805 385.07 427.0805 
L 267.942 427.0805 
Q 266.182 427.0805 266.182 428.8405 
L 266.182 506.48 
Q 266.182 508.24 267.942 508.24 
z
" style="fill: #ffffff; opacity: 0.8; stroke: #cccccc; stroke-width: 0.8; stroke-linejoin: miter"/>
    </g>
    <g id="text_48">
     <!-- fuzzer -->
     <g style="fill: #262626" transform="translate(311.809 437.895)scale(0.096 -0.096)">
      <defs>
       <path id="DejaVuSans-66" d="M 2375 4863 
L 2375 4384 
L 1825 4384 
Q 1516 4384 1395 4259 
Q 1275 4134 1275 3809 
L 1275 3500 
L 2222 3500 
L 2222 3053 
L 1275 3053 
L 1275 0 
L 697 0 
L 697 3053 
L 147 3053 
L 147 3500 
L 697 3500 
L 697 3744 
Q 697 4328 969 4595 
Q 1241 4863 1831 4863 
L 2375 4863 
z
" transform="scale(0.015625)"/>
       <path id="DejaVuSans-7a" d="M 353 3500 
L 3084 3500 
L 3084 2975 
L 922 459 
L 3084 459 
L 3084 0 
L 275 0 
L 275 525 
L 2438 3041 
L 353 3041 
L 353 3500 
z
" transform="scale(0.015625)"/>
      </defs>
      <use xlink:href="#DejaVuSans-66"/>
      <use xlink:href="#DejaVuSans-75" x="35.205078"/>
      <use xlink:href="#DejaVuSans-7a" x="98.583984"/>
      <use xlink:href="#DejaVuSans-7a" x="151.074219"/>
      <use xlink:href="#DejaVuSans-65" x="203.564453"/>
      <use xlink:href="#DejaVuSans-72" x="265.087891"/>
     </g>
    </g>
    <g id="line2d_55">
     <path d="M 269.702 447.898125 
L 278.502 447.898125 
L 287.302 447.898125 
" style="fill: none; stroke: #db5f57; stroke-width: 1.2; stroke-linecap: round"/>
    </g>
    <g id="text_49">
     <!-- fairfuzz-0-exid22 -->
     <g style="fill: #262626" transform="translate(294.342 450.978125)scale(0.088 -0.088)">
      <defs>
       <path id="DejaVuSans-2d" d="M 313 2009 
L 1997 2009 
L 1997 1497 
L 313 1497 
L 313 2009 
z
" transform="scale(0.015625)"/>
       <path id="DejaVuSans-78" d="M 3513 3500 
L 2247 1797 
L 3578 0 
L 2900 0 
L 1881 1375 
L 863 0 
L 184 0 
L 1544 1831 
L 300 3500 
L 978 3500 
L 1906 2253 
L 2834 3500 
L 3513 3500 
z
" transform="scale(0.015625)"/>
      </defs>
      <use xlink:href="#DejaVuSans-66"/>
      <use xlink:href="#DejaVuSans-61" x="35.205078"/>
      <use xlink:href="#DejaVuSans-69" x="96.484375"/>
      <use xlink:href="#DejaVuSans-72" x="124.267578"/>
      <use xlink:href="#DejaVuSans-66" x="165.380859"/>
      <use xlink:href="#DejaVuSans-75" x="200.585938"/>
      <use xlink:href="#DejaVuSans-7a" x="263.964844"/>
      <use xlink:href="#DejaVuSans-7a" x="316.455078"/>
      <use xlink:href="#DejaVuSans-2d" x="368.945312"/>
      <use xlink:href="#DejaVuSans-30" x="405.029297"/>
      <use xlink:href="#DejaVuSans-2d" x="468.652344"/>
      <use xlink:href="#DejaVuSans-65" x="504.736328"/>
      <use xlink:href="#DejaVuSans-78" x="564.509766"/>
      <use xlink:href="#DejaVuSans-69" x="623.689453"/>
      <use xlink:href="#DejaVuSans-64" x="651.472656"/>
      <use xlink:href="#DejaVuSans-32" x="714.949219"/>
      <use xlink:href="#DejaVuSans-32" x="778.572266"/>
     </g>
    </g>
    <g id="line2d_56">
     <path d="M 269.702 460.814875 
L 278.502 460.814875 
L 287.302 460.814875 
" style="fill: none; stroke: #b9db57; stroke-width: 1.2; stroke-linecap: round"/>
    </g>
    <g id="text_50">
     <!-- afl-0-exid22 -->
     <g style="fill: #262626" transform="translate(294.342 463.894875)scale(0.088 -0.088)">
      <defs>
       <path id="DejaVuSans-6c" d="M 603 4863 
L 1178 4863 
L 1178 0 
L 603 0 
L 603 4863 
z
" transform="scale(0.015625)"/>
      </defs>
      <use xlink:href="#DejaVuSans-61"/>
      <use xlink:href="#DejaVuSans-66" x="61.279297"/>
      <use xlink:href="#DejaVuSans-6c" x="96.484375"/>
      <use xlink:href="#DejaVuSans-2d" x="124.267578"/>
      <use xlink:href="#DejaVuSans-30" x="160.351562"/>
      <use xlink:href="#DejaVuSans-2d" x="223.974609"/>
      <use xlink:href="#DejaVuSans-65" x="260.058594"/>
      <use xlink:href="#DejaVuSans-78" x="319.832031"/>
      <use xlink:href="#DejaVuSans-69" x="379.011719"/>
      <use xlink:href="#DejaVuSans-64" x="406.794922"/>
      <use xlink:href="#DejaVuSans-32" x="470.271484"/>
      <use xlink:href="#DejaVuSans-32" x="533.894531"/>
     </g>
    </g>
    <g id="line2d_57">
     <path d="M 269.702 473.731625 
L 278.502 473.731625 
L 287.302 473.731625 
" style="fill: none; stroke: #57db94; stroke-width: 1.2; stroke-linecap: round"/>
    </g>
    <g id="text_51">
     <!-- aflplusplus-0-exid22 -->
     <g style="fill: #262626" transform="translate(294.342 476.811625)scale(0.088 -0.088)">
      <defs>
       <path id="DejaVuSans-70" d="M 1159 525 
L 1159 -1331 
L 581 -1331 
L 581 3500 
L 1159 3500 
L 1159 2969 
Q 1341 3281 1617 3432 
Q 1894 3584 2278 3584 
Q 2916 3584 3314 3078 
Q 3713 2572 3713 1747 
Q 3713 922 3314 415 
Q 2916 -91 2278 -91 
Q 1894 -91 1617 61 
Q 1341 213 1159 525 
z
M 3116 1747 
Q 3116 2381 2855 2742 
Q 2594 3103 2138 3103 
Q 1681 3103 1420 2742 
Q 1159 2381 1159 1747 
Q 1159 1113 1420 752 
Q 1681 391 2138 391 
Q 2594 391 2855 752 
Q 3116 1113 3116 1747 
z
" transform="scale(0.015625)"/>
      </defs>
      <use xlink:href="#DejaVuSans-61"/>
      <use xlink:href="#DejaVuSans-66" x="61.279297"/>
      <use xlink:href="#DejaVuSans-6c" x="96.484375"/>
      <use xlink:href="#DejaVuSans-70" x="124.267578"/>
      <use xlink:href="#DejaVuSans-6c" x="187.744141"/>
      <use xlink:href="#DejaVuSans-75" x="215.527344"/>
      <use xlink:href="#DejaVuSans-73" x="278.90625"/>
      <use xlink:href="#DejaVuSans-70" x="331.005859"/>
      <use xlink:href="#DejaVuSans-6c" x="394.482422"/>
      <use xlink:href="#DejaVuSans-75" x="422.265625"/>
      <use xlink:href="#DejaVuSans-73" x="485.644531"/>
      <use xlink:href="#DejaVuSans-2d" x="537.744141"/>
      <use xlink:href="#DejaVuSans-30" x="573.828125"/>
      <use xlink:href="#DejaVuSans-2d" x="637.451172"/>
      <use xlink:href="#DejaVuSans-65" x="673.535156"/>
      <use xlink:href="#DejaVuSans-78" x="733.308594"/>
      <use xlink:href="#DejaVuSans-69" x="792.488281"/>
      <use xlink:href="#DejaVuSans-64" x="820.271484"/>
      <use xlink:href="#DejaVuSans-32" x="883.748047"/>
      <use xlink:href="#DejaVuSans-32" x="947.371094"/>
     </g>
    </g>
    <g id="line2d_58">
     <path d="M 269.702 486.648375 
L 278.502 486.648375 
L 287.302 486.648375 
" style="fill: none; stroke: #5784db; stroke-width: 1.2; stroke-linecap: round"/>
    </g>
    <g id="text_52">
     <!-- aflfast-0-exid22 -->
     <g style="fill: #262626" transform="translate(294.342 489.728375)scale(0.088 -0.088)">
      <use xlink:href="#DejaVuSans-61"/>
      <use xlink:href="#DejaVuSans-66" x="61.279297"/>
      <use xlink:href="#DejaVuSans-6c" x="96.484375"/>
      <use xlink:href="#DejaVuSans-66" x="124.267578"/>
      <use xlink:href="#DejaVuSans-61" x="159.472656"/>
      <use xlink:href="#DejaVuSans-73" x="220.751953"/>
      <use xlink:href="#DejaVuSans-74" x="272.851562"/>
      <use xlink:href="#DejaVuSans-2d" x="312.060547"/>
      <use xlink:href="#DejaVuSans-30" x="348.144531"/>
      <use xlink:href="#DejaVuSans-2d" x="411.767578"/>
      <use xlink:href="#DejaVuSans-65" x="447.851562"/>
      <use xlink:href="#DejaVuSans-78" x="507.625"/>
      <use xlink:href="#DejaVuSans-69" x="566.804688"/>
      <use xlink:href="#DejaVuSans-64" x="594.587891"/>
      <use xlink:href="#DejaVuSans-32" x="658.064453"/>
      <use xlink:href="#DejaVuSans-32" x="721.6875"/>
     </g>
    </g>
    <g id="line2d_59">
     <path d="M 269.702 499.565125 
L 278.502 499.565125 
L 287.302 499.565125 
" style="fill: none; stroke: #c957db; stroke-width: 1.2; stroke-linecap: round"/>
    </g>
    <g id="text_53">
     <!-- fuzzer_global -->
     <g style="fill: #262626" transform="translate(294.342 502.645125)scale(0.088 -0.088)">
      <defs>
       <path id="DejaVuSans-5f" d="M 3263 -1063 
L 3263 -1509 
L -63 -1509 
L -63 -1063 
L 3263 -1063 
z
" transform="scale(0.015625)"/>
       <path id="DejaVuSans-62" d="M 3116 1747 
Q 3116 2381 2855 2742 
Q 2594 3103 2138 3103 
Q 1681 3103 1420 2742 
Q 1159 2381 1159 1747 
Q 1159 1113 1420 752 
Q 1681 391 2138 391 
Q 2594 391 2855 752 
Q 3116 1113 3116 1747 
z
M 1159 2969 
Q 1341 3281 1617 3432 
Q 1894 3584 2278 3584 
Q 2916 3584 3314 3078 
Q 3713 2572 3713 1747 
Q 3713 922 3314 415 
Q 2916 -91 2278 -91 
Q 1894 -91 1617 61 
Q 1341 213 1159 525 
L 1159 0 
L 581 0 
L 581 4863 
L 1159 4863 
L 1159 2969 
z
" transform="scale(0.015625)"/>
      </defs>
      <use xlink:href="#DejaVuSans-66"/>
      <use xlink:href="#DejaVuSans-75" x="35.205078"/>
      <use xlink:href="#DejaVuSans-7a" x="98.583984"/>
      <use xlink:href="#DejaVuSans-7a" x="151.074219"/>
      <use xlink:href="#DejaVuSans-65" x="203.564453"/>
      <use xlink:href="#DejaVuSans-72" x="265.087891"/>
      <use xlink:href="#DejaVuSans-5f" x="306.201172"/>
      <use xlink:href="#DejaVuSans-67" x="356.201172"/>
      <use xlink:href="#DejaVuSans-6c" x="419.677734"/>
      <use xlink:href="#DejaVuSans-6f" x="447.460938"/>
      <use xlink:href="#DejaVuSans-62" x="508.642578"/>
      <use xlink:href="#DejaVuSans-61" x="572.119141"/>
      <use xlink:href="#DejaVuSans-6c" x="633.398438"/>
     </g>
    </g>
   </g>
  </g>
 </g>
 <defs>
  <clipPath id="p878d49d7a7">
   <rect x="54.3375" y="69.12" width="336.8925" height="443.52"/>
  </clipPath>
 </defs>
</svg>
