<?xml version="1.0" encoding="utf-8" standalone="no"?>
<!DOCTYPE svg PUBLIC "-//W3C//DTD SVG 1.1//EN"
  "http://www.w3.org/Graphics/SVG/1.1/DTD/svg11.dtd">
<svg xmlns:xlink="http://www.w3.org/1999/xlink" width="434.1pt" height="576pt" viewBox="0 0 434.1 576" xmlns="http://www.w3.org/2000/svg" version="1.1">
 <metadata>
  <rdf:RDF xmlns:dc="http://purl.org/dc/elements/1.1/" xmlns:cc="http://creativecommons.org/ns#" xmlns:rdf="http://www.w3.org/1999/02/22-rdf-syntax-ns#">
   <cc:Work>
    <dc:type rdf:resource="http://purl.org/dc/dcmitype/StillImage"/>
    <dc:date>2022-09-15T09:16:25.526987</dc:date>
    <dc:format>image/svg+xml</dc:format>
    <dc:creator>
     <cc:Agent>
      <dc:title>Matplotlib v3.5.3, https://matplotlib.org/</dc:title>
     </cc:Agent>
    </dc:creator>
   </cc:Work>
  </rdf:RDF>
 </metadata>
 <defs>
  <style type="text/css">*{stroke-linejoin: round; stroke-linecap: butt}</style>
 </defs>
 <g id="figure_1">
  <g id="patch_1">
   <path d="M 0 576 
L 434.1 576 
L 434.1 0 
L 0 0 
z
" style="fill: #ffffff"/>
  </g>
  <g id="axes_1">
   <g id="patch_2">
    <path d="M 54.2625 512.64 
L 390.69 512.64 
L 390.69 69.12 
L 54.2625 69.12 
z
" style="fill: #ffffff"/>
   </g>
   <g id="matplotlib.axis_1">
    <g id="xtick_1">
     <g id="line2d_1">
      <path d="M 69.554659 512.64 
L 69.554659 69.12 
" clip-path="url(#pe9380a8d39)" style="fill: none; stroke: #cccccc; stroke-width: 0.8; stroke-linecap: round"/>
     </g>
     <g id="text_1">
      <!-- 0 -->
      <g style="fill: #262626" transform="translate(69.292146 529.627249)rotate(-45)scale(0.088 -0.088)">
       <defs>
        <path id="DejaVuSans-30" d="M 2034 4250 
Q 1547 4250 1301 3770 
Q 1056 3291 1056 2328 
Q 1056 1369 1301 889 
Q 1547 409 2034 409 
Q 2525 409 2770 889 
Q 3016 1369 3016 2328 
Q 3016 3291 2770 3770 
Q 2525 4250 2034 4250 
z
M 2034 4750 
Q 2819 4750 3233 4129 
Q 3647 3509 3647 2328 
Q 3647 1150 3233 529 
Q 2819 -91 2034 -91 
Q 1250 -91 836 529 
Q 422 1150 422 2328 
Q 422 3509 836 4129 
Q 1250 4750 2034 4750 
z
" transform="scale(0.015625)"/>
       </defs>
       <use xlink:href="#DejaVuSans-30"/>
      </g>
     </g>
    </g>
    <g id="xtick_2">
     <g id="line2d_2">
      <path d="M 86.581419 512.64 
L 86.581419 69.12 
" clip-path="url(#pe9380a8d39)" style="fill: none; stroke: #cccccc; stroke-width: 0.8; stroke-linecap: round"/>
     </g>
     <g id="text_2">
      <!-- 80 -->
      <g style="fill: #262626" transform="translate(84.339361 533.58634)rotate(-45)scale(0.088 -0.088)">
       <defs>
        <path id="DejaVuSans-38" d="M 2034 2216 
Q 1584 2216 1326 1975 
Q 1069 1734 1069 1313 
Q 1069 891 1326 650 
Q 1584 409 2034 409 
Q 2484 409 2743 651 
Q 3003 894 3003 1313 
Q 3003 1734 2745 1975 
Q 2488 2216 2034 2216 
z
M 1403 2484 
Q 997 2584 770 2862 
Q 544 3141 544 3541 
Q 544 4100 942 4425 
Q 1341 4750 2034 4750 
Q 2731 4750 3128 4425 
Q 3525 4100 3525 3541 
Q 3525 3141 3298 2862 
Q 3072 2584 2669 2484 
Q 3125 2378 3379 2068 
Q 3634 1759 3634 1313 
Q 3634 634 3220 271 
Q 2806 -91 2034 -91 
Q 1263 -91 848 271 
Q 434 634 434 1313 
Q 434 1759 690 2068 
Q 947 2378 1403 2484 
z
M 1172 3481 
Q 1172 3119 1398 2916 
Q 1625 2713 2034 2713 
Q 2441 2713 2670 2916 
Q 2900 3119 2900 3481 
Q 2900 3844 2670 4047 
Q 2441 4250 2034 4250 
Q 1625 4250 1398 4047 
Q 1172 3844 1172 3481 
z
" transform="scale(0.015625)"/>
       </defs>
       <use xlink:href="#DejaVuSans-38"/>
       <use xlink:href="#DejaVuSans-30" x="63.623047"/>
      </g>
     </g>
    </g>
    <g id="xtick_3">
     <g id="line2d_3">
      <path d="M 103.60818 512.64 
L 103.60818 69.12 
" clip-path="url(#pe9380a8d39)" style="fill: none; stroke: #cccccc; stroke-width: 0.8; stroke-linecap: round"/>
     </g>
     <g id="text_3">
      <!-- 160 -->
      <g style="fill: #262626" transform="translate(99.386575 537.54543)rotate(-45)scale(0.088 -0.088)">
       <defs>
        <path id="DejaVuSans-31" d="M 794 531 
L 1825 531 
L 1825 4091 
L 703 3866 
L 703 4441 
L 1819 4666 
L 2450 4666 
L 2450 531 
L 3481 531 
L 3481 0 
L 794 0 
L 794 531 
z
" transform="scale(0.015625)"/>
        <path id="DejaVuSans-36" d="M 2113 2584 
Q 1688 2584 1439 2293 
Q 1191 2003 1191 1497 
Q 1191 994 1439 701 
Q 1688 409 2113 409 
Q 2538 409 2786 701 
Q 3034 994 3034 1497 
Q 3034 2003 2786 2293 
Q 2538 2584 2113 2584 
z
M 3366 4563 
L 3366 3988 
Q 3128 4100 2886 4159 
Q 2644 4219 2406 4219 
Q 1781 4219 1451 3797 
Q 1122 3375 1075 2522 
Q 1259 2794 1537 2939 
Q 1816 3084 2150 3084 
Q 2853 3084 3261 2657 
Q 3669 2231 3669 1497 
Q 3669 778 3244 343 
Q 2819 -91 2113 -91 
Q 1303 -91 875 529 
Q 447 1150 447 2328 
Q 447 3434 972 4092 
Q 1497 4750 2381 4750 
Q 2619 4750 2861 4703 
Q 3103 4656 3366 4563 
z
" transform="scale(0.015625)"/>
       </defs>
       <use xlink:href="#DejaVuSans-31"/>
       <use xlink:href="#DejaVuSans-36" x="63.623047"/>
       <use xlink:href="#DejaVuSans-30" x="127.246094"/>
      </g>
     </g>
    </g>
    <g id="xtick_4">
     <g id="line2d_4">
      <path d="M 120.63494 512.64 
L 120.63494 69.12 
" clip-path="url(#pe9380a8d39)" style="fill: none; stroke: #cccccc; stroke-width: 0.8; stroke-linecap: round"/>
     </g>
     <g id="text_4">
      <!-- 240 -->
      <g style="fill: #262626" transform="translate(116.413336 537.54543)rotate(-45)scale(0.088 -0.088)">
       <defs>
        <path id="DejaVuSans-32" d="M 1228 531 
L 3431 531 
L 3431 0 
L 469 0 
L 469 531 
Q 828 903 1448 1529 
Q 2069 2156 2228 2338 
Q 2531 2678 2651 2914 
Q 2772 3150 2772 3378 
Q 2772 3750 2511 3984 
Q 2250 4219 1831 4219 
Q 1534 4219 1204 4116 
Q 875 4013 500 3803 
L 500 4441 
Q 881 4594 1212 4672 
Q 1544 4750 1819 4750 
Q 2544 4750 2975 4387 
Q 3406 4025 3406 3419 
Q 3406 3131 3298 2873 
Q 3191 2616 2906 2266 
Q 2828 2175 2409 1742 
Q 1991 1309 1228 531 
z
" transform="scale(0.015625)"/>
        <path id="DejaVuSans-34" d="M 2419 4116 
L 825 1625 
L 2419 1625 
L 2419 4116 
z
M 2253 4666 
L 3047 4666 
L 3047 1625 
L 3713 1625 
L 3713 1100 
L 3047 1100 
L 3047 0 
L 2419 0 
L 2419 1100 
L 313 1100 
L 313 1709 
L 2253 4666 
z
" transform="scale(0.015625)"/>
       </defs>
       <use xlink:href="#DejaVuSans-32"/>
       <use xlink:href="#DejaVuSans-34" x="63.623047"/>
       <use xlink:href="#DejaVuSans-30" x="127.246094"/>
      </g>
     </g>
    </g>
    <g id="xtick_5">
     <g id="line2d_5">
      <path d="M 137.6617 512.64 
L 137.6617 69.12 
" clip-path="url(#pe9380a8d39)" style="fill: none; stroke: #cccccc; stroke-width: 0.8; stroke-linecap: round"/>
     </g>
     <g id="text_5">
      <!-- 320 -->
      <g style="fill: #262626" transform="translate(133.440096 537.54543)rotate(-45)scale(0.088 -0.088)">
       <defs>
        <path id="DejaVuSans-33" d="M 2597 2516 
Q 3050 2419 3304 2112 
Q 3559 1806 3559 1356 
Q 3559 666 3084 287 
Q 2609 -91 1734 -91 
Q 1441 -91 1130 -33 
Q 819 25 488 141 
L 488 750 
Q 750 597 1062 519 
Q 1375 441 1716 441 
Q 2309 441 2620 675 
Q 2931 909 2931 1356 
Q 2931 1769 2642 2001 
Q 2353 2234 1838 2234 
L 1294 2234 
L 1294 2753 
L 1863 2753 
Q 2328 2753 2575 2939 
Q 2822 3125 2822 3475 
Q 2822 3834 2567 4026 
Q 2313 4219 1838 4219 
Q 1578 4219 1281 4162 
Q 984 4106 628 3988 
L 628 4550 
Q 988 4650 1302 4700 
Q 1616 4750 1894 4750 
Q 2613 4750 3031 4423 
Q 3450 4097 3450 3541 
Q 3450 3153 3228 2886 
Q 3006 2619 2597 2516 
z
" transform="scale(0.015625)"/>
       </defs>
       <use xlink:href="#DejaVuSans-33"/>
       <use xlink:href="#DejaVuSans-32" x="63.623047"/>
       <use xlink:href="#DejaVuSans-30" x="127.246094"/>
      </g>
     </g>
    </g>
    <g id="xtick_6">
     <g id="line2d_6">
      <path d="M 154.688461 512.64 
L 154.688461 69.12 
" clip-path="url(#pe9380a8d39)" style="fill: none; stroke: #cccccc; stroke-width: 0.8; stroke-linecap: round"/>
     </g>
     <g id="text_6">
      <!-- 400 -->
      <g style="fill: #262626" transform="translate(150.466856 537.54543)rotate(-45)scale(0.088 -0.088)">
       <use xlink:href="#DejaVuSans-34"/>
       <use xlink:href="#DejaVuSans-30" x="63.623047"/>
       <use xlink:href="#DejaVuSans-30" x="127.246094"/>
      </g>
     </g>
    </g>
    <g id="xtick_7">
     <g id="line2d_7">
      <path d="M 171.715221 512.64 
L 171.715221 69.12 
" clip-path="url(#pe9380a8d39)" style="fill: none; stroke: #cccccc; stroke-width: 0.8; stroke-linecap: round"/>
     </g>
     <g id="text_7">
      <!-- 480 -->
      <g style="fill: #262626" transform="translate(167.493617 537.54543)rotate(-45)scale(0.088 -0.088)">
       <use xlink:href="#DejaVuSans-34"/>
       <use xlink:href="#DejaVuSans-38" x="63.623047"/>
       <use xlink:href="#DejaVuSans-30" x="127.246094"/>
      </g>
     </g>
    </g>
    <g id="xtick_8">
     <g id="line2d_8">
      <path d="M 188.741981 512.64 
L 188.741981 69.12 
" clip-path="url(#pe9380a8d39)" style="fill: none; stroke: #cccccc; stroke-width: 0.8; stroke-linecap: round"/>
     </g>
     <g id="text_8">
      <!-- 560 -->
      <g style="fill: #262626" transform="translate(184.520377 537.54543)rotate(-45)scale(0.088 -0.088)">
       <defs>
        <path id="DejaVuSans-35" d="M 691 4666 
L 3169 4666 
L 3169 4134 
L 1269 4134 
L 1269 2991 
Q 1406 3038 1543 3061 
Q 1681 3084 1819 3084 
Q 2600 3084 3056 2656 
Q 3513 2228 3513 1497 
Q 3513 744 3044 326 
Q 2575 -91 1722 -91 
Q 1428 -91 1123 -41 
Q 819 9 494 109 
L 494 744 
Q 775 591 1075 516 
Q 1375 441 1709 441 
Q 2250 441 2565 725 
Q 2881 1009 2881 1497 
Q 2881 1984 2565 2268 
Q 2250 2553 1709 2553 
Q 1456 2553 1204 2497 
Q 953 2441 691 2322 
L 691 4666 
z
" transform="scale(0.015625)"/>
       </defs>
       <use xlink:href="#DejaVuSans-35"/>
       <use xlink:href="#DejaVuSans-36" x="63.623047"/>
       <use xlink:href="#DejaVuSans-30" x="127.246094"/>
      </g>
     </g>
    </g>
    <g id="xtick_9">
     <g id="line2d_9">
      <path d="M 205.768741 512.64 
L 205.768741 69.12 
" clip-path="url(#pe9380a8d39)" style="fill: none; stroke: #cccccc; stroke-width: 0.8; stroke-linecap: round"/>
     </g>
     <g id="text_9">
      <!-- 640 -->
      <g style="fill: #262626" transform="translate(201.547137 537.54543)rotate(-45)scale(0.088 -0.088)">
       <use xlink:href="#DejaVuSans-36"/>
       <use xlink:href="#DejaVuSans-34" x="63.623047"/>
       <use xlink:href="#DejaVuSans-30" x="127.246094"/>
      </g>
     </g>
    </g>
    <g id="xtick_10">
     <g id="line2d_10">
      <path d="M 222.795502 512.64 
L 222.795502 69.12 
" clip-path="url(#pe9380a8d39)" style="fill: none; stroke: #cccccc; stroke-width: 0.8; stroke-linecap: round"/>
     </g>
     <g id="text_10">
      <!-- 720 -->
      <g style="fill: #262626" transform="translate(218.573897 537.54543)rotate(-45)scale(0.088 -0.088)">
       <defs>
        <path id="DejaVuSans-37" d="M 525 4666 
L 3525 4666 
L 3525 4397 
L 1831 0 
L 1172 0 
L 2766 4134 
L 525 4134 
L 525 4666 
z
" transform="scale(0.015625)"/>
       </defs>
       <use xlink:href="#DejaVuSans-37"/>
       <use xlink:href="#DejaVuSans-32" x="63.623047"/>
       <use xlink:href="#DejaVuSans-30" x="127.246094"/>
      </g>
     </g>
    </g>
    <g id="xtick_11">
     <g id="line2d_11">
      <path d="M 239.822262 512.64 
L 239.822262 69.12 
" clip-path="url(#pe9380a8d39)" style="fill: none; stroke: #cccccc; stroke-width: 0.8; stroke-linecap: round"/>
     </g>
     <g id="text_11">
      <!-- 800 -->
      <g style="fill: #262626" transform="translate(235.600658 537.54543)rotate(-45)scale(0.088 -0.088)">
       <use xlink:href="#DejaVuSans-38"/>
       <use xlink:href="#DejaVuSans-30" x="63.623047"/>
       <use xlink:href="#DejaVuSans-30" x="127.246094"/>
      </g>
     </g>
    </g>
    <g id="xtick_12">
     <g id="line2d_12">
      <path d="M 256.849022 512.64 
L 256.849022 69.12 
" clip-path="url(#pe9380a8d39)" style="fill: none; stroke: #cccccc; stroke-width: 0.8; stroke-linecap: round"/>
     </g>
     <g id="text_12">
      <!-- 880 -->
      <g style="fill: #262626" transform="translate(252.627418 537.54543)rotate(-45)scale(0.088 -0.088)">
       <use xlink:href="#DejaVuSans-38"/>
       <use xlink:href="#DejaVuSans-38" x="63.623047"/>
       <use xlink:href="#DejaVuSans-30" x="127.246094"/>
      </g>
     </g>
    </g>
    <g id="xtick_13">
     <g id="line2d_13">
      <path d="M 273.875783 512.64 
L 273.875783 69.12 
" clip-path="url(#pe9380a8d39)" style="fill: none; stroke: #cccccc; stroke-width: 0.8; stroke-linecap: round"/>
     </g>
     <g id="text_13">
      <!-- 960 -->
      <g style="fill: #262626" transform="translate(269.654178 537.54543)rotate(-45)scale(0.088 -0.088)">
       <defs>
        <path id="DejaVuSans-39" d="M 703 97 
L 703 672 
Q 941 559 1184 500 
Q 1428 441 1663 441 
Q 2288 441 2617 861 
Q 2947 1281 2994 2138 
Q 2813 1869 2534 1725 
Q 2256 1581 1919 1581 
Q 1219 1581 811 2004 
Q 403 2428 403 3163 
Q 403 3881 828 4315 
Q 1253 4750 1959 4750 
Q 2769 4750 3195 4129 
Q 3622 3509 3622 2328 
Q 3622 1225 3098 567 
Q 2575 -91 1691 -91 
Q 1453 -91 1209 -44 
Q 966 3 703 97 
z
M 1959 2075 
Q 2384 2075 2632 2365 
Q 2881 2656 2881 3163 
Q 2881 3666 2632 3958 
Q 2384 4250 1959 4250 
Q 1534 4250 1286 3958 
Q 1038 3666 1038 3163 
Q 1038 2656 1286 2365 
Q 1534 2075 1959 2075 
z
" transform="scale(0.015625)"/>
       </defs>
       <use xlink:href="#DejaVuSans-39"/>
       <use xlink:href="#DejaVuSans-36" x="63.623047"/>
       <use xlink:href="#DejaVuSans-30" x="127.246094"/>
      </g>
     </g>
    </g>
    <g id="xtick_14">
     <g id="line2d_14">
      <path d="M 290.902543 512.64 
L 290.902543 69.12 
" clip-path="url(#pe9380a8d39)" style="fill: none; stroke: #cccccc; stroke-width: 0.8; stroke-linecap: round"/>
     </g>
     <g id="text_14">
      <!-- 1040 -->
      <g style="fill: #262626" transform="translate(284.701393 541.504521)rotate(-45)scale(0.088 -0.088)">
       <use xlink:href="#DejaVuSans-31"/>
       <use xlink:href="#DejaVuSans-30" x="63.623047"/>
       <use xlink:href="#DejaVuSans-34" x="127.246094"/>
       <use xlink:href="#DejaVuSans-30" x="190.869141"/>
      </g>
     </g>
    </g>
    <g id="xtick_15">
     <g id="line2d_15">
      <path d="M 307.929303 512.64 
L 307.929303 69.12 
" clip-path="url(#pe9380a8d39)" style="fill: none; stroke: #cccccc; stroke-width: 0.8; stroke-linecap: round"/>
     </g>
     <g id="text_15">
      <!-- 1120 -->
      <g style="fill: #262626" transform="translate(301.728154 541.504521)rotate(-45)scale(0.088 -0.088)">
       <use xlink:href="#DejaVuSans-31"/>
       <use xlink:href="#DejaVuSans-31" x="63.623047"/>
       <use xlink:href="#DejaVuSans-32" x="127.246094"/>
       <use xlink:href="#DejaVuSans-30" x="190.869141"/>
      </g>
     </g>
    </g>
    <g id="xtick_16">
     <g id="line2d_16">
      <path d="M 324.956064 512.64 
L 324.956064 69.12 
" clip-path="url(#pe9380a8d39)" style="fill: none; stroke: #cccccc; stroke-width: 0.8; stroke-linecap: round"/>
     </g>
     <g id="text_16">
      <!-- 1200 -->
      <g style="fill: #262626" transform="translate(318.754914 541.504521)rotate(-45)scale(0.088 -0.088)">
       <use xlink:href="#DejaVuSans-31"/>
       <use xlink:href="#DejaVuSans-32" x="63.623047"/>
       <use xlink:href="#DejaVuSans-30" x="127.246094"/>
       <use xlink:href="#DejaVuSans-30" x="190.869141"/>
      </g>
     </g>
    </g>
    <g id="xtick_17">
     <g id="line2d_17">
      <path d="M 341.982824 512.64 
L 341.982824 69.12 
" clip-path="url(#pe9380a8d39)" style="fill: none; stroke: #cccccc; stroke-width: 0.8; stroke-linecap: round"/>
     </g>
     <g id="text_17">
      <!-- 1280 -->
      <g style="fill: #262626" transform="translate(335.781674 541.504521)rotate(-45)scale(0.088 -0.088)">
       <use xlink:href="#DejaVuSans-31"/>
       <use xlink:href="#DejaVuSans-32" x="63.623047"/>
       <use xlink:href="#DejaVuSans-38" x="127.246094"/>
       <use xlink:href="#DejaVuSans-30" x="190.869141"/>
      </g>
     </g>
    </g>
    <g id="xtick_18">
     <g id="line2d_18">
      <path d="M 359.009584 512.64 
L 359.009584 69.12 
" clip-path="url(#pe9380a8d39)" style="fill: none; stroke: #cccccc; stroke-width: 0.8; stroke-linecap: round"/>
     </g>
     <g id="text_18">
      <!-- 1360 -->
      <g style="fill: #262626" transform="translate(352.808434 541.504521)rotate(-45)scale(0.088 -0.088)">
       <use xlink:href="#DejaVuSans-31"/>
       <use xlink:href="#DejaVuSans-33" x="63.623047"/>
       <use xlink:href="#DejaVuSans-36" x="127.246094"/>
       <use xlink:href="#DejaVuSans-30" x="190.869141"/>
      </g>
     </g>
    </g>
    <g id="xtick_19">
     <g id="line2d_19">
      <path d="M 376.036344 512.64 
L 376.036344 69.12 
" clip-path="url(#pe9380a8d39)" style="fill: none; stroke: #cccccc; stroke-width: 0.8; stroke-linecap: round"/>
     </g>
     <g id="text_19">
      <!-- 1440 -->
      <g style="fill: #262626" transform="translate(369.835195 541.504521)rotate(-45)scale(0.088 -0.088)">
       <use xlink:href="#DejaVuSans-31"/>
       <use xlink:href="#DejaVuSans-34" x="63.623047"/>
       <use xlink:href="#DejaVuSans-34" x="127.246094"/>
       <use xlink:href="#DejaVuSans-30" x="190.869141"/>
      </g>
     </g>
    </g>
    <g id="text_20">
     <!-- Time (Minutes) -->
     <g style="fill: #262626" transform="translate(186.56625 554.093115)scale(0.096 -0.096)">
      <defs>
       <path id="DejaVuSans-54" d="M -19 4666 
L 3928 4666 
L 3928 4134 
L 2272 4134 
L 2272 0 
L 1638 0 
L 1638 4134 
L -19 4134 
L -19 4666 
z
" transform="scale(0.015625)"/>
       <path id="DejaVuSans-69" d="M 603 3500 
L 1178 3500 
L 1178 0 
L 603 0 
L 603 3500 
z
M 603 4863 
L 1178 4863 
L 1178 4134 
L 603 4134 
L 603 4863 
z
" transform="scale(0.015625)"/>
       <path id="DejaVuSans-6d" d="M 3328 2828 
Q 3544 3216 3844 3400 
Q 4144 3584 4550 3584 
Q 5097 3584 5394 3201 
Q 5691 2819 5691 2113 
L 5691 0 
L 5113 0 
L 5113 2094 
Q 5113 2597 4934 2840 
Q 4756 3084 4391 3084 
Q 3944 3084 3684 2787 
Q 3425 2491 3425 1978 
L 3425 0 
L 2847 0 
L 2847 2094 
Q 2847 2600 2669 2842 
Q 2491 3084 2119 3084 
Q 1678 3084 1418 2786 
Q 1159 2488 1159 1978 
L 1159 0 
L 581 0 
L 581 3500 
L 1159 3500 
L 1159 2956 
Q 1356 3278 1631 3431 
Q 1906 3584 2284 3584 
Q 2666 3584 2933 3390 
Q 3200 3197 3328 2828 
z
" transform="scale(0.015625)"/>
       <path id="DejaVuSans-65" d="M 3597 1894 
L 3597 1613 
L 953 1613 
Q 991 1019 1311 708 
Q 1631 397 2203 397 
Q 2534 397 2845 478 
Q 3156 559 3463 722 
L 3463 178 
Q 3153 47 2828 -22 
Q 2503 -91 2169 -91 
Q 1331 -91 842 396 
Q 353 884 353 1716 
Q 353 2575 817 3079 
Q 1281 3584 2069 3584 
Q 2775 3584 3186 3129 
Q 3597 2675 3597 1894 
z
M 3022 2063 
Q 3016 2534 2758 2815 
Q 2500 3097 2075 3097 
Q 1594 3097 1305 2825 
Q 1016 2553 972 2059 
L 3022 2063 
z
" transform="scale(0.015625)"/>
       <path id="DejaVuSans-20" transform="scale(0.015625)"/>
       <path id="DejaVuSans-28" d="M 1984 4856 
Q 1566 4138 1362 3434 
Q 1159 2731 1159 2009 
Q 1159 1288 1364 580 
Q 1569 -128 1984 -844 
L 1484 -844 
Q 1016 -109 783 600 
Q 550 1309 550 2009 
Q 550 2706 781 3412 
Q 1013 4119 1484 4856 
L 1984 4856 
z
" transform="scale(0.015625)"/>
       <path id="DejaVuSans-4d" d="M 628 4666 
L 1569 4666 
L 2759 1491 
L 3956 4666 
L 4897 4666 
L 4897 0 
L 4281 0 
L 4281 4097 
L 3078 897 
L 2444 897 
L 1241 4097 
L 1241 0 
L 628 0 
L 628 4666 
z
" transform="scale(0.015625)"/>
       <path id="DejaVuSans-6e" d="M 3513 2113 
L 3513 0 
L 2938 0 
L 2938 2094 
Q 2938 2591 2744 2837 
Q 2550 3084 2163 3084 
Q 1697 3084 1428 2787 
Q 1159 2491 1159 1978 
L 1159 0 
L 581 0 
L 581 3500 
L 1159 3500 
L 1159 2956 
Q 1366 3272 1645 3428 
Q 1925 3584 2291 3584 
Q 2894 3584 3203 3211 
Q 3513 2838 3513 2113 
z
" transform="scale(0.015625)"/>
       <path id="DejaVuSans-75" d="M 544 1381 
L 544 3500 
L 1119 3500 
L 1119 1403 
Q 1119 906 1312 657 
Q 1506 409 1894 409 
Q 2359 409 2629 706 
Q 2900 1003 2900 1516 
L 2900 3500 
L 3475 3500 
L 3475 0 
L 2900 0 
L 2900 538 
Q 2691 219 2414 64 
Q 2138 -91 1772 -91 
Q 1169 -91 856 284 
Q 544 659 544 1381 
z
M 1991 3584 
L 1991 3584 
z
" transform="scale(0.015625)"/>
       <path id="DejaVuSans-74" d="M 1172 4494 
L 1172 3500 
L 2356 3500 
L 2356 3053 
L 1172 3053 
L 1172 1153 
Q 1172 725 1289 603 
Q 1406 481 1766 481 
L 2356 481 
L 2356 0 
L 1766 0 
Q 1100 0 847 248 
Q 594 497 594 1153 
L 594 3053 
L 172 3053 
L 172 3500 
L 594 3500 
L 594 4494 
L 1172 4494 
z
" transform="scale(0.015625)"/>
       <path id="DejaVuSans-73" d="M 2834 3397 
L 2834 2853 
Q 2591 2978 2328 3040 
Q 2066 3103 1784 3103 
Q 1356 3103 1142 2972 
Q 928 2841 928 2578 
Q 928 2378 1081 2264 
Q 1234 2150 1697 2047 
L 1894 2003 
Q 2506 1872 2764 1633 
Q 3022 1394 3022 966 
Q 3022 478 2636 193 
Q 2250 -91 1575 -91 
Q 1294 -91 989 -36 
Q 684 19 347 128 
L 347 722 
Q 666 556 975 473 
Q 1284 391 1588 391 
Q 1994 391 2212 530 
Q 2431 669 2431 922 
Q 2431 1156 2273 1281 
Q 2116 1406 1581 1522 
L 1381 1569 
Q 847 1681 609 1914 
Q 372 2147 372 2553 
Q 372 3047 722 3315 
Q 1072 3584 1716 3584 
Q 2034 3584 2315 3537 
Q 2597 3491 2834 3397 
z
" transform="scale(0.015625)"/>
       <path id="DejaVuSans-29" d="M 513 4856 
L 1013 4856 
Q 1481 4119 1714 3412 
Q 1947 2706 1947 2009 
Q 1947 1309 1714 600 
Q 1481 -109 1013 -844 
L 513 -844 
Q 928 -128 1133 580 
Q 1338 1288 1338 2009 
Q 1338 2731 1133 3434 
Q 928 4138 513 4856 
z
" transform="scale(0.015625)"/>
      </defs>
      <use xlink:href="#DejaVuSans-54"/>
      <use xlink:href="#DejaVuSans-69" x="57.958984"/>
      <use xlink:href="#DejaVuSans-6d" x="85.742188"/>
      <use xlink:href="#DejaVuSans-65" x="183.154297"/>
      <use xlink:href="#DejaVuSans-20" x="244.677734"/>
      <use xlink:href="#DejaVuSans-28" x="276.464844"/>
      <use xlink:href="#DejaVuSans-4d" x="315.478516"/>
      <use xlink:href="#DejaVuSans-69" x="401.757812"/>
      <use xlink:href="#DejaVuSans-6e" x="429.541016"/>
      <use xlink:href="#DejaVuSans-75" x="492.919922"/>
      <use xlink:href="#DejaVuSans-74" x="556.298828"/>
      <use xlink:href="#DejaVuSans-65" x="595.507812"/>
      <use xlink:href="#DejaVuSans-73" x="657.03125"/>
      <use xlink:href="#DejaVuSans-29" x="709.130859"/>
     </g>
    </g>
   </g>
   <g id="matplotlib.axis_2">
    <g id="ytick_1">
     <g id="line2d_20">
      <path d="M 54.2625 492.48 
L 390.69 492.48 
" clip-path="url(#pe9380a8d39)" style="fill: none; stroke: #cccccc; stroke-width: 0.8; stroke-linecap: round"/>
     </g>
     <g id="text_21">
      <!-- 0 -->
      <g style="fill: #262626" transform="translate(40.3635 495.823312)scale(0.088 -0.088)">
       <use xlink:href="#DejaVuSans-30"/>
      </g>
     </g>
    </g>
    <g id="ytick_2">
     <g id="line2d_21">
      <path d="M 54.2625 422.962759 
L 390.69 422.962759 
" clip-path="url(#pe9380a8d39)" style="fill: none; stroke: #cccccc; stroke-width: 0.8; stroke-linecap: round"/>
     </g>
     <g id="text_22">
      <!-- 100 -->
      <g style="fill: #262626" transform="translate(29.1655 426.306071)scale(0.088 -0.088)">
       <use xlink:href="#DejaVuSans-31"/>
       <use xlink:href="#DejaVuSans-30" x="63.623047"/>
       <use xlink:href="#DejaVuSans-30" x="127.246094"/>
      </g>
     </g>
    </g>
    <g id="ytick_3">
     <g id="line2d_22">
      <path d="M 54.2625 353.445517 
L 390.69 353.445517 
" clip-path="url(#pe9380a8d39)" style="fill: none; stroke: #cccccc; stroke-width: 0.8; stroke-linecap: round"/>
     </g>
     <g id="text_23">
      <!-- 200 -->
      <g style="fill: #262626" transform="translate(29.1655 356.78883)scale(0.088 -0.088)">
       <use xlink:href="#DejaVuSans-32"/>
       <use xlink:href="#DejaVuSans-30" x="63.623047"/>
       <use xlink:href="#DejaVuSans-30" x="127.246094"/>
      </g>
     </g>
    </g>
    <g id="ytick_4">
     <g id="line2d_23">
      <path d="M 54.2625 283.928276 
L 390.69 283.928276 
" clip-path="url(#pe9380a8d39)" style="fill: none; stroke: #cccccc; stroke-width: 0.8; stroke-linecap: round"/>
     </g>
     <g id="text_24">
      <!-- 300 -->
      <g style="fill: #262626" transform="translate(29.1655 287.271588)scale(0.088 -0.088)">
       <use xlink:href="#DejaVuSans-33"/>
       <use xlink:href="#DejaVuSans-30" x="63.623047"/>
       <use xlink:href="#DejaVuSans-30" x="127.246094"/>
      </g>
     </g>
    </g>
    <g id="ytick_5">
     <g id="line2d_24">
      <path d="M 54.2625 214.411034 
L 390.69 214.411034 
" clip-path="url(#pe9380a8d39)" style="fill: none; stroke: #cccccc; stroke-width: 0.8; stroke-linecap: round"/>
     </g>
     <g id="text_25">
      <!-- 400 -->
      <g style="fill: #262626" transform="translate(29.1655 217.754347)scale(0.088 -0.088)">
       <use xlink:href="#DejaVuSans-34"/>
       <use xlink:href="#DejaVuSans-30" x="63.623047"/>
       <use xlink:href="#DejaVuSans-30" x="127.246094"/>
      </g>
     </g>
    </g>
    <g id="ytick_6">
     <g id="line2d_25">
      <path d="M 54.2625 144.893793 
L 390.69 144.893793 
" clip-path="url(#pe9380a8d39)" style="fill: none; stroke: #cccccc; stroke-width: 0.8; stroke-linecap: round"/>
     </g>
     <g id="text_26">
      <!-- 500 -->
      <g style="fill: #262626" transform="translate(29.1655 148.237106)scale(0.088 -0.088)">
       <use xlink:href="#DejaVuSans-35"/>
       <use xlink:href="#DejaVuSans-30" x="63.623047"/>
       <use xlink:href="#DejaVuSans-30" x="127.246094"/>
      </g>
     </g>
    </g>
    <g id="text_27">
     <!-- Edge Coverages -->
     <g style="fill: #262626" transform="translate(23.169 329.98575)rotate(-90)scale(0.096 -0.096)">
      <defs>
       <path id="DejaVuSans-45" d="M 628 4666 
L 3578 4666 
L 3578 4134 
L 1259 4134 
L 1259 2753 
L 3481 2753 
L 3481 2222 
L 1259 2222 
L 1259 531 
L 3634 531 
L 3634 0 
L 628 0 
L 628 4666 
z
" transform="scale(0.015625)"/>
       <path id="DejaVuSans-64" d="M 2906 2969 
L 2906 4863 
L 3481 4863 
L 3481 0 
L 2906 0 
L 2906 525 
Q 2725 213 2448 61 
Q 2172 -91 1784 -91 
Q 1150 -91 751 415 
Q 353 922 353 1747 
Q 353 2572 751 3078 
Q 1150 3584 1784 3584 
Q 2172 3584 2448 3432 
Q 2725 3281 2906 2969 
z
M 947 1747 
Q 947 1113 1208 752 
Q 1469 391 1925 391 
Q 2381 391 2643 752 
Q 2906 1113 2906 1747 
Q 2906 2381 2643 2742 
Q 2381 3103 1925 3103 
Q 1469 3103 1208 2742 
Q 947 2381 947 1747 
z
" transform="scale(0.015625)"/>
       <path id="DejaVuSans-67" d="M 2906 1791 
Q 2906 2416 2648 2759 
Q 2391 3103 1925 3103 
Q 1463 3103 1205 2759 
Q 947 2416 947 1791 
Q 947 1169 1205 825 
Q 1463 481 1925 481 
Q 2391 481 2648 825 
Q 2906 1169 2906 1791 
z
M 3481 434 
Q 3481 -459 3084 -895 
Q 2688 -1331 1869 -1331 
Q 1566 -1331 1297 -1286 
Q 1028 -1241 775 -1147 
L 775 -588 
Q 1028 -725 1275 -790 
Q 1522 -856 1778 -856 
Q 2344 -856 2625 -561 
Q 2906 -266 2906 331 
L 2906 616 
Q 2728 306 2450 153 
Q 2172 0 1784 0 
Q 1141 0 747 490 
Q 353 981 353 1791 
Q 353 2603 747 3093 
Q 1141 3584 1784 3584 
Q 2172 3584 2450 3431 
Q 2728 3278 2906 2969 
L 2906 3500 
L 3481 3500 
L 3481 434 
z
" transform="scale(0.015625)"/>
       <path id="DejaVuSans-43" d="M 4122 4306 
L 4122 3641 
Q 3803 3938 3442 4084 
Q 3081 4231 2675 4231 
Q 1875 4231 1450 3742 
Q 1025 3253 1025 2328 
Q 1025 1406 1450 917 
Q 1875 428 2675 428 
Q 3081 428 3442 575 
Q 3803 722 4122 1019 
L 4122 359 
Q 3791 134 3420 21 
Q 3050 -91 2638 -91 
Q 1578 -91 968 557 
Q 359 1206 359 2328 
Q 359 3453 968 4101 
Q 1578 4750 2638 4750 
Q 3056 4750 3426 4639 
Q 3797 4528 4122 4306 
z
" transform="scale(0.015625)"/>
       <path id="DejaVuSans-6f" d="M 1959 3097 
Q 1497 3097 1228 2736 
Q 959 2375 959 1747 
Q 959 1119 1226 758 
Q 1494 397 1959 397 
Q 2419 397 2687 759 
Q 2956 1122 2956 1747 
Q 2956 2369 2687 2733 
Q 2419 3097 1959 3097 
z
M 1959 3584 
Q 2709 3584 3137 3096 
Q 3566 2609 3566 1747 
Q 3566 888 3137 398 
Q 2709 -91 1959 -91 
Q 1206 -91 779 398 
Q 353 888 353 1747 
Q 353 2609 779 3096 
Q 1206 3584 1959 3584 
z
" transform="scale(0.015625)"/>
       <path id="DejaVuSans-76" d="M 191 3500 
L 800 3500 
L 1894 563 
L 2988 3500 
L 3597 3500 
L 2284 0 
L 1503 0 
L 191 3500 
z
" transform="scale(0.015625)"/>
       <path id="DejaVuSans-72" d="M 2631 2963 
Q 2534 3019 2420 3045 
Q 2306 3072 2169 3072 
Q 1681 3072 1420 2755 
Q 1159 2438 1159 1844 
L 1159 0 
L 581 0 
L 581 3500 
L 1159 3500 
L 1159 2956 
Q 1341 3275 1631 3429 
Q 1922 3584 2338 3584 
Q 2397 3584 2469 3576 
Q 2541 3569 2628 3553 
L 2631 2963 
z
" transform="scale(0.015625)"/>
       <path id="DejaVuSans-61" d="M 2194 1759 
Q 1497 1759 1228 1600 
Q 959 1441 959 1056 
Q 959 750 1161 570 
Q 1363 391 1709 391 
Q 2188 391 2477 730 
Q 2766 1069 2766 1631 
L 2766 1759 
L 2194 1759 
z
M 3341 1997 
L 3341 0 
L 2766 0 
L 2766 531 
Q 2569 213 2275 61 
Q 1981 -91 1556 -91 
Q 1019 -91 701 211 
Q 384 513 384 1019 
Q 384 1609 779 1909 
Q 1175 2209 1959 2209 
L 2766 2209 
L 2766 2266 
Q 2766 2663 2505 2880 
Q 2244 3097 1772 3097 
Q 1472 3097 1187 3025 
Q 903 2953 641 2809 
L 641 3341 
Q 956 3463 1253 3523 
Q 1550 3584 1831 3584 
Q 2591 3584 2966 3190 
Q 3341 2797 3341 1997 
z
" transform="scale(0.015625)"/>
      </defs>
      <use xlink:href="#DejaVuSans-45"/>
      <use xlink:href="#DejaVuSans-64" x="63.183594"/>
      <use xlink:href="#DejaVuSans-67" x="126.660156"/>
      <use xlink:href="#DejaVuSans-65" x="190.136719"/>
      <use xlink:href="#DejaVuSans-20" x="251.660156"/>
      <use xlink:href="#DejaVuSans-43" x="283.447266"/>
      <use xlink:href="#DejaVuSans-6f" x="353.271484"/>
      <use xlink:href="#DejaVuSans-76" x="414.453125"/>
      <use xlink:href="#DejaVuSans-65" x="473.632812"/>
      <use xlink:href="#DejaVuSans-72" x="535.15625"/>
      <use xlink:href="#DejaVuSans-61" x="576.269531"/>
      <use xlink:href="#DejaVuSans-67" x="637.548828"/>
      <use xlink:href="#DejaVuSans-65" x="701.025391"/>
      <use xlink:href="#DejaVuSans-73" x="762.548828"/>
     </g>
    </g>
   </g>
   <g id="PolyCollection_1">
    <defs>
     <path id="m824f97ae54" d="M 69.554659 -107.851034 
L 69.554659 -83.52 
L 69.554659 -107.851034 
L 69.554659 -107.851034 
z
" style="stroke: #db5f57; stroke-opacity: 0.2; stroke-width: 0.8"/>
    </defs>
    <g clip-path="url(#pe9380a8d39)">
     <use xlink:href="#m824f97ae54" x="0" y="576" style="fill: #db5f57; fill-opacity: 0.2; stroke: #db5f57; stroke-opacity: 0.2; stroke-width: 0.8"/>
    </g>
   </g>
   <g id="PolyCollection_2">
    <defs>
     <path id="m32915f3093" d="M 69.554659 -114.802759 
L 69.554659 -83.52 
L 69.554659 -114.802759 
L 69.554659 -114.802759 
z
" style="stroke: #b9db57; stroke-opacity: 0.2; stroke-width: 0.8"/>
    </defs>
    <g clip-path="url(#pe9380a8d39)">
     <use xlink:href="#m32915f3093" x="0" y="576" style="fill: #b9db57; fill-opacity: 0.2; stroke: #b9db57; stroke-opacity: 0.2; stroke-width: 0.8"/>
    </g>
   </g>
   <g id="PolyCollection_3">
    <defs>
     <path id="mbf55faf40b" d="M 69.554659 -149.561379 
L 69.554659 -83.52 
L 69.554659 -149.561379 
L 69.554659 -149.561379 
z
" style="stroke: #57db94; stroke-opacity: 0.2; stroke-width: 0.8"/>
    </defs>
    <g clip-path="url(#pe9380a8d39)">
     <use xlink:href="#mbf55faf40b" x="0" y="576" style="fill: #57db94; fill-opacity: 0.2; stroke: #57db94; stroke-opacity: 0.2; stroke-width: 0.8"/>
    </g>
   </g>
   <g id="PolyCollection_4">
    <defs>
     <path id="m0b56c0fb48" d="M 69.554659 -116.193103 
L 69.554659 -83.52 
L 69.554659 -116.193103 
L 69.554659 -116.193103 
z
" style="stroke: #5784db; stroke-opacity: 0.2; stroke-width: 0.8"/>
    </defs>
    <g clip-path="url(#pe9380a8d39)">
     <use xlink:href="#m0b56c0fb48" x="0" y="576" style="fill: #5784db; fill-opacity: 0.2; stroke: #5784db; stroke-opacity: 0.2; stroke-width: 0.8"/>
    </g>
   </g>
   <g id="PolyCollection_5">
    <defs>
     <path id="m3f9ff3e6ef" d="M 69.554659 -162.769655 
L 69.554659 -83.52 
L 69.554659 -162.769655 
L 69.554659 -162.769655 
z
" style="stroke: #c957db; stroke-opacity: 0.2; stroke-width: 0.8"/>
    </defs>
    <g clip-path="url(#pe9380a8d39)">
     <use xlink:href="#m3f9ff3e6ef" x="0" y="576" style="fill: #c957db; fill-opacity: 0.2; stroke: #c957db; stroke-opacity: 0.2; stroke-width: 0.8"/>
    </g>
   </g>
   <g id="line2d_26">
    <path d="M 69.554659 480.314483 
L 69.767494 462.587586 
L 69.980328 398.631724 
L 70.193163 398.631724 
L 70.405997 393.765517 
L 70.831666 390.289655 
L 71.044501 383.337931 
L 71.257335 380.557241 
L 71.47017 374.30069 
L 71.683004 372.215172 
L 71.895839 361.787586 
L 72.108673 323.553103 
L 72.747177 323.553103 
L 72.960011 292.965517 
L 73.172846 281.147586 
L 73.811349 277.671724 
L 74.237018 276.281379 
L 74.449853 276.281379 
L 74.662687 273.50069 
L 74.875522 273.50069 
L 75.088356 272.110345 
L 75.301191 272.110345 
L 75.514025 271.415172 
L 75.72686 271.415172 
L 75.939694 270.72 
L 76.578198 270.72 
L 76.791032 267.244138 
L 77.003867 267.244138 
L 77.216701 266.548966 
L 77.429536 266.548966 
L 77.64237 265.853793 
L 77.855205 263.768276 
L 78.068039 263.768276 
L 78.706543 260.292414 
L 78.919377 260.292414 
L 79.132212 259.597241 
L 79.345046 259.597241 
L 79.770715 256.121379 
L 79.98355 256.121379 
L 80.196384 255.426207 
L 80.834888 255.426207 
L 81.473391 248.474483 
L 81.686226 248.474483 
L 81.89906 247.77931 
L 82.111895 244.998621 
L 82.324729 244.998621 
L 82.537564 242.913103 
L 82.750398 242.913103 
L 82.963233 240.827586 
L 83.176067 240.827586 
L 83.388902 238.742069 
L 83.601736 238.742069 
L 83.814571 238.046897 
L 84.24024 238.046897 
L 84.453074 237.351724 
L 84.665909 237.351724 
L 84.878743 236.656552 
L 85.091578 236.656552 
L 85.304412 232.485517 
L 86.15575 232.485517 
L 86.368585 231.790345 
L 86.581419 231.790345 
L 87.007088 230.4 
L 87.219923 230.4 
L 87.432757 229.009655 
L 88.071261 229.009655 
L 88.284095 228.314483 
L 88.709764 228.314483 
L 88.922599 227.61931 
L 89.561102 227.61931 
L 89.773937 226.924138 
L 90.838109 226.924138 
L 91.050944 222.753103 
L 91.263778 222.753103 
L 91.476613 222.057931 
L 91.689447 222.057931 
L 91.902282 221.362759 
L 92.115116 221.362759 
L 92.327951 220.667586 
L 92.75362 220.667586 
L 92.966454 219.972414 
L 93.392124 219.972414 
L 93.604958 216.496552 
L 93.817793 216.496552 
L 94.030627 213.02069 
L 94.243462 213.02069 
L 94.456296 211.630345 
L 94.669131 211.630345 
L 94.881965 210.935172 
L 95.0948 209.544828 
L 95.307634 209.544828 
L 95.733303 207.45931 
L 95.946138 201.897931 
L 96.158972 201.897931 
L 96.371807 201.202759 
L 96.584641 201.202759 
L 96.797476 199.812414 
L 97.01031 199.812414 
L 97.223145 199.117241 
L 98.712986 199.117241 
L 98.925821 198.422069 
L 99.35149 198.422069 
L 99.564324 197.031724 
L 99.777159 197.031724 
L 99.989993 192.86069 
L 100.415662 192.86069 
L 100.628497 190.08 
L 100.841331 190.08 
L 101.054166 189.384828 
L 101.692669 189.384828 
L 101.905504 188.689655 
L 102.544007 188.689655 
L 102.969676 186.604138 
L 103.182511 186.604138 
L 103.60818 185.213793 
L 104.672352 185.213793 
L 105.098021 183.823448 
L 105.310856 183.823448 
L 105.52369 183.128276 
L 109.141877 183.128276 
L 109.354711 181.737931 
L 109.567546 181.737931 
L 109.78038 181.042759 
L 111.057387 181.042759 
L 111.270222 180.347586 
L 114.462739 180.347586 
L 114.675574 179.652414 
L 129.999658 179.652414 
L 130.212493 178.957241 
L 131.4895 178.957241 
L 131.702334 178.262069 
L 134.469183 178.262069 
L 134.682017 177.566897 
L 136.384693 177.566897 
L 136.597528 176.871724 
L 137.236031 176.871724 
L 137.448866 176.176552 
L 137.874535 176.176552 
L 138.087369 175.481379 
L 139.151542 175.481379 
L 139.364376 174.786207 
L 143.833901 174.786207 
L 144.046735 174.091034 
L 146.813584 174.091034 
L 147.026418 173.395862 
L 147.239253 173.395862 
L 147.452087 172.70069 
L 149.367598 172.70069 
L 149.580432 172.005517 
L 154.475626 172.005517 
L 154.688461 171.310345 
L 154.901295 171.310345 
L 155.11413 170.615172 
L 156.603971 170.615172 
L 156.816806 169.92 
L 157.455309 169.92 
L 157.668144 169.224828 
L 159.37082 169.224828 
L 159.583654 168.529655 
L 160.222158 168.529655 
L 160.434992 167.834483 
L 160.860661 167.834483 
L 161.28633 166.444138 
L 163.201841 166.444138 
L 163.414675 165.748966 
L 167.458531 165.748966 
L 167.671365 165.053793 
L 171.289552 165.053793 
L 171.502386 164.358621 
L 174.0564 164.358621 
L 174.482069 162.968276 
L 180.015767 162.968276 
L 180.228601 162.273103 
L 182.569781 162.273103 
L 182.782615 161.577931 
L 184.698126 161.577931 
L 184.91096 160.882759 
L 186.400802 160.882759 
L 186.613636 158.102069 
L 187.464974 158.102069 
L 187.677809 157.406897 
L 188.103478 157.406897 
L 188.316312 156.711724 
L 198.958037 156.711724 
L 199.170872 155.321379 
L 199.383706 155.321379 
L 199.809375 153.235862 
L 200.02221 153.235862 
L 200.447879 151.150345 
L 200.873548 151.150345 
L 201.086382 150.455172 
L 201.299217 149.064828 
L 201.512051 149.064828 
L 201.724886 148.369655 
L 201.93772 148.369655 
L 202.363389 146.97931 
L 202.576224 146.97931 
L 202.789058 146.284138 
L 203.001893 146.284138 
L 203.214727 145.588966 
L 205.343072 145.588966 
L 205.768741 144.198621 
L 205.981576 144.198621 
L 206.19441 141.417931 
L 206.407245 141.417931 
L 206.620079 140.722759 
L 207.045748 140.722759 
L 207.258583 140.027586 
L 207.897086 140.027586 
L 208.109921 139.332414 
L 209.174094 139.332414 
L 209.386928 138.637241 
L 209.812597 138.637241 
L 210.025432 137.942069 
L 211.940942 137.942069 
L 212.153777 137.246897 
L 213.430784 137.246897 
L 213.643618 136.551724 
L 216.623301 136.551724 
L 216.836136 135.161379 
L 217.04897 135.161379 
L 217.261805 134.466207 
L 228.967702 134.466207 
L 229.180537 130.990345 
L 250.463987 130.990345 
L 250.676822 130.295172 
L 257.487526 130.295172 
L 257.70036 128.904828 
L 264.085395 128.904828 
L 264.29823 128.209655 
L 270.257596 128.209655 
L 270.470431 127.514483 
L 270.683265 127.514483 
L 270.8961 126.81931 
L 278.345307 126.81931 
L 278.558142 126.124138 
L 280.047983 126.124138 
L 280.260818 125.428966 
L 285.368846 125.428966 
L 285.58168 124.733793 
L 316.229849 124.733793 
L 316.442683 124.038621 
L 318.783863 124.038621 
L 318.996697 123.343448 
L 322.189215 123.343448 
L 322.402049 122.648276 
L 330.064092 122.648276 
L 330.276926 121.953103 
L 343.898334 121.953103 
L 344.111169 121.257931 
L 347.729355 121.257931 
L 347.94219 120.562759 
L 351.134707 120.562759 
L 351.347542 119.867586 
L 354.965729 119.867586 
L 355.178563 119.172414 
L 363.05344 119.172414 
L 363.266274 118.477241 
L 370.928316 118.477241 
L 371.141151 115.001379 
L 374.546503 115.001379 
L 374.759337 114.306207 
L 375.397841 114.306207 
L 375.397841 114.306207 
" clip-path="url(#pe9380a8d39)" style="fill: none; stroke: #db5f57; stroke-width: 1.2; stroke-linecap: round"/>
   </g>
   <g id="line2d_27">
    <path d="M 69.554659 476.838621 
L 69.767494 458.416552 
L 69.980328 453.550345 
L 70.193163 438.951724 
L 70.405997 432 
L 70.831666 412.535172 
L 71.257335 406.973793 
L 71.683004 392.375172 
L 72.108673 382.642759 
L 72.321508 365.958621 
L 72.534342 361.092414 
L 73.598515 313.125517 
L 73.811349 270.024828 
L 74.024184 270.024828 
L 74.237018 269.329655 
L 74.662687 269.329655 
L 74.875522 268.634483 
L 75.939694 268.634483 
L 76.152529 263.073103 
L 76.365363 262.377931 
L 76.791032 260.292414 
L 77.003867 260.292414 
L 77.216701 259.597241 
L 77.429536 259.597241 
L 77.64237 257.511724 
L 77.855205 257.511724 
L 78.493708 253.34069 
L 78.706543 253.34069 
L 79.132212 251.950345 
L 79.557881 251.950345 
L 79.770715 249.864828 
L 80.409219 249.864828 
L 80.834888 248.474483 
L 81.473391 248.474483 
L 81.686226 242.913103 
L 82.111895 242.913103 
L 82.324729 242.217931 
L 82.537564 238.046897 
L 82.750398 237.351724 
L 83.176067 237.351724 
L 83.388902 236.656552 
L 83.601736 233.875862 
L 84.453074 233.875862 
L 84.665909 232.485517 
L 84.878743 232.485517 
L 85.091578 231.790345 
L 85.730081 231.790345 
L 85.942916 229.009655 
L 86.15575 229.009655 
L 86.368585 228.314483 
L 86.581419 228.314483 
L 87.219923 226.228966 
L 87.858426 226.228966 
L 88.071261 225.533793 
L 89.135433 225.533793 
L 89.348268 224.838621 
L 90.41244 224.838621 
L 90.625275 224.143448 
L 90.838109 220.667586 
L 91.050944 219.972414 
L 91.689447 219.972414 
L 91.902282 218.582069 
L 92.75362 218.582069 
L 92.966454 217.886897 
L 93.392124 217.886897 
L 93.604958 217.191724 
L 93.817793 217.191724 
L 94.030627 215.801379 
L 94.243462 215.801379 
L 94.456296 211.630345 
L 94.669131 210.935172 
L 94.881965 210.935172 
L 95.0948 210.24 
L 95.520469 210.24 
L 95.733303 209.544828 
L 95.946138 209.544828 
L 96.158972 201.202759 
L 96.371807 199.812414 
L 97.223145 199.812414 
L 97.435979 198.422069 
L 98.712986 198.422069 
L 98.925821 197.726897 
L 99.35149 197.726897 
L 99.564324 197.031724 
L 100.841331 197.031724 
L 101.054166 196.336552 
L 102.331173 196.336552 
L 102.544007 195.641379 
L 103.182511 195.641379 
L 103.395345 183.823448 
L 108.503373 183.823448 
L 108.716208 181.737931 
L 109.141877 181.737931 
L 109.354711 180.347586 
L 109.567546 180.347586 
L 109.78038 179.652414 
L 375.397841 179.652414 
L 375.397841 179.652414 
" clip-path="url(#pe9380a8d39)" style="fill: none; stroke: #b9db57; stroke-width: 1.2; stroke-linecap: round"/>
   </g>
   <g id="line2d_28">
    <path d="M 69.554659 459.45931 
L 69.767494 401.412414 
L 70.618832 372.910345 
L 71.47017 366.653793 
L 71.683004 360.397241 
L 71.895839 359.702069 
L 72.108673 356.226207 
L 72.321508 354.835862 
L 72.534342 354.835862 
L 72.747177 345.798621 
L 72.960011 345.103448 
L 73.172846 343.713103 
L 73.38568 343.713103 
L 73.598515 343.017931 
L 74.024184 340.932414 
L 74.237018 340.237241 
L 74.449853 338.151724 
L 74.662687 338.151724 
L 74.875522 337.456552 
L 78.706543 337.456552 
L 78.919377 335.371034 
L 79.345046 333.98069 
L 80.409219 323.553103 
L 80.622053 322.857931 
L 80.834888 290.184828 
L 81.047722 233.18069 
L 81.260557 227.61931 
L 81.473391 227.61931 
L 81.686226 226.924138 
L 81.89906 226.924138 
L 82.111895 223.448276 
L 82.537564 222.057931 
L 82.750398 220.667586 
L 82.963233 220.667586 
L 83.176067 219.972414 
L 83.601736 219.972414 
L 83.814571 219.277241 
L 84.665909 219.277241 
L 84.878743 215.106207 
L 85.091578 214.411034 
L 87.219923 214.411034 
L 87.432757 212.325517 
L 89.348268 212.325517 
L 89.561102 211.630345 
L 98.074483 211.630345 
L 98.287317 209.544828 
L 100.628497 209.544828 
L 100.841331 208.154483 
L 117.442422 208.154483 
L 117.655257 157.406897 
L 138.300204 157.406897 
L 138.513038 153.931034 
L 148.729094 153.931034 
L 148.941929 151.845517 
L 158.732316 151.845517 
L 158.945151 149.76 
L 168.948372 149.76 
L 169.161207 144.198621 
L 182.356946 144.198621 
L 182.569781 140.722759 
L 183.846788 140.722759 
L 184.059622 140.027586 
L 196.191189 140.027586 
L 196.404023 135.161379 
L 209.386928 135.161379 
L 209.599763 117.782069 
L 220.241488 117.782069 
L 220.454322 112.22069 
L 233.862896 112.22069 
L 234.07573 108.744828 
L 261.105712 108.744828 
L 261.318547 106.65931 
L 271.960272 106.65931 
L 272.173107 104.573793 
L 285.58168 104.573793 
L 285.794515 101.793103 
L 324.956064 101.793103 
L 325.168898 99.707586 
L 352.411715 99.707586 
L 352.624549 97.622069 
L 366.033123 97.622069 
L 366.245957 93.451034 
L 368.587137 93.451034 
L 368.799971 92.755862 
L 375.397841 92.755862 
L 375.397841 92.755862 
" clip-path="url(#pe9380a8d39)" style="fill: none; stroke: #57db94; stroke-width: 1.2; stroke-linecap: round"/>
   </g>
   <g id="line2d_29">
    <path d="M 69.554659 476.143448 
L 69.767494 448.684138 
L 69.980328 436.171034 
L 70.193163 434.78069 
L 70.618832 408.364138 
L 70.831666 400.022069 
L 71.044501 330.504828 
L 71.257335 326.333793 
L 71.47017 324.943448 
L 71.895839 318.686897 
L 72.108673 318.686897 
L 72.321508 308.954483 
L 72.534342 308.954483 
L 72.747177 301.307586 
L 72.960011 284.623448 
L 73.172846 276.976552 
L 73.38568 274.891034 
L 73.598515 274.195862 
L 74.024184 272.110345 
L 74.237018 272.110345 
L 74.449853 267.93931 
L 74.662687 267.93931 
L 74.875522 264.463448 
L 75.514025 262.377931 
L 76.365363 262.377931 
L 76.578198 258.902069 
L 76.791032 258.206897 
L 77.216701 258.206897 
L 77.429536 257.511724 
L 77.64237 257.511724 
L 77.855205 255.426207 
L 78.068039 255.426207 
L 78.280874 254.035862 
L 78.493708 254.035862 
L 78.706543 252.645517 
L 78.919377 252.645517 
L 79.132212 251.255172 
L 79.345046 251.255172 
L 79.557881 250.56 
L 79.770715 248.474483 
L 79.98355 247.77931 
L 80.196384 247.77931 
L 81.047722 244.998621 
L 81.260557 240.132414 
L 81.473391 239.437241 
L 81.686226 239.437241 
L 81.89906 238.742069 
L 82.111895 235.961379 
L 82.324729 235.266207 
L 82.963233 231.790345 
L 83.388902 230.4 
L 83.601736 229.009655 
L 84.453074 229.009655 
L 84.665909 228.314483 
L 84.878743 226.228966 
L 85.091578 226.228966 
L 85.304412 224.143448 
L 85.942916 224.143448 
L 86.15575 223.448276 
L 86.368585 223.448276 
L 86.581419 222.753103 
L 86.794254 222.753103 
L 87.219923 221.362759 
L 87.432757 221.362759 
L 87.645592 220.667586 
L 88.709764 220.667586 
L 88.922599 219.972414 
L 90.625275 219.972414 
L 90.838109 217.191724 
L 91.050944 217.191724 
L 91.263778 215.801379 
L 91.902282 215.801379 
L 92.115116 214.411034 
L 92.966454 214.411034 
L 93.392124 210.24 
L 94.243462 205.373793 
L 94.669131 203.983448 
L 94.881965 202.593103 
L 95.0948 202.593103 
L 95.520469 199.812414 
L 95.733303 199.812414 
L 95.946138 194.251034 
L 96.158972 194.251034 
L 96.371807 193.555862 
L 96.797476 193.555862 
L 97.01031 192.165517 
L 98.074483 192.165517 
L 98.287317 191.470345 
L 98.712986 191.470345 
L 99.138655 188.689655 
L 99.35149 188.689655 
L 99.564324 187.29931 
L 99.777159 183.823448 
L 99.989993 183.128276 
L 100.202828 183.128276 
L 100.415662 182.433103 
L 101.479835 182.433103 
L 101.692669 181.737931 
L 102.331173 181.737931 
L 102.756842 179.652414 
L 103.182511 179.652414 
L 103.395345 178.957241 
L 104.246683 178.957241 
L 104.459518 178.262069 
L 104.672352 178.262069 
L 104.885187 177.566897 
L 105.098021 177.566897 
L 105.310856 176.871724 
L 109.567546 176.871724 
L 109.78038 174.786207 
L 110.844553 174.786207 
L 111.057387 174.091034 
L 114.675574 174.091034 
L 114.888408 173.395862 
L 129.786824 173.395862 
L 129.999658 172.70069 
L 133.617845 172.70069 
L 133.830679 172.005517 
L 134.469183 172.005517 
L 134.682017 171.310345 
L 136.597528 171.310345 
L 137.023197 169.92 
L 137.448866 169.92 
L 137.6617 169.224828 
L 138.938707 169.224828 
L 139.151542 168.529655 
L 143.621066 168.529655 
L 143.833901 167.834483 
L 149.367598 167.834483 
L 149.580432 167.13931 
L 154.475626 167.13931 
L 154.688461 166.444138 
L 157.880978 166.444138 
L 158.093813 165.748966 
L 158.945151 165.748966 
L 159.157985 165.053793 
L 160.434992 165.053793 
L 160.860661 163.663448 
L 161.073496 162.273103 
L 161.499165 162.273103 
L 161.711999 161.577931 
L 163.201841 161.577931 
L 163.414675 160.882759 
L 167.458531 160.882759 
L 167.671365 160.187586 
L 170.438214 160.187586 
L 170.651048 159.492414 
L 171.289552 159.492414 
L 171.502386 158.797241 
L 174.0564 158.797241 
L 174.269235 158.102069 
L 174.482069 158.102069 
L 174.694904 157.406897 
L 180.015767 157.406897 
L 180.228601 156.711724 
L 182.569781 156.711724 
L 182.782615 155.321379 
L 183.846788 155.321379 
L 184.059622 154.626207 
L 185.762298 154.626207 
L 185.975133 153.931034 
L 186.187967 153.931034 
L 186.400802 152.54069 
L 187.464974 152.54069 
L 187.677809 151.845517 
L 197.893865 151.845517 
L 198.319534 150.455172 
L 200.02221 150.455172 
L 200.235044 146.97931 
L 200.660713 146.97931 
L 200.873548 144.893793 
L 201.086382 144.893793 
L 201.299217 144.198621 
L 201.724886 144.198621 
L 201.93772 143.503448 
L 202.150555 143.503448 
L 202.789058 141.417931 
L 203.001893 141.417931 
L 203.214727 140.722759 
L 205.130238 140.722759 
L 205.343072 140.027586 
L 205.555907 137.942069 
L 205.768741 137.942069 
L 205.981576 137.246897 
L 206.19441 135.856552 
L 206.620079 135.856552 
L 206.832914 135.161379 
L 207.045748 135.161379 
L 207.258583 134.466207 
L 209.386928 134.466207 
L 209.599763 133.771034 
L 209.812597 133.771034 
L 210.025432 133.075862 
L 211.728108 133.075862 
L 211.940942 132.38069 
L 212.579446 132.38069 
L 212.79228 131.685517 
L 213.217949 131.685517 
L 213.430784 130.990345 
L 215.984798 130.990345 
L 216.197632 129.6 
L 221.30566 129.6 
L 221.518495 128.904828 
L 227.265026 128.904828 
L 227.477861 127.514483 
L 227.90353 127.514483 
L 228.329199 126.124138 
L 228.754868 126.124138 
L 228.967702 125.428966 
L 250.038318 125.428966 
L 250.463987 124.038621 
L 257.274691 124.038621 
L 257.487526 122.648276 
L 263.021223 122.648276 
L 263.234057 121.953103 
L 264.085395 121.953103 
L 264.29823 121.257931 
L 270.257596 121.257931 
L 270.470431 120.562759 
L 271.321769 120.562759 
L 271.534603 119.867586 
L 272.598776 119.867586 
L 272.81161 119.172414 
L 278.345307 119.172414 
L 278.558142 118.477241 
L 280.047983 118.477241 
L 280.260818 117.782069 
L 285.368846 117.782069 
L 285.58168 117.086897 
L 316.229849 117.086897 
L 316.442683 116.391724 
L 319.209532 116.391724 
L 319.635201 115.001379 
L 322.189215 115.001379 
L 322.402049 114.306207 
L 344.111169 114.306207 
L 344.324003 113.611034 
L 347.729355 113.611034 
L 347.94219 112.915862 
L 350.496204 112.915862 
L 350.709038 112.22069 
L 354.965729 112.22069 
L 355.178563 111.525517 
L 363.691943 111.525517 
L 363.904778 110.830345 
L 364.330447 108.744828 
L 364.543281 108.049655 
L 368.587137 108.049655 
L 369.012806 106.65931 
L 373.907999 106.65931 
L 374.120834 105.964138 
L 375.397841 105.964138 
L 375.397841 105.964138 
" clip-path="url(#pe9380a8d39)" style="fill: none; stroke: #5784db; stroke-width: 1.2; stroke-linecap: round"/>
   </g>
   <g id="line2d_30">
    <path d="M 69.554659 452.855172 
L 69.767494 383.337931 
L 70.193163 363.873103 
L 70.618832 327.724138 
L 71.044501 317.991724 
L 71.257335 316.601379 
L 72.108673 302.002759 
L 72.321508 292.965517 
L 72.534342 289.489655 
L 72.960011 268.634483 
L 73.172846 261.682759 
L 73.38568 260.987586 
L 73.598515 260.987586 
L 74.237018 257.511724 
L 74.449853 254.035862 
L 74.662687 254.035862 
L 74.875522 251.255172 
L 75.088356 251.255172 
L 75.514025 249.864828 
L 76.152529 249.864828 
L 76.365363 249.169655 
L 76.578198 246.388966 
L 76.791032 245.693793 
L 77.003867 245.693793 
L 77.216701 244.998621 
L 77.429536 244.998621 
L 77.64237 242.913103 
L 77.855205 242.913103 
L 78.068039 241.522759 
L 78.280874 241.522759 
L 78.493708 239.437241 
L 78.706543 239.437241 
L 79.345046 237.351724 
L 79.770715 234.571034 
L 80.196384 234.571034 
L 80.622053 233.18069 
L 81.047722 231.095172 
L 81.260557 225.533793 
L 81.473391 225.533793 
L 81.686226 224.838621 
L 81.89906 224.838621 
L 82.111895 221.362759 
L 82.324729 220.667586 
L 83.176067 215.801379 
L 83.601736 214.411034 
L 84.453074 214.411034 
L 84.665909 213.715862 
L 84.878743 209.544828 
L 85.091578 208.154483 
L 85.942916 208.154483 
L 86.368585 206.764138 
L 86.581419 206.764138 
L 87.007088 205.373793 
L 87.219923 205.373793 
L 87.432757 203.983448 
L 88.709764 203.983448 
L 88.922599 203.288276 
L 89.348268 203.288276 
L 89.561102 202.593103 
L 90.41244 202.593103 
L 90.625275 201.897931 
L 90.838109 198.422069 
L 91.689447 198.422069 
L 91.902282 197.031724 
L 92.75362 197.031724 
L 92.966454 196.336552 
L 93.392124 192.86069 
L 94.243462 187.994483 
L 95.307634 184.518621 
L 95.733303 182.433103 
L 95.946138 177.566897 
L 96.158972 177.566897 
L 96.371807 176.176552 
L 96.797476 176.176552 
L 97.01031 175.481379 
L 98.074483 175.481379 
L 98.287317 174.786207 
L 98.712986 174.786207 
L 99.138655 172.005517 
L 99.35149 172.005517 
L 99.989993 166.444138 
L 100.841331 166.444138 
L 101.054166 165.748966 
L 101.479835 165.748966 
L 101.692669 165.053793 
L 102.331173 165.053793 
L 102.756842 162.968276 
L 103.182511 162.968276 
L 103.395345 161.577931 
L 104.246683 161.577931 
L 104.459518 160.882759 
L 104.672352 160.882759 
L 104.885187 160.187586 
L 105.098021 160.187586 
L 105.310856 159.492414 
L 109.141877 159.492414 
L 109.354711 158.102069 
L 109.567546 158.102069 
L 109.78038 157.406897 
L 110.844553 157.406897 
L 111.057387 156.711724 
L 114.462739 156.711724 
L 114.675574 156.016552 
L 129.786824 156.016552 
L 129.999658 155.321379 
L 131.4895 155.321379 
L 131.702334 154.626207 
L 133.617845 154.626207 
L 133.830679 153.931034 
L 136.384693 153.931034 
L 136.810362 152.54069 
L 137.448866 152.54069 
L 137.6617 151.845517 
L 138.938707 151.845517 
L 139.151542 151.150345 
L 143.621066 151.150345 
L 143.833901 150.455172 
L 149.367598 150.455172 
L 149.580432 149.76 
L 154.475626 149.76 
L 154.688461 149.064828 
L 157.455309 149.064828 
L 157.668144 148.369655 
L 158.945151 148.369655 
L 159.157985 147.674483 
L 160.222158 147.674483 
L 160.434992 146.97931 
L 160.860661 146.97931 
L 161.073496 145.588966 
L 161.499165 145.588966 
L 161.711999 144.893793 
L 163.201841 144.893793 
L 163.414675 144.198621 
L 167.458531 144.198621 
L 167.671365 143.503448 
L 170.438214 143.503448 
L 170.651048 142.808276 
L 171.289552 142.808276 
L 171.502386 142.113103 
L 174.0564 142.113103 
L 174.482069 140.722759 
L 180.015767 140.722759 
L 180.228601 140.027586 
L 182.569781 140.027586 
L 182.782615 138.637241 
L 183.846788 138.637241 
L 184.059622 137.942069 
L 185.762298 137.942069 
L 185.975133 137.246897 
L 186.187967 137.246897 
L 186.400802 135.856552 
L 187.464974 135.856552 
L 187.677809 134.466207 
L 197.893865 134.466207 
L 198.319534 133.075862 
L 199.383706 133.075862 
L 199.809375 130.990345 
L 200.02221 130.990345 
L 200.235044 128.904828 
L 200.660713 128.904828 
L 201.086382 126.81931 
L 201.512051 126.81931 
L 201.724886 126.124138 
L 201.93772 126.124138 
L 202.363389 124.733793 
L 202.576224 124.733793 
L 202.789058 123.343448 
L 205.130238 123.343448 
L 205.343072 122.648276 
L 205.555907 120.562759 
L 206.19441 118.477241 
L 206.620079 118.477241 
L 206.832914 117.782069 
L 207.045748 117.782069 
L 207.258583 117.086897 
L 209.386928 117.086897 
L 209.599763 116.391724 
L 209.812597 116.391724 
L 210.025432 115.696552 
L 211.728108 115.696552 
L 211.940942 115.001379 
L 212.579446 115.001379 
L 212.79228 114.306207 
L 213.217949 114.306207 
L 213.430784 113.611034 
L 215.984798 113.611034 
L 216.197632 112.22069 
L 217.04897 112.22069 
L 217.261805 111.525517 
L 227.265026 111.525517 
L 227.477861 110.135172 
L 227.90353 110.135172 
L 228.329199 108.744828 
L 228.754868 108.744828 
L 228.967702 108.049655 
L 250.038318 108.049655 
L 250.463987 106.65931 
L 257.274691 106.65931 
L 257.487526 105.268966 
L 263.021223 105.268966 
L 263.234057 104.573793 
L 264.085395 104.573793 
L 264.29823 103.878621 
L 270.257596 103.878621 
L 270.470431 103.183448 
L 270.683265 103.183448 
L 270.8961 102.488276 
L 272.173107 102.488276 
L 272.385941 101.793103 
L 278.345307 101.793103 
L 278.558142 101.097931 
L 280.047983 101.097931 
L 280.260818 100.402759 
L 285.368846 100.402759 
L 285.58168 99.707586 
L 316.229849 99.707586 
L 316.442683 99.012414 
L 318.783863 99.012414 
L 318.996697 98.317241 
L 322.189215 98.317241 
L 322.402049 97.622069 
L 343.898334 97.622069 
L 344.111169 96.926897 
L 347.729355 96.926897 
L 347.94219 96.231724 
L 350.496204 96.231724 
L 350.709038 95.536552 
L 354.965729 95.536552 
L 355.178563 94.841379 
L 363.05344 94.841379 
L 363.266274 94.146207 
L 363.691943 94.146207 
L 364.543281 91.365517 
L 368.587137 91.365517 
L 369.012806 89.975172 
L 373.907999 89.975172 
L 374.120834 89.28 
L 375.397841 89.28 
L 375.397841 89.28 
" clip-path="url(#pe9380a8d39)" style="fill: none; stroke: #c957db; stroke-width: 1.2; stroke-linecap: round"/>
   </g>
   <g id="line2d_31"/>
   <g id="line2d_32"/>
   <g id="line2d_33"/>
   <g id="line2d_34"/>
   <g id="line2d_35"/>
   <g id="patch_3">
    <path d="M 54.2625 512.64 
L 54.2625 69.12 
" style="fill: none; stroke: #cccccc; stroke-linejoin: miter; stroke-linecap: square"/>
   </g>
   <g id="patch_4">
    <path d="M 54.2625 512.64 
L 390.69 512.64 
" style="fill: none; stroke: #cccccc; stroke-linejoin: miter; stroke-linecap: square"/>
   </g>
   <g id="text_28">
    <!-- Edge Coverage History -->
    <g style="fill: #262626" transform="translate(115.584762 63.12)scale(0.165888 -0.165888)">
     <defs>
      <path id="DejaVuSans-Bold-45" d="M 588 4666 
L 3834 4666 
L 3834 3756 
L 1791 3756 
L 1791 2888 
L 3713 2888 
L 3713 1978 
L 1791 1978 
L 1791 909 
L 3903 909 
L 3903 0 
L 588 0 
L 588 4666 
z
" transform="scale(0.015625)"/>
      <path id="DejaVuSans-Bold-64" d="M 2919 2988 
L 2919 4863 
L 4044 4863 
L 4044 0 
L 2919 0 
L 2919 506 
Q 2688 197 2409 53 
Q 2131 -91 1766 -91 
Q 1119 -91 703 423 
Q 288 938 288 1747 
Q 288 2556 703 3070 
Q 1119 3584 1766 3584 
Q 2128 3584 2408 3439 
Q 2688 3294 2919 2988 
z
M 2181 722 
Q 2541 722 2730 984 
Q 2919 1247 2919 1747 
Q 2919 2247 2730 2509 
Q 2541 2772 2181 2772 
Q 1825 2772 1636 2509 
Q 1447 2247 1447 1747 
Q 1447 1247 1636 984 
Q 1825 722 2181 722 
z
" transform="scale(0.015625)"/>
      <path id="DejaVuSans-Bold-67" d="M 2919 594 
Q 2688 288 2409 144 
Q 2131 0 1766 0 
Q 1125 0 706 504 
Q 288 1009 288 1791 
Q 288 2575 706 3076 
Q 1125 3578 1766 3578 
Q 2131 3578 2409 3434 
Q 2688 3291 2919 2981 
L 2919 3500 
L 4044 3500 
L 4044 353 
Q 4044 -491 3511 -936 
Q 2978 -1381 1966 -1381 
Q 1638 -1381 1331 -1331 
Q 1025 -1281 716 -1178 
L 716 -306 
Q 1009 -475 1290 -558 
Q 1572 -641 1856 -641 
Q 2406 -641 2662 -400 
Q 2919 -159 2919 353 
L 2919 594 
z
M 2181 2772 
Q 1834 2772 1640 2515 
Q 1447 2259 1447 1791 
Q 1447 1309 1634 1061 
Q 1822 813 2181 813 
Q 2531 813 2725 1069 
Q 2919 1325 2919 1791 
Q 2919 2259 2725 2515 
Q 2531 2772 2181 2772 
z
" transform="scale(0.015625)"/>
      <path id="DejaVuSans-Bold-65" d="M 4031 1759 
L 4031 1441 
L 1416 1441 
Q 1456 1047 1700 850 
Q 1944 653 2381 653 
Q 2734 653 3104 758 
Q 3475 863 3866 1075 
L 3866 213 
Q 3469 63 3072 -14 
Q 2675 -91 2278 -91 
Q 1328 -91 801 392 
Q 275 875 275 1747 
Q 275 2603 792 3093 
Q 1309 3584 2216 3584 
Q 3041 3584 3536 3087 
Q 4031 2591 4031 1759 
z
M 2881 2131 
Q 2881 2450 2695 2645 
Q 2509 2841 2209 2841 
Q 1884 2841 1681 2658 
Q 1478 2475 1428 2131 
L 2881 2131 
z
" transform="scale(0.015625)"/>
      <path id="DejaVuSans-Bold-20" transform="scale(0.015625)"/>
      <path id="DejaVuSans-Bold-43" d="M 4288 256 
Q 3956 84 3597 -3 
Q 3238 -91 2847 -91 
Q 1681 -91 1000 561 
Q 319 1213 319 2328 
Q 319 3447 1000 4098 
Q 1681 4750 2847 4750 
Q 3238 4750 3597 4662 
Q 3956 4575 4288 4403 
L 4288 3438 
Q 3953 3666 3628 3772 
Q 3303 3878 2944 3878 
Q 2300 3878 1931 3465 
Q 1563 3053 1563 2328 
Q 1563 1606 1931 1193 
Q 2300 781 2944 781 
Q 3303 781 3628 887 
Q 3953 994 4288 1222 
L 4288 256 
z
" transform="scale(0.015625)"/>
      <path id="DejaVuSans-Bold-6f" d="M 2203 2784 
Q 1831 2784 1636 2517 
Q 1441 2250 1441 1747 
Q 1441 1244 1636 976 
Q 1831 709 2203 709 
Q 2569 709 2762 976 
Q 2956 1244 2956 1747 
Q 2956 2250 2762 2517 
Q 2569 2784 2203 2784 
z
M 2203 3584 
Q 3106 3584 3614 3096 
Q 4122 2609 4122 1747 
Q 4122 884 3614 396 
Q 3106 -91 2203 -91 
Q 1297 -91 786 396 
Q 275 884 275 1747 
Q 275 2609 786 3096 
Q 1297 3584 2203 3584 
z
" transform="scale(0.015625)"/>
      <path id="DejaVuSans-Bold-76" d="M 97 3500 
L 1216 3500 
L 2088 1081 
L 2956 3500 
L 4078 3500 
L 2700 0 
L 1472 0 
L 97 3500 
z
" transform="scale(0.015625)"/>
      <path id="DejaVuSans-Bold-72" d="M 3138 2547 
Q 2991 2616 2845 2648 
Q 2700 2681 2553 2681 
Q 2122 2681 1889 2404 
Q 1656 2128 1656 1613 
L 1656 0 
L 538 0 
L 538 3500 
L 1656 3500 
L 1656 2925 
Q 1872 3269 2151 3426 
Q 2431 3584 2822 3584 
Q 2878 3584 2943 3579 
Q 3009 3575 3134 3559 
L 3138 2547 
z
" transform="scale(0.015625)"/>
      <path id="DejaVuSans-Bold-61" d="M 2106 1575 
Q 1756 1575 1579 1456 
Q 1403 1338 1403 1106 
Q 1403 894 1545 773 
Q 1688 653 1941 653 
Q 2256 653 2472 879 
Q 2688 1106 2688 1447 
L 2688 1575 
L 2106 1575 
z
M 3816 1997 
L 3816 0 
L 2688 0 
L 2688 519 
Q 2463 200 2181 54 
Q 1900 -91 1497 -91 
Q 953 -91 614 226 
Q 275 544 275 1050 
Q 275 1666 698 1953 
Q 1122 2241 2028 2241 
L 2688 2241 
L 2688 2328 
Q 2688 2594 2478 2717 
Q 2269 2841 1825 2841 
Q 1466 2841 1156 2769 
Q 847 2697 581 2553 
L 581 3406 
Q 941 3494 1303 3539 
Q 1666 3584 2028 3584 
Q 2975 3584 3395 3211 
Q 3816 2838 3816 1997 
z
" transform="scale(0.015625)"/>
      <path id="DejaVuSans-Bold-48" d="M 588 4666 
L 1791 4666 
L 1791 2888 
L 3566 2888 
L 3566 4666 
L 4769 4666 
L 4769 0 
L 3566 0 
L 3566 1978 
L 1791 1978 
L 1791 0 
L 588 0 
L 588 4666 
z
" transform="scale(0.015625)"/>
      <path id="DejaVuSans-Bold-69" d="M 538 3500 
L 1656 3500 
L 1656 0 
L 538 0 
L 538 3500 
z
M 538 4863 
L 1656 4863 
L 1656 3950 
L 538 3950 
L 538 4863 
z
" transform="scale(0.015625)"/>
      <path id="DejaVuSans-Bold-73" d="M 3272 3391 
L 3272 2541 
Q 2913 2691 2578 2766 
Q 2244 2841 1947 2841 
Q 1628 2841 1473 2761 
Q 1319 2681 1319 2516 
Q 1319 2381 1436 2309 
Q 1553 2238 1856 2203 
L 2053 2175 
Q 2913 2066 3209 1816 
Q 3506 1566 3506 1031 
Q 3506 472 3093 190 
Q 2681 -91 1863 -91 
Q 1516 -91 1145 -36 
Q 775 19 384 128 
L 384 978 
Q 719 816 1070 734 
Q 1422 653 1784 653 
Q 2113 653 2278 743 
Q 2444 834 2444 1013 
Q 2444 1163 2330 1236 
Q 2216 1309 1875 1350 
L 1678 1375 
Q 931 1469 631 1722 
Q 331 1975 331 2491 
Q 331 3047 712 3315 
Q 1094 3584 1881 3584 
Q 2191 3584 2531 3537 
Q 2872 3491 3272 3391 
z
" transform="scale(0.015625)"/>
      <path id="DejaVuSans-Bold-74" d="M 1759 4494 
L 1759 3500 
L 2913 3500 
L 2913 2700 
L 1759 2700 
L 1759 1216 
Q 1759 972 1856 886 
Q 1953 800 2241 800 
L 2816 800 
L 2816 0 
L 1856 0 
Q 1194 0 917 276 
Q 641 553 641 1216 
L 641 2700 
L 84 2700 
L 84 3500 
L 641 3500 
L 641 4494 
L 1759 4494 
z
" transform="scale(0.015625)"/>
      <path id="DejaVuSans-Bold-79" d="M 78 3500 
L 1197 3500 
L 2138 1125 
L 2938 3500 
L 4056 3500 
L 2584 -331 
Q 2363 -916 2067 -1148 
Q 1772 -1381 1288 -1381 
L 641 -1381 
L 641 -647 
L 991 -647 
Q 1275 -647 1404 -556 
Q 1534 -466 1606 -231 
L 1638 -134 
L 78 3500 
z
" transform="scale(0.015625)"/>
     </defs>
     <use xlink:href="#DejaVuSans-Bold-45"/>
     <use xlink:href="#DejaVuSans-Bold-64" x="68.310547"/>
     <use xlink:href="#DejaVuSans-Bold-67" x="139.892578"/>
     <use xlink:href="#DejaVuSans-Bold-65" x="211.474609"/>
     <use xlink:href="#DejaVuSans-Bold-20" x="279.296875"/>
     <use xlink:href="#DejaVuSans-Bold-43" x="314.111328"/>
     <use xlink:href="#DejaVuSans-Bold-6f" x="387.5"/>
     <use xlink:href="#DejaVuSans-Bold-76" x="456.201172"/>
     <use xlink:href="#DejaVuSans-Bold-65" x="521.386719"/>
     <use xlink:href="#DejaVuSans-Bold-72" x="589.208984"/>
     <use xlink:href="#DejaVuSans-Bold-61" x="638.525391"/>
     <use xlink:href="#DejaVuSans-Bold-67" x="706.005859"/>
     <use xlink:href="#DejaVuSans-Bold-65" x="777.587891"/>
     <use xlink:href="#DejaVuSans-Bold-20" x="845.410156"/>
     <use xlink:href="#DejaVuSans-Bold-48" x="880.224609"/>
     <use xlink:href="#DejaVuSans-Bold-69" x="963.916016"/>
     <use xlink:href="#DejaVuSans-Bold-73" x="998.193359"/>
     <use xlink:href="#DejaVuSans-Bold-74" x="1057.714844"/>
     <use xlink:href="#DejaVuSans-Bold-6f" x="1105.517578"/>
     <use xlink:href="#DejaVuSans-Bold-72" x="1174.21875"/>
     <use xlink:href="#DejaVuSans-Bold-79" x="1223.535156"/>
    </g>
   </g>
   <g id="legend_1">
    <g id="patch_5">
     <path d="M 273.001 508.24 
L 384.53 508.24 
Q 386.29 508.24 386.29 506.48 
L 386.29 428.8405 
Q 386.29 427.0805 384.53 427.0805 
L 273.001 427.0805 
Q 271.241 427.0805 271.241 428.8405 
L 271.241 506.48 
Q 271.241 508.24 273.001 508.24 
z
" style="fill: #ffffff; opacity: 0.8; stroke: #cccccc; stroke-width: 0.8; stroke-linejoin: miter"/>
    </g>
    <g id="text_29">
     <!-- fuzzer -->
     <g style="fill: #262626" transform="translate(314.0685 437.895)scale(0.096 -0.096)">
      <defs>
       <path id="DejaVuSans-66" d="M 2375 4863 
L 2375 4384 
L 1825 4384 
Q 1516 4384 1395 4259 
Q 1275 4134 1275 3809 
L 1275 3500 
L 2222 3500 
L 2222 3053 
L 1275 3053 
L 1275 0 
L 697 0 
L 697 3053 
L 147 3053 
L 147 3500 
L 697 3500 
L 697 3744 
Q 697 4328 969 4595 
Q 1241 4863 1831 4863 
L 2375 4863 
z
" transform="scale(0.015625)"/>
       <path id="DejaVuSans-7a" d="M 353 3500 
L 3084 3500 
L 3084 2975 
L 922 459 
L 3084 459 
L 3084 0 
L 275 0 
L 275 525 
L 2438 3041 
L 353 3041 
L 353 3500 
z
" transform="scale(0.015625)"/>
      </defs>
      <use xlink:href="#DejaVuSans-66"/>
      <use xlink:href="#DejaVuSans-75" x="35.205078"/>
      <use xlink:href="#DejaVuSans-7a" x="98.583984"/>
      <use xlink:href="#DejaVuSans-7a" x="151.074219"/>
      <use xlink:href="#DejaVuSans-65" x="203.564453"/>
      <use xlink:href="#DejaVuSans-72" x="265.087891"/>
     </g>
    </g>
    <g id="line2d_36">
     <path d="M 274.761 447.898125 
L 283.561 447.898125 
L 292.361 447.898125 
" style="fill: none; stroke: #db5f57; stroke-width: 1.2; stroke-linecap: round"/>
    </g>
    <g id="text_30">
     <!-- mopt-0-exid2 -->
     <g style="fill: #262626" transform="translate(299.401 450.978125)scale(0.088 -0.088)">
      <defs>
       <path id="DejaVuSans-70" d="M 1159 525 
L 1159 -1331 
L 581 -1331 
L 581 3500 
L 1159 3500 
L 1159 2969 
Q 1341 3281 1617 3432 
Q 1894 3584 2278 3584 
Q 2916 3584 3314 3078 
Q 3713 2572 3713 1747 
Q 3713 922 3314 415 
Q 2916 -91 2278 -91 
Q 1894 -91 1617 61 
Q 1341 213 1159 525 
z
M 3116 1747 
Q 3116 2381 2855 2742 
Q 2594 3103 2138 3103 
Q 1681 3103 1420 2742 
Q 1159 2381 1159 1747 
Q 1159 1113 1420 752 
Q 1681 391 2138 391 
Q 2594 391 2855 752 
Q 3116 1113 3116 1747 
z
" transform="scale(0.015625)"/>
       <path id="DejaVuSans-2d" d="M 313 2009 
L 1997 2009 
L 1997 1497 
L 313 1497 
L 313 2009 
z
" transform="scale(0.015625)"/>
       <path id="DejaVuSans-78" d="M 3513 3500 
L 2247 1797 
L 3578 0 
L 2900 0 
L 1881 1375 
L 863 0 
L 184 0 
L 1544 1831 
L 300 3500 
L 978 3500 
L 1906 2253 
L 2834 3500 
L 3513 3500 
z
" transform="scale(0.015625)"/>
      </defs>
      <use xlink:href="#DejaVuSans-6d"/>
      <use xlink:href="#DejaVuSans-6f" x="97.412109"/>
      <use xlink:href="#DejaVuSans-70" x="158.59375"/>
      <use xlink:href="#DejaVuSans-74" x="222.070312"/>
      <use xlink:href="#DejaVuSans-2d" x="261.279297"/>
      <use xlink:href="#DejaVuSans-30" x="297.363281"/>
      <use xlink:href="#DejaVuSans-2d" x="360.986328"/>
      <use xlink:href="#DejaVuSans-65" x="397.070312"/>
      <use xlink:href="#DejaVuSans-78" x="456.84375"/>
      <use xlink:href="#DejaVuSans-69" x="516.023438"/>
      <use xlink:href="#DejaVuSans-64" x="543.806641"/>
      <use xlink:href="#DejaVuSans-32" x="607.283203"/>
     </g>
    </g>
    <g id="line2d_37">
     <path d="M 274.761 460.814875 
L 283.561 460.814875 
L 292.361 460.814875 
" style="fill: none; stroke: #b9db57; stroke-width: 1.2; stroke-linecap: round"/>
    </g>
    <g id="text_31">
     <!-- fairfuzz-0-exid2 -->
     <g style="fill: #262626" transform="translate(299.401 463.894875)scale(0.088 -0.088)">
      <use xlink:href="#DejaVuSans-66"/>
      <use xlink:href="#DejaVuSans-61" x="35.205078"/>
      <use xlink:href="#DejaVuSans-69" x="96.484375"/>
      <use xlink:href="#DejaVuSans-72" x="124.267578"/>
      <use xlink:href="#DejaVuSans-66" x="165.380859"/>
      <use xlink:href="#DejaVuSans-75" x="200.585938"/>
      <use xlink:href="#DejaVuSans-7a" x="263.964844"/>
      <use xlink:href="#DejaVuSans-7a" x="316.455078"/>
      <use xlink:href="#DejaVuSans-2d" x="368.945312"/>
      <use xlink:href="#DejaVuSans-30" x="405.029297"/>
      <use xlink:href="#DejaVuSans-2d" x="468.652344"/>
      <use xlink:href="#DejaVuSans-65" x="504.736328"/>
      <use xlink:href="#DejaVuSans-78" x="564.509766"/>
      <use xlink:href="#DejaVuSans-69" x="623.689453"/>
      <use xlink:href="#DejaVuSans-64" x="651.472656"/>
      <use xlink:href="#DejaVuSans-32" x="714.949219"/>
     </g>
    </g>
    <g id="line2d_38">
     <path d="M 274.761 473.731625 
L 283.561 473.731625 
L 292.361 473.731625 
" style="fill: none; stroke: #57db94; stroke-width: 1.2; stroke-linecap: round"/>
    </g>
    <g id="text_32">
     <!-- aflplusplus-0-exid2 -->
     <g style="fill: #262626" transform="translate(299.401 476.811625)scale(0.088 -0.088)">
      <defs>
       <path id="DejaVuSans-6c" d="M 603 4863 
L 1178 4863 
L 1178 0 
L 603 0 
L 603 4863 
z
" transform="scale(0.015625)"/>
      </defs>
      <use xlink:href="#DejaVuSans-61"/>
      <use xlink:href="#DejaVuSans-66" x="61.279297"/>
      <use xlink:href="#DejaVuSans-6c" x="96.484375"/>
      <use xlink:href="#DejaVuSans-70" x="124.267578"/>
      <use xlink:href="#DejaVuSans-6c" x="187.744141"/>
      <use xlink:href="#DejaVuSans-75" x="215.527344"/>
      <use xlink:href="#DejaVuSans-73" x="278.90625"/>
      <use xlink:href="#DejaVuSans-70" x="331.005859"/>
      <use xlink:href="#DejaVuSans-6c" x="394.482422"/>
      <use xlink:href="#DejaVuSans-75" x="422.265625"/>
      <use xlink:href="#DejaVuSans-73" x="485.644531"/>
      <use xlink:href="#DejaVuSans-2d" x="537.744141"/>
      <use xlink:href="#DejaVuSans-30" x="573.828125"/>
      <use xlink:href="#DejaVuSans-2d" x="637.451172"/>
      <use xlink:href="#DejaVuSans-65" x="673.535156"/>
      <use xlink:href="#DejaVuSans-78" x="733.308594"/>
      <use xlink:href="#DejaVuSans-69" x="792.488281"/>
      <use xlink:href="#DejaVuSans-64" x="820.271484"/>
      <use xlink:href="#DejaVuSans-32" x="883.748047"/>
     </g>
    </g>
    <g id="line2d_39">
     <path d="M 274.761 486.648375 
L 283.561 486.648375 
L 292.361 486.648375 
" style="fill: none; stroke: #5784db; stroke-width: 1.2; stroke-linecap: round"/>
    </g>
    <g id="text_33">
     <!-- symcc-0-exid2 -->
     <g style="fill: #262626" transform="translate(299.401 489.728375)scale(0.088 -0.088)">
      <defs>
       <path id="DejaVuSans-79" d="M 2059 -325 
Q 1816 -950 1584 -1140 
Q 1353 -1331 966 -1331 
L 506 -1331 
L 506 -850 
L 844 -850 
Q 1081 -850 1212 -737 
Q 1344 -625 1503 -206 
L 1606 56 
L 191 3500 
L 800 3500 
L 1894 763 
L 2988 3500 
L 3597 3500 
L 2059 -325 
z
" transform="scale(0.015625)"/>
       <path id="DejaVuSans-63" d="M 3122 3366 
L 3122 2828 
Q 2878 2963 2633 3030 
Q 2388 3097 2138 3097 
Q 1578 3097 1268 2742 
Q 959 2388 959 1747 
Q 959 1106 1268 751 
Q 1578 397 2138 397 
Q 2388 397 2633 464 
Q 2878 531 3122 666 
L 3122 134 
Q 2881 22 2623 -34 
Q 2366 -91 2075 -91 
Q 1284 -91 818 406 
Q 353 903 353 1747 
Q 353 2603 823 3093 
Q 1294 3584 2113 3584 
Q 2378 3584 2631 3529 
Q 2884 3475 3122 3366 
z
" transform="scale(0.015625)"/>
      </defs>
      <use xlink:href="#DejaVuSans-73"/>
      <use xlink:href="#DejaVuSans-79" x="52.099609"/>
      <use xlink:href="#DejaVuSans-6d" x="111.279297"/>
      <use xlink:href="#DejaVuSans-63" x="208.691406"/>
      <use xlink:href="#DejaVuSans-63" x="263.671875"/>
      <use xlink:href="#DejaVuSans-2d" x="318.652344"/>
      <use xlink:href="#DejaVuSans-30" x="354.736328"/>
      <use xlink:href="#DejaVuSans-2d" x="418.359375"/>
      <use xlink:href="#DejaVuSans-65" x="454.443359"/>
      <use xlink:href="#DejaVuSans-78" x="514.216797"/>
      <use xlink:href="#DejaVuSans-69" x="573.396484"/>
      <use xlink:href="#DejaVuSans-64" x="601.179688"/>
      <use xlink:href="#DejaVuSans-32" x="664.65625"/>
     </g>
    </g>
    <g id="line2d_40">
     <path d="M 274.761 499.565125 
L 283.561 499.565125 
L 292.361 499.565125 
" style="fill: none; stroke: #c957db; stroke-width: 1.2; stroke-linecap: round"/>
    </g>
    <g id="text_34">
     <!-- fuzzer_global -->
     <g style="fill: #262626" transform="translate(299.401 502.645125)scale(0.088 -0.088)">
      <defs>
       <path id="DejaVuSans-5f" d="M 3263 -1063 
L 3263 -1509 
L -63 -1509 
L -63 -1063 
L 3263 -1063 
z
" transform="scale(0.015625)"/>
       <path id="DejaVuSans-62" d="M 3116 1747 
Q 3116 2381 2855 2742 
Q 2594 3103 2138 3103 
Q 1681 3103 1420 2742 
Q 1159 2381 1159 1747 
Q 1159 1113 1420 752 
Q 1681 391 2138 391 
Q 2594 391 2855 752 
Q 3116 1113 3116 1747 
z
M 1159 2969 
Q 1341 3281 1617 3432 
Q 1894 3584 2278 3584 
Q 2916 3584 3314 3078 
Q 3713 2572 3713 1747 
Q 3713 922 3314 415 
Q 2916 -91 2278 -91 
Q 1894 -91 1617 61 
Q 1341 213 1159 525 
L 1159 0 
L 581 0 
L 581 4863 
L 1159 4863 
L 1159 2969 
z
" transform="scale(0.015625)"/>
      </defs>
      <use xlink:href="#DejaVuSans-66"/>
      <use xlink:href="#DejaVuSans-75" x="35.205078"/>
      <use xlink:href="#DejaVuSans-7a" x="98.583984"/>
      <use xlink:href="#DejaVuSans-7a" x="151.074219"/>
      <use xlink:href="#DejaVuSans-65" x="203.564453"/>
      <use xlink:href="#DejaVuSans-72" x="265.087891"/>
      <use xlink:href="#DejaVuSans-5f" x="306.201172"/>
      <use xlink:href="#DejaVuSans-67" x="356.201172"/>
      <use xlink:href="#DejaVuSans-6c" x="419.677734"/>
      <use xlink:href="#DejaVuSans-6f" x="447.460938"/>
      <use xlink:href="#DejaVuSans-62" x="508.642578"/>
      <use xlink:href="#DejaVuSans-61" x="572.119141"/>
      <use xlink:href="#DejaVuSans-6c" x="633.398438"/>
     </g>
    </g>
   </g>
  </g>
 </g>
 <defs>
  <clipPath id="pe9380a8d39">
   <rect x="54.2625" y="69.12" width="336.4275" height="443.52"/>
  </clipPath>
 </defs>
</svg>
