<?xml version="1.0" encoding="utf-8" standalone="no"?>
<!DOCTYPE svg PUBLIC "-//W3C//DTD SVG 1.1//EN"
  "http://www.w3.org/Graphics/SVG/1.1/DTD/svg11.dtd">
<svg xmlns:xlink="http://www.w3.org/1999/xlink" width="434.7pt" height="576pt" viewBox="0 0 434.7 576" xmlns="http://www.w3.org/2000/svg" version="1.1">
 <metadata>
  <rdf:RDF xmlns:dc="http://purl.org/dc/elements/1.1/" xmlns:cc="http://creativecommons.org/ns#" xmlns:rdf="http://www.w3.org/1999/02/22-rdf-syntax-ns#">
   <cc:Work>
    <dc:type rdf:resource="http://purl.org/dc/dcmitype/StillImage"/>
    <dc:date>2022-09-15T11:16:52.698123</dc:date>
    <dc:format>image/svg+xml</dc:format>
    <dc:creator>
     <cc:Agent>
      <dc:title>Matplotlib v3.5.3, https://matplotlib.org/</dc:title>
     </cc:Agent>
    </dc:creator>
   </cc:Work>
  </rdf:RDF>
 </metadata>
 <defs>
  <style type="text/css">*{stroke-linejoin: round; stroke-linecap: butt}</style>
 </defs>
 <g id="figure_1">
  <g id="patch_1">
   <path d="M 0 576 
L 434.7 576 
L 434.7 0 
L 0 0 
z
" style="fill: #ffffff"/>
  </g>
  <g id="axes_1">
   <g id="patch_2">
    <path d="M 54.3375 512.64 
L 391.23 512.64 
L 391.23 69.12 
L 54.3375 69.12 
z
" style="fill: #ffffff"/>
   </g>
   <g id="matplotlib.axis_1">
    <g id="xtick_1">
     <g id="line2d_1">
      <path d="M 69.650795 512.64 
L 69.650795 69.12 
" clip-path="url(#p8681dfac06)" style="fill: none; stroke: #cccccc; stroke-width: 0.8; stroke-linecap: round"/>
     </g>
     <g id="text_1">
      <!-- 0 -->
      <g style="fill: #262626" transform="translate(69.388282 529.627249)rotate(-45)scale(0.088 -0.088)">
       <defs>
        <path id="DejaVuSans-30" d="M 2034 4250 
Q 1547 4250 1301 3770 
Q 1056 3291 1056 2328 
Q 1056 1369 1301 889 
Q 1547 409 2034 409 
Q 2525 409 2770 889 
Q 3016 1369 3016 2328 
Q 3016 3291 2770 3770 
Q 2525 4250 2034 4250 
z
M 2034 4750 
Q 2819 4750 3233 4129 
Q 3647 3509 3647 2328 
Q 3647 1150 3233 529 
Q 2819 -91 2034 -91 
Q 1250 -91 836 529 
Q 422 1150 422 2328 
Q 422 3509 836 4129 
Q 1250 4750 2034 4750 
z
" transform="scale(0.015625)"/>
       </defs>
       <use xlink:href="#DejaVuSans-30"/>
      </g>
     </g>
    </g>
    <g id="xtick_2">
     <g id="line2d_2">
      <path d="M 86.677392 512.64 
L 86.677392 69.12 
" clip-path="url(#p8681dfac06)" style="fill: none; stroke: #cccccc; stroke-width: 0.8; stroke-linecap: round"/>
     </g>
     <g id="text_2">
      <!-- 80 -->
      <g style="fill: #262626" transform="translate(84.435333 533.58634)rotate(-45)scale(0.088 -0.088)">
       <defs>
        <path id="DejaVuSans-38" d="M 2034 2216 
Q 1584 2216 1326 1975 
Q 1069 1734 1069 1313 
Q 1069 891 1326 650 
Q 1584 409 2034 409 
Q 2484 409 2743 651 
Q 3003 894 3003 1313 
Q 3003 1734 2745 1975 
Q 2488 2216 2034 2216 
z
M 1403 2484 
Q 997 2584 770 2862 
Q 544 3141 544 3541 
Q 544 4100 942 4425 
Q 1341 4750 2034 4750 
Q 2731 4750 3128 4425 
Q 3525 4100 3525 3541 
Q 3525 3141 3298 2862 
Q 3072 2584 2669 2484 
Q 3125 2378 3379 2068 
Q 3634 1759 3634 1313 
Q 3634 634 3220 271 
Q 2806 -91 2034 -91 
Q 1263 -91 848 271 
Q 434 634 434 1313 
Q 434 1759 690 2068 
Q 947 2378 1403 2484 
z
M 1172 3481 
Q 1172 3119 1398 2916 
Q 1625 2713 2034 2713 
Q 2441 2713 2670 2916 
Q 2900 3119 2900 3481 
Q 2900 3844 2670 4047 
Q 2441 4250 2034 4250 
Q 1625 4250 1398 4047 
Q 1172 3844 1172 3481 
z
" transform="scale(0.015625)"/>
       </defs>
       <use xlink:href="#DejaVuSans-38"/>
       <use xlink:href="#DejaVuSans-30" x="63.623047"/>
      </g>
     </g>
    </g>
    <g id="xtick_3">
     <g id="line2d_3">
      <path d="M 103.703989 512.64 
L 103.703989 69.12 
" clip-path="url(#p8681dfac06)" style="fill: none; stroke: #cccccc; stroke-width: 0.8; stroke-linecap: round"/>
     </g>
     <g id="text_3">
      <!-- 160 -->
      <g style="fill: #262626" transform="translate(99.482385 537.54543)rotate(-45)scale(0.088 -0.088)">
       <defs>
        <path id="DejaVuSans-31" d="M 794 531 
L 1825 531 
L 1825 4091 
L 703 3866 
L 703 4441 
L 1819 4666 
L 2450 4666 
L 2450 531 
L 3481 531 
L 3481 0 
L 794 0 
L 794 531 
z
" transform="scale(0.015625)"/>
        <path id="DejaVuSans-36" d="M 2113 2584 
Q 1688 2584 1439 2293 
Q 1191 2003 1191 1497 
Q 1191 994 1439 701 
Q 1688 409 2113 409 
Q 2538 409 2786 701 
Q 3034 994 3034 1497 
Q 3034 2003 2786 2293 
Q 2538 2584 2113 2584 
z
M 3366 4563 
L 3366 3988 
Q 3128 4100 2886 4159 
Q 2644 4219 2406 4219 
Q 1781 4219 1451 3797 
Q 1122 3375 1075 2522 
Q 1259 2794 1537 2939 
Q 1816 3084 2150 3084 
Q 2853 3084 3261 2657 
Q 3669 2231 3669 1497 
Q 3669 778 3244 343 
Q 2819 -91 2113 -91 
Q 1303 -91 875 529 
Q 447 1150 447 2328 
Q 447 3434 972 4092 
Q 1497 4750 2381 4750 
Q 2619 4750 2861 4703 
Q 3103 4656 3366 4563 
z
" transform="scale(0.015625)"/>
       </defs>
       <use xlink:href="#DejaVuSans-31"/>
       <use xlink:href="#DejaVuSans-36" x="63.623047"/>
       <use xlink:href="#DejaVuSans-30" x="127.246094"/>
      </g>
     </g>
    </g>
    <g id="xtick_4">
     <g id="line2d_4">
      <path d="M 120.730586 512.64 
L 120.730586 69.12 
" clip-path="url(#p8681dfac06)" style="fill: none; stroke: #cccccc; stroke-width: 0.8; stroke-linecap: round"/>
     </g>
     <g id="text_4">
      <!-- 240 -->
      <g style="fill: #262626" transform="translate(116.508981 537.54543)rotate(-45)scale(0.088 -0.088)">
       <defs>
        <path id="DejaVuSans-32" d="M 1228 531 
L 3431 531 
L 3431 0 
L 469 0 
L 469 531 
Q 828 903 1448 1529 
Q 2069 2156 2228 2338 
Q 2531 2678 2651 2914 
Q 2772 3150 2772 3378 
Q 2772 3750 2511 3984 
Q 2250 4219 1831 4219 
Q 1534 4219 1204 4116 
Q 875 4013 500 3803 
L 500 4441 
Q 881 4594 1212 4672 
Q 1544 4750 1819 4750 
Q 2544 4750 2975 4387 
Q 3406 4025 3406 3419 
Q 3406 3131 3298 2873 
Q 3191 2616 2906 2266 
Q 2828 2175 2409 1742 
Q 1991 1309 1228 531 
z
" transform="scale(0.015625)"/>
        <path id="DejaVuSans-34" d="M 2419 4116 
L 825 1625 
L 2419 1625 
L 2419 4116 
z
M 2253 4666 
L 3047 4666 
L 3047 1625 
L 3713 1625 
L 3713 1100 
L 3047 1100 
L 3047 0 
L 2419 0 
L 2419 1100 
L 313 1100 
L 313 1709 
L 2253 4666 
z
" transform="scale(0.015625)"/>
       </defs>
       <use xlink:href="#DejaVuSans-32"/>
       <use xlink:href="#DejaVuSans-34" x="63.623047"/>
       <use xlink:href="#DejaVuSans-30" x="127.246094"/>
      </g>
     </g>
    </g>
    <g id="xtick_5">
     <g id="line2d_5">
      <path d="M 137.757182 512.64 
L 137.757182 69.12 
" clip-path="url(#p8681dfac06)" style="fill: none; stroke: #cccccc; stroke-width: 0.8; stroke-linecap: round"/>
     </g>
     <g id="text_5">
      <!-- 320 -->
      <g style="fill: #262626" transform="translate(133.535578 537.54543)rotate(-45)scale(0.088 -0.088)">
       <defs>
        <path id="DejaVuSans-33" d="M 2597 2516 
Q 3050 2419 3304 2112 
Q 3559 1806 3559 1356 
Q 3559 666 3084 287 
Q 2609 -91 1734 -91 
Q 1441 -91 1130 -33 
Q 819 25 488 141 
L 488 750 
Q 750 597 1062 519 
Q 1375 441 1716 441 
Q 2309 441 2620 675 
Q 2931 909 2931 1356 
Q 2931 1769 2642 2001 
Q 2353 2234 1838 2234 
L 1294 2234 
L 1294 2753 
L 1863 2753 
Q 2328 2753 2575 2939 
Q 2822 3125 2822 3475 
Q 2822 3834 2567 4026 
Q 2313 4219 1838 4219 
Q 1578 4219 1281 4162 
Q 984 4106 628 3988 
L 628 4550 
Q 988 4650 1302 4700 
Q 1616 4750 1894 4750 
Q 2613 4750 3031 4423 
Q 3450 4097 3450 3541 
Q 3450 3153 3228 2886 
Q 3006 2619 2597 2516 
z
" transform="scale(0.015625)"/>
       </defs>
       <use xlink:href="#DejaVuSans-33"/>
       <use xlink:href="#DejaVuSans-32" x="63.623047"/>
       <use xlink:href="#DejaVuSans-30" x="127.246094"/>
      </g>
     </g>
    </g>
    <g id="xtick_6">
     <g id="line2d_6">
      <path d="M 154.783779 512.64 
L 154.783779 69.12 
" clip-path="url(#p8681dfac06)" style="fill: none; stroke: #cccccc; stroke-width: 0.8; stroke-linecap: round"/>
     </g>
     <g id="text_6">
      <!-- 400 -->
      <g style="fill: #262626" transform="translate(150.562175 537.54543)rotate(-45)scale(0.088 -0.088)">
       <use xlink:href="#DejaVuSans-34"/>
       <use xlink:href="#DejaVuSans-30" x="63.623047"/>
       <use xlink:href="#DejaVuSans-30" x="127.246094"/>
      </g>
     </g>
    </g>
    <g id="xtick_7">
     <g id="line2d_7">
      <path d="M 171.810376 512.64 
L 171.810376 69.12 
" clip-path="url(#p8681dfac06)" style="fill: none; stroke: #cccccc; stroke-width: 0.8; stroke-linecap: round"/>
     </g>
     <g id="text_7">
      <!-- 480 -->
      <g style="fill: #262626" transform="translate(167.588772 537.54543)rotate(-45)scale(0.088 -0.088)">
       <use xlink:href="#DejaVuSans-34"/>
       <use xlink:href="#DejaVuSans-38" x="63.623047"/>
       <use xlink:href="#DejaVuSans-30" x="127.246094"/>
      </g>
     </g>
    </g>
    <g id="xtick_8">
     <g id="line2d_8">
      <path d="M 188.836973 512.64 
L 188.836973 69.12 
" clip-path="url(#p8681dfac06)" style="fill: none; stroke: #cccccc; stroke-width: 0.8; stroke-linecap: round"/>
     </g>
     <g id="text_8">
      <!-- 560 -->
      <g style="fill: #262626" transform="translate(184.615368 537.54543)rotate(-45)scale(0.088 -0.088)">
       <defs>
        <path id="DejaVuSans-35" d="M 691 4666 
L 3169 4666 
L 3169 4134 
L 1269 4134 
L 1269 2991 
Q 1406 3038 1543 3061 
Q 1681 3084 1819 3084 
Q 2600 3084 3056 2656 
Q 3513 2228 3513 1497 
Q 3513 744 3044 326 
Q 2575 -91 1722 -91 
Q 1428 -91 1123 -41 
Q 819 9 494 109 
L 494 744 
Q 775 591 1075 516 
Q 1375 441 1709 441 
Q 2250 441 2565 725 
Q 2881 1009 2881 1497 
Q 2881 1984 2565 2268 
Q 2250 2553 1709 2553 
Q 1456 2553 1204 2497 
Q 953 2441 691 2322 
L 691 4666 
z
" transform="scale(0.015625)"/>
       </defs>
       <use xlink:href="#DejaVuSans-35"/>
       <use xlink:href="#DejaVuSans-36" x="63.623047"/>
       <use xlink:href="#DejaVuSans-30" x="127.246094"/>
      </g>
     </g>
    </g>
    <g id="xtick_9">
     <g id="line2d_9">
      <path d="M 205.863569 512.64 
L 205.863569 69.12 
" clip-path="url(#p8681dfac06)" style="fill: none; stroke: #cccccc; stroke-width: 0.8; stroke-linecap: round"/>
     </g>
     <g id="text_9">
      <!-- 640 -->
      <g style="fill: #262626" transform="translate(201.641965 537.54543)rotate(-45)scale(0.088 -0.088)">
       <use xlink:href="#DejaVuSans-36"/>
       <use xlink:href="#DejaVuSans-34" x="63.623047"/>
       <use xlink:href="#DejaVuSans-30" x="127.246094"/>
      </g>
     </g>
    </g>
    <g id="xtick_10">
     <g id="line2d_10">
      <path d="M 222.890166 512.64 
L 222.890166 69.12 
" clip-path="url(#p8681dfac06)" style="fill: none; stroke: #cccccc; stroke-width: 0.8; stroke-linecap: round"/>
     </g>
     <g id="text_10">
      <!-- 720 -->
      <g style="fill: #262626" transform="translate(218.668562 537.54543)rotate(-45)scale(0.088 -0.088)">
       <defs>
        <path id="DejaVuSans-37" d="M 525 4666 
L 3525 4666 
L 3525 4397 
L 1831 0 
L 1172 0 
L 2766 4134 
L 525 4134 
L 525 4666 
z
" transform="scale(0.015625)"/>
       </defs>
       <use xlink:href="#DejaVuSans-37"/>
       <use xlink:href="#DejaVuSans-32" x="63.623047"/>
       <use xlink:href="#DejaVuSans-30" x="127.246094"/>
      </g>
     </g>
    </g>
    <g id="xtick_11">
     <g id="line2d_11">
      <path d="M 239.916763 512.64 
L 239.916763 69.12 
" clip-path="url(#p8681dfac06)" style="fill: none; stroke: #cccccc; stroke-width: 0.8; stroke-linecap: round"/>
     </g>
     <g id="text_11">
      <!-- 800 -->
      <g style="fill: #262626" transform="translate(235.695159 537.54543)rotate(-45)scale(0.088 -0.088)">
       <use xlink:href="#DejaVuSans-38"/>
       <use xlink:href="#DejaVuSans-30" x="63.623047"/>
       <use xlink:href="#DejaVuSans-30" x="127.246094"/>
      </g>
     </g>
    </g>
    <g id="xtick_12">
     <g id="line2d_12">
      <path d="M 256.94336 512.64 
L 256.94336 69.12 
" clip-path="url(#p8681dfac06)" style="fill: none; stroke: #cccccc; stroke-width: 0.8; stroke-linecap: round"/>
     </g>
     <g id="text_12">
      <!-- 880 -->
      <g style="fill: #262626" transform="translate(252.721755 537.54543)rotate(-45)scale(0.088 -0.088)">
       <use xlink:href="#DejaVuSans-38"/>
       <use xlink:href="#DejaVuSans-38" x="63.623047"/>
       <use xlink:href="#DejaVuSans-30" x="127.246094"/>
      </g>
     </g>
    </g>
    <g id="xtick_13">
     <g id="line2d_13">
      <path d="M 273.969956 512.64 
L 273.969956 69.12 
" clip-path="url(#p8681dfac06)" style="fill: none; stroke: #cccccc; stroke-width: 0.8; stroke-linecap: round"/>
     </g>
     <g id="text_13">
      <!-- 960 -->
      <g style="fill: #262626" transform="translate(269.748352 537.54543)rotate(-45)scale(0.088 -0.088)">
       <defs>
        <path id="DejaVuSans-39" d="M 703 97 
L 703 672 
Q 941 559 1184 500 
Q 1428 441 1663 441 
Q 2288 441 2617 861 
Q 2947 1281 2994 2138 
Q 2813 1869 2534 1725 
Q 2256 1581 1919 1581 
Q 1219 1581 811 2004 
Q 403 2428 403 3163 
Q 403 3881 828 4315 
Q 1253 4750 1959 4750 
Q 2769 4750 3195 4129 
Q 3622 3509 3622 2328 
Q 3622 1225 3098 567 
Q 2575 -91 1691 -91 
Q 1453 -91 1209 -44 
Q 966 3 703 97 
z
M 1959 2075 
Q 2384 2075 2632 2365 
Q 2881 2656 2881 3163 
Q 2881 3666 2632 3958 
Q 2384 4250 1959 4250 
Q 1534 4250 1286 3958 
Q 1038 3666 1038 3163 
Q 1038 2656 1286 2365 
Q 1534 2075 1959 2075 
z
" transform="scale(0.015625)"/>
       </defs>
       <use xlink:href="#DejaVuSans-39"/>
       <use xlink:href="#DejaVuSans-36" x="63.623047"/>
       <use xlink:href="#DejaVuSans-30" x="127.246094"/>
      </g>
     </g>
    </g>
    <g id="xtick_14">
     <g id="line2d_14">
      <path d="M 290.996553 512.64 
L 290.996553 69.12 
" clip-path="url(#p8681dfac06)" style="fill: none; stroke: #cccccc; stroke-width: 0.8; stroke-linecap: round"/>
     </g>
     <g id="text_14">
      <!-- 1040 -->
      <g style="fill: #262626" transform="translate(284.795404 541.504521)rotate(-45)scale(0.088 -0.088)">
       <use xlink:href="#DejaVuSans-31"/>
       <use xlink:href="#DejaVuSans-30" x="63.623047"/>
       <use xlink:href="#DejaVuSans-34" x="127.246094"/>
       <use xlink:href="#DejaVuSans-30" x="190.869141"/>
      </g>
     </g>
    </g>
    <g id="xtick_15">
     <g id="line2d_15">
      <path d="M 308.02315 512.64 
L 308.02315 69.12 
" clip-path="url(#p8681dfac06)" style="fill: none; stroke: #cccccc; stroke-width: 0.8; stroke-linecap: round"/>
     </g>
     <g id="text_15">
      <!-- 1120 -->
      <g style="fill: #262626" transform="translate(301.822 541.504521)rotate(-45)scale(0.088 -0.088)">
       <use xlink:href="#DejaVuSans-31"/>
       <use xlink:href="#DejaVuSans-31" x="63.623047"/>
       <use xlink:href="#DejaVuSans-32" x="127.246094"/>
       <use xlink:href="#DejaVuSans-30" x="190.869141"/>
      </g>
     </g>
    </g>
    <g id="xtick_16">
     <g id="line2d_16">
      <path d="M 325.049747 512.64 
L 325.049747 69.12 
" clip-path="url(#p8681dfac06)" style="fill: none; stroke: #cccccc; stroke-width: 0.8; stroke-linecap: round"/>
     </g>
     <g id="text_16">
      <!-- 1200 -->
      <g style="fill: #262626" transform="translate(318.848597 541.504521)rotate(-45)scale(0.088 -0.088)">
       <use xlink:href="#DejaVuSans-31"/>
       <use xlink:href="#DejaVuSans-32" x="63.623047"/>
       <use xlink:href="#DejaVuSans-30" x="127.246094"/>
       <use xlink:href="#DejaVuSans-30" x="190.869141"/>
      </g>
     </g>
    </g>
    <g id="xtick_17">
     <g id="line2d_17">
      <path d="M 342.076343 512.64 
L 342.076343 69.12 
" clip-path="url(#p8681dfac06)" style="fill: none; stroke: #cccccc; stroke-width: 0.8; stroke-linecap: round"/>
     </g>
     <g id="text_17">
      <!-- 1280 -->
      <g style="fill: #262626" transform="translate(335.875194 541.504521)rotate(-45)scale(0.088 -0.088)">
       <use xlink:href="#DejaVuSans-31"/>
       <use xlink:href="#DejaVuSans-32" x="63.623047"/>
       <use xlink:href="#DejaVuSans-38" x="127.246094"/>
       <use xlink:href="#DejaVuSans-30" x="190.869141"/>
      </g>
     </g>
    </g>
    <g id="xtick_18">
     <g id="line2d_18">
      <path d="M 359.10294 512.64 
L 359.10294 69.12 
" clip-path="url(#p8681dfac06)" style="fill: none; stroke: #cccccc; stroke-width: 0.8; stroke-linecap: round"/>
     </g>
     <g id="text_18">
      <!-- 1360 -->
      <g style="fill: #262626" transform="translate(352.901791 541.504521)rotate(-45)scale(0.088 -0.088)">
       <use xlink:href="#DejaVuSans-31"/>
       <use xlink:href="#DejaVuSans-33" x="63.623047"/>
       <use xlink:href="#DejaVuSans-36" x="127.246094"/>
       <use xlink:href="#DejaVuSans-30" x="190.869141"/>
      </g>
     </g>
    </g>
    <g id="xtick_19">
     <g id="line2d_19">
      <path d="M 376.129537 512.64 
L 376.129537 69.12 
" clip-path="url(#p8681dfac06)" style="fill: none; stroke: #cccccc; stroke-width: 0.8; stroke-linecap: round"/>
     </g>
     <g id="text_19">
      <!-- 1440 -->
      <g style="fill: #262626" transform="translate(369.928387 541.504521)rotate(-45)scale(0.088 -0.088)">
       <use xlink:href="#DejaVuSans-31"/>
       <use xlink:href="#DejaVuSans-34" x="63.623047"/>
       <use xlink:href="#DejaVuSans-34" x="127.246094"/>
       <use xlink:href="#DejaVuSans-30" x="190.869141"/>
      </g>
     </g>
    </g>
    <g id="text_20">
     <!-- Time (Minutes) -->
     <g style="fill: #262626" transform="translate(186.87375 554.093115)scale(0.096 -0.096)">
      <defs>
       <path id="DejaVuSans-54" d="M -19 4666 
L 3928 4666 
L 3928 4134 
L 2272 4134 
L 2272 0 
L 1638 0 
L 1638 4134 
L -19 4134 
L -19 4666 
z
" transform="scale(0.015625)"/>
       <path id="DejaVuSans-69" d="M 603 3500 
L 1178 3500 
L 1178 0 
L 603 0 
L 603 3500 
z
M 603 4863 
L 1178 4863 
L 1178 4134 
L 603 4134 
L 603 4863 
z
" transform="scale(0.015625)"/>
       <path id="DejaVuSans-6d" d="M 3328 2828 
Q 3544 3216 3844 3400 
Q 4144 3584 4550 3584 
Q 5097 3584 5394 3201 
Q 5691 2819 5691 2113 
L 5691 0 
L 5113 0 
L 5113 2094 
Q 5113 2597 4934 2840 
Q 4756 3084 4391 3084 
Q 3944 3084 3684 2787 
Q 3425 2491 3425 1978 
L 3425 0 
L 2847 0 
L 2847 2094 
Q 2847 2600 2669 2842 
Q 2491 3084 2119 3084 
Q 1678 3084 1418 2786 
Q 1159 2488 1159 1978 
L 1159 0 
L 581 0 
L 581 3500 
L 1159 3500 
L 1159 2956 
Q 1356 3278 1631 3431 
Q 1906 3584 2284 3584 
Q 2666 3584 2933 3390 
Q 3200 3197 3328 2828 
z
" transform="scale(0.015625)"/>
       <path id="DejaVuSans-65" d="M 3597 1894 
L 3597 1613 
L 953 1613 
Q 991 1019 1311 708 
Q 1631 397 2203 397 
Q 2534 397 2845 478 
Q 3156 559 3463 722 
L 3463 178 
Q 3153 47 2828 -22 
Q 2503 -91 2169 -91 
Q 1331 -91 842 396 
Q 353 884 353 1716 
Q 353 2575 817 3079 
Q 1281 3584 2069 3584 
Q 2775 3584 3186 3129 
Q 3597 2675 3597 1894 
z
M 3022 2063 
Q 3016 2534 2758 2815 
Q 2500 3097 2075 3097 
Q 1594 3097 1305 2825 
Q 1016 2553 972 2059 
L 3022 2063 
z
" transform="scale(0.015625)"/>
       <path id="DejaVuSans-20" transform="scale(0.015625)"/>
       <path id="DejaVuSans-28" d="M 1984 4856 
Q 1566 4138 1362 3434 
Q 1159 2731 1159 2009 
Q 1159 1288 1364 580 
Q 1569 -128 1984 -844 
L 1484 -844 
Q 1016 -109 783 600 
Q 550 1309 550 2009 
Q 550 2706 781 3412 
Q 1013 4119 1484 4856 
L 1984 4856 
z
" transform="scale(0.015625)"/>
       <path id="DejaVuSans-4d" d="M 628 4666 
L 1569 4666 
L 2759 1491 
L 3956 4666 
L 4897 4666 
L 4897 0 
L 4281 0 
L 4281 4097 
L 3078 897 
L 2444 897 
L 1241 4097 
L 1241 0 
L 628 0 
L 628 4666 
z
" transform="scale(0.015625)"/>
       <path id="DejaVuSans-6e" d="M 3513 2113 
L 3513 0 
L 2938 0 
L 2938 2094 
Q 2938 2591 2744 2837 
Q 2550 3084 2163 3084 
Q 1697 3084 1428 2787 
Q 1159 2491 1159 1978 
L 1159 0 
L 581 0 
L 581 3500 
L 1159 3500 
L 1159 2956 
Q 1366 3272 1645 3428 
Q 1925 3584 2291 3584 
Q 2894 3584 3203 3211 
Q 3513 2838 3513 2113 
z
" transform="scale(0.015625)"/>
       <path id="DejaVuSans-75" d="M 544 1381 
L 544 3500 
L 1119 3500 
L 1119 1403 
Q 1119 906 1312 657 
Q 1506 409 1894 409 
Q 2359 409 2629 706 
Q 2900 1003 2900 1516 
L 2900 3500 
L 3475 3500 
L 3475 0 
L 2900 0 
L 2900 538 
Q 2691 219 2414 64 
Q 2138 -91 1772 -91 
Q 1169 -91 856 284 
Q 544 659 544 1381 
z
M 1991 3584 
L 1991 3584 
z
" transform="scale(0.015625)"/>
       <path id="DejaVuSans-74" d="M 1172 4494 
L 1172 3500 
L 2356 3500 
L 2356 3053 
L 1172 3053 
L 1172 1153 
Q 1172 725 1289 603 
Q 1406 481 1766 481 
L 2356 481 
L 2356 0 
L 1766 0 
Q 1100 0 847 248 
Q 594 497 594 1153 
L 594 3053 
L 172 3053 
L 172 3500 
L 594 3500 
L 594 4494 
L 1172 4494 
z
" transform="scale(0.015625)"/>
       <path id="DejaVuSans-73" d="M 2834 3397 
L 2834 2853 
Q 2591 2978 2328 3040 
Q 2066 3103 1784 3103 
Q 1356 3103 1142 2972 
Q 928 2841 928 2578 
Q 928 2378 1081 2264 
Q 1234 2150 1697 2047 
L 1894 2003 
Q 2506 1872 2764 1633 
Q 3022 1394 3022 966 
Q 3022 478 2636 193 
Q 2250 -91 1575 -91 
Q 1294 -91 989 -36 
Q 684 19 347 128 
L 347 722 
Q 666 556 975 473 
Q 1284 391 1588 391 
Q 1994 391 2212 530 
Q 2431 669 2431 922 
Q 2431 1156 2273 1281 
Q 2116 1406 1581 1522 
L 1381 1569 
Q 847 1681 609 1914 
Q 372 2147 372 2553 
Q 372 3047 722 3315 
Q 1072 3584 1716 3584 
Q 2034 3584 2315 3537 
Q 2597 3491 2834 3397 
z
" transform="scale(0.015625)"/>
       <path id="DejaVuSans-29" d="M 513 4856 
L 1013 4856 
Q 1481 4119 1714 3412 
Q 1947 2706 1947 2009 
Q 1947 1309 1714 600 
Q 1481 -109 1013 -844 
L 513 -844 
Q 928 -128 1133 580 
Q 1338 1288 1338 2009 
Q 1338 2731 1133 3434 
Q 928 4138 513 4856 
z
" transform="scale(0.015625)"/>
      </defs>
      <use xlink:href="#DejaVuSans-54"/>
      <use xlink:href="#DejaVuSans-69" x="57.958984"/>
      <use xlink:href="#DejaVuSans-6d" x="85.742188"/>
      <use xlink:href="#DejaVuSans-65" x="183.154297"/>
      <use xlink:href="#DejaVuSans-20" x="244.677734"/>
      <use xlink:href="#DejaVuSans-28" x="276.464844"/>
      <use xlink:href="#DejaVuSans-4d" x="315.478516"/>
      <use xlink:href="#DejaVuSans-69" x="401.757812"/>
      <use xlink:href="#DejaVuSans-6e" x="429.541016"/>
      <use xlink:href="#DejaVuSans-75" x="492.919922"/>
      <use xlink:href="#DejaVuSans-74" x="556.298828"/>
      <use xlink:href="#DejaVuSans-65" x="595.507812"/>
      <use xlink:href="#DejaVuSans-73" x="657.03125"/>
      <use xlink:href="#DejaVuSans-29" x="709.130859"/>
     </g>
    </g>
   </g>
   <g id="matplotlib.axis_2">
    <g id="ytick_1">
     <g id="line2d_20">
      <path d="M 54.3375 492.48 
L 391.23 492.48 
" clip-path="url(#p8681dfac06)" style="fill: none; stroke: #cccccc; stroke-width: 0.8; stroke-linecap: round"/>
     </g>
     <g id="text_21">
      <!-- 0 -->
      <g style="fill: #262626" transform="translate(40.4385 495.823313)scale(0.088 -0.088)">
       <use xlink:href="#DejaVuSans-30"/>
      </g>
     </g>
    </g>
    <g id="ytick_2">
     <g id="line2d_21">
      <path d="M 54.3375 444.307957 
L 391.23 444.307957 
" clip-path="url(#p8681dfac06)" style="fill: none; stroke: #cccccc; stroke-width: 0.8; stroke-linecap: round"/>
     </g>
     <g id="text_22">
      <!-- 100 -->
      <g style="fill: #262626" transform="translate(29.2405 447.651269)scale(0.088 -0.088)">
       <use xlink:href="#DejaVuSans-31"/>
       <use xlink:href="#DejaVuSans-30" x="63.623047"/>
       <use xlink:href="#DejaVuSans-30" x="127.246094"/>
      </g>
     </g>
    </g>
    <g id="ytick_3">
     <g id="line2d_22">
      <path d="M 54.3375 396.135914 
L 391.23 396.135914 
" clip-path="url(#p8681dfac06)" style="fill: none; stroke: #cccccc; stroke-width: 0.8; stroke-linecap: round"/>
     </g>
     <g id="text_23">
      <!-- 200 -->
      <g style="fill: #262626" transform="translate(29.2405 399.479226)scale(0.088 -0.088)">
       <use xlink:href="#DejaVuSans-32"/>
       <use xlink:href="#DejaVuSans-30" x="63.623047"/>
       <use xlink:href="#DejaVuSans-30" x="127.246094"/>
      </g>
     </g>
    </g>
    <g id="ytick_4">
     <g id="line2d_23">
      <path d="M 54.3375 347.963871 
L 391.23 347.963871 
" clip-path="url(#p8681dfac06)" style="fill: none; stroke: #cccccc; stroke-width: 0.8; stroke-linecap: round"/>
     </g>
     <g id="text_24">
      <!-- 300 -->
      <g style="fill: #262626" transform="translate(29.2405 351.307183)scale(0.088 -0.088)">
       <use xlink:href="#DejaVuSans-33"/>
       <use xlink:href="#DejaVuSans-30" x="63.623047"/>
       <use xlink:href="#DejaVuSans-30" x="127.246094"/>
      </g>
     </g>
    </g>
    <g id="ytick_5">
     <g id="line2d_24">
      <path d="M 54.3375 299.791828 
L 391.23 299.791828 
" clip-path="url(#p8681dfac06)" style="fill: none; stroke: #cccccc; stroke-width: 0.8; stroke-linecap: round"/>
     </g>
     <g id="text_25">
      <!-- 400 -->
      <g style="fill: #262626" transform="translate(29.2405 303.13514)scale(0.088 -0.088)">
       <use xlink:href="#DejaVuSans-34"/>
       <use xlink:href="#DejaVuSans-30" x="63.623047"/>
       <use xlink:href="#DejaVuSans-30" x="127.246094"/>
      </g>
     </g>
    </g>
    <g id="ytick_6">
     <g id="line2d_25">
      <path d="M 54.3375 251.619785 
L 391.23 251.619785 
" clip-path="url(#p8681dfac06)" style="fill: none; stroke: #cccccc; stroke-width: 0.8; stroke-linecap: round"/>
     </g>
     <g id="text_26">
      <!-- 500 -->
      <g style="fill: #262626" transform="translate(29.2405 254.963097)scale(0.088 -0.088)">
       <use xlink:href="#DejaVuSans-35"/>
       <use xlink:href="#DejaVuSans-30" x="63.623047"/>
       <use xlink:href="#DejaVuSans-30" x="127.246094"/>
      </g>
     </g>
    </g>
    <g id="ytick_7">
     <g id="line2d_26">
      <path d="M 54.3375 203.447742 
L 391.23 203.447742 
" clip-path="url(#p8681dfac06)" style="fill: none; stroke: #cccccc; stroke-width: 0.8; stroke-linecap: round"/>
     </g>
     <g id="text_27">
      <!-- 600 -->
      <g style="fill: #262626" transform="translate(29.2405 206.791054)scale(0.088 -0.088)">
       <use xlink:href="#DejaVuSans-36"/>
       <use xlink:href="#DejaVuSans-30" x="63.623047"/>
       <use xlink:href="#DejaVuSans-30" x="127.246094"/>
      </g>
     </g>
    </g>
    <g id="ytick_8">
     <g id="line2d_27">
      <path d="M 54.3375 155.275699 
L 391.23 155.275699 
" clip-path="url(#p8681dfac06)" style="fill: none; stroke: #cccccc; stroke-width: 0.8; stroke-linecap: round"/>
     </g>
     <g id="text_28">
      <!-- 700 -->
      <g style="fill: #262626" transform="translate(29.2405 158.619011)scale(0.088 -0.088)">
       <use xlink:href="#DejaVuSans-37"/>
       <use xlink:href="#DejaVuSans-30" x="63.623047"/>
       <use xlink:href="#DejaVuSans-30" x="127.246094"/>
      </g>
     </g>
    </g>
    <g id="ytick_9">
     <g id="line2d_28">
      <path d="M 54.3375 107.103656 
L 391.23 107.103656 
" clip-path="url(#p8681dfac06)" style="fill: none; stroke: #cccccc; stroke-width: 0.8; stroke-linecap: round"/>
     </g>
     <g id="text_29">
      <!-- 800 -->
      <g style="fill: #262626" transform="translate(29.2405 110.446968)scale(0.088 -0.088)">
       <use xlink:href="#DejaVuSans-38"/>
       <use xlink:href="#DejaVuSans-30" x="63.623047"/>
       <use xlink:href="#DejaVuSans-30" x="127.246094"/>
      </g>
     </g>
    </g>
    <g id="text_30">
     <!-- Edge Coverages -->
     <g style="fill: #262626" transform="translate(23.244 329.98575)rotate(-90)scale(0.096 -0.096)">
      <defs>
       <path id="DejaVuSans-45" d="M 628 4666 
L 3578 4666 
L 3578 4134 
L 1259 4134 
L 1259 2753 
L 3481 2753 
L 3481 2222 
L 1259 2222 
L 1259 531 
L 3634 531 
L 3634 0 
L 628 0 
L 628 4666 
z
" transform="scale(0.015625)"/>
       <path id="DejaVuSans-64" d="M 2906 2969 
L 2906 4863 
L 3481 4863 
L 3481 0 
L 2906 0 
L 2906 525 
Q 2725 213 2448 61 
Q 2172 -91 1784 -91 
Q 1150 -91 751 415 
Q 353 922 353 1747 
Q 353 2572 751 3078 
Q 1150 3584 1784 3584 
Q 2172 3584 2448 3432 
Q 2725 3281 2906 2969 
z
M 947 1747 
Q 947 1113 1208 752 
Q 1469 391 1925 391 
Q 2381 391 2643 752 
Q 2906 1113 2906 1747 
Q 2906 2381 2643 2742 
Q 2381 3103 1925 3103 
Q 1469 3103 1208 2742 
Q 947 2381 947 1747 
z
" transform="scale(0.015625)"/>
       <path id="DejaVuSans-67" d="M 2906 1791 
Q 2906 2416 2648 2759 
Q 2391 3103 1925 3103 
Q 1463 3103 1205 2759 
Q 947 2416 947 1791 
Q 947 1169 1205 825 
Q 1463 481 1925 481 
Q 2391 481 2648 825 
Q 2906 1169 2906 1791 
z
M 3481 434 
Q 3481 -459 3084 -895 
Q 2688 -1331 1869 -1331 
Q 1566 -1331 1297 -1286 
Q 1028 -1241 775 -1147 
L 775 -588 
Q 1028 -725 1275 -790 
Q 1522 -856 1778 -856 
Q 2344 -856 2625 -561 
Q 2906 -266 2906 331 
L 2906 616 
Q 2728 306 2450 153 
Q 2172 0 1784 0 
Q 1141 0 747 490 
Q 353 981 353 1791 
Q 353 2603 747 3093 
Q 1141 3584 1784 3584 
Q 2172 3584 2450 3431 
Q 2728 3278 2906 2969 
L 2906 3500 
L 3481 3500 
L 3481 434 
z
" transform="scale(0.015625)"/>
       <path id="DejaVuSans-43" d="M 4122 4306 
L 4122 3641 
Q 3803 3938 3442 4084 
Q 3081 4231 2675 4231 
Q 1875 4231 1450 3742 
Q 1025 3253 1025 2328 
Q 1025 1406 1450 917 
Q 1875 428 2675 428 
Q 3081 428 3442 575 
Q 3803 722 4122 1019 
L 4122 359 
Q 3791 134 3420 21 
Q 3050 -91 2638 -91 
Q 1578 -91 968 557 
Q 359 1206 359 2328 
Q 359 3453 968 4101 
Q 1578 4750 2638 4750 
Q 3056 4750 3426 4639 
Q 3797 4528 4122 4306 
z
" transform="scale(0.015625)"/>
       <path id="DejaVuSans-6f" d="M 1959 3097 
Q 1497 3097 1228 2736 
Q 959 2375 959 1747 
Q 959 1119 1226 758 
Q 1494 397 1959 397 
Q 2419 397 2687 759 
Q 2956 1122 2956 1747 
Q 2956 2369 2687 2733 
Q 2419 3097 1959 3097 
z
M 1959 3584 
Q 2709 3584 3137 3096 
Q 3566 2609 3566 1747 
Q 3566 888 3137 398 
Q 2709 -91 1959 -91 
Q 1206 -91 779 398 
Q 353 888 353 1747 
Q 353 2609 779 3096 
Q 1206 3584 1959 3584 
z
" transform="scale(0.015625)"/>
       <path id="DejaVuSans-76" d="M 191 3500 
L 800 3500 
L 1894 563 
L 2988 3500 
L 3597 3500 
L 2284 0 
L 1503 0 
L 191 3500 
z
" transform="scale(0.015625)"/>
       <path id="DejaVuSans-72" d="M 2631 2963 
Q 2534 3019 2420 3045 
Q 2306 3072 2169 3072 
Q 1681 3072 1420 2755 
Q 1159 2438 1159 1844 
L 1159 0 
L 581 0 
L 581 3500 
L 1159 3500 
L 1159 2956 
Q 1341 3275 1631 3429 
Q 1922 3584 2338 3584 
Q 2397 3584 2469 3576 
Q 2541 3569 2628 3553 
L 2631 2963 
z
" transform="scale(0.015625)"/>
       <path id="DejaVuSans-61" d="M 2194 1759 
Q 1497 1759 1228 1600 
Q 959 1441 959 1056 
Q 959 750 1161 570 
Q 1363 391 1709 391 
Q 2188 391 2477 730 
Q 2766 1069 2766 1631 
L 2766 1759 
L 2194 1759 
z
M 3341 1997 
L 3341 0 
L 2766 0 
L 2766 531 
Q 2569 213 2275 61 
Q 1981 -91 1556 -91 
Q 1019 -91 701 211 
Q 384 513 384 1019 
Q 384 1609 779 1909 
Q 1175 2209 1959 2209 
L 2766 2209 
L 2766 2266 
Q 2766 2663 2505 2880 
Q 2244 3097 1772 3097 
Q 1472 3097 1187 3025 
Q 903 2953 641 2809 
L 641 3341 
Q 956 3463 1253 3523 
Q 1550 3584 1831 3584 
Q 2591 3584 2966 3190 
Q 3341 2797 3341 1997 
z
" transform="scale(0.015625)"/>
      </defs>
      <use xlink:href="#DejaVuSans-45"/>
      <use xlink:href="#DejaVuSans-64" x="63.183594"/>
      <use xlink:href="#DejaVuSans-67" x="126.660156"/>
      <use xlink:href="#DejaVuSans-65" x="190.136719"/>
      <use xlink:href="#DejaVuSans-20" x="251.660156"/>
      <use xlink:href="#DejaVuSans-43" x="283.447266"/>
      <use xlink:href="#DejaVuSans-6f" x="353.271484"/>
      <use xlink:href="#DejaVuSans-76" x="414.453125"/>
      <use xlink:href="#DejaVuSans-65" x="473.632812"/>
      <use xlink:href="#DejaVuSans-72" x="535.15625"/>
      <use xlink:href="#DejaVuSans-61" x="576.269531"/>
      <use xlink:href="#DejaVuSans-67" x="637.548828"/>
      <use xlink:href="#DejaVuSans-65" x="701.025391"/>
      <use xlink:href="#DejaVuSans-73" x="762.548828"/>
     </g>
    </g>
   </g>
   <g id="PolyCollection_1">
    <defs>
     <path id="m0f1b54809d" d="M 69.650795 -111.941505 
L 69.650795 -83.52 
L 69.650795 -111.941505 
L 69.650795 -111.941505 
z
" style="stroke: #db5f57; stroke-opacity: 0.2; stroke-width: 0.8"/>
    </defs>
    <g clip-path="url(#p8681dfac06)">
     <use xlink:href="#m0f1b54809d" x="0" y="576" style="fill: #db5f57; fill-opacity: 0.2; stroke: #db5f57; stroke-opacity: 0.2; stroke-width: 0.8"/>
    </g>
   </g>
   <g id="PolyCollection_2">
    <defs>
     <path id="m0abfe74037" d="M 69.650795 -96.526452 
L 69.650795 -83.52 
L 69.650795 -96.526452 
L 69.650795 -96.526452 
z
" style="stroke: #b9db57; stroke-opacity: 0.2; stroke-width: 0.8"/>
    </defs>
    <g clip-path="url(#p8681dfac06)">
     <use xlink:href="#m0abfe74037" x="0" y="576" style="fill: #b9db57; fill-opacity: 0.2; stroke: #b9db57; stroke-opacity: 0.2; stroke-width: 0.8"/>
    </g>
   </g>
   <g id="PolyCollection_3">
    <defs>
     <path id="mb55b4dc1aa" d="M 69.650795 -94.59957 
L 69.650795 -83.52 
L 69.650795 -94.59957 
L 69.650795 -94.59957 
z
" style="stroke: #57db94; stroke-opacity: 0.2; stroke-width: 0.8"/>
    </defs>
    <g clip-path="url(#p8681dfac06)">
     <use xlink:href="#mb55b4dc1aa" x="0" y="576" style="fill: #57db94; fill-opacity: 0.2; stroke: #57db94; stroke-opacity: 0.2; stroke-width: 0.8"/>
    </g>
   </g>
   <g id="PolyCollection_4">
    <defs>
     <path id="m2a567b9113" d="M 69.650795 -110.978065 
L 69.650795 -83.52 
L 69.650795 -110.978065 
L 69.650795 -110.978065 
z
" style="stroke: #5784db; stroke-opacity: 0.2; stroke-width: 0.8"/>
    </defs>
    <g clip-path="url(#p8681dfac06)">
     <use xlink:href="#m2a567b9113" x="0" y="576" style="fill: #5784db; fill-opacity: 0.2; stroke: #5784db; stroke-opacity: 0.2; stroke-width: 0.8"/>
    </g>
   </g>
   <g id="PolyCollection_5">
    <defs>
     <path id="mfd2861ebe6" d="M 69.650795 -112.423226 
L 69.650795 -83.52 
L 69.650795 -112.423226 
L 69.650795 -112.423226 
z
" style="stroke: #c957db; stroke-opacity: 0.2; stroke-width: 0.8"/>
    </defs>
    <g clip-path="url(#p8681dfac06)">
     <use xlink:href="#mfd2861ebe6" x="0" y="576" style="fill: #c957db; fill-opacity: 0.2; stroke: #c957db; stroke-opacity: 0.2; stroke-width: 0.8"/>
    </g>
   </g>
   <g id="line2d_29">
    <path d="M 69.650795 478.269247 
L 69.863628 455.869247 
L 70.07646 447.19828 
L 70.289293 431.301505 
L 70.502125 426.484301 
L 70.714958 425.03914 
L 71.140623 410.105806 
L 71.353455 408.660645 
L 71.566288 402.39828 
L 71.991953 398.544516 
L 72.204785 392.763871 
L 72.417617 392.282151 
L 72.63045 392.282151 
L 73.056115 389.391828 
L 73.48178 388.428387 
L 73.694612 388.428387 
L 73.907445 387.946667 
L 74.120277 387.946667 
L 74.33311 387.464946 
L 74.758774 387.464946 
L 75.184439 386.501505 
L 75.397272 386.501505 
L 75.610104 375.421935 
L 76.035769 375.421935 
L 76.461434 372.531613 
L 76.674267 371.568172 
L 76.887099 369.64129 
L 77.099932 369.64129 
L 77.312764 368.677849 
L 77.525596 368.677849 
L 77.738429 363.378925 
L 79.015424 363.378925 
L 79.228256 362.897204 
L 79.441089 362.897204 
L 79.653921 356.634839 
L 80.079586 356.634839 
L 80.292418 356.153118 
L 80.505251 355.189677 
L 80.718083 355.189677 
L 80.930916 354.707957 
L 81.569413 354.707957 
L 81.782246 352.781075 
L 82.420743 352.781075 
L 82.633575 350.854194 
L 82.846408 350.854194 
L 83.697738 347.482151 
L 83.91057 347.482151 
L 84.336235 346.036989 
L 84.7619 346.036989 
L 85.400397 344.591828 
L 85.61323 343.146667 
L 85.826062 342.664946 
L 86.677392 342.664946 
L 86.890225 342.183226 
L 87.103057 342.183226 
L 87.31589 341.701505 
L 87.954387 341.701505 
L 88.167219 336.884301 
L 88.592884 334.957419 
L 88.805717 334.957419 
L 89.018549 334.475699 
L 89.444214 334.475699 
L 89.657047 333.030538 
L 90.295544 333.030538 
L 90.508376 332.067097 
L 90.934041 332.067097 
L 91.146874 331.103656 
L 91.998204 331.103656 
L 92.211036 330.621935 
L 92.423869 330.621935 
L 92.636701 329.176774 
L 92.849534 328.695054 
L 93.062366 327.731613 
L 93.700863 327.731613 
L 94.126528 326.768172 
L 94.765026 326.768172 
L 94.977858 326.286452 
L 96.89335 326.286452 
L 97.319015 325.323011 
L 97.74468 325.323011 
L 97.957513 324.84129 
L 98.170345 324.84129 
L 98.59601 322.432688 
L 99.44734 322.432688 
L 99.660172 321.950968 
L 100.937167 321.950968 
L 101.149999 321.469247 
L 101.362832 321.469247 
L 101.575664 320.024086 
L 102.001329 319.060645 
L 102.426994 319.060645 
L 102.852659 318.097204 
L 103.278324 318.097204 
L 103.491157 315.688602 
L 103.703989 315.206882 
L 103.916821 315.206882 
L 104.129654 314.725161 
L 104.980984 314.725161 
L 105.406649 313.76172 
L 106.045146 313.76172 
L 106.257978 313.28 
L 107.322141 313.28 
L 107.534973 312.316559 
L 108.811968 312.316559 
L 109.237633 311.353118 
L 109.450465 311.353118 
L 109.663298 310.871398 
L 110.088963 310.871398 
L 110.301795 310.389677 
L 111.791622 310.389677 
L 112.004455 309.426237 
L 112.43012 309.426237 
L 112.642952 308.944516 
L 113.494282 308.944516 
L 113.707115 308.462796 
L 114.345612 308.462796 
L 114.558444 307.981075 
L 114.984109 307.981075 
L 115.196942 307.499355 
L 115.409774 307.499355 
L 115.622607 306.054194 
L 118.815094 306.054194 
L 119.027926 305.572473 
L 119.453591 305.572473 
L 119.666423 305.090753 
L 120.943418 305.090753 
L 121.369083 303.645591 
L 121.581916 303.163871 
L 122.00758 298.828387 
L 122.220413 298.346667 
L 124.348738 298.346667 
L 124.56157 297.864946 
L 124.987235 297.864946 
L 125.200067 297.383226 
L 125.838565 297.383226 
L 126.051397 296.901505 
L 126.477062 296.901505 
L 126.689895 296.419785 
L 127.115559 296.419785 
L 127.328392 295.938065 
L 127.541224 295.938065 
L 127.754057 295.456344 
L 128.179722 295.456344 
L 128.392554 294.974624 
L 129.456717 294.974624 
L 130.095214 293.529462 
L 130.733711 293.529462 
L 130.946544 293.047742 
L 132.862036 293.047742 
L 133.074868 289.675699 
L 134.99036 289.675699 
L 135.203193 289.193978 
L 135.628858 289.193978 
L 135.84169 288.230538 
L 136.267355 288.230538 
L 136.480188 287.748817 
L 136.69302 286.303656 
L 141.375334 286.303656 
L 141.588167 285.821935 
L 145.419151 285.821935 
L 145.631983 285.340215 
L 145.844816 284.376774 
L 146.483313 284.376774 
L 146.696146 283.895054 
L 147.547476 283.895054 
L 147.760308 283.413333 
L 147.973141 282.449892 
L 149.250135 282.449892 
L 149.462968 281.968172 
L 152.655455 281.968172 
L 152.868287 281.004731 
L 153.293952 281.004731 
L 153.506784 280.523011 
L 155.422277 280.523011 
L 155.635109 280.04129 
L 157.124936 280.04129 
L 157.550601 279.077849 
L 157.763434 279.077849 
L 157.976266 278.596129 
L 158.401931 278.596129 
L 158.827596 277.632688 
L 162.65858 277.632688 
L 162.871413 277.150968 
L 163.935575 277.150968 
L 164.148407 276.187527 
L 164.574072 276.187527 
L 164.786905 275.705806 
L 165.851067 275.705806 
L 166.0639 275.224086 
L 166.702397 275.224086 
L 166.915229 274.742366 
L 167.340894 274.742366 
L 167.553727 272.815484 
L 172.236041 272.815484 
L 172.661706 271.852043 
L 176.49269 271.852043 
L 176.705523 271.370323 
L 177.131187 271.370323 
L 177.556852 270.406882 
L 180.749339 270.406882 
L 180.962172 269.925161 
L 188.198475 269.925161 
L 188.411308 269.443441 
L 189.262638 269.443441 
L 189.47547 268.96172 
L 189.688303 268.96172 
L 189.901135 268.48 
L 190.965297 268.48 
L 191.390962 267.516559 
L 193.944952 267.516559 
L 194.157784 267.034839 
L 199.904261 267.034839 
L 200.329926 266.071398 
L 200.542758 266.071398 
L 200.75559 265.589677 
L 203.735245 265.589677 
L 203.948077 265.107957 
L 212.461376 265.107957 
L 212.674208 264.626237 
L 213.525538 264.626237 
L 213.73837 264.144516 
L 214.376868 264.144516 
L 214.5897 263.662796 
L 214.802533 263.662796 
L 215.015365 262.699355 
L 216.079528 262.699355 
L 216.29236 262.217634 
L 220.549009 262.217634 
L 220.761842 261.735914 
L 222.038836 261.735914 
L 222.251669 261.254194 
L 226.72115 261.254194 
L 226.933983 260.772473 
L 233.318957 260.772473 
L 233.531789 260.290753 
L 238.852601 260.290753 
L 239.065433 259.809032 
L 247.578732 259.809032 
L 247.791564 259.327312 
L 254.38937 259.327312 
L 254.602203 256.436989 
L 256.09203 256.436989 
L 256.304862 255.955269 
L 257.156192 255.955269 
L 257.369025 255.473548 
L 257.581857 255.473548 
L 257.79469 254.510108 
L 261.412841 254.510108 
L 261.838506 252.583226 
L 262.902669 252.583226 
L 263.115501 252.101505 
L 263.753998 252.101505 
L 263.966831 251.619785 
L 271.415967 251.619785 
L 271.628799 229.942366 
L 272.480129 229.942366 
L 272.905794 226.570323 
L 273.331459 226.570323 
L 273.544292 223.68 
L 273.969956 222.716559 
L 274.182789 221.753118 
L 275.459784 221.753118 
L 275.672616 221.271398 
L 276.098281 221.271398 
L 276.311114 220.789677 
L 276.736778 220.789677 
L 276.949611 220.307957 
L 277.162443 216.935914 
L 277.588108 216.935914 
L 277.800941 215.009032 
L 279.5036 215.009032 
L 279.716433 206.819785 
L 279.929265 204.892903 
L 280.567763 204.892903 
L 281.419093 201.52086 
L 281.631925 201.03914 
L 281.844757 199.593978 
L 282.270422 199.593978 
L 282.90892 198.148817 
L 283.121752 197.185376 
L 283.547417 197.185376 
L 283.76025 196.221935 
L 284.185915 196.221935 
L 284.398747 195.740215 
L 284.611579 195.740215 
L 284.824412 194.295054 
L 285.037244 193.813333 
L 285.250077 192.368172 
L 285.462909 192.368172 
L 285.675742 191.886452 
L 286.101407 191.886452 
L 286.527072 190.44129 
L 286.952737 190.44129 
L 287.378401 188.996129 
L 287.591234 188.514409 
L 287.804066 185.624086 
L 288.016899 185.624086 
L 288.655396 184.178925 
L 290.145223 184.178925 
L 290.570888 183.215484 
L 291.422218 183.215484 
L 291.635051 182.733763 
L 292.060716 182.733763 
L 292.273548 181.288602 
L 292.48638 181.288602 
L 292.699213 180.806882 
L 292.912045 180.806882 
L 293.124878 180.325161 
L 293.763375 180.325161 
L 293.976208 179.843441 
L 294.18904 176.953118 
L 294.827538 176.953118 
L 295.253202 175.989677 
L 296.955862 175.989677 
L 297.168695 175.507957 
L 298.232857 175.507957 
L 298.445689 175.026237 
L 298.658522 174.062796 
L 299.297019 174.062796 
L 299.722684 173.099355 
L 309.300145 173.099355 
L 309.512977 172.617634 
L 310.151475 172.617634 
L 310.364307 172.135914 
L 312.705464 172.135914 
L 312.918297 171.172473 
L 322.495757 171.172473 
L 322.70859 170.690753 
L 323.347087 170.690753 
L 323.55992 170.209032 
L 324.411249 170.209032 
L 324.624082 169.727312 
L 327.816569 169.727312 
L 328.029401 169.245591 
L 338.671024 169.245591 
L 338.883857 168.763871 
L 340.586516 168.763871 
L 340.799349 166.836989 
L 341.012181 166.355269 
L 347.397155 166.355269 
L 347.82282 165.391828 
L 353.143631 165.391828 
L 353.356464 164.910108 
L 356.548951 164.910108 
L 356.761783 163.946667 
L 357.400281 157.684301 
L 357.825945 157.684301 
L 358.038778 155.757419 
L 358.25161 150.458495 
L 358.464443 149.495054 
L 358.677275 149.495054 
L 358.890108 148.531613 
L 359.10294 148.531613 
L 359.528605 147.568172 
L 359.741438 145.64129 
L 359.95427 140.342366 
L 360.592767 137.933763 
L 361.444097 137.933763 
L 361.65693 136.488602 
L 362.082595 136.488602 
L 362.295427 135.525161 
L 362.721092 135.525161 
L 363.359589 134.08 
L 364.423752 134.08 
L 364.636584 133.59828 
L 365.275082 133.59828 
L 365.487914 132.634839 
L 367.403406 132.634839 
L 367.616239 131.671398 
L 368.254736 131.671398 
L 368.467568 131.189677 
L 369.531731 131.189677 
L 369.744563 130.707957 
L 372.08572 130.707957 
L 372.724218 129.262796 
L 372.93705 128.299355 
L 374.214045 128.299355 
L 374.426877 127.817634 
L 375.065375 127.817634 
L 375.278207 127.335914 
L 375.916705 127.335914 
L 375.916705 127.335914 
" clip-path="url(#p8681dfac06)" style="fill: none; stroke: #db5f57; stroke-width: 1.2; stroke-linecap: round"/>
   </g>
   <g id="line2d_30">
    <path d="M 69.650795 485.976774 
L 69.863628 479.473548 
L 70.07646 479.473548 
L 70.289293 478.510108 
L 70.714958 478.510108 
L 70.92779 419.740215 
L 71.566288 401.916559 
L 71.77912 401.434839 
L 71.991953 395.172473 
L 72.63045 389.873548 
L 72.843282 386.019785 
L 73.48178 386.019785 
L 73.907445 384.574624 
L 74.120277 384.574624 
L 74.33311 381.202581 
L 75.397272 376.867097 
L 75.822937 376.867097 
L 76.035769 376.385376 
L 76.461434 372.531613 
L 76.674267 372.531613 
L 76.887099 370.604731 
L 77.099932 370.123011 
L 77.312764 366.750968 
L 77.525596 366.269247 
L 77.738429 364.824086 
L 78.376926 364.824086 
L 78.802591 362.897204 
L 79.015424 359.043441 
L 79.228256 359.043441 
L 79.441089 358.56172 
L 79.866754 357.116559 
L 80.292418 356.153118 
L 80.505251 356.153118 
L 80.930916 353.744516 
L 81.143748 353.744516 
L 81.356581 353.262796 
L 82.633575 353.262796 
L 82.846408 350.372473 
L 83.272073 350.372473 
L 83.484905 347.00043 
L 84.123403 347.00043 
L 84.549068 346.036989 
L 84.974733 346.036989 
L 85.187565 344.591828 
L 85.400397 344.110108 
L 85.61323 343.146667 
L 86.038895 343.146667 
L 86.251727 342.664946 
L 86.890225 342.664946 
L 87.103057 340.738065 
L 88.380052 340.738065 
L 88.592884 334.957419 
L 88.805717 334.957419 
L 89.018549 333.993978 
L 89.444214 333.993978 
L 89.657047 333.512258 
L 92.636701 333.512258 
L 92.849534 329.176774 
L 93.700863 329.176774 
L 93.913696 326.768172 
L 96.467685 326.768172 
L 96.680518 326.286452 
L 97.106183 326.286452 
L 97.319015 325.323011 
L 111.791622 325.323011 
L 112.004455 309.907957 
L 115.622607 309.907957 
L 115.835439 305.572473 
L 121.581916 305.572473 
L 121.794748 302.682151 
L 125.625732 302.682151 
L 125.838565 296.901505 
L 128.605387 296.901505 
L 128.818219 294.492903 
L 129.031052 294.011183 
L 130.095214 294.011183 
L 130.308046 293.529462 
L 131.797874 293.529462 
L 132.223539 292.084301 
L 132.436371 292.084301 
L 132.649203 289.675699 
L 132.862036 289.193978 
L 135.84169 289.193978 
L 136.054523 287.748817 
L 149.037303 287.748817 
L 149.250135 281.968172 
L 150.101465 281.968172 
L 150.314298 281.486452 
L 153.08112 281.486452 
L 153.293952 280.523011 
L 155.422277 280.523011 
L 155.635109 279.55957 
L 156.273606 279.55957 
L 156.486439 279.077849 
L 159.040428 279.077849 
L 159.253261 277.632688 
L 164.786905 277.632688 
L 164.999737 275.224086 
L 168.830722 275.224086 
L 169.043554 272.333763 
L 182.026334 272.333763 
L 182.239166 269.925161 
L 189.049805 269.925161 
L 189.262638 268.96172 
L 192.02946 268.96172 
L 192.242292 267.516559 
L 205.225072 267.516559 
L 205.437905 265.589677 
L 213.099873 265.589677 
L 213.312706 264.626237 
L 216.29236 264.626237 
L 216.505192 262.699355 
L 219.059182 262.699355 
L 219.272014 262.217634 
L 221.826004 262.217634 
L 222.038836 261.735914 
L 226.082653 261.735914 
L 226.295486 261.254194 
L 228.636643 261.254194 
L 228.849475 260.772473 
L 233.744622 260.772473 
L 233.957454 259.809032 
L 240.342428 259.809032 
L 240.55526 259.327312 
L 243.10925 259.327312 
L 243.322082 258.845591 
L 246.727402 258.845591 
L 246.940234 258.363871 
L 248.855726 258.363871 
L 249.068559 257.882151 
L 249.919889 257.882151 
L 250.132721 255.473548 
L 257.581857 255.473548 
L 257.79469 254.028387 
L 260.561512 254.028387 
L 260.774344 253.546667 
L 263.753998 253.546667 
L 263.966831 251.138065 
L 270.138972 251.138065 
L 270.351805 230.905806 
L 270.564637 229.942366 
L 270.77747 229.942366 
L 270.990302 226.570323 
L 292.060716 226.570323 
L 292.273548 174.062796 
L 294.827538 174.062796 
L 295.04037 168.282151 
L 298.871354 168.282151 
L 299.084187 166.355269 
L 299.509852 166.355269 
L 299.722684 165.391828 
L 312.279799 165.391828 
L 312.492632 163.464946 
L 316.110783 163.464946 
L 316.323616 162.983226 
L 323.55992 162.983226 
L 323.772752 162.501505 
L 324.624082 162.501505 
L 324.836914 161.538065 
L 328.029401 161.538065 
L 328.242234 161.056344 
L 341.225014 161.056344 
L 341.437846 158.647742 
L 349.951144 158.647742 
L 350.163977 158.166022 
L 361.65693 158.166022 
L 361.869762 127.335914 
L 363.572422 127.335914 
L 363.785254 123.963871 
L 366.339244 123.963871 
L 366.552076 121.073548 
L 369.318898 121.073548 
L 369.531731 119.628387 
L 375.916705 119.628387 
L 375.916705 119.628387 
" clip-path="url(#p8681dfac06)" style="fill: none; stroke: #b9db57; stroke-width: 1.2; stroke-linecap: round"/>
   </g>
   <g id="line2d_31">
    <path d="M 69.650795 486.940215 
L 69.863628 480.91871 
L 70.502125 478.510108 
L 70.714958 478.510108 
L 70.92779 430.819785 
L 71.140623 412.514409 
L 71.353455 404.806882 
L 71.566288 404.325161 
L 71.77912 399.989677 
L 72.417617 399.989677 
L 72.63045 399.026237 
L 72.843282 399.026237 
L 73.268947 397.099355 
L 74.120277 397.099355 
L 74.33311 396.617634 
L 74.545942 396.617634 
L 74.758774 396.135914 
L 74.971607 396.135914 
L 75.184439 395.654194 
L 75.822937 395.654194 
L 76.035769 394.690753 
L 77.099932 394.690753 
L 77.525596 393.727312 
L 78.164094 393.727312 
L 78.589759 392.763871 
L 78.802591 391.80043 
L 80.505251 391.80043 
L 80.718083 391.31871 
L 80.930916 391.31871 
L 81.143748 390.836989 
L 82.633575 390.836989 
L 82.846408 390.355269 
L 84.336235 390.355269 
L 84.549068 389.873548 
L 85.400397 389.873548 
L 85.61323 388.910108 
L 86.251727 388.910108 
L 86.677392 343.628387 
L 88.592884 343.628387 
L 88.805717 343.146667 
L 97.74468 343.146667 
L 97.957513 342.664946 
L 100.29867 342.664946 
L 100.511502 336.884301 
L 100.724335 321.950968 
L 102.001329 321.950968 
L 102.214162 321.469247 
L 103.916821 321.469247 
L 104.129654 314.243441 
L 104.980984 314.243441 
L 105.193816 313.28 
L 106.683643 313.28 
L 106.896476 311.834839 
L 107.534973 311.834839 
L 107.747806 311.353118 
L 110.940293 311.353118 
L 111.153125 308.462796 
L 124.987235 308.462796 
L 125.200067 307.981075 
L 125.625732 307.981075 
L 125.838565 295.456344 
L 126.051397 295.456344 
L 126.26423 294.492903 
L 127.328392 294.492903 
L 127.541224 293.047742 
L 129.456717 293.047742 
L 129.669549 292.084301 
L 132.223539 292.084301 
L 132.436371 291.602581 
L 141.375334 291.602581 
L 141.588167 291.12086 
L 144.567821 291.12086 
L 144.780654 282.931613 
L 157.124936 282.931613 
L 157.337769 277.632688 
L 158.614763 277.632688 
L 158.827596 276.669247 
L 172.661706 276.669247 
L 172.874538 270.406882 
L 175.854193 270.406882 
L 176.067025 269.925161 
L 185.218821 269.925161 
L 185.431653 268.96172 
L 188.198475 268.96172 
L 188.411308 268.48 
L 196.498941 268.48 
L 196.711774 266.553118 
L 196.924606 266.071398 
L 204.799407 266.071398 
L 205.01224 265.589677 
L 212.035711 265.589677 
L 212.248543 265.107957 
L 212.461376 263.181075 
L 226.082653 263.181075 
L 226.295486 258.845591 
L 228.42381 258.845591 
L 228.636643 258.363871 
L 241.832255 258.363871 
L 242.045088 256.436989 
L 257.581857 256.436989 
L 257.79469 251.619785 
L 261.625674 251.619785 
L 261.838506 250.656344 
L 264.179663 250.656344 
L 264.392496 248.247742 
L 275.672616 248.247742 
L 275.885449 223.19828 
L 276.098281 211.636989 
L 288.655396 211.636989 
L 288.868229 174.062796 
L 291.422218 174.062796 
L 291.635051 173.099355 
L 293.124878 173.099355 
L 293.33771 169.245591 
L 296.530197 169.245591 
L 296.74303 165.873548 
L 296.955862 165.873548 
L 297.168695 165.391828 
L 299.509852 165.391828 
L 299.722684 163.464946 
L 300.361181 163.464946 
L 300.574014 162.983226 
L 316.323616 162.983226 
L 316.536448 160.574624 
L 322.921422 160.574624 
L 323.134255 160.092903 
L 325.901077 160.092903 
L 326.113909 159.611183 
L 328.242234 159.611183 
L 328.455066 159.129462 
L 338.458192 159.129462 
L 338.671024 158.166022 
L 338.883857 158.166022 
L 339.096689 157.684301 
L 340.586516 157.684301 
L 340.799349 157.202581 
L 343.140506 157.202581 
L 343.353338 156.72086 
L 347.609987 156.72086 
L 347.82282 156.23914 
L 352.505134 156.23914 
L 352.717966 155.757419 
L 353.356464 155.757419 
L 353.569296 154.312258 
L 356.761783 154.312258 
L 356.974616 152.867097 
L 359.10294 152.867097 
L 359.315773 136.970323 
L 361.65693 136.970323 
L 361.869762 125.890753 
L 363.998087 125.890753 
L 364.210919 122.51871 
L 364.423752 122.036989 
L 366.126411 122.036989 
L 366.339244 121.555269 
L 366.552076 121.555269 
L 366.764909 121.073548 
L 368.893233 121.073548 
L 369.106066 118.183226 
L 375.916705 118.183226 
L 375.916705 118.183226 
" clip-path="url(#p8681dfac06)" style="fill: none; stroke: #57db94; stroke-width: 1.2; stroke-linecap: round"/>
   </g>
   <g id="line2d_32">
    <path d="M 69.650795 478.750968 
L 70.289293 426.484301 
L 70.502125 412.032688 
L 70.92779 405.770323 
L 71.353455 401.916559 
L 71.77912 393.245591 
L 71.991953 390.836989 
L 72.204785 389.873548 
L 72.417617 387.946667 
L 72.63045 387.464946 
L 73.694612 383.129462 
L 74.120277 383.129462 
L 74.545942 381.684301 
L 74.971607 380.72086 
L 75.184439 380.72086 
L 75.397272 380.23914 
L 75.610104 378.793978 
L 76.035769 378.793978 
L 76.461434 376.867097 
L 76.674267 356.153118 
L 76.887099 356.153118 
L 77.312764 355.189677 
L 77.738429 353.744516 
L 77.951261 353.262796 
L 80.505251 353.262796 
L 80.718083 352.781075 
L 80.930916 350.854194 
L 81.143748 350.854194 
L 81.356581 350.372473 
L 81.782246 350.372473 
L 81.995078 349.409032 
L 82.207911 349.409032 
L 82.420743 348.927312 
L 83.05924 348.927312 
L 83.272073 347.963871 
L 84.336235 347.963871 
L 84.549068 347.482151 
L 84.7619 347.482151 
L 85.187565 346.51871 
L 85.400397 346.51871 
L 85.61323 346.036989 
L 86.038895 346.036989 
L 86.251727 345.555269 
L 86.677392 345.555269 
L 86.890225 345.073548 
L 87.103057 345.073548 
L 87.31589 344.110108 
L 87.528722 344.110108 
L 87.954387 342.664946 
L 88.167219 342.183226 
L 88.380052 341.219785 
L 88.592884 341.219785 
L 88.805717 340.738065 
L 89.231382 340.738065 
L 89.444214 340.256344 
L 89.869879 340.256344 
L 90.082712 339.774624 
L 90.508376 339.774624 
L 90.721209 339.292903 
L 90.934041 315.206882 
L 93.488031 315.206882 
L 93.700863 313.28 
L 94.552193 313.28 
L 94.765026 312.79828 
L 94.977858 312.79828 
L 95.190691 312.316559 
L 96.89335 312.316559 
L 97.106183 311.834839 
L 97.319015 307.017634 
L 99.021675 307.017634 
L 99.234507 304.127312 
L 99.44734 304.127312 
L 99.660172 303.645591 
L 105.406649 303.645591 
L 105.619481 303.163871 
L 109.450465 303.163871 
L 109.663298 292.566022 
L 114.132779 292.566022 
L 114.558444 288.712258 
L 116.473937 288.712258 
L 116.686769 287.748817 
L 120.517753 287.748817 
L 120.730586 286.785376 
L 121.794748 286.785376 
L 122.00758 280.04129 
L 126.051397 280.04129 
L 126.26423 278.114409 
L 127.754057 278.114409 
L 127.966889 277.632688 
L 128.818219 277.632688 
L 129.031052 277.150968 
L 130.308046 277.150968 
L 130.520879 276.669247 
L 132.223539 276.669247 
L 132.436371 271.852043 
L 132.649203 270.406882 
L 136.480188 270.406882 
L 136.69302 267.99828 
L 139.885507 267.99828 
L 140.09834 267.516559 
L 140.524004 267.516559 
L 140.736837 266.553118 
L 144.354989 266.553118 
L 144.567821 265.107957 
L 149.462968 265.107957 
L 149.6758 264.626237 
L 150.52713 264.626237 
L 150.739962 264.144516 
L 150.952795 262.217634 
L 154.145282 262.217634 
L 154.358114 260.290753 
L 155.847942 260.290753 
L 156.273606 259.327312 
L 161.594418 259.327312 
L 161.80725 257.882151 
L 167.766559 257.882151 
L 167.979392 256.91871 
L 170.107716 256.91871 
L 170.320549 256.436989 
L 170.533381 256.436989 
L 170.746214 252.101505 
L 174.364365 252.101505 
L 174.79003 251.138065 
L 180.962172 251.138065 
L 181.175004 249.692903 
L 187.77281 249.692903 
L 187.985643 249.211183 
L 191.390962 249.211183 
L 191.603795 247.284301 
L 191.816627 246.802581 
L 198.414433 246.802581 
L 198.627266 246.32086 
L 200.117093 246.32086 
L 200.329926 245.83914 
L 209.056056 245.83914 
L 209.268889 244.393978 
L 211.610046 244.393978 
L 211.822878 243.912258 
L 212.674208 243.912258 
L 212.887041 243.430538 
L 217.14369 243.430538 
L 217.356522 241.021935 
L 218.633517 241.021935 
L 218.84635 240.540215 
L 219.272014 240.540215 
L 219.484847 240.058495 
L 228.42381 240.058495 
L 228.636643 239.095054 
L 230.12647 239.095054 
L 230.339302 238.613333 
L 238.214103 238.613333 
L 238.426936 238.131613 
L 238.639768 238.131613 
L 238.852601 237.649892 
L 241.619423 237.649892 
L 241.832255 237.168172 
L 250.771218 237.168172 
L 250.984051 234.277849 
L 257.156192 234.277849 
L 257.369025 232.832688 
L 257.581857 232.350968 
L 258.858852 232.350968 
L 259.071684 231.869247 
L 259.284517 231.869247 
L 259.497349 231.387527 
L 260.987176 231.387527 
L 261.200009 230.905806 
L 262.264171 230.905806 
L 262.689836 229.942366 
L 262.902669 228.497204 
L 266.095155 228.497204 
L 266.307988 228.015484 
L 268.436313 228.015484 
L 268.649145 227.052043 
L 268.861977 225.125161 
L 269.713307 213.082151 
L 270.138972 207.783226 
L 270.564637 204.892903 
L 270.77747 202.484301 
L 270.990302 202.484301 
L 271.203135 199.112258 
L 271.628799 198.148817 
L 271.841632 198.148817 
L 272.054464 196.703656 
L 286.952737 196.703656 
L 287.165569 170.209032 
L 287.591234 170.209032 
L 287.804066 167.80043 
L 288.016899 167.80043 
L 288.229731 165.391828 
L 288.442564 164.910108 
L 289.293894 164.910108 
L 289.506726 163.464946 
L 290.145223 163.464946 
L 290.358056 162.983226 
L 291.422218 162.983226 
L 291.635051 162.501505 
L 292.060716 161.056344 
L 292.273548 160.574624 
L 292.912045 160.574624 
L 293.124878 158.647742 
L 293.33771 158.647742 
L 293.550543 158.166022 
L 293.763375 156.72086 
L 293.976208 156.72086 
L 294.18904 155.757419 
L 296.74303 155.757419 
L 296.955862 155.275699 
L 297.594359 155.275699 
L 298.020024 154.312258 
L 309.300145 154.312258 
L 309.512977 153.830538 
L 309.72581 152.385376 
L 309.938642 151.903656 
L 311.641302 151.903656 
L 311.854134 151.421935 
L 312.279799 151.421935 
L 312.492632 150.940215 
L 312.705464 150.940215 
L 312.918297 150.458495 
L 326.539574 150.458495 
L 326.752406 149.495054 
L 326.965239 149.495054 
L 327.178071 149.013333 
L 335.478537 149.013333 
L 335.69137 148.531613 
L 338.245359 148.531613 
L 338.458192 148.049892 
L 341.863511 148.049892 
L 342.076343 146.123011 
L 347.609987 146.123011 
L 347.82282 145.64129 
L 353.143631 145.64129 
L 353.569296 143.714409 
L 357.187448 143.714409 
L 357.400281 133.59828 
L 357.613113 132.153118 
L 357.825945 131.671398 
L 358.038778 129.744516 
L 358.25161 129.744516 
L 358.464443 129.262796 
L 359.315773 125.890753 
L 359.528605 125.409032 
L 361.018432 125.409032 
L 361.231265 124.927312 
L 361.65693 123.00043 
L 362.295427 117.701505 
L 362.50826 117.219785 
L 362.933925 114.811183 
L 363.146757 110.475699 
L 364.210919 110.475699 
L 364.423752 109.993978 
L 365.062249 109.993978 
L 365.275082 109.512258 
L 365.913579 109.512258 
L 366.126411 109.030538 
L 366.339244 109.030538 
L 366.552076 107.585376 
L 368.893233 107.585376 
L 369.106066 107.103656 
L 375.916705 107.103656 
L 375.916705 107.103656 
" clip-path="url(#p8681dfac06)" style="fill: none; stroke: #5784db; stroke-width: 1.2; stroke-linecap: round"/>
   </g>
   <g id="line2d_33">
    <path d="M 69.650795 478.028387 
L 70.07646 440.454194 
L 70.289293 420.221935 
L 71.140623 397.581075 
L 71.991953 384.092903 
L 72.204785 381.684301 
L 72.63045 375.903656 
L 73.056115 370.604731 
L 73.48178 369.64129 
L 73.907445 368.196129 
L 74.120277 368.196129 
L 74.758774 366.750968 
L 75.184439 363.860645 
L 75.397272 363.378925 
L 75.610104 361.933763 
L 75.822937 361.933763 
L 76.035769 360.488602 
L 76.248602 360.006882 
L 76.461434 358.56172 
L 76.674267 358.08 
L 76.887099 354.707957 
L 77.099932 353.744516 
L 77.525596 350.372473 
L 77.951261 348.927312 
L 78.376926 348.927312 
L 78.589759 348.445591 
L 78.802591 348.445591 
L 79.015424 344.591828 
L 79.228256 344.110108 
L 79.441089 344.110108 
L 79.653921 342.664946 
L 79.866754 342.664946 
L 80.079586 342.183226 
L 80.505251 340.256344 
L 80.718083 340.256344 
L 80.930916 337.847742 
L 82.207911 337.847742 
L 82.420743 337.366022 
L 82.633575 335.43914 
L 82.846408 334.957419 
L 83.05924 334.957419 
L 83.272073 332.548817 
L 83.484905 331.585376 
L 84.123403 331.585376 
L 84.549068 330.621935 
L 84.7619 330.621935 
L 85.400397 328.213333 
L 85.61323 327.731613 
L 86.038895 327.731613 
L 86.251727 327.249892 
L 86.677392 327.249892 
L 86.890225 326.286452 
L 87.31589 322.914409 
L 87.528722 322.914409 
L 87.741555 322.432688 
L 87.954387 322.432688 
L 88.167219 321.950968 
L 88.592884 319.542366 
L 89.018549 318.578925 
L 89.231382 318.578925 
L 89.444214 318.097204 
L 89.869879 318.097204 
L 90.082712 317.615484 
L 90.295544 317.615484 
L 90.934041 315.206882 
L 91.998204 315.206882 
L 92.211036 314.725161 
L 92.423869 314.725161 
L 92.636701 313.28 
L 92.849534 312.79828 
L 93.062366 311.834839 
L 93.488031 311.834839 
L 93.700863 309.907957 
L 94.126528 308.944516 
L 94.552193 308.944516 
L 94.765026 308.462796 
L 94.977858 308.462796 
L 95.190691 307.981075 
L 96.467685 307.981075 
L 96.680518 307.499355 
L 96.89335 307.499355 
L 97.319015 306.535914 
L 97.74468 306.535914 
L 97.957513 306.054194 
L 98.170345 306.054194 
L 98.59601 303.645591 
L 99.44734 303.645591 
L 99.660172 303.163871 
L 100.937167 303.163871 
L 101.149999 302.682151 
L 101.362832 302.682151 
L 101.575664 301.236989 
L 102.001329 300.273548 
L 102.426994 300.273548 
L 102.852659 299.310108 
L 103.278324 299.310108 
L 103.491157 296.901505 
L 103.703989 296.419785 
L 103.916821 296.419785 
L 104.129654 295.938065 
L 104.980984 295.938065 
L 105.619481 294.492903 
L 107.322141 294.492903 
L 107.534973 293.529462 
L 108.811968 293.529462 
L 109.237633 292.566022 
L 109.450465 292.566022 
L 109.663298 292.084301 
L 110.088963 292.084301 
L 110.301795 291.602581 
L 111.791622 291.602581 
L 112.004455 290.63914 
L 112.43012 290.63914 
L 112.642952 290.157419 
L 113.494282 290.157419 
L 113.707115 289.675699 
L 114.345612 289.675699 
L 114.558444 287.748817 
L 114.984109 287.748817 
L 115.196942 287.267097 
L 118.815094 287.267097 
L 119.027926 286.785376 
L 119.453591 286.785376 
L 119.666423 286.303656 
L 120.943418 286.303656 
L 121.369083 284.858495 
L 121.581916 284.376774 
L 122.00758 279.55957 
L 122.220413 279.077849 
L 124.987235 279.077849 
L 125.200067 278.596129 
L 125.838565 278.596129 
L 126.051397 278.114409 
L 126.26423 277.150968 
L 127.115559 277.150968 
L 127.966889 275.224086 
L 128.818219 275.224086 
L 129.031052 274.742366 
L 129.669549 274.742366 
L 130.520879 272.815484 
L 132.010706 272.815484 
L 132.223539 272.333763 
L 132.649203 269.443441 
L 134.99036 269.443441 
L 135.203193 268.96172 
L 135.628858 268.96172 
L 135.84169 267.99828 
L 136.267355 267.99828 
L 136.480188 267.516559 
L 136.69302 266.071398 
L 139.885507 266.071398 
L 140.09834 265.589677 
L 141.375334 265.589677 
L 141.588167 265.107957 
L 144.354989 265.107957 
L 144.567821 264.144516 
L 145.419151 264.144516 
L 145.631983 263.662796 
L 146.483313 263.662796 
L 146.696146 263.181075 
L 147.547476 263.181075 
L 147.760308 262.699355 
L 147.973141 261.735914 
L 149.250135 261.735914 
L 149.462968 261.254194 
L 152.655455 261.254194 
L 152.868287 260.290753 
L 153.293952 260.290753 
L 153.506784 259.809032 
L 154.145282 259.809032 
L 154.358114 259.327312 
L 155.847942 259.327312 
L 156.273606 258.363871 
L 157.337769 258.363871 
L 157.550601 257.882151 
L 158.401931 257.882151 
L 158.827596 256.91871 
L 162.65858 256.91871 
L 162.871413 256.436989 
L 163.935575 256.436989 
L 164.148407 255.473548 
L 164.574072 255.473548 
L 164.999737 254.510108 
L 165.851067 254.510108 
L 166.0639 254.028387 
L 166.702397 254.028387 
L 166.915229 253.546667 
L 167.340894 253.546667 
L 167.553727 251.619785 
L 170.107716 251.619785 
L 170.320549 251.138065 
L 172.236041 251.138065 
L 172.661706 250.174624 
L 175.854193 250.174624 
L 176.067025 249.692903 
L 176.49269 249.692903 
L 176.705523 249.211183 
L 177.34402 249.211183 
L 177.556852 248.729462 
L 187.77281 248.729462 
L 187.985643 248.247742 
L 188.198475 248.247742 
L 188.411308 247.766022 
L 189.262638 247.766022 
L 189.47547 247.284301 
L 190.965297 247.284301 
L 191.390962 246.32086 
L 191.603795 246.32086 
L 191.816627 245.83914 
L 193.944952 245.83914 
L 194.157784 245.357419 
L 199.904261 245.357419 
L 200.117093 244.875699 
L 200.329926 243.912258 
L 203.735245 243.912258 
L 203.948077 243.430538 
L 211.610046 243.430538 
L 211.822878 242.948817 
L 212.035711 242.948817 
L 212.248543 242.467097 
L 212.674208 242.467097 
L 212.887041 241.985376 
L 214.376868 241.985376 
L 214.5897 241.503656 
L 214.802533 241.503656 
L 215.015365 240.540215 
L 216.079528 240.540215 
L 216.29236 240.058495 
L 218.633517 240.058495 
L 218.84635 239.576774 
L 219.272014 239.576774 
L 219.484847 239.095054 
L 222.038836 239.095054 
L 222.251669 238.613333 
L 226.72115 238.613333 
L 226.933983 238.131613 
L 230.12647 238.131613 
L 230.339302 237.649892 
L 233.318957 237.649892 
L 233.531789 237.168172 
L 238.639768 237.168172 
L 238.852601 236.686452 
L 241.619423 236.686452 
L 241.832255 236.204731 
L 246.727402 236.204731 
L 246.940234 235.723011 
L 248.855726 235.723011 
L 249.068559 235.24129 
L 249.919889 235.24129 
L 250.132721 232.832688 
L 256.09203 232.832688 
L 256.304862 232.350968 
L 257.156192 232.350968 
L 257.581857 230.905806 
L 257.79469 230.424086 
L 258.858852 230.424086 
L 259.071684 229.942366 
L 259.284517 229.942366 
L 259.497349 229.460645 
L 260.987176 229.460645 
L 261.200009 228.978925 
L 261.625674 228.978925 
L 261.838506 228.015484 
L 262.264171 228.015484 
L 262.902669 226.570323 
L 263.753998 226.570323 
L 263.966831 226.088602 
L 266.095155 226.088602 
L 266.307988 225.606882 
L 268.649145 225.606882 
L 268.861977 223.68 
L 269.713307 211.636989 
L 270.138972 206.338065 
L 270.564637 203.447742 
L 270.77747 201.03914 
L 270.990302 201.03914 
L 271.203135 197.667097 
L 271.628799 196.703656 
L 271.841632 196.703656 
L 272.054464 195.258495 
L 272.480129 195.258495 
L 272.905794 193.813333 
L 273.331459 193.813333 
L 273.544292 190.923011 
L 273.969956 189.95957 
L 274.182789 188.996129 
L 275.459784 188.996129 
L 275.672616 188.514409 
L 276.098281 188.514409 
L 276.311114 188.032688 
L 276.736778 188.032688 
L 276.949611 187.550968 
L 277.162443 184.178925 
L 277.588108 184.178925 
L 277.800941 182.252043 
L 279.5036 182.252043 
L 279.716433 174.062796 
L 279.929265 172.135914 
L 280.567763 172.135914 
L 281.419093 168.763871 
L 281.631925 168.282151 
L 281.844757 166.836989 
L 282.270422 166.836989 
L 282.90892 165.391828 
L 283.121752 164.428387 
L 283.547417 164.428387 
L 283.76025 163.464946 
L 284.185915 163.464946 
L 284.398747 162.983226 
L 284.611579 162.983226 
L 284.824412 161.538065 
L 285.037244 161.056344 
L 285.250077 159.611183 
L 285.462909 159.611183 
L 285.675742 159.129462 
L 286.101407 159.129462 
L 286.527072 157.684301 
L 286.952737 157.684301 
L 287.378401 156.23914 
L 287.591234 155.757419 
L 287.804066 152.867097 
L 288.016899 152.867097 
L 288.229731 152.385376 
L 288.655396 150.940215 
L 290.145223 150.940215 
L 290.358056 150.458495 
L 291.422218 150.458495 
L 291.847883 149.013333 
L 292.273548 148.049892 
L 292.48638 148.049892 
L 292.699213 147.568172 
L 292.912045 147.568172 
L 293.124878 146.123011 
L 293.33771 146.123011 
L 293.550543 145.64129 
L 293.763375 144.196129 
L 294.18904 143.232688 
L 294.827538 143.232688 
L 295.04037 142.750968 
L 296.74303 142.750968 
L 296.955862 142.269247 
L 297.807192 142.269247 
L 298.020024 141.787527 
L 298.232857 141.787527 
L 298.658522 140.824086 
L 299.297019 140.824086 
L 299.722684 139.860645 
L 309.300145 139.860645 
L 309.512977 139.378925 
L 309.72581 139.378925 
L 309.938642 138.897204 
L 311.641302 138.897204 
L 311.854134 138.415484 
L 312.279799 138.415484 
L 312.492632 137.933763 
L 312.705464 137.933763 
L 312.918297 137.452043 
L 322.495757 137.452043 
L 322.70859 136.970323 
L 324.411249 136.970323 
L 324.624082 136.488602 
L 326.965239 136.488602 
L 327.178071 136.006882 
L 335.478537 136.006882 
L 335.69137 135.525161 
L 338.245359 135.525161 
L 338.458192 135.043441 
L 338.671024 134.08 
L 338.883857 134.08 
L 339.096689 133.59828 
L 340.586516 133.59828 
L 341.012181 132.634839 
L 347.609987 132.634839 
L 347.82282 132.153118 
L 352.505134 132.153118 
L 352.717966 131.671398 
L 353.143631 131.671398 
L 353.356464 131.189677 
L 353.569296 130.226237 
L 356.761783 130.226237 
L 357.187448 127.335914 
L 357.400281 118.183226 
L 357.613113 116.738065 
L 357.825945 116.256344 
L 358.038778 114.329462 
L 358.464443 113.366022 
L 358.890108 111.43914 
L 359.10294 111.43914 
L 359.315773 110.957419 
L 359.741438 109.512258 
L 359.95427 104.213333 
L 360.592767 101.804731 
L 361.231265 101.804731 
L 361.444097 101.323011 
L 362.295427 97.469247 
L 362.721092 97.469247 
L 362.933925 96.505806 
L 364.210919 96.505806 
L 364.636584 95.060645 
L 365.275082 95.060645 
L 365.487914 94.578925 
L 365.913579 94.578925 
L 366.126411 94.097204 
L 366.339244 94.097204 
L 366.764909 93.133763 
L 368.254736 93.133763 
L 368.467568 92.652043 
L 368.893233 92.652043 
L 369.106066 92.170323 
L 372.08572 92.170323 
L 372.93705 90.243441 
L 374.214045 90.243441 
L 374.426877 89.76172 
L 375.065375 89.76172 
L 375.278207 89.28 
L 375.916705 89.28 
L 375.916705 89.28 
" clip-path="url(#p8681dfac06)" style="fill: none; stroke: #c957db; stroke-width: 1.2; stroke-linecap: round"/>
   </g>
   <g id="line2d_34"/>
   <g id="line2d_35"/>
   <g id="line2d_36"/>
   <g id="line2d_37"/>
   <g id="line2d_38"/>
   <g id="patch_3">
    <path d="M 54.3375 512.64 
L 54.3375 69.12 
" style="fill: none; stroke: #cccccc; stroke-linejoin: miter; stroke-linecap: square"/>
   </g>
   <g id="patch_4">
    <path d="M 54.3375 512.64 
L 391.23 512.64 
" style="fill: none; stroke: #cccccc; stroke-linejoin: miter; stroke-linecap: square"/>
   </g>
   <g id="text_31">
    <!-- Edge Coverage History -->
    <g style="fill: #262626" transform="translate(115.892262 63.12)scale(0.165888 -0.165888)">
     <defs>
      <path id="DejaVuSans-Bold-45" d="M 588 4666 
L 3834 4666 
L 3834 3756 
L 1791 3756 
L 1791 2888 
L 3713 2888 
L 3713 1978 
L 1791 1978 
L 1791 909 
L 3903 909 
L 3903 0 
L 588 0 
L 588 4666 
z
" transform="scale(0.015625)"/>
      <path id="DejaVuSans-Bold-64" d="M 2919 2988 
L 2919 4863 
L 4044 4863 
L 4044 0 
L 2919 0 
L 2919 506 
Q 2688 197 2409 53 
Q 2131 -91 1766 -91 
Q 1119 -91 703 423 
Q 288 938 288 1747 
Q 288 2556 703 3070 
Q 1119 3584 1766 3584 
Q 2128 3584 2408 3439 
Q 2688 3294 2919 2988 
z
M 2181 722 
Q 2541 722 2730 984 
Q 2919 1247 2919 1747 
Q 2919 2247 2730 2509 
Q 2541 2772 2181 2772 
Q 1825 2772 1636 2509 
Q 1447 2247 1447 1747 
Q 1447 1247 1636 984 
Q 1825 722 2181 722 
z
" transform="scale(0.015625)"/>
      <path id="DejaVuSans-Bold-67" d="M 2919 594 
Q 2688 288 2409 144 
Q 2131 0 1766 0 
Q 1125 0 706 504 
Q 288 1009 288 1791 
Q 288 2575 706 3076 
Q 1125 3578 1766 3578 
Q 2131 3578 2409 3434 
Q 2688 3291 2919 2981 
L 2919 3500 
L 4044 3500 
L 4044 353 
Q 4044 -491 3511 -936 
Q 2978 -1381 1966 -1381 
Q 1638 -1381 1331 -1331 
Q 1025 -1281 716 -1178 
L 716 -306 
Q 1009 -475 1290 -558 
Q 1572 -641 1856 -641 
Q 2406 -641 2662 -400 
Q 2919 -159 2919 353 
L 2919 594 
z
M 2181 2772 
Q 1834 2772 1640 2515 
Q 1447 2259 1447 1791 
Q 1447 1309 1634 1061 
Q 1822 813 2181 813 
Q 2531 813 2725 1069 
Q 2919 1325 2919 1791 
Q 2919 2259 2725 2515 
Q 2531 2772 2181 2772 
z
" transform="scale(0.015625)"/>
      <path id="DejaVuSans-Bold-65" d="M 4031 1759 
L 4031 1441 
L 1416 1441 
Q 1456 1047 1700 850 
Q 1944 653 2381 653 
Q 2734 653 3104 758 
Q 3475 863 3866 1075 
L 3866 213 
Q 3469 63 3072 -14 
Q 2675 -91 2278 -91 
Q 1328 -91 801 392 
Q 275 875 275 1747 
Q 275 2603 792 3093 
Q 1309 3584 2216 3584 
Q 3041 3584 3536 3087 
Q 4031 2591 4031 1759 
z
M 2881 2131 
Q 2881 2450 2695 2645 
Q 2509 2841 2209 2841 
Q 1884 2841 1681 2658 
Q 1478 2475 1428 2131 
L 2881 2131 
z
" transform="scale(0.015625)"/>
      <path id="DejaVuSans-Bold-20" transform="scale(0.015625)"/>
      <path id="DejaVuSans-Bold-43" d="M 4288 256 
Q 3956 84 3597 -3 
Q 3238 -91 2847 -91 
Q 1681 -91 1000 561 
Q 319 1213 319 2328 
Q 319 3447 1000 4098 
Q 1681 4750 2847 4750 
Q 3238 4750 3597 4662 
Q 3956 4575 4288 4403 
L 4288 3438 
Q 3953 3666 3628 3772 
Q 3303 3878 2944 3878 
Q 2300 3878 1931 3465 
Q 1563 3053 1563 2328 
Q 1563 1606 1931 1193 
Q 2300 781 2944 781 
Q 3303 781 3628 887 
Q 3953 994 4288 1222 
L 4288 256 
z
" transform="scale(0.015625)"/>
      <path id="DejaVuSans-Bold-6f" d="M 2203 2784 
Q 1831 2784 1636 2517 
Q 1441 2250 1441 1747 
Q 1441 1244 1636 976 
Q 1831 709 2203 709 
Q 2569 709 2762 976 
Q 2956 1244 2956 1747 
Q 2956 2250 2762 2517 
Q 2569 2784 2203 2784 
z
M 2203 3584 
Q 3106 3584 3614 3096 
Q 4122 2609 4122 1747 
Q 4122 884 3614 396 
Q 3106 -91 2203 -91 
Q 1297 -91 786 396 
Q 275 884 275 1747 
Q 275 2609 786 3096 
Q 1297 3584 2203 3584 
z
" transform="scale(0.015625)"/>
      <path id="DejaVuSans-Bold-76" d="M 97 3500 
L 1216 3500 
L 2088 1081 
L 2956 3500 
L 4078 3500 
L 2700 0 
L 1472 0 
L 97 3500 
z
" transform="scale(0.015625)"/>
      <path id="DejaVuSans-Bold-72" d="M 3138 2547 
Q 2991 2616 2845 2648 
Q 2700 2681 2553 2681 
Q 2122 2681 1889 2404 
Q 1656 2128 1656 1613 
L 1656 0 
L 538 0 
L 538 3500 
L 1656 3500 
L 1656 2925 
Q 1872 3269 2151 3426 
Q 2431 3584 2822 3584 
Q 2878 3584 2943 3579 
Q 3009 3575 3134 3559 
L 3138 2547 
z
" transform="scale(0.015625)"/>
      <path id="DejaVuSans-Bold-61" d="M 2106 1575 
Q 1756 1575 1579 1456 
Q 1403 1338 1403 1106 
Q 1403 894 1545 773 
Q 1688 653 1941 653 
Q 2256 653 2472 879 
Q 2688 1106 2688 1447 
L 2688 1575 
L 2106 1575 
z
M 3816 1997 
L 3816 0 
L 2688 0 
L 2688 519 
Q 2463 200 2181 54 
Q 1900 -91 1497 -91 
Q 953 -91 614 226 
Q 275 544 275 1050 
Q 275 1666 698 1953 
Q 1122 2241 2028 2241 
L 2688 2241 
L 2688 2328 
Q 2688 2594 2478 2717 
Q 2269 2841 1825 2841 
Q 1466 2841 1156 2769 
Q 847 2697 581 2553 
L 581 3406 
Q 941 3494 1303 3539 
Q 1666 3584 2028 3584 
Q 2975 3584 3395 3211 
Q 3816 2838 3816 1997 
z
" transform="scale(0.015625)"/>
      <path id="DejaVuSans-Bold-48" d="M 588 4666 
L 1791 4666 
L 1791 2888 
L 3566 2888 
L 3566 4666 
L 4769 4666 
L 4769 0 
L 3566 0 
L 3566 1978 
L 1791 1978 
L 1791 0 
L 588 0 
L 588 4666 
z
" transform="scale(0.015625)"/>
      <path id="DejaVuSans-Bold-69" d="M 538 3500 
L 1656 3500 
L 1656 0 
L 538 0 
L 538 3500 
z
M 538 4863 
L 1656 4863 
L 1656 3950 
L 538 3950 
L 538 4863 
z
" transform="scale(0.015625)"/>
      <path id="DejaVuSans-Bold-73" d="M 3272 3391 
L 3272 2541 
Q 2913 2691 2578 2766 
Q 2244 2841 1947 2841 
Q 1628 2841 1473 2761 
Q 1319 2681 1319 2516 
Q 1319 2381 1436 2309 
Q 1553 2238 1856 2203 
L 2053 2175 
Q 2913 2066 3209 1816 
Q 3506 1566 3506 1031 
Q 3506 472 3093 190 
Q 2681 -91 1863 -91 
Q 1516 -91 1145 -36 
Q 775 19 384 128 
L 384 978 
Q 719 816 1070 734 
Q 1422 653 1784 653 
Q 2113 653 2278 743 
Q 2444 834 2444 1013 
Q 2444 1163 2330 1236 
Q 2216 1309 1875 1350 
L 1678 1375 
Q 931 1469 631 1722 
Q 331 1975 331 2491 
Q 331 3047 712 3315 
Q 1094 3584 1881 3584 
Q 2191 3584 2531 3537 
Q 2872 3491 3272 3391 
z
" transform="scale(0.015625)"/>
      <path id="DejaVuSans-Bold-74" d="M 1759 4494 
L 1759 3500 
L 2913 3500 
L 2913 2700 
L 1759 2700 
L 1759 1216 
Q 1759 972 1856 886 
Q 1953 800 2241 800 
L 2816 800 
L 2816 0 
L 1856 0 
Q 1194 0 917 276 
Q 641 553 641 1216 
L 641 2700 
L 84 2700 
L 84 3500 
L 641 3500 
L 641 4494 
L 1759 4494 
z
" transform="scale(0.015625)"/>
      <path id="DejaVuSans-Bold-79" d="M 78 3500 
L 1197 3500 
L 2138 1125 
L 2938 3500 
L 4056 3500 
L 2584 -331 
Q 2363 -916 2067 -1148 
Q 1772 -1381 1288 -1381 
L 641 -1381 
L 641 -647 
L 991 -647 
Q 1275 -647 1404 -556 
Q 1534 -466 1606 -231 
L 1638 -134 
L 78 3500 
z
" transform="scale(0.015625)"/>
     </defs>
     <use xlink:href="#DejaVuSans-Bold-45"/>
     <use xlink:href="#DejaVuSans-Bold-64" x="68.310547"/>
     <use xlink:href="#DejaVuSans-Bold-67" x="139.892578"/>
     <use xlink:href="#DejaVuSans-Bold-65" x="211.474609"/>
     <use xlink:href="#DejaVuSans-Bold-20" x="279.296875"/>
     <use xlink:href="#DejaVuSans-Bold-43" x="314.111328"/>
     <use xlink:href="#DejaVuSans-Bold-6f" x="387.5"/>
     <use xlink:href="#DejaVuSans-Bold-76" x="456.201172"/>
     <use xlink:href="#DejaVuSans-Bold-65" x="521.386719"/>
     <use xlink:href="#DejaVuSans-Bold-72" x="589.208984"/>
     <use xlink:href="#DejaVuSans-Bold-61" x="638.525391"/>
     <use xlink:href="#DejaVuSans-Bold-67" x="706.005859"/>
     <use xlink:href="#DejaVuSans-Bold-65" x="777.587891"/>
     <use xlink:href="#DejaVuSans-Bold-20" x="845.410156"/>
     <use xlink:href="#DejaVuSans-Bold-48" x="880.224609"/>
     <use xlink:href="#DejaVuSans-Bold-69" x="963.916016"/>
     <use xlink:href="#DejaVuSans-Bold-73" x="998.193359"/>
     <use xlink:href="#DejaVuSans-Bold-74" x="1057.714844"/>
     <use xlink:href="#DejaVuSans-Bold-6f" x="1105.517578"/>
     <use xlink:href="#DejaVuSans-Bold-72" x="1174.21875"/>
     <use xlink:href="#DejaVuSans-Bold-79" x="1223.535156"/>
    </g>
   </g>
   <g id="legend_1">
    <g id="patch_5">
     <path d="M 60.4975 154.6795 
L 177.6255 154.6795 
Q 179.3855 154.6795 179.3855 152.9195 
L 179.3855 75.28 
Q 179.3855 73.52 177.6255 73.52 
L 60.4975 73.52 
Q 58.7375 73.52 58.7375 75.28 
L 58.7375 152.9195 
Q 58.7375 154.6795 60.4975 154.6795 
z
" style="fill: #ffffff; opacity: 0.8; stroke: #cccccc; stroke-width: 0.8; stroke-linejoin: miter"/>
    </g>
    <g id="text_32">
     <!-- fuzzer -->
     <g style="fill: #262626" transform="translate(104.3645 84.3345)scale(0.096 -0.096)">
      <defs>
       <path id="DejaVuSans-66" d="M 2375 4863 
L 2375 4384 
L 1825 4384 
Q 1516 4384 1395 4259 
Q 1275 4134 1275 3809 
L 1275 3500 
L 2222 3500 
L 2222 3053 
L 1275 3053 
L 1275 0 
L 697 0 
L 697 3053 
L 147 3053 
L 147 3500 
L 697 3500 
L 697 3744 
Q 697 4328 969 4595 
Q 1241 4863 1831 4863 
L 2375 4863 
z
" transform="scale(0.015625)"/>
       <path id="DejaVuSans-7a" d="M 353 3500 
L 3084 3500 
L 3084 2975 
L 922 459 
L 3084 459 
L 3084 0 
L 275 0 
L 275 525 
L 2438 3041 
L 353 3041 
L 353 3500 
z
" transform="scale(0.015625)"/>
      </defs>
      <use xlink:href="#DejaVuSans-66"/>
      <use xlink:href="#DejaVuSans-75" x="35.205078"/>
      <use xlink:href="#DejaVuSans-7a" x="98.583984"/>
      <use xlink:href="#DejaVuSans-7a" x="151.074219"/>
      <use xlink:href="#DejaVuSans-65" x="203.564453"/>
      <use xlink:href="#DejaVuSans-72" x="265.087891"/>
     </g>
    </g>
    <g id="line2d_39">
     <path d="M 62.2575 94.337625 
L 71.0575 94.337625 
L 79.8575 94.337625 
" style="fill: none; stroke: #db5f57; stroke-width: 1.2; stroke-linecap: round"/>
    </g>
    <g id="text_33">
     <!-- afl-0-exid20 -->
     <g style="fill: #262626" transform="translate(86.8975 97.417625)scale(0.088 -0.088)">
      <defs>
       <path id="DejaVuSans-6c" d="M 603 4863 
L 1178 4863 
L 1178 0 
L 603 0 
L 603 4863 
z
" transform="scale(0.015625)"/>
       <path id="DejaVuSans-2d" d="M 313 2009 
L 1997 2009 
L 1997 1497 
L 313 1497 
L 313 2009 
z
" transform="scale(0.015625)"/>
       <path id="DejaVuSans-78" d="M 3513 3500 
L 2247 1797 
L 3578 0 
L 2900 0 
L 1881 1375 
L 863 0 
L 184 0 
L 1544 1831 
L 300 3500 
L 978 3500 
L 1906 2253 
L 2834 3500 
L 3513 3500 
z
" transform="scale(0.015625)"/>
      </defs>
      <use xlink:href="#DejaVuSans-61"/>
      <use xlink:href="#DejaVuSans-66" x="61.279297"/>
      <use xlink:href="#DejaVuSans-6c" x="96.484375"/>
      <use xlink:href="#DejaVuSans-2d" x="124.267578"/>
      <use xlink:href="#DejaVuSans-30" x="160.351562"/>
      <use xlink:href="#DejaVuSans-2d" x="223.974609"/>
      <use xlink:href="#DejaVuSans-65" x="260.058594"/>
      <use xlink:href="#DejaVuSans-78" x="319.832031"/>
      <use xlink:href="#DejaVuSans-69" x="379.011719"/>
      <use xlink:href="#DejaVuSans-64" x="406.794922"/>
      <use xlink:href="#DejaVuSans-32" x="470.271484"/>
      <use xlink:href="#DejaVuSans-30" x="533.894531"/>
     </g>
    </g>
    <g id="line2d_40">
     <path d="M 62.2575 107.254375 
L 71.0575 107.254375 
L 79.8575 107.254375 
" style="fill: none; stroke: #b9db57; stroke-width: 1.2; stroke-linecap: round"/>
    </g>
    <g id="text_34">
     <!-- aflplusplus-0-exid20 -->
     <g style="fill: #262626" transform="translate(86.8975 110.334375)scale(0.088 -0.088)">
      <defs>
       <path id="DejaVuSans-70" d="M 1159 525 
L 1159 -1331 
L 581 -1331 
L 581 3500 
L 1159 3500 
L 1159 2969 
Q 1341 3281 1617 3432 
Q 1894 3584 2278 3584 
Q 2916 3584 3314 3078 
Q 3713 2572 3713 1747 
Q 3713 922 3314 415 
Q 2916 -91 2278 -91 
Q 1894 -91 1617 61 
Q 1341 213 1159 525 
z
M 3116 1747 
Q 3116 2381 2855 2742 
Q 2594 3103 2138 3103 
Q 1681 3103 1420 2742 
Q 1159 2381 1159 1747 
Q 1159 1113 1420 752 
Q 1681 391 2138 391 
Q 2594 391 2855 752 
Q 3116 1113 3116 1747 
z
" transform="scale(0.015625)"/>
      </defs>
      <use xlink:href="#DejaVuSans-61"/>
      <use xlink:href="#DejaVuSans-66" x="61.279297"/>
      <use xlink:href="#DejaVuSans-6c" x="96.484375"/>
      <use xlink:href="#DejaVuSans-70" x="124.267578"/>
      <use xlink:href="#DejaVuSans-6c" x="187.744141"/>
      <use xlink:href="#DejaVuSans-75" x="215.527344"/>
      <use xlink:href="#DejaVuSans-73" x="278.90625"/>
      <use xlink:href="#DejaVuSans-70" x="331.005859"/>
      <use xlink:href="#DejaVuSans-6c" x="394.482422"/>
      <use xlink:href="#DejaVuSans-75" x="422.265625"/>
      <use xlink:href="#DejaVuSans-73" x="485.644531"/>
      <use xlink:href="#DejaVuSans-2d" x="537.744141"/>
      <use xlink:href="#DejaVuSans-30" x="573.828125"/>
      <use xlink:href="#DejaVuSans-2d" x="637.451172"/>
      <use xlink:href="#DejaVuSans-65" x="673.535156"/>
      <use xlink:href="#DejaVuSans-78" x="733.308594"/>
      <use xlink:href="#DejaVuSans-69" x="792.488281"/>
      <use xlink:href="#DejaVuSans-64" x="820.271484"/>
      <use xlink:href="#DejaVuSans-32" x="883.748047"/>
      <use xlink:href="#DejaVuSans-30" x="947.371094"/>
     </g>
    </g>
    <g id="line2d_41">
     <path d="M 62.2575 120.171125 
L 71.0575 120.171125 
L 79.8575 120.171125 
" style="fill: none; stroke: #57db94; stroke-width: 1.2; stroke-linecap: round"/>
    </g>
    <g id="text_35">
     <!-- aflfast-0-exid20 -->
     <g style="fill: #262626" transform="translate(86.8975 123.251125)scale(0.088 -0.088)">
      <use xlink:href="#DejaVuSans-61"/>
      <use xlink:href="#DejaVuSans-66" x="61.279297"/>
      <use xlink:href="#DejaVuSans-6c" x="96.484375"/>
      <use xlink:href="#DejaVuSans-66" x="124.267578"/>
      <use xlink:href="#DejaVuSans-61" x="159.472656"/>
      <use xlink:href="#DejaVuSans-73" x="220.751953"/>
      <use xlink:href="#DejaVuSans-74" x="272.851562"/>
      <use xlink:href="#DejaVuSans-2d" x="312.060547"/>
      <use xlink:href="#DejaVuSans-30" x="348.144531"/>
      <use xlink:href="#DejaVuSans-2d" x="411.767578"/>
      <use xlink:href="#DejaVuSans-65" x="447.851562"/>
      <use xlink:href="#DejaVuSans-78" x="507.625"/>
      <use xlink:href="#DejaVuSans-69" x="566.804688"/>
      <use xlink:href="#DejaVuSans-64" x="594.587891"/>
      <use xlink:href="#DejaVuSans-32" x="658.064453"/>
      <use xlink:href="#DejaVuSans-30" x="721.6875"/>
     </g>
    </g>
    <g id="line2d_42">
     <path d="M 62.2575 133.087875 
L 71.0575 133.087875 
L 79.8575 133.087875 
" style="fill: none; stroke: #5784db; stroke-width: 1.2; stroke-linecap: round"/>
    </g>
    <g id="text_36">
     <!-- fairfuzz-0-exid20 -->
     <g style="fill: #262626" transform="translate(86.8975 136.167875)scale(0.088 -0.088)">
      <use xlink:href="#DejaVuSans-66"/>
      <use xlink:href="#DejaVuSans-61" x="35.205078"/>
      <use xlink:href="#DejaVuSans-69" x="96.484375"/>
      <use xlink:href="#DejaVuSans-72" x="124.267578"/>
      <use xlink:href="#DejaVuSans-66" x="165.380859"/>
      <use xlink:href="#DejaVuSans-75" x="200.585938"/>
      <use xlink:href="#DejaVuSans-7a" x="263.964844"/>
      <use xlink:href="#DejaVuSans-7a" x="316.455078"/>
      <use xlink:href="#DejaVuSans-2d" x="368.945312"/>
      <use xlink:href="#DejaVuSans-30" x="405.029297"/>
      <use xlink:href="#DejaVuSans-2d" x="468.652344"/>
      <use xlink:href="#DejaVuSans-65" x="504.736328"/>
      <use xlink:href="#DejaVuSans-78" x="564.509766"/>
      <use xlink:href="#DejaVuSans-69" x="623.689453"/>
      <use xlink:href="#DejaVuSans-64" x="651.472656"/>
      <use xlink:href="#DejaVuSans-32" x="714.949219"/>
      <use xlink:href="#DejaVuSans-30" x="778.572266"/>
     </g>
    </g>
    <g id="line2d_43">
     <path d="M 62.2575 146.004625 
L 71.0575 146.004625 
L 79.8575 146.004625 
" style="fill: none; stroke: #c957db; stroke-width: 1.2; stroke-linecap: round"/>
    </g>
    <g id="text_37">
     <!-- fuzzer_global -->
     <g style="fill: #262626" transform="translate(86.8975 149.084625)scale(0.088 -0.088)">
      <defs>
       <path id="DejaVuSans-5f" d="M 3263 -1063 
L 3263 -1509 
L -63 -1509 
L -63 -1063 
L 3263 -1063 
z
" transform="scale(0.015625)"/>
       <path id="DejaVuSans-62" d="M 3116 1747 
Q 3116 2381 2855 2742 
Q 2594 3103 2138 3103 
Q 1681 3103 1420 2742 
Q 1159 2381 1159 1747 
Q 1159 1113 1420 752 
Q 1681 391 2138 391 
Q 2594 391 2855 752 
Q 3116 1113 3116 1747 
z
M 1159 2969 
Q 1341 3281 1617 3432 
Q 1894 3584 2278 3584 
Q 2916 3584 3314 3078 
Q 3713 2572 3713 1747 
Q 3713 922 3314 415 
Q 2916 -91 2278 -91 
Q 1894 -91 1617 61 
Q 1341 213 1159 525 
L 1159 0 
L 581 0 
L 581 4863 
L 1159 4863 
L 1159 2969 
z
" transform="scale(0.015625)"/>
      </defs>
      <use xlink:href="#DejaVuSans-66"/>
      <use xlink:href="#DejaVuSans-75" x="35.205078"/>
      <use xlink:href="#DejaVuSans-7a" x="98.583984"/>
      <use xlink:href="#DejaVuSans-7a" x="151.074219"/>
      <use xlink:href="#DejaVuSans-65" x="203.564453"/>
      <use xlink:href="#DejaVuSans-72" x="265.087891"/>
      <use xlink:href="#DejaVuSans-5f" x="306.201172"/>
      <use xlink:href="#DejaVuSans-67" x="356.201172"/>
      <use xlink:href="#DejaVuSans-6c" x="419.677734"/>
      <use xlink:href="#DejaVuSans-6f" x="447.460938"/>
      <use xlink:href="#DejaVuSans-62" x="508.642578"/>
      <use xlink:href="#DejaVuSans-61" x="572.119141"/>
      <use xlink:href="#DejaVuSans-6c" x="633.398438"/>
     </g>
    </g>
   </g>
  </g>
 </g>
 <defs>
  <clipPath id="p8681dfac06">
   <rect x="54.3375" y="69.12" width="336.8925" height="443.52"/>
  </clipPath>
 </defs>
</svg>
