<?xml version="1.0" encoding="utf-8" standalone="no"?>
<!DOCTYPE svg PUBLIC "-//W3C//DTD SVG 1.1//EN"
  "http://www.w3.org/Graphics/SVG/1.1/DTD/svg11.dtd">
<svg xmlns:xlink="http://www.w3.org/1999/xlink" width="434.7pt" height="576pt" viewBox="0 0 434.7 576" xmlns="http://www.w3.org/2000/svg" version="1.1">
 <metadata>
  <rdf:RDF xmlns:dc="http://purl.org/dc/elements/1.1/" xmlns:cc="http://creativecommons.org/ns#" xmlns:rdf="http://www.w3.org/1999/02/22-rdf-syntax-ns#">
   <cc:Work>
    <dc:type rdf:resource="http://purl.org/dc/dcmitype/StillImage"/>
    <dc:date>2022-09-15T10:23:52.435842</dc:date>
    <dc:format>image/svg+xml</dc:format>
    <dc:creator>
     <cc:Agent>
      <dc:title>Matplotlib v3.5.3, https://matplotlib.org/</dc:title>
     </cc:Agent>
    </dc:creator>
   </cc:Work>
  </rdf:RDF>
 </metadata>
 <defs>
  <style type="text/css">*{stroke-linejoin: round; stroke-linecap: butt}</style>
 </defs>
 <g id="figure_1">
  <g id="patch_1">
   <path d="M 0 576 
L 434.7 576 
L 434.7 0 
L 0 0 
z
" style="fill: #ffffff"/>
  </g>
  <g id="axes_1">
   <g id="patch_2">
    <path d="M 54.3375 512.64 
L 391.23 512.64 
L 391.23 69.12 
L 54.3375 69.12 
z
" style="fill: #ffffff"/>
   </g>
   <g id="matplotlib.axis_1">
    <g id="xtick_1">
     <g id="line2d_1">
      <path d="M 69.650795 512.64 
L 69.650795 69.12 
" clip-path="url(#p937e9b3832)" style="fill: none; stroke: #cccccc; stroke-width: 0.8; stroke-linecap: round"/>
     </g>
     <g id="text_1">
      <!-- 0 -->
      <g style="fill: #262626" transform="translate(69.388282 529.627249)rotate(-45)scale(0.088 -0.088)">
       <defs>
        <path id="DejaVuSans-30" d="M 2034 4250 
Q 1547 4250 1301 3770 
Q 1056 3291 1056 2328 
Q 1056 1369 1301 889 
Q 1547 409 2034 409 
Q 2525 409 2770 889 
Q 3016 1369 3016 2328 
Q 3016 3291 2770 3770 
Q 2525 4250 2034 4250 
z
M 2034 4750 
Q 2819 4750 3233 4129 
Q 3647 3509 3647 2328 
Q 3647 1150 3233 529 
Q 2819 -91 2034 -91 
Q 1250 -91 836 529 
Q 422 1150 422 2328 
Q 422 3509 836 4129 
Q 1250 4750 2034 4750 
z
" transform="scale(0.015625)"/>
       </defs>
       <use xlink:href="#DejaVuSans-30"/>
      </g>
     </g>
    </g>
    <g id="xtick_2">
     <g id="line2d_2">
      <path d="M 86.677392 512.64 
L 86.677392 69.12 
" clip-path="url(#p937e9b3832)" style="fill: none; stroke: #cccccc; stroke-width: 0.8; stroke-linecap: round"/>
     </g>
     <g id="text_2">
      <!-- 80 -->
      <g style="fill: #262626" transform="translate(84.435333 533.58634)rotate(-45)scale(0.088 -0.088)">
       <defs>
        <path id="DejaVuSans-38" d="M 2034 2216 
Q 1584 2216 1326 1975 
Q 1069 1734 1069 1313 
Q 1069 891 1326 650 
Q 1584 409 2034 409 
Q 2484 409 2743 651 
Q 3003 894 3003 1313 
Q 3003 1734 2745 1975 
Q 2488 2216 2034 2216 
z
M 1403 2484 
Q 997 2584 770 2862 
Q 544 3141 544 3541 
Q 544 4100 942 4425 
Q 1341 4750 2034 4750 
Q 2731 4750 3128 4425 
Q 3525 4100 3525 3541 
Q 3525 3141 3298 2862 
Q 3072 2584 2669 2484 
Q 3125 2378 3379 2068 
Q 3634 1759 3634 1313 
Q 3634 634 3220 271 
Q 2806 -91 2034 -91 
Q 1263 -91 848 271 
Q 434 634 434 1313 
Q 434 1759 690 2068 
Q 947 2378 1403 2484 
z
M 1172 3481 
Q 1172 3119 1398 2916 
Q 1625 2713 2034 2713 
Q 2441 2713 2670 2916 
Q 2900 3119 2900 3481 
Q 2900 3844 2670 4047 
Q 2441 4250 2034 4250 
Q 1625 4250 1398 4047 
Q 1172 3844 1172 3481 
z
" transform="scale(0.015625)"/>
       </defs>
       <use xlink:href="#DejaVuSans-38"/>
       <use xlink:href="#DejaVuSans-30" x="63.623047"/>
      </g>
     </g>
    </g>
    <g id="xtick_3">
     <g id="line2d_3">
      <path d="M 103.703989 512.64 
L 103.703989 69.12 
" clip-path="url(#p937e9b3832)" style="fill: none; stroke: #cccccc; stroke-width: 0.8; stroke-linecap: round"/>
     </g>
     <g id="text_3">
      <!-- 160 -->
      <g style="fill: #262626" transform="translate(99.482385 537.54543)rotate(-45)scale(0.088 -0.088)">
       <defs>
        <path id="DejaVuSans-31" d="M 794 531 
L 1825 531 
L 1825 4091 
L 703 3866 
L 703 4441 
L 1819 4666 
L 2450 4666 
L 2450 531 
L 3481 531 
L 3481 0 
L 794 0 
L 794 531 
z
" transform="scale(0.015625)"/>
        <path id="DejaVuSans-36" d="M 2113 2584 
Q 1688 2584 1439 2293 
Q 1191 2003 1191 1497 
Q 1191 994 1439 701 
Q 1688 409 2113 409 
Q 2538 409 2786 701 
Q 3034 994 3034 1497 
Q 3034 2003 2786 2293 
Q 2538 2584 2113 2584 
z
M 3366 4563 
L 3366 3988 
Q 3128 4100 2886 4159 
Q 2644 4219 2406 4219 
Q 1781 4219 1451 3797 
Q 1122 3375 1075 2522 
Q 1259 2794 1537 2939 
Q 1816 3084 2150 3084 
Q 2853 3084 3261 2657 
Q 3669 2231 3669 1497 
Q 3669 778 3244 343 
Q 2819 -91 2113 -91 
Q 1303 -91 875 529 
Q 447 1150 447 2328 
Q 447 3434 972 4092 
Q 1497 4750 2381 4750 
Q 2619 4750 2861 4703 
Q 3103 4656 3366 4563 
z
" transform="scale(0.015625)"/>
       </defs>
       <use xlink:href="#DejaVuSans-31"/>
       <use xlink:href="#DejaVuSans-36" x="63.623047"/>
       <use xlink:href="#DejaVuSans-30" x="127.246094"/>
      </g>
     </g>
    </g>
    <g id="xtick_4">
     <g id="line2d_4">
      <path d="M 120.730586 512.64 
L 120.730586 69.12 
" clip-path="url(#p937e9b3832)" style="fill: none; stroke: #cccccc; stroke-width: 0.8; stroke-linecap: round"/>
     </g>
     <g id="text_4">
      <!-- 240 -->
      <g style="fill: #262626" transform="translate(116.508981 537.54543)rotate(-45)scale(0.088 -0.088)">
       <defs>
        <path id="DejaVuSans-32" d="M 1228 531 
L 3431 531 
L 3431 0 
L 469 0 
L 469 531 
Q 828 903 1448 1529 
Q 2069 2156 2228 2338 
Q 2531 2678 2651 2914 
Q 2772 3150 2772 3378 
Q 2772 3750 2511 3984 
Q 2250 4219 1831 4219 
Q 1534 4219 1204 4116 
Q 875 4013 500 3803 
L 500 4441 
Q 881 4594 1212 4672 
Q 1544 4750 1819 4750 
Q 2544 4750 2975 4387 
Q 3406 4025 3406 3419 
Q 3406 3131 3298 2873 
Q 3191 2616 2906 2266 
Q 2828 2175 2409 1742 
Q 1991 1309 1228 531 
z
" transform="scale(0.015625)"/>
        <path id="DejaVuSans-34" d="M 2419 4116 
L 825 1625 
L 2419 1625 
L 2419 4116 
z
M 2253 4666 
L 3047 4666 
L 3047 1625 
L 3713 1625 
L 3713 1100 
L 3047 1100 
L 3047 0 
L 2419 0 
L 2419 1100 
L 313 1100 
L 313 1709 
L 2253 4666 
z
" transform="scale(0.015625)"/>
       </defs>
       <use xlink:href="#DejaVuSans-32"/>
       <use xlink:href="#DejaVuSans-34" x="63.623047"/>
       <use xlink:href="#DejaVuSans-30" x="127.246094"/>
      </g>
     </g>
    </g>
    <g id="xtick_5">
     <g id="line2d_5">
      <path d="M 137.757182 512.64 
L 137.757182 69.12 
" clip-path="url(#p937e9b3832)" style="fill: none; stroke: #cccccc; stroke-width: 0.8; stroke-linecap: round"/>
     </g>
     <g id="text_5">
      <!-- 320 -->
      <g style="fill: #262626" transform="translate(133.535578 537.54543)rotate(-45)scale(0.088 -0.088)">
       <defs>
        <path id="DejaVuSans-33" d="M 2597 2516 
Q 3050 2419 3304 2112 
Q 3559 1806 3559 1356 
Q 3559 666 3084 287 
Q 2609 -91 1734 -91 
Q 1441 -91 1130 -33 
Q 819 25 488 141 
L 488 750 
Q 750 597 1062 519 
Q 1375 441 1716 441 
Q 2309 441 2620 675 
Q 2931 909 2931 1356 
Q 2931 1769 2642 2001 
Q 2353 2234 1838 2234 
L 1294 2234 
L 1294 2753 
L 1863 2753 
Q 2328 2753 2575 2939 
Q 2822 3125 2822 3475 
Q 2822 3834 2567 4026 
Q 2313 4219 1838 4219 
Q 1578 4219 1281 4162 
Q 984 4106 628 3988 
L 628 4550 
Q 988 4650 1302 4700 
Q 1616 4750 1894 4750 
Q 2613 4750 3031 4423 
Q 3450 4097 3450 3541 
Q 3450 3153 3228 2886 
Q 3006 2619 2597 2516 
z
" transform="scale(0.015625)"/>
       </defs>
       <use xlink:href="#DejaVuSans-33"/>
       <use xlink:href="#DejaVuSans-32" x="63.623047"/>
       <use xlink:href="#DejaVuSans-30" x="127.246094"/>
      </g>
     </g>
    </g>
    <g id="xtick_6">
     <g id="line2d_6">
      <path d="M 154.783779 512.64 
L 154.783779 69.12 
" clip-path="url(#p937e9b3832)" style="fill: none; stroke: #cccccc; stroke-width: 0.8; stroke-linecap: round"/>
     </g>
     <g id="text_6">
      <!-- 400 -->
      <g style="fill: #262626" transform="translate(150.562175 537.54543)rotate(-45)scale(0.088 -0.088)">
       <use xlink:href="#DejaVuSans-34"/>
       <use xlink:href="#DejaVuSans-30" x="63.623047"/>
       <use xlink:href="#DejaVuSans-30" x="127.246094"/>
      </g>
     </g>
    </g>
    <g id="xtick_7">
     <g id="line2d_7">
      <path d="M 171.810376 512.64 
L 171.810376 69.12 
" clip-path="url(#p937e9b3832)" style="fill: none; stroke: #cccccc; stroke-width: 0.8; stroke-linecap: round"/>
     </g>
     <g id="text_7">
      <!-- 480 -->
      <g style="fill: #262626" transform="translate(167.588772 537.54543)rotate(-45)scale(0.088 -0.088)">
       <use xlink:href="#DejaVuSans-34"/>
       <use xlink:href="#DejaVuSans-38" x="63.623047"/>
       <use xlink:href="#DejaVuSans-30" x="127.246094"/>
      </g>
     </g>
    </g>
    <g id="xtick_8">
     <g id="line2d_8">
      <path d="M 188.836973 512.64 
L 188.836973 69.12 
" clip-path="url(#p937e9b3832)" style="fill: none; stroke: #cccccc; stroke-width: 0.8; stroke-linecap: round"/>
     </g>
     <g id="text_8">
      <!-- 560 -->
      <g style="fill: #262626" transform="translate(184.615368 537.54543)rotate(-45)scale(0.088 -0.088)">
       <defs>
        <path id="DejaVuSans-35" d="M 691 4666 
L 3169 4666 
L 3169 4134 
L 1269 4134 
L 1269 2991 
Q 1406 3038 1543 3061 
Q 1681 3084 1819 3084 
Q 2600 3084 3056 2656 
Q 3513 2228 3513 1497 
Q 3513 744 3044 326 
Q 2575 -91 1722 -91 
Q 1428 -91 1123 -41 
Q 819 9 494 109 
L 494 744 
Q 775 591 1075 516 
Q 1375 441 1709 441 
Q 2250 441 2565 725 
Q 2881 1009 2881 1497 
Q 2881 1984 2565 2268 
Q 2250 2553 1709 2553 
Q 1456 2553 1204 2497 
Q 953 2441 691 2322 
L 691 4666 
z
" transform="scale(0.015625)"/>
       </defs>
       <use xlink:href="#DejaVuSans-35"/>
       <use xlink:href="#DejaVuSans-36" x="63.623047"/>
       <use xlink:href="#DejaVuSans-30" x="127.246094"/>
      </g>
     </g>
    </g>
    <g id="xtick_9">
     <g id="line2d_9">
      <path d="M 205.863569 512.64 
L 205.863569 69.12 
" clip-path="url(#p937e9b3832)" style="fill: none; stroke: #cccccc; stroke-width: 0.8; stroke-linecap: round"/>
     </g>
     <g id="text_9">
      <!-- 640 -->
      <g style="fill: #262626" transform="translate(201.641965 537.54543)rotate(-45)scale(0.088 -0.088)">
       <use xlink:href="#DejaVuSans-36"/>
       <use xlink:href="#DejaVuSans-34" x="63.623047"/>
       <use xlink:href="#DejaVuSans-30" x="127.246094"/>
      </g>
     </g>
    </g>
    <g id="xtick_10">
     <g id="line2d_10">
      <path d="M 222.890166 512.64 
L 222.890166 69.12 
" clip-path="url(#p937e9b3832)" style="fill: none; stroke: #cccccc; stroke-width: 0.8; stroke-linecap: round"/>
     </g>
     <g id="text_10">
      <!-- 720 -->
      <g style="fill: #262626" transform="translate(218.668562 537.54543)rotate(-45)scale(0.088 -0.088)">
       <defs>
        <path id="DejaVuSans-37" d="M 525 4666 
L 3525 4666 
L 3525 4397 
L 1831 0 
L 1172 0 
L 2766 4134 
L 525 4134 
L 525 4666 
z
" transform="scale(0.015625)"/>
       </defs>
       <use xlink:href="#DejaVuSans-37"/>
       <use xlink:href="#DejaVuSans-32" x="63.623047"/>
       <use xlink:href="#DejaVuSans-30" x="127.246094"/>
      </g>
     </g>
    </g>
    <g id="xtick_11">
     <g id="line2d_11">
      <path d="M 239.916763 512.64 
L 239.916763 69.12 
" clip-path="url(#p937e9b3832)" style="fill: none; stroke: #cccccc; stroke-width: 0.8; stroke-linecap: round"/>
     </g>
     <g id="text_11">
      <!-- 800 -->
      <g style="fill: #262626" transform="translate(235.695159 537.54543)rotate(-45)scale(0.088 -0.088)">
       <use xlink:href="#DejaVuSans-38"/>
       <use xlink:href="#DejaVuSans-30" x="63.623047"/>
       <use xlink:href="#DejaVuSans-30" x="127.246094"/>
      </g>
     </g>
    </g>
    <g id="xtick_12">
     <g id="line2d_12">
      <path d="M 256.94336 512.64 
L 256.94336 69.12 
" clip-path="url(#p937e9b3832)" style="fill: none; stroke: #cccccc; stroke-width: 0.8; stroke-linecap: round"/>
     </g>
     <g id="text_12">
      <!-- 880 -->
      <g style="fill: #262626" transform="translate(252.721755 537.54543)rotate(-45)scale(0.088 -0.088)">
       <use xlink:href="#DejaVuSans-38"/>
       <use xlink:href="#DejaVuSans-38" x="63.623047"/>
       <use xlink:href="#DejaVuSans-30" x="127.246094"/>
      </g>
     </g>
    </g>
    <g id="xtick_13">
     <g id="line2d_13">
      <path d="M 273.969956 512.64 
L 273.969956 69.12 
" clip-path="url(#p937e9b3832)" style="fill: none; stroke: #cccccc; stroke-width: 0.8; stroke-linecap: round"/>
     </g>
     <g id="text_13">
      <!-- 960 -->
      <g style="fill: #262626" transform="translate(269.748352 537.54543)rotate(-45)scale(0.088 -0.088)">
       <defs>
        <path id="DejaVuSans-39" d="M 703 97 
L 703 672 
Q 941 559 1184 500 
Q 1428 441 1663 441 
Q 2288 441 2617 861 
Q 2947 1281 2994 2138 
Q 2813 1869 2534 1725 
Q 2256 1581 1919 1581 
Q 1219 1581 811 2004 
Q 403 2428 403 3163 
Q 403 3881 828 4315 
Q 1253 4750 1959 4750 
Q 2769 4750 3195 4129 
Q 3622 3509 3622 2328 
Q 3622 1225 3098 567 
Q 2575 -91 1691 -91 
Q 1453 -91 1209 -44 
Q 966 3 703 97 
z
M 1959 2075 
Q 2384 2075 2632 2365 
Q 2881 2656 2881 3163 
Q 2881 3666 2632 3958 
Q 2384 4250 1959 4250 
Q 1534 4250 1286 3958 
Q 1038 3666 1038 3163 
Q 1038 2656 1286 2365 
Q 1534 2075 1959 2075 
z
" transform="scale(0.015625)"/>
       </defs>
       <use xlink:href="#DejaVuSans-39"/>
       <use xlink:href="#DejaVuSans-36" x="63.623047"/>
       <use xlink:href="#DejaVuSans-30" x="127.246094"/>
      </g>
     </g>
    </g>
    <g id="xtick_14">
     <g id="line2d_14">
      <path d="M 290.996553 512.64 
L 290.996553 69.12 
" clip-path="url(#p937e9b3832)" style="fill: none; stroke: #cccccc; stroke-width: 0.8; stroke-linecap: round"/>
     </g>
     <g id="text_14">
      <!-- 1040 -->
      <g style="fill: #262626" transform="translate(284.795404 541.504521)rotate(-45)scale(0.088 -0.088)">
       <use xlink:href="#DejaVuSans-31"/>
       <use xlink:href="#DejaVuSans-30" x="63.623047"/>
       <use xlink:href="#DejaVuSans-34" x="127.246094"/>
       <use xlink:href="#DejaVuSans-30" x="190.869141"/>
      </g>
     </g>
    </g>
    <g id="xtick_15">
     <g id="line2d_15">
      <path d="M 308.02315 512.64 
L 308.02315 69.12 
" clip-path="url(#p937e9b3832)" style="fill: none; stroke: #cccccc; stroke-width: 0.8; stroke-linecap: round"/>
     </g>
     <g id="text_15">
      <!-- 1120 -->
      <g style="fill: #262626" transform="translate(301.822 541.504521)rotate(-45)scale(0.088 -0.088)">
       <use xlink:href="#DejaVuSans-31"/>
       <use xlink:href="#DejaVuSans-31" x="63.623047"/>
       <use xlink:href="#DejaVuSans-32" x="127.246094"/>
       <use xlink:href="#DejaVuSans-30" x="190.869141"/>
      </g>
     </g>
    </g>
    <g id="xtick_16">
     <g id="line2d_16">
      <path d="M 325.049747 512.64 
L 325.049747 69.12 
" clip-path="url(#p937e9b3832)" style="fill: none; stroke: #cccccc; stroke-width: 0.8; stroke-linecap: round"/>
     </g>
     <g id="text_16">
      <!-- 1200 -->
      <g style="fill: #262626" transform="translate(318.848597 541.504521)rotate(-45)scale(0.088 -0.088)">
       <use xlink:href="#DejaVuSans-31"/>
       <use xlink:href="#DejaVuSans-32" x="63.623047"/>
       <use xlink:href="#DejaVuSans-30" x="127.246094"/>
       <use xlink:href="#DejaVuSans-30" x="190.869141"/>
      </g>
     </g>
    </g>
    <g id="xtick_17">
     <g id="line2d_17">
      <path d="M 342.076343 512.64 
L 342.076343 69.12 
" clip-path="url(#p937e9b3832)" style="fill: none; stroke: #cccccc; stroke-width: 0.8; stroke-linecap: round"/>
     </g>
     <g id="text_17">
      <!-- 1280 -->
      <g style="fill: #262626" transform="translate(335.875194 541.504521)rotate(-45)scale(0.088 -0.088)">
       <use xlink:href="#DejaVuSans-31"/>
       <use xlink:href="#DejaVuSans-32" x="63.623047"/>
       <use xlink:href="#DejaVuSans-38" x="127.246094"/>
       <use xlink:href="#DejaVuSans-30" x="190.869141"/>
      </g>
     </g>
    </g>
    <g id="xtick_18">
     <g id="line2d_18">
      <path d="M 359.10294 512.64 
L 359.10294 69.12 
" clip-path="url(#p937e9b3832)" style="fill: none; stroke: #cccccc; stroke-width: 0.8; stroke-linecap: round"/>
     </g>
     <g id="text_18">
      <!-- 1360 -->
      <g style="fill: #262626" transform="translate(352.901791 541.504521)rotate(-45)scale(0.088 -0.088)">
       <use xlink:href="#DejaVuSans-31"/>
       <use xlink:href="#DejaVuSans-33" x="63.623047"/>
       <use xlink:href="#DejaVuSans-36" x="127.246094"/>
       <use xlink:href="#DejaVuSans-30" x="190.869141"/>
      </g>
     </g>
    </g>
    <g id="xtick_19">
     <g id="line2d_19">
      <path d="M 376.129537 512.64 
L 376.129537 69.12 
" clip-path="url(#p937e9b3832)" style="fill: none; stroke: #cccccc; stroke-width: 0.8; stroke-linecap: round"/>
     </g>
     <g id="text_19">
      <!-- 1440 -->
      <g style="fill: #262626" transform="translate(369.928387 541.504521)rotate(-45)scale(0.088 -0.088)">
       <use xlink:href="#DejaVuSans-31"/>
       <use xlink:href="#DejaVuSans-34" x="63.623047"/>
       <use xlink:href="#DejaVuSans-34" x="127.246094"/>
       <use xlink:href="#DejaVuSans-30" x="190.869141"/>
      </g>
     </g>
    </g>
    <g id="text_20">
     <!-- Time (Minutes) -->
     <g style="fill: #262626" transform="translate(186.87375 554.093115)scale(0.096 -0.096)">
      <defs>
       <path id="DejaVuSans-54" d="M -19 4666 
L 3928 4666 
L 3928 4134 
L 2272 4134 
L 2272 0 
L 1638 0 
L 1638 4134 
L -19 4134 
L -19 4666 
z
" transform="scale(0.015625)"/>
       <path id="DejaVuSans-69" d="M 603 3500 
L 1178 3500 
L 1178 0 
L 603 0 
L 603 3500 
z
M 603 4863 
L 1178 4863 
L 1178 4134 
L 603 4134 
L 603 4863 
z
" transform="scale(0.015625)"/>
       <path id="DejaVuSans-6d" d="M 3328 2828 
Q 3544 3216 3844 3400 
Q 4144 3584 4550 3584 
Q 5097 3584 5394 3201 
Q 5691 2819 5691 2113 
L 5691 0 
L 5113 0 
L 5113 2094 
Q 5113 2597 4934 2840 
Q 4756 3084 4391 3084 
Q 3944 3084 3684 2787 
Q 3425 2491 3425 1978 
L 3425 0 
L 2847 0 
L 2847 2094 
Q 2847 2600 2669 2842 
Q 2491 3084 2119 3084 
Q 1678 3084 1418 2786 
Q 1159 2488 1159 1978 
L 1159 0 
L 581 0 
L 581 3500 
L 1159 3500 
L 1159 2956 
Q 1356 3278 1631 3431 
Q 1906 3584 2284 3584 
Q 2666 3584 2933 3390 
Q 3200 3197 3328 2828 
z
" transform="scale(0.015625)"/>
       <path id="DejaVuSans-65" d="M 3597 1894 
L 3597 1613 
L 953 1613 
Q 991 1019 1311 708 
Q 1631 397 2203 397 
Q 2534 397 2845 478 
Q 3156 559 3463 722 
L 3463 178 
Q 3153 47 2828 -22 
Q 2503 -91 2169 -91 
Q 1331 -91 842 396 
Q 353 884 353 1716 
Q 353 2575 817 3079 
Q 1281 3584 2069 3584 
Q 2775 3584 3186 3129 
Q 3597 2675 3597 1894 
z
M 3022 2063 
Q 3016 2534 2758 2815 
Q 2500 3097 2075 3097 
Q 1594 3097 1305 2825 
Q 1016 2553 972 2059 
L 3022 2063 
z
" transform="scale(0.015625)"/>
       <path id="DejaVuSans-20" transform="scale(0.015625)"/>
       <path id="DejaVuSans-28" d="M 1984 4856 
Q 1566 4138 1362 3434 
Q 1159 2731 1159 2009 
Q 1159 1288 1364 580 
Q 1569 -128 1984 -844 
L 1484 -844 
Q 1016 -109 783 600 
Q 550 1309 550 2009 
Q 550 2706 781 3412 
Q 1013 4119 1484 4856 
L 1984 4856 
z
" transform="scale(0.015625)"/>
       <path id="DejaVuSans-4d" d="M 628 4666 
L 1569 4666 
L 2759 1491 
L 3956 4666 
L 4897 4666 
L 4897 0 
L 4281 0 
L 4281 4097 
L 3078 897 
L 2444 897 
L 1241 4097 
L 1241 0 
L 628 0 
L 628 4666 
z
" transform="scale(0.015625)"/>
       <path id="DejaVuSans-6e" d="M 3513 2113 
L 3513 0 
L 2938 0 
L 2938 2094 
Q 2938 2591 2744 2837 
Q 2550 3084 2163 3084 
Q 1697 3084 1428 2787 
Q 1159 2491 1159 1978 
L 1159 0 
L 581 0 
L 581 3500 
L 1159 3500 
L 1159 2956 
Q 1366 3272 1645 3428 
Q 1925 3584 2291 3584 
Q 2894 3584 3203 3211 
Q 3513 2838 3513 2113 
z
" transform="scale(0.015625)"/>
       <path id="DejaVuSans-75" d="M 544 1381 
L 544 3500 
L 1119 3500 
L 1119 1403 
Q 1119 906 1312 657 
Q 1506 409 1894 409 
Q 2359 409 2629 706 
Q 2900 1003 2900 1516 
L 2900 3500 
L 3475 3500 
L 3475 0 
L 2900 0 
L 2900 538 
Q 2691 219 2414 64 
Q 2138 -91 1772 -91 
Q 1169 -91 856 284 
Q 544 659 544 1381 
z
M 1991 3584 
L 1991 3584 
z
" transform="scale(0.015625)"/>
       <path id="DejaVuSans-74" d="M 1172 4494 
L 1172 3500 
L 2356 3500 
L 2356 3053 
L 1172 3053 
L 1172 1153 
Q 1172 725 1289 603 
Q 1406 481 1766 481 
L 2356 481 
L 2356 0 
L 1766 0 
Q 1100 0 847 248 
Q 594 497 594 1153 
L 594 3053 
L 172 3053 
L 172 3500 
L 594 3500 
L 594 4494 
L 1172 4494 
z
" transform="scale(0.015625)"/>
       <path id="DejaVuSans-73" d="M 2834 3397 
L 2834 2853 
Q 2591 2978 2328 3040 
Q 2066 3103 1784 3103 
Q 1356 3103 1142 2972 
Q 928 2841 928 2578 
Q 928 2378 1081 2264 
Q 1234 2150 1697 2047 
L 1894 2003 
Q 2506 1872 2764 1633 
Q 3022 1394 3022 966 
Q 3022 478 2636 193 
Q 2250 -91 1575 -91 
Q 1294 -91 989 -36 
Q 684 19 347 128 
L 347 722 
Q 666 556 975 473 
Q 1284 391 1588 391 
Q 1994 391 2212 530 
Q 2431 669 2431 922 
Q 2431 1156 2273 1281 
Q 2116 1406 1581 1522 
L 1381 1569 
Q 847 1681 609 1914 
Q 372 2147 372 2553 
Q 372 3047 722 3315 
Q 1072 3584 1716 3584 
Q 2034 3584 2315 3537 
Q 2597 3491 2834 3397 
z
" transform="scale(0.015625)"/>
       <path id="DejaVuSans-29" d="M 513 4856 
L 1013 4856 
Q 1481 4119 1714 3412 
Q 1947 2706 1947 2009 
Q 1947 1309 1714 600 
Q 1481 -109 1013 -844 
L 513 -844 
Q 928 -128 1133 580 
Q 1338 1288 1338 2009 
Q 1338 2731 1133 3434 
Q 928 4138 513 4856 
z
" transform="scale(0.015625)"/>
      </defs>
      <use xlink:href="#DejaVuSans-54"/>
      <use xlink:href="#DejaVuSans-69" x="57.958984"/>
      <use xlink:href="#DejaVuSans-6d" x="85.742188"/>
      <use xlink:href="#DejaVuSans-65" x="183.154297"/>
      <use xlink:href="#DejaVuSans-20" x="244.677734"/>
      <use xlink:href="#DejaVuSans-28" x="276.464844"/>
      <use xlink:href="#DejaVuSans-4d" x="315.478516"/>
      <use xlink:href="#DejaVuSans-69" x="401.757812"/>
      <use xlink:href="#DejaVuSans-6e" x="429.541016"/>
      <use xlink:href="#DejaVuSans-75" x="492.919922"/>
      <use xlink:href="#DejaVuSans-74" x="556.298828"/>
      <use xlink:href="#DejaVuSans-65" x="595.507812"/>
      <use xlink:href="#DejaVuSans-73" x="657.03125"/>
      <use xlink:href="#DejaVuSans-29" x="709.130859"/>
     </g>
    </g>
   </g>
   <g id="matplotlib.axis_2">
    <g id="ytick_1">
     <g id="line2d_20">
      <path d="M 54.3375 492.48 
L 391.23 492.48 
" clip-path="url(#p937e9b3832)" style="fill: none; stroke: #cccccc; stroke-width: 0.8; stroke-linecap: round"/>
     </g>
     <g id="text_21">
      <!-- 0 -->
      <g style="fill: #262626" transform="translate(40.4385 495.823312)scale(0.088 -0.088)">
       <use xlink:href="#DejaVuSans-30"/>
      </g>
     </g>
    </g>
    <g id="ytick_2">
     <g id="line2d_21">
      <path d="M 54.3375 477.992037 
L 391.23 477.992037 
" clip-path="url(#p937e9b3832)" style="fill: none; stroke: #cccccc; stroke-width: 0.8; stroke-linecap: round"/>
     </g>
     <g id="text_22">
      <!-- 100 -->
      <g style="fill: #262626" transform="translate(29.2405 481.33535)scale(0.088 -0.088)">
       <use xlink:href="#DejaVuSans-31"/>
       <use xlink:href="#DejaVuSans-30" x="63.623047"/>
       <use xlink:href="#DejaVuSans-30" x="127.246094"/>
      </g>
     </g>
    </g>
    <g id="ytick_3">
     <g id="line2d_22">
      <path d="M 54.3375 463.504075 
L 391.23 463.504075 
" clip-path="url(#p937e9b3832)" style="fill: none; stroke: #cccccc; stroke-width: 0.8; stroke-linecap: round"/>
     </g>
     <g id="text_23">
      <!-- 200 -->
      <g style="fill: #262626" transform="translate(29.2405 466.847387)scale(0.088 -0.088)">
       <use xlink:href="#DejaVuSans-32"/>
       <use xlink:href="#DejaVuSans-30" x="63.623047"/>
       <use xlink:href="#DejaVuSans-30" x="127.246094"/>
      </g>
     </g>
    </g>
    <g id="ytick_4">
     <g id="line2d_23">
      <path d="M 54.3375 449.016112 
L 391.23 449.016112 
" clip-path="url(#p937e9b3832)" style="fill: none; stroke: #cccccc; stroke-width: 0.8; stroke-linecap: round"/>
     </g>
     <g id="text_24">
      <!-- 300 -->
      <g style="fill: #262626" transform="translate(29.2405 452.359425)scale(0.088 -0.088)">
       <use xlink:href="#DejaVuSans-33"/>
       <use xlink:href="#DejaVuSans-30" x="63.623047"/>
       <use xlink:href="#DejaVuSans-30" x="127.246094"/>
      </g>
     </g>
    </g>
    <g id="ytick_5">
     <g id="line2d_24">
      <path d="M 54.3375 434.528149 
L 391.23 434.528149 
" clip-path="url(#p937e9b3832)" style="fill: none; stroke: #cccccc; stroke-width: 0.8; stroke-linecap: round"/>
     </g>
     <g id="text_25">
      <!-- 400 -->
      <g style="fill: #262626" transform="translate(29.2405 437.871462)scale(0.088 -0.088)">
       <use xlink:href="#DejaVuSans-34"/>
       <use xlink:href="#DejaVuSans-30" x="63.623047"/>
       <use xlink:href="#DejaVuSans-30" x="127.246094"/>
      </g>
     </g>
    </g>
    <g id="ytick_6">
     <g id="line2d_25">
      <path d="M 54.3375 420.040187 
L 391.23 420.040187 
" clip-path="url(#p937e9b3832)" style="fill: none; stroke: #cccccc; stroke-width: 0.8; stroke-linecap: round"/>
     </g>
     <g id="text_26">
      <!-- 500 -->
      <g style="fill: #262626" transform="translate(29.2405 423.383499)scale(0.088 -0.088)">
       <use xlink:href="#DejaVuSans-35"/>
       <use xlink:href="#DejaVuSans-30" x="63.623047"/>
       <use xlink:href="#DejaVuSans-30" x="127.246094"/>
      </g>
     </g>
    </g>
    <g id="ytick_7">
     <g id="line2d_26">
      <path d="M 54.3375 405.552224 
L 391.23 405.552224 
" clip-path="url(#p937e9b3832)" style="fill: none; stroke: #cccccc; stroke-width: 0.8; stroke-linecap: round"/>
     </g>
     <g id="text_27">
      <!-- 600 -->
      <g style="fill: #262626" transform="translate(29.2405 408.895537)scale(0.088 -0.088)">
       <use xlink:href="#DejaVuSans-36"/>
       <use xlink:href="#DejaVuSans-30" x="63.623047"/>
       <use xlink:href="#DejaVuSans-30" x="127.246094"/>
      </g>
     </g>
    </g>
    <g id="ytick_8">
     <g id="line2d_27">
      <path d="M 54.3375 391.064262 
L 391.23 391.064262 
" clip-path="url(#p937e9b3832)" style="fill: none; stroke: #cccccc; stroke-width: 0.8; stroke-linecap: round"/>
     </g>
     <g id="text_28">
      <!-- 700 -->
      <g style="fill: #262626" transform="translate(29.2405 394.407574)scale(0.088 -0.088)">
       <use xlink:href="#DejaVuSans-37"/>
       <use xlink:href="#DejaVuSans-30" x="63.623047"/>
       <use xlink:href="#DejaVuSans-30" x="127.246094"/>
      </g>
     </g>
    </g>
    <g id="ytick_9">
     <g id="line2d_28">
      <path d="M 54.3375 376.576299 
L 391.23 376.576299 
" clip-path="url(#p937e9b3832)" style="fill: none; stroke: #cccccc; stroke-width: 0.8; stroke-linecap: round"/>
     </g>
     <g id="text_29">
      <!-- 800 -->
      <g style="fill: #262626" transform="translate(29.2405 379.919611)scale(0.088 -0.088)">
       <use xlink:href="#DejaVuSans-38"/>
       <use xlink:href="#DejaVuSans-30" x="63.623047"/>
       <use xlink:href="#DejaVuSans-30" x="127.246094"/>
      </g>
     </g>
    </g>
    <g id="ytick_10">
     <g id="line2d_29">
      <path d="M 54.3375 362.088336 
L 391.23 362.088336 
" clip-path="url(#p937e9b3832)" style="fill: none; stroke: #cccccc; stroke-width: 0.8; stroke-linecap: round"/>
     </g>
     <g id="text_30">
      <!-- 900 -->
      <g style="fill: #262626" transform="translate(29.2405 365.431649)scale(0.088 -0.088)">
       <use xlink:href="#DejaVuSans-39"/>
       <use xlink:href="#DejaVuSans-30" x="63.623047"/>
       <use xlink:href="#DejaVuSans-30" x="127.246094"/>
      </g>
     </g>
    </g>
    <g id="ytick_11">
     <g id="line2d_30">
      <path d="M 54.3375 347.600374 
L 391.23 347.600374 
" clip-path="url(#p937e9b3832)" style="fill: none; stroke: #cccccc; stroke-width: 0.8; stroke-linecap: round"/>
     </g>
     <g id="text_31">
      <!-- 1000 -->
      <g style="fill: #262626" transform="translate(23.6415 350.943686)scale(0.088 -0.088)">
       <use xlink:href="#DejaVuSans-31"/>
       <use xlink:href="#DejaVuSans-30" x="63.623047"/>
       <use xlink:href="#DejaVuSans-30" x="127.246094"/>
       <use xlink:href="#DejaVuSans-30" x="190.869141"/>
      </g>
     </g>
    </g>
    <g id="ytick_12">
     <g id="line2d_31">
      <path d="M 54.3375 333.112411 
L 391.23 333.112411 
" clip-path="url(#p937e9b3832)" style="fill: none; stroke: #cccccc; stroke-width: 0.8; stroke-linecap: round"/>
     </g>
     <g id="text_32">
      <!-- 1100 -->
      <g style="fill: #262626" transform="translate(23.6415 336.455724)scale(0.088 -0.088)">
       <use xlink:href="#DejaVuSans-31"/>
       <use xlink:href="#DejaVuSans-31" x="63.623047"/>
       <use xlink:href="#DejaVuSans-30" x="127.246094"/>
       <use xlink:href="#DejaVuSans-30" x="190.869141"/>
      </g>
     </g>
    </g>
    <g id="ytick_13">
     <g id="line2d_32">
      <path d="M 54.3375 318.624448 
L 391.23 318.624448 
" clip-path="url(#p937e9b3832)" style="fill: none; stroke: #cccccc; stroke-width: 0.8; stroke-linecap: round"/>
     </g>
     <g id="text_33">
      <!-- 1200 -->
      <g style="fill: #262626" transform="translate(23.6415 321.967761)scale(0.088 -0.088)">
       <use xlink:href="#DejaVuSans-31"/>
       <use xlink:href="#DejaVuSans-32" x="63.623047"/>
       <use xlink:href="#DejaVuSans-30" x="127.246094"/>
       <use xlink:href="#DejaVuSans-30" x="190.869141"/>
      </g>
     </g>
    </g>
    <g id="ytick_14">
     <g id="line2d_33">
      <path d="M 54.3375 304.136486 
L 391.23 304.136486 
" clip-path="url(#p937e9b3832)" style="fill: none; stroke: #cccccc; stroke-width: 0.8; stroke-linecap: round"/>
     </g>
     <g id="text_34">
      <!-- 1300 -->
      <g style="fill: #262626" transform="translate(23.6415 307.479798)scale(0.088 -0.088)">
       <use xlink:href="#DejaVuSans-31"/>
       <use xlink:href="#DejaVuSans-33" x="63.623047"/>
       <use xlink:href="#DejaVuSans-30" x="127.246094"/>
       <use xlink:href="#DejaVuSans-30" x="190.869141"/>
      </g>
     </g>
    </g>
    <g id="ytick_15">
     <g id="line2d_34">
      <path d="M 54.3375 289.648523 
L 391.23 289.648523 
" clip-path="url(#p937e9b3832)" style="fill: none; stroke: #cccccc; stroke-width: 0.8; stroke-linecap: round"/>
     </g>
     <g id="text_35">
      <!-- 1400 -->
      <g style="fill: #262626" transform="translate(23.6415 292.991836)scale(0.088 -0.088)">
       <use xlink:href="#DejaVuSans-31"/>
       <use xlink:href="#DejaVuSans-34" x="63.623047"/>
       <use xlink:href="#DejaVuSans-30" x="127.246094"/>
       <use xlink:href="#DejaVuSans-30" x="190.869141"/>
      </g>
     </g>
    </g>
    <g id="ytick_16">
     <g id="line2d_35">
      <path d="M 54.3375 275.160561 
L 391.23 275.160561 
" clip-path="url(#p937e9b3832)" style="fill: none; stroke: #cccccc; stroke-width: 0.8; stroke-linecap: round"/>
     </g>
     <g id="text_36">
      <!-- 1500 -->
      <g style="fill: #262626" transform="translate(23.6415 278.503873)scale(0.088 -0.088)">
       <use xlink:href="#DejaVuSans-31"/>
       <use xlink:href="#DejaVuSans-35" x="63.623047"/>
       <use xlink:href="#DejaVuSans-30" x="127.246094"/>
       <use xlink:href="#DejaVuSans-30" x="190.869141"/>
      </g>
     </g>
    </g>
    <g id="ytick_17">
     <g id="line2d_36">
      <path d="M 54.3375 260.672598 
L 391.23 260.672598 
" clip-path="url(#p937e9b3832)" style="fill: none; stroke: #cccccc; stroke-width: 0.8; stroke-linecap: round"/>
     </g>
     <g id="text_37">
      <!-- 1600 -->
      <g style="fill: #262626" transform="translate(23.6415 264.01591)scale(0.088 -0.088)">
       <use xlink:href="#DejaVuSans-31"/>
       <use xlink:href="#DejaVuSans-36" x="63.623047"/>
       <use xlink:href="#DejaVuSans-30" x="127.246094"/>
       <use xlink:href="#DejaVuSans-30" x="190.869141"/>
      </g>
     </g>
    </g>
    <g id="ytick_18">
     <g id="line2d_37">
      <path d="M 54.3375 246.184635 
L 391.23 246.184635 
" clip-path="url(#p937e9b3832)" style="fill: none; stroke: #cccccc; stroke-width: 0.8; stroke-linecap: round"/>
     </g>
     <g id="text_38">
      <!-- 1700 -->
      <g style="fill: #262626" transform="translate(23.6415 249.527948)scale(0.088 -0.088)">
       <use xlink:href="#DejaVuSans-31"/>
       <use xlink:href="#DejaVuSans-37" x="63.623047"/>
       <use xlink:href="#DejaVuSans-30" x="127.246094"/>
       <use xlink:href="#DejaVuSans-30" x="190.869141"/>
      </g>
     </g>
    </g>
    <g id="ytick_19">
     <g id="line2d_38">
      <path d="M 54.3375 231.696673 
L 391.23 231.696673 
" clip-path="url(#p937e9b3832)" style="fill: none; stroke: #cccccc; stroke-width: 0.8; stroke-linecap: round"/>
     </g>
     <g id="text_39">
      <!-- 1800 -->
      <g style="fill: #262626" transform="translate(23.6415 235.039985)scale(0.088 -0.088)">
       <use xlink:href="#DejaVuSans-31"/>
       <use xlink:href="#DejaVuSans-38" x="63.623047"/>
       <use xlink:href="#DejaVuSans-30" x="127.246094"/>
       <use xlink:href="#DejaVuSans-30" x="190.869141"/>
      </g>
     </g>
    </g>
    <g id="ytick_20">
     <g id="line2d_39">
      <path d="M 54.3375 217.20871 
L 391.23 217.20871 
" clip-path="url(#p937e9b3832)" style="fill: none; stroke: #cccccc; stroke-width: 0.8; stroke-linecap: round"/>
     </g>
     <g id="text_40">
      <!-- 1900 -->
      <g style="fill: #262626" transform="translate(23.6415 220.552023)scale(0.088 -0.088)">
       <use xlink:href="#DejaVuSans-31"/>
       <use xlink:href="#DejaVuSans-39" x="63.623047"/>
       <use xlink:href="#DejaVuSans-30" x="127.246094"/>
       <use xlink:href="#DejaVuSans-30" x="190.869141"/>
      </g>
     </g>
    </g>
    <g id="ytick_21">
     <g id="line2d_40">
      <path d="M 54.3375 202.720747 
L 391.23 202.720747 
" clip-path="url(#p937e9b3832)" style="fill: none; stroke: #cccccc; stroke-width: 0.8; stroke-linecap: round"/>
     </g>
     <g id="text_41">
      <!-- 2000 -->
      <g style="fill: #262626" transform="translate(23.6415 206.06406)scale(0.088 -0.088)">
       <use xlink:href="#DejaVuSans-32"/>
       <use xlink:href="#DejaVuSans-30" x="63.623047"/>
       <use xlink:href="#DejaVuSans-30" x="127.246094"/>
       <use xlink:href="#DejaVuSans-30" x="190.869141"/>
      </g>
     </g>
    </g>
    <g id="ytick_22">
     <g id="line2d_41">
      <path d="M 54.3375 188.232785 
L 391.23 188.232785 
" clip-path="url(#p937e9b3832)" style="fill: none; stroke: #cccccc; stroke-width: 0.8; stroke-linecap: round"/>
     </g>
     <g id="text_42">
      <!-- 2100 -->
      <g style="fill: #262626" transform="translate(23.6415 191.576097)scale(0.088 -0.088)">
       <use xlink:href="#DejaVuSans-32"/>
       <use xlink:href="#DejaVuSans-31" x="63.623047"/>
       <use xlink:href="#DejaVuSans-30" x="127.246094"/>
       <use xlink:href="#DejaVuSans-30" x="190.869141"/>
      </g>
     </g>
    </g>
    <g id="ytick_23">
     <g id="line2d_42">
      <path d="M 54.3375 173.744822 
L 391.23 173.744822 
" clip-path="url(#p937e9b3832)" style="fill: none; stroke: #cccccc; stroke-width: 0.8; stroke-linecap: round"/>
     </g>
     <g id="text_43">
      <!-- 2200 -->
      <g style="fill: #262626" transform="translate(23.6415 177.088135)scale(0.088 -0.088)">
       <use xlink:href="#DejaVuSans-32"/>
       <use xlink:href="#DejaVuSans-32" x="63.623047"/>
       <use xlink:href="#DejaVuSans-30" x="127.246094"/>
       <use xlink:href="#DejaVuSans-30" x="190.869141"/>
      </g>
     </g>
    </g>
    <g id="ytick_24">
     <g id="line2d_43">
      <path d="M 54.3375 159.25686 
L 391.23 159.25686 
" clip-path="url(#p937e9b3832)" style="fill: none; stroke: #cccccc; stroke-width: 0.8; stroke-linecap: round"/>
     </g>
     <g id="text_44">
      <!-- 2300 -->
      <g style="fill: #262626" transform="translate(23.6415 162.600172)scale(0.088 -0.088)">
       <use xlink:href="#DejaVuSans-32"/>
       <use xlink:href="#DejaVuSans-33" x="63.623047"/>
       <use xlink:href="#DejaVuSans-30" x="127.246094"/>
       <use xlink:href="#DejaVuSans-30" x="190.869141"/>
      </g>
     </g>
    </g>
    <g id="ytick_25">
     <g id="line2d_44">
      <path d="M 54.3375 144.768897 
L 391.23 144.768897 
" clip-path="url(#p937e9b3832)" style="fill: none; stroke: #cccccc; stroke-width: 0.8; stroke-linecap: round"/>
     </g>
     <g id="text_45">
      <!-- 2400 -->
      <g style="fill: #262626" transform="translate(23.6415 148.112209)scale(0.088 -0.088)">
       <use xlink:href="#DejaVuSans-32"/>
       <use xlink:href="#DejaVuSans-34" x="63.623047"/>
       <use xlink:href="#DejaVuSans-30" x="127.246094"/>
       <use xlink:href="#DejaVuSans-30" x="190.869141"/>
      </g>
     </g>
    </g>
    <g id="ytick_26">
     <g id="line2d_45">
      <path d="M 54.3375 130.280934 
L 391.23 130.280934 
" clip-path="url(#p937e9b3832)" style="fill: none; stroke: #cccccc; stroke-width: 0.8; stroke-linecap: round"/>
     </g>
     <g id="text_46">
      <!-- 2500 -->
      <g style="fill: #262626" transform="translate(23.6415 133.624247)scale(0.088 -0.088)">
       <use xlink:href="#DejaVuSans-32"/>
       <use xlink:href="#DejaVuSans-35" x="63.623047"/>
       <use xlink:href="#DejaVuSans-30" x="127.246094"/>
       <use xlink:href="#DejaVuSans-30" x="190.869141"/>
      </g>
     </g>
    </g>
    <g id="ytick_27">
     <g id="line2d_46">
      <path d="M 54.3375 115.792972 
L 391.23 115.792972 
" clip-path="url(#p937e9b3832)" style="fill: none; stroke: #cccccc; stroke-width: 0.8; stroke-linecap: round"/>
     </g>
     <g id="text_47">
      <!-- 2600 -->
      <g style="fill: #262626" transform="translate(23.6415 119.136284)scale(0.088 -0.088)">
       <use xlink:href="#DejaVuSans-32"/>
       <use xlink:href="#DejaVuSans-36" x="63.623047"/>
       <use xlink:href="#DejaVuSans-30" x="127.246094"/>
       <use xlink:href="#DejaVuSans-30" x="190.869141"/>
      </g>
     </g>
    </g>
    <g id="ytick_28">
     <g id="line2d_47">
      <path d="M 54.3375 101.305009 
L 391.23 101.305009 
" clip-path="url(#p937e9b3832)" style="fill: none; stroke: #cccccc; stroke-width: 0.8; stroke-linecap: round"/>
     </g>
     <g id="text_48">
      <!-- 2700 -->
      <g style="fill: #262626" transform="translate(23.6415 104.648321)scale(0.088 -0.088)">
       <use xlink:href="#DejaVuSans-32"/>
       <use xlink:href="#DejaVuSans-37" x="63.623047"/>
       <use xlink:href="#DejaVuSans-30" x="127.246094"/>
       <use xlink:href="#DejaVuSans-30" x="190.869141"/>
      </g>
     </g>
    </g>
    <g id="text_49">
     <!-- Edge Coverages -->
     <g style="fill: #262626" transform="translate(17.645 329.98575)rotate(-90)scale(0.096 -0.096)">
      <defs>
       <path id="DejaVuSans-45" d="M 628 4666 
L 3578 4666 
L 3578 4134 
L 1259 4134 
L 1259 2753 
L 3481 2753 
L 3481 2222 
L 1259 2222 
L 1259 531 
L 3634 531 
L 3634 0 
L 628 0 
L 628 4666 
z
" transform="scale(0.015625)"/>
       <path id="DejaVuSans-64" d="M 2906 2969 
L 2906 4863 
L 3481 4863 
L 3481 0 
L 2906 0 
L 2906 525 
Q 2725 213 2448 61 
Q 2172 -91 1784 -91 
Q 1150 -91 751 415 
Q 353 922 353 1747 
Q 353 2572 751 3078 
Q 1150 3584 1784 3584 
Q 2172 3584 2448 3432 
Q 2725 3281 2906 2969 
z
M 947 1747 
Q 947 1113 1208 752 
Q 1469 391 1925 391 
Q 2381 391 2643 752 
Q 2906 1113 2906 1747 
Q 2906 2381 2643 2742 
Q 2381 3103 1925 3103 
Q 1469 3103 1208 2742 
Q 947 2381 947 1747 
z
" transform="scale(0.015625)"/>
       <path id="DejaVuSans-67" d="M 2906 1791 
Q 2906 2416 2648 2759 
Q 2391 3103 1925 3103 
Q 1463 3103 1205 2759 
Q 947 2416 947 1791 
Q 947 1169 1205 825 
Q 1463 481 1925 481 
Q 2391 481 2648 825 
Q 2906 1169 2906 1791 
z
M 3481 434 
Q 3481 -459 3084 -895 
Q 2688 -1331 1869 -1331 
Q 1566 -1331 1297 -1286 
Q 1028 -1241 775 -1147 
L 775 -588 
Q 1028 -725 1275 -790 
Q 1522 -856 1778 -856 
Q 2344 -856 2625 -561 
Q 2906 -266 2906 331 
L 2906 616 
Q 2728 306 2450 153 
Q 2172 0 1784 0 
Q 1141 0 747 490 
Q 353 981 353 1791 
Q 353 2603 747 3093 
Q 1141 3584 1784 3584 
Q 2172 3584 2450 3431 
Q 2728 3278 2906 2969 
L 2906 3500 
L 3481 3500 
L 3481 434 
z
" transform="scale(0.015625)"/>
       <path id="DejaVuSans-43" d="M 4122 4306 
L 4122 3641 
Q 3803 3938 3442 4084 
Q 3081 4231 2675 4231 
Q 1875 4231 1450 3742 
Q 1025 3253 1025 2328 
Q 1025 1406 1450 917 
Q 1875 428 2675 428 
Q 3081 428 3442 575 
Q 3803 722 4122 1019 
L 4122 359 
Q 3791 134 3420 21 
Q 3050 -91 2638 -91 
Q 1578 -91 968 557 
Q 359 1206 359 2328 
Q 359 3453 968 4101 
Q 1578 4750 2638 4750 
Q 3056 4750 3426 4639 
Q 3797 4528 4122 4306 
z
" transform="scale(0.015625)"/>
       <path id="DejaVuSans-6f" d="M 1959 3097 
Q 1497 3097 1228 2736 
Q 959 2375 959 1747 
Q 959 1119 1226 758 
Q 1494 397 1959 397 
Q 2419 397 2687 759 
Q 2956 1122 2956 1747 
Q 2956 2369 2687 2733 
Q 2419 3097 1959 3097 
z
M 1959 3584 
Q 2709 3584 3137 3096 
Q 3566 2609 3566 1747 
Q 3566 888 3137 398 
Q 2709 -91 1959 -91 
Q 1206 -91 779 398 
Q 353 888 353 1747 
Q 353 2609 779 3096 
Q 1206 3584 1959 3584 
z
" transform="scale(0.015625)"/>
       <path id="DejaVuSans-76" d="M 191 3500 
L 800 3500 
L 1894 563 
L 2988 3500 
L 3597 3500 
L 2284 0 
L 1503 0 
L 191 3500 
z
" transform="scale(0.015625)"/>
       <path id="DejaVuSans-72" d="M 2631 2963 
Q 2534 3019 2420 3045 
Q 2306 3072 2169 3072 
Q 1681 3072 1420 2755 
Q 1159 2438 1159 1844 
L 1159 0 
L 581 0 
L 581 3500 
L 1159 3500 
L 1159 2956 
Q 1341 3275 1631 3429 
Q 1922 3584 2338 3584 
Q 2397 3584 2469 3576 
Q 2541 3569 2628 3553 
L 2631 2963 
z
" transform="scale(0.015625)"/>
       <path id="DejaVuSans-61" d="M 2194 1759 
Q 1497 1759 1228 1600 
Q 959 1441 959 1056 
Q 959 750 1161 570 
Q 1363 391 1709 391 
Q 2188 391 2477 730 
Q 2766 1069 2766 1631 
L 2766 1759 
L 2194 1759 
z
M 3341 1997 
L 3341 0 
L 2766 0 
L 2766 531 
Q 2569 213 2275 61 
Q 1981 -91 1556 -91 
Q 1019 -91 701 211 
Q 384 513 384 1019 
Q 384 1609 779 1909 
Q 1175 2209 1959 2209 
L 2766 2209 
L 2766 2266 
Q 2766 2663 2505 2880 
Q 2244 3097 1772 3097 
Q 1472 3097 1187 3025 
Q 903 2953 641 2809 
L 641 3341 
Q 956 3463 1253 3523 
Q 1550 3584 1831 3584 
Q 2591 3584 2966 3190 
Q 3341 2797 3341 1997 
z
" transform="scale(0.015625)"/>
      </defs>
      <use xlink:href="#DejaVuSans-45"/>
      <use xlink:href="#DejaVuSans-64" x="63.183594"/>
      <use xlink:href="#DejaVuSans-67" x="126.660156"/>
      <use xlink:href="#DejaVuSans-65" x="190.136719"/>
      <use xlink:href="#DejaVuSans-20" x="251.660156"/>
      <use xlink:href="#DejaVuSans-43" x="283.447266"/>
      <use xlink:href="#DejaVuSans-6f" x="353.271484"/>
      <use xlink:href="#DejaVuSans-76" x="414.453125"/>
      <use xlink:href="#DejaVuSans-65" x="473.632812"/>
      <use xlink:href="#DejaVuSans-72" x="535.15625"/>
      <use xlink:href="#DejaVuSans-61" x="576.269531"/>
      <use xlink:href="#DejaVuSans-67" x="637.548828"/>
      <use xlink:href="#DejaVuSans-65" x="701.025391"/>
      <use xlink:href="#DejaVuSans-73" x="762.548828"/>
     </g>
    </g>
   </g>
   <g id="PolyCollection_1">
    <defs>
     <path id="m1168409a9e" d="M 69.650795 -85.403435 
L 69.650795 -83.52 
L 69.650795 -85.403435 
L 69.650795 -85.403435 
z
" style="stroke: #db5f57; stroke-opacity: 0.2; stroke-width: 0.8"/>
    </defs>
    <g clip-path="url(#p937e9b3832)">
     <use xlink:href="#m1168409a9e" x="0" y="576" style="fill: #db5f57; fill-opacity: 0.2; stroke: #db5f57; stroke-opacity: 0.2; stroke-width: 0.8"/>
    </g>
   </g>
   <g id="PolyCollection_2">
    <defs>
     <path id="m12a400063b" d="M 69.650795 -86.272713 
L 69.650795 -83.52 
L 69.650795 -86.272713 
L 69.650795 -86.272713 
z
" style="stroke: #b9db57; stroke-opacity: 0.2; stroke-width: 0.8"/>
    </defs>
    <g clip-path="url(#p937e9b3832)">
     <use xlink:href="#m12a400063b" x="0" y="576" style="fill: #b9db57; fill-opacity: 0.2; stroke: #b9db57; stroke-opacity: 0.2; stroke-width: 0.8"/>
    </g>
   </g>
   <g id="PolyCollection_3">
    <defs>
     <path id="m4ae2143460" d="M 69.650795 -84.823917 
L 69.650795 -83.52 
L 69.650795 -84.823917 
L 69.650795 -84.823917 
z
" style="stroke: #57db94; stroke-opacity: 0.2; stroke-width: 0.8"/>
    </defs>
    <g clip-path="url(#p937e9b3832)">
     <use xlink:href="#m4ae2143460" x="0" y="576" style="fill: #57db94; fill-opacity: 0.2; stroke: #57db94; stroke-opacity: 0.2; stroke-width: 0.8"/>
    </g>
   </g>
   <g id="PolyCollection_4">
    <defs>
     <path id="m7494c7c1d5" d="M 69.650795 -86.127833 
L 69.650795 -83.52 
L 69.650795 -86.127833 
L 69.650795 -86.127833 
z
" style="stroke: #5784db; stroke-opacity: 0.2; stroke-width: 0.8"/>
    </defs>
    <g clip-path="url(#p937e9b3832)">
     <use xlink:href="#m7494c7c1d5" x="0" y="576" style="fill: #5784db; fill-opacity: 0.2; stroke: #5784db; stroke-opacity: 0.2; stroke-width: 0.8"/>
    </g>
   </g>
   <g id="PolyCollection_5">
    <defs>
     <path id="m4184ce6212" d="M 69.650795 -86.127833 
L 69.650795 -83.52 
L 69.650795 -86.127833 
L 69.650795 -86.127833 
z
" style="stroke: #c957db; stroke-opacity: 0.2; stroke-width: 0.8"/>
    </defs>
    <g clip-path="url(#p937e9b3832)">
     <use xlink:href="#m4184ce6212" x="0" y="576" style="fill: #c957db; fill-opacity: 0.2; stroke: #c957db; stroke-opacity: 0.2; stroke-width: 0.8"/>
    </g>
   </g>
   <g id="line2d_48">
    <path d="M 69.650795 491.538282 
L 69.863628 490.596565 
L 70.289293 490.596565 
L 70.502125 489.727287 
L 71.353455 489.727287 
L 71.566288 489.147769 
L 71.991953 486.539935 
L 72.204785 486.395056 
L 72.63045 485.525778 
L 72.843282 485.525778 
L 73.056115 485.380898 
L 73.268947 485.380898 
L 73.48178 485.236019 
L 74.120277 485.236019 
L 74.33311 485.091139 
L 74.545942 469.444139 
L 74.758774 469.444139 
L 74.971607 451.044427 
L 75.184439 451.044427 
L 75.397272 445.394121 
L 75.822937 444.669723 
L 76.461434 444.235084 
L 76.674267 432.210075 
L 76.887099 430.32664 
L 77.312764 423.951937 
L 77.738429 422.64802 
L 77.951261 422.64802 
L 78.164094 420.764585 
L 78.589759 420.764585 
L 78.802591 401.640474 
L 79.015424 398.453123 
L 79.653921 382.951003 
L 79.866754 382.806123 
L 84.7619 382.806123 
L 84.974733 374.692864 
L 85.400397 228.219562 
L 85.61323 207.791534 
L 85.826062 207.791534 
L 86.251727 205.183701 
L 86.677392 203.300266 
L 86.890225 203.155386 
L 87.103057 203.155386 
L 87.528722 202.865627 
L 87.954387 202.865627 
L 88.167219 202.720747 
L 88.380052 202.720747 
L 88.592884 201.996349 
L 88.805717 201.996349 
L 89.018549 200.692433 
L 89.231382 198.229479 
L 89.444214 197.64996 
L 89.657047 197.64996 
L 89.869879 197.360201 
L 90.082712 197.360201 
L 90.295544 197.215322 
L 90.508376 197.215322 
L 90.721209 195.187007 
L 90.934041 195.042127 
L 91.146874 195.042127 
L 91.359706 192.434294 
L 93.062366 192.434294 
L 93.275198 180.843924 
L 95.190691 180.843924 
L 95.403523 179.974646 
L 97.319015 179.974646 
L 97.74468 174.75898 
L 98.170345 174.46922 
L 98.383177 173.455063 
L 98.808842 166.7906 
L 99.021675 166.7906 
L 99.234507 164.762285 
L 99.44734 164.472526 
L 99.873005 164.472526 
L 100.29867 162.733971 
L 100.511502 161.864693 
L 100.724335 161.864693 
L 100.937167 161.140295 
L 101.149999 160.850535 
L 101.362832 160.850535 
L 101.575664 160.705656 
L 101.788497 160.705656 
L 102.001329 160.560776 
L 102.214162 160.126137 
L 102.639827 160.126137 
L 102.852659 159.981258 
L 103.065492 159.981258 
L 103.278324 156.793906 
L 103.491157 151.723119 
L 103.916821 149.984563 
L 104.342486 148.680647 
L 108.599136 148.680647 
L 108.811968 139.263471 
L 109.0248 138.828832 
L 109.237633 138.104434 
L 109.663298 138.104434 
L 109.87613 137.814675 
L 110.088963 137.814675 
L 110.301795 137.669795 
L 110.514628 136.800517 
L 110.72746 136.655638 
L 111.153125 135.78636 
L 111.365957 135.351721 
L 111.57879 135.351721 
L 111.791622 135.061962 
L 113.28145 135.061962 
L 113.494282 134.772203 
L 114.771277 134.772203 
L 114.984109 134.047805 
L 115.409774 133.758045 
L 118.602261 133.758045 
L 118.815094 132.599008 
L 119.240758 131.729731 
L 119.453591 131.584851 
L 119.879256 131.584851 
L 120.517753 131.150212 
L 121.581916 131.150212 
L 121.794748 130.425814 
L 122.00758 130.136055 
L 122.433245 128.977018 
L 122.646078 128.832138 
L 122.85891 128.252619 
L 123.071743 128.252619 
L 123.71024 127.528221 
L 123.923073 127.383342 
L 124.774402 127.383342 
L 124.987235 127.238462 
L 127.754057 127.238462 
L 127.966889 126.079425 
L 128.179722 126.079425 
L 128.818219 123.761351 
L 129.243884 123.761351 
L 129.456717 123.326712 
L 129.669549 123.181833 
L 129.882381 123.181833 
L 130.095214 123.036953 
L 130.733711 121.588157 
L 131.797874 121.588157 
L 132.010706 121.298397 
L 132.436371 121.298397 
L 132.649203 121.153518 
L 132.862036 121.153518 
L 133.074868 121.008638 
L 136.905853 121.008638 
L 137.118685 120.863759 
L 141.162502 120.863759 
L 141.375334 120.718879 
L 146.057648 120.718879 
L 146.270481 120.42912 
L 149.037303 120.42912 
L 149.250135 118.980323 
L 151.37846 118.980323 
L 151.591292 117.821286 
L 155.422277 117.821286 
L 155.635109 116.807129 
L 156.912104 116.807129 
L 157.124936 116.22761 
L 161.168753 116.22761 
L 161.381585 116.082731 
L 165.638235 116.082731 
L 165.851067 115.937851 
L 167.766559 115.937851 
L 167.979392 115.792972 
L 171.597544 115.792972 
L 171.810376 114.923694 
L 172.023208 114.778814 
L 172.236041 114.778814 
L 172.448873 114.344175 
L 173.087371 114.344175 
L 173.300203 114.199296 
L 173.513036 114.199296 
L 173.725868 114.054416 
L 184.154659 114.054416 
L 184.367491 113.909536 
L 185.644486 113.909536 
L 185.857318 113.764657 
L 187.134313 113.764657 
L 187.347146 110.722185 
L 188.411308 110.722185 
L 188.62414 110.577305 
L 192.667957 110.577305 
L 192.880789 107.100194 
L 193.306454 106.230916 
L 194.370617 106.230916 
L 194.583449 105.506518 
L 195.860444 105.506518 
L 196.073276 105.216759 
L 197.563104 105.216759 
L 197.775936 105.071879 
L 197.988768 105.071879 
L 198.201601 104.927 
L 199.265763 104.927 
L 199.478596 104.63724 
L 203.948077 104.63724 
L 204.16091 104.202602 
L 237.149941 104.202602 
L 237.362773 104.057722 
L 244.386245 104.057722 
L 244.599077 103.912842 
L 263.753998 103.912842 
L 263.966831 103.767963 
L 296.74303 103.767963 
L 296.955862 103.623083 
L 307.17182 103.623083 
L 307.384653 103.478203 
L 308.661647 103.478203 
L 308.87448 103.188444 
L 311.428469 103.188444 
L 311.641302 103.043564 
L 315.259454 103.043564 
L 315.472286 102.898685 
L 317.387778 102.898685 
L 317.600611 102.464046 
L 332.28605 102.464046 
L 332.498883 102.319166 
L 348.035652 102.319166 
L 348.248485 99.131815 
L 350.589642 99.131815 
L 350.802474 98.986935 
L 353.356464 98.986935 
L 353.569296 96.813741 
L 359.528605 96.813741 
L 359.741438 96.668861 
L 365.275082 96.668861 
L 365.487914 96.523981 
L 366.126411 96.523981 
L 366.339244 96.379102 
L 367.403406 96.379102 
L 367.616239 95.220065 
L 370.170228 95.220065 
L 370.383061 94.785426 
L 374.63971 94.785426 
L 374.852542 94.495667 
L 375.916705 94.495667 
L 375.916705 94.495667 
" clip-path="url(#p937e9b3832)" style="fill: none; stroke: #db5f57; stroke-width: 1.2; stroke-linecap: round"/>
   </g>
   <g id="line2d_49">
    <path d="M 69.650795 491.103644 
L 69.863628 489.727287 
L 71.566288 489.727287 
L 71.77912 487.119454 
L 71.991953 486.829695 
L 72.204785 485.091139 
L 72.417617 484.6565 
L 73.056115 484.6565 
L 73.48178 484.366741 
L 74.120277 484.366741 
L 74.33311 482.917945 
L 74.971607 451.623945 
L 75.184439 450.030269 
L 75.397272 443.510686 
L 75.822937 439.164298 
L 76.248602 437.280862 
L 76.674267 431.485677 
L 77.312764 423.517298 
L 77.951261 421.778742 
L 78.164094 420.619705 
L 78.376926 418.301631 
L 79.015424 394.396493 
L 79.228256 391.933539 
L 79.441089 386.283234 
L 79.653921 384.834438 
L 80.292418 362.667855 
L 80.718083 356.582911 
L 81.143748 340.356392 
L 81.356581 337.024161 
L 81.569413 318.624448 
L 81.995078 317.175652 
L 82.207911 312.249745 
L 82.420743 287.620208 
L 82.633575 287.475329 
L 82.846408 283.563579 
L 83.05924 281.969903 
L 83.484905 264.729227 
L 83.697738 264.584348 
L 83.91057 264.584348 
L 84.123403 264.149709 
L 84.336235 263.135552 
L 84.549068 236.332821 
L 84.7619 235.608423 
L 84.974733 225.611728 
L 85.187565 224.742451 
L 85.61323 218.222867 
L 85.826062 218.222867 
L 86.038895 217.933108 
L 86.251727 216.629192 
L 86.46456 214.600877 
L 86.677392 213.731599 
L 87.528722 213.731599 
L 87.741555 213.15208 
L 87.954387 213.15208 
L 88.167219 213.007201 
L 88.592884 213.007201 
L 89.018549 210.834006 
L 89.231382 209.674969 
L 89.444214 209.38521 
L 89.869879 209.38521 
L 90.295544 205.76322 
L 90.508376 205.61834 
L 90.934041 205.61834 
L 91.146874 205.328581 
L 91.572539 199.678275 
L 91.785371 199.388516 
L 91.998204 192.144535 
L 92.423869 191.854775 
L 92.849534 190.840618 
L 93.062366 190.840618 
L 93.488031 190.550859 
L 94.339361 190.550859 
L 94.552193 190.11622 
L 94.977858 190.11622 
L 95.190691 189.97134 
L 95.403523 189.536701 
L 95.616356 189.391822 
L 95.829188 189.391822 
L 96.254853 189.102063 
L 96.467685 188.667424 
L 96.680518 188.667424 
L 96.89335 188.377664 
L 97.74468 184.321035 
L 97.957513 184.031276 
L 98.170345 184.031276 
L 98.808842 176.207776 
L 99.44734 173.165304 
L 99.873005 173.165304 
L 100.29867 172.585785 
L 100.511502 171.281868 
L 100.724335 170.992109 
L 100.937167 170.267711 
L 101.362832 169.833072 
L 101.575664 169.688193 
L 101.788497 169.688193 
L 102.001329 169.108674 
L 102.426994 168.818915 
L 102.639827 168.818915 
L 102.852659 168.384276 
L 103.065492 166.7906 
L 103.703989 159.401739 
L 103.916821 158.387582 
L 104.129654 157.952943 
L 104.768151 157.518304 
L 104.980984 156.793906 
L 105.193816 155.05535 
L 105.406649 154.330952 
L 105.619481 154.186073 
L 106.045146 152.882156 
L 106.257978 152.737276 
L 106.470811 152.447517 
L 106.683643 152.447517 
L 107.322141 151.28848 
L 107.534973 150.998721 
L 107.747806 150.274323 
L 107.960638 149.984563 
L 108.173471 149.984563 
L 109.237633 147.231851 
L 109.450465 146.942091 
L 109.663298 146.942091 
L 109.87613 146.797212 
L 110.088963 146.797212 
L 110.514628 145.927934 
L 110.72746 145.783054 
L 111.153125 144.479138 
L 111.57879 144.189378 
L 112.217287 144.189378 
L 112.642952 143.899619 
L 113.707115 143.899619 
L 113.919947 143.754739 
L 114.132779 143.754739 
L 114.345612 143.60986 
L 114.771277 143.175221 
L 114.984109 143.175221 
L 115.409774 142.885462 
L 117.750931 142.885462 
L 117.963764 142.595702 
L 118.176596 141.871304 
L 118.389429 141.726425 
L 118.602261 141.726425 
L 118.815094 141.581545 
L 119.240758 140.712267 
L 119.879256 140.712267 
L 120.517753 140.277628 
L 121.369083 140.277628 
L 121.581916 140.132749 
L 122.433245 138.104434 
L 122.646078 137.959554 
L 122.85891 137.380036 
L 123.284575 137.090277 
L 123.71024 136.655638 
L 123.923073 136.510758 
L 124.987235 136.510758 
L 125.200067 136.365879 
L 127.541224 136.365879 
L 127.754057 136.076119 
L 127.966889 135.206842 
L 128.392554 134.772203 
L 128.605387 133.468286 
L 128.818219 132.888768 
L 129.243884 132.888768 
L 129.456717 132.454129 
L 130.095214 132.01949 
L 130.520879 130.860453 
L 130.733711 130.715573 
L 131.585041 130.715573 
L 131.797874 130.425814 
L 132.436371 130.425814 
L 132.649203 130.280934 
L 132.862036 130.280934 
L 133.074868 130.136055 
L 136.69302 130.136055 
L 136.905853 129.991175 
L 144.354989 129.991175 
L 144.567821 129.701416 
L 147.121811 129.701416 
L 147.334643 128.832138 
L 147.547476 128.687258 
L 148.398805 128.687258 
L 148.611638 128.542379 
L 148.82447 128.252619 
L 149.037303 128.252619 
L 149.6758 127.528221 
L 150.101465 127.528221 
L 150.314298 127.238462 
L 150.52713 127.238462 
L 150.739962 127.093582 
L 152.016957 127.093582 
L 152.442622 126.224305 
L 155.422277 126.224305 
L 155.635109 125.934545 
L 156.486439 125.934545 
L 156.699271 125.499907 
L 157.124936 125.499907 
L 157.337769 125.355027 
L 161.381585 125.355027 
L 161.594418 125.210147 
L 165.851067 125.210147 
L 166.0639 124.920388 
L 171.384711 124.920388 
L 171.810376 124.05111 
L 172.236041 123.616471 
L 172.448873 123.616471 
L 172.661706 123.326712 
L 173.513036 123.326712 
L 173.725868 123.181833 
L 182.239166 123.181833 
L 182.451999 123.036953 
L 185.644486 123.036953 
L 185.857318 122.892073 
L 186.070151 121.588157 
L 186.495816 120.863759 
L 186.708648 120.42912 
L 186.921481 120.42912 
L 187.134313 119.994481 
L 187.347146 119.994481 
L 187.559978 119.704722 
L 190.965297 119.704722 
L 191.17813 119.125203 
L 191.390962 118.980323 
L 191.603795 118.980323 
L 191.816627 118.545685 
L 192.02946 118.400805 
L 192.242292 117.386648 
L 192.455125 117.241768 
L 192.667957 116.37249 
L 192.880789 116.22761 
L 193.306454 115.358333 
L 193.732119 115.068573 
L 193.944952 115.068573 
L 194.157784 114.778814 
L 194.370617 114.778814 
L 194.796282 114.489055 
L 195.009114 114.489055 
L 195.221947 114.344175 
L 197.137439 114.344175 
L 197.350271 114.199296 
L 198.627266 114.199296 
L 198.840098 113.909536 
L 199.052931 113.909536 
L 199.265763 113.764657 
L 199.691428 113.764657 
L 199.904261 113.619777 
L 201.60692 113.619777 
L 201.819753 113.474898 
L 202.245418 113.474898 
L 202.45825 113.330018 
L 271.415967 113.330018 
L 271.628799 113.185138 
L 305.894825 113.185138 
L 306.107658 113.040259 
L 307.810318 113.040259 
L 308.02315 112.750499 
L 310.364307 112.750499 
L 310.57714 112.60562 
L 315.259454 112.60562 
L 315.472286 112.46074 
L 316.536448 112.46074 
L 316.749281 112.170981 
L 316.962113 112.170981 
L 317.174946 112.026101 
L 330.796223 112.026101 
L 331.009056 111.881222 
L 341.225014 111.881222 
L 341.437846 111.736342 
L 345.907328 111.736342 
L 346.332993 109.997787 
L 346.545825 109.997787 
L 346.758658 109.563148 
L 346.97149 109.563148 
L 347.397155 108.69387 
L 350.376809 108.69387 
L 350.589642 108.54899 
L 350.802474 108.54899 
L 351.015307 108.404111 
L 351.228139 106.955314 
L 351.440972 106.810435 
L 351.653804 106.375796 
L 357.825945 106.375796 
L 358.038778 106.230916 
L 365.062249 106.230916 
L 365.487914 105.941157 
L 365.700746 105.651398 
L 366.126411 105.651398 
L 366.339244 105.216759 
L 366.552076 105.216759 
L 366.764909 105.071879 
L 367.190574 105.071879 
L 367.403406 104.927 
L 367.616239 104.927 
L 367.829071 104.78212 
L 368.041904 104.347481 
L 371.447223 104.347481 
L 371.872888 104.057722 
L 375.916705 104.057722 
L 375.916705 104.057722 
" clip-path="url(#p937e9b3832)" style="fill: none; stroke: #b9db57; stroke-width: 1.2; stroke-linecap: round"/>
   </g>
   <g id="line2d_50">
    <path d="M 69.650795 491.828042 
L 69.863628 491.031204 
L 70.07646 490.886324 
L 70.289293 490.886324 
L 70.502125 490.596565 
L 70.714958 489.727287 
L 71.566288 489.727287 
L 71.77912 487.264333 
L 72.204785 485.815537 
L 72.417617 485.525778 
L 72.843282 485.525778 
L 73.056115 485.380898 
L 73.48178 485.380898 
L 73.694612 485.236019 
L 74.33311 485.236019 
L 74.545942 469.878778 
L 74.758774 468.429982 
L 75.184439 460.606482 
L 75.397272 458.578167 
L 75.610104 442.786288 
L 76.248602 438.874538 
L 76.461434 436.701344 
L 76.674267 432.934474 
L 76.887099 426.849529 
L 77.312764 424.966094 
L 77.525596 424.966094 
L 77.738429 424.821215 
L 77.951261 424.821215 
L 78.164094 424.676335 
L 78.589759 424.676335 
L 79.015424 394.686252 
L 79.228256 390.919382 
L 79.653921 390.194984 
L 79.866754 386.428114 
L 80.079586 386.283234 
L 80.292418 363.392253 
L 80.930916 345.427179 
L 81.569413 345.427179 
L 81.782246 311.670226 
L 82.207911 308.917513 
L 82.846408 308.917513 
L 83.05924 308.627754 
L 83.272073 308.627754 
L 83.484905 308.482875 
L 83.91057 308.048236 
L 84.123403 302.253051 
L 84.336235 238.650895 
L 84.549068 238.650895 
L 84.7619 238.506015 
L 85.400397 238.506015 
L 85.61323 207.356895 
L 86.251727 207.356895 
L 86.46456 204.604183 
L 86.677392 204.604183 
L 86.890225 204.459303 
L 87.741555 204.459303 
L 87.954387 202.430988 
L 88.167219 202.286109 
L 88.380052 202.286109 
L 88.592884 202.141229 
L 89.018549 202.141229 
L 89.231382 197.79484 
L 89.444214 197.215322 
L 89.657047 197.070442 
L 90.508376 197.070442 
L 90.721209 194.752368 
L 90.934041 194.607488 
L 91.359706 194.607488 
L 91.572539 188.812303 
L 93.488031 188.812303 
L 93.700863 188.667424 
L 94.126528 188.667424 
L 94.339361 188.377664 
L 94.552193 179.829766 
L 95.616356 179.829766 
L 95.829188 178.960489 
L 96.04202 178.960489 
L 96.254853 178.815609 
L 96.680518 178.815609 
L 96.89335 178.670729 
L 97.957513 178.670729 
L 98.170345 173.889702 
L 98.808842 173.889702 
L 99.021675 173.744822 
L 110.940293 173.744822 
L 111.365957 135.061962 
L 111.57879 134.772203 
L 111.791622 134.772203 
L 112.004455 134.627323 
L 114.558444 134.627323 
L 114.771277 133.613166 
L 114.984109 133.613166 
L 115.409774 133.323406 
L 115.622607 133.323406 
L 115.835439 133.178527 
L 116.261104 133.178527 
L 116.686769 132.888768 
L 123.071743 132.888768 
L 123.284575 127.093582 
L 124.348738 127.093582 
L 124.56157 126.514064 
L 125.838565 126.514064 
L 126.051397 126.369184 
L 128.179722 126.369184 
L 128.392554 124.485749 
L 128.605387 124.19599 
L 128.818219 124.19599 
L 129.031052 124.05111 
L 129.882381 124.05111 
L 130.095214 123.906231 
L 131.797874 123.906231 
L 132.010706 120.42912 
L 133.500533 120.42912 
L 133.713366 119.994481 
L 139.034177 119.994481 
L 139.24701 119.704722 
L 146.483313 119.704722 
L 146.696146 119.414962 
L 149.6758 119.414962 
L 149.888633 117.241768 
L 150.952795 117.241768 
L 151.165627 116.952009 
L 156.060774 116.952009 
L 156.273606 115.648092 
L 156.486439 115.358333 
L 156.912104 115.358333 
L 157.124936 115.213453 
L 163.50991 115.213453 
L 163.722743 115.068573 
L 165.851067 115.068573 
L 166.0639 114.923694 
L 167.128062 114.923694 
L 167.340894 114.778814 
L 173.938701 114.778814 
L 174.151533 113.040259 
L 193.093622 113.040259 
L 193.306454 105.651398 
L 195.647611 105.651398 
L 195.860444 104.202602 
L 197.137439 104.202602 
L 197.350271 104.057722 
L 198.627266 104.057722 
L 198.840098 103.767963 
L 201.394088 103.767963 
L 201.60692 103.333324 
L 203.096748 103.333324 
L 203.30958 103.188444 
L 205.863569 103.188444 
L 206.076402 103.043564 
L 251.622548 103.043564 
L 251.835381 102.898685 
L 286.739904 102.898685 
L 286.952737 102.753805 
L 295.466035 102.753805 
L 295.678867 102.608926 
L 295.8917 102.608926 
L 296.104532 102.464046 
L 305.681993 102.464046 
L 305.894825 102.319166 
L 307.597485 102.319166 
L 307.810318 102.029407 
L 312.705464 102.029407 
L 312.918297 101.884527 
L 316.323616 101.884527 
L 316.536448 101.449889 
L 316.749281 101.449889 
L 316.962113 101.305009 
L 330.157726 101.305009 
L 330.370558 101.160129 
L 345.907328 101.160129 
L 346.12016 101.01525 
L 348.248485 101.01525 
L 348.461317 97.972778 
L 350.376809 97.972778 
L 350.589642 97.827898 
L 356.123286 97.827898 
L 356.336118 95.654704 
L 358.677275 95.654704 
L 358.890108 95.509824 
L 366.339244 95.509824 
L 366.552076 94.495667 
L 367.616239 94.495667 
L 367.829071 94.205907 
L 370.170228 94.205907 
L 370.383061 93.771268 
L 375.916705 93.771268 
L 375.916705 93.771268 
" clip-path="url(#p937e9b3832)" style="fill: none; stroke: #57db94; stroke-width: 1.2; stroke-linecap: round"/>
   </g>
   <g id="line2d_51">
    <path d="M 69.650795 491.176083 
L 69.863628 489.872167 
L 71.353455 489.872167 
L 71.566288 489.147769 
L 71.77912 487.554093 
L 72.417617 485.815537 
L 73.056115 485.815537 
L 73.48178 485.525778 
L 74.33311 485.525778 
L 74.971607 454.956177 
L 75.184439 452.348344 
L 75.610104 445.683881 
L 75.822937 444.524844 
L 76.035769 442.496529 
L 76.248602 441.627251 
L 76.461434 440.178455 
L 76.674267 435.107668 
L 76.887099 435.107668 
L 77.099932 429.312483 
L 77.312764 429.022724 
L 77.525596 427.284168 
L 77.738429 426.55977 
L 77.951261 426.41489 
L 78.376926 423.807057 
L 78.589759 421.488983 
L 79.015424 398.887761 
L 79.228256 397.294086 
L 79.866754 381.357327 
L 80.505251 360.78442 
L 80.930916 350.932605 
L 82.633575 280.810866 
L 82.846408 276.464477 
L 83.05924 267.62682 
L 83.484905 264.729227 
L 83.697738 264.584348 
L 83.91057 262.556033 
L 84.123403 245.315358 
L 84.336235 238.216256 
L 84.549068 236.912339 
L 84.7619 230.682515 
L 84.974733 230.392756 
L 85.187565 220.97558 
L 85.400397 216.774071 
L 86.038895 214.890636 
L 86.251727 214.021358 
L 86.46456 214.021358 
L 86.677392 212.572562 
L 87.103057 211.848164 
L 87.31589 211.703284 
L 87.954387 211.703284 
L 88.167219 211.558405 
L 88.380052 211.268645 
L 88.592884 210.689127 
L 88.805717 210.544247 
L 89.018549 210.544247 
L 89.231382 207.791534 
L 89.444214 206.487618 
L 89.657047 206.197858 
L 89.869879 206.197858 
L 90.082712 206.052979 
L 90.295544 206.052979 
L 90.508376 204.169544 
L 90.721209 204.024664 
L 90.934041 204.024664 
L 91.146874 203.879784 
L 91.359706 203.155386 
L 91.572539 203.155386 
L 91.785371 199.243636 
L 91.998204 193.158692 
L 92.211036 193.158692 
L 92.423869 193.013812 
L 92.636701 192.579174 
L 92.849534 192.434294 
L 93.275198 192.434294 
L 93.488031 192.289414 
L 94.339361 192.289414 
L 94.765026 191.854775 
L 94.977858 191.854775 
L 95.190691 191.709896 
L 95.616356 191.275257 
L 96.254853 191.275257 
L 96.89335 190.2611 
L 97.106183 189.826461 
L 97.74468 186.928868 
L 97.957513 186.494229 
L 98.170345 186.34935 
L 98.383177 185.624951 
L 98.59601 181.423442 
L 98.808842 180.264405 
L 99.021675 179.829766 
L 99.44734 177.656572 
L 99.660172 176.932174 
L 100.085837 176.932174 
L 100.29867 176.642415 
L 100.511502 175.338498 
L 100.724335 175.193618 
L 100.937167 174.46922 
L 101.149999 174.179461 
L 101.362832 174.179461 
L 101.788497 173.889702 
L 102.001329 173.889702 
L 102.214162 173.310183 
L 102.852659 173.310183 
L 103.065492 172.585785 
L 103.491157 166.93548 
L 103.703989 166.7906 
L 103.916821 163.313489 
L 104.129654 162.733971 
L 104.342486 162.733971 
L 104.555319 162.444211 
L 104.768151 162.444211 
L 104.980984 161.430054 
L 105.193816 161.430054 
L 105.406649 159.546619 
L 105.619481 158.9671 
L 105.832314 158.9671 
L 106.470811 157.373424 
L 106.683643 157.373424 
L 106.896476 157.228545 
L 107.322141 155.924628 
L 107.534973 155.924628 
L 107.747806 155.634869 
L 107.960638 154.620711 
L 108.386303 154.620711 
L 109.0248 153.171915 
L 109.237633 152.737276 
L 109.450465 151.723119 
L 109.663298 151.723119 
L 109.87613 151.578239 
L 110.088963 151.578239 
L 110.301795 151.28848 
L 110.514628 151.28848 
L 110.72746 150.708962 
L 110.940293 150.708962 
L 111.365957 149.260165 
L 111.57879 149.115286 
L 111.791622 149.115286 
L 112.004455 148.970406 
L 112.642952 148.970406 
L 112.855785 148.825526 
L 113.919947 148.825526 
L 114.771277 148.246008 
L 114.984109 148.246008 
L 115.409774 147.956249 
L 117.963764 147.956249 
L 118.176596 147.231851 
L 118.602261 146.942091 
L 118.815094 146.942091 
L 119.240758 146.072814 
L 119.879256 146.072814 
L 120.092088 145.927934 
L 120.517753 145.927934 
L 120.730586 145.638175 
L 121.581916 145.638175 
L 121.794748 145.493295 
L 122.00758 145.493295 
L 122.220413 144.334258 
L 122.433245 144.334258 
L 122.646078 143.46498 
L 122.85891 143.46498 
L 123.071743 142.740582 
L 123.284575 142.450823 
L 123.71024 142.450823 
L 123.923073 142.016184 
L 124.135905 141.871304 
L 124.56157 141.871304 
L 124.774402 141.726425 
L 127.541224 141.726425 
L 127.754057 141.581545 
L 127.966889 140.567388 
L 128.179722 140.277628 
L 128.392554 140.277628 
L 128.605387 139.84299 
L 128.818219 139.84299 
L 129.031052 138.249314 
L 129.456717 138.249314 
L 129.669549 137.814675 
L 130.095214 137.524916 
L 130.308046 136.800517 
L 130.733711 136.800517 
L 130.946544 136.220999 
L 131.585041 136.220999 
L 131.797874 135.93124 
L 132.649203 135.93124 
L 133.074868 135.64148 
L 137.118685 135.64148 
L 137.331518 135.496601 
L 139.034177 135.496601 
L 139.24701 135.351721 
L 144.567821 135.351721 
L 144.780654 135.206842 
L 147.121811 135.206842 
L 147.547476 134.192684 
L 148.611638 134.192684 
L 149.6758 132.888768 
L 149.888633 132.888768 
L 150.101465 132.599008 
L 150.52713 132.599008 
L 150.739962 132.454129 
L 151.591292 132.454129 
L 151.804125 132.309249 
L 152.016957 132.309249 
L 152.22979 132.01949 
L 152.442622 132.01949 
L 152.655455 131.729731 
L 155.635109 131.729731 
L 155.847942 131.439971 
L 156.060774 131.439971 
L 156.273606 131.150212 
L 156.486439 131.150212 
L 156.699271 131.005332 
L 156.912104 131.005332 
L 157.124936 130.860453 
L 160.955921 130.860453 
L 161.168753 130.715573 
L 164.574072 130.715573 
L 164.786905 130.570693 
L 165.638235 130.570693 
L 165.851067 130.425814 
L 166.0639 130.425814 
L 166.276732 130.280934 
L 168.405057 130.280934 
L 168.617889 130.136055 
L 171.384711 130.136055 
L 171.597544 129.991175 
L 172.236041 129.266777 
L 172.448873 129.121897 
L 172.661706 128.832138 
L 173.513036 128.832138 
L 173.725868 128.687258 
L 182.664831 128.687258 
L 182.877664 128.542379 
L 185.857318 128.542379 
L 186.070151 128.10774 
L 186.495816 126.803823 
L 186.708648 126.369184 
L 186.921481 126.224305 
L 187.134313 125.789666 
L 187.347146 125.644786 
L 187.559978 125.644786 
L 187.77281 125.499907 
L 190.965297 125.499907 
L 191.17813 125.065268 
L 191.390962 125.065268 
L 192.02946 124.19599 
L 192.242292 124.19599 
L 192.667957 122.312555 
L 192.880789 122.167675 
L 193.093622 122.167675 
L 193.306454 121.298397 
L 193.519287 121.298397 
L 194.157784 120.863759 
L 194.370617 120.863759 
L 194.796282 120.42912 
L 195.221947 120.42912 
L 195.434779 120.28424 
L 196.711774 120.28424 
L 196.924606 120.13936 
L 197.988768 120.13936 
L 198.414433 119.849601 
L 198.840098 119.849601 
L 199.052931 119.704722 
L 199.478596 119.704722 
L 199.691428 119.559842 
L 201.394088 119.559842 
L 201.60692 119.414962 
L 202.245418 119.414962 
L 202.45825 119.270083 
L 310.57714 119.270083 
L 310.789972 119.125203 
L 315.259454 119.125203 
L 315.472286 118.980323 
L 316.110783 118.980323 
L 316.323616 118.690564 
L 316.749281 118.690564 
L 316.962113 118.545685 
L 328.455066 118.545685 
L 328.667899 118.400805 
L 330.157726 118.400805 
L 330.370558 118.255925 
L 341.225014 118.255925 
L 341.437846 118.111046 
L 346.12016 118.111046 
L 346.545825 116.37249 
L 346.758658 116.082731 
L 346.97149 116.082731 
L 347.184323 115.937851 
L 347.397155 115.503212 
L 347.609987 115.358333 
L 350.376809 115.358333 
L 350.589642 115.213453 
L 351.015307 115.213453 
L 351.228139 113.909536 
L 351.440972 113.909536 
L 351.866637 113.330018 
L 358.038778 113.330018 
L 358.25161 113.185138 
L 365.062249 113.185138 
L 365.275082 113.040259 
L 365.487914 113.040259 
L 365.913579 112.750499 
L 366.126411 112.750499 
L 366.339244 112.315861 
L 366.552076 112.315861 
L 366.764909 112.170981 
L 367.190574 112.170981 
L 367.403406 112.026101 
L 368.041904 112.026101 
L 368.254736 111.591462 
L 371.447223 111.591462 
L 371.872888 111.301703 
L 375.916705 111.301703 
L 375.916705 111.301703 
" clip-path="url(#p937e9b3832)" style="fill: none; stroke: #5784db; stroke-width: 1.2; stroke-linecap: round"/>
   </g>
   <g id="line2d_52">
    <path d="M 69.650795 491.176083 
L 69.863628 489.872167 
L 71.353455 489.872167 
L 71.566288 489.147769 
L 71.77912 487.119454 
L 72.417617 484.511621 
L 72.843282 484.511621 
L 73.056115 484.366741 
L 73.268947 484.366741 
L 73.48178 484.221861 
L 74.120277 484.221861 
L 74.33311 482.773065 
L 74.545942 465.097751 
L 75.184439 447.567316 
L 75.610104 440.468214 
L 76.035769 437.860381 
L 76.248602 436.846223 
L 77.099932 423.662178 
L 77.312764 422.068502 
L 77.738429 420.764585 
L 77.951261 420.329946 
L 78.164094 418.88115 
L 78.376926 416.563076 
L 78.589759 407.725419 
L 78.802591 394.251613 
L 79.015424 392.513058 
L 79.653921 380.343169 
L 80.079586 361.363938 
L 80.718083 346.441337 
L 80.930916 341.660309 
L 81.356581 326.013309 
L 81.782246 302.54281 
L 83.272073 256.18133 
L 83.484905 254.732533 
L 83.697738 254.587654 
L 83.91057 252.559339 
L 84.123403 235.463543 
L 84.549068 220.830701 
L 84.7619 219.526784 
L 84.974733 209.240331 
L 85.187565 208.226173 
L 85.400397 203.734905 
L 86.251727 201.127072 
L 86.677392 199.243636 
L 87.31589 198.808997 
L 87.954387 198.808997 
L 88.167219 198.664118 
L 88.380052 198.374359 
L 89.018549 196.635803 
L 89.231382 194.172849 
L 89.444214 193.448451 
L 89.657047 193.448451 
L 90.082712 193.158692 
L 90.295544 191.275257 
L 90.508376 191.130377 
L 90.721209 191.130377 
L 90.934041 190.985498 
L 91.146874 190.985498 
L 91.572539 185.190313 
L 91.785371 184.900553 
L 91.998204 177.656572 
L 92.211036 177.656572 
L 92.423869 177.511692 
L 92.849534 176.497535 
L 93.062366 176.497535 
L 93.488031 176.207776 
L 94.126528 176.207776 
L 94.339361 176.062896 
L 94.552193 175.773137 
L 94.977858 175.773137 
L 95.616356 174.903859 
L 95.829188 174.903859 
L 96.254853 174.6141 
L 96.467685 174.179461 
L 96.680518 174.179461 
L 96.89335 173.744822 
L 97.74468 169.833072 
L 97.957513 169.543313 
L 98.170345 169.543313 
L 98.808842 161.719813 
L 99.44734 158.677341 
L 99.873005 158.677341 
L 100.085837 158.387582 
L 100.937167 155.779748 
L 101.362832 155.34511 
L 101.575664 155.20023 
L 101.788497 155.20023 
L 102.001329 154.620711 
L 102.426994 154.330952 
L 102.639827 154.330952 
L 102.852659 153.896313 
L 103.065492 152.302637 
L 103.703989 144.768897 
L 103.916821 143.754739 
L 104.342486 143.320101 
L 104.768151 143.030341 
L 104.980984 142.161064 
L 105.193816 140.422508 
L 105.406649 139.84299 
L 105.619481 139.69811 
L 106.045146 138.394193 
L 106.470811 137.814675 
L 106.683643 137.814675 
L 107.109308 136.945397 
L 107.322141 136.800517 
L 107.534973 136.510758 
L 107.747806 135.78636 
L 107.960638 135.496601 
L 108.173471 135.496601 
L 109.237633 132.743888 
L 109.450465 132.454129 
L 109.663298 132.454129 
L 109.87613 132.309249 
L 110.088963 132.309249 
L 110.514628 131.439971 
L 110.72746 131.295092 
L 111.153125 129.991175 
L 111.57879 129.701416 
L 111.791622 129.701416 
L 112.004455 129.556536 
L 112.43012 129.556536 
L 112.642952 129.411656 
L 113.707115 129.411656 
L 113.919947 129.266777 
L 114.132779 129.266777 
L 114.345612 129.121897 
L 114.771277 128.687258 
L 114.984109 128.687258 
L 115.409774 128.252619 
L 117.750931 128.252619 
L 117.963764 127.96286 
L 118.176596 127.238462 
L 118.389429 127.093582 
L 118.602261 127.093582 
L 118.815094 126.948703 
L 119.240758 126.079425 
L 119.879256 126.079425 
L 120.517753 125.644786 
L 121.369083 125.644786 
L 121.581916 125.499907 
L 122.433245 123.471592 
L 122.646078 123.326712 
L 122.85891 122.747194 
L 123.284575 122.457434 
L 123.71024 122.022796 
L 123.923073 121.877916 
L 124.56157 121.877916 
L 124.774402 121.733036 
L 127.541224 121.733036 
L 127.754057 121.443277 
L 127.966889 120.573999 
L 128.392554 119.849601 
L 128.605387 118.545685 
L 128.818219 118.255925 
L 129.243884 118.255925 
L 129.456717 117.821286 
L 130.095214 117.386648 
L 130.520879 116.22761 
L 130.733711 116.082731 
L 131.585041 116.082731 
L 131.797874 115.792972 
L 132.436371 115.792972 
L 132.649203 115.648092 
L 132.862036 115.648092 
L 133.074868 115.503212 
L 136.69302 115.503212 
L 136.905853 115.358333 
L 139.034177 115.358333 
L 139.24701 115.213453 
L 144.354989 115.213453 
L 144.567821 114.923694 
L 147.121811 114.923694 
L 147.334643 114.054416 
L 147.547476 113.909536 
L 148.398805 113.909536 
L 148.611638 113.764657 
L 148.82447 113.474898 
L 149.037303 113.474898 
L 149.6758 112.60562 
L 149.888633 112.60562 
L 150.101465 112.46074 
L 150.52713 112.46074 
L 150.739962 112.315861 
L 151.591292 112.315861 
L 151.804125 112.170981 
L 152.016957 112.170981 
L 152.655455 111.446583 
L 155.422277 111.446583 
L 155.635109 111.156824 
L 156.060774 111.156824 
L 156.486439 110.722185 
L 156.912104 110.722185 
L 157.124936 110.577305 
L 160.955921 110.577305 
L 161.168753 110.432425 
L 165.638235 110.432425 
L 166.0639 110.142666 
L 171.384711 110.142666 
L 171.810376 109.273388 
L 172.236041 108.83875 
L 172.661706 108.54899 
L 173.513036 108.54899 
L 173.725868 108.404111 
L 182.239166 108.404111 
L 182.451999 108.259231 
L 185.644486 108.259231 
L 185.857318 108.114351 
L 186.070151 106.810435 
L 186.495816 106.086037 
L 186.708648 105.651398 
L 186.921481 105.651398 
L 187.134313 105.071879 
L 187.347146 105.071879 
L 187.559978 104.927 
L 190.965297 104.927 
L 191.17813 104.347481 
L 191.390962 104.202602 
L 191.603795 104.202602 
L 191.816627 103.767963 
L 192.02946 103.623083 
L 192.242292 102.608926 
L 192.455125 102.464046 
L 192.667957 101.594768 
L 192.880789 101.449889 
L 193.306454 100.580611 
L 193.732119 100.290852 
L 193.944952 100.290852 
L 194.157784 100.001092 
L 194.370617 100.001092 
L 194.796282 99.711333 
L 195.009114 99.711333 
L 195.221947 99.566453 
L 196.711774 99.566453 
L 196.924606 99.421574 
L 197.988768 99.421574 
L 198.414433 99.131815 
L 198.840098 99.131815 
L 199.052931 98.986935 
L 199.478596 98.986935 
L 199.691428 98.842055 
L 201.394088 98.842055 
L 201.60692 98.697176 
L 202.245418 98.697176 
L 202.45825 98.552296 
L 271.415967 98.552296 
L 271.628799 98.407416 
L 305.681993 98.407416 
L 305.894825 98.262537 
L 307.597485 98.262537 
L 307.810318 97.972778 
L 310.364307 97.972778 
L 310.57714 97.827898 
L 315.259454 97.827898 
L 315.472286 97.683018 
L 316.110783 97.683018 
L 316.323616 97.393259 
L 316.749281 97.393259 
L 316.962113 97.248379 
L 330.157726 97.248379 
L 330.370558 97.1035 
L 341.225014 97.1035 
L 341.437846 96.95862 
L 345.907328 96.95862 
L 346.332993 95.220065 
L 346.545825 95.220065 
L 346.758658 94.785426 
L 346.97149 94.785426 
L 347.397155 93.916148 
L 350.376809 93.916148 
L 350.589642 93.771268 
L 350.802474 93.771268 
L 351.015307 93.626389 
L 351.228139 92.177593 
L 351.440972 92.032713 
L 351.653804 91.598074 
L 357.825945 91.598074 
L 358.038778 91.453194 
L 365.062249 91.453194 
L 365.487914 91.163435 
L 365.700746 90.873676 
L 366.126411 90.873676 
L 366.339244 90.439037 
L 366.552076 90.439037 
L 366.764909 90.294157 
L 367.190574 90.294157 
L 367.403406 90.149278 
L 367.616239 90.149278 
L 367.829071 90.004398 
L 368.041904 89.569759 
L 371.447223 89.569759 
L 371.872888 89.28 
L 375.916705 89.28 
L 375.916705 89.28 
" clip-path="url(#p937e9b3832)" style="fill: none; stroke: #c957db; stroke-width: 1.2; stroke-linecap: round"/>
   </g>
   <g id="line2d_53"/>
   <g id="line2d_54"/>
   <g id="line2d_55"/>
   <g id="line2d_56"/>
   <g id="line2d_57"/>
   <g id="patch_3">
    <path d="M 54.3375 512.64 
L 54.3375 69.12 
" style="fill: none; stroke: #cccccc; stroke-linejoin: miter; stroke-linecap: square"/>
   </g>
   <g id="patch_4">
    <path d="M 54.3375 512.64 
L 391.23 512.64 
" style="fill: none; stroke: #cccccc; stroke-linejoin: miter; stroke-linecap: square"/>
   </g>
   <g id="text_50">
    <!-- Edge Coverage History -->
    <g style="fill: #262626" transform="translate(115.892262 63.12)scale(0.165888 -0.165888)">
     <defs>
      <path id="DejaVuSans-Bold-45" d="M 588 4666 
L 3834 4666 
L 3834 3756 
L 1791 3756 
L 1791 2888 
L 3713 2888 
L 3713 1978 
L 1791 1978 
L 1791 909 
L 3903 909 
L 3903 0 
L 588 0 
L 588 4666 
z
" transform="scale(0.015625)"/>
      <path id="DejaVuSans-Bold-64" d="M 2919 2988 
L 2919 4863 
L 4044 4863 
L 4044 0 
L 2919 0 
L 2919 506 
Q 2688 197 2409 53 
Q 2131 -91 1766 -91 
Q 1119 -91 703 423 
Q 288 938 288 1747 
Q 288 2556 703 3070 
Q 1119 3584 1766 3584 
Q 2128 3584 2408 3439 
Q 2688 3294 2919 2988 
z
M 2181 722 
Q 2541 722 2730 984 
Q 2919 1247 2919 1747 
Q 2919 2247 2730 2509 
Q 2541 2772 2181 2772 
Q 1825 2772 1636 2509 
Q 1447 2247 1447 1747 
Q 1447 1247 1636 984 
Q 1825 722 2181 722 
z
" transform="scale(0.015625)"/>
      <path id="DejaVuSans-Bold-67" d="M 2919 594 
Q 2688 288 2409 144 
Q 2131 0 1766 0 
Q 1125 0 706 504 
Q 288 1009 288 1791 
Q 288 2575 706 3076 
Q 1125 3578 1766 3578 
Q 2131 3578 2409 3434 
Q 2688 3291 2919 2981 
L 2919 3500 
L 4044 3500 
L 4044 353 
Q 4044 -491 3511 -936 
Q 2978 -1381 1966 -1381 
Q 1638 -1381 1331 -1331 
Q 1025 -1281 716 -1178 
L 716 -306 
Q 1009 -475 1290 -558 
Q 1572 -641 1856 -641 
Q 2406 -641 2662 -400 
Q 2919 -159 2919 353 
L 2919 594 
z
M 2181 2772 
Q 1834 2772 1640 2515 
Q 1447 2259 1447 1791 
Q 1447 1309 1634 1061 
Q 1822 813 2181 813 
Q 2531 813 2725 1069 
Q 2919 1325 2919 1791 
Q 2919 2259 2725 2515 
Q 2531 2772 2181 2772 
z
" transform="scale(0.015625)"/>
      <path id="DejaVuSans-Bold-65" d="M 4031 1759 
L 4031 1441 
L 1416 1441 
Q 1456 1047 1700 850 
Q 1944 653 2381 653 
Q 2734 653 3104 758 
Q 3475 863 3866 1075 
L 3866 213 
Q 3469 63 3072 -14 
Q 2675 -91 2278 -91 
Q 1328 -91 801 392 
Q 275 875 275 1747 
Q 275 2603 792 3093 
Q 1309 3584 2216 3584 
Q 3041 3584 3536 3087 
Q 4031 2591 4031 1759 
z
M 2881 2131 
Q 2881 2450 2695 2645 
Q 2509 2841 2209 2841 
Q 1884 2841 1681 2658 
Q 1478 2475 1428 2131 
L 2881 2131 
z
" transform="scale(0.015625)"/>
      <path id="DejaVuSans-Bold-20" transform="scale(0.015625)"/>
      <path id="DejaVuSans-Bold-43" d="M 4288 256 
Q 3956 84 3597 -3 
Q 3238 -91 2847 -91 
Q 1681 -91 1000 561 
Q 319 1213 319 2328 
Q 319 3447 1000 4098 
Q 1681 4750 2847 4750 
Q 3238 4750 3597 4662 
Q 3956 4575 4288 4403 
L 4288 3438 
Q 3953 3666 3628 3772 
Q 3303 3878 2944 3878 
Q 2300 3878 1931 3465 
Q 1563 3053 1563 2328 
Q 1563 1606 1931 1193 
Q 2300 781 2944 781 
Q 3303 781 3628 887 
Q 3953 994 4288 1222 
L 4288 256 
z
" transform="scale(0.015625)"/>
      <path id="DejaVuSans-Bold-6f" d="M 2203 2784 
Q 1831 2784 1636 2517 
Q 1441 2250 1441 1747 
Q 1441 1244 1636 976 
Q 1831 709 2203 709 
Q 2569 709 2762 976 
Q 2956 1244 2956 1747 
Q 2956 2250 2762 2517 
Q 2569 2784 2203 2784 
z
M 2203 3584 
Q 3106 3584 3614 3096 
Q 4122 2609 4122 1747 
Q 4122 884 3614 396 
Q 3106 -91 2203 -91 
Q 1297 -91 786 396 
Q 275 884 275 1747 
Q 275 2609 786 3096 
Q 1297 3584 2203 3584 
z
" transform="scale(0.015625)"/>
      <path id="DejaVuSans-Bold-76" d="M 97 3500 
L 1216 3500 
L 2088 1081 
L 2956 3500 
L 4078 3500 
L 2700 0 
L 1472 0 
L 97 3500 
z
" transform="scale(0.015625)"/>
      <path id="DejaVuSans-Bold-72" d="M 3138 2547 
Q 2991 2616 2845 2648 
Q 2700 2681 2553 2681 
Q 2122 2681 1889 2404 
Q 1656 2128 1656 1613 
L 1656 0 
L 538 0 
L 538 3500 
L 1656 3500 
L 1656 2925 
Q 1872 3269 2151 3426 
Q 2431 3584 2822 3584 
Q 2878 3584 2943 3579 
Q 3009 3575 3134 3559 
L 3138 2547 
z
" transform="scale(0.015625)"/>
      <path id="DejaVuSans-Bold-61" d="M 2106 1575 
Q 1756 1575 1579 1456 
Q 1403 1338 1403 1106 
Q 1403 894 1545 773 
Q 1688 653 1941 653 
Q 2256 653 2472 879 
Q 2688 1106 2688 1447 
L 2688 1575 
L 2106 1575 
z
M 3816 1997 
L 3816 0 
L 2688 0 
L 2688 519 
Q 2463 200 2181 54 
Q 1900 -91 1497 -91 
Q 953 -91 614 226 
Q 275 544 275 1050 
Q 275 1666 698 1953 
Q 1122 2241 2028 2241 
L 2688 2241 
L 2688 2328 
Q 2688 2594 2478 2717 
Q 2269 2841 1825 2841 
Q 1466 2841 1156 2769 
Q 847 2697 581 2553 
L 581 3406 
Q 941 3494 1303 3539 
Q 1666 3584 2028 3584 
Q 2975 3584 3395 3211 
Q 3816 2838 3816 1997 
z
" transform="scale(0.015625)"/>
      <path id="DejaVuSans-Bold-48" d="M 588 4666 
L 1791 4666 
L 1791 2888 
L 3566 2888 
L 3566 4666 
L 4769 4666 
L 4769 0 
L 3566 0 
L 3566 1978 
L 1791 1978 
L 1791 0 
L 588 0 
L 588 4666 
z
" transform="scale(0.015625)"/>
      <path id="DejaVuSans-Bold-69" d="M 538 3500 
L 1656 3500 
L 1656 0 
L 538 0 
L 538 3500 
z
M 538 4863 
L 1656 4863 
L 1656 3950 
L 538 3950 
L 538 4863 
z
" transform="scale(0.015625)"/>
      <path id="DejaVuSans-Bold-73" d="M 3272 3391 
L 3272 2541 
Q 2913 2691 2578 2766 
Q 2244 2841 1947 2841 
Q 1628 2841 1473 2761 
Q 1319 2681 1319 2516 
Q 1319 2381 1436 2309 
Q 1553 2238 1856 2203 
L 2053 2175 
Q 2913 2066 3209 1816 
Q 3506 1566 3506 1031 
Q 3506 472 3093 190 
Q 2681 -91 1863 -91 
Q 1516 -91 1145 -36 
Q 775 19 384 128 
L 384 978 
Q 719 816 1070 734 
Q 1422 653 1784 653 
Q 2113 653 2278 743 
Q 2444 834 2444 1013 
Q 2444 1163 2330 1236 
Q 2216 1309 1875 1350 
L 1678 1375 
Q 931 1469 631 1722 
Q 331 1975 331 2491 
Q 331 3047 712 3315 
Q 1094 3584 1881 3584 
Q 2191 3584 2531 3537 
Q 2872 3491 3272 3391 
z
" transform="scale(0.015625)"/>
      <path id="DejaVuSans-Bold-74" d="M 1759 4494 
L 1759 3500 
L 2913 3500 
L 2913 2700 
L 1759 2700 
L 1759 1216 
Q 1759 972 1856 886 
Q 1953 800 2241 800 
L 2816 800 
L 2816 0 
L 1856 0 
Q 1194 0 917 276 
Q 641 553 641 1216 
L 641 2700 
L 84 2700 
L 84 3500 
L 641 3500 
L 641 4494 
L 1759 4494 
z
" transform="scale(0.015625)"/>
      <path id="DejaVuSans-Bold-79" d="M 78 3500 
L 1197 3500 
L 2138 1125 
L 2938 3500 
L 4056 3500 
L 2584 -331 
Q 2363 -916 2067 -1148 
Q 1772 -1381 1288 -1381 
L 641 -1381 
L 641 -647 
L 991 -647 
Q 1275 -647 1404 -556 
Q 1534 -466 1606 -231 
L 1638 -134 
L 78 3500 
z
" transform="scale(0.015625)"/>
     </defs>
     <use xlink:href="#DejaVuSans-Bold-45"/>
     <use xlink:href="#DejaVuSans-Bold-64" x="68.310547"/>
     <use xlink:href="#DejaVuSans-Bold-67" x="139.892578"/>
     <use xlink:href="#DejaVuSans-Bold-65" x="211.474609"/>
     <use xlink:href="#DejaVuSans-Bold-20" x="279.296875"/>
     <use xlink:href="#DejaVuSans-Bold-43" x="314.111328"/>
     <use xlink:href="#DejaVuSans-Bold-6f" x="387.5"/>
     <use xlink:href="#DejaVuSans-Bold-76" x="456.201172"/>
     <use xlink:href="#DejaVuSans-Bold-65" x="521.386719"/>
     <use xlink:href="#DejaVuSans-Bold-72" x="589.208984"/>
     <use xlink:href="#DejaVuSans-Bold-61" x="638.525391"/>
     <use xlink:href="#DejaVuSans-Bold-67" x="706.005859"/>
     <use xlink:href="#DejaVuSans-Bold-65" x="777.587891"/>
     <use xlink:href="#DejaVuSans-Bold-20" x="845.410156"/>
     <use xlink:href="#DejaVuSans-Bold-48" x="880.224609"/>
     <use xlink:href="#DejaVuSans-Bold-69" x="963.916016"/>
     <use xlink:href="#DejaVuSans-Bold-73" x="998.193359"/>
     <use xlink:href="#DejaVuSans-Bold-74" x="1057.714844"/>
     <use xlink:href="#DejaVuSans-Bold-6f" x="1105.517578"/>
     <use xlink:href="#DejaVuSans-Bold-72" x="1174.21875"/>
     <use xlink:href="#DejaVuSans-Bold-79" x="1223.535156"/>
    </g>
   </g>
   <g id="legend_1">
    <g id="patch_5">
     <path d="M 267.942 508.24 
L 385.07 508.24 
Q 386.83 508.24 386.83 506.48 
L 386.83 428.8405 
Q 386.83 427.0805 385.07 427.0805 
L 267.942 427.0805 
Q 266.182 427.0805 266.182 428.8405 
L 266.182 506.48 
Q 266.182 508.24 267.942 508.24 
z
" style="fill: #ffffff; opacity: 0.8; stroke: #cccccc; stroke-width: 0.8; stroke-linejoin: miter"/>
    </g>
    <g id="text_51">
     <!-- fuzzer -->
     <g style="fill: #262626" transform="translate(311.809 437.895)scale(0.096 -0.096)">
      <defs>
       <path id="DejaVuSans-66" d="M 2375 4863 
L 2375 4384 
L 1825 4384 
Q 1516 4384 1395 4259 
Q 1275 4134 1275 3809 
L 1275 3500 
L 2222 3500 
L 2222 3053 
L 1275 3053 
L 1275 0 
L 697 0 
L 697 3053 
L 147 3053 
L 147 3500 
L 697 3500 
L 697 3744 
Q 697 4328 969 4595 
Q 1241 4863 1831 4863 
L 2375 4863 
z
" transform="scale(0.015625)"/>
       <path id="DejaVuSans-7a" d="M 353 3500 
L 3084 3500 
L 3084 2975 
L 922 459 
L 3084 459 
L 3084 0 
L 275 0 
L 275 525 
L 2438 3041 
L 353 3041 
L 353 3500 
z
" transform="scale(0.015625)"/>
      </defs>
      <use xlink:href="#DejaVuSans-66"/>
      <use xlink:href="#DejaVuSans-75" x="35.205078"/>
      <use xlink:href="#DejaVuSans-7a" x="98.583984"/>
      <use xlink:href="#DejaVuSans-7a" x="151.074219"/>
      <use xlink:href="#DejaVuSans-65" x="203.564453"/>
      <use xlink:href="#DejaVuSans-72" x="265.087891"/>
     </g>
    </g>
    <g id="line2d_58">
     <path d="M 269.702 447.898125 
L 278.502 447.898125 
L 287.302 447.898125 
" style="fill: none; stroke: #db5f57; stroke-width: 1.2; stroke-linecap: round"/>
    </g>
    <g id="text_52">
     <!-- aflplusplus-0-exid24 -->
     <g style="fill: #262626" transform="translate(294.342 450.978125)scale(0.088 -0.088)">
      <defs>
       <path id="DejaVuSans-6c" d="M 603 4863 
L 1178 4863 
L 1178 0 
L 603 0 
L 603 4863 
z
" transform="scale(0.015625)"/>
       <path id="DejaVuSans-70" d="M 1159 525 
L 1159 -1331 
L 581 -1331 
L 581 3500 
L 1159 3500 
L 1159 2969 
Q 1341 3281 1617 3432 
Q 1894 3584 2278 3584 
Q 2916 3584 3314 3078 
Q 3713 2572 3713 1747 
Q 3713 922 3314 415 
Q 2916 -91 2278 -91 
Q 1894 -91 1617 61 
Q 1341 213 1159 525 
z
M 3116 1747 
Q 3116 2381 2855 2742 
Q 2594 3103 2138 3103 
Q 1681 3103 1420 2742 
Q 1159 2381 1159 1747 
Q 1159 1113 1420 752 
Q 1681 391 2138 391 
Q 2594 391 2855 752 
Q 3116 1113 3116 1747 
z
" transform="scale(0.015625)"/>
       <path id="DejaVuSans-2d" d="M 313 2009 
L 1997 2009 
L 1997 1497 
L 313 1497 
L 313 2009 
z
" transform="scale(0.015625)"/>
       <path id="DejaVuSans-78" d="M 3513 3500 
L 2247 1797 
L 3578 0 
L 2900 0 
L 1881 1375 
L 863 0 
L 184 0 
L 1544 1831 
L 300 3500 
L 978 3500 
L 1906 2253 
L 2834 3500 
L 3513 3500 
z
" transform="scale(0.015625)"/>
      </defs>
      <use xlink:href="#DejaVuSans-61"/>
      <use xlink:href="#DejaVuSans-66" x="61.279297"/>
      <use xlink:href="#DejaVuSans-6c" x="96.484375"/>
      <use xlink:href="#DejaVuSans-70" x="124.267578"/>
      <use xlink:href="#DejaVuSans-6c" x="187.744141"/>
      <use xlink:href="#DejaVuSans-75" x="215.527344"/>
      <use xlink:href="#DejaVuSans-73" x="278.90625"/>
      <use xlink:href="#DejaVuSans-70" x="331.005859"/>
      <use xlink:href="#DejaVuSans-6c" x="394.482422"/>
      <use xlink:href="#DejaVuSans-75" x="422.265625"/>
      <use xlink:href="#DejaVuSans-73" x="485.644531"/>
      <use xlink:href="#DejaVuSans-2d" x="537.744141"/>
      <use xlink:href="#DejaVuSans-30" x="573.828125"/>
      <use xlink:href="#DejaVuSans-2d" x="637.451172"/>
      <use xlink:href="#DejaVuSans-65" x="673.535156"/>
      <use xlink:href="#DejaVuSans-78" x="733.308594"/>
      <use xlink:href="#DejaVuSans-69" x="792.488281"/>
      <use xlink:href="#DejaVuSans-64" x="820.271484"/>
      <use xlink:href="#DejaVuSans-32" x="883.748047"/>
      <use xlink:href="#DejaVuSans-34" x="947.371094"/>
     </g>
    </g>
    <g id="line2d_59">
     <path d="M 269.702 460.814875 
L 278.502 460.814875 
L 287.302 460.814875 
" style="fill: none; stroke: #b9db57; stroke-width: 1.2; stroke-linecap: round"/>
    </g>
    <g id="text_53">
     <!-- fairfuzz-0-exid24 -->
     <g style="fill: #262626" transform="translate(294.342 463.894875)scale(0.088 -0.088)">
      <use xlink:href="#DejaVuSans-66"/>
      <use xlink:href="#DejaVuSans-61" x="35.205078"/>
      <use xlink:href="#DejaVuSans-69" x="96.484375"/>
      <use xlink:href="#DejaVuSans-72" x="124.267578"/>
      <use xlink:href="#DejaVuSans-66" x="165.380859"/>
      <use xlink:href="#DejaVuSans-75" x="200.585938"/>
      <use xlink:href="#DejaVuSans-7a" x="263.964844"/>
      <use xlink:href="#DejaVuSans-7a" x="316.455078"/>
      <use xlink:href="#DejaVuSans-2d" x="368.945312"/>
      <use xlink:href="#DejaVuSans-30" x="405.029297"/>
      <use xlink:href="#DejaVuSans-2d" x="468.652344"/>
      <use xlink:href="#DejaVuSans-65" x="504.736328"/>
      <use xlink:href="#DejaVuSans-78" x="564.509766"/>
      <use xlink:href="#DejaVuSans-69" x="623.689453"/>
      <use xlink:href="#DejaVuSans-64" x="651.472656"/>
      <use xlink:href="#DejaVuSans-32" x="714.949219"/>
      <use xlink:href="#DejaVuSans-34" x="778.572266"/>
     </g>
    </g>
    <g id="line2d_60">
     <path d="M 269.702 473.731625 
L 278.502 473.731625 
L 287.302 473.731625 
" style="fill: none; stroke: #57db94; stroke-width: 1.2; stroke-linecap: round"/>
    </g>
    <g id="text_54">
     <!-- aflfast-0-exid24 -->
     <g style="fill: #262626" transform="translate(294.342 476.811625)scale(0.088 -0.088)">
      <use xlink:href="#DejaVuSans-61"/>
      <use xlink:href="#DejaVuSans-66" x="61.279297"/>
      <use xlink:href="#DejaVuSans-6c" x="96.484375"/>
      <use xlink:href="#DejaVuSans-66" x="124.267578"/>
      <use xlink:href="#DejaVuSans-61" x="159.472656"/>
      <use xlink:href="#DejaVuSans-73" x="220.751953"/>
      <use xlink:href="#DejaVuSans-74" x="272.851562"/>
      <use xlink:href="#DejaVuSans-2d" x="312.060547"/>
      <use xlink:href="#DejaVuSans-30" x="348.144531"/>
      <use xlink:href="#DejaVuSans-2d" x="411.767578"/>
      <use xlink:href="#DejaVuSans-65" x="447.851562"/>
      <use xlink:href="#DejaVuSans-78" x="507.625"/>
      <use xlink:href="#DejaVuSans-69" x="566.804688"/>
      <use xlink:href="#DejaVuSans-64" x="594.587891"/>
      <use xlink:href="#DejaVuSans-32" x="658.064453"/>
      <use xlink:href="#DejaVuSans-34" x="721.6875"/>
     </g>
    </g>
    <g id="line2d_61">
     <path d="M 269.702 486.648375 
L 278.502 486.648375 
L 287.302 486.648375 
" style="fill: none; stroke: #5784db; stroke-width: 1.2; stroke-linecap: round"/>
    </g>
    <g id="text_55">
     <!-- afl-0-exid24 -->
     <g style="fill: #262626" transform="translate(294.342 489.728375)scale(0.088 -0.088)">
      <use xlink:href="#DejaVuSans-61"/>
      <use xlink:href="#DejaVuSans-66" x="61.279297"/>
      <use xlink:href="#DejaVuSans-6c" x="96.484375"/>
      <use xlink:href="#DejaVuSans-2d" x="124.267578"/>
      <use xlink:href="#DejaVuSans-30" x="160.351562"/>
      <use xlink:href="#DejaVuSans-2d" x="223.974609"/>
      <use xlink:href="#DejaVuSans-65" x="260.058594"/>
      <use xlink:href="#DejaVuSans-78" x="319.832031"/>
      <use xlink:href="#DejaVuSans-69" x="379.011719"/>
      <use xlink:href="#DejaVuSans-64" x="406.794922"/>
      <use xlink:href="#DejaVuSans-32" x="470.271484"/>
      <use xlink:href="#DejaVuSans-34" x="533.894531"/>
     </g>
    </g>
    <g id="line2d_62">
     <path d="M 269.702 499.565125 
L 278.502 499.565125 
L 287.302 499.565125 
" style="fill: none; stroke: #c957db; stroke-width: 1.2; stroke-linecap: round"/>
    </g>
    <g id="text_56">
     <!-- fuzzer_global -->
     <g style="fill: #262626" transform="translate(294.342 502.645125)scale(0.088 -0.088)">
      <defs>
       <path id="DejaVuSans-5f" d="M 3263 -1063 
L 3263 -1509 
L -63 -1509 
L -63 -1063 
L 3263 -1063 
z
" transform="scale(0.015625)"/>
       <path id="DejaVuSans-62" d="M 3116 1747 
Q 3116 2381 2855 2742 
Q 2594 3103 2138 3103 
Q 1681 3103 1420 2742 
Q 1159 2381 1159 1747 
Q 1159 1113 1420 752 
Q 1681 391 2138 391 
Q 2594 391 2855 752 
Q 3116 1113 3116 1747 
z
M 1159 2969 
Q 1341 3281 1617 3432 
Q 1894 3584 2278 3584 
Q 2916 3584 3314 3078 
Q 3713 2572 3713 1747 
Q 3713 922 3314 415 
Q 2916 -91 2278 -91 
Q 1894 -91 1617 61 
Q 1341 213 1159 525 
L 1159 0 
L 581 0 
L 581 4863 
L 1159 4863 
L 1159 2969 
z
" transform="scale(0.015625)"/>
      </defs>
      <use xlink:href="#DejaVuSans-66"/>
      <use xlink:href="#DejaVuSans-75" x="35.205078"/>
      <use xlink:href="#DejaVuSans-7a" x="98.583984"/>
      <use xlink:href="#DejaVuSans-7a" x="151.074219"/>
      <use xlink:href="#DejaVuSans-65" x="203.564453"/>
      <use xlink:href="#DejaVuSans-72" x="265.087891"/>
      <use xlink:href="#DejaVuSans-5f" x="306.201172"/>
      <use xlink:href="#DejaVuSans-67" x="356.201172"/>
      <use xlink:href="#DejaVuSans-6c" x="419.677734"/>
      <use xlink:href="#DejaVuSans-6f" x="447.460938"/>
      <use xlink:href="#DejaVuSans-62" x="508.642578"/>
      <use xlink:href="#DejaVuSans-61" x="572.119141"/>
      <use xlink:href="#DejaVuSans-6c" x="633.398438"/>
     </g>
    </g>
   </g>
  </g>
 </g>
 <defs>
  <clipPath id="p937e9b3832">
   <rect x="54.3375" y="69.12" width="336.8925" height="443.52"/>
  </clipPath>
 </defs>
</svg>
