<?xml version="1.0" encoding="utf-8" standalone="no"?>
<!DOCTYPE svg PUBLIC "-//W3C//DTD SVG 1.1//EN"
  "http://www.w3.org/Graphics/SVG/1.1/DTD/svg11.dtd">
<svg xmlns:xlink="http://www.w3.org/1999/xlink" width="434.7pt" height="576pt" viewBox="0 0 434.7 576" xmlns="http://www.w3.org/2000/svg" version="1.1">
 <metadata>
  <rdf:RDF xmlns:dc="http://purl.org/dc/elements/1.1/" xmlns:cc="http://creativecommons.org/ns#" xmlns:rdf="http://www.w3.org/1999/02/22-rdf-syntax-ns#">
   <cc:Work>
    <dc:type rdf:resource="http://purl.org/dc/dcmitype/StillImage"/>
    <dc:date>2022-09-15T10:30:13.230079</dc:date>
    <dc:format>image/svg+xml</dc:format>
    <dc:creator>
     <cc:Agent>
      <dc:title>Matplotlib v3.5.3, https://matplotlib.org/</dc:title>
     </cc:Agent>
    </dc:creator>
   </cc:Work>
  </rdf:RDF>
 </metadata>
 <defs>
  <style type="text/css">*{stroke-linejoin: round; stroke-linecap: butt}</style>
 </defs>
 <g id="figure_1">
  <g id="patch_1">
   <path d="M 0 576 
L 434.7 576 
L 434.7 0 
L 0 0 
z
" style="fill: #ffffff"/>
  </g>
  <g id="axes_1">
   <g id="patch_2">
    <path d="M 54.3375 512.64 
L 391.23 512.64 
L 391.23 69.12 
L 54.3375 69.12 
z
" style="fill: #ffffff"/>
   </g>
   <g id="matplotlib.axis_1">
    <g id="xtick_1">
     <g id="line2d_1">
      <path d="M 69.650795 512.64 
L 69.650795 69.12 
" clip-path="url(#p783c0d9707)" style="fill: none; stroke: #cccccc; stroke-width: 0.8; stroke-linecap: round"/>
     </g>
     <g id="text_1">
      <!-- 0 -->
      <g style="fill: #262626" transform="translate(69.388282 529.627249)rotate(-45)scale(0.088 -0.088)">
       <defs>
        <path id="DejaVuSans-30" d="M 2034 4250 
Q 1547 4250 1301 3770 
Q 1056 3291 1056 2328 
Q 1056 1369 1301 889 
Q 1547 409 2034 409 
Q 2525 409 2770 889 
Q 3016 1369 3016 2328 
Q 3016 3291 2770 3770 
Q 2525 4250 2034 4250 
z
M 2034 4750 
Q 2819 4750 3233 4129 
Q 3647 3509 3647 2328 
Q 3647 1150 3233 529 
Q 2819 -91 2034 -91 
Q 1250 -91 836 529 
Q 422 1150 422 2328 
Q 422 3509 836 4129 
Q 1250 4750 2034 4750 
z
" transform="scale(0.015625)"/>
       </defs>
       <use xlink:href="#DejaVuSans-30"/>
      </g>
     </g>
    </g>
    <g id="xtick_2">
     <g id="line2d_2">
      <path d="M 86.677392 512.64 
L 86.677392 69.12 
" clip-path="url(#p783c0d9707)" style="fill: none; stroke: #cccccc; stroke-width: 0.8; stroke-linecap: round"/>
     </g>
     <g id="text_2">
      <!-- 80 -->
      <g style="fill: #262626" transform="translate(84.435333 533.58634)rotate(-45)scale(0.088 -0.088)">
       <defs>
        <path id="DejaVuSans-38" d="M 2034 2216 
Q 1584 2216 1326 1975 
Q 1069 1734 1069 1313 
Q 1069 891 1326 650 
Q 1584 409 2034 409 
Q 2484 409 2743 651 
Q 3003 894 3003 1313 
Q 3003 1734 2745 1975 
Q 2488 2216 2034 2216 
z
M 1403 2484 
Q 997 2584 770 2862 
Q 544 3141 544 3541 
Q 544 4100 942 4425 
Q 1341 4750 2034 4750 
Q 2731 4750 3128 4425 
Q 3525 4100 3525 3541 
Q 3525 3141 3298 2862 
Q 3072 2584 2669 2484 
Q 3125 2378 3379 2068 
Q 3634 1759 3634 1313 
Q 3634 634 3220 271 
Q 2806 -91 2034 -91 
Q 1263 -91 848 271 
Q 434 634 434 1313 
Q 434 1759 690 2068 
Q 947 2378 1403 2484 
z
M 1172 3481 
Q 1172 3119 1398 2916 
Q 1625 2713 2034 2713 
Q 2441 2713 2670 2916 
Q 2900 3119 2900 3481 
Q 2900 3844 2670 4047 
Q 2441 4250 2034 4250 
Q 1625 4250 1398 4047 
Q 1172 3844 1172 3481 
z
" transform="scale(0.015625)"/>
       </defs>
       <use xlink:href="#DejaVuSans-38"/>
       <use xlink:href="#DejaVuSans-30" x="63.623047"/>
      </g>
     </g>
    </g>
    <g id="xtick_3">
     <g id="line2d_3">
      <path d="M 103.703989 512.64 
L 103.703989 69.12 
" clip-path="url(#p783c0d9707)" style="fill: none; stroke: #cccccc; stroke-width: 0.8; stroke-linecap: round"/>
     </g>
     <g id="text_3">
      <!-- 160 -->
      <g style="fill: #262626" transform="translate(99.482385 537.54543)rotate(-45)scale(0.088 -0.088)">
       <defs>
        <path id="DejaVuSans-31" d="M 794 531 
L 1825 531 
L 1825 4091 
L 703 3866 
L 703 4441 
L 1819 4666 
L 2450 4666 
L 2450 531 
L 3481 531 
L 3481 0 
L 794 0 
L 794 531 
z
" transform="scale(0.015625)"/>
        <path id="DejaVuSans-36" d="M 2113 2584 
Q 1688 2584 1439 2293 
Q 1191 2003 1191 1497 
Q 1191 994 1439 701 
Q 1688 409 2113 409 
Q 2538 409 2786 701 
Q 3034 994 3034 1497 
Q 3034 2003 2786 2293 
Q 2538 2584 2113 2584 
z
M 3366 4563 
L 3366 3988 
Q 3128 4100 2886 4159 
Q 2644 4219 2406 4219 
Q 1781 4219 1451 3797 
Q 1122 3375 1075 2522 
Q 1259 2794 1537 2939 
Q 1816 3084 2150 3084 
Q 2853 3084 3261 2657 
Q 3669 2231 3669 1497 
Q 3669 778 3244 343 
Q 2819 -91 2113 -91 
Q 1303 -91 875 529 
Q 447 1150 447 2328 
Q 447 3434 972 4092 
Q 1497 4750 2381 4750 
Q 2619 4750 2861 4703 
Q 3103 4656 3366 4563 
z
" transform="scale(0.015625)"/>
       </defs>
       <use xlink:href="#DejaVuSans-31"/>
       <use xlink:href="#DejaVuSans-36" x="63.623047"/>
       <use xlink:href="#DejaVuSans-30" x="127.246094"/>
      </g>
     </g>
    </g>
    <g id="xtick_4">
     <g id="line2d_4">
      <path d="M 120.730586 512.64 
L 120.730586 69.12 
" clip-path="url(#p783c0d9707)" style="fill: none; stroke: #cccccc; stroke-width: 0.8; stroke-linecap: round"/>
     </g>
     <g id="text_4">
      <!-- 240 -->
      <g style="fill: #262626" transform="translate(116.508981 537.54543)rotate(-45)scale(0.088 -0.088)">
       <defs>
        <path id="DejaVuSans-32" d="M 1228 531 
L 3431 531 
L 3431 0 
L 469 0 
L 469 531 
Q 828 903 1448 1529 
Q 2069 2156 2228 2338 
Q 2531 2678 2651 2914 
Q 2772 3150 2772 3378 
Q 2772 3750 2511 3984 
Q 2250 4219 1831 4219 
Q 1534 4219 1204 4116 
Q 875 4013 500 3803 
L 500 4441 
Q 881 4594 1212 4672 
Q 1544 4750 1819 4750 
Q 2544 4750 2975 4387 
Q 3406 4025 3406 3419 
Q 3406 3131 3298 2873 
Q 3191 2616 2906 2266 
Q 2828 2175 2409 1742 
Q 1991 1309 1228 531 
z
" transform="scale(0.015625)"/>
        <path id="DejaVuSans-34" d="M 2419 4116 
L 825 1625 
L 2419 1625 
L 2419 4116 
z
M 2253 4666 
L 3047 4666 
L 3047 1625 
L 3713 1625 
L 3713 1100 
L 3047 1100 
L 3047 0 
L 2419 0 
L 2419 1100 
L 313 1100 
L 313 1709 
L 2253 4666 
z
" transform="scale(0.015625)"/>
       </defs>
       <use xlink:href="#DejaVuSans-32"/>
       <use xlink:href="#DejaVuSans-34" x="63.623047"/>
       <use xlink:href="#DejaVuSans-30" x="127.246094"/>
      </g>
     </g>
    </g>
    <g id="xtick_5">
     <g id="line2d_5">
      <path d="M 137.757182 512.64 
L 137.757182 69.12 
" clip-path="url(#p783c0d9707)" style="fill: none; stroke: #cccccc; stroke-width: 0.8; stroke-linecap: round"/>
     </g>
     <g id="text_5">
      <!-- 320 -->
      <g style="fill: #262626" transform="translate(133.535578 537.54543)rotate(-45)scale(0.088 -0.088)">
       <defs>
        <path id="DejaVuSans-33" d="M 2597 2516 
Q 3050 2419 3304 2112 
Q 3559 1806 3559 1356 
Q 3559 666 3084 287 
Q 2609 -91 1734 -91 
Q 1441 -91 1130 -33 
Q 819 25 488 141 
L 488 750 
Q 750 597 1062 519 
Q 1375 441 1716 441 
Q 2309 441 2620 675 
Q 2931 909 2931 1356 
Q 2931 1769 2642 2001 
Q 2353 2234 1838 2234 
L 1294 2234 
L 1294 2753 
L 1863 2753 
Q 2328 2753 2575 2939 
Q 2822 3125 2822 3475 
Q 2822 3834 2567 4026 
Q 2313 4219 1838 4219 
Q 1578 4219 1281 4162 
Q 984 4106 628 3988 
L 628 4550 
Q 988 4650 1302 4700 
Q 1616 4750 1894 4750 
Q 2613 4750 3031 4423 
Q 3450 4097 3450 3541 
Q 3450 3153 3228 2886 
Q 3006 2619 2597 2516 
z
" transform="scale(0.015625)"/>
       </defs>
       <use xlink:href="#DejaVuSans-33"/>
       <use xlink:href="#DejaVuSans-32" x="63.623047"/>
       <use xlink:href="#DejaVuSans-30" x="127.246094"/>
      </g>
     </g>
    </g>
    <g id="xtick_6">
     <g id="line2d_6">
      <path d="M 154.783779 512.64 
L 154.783779 69.12 
" clip-path="url(#p783c0d9707)" style="fill: none; stroke: #cccccc; stroke-width: 0.8; stroke-linecap: round"/>
     </g>
     <g id="text_6">
      <!-- 400 -->
      <g style="fill: #262626" transform="translate(150.562175 537.54543)rotate(-45)scale(0.088 -0.088)">
       <use xlink:href="#DejaVuSans-34"/>
       <use xlink:href="#DejaVuSans-30" x="63.623047"/>
       <use xlink:href="#DejaVuSans-30" x="127.246094"/>
      </g>
     </g>
    </g>
    <g id="xtick_7">
     <g id="line2d_7">
      <path d="M 171.810376 512.64 
L 171.810376 69.12 
" clip-path="url(#p783c0d9707)" style="fill: none; stroke: #cccccc; stroke-width: 0.8; stroke-linecap: round"/>
     </g>
     <g id="text_7">
      <!-- 480 -->
      <g style="fill: #262626" transform="translate(167.588772 537.54543)rotate(-45)scale(0.088 -0.088)">
       <use xlink:href="#DejaVuSans-34"/>
       <use xlink:href="#DejaVuSans-38" x="63.623047"/>
       <use xlink:href="#DejaVuSans-30" x="127.246094"/>
      </g>
     </g>
    </g>
    <g id="xtick_8">
     <g id="line2d_8">
      <path d="M 188.836973 512.64 
L 188.836973 69.12 
" clip-path="url(#p783c0d9707)" style="fill: none; stroke: #cccccc; stroke-width: 0.8; stroke-linecap: round"/>
     </g>
     <g id="text_8">
      <!-- 560 -->
      <g style="fill: #262626" transform="translate(184.615368 537.54543)rotate(-45)scale(0.088 -0.088)">
       <defs>
        <path id="DejaVuSans-35" d="M 691 4666 
L 3169 4666 
L 3169 4134 
L 1269 4134 
L 1269 2991 
Q 1406 3038 1543 3061 
Q 1681 3084 1819 3084 
Q 2600 3084 3056 2656 
Q 3513 2228 3513 1497 
Q 3513 744 3044 326 
Q 2575 -91 1722 -91 
Q 1428 -91 1123 -41 
Q 819 9 494 109 
L 494 744 
Q 775 591 1075 516 
Q 1375 441 1709 441 
Q 2250 441 2565 725 
Q 2881 1009 2881 1497 
Q 2881 1984 2565 2268 
Q 2250 2553 1709 2553 
Q 1456 2553 1204 2497 
Q 953 2441 691 2322 
L 691 4666 
z
" transform="scale(0.015625)"/>
       </defs>
       <use xlink:href="#DejaVuSans-35"/>
       <use xlink:href="#DejaVuSans-36" x="63.623047"/>
       <use xlink:href="#DejaVuSans-30" x="127.246094"/>
      </g>
     </g>
    </g>
    <g id="xtick_9">
     <g id="line2d_9">
      <path d="M 205.863569 512.64 
L 205.863569 69.12 
" clip-path="url(#p783c0d9707)" style="fill: none; stroke: #cccccc; stroke-width: 0.8; stroke-linecap: round"/>
     </g>
     <g id="text_9">
      <!-- 640 -->
      <g style="fill: #262626" transform="translate(201.641965 537.54543)rotate(-45)scale(0.088 -0.088)">
       <use xlink:href="#DejaVuSans-36"/>
       <use xlink:href="#DejaVuSans-34" x="63.623047"/>
       <use xlink:href="#DejaVuSans-30" x="127.246094"/>
      </g>
     </g>
    </g>
    <g id="xtick_10">
     <g id="line2d_10">
      <path d="M 222.890166 512.64 
L 222.890166 69.12 
" clip-path="url(#p783c0d9707)" style="fill: none; stroke: #cccccc; stroke-width: 0.8; stroke-linecap: round"/>
     </g>
     <g id="text_10">
      <!-- 720 -->
      <g style="fill: #262626" transform="translate(218.668562 537.54543)rotate(-45)scale(0.088 -0.088)">
       <defs>
        <path id="DejaVuSans-37" d="M 525 4666 
L 3525 4666 
L 3525 4397 
L 1831 0 
L 1172 0 
L 2766 4134 
L 525 4134 
L 525 4666 
z
" transform="scale(0.015625)"/>
       </defs>
       <use xlink:href="#DejaVuSans-37"/>
       <use xlink:href="#DejaVuSans-32" x="63.623047"/>
       <use xlink:href="#DejaVuSans-30" x="127.246094"/>
      </g>
     </g>
    </g>
    <g id="xtick_11">
     <g id="line2d_11">
      <path d="M 239.916763 512.64 
L 239.916763 69.12 
" clip-path="url(#p783c0d9707)" style="fill: none; stroke: #cccccc; stroke-width: 0.8; stroke-linecap: round"/>
     </g>
     <g id="text_11">
      <!-- 800 -->
      <g style="fill: #262626" transform="translate(235.695159 537.54543)rotate(-45)scale(0.088 -0.088)">
       <use xlink:href="#DejaVuSans-38"/>
       <use xlink:href="#DejaVuSans-30" x="63.623047"/>
       <use xlink:href="#DejaVuSans-30" x="127.246094"/>
      </g>
     </g>
    </g>
    <g id="xtick_12">
     <g id="line2d_12">
      <path d="M 256.94336 512.64 
L 256.94336 69.12 
" clip-path="url(#p783c0d9707)" style="fill: none; stroke: #cccccc; stroke-width: 0.8; stroke-linecap: round"/>
     </g>
     <g id="text_12">
      <!-- 880 -->
      <g style="fill: #262626" transform="translate(252.721755 537.54543)rotate(-45)scale(0.088 -0.088)">
       <use xlink:href="#DejaVuSans-38"/>
       <use xlink:href="#DejaVuSans-38" x="63.623047"/>
       <use xlink:href="#DejaVuSans-30" x="127.246094"/>
      </g>
     </g>
    </g>
    <g id="xtick_13">
     <g id="line2d_13">
      <path d="M 273.969956 512.64 
L 273.969956 69.12 
" clip-path="url(#p783c0d9707)" style="fill: none; stroke: #cccccc; stroke-width: 0.8; stroke-linecap: round"/>
     </g>
     <g id="text_13">
      <!-- 960 -->
      <g style="fill: #262626" transform="translate(269.748352 537.54543)rotate(-45)scale(0.088 -0.088)">
       <defs>
        <path id="DejaVuSans-39" d="M 703 97 
L 703 672 
Q 941 559 1184 500 
Q 1428 441 1663 441 
Q 2288 441 2617 861 
Q 2947 1281 2994 2138 
Q 2813 1869 2534 1725 
Q 2256 1581 1919 1581 
Q 1219 1581 811 2004 
Q 403 2428 403 3163 
Q 403 3881 828 4315 
Q 1253 4750 1959 4750 
Q 2769 4750 3195 4129 
Q 3622 3509 3622 2328 
Q 3622 1225 3098 567 
Q 2575 -91 1691 -91 
Q 1453 -91 1209 -44 
Q 966 3 703 97 
z
M 1959 2075 
Q 2384 2075 2632 2365 
Q 2881 2656 2881 3163 
Q 2881 3666 2632 3958 
Q 2384 4250 1959 4250 
Q 1534 4250 1286 3958 
Q 1038 3666 1038 3163 
Q 1038 2656 1286 2365 
Q 1534 2075 1959 2075 
z
" transform="scale(0.015625)"/>
       </defs>
       <use xlink:href="#DejaVuSans-39"/>
       <use xlink:href="#DejaVuSans-36" x="63.623047"/>
       <use xlink:href="#DejaVuSans-30" x="127.246094"/>
      </g>
     </g>
    </g>
    <g id="xtick_14">
     <g id="line2d_14">
      <path d="M 290.996553 512.64 
L 290.996553 69.12 
" clip-path="url(#p783c0d9707)" style="fill: none; stroke: #cccccc; stroke-width: 0.8; stroke-linecap: round"/>
     </g>
     <g id="text_14">
      <!-- 1040 -->
      <g style="fill: #262626" transform="translate(284.795404 541.504521)rotate(-45)scale(0.088 -0.088)">
       <use xlink:href="#DejaVuSans-31"/>
       <use xlink:href="#DejaVuSans-30" x="63.623047"/>
       <use xlink:href="#DejaVuSans-34" x="127.246094"/>
       <use xlink:href="#DejaVuSans-30" x="190.869141"/>
      </g>
     </g>
    </g>
    <g id="xtick_15">
     <g id="line2d_15">
      <path d="M 308.02315 512.64 
L 308.02315 69.12 
" clip-path="url(#p783c0d9707)" style="fill: none; stroke: #cccccc; stroke-width: 0.8; stroke-linecap: round"/>
     </g>
     <g id="text_15">
      <!-- 1120 -->
      <g style="fill: #262626" transform="translate(301.822 541.504521)rotate(-45)scale(0.088 -0.088)">
       <use xlink:href="#DejaVuSans-31"/>
       <use xlink:href="#DejaVuSans-31" x="63.623047"/>
       <use xlink:href="#DejaVuSans-32" x="127.246094"/>
       <use xlink:href="#DejaVuSans-30" x="190.869141"/>
      </g>
     </g>
    </g>
    <g id="xtick_16">
     <g id="line2d_16">
      <path d="M 325.049747 512.64 
L 325.049747 69.12 
" clip-path="url(#p783c0d9707)" style="fill: none; stroke: #cccccc; stroke-width: 0.8; stroke-linecap: round"/>
     </g>
     <g id="text_16">
      <!-- 1200 -->
      <g style="fill: #262626" transform="translate(318.848597 541.504521)rotate(-45)scale(0.088 -0.088)">
       <use xlink:href="#DejaVuSans-31"/>
       <use xlink:href="#DejaVuSans-32" x="63.623047"/>
       <use xlink:href="#DejaVuSans-30" x="127.246094"/>
       <use xlink:href="#DejaVuSans-30" x="190.869141"/>
      </g>
     </g>
    </g>
    <g id="xtick_17">
     <g id="line2d_17">
      <path d="M 342.076343 512.64 
L 342.076343 69.12 
" clip-path="url(#p783c0d9707)" style="fill: none; stroke: #cccccc; stroke-width: 0.8; stroke-linecap: round"/>
     </g>
     <g id="text_17">
      <!-- 1280 -->
      <g style="fill: #262626" transform="translate(335.875194 541.504521)rotate(-45)scale(0.088 -0.088)">
       <use xlink:href="#DejaVuSans-31"/>
       <use xlink:href="#DejaVuSans-32" x="63.623047"/>
       <use xlink:href="#DejaVuSans-38" x="127.246094"/>
       <use xlink:href="#DejaVuSans-30" x="190.869141"/>
      </g>
     </g>
    </g>
    <g id="xtick_18">
     <g id="line2d_18">
      <path d="M 359.10294 512.64 
L 359.10294 69.12 
" clip-path="url(#p783c0d9707)" style="fill: none; stroke: #cccccc; stroke-width: 0.8; stroke-linecap: round"/>
     </g>
     <g id="text_18">
      <!-- 1360 -->
      <g style="fill: #262626" transform="translate(352.901791 541.504521)rotate(-45)scale(0.088 -0.088)">
       <use xlink:href="#DejaVuSans-31"/>
       <use xlink:href="#DejaVuSans-33" x="63.623047"/>
       <use xlink:href="#DejaVuSans-36" x="127.246094"/>
       <use xlink:href="#DejaVuSans-30" x="190.869141"/>
      </g>
     </g>
    </g>
    <g id="xtick_19">
     <g id="line2d_19">
      <path d="M 376.129537 512.64 
L 376.129537 69.12 
" clip-path="url(#p783c0d9707)" style="fill: none; stroke: #cccccc; stroke-width: 0.8; stroke-linecap: round"/>
     </g>
     <g id="text_19">
      <!-- 1440 -->
      <g style="fill: #262626" transform="translate(369.928387 541.504521)rotate(-45)scale(0.088 -0.088)">
       <use xlink:href="#DejaVuSans-31"/>
       <use xlink:href="#DejaVuSans-34" x="63.623047"/>
       <use xlink:href="#DejaVuSans-34" x="127.246094"/>
       <use xlink:href="#DejaVuSans-30" x="190.869141"/>
      </g>
     </g>
    </g>
    <g id="text_20">
     <!-- Time (Minutes) -->
     <g style="fill: #262626" transform="translate(186.87375 554.093115)scale(0.096 -0.096)">
      <defs>
       <path id="DejaVuSans-54" d="M -19 4666 
L 3928 4666 
L 3928 4134 
L 2272 4134 
L 2272 0 
L 1638 0 
L 1638 4134 
L -19 4134 
L -19 4666 
z
" transform="scale(0.015625)"/>
       <path id="DejaVuSans-69" d="M 603 3500 
L 1178 3500 
L 1178 0 
L 603 0 
L 603 3500 
z
M 603 4863 
L 1178 4863 
L 1178 4134 
L 603 4134 
L 603 4863 
z
" transform="scale(0.015625)"/>
       <path id="DejaVuSans-6d" d="M 3328 2828 
Q 3544 3216 3844 3400 
Q 4144 3584 4550 3584 
Q 5097 3584 5394 3201 
Q 5691 2819 5691 2113 
L 5691 0 
L 5113 0 
L 5113 2094 
Q 5113 2597 4934 2840 
Q 4756 3084 4391 3084 
Q 3944 3084 3684 2787 
Q 3425 2491 3425 1978 
L 3425 0 
L 2847 0 
L 2847 2094 
Q 2847 2600 2669 2842 
Q 2491 3084 2119 3084 
Q 1678 3084 1418 2786 
Q 1159 2488 1159 1978 
L 1159 0 
L 581 0 
L 581 3500 
L 1159 3500 
L 1159 2956 
Q 1356 3278 1631 3431 
Q 1906 3584 2284 3584 
Q 2666 3584 2933 3390 
Q 3200 3197 3328 2828 
z
" transform="scale(0.015625)"/>
       <path id="DejaVuSans-65" d="M 3597 1894 
L 3597 1613 
L 953 1613 
Q 991 1019 1311 708 
Q 1631 397 2203 397 
Q 2534 397 2845 478 
Q 3156 559 3463 722 
L 3463 178 
Q 3153 47 2828 -22 
Q 2503 -91 2169 -91 
Q 1331 -91 842 396 
Q 353 884 353 1716 
Q 353 2575 817 3079 
Q 1281 3584 2069 3584 
Q 2775 3584 3186 3129 
Q 3597 2675 3597 1894 
z
M 3022 2063 
Q 3016 2534 2758 2815 
Q 2500 3097 2075 3097 
Q 1594 3097 1305 2825 
Q 1016 2553 972 2059 
L 3022 2063 
z
" transform="scale(0.015625)"/>
       <path id="DejaVuSans-20" transform="scale(0.015625)"/>
       <path id="DejaVuSans-28" d="M 1984 4856 
Q 1566 4138 1362 3434 
Q 1159 2731 1159 2009 
Q 1159 1288 1364 580 
Q 1569 -128 1984 -844 
L 1484 -844 
Q 1016 -109 783 600 
Q 550 1309 550 2009 
Q 550 2706 781 3412 
Q 1013 4119 1484 4856 
L 1984 4856 
z
" transform="scale(0.015625)"/>
       <path id="DejaVuSans-4d" d="M 628 4666 
L 1569 4666 
L 2759 1491 
L 3956 4666 
L 4897 4666 
L 4897 0 
L 4281 0 
L 4281 4097 
L 3078 897 
L 2444 897 
L 1241 4097 
L 1241 0 
L 628 0 
L 628 4666 
z
" transform="scale(0.015625)"/>
       <path id="DejaVuSans-6e" d="M 3513 2113 
L 3513 0 
L 2938 0 
L 2938 2094 
Q 2938 2591 2744 2837 
Q 2550 3084 2163 3084 
Q 1697 3084 1428 2787 
Q 1159 2491 1159 1978 
L 1159 0 
L 581 0 
L 581 3500 
L 1159 3500 
L 1159 2956 
Q 1366 3272 1645 3428 
Q 1925 3584 2291 3584 
Q 2894 3584 3203 3211 
Q 3513 2838 3513 2113 
z
" transform="scale(0.015625)"/>
       <path id="DejaVuSans-75" d="M 544 1381 
L 544 3500 
L 1119 3500 
L 1119 1403 
Q 1119 906 1312 657 
Q 1506 409 1894 409 
Q 2359 409 2629 706 
Q 2900 1003 2900 1516 
L 2900 3500 
L 3475 3500 
L 3475 0 
L 2900 0 
L 2900 538 
Q 2691 219 2414 64 
Q 2138 -91 1772 -91 
Q 1169 -91 856 284 
Q 544 659 544 1381 
z
M 1991 3584 
L 1991 3584 
z
" transform="scale(0.015625)"/>
       <path id="DejaVuSans-74" d="M 1172 4494 
L 1172 3500 
L 2356 3500 
L 2356 3053 
L 1172 3053 
L 1172 1153 
Q 1172 725 1289 603 
Q 1406 481 1766 481 
L 2356 481 
L 2356 0 
L 1766 0 
Q 1100 0 847 248 
Q 594 497 594 1153 
L 594 3053 
L 172 3053 
L 172 3500 
L 594 3500 
L 594 4494 
L 1172 4494 
z
" transform="scale(0.015625)"/>
       <path id="DejaVuSans-73" d="M 2834 3397 
L 2834 2853 
Q 2591 2978 2328 3040 
Q 2066 3103 1784 3103 
Q 1356 3103 1142 2972 
Q 928 2841 928 2578 
Q 928 2378 1081 2264 
Q 1234 2150 1697 2047 
L 1894 2003 
Q 2506 1872 2764 1633 
Q 3022 1394 3022 966 
Q 3022 478 2636 193 
Q 2250 -91 1575 -91 
Q 1294 -91 989 -36 
Q 684 19 347 128 
L 347 722 
Q 666 556 975 473 
Q 1284 391 1588 391 
Q 1994 391 2212 530 
Q 2431 669 2431 922 
Q 2431 1156 2273 1281 
Q 2116 1406 1581 1522 
L 1381 1569 
Q 847 1681 609 1914 
Q 372 2147 372 2553 
Q 372 3047 722 3315 
Q 1072 3584 1716 3584 
Q 2034 3584 2315 3537 
Q 2597 3491 2834 3397 
z
" transform="scale(0.015625)"/>
       <path id="DejaVuSans-29" d="M 513 4856 
L 1013 4856 
Q 1481 4119 1714 3412 
Q 1947 2706 1947 2009 
Q 1947 1309 1714 600 
Q 1481 -109 1013 -844 
L 513 -844 
Q 928 -128 1133 580 
Q 1338 1288 1338 2009 
Q 1338 2731 1133 3434 
Q 928 4138 513 4856 
z
" transform="scale(0.015625)"/>
      </defs>
      <use xlink:href="#DejaVuSans-54"/>
      <use xlink:href="#DejaVuSans-69" x="57.958984"/>
      <use xlink:href="#DejaVuSans-6d" x="85.742188"/>
      <use xlink:href="#DejaVuSans-65" x="183.154297"/>
      <use xlink:href="#DejaVuSans-20" x="244.677734"/>
      <use xlink:href="#DejaVuSans-28" x="276.464844"/>
      <use xlink:href="#DejaVuSans-4d" x="315.478516"/>
      <use xlink:href="#DejaVuSans-69" x="401.757812"/>
      <use xlink:href="#DejaVuSans-6e" x="429.541016"/>
      <use xlink:href="#DejaVuSans-75" x="492.919922"/>
      <use xlink:href="#DejaVuSans-74" x="556.298828"/>
      <use xlink:href="#DejaVuSans-65" x="595.507812"/>
      <use xlink:href="#DejaVuSans-73" x="657.03125"/>
      <use xlink:href="#DejaVuSans-29" x="709.130859"/>
     </g>
    </g>
   </g>
   <g id="matplotlib.axis_2">
    <g id="ytick_1">
     <g id="line2d_20">
      <path d="M 54.3375 492.48 
L 391.23 492.48 
" clip-path="url(#p783c0d9707)" style="fill: none; stroke: #cccccc; stroke-width: 0.8; stroke-linecap: round"/>
     </g>
     <g id="text_21">
      <!-- 0 -->
      <g style="fill: #262626" transform="translate(40.4385 495.823312)scale(0.088 -0.088)">
       <use xlink:href="#DejaVuSans-30"/>
      </g>
     </g>
    </g>
    <g id="ytick_2">
     <g id="line2d_21">
      <path d="M 54.3375 470.104861 
L 391.23 470.104861 
" clip-path="url(#p783c0d9707)" style="fill: none; stroke: #cccccc; stroke-width: 0.8; stroke-linecap: round"/>
     </g>
     <g id="text_22">
      <!-- 100 -->
      <g style="fill: #262626" transform="translate(29.2405 473.448174)scale(0.088 -0.088)">
       <use xlink:href="#DejaVuSans-31"/>
       <use xlink:href="#DejaVuSans-30" x="63.623047"/>
       <use xlink:href="#DejaVuSans-30" x="127.246094"/>
      </g>
     </g>
    </g>
    <g id="ytick_3">
     <g id="line2d_22">
      <path d="M 54.3375 447.729723 
L 391.23 447.729723 
" clip-path="url(#p783c0d9707)" style="fill: none; stroke: #cccccc; stroke-width: 0.8; stroke-linecap: round"/>
     </g>
     <g id="text_23">
      <!-- 200 -->
      <g style="fill: #262626" transform="translate(29.2405 451.073035)scale(0.088 -0.088)">
       <use xlink:href="#DejaVuSans-32"/>
       <use xlink:href="#DejaVuSans-30" x="63.623047"/>
       <use xlink:href="#DejaVuSans-30" x="127.246094"/>
      </g>
     </g>
    </g>
    <g id="ytick_4">
     <g id="line2d_23">
      <path d="M 54.3375 425.354584 
L 391.23 425.354584 
" clip-path="url(#p783c0d9707)" style="fill: none; stroke: #cccccc; stroke-width: 0.8; stroke-linecap: round"/>
     </g>
     <g id="text_24">
      <!-- 300 -->
      <g style="fill: #262626" transform="translate(29.2405 428.697896)scale(0.088 -0.088)">
       <use xlink:href="#DejaVuSans-33"/>
       <use xlink:href="#DejaVuSans-30" x="63.623047"/>
       <use xlink:href="#DejaVuSans-30" x="127.246094"/>
      </g>
     </g>
    </g>
    <g id="ytick_5">
     <g id="line2d_24">
      <path d="M 54.3375 402.979445 
L 391.23 402.979445 
" clip-path="url(#p783c0d9707)" style="fill: none; stroke: #cccccc; stroke-width: 0.8; stroke-linecap: round"/>
     </g>
     <g id="text_25">
      <!-- 400 -->
      <g style="fill: #262626" transform="translate(29.2405 406.322758)scale(0.088 -0.088)">
       <use xlink:href="#DejaVuSans-34"/>
       <use xlink:href="#DejaVuSans-30" x="63.623047"/>
       <use xlink:href="#DejaVuSans-30" x="127.246094"/>
      </g>
     </g>
    </g>
    <g id="ytick_6">
     <g id="line2d_25">
      <path d="M 54.3375 380.604306 
L 391.23 380.604306 
" clip-path="url(#p783c0d9707)" style="fill: none; stroke: #cccccc; stroke-width: 0.8; stroke-linecap: round"/>
     </g>
     <g id="text_26">
      <!-- 500 -->
      <g style="fill: #262626" transform="translate(29.2405 383.947619)scale(0.088 -0.088)">
       <use xlink:href="#DejaVuSans-35"/>
       <use xlink:href="#DejaVuSans-30" x="63.623047"/>
       <use xlink:href="#DejaVuSans-30" x="127.246094"/>
      </g>
     </g>
    </g>
    <g id="ytick_7">
     <g id="line2d_26">
      <path d="M 54.3375 358.229168 
L 391.23 358.229168 
" clip-path="url(#p783c0d9707)" style="fill: none; stroke: #cccccc; stroke-width: 0.8; stroke-linecap: round"/>
     </g>
     <g id="text_27">
      <!-- 600 -->
      <g style="fill: #262626" transform="translate(29.2405 361.57248)scale(0.088 -0.088)">
       <use xlink:href="#DejaVuSans-36"/>
       <use xlink:href="#DejaVuSans-30" x="63.623047"/>
       <use xlink:href="#DejaVuSans-30" x="127.246094"/>
      </g>
     </g>
    </g>
    <g id="ytick_8">
     <g id="line2d_27">
      <path d="M 54.3375 335.854029 
L 391.23 335.854029 
" clip-path="url(#p783c0d9707)" style="fill: none; stroke: #cccccc; stroke-width: 0.8; stroke-linecap: round"/>
     </g>
     <g id="text_28">
      <!-- 700 -->
      <g style="fill: #262626" transform="translate(29.2405 339.197341)scale(0.088 -0.088)">
       <use xlink:href="#DejaVuSans-37"/>
       <use xlink:href="#DejaVuSans-30" x="63.623047"/>
       <use xlink:href="#DejaVuSans-30" x="127.246094"/>
      </g>
     </g>
    </g>
    <g id="ytick_9">
     <g id="line2d_28">
      <path d="M 54.3375 313.47889 
L 391.23 313.47889 
" clip-path="url(#p783c0d9707)" style="fill: none; stroke: #cccccc; stroke-width: 0.8; stroke-linecap: round"/>
     </g>
     <g id="text_29">
      <!-- 800 -->
      <g style="fill: #262626" transform="translate(29.2405 316.822203)scale(0.088 -0.088)">
       <use xlink:href="#DejaVuSans-38"/>
       <use xlink:href="#DejaVuSans-30" x="63.623047"/>
       <use xlink:href="#DejaVuSans-30" x="127.246094"/>
      </g>
     </g>
    </g>
    <g id="ytick_10">
     <g id="line2d_29">
      <path d="M 54.3375 291.103751 
L 391.23 291.103751 
" clip-path="url(#p783c0d9707)" style="fill: none; stroke: #cccccc; stroke-width: 0.8; stroke-linecap: round"/>
     </g>
     <g id="text_30">
      <!-- 900 -->
      <g style="fill: #262626" transform="translate(29.2405 294.447064)scale(0.088 -0.088)">
       <use xlink:href="#DejaVuSans-39"/>
       <use xlink:href="#DejaVuSans-30" x="63.623047"/>
       <use xlink:href="#DejaVuSans-30" x="127.246094"/>
      </g>
     </g>
    </g>
    <g id="ytick_11">
     <g id="line2d_30">
      <path d="M 54.3375 268.728613 
L 391.23 268.728613 
" clip-path="url(#p783c0d9707)" style="fill: none; stroke: #cccccc; stroke-width: 0.8; stroke-linecap: round"/>
     </g>
     <g id="text_31">
      <!-- 1000 -->
      <g style="fill: #262626" transform="translate(23.6415 272.071925)scale(0.088 -0.088)">
       <use xlink:href="#DejaVuSans-31"/>
       <use xlink:href="#DejaVuSans-30" x="63.623047"/>
       <use xlink:href="#DejaVuSans-30" x="127.246094"/>
       <use xlink:href="#DejaVuSans-30" x="190.869141"/>
      </g>
     </g>
    </g>
    <g id="ytick_12">
     <g id="line2d_31">
      <path d="M 54.3375 246.353474 
L 391.23 246.353474 
" clip-path="url(#p783c0d9707)" style="fill: none; stroke: #cccccc; stroke-width: 0.8; stroke-linecap: round"/>
     </g>
     <g id="text_32">
      <!-- 1100 -->
      <g style="fill: #262626" transform="translate(23.6415 249.696786)scale(0.088 -0.088)">
       <use xlink:href="#DejaVuSans-31"/>
       <use xlink:href="#DejaVuSans-31" x="63.623047"/>
       <use xlink:href="#DejaVuSans-30" x="127.246094"/>
       <use xlink:href="#DejaVuSans-30" x="190.869141"/>
      </g>
     </g>
    </g>
    <g id="ytick_13">
     <g id="line2d_32">
      <path d="M 54.3375 223.978335 
L 391.23 223.978335 
" clip-path="url(#p783c0d9707)" style="fill: none; stroke: #cccccc; stroke-width: 0.8; stroke-linecap: round"/>
     </g>
     <g id="text_33">
      <!-- 1200 -->
      <g style="fill: #262626" transform="translate(23.6415 227.321648)scale(0.088 -0.088)">
       <use xlink:href="#DejaVuSans-31"/>
       <use xlink:href="#DejaVuSans-32" x="63.623047"/>
       <use xlink:href="#DejaVuSans-30" x="127.246094"/>
       <use xlink:href="#DejaVuSans-30" x="190.869141"/>
      </g>
     </g>
    </g>
    <g id="ytick_14">
     <g id="line2d_33">
      <path d="M 54.3375 201.603196 
L 391.23 201.603196 
" clip-path="url(#p783c0d9707)" style="fill: none; stroke: #cccccc; stroke-width: 0.8; stroke-linecap: round"/>
     </g>
     <g id="text_34">
      <!-- 1300 -->
      <g style="fill: #262626" transform="translate(23.6415 204.946509)scale(0.088 -0.088)">
       <use xlink:href="#DejaVuSans-31"/>
       <use xlink:href="#DejaVuSans-33" x="63.623047"/>
       <use xlink:href="#DejaVuSans-30" x="127.246094"/>
       <use xlink:href="#DejaVuSans-30" x="190.869141"/>
      </g>
     </g>
    </g>
    <g id="ytick_15">
     <g id="line2d_34">
      <path d="M 54.3375 179.228058 
L 391.23 179.228058 
" clip-path="url(#p783c0d9707)" style="fill: none; stroke: #cccccc; stroke-width: 0.8; stroke-linecap: round"/>
     </g>
     <g id="text_35">
      <!-- 1400 -->
      <g style="fill: #262626" transform="translate(23.6415 182.57137)scale(0.088 -0.088)">
       <use xlink:href="#DejaVuSans-31"/>
       <use xlink:href="#DejaVuSans-34" x="63.623047"/>
       <use xlink:href="#DejaVuSans-30" x="127.246094"/>
       <use xlink:href="#DejaVuSans-30" x="190.869141"/>
      </g>
     </g>
    </g>
    <g id="ytick_16">
     <g id="line2d_35">
      <path d="M 54.3375 156.852919 
L 391.23 156.852919 
" clip-path="url(#p783c0d9707)" style="fill: none; stroke: #cccccc; stroke-width: 0.8; stroke-linecap: round"/>
     </g>
     <g id="text_36">
      <!-- 1500 -->
      <g style="fill: #262626" transform="translate(23.6415 160.196231)scale(0.088 -0.088)">
       <use xlink:href="#DejaVuSans-31"/>
       <use xlink:href="#DejaVuSans-35" x="63.623047"/>
       <use xlink:href="#DejaVuSans-30" x="127.246094"/>
       <use xlink:href="#DejaVuSans-30" x="190.869141"/>
      </g>
     </g>
    </g>
    <g id="ytick_17">
     <g id="line2d_36">
      <path d="M 54.3375 134.47778 
L 391.23 134.47778 
" clip-path="url(#p783c0d9707)" style="fill: none; stroke: #cccccc; stroke-width: 0.8; stroke-linecap: round"/>
     </g>
     <g id="text_37">
      <!-- 1600 -->
      <g style="fill: #262626" transform="translate(23.6415 137.821093)scale(0.088 -0.088)">
       <use xlink:href="#DejaVuSans-31"/>
       <use xlink:href="#DejaVuSans-36" x="63.623047"/>
       <use xlink:href="#DejaVuSans-30" x="127.246094"/>
       <use xlink:href="#DejaVuSans-30" x="190.869141"/>
      </g>
     </g>
    </g>
    <g id="ytick_18">
     <g id="line2d_37">
      <path d="M 54.3375 112.102642 
L 391.23 112.102642 
" clip-path="url(#p783c0d9707)" style="fill: none; stroke: #cccccc; stroke-width: 0.8; stroke-linecap: round"/>
     </g>
     <g id="text_38">
      <!-- 1700 -->
      <g style="fill: #262626" transform="translate(23.6415 115.445954)scale(0.088 -0.088)">
       <use xlink:href="#DejaVuSans-31"/>
       <use xlink:href="#DejaVuSans-37" x="63.623047"/>
       <use xlink:href="#DejaVuSans-30" x="127.246094"/>
       <use xlink:href="#DejaVuSans-30" x="190.869141"/>
      </g>
     </g>
    </g>
    <g id="ytick_19">
     <g id="line2d_38">
      <path d="M 54.3375 89.727503 
L 391.23 89.727503 
" clip-path="url(#p783c0d9707)" style="fill: none; stroke: #cccccc; stroke-width: 0.8; stroke-linecap: round"/>
     </g>
     <g id="text_39">
      <!-- 1800 -->
      <g style="fill: #262626" transform="translate(23.6415 93.070815)scale(0.088 -0.088)">
       <use xlink:href="#DejaVuSans-31"/>
       <use xlink:href="#DejaVuSans-38" x="63.623047"/>
       <use xlink:href="#DejaVuSans-30" x="127.246094"/>
       <use xlink:href="#DejaVuSans-30" x="190.869141"/>
      </g>
     </g>
    </g>
    <g id="text_40">
     <!-- Edge Coverages -->
     <g style="fill: #262626" transform="translate(17.645 329.98575)rotate(-90)scale(0.096 -0.096)">
      <defs>
       <path id="DejaVuSans-45" d="M 628 4666 
L 3578 4666 
L 3578 4134 
L 1259 4134 
L 1259 2753 
L 3481 2753 
L 3481 2222 
L 1259 2222 
L 1259 531 
L 3634 531 
L 3634 0 
L 628 0 
L 628 4666 
z
" transform="scale(0.015625)"/>
       <path id="DejaVuSans-64" d="M 2906 2969 
L 2906 4863 
L 3481 4863 
L 3481 0 
L 2906 0 
L 2906 525 
Q 2725 213 2448 61 
Q 2172 -91 1784 -91 
Q 1150 -91 751 415 
Q 353 922 353 1747 
Q 353 2572 751 3078 
Q 1150 3584 1784 3584 
Q 2172 3584 2448 3432 
Q 2725 3281 2906 2969 
z
M 947 1747 
Q 947 1113 1208 752 
Q 1469 391 1925 391 
Q 2381 391 2643 752 
Q 2906 1113 2906 1747 
Q 2906 2381 2643 2742 
Q 2381 3103 1925 3103 
Q 1469 3103 1208 2742 
Q 947 2381 947 1747 
z
" transform="scale(0.015625)"/>
       <path id="DejaVuSans-67" d="M 2906 1791 
Q 2906 2416 2648 2759 
Q 2391 3103 1925 3103 
Q 1463 3103 1205 2759 
Q 947 2416 947 1791 
Q 947 1169 1205 825 
Q 1463 481 1925 481 
Q 2391 481 2648 825 
Q 2906 1169 2906 1791 
z
M 3481 434 
Q 3481 -459 3084 -895 
Q 2688 -1331 1869 -1331 
Q 1566 -1331 1297 -1286 
Q 1028 -1241 775 -1147 
L 775 -588 
Q 1028 -725 1275 -790 
Q 1522 -856 1778 -856 
Q 2344 -856 2625 -561 
Q 2906 -266 2906 331 
L 2906 616 
Q 2728 306 2450 153 
Q 2172 0 1784 0 
Q 1141 0 747 490 
Q 353 981 353 1791 
Q 353 2603 747 3093 
Q 1141 3584 1784 3584 
Q 2172 3584 2450 3431 
Q 2728 3278 2906 2969 
L 2906 3500 
L 3481 3500 
L 3481 434 
z
" transform="scale(0.015625)"/>
       <path id="DejaVuSans-43" d="M 4122 4306 
L 4122 3641 
Q 3803 3938 3442 4084 
Q 3081 4231 2675 4231 
Q 1875 4231 1450 3742 
Q 1025 3253 1025 2328 
Q 1025 1406 1450 917 
Q 1875 428 2675 428 
Q 3081 428 3442 575 
Q 3803 722 4122 1019 
L 4122 359 
Q 3791 134 3420 21 
Q 3050 -91 2638 -91 
Q 1578 -91 968 557 
Q 359 1206 359 2328 
Q 359 3453 968 4101 
Q 1578 4750 2638 4750 
Q 3056 4750 3426 4639 
Q 3797 4528 4122 4306 
z
" transform="scale(0.015625)"/>
       <path id="DejaVuSans-6f" d="M 1959 3097 
Q 1497 3097 1228 2736 
Q 959 2375 959 1747 
Q 959 1119 1226 758 
Q 1494 397 1959 397 
Q 2419 397 2687 759 
Q 2956 1122 2956 1747 
Q 2956 2369 2687 2733 
Q 2419 3097 1959 3097 
z
M 1959 3584 
Q 2709 3584 3137 3096 
Q 3566 2609 3566 1747 
Q 3566 888 3137 398 
Q 2709 -91 1959 -91 
Q 1206 -91 779 398 
Q 353 888 353 1747 
Q 353 2609 779 3096 
Q 1206 3584 1959 3584 
z
" transform="scale(0.015625)"/>
       <path id="DejaVuSans-76" d="M 191 3500 
L 800 3500 
L 1894 563 
L 2988 3500 
L 3597 3500 
L 2284 0 
L 1503 0 
L 191 3500 
z
" transform="scale(0.015625)"/>
       <path id="DejaVuSans-72" d="M 2631 2963 
Q 2534 3019 2420 3045 
Q 2306 3072 2169 3072 
Q 1681 3072 1420 2755 
Q 1159 2438 1159 1844 
L 1159 0 
L 581 0 
L 581 3500 
L 1159 3500 
L 1159 2956 
Q 1341 3275 1631 3429 
Q 1922 3584 2338 3584 
Q 2397 3584 2469 3576 
Q 2541 3569 2628 3553 
L 2631 2963 
z
" transform="scale(0.015625)"/>
       <path id="DejaVuSans-61" d="M 2194 1759 
Q 1497 1759 1228 1600 
Q 959 1441 959 1056 
Q 959 750 1161 570 
Q 1363 391 1709 391 
Q 2188 391 2477 730 
Q 2766 1069 2766 1631 
L 2766 1759 
L 2194 1759 
z
M 3341 1997 
L 3341 0 
L 2766 0 
L 2766 531 
Q 2569 213 2275 61 
Q 1981 -91 1556 -91 
Q 1019 -91 701 211 
Q 384 513 384 1019 
Q 384 1609 779 1909 
Q 1175 2209 1959 2209 
L 2766 2209 
L 2766 2266 
Q 2766 2663 2505 2880 
Q 2244 3097 1772 3097 
Q 1472 3097 1187 3025 
Q 903 2953 641 2809 
L 641 3341 
Q 956 3463 1253 3523 
Q 1550 3584 1831 3584 
Q 2591 3584 2966 3190 
Q 3341 2797 3341 1997 
z
" transform="scale(0.015625)"/>
      </defs>
      <use xlink:href="#DejaVuSans-45"/>
      <use xlink:href="#DejaVuSans-64" x="63.183594"/>
      <use xlink:href="#DejaVuSans-67" x="126.660156"/>
      <use xlink:href="#DejaVuSans-65" x="190.136719"/>
      <use xlink:href="#DejaVuSans-20" x="251.660156"/>
      <use xlink:href="#DejaVuSans-43" x="283.447266"/>
      <use xlink:href="#DejaVuSans-6f" x="353.271484"/>
      <use xlink:href="#DejaVuSans-76" x="414.453125"/>
      <use xlink:href="#DejaVuSans-65" x="473.632812"/>
      <use xlink:href="#DejaVuSans-72" x="535.15625"/>
      <use xlink:href="#DejaVuSans-61" x="576.269531"/>
      <use xlink:href="#DejaVuSans-67" x="637.548828"/>
      <use xlink:href="#DejaVuSans-65" x="701.025391"/>
      <use xlink:href="#DejaVuSans-73" x="762.548828"/>
     </g>
    </g>
   </g>
   <g id="PolyCollection_1">
    <defs>
     <path id="mbe922be1bd" d="M 69.650795 -106.566393 
L 69.650795 -83.52 
L 69.650795 -106.566393 
L 69.650795 -106.566393 
z
" style="stroke: #db5f57; stroke-opacity: 0.2; stroke-width: 0.8"/>
    </defs>
    <g clip-path="url(#p783c0d9707)">
     <use xlink:href="#mbe922be1bd" x="0" y="576" style="fill: #db5f57; fill-opacity: 0.2; stroke: #db5f57; stroke-opacity: 0.2; stroke-width: 0.8"/>
    </g>
   </g>
   <g id="PolyCollection_2">
    <defs>
     <path id="madd01a30eb" d="M 69.650795 -120.215228 
L 69.650795 -83.52 
L 69.650795 -120.215228 
L 69.650795 -120.215228 
z
" style="stroke: #b9db57; stroke-opacity: 0.2; stroke-width: 0.8"/>
    </defs>
    <g clip-path="url(#p783c0d9707)">
     <use xlink:href="#madd01a30eb" x="0" y="576" style="fill: #b9db57; fill-opacity: 0.2; stroke: #b9db57; stroke-opacity: 0.2; stroke-width: 0.8"/>
    </g>
   </g>
   <g id="PolyCollection_3">
    <defs>
     <path id="m3609206e30" d="M 69.650795 -106.790144 
L 69.650795 -83.52 
L 69.650795 -106.790144 
L 69.650795 -106.790144 
z
" style="stroke: #57db94; stroke-opacity: 0.2; stroke-width: 0.8"/>
    </defs>
    <g clip-path="url(#p783c0d9707)">
     <use xlink:href="#m3609206e30" x="0" y="576" style="fill: #57db94; fill-opacity: 0.2; stroke: #57db94; stroke-opacity: 0.2; stroke-width: 0.8"/>
    </g>
   </g>
   <g id="PolyCollection_4">
    <defs>
     <path id="m43c6f1283b" d="M 69.650795 -119.991476 
L 69.650795 -83.52 
L 69.650795 -119.991476 
L 69.650795 -119.991476 
z
" style="stroke: #5784db; stroke-opacity: 0.2; stroke-width: 0.8"/>
    </defs>
    <g clip-path="url(#p783c0d9707)">
     <use xlink:href="#m43c6f1283b" x="0" y="576" style="fill: #5784db; fill-opacity: 0.2; stroke: #5784db; stroke-opacity: 0.2; stroke-width: 0.8"/>
    </g>
   </g>
   <g id="PolyCollection_5">
    <defs>
     <path id="md9ca896550" d="M 69.650795 -128.71778 
L 69.650795 -83.52 
L 69.650795 -128.71778 
L 69.650795 -128.71778 
z
" style="stroke: #c957db; stroke-opacity: 0.2; stroke-width: 0.8"/>
    </defs>
    <g clip-path="url(#p783c0d9707)">
     <use xlink:href="#md9ca896550" x="0" y="576" style="fill: #c957db; fill-opacity: 0.2; stroke: #c957db; stroke-opacity: 0.2; stroke-width: 0.8"/>
    </g>
   </g>
   <g id="line2d_39">
    <path d="M 69.650795 480.956804 
L 70.07646 421.998313 
L 70.289293 414.838269 
L 70.502125 414.167014 
L 70.714958 412.377003 
L 70.92779 411.705749 
L 71.140623 410.363241 
L 71.353455 409.915738 
L 71.77912 408.57323 
L 72.204785 402.531942 
L 72.417617 401.413185 
L 73.056115 400.294428 
L 73.268947 400.070677 
L 73.48178 394.924395 
L 73.907445 274.546149 
L 74.120277 274.322397 
L 75.184439 271.861132 
L 75.397272 239.19343 
L 75.610104 238.074673 
L 76.035769 236.955916 
L 76.461434 235.165905 
L 76.887099 234.718402 
L 77.099932 234.270899 
L 77.312764 221.069567 
L 77.525596 220.845816 
L 77.738429 220.845816 
L 77.951261 220.622064 
L 78.802591 220.622064 
L 79.015424 211.672009 
L 79.228256 211.672009 
L 79.441089 211.448257 
L 79.866754 211.448257 
L 80.079586 211.224506 
L 80.292418 202.945705 
L 80.718083 202.274451 
L 81.143748 202.274451 
L 81.356581 202.050699 
L 81.569413 202.050699 
L 81.782246 195.338158 
L 81.995078 195.114406 
L 82.846408 195.114406 
L 83.05924 190.415627 
L 83.272073 189.520622 
L 83.697738 189.520622 
L 83.91057 189.29687 
L 84.336235 189.29687 
L 84.549068 185.269345 
L 84.7619 185.269345 
L 85.187565 184.821842 
L 85.400397 184.37434 
L 85.826062 184.37434 
L 86.038895 183.031831 
L 86.251727 180.346815 
L 86.46456 180.346815 
L 86.677392 179.451809 
L 86.890225 179.451809 
L 87.103057 179.228058 
L 87.528722 179.228058 
L 87.741555 179.004306 
L 87.954387 175.871787 
L 88.167219 175.871787 
L 88.380052 175.424284 
L 89.231382 175.424284 
L 89.444214 173.18677 
L 90.508376 173.18677 
L 90.721209 170.725505 
L 90.934041 170.501754 
L 91.359706 170.501754 
L 91.572539 170.278002 
L 91.785371 170.278002 
L 91.998204 170.054251 
L 92.211036 170.054251 
L 92.423869 168.040488 
L 93.700863 168.040488 
L 93.913696 167.145483 
L 94.339361 167.145483 
L 94.552193 165.579223 
L 94.977858 165.579223 
L 95.403523 164.684218 
L 95.616356 164.684218 
L 95.829188 164.236715 
L 96.680518 164.236715 
L 96.89335 164.012963 
L 97.106183 164.012963 
L 97.319015 163.565461 
L 97.74468 163.565461 
L 98.170345 157.971676 
L 99.234507 157.971676 
L 99.44734 155.286659 
L 99.873005 154.839156 
L 100.724335 154.839156 
L 100.937167 153.496648 
L 101.362832 152.825394 
L 101.575664 152.601643 
L 102.214162 152.601643 
L 102.639827 151.259134 
L 103.278324 151.259134 
L 103.491157 150.811632 
L 104.129654 150.811632 
L 104.342486 150.58788 
L 104.980984 150.58788 
L 105.193816 149.916626 
L 105.406649 149.692875 
L 106.683643 149.692875 
L 107.109308 149.245372 
L 107.322141 149.245372 
L 107.534973 149.02162 
L 109.237633 149.02162 
L 109.450465 148.797869 
L 110.088963 148.797869 
L 110.301795 148.574118 
L 113.707115 148.574118 
L 113.919947 147.231609 
L 115.409774 147.231609 
L 115.622607 146.112852 
L 116.899601 146.112852 
L 117.112434 145.217847 
L 119.240758 145.217847 
L 119.879256 144.09909 
L 162.232915 144.09909 
L 162.445748 143.875339 
L 375.916705 143.875339 
L 375.916705 143.875339 
" clip-path="url(#p783c0d9707)" style="fill: none; stroke: #db5f57; stroke-width: 1.2; stroke-linecap: round"/>
   </g>
   <g id="line2d_40">
    <path d="M 69.650795 474.132386 
L 70.289293 399.399423 
L 70.92779 347.26535 
L 71.353455 323.771454 
L 71.566288 322.652697 
L 71.991953 308.108857 
L 72.204785 303.85758 
L 72.417617 296.250033 
L 72.843282 290.432497 
L 73.056115 281.034939 
L 73.268947 279.468679 
L 73.694612 273.651143 
L 73.907445 268.057358 
L 74.545942 261.79232 
L 74.758774 251.723507 
L 75.184439 245.905971 
L 75.397272 244.339711 
L 75.610104 241.430943 
L 75.822937 240.312186 
L 76.035769 239.864684 
L 76.461434 238.298424 
L 77.099932 233.152142 
L 77.312764 232.928391 
L 77.738429 230.914628 
L 77.951261 230.467125 
L 78.376926 226.663352 
L 78.589759 226.4396 
L 78.802591 224.873341 
L 79.015424 224.202087 
L 79.441089 220.622064 
L 79.653921 220.174562 
L 80.079586 217.713296 
L 80.505251 216.818291 
L 80.930916 214.580777 
L 81.143748 214.580777 
L 81.569413 213.46202 
L 81.782246 213.014517 
L 81.995078 211.448257 
L 82.420743 210.553252 
L 82.633575 208.763241 
L 82.846408 208.539489 
L 83.272073 207.196981 
L 83.484905 206.525727 
L 83.91057 204.735716 
L 84.123403 204.511964 
L 84.7619 203.393208 
L 84.974733 203.169456 
L 86.251727 203.169456 
L 86.46456 200.260688 
L 89.231382 194.666903 
L 89.444214 194.666903 
L 89.657047 193.995649 
L 89.869879 193.995649 
L 90.295544 191.981887 
L 90.508376 191.534384 
L 90.721209 191.534384 
L 90.934041 190.86313 
L 91.359706 190.86313 
L 91.572539 190.191876 
L 91.785371 189.968124 
L 93.062366 187.283108 
L 93.275198 187.283108 
L 93.488031 186.835605 
L 93.700863 186.835605 
L 94.126528 186.388102 
L 94.339361 185.940599 
L 94.552193 185.045594 
L 94.765026 184.821842 
L 94.977858 184.821842 
L 95.190691 184.150588 
L 95.403523 183.926837 
L 95.829188 183.926837 
L 96.04202 183.479334 
L 96.680518 183.479334 
L 96.89335 183.255583 
L 97.319015 182.136826 
L 97.531848 180.346815 
L 98.808842 177.661798 
L 99.021675 176.31929 
L 99.234507 176.31929 
L 99.660172 175.871787 
L 99.873005 175.424284 
L 100.937167 175.424284 
L 101.149999 174.529279 
L 102.001329 174.529279 
L 102.426994 174.081776 
L 104.555319 174.081776 
L 104.768151 171.844262 
L 109.450465 171.844262 
L 109.663298 171.173008 
L 118.602261 171.173008 
L 118.815094 170.949256 
L 121.794748 170.949256 
L 122.00758 167.816737 
L 122.85891 167.816737 
L 123.071743 167.592986 
L 129.243884 167.592986 
L 129.456717 166.474229 
L 129.882381 166.474229 
L 130.095214 166.250477 
L 134.351863 166.250477 
L 134.564696 165.579223 
L 135.203193 165.579223 
L 135.416025 165.355472 
L 135.84169 165.355472 
L 136.054523 165.13172 
L 140.09834 165.13172 
L 140.311172 164.907969 
L 140.524004 163.789212 
L 141.375334 163.789212 
L 141.588167 163.565461 
L 142.652329 163.565461 
L 142.865161 163.341709 
L 143.503659 163.341709 
L 143.716491 163.117958 
L 144.142156 163.117958 
L 144.354989 162.894206 
L 146.057648 162.894206 
L 146.483313 162.446704 
L 146.908978 161.104195 
L 147.760308 161.104195 
L 147.973141 160.880444 
L 149.250135 160.880444 
L 149.462968 160.656693 
L 150.314298 160.656693 
L 150.52713 160.432941 
L 178.408182 160.432941 
L 178.621015 159.314184 
L 178.833847 159.314184 
L 179.04668 159.090433 
L 180.962172 159.090433 
L 181.175004 158.866681 
L 181.600669 158.866681 
L 181.813502 158.64293 
L 182.664831 158.64293 
L 182.877664 158.419179 
L 185.005988 158.419179 
L 185.431653 157.971676 
L 191.603795 157.971676 
L 191.816627 157.524173 
L 194.796282 157.524173 
L 195.009114 157.07667 
L 196.711774 157.07667 
L 196.924606 156.852919 
L 200.75559 156.852919 
L 200.968423 156.629168 
L 202.032585 156.629168 
L 202.245418 156.405416 
L 202.883915 156.405416 
L 203.096748 156.181665 
L 203.30958 156.181665 
L 203.522412 155.957913 
L 203.735245 155.957913 
L 203.948077 155.734162 
L 207.140564 155.734162 
L 207.353397 155.510411 
L 207.566229 155.510411 
L 207.779062 155.286659 
L 212.248543 155.286659 
L 212.461376 155.062908 
L 212.674208 155.062908 
L 212.887041 154.839156 
L 213.099873 154.839156 
L 213.312706 154.615405 
L 215.228198 154.615405 
L 215.44103 154.391654 
L 216.29236 154.391654 
L 216.505192 154.167902 
L 216.718025 153.7204 
L 224.592826 153.7204 
L 224.805658 153.496648 
L 227.785313 153.496648 
L 227.998145 153.272897 
L 229.700805 153.272897 
L 229.913637 153.049145 
L 231.190632 153.049145 
L 231.403465 152.601643 
L 235.872946 152.601643 
L 236.085779 152.377891 
L 236.298611 152.377891 
L 236.511444 152.15414 
L 242.896417 152.15414 
L 243.10925 151.930388 
L 247.153067 151.930388 
L 247.365899 151.706637 
L 252.686711 151.706637 
L 252.899543 151.482886 
L 254.602203 151.482886 
L 254.815035 151.259134 
L 255.027868 150.811632 
L 257.369025 150.811632 
L 257.581857 150.58788 
L 264.392496 150.58788 
L 264.605328 150.140377 
L 282.05759 150.140377 
L 282.270422 149.916626 
L 289.081061 149.916626 
L 289.506726 149.469123 
L 289.932391 149.469123 
L 290.145223 149.245372 
L 295.253202 149.245372 
L 295.466035 149.02162 
L 302.489506 149.02162 
L 302.702339 148.797869 
L 305.043496 148.797869 
L 305.256328 148.574118 
L 307.384653 148.574118 
L 307.810318 148.126615 
L 309.512977 148.126615 
L 309.72581 147.902863 
L 356.123286 147.902863 
L 356.336118 147.231609 
L 361.869762 147.231609 
L 362.082595 147.007858 
L 368.467568 147.007858 
L 368.680401 146.784107 
L 368.893233 146.784107 
L 369.106066 146.560355 
L 375.916705 146.560355 
L 375.916705 146.560355 
" clip-path="url(#p783c0d9707)" style="fill: none; stroke: #b9db57; stroke-width: 1.2; stroke-linecap: round"/>
   </g>
   <g id="line2d_41">
    <path d="M 69.650795 480.844928 
L 70.07646 424.907081 
L 70.289293 404.545705 
L 70.714958 402.08444 
L 71.140623 391.120622 
L 71.77912 386.198091 
L 71.991953 385.303085 
L 72.204785 383.736826 
L 72.417617 383.289323 
L 72.63045 377.024284 
L 72.843282 358.229168 
L 73.056115 280.363685 
L 73.268947 280.139933 
L 73.48178 279.468679 
L 73.694612 279.244928 
L 73.907445 278.573674 
L 74.33311 278.573674 
L 74.545942 278.349922 
L 74.758774 249.709745 
L 74.971607 243.220954 
L 75.184439 242.997203 
L 75.822937 241.878446 
L 76.248602 241.878446 
L 76.461434 223.978335 
L 76.674267 221.293319 
L 76.887099 221.069567 
L 77.099932 221.069567 
L 77.525596 220.622064 
L 77.951261 219.503307 
L 78.164094 209.658246 
L 78.376926 209.210744 
L 78.589759 209.210744 
L 79.015424 208.763241 
L 79.228256 208.763241 
L 79.653921 198.694428 
L 79.866754 198.023174 
L 80.079586 197.799423 
L 80.718083 197.799423 
L 80.930916 197.575671 
L 81.356581 196.456915 
L 81.782246 196.456915 
L 81.995078 187.059356 
L 82.420743 186.388102 
L 83.05924 186.388102 
L 83.272073 182.360577 
L 83.484905 181.913074 
L 83.697738 181.018069 
L 84.7619 181.018069 
L 85.187565 176.31929 
L 85.400397 175.871787 
L 85.61323 175.871787 
L 86.251727 174.75303 
L 86.46456 174.75303 
L 86.677392 174.529279 
L 86.890225 174.529279 
L 87.103057 174.305527 
L 87.31589 174.305527 
L 87.528722 171.844262 
L 87.954387 171.173008 
L 88.380052 171.173008 
L 88.592884 170.725505 
L 88.805717 170.725505 
L 89.018549 167.816737 
L 89.231382 166.921731 
L 89.444214 166.921731 
L 89.657047 166.69798 
L 90.295544 166.69798 
L 90.508376 164.236715 
L 91.572539 164.236715 
L 91.785371 163.789212 
L 92.423869 163.789212 
L 92.636701 161.551698 
L 93.700863 161.551698 
L 93.913696 160.656693 
L 94.126528 160.656693 
L 94.339361 159.985438 
L 94.765026 159.985438 
L 94.977858 159.761687 
L 95.403523 159.761687 
L 95.616356 157.747925 
L 95.829188 157.747925 
L 96.04202 157.300422 
L 96.254853 157.300422 
L 96.467685 156.852919 
L 96.680518 156.852919 
L 96.89335 155.510411 
L 97.319015 155.062908 
L 97.74468 155.062908 
L 98.170345 154.391654 
L 98.383177 149.916626 
L 99.234507 149.916626 
L 99.873005 149.245372 
L 100.085837 147.455361 
L 101.149999 147.455361 
L 101.362832 146.560355 
L 102.426994 146.560355 
L 102.639827 144.994095 
L 104.768151 144.994095 
L 104.980984 144.09909 
L 105.193816 144.09909 
L 105.406649 143.875339 
L 107.960638 143.875339 
L 108.173471 142.980333 
L 109.237633 142.980333 
L 109.450465 142.53283 
L 110.72746 142.53283 
L 110.940293 141.861576 
L 112.217287 141.861576 
L 112.43012 141.414073 
L 113.068617 141.414073 
L 113.28145 141.190322 
L 114.132779 141.190322 
L 114.345612 140.96657 
L 114.984109 140.96657 
L 115.196942 140.071565 
L 116.048272 140.071565 
L 116.686769 138.952808 
L 118.815094 138.952808 
L 119.027926 138.505305 
L 119.453591 138.505305 
L 119.666423 138.281554 
L 120.304921 138.281554 
L 120.517753 138.057802 
L 120.730586 138.057802 
L 120.943418 137.834051 
L 122.220413 137.834051 
L 122.433245 137.6103 
L 123.284575 137.6103 
L 123.71024 137.162797 
L 124.348738 137.162797 
L 124.56157 136.939046 
L 124.987235 136.939046 
L 125.200067 136.491543 
L 125.4129 136.491543 
L 125.625732 136.267791 
L 126.902727 136.267791 
L 127.115559 136.04404 
L 127.541224 136.04404 
L 127.754057 135.820289 
L 128.179722 135.820289 
L 128.392554 135.596537 
L 129.031052 135.596537 
L 129.243884 135.372786 
L 129.456717 134.925283 
L 130.095214 134.925283 
L 130.308046 134.701532 
L 130.733711 134.701532 
L 130.946544 134.47778 
L 131.372209 134.47778 
L 131.585041 134.030277 
L 133.074868 134.030277 
L 133.287701 133.806526 
L 133.713366 133.806526 
L 133.926198 133.582775 
L 136.267355 133.582775 
L 136.480188 133.135272 
L 136.69302 133.135272 
L 136.905853 132.911521 
L 139.24701 132.911521 
L 139.459842 132.687769 
L 139.885507 132.687769 
L 140.09834 132.240266 
L 140.524004 132.240266 
L 140.736837 132.016515 
L 142.865161 132.016515 
L 143.077994 131.792764 
L 144.993486 131.792764 
L 145.206319 131.569012 
L 146.696146 131.569012 
L 146.908978 131.345261 
L 147.973141 131.345261 
L 148.185973 131.121509 
L 149.888633 131.121509 
L 150.101465 130.897758 
L 155.209444 130.897758 
L 155.422277 130.674007 
L 157.976266 130.674007 
L 158.189099 130.450255 
L 158.827596 130.450255 
L 159.040428 130.226504 
L 160.530256 130.226504 
L 160.743088 129.331498 
L 161.381585 129.331498 
L 161.594418 129.107747 
L 169.469219 129.107747 
L 169.682051 128.883996 
L 182.877664 128.883996 
L 183.090496 128.660244 
L 184.580324 128.660244 
L 184.793156 128.436493 
L 185.005988 128.436493 
L 185.218821 127.98899 
L 186.708648 127.98899 
L 186.921481 127.765239 
L 189.47547 127.765239 
L 189.688303 127.541487 
L 193.519287 127.541487 
L 193.732119 127.317736 
L 194.796282 127.317736 
L 195.009114 127.093984 
L 195.647611 127.093984 
L 195.860444 126.870233 
L 200.968423 126.870233 
L 201.181255 126.646482 
L 202.245418 126.646482 
L 202.45825 126.42273 
L 203.735245 126.42273 
L 203.948077 126.198979 
L 213.099873 126.198979 
L 213.312706 125.751476 
L 215.44103 125.751476 
L 215.653863 125.527725 
L 216.29236 125.527725 
L 216.505192 125.303973 
L 216.930857 125.303973 
L 217.14369 125.080222 
L 220.974674 125.080222 
L 221.187507 124.856471 
L 225.018491 124.856471 
L 225.231323 124.632719 
L 226.082653 124.632719 
L 226.295486 124.185216 
L 227.785313 124.185216 
L 227.998145 123.961465 
L 229.913637 123.961465 
L 230.12647 123.737714 
L 231.82913 123.737714 
L 232.041962 123.513962 
L 235.872946 123.513962 
L 236.085779 123.290211 
L 249.068559 123.290211 
L 249.281391 123.066459 
L 254.815035 123.066459 
L 255.027868 122.842708 
L 256.94336 122.842708 
L 257.156192 122.395205 
L 264.818161 122.395205 
L 265.030993 122.171454 
L 269.07481 122.171454 
L 269.287642 121.947703 
L 272.054464 121.947703 
L 272.267297 121.723951 
L 272.905794 121.723951 
L 273.118627 121.5002 
L 273.331459 121.5002 
L 273.544292 121.276448 
L 275.246951 121.276448 
L 275.459784 121.052697 
L 289.293894 121.052697 
L 289.506726 120.605194 
L 290.358056 120.605194 
L 290.570888 120.381443 
L 292.273548 120.381443 
L 292.48638 120.157691 
L 295.8917 120.157691 
L 296.104532 119.93394 
L 299.297019 119.93394 
L 299.509852 119.710189 
L 301.212511 119.710189 
L 301.425344 119.486437 
L 308.02315 119.486437 
L 308.235982 119.262686 
L 310.57714 119.262686 
L 310.789972 119.038935 
L 313.769626 119.038935 
L 313.982459 118.815183 
L 328.455066 118.815183 
L 328.667899 118.591432 
L 328.880731 118.591432 
L 329.093563 118.36768 
L 329.306396 118.36768 
L 329.519228 118.143929 
L 341.012181 118.143929 
L 341.225014 117.696426 
L 362.933925 117.696426 
L 363.146757 117.248923 
L 368.893233 117.248923 
L 369.106066 117.025172 
L 373.362715 117.025172 
L 373.575547 116.801421 
L 375.065375 116.801421 
L 375.278207 116.577669 
L 375.916705 116.577669 
L 375.916705 116.577669 
" clip-path="url(#p783c0d9707)" style="fill: none; stroke: #57db94; stroke-width: 1.2; stroke-linecap: round"/>
   </g>
   <g id="line2d_42">
    <path d="M 69.650795 474.244262 
L 70.92779 319.520178 
L 71.140623 314.150144 
L 71.353455 312.583885 
L 71.566288 300.725061 
L 71.77912 297.592542 
L 71.991953 292.222508 
L 72.204785 281.706193 
L 72.63045 276.112408 
L 72.843282 272.308635 
L 73.056115 265.819845 
L 73.268947 264.477336 
L 73.48178 259.107303 
L 73.694612 258.6598 
L 73.907445 255.303529 
L 74.120277 248.590988 
L 74.33311 247.472231 
L 74.758774 238.074673 
L 74.971607 232.033385 
L 75.184439 232.033385 
L 75.397272 228.229612 
L 75.610104 221.964573 
L 76.887099 213.46202 
L 77.525596 208.986992 
L 77.951261 207.420733 
L 78.376926 203.616959 
L 78.589759 203.393208 
L 79.866754 194.219401 
L 80.505251 192.205638 
L 80.930916 190.191876 
L 81.569413 187.954362 
L 82.420743 183.703085 
L 83.05924 181.689323 
L 83.91057 177.661798 
L 84.123403 177.661798 
L 84.7619 176.543041 
L 84.974733 174.529279 
L 85.61323 173.858024 
L 86.890225 171.396759 
L 87.103057 170.054251 
L 87.31589 169.830499 
L 87.528722 169.830499 
L 87.741555 168.040488 
L 88.167219 167.369234 
L 88.380052 166.026726 
L 88.592884 165.579223 
L 88.805717 165.579223 
L 89.018549 164.907969 
L 89.231382 164.684218 
L 90.082712 162.670455 
L 90.295544 161.104195 
L 90.508376 160.880444 
L 90.721209 160.880444 
L 90.934041 160.20919 
L 91.146874 160.20919 
L 91.359706 159.537936 
L 91.572539 159.314184 
L 91.998204 158.64293 
L 92.849534 157.747925 
L 93.062366 157.07667 
L 93.488031 157.07667 
L 93.700863 156.852919 
L 94.126528 156.852919 
L 94.339361 156.629168 
L 94.765026 154.839156 
L 95.190691 154.391654 
L 95.403523 153.944151 
L 95.616356 153.944151 
L 95.829188 153.496648 
L 96.04202 153.496648 
L 96.254853 152.825394 
L 96.467685 152.825394 
L 96.680518 152.377891 
L 97.319015 149.469123 
L 97.957513 147.231609 
L 98.170345 147.231609 
L 98.383177 145.217847 
L 98.59601 144.994095 
L 98.808842 144.322841 
L 99.234507 143.875339 
L 99.44734 143.875339 
L 99.873005 142.756582 
L 100.724335 142.756582 
L 101.149999 141.414073 
L 101.362832 141.190322 
L 101.788497 141.190322 
L 102.001329 140.96657 
L 102.639827 139.847814 
L 102.852659 139.624062 
L 103.065492 139.624062 
L 103.278324 138.952808 
L 104.342486 138.952808 
L 104.555319 138.729057 
L 104.980984 138.729057 
L 105.193816 138.505305 
L 106.470811 138.505305 
L 106.683643 138.281554 
L 106.896476 138.281554 
L 107.322141 137.834051 
L 107.747806 137.834051 
L 107.960638 137.6103 
L 110.088963 137.6103 
L 110.514628 137.162797 
L 112.217287 137.162797 
L 112.642952 136.267791 
L 113.28145 136.267791 
L 113.707115 135.820289 
L 113.919947 135.820289 
L 114.345612 135.149034 
L 114.558444 135.149034 
L 114.984109 134.701532 
L 116.048272 134.701532 
L 116.686769 134.030277 
L 118.815094 134.030277 
L 119.027926 133.359023 
L 119.666423 133.359023 
L 119.879256 133.135272 
L 122.00758 133.135272 
L 122.220413 132.911521 
L 122.646078 132.911521 
L 122.85891 132.464018 
L 124.774402 132.464018 
L 124.987235 132.240266 
L 125.625732 132.240266 
L 125.838565 132.016515 
L 129.031052 132.016515 
L 129.243884 131.792764 
L 129.669549 131.792764 
L 130.095214 131.121509 
L 130.520879 131.121509 
L 130.733711 130.897758 
L 131.159376 130.897758 
L 131.372209 130.450255 
L 132.649203 130.450255 
L 132.862036 130.226504 
L 134.351863 130.226504 
L 134.564696 130.002752 
L 135.84169 130.002752 
L 136.054523 129.55525 
L 136.480188 129.55525 
L 136.905853 129.107747 
L 139.034177 129.107747 
L 139.24701 128.883996 
L 139.459842 128.883996 
L 139.672675 128.660244 
L 139.885507 128.660244 
L 140.311172 128.212741 
L 141.588167 128.212741 
L 141.800999 127.98899 
L 142.439497 127.98899 
L 142.652329 127.765239 
L 143.929324 127.765239 
L 144.354989 127.317736 
L 146.483313 127.317736 
L 146.696146 127.093984 
L 147.760308 127.093984 
L 147.973141 126.870233 
L 149.462968 126.870233 
L 149.6758 126.646482 
L 150.101465 126.646482 
L 150.314298 126.42273 
L 155.209444 126.42273 
L 155.422277 126.198979 
L 157.550601 126.198979 
L 157.763434 125.975228 
L 158.189099 125.975228 
L 158.401931 125.751476 
L 160.104591 125.751476 
L 160.317423 125.527725 
L 160.530256 125.080222 
L 162.020083 125.080222 
L 162.232915 124.856471 
L 181.600669 124.856471 
L 181.813502 124.632719 
L 183.090496 124.632719 
L 183.303329 124.408968 
L 184.793156 124.408968 
L 185.218821 123.961465 
L 186.708648 123.961465 
L 186.921481 123.737714 
L 189.47547 123.737714 
L 189.688303 123.513962 
L 194.796282 123.513962 
L 195.221947 123.066459 
L 202.245418 123.066459 
L 202.45825 122.842708 
L 203.522412 122.842708 
L 203.735245 122.618957 
L 207.140564 122.618957 
L 207.353397 122.395205 
L 212.674208 122.395205 
L 212.887041 122.171454 
L 213.312706 122.171454 
L 213.525538 121.947703 
L 215.228198 121.947703 
L 215.44103 121.723951 
L 216.079528 121.723951 
L 216.29236 121.5002 
L 216.718025 121.5002 
L 216.930857 121.052697 
L 220.974674 121.052697 
L 221.187507 120.828946 
L 224.592826 120.828946 
L 224.805658 120.605194 
L 226.295486 120.605194 
L 226.508318 120.381443 
L 227.57248 120.381443 
L 227.785313 120.157691 
L 228.210978 120.157691 
L 228.42381 119.710189 
L 229.700805 119.710189 
L 229.913637 119.486437 
L 231.403465 119.486437 
L 231.616297 119.262686 
L 236.298611 119.262686 
L 236.511444 119.038935 
L 242.896417 119.038935 
L 243.10925 118.815183 
L 247.153067 118.815183 
L 247.365899 118.591432 
L 251.409716 118.591432 
L 251.622548 118.36768 
L 254.815035 118.36768 
L 255.027868 118.143929 
L 255.879197 118.143929 
L 256.09203 117.920178 
L 264.392496 117.920178 
L 264.605328 117.472675 
L 269.07481 117.472675 
L 269.287642 117.248923 
L 270.138972 117.248923 
L 270.351805 117.025172 
L 272.692962 117.025172 
L 272.905794 116.801421 
L 273.118627 116.801421 
L 273.331459 116.353918 
L 275.246951 116.353918 
L 275.459784 116.130166 
L 289.293894 116.130166 
L 289.506726 115.682664 
L 289.932391 115.682664 
L 290.145223 115.458912 
L 292.060716 115.458912 
L 292.273548 115.235161 
L 306.746155 115.235161 
L 306.958988 115.01141 
L 307.810318 115.01141 
L 308.02315 114.787658 
L 309.087312 114.787658 
L 309.300145 114.563907 
L 313.556794 114.563907 
L 313.769626 114.340155 
L 319.090438 114.340155 
L 319.30327 114.116404 
L 329.732061 114.116404 
L 329.944893 113.668901 
L 339.096689 113.668901 
L 339.309522 113.44515 
L 358.25161 113.44515 
L 358.464443 113.221398 
L 360.8056 113.221398 
L 361.018432 112.997647 
L 368.680401 112.997647 
L 368.893233 112.773896 
L 375.916705 112.773896 
L 375.916705 112.773896 
" clip-path="url(#p783c0d9707)" style="fill: none; stroke: #5784db; stroke-width: 1.2; stroke-linecap: round"/>
   </g>
   <g id="line2d_43">
    <path d="M 69.650795 469.88111 
L 69.863628 441.464684 
L 70.289293 360.019179 
L 70.714958 318.177669 
L 71.353455 293.341265 
L 71.566288 290.432497 
L 71.77912 285.062464 
L 72.204785 270.071121 
L 72.843282 257.764795 
L 73.056115 251.947259 
L 73.694612 244.563463 
L 73.907445 238.074673 
L 74.33311 234.270899 
L 74.545942 231.362131 
L 74.758774 221.51707 
L 74.971607 216.818291 
L 75.184439 214.580777 
L 75.610104 206.97323 
L 75.822937 205.183219 
L 76.035769 204.511964 
L 76.461434 201.379445 
L 77.099932 194.219401 
L 77.312764 193.771898 
L 77.738429 191.981887 
L 77.951261 191.086881 
L 78.376926 186.611853 
L 78.589759 186.388102 
L 79.441089 180.570566 
L 79.653921 177.661798 
L 80.505251 174.081776 
L 80.718083 171.844262 
L 81.143748 170.725505 
L 83.91057 159.090433 
L 84.336235 158.64293 
L 84.549068 157.971676 
L 84.7619 157.971676 
L 84.974733 155.957913 
L 85.61323 155.286659 
L 85.826062 154.839156 
L 86.038895 153.944151 
L 86.251727 153.7204 
L 86.677392 152.377891 
L 87.31589 150.58788 
L 87.528722 150.140377 
L 87.741555 148.797869 
L 88.167219 148.126615 
L 88.592884 146.112852 
L 88.805717 146.112852 
L 89.018549 145.217847 
L 89.231382 144.994095 
L 89.444214 144.994095 
L 89.657047 144.09909 
L 89.869879 144.09909 
L 90.295544 142.085327 
L 90.508376 141.637825 
L 90.721209 141.637825 
L 90.934041 140.742819 
L 91.146874 140.742819 
L 91.359706 140.071565 
L 91.572539 139.847814 
L 91.998204 138.729057 
L 92.211036 138.505305 
L 93.062366 136.939046 
L 93.488031 136.939046 
L 93.700863 136.715294 
L 94.126528 136.715294 
L 94.765026 134.030277 
L 95.190691 133.582775 
L 95.403523 133.135272 
L 95.616356 133.135272 
L 96.254853 132.016515 
L 96.467685 132.016515 
L 96.680518 131.569012 
L 97.531848 126.870233 
L 97.74468 126.646482 
L 97.957513 125.975228 
L 98.170345 125.751476 
L 98.383177 124.185216 
L 98.59601 123.513962 
L 98.808842 123.290211 
L 99.021675 122.618957 
L 99.234507 122.618957 
L 99.873005 121.276448 
L 100.724335 121.276448 
L 101.149999 119.93394 
L 101.362832 119.710189 
L 101.788497 119.710189 
L 102.001329 119.486437 
L 102.639827 118.36768 
L 103.065492 118.36768 
L 103.278324 117.696426 
L 104.342486 117.696426 
L 104.555319 117.472675 
L 104.768151 117.472675 
L 104.980984 117.025172 
L 106.470811 117.025172 
L 106.683643 116.801421 
L 106.896476 116.801421 
L 107.322141 116.130166 
L 107.747806 116.130166 
L 107.960638 115.906415 
L 110.088963 115.906415 
L 110.514628 115.235161 
L 112.217287 115.235161 
L 112.642952 114.340155 
L 113.494282 114.340155 
L 113.707115 114.116404 
L 113.919947 114.116404 
L 114.345612 113.221398 
L 114.771277 113.221398 
L 114.984109 112.997647 
L 116.048272 112.997647 
L 116.473937 112.326393 
L 116.686769 112.102642 
L 118.602261 112.102642 
L 119.027926 111.655139 
L 119.453591 111.655139 
L 119.879256 111.207636 
L 120.730586 111.207636 
L 120.943418 110.983885 
L 122.00758 110.983885 
L 122.220413 110.760133 
L 122.646078 110.760133 
L 122.85891 110.31263 
L 124.774402 110.31263 
L 124.987235 110.088879 
L 125.4129 110.088879 
L 125.625732 109.865128 
L 129.031052 109.865128 
L 129.243884 109.641376 
L 129.456717 109.193873 
L 129.882381 109.193873 
L 130.095214 108.970122 
L 130.520879 108.970122 
L 130.733711 108.746371 
L 131.159376 108.746371 
L 131.372209 108.298868 
L 132.649203 108.298868 
L 132.862036 108.075117 
L 135.84169 108.075117 
L 136.054523 107.627614 
L 136.69302 107.627614 
L 136.905853 107.403862 
L 139.034177 107.403862 
L 139.24701 107.180111 
L 139.459842 107.180111 
L 139.672675 106.95636 
L 139.885507 106.95636 
L 140.311172 106.508857 
L 141.375334 106.508857 
L 141.588167 106.285105 
L 142.439497 106.285105 
L 142.652329 106.061354 
L 143.503659 106.061354 
L 143.716491 105.837603 
L 143.929324 105.837603 
L 144.142156 105.613851 
L 146.483313 105.613851 
L 146.696146 105.3901 
L 147.760308 105.3901 
L 147.973141 105.166349 
L 149.462968 105.166349 
L 149.6758 104.942597 
L 150.101465 104.942597 
L 150.314298 104.718846 
L 155.209444 104.718846 
L 155.422277 104.495094 
L 157.550601 104.495094 
L 157.763434 104.271343 
L 158.189099 104.271343 
L 158.401931 104.047592 
L 160.104591 104.047592 
L 160.317423 103.82384 
L 160.530256 103.376337 
L 181.600669 103.376337 
L 181.813502 103.152586 
L 182.664831 103.152586 
L 182.877664 102.928835 
L 184.580324 102.928835 
L 185.218821 102.25758 
L 186.708648 102.25758 
L 186.921481 102.033829 
L 189.47547 102.033829 
L 189.688303 101.810078 
L 194.796282 101.810078 
L 195.009114 101.362575 
L 200.75559 101.362575 
L 200.968423 101.138824 
L 202.032585 101.138824 
L 202.245418 100.915072 
L 203.522412 100.915072 
L 203.735245 100.691321 
L 207.140564 100.691321 
L 207.353397 100.467569 
L 212.674208 100.467569 
L 212.887041 100.243818 
L 213.099873 100.243818 
L 213.312706 100.020067 
L 215.228198 100.020067 
L 215.44103 99.796315 
L 216.079528 99.796315 
L 216.29236 99.572564 
L 216.505192 99.572564 
L 216.718025 99.125061 
L 220.974674 99.125061 
L 221.187507 98.90131 
L 224.592826 98.90131 
L 224.805658 98.677558 
L 226.082653 98.677558 
L 226.295486 98.230055 
L 227.57248 98.230055 
L 227.785313 98.006304 
L 228.210978 98.006304 
L 228.42381 97.782553 
L 229.700805 97.782553 
L 229.913637 97.558801 
L 231.190632 97.558801 
L 231.403465 97.33505 
L 235.872946 97.33505 
L 236.085779 97.111299 
L 236.298611 97.111299 
L 236.511444 96.887547 
L 242.896417 96.887547 
L 243.10925 96.663796 
L 247.153067 96.663796 
L 247.365899 96.440044 
L 251.409716 96.440044 
L 251.622548 96.216293 
L 254.602203 96.216293 
L 255.027868 95.76879 
L 256.94336 95.76879 
L 257.156192 95.545039 
L 264.392496 95.545039 
L 264.605328 95.097536 
L 269.07481 95.097536 
L 269.287642 94.873785 
L 270.138972 94.873785 
L 270.351805 94.650033 
L 272.054464 94.650033 
L 272.267297 94.426282 
L 272.692962 94.426282 
L 272.905794 94.202531 
L 273.118627 94.202531 
L 273.331459 93.755028 
L 275.246951 93.755028 
L 275.459784 93.531276 
L 289.081061 93.531276 
L 289.506726 93.083774 
L 289.932391 93.083774 
L 290.145223 92.860022 
L 292.060716 92.860022 
L 292.273548 92.636271 
L 295.8917 92.636271 
L 296.104532 92.412519 
L 301.212511 92.412519 
L 301.425344 92.188768 
L 306.746155 92.188768 
L 306.958988 91.965017 
L 307.597485 91.965017 
L 307.810318 91.741265 
L 309.087312 91.741265 
L 309.300145 91.517514 
L 313.556794 91.517514 
L 313.769626 91.293762 
L 319.090438 91.293762 
L 319.30327 91.070011 
L 328.455066 91.070011 
L 328.667899 90.84626 
L 328.880731 90.84626 
L 329.093563 90.622508 
L 329.306396 90.622508 
L 329.519228 90.398757 
L 341.012181 90.398757 
L 341.225014 90.175006 
L 358.25161 90.175006 
L 358.464443 89.951254 
L 360.8056 89.951254 
L 361.018432 89.727503 
L 368.680401 89.727503 
L 368.893233 89.503751 
L 375.065375 89.503751 
L 375.278207 89.28 
L 375.916705 89.28 
L 375.916705 89.28 
" clip-path="url(#p783c0d9707)" style="fill: none; stroke: #c957db; stroke-width: 1.2; stroke-linecap: round"/>
   </g>
   <g id="line2d_44"/>
   <g id="line2d_45"/>
   <g id="line2d_46"/>
   <g id="line2d_47"/>
   <g id="line2d_48"/>
   <g id="patch_3">
    <path d="M 54.3375 512.64 
L 54.3375 69.12 
" style="fill: none; stroke: #cccccc; stroke-linejoin: miter; stroke-linecap: square"/>
   </g>
   <g id="patch_4">
    <path d="M 54.3375 512.64 
L 391.23 512.64 
" style="fill: none; stroke: #cccccc; stroke-linejoin: miter; stroke-linecap: square"/>
   </g>
   <g id="text_41">
    <!-- Edge Coverage History -->
    <g style="fill: #262626" transform="translate(115.892262 63.12)scale(0.165888 -0.165888)">
     <defs>
      <path id="DejaVuSans-Bold-45" d="M 588 4666 
L 3834 4666 
L 3834 3756 
L 1791 3756 
L 1791 2888 
L 3713 2888 
L 3713 1978 
L 1791 1978 
L 1791 909 
L 3903 909 
L 3903 0 
L 588 0 
L 588 4666 
z
" transform="scale(0.015625)"/>
      <path id="DejaVuSans-Bold-64" d="M 2919 2988 
L 2919 4863 
L 4044 4863 
L 4044 0 
L 2919 0 
L 2919 506 
Q 2688 197 2409 53 
Q 2131 -91 1766 -91 
Q 1119 -91 703 423 
Q 288 938 288 1747 
Q 288 2556 703 3070 
Q 1119 3584 1766 3584 
Q 2128 3584 2408 3439 
Q 2688 3294 2919 2988 
z
M 2181 722 
Q 2541 722 2730 984 
Q 2919 1247 2919 1747 
Q 2919 2247 2730 2509 
Q 2541 2772 2181 2772 
Q 1825 2772 1636 2509 
Q 1447 2247 1447 1747 
Q 1447 1247 1636 984 
Q 1825 722 2181 722 
z
" transform="scale(0.015625)"/>
      <path id="DejaVuSans-Bold-67" d="M 2919 594 
Q 2688 288 2409 144 
Q 2131 0 1766 0 
Q 1125 0 706 504 
Q 288 1009 288 1791 
Q 288 2575 706 3076 
Q 1125 3578 1766 3578 
Q 2131 3578 2409 3434 
Q 2688 3291 2919 2981 
L 2919 3500 
L 4044 3500 
L 4044 353 
Q 4044 -491 3511 -936 
Q 2978 -1381 1966 -1381 
Q 1638 -1381 1331 -1331 
Q 1025 -1281 716 -1178 
L 716 -306 
Q 1009 -475 1290 -558 
Q 1572 -641 1856 -641 
Q 2406 -641 2662 -400 
Q 2919 -159 2919 353 
L 2919 594 
z
M 2181 2772 
Q 1834 2772 1640 2515 
Q 1447 2259 1447 1791 
Q 1447 1309 1634 1061 
Q 1822 813 2181 813 
Q 2531 813 2725 1069 
Q 2919 1325 2919 1791 
Q 2919 2259 2725 2515 
Q 2531 2772 2181 2772 
z
" transform="scale(0.015625)"/>
      <path id="DejaVuSans-Bold-65" d="M 4031 1759 
L 4031 1441 
L 1416 1441 
Q 1456 1047 1700 850 
Q 1944 653 2381 653 
Q 2734 653 3104 758 
Q 3475 863 3866 1075 
L 3866 213 
Q 3469 63 3072 -14 
Q 2675 -91 2278 -91 
Q 1328 -91 801 392 
Q 275 875 275 1747 
Q 275 2603 792 3093 
Q 1309 3584 2216 3584 
Q 3041 3584 3536 3087 
Q 4031 2591 4031 1759 
z
M 2881 2131 
Q 2881 2450 2695 2645 
Q 2509 2841 2209 2841 
Q 1884 2841 1681 2658 
Q 1478 2475 1428 2131 
L 2881 2131 
z
" transform="scale(0.015625)"/>
      <path id="DejaVuSans-Bold-20" transform="scale(0.015625)"/>
      <path id="DejaVuSans-Bold-43" d="M 4288 256 
Q 3956 84 3597 -3 
Q 3238 -91 2847 -91 
Q 1681 -91 1000 561 
Q 319 1213 319 2328 
Q 319 3447 1000 4098 
Q 1681 4750 2847 4750 
Q 3238 4750 3597 4662 
Q 3956 4575 4288 4403 
L 4288 3438 
Q 3953 3666 3628 3772 
Q 3303 3878 2944 3878 
Q 2300 3878 1931 3465 
Q 1563 3053 1563 2328 
Q 1563 1606 1931 1193 
Q 2300 781 2944 781 
Q 3303 781 3628 887 
Q 3953 994 4288 1222 
L 4288 256 
z
" transform="scale(0.015625)"/>
      <path id="DejaVuSans-Bold-6f" d="M 2203 2784 
Q 1831 2784 1636 2517 
Q 1441 2250 1441 1747 
Q 1441 1244 1636 976 
Q 1831 709 2203 709 
Q 2569 709 2762 976 
Q 2956 1244 2956 1747 
Q 2956 2250 2762 2517 
Q 2569 2784 2203 2784 
z
M 2203 3584 
Q 3106 3584 3614 3096 
Q 4122 2609 4122 1747 
Q 4122 884 3614 396 
Q 3106 -91 2203 -91 
Q 1297 -91 786 396 
Q 275 884 275 1747 
Q 275 2609 786 3096 
Q 1297 3584 2203 3584 
z
" transform="scale(0.015625)"/>
      <path id="DejaVuSans-Bold-76" d="M 97 3500 
L 1216 3500 
L 2088 1081 
L 2956 3500 
L 4078 3500 
L 2700 0 
L 1472 0 
L 97 3500 
z
" transform="scale(0.015625)"/>
      <path id="DejaVuSans-Bold-72" d="M 3138 2547 
Q 2991 2616 2845 2648 
Q 2700 2681 2553 2681 
Q 2122 2681 1889 2404 
Q 1656 2128 1656 1613 
L 1656 0 
L 538 0 
L 538 3500 
L 1656 3500 
L 1656 2925 
Q 1872 3269 2151 3426 
Q 2431 3584 2822 3584 
Q 2878 3584 2943 3579 
Q 3009 3575 3134 3559 
L 3138 2547 
z
" transform="scale(0.015625)"/>
      <path id="DejaVuSans-Bold-61" d="M 2106 1575 
Q 1756 1575 1579 1456 
Q 1403 1338 1403 1106 
Q 1403 894 1545 773 
Q 1688 653 1941 653 
Q 2256 653 2472 879 
Q 2688 1106 2688 1447 
L 2688 1575 
L 2106 1575 
z
M 3816 1997 
L 3816 0 
L 2688 0 
L 2688 519 
Q 2463 200 2181 54 
Q 1900 -91 1497 -91 
Q 953 -91 614 226 
Q 275 544 275 1050 
Q 275 1666 698 1953 
Q 1122 2241 2028 2241 
L 2688 2241 
L 2688 2328 
Q 2688 2594 2478 2717 
Q 2269 2841 1825 2841 
Q 1466 2841 1156 2769 
Q 847 2697 581 2553 
L 581 3406 
Q 941 3494 1303 3539 
Q 1666 3584 2028 3584 
Q 2975 3584 3395 3211 
Q 3816 2838 3816 1997 
z
" transform="scale(0.015625)"/>
      <path id="DejaVuSans-Bold-48" d="M 588 4666 
L 1791 4666 
L 1791 2888 
L 3566 2888 
L 3566 4666 
L 4769 4666 
L 4769 0 
L 3566 0 
L 3566 1978 
L 1791 1978 
L 1791 0 
L 588 0 
L 588 4666 
z
" transform="scale(0.015625)"/>
      <path id="DejaVuSans-Bold-69" d="M 538 3500 
L 1656 3500 
L 1656 0 
L 538 0 
L 538 3500 
z
M 538 4863 
L 1656 4863 
L 1656 3950 
L 538 3950 
L 538 4863 
z
" transform="scale(0.015625)"/>
      <path id="DejaVuSans-Bold-73" d="M 3272 3391 
L 3272 2541 
Q 2913 2691 2578 2766 
Q 2244 2841 1947 2841 
Q 1628 2841 1473 2761 
Q 1319 2681 1319 2516 
Q 1319 2381 1436 2309 
Q 1553 2238 1856 2203 
L 2053 2175 
Q 2913 2066 3209 1816 
Q 3506 1566 3506 1031 
Q 3506 472 3093 190 
Q 2681 -91 1863 -91 
Q 1516 -91 1145 -36 
Q 775 19 384 128 
L 384 978 
Q 719 816 1070 734 
Q 1422 653 1784 653 
Q 2113 653 2278 743 
Q 2444 834 2444 1013 
Q 2444 1163 2330 1236 
Q 2216 1309 1875 1350 
L 1678 1375 
Q 931 1469 631 1722 
Q 331 1975 331 2491 
Q 331 3047 712 3315 
Q 1094 3584 1881 3584 
Q 2191 3584 2531 3537 
Q 2872 3491 3272 3391 
z
" transform="scale(0.015625)"/>
      <path id="DejaVuSans-Bold-74" d="M 1759 4494 
L 1759 3500 
L 2913 3500 
L 2913 2700 
L 1759 2700 
L 1759 1216 
Q 1759 972 1856 886 
Q 1953 800 2241 800 
L 2816 800 
L 2816 0 
L 1856 0 
Q 1194 0 917 276 
Q 641 553 641 1216 
L 641 2700 
L 84 2700 
L 84 3500 
L 641 3500 
L 641 4494 
L 1759 4494 
z
" transform="scale(0.015625)"/>
      <path id="DejaVuSans-Bold-79" d="M 78 3500 
L 1197 3500 
L 2138 1125 
L 2938 3500 
L 4056 3500 
L 2584 -331 
Q 2363 -916 2067 -1148 
Q 1772 -1381 1288 -1381 
L 641 -1381 
L 641 -647 
L 991 -647 
Q 1275 -647 1404 -556 
Q 1534 -466 1606 -231 
L 1638 -134 
L 78 3500 
z
" transform="scale(0.015625)"/>
     </defs>
     <use xlink:href="#DejaVuSans-Bold-45"/>
     <use xlink:href="#DejaVuSans-Bold-64" x="68.310547"/>
     <use xlink:href="#DejaVuSans-Bold-67" x="139.892578"/>
     <use xlink:href="#DejaVuSans-Bold-65" x="211.474609"/>
     <use xlink:href="#DejaVuSans-Bold-20" x="279.296875"/>
     <use xlink:href="#DejaVuSans-Bold-43" x="314.111328"/>
     <use xlink:href="#DejaVuSans-Bold-6f" x="387.5"/>
     <use xlink:href="#DejaVuSans-Bold-76" x="456.201172"/>
     <use xlink:href="#DejaVuSans-Bold-65" x="521.386719"/>
     <use xlink:href="#DejaVuSans-Bold-72" x="589.208984"/>
     <use xlink:href="#DejaVuSans-Bold-61" x="638.525391"/>
     <use xlink:href="#DejaVuSans-Bold-67" x="706.005859"/>
     <use xlink:href="#DejaVuSans-Bold-65" x="777.587891"/>
     <use xlink:href="#DejaVuSans-Bold-20" x="845.410156"/>
     <use xlink:href="#DejaVuSans-Bold-48" x="880.224609"/>
     <use xlink:href="#DejaVuSans-Bold-69" x="963.916016"/>
     <use xlink:href="#DejaVuSans-Bold-73" x="998.193359"/>
     <use xlink:href="#DejaVuSans-Bold-74" x="1057.714844"/>
     <use xlink:href="#DejaVuSans-Bold-6f" x="1105.517578"/>
     <use xlink:href="#DejaVuSans-Bold-72" x="1174.21875"/>
     <use xlink:href="#DejaVuSans-Bold-79" x="1223.535156"/>
    </g>
   </g>
   <g id="legend_1">
    <g id="patch_5">
     <path d="M 267.942 508.24 
L 385.07 508.24 
Q 386.83 508.24 386.83 506.48 
L 386.83 428.8405 
Q 386.83 427.0805 385.07 427.0805 
L 267.942 427.0805 
Q 266.182 427.0805 266.182 428.8405 
L 266.182 506.48 
Q 266.182 508.24 267.942 508.24 
z
" style="fill: #ffffff; opacity: 0.8; stroke: #cccccc; stroke-width: 0.8; stroke-linejoin: miter"/>
    </g>
    <g id="text_42">
     <!-- fuzzer -->
     <g style="fill: #262626" transform="translate(311.809 437.895)scale(0.096 -0.096)">
      <defs>
       <path id="DejaVuSans-66" d="M 2375 4863 
L 2375 4384 
L 1825 4384 
Q 1516 4384 1395 4259 
Q 1275 4134 1275 3809 
L 1275 3500 
L 2222 3500 
L 2222 3053 
L 1275 3053 
L 1275 0 
L 697 0 
L 697 3053 
L 147 3053 
L 147 3500 
L 697 3500 
L 697 3744 
Q 697 4328 969 4595 
Q 1241 4863 1831 4863 
L 2375 4863 
z
" transform="scale(0.015625)"/>
       <path id="DejaVuSans-7a" d="M 353 3500 
L 3084 3500 
L 3084 2975 
L 922 459 
L 3084 459 
L 3084 0 
L 275 0 
L 275 525 
L 2438 3041 
L 353 3041 
L 353 3500 
z
" transform="scale(0.015625)"/>
      </defs>
      <use xlink:href="#DejaVuSans-66"/>
      <use xlink:href="#DejaVuSans-75" x="35.205078"/>
      <use xlink:href="#DejaVuSans-7a" x="98.583984"/>
      <use xlink:href="#DejaVuSans-7a" x="151.074219"/>
      <use xlink:href="#DejaVuSans-65" x="203.564453"/>
      <use xlink:href="#DejaVuSans-72" x="265.087891"/>
     </g>
    </g>
    <g id="line2d_49">
     <path d="M 269.702 447.898125 
L 278.502 447.898125 
L 287.302 447.898125 
" style="fill: none; stroke: #db5f57; stroke-width: 1.2; stroke-linecap: round"/>
    </g>
    <g id="text_43">
     <!-- aflfast-0-exid20 -->
     <g style="fill: #262626" transform="translate(294.342 450.978125)scale(0.088 -0.088)">
      <defs>
       <path id="DejaVuSans-6c" d="M 603 4863 
L 1178 4863 
L 1178 0 
L 603 0 
L 603 4863 
z
" transform="scale(0.015625)"/>
       <path id="DejaVuSans-2d" d="M 313 2009 
L 1997 2009 
L 1997 1497 
L 313 1497 
L 313 2009 
z
" transform="scale(0.015625)"/>
       <path id="DejaVuSans-78" d="M 3513 3500 
L 2247 1797 
L 3578 0 
L 2900 0 
L 1881 1375 
L 863 0 
L 184 0 
L 1544 1831 
L 300 3500 
L 978 3500 
L 1906 2253 
L 2834 3500 
L 3513 3500 
z
" transform="scale(0.015625)"/>
      </defs>
      <use xlink:href="#DejaVuSans-61"/>
      <use xlink:href="#DejaVuSans-66" x="61.279297"/>
      <use xlink:href="#DejaVuSans-6c" x="96.484375"/>
      <use xlink:href="#DejaVuSans-66" x="124.267578"/>
      <use xlink:href="#DejaVuSans-61" x="159.472656"/>
      <use xlink:href="#DejaVuSans-73" x="220.751953"/>
      <use xlink:href="#DejaVuSans-74" x="272.851562"/>
      <use xlink:href="#DejaVuSans-2d" x="312.060547"/>
      <use xlink:href="#DejaVuSans-30" x="348.144531"/>
      <use xlink:href="#DejaVuSans-2d" x="411.767578"/>
      <use xlink:href="#DejaVuSans-65" x="447.851562"/>
      <use xlink:href="#DejaVuSans-78" x="507.625"/>
      <use xlink:href="#DejaVuSans-69" x="566.804688"/>
      <use xlink:href="#DejaVuSans-64" x="594.587891"/>
      <use xlink:href="#DejaVuSans-32" x="658.064453"/>
      <use xlink:href="#DejaVuSans-30" x="721.6875"/>
     </g>
    </g>
    <g id="line2d_50">
     <path d="M 269.702 460.814875 
L 278.502 460.814875 
L 287.302 460.814875 
" style="fill: none; stroke: #b9db57; stroke-width: 1.2; stroke-linecap: round"/>
    </g>
    <g id="text_44">
     <!-- fairfuzz-0-exid20 -->
     <g style="fill: #262626" transform="translate(294.342 463.894875)scale(0.088 -0.088)">
      <use xlink:href="#DejaVuSans-66"/>
      <use xlink:href="#DejaVuSans-61" x="35.205078"/>
      <use xlink:href="#DejaVuSans-69" x="96.484375"/>
      <use xlink:href="#DejaVuSans-72" x="124.267578"/>
      <use xlink:href="#DejaVuSans-66" x="165.380859"/>
      <use xlink:href="#DejaVuSans-75" x="200.585938"/>
      <use xlink:href="#DejaVuSans-7a" x="263.964844"/>
      <use xlink:href="#DejaVuSans-7a" x="316.455078"/>
      <use xlink:href="#DejaVuSans-2d" x="368.945312"/>
      <use xlink:href="#DejaVuSans-30" x="405.029297"/>
      <use xlink:href="#DejaVuSans-2d" x="468.652344"/>
      <use xlink:href="#DejaVuSans-65" x="504.736328"/>
      <use xlink:href="#DejaVuSans-78" x="564.509766"/>
      <use xlink:href="#DejaVuSans-69" x="623.689453"/>
      <use xlink:href="#DejaVuSans-64" x="651.472656"/>
      <use xlink:href="#DejaVuSans-32" x="714.949219"/>
      <use xlink:href="#DejaVuSans-30" x="778.572266"/>
     </g>
    </g>
    <g id="line2d_51">
     <path d="M 269.702 473.731625 
L 278.502 473.731625 
L 287.302 473.731625 
" style="fill: none; stroke: #57db94; stroke-width: 1.2; stroke-linecap: round"/>
    </g>
    <g id="text_45">
     <!-- aflplusplus-0-exid20 -->
     <g style="fill: #262626" transform="translate(294.342 476.811625)scale(0.088 -0.088)">
      <defs>
       <path id="DejaVuSans-70" d="M 1159 525 
L 1159 -1331 
L 581 -1331 
L 581 3500 
L 1159 3500 
L 1159 2969 
Q 1341 3281 1617 3432 
Q 1894 3584 2278 3584 
Q 2916 3584 3314 3078 
Q 3713 2572 3713 1747 
Q 3713 922 3314 415 
Q 2916 -91 2278 -91 
Q 1894 -91 1617 61 
Q 1341 213 1159 525 
z
M 3116 1747 
Q 3116 2381 2855 2742 
Q 2594 3103 2138 3103 
Q 1681 3103 1420 2742 
Q 1159 2381 1159 1747 
Q 1159 1113 1420 752 
Q 1681 391 2138 391 
Q 2594 391 2855 752 
Q 3116 1113 3116 1747 
z
" transform="scale(0.015625)"/>
      </defs>
      <use xlink:href="#DejaVuSans-61"/>
      <use xlink:href="#DejaVuSans-66" x="61.279297"/>
      <use xlink:href="#DejaVuSans-6c" x="96.484375"/>
      <use xlink:href="#DejaVuSans-70" x="124.267578"/>
      <use xlink:href="#DejaVuSans-6c" x="187.744141"/>
      <use xlink:href="#DejaVuSans-75" x="215.527344"/>
      <use xlink:href="#DejaVuSans-73" x="278.90625"/>
      <use xlink:href="#DejaVuSans-70" x="331.005859"/>
      <use xlink:href="#DejaVuSans-6c" x="394.482422"/>
      <use xlink:href="#DejaVuSans-75" x="422.265625"/>
      <use xlink:href="#DejaVuSans-73" x="485.644531"/>
      <use xlink:href="#DejaVuSans-2d" x="537.744141"/>
      <use xlink:href="#DejaVuSans-30" x="573.828125"/>
      <use xlink:href="#DejaVuSans-2d" x="637.451172"/>
      <use xlink:href="#DejaVuSans-65" x="673.535156"/>
      <use xlink:href="#DejaVuSans-78" x="733.308594"/>
      <use xlink:href="#DejaVuSans-69" x="792.488281"/>
      <use xlink:href="#DejaVuSans-64" x="820.271484"/>
      <use xlink:href="#DejaVuSans-32" x="883.748047"/>
      <use xlink:href="#DejaVuSans-30" x="947.371094"/>
     </g>
    </g>
    <g id="line2d_52">
     <path d="M 269.702 486.648375 
L 278.502 486.648375 
L 287.302 486.648375 
" style="fill: none; stroke: #5784db; stroke-width: 1.2; stroke-linecap: round"/>
    </g>
    <g id="text_46">
     <!-- afl-0-exid20 -->
     <g style="fill: #262626" transform="translate(294.342 489.728375)scale(0.088 -0.088)">
      <use xlink:href="#DejaVuSans-61"/>
      <use xlink:href="#DejaVuSans-66" x="61.279297"/>
      <use xlink:href="#DejaVuSans-6c" x="96.484375"/>
      <use xlink:href="#DejaVuSans-2d" x="124.267578"/>
      <use xlink:href="#DejaVuSans-30" x="160.351562"/>
      <use xlink:href="#DejaVuSans-2d" x="223.974609"/>
      <use xlink:href="#DejaVuSans-65" x="260.058594"/>
      <use xlink:href="#DejaVuSans-78" x="319.832031"/>
      <use xlink:href="#DejaVuSans-69" x="379.011719"/>
      <use xlink:href="#DejaVuSans-64" x="406.794922"/>
      <use xlink:href="#DejaVuSans-32" x="470.271484"/>
      <use xlink:href="#DejaVuSans-30" x="533.894531"/>
     </g>
    </g>
    <g id="line2d_53">
     <path d="M 269.702 499.565125 
L 278.502 499.565125 
L 287.302 499.565125 
" style="fill: none; stroke: #c957db; stroke-width: 1.2; stroke-linecap: round"/>
    </g>
    <g id="text_47">
     <!-- fuzzer_global -->
     <g style="fill: #262626" transform="translate(294.342 502.645125)scale(0.088 -0.088)">
      <defs>
       <path id="DejaVuSans-5f" d="M 3263 -1063 
L 3263 -1509 
L -63 -1509 
L -63 -1063 
L 3263 -1063 
z
" transform="scale(0.015625)"/>
       <path id="DejaVuSans-62" d="M 3116 1747 
Q 3116 2381 2855 2742 
Q 2594 3103 2138 3103 
Q 1681 3103 1420 2742 
Q 1159 2381 1159 1747 
Q 1159 1113 1420 752 
Q 1681 391 2138 391 
Q 2594 391 2855 752 
Q 3116 1113 3116 1747 
z
M 1159 2969 
Q 1341 3281 1617 3432 
Q 1894 3584 2278 3584 
Q 2916 3584 3314 3078 
Q 3713 2572 3713 1747 
Q 3713 922 3314 415 
Q 2916 -91 2278 -91 
Q 1894 -91 1617 61 
Q 1341 213 1159 525 
L 1159 0 
L 581 0 
L 581 4863 
L 1159 4863 
L 1159 2969 
z
" transform="scale(0.015625)"/>
      </defs>
      <use xlink:href="#DejaVuSans-66"/>
      <use xlink:href="#DejaVuSans-75" x="35.205078"/>
      <use xlink:href="#DejaVuSans-7a" x="98.583984"/>
      <use xlink:href="#DejaVuSans-7a" x="151.074219"/>
      <use xlink:href="#DejaVuSans-65" x="203.564453"/>
      <use xlink:href="#DejaVuSans-72" x="265.087891"/>
      <use xlink:href="#DejaVuSans-5f" x="306.201172"/>
      <use xlink:href="#DejaVuSans-67" x="356.201172"/>
      <use xlink:href="#DejaVuSans-6c" x="419.677734"/>
      <use xlink:href="#DejaVuSans-6f" x="447.460938"/>
      <use xlink:href="#DejaVuSans-62" x="508.642578"/>
      <use xlink:href="#DejaVuSans-61" x="572.119141"/>
      <use xlink:href="#DejaVuSans-6c" x="633.398438"/>
     </g>
    </g>
   </g>
  </g>
 </g>
 <defs>
  <clipPath id="p783c0d9707">
   <rect x="54.3375" y="69.12" width="336.8925" height="443.52"/>
  </clipPath>
 </defs>
</svg>
