<?xml version="1.0" encoding="utf-8" standalone="no"?>
<!DOCTYPE svg PUBLIC "-//W3C//DTD SVG 1.1//EN"
  "http://www.w3.org/Graphics/SVG/1.1/DTD/svg11.dtd">
<svg xmlns:xlink="http://www.w3.org/1999/xlink" width="434.7pt" height="576pt" viewBox="0 0 434.7 576" xmlns="http://www.w3.org/2000/svg" version="1.1">
 <metadata>
  <rdf:RDF xmlns:dc="http://purl.org/dc/elements/1.1/" xmlns:cc="http://creativecommons.org/ns#" xmlns:rdf="http://www.w3.org/1999/02/22-rdf-syntax-ns#">
   <cc:Work>
    <dc:type rdf:resource="http://purl.org/dc/dcmitype/StillImage"/>
    <dc:date>2022-09-15T11:11:46.998966</dc:date>
    <dc:format>image/svg+xml</dc:format>
    <dc:creator>
     <cc:Agent>
      <dc:title>Matplotlib v3.5.3, https://matplotlib.org/</dc:title>
     </cc:Agent>
    </dc:creator>
   </cc:Work>
  </rdf:RDF>
 </metadata>
 <defs>
  <style type="text/css">*{stroke-linejoin: round; stroke-linecap: butt}</style>
 </defs>
 <g id="figure_1">
  <g id="patch_1">
   <path d="M 0 576 
L 434.7 576 
L 434.7 0 
L 0 0 
z
" style="fill: #ffffff"/>
  </g>
  <g id="axes_1">
   <g id="patch_2">
    <path d="M 54.3375 512.64 
L 391.23 512.64 
L 391.23 69.12 
L 54.3375 69.12 
z
" style="fill: #ffffff"/>
   </g>
   <g id="matplotlib.axis_1">
    <g id="xtick_1">
     <g id="line2d_1">
      <path d="M 69.650795 512.64 
L 69.650795 69.12 
" clip-path="url(#p3e01012238)" style="fill: none; stroke: #cccccc; stroke-width: 0.8; stroke-linecap: round"/>
     </g>
     <g id="text_1">
      <!-- 0 -->
      <g style="fill: #262626" transform="translate(69.388282 529.627249)rotate(-45)scale(0.088 -0.088)">
       <defs>
        <path id="DejaVuSans-30" d="M 2034 4250 
Q 1547 4250 1301 3770 
Q 1056 3291 1056 2328 
Q 1056 1369 1301 889 
Q 1547 409 2034 409 
Q 2525 409 2770 889 
Q 3016 1369 3016 2328 
Q 3016 3291 2770 3770 
Q 2525 4250 2034 4250 
z
M 2034 4750 
Q 2819 4750 3233 4129 
Q 3647 3509 3647 2328 
Q 3647 1150 3233 529 
Q 2819 -91 2034 -91 
Q 1250 -91 836 529 
Q 422 1150 422 2328 
Q 422 3509 836 4129 
Q 1250 4750 2034 4750 
z
" transform="scale(0.015625)"/>
       </defs>
       <use xlink:href="#DejaVuSans-30"/>
      </g>
     </g>
    </g>
    <g id="xtick_2">
     <g id="line2d_2">
      <path d="M 86.677392 512.64 
L 86.677392 69.12 
" clip-path="url(#p3e01012238)" style="fill: none; stroke: #cccccc; stroke-width: 0.8; stroke-linecap: round"/>
     </g>
     <g id="text_2">
      <!-- 80 -->
      <g style="fill: #262626" transform="translate(84.435333 533.58634)rotate(-45)scale(0.088 -0.088)">
       <defs>
        <path id="DejaVuSans-38" d="M 2034 2216 
Q 1584 2216 1326 1975 
Q 1069 1734 1069 1313 
Q 1069 891 1326 650 
Q 1584 409 2034 409 
Q 2484 409 2743 651 
Q 3003 894 3003 1313 
Q 3003 1734 2745 1975 
Q 2488 2216 2034 2216 
z
M 1403 2484 
Q 997 2584 770 2862 
Q 544 3141 544 3541 
Q 544 4100 942 4425 
Q 1341 4750 2034 4750 
Q 2731 4750 3128 4425 
Q 3525 4100 3525 3541 
Q 3525 3141 3298 2862 
Q 3072 2584 2669 2484 
Q 3125 2378 3379 2068 
Q 3634 1759 3634 1313 
Q 3634 634 3220 271 
Q 2806 -91 2034 -91 
Q 1263 -91 848 271 
Q 434 634 434 1313 
Q 434 1759 690 2068 
Q 947 2378 1403 2484 
z
M 1172 3481 
Q 1172 3119 1398 2916 
Q 1625 2713 2034 2713 
Q 2441 2713 2670 2916 
Q 2900 3119 2900 3481 
Q 2900 3844 2670 4047 
Q 2441 4250 2034 4250 
Q 1625 4250 1398 4047 
Q 1172 3844 1172 3481 
z
" transform="scale(0.015625)"/>
       </defs>
       <use xlink:href="#DejaVuSans-38"/>
       <use xlink:href="#DejaVuSans-30" x="63.623047"/>
      </g>
     </g>
    </g>
    <g id="xtick_3">
     <g id="line2d_3">
      <path d="M 103.703989 512.64 
L 103.703989 69.12 
" clip-path="url(#p3e01012238)" style="fill: none; stroke: #cccccc; stroke-width: 0.8; stroke-linecap: round"/>
     </g>
     <g id="text_3">
      <!-- 160 -->
      <g style="fill: #262626" transform="translate(99.482385 537.54543)rotate(-45)scale(0.088 -0.088)">
       <defs>
        <path id="DejaVuSans-31" d="M 794 531 
L 1825 531 
L 1825 4091 
L 703 3866 
L 703 4441 
L 1819 4666 
L 2450 4666 
L 2450 531 
L 3481 531 
L 3481 0 
L 794 0 
L 794 531 
z
" transform="scale(0.015625)"/>
        <path id="DejaVuSans-36" d="M 2113 2584 
Q 1688 2584 1439 2293 
Q 1191 2003 1191 1497 
Q 1191 994 1439 701 
Q 1688 409 2113 409 
Q 2538 409 2786 701 
Q 3034 994 3034 1497 
Q 3034 2003 2786 2293 
Q 2538 2584 2113 2584 
z
M 3366 4563 
L 3366 3988 
Q 3128 4100 2886 4159 
Q 2644 4219 2406 4219 
Q 1781 4219 1451 3797 
Q 1122 3375 1075 2522 
Q 1259 2794 1537 2939 
Q 1816 3084 2150 3084 
Q 2853 3084 3261 2657 
Q 3669 2231 3669 1497 
Q 3669 778 3244 343 
Q 2819 -91 2113 -91 
Q 1303 -91 875 529 
Q 447 1150 447 2328 
Q 447 3434 972 4092 
Q 1497 4750 2381 4750 
Q 2619 4750 2861 4703 
Q 3103 4656 3366 4563 
z
" transform="scale(0.015625)"/>
       </defs>
       <use xlink:href="#DejaVuSans-31"/>
       <use xlink:href="#DejaVuSans-36" x="63.623047"/>
       <use xlink:href="#DejaVuSans-30" x="127.246094"/>
      </g>
     </g>
    </g>
    <g id="xtick_4">
     <g id="line2d_4">
      <path d="M 120.730586 512.64 
L 120.730586 69.12 
" clip-path="url(#p3e01012238)" style="fill: none; stroke: #cccccc; stroke-width: 0.8; stroke-linecap: round"/>
     </g>
     <g id="text_4">
      <!-- 240 -->
      <g style="fill: #262626" transform="translate(116.508981 537.54543)rotate(-45)scale(0.088 -0.088)">
       <defs>
        <path id="DejaVuSans-32" d="M 1228 531 
L 3431 531 
L 3431 0 
L 469 0 
L 469 531 
Q 828 903 1448 1529 
Q 2069 2156 2228 2338 
Q 2531 2678 2651 2914 
Q 2772 3150 2772 3378 
Q 2772 3750 2511 3984 
Q 2250 4219 1831 4219 
Q 1534 4219 1204 4116 
Q 875 4013 500 3803 
L 500 4441 
Q 881 4594 1212 4672 
Q 1544 4750 1819 4750 
Q 2544 4750 2975 4387 
Q 3406 4025 3406 3419 
Q 3406 3131 3298 2873 
Q 3191 2616 2906 2266 
Q 2828 2175 2409 1742 
Q 1991 1309 1228 531 
z
" transform="scale(0.015625)"/>
        <path id="DejaVuSans-34" d="M 2419 4116 
L 825 1625 
L 2419 1625 
L 2419 4116 
z
M 2253 4666 
L 3047 4666 
L 3047 1625 
L 3713 1625 
L 3713 1100 
L 3047 1100 
L 3047 0 
L 2419 0 
L 2419 1100 
L 313 1100 
L 313 1709 
L 2253 4666 
z
" transform="scale(0.015625)"/>
       </defs>
       <use xlink:href="#DejaVuSans-32"/>
       <use xlink:href="#DejaVuSans-34" x="63.623047"/>
       <use xlink:href="#DejaVuSans-30" x="127.246094"/>
      </g>
     </g>
    </g>
    <g id="xtick_5">
     <g id="line2d_5">
      <path d="M 137.757182 512.64 
L 137.757182 69.12 
" clip-path="url(#p3e01012238)" style="fill: none; stroke: #cccccc; stroke-width: 0.8; stroke-linecap: round"/>
     </g>
     <g id="text_5">
      <!-- 320 -->
      <g style="fill: #262626" transform="translate(133.535578 537.54543)rotate(-45)scale(0.088 -0.088)">
       <defs>
        <path id="DejaVuSans-33" d="M 2597 2516 
Q 3050 2419 3304 2112 
Q 3559 1806 3559 1356 
Q 3559 666 3084 287 
Q 2609 -91 1734 -91 
Q 1441 -91 1130 -33 
Q 819 25 488 141 
L 488 750 
Q 750 597 1062 519 
Q 1375 441 1716 441 
Q 2309 441 2620 675 
Q 2931 909 2931 1356 
Q 2931 1769 2642 2001 
Q 2353 2234 1838 2234 
L 1294 2234 
L 1294 2753 
L 1863 2753 
Q 2328 2753 2575 2939 
Q 2822 3125 2822 3475 
Q 2822 3834 2567 4026 
Q 2313 4219 1838 4219 
Q 1578 4219 1281 4162 
Q 984 4106 628 3988 
L 628 4550 
Q 988 4650 1302 4700 
Q 1616 4750 1894 4750 
Q 2613 4750 3031 4423 
Q 3450 4097 3450 3541 
Q 3450 3153 3228 2886 
Q 3006 2619 2597 2516 
z
" transform="scale(0.015625)"/>
       </defs>
       <use xlink:href="#DejaVuSans-33"/>
       <use xlink:href="#DejaVuSans-32" x="63.623047"/>
       <use xlink:href="#DejaVuSans-30" x="127.246094"/>
      </g>
     </g>
    </g>
    <g id="xtick_6">
     <g id="line2d_6">
      <path d="M 154.783779 512.64 
L 154.783779 69.12 
" clip-path="url(#p3e01012238)" style="fill: none; stroke: #cccccc; stroke-width: 0.8; stroke-linecap: round"/>
     </g>
     <g id="text_6">
      <!-- 400 -->
      <g style="fill: #262626" transform="translate(150.562175 537.54543)rotate(-45)scale(0.088 -0.088)">
       <use xlink:href="#DejaVuSans-34"/>
       <use xlink:href="#DejaVuSans-30" x="63.623047"/>
       <use xlink:href="#DejaVuSans-30" x="127.246094"/>
      </g>
     </g>
    </g>
    <g id="xtick_7">
     <g id="line2d_7">
      <path d="M 171.810376 512.64 
L 171.810376 69.12 
" clip-path="url(#p3e01012238)" style="fill: none; stroke: #cccccc; stroke-width: 0.8; stroke-linecap: round"/>
     </g>
     <g id="text_7">
      <!-- 480 -->
      <g style="fill: #262626" transform="translate(167.588772 537.54543)rotate(-45)scale(0.088 -0.088)">
       <use xlink:href="#DejaVuSans-34"/>
       <use xlink:href="#DejaVuSans-38" x="63.623047"/>
       <use xlink:href="#DejaVuSans-30" x="127.246094"/>
      </g>
     </g>
    </g>
    <g id="xtick_8">
     <g id="line2d_8">
      <path d="M 188.836973 512.64 
L 188.836973 69.12 
" clip-path="url(#p3e01012238)" style="fill: none; stroke: #cccccc; stroke-width: 0.8; stroke-linecap: round"/>
     </g>
     <g id="text_8">
      <!-- 560 -->
      <g style="fill: #262626" transform="translate(184.615368 537.54543)rotate(-45)scale(0.088 -0.088)">
       <defs>
        <path id="DejaVuSans-35" d="M 691 4666 
L 3169 4666 
L 3169 4134 
L 1269 4134 
L 1269 2991 
Q 1406 3038 1543 3061 
Q 1681 3084 1819 3084 
Q 2600 3084 3056 2656 
Q 3513 2228 3513 1497 
Q 3513 744 3044 326 
Q 2575 -91 1722 -91 
Q 1428 -91 1123 -41 
Q 819 9 494 109 
L 494 744 
Q 775 591 1075 516 
Q 1375 441 1709 441 
Q 2250 441 2565 725 
Q 2881 1009 2881 1497 
Q 2881 1984 2565 2268 
Q 2250 2553 1709 2553 
Q 1456 2553 1204 2497 
Q 953 2441 691 2322 
L 691 4666 
z
" transform="scale(0.015625)"/>
       </defs>
       <use xlink:href="#DejaVuSans-35"/>
       <use xlink:href="#DejaVuSans-36" x="63.623047"/>
       <use xlink:href="#DejaVuSans-30" x="127.246094"/>
      </g>
     </g>
    </g>
    <g id="xtick_9">
     <g id="line2d_9">
      <path d="M 205.863569 512.64 
L 205.863569 69.12 
" clip-path="url(#p3e01012238)" style="fill: none; stroke: #cccccc; stroke-width: 0.8; stroke-linecap: round"/>
     </g>
     <g id="text_9">
      <!-- 640 -->
      <g style="fill: #262626" transform="translate(201.641965 537.54543)rotate(-45)scale(0.088 -0.088)">
       <use xlink:href="#DejaVuSans-36"/>
       <use xlink:href="#DejaVuSans-34" x="63.623047"/>
       <use xlink:href="#DejaVuSans-30" x="127.246094"/>
      </g>
     </g>
    </g>
    <g id="xtick_10">
     <g id="line2d_10">
      <path d="M 222.890166 512.64 
L 222.890166 69.12 
" clip-path="url(#p3e01012238)" style="fill: none; stroke: #cccccc; stroke-width: 0.8; stroke-linecap: round"/>
     </g>
     <g id="text_10">
      <!-- 720 -->
      <g style="fill: #262626" transform="translate(218.668562 537.54543)rotate(-45)scale(0.088 -0.088)">
       <defs>
        <path id="DejaVuSans-37" d="M 525 4666 
L 3525 4666 
L 3525 4397 
L 1831 0 
L 1172 0 
L 2766 4134 
L 525 4134 
L 525 4666 
z
" transform="scale(0.015625)"/>
       </defs>
       <use xlink:href="#DejaVuSans-37"/>
       <use xlink:href="#DejaVuSans-32" x="63.623047"/>
       <use xlink:href="#DejaVuSans-30" x="127.246094"/>
      </g>
     </g>
    </g>
    <g id="xtick_11">
     <g id="line2d_11">
      <path d="M 239.916763 512.64 
L 239.916763 69.12 
" clip-path="url(#p3e01012238)" style="fill: none; stroke: #cccccc; stroke-width: 0.8; stroke-linecap: round"/>
     </g>
     <g id="text_11">
      <!-- 800 -->
      <g style="fill: #262626" transform="translate(235.695159 537.54543)rotate(-45)scale(0.088 -0.088)">
       <use xlink:href="#DejaVuSans-38"/>
       <use xlink:href="#DejaVuSans-30" x="63.623047"/>
       <use xlink:href="#DejaVuSans-30" x="127.246094"/>
      </g>
     </g>
    </g>
    <g id="xtick_12">
     <g id="line2d_12">
      <path d="M 256.94336 512.64 
L 256.94336 69.12 
" clip-path="url(#p3e01012238)" style="fill: none; stroke: #cccccc; stroke-width: 0.8; stroke-linecap: round"/>
     </g>
     <g id="text_12">
      <!-- 880 -->
      <g style="fill: #262626" transform="translate(252.721755 537.54543)rotate(-45)scale(0.088 -0.088)">
       <use xlink:href="#DejaVuSans-38"/>
       <use xlink:href="#DejaVuSans-38" x="63.623047"/>
       <use xlink:href="#DejaVuSans-30" x="127.246094"/>
      </g>
     </g>
    </g>
    <g id="xtick_13">
     <g id="line2d_13">
      <path d="M 273.969956 512.64 
L 273.969956 69.12 
" clip-path="url(#p3e01012238)" style="fill: none; stroke: #cccccc; stroke-width: 0.8; stroke-linecap: round"/>
     </g>
     <g id="text_13">
      <!-- 960 -->
      <g style="fill: #262626" transform="translate(269.748352 537.54543)rotate(-45)scale(0.088 -0.088)">
       <defs>
        <path id="DejaVuSans-39" d="M 703 97 
L 703 672 
Q 941 559 1184 500 
Q 1428 441 1663 441 
Q 2288 441 2617 861 
Q 2947 1281 2994 2138 
Q 2813 1869 2534 1725 
Q 2256 1581 1919 1581 
Q 1219 1581 811 2004 
Q 403 2428 403 3163 
Q 403 3881 828 4315 
Q 1253 4750 1959 4750 
Q 2769 4750 3195 4129 
Q 3622 3509 3622 2328 
Q 3622 1225 3098 567 
Q 2575 -91 1691 -91 
Q 1453 -91 1209 -44 
Q 966 3 703 97 
z
M 1959 2075 
Q 2384 2075 2632 2365 
Q 2881 2656 2881 3163 
Q 2881 3666 2632 3958 
Q 2384 4250 1959 4250 
Q 1534 4250 1286 3958 
Q 1038 3666 1038 3163 
Q 1038 2656 1286 2365 
Q 1534 2075 1959 2075 
z
" transform="scale(0.015625)"/>
       </defs>
       <use xlink:href="#DejaVuSans-39"/>
       <use xlink:href="#DejaVuSans-36" x="63.623047"/>
       <use xlink:href="#DejaVuSans-30" x="127.246094"/>
      </g>
     </g>
    </g>
    <g id="xtick_14">
     <g id="line2d_14">
      <path d="M 290.996553 512.64 
L 290.996553 69.12 
" clip-path="url(#p3e01012238)" style="fill: none; stroke: #cccccc; stroke-width: 0.8; stroke-linecap: round"/>
     </g>
     <g id="text_14">
      <!-- 1040 -->
      <g style="fill: #262626" transform="translate(284.795404 541.504521)rotate(-45)scale(0.088 -0.088)">
       <use xlink:href="#DejaVuSans-31"/>
       <use xlink:href="#DejaVuSans-30" x="63.623047"/>
       <use xlink:href="#DejaVuSans-34" x="127.246094"/>
       <use xlink:href="#DejaVuSans-30" x="190.869141"/>
      </g>
     </g>
    </g>
    <g id="xtick_15">
     <g id="line2d_15">
      <path d="M 308.02315 512.64 
L 308.02315 69.12 
" clip-path="url(#p3e01012238)" style="fill: none; stroke: #cccccc; stroke-width: 0.8; stroke-linecap: round"/>
     </g>
     <g id="text_15">
      <!-- 1120 -->
      <g style="fill: #262626" transform="translate(301.822 541.504521)rotate(-45)scale(0.088 -0.088)">
       <use xlink:href="#DejaVuSans-31"/>
       <use xlink:href="#DejaVuSans-31" x="63.623047"/>
       <use xlink:href="#DejaVuSans-32" x="127.246094"/>
       <use xlink:href="#DejaVuSans-30" x="190.869141"/>
      </g>
     </g>
    </g>
    <g id="xtick_16">
     <g id="line2d_16">
      <path d="M 325.049747 512.64 
L 325.049747 69.12 
" clip-path="url(#p3e01012238)" style="fill: none; stroke: #cccccc; stroke-width: 0.8; stroke-linecap: round"/>
     </g>
     <g id="text_16">
      <!-- 1200 -->
      <g style="fill: #262626" transform="translate(318.848597 541.504521)rotate(-45)scale(0.088 -0.088)">
       <use xlink:href="#DejaVuSans-31"/>
       <use xlink:href="#DejaVuSans-32" x="63.623047"/>
       <use xlink:href="#DejaVuSans-30" x="127.246094"/>
       <use xlink:href="#DejaVuSans-30" x="190.869141"/>
      </g>
     </g>
    </g>
    <g id="xtick_17">
     <g id="line2d_17">
      <path d="M 342.076343 512.64 
L 342.076343 69.12 
" clip-path="url(#p3e01012238)" style="fill: none; stroke: #cccccc; stroke-width: 0.8; stroke-linecap: round"/>
     </g>
     <g id="text_17">
      <!-- 1280 -->
      <g style="fill: #262626" transform="translate(335.875194 541.504521)rotate(-45)scale(0.088 -0.088)">
       <use xlink:href="#DejaVuSans-31"/>
       <use xlink:href="#DejaVuSans-32" x="63.623047"/>
       <use xlink:href="#DejaVuSans-38" x="127.246094"/>
       <use xlink:href="#DejaVuSans-30" x="190.869141"/>
      </g>
     </g>
    </g>
    <g id="xtick_18">
     <g id="line2d_18">
      <path d="M 359.10294 512.64 
L 359.10294 69.12 
" clip-path="url(#p3e01012238)" style="fill: none; stroke: #cccccc; stroke-width: 0.8; stroke-linecap: round"/>
     </g>
     <g id="text_18">
      <!-- 1360 -->
      <g style="fill: #262626" transform="translate(352.901791 541.504521)rotate(-45)scale(0.088 -0.088)">
       <use xlink:href="#DejaVuSans-31"/>
       <use xlink:href="#DejaVuSans-33" x="63.623047"/>
       <use xlink:href="#DejaVuSans-36" x="127.246094"/>
       <use xlink:href="#DejaVuSans-30" x="190.869141"/>
      </g>
     </g>
    </g>
    <g id="xtick_19">
     <g id="line2d_19">
      <path d="M 376.129537 512.64 
L 376.129537 69.12 
" clip-path="url(#p3e01012238)" style="fill: none; stroke: #cccccc; stroke-width: 0.8; stroke-linecap: round"/>
     </g>
     <g id="text_19">
      <!-- 1440 -->
      <g style="fill: #262626" transform="translate(369.928387 541.504521)rotate(-45)scale(0.088 -0.088)">
       <use xlink:href="#DejaVuSans-31"/>
       <use xlink:href="#DejaVuSans-34" x="63.623047"/>
       <use xlink:href="#DejaVuSans-34" x="127.246094"/>
       <use xlink:href="#DejaVuSans-30" x="190.869141"/>
      </g>
     </g>
    </g>
    <g id="text_20">
     <!-- Time (Minutes) -->
     <g style="fill: #262626" transform="translate(186.87375 554.093115)scale(0.096 -0.096)">
      <defs>
       <path id="DejaVuSans-54" d="M -19 4666 
L 3928 4666 
L 3928 4134 
L 2272 4134 
L 2272 0 
L 1638 0 
L 1638 4134 
L -19 4134 
L -19 4666 
z
" transform="scale(0.015625)"/>
       <path id="DejaVuSans-69" d="M 603 3500 
L 1178 3500 
L 1178 0 
L 603 0 
L 603 3500 
z
M 603 4863 
L 1178 4863 
L 1178 4134 
L 603 4134 
L 603 4863 
z
" transform="scale(0.015625)"/>
       <path id="DejaVuSans-6d" d="M 3328 2828 
Q 3544 3216 3844 3400 
Q 4144 3584 4550 3584 
Q 5097 3584 5394 3201 
Q 5691 2819 5691 2113 
L 5691 0 
L 5113 0 
L 5113 2094 
Q 5113 2597 4934 2840 
Q 4756 3084 4391 3084 
Q 3944 3084 3684 2787 
Q 3425 2491 3425 1978 
L 3425 0 
L 2847 0 
L 2847 2094 
Q 2847 2600 2669 2842 
Q 2491 3084 2119 3084 
Q 1678 3084 1418 2786 
Q 1159 2488 1159 1978 
L 1159 0 
L 581 0 
L 581 3500 
L 1159 3500 
L 1159 2956 
Q 1356 3278 1631 3431 
Q 1906 3584 2284 3584 
Q 2666 3584 2933 3390 
Q 3200 3197 3328 2828 
z
" transform="scale(0.015625)"/>
       <path id="DejaVuSans-65" d="M 3597 1894 
L 3597 1613 
L 953 1613 
Q 991 1019 1311 708 
Q 1631 397 2203 397 
Q 2534 397 2845 478 
Q 3156 559 3463 722 
L 3463 178 
Q 3153 47 2828 -22 
Q 2503 -91 2169 -91 
Q 1331 -91 842 396 
Q 353 884 353 1716 
Q 353 2575 817 3079 
Q 1281 3584 2069 3584 
Q 2775 3584 3186 3129 
Q 3597 2675 3597 1894 
z
M 3022 2063 
Q 3016 2534 2758 2815 
Q 2500 3097 2075 3097 
Q 1594 3097 1305 2825 
Q 1016 2553 972 2059 
L 3022 2063 
z
" transform="scale(0.015625)"/>
       <path id="DejaVuSans-20" transform="scale(0.015625)"/>
       <path id="DejaVuSans-28" d="M 1984 4856 
Q 1566 4138 1362 3434 
Q 1159 2731 1159 2009 
Q 1159 1288 1364 580 
Q 1569 -128 1984 -844 
L 1484 -844 
Q 1016 -109 783 600 
Q 550 1309 550 2009 
Q 550 2706 781 3412 
Q 1013 4119 1484 4856 
L 1984 4856 
z
" transform="scale(0.015625)"/>
       <path id="DejaVuSans-4d" d="M 628 4666 
L 1569 4666 
L 2759 1491 
L 3956 4666 
L 4897 4666 
L 4897 0 
L 4281 0 
L 4281 4097 
L 3078 897 
L 2444 897 
L 1241 4097 
L 1241 0 
L 628 0 
L 628 4666 
z
" transform="scale(0.015625)"/>
       <path id="DejaVuSans-6e" d="M 3513 2113 
L 3513 0 
L 2938 0 
L 2938 2094 
Q 2938 2591 2744 2837 
Q 2550 3084 2163 3084 
Q 1697 3084 1428 2787 
Q 1159 2491 1159 1978 
L 1159 0 
L 581 0 
L 581 3500 
L 1159 3500 
L 1159 2956 
Q 1366 3272 1645 3428 
Q 1925 3584 2291 3584 
Q 2894 3584 3203 3211 
Q 3513 2838 3513 2113 
z
" transform="scale(0.015625)"/>
       <path id="DejaVuSans-75" d="M 544 1381 
L 544 3500 
L 1119 3500 
L 1119 1403 
Q 1119 906 1312 657 
Q 1506 409 1894 409 
Q 2359 409 2629 706 
Q 2900 1003 2900 1516 
L 2900 3500 
L 3475 3500 
L 3475 0 
L 2900 0 
L 2900 538 
Q 2691 219 2414 64 
Q 2138 -91 1772 -91 
Q 1169 -91 856 284 
Q 544 659 544 1381 
z
M 1991 3584 
L 1991 3584 
z
" transform="scale(0.015625)"/>
       <path id="DejaVuSans-74" d="M 1172 4494 
L 1172 3500 
L 2356 3500 
L 2356 3053 
L 1172 3053 
L 1172 1153 
Q 1172 725 1289 603 
Q 1406 481 1766 481 
L 2356 481 
L 2356 0 
L 1766 0 
Q 1100 0 847 248 
Q 594 497 594 1153 
L 594 3053 
L 172 3053 
L 172 3500 
L 594 3500 
L 594 4494 
L 1172 4494 
z
" transform="scale(0.015625)"/>
       <path id="DejaVuSans-73" d="M 2834 3397 
L 2834 2853 
Q 2591 2978 2328 3040 
Q 2066 3103 1784 3103 
Q 1356 3103 1142 2972 
Q 928 2841 928 2578 
Q 928 2378 1081 2264 
Q 1234 2150 1697 2047 
L 1894 2003 
Q 2506 1872 2764 1633 
Q 3022 1394 3022 966 
Q 3022 478 2636 193 
Q 2250 -91 1575 -91 
Q 1294 -91 989 -36 
Q 684 19 347 128 
L 347 722 
Q 666 556 975 473 
Q 1284 391 1588 391 
Q 1994 391 2212 530 
Q 2431 669 2431 922 
Q 2431 1156 2273 1281 
Q 2116 1406 1581 1522 
L 1381 1569 
Q 847 1681 609 1914 
Q 372 2147 372 2553 
Q 372 3047 722 3315 
Q 1072 3584 1716 3584 
Q 2034 3584 2315 3537 
Q 2597 3491 2834 3397 
z
" transform="scale(0.015625)"/>
       <path id="DejaVuSans-29" d="M 513 4856 
L 1013 4856 
Q 1481 4119 1714 3412 
Q 1947 2706 1947 2009 
Q 1947 1309 1714 600 
Q 1481 -109 1013 -844 
L 513 -844 
Q 928 -128 1133 580 
Q 1338 1288 1338 2009 
Q 1338 2731 1133 3434 
Q 928 4138 513 4856 
z
" transform="scale(0.015625)"/>
      </defs>
      <use xlink:href="#DejaVuSans-54"/>
      <use xlink:href="#DejaVuSans-69" x="57.958984"/>
      <use xlink:href="#DejaVuSans-6d" x="85.742188"/>
      <use xlink:href="#DejaVuSans-65" x="183.154297"/>
      <use xlink:href="#DejaVuSans-20" x="244.677734"/>
      <use xlink:href="#DejaVuSans-28" x="276.464844"/>
      <use xlink:href="#DejaVuSans-4d" x="315.478516"/>
      <use xlink:href="#DejaVuSans-69" x="401.757812"/>
      <use xlink:href="#DejaVuSans-6e" x="429.541016"/>
      <use xlink:href="#DejaVuSans-75" x="492.919922"/>
      <use xlink:href="#DejaVuSans-74" x="556.298828"/>
      <use xlink:href="#DejaVuSans-65" x="595.507812"/>
      <use xlink:href="#DejaVuSans-73" x="657.03125"/>
      <use xlink:href="#DejaVuSans-29" x="709.130859"/>
     </g>
    </g>
   </g>
   <g id="matplotlib.axis_2">
    <g id="ytick_1">
     <g id="line2d_20">
      <path d="M 54.3375 492.48 
L 391.23 492.48 
" clip-path="url(#p3e01012238)" style="fill: none; stroke: #cccccc; stroke-width: 0.8; stroke-linecap: round"/>
     </g>
     <g id="text_21">
      <!-- 0 -->
      <g style="fill: #262626" transform="translate(40.4385 495.823312)scale(0.088 -0.088)">
       <use xlink:href="#DejaVuSans-30"/>
      </g>
     </g>
    </g>
    <g id="ytick_2">
     <g id="line2d_21">
      <path d="M 54.3375 433.70449 
L 391.23 433.70449 
" clip-path="url(#p3e01012238)" style="fill: none; stroke: #cccccc; stroke-width: 0.8; stroke-linecap: round"/>
     </g>
     <g id="text_22">
      <!-- 100 -->
      <g style="fill: #262626" transform="translate(29.2405 437.047802)scale(0.088 -0.088)">
       <use xlink:href="#DejaVuSans-31"/>
       <use xlink:href="#DejaVuSans-30" x="63.623047"/>
       <use xlink:href="#DejaVuSans-30" x="127.246094"/>
      </g>
     </g>
    </g>
    <g id="ytick_3">
     <g id="line2d_22">
      <path d="M 54.3375 374.92898 
L 391.23 374.92898 
" clip-path="url(#p3e01012238)" style="fill: none; stroke: #cccccc; stroke-width: 0.8; stroke-linecap: round"/>
     </g>
     <g id="text_23">
      <!-- 200 -->
      <g style="fill: #262626" transform="translate(29.2405 378.272292)scale(0.088 -0.088)">
       <use xlink:href="#DejaVuSans-32"/>
       <use xlink:href="#DejaVuSans-30" x="63.623047"/>
       <use xlink:href="#DejaVuSans-30" x="127.246094"/>
      </g>
     </g>
    </g>
    <g id="ytick_4">
     <g id="line2d_23">
      <path d="M 54.3375 316.153469 
L 391.23 316.153469 
" clip-path="url(#p3e01012238)" style="fill: none; stroke: #cccccc; stroke-width: 0.8; stroke-linecap: round"/>
     </g>
     <g id="text_24">
      <!-- 300 -->
      <g style="fill: #262626" transform="translate(29.2405 319.496782)scale(0.088 -0.088)">
       <use xlink:href="#DejaVuSans-33"/>
       <use xlink:href="#DejaVuSans-30" x="63.623047"/>
       <use xlink:href="#DejaVuSans-30" x="127.246094"/>
      </g>
     </g>
    </g>
    <g id="ytick_5">
     <g id="line2d_24">
      <path d="M 54.3375 257.377959 
L 391.23 257.377959 
" clip-path="url(#p3e01012238)" style="fill: none; stroke: #cccccc; stroke-width: 0.8; stroke-linecap: round"/>
     </g>
     <g id="text_25">
      <!-- 400 -->
      <g style="fill: #262626" transform="translate(29.2405 260.721272)scale(0.088 -0.088)">
       <use xlink:href="#DejaVuSans-34"/>
       <use xlink:href="#DejaVuSans-30" x="63.623047"/>
       <use xlink:href="#DejaVuSans-30" x="127.246094"/>
      </g>
     </g>
    </g>
    <g id="ytick_6">
     <g id="line2d_25">
      <path d="M 54.3375 198.602449 
L 391.23 198.602449 
" clip-path="url(#p3e01012238)" style="fill: none; stroke: #cccccc; stroke-width: 0.8; stroke-linecap: round"/>
     </g>
     <g id="text_26">
      <!-- 500 -->
      <g style="fill: #262626" transform="translate(29.2405 201.945761)scale(0.088 -0.088)">
       <use xlink:href="#DejaVuSans-35"/>
       <use xlink:href="#DejaVuSans-30" x="63.623047"/>
       <use xlink:href="#DejaVuSans-30" x="127.246094"/>
      </g>
     </g>
    </g>
    <g id="ytick_7">
     <g id="line2d_26">
      <path d="M 54.3375 139.826939 
L 391.23 139.826939 
" clip-path="url(#p3e01012238)" style="fill: none; stroke: #cccccc; stroke-width: 0.8; stroke-linecap: round"/>
     </g>
     <g id="text_27">
      <!-- 600 -->
      <g style="fill: #262626" transform="translate(29.2405 143.170251)scale(0.088 -0.088)">
       <use xlink:href="#DejaVuSans-36"/>
       <use xlink:href="#DejaVuSans-30" x="63.623047"/>
       <use xlink:href="#DejaVuSans-30" x="127.246094"/>
      </g>
     </g>
    </g>
    <g id="text_28">
     <!-- Edge Coverages -->
     <g style="fill: #262626" transform="translate(23.244 329.98575)rotate(-90)scale(0.096 -0.096)">
      <defs>
       <path id="DejaVuSans-45" d="M 628 4666 
L 3578 4666 
L 3578 4134 
L 1259 4134 
L 1259 2753 
L 3481 2753 
L 3481 2222 
L 1259 2222 
L 1259 531 
L 3634 531 
L 3634 0 
L 628 0 
L 628 4666 
z
" transform="scale(0.015625)"/>
       <path id="DejaVuSans-64" d="M 2906 2969 
L 2906 4863 
L 3481 4863 
L 3481 0 
L 2906 0 
L 2906 525 
Q 2725 213 2448 61 
Q 2172 -91 1784 -91 
Q 1150 -91 751 415 
Q 353 922 353 1747 
Q 353 2572 751 3078 
Q 1150 3584 1784 3584 
Q 2172 3584 2448 3432 
Q 2725 3281 2906 2969 
z
M 947 1747 
Q 947 1113 1208 752 
Q 1469 391 1925 391 
Q 2381 391 2643 752 
Q 2906 1113 2906 1747 
Q 2906 2381 2643 2742 
Q 2381 3103 1925 3103 
Q 1469 3103 1208 2742 
Q 947 2381 947 1747 
z
" transform="scale(0.015625)"/>
       <path id="DejaVuSans-67" d="M 2906 1791 
Q 2906 2416 2648 2759 
Q 2391 3103 1925 3103 
Q 1463 3103 1205 2759 
Q 947 2416 947 1791 
Q 947 1169 1205 825 
Q 1463 481 1925 481 
Q 2391 481 2648 825 
Q 2906 1169 2906 1791 
z
M 3481 434 
Q 3481 -459 3084 -895 
Q 2688 -1331 1869 -1331 
Q 1566 -1331 1297 -1286 
Q 1028 -1241 775 -1147 
L 775 -588 
Q 1028 -725 1275 -790 
Q 1522 -856 1778 -856 
Q 2344 -856 2625 -561 
Q 2906 -266 2906 331 
L 2906 616 
Q 2728 306 2450 153 
Q 2172 0 1784 0 
Q 1141 0 747 490 
Q 353 981 353 1791 
Q 353 2603 747 3093 
Q 1141 3584 1784 3584 
Q 2172 3584 2450 3431 
Q 2728 3278 2906 2969 
L 2906 3500 
L 3481 3500 
L 3481 434 
z
" transform="scale(0.015625)"/>
       <path id="DejaVuSans-43" d="M 4122 4306 
L 4122 3641 
Q 3803 3938 3442 4084 
Q 3081 4231 2675 4231 
Q 1875 4231 1450 3742 
Q 1025 3253 1025 2328 
Q 1025 1406 1450 917 
Q 1875 428 2675 428 
Q 3081 428 3442 575 
Q 3803 722 4122 1019 
L 4122 359 
Q 3791 134 3420 21 
Q 3050 -91 2638 -91 
Q 1578 -91 968 557 
Q 359 1206 359 2328 
Q 359 3453 968 4101 
Q 1578 4750 2638 4750 
Q 3056 4750 3426 4639 
Q 3797 4528 4122 4306 
z
" transform="scale(0.015625)"/>
       <path id="DejaVuSans-6f" d="M 1959 3097 
Q 1497 3097 1228 2736 
Q 959 2375 959 1747 
Q 959 1119 1226 758 
Q 1494 397 1959 397 
Q 2419 397 2687 759 
Q 2956 1122 2956 1747 
Q 2956 2369 2687 2733 
Q 2419 3097 1959 3097 
z
M 1959 3584 
Q 2709 3584 3137 3096 
Q 3566 2609 3566 1747 
Q 3566 888 3137 398 
Q 2709 -91 1959 -91 
Q 1206 -91 779 398 
Q 353 888 353 1747 
Q 353 2609 779 3096 
Q 1206 3584 1959 3584 
z
" transform="scale(0.015625)"/>
       <path id="DejaVuSans-76" d="M 191 3500 
L 800 3500 
L 1894 563 
L 2988 3500 
L 3597 3500 
L 2284 0 
L 1503 0 
L 191 3500 
z
" transform="scale(0.015625)"/>
       <path id="DejaVuSans-72" d="M 2631 2963 
Q 2534 3019 2420 3045 
Q 2306 3072 2169 3072 
Q 1681 3072 1420 2755 
Q 1159 2438 1159 1844 
L 1159 0 
L 581 0 
L 581 3500 
L 1159 3500 
L 1159 2956 
Q 1341 3275 1631 3429 
Q 1922 3584 2338 3584 
Q 2397 3584 2469 3576 
Q 2541 3569 2628 3553 
L 2631 2963 
z
" transform="scale(0.015625)"/>
       <path id="DejaVuSans-61" d="M 2194 1759 
Q 1497 1759 1228 1600 
Q 959 1441 959 1056 
Q 959 750 1161 570 
Q 1363 391 1709 391 
Q 2188 391 2477 730 
Q 2766 1069 2766 1631 
L 2766 1759 
L 2194 1759 
z
M 3341 1997 
L 3341 0 
L 2766 0 
L 2766 531 
Q 2569 213 2275 61 
Q 1981 -91 1556 -91 
Q 1019 -91 701 211 
Q 384 513 384 1019 
Q 384 1609 779 1909 
Q 1175 2209 1959 2209 
L 2766 2209 
L 2766 2266 
Q 2766 2663 2505 2880 
Q 2244 3097 1772 3097 
Q 1472 3097 1187 3025 
Q 903 2953 641 2809 
L 641 3341 
Q 956 3463 1253 3523 
Q 1550 3584 1831 3584 
Q 2591 3584 2966 3190 
Q 3341 2797 3341 1997 
z
" transform="scale(0.015625)"/>
      </defs>
      <use xlink:href="#DejaVuSans-45"/>
      <use xlink:href="#DejaVuSans-64" x="63.183594"/>
      <use xlink:href="#DejaVuSans-67" x="126.660156"/>
      <use xlink:href="#DejaVuSans-65" x="190.136719"/>
      <use xlink:href="#DejaVuSans-20" x="251.660156"/>
      <use xlink:href="#DejaVuSans-43" x="283.447266"/>
      <use xlink:href="#DejaVuSans-6f" x="353.271484"/>
      <use xlink:href="#DejaVuSans-76" x="414.453125"/>
      <use xlink:href="#DejaVuSans-65" x="473.632812"/>
      <use xlink:href="#DejaVuSans-72" x="535.15625"/>
      <use xlink:href="#DejaVuSans-61" x="576.269531"/>
      <use xlink:href="#DejaVuSans-67" x="637.548828"/>
      <use xlink:href="#DejaVuSans-65" x="701.025391"/>
      <use xlink:href="#DejaVuSans-73" x="762.548828"/>
     </g>
    </g>
   </g>
   <g id="PolyCollection_1">
    <defs>
     <path id="m95b2d2eca2" d="M 69.650795 -105.854694 
L 69.650795 -83.52 
L 69.650795 -105.854694 
L 69.650795 -105.854694 
z
" style="stroke: #db5f57; stroke-opacity: 0.2; stroke-width: 0.8"/>
    </defs>
    <g clip-path="url(#p3e01012238)">
     <use xlink:href="#m95b2d2eca2" x="0" y="576" style="fill: #db5f57; fill-opacity: 0.2; stroke: #db5f57; stroke-opacity: 0.2; stroke-width: 0.8"/>
    </g>
   </g>
   <g id="PolyCollection_2">
    <defs>
     <path id="m232bc15e4f" d="M 69.650795 -102.915918 
L 69.650795 -83.52 
L 69.650795 -102.915918 
L 69.650795 -102.915918 
z
" style="stroke: #b9db57; stroke-opacity: 0.2; stroke-width: 0.8"/>
    </defs>
    <g clip-path="url(#p3e01012238)">
     <use xlink:href="#m232bc15e4f" x="0" y="576" style="fill: #b9db57; fill-opacity: 0.2; stroke: #b9db57; stroke-opacity: 0.2; stroke-width: 0.8"/>
    </g>
   </g>
   <g id="PolyCollection_3">
    <defs>
     <path id="m4154f24fc7" d="M 69.650795 -94.687347 
L 69.650795 -83.52 
L 69.650795 -94.687347 
L 69.650795 -94.687347 
z
" style="stroke: #57db94; stroke-opacity: 0.2; stroke-width: 0.8"/>
    </defs>
    <g clip-path="url(#p3e01012238)">
     <use xlink:href="#m4154f24fc7" x="0" y="576" style="fill: #57db94; fill-opacity: 0.2; stroke: #57db94; stroke-opacity: 0.2; stroke-width: 0.8"/>
    </g>
   </g>
   <g id="PolyCollection_4">
    <defs>
     <path id="ma222de85c6" d="M 69.650795 -99.977143 
L 69.650795 -83.52 
L 69.650795 -99.977143 
L 69.650795 -99.977143 
z
" style="stroke: #5784db; stroke-opacity: 0.2; stroke-width: 0.8"/>
    </defs>
    <g clip-path="url(#p3e01012238)">
     <use xlink:href="#ma222de85c6" x="0" y="576" style="fill: #5784db; fill-opacity: 0.2; stroke: #5784db; stroke-opacity: 0.2; stroke-width: 0.8"/>
    </g>
   </g>
   <g id="PolyCollection_5">
    <defs>
     <path id="mf69625ef35" d="M 69.650795 -107.617959 
L 69.650795 -83.52 
L 69.650795 -107.617959 
L 69.650795 -107.617959 
z
" style="stroke: #c957db; stroke-opacity: 0.2; stroke-width: 0.8"/>
    </defs>
    <g clip-path="url(#p3e01012238)">
     <use xlink:href="#mf69625ef35" x="0" y="576" style="fill: #c957db; fill-opacity: 0.2; stroke: #c957db; stroke-opacity: 0.2; stroke-width: 0.8"/>
    </g>
   </g>
   <g id="line2d_27">
    <path d="M 69.650795 481.312653 
L 70.07646 448.398367 
L 70.289293 446.635102 
L 70.502125 446.635102 
L 70.92779 444.871837 
L 71.140623 444.284082 
L 71.353455 444.284082 
L 71.77912 443.108571 
L 71.991953 443.108571 
L 72.843282 427.826939 
L 73.056115 426.063673 
L 73.48178 419.010612 
L 73.694612 416.071837 
L 75.184439 408.43102 
L 75.397272 408.43102 
L 75.822937 405.492245 
L 76.248602 403.72898 
L 76.461434 403.72898 
L 76.674267 403.141224 
L 77.099932 403.141224 
L 77.312764 386.096327 
L 77.525596 384.333061 
L 77.738429 384.333061 
L 78.164094 383.157551 
L 79.015424 379.043265 
L 80.079586 379.043265 
L 80.292418 378.45551 
L 80.505251 378.45551 
L 80.718083 377.867755 
L 81.569413 377.867755 
L 81.782246 377.28 
L 81.995078 377.28 
L 82.207911 376.692245 
L 82.420743 376.692245 
L 82.846408 375.516735 
L 83.05924 375.516735 
L 83.272073 374.92898 
L 83.91057 374.92898 
L 84.123403 374.341224 
L 84.336235 373.165714 
L 85.61323 373.165714 
L 85.826062 372.577959 
L 86.038895 372.577959 
L 86.251727 371.990204 
L 87.528722 371.990204 
L 87.741555 371.402449 
L 88.805717 371.402449 
L 89.018549 365.524898 
L 89.231382 363.173878 
L 89.657047 363.173878 
L 89.869879 362.586122 
L 90.508376 362.586122 
L 90.721209 361.998367 
L 91.146874 361.998367 
L 91.359706 361.410612 
L 91.785371 361.410612 
L 91.998204 333.198367 
L 93.062366 333.198367 
L 93.275198 332.610612 
L 104.129654 332.610612 
L 104.342486 322.03102 
L 104.980984 322.03102 
L 105.406649 320.85551 
L 106.470811 320.85551 
L 106.683643 320.267755 
L 107.109308 320.267755 
L 107.322141 319.68 
L 108.386303 319.68 
L 108.811968 316.153469 
L 109.0248 315.565714 
L 109.237633 313.802449 
L 109.450465 313.802449 
L 109.663298 313.214694 
L 110.301795 313.214694 
L 110.514628 312.626939 
L 111.153125 312.626939 
L 111.57879 311.451429 
L 112.217287 308.512653 
L 116.261104 308.512653 
L 116.473937 307.924898 
L 119.027926 307.924898 
L 119.240758 307.337143 
L 121.794748 307.337143 
L 122.00758 302.635102 
L 130.095214 302.635102 
L 130.308046 296.169796 
L 130.520879 296.169796 
L 130.733711 294.406531 
L 131.159376 294.406531 
L 131.372209 293.818776 
L 131.797874 293.818776 
L 132.010706 293.23102 
L 133.074868 293.23102 
L 133.287701 292.643265 
L 133.713366 292.643265 
L 133.926198 292.05551 
L 134.564696 292.05551 
L 134.777528 291.467755 
L 136.267355 291.467755 
L 136.480188 290.88 
L 138.182847 290.88 
L 138.39568 290.292245 
L 140.949669 290.292245 
L 141.162502 289.70449 
L 141.375334 279.712653 
L 141.588167 279.124898 
L 143.503659 279.124898 
L 143.716491 278.537143 
L 145.419151 278.537143 
L 145.631983 277.949388 
L 148.611638 277.949388 
L 149.037303 276.186122 
L 154.358114 276.186122 
L 154.570947 271.484082 
L 159.040428 271.484082 
L 159.253261 267.957551 
L 159.466093 267.369796 
L 160.955921 267.369796 
L 161.168753 266.782041 
L 161.594418 266.782041 
L 161.80725 266.194286 
L 162.871413 266.194286 
L 163.084245 265.606531 
L 169.894884 265.606531 
L 170.107716 265.018776 
L 170.746214 265.018776 
L 170.959046 264.43102 
L 171.597544 264.43102 
L 171.810376 263.843265 
L 174.79003 263.843265 
L 175.002863 259.141224 
L 178.621015 259.141224 
L 178.833847 256.202449 
L 184.793156 256.202449 
L 185.005988 254.439184 
L 188.198475 254.439184 
L 188.411308 253.851429 
L 195.009114 253.851429 
L 195.221947 249.737143 
L 198.201601 249.737143 
L 198.414433 249.149388 
L 199.052931 249.149388 
L 199.478596 247.973878 
L 199.691428 245.622857 
L 201.181255 245.622857 
L 201.60692 243.859592 
L 204.586575 243.859592 
L 204.799407 243.271837 
L 205.225072 243.271837 
L 205.437905 242.684082 
L 208.843224 242.684082 
L 209.056056 235.043265 
L 210.758716 235.043265 
L 211.184381 233.867755 
L 213.312706 233.867755 
L 213.525538 233.28 
L 215.653863 233.28 
L 215.866695 230.92898 
L 216.930857 230.92898 
L 217.356522 225.051429 
L 217.782187 222.700408 
L 219.272014 222.700408 
L 219.484847 217.998367 
L 222.464501 217.998367 
L 222.677334 217.410612 
L 225.656988 217.410612 
L 226.082653 209.769796 
L 228.849475 209.769796 
L 229.062308 200.953469 
L 229.487972 196.839184 
L 232.254794 196.839184 
L 232.893292 193.900408 
L 240.980925 193.900408 
L 241.193758 193.312653 
L 243.322082 193.312653 
L 243.534915 192.724898 
L 243.747747 169.802449 
L 243.96058 169.214694 
L 246.727402 169.214694 
L 246.940234 168.626939 
L 247.153067 168.626939 
L 247.365899 165.100408 
L 249.919889 165.100408 
L 250.132721 164.512653 
L 252.686711 164.512653 
L 252.899543 163.924898 
L 253.112375 159.222857 
L 266.095155 159.222857 
L 266.307988 158.635102 
L 268.010648 158.635102 
L 268.22348 158.047347 
L 268.436313 158.047347 
L 268.649145 157.459592 
L 270.351805 157.459592 
L 270.564637 156.284082 
L 271.415967 156.284082 
L 271.628799 155.696327 
L 274.182789 155.696327 
L 274.395621 154.520816 
L 276.311114 154.520816 
L 276.736778 153.345306 
L 277.588108 153.345306 
L 277.800941 152.757551 
L 286.527072 152.757551 
L 286.739904 152.169796 
L 292.273548 152.169796 
L 292.699213 150.994286 
L 293.33771 150.994286 
L 293.763375 143.941224 
L 294.18904 142.765714 
L 295.253202 142.765714 
L 295.466035 142.177959 
L 297.807192 142.177959 
L 298.020024 141.590204 
L 298.232857 141.590204 
L 298.445689 141.002449 
L 302.489506 141.002449 
L 302.702339 140.414694 
L 303.979333 140.414694 
L 304.192166 139.826939 
L 311.002804 139.826939 
L 311.215637 139.239184 
L 311.428469 138.063673 
L 311.854134 138.063673 
L 312.066967 136.888163 
L 322.070092 136.888163 
L 322.282925 135.124898 
L 323.55992 135.124898 
L 323.772752 129.835102 
L 324.198417 126.308571 
L 324.836914 126.308571 
L 325.049747 125.720816 
L 325.475412 125.720816 
L 325.901077 122.782041 
L 326.113909 122.782041 
L 326.326742 121.018776 
L 326.539574 121.018776 
L 326.752406 120.43102 
L 327.178071 120.43102 
L 327.390904 119.843265 
L 328.455066 119.843265 
L 328.880731 118.667755 
L 337.181197 118.667755 
L 337.394029 116.90449 
L 337.819694 116.90449 
L 338.032527 116.316735 
L 338.245359 116.316735 
L 338.458192 115.72898 
L 338.671024 115.72898 
L 338.883857 114.553469 
L 341.012181 114.553469 
L 341.225014 113.965714 
L 350.802474 113.965714 
L 351.015307 113.377959 
L 351.228139 113.377959 
L 351.653804 112.202449 
L 353.994961 112.202449 
L 354.207794 111.614694 
L 375.916705 111.614694 
L 375.916705 111.614694 
" clip-path="url(#p3e01012238)" style="fill: none; stroke: #db5f57; stroke-width: 1.2; stroke-linecap: round"/>
   </g>
   <g id="line2d_28">
    <path d="M 69.650795 482.782041 
L 70.07646 450.749388 
L 70.289293 448.986122 
L 71.140623 431.941224 
L 71.353455 425.475918 
L 71.566288 422.537143 
L 71.77912 421.361633 
L 72.204785 417.247347 
L 72.417617 416.659592 
L 73.056115 416.659592 
L 73.268947 414.896327 
L 73.694612 413.720816 
L 73.907445 413.720816 
L 74.120277 399.026939 
L 74.33311 392.561633 
L 75.397272 392.561633 
L 76.035769 389.622857 
L 76.674267 389.622857 
L 76.887099 389.035102 
L 77.525596 385.508571 
L 77.738429 382.569796 
L 78.164094 382.569796 
L 78.376926 377.28 
L 78.802591 377.28 
L 79.228256 376.10449 
L 79.441089 371.990204 
L 79.866754 371.990204 
L 80.079586 371.402449 
L 80.292418 371.402449 
L 80.505251 369.639184 
L 81.143748 367.875918 
L 81.356581 367.875918 
L 81.782246 364.349388 
L 81.995078 363.761633 
L 82.846408 359.647347 
L 83.05924 359.647347 
L 83.272073 359.059592 
L 84.974733 359.059592 
L 85.187565 358.471837 
L 86.46456 358.471837 
L 86.677392 356.708571 
L 86.890225 356.120816 
L 87.103057 356.120816 
L 87.31589 355.533061 
L 88.167219 355.533061 
L 88.380052 354.945306 
L 88.592884 353.769796 
L 89.018549 353.769796 
L 89.231382 352.594286 
L 89.444214 352.594286 
L 89.657047 336.724898 
L 90.295544 336.724898 
L 90.508376 336.137143 
L 91.359706 336.137143 
L 91.572539 333.198367 
L 91.785371 333.198367 
L 91.998204 332.610612 
L 92.423869 332.610612 
L 92.636701 330.847347 
L 93.488031 330.847347 
L 93.700863 330.259592 
L 94.126528 330.259592 
L 94.339361 329.671837 
L 94.552193 329.671837 
L 94.977858 328.496327 
L 95.190691 328.496327 
L 95.403523 327.908571 
L 95.829188 327.908571 
L 96.04202 326.733061 
L 96.89335 326.733061 
L 97.319015 324.969796 
L 99.660172 324.969796 
L 99.873005 323.794286 
L 100.724335 323.794286 
L 100.937167 323.206531 
L 107.534973 323.206531 
L 107.747806 319.68 
L 107.960638 319.68 
L 108.173471 319.092245 
L 110.088963 319.092245 
L 110.301795 318.50449 
L 111.365957 318.50449 
L 111.57879 317.916735 
L 112.004455 317.916735 
L 112.217287 314.390204 
L 112.642952 314.390204 
L 112.855785 312.626939 
L 113.068617 312.626939 
L 113.28145 312.039184 
L 113.494282 312.039184 
L 113.919947 310.863673 
L 118.815094 310.863673 
L 119.027926 309.688163 
L 122.646078 309.688163 
L 122.85891 308.512653 
L 125.838565 308.512653 
L 126.051397 303.810612 
L 127.754057 303.810612 
L 127.966889 301.459592 
L 129.669549 301.459592 
L 129.882381 300.871837 
L 130.733711 300.871837 
L 130.946544 300.284082 
L 131.159376 299.108571 
L 131.372209 295.582041 
L 131.585041 294.994286 
L 133.926198 294.994286 
L 134.139031 293.818776 
L 134.351863 293.818776 
L 134.777528 292.643265 
L 135.84169 292.643265 
L 136.054523 292.05551 
L 136.905853 292.05551 
L 137.118685 291.467755 
L 137.331518 291.467755 
L 137.54435 289.116735 
L 138.182847 289.116735 
L 138.39568 288.52898 
L 138.608512 288.52898 
L 139.034177 287.353469 
L 139.24701 286.177959 
L 139.459842 286.177959 
L 139.672675 285.590204 
L 140.09834 285.590204 
L 140.524004 283.826939 
L 143.929324 283.826939 
L 144.142156 282.651429 
L 144.993486 282.651429 
L 145.206319 282.063673 
L 146.483313 282.063673 
L 146.908978 280.888163 
L 147.121811 280.888163 
L 147.547476 279.712653 
L 148.82447 279.712653 
L 149.037303 279.124898 
L 150.739962 279.124898 
L 150.952795 278.537143 
L 151.165627 278.537143 
L 151.37846 277.949388 
L 154.145282 277.949388 
L 154.358114 277.361633 
L 155.209444 277.361633 
L 155.422277 276.773878 
L 159.040428 276.773878 
L 159.253261 274.422857 
L 159.891758 274.422857 
L 160.104591 272.659592 
L 161.594418 272.659592 
L 161.80725 271.484082 
L 163.084245 271.484082 
L 163.297078 270.896327 
L 163.50991 270.896327 
L 163.722743 270.308571 
L 166.0639 270.308571 
L 166.489564 268.545306 
L 170.320549 268.545306 
L 170.533381 267.369796 
L 170.746214 267.369796 
L 170.959046 265.606531 
L 174.79003 265.606531 
L 175.002863 265.018776 
L 178.833847 265.018776 
L 179.04668 264.43102 
L 180.962172 264.43102 
L 181.175004 261.492245 
L 181.387837 260.90449 
L 182.877664 260.90449 
L 183.090496 260.316735 
L 189.049805 260.316735 
L 189.47547 257.377959 
L 189.901135 257.377959 
L 190.113967 256.790204 
L 191.17813 256.790204 
L 191.390962 256.202449 
L 192.455125 256.202449 
L 192.667957 255.614694 
L 197.775936 255.614694 
L 198.201601 254.439184 
L 198.627266 254.439184 
L 198.840098 253.851429 
L 199.691428 253.851429 
L 199.904261 253.263673 
L 200.329926 253.263673 
L 200.542758 252.675918 
L 202.245418 252.675918 
L 202.45825 252.088163 
L 202.883915 244.447347 
L 206.289234 244.447347 
L 206.502067 243.271837 
L 208.417559 243.271837 
L 208.630391 242.684082 
L 209.481721 242.684082 
L 209.694554 242.096327 
L 211.184381 242.096327 
L 211.397213 240.333061 
L 212.035711 240.333061 
L 212.248543 239.745306 
L 212.674208 239.745306 
L 212.887041 239.157551 
L 217.782187 239.157551 
L 217.99502 230.92898 
L 219.272014 230.92898 
L 219.484847 226.814694 
L 223.741496 226.814694 
L 223.954329 226.226939 
L 224.379993 226.226939 
L 224.592826 225.639184 
L 225.656988 225.639184 
L 225.869821 225.051429 
L 227.57248 225.051429 
L 227.785313 220.349388 
L 228.210978 220.349388 
L 228.42381 216.235102 
L 229.062308 216.235102 
L 229.27514 210.945306 
L 230.12647 210.945306 
L 230.339302 208.006531 
L 232.467627 208.006531 
L 232.680459 207.418776 
L 232.893292 207.418776 
L 233.106124 203.892245 
L 235.872946 203.892245 
L 236.298611 199.777959 
L 237.149941 197.426939 
L 237.575606 194.488163 
L 238.001271 189.198367 
L 238.214103 188.022857 
L 238.426936 185.084082 
L 238.639768 183.908571 
L 239.065433 183.908571 
L 239.703931 182.145306 
L 240.342428 182.145306 
L 240.55526 181.557551 
L 240.980925 179.794286 
L 241.40659 179.794286 
L 241.619423 179.206531 
L 243.322082 179.206531 
L 243.534915 178.03102 
L 244.599077 178.03102 
L 244.81191 174.50449 
L 245.024742 173.916735 
L 245.876072 173.916735 
L 246.301737 172.741224 
L 246.940234 172.741224 
L 247.153067 172.153469 
L 247.791564 172.153469 
L 248.004396 170.977959 
L 249.281391 170.977959 
L 249.494224 170.390204 
L 252.048213 170.390204 
L 252.261046 169.802449 
L 254.176538 169.802449 
L 254.38937 165.100408 
L 267.584983 165.100408 
L 267.797815 164.512653 
L 276.523946 164.512653 
L 276.736778 163.924898 
L 277.588108 163.924898 
L 277.800941 163.337143 
L 281.844757 163.337143 
L 282.05759 162.749388 
L 284.398747 162.749388 
L 284.611579 162.161633 
L 285.888574 162.161633 
L 286.101407 161.573878 
L 296.104532 161.573878 
L 296.317365 154.520816 
L 298.232857 154.520816 
L 298.445689 153.345306 
L 303.766501 153.345306 
L 303.979333 152.757551 
L 304.830663 152.757551 
L 305.043496 152.169796 
L 305.256328 152.169796 
L 305.46916 150.994286 
L 311.428469 150.994286 
L 311.641302 149.23102 
L 312.279799 149.23102 
L 312.492632 148.643265 
L 318.877605 148.643265 
L 319.090438 148.05551 
L 319.941768 148.05551 
L 320.1546 147.467755 
L 321.218762 147.467755 
L 321.431595 146.88 
L 321.85726 146.88 
L 322.070092 146.292245 
L 322.282925 146.292245 
L 322.495757 145.70449 
L 322.70859 145.70449 
L 322.921422 141.590204 
L 323.134255 141.590204 
L 323.347087 141.002449 
L 323.55992 141.002449 
L 323.772752 140.414694 
L 323.985584 140.414694 
L 324.198417 137.475918 
L 324.624082 136.300408 
L 325.262579 136.300408 
L 325.475412 134.537143 
L 325.901077 134.537143 
L 326.113909 133.949388 
L 326.539574 133.949388 
L 326.752406 130.422857 
L 327.603736 130.422857 
L 327.816569 129.835102 
L 329.093563 129.835102 
L 329.306396 128.659592 
L 334.84004 128.659592 
L 335.052872 127.484082 
L 335.69137 127.484082 
L 335.904202 126.896327 
L 336.5427 126.896327 
L 336.755532 126.308571 
L 337.394029 126.308571 
L 337.606862 125.720816 
L 338.245359 125.720816 
L 338.458192 125.133061 
L 339.735186 125.133061 
L 339.948019 124.545306 
L 340.799349 124.545306 
L 341.012181 123.957551 
L 348.461317 123.957551 
L 348.67415 123.369796 
L 351.228139 123.369796 
L 351.653804 122.194286 
L 354.207794 122.194286 
L 354.420626 121.606531 
L 358.677275 121.606531 
L 358.890108 121.018776 
L 374.852542 121.018776 
L 375.065375 120.43102 
L 375.916705 120.43102 
L 375.916705 120.43102 
" clip-path="url(#p3e01012238)" style="fill: none; stroke: #b9db57; stroke-width: 1.2; stroke-linecap: round"/>
   </g>
   <g id="line2d_29">
    <path d="M 69.650795 486.896327 
L 69.863628 478.961633 
L 70.07646 478.961633 
L 70.289293 476.022857 
L 70.502125 475.435102 
L 71.353455 475.435102 
L 71.566288 433.116735 
L 72.204785 401.377959 
L 72.417617 398.439184 
L 74.33311 398.439184 
L 74.545942 397.851429 
L 77.312764 397.851429 
L 77.525596 397.263673 
L 77.738429 396.088163 
L 78.589759 396.088163 
L 79.015424 394.912653 
L 79.228256 394.912653 
L 79.441089 394.324898 
L 81.356581 394.324898 
L 81.569413 393.737143 
L 85.187565 393.737143 
L 85.400397 393.149388 
L 86.038895 393.149388 
L 86.251727 392.561633 
L 86.46456 392.561633 
L 86.677392 391.973878 
L 86.890225 391.973878 
L 87.103057 391.386122 
L 87.528722 391.386122 
L 87.741555 390.798367 
L 87.954387 389.622857 
L 88.167219 381.982041 
L 88.805717 337.312653 
L 91.146874 337.312653 
L 91.359706 336.724898 
L 98.383177 336.724898 
L 98.59601 336.137143 
L 102.426994 336.137143 
L 102.639827 335.549388 
L 102.852659 316.153469 
L 117.325266 316.153469 
L 117.750931 314.977959 
L 117.963764 303.222857 
L 120.730586 303.222857 
L 120.943418 302.635102 
L 121.156251 301.459592 
L 123.71024 301.459592 
L 123.923073 300.871837 
L 128.605387 300.871837 
L 128.818219 300.284082 
L 130.308046 300.284082 
L 130.520879 299.696327 
L 132.436371 299.696327 
L 132.649203 287.941224 
L 142.439497 287.941224 
L 142.652329 287.353469 
L 143.929324 287.353469 
L 144.142156 275.598367 
L 169.256386 275.598367 
L 169.469219 261.492245 
L 172.448873 261.492245 
L 172.661706 257.965714 
L 175.428528 257.965714 
L 175.64136 257.377959 
L 177.34402 257.377959 
L 177.556852 256.790204 
L 189.47547 256.790204 
L 189.688303 249.737143 
L 191.390962 249.737143 
L 191.603795 248.561633 
L 193.944952 248.561633 
L 194.157784 247.973878 
L 197.775936 247.973878 
L 197.988768 247.386122 
L 201.60692 247.386122 
L 201.819753 246.798367 
L 210.333051 246.798367 
L 210.545884 233.28 
L 210.758716 232.692245 
L 223.528664 232.692245 
L 223.741496 216.235102 
L 226.082653 216.235102 
L 226.295486 209.182041 
L 237.362773 209.182041 
L 237.575606 208.594286 
L 240.342428 208.594286 
L 240.55526 170.390204 
L 243.10925 170.390204 
L 243.322082 166.863673 
L 243.534915 166.863673 
L 243.747747 165.100408 
L 246.301737 165.100408 
L 246.514569 160.398367 
L 247.153067 160.398367 
L 247.365899 158.635102 
L 248.430061 158.635102 
L 248.642894 158.047347 
L 262.051339 158.047347 
L 262.264171 152.757551 
L 265.882323 152.757551 
L 266.095155 152.169796 
L 267.584983 152.169796 
L 267.797815 150.994286 
L 281.631925 150.994286 
L 281.844757 149.818776 
L 282.483255 149.818776 
L 282.696087 149.23102 
L 285.037244 149.23102 
L 285.250077 148.643265 
L 298.871354 148.643265 
L 299.084187 138.063673 
L 311.215637 138.063673 
L 311.428469 137.475918 
L 311.641302 134.537143 
L 312.279799 134.537143 
L 312.492632 133.949388 
L 329.732061 133.949388 
L 329.944893 114.553469 
L 339.735186 114.553469 
L 339.948019 113.965714 
L 340.373684 113.965714 
L 340.586516 113.377959 
L 342.927673 113.377959 
L 343.140506 109.263673 
L 355.059124 109.263673 
L 355.271956 107.500408 
L 356.974616 107.500408 
L 357.187448 106.912653 
L 374.852542 106.912653 
L 375.065375 106.324898 
L 375.916705 106.324898 
L 375.916705 106.324898 
" clip-path="url(#p3e01012238)" style="fill: none; stroke: #57db94; stroke-width: 1.2; stroke-linecap: round"/>
   </g>
   <g id="line2d_30">
    <path d="M 69.650795 484.251429 
L 69.863628 475.435102 
L 70.07646 474.847347 
L 71.353455 474.847347 
L 71.566288 425.475918 
L 71.991953 416.659592 
L 72.843282 408.43102 
L 73.268947 400.202449 
L 73.48178 400.202449 
L 73.694612 399.614694 
L 73.907445 399.614694 
L 74.120277 399.026939 
L 74.33311 388.447347 
L 74.545942 387.859592 
L 75.610104 387.859592 
L 75.822937 384.920816 
L 76.035769 384.333061 
L 76.248602 383.157551 
L 76.887099 383.157551 
L 77.312764 381.982041 
L 77.525596 381.982041 
L 77.951261 375.516735 
L 78.164094 373.753469 
L 78.376926 373.753469 
L 78.802591 369.639184 
L 79.015424 368.463673 
L 79.441089 368.463673 
L 79.653921 367.875918 
L 80.079586 367.875918 
L 80.292418 367.288163 
L 80.930916 367.288163 
L 81.143748 366.700408 
L 82.207911 366.700408 
L 82.420743 356.120816 
L 82.633575 355.533061 
L 82.846408 355.533061 
L 83.05924 353.182041 
L 83.272073 353.182041 
L 83.484905 352.594286 
L 83.697738 350.83102 
L 84.123403 349.65551 
L 84.7619 346.12898 
L 84.974733 341.426939 
L 85.826062 341.426939 
L 86.038895 340.839184 
L 88.592884 340.839184 
L 89.018549 339.663673 
L 89.869879 339.663673 
L 90.082712 338.488163 
L 90.295544 332.022857 
L 90.508376 331.435102 
L 91.146874 331.435102 
L 91.359706 330.847347 
L 91.998204 330.847347 
L 92.211036 329.084082 
L 92.636701 329.084082 
L 92.849534 327.320816 
L 93.275198 327.320816 
L 93.488031 326.733061 
L 97.957513 326.733061 
L 98.170345 321.443265 
L 109.450465 321.443265 
L 109.663298 320.85551 
L 114.558444 320.85551 
L 114.771277 307.337143 
L 118.176596 307.337143 
L 118.389429 306.749388 
L 121.369083 306.749388 
L 121.581916 304.986122 
L 124.348738 304.986122 
L 124.774402 303.810612 
L 125.200067 303.810612 
L 125.4129 303.222857 
L 126.051397 303.222857 
L 126.26423 300.284082 
L 127.328392 300.284082 
L 127.541224 299.696327 
L 127.966889 299.696327 
L 128.179722 297.933061 
L 128.818219 297.933061 
L 129.031052 297.345306 
L 143.077994 297.345306 
L 143.290826 279.124898 
L 145.631983 279.124898 
L 145.844816 277.949388 
L 153.293952 277.949388 
L 153.506784 277.361633 
L 159.040428 277.361633 
L 159.253261 273.835102 
L 161.594418 273.835102 
L 161.80725 268.545306 
L 163.935575 268.545306 
L 164.148407 267.369796 
L 166.489564 267.369796 
L 166.702397 265.606531 
L 180.536507 265.606531 
L 180.749339 258.553469 
L 184.367491 258.553469 
L 184.580324 257.377959 
L 191.390962 257.377959 
L 191.603795 253.851429 
L 206.502067 253.851429 
L 206.714899 240.333061 
L 210.333051 240.333061 
L 210.545884 239.157551 
L 223.741496 239.157551 
L 223.954329 222.112653 
L 224.592826 222.112653 
L 224.805658 220.937143 
L 239.065433 220.937143 
L 239.278266 177.443265 
L 239.491098 177.443265 
L 239.703931 176.267755 
L 253.963705 176.267755 
L 254.176538 158.635102 
L 268.861977 158.635102 
L 269.07481 156.871837 
L 272.267297 156.871837 
L 272.480129 156.284082 
L 279.290768 156.284082 
L 279.5036 155.108571 
L 283.76025 155.108571 
L 283.973082 154.520816 
L 285.037244 154.520816 
L 285.250077 153.933061 
L 299.509852 153.933061 
L 299.722684 143.353469 
L 305.681993 143.353469 
L 305.894825 141.590204 
L 320.580265 141.590204 
L 320.793098 138.063673 
L 324.624082 138.063673 
L 324.836914 126.308571 
L 329.306396 126.308571 
L 329.519228 119.843265 
L 334.627207 119.843265 
L 334.84004 118.667755 
L 335.69137 118.667755 
L 335.904202 118.08 
L 349.738312 118.08 
L 349.951144 114.553469 
L 353.356464 114.553469 
L 353.569296 113.965714 
L 359.741438 113.965714 
L 359.95427 113.377959 
L 375.916705 113.377959 
L 375.916705 113.377959 
" clip-path="url(#p3e01012238)" style="fill: none; stroke: #5784db; stroke-width: 1.2; stroke-linecap: round"/>
   </g>
   <g id="line2d_31">
    <path d="M 69.650795 480.43102 
L 70.07646 444.284082 
L 70.92779 431.353469 
L 71.140623 427.826939 
L 72.204785 394.324898 
L 72.63045 392.561633 
L 72.843282 391.973878 
L 73.056115 387.271837 
L 73.48178 384.920816 
L 73.694612 384.920816 
L 74.120277 383.745306 
L 74.33311 383.745306 
L 74.545942 381.982041 
L 74.971607 381.982041 
L 75.184439 381.394286 
L 75.397272 381.394286 
L 75.822937 379.63102 
L 76.248602 378.45551 
L 76.674267 378.45551 
L 76.887099 377.867755 
L 77.099932 377.867755 
L 77.312764 377.28 
L 77.738429 371.990204 
L 77.951261 371.402449 
L 78.589759 366.700408 
L 79.228256 363.761633 
L 79.441089 363.761633 
L 79.653921 363.173878 
L 79.866754 363.173878 
L 80.505251 361.410612 
L 81.143748 358.471837 
L 81.356581 358.471837 
L 82.207911 353.182041 
L 82.420743 351.418776 
L 82.846408 351.418776 
L 83.05924 349.067755 
L 83.484905 347.892245 
L 84.336235 343.777959 
L 84.549068 343.777959 
L 84.7619 342.014694 
L 84.974733 337.312653 
L 85.826062 337.312653 
L 86.038895 336.724898 
L 86.46456 336.724898 
L 86.890225 335.549388 
L 87.103057 335.549388 
L 87.31589 334.961633 
L 87.528722 334.961633 
L 87.741555 334.373878 
L 88.380052 334.373878 
L 88.805717 333.198367 
L 89.018549 328.496327 
L 89.231382 327.908571 
L 89.657047 327.908571 
L 90.721209 324.969796 
L 91.146874 324.969796 
L 91.572539 323.794286 
L 91.785371 323.794286 
L 91.998204 323.206531 
L 92.423869 323.206531 
L 92.636701 321.443265 
L 93.062366 321.443265 
L 93.275198 320.85551 
L 93.488031 320.85551 
L 93.700863 320.267755 
L 94.126528 320.267755 
L 94.339361 319.68 
L 94.552193 319.68 
L 94.977858 318.50449 
L 95.829188 318.50449 
L 96.04202 317.32898 
L 96.89335 317.32898 
L 97.319015 315.565714 
L 98.383177 315.565714 
L 98.59601 314.977959 
L 99.660172 314.977959 
L 99.873005 313.802449 
L 100.724335 313.802449 
L 100.937167 313.214694 
L 104.129654 313.214694 
L 104.342486 312.039184 
L 104.980984 312.039184 
L 105.406649 310.863673 
L 106.470811 310.863673 
L 106.683643 310.275918 
L 107.109308 310.275918 
L 107.322141 309.688163 
L 107.960638 309.688163 
L 108.173471 309.100408 
L 108.386303 309.100408 
L 108.599136 307.337143 
L 109.0248 306.161633 
L 109.237633 304.398367 
L 109.450465 304.398367 
L 109.663298 303.810612 
L 110.088963 303.810612 
L 110.514628 302.635102 
L 111.153125 302.635102 
L 111.365957 302.047347 
L 111.791622 299.696327 
L 112.004455 299.696327 
L 112.217287 299.108571 
L 112.642952 299.108571 
L 112.855785 297.345306 
L 113.068617 297.345306 
L 113.28145 296.757551 
L 113.707115 296.757551 
L 113.919947 296.169796 
L 117.538099 296.169796 
L 117.750931 295.582041 
L 118.815094 295.582041 
L 119.240758 294.406531 
L 120.730586 294.406531 
L 120.943418 293.818776 
L 123.71024 293.818776 
L 123.923073 293.23102 
L 124.348738 293.23102 
L 124.56157 292.643265 
L 125.838565 292.643265 
L 126.051397 289.116735 
L 127.328392 289.116735 
L 127.541224 288.52898 
L 127.754057 288.52898 
L 127.966889 286.765714 
L 128.605387 286.765714 
L 128.818219 286.177959 
L 130.095214 286.177959 
L 130.520879 285.002449 
L 130.733711 283.826939 
L 130.946544 283.826939 
L 131.585041 280.300408 
L 133.074868 280.300408 
L 133.287701 279.712653 
L 133.713366 279.712653 
L 133.926198 279.124898 
L 134.351863 279.124898 
L 134.564696 278.537143 
L 134.777528 277.361633 
L 135.84169 277.361633 
L 136.054523 276.773878 
L 137.331518 276.773878 
L 137.54435 274.422857 
L 138.182847 274.422857 
L 138.39568 273.835102 
L 138.608512 273.835102 
L 139.034177 272.659592 
L 139.24701 271.484082 
L 139.459842 271.484082 
L 139.672675 270.896327 
L 140.09834 270.896327 
L 140.524004 269.133061 
L 140.949669 269.133061 
L 141.162502 268.545306 
L 141.375334 268.545306 
L 141.588167 267.957551 
L 143.503659 267.957551 
L 143.716491 267.369796 
L 144.993486 267.369796 
L 145.206319 266.782041 
L 145.419151 266.782041 
L 145.631983 266.194286 
L 146.696146 266.194286 
L 146.908978 265.606531 
L 147.121811 265.606531 
L 147.547476 264.43102 
L 148.611638 264.43102 
L 148.82447 263.843265 
L 149.037303 262.667755 
L 150.739962 262.667755 
L 150.952795 262.08 
L 153.293952 262.08 
L 153.506784 261.492245 
L 154.145282 261.492245 
L 154.570947 260.316735 
L 159.040428 260.316735 
L 159.253261 256.790204 
L 159.466093 256.202449 
L 160.955921 256.202449 
L 161.168753 255.614694 
L 161.594418 255.614694 
L 161.80725 255.026939 
L 162.871413 255.026939 
L 163.084245 254.439184 
L 163.50991 254.439184 
L 163.722743 253.851429 
L 166.0639 253.851429 
L 166.489564 252.088163 
L 169.894884 252.088163 
L 170.107716 251.500408 
L 170.320549 251.500408 
L 170.533381 250.912653 
L 170.746214 250.912653 
L 170.959046 249.149388 
L 171.597544 249.149388 
L 171.810376 248.561633 
L 174.79003 248.561633 
L 175.002863 247.973878 
L 177.34402 247.973878 
L 177.556852 247.386122 
L 178.621015 247.386122 
L 178.833847 244.447347 
L 179.04668 243.859592 
L 181.175004 243.859592 
L 181.387837 243.271837 
L 182.877664 243.271837 
L 183.090496 242.684082 
L 188.198475 242.684082 
L 188.411308 242.096327 
L 189.049805 242.096327 
L 189.47547 239.745306 
L 189.901135 239.745306 
L 190.113967 239.157551 
L 191.17813 239.157551 
L 191.390962 238.569796 
L 192.455125 238.569796 
L 192.667957 237.982041 
L 197.775936 237.982041 
L 198.201601 236.218776 
L 198.414433 235.63102 
L 199.052931 235.63102 
L 199.904261 233.28 
L 200.329926 233.28 
L 200.542758 232.692245 
L 201.181255 232.692245 
L 201.60692 230.92898 
L 202.245418 230.92898 
L 202.45825 230.341224 
L 202.883915 224.463673 
L 204.586575 224.463673 
L 204.799407 223.875918 
L 205.225072 223.875918 
L 205.437905 223.288163 
L 208.417559 223.288163 
L 208.630391 222.700408 
L 209.481721 222.700408 
L 209.694554 222.112653 
L 210.545884 222.112653 
L 211.184381 220.349388 
L 212.035711 220.349388 
L 212.248543 219.761633 
L 212.674208 219.761633 
L 212.887041 219.173878 
L 213.312706 219.173878 
L 213.525538 218.586122 
L 216.930857 218.586122 
L 217.356522 212.708571 
L 217.782187 210.357551 
L 219.272014 210.357551 
L 219.484847 205.067755 
L 222.464501 205.067755 
L 222.677334 204.48 
L 223.741496 204.48 
L 223.954329 203.892245 
L 224.379993 203.892245 
L 224.592826 203.30449 
L 225.656988 203.30449 
L 225.869821 199.190204 
L 226.082653 197.426939 
L 228.210978 197.426939 
L 228.42381 193.312653 
L 228.849475 193.312653 
L 229.27514 185.671837 
L 229.487972 183.908571 
L 232.254794 183.908571 
L 233.106124 179.794286 
L 235.872946 179.794286 
L 236.298611 175.68 
L 237.149941 173.32898 
L 237.362773 172.153469 
L 238.426936 160.986122 
L 238.639768 159.810612 
L 239.065433 159.810612 
L 239.703931 158.047347 
L 240.342428 158.047347 
L 240.55526 157.459592 
L 240.980925 155.696327 
L 241.193758 155.108571 
L 241.40659 155.108571 
L 241.619423 154.520816 
L 243.322082 154.520816 
L 243.534915 153.345306 
L 243.747747 150.994286 
L 243.96058 150.406531 
L 244.599077 150.406531 
L 245.024742 149.23102 
L 245.876072 149.23102 
L 246.301737 148.05551 
L 246.727402 148.05551 
L 247.365899 146.292245 
L 248.430061 146.292245 
L 248.642894 145.70449 
L 252.048213 145.70449 
L 252.261046 145.116735 
L 252.686711 145.116735 
L 252.899543 144.52898 
L 253.112375 140.414694 
L 265.882323 140.414694 
L 266.307988 139.239184 
L 267.584983 139.239184 
L 267.797815 138.651429 
L 268.010648 138.651429 
L 268.22348 138.063673 
L 268.436313 138.063673 
L 268.649145 137.475918 
L 270.351805 137.475918 
L 270.564637 136.300408 
L 271.415967 136.300408 
L 271.628799 135.712653 
L 276.311114 135.712653 
L 276.736778 134.537143 
L 277.588108 134.537143 
L 277.800941 133.949388 
L 281.844757 133.949388 
L 282.05759 133.361633 
L 284.398747 133.361633 
L 284.611579 132.773878 
L 285.888574 132.773878 
L 286.101407 132.186122 
L 292.273548 132.186122 
L 292.699213 131.010612 
L 293.33771 131.010612 
L 293.763375 124.545306 
L 294.18904 123.369796 
L 295.253202 123.369796 
L 295.466035 122.782041 
L 297.807192 122.782041 
L 298.020024 122.194286 
L 298.232857 122.194286 
L 298.445689 121.606531 
L 302.489506 121.606531 
L 302.702339 121.018776 
L 303.979333 121.018776 
L 304.192166 120.43102 
L 305.256328 120.43102 
L 305.46916 119.843265 
L 311.215637 119.843265 
L 311.428469 118.08 
L 311.854134 118.08 
L 312.066967 117.492245 
L 318.877605 117.492245 
L 319.090438 116.90449 
L 319.941768 116.90449 
L 320.1546 116.316735 
L 321.85726 116.316735 
L 322.070092 115.72898 
L 322.282925 115.72898 
L 322.495757 115.141224 
L 322.70859 115.141224 
L 322.921422 111.026939 
L 323.134255 111.026939 
L 323.347087 110.439184 
L 323.55992 110.439184 
L 323.985584 107.500408 
L 324.198417 105.737143 
L 324.624082 104.561633 
L 324.836914 104.561633 
L 325.049747 103.973878 
L 325.475412 103.973878 
L 325.688244 103.386122 
L 326.326742 100.447347 
L 326.539574 100.447347 
L 326.752406 99.859592 
L 327.178071 99.859592 
L 327.390904 99.271837 
L 328.455066 99.271837 
L 328.880731 98.096327 
L 334.627207 98.096327 
L 334.84004 96.920816 
L 335.69137 96.920816 
L 335.904202 96.333061 
L 336.5427 96.333061 
L 336.755532 95.745306 
L 337.181197 95.745306 
L 337.606862 94.569796 
L 337.819694 94.569796 
L 338.032527 93.982041 
L 338.671024 93.982041 
L 338.883857 92.806531 
L 339.735186 92.806531 
L 339.948019 92.218776 
L 348.461317 92.218776 
L 348.67415 91.63102 
L 350.802474 91.63102 
L 351.015307 91.043265 
L 351.440972 91.043265 
L 351.653804 90.45551 
L 353.994961 90.45551 
L 354.207794 89.867755 
L 374.852542 89.867755 
L 375.065375 89.28 
L 375.916705 89.28 
L 375.916705 89.28 
" clip-path="url(#p3e01012238)" style="fill: none; stroke: #c957db; stroke-width: 1.2; stroke-linecap: round"/>
   </g>
   <g id="line2d_32"/>
   <g id="line2d_33"/>
   <g id="line2d_34"/>
   <g id="line2d_35"/>
   <g id="line2d_36"/>
   <g id="patch_3">
    <path d="M 54.3375 512.64 
L 54.3375 69.12 
" style="fill: none; stroke: #cccccc; stroke-linejoin: miter; stroke-linecap: square"/>
   </g>
   <g id="patch_4">
    <path d="M 54.3375 512.64 
L 391.23 512.64 
" style="fill: none; stroke: #cccccc; stroke-linejoin: miter; stroke-linecap: square"/>
   </g>
   <g id="text_29">
    <!-- Edge Coverage History -->
    <g style="fill: #262626" transform="translate(115.892262 63.12)scale(0.165888 -0.165888)">
     <defs>
      <path id="DejaVuSans-Bold-45" d="M 588 4666 
L 3834 4666 
L 3834 3756 
L 1791 3756 
L 1791 2888 
L 3713 2888 
L 3713 1978 
L 1791 1978 
L 1791 909 
L 3903 909 
L 3903 0 
L 588 0 
L 588 4666 
z
" transform="scale(0.015625)"/>
      <path id="DejaVuSans-Bold-64" d="M 2919 2988 
L 2919 4863 
L 4044 4863 
L 4044 0 
L 2919 0 
L 2919 506 
Q 2688 197 2409 53 
Q 2131 -91 1766 -91 
Q 1119 -91 703 423 
Q 288 938 288 1747 
Q 288 2556 703 3070 
Q 1119 3584 1766 3584 
Q 2128 3584 2408 3439 
Q 2688 3294 2919 2988 
z
M 2181 722 
Q 2541 722 2730 984 
Q 2919 1247 2919 1747 
Q 2919 2247 2730 2509 
Q 2541 2772 2181 2772 
Q 1825 2772 1636 2509 
Q 1447 2247 1447 1747 
Q 1447 1247 1636 984 
Q 1825 722 2181 722 
z
" transform="scale(0.015625)"/>
      <path id="DejaVuSans-Bold-67" d="M 2919 594 
Q 2688 288 2409 144 
Q 2131 0 1766 0 
Q 1125 0 706 504 
Q 288 1009 288 1791 
Q 288 2575 706 3076 
Q 1125 3578 1766 3578 
Q 2131 3578 2409 3434 
Q 2688 3291 2919 2981 
L 2919 3500 
L 4044 3500 
L 4044 353 
Q 4044 -491 3511 -936 
Q 2978 -1381 1966 -1381 
Q 1638 -1381 1331 -1331 
Q 1025 -1281 716 -1178 
L 716 -306 
Q 1009 -475 1290 -558 
Q 1572 -641 1856 -641 
Q 2406 -641 2662 -400 
Q 2919 -159 2919 353 
L 2919 594 
z
M 2181 2772 
Q 1834 2772 1640 2515 
Q 1447 2259 1447 1791 
Q 1447 1309 1634 1061 
Q 1822 813 2181 813 
Q 2531 813 2725 1069 
Q 2919 1325 2919 1791 
Q 2919 2259 2725 2515 
Q 2531 2772 2181 2772 
z
" transform="scale(0.015625)"/>
      <path id="DejaVuSans-Bold-65" d="M 4031 1759 
L 4031 1441 
L 1416 1441 
Q 1456 1047 1700 850 
Q 1944 653 2381 653 
Q 2734 653 3104 758 
Q 3475 863 3866 1075 
L 3866 213 
Q 3469 63 3072 -14 
Q 2675 -91 2278 -91 
Q 1328 -91 801 392 
Q 275 875 275 1747 
Q 275 2603 792 3093 
Q 1309 3584 2216 3584 
Q 3041 3584 3536 3087 
Q 4031 2591 4031 1759 
z
M 2881 2131 
Q 2881 2450 2695 2645 
Q 2509 2841 2209 2841 
Q 1884 2841 1681 2658 
Q 1478 2475 1428 2131 
L 2881 2131 
z
" transform="scale(0.015625)"/>
      <path id="DejaVuSans-Bold-20" transform="scale(0.015625)"/>
      <path id="DejaVuSans-Bold-43" d="M 4288 256 
Q 3956 84 3597 -3 
Q 3238 -91 2847 -91 
Q 1681 -91 1000 561 
Q 319 1213 319 2328 
Q 319 3447 1000 4098 
Q 1681 4750 2847 4750 
Q 3238 4750 3597 4662 
Q 3956 4575 4288 4403 
L 4288 3438 
Q 3953 3666 3628 3772 
Q 3303 3878 2944 3878 
Q 2300 3878 1931 3465 
Q 1563 3053 1563 2328 
Q 1563 1606 1931 1193 
Q 2300 781 2944 781 
Q 3303 781 3628 887 
Q 3953 994 4288 1222 
L 4288 256 
z
" transform="scale(0.015625)"/>
      <path id="DejaVuSans-Bold-6f" d="M 2203 2784 
Q 1831 2784 1636 2517 
Q 1441 2250 1441 1747 
Q 1441 1244 1636 976 
Q 1831 709 2203 709 
Q 2569 709 2762 976 
Q 2956 1244 2956 1747 
Q 2956 2250 2762 2517 
Q 2569 2784 2203 2784 
z
M 2203 3584 
Q 3106 3584 3614 3096 
Q 4122 2609 4122 1747 
Q 4122 884 3614 396 
Q 3106 -91 2203 -91 
Q 1297 -91 786 396 
Q 275 884 275 1747 
Q 275 2609 786 3096 
Q 1297 3584 2203 3584 
z
" transform="scale(0.015625)"/>
      <path id="DejaVuSans-Bold-76" d="M 97 3500 
L 1216 3500 
L 2088 1081 
L 2956 3500 
L 4078 3500 
L 2700 0 
L 1472 0 
L 97 3500 
z
" transform="scale(0.015625)"/>
      <path id="DejaVuSans-Bold-72" d="M 3138 2547 
Q 2991 2616 2845 2648 
Q 2700 2681 2553 2681 
Q 2122 2681 1889 2404 
Q 1656 2128 1656 1613 
L 1656 0 
L 538 0 
L 538 3500 
L 1656 3500 
L 1656 2925 
Q 1872 3269 2151 3426 
Q 2431 3584 2822 3584 
Q 2878 3584 2943 3579 
Q 3009 3575 3134 3559 
L 3138 2547 
z
" transform="scale(0.015625)"/>
      <path id="DejaVuSans-Bold-61" d="M 2106 1575 
Q 1756 1575 1579 1456 
Q 1403 1338 1403 1106 
Q 1403 894 1545 773 
Q 1688 653 1941 653 
Q 2256 653 2472 879 
Q 2688 1106 2688 1447 
L 2688 1575 
L 2106 1575 
z
M 3816 1997 
L 3816 0 
L 2688 0 
L 2688 519 
Q 2463 200 2181 54 
Q 1900 -91 1497 -91 
Q 953 -91 614 226 
Q 275 544 275 1050 
Q 275 1666 698 1953 
Q 1122 2241 2028 2241 
L 2688 2241 
L 2688 2328 
Q 2688 2594 2478 2717 
Q 2269 2841 1825 2841 
Q 1466 2841 1156 2769 
Q 847 2697 581 2553 
L 581 3406 
Q 941 3494 1303 3539 
Q 1666 3584 2028 3584 
Q 2975 3584 3395 3211 
Q 3816 2838 3816 1997 
z
" transform="scale(0.015625)"/>
      <path id="DejaVuSans-Bold-48" d="M 588 4666 
L 1791 4666 
L 1791 2888 
L 3566 2888 
L 3566 4666 
L 4769 4666 
L 4769 0 
L 3566 0 
L 3566 1978 
L 1791 1978 
L 1791 0 
L 588 0 
L 588 4666 
z
" transform="scale(0.015625)"/>
      <path id="DejaVuSans-Bold-69" d="M 538 3500 
L 1656 3500 
L 1656 0 
L 538 0 
L 538 3500 
z
M 538 4863 
L 1656 4863 
L 1656 3950 
L 538 3950 
L 538 4863 
z
" transform="scale(0.015625)"/>
      <path id="DejaVuSans-Bold-73" d="M 3272 3391 
L 3272 2541 
Q 2913 2691 2578 2766 
Q 2244 2841 1947 2841 
Q 1628 2841 1473 2761 
Q 1319 2681 1319 2516 
Q 1319 2381 1436 2309 
Q 1553 2238 1856 2203 
L 2053 2175 
Q 2913 2066 3209 1816 
Q 3506 1566 3506 1031 
Q 3506 472 3093 190 
Q 2681 -91 1863 -91 
Q 1516 -91 1145 -36 
Q 775 19 384 128 
L 384 978 
Q 719 816 1070 734 
Q 1422 653 1784 653 
Q 2113 653 2278 743 
Q 2444 834 2444 1013 
Q 2444 1163 2330 1236 
Q 2216 1309 1875 1350 
L 1678 1375 
Q 931 1469 631 1722 
Q 331 1975 331 2491 
Q 331 3047 712 3315 
Q 1094 3584 1881 3584 
Q 2191 3584 2531 3537 
Q 2872 3491 3272 3391 
z
" transform="scale(0.015625)"/>
      <path id="DejaVuSans-Bold-74" d="M 1759 4494 
L 1759 3500 
L 2913 3500 
L 2913 2700 
L 1759 2700 
L 1759 1216 
Q 1759 972 1856 886 
Q 1953 800 2241 800 
L 2816 800 
L 2816 0 
L 1856 0 
Q 1194 0 917 276 
Q 641 553 641 1216 
L 641 2700 
L 84 2700 
L 84 3500 
L 641 3500 
L 641 4494 
L 1759 4494 
z
" transform="scale(0.015625)"/>
      <path id="DejaVuSans-Bold-79" d="M 78 3500 
L 1197 3500 
L 2138 1125 
L 2938 3500 
L 4056 3500 
L 2584 -331 
Q 2363 -916 2067 -1148 
Q 1772 -1381 1288 -1381 
L 641 -1381 
L 641 -647 
L 991 -647 
Q 1275 -647 1404 -556 
Q 1534 -466 1606 -231 
L 1638 -134 
L 78 3500 
z
" transform="scale(0.015625)"/>
     </defs>
     <use xlink:href="#DejaVuSans-Bold-45"/>
     <use xlink:href="#DejaVuSans-Bold-64" x="68.310547"/>
     <use xlink:href="#DejaVuSans-Bold-67" x="139.892578"/>
     <use xlink:href="#DejaVuSans-Bold-65" x="211.474609"/>
     <use xlink:href="#DejaVuSans-Bold-20" x="279.296875"/>
     <use xlink:href="#DejaVuSans-Bold-43" x="314.111328"/>
     <use xlink:href="#DejaVuSans-Bold-6f" x="387.5"/>
     <use xlink:href="#DejaVuSans-Bold-76" x="456.201172"/>
     <use xlink:href="#DejaVuSans-Bold-65" x="521.386719"/>
     <use xlink:href="#DejaVuSans-Bold-72" x="589.208984"/>
     <use xlink:href="#DejaVuSans-Bold-61" x="638.525391"/>
     <use xlink:href="#DejaVuSans-Bold-67" x="706.005859"/>
     <use xlink:href="#DejaVuSans-Bold-65" x="777.587891"/>
     <use xlink:href="#DejaVuSans-Bold-20" x="845.410156"/>
     <use xlink:href="#DejaVuSans-Bold-48" x="880.224609"/>
     <use xlink:href="#DejaVuSans-Bold-69" x="963.916016"/>
     <use xlink:href="#DejaVuSans-Bold-73" x="998.193359"/>
     <use xlink:href="#DejaVuSans-Bold-74" x="1057.714844"/>
     <use xlink:href="#DejaVuSans-Bold-6f" x="1105.517578"/>
     <use xlink:href="#DejaVuSans-Bold-72" x="1174.21875"/>
     <use xlink:href="#DejaVuSans-Bold-79" x="1223.535156"/>
    </g>
   </g>
   <g id="legend_1">
    <g id="patch_5">
     <path d="M 60.4975 154.6795 
L 177.6255 154.6795 
Q 179.3855 154.6795 179.3855 152.9195 
L 179.3855 75.28 
Q 179.3855 73.52 177.6255 73.52 
L 60.4975 73.52 
Q 58.7375 73.52 58.7375 75.28 
L 58.7375 152.9195 
Q 58.7375 154.6795 60.4975 154.6795 
z
" style="fill: #ffffff; opacity: 0.8; stroke: #cccccc; stroke-width: 0.8; stroke-linejoin: miter"/>
    </g>
    <g id="text_30">
     <!-- fuzzer -->
     <g style="fill: #262626" transform="translate(104.3645 84.3345)scale(0.096 -0.096)">
      <defs>
       <path id="DejaVuSans-66" d="M 2375 4863 
L 2375 4384 
L 1825 4384 
Q 1516 4384 1395 4259 
Q 1275 4134 1275 3809 
L 1275 3500 
L 2222 3500 
L 2222 3053 
L 1275 3053 
L 1275 0 
L 697 0 
L 697 3053 
L 147 3053 
L 147 3500 
L 697 3500 
L 697 3744 
Q 697 4328 969 4595 
Q 1241 4863 1831 4863 
L 2375 4863 
z
" transform="scale(0.015625)"/>
       <path id="DejaVuSans-7a" d="M 353 3500 
L 3084 3500 
L 3084 2975 
L 922 459 
L 3084 459 
L 3084 0 
L 275 0 
L 275 525 
L 2438 3041 
L 353 3041 
L 353 3500 
z
" transform="scale(0.015625)"/>
      </defs>
      <use xlink:href="#DejaVuSans-66"/>
      <use xlink:href="#DejaVuSans-75" x="35.205078"/>
      <use xlink:href="#DejaVuSans-7a" x="98.583984"/>
      <use xlink:href="#DejaVuSans-7a" x="151.074219"/>
      <use xlink:href="#DejaVuSans-65" x="203.564453"/>
      <use xlink:href="#DejaVuSans-72" x="265.087891"/>
     </g>
    </g>
    <g id="line2d_37">
     <path d="M 62.2575 94.337625 
L 71.0575 94.337625 
L 79.8575 94.337625 
" style="fill: none; stroke: #db5f57; stroke-width: 1.2; stroke-linecap: round"/>
    </g>
    <g id="text_31">
     <!-- fairfuzz-0-exid24 -->
     <g style="fill: #262626" transform="translate(86.8975 97.417625)scale(0.088 -0.088)">
      <defs>
       <path id="DejaVuSans-2d" d="M 313 2009 
L 1997 2009 
L 1997 1497 
L 313 1497 
L 313 2009 
z
" transform="scale(0.015625)"/>
       <path id="DejaVuSans-78" d="M 3513 3500 
L 2247 1797 
L 3578 0 
L 2900 0 
L 1881 1375 
L 863 0 
L 184 0 
L 1544 1831 
L 300 3500 
L 978 3500 
L 1906 2253 
L 2834 3500 
L 3513 3500 
z
" transform="scale(0.015625)"/>
      </defs>
      <use xlink:href="#DejaVuSans-66"/>
      <use xlink:href="#DejaVuSans-61" x="35.205078"/>
      <use xlink:href="#DejaVuSans-69" x="96.484375"/>
      <use xlink:href="#DejaVuSans-72" x="124.267578"/>
      <use xlink:href="#DejaVuSans-66" x="165.380859"/>
      <use xlink:href="#DejaVuSans-75" x="200.585938"/>
      <use xlink:href="#DejaVuSans-7a" x="263.964844"/>
      <use xlink:href="#DejaVuSans-7a" x="316.455078"/>
      <use xlink:href="#DejaVuSans-2d" x="368.945312"/>
      <use xlink:href="#DejaVuSans-30" x="405.029297"/>
      <use xlink:href="#DejaVuSans-2d" x="468.652344"/>
      <use xlink:href="#DejaVuSans-65" x="504.736328"/>
      <use xlink:href="#DejaVuSans-78" x="564.509766"/>
      <use xlink:href="#DejaVuSans-69" x="623.689453"/>
      <use xlink:href="#DejaVuSans-64" x="651.472656"/>
      <use xlink:href="#DejaVuSans-32" x="714.949219"/>
      <use xlink:href="#DejaVuSans-34" x="778.572266"/>
     </g>
    </g>
    <g id="line2d_38">
     <path d="M 62.2575 107.254375 
L 71.0575 107.254375 
L 79.8575 107.254375 
" style="fill: none; stroke: #b9db57; stroke-width: 1.2; stroke-linecap: round"/>
    </g>
    <g id="text_32">
     <!-- afl-0-exid24 -->
     <g style="fill: #262626" transform="translate(86.8975 110.334375)scale(0.088 -0.088)">
      <defs>
       <path id="DejaVuSans-6c" d="M 603 4863 
L 1178 4863 
L 1178 0 
L 603 0 
L 603 4863 
z
" transform="scale(0.015625)"/>
      </defs>
      <use xlink:href="#DejaVuSans-61"/>
      <use xlink:href="#DejaVuSans-66" x="61.279297"/>
      <use xlink:href="#DejaVuSans-6c" x="96.484375"/>
      <use xlink:href="#DejaVuSans-2d" x="124.267578"/>
      <use xlink:href="#DejaVuSans-30" x="160.351562"/>
      <use xlink:href="#DejaVuSans-2d" x="223.974609"/>
      <use xlink:href="#DejaVuSans-65" x="260.058594"/>
      <use xlink:href="#DejaVuSans-78" x="319.832031"/>
      <use xlink:href="#DejaVuSans-69" x="379.011719"/>
      <use xlink:href="#DejaVuSans-64" x="406.794922"/>
      <use xlink:href="#DejaVuSans-32" x="470.271484"/>
      <use xlink:href="#DejaVuSans-34" x="533.894531"/>
     </g>
    </g>
    <g id="line2d_39">
     <path d="M 62.2575 120.171125 
L 71.0575 120.171125 
L 79.8575 120.171125 
" style="fill: none; stroke: #57db94; stroke-width: 1.2; stroke-linecap: round"/>
    </g>
    <g id="text_33">
     <!-- aflfast-0-exid24 -->
     <g style="fill: #262626" transform="translate(86.8975 123.251125)scale(0.088 -0.088)">
      <use xlink:href="#DejaVuSans-61"/>
      <use xlink:href="#DejaVuSans-66" x="61.279297"/>
      <use xlink:href="#DejaVuSans-6c" x="96.484375"/>
      <use xlink:href="#DejaVuSans-66" x="124.267578"/>
      <use xlink:href="#DejaVuSans-61" x="159.472656"/>
      <use xlink:href="#DejaVuSans-73" x="220.751953"/>
      <use xlink:href="#DejaVuSans-74" x="272.851562"/>
      <use xlink:href="#DejaVuSans-2d" x="312.060547"/>
      <use xlink:href="#DejaVuSans-30" x="348.144531"/>
      <use xlink:href="#DejaVuSans-2d" x="411.767578"/>
      <use xlink:href="#DejaVuSans-65" x="447.851562"/>
      <use xlink:href="#DejaVuSans-78" x="507.625"/>
      <use xlink:href="#DejaVuSans-69" x="566.804688"/>
      <use xlink:href="#DejaVuSans-64" x="594.587891"/>
      <use xlink:href="#DejaVuSans-32" x="658.064453"/>
      <use xlink:href="#DejaVuSans-34" x="721.6875"/>
     </g>
    </g>
    <g id="line2d_40">
     <path d="M 62.2575 133.087875 
L 71.0575 133.087875 
L 79.8575 133.087875 
" style="fill: none; stroke: #5784db; stroke-width: 1.2; stroke-linecap: round"/>
    </g>
    <g id="text_34">
     <!-- aflplusplus-0-exid24 -->
     <g style="fill: #262626" transform="translate(86.8975 136.167875)scale(0.088 -0.088)">
      <defs>
       <path id="DejaVuSans-70" d="M 1159 525 
L 1159 -1331 
L 581 -1331 
L 581 3500 
L 1159 3500 
L 1159 2969 
Q 1341 3281 1617 3432 
Q 1894 3584 2278 3584 
Q 2916 3584 3314 3078 
Q 3713 2572 3713 1747 
Q 3713 922 3314 415 
Q 2916 -91 2278 -91 
Q 1894 -91 1617 61 
Q 1341 213 1159 525 
z
M 3116 1747 
Q 3116 2381 2855 2742 
Q 2594 3103 2138 3103 
Q 1681 3103 1420 2742 
Q 1159 2381 1159 1747 
Q 1159 1113 1420 752 
Q 1681 391 2138 391 
Q 2594 391 2855 752 
Q 3116 1113 3116 1747 
z
" transform="scale(0.015625)"/>
      </defs>
      <use xlink:href="#DejaVuSans-61"/>
      <use xlink:href="#DejaVuSans-66" x="61.279297"/>
      <use xlink:href="#DejaVuSans-6c" x="96.484375"/>
      <use xlink:href="#DejaVuSans-70" x="124.267578"/>
      <use xlink:href="#DejaVuSans-6c" x="187.744141"/>
      <use xlink:href="#DejaVuSans-75" x="215.527344"/>
      <use xlink:href="#DejaVuSans-73" x="278.90625"/>
      <use xlink:href="#DejaVuSans-70" x="331.005859"/>
      <use xlink:href="#DejaVuSans-6c" x="394.482422"/>
      <use xlink:href="#DejaVuSans-75" x="422.265625"/>
      <use xlink:href="#DejaVuSans-73" x="485.644531"/>
      <use xlink:href="#DejaVuSans-2d" x="537.744141"/>
      <use xlink:href="#DejaVuSans-30" x="573.828125"/>
      <use xlink:href="#DejaVuSans-2d" x="637.451172"/>
      <use xlink:href="#DejaVuSans-65" x="673.535156"/>
      <use xlink:href="#DejaVuSans-78" x="733.308594"/>
      <use xlink:href="#DejaVuSans-69" x="792.488281"/>
      <use xlink:href="#DejaVuSans-64" x="820.271484"/>
      <use xlink:href="#DejaVuSans-32" x="883.748047"/>
      <use xlink:href="#DejaVuSans-34" x="947.371094"/>
     </g>
    </g>
    <g id="line2d_41">
     <path d="M 62.2575 146.004625 
L 71.0575 146.004625 
L 79.8575 146.004625 
" style="fill: none; stroke: #c957db; stroke-width: 1.2; stroke-linecap: round"/>
    </g>
    <g id="text_35">
     <!-- fuzzer_global -->
     <g style="fill: #262626" transform="translate(86.8975 149.084625)scale(0.088 -0.088)">
      <defs>
       <path id="DejaVuSans-5f" d="M 3263 -1063 
L 3263 -1509 
L -63 -1509 
L -63 -1063 
L 3263 -1063 
z
" transform="scale(0.015625)"/>
       <path id="DejaVuSans-62" d="M 3116 1747 
Q 3116 2381 2855 2742 
Q 2594 3103 2138 3103 
Q 1681 3103 1420 2742 
Q 1159 2381 1159 1747 
Q 1159 1113 1420 752 
Q 1681 391 2138 391 
Q 2594 391 2855 752 
Q 3116 1113 3116 1747 
z
M 1159 2969 
Q 1341 3281 1617 3432 
Q 1894 3584 2278 3584 
Q 2916 3584 3314 3078 
Q 3713 2572 3713 1747 
Q 3713 922 3314 415 
Q 2916 -91 2278 -91 
Q 1894 -91 1617 61 
Q 1341 213 1159 525 
L 1159 0 
L 581 0 
L 581 4863 
L 1159 4863 
L 1159 2969 
z
" transform="scale(0.015625)"/>
      </defs>
      <use xlink:href="#DejaVuSans-66"/>
      <use xlink:href="#DejaVuSans-75" x="35.205078"/>
      <use xlink:href="#DejaVuSans-7a" x="98.583984"/>
      <use xlink:href="#DejaVuSans-7a" x="151.074219"/>
      <use xlink:href="#DejaVuSans-65" x="203.564453"/>
      <use xlink:href="#DejaVuSans-72" x="265.087891"/>
      <use xlink:href="#DejaVuSans-5f" x="306.201172"/>
      <use xlink:href="#DejaVuSans-67" x="356.201172"/>
      <use xlink:href="#DejaVuSans-6c" x="419.677734"/>
      <use xlink:href="#DejaVuSans-6f" x="447.460938"/>
      <use xlink:href="#DejaVuSans-62" x="508.642578"/>
      <use xlink:href="#DejaVuSans-61" x="572.119141"/>
      <use xlink:href="#DejaVuSans-6c" x="633.398438"/>
     </g>
    </g>
   </g>
  </g>
 </g>
 <defs>
  <clipPath id="p3e01012238">
   <rect x="54.3375" y="69.12" width="336.8925" height="443.52"/>
  </clipPath>
 </defs>
</svg>
