<?xml version="1.0" encoding="utf-8" standalone="no"?>
<!DOCTYPE svg PUBLIC "-//W3C//DTD SVG 1.1//EN"
  "http://www.w3.org/Graphics/SVG/1.1/DTD/svg11.dtd">
<svg xmlns:xlink="http://www.w3.org/1999/xlink" width="435pt" height="576pt" viewBox="0 0 435 576" xmlns="http://www.w3.org/2000/svg" version="1.1">
 <metadata>
  <rdf:RDF xmlns:dc="http://purl.org/dc/elements/1.1/" xmlns:cc="http://creativecommons.org/ns#" xmlns:rdf="http://www.w3.org/1999/02/22-rdf-syntax-ns#">
   <cc:Work>
    <dc:type rdf:resource="http://purl.org/dc/dcmitype/StillImage"/>
    <dc:date>2022-09-15T10:08:45.528689</dc:date>
    <dc:format>image/svg+xml</dc:format>
    <dc:creator>
     <cc:Agent>
      <dc:title>Matplotlib v3.5.3, https://matplotlib.org/</dc:title>
     </cc:Agent>
    </dc:creator>
   </cc:Work>
  </rdf:RDF>
 </metadata>
 <defs>
  <style type="text/css">*{stroke-linejoin: round; stroke-linecap: butt}</style>
 </defs>
 <g id="figure_1">
  <g id="patch_1">
   <path d="M 0 576 
L 435 576 
L 435 0 
L 0 0 
z
" style="fill: #ffffff"/>
  </g>
  <g id="axes_1">
   <g id="patch_2">
    <path d="M 54.375 512.64 
L 391.5 512.64 
L 391.5 69.12 
L 54.375 69.12 
z
" style="fill: #ffffff"/>
   </g>
   <g id="matplotlib.axis_1">
    <g id="xtick_1">
     <g id="line2d_1">
      <path d="M 69.698864 512.64 
L 69.698864 69.12 
" clip-path="url(#pb505b218e7)" style="fill: none; stroke: #cccccc; stroke-width: 0.8; stroke-linecap: round"/>
     </g>
     <g id="text_1">
      <!-- 0 -->
      <g style="fill: #262626" transform="translate(69.43635 529.627249)rotate(-45)scale(0.088 -0.088)">
       <defs>
        <path id="DejaVuSans-30" d="M 2034 4250 
Q 1547 4250 1301 3770 
Q 1056 3291 1056 2328 
Q 1056 1369 1301 889 
Q 1547 409 2034 409 
Q 2525 409 2770 889 
Q 3016 1369 3016 2328 
Q 3016 3291 2770 3770 
Q 2525 4250 2034 4250 
z
M 2034 4750 
Q 2819 4750 3233 4129 
Q 3647 3509 3647 2328 
Q 3647 1150 3233 529 
Q 2819 -91 2034 -91 
Q 1250 -91 836 529 
Q 422 1150 422 2328 
Q 422 3509 836 4129 
Q 1250 4750 2034 4750 
z
" transform="scale(0.015625)"/>
       </defs>
       <use xlink:href="#DejaVuSans-30"/>
      </g>
     </g>
    </g>
    <g id="xtick_2">
     <g id="line2d_2">
      <path d="M 86.725379 512.64 
L 86.725379 69.12 
" clip-path="url(#pb505b218e7)" style="fill: none; stroke: #cccccc; stroke-width: 0.8; stroke-linecap: round"/>
     </g>
     <g id="text_2">
      <!-- 80 -->
      <g style="fill: #262626" transform="translate(84.48332 533.58634)rotate(-45)scale(0.088 -0.088)">
       <defs>
        <path id="DejaVuSans-38" d="M 2034 2216 
Q 1584 2216 1326 1975 
Q 1069 1734 1069 1313 
Q 1069 891 1326 650 
Q 1584 409 2034 409 
Q 2484 409 2743 651 
Q 3003 894 3003 1313 
Q 3003 1734 2745 1975 
Q 2488 2216 2034 2216 
z
M 1403 2484 
Q 997 2584 770 2862 
Q 544 3141 544 3541 
Q 544 4100 942 4425 
Q 1341 4750 2034 4750 
Q 2731 4750 3128 4425 
Q 3525 4100 3525 3541 
Q 3525 3141 3298 2862 
Q 3072 2584 2669 2484 
Q 3125 2378 3379 2068 
Q 3634 1759 3634 1313 
Q 3634 634 3220 271 
Q 2806 -91 2034 -91 
Q 1263 -91 848 271 
Q 434 634 434 1313 
Q 434 1759 690 2068 
Q 947 2378 1403 2484 
z
M 1172 3481 
Q 1172 3119 1398 2916 
Q 1625 2713 2034 2713 
Q 2441 2713 2670 2916 
Q 2900 3119 2900 3481 
Q 2900 3844 2670 4047 
Q 2441 4250 2034 4250 
Q 1625 4250 1398 4047 
Q 1172 3844 1172 3481 
z
" transform="scale(0.015625)"/>
       </defs>
       <use xlink:href="#DejaVuSans-38"/>
       <use xlink:href="#DejaVuSans-30" x="63.623047"/>
      </g>
     </g>
    </g>
    <g id="xtick_3">
     <g id="line2d_3">
      <path d="M 103.751894 512.64 
L 103.751894 69.12 
" clip-path="url(#pb505b218e7)" style="fill: none; stroke: #cccccc; stroke-width: 0.8; stroke-linecap: round"/>
     </g>
     <g id="text_3">
      <!-- 160 -->
      <g style="fill: #262626" transform="translate(99.53029 537.54543)rotate(-45)scale(0.088 -0.088)">
       <defs>
        <path id="DejaVuSans-31" d="M 794 531 
L 1825 531 
L 1825 4091 
L 703 3866 
L 703 4441 
L 1819 4666 
L 2450 4666 
L 2450 531 
L 3481 531 
L 3481 0 
L 794 0 
L 794 531 
z
" transform="scale(0.015625)"/>
        <path id="DejaVuSans-36" d="M 2113 2584 
Q 1688 2584 1439 2293 
Q 1191 2003 1191 1497 
Q 1191 994 1439 701 
Q 1688 409 2113 409 
Q 2538 409 2786 701 
Q 3034 994 3034 1497 
Q 3034 2003 2786 2293 
Q 2538 2584 2113 2584 
z
M 3366 4563 
L 3366 3988 
Q 3128 4100 2886 4159 
Q 2644 4219 2406 4219 
Q 1781 4219 1451 3797 
Q 1122 3375 1075 2522 
Q 1259 2794 1537 2939 
Q 1816 3084 2150 3084 
Q 2853 3084 3261 2657 
Q 3669 2231 3669 1497 
Q 3669 778 3244 343 
Q 2819 -91 2113 -91 
Q 1303 -91 875 529 
Q 447 1150 447 2328 
Q 447 3434 972 4092 
Q 1497 4750 2381 4750 
Q 2619 4750 2861 4703 
Q 3103 4656 3366 4563 
z
" transform="scale(0.015625)"/>
       </defs>
       <use xlink:href="#DejaVuSans-31"/>
       <use xlink:href="#DejaVuSans-36" x="63.623047"/>
       <use xlink:href="#DejaVuSans-30" x="127.246094"/>
      </g>
     </g>
    </g>
    <g id="xtick_4">
     <g id="line2d_4">
      <path d="M 120.778409 512.64 
L 120.778409 69.12 
" clip-path="url(#pb505b218e7)" style="fill: none; stroke: #cccccc; stroke-width: 0.8; stroke-linecap: round"/>
     </g>
     <g id="text_4">
      <!-- 240 -->
      <g style="fill: #262626" transform="translate(116.556805 537.54543)rotate(-45)scale(0.088 -0.088)">
       <defs>
        <path id="DejaVuSans-32" d="M 1228 531 
L 3431 531 
L 3431 0 
L 469 0 
L 469 531 
Q 828 903 1448 1529 
Q 2069 2156 2228 2338 
Q 2531 2678 2651 2914 
Q 2772 3150 2772 3378 
Q 2772 3750 2511 3984 
Q 2250 4219 1831 4219 
Q 1534 4219 1204 4116 
Q 875 4013 500 3803 
L 500 4441 
Q 881 4594 1212 4672 
Q 1544 4750 1819 4750 
Q 2544 4750 2975 4387 
Q 3406 4025 3406 3419 
Q 3406 3131 3298 2873 
Q 3191 2616 2906 2266 
Q 2828 2175 2409 1742 
Q 1991 1309 1228 531 
z
" transform="scale(0.015625)"/>
        <path id="DejaVuSans-34" d="M 2419 4116 
L 825 1625 
L 2419 1625 
L 2419 4116 
z
M 2253 4666 
L 3047 4666 
L 3047 1625 
L 3713 1625 
L 3713 1100 
L 3047 1100 
L 3047 0 
L 2419 0 
L 2419 1100 
L 313 1100 
L 313 1709 
L 2253 4666 
z
" transform="scale(0.015625)"/>
       </defs>
       <use xlink:href="#DejaVuSans-32"/>
       <use xlink:href="#DejaVuSans-34" x="63.623047"/>
       <use xlink:href="#DejaVuSans-30" x="127.246094"/>
      </g>
     </g>
    </g>
    <g id="xtick_5">
     <g id="line2d_5">
      <path d="M 137.804924 512.64 
L 137.804924 69.12 
" clip-path="url(#pb505b218e7)" style="fill: none; stroke: #cccccc; stroke-width: 0.8; stroke-linecap: round"/>
     </g>
     <g id="text_5">
      <!-- 320 -->
      <g style="fill: #262626" transform="translate(133.58332 537.54543)rotate(-45)scale(0.088 -0.088)">
       <defs>
        <path id="DejaVuSans-33" d="M 2597 2516 
Q 3050 2419 3304 2112 
Q 3559 1806 3559 1356 
Q 3559 666 3084 287 
Q 2609 -91 1734 -91 
Q 1441 -91 1130 -33 
Q 819 25 488 141 
L 488 750 
Q 750 597 1062 519 
Q 1375 441 1716 441 
Q 2309 441 2620 675 
Q 2931 909 2931 1356 
Q 2931 1769 2642 2001 
Q 2353 2234 1838 2234 
L 1294 2234 
L 1294 2753 
L 1863 2753 
Q 2328 2753 2575 2939 
Q 2822 3125 2822 3475 
Q 2822 3834 2567 4026 
Q 2313 4219 1838 4219 
Q 1578 4219 1281 4162 
Q 984 4106 628 3988 
L 628 4550 
Q 988 4650 1302 4700 
Q 1616 4750 1894 4750 
Q 2613 4750 3031 4423 
Q 3450 4097 3450 3541 
Q 3450 3153 3228 2886 
Q 3006 2619 2597 2516 
z
" transform="scale(0.015625)"/>
       </defs>
       <use xlink:href="#DejaVuSans-33"/>
       <use xlink:href="#DejaVuSans-32" x="63.623047"/>
       <use xlink:href="#DejaVuSans-30" x="127.246094"/>
      </g>
     </g>
    </g>
    <g id="xtick_6">
     <g id="line2d_6">
      <path d="M 154.831439 512.64 
L 154.831439 69.12 
" clip-path="url(#pb505b218e7)" style="fill: none; stroke: #cccccc; stroke-width: 0.8; stroke-linecap: round"/>
     </g>
     <g id="text_6">
      <!-- 400 -->
      <g style="fill: #262626" transform="translate(150.609835 537.54543)rotate(-45)scale(0.088 -0.088)">
       <use xlink:href="#DejaVuSans-34"/>
       <use xlink:href="#DejaVuSans-30" x="63.623047"/>
       <use xlink:href="#DejaVuSans-30" x="127.246094"/>
      </g>
     </g>
    </g>
    <g id="xtick_7">
     <g id="line2d_7">
      <path d="M 171.857955 512.64 
L 171.857955 69.12 
" clip-path="url(#pb505b218e7)" style="fill: none; stroke: #cccccc; stroke-width: 0.8; stroke-linecap: round"/>
     </g>
     <g id="text_7">
      <!-- 480 -->
      <g style="fill: #262626" transform="translate(167.63635 537.54543)rotate(-45)scale(0.088 -0.088)">
       <use xlink:href="#DejaVuSans-34"/>
       <use xlink:href="#DejaVuSans-38" x="63.623047"/>
       <use xlink:href="#DejaVuSans-30" x="127.246094"/>
      </g>
     </g>
    </g>
    <g id="xtick_8">
     <g id="line2d_8">
      <path d="M 188.88447 512.64 
L 188.88447 69.12 
" clip-path="url(#pb505b218e7)" style="fill: none; stroke: #cccccc; stroke-width: 0.8; stroke-linecap: round"/>
     </g>
     <g id="text_8">
      <!-- 560 -->
      <g style="fill: #262626" transform="translate(184.662865 537.54543)rotate(-45)scale(0.088 -0.088)">
       <defs>
        <path id="DejaVuSans-35" d="M 691 4666 
L 3169 4666 
L 3169 4134 
L 1269 4134 
L 1269 2991 
Q 1406 3038 1543 3061 
Q 1681 3084 1819 3084 
Q 2600 3084 3056 2656 
Q 3513 2228 3513 1497 
Q 3513 744 3044 326 
Q 2575 -91 1722 -91 
Q 1428 -91 1123 -41 
Q 819 9 494 109 
L 494 744 
Q 775 591 1075 516 
Q 1375 441 1709 441 
Q 2250 441 2565 725 
Q 2881 1009 2881 1497 
Q 2881 1984 2565 2268 
Q 2250 2553 1709 2553 
Q 1456 2553 1204 2497 
Q 953 2441 691 2322 
L 691 4666 
z
" transform="scale(0.015625)"/>
       </defs>
       <use xlink:href="#DejaVuSans-35"/>
       <use xlink:href="#DejaVuSans-36" x="63.623047"/>
       <use xlink:href="#DejaVuSans-30" x="127.246094"/>
      </g>
     </g>
    </g>
    <g id="xtick_9">
     <g id="line2d_9">
      <path d="M 205.910985 512.64 
L 205.910985 69.12 
" clip-path="url(#pb505b218e7)" style="fill: none; stroke: #cccccc; stroke-width: 0.8; stroke-linecap: round"/>
     </g>
     <g id="text_9">
      <!-- 640 -->
      <g style="fill: #262626" transform="translate(201.689381 537.54543)rotate(-45)scale(0.088 -0.088)">
       <use xlink:href="#DejaVuSans-36"/>
       <use xlink:href="#DejaVuSans-34" x="63.623047"/>
       <use xlink:href="#DejaVuSans-30" x="127.246094"/>
      </g>
     </g>
    </g>
    <g id="xtick_10">
     <g id="line2d_10">
      <path d="M 222.9375 512.64 
L 222.9375 69.12 
" clip-path="url(#pb505b218e7)" style="fill: none; stroke: #cccccc; stroke-width: 0.8; stroke-linecap: round"/>
     </g>
     <g id="text_10">
      <!-- 720 -->
      <g style="fill: #262626" transform="translate(218.715896 537.54543)rotate(-45)scale(0.088 -0.088)">
       <defs>
        <path id="DejaVuSans-37" d="M 525 4666 
L 3525 4666 
L 3525 4397 
L 1831 0 
L 1172 0 
L 2766 4134 
L 525 4134 
L 525 4666 
z
" transform="scale(0.015625)"/>
       </defs>
       <use xlink:href="#DejaVuSans-37"/>
       <use xlink:href="#DejaVuSans-32" x="63.623047"/>
       <use xlink:href="#DejaVuSans-30" x="127.246094"/>
      </g>
     </g>
    </g>
    <g id="xtick_11">
     <g id="line2d_11">
      <path d="M 239.964015 512.64 
L 239.964015 69.12 
" clip-path="url(#pb505b218e7)" style="fill: none; stroke: #cccccc; stroke-width: 0.8; stroke-linecap: round"/>
     </g>
     <g id="text_11">
      <!-- 800 -->
      <g style="fill: #262626" transform="translate(235.742411 537.54543)rotate(-45)scale(0.088 -0.088)">
       <use xlink:href="#DejaVuSans-38"/>
       <use xlink:href="#DejaVuSans-30" x="63.623047"/>
       <use xlink:href="#DejaVuSans-30" x="127.246094"/>
      </g>
     </g>
    </g>
    <g id="xtick_12">
     <g id="line2d_12">
      <path d="M 256.99053 512.64 
L 256.99053 69.12 
" clip-path="url(#pb505b218e7)" style="fill: none; stroke: #cccccc; stroke-width: 0.8; stroke-linecap: round"/>
     </g>
     <g id="text_12">
      <!-- 880 -->
      <g style="fill: #262626" transform="translate(252.768926 537.54543)rotate(-45)scale(0.088 -0.088)">
       <use xlink:href="#DejaVuSans-38"/>
       <use xlink:href="#DejaVuSans-38" x="63.623047"/>
       <use xlink:href="#DejaVuSans-30" x="127.246094"/>
      </g>
     </g>
    </g>
    <g id="xtick_13">
     <g id="line2d_13">
      <path d="M 274.017045 512.64 
L 274.017045 69.12 
" clip-path="url(#pb505b218e7)" style="fill: none; stroke: #cccccc; stroke-width: 0.8; stroke-linecap: round"/>
     </g>
     <g id="text_13">
      <!-- 960 -->
      <g style="fill: #262626" transform="translate(269.795441 537.54543)rotate(-45)scale(0.088 -0.088)">
       <defs>
        <path id="DejaVuSans-39" d="M 703 97 
L 703 672 
Q 941 559 1184 500 
Q 1428 441 1663 441 
Q 2288 441 2617 861 
Q 2947 1281 2994 2138 
Q 2813 1869 2534 1725 
Q 2256 1581 1919 1581 
Q 1219 1581 811 2004 
Q 403 2428 403 3163 
Q 403 3881 828 4315 
Q 1253 4750 1959 4750 
Q 2769 4750 3195 4129 
Q 3622 3509 3622 2328 
Q 3622 1225 3098 567 
Q 2575 -91 1691 -91 
Q 1453 -91 1209 -44 
Q 966 3 703 97 
z
M 1959 2075 
Q 2384 2075 2632 2365 
Q 2881 2656 2881 3163 
Q 2881 3666 2632 3958 
Q 2384 4250 1959 4250 
Q 1534 4250 1286 3958 
Q 1038 3666 1038 3163 
Q 1038 2656 1286 2365 
Q 1534 2075 1959 2075 
z
" transform="scale(0.015625)"/>
       </defs>
       <use xlink:href="#DejaVuSans-39"/>
       <use xlink:href="#DejaVuSans-36" x="63.623047"/>
       <use xlink:href="#DejaVuSans-30" x="127.246094"/>
      </g>
     </g>
    </g>
    <g id="xtick_14">
     <g id="line2d_14">
      <path d="M 291.043561 512.64 
L 291.043561 69.12 
" clip-path="url(#pb505b218e7)" style="fill: none; stroke: #cccccc; stroke-width: 0.8; stroke-linecap: round"/>
     </g>
     <g id="text_14">
      <!-- 1040 -->
      <g style="fill: #262626" transform="translate(284.842411 541.504521)rotate(-45)scale(0.088 -0.088)">
       <use xlink:href="#DejaVuSans-31"/>
       <use xlink:href="#DejaVuSans-30" x="63.623047"/>
       <use xlink:href="#DejaVuSans-34" x="127.246094"/>
       <use xlink:href="#DejaVuSans-30" x="190.869141"/>
      </g>
     </g>
    </g>
    <g id="xtick_15">
     <g id="line2d_15">
      <path d="M 308.070076 512.64 
L 308.070076 69.12 
" clip-path="url(#pb505b218e7)" style="fill: none; stroke: #cccccc; stroke-width: 0.8; stroke-linecap: round"/>
     </g>
     <g id="text_15">
      <!-- 1120 -->
      <g style="fill: #262626" transform="translate(301.868926 541.504521)rotate(-45)scale(0.088 -0.088)">
       <use xlink:href="#DejaVuSans-31"/>
       <use xlink:href="#DejaVuSans-31" x="63.623047"/>
       <use xlink:href="#DejaVuSans-32" x="127.246094"/>
       <use xlink:href="#DejaVuSans-30" x="190.869141"/>
      </g>
     </g>
    </g>
    <g id="xtick_16">
     <g id="line2d_16">
      <path d="M 325.096591 512.64 
L 325.096591 69.12 
" clip-path="url(#pb505b218e7)" style="fill: none; stroke: #cccccc; stroke-width: 0.8; stroke-linecap: round"/>
     </g>
     <g id="text_16">
      <!-- 1200 -->
      <g style="fill: #262626" transform="translate(318.895441 541.504521)rotate(-45)scale(0.088 -0.088)">
       <use xlink:href="#DejaVuSans-31"/>
       <use xlink:href="#DejaVuSans-32" x="63.623047"/>
       <use xlink:href="#DejaVuSans-30" x="127.246094"/>
       <use xlink:href="#DejaVuSans-30" x="190.869141"/>
      </g>
     </g>
    </g>
    <g id="xtick_17">
     <g id="line2d_17">
      <path d="M 342.123106 512.64 
L 342.123106 69.12 
" clip-path="url(#pb505b218e7)" style="fill: none; stroke: #cccccc; stroke-width: 0.8; stroke-linecap: round"/>
     </g>
     <g id="text_17">
      <!-- 1280 -->
      <g style="fill: #262626" transform="translate(335.921956 541.504521)rotate(-45)scale(0.088 -0.088)">
       <use xlink:href="#DejaVuSans-31"/>
       <use xlink:href="#DejaVuSans-32" x="63.623047"/>
       <use xlink:href="#DejaVuSans-38" x="127.246094"/>
       <use xlink:href="#DejaVuSans-30" x="190.869141"/>
      </g>
     </g>
    </g>
    <g id="xtick_18">
     <g id="line2d_18">
      <path d="M 359.149621 512.64 
L 359.149621 69.12 
" clip-path="url(#pb505b218e7)" style="fill: none; stroke: #cccccc; stroke-width: 0.8; stroke-linecap: round"/>
     </g>
     <g id="text_18">
      <!-- 1360 -->
      <g style="fill: #262626" transform="translate(352.948472 541.504521)rotate(-45)scale(0.088 -0.088)">
       <use xlink:href="#DejaVuSans-31"/>
       <use xlink:href="#DejaVuSans-33" x="63.623047"/>
       <use xlink:href="#DejaVuSans-36" x="127.246094"/>
       <use xlink:href="#DejaVuSans-30" x="190.869141"/>
      </g>
     </g>
    </g>
    <g id="xtick_19">
     <g id="line2d_19">
      <path d="M 376.176136 512.64 
L 376.176136 69.12 
" clip-path="url(#pb505b218e7)" style="fill: none; stroke: #cccccc; stroke-width: 0.8; stroke-linecap: round"/>
     </g>
     <g id="text_19">
      <!-- 1440 -->
      <g style="fill: #262626" transform="translate(369.974987 541.504521)rotate(-45)scale(0.088 -0.088)">
       <use xlink:href="#DejaVuSans-31"/>
       <use xlink:href="#DejaVuSans-34" x="63.623047"/>
       <use xlink:href="#DejaVuSans-34" x="127.246094"/>
       <use xlink:href="#DejaVuSans-30" x="190.869141"/>
      </g>
     </g>
    </g>
    <g id="text_20">
     <!-- Time (Minutes) -->
     <g style="fill: #262626" transform="translate(187.0275 554.093115)scale(0.096 -0.096)">
      <defs>
       <path id="DejaVuSans-54" d="M -19 4666 
L 3928 4666 
L 3928 4134 
L 2272 4134 
L 2272 0 
L 1638 0 
L 1638 4134 
L -19 4134 
L -19 4666 
z
" transform="scale(0.015625)"/>
       <path id="DejaVuSans-69" d="M 603 3500 
L 1178 3500 
L 1178 0 
L 603 0 
L 603 3500 
z
M 603 4863 
L 1178 4863 
L 1178 4134 
L 603 4134 
L 603 4863 
z
" transform="scale(0.015625)"/>
       <path id="DejaVuSans-6d" d="M 3328 2828 
Q 3544 3216 3844 3400 
Q 4144 3584 4550 3584 
Q 5097 3584 5394 3201 
Q 5691 2819 5691 2113 
L 5691 0 
L 5113 0 
L 5113 2094 
Q 5113 2597 4934 2840 
Q 4756 3084 4391 3084 
Q 3944 3084 3684 2787 
Q 3425 2491 3425 1978 
L 3425 0 
L 2847 0 
L 2847 2094 
Q 2847 2600 2669 2842 
Q 2491 3084 2119 3084 
Q 1678 3084 1418 2786 
Q 1159 2488 1159 1978 
L 1159 0 
L 581 0 
L 581 3500 
L 1159 3500 
L 1159 2956 
Q 1356 3278 1631 3431 
Q 1906 3584 2284 3584 
Q 2666 3584 2933 3390 
Q 3200 3197 3328 2828 
z
" transform="scale(0.015625)"/>
       <path id="DejaVuSans-65" d="M 3597 1894 
L 3597 1613 
L 953 1613 
Q 991 1019 1311 708 
Q 1631 397 2203 397 
Q 2534 397 2845 478 
Q 3156 559 3463 722 
L 3463 178 
Q 3153 47 2828 -22 
Q 2503 -91 2169 -91 
Q 1331 -91 842 396 
Q 353 884 353 1716 
Q 353 2575 817 3079 
Q 1281 3584 2069 3584 
Q 2775 3584 3186 3129 
Q 3597 2675 3597 1894 
z
M 3022 2063 
Q 3016 2534 2758 2815 
Q 2500 3097 2075 3097 
Q 1594 3097 1305 2825 
Q 1016 2553 972 2059 
L 3022 2063 
z
" transform="scale(0.015625)"/>
       <path id="DejaVuSans-20" transform="scale(0.015625)"/>
       <path id="DejaVuSans-28" d="M 1984 4856 
Q 1566 4138 1362 3434 
Q 1159 2731 1159 2009 
Q 1159 1288 1364 580 
Q 1569 -128 1984 -844 
L 1484 -844 
Q 1016 -109 783 600 
Q 550 1309 550 2009 
Q 550 2706 781 3412 
Q 1013 4119 1484 4856 
L 1984 4856 
z
" transform="scale(0.015625)"/>
       <path id="DejaVuSans-4d" d="M 628 4666 
L 1569 4666 
L 2759 1491 
L 3956 4666 
L 4897 4666 
L 4897 0 
L 4281 0 
L 4281 4097 
L 3078 897 
L 2444 897 
L 1241 4097 
L 1241 0 
L 628 0 
L 628 4666 
z
" transform="scale(0.015625)"/>
       <path id="DejaVuSans-6e" d="M 3513 2113 
L 3513 0 
L 2938 0 
L 2938 2094 
Q 2938 2591 2744 2837 
Q 2550 3084 2163 3084 
Q 1697 3084 1428 2787 
Q 1159 2491 1159 1978 
L 1159 0 
L 581 0 
L 581 3500 
L 1159 3500 
L 1159 2956 
Q 1366 3272 1645 3428 
Q 1925 3584 2291 3584 
Q 2894 3584 3203 3211 
Q 3513 2838 3513 2113 
z
" transform="scale(0.015625)"/>
       <path id="DejaVuSans-75" d="M 544 1381 
L 544 3500 
L 1119 3500 
L 1119 1403 
Q 1119 906 1312 657 
Q 1506 409 1894 409 
Q 2359 409 2629 706 
Q 2900 1003 2900 1516 
L 2900 3500 
L 3475 3500 
L 3475 0 
L 2900 0 
L 2900 538 
Q 2691 219 2414 64 
Q 2138 -91 1772 -91 
Q 1169 -91 856 284 
Q 544 659 544 1381 
z
M 1991 3584 
L 1991 3584 
z
" transform="scale(0.015625)"/>
       <path id="DejaVuSans-74" d="M 1172 4494 
L 1172 3500 
L 2356 3500 
L 2356 3053 
L 1172 3053 
L 1172 1153 
Q 1172 725 1289 603 
Q 1406 481 1766 481 
L 2356 481 
L 2356 0 
L 1766 0 
Q 1100 0 847 248 
Q 594 497 594 1153 
L 594 3053 
L 172 3053 
L 172 3500 
L 594 3500 
L 594 4494 
L 1172 4494 
z
" transform="scale(0.015625)"/>
       <path id="DejaVuSans-73" d="M 2834 3397 
L 2834 2853 
Q 2591 2978 2328 3040 
Q 2066 3103 1784 3103 
Q 1356 3103 1142 2972 
Q 928 2841 928 2578 
Q 928 2378 1081 2264 
Q 1234 2150 1697 2047 
L 1894 2003 
Q 2506 1872 2764 1633 
Q 3022 1394 3022 966 
Q 3022 478 2636 193 
Q 2250 -91 1575 -91 
Q 1294 -91 989 -36 
Q 684 19 347 128 
L 347 722 
Q 666 556 975 473 
Q 1284 391 1588 391 
Q 1994 391 2212 530 
Q 2431 669 2431 922 
Q 2431 1156 2273 1281 
Q 2116 1406 1581 1522 
L 1381 1569 
Q 847 1681 609 1914 
Q 372 2147 372 2553 
Q 372 3047 722 3315 
Q 1072 3584 1716 3584 
Q 2034 3584 2315 3537 
Q 2597 3491 2834 3397 
z
" transform="scale(0.015625)"/>
       <path id="DejaVuSans-29" d="M 513 4856 
L 1013 4856 
Q 1481 4119 1714 3412 
Q 1947 2706 1947 2009 
Q 1947 1309 1714 600 
Q 1481 -109 1013 -844 
L 513 -844 
Q 928 -128 1133 580 
Q 1338 1288 1338 2009 
Q 1338 2731 1133 3434 
Q 928 4138 513 4856 
z
" transform="scale(0.015625)"/>
      </defs>
      <use xlink:href="#DejaVuSans-54"/>
      <use xlink:href="#DejaVuSans-69" x="57.958984"/>
      <use xlink:href="#DejaVuSans-6d" x="85.742188"/>
      <use xlink:href="#DejaVuSans-65" x="183.154297"/>
      <use xlink:href="#DejaVuSans-20" x="244.677734"/>
      <use xlink:href="#DejaVuSans-28" x="276.464844"/>
      <use xlink:href="#DejaVuSans-4d" x="315.478516"/>
      <use xlink:href="#DejaVuSans-69" x="401.757812"/>
      <use xlink:href="#DejaVuSans-6e" x="429.541016"/>
      <use xlink:href="#DejaVuSans-75" x="492.919922"/>
      <use xlink:href="#DejaVuSans-74" x="556.298828"/>
      <use xlink:href="#DejaVuSans-65" x="595.507812"/>
      <use xlink:href="#DejaVuSans-73" x="657.03125"/>
      <use xlink:href="#DejaVuSans-29" x="709.130859"/>
     </g>
    </g>
   </g>
   <g id="matplotlib.axis_2">
    <g id="ytick_1">
     <g id="line2d_20">
      <path d="M 54.375 492.48 
L 391.5 492.48 
" clip-path="url(#pb505b218e7)" style="fill: none; stroke: #cccccc; stroke-width: 0.8; stroke-linecap: round"/>
     </g>
     <g id="text_21">
      <!-- 0 -->
      <g style="fill: #262626" transform="translate(40.476 495.823312)scale(0.088 -0.088)">
       <use xlink:href="#DejaVuSans-30"/>
      </g>
     </g>
    </g>
    <g id="ytick_2">
     <g id="line2d_21">
      <path d="M 54.375 476.574675 
L 391.5 476.574675 
" clip-path="url(#pb505b218e7)" style="fill: none; stroke: #cccccc; stroke-width: 0.8; stroke-linecap: round"/>
     </g>
     <g id="text_22">
      <!-- 100 -->
      <g style="fill: #262626" transform="translate(29.278 479.917987)scale(0.088 -0.088)">
       <use xlink:href="#DejaVuSans-31"/>
       <use xlink:href="#DejaVuSans-30" x="63.623047"/>
       <use xlink:href="#DejaVuSans-30" x="127.246094"/>
      </g>
     </g>
    </g>
    <g id="ytick_3">
     <g id="line2d_22">
      <path d="M 54.375 460.669349 
L 391.5 460.669349 
" clip-path="url(#pb505b218e7)" style="fill: none; stroke: #cccccc; stroke-width: 0.8; stroke-linecap: round"/>
     </g>
     <g id="text_23">
      <!-- 200 -->
      <g style="fill: #262626" transform="translate(29.278 464.012662)scale(0.088 -0.088)">
       <use xlink:href="#DejaVuSans-32"/>
       <use xlink:href="#DejaVuSans-30" x="63.623047"/>
       <use xlink:href="#DejaVuSans-30" x="127.246094"/>
      </g>
     </g>
    </g>
    <g id="ytick_4">
     <g id="line2d_23">
      <path d="M 54.375 444.764024 
L 391.5 444.764024 
" clip-path="url(#pb505b218e7)" style="fill: none; stroke: #cccccc; stroke-width: 0.8; stroke-linecap: round"/>
     </g>
     <g id="text_24">
      <!-- 300 -->
      <g style="fill: #262626" transform="translate(29.278 448.107336)scale(0.088 -0.088)">
       <use xlink:href="#DejaVuSans-33"/>
       <use xlink:href="#DejaVuSans-30" x="63.623047"/>
       <use xlink:href="#DejaVuSans-30" x="127.246094"/>
      </g>
     </g>
    </g>
    <g id="ytick_5">
     <g id="line2d_24">
      <path d="M 54.375 428.858698 
L 391.5 428.858698 
" clip-path="url(#pb505b218e7)" style="fill: none; stroke: #cccccc; stroke-width: 0.8; stroke-linecap: round"/>
     </g>
     <g id="text_25">
      <!-- 400 -->
      <g style="fill: #262626" transform="translate(29.278 432.202011)scale(0.088 -0.088)">
       <use xlink:href="#DejaVuSans-34"/>
       <use xlink:href="#DejaVuSans-30" x="63.623047"/>
       <use xlink:href="#DejaVuSans-30" x="127.246094"/>
      </g>
     </g>
    </g>
    <g id="ytick_6">
     <g id="line2d_25">
      <path d="M 54.375 412.953373 
L 391.5 412.953373 
" clip-path="url(#pb505b218e7)" style="fill: none; stroke: #cccccc; stroke-width: 0.8; stroke-linecap: round"/>
     </g>
     <g id="text_26">
      <!-- 500 -->
      <g style="fill: #262626" transform="translate(29.278 416.296685)scale(0.088 -0.088)">
       <use xlink:href="#DejaVuSans-35"/>
       <use xlink:href="#DejaVuSans-30" x="63.623047"/>
       <use xlink:href="#DejaVuSans-30" x="127.246094"/>
      </g>
     </g>
    </g>
    <g id="ytick_7">
     <g id="line2d_26">
      <path d="M 54.375 397.048047 
L 391.5 397.048047 
" clip-path="url(#pb505b218e7)" style="fill: none; stroke: #cccccc; stroke-width: 0.8; stroke-linecap: round"/>
     </g>
     <g id="text_27">
      <!-- 600 -->
      <g style="fill: #262626" transform="translate(29.278 400.39136)scale(0.088 -0.088)">
       <use xlink:href="#DejaVuSans-36"/>
       <use xlink:href="#DejaVuSans-30" x="63.623047"/>
       <use xlink:href="#DejaVuSans-30" x="127.246094"/>
      </g>
     </g>
    </g>
    <g id="ytick_8">
     <g id="line2d_27">
      <path d="M 54.375 381.142722 
L 391.5 381.142722 
" clip-path="url(#pb505b218e7)" style="fill: none; stroke: #cccccc; stroke-width: 0.8; stroke-linecap: round"/>
     </g>
     <g id="text_28">
      <!-- 700 -->
      <g style="fill: #262626" transform="translate(29.278 384.486034)scale(0.088 -0.088)">
       <use xlink:href="#DejaVuSans-37"/>
       <use xlink:href="#DejaVuSans-30" x="63.623047"/>
       <use xlink:href="#DejaVuSans-30" x="127.246094"/>
      </g>
     </g>
    </g>
    <g id="ytick_9">
     <g id="line2d_28">
      <path d="M 54.375 365.237396 
L 391.5 365.237396 
" clip-path="url(#pb505b218e7)" style="fill: none; stroke: #cccccc; stroke-width: 0.8; stroke-linecap: round"/>
     </g>
     <g id="text_29">
      <!-- 800 -->
      <g style="fill: #262626" transform="translate(29.278 368.580709)scale(0.088 -0.088)">
       <use xlink:href="#DejaVuSans-38"/>
       <use xlink:href="#DejaVuSans-30" x="63.623047"/>
       <use xlink:href="#DejaVuSans-30" x="127.246094"/>
      </g>
     </g>
    </g>
    <g id="ytick_10">
     <g id="line2d_29">
      <path d="M 54.375 349.332071 
L 391.5 349.332071 
" clip-path="url(#pb505b218e7)" style="fill: none; stroke: #cccccc; stroke-width: 0.8; stroke-linecap: round"/>
     </g>
     <g id="text_30">
      <!-- 900 -->
      <g style="fill: #262626" transform="translate(29.278 352.675384)scale(0.088 -0.088)">
       <use xlink:href="#DejaVuSans-39"/>
       <use xlink:href="#DejaVuSans-30" x="63.623047"/>
       <use xlink:href="#DejaVuSans-30" x="127.246094"/>
      </g>
     </g>
    </g>
    <g id="ytick_11">
     <g id="line2d_30">
      <path d="M 54.375 333.426746 
L 391.5 333.426746 
" clip-path="url(#pb505b218e7)" style="fill: none; stroke: #cccccc; stroke-width: 0.8; stroke-linecap: round"/>
     </g>
     <g id="text_31">
      <!-- 1000 -->
      <g style="fill: #262626" transform="translate(23.679 336.770058)scale(0.088 -0.088)">
       <use xlink:href="#DejaVuSans-31"/>
       <use xlink:href="#DejaVuSans-30" x="63.623047"/>
       <use xlink:href="#DejaVuSans-30" x="127.246094"/>
       <use xlink:href="#DejaVuSans-30" x="190.869141"/>
      </g>
     </g>
    </g>
    <g id="ytick_12">
     <g id="line2d_31">
      <path d="M 54.375 317.52142 
L 391.5 317.52142 
" clip-path="url(#pb505b218e7)" style="fill: none; stroke: #cccccc; stroke-width: 0.8; stroke-linecap: round"/>
     </g>
     <g id="text_32">
      <!-- 1100 -->
      <g style="fill: #262626" transform="translate(23.679 320.864733)scale(0.088 -0.088)">
       <use xlink:href="#DejaVuSans-31"/>
       <use xlink:href="#DejaVuSans-31" x="63.623047"/>
       <use xlink:href="#DejaVuSans-30" x="127.246094"/>
       <use xlink:href="#DejaVuSans-30" x="190.869141"/>
      </g>
     </g>
    </g>
    <g id="ytick_13">
     <g id="line2d_32">
      <path d="M 54.375 301.616095 
L 391.5 301.616095 
" clip-path="url(#pb505b218e7)" style="fill: none; stroke: #cccccc; stroke-width: 0.8; stroke-linecap: round"/>
     </g>
     <g id="text_33">
      <!-- 1200 -->
      <g style="fill: #262626" transform="translate(23.679 304.959407)scale(0.088 -0.088)">
       <use xlink:href="#DejaVuSans-31"/>
       <use xlink:href="#DejaVuSans-32" x="63.623047"/>
       <use xlink:href="#DejaVuSans-30" x="127.246094"/>
       <use xlink:href="#DejaVuSans-30" x="190.869141"/>
      </g>
     </g>
    </g>
    <g id="ytick_14">
     <g id="line2d_33">
      <path d="M 54.375 285.710769 
L 391.5 285.710769 
" clip-path="url(#pb505b218e7)" style="fill: none; stroke: #cccccc; stroke-width: 0.8; stroke-linecap: round"/>
     </g>
     <g id="text_34">
      <!-- 1300 -->
      <g style="fill: #262626" transform="translate(23.679 289.054082)scale(0.088 -0.088)">
       <use xlink:href="#DejaVuSans-31"/>
       <use xlink:href="#DejaVuSans-33" x="63.623047"/>
       <use xlink:href="#DejaVuSans-30" x="127.246094"/>
       <use xlink:href="#DejaVuSans-30" x="190.869141"/>
      </g>
     </g>
    </g>
    <g id="ytick_15">
     <g id="line2d_34">
      <path d="M 54.375 269.805444 
L 391.5 269.805444 
" clip-path="url(#pb505b218e7)" style="fill: none; stroke: #cccccc; stroke-width: 0.8; stroke-linecap: round"/>
     </g>
     <g id="text_35">
      <!-- 1400 -->
      <g style="fill: #262626" transform="translate(23.679 273.148756)scale(0.088 -0.088)">
       <use xlink:href="#DejaVuSans-31"/>
       <use xlink:href="#DejaVuSans-34" x="63.623047"/>
       <use xlink:href="#DejaVuSans-30" x="127.246094"/>
       <use xlink:href="#DejaVuSans-30" x="190.869141"/>
      </g>
     </g>
    </g>
    <g id="ytick_16">
     <g id="line2d_35">
      <path d="M 54.375 253.900118 
L 391.5 253.900118 
" clip-path="url(#pb505b218e7)" style="fill: none; stroke: #cccccc; stroke-width: 0.8; stroke-linecap: round"/>
     </g>
     <g id="text_36">
      <!-- 1500 -->
      <g style="fill: #262626" transform="translate(23.679 257.243431)scale(0.088 -0.088)">
       <use xlink:href="#DejaVuSans-31"/>
       <use xlink:href="#DejaVuSans-35" x="63.623047"/>
       <use xlink:href="#DejaVuSans-30" x="127.246094"/>
       <use xlink:href="#DejaVuSans-30" x="190.869141"/>
      </g>
     </g>
    </g>
    <g id="ytick_17">
     <g id="line2d_36">
      <path d="M 54.375 237.994793 
L 391.5 237.994793 
" clip-path="url(#pb505b218e7)" style="fill: none; stroke: #cccccc; stroke-width: 0.8; stroke-linecap: round"/>
     </g>
     <g id="text_37">
      <!-- 1600 -->
      <g style="fill: #262626" transform="translate(23.679 241.338105)scale(0.088 -0.088)">
       <use xlink:href="#DejaVuSans-31"/>
       <use xlink:href="#DejaVuSans-36" x="63.623047"/>
       <use xlink:href="#DejaVuSans-30" x="127.246094"/>
       <use xlink:href="#DejaVuSans-30" x="190.869141"/>
      </g>
     </g>
    </g>
    <g id="ytick_18">
     <g id="line2d_37">
      <path d="M 54.375 222.089467 
L 391.5 222.089467 
" clip-path="url(#pb505b218e7)" style="fill: none; stroke: #cccccc; stroke-width: 0.8; stroke-linecap: round"/>
     </g>
     <g id="text_38">
      <!-- 1700 -->
      <g style="fill: #262626" transform="translate(23.679 225.43278)scale(0.088 -0.088)">
       <use xlink:href="#DejaVuSans-31"/>
       <use xlink:href="#DejaVuSans-37" x="63.623047"/>
       <use xlink:href="#DejaVuSans-30" x="127.246094"/>
       <use xlink:href="#DejaVuSans-30" x="190.869141"/>
      </g>
     </g>
    </g>
    <g id="ytick_19">
     <g id="line2d_38">
      <path d="M 54.375 206.184142 
L 391.5 206.184142 
" clip-path="url(#pb505b218e7)" style="fill: none; stroke: #cccccc; stroke-width: 0.8; stroke-linecap: round"/>
     </g>
     <g id="text_39">
      <!-- 1800 -->
      <g style="fill: #262626" transform="translate(23.679 209.527455)scale(0.088 -0.088)">
       <use xlink:href="#DejaVuSans-31"/>
       <use xlink:href="#DejaVuSans-38" x="63.623047"/>
       <use xlink:href="#DejaVuSans-30" x="127.246094"/>
       <use xlink:href="#DejaVuSans-30" x="190.869141"/>
      </g>
     </g>
    </g>
    <g id="ytick_20">
     <g id="line2d_39">
      <path d="M 54.375 190.278817 
L 391.5 190.278817 
" clip-path="url(#pb505b218e7)" style="fill: none; stroke: #cccccc; stroke-width: 0.8; stroke-linecap: round"/>
     </g>
     <g id="text_40">
      <!-- 1900 -->
      <g style="fill: #262626" transform="translate(23.679 193.622129)scale(0.088 -0.088)">
       <use xlink:href="#DejaVuSans-31"/>
       <use xlink:href="#DejaVuSans-39" x="63.623047"/>
       <use xlink:href="#DejaVuSans-30" x="127.246094"/>
       <use xlink:href="#DejaVuSans-30" x="190.869141"/>
      </g>
     </g>
    </g>
    <g id="ytick_21">
     <g id="line2d_40">
      <path d="M 54.375 174.373491 
L 391.5 174.373491 
" clip-path="url(#pb505b218e7)" style="fill: none; stroke: #cccccc; stroke-width: 0.8; stroke-linecap: round"/>
     </g>
     <g id="text_41">
      <!-- 2000 -->
      <g style="fill: #262626" transform="translate(23.679 177.716804)scale(0.088 -0.088)">
       <use xlink:href="#DejaVuSans-32"/>
       <use xlink:href="#DejaVuSans-30" x="63.623047"/>
       <use xlink:href="#DejaVuSans-30" x="127.246094"/>
       <use xlink:href="#DejaVuSans-30" x="190.869141"/>
      </g>
     </g>
    </g>
    <g id="ytick_22">
     <g id="line2d_41">
      <path d="M 54.375 158.468166 
L 391.5 158.468166 
" clip-path="url(#pb505b218e7)" style="fill: none; stroke: #cccccc; stroke-width: 0.8; stroke-linecap: round"/>
     </g>
     <g id="text_42">
      <!-- 2100 -->
      <g style="fill: #262626" transform="translate(23.679 161.811478)scale(0.088 -0.088)">
       <use xlink:href="#DejaVuSans-32"/>
       <use xlink:href="#DejaVuSans-31" x="63.623047"/>
       <use xlink:href="#DejaVuSans-30" x="127.246094"/>
       <use xlink:href="#DejaVuSans-30" x="190.869141"/>
      </g>
     </g>
    </g>
    <g id="ytick_23">
     <g id="line2d_42">
      <path d="M 54.375 142.56284 
L 391.5 142.56284 
" clip-path="url(#pb505b218e7)" style="fill: none; stroke: #cccccc; stroke-width: 0.8; stroke-linecap: round"/>
     </g>
     <g id="text_43">
      <!-- 2200 -->
      <g style="fill: #262626" transform="translate(23.679 145.906153)scale(0.088 -0.088)">
       <use xlink:href="#DejaVuSans-32"/>
       <use xlink:href="#DejaVuSans-32" x="63.623047"/>
       <use xlink:href="#DejaVuSans-30" x="127.246094"/>
       <use xlink:href="#DejaVuSans-30" x="190.869141"/>
      </g>
     </g>
    </g>
    <g id="ytick_24">
     <g id="line2d_43">
      <path d="M 54.375 126.657515 
L 391.5 126.657515 
" clip-path="url(#pb505b218e7)" style="fill: none; stroke: #cccccc; stroke-width: 0.8; stroke-linecap: round"/>
     </g>
     <g id="text_44">
      <!-- 2300 -->
      <g style="fill: #262626" transform="translate(23.679 130.000827)scale(0.088 -0.088)">
       <use xlink:href="#DejaVuSans-32"/>
       <use xlink:href="#DejaVuSans-33" x="63.623047"/>
       <use xlink:href="#DejaVuSans-30" x="127.246094"/>
       <use xlink:href="#DejaVuSans-30" x="190.869141"/>
      </g>
     </g>
    </g>
    <g id="ytick_25">
     <g id="line2d_44">
      <path d="M 54.375 110.752189 
L 391.5 110.752189 
" clip-path="url(#pb505b218e7)" style="fill: none; stroke: #cccccc; stroke-width: 0.8; stroke-linecap: round"/>
     </g>
     <g id="text_45">
      <!-- 2400 -->
      <g style="fill: #262626" transform="translate(23.679 114.095502)scale(0.088 -0.088)">
       <use xlink:href="#DejaVuSans-32"/>
       <use xlink:href="#DejaVuSans-34" x="63.623047"/>
       <use xlink:href="#DejaVuSans-30" x="127.246094"/>
       <use xlink:href="#DejaVuSans-30" x="190.869141"/>
      </g>
     </g>
    </g>
    <g id="ytick_26">
     <g id="line2d_45">
      <path d="M 54.375 94.846864 
L 391.5 94.846864 
" clip-path="url(#pb505b218e7)" style="fill: none; stroke: #cccccc; stroke-width: 0.8; stroke-linecap: round"/>
     </g>
     <g id="text_46">
      <!-- 2500 -->
      <g style="fill: #262626" transform="translate(23.679 98.190176)scale(0.088 -0.088)">
       <use xlink:href="#DejaVuSans-32"/>
       <use xlink:href="#DejaVuSans-35" x="63.623047"/>
       <use xlink:href="#DejaVuSans-30" x="127.246094"/>
       <use xlink:href="#DejaVuSans-30" x="190.869141"/>
      </g>
     </g>
    </g>
    <g id="text_47">
     <!-- Edge Coverages -->
     <g style="fill: #262626" transform="translate(17.6825 329.98575)rotate(-90)scale(0.096 -0.096)">
      <defs>
       <path id="DejaVuSans-45" d="M 628 4666 
L 3578 4666 
L 3578 4134 
L 1259 4134 
L 1259 2753 
L 3481 2753 
L 3481 2222 
L 1259 2222 
L 1259 531 
L 3634 531 
L 3634 0 
L 628 0 
L 628 4666 
z
" transform="scale(0.015625)"/>
       <path id="DejaVuSans-64" d="M 2906 2969 
L 2906 4863 
L 3481 4863 
L 3481 0 
L 2906 0 
L 2906 525 
Q 2725 213 2448 61 
Q 2172 -91 1784 -91 
Q 1150 -91 751 415 
Q 353 922 353 1747 
Q 353 2572 751 3078 
Q 1150 3584 1784 3584 
Q 2172 3584 2448 3432 
Q 2725 3281 2906 2969 
z
M 947 1747 
Q 947 1113 1208 752 
Q 1469 391 1925 391 
Q 2381 391 2643 752 
Q 2906 1113 2906 1747 
Q 2906 2381 2643 2742 
Q 2381 3103 1925 3103 
Q 1469 3103 1208 2742 
Q 947 2381 947 1747 
z
" transform="scale(0.015625)"/>
       <path id="DejaVuSans-67" d="M 2906 1791 
Q 2906 2416 2648 2759 
Q 2391 3103 1925 3103 
Q 1463 3103 1205 2759 
Q 947 2416 947 1791 
Q 947 1169 1205 825 
Q 1463 481 1925 481 
Q 2391 481 2648 825 
Q 2906 1169 2906 1791 
z
M 3481 434 
Q 3481 -459 3084 -895 
Q 2688 -1331 1869 -1331 
Q 1566 -1331 1297 -1286 
Q 1028 -1241 775 -1147 
L 775 -588 
Q 1028 -725 1275 -790 
Q 1522 -856 1778 -856 
Q 2344 -856 2625 -561 
Q 2906 -266 2906 331 
L 2906 616 
Q 2728 306 2450 153 
Q 2172 0 1784 0 
Q 1141 0 747 490 
Q 353 981 353 1791 
Q 353 2603 747 3093 
Q 1141 3584 1784 3584 
Q 2172 3584 2450 3431 
Q 2728 3278 2906 2969 
L 2906 3500 
L 3481 3500 
L 3481 434 
z
" transform="scale(0.015625)"/>
       <path id="DejaVuSans-43" d="M 4122 4306 
L 4122 3641 
Q 3803 3938 3442 4084 
Q 3081 4231 2675 4231 
Q 1875 4231 1450 3742 
Q 1025 3253 1025 2328 
Q 1025 1406 1450 917 
Q 1875 428 2675 428 
Q 3081 428 3442 575 
Q 3803 722 4122 1019 
L 4122 359 
Q 3791 134 3420 21 
Q 3050 -91 2638 -91 
Q 1578 -91 968 557 
Q 359 1206 359 2328 
Q 359 3453 968 4101 
Q 1578 4750 2638 4750 
Q 3056 4750 3426 4639 
Q 3797 4528 4122 4306 
z
" transform="scale(0.015625)"/>
       <path id="DejaVuSans-6f" d="M 1959 3097 
Q 1497 3097 1228 2736 
Q 959 2375 959 1747 
Q 959 1119 1226 758 
Q 1494 397 1959 397 
Q 2419 397 2687 759 
Q 2956 1122 2956 1747 
Q 2956 2369 2687 2733 
Q 2419 3097 1959 3097 
z
M 1959 3584 
Q 2709 3584 3137 3096 
Q 3566 2609 3566 1747 
Q 3566 888 3137 398 
Q 2709 -91 1959 -91 
Q 1206 -91 779 398 
Q 353 888 353 1747 
Q 353 2609 779 3096 
Q 1206 3584 1959 3584 
z
" transform="scale(0.015625)"/>
       <path id="DejaVuSans-76" d="M 191 3500 
L 800 3500 
L 1894 563 
L 2988 3500 
L 3597 3500 
L 2284 0 
L 1503 0 
L 191 3500 
z
" transform="scale(0.015625)"/>
       <path id="DejaVuSans-72" d="M 2631 2963 
Q 2534 3019 2420 3045 
Q 2306 3072 2169 3072 
Q 1681 3072 1420 2755 
Q 1159 2438 1159 1844 
L 1159 0 
L 581 0 
L 581 3500 
L 1159 3500 
L 1159 2956 
Q 1341 3275 1631 3429 
Q 1922 3584 2338 3584 
Q 2397 3584 2469 3576 
Q 2541 3569 2628 3553 
L 2631 2963 
z
" transform="scale(0.015625)"/>
       <path id="DejaVuSans-61" d="M 2194 1759 
Q 1497 1759 1228 1600 
Q 959 1441 959 1056 
Q 959 750 1161 570 
Q 1363 391 1709 391 
Q 2188 391 2477 730 
Q 2766 1069 2766 1631 
L 2766 1759 
L 2194 1759 
z
M 3341 1997 
L 3341 0 
L 2766 0 
L 2766 531 
Q 2569 213 2275 61 
Q 1981 -91 1556 -91 
Q 1019 -91 701 211 
Q 384 513 384 1019 
Q 384 1609 779 1909 
Q 1175 2209 1959 2209 
L 2766 2209 
L 2766 2266 
Q 2766 2663 2505 2880 
Q 2244 3097 1772 3097 
Q 1472 3097 1187 3025 
Q 903 2953 641 2809 
L 641 3341 
Q 956 3463 1253 3523 
Q 1550 3584 1831 3584 
Q 2591 3584 2966 3190 
Q 3341 2797 3341 1997 
z
" transform="scale(0.015625)"/>
      </defs>
      <use xlink:href="#DejaVuSans-45"/>
      <use xlink:href="#DejaVuSans-64" x="63.183594"/>
      <use xlink:href="#DejaVuSans-67" x="126.660156"/>
      <use xlink:href="#DejaVuSans-65" x="190.136719"/>
      <use xlink:href="#DejaVuSans-20" x="251.660156"/>
      <use xlink:href="#DejaVuSans-43" x="283.447266"/>
      <use xlink:href="#DejaVuSans-6f" x="353.271484"/>
      <use xlink:href="#DejaVuSans-76" x="414.453125"/>
      <use xlink:href="#DejaVuSans-65" x="473.632812"/>
      <use xlink:href="#DejaVuSans-72" x="535.15625"/>
      <use xlink:href="#DejaVuSans-61" x="576.269531"/>
      <use xlink:href="#DejaVuSans-67" x="637.548828"/>
      <use xlink:href="#DejaVuSans-65" x="701.025391"/>
      <use xlink:href="#DejaVuSans-73" x="762.548828"/>
     </g>
    </g>
   </g>
   <g id="PolyCollection_1">
    <defs>
     <path id="me11fb90850" d="M 69.698864 -86.382959 
L 69.698864 -83.52 
L 69.698864 -86.382959 
L 69.698864 -86.382959 
z
" style="stroke: #db5f57; stroke-opacity: 0.2; stroke-width: 0.8"/>
    </defs>
    <g clip-path="url(#pb505b218e7)">
     <use xlink:href="#me11fb90850" x="0" y="576" style="fill: #db5f57; fill-opacity: 0.2; stroke: #db5f57; stroke-opacity: 0.2; stroke-width: 0.8"/>
    </g>
   </g>
   <g id="PolyCollection_2">
    <defs>
     <path id="mb62cd62411" d="M 69.698864 -84.951479 
L 69.698864 -83.52 
L 69.698864 -84.951479 
L 69.698864 -84.951479 
z
" style="stroke: #b9db57; stroke-opacity: 0.2; stroke-width: 0.8"/>
    </defs>
    <g clip-path="url(#pb505b218e7)">
     <use xlink:href="#mb62cd62411" x="0" y="576" style="fill: #b9db57; fill-opacity: 0.2; stroke: #b9db57; stroke-opacity: 0.2; stroke-width: 0.8"/>
    </g>
   </g>
   <g id="PolyCollection_3">
    <defs>
     <path id="m99aba21941" d="M 69.698864 -85.746746 
L 69.698864 -83.52 
L 69.698864 -85.746746 
L 69.698864 -85.746746 
z
" style="stroke: #57db94; stroke-opacity: 0.2; stroke-width: 0.8"/>
    </defs>
    <g clip-path="url(#pb505b218e7)">
     <use xlink:href="#m99aba21941" x="0" y="576" style="fill: #57db94; fill-opacity: 0.2; stroke: #57db94; stroke-opacity: 0.2; stroke-width: 0.8"/>
    </g>
   </g>
   <g id="PolyCollection_4">
    <defs>
     <path id="madfb760359" d="M 69.698864 -86.223905 
L 69.698864 -83.52 
L 69.698864 -86.223905 
L 69.698864 -86.223905 
z
" style="stroke: #5784db; stroke-opacity: 0.2; stroke-width: 0.8"/>
    </defs>
    <g clip-path="url(#pb505b218e7)">
     <use xlink:href="#madfb760359" x="0" y="576" style="fill: #5784db; fill-opacity: 0.2; stroke: #5784db; stroke-opacity: 0.2; stroke-width: 0.8"/>
    </g>
   </g>
   <g id="PolyCollection_5">
    <defs>
     <path id="mfd81080a59" d="M 69.698864 -86.382959 
L 69.698864 -83.52 
L 69.698864 -86.382959 
L 69.698864 -86.382959 
z
" style="stroke: #c957db; stroke-opacity: 0.2; stroke-width: 0.8"/>
    </defs>
    <g clip-path="url(#pb505b218e7)">
     <use xlink:href="#mfd81080a59" x="0" y="576" style="fill: #c957db; fill-opacity: 0.2; stroke: #c957db; stroke-opacity: 0.2; stroke-width: 0.8"/>
    </g>
   </g>
   <g id="line2d_46">
    <path d="M 69.698864 491.048521 
L 69.911695 489.457988 
L 70.550189 489.457988 
L 70.763021 488.821775 
L 71.188684 486.276923 
L 71.401515 486.276923 
L 71.614347 486.11787 
L 71.827178 486.11787 
L 72.465672 483.891124 
L 72.678504 483.732071 
L 73.316998 452.239527 
L 74.593987 420.110769 
L 75.445312 408.817988 
L 76.083807 387.822959 
L 76.296638 386.232426 
L 76.935133 379.07503 
L 77.147964 378.12071 
L 77.360795 364.124024 
L 77.573627 358.239053 
L 77.786458 356.012308 
L 77.99929 345.037633 
L 78.424953 344.242367 
L 78.637784 344.242367 
L 79.063447 314.499408 
L 79.48911 314.499408 
L 79.701941 314.181302 
L 80.127604 313.226982 
L 80.340436 313.226982 
L 80.766098 312.908876 
L 80.97893 311.795503 
L 81.191761 307.978225 
L 81.404593 301.775148 
L 82.043087 255.649704 
L 82.255919 254.536331 
L 82.46875 254.536331 
L 82.681581 253.741065 
L 82.894413 250.56 
L 83.107244 236.722367 
L 83.320076 236.563314 
L 83.532907 236.245207 
L 83.95857 236.245207 
L 84.171402 235.768047 
L 84.384233 234.972781 
L 84.809896 234.972781 
L 85.022727 231.791716 
L 85.235559 230.99645 
L 85.44839 229.405917 
L 85.661222 228.769704 
L 85.874053 228.769704 
L 86.086884 225.270533 
L 86.299716 225.270533 
L 86.512547 225.111479 
L 87.576705 225.111479 
L 87.789536 222.407574 
L 88.002367 222.248521 
L 88.42803 222.248521 
L 88.640862 218.272189 
L 88.853693 216.999763 
L 89.066525 212.705325 
L 89.279356 212.705325 
L 89.492188 212.387219 
L 89.91785 212.387219 
L 90.343513 212.069112 
L 90.556345 211.114793 
L 90.769176 204.434556 
L 90.982008 202.048757 
L 91.620502 202.048757 
L 91.833333 201.571598 
L 92.046165 201.571598 
L 92.258996 201.412544 
L 93.323153 201.412544 
L 93.535985 201.253491 
L 93.961648 201.253491 
L 94.174479 201.094438 
L 94.387311 200.617278 
L 94.600142 197.75432 
L 95.664299 197.75432 
L 95.877131 197.436213 
L 96.089962 192.982722 
L 96.302794 192.346509 
L 96.515625 191.233136 
L 96.728456 190.91503 
L 96.941288 190.91503 
L 97.154119 190.43787 
L 97.579782 188.370178 
L 97.792614 187.893018 
L 98.005445 187.733964 
L 98.643939 187.733964 
L 98.856771 187.574911 
L 99.708097 186.461538 
L 100.346591 186.461538 
L 100.559422 186.302485 
L 101.62358 186.302485 
L 101.836411 186.143432 
L 102.262074 184.552899 
L 102.687737 183.12142 
L 102.900568 183.12142 
L 103.1134 182.962367 
L 103.751894 179.145089 
L 103.964725 178.986036 
L 104.390388 177.872663 
L 104.60322 177.713609 
L 104.816051 177.395503 
L 105.667377 177.395503 
L 106.09304 176.123077 
L 106.305871 175.964024 
L 106.518703 175.168757 
L 106.731534 173.578225 
L 106.944366 173.578225 
L 107.157197 173.419172 
L 107.370028 173.419172 
L 107.58286 172.942012 
L 107.795691 171.828639 
L 108.221354 170.715266 
L 108.647017 169.124734 
L 108.859848 168.806627 
L 109.285511 167.375148 
L 109.498343 167.375148 
L 109.711174 167.057041 
L 109.924006 167.057041 
L 110.349669 164.989349 
L 110.5625 164.671243 
L 110.775331 164.671243 
L 110.988163 164.512189 
L 111.200994 164.512189 
L 111.413826 164.194083 
L 112.05232 164.194083 
L 112.265152 164.03503 
L 113.754972 164.03503 
L 114.606297 161.808284 
L 115.03196 161.808284 
L 115.244792 161.649231 
L 116.52178 159.899645 
L 116.734612 159.740592 
L 116.947443 158.945325 
L 117.160275 158.786272 
L 117.585938 158.150059 
L 118.0116 158.150059 
L 118.224432 157.672899 
L 118.437263 157.513846 
L 118.862926 157.513846 
L 119.075758 157.354793 
L 119.288589 157.354793 
L 119.50142 156.877633 
L 119.714252 156.877633 
L 120.139915 155.76426 
L 120.352746 155.76426 
L 120.778409 155.446154 
L 120.991241 155.446154 
L 121.204072 155.287101 
L 122.481061 155.287101 
L 122.693892 155.128047 
L 124.183712 155.128047 
L 124.396544 154.968994 
L 125.460701 154.968994 
L 125.673532 154.809941 
L 125.886364 153.537515 
L 126.099195 153.378462 
L 126.312027 153.378462 
L 126.950521 152.106036 
L 127.376184 151.628876 
L 128.227509 150.992663 
L 129.291667 150.992663 
L 129.504498 150.833609 
L 135.889441 150.833609 
L 136.102273 150.35645 
L 136.740767 150.35645 
L 136.953598 149.87929 
L 137.16643 149.720237 
L 138.017756 149.720237 
L 138.230587 149.243077 
L 138.443419 149.084024 
L 138.65625 149.084024 
L 139.294744 147.970651 
L 139.507576 147.493491 
L 139.720407 147.334438 
L 139.933239 147.334438 
L 140.14607 147.175385 
L 142.487216 147.175385 
L 142.700047 147.016331 
L 147.382339 147.016331 
L 147.59517 146.857278 
L 147.808002 145.266746 
L 148.233665 144.471479 
L 148.446496 143.04 
L 148.872159 142.244734 
L 149.297822 141.290414 
L 149.510653 140.972308 
L 156.321259 140.972308 
L 156.746922 140.177041 
L 159.726562 140.177041 
L 160.152225 139.699882 
L 160.365057 139.699882 
L 160.577888 139.540828 
L 161.429214 139.540828 
L 161.642045 139.381775 
L 163.131866 139.381775 
L 163.344697 139.222722 
L 164.196023 139.222722 
L 164.408854 138.904615 
L 164.621686 138.904615 
L 164.834517 138.745562 
L 167.388494 138.745562 
L 167.601326 138.586509 
L 170.368134 138.586509 
L 170.580966 138.427456 
L 173.773438 138.427456 
L 173.986269 138.268402 
L 177.391572 138.268402 
L 177.604403 138.109349 
L 188.033144 138.109349 
L 188.245975 137.950296 
L 204.846828 137.950296 
L 205.272491 137.314083 
L 205.698153 137.314083 
L 205.910985 137.15503 
L 206.549479 137.15503 
L 206.762311 136.995976 
L 215.701231 136.995976 
L 216.126894 136.67787 
L 216.552557 134.928284 
L 216.765388 134.769231 
L 217.191051 134.769231 
L 217.403883 134.610178 
L 221.44768 134.610178 
L 221.660511 134.292071 
L 222.086174 134.292071 
L 222.299006 133.973964 
L 259.544508 133.973964 
L 259.757339 133.496805 
L 275.506866 133.496805 
L 275.719697 133.337751 
L 281.040483 133.337751 
L 281.253314 133.178698 
L 327.224905 133.178698 
L 327.437737 133.019645 
L 344.889915 133.019645 
L 345.102746 132.860592 
L 356.595644 132.860592 
L 356.808475 132.701538 
L 360.000947 132.701538 
L 360.213778 129.997633 
L 360.42661 129.520473 
L 361.065104 127.452781 
L 361.490767 126.498462 
L 361.91643 126.498462 
L 362.129261 124.907929 
L 362.342093 124.430769 
L 362.767756 124.430769 
L 362.980587 124.271716 
L 365.747396 124.271716 
L 365.960227 124.112663 
L 367.450047 124.112663 
L 367.662879 123.953609 
L 367.87571 123.47645 
L 368.939867 123.47645 
L 369.36553 118.704852 
L 369.791193 117.273373 
L 373.834991 117.273373 
L 374.260653 116.955266 
L 374.686316 116.955266 
L 374.899148 116.16 
L 375.537642 116.16 
L 375.750473 115.523787 
L 376.176136 115.523787 
L 376.176136 115.523787 
" clip-path="url(#pb505b218e7)" style="fill: none; stroke: #db5f57; stroke-width: 1.2; stroke-linecap: round"/>
   </g>
   <g id="line2d_47">
    <path d="M 69.698864 491.76426 
L 69.911695 490.889467 
L 70.124527 490.889467 
L 70.337358 490.730414 
L 70.550189 489.617041 
L 70.763021 489.617041 
L 71.188684 487.708402 
L 71.827178 487.708402 
L 72.465672 485.322604 
L 72.678504 485.16355 
L 72.891335 476.574675 
L 73.104167 474.347929 
L 73.52983 472.121183 
L 73.742661 445.718343 
L 73.955492 436.970414 
L 74.381155 434.743669 
L 74.593987 433.471243 
L 74.806818 433.312189 
L 75.01965 432.83503 
L 75.232481 415.339172 
L 75.445312 410.726627 
L 75.658144 410.408521 
L 76.722301 410.408521 
L 76.935133 410.249467 
L 77.360795 410.249467 
L 77.573627 409.772308 
L 77.786458 409.772308 
L 77.99929 341.061302 
L 78.212121 340.266036 
L 78.424953 340.266036 
L 78.637784 336.130651 
L 81.617424 336.130651 
L 82.255919 237.35858 
L 82.46875 236.563314 
L 83.95857 236.563314 
L 84.171402 215.727337 
L 84.384233 215.568284 
L 84.597064 215.568284 
L 84.809896 215.409231 
L 85.874053 215.409231 
L 86.086884 215.250178 
L 86.299716 204.434556 
L 88.002367 204.434556 
L 88.215199 200.458225 
L 88.42803 200.299172 
L 88.640862 200.299172 
L 88.853693 199.981065 
L 93.535985 199.981065 
L 93.748816 186.779645 
L 93.961648 181.053728 
L 94.174479 181.053728 
L 94.387311 180.735621 
L 98.643939 180.735621 
L 98.856771 168.011361 
L 99.069602 167.852308 
L 104.177557 167.852308 
L 104.390388 158.627219 
L 106.518703 158.627219 
L 106.731534 158.468166 
L 107.58286 158.468166 
L 107.795691 153.060355 
L 112.477983 153.060355 
L 112.690814 144.471479 
L 116.734612 144.471479 
L 116.947443 144.312426 
L 139.081913 144.312426 
L 139.294744 129.043314 
L 139.507576 128.725207 
L 142.487216 128.725207 
L 142.700047 127.452781 
L 146.10535 127.452781 
L 146.318182 127.293728 
L 148.872159 127.293728 
L 149.084991 122.681183 
L 171.432292 122.681183 
L 171.645123 118.545799 
L 171.857955 118.545799 
L 172.070786 118.386746 
L 175.68892 118.386746 
L 176.114583 118.068639 
L 180.796875 118.068639 
L 181.009706 117.909586 
L 187.820312 117.909586 
L 188.033144 117.750533 
L 190.799953 117.750533 
L 191.012784 117.591479 
L 225.704309 117.591479 
L 225.91714 113.933254 
L 244.646307 113.933254 
L 244.859138 113.774201 
L 271.6759 113.774201 
L 271.888731 113.297041 
L 276.14536 113.297041 
L 276.358191 113.137988 
L 297.854167 113.137988 
L 298.066998 112.978935 
L 327.012074 112.978935 
L 327.224905 112.819882 
L 346.592566 112.819882 
L 346.805398 112.660828 
L 361.490767 112.660828 
L 361.703598 106.298698 
L 361.91643 106.298698 
L 362.129261 106.139645 
L 376.176136 106.139645 
L 376.176136 106.139645 
" clip-path="url(#pb505b218e7)" style="fill: none; stroke: #b9db57; stroke-width: 1.2; stroke-linecap: round"/>
   </g>
   <g id="line2d_48">
    <path d="M 69.698864 491.366627 
L 69.911695 490.094201 
L 70.337358 490.094201 
L 70.550189 489.457988 
L 70.763021 489.457988 
L 71.188684 487.549349 
L 71.827178 487.549349 
L 72.040009 487.072189 
L 72.252841 485.64071 
L 72.678504 484.845444 
L 73.316998 461.623669 
L 73.52983 461.623669 
L 73.742661 443.014438 
L 73.955492 435.379882 
L 74.168324 435.379882 
L 74.381155 425.200473 
L 74.593987 420.587929 
L 75.658144 420.587929 
L 75.870975 400.070059 
L 76.083807 390.526864 
L 78.212121 390.526864 
L 78.637784 310.841183 
L 78.850616 304.479053 
L 79.063447 304.32 
L 82.043087 304.32 
L 82.46875 223.520947 
L 82.681581 222.884734 
L 82.894413 221.453254 
L 83.107244 216.681657 
L 83.320076 216.522604 
L 84.171402 216.522604 
L 84.384233 214.613964 
L 84.597064 214.613964 
L 85.022727 212.546272 
L 85.44839 208.569941 
L 85.661222 206.502249 
L 85.874053 206.502249 
L 86.086884 205.866036 
L 86.299716 204.434556 
L 86.725379 204.434556 
L 86.93821 203.63929 
L 87.151042 203.63929 
L 87.363873 202.207811 
L 87.576705 202.207811 
L 87.789536 201.889704 
L 88.002367 200.935385 
L 88.215199 200.617278 
L 88.42803 200.617278 
L 88.640862 197.118107 
L 88.853693 196.32284 
L 89.066525 191.869349 
L 89.279356 191.551243 
L 89.492188 191.551243 
L 89.705019 191.233136 
L 89.91785 191.233136 
L 90.556345 190.755976 
L 90.769176 190.755976 
L 90.982008 181.212781 
L 91.194839 181.212781 
L 91.40767 181.053728 
L 91.620502 181.053728 
L 92.046165 180.576568 
L 94.600142 180.576568 
L 94.812973 176.75929 
L 95.877131 176.75929 
L 96.089962 176.600237 
L 96.302794 171.828639 
L 96.515625 171.828639 
L 96.728456 170.556213 
L 97.154119 170.556213 
L 97.366951 169.124734 
L 98.218277 169.124734 
L 98.431108 167.534201 
L 98.856771 167.534201 
L 99.495265 166.579882 
L 100.133759 166.579882 
L 100.559422 165.943669 
L 101.62358 165.943669 
L 101.836411 165.307456 
L 102.262074 165.307456 
L 102.474905 163.716923 
L 102.900568 162.762604 
L 103.326231 162.762604 
L 103.539062 160.376805 
L 104.177557 158.309112 
L 104.390388 157.991006 
L 104.60322 157.991006 
L 104.816051 157.19574 
L 105.454545 157.19574 
L 105.667377 156.71858 
L 105.880208 156.71858 
L 106.09304 155.923314 
L 106.518703 155.923314 
L 106.731534 153.855621 
L 109.07268 153.855621 
L 109.285511 147.970651 
L 109.498343 147.175385 
L 109.924006 147.175385 
L 110.136837 146.857278 
L 110.988163 146.857278 
L 111.200994 144.312426 
L 111.413826 144.312426 
L 111.626657 143.99432 
L 115.244792 143.99432 
L 115.457623 141.767574 
L 115.883286 141.290414 
L 116.308949 141.290414 
L 116.52178 140.017988 
L 116.734612 139.858935 
L 116.947443 139.858935 
L 117.160275 138.904615 
L 117.585938 138.904615 
L 117.798769 138.268402 
L 118.862926 138.268402 
L 119.075758 137.791243 
L 119.288589 137.632189 
L 119.50142 137.15503 
L 120.352746 137.15503 
L 120.565578 135.882604 
L 120.778409 135.72355 
L 121.204072 135.72355 
L 121.416903 135.564497 
L 126.099195 135.564497 
L 126.312027 133.655858 
L 126.524858 133.496805 
L 126.737689 132.701538 
L 126.950521 132.383432 
L 130.994318 132.383432 
L 131.20715 131.111006 
L 136.527936 131.111006 
L 136.740767 130.633846 
L 136.953598 130.474793 
L 137.379261 129.997633 
L 138.017756 129.997633 
L 138.230587 129.520473 
L 139.081913 129.520473 
L 139.294744 128.407101 
L 139.933239 128.407101 
L 140.14607 127.770888 
L 140.997396 127.770888 
L 141.210227 127.611834 
L 142.061553 127.611834 
L 142.274384 127.452781 
L 148.872159 127.452781 
L 149.084991 122.52213 
L 149.936316 122.52213 
L 150.149148 121.408757 
L 155.469934 121.408757 
L 155.682765 121.090651 
L 158.875237 121.090651 
L 159.088068 120.454438 
L 166.962831 120.454438 
L 167.175663 118.704852 
L 170.155303 118.704852 
L 170.368134 118.545799 
L 174.1991 118.545799 
L 174.411932 118.386746 
L 177.391572 118.386746 
L 177.604403 118.227692 
L 188.671638 118.227692 
L 188.88447 118.068639 
L 204.633996 118.068639 
L 204.846828 117.909586 
L 205.059659 117.909586 
L 205.272491 117.591479 
L 205.485322 117.591479 
L 205.698153 117.432426 
L 206.549479 117.432426 
L 206.762311 117.273373 
L 216.552557 117.273373 
L 216.765388 115.20568 
L 217.191051 115.20568 
L 217.403883 115.046627 
L 219.95786 115.046627 
L 220.170691 114.728521 
L 222.299006 114.728521 
L 222.511837 114.410414 
L 229.322443 114.410414 
L 229.535275 114.092308 
L 258.906013 114.092308 
L 259.118845 113.615148 
L 276.996686 113.615148 
L 277.209517 113.456095 
L 286.361269 113.456095 
L 286.5741 113.297041 
L 329.140388 113.297041 
L 329.35322 113.137988 
L 344.889915 113.137988 
L 345.102746 112.978935 
L 358.723958 112.978935 
L 358.93679 112.819882 
L 361.277936 112.819882 
L 361.490767 106.934911 
L 372.558002 106.934911 
L 372.770833 97.391716 
L 376.176136 97.391716 
L 376.176136 97.391716 
" clip-path="url(#pb505b218e7)" style="fill: none; stroke: #57db94; stroke-width: 1.2; stroke-linecap: round"/>
   </g>
   <g id="line2d_49">
    <path d="M 69.698864 491.128047 
L 69.911695 489.776095 
L 70.124527 489.617041 
L 70.550189 489.617041 
L 70.763021 489.457988 
L 71.188684 487.708402 
L 71.827178 487.708402 
L 72.465672 485.322604 
L 72.678504 485.16355 
L 72.891335 478.960473 
L 73.316998 454.943432 
L 73.742661 441.105799 
L 74.806818 419.951716 
L 75.01965 418.361183 
L 75.232481 415.498225 
L 76.083807 392.594556 
L 76.50947 387.504852 
L 76.722301 376.053018 
L 77.147964 368.100355 
L 77.573627 359.670533 
L 77.99929 345.196686 
L 78.212121 342.174675 
L 78.850616 312.749822 
L 79.063447 308.614438 
L 79.48911 306.864852 
L 79.701941 304.160947 
L 79.914773 303.524734 
L 80.340436 277.44 
L 80.553267 277.280947 
L 80.766098 276.48568 
L 81.191761 273.622722 
L 81.404593 257.39929 
L 81.617424 257.240237 
L 82.043087 254.377278 
L 82.255919 229.883077 
L 82.46875 229.724024 
L 83.107244 225.747692 
L 83.320076 225.747692 
L 83.532907 222.089467 
L 83.745739 221.771361 
L 84.171402 221.771361 
L 84.384233 221.612308 
L 84.597064 219.544615 
L 84.809896 219.544615 
L 85.235559 214.613964 
L 85.44839 214.454911 
L 85.661222 212.228166 
L 85.874053 212.069112 
L 86.086884 211.273846 
L 86.299716 211.273846 
L 86.512547 210.47858 
L 86.725379 210.319527 
L 87.151042 209.206154 
L 87.363873 208.410888 
L 87.789536 207.933728 
L 88.002367 207.138462 
L 88.215199 206.820355 
L 88.42803 206.820355 
L 89.066525 198.231479 
L 89.705019 198.231479 
L 89.91785 197.75432 
L 90.130682 197.75432 
L 90.343513 197.595266 
L 90.556345 197.595266 
L 90.769176 196.640947 
L 90.982008 188.370178 
L 91.40767 188.370178 
L 91.620502 188.211124 
L 91.833333 188.211124 
L 92.046165 187.893018 
L 94.387311 187.893018 
L 94.600142 184.871006 
L 94.812973 184.07574 
L 95.877131 184.07574 
L 96.089962 179.781302 
L 96.302794 179.622249 
L 96.515625 178.190769 
L 96.728456 178.190769 
L 96.941288 178.031716 
L 97.579782 178.031716 
L 97.792614 175.964024 
L 98.218277 175.964024 
L 98.431108 175.486864 
L 99.069602 175.486864 
L 99.282434 175.009704 
L 99.495265 174.850651 
L 99.708097 174.214438 
L 100.346591 174.214438 
L 100.559422 174.055385 
L 101.62358 174.055385 
L 101.836411 173.419172 
L 102.049242 173.419172 
L 102.474905 171.669586 
L 102.687737 171.669586 
L 102.900568 170.87432 
L 103.326231 170.87432 
L 103.964725 167.216095 
L 104.816051 165.943669 
L 105.241714 165.943669 
L 105.454545 165.466509 
L 106.09304 165.466509 
L 106.305871 164.830296 
L 106.518703 164.830296 
L 106.731534 163.716923 
L 106.944366 163.716923 
L 107.157197 162.921657 
L 107.370028 162.762604 
L 107.58286 162.285444 
L 108.008523 162.285444 
L 108.221354 161.331124 
L 108.647017 161.331124 
L 108.859848 159.263432 
L 109.285511 159.263432 
L 109.498343 157.991006 
L 109.711174 157.991006 
L 109.924006 157.672899 
L 110.136837 157.672899 
L 110.349669 156.082367 
L 110.5625 156.082367 
L 110.775331 155.446154 
L 110.988163 155.446154 
L 111.200994 155.287101 
L 111.413826 155.287101 
L 111.626657 154.968994 
L 113.967803 154.968994 
L 114.606297 153.378462 
L 114.819129 153.378462 
L 115.03196 152.901302 
L 115.244792 152.901302 
L 115.457623 152.424142 
L 115.670455 152.265089 
L 116.096117 152.265089 
L 116.308949 151.628876 
L 116.52178 151.628876 
L 116.734612 151.310769 
L 116.947443 150.515503 
L 117.160275 150.515503 
L 117.373106 150.35645 
L 117.585938 149.720237 
L 118.0116 149.720237 
L 118.224432 149.561183 
L 118.437263 149.243077 
L 118.862926 149.243077 
L 119.288589 148.92497 
L 119.50142 148.92497 
L 119.927083 148.129704 
L 120.565578 148.129704 
L 120.778409 147.175385 
L 120.991241 147.016331 
L 121.204072 147.016331 
L 121.416903 146.857278 
L 122.268229 146.857278 
L 122.481061 146.698225 
L 123.119555 146.698225 
L 123.332386 146.539172 
L 125.673532 146.539172 
L 125.886364 145.266746 
L 126.099195 145.266746 
L 126.312027 145.107692 
L 126.524858 144.630533 
L 126.950521 144.630533 
L 127.163352 143.835266 
L 127.376184 143.835266 
L 128.014678 142.880947 
L 129.504498 142.880947 
L 129.71733 142.721893 
L 135.889441 142.721893 
L 136.102273 142.56284 
L 136.315104 142.56284 
L 136.527936 142.403787 
L 136.740767 142.403787 
L 136.953598 141.926627 
L 137.16643 141.926627 
L 137.379261 141.767574 
L 138.017756 141.767574 
L 138.230587 141.449467 
L 138.65625 141.449467 
L 138.869081 141.131361 
L 139.081913 141.131361 
L 139.507576 140.017988 
L 139.720407 139.858935 
L 139.933239 139.858935 
L 140.358902 139.540828 
L 142.061553 139.540828 
L 142.274384 139.381775 
L 146.318182 139.381775 
L 146.531013 139.222722 
L 147.59517 139.222722 
L 147.808002 138.745562 
L 148.020833 137.314083 
L 148.233665 137.314083 
L 148.446496 136.995976 
L 148.659328 136.995976 
L 149.084991 134.133018 
L 149.297822 134.133018 
L 149.723485 133.496805 
L 154.618608 133.496805 
L 154.831439 133.337751 
L 155.257102 133.337751 
L 155.469934 133.019645 
L 156.534091 133.019645 
L 156.746922 132.542485 
L 159.726562 132.542485 
L 159.939394 132.383432 
L 160.152225 132.383432 
L 160.365057 131.906272 
L 161.429214 131.906272 
L 161.642045 131.747219 
L 163.344697 131.747219 
L 163.557528 131.588166 
L 163.77036 131.588166 
L 163.983191 131.270059 
L 164.621686 131.270059 
L 164.834517 131.111006 
L 166.324337 131.111006 
L 166.537169 130.792899 
L 170.155303 130.792899 
L 170.368134 130.633846 
L 171.645123 130.633846 
L 171.857955 130.474793 
L 172.922112 130.474793 
L 173.134943 130.31574 
L 177.391572 130.31574 
L 177.604403 130.156686 
L 188.033144 130.156686 
L 188.245975 129.997633 
L 192.076941 129.997633 
L 192.289773 129.83858 
L 203.78267 129.83858 
L 203.995502 129.679527 
L 205.059659 129.679527 
L 205.272491 129.36142 
L 206.336648 129.36142 
L 206.549479 129.202367 
L 215.4884 129.202367 
L 215.701231 129.043314 
L 216.339725 129.043314 
L 216.765388 127.452781 
L 217.403883 127.452781 
L 217.616714 127.293728 
L 219.95786 127.293728 
L 220.170691 126.975621 
L 222.086174 126.975621 
L 222.299006 126.657515 
L 259.118845 126.657515 
L 259.331676 126.180355 
L 275.506866 126.180355 
L 275.719697 126.021302 
L 281.253314 126.021302 
L 281.466146 125.862249 
L 326.799242 125.862249 
L 327.012074 125.703195 
L 344.889915 125.703195 
L 345.102746 125.544142 
L 356.595644 125.544142 
L 356.808475 125.385089 
L 360.000947 125.385089 
L 360.213778 125.066982 
L 360.42661 122.363077 
L 360.639441 121.726864 
L 360.852273 121.726864 
L 361.065104 120.613491 
L 361.277936 120.295385 
L 361.490767 119.341065 
L 362.129261 119.341065 
L 362.342093 117.909586 
L 362.554924 117.432426 
L 362.980587 117.432426 
L 363.193419 117.273373 
L 365.960227 117.273373 
L 366.173059 117.11432 
L 367.662879 117.11432 
L 367.87571 116.955266 
L 368.088542 116.478107 
L 368.939867 116.478107 
L 369.152699 115.364734 
L 369.578362 112.501775 
L 370.004025 111.070296 
L 372.558002 111.070296 
L 372.770833 110.911243 
L 373.409328 110.911243 
L 374.047822 110.434083 
L 374.260653 110.434083 
L 374.473485 109.956923 
L 375.324811 109.956923 
L 375.537642 109.479763 
L 375.750473 109.479763 
L 375.963305 109.32071 
L 376.176136 109.32071 
L 376.176136 109.32071 
" clip-path="url(#pb505b218e7)" style="fill: none; stroke: #5784db; stroke-width: 1.2; stroke-linecap: round"/>
   </g>
   <g id="line2d_50">
    <path d="M 69.698864 491.048521 
L 69.911695 489.457988 
L 70.550189 489.457988 
L 70.763021 488.821775 
L 70.975852 487.072189 
L 71.188684 486.276923 
L 71.401515 486.276923 
L 71.614347 486.11787 
L 71.827178 486.11787 
L 72.465672 483.732071 
L 72.678504 483.413964 
L 73.316998 450.967101 
L 73.742661 436.970414 
L 74.806818 415.339172 
L 75.01965 413.748639 
L 75.232481 411.044734 
L 76.296638 383.210414 
L 76.50947 380.506509 
L 76.935133 361.579172 
L 77.147964 359.511479 
L 77.573627 349.650178 
L 77.786458 339.947929 
L 77.99929 335.653491 
L 78.212121 333.744852 
L 78.424953 322.611124 
L 78.637784 302.888521 
L 78.850616 300.979882 
L 79.48911 298.753136 
L 79.701941 295.731124 
L 79.914773 295.094911 
L 80.340436 270.918817 
L 80.553267 270.60071 
L 80.766098 269.805444 
L 81.191761 267.101538 
L 81.404593 250.878107 
L 81.617424 250.719053 
L 81.830256 248.969467 
L 82.255919 219.067456 
L 82.681581 217.635976 
L 82.894413 216.045444 
L 83.107244 212.069112 
L 83.320076 211.910059 
L 83.532907 211.432899 
L 83.95857 211.432899 
L 84.171402 210.796686 
L 84.384233 209.683314 
L 84.597064 209.206154 
L 84.809896 209.047101 
L 85.235559 203.957396 
L 85.44839 202.207811 
L 85.661222 201.412544 
L 85.874053 201.253491 
L 86.299716 199.822012 
L 86.512547 199.503905 
L 86.725379 199.503905 
L 87.151042 198.390533 
L 87.363873 197.595266 
L 87.789536 196.8 
L 88.215199 196.004734 
L 88.42803 196.004734 
L 88.640862 192.028402 
L 88.853693 190.43787 
L 89.066525 186.938698 
L 89.279356 186.938698 
L 89.492188 186.620592 
L 89.705019 186.620592 
L 89.91785 186.461538 
L 90.130682 186.461538 
L 90.343513 186.302485 
L 90.556345 185.666272 
L 90.769176 178.986036 
L 90.982008 176.600237 
L 91.194839 176.600237 
L 91.40767 176.441183 
L 91.620502 176.441183 
L 92.046165 175.964024 
L 93.961648 175.964024 
L 94.174479 175.80497 
L 94.387311 175.009704 
L 94.600142 172.146746 
L 95.877131 172.146746 
L 96.089962 167.693254 
L 96.302794 166.897988 
L 96.515625 165.625562 
L 96.941288 165.625562 
L 97.154119 165.148402 
L 97.579782 163.08071 
L 97.792614 162.60355 
L 98.005445 162.444497 
L 98.643939 162.444497 
L 98.856771 162.285444 
L 99.708097 161.172071 
L 100.346591 161.172071 
L 100.559422 160.853964 
L 101.62358 160.853964 
L 101.836411 160.217751 
L 102.049242 160.058698 
L 102.687737 157.672899 
L 102.900568 157.672899 
L 103.1134 157.513846 
L 103.751894 153.696568 
L 103.964725 153.537515 
L 104.390388 152.424142 
L 104.60322 152.265089 
L 104.816051 151.946982 
L 105.241714 151.946982 
L 105.454545 151.469822 
L 105.667377 151.469822 
L 105.880208 151.151716 
L 106.09304 150.515503 
L 106.305871 150.35645 
L 106.518703 149.561183 
L 106.731534 147.970651 
L 106.944366 147.970651 
L 107.157197 147.811598 
L 107.370028 147.811598 
L 107.58286 147.334438 
L 107.795691 146.221065 
L 108.221354 145.107692 
L 108.647017 143.51716 
L 108.859848 143.199053 
L 109.285511 141.767574 
L 109.498343 141.767574 
L 109.711174 141.449467 
L 109.924006 141.449467 
L 110.349669 139.381775 
L 110.5625 139.063669 
L 110.775331 139.063669 
L 110.988163 138.904615 
L 111.200994 138.904615 
L 111.413826 138.586509 
L 112.05232 138.586509 
L 112.265152 138.427456 
L 113.754972 138.427456 
L 114.606297 136.20071 
L 115.03196 136.20071 
L 115.244792 136.041657 
L 116.52178 134.292071 
L 116.734612 134.133018 
L 116.947443 133.337751 
L 117.160275 133.178698 
L 117.585938 132.542485 
L 118.0116 132.542485 
L 118.224432 132.065325 
L 118.437263 131.906272 
L 118.862926 131.906272 
L 119.075758 131.747219 
L 119.288589 131.747219 
L 119.50142 131.270059 
L 119.714252 131.270059 
L 120.139915 130.156686 
L 120.352746 130.156686 
L 120.778409 129.83858 
L 120.991241 129.83858 
L 121.204072 129.679527 
L 122.268229 129.679527 
L 122.481061 129.520473 
L 123.119555 129.520473 
L 123.332386 129.36142 
L 125.460701 129.36142 
L 125.673532 129.202367 
L 125.886364 127.929941 
L 126.099195 127.770888 
L 126.312027 127.770888 
L 126.737689 126.816568 
L 127.376184 126.021302 
L 127.589015 125.862249 
L 128.014678 125.385089 
L 129.291667 125.385089 
L 129.504498 125.226036 
L 135.889441 125.226036 
L 136.102273 124.748876 
L 136.740767 124.748876 
L 136.953598 124.271716 
L 137.16643 124.112663 
L 138.017756 124.112663 
L 138.230587 123.635503 
L 138.443419 123.47645 
L 138.65625 123.47645 
L 139.294744 122.363077 
L 139.507576 121.885917 
L 139.720407 121.726864 
L 139.933239 121.726864 
L 140.14607 121.567811 
L 142.061553 121.567811 
L 142.274384 121.408757 
L 146.10535 121.408757 
L 146.318182 121.249704 
L 147.59517 121.249704 
L 147.808002 119.659172 
L 148.233665 118.863905 
L 148.446496 117.432426 
L 148.872159 116.63716 
L 149.297822 115.68284 
L 149.510653 115.364734 
L 155.257102 115.364734 
L 155.469934 115.046627 
L 156.321259 115.046627 
L 156.746922 114.410414 
L 159.726562 114.410414 
L 160.152225 113.933254 
L 160.365057 113.774201 
L 161.429214 113.774201 
L 161.642045 113.615148 
L 163.131866 113.615148 
L 163.344697 113.456095 
L 163.77036 113.456095 
L 163.983191 113.137988 
L 164.621686 113.137988 
L 164.834517 112.978935 
L 166.324337 112.978935 
L 166.537169 112.660828 
L 170.155303 112.660828 
L 170.368134 112.501775 
L 172.922112 112.501775 
L 173.134943 112.342722 
L 177.391572 112.342722 
L 177.604403 112.183669 
L 187.820312 112.183669 
L 188.033144 112.024615 
L 203.78267 112.024615 
L 203.995502 111.865562 
L 204.846828 111.865562 
L 205.059659 111.706509 
L 205.272491 111.388402 
L 205.698153 111.388402 
L 205.910985 111.229349 
L 206.336648 111.229349 
L 206.549479 111.070296 
L 215.4884 111.070296 
L 215.701231 110.911243 
L 215.914062 110.911243 
L 216.126894 110.752189 
L 216.552557 109.002604 
L 216.765388 108.84355 
L 217.191051 108.84355 
L 217.403883 108.684497 
L 219.95786 108.684497 
L 220.170691 108.366391 
L 222.086174 108.366391 
L 222.299006 108.048284 
L 258.906013 108.048284 
L 259.118845 107.571124 
L 275.506866 107.571124 
L 275.719697 107.412071 
L 281.040483 107.412071 
L 281.253314 107.253018 
L 326.799242 107.253018 
L 327.012074 107.093964 
L 344.889915 107.093964 
L 345.102746 106.934911 
L 356.595644 106.934911 
L 356.808475 106.775858 
L 360.000947 106.775858 
L 360.213778 104.071953 
L 360.42661 103.594793 
L 361.065104 101.527101 
L 361.490767 100.572781 
L 361.91643 100.572781 
L 362.129261 98.982249 
L 362.342093 98.505089 
L 362.767756 98.505089 
L 362.980587 98.346036 
L 365.747396 98.346036 
L 365.960227 98.186982 
L 367.450047 98.186982 
L 367.662879 98.027929 
L 367.87571 97.550769 
L 368.939867 97.550769 
L 369.36553 92.779172 
L 369.791193 91.347692 
L 372.558002 91.347692 
L 372.770833 91.188639 
L 373.409328 91.188639 
L 373.834991 90.870533 
L 374.473485 90.075266 
L 374.686316 90.075266 
L 374.899148 89.916213 
L 375.324811 89.916213 
L 375.537642 89.439053 
L 375.750473 89.28 
L 376.176136 89.28 
L 376.176136 89.28 
" clip-path="url(#pb505b218e7)" style="fill: none; stroke: #c957db; stroke-width: 1.2; stroke-linecap: round"/>
   </g>
   <g id="line2d_51"/>
   <g id="line2d_52"/>
   <g id="line2d_53"/>
   <g id="line2d_54"/>
   <g id="line2d_55"/>
   <g id="patch_3">
    <path d="M 54.375 512.64 
L 54.375 69.12 
" style="fill: none; stroke: #cccccc; stroke-linejoin: miter; stroke-linecap: square"/>
   </g>
   <g id="patch_4">
    <path d="M 54.375 512.64 
L 391.5 512.64 
" style="fill: none; stroke: #cccccc; stroke-linejoin: miter; stroke-linecap: square"/>
   </g>
   <g id="text_48">
    <!-- Edge Coverage History -->
    <g style="fill: #262626" transform="translate(116.046012 63.12)scale(0.165888 -0.165888)">
     <defs>
      <path id="DejaVuSans-Bold-45" d="M 588 4666 
L 3834 4666 
L 3834 3756 
L 1791 3756 
L 1791 2888 
L 3713 2888 
L 3713 1978 
L 1791 1978 
L 1791 909 
L 3903 909 
L 3903 0 
L 588 0 
L 588 4666 
z
" transform="scale(0.015625)"/>
      <path id="DejaVuSans-Bold-64" d="M 2919 2988 
L 2919 4863 
L 4044 4863 
L 4044 0 
L 2919 0 
L 2919 506 
Q 2688 197 2409 53 
Q 2131 -91 1766 -91 
Q 1119 -91 703 423 
Q 288 938 288 1747 
Q 288 2556 703 3070 
Q 1119 3584 1766 3584 
Q 2128 3584 2408 3439 
Q 2688 3294 2919 2988 
z
M 2181 722 
Q 2541 722 2730 984 
Q 2919 1247 2919 1747 
Q 2919 2247 2730 2509 
Q 2541 2772 2181 2772 
Q 1825 2772 1636 2509 
Q 1447 2247 1447 1747 
Q 1447 1247 1636 984 
Q 1825 722 2181 722 
z
" transform="scale(0.015625)"/>
      <path id="DejaVuSans-Bold-67" d="M 2919 594 
Q 2688 288 2409 144 
Q 2131 0 1766 0 
Q 1125 0 706 504 
Q 288 1009 288 1791 
Q 288 2575 706 3076 
Q 1125 3578 1766 3578 
Q 2131 3578 2409 3434 
Q 2688 3291 2919 2981 
L 2919 3500 
L 4044 3500 
L 4044 353 
Q 4044 -491 3511 -936 
Q 2978 -1381 1966 -1381 
Q 1638 -1381 1331 -1331 
Q 1025 -1281 716 -1178 
L 716 -306 
Q 1009 -475 1290 -558 
Q 1572 -641 1856 -641 
Q 2406 -641 2662 -400 
Q 2919 -159 2919 353 
L 2919 594 
z
M 2181 2772 
Q 1834 2772 1640 2515 
Q 1447 2259 1447 1791 
Q 1447 1309 1634 1061 
Q 1822 813 2181 813 
Q 2531 813 2725 1069 
Q 2919 1325 2919 1791 
Q 2919 2259 2725 2515 
Q 2531 2772 2181 2772 
z
" transform="scale(0.015625)"/>
      <path id="DejaVuSans-Bold-65" d="M 4031 1759 
L 4031 1441 
L 1416 1441 
Q 1456 1047 1700 850 
Q 1944 653 2381 653 
Q 2734 653 3104 758 
Q 3475 863 3866 1075 
L 3866 213 
Q 3469 63 3072 -14 
Q 2675 -91 2278 -91 
Q 1328 -91 801 392 
Q 275 875 275 1747 
Q 275 2603 792 3093 
Q 1309 3584 2216 3584 
Q 3041 3584 3536 3087 
Q 4031 2591 4031 1759 
z
M 2881 2131 
Q 2881 2450 2695 2645 
Q 2509 2841 2209 2841 
Q 1884 2841 1681 2658 
Q 1478 2475 1428 2131 
L 2881 2131 
z
" transform="scale(0.015625)"/>
      <path id="DejaVuSans-Bold-20" transform="scale(0.015625)"/>
      <path id="DejaVuSans-Bold-43" d="M 4288 256 
Q 3956 84 3597 -3 
Q 3238 -91 2847 -91 
Q 1681 -91 1000 561 
Q 319 1213 319 2328 
Q 319 3447 1000 4098 
Q 1681 4750 2847 4750 
Q 3238 4750 3597 4662 
Q 3956 4575 4288 4403 
L 4288 3438 
Q 3953 3666 3628 3772 
Q 3303 3878 2944 3878 
Q 2300 3878 1931 3465 
Q 1563 3053 1563 2328 
Q 1563 1606 1931 1193 
Q 2300 781 2944 781 
Q 3303 781 3628 887 
Q 3953 994 4288 1222 
L 4288 256 
z
" transform="scale(0.015625)"/>
      <path id="DejaVuSans-Bold-6f" d="M 2203 2784 
Q 1831 2784 1636 2517 
Q 1441 2250 1441 1747 
Q 1441 1244 1636 976 
Q 1831 709 2203 709 
Q 2569 709 2762 976 
Q 2956 1244 2956 1747 
Q 2956 2250 2762 2517 
Q 2569 2784 2203 2784 
z
M 2203 3584 
Q 3106 3584 3614 3096 
Q 4122 2609 4122 1747 
Q 4122 884 3614 396 
Q 3106 -91 2203 -91 
Q 1297 -91 786 396 
Q 275 884 275 1747 
Q 275 2609 786 3096 
Q 1297 3584 2203 3584 
z
" transform="scale(0.015625)"/>
      <path id="DejaVuSans-Bold-76" d="M 97 3500 
L 1216 3500 
L 2088 1081 
L 2956 3500 
L 4078 3500 
L 2700 0 
L 1472 0 
L 97 3500 
z
" transform="scale(0.015625)"/>
      <path id="DejaVuSans-Bold-72" d="M 3138 2547 
Q 2991 2616 2845 2648 
Q 2700 2681 2553 2681 
Q 2122 2681 1889 2404 
Q 1656 2128 1656 1613 
L 1656 0 
L 538 0 
L 538 3500 
L 1656 3500 
L 1656 2925 
Q 1872 3269 2151 3426 
Q 2431 3584 2822 3584 
Q 2878 3584 2943 3579 
Q 3009 3575 3134 3559 
L 3138 2547 
z
" transform="scale(0.015625)"/>
      <path id="DejaVuSans-Bold-61" d="M 2106 1575 
Q 1756 1575 1579 1456 
Q 1403 1338 1403 1106 
Q 1403 894 1545 773 
Q 1688 653 1941 653 
Q 2256 653 2472 879 
Q 2688 1106 2688 1447 
L 2688 1575 
L 2106 1575 
z
M 3816 1997 
L 3816 0 
L 2688 0 
L 2688 519 
Q 2463 200 2181 54 
Q 1900 -91 1497 -91 
Q 953 -91 614 226 
Q 275 544 275 1050 
Q 275 1666 698 1953 
Q 1122 2241 2028 2241 
L 2688 2241 
L 2688 2328 
Q 2688 2594 2478 2717 
Q 2269 2841 1825 2841 
Q 1466 2841 1156 2769 
Q 847 2697 581 2553 
L 581 3406 
Q 941 3494 1303 3539 
Q 1666 3584 2028 3584 
Q 2975 3584 3395 3211 
Q 3816 2838 3816 1997 
z
" transform="scale(0.015625)"/>
      <path id="DejaVuSans-Bold-48" d="M 588 4666 
L 1791 4666 
L 1791 2888 
L 3566 2888 
L 3566 4666 
L 4769 4666 
L 4769 0 
L 3566 0 
L 3566 1978 
L 1791 1978 
L 1791 0 
L 588 0 
L 588 4666 
z
" transform="scale(0.015625)"/>
      <path id="DejaVuSans-Bold-69" d="M 538 3500 
L 1656 3500 
L 1656 0 
L 538 0 
L 538 3500 
z
M 538 4863 
L 1656 4863 
L 1656 3950 
L 538 3950 
L 538 4863 
z
" transform="scale(0.015625)"/>
      <path id="DejaVuSans-Bold-73" d="M 3272 3391 
L 3272 2541 
Q 2913 2691 2578 2766 
Q 2244 2841 1947 2841 
Q 1628 2841 1473 2761 
Q 1319 2681 1319 2516 
Q 1319 2381 1436 2309 
Q 1553 2238 1856 2203 
L 2053 2175 
Q 2913 2066 3209 1816 
Q 3506 1566 3506 1031 
Q 3506 472 3093 190 
Q 2681 -91 1863 -91 
Q 1516 -91 1145 -36 
Q 775 19 384 128 
L 384 978 
Q 719 816 1070 734 
Q 1422 653 1784 653 
Q 2113 653 2278 743 
Q 2444 834 2444 1013 
Q 2444 1163 2330 1236 
Q 2216 1309 1875 1350 
L 1678 1375 
Q 931 1469 631 1722 
Q 331 1975 331 2491 
Q 331 3047 712 3315 
Q 1094 3584 1881 3584 
Q 2191 3584 2531 3537 
Q 2872 3491 3272 3391 
z
" transform="scale(0.015625)"/>
      <path id="DejaVuSans-Bold-74" d="M 1759 4494 
L 1759 3500 
L 2913 3500 
L 2913 2700 
L 1759 2700 
L 1759 1216 
Q 1759 972 1856 886 
Q 1953 800 2241 800 
L 2816 800 
L 2816 0 
L 1856 0 
Q 1194 0 917 276 
Q 641 553 641 1216 
L 641 2700 
L 84 2700 
L 84 3500 
L 641 3500 
L 641 4494 
L 1759 4494 
z
" transform="scale(0.015625)"/>
      <path id="DejaVuSans-Bold-79" d="M 78 3500 
L 1197 3500 
L 2138 1125 
L 2938 3500 
L 4056 3500 
L 2584 -331 
Q 2363 -916 2067 -1148 
Q 1772 -1381 1288 -1381 
L 641 -1381 
L 641 -647 
L 991 -647 
Q 1275 -647 1404 -556 
Q 1534 -466 1606 -231 
L 1638 -134 
L 78 3500 
z
" transform="scale(0.015625)"/>
     </defs>
     <use xlink:href="#DejaVuSans-Bold-45"/>
     <use xlink:href="#DejaVuSans-Bold-64" x="68.310547"/>
     <use xlink:href="#DejaVuSans-Bold-67" x="139.892578"/>
     <use xlink:href="#DejaVuSans-Bold-65" x="211.474609"/>
     <use xlink:href="#DejaVuSans-Bold-20" x="279.296875"/>
     <use xlink:href="#DejaVuSans-Bold-43" x="314.111328"/>
     <use xlink:href="#DejaVuSans-Bold-6f" x="387.5"/>
     <use xlink:href="#DejaVuSans-Bold-76" x="456.201172"/>
     <use xlink:href="#DejaVuSans-Bold-65" x="521.386719"/>
     <use xlink:href="#DejaVuSans-Bold-72" x="589.208984"/>
     <use xlink:href="#DejaVuSans-Bold-61" x="638.525391"/>
     <use xlink:href="#DejaVuSans-Bold-67" x="706.005859"/>
     <use xlink:href="#DejaVuSans-Bold-65" x="777.587891"/>
     <use xlink:href="#DejaVuSans-Bold-20" x="845.410156"/>
     <use xlink:href="#DejaVuSans-Bold-48" x="880.224609"/>
     <use xlink:href="#DejaVuSans-Bold-69" x="963.916016"/>
     <use xlink:href="#DejaVuSans-Bold-73" x="998.193359"/>
     <use xlink:href="#DejaVuSans-Bold-74" x="1057.714844"/>
     <use xlink:href="#DejaVuSans-Bold-6f" x="1105.517578"/>
     <use xlink:href="#DejaVuSans-Bold-72" x="1174.21875"/>
     <use xlink:href="#DejaVuSans-Bold-79" x="1223.535156"/>
    </g>
   </g>
   <g id="legend_1">
    <g id="patch_5">
     <path d="M 268.212 508.24 
L 385.34 508.24 
Q 387.1 508.24 387.1 506.48 
L 387.1 428.8405 
Q 387.1 427.0805 385.34 427.0805 
L 268.212 427.0805 
Q 266.452 427.0805 266.452 428.8405 
L 266.452 506.48 
Q 266.452 508.24 268.212 508.24 
z
" style="fill: #ffffff; opacity: 0.8; stroke: #cccccc; stroke-width: 0.8; stroke-linejoin: miter"/>
    </g>
    <g id="text_49">
     <!-- fuzzer -->
     <g style="fill: #262626" transform="translate(312.079 437.895)scale(0.096 -0.096)">
      <defs>
       <path id="DejaVuSans-66" d="M 2375 4863 
L 2375 4384 
L 1825 4384 
Q 1516 4384 1395 4259 
Q 1275 4134 1275 3809 
L 1275 3500 
L 2222 3500 
L 2222 3053 
L 1275 3053 
L 1275 0 
L 697 0 
L 697 3053 
L 147 3053 
L 147 3500 
L 697 3500 
L 697 3744 
Q 697 4328 969 4595 
Q 1241 4863 1831 4863 
L 2375 4863 
z
" transform="scale(0.015625)"/>
       <path id="DejaVuSans-7a" d="M 353 3500 
L 3084 3500 
L 3084 2975 
L 922 459 
L 3084 459 
L 3084 0 
L 275 0 
L 275 525 
L 2438 3041 
L 353 3041 
L 353 3500 
z
" transform="scale(0.015625)"/>
      </defs>
      <use xlink:href="#DejaVuSans-66"/>
      <use xlink:href="#DejaVuSans-75" x="35.205078"/>
      <use xlink:href="#DejaVuSans-7a" x="98.583984"/>
      <use xlink:href="#DejaVuSans-7a" x="151.074219"/>
      <use xlink:href="#DejaVuSans-65" x="203.564453"/>
      <use xlink:href="#DejaVuSans-72" x="265.087891"/>
     </g>
    </g>
    <g id="line2d_56">
     <path d="M 269.972 447.898125 
L 278.772 447.898125 
L 287.572 447.898125 
" style="fill: none; stroke: #db5f57; stroke-width: 1.2; stroke-linecap: round"/>
    </g>
    <g id="text_50">
     <!-- fairfuzz-0-exid21 -->
     <g style="fill: #262626" transform="translate(294.612 450.978125)scale(0.088 -0.088)">
      <defs>
       <path id="DejaVuSans-2d" d="M 313 2009 
L 1997 2009 
L 1997 1497 
L 313 1497 
L 313 2009 
z
" transform="scale(0.015625)"/>
       <path id="DejaVuSans-78" d="M 3513 3500 
L 2247 1797 
L 3578 0 
L 2900 0 
L 1881 1375 
L 863 0 
L 184 0 
L 1544 1831 
L 300 3500 
L 978 3500 
L 1906 2253 
L 2834 3500 
L 3513 3500 
z
" transform="scale(0.015625)"/>
      </defs>
      <use xlink:href="#DejaVuSans-66"/>
      <use xlink:href="#DejaVuSans-61" x="35.205078"/>
      <use xlink:href="#DejaVuSans-69" x="96.484375"/>
      <use xlink:href="#DejaVuSans-72" x="124.267578"/>
      <use xlink:href="#DejaVuSans-66" x="165.380859"/>
      <use xlink:href="#DejaVuSans-75" x="200.585938"/>
      <use xlink:href="#DejaVuSans-7a" x="263.964844"/>
      <use xlink:href="#DejaVuSans-7a" x="316.455078"/>
      <use xlink:href="#DejaVuSans-2d" x="368.945312"/>
      <use xlink:href="#DejaVuSans-30" x="405.029297"/>
      <use xlink:href="#DejaVuSans-2d" x="468.652344"/>
      <use xlink:href="#DejaVuSans-65" x="504.736328"/>
      <use xlink:href="#DejaVuSans-78" x="564.509766"/>
      <use xlink:href="#DejaVuSans-69" x="623.689453"/>
      <use xlink:href="#DejaVuSans-64" x="651.472656"/>
      <use xlink:href="#DejaVuSans-32" x="714.949219"/>
      <use xlink:href="#DejaVuSans-31" x="778.572266"/>
     </g>
    </g>
    <g id="line2d_57">
     <path d="M 269.972 460.814875 
L 278.772 460.814875 
L 287.572 460.814875 
" style="fill: none; stroke: #b9db57; stroke-width: 1.2; stroke-linecap: round"/>
    </g>
    <g id="text_51">
     <!-- aflfast-0-exid21 -->
     <g style="fill: #262626" transform="translate(294.612 463.894875)scale(0.088 -0.088)">
      <defs>
       <path id="DejaVuSans-6c" d="M 603 4863 
L 1178 4863 
L 1178 0 
L 603 0 
L 603 4863 
z
" transform="scale(0.015625)"/>
      </defs>
      <use xlink:href="#DejaVuSans-61"/>
      <use xlink:href="#DejaVuSans-66" x="61.279297"/>
      <use xlink:href="#DejaVuSans-6c" x="96.484375"/>
      <use xlink:href="#DejaVuSans-66" x="124.267578"/>
      <use xlink:href="#DejaVuSans-61" x="159.472656"/>
      <use xlink:href="#DejaVuSans-73" x="220.751953"/>
      <use xlink:href="#DejaVuSans-74" x="272.851562"/>
      <use xlink:href="#DejaVuSans-2d" x="312.060547"/>
      <use xlink:href="#DejaVuSans-30" x="348.144531"/>
      <use xlink:href="#DejaVuSans-2d" x="411.767578"/>
      <use xlink:href="#DejaVuSans-65" x="447.851562"/>
      <use xlink:href="#DejaVuSans-78" x="507.625"/>
      <use xlink:href="#DejaVuSans-69" x="566.804688"/>
      <use xlink:href="#DejaVuSans-64" x="594.587891"/>
      <use xlink:href="#DejaVuSans-32" x="658.064453"/>
      <use xlink:href="#DejaVuSans-31" x="721.6875"/>
     </g>
    </g>
    <g id="line2d_58">
     <path d="M 269.972 473.731625 
L 278.772 473.731625 
L 287.572 473.731625 
" style="fill: none; stroke: #57db94; stroke-width: 1.2; stroke-linecap: round"/>
    </g>
    <g id="text_52">
     <!-- aflplusplus-0-exid21 -->
     <g style="fill: #262626" transform="translate(294.612 476.811625)scale(0.088 -0.088)">
      <defs>
       <path id="DejaVuSans-70" d="M 1159 525 
L 1159 -1331 
L 581 -1331 
L 581 3500 
L 1159 3500 
L 1159 2969 
Q 1341 3281 1617 3432 
Q 1894 3584 2278 3584 
Q 2916 3584 3314 3078 
Q 3713 2572 3713 1747 
Q 3713 922 3314 415 
Q 2916 -91 2278 -91 
Q 1894 -91 1617 61 
Q 1341 213 1159 525 
z
M 3116 1747 
Q 3116 2381 2855 2742 
Q 2594 3103 2138 3103 
Q 1681 3103 1420 2742 
Q 1159 2381 1159 1747 
Q 1159 1113 1420 752 
Q 1681 391 2138 391 
Q 2594 391 2855 752 
Q 3116 1113 3116 1747 
z
" transform="scale(0.015625)"/>
      </defs>
      <use xlink:href="#DejaVuSans-61"/>
      <use xlink:href="#DejaVuSans-66" x="61.279297"/>
      <use xlink:href="#DejaVuSans-6c" x="96.484375"/>
      <use xlink:href="#DejaVuSans-70" x="124.267578"/>
      <use xlink:href="#DejaVuSans-6c" x="187.744141"/>
      <use xlink:href="#DejaVuSans-75" x="215.527344"/>
      <use xlink:href="#DejaVuSans-73" x="278.90625"/>
      <use xlink:href="#DejaVuSans-70" x="331.005859"/>
      <use xlink:href="#DejaVuSans-6c" x="394.482422"/>
      <use xlink:href="#DejaVuSans-75" x="422.265625"/>
      <use xlink:href="#DejaVuSans-73" x="485.644531"/>
      <use xlink:href="#DejaVuSans-2d" x="537.744141"/>
      <use xlink:href="#DejaVuSans-30" x="573.828125"/>
      <use xlink:href="#DejaVuSans-2d" x="637.451172"/>
      <use xlink:href="#DejaVuSans-65" x="673.535156"/>
      <use xlink:href="#DejaVuSans-78" x="733.308594"/>
      <use xlink:href="#DejaVuSans-69" x="792.488281"/>
      <use xlink:href="#DejaVuSans-64" x="820.271484"/>
      <use xlink:href="#DejaVuSans-32" x="883.748047"/>
      <use xlink:href="#DejaVuSans-31" x="947.371094"/>
     </g>
    </g>
    <g id="line2d_59">
     <path d="M 269.972 486.648375 
L 278.772 486.648375 
L 287.572 486.648375 
" style="fill: none; stroke: #5784db; stroke-width: 1.2; stroke-linecap: round"/>
    </g>
    <g id="text_53">
     <!-- afl-0-exid21 -->
     <g style="fill: #262626" transform="translate(294.612 489.728375)scale(0.088 -0.088)">
      <use xlink:href="#DejaVuSans-61"/>
      <use xlink:href="#DejaVuSans-66" x="61.279297"/>
      <use xlink:href="#DejaVuSans-6c" x="96.484375"/>
      <use xlink:href="#DejaVuSans-2d" x="124.267578"/>
      <use xlink:href="#DejaVuSans-30" x="160.351562"/>
      <use xlink:href="#DejaVuSans-2d" x="223.974609"/>
      <use xlink:href="#DejaVuSans-65" x="260.058594"/>
      <use xlink:href="#DejaVuSans-78" x="319.832031"/>
      <use xlink:href="#DejaVuSans-69" x="379.011719"/>
      <use xlink:href="#DejaVuSans-64" x="406.794922"/>
      <use xlink:href="#DejaVuSans-32" x="470.271484"/>
      <use xlink:href="#DejaVuSans-31" x="533.894531"/>
     </g>
    </g>
    <g id="line2d_60">
     <path d="M 269.972 499.565125 
L 278.772 499.565125 
L 287.572 499.565125 
" style="fill: none; stroke: #c957db; stroke-width: 1.2; stroke-linecap: round"/>
    </g>
    <g id="text_54">
     <!-- fuzzer_global -->
     <g style="fill: #262626" transform="translate(294.612 502.645125)scale(0.088 -0.088)">
      <defs>
       <path id="DejaVuSans-5f" d="M 3263 -1063 
L 3263 -1509 
L -63 -1509 
L -63 -1063 
L 3263 -1063 
z
" transform="scale(0.015625)"/>
       <path id="DejaVuSans-62" d="M 3116 1747 
Q 3116 2381 2855 2742 
Q 2594 3103 2138 3103 
Q 1681 3103 1420 2742 
Q 1159 2381 1159 1747 
Q 1159 1113 1420 752 
Q 1681 391 2138 391 
Q 2594 391 2855 752 
Q 3116 1113 3116 1747 
z
M 1159 2969 
Q 1341 3281 1617 3432 
Q 1894 3584 2278 3584 
Q 2916 3584 3314 3078 
Q 3713 2572 3713 1747 
Q 3713 922 3314 415 
Q 2916 -91 2278 -91 
Q 1894 -91 1617 61 
Q 1341 213 1159 525 
L 1159 0 
L 581 0 
L 581 4863 
L 1159 4863 
L 1159 2969 
z
" transform="scale(0.015625)"/>
      </defs>
      <use xlink:href="#DejaVuSans-66"/>
      <use xlink:href="#DejaVuSans-75" x="35.205078"/>
      <use xlink:href="#DejaVuSans-7a" x="98.583984"/>
      <use xlink:href="#DejaVuSans-7a" x="151.074219"/>
      <use xlink:href="#DejaVuSans-65" x="203.564453"/>
      <use xlink:href="#DejaVuSans-72" x="265.087891"/>
      <use xlink:href="#DejaVuSans-5f" x="306.201172"/>
      <use xlink:href="#DejaVuSans-67" x="356.201172"/>
      <use xlink:href="#DejaVuSans-6c" x="419.677734"/>
      <use xlink:href="#DejaVuSans-6f" x="447.460938"/>
      <use xlink:href="#DejaVuSans-62" x="508.642578"/>
      <use xlink:href="#DejaVuSans-61" x="572.119141"/>
      <use xlink:href="#DejaVuSans-6c" x="633.398438"/>
     </g>
    </g>
   </g>
  </g>
 </g>
 <defs>
  <clipPath id="pb505b218e7">
   <rect x="54.375" y="69.12" width="337.125" height="443.52"/>
  </clipPath>
 </defs>
</svg>
