<?xml version="1.0" encoding="utf-8" standalone="no"?>
<!DOCTYPE svg PUBLIC "-//W3C//DTD SVG 1.1//EN"
  "http://www.w3.org/Graphics/SVG/1.1/DTD/svg11.dtd">
<svg xmlns:xlink="http://www.w3.org/1999/xlink" width="434.7pt" height="576pt" viewBox="0 0 434.7 576" xmlns="http://www.w3.org/2000/svg" version="1.1">
 <metadata>
  <rdf:RDF xmlns:dc="http://purl.org/dc/elements/1.1/" xmlns:cc="http://creativecommons.org/ns#" xmlns:rdf="http://www.w3.org/1999/02/22-rdf-syntax-ns#">
   <cc:Work>
    <dc:type rdf:resource="http://purl.org/dc/dcmitype/StillImage"/>
    <dc:date>2022-09-15T11:37:59.229074</dc:date>
    <dc:format>image/svg+xml</dc:format>
    <dc:creator>
     <cc:Agent>
      <dc:title>Matplotlib v3.5.3, https://matplotlib.org/</dc:title>
     </cc:Agent>
    </dc:creator>
   </cc:Work>
  </rdf:RDF>
 </metadata>
 <defs>
  <style type="text/css">*{stroke-linejoin: round; stroke-linecap: butt}</style>
 </defs>
 <g id="figure_1">
  <g id="patch_1">
   <path d="M 0 576 
L 434.7 576 
L 434.7 0 
L 0 0 
z
" style="fill: #ffffff"/>
  </g>
  <g id="axes_1">
   <g id="patch_2">
    <path d="M 54.3375 512.64 
L 391.23 512.64 
L 391.23 69.12 
L 54.3375 69.12 
z
" style="fill: #ffffff"/>
   </g>
   <g id="matplotlib.axis_1">
    <g id="xtick_1">
     <g id="line2d_1">
      <path d="M 69.650795 512.64 
L 69.650795 69.12 
" clip-path="url(#p5f960d27fc)" style="fill: none; stroke: #cccccc; stroke-width: 0.8; stroke-linecap: round"/>
     </g>
     <g id="text_1">
      <!-- 0 -->
      <g style="fill: #262626" transform="translate(69.388282 529.627249)rotate(-45)scale(0.088 -0.088)">
       <defs>
        <path id="DejaVuSans-30" d="M 2034 4250 
Q 1547 4250 1301 3770 
Q 1056 3291 1056 2328 
Q 1056 1369 1301 889 
Q 1547 409 2034 409 
Q 2525 409 2770 889 
Q 3016 1369 3016 2328 
Q 3016 3291 2770 3770 
Q 2525 4250 2034 4250 
z
M 2034 4750 
Q 2819 4750 3233 4129 
Q 3647 3509 3647 2328 
Q 3647 1150 3233 529 
Q 2819 -91 2034 -91 
Q 1250 -91 836 529 
Q 422 1150 422 2328 
Q 422 3509 836 4129 
Q 1250 4750 2034 4750 
z
" transform="scale(0.015625)"/>
       </defs>
       <use xlink:href="#DejaVuSans-30"/>
      </g>
     </g>
    </g>
    <g id="xtick_2">
     <g id="line2d_2">
      <path d="M 86.677392 512.64 
L 86.677392 69.12 
" clip-path="url(#p5f960d27fc)" style="fill: none; stroke: #cccccc; stroke-width: 0.8; stroke-linecap: round"/>
     </g>
     <g id="text_2">
      <!-- 80 -->
      <g style="fill: #262626" transform="translate(84.435333 533.58634)rotate(-45)scale(0.088 -0.088)">
       <defs>
        <path id="DejaVuSans-38" d="M 2034 2216 
Q 1584 2216 1326 1975 
Q 1069 1734 1069 1313 
Q 1069 891 1326 650 
Q 1584 409 2034 409 
Q 2484 409 2743 651 
Q 3003 894 3003 1313 
Q 3003 1734 2745 1975 
Q 2488 2216 2034 2216 
z
M 1403 2484 
Q 997 2584 770 2862 
Q 544 3141 544 3541 
Q 544 4100 942 4425 
Q 1341 4750 2034 4750 
Q 2731 4750 3128 4425 
Q 3525 4100 3525 3541 
Q 3525 3141 3298 2862 
Q 3072 2584 2669 2484 
Q 3125 2378 3379 2068 
Q 3634 1759 3634 1313 
Q 3634 634 3220 271 
Q 2806 -91 2034 -91 
Q 1263 -91 848 271 
Q 434 634 434 1313 
Q 434 1759 690 2068 
Q 947 2378 1403 2484 
z
M 1172 3481 
Q 1172 3119 1398 2916 
Q 1625 2713 2034 2713 
Q 2441 2713 2670 2916 
Q 2900 3119 2900 3481 
Q 2900 3844 2670 4047 
Q 2441 4250 2034 4250 
Q 1625 4250 1398 4047 
Q 1172 3844 1172 3481 
z
" transform="scale(0.015625)"/>
       </defs>
       <use xlink:href="#DejaVuSans-38"/>
       <use xlink:href="#DejaVuSans-30" x="63.623047"/>
      </g>
     </g>
    </g>
    <g id="xtick_3">
     <g id="line2d_3">
      <path d="M 103.703989 512.64 
L 103.703989 69.12 
" clip-path="url(#p5f960d27fc)" style="fill: none; stroke: #cccccc; stroke-width: 0.8; stroke-linecap: round"/>
     </g>
     <g id="text_3">
      <!-- 160 -->
      <g style="fill: #262626" transform="translate(99.482385 537.54543)rotate(-45)scale(0.088 -0.088)">
       <defs>
        <path id="DejaVuSans-31" d="M 794 531 
L 1825 531 
L 1825 4091 
L 703 3866 
L 703 4441 
L 1819 4666 
L 2450 4666 
L 2450 531 
L 3481 531 
L 3481 0 
L 794 0 
L 794 531 
z
" transform="scale(0.015625)"/>
        <path id="DejaVuSans-36" d="M 2113 2584 
Q 1688 2584 1439 2293 
Q 1191 2003 1191 1497 
Q 1191 994 1439 701 
Q 1688 409 2113 409 
Q 2538 409 2786 701 
Q 3034 994 3034 1497 
Q 3034 2003 2786 2293 
Q 2538 2584 2113 2584 
z
M 3366 4563 
L 3366 3988 
Q 3128 4100 2886 4159 
Q 2644 4219 2406 4219 
Q 1781 4219 1451 3797 
Q 1122 3375 1075 2522 
Q 1259 2794 1537 2939 
Q 1816 3084 2150 3084 
Q 2853 3084 3261 2657 
Q 3669 2231 3669 1497 
Q 3669 778 3244 343 
Q 2819 -91 2113 -91 
Q 1303 -91 875 529 
Q 447 1150 447 2328 
Q 447 3434 972 4092 
Q 1497 4750 2381 4750 
Q 2619 4750 2861 4703 
Q 3103 4656 3366 4563 
z
" transform="scale(0.015625)"/>
       </defs>
       <use xlink:href="#DejaVuSans-31"/>
       <use xlink:href="#DejaVuSans-36" x="63.623047"/>
       <use xlink:href="#DejaVuSans-30" x="127.246094"/>
      </g>
     </g>
    </g>
    <g id="xtick_4">
     <g id="line2d_4">
      <path d="M 120.730586 512.64 
L 120.730586 69.12 
" clip-path="url(#p5f960d27fc)" style="fill: none; stroke: #cccccc; stroke-width: 0.8; stroke-linecap: round"/>
     </g>
     <g id="text_4">
      <!-- 240 -->
      <g style="fill: #262626" transform="translate(116.508981 537.54543)rotate(-45)scale(0.088 -0.088)">
       <defs>
        <path id="DejaVuSans-32" d="M 1228 531 
L 3431 531 
L 3431 0 
L 469 0 
L 469 531 
Q 828 903 1448 1529 
Q 2069 2156 2228 2338 
Q 2531 2678 2651 2914 
Q 2772 3150 2772 3378 
Q 2772 3750 2511 3984 
Q 2250 4219 1831 4219 
Q 1534 4219 1204 4116 
Q 875 4013 500 3803 
L 500 4441 
Q 881 4594 1212 4672 
Q 1544 4750 1819 4750 
Q 2544 4750 2975 4387 
Q 3406 4025 3406 3419 
Q 3406 3131 3298 2873 
Q 3191 2616 2906 2266 
Q 2828 2175 2409 1742 
Q 1991 1309 1228 531 
z
" transform="scale(0.015625)"/>
        <path id="DejaVuSans-34" d="M 2419 4116 
L 825 1625 
L 2419 1625 
L 2419 4116 
z
M 2253 4666 
L 3047 4666 
L 3047 1625 
L 3713 1625 
L 3713 1100 
L 3047 1100 
L 3047 0 
L 2419 0 
L 2419 1100 
L 313 1100 
L 313 1709 
L 2253 4666 
z
" transform="scale(0.015625)"/>
       </defs>
       <use xlink:href="#DejaVuSans-32"/>
       <use xlink:href="#DejaVuSans-34" x="63.623047"/>
       <use xlink:href="#DejaVuSans-30" x="127.246094"/>
      </g>
     </g>
    </g>
    <g id="xtick_5">
     <g id="line2d_5">
      <path d="M 137.757182 512.64 
L 137.757182 69.12 
" clip-path="url(#p5f960d27fc)" style="fill: none; stroke: #cccccc; stroke-width: 0.8; stroke-linecap: round"/>
     </g>
     <g id="text_5">
      <!-- 320 -->
      <g style="fill: #262626" transform="translate(133.535578 537.54543)rotate(-45)scale(0.088 -0.088)">
       <defs>
        <path id="DejaVuSans-33" d="M 2597 2516 
Q 3050 2419 3304 2112 
Q 3559 1806 3559 1356 
Q 3559 666 3084 287 
Q 2609 -91 1734 -91 
Q 1441 -91 1130 -33 
Q 819 25 488 141 
L 488 750 
Q 750 597 1062 519 
Q 1375 441 1716 441 
Q 2309 441 2620 675 
Q 2931 909 2931 1356 
Q 2931 1769 2642 2001 
Q 2353 2234 1838 2234 
L 1294 2234 
L 1294 2753 
L 1863 2753 
Q 2328 2753 2575 2939 
Q 2822 3125 2822 3475 
Q 2822 3834 2567 4026 
Q 2313 4219 1838 4219 
Q 1578 4219 1281 4162 
Q 984 4106 628 3988 
L 628 4550 
Q 988 4650 1302 4700 
Q 1616 4750 1894 4750 
Q 2613 4750 3031 4423 
Q 3450 4097 3450 3541 
Q 3450 3153 3228 2886 
Q 3006 2619 2597 2516 
z
" transform="scale(0.015625)"/>
       </defs>
       <use xlink:href="#DejaVuSans-33"/>
       <use xlink:href="#DejaVuSans-32" x="63.623047"/>
       <use xlink:href="#DejaVuSans-30" x="127.246094"/>
      </g>
     </g>
    </g>
    <g id="xtick_6">
     <g id="line2d_6">
      <path d="M 154.783779 512.64 
L 154.783779 69.12 
" clip-path="url(#p5f960d27fc)" style="fill: none; stroke: #cccccc; stroke-width: 0.8; stroke-linecap: round"/>
     </g>
     <g id="text_6">
      <!-- 400 -->
      <g style="fill: #262626" transform="translate(150.562175 537.54543)rotate(-45)scale(0.088 -0.088)">
       <use xlink:href="#DejaVuSans-34"/>
       <use xlink:href="#DejaVuSans-30" x="63.623047"/>
       <use xlink:href="#DejaVuSans-30" x="127.246094"/>
      </g>
     </g>
    </g>
    <g id="xtick_7">
     <g id="line2d_7">
      <path d="M 171.810376 512.64 
L 171.810376 69.12 
" clip-path="url(#p5f960d27fc)" style="fill: none; stroke: #cccccc; stroke-width: 0.8; stroke-linecap: round"/>
     </g>
     <g id="text_7">
      <!-- 480 -->
      <g style="fill: #262626" transform="translate(167.588772 537.54543)rotate(-45)scale(0.088 -0.088)">
       <use xlink:href="#DejaVuSans-34"/>
       <use xlink:href="#DejaVuSans-38" x="63.623047"/>
       <use xlink:href="#DejaVuSans-30" x="127.246094"/>
      </g>
     </g>
    </g>
    <g id="xtick_8">
     <g id="line2d_8">
      <path d="M 188.836973 512.64 
L 188.836973 69.12 
" clip-path="url(#p5f960d27fc)" style="fill: none; stroke: #cccccc; stroke-width: 0.8; stroke-linecap: round"/>
     </g>
     <g id="text_8">
      <!-- 560 -->
      <g style="fill: #262626" transform="translate(184.615368 537.54543)rotate(-45)scale(0.088 -0.088)">
       <defs>
        <path id="DejaVuSans-35" d="M 691 4666 
L 3169 4666 
L 3169 4134 
L 1269 4134 
L 1269 2991 
Q 1406 3038 1543 3061 
Q 1681 3084 1819 3084 
Q 2600 3084 3056 2656 
Q 3513 2228 3513 1497 
Q 3513 744 3044 326 
Q 2575 -91 1722 -91 
Q 1428 -91 1123 -41 
Q 819 9 494 109 
L 494 744 
Q 775 591 1075 516 
Q 1375 441 1709 441 
Q 2250 441 2565 725 
Q 2881 1009 2881 1497 
Q 2881 1984 2565 2268 
Q 2250 2553 1709 2553 
Q 1456 2553 1204 2497 
Q 953 2441 691 2322 
L 691 4666 
z
" transform="scale(0.015625)"/>
       </defs>
       <use xlink:href="#DejaVuSans-35"/>
       <use xlink:href="#DejaVuSans-36" x="63.623047"/>
       <use xlink:href="#DejaVuSans-30" x="127.246094"/>
      </g>
     </g>
    </g>
    <g id="xtick_9">
     <g id="line2d_9">
      <path d="M 205.863569 512.64 
L 205.863569 69.12 
" clip-path="url(#p5f960d27fc)" style="fill: none; stroke: #cccccc; stroke-width: 0.8; stroke-linecap: round"/>
     </g>
     <g id="text_9">
      <!-- 640 -->
      <g style="fill: #262626" transform="translate(201.641965 537.54543)rotate(-45)scale(0.088 -0.088)">
       <use xlink:href="#DejaVuSans-36"/>
       <use xlink:href="#DejaVuSans-34" x="63.623047"/>
       <use xlink:href="#DejaVuSans-30" x="127.246094"/>
      </g>
     </g>
    </g>
    <g id="xtick_10">
     <g id="line2d_10">
      <path d="M 222.890166 512.64 
L 222.890166 69.12 
" clip-path="url(#p5f960d27fc)" style="fill: none; stroke: #cccccc; stroke-width: 0.8; stroke-linecap: round"/>
     </g>
     <g id="text_10">
      <!-- 720 -->
      <g style="fill: #262626" transform="translate(218.668562 537.54543)rotate(-45)scale(0.088 -0.088)">
       <defs>
        <path id="DejaVuSans-37" d="M 525 4666 
L 3525 4666 
L 3525 4397 
L 1831 0 
L 1172 0 
L 2766 4134 
L 525 4134 
L 525 4666 
z
" transform="scale(0.015625)"/>
       </defs>
       <use xlink:href="#DejaVuSans-37"/>
       <use xlink:href="#DejaVuSans-32" x="63.623047"/>
       <use xlink:href="#DejaVuSans-30" x="127.246094"/>
      </g>
     </g>
    </g>
    <g id="xtick_11">
     <g id="line2d_11">
      <path d="M 239.916763 512.64 
L 239.916763 69.12 
" clip-path="url(#p5f960d27fc)" style="fill: none; stroke: #cccccc; stroke-width: 0.8; stroke-linecap: round"/>
     </g>
     <g id="text_11">
      <!-- 800 -->
      <g style="fill: #262626" transform="translate(235.695159 537.54543)rotate(-45)scale(0.088 -0.088)">
       <use xlink:href="#DejaVuSans-38"/>
       <use xlink:href="#DejaVuSans-30" x="63.623047"/>
       <use xlink:href="#DejaVuSans-30" x="127.246094"/>
      </g>
     </g>
    </g>
    <g id="xtick_12">
     <g id="line2d_12">
      <path d="M 256.94336 512.64 
L 256.94336 69.12 
" clip-path="url(#p5f960d27fc)" style="fill: none; stroke: #cccccc; stroke-width: 0.8; stroke-linecap: round"/>
     </g>
     <g id="text_12">
      <!-- 880 -->
      <g style="fill: #262626" transform="translate(252.721755 537.54543)rotate(-45)scale(0.088 -0.088)">
       <use xlink:href="#DejaVuSans-38"/>
       <use xlink:href="#DejaVuSans-38" x="63.623047"/>
       <use xlink:href="#DejaVuSans-30" x="127.246094"/>
      </g>
     </g>
    </g>
    <g id="xtick_13">
     <g id="line2d_13">
      <path d="M 273.969956 512.64 
L 273.969956 69.12 
" clip-path="url(#p5f960d27fc)" style="fill: none; stroke: #cccccc; stroke-width: 0.8; stroke-linecap: round"/>
     </g>
     <g id="text_13">
      <!-- 960 -->
      <g style="fill: #262626" transform="translate(269.748352 537.54543)rotate(-45)scale(0.088 -0.088)">
       <defs>
        <path id="DejaVuSans-39" d="M 703 97 
L 703 672 
Q 941 559 1184 500 
Q 1428 441 1663 441 
Q 2288 441 2617 861 
Q 2947 1281 2994 2138 
Q 2813 1869 2534 1725 
Q 2256 1581 1919 1581 
Q 1219 1581 811 2004 
Q 403 2428 403 3163 
Q 403 3881 828 4315 
Q 1253 4750 1959 4750 
Q 2769 4750 3195 4129 
Q 3622 3509 3622 2328 
Q 3622 1225 3098 567 
Q 2575 -91 1691 -91 
Q 1453 -91 1209 -44 
Q 966 3 703 97 
z
M 1959 2075 
Q 2384 2075 2632 2365 
Q 2881 2656 2881 3163 
Q 2881 3666 2632 3958 
Q 2384 4250 1959 4250 
Q 1534 4250 1286 3958 
Q 1038 3666 1038 3163 
Q 1038 2656 1286 2365 
Q 1534 2075 1959 2075 
z
" transform="scale(0.015625)"/>
       </defs>
       <use xlink:href="#DejaVuSans-39"/>
       <use xlink:href="#DejaVuSans-36" x="63.623047"/>
       <use xlink:href="#DejaVuSans-30" x="127.246094"/>
      </g>
     </g>
    </g>
    <g id="xtick_14">
     <g id="line2d_14">
      <path d="M 290.996553 512.64 
L 290.996553 69.12 
" clip-path="url(#p5f960d27fc)" style="fill: none; stroke: #cccccc; stroke-width: 0.8; stroke-linecap: round"/>
     </g>
     <g id="text_14">
      <!-- 1040 -->
      <g style="fill: #262626" transform="translate(284.795404 541.504521)rotate(-45)scale(0.088 -0.088)">
       <use xlink:href="#DejaVuSans-31"/>
       <use xlink:href="#DejaVuSans-30" x="63.623047"/>
       <use xlink:href="#DejaVuSans-34" x="127.246094"/>
       <use xlink:href="#DejaVuSans-30" x="190.869141"/>
      </g>
     </g>
    </g>
    <g id="xtick_15">
     <g id="line2d_15">
      <path d="M 308.02315 512.64 
L 308.02315 69.12 
" clip-path="url(#p5f960d27fc)" style="fill: none; stroke: #cccccc; stroke-width: 0.8; stroke-linecap: round"/>
     </g>
     <g id="text_15">
      <!-- 1120 -->
      <g style="fill: #262626" transform="translate(301.822 541.504521)rotate(-45)scale(0.088 -0.088)">
       <use xlink:href="#DejaVuSans-31"/>
       <use xlink:href="#DejaVuSans-31" x="63.623047"/>
       <use xlink:href="#DejaVuSans-32" x="127.246094"/>
       <use xlink:href="#DejaVuSans-30" x="190.869141"/>
      </g>
     </g>
    </g>
    <g id="xtick_16">
     <g id="line2d_16">
      <path d="M 325.049747 512.64 
L 325.049747 69.12 
" clip-path="url(#p5f960d27fc)" style="fill: none; stroke: #cccccc; stroke-width: 0.8; stroke-linecap: round"/>
     </g>
     <g id="text_16">
      <!-- 1200 -->
      <g style="fill: #262626" transform="translate(318.848597 541.504521)rotate(-45)scale(0.088 -0.088)">
       <use xlink:href="#DejaVuSans-31"/>
       <use xlink:href="#DejaVuSans-32" x="63.623047"/>
       <use xlink:href="#DejaVuSans-30" x="127.246094"/>
       <use xlink:href="#DejaVuSans-30" x="190.869141"/>
      </g>
     </g>
    </g>
    <g id="xtick_17">
     <g id="line2d_17">
      <path d="M 342.076343 512.64 
L 342.076343 69.12 
" clip-path="url(#p5f960d27fc)" style="fill: none; stroke: #cccccc; stroke-width: 0.8; stroke-linecap: round"/>
     </g>
     <g id="text_17">
      <!-- 1280 -->
      <g style="fill: #262626" transform="translate(335.875194 541.504521)rotate(-45)scale(0.088 -0.088)">
       <use xlink:href="#DejaVuSans-31"/>
       <use xlink:href="#DejaVuSans-32" x="63.623047"/>
       <use xlink:href="#DejaVuSans-38" x="127.246094"/>
       <use xlink:href="#DejaVuSans-30" x="190.869141"/>
      </g>
     </g>
    </g>
    <g id="xtick_18">
     <g id="line2d_18">
      <path d="M 359.10294 512.64 
L 359.10294 69.12 
" clip-path="url(#p5f960d27fc)" style="fill: none; stroke: #cccccc; stroke-width: 0.8; stroke-linecap: round"/>
     </g>
     <g id="text_18">
      <!-- 1360 -->
      <g style="fill: #262626" transform="translate(352.901791 541.504521)rotate(-45)scale(0.088 -0.088)">
       <use xlink:href="#DejaVuSans-31"/>
       <use xlink:href="#DejaVuSans-33" x="63.623047"/>
       <use xlink:href="#DejaVuSans-36" x="127.246094"/>
       <use xlink:href="#DejaVuSans-30" x="190.869141"/>
      </g>
     </g>
    </g>
    <g id="xtick_19">
     <g id="line2d_19">
      <path d="M 376.129537 512.64 
L 376.129537 69.12 
" clip-path="url(#p5f960d27fc)" style="fill: none; stroke: #cccccc; stroke-width: 0.8; stroke-linecap: round"/>
     </g>
     <g id="text_19">
      <!-- 1440 -->
      <g style="fill: #262626" transform="translate(369.928387 541.504521)rotate(-45)scale(0.088 -0.088)">
       <use xlink:href="#DejaVuSans-31"/>
       <use xlink:href="#DejaVuSans-34" x="63.623047"/>
       <use xlink:href="#DejaVuSans-34" x="127.246094"/>
       <use xlink:href="#DejaVuSans-30" x="190.869141"/>
      </g>
     </g>
    </g>
    <g id="text_20">
     <!-- Time (Minutes) -->
     <g style="fill: #262626" transform="translate(186.87375 554.093115)scale(0.096 -0.096)">
      <defs>
       <path id="DejaVuSans-54" d="M -19 4666 
L 3928 4666 
L 3928 4134 
L 2272 4134 
L 2272 0 
L 1638 0 
L 1638 4134 
L -19 4134 
L -19 4666 
z
" transform="scale(0.015625)"/>
       <path id="DejaVuSans-69" d="M 603 3500 
L 1178 3500 
L 1178 0 
L 603 0 
L 603 3500 
z
M 603 4863 
L 1178 4863 
L 1178 4134 
L 603 4134 
L 603 4863 
z
" transform="scale(0.015625)"/>
       <path id="DejaVuSans-6d" d="M 3328 2828 
Q 3544 3216 3844 3400 
Q 4144 3584 4550 3584 
Q 5097 3584 5394 3201 
Q 5691 2819 5691 2113 
L 5691 0 
L 5113 0 
L 5113 2094 
Q 5113 2597 4934 2840 
Q 4756 3084 4391 3084 
Q 3944 3084 3684 2787 
Q 3425 2491 3425 1978 
L 3425 0 
L 2847 0 
L 2847 2094 
Q 2847 2600 2669 2842 
Q 2491 3084 2119 3084 
Q 1678 3084 1418 2786 
Q 1159 2488 1159 1978 
L 1159 0 
L 581 0 
L 581 3500 
L 1159 3500 
L 1159 2956 
Q 1356 3278 1631 3431 
Q 1906 3584 2284 3584 
Q 2666 3584 2933 3390 
Q 3200 3197 3328 2828 
z
" transform="scale(0.015625)"/>
       <path id="DejaVuSans-65" d="M 3597 1894 
L 3597 1613 
L 953 1613 
Q 991 1019 1311 708 
Q 1631 397 2203 397 
Q 2534 397 2845 478 
Q 3156 559 3463 722 
L 3463 178 
Q 3153 47 2828 -22 
Q 2503 -91 2169 -91 
Q 1331 -91 842 396 
Q 353 884 353 1716 
Q 353 2575 817 3079 
Q 1281 3584 2069 3584 
Q 2775 3584 3186 3129 
Q 3597 2675 3597 1894 
z
M 3022 2063 
Q 3016 2534 2758 2815 
Q 2500 3097 2075 3097 
Q 1594 3097 1305 2825 
Q 1016 2553 972 2059 
L 3022 2063 
z
" transform="scale(0.015625)"/>
       <path id="DejaVuSans-20" transform="scale(0.015625)"/>
       <path id="DejaVuSans-28" d="M 1984 4856 
Q 1566 4138 1362 3434 
Q 1159 2731 1159 2009 
Q 1159 1288 1364 580 
Q 1569 -128 1984 -844 
L 1484 -844 
Q 1016 -109 783 600 
Q 550 1309 550 2009 
Q 550 2706 781 3412 
Q 1013 4119 1484 4856 
L 1984 4856 
z
" transform="scale(0.015625)"/>
       <path id="DejaVuSans-4d" d="M 628 4666 
L 1569 4666 
L 2759 1491 
L 3956 4666 
L 4897 4666 
L 4897 0 
L 4281 0 
L 4281 4097 
L 3078 897 
L 2444 897 
L 1241 4097 
L 1241 0 
L 628 0 
L 628 4666 
z
" transform="scale(0.015625)"/>
       <path id="DejaVuSans-6e" d="M 3513 2113 
L 3513 0 
L 2938 0 
L 2938 2094 
Q 2938 2591 2744 2837 
Q 2550 3084 2163 3084 
Q 1697 3084 1428 2787 
Q 1159 2491 1159 1978 
L 1159 0 
L 581 0 
L 581 3500 
L 1159 3500 
L 1159 2956 
Q 1366 3272 1645 3428 
Q 1925 3584 2291 3584 
Q 2894 3584 3203 3211 
Q 3513 2838 3513 2113 
z
" transform="scale(0.015625)"/>
       <path id="DejaVuSans-75" d="M 544 1381 
L 544 3500 
L 1119 3500 
L 1119 1403 
Q 1119 906 1312 657 
Q 1506 409 1894 409 
Q 2359 409 2629 706 
Q 2900 1003 2900 1516 
L 2900 3500 
L 3475 3500 
L 3475 0 
L 2900 0 
L 2900 538 
Q 2691 219 2414 64 
Q 2138 -91 1772 -91 
Q 1169 -91 856 284 
Q 544 659 544 1381 
z
M 1991 3584 
L 1991 3584 
z
" transform="scale(0.015625)"/>
       <path id="DejaVuSans-74" d="M 1172 4494 
L 1172 3500 
L 2356 3500 
L 2356 3053 
L 1172 3053 
L 1172 1153 
Q 1172 725 1289 603 
Q 1406 481 1766 481 
L 2356 481 
L 2356 0 
L 1766 0 
Q 1100 0 847 248 
Q 594 497 594 1153 
L 594 3053 
L 172 3053 
L 172 3500 
L 594 3500 
L 594 4494 
L 1172 4494 
z
" transform="scale(0.015625)"/>
       <path id="DejaVuSans-73" d="M 2834 3397 
L 2834 2853 
Q 2591 2978 2328 3040 
Q 2066 3103 1784 3103 
Q 1356 3103 1142 2972 
Q 928 2841 928 2578 
Q 928 2378 1081 2264 
Q 1234 2150 1697 2047 
L 1894 2003 
Q 2506 1872 2764 1633 
Q 3022 1394 3022 966 
Q 3022 478 2636 193 
Q 2250 -91 1575 -91 
Q 1294 -91 989 -36 
Q 684 19 347 128 
L 347 722 
Q 666 556 975 473 
Q 1284 391 1588 391 
Q 1994 391 2212 530 
Q 2431 669 2431 922 
Q 2431 1156 2273 1281 
Q 2116 1406 1581 1522 
L 1381 1569 
Q 847 1681 609 1914 
Q 372 2147 372 2553 
Q 372 3047 722 3315 
Q 1072 3584 1716 3584 
Q 2034 3584 2315 3537 
Q 2597 3491 2834 3397 
z
" transform="scale(0.015625)"/>
       <path id="DejaVuSans-29" d="M 513 4856 
L 1013 4856 
Q 1481 4119 1714 3412 
Q 1947 2706 1947 2009 
Q 1947 1309 1714 600 
Q 1481 -109 1013 -844 
L 513 -844 
Q 928 -128 1133 580 
Q 1338 1288 1338 2009 
Q 1338 2731 1133 3434 
Q 928 4138 513 4856 
z
" transform="scale(0.015625)"/>
      </defs>
      <use xlink:href="#DejaVuSans-54"/>
      <use xlink:href="#DejaVuSans-69" x="57.958984"/>
      <use xlink:href="#DejaVuSans-6d" x="85.742188"/>
      <use xlink:href="#DejaVuSans-65" x="183.154297"/>
      <use xlink:href="#DejaVuSans-20" x="244.677734"/>
      <use xlink:href="#DejaVuSans-28" x="276.464844"/>
      <use xlink:href="#DejaVuSans-4d" x="315.478516"/>
      <use xlink:href="#DejaVuSans-69" x="401.757812"/>
      <use xlink:href="#DejaVuSans-6e" x="429.541016"/>
      <use xlink:href="#DejaVuSans-75" x="492.919922"/>
      <use xlink:href="#DejaVuSans-74" x="556.298828"/>
      <use xlink:href="#DejaVuSans-65" x="595.507812"/>
      <use xlink:href="#DejaVuSans-73" x="657.03125"/>
      <use xlink:href="#DejaVuSans-29" x="709.130859"/>
     </g>
    </g>
   </g>
   <g id="matplotlib.axis_2">
    <g id="ytick_1">
     <g id="line2d_20">
      <path d="M 54.3375 492.48 
L 391.23 492.48 
" clip-path="url(#p5f960d27fc)" style="fill: none; stroke: #cccccc; stroke-width: 0.8; stroke-linecap: round"/>
     </g>
     <g id="text_21">
      <!-- 0 -->
      <g style="fill: #262626" transform="translate(40.4385 495.823312)scale(0.088 -0.088)">
       <use xlink:href="#DejaVuSans-30"/>
      </g>
     </g>
    </g>
    <g id="ytick_2">
     <g id="line2d_21">
      <path d="M 54.3375 470.33832 
L 391.23 470.33832 
" clip-path="url(#p5f960d27fc)" style="fill: none; stroke: #cccccc; stroke-width: 0.8; stroke-linecap: round"/>
     </g>
     <g id="text_22">
      <!-- 100 -->
      <g style="fill: #262626" transform="translate(29.2405 473.681632)scale(0.088 -0.088)">
       <use xlink:href="#DejaVuSans-31"/>
       <use xlink:href="#DejaVuSans-30" x="63.623047"/>
       <use xlink:href="#DejaVuSans-30" x="127.246094"/>
      </g>
     </g>
    </g>
    <g id="ytick_3">
     <g id="line2d_22">
      <path d="M 54.3375 448.196639 
L 391.23 448.196639 
" clip-path="url(#p5f960d27fc)" style="fill: none; stroke: #cccccc; stroke-width: 0.8; stroke-linecap: round"/>
     </g>
     <g id="text_23">
      <!-- 200 -->
      <g style="fill: #262626" transform="translate(29.2405 451.539952)scale(0.088 -0.088)">
       <use xlink:href="#DejaVuSans-32"/>
       <use xlink:href="#DejaVuSans-30" x="63.623047"/>
       <use xlink:href="#DejaVuSans-30" x="127.246094"/>
      </g>
     </g>
    </g>
    <g id="ytick_4">
     <g id="line2d_23">
      <path d="M 54.3375 426.054959 
L 391.23 426.054959 
" clip-path="url(#p5f960d27fc)" style="fill: none; stroke: #cccccc; stroke-width: 0.8; stroke-linecap: round"/>
     </g>
     <g id="text_24">
      <!-- 300 -->
      <g style="fill: #262626" transform="translate(29.2405 429.398271)scale(0.088 -0.088)">
       <use xlink:href="#DejaVuSans-33"/>
       <use xlink:href="#DejaVuSans-30" x="63.623047"/>
       <use xlink:href="#DejaVuSans-30" x="127.246094"/>
      </g>
     </g>
    </g>
    <g id="ytick_5">
     <g id="line2d_24">
      <path d="M 54.3375 403.913278 
L 391.23 403.913278 
" clip-path="url(#p5f960d27fc)" style="fill: none; stroke: #cccccc; stroke-width: 0.8; stroke-linecap: round"/>
     </g>
     <g id="text_25">
      <!-- 400 -->
      <g style="fill: #262626" transform="translate(29.2405 407.256591)scale(0.088 -0.088)">
       <use xlink:href="#DejaVuSans-34"/>
       <use xlink:href="#DejaVuSans-30" x="63.623047"/>
       <use xlink:href="#DejaVuSans-30" x="127.246094"/>
      </g>
     </g>
    </g>
    <g id="ytick_6">
     <g id="line2d_25">
      <path d="M 54.3375 381.771598 
L 391.23 381.771598 
" clip-path="url(#p5f960d27fc)" style="fill: none; stroke: #cccccc; stroke-width: 0.8; stroke-linecap: round"/>
     </g>
     <g id="text_26">
      <!-- 500 -->
      <g style="fill: #262626" transform="translate(29.2405 385.114911)scale(0.088 -0.088)">
       <use xlink:href="#DejaVuSans-35"/>
       <use xlink:href="#DejaVuSans-30" x="63.623047"/>
       <use xlink:href="#DejaVuSans-30" x="127.246094"/>
      </g>
     </g>
    </g>
    <g id="ytick_7">
     <g id="line2d_26">
      <path d="M 54.3375 359.629918 
L 391.23 359.629918 
" clip-path="url(#p5f960d27fc)" style="fill: none; stroke: #cccccc; stroke-width: 0.8; stroke-linecap: round"/>
     </g>
     <g id="text_27">
      <!-- 600 -->
      <g style="fill: #262626" transform="translate(29.2405 362.97323)scale(0.088 -0.088)">
       <use xlink:href="#DejaVuSans-36"/>
       <use xlink:href="#DejaVuSans-30" x="63.623047"/>
       <use xlink:href="#DejaVuSans-30" x="127.246094"/>
      </g>
     </g>
    </g>
    <g id="ytick_8">
     <g id="line2d_27">
      <path d="M 54.3375 337.488237 
L 391.23 337.488237 
" clip-path="url(#p5f960d27fc)" style="fill: none; stroke: #cccccc; stroke-width: 0.8; stroke-linecap: round"/>
     </g>
     <g id="text_28">
      <!-- 700 -->
      <g style="fill: #262626" transform="translate(29.2405 340.83155)scale(0.088 -0.088)">
       <use xlink:href="#DejaVuSans-37"/>
       <use xlink:href="#DejaVuSans-30" x="63.623047"/>
       <use xlink:href="#DejaVuSans-30" x="127.246094"/>
      </g>
     </g>
    </g>
    <g id="ytick_9">
     <g id="line2d_28">
      <path d="M 54.3375 315.346557 
L 391.23 315.346557 
" clip-path="url(#p5f960d27fc)" style="fill: none; stroke: #cccccc; stroke-width: 0.8; stroke-linecap: round"/>
     </g>
     <g id="text_29">
      <!-- 800 -->
      <g style="fill: #262626" transform="translate(29.2405 318.689869)scale(0.088 -0.088)">
       <use xlink:href="#DejaVuSans-38"/>
       <use xlink:href="#DejaVuSans-30" x="63.623047"/>
       <use xlink:href="#DejaVuSans-30" x="127.246094"/>
      </g>
     </g>
    </g>
    <g id="ytick_10">
     <g id="line2d_29">
      <path d="M 54.3375 293.204876 
L 391.23 293.204876 
" clip-path="url(#p5f960d27fc)" style="fill: none; stroke: #cccccc; stroke-width: 0.8; stroke-linecap: round"/>
     </g>
     <g id="text_30">
      <!-- 900 -->
      <g style="fill: #262626" transform="translate(29.2405 296.548189)scale(0.088 -0.088)">
       <use xlink:href="#DejaVuSans-39"/>
       <use xlink:href="#DejaVuSans-30" x="63.623047"/>
       <use xlink:href="#DejaVuSans-30" x="127.246094"/>
      </g>
     </g>
    </g>
    <g id="ytick_11">
     <g id="line2d_30">
      <path d="M 54.3375 271.063196 
L 391.23 271.063196 
" clip-path="url(#p5f960d27fc)" style="fill: none; stroke: #cccccc; stroke-width: 0.8; stroke-linecap: round"/>
     </g>
     <g id="text_31">
      <!-- 1000 -->
      <g style="fill: #262626" transform="translate(23.6415 274.406509)scale(0.088 -0.088)">
       <use xlink:href="#DejaVuSans-31"/>
       <use xlink:href="#DejaVuSans-30" x="63.623047"/>
       <use xlink:href="#DejaVuSans-30" x="127.246094"/>
       <use xlink:href="#DejaVuSans-30" x="190.869141"/>
      </g>
     </g>
    </g>
    <g id="ytick_12">
     <g id="line2d_31">
      <path d="M 54.3375 248.921516 
L 391.23 248.921516 
" clip-path="url(#p5f960d27fc)" style="fill: none; stroke: #cccccc; stroke-width: 0.8; stroke-linecap: round"/>
     </g>
     <g id="text_32">
      <!-- 1100 -->
      <g style="fill: #262626" transform="translate(23.6415 252.264828)scale(0.088 -0.088)">
       <use xlink:href="#DejaVuSans-31"/>
       <use xlink:href="#DejaVuSans-31" x="63.623047"/>
       <use xlink:href="#DejaVuSans-30" x="127.246094"/>
       <use xlink:href="#DejaVuSans-30" x="190.869141"/>
      </g>
     </g>
    </g>
    <g id="ytick_13">
     <g id="line2d_32">
      <path d="M 54.3375 226.779835 
L 391.23 226.779835 
" clip-path="url(#p5f960d27fc)" style="fill: none; stroke: #cccccc; stroke-width: 0.8; stroke-linecap: round"/>
     </g>
     <g id="text_33">
      <!-- 1200 -->
      <g style="fill: #262626" transform="translate(23.6415 230.123148)scale(0.088 -0.088)">
       <use xlink:href="#DejaVuSans-31"/>
       <use xlink:href="#DejaVuSans-32" x="63.623047"/>
       <use xlink:href="#DejaVuSans-30" x="127.246094"/>
       <use xlink:href="#DejaVuSans-30" x="190.869141"/>
      </g>
     </g>
    </g>
    <g id="ytick_14">
     <g id="line2d_33">
      <path d="M 54.3375 204.638155 
L 391.23 204.638155 
" clip-path="url(#p5f960d27fc)" style="fill: none; stroke: #cccccc; stroke-width: 0.8; stroke-linecap: round"/>
     </g>
     <g id="text_34">
      <!-- 1300 -->
      <g style="fill: #262626" transform="translate(23.6415 207.981467)scale(0.088 -0.088)">
       <use xlink:href="#DejaVuSans-31"/>
       <use xlink:href="#DejaVuSans-33" x="63.623047"/>
       <use xlink:href="#DejaVuSans-30" x="127.246094"/>
       <use xlink:href="#DejaVuSans-30" x="190.869141"/>
      </g>
     </g>
    </g>
    <g id="ytick_15">
     <g id="line2d_34">
      <path d="M 54.3375 182.496474 
L 391.23 182.496474 
" clip-path="url(#p5f960d27fc)" style="fill: none; stroke: #cccccc; stroke-width: 0.8; stroke-linecap: round"/>
     </g>
     <g id="text_35">
      <!-- 1400 -->
      <g style="fill: #262626" transform="translate(23.6415 185.839787)scale(0.088 -0.088)">
       <use xlink:href="#DejaVuSans-31"/>
       <use xlink:href="#DejaVuSans-34" x="63.623047"/>
       <use xlink:href="#DejaVuSans-30" x="127.246094"/>
       <use xlink:href="#DejaVuSans-30" x="190.869141"/>
      </g>
     </g>
    </g>
    <g id="ytick_16">
     <g id="line2d_35">
      <path d="M 54.3375 160.354794 
L 391.23 160.354794 
" clip-path="url(#p5f960d27fc)" style="fill: none; stroke: #cccccc; stroke-width: 0.8; stroke-linecap: round"/>
     </g>
     <g id="text_36">
      <!-- 1500 -->
      <g style="fill: #262626" transform="translate(23.6415 163.698107)scale(0.088 -0.088)">
       <use xlink:href="#DejaVuSans-31"/>
       <use xlink:href="#DejaVuSans-35" x="63.623047"/>
       <use xlink:href="#DejaVuSans-30" x="127.246094"/>
       <use xlink:href="#DejaVuSans-30" x="190.869141"/>
      </g>
     </g>
    </g>
    <g id="ytick_17">
     <g id="line2d_36">
      <path d="M 54.3375 138.213114 
L 391.23 138.213114 
" clip-path="url(#p5f960d27fc)" style="fill: none; stroke: #cccccc; stroke-width: 0.8; stroke-linecap: round"/>
     </g>
     <g id="text_37">
      <!-- 1600 -->
      <g style="fill: #262626" transform="translate(23.6415 141.556426)scale(0.088 -0.088)">
       <use xlink:href="#DejaVuSans-31"/>
       <use xlink:href="#DejaVuSans-36" x="63.623047"/>
       <use xlink:href="#DejaVuSans-30" x="127.246094"/>
       <use xlink:href="#DejaVuSans-30" x="190.869141"/>
      </g>
     </g>
    </g>
    <g id="ytick_18">
     <g id="line2d_37">
      <path d="M 54.3375 116.071433 
L 391.23 116.071433 
" clip-path="url(#p5f960d27fc)" style="fill: none; stroke: #cccccc; stroke-width: 0.8; stroke-linecap: round"/>
     </g>
     <g id="text_38">
      <!-- 1700 -->
      <g style="fill: #262626" transform="translate(23.6415 119.414746)scale(0.088 -0.088)">
       <use xlink:href="#DejaVuSans-31"/>
       <use xlink:href="#DejaVuSans-37" x="63.623047"/>
       <use xlink:href="#DejaVuSans-30" x="127.246094"/>
       <use xlink:href="#DejaVuSans-30" x="190.869141"/>
      </g>
     </g>
    </g>
    <g id="ytick_19">
     <g id="line2d_38">
      <path d="M 54.3375 93.929753 
L 391.23 93.929753 
" clip-path="url(#p5f960d27fc)" style="fill: none; stroke: #cccccc; stroke-width: 0.8; stroke-linecap: round"/>
     </g>
     <g id="text_39">
      <!-- 1800 -->
      <g style="fill: #262626" transform="translate(23.6415 97.273065)scale(0.088 -0.088)">
       <use xlink:href="#DejaVuSans-31"/>
       <use xlink:href="#DejaVuSans-38" x="63.623047"/>
       <use xlink:href="#DejaVuSans-30" x="127.246094"/>
       <use xlink:href="#DejaVuSans-30" x="190.869141"/>
      </g>
     </g>
    </g>
    <g id="text_40">
     <!-- Edge Coverages -->
     <g style="fill: #262626" transform="translate(17.645 329.98575)rotate(-90)scale(0.096 -0.096)">
      <defs>
       <path id="DejaVuSans-45" d="M 628 4666 
L 3578 4666 
L 3578 4134 
L 1259 4134 
L 1259 2753 
L 3481 2753 
L 3481 2222 
L 1259 2222 
L 1259 531 
L 3634 531 
L 3634 0 
L 628 0 
L 628 4666 
z
" transform="scale(0.015625)"/>
       <path id="DejaVuSans-64" d="M 2906 2969 
L 2906 4863 
L 3481 4863 
L 3481 0 
L 2906 0 
L 2906 525 
Q 2725 213 2448 61 
Q 2172 -91 1784 -91 
Q 1150 -91 751 415 
Q 353 922 353 1747 
Q 353 2572 751 3078 
Q 1150 3584 1784 3584 
Q 2172 3584 2448 3432 
Q 2725 3281 2906 2969 
z
M 947 1747 
Q 947 1113 1208 752 
Q 1469 391 1925 391 
Q 2381 391 2643 752 
Q 2906 1113 2906 1747 
Q 2906 2381 2643 2742 
Q 2381 3103 1925 3103 
Q 1469 3103 1208 2742 
Q 947 2381 947 1747 
z
" transform="scale(0.015625)"/>
       <path id="DejaVuSans-67" d="M 2906 1791 
Q 2906 2416 2648 2759 
Q 2391 3103 1925 3103 
Q 1463 3103 1205 2759 
Q 947 2416 947 1791 
Q 947 1169 1205 825 
Q 1463 481 1925 481 
Q 2391 481 2648 825 
Q 2906 1169 2906 1791 
z
M 3481 434 
Q 3481 -459 3084 -895 
Q 2688 -1331 1869 -1331 
Q 1566 -1331 1297 -1286 
Q 1028 -1241 775 -1147 
L 775 -588 
Q 1028 -725 1275 -790 
Q 1522 -856 1778 -856 
Q 2344 -856 2625 -561 
Q 2906 -266 2906 331 
L 2906 616 
Q 2728 306 2450 153 
Q 2172 0 1784 0 
Q 1141 0 747 490 
Q 353 981 353 1791 
Q 353 2603 747 3093 
Q 1141 3584 1784 3584 
Q 2172 3584 2450 3431 
Q 2728 3278 2906 2969 
L 2906 3500 
L 3481 3500 
L 3481 434 
z
" transform="scale(0.015625)"/>
       <path id="DejaVuSans-43" d="M 4122 4306 
L 4122 3641 
Q 3803 3938 3442 4084 
Q 3081 4231 2675 4231 
Q 1875 4231 1450 3742 
Q 1025 3253 1025 2328 
Q 1025 1406 1450 917 
Q 1875 428 2675 428 
Q 3081 428 3442 575 
Q 3803 722 4122 1019 
L 4122 359 
Q 3791 134 3420 21 
Q 3050 -91 2638 -91 
Q 1578 -91 968 557 
Q 359 1206 359 2328 
Q 359 3453 968 4101 
Q 1578 4750 2638 4750 
Q 3056 4750 3426 4639 
Q 3797 4528 4122 4306 
z
" transform="scale(0.015625)"/>
       <path id="DejaVuSans-6f" d="M 1959 3097 
Q 1497 3097 1228 2736 
Q 959 2375 959 1747 
Q 959 1119 1226 758 
Q 1494 397 1959 397 
Q 2419 397 2687 759 
Q 2956 1122 2956 1747 
Q 2956 2369 2687 2733 
Q 2419 3097 1959 3097 
z
M 1959 3584 
Q 2709 3584 3137 3096 
Q 3566 2609 3566 1747 
Q 3566 888 3137 398 
Q 2709 -91 1959 -91 
Q 1206 -91 779 398 
Q 353 888 353 1747 
Q 353 2609 779 3096 
Q 1206 3584 1959 3584 
z
" transform="scale(0.015625)"/>
       <path id="DejaVuSans-76" d="M 191 3500 
L 800 3500 
L 1894 563 
L 2988 3500 
L 3597 3500 
L 2284 0 
L 1503 0 
L 191 3500 
z
" transform="scale(0.015625)"/>
       <path id="DejaVuSans-72" d="M 2631 2963 
Q 2534 3019 2420 3045 
Q 2306 3072 2169 3072 
Q 1681 3072 1420 2755 
Q 1159 2438 1159 1844 
L 1159 0 
L 581 0 
L 581 3500 
L 1159 3500 
L 1159 2956 
Q 1341 3275 1631 3429 
Q 1922 3584 2338 3584 
Q 2397 3584 2469 3576 
Q 2541 3569 2628 3553 
L 2631 2963 
z
" transform="scale(0.015625)"/>
       <path id="DejaVuSans-61" d="M 2194 1759 
Q 1497 1759 1228 1600 
Q 959 1441 959 1056 
Q 959 750 1161 570 
Q 1363 391 1709 391 
Q 2188 391 2477 730 
Q 2766 1069 2766 1631 
L 2766 1759 
L 2194 1759 
z
M 3341 1997 
L 3341 0 
L 2766 0 
L 2766 531 
Q 2569 213 2275 61 
Q 1981 -91 1556 -91 
Q 1019 -91 701 211 
Q 384 513 384 1019 
Q 384 1609 779 1909 
Q 1175 2209 1959 2209 
L 2766 2209 
L 2766 2266 
Q 2766 2663 2505 2880 
Q 2244 3097 1772 3097 
Q 1472 3097 1187 3025 
Q 903 2953 641 2809 
L 641 3341 
Q 956 3463 1253 3523 
Q 1550 3584 1831 3584 
Q 2591 3584 2966 3190 
Q 3341 2797 3341 1997 
z
" transform="scale(0.015625)"/>
      </defs>
      <use xlink:href="#DejaVuSans-45"/>
      <use xlink:href="#DejaVuSans-64" x="63.183594"/>
      <use xlink:href="#DejaVuSans-67" x="126.660156"/>
      <use xlink:href="#DejaVuSans-65" x="190.136719"/>
      <use xlink:href="#DejaVuSans-20" x="251.660156"/>
      <use xlink:href="#DejaVuSans-43" x="283.447266"/>
      <use xlink:href="#DejaVuSans-6f" x="353.271484"/>
      <use xlink:href="#DejaVuSans-76" x="414.453125"/>
      <use xlink:href="#DejaVuSans-65" x="473.632812"/>
      <use xlink:href="#DejaVuSans-72" x="535.15625"/>
      <use xlink:href="#DejaVuSans-61" x="576.269531"/>
      <use xlink:href="#DejaVuSans-67" x="637.548828"/>
      <use xlink:href="#DejaVuSans-65" x="701.025391"/>
      <use xlink:href="#DejaVuSans-73" x="762.548828"/>
     </g>
    </g>
   </g>
   <g id="PolyCollection_1">
    <defs>
     <path id="ma186aa5036" d="M 69.650795 -107.875848 
L 69.650795 -83.52 
L 69.650795 -107.875848 
L 69.650795 -107.875848 
z
" style="stroke: #db5f57; stroke-opacity: 0.2; stroke-width: 0.8"/>
    </defs>
    <g clip-path="url(#p5f960d27fc)">
     <use xlink:href="#ma186aa5036" x="0" y="576" style="fill: #db5f57; fill-opacity: 0.2; stroke: #db5f57; stroke-opacity: 0.2; stroke-width: 0.8"/>
    </g>
   </g>
   <g id="PolyCollection_2">
    <defs>
     <path id="m63282b127d" d="M 69.650795 -122.710774 
L 69.650795 -83.52 
L 69.650795 -122.710774 
L 69.650795 -122.710774 
z
" style="stroke: #b9db57; stroke-opacity: 0.2; stroke-width: 0.8"/>
    </defs>
    <g clip-path="url(#p5f960d27fc)">
     <use xlink:href="#m63282b127d" x="0" y="576" style="fill: #b9db57; fill-opacity: 0.2; stroke: #b9db57; stroke-opacity: 0.2; stroke-width: 0.8"/>
    </g>
   </g>
   <g id="PolyCollection_3">
    <defs>
     <path id="m124a998a5e" d="M 69.650795 -123.153608 
L 69.650795 -83.52 
L 69.650795 -123.153608 
L 69.650795 -123.153608 
z
" style="stroke: #57db94; stroke-opacity: 0.2; stroke-width: 0.8"/>
    </defs>
    <g clip-path="url(#p5f960d27fc)">
     <use xlink:href="#m124a998a5e" x="0" y="576" style="fill: #57db94; fill-opacity: 0.2; stroke: #57db94; stroke-opacity: 0.2; stroke-width: 0.8"/>
    </g>
   </g>
   <g id="PolyCollection_4">
    <defs>
     <path id="maa23692f6d" d="M 69.650795 -107.875848 
L 69.650795 -83.52 
L 69.650795 -107.875848 
L 69.650795 -107.875848 
z
" style="stroke: #5784db; stroke-opacity: 0.2; stroke-width: 0.8"/>
    </defs>
    <g clip-path="url(#p5f960d27fc)">
     <use xlink:href="#maa23692f6d" x="0" y="576" style="fill: #5784db; fill-opacity: 0.2; stroke: #5784db; stroke-opacity: 0.2; stroke-width: 0.8"/>
    </g>
   </g>
   <g id="PolyCollection_5">
    <defs>
     <path id="md319b6c2f7" d="M 69.650795 -132.01028 
L 69.650795 -83.52 
L 69.650795 -132.01028 
L 69.650795 -132.01028 
z
" style="stroke: #c957db; stroke-opacity: 0.2; stroke-width: 0.8"/>
    </defs>
    <g clip-path="url(#p5f960d27fc)">
     <use xlink:href="#md319b6c2f7" x="0" y="576" style="fill: #c957db; fill-opacity: 0.2; stroke: #c957db; stroke-opacity: 0.2; stroke-width: 0.8"/>
    </g>
   </g>
   <g id="line2d_39">
    <path d="M 69.650795 480.302076 
L 70.07646 409.670115 
L 70.502125 404.134695 
L 70.714958 403.027611 
L 70.92779 402.806194 
L 71.140623 402.141944 
L 71.566288 370.257924 
L 71.77912 366.051005 
L 72.204785 362.286919 
L 72.417617 361.844086 
L 72.63045 356.751499 
L 73.056115 250.471433 
L 73.268947 250.250016 
L 74.120277 250.250016 
L 74.33311 250.0286 
L 74.545942 227.886919 
L 74.758774 222.351499 
L 74.971607 222.351499 
L 75.184439 222.130082 
L 76.035769 220.137331 
L 76.248602 207.959407 
L 77.099932 207.07374 
L 77.312764 204.416738 
L 77.525596 194.674399 
L 77.951261 192.017397 
L 78.376926 192.017397 
L 78.589759 191.79598 
L 78.802591 191.79598 
L 79.015424 191.574563 
L 79.228256 184.267809 
L 79.441089 184.267809 
L 79.653921 181.610807 
L 80.079586 181.610807 
L 80.292418 177.625305 
L 80.718083 176.961054 
L 80.930916 176.739638 
L 81.143748 176.296804 
L 81.356581 176.296804 
L 81.569413 171.647051 
L 82.633575 171.647051 
L 82.846408 171.425634 
L 89.657047 171.425634 
L 90.082712 170.761384 
L 90.295544 170.539967 
L 90.934041 170.539967 
L 91.146874 150.169621 
L 91.359706 149.726787 
L 91.785371 149.726787 
L 92.211036 149.283954 
L 92.636701 149.283954 
L 92.849534 147.512619 
L 93.062366 147.512619 
L 93.275198 147.069786 
L 94.339361 147.069786 
L 94.552193 146.184119 
L 94.765026 145.962702 
L 95.190691 144.634201 
L 95.829188 144.634201 
L 96.04202 143.527117 
L 96.254853 143.527117 
L 96.467685 142.862867 
L 96.89335 142.862867 
L 97.319015 142.420033 
L 97.957513 142.420033 
L 98.170345 141.755783 
L 98.383177 141.534366 
L 98.808842 141.534366 
L 99.021675 141.312949 
L 99.234507 141.312949 
L 99.44734 141.091532 
L 99.660172 141.091532 
L 99.873005 140.648699 
L 100.085837 140.648699 
L 100.29867 140.427282 
L 100.511502 140.427282 
L 100.724335 140.205865 
L 101.149999 140.205865 
L 101.362832 139.320198 
L 101.788497 139.320198 
L 102.001329 137.991697 
L 102.214162 137.991697 
L 102.426994 137.77028 
L 102.852659 137.77028 
L 103.065492 137.548863 
L 103.278324 137.548863 
L 103.491157 137.327446 
L 103.703989 137.327446 
L 103.916821 137.10603 
L 104.129654 137.10603 
L 104.342486 136.663196 
L 105.193816 136.663196 
L 105.619481 134.891862 
L 105.832314 134.670445 
L 107.322141 134.670445 
L 107.534973 134.449028 
L 110.301795 134.449028 
L 110.514628 134.227611 
L 110.940293 134.227611 
L 111.153125 134.006194 
L 111.57879 134.006194 
L 111.791622 133.784778 
L 112.004455 133.784778 
L 112.217287 133.120527 
L 113.068617 133.120527 
L 113.494282 132.677694 
L 113.919947 132.677694 
L 114.132779 132.456277 
L 114.345612 132.456277 
L 114.558444 131.792026 
L 115.409774 131.792026 
L 115.622607 131.57061 
L 116.261104 131.57061 
L 116.473937 131.349193 
L 118.176596 131.349193 
L 118.389429 131.127776 
L 119.027926 131.127776 
L 119.453591 130.463526 
L 121.369083 130.463526 
L 121.794748 130.020692 
L 124.56157 130.020692 
L 124.774402 129.577858 
L 125.625732 129.577858 
L 125.838565 129.356442 
L 126.902727 129.356442 
L 127.115559 129.135025 
L 127.754057 129.135025 
L 128.179722 128.692191 
L 129.882381 128.692191 
L 130.095214 128.470774 
L 134.777528 128.470774 
L 135.203193 127.806524 
L 135.628858 127.806524 
L 136.054523 127.36369 
L 136.267355 127.36369 
L 136.480188 127.142273 
L 139.459842 127.142273 
L 139.885507 126.69944 
L 140.09834 126.69944 
L 140.311172 126.478023 
L 142.865161 126.478023 
L 143.077994 126.256606 
L 144.567821 126.256606 
L 144.780654 126.035189 
L 145.206319 126.035189 
L 145.419151 125.813773 
L 146.057648 125.813773 
L 146.270481 125.149522 
L 146.483313 124.928105 
L 149.462968 124.928105 
L 149.6758 123.599605 
L 151.165627 123.599605 
L 151.37846 123.378188 
L 151.804125 123.378188 
L 152.016957 123.156771 
L 154.570947 123.156771 
L 154.783779 122.935354 
L 157.337769 122.935354 
L 157.550601 122.713937 
L 158.401931 122.713937 
L 158.614763 122.271104 
L 165.21257 122.271104 
L 165.638235 121.82827 
L 168.405057 121.82827 
L 168.830722 121.385437 
L 173.300203 121.385437 
L 173.513036 121.16402 
L 182.026334 121.16402 
L 182.239166 120.942603 
L 182.664831 120.942603 
L 182.877664 120.721186 
L 185.005988 120.721186 
L 185.218821 120.278353 
L 185.857318 120.278353 
L 186.070151 119.835519 
L 186.921481 119.835519 
L 187.134313 119.392685 
L 188.62414 119.392685 
L 188.836973 119.171269 
L 200.542758 119.171269 
L 200.75559 118.949852 
L 200.968423 118.949852 
L 201.394088 118.285601 
L 204.799407 118.285601 
L 205.01224 118.064185 
L 205.650737 118.064185 
L 205.863569 117.842768 
L 209.268889 117.842768 
L 209.481721 117.621351 
L 210.758716 117.621351 
L 210.971549 117.399934 
L 218.420685 117.399934 
L 218.84635 116.9571 
L 224.379993 116.9571 
L 224.592826 116.735684 
L 226.933983 116.735684 
L 227.146815 116.514267 
L 229.27514 116.514267 
L 229.487972 116.29285 
L 229.700805 116.29285 
L 229.913637 116.071433 
L 230.764967 116.071433 
L 230.9778 115.850016 
L 231.616297 115.850016 
L 231.82913 115.6286 
L 234.170287 115.6286 
L 234.383119 115.407183 
L 237.362773 115.407183 
L 237.788438 114.964349 
L 239.491098 114.964349 
L 239.703931 114.742932 
L 243.747747 114.742932 
L 243.96058 114.521516 
L 245.237574 114.521516 
L 245.450407 114.300099 
L 246.727402 114.300099 
L 246.940234 114.078682 
L 247.578732 114.078682 
L 247.791564 113.857265 
L 248.430061 113.857265 
L 248.642894 113.635848 
L 253.963705 113.635848 
L 254.176538 113.414432 
L 254.38937 113.414432 
L 254.602203 113.193015 
L 259.923014 113.193015 
L 260.135847 112.971598 
L 271.203135 112.971598 
L 271.415967 112.750181 
L 272.267297 112.750181 
L 272.480129 112.528764 
L 275.672616 112.528764 
L 275.885449 112.307348 
L 281.419093 112.307348 
L 281.631925 111.864514 
L 283.334585 111.864514 
L 283.547417 111.643097 
L 291.847883 111.643097 
L 292.060716 111.42168 
L 295.466035 111.42168 
L 295.678867 110.978847 
L 307.384653 110.978847 
L 307.597485 110.75743 
L 322.282925 110.75743 
L 322.495757 110.536013 
L 325.901077 110.536013 
L 326.113909 110.314596 
L 331.434721 110.314596 
L 331.647553 110.09318 
L 332.28605 110.09318 
L 332.498883 109.871763 
L 334.414375 109.871763 
L 334.627207 109.650346 
L 338.245359 109.650346 
L 338.458192 109.428929 
L 339.309522 109.428929 
L 339.735186 108.764679 
L 349.312647 108.764679 
L 349.52548 108.543262 
L 349.951144 108.543262 
L 350.163977 108.100428 
L 350.376809 108.100428 
L 350.589642 107.879012 
L 354.633459 107.879012 
L 354.846291 107.657595 
L 357.187448 107.657595 
L 357.400281 107.436178 
L 359.95427 107.436178 
L 360.167103 107.214761 
L 363.998087 107.214761 
L 364.210919 106.993344 
L 365.913579 106.993344 
L 366.126411 106.771928 
L 371.021558 106.771928 
L 371.23439 106.550511 
L 371.660055 106.550511 
L 371.872888 106.329094 
L 372.724218 106.329094 
L 372.93705 106.107677 
L 373.78838 106.107677 
L 374.001212 105.88626 
L 374.852542 105.88626 
L 375.065375 105.664843 
L 375.916705 105.664843 
L 375.916705 105.664843 
" clip-path="url(#p5f960d27fc)" style="fill: none; stroke: #db5f57; stroke-width: 1.2; stroke-linecap: round"/>
   </g>
   <g id="line2d_40">
    <path d="M 69.650795 472.884613 
L 70.289293 375.350511 
L 70.714958 323.317562 
L 71.77912 278.591367 
L 72.63045 263.756442 
L 73.056115 246.928764 
L 73.268947 245.600264 
L 73.694612 237.407842 
L 73.907445 229.879671 
L 74.120277 228.55117 
L 74.33311 226.337002 
L 74.545942 222.351499 
L 75.397272 216.151829 
L 75.610104 212.387743 
L 75.822937 211.944909 
L 77.099932 198.217068 
L 77.312764 197.109984 
L 77.525596 194.674399 
L 77.738429 194.010148 
L 78.802591 188.253311 
L 79.441089 183.160725 
L 80.292418 177.625305 
L 80.505251 177.403888 
L 80.930916 175.18972 
L 81.569413 171.647051 
L 82.420743 169.6543 
L 82.633575 168.547216 
L 82.846408 168.104382 
L 83.05924 166.554465 
L 83.697738 166.554465 
L 83.91057 166.111631 
L 84.974733 160.797628 
L 85.187565 160.354794 
L 85.61323 157.476376 
L 85.826062 157.254959 
L 86.46456 155.262208 
L 86.677392 155.040791 
L 87.103057 155.040791 
L 87.528722 153.71229 
L 87.741555 153.490873 
L 87.954387 153.04804 
L 88.167219 153.04804 
L 88.380052 152.605206 
L 88.805717 149.948204 
L 89.444214 148.84112 
L 89.657047 148.619703 
L 90.295544 147.512619 
L 90.508376 147.512619 
L 90.934041 146.848369 
L 91.146874 146.848369 
L 91.998204 145.077035 
L 92.211036 144.191367 
L 93.062366 144.191367 
L 93.488031 143.527117 
L 93.700863 143.3057 
L 94.126528 143.3057 
L 94.765026 142.198616 
L 94.977858 142.198616 
L 95.190691 141.755783 
L 95.616356 141.755783 
L 95.829188 140.870115 
L 96.04202 140.648699 
L 96.254853 140.205865 
L 96.680518 140.205865 
L 96.89335 139.984448 
L 97.106183 139.984448 
L 97.531848 139.320198 
L 97.74468 139.098781 
L 97.957513 139.098781 
L 98.170345 138.877364 
L 98.59601 138.877364 
L 99.021675 138.43453 
L 99.44734 138.43453 
L 99.873005 137.991697 
L 100.085837 137.991697 
L 100.29867 137.77028 
L 100.511502 137.77028 
L 100.724335 137.548863 
L 100.937167 137.10603 
L 101.362832 137.10603 
L 101.575664 136.884613 
L 102.001329 136.884613 
L 102.639827 136.220362 
L 103.065492 136.220362 
L 103.278324 135.777529 
L 103.703989 135.777529 
L 103.916821 135.334695 
L 104.342486 135.334695 
L 104.768151 134.891862 
L 105.193816 134.227611 
L 105.406649 134.227611 
L 105.619481 134.006194 
L 106.045146 134.006194 
L 106.257978 133.784778 
L 107.109308 133.784778 
L 107.322141 133.563361 
L 111.365957 133.563361 
L 111.791622 133.120527 
L 112.43012 133.120527 
L 112.642952 132.89911 
L 113.494282 132.89911 
L 113.707115 132.677694 
L 114.984109 132.677694 
L 115.409774 132.23486 
L 116.473937 132.23486 
L 116.686769 132.013443 
L 117.750931 132.013443 
L 117.963764 131.792026 
L 119.027926 131.792026 
L 119.240758 131.349193 
L 121.794748 131.349193 
L 122.00758 130.684942 
L 123.284575 130.684942 
L 123.497408 130.020692 
L 126.477062 130.020692 
L 126.689895 129.799275 
L 132.649203 129.799275 
L 132.862036 129.577858 
L 134.139031 129.577858 
L 134.351863 129.356442 
L 135.84169 129.356442 
L 136.054523 129.135025 
L 136.267355 128.692191 
L 137.970015 128.692191 
L 138.182847 128.470774 
L 139.885507 128.470774 
L 140.09834 128.027941 
L 143.290826 128.027941 
L 143.503659 127.806524 
L 144.993486 127.806524 
L 145.206319 127.585107 
L 146.270481 127.585107 
L 146.483313 127.36369 
L 146.696146 127.36369 
L 146.908978 127.142273 
L 147.760308 125.592356 
L 147.973141 125.370939 
L 149.6758 125.370939 
L 149.888633 125.149522 
L 157.337769 125.149522 
L 157.550601 124.928105 
L 158.189099 124.928105 
L 158.401931 124.485272 
L 173.300203 124.485272 
L 173.513036 124.263855 
L 183.728994 124.263855 
L 183.941826 124.042438 
L 184.793156 124.042438 
L 185.005988 123.821021 
L 196.286109 123.821021 
L 196.498941 123.378188 
L 196.711774 123.378188 
L 196.924606 123.156771 
L 198.414433 123.156771 
L 198.627266 122.935354 
L 202.245418 122.935354 
L 202.45825 122.713937 
L 205.437905 122.713937 
L 205.650737 122.492521 
L 208.843224 122.492521 
L 209.056056 122.271104 
L 209.481721 122.271104 
L 209.694554 122.049687 
L 210.120219 122.049687 
L 210.333051 121.82827 
L 224.167161 121.82827 
L 224.592826 121.385437 
L 225.656988 121.385437 
L 225.869821 121.16402 
L 228.849475 121.16402 
L 229.062308 120.942603 
L 230.764967 120.942603 
L 231.190632 120.499769 
L 234.595951 120.499769 
L 234.808784 120.278353 
L 239.278266 120.278353 
L 239.491098 120.056936 
L 243.747747 120.056936 
L 243.96058 119.835519 
L 244.599077 119.835519 
L 244.81191 119.614102 
L 247.578732 119.614102 
L 247.791564 119.392685 
L 254.176538 119.392685 
L 254.38937 119.171269 
L 259.284517 119.171269 
L 259.497349 118.949852 
L 268.649145 118.949852 
L 268.861977 118.728435 
L 272.054464 118.728435 
L 272.267297 118.507018 
L 273.969956 118.507018 
L 274.182789 118.285601 
L 275.459784 118.285601 
L 275.672616 118.064185 
L 277.800941 118.064185 
L 278.013773 117.842768 
L 279.929265 117.842768 
L 280.35493 117.399934 
L 289.932391 117.399934 
L 290.145223 117.178517 
L 293.124878 117.178517 
L 293.33771 116.9571 
L 305.256328 116.9571 
L 305.46916 116.735684 
L 321.431595 116.735684 
L 321.644427 116.514267 
L 331.221888 116.514267 
L 331.434721 116.29285 
L 334.201543 116.29285 
L 334.414375 116.071433 
L 337.819694 116.071433 
L 338.032527 115.850016 
L 339.522354 115.850016 
L 339.735186 115.407183 
L 349.312647 115.407183 
L 349.52548 115.185766 
L 349.951144 115.185766 
L 350.376809 114.742932 
L 356.123286 114.742932 
L 356.336118 114.521516 
L 362.295427 114.521516 
L 362.50826 114.300099 
L 364.423752 114.300099 
L 364.636584 114.078682 
L 365.913579 114.078682 
L 366.126411 113.857265 
L 370.595893 113.857265 
L 370.808726 113.635848 
L 371.872888 113.635848 
L 372.08572 113.414432 
L 372.724218 113.414432 
L 372.93705 113.193015 
L 373.78838 113.193015 
L 374.001212 112.971598 
L 375.916705 112.971598 
L 375.916705 112.971598 
" clip-path="url(#p5f960d27fc)" style="fill: none; stroke: #b9db57; stroke-width: 1.2; stroke-linecap: round"/>
   </g>
   <g id="line2d_41">
    <path d="M 69.650795 472.663196 
L 70.714958 338.595321 
L 71.353455 304.71855 
L 71.77912 295.861878 
L 72.204785 287.226623 
L 73.056115 262.870774 
L 73.268947 259.328105 
L 73.48178 253.349852 
L 73.694612 251.135684 
L 74.120277 242.057595 
L 74.33311 241.614761 
L 74.545942 240.064843 
L 74.758774 239.400593 
L 75.184439 234.972257 
L 75.397272 234.75084 
L 75.610104 231.208171 
L 75.822937 230.543921 
L 76.248602 226.779835 
L 76.674267 222.351499 
L 77.099932 218.587414 
L 77.312764 218.365997 
L 77.525596 214.601911 
L 77.738429 213.937661 
L 78.164094 212.166326 
L 78.376926 211.723493 
L 78.589759 211.723493 
L 79.653921 203.752488 
L 79.866754 203.309654 
L 80.079586 201.316903 
L 80.292418 200.874069 
L 80.718083 198.881318 
L 81.143748 197.552817 
L 81.356581 197.552817 
L 81.569413 196.224316 
L 82.207911 195.560066 
L 82.846408 194.010148 
L 83.05924 193.124481 
L 83.272073 193.124481 
L 83.484905 192.903064 
L 84.123403 192.903064 
L 84.549068 190.688896 
L 84.974733 189.803229 
L 85.61323 186.924811 
L 85.826062 186.481977 
L 86.038895 186.481977 
L 86.46456 185.817727 
L 86.890225 185.817727 
L 87.741555 184.267809 
L 88.592884 183.382142 
L 89.018549 182.053641 
L 89.231382 181.610807 
L 89.869879 181.610807 
L 90.934041 179.618056 
L 91.146874 179.396639 
L 91.785371 178.289555 
L 91.998204 178.068138 
L 92.849534 178.068138 
L 93.062366 177.403888 
L 93.275198 177.182471 
L 93.488031 177.182471 
L 93.700863 176.961054 
L 94.126528 176.961054 
L 94.339361 176.739638 
L 94.552193 176.739638 
L 94.765026 176.518221 
L 95.190691 176.518221 
L 95.403523 175.85397 
L 96.467685 175.85397 
L 96.680518 175.632554 
L 96.89335 175.632554 
L 97.106183 175.18972 
L 98.59601 175.18972 
L 98.808842 174.968303 
L 102.852659 174.968303 
L 103.065492 174.304053 
L 109.450465 174.304053 
L 109.663298 169.875717 
L 111.153125 169.875717 
L 111.365957 169.6543 
L 111.57879 169.6543 
L 111.791622 169.432883 
L 112.004455 169.432883 
L 112.217287 169.211466 
L 119.879256 169.211466 
L 120.092088 167.882965 
L 131.372209 167.882965 
L 131.585041 166.554465 
L 144.780654 166.554465 
L 144.993486 166.333048 
L 207.779062 166.333048 
L 207.991894 161.904712 
L 209.481721 161.904712 
L 209.694554 161.683295 
L 209.907386 161.240461 
L 210.120219 161.240461 
L 210.333051 161.019044 
L 223.954329 161.019044 
L 224.592826 160.354794 
L 224.805658 160.354794 
L 225.018491 160.133377 
L 225.231323 160.133377 
L 225.444156 159.91196 
L 229.913637 159.91196 
L 230.12647 159.690544 
L 230.339302 159.690544 
L 230.764967 159.24771 
L 235.872946 159.24771 
L 236.085779 158.58346 
L 237.362773 158.58346 
L 237.575606 158.362043 
L 239.065433 158.362043 
L 239.278266 158.140626 
L 243.747747 158.140626 
L 243.96058 157.919209 
L 244.599077 157.919209 
L 244.81191 157.697792 
L 247.578732 157.697792 
L 247.791564 157.476376 
L 248.004396 157.476376 
L 248.217229 157.254959 
L 251.196883 157.254959 
L 251.409716 157.033542 
L 253.112375 157.033542 
L 253.325208 156.812125 
L 253.963705 156.812125 
L 254.176538 156.590708 
L 255.2407 156.590708 
L 255.453533 156.369292 
L 259.284517 156.369292 
L 259.497349 156.147875 
L 272.054464 156.147875 
L 272.267297 155.926458 
L 273.969956 155.926458 
L 274.182789 155.705041 
L 275.459784 155.705041 
L 275.672616 155.483624 
L 279.929265 155.483624 
L 280.35493 155.040791 
L 290.145223 155.040791 
L 290.358056 154.819374 
L 291.209386 154.819374 
L 291.422218 154.597957 
L 292.060716 154.597957 
L 292.273548 154.37654 
L 297.807192 154.37654 
L 298.020024 154.155124 
L 300.361181 154.155124 
L 300.574014 153.933707 
L 301.638176 153.933707 
L 301.851009 153.71229 
L 305.46916 153.71229 
L 305.681993 153.490873 
L 307.597485 153.490873 
L 307.810318 153.269456 
L 321.431595 153.269456 
L 321.644427 153.04804 
L 329.093563 153.04804 
L 329.306396 152.826623 
L 329.944893 152.826623 
L 330.370558 152.383789 
L 330.583391 152.383789 
L 330.796223 152.162372 
L 332.28605 152.162372 
L 332.498883 151.940956 
L 334.201543 151.940956 
L 334.414375 151.719539 
L 337.819694 151.719539 
L 338.032527 151.498122 
L 339.309522 151.498122 
L 339.735186 150.833871 
L 339.948019 150.612455 
L 340.799349 150.612455 
L 341.012181 150.391038 
L 342.714841 150.391038 
L 342.927673 150.169621 
L 350.163977 150.169621 
L 350.376809 149.726787 
L 356.336118 149.726787 
L 356.548951 149.505371 
L 362.082595 149.505371 
L 362.295427 149.283954 
L 365.487914 149.283954 
L 365.700746 149.062537 
L 375.916705 149.062537 
L 375.916705 149.062537 
" clip-path="url(#p5f960d27fc)" style="fill: none; stroke: #57db94; stroke-width: 1.2; stroke-linecap: round"/>
   </g>
   <g id="line2d_42">
    <path d="M 69.650795 480.302076 
L 70.07646 413.655618 
L 70.289293 404.134695 
L 70.502125 403.249028 
L 70.92779 392.178188 
L 71.353455 388.414102 
L 71.566288 387.528435 
L 71.991953 383.985766 
L 72.204785 370.922175 
L 72.417617 274.384448 
L 72.63045 270.841779 
L 72.843282 270.841779 
L 73.056115 265.084942 
L 73.268947 248.035848 
L 73.48178 248.035848 
L 73.694612 247.814432 
L 73.907445 247.814432 
L 74.545942 247.150181 
L 74.971607 245.600264 
L 75.184439 221.022998 
L 75.397272 220.801582 
L 75.610104 220.137331 
L 75.822937 220.137331 
L 76.035769 219.915914 
L 76.248602 219.915914 
L 76.461434 209.066491 
L 76.887099 207.516573 
L 77.525596 207.516573 
L 77.738429 207.295157 
L 78.376926 205.080988 
L 78.589759 204.859572 
L 78.802591 190.246063 
L 79.015424 190.246063 
L 79.228256 190.024646 
L 79.866754 190.024646 
L 80.079586 181.610807 
L 80.505251 181.167974 
L 80.718083 181.167974 
L 80.930916 180.946557 
L 81.143748 180.946557 
L 81.356581 176.075387 
L 81.782246 174.082636 
L 81.995078 173.861219 
L 82.207911 173.861219 
L 82.633575 173.196969 
L 82.846408 173.196969 
L 83.05924 171.647051 
L 83.484905 171.647051 
L 83.697738 170.761384 
L 84.7619 170.761384 
L 84.974733 167.440132 
L 85.187565 166.554465 
L 85.400397 166.554465 
L 85.61323 164.11888 
L 86.038895 164.11888 
L 86.251727 162.568962 
L 86.677392 162.568962 
L 86.890225 162.347545 
L 87.31589 162.347545 
L 87.741555 160.797628 
L 88.805717 160.797628 
L 89.018549 157.697792 
L 89.869879 157.697792 
L 90.082712 155.926458 
L 90.295544 155.705041 
L 90.508376 155.262208 
L 90.934041 155.262208 
L 91.146874 154.819374 
L 91.998204 154.819374 
L 92.211036 152.383789 
L 92.636701 151.719539 
L 93.275198 151.719539 
L 93.488031 151.055288 
L 94.126528 151.055288 
L 94.339361 150.391038 
L 94.977858 150.391038 
L 95.190691 150.169621 
L 95.403523 148.84112 
L 95.616356 148.84112 
L 95.829188 148.17687 
L 96.467685 148.17687 
L 96.680518 146.626952 
L 96.89335 146.405535 
L 97.106183 146.405535 
L 97.531848 145.741285 
L 97.74468 145.741285 
L 98.170345 143.969951 
L 99.234507 143.969951 
L 99.44734 143.748534 
L 99.660172 143.748534 
L 99.873005 143.527117 
L 100.29867 143.527117 
L 100.511502 143.3057 
L 100.937167 142.64145 
L 101.362832 142.64145 
L 101.788497 142.198616 
L 102.001329 142.198616 
L 102.214162 141.534366 
L 102.426994 141.534366 
L 102.852659 141.091532 
L 103.065492 141.091532 
L 103.491157 140.648699 
L 103.703989 140.205865 
L 104.342486 140.205865 
L 104.555319 139.541614 
L 104.768151 139.541614 
L 104.980984 139.320198 
L 105.193816 139.320198 
L 105.406649 138.655947 
L 105.619481 138.655947 
L 105.832314 138.43453 
L 108.173471 138.43453 
L 108.386303 138.213114 
L 111.791622 138.213114 
L 112.004455 137.991697 
L 112.217287 137.991697 
L 112.43012 137.77028 
L 112.855785 137.77028 
L 113.068617 137.548863 
L 114.558444 137.548863 
L 114.771277 137.10603 
L 114.984109 137.10603 
L 115.196942 136.884613 
L 116.473937 136.884613 
L 116.686769 136.663196 
L 119.027926 136.663196 
L 119.240758 136.220362 
L 119.453591 136.220362 
L 119.666423 135.998946 
L 122.00758 135.998946 
L 122.220413 135.777529 
L 123.497408 135.777529 
L 123.71024 135.113278 
L 125.838565 135.113278 
L 126.051397 134.891862 
L 129.456717 134.891862 
L 129.669549 134.670445 
L 137.118685 134.670445 
L 137.331518 134.227611 
L 138.608512 134.227611 
L 138.821345 134.006194 
L 140.311172 134.006194 
L 140.524004 133.563361 
L 143.503659 133.563361 
L 143.716491 133.341944 
L 144.993486 133.341944 
L 145.206319 132.89911 
L 145.844816 132.89911 
L 146.057648 132.677694 
L 146.483313 132.677694 
L 146.696146 132.23486 
L 147.334643 132.23486 
L 147.547476 130.906359 
L 147.760308 130.906359 
L 147.973141 130.684942 
L 151.165627 130.684942 
L 151.37846 130.463526 
L 153.08112 130.463526 
L 153.293952 130.242109 
L 155.422277 130.242109 
L 155.635109 130.020692 
L 158.614763 130.020692 
L 158.827596 129.356442 
L 163.722743 129.356442 
L 163.935575 128.913608 
L 173.513036 128.913608 
L 173.725868 128.692191 
L 180.962172 128.692191 
L 181.175004 128.470774 
L 183.728994 128.470774 
L 183.941826 128.249357 
L 184.793156 128.249357 
L 185.005988 128.027941 
L 185.218821 128.027941 
L 185.431653 127.806524 
L 185.644486 127.806524 
L 185.857318 127.585107 
L 188.198475 127.585107 
L 188.411308 127.36369 
L 195.860444 127.36369 
L 196.073276 127.142273 
L 201.394088 127.142273 
L 201.60692 126.920857 
L 205.437905 126.920857 
L 205.650737 126.69944 
L 208.630391 126.69944 
L 208.843224 126.478023 
L 210.758716 126.478023 
L 210.971549 126.256606 
L 211.610046 126.256606 
L 211.822878 126.035189 
L 214.376868 126.035189 
L 214.5897 125.813773 
L 219.697679 125.813773 
L 219.910512 125.592356 
L 222.464501 125.592356 
L 222.677334 125.370939 
L 224.379993 125.370939 
L 224.592826 125.149522 
L 228.849475 125.149522 
L 229.062308 124.928105 
L 229.700805 124.928105 
L 229.913637 124.706689 
L 230.9778 124.706689 
L 231.190632 124.263855 
L 239.491098 124.263855 
L 239.703931 124.042438 
L 243.96058 124.042438 
L 244.173412 123.821021 
L 245.024742 123.821021 
L 245.237574 123.599605 
L 246.088904 123.599605 
L 246.301737 123.378188 
L 246.940234 123.378188 
L 247.153067 123.156771 
L 248.004396 123.156771 
L 248.217229 122.713937 
L 254.176538 122.713937 
L 254.38937 122.492521 
L 259.497349 122.492521 
L 259.710182 122.271104 
L 268.436313 122.271104 
L 268.649145 122.049687 
L 271.628799 122.049687 
L 271.841632 121.82827 
L 273.118627 121.82827 
L 273.331459 121.606853 
L 275.885449 121.606853 
L 276.098281 121.385437 
L 277.162443 121.385437 
L 277.375276 121.16402 
L 280.142098 121.16402 
L 280.35493 120.721186 
L 283.76025 120.721186 
L 283.973082 120.499769 
L 290.570888 120.499769 
L 290.783721 120.278353 
L 292.273548 120.278353 
L 292.48638 120.056936 
L 293.33771 120.056936 
L 293.550543 119.835519 
L 306.107658 119.835519 
L 306.32049 119.614102 
L 317.813443 119.614102 
L 318.026276 119.171269 
L 320.580265 119.171269 
L 320.793098 118.949852 
L 322.070092 118.949852 
L 322.282925 118.728435 
L 325.475412 118.728435 
L 325.688244 118.507018 
L 331.221888 118.507018 
L 331.434721 118.285601 
L 333.13738 118.285601 
L 333.350213 118.064185 
L 334.201543 118.064185 
L 334.414375 117.842768 
L 339.735186 117.842768 
L 339.948019 117.178517 
L 352.079469 117.178517 
L 352.292302 116.514267 
L 359.315773 116.514267 
L 359.528605 116.071433 
L 360.8056 116.071433 
L 361.018432 115.850016 
L 365.062249 115.850016 
L 365.275082 115.6286 
L 366.552076 115.6286 
L 366.764909 115.407183 
L 370.595893 115.407183 
L 370.808726 115.185766 
L 371.021558 115.185766 
L 371.23439 114.964349 
L 372.08572 114.964349 
L 372.511385 114.521516 
L 373.362715 114.521516 
L 373.575547 114.300099 
L 375.703872 114.300099 
L 375.916705 113.857265 
L 375.916705 113.857265 
" clip-path="url(#p5f960d27fc)" style="fill: none; stroke: #5784db; stroke-width: 1.2; stroke-linecap: round"/>
   </g>
   <g id="line2d_43">
    <path d="M 69.650795 468.23486 
L 69.863628 440.668468 
L 70.07646 373.579176 
L 70.502125 318.667809 
L 70.714958 313.796639 
L 71.353455 279.034201 
L 71.566288 275.712949 
L 71.991953 263.977858 
L 72.417617 254.456936 
L 72.843282 239.400593 
L 73.48178 225.008501 
L 73.694612 223.237166 
L 73.907445 215.708995 
L 74.120277 213.051993 
L 74.33311 212.387743 
L 74.545942 208.402241 
L 75.397272 200.874069 
L 75.610104 196.888567 
L 75.822937 196.224316 
L 77.099932 182.496474 
L 77.951261 176.296804 
L 79.228256 167.882965 
L 79.441089 166.111631 
L 79.653921 165.447381 
L 80.292418 161.240461 
L 80.930916 158.140626 
L 81.782246 154.155124 
L 82.207911 153.04804 
L 82.420743 152.605206 
L 83.05924 149.948204 
L 83.697738 149.948204 
L 83.91057 149.505371 
L 84.549068 146.405535 
L 85.187565 143.527117 
L 86.251727 139.320198 
L 87.103057 138.43453 
L 87.31589 137.991697 
L 87.528722 137.10603 
L 87.741555 137.10603 
L 87.954387 136.663196 
L 88.167219 136.663196 
L 88.380052 136.441779 
L 88.805717 133.784778 
L 89.231382 132.677694 
L 89.657047 132.23486 
L 90.934041 129.799275 
L 91.146874 129.799275 
L 91.998204 127.806524 
L 92.211036 127.142273 
L 92.423869 126.920857 
L 92.849534 126.920857 
L 93.062366 126.69944 
L 93.275198 126.256606 
L 93.488031 126.256606 
L 93.700863 126.035189 
L 94.126528 126.035189 
L 94.339361 125.813773 
L 95.190691 124.263855 
L 95.616356 124.263855 
L 95.829188 123.156771 
L 96.04202 122.935354 
L 96.254853 122.492521 
L 96.467685 122.492521 
L 96.680518 122.271104 
L 97.106183 122.271104 
L 97.531848 121.606853 
L 97.74468 121.385437 
L 97.957513 121.385437 
L 98.170345 121.16402 
L 98.59601 121.16402 
L 98.808842 120.942603 
L 99.44734 120.942603 
L 99.873005 120.499769 
L 100.085837 120.499769 
L 100.29867 120.278353 
L 100.511502 120.278353 
L 100.724335 119.614102 
L 101.362832 119.614102 
L 101.575664 119.392685 
L 101.788497 119.392685 
L 102.426994 118.285601 
L 102.639827 118.064185 
L 103.065492 118.064185 
L 103.491157 117.399934 
L 103.916821 116.9571 
L 104.342486 116.9571 
L 104.768151 116.514267 
L 105.193816 115.850016 
L 105.406649 115.850016 
L 105.619481 115.407183 
L 107.109308 115.407183 
L 107.322141 115.185766 
L 111.365957 115.185766 
L 111.791622 114.742932 
L 112.004455 114.742932 
L 112.217287 114.521516 
L 112.43012 114.521516 
L 112.642952 114.300099 
L 113.068617 114.300099 
L 113.28145 114.078682 
L 113.494282 114.078682 
L 113.707115 113.857265 
L 114.984109 113.857265 
L 115.196942 113.635848 
L 116.473937 113.635848 
L 116.686769 113.414432 
L 117.750931 113.414432 
L 117.963764 113.193015 
L 119.027926 113.193015 
L 119.240758 112.528764 
L 121.581916 112.528764 
L 121.794748 112.307348 
L 122.00758 111.864514 
L 123.284575 111.864514 
L 123.497408 111.200264 
L 125.625732 111.200264 
L 125.838565 110.978847 
L 126.477062 110.978847 
L 126.689895 110.75743 
L 127.754057 110.75743 
L 127.966889 110.536013 
L 134.139031 110.536013 
L 134.351863 110.314596 
L 135.84169 110.314596 
L 136.054523 110.09318 
L 136.267355 109.650346 
L 137.970015 109.650346 
L 138.182847 109.428929 
L 139.459842 109.428929 
L 140.09834 108.764679 
L 142.865161 108.764679 
L 143.077994 108.543262 
L 144.567821 108.543262 
L 144.780654 108.321845 
L 144.993486 108.321845 
L 145.419151 107.879012 
L 146.057648 107.879012 
L 146.483313 107.436178 
L 146.696146 107.436178 
L 146.908978 107.214761 
L 147.547476 105.88626 
L 147.760308 105.88626 
L 147.973141 105.664843 
L 151.165627 105.664843 
L 151.37846 105.443427 
L 151.804125 105.443427 
L 152.016957 105.22201 
L 154.570947 105.22201 
L 154.783779 105.000593 
L 157.337769 105.000593 
L 157.550601 104.779176 
L 158.189099 104.779176 
L 158.401931 104.336343 
L 173.300203 104.336343 
L 173.513036 104.114926 
L 183.728994 104.114926 
L 183.941826 103.893509 
L 184.793156 103.893509 
L 185.005988 103.672092 
L 186.921481 103.672092 
L 187.134313 103.450675 
L 196.286109 103.450675 
L 196.498941 103.007842 
L 196.711774 103.007842 
L 196.924606 102.786425 
L 201.181255 102.786425 
L 201.394088 102.565008 
L 205.437905 102.565008 
L 205.650737 102.343591 
L 208.630391 102.343591 
L 208.843224 102.122175 
L 209.481721 102.122175 
L 209.694554 101.900758 
L 210.120219 101.900758 
L 210.333051 101.679341 
L 218.633517 101.679341 
L 218.84635 101.457924 
L 224.167161 101.457924 
L 224.592826 101.015091 
L 225.231323 101.015091 
L 225.444156 100.793674 
L 228.849475 100.793674 
L 229.062308 100.572257 
L 229.700805 100.572257 
L 229.913637 100.35084 
L 230.764967 100.35084 
L 231.190632 99.908007 
L 234.595951 99.908007 
L 234.808784 99.68659 
L 239.278266 99.68659 
L 239.491098 99.465173 
L 243.747747 99.465173 
L 243.96058 99.243756 
L 244.599077 99.243756 
L 244.81191 99.022339 
L 246.727402 99.022339 
L 246.940234 98.800923 
L 247.578732 98.800923 
L 247.791564 98.579506 
L 248.004396 98.579506 
L 248.217229 98.358089 
L 253.963705 98.358089 
L 254.176538 98.136672 
L 259.284517 98.136672 
L 259.497349 97.915255 
L 271.203135 97.915255 
L 271.415967 97.693839 
L 272.054464 97.693839 
L 272.267297 97.472422 
L 273.969956 97.472422 
L 274.182789 97.251005 
L 275.459784 97.251005 
L 275.672616 97.029588 
L 277.162443 97.029588 
L 277.375276 96.808171 
L 277.800941 96.808171 
L 278.013773 96.586755 
L 279.929265 96.586755 
L 280.35493 96.143921 
L 283.334585 96.143921 
L 283.547417 95.922504 
L 289.932391 95.922504 
L 290.145223 95.701087 
L 292.060716 95.701087 
L 292.273548 95.479671 
L 293.124878 95.479671 
L 293.33771 95.258254 
L 305.256328 95.258254 
L 305.46916 95.036837 
L 321.431595 95.036837 
L 321.644427 94.81542 
L 322.070092 94.81542 
L 322.282925 94.594003 
L 325.475412 94.594003 
L 325.688244 94.372586 
L 329.093563 94.372586 
L 329.306396 94.15117 
L 331.221888 94.15117 
L 331.434721 93.929753 
L 332.28605 93.929753 
L 332.498883 93.708336 
L 334.201543 93.708336 
L 334.414375 93.486919 
L 337.819694 93.486919 
L 338.032527 93.265502 
L 339.309522 93.265502 
L 339.522354 92.601252 
L 349.951144 92.601252 
L 350.376809 91.937002 
L 354.633459 91.937002 
L 354.846291 91.715585 
L 356.123286 91.715585 
L 356.336118 91.494168 
L 359.95427 91.494168 
L 360.167103 91.272751 
L 362.082595 91.272751 
L 362.295427 91.051334 
L 363.998087 91.051334 
L 364.210919 90.829918 
L 364.423752 90.829918 
L 364.636584 90.608501 
L 365.487914 90.608501 
L 365.700746 90.387084 
L 370.595893 90.387084 
L 370.808726 90.165667 
L 371.660055 90.165667 
L 371.872888 89.94425 
L 372.724218 89.94425 
L 372.93705 89.722834 
L 373.78838 89.722834 
L 374.001212 89.501417 
L 374.852542 89.501417 
L 375.065375 89.28 
L 375.916705 89.28 
L 375.916705 89.28 
" clip-path="url(#p5f960d27fc)" style="fill: none; stroke: #c957db; stroke-width: 1.2; stroke-linecap: round"/>
   </g>
   <g id="line2d_44"/>
   <g id="line2d_45"/>
   <g id="line2d_46"/>
   <g id="line2d_47"/>
   <g id="line2d_48"/>
   <g id="patch_3">
    <path d="M 54.3375 512.64 
L 54.3375 69.12 
" style="fill: none; stroke: #cccccc; stroke-linejoin: miter; stroke-linecap: square"/>
   </g>
   <g id="patch_4">
    <path d="M 54.3375 512.64 
L 391.23 512.64 
" style="fill: none; stroke: #cccccc; stroke-linejoin: miter; stroke-linecap: square"/>
   </g>
   <g id="text_41">
    <!-- Edge Coverage History -->
    <g style="fill: #262626" transform="translate(115.892262 63.12)scale(0.165888 -0.165888)">
     <defs>
      <path id="DejaVuSans-Bold-45" d="M 588 4666 
L 3834 4666 
L 3834 3756 
L 1791 3756 
L 1791 2888 
L 3713 2888 
L 3713 1978 
L 1791 1978 
L 1791 909 
L 3903 909 
L 3903 0 
L 588 0 
L 588 4666 
z
" transform="scale(0.015625)"/>
      <path id="DejaVuSans-Bold-64" d="M 2919 2988 
L 2919 4863 
L 4044 4863 
L 4044 0 
L 2919 0 
L 2919 506 
Q 2688 197 2409 53 
Q 2131 -91 1766 -91 
Q 1119 -91 703 423 
Q 288 938 288 1747 
Q 288 2556 703 3070 
Q 1119 3584 1766 3584 
Q 2128 3584 2408 3439 
Q 2688 3294 2919 2988 
z
M 2181 722 
Q 2541 722 2730 984 
Q 2919 1247 2919 1747 
Q 2919 2247 2730 2509 
Q 2541 2772 2181 2772 
Q 1825 2772 1636 2509 
Q 1447 2247 1447 1747 
Q 1447 1247 1636 984 
Q 1825 722 2181 722 
z
" transform="scale(0.015625)"/>
      <path id="DejaVuSans-Bold-67" d="M 2919 594 
Q 2688 288 2409 144 
Q 2131 0 1766 0 
Q 1125 0 706 504 
Q 288 1009 288 1791 
Q 288 2575 706 3076 
Q 1125 3578 1766 3578 
Q 2131 3578 2409 3434 
Q 2688 3291 2919 2981 
L 2919 3500 
L 4044 3500 
L 4044 353 
Q 4044 -491 3511 -936 
Q 2978 -1381 1966 -1381 
Q 1638 -1381 1331 -1331 
Q 1025 -1281 716 -1178 
L 716 -306 
Q 1009 -475 1290 -558 
Q 1572 -641 1856 -641 
Q 2406 -641 2662 -400 
Q 2919 -159 2919 353 
L 2919 594 
z
M 2181 2772 
Q 1834 2772 1640 2515 
Q 1447 2259 1447 1791 
Q 1447 1309 1634 1061 
Q 1822 813 2181 813 
Q 2531 813 2725 1069 
Q 2919 1325 2919 1791 
Q 2919 2259 2725 2515 
Q 2531 2772 2181 2772 
z
" transform="scale(0.015625)"/>
      <path id="DejaVuSans-Bold-65" d="M 4031 1759 
L 4031 1441 
L 1416 1441 
Q 1456 1047 1700 850 
Q 1944 653 2381 653 
Q 2734 653 3104 758 
Q 3475 863 3866 1075 
L 3866 213 
Q 3469 63 3072 -14 
Q 2675 -91 2278 -91 
Q 1328 -91 801 392 
Q 275 875 275 1747 
Q 275 2603 792 3093 
Q 1309 3584 2216 3584 
Q 3041 3584 3536 3087 
Q 4031 2591 4031 1759 
z
M 2881 2131 
Q 2881 2450 2695 2645 
Q 2509 2841 2209 2841 
Q 1884 2841 1681 2658 
Q 1478 2475 1428 2131 
L 2881 2131 
z
" transform="scale(0.015625)"/>
      <path id="DejaVuSans-Bold-20" transform="scale(0.015625)"/>
      <path id="DejaVuSans-Bold-43" d="M 4288 256 
Q 3956 84 3597 -3 
Q 3238 -91 2847 -91 
Q 1681 -91 1000 561 
Q 319 1213 319 2328 
Q 319 3447 1000 4098 
Q 1681 4750 2847 4750 
Q 3238 4750 3597 4662 
Q 3956 4575 4288 4403 
L 4288 3438 
Q 3953 3666 3628 3772 
Q 3303 3878 2944 3878 
Q 2300 3878 1931 3465 
Q 1563 3053 1563 2328 
Q 1563 1606 1931 1193 
Q 2300 781 2944 781 
Q 3303 781 3628 887 
Q 3953 994 4288 1222 
L 4288 256 
z
" transform="scale(0.015625)"/>
      <path id="DejaVuSans-Bold-6f" d="M 2203 2784 
Q 1831 2784 1636 2517 
Q 1441 2250 1441 1747 
Q 1441 1244 1636 976 
Q 1831 709 2203 709 
Q 2569 709 2762 976 
Q 2956 1244 2956 1747 
Q 2956 2250 2762 2517 
Q 2569 2784 2203 2784 
z
M 2203 3584 
Q 3106 3584 3614 3096 
Q 4122 2609 4122 1747 
Q 4122 884 3614 396 
Q 3106 -91 2203 -91 
Q 1297 -91 786 396 
Q 275 884 275 1747 
Q 275 2609 786 3096 
Q 1297 3584 2203 3584 
z
" transform="scale(0.015625)"/>
      <path id="DejaVuSans-Bold-76" d="M 97 3500 
L 1216 3500 
L 2088 1081 
L 2956 3500 
L 4078 3500 
L 2700 0 
L 1472 0 
L 97 3500 
z
" transform="scale(0.015625)"/>
      <path id="DejaVuSans-Bold-72" d="M 3138 2547 
Q 2991 2616 2845 2648 
Q 2700 2681 2553 2681 
Q 2122 2681 1889 2404 
Q 1656 2128 1656 1613 
L 1656 0 
L 538 0 
L 538 3500 
L 1656 3500 
L 1656 2925 
Q 1872 3269 2151 3426 
Q 2431 3584 2822 3584 
Q 2878 3584 2943 3579 
Q 3009 3575 3134 3559 
L 3138 2547 
z
" transform="scale(0.015625)"/>
      <path id="DejaVuSans-Bold-61" d="M 2106 1575 
Q 1756 1575 1579 1456 
Q 1403 1338 1403 1106 
Q 1403 894 1545 773 
Q 1688 653 1941 653 
Q 2256 653 2472 879 
Q 2688 1106 2688 1447 
L 2688 1575 
L 2106 1575 
z
M 3816 1997 
L 3816 0 
L 2688 0 
L 2688 519 
Q 2463 200 2181 54 
Q 1900 -91 1497 -91 
Q 953 -91 614 226 
Q 275 544 275 1050 
Q 275 1666 698 1953 
Q 1122 2241 2028 2241 
L 2688 2241 
L 2688 2328 
Q 2688 2594 2478 2717 
Q 2269 2841 1825 2841 
Q 1466 2841 1156 2769 
Q 847 2697 581 2553 
L 581 3406 
Q 941 3494 1303 3539 
Q 1666 3584 2028 3584 
Q 2975 3584 3395 3211 
Q 3816 2838 3816 1997 
z
" transform="scale(0.015625)"/>
      <path id="DejaVuSans-Bold-48" d="M 588 4666 
L 1791 4666 
L 1791 2888 
L 3566 2888 
L 3566 4666 
L 4769 4666 
L 4769 0 
L 3566 0 
L 3566 1978 
L 1791 1978 
L 1791 0 
L 588 0 
L 588 4666 
z
" transform="scale(0.015625)"/>
      <path id="DejaVuSans-Bold-69" d="M 538 3500 
L 1656 3500 
L 1656 0 
L 538 0 
L 538 3500 
z
M 538 4863 
L 1656 4863 
L 1656 3950 
L 538 3950 
L 538 4863 
z
" transform="scale(0.015625)"/>
      <path id="DejaVuSans-Bold-73" d="M 3272 3391 
L 3272 2541 
Q 2913 2691 2578 2766 
Q 2244 2841 1947 2841 
Q 1628 2841 1473 2761 
Q 1319 2681 1319 2516 
Q 1319 2381 1436 2309 
Q 1553 2238 1856 2203 
L 2053 2175 
Q 2913 2066 3209 1816 
Q 3506 1566 3506 1031 
Q 3506 472 3093 190 
Q 2681 -91 1863 -91 
Q 1516 -91 1145 -36 
Q 775 19 384 128 
L 384 978 
Q 719 816 1070 734 
Q 1422 653 1784 653 
Q 2113 653 2278 743 
Q 2444 834 2444 1013 
Q 2444 1163 2330 1236 
Q 2216 1309 1875 1350 
L 1678 1375 
Q 931 1469 631 1722 
Q 331 1975 331 2491 
Q 331 3047 712 3315 
Q 1094 3584 1881 3584 
Q 2191 3584 2531 3537 
Q 2872 3491 3272 3391 
z
" transform="scale(0.015625)"/>
      <path id="DejaVuSans-Bold-74" d="M 1759 4494 
L 1759 3500 
L 2913 3500 
L 2913 2700 
L 1759 2700 
L 1759 1216 
Q 1759 972 1856 886 
Q 1953 800 2241 800 
L 2816 800 
L 2816 0 
L 1856 0 
Q 1194 0 917 276 
Q 641 553 641 1216 
L 641 2700 
L 84 2700 
L 84 3500 
L 641 3500 
L 641 4494 
L 1759 4494 
z
" transform="scale(0.015625)"/>
      <path id="DejaVuSans-Bold-79" d="M 78 3500 
L 1197 3500 
L 2138 1125 
L 2938 3500 
L 4056 3500 
L 2584 -331 
Q 2363 -916 2067 -1148 
Q 1772 -1381 1288 -1381 
L 641 -1381 
L 641 -647 
L 991 -647 
Q 1275 -647 1404 -556 
Q 1534 -466 1606 -231 
L 1638 -134 
L 78 3500 
z
" transform="scale(0.015625)"/>
     </defs>
     <use xlink:href="#DejaVuSans-Bold-45"/>
     <use xlink:href="#DejaVuSans-Bold-64" x="68.310547"/>
     <use xlink:href="#DejaVuSans-Bold-67" x="139.892578"/>
     <use xlink:href="#DejaVuSans-Bold-65" x="211.474609"/>
     <use xlink:href="#DejaVuSans-Bold-20" x="279.296875"/>
     <use xlink:href="#DejaVuSans-Bold-43" x="314.111328"/>
     <use xlink:href="#DejaVuSans-Bold-6f" x="387.5"/>
     <use xlink:href="#DejaVuSans-Bold-76" x="456.201172"/>
     <use xlink:href="#DejaVuSans-Bold-65" x="521.386719"/>
     <use xlink:href="#DejaVuSans-Bold-72" x="589.208984"/>
     <use xlink:href="#DejaVuSans-Bold-61" x="638.525391"/>
     <use xlink:href="#DejaVuSans-Bold-67" x="706.005859"/>
     <use xlink:href="#DejaVuSans-Bold-65" x="777.587891"/>
     <use xlink:href="#DejaVuSans-Bold-20" x="845.410156"/>
     <use xlink:href="#DejaVuSans-Bold-48" x="880.224609"/>
     <use xlink:href="#DejaVuSans-Bold-69" x="963.916016"/>
     <use xlink:href="#DejaVuSans-Bold-73" x="998.193359"/>
     <use xlink:href="#DejaVuSans-Bold-74" x="1057.714844"/>
     <use xlink:href="#DejaVuSans-Bold-6f" x="1105.517578"/>
     <use xlink:href="#DejaVuSans-Bold-72" x="1174.21875"/>
     <use xlink:href="#DejaVuSans-Bold-79" x="1223.535156"/>
    </g>
   </g>
   <g id="legend_1">
    <g id="patch_5">
     <path d="M 267.942 508.24 
L 385.07 508.24 
Q 386.83 508.24 386.83 506.48 
L 386.83 428.8405 
Q 386.83 427.0805 385.07 427.0805 
L 267.942 427.0805 
Q 266.182 427.0805 266.182 428.8405 
L 266.182 506.48 
Q 266.182 508.24 267.942 508.24 
z
" style="fill: #ffffff; opacity: 0.8; stroke: #cccccc; stroke-width: 0.8; stroke-linejoin: miter"/>
    </g>
    <g id="text_42">
     <!-- fuzzer -->
     <g style="fill: #262626" transform="translate(311.809 437.895)scale(0.096 -0.096)">
      <defs>
       <path id="DejaVuSans-66" d="M 2375 4863 
L 2375 4384 
L 1825 4384 
Q 1516 4384 1395 4259 
Q 1275 4134 1275 3809 
L 1275 3500 
L 2222 3500 
L 2222 3053 
L 1275 3053 
L 1275 0 
L 697 0 
L 697 3053 
L 147 3053 
L 147 3500 
L 697 3500 
L 697 3744 
Q 697 4328 969 4595 
Q 1241 4863 1831 4863 
L 2375 4863 
z
" transform="scale(0.015625)"/>
       <path id="DejaVuSans-7a" d="M 353 3500 
L 3084 3500 
L 3084 2975 
L 922 459 
L 3084 459 
L 3084 0 
L 275 0 
L 275 525 
L 2438 3041 
L 353 3041 
L 353 3500 
z
" transform="scale(0.015625)"/>
      </defs>
      <use xlink:href="#DejaVuSans-66"/>
      <use xlink:href="#DejaVuSans-75" x="35.205078"/>
      <use xlink:href="#DejaVuSans-7a" x="98.583984"/>
      <use xlink:href="#DejaVuSans-7a" x="151.074219"/>
      <use xlink:href="#DejaVuSans-65" x="203.564453"/>
      <use xlink:href="#DejaVuSans-72" x="265.087891"/>
     </g>
    </g>
    <g id="line2d_49">
     <path d="M 269.702 447.898125 
L 278.502 447.898125 
L 287.302 447.898125 
" style="fill: none; stroke: #db5f57; stroke-width: 1.2; stroke-linecap: round"/>
    </g>
    <g id="text_43">
     <!-- aflfast-0-exid24 -->
     <g style="fill: #262626" transform="translate(294.342 450.978125)scale(0.088 -0.088)">
      <defs>
       <path id="DejaVuSans-6c" d="M 603 4863 
L 1178 4863 
L 1178 0 
L 603 0 
L 603 4863 
z
" transform="scale(0.015625)"/>
       <path id="DejaVuSans-2d" d="M 313 2009 
L 1997 2009 
L 1997 1497 
L 313 1497 
L 313 2009 
z
" transform="scale(0.015625)"/>
       <path id="DejaVuSans-78" d="M 3513 3500 
L 2247 1797 
L 3578 0 
L 2900 0 
L 1881 1375 
L 863 0 
L 184 0 
L 1544 1831 
L 300 3500 
L 978 3500 
L 1906 2253 
L 2834 3500 
L 3513 3500 
z
" transform="scale(0.015625)"/>
      </defs>
      <use xlink:href="#DejaVuSans-61"/>
      <use xlink:href="#DejaVuSans-66" x="61.279297"/>
      <use xlink:href="#DejaVuSans-6c" x="96.484375"/>
      <use xlink:href="#DejaVuSans-66" x="124.267578"/>
      <use xlink:href="#DejaVuSans-61" x="159.472656"/>
      <use xlink:href="#DejaVuSans-73" x="220.751953"/>
      <use xlink:href="#DejaVuSans-74" x="272.851562"/>
      <use xlink:href="#DejaVuSans-2d" x="312.060547"/>
      <use xlink:href="#DejaVuSans-30" x="348.144531"/>
      <use xlink:href="#DejaVuSans-2d" x="411.767578"/>
      <use xlink:href="#DejaVuSans-65" x="447.851562"/>
      <use xlink:href="#DejaVuSans-78" x="507.625"/>
      <use xlink:href="#DejaVuSans-69" x="566.804688"/>
      <use xlink:href="#DejaVuSans-64" x="594.587891"/>
      <use xlink:href="#DejaVuSans-32" x="658.064453"/>
      <use xlink:href="#DejaVuSans-34" x="721.6875"/>
     </g>
    </g>
    <g id="line2d_50">
     <path d="M 269.702 460.814875 
L 278.502 460.814875 
L 287.302 460.814875 
" style="fill: none; stroke: #b9db57; stroke-width: 1.2; stroke-linecap: round"/>
    </g>
    <g id="text_44">
     <!-- afl-0-exid24 -->
     <g style="fill: #262626" transform="translate(294.342 463.894875)scale(0.088 -0.088)">
      <use xlink:href="#DejaVuSans-61"/>
      <use xlink:href="#DejaVuSans-66" x="61.279297"/>
      <use xlink:href="#DejaVuSans-6c" x="96.484375"/>
      <use xlink:href="#DejaVuSans-2d" x="124.267578"/>
      <use xlink:href="#DejaVuSans-30" x="160.351562"/>
      <use xlink:href="#DejaVuSans-2d" x="223.974609"/>
      <use xlink:href="#DejaVuSans-65" x="260.058594"/>
      <use xlink:href="#DejaVuSans-78" x="319.832031"/>
      <use xlink:href="#DejaVuSans-69" x="379.011719"/>
      <use xlink:href="#DejaVuSans-64" x="406.794922"/>
      <use xlink:href="#DejaVuSans-32" x="470.271484"/>
      <use xlink:href="#DejaVuSans-34" x="533.894531"/>
     </g>
    </g>
    <g id="line2d_51">
     <path d="M 269.702 473.731625 
L 278.502 473.731625 
L 287.302 473.731625 
" style="fill: none; stroke: #57db94; stroke-width: 1.2; stroke-linecap: round"/>
    </g>
    <g id="text_45">
     <!-- fairfuzz-0-exid24 -->
     <g style="fill: #262626" transform="translate(294.342 476.811625)scale(0.088 -0.088)">
      <use xlink:href="#DejaVuSans-66"/>
      <use xlink:href="#DejaVuSans-61" x="35.205078"/>
      <use xlink:href="#DejaVuSans-69" x="96.484375"/>
      <use xlink:href="#DejaVuSans-72" x="124.267578"/>
      <use xlink:href="#DejaVuSans-66" x="165.380859"/>
      <use xlink:href="#DejaVuSans-75" x="200.585938"/>
      <use xlink:href="#DejaVuSans-7a" x="263.964844"/>
      <use xlink:href="#DejaVuSans-7a" x="316.455078"/>
      <use xlink:href="#DejaVuSans-2d" x="368.945312"/>
      <use xlink:href="#DejaVuSans-30" x="405.029297"/>
      <use xlink:href="#DejaVuSans-2d" x="468.652344"/>
      <use xlink:href="#DejaVuSans-65" x="504.736328"/>
      <use xlink:href="#DejaVuSans-78" x="564.509766"/>
      <use xlink:href="#DejaVuSans-69" x="623.689453"/>
      <use xlink:href="#DejaVuSans-64" x="651.472656"/>
      <use xlink:href="#DejaVuSans-32" x="714.949219"/>
      <use xlink:href="#DejaVuSans-34" x="778.572266"/>
     </g>
    </g>
    <g id="line2d_52">
     <path d="M 269.702 486.648375 
L 278.502 486.648375 
L 287.302 486.648375 
" style="fill: none; stroke: #5784db; stroke-width: 1.2; stroke-linecap: round"/>
    </g>
    <g id="text_46">
     <!-- aflplusplus-0-exid24 -->
     <g style="fill: #262626" transform="translate(294.342 489.728375)scale(0.088 -0.088)">
      <defs>
       <path id="DejaVuSans-70" d="M 1159 525 
L 1159 -1331 
L 581 -1331 
L 581 3500 
L 1159 3500 
L 1159 2969 
Q 1341 3281 1617 3432 
Q 1894 3584 2278 3584 
Q 2916 3584 3314 3078 
Q 3713 2572 3713 1747 
Q 3713 922 3314 415 
Q 2916 -91 2278 -91 
Q 1894 -91 1617 61 
Q 1341 213 1159 525 
z
M 3116 1747 
Q 3116 2381 2855 2742 
Q 2594 3103 2138 3103 
Q 1681 3103 1420 2742 
Q 1159 2381 1159 1747 
Q 1159 1113 1420 752 
Q 1681 391 2138 391 
Q 2594 391 2855 752 
Q 3116 1113 3116 1747 
z
" transform="scale(0.015625)"/>
      </defs>
      <use xlink:href="#DejaVuSans-61"/>
      <use xlink:href="#DejaVuSans-66" x="61.279297"/>
      <use xlink:href="#DejaVuSans-6c" x="96.484375"/>
      <use xlink:href="#DejaVuSans-70" x="124.267578"/>
      <use xlink:href="#DejaVuSans-6c" x="187.744141"/>
      <use xlink:href="#DejaVuSans-75" x="215.527344"/>
      <use xlink:href="#DejaVuSans-73" x="278.90625"/>
      <use xlink:href="#DejaVuSans-70" x="331.005859"/>
      <use xlink:href="#DejaVuSans-6c" x="394.482422"/>
      <use xlink:href="#DejaVuSans-75" x="422.265625"/>
      <use xlink:href="#DejaVuSans-73" x="485.644531"/>
      <use xlink:href="#DejaVuSans-2d" x="537.744141"/>
      <use xlink:href="#DejaVuSans-30" x="573.828125"/>
      <use xlink:href="#DejaVuSans-2d" x="637.451172"/>
      <use xlink:href="#DejaVuSans-65" x="673.535156"/>
      <use xlink:href="#DejaVuSans-78" x="733.308594"/>
      <use xlink:href="#DejaVuSans-69" x="792.488281"/>
      <use xlink:href="#DejaVuSans-64" x="820.271484"/>
      <use xlink:href="#DejaVuSans-32" x="883.748047"/>
      <use xlink:href="#DejaVuSans-34" x="947.371094"/>
     </g>
    </g>
    <g id="line2d_53">
     <path d="M 269.702 499.565125 
L 278.502 499.565125 
L 287.302 499.565125 
" style="fill: none; stroke: #c957db; stroke-width: 1.2; stroke-linecap: round"/>
    </g>
    <g id="text_47">
     <!-- fuzzer_global -->
     <g style="fill: #262626" transform="translate(294.342 502.645125)scale(0.088 -0.088)">
      <defs>
       <path id="DejaVuSans-5f" d="M 3263 -1063 
L 3263 -1509 
L -63 -1509 
L -63 -1063 
L 3263 -1063 
z
" transform="scale(0.015625)"/>
       <path id="DejaVuSans-62" d="M 3116 1747 
Q 3116 2381 2855 2742 
Q 2594 3103 2138 3103 
Q 1681 3103 1420 2742 
Q 1159 2381 1159 1747 
Q 1159 1113 1420 752 
Q 1681 391 2138 391 
Q 2594 391 2855 752 
Q 3116 1113 3116 1747 
z
M 1159 2969 
Q 1341 3281 1617 3432 
Q 1894 3584 2278 3584 
Q 2916 3584 3314 3078 
Q 3713 2572 3713 1747 
Q 3713 922 3314 415 
Q 2916 -91 2278 -91 
Q 1894 -91 1617 61 
Q 1341 213 1159 525 
L 1159 0 
L 581 0 
L 581 4863 
L 1159 4863 
L 1159 2969 
z
" transform="scale(0.015625)"/>
      </defs>
      <use xlink:href="#DejaVuSans-66"/>
      <use xlink:href="#DejaVuSans-75" x="35.205078"/>
      <use xlink:href="#DejaVuSans-7a" x="98.583984"/>
      <use xlink:href="#DejaVuSans-7a" x="151.074219"/>
      <use xlink:href="#DejaVuSans-65" x="203.564453"/>
      <use xlink:href="#DejaVuSans-72" x="265.087891"/>
      <use xlink:href="#DejaVuSans-5f" x="306.201172"/>
      <use xlink:href="#DejaVuSans-67" x="356.201172"/>
      <use xlink:href="#DejaVuSans-6c" x="419.677734"/>
      <use xlink:href="#DejaVuSans-6f" x="447.460938"/>
      <use xlink:href="#DejaVuSans-62" x="508.642578"/>
      <use xlink:href="#DejaVuSans-61" x="572.119141"/>
      <use xlink:href="#DejaVuSans-6c" x="633.398438"/>
     </g>
    </g>
   </g>
  </g>
 </g>
 <defs>
  <clipPath id="p5f960d27fc">
   <rect x="54.3375" y="69.12" width="336.8925" height="443.52"/>
  </clipPath>
 </defs>
</svg>
