<?xml version="1.0" encoding="utf-8" standalone="no"?>
<!DOCTYPE svg PUBLIC "-//W3C//DTD SVG 1.1//EN"
  "http://www.w3.org/Graphics/SVG/1.1/DTD/svg11.dtd">
<svg xmlns:xlink="http://www.w3.org/1999/xlink" width="434.4pt" height="576pt" viewBox="0 0 434.4 576" xmlns="http://www.w3.org/2000/svg" version="1.1">
 <metadata>
  <rdf:RDF xmlns:dc="http://purl.org/dc/elements/1.1/" xmlns:cc="http://creativecommons.org/ns#" xmlns:rdf="http://www.w3.org/1999/02/22-rdf-syntax-ns#">
   <cc:Work>
    <dc:type rdf:resource="http://purl.org/dc/dcmitype/StillImage"/>
    <dc:date>2022-09-15T09:34:47.428061</dc:date>
    <dc:format>image/svg+xml</dc:format>
    <dc:creator>
     <cc:Agent>
      <dc:title>Matplotlib v3.5.3, https://matplotlib.org/</dc:title>
     </cc:Agent>
    </dc:creator>
   </cc:Work>
  </rdf:RDF>
 </metadata>
 <defs>
  <style type="text/css">*{stroke-linejoin: round; stroke-linecap: butt}</style>
 </defs>
 <g id="figure_1">
  <g id="patch_1">
   <path d="M 0 576 
L 434.4 576 
L 434.4 0 
L 0 0 
z
" style="fill: #ffffff"/>
  </g>
  <g id="axes_1">
   <g id="patch_2">
    <path d="M 54.3 512.64 
L 390.96 512.64 
L 390.96 69.12 
L 54.3 69.12 
z
" style="fill: #ffffff"/>
   </g>
   <g id="matplotlib.axis_1">
    <g id="xtick_1">
     <g id="line2d_1">
      <path d="M 69.602727 512.64 
L 69.602727 69.12 
" clip-path="url(#p2a26ff92e1)" style="fill: none; stroke: #cccccc; stroke-width: 0.8; stroke-linecap: round"/>
     </g>
     <g id="text_1">
      <!-- 0 -->
      <g style="fill: #262626" transform="translate(69.340214 529.627249)rotate(-45)scale(0.088 -0.088)">
       <defs>
        <path id="DejaVuSans-30" d="M 2034 4250 
Q 1547 4250 1301 3770 
Q 1056 3291 1056 2328 
Q 1056 1369 1301 889 
Q 1547 409 2034 409 
Q 2525 409 2770 889 
Q 3016 1369 3016 2328 
Q 3016 3291 2770 3770 
Q 2525 4250 2034 4250 
z
M 2034 4750 
Q 2819 4750 3233 4129 
Q 3647 3509 3647 2328 
Q 3647 1150 3233 529 
Q 2819 -91 2034 -91 
Q 1250 -91 836 529 
Q 422 1150 422 2328 
Q 422 3509 836 4129 
Q 1250 4750 2034 4750 
z
" transform="scale(0.015625)"/>
       </defs>
       <use xlink:href="#DejaVuSans-30"/>
      </g>
     </g>
    </g>
    <g id="xtick_2">
     <g id="line2d_2">
      <path d="M 86.629406 512.64 
L 86.629406 69.12 
" clip-path="url(#p2a26ff92e1)" style="fill: none; stroke: #cccccc; stroke-width: 0.8; stroke-linecap: round"/>
     </g>
     <g id="text_2">
      <!-- 80 -->
      <g style="fill: #262626" transform="translate(84.387347 533.58634)rotate(-45)scale(0.088 -0.088)">
       <defs>
        <path id="DejaVuSans-38" d="M 2034 2216 
Q 1584 2216 1326 1975 
Q 1069 1734 1069 1313 
Q 1069 891 1326 650 
Q 1584 409 2034 409 
Q 2484 409 2743 651 
Q 3003 894 3003 1313 
Q 3003 1734 2745 1975 
Q 2488 2216 2034 2216 
z
M 1403 2484 
Q 997 2584 770 2862 
Q 544 3141 544 3541 
Q 544 4100 942 4425 
Q 1341 4750 2034 4750 
Q 2731 4750 3128 4425 
Q 3525 4100 3525 3541 
Q 3525 3141 3298 2862 
Q 3072 2584 2669 2484 
Q 3125 2378 3379 2068 
Q 3634 1759 3634 1313 
Q 3634 634 3220 271 
Q 2806 -91 2034 -91 
Q 1263 -91 848 271 
Q 434 634 434 1313 
Q 434 1759 690 2068 
Q 947 2378 1403 2484 
z
M 1172 3481 
Q 1172 3119 1398 2916 
Q 1625 2713 2034 2713 
Q 2441 2713 2670 2916 
Q 2900 3119 2900 3481 
Q 2900 3844 2670 4047 
Q 2441 4250 2034 4250 
Q 1625 4250 1398 4047 
Q 1172 3844 1172 3481 
z
" transform="scale(0.015625)"/>
       </defs>
       <use xlink:href="#DejaVuSans-38"/>
       <use xlink:href="#DejaVuSans-30" x="63.623047"/>
      </g>
     </g>
    </g>
    <g id="xtick_3">
     <g id="line2d_3">
      <path d="M 103.656084 512.64 
L 103.656084 69.12 
" clip-path="url(#p2a26ff92e1)" style="fill: none; stroke: #cccccc; stroke-width: 0.8; stroke-linecap: round"/>
     </g>
     <g id="text_3">
      <!-- 160 -->
      <g style="fill: #262626" transform="translate(99.43448 537.54543)rotate(-45)scale(0.088 -0.088)">
       <defs>
        <path id="DejaVuSans-31" d="M 794 531 
L 1825 531 
L 1825 4091 
L 703 3866 
L 703 4441 
L 1819 4666 
L 2450 4666 
L 2450 531 
L 3481 531 
L 3481 0 
L 794 0 
L 794 531 
z
" transform="scale(0.015625)"/>
        <path id="DejaVuSans-36" d="M 2113 2584 
Q 1688 2584 1439 2293 
Q 1191 2003 1191 1497 
Q 1191 994 1439 701 
Q 1688 409 2113 409 
Q 2538 409 2786 701 
Q 3034 994 3034 1497 
Q 3034 2003 2786 2293 
Q 2538 2584 2113 2584 
z
M 3366 4563 
L 3366 3988 
Q 3128 4100 2886 4159 
Q 2644 4219 2406 4219 
Q 1781 4219 1451 3797 
Q 1122 3375 1075 2522 
Q 1259 2794 1537 2939 
Q 1816 3084 2150 3084 
Q 2853 3084 3261 2657 
Q 3669 2231 3669 1497 
Q 3669 778 3244 343 
Q 2819 -91 2113 -91 
Q 1303 -91 875 529 
Q 447 1150 447 2328 
Q 447 3434 972 4092 
Q 1497 4750 2381 4750 
Q 2619 4750 2861 4703 
Q 3103 4656 3366 4563 
z
" transform="scale(0.015625)"/>
       </defs>
       <use xlink:href="#DejaVuSans-31"/>
       <use xlink:href="#DejaVuSans-36" x="63.623047"/>
       <use xlink:href="#DejaVuSans-30" x="127.246094"/>
      </g>
     </g>
    </g>
    <g id="xtick_4">
     <g id="line2d_4">
      <path d="M 120.682763 512.64 
L 120.682763 69.12 
" clip-path="url(#p2a26ff92e1)" style="fill: none; stroke: #cccccc; stroke-width: 0.8; stroke-linecap: round"/>
     </g>
     <g id="text_4">
      <!-- 240 -->
      <g style="fill: #262626" transform="translate(116.461158 537.54543)rotate(-45)scale(0.088 -0.088)">
       <defs>
        <path id="DejaVuSans-32" d="M 1228 531 
L 3431 531 
L 3431 0 
L 469 0 
L 469 531 
Q 828 903 1448 1529 
Q 2069 2156 2228 2338 
Q 2531 2678 2651 2914 
Q 2772 3150 2772 3378 
Q 2772 3750 2511 3984 
Q 2250 4219 1831 4219 
Q 1534 4219 1204 4116 
Q 875 4013 500 3803 
L 500 4441 
Q 881 4594 1212 4672 
Q 1544 4750 1819 4750 
Q 2544 4750 2975 4387 
Q 3406 4025 3406 3419 
Q 3406 3131 3298 2873 
Q 3191 2616 2906 2266 
Q 2828 2175 2409 1742 
Q 1991 1309 1228 531 
z
" transform="scale(0.015625)"/>
        <path id="DejaVuSans-34" d="M 2419 4116 
L 825 1625 
L 2419 1625 
L 2419 4116 
z
M 2253 4666 
L 3047 4666 
L 3047 1625 
L 3713 1625 
L 3713 1100 
L 3047 1100 
L 3047 0 
L 2419 0 
L 2419 1100 
L 313 1100 
L 313 1709 
L 2253 4666 
z
" transform="scale(0.015625)"/>
       </defs>
       <use xlink:href="#DejaVuSans-32"/>
       <use xlink:href="#DejaVuSans-34" x="63.623047"/>
       <use xlink:href="#DejaVuSans-30" x="127.246094"/>
      </g>
     </g>
    </g>
    <g id="xtick_5">
     <g id="line2d_5">
      <path d="M 137.709441 512.64 
L 137.709441 69.12 
" clip-path="url(#p2a26ff92e1)" style="fill: none; stroke: #cccccc; stroke-width: 0.8; stroke-linecap: round"/>
     </g>
     <g id="text_5">
      <!-- 320 -->
      <g style="fill: #262626" transform="translate(133.487837 537.54543)rotate(-45)scale(0.088 -0.088)">
       <defs>
        <path id="DejaVuSans-33" d="M 2597 2516 
Q 3050 2419 3304 2112 
Q 3559 1806 3559 1356 
Q 3559 666 3084 287 
Q 2609 -91 1734 -91 
Q 1441 -91 1130 -33 
Q 819 25 488 141 
L 488 750 
Q 750 597 1062 519 
Q 1375 441 1716 441 
Q 2309 441 2620 675 
Q 2931 909 2931 1356 
Q 2931 1769 2642 2001 
Q 2353 2234 1838 2234 
L 1294 2234 
L 1294 2753 
L 1863 2753 
Q 2328 2753 2575 2939 
Q 2822 3125 2822 3475 
Q 2822 3834 2567 4026 
Q 2313 4219 1838 4219 
Q 1578 4219 1281 4162 
Q 984 4106 628 3988 
L 628 4550 
Q 988 4650 1302 4700 
Q 1616 4750 1894 4750 
Q 2613 4750 3031 4423 
Q 3450 4097 3450 3541 
Q 3450 3153 3228 2886 
Q 3006 2619 2597 2516 
z
" transform="scale(0.015625)"/>
       </defs>
       <use xlink:href="#DejaVuSans-33"/>
       <use xlink:href="#DejaVuSans-32" x="63.623047"/>
       <use xlink:href="#DejaVuSans-30" x="127.246094"/>
      </g>
     </g>
    </g>
    <g id="xtick_6">
     <g id="line2d_6">
      <path d="M 154.73612 512.64 
L 154.73612 69.12 
" clip-path="url(#p2a26ff92e1)" style="fill: none; stroke: #cccccc; stroke-width: 0.8; stroke-linecap: round"/>
     </g>
     <g id="text_6">
      <!-- 400 -->
      <g style="fill: #262626" transform="translate(150.514515 537.54543)rotate(-45)scale(0.088 -0.088)">
       <use xlink:href="#DejaVuSans-34"/>
       <use xlink:href="#DejaVuSans-30" x="63.623047"/>
       <use xlink:href="#DejaVuSans-30" x="127.246094"/>
      </g>
     </g>
    </g>
    <g id="xtick_7">
     <g id="line2d_7">
      <path d="M 171.762798 512.64 
L 171.762798 69.12 
" clip-path="url(#p2a26ff92e1)" style="fill: none; stroke: #cccccc; stroke-width: 0.8; stroke-linecap: round"/>
     </g>
     <g id="text_7">
      <!-- 480 -->
      <g style="fill: #262626" transform="translate(167.541194 537.54543)rotate(-45)scale(0.088 -0.088)">
       <use xlink:href="#DejaVuSans-34"/>
       <use xlink:href="#DejaVuSans-38" x="63.623047"/>
       <use xlink:href="#DejaVuSans-30" x="127.246094"/>
      </g>
     </g>
    </g>
    <g id="xtick_8">
     <g id="line2d_8">
      <path d="M 188.789477 512.64 
L 188.789477 69.12 
" clip-path="url(#p2a26ff92e1)" style="fill: none; stroke: #cccccc; stroke-width: 0.8; stroke-linecap: round"/>
     </g>
     <g id="text_8">
      <!-- 560 -->
      <g style="fill: #262626" transform="translate(184.567872 537.54543)rotate(-45)scale(0.088 -0.088)">
       <defs>
        <path id="DejaVuSans-35" d="M 691 4666 
L 3169 4666 
L 3169 4134 
L 1269 4134 
L 1269 2991 
Q 1406 3038 1543 3061 
Q 1681 3084 1819 3084 
Q 2600 3084 3056 2656 
Q 3513 2228 3513 1497 
Q 3513 744 3044 326 
Q 2575 -91 1722 -91 
Q 1428 -91 1123 -41 
Q 819 9 494 109 
L 494 744 
Q 775 591 1075 516 
Q 1375 441 1709 441 
Q 2250 441 2565 725 
Q 2881 1009 2881 1497 
Q 2881 1984 2565 2268 
Q 2250 2553 1709 2553 
Q 1456 2553 1204 2497 
Q 953 2441 691 2322 
L 691 4666 
z
" transform="scale(0.015625)"/>
       </defs>
       <use xlink:href="#DejaVuSans-35"/>
       <use xlink:href="#DejaVuSans-36" x="63.623047"/>
       <use xlink:href="#DejaVuSans-30" x="127.246094"/>
      </g>
     </g>
    </g>
    <g id="xtick_9">
     <g id="line2d_9">
      <path d="M 205.816155 512.64 
L 205.816155 69.12 
" clip-path="url(#p2a26ff92e1)" style="fill: none; stroke: #cccccc; stroke-width: 0.8; stroke-linecap: round"/>
     </g>
     <g id="text_9">
      <!-- 640 -->
      <g style="fill: #262626" transform="translate(201.594551 537.54543)rotate(-45)scale(0.088 -0.088)">
       <use xlink:href="#DejaVuSans-36"/>
       <use xlink:href="#DejaVuSans-34" x="63.623047"/>
       <use xlink:href="#DejaVuSans-30" x="127.246094"/>
      </g>
     </g>
    </g>
    <g id="xtick_10">
     <g id="line2d_10">
      <path d="M 222.842833 512.64 
L 222.842833 69.12 
" clip-path="url(#p2a26ff92e1)" style="fill: none; stroke: #cccccc; stroke-width: 0.8; stroke-linecap: round"/>
     </g>
     <g id="text_10">
      <!-- 720 -->
      <g style="fill: #262626" transform="translate(218.621229 537.54543)rotate(-45)scale(0.088 -0.088)">
       <defs>
        <path id="DejaVuSans-37" d="M 525 4666 
L 3525 4666 
L 3525 4397 
L 1831 0 
L 1172 0 
L 2766 4134 
L 525 4134 
L 525 4666 
z
" transform="scale(0.015625)"/>
       </defs>
       <use xlink:href="#DejaVuSans-37"/>
       <use xlink:href="#DejaVuSans-32" x="63.623047"/>
       <use xlink:href="#DejaVuSans-30" x="127.246094"/>
      </g>
     </g>
    </g>
    <g id="xtick_11">
     <g id="line2d_11">
      <path d="M 239.869512 512.64 
L 239.869512 69.12 
" clip-path="url(#p2a26ff92e1)" style="fill: none; stroke: #cccccc; stroke-width: 0.8; stroke-linecap: round"/>
     </g>
     <g id="text_11">
      <!-- 800 -->
      <g style="fill: #262626" transform="translate(235.647908 537.54543)rotate(-45)scale(0.088 -0.088)">
       <use xlink:href="#DejaVuSans-38"/>
       <use xlink:href="#DejaVuSans-30" x="63.623047"/>
       <use xlink:href="#DejaVuSans-30" x="127.246094"/>
      </g>
     </g>
    </g>
    <g id="xtick_12">
     <g id="line2d_12">
      <path d="M 256.89619 512.64 
L 256.89619 69.12 
" clip-path="url(#p2a26ff92e1)" style="fill: none; stroke: #cccccc; stroke-width: 0.8; stroke-linecap: round"/>
     </g>
     <g id="text_12">
      <!-- 880 -->
      <g style="fill: #262626" transform="translate(252.674586 537.54543)rotate(-45)scale(0.088 -0.088)">
       <use xlink:href="#DejaVuSans-38"/>
       <use xlink:href="#DejaVuSans-38" x="63.623047"/>
       <use xlink:href="#DejaVuSans-30" x="127.246094"/>
      </g>
     </g>
    </g>
    <g id="xtick_13">
     <g id="line2d_13">
      <path d="M 273.922869 512.64 
L 273.922869 69.12 
" clip-path="url(#p2a26ff92e1)" style="fill: none; stroke: #cccccc; stroke-width: 0.8; stroke-linecap: round"/>
     </g>
     <g id="text_13">
      <!-- 960 -->
      <g style="fill: #262626" transform="translate(269.701265 537.54543)rotate(-45)scale(0.088 -0.088)">
       <defs>
        <path id="DejaVuSans-39" d="M 703 97 
L 703 672 
Q 941 559 1184 500 
Q 1428 441 1663 441 
Q 2288 441 2617 861 
Q 2947 1281 2994 2138 
Q 2813 1869 2534 1725 
Q 2256 1581 1919 1581 
Q 1219 1581 811 2004 
Q 403 2428 403 3163 
Q 403 3881 828 4315 
Q 1253 4750 1959 4750 
Q 2769 4750 3195 4129 
Q 3622 3509 3622 2328 
Q 3622 1225 3098 567 
Q 2575 -91 1691 -91 
Q 1453 -91 1209 -44 
Q 966 3 703 97 
z
M 1959 2075 
Q 2384 2075 2632 2365 
Q 2881 2656 2881 3163 
Q 2881 3666 2632 3958 
Q 2384 4250 1959 4250 
Q 1534 4250 1286 3958 
Q 1038 3666 1038 3163 
Q 1038 2656 1286 2365 
Q 1534 2075 1959 2075 
z
" transform="scale(0.015625)"/>
       </defs>
       <use xlink:href="#DejaVuSans-39"/>
       <use xlink:href="#DejaVuSans-36" x="63.623047"/>
       <use xlink:href="#DejaVuSans-30" x="127.246094"/>
      </g>
     </g>
    </g>
    <g id="xtick_14">
     <g id="line2d_14">
      <path d="M 290.949547 512.64 
L 290.949547 69.12 
" clip-path="url(#p2a26ff92e1)" style="fill: none; stroke: #cccccc; stroke-width: 0.8; stroke-linecap: round"/>
     </g>
     <g id="text_14">
      <!-- 1040 -->
      <g style="fill: #262626" transform="translate(284.748398 541.504521)rotate(-45)scale(0.088 -0.088)">
       <use xlink:href="#DejaVuSans-31"/>
       <use xlink:href="#DejaVuSans-30" x="63.623047"/>
       <use xlink:href="#DejaVuSans-34" x="127.246094"/>
       <use xlink:href="#DejaVuSans-30" x="190.869141"/>
      </g>
     </g>
    </g>
    <g id="xtick_15">
     <g id="line2d_15">
      <path d="M 307.976226 512.64 
L 307.976226 69.12 
" clip-path="url(#p2a26ff92e1)" style="fill: none; stroke: #cccccc; stroke-width: 0.8; stroke-linecap: round"/>
     </g>
     <g id="text_15">
      <!-- 1120 -->
      <g style="fill: #262626" transform="translate(301.775076 541.504521)rotate(-45)scale(0.088 -0.088)">
       <use xlink:href="#DejaVuSans-31"/>
       <use xlink:href="#DejaVuSans-31" x="63.623047"/>
       <use xlink:href="#DejaVuSans-32" x="127.246094"/>
       <use xlink:href="#DejaVuSans-30" x="190.869141"/>
      </g>
     </g>
    </g>
    <g id="xtick_16">
     <g id="line2d_16">
      <path d="M 325.002904 512.64 
L 325.002904 69.12 
" clip-path="url(#p2a26ff92e1)" style="fill: none; stroke: #cccccc; stroke-width: 0.8; stroke-linecap: round"/>
     </g>
     <g id="text_16">
      <!-- 1200 -->
      <g style="fill: #262626" transform="translate(318.801755 541.504521)rotate(-45)scale(0.088 -0.088)">
       <use xlink:href="#DejaVuSans-31"/>
       <use xlink:href="#DejaVuSans-32" x="63.623047"/>
       <use xlink:href="#DejaVuSans-30" x="127.246094"/>
       <use xlink:href="#DejaVuSans-30" x="190.869141"/>
      </g>
     </g>
    </g>
    <g id="xtick_17">
     <g id="line2d_17">
      <path d="M 342.029583 512.64 
L 342.029583 69.12 
" clip-path="url(#p2a26ff92e1)" style="fill: none; stroke: #cccccc; stroke-width: 0.8; stroke-linecap: round"/>
     </g>
     <g id="text_17">
      <!-- 1280 -->
      <g style="fill: #262626" transform="translate(335.828433 541.504521)rotate(-45)scale(0.088 -0.088)">
       <use xlink:href="#DejaVuSans-31"/>
       <use xlink:href="#DejaVuSans-32" x="63.623047"/>
       <use xlink:href="#DejaVuSans-38" x="127.246094"/>
       <use xlink:href="#DejaVuSans-30" x="190.869141"/>
      </g>
     </g>
    </g>
    <g id="xtick_18">
     <g id="line2d_18">
      <path d="M 359.056261 512.64 
L 359.056261 69.12 
" clip-path="url(#p2a26ff92e1)" style="fill: none; stroke: #cccccc; stroke-width: 0.8; stroke-linecap: round"/>
     </g>
     <g id="text_18">
      <!-- 1360 -->
      <g style="fill: #262626" transform="translate(352.855112 541.504521)rotate(-45)scale(0.088 -0.088)">
       <use xlink:href="#DejaVuSans-31"/>
       <use xlink:href="#DejaVuSans-33" x="63.623047"/>
       <use xlink:href="#DejaVuSans-36" x="127.246094"/>
       <use xlink:href="#DejaVuSans-30" x="190.869141"/>
      </g>
     </g>
    </g>
    <g id="xtick_19">
     <g id="line2d_19">
      <path d="M 376.08294 512.64 
L 376.08294 69.12 
" clip-path="url(#p2a26ff92e1)" style="fill: none; stroke: #cccccc; stroke-width: 0.8; stroke-linecap: round"/>
     </g>
     <g id="text_19">
      <!-- 1440 -->
      <g style="fill: #262626" transform="translate(369.88179 541.504521)rotate(-45)scale(0.088 -0.088)">
       <use xlink:href="#DejaVuSans-31"/>
       <use xlink:href="#DejaVuSans-34" x="63.623047"/>
       <use xlink:href="#DejaVuSans-34" x="127.246094"/>
       <use xlink:href="#DejaVuSans-30" x="190.869141"/>
      </g>
     </g>
    </g>
    <g id="text_20">
     <!-- Time (Minutes) -->
     <g style="fill: #262626" transform="translate(186.72 554.093115)scale(0.096 -0.096)">
      <defs>
       <path id="DejaVuSans-54" d="M -19 4666 
L 3928 4666 
L 3928 4134 
L 2272 4134 
L 2272 0 
L 1638 0 
L 1638 4134 
L -19 4134 
L -19 4666 
z
" transform="scale(0.015625)"/>
       <path id="DejaVuSans-69" d="M 603 3500 
L 1178 3500 
L 1178 0 
L 603 0 
L 603 3500 
z
M 603 4863 
L 1178 4863 
L 1178 4134 
L 603 4134 
L 603 4863 
z
" transform="scale(0.015625)"/>
       <path id="DejaVuSans-6d" d="M 3328 2828 
Q 3544 3216 3844 3400 
Q 4144 3584 4550 3584 
Q 5097 3584 5394 3201 
Q 5691 2819 5691 2113 
L 5691 0 
L 5113 0 
L 5113 2094 
Q 5113 2597 4934 2840 
Q 4756 3084 4391 3084 
Q 3944 3084 3684 2787 
Q 3425 2491 3425 1978 
L 3425 0 
L 2847 0 
L 2847 2094 
Q 2847 2600 2669 2842 
Q 2491 3084 2119 3084 
Q 1678 3084 1418 2786 
Q 1159 2488 1159 1978 
L 1159 0 
L 581 0 
L 581 3500 
L 1159 3500 
L 1159 2956 
Q 1356 3278 1631 3431 
Q 1906 3584 2284 3584 
Q 2666 3584 2933 3390 
Q 3200 3197 3328 2828 
z
" transform="scale(0.015625)"/>
       <path id="DejaVuSans-65" d="M 3597 1894 
L 3597 1613 
L 953 1613 
Q 991 1019 1311 708 
Q 1631 397 2203 397 
Q 2534 397 2845 478 
Q 3156 559 3463 722 
L 3463 178 
Q 3153 47 2828 -22 
Q 2503 -91 2169 -91 
Q 1331 -91 842 396 
Q 353 884 353 1716 
Q 353 2575 817 3079 
Q 1281 3584 2069 3584 
Q 2775 3584 3186 3129 
Q 3597 2675 3597 1894 
z
M 3022 2063 
Q 3016 2534 2758 2815 
Q 2500 3097 2075 3097 
Q 1594 3097 1305 2825 
Q 1016 2553 972 2059 
L 3022 2063 
z
" transform="scale(0.015625)"/>
       <path id="DejaVuSans-20" transform="scale(0.015625)"/>
       <path id="DejaVuSans-28" d="M 1984 4856 
Q 1566 4138 1362 3434 
Q 1159 2731 1159 2009 
Q 1159 1288 1364 580 
Q 1569 -128 1984 -844 
L 1484 -844 
Q 1016 -109 783 600 
Q 550 1309 550 2009 
Q 550 2706 781 3412 
Q 1013 4119 1484 4856 
L 1984 4856 
z
" transform="scale(0.015625)"/>
       <path id="DejaVuSans-4d" d="M 628 4666 
L 1569 4666 
L 2759 1491 
L 3956 4666 
L 4897 4666 
L 4897 0 
L 4281 0 
L 4281 4097 
L 3078 897 
L 2444 897 
L 1241 4097 
L 1241 0 
L 628 0 
L 628 4666 
z
" transform="scale(0.015625)"/>
       <path id="DejaVuSans-6e" d="M 3513 2113 
L 3513 0 
L 2938 0 
L 2938 2094 
Q 2938 2591 2744 2837 
Q 2550 3084 2163 3084 
Q 1697 3084 1428 2787 
Q 1159 2491 1159 1978 
L 1159 0 
L 581 0 
L 581 3500 
L 1159 3500 
L 1159 2956 
Q 1366 3272 1645 3428 
Q 1925 3584 2291 3584 
Q 2894 3584 3203 3211 
Q 3513 2838 3513 2113 
z
" transform="scale(0.015625)"/>
       <path id="DejaVuSans-75" d="M 544 1381 
L 544 3500 
L 1119 3500 
L 1119 1403 
Q 1119 906 1312 657 
Q 1506 409 1894 409 
Q 2359 409 2629 706 
Q 2900 1003 2900 1516 
L 2900 3500 
L 3475 3500 
L 3475 0 
L 2900 0 
L 2900 538 
Q 2691 219 2414 64 
Q 2138 -91 1772 -91 
Q 1169 -91 856 284 
Q 544 659 544 1381 
z
M 1991 3584 
L 1991 3584 
z
" transform="scale(0.015625)"/>
       <path id="DejaVuSans-74" d="M 1172 4494 
L 1172 3500 
L 2356 3500 
L 2356 3053 
L 1172 3053 
L 1172 1153 
Q 1172 725 1289 603 
Q 1406 481 1766 481 
L 2356 481 
L 2356 0 
L 1766 0 
Q 1100 0 847 248 
Q 594 497 594 1153 
L 594 3053 
L 172 3053 
L 172 3500 
L 594 3500 
L 594 4494 
L 1172 4494 
z
" transform="scale(0.015625)"/>
       <path id="DejaVuSans-73" d="M 2834 3397 
L 2834 2853 
Q 2591 2978 2328 3040 
Q 2066 3103 1784 3103 
Q 1356 3103 1142 2972 
Q 928 2841 928 2578 
Q 928 2378 1081 2264 
Q 1234 2150 1697 2047 
L 1894 2003 
Q 2506 1872 2764 1633 
Q 3022 1394 3022 966 
Q 3022 478 2636 193 
Q 2250 -91 1575 -91 
Q 1294 -91 989 -36 
Q 684 19 347 128 
L 347 722 
Q 666 556 975 473 
Q 1284 391 1588 391 
Q 1994 391 2212 530 
Q 2431 669 2431 922 
Q 2431 1156 2273 1281 
Q 2116 1406 1581 1522 
L 1381 1569 
Q 847 1681 609 1914 
Q 372 2147 372 2553 
Q 372 3047 722 3315 
Q 1072 3584 1716 3584 
Q 2034 3584 2315 3537 
Q 2597 3491 2834 3397 
z
" transform="scale(0.015625)"/>
       <path id="DejaVuSans-29" d="M 513 4856 
L 1013 4856 
Q 1481 4119 1714 3412 
Q 1947 2706 1947 2009 
Q 1947 1309 1714 600 
Q 1481 -109 1013 -844 
L 513 -844 
Q 928 -128 1133 580 
Q 1338 1288 1338 2009 
Q 1338 2731 1133 3434 
Q 928 4138 513 4856 
z
" transform="scale(0.015625)"/>
      </defs>
      <use xlink:href="#DejaVuSans-54"/>
      <use xlink:href="#DejaVuSans-69" x="57.958984"/>
      <use xlink:href="#DejaVuSans-6d" x="85.742188"/>
      <use xlink:href="#DejaVuSans-65" x="183.154297"/>
      <use xlink:href="#DejaVuSans-20" x="244.677734"/>
      <use xlink:href="#DejaVuSans-28" x="276.464844"/>
      <use xlink:href="#DejaVuSans-4d" x="315.478516"/>
      <use xlink:href="#DejaVuSans-69" x="401.757812"/>
      <use xlink:href="#DejaVuSans-6e" x="429.541016"/>
      <use xlink:href="#DejaVuSans-75" x="492.919922"/>
      <use xlink:href="#DejaVuSans-74" x="556.298828"/>
      <use xlink:href="#DejaVuSans-65" x="595.507812"/>
      <use xlink:href="#DejaVuSans-73" x="657.03125"/>
      <use xlink:href="#DejaVuSans-29" x="709.130859"/>
     </g>
    </g>
   </g>
   <g id="matplotlib.axis_2">
    <g id="ytick_1">
     <g id="line2d_20">
      <path d="M 54.3 492.48 
L 390.96 492.48 
" clip-path="url(#p2a26ff92e1)" style="fill: none; stroke: #cccccc; stroke-width: 0.8; stroke-linecap: round"/>
     </g>
     <g id="text_21">
      <!-- 0 -->
      <g style="fill: #262626" transform="translate(40.401 495.823312)scale(0.088 -0.088)">
       <use xlink:href="#DejaVuSans-30"/>
      </g>
     </g>
    </g>
    <g id="ytick_2">
     <g id="line2d_21">
      <path d="M 54.3 470.117271 
L 390.96 470.117271 
" clip-path="url(#p2a26ff92e1)" style="fill: none; stroke: #cccccc; stroke-width: 0.8; stroke-linecap: round"/>
     </g>
     <g id="text_22">
      <!-- 100 -->
      <g style="fill: #262626" transform="translate(29.203 473.460584)scale(0.088 -0.088)">
       <use xlink:href="#DejaVuSans-31"/>
       <use xlink:href="#DejaVuSans-30" x="63.623047"/>
       <use xlink:href="#DejaVuSans-30" x="127.246094"/>
      </g>
     </g>
    </g>
    <g id="ytick_3">
     <g id="line2d_22">
      <path d="M 54.3 447.754542 
L 390.96 447.754542 
" clip-path="url(#p2a26ff92e1)" style="fill: none; stroke: #cccccc; stroke-width: 0.8; stroke-linecap: round"/>
     </g>
     <g id="text_23">
      <!-- 200 -->
      <g style="fill: #262626" transform="translate(29.203 451.097855)scale(0.088 -0.088)">
       <use xlink:href="#DejaVuSans-32"/>
       <use xlink:href="#DejaVuSans-30" x="63.623047"/>
       <use xlink:href="#DejaVuSans-30" x="127.246094"/>
      </g>
     </g>
    </g>
    <g id="ytick_4">
     <g id="line2d_23">
      <path d="M 54.3 425.391814 
L 390.96 425.391814 
" clip-path="url(#p2a26ff92e1)" style="fill: none; stroke: #cccccc; stroke-width: 0.8; stroke-linecap: round"/>
     </g>
     <g id="text_24">
      <!-- 300 -->
      <g style="fill: #262626" transform="translate(29.203 428.735126)scale(0.088 -0.088)">
       <use xlink:href="#DejaVuSans-33"/>
       <use xlink:href="#DejaVuSans-30" x="63.623047"/>
       <use xlink:href="#DejaVuSans-30" x="127.246094"/>
      </g>
     </g>
    </g>
    <g id="ytick_5">
     <g id="line2d_24">
      <path d="M 54.3 403.029085 
L 390.96 403.029085 
" clip-path="url(#p2a26ff92e1)" style="fill: none; stroke: #cccccc; stroke-width: 0.8; stroke-linecap: round"/>
     </g>
     <g id="text_25">
      <!-- 400 -->
      <g style="fill: #262626" transform="translate(29.203 406.372397)scale(0.088 -0.088)">
       <use xlink:href="#DejaVuSans-34"/>
       <use xlink:href="#DejaVuSans-30" x="63.623047"/>
       <use xlink:href="#DejaVuSans-30" x="127.246094"/>
      </g>
     </g>
    </g>
    <g id="ytick_6">
     <g id="line2d_25">
      <path d="M 54.3 380.666356 
L 390.96 380.666356 
" clip-path="url(#p2a26ff92e1)" style="fill: none; stroke: #cccccc; stroke-width: 0.8; stroke-linecap: round"/>
     </g>
     <g id="text_26">
      <!-- 500 -->
      <g style="fill: #262626" transform="translate(29.203 384.009669)scale(0.088 -0.088)">
       <use xlink:href="#DejaVuSans-35"/>
       <use xlink:href="#DejaVuSans-30" x="63.623047"/>
       <use xlink:href="#DejaVuSans-30" x="127.246094"/>
      </g>
     </g>
    </g>
    <g id="ytick_7">
     <g id="line2d_26">
      <path d="M 54.3 358.303627 
L 390.96 358.303627 
" clip-path="url(#p2a26ff92e1)" style="fill: none; stroke: #cccccc; stroke-width: 0.8; stroke-linecap: round"/>
     </g>
     <g id="text_27">
      <!-- 600 -->
      <g style="fill: #262626" transform="translate(29.203 361.64694)scale(0.088 -0.088)">
       <use xlink:href="#DejaVuSans-36"/>
       <use xlink:href="#DejaVuSans-30" x="63.623047"/>
       <use xlink:href="#DejaVuSans-30" x="127.246094"/>
      </g>
     </g>
    </g>
    <g id="ytick_8">
     <g id="line2d_27">
      <path d="M 54.3 335.940899 
L 390.96 335.940899 
" clip-path="url(#p2a26ff92e1)" style="fill: none; stroke: #cccccc; stroke-width: 0.8; stroke-linecap: round"/>
     </g>
     <g id="text_28">
      <!-- 700 -->
      <g style="fill: #262626" transform="translate(29.203 339.284211)scale(0.088 -0.088)">
       <use xlink:href="#DejaVuSans-37"/>
       <use xlink:href="#DejaVuSans-30" x="63.623047"/>
       <use xlink:href="#DejaVuSans-30" x="127.246094"/>
      </g>
     </g>
    </g>
    <g id="ytick_9">
     <g id="line2d_28">
      <path d="M 54.3 313.57817 
L 390.96 313.57817 
" clip-path="url(#p2a26ff92e1)" style="fill: none; stroke: #cccccc; stroke-width: 0.8; stroke-linecap: round"/>
     </g>
     <g id="text_29">
      <!-- 800 -->
      <g style="fill: #262626" transform="translate(29.203 316.921482)scale(0.088 -0.088)">
       <use xlink:href="#DejaVuSans-38"/>
       <use xlink:href="#DejaVuSans-30" x="63.623047"/>
       <use xlink:href="#DejaVuSans-30" x="127.246094"/>
      </g>
     </g>
    </g>
    <g id="ytick_10">
     <g id="line2d_29">
      <path d="M 54.3 291.215441 
L 390.96 291.215441 
" clip-path="url(#p2a26ff92e1)" style="fill: none; stroke: #cccccc; stroke-width: 0.8; stroke-linecap: round"/>
     </g>
     <g id="text_30">
      <!-- 900 -->
      <g style="fill: #262626" transform="translate(29.203 294.558753)scale(0.088 -0.088)">
       <use xlink:href="#DejaVuSans-39"/>
       <use xlink:href="#DejaVuSans-30" x="63.623047"/>
       <use xlink:href="#DejaVuSans-30" x="127.246094"/>
      </g>
     </g>
    </g>
    <g id="ytick_11">
     <g id="line2d_30">
      <path d="M 54.3 268.852712 
L 390.96 268.852712 
" clip-path="url(#p2a26ff92e1)" style="fill: none; stroke: #cccccc; stroke-width: 0.8; stroke-linecap: round"/>
     </g>
     <g id="text_31">
      <!-- 1000 -->
      <g style="fill: #262626" transform="translate(23.604 272.196025)scale(0.088 -0.088)">
       <use xlink:href="#DejaVuSans-31"/>
       <use xlink:href="#DejaVuSans-30" x="63.623047"/>
       <use xlink:href="#DejaVuSans-30" x="127.246094"/>
       <use xlink:href="#DejaVuSans-30" x="190.869141"/>
      </g>
     </g>
    </g>
    <g id="ytick_12">
     <g id="line2d_31">
      <path d="M 54.3 246.489983 
L 390.96 246.489983 
" clip-path="url(#p2a26ff92e1)" style="fill: none; stroke: #cccccc; stroke-width: 0.8; stroke-linecap: round"/>
     </g>
     <g id="text_32">
      <!-- 1100 -->
      <g style="fill: #262626" transform="translate(23.604 249.833296)scale(0.088 -0.088)">
       <use xlink:href="#DejaVuSans-31"/>
       <use xlink:href="#DejaVuSans-31" x="63.623047"/>
       <use xlink:href="#DejaVuSans-30" x="127.246094"/>
       <use xlink:href="#DejaVuSans-30" x="190.869141"/>
      </g>
     </g>
    </g>
    <g id="ytick_13">
     <g id="line2d_32">
      <path d="M 54.3 224.127255 
L 390.96 224.127255 
" clip-path="url(#p2a26ff92e1)" style="fill: none; stroke: #cccccc; stroke-width: 0.8; stroke-linecap: round"/>
     </g>
     <g id="text_33">
      <!-- 1200 -->
      <g style="fill: #262626" transform="translate(23.604 227.470567)scale(0.088 -0.088)">
       <use xlink:href="#DejaVuSans-31"/>
       <use xlink:href="#DejaVuSans-32" x="63.623047"/>
       <use xlink:href="#DejaVuSans-30" x="127.246094"/>
       <use xlink:href="#DejaVuSans-30" x="190.869141"/>
      </g>
     </g>
    </g>
    <g id="ytick_14">
     <g id="line2d_33">
      <path d="M 54.3 201.764526 
L 390.96 201.764526 
" clip-path="url(#p2a26ff92e1)" style="fill: none; stroke: #cccccc; stroke-width: 0.8; stroke-linecap: round"/>
     </g>
     <g id="text_34">
      <!-- 1300 -->
      <g style="fill: #262626" transform="translate(23.604 205.107838)scale(0.088 -0.088)">
       <use xlink:href="#DejaVuSans-31"/>
       <use xlink:href="#DejaVuSans-33" x="63.623047"/>
       <use xlink:href="#DejaVuSans-30" x="127.246094"/>
       <use xlink:href="#DejaVuSans-30" x="190.869141"/>
      </g>
     </g>
    </g>
    <g id="ytick_15">
     <g id="line2d_34">
      <path d="M 54.3 179.401797 
L 390.96 179.401797 
" clip-path="url(#p2a26ff92e1)" style="fill: none; stroke: #cccccc; stroke-width: 0.8; stroke-linecap: round"/>
     </g>
     <g id="text_35">
      <!-- 1400 -->
      <g style="fill: #262626" transform="translate(23.604 182.74511)scale(0.088 -0.088)">
       <use xlink:href="#DejaVuSans-31"/>
       <use xlink:href="#DejaVuSans-34" x="63.623047"/>
       <use xlink:href="#DejaVuSans-30" x="127.246094"/>
       <use xlink:href="#DejaVuSans-30" x="190.869141"/>
      </g>
     </g>
    </g>
    <g id="ytick_16">
     <g id="line2d_35">
      <path d="M 54.3 157.039068 
L 390.96 157.039068 
" clip-path="url(#p2a26ff92e1)" style="fill: none; stroke: #cccccc; stroke-width: 0.8; stroke-linecap: round"/>
     </g>
     <g id="text_36">
      <!-- 1500 -->
      <g style="fill: #262626" transform="translate(23.604 160.382381)scale(0.088 -0.088)">
       <use xlink:href="#DejaVuSans-31"/>
       <use xlink:href="#DejaVuSans-35" x="63.623047"/>
       <use xlink:href="#DejaVuSans-30" x="127.246094"/>
       <use xlink:href="#DejaVuSans-30" x="190.869141"/>
      </g>
     </g>
    </g>
    <g id="ytick_17">
     <g id="line2d_36">
      <path d="M 54.3 134.676339 
L 390.96 134.676339 
" clip-path="url(#p2a26ff92e1)" style="fill: none; stroke: #cccccc; stroke-width: 0.8; stroke-linecap: round"/>
     </g>
     <g id="text_37">
      <!-- 1600 -->
      <g style="fill: #262626" transform="translate(23.604 138.019652)scale(0.088 -0.088)">
       <use xlink:href="#DejaVuSans-31"/>
       <use xlink:href="#DejaVuSans-36" x="63.623047"/>
       <use xlink:href="#DejaVuSans-30" x="127.246094"/>
       <use xlink:href="#DejaVuSans-30" x="190.869141"/>
      </g>
     </g>
    </g>
    <g id="ytick_18">
     <g id="line2d_37">
      <path d="M 54.3 112.313611 
L 390.96 112.313611 
" clip-path="url(#p2a26ff92e1)" style="fill: none; stroke: #cccccc; stroke-width: 0.8; stroke-linecap: round"/>
     </g>
     <g id="text_38">
      <!-- 1700 -->
      <g style="fill: #262626" transform="translate(23.604 115.656923)scale(0.088 -0.088)">
       <use xlink:href="#DejaVuSans-31"/>
       <use xlink:href="#DejaVuSans-37" x="63.623047"/>
       <use xlink:href="#DejaVuSans-30" x="127.246094"/>
       <use xlink:href="#DejaVuSans-30" x="190.869141"/>
      </g>
     </g>
    </g>
    <g id="ytick_19">
     <g id="line2d_38">
      <path d="M 54.3 89.950882 
L 390.96 89.950882 
" clip-path="url(#p2a26ff92e1)" style="fill: none; stroke: #cccccc; stroke-width: 0.8; stroke-linecap: round"/>
     </g>
     <g id="text_39">
      <!-- 1800 -->
      <g style="fill: #262626" transform="translate(23.604 93.294194)scale(0.088 -0.088)">
       <use xlink:href="#DejaVuSans-31"/>
       <use xlink:href="#DejaVuSans-38" x="63.623047"/>
       <use xlink:href="#DejaVuSans-30" x="127.246094"/>
       <use xlink:href="#DejaVuSans-30" x="190.869141"/>
      </g>
     </g>
    </g>
    <g id="text_40">
     <!-- Edge Coverages -->
     <g style="fill: #262626" transform="translate(17.6075 329.98575)rotate(-90)scale(0.096 -0.096)">
      <defs>
       <path id="DejaVuSans-45" d="M 628 4666 
L 3578 4666 
L 3578 4134 
L 1259 4134 
L 1259 2753 
L 3481 2753 
L 3481 2222 
L 1259 2222 
L 1259 531 
L 3634 531 
L 3634 0 
L 628 0 
L 628 4666 
z
" transform="scale(0.015625)"/>
       <path id="DejaVuSans-64" d="M 2906 2969 
L 2906 4863 
L 3481 4863 
L 3481 0 
L 2906 0 
L 2906 525 
Q 2725 213 2448 61 
Q 2172 -91 1784 -91 
Q 1150 -91 751 415 
Q 353 922 353 1747 
Q 353 2572 751 3078 
Q 1150 3584 1784 3584 
Q 2172 3584 2448 3432 
Q 2725 3281 2906 2969 
z
M 947 1747 
Q 947 1113 1208 752 
Q 1469 391 1925 391 
Q 2381 391 2643 752 
Q 2906 1113 2906 1747 
Q 2906 2381 2643 2742 
Q 2381 3103 1925 3103 
Q 1469 3103 1208 2742 
Q 947 2381 947 1747 
z
" transform="scale(0.015625)"/>
       <path id="DejaVuSans-67" d="M 2906 1791 
Q 2906 2416 2648 2759 
Q 2391 3103 1925 3103 
Q 1463 3103 1205 2759 
Q 947 2416 947 1791 
Q 947 1169 1205 825 
Q 1463 481 1925 481 
Q 2391 481 2648 825 
Q 2906 1169 2906 1791 
z
M 3481 434 
Q 3481 -459 3084 -895 
Q 2688 -1331 1869 -1331 
Q 1566 -1331 1297 -1286 
Q 1028 -1241 775 -1147 
L 775 -588 
Q 1028 -725 1275 -790 
Q 1522 -856 1778 -856 
Q 2344 -856 2625 -561 
Q 2906 -266 2906 331 
L 2906 616 
Q 2728 306 2450 153 
Q 2172 0 1784 0 
Q 1141 0 747 490 
Q 353 981 353 1791 
Q 353 2603 747 3093 
Q 1141 3584 1784 3584 
Q 2172 3584 2450 3431 
Q 2728 3278 2906 2969 
L 2906 3500 
L 3481 3500 
L 3481 434 
z
" transform="scale(0.015625)"/>
       <path id="DejaVuSans-43" d="M 4122 4306 
L 4122 3641 
Q 3803 3938 3442 4084 
Q 3081 4231 2675 4231 
Q 1875 4231 1450 3742 
Q 1025 3253 1025 2328 
Q 1025 1406 1450 917 
Q 1875 428 2675 428 
Q 3081 428 3442 575 
Q 3803 722 4122 1019 
L 4122 359 
Q 3791 134 3420 21 
Q 3050 -91 2638 -91 
Q 1578 -91 968 557 
Q 359 1206 359 2328 
Q 359 3453 968 4101 
Q 1578 4750 2638 4750 
Q 3056 4750 3426 4639 
Q 3797 4528 4122 4306 
z
" transform="scale(0.015625)"/>
       <path id="DejaVuSans-6f" d="M 1959 3097 
Q 1497 3097 1228 2736 
Q 959 2375 959 1747 
Q 959 1119 1226 758 
Q 1494 397 1959 397 
Q 2419 397 2687 759 
Q 2956 1122 2956 1747 
Q 2956 2369 2687 2733 
Q 2419 3097 1959 3097 
z
M 1959 3584 
Q 2709 3584 3137 3096 
Q 3566 2609 3566 1747 
Q 3566 888 3137 398 
Q 2709 -91 1959 -91 
Q 1206 -91 779 398 
Q 353 888 353 1747 
Q 353 2609 779 3096 
Q 1206 3584 1959 3584 
z
" transform="scale(0.015625)"/>
       <path id="DejaVuSans-76" d="M 191 3500 
L 800 3500 
L 1894 563 
L 2988 3500 
L 3597 3500 
L 2284 0 
L 1503 0 
L 191 3500 
z
" transform="scale(0.015625)"/>
       <path id="DejaVuSans-72" d="M 2631 2963 
Q 2534 3019 2420 3045 
Q 2306 3072 2169 3072 
Q 1681 3072 1420 2755 
Q 1159 2438 1159 1844 
L 1159 0 
L 581 0 
L 581 3500 
L 1159 3500 
L 1159 2956 
Q 1341 3275 1631 3429 
Q 1922 3584 2338 3584 
Q 2397 3584 2469 3576 
Q 2541 3569 2628 3553 
L 2631 2963 
z
" transform="scale(0.015625)"/>
       <path id="DejaVuSans-61" d="M 2194 1759 
Q 1497 1759 1228 1600 
Q 959 1441 959 1056 
Q 959 750 1161 570 
Q 1363 391 1709 391 
Q 2188 391 2477 730 
Q 2766 1069 2766 1631 
L 2766 1759 
L 2194 1759 
z
M 3341 1997 
L 3341 0 
L 2766 0 
L 2766 531 
Q 2569 213 2275 61 
Q 1981 -91 1556 -91 
Q 1019 -91 701 211 
Q 384 513 384 1019 
Q 384 1609 779 1909 
Q 1175 2209 1959 2209 
L 2766 2209 
L 2766 2266 
Q 2766 2663 2505 2880 
Q 2244 3097 1772 3097 
Q 1472 3097 1187 3025 
Q 903 2953 641 2809 
L 641 3341 
Q 956 3463 1253 3523 
Q 1550 3584 1831 3584 
Q 2591 3584 2966 3190 
Q 3341 2797 3341 1997 
z
" transform="scale(0.015625)"/>
      </defs>
      <use xlink:href="#DejaVuSans-45"/>
      <use xlink:href="#DejaVuSans-64" x="63.183594"/>
      <use xlink:href="#DejaVuSans-67" x="126.660156"/>
      <use xlink:href="#DejaVuSans-65" x="190.136719"/>
      <use xlink:href="#DejaVuSans-20" x="251.660156"/>
      <use xlink:href="#DejaVuSans-43" x="283.447266"/>
      <use xlink:href="#DejaVuSans-6f" x="353.271484"/>
      <use xlink:href="#DejaVuSans-76" x="414.453125"/>
      <use xlink:href="#DejaVuSans-65" x="473.632812"/>
      <use xlink:href="#DejaVuSans-72" x="535.15625"/>
      <use xlink:href="#DejaVuSans-61" x="576.269531"/>
      <use xlink:href="#DejaVuSans-67" x="637.548828"/>
      <use xlink:href="#DejaVuSans-65" x="701.025391"/>
      <use xlink:href="#DejaVuSans-73" x="762.548828"/>
     </g>
    </g>
   </g>
   <g id="PolyCollection_1">
    <defs>
     <path id="m20487ce808" d="M 69.602727 -111.249784 
L 69.602727 -83.52 
L 69.602727 -111.249784 
L 69.602727 -111.249784 
z
" style="stroke: #db5f57; stroke-opacity: 0.2; stroke-width: 0.8"/>
    </defs>
    <g clip-path="url(#p2a26ff92e1)">
     <use xlink:href="#m20487ce808" x="0" y="576" style="fill: #db5f57; fill-opacity: 0.2; stroke: #db5f57; stroke-opacity: 0.2; stroke-width: 0.8"/>
    </g>
   </g>
   <g id="PolyCollection_2">
    <defs>
     <path id="mbe87c56334" d="M 69.602727 -124.443794 
L 69.602727 -83.52 
L 69.602727 -124.443794 
L 69.602727 -124.443794 
z
" style="stroke: #b9db57; stroke-opacity: 0.2; stroke-width: 0.8"/>
    </defs>
    <g clip-path="url(#p2a26ff92e1)">
     <use xlink:href="#mbe87c56334" x="0" y="576" style="fill: #b9db57; fill-opacity: 0.2; stroke: #b9db57; stroke-opacity: 0.2; stroke-width: 0.8"/>
    </g>
   </g>
   <g id="PolyCollection_3">
    <defs>
     <path id="m9c9f2f5bc5" d="M 69.602727 -124.891048 
L 69.602727 -83.52 
L 69.602727 -124.891048 
L 69.602727 -124.891048 
z
" style="stroke: #57db94; stroke-opacity: 0.2; stroke-width: 0.8"/>
    </defs>
    <g clip-path="url(#p2a26ff92e1)">
     <use xlink:href="#m9c9f2f5bc5" x="0" y="576" style="fill: #57db94; fill-opacity: 0.2; stroke: #57db94; stroke-opacity: 0.2; stroke-width: 0.8"/>
    </g>
   </g>
   <g id="PolyCollection_4">
    <defs>
     <path id="m3ccbe743e0" d="M 69.602727 -123.772912 
L 69.602727 -83.52 
L 69.602727 -123.772912 
L 69.602727 -123.772912 
z
" style="stroke: #5784db; stroke-opacity: 0.2; stroke-width: 0.8"/>
    </defs>
    <g clip-path="url(#p2a26ff92e1)">
     <use xlink:href="#m3ccbe743e0" x="0" y="576" style="fill: #5784db; fill-opacity: 0.2; stroke: #5784db; stroke-opacity: 0.2; stroke-width: 0.8"/>
    </g>
   </g>
   <g id="PolyCollection_5">
    <defs>
     <path id="m8d1d8fb4af" d="M 69.602727 -134.283394 
L 69.602727 -83.52 
L 69.602727 -134.283394 
L 69.602727 -134.283394 
z
" style="stroke: #c957db; stroke-opacity: 0.2; stroke-width: 0.8"/>
    </defs>
    <g clip-path="url(#p2a26ff92e1)">
     <use xlink:href="#m8d1d8fb4af" x="0" y="576" style="fill: #c957db; fill-opacity: 0.2; stroke: #c957db; stroke-opacity: 0.2; stroke-width: 0.8"/>
    </g>
   </g>
   <g id="line2d_39">
    <path d="M 69.602727 478.615108 
L 70.028394 404.818103 
L 70.241228 401.687321 
L 70.666895 391.624093 
L 70.879728 390.505957 
L 71.305395 386.480666 
L 71.518229 384.691647 
L 71.731062 384.46802 
L 71.943896 373.957537 
L 72.369563 265.274676 
L 73.008063 264.603794 
L 73.220896 264.156539 
L 73.43373 260.80213 
L 73.646563 237.992146 
L 74.07223 237.992146 
L 74.710731 237.321265 
L 74.923564 236.426755 
L 75.136398 220.325591 
L 75.349231 220.325591 
L 75.774898 219.654709 
L 76.200565 219.207454 
L 76.413399 214.958536 
L 76.626232 207.131581 
L 76.839066 204.224426 
L 77.051899 203.10629 
L 77.903233 203.10629 
L 78.9674 199.975507 
L 79.180234 185.886988 
L 79.605901 184.992479 
L 79.818734 184.09797 
L 80.031568 184.09797 
L 80.882902 179.401797 
L 81.308569 177.612779 
L 81.521402 177.612779 
L 81.734236 177.389151 
L 82.159903 177.389151 
L 82.372736 172.469351 
L 82.798403 172.469351 
L 83.011237 172.245724 
L 83.22407 172.245724 
L 83.436904 170.009451 
L 83.649737 170.009451 
L 84.501071 169.114942 
L 84.713904 167.996805 
L 84.926738 167.996805 
L 85.139571 167.773178 
L 85.352405 167.773178 
L 85.565238 165.313278 
L 86.203739 165.313278 
L 86.416572 163.077005 
L 86.629406 163.077005 
L 86.842239 161.287987 
L 87.267906 161.287987 
L 87.48074 161.064359 
L 87.693573 161.064359 
L 87.906407 159.946223 
L 88.11924 159.946223 
L 88.544907 159.275341 
L 88.757741 159.051714 
L 88.970574 159.051714 
L 89.183408 158.828087 
L 89.396241 158.828087 
L 89.609074 155.697304 
L 89.821908 155.697304 
L 90.034741 154.802795 
L 90.247575 154.802795 
L 90.460408 152.119268 
L 90.673242 152.119268 
L 90.886075 151.895641 
L 91.311742 151.224759 
L 91.524576 146.97584 
L 91.737409 145.857704 
L 92.37591 145.857704 
L 92.588743 145.634077 
L 92.801577 145.634077 
L 93.01441 142.726922 
L 93.440077 142.726922 
L 93.652911 141.608785 
L 93.865744 141.161531 
L 94.078578 141.161531 
L 94.291411 140.937903 
L 94.504245 140.937903 
L 94.929911 139.59614 
L 95.355578 139.59614 
L 95.568412 139.372512 
L 95.994079 139.372512 
L 96.206912 138.925258 
L 96.419746 138.925258 
L 97.058246 136.912612 
L 98.122414 136.912612 
L 98.335247 135.123594 
L 98.548081 134.452712 
L 100.037915 134.452712 
L 100.250749 133.78183 
L 101.102082 133.78183 
L 101.740583 133.110948 
L 101.953416 132.440067 
L 102.16625 132.216439 
L 102.379083 132.216439 
L 102.591917 131.992812 
L 103.017584 131.992812 
L 103.230417 131.769185 
L 104.081751 131.769185 
L 104.294585 131.545557 
L 104.507418 131.545557 
L 104.720252 131.32193 
L 104.933085 130.651048 
L 105.145919 130.651048 
L 105.358752 130.427421 
L 106.848586 130.427421 
L 107.274253 129.980166 
L 107.912754 129.980166 
L 108.125587 129.532912 
L 109.189755 129.532912 
L 109.402588 129.309285 
L 111.530923 129.309285 
L 111.95659 128.638403 
L 112.59509 128.638403 
L 112.807924 128.414775 
L 114.297758 128.414775 
L 114.510592 128.191148 
L 116.638927 128.191148 
L 116.85176 127.967521 
L 118.767261 127.967521 
L 118.980095 127.743894 
L 120.257096 127.743894 
L 120.469929 127.520266 
L 121.959764 127.520266 
L 122.172597 127.296639 
L 122.385431 127.296639 
L 122.598264 127.073012 
L 124.088098 127.073012 
L 124.300932 126.849384 
L 126.216433 126.849384 
L 126.429267 126.40213 
L 127.493434 126.40213 
L 127.706268 126.178502 
L 130.685936 126.178502 
L 130.89877 125.731248 
L 131.111603 125.731248 
L 131.324437 125.507621 
L 132.175771 125.507621 
L 132.388604 125.283993 
L 132.814271 125.283993 
L 133.027105 125.060366 
L 135.79394 125.060366 
L 136.006773 124.613111 
L 137.070941 124.613111 
L 137.283774 124.389484 
L 139.412109 124.389484 
L 139.624942 124.165857 
L 140.263443 124.165857 
L 140.476276 123.94223 
L 141.753277 123.94223 
L 141.966111 123.718602 
L 143.455945 123.718602 
L 143.668779 123.271348 
L 143.881612 123.271348 
L 144.094446 123.04772 
L 145.158613 123.04772 
L 145.371446 122.824093 
L 149.628116 122.824093 
L 149.84095 122.600466 
L 150.47945 122.600466 
L 150.692283 122.376839 
L 151.330784 122.376839 
L 151.543617 122.153211 
L 151.756451 122.153211 
L 151.969284 121.929584 
L 152.182118 121.929584 
L 152.607785 121.482329 
L 153.459119 121.482329 
L 153.671952 121.258702 
L 153.884786 121.258702 
L 154.097619 121.035075 
L 154.310453 121.035075 
L 154.523286 120.811448 
L 156.651621 120.811448 
L 156.864454 120.58782 
L 157.715788 120.58782 
L 157.928622 120.364193 
L 163.462292 120.364193 
L 163.675126 120.140566 
L 165.377794 120.140566 
L 165.590627 119.693311 
L 173.891133 119.693311 
L 174.103966 119.469684 
L 178.999136 119.469684 
L 179.21197 119.246057 
L 186.661142 119.246057 
L 187.086809 118.798802 
L 201.346652 118.798802 
L 201.559485 118.575175 
L 207.518823 118.575175 
L 207.731656 118.351547 
L 207.94449 118.351547 
L 208.157323 118.12792 
L 208.58299 118.12792 
L 208.795824 117.904293 
L 209.008657 117.904293 
L 209.434324 117.457038 
L 210.072825 115.66802 
L 210.285658 115.220765 
L 210.498492 115.220765 
L 210.711325 114.997138 
L 218.37333 114.997138 
L 218.586164 114.773511 
L 219.650331 114.773511 
L 219.863165 114.549884 
L 222.204333 114.549884 
L 222.417167 114.326256 
L 224.971168 114.326256 
L 225.184002 114.102629 
L 226.88667 114.102629 
L 227.099503 113.879002 
L 230.079172 113.879002 
L 230.292005 113.655374 
L 230.930506 113.655374 
L 231.143339 113.431747 
L 236.251343 113.431747 
L 236.464176 113.20812 
L 238.592511 113.20812 
L 238.805345 112.984493 
L 243.062014 112.984493 
L 243.274848 112.760865 
L 256.25769 112.760865 
L 256.470523 112.537238 
L 256.683357 112.537238 
L 256.89619 112.313611 
L 266.260864 112.313611 
L 266.473697 112.089983 
L 269.027699 112.089983 
L 269.240532 111.866356 
L 274.348536 111.866356 
L 274.561369 111.419101 
L 275.625537 111.419101 
L 275.83837 111.195474 
L 283.074709 111.195474 
L 283.287542 110.971847 
L 285.415877 110.971847 
L 285.841544 110.524592 
L 290.52388 110.524592 
L 290.736714 109.85371 
L 291.800881 109.85371 
L 292.013715 109.630083 
L 293.716383 109.630083 
L 293.929216 109.406456 
L 294.354883 109.406456 
L 294.567717 109.182829 
L 300.314221 109.182829 
L 300.527054 108.959201 
L 301.378388 108.959201 
L 301.591221 108.735574 
L 301.804055 108.735574 
L 302.016888 108.511947 
L 307.337725 108.511947 
L 307.550559 108.288319 
L 308.189059 108.288319 
L 308.401893 108.064692 
L 313.297063 108.064692 
L 313.509896 107.841065 
L 322.661736 107.841065 
L 322.874569 107.617438 
L 325.641405 107.617438 
L 326.067072 107.170183 
L 331.387909 107.170183 
L 331.600742 106.946556 
L 337.134413 106.946556 
L 337.347246 106.722928 
L 342.45525 106.722928 
L 342.668083 106.499301 
L 342.880917 106.052047 
L 350.755755 106.052047 
L 350.968589 105.604792 
L 351.394256 105.604792 
L 351.607089 105.381165 
L 353.096924 105.381165 
L 353.309757 105.157537 
L 356.927926 105.157537 
L 357.14076 104.263028 
L 375.657273 104.263028 
L 375.657273 104.263028 
" clip-path="url(#p2a26ff92e1)" style="fill: none; stroke: #db5f57; stroke-width: 1.2; stroke-linecap: round"/>
   </g>
   <g id="line2d_40">
    <path d="M 69.602727 472.018103 
L 69.815561 443.729251 
L 70.241228 369.484992 
L 70.666895 318.49797 
L 70.879728 314.696306 
L 71.092562 294.346223 
L 71.305395 292.333577 
L 71.731062 276.008785 
L 72.156729 272.654376 
L 72.582396 261.473012 
L 72.795229 260.354875 
L 73.008063 250.06802 
L 73.43373 242.464692 
L 73.646563 241.79381 
L 73.859397 231.95421 
L 74.07223 231.95421 
L 74.497897 227.481664 
L 75.136398 224.350882 
L 75.349231 222.338236 
L 75.562065 218.7602 
L 75.774898 218.312945 
L 75.987732 215.40579 
L 76.200565 214.734908 
L 76.413399 213.616772 
L 77.264733 204.895308 
L 77.477566 204.224426 
L 78.116067 199.975507 
L 78.754567 193.937571 
L 79.180234 191.701298 
L 79.393067 191.701298 
L 79.605901 191.030416 
L 80.031568 189.01777 
L 80.244401 188.346889 
L 80.670068 185.886988 
L 80.882902 185.439734 
L 81.308569 182.979834 
L 81.521402 182.756206 
L 82.159903 179.401797 
L 82.372736 179.17817 
L 82.58557 178.507288 
L 83.22407 175.600133 
L 83.436904 175.152879 
L 83.649737 175.152879 
L 84.713904 173.140233 
L 84.926738 172.916606 
L 85.990905 167.773178 
L 86.203739 167.549551 
L 86.629406 166.207787 
L 86.842239 165.98416 
L 87.055073 165.98416 
L 87.267906 165.760532 
L 87.693573 163.971514 
L 87.906407 163.747887 
L 88.11924 163.747887 
L 89.609074 159.051714 
L 89.821908 158.828087 
L 90.034741 158.380832 
L 90.247575 156.144559 
L 90.673242 154.579168 
L 91.098909 152.566522 
L 91.524576 149.882995 
L 91.737409 149.659368 
L 92.163076 146.97584 
L 92.37591 146.304958 
L 92.588743 146.304958 
L 92.801577 145.857704 
L 93.227244 145.857704 
L 94.078578 144.068686 
L 94.291411 144.068686 
L 94.717078 143.621431 
L 94.929911 143.174176 
L 95.781245 143.174176 
L 96.206912 142.726922 
L 96.419746 142.279667 
L 96.632579 142.279667 
L 97.483913 140.714276 
L 97.696747 140.490649 
L 97.90958 138.925258 
L 98.122414 138.254376 
L 98.548081 138.254376 
L 98.760914 138.030749 
L 99.186581 138.030749 
L 99.612248 137.583494 
L 100.889249 137.583494 
L 101.102082 137.13624 
L 101.314916 137.13624 
L 101.740583 136.465358 
L 102.379083 136.465358 
L 102.80475 136.018103 
L 103.656084 136.018103 
L 103.868918 135.570849 
L 104.081751 135.570849 
L 104.294585 135.347221 
L 104.933085 135.347221 
L 105.145919 135.123594 
L 106.635753 135.123594 
L 106.848586 134.899967 
L 107.06142 134.899967 
L 107.274253 134.676339 
L 107.487087 134.676339 
L 107.69992 134.452712 
L 111.743756 134.452712 
L 111.95659 134.229085 
L 112.169423 134.229085 
L 112.382257 134.005458 
L 114.084925 134.005458 
L 114.297758 133.78183 
L 114.723425 133.78183 
L 114.936259 133.110948 
L 116.638927 133.110948 
L 116.85176 132.887321 
L 118.341594 132.887321 
L 118.554428 132.663694 
L 120.895596 132.663694 
L 121.10843 132.440067 
L 121.534097 132.440067 
L 121.74693 132.216439 
L 121.959764 132.216439 
L 122.172597 131.992812 
L 126.216433 131.992812 
L 126.6421 131.545557 
L 126.854934 131.545557 
L 127.067767 131.32193 
L 127.706268 131.32193 
L 127.919101 131.098303 
L 130.89877 131.098303 
L 131.111603 130.874676 
L 132.175771 130.874676 
L 132.388604 130.651048 
L 132.601438 130.651048 
L 132.814271 130.427421 
L 133.027105 130.427421 
L 133.665605 129.756539 
L 135.581106 129.756539 
L 135.79394 129.309285 
L 136.645274 129.309285 
L 136.858107 129.085657 
L 137.283774 129.085657 
L 137.496608 128.86203 
L 139.199276 128.86203 
L 139.412109 128.638403 
L 139.624942 128.638403 
L 139.837776 128.414775 
L 143.243112 128.414775 
L 143.455945 128.191148 
L 143.668779 128.191148 
L 143.881612 127.967521 
L 144.945779 127.967521 
L 145.158613 127.743894 
L 149.628116 127.743894 
L 149.84095 127.520266 
L 150.266617 127.520266 
L 150.47945 127.296639 
L 151.11795 127.296639 
L 151.330784 127.073012 
L 151.543617 127.073012 
L 151.969284 126.625757 
L 152.182118 126.625757 
L 152.394951 126.40213 
L 153.671952 126.40213 
L 154.097619 125.954875 
L 154.523286 125.954875 
L 154.73612 125.731248 
L 156.864454 125.731248 
L 157.077288 125.507621 
L 157.715788 125.507621 
L 157.928622 125.283993 
L 160.056957 125.283993 
L 160.26979 125.060366 
L 160.482624 124.613111 
L 165.377794 124.613111 
L 165.590627 124.165857 
L 170.485797 124.165857 
L 170.698631 123.94223 
L 172.188465 123.94223 
L 172.401299 123.718602 
L 178.786303 123.718602 
L 178.999136 123.494975 
L 184.74564 123.494975 
L 184.958474 123.271348 
L 188.789477 123.271348 
L 189.00231 123.04772 
L 196.238648 123.04772 
L 196.451482 122.824093 
L 206.880322 122.824093 
L 207.093156 122.600466 
L 207.518823 122.600466 
L 207.731656 122.376839 
L 208.370157 122.376839 
L 208.58299 122.153211 
L 209.221491 122.153211 
L 209.434324 121.929584 
L 209.647158 121.929584 
L 209.859991 121.035075 
L 210.072825 121.035075 
L 210.285658 120.140566 
L 210.498492 119.916938 
L 218.160497 119.916938 
L 218.37333 119.693311 
L 223.907001 119.693311 
L 224.119834 119.469684 
L 224.758335 119.469684 
L 224.971168 119.246057 
L 225.184002 119.246057 
L 225.396835 119.022429 
L 225.822502 119.022429 
L 226.035336 118.798802 
L 228.163671 118.798802 
L 228.376504 118.575175 
L 230.079172 118.575175 
L 230.292005 118.351547 
L 230.717672 118.351547 
L 230.930506 118.12792 
L 238.379678 118.12792 
L 238.592511 117.904293 
L 241.785013 117.904293 
L 241.997847 117.680666 
L 243.487681 117.680666 
L 243.700515 117.457038 
L 251.149686 117.457038 
L 251.36252 117.233411 
L 256.044856 117.233411 
L 256.25769 117.009784 
L 256.683357 117.009784 
L 256.89619 116.786156 
L 257.747524 116.786156 
L 257.960358 116.562529 
L 264.345362 116.562529 
L 264.558196 116.338902 
L 268.176365 116.338902 
L 268.389198 116.115275 
L 273.922869 116.115275 
L 274.135702 115.66802 
L 274.774203 115.66802 
L 274.987036 115.444393 
L 278.179539 115.444393 
L 278.392372 115.220765 
L 282.649042 115.220765 
L 282.861875 114.997138 
L 285.62871 114.997138 
L 285.841544 114.773511 
L 289.459713 114.773511 
L 289.88538 114.326256 
L 293.503549 114.326256 
L 293.716383 114.102629 
L 296.908885 114.102629 
L 297.121718 113.879002 
L 299.67572 113.879002 
L 299.888554 113.655374 
L 300.314221 113.655374 
L 300.527054 113.20812 
L 301.804055 113.20812 
L 302.016888 112.984493 
L 307.550559 112.984493 
L 307.763392 112.760865 
L 313.297063 112.760865 
L 313.509896 112.537238 
L 316.276732 112.537238 
L 316.489565 112.313611 
L 325.641405 112.313611 
L 326.067072 111.866356 
L 337.134413 111.866356 
L 337.347246 111.642729 
L 342.242416 111.642729 
L 342.45525 111.419101 
L 342.668083 110.971847 
L 350.330089 110.971847 
L 350.755755 110.300965 
L 353.309757 110.300965 
L 353.522591 110.077338 
L 355.650926 110.077338 
L 355.863759 109.85371 
L 367.143933 109.85371 
L 367.356767 109.630083 
L 375.657273 109.630083 
L 375.657273 109.630083 
" clip-path="url(#p2a26ff92e1)" style="fill: none; stroke: #b9db57; stroke-width: 1.2; stroke-linecap: round"/>
   </g>
   <g id="line2d_41">
    <path d="M 69.602727 471.794476 
L 70.666895 327.443062 
L 71.092562 310.000133 
L 71.518229 294.346223 
L 71.731062 291.439068 
L 72.156729 280.257704 
L 72.369563 278.021431 
L 72.582396 273.548885 
L 72.795229 264.603794 
L 73.43373 257.224093 
L 74.07223 241.346556 
L 74.497897 240.004792 
L 75.349231 235.084992 
L 75.774898 229.270682 
L 75.987732 228.376173 
L 76.200565 228.152546 
L 76.413399 227.258037 
L 76.626232 227.258037 
L 76.839066 224.127255 
L 77.051899 223.232745 
L 77.264733 220.549218 
L 77.477566 219.878336 
L 77.903233 217.865691 
L 78.3289 213.393145 
L 78.754567 209.591481 
L 78.9674 209.144226 
L 79.180234 207.802463 
L 79.393067 207.578835 
L 79.605901 206.907953 
L 79.818734 206.684326 
L 81.095735 202.659035 
L 81.308569 201.093644 
L 81.521402 201.093644 
L 82.372736 197.962862 
L 83.22407 195.502962 
L 83.649737 194.83208 
L 84.926738 194.83208 
L 85.139571 191.924925 
L 85.990905 190.359534 
L 86.203739 190.135907 
L 86.416572 188.570516 
L 86.842239 188.570516 
L 87.48074 187.899634 
L 87.906407 186.781498 
L 88.11924 186.781498 
L 88.757741 184.545225 
L 88.970574 184.545225 
L 89.183408 184.321597 
L 89.609074 182.085324 
L 89.821908 181.63807 
L 90.034741 180.743561 
L 90.247575 180.519933 
L 90.886075 179.401797 
L 91.098909 178.060033 
L 91.311742 178.060033 
L 91.524576 175.82376 
L 91.737409 175.600133 
L 91.950243 174.481997 
L 92.37591 174.034742 
L 92.801577 172.916606 
L 93.01441 172.692978 
L 93.227244 172.692978 
L 93.440077 172.245724 
L 93.865744 170.233078 
L 94.078578 170.233078 
L 94.504245 169.785824 
L 94.929911 169.785824 
L 95.142745 169.338569 
L 95.355578 169.338569 
L 95.568412 169.114942 
L 95.781245 169.114942 
L 95.994079 168.891314 
L 96.206912 168.891314 
L 96.419746 168.44406 
L 97.27108 168.44406 
L 97.483913 168.220433 
L 98.548081 168.220433 
L 98.760914 165.089651 
L 101.527749 165.089651 
L 101.740583 164.866023 
L 101.953416 163.300632 
L 106.422919 163.300632 
L 106.635753 161.511614 
L 110.041089 161.511614 
L 110.253922 161.064359 
L 114.936259 161.064359 
L 115.149092 159.722596 
L 121.321263 159.722596 
L 121.534097 159.498968 
L 121.74693 158.828087 
L 121.959764 158.604459 
L 126.216433 158.604459 
L 126.429267 157.933577 
L 127.493434 157.933577 
L 127.706268 157.70995 
L 130.89877 157.70995 
L 131.324437 157.262696 
L 131.750104 157.262696 
L 131.962937 157.039068 
L 132.601438 157.039068 
L 132.814271 156.815441 
L 133.027105 156.815441 
L 133.239938 156.591814 
L 133.665605 156.591814 
L 133.878438 156.368186 
L 135.368273 156.368186 
L 135.79394 155.920932 
L 136.006773 155.473677 
L 139.412109 155.473677 
L 139.624942 155.25005 
L 139.837776 155.25005 
L 140.050609 155.026423 
L 144.520113 155.026423 
L 144.732946 154.579168 
L 146.22278 154.579168 
L 146.435614 154.355541 
L 149.84095 154.355541 
L 150.053783 153.908286 
L 153.246285 153.908286 
L 153.671952 153.237404 
L 153.884786 153.013777 
L 157.502955 153.013777 
L 157.715788 152.79015 
L 166.654795 152.79015 
L 166.867628 151.672013 
L 188.36381 151.672013 
L 188.576643 150.553877 
L 191.130645 150.553877 
L 191.343478 150.106622 
L 208.370157 150.106622 
L 208.58299 148.541231 
L 208.795824 148.541231 
L 209.008657 148.317604 
L 209.221491 148.317604 
L 209.647158 147.199468 
L 209.859991 146.528586 
L 210.072825 146.304958 
L 210.285658 145.857704 
L 210.924159 145.857704 
L 211.349826 145.410449 
L 223.907001 145.410449 
L 224.119834 145.186822 
L 224.332668 144.739567 
L 238.805345 144.739567 
L 239.018178 143.174176 
L 247.744351 143.174176 
L 247.957184 142.726922 
L 260.940027 142.726922 
L 261.15286 142.05604 
L 267.112197 142.05604 
L 267.325031 141.608785 
L 267.750698 141.608785 
L 267.963531 141.385158 
L 268.176365 141.385158 
L 268.389198 140.937903 
L 278.392372 140.937903 
L 278.605205 140.714276 
L 283.500376 140.714276 
L 283.713209 140.490649 
L 285.415877 140.490649 
L 285.62871 140.267022 
L 288.821213 140.267022 
L 289.034046 140.043394 
L 289.672546 140.043394 
L 289.88538 139.59614 
L 291.588048 139.59614 
L 291.800881 139.372512 
L 293.290716 139.372512 
L 293.503549 139.148885 
L 293.716383 138.701631 
L 297.121718 138.701631 
L 297.334552 138.478003 
L 299.888554 138.478003 
L 300.101387 138.254376 
L 300.527054 138.254376 
L 300.739887 137.807121 
L 307.337725 137.807121 
L 307.550559 137.583494 
L 308.189059 137.583494 
L 308.401893 137.359867 
L 313.297063 137.359867 
L 313.509896 137.13624 
L 325.854238 137.13624 
L 326.067072 136.912612 
L 340.965415 136.912612 
L 341.178249 136.688985 
L 342.242416 136.688985 
L 342.45525 136.465358 
L 342.668083 136.018103 
L 350.330089 136.018103 
L 350.755755 135.347221 
L 353.522591 135.347221 
L 353.735424 135.123594 
L 357.77926 135.123594 
L 357.992094 134.452712 
L 364.802765 134.452712 
L 365.015599 134.229085 
L 367.143933 134.229085 
L 367.356767 134.005458 
L 375.657273 134.005458 
L 375.657273 134.005458 
" clip-path="url(#p2a26ff92e1)" style="fill: none; stroke: #57db94; stroke-width: 1.2; stroke-linecap: round"/>
   </g>
   <g id="line2d_42">
    <path d="M 69.602727 472.353544 
L 70.028394 409.961531 
L 70.241228 407.278003 
L 70.454061 400.792812 
L 70.879728 338.177171 
L 71.305395 336.164526 
L 71.943896 334.15188 
L 72.369563 331.244725 
L 72.795229 328.113943 
L 73.220896 278.692313 
L 73.646563 278.245058 
L 73.859397 277.797804 
L 74.07223 261.696639 
L 74.285064 261.473012 
L 74.497897 261.473012 
L 74.710731 261.249384 
L 74.923564 260.354875 
L 75.136398 256.105957 
L 75.562065 255.435075 
L 75.774898 255.211448 
L 75.987732 248.949884 
L 76.200565 247.831747 
L 76.413399 247.831747 
L 76.626232 247.60812 
L 77.264733 240.899301 
L 77.477566 240.899301 
L 77.903233 236.650383 
L 78.116067 235.308619 
L 78.3289 235.084992 
L 78.541733 230.165191 
L 78.754567 229.941564 
L 79.180234 226.1399 
L 79.393067 225.916273 
L 80.244401 225.916273 
L 80.670068 221.2201 
L 81.095735 221.2201 
L 81.308569 220.772845 
L 81.734236 217.642063 
L 82.159903 217.642063 
L 82.372736 215.629418 
L 82.58557 214.958536 
L 82.798403 214.734908 
L 83.436904 212.722263 
L 83.649737 211.604126 
L 83.86257 211.156872 
L 84.288237 211.156872 
L 84.713904 210.709617 
L 85.139571 210.038735 
L 85.352405 208.920599 
L 85.565238 208.696972 
L 85.778072 208.249717 
L 85.990905 207.131581 
L 86.203739 206.907953 
L 86.416572 205.56619 
L 86.629406 205.342562 
L 86.842239 205.342562 
L 87.055073 204.895308 
L 87.267906 204.895308 
L 87.693573 203.777171 
L 87.906407 203.329917 
L 88.11924 203.329917 
L 88.332074 202.659035 
L 88.544907 202.659035 
L 88.757741 202.435408 
L 88.970574 200.870017 
L 89.821908 197.962862 
L 90.247575 197.962862 
L 90.460408 196.844725 
L 90.886075 196.844725 
L 91.098909 195.055707 
L 91.311742 194.608453 
L 92.163076 194.608453 
L 92.37591 190.806789 
L 92.588743 189.688652 
L 92.801577 189.688652 
L 93.01441 188.794143 
L 93.227244 188.794143 
L 93.440077 188.123261 
L 93.652911 188.123261 
L 93.865744 187.899634 
L 94.078578 186.334243 
L 94.291411 186.334243 
L 94.717078 185.886988 
L 95.781245 185.886988 
L 95.994079 185.439734 
L 96.206912 185.439734 
L 96.845413 184.321597 
L 97.058246 184.09797 
L 97.27108 183.203461 
L 97.483913 182.979834 
L 98.548081 180.967188 
L 98.760914 180.967188 
L 98.973748 180.519933 
L 99.612248 180.519933 
L 99.825082 180.072679 
L 100.889249 180.072679 
L 101.102082 179.849052 
L 101.314916 179.849052 
L 101.740583 178.954542 
L 102.379083 178.954542 
L 102.591917 178.730915 
L 102.80475 178.730915 
L 103.230417 178.283661 
L 103.656084 178.283661 
L 103.868918 177.836406 
L 104.081751 177.836406 
L 104.294585 177.612779 
L 104.720252 177.612779 
L 104.933085 177.165524 
L 105.358752 177.165524 
L 105.571586 176.941897 
L 106.635753 176.941897 
L 106.848586 176.71827 
L 107.274253 176.71827 
L 107.69992 176.271015 
L 111.530923 176.271015 
L 111.743756 176.047388 
L 113.233591 176.047388 
L 113.446424 175.600133 
L 114.297758 175.600133 
L 114.510592 175.376506 
L 114.936259 175.376506 
L 115.149092 174.705624 
L 115.361926 174.705624 
L 115.574759 174.481997 
L 118.554428 174.481997 
L 118.767261 174.258369 
L 119.405762 174.258369 
L 119.618595 174.034742 
L 120.257096 174.034742 
L 120.469929 173.811115 
L 121.534097 173.811115 
L 121.74693 173.587488 
L 123.023931 173.587488 
L 123.236764 173.36386 
L 125.790766 173.36386 
L 126.0036 173.140233 
L 127.067767 173.140233 
L 127.280601 172.469351 
L 127.919101 172.469351 
L 128.131935 172.245724 
L 131.111603 172.245724 
L 131.53727 171.798469 
L 131.962937 171.798469 
L 132.175771 171.574842 
L 133.027105 171.574842 
L 133.239938 171.127587 
L 133.665605 171.127587 
L 133.878438 170.90396 
L 134.942606 170.90396 
L 135.155439 170.680333 
L 135.581106 170.680333 
L 136.006773 170.009451 
L 136.219607 170.009451 
L 136.43244 169.785824 
L 137.070941 169.785824 
L 137.283774 169.562196 
L 139.624942 169.562196 
L 139.837776 169.338569 
L 140.263443 169.338569 
L 140.476276 169.114942 
L 140.901943 169.114942 
L 141.114777 168.891314 
L 141.753277 168.891314 
L 141.966111 168.667687 
L 143.455945 168.667687 
L 143.668779 168.44406 
L 144.732946 168.44406 
L 144.945779 168.220433 
L 149.415283 168.220433 
L 149.628116 167.996805 
L 150.692283 167.996805 
L 150.905117 167.773178 
L 151.756451 167.773178 
L 151.969284 167.549551 
L 153.246285 167.549551 
L 153.671952 167.102296 
L 154.310453 167.102296 
L 154.523286 166.431414 
L 156.651621 166.431414 
L 156.864454 166.207787 
L 157.715788 166.207787 
L 157.928622 165.98416 
L 160.482624 165.98416 
L 160.695457 165.536905 
L 167.718962 165.536905 
L 167.931795 165.313278 
L 168.144629 165.313278 
L 168.357462 165.089651 
L 169.42163 165.089651 
L 169.634463 164.866023 
L 170.698631 164.866023 
L 170.911464 164.642396 
L 178.786303 164.642396 
L 178.999136 164.418769 
L 184.532807 164.418769 
L 184.74564 164.195141 
L 189.427977 164.195141 
L 189.64081 163.747887 
L 190.279311 163.747887 
L 190.492144 163.52426 
L 193.046146 163.52426 
L 193.25898 163.300632 
L 196.238648 163.300632 
L 196.451482 163.077005 
L 196.664315 163.077005 
L 196.877149 162.853378 
L 201.985152 162.853378 
L 202.197986 162.62975 
L 207.093156 162.62975 
L 207.305989 162.406123 
L 207.731656 162.406123 
L 207.94449 162.182496 
L 208.157323 162.182496 
L 208.58299 161.735241 
L 209.859991 161.735241 
L 210.072825 160.393478 
L 210.498492 160.393478 
L 210.711325 159.722596 
L 211.349826 159.722596 
L 211.562659 159.498968 
L 216.032162 159.498968 
L 216.244996 159.275341 
L 216.457829 159.275341 
L 216.670663 159.051714 
L 217.947663 159.051714 
L 218.160497 158.828087 
L 223.907001 158.828087 
L 224.119834 158.604459 
L 224.758335 158.604459 
L 224.971168 158.380832 
L 228.376504 158.380832 
L 228.589337 158.157205 
L 229.866338 158.157205 
L 230.079172 157.933577 
L 230.930506 157.933577 
L 231.143339 157.70995 
L 238.379678 157.70995 
L 238.592511 157.262696 
L 238.805345 157.262696 
L 239.018178 157.039068 
L 242.423514 157.039068 
L 242.636347 156.815441 
L 246.893017 156.815441 
L 247.10585 156.591814 
L 251.149686 156.591814 
L 251.36252 156.368186 
L 256.683357 156.368186 
L 256.89619 155.920932 
L 264.558196 155.920932 
L 264.983863 155.473677 
L 266.899364 155.473677 
L 267.112197 155.25005 
L 268.176365 155.25005 
L 268.389198 155.026423 
L 274.774203 155.026423 
L 274.987036 154.802795 
L 279.669373 154.802795 
L 279.882206 154.579168 
L 282.861875 154.579168 
L 283.074709 154.355541 
L 286.054377 154.355541 
L 286.267211 154.131913 
L 289.459713 154.131913 
L 289.88538 153.684659 
L 291.800881 153.684659 
L 292.013715 153.461032 
L 293.290716 153.461032 
L 293.503549 153.237404 
L 293.929216 153.237404 
L 294.14205 153.013777 
L 297.121718 153.013777 
L 297.334552 152.79015 
L 300.739887 152.79015 
L 300.952721 152.119268 
L 307.337725 152.119268 
L 307.550559 151.895641 
L 307.976226 151.895641 
L 308.189059 151.672013 
L 313.297063 151.672013 
L 313.509896 151.448386 
L 326.279905 151.448386 
L 326.492739 151.224759 
L 340.965415 151.224759 
L 341.178249 151.001131 
L 342.45525 151.001131 
L 342.668083 150.33025 
L 350.330089 150.33025 
L 350.542922 150.106622 
L 350.755755 149.659368 
L 351.181422 149.659368 
L 351.394256 149.43574 
L 353.309757 149.43574 
L 353.522591 149.212113 
L 353.735424 149.212113 
L 353.948258 148.988486 
L 354.373925 148.988486 
L 354.586758 148.764859 
L 355.012425 148.764859 
L 355.225259 148.541231 
L 355.863759 148.541231 
L 356.076592 148.317604 
L 367.143933 148.317604 
L 367.356767 148.093977 
L 375.657273 148.093977 
L 375.657273 148.093977 
" clip-path="url(#p2a26ff92e1)" style="fill: none; stroke: #5784db; stroke-width: 1.2; stroke-linecap: round"/>
   </g>
   <g id="line2d_43">
    <path d="M 69.602727 467.098303 
L 69.815561 441.492978 
L 70.241228 342.873344 
L 70.454061 314.025424 
L 70.666895 305.751215 
L 70.879728 291.886323 
L 71.092562 285.624759 
L 71.305395 275.561531 
L 71.731062 267.734576 
L 71.943896 258.789484 
L 72.369563 254.093311 
L 72.582396 248.949884 
L 72.795229 239.110283 
L 73.220896 232.848719 
L 73.43373 229.270682 
L 74.07223 214.958536 
L 74.497897 212.275008 
L 74.710731 211.156872 
L 75.349231 205.56619 
L 75.774898 200.646389 
L 76.413399 197.29198 
L 76.626232 195.055707 
L 76.839066 191.030416 
L 77.264733 188.570516 
L 77.477566 187.899634 
L 77.903233 185.439734 
L 78.3289 181.414443 
L 78.754567 177.389151 
L 78.9674 176.71827 
L 79.180234 175.600133 
L 79.393067 175.376506 
L 79.605901 174.705624 
L 80.031568 172.916606 
L 80.244401 172.022097 
L 80.670068 169.114942 
L 80.882902 168.667687 
L 81.308569 165.98416 
L 81.521402 165.98416 
L 82.159903 162.406123 
L 82.372736 161.735241 
L 82.58557 161.511614 
L 83.011237 159.051714 
L 83.22407 159.051714 
L 83.436904 158.604459 
L 83.649737 158.604459 
L 84.075404 157.933577 
L 84.288237 157.70995 
L 84.713904 156.591814 
L 84.926738 156.368186 
L 85.352405 153.908286 
L 85.565238 153.237404 
L 85.778072 151.895641 
L 86.203739 151.448386 
L 86.416572 149.882995 
L 86.629406 149.882995 
L 86.842239 149.659368 
L 87.055073 149.659368 
L 87.267906 149.43574 
L 87.693573 147.646722 
L 87.906407 147.423095 
L 88.11924 147.423095 
L 89.396241 143.397804 
L 89.609074 142.279667 
L 90.034741 141.385158 
L 90.247575 139.148885 
L 90.460408 138.478003 
L 92.163076 129.980166 
L 92.37591 129.309285 
L 92.588743 129.309285 
L 92.801577 128.86203 
L 93.227244 128.86203 
L 93.865744 126.849384 
L 94.291411 126.849384 
L 94.504245 126.625757 
L 94.717078 125.954875 
L 94.929911 125.731248 
L 95.781245 125.731248 
L 96.206912 125.283993 
L 96.419746 124.836739 
L 96.632579 124.836739 
L 97.27108 123.718602 
L 97.483913 123.494975 
L 97.696747 123.04772 
L 97.90958 121.482329 
L 98.122414 120.811448 
L 98.548081 120.811448 
L 98.760914 120.58782 
L 99.186581 120.58782 
L 99.612248 120.140566 
L 100.889249 120.140566 
L 101.314916 119.469684 
L 101.740583 119.022429 
L 102.379083 119.022429 
L 102.80475 118.575175 
L 103.656084 118.575175 
L 103.868918 118.12792 
L 104.081751 118.12792 
L 104.294585 117.904293 
L 104.720252 117.904293 
L 104.933085 117.680666 
L 105.145919 117.680666 
L 105.358752 117.457038 
L 106.422919 117.457038 
L 106.635753 117.233411 
L 107.06142 117.233411 
L 107.274253 116.786156 
L 107.487087 116.786156 
L 107.69992 116.562529 
L 111.530923 116.562529 
L 111.95659 116.115275 
L 112.59509 116.115275 
L 112.807924 115.891647 
L 114.084925 115.891647 
L 114.297758 115.66802 
L 114.723425 115.66802 
L 114.936259 114.997138 
L 118.341594 114.997138 
L 118.554428 114.773511 
L 120.257096 114.773511 
L 120.469929 114.549884 
L 121.321263 114.549884 
L 121.534097 114.326256 
L 121.959764 114.326256 
L 122.172597 114.102629 
L 124.726599 114.102629 
L 124.939432 113.879002 
L 126.216433 113.879002 
L 126.429267 113.431747 
L 126.854934 113.431747 
L 127.067767 113.20812 
L 127.493434 113.20812 
L 127.706268 112.984493 
L 130.89877 112.984493 
L 131.324437 112.537238 
L 131.750104 112.537238 
L 131.962937 112.313611 
L 132.601438 112.313611 
L 132.814271 112.089983 
L 133.027105 112.089983 
L 133.452772 111.642729 
L 133.665605 111.642729 
L 133.878438 111.419101 
L 135.581106 111.419101 
L 135.79394 110.971847 
L 139.199276 110.971847 
L 139.412109 110.74822 
L 139.624942 110.74822 
L 139.837776 110.524592 
L 143.243112 110.524592 
L 143.881612 109.85371 
L 144.732946 109.85371 
L 144.945779 109.630083 
L 149.415283 109.630083 
L 149.628116 109.406456 
L 150.266617 109.406456 
L 150.47945 109.182829 
L 151.11795 109.182829 
L 151.330784 108.959201 
L 151.543617 108.959201 
L 151.969284 108.511947 
L 152.182118 108.511947 
L 152.394951 108.288319 
L 153.459119 108.288319 
L 153.884786 107.841065 
L 154.310453 107.841065 
L 154.523286 107.617438 
L 156.651621 107.617438 
L 156.864454 107.39381 
L 157.502955 107.39381 
L 157.715788 107.170183 
L 160.056957 107.170183 
L 160.26979 106.946556 
L 160.482624 106.499301 
L 165.377794 106.499301 
L 165.590627 106.052047 
L 172.188465 106.052047 
L 172.401299 105.828419 
L 178.786303 105.828419 
L 178.999136 105.604792 
L 184.532807 105.604792 
L 184.74564 105.381165 
L 188.789477 105.381165 
L 189.00231 105.157537 
L 196.238648 105.157537 
L 196.451482 104.93391 
L 206.880322 104.93391 
L 207.093156 104.710283 
L 207.518823 104.710283 
L 207.731656 104.486656 
L 208.370157 104.486656 
L 208.58299 104.263028 
L 208.795824 104.263028 
L 209.008657 104.039401 
L 209.221491 104.039401 
L 209.647158 102.921265 
L 209.859991 102.250383 
L 210.072825 102.026755 
L 210.498492 101.355874 
L 217.947663 101.355874 
L 218.160497 101.132246 
L 219.650331 101.132246 
L 219.863165 100.908619 
L 223.907001 100.908619 
L 224.119834 100.684992 
L 224.758335 100.684992 
L 224.971168 100.461364 
L 225.184002 100.461364 
L 225.396835 100.237737 
L 228.163671 100.237737 
L 228.376504 100.01411 
L 229.866338 100.01411 
L 230.079172 99.790483 
L 230.717672 99.790483 
L 230.930506 99.566855 
L 238.379678 99.566855 
L 238.592511 99.119601 
L 241.785013 99.119601 
L 241.997847 98.895973 
L 243.062014 98.895973 
L 243.274848 98.672346 
L 251.149686 98.672346 
L 251.36252 98.448719 
L 256.044856 98.448719 
L 256.25769 98.225092 
L 256.683357 98.225092 
L 256.89619 98.001464 
L 257.747524 98.001464 
L 257.960358 97.777837 
L 264.345362 97.777837 
L 264.558196 97.55421 
L 268.176365 97.55421 
L 268.389198 97.330582 
L 269.027699 97.330582 
L 269.240532 97.106955 
L 273.922869 97.106955 
L 274.135702 96.6597 
L 274.774203 96.6597 
L 274.987036 96.436073 
L 282.649042 96.436073 
L 282.861875 96.212446 
L 285.415877 96.212446 
L 285.62871 95.765191 
L 289.459713 95.765191 
L 289.88538 95.317937 
L 291.588048 95.317937 
L 291.800881 95.094309 
L 293.290716 95.094309 
L 293.929216 94.423428 
L 296.908885 94.423428 
L 297.121718 94.1998 
L 299.67572 94.1998 
L 299.888554 93.976173 
L 300.314221 93.976173 
L 300.527054 93.528918 
L 301.804055 93.528918 
L 302.016888 93.305291 
L 307.337725 93.305291 
L 307.550559 93.081664 
L 307.976226 93.081664 
L 308.189059 92.858037 
L 313.297063 92.858037 
L 313.509896 92.634409 
L 316.276732 92.634409 
L 316.489565 92.410782 
L 325.641405 92.410782 
L 326.067072 91.963527 
L 331.387909 91.963527 
L 331.600742 91.7399 
L 337.134413 91.7399 
L 337.347246 91.516273 
L 342.242416 91.516273 
L 342.45525 91.292646 
L 342.668083 90.845391 
L 350.330089 90.845391 
L 350.755755 90.174509 
L 351.394256 90.174509 
L 351.607089 89.950882 
L 353.309757 89.950882 
L 353.522591 89.727255 
L 355.650926 89.727255 
L 355.863759 89.503627 
L 367.143933 89.503627 
L 367.356767 89.28 
L 375.657273 89.28 
L 375.657273 89.28 
" clip-path="url(#p2a26ff92e1)" style="fill: none; stroke: #c957db; stroke-width: 1.2; stroke-linecap: round"/>
   </g>
   <g id="line2d_44"/>
   <g id="line2d_45"/>
   <g id="line2d_46"/>
   <g id="line2d_47"/>
   <g id="line2d_48"/>
   <g id="patch_3">
    <path d="M 54.3 512.64 
L 54.3 69.12 
" style="fill: none; stroke: #cccccc; stroke-linejoin: miter; stroke-linecap: square"/>
   </g>
   <g id="patch_4">
    <path d="M 54.3 512.64 
L 390.96 512.64 
" style="fill: none; stroke: #cccccc; stroke-linejoin: miter; stroke-linecap: square"/>
   </g>
   <g id="text_41">
    <!-- Edge Coverage History -->
    <g style="fill: #262626" transform="translate(115.738512 63.12)scale(0.165888 -0.165888)">
     <defs>
      <path id="DejaVuSans-Bold-45" d="M 588 4666 
L 3834 4666 
L 3834 3756 
L 1791 3756 
L 1791 2888 
L 3713 2888 
L 3713 1978 
L 1791 1978 
L 1791 909 
L 3903 909 
L 3903 0 
L 588 0 
L 588 4666 
z
" transform="scale(0.015625)"/>
      <path id="DejaVuSans-Bold-64" d="M 2919 2988 
L 2919 4863 
L 4044 4863 
L 4044 0 
L 2919 0 
L 2919 506 
Q 2688 197 2409 53 
Q 2131 -91 1766 -91 
Q 1119 -91 703 423 
Q 288 938 288 1747 
Q 288 2556 703 3070 
Q 1119 3584 1766 3584 
Q 2128 3584 2408 3439 
Q 2688 3294 2919 2988 
z
M 2181 722 
Q 2541 722 2730 984 
Q 2919 1247 2919 1747 
Q 2919 2247 2730 2509 
Q 2541 2772 2181 2772 
Q 1825 2772 1636 2509 
Q 1447 2247 1447 1747 
Q 1447 1247 1636 984 
Q 1825 722 2181 722 
z
" transform="scale(0.015625)"/>
      <path id="DejaVuSans-Bold-67" d="M 2919 594 
Q 2688 288 2409 144 
Q 2131 0 1766 0 
Q 1125 0 706 504 
Q 288 1009 288 1791 
Q 288 2575 706 3076 
Q 1125 3578 1766 3578 
Q 2131 3578 2409 3434 
Q 2688 3291 2919 2981 
L 2919 3500 
L 4044 3500 
L 4044 353 
Q 4044 -491 3511 -936 
Q 2978 -1381 1966 -1381 
Q 1638 -1381 1331 -1331 
Q 1025 -1281 716 -1178 
L 716 -306 
Q 1009 -475 1290 -558 
Q 1572 -641 1856 -641 
Q 2406 -641 2662 -400 
Q 2919 -159 2919 353 
L 2919 594 
z
M 2181 2772 
Q 1834 2772 1640 2515 
Q 1447 2259 1447 1791 
Q 1447 1309 1634 1061 
Q 1822 813 2181 813 
Q 2531 813 2725 1069 
Q 2919 1325 2919 1791 
Q 2919 2259 2725 2515 
Q 2531 2772 2181 2772 
z
" transform="scale(0.015625)"/>
      <path id="DejaVuSans-Bold-65" d="M 4031 1759 
L 4031 1441 
L 1416 1441 
Q 1456 1047 1700 850 
Q 1944 653 2381 653 
Q 2734 653 3104 758 
Q 3475 863 3866 1075 
L 3866 213 
Q 3469 63 3072 -14 
Q 2675 -91 2278 -91 
Q 1328 -91 801 392 
Q 275 875 275 1747 
Q 275 2603 792 3093 
Q 1309 3584 2216 3584 
Q 3041 3584 3536 3087 
Q 4031 2591 4031 1759 
z
M 2881 2131 
Q 2881 2450 2695 2645 
Q 2509 2841 2209 2841 
Q 1884 2841 1681 2658 
Q 1478 2475 1428 2131 
L 2881 2131 
z
" transform="scale(0.015625)"/>
      <path id="DejaVuSans-Bold-20" transform="scale(0.015625)"/>
      <path id="DejaVuSans-Bold-43" d="M 4288 256 
Q 3956 84 3597 -3 
Q 3238 -91 2847 -91 
Q 1681 -91 1000 561 
Q 319 1213 319 2328 
Q 319 3447 1000 4098 
Q 1681 4750 2847 4750 
Q 3238 4750 3597 4662 
Q 3956 4575 4288 4403 
L 4288 3438 
Q 3953 3666 3628 3772 
Q 3303 3878 2944 3878 
Q 2300 3878 1931 3465 
Q 1563 3053 1563 2328 
Q 1563 1606 1931 1193 
Q 2300 781 2944 781 
Q 3303 781 3628 887 
Q 3953 994 4288 1222 
L 4288 256 
z
" transform="scale(0.015625)"/>
      <path id="DejaVuSans-Bold-6f" d="M 2203 2784 
Q 1831 2784 1636 2517 
Q 1441 2250 1441 1747 
Q 1441 1244 1636 976 
Q 1831 709 2203 709 
Q 2569 709 2762 976 
Q 2956 1244 2956 1747 
Q 2956 2250 2762 2517 
Q 2569 2784 2203 2784 
z
M 2203 3584 
Q 3106 3584 3614 3096 
Q 4122 2609 4122 1747 
Q 4122 884 3614 396 
Q 3106 -91 2203 -91 
Q 1297 -91 786 396 
Q 275 884 275 1747 
Q 275 2609 786 3096 
Q 1297 3584 2203 3584 
z
" transform="scale(0.015625)"/>
      <path id="DejaVuSans-Bold-76" d="M 97 3500 
L 1216 3500 
L 2088 1081 
L 2956 3500 
L 4078 3500 
L 2700 0 
L 1472 0 
L 97 3500 
z
" transform="scale(0.015625)"/>
      <path id="DejaVuSans-Bold-72" d="M 3138 2547 
Q 2991 2616 2845 2648 
Q 2700 2681 2553 2681 
Q 2122 2681 1889 2404 
Q 1656 2128 1656 1613 
L 1656 0 
L 538 0 
L 538 3500 
L 1656 3500 
L 1656 2925 
Q 1872 3269 2151 3426 
Q 2431 3584 2822 3584 
Q 2878 3584 2943 3579 
Q 3009 3575 3134 3559 
L 3138 2547 
z
" transform="scale(0.015625)"/>
      <path id="DejaVuSans-Bold-61" d="M 2106 1575 
Q 1756 1575 1579 1456 
Q 1403 1338 1403 1106 
Q 1403 894 1545 773 
Q 1688 653 1941 653 
Q 2256 653 2472 879 
Q 2688 1106 2688 1447 
L 2688 1575 
L 2106 1575 
z
M 3816 1997 
L 3816 0 
L 2688 0 
L 2688 519 
Q 2463 200 2181 54 
Q 1900 -91 1497 -91 
Q 953 -91 614 226 
Q 275 544 275 1050 
Q 275 1666 698 1953 
Q 1122 2241 2028 2241 
L 2688 2241 
L 2688 2328 
Q 2688 2594 2478 2717 
Q 2269 2841 1825 2841 
Q 1466 2841 1156 2769 
Q 847 2697 581 2553 
L 581 3406 
Q 941 3494 1303 3539 
Q 1666 3584 2028 3584 
Q 2975 3584 3395 3211 
Q 3816 2838 3816 1997 
z
" transform="scale(0.015625)"/>
      <path id="DejaVuSans-Bold-48" d="M 588 4666 
L 1791 4666 
L 1791 2888 
L 3566 2888 
L 3566 4666 
L 4769 4666 
L 4769 0 
L 3566 0 
L 3566 1978 
L 1791 1978 
L 1791 0 
L 588 0 
L 588 4666 
z
" transform="scale(0.015625)"/>
      <path id="DejaVuSans-Bold-69" d="M 538 3500 
L 1656 3500 
L 1656 0 
L 538 0 
L 538 3500 
z
M 538 4863 
L 1656 4863 
L 1656 3950 
L 538 3950 
L 538 4863 
z
" transform="scale(0.015625)"/>
      <path id="DejaVuSans-Bold-73" d="M 3272 3391 
L 3272 2541 
Q 2913 2691 2578 2766 
Q 2244 2841 1947 2841 
Q 1628 2841 1473 2761 
Q 1319 2681 1319 2516 
Q 1319 2381 1436 2309 
Q 1553 2238 1856 2203 
L 2053 2175 
Q 2913 2066 3209 1816 
Q 3506 1566 3506 1031 
Q 3506 472 3093 190 
Q 2681 -91 1863 -91 
Q 1516 -91 1145 -36 
Q 775 19 384 128 
L 384 978 
Q 719 816 1070 734 
Q 1422 653 1784 653 
Q 2113 653 2278 743 
Q 2444 834 2444 1013 
Q 2444 1163 2330 1236 
Q 2216 1309 1875 1350 
L 1678 1375 
Q 931 1469 631 1722 
Q 331 1975 331 2491 
Q 331 3047 712 3315 
Q 1094 3584 1881 3584 
Q 2191 3584 2531 3537 
Q 2872 3491 3272 3391 
z
" transform="scale(0.015625)"/>
      <path id="DejaVuSans-Bold-74" d="M 1759 4494 
L 1759 3500 
L 2913 3500 
L 2913 2700 
L 1759 2700 
L 1759 1216 
Q 1759 972 1856 886 
Q 1953 800 2241 800 
L 2816 800 
L 2816 0 
L 1856 0 
Q 1194 0 917 276 
Q 641 553 641 1216 
L 641 2700 
L 84 2700 
L 84 3500 
L 641 3500 
L 641 4494 
L 1759 4494 
z
" transform="scale(0.015625)"/>
      <path id="DejaVuSans-Bold-79" d="M 78 3500 
L 1197 3500 
L 2138 1125 
L 2938 3500 
L 4056 3500 
L 2584 -331 
Q 2363 -916 2067 -1148 
Q 1772 -1381 1288 -1381 
L 641 -1381 
L 641 -647 
L 991 -647 
Q 1275 -647 1404 -556 
Q 1534 -466 1606 -231 
L 1638 -134 
L 78 3500 
z
" transform="scale(0.015625)"/>
     </defs>
     <use xlink:href="#DejaVuSans-Bold-45"/>
     <use xlink:href="#DejaVuSans-Bold-64" x="68.310547"/>
     <use xlink:href="#DejaVuSans-Bold-67" x="139.892578"/>
     <use xlink:href="#DejaVuSans-Bold-65" x="211.474609"/>
     <use xlink:href="#DejaVuSans-Bold-20" x="279.296875"/>
     <use xlink:href="#DejaVuSans-Bold-43" x="314.111328"/>
     <use xlink:href="#DejaVuSans-Bold-6f" x="387.5"/>
     <use xlink:href="#DejaVuSans-Bold-76" x="456.201172"/>
     <use xlink:href="#DejaVuSans-Bold-65" x="521.386719"/>
     <use xlink:href="#DejaVuSans-Bold-72" x="589.208984"/>
     <use xlink:href="#DejaVuSans-Bold-61" x="638.525391"/>
     <use xlink:href="#DejaVuSans-Bold-67" x="706.005859"/>
     <use xlink:href="#DejaVuSans-Bold-65" x="777.587891"/>
     <use xlink:href="#DejaVuSans-Bold-20" x="845.410156"/>
     <use xlink:href="#DejaVuSans-Bold-48" x="880.224609"/>
     <use xlink:href="#DejaVuSans-Bold-69" x="963.916016"/>
     <use xlink:href="#DejaVuSans-Bold-73" x="998.193359"/>
     <use xlink:href="#DejaVuSans-Bold-74" x="1057.714844"/>
     <use xlink:href="#DejaVuSans-Bold-6f" x="1105.517578"/>
     <use xlink:href="#DejaVuSans-Bold-72" x="1174.21875"/>
     <use xlink:href="#DejaVuSans-Bold-79" x="1223.535156"/>
    </g>
   </g>
   <g id="legend_1">
    <g id="patch_5">
     <path d="M 273.271 508.24 
L 384.8 508.24 
Q 386.56 508.24 386.56 506.48 
L 386.56 428.8405 
Q 386.56 427.0805 384.8 427.0805 
L 273.271 427.0805 
Q 271.511 427.0805 271.511 428.8405 
L 271.511 506.48 
Q 271.511 508.24 273.271 508.24 
z
" style="fill: #ffffff; opacity: 0.8; stroke: #cccccc; stroke-width: 0.8; stroke-linejoin: miter"/>
    </g>
    <g id="text_42">
     <!-- fuzzer -->
     <g style="fill: #262626" transform="translate(314.3385 437.895)scale(0.096 -0.096)">
      <defs>
       <path id="DejaVuSans-66" d="M 2375 4863 
L 2375 4384 
L 1825 4384 
Q 1516 4384 1395 4259 
Q 1275 4134 1275 3809 
L 1275 3500 
L 2222 3500 
L 2222 3053 
L 1275 3053 
L 1275 0 
L 697 0 
L 697 3053 
L 147 3053 
L 147 3500 
L 697 3500 
L 697 3744 
Q 697 4328 969 4595 
Q 1241 4863 1831 4863 
L 2375 4863 
z
" transform="scale(0.015625)"/>
       <path id="DejaVuSans-7a" d="M 353 3500 
L 3084 3500 
L 3084 2975 
L 922 459 
L 3084 459 
L 3084 0 
L 275 0 
L 275 525 
L 2438 3041 
L 353 3041 
L 353 3500 
z
" transform="scale(0.015625)"/>
      </defs>
      <use xlink:href="#DejaVuSans-66"/>
      <use xlink:href="#DejaVuSans-75" x="35.205078"/>
      <use xlink:href="#DejaVuSans-7a" x="98.583984"/>
      <use xlink:href="#DejaVuSans-7a" x="151.074219"/>
      <use xlink:href="#DejaVuSans-65" x="203.564453"/>
      <use xlink:href="#DejaVuSans-72" x="265.087891"/>
     </g>
    </g>
    <g id="line2d_49">
     <path d="M 275.031 447.898125 
L 283.831 447.898125 
L 292.631 447.898125 
" style="fill: none; stroke: #db5f57; stroke-width: 1.2; stroke-linecap: round"/>
    </g>
    <g id="text_43">
     <!-- aflplusplus-0-exid0 -->
     <g style="fill: #262626" transform="translate(299.671 450.978125)scale(0.088 -0.088)">
      <defs>
       <path id="DejaVuSans-6c" d="M 603 4863 
L 1178 4863 
L 1178 0 
L 603 0 
L 603 4863 
z
" transform="scale(0.015625)"/>
       <path id="DejaVuSans-70" d="M 1159 525 
L 1159 -1331 
L 581 -1331 
L 581 3500 
L 1159 3500 
L 1159 2969 
Q 1341 3281 1617 3432 
Q 1894 3584 2278 3584 
Q 2916 3584 3314 3078 
Q 3713 2572 3713 1747 
Q 3713 922 3314 415 
Q 2916 -91 2278 -91 
Q 1894 -91 1617 61 
Q 1341 213 1159 525 
z
M 3116 1747 
Q 3116 2381 2855 2742 
Q 2594 3103 2138 3103 
Q 1681 3103 1420 2742 
Q 1159 2381 1159 1747 
Q 1159 1113 1420 752 
Q 1681 391 2138 391 
Q 2594 391 2855 752 
Q 3116 1113 3116 1747 
z
" transform="scale(0.015625)"/>
       <path id="DejaVuSans-2d" d="M 313 2009 
L 1997 2009 
L 1997 1497 
L 313 1497 
L 313 2009 
z
" transform="scale(0.015625)"/>
       <path id="DejaVuSans-78" d="M 3513 3500 
L 2247 1797 
L 3578 0 
L 2900 0 
L 1881 1375 
L 863 0 
L 184 0 
L 1544 1831 
L 300 3500 
L 978 3500 
L 1906 2253 
L 2834 3500 
L 3513 3500 
z
" transform="scale(0.015625)"/>
      </defs>
      <use xlink:href="#DejaVuSans-61"/>
      <use xlink:href="#DejaVuSans-66" x="61.279297"/>
      <use xlink:href="#DejaVuSans-6c" x="96.484375"/>
      <use xlink:href="#DejaVuSans-70" x="124.267578"/>
      <use xlink:href="#DejaVuSans-6c" x="187.744141"/>
      <use xlink:href="#DejaVuSans-75" x="215.527344"/>
      <use xlink:href="#DejaVuSans-73" x="278.90625"/>
      <use xlink:href="#DejaVuSans-70" x="331.005859"/>
      <use xlink:href="#DejaVuSans-6c" x="394.482422"/>
      <use xlink:href="#DejaVuSans-75" x="422.265625"/>
      <use xlink:href="#DejaVuSans-73" x="485.644531"/>
      <use xlink:href="#DejaVuSans-2d" x="537.744141"/>
      <use xlink:href="#DejaVuSans-30" x="573.828125"/>
      <use xlink:href="#DejaVuSans-2d" x="637.451172"/>
      <use xlink:href="#DejaVuSans-65" x="673.535156"/>
      <use xlink:href="#DejaVuSans-78" x="733.308594"/>
      <use xlink:href="#DejaVuSans-69" x="792.488281"/>
      <use xlink:href="#DejaVuSans-64" x="820.271484"/>
      <use xlink:href="#DejaVuSans-30" x="883.748047"/>
     </g>
    </g>
    <g id="line2d_50">
     <path d="M 275.031 460.814875 
L 283.831 460.814875 
L 292.631 460.814875 
" style="fill: none; stroke: #b9db57; stroke-width: 1.2; stroke-linecap: round"/>
    </g>
    <g id="text_44">
     <!-- symcc-0-exid0 -->
     <g style="fill: #262626" transform="translate(299.671 463.894875)scale(0.088 -0.088)">
      <defs>
       <path id="DejaVuSans-79" d="M 2059 -325 
Q 1816 -950 1584 -1140 
Q 1353 -1331 966 -1331 
L 506 -1331 
L 506 -850 
L 844 -850 
Q 1081 -850 1212 -737 
Q 1344 -625 1503 -206 
L 1606 56 
L 191 3500 
L 800 3500 
L 1894 763 
L 2988 3500 
L 3597 3500 
L 2059 -325 
z
" transform="scale(0.015625)"/>
       <path id="DejaVuSans-63" d="M 3122 3366 
L 3122 2828 
Q 2878 2963 2633 3030 
Q 2388 3097 2138 3097 
Q 1578 3097 1268 2742 
Q 959 2388 959 1747 
Q 959 1106 1268 751 
Q 1578 397 2138 397 
Q 2388 397 2633 464 
Q 2878 531 3122 666 
L 3122 134 
Q 2881 22 2623 -34 
Q 2366 -91 2075 -91 
Q 1284 -91 818 406 
Q 353 903 353 1747 
Q 353 2603 823 3093 
Q 1294 3584 2113 3584 
Q 2378 3584 2631 3529 
Q 2884 3475 3122 3366 
z
" transform="scale(0.015625)"/>
      </defs>
      <use xlink:href="#DejaVuSans-73"/>
      <use xlink:href="#DejaVuSans-79" x="52.099609"/>
      <use xlink:href="#DejaVuSans-6d" x="111.279297"/>
      <use xlink:href="#DejaVuSans-63" x="208.691406"/>
      <use xlink:href="#DejaVuSans-63" x="263.671875"/>
      <use xlink:href="#DejaVuSans-2d" x="318.652344"/>
      <use xlink:href="#DejaVuSans-30" x="354.736328"/>
      <use xlink:href="#DejaVuSans-2d" x="418.359375"/>
      <use xlink:href="#DejaVuSans-65" x="454.443359"/>
      <use xlink:href="#DejaVuSans-78" x="514.216797"/>
      <use xlink:href="#DejaVuSans-69" x="573.396484"/>
      <use xlink:href="#DejaVuSans-64" x="601.179688"/>
      <use xlink:href="#DejaVuSans-30" x="664.65625"/>
     </g>
    </g>
    <g id="line2d_51">
     <path d="M 275.031 473.731625 
L 283.831 473.731625 
L 292.631 473.731625 
" style="fill: none; stroke: #57db94; stroke-width: 1.2; stroke-linecap: round"/>
    </g>
    <g id="text_45">
     <!-- fairfuzz-0-exid0 -->
     <g style="fill: #262626" transform="translate(299.671 476.811625)scale(0.088 -0.088)">
      <use xlink:href="#DejaVuSans-66"/>
      <use xlink:href="#DejaVuSans-61" x="35.205078"/>
      <use xlink:href="#DejaVuSans-69" x="96.484375"/>
      <use xlink:href="#DejaVuSans-72" x="124.267578"/>
      <use xlink:href="#DejaVuSans-66" x="165.380859"/>
      <use xlink:href="#DejaVuSans-75" x="200.585938"/>
      <use xlink:href="#DejaVuSans-7a" x="263.964844"/>
      <use xlink:href="#DejaVuSans-7a" x="316.455078"/>
      <use xlink:href="#DejaVuSans-2d" x="368.945312"/>
      <use xlink:href="#DejaVuSans-30" x="405.029297"/>
      <use xlink:href="#DejaVuSans-2d" x="468.652344"/>
      <use xlink:href="#DejaVuSans-65" x="504.736328"/>
      <use xlink:href="#DejaVuSans-78" x="564.509766"/>
      <use xlink:href="#DejaVuSans-69" x="623.689453"/>
      <use xlink:href="#DejaVuSans-64" x="651.472656"/>
      <use xlink:href="#DejaVuSans-30" x="714.949219"/>
     </g>
    </g>
    <g id="line2d_52">
     <path d="M 275.031 486.648375 
L 283.831 486.648375 
L 292.631 486.648375 
" style="fill: none; stroke: #5784db; stroke-width: 1.2; stroke-linecap: round"/>
    </g>
    <g id="text_46">
     <!-- mopt-0-exid0 -->
     <g style="fill: #262626" transform="translate(299.671 489.728375)scale(0.088 -0.088)">
      <use xlink:href="#DejaVuSans-6d"/>
      <use xlink:href="#DejaVuSans-6f" x="97.412109"/>
      <use xlink:href="#DejaVuSans-70" x="158.59375"/>
      <use xlink:href="#DejaVuSans-74" x="222.070312"/>
      <use xlink:href="#DejaVuSans-2d" x="261.279297"/>
      <use xlink:href="#DejaVuSans-30" x="297.363281"/>
      <use xlink:href="#DejaVuSans-2d" x="360.986328"/>
      <use xlink:href="#DejaVuSans-65" x="397.070312"/>
      <use xlink:href="#DejaVuSans-78" x="456.84375"/>
      <use xlink:href="#DejaVuSans-69" x="516.023438"/>
      <use xlink:href="#DejaVuSans-64" x="543.806641"/>
      <use xlink:href="#DejaVuSans-30" x="607.283203"/>
     </g>
    </g>
    <g id="line2d_53">
     <path d="M 275.031 499.565125 
L 283.831 499.565125 
L 292.631 499.565125 
" style="fill: none; stroke: #c957db; stroke-width: 1.2; stroke-linecap: round"/>
    </g>
    <g id="text_47">
     <!-- fuzzer_global -->
     <g style="fill: #262626" transform="translate(299.671 502.645125)scale(0.088 -0.088)">
      <defs>
       <path id="DejaVuSans-5f" d="M 3263 -1063 
L 3263 -1509 
L -63 -1509 
L -63 -1063 
L 3263 -1063 
z
" transform="scale(0.015625)"/>
       <path id="DejaVuSans-62" d="M 3116 1747 
Q 3116 2381 2855 2742 
Q 2594 3103 2138 3103 
Q 1681 3103 1420 2742 
Q 1159 2381 1159 1747 
Q 1159 1113 1420 752 
Q 1681 391 2138 391 
Q 2594 391 2855 752 
Q 3116 1113 3116 1747 
z
M 1159 2969 
Q 1341 3281 1617 3432 
Q 1894 3584 2278 3584 
Q 2916 3584 3314 3078 
Q 3713 2572 3713 1747 
Q 3713 922 3314 415 
Q 2916 -91 2278 -91 
Q 1894 -91 1617 61 
Q 1341 213 1159 525 
L 1159 0 
L 581 0 
L 581 4863 
L 1159 4863 
L 1159 2969 
z
" transform="scale(0.015625)"/>
      </defs>
      <use xlink:href="#DejaVuSans-66"/>
      <use xlink:href="#DejaVuSans-75" x="35.205078"/>
      <use xlink:href="#DejaVuSans-7a" x="98.583984"/>
      <use xlink:href="#DejaVuSans-7a" x="151.074219"/>
      <use xlink:href="#DejaVuSans-65" x="203.564453"/>
      <use xlink:href="#DejaVuSans-72" x="265.087891"/>
      <use xlink:href="#DejaVuSans-5f" x="306.201172"/>
      <use xlink:href="#DejaVuSans-67" x="356.201172"/>
      <use xlink:href="#DejaVuSans-6c" x="419.677734"/>
      <use xlink:href="#DejaVuSans-6f" x="447.460938"/>
      <use xlink:href="#DejaVuSans-62" x="508.642578"/>
      <use xlink:href="#DejaVuSans-61" x="572.119141"/>
      <use xlink:href="#DejaVuSans-6c" x="633.398438"/>
     </g>
    </g>
   </g>
  </g>
 </g>
 <defs>
  <clipPath id="p2a26ff92e1">
   <rect x="54.3" y="69.12" width="336.66" height="443.52"/>
  </clipPath>
 </defs>
</svg>
