<?xml version="1.0" encoding="utf-8" standalone="no"?>
<!DOCTYPE svg PUBLIC "-//W3C//DTD SVG 1.1//EN"
  "http://www.w3.org/Graphics/SVG/1.1/DTD/svg11.dtd">
<svg xmlns:xlink="http://www.w3.org/1999/xlink" width="836.14785pt" height="679.68pt" viewBox="0 0 836.14785 679.68" xmlns="http://www.w3.org/2000/svg" version="1.1">
 <metadata>
  <rdf:RDF xmlns:dc="http://purl.org/dc/elements/1.1/" xmlns:cc="http://creativecommons.org/ns#" xmlns:rdf="http://www.w3.org/1999/02/22-rdf-syntax-ns#">
   <cc:Work>
    <dc:type rdf:resource="http://purl.org/dc/dcmitype/StillImage"/>
    <dc:date>2022-09-15T10:45:19.654920</dc:date>
    <dc:format>image/svg+xml</dc:format>
    <dc:creator>
     <cc:Agent>
      <dc:title>Matplotlib v3.5.3, https://matplotlib.org/</dc:title>
     </cc:Agent>
    </dc:creator>
   </cc:Work>
  </rdf:RDF>
 </metadata>
 <defs>
  <style type="text/css">*{stroke-linejoin: round; stroke-linecap: butt}</style>
 </defs>
 <g id="figure_1">
  <g id="patch_1">
   <path d="M 0 679.68 
L 836.14785 679.68 
L 836.14785 0 
L 0 0 
z
" style="fill: #ffffff"/>
  </g>
  <g id="axes_1">
   <g id="patch_2">
    <path d="M 367.685442 291.700339 
C 319.029091 250.872814 262.220936 223.794089 209.772313 216.427941 
C 157.32369 209.061793 113.516797 222.009634 87.999593 252.419853 
C 62.482389 282.830072 57.338242 328.219809 73.70009 378.592502 
C 90.061937 428.965194 126.593908 480.208135 175.250258 521.035661 
C 223.906609 561.863186 280.714764 588.941911 333.163387 596.308059 
C 385.61201 603.674207 429.418903 590.726366 454.936107 560.316147 
C 480.453311 529.905928 485.597458 484.516191 469.23561 434.143498 
C 452.873763 383.770806 416.341792 332.527865 367.685442 291.700339 
z
" clip-path="url(#p4756e5671a)" style="fill: #5cc062; fill-opacity: 0.5; stroke: #5cc062; stroke-opacity: 0.5; stroke-width: 0.8; stroke-linejoin: miter"/>
   </g>
   <g id="patch_3">
    <path d="M 434.213442 225.172339 
C 385.557091 184.344814 328.748936 157.266089 276.300313 149.899941 
C 223.85169 142.533793 180.044797 155.481634 154.527593 185.891853 
C 129.010389 216.302072 123.866242 261.691809 140.22809 312.064502 
C 156.589937 362.437194 193.121908 413.680135 241.778258 454.507661 
C 290.434609 495.335186 347.242764 522.413911 399.691387 529.780059 
C 452.14001 537.146207 495.946903 524.198366 521.464107 493.788147 
C 546.981311 463.377928 552.125458 417.988191 535.76361 367.615498 
C 519.401763 317.242806 482.869792 265.999865 434.213442 225.172339 
z
" clip-path="url(#p4756e5671a)" style="fill: #5a9bd4; fill-opacity: 0.5; stroke: #5a9bd4; stroke-opacity: 0.5; stroke-width: 0.8; stroke-linejoin: miter"/>
   </g>
   <g id="patch_4">
    <path d="M 496.749762 454.507661 
C 545.406112 413.680135 581.938083 362.437194 598.29993 312.064502 
C 614.661778 261.691809 609.517631 216.302072 584.000427 185.891853 
C 558.483223 155.481634 514.67633 142.533793 462.227707 149.899941 
C 409.779084 157.266089 352.970929 184.344814 304.314578 225.172339 
C 255.658228 265.999865 219.126257 317.242806 202.76441 367.615498 
C 186.402562 417.988191 191.546709 463.377928 217.063913 493.788147 
C 242.581117 524.198366 286.38801 537.146207 338.836633 529.780059 
C 391.285256 522.413911 448.093411 495.335186 496.749762 454.507661 
z
" clip-path="url(#p4756e5671a)" style="fill: #f6ec56; fill-opacity: 0.6; stroke: #f6ec56; stroke-opacity: 0.6; stroke-width: 0.8; stroke-linejoin: miter"/>
   </g>
   <g id="patch_5">
    <path d="M 563.277762 521.035661 
C 611.934112 480.208135 648.466083 428.965194 664.82793 378.592502 
C 681.189778 328.219809 676.045631 282.830072 650.528427 252.419853 
C 625.011223 222.009634 581.20433 209.061793 528.755707 216.427941 
C 476.307084 223.794089 419.498929 250.872814 370.842578 291.700339 
C 322.186228 332.527865 285.654257 383.770806 269.29241 434.143498 
C 252.930562 484.516191 258.074709 529.905928 283.591913 560.316147 
C 309.109117 590.726366 352.91601 603.674207 405.364633 596.308059 
C 457.813256 588.941911 514.621411 561.863186 563.277762 521.035661 
z
" clip-path="url(#p4756e5671a)" style="fill: #f15a60; fill-opacity: 0.4; stroke: #f15a60; stroke-opacity: 0.4; stroke-width: 0.8; stroke-linejoin: miter"/>
   </g>
   <g id="text_1">
    <!-- 525(13.9%) -->
    <g transform="translate(563.047381 396.925525)scale(0.14 -0.14)">
     <defs>
      <path id="DejaVuSans-35" d="M 691 4666 
L 3169 4666 
L 3169 4134 
L 1269 4134 
L 1269 2991 
Q 1406 3038 1543 3061 
Q 1681 3084 1819 3084 
Q 2600 3084 3056 2656 
Q 3513 2228 3513 1497 
Q 3513 744 3044 326 
Q 2575 -91 1722 -91 
Q 1428 -91 1123 -41 
Q 819 9 494 109 
L 494 744 
Q 775 591 1075 516 
Q 1375 441 1709 441 
Q 2250 441 2565 725 
Q 2881 1009 2881 1497 
Q 2881 1984 2565 2268 
Q 2250 2553 1709 2553 
Q 1456 2553 1204 2497 
Q 953 2441 691 2322 
L 691 4666 
z
" transform="scale(0.015625)"/>
      <path id="DejaVuSans-32" d="M 1228 531 
L 3431 531 
L 3431 0 
L 469 0 
L 469 531 
Q 828 903 1448 1529 
Q 2069 2156 2228 2338 
Q 2531 2678 2651 2914 
Q 2772 3150 2772 3378 
Q 2772 3750 2511 3984 
Q 2250 4219 1831 4219 
Q 1534 4219 1204 4116 
Q 875 4013 500 3803 
L 500 4441 
Q 881 4594 1212 4672 
Q 1544 4750 1819 4750 
Q 2544 4750 2975 4387 
Q 3406 4025 3406 3419 
Q 3406 3131 3298 2873 
Q 3191 2616 2906 2266 
Q 2828 2175 2409 1742 
Q 1991 1309 1228 531 
z
" transform="scale(0.015625)"/>
      <path id="DejaVuSans-28" d="M 1984 4856 
Q 1566 4138 1362 3434 
Q 1159 2731 1159 2009 
Q 1159 1288 1364 580 
Q 1569 -128 1984 -844 
L 1484 -844 
Q 1016 -109 783 600 
Q 550 1309 550 2009 
Q 550 2706 781 3412 
Q 1013 4119 1484 4856 
L 1984 4856 
z
" transform="scale(0.015625)"/>
      <path id="DejaVuSans-31" d="M 794 531 
L 1825 531 
L 1825 4091 
L 703 3866 
L 703 4441 
L 1819 4666 
L 2450 4666 
L 2450 531 
L 3481 531 
L 3481 0 
L 794 0 
L 794 531 
z
" transform="scale(0.015625)"/>
      <path id="DejaVuSans-33" d="M 2597 2516 
Q 3050 2419 3304 2112 
Q 3559 1806 3559 1356 
Q 3559 666 3084 287 
Q 2609 -91 1734 -91 
Q 1441 -91 1130 -33 
Q 819 25 488 141 
L 488 750 
Q 750 597 1062 519 
Q 1375 441 1716 441 
Q 2309 441 2620 675 
Q 2931 909 2931 1356 
Q 2931 1769 2642 2001 
Q 2353 2234 1838 2234 
L 1294 2234 
L 1294 2753 
L 1863 2753 
Q 2328 2753 2575 2939 
Q 2822 3125 2822 3475 
Q 2822 3834 2567 4026 
Q 2313 4219 1838 4219 
Q 1578 4219 1281 4162 
Q 984 4106 628 3988 
L 628 4550 
Q 988 4650 1302 4700 
Q 1616 4750 1894 4750 
Q 2613 4750 3031 4423 
Q 3450 4097 3450 3541 
Q 3450 3153 3228 2886 
Q 3006 2619 2597 2516 
z
" transform="scale(0.015625)"/>
      <path id="DejaVuSans-2e" d="M 684 794 
L 1344 794 
L 1344 0 
L 684 0 
L 684 794 
z
" transform="scale(0.015625)"/>
      <path id="DejaVuSans-39" d="M 703 97 
L 703 672 
Q 941 559 1184 500 
Q 1428 441 1663 441 
Q 2288 441 2617 861 
Q 2947 1281 2994 2138 
Q 2813 1869 2534 1725 
Q 2256 1581 1919 1581 
Q 1219 1581 811 2004 
Q 403 2428 403 3163 
Q 403 3881 828 4315 
Q 1253 4750 1959 4750 
Q 2769 4750 3195 4129 
Q 3622 3509 3622 2328 
Q 3622 1225 3098 567 
Q 2575 -91 1691 -91 
Q 1453 -91 1209 -44 
Q 966 3 703 97 
z
M 1959 2075 
Q 2384 2075 2632 2365 
Q 2881 2656 2881 3163 
Q 2881 3666 2632 3958 
Q 2384 4250 1959 4250 
Q 1534 4250 1286 3958 
Q 1038 3666 1038 3163 
Q 1038 2656 1286 2365 
Q 1534 2075 1959 2075 
z
" transform="scale(0.015625)"/>
      <path id="DejaVuSans-25" d="M 4653 2053 
Q 4381 2053 4226 1822 
Q 4072 1591 4072 1178 
Q 4072 772 4226 539 
Q 4381 306 4653 306 
Q 4919 306 5073 539 
Q 5228 772 5228 1178 
Q 5228 1588 5073 1820 
Q 4919 2053 4653 2053 
z
M 4653 2450 
Q 5147 2450 5437 2106 
Q 5728 1763 5728 1178 
Q 5728 594 5436 251 
Q 5144 -91 4653 -91 
Q 4153 -91 3862 251 
Q 3572 594 3572 1178 
Q 3572 1766 3864 2108 
Q 4156 2450 4653 2450 
z
M 1428 4353 
Q 1159 4353 1004 4120 
Q 850 3888 850 3481 
Q 850 3069 1003 2837 
Q 1156 2606 1428 2606 
Q 1700 2606 1854 2837 
Q 2009 3069 2009 3481 
Q 2009 3884 1853 4118 
Q 1697 4353 1428 4353 
z
M 4250 4750 
L 4750 4750 
L 1831 -91 
L 1331 -91 
L 4250 4750 
z
M 1428 4750 
Q 1922 4750 2215 4408 
Q 2509 4066 2509 3481 
Q 2509 2891 2217 2550 
Q 1925 2209 1428 2209 
Q 931 2209 642 2551 
Q 353 2894 353 3481 
Q 353 4063 643 4406 
Q 934 4750 1428 4750 
z
" transform="scale(0.015625)"/>
      <path id="DejaVuSans-29" d="M 513 4856 
L 1013 4856 
Q 1481 4119 1714 3412 
Q 1947 2706 1947 2009 
Q 1947 1309 1714 600 
Q 1481 -109 1013 -844 
L 513 -844 
Q 928 -128 1133 580 
Q 1338 1288 1338 2009 
Q 1338 2731 1133 3434 
Q 928 4138 513 4856 
z
" transform="scale(0.015625)"/>
     </defs>
     <use xlink:href="#DejaVuSans-35"/>
     <use xlink:href="#DejaVuSans-32" x="63.623047"/>
     <use xlink:href="#DejaVuSans-35" x="127.246094"/>
     <use xlink:href="#DejaVuSans-28" x="190.869141"/>
     <use xlink:href="#DejaVuSans-31" x="229.882812"/>
     <use xlink:href="#DejaVuSans-33" x="293.505859"/>
     <use xlink:href="#DejaVuSans-2e" x="357.128906"/>
     <use xlink:href="#DejaVuSans-39" x="388.916016"/>
     <use xlink:href="#DejaVuSans-25" x="452.539062"/>
     <use xlink:href="#DejaVuSans-29" x="547.558594"/>
    </g>
   </g>
   <g id="text_2">
    <!-- 519(13.7%) -->
    <g transform="translate(449.949781 197.341525)scale(0.14 -0.14)">
     <defs>
      <path id="DejaVuSans-37" d="M 525 4666 
L 3525 4666 
L 3525 4397 
L 1831 0 
L 1172 0 
L 2766 4134 
L 525 4134 
L 525 4666 
z
" transform="scale(0.015625)"/>
     </defs>
     <use xlink:href="#DejaVuSans-35"/>
     <use xlink:href="#DejaVuSans-31" x="63.623047"/>
     <use xlink:href="#DejaVuSans-39" x="127.246094"/>
     <use xlink:href="#DejaVuSans-28" x="190.869141"/>
     <use xlink:href="#DejaVuSans-31" x="229.882812"/>
     <use xlink:href="#DejaVuSans-33" x="293.505859"/>
     <use xlink:href="#DejaVuSans-2e" x="357.128906"/>
     <use xlink:href="#DejaVuSans-37" x="388.916016"/>
     <use xlink:href="#DejaVuSans-25" x="452.539062"/>
     <use xlink:href="#DejaVuSans-29" x="547.558594"/>
    </g>
   </g>
   <g id="text_3">
    <!-- 183(4.8%) -->
    <g transform="translate(514.278731 283.827925)scale(0.14 -0.14)">
     <defs>
      <path id="DejaVuSans-38" d="M 2034 2216 
Q 1584 2216 1326 1975 
Q 1069 1734 1069 1313 
Q 1069 891 1326 650 
Q 1584 409 2034 409 
Q 2484 409 2743 651 
Q 3003 894 3003 1313 
Q 3003 1734 2745 1975 
Q 2488 2216 2034 2216 
z
M 1403 2484 
Q 997 2584 770 2862 
Q 544 3141 544 3541 
Q 544 4100 942 4425 
Q 1341 4750 2034 4750 
Q 2731 4750 3128 4425 
Q 3525 4100 3525 3541 
Q 3525 3141 3298 2862 
Q 3072 2584 2669 2484 
Q 3125 2378 3379 2068 
Q 3634 1759 3634 1313 
Q 3634 634 3220 271 
Q 2806 -91 2034 -91 
Q 1263 -91 848 271 
Q 434 634 434 1313 
Q 434 1759 690 2068 
Q 947 2378 1403 2484 
z
M 1172 3481 
Q 1172 3119 1398 2916 
Q 1625 2713 2034 2713 
Q 2441 2713 2670 2916 
Q 2900 3119 2900 3481 
Q 2900 3844 2670 4047 
Q 2441 4250 2034 4250 
Q 1625 4250 1398 4047 
Q 1172 3844 1172 3481 
z
" transform="scale(0.015625)"/>
      <path id="DejaVuSans-34" d="M 2419 4116 
L 825 1625 
L 2419 1625 
L 2419 4116 
z
M 2253 4666 
L 3047 4666 
L 3047 1625 
L 3713 1625 
L 3713 1100 
L 3047 1100 
L 3047 0 
L 2419 0 
L 2419 1100 
L 313 1100 
L 313 1709 
L 2253 4666 
z
" transform="scale(0.015625)"/>
     </defs>
     <use xlink:href="#DejaVuSans-31"/>
     <use xlink:href="#DejaVuSans-38" x="63.623047"/>
     <use xlink:href="#DejaVuSans-33" x="127.246094"/>
     <use xlink:href="#DejaVuSans-28" x="190.869141"/>
     <use xlink:href="#DejaVuSans-34" x="229.882812"/>
     <use xlink:href="#DejaVuSans-2e" x="293.505859"/>
     <use xlink:href="#DejaVuSans-38" x="325.292969"/>
     <use xlink:href="#DejaVuSans-25" x="388.916016"/>
     <use xlink:href="#DejaVuSans-29" x="483.935547"/>
    </g>
   </g>
   <g id="text_4">
    <!-- 538(14.3%) -->
    <g transform="translate(210.448981 197.341525)scale(0.14 -0.14)">
     <use xlink:href="#DejaVuSans-35"/>
     <use xlink:href="#DejaVuSans-33" x="63.623047"/>
     <use xlink:href="#DejaVuSans-38" x="127.246094"/>
     <use xlink:href="#DejaVuSans-28" x="190.869141"/>
     <use xlink:href="#DejaVuSans-31" x="229.882812"/>
     <use xlink:href="#DejaVuSans-34" x="293.505859"/>
     <use xlink:href="#DejaVuSans-2e" x="357.128906"/>
     <use xlink:href="#DejaVuSans-33" x="388.916016"/>
     <use xlink:href="#DejaVuSans-25" x="452.539062"/>
     <use xlink:href="#DejaVuSans-29" x="547.558594"/>
    </g>
   </g>
   <g id="text_5">
    <!-- 127(3.4%) -->
    <g transform="translate(474.361931 476.759125)scale(0.14 -0.14)">
     <use xlink:href="#DejaVuSans-31"/>
     <use xlink:href="#DejaVuSans-32" x="63.623047"/>
     <use xlink:href="#DejaVuSans-37" x="127.246094"/>
     <use xlink:href="#DejaVuSans-28" x="190.869141"/>
     <use xlink:href="#DejaVuSans-33" x="229.882812"/>
     <use xlink:href="#DejaVuSans-2e" x="293.505859"/>
     <use xlink:href="#DejaVuSans-34" x="325.292969"/>
     <use xlink:href="#DejaVuSans-25" x="388.916016"/>
     <use xlink:href="#DejaVuSans-29" x="483.935547"/>
    </g>
   </g>
   <g id="text_6">
    <!-- 152(4.0%) -->
    <g transform="translate(334.653131 237.258325)scale(0.14 -0.14)">
     <defs>
      <path id="DejaVuSans-30" d="M 2034 4250 
Q 1547 4250 1301 3770 
Q 1056 3291 1056 2328 
Q 1056 1369 1301 889 
Q 1547 409 2034 409 
Q 2525 409 2770 889 
Q 3016 1369 3016 2328 
Q 3016 3291 2770 3770 
Q 2525 4250 2034 4250 
z
M 2034 4750 
Q 2819 4750 3233 4129 
Q 3647 3509 3647 2328 
Q 3647 1150 3233 529 
Q 2819 -91 2034 -91 
Q 1250 -91 836 529 
Q 422 1150 422 2328 
Q 422 3509 836 4129 
Q 1250 4750 2034 4750 
z
" transform="scale(0.015625)"/>
     </defs>
     <use xlink:href="#DejaVuSans-31"/>
     <use xlink:href="#DejaVuSans-35" x="63.623047"/>
     <use xlink:href="#DejaVuSans-32" x="127.246094"/>
     <use xlink:href="#DejaVuSans-28" x="190.869141"/>
     <use xlink:href="#DejaVuSans-34" x="229.882812"/>
     <use xlink:href="#DejaVuSans-2e" x="293.505859"/>
     <use xlink:href="#DejaVuSans-30" x="325.292969"/>
     <use xlink:href="#DejaVuSans-25" x="388.916016"/>
     <use xlink:href="#DejaVuSans-29" x="483.935547"/>
    </g>
   </g>
   <g id="text_7">
    <!-- 213(5.6%) -->
    <g transform="translate(434.445131 343.703125)scale(0.14 -0.14)">
     <defs>
      <path id="DejaVuSans-36" d="M 2113 2584 
Q 1688 2584 1439 2293 
Q 1191 2003 1191 1497 
Q 1191 994 1439 701 
Q 1688 409 2113 409 
Q 2538 409 2786 701 
Q 3034 994 3034 1497 
Q 3034 2003 2786 2293 
Q 2538 2584 2113 2584 
z
M 3366 4563 
L 3366 3988 
Q 3128 4100 2886 4159 
Q 2644 4219 2406 4219 
Q 1781 4219 1451 3797 
Q 1122 3375 1075 2522 
Q 1259 2794 1537 2939 
Q 1816 3084 2150 3084 
Q 2853 3084 3261 2657 
Q 3669 2231 3669 1497 
Q 3669 778 3244 343 
Q 2819 -91 2113 -91 
Q 1303 -91 875 529 
Q 447 1150 447 2328 
Q 447 3434 972 4092 
Q 1497 4750 2381 4750 
Q 2619 4750 2861 4703 
Q 3103 4656 3366 4563 
z
" transform="scale(0.015625)"/>
     </defs>
     <use xlink:href="#DejaVuSans-32"/>
     <use xlink:href="#DejaVuSans-31" x="63.623047"/>
     <use xlink:href="#DejaVuSans-33" x="127.246094"/>
     <use xlink:href="#DejaVuSans-28" x="190.869141"/>
     <use xlink:href="#DejaVuSans-35" x="229.882812"/>
     <use xlink:href="#DejaVuSans-2e" x="293.505859"/>
     <use xlink:href="#DejaVuSans-36" x="325.292969"/>
     <use xlink:href="#DejaVuSans-25" x="388.916016"/>
     <use xlink:href="#DejaVuSans-29" x="483.935547"/>
    </g>
   </g>
   <g id="text_8">
    <!-- 526(13.9%) -->
    <g transform="translate(90.698581 396.925525)scale(0.14 -0.14)">
     <use xlink:href="#DejaVuSans-35"/>
     <use xlink:href="#DejaVuSans-32" x="63.623047"/>
     <use xlink:href="#DejaVuSans-36" x="127.246094"/>
     <use xlink:href="#DejaVuSans-28" x="190.869141"/>
     <use xlink:href="#DejaVuSans-31" x="229.882812"/>
     <use xlink:href="#DejaVuSans-33" x="293.505859"/>
     <use xlink:href="#DejaVuSans-2e" x="357.128906"/>
     <use xlink:href="#DejaVuSans-39" x="388.916016"/>
     <use xlink:href="#DejaVuSans-25" x="452.539062"/>
     <use xlink:href="#DejaVuSans-29" x="547.558594"/>
    </g>
   </g>
   <g id="text_9">
    <!-- 121(3.2%) -->
    <g transform="translate(334.653131 563.245525)scale(0.14 -0.14)">
     <use xlink:href="#DejaVuSans-31"/>
     <use xlink:href="#DejaVuSans-32" x="63.623047"/>
     <use xlink:href="#DejaVuSans-31" x="127.246094"/>
     <use xlink:href="#DejaVuSans-28" x="190.869141"/>
     <use xlink:href="#DejaVuSans-33" x="229.882812"/>
     <use xlink:href="#DejaVuSans-2e" x="293.505859"/>
     <use xlink:href="#DejaVuSans-32" x="325.292969"/>
     <use xlink:href="#DejaVuSans-25" x="388.916016"/>
     <use xlink:href="#DejaVuSans-29" x="483.935547"/>
    </g>
   </g>
   <g id="text_10">
    <!-- 131(3.5%) -->
    <g transform="translate(194.944331 476.759125)scale(0.14 -0.14)">
     <use xlink:href="#DejaVuSans-31"/>
     <use xlink:href="#DejaVuSans-33" x="63.623047"/>
     <use xlink:href="#DejaVuSans-31" x="127.246094"/>
     <use xlink:href="#DejaVuSans-28" x="190.869141"/>
     <use xlink:href="#DejaVuSans-33" x="229.882812"/>
     <use xlink:href="#DejaVuSans-2e" x="293.505859"/>
     <use xlink:href="#DejaVuSans-35" x="325.292969"/>
     <use xlink:href="#DejaVuSans-25" x="388.916016"/>
     <use xlink:href="#DejaVuSans-29" x="483.935547"/>
    </g>
   </g>
   <g id="text_11">
    <!-- 105(2.8%) -->
    <g transform="translate(261.472331 516.675925)scale(0.14 -0.14)">
     <use xlink:href="#DejaVuSans-31"/>
     <use xlink:href="#DejaVuSans-30" x="63.623047"/>
     <use xlink:href="#DejaVuSans-35" x="127.246094"/>
     <use xlink:href="#DejaVuSans-28" x="190.869141"/>
     <use xlink:href="#DejaVuSans-32" x="229.882812"/>
     <use xlink:href="#DejaVuSans-2e" x="293.505859"/>
     <use xlink:href="#DejaVuSans-38" x="325.292969"/>
     <use xlink:href="#DejaVuSans-25" x="388.916016"/>
     <use xlink:href="#DejaVuSans-29" x="483.935547"/>
    </g>
   </g>
   <g id="text_12">
    <!-- 168(4.5%) -->
    <g transform="translate(155.027531 283.827925)scale(0.14 -0.14)">
     <use xlink:href="#DejaVuSans-31"/>
     <use xlink:href="#DejaVuSans-36" x="63.623047"/>
     <use xlink:href="#DejaVuSans-38" x="127.246094"/>
     <use xlink:href="#DejaVuSans-28" x="190.869141"/>
     <use xlink:href="#DejaVuSans-34" x="229.882812"/>
     <use xlink:href="#DejaVuSans-2e" x="293.505859"/>
     <use xlink:href="#DejaVuSans-35" x="325.292969"/>
     <use xlink:href="#DejaVuSans-25" x="388.916016"/>
     <use xlink:href="#DejaVuSans-29" x="483.935547"/>
    </g>
   </g>
   <g id="text_13">
    <!-- 81(2.1%) -->
    <g transform="translate(412.287681 516.675925)scale(0.14 -0.14)">
     <use xlink:href="#DejaVuSans-38"/>
     <use xlink:href="#DejaVuSans-31" x="63.623047"/>
     <use xlink:href="#DejaVuSans-28" x="127.246094"/>
     <use xlink:href="#DejaVuSans-32" x="166.259766"/>
     <use xlink:href="#DejaVuSans-2e" x="229.882812"/>
     <use xlink:href="#DejaVuSans-31" x="261.669922"/>
     <use xlink:href="#DejaVuSans-25" x="325.292969"/>
     <use xlink:href="#DejaVuSans-29" x="420.3125"/>
    </g>
   </g>
   <g id="text_14">
    <!-- 84(2.2%) -->
    <g transform="translate(239.314881 343.703125)scale(0.14 -0.14)">
     <use xlink:href="#DejaVuSans-38"/>
     <use xlink:href="#DejaVuSans-34" x="63.623047"/>
     <use xlink:href="#DejaVuSans-28" x="127.246094"/>
     <use xlink:href="#DejaVuSans-32" x="166.259766"/>
     <use xlink:href="#DejaVuSans-2e" x="229.882812"/>
     <use xlink:href="#DejaVuSans-32" x="261.669922"/>
     <use xlink:href="#DejaVuSans-25" x="325.292969"/>
     <use xlink:href="#DejaVuSans-29" x="420.3125"/>
    </g>
   </g>
   <g id="text_15">
    <!-- 302(8.0%) -->
    <g transform="translate(334.653131 423.536725)scale(0.14 -0.14)">
     <use xlink:href="#DejaVuSans-33"/>
     <use xlink:href="#DejaVuSans-30" x="63.623047"/>
     <use xlink:href="#DejaVuSans-32" x="127.246094"/>
     <use xlink:href="#DejaVuSans-28" x="190.869141"/>
     <use xlink:href="#DejaVuSans-38" x="229.882812"/>
     <use xlink:href="#DejaVuSans-2e" x="293.505859"/>
     <use xlink:href="#DejaVuSans-30" x="325.292969"/>
     <use xlink:href="#DejaVuSans-25" x="388.916016"/>
     <use xlink:href="#DejaVuSans-29" x="483.935547"/>
    </g>
   </g>
   <g id="text_16">
    <!-- fairfuzz-0-exid23 -->
    <g transform="translate(7.2 556.592725)scale(0.14 -0.14)">
     <defs>
      <path id="DejaVuSans-66" d="M 2375 4863 
L 2375 4384 
L 1825 4384 
Q 1516 4384 1395 4259 
Q 1275 4134 1275 3809 
L 1275 3500 
L 2222 3500 
L 2222 3053 
L 1275 3053 
L 1275 0 
L 697 0 
L 697 3053 
L 147 3053 
L 147 3500 
L 697 3500 
L 697 3744 
Q 697 4328 969 4595 
Q 1241 4863 1831 4863 
L 2375 4863 
z
" transform="scale(0.015625)"/>
      <path id="DejaVuSans-61" d="M 2194 1759 
Q 1497 1759 1228 1600 
Q 959 1441 959 1056 
Q 959 750 1161 570 
Q 1363 391 1709 391 
Q 2188 391 2477 730 
Q 2766 1069 2766 1631 
L 2766 1759 
L 2194 1759 
z
M 3341 1997 
L 3341 0 
L 2766 0 
L 2766 531 
Q 2569 213 2275 61 
Q 1981 -91 1556 -91 
Q 1019 -91 701 211 
Q 384 513 384 1019 
Q 384 1609 779 1909 
Q 1175 2209 1959 2209 
L 2766 2209 
L 2766 2266 
Q 2766 2663 2505 2880 
Q 2244 3097 1772 3097 
Q 1472 3097 1187 3025 
Q 903 2953 641 2809 
L 641 3341 
Q 956 3463 1253 3523 
Q 1550 3584 1831 3584 
Q 2591 3584 2966 3190 
Q 3341 2797 3341 1997 
z
" transform="scale(0.015625)"/>
      <path id="DejaVuSans-69" d="M 603 3500 
L 1178 3500 
L 1178 0 
L 603 0 
L 603 3500 
z
M 603 4863 
L 1178 4863 
L 1178 4134 
L 603 4134 
L 603 4863 
z
" transform="scale(0.015625)"/>
      <path id="DejaVuSans-72" d="M 2631 2963 
Q 2534 3019 2420 3045 
Q 2306 3072 2169 3072 
Q 1681 3072 1420 2755 
Q 1159 2438 1159 1844 
L 1159 0 
L 581 0 
L 581 3500 
L 1159 3500 
L 1159 2956 
Q 1341 3275 1631 3429 
Q 1922 3584 2338 3584 
Q 2397 3584 2469 3576 
Q 2541 3569 2628 3553 
L 2631 2963 
z
" transform="scale(0.015625)"/>
      <path id="DejaVuSans-75" d="M 544 1381 
L 544 3500 
L 1119 3500 
L 1119 1403 
Q 1119 906 1312 657 
Q 1506 409 1894 409 
Q 2359 409 2629 706 
Q 2900 1003 2900 1516 
L 2900 3500 
L 3475 3500 
L 3475 0 
L 2900 0 
L 2900 538 
Q 2691 219 2414 64 
Q 2138 -91 1772 -91 
Q 1169 -91 856 284 
Q 544 659 544 1381 
z
M 1991 3584 
L 1991 3584 
z
" transform="scale(0.015625)"/>
      <path id="DejaVuSans-7a" d="M 353 3500 
L 3084 3500 
L 3084 2975 
L 922 459 
L 3084 459 
L 3084 0 
L 275 0 
L 275 525 
L 2438 3041 
L 353 3041 
L 353 3500 
z
" transform="scale(0.015625)"/>
      <path id="DejaVuSans-2d" d="M 313 2009 
L 1997 2009 
L 1997 1497 
L 313 1497 
L 313 2009 
z
" transform="scale(0.015625)"/>
      <path id="DejaVuSans-65" d="M 3597 1894 
L 3597 1613 
L 953 1613 
Q 991 1019 1311 708 
Q 1631 397 2203 397 
Q 2534 397 2845 478 
Q 3156 559 3463 722 
L 3463 178 
Q 3153 47 2828 -22 
Q 2503 -91 2169 -91 
Q 1331 -91 842 396 
Q 353 884 353 1716 
Q 353 2575 817 3079 
Q 1281 3584 2069 3584 
Q 2775 3584 3186 3129 
Q 3597 2675 3597 1894 
z
M 3022 2063 
Q 3016 2534 2758 2815 
Q 2500 3097 2075 3097 
Q 1594 3097 1305 2825 
Q 1016 2553 972 2059 
L 3022 2063 
z
" transform="scale(0.015625)"/>
      <path id="DejaVuSans-78" d="M 3513 3500 
L 2247 1797 
L 3578 0 
L 2900 0 
L 1881 1375 
L 863 0 
L 184 0 
L 1544 1831 
L 300 3500 
L 978 3500 
L 1906 2253 
L 2834 3500 
L 3513 3500 
z
" transform="scale(0.015625)"/>
      <path id="DejaVuSans-64" d="M 2906 2969 
L 2906 4863 
L 3481 4863 
L 3481 0 
L 2906 0 
L 2906 525 
Q 2725 213 2448 61 
Q 2172 -91 1784 -91 
Q 1150 -91 751 415 
Q 353 922 353 1747 
Q 353 2572 751 3078 
Q 1150 3584 1784 3584 
Q 2172 3584 2448 3432 
Q 2725 3281 2906 2969 
z
M 947 1747 
Q 947 1113 1208 752 
Q 1469 391 1925 391 
Q 2381 391 2643 752 
Q 2906 1113 2906 1747 
Q 2906 2381 2643 2742 
Q 2381 3103 1925 3103 
Q 1469 3103 1208 2742 
Q 947 2381 947 1747 
z
" transform="scale(0.015625)"/>
     </defs>
     <use xlink:href="#DejaVuSans-66"/>
     <use xlink:href="#DejaVuSans-61" x="35.205078"/>
     <use xlink:href="#DejaVuSans-69" x="96.484375"/>
     <use xlink:href="#DejaVuSans-72" x="124.267578"/>
     <use xlink:href="#DejaVuSans-66" x="165.380859"/>
     <use xlink:href="#DejaVuSans-75" x="200.585938"/>
     <use xlink:href="#DejaVuSans-7a" x="263.964844"/>
     <use xlink:href="#DejaVuSans-7a" x="316.455078"/>
     <use xlink:href="#DejaVuSans-2d" x="368.945312"/>
     <use xlink:href="#DejaVuSans-30" x="405.029297"/>
     <use xlink:href="#DejaVuSans-2d" x="468.652344"/>
     <use xlink:href="#DejaVuSans-65" x="504.736328"/>
     <use xlink:href="#DejaVuSans-78" x="564.509766"/>
     <use xlink:href="#DejaVuSans-69" x="623.689453"/>
     <use xlink:href="#DejaVuSans-64" x="651.472656"/>
     <use xlink:href="#DejaVuSans-32" x="714.949219"/>
     <use xlink:href="#DejaVuSans-33" x="778.572266"/>
    </g>
   </g>
   <g id="text_17">
    <!-- afl-0-exid23 -->
    <g transform="translate(74.715875 117.386038)scale(0.14 -0.14)">
     <defs>
      <path id="DejaVuSans-6c" d="M 603 4863 
L 1178 4863 
L 1178 0 
L 603 0 
L 603 4863 
z
" transform="scale(0.015625)"/>
     </defs>
     <use xlink:href="#DejaVuSans-61"/>
     <use xlink:href="#DejaVuSans-66" x="61.279297"/>
     <use xlink:href="#DejaVuSans-6c" x="96.484375"/>
     <use xlink:href="#DejaVuSans-2d" x="124.267578"/>
     <use xlink:href="#DejaVuSans-30" x="160.351562"/>
     <use xlink:href="#DejaVuSans-2d" x="223.974609"/>
     <use xlink:href="#DejaVuSans-65" x="260.058594"/>
     <use xlink:href="#DejaVuSans-78" x="319.832031"/>
     <use xlink:href="#DejaVuSans-69" x="379.011719"/>
     <use xlink:href="#DejaVuSans-64" x="406.794922"/>
     <use xlink:href="#DejaVuSans-32" x="470.271484"/>
     <use xlink:href="#DejaVuSans-33" x="533.894531"/>
    </g>
   </g>
   <g id="text_18">
    <!-- aflplusplus-0-exid23 -->
    <g transform="translate(584.14945 117.386038)scale(0.14 -0.14)">
     <defs>
      <path id="DejaVuSans-70" d="M 1159 525 
L 1159 -1331 
L 581 -1331 
L 581 3500 
L 1159 3500 
L 1159 2969 
Q 1341 3281 1617 3432 
Q 1894 3584 2278 3584 
Q 2916 3584 3314 3078 
Q 3713 2572 3713 1747 
Q 3713 922 3314 415 
Q 2916 -91 2278 -91 
Q 1894 -91 1617 61 
Q 1341 213 1159 525 
z
M 3116 1747 
Q 3116 2381 2855 2742 
Q 2594 3103 2138 3103 
Q 1681 3103 1420 2742 
Q 1159 2381 1159 1747 
Q 1159 1113 1420 752 
Q 1681 391 2138 391 
Q 2594 391 2855 752 
Q 3116 1113 3116 1747 
z
" transform="scale(0.015625)"/>
      <path id="DejaVuSans-73" d="M 2834 3397 
L 2834 2853 
Q 2591 2978 2328 3040 
Q 2066 3103 1784 3103 
Q 1356 3103 1142 2972 
Q 928 2841 928 2578 
Q 928 2378 1081 2264 
Q 1234 2150 1697 2047 
L 1894 2003 
Q 2506 1872 2764 1633 
Q 3022 1394 3022 966 
Q 3022 478 2636 193 
Q 2250 -91 1575 -91 
Q 1294 -91 989 -36 
Q 684 19 347 128 
L 347 722 
Q 666 556 975 473 
Q 1284 391 1588 391 
Q 1994 391 2212 530 
Q 2431 669 2431 922 
Q 2431 1156 2273 1281 
Q 2116 1406 1581 1522 
L 1381 1569 
Q 847 1681 609 1914 
Q 372 2147 372 2553 
Q 372 3047 722 3315 
Q 1072 3584 1716 3584 
Q 2034 3584 2315 3537 
Q 2597 3491 2834 3397 
z
" transform="scale(0.015625)"/>
     </defs>
     <use xlink:href="#DejaVuSans-61"/>
     <use xlink:href="#DejaVuSans-66" x="61.279297"/>
     <use xlink:href="#DejaVuSans-6c" x="96.484375"/>
     <use xlink:href="#DejaVuSans-70" x="124.267578"/>
     <use xlink:href="#DejaVuSans-6c" x="187.744141"/>
     <use xlink:href="#DejaVuSans-75" x="215.527344"/>
     <use xlink:href="#DejaVuSans-73" x="278.90625"/>
     <use xlink:href="#DejaVuSans-70" x="331.005859"/>
     <use xlink:href="#DejaVuSans-6c" x="394.482422"/>
     <use xlink:href="#DejaVuSans-75" x="422.265625"/>
     <use xlink:href="#DejaVuSans-73" x="485.644531"/>
     <use xlink:href="#DejaVuSans-2d" x="537.744141"/>
     <use xlink:href="#DejaVuSans-30" x="573.828125"/>
     <use xlink:href="#DejaVuSans-2d" x="637.451172"/>
     <use xlink:href="#DejaVuSans-65" x="673.535156"/>
     <use xlink:href="#DejaVuSans-78" x="733.308594"/>
     <use xlink:href="#DejaVuSans-69" x="792.488281"/>
     <use xlink:href="#DejaVuSans-64" x="820.271484"/>
     <use xlink:href="#DejaVuSans-32" x="883.748047"/>
     <use xlink:href="#DejaVuSans-33" x="947.371094"/>
    </g>
   </g>
   <g id="text_19">
    <!-- aflfast-0-exid23 -->
    <g transform="translate(617.41345 563.367413)scale(0.14 -0.14)">
     <defs>
      <path id="DejaVuSans-74" d="M 1172 4494 
L 1172 3500 
L 2356 3500 
L 2356 3053 
L 1172 3053 
L 1172 1153 
Q 1172 725 1289 603 
Q 1406 481 1766 481 
L 2356 481 
L 2356 0 
L 1766 0 
Q 1100 0 847 248 
Q 594 497 594 1153 
L 594 3053 
L 172 3053 
L 172 3500 
L 594 3500 
L 594 4494 
L 1172 4494 
z
" transform="scale(0.015625)"/>
     </defs>
     <use xlink:href="#DejaVuSans-61"/>
     <use xlink:href="#DejaVuSans-66" x="61.279297"/>
     <use xlink:href="#DejaVuSans-6c" x="96.484375"/>
     <use xlink:href="#DejaVuSans-66" x="124.267578"/>
     <use xlink:href="#DejaVuSans-61" x="159.472656"/>
     <use xlink:href="#DejaVuSans-73" x="220.751953"/>
     <use xlink:href="#DejaVuSans-74" x="272.851562"/>
     <use xlink:href="#DejaVuSans-2d" x="312.060547"/>
     <use xlink:href="#DejaVuSans-30" x="348.144531"/>
     <use xlink:href="#DejaVuSans-2d" x="411.767578"/>
     <use xlink:href="#DejaVuSans-65" x="447.851562"/>
     <use xlink:href="#DejaVuSans-78" x="507.625"/>
     <use xlink:href="#DejaVuSans-69" x="566.804688"/>
     <use xlink:href="#DejaVuSans-64" x="594.587891"/>
     <use xlink:href="#DejaVuSans-32" x="658.064453"/>
     <use xlink:href="#DejaVuSans-33" x="721.6875"/>
    </g>
   </g>
   <g id="legend_1">
    <g id="patch_6">
     <path d="M 710.05985 366.9935 
L 827.18785 366.9935 
Q 828.94785 366.9935 828.94785 365.2335 
L 828.94785 314.4465 
Q 828.94785 312.6865 827.18785 312.6865 
L 710.05985 312.6865 
Q 708.29985 312.6865 708.29985 314.4465 
L 708.29985 365.2335 
Q 708.29985 366.9935 710.05985 366.9935 
z
" style="fill: #ffffff; opacity: 0.5; stroke: #cccccc; stroke-width: 0.8; stroke-linejoin: miter"/>
    </g>
    <g id="patch_7">
     <path d="M 711.81985 322.893125 
L 729.41985 322.893125 
L 729.41985 316.733125 
L 711.81985 316.733125 
z
" style="fill: #5cc062; fill-opacity: 0.5; stroke: #5cc062; stroke-opacity: 0.5; stroke-width: 0.8; stroke-linejoin: miter"/>
    </g>
    <g id="text_20">
     <!-- fairfuzz-0-exid23 -->
     <g style="fill: #262626" transform="translate(736.45985 322.893125)scale(0.088 -0.088)">
      <use xlink:href="#DejaVuSans-66"/>
      <use xlink:href="#DejaVuSans-61" x="35.205078"/>
      <use xlink:href="#DejaVuSans-69" x="96.484375"/>
      <use xlink:href="#DejaVuSans-72" x="124.267578"/>
      <use xlink:href="#DejaVuSans-66" x="165.380859"/>
      <use xlink:href="#DejaVuSans-75" x="200.585938"/>
      <use xlink:href="#DejaVuSans-7a" x="263.964844"/>
      <use xlink:href="#DejaVuSans-7a" x="316.455078"/>
      <use xlink:href="#DejaVuSans-2d" x="368.945312"/>
      <use xlink:href="#DejaVuSans-30" x="405.029297"/>
      <use xlink:href="#DejaVuSans-2d" x="468.652344"/>
      <use xlink:href="#DejaVuSans-65" x="504.736328"/>
      <use xlink:href="#DejaVuSans-78" x="564.509766"/>
      <use xlink:href="#DejaVuSans-69" x="623.689453"/>
      <use xlink:href="#DejaVuSans-64" x="651.472656"/>
      <use xlink:href="#DejaVuSans-32" x="714.949219"/>
      <use xlink:href="#DejaVuSans-33" x="778.572266"/>
     </g>
    </g>
    <g id="patch_8">
     <path d="M 711.81985 335.809875 
L 729.41985 335.809875 
L 729.41985 329.649875 
L 711.81985 329.649875 
z
" style="fill: #5a9bd4; fill-opacity: 0.5; stroke: #5a9bd4; stroke-opacity: 0.5; stroke-width: 0.8; stroke-linejoin: miter"/>
    </g>
    <g id="text_21">
     <!-- afl-0-exid23 -->
     <g style="fill: #262626" transform="translate(736.45985 335.809875)scale(0.088 -0.088)">
      <use xlink:href="#DejaVuSans-61"/>
      <use xlink:href="#DejaVuSans-66" x="61.279297"/>
      <use xlink:href="#DejaVuSans-6c" x="96.484375"/>
      <use xlink:href="#DejaVuSans-2d" x="124.267578"/>
      <use xlink:href="#DejaVuSans-30" x="160.351562"/>
      <use xlink:href="#DejaVuSans-2d" x="223.974609"/>
      <use xlink:href="#DejaVuSans-65" x="260.058594"/>
      <use xlink:href="#DejaVuSans-78" x="319.832031"/>
      <use xlink:href="#DejaVuSans-69" x="379.011719"/>
      <use xlink:href="#DejaVuSans-64" x="406.794922"/>
      <use xlink:href="#DejaVuSans-32" x="470.271484"/>
      <use xlink:href="#DejaVuSans-33" x="533.894531"/>
     </g>
    </g>
    <g id="patch_9">
     <path d="M 711.81985 348.726625 
L 729.41985 348.726625 
L 729.41985 342.566625 
L 711.81985 342.566625 
z
" style="fill: #f6ec56; fill-opacity: 0.6; stroke: #f6ec56; stroke-opacity: 0.6; stroke-width: 0.8; stroke-linejoin: miter"/>
    </g>
    <g id="text_22">
     <!-- aflplusplus-0-exid23 -->
     <g style="fill: #262626" transform="translate(736.45985 348.726625)scale(0.088 -0.088)">
      <use xlink:href="#DejaVuSans-61"/>
      <use xlink:href="#DejaVuSans-66" x="61.279297"/>
      <use xlink:href="#DejaVuSans-6c" x="96.484375"/>
      <use xlink:href="#DejaVuSans-70" x="124.267578"/>
      <use xlink:href="#DejaVuSans-6c" x="187.744141"/>
      <use xlink:href="#DejaVuSans-75" x="215.527344"/>
      <use xlink:href="#DejaVuSans-73" x="278.90625"/>
      <use xlink:href="#DejaVuSans-70" x="331.005859"/>
      <use xlink:href="#DejaVuSans-6c" x="394.482422"/>
      <use xlink:href="#DejaVuSans-75" x="422.265625"/>
      <use xlink:href="#DejaVuSans-73" x="485.644531"/>
      <use xlink:href="#DejaVuSans-2d" x="537.744141"/>
      <use xlink:href="#DejaVuSans-30" x="573.828125"/>
      <use xlink:href="#DejaVuSans-2d" x="637.451172"/>
      <use xlink:href="#DejaVuSans-65" x="673.535156"/>
      <use xlink:href="#DejaVuSans-78" x="733.308594"/>
      <use xlink:href="#DejaVuSans-69" x="792.488281"/>
      <use xlink:href="#DejaVuSans-64" x="820.271484"/>
      <use xlink:href="#DejaVuSans-32" x="883.748047"/>
      <use xlink:href="#DejaVuSans-33" x="947.371094"/>
     </g>
    </g>
    <g id="patch_10">
     <path d="M 711.81985 361.643375 
L 729.41985 361.643375 
L 729.41985 355.483375 
L 711.81985 355.483375 
z
" style="fill: #f15a60; fill-opacity: 0.4; stroke: #f15a60; stroke-opacity: 0.4; stroke-width: 0.8; stroke-linejoin: miter"/>
    </g>
    <g id="text_23">
     <!-- aflfast-0-exid23 -->
     <g style="fill: #262626" transform="translate(736.45985 361.643375)scale(0.088 -0.088)">
      <use xlink:href="#DejaVuSans-61"/>
      <use xlink:href="#DejaVuSans-66" x="61.279297"/>
      <use xlink:href="#DejaVuSans-6c" x="96.484375"/>
      <use xlink:href="#DejaVuSans-66" x="124.267578"/>
      <use xlink:href="#DejaVuSans-61" x="159.472656"/>
      <use xlink:href="#DejaVuSans-73" x="220.751953"/>
      <use xlink:href="#DejaVuSans-74" x="272.851562"/>
      <use xlink:href="#DejaVuSans-2d" x="312.060547"/>
      <use xlink:href="#DejaVuSans-30" x="348.144531"/>
      <use xlink:href="#DejaVuSans-2d" x="411.767578"/>
      <use xlink:href="#DejaVuSans-65" x="447.851562"/>
      <use xlink:href="#DejaVuSans-78" x="507.625"/>
      <use xlink:href="#DejaVuSans-69" x="566.804688"/>
      <use xlink:href="#DejaVuSans-64" x="594.587891"/>
      <use xlink:href="#DejaVuSans-32" x="658.064453"/>
      <use xlink:href="#DejaVuSans-33" x="721.6875"/>
     </g>
    </g>
   </g>
  </g>
 </g>
 <defs>
  <clipPath id="p4756e5671a">
   <rect x="38.61985" y="7.2" width="665.28" height="665.28"/>
  </clipPath>
 </defs>
</svg>
