<?xml version="1.0" encoding="utf-8" standalone="no"?>
<!DOCTYPE svg PUBLIC "-//W3C//DTD SVG 1.1//EN"
  "http://www.w3.org/Graphics/SVG/1.1/DTD/svg11.dtd">
<svg xmlns:xlink="http://www.w3.org/1999/xlink" width="434.7pt" height="576pt" viewBox="0 0 434.7 576" xmlns="http://www.w3.org/2000/svg" version="1.1">
 <metadata>
  <rdf:RDF xmlns:dc="http://purl.org/dc/elements/1.1/" xmlns:cc="http://creativecommons.org/ns#" xmlns:rdf="http://www.w3.org/1999/02/22-rdf-syntax-ns#">
   <cc:Work>
    <dc:type rdf:resource="http://purl.org/dc/dcmitype/StillImage"/>
    <dc:date>2022-09-15T09:55:42.920443</dc:date>
    <dc:format>image/svg+xml</dc:format>
    <dc:creator>
     <cc:Agent>
      <dc:title>Matplotlib v3.5.3, https://matplotlib.org/</dc:title>
     </cc:Agent>
    </dc:creator>
   </cc:Work>
  </rdf:RDF>
 </metadata>
 <defs>
  <style type="text/css">*{stroke-linejoin: round; stroke-linecap: butt}</style>
 </defs>
 <g id="figure_1">
  <g id="patch_1">
   <path d="M 0 576 
L 434.7 576 
L 434.7 0 
L 0 0 
z
" style="fill: #ffffff"/>
  </g>
  <g id="axes_1">
   <g id="patch_2">
    <path d="M 54.3375 512.64 
L 391.23 512.64 
L 391.23 69.12 
L 54.3375 69.12 
z
" style="fill: #ffffff"/>
   </g>
   <g id="matplotlib.axis_1">
    <g id="xtick_1">
     <g id="line2d_1">
      <path d="M 69.650795 512.64 
L 69.650795 69.12 
" clip-path="url(#pb31c931765)" style="fill: none; stroke: #cccccc; stroke-width: 0.8; stroke-linecap: round"/>
     </g>
     <g id="text_1">
      <!-- 0 -->
      <g style="fill: #262626" transform="translate(69.388282 529.627249)rotate(-45)scale(0.088 -0.088)">
       <defs>
        <path id="DejaVuSans-30" d="M 2034 4250 
Q 1547 4250 1301 3770 
Q 1056 3291 1056 2328 
Q 1056 1369 1301 889 
Q 1547 409 2034 409 
Q 2525 409 2770 889 
Q 3016 1369 3016 2328 
Q 3016 3291 2770 3770 
Q 2525 4250 2034 4250 
z
M 2034 4750 
Q 2819 4750 3233 4129 
Q 3647 3509 3647 2328 
Q 3647 1150 3233 529 
Q 2819 -91 2034 -91 
Q 1250 -91 836 529 
Q 422 1150 422 2328 
Q 422 3509 836 4129 
Q 1250 4750 2034 4750 
z
" transform="scale(0.015625)"/>
       </defs>
       <use xlink:href="#DejaVuSans-30"/>
      </g>
     </g>
    </g>
    <g id="xtick_2">
     <g id="line2d_2">
      <path d="M 86.677392 512.64 
L 86.677392 69.12 
" clip-path="url(#pb31c931765)" style="fill: none; stroke: #cccccc; stroke-width: 0.8; stroke-linecap: round"/>
     </g>
     <g id="text_2">
      <!-- 80 -->
      <g style="fill: #262626" transform="translate(84.435333 533.58634)rotate(-45)scale(0.088 -0.088)">
       <defs>
        <path id="DejaVuSans-38" d="M 2034 2216 
Q 1584 2216 1326 1975 
Q 1069 1734 1069 1313 
Q 1069 891 1326 650 
Q 1584 409 2034 409 
Q 2484 409 2743 651 
Q 3003 894 3003 1313 
Q 3003 1734 2745 1975 
Q 2488 2216 2034 2216 
z
M 1403 2484 
Q 997 2584 770 2862 
Q 544 3141 544 3541 
Q 544 4100 942 4425 
Q 1341 4750 2034 4750 
Q 2731 4750 3128 4425 
Q 3525 4100 3525 3541 
Q 3525 3141 3298 2862 
Q 3072 2584 2669 2484 
Q 3125 2378 3379 2068 
Q 3634 1759 3634 1313 
Q 3634 634 3220 271 
Q 2806 -91 2034 -91 
Q 1263 -91 848 271 
Q 434 634 434 1313 
Q 434 1759 690 2068 
Q 947 2378 1403 2484 
z
M 1172 3481 
Q 1172 3119 1398 2916 
Q 1625 2713 2034 2713 
Q 2441 2713 2670 2916 
Q 2900 3119 2900 3481 
Q 2900 3844 2670 4047 
Q 2441 4250 2034 4250 
Q 1625 4250 1398 4047 
Q 1172 3844 1172 3481 
z
" transform="scale(0.015625)"/>
       </defs>
       <use xlink:href="#DejaVuSans-38"/>
       <use xlink:href="#DejaVuSans-30" x="63.623047"/>
      </g>
     </g>
    </g>
    <g id="xtick_3">
     <g id="line2d_3">
      <path d="M 103.703989 512.64 
L 103.703989 69.12 
" clip-path="url(#pb31c931765)" style="fill: none; stroke: #cccccc; stroke-width: 0.8; stroke-linecap: round"/>
     </g>
     <g id="text_3">
      <!-- 160 -->
      <g style="fill: #262626" transform="translate(99.482385 537.54543)rotate(-45)scale(0.088 -0.088)">
       <defs>
        <path id="DejaVuSans-31" d="M 794 531 
L 1825 531 
L 1825 4091 
L 703 3866 
L 703 4441 
L 1819 4666 
L 2450 4666 
L 2450 531 
L 3481 531 
L 3481 0 
L 794 0 
L 794 531 
z
" transform="scale(0.015625)"/>
        <path id="DejaVuSans-36" d="M 2113 2584 
Q 1688 2584 1439 2293 
Q 1191 2003 1191 1497 
Q 1191 994 1439 701 
Q 1688 409 2113 409 
Q 2538 409 2786 701 
Q 3034 994 3034 1497 
Q 3034 2003 2786 2293 
Q 2538 2584 2113 2584 
z
M 3366 4563 
L 3366 3988 
Q 3128 4100 2886 4159 
Q 2644 4219 2406 4219 
Q 1781 4219 1451 3797 
Q 1122 3375 1075 2522 
Q 1259 2794 1537 2939 
Q 1816 3084 2150 3084 
Q 2853 3084 3261 2657 
Q 3669 2231 3669 1497 
Q 3669 778 3244 343 
Q 2819 -91 2113 -91 
Q 1303 -91 875 529 
Q 447 1150 447 2328 
Q 447 3434 972 4092 
Q 1497 4750 2381 4750 
Q 2619 4750 2861 4703 
Q 3103 4656 3366 4563 
z
" transform="scale(0.015625)"/>
       </defs>
       <use xlink:href="#DejaVuSans-31"/>
       <use xlink:href="#DejaVuSans-36" x="63.623047"/>
       <use xlink:href="#DejaVuSans-30" x="127.246094"/>
      </g>
     </g>
    </g>
    <g id="xtick_4">
     <g id="line2d_4">
      <path d="M 120.730586 512.64 
L 120.730586 69.12 
" clip-path="url(#pb31c931765)" style="fill: none; stroke: #cccccc; stroke-width: 0.8; stroke-linecap: round"/>
     </g>
     <g id="text_4">
      <!-- 240 -->
      <g style="fill: #262626" transform="translate(116.508981 537.54543)rotate(-45)scale(0.088 -0.088)">
       <defs>
        <path id="DejaVuSans-32" d="M 1228 531 
L 3431 531 
L 3431 0 
L 469 0 
L 469 531 
Q 828 903 1448 1529 
Q 2069 2156 2228 2338 
Q 2531 2678 2651 2914 
Q 2772 3150 2772 3378 
Q 2772 3750 2511 3984 
Q 2250 4219 1831 4219 
Q 1534 4219 1204 4116 
Q 875 4013 500 3803 
L 500 4441 
Q 881 4594 1212 4672 
Q 1544 4750 1819 4750 
Q 2544 4750 2975 4387 
Q 3406 4025 3406 3419 
Q 3406 3131 3298 2873 
Q 3191 2616 2906 2266 
Q 2828 2175 2409 1742 
Q 1991 1309 1228 531 
z
" transform="scale(0.015625)"/>
        <path id="DejaVuSans-34" d="M 2419 4116 
L 825 1625 
L 2419 1625 
L 2419 4116 
z
M 2253 4666 
L 3047 4666 
L 3047 1625 
L 3713 1625 
L 3713 1100 
L 3047 1100 
L 3047 0 
L 2419 0 
L 2419 1100 
L 313 1100 
L 313 1709 
L 2253 4666 
z
" transform="scale(0.015625)"/>
       </defs>
       <use xlink:href="#DejaVuSans-32"/>
       <use xlink:href="#DejaVuSans-34" x="63.623047"/>
       <use xlink:href="#DejaVuSans-30" x="127.246094"/>
      </g>
     </g>
    </g>
    <g id="xtick_5">
     <g id="line2d_5">
      <path d="M 137.757182 512.64 
L 137.757182 69.12 
" clip-path="url(#pb31c931765)" style="fill: none; stroke: #cccccc; stroke-width: 0.8; stroke-linecap: round"/>
     </g>
     <g id="text_5">
      <!-- 320 -->
      <g style="fill: #262626" transform="translate(133.535578 537.54543)rotate(-45)scale(0.088 -0.088)">
       <defs>
        <path id="DejaVuSans-33" d="M 2597 2516 
Q 3050 2419 3304 2112 
Q 3559 1806 3559 1356 
Q 3559 666 3084 287 
Q 2609 -91 1734 -91 
Q 1441 -91 1130 -33 
Q 819 25 488 141 
L 488 750 
Q 750 597 1062 519 
Q 1375 441 1716 441 
Q 2309 441 2620 675 
Q 2931 909 2931 1356 
Q 2931 1769 2642 2001 
Q 2353 2234 1838 2234 
L 1294 2234 
L 1294 2753 
L 1863 2753 
Q 2328 2753 2575 2939 
Q 2822 3125 2822 3475 
Q 2822 3834 2567 4026 
Q 2313 4219 1838 4219 
Q 1578 4219 1281 4162 
Q 984 4106 628 3988 
L 628 4550 
Q 988 4650 1302 4700 
Q 1616 4750 1894 4750 
Q 2613 4750 3031 4423 
Q 3450 4097 3450 3541 
Q 3450 3153 3228 2886 
Q 3006 2619 2597 2516 
z
" transform="scale(0.015625)"/>
       </defs>
       <use xlink:href="#DejaVuSans-33"/>
       <use xlink:href="#DejaVuSans-32" x="63.623047"/>
       <use xlink:href="#DejaVuSans-30" x="127.246094"/>
      </g>
     </g>
    </g>
    <g id="xtick_6">
     <g id="line2d_6">
      <path d="M 154.783779 512.64 
L 154.783779 69.12 
" clip-path="url(#pb31c931765)" style="fill: none; stroke: #cccccc; stroke-width: 0.8; stroke-linecap: round"/>
     </g>
     <g id="text_6">
      <!-- 400 -->
      <g style="fill: #262626" transform="translate(150.562175 537.54543)rotate(-45)scale(0.088 -0.088)">
       <use xlink:href="#DejaVuSans-34"/>
       <use xlink:href="#DejaVuSans-30" x="63.623047"/>
       <use xlink:href="#DejaVuSans-30" x="127.246094"/>
      </g>
     </g>
    </g>
    <g id="xtick_7">
     <g id="line2d_7">
      <path d="M 171.810376 512.64 
L 171.810376 69.12 
" clip-path="url(#pb31c931765)" style="fill: none; stroke: #cccccc; stroke-width: 0.8; stroke-linecap: round"/>
     </g>
     <g id="text_7">
      <!-- 480 -->
      <g style="fill: #262626" transform="translate(167.588772 537.54543)rotate(-45)scale(0.088 -0.088)">
       <use xlink:href="#DejaVuSans-34"/>
       <use xlink:href="#DejaVuSans-38" x="63.623047"/>
       <use xlink:href="#DejaVuSans-30" x="127.246094"/>
      </g>
     </g>
    </g>
    <g id="xtick_8">
     <g id="line2d_8">
      <path d="M 188.836973 512.64 
L 188.836973 69.12 
" clip-path="url(#pb31c931765)" style="fill: none; stroke: #cccccc; stroke-width: 0.8; stroke-linecap: round"/>
     </g>
     <g id="text_8">
      <!-- 560 -->
      <g style="fill: #262626" transform="translate(184.615368 537.54543)rotate(-45)scale(0.088 -0.088)">
       <defs>
        <path id="DejaVuSans-35" d="M 691 4666 
L 3169 4666 
L 3169 4134 
L 1269 4134 
L 1269 2991 
Q 1406 3038 1543 3061 
Q 1681 3084 1819 3084 
Q 2600 3084 3056 2656 
Q 3513 2228 3513 1497 
Q 3513 744 3044 326 
Q 2575 -91 1722 -91 
Q 1428 -91 1123 -41 
Q 819 9 494 109 
L 494 744 
Q 775 591 1075 516 
Q 1375 441 1709 441 
Q 2250 441 2565 725 
Q 2881 1009 2881 1497 
Q 2881 1984 2565 2268 
Q 2250 2553 1709 2553 
Q 1456 2553 1204 2497 
Q 953 2441 691 2322 
L 691 4666 
z
" transform="scale(0.015625)"/>
       </defs>
       <use xlink:href="#DejaVuSans-35"/>
       <use xlink:href="#DejaVuSans-36" x="63.623047"/>
       <use xlink:href="#DejaVuSans-30" x="127.246094"/>
      </g>
     </g>
    </g>
    <g id="xtick_9">
     <g id="line2d_9">
      <path d="M 205.863569 512.64 
L 205.863569 69.12 
" clip-path="url(#pb31c931765)" style="fill: none; stroke: #cccccc; stroke-width: 0.8; stroke-linecap: round"/>
     </g>
     <g id="text_9">
      <!-- 640 -->
      <g style="fill: #262626" transform="translate(201.641965 537.54543)rotate(-45)scale(0.088 -0.088)">
       <use xlink:href="#DejaVuSans-36"/>
       <use xlink:href="#DejaVuSans-34" x="63.623047"/>
       <use xlink:href="#DejaVuSans-30" x="127.246094"/>
      </g>
     </g>
    </g>
    <g id="xtick_10">
     <g id="line2d_10">
      <path d="M 222.890166 512.64 
L 222.890166 69.12 
" clip-path="url(#pb31c931765)" style="fill: none; stroke: #cccccc; stroke-width: 0.8; stroke-linecap: round"/>
     </g>
     <g id="text_10">
      <!-- 720 -->
      <g style="fill: #262626" transform="translate(218.668562 537.54543)rotate(-45)scale(0.088 -0.088)">
       <defs>
        <path id="DejaVuSans-37" d="M 525 4666 
L 3525 4666 
L 3525 4397 
L 1831 0 
L 1172 0 
L 2766 4134 
L 525 4134 
L 525 4666 
z
" transform="scale(0.015625)"/>
       </defs>
       <use xlink:href="#DejaVuSans-37"/>
       <use xlink:href="#DejaVuSans-32" x="63.623047"/>
       <use xlink:href="#DejaVuSans-30" x="127.246094"/>
      </g>
     </g>
    </g>
    <g id="xtick_11">
     <g id="line2d_11">
      <path d="M 239.916763 512.64 
L 239.916763 69.12 
" clip-path="url(#pb31c931765)" style="fill: none; stroke: #cccccc; stroke-width: 0.8; stroke-linecap: round"/>
     </g>
     <g id="text_11">
      <!-- 800 -->
      <g style="fill: #262626" transform="translate(235.695159 537.54543)rotate(-45)scale(0.088 -0.088)">
       <use xlink:href="#DejaVuSans-38"/>
       <use xlink:href="#DejaVuSans-30" x="63.623047"/>
       <use xlink:href="#DejaVuSans-30" x="127.246094"/>
      </g>
     </g>
    </g>
    <g id="xtick_12">
     <g id="line2d_12">
      <path d="M 256.94336 512.64 
L 256.94336 69.12 
" clip-path="url(#pb31c931765)" style="fill: none; stroke: #cccccc; stroke-width: 0.8; stroke-linecap: round"/>
     </g>
     <g id="text_12">
      <!-- 880 -->
      <g style="fill: #262626" transform="translate(252.721755 537.54543)rotate(-45)scale(0.088 -0.088)">
       <use xlink:href="#DejaVuSans-38"/>
       <use xlink:href="#DejaVuSans-38" x="63.623047"/>
       <use xlink:href="#DejaVuSans-30" x="127.246094"/>
      </g>
     </g>
    </g>
    <g id="xtick_13">
     <g id="line2d_13">
      <path d="M 273.969956 512.64 
L 273.969956 69.12 
" clip-path="url(#pb31c931765)" style="fill: none; stroke: #cccccc; stroke-width: 0.8; stroke-linecap: round"/>
     </g>
     <g id="text_13">
      <!-- 960 -->
      <g style="fill: #262626" transform="translate(269.748352 537.54543)rotate(-45)scale(0.088 -0.088)">
       <defs>
        <path id="DejaVuSans-39" d="M 703 97 
L 703 672 
Q 941 559 1184 500 
Q 1428 441 1663 441 
Q 2288 441 2617 861 
Q 2947 1281 2994 2138 
Q 2813 1869 2534 1725 
Q 2256 1581 1919 1581 
Q 1219 1581 811 2004 
Q 403 2428 403 3163 
Q 403 3881 828 4315 
Q 1253 4750 1959 4750 
Q 2769 4750 3195 4129 
Q 3622 3509 3622 2328 
Q 3622 1225 3098 567 
Q 2575 -91 1691 -91 
Q 1453 -91 1209 -44 
Q 966 3 703 97 
z
M 1959 2075 
Q 2384 2075 2632 2365 
Q 2881 2656 2881 3163 
Q 2881 3666 2632 3958 
Q 2384 4250 1959 4250 
Q 1534 4250 1286 3958 
Q 1038 3666 1038 3163 
Q 1038 2656 1286 2365 
Q 1534 2075 1959 2075 
z
" transform="scale(0.015625)"/>
       </defs>
       <use xlink:href="#DejaVuSans-39"/>
       <use xlink:href="#DejaVuSans-36" x="63.623047"/>
       <use xlink:href="#DejaVuSans-30" x="127.246094"/>
      </g>
     </g>
    </g>
    <g id="xtick_14">
     <g id="line2d_14">
      <path d="M 290.996553 512.64 
L 290.996553 69.12 
" clip-path="url(#pb31c931765)" style="fill: none; stroke: #cccccc; stroke-width: 0.8; stroke-linecap: round"/>
     </g>
     <g id="text_14">
      <!-- 1040 -->
      <g style="fill: #262626" transform="translate(284.795404 541.504521)rotate(-45)scale(0.088 -0.088)">
       <use xlink:href="#DejaVuSans-31"/>
       <use xlink:href="#DejaVuSans-30" x="63.623047"/>
       <use xlink:href="#DejaVuSans-34" x="127.246094"/>
       <use xlink:href="#DejaVuSans-30" x="190.869141"/>
      </g>
     </g>
    </g>
    <g id="xtick_15">
     <g id="line2d_15">
      <path d="M 308.02315 512.64 
L 308.02315 69.12 
" clip-path="url(#pb31c931765)" style="fill: none; stroke: #cccccc; stroke-width: 0.8; stroke-linecap: round"/>
     </g>
     <g id="text_15">
      <!-- 1120 -->
      <g style="fill: #262626" transform="translate(301.822 541.504521)rotate(-45)scale(0.088 -0.088)">
       <use xlink:href="#DejaVuSans-31"/>
       <use xlink:href="#DejaVuSans-31" x="63.623047"/>
       <use xlink:href="#DejaVuSans-32" x="127.246094"/>
       <use xlink:href="#DejaVuSans-30" x="190.869141"/>
      </g>
     </g>
    </g>
    <g id="xtick_16">
     <g id="line2d_16">
      <path d="M 325.049747 512.64 
L 325.049747 69.12 
" clip-path="url(#pb31c931765)" style="fill: none; stroke: #cccccc; stroke-width: 0.8; stroke-linecap: round"/>
     </g>
     <g id="text_16">
      <!-- 1200 -->
      <g style="fill: #262626" transform="translate(318.848597 541.504521)rotate(-45)scale(0.088 -0.088)">
       <use xlink:href="#DejaVuSans-31"/>
       <use xlink:href="#DejaVuSans-32" x="63.623047"/>
       <use xlink:href="#DejaVuSans-30" x="127.246094"/>
       <use xlink:href="#DejaVuSans-30" x="190.869141"/>
      </g>
     </g>
    </g>
    <g id="xtick_17">
     <g id="line2d_17">
      <path d="M 342.076343 512.64 
L 342.076343 69.12 
" clip-path="url(#pb31c931765)" style="fill: none; stroke: #cccccc; stroke-width: 0.8; stroke-linecap: round"/>
     </g>
     <g id="text_17">
      <!-- 1280 -->
      <g style="fill: #262626" transform="translate(335.875194 541.504521)rotate(-45)scale(0.088 -0.088)">
       <use xlink:href="#DejaVuSans-31"/>
       <use xlink:href="#DejaVuSans-32" x="63.623047"/>
       <use xlink:href="#DejaVuSans-38" x="127.246094"/>
       <use xlink:href="#DejaVuSans-30" x="190.869141"/>
      </g>
     </g>
    </g>
    <g id="xtick_18">
     <g id="line2d_18">
      <path d="M 359.10294 512.64 
L 359.10294 69.12 
" clip-path="url(#pb31c931765)" style="fill: none; stroke: #cccccc; stroke-width: 0.8; stroke-linecap: round"/>
     </g>
     <g id="text_18">
      <!-- 1360 -->
      <g style="fill: #262626" transform="translate(352.901791 541.504521)rotate(-45)scale(0.088 -0.088)">
       <use xlink:href="#DejaVuSans-31"/>
       <use xlink:href="#DejaVuSans-33" x="63.623047"/>
       <use xlink:href="#DejaVuSans-36" x="127.246094"/>
       <use xlink:href="#DejaVuSans-30" x="190.869141"/>
      </g>
     </g>
    </g>
    <g id="xtick_19">
     <g id="line2d_19">
      <path d="M 376.129537 512.64 
L 376.129537 69.12 
" clip-path="url(#pb31c931765)" style="fill: none; stroke: #cccccc; stroke-width: 0.8; stroke-linecap: round"/>
     </g>
     <g id="text_19">
      <!-- 1440 -->
      <g style="fill: #262626" transform="translate(369.928387 541.504521)rotate(-45)scale(0.088 -0.088)">
       <use xlink:href="#DejaVuSans-31"/>
       <use xlink:href="#DejaVuSans-34" x="63.623047"/>
       <use xlink:href="#DejaVuSans-34" x="127.246094"/>
       <use xlink:href="#DejaVuSans-30" x="190.869141"/>
      </g>
     </g>
    </g>
    <g id="text_20">
     <!-- Time (Minutes) -->
     <g style="fill: #262626" transform="translate(186.87375 554.093115)scale(0.096 -0.096)">
      <defs>
       <path id="DejaVuSans-54" d="M -19 4666 
L 3928 4666 
L 3928 4134 
L 2272 4134 
L 2272 0 
L 1638 0 
L 1638 4134 
L -19 4134 
L -19 4666 
z
" transform="scale(0.015625)"/>
       <path id="DejaVuSans-69" d="M 603 3500 
L 1178 3500 
L 1178 0 
L 603 0 
L 603 3500 
z
M 603 4863 
L 1178 4863 
L 1178 4134 
L 603 4134 
L 603 4863 
z
" transform="scale(0.015625)"/>
       <path id="DejaVuSans-6d" d="M 3328 2828 
Q 3544 3216 3844 3400 
Q 4144 3584 4550 3584 
Q 5097 3584 5394 3201 
Q 5691 2819 5691 2113 
L 5691 0 
L 5113 0 
L 5113 2094 
Q 5113 2597 4934 2840 
Q 4756 3084 4391 3084 
Q 3944 3084 3684 2787 
Q 3425 2491 3425 1978 
L 3425 0 
L 2847 0 
L 2847 2094 
Q 2847 2600 2669 2842 
Q 2491 3084 2119 3084 
Q 1678 3084 1418 2786 
Q 1159 2488 1159 1978 
L 1159 0 
L 581 0 
L 581 3500 
L 1159 3500 
L 1159 2956 
Q 1356 3278 1631 3431 
Q 1906 3584 2284 3584 
Q 2666 3584 2933 3390 
Q 3200 3197 3328 2828 
z
" transform="scale(0.015625)"/>
       <path id="DejaVuSans-65" d="M 3597 1894 
L 3597 1613 
L 953 1613 
Q 991 1019 1311 708 
Q 1631 397 2203 397 
Q 2534 397 2845 478 
Q 3156 559 3463 722 
L 3463 178 
Q 3153 47 2828 -22 
Q 2503 -91 2169 -91 
Q 1331 -91 842 396 
Q 353 884 353 1716 
Q 353 2575 817 3079 
Q 1281 3584 2069 3584 
Q 2775 3584 3186 3129 
Q 3597 2675 3597 1894 
z
M 3022 2063 
Q 3016 2534 2758 2815 
Q 2500 3097 2075 3097 
Q 1594 3097 1305 2825 
Q 1016 2553 972 2059 
L 3022 2063 
z
" transform="scale(0.015625)"/>
       <path id="DejaVuSans-20" transform="scale(0.015625)"/>
       <path id="DejaVuSans-28" d="M 1984 4856 
Q 1566 4138 1362 3434 
Q 1159 2731 1159 2009 
Q 1159 1288 1364 580 
Q 1569 -128 1984 -844 
L 1484 -844 
Q 1016 -109 783 600 
Q 550 1309 550 2009 
Q 550 2706 781 3412 
Q 1013 4119 1484 4856 
L 1984 4856 
z
" transform="scale(0.015625)"/>
       <path id="DejaVuSans-4d" d="M 628 4666 
L 1569 4666 
L 2759 1491 
L 3956 4666 
L 4897 4666 
L 4897 0 
L 4281 0 
L 4281 4097 
L 3078 897 
L 2444 897 
L 1241 4097 
L 1241 0 
L 628 0 
L 628 4666 
z
" transform="scale(0.015625)"/>
       <path id="DejaVuSans-6e" d="M 3513 2113 
L 3513 0 
L 2938 0 
L 2938 2094 
Q 2938 2591 2744 2837 
Q 2550 3084 2163 3084 
Q 1697 3084 1428 2787 
Q 1159 2491 1159 1978 
L 1159 0 
L 581 0 
L 581 3500 
L 1159 3500 
L 1159 2956 
Q 1366 3272 1645 3428 
Q 1925 3584 2291 3584 
Q 2894 3584 3203 3211 
Q 3513 2838 3513 2113 
z
" transform="scale(0.015625)"/>
       <path id="DejaVuSans-75" d="M 544 1381 
L 544 3500 
L 1119 3500 
L 1119 1403 
Q 1119 906 1312 657 
Q 1506 409 1894 409 
Q 2359 409 2629 706 
Q 2900 1003 2900 1516 
L 2900 3500 
L 3475 3500 
L 3475 0 
L 2900 0 
L 2900 538 
Q 2691 219 2414 64 
Q 2138 -91 1772 -91 
Q 1169 -91 856 284 
Q 544 659 544 1381 
z
M 1991 3584 
L 1991 3584 
z
" transform="scale(0.015625)"/>
       <path id="DejaVuSans-74" d="M 1172 4494 
L 1172 3500 
L 2356 3500 
L 2356 3053 
L 1172 3053 
L 1172 1153 
Q 1172 725 1289 603 
Q 1406 481 1766 481 
L 2356 481 
L 2356 0 
L 1766 0 
Q 1100 0 847 248 
Q 594 497 594 1153 
L 594 3053 
L 172 3053 
L 172 3500 
L 594 3500 
L 594 4494 
L 1172 4494 
z
" transform="scale(0.015625)"/>
       <path id="DejaVuSans-73" d="M 2834 3397 
L 2834 2853 
Q 2591 2978 2328 3040 
Q 2066 3103 1784 3103 
Q 1356 3103 1142 2972 
Q 928 2841 928 2578 
Q 928 2378 1081 2264 
Q 1234 2150 1697 2047 
L 1894 2003 
Q 2506 1872 2764 1633 
Q 3022 1394 3022 966 
Q 3022 478 2636 193 
Q 2250 -91 1575 -91 
Q 1294 -91 989 -36 
Q 684 19 347 128 
L 347 722 
Q 666 556 975 473 
Q 1284 391 1588 391 
Q 1994 391 2212 530 
Q 2431 669 2431 922 
Q 2431 1156 2273 1281 
Q 2116 1406 1581 1522 
L 1381 1569 
Q 847 1681 609 1914 
Q 372 2147 372 2553 
Q 372 3047 722 3315 
Q 1072 3584 1716 3584 
Q 2034 3584 2315 3537 
Q 2597 3491 2834 3397 
z
" transform="scale(0.015625)"/>
       <path id="DejaVuSans-29" d="M 513 4856 
L 1013 4856 
Q 1481 4119 1714 3412 
Q 1947 2706 1947 2009 
Q 1947 1309 1714 600 
Q 1481 -109 1013 -844 
L 513 -844 
Q 928 -128 1133 580 
Q 1338 1288 1338 2009 
Q 1338 2731 1133 3434 
Q 928 4138 513 4856 
z
" transform="scale(0.015625)"/>
      </defs>
      <use xlink:href="#DejaVuSans-54"/>
      <use xlink:href="#DejaVuSans-69" x="57.958984"/>
      <use xlink:href="#DejaVuSans-6d" x="85.742188"/>
      <use xlink:href="#DejaVuSans-65" x="183.154297"/>
      <use xlink:href="#DejaVuSans-20" x="244.677734"/>
      <use xlink:href="#DejaVuSans-28" x="276.464844"/>
      <use xlink:href="#DejaVuSans-4d" x="315.478516"/>
      <use xlink:href="#DejaVuSans-69" x="401.757812"/>
      <use xlink:href="#DejaVuSans-6e" x="429.541016"/>
      <use xlink:href="#DejaVuSans-75" x="492.919922"/>
      <use xlink:href="#DejaVuSans-74" x="556.298828"/>
      <use xlink:href="#DejaVuSans-65" x="595.507812"/>
      <use xlink:href="#DejaVuSans-73" x="657.03125"/>
      <use xlink:href="#DejaVuSans-29" x="709.130859"/>
     </g>
    </g>
   </g>
   <g id="matplotlib.axis_2">
    <g id="ytick_1">
     <g id="line2d_20">
      <path d="M 54.3375 492.48 
L 391.23 492.48 
" clip-path="url(#pb31c931765)" style="fill: none; stroke: #cccccc; stroke-width: 0.8; stroke-linecap: round"/>
     </g>
     <g id="text_21">
      <!-- 0 -->
      <g style="fill: #262626" transform="translate(40.4385 495.823312)scale(0.088 -0.088)">
       <use xlink:href="#DejaVuSans-30"/>
      </g>
     </g>
    </g>
    <g id="ytick_2">
     <g id="line2d_21">
      <path d="M 54.3375 468.350736 
L 391.23 468.350736 
" clip-path="url(#pb31c931765)" style="fill: none; stroke: #cccccc; stroke-width: 0.8; stroke-linecap: round"/>
     </g>
     <g id="text_22">
      <!-- 100 -->
      <g style="fill: #262626" transform="translate(29.2405 471.694049)scale(0.088 -0.088)">
       <use xlink:href="#DejaVuSans-31"/>
       <use xlink:href="#DejaVuSans-30" x="63.623047"/>
       <use xlink:href="#DejaVuSans-30" x="127.246094"/>
      </g>
     </g>
    </g>
    <g id="ytick_3">
     <g id="line2d_22">
      <path d="M 54.3375 444.221472 
L 391.23 444.221472 
" clip-path="url(#pb31c931765)" style="fill: none; stroke: #cccccc; stroke-width: 0.8; stroke-linecap: round"/>
     </g>
     <g id="text_23">
      <!-- 200 -->
      <g style="fill: #262626" transform="translate(29.2405 447.564785)scale(0.088 -0.088)">
       <use xlink:href="#DejaVuSans-32"/>
       <use xlink:href="#DejaVuSans-30" x="63.623047"/>
       <use xlink:href="#DejaVuSans-30" x="127.246094"/>
      </g>
     </g>
    </g>
    <g id="ytick_4">
     <g id="line2d_23">
      <path d="M 54.3375 420.092208 
L 391.23 420.092208 
" clip-path="url(#pb31c931765)" style="fill: none; stroke: #cccccc; stroke-width: 0.8; stroke-linecap: round"/>
     </g>
     <g id="text_24">
      <!-- 300 -->
      <g style="fill: #262626" transform="translate(29.2405 423.435521)scale(0.088 -0.088)">
       <use xlink:href="#DejaVuSans-33"/>
       <use xlink:href="#DejaVuSans-30" x="63.623047"/>
       <use xlink:href="#DejaVuSans-30" x="127.246094"/>
      </g>
     </g>
    </g>
    <g id="ytick_5">
     <g id="line2d_24">
      <path d="M 54.3375 395.962944 
L 391.23 395.962944 
" clip-path="url(#pb31c931765)" style="fill: none; stroke: #cccccc; stroke-width: 0.8; stroke-linecap: round"/>
     </g>
     <g id="text_25">
      <!-- 400 -->
      <g style="fill: #262626" transform="translate(29.2405 399.306257)scale(0.088 -0.088)">
       <use xlink:href="#DejaVuSans-34"/>
       <use xlink:href="#DejaVuSans-30" x="63.623047"/>
       <use xlink:href="#DejaVuSans-30" x="127.246094"/>
      </g>
     </g>
    </g>
    <g id="ytick_6">
     <g id="line2d_25">
      <path d="M 54.3375 371.83368 
L 391.23 371.83368 
" clip-path="url(#pb31c931765)" style="fill: none; stroke: #cccccc; stroke-width: 0.8; stroke-linecap: round"/>
     </g>
     <g id="text_26">
      <!-- 500 -->
      <g style="fill: #262626" transform="translate(29.2405 375.176993)scale(0.088 -0.088)">
       <use xlink:href="#DejaVuSans-35"/>
       <use xlink:href="#DejaVuSans-30" x="63.623047"/>
       <use xlink:href="#DejaVuSans-30" x="127.246094"/>
      </g>
     </g>
    </g>
    <g id="ytick_7">
     <g id="line2d_26">
      <path d="M 54.3375 347.704417 
L 391.23 347.704417 
" clip-path="url(#pb31c931765)" style="fill: none; stroke: #cccccc; stroke-width: 0.8; stroke-linecap: round"/>
     </g>
     <g id="text_27">
      <!-- 600 -->
      <g style="fill: #262626" transform="translate(29.2405 351.047729)scale(0.088 -0.088)">
       <use xlink:href="#DejaVuSans-36"/>
       <use xlink:href="#DejaVuSans-30" x="63.623047"/>
       <use xlink:href="#DejaVuSans-30" x="127.246094"/>
      </g>
     </g>
    </g>
    <g id="ytick_8">
     <g id="line2d_27">
      <path d="M 54.3375 323.575153 
L 391.23 323.575153 
" clip-path="url(#pb31c931765)" style="fill: none; stroke: #cccccc; stroke-width: 0.8; stroke-linecap: round"/>
     </g>
     <g id="text_28">
      <!-- 700 -->
      <g style="fill: #262626" transform="translate(29.2405 326.918465)scale(0.088 -0.088)">
       <use xlink:href="#DejaVuSans-37"/>
       <use xlink:href="#DejaVuSans-30" x="63.623047"/>
       <use xlink:href="#DejaVuSans-30" x="127.246094"/>
      </g>
     </g>
    </g>
    <g id="ytick_9">
     <g id="line2d_28">
      <path d="M 54.3375 299.445889 
L 391.23 299.445889 
" clip-path="url(#pb31c931765)" style="fill: none; stroke: #cccccc; stroke-width: 0.8; stroke-linecap: round"/>
     </g>
     <g id="text_29">
      <!-- 800 -->
      <g style="fill: #262626" transform="translate(29.2405 302.789201)scale(0.088 -0.088)">
       <use xlink:href="#DejaVuSans-38"/>
       <use xlink:href="#DejaVuSans-30" x="63.623047"/>
       <use xlink:href="#DejaVuSans-30" x="127.246094"/>
      </g>
     </g>
    </g>
    <g id="ytick_10">
     <g id="line2d_29">
      <path d="M 54.3375 275.316625 
L 391.23 275.316625 
" clip-path="url(#pb31c931765)" style="fill: none; stroke: #cccccc; stroke-width: 0.8; stroke-linecap: round"/>
     </g>
     <g id="text_30">
      <!-- 900 -->
      <g style="fill: #262626" transform="translate(29.2405 278.659937)scale(0.088 -0.088)">
       <use xlink:href="#DejaVuSans-39"/>
       <use xlink:href="#DejaVuSans-30" x="63.623047"/>
       <use xlink:href="#DejaVuSans-30" x="127.246094"/>
      </g>
     </g>
    </g>
    <g id="ytick_11">
     <g id="line2d_30">
      <path d="M 54.3375 251.187361 
L 391.23 251.187361 
" clip-path="url(#pb31c931765)" style="fill: none; stroke: #cccccc; stroke-width: 0.8; stroke-linecap: round"/>
     </g>
     <g id="text_31">
      <!-- 1000 -->
      <g style="fill: #262626" transform="translate(23.6415 254.530673)scale(0.088 -0.088)">
       <use xlink:href="#DejaVuSans-31"/>
       <use xlink:href="#DejaVuSans-30" x="63.623047"/>
       <use xlink:href="#DejaVuSans-30" x="127.246094"/>
       <use xlink:href="#DejaVuSans-30" x="190.869141"/>
      </g>
     </g>
    </g>
    <g id="ytick_12">
     <g id="line2d_31">
      <path d="M 54.3375 227.058097 
L 391.23 227.058097 
" clip-path="url(#pb31c931765)" style="fill: none; stroke: #cccccc; stroke-width: 0.8; stroke-linecap: round"/>
     </g>
     <g id="text_32">
      <!-- 1100 -->
      <g style="fill: #262626" transform="translate(23.6415 230.401409)scale(0.088 -0.088)">
       <use xlink:href="#DejaVuSans-31"/>
       <use xlink:href="#DejaVuSans-31" x="63.623047"/>
       <use xlink:href="#DejaVuSans-30" x="127.246094"/>
       <use xlink:href="#DejaVuSans-30" x="190.869141"/>
      </g>
     </g>
    </g>
    <g id="ytick_13">
     <g id="line2d_32">
      <path d="M 54.3375 202.928833 
L 391.23 202.928833 
" clip-path="url(#pb31c931765)" style="fill: none; stroke: #cccccc; stroke-width: 0.8; stroke-linecap: round"/>
     </g>
     <g id="text_33">
      <!-- 1200 -->
      <g style="fill: #262626" transform="translate(23.6415 206.272146)scale(0.088 -0.088)">
       <use xlink:href="#DejaVuSans-31"/>
       <use xlink:href="#DejaVuSans-32" x="63.623047"/>
       <use xlink:href="#DejaVuSans-30" x="127.246094"/>
       <use xlink:href="#DejaVuSans-30" x="190.869141"/>
      </g>
     </g>
    </g>
    <g id="ytick_14">
     <g id="line2d_33">
      <path d="M 54.3375 178.799569 
L 391.23 178.799569 
" clip-path="url(#pb31c931765)" style="fill: none; stroke: #cccccc; stroke-width: 0.8; stroke-linecap: round"/>
     </g>
     <g id="text_34">
      <!-- 1300 -->
      <g style="fill: #262626" transform="translate(23.6415 182.142882)scale(0.088 -0.088)">
       <use xlink:href="#DejaVuSans-31"/>
       <use xlink:href="#DejaVuSans-33" x="63.623047"/>
       <use xlink:href="#DejaVuSans-30" x="127.246094"/>
       <use xlink:href="#DejaVuSans-30" x="190.869141"/>
      </g>
     </g>
    </g>
    <g id="ytick_15">
     <g id="line2d_34">
      <path d="M 54.3375 154.670305 
L 391.23 154.670305 
" clip-path="url(#pb31c931765)" style="fill: none; stroke: #cccccc; stroke-width: 0.8; stroke-linecap: round"/>
     </g>
     <g id="text_35">
      <!-- 1400 -->
      <g style="fill: #262626" transform="translate(23.6415 158.013618)scale(0.088 -0.088)">
       <use xlink:href="#DejaVuSans-31"/>
       <use xlink:href="#DejaVuSans-34" x="63.623047"/>
       <use xlink:href="#DejaVuSans-30" x="127.246094"/>
       <use xlink:href="#DejaVuSans-30" x="190.869141"/>
      </g>
     </g>
    </g>
    <g id="ytick_16">
     <g id="line2d_35">
      <path d="M 54.3375 130.541041 
L 391.23 130.541041 
" clip-path="url(#pb31c931765)" style="fill: none; stroke: #cccccc; stroke-width: 0.8; stroke-linecap: round"/>
     </g>
     <g id="text_36">
      <!-- 1500 -->
      <g style="fill: #262626" transform="translate(23.6415 133.884354)scale(0.088 -0.088)">
       <use xlink:href="#DejaVuSans-31"/>
       <use xlink:href="#DejaVuSans-35" x="63.623047"/>
       <use xlink:href="#DejaVuSans-30" x="127.246094"/>
       <use xlink:href="#DejaVuSans-30" x="190.869141"/>
      </g>
     </g>
    </g>
    <g id="ytick_17">
     <g id="line2d_36">
      <path d="M 54.3375 106.411777 
L 391.23 106.411777 
" clip-path="url(#pb31c931765)" style="fill: none; stroke: #cccccc; stroke-width: 0.8; stroke-linecap: round"/>
     </g>
     <g id="text_37">
      <!-- 1600 -->
      <g style="fill: #262626" transform="translate(23.6415 109.75509)scale(0.088 -0.088)">
       <use xlink:href="#DejaVuSans-31"/>
       <use xlink:href="#DejaVuSans-36" x="63.623047"/>
       <use xlink:href="#DejaVuSans-30" x="127.246094"/>
       <use xlink:href="#DejaVuSans-30" x="190.869141"/>
      </g>
     </g>
    </g>
    <g id="text_38">
     <!-- Edge Coverages -->
     <g style="fill: #262626" transform="translate(17.645 329.98575)rotate(-90)scale(0.096 -0.096)">
      <defs>
       <path id="DejaVuSans-45" d="M 628 4666 
L 3578 4666 
L 3578 4134 
L 1259 4134 
L 1259 2753 
L 3481 2753 
L 3481 2222 
L 1259 2222 
L 1259 531 
L 3634 531 
L 3634 0 
L 628 0 
L 628 4666 
z
" transform="scale(0.015625)"/>
       <path id="DejaVuSans-64" d="M 2906 2969 
L 2906 4863 
L 3481 4863 
L 3481 0 
L 2906 0 
L 2906 525 
Q 2725 213 2448 61 
Q 2172 -91 1784 -91 
Q 1150 -91 751 415 
Q 353 922 353 1747 
Q 353 2572 751 3078 
Q 1150 3584 1784 3584 
Q 2172 3584 2448 3432 
Q 2725 3281 2906 2969 
z
M 947 1747 
Q 947 1113 1208 752 
Q 1469 391 1925 391 
Q 2381 391 2643 752 
Q 2906 1113 2906 1747 
Q 2906 2381 2643 2742 
Q 2381 3103 1925 3103 
Q 1469 3103 1208 2742 
Q 947 2381 947 1747 
z
" transform="scale(0.015625)"/>
       <path id="DejaVuSans-67" d="M 2906 1791 
Q 2906 2416 2648 2759 
Q 2391 3103 1925 3103 
Q 1463 3103 1205 2759 
Q 947 2416 947 1791 
Q 947 1169 1205 825 
Q 1463 481 1925 481 
Q 2391 481 2648 825 
Q 2906 1169 2906 1791 
z
M 3481 434 
Q 3481 -459 3084 -895 
Q 2688 -1331 1869 -1331 
Q 1566 -1331 1297 -1286 
Q 1028 -1241 775 -1147 
L 775 -588 
Q 1028 -725 1275 -790 
Q 1522 -856 1778 -856 
Q 2344 -856 2625 -561 
Q 2906 -266 2906 331 
L 2906 616 
Q 2728 306 2450 153 
Q 2172 0 1784 0 
Q 1141 0 747 490 
Q 353 981 353 1791 
Q 353 2603 747 3093 
Q 1141 3584 1784 3584 
Q 2172 3584 2450 3431 
Q 2728 3278 2906 2969 
L 2906 3500 
L 3481 3500 
L 3481 434 
z
" transform="scale(0.015625)"/>
       <path id="DejaVuSans-43" d="M 4122 4306 
L 4122 3641 
Q 3803 3938 3442 4084 
Q 3081 4231 2675 4231 
Q 1875 4231 1450 3742 
Q 1025 3253 1025 2328 
Q 1025 1406 1450 917 
Q 1875 428 2675 428 
Q 3081 428 3442 575 
Q 3803 722 4122 1019 
L 4122 359 
Q 3791 134 3420 21 
Q 3050 -91 2638 -91 
Q 1578 -91 968 557 
Q 359 1206 359 2328 
Q 359 3453 968 4101 
Q 1578 4750 2638 4750 
Q 3056 4750 3426 4639 
Q 3797 4528 4122 4306 
z
" transform="scale(0.015625)"/>
       <path id="DejaVuSans-6f" d="M 1959 3097 
Q 1497 3097 1228 2736 
Q 959 2375 959 1747 
Q 959 1119 1226 758 
Q 1494 397 1959 397 
Q 2419 397 2687 759 
Q 2956 1122 2956 1747 
Q 2956 2369 2687 2733 
Q 2419 3097 1959 3097 
z
M 1959 3584 
Q 2709 3584 3137 3096 
Q 3566 2609 3566 1747 
Q 3566 888 3137 398 
Q 2709 -91 1959 -91 
Q 1206 -91 779 398 
Q 353 888 353 1747 
Q 353 2609 779 3096 
Q 1206 3584 1959 3584 
z
" transform="scale(0.015625)"/>
       <path id="DejaVuSans-76" d="M 191 3500 
L 800 3500 
L 1894 563 
L 2988 3500 
L 3597 3500 
L 2284 0 
L 1503 0 
L 191 3500 
z
" transform="scale(0.015625)"/>
       <path id="DejaVuSans-72" d="M 2631 2963 
Q 2534 3019 2420 3045 
Q 2306 3072 2169 3072 
Q 1681 3072 1420 2755 
Q 1159 2438 1159 1844 
L 1159 0 
L 581 0 
L 581 3500 
L 1159 3500 
L 1159 2956 
Q 1341 3275 1631 3429 
Q 1922 3584 2338 3584 
Q 2397 3584 2469 3576 
Q 2541 3569 2628 3553 
L 2631 2963 
z
" transform="scale(0.015625)"/>
       <path id="DejaVuSans-61" d="M 2194 1759 
Q 1497 1759 1228 1600 
Q 959 1441 959 1056 
Q 959 750 1161 570 
Q 1363 391 1709 391 
Q 2188 391 2477 730 
Q 2766 1069 2766 1631 
L 2766 1759 
L 2194 1759 
z
M 3341 1997 
L 3341 0 
L 2766 0 
L 2766 531 
Q 2569 213 2275 61 
Q 1981 -91 1556 -91 
Q 1019 -91 701 211 
Q 384 513 384 1019 
Q 384 1609 779 1909 
Q 1175 2209 1959 2209 
L 2766 2209 
L 2766 2266 
Q 2766 2663 2505 2880 
Q 2244 3097 1772 3097 
Q 1472 3097 1187 3025 
Q 903 2953 641 2809 
L 641 3341 
Q 956 3463 1253 3523 
Q 1550 3584 1831 3584 
Q 2591 3584 2966 3190 
Q 3341 2797 3341 1997 
z
" transform="scale(0.015625)"/>
      </defs>
      <use xlink:href="#DejaVuSans-45"/>
      <use xlink:href="#DejaVuSans-64" x="63.183594"/>
      <use xlink:href="#DejaVuSans-67" x="126.660156"/>
      <use xlink:href="#DejaVuSans-65" x="190.136719"/>
      <use xlink:href="#DejaVuSans-20" x="251.660156"/>
      <use xlink:href="#DejaVuSans-43" x="283.447266"/>
      <use xlink:href="#DejaVuSans-6f" x="353.271484"/>
      <use xlink:href="#DejaVuSans-76" x="414.453125"/>
      <use xlink:href="#DejaVuSans-65" x="473.632812"/>
      <use xlink:href="#DejaVuSans-72" x="535.15625"/>
      <use xlink:href="#DejaVuSans-61" x="576.269531"/>
      <use xlink:href="#DejaVuSans-67" x="637.548828"/>
      <use xlink:href="#DejaVuSans-65" x="701.025391"/>
      <use xlink:href="#DejaVuSans-73" x="762.548828"/>
     </g>
    </g>
   </g>
   <g id="PolyCollection_1">
    <defs>
     <path id="md0df791904" d="M 69.650795 -93.171706 
L 69.650795 -83.52 
L 69.650795 -93.171706 
L 69.650795 -93.171706 
z
" style="stroke: #db5f57; stroke-opacity: 0.2; stroke-width: 0.8"/>
    </defs>
    <g clip-path="url(#pb31c931765)">
     <use xlink:href="#md0df791904" x="0" y="576" style="fill: #db5f57; fill-opacity: 0.2; stroke: #db5f57; stroke-opacity: 0.2; stroke-width: 0.8"/>
    </g>
   </g>
   <g id="PolyCollection_2">
    <defs>
     <path id="md604aab6fd" d="M 69.650795 -87.621975 
L 69.650795 -83.52 
L 69.650795 -87.621975 
L 69.650795 -87.621975 
z
" style="stroke: #b9db57; stroke-opacity: 0.2; stroke-width: 0.8"/>
    </defs>
    <g clip-path="url(#pb31c931765)">
     <use xlink:href="#md604aab6fd" x="0" y="576" style="fill: #b9db57; fill-opacity: 0.2; stroke: #b9db57; stroke-opacity: 0.2; stroke-width: 0.8"/>
    </g>
   </g>
   <g id="PolyCollection_3">
    <defs>
     <path id="m58dcea05cd" d="M 69.650795 -98.238851 
L 69.650795 -83.52 
L 69.650795 -98.238851 
L 69.650795 -98.238851 
z
" style="stroke: #57db94; stroke-opacity: 0.2; stroke-width: 0.8"/>
    </defs>
    <g clip-path="url(#pb31c931765)">
     <use xlink:href="#m58dcea05cd" x="0" y="576" style="fill: #57db94; fill-opacity: 0.2; stroke: #57db94; stroke-opacity: 0.2; stroke-width: 0.8"/>
    </g>
   </g>
   <g id="PolyCollection_4">
    <defs>
     <path id="m34f304fd1d" d="M 69.650795 -89.552316 
L 69.650795 -83.52 
L 69.650795 -89.552316 
L 69.650795 -89.552316 
z
" style="stroke: #5784db; stroke-opacity: 0.2; stroke-width: 0.8"/>
    </defs>
    <g clip-path="url(#pb31c931765)">
     <use xlink:href="#m34f304fd1d" x="0" y="576" style="fill: #5784db; fill-opacity: 0.2; stroke: #5784db; stroke-opacity: 0.2; stroke-width: 0.8"/>
    </g>
   </g>
   <g id="PolyCollection_5">
    <defs>
     <path id="m1688e84558" d="M 69.650795 -99.445314 
L 69.650795 -83.52 
L 69.650795 -99.445314 
L 69.650795 -99.445314 
z
" style="stroke: #c957db; stroke-opacity: 0.2; stroke-width: 0.8"/>
    </defs>
    <g clip-path="url(#pb31c931765)">
     <use xlink:href="#m1688e84558" x="0" y="576" style="fill: #c957db; fill-opacity: 0.2; stroke: #c957db; stroke-opacity: 0.2; stroke-width: 0.8"/>
    </g>
   </g>
   <g id="line2d_37">
    <path d="M 69.650795 487.654147 
L 69.863628 470.281077 
L 70.07646 463.524883 
L 70.289293 461.835835 
L 70.502125 442.049838 
L 70.714958 436.982693 
L 71.140623 422.98772 
L 71.353455 414.542478 
L 71.77912 409.957917 
L 71.991953 409.475332 
L 72.204785 409.475332 
L 72.417617 408.268869 
L 72.63045 389.20675 
L 73.268947 381.002801 
L 73.694612 380.278923 
L 73.907445 380.03763 
L 74.120277 371.83368 
L 74.33311 370.86851 
L 75.397272 340.465637 
L 75.610104 332.50298 
L 76.035769 329.124883 
L 76.461434 324.299031 
L 76.887099 318.508007 
L 77.312764 313.199569 
L 77.951261 307.167253 
L 78.164094 306.202083 
L 78.589759 300.652352 
L 78.802591 298.239425 
L 79.015424 297.75684 
L 79.866754 288.829013 
L 80.079586 288.105135 
L 80.292418 287.863842 
L 80.505251 286.657379 
L 80.718083 286.174794 
L 80.930916 285.209623 
L 81.569413 279.4186 
L 81.782246 274.834039 
L 81.995078 274.351454 
L 82.207911 273.386284 
L 82.633575 273.386284 
L 82.846408 272.17982 
L 83.272073 271.697235 
L 83.697738 270.490772 
L 84.123403 270.008187 
L 84.549068 269.284309 
L 84.974733 269.284309 
L 85.187565 264.458456 
L 86.038895 262.769408 
L 87.31589 262.769408 
L 87.954387 255.289336 
L 88.167219 255.289336 
L 88.380052 254.082873 
L 89.657047 251.428654 
L 89.869879 249.980898 
L 90.295544 249.498312 
L 90.508376 248.291849 
L 90.721209 246.361508 
L 90.934041 246.361508 
L 91.785371 243.707289 
L 91.998204 243.465996 
L 92.211036 241.05307 
L 92.423869 240.811777 
L 92.636701 239.605314 
L 93.062366 238.881436 
L 93.275198 237.192388 
L 93.913696 235.020754 
L 94.126528 234.779461 
L 94.339361 234.779461 
L 94.552193 234.296876 
L 95.190691 234.296876 
L 95.403523 234.055583 
L 96.04202 234.055583 
L 96.254853 233.814291 
L 96.467685 233.090413 
L 96.89335 233.090413 
L 97.106183 230.436194 
L 97.319015 229.229731 
L 98.170345 227.540682 
L 98.383177 227.29939 
L 98.59601 227.29939 
L 98.808842 227.058097 
L 99.234507 227.058097 
L 99.44734 225.610341 
L 99.660172 225.127756 
L 99.873005 225.127756 
L 100.085837 224.886463 
L 100.29867 224.886463 
L 102.214162 220.784488 
L 102.639827 220.301903 
L 102.852659 218.371562 
L 103.065492 212.821831 
L 103.278324 211.615368 
L 103.703989 205.824345 
L 103.916821 204.617882 
L 104.129654 204.617882 
L 104.980984 189.175153 
L 105.193816 188.93386 
L 105.406649 188.451275 
L 105.619481 188.451275 
L 105.832314 187.968689 
L 106.045146 187.968689 
L 106.257978 187.727397 
L 106.896476 187.727397 
L 107.960638 185.555763 
L 108.173471 185.555763 
L 108.386303 185.31447 
L 108.599136 185.31447 
L 109.0248 184.590592 
L 109.87613 184.590592 
L 110.088963 184.3493 
L 110.301795 184.3493 
L 110.72746 183.866715 
L 111.153125 183.866715 
L 111.365957 183.384129 
L 111.57879 182.177666 
L 112.43012 180.488618 
L 112.642952 180.488618 
L 112.855785 180.247325 
L 113.28145 180.247325 
L 113.494282 179.523447 
L 113.707115 179.523447 
L 113.919947 179.282154 
L 114.132779 179.282154 
L 114.345612 179.040862 
L 114.984109 179.040862 
L 115.196942 178.316984 
L 115.409774 178.075691 
L 115.622607 176.627935 
L 116.473937 176.627935 
L 116.686769 176.386643 
L 117.112434 176.386643 
L 117.538099 175.904057 
L 117.963764 175.904057 
L 118.176596 175.662765 
L 118.815094 173.249838 
L 119.240758 173.249838 
L 119.666423 172.525961 
L 119.879256 172.525961 
L 120.092088 172.284668 
L 120.943418 170.354327 
L 121.581916 170.354327 
L 121.794748 170.113034 
L 122.00758 170.113034 
L 122.433245 169.389156 
L 122.85891 169.389156 
L 123.071743 169.147864 
L 123.284575 168.665278 
L 123.497408 168.665278 
L 124.135905 167.458815 
L 125.838565 167.458815 
L 126.051397 167.217522 
L 126.26423 167.217522 
L 126.477062 166.97623 
L 127.754057 166.97623 
L 127.966889 166.734937 
L 128.179722 166.734937 
L 128.392554 166.493645 
L 128.818219 163.598133 
L 130.733711 163.598133 
L 130.946544 163.35684 
L 131.159376 163.35684 
L 131.372209 163.115548 
L 134.564696 163.115548 
L 134.777528 162.874255 
L 134.99036 162.874255 
L 135.203193 162.632962 
L 135.416025 160.702621 
L 137.54435 160.702621 
L 137.970015 159.013573 
L 138.182847 158.77228 
L 140.09834 158.77228 
L 140.311172 157.324524 
L 150.101465 157.324524 
L 150.314298 153.222549 
L 150.52713 152.981257 
L 154.783779 152.981257 
L 154.996612 152.739964 
L 155.209444 151.774794 
L 156.699271 151.774794 
L 157.337769 150.327038 
L 157.763434 150.327038 
L 157.976266 150.085745 
L 158.401931 149.361867 
L 158.827596 148.879282 
L 159.040428 148.879282 
L 159.253261 148.396697 
L 160.530256 148.396697 
L 160.955921 147.672819 
L 163.722743 147.672819 
L 163.935575 146.466355 
L 164.148407 145.98377 
L 164.574072 143.088259 
L 164.786905 142.605673 
L 165.425402 142.605673 
L 166.0639 141.39921 
L 166.276732 141.157917 
L 167.128062 141.157917 
L 167.340894 140.916625 
L 167.553727 140.916625 
L 167.766559 140.675332 
L 169.043554 140.675332 
L 169.256386 140.434039 
L 170.107716 140.434039 
L 170.320549 138.021113 
L 170.533381 137.77982 
L 171.810376 137.77982 
L 172.236041 137.297235 
L 172.661706 136.573357 
L 172.874538 136.332065 
L 173.087371 135.125601 
L 173.300203 134.884309 
L 173.513036 134.884309 
L 174.151533 133.677846 
L 174.364365 133.677846 
L 174.577198 133.19526 
L 176.49269 133.19526 
L 176.705523 131.747504 
L 178.19535 131.747504 
L 178.408182 130.299749 
L 179.259512 130.299749 
L 179.472345 130.058456 
L 179.685177 130.058456 
L 179.898009 129.817163 
L 180.323674 129.817163 
L 180.536507 129.575871 
L 183.516161 129.575871 
L 183.941826 128.851993 
L 184.154659 128.6107 
L 187.985643 128.6107 
L 188.198475 128.369408 
L 205.863569 128.369408 
L 206.076402 128.128115 
L 235.234449 128.128115 
L 235.447281 118.235117 
L 235.660114 117.993824 
L 236.937109 117.993824 
L 237.149941 117.752531 
L 237.362773 117.752531 
L 237.575606 117.028654 
L 237.788438 117.028654 
L 238.001271 116.787361 
L 239.703931 116.787361 
L 239.916763 116.546068 
L 240.129595 116.063483 
L 246.940234 116.063483 
L 247.153067 115.82219 
L 248.430061 115.82219 
L 248.642894 115.580898 
L 248.855726 114.374434 
L 249.068559 113.891849 
L 250.984051 113.891849 
L 251.196883 113.650557 
L 252.261046 113.650557 
L 252.473878 113.409264 
L 254.38937 113.409264 
L 254.602203 113.167971 
L 256.304862 113.167971 
L 256.517695 112.926679 
L 260.135847 112.926679 
L 260.348679 112.685386 
L 260.774344 110.27246 
L 261.200009 109.548582 
L 267.159318 109.548582 
L 267.37215 109.307289 
L 268.436313 109.307289 
L 269.07481 108.583411 
L 269.287642 107.859533 
L 269.500475 107.618241 
L 270.77747 107.618241 
L 270.990302 107.376948 
L 271.203135 106.894363 
L 271.841632 106.894363 
L 272.054464 106.65307 
L 273.969956 106.65307 
L 274.182789 106.411777 
L 285.888574 106.411777 
L 286.101407 106.170485 
L 289.293894 106.170485 
L 289.719558 105.687899 
L 293.33771 105.687899 
L 293.550543 105.446607 
L 295.04037 105.446607 
L 295.253202 104.481436 
L 297.381527 104.481436 
L 297.594359 104.240144 
L 303.766501 104.240144 
L 303.979333 103.998851 
L 308.448815 103.998851 
L 308.661647 103.03368 
L 313.131129 103.03368 
L 313.343961 102.792388 
L 315.685119 102.792388 
L 315.897951 102.06851 
L 325.049747 102.06851 
L 325.262579 101.827217 
L 325.901077 101.827217 
L 326.113909 101.585925 
L 329.519228 101.585925 
L 329.732061 101.344632 
L 329.944893 101.344632 
L 330.157726 100.862047 
L 332.28605 100.862047 
L 332.498883 100.620754 
L 335.904202 100.620754 
L 336.117035 100.379461 
L 375.916705 100.379461 
L 375.916705 100.379461 
" clip-path="url(#pb31c931765)" style="fill: none; stroke: #db5f57; stroke-width: 1.2; stroke-linecap: round"/>
   </g>
   <g id="line2d_38">
    <path d="M 69.650795 490.429013 
L 69.863628 478.243734 
L 70.07646 478.002442 
L 70.289293 466.420395 
L 70.502125 465.696517 
L 70.714958 447.599569 
L 70.92779 441.808546 
L 71.140623 441.567253 
L 71.353455 428.778743 
L 71.566288 428.778743 
L 71.77912 418.644452 
L 71.991953 418.644452 
L 72.204785 413.8186 
L 72.63045 400.788797 
L 73.268947 390.654506 
L 73.48178 390.654506 
L 73.694612 388.482873 
L 73.907445 388.482873 
L 74.120277 386.552531 
L 74.33311 377.383411 
L 74.545942 376.176948 
L 74.971607 365.560072 
L 75.822937 342.395978 
L 76.035769 340.70693 
L 76.248602 337.08754 
L 76.461434 336.12237 
L 77.099932 326.95325 
L 77.525596 322.609982 
L 77.738429 319.955763 
L 77.951261 319.231885 
L 78.164094 317.784129 
L 78.376926 314.647325 
L 78.589759 313.199569 
L 78.802591 312.958276 
L 79.228256 307.891131 
L 79.441089 307.649838 
L 79.866754 302.100108 
L 80.079586 301.37623 
L 80.292418 301.37623 
L 80.505251 299.687181 
L 80.718083 299.687181 
L 80.930916 298.963303 
L 81.782246 289.311598 
L 81.995078 289.070305 
L 82.207911 289.070305 
L 82.420743 287.863842 
L 83.05924 286.174794 
L 83.272073 285.450916 
L 83.697738 282.796697 
L 83.91057 282.314111 
L 84.336235 280.142478 
L 84.7619 279.4186 
L 84.974733 279.177307 
L 86.038895 277.005673 
L 86.46456 274.834039 
L 86.890225 274.351454 
L 87.103057 274.351454 
L 87.528722 273.144991 
L 87.741555 271.455943 
L 88.167219 270.249479 
L 88.380052 270.008187 
L 88.805717 269.043016 
L 89.018549 267.59526 
L 89.231382 267.353968 
L 89.657047 267.353968 
L 89.869879 266.388797 
L 90.082712 266.147504 
L 90.295544 266.147504 
L 90.934041 263.975871 
L 91.146874 262.286822 
L 91.572539 261.080359 
L 91.785371 259.632603 
L 91.998204 259.391311 
L 92.211036 257.943555 
L 92.423869 257.943555 
L 92.849534 257.219677 
L 93.275198 254.082873 
L 93.488031 253.84158 
L 93.700863 252.393824 
L 93.913696 252.393824 
L 94.339361 251.669946 
L 94.552193 251.669946 
L 94.765026 250.946068 
L 95.403523 250.946068 
L 95.616356 250.704776 
L 96.04202 250.704776 
L 96.467685 249.739605 
L 96.89335 249.739605 
L 97.319015 246.602801 
L 97.74468 246.602801 
L 97.957513 244.913752 
L 98.170345 244.913752 
L 98.59601 244.431167 
L 98.808842 243.948582 
L 99.234507 243.948582 
L 99.44734 243.465996 
L 99.660172 243.465996 
L 99.873005 242.983411 
L 100.085837 242.983411 
L 100.937167 241.294363 
L 101.149999 241.05307 
L 101.362832 241.05307 
L 101.575664 239.846607 
L 102.214162 238.640144 
L 102.426994 238.640144 
L 102.639827 238.398851 
L 102.852659 238.398851 
L 103.065492 231.160072 
L 103.278324 230.436194 
L 104.980984 214.993465 
L 105.193816 211.132783 
L 105.619481 210.408905 
L 106.470811 209.443734 
L 107.109308 209.443734 
L 107.534973 208.237271 
L 107.747806 208.237271 
L 107.960638 207.754686 
L 108.386303 207.754686 
L 108.811968 207.030808 
L 109.0248 207.030808 
L 109.237633 206.548223 
L 110.514628 206.548223 
L 110.72746 205.824345 
L 111.153125 205.824345 
L 111.57879 205.341759 
L 112.004455 205.341759 
L 112.217287 203.894004 
L 112.43012 203.894004 
L 112.642952 203.652711 
L 112.855785 203.652711 
L 113.068617 203.170126 
L 113.28145 203.170126 
L 113.494282 202.68754 
L 113.707115 202.68754 
L 114.132779 202.204955 
L 117.112434 202.204955 
L 117.325266 200.033321 
L 117.538099 199.550736 
L 117.750931 199.550736 
L 117.963764 199.309443 
L 118.176596 198.826858 
L 118.389429 197.861688 
L 118.602261 197.861688 
L 118.815094 197.620395 
L 119.240758 197.620395 
L 119.666423 196.655224 
L 119.879256 196.655224 
L 120.092088 195.931346 
L 120.517753 195.931346 
L 120.943418 194.724883 
L 121.156251 194.724883 
L 121.369083 194.483591 
L 121.581916 194.483591 
L 121.794748 194.001005 
L 122.220413 194.001005 
L 122.433245 193.51842 
L 122.646078 193.51842 
L 122.85891 193.277127 
L 123.071743 193.277127 
L 123.284575 192.55325 
L 123.497408 192.55325 
L 123.923073 191.346786 
L 125.4129 191.346786 
L 125.625732 190.622908 
L 126.477062 190.622908 
L 126.689895 190.140323 
L 128.179722 190.140323 
L 128.392554 188.692567 
L 129.243884 188.692567 
L 129.456717 186.762226 
L 129.882381 186.762226 
L 130.095214 186.279641 
L 130.946544 186.279641 
L 131.159376 186.038348 
L 131.585041 186.038348 
L 131.797874 185.31447 
L 133.713366 185.31447 
L 133.926198 185.073178 
L 134.139031 184.590592 
L 134.351863 184.590592 
L 134.564696 184.3493 
L 135.416025 184.3493 
L 135.628858 183.866715 
L 135.84169 183.866715 
L 136.054523 183.625422 
L 136.69302 183.625422 
L 137.118685 182.901544 
L 138.182847 182.901544 
L 138.39568 181.212496 
L 140.311172 181.212496 
L 140.524004 180.72991 
L 141.375334 180.72991 
L 141.800999 180.247325 
L 142.013832 179.76474 
L 142.439497 179.76474 
L 142.652329 179.282154 
L 143.077994 179.282154 
L 143.503659 178.316984 
L 143.716491 178.316984 
L 143.929324 177.834399 
L 144.354989 177.834399 
L 144.567821 177.593106 
L 144.780654 177.110521 
L 145.631983 177.110521 
L 145.844816 176.869228 
L 146.696146 176.869228 
L 146.908978 176.14535 
L 148.82447 176.14535 
L 149.037303 175.904057 
L 149.6758 175.904057 
L 149.888633 175.662765 
L 151.165627 175.662765 
L 151.37846 175.421472 
L 152.016957 175.421472 
L 152.22979 175.18018 
L 152.442622 175.18018 
L 152.655455 174.938887 
L 154.783779 174.938887 
L 154.996612 174.456302 
L 155.209444 174.456302 
L 155.422277 174.215009 
L 156.912104 174.215009 
L 157.124936 173.249838 
L 157.337769 173.249838 
L 157.550601 173.008546 
L 157.763434 173.008546 
L 157.976266 172.767253 
L 158.189099 172.284668 
L 158.401931 172.284668 
L 158.614763 172.043375 
L 158.827596 172.043375 
L 159.040428 171.56079 
L 159.678926 171.56079 
L 159.891758 171.078205 
L 160.317423 171.078205 
L 160.530256 170.595619 
L 160.743088 170.595619 
L 160.955921 170.354327 
L 164.574072 170.354327 
L 164.786905 167.217522 
L 164.999737 167.217522 
L 165.425402 166.734937 
L 165.638235 166.734937 
L 165.851067 166.011059 
L 166.276732 166.011059 
L 166.489564 165.528474 
L 167.128062 165.528474 
L 167.340894 165.287181 
L 167.553727 165.287181 
L 167.766559 165.045889 
L 168.830722 165.045889 
L 169.043554 164.804596 
L 170.746214 164.804596 
L 170.959046 163.35684 
L 171.171879 162.874255 
L 172.023208 162.874255 
L 172.448873 162.150377 
L 172.661706 162.150377 
L 172.874538 161.426499 
L 173.087371 161.185206 
L 173.300203 160.461329 
L 173.513036 160.220036 
L 173.725868 160.220036 
L 173.938701 159.254865 
L 174.577198 159.254865 
L 174.79003 158.530987 
L 175.428528 158.530987 
L 175.64136 158.048402 
L 176.49269 158.048402 
L 176.705523 157.565817 
L 177.556852 157.565817 
L 177.769685 156.841939 
L 178.19535 156.841939 
L 178.408182 156.118061 
L 179.472345 156.118061 
L 179.898009 155.635476 
L 180.536507 155.635476 
L 180.749339 155.394183 
L 183.303329 155.394183 
L 183.516161 154.911598 
L 184.367491 154.911598 
L 184.580324 154.429013 
L 189.901135 154.429013 
L 190.113967 154.18772 
L 191.17813 154.18772 
L 191.390962 153.946427 
L 191.603795 153.946427 
L 191.816627 153.705135 
L 192.455125 153.705135 
L 192.667957 153.222549 
L 193.732119 153.222549 
L 193.944952 152.981257 
L 194.157784 152.981257 
L 194.370617 152.739964 
L 195.434779 152.739964 
L 195.647611 152.498671 
L 200.542758 152.498671 
L 200.75559 152.257379 
L 201.60692 152.257379 
L 201.819753 152.016086 
L 203.30958 152.016086 
L 203.522412 151.533501 
L 203.735245 151.533501 
L 203.948077 150.809623 
L 204.586575 150.809623 
L 204.799407 146.707648 
L 207.779062 146.707648 
L 207.991894 146.466355 
L 226.72115 146.466355 
L 226.933983 146.225063 
L 228.849475 146.225063 
L 229.062308 145.501185 
L 229.27514 145.501185 
L 229.487972 145.259892 
L 230.12647 145.259892 
L 230.339302 144.294722 
L 230.552135 144.053429 
L 230.764967 144.053429 
L 231.403465 143.329551 
L 234.808784 143.329551 
L 235.021616 142.123088 
L 235.447281 142.123088 
L 235.660114 141.881795 
L 237.362773 141.881795 
L 237.575606 141.640503 
L 237.788438 141.640503 
L 238.001271 140.916625 
L 239.916763 140.916625 
L 240.342428 140.192747 
L 248.642894 140.192747 
L 248.855726 138.744991 
L 249.494224 138.744991 
L 249.707056 138.262406 
L 251.196883 138.262406 
L 251.409716 138.021113 
L 252.261046 138.021113 
L 252.473878 137.77982 
L 254.815035 137.77982 
L 255.027868 137.538528 
L 256.730527 137.538528 
L 256.94336 137.297235 
L 260.135847 137.297235 
L 260.348679 137.055943 
L 260.987176 135.125601 
L 261.200009 134.643016 
L 267.159318 134.643016 
L 267.37215 134.401724 
L 268.649145 134.401724 
L 268.861977 134.160431 
L 269.07481 134.160431 
L 269.713307 132.953968 
L 270.990302 132.953968 
L 271.203135 132.712675 
L 271.415967 132.712675 
L 271.628799 132.23009 
L 272.054464 132.23009 
L 272.267297 131.988797 
L 274.395621 131.988797 
L 274.608454 131.747504 
L 285.888574 131.747504 
L 286.101407 131.506212 
L 289.293894 131.506212 
L 289.719558 131.023627 
L 293.124878 131.023627 
L 293.33771 130.782334 
L 294.827538 130.782334 
L 295.04037 129.817163 
L 297.381527 129.817163 
L 297.594359 129.575871 
L 303.766501 129.575871 
L 303.979333 129.334578 
L 306.533323 129.334578 
L 306.746155 129.093285 
L 307.384653 129.093285 
L 307.597485 128.6107 
L 308.448815 128.6107 
L 308.661647 128.369408 
L 312.705464 128.369408 
L 312.918297 128.128115 
L 315.472286 128.128115 
L 315.897951 127.404237 
L 325.049747 127.404237 
L 325.262579 127.162944 
L 326.326742 127.162944 
L 326.539574 126.921652 
L 329.519228 126.921652 
L 329.944893 126.439066 
L 330.370558 126.439066 
L 330.583391 126.197774 
L 332.28605 126.197774 
L 332.498883 125.956481 
L 333.13738 125.956481 
L 333.350213 125.715189 
L 333.563045 125.715189 
L 333.775878 125.473896 
L 348.248485 125.473896 
L 348.461317 125.232603 
L 349.52548 125.232603 
L 349.738312 124.991311 
L 375.916705 124.991311 
L 375.916705 124.991311 
" clip-path="url(#pb31c931765)" style="fill: none; stroke: #b9db57; stroke-width: 1.2; stroke-linecap: round"/>
   </g>
   <g id="line2d_39">
    <path d="M 69.650795 485.120575 
L 69.863628 470.52237 
L 70.289293 461.835835 
L 70.502125 447.599569 
L 71.991953 414.301185 
L 72.204785 405.373357 
L 72.63045 398.858456 
L 72.843282 398.134578 
L 73.48178 391.860969 
L 73.907445 389.689336 
L 74.120277 381.726679 
L 74.33311 381.244093 
L 74.758774 377.624704 
L 75.397272 361.216804 
L 75.610104 352.771562 
L 76.035769 350.599928 
L 76.461434 345.050197 
L 77.312764 335.639785 
L 77.525596 334.192029 
L 77.738429 331.779102 
L 77.951261 331.296517 
L 78.164094 330.331346 
L 78.376926 327.435835 
L 78.589759 326.470664 
L 78.802591 324.299031 
L 79.015424 323.816445 
L 79.441089 318.508007 
L 79.653921 318.025422 
L 79.866754 315.853788 
L 80.079586 315.371203 
L 80.292418 315.371203 
L 80.505251 314.888618 
L 80.718083 314.888618 
L 81.143748 313.682154 
L 81.356581 312.234399 
L 81.782246 311.510521 
L 81.995078 309.338887 
L 83.05924 306.925961 
L 83.272073 305.719497 
L 83.484905 305.236912 
L 83.697738 303.547864 
L 83.91057 303.306571 
L 84.336235 301.858815 
L 84.549068 301.617522 
L 85.187565 300.411059 
L 85.61323 300.411059 
L 85.826062 299.687181 
L 86.038895 299.687181 
L 86.251727 297.75684 
L 86.46456 297.032962 
L 86.890225 296.550377 
L 87.528722 295.343914 
L 87.741555 295.343914 
L 87.954387 295.102621 
L 88.380052 295.102621 
L 89.018549 293.654865 
L 89.657047 293.654865 
L 89.869879 293.17228 
L 90.082712 293.17228 
L 90.295544 292.930987 
L 90.508376 292.448402 
L 90.721209 290.518061 
L 90.934041 290.518061 
L 91.359706 289.311598 
L 91.785371 288.346427 
L 91.998204 288.346427 
L 92.423869 285.933501 
L 92.636701 285.933501 
L 92.849534 285.692208 
L 93.062366 284.244452 
L 93.700863 283.520575 
L 93.913696 283.037989 
L 94.552193 283.037989 
L 94.765026 282.796697 
L 94.977858 282.796697 
L 95.190691 282.555404 
L 95.403523 282.555404 
L 96.04202 281.831526 
L 96.254853 281.831526 
L 96.89335 281.107648 
L 97.319015 279.901185 
L 97.531848 279.177307 
L 97.957513 279.177307 
L 98.170345 278.936014 
L 98.383177 278.936014 
L 98.808842 278.212136 
L 99.021675 278.212136 
L 99.234507 277.970844 
L 99.44734 277.970844 
L 99.660172 277.729551 
L 99.873005 277.005673 
L 100.085837 277.005673 
L 100.29867 276.764381 
L 100.511502 276.764381 
L 100.724335 276.523088 
L 100.937167 276.523088 
L 101.149999 276.040503 
L 101.575664 276.040503 
L 101.788497 275.075332 
L 102.214162 274.592747 
L 102.639827 273.868869 
L 102.852659 271.697235 
L 103.065492 265.182334 
L 103.278324 265.182334 
L 103.703989 260.115189 
L 103.916821 260.115189 
L 104.129654 256.254506 
L 104.342486 256.254506 
L 104.555319 252.635117 
L 104.768151 252.635117 
L 104.980984 245.878923 
L 105.193816 244.913752 
L 105.619481 244.913752 
L 106.257978 243.707289 
L 106.470811 243.465996 
L 107.109308 243.465996 
L 107.322141 242.742118 
L 107.747806 242.742118 
L 107.960638 242.500826 
L 108.386303 241.776948 
L 108.811968 241.776948 
L 109.0248 241.294363 
L 111.365957 241.294363 
L 111.57879 240.811777 
L 111.791622 240.811777 
L 112.43012 240.087899 
L 112.855785 240.087899 
L 113.068617 239.846607 
L 113.28145 239.364022 
L 113.919947 239.364022 
L 114.132779 238.640144 
L 114.984109 238.640144 
L 115.622607 237.916266 
L 115.835439 237.43368 
L 117.325266 237.43368 
L 117.538099 237.192388 
L 117.750931 237.192388 
L 118.176596 236.46851 
L 118.389429 236.227217 
L 118.602261 235.262047 
L 118.815094 235.020754 
L 119.240758 235.020754 
L 120.092088 233.331706 
L 120.304921 233.090413 
L 120.517753 233.090413 
L 120.943418 231.88395 
L 121.156251 231.642657 
L 121.581916 231.642657 
L 122.00758 230.918779 
L 122.220413 230.677487 
L 123.071743 230.677487 
L 123.284575 230.194901 
L 123.71024 230.194901 
L 123.923073 229.712316 
L 125.200067 229.712316 
L 125.625732 229.229731 
L 126.051397 229.229731 
L 126.26423 228.988438 
L 126.477062 228.988438 
L 126.689895 228.747145 
L 127.541224 228.747145 
L 127.754057 228.505853 
L 127.966889 228.505853 
L 129.031052 226.334219 
L 129.243884 226.334219 
L 129.456717 225.369048 
L 129.882381 225.369048 
L 130.095214 225.127756 
L 130.733711 225.127756 
L 130.946544 224.886463 
L 131.585041 224.886463 
L 132.010706 224.403878 
L 133.713366 224.403878 
L 133.926198 224.162585 
L 134.139031 224.162585 
L 134.351863 223.921293 
L 136.267355 223.921293 
L 136.480188 223.68 
L 137.970015 223.68 
L 138.39568 222.956122 
L 140.09834 222.956122 
L 140.311172 222.473537 
L 141.375334 222.473537 
L 141.588167 222.232244 
L 141.800999 221.749659 
L 142.439497 221.749659 
L 142.865161 221.025781 
L 143.290826 221.025781 
L 143.503659 220.784488 
L 143.716491 220.784488 
L 144.142156 220.301903 
L 144.354989 220.301903 
L 144.780654 219.819318 
L 145.206319 219.819318 
L 145.419151 219.578025 
L 146.270481 219.578025 
L 146.483313 218.854147 
L 146.908978 218.854147 
L 147.121811 218.371562 
L 149.6758 218.371562 
L 149.888633 218.130269 
L 150.952795 218.130269 
L 151.165627 217.888977 
L 151.37846 217.888977 
L 151.591292 217.647684 
L 154.570947 217.647684 
L 154.783779 217.406391 
L 154.996612 217.406391 
L 155.209444 217.165099 
L 156.912104 217.165099 
L 157.124936 216.923806 
L 157.763434 216.923806 
L 157.976266 216.682513 
L 158.189099 216.682513 
L 158.614763 215.958636 
L 158.827596 215.958636 
L 159.253261 215.47605 
L 160.317423 215.47605 
L 160.530256 214.993465 
L 163.935575 214.993465 
L 164.148407 214.752172 
L 164.786905 214.752172 
L 164.999737 214.269587 
L 166.915229 214.269587 
L 167.128062 214.028294 
L 167.979392 214.028294 
L 168.192224 213.787002 
L 170.107716 213.787002 
L 170.320549 211.856661 
L 171.384711 211.856661 
L 171.597544 211.615368 
L 171.810376 211.615368 
L 172.023208 211.374075 
L 172.236041 210.89149 
L 173.087371 210.89149 
L 173.300203 210.408905 
L 175.002863 210.408905 
L 175.215695 209.92632 
L 176.705523 209.92632 
L 176.918355 209.443734 
L 177.556852 209.443734 
L 177.769685 208.719856 
L 178.19535 208.719856 
L 178.408182 208.237271 
L 179.898009 208.237271 
L 180.110842 207.995978 
L 181.813502 207.995978 
L 182.026334 207.754686 
L 182.664831 207.754686 
L 182.877664 207.513393 
L 187.559978 207.513393 
L 187.77281 207.272101 
L 189.47547 207.272101 
L 189.688303 207.030808 
L 190.965297 207.030808 
L 191.17813 206.789515 
L 193.732119 206.789515 
L 193.944952 206.30693 
L 195.221947 206.30693 
L 195.647611 205.824345 
L 201.60692 205.824345 
L 201.819753 205.583052 
L 202.883915 205.583052 
L 203.30958 205.100467 
L 203.522412 205.100467 
L 203.735245 204.376589 
L 204.16091 199.792029 
L 204.373742 199.309443 
L 226.72115 199.309443 
L 226.933983 199.068151 
L 228.849475 199.068151 
L 229.062308 198.344273 
L 229.487972 198.344273 
L 229.700805 198.10298 
L 229.913637 198.10298 
L 230.12647 197.379102 
L 230.552135 196.896517 
L 233.318957 196.896517 
L 233.531789 195.931346 
L 234.170287 195.931346 
L 234.383119 195.690054 
L 237.788438 195.690054 
L 238.001271 195.448761 
L 239.703931 195.448761 
L 239.916763 195.207469 
L 248.430061 195.207469 
L 248.642894 194.242298 
L 248.855726 194.242298 
L 249.281391 193.51842 
L 249.494224 193.277127 
L 250.984051 193.277127 
L 251.196883 193.035835 
L 260.135847 193.035835 
L 260.348679 192.794542 
L 260.561512 192.794542 
L 260.774344 191.346786 
L 260.987176 191.346786 
L 261.200009 190.622908 
L 267.37215 190.622908 
L 267.584983 190.381616 
L 268.436313 190.381616 
L 268.649145 190.140323 
L 268.861977 190.140323 
L 269.287642 189.657738 
L 269.500475 189.657738 
L 269.92614 189.175153 
L 270.77747 189.175153 
L 270.990302 188.93386 
L 271.415967 188.93386 
L 271.628799 188.451275 
L 272.054464 188.451275 
L 272.267297 187.968689 
L 273.969956 187.968689 
L 274.182789 187.727397 
L 276.523946 187.727397 
L 276.736778 187.486104 
L 289.506726 187.486104 
L 289.719558 187.244811 
L 294.827538 187.244811 
L 295.04037 186.520934 
L 297.381527 186.520934 
L 297.594359 186.279641 
L 306.533323 186.279641 
L 306.746155 186.038348 
L 306.958988 186.038348 
L 307.384653 185.555763 
L 307.810318 185.555763 
L 308.02315 185.31447 
L 313.131129 185.31447 
L 313.343961 185.073178 
L 315.472286 185.073178 
L 315.897951 184.590592 
L 326.326742 184.590592 
L 326.539574 184.3493 
L 329.519228 184.3493 
L 330.157726 183.625422 
L 332.498883 183.625422 
L 332.711715 183.384129 
L 332.924548 183.384129 
L 333.13738 183.142837 
L 333.563045 183.142837 
L 333.775878 182.901544 
L 348.886982 182.901544 
L 349.312647 182.418959 
L 357.187448 182.418959 
L 357.400281 182.177666 
L 375.916705 182.177666 
L 375.916705 182.177666 
" clip-path="url(#pb31c931765)" style="fill: none; stroke: #57db94; stroke-width: 1.2; stroke-linecap: round"/>
   </g>
   <g id="line2d_40">
    <path d="M 69.650795 489.463842 
L 69.863628 485.723806 
L 70.07646 485.482513 
L 70.502125 485.482513 
L 70.714958 478.002442 
L 70.92779 432.15684 
L 71.77912 415.990233 
L 71.991953 413.577307 
L 72.417617 397.651993 
L 72.63045 397.651993 
L 73.056115 390.171921 
L 73.48178 386.793824 
L 73.907445 384.863483 
L 74.33311 376.176948 
L 74.758774 372.316266 
L 74.971607 366.766535 
L 75.184439 366.766535 
L 75.610104 347.221831 
L 77.312764 329.124883 
L 77.525596 329.124883 
L 77.738429 324.299031 
L 77.951261 323.816445 
L 78.164094 323.816445 
L 78.376926 320.197056 
L 78.802591 317.784129 
L 79.015424 315.612496 
L 79.441089 314.406032 
L 79.653921 314.16474 
L 79.866754 314.16474 
L 80.079586 308.856302 
L 80.292418 306.684668 
L 80.505251 306.443375 
L 80.718083 306.443375 
L 80.930916 305.478205 
L 81.143748 305.236912 
L 81.356581 304.754327 
L 81.782246 302.3414 
L 81.995078 300.169767 
L 82.207911 299.687181 
L 82.420743 299.687181 
L 82.633575 299.445889 
L 82.846408 298.239425 
L 83.05924 297.998133 
L 83.484905 296.550377 
L 83.697738 296.550377 
L 83.91057 294.137451 
L 84.123403 293.17228 
L 84.336235 292.930987 
L 84.549068 291.965817 
L 84.974733 291.483232 
L 85.187565 291.483232 
L 85.400397 290.518061 
L 86.038895 290.518061 
L 86.46456 288.105135 
L 87.103057 286.898671 
L 87.31589 286.898671 
L 87.528722 285.933501 
L 87.741555 285.692208 
L 87.954387 285.692208 
L 88.167219 285.450916 
L 88.380052 285.450916 
L 88.592884 285.209623 
L 88.805717 285.209623 
L 89.018549 284.00316 
L 89.231382 284.00316 
L 89.444214 283.761867 
L 89.657047 283.761867 
L 89.869879 283.520575 
L 90.082712 283.520575 
L 90.295544 283.279282 
L 90.934041 280.866355 
L 91.785371 278.694722 
L 92.423869 276.281795 
L 92.636701 276.040503 
L 92.849534 276.040503 
L 93.062366 274.834039 
L 93.488031 274.110162 
L 93.700863 273.868869 
L 93.913696 273.868869 
L 94.126528 273.627576 
L 94.765026 273.627576 
L 95.403523 272.903698 
L 95.829188 272.903698 
L 96.04202 272.421113 
L 96.254853 272.421113 
L 96.89335 271.697235 
L 97.106183 271.697235 
L 97.319015 270.249479 
L 97.74468 269.525601 
L 97.957513 269.525601 
L 98.170345 269.284309 
L 98.59601 269.284309 
L 98.808842 269.043016 
L 99.021675 268.560431 
L 99.234507 268.560431 
L 99.660172 267.836553 
L 99.873005 267.836553 
L 100.29867 267.353968 
L 100.724335 267.353968 
L 100.937167 266.388797 
L 101.362832 266.388797 
L 101.575664 265.906212 
L 101.788497 265.906212 
L 102.426994 264.458456 
L 102.639827 264.458456 
L 102.852659 263.493285 
L 103.065492 263.493285 
L 103.278324 254.80675 
L 103.491157 252.152531 
L 103.703989 251.669946 
L 103.916821 248.533142 
L 104.129654 248.533142 
L 104.342486 245.878923 
L 104.555319 241.776948 
L 104.768151 241.776948 
L 104.980984 234.296876 
L 105.193816 233.572998 
L 105.406649 233.572998 
L 105.619481 233.331706 
L 105.832314 233.331706 
L 106.257978 232.366535 
L 106.470811 232.366535 
L 106.683643 232.125242 
L 107.109308 232.125242 
L 107.322141 231.642657 
L 109.450465 231.642657 
L 109.663298 229.953609 
L 110.301795 229.953609 
L 110.514628 229.712316 
L 111.365957 229.712316 
L 111.57879 229.229731 
L 111.791622 229.229731 
L 112.004455 228.988438 
L 112.217287 228.505853 
L 114.345612 228.505853 
L 114.558444 226.816804 
L 114.984109 226.816804 
L 115.196942 226.575512 
L 115.409774 226.575512 
L 115.622607 226.334219 
L 115.835439 225.851634 
L 117.112434 225.851634 
L 117.325266 225.610341 
L 117.750931 225.610341 
L 118.176596 225.127756 
L 118.815094 223.921293 
L 119.027926 223.68 
L 119.666423 223.68 
L 120.092088 222.473537 
L 122.220413 222.473537 
L 122.433245 219.336732 
L 124.774402 219.336732 
L 124.987235 218.130269 
L 125.200067 218.130269 
L 125.4129 217.888977 
L 125.625732 217.406391 
L 126.477062 217.406391 
L 126.689895 217.165099 
L 126.902727 217.165099 
L 127.115559 216.923806 
L 127.754057 216.923806 
L 127.966889 216.682513 
L 128.392554 216.682513 
L 128.605387 215.234758 
L 128.818219 214.993465 
L 129.031052 214.51088 
L 129.243884 214.51088 
L 129.456717 213.787002 
L 129.669549 213.545709 
L 130.095214 213.545709 
L 130.308046 213.304417 
L 130.733711 213.304417 
L 130.946544 213.063124 
L 131.159376 213.063124 
L 131.372209 212.821831 
L 131.585041 212.821831 
L 131.797874 212.580539 
L 132.010706 212.580539 
L 132.223539 212.339246 
L 133.500533 212.339246 
L 133.926198 211.856661 
L 134.351863 211.856661 
L 134.564696 211.615368 
L 136.267355 211.615368 
L 136.480188 211.374075 
L 137.970015 211.374075 
L 138.39568 210.650197 
L 140.311172 210.650197 
L 140.524004 210.167612 
L 141.375334 210.167612 
L 141.588167 209.92632 
L 141.800999 209.92632 
L 142.013832 209.443734 
L 142.652329 209.443734 
L 143.077994 208.719856 
L 143.290826 208.719856 
L 143.716491 208.237271 
L 143.929324 207.754686 
L 144.567821 207.754686 
L 144.993486 207.272101 
L 145.206319 207.272101 
L 145.844816 206.548223 
L 146.057648 206.548223 
L 146.270481 206.30693 
L 147.121811 206.30693 
L 147.334643 206.065637 
L 149.250135 206.065637 
L 149.462968 205.824345 
L 150.52713 205.824345 
L 150.739962 205.583052 
L 151.591292 205.583052 
L 151.804125 205.341759 
L 154.783779 205.341759 
L 155.209444 204.859174 
L 156.699271 204.859174 
L 156.912104 204.617882 
L 157.763434 204.617882 
L 157.976266 204.376589 
L 158.189099 203.894004 
L 158.401931 203.894004 
L 158.827596 203.411418 
L 159.040428 203.411418 
L 159.253261 203.170126 
L 159.678926 203.170126 
L 159.891758 202.928833 
L 160.317423 202.928833 
L 160.955921 202.204955 
L 171.597544 202.204955 
L 171.810376 198.826858 
L 172.448873 198.10298 
L 172.874538 198.10298 
L 173.087371 197.861688 
L 173.300203 197.861688 
L 173.513036 197.620395 
L 175.002863 197.620395 
L 175.215695 197.13781 
L 178.19535 197.13781 
L 178.408182 194.724883 
L 181.175004 194.724883 
L 181.387837 194.242298 
L 181.813502 194.242298 
L 182.026334 194.001005 
L 182.877664 194.001005 
L 183.090496 193.759713 
L 191.390962 193.759713 
L 191.603795 193.277127 
L 193.944952 193.277127 
L 194.370617 192.794542 
L 195.860444 192.794542 
L 196.073276 192.311957 
L 216.29236 192.311957 
L 216.505192 185.797056 
L 269.92614 185.797056 
L 270.138972 174.456302 
L 274.395621 174.456302 
L 274.608454 173.249838 
L 276.736778 173.249838 
L 276.949611 173.008546 
L 290.996553 173.008546 
L 291.209386 172.525961 
L 294.827538 172.525961 
L 295.04037 171.56079 
L 297.594359 171.56079 
L 297.807192 171.319497 
L 308.02315 171.319497 
L 308.235982 170.354327 
L 312.705464 170.354327 
L 312.918297 170.113034 
L 319.941768 170.113034 
L 320.1546 169.630449 
L 321.218762 169.630449 
L 321.431595 169.389156 
L 325.901077 169.389156 
L 326.113909 169.147864 
L 330.157726 169.147864 
L 330.370558 168.423986 
L 342.714841 168.423986 
L 342.927673 167.700108 
L 375.278207 167.700108 
L 375.49104 167.217522 
L 375.916705 167.217522 
L 375.916705 167.217522 
" clip-path="url(#pb31c931765)" style="fill: none; stroke: #5784db; stroke-width: 1.2; stroke-linecap: round"/>
   </g>
   <g id="line2d_41">
    <path d="M 69.650795 484.517343 
L 69.863628 469.074614 
L 70.07646 462.31842 
L 70.289293 459.422908 
L 70.502125 439.154327 
L 70.714958 434.328474 
L 71.353455 412.612136 
L 71.566288 410.19921 
L 71.991953 401.99526 
L 72.417617 389.20675 
L 73.056115 379.555045 
L 73.48178 376.418241 
L 73.907445 374.246607 
L 74.120277 365.560072 
L 74.33311 364.353609 
L 74.971607 351.323806 
L 75.184439 345.532783 
L 75.610104 327.91842 
L 76.035769 324.299031 
L 76.674267 315.853788 
L 77.525596 305.719497 
L 77.738429 303.306571 
L 77.951261 302.3414 
L 78.164094 300.652352 
L 78.589759 295.585206 
L 78.802591 293.413573 
L 79.015424 292.689695 
L 79.441089 286.657379 
L 79.653921 285.692208 
L 79.866754 283.520575 
L 80.079586 282.796697 
L 80.292418 282.555404 
L 80.505251 281.107648 
L 80.718083 280.866355 
L 81.356581 275.075332 
L 81.569413 273.144991 
L 81.782246 269.766894 
L 83.272073 266.147504 
L 83.697738 263.0107 
L 84.549068 260.115189 
L 84.7619 260.115189 
L 84.974733 259.873896 
L 85.61323 257.943555 
L 86.038895 257.460969 
L 86.251727 255.530628 
L 86.46456 254.80675 
L 86.890225 254.324165 
L 87.103057 253.600287 
L 87.31589 253.358995 
L 87.528722 252.876409 
L 87.954387 249.980898 
L 88.167219 249.739605 
L 88.592884 248.774434 
L 88.805717 247.326679 
L 89.231382 246.602801 
L 89.657047 246.602801 
L 89.869879 245.155045 
L 90.295544 244.67246 
L 90.508376 243.465996 
L 90.721209 241.535655 
L 90.934041 241.535655 
L 91.572539 239.122729 
L 91.785371 237.916266 
L 91.998204 237.43368 
L 92.211036 235.503339 
L 92.423869 235.262047 
L 92.849534 233.814291 
L 93.062366 232.366535 
L 93.275198 231.88395 
L 93.700863 230.436194 
L 94.126528 229.712316 
L 94.339361 229.712316 
L 94.765026 228.988438 
L 95.190691 228.988438 
L 95.403523 228.747145 
L 95.616356 228.747145 
L 96.254853 228.023268 
L 96.680518 226.816804 
L 96.89335 226.816804 
L 97.531848 223.197415 
L 97.74468 222.956122 
L 97.957513 222.232244 
L 98.170345 222.232244 
L 98.59601 221.749659 
L 98.808842 221.267074 
L 99.021675 221.267074 
L 99.44734 220.784488 
L 99.873005 220.06061 
L 100.29867 219.578025 
L 100.511502 219.578025 
L 100.724335 219.336732 
L 100.937167 218.371562 
L 101.149999 218.371562 
L 101.788497 216.441221 
L 102.214162 215.958636 
L 102.639827 215.234758 
L 102.852659 212.339246 
L 103.065492 206.065637 
L 103.278324 205.100467 
L 103.703989 200.757199 
L 103.916821 199.550736 
L 104.555319 191.829372 
L 104.768151 186.762226 
L 104.980984 184.3493 
L 105.406649 183.384129 
L 105.619481 183.384129 
L 106.045146 182.660251 
L 106.470811 182.177666 
L 106.896476 182.177666 
L 107.109308 181.936373 
L 107.960638 180.247325 
L 108.386303 179.76474 
L 108.599136 179.76474 
L 109.0248 179.040862 
L 109.87613 179.040862 
L 110.088963 178.799569 
L 110.301795 178.799569 
L 110.72746 178.316984 
L 111.153125 178.316984 
L 111.365957 177.834399 
L 111.57879 176.627935 
L 112.43012 174.938887 
L 112.642952 174.938887 
L 113.068617 174.456302 
L 113.28145 173.973716 
L 113.707115 173.973716 
L 113.919947 173.732424 
L 114.132779 173.249838 
L 114.984109 173.249838 
L 115.409774 172.525961 
L 115.622607 171.078205 
L 116.473937 171.078205 
L 116.686769 170.836912 
L 117.112434 170.836912 
L 117.538099 170.354327 
L 117.750931 170.354327 
L 118.815094 167.9414 
L 119.240758 167.9414 
L 119.666423 167.217522 
L 119.879256 167.217522 
L 120.304921 166.493645 
L 120.517753 166.252352 
L 121.156251 165.045889 
L 121.581916 165.045889 
L 121.794748 164.563303 
L 122.00758 164.563303 
L 122.433245 163.839425 
L 122.85891 163.839425 
L 123.071743 163.598133 
L 123.284575 163.115548 
L 123.497408 163.115548 
L 123.923073 161.909084 
L 125.200067 161.909084 
L 125.625732 161.426499 
L 125.838565 161.426499 
L 126.051397 161.185206 
L 126.26423 161.185206 
L 126.689895 160.702621 
L 127.541224 160.702621 
L 127.966889 160.220036 
L 128.392554 159.013573 
L 128.818219 157.80711 
L 129.243884 157.80711 
L 129.456717 156.841939 
L 129.882381 156.841939 
L 130.095214 156.600646 
L 130.733711 156.600646 
L 130.946544 156.359354 
L 131.159376 156.359354 
L 131.372209 156.118061 
L 131.585041 156.118061 
L 131.797874 155.635476 
L 133.500533 155.635476 
L 134.777528 154.18772 
L 135.84169 154.18772 
L 136.054523 153.946427 
L 136.267355 153.946427 
L 136.480188 153.705135 
L 136.69302 153.705135 
L 136.905853 153.222549 
L 137.757182 153.222549 
L 138.182847 151.774794 
L 138.39568 151.533501 
L 140.09834 151.533501 
L 140.311172 150.809623 
L 141.375334 150.809623 
L 141.800999 149.844452 
L 142.439497 149.844452 
L 142.652329 149.120575 
L 142.865161 148.879282 
L 143.290826 148.879282 
L 143.503659 148.396697 
L 143.716491 148.396697 
L 143.929324 147.914111 
L 144.354989 147.914111 
L 144.567821 147.672819 
L 144.780654 147.190233 
L 145.419151 147.190233 
L 145.844816 146.707648 
L 146.057648 146.707648 
L 146.270481 146.466355 
L 146.908978 146.466355 
L 147.121811 146.225063 
L 149.250135 146.225063 
L 149.462968 145.98377 
L 150.314298 145.98377 
L 150.52713 145.742478 
L 151.165627 145.742478 
L 151.37846 145.501185 
L 152.442622 145.501185 
L 152.655455 145.259892 
L 154.570947 145.259892 
L 155.422277 144.294722 
L 156.699271 144.294722 
L 156.912104 143.570844 
L 157.337769 143.088259 
L 157.763434 143.088259 
L 158.189099 142.123088 
L 158.401931 142.123088 
L 158.614763 141.881795 
L 158.827596 141.39921 
L 159.040428 141.39921 
L 159.253261 141.157917 
L 159.678926 141.157917 
L 159.891758 140.916625 
L 160.317423 140.916625 
L 160.530256 140.434039 
L 160.743088 140.434039 
L 160.955921 140.192747 
L 163.722743 140.192747 
L 163.935575 138.986284 
L 164.148407 138.503698 
L 164.574072 135.608187 
L 164.786905 135.125601 
L 165.21257 135.125601 
L 165.425402 134.884309 
L 165.851067 133.919138 
L 166.0639 133.919138 
L 166.276732 133.677846 
L 167.128062 133.677846 
L 167.340894 133.436553 
L 167.553727 133.436553 
L 167.766559 133.19526 
L 168.830722 133.19526 
L 169.043554 132.953968 
L 170.107716 132.953968 
L 170.320549 130.541041 
L 170.533381 130.299749 
L 171.810376 130.299749 
L 172.023208 130.058456 
L 172.448873 129.334578 
L 172.874538 128.851993 
L 173.300203 126.680359 
L 173.725868 126.680359 
L 173.938701 126.439066 
L 174.151533 125.956481 
L 174.364365 125.956481 
L 174.577198 125.473896 
L 175.002863 125.473896 
L 175.215695 124.991311 
L 176.49269 124.991311 
L 176.705523 124.02614 
L 177.556852 124.02614 
L 177.769685 123.302262 
L 178.19535 123.302262 
L 178.408182 122.578384 
L 179.259512 122.578384 
L 179.472345 122.337092 
L 179.685177 122.337092 
L 179.898009 122.095799 
L 180.323674 122.095799 
L 180.536507 121.854506 
L 181.813502 121.854506 
L 182.026334 121.613214 
L 182.664831 121.613214 
L 182.877664 121.371921 
L 183.728994 121.371921 
L 184.154659 120.889336 
L 189.47547 120.889336 
L 189.688303 120.648043 
L 190.965297 120.648043 
L 191.17813 120.40675 
L 191.603795 120.40675 
L 191.816627 120.165458 
L 192.455125 120.165458 
L 192.667957 119.682873 
L 193.732119 119.682873 
L 193.944952 119.200287 
L 195.434779 119.200287 
L 195.647611 118.958995 
L 200.542758 118.958995 
L 200.75559 118.717702 
L 201.60692 118.717702 
L 201.819753 118.476409 
L 202.883915 118.476409 
L 203.30958 117.993824 
L 203.522412 117.993824 
L 203.735245 117.269946 
L 204.16091 112.685386 
L 204.373742 112.202801 
L 205.863569 112.202801 
L 206.076402 111.961508 
L 226.72115 111.961508 
L 226.933983 111.720215 
L 228.849475 111.720215 
L 229.062308 110.996338 
L 229.27514 110.996338 
L 229.487972 110.755045 
L 229.913637 110.755045 
L 230.12647 110.031167 
L 230.552135 109.548582 
L 230.764967 109.548582 
L 231.403465 108.824704 
L 233.318957 108.824704 
L 233.531789 107.859533 
L 234.170287 107.859533 
L 234.383119 107.618241 
L 235.447281 107.618241 
L 235.660114 107.376948 
L 236.937109 107.376948 
L 237.149941 107.135655 
L 237.362773 107.135655 
L 237.575606 106.411777 
L 237.788438 106.411777 
L 238.001271 106.170485 
L 239.703931 106.170485 
L 239.916763 105.929192 
L 240.129595 105.446607 
L 248.430061 105.446607 
L 248.642894 104.240144 
L 248.855726 103.998851 
L 249.068559 103.516266 
L 250.984051 103.516266 
L 251.196883 103.274973 
L 252.261046 103.274973 
L 252.473878 103.03368 
L 254.38937 103.03368 
L 254.602203 102.792388 
L 256.304862 102.792388 
L 256.517695 102.551095 
L 260.135847 102.551095 
L 260.348679 102.309803 
L 260.774344 99.896876 
L 261.200009 99.172998 
L 267.159318 99.172998 
L 267.37215 98.931706 
L 268.436313 98.931706 
L 268.649145 98.44912 
L 268.861977 98.44912 
L 269.07481 98.207828 
L 269.287642 97.48395 
L 269.500475 97.242657 
L 270.77747 97.242657 
L 270.990302 97.001364 
L 271.203135 96.518779 
L 271.841632 96.518779 
L 272.054464 96.277487 
L 273.969956 96.277487 
L 274.182789 96.036194 
L 285.888574 96.036194 
L 286.101407 95.794901 
L 289.293894 95.794901 
L 289.719558 95.312316 
L 293.124878 95.312316 
L 293.33771 95.071023 
L 294.827538 95.071023 
L 295.04037 94.105853 
L 297.381527 94.105853 
L 297.594359 93.86456 
L 303.766501 93.86456 
L 303.979333 93.623268 
L 306.533323 93.623268 
L 306.746155 93.381975 
L 306.958988 93.381975 
L 307.384653 92.89939 
L 307.810318 92.89939 
L 308.02315 92.658097 
L 312.705464 92.658097 
L 312.918297 92.416804 
L 315.472286 92.416804 
L 315.897951 91.692926 
L 325.049747 91.692926 
L 325.262579 91.451634 
L 325.901077 91.451634 
L 326.113909 91.210341 
L 329.519228 91.210341 
L 330.157726 90.486463 
L 332.28605 90.486463 
L 332.498883 90.245171 
L 332.924548 90.245171 
L 333.13738 90.003878 
L 333.563045 90.003878 
L 333.775878 89.762585 
L 348.248485 89.762585 
L 348.461317 89.521293 
L 349.099815 89.521293 
L 349.312647 89.28 
L 375.916705 89.28 
L 375.916705 89.28 
" clip-path="url(#pb31c931765)" style="fill: none; stroke: #c957db; stroke-width: 1.2; stroke-linecap: round"/>
   </g>
   <g id="line2d_42"/>
   <g id="line2d_43"/>
   <g id="line2d_44"/>
   <g id="line2d_45"/>
   <g id="line2d_46"/>
   <g id="patch_3">
    <path d="M 54.3375 512.64 
L 54.3375 69.12 
" style="fill: none; stroke: #cccccc; stroke-linejoin: miter; stroke-linecap: square"/>
   </g>
   <g id="patch_4">
    <path d="M 54.3375 512.64 
L 391.23 512.64 
" style="fill: none; stroke: #cccccc; stroke-linejoin: miter; stroke-linecap: square"/>
   </g>
   <g id="text_39">
    <!-- Edge Coverage History -->
    <g style="fill: #262626" transform="translate(115.892262 63.12)scale(0.165888 -0.165888)">
     <defs>
      <path id="DejaVuSans-Bold-45" d="M 588 4666 
L 3834 4666 
L 3834 3756 
L 1791 3756 
L 1791 2888 
L 3713 2888 
L 3713 1978 
L 1791 1978 
L 1791 909 
L 3903 909 
L 3903 0 
L 588 0 
L 588 4666 
z
" transform="scale(0.015625)"/>
      <path id="DejaVuSans-Bold-64" d="M 2919 2988 
L 2919 4863 
L 4044 4863 
L 4044 0 
L 2919 0 
L 2919 506 
Q 2688 197 2409 53 
Q 2131 -91 1766 -91 
Q 1119 -91 703 423 
Q 288 938 288 1747 
Q 288 2556 703 3070 
Q 1119 3584 1766 3584 
Q 2128 3584 2408 3439 
Q 2688 3294 2919 2988 
z
M 2181 722 
Q 2541 722 2730 984 
Q 2919 1247 2919 1747 
Q 2919 2247 2730 2509 
Q 2541 2772 2181 2772 
Q 1825 2772 1636 2509 
Q 1447 2247 1447 1747 
Q 1447 1247 1636 984 
Q 1825 722 2181 722 
z
" transform="scale(0.015625)"/>
      <path id="DejaVuSans-Bold-67" d="M 2919 594 
Q 2688 288 2409 144 
Q 2131 0 1766 0 
Q 1125 0 706 504 
Q 288 1009 288 1791 
Q 288 2575 706 3076 
Q 1125 3578 1766 3578 
Q 2131 3578 2409 3434 
Q 2688 3291 2919 2981 
L 2919 3500 
L 4044 3500 
L 4044 353 
Q 4044 -491 3511 -936 
Q 2978 -1381 1966 -1381 
Q 1638 -1381 1331 -1331 
Q 1025 -1281 716 -1178 
L 716 -306 
Q 1009 -475 1290 -558 
Q 1572 -641 1856 -641 
Q 2406 -641 2662 -400 
Q 2919 -159 2919 353 
L 2919 594 
z
M 2181 2772 
Q 1834 2772 1640 2515 
Q 1447 2259 1447 1791 
Q 1447 1309 1634 1061 
Q 1822 813 2181 813 
Q 2531 813 2725 1069 
Q 2919 1325 2919 1791 
Q 2919 2259 2725 2515 
Q 2531 2772 2181 2772 
z
" transform="scale(0.015625)"/>
      <path id="DejaVuSans-Bold-65" d="M 4031 1759 
L 4031 1441 
L 1416 1441 
Q 1456 1047 1700 850 
Q 1944 653 2381 653 
Q 2734 653 3104 758 
Q 3475 863 3866 1075 
L 3866 213 
Q 3469 63 3072 -14 
Q 2675 -91 2278 -91 
Q 1328 -91 801 392 
Q 275 875 275 1747 
Q 275 2603 792 3093 
Q 1309 3584 2216 3584 
Q 3041 3584 3536 3087 
Q 4031 2591 4031 1759 
z
M 2881 2131 
Q 2881 2450 2695 2645 
Q 2509 2841 2209 2841 
Q 1884 2841 1681 2658 
Q 1478 2475 1428 2131 
L 2881 2131 
z
" transform="scale(0.015625)"/>
      <path id="DejaVuSans-Bold-20" transform="scale(0.015625)"/>
      <path id="DejaVuSans-Bold-43" d="M 4288 256 
Q 3956 84 3597 -3 
Q 3238 -91 2847 -91 
Q 1681 -91 1000 561 
Q 319 1213 319 2328 
Q 319 3447 1000 4098 
Q 1681 4750 2847 4750 
Q 3238 4750 3597 4662 
Q 3956 4575 4288 4403 
L 4288 3438 
Q 3953 3666 3628 3772 
Q 3303 3878 2944 3878 
Q 2300 3878 1931 3465 
Q 1563 3053 1563 2328 
Q 1563 1606 1931 1193 
Q 2300 781 2944 781 
Q 3303 781 3628 887 
Q 3953 994 4288 1222 
L 4288 256 
z
" transform="scale(0.015625)"/>
      <path id="DejaVuSans-Bold-6f" d="M 2203 2784 
Q 1831 2784 1636 2517 
Q 1441 2250 1441 1747 
Q 1441 1244 1636 976 
Q 1831 709 2203 709 
Q 2569 709 2762 976 
Q 2956 1244 2956 1747 
Q 2956 2250 2762 2517 
Q 2569 2784 2203 2784 
z
M 2203 3584 
Q 3106 3584 3614 3096 
Q 4122 2609 4122 1747 
Q 4122 884 3614 396 
Q 3106 -91 2203 -91 
Q 1297 -91 786 396 
Q 275 884 275 1747 
Q 275 2609 786 3096 
Q 1297 3584 2203 3584 
z
" transform="scale(0.015625)"/>
      <path id="DejaVuSans-Bold-76" d="M 97 3500 
L 1216 3500 
L 2088 1081 
L 2956 3500 
L 4078 3500 
L 2700 0 
L 1472 0 
L 97 3500 
z
" transform="scale(0.015625)"/>
      <path id="DejaVuSans-Bold-72" d="M 3138 2547 
Q 2991 2616 2845 2648 
Q 2700 2681 2553 2681 
Q 2122 2681 1889 2404 
Q 1656 2128 1656 1613 
L 1656 0 
L 538 0 
L 538 3500 
L 1656 3500 
L 1656 2925 
Q 1872 3269 2151 3426 
Q 2431 3584 2822 3584 
Q 2878 3584 2943 3579 
Q 3009 3575 3134 3559 
L 3138 2547 
z
" transform="scale(0.015625)"/>
      <path id="DejaVuSans-Bold-61" d="M 2106 1575 
Q 1756 1575 1579 1456 
Q 1403 1338 1403 1106 
Q 1403 894 1545 773 
Q 1688 653 1941 653 
Q 2256 653 2472 879 
Q 2688 1106 2688 1447 
L 2688 1575 
L 2106 1575 
z
M 3816 1997 
L 3816 0 
L 2688 0 
L 2688 519 
Q 2463 200 2181 54 
Q 1900 -91 1497 -91 
Q 953 -91 614 226 
Q 275 544 275 1050 
Q 275 1666 698 1953 
Q 1122 2241 2028 2241 
L 2688 2241 
L 2688 2328 
Q 2688 2594 2478 2717 
Q 2269 2841 1825 2841 
Q 1466 2841 1156 2769 
Q 847 2697 581 2553 
L 581 3406 
Q 941 3494 1303 3539 
Q 1666 3584 2028 3584 
Q 2975 3584 3395 3211 
Q 3816 2838 3816 1997 
z
" transform="scale(0.015625)"/>
      <path id="DejaVuSans-Bold-48" d="M 588 4666 
L 1791 4666 
L 1791 2888 
L 3566 2888 
L 3566 4666 
L 4769 4666 
L 4769 0 
L 3566 0 
L 3566 1978 
L 1791 1978 
L 1791 0 
L 588 0 
L 588 4666 
z
" transform="scale(0.015625)"/>
      <path id="DejaVuSans-Bold-69" d="M 538 3500 
L 1656 3500 
L 1656 0 
L 538 0 
L 538 3500 
z
M 538 4863 
L 1656 4863 
L 1656 3950 
L 538 3950 
L 538 4863 
z
" transform="scale(0.015625)"/>
      <path id="DejaVuSans-Bold-73" d="M 3272 3391 
L 3272 2541 
Q 2913 2691 2578 2766 
Q 2244 2841 1947 2841 
Q 1628 2841 1473 2761 
Q 1319 2681 1319 2516 
Q 1319 2381 1436 2309 
Q 1553 2238 1856 2203 
L 2053 2175 
Q 2913 2066 3209 1816 
Q 3506 1566 3506 1031 
Q 3506 472 3093 190 
Q 2681 -91 1863 -91 
Q 1516 -91 1145 -36 
Q 775 19 384 128 
L 384 978 
Q 719 816 1070 734 
Q 1422 653 1784 653 
Q 2113 653 2278 743 
Q 2444 834 2444 1013 
Q 2444 1163 2330 1236 
Q 2216 1309 1875 1350 
L 1678 1375 
Q 931 1469 631 1722 
Q 331 1975 331 2491 
Q 331 3047 712 3315 
Q 1094 3584 1881 3584 
Q 2191 3584 2531 3537 
Q 2872 3491 3272 3391 
z
" transform="scale(0.015625)"/>
      <path id="DejaVuSans-Bold-74" d="M 1759 4494 
L 1759 3500 
L 2913 3500 
L 2913 2700 
L 1759 2700 
L 1759 1216 
Q 1759 972 1856 886 
Q 1953 800 2241 800 
L 2816 800 
L 2816 0 
L 1856 0 
Q 1194 0 917 276 
Q 641 553 641 1216 
L 641 2700 
L 84 2700 
L 84 3500 
L 641 3500 
L 641 4494 
L 1759 4494 
z
" transform="scale(0.015625)"/>
      <path id="DejaVuSans-Bold-79" d="M 78 3500 
L 1197 3500 
L 2138 1125 
L 2938 3500 
L 4056 3500 
L 2584 -331 
Q 2363 -916 2067 -1148 
Q 1772 -1381 1288 -1381 
L 641 -1381 
L 641 -647 
L 991 -647 
Q 1275 -647 1404 -556 
Q 1534 -466 1606 -231 
L 1638 -134 
L 78 3500 
z
" transform="scale(0.015625)"/>
     </defs>
     <use xlink:href="#DejaVuSans-Bold-45"/>
     <use xlink:href="#DejaVuSans-Bold-64" x="68.310547"/>
     <use xlink:href="#DejaVuSans-Bold-67" x="139.892578"/>
     <use xlink:href="#DejaVuSans-Bold-65" x="211.474609"/>
     <use xlink:href="#DejaVuSans-Bold-20" x="279.296875"/>
     <use xlink:href="#DejaVuSans-Bold-43" x="314.111328"/>
     <use xlink:href="#DejaVuSans-Bold-6f" x="387.5"/>
     <use xlink:href="#DejaVuSans-Bold-76" x="456.201172"/>
     <use xlink:href="#DejaVuSans-Bold-65" x="521.386719"/>
     <use xlink:href="#DejaVuSans-Bold-72" x="589.208984"/>
     <use xlink:href="#DejaVuSans-Bold-61" x="638.525391"/>
     <use xlink:href="#DejaVuSans-Bold-67" x="706.005859"/>
     <use xlink:href="#DejaVuSans-Bold-65" x="777.587891"/>
     <use xlink:href="#DejaVuSans-Bold-20" x="845.410156"/>
     <use xlink:href="#DejaVuSans-Bold-48" x="880.224609"/>
     <use xlink:href="#DejaVuSans-Bold-69" x="963.916016"/>
     <use xlink:href="#DejaVuSans-Bold-73" x="998.193359"/>
     <use xlink:href="#DejaVuSans-Bold-74" x="1057.714844"/>
     <use xlink:href="#DejaVuSans-Bold-6f" x="1105.517578"/>
     <use xlink:href="#DejaVuSans-Bold-72" x="1174.21875"/>
     <use xlink:href="#DejaVuSans-Bold-79" x="1223.535156"/>
    </g>
   </g>
   <g id="legend_1">
    <g id="patch_5">
     <path d="M 273.541 508.24 
L 385.07 508.24 
Q 386.83 508.24 386.83 506.48 
L 386.83 428.8405 
Q 386.83 427.0805 385.07 427.0805 
L 273.541 427.0805 
Q 271.781 427.0805 271.781 428.8405 
L 271.781 506.48 
Q 271.781 508.24 273.541 508.24 
z
" style="fill: #ffffff; opacity: 0.8; stroke: #cccccc; stroke-width: 0.8; stroke-linejoin: miter"/>
    </g>
    <g id="text_40">
     <!-- fuzzer -->
     <g style="fill: #262626" transform="translate(314.6085 437.895)scale(0.096 -0.096)">
      <defs>
       <path id="DejaVuSans-66" d="M 2375 4863 
L 2375 4384 
L 1825 4384 
Q 1516 4384 1395 4259 
Q 1275 4134 1275 3809 
L 1275 3500 
L 2222 3500 
L 2222 3053 
L 1275 3053 
L 1275 0 
L 697 0 
L 697 3053 
L 147 3053 
L 147 3500 
L 697 3500 
L 697 3744 
Q 697 4328 969 4595 
Q 1241 4863 1831 4863 
L 2375 4863 
z
" transform="scale(0.015625)"/>
       <path id="DejaVuSans-7a" d="M 353 3500 
L 3084 3500 
L 3084 2975 
L 922 459 
L 3084 459 
L 3084 0 
L 275 0 
L 275 525 
L 2438 3041 
L 353 3041 
L 353 3500 
z
" transform="scale(0.015625)"/>
      </defs>
      <use xlink:href="#DejaVuSans-66"/>
      <use xlink:href="#DejaVuSans-75" x="35.205078"/>
      <use xlink:href="#DejaVuSans-7a" x="98.583984"/>
      <use xlink:href="#DejaVuSans-7a" x="151.074219"/>
      <use xlink:href="#DejaVuSans-65" x="203.564453"/>
      <use xlink:href="#DejaVuSans-72" x="265.087891"/>
     </g>
    </g>
    <g id="line2d_47">
     <path d="M 275.301 447.898125 
L 284.101 447.898125 
L 292.901 447.898125 
" style="fill: none; stroke: #db5f57; stroke-width: 1.2; stroke-linecap: round"/>
    </g>
    <g id="text_41">
     <!-- fairfuzz-0-exid4 -->
     <g style="fill: #262626" transform="translate(299.941 450.978125)scale(0.088 -0.088)">
      <defs>
       <path id="DejaVuSans-2d" d="M 313 2009 
L 1997 2009 
L 1997 1497 
L 313 1497 
L 313 2009 
z
" transform="scale(0.015625)"/>
       <path id="DejaVuSans-78" d="M 3513 3500 
L 2247 1797 
L 3578 0 
L 2900 0 
L 1881 1375 
L 863 0 
L 184 0 
L 1544 1831 
L 300 3500 
L 978 3500 
L 1906 2253 
L 2834 3500 
L 3513 3500 
z
" transform="scale(0.015625)"/>
      </defs>
      <use xlink:href="#DejaVuSans-66"/>
      <use xlink:href="#DejaVuSans-61" x="35.205078"/>
      <use xlink:href="#DejaVuSans-69" x="96.484375"/>
      <use xlink:href="#DejaVuSans-72" x="124.267578"/>
      <use xlink:href="#DejaVuSans-66" x="165.380859"/>
      <use xlink:href="#DejaVuSans-75" x="200.585938"/>
      <use xlink:href="#DejaVuSans-7a" x="263.964844"/>
      <use xlink:href="#DejaVuSans-7a" x="316.455078"/>
      <use xlink:href="#DejaVuSans-2d" x="368.945312"/>
      <use xlink:href="#DejaVuSans-30" x="405.029297"/>
      <use xlink:href="#DejaVuSans-2d" x="468.652344"/>
      <use xlink:href="#DejaVuSans-65" x="504.736328"/>
      <use xlink:href="#DejaVuSans-78" x="564.509766"/>
      <use xlink:href="#DejaVuSans-69" x="623.689453"/>
      <use xlink:href="#DejaVuSans-64" x="651.472656"/>
      <use xlink:href="#DejaVuSans-34" x="714.949219"/>
     </g>
    </g>
    <g id="line2d_48">
     <path d="M 275.301 460.814875 
L 284.101 460.814875 
L 292.901 460.814875 
" style="fill: none; stroke: #b9db57; stroke-width: 1.2; stroke-linecap: round"/>
    </g>
    <g id="text_42">
     <!-- mopt-0-exid4 -->
     <g style="fill: #262626" transform="translate(299.941 463.894875)scale(0.088 -0.088)">
      <defs>
       <path id="DejaVuSans-70" d="M 1159 525 
L 1159 -1331 
L 581 -1331 
L 581 3500 
L 1159 3500 
L 1159 2969 
Q 1341 3281 1617 3432 
Q 1894 3584 2278 3584 
Q 2916 3584 3314 3078 
Q 3713 2572 3713 1747 
Q 3713 922 3314 415 
Q 2916 -91 2278 -91 
Q 1894 -91 1617 61 
Q 1341 213 1159 525 
z
M 3116 1747 
Q 3116 2381 2855 2742 
Q 2594 3103 2138 3103 
Q 1681 3103 1420 2742 
Q 1159 2381 1159 1747 
Q 1159 1113 1420 752 
Q 1681 391 2138 391 
Q 2594 391 2855 752 
Q 3116 1113 3116 1747 
z
" transform="scale(0.015625)"/>
      </defs>
      <use xlink:href="#DejaVuSans-6d"/>
      <use xlink:href="#DejaVuSans-6f" x="97.412109"/>
      <use xlink:href="#DejaVuSans-70" x="158.59375"/>
      <use xlink:href="#DejaVuSans-74" x="222.070312"/>
      <use xlink:href="#DejaVuSans-2d" x="261.279297"/>
      <use xlink:href="#DejaVuSans-30" x="297.363281"/>
      <use xlink:href="#DejaVuSans-2d" x="360.986328"/>
      <use xlink:href="#DejaVuSans-65" x="397.070312"/>
      <use xlink:href="#DejaVuSans-78" x="456.84375"/>
      <use xlink:href="#DejaVuSans-69" x="516.023438"/>
      <use xlink:href="#DejaVuSans-64" x="543.806641"/>
      <use xlink:href="#DejaVuSans-34" x="607.283203"/>
     </g>
    </g>
    <g id="line2d_49">
     <path d="M 275.301 473.731625 
L 284.101 473.731625 
L 292.901 473.731625 
" style="fill: none; stroke: #57db94; stroke-width: 1.2; stroke-linecap: round"/>
    </g>
    <g id="text_43">
     <!-- symcc-0-exid4 -->
     <g style="fill: #262626" transform="translate(299.941 476.811625)scale(0.088 -0.088)">
      <defs>
       <path id="DejaVuSans-79" d="M 2059 -325 
Q 1816 -950 1584 -1140 
Q 1353 -1331 966 -1331 
L 506 -1331 
L 506 -850 
L 844 -850 
Q 1081 -850 1212 -737 
Q 1344 -625 1503 -206 
L 1606 56 
L 191 3500 
L 800 3500 
L 1894 763 
L 2988 3500 
L 3597 3500 
L 2059 -325 
z
" transform="scale(0.015625)"/>
       <path id="DejaVuSans-63" d="M 3122 3366 
L 3122 2828 
Q 2878 2963 2633 3030 
Q 2388 3097 2138 3097 
Q 1578 3097 1268 2742 
Q 959 2388 959 1747 
Q 959 1106 1268 751 
Q 1578 397 2138 397 
Q 2388 397 2633 464 
Q 2878 531 3122 666 
L 3122 134 
Q 2881 22 2623 -34 
Q 2366 -91 2075 -91 
Q 1284 -91 818 406 
Q 353 903 353 1747 
Q 353 2603 823 3093 
Q 1294 3584 2113 3584 
Q 2378 3584 2631 3529 
Q 2884 3475 3122 3366 
z
" transform="scale(0.015625)"/>
      </defs>
      <use xlink:href="#DejaVuSans-73"/>
      <use xlink:href="#DejaVuSans-79" x="52.099609"/>
      <use xlink:href="#DejaVuSans-6d" x="111.279297"/>
      <use xlink:href="#DejaVuSans-63" x="208.691406"/>
      <use xlink:href="#DejaVuSans-63" x="263.671875"/>
      <use xlink:href="#DejaVuSans-2d" x="318.652344"/>
      <use xlink:href="#DejaVuSans-30" x="354.736328"/>
      <use xlink:href="#DejaVuSans-2d" x="418.359375"/>
      <use xlink:href="#DejaVuSans-65" x="454.443359"/>
      <use xlink:href="#DejaVuSans-78" x="514.216797"/>
      <use xlink:href="#DejaVuSans-69" x="573.396484"/>
      <use xlink:href="#DejaVuSans-64" x="601.179688"/>
      <use xlink:href="#DejaVuSans-34" x="664.65625"/>
     </g>
    </g>
    <g id="line2d_50">
     <path d="M 275.301 486.648375 
L 284.101 486.648375 
L 292.901 486.648375 
" style="fill: none; stroke: #5784db; stroke-width: 1.2; stroke-linecap: round"/>
    </g>
    <g id="text_44">
     <!-- aflplusplus-0-exid4 -->
     <g style="fill: #262626" transform="translate(299.941 489.728375)scale(0.088 -0.088)">
      <defs>
       <path id="DejaVuSans-6c" d="M 603 4863 
L 1178 4863 
L 1178 0 
L 603 0 
L 603 4863 
z
" transform="scale(0.015625)"/>
      </defs>
      <use xlink:href="#DejaVuSans-61"/>
      <use xlink:href="#DejaVuSans-66" x="61.279297"/>
      <use xlink:href="#DejaVuSans-6c" x="96.484375"/>
      <use xlink:href="#DejaVuSans-70" x="124.267578"/>
      <use xlink:href="#DejaVuSans-6c" x="187.744141"/>
      <use xlink:href="#DejaVuSans-75" x="215.527344"/>
      <use xlink:href="#DejaVuSans-73" x="278.90625"/>
      <use xlink:href="#DejaVuSans-70" x="331.005859"/>
      <use xlink:href="#DejaVuSans-6c" x="394.482422"/>
      <use xlink:href="#DejaVuSans-75" x="422.265625"/>
      <use xlink:href="#DejaVuSans-73" x="485.644531"/>
      <use xlink:href="#DejaVuSans-2d" x="537.744141"/>
      <use xlink:href="#DejaVuSans-30" x="573.828125"/>
      <use xlink:href="#DejaVuSans-2d" x="637.451172"/>
      <use xlink:href="#DejaVuSans-65" x="673.535156"/>
      <use xlink:href="#DejaVuSans-78" x="733.308594"/>
      <use xlink:href="#DejaVuSans-69" x="792.488281"/>
      <use xlink:href="#DejaVuSans-64" x="820.271484"/>
      <use xlink:href="#DejaVuSans-34" x="883.748047"/>
     </g>
    </g>
    <g id="line2d_51">
     <path d="M 275.301 499.565125 
L 284.101 499.565125 
L 292.901 499.565125 
" style="fill: none; stroke: #c957db; stroke-width: 1.2; stroke-linecap: round"/>
    </g>
    <g id="text_45">
     <!-- fuzzer_global -->
     <g style="fill: #262626" transform="translate(299.941 502.645125)scale(0.088 -0.088)">
      <defs>
       <path id="DejaVuSans-5f" d="M 3263 -1063 
L 3263 -1509 
L -63 -1509 
L -63 -1063 
L 3263 -1063 
z
" transform="scale(0.015625)"/>
       <path id="DejaVuSans-62" d="M 3116 1747 
Q 3116 2381 2855 2742 
Q 2594 3103 2138 3103 
Q 1681 3103 1420 2742 
Q 1159 2381 1159 1747 
Q 1159 1113 1420 752 
Q 1681 391 2138 391 
Q 2594 391 2855 752 
Q 3116 1113 3116 1747 
z
M 1159 2969 
Q 1341 3281 1617 3432 
Q 1894 3584 2278 3584 
Q 2916 3584 3314 3078 
Q 3713 2572 3713 1747 
Q 3713 922 3314 415 
Q 2916 -91 2278 -91 
Q 1894 -91 1617 61 
Q 1341 213 1159 525 
L 1159 0 
L 581 0 
L 581 4863 
L 1159 4863 
L 1159 2969 
z
" transform="scale(0.015625)"/>
      </defs>
      <use xlink:href="#DejaVuSans-66"/>
      <use xlink:href="#DejaVuSans-75" x="35.205078"/>
      <use xlink:href="#DejaVuSans-7a" x="98.583984"/>
      <use xlink:href="#DejaVuSans-7a" x="151.074219"/>
      <use xlink:href="#DejaVuSans-65" x="203.564453"/>
      <use xlink:href="#DejaVuSans-72" x="265.087891"/>
      <use xlink:href="#DejaVuSans-5f" x="306.201172"/>
      <use xlink:href="#DejaVuSans-67" x="356.201172"/>
      <use xlink:href="#DejaVuSans-6c" x="419.677734"/>
      <use xlink:href="#DejaVuSans-6f" x="447.460938"/>
      <use xlink:href="#DejaVuSans-62" x="508.642578"/>
      <use xlink:href="#DejaVuSans-61" x="572.119141"/>
      <use xlink:href="#DejaVuSans-6c" x="633.398438"/>
     </g>
    </g>
   </g>
  </g>
 </g>
 <defs>
  <clipPath id="pb31c931765">
   <rect x="54.3375" y="69.12" width="336.8925" height="443.52"/>
  </clipPath>
 </defs>
</svg>
