<?xml version="1.0" encoding="utf-8" standalone="no"?>
<!DOCTYPE svg PUBLIC "-//W3C//DTD SVG 1.1//EN"
  "http://www.w3.org/Graphics/SVG/1.1/DTD/svg11.dtd">
<svg xmlns:xlink="http://www.w3.org/1999/xlink" width="434.7pt" height="576pt" viewBox="0 0 434.7 576" xmlns="http://www.w3.org/2000/svg" version="1.1">
 <metadata>
  <rdf:RDF xmlns:dc="http://purl.org/dc/elements/1.1/" xmlns:cc="http://creativecommons.org/ns#" xmlns:rdf="http://www.w3.org/1999/02/22-rdf-syntax-ns#">
   <cc:Work>
    <dc:type rdf:resource="http://purl.org/dc/dcmitype/StillImage"/>
    <dc:date>2022-09-15T11:03:33.334143</dc:date>
    <dc:format>image/svg+xml</dc:format>
    <dc:creator>
     <cc:Agent>
      <dc:title>Matplotlib v3.5.3, https://matplotlib.org/</dc:title>
     </cc:Agent>
    </dc:creator>
   </cc:Work>
  </rdf:RDF>
 </metadata>
 <defs>
  <style type="text/css">*{stroke-linejoin: round; stroke-linecap: butt}</style>
 </defs>
 <g id="figure_1">
  <g id="patch_1">
   <path d="M 0 576 
L 434.7 576 
L 434.7 0 
L 0 0 
z
" style="fill: #ffffff"/>
  </g>
  <g id="axes_1">
   <g id="patch_2">
    <path d="M 54.3375 512.64 
L 391.23 512.64 
L 391.23 69.12 
L 54.3375 69.12 
z
" style="fill: #ffffff"/>
   </g>
   <g id="matplotlib.axis_1">
    <g id="xtick_1">
     <g id="line2d_1">
      <path d="M 69.650795 512.64 
L 69.650795 69.12 
" clip-path="url(#p8892041279)" style="fill: none; stroke: #cccccc; stroke-width: 0.8; stroke-linecap: round"/>
     </g>
     <g id="text_1">
      <!-- 0 -->
      <g style="fill: #262626" transform="translate(69.388282 529.627249)rotate(-45)scale(0.088 -0.088)">
       <defs>
        <path id="DejaVuSans-30" d="M 2034 4250 
Q 1547 4250 1301 3770 
Q 1056 3291 1056 2328 
Q 1056 1369 1301 889 
Q 1547 409 2034 409 
Q 2525 409 2770 889 
Q 3016 1369 3016 2328 
Q 3016 3291 2770 3770 
Q 2525 4250 2034 4250 
z
M 2034 4750 
Q 2819 4750 3233 4129 
Q 3647 3509 3647 2328 
Q 3647 1150 3233 529 
Q 2819 -91 2034 -91 
Q 1250 -91 836 529 
Q 422 1150 422 2328 
Q 422 3509 836 4129 
Q 1250 4750 2034 4750 
z
" transform="scale(0.015625)"/>
       </defs>
       <use xlink:href="#DejaVuSans-30"/>
      </g>
     </g>
    </g>
    <g id="xtick_2">
     <g id="line2d_2">
      <path d="M 86.677392 512.64 
L 86.677392 69.12 
" clip-path="url(#p8892041279)" style="fill: none; stroke: #cccccc; stroke-width: 0.8; stroke-linecap: round"/>
     </g>
     <g id="text_2">
      <!-- 80 -->
      <g style="fill: #262626" transform="translate(84.435333 533.58634)rotate(-45)scale(0.088 -0.088)">
       <defs>
        <path id="DejaVuSans-38" d="M 2034 2216 
Q 1584 2216 1326 1975 
Q 1069 1734 1069 1313 
Q 1069 891 1326 650 
Q 1584 409 2034 409 
Q 2484 409 2743 651 
Q 3003 894 3003 1313 
Q 3003 1734 2745 1975 
Q 2488 2216 2034 2216 
z
M 1403 2484 
Q 997 2584 770 2862 
Q 544 3141 544 3541 
Q 544 4100 942 4425 
Q 1341 4750 2034 4750 
Q 2731 4750 3128 4425 
Q 3525 4100 3525 3541 
Q 3525 3141 3298 2862 
Q 3072 2584 2669 2484 
Q 3125 2378 3379 2068 
Q 3634 1759 3634 1313 
Q 3634 634 3220 271 
Q 2806 -91 2034 -91 
Q 1263 -91 848 271 
Q 434 634 434 1313 
Q 434 1759 690 2068 
Q 947 2378 1403 2484 
z
M 1172 3481 
Q 1172 3119 1398 2916 
Q 1625 2713 2034 2713 
Q 2441 2713 2670 2916 
Q 2900 3119 2900 3481 
Q 2900 3844 2670 4047 
Q 2441 4250 2034 4250 
Q 1625 4250 1398 4047 
Q 1172 3844 1172 3481 
z
" transform="scale(0.015625)"/>
       </defs>
       <use xlink:href="#DejaVuSans-38"/>
       <use xlink:href="#DejaVuSans-30" x="63.623047"/>
      </g>
     </g>
    </g>
    <g id="xtick_3">
     <g id="line2d_3">
      <path d="M 103.703989 512.64 
L 103.703989 69.12 
" clip-path="url(#p8892041279)" style="fill: none; stroke: #cccccc; stroke-width: 0.8; stroke-linecap: round"/>
     </g>
     <g id="text_3">
      <!-- 160 -->
      <g style="fill: #262626" transform="translate(99.482385 537.54543)rotate(-45)scale(0.088 -0.088)">
       <defs>
        <path id="DejaVuSans-31" d="M 794 531 
L 1825 531 
L 1825 4091 
L 703 3866 
L 703 4441 
L 1819 4666 
L 2450 4666 
L 2450 531 
L 3481 531 
L 3481 0 
L 794 0 
L 794 531 
z
" transform="scale(0.015625)"/>
        <path id="DejaVuSans-36" d="M 2113 2584 
Q 1688 2584 1439 2293 
Q 1191 2003 1191 1497 
Q 1191 994 1439 701 
Q 1688 409 2113 409 
Q 2538 409 2786 701 
Q 3034 994 3034 1497 
Q 3034 2003 2786 2293 
Q 2538 2584 2113 2584 
z
M 3366 4563 
L 3366 3988 
Q 3128 4100 2886 4159 
Q 2644 4219 2406 4219 
Q 1781 4219 1451 3797 
Q 1122 3375 1075 2522 
Q 1259 2794 1537 2939 
Q 1816 3084 2150 3084 
Q 2853 3084 3261 2657 
Q 3669 2231 3669 1497 
Q 3669 778 3244 343 
Q 2819 -91 2113 -91 
Q 1303 -91 875 529 
Q 447 1150 447 2328 
Q 447 3434 972 4092 
Q 1497 4750 2381 4750 
Q 2619 4750 2861 4703 
Q 3103 4656 3366 4563 
z
" transform="scale(0.015625)"/>
       </defs>
       <use xlink:href="#DejaVuSans-31"/>
       <use xlink:href="#DejaVuSans-36" x="63.623047"/>
       <use xlink:href="#DejaVuSans-30" x="127.246094"/>
      </g>
     </g>
    </g>
    <g id="xtick_4">
     <g id="line2d_4">
      <path d="M 120.730586 512.64 
L 120.730586 69.12 
" clip-path="url(#p8892041279)" style="fill: none; stroke: #cccccc; stroke-width: 0.8; stroke-linecap: round"/>
     </g>
     <g id="text_4">
      <!-- 240 -->
      <g style="fill: #262626" transform="translate(116.508981 537.54543)rotate(-45)scale(0.088 -0.088)">
       <defs>
        <path id="DejaVuSans-32" d="M 1228 531 
L 3431 531 
L 3431 0 
L 469 0 
L 469 531 
Q 828 903 1448 1529 
Q 2069 2156 2228 2338 
Q 2531 2678 2651 2914 
Q 2772 3150 2772 3378 
Q 2772 3750 2511 3984 
Q 2250 4219 1831 4219 
Q 1534 4219 1204 4116 
Q 875 4013 500 3803 
L 500 4441 
Q 881 4594 1212 4672 
Q 1544 4750 1819 4750 
Q 2544 4750 2975 4387 
Q 3406 4025 3406 3419 
Q 3406 3131 3298 2873 
Q 3191 2616 2906 2266 
Q 2828 2175 2409 1742 
Q 1991 1309 1228 531 
z
" transform="scale(0.015625)"/>
        <path id="DejaVuSans-34" d="M 2419 4116 
L 825 1625 
L 2419 1625 
L 2419 4116 
z
M 2253 4666 
L 3047 4666 
L 3047 1625 
L 3713 1625 
L 3713 1100 
L 3047 1100 
L 3047 0 
L 2419 0 
L 2419 1100 
L 313 1100 
L 313 1709 
L 2253 4666 
z
" transform="scale(0.015625)"/>
       </defs>
       <use xlink:href="#DejaVuSans-32"/>
       <use xlink:href="#DejaVuSans-34" x="63.623047"/>
       <use xlink:href="#DejaVuSans-30" x="127.246094"/>
      </g>
     </g>
    </g>
    <g id="xtick_5">
     <g id="line2d_5">
      <path d="M 137.757182 512.64 
L 137.757182 69.12 
" clip-path="url(#p8892041279)" style="fill: none; stroke: #cccccc; stroke-width: 0.8; stroke-linecap: round"/>
     </g>
     <g id="text_5">
      <!-- 320 -->
      <g style="fill: #262626" transform="translate(133.535578 537.54543)rotate(-45)scale(0.088 -0.088)">
       <defs>
        <path id="DejaVuSans-33" d="M 2597 2516 
Q 3050 2419 3304 2112 
Q 3559 1806 3559 1356 
Q 3559 666 3084 287 
Q 2609 -91 1734 -91 
Q 1441 -91 1130 -33 
Q 819 25 488 141 
L 488 750 
Q 750 597 1062 519 
Q 1375 441 1716 441 
Q 2309 441 2620 675 
Q 2931 909 2931 1356 
Q 2931 1769 2642 2001 
Q 2353 2234 1838 2234 
L 1294 2234 
L 1294 2753 
L 1863 2753 
Q 2328 2753 2575 2939 
Q 2822 3125 2822 3475 
Q 2822 3834 2567 4026 
Q 2313 4219 1838 4219 
Q 1578 4219 1281 4162 
Q 984 4106 628 3988 
L 628 4550 
Q 988 4650 1302 4700 
Q 1616 4750 1894 4750 
Q 2613 4750 3031 4423 
Q 3450 4097 3450 3541 
Q 3450 3153 3228 2886 
Q 3006 2619 2597 2516 
z
" transform="scale(0.015625)"/>
       </defs>
       <use xlink:href="#DejaVuSans-33"/>
       <use xlink:href="#DejaVuSans-32" x="63.623047"/>
       <use xlink:href="#DejaVuSans-30" x="127.246094"/>
      </g>
     </g>
    </g>
    <g id="xtick_6">
     <g id="line2d_6">
      <path d="M 154.783779 512.64 
L 154.783779 69.12 
" clip-path="url(#p8892041279)" style="fill: none; stroke: #cccccc; stroke-width: 0.8; stroke-linecap: round"/>
     </g>
     <g id="text_6">
      <!-- 400 -->
      <g style="fill: #262626" transform="translate(150.562175 537.54543)rotate(-45)scale(0.088 -0.088)">
       <use xlink:href="#DejaVuSans-34"/>
       <use xlink:href="#DejaVuSans-30" x="63.623047"/>
       <use xlink:href="#DejaVuSans-30" x="127.246094"/>
      </g>
     </g>
    </g>
    <g id="xtick_7">
     <g id="line2d_7">
      <path d="M 171.810376 512.64 
L 171.810376 69.12 
" clip-path="url(#p8892041279)" style="fill: none; stroke: #cccccc; stroke-width: 0.8; stroke-linecap: round"/>
     </g>
     <g id="text_7">
      <!-- 480 -->
      <g style="fill: #262626" transform="translate(167.588772 537.54543)rotate(-45)scale(0.088 -0.088)">
       <use xlink:href="#DejaVuSans-34"/>
       <use xlink:href="#DejaVuSans-38" x="63.623047"/>
       <use xlink:href="#DejaVuSans-30" x="127.246094"/>
      </g>
     </g>
    </g>
    <g id="xtick_8">
     <g id="line2d_8">
      <path d="M 188.836973 512.64 
L 188.836973 69.12 
" clip-path="url(#p8892041279)" style="fill: none; stroke: #cccccc; stroke-width: 0.8; stroke-linecap: round"/>
     </g>
     <g id="text_8">
      <!-- 560 -->
      <g style="fill: #262626" transform="translate(184.615368 537.54543)rotate(-45)scale(0.088 -0.088)">
       <defs>
        <path id="DejaVuSans-35" d="M 691 4666 
L 3169 4666 
L 3169 4134 
L 1269 4134 
L 1269 2991 
Q 1406 3038 1543 3061 
Q 1681 3084 1819 3084 
Q 2600 3084 3056 2656 
Q 3513 2228 3513 1497 
Q 3513 744 3044 326 
Q 2575 -91 1722 -91 
Q 1428 -91 1123 -41 
Q 819 9 494 109 
L 494 744 
Q 775 591 1075 516 
Q 1375 441 1709 441 
Q 2250 441 2565 725 
Q 2881 1009 2881 1497 
Q 2881 1984 2565 2268 
Q 2250 2553 1709 2553 
Q 1456 2553 1204 2497 
Q 953 2441 691 2322 
L 691 4666 
z
" transform="scale(0.015625)"/>
       </defs>
       <use xlink:href="#DejaVuSans-35"/>
       <use xlink:href="#DejaVuSans-36" x="63.623047"/>
       <use xlink:href="#DejaVuSans-30" x="127.246094"/>
      </g>
     </g>
    </g>
    <g id="xtick_9">
     <g id="line2d_9">
      <path d="M 205.863569 512.64 
L 205.863569 69.12 
" clip-path="url(#p8892041279)" style="fill: none; stroke: #cccccc; stroke-width: 0.8; stroke-linecap: round"/>
     </g>
     <g id="text_9">
      <!-- 640 -->
      <g style="fill: #262626" transform="translate(201.641965 537.54543)rotate(-45)scale(0.088 -0.088)">
       <use xlink:href="#DejaVuSans-36"/>
       <use xlink:href="#DejaVuSans-34" x="63.623047"/>
       <use xlink:href="#DejaVuSans-30" x="127.246094"/>
      </g>
     </g>
    </g>
    <g id="xtick_10">
     <g id="line2d_10">
      <path d="M 222.890166 512.64 
L 222.890166 69.12 
" clip-path="url(#p8892041279)" style="fill: none; stroke: #cccccc; stroke-width: 0.8; stroke-linecap: round"/>
     </g>
     <g id="text_10">
      <!-- 720 -->
      <g style="fill: #262626" transform="translate(218.668562 537.54543)rotate(-45)scale(0.088 -0.088)">
       <defs>
        <path id="DejaVuSans-37" d="M 525 4666 
L 3525 4666 
L 3525 4397 
L 1831 0 
L 1172 0 
L 2766 4134 
L 525 4134 
L 525 4666 
z
" transform="scale(0.015625)"/>
       </defs>
       <use xlink:href="#DejaVuSans-37"/>
       <use xlink:href="#DejaVuSans-32" x="63.623047"/>
       <use xlink:href="#DejaVuSans-30" x="127.246094"/>
      </g>
     </g>
    </g>
    <g id="xtick_11">
     <g id="line2d_11">
      <path d="M 239.916763 512.64 
L 239.916763 69.12 
" clip-path="url(#p8892041279)" style="fill: none; stroke: #cccccc; stroke-width: 0.8; stroke-linecap: round"/>
     </g>
     <g id="text_11">
      <!-- 800 -->
      <g style="fill: #262626" transform="translate(235.695159 537.54543)rotate(-45)scale(0.088 -0.088)">
       <use xlink:href="#DejaVuSans-38"/>
       <use xlink:href="#DejaVuSans-30" x="63.623047"/>
       <use xlink:href="#DejaVuSans-30" x="127.246094"/>
      </g>
     </g>
    </g>
    <g id="xtick_12">
     <g id="line2d_12">
      <path d="M 256.94336 512.64 
L 256.94336 69.12 
" clip-path="url(#p8892041279)" style="fill: none; stroke: #cccccc; stroke-width: 0.8; stroke-linecap: round"/>
     </g>
     <g id="text_12">
      <!-- 880 -->
      <g style="fill: #262626" transform="translate(252.721755 537.54543)rotate(-45)scale(0.088 -0.088)">
       <use xlink:href="#DejaVuSans-38"/>
       <use xlink:href="#DejaVuSans-38" x="63.623047"/>
       <use xlink:href="#DejaVuSans-30" x="127.246094"/>
      </g>
     </g>
    </g>
    <g id="xtick_13">
     <g id="line2d_13">
      <path d="M 273.969956 512.64 
L 273.969956 69.12 
" clip-path="url(#p8892041279)" style="fill: none; stroke: #cccccc; stroke-width: 0.8; stroke-linecap: round"/>
     </g>
     <g id="text_13">
      <!-- 960 -->
      <g style="fill: #262626" transform="translate(269.748352 537.54543)rotate(-45)scale(0.088 -0.088)">
       <defs>
        <path id="DejaVuSans-39" d="M 703 97 
L 703 672 
Q 941 559 1184 500 
Q 1428 441 1663 441 
Q 2288 441 2617 861 
Q 2947 1281 2994 2138 
Q 2813 1869 2534 1725 
Q 2256 1581 1919 1581 
Q 1219 1581 811 2004 
Q 403 2428 403 3163 
Q 403 3881 828 4315 
Q 1253 4750 1959 4750 
Q 2769 4750 3195 4129 
Q 3622 3509 3622 2328 
Q 3622 1225 3098 567 
Q 2575 -91 1691 -91 
Q 1453 -91 1209 -44 
Q 966 3 703 97 
z
M 1959 2075 
Q 2384 2075 2632 2365 
Q 2881 2656 2881 3163 
Q 2881 3666 2632 3958 
Q 2384 4250 1959 4250 
Q 1534 4250 1286 3958 
Q 1038 3666 1038 3163 
Q 1038 2656 1286 2365 
Q 1534 2075 1959 2075 
z
" transform="scale(0.015625)"/>
       </defs>
       <use xlink:href="#DejaVuSans-39"/>
       <use xlink:href="#DejaVuSans-36" x="63.623047"/>
       <use xlink:href="#DejaVuSans-30" x="127.246094"/>
      </g>
     </g>
    </g>
    <g id="xtick_14">
     <g id="line2d_14">
      <path d="M 290.996553 512.64 
L 290.996553 69.12 
" clip-path="url(#p8892041279)" style="fill: none; stroke: #cccccc; stroke-width: 0.8; stroke-linecap: round"/>
     </g>
     <g id="text_14">
      <!-- 1040 -->
      <g style="fill: #262626" transform="translate(284.795404 541.504521)rotate(-45)scale(0.088 -0.088)">
       <use xlink:href="#DejaVuSans-31"/>
       <use xlink:href="#DejaVuSans-30" x="63.623047"/>
       <use xlink:href="#DejaVuSans-34" x="127.246094"/>
       <use xlink:href="#DejaVuSans-30" x="190.869141"/>
      </g>
     </g>
    </g>
    <g id="xtick_15">
     <g id="line2d_15">
      <path d="M 308.02315 512.64 
L 308.02315 69.12 
" clip-path="url(#p8892041279)" style="fill: none; stroke: #cccccc; stroke-width: 0.8; stroke-linecap: round"/>
     </g>
     <g id="text_15">
      <!-- 1120 -->
      <g style="fill: #262626" transform="translate(301.822 541.504521)rotate(-45)scale(0.088 -0.088)">
       <use xlink:href="#DejaVuSans-31"/>
       <use xlink:href="#DejaVuSans-31" x="63.623047"/>
       <use xlink:href="#DejaVuSans-32" x="127.246094"/>
       <use xlink:href="#DejaVuSans-30" x="190.869141"/>
      </g>
     </g>
    </g>
    <g id="xtick_16">
     <g id="line2d_16">
      <path d="M 325.049747 512.64 
L 325.049747 69.12 
" clip-path="url(#p8892041279)" style="fill: none; stroke: #cccccc; stroke-width: 0.8; stroke-linecap: round"/>
     </g>
     <g id="text_16">
      <!-- 1200 -->
      <g style="fill: #262626" transform="translate(318.848597 541.504521)rotate(-45)scale(0.088 -0.088)">
       <use xlink:href="#DejaVuSans-31"/>
       <use xlink:href="#DejaVuSans-32" x="63.623047"/>
       <use xlink:href="#DejaVuSans-30" x="127.246094"/>
       <use xlink:href="#DejaVuSans-30" x="190.869141"/>
      </g>
     </g>
    </g>
    <g id="xtick_17">
     <g id="line2d_17">
      <path d="M 342.076343 512.64 
L 342.076343 69.12 
" clip-path="url(#p8892041279)" style="fill: none; stroke: #cccccc; stroke-width: 0.8; stroke-linecap: round"/>
     </g>
     <g id="text_17">
      <!-- 1280 -->
      <g style="fill: #262626" transform="translate(335.875194 541.504521)rotate(-45)scale(0.088 -0.088)">
       <use xlink:href="#DejaVuSans-31"/>
       <use xlink:href="#DejaVuSans-32" x="63.623047"/>
       <use xlink:href="#DejaVuSans-38" x="127.246094"/>
       <use xlink:href="#DejaVuSans-30" x="190.869141"/>
      </g>
     </g>
    </g>
    <g id="xtick_18">
     <g id="line2d_18">
      <path d="M 359.10294 512.64 
L 359.10294 69.12 
" clip-path="url(#p8892041279)" style="fill: none; stroke: #cccccc; stroke-width: 0.8; stroke-linecap: round"/>
     </g>
     <g id="text_18">
      <!-- 1360 -->
      <g style="fill: #262626" transform="translate(352.901791 541.504521)rotate(-45)scale(0.088 -0.088)">
       <use xlink:href="#DejaVuSans-31"/>
       <use xlink:href="#DejaVuSans-33" x="63.623047"/>
       <use xlink:href="#DejaVuSans-36" x="127.246094"/>
       <use xlink:href="#DejaVuSans-30" x="190.869141"/>
      </g>
     </g>
    </g>
    <g id="xtick_19">
     <g id="line2d_19">
      <path d="M 376.129537 512.64 
L 376.129537 69.12 
" clip-path="url(#p8892041279)" style="fill: none; stroke: #cccccc; stroke-width: 0.8; stroke-linecap: round"/>
     </g>
     <g id="text_19">
      <!-- 1440 -->
      <g style="fill: #262626" transform="translate(369.928387 541.504521)rotate(-45)scale(0.088 -0.088)">
       <use xlink:href="#DejaVuSans-31"/>
       <use xlink:href="#DejaVuSans-34" x="63.623047"/>
       <use xlink:href="#DejaVuSans-34" x="127.246094"/>
       <use xlink:href="#DejaVuSans-30" x="190.869141"/>
      </g>
     </g>
    </g>
    <g id="text_20">
     <!-- Time (Minutes) -->
     <g style="fill: #262626" transform="translate(186.87375 554.093115)scale(0.096 -0.096)">
      <defs>
       <path id="DejaVuSans-54" d="M -19 4666 
L 3928 4666 
L 3928 4134 
L 2272 4134 
L 2272 0 
L 1638 0 
L 1638 4134 
L -19 4134 
L -19 4666 
z
" transform="scale(0.015625)"/>
       <path id="DejaVuSans-69" d="M 603 3500 
L 1178 3500 
L 1178 0 
L 603 0 
L 603 3500 
z
M 603 4863 
L 1178 4863 
L 1178 4134 
L 603 4134 
L 603 4863 
z
" transform="scale(0.015625)"/>
       <path id="DejaVuSans-6d" d="M 3328 2828 
Q 3544 3216 3844 3400 
Q 4144 3584 4550 3584 
Q 5097 3584 5394 3201 
Q 5691 2819 5691 2113 
L 5691 0 
L 5113 0 
L 5113 2094 
Q 5113 2597 4934 2840 
Q 4756 3084 4391 3084 
Q 3944 3084 3684 2787 
Q 3425 2491 3425 1978 
L 3425 0 
L 2847 0 
L 2847 2094 
Q 2847 2600 2669 2842 
Q 2491 3084 2119 3084 
Q 1678 3084 1418 2786 
Q 1159 2488 1159 1978 
L 1159 0 
L 581 0 
L 581 3500 
L 1159 3500 
L 1159 2956 
Q 1356 3278 1631 3431 
Q 1906 3584 2284 3584 
Q 2666 3584 2933 3390 
Q 3200 3197 3328 2828 
z
" transform="scale(0.015625)"/>
       <path id="DejaVuSans-65" d="M 3597 1894 
L 3597 1613 
L 953 1613 
Q 991 1019 1311 708 
Q 1631 397 2203 397 
Q 2534 397 2845 478 
Q 3156 559 3463 722 
L 3463 178 
Q 3153 47 2828 -22 
Q 2503 -91 2169 -91 
Q 1331 -91 842 396 
Q 353 884 353 1716 
Q 353 2575 817 3079 
Q 1281 3584 2069 3584 
Q 2775 3584 3186 3129 
Q 3597 2675 3597 1894 
z
M 3022 2063 
Q 3016 2534 2758 2815 
Q 2500 3097 2075 3097 
Q 1594 3097 1305 2825 
Q 1016 2553 972 2059 
L 3022 2063 
z
" transform="scale(0.015625)"/>
       <path id="DejaVuSans-20" transform="scale(0.015625)"/>
       <path id="DejaVuSans-28" d="M 1984 4856 
Q 1566 4138 1362 3434 
Q 1159 2731 1159 2009 
Q 1159 1288 1364 580 
Q 1569 -128 1984 -844 
L 1484 -844 
Q 1016 -109 783 600 
Q 550 1309 550 2009 
Q 550 2706 781 3412 
Q 1013 4119 1484 4856 
L 1984 4856 
z
" transform="scale(0.015625)"/>
       <path id="DejaVuSans-4d" d="M 628 4666 
L 1569 4666 
L 2759 1491 
L 3956 4666 
L 4897 4666 
L 4897 0 
L 4281 0 
L 4281 4097 
L 3078 897 
L 2444 897 
L 1241 4097 
L 1241 0 
L 628 0 
L 628 4666 
z
" transform="scale(0.015625)"/>
       <path id="DejaVuSans-6e" d="M 3513 2113 
L 3513 0 
L 2938 0 
L 2938 2094 
Q 2938 2591 2744 2837 
Q 2550 3084 2163 3084 
Q 1697 3084 1428 2787 
Q 1159 2491 1159 1978 
L 1159 0 
L 581 0 
L 581 3500 
L 1159 3500 
L 1159 2956 
Q 1366 3272 1645 3428 
Q 1925 3584 2291 3584 
Q 2894 3584 3203 3211 
Q 3513 2838 3513 2113 
z
" transform="scale(0.015625)"/>
       <path id="DejaVuSans-75" d="M 544 1381 
L 544 3500 
L 1119 3500 
L 1119 1403 
Q 1119 906 1312 657 
Q 1506 409 1894 409 
Q 2359 409 2629 706 
Q 2900 1003 2900 1516 
L 2900 3500 
L 3475 3500 
L 3475 0 
L 2900 0 
L 2900 538 
Q 2691 219 2414 64 
Q 2138 -91 1772 -91 
Q 1169 -91 856 284 
Q 544 659 544 1381 
z
M 1991 3584 
L 1991 3584 
z
" transform="scale(0.015625)"/>
       <path id="DejaVuSans-74" d="M 1172 4494 
L 1172 3500 
L 2356 3500 
L 2356 3053 
L 1172 3053 
L 1172 1153 
Q 1172 725 1289 603 
Q 1406 481 1766 481 
L 2356 481 
L 2356 0 
L 1766 0 
Q 1100 0 847 248 
Q 594 497 594 1153 
L 594 3053 
L 172 3053 
L 172 3500 
L 594 3500 
L 594 4494 
L 1172 4494 
z
" transform="scale(0.015625)"/>
       <path id="DejaVuSans-73" d="M 2834 3397 
L 2834 2853 
Q 2591 2978 2328 3040 
Q 2066 3103 1784 3103 
Q 1356 3103 1142 2972 
Q 928 2841 928 2578 
Q 928 2378 1081 2264 
Q 1234 2150 1697 2047 
L 1894 2003 
Q 2506 1872 2764 1633 
Q 3022 1394 3022 966 
Q 3022 478 2636 193 
Q 2250 -91 1575 -91 
Q 1294 -91 989 -36 
Q 684 19 347 128 
L 347 722 
Q 666 556 975 473 
Q 1284 391 1588 391 
Q 1994 391 2212 530 
Q 2431 669 2431 922 
Q 2431 1156 2273 1281 
Q 2116 1406 1581 1522 
L 1381 1569 
Q 847 1681 609 1914 
Q 372 2147 372 2553 
Q 372 3047 722 3315 
Q 1072 3584 1716 3584 
Q 2034 3584 2315 3537 
Q 2597 3491 2834 3397 
z
" transform="scale(0.015625)"/>
       <path id="DejaVuSans-29" d="M 513 4856 
L 1013 4856 
Q 1481 4119 1714 3412 
Q 1947 2706 1947 2009 
Q 1947 1309 1714 600 
Q 1481 -109 1013 -844 
L 513 -844 
Q 928 -128 1133 580 
Q 1338 1288 1338 2009 
Q 1338 2731 1133 3434 
Q 928 4138 513 4856 
z
" transform="scale(0.015625)"/>
      </defs>
      <use xlink:href="#DejaVuSans-54"/>
      <use xlink:href="#DejaVuSans-69" x="57.958984"/>
      <use xlink:href="#DejaVuSans-6d" x="85.742188"/>
      <use xlink:href="#DejaVuSans-65" x="183.154297"/>
      <use xlink:href="#DejaVuSans-20" x="244.677734"/>
      <use xlink:href="#DejaVuSans-28" x="276.464844"/>
      <use xlink:href="#DejaVuSans-4d" x="315.478516"/>
      <use xlink:href="#DejaVuSans-69" x="401.757812"/>
      <use xlink:href="#DejaVuSans-6e" x="429.541016"/>
      <use xlink:href="#DejaVuSans-75" x="492.919922"/>
      <use xlink:href="#DejaVuSans-74" x="556.298828"/>
      <use xlink:href="#DejaVuSans-65" x="595.507812"/>
      <use xlink:href="#DejaVuSans-73" x="657.03125"/>
      <use xlink:href="#DejaVuSans-29" x="709.130859"/>
     </g>
    </g>
   </g>
   <g id="matplotlib.axis_2">
    <g id="ytick_1">
     <g id="line2d_20">
      <path d="M 54.3375 492.48 
L 391.23 492.48 
" clip-path="url(#p8892041279)" style="fill: none; stroke: #cccccc; stroke-width: 0.8; stroke-linecap: round"/>
     </g>
     <g id="text_21">
      <!-- 0 -->
      <g style="fill: #262626" transform="translate(40.4385 495.823312)scale(0.088 -0.088)">
       <use xlink:href="#DejaVuSans-30"/>
      </g>
     </g>
    </g>
    <g id="ytick_2">
     <g id="line2d_21">
      <path d="M 54.3375 476.605984 
L 391.23 476.605984 
" clip-path="url(#p8892041279)" style="fill: none; stroke: #cccccc; stroke-width: 0.8; stroke-linecap: round"/>
     </g>
     <g id="text_22">
      <!-- 100 -->
      <g style="fill: #262626" transform="translate(29.2405 479.949297)scale(0.088 -0.088)">
       <use xlink:href="#DejaVuSans-31"/>
       <use xlink:href="#DejaVuSans-30" x="63.623047"/>
       <use xlink:href="#DejaVuSans-30" x="127.246094"/>
      </g>
     </g>
    </g>
    <g id="ytick_3">
     <g id="line2d_22">
      <path d="M 54.3375 460.731969 
L 391.23 460.731969 
" clip-path="url(#p8892041279)" style="fill: none; stroke: #cccccc; stroke-width: 0.8; stroke-linecap: round"/>
     </g>
     <g id="text_23">
      <!-- 200 -->
      <g style="fill: #262626" transform="translate(29.2405 464.075281)scale(0.088 -0.088)">
       <use xlink:href="#DejaVuSans-32"/>
       <use xlink:href="#DejaVuSans-30" x="63.623047"/>
       <use xlink:href="#DejaVuSans-30" x="127.246094"/>
      </g>
     </g>
    </g>
    <g id="ytick_4">
     <g id="line2d_23">
      <path d="M 54.3375 444.857953 
L 391.23 444.857953 
" clip-path="url(#p8892041279)" style="fill: none; stroke: #cccccc; stroke-width: 0.8; stroke-linecap: round"/>
     </g>
     <g id="text_24">
      <!-- 300 -->
      <g style="fill: #262626" transform="translate(29.2405 448.201265)scale(0.088 -0.088)">
       <use xlink:href="#DejaVuSans-33"/>
       <use xlink:href="#DejaVuSans-30" x="63.623047"/>
       <use xlink:href="#DejaVuSans-30" x="127.246094"/>
      </g>
     </g>
    </g>
    <g id="ytick_5">
     <g id="line2d_24">
      <path d="M 54.3375 428.983937 
L 391.23 428.983937 
" clip-path="url(#p8892041279)" style="fill: none; stroke: #cccccc; stroke-width: 0.8; stroke-linecap: round"/>
     </g>
     <g id="text_25">
      <!-- 400 -->
      <g style="fill: #262626" transform="translate(29.2405 432.32725)scale(0.088 -0.088)">
       <use xlink:href="#DejaVuSans-34"/>
       <use xlink:href="#DejaVuSans-30" x="63.623047"/>
       <use xlink:href="#DejaVuSans-30" x="127.246094"/>
      </g>
     </g>
    </g>
    <g id="ytick_6">
     <g id="line2d_25">
      <path d="M 54.3375 413.109921 
L 391.23 413.109921 
" clip-path="url(#p8892041279)" style="fill: none; stroke: #cccccc; stroke-width: 0.8; stroke-linecap: round"/>
     </g>
     <g id="text_26">
      <!-- 500 -->
      <g style="fill: #262626" transform="translate(29.2405 416.453234)scale(0.088 -0.088)">
       <use xlink:href="#DejaVuSans-35"/>
       <use xlink:href="#DejaVuSans-30" x="63.623047"/>
       <use xlink:href="#DejaVuSans-30" x="127.246094"/>
      </g>
     </g>
    </g>
    <g id="ytick_7">
     <g id="line2d_26">
      <path d="M 54.3375 397.235906 
L 391.23 397.235906 
" clip-path="url(#p8892041279)" style="fill: none; stroke: #cccccc; stroke-width: 0.8; stroke-linecap: round"/>
     </g>
     <g id="text_27">
      <!-- 600 -->
      <g style="fill: #262626" transform="translate(29.2405 400.579218)scale(0.088 -0.088)">
       <use xlink:href="#DejaVuSans-36"/>
       <use xlink:href="#DejaVuSans-30" x="63.623047"/>
       <use xlink:href="#DejaVuSans-30" x="127.246094"/>
      </g>
     </g>
    </g>
    <g id="ytick_8">
     <g id="line2d_27">
      <path d="M 54.3375 381.36189 
L 391.23 381.36189 
" clip-path="url(#p8892041279)" style="fill: none; stroke: #cccccc; stroke-width: 0.8; stroke-linecap: round"/>
     </g>
     <g id="text_28">
      <!-- 700 -->
      <g style="fill: #262626" transform="translate(29.2405 384.705202)scale(0.088 -0.088)">
       <use xlink:href="#DejaVuSans-37"/>
       <use xlink:href="#DejaVuSans-30" x="63.623047"/>
       <use xlink:href="#DejaVuSans-30" x="127.246094"/>
      </g>
     </g>
    </g>
    <g id="ytick_9">
     <g id="line2d_28">
      <path d="M 54.3375 365.487874 
L 391.23 365.487874 
" clip-path="url(#p8892041279)" style="fill: none; stroke: #cccccc; stroke-width: 0.8; stroke-linecap: round"/>
     </g>
     <g id="text_29">
      <!-- 800 -->
      <g style="fill: #262626" transform="translate(29.2405 368.831187)scale(0.088 -0.088)">
       <use xlink:href="#DejaVuSans-38"/>
       <use xlink:href="#DejaVuSans-30" x="63.623047"/>
       <use xlink:href="#DejaVuSans-30" x="127.246094"/>
      </g>
     </g>
    </g>
    <g id="ytick_10">
     <g id="line2d_29">
      <path d="M 54.3375 349.613858 
L 391.23 349.613858 
" clip-path="url(#p8892041279)" style="fill: none; stroke: #cccccc; stroke-width: 0.8; stroke-linecap: round"/>
     </g>
     <g id="text_30">
      <!-- 900 -->
      <g style="fill: #262626" transform="translate(29.2405 352.957171)scale(0.088 -0.088)">
       <use xlink:href="#DejaVuSans-39"/>
       <use xlink:href="#DejaVuSans-30" x="63.623047"/>
       <use xlink:href="#DejaVuSans-30" x="127.246094"/>
      </g>
     </g>
    </g>
    <g id="ytick_11">
     <g id="line2d_30">
      <path d="M 54.3375 333.739843 
L 391.23 333.739843 
" clip-path="url(#p8892041279)" style="fill: none; stroke: #cccccc; stroke-width: 0.8; stroke-linecap: round"/>
     </g>
     <g id="text_31">
      <!-- 1000 -->
      <g style="fill: #262626" transform="translate(23.6415 337.083155)scale(0.088 -0.088)">
       <use xlink:href="#DejaVuSans-31"/>
       <use xlink:href="#DejaVuSans-30" x="63.623047"/>
       <use xlink:href="#DejaVuSans-30" x="127.246094"/>
       <use xlink:href="#DejaVuSans-30" x="190.869141"/>
      </g>
     </g>
    </g>
    <g id="ytick_12">
     <g id="line2d_31">
      <path d="M 54.3375 317.865827 
L 391.23 317.865827 
" clip-path="url(#p8892041279)" style="fill: none; stroke: #cccccc; stroke-width: 0.8; stroke-linecap: round"/>
     </g>
     <g id="text_32">
      <!-- 1100 -->
      <g style="fill: #262626" transform="translate(23.6415 321.209139)scale(0.088 -0.088)">
       <use xlink:href="#DejaVuSans-31"/>
       <use xlink:href="#DejaVuSans-31" x="63.623047"/>
       <use xlink:href="#DejaVuSans-30" x="127.246094"/>
       <use xlink:href="#DejaVuSans-30" x="190.869141"/>
      </g>
     </g>
    </g>
    <g id="ytick_13">
     <g id="line2d_32">
      <path d="M 54.3375 301.991811 
L 391.23 301.991811 
" clip-path="url(#p8892041279)" style="fill: none; stroke: #cccccc; stroke-width: 0.8; stroke-linecap: round"/>
     </g>
     <g id="text_33">
      <!-- 1200 -->
      <g style="fill: #262626" transform="translate(23.6415 305.335124)scale(0.088 -0.088)">
       <use xlink:href="#DejaVuSans-31"/>
       <use xlink:href="#DejaVuSans-32" x="63.623047"/>
       <use xlink:href="#DejaVuSans-30" x="127.246094"/>
       <use xlink:href="#DejaVuSans-30" x="190.869141"/>
      </g>
     </g>
    </g>
    <g id="ytick_14">
     <g id="line2d_33">
      <path d="M 54.3375 286.117795 
L 391.23 286.117795 
" clip-path="url(#p8892041279)" style="fill: none; stroke: #cccccc; stroke-width: 0.8; stroke-linecap: round"/>
     </g>
     <g id="text_34">
      <!-- 1300 -->
      <g style="fill: #262626" transform="translate(23.6415 289.461108)scale(0.088 -0.088)">
       <use xlink:href="#DejaVuSans-31"/>
       <use xlink:href="#DejaVuSans-33" x="63.623047"/>
       <use xlink:href="#DejaVuSans-30" x="127.246094"/>
       <use xlink:href="#DejaVuSans-30" x="190.869141"/>
      </g>
     </g>
    </g>
    <g id="ytick_15">
     <g id="line2d_34">
      <path d="M 54.3375 270.24378 
L 391.23 270.24378 
" clip-path="url(#p8892041279)" style="fill: none; stroke: #cccccc; stroke-width: 0.8; stroke-linecap: round"/>
     </g>
     <g id="text_35">
      <!-- 1400 -->
      <g style="fill: #262626" transform="translate(23.6415 273.587092)scale(0.088 -0.088)">
       <use xlink:href="#DejaVuSans-31"/>
       <use xlink:href="#DejaVuSans-34" x="63.623047"/>
       <use xlink:href="#DejaVuSans-30" x="127.246094"/>
       <use xlink:href="#DejaVuSans-30" x="190.869141"/>
      </g>
     </g>
    </g>
    <g id="ytick_16">
     <g id="line2d_35">
      <path d="M 54.3375 254.369764 
L 391.23 254.369764 
" clip-path="url(#p8892041279)" style="fill: none; stroke: #cccccc; stroke-width: 0.8; stroke-linecap: round"/>
     </g>
     <g id="text_36">
      <!-- 1500 -->
      <g style="fill: #262626" transform="translate(23.6415 257.713076)scale(0.088 -0.088)">
       <use xlink:href="#DejaVuSans-31"/>
       <use xlink:href="#DejaVuSans-35" x="63.623047"/>
       <use xlink:href="#DejaVuSans-30" x="127.246094"/>
       <use xlink:href="#DejaVuSans-30" x="190.869141"/>
      </g>
     </g>
    </g>
    <g id="ytick_17">
     <g id="line2d_36">
      <path d="M 54.3375 238.495748 
L 391.23 238.495748 
" clip-path="url(#p8892041279)" style="fill: none; stroke: #cccccc; stroke-width: 0.8; stroke-linecap: round"/>
     </g>
     <g id="text_37">
      <!-- 1600 -->
      <g style="fill: #262626" transform="translate(23.6415 241.839061)scale(0.088 -0.088)">
       <use xlink:href="#DejaVuSans-31"/>
       <use xlink:href="#DejaVuSans-36" x="63.623047"/>
       <use xlink:href="#DejaVuSans-30" x="127.246094"/>
       <use xlink:href="#DejaVuSans-30" x="190.869141"/>
      </g>
     </g>
    </g>
    <g id="ytick_18">
     <g id="line2d_37">
      <path d="M 54.3375 222.621732 
L 391.23 222.621732 
" clip-path="url(#p8892041279)" style="fill: none; stroke: #cccccc; stroke-width: 0.8; stroke-linecap: round"/>
     </g>
     <g id="text_38">
      <!-- 1700 -->
      <g style="fill: #262626" transform="translate(23.6415 225.965045)scale(0.088 -0.088)">
       <use xlink:href="#DejaVuSans-31"/>
       <use xlink:href="#DejaVuSans-37" x="63.623047"/>
       <use xlink:href="#DejaVuSans-30" x="127.246094"/>
       <use xlink:href="#DejaVuSans-30" x="190.869141"/>
      </g>
     </g>
    </g>
    <g id="ytick_19">
     <g id="line2d_38">
      <path d="M 54.3375 206.747717 
L 391.23 206.747717 
" clip-path="url(#p8892041279)" style="fill: none; stroke: #cccccc; stroke-width: 0.8; stroke-linecap: round"/>
     </g>
     <g id="text_39">
      <!-- 1800 -->
      <g style="fill: #262626" transform="translate(23.6415 210.091029)scale(0.088 -0.088)">
       <use xlink:href="#DejaVuSans-31"/>
       <use xlink:href="#DejaVuSans-38" x="63.623047"/>
       <use xlink:href="#DejaVuSans-30" x="127.246094"/>
       <use xlink:href="#DejaVuSans-30" x="190.869141"/>
      </g>
     </g>
    </g>
    <g id="ytick_20">
     <g id="line2d_39">
      <path d="M 54.3375 190.873701 
L 391.23 190.873701 
" clip-path="url(#p8892041279)" style="fill: none; stroke: #cccccc; stroke-width: 0.8; stroke-linecap: round"/>
     </g>
     <g id="text_40">
      <!-- 1900 -->
      <g style="fill: #262626" transform="translate(23.6415 194.217013)scale(0.088 -0.088)">
       <use xlink:href="#DejaVuSans-31"/>
       <use xlink:href="#DejaVuSans-39" x="63.623047"/>
       <use xlink:href="#DejaVuSans-30" x="127.246094"/>
       <use xlink:href="#DejaVuSans-30" x="190.869141"/>
      </g>
     </g>
    </g>
    <g id="ytick_21">
     <g id="line2d_40">
      <path d="M 54.3375 174.999685 
L 391.23 174.999685 
" clip-path="url(#p8892041279)" style="fill: none; stroke: #cccccc; stroke-width: 0.8; stroke-linecap: round"/>
     </g>
     <g id="text_41">
      <!-- 2000 -->
      <g style="fill: #262626" transform="translate(23.6415 178.342998)scale(0.088 -0.088)">
       <use xlink:href="#DejaVuSans-32"/>
       <use xlink:href="#DejaVuSans-30" x="63.623047"/>
       <use xlink:href="#DejaVuSans-30" x="127.246094"/>
       <use xlink:href="#DejaVuSans-30" x="190.869141"/>
      </g>
     </g>
    </g>
    <g id="ytick_22">
     <g id="line2d_41">
      <path d="M 54.3375 159.125669 
L 391.23 159.125669 
" clip-path="url(#p8892041279)" style="fill: none; stroke: #cccccc; stroke-width: 0.8; stroke-linecap: round"/>
     </g>
     <g id="text_42">
      <!-- 2100 -->
      <g style="fill: #262626" transform="translate(23.6415 162.468982)scale(0.088 -0.088)">
       <use xlink:href="#DejaVuSans-32"/>
       <use xlink:href="#DejaVuSans-31" x="63.623047"/>
       <use xlink:href="#DejaVuSans-30" x="127.246094"/>
       <use xlink:href="#DejaVuSans-30" x="190.869141"/>
      </g>
     </g>
    </g>
    <g id="ytick_23">
     <g id="line2d_42">
      <path d="M 54.3375 143.251654 
L 391.23 143.251654 
" clip-path="url(#p8892041279)" style="fill: none; stroke: #cccccc; stroke-width: 0.8; stroke-linecap: round"/>
     </g>
     <g id="text_43">
      <!-- 2200 -->
      <g style="fill: #262626" transform="translate(23.6415 146.594966)scale(0.088 -0.088)">
       <use xlink:href="#DejaVuSans-32"/>
       <use xlink:href="#DejaVuSans-32" x="63.623047"/>
       <use xlink:href="#DejaVuSans-30" x="127.246094"/>
       <use xlink:href="#DejaVuSans-30" x="190.869141"/>
      </g>
     </g>
    </g>
    <g id="ytick_24">
     <g id="line2d_43">
      <path d="M 54.3375 127.377638 
L 391.23 127.377638 
" clip-path="url(#p8892041279)" style="fill: none; stroke: #cccccc; stroke-width: 0.8; stroke-linecap: round"/>
     </g>
     <g id="text_44">
      <!-- 2300 -->
      <g style="fill: #262626" transform="translate(23.6415 130.72095)scale(0.088 -0.088)">
       <use xlink:href="#DejaVuSans-32"/>
       <use xlink:href="#DejaVuSans-33" x="63.623047"/>
       <use xlink:href="#DejaVuSans-30" x="127.246094"/>
       <use xlink:href="#DejaVuSans-30" x="190.869141"/>
      </g>
     </g>
    </g>
    <g id="ytick_25">
     <g id="line2d_44">
      <path d="M 54.3375 111.503622 
L 391.23 111.503622 
" clip-path="url(#p8892041279)" style="fill: none; stroke: #cccccc; stroke-width: 0.8; stroke-linecap: round"/>
     </g>
     <g id="text_45">
      <!-- 2400 -->
      <g style="fill: #262626" transform="translate(23.6415 114.846935)scale(0.088 -0.088)">
       <use xlink:href="#DejaVuSans-32"/>
       <use xlink:href="#DejaVuSans-34" x="63.623047"/>
       <use xlink:href="#DejaVuSans-30" x="127.246094"/>
       <use xlink:href="#DejaVuSans-30" x="190.869141"/>
      </g>
     </g>
    </g>
    <g id="ytick_26">
     <g id="line2d_45">
      <path d="M 54.3375 95.629606 
L 391.23 95.629606 
" clip-path="url(#p8892041279)" style="fill: none; stroke: #cccccc; stroke-width: 0.8; stroke-linecap: round"/>
     </g>
     <g id="text_46">
      <!-- 2500 -->
      <g style="fill: #262626" transform="translate(23.6415 98.972919)scale(0.088 -0.088)">
       <use xlink:href="#DejaVuSans-32"/>
       <use xlink:href="#DejaVuSans-35" x="63.623047"/>
       <use xlink:href="#DejaVuSans-30" x="127.246094"/>
       <use xlink:href="#DejaVuSans-30" x="190.869141"/>
      </g>
     </g>
    </g>
    <g id="text_47">
     <!-- Edge Coverages -->
     <g style="fill: #262626" transform="translate(17.645 329.98575)rotate(-90)scale(0.096 -0.096)">
      <defs>
       <path id="DejaVuSans-45" d="M 628 4666 
L 3578 4666 
L 3578 4134 
L 1259 4134 
L 1259 2753 
L 3481 2753 
L 3481 2222 
L 1259 2222 
L 1259 531 
L 3634 531 
L 3634 0 
L 628 0 
L 628 4666 
z
" transform="scale(0.015625)"/>
       <path id="DejaVuSans-64" d="M 2906 2969 
L 2906 4863 
L 3481 4863 
L 3481 0 
L 2906 0 
L 2906 525 
Q 2725 213 2448 61 
Q 2172 -91 1784 -91 
Q 1150 -91 751 415 
Q 353 922 353 1747 
Q 353 2572 751 3078 
Q 1150 3584 1784 3584 
Q 2172 3584 2448 3432 
Q 2725 3281 2906 2969 
z
M 947 1747 
Q 947 1113 1208 752 
Q 1469 391 1925 391 
Q 2381 391 2643 752 
Q 2906 1113 2906 1747 
Q 2906 2381 2643 2742 
Q 2381 3103 1925 3103 
Q 1469 3103 1208 2742 
Q 947 2381 947 1747 
z
" transform="scale(0.015625)"/>
       <path id="DejaVuSans-67" d="M 2906 1791 
Q 2906 2416 2648 2759 
Q 2391 3103 1925 3103 
Q 1463 3103 1205 2759 
Q 947 2416 947 1791 
Q 947 1169 1205 825 
Q 1463 481 1925 481 
Q 2391 481 2648 825 
Q 2906 1169 2906 1791 
z
M 3481 434 
Q 3481 -459 3084 -895 
Q 2688 -1331 1869 -1331 
Q 1566 -1331 1297 -1286 
Q 1028 -1241 775 -1147 
L 775 -588 
Q 1028 -725 1275 -790 
Q 1522 -856 1778 -856 
Q 2344 -856 2625 -561 
Q 2906 -266 2906 331 
L 2906 616 
Q 2728 306 2450 153 
Q 2172 0 1784 0 
Q 1141 0 747 490 
Q 353 981 353 1791 
Q 353 2603 747 3093 
Q 1141 3584 1784 3584 
Q 2172 3584 2450 3431 
Q 2728 3278 2906 2969 
L 2906 3500 
L 3481 3500 
L 3481 434 
z
" transform="scale(0.015625)"/>
       <path id="DejaVuSans-43" d="M 4122 4306 
L 4122 3641 
Q 3803 3938 3442 4084 
Q 3081 4231 2675 4231 
Q 1875 4231 1450 3742 
Q 1025 3253 1025 2328 
Q 1025 1406 1450 917 
Q 1875 428 2675 428 
Q 3081 428 3442 575 
Q 3803 722 4122 1019 
L 4122 359 
Q 3791 134 3420 21 
Q 3050 -91 2638 -91 
Q 1578 -91 968 557 
Q 359 1206 359 2328 
Q 359 3453 968 4101 
Q 1578 4750 2638 4750 
Q 3056 4750 3426 4639 
Q 3797 4528 4122 4306 
z
" transform="scale(0.015625)"/>
       <path id="DejaVuSans-6f" d="M 1959 3097 
Q 1497 3097 1228 2736 
Q 959 2375 959 1747 
Q 959 1119 1226 758 
Q 1494 397 1959 397 
Q 2419 397 2687 759 
Q 2956 1122 2956 1747 
Q 2956 2369 2687 2733 
Q 2419 3097 1959 3097 
z
M 1959 3584 
Q 2709 3584 3137 3096 
Q 3566 2609 3566 1747 
Q 3566 888 3137 398 
Q 2709 -91 1959 -91 
Q 1206 -91 779 398 
Q 353 888 353 1747 
Q 353 2609 779 3096 
Q 1206 3584 1959 3584 
z
" transform="scale(0.015625)"/>
       <path id="DejaVuSans-76" d="M 191 3500 
L 800 3500 
L 1894 563 
L 2988 3500 
L 3597 3500 
L 2284 0 
L 1503 0 
L 191 3500 
z
" transform="scale(0.015625)"/>
       <path id="DejaVuSans-72" d="M 2631 2963 
Q 2534 3019 2420 3045 
Q 2306 3072 2169 3072 
Q 1681 3072 1420 2755 
Q 1159 2438 1159 1844 
L 1159 0 
L 581 0 
L 581 3500 
L 1159 3500 
L 1159 2956 
Q 1341 3275 1631 3429 
Q 1922 3584 2338 3584 
Q 2397 3584 2469 3576 
Q 2541 3569 2628 3553 
L 2631 2963 
z
" transform="scale(0.015625)"/>
       <path id="DejaVuSans-61" d="M 2194 1759 
Q 1497 1759 1228 1600 
Q 959 1441 959 1056 
Q 959 750 1161 570 
Q 1363 391 1709 391 
Q 2188 391 2477 730 
Q 2766 1069 2766 1631 
L 2766 1759 
L 2194 1759 
z
M 3341 1997 
L 3341 0 
L 2766 0 
L 2766 531 
Q 2569 213 2275 61 
Q 1981 -91 1556 -91 
Q 1019 -91 701 211 
Q 384 513 384 1019 
Q 384 1609 779 1909 
Q 1175 2209 1959 2209 
L 2766 2209 
L 2766 2266 
Q 2766 2663 2505 2880 
Q 2244 3097 1772 3097 
Q 1472 3097 1187 3025 
Q 903 2953 641 2809 
L 641 3341 
Q 956 3463 1253 3523 
Q 1550 3584 1831 3584 
Q 2591 3584 2966 3190 
Q 3341 2797 3341 1997 
z
" transform="scale(0.015625)"/>
      </defs>
      <use xlink:href="#DejaVuSans-45"/>
      <use xlink:href="#DejaVuSans-64" x="63.183594"/>
      <use xlink:href="#DejaVuSans-67" x="126.660156"/>
      <use xlink:href="#DejaVuSans-65" x="190.136719"/>
      <use xlink:href="#DejaVuSans-20" x="251.660156"/>
      <use xlink:href="#DejaVuSans-43" x="283.447266"/>
      <use xlink:href="#DejaVuSans-6f" x="353.271484"/>
      <use xlink:href="#DejaVuSans-76" x="414.453125"/>
      <use xlink:href="#DejaVuSans-65" x="473.632812"/>
      <use xlink:href="#DejaVuSans-72" x="535.15625"/>
      <use xlink:href="#DejaVuSans-61" x="576.269531"/>
      <use xlink:href="#DejaVuSans-67" x="637.548828"/>
      <use xlink:href="#DejaVuSans-65" x="701.025391"/>
      <use xlink:href="#DejaVuSans-73" x="762.548828"/>
     </g>
    </g>
   </g>
   <g id="PolyCollection_1">
    <defs>
     <path id="m085460c46e" d="M 69.650795 -85.583622 
L 69.650795 -83.52 
L 69.650795 -85.583622 
L 69.650795 -85.583622 
z
" style="stroke: #db5f57; stroke-opacity: 0.2; stroke-width: 0.8"/>
    </defs>
    <g clip-path="url(#p8892041279)">
     <use xlink:href="#m085460c46e" x="0" y="576" style="fill: #db5f57; fill-opacity: 0.2; stroke: #db5f57; stroke-opacity: 0.2; stroke-width: 0.8"/>
    </g>
   </g>
   <g id="PolyCollection_2">
    <defs>
     <path id="m74273c3b7d" d="M 69.650795 -84.948661 
L 69.650795 -83.52 
L 69.650795 -84.948661 
L 69.650795 -84.948661 
z
" style="stroke: #b9db57; stroke-opacity: 0.2; stroke-width: 0.8"/>
    </defs>
    <g clip-path="url(#p8892041279)">
     <use xlink:href="#m74273c3b7d" x="0" y="576" style="fill: #b9db57; fill-opacity: 0.2; stroke: #b9db57; stroke-opacity: 0.2; stroke-width: 0.8"/>
    </g>
   </g>
   <g id="PolyCollection_3">
    <defs>
     <path id="me389f07c2a" d="M 69.650795 -86.536063 
L 69.650795 -83.52 
L 69.650795 -86.536063 
L 69.650795 -86.536063 
z
" style="stroke: #57db94; stroke-opacity: 0.2; stroke-width: 0.8"/>
    </defs>
    <g clip-path="url(#p8892041279)">
     <use xlink:href="#me389f07c2a" x="0" y="576" style="fill: #57db94; fill-opacity: 0.2; stroke: #57db94; stroke-opacity: 0.2; stroke-width: 0.8"/>
    </g>
   </g>
   <g id="PolyCollection_4">
    <defs>
     <path id="m644cb75675" d="M 69.650795 -86.377323 
L 69.650795 -83.52 
L 69.650795 -86.377323 
L 69.650795 -86.377323 
z
" style="stroke: #5784db; stroke-opacity: 0.2; stroke-width: 0.8"/>
    </defs>
    <g clip-path="url(#p8892041279)">
     <use xlink:href="#m644cb75675" x="0" y="576" style="fill: #5784db; fill-opacity: 0.2; stroke: #5784db; stroke-opacity: 0.2; stroke-width: 0.8"/>
    </g>
   </g>
   <g id="PolyCollection_5">
    <defs>
     <path id="m07fde6cf43" d="M 69.650795 -86.377323 
L 69.650795 -83.52 
L 69.650795 -86.377323 
L 69.650795 -86.377323 
z
" style="stroke: #c957db; stroke-opacity: 0.2; stroke-width: 0.8"/>
    </defs>
    <g clip-path="url(#p8892041279)">
     <use xlink:href="#m07fde6cf43" x="0" y="576" style="fill: #c957db; fill-opacity: 0.2; stroke: #c957db; stroke-opacity: 0.2; stroke-width: 0.8"/>
    </g>
   </g>
   <g id="line2d_46">
    <path d="M 69.650795 491.448189 
L 69.863628 490.416378 
L 70.289293 490.416378 
L 70.502125 489.622677 
L 70.714958 489.622677 
L 70.92779 489.463937 
L 71.353455 489.463937 
L 71.566288 488.828976 
L 71.77912 487.400315 
L 71.991953 487.082835 
L 72.204785 486.289134 
L 72.63045 486.289134 
L 72.843282 485.812913 
L 73.056115 480.098268 
L 73.268947 462.954331 
L 73.48178 455.811024 
L 73.694612 443.746772 
L 73.907445 442.794331 
L 74.120277 442.794331 
L 74.33311 432.634961 
L 74.758774 427.237795 
L 74.971607 426.285354 
L 75.184439 424.062992 
L 75.397272 424.062992 
L 75.610104 421.205669 
L 75.822937 419.935748 
L 76.035769 419.935748 
L 76.248602 413.903622 
L 76.461434 413.903622 
L 76.674267 410.252598 
L 76.887099 409.935118 
L 77.099932 409.300157 
L 77.312764 409.300157 
L 77.525596 407.236535 
L 77.738429 407.236535 
L 77.951261 404.537953 
L 78.164094 403.268031 
L 78.376926 402.950551 
L 78.589759 402.315591 
L 79.015424 393.267402 
L 79.228256 385.171654 
L 80.718083 385.171654 
L 81.143748 312.944882 
L 81.356581 306.754016 
L 81.569413 306.754016 
L 82.207911 285.800315 
L 82.420743 281.673071 
L 82.846408 277.863307 
L 83.05924 277.863307 
L 83.272073 272.942362 
L 83.484905 271.513701 
L 84.123403 271.513701 
L 84.336235 268.656378 
L 84.549068 268.656378 
L 84.7619 267.862677 
L 84.974733 262.624252 
L 85.187565 262.624252 
L 85.400397 262.148031 
L 85.61323 262.148031 
L 85.826062 243.892913 
L 86.038895 242.781732 
L 86.251727 242.781732 
L 86.46456 242.464252 
L 86.677392 242.464252 
L 86.890225 236.432126 
L 87.31589 236.432126 
L 87.528722 223.256693 
L 87.741555 223.256693 
L 87.954387 215.954646 
L 88.167219 215.954646 
L 88.380052 213.732283 
L 88.592884 213.732283 
L 88.805717 212.779843 
L 89.018549 206.588976 
L 90.721209 206.588976 
L 90.934041 187.857638 
L 91.146874 187.857638 
L 91.359706 184.365354 
L 91.572539 184.206614 
L 91.785371 183.889134 
L 92.211036 183.889134 
L 92.423869 183.730394 
L 92.636701 183.730394 
L 92.849534 182.142992 
L 93.913696 182.142992 
L 94.126528 180.714331 
L 98.383177 180.714331 
L 98.808842 151.029921 
L 99.021675 150.871181 
L 101.149999 150.871181 
L 101.362832 150.23622 
L 102.214162 150.23622 
L 102.426994 150.07748 
L 102.639827 148.966299 
L 102.852659 148.490079 
L 104.129654 148.490079 
L 104.555319 147.061417 
L 105.619481 147.061417 
L 105.832314 143.886614 
L 106.045146 143.886614 
L 106.257978 143.569134 
L 106.470811 143.569134 
L 106.683643 142.457953 
L 106.896476 142.457953 
L 107.109308 142.140472 
L 107.322141 141.505512 
L 108.173471 141.505512 
L 108.386303 139.91811 
L 108.599136 139.91811 
L 108.811968 138.171969 
L 109.0248 138.013228 
L 109.237633 138.013228 
L 109.450465 137.854488 
L 109.87613 137.854488 
L 110.301795 135.632126 
L 110.72746 135.155906 
L 113.28145 135.155906 
L 113.494282 132.298583 
L 114.558444 132.298583 
L 114.771277 131.822362 
L 114.984109 131.663622 
L 115.409774 131.663622 
L 115.622607 131.504882 
L 117.112434 131.504882 
L 117.325266 131.346142 
L 117.538099 131.028661 
L 120.092088 131.028661 
L 120.304921 130.869921 
L 120.517753 130.869921 
L 120.730586 130.711181 
L 120.943418 130.07622 
L 122.646078 130.07622 
L 122.85891 128.965039 
L 123.071743 128.965039 
L 123.284575 128.806299 
L 123.71024 128.806299 
L 123.923073 128.012598 
L 124.987235 128.012598 
L 125.200067 127.377638 
L 125.625732 127.377638 
L 125.838565 127.060157 
L 126.477062 127.060157 
L 126.689895 126.901417 
L 127.966889 126.901417 
L 128.179722 126.425197 
L 128.605387 126.425197 
L 128.818219 122.139213 
L 129.456717 122.139213 
L 129.669549 120.234331 
L 130.095214 120.234331 
L 130.308046 119.28189 
L 130.946544 119.28189 
L 131.159376 118.646929 
L 131.585041 118.646929 
L 131.797874 118.170709 
L 132.223539 118.170709 
L 132.436371 117.694488 
L 133.074868 117.694488 
L 133.287701 117.377008 
L 133.713366 117.377008 
L 133.926198 116.742047 
L 135.203193 116.742047 
L 135.416025 116.424567 
L 135.84169 116.424567 
L 136.054523 116.107087 
L 138.821345 116.107087 
L 139.034177 115.948346 
L 140.949669 115.948346 
L 141.162502 115.789606 
L 151.37846 115.789606 
L 151.591292 113.725984 
L 154.145282 113.725984 
L 154.358114 113.249764 
L 162.445748 113.249764 
L 162.65858 110.868661 
L 163.084245 110.868661 
L 163.297078 110.709921 
L 163.50991 110.709921 
L 163.722743 110.392441 
L 165.21257 110.392441 
L 165.425402 110.233701 
L 165.638235 109.59874 
L 166.276732 109.59874 
L 166.489564 109.12252 
L 167.553727 109.12252 
L 167.766559 108.328819 
L 168.405057 108.328819 
L 168.617889 108.170079 
L 171.597544 108.170079 
L 171.810376 108.011339 
L 198.414433 108.011339 
L 198.627266 105.788976 
L 200.329926 105.788976 
L 200.542758 105.630236 
L 200.75559 105.630236 
L 200.968423 104.995276 
L 201.181255 104.995276 
L 201.60692 104.677795 
L 213.312706 104.677795 
L 213.525538 104.519055 
L 221.826004 104.519055 
L 222.038836 103.884094 
L 227.146815 103.884094 
L 227.359648 103.725354 
L 229.487972 103.725354 
L 229.700805 103.566614 
L 240.980925 103.566614 
L 241.193758 102.772913 
L 252.048213 102.772913 
L 252.261046 102.614173 
L 291.422218 102.614173 
L 291.635051 101.979213 
L 302.063841 101.979213 
L 302.276674 101.820472 
L 310.57714 101.820472 
L 310.789972 101.661732 
L 315.897951 101.661732 
L 316.110783 97.534488 
L 317.174946 97.534488 
L 317.387778 97.375748 
L 324.198417 97.375748 
L 324.411249 97.217008 
L 337.819694 97.217008 
L 338.032527 96.899528 
L 340.373684 96.899528 
L 340.586516 96.740787 
L 364.210919 96.740787 
L 364.423752 96.264567 
L 375.916705 96.264567 
L 375.916705 96.264567 
" clip-path="url(#p8892041279)" style="fill: none; stroke: #db5f57; stroke-width: 1.2; stroke-linecap: round"/>
   </g>
   <g id="line2d_47">
    <path d="M 69.650795 491.765669 
L 69.863628 490.892598 
L 70.07646 490.892598 
L 70.289293 490.733858 
L 70.502125 489.463937 
L 70.714958 489.463937 
L 70.92779 489.305197 
L 71.566288 489.305197 
L 71.77912 487.082835 
L 71.991953 486.765354 
L 72.204785 486.130394 
L 72.417617 486.130394 
L 72.63045 485.812913 
L 72.843282 485.812913 
L 73.056115 485.495433 
L 73.268947 464.382992 
L 74.120277 463.271811 
L 74.33311 463.113071 
L 74.758774 429.301417 
L 75.610104 429.301417 
L 75.822937 416.125984 
L 76.035769 415.967244 
L 76.248602 415.649764 
L 76.461434 415.649764 
L 76.674267 415.332283 
L 76.887099 414.062362 
L 79.015424 414.062362 
L 79.441089 413.586142 
L 79.866754 413.586142 
L 80.292418 344.375433 
L 80.505251 340.089449 
L 83.272073 340.089449 
L 83.484905 329.136378 
L 83.697738 271.831181 
L 83.91057 271.831181 
L 84.123403 269.608819 
L 84.974733 268.497638 
L 86.677392 268.497638 
L 86.890225 268.338898 
L 87.528722 268.338898 
L 87.741555 268.180157 
L 87.954387 268.180157 
L 88.167219 268.021417 
L 88.592884 268.021417 
L 89.018549 207.065197 
L 89.869879 207.065197 
L 90.082712 194.524724 
L 90.721209 194.524724 
L 90.934041 194.207244 
L 91.572539 194.207244 
L 91.785371 193.889764 
L 92.636701 193.889764 
L 93.062366 192.778583 
L 100.937167 192.778583 
L 101.149999 192.619843 
L 106.683643 192.619843 
L 106.896476 192.461102 
L 107.109308 142.616693 
L 107.534973 142.616693 
L 107.747806 142.457953 
L 112.004455 142.457953 
L 112.217287 135.155906 
L 112.43012 135.155906 
L 112.642952 134.203465 
L 112.855785 134.044724 
L 113.919947 134.044724 
L 114.132779 133.885984 
L 116.048272 133.885984 
L 116.261104 131.981102 
L 121.369083 131.981102 
L 121.581916 130.234961 
L 124.348738 130.234961 
L 124.56157 128.330079 
L 129.456717 128.330079 
L 129.669549 126.425197 
L 129.882381 120.551811 
L 130.095214 120.393071 
L 131.159376 120.393071 
L 131.372209 119.12315 
L 141.375334 119.12315 
L 141.588167 116.424567 
L 148.398805 116.424567 
L 148.611638 115.789606 
L 149.037303 115.789606 
L 149.250135 115.630866 
L 151.37846 115.630866 
L 151.591292 115.313386 
L 152.442622 115.313386 
L 152.655455 113.884724 
L 166.915229 113.884724 
L 167.128062 109.75748 
L 170.533381 109.75748 
L 170.746214 108.805039 
L 171.384711 108.805039 
L 171.597544 108.646299 
L 178.621015 108.646299 
L 178.833847 108.487559 
L 181.175004 108.487559 
L 181.387837 107.217638 
L 186.495816 107.217638 
L 186.708648 106.741417 
L 194.157784 106.741417 
L 194.370617 106.582677 
L 214.164035 106.582677 
L 214.376868 105.154016 
L 220.336177 105.154016 
L 220.549009 104.677795 
L 223.315831 104.677795 
L 223.528664 104.360315 
L 244.173412 104.360315 
L 244.386245 103.407874 
L 253.325208 103.407874 
L 253.53804 103.249134 
L 288.016899 103.249134 
L 288.229731 103.090394 
L 288.655396 103.090394 
L 288.868229 102.772913 
L 290.358056 102.772913 
L 290.570888 102.614173 
L 292.060716 102.614173 
L 292.273548 102.455433 
L 315.472286 102.455433 
L 315.685119 98.804409 
L 319.728935 98.804409 
L 319.941768 97.851969 
L 341.225014 97.851969 
L 341.437846 97.375748 
L 375.916705 97.375748 
L 375.916705 97.375748 
" clip-path="url(#p8892041279)" style="fill: none; stroke: #b9db57; stroke-width: 1.2; stroke-linecap: round"/>
   </g>
   <g id="line2d_48">
    <path d="M 69.650795 490.971969 
L 69.863628 489.463937 
L 70.714958 489.463937 
L 70.92779 489.305197 
L 71.353455 489.305197 
L 71.991953 486.447874 
L 72.204785 486.130394 
L 72.63045 486.130394 
L 72.843282 485.812913 
L 73.48178 457.398425 
L 73.907445 440.571969 
L 74.120277 435.968504 
L 74.545942 431.68252 
L 74.758774 428.983937 
L 74.971607 428.190236 
L 75.397272 422.951811 
L 75.610104 422.793071 
L 76.461434 412.792441 
L 76.887099 411.84 
L 77.525596 409.617638 
L 77.738429 407.395276 
L 78.164094 405.490394 
L 78.589759 403.585512 
L 78.802591 400.410709 
L 79.228256 385.489134 
L 79.441089 378.504567 
L 79.653921 355.804724 
L 80.292418 343.740472 
L 80.505251 322.628031 
L 81.782246 296.118425 
L 81.995078 295.007244 
L 82.207911 284.371654 
L 82.633575 280.72063 
L 83.05924 277.545827 
L 83.484905 274.053543 
L 83.91057 271.989921 
L 84.336235 271.19622 
L 84.549068 270.72 
L 84.7619 270.56126 
L 84.974733 265.005354 
L 85.187565 264.846614 
L 85.400397 264.370394 
L 85.61323 246.274016 
L 85.826062 245.956535 
L 86.038895 245.004094 
L 86.251727 244.845354 
L 86.46456 244.527874 
L 86.890225 234.844724 
L 87.31589 232.146142 
L 87.528722 222.939213 
L 87.954387 218.494488 
L 88.167219 218.494488 
L 88.380052 216.272126 
L 88.592884 216.272126 
L 88.805717 215.160945 
L 89.018549 215.160945 
L 89.231382 207.382677 
L 89.444214 207.065197 
L 89.657047 203.414173 
L 89.869879 202.144252 
L 90.082712 202.144252 
L 90.295544 198.969449 
L 90.934041 198.969449 
L 91.146874 191.032441 
L 91.359706 190.08 
L 91.785371 190.08 
L 91.998204 189.60378 
L 92.211036 189.445039 
L 92.423869 189.445039 
L 92.636701 188.492598 
L 92.849534 188.333858 
L 93.062366 188.333858 
L 93.275198 187.222677 
L 93.488031 186.905197 
L 93.913696 186.905197 
L 94.339361 185.635276 
L 94.552193 185.635276 
L 94.765026 185.476535 
L 94.977858 183.730394 
L 95.403523 183.730394 
L 95.616356 183.254173 
L 95.829188 183.095433 
L 96.04202 183.095433 
L 96.254853 179.76189 
L 96.467685 179.285669 
L 96.680518 179.285669 
L 96.89335 178.968189 
L 97.319015 178.968189 
L 97.531848 178.174488 
L 97.74468 178.174488 
L 97.957513 177.698268 
L 98.170345 173.412283 
L 98.383177 173.412283 
L 98.59601 173.094803 
L 98.808842 161.506772 
L 99.021675 159.91937 
L 99.234507 159.91937 
L 99.44734 159.60189 
L 99.873005 159.60189 
L 100.085837 159.44315 
L 100.29867 159.44315 
L 100.511502 159.284409 
L 102.426994 159.284409 
L 102.639827 158.490709 
L 102.852659 158.490709 
L 103.065492 157.538268 
L 103.491157 157.538268 
L 103.703989 157.379528 
L 103.916821 157.379528 
L 104.129654 156.427087 
L 104.342486 156.427087 
L 104.768151 155.633386 
L 104.980984 155.157165 
L 105.193816 154.998425 
L 105.406649 154.680945 
L 105.619481 152.776063 
L 105.832314 152.617323 
L 106.045146 152.617323 
L 106.257978 152.299843 
L 106.470811 152.299843 
L 106.683643 150.871181 
L 106.896476 150.712441 
L 107.109308 150.712441 
L 107.322141 150.553701 
L 107.534973 149.76 
L 107.747806 149.60126 
L 108.173471 149.60126 
L 108.386303 148.013858 
L 108.599136 148.013858 
L 108.811968 146.743937 
L 109.0248 146.743937 
L 109.237633 146.585197 
L 109.450465 146.585197 
L 109.663298 145.950236 
L 110.088963 145.950236 
L 110.301795 144.204094 
L 110.72746 144.204094 
L 110.940293 143.886614 
L 111.57879 143.886614 
L 111.791622 143.410394 
L 112.217287 143.410394 
L 112.43012 143.251654 
L 112.642952 142.457953 
L 113.068617 142.140472 
L 113.28145 142.140472 
L 113.494282 141.029291 
L 113.919947 141.029291 
L 114.132779 140.711811 
L 114.771277 140.711811 
L 114.984109 140.553071 
L 115.409774 140.553071 
L 115.622607 140.394331 
L 117.112434 140.394331 
L 117.538099 140.07685 
L 120.304921 140.07685 
L 120.517753 139.91811 
L 120.730586 139.91811 
L 120.943418 139.44189 
L 121.156251 139.28315 
L 121.369083 139.28315 
L 121.581916 139.124409 
L 122.433245 139.124409 
L 122.646078 138.965669 
L 122.85891 138.965669 
L 123.071743 138.330709 
L 123.284575 138.330709 
L 123.497408 138.171969 
L 123.71024 138.171969 
L 123.923073 137.537008 
L 124.135905 137.537008 
L 124.56157 137.219528 
L 124.774402 137.219528 
L 124.987235 137.060787 
L 125.4129 137.060787 
L 125.625732 136.425827 
L 126.26423 136.425827 
L 126.477062 136.267087 
L 127.328392 136.267087 
L 127.541224 136.108346 
L 128.179722 136.108346 
L 128.392554 134.362205 
L 128.605387 134.362205 
L 128.818219 131.981102 
L 129.243884 131.981102 
L 129.456717 130.393701 
L 129.669549 130.393701 
L 130.095214 129.44126 
L 130.308046 129.44126 
L 130.520879 129.28252 
L 130.733711 128.806299 
L 130.946544 128.806299 
L 131.372209 128.488819 
L 131.585041 128.488819 
L 131.797874 128.330079 
L 132.010706 127.853858 
L 132.436371 127.853858 
L 132.649203 127.536378 
L 133.074868 127.536378 
L 133.287701 127.218898 
L 133.500533 127.218898 
L 133.713366 126.742677 
L 135.203193 126.742677 
L 135.416025 126.425197 
L 135.84169 126.425197 
L 136.054523 126.107717 
L 138.821345 126.107717 
L 139.034177 125.948976 
L 139.459842 125.948976 
L 139.672675 125.790236 
L 140.524004 125.790236 
L 140.736837 125.631496 
L 147.334643 125.631496 
L 147.547476 125.314016 
L 147.973141 125.314016 
L 148.398805 124.996535 
L 148.611638 124.996535 
L 148.82447 124.679055 
L 149.037303 123.726614 
L 149.250135 123.567874 
L 151.591292 123.567874 
L 151.804125 123.091654 
L 155.422277 123.091654 
L 155.635109 122.932913 
L 161.381585 122.932913 
L 161.594418 121.662992 
L 161.80725 121.662992 
L 162.445748 120.869291 
L 163.297078 120.869291 
L 163.50991 120.551811 
L 163.722743 120.551811 
L 164.148407 120.234331 
L 164.574072 120.234331 
L 164.999737 119.91685 
L 165.425402 119.91685 
L 165.851067 119.59937 
L 166.276732 119.59937 
L 166.489564 119.44063 
L 166.702397 119.12315 
L 167.553727 119.12315 
L 167.766559 118.964409 
L 167.979392 118.646929 
L 168.617889 118.646929 
L 168.830722 118.488189 
L 171.597544 118.488189 
L 171.810376 118.329449 
L 177.556852 118.329449 
L 177.769685 118.170709 
L 179.685177 118.170709 
L 179.898009 117.694488 
L 180.110842 116.900787 
L 180.323674 116.742047 
L 184.367491 116.742047 
L 184.580324 116.583307 
L 184.793156 116.583307 
L 185.005988 116.265827 
L 197.988768 116.265827 
L 198.201601 116.107087 
L 198.414433 116.107087 
L 198.627266 115.948346 
L 199.904261 115.948346 
L 200.117093 115.789606 
L 200.75559 115.789606 
L 200.968423 115.313386 
L 201.181255 115.154646 
L 201.394088 115.154646 
L 201.60692 114.837165 
L 220.549009 114.837165 
L 220.761842 114.519685 
L 221.187507 114.519685 
L 221.400339 114.360945 
L 223.315831 114.360945 
L 223.528664 114.202205 
L 229.062308 114.202205 
L 229.27514 114.043465 
L 239.703931 114.043465 
L 239.916763 113.884724 
L 240.129595 113.884724 
L 240.342428 113.408504 
L 240.55526 113.408504 
L 240.768093 113.249764 
L 251.196883 113.249764 
L 251.409716 113.091024 
L 285.675742 113.091024 
L 285.888574 112.932283 
L 288.655396 112.932283 
L 288.868229 112.614803 
L 290.358056 112.614803 
L 290.570888 112.456063 
L 291.847883 112.456063 
L 292.060716 112.297323 
L 310.57714 112.297323 
L 310.789972 112.138583 
L 314.408124 112.138583 
L 314.620956 111.186142 
L 314.833789 111.027402 
L 315.259454 109.28126 
L 315.472286 109.28126 
L 315.685119 109.12252 
L 315.897951 108.646299 
L 316.110783 108.487559 
L 316.749281 108.487559 
L 316.962113 108.328819 
L 317.813443 108.328819 
L 318.026276 108.170079 
L 336.755532 108.170079 
L 336.968364 107.852598 
L 339.096689 107.852598 
L 339.309522 107.693858 
L 358.038778 107.693858 
L 358.25161 107.376378 
L 358.890108 107.376378 
L 359.10294 107.217638 
L 369.318898 107.217638 
L 369.957396 106.741417 
L 370.170228 106.741417 
L 370.383061 106.582677 
L 375.916705 106.582677 
L 375.916705 106.582677 
" clip-path="url(#p8892041279)" style="fill: none; stroke: #57db94; stroke-width: 1.2; stroke-linecap: round"/>
   </g>
   <g id="line2d_49">
    <path d="M 69.650795 491.051339 
L 69.863628 489.622677 
L 70.714958 489.622677 
L 70.92779 489.463937 
L 71.353455 489.463937 
L 71.566288 488.352756 
L 71.77912 486.447874 
L 71.991953 485.971654 
L 72.204785 485.019213 
L 72.63045 485.019213 
L 72.843282 484.701732 
L 73.056115 471.367559 
L 73.268947 465.017953 
L 73.48178 451.048819 
L 73.694612 447.715276 
L 73.907445 436.285984 
L 74.120277 434.381102 
L 74.545942 428.190236 
L 75.822937 415.808504 
L 76.035769 414.379843 
L 76.461434 410.411339 
L 76.674267 410.411339 
L 76.887099 410.252598 
L 77.312764 409.141417 
L 77.525596 406.601575 
L 77.738429 406.125354 
L 77.951261 405.331654 
L 78.164094 402.633071 
L 78.589759 401.52189 
L 78.802591 398.029606 
L 79.015424 387.394016 
L 79.228256 386.124094 
L 79.441089 382.314331 
L 79.653921 363.741732 
L 79.866754 358.979528 
L 80.292418 358.185827 
L 80.505251 351.67748 
L 80.718083 328.501417 
L 81.143748 317.072126 
L 81.569413 315.802205 
L 81.782246 299.769449 
L 81.995078 299.610709 
L 82.207911 299.293228 
L 82.420743 299.293228 
L 82.846408 286.911496 
L 83.05924 283.736693 
L 83.484905 282.942992 
L 83.91057 282.466772 
L 84.123403 278.022047 
L 84.549068 278.022047 
L 84.7619 276.752126 
L 85.187565 276.752126 
L 85.400397 270.72 
L 85.61323 270.56126 
L 85.826062 270.56126 
L 86.038895 270.40252 
L 86.46456 270.40252 
L 87.103057 269.608819 
L 87.31589 255.798425 
L 87.528722 252.941102 
L 87.741555 229.92378 
L 88.167219 227.860157 
L 88.380052 227.383937 
L 88.592884 226.431496 
L 88.805717 226.272756 
L 89.018549 220.08189 
L 89.231382 209.76378 
L 89.657047 209.76378 
L 89.869879 209.287559 
L 90.082712 206.112756 
L 90.295544 206.112756 
L 90.508376 204.684094 
L 90.721209 204.684094 
L 90.934041 196.429606 
L 91.146874 195.635906 
L 91.785371 194.842205 
L 91.998204 194.842205 
L 92.211036 194.683465 
L 92.636701 194.683465 
L 92.849534 194.365984 
L 93.275198 194.365984 
L 93.488031 191.508661 
L 93.700863 191.191181 
L 94.126528 191.191181 
L 94.339361 190.55622 
L 94.552193 190.55622 
L 94.765026 190.23874 
L 94.977858 188.492598 
L 95.190691 188.175118 
L 95.616356 188.175118 
L 95.829188 185.794016 
L 96.04202 184.682835 
L 96.467685 184.206614 
L 96.680518 184.047874 
L 96.89335 184.047874 
L 97.319015 183.571654 
L 97.531848 183.571654 
L 97.74468 179.126929 
L 97.957513 178.333228 
L 98.59601 177.857008 
L 98.808842 161.506772 
L 99.021675 161.506772 
L 99.234507 161.189291 
L 99.660172 161.189291 
L 99.873005 161.030551 
L 102.001329 161.030551 
L 102.426994 160.713071 
L 102.852659 158.808189 
L 103.916821 158.808189 
L 104.129654 157.855748 
L 105.193816 156.427087 
L 105.832314 153.887244 
L 106.045146 153.569764 
L 106.470811 152.141102 
L 106.896476 152.141102 
L 107.109308 151.982362 
L 107.322141 151.188661 
L 107.534973 150.871181 
L 107.960638 150.871181 
L 108.173471 150.23622 
L 108.599136 147.696378 
L 108.811968 147.696378 
L 109.0248 147.537638 
L 109.237633 147.537638 
L 109.450465 147.378898 
L 109.87613 146.267717 
L 110.088963 145.156535 
L 110.301795 144.997795 
L 110.514628 144.680315 
L 111.365957 144.680315 
L 111.57879 144.521575 
L 111.791622 144.204094 
L 112.217287 144.204094 
L 112.855785 142.775433 
L 113.068617 142.616693 
L 113.28145 141.822992 
L 113.707115 141.822992 
L 113.919947 141.505512 
L 114.132779 141.505512 
L 114.345612 141.346772 
L 114.771277 141.346772 
L 115.196942 141.029291 
L 117.112434 141.029291 
L 117.325266 140.870551 
L 117.538099 140.553071 
L 119.879256 140.553071 
L 120.092088 140.394331 
L 120.304921 140.394331 
L 120.517753 140.235591 
L 120.943418 139.44189 
L 121.156251 139.44189 
L 121.369083 139.28315 
L 122.433245 139.28315 
L 122.646078 138.648189 
L 122.85891 138.648189 
L 123.284575 138.330709 
L 123.497408 137.695748 
L 123.71024 137.695748 
L 123.923073 137.537008 
L 124.135905 137.537008 
L 124.348738 137.378268 
L 124.774402 137.378268 
L 125.4129 136.584567 
L 126.26423 136.584567 
L 126.477062 136.425827 
L 127.754057 136.425827 
L 127.966889 136.108346 
L 128.605387 131.822362 
L 128.818219 131.504882 
L 129.456717 129.6 
L 130.308046 128.965039 
L 130.733711 128.488819 
L 130.946544 128.330079 
L 131.159376 127.853858 
L 131.585041 127.536378 
L 131.797874 127.218898 
L 132.223539 127.218898 
L 132.436371 127.060157 
L 132.862036 126.583937 
L 133.074868 126.583937 
L 133.287701 125.948976 
L 134.777528 125.948976 
L 135.628858 125.314016 
L 138.39568 125.314016 
L 138.608512 125.155276 
L 140.736837 125.155276 
L 140.949669 124.996535 
L 147.121811 124.996535 
L 147.760308 124.520315 
L 147.973141 124.520315 
L 148.185973 124.361575 
L 148.611638 124.361575 
L 148.82447 124.044094 
L 149.037303 123.091654 
L 149.462968 123.091654 
L 149.6758 122.932913 
L 152.016957 122.932913 
L 152.22979 122.615433 
L 159.891758 122.615433 
L 160.104591 122.456693 
L 161.168753 122.456693 
L 161.381585 121.980472 
L 161.594418 120.710551 
L 161.80725 120.710551 
L 162.232915 120.234331 
L 162.445748 120.075591 
L 163.084245 120.075591 
L 163.722743 119.59937 
L 163.935575 119.59937 
L 164.148407 119.44063 
L 164.36124 119.44063 
L 164.786905 119.12315 
L 165.425402 119.12315 
L 165.638235 118.805669 
L 167.128062 118.805669 
L 167.340894 118.329449 
L 167.553727 118.170709 
L 167.766559 117.535748 
L 168.405057 117.535748 
L 168.617889 117.377008 
L 171.597544 117.377008 
L 171.810376 117.218268 
L 177.34402 117.218268 
L 177.556852 117.059528 
L 179.685177 117.059528 
L 180.110842 115.789606 
L 180.323674 115.630866 
L 184.580324 115.630866 
L 184.793156 115.472126 
L 185.005988 115.154646 
L 197.988768 115.154646 
L 198.201601 114.995906 
L 199.265763 114.995906 
L 199.478596 114.837165 
L 200.542758 114.837165 
L 200.75559 114.360945 
L 200.968423 114.202205 
L 201.181255 114.202205 
L 201.394088 113.884724 
L 220.761842 113.884724 
L 220.974674 113.408504 
L 221.400339 113.408504 
L 221.613171 113.249764 
L 223.528664 113.249764 
L 223.741496 113.091024 
L 229.700805 113.091024 
L 229.913637 112.932283 
L 239.703931 112.932283 
L 239.916763 112.773543 
L 240.129595 112.297323 
L 240.342428 112.297323 
L 240.55526 112.138583 
L 251.409716 112.138583 
L 251.622548 111.979843 
L 286.314239 111.979843 
L 286.527072 111.821102 
L 289.081061 111.821102 
L 289.293894 111.503622 
L 290.358056 111.503622 
L 290.570888 111.344882 
L 291.635051 111.344882 
L 291.847883 111.186142 
L 310.789972 111.186142 
L 311.002804 111.027402 
L 314.408124 111.027402 
L 315.046621 109.12252 
L 315.259454 108.011339 
L 315.472286 107.852598 
L 315.685119 107.376378 
L 315.897951 107.376378 
L 316.110783 107.217638 
L 316.536448 107.217638 
L 316.749281 107.058898 
L 319.516103 107.058898 
L 319.728935 106.900157 
L 336.755532 106.900157 
L 336.968364 106.582677 
L 339.096689 106.582677 
L 339.309522 106.423937 
L 357.825945 106.423937 
L 358.038778 106.265197 
L 358.25161 105.947717 
L 358.677275 105.947717 
L 358.890108 105.788976 
L 369.957396 105.788976 
L 370.170228 105.312756 
L 370.383061 105.154016 
L 375.916705 105.154016 
L 375.916705 105.154016 
" clip-path="url(#p8892041279)" style="fill: none; stroke: #5784db; stroke-width: 1.2; stroke-linecap: round"/>
   </g>
   <g id="line2d_50">
    <path d="M 69.650795 491.051339 
L 69.863628 489.622677 
L 70.714958 489.622677 
L 70.92779 489.463937 
L 71.353455 489.463937 
L 71.991953 485.177953 
L 72.204785 484.860472 
L 72.417617 484.860472 
L 72.843282 484.384252 
L 73.056115 466.764094 
L 73.907445 435.809764 
L 74.545942 427.079055 
L 75.397272 419.142047 
L 75.610104 417.872126 
L 75.822937 412.951181 
L 76.248602 410.411339 
L 76.461434 407.712756 
L 76.887099 406.601575 
L 77.525596 404.537953 
L 77.738429 401.83937 
L 78.164094 400.251969 
L 78.589759 397.870866 
L 78.802591 394.061102 
L 79.441089 368.345197 
L 79.653921 348.661417 
L 80.079586 339.613228 
L 80.292418 336.914646 
L 80.505251 314.849764 
L 81.995078 287.705197 
L 82.207911 277.387087 
L 82.633575 273.736063 
L 82.846408 272.466142 
L 83.05924 268.973858 
L 83.272073 268.497638 
L 83.697738 265.957795 
L 83.91057 265.005354 
L 84.336235 264.211654 
L 84.549068 263.735433 
L 84.7619 261.671811 
L 84.974733 258.020787 
L 85.187565 257.862047 
L 85.400397 257.227087 
L 85.61323 239.448189 
L 85.826062 239.289449 
L 86.038895 238.178268 
L 86.251727 238.178268 
L 86.46456 237.860787 
L 86.890225 228.177638 
L 87.103057 226.590236 
L 87.741555 211.986142 
L 88.167219 209.76378 
L 88.380052 209.287559 
L 88.592884 208.335118 
L 88.805717 208.176378 
L 89.231382 194.207244 
L 89.657047 193.572283 
L 89.869879 192.937323 
L 90.082712 189.60378 
L 90.295544 189.445039 
L 90.721209 189.445039 
L 90.934041 180.873071 
L 91.146874 180.07937 
L 91.785371 179.285669 
L 91.998204 179.285669 
L 92.211036 179.126929 
L 92.423869 179.126929 
L 92.849534 177.380787 
L 93.062366 176.904567 
L 93.275198 176.904567 
L 93.700863 175.952126 
L 94.126528 175.952126 
L 94.339361 175.317165 
L 94.552193 175.317165 
L 94.765026 174.999685 
L 94.977858 173.253543 
L 95.190691 172.936063 
L 95.616356 172.936063 
L 95.829188 170.554961 
L 96.04202 169.44378 
L 96.467685 168.967559 
L 96.89335 168.650079 
L 97.531848 167.856378 
L 97.74468 163.411654 
L 97.957513 162.935433 
L 98.59601 162.459213 
L 98.808842 146.108976 
L 99.021675 146.108976 
L 99.234507 145.791496 
L 99.660172 145.791496 
L 99.873005 145.632756 
L 100.29867 145.632756 
L 100.511502 145.474016 
L 102.001329 145.474016 
L 102.214162 145.315276 
L 102.426994 145.315276 
L 102.852659 143.410394 
L 103.916821 143.410394 
L 104.129654 142.457953 
L 105.193816 141.029291 
L 105.832314 138.489449 
L 106.045146 138.171969 
L 106.683643 136.584567 
L 107.109308 136.267087 
L 107.322141 135.473386 
L 107.534973 135.473386 
L 107.747806 135.314646 
L 107.960638 135.314646 
L 108.173471 134.679685 
L 108.599136 132.298583 
L 108.811968 132.298583 
L 109.0248 132.139843 
L 109.237633 132.139843 
L 109.450465 131.981102 
L 109.87613 130.869921 
L 110.088963 129.75874 
L 110.301795 129.6 
L 110.514628 129.28252 
L 111.365957 129.28252 
L 111.57879 129.12378 
L 111.791622 128.806299 
L 112.217287 128.806299 
L 112.855785 127.060157 
L 113.28145 126.425197 
L 113.707115 126.425197 
L 114.132779 125.948976 
L 114.771277 125.948976 
L 115.196942 125.631496 
L 117.112434 125.631496 
L 117.325266 125.472756 
L 117.538099 125.155276 
L 119.879256 125.155276 
L 120.092088 124.996535 
L 120.304921 124.996535 
L 120.517753 124.837795 
L 120.943418 124.044094 
L 121.156251 124.044094 
L 121.369083 123.885354 
L 122.433245 123.885354 
L 122.646078 123.250394 
L 123.071743 122.932913 
L 123.284575 122.932913 
L 123.497408 122.297953 
L 123.71024 122.297953 
L 123.923073 122.139213 
L 124.135905 122.139213 
L 124.348738 121.980472 
L 124.774402 121.980472 
L 125.4129 121.186772 
L 126.26423 121.186772 
L 126.477062 121.028031 
L 127.328392 121.028031 
L 127.541224 120.869291 
L 127.754057 120.869291 
L 127.966889 120.710551 
L 128.605387 116.424567 
L 128.818219 116.107087 
L 129.456717 114.202205 
L 129.669549 114.043465 
L 130.520879 112.932283 
L 131.585041 112.138583 
L 131.797874 111.662362 
L 132.223539 111.662362 
L 132.862036 111.186142 
L 133.074868 111.186142 
L 133.287701 110.551181 
L 134.777528 110.551181 
L 135.628858 109.91622 
L 138.39568 109.91622 
L 138.608512 109.75748 
L 140.524004 109.75748 
L 140.736837 109.59874 
L 147.121811 109.59874 
L 147.760308 109.12252 
L 147.973141 109.12252 
L 148.185973 108.96378 
L 148.611638 108.96378 
L 148.82447 108.646299 
L 149.037303 107.693858 
L 149.250135 107.535118 
L 151.37846 107.535118 
L 151.804125 107.058898 
L 159.891758 107.058898 
L 160.104591 106.900157 
L 161.168753 106.900157 
L 161.381585 106.423937 
L 161.594418 105.154016 
L 161.80725 105.154016 
L 162.232915 104.677795 
L 162.445748 104.519055 
L 163.084245 104.519055 
L 163.722743 104.042835 
L 163.935575 104.042835 
L 164.148407 103.884094 
L 164.36124 103.884094 
L 164.786905 103.566614 
L 165.425402 103.566614 
L 165.638235 103.249134 
L 166.276732 103.249134 
L 166.489564 102.772913 
L 167.340894 102.772913 
L 167.553727 102.614173 
L 167.766559 101.979213 
L 168.405057 101.979213 
L 168.617889 101.820472 
L 171.384711 101.820472 
L 171.597544 101.661732 
L 177.34402 101.661732 
L 177.556852 101.502992 
L 179.685177 101.502992 
L 180.110842 100.233071 
L 180.323674 100.074331 
L 184.367491 100.074331 
L 184.580324 99.915591 
L 184.793156 99.915591 
L 185.005988 99.59811 
L 197.988768 99.59811 
L 198.201601 99.43937 
L 198.414433 99.43937 
L 198.627266 99.28063 
L 199.904261 99.28063 
L 200.117093 99.12189 
L 200.542758 99.12189 
L 200.75559 98.645669 
L 200.968423 98.486929 
L 201.181255 98.486929 
L 201.394088 98.169449 
L 220.336177 98.169449 
L 220.549009 97.693228 
L 221.187507 97.693228 
L 221.400339 97.534488 
L 223.315831 97.534488 
L 223.528664 97.375748 
L 229.062308 97.375748 
L 229.27514 97.217008 
L 239.703931 97.217008 
L 239.916763 97.058268 
L 240.129595 96.582047 
L 240.342428 96.582047 
L 240.55526 96.423307 
L 251.196883 96.423307 
L 251.409716 96.264567 
L 285.675742 96.264567 
L 285.888574 96.105827 
L 288.655396 96.105827 
L 288.868229 95.788346 
L 290.358056 95.788346 
L 290.570888 95.629606 
L 291.635051 95.629606 
L 291.847883 95.470866 
L 310.57714 95.470866 
L 310.789972 95.312126 
L 314.408124 95.312126 
L 314.833789 93.407244 
L 315.046621 93.089764 
L 315.259454 91.978583 
L 315.472286 91.819843 
L 315.685119 91.343622 
L 315.897951 91.343622 
L 316.110783 91.184882 
L 316.536448 91.184882 
L 316.749281 91.026142 
L 317.813443 91.026142 
L 318.026276 90.867402 
L 336.755532 90.867402 
L 336.968364 90.549921 
L 339.096689 90.549921 
L 339.309522 90.391181 
L 357.825945 90.391181 
L 358.25161 90.073701 
L 358.677275 90.073701 
L 358.890108 89.914961 
L 369.318898 89.914961 
L 369.957396 89.43874 
L 370.170228 89.43874 
L 370.383061 89.28 
L 375.916705 89.28 
L 375.916705 89.28 
" clip-path="url(#p8892041279)" style="fill: none; stroke: #c957db; stroke-width: 1.2; stroke-linecap: round"/>
   </g>
   <g id="line2d_51"/>
   <g id="line2d_52"/>
   <g id="line2d_53"/>
   <g id="line2d_54"/>
   <g id="line2d_55"/>
   <g id="patch_3">
    <path d="M 54.3375 512.64 
L 54.3375 69.12 
" style="fill: none; stroke: #cccccc; stroke-linejoin: miter; stroke-linecap: square"/>
   </g>
   <g id="patch_4">
    <path d="M 54.3375 512.64 
L 391.23 512.64 
" style="fill: none; stroke: #cccccc; stroke-linejoin: miter; stroke-linecap: square"/>
   </g>
   <g id="text_48">
    <!-- Edge Coverage History -->
    <g style="fill: #262626" transform="translate(115.892262 63.12)scale(0.165888 -0.165888)">
     <defs>
      <path id="DejaVuSans-Bold-45" d="M 588 4666 
L 3834 4666 
L 3834 3756 
L 1791 3756 
L 1791 2888 
L 3713 2888 
L 3713 1978 
L 1791 1978 
L 1791 909 
L 3903 909 
L 3903 0 
L 588 0 
L 588 4666 
z
" transform="scale(0.015625)"/>
      <path id="DejaVuSans-Bold-64" d="M 2919 2988 
L 2919 4863 
L 4044 4863 
L 4044 0 
L 2919 0 
L 2919 506 
Q 2688 197 2409 53 
Q 2131 -91 1766 -91 
Q 1119 -91 703 423 
Q 288 938 288 1747 
Q 288 2556 703 3070 
Q 1119 3584 1766 3584 
Q 2128 3584 2408 3439 
Q 2688 3294 2919 2988 
z
M 2181 722 
Q 2541 722 2730 984 
Q 2919 1247 2919 1747 
Q 2919 2247 2730 2509 
Q 2541 2772 2181 2772 
Q 1825 2772 1636 2509 
Q 1447 2247 1447 1747 
Q 1447 1247 1636 984 
Q 1825 722 2181 722 
z
" transform="scale(0.015625)"/>
      <path id="DejaVuSans-Bold-67" d="M 2919 594 
Q 2688 288 2409 144 
Q 2131 0 1766 0 
Q 1125 0 706 504 
Q 288 1009 288 1791 
Q 288 2575 706 3076 
Q 1125 3578 1766 3578 
Q 2131 3578 2409 3434 
Q 2688 3291 2919 2981 
L 2919 3500 
L 4044 3500 
L 4044 353 
Q 4044 -491 3511 -936 
Q 2978 -1381 1966 -1381 
Q 1638 -1381 1331 -1331 
Q 1025 -1281 716 -1178 
L 716 -306 
Q 1009 -475 1290 -558 
Q 1572 -641 1856 -641 
Q 2406 -641 2662 -400 
Q 2919 -159 2919 353 
L 2919 594 
z
M 2181 2772 
Q 1834 2772 1640 2515 
Q 1447 2259 1447 1791 
Q 1447 1309 1634 1061 
Q 1822 813 2181 813 
Q 2531 813 2725 1069 
Q 2919 1325 2919 1791 
Q 2919 2259 2725 2515 
Q 2531 2772 2181 2772 
z
" transform="scale(0.015625)"/>
      <path id="DejaVuSans-Bold-65" d="M 4031 1759 
L 4031 1441 
L 1416 1441 
Q 1456 1047 1700 850 
Q 1944 653 2381 653 
Q 2734 653 3104 758 
Q 3475 863 3866 1075 
L 3866 213 
Q 3469 63 3072 -14 
Q 2675 -91 2278 -91 
Q 1328 -91 801 392 
Q 275 875 275 1747 
Q 275 2603 792 3093 
Q 1309 3584 2216 3584 
Q 3041 3584 3536 3087 
Q 4031 2591 4031 1759 
z
M 2881 2131 
Q 2881 2450 2695 2645 
Q 2509 2841 2209 2841 
Q 1884 2841 1681 2658 
Q 1478 2475 1428 2131 
L 2881 2131 
z
" transform="scale(0.015625)"/>
      <path id="DejaVuSans-Bold-20" transform="scale(0.015625)"/>
      <path id="DejaVuSans-Bold-43" d="M 4288 256 
Q 3956 84 3597 -3 
Q 3238 -91 2847 -91 
Q 1681 -91 1000 561 
Q 319 1213 319 2328 
Q 319 3447 1000 4098 
Q 1681 4750 2847 4750 
Q 3238 4750 3597 4662 
Q 3956 4575 4288 4403 
L 4288 3438 
Q 3953 3666 3628 3772 
Q 3303 3878 2944 3878 
Q 2300 3878 1931 3465 
Q 1563 3053 1563 2328 
Q 1563 1606 1931 1193 
Q 2300 781 2944 781 
Q 3303 781 3628 887 
Q 3953 994 4288 1222 
L 4288 256 
z
" transform="scale(0.015625)"/>
      <path id="DejaVuSans-Bold-6f" d="M 2203 2784 
Q 1831 2784 1636 2517 
Q 1441 2250 1441 1747 
Q 1441 1244 1636 976 
Q 1831 709 2203 709 
Q 2569 709 2762 976 
Q 2956 1244 2956 1747 
Q 2956 2250 2762 2517 
Q 2569 2784 2203 2784 
z
M 2203 3584 
Q 3106 3584 3614 3096 
Q 4122 2609 4122 1747 
Q 4122 884 3614 396 
Q 3106 -91 2203 -91 
Q 1297 -91 786 396 
Q 275 884 275 1747 
Q 275 2609 786 3096 
Q 1297 3584 2203 3584 
z
" transform="scale(0.015625)"/>
      <path id="DejaVuSans-Bold-76" d="M 97 3500 
L 1216 3500 
L 2088 1081 
L 2956 3500 
L 4078 3500 
L 2700 0 
L 1472 0 
L 97 3500 
z
" transform="scale(0.015625)"/>
      <path id="DejaVuSans-Bold-72" d="M 3138 2547 
Q 2991 2616 2845 2648 
Q 2700 2681 2553 2681 
Q 2122 2681 1889 2404 
Q 1656 2128 1656 1613 
L 1656 0 
L 538 0 
L 538 3500 
L 1656 3500 
L 1656 2925 
Q 1872 3269 2151 3426 
Q 2431 3584 2822 3584 
Q 2878 3584 2943 3579 
Q 3009 3575 3134 3559 
L 3138 2547 
z
" transform="scale(0.015625)"/>
      <path id="DejaVuSans-Bold-61" d="M 2106 1575 
Q 1756 1575 1579 1456 
Q 1403 1338 1403 1106 
Q 1403 894 1545 773 
Q 1688 653 1941 653 
Q 2256 653 2472 879 
Q 2688 1106 2688 1447 
L 2688 1575 
L 2106 1575 
z
M 3816 1997 
L 3816 0 
L 2688 0 
L 2688 519 
Q 2463 200 2181 54 
Q 1900 -91 1497 -91 
Q 953 -91 614 226 
Q 275 544 275 1050 
Q 275 1666 698 1953 
Q 1122 2241 2028 2241 
L 2688 2241 
L 2688 2328 
Q 2688 2594 2478 2717 
Q 2269 2841 1825 2841 
Q 1466 2841 1156 2769 
Q 847 2697 581 2553 
L 581 3406 
Q 941 3494 1303 3539 
Q 1666 3584 2028 3584 
Q 2975 3584 3395 3211 
Q 3816 2838 3816 1997 
z
" transform="scale(0.015625)"/>
      <path id="DejaVuSans-Bold-48" d="M 588 4666 
L 1791 4666 
L 1791 2888 
L 3566 2888 
L 3566 4666 
L 4769 4666 
L 4769 0 
L 3566 0 
L 3566 1978 
L 1791 1978 
L 1791 0 
L 588 0 
L 588 4666 
z
" transform="scale(0.015625)"/>
      <path id="DejaVuSans-Bold-69" d="M 538 3500 
L 1656 3500 
L 1656 0 
L 538 0 
L 538 3500 
z
M 538 4863 
L 1656 4863 
L 1656 3950 
L 538 3950 
L 538 4863 
z
" transform="scale(0.015625)"/>
      <path id="DejaVuSans-Bold-73" d="M 3272 3391 
L 3272 2541 
Q 2913 2691 2578 2766 
Q 2244 2841 1947 2841 
Q 1628 2841 1473 2761 
Q 1319 2681 1319 2516 
Q 1319 2381 1436 2309 
Q 1553 2238 1856 2203 
L 2053 2175 
Q 2913 2066 3209 1816 
Q 3506 1566 3506 1031 
Q 3506 472 3093 190 
Q 2681 -91 1863 -91 
Q 1516 -91 1145 -36 
Q 775 19 384 128 
L 384 978 
Q 719 816 1070 734 
Q 1422 653 1784 653 
Q 2113 653 2278 743 
Q 2444 834 2444 1013 
Q 2444 1163 2330 1236 
Q 2216 1309 1875 1350 
L 1678 1375 
Q 931 1469 631 1722 
Q 331 1975 331 2491 
Q 331 3047 712 3315 
Q 1094 3584 1881 3584 
Q 2191 3584 2531 3537 
Q 2872 3491 3272 3391 
z
" transform="scale(0.015625)"/>
      <path id="DejaVuSans-Bold-74" d="M 1759 4494 
L 1759 3500 
L 2913 3500 
L 2913 2700 
L 1759 2700 
L 1759 1216 
Q 1759 972 1856 886 
Q 1953 800 2241 800 
L 2816 800 
L 2816 0 
L 1856 0 
Q 1194 0 917 276 
Q 641 553 641 1216 
L 641 2700 
L 84 2700 
L 84 3500 
L 641 3500 
L 641 4494 
L 1759 4494 
z
" transform="scale(0.015625)"/>
      <path id="DejaVuSans-Bold-79" d="M 78 3500 
L 1197 3500 
L 2138 1125 
L 2938 3500 
L 4056 3500 
L 2584 -331 
Q 2363 -916 2067 -1148 
Q 1772 -1381 1288 -1381 
L 641 -1381 
L 641 -647 
L 991 -647 
Q 1275 -647 1404 -556 
Q 1534 -466 1606 -231 
L 1638 -134 
L 78 3500 
z
" transform="scale(0.015625)"/>
     </defs>
     <use xlink:href="#DejaVuSans-Bold-45"/>
     <use xlink:href="#DejaVuSans-Bold-64" x="68.310547"/>
     <use xlink:href="#DejaVuSans-Bold-67" x="139.892578"/>
     <use xlink:href="#DejaVuSans-Bold-65" x="211.474609"/>
     <use xlink:href="#DejaVuSans-Bold-20" x="279.296875"/>
     <use xlink:href="#DejaVuSans-Bold-43" x="314.111328"/>
     <use xlink:href="#DejaVuSans-Bold-6f" x="387.5"/>
     <use xlink:href="#DejaVuSans-Bold-76" x="456.201172"/>
     <use xlink:href="#DejaVuSans-Bold-65" x="521.386719"/>
     <use xlink:href="#DejaVuSans-Bold-72" x="589.208984"/>
     <use xlink:href="#DejaVuSans-Bold-61" x="638.525391"/>
     <use xlink:href="#DejaVuSans-Bold-67" x="706.005859"/>
     <use xlink:href="#DejaVuSans-Bold-65" x="777.587891"/>
     <use xlink:href="#DejaVuSans-Bold-20" x="845.410156"/>
     <use xlink:href="#DejaVuSans-Bold-48" x="880.224609"/>
     <use xlink:href="#DejaVuSans-Bold-69" x="963.916016"/>
     <use xlink:href="#DejaVuSans-Bold-73" x="998.193359"/>
     <use xlink:href="#DejaVuSans-Bold-74" x="1057.714844"/>
     <use xlink:href="#DejaVuSans-Bold-6f" x="1105.517578"/>
     <use xlink:href="#DejaVuSans-Bold-72" x="1174.21875"/>
     <use xlink:href="#DejaVuSans-Bold-79" x="1223.535156"/>
    </g>
   </g>
   <g id="legend_1">
    <g id="patch_5">
     <path d="M 267.942 508.24 
L 385.07 508.24 
Q 386.83 508.24 386.83 506.48 
L 386.83 428.8405 
Q 386.83 427.0805 385.07 427.0805 
L 267.942 427.0805 
Q 266.182 427.0805 266.182 428.8405 
L 266.182 506.48 
Q 266.182 508.24 267.942 508.24 
z
" style="fill: #ffffff; opacity: 0.8; stroke: #cccccc; stroke-width: 0.8; stroke-linejoin: miter"/>
    </g>
    <g id="text_49">
     <!-- fuzzer -->
     <g style="fill: #262626" transform="translate(311.809 437.895)scale(0.096 -0.096)">
      <defs>
       <path id="DejaVuSans-66" d="M 2375 4863 
L 2375 4384 
L 1825 4384 
Q 1516 4384 1395 4259 
Q 1275 4134 1275 3809 
L 1275 3500 
L 2222 3500 
L 2222 3053 
L 1275 3053 
L 1275 0 
L 697 0 
L 697 3053 
L 147 3053 
L 147 3500 
L 697 3500 
L 697 3744 
Q 697 4328 969 4595 
Q 1241 4863 1831 4863 
L 2375 4863 
z
" transform="scale(0.015625)"/>
       <path id="DejaVuSans-7a" d="M 353 3500 
L 3084 3500 
L 3084 2975 
L 922 459 
L 3084 459 
L 3084 0 
L 275 0 
L 275 525 
L 2438 3041 
L 353 3041 
L 353 3500 
z
" transform="scale(0.015625)"/>
      </defs>
      <use xlink:href="#DejaVuSans-66"/>
      <use xlink:href="#DejaVuSans-75" x="35.205078"/>
      <use xlink:href="#DejaVuSans-7a" x="98.583984"/>
      <use xlink:href="#DejaVuSans-7a" x="151.074219"/>
      <use xlink:href="#DejaVuSans-65" x="203.564453"/>
      <use xlink:href="#DejaVuSans-72" x="265.087891"/>
     </g>
    </g>
    <g id="line2d_56">
     <path d="M 269.702 447.898125 
L 278.502 447.898125 
L 287.302 447.898125 
" style="fill: none; stroke: #db5f57; stroke-width: 1.2; stroke-linecap: round"/>
    </g>
    <g id="text_50">
     <!-- aflplusplus-0-exid22 -->
     <g style="fill: #262626" transform="translate(294.342 450.978125)scale(0.088 -0.088)">
      <defs>
       <path id="DejaVuSans-6c" d="M 603 4863 
L 1178 4863 
L 1178 0 
L 603 0 
L 603 4863 
z
" transform="scale(0.015625)"/>
       <path id="DejaVuSans-70" d="M 1159 525 
L 1159 -1331 
L 581 -1331 
L 581 3500 
L 1159 3500 
L 1159 2969 
Q 1341 3281 1617 3432 
Q 1894 3584 2278 3584 
Q 2916 3584 3314 3078 
Q 3713 2572 3713 1747 
Q 3713 922 3314 415 
Q 2916 -91 2278 -91 
Q 1894 -91 1617 61 
Q 1341 213 1159 525 
z
M 3116 1747 
Q 3116 2381 2855 2742 
Q 2594 3103 2138 3103 
Q 1681 3103 1420 2742 
Q 1159 2381 1159 1747 
Q 1159 1113 1420 752 
Q 1681 391 2138 391 
Q 2594 391 2855 752 
Q 3116 1113 3116 1747 
z
" transform="scale(0.015625)"/>
       <path id="DejaVuSans-2d" d="M 313 2009 
L 1997 2009 
L 1997 1497 
L 313 1497 
L 313 2009 
z
" transform="scale(0.015625)"/>
       <path id="DejaVuSans-78" d="M 3513 3500 
L 2247 1797 
L 3578 0 
L 2900 0 
L 1881 1375 
L 863 0 
L 184 0 
L 1544 1831 
L 300 3500 
L 978 3500 
L 1906 2253 
L 2834 3500 
L 3513 3500 
z
" transform="scale(0.015625)"/>
      </defs>
      <use xlink:href="#DejaVuSans-61"/>
      <use xlink:href="#DejaVuSans-66" x="61.279297"/>
      <use xlink:href="#DejaVuSans-6c" x="96.484375"/>
      <use xlink:href="#DejaVuSans-70" x="124.267578"/>
      <use xlink:href="#DejaVuSans-6c" x="187.744141"/>
      <use xlink:href="#DejaVuSans-75" x="215.527344"/>
      <use xlink:href="#DejaVuSans-73" x="278.90625"/>
      <use xlink:href="#DejaVuSans-70" x="331.005859"/>
      <use xlink:href="#DejaVuSans-6c" x="394.482422"/>
      <use xlink:href="#DejaVuSans-75" x="422.265625"/>
      <use xlink:href="#DejaVuSans-73" x="485.644531"/>
      <use xlink:href="#DejaVuSans-2d" x="537.744141"/>
      <use xlink:href="#DejaVuSans-30" x="573.828125"/>
      <use xlink:href="#DejaVuSans-2d" x="637.451172"/>
      <use xlink:href="#DejaVuSans-65" x="673.535156"/>
      <use xlink:href="#DejaVuSans-78" x="733.308594"/>
      <use xlink:href="#DejaVuSans-69" x="792.488281"/>
      <use xlink:href="#DejaVuSans-64" x="820.271484"/>
      <use xlink:href="#DejaVuSans-32" x="883.748047"/>
      <use xlink:href="#DejaVuSans-32" x="947.371094"/>
     </g>
    </g>
    <g id="line2d_57">
     <path d="M 269.702 460.814875 
L 278.502 460.814875 
L 287.302 460.814875 
" style="fill: none; stroke: #b9db57; stroke-width: 1.2; stroke-linecap: round"/>
    </g>
    <g id="text_51">
     <!-- aflfast-0-exid22 -->
     <g style="fill: #262626" transform="translate(294.342 463.894875)scale(0.088 -0.088)">
      <use xlink:href="#DejaVuSans-61"/>
      <use xlink:href="#DejaVuSans-66" x="61.279297"/>
      <use xlink:href="#DejaVuSans-6c" x="96.484375"/>
      <use xlink:href="#DejaVuSans-66" x="124.267578"/>
      <use xlink:href="#DejaVuSans-61" x="159.472656"/>
      <use xlink:href="#DejaVuSans-73" x="220.751953"/>
      <use xlink:href="#DejaVuSans-74" x="272.851562"/>
      <use xlink:href="#DejaVuSans-2d" x="312.060547"/>
      <use xlink:href="#DejaVuSans-30" x="348.144531"/>
      <use xlink:href="#DejaVuSans-2d" x="411.767578"/>
      <use xlink:href="#DejaVuSans-65" x="447.851562"/>
      <use xlink:href="#DejaVuSans-78" x="507.625"/>
      <use xlink:href="#DejaVuSans-69" x="566.804688"/>
      <use xlink:href="#DejaVuSans-64" x="594.587891"/>
      <use xlink:href="#DejaVuSans-32" x="658.064453"/>
      <use xlink:href="#DejaVuSans-32" x="721.6875"/>
     </g>
    </g>
    <g id="line2d_58">
     <path d="M 269.702 473.731625 
L 278.502 473.731625 
L 287.302 473.731625 
" style="fill: none; stroke: #57db94; stroke-width: 1.2; stroke-linecap: round"/>
    </g>
    <g id="text_52">
     <!-- afl-0-exid22 -->
     <g style="fill: #262626" transform="translate(294.342 476.811625)scale(0.088 -0.088)">
      <use xlink:href="#DejaVuSans-61"/>
      <use xlink:href="#DejaVuSans-66" x="61.279297"/>
      <use xlink:href="#DejaVuSans-6c" x="96.484375"/>
      <use xlink:href="#DejaVuSans-2d" x="124.267578"/>
      <use xlink:href="#DejaVuSans-30" x="160.351562"/>
      <use xlink:href="#DejaVuSans-2d" x="223.974609"/>
      <use xlink:href="#DejaVuSans-65" x="260.058594"/>
      <use xlink:href="#DejaVuSans-78" x="319.832031"/>
      <use xlink:href="#DejaVuSans-69" x="379.011719"/>
      <use xlink:href="#DejaVuSans-64" x="406.794922"/>
      <use xlink:href="#DejaVuSans-32" x="470.271484"/>
      <use xlink:href="#DejaVuSans-32" x="533.894531"/>
     </g>
    </g>
    <g id="line2d_59">
     <path d="M 269.702 486.648375 
L 278.502 486.648375 
L 287.302 486.648375 
" style="fill: none; stroke: #5784db; stroke-width: 1.2; stroke-linecap: round"/>
    </g>
    <g id="text_53">
     <!-- fairfuzz-0-exid22 -->
     <g style="fill: #262626" transform="translate(294.342 489.728375)scale(0.088 -0.088)">
      <use xlink:href="#DejaVuSans-66"/>
      <use xlink:href="#DejaVuSans-61" x="35.205078"/>
      <use xlink:href="#DejaVuSans-69" x="96.484375"/>
      <use xlink:href="#DejaVuSans-72" x="124.267578"/>
      <use xlink:href="#DejaVuSans-66" x="165.380859"/>
      <use xlink:href="#DejaVuSans-75" x="200.585938"/>
      <use xlink:href="#DejaVuSans-7a" x="263.964844"/>
      <use xlink:href="#DejaVuSans-7a" x="316.455078"/>
      <use xlink:href="#DejaVuSans-2d" x="368.945312"/>
      <use xlink:href="#DejaVuSans-30" x="405.029297"/>
      <use xlink:href="#DejaVuSans-2d" x="468.652344"/>
      <use xlink:href="#DejaVuSans-65" x="504.736328"/>
      <use xlink:href="#DejaVuSans-78" x="564.509766"/>
      <use xlink:href="#DejaVuSans-69" x="623.689453"/>
      <use xlink:href="#DejaVuSans-64" x="651.472656"/>
      <use xlink:href="#DejaVuSans-32" x="714.949219"/>
      <use xlink:href="#DejaVuSans-32" x="778.572266"/>
     </g>
    </g>
    <g id="line2d_60">
     <path d="M 269.702 499.565125 
L 278.502 499.565125 
L 287.302 499.565125 
" style="fill: none; stroke: #c957db; stroke-width: 1.2; stroke-linecap: round"/>
    </g>
    <g id="text_54">
     <!-- fuzzer_global -->
     <g style="fill: #262626" transform="translate(294.342 502.645125)scale(0.088 -0.088)">
      <defs>
       <path id="DejaVuSans-5f" d="M 3263 -1063 
L 3263 -1509 
L -63 -1509 
L -63 -1063 
L 3263 -1063 
z
" transform="scale(0.015625)"/>
       <path id="DejaVuSans-62" d="M 3116 1747 
Q 3116 2381 2855 2742 
Q 2594 3103 2138 3103 
Q 1681 3103 1420 2742 
Q 1159 2381 1159 1747 
Q 1159 1113 1420 752 
Q 1681 391 2138 391 
Q 2594 391 2855 752 
Q 3116 1113 3116 1747 
z
M 1159 2969 
Q 1341 3281 1617 3432 
Q 1894 3584 2278 3584 
Q 2916 3584 3314 3078 
Q 3713 2572 3713 1747 
Q 3713 922 3314 415 
Q 2916 -91 2278 -91 
Q 1894 -91 1617 61 
Q 1341 213 1159 525 
L 1159 0 
L 581 0 
L 581 4863 
L 1159 4863 
L 1159 2969 
z
" transform="scale(0.015625)"/>
      </defs>
      <use xlink:href="#DejaVuSans-66"/>
      <use xlink:href="#DejaVuSans-75" x="35.205078"/>
      <use xlink:href="#DejaVuSans-7a" x="98.583984"/>
      <use xlink:href="#DejaVuSans-7a" x="151.074219"/>
      <use xlink:href="#DejaVuSans-65" x="203.564453"/>
      <use xlink:href="#DejaVuSans-72" x="265.087891"/>
      <use xlink:href="#DejaVuSans-5f" x="306.201172"/>
      <use xlink:href="#DejaVuSans-67" x="356.201172"/>
      <use xlink:href="#DejaVuSans-6c" x="419.677734"/>
      <use xlink:href="#DejaVuSans-6f" x="447.460938"/>
      <use xlink:href="#DejaVuSans-62" x="508.642578"/>
      <use xlink:href="#DejaVuSans-61" x="572.119141"/>
      <use xlink:href="#DejaVuSans-6c" x="633.398438"/>
     </g>
    </g>
   </g>
  </g>
 </g>
 <defs>
  <clipPath id="p8892041279">
   <rect x="54.3375" y="69.12" width="336.8925" height="443.52"/>
  </clipPath>
 </defs>
</svg>
