<?xml version="1.0" encoding="utf-8" standalone="no"?>
<!DOCTYPE svg PUBLIC "-//W3C//DTD SVG 1.1//EN"
  "http://www.w3.org/Graphics/SVG/1.1/DTD/svg11.dtd">
<svg xmlns:xlink="http://www.w3.org/1999/xlink" width="434.7pt" height="576pt" viewBox="0 0 434.7 576" xmlns="http://www.w3.org/2000/svg" version="1.1">
 <metadata>
  <rdf:RDF xmlns:dc="http://purl.org/dc/elements/1.1/" xmlns:cc="http://creativecommons.org/ns#" xmlns:rdf="http://www.w3.org/1999/02/22-rdf-syntax-ns#">
   <cc:Work>
    <dc:type rdf:resource="http://purl.org/dc/dcmitype/StillImage"/>
    <dc:date>2022-09-15T09:15:49.064145</dc:date>
    <dc:format>image/svg+xml</dc:format>
    <dc:creator>
     <cc:Agent>
      <dc:title>Matplotlib v3.5.3, https://matplotlib.org/</dc:title>
     </cc:Agent>
    </dc:creator>
   </cc:Work>
  </rdf:RDF>
 </metadata>
 <defs>
  <style type="text/css">*{stroke-linejoin: round; stroke-linecap: butt}</style>
 </defs>
 <g id="figure_1">
  <g id="patch_1">
   <path d="M 0 576 
L 434.7 576 
L 434.7 0 
L 0 0 
z
" style="fill: #ffffff"/>
  </g>
  <g id="axes_1">
   <g id="patch_2">
    <path d="M 54.3375 512.64 
L 391.23 512.64 
L 391.23 69.12 
L 54.3375 69.12 
z
" style="fill: #ffffff"/>
   </g>
   <g id="matplotlib.axis_1">
    <g id="xtick_1">
     <g id="line2d_1">
      <path d="M 69.650795 512.64 
L 69.650795 69.12 
" clip-path="url(#p3c870294db)" style="fill: none; stroke: #cccccc; stroke-width: 0.8; stroke-linecap: round"/>
     </g>
     <g id="text_1">
      <!-- 0 -->
      <g style="fill: #262626" transform="translate(69.388282 529.627249)rotate(-45)scale(0.088 -0.088)">
       <defs>
        <path id="DejaVuSans-30" d="M 2034 4250 
Q 1547 4250 1301 3770 
Q 1056 3291 1056 2328 
Q 1056 1369 1301 889 
Q 1547 409 2034 409 
Q 2525 409 2770 889 
Q 3016 1369 3016 2328 
Q 3016 3291 2770 3770 
Q 2525 4250 2034 4250 
z
M 2034 4750 
Q 2819 4750 3233 4129 
Q 3647 3509 3647 2328 
Q 3647 1150 3233 529 
Q 2819 -91 2034 -91 
Q 1250 -91 836 529 
Q 422 1150 422 2328 
Q 422 3509 836 4129 
Q 1250 4750 2034 4750 
z
" transform="scale(0.015625)"/>
       </defs>
       <use xlink:href="#DejaVuSans-30"/>
      </g>
     </g>
    </g>
    <g id="xtick_2">
     <g id="line2d_2">
      <path d="M 86.677392 512.64 
L 86.677392 69.12 
" clip-path="url(#p3c870294db)" style="fill: none; stroke: #cccccc; stroke-width: 0.8; stroke-linecap: round"/>
     </g>
     <g id="text_2">
      <!-- 80 -->
      <g style="fill: #262626" transform="translate(84.435333 533.58634)rotate(-45)scale(0.088 -0.088)">
       <defs>
        <path id="DejaVuSans-38" d="M 2034 2216 
Q 1584 2216 1326 1975 
Q 1069 1734 1069 1313 
Q 1069 891 1326 650 
Q 1584 409 2034 409 
Q 2484 409 2743 651 
Q 3003 894 3003 1313 
Q 3003 1734 2745 1975 
Q 2488 2216 2034 2216 
z
M 1403 2484 
Q 997 2584 770 2862 
Q 544 3141 544 3541 
Q 544 4100 942 4425 
Q 1341 4750 2034 4750 
Q 2731 4750 3128 4425 
Q 3525 4100 3525 3541 
Q 3525 3141 3298 2862 
Q 3072 2584 2669 2484 
Q 3125 2378 3379 2068 
Q 3634 1759 3634 1313 
Q 3634 634 3220 271 
Q 2806 -91 2034 -91 
Q 1263 -91 848 271 
Q 434 634 434 1313 
Q 434 1759 690 2068 
Q 947 2378 1403 2484 
z
M 1172 3481 
Q 1172 3119 1398 2916 
Q 1625 2713 2034 2713 
Q 2441 2713 2670 2916 
Q 2900 3119 2900 3481 
Q 2900 3844 2670 4047 
Q 2441 4250 2034 4250 
Q 1625 4250 1398 4047 
Q 1172 3844 1172 3481 
z
" transform="scale(0.015625)"/>
       </defs>
       <use xlink:href="#DejaVuSans-38"/>
       <use xlink:href="#DejaVuSans-30" x="63.623047"/>
      </g>
     </g>
    </g>
    <g id="xtick_3">
     <g id="line2d_3">
      <path d="M 103.703989 512.64 
L 103.703989 69.12 
" clip-path="url(#p3c870294db)" style="fill: none; stroke: #cccccc; stroke-width: 0.8; stroke-linecap: round"/>
     </g>
     <g id="text_3">
      <!-- 160 -->
      <g style="fill: #262626" transform="translate(99.482385 537.54543)rotate(-45)scale(0.088 -0.088)">
       <defs>
        <path id="DejaVuSans-31" d="M 794 531 
L 1825 531 
L 1825 4091 
L 703 3866 
L 703 4441 
L 1819 4666 
L 2450 4666 
L 2450 531 
L 3481 531 
L 3481 0 
L 794 0 
L 794 531 
z
" transform="scale(0.015625)"/>
        <path id="DejaVuSans-36" d="M 2113 2584 
Q 1688 2584 1439 2293 
Q 1191 2003 1191 1497 
Q 1191 994 1439 701 
Q 1688 409 2113 409 
Q 2538 409 2786 701 
Q 3034 994 3034 1497 
Q 3034 2003 2786 2293 
Q 2538 2584 2113 2584 
z
M 3366 4563 
L 3366 3988 
Q 3128 4100 2886 4159 
Q 2644 4219 2406 4219 
Q 1781 4219 1451 3797 
Q 1122 3375 1075 2522 
Q 1259 2794 1537 2939 
Q 1816 3084 2150 3084 
Q 2853 3084 3261 2657 
Q 3669 2231 3669 1497 
Q 3669 778 3244 343 
Q 2819 -91 2113 -91 
Q 1303 -91 875 529 
Q 447 1150 447 2328 
Q 447 3434 972 4092 
Q 1497 4750 2381 4750 
Q 2619 4750 2861 4703 
Q 3103 4656 3366 4563 
z
" transform="scale(0.015625)"/>
       </defs>
       <use xlink:href="#DejaVuSans-31"/>
       <use xlink:href="#DejaVuSans-36" x="63.623047"/>
       <use xlink:href="#DejaVuSans-30" x="127.246094"/>
      </g>
     </g>
    </g>
    <g id="xtick_4">
     <g id="line2d_4">
      <path d="M 120.730586 512.64 
L 120.730586 69.12 
" clip-path="url(#p3c870294db)" style="fill: none; stroke: #cccccc; stroke-width: 0.8; stroke-linecap: round"/>
     </g>
     <g id="text_4">
      <!-- 240 -->
      <g style="fill: #262626" transform="translate(116.508981 537.54543)rotate(-45)scale(0.088 -0.088)">
       <defs>
        <path id="DejaVuSans-32" d="M 1228 531 
L 3431 531 
L 3431 0 
L 469 0 
L 469 531 
Q 828 903 1448 1529 
Q 2069 2156 2228 2338 
Q 2531 2678 2651 2914 
Q 2772 3150 2772 3378 
Q 2772 3750 2511 3984 
Q 2250 4219 1831 4219 
Q 1534 4219 1204 4116 
Q 875 4013 500 3803 
L 500 4441 
Q 881 4594 1212 4672 
Q 1544 4750 1819 4750 
Q 2544 4750 2975 4387 
Q 3406 4025 3406 3419 
Q 3406 3131 3298 2873 
Q 3191 2616 2906 2266 
Q 2828 2175 2409 1742 
Q 1991 1309 1228 531 
z
" transform="scale(0.015625)"/>
        <path id="DejaVuSans-34" d="M 2419 4116 
L 825 1625 
L 2419 1625 
L 2419 4116 
z
M 2253 4666 
L 3047 4666 
L 3047 1625 
L 3713 1625 
L 3713 1100 
L 3047 1100 
L 3047 0 
L 2419 0 
L 2419 1100 
L 313 1100 
L 313 1709 
L 2253 4666 
z
" transform="scale(0.015625)"/>
       </defs>
       <use xlink:href="#DejaVuSans-32"/>
       <use xlink:href="#DejaVuSans-34" x="63.623047"/>
       <use xlink:href="#DejaVuSans-30" x="127.246094"/>
      </g>
     </g>
    </g>
    <g id="xtick_5">
     <g id="line2d_5">
      <path d="M 137.757182 512.64 
L 137.757182 69.12 
" clip-path="url(#p3c870294db)" style="fill: none; stroke: #cccccc; stroke-width: 0.8; stroke-linecap: round"/>
     </g>
     <g id="text_5">
      <!-- 320 -->
      <g style="fill: #262626" transform="translate(133.535578 537.54543)rotate(-45)scale(0.088 -0.088)">
       <defs>
        <path id="DejaVuSans-33" d="M 2597 2516 
Q 3050 2419 3304 2112 
Q 3559 1806 3559 1356 
Q 3559 666 3084 287 
Q 2609 -91 1734 -91 
Q 1441 -91 1130 -33 
Q 819 25 488 141 
L 488 750 
Q 750 597 1062 519 
Q 1375 441 1716 441 
Q 2309 441 2620 675 
Q 2931 909 2931 1356 
Q 2931 1769 2642 2001 
Q 2353 2234 1838 2234 
L 1294 2234 
L 1294 2753 
L 1863 2753 
Q 2328 2753 2575 2939 
Q 2822 3125 2822 3475 
Q 2822 3834 2567 4026 
Q 2313 4219 1838 4219 
Q 1578 4219 1281 4162 
Q 984 4106 628 3988 
L 628 4550 
Q 988 4650 1302 4700 
Q 1616 4750 1894 4750 
Q 2613 4750 3031 4423 
Q 3450 4097 3450 3541 
Q 3450 3153 3228 2886 
Q 3006 2619 2597 2516 
z
" transform="scale(0.015625)"/>
       </defs>
       <use xlink:href="#DejaVuSans-33"/>
       <use xlink:href="#DejaVuSans-32" x="63.623047"/>
       <use xlink:href="#DejaVuSans-30" x="127.246094"/>
      </g>
     </g>
    </g>
    <g id="xtick_6">
     <g id="line2d_6">
      <path d="M 154.783779 512.64 
L 154.783779 69.12 
" clip-path="url(#p3c870294db)" style="fill: none; stroke: #cccccc; stroke-width: 0.8; stroke-linecap: round"/>
     </g>
     <g id="text_6">
      <!-- 400 -->
      <g style="fill: #262626" transform="translate(150.562175 537.54543)rotate(-45)scale(0.088 -0.088)">
       <use xlink:href="#DejaVuSans-34"/>
       <use xlink:href="#DejaVuSans-30" x="63.623047"/>
       <use xlink:href="#DejaVuSans-30" x="127.246094"/>
      </g>
     </g>
    </g>
    <g id="xtick_7">
     <g id="line2d_7">
      <path d="M 171.810376 512.64 
L 171.810376 69.12 
" clip-path="url(#p3c870294db)" style="fill: none; stroke: #cccccc; stroke-width: 0.8; stroke-linecap: round"/>
     </g>
     <g id="text_7">
      <!-- 480 -->
      <g style="fill: #262626" transform="translate(167.588772 537.54543)rotate(-45)scale(0.088 -0.088)">
       <use xlink:href="#DejaVuSans-34"/>
       <use xlink:href="#DejaVuSans-38" x="63.623047"/>
       <use xlink:href="#DejaVuSans-30" x="127.246094"/>
      </g>
     </g>
    </g>
    <g id="xtick_8">
     <g id="line2d_8">
      <path d="M 188.836973 512.64 
L 188.836973 69.12 
" clip-path="url(#p3c870294db)" style="fill: none; stroke: #cccccc; stroke-width: 0.8; stroke-linecap: round"/>
     </g>
     <g id="text_8">
      <!-- 560 -->
      <g style="fill: #262626" transform="translate(184.615368 537.54543)rotate(-45)scale(0.088 -0.088)">
       <defs>
        <path id="DejaVuSans-35" d="M 691 4666 
L 3169 4666 
L 3169 4134 
L 1269 4134 
L 1269 2991 
Q 1406 3038 1543 3061 
Q 1681 3084 1819 3084 
Q 2600 3084 3056 2656 
Q 3513 2228 3513 1497 
Q 3513 744 3044 326 
Q 2575 -91 1722 -91 
Q 1428 -91 1123 -41 
Q 819 9 494 109 
L 494 744 
Q 775 591 1075 516 
Q 1375 441 1709 441 
Q 2250 441 2565 725 
Q 2881 1009 2881 1497 
Q 2881 1984 2565 2268 
Q 2250 2553 1709 2553 
Q 1456 2553 1204 2497 
Q 953 2441 691 2322 
L 691 4666 
z
" transform="scale(0.015625)"/>
       </defs>
       <use xlink:href="#DejaVuSans-35"/>
       <use xlink:href="#DejaVuSans-36" x="63.623047"/>
       <use xlink:href="#DejaVuSans-30" x="127.246094"/>
      </g>
     </g>
    </g>
    <g id="xtick_9">
     <g id="line2d_9">
      <path d="M 205.863569 512.64 
L 205.863569 69.12 
" clip-path="url(#p3c870294db)" style="fill: none; stroke: #cccccc; stroke-width: 0.8; stroke-linecap: round"/>
     </g>
     <g id="text_9">
      <!-- 640 -->
      <g style="fill: #262626" transform="translate(201.641965 537.54543)rotate(-45)scale(0.088 -0.088)">
       <use xlink:href="#DejaVuSans-36"/>
       <use xlink:href="#DejaVuSans-34" x="63.623047"/>
       <use xlink:href="#DejaVuSans-30" x="127.246094"/>
      </g>
     </g>
    </g>
    <g id="xtick_10">
     <g id="line2d_10">
      <path d="M 222.890166 512.64 
L 222.890166 69.12 
" clip-path="url(#p3c870294db)" style="fill: none; stroke: #cccccc; stroke-width: 0.8; stroke-linecap: round"/>
     </g>
     <g id="text_10">
      <!-- 720 -->
      <g style="fill: #262626" transform="translate(218.668562 537.54543)rotate(-45)scale(0.088 -0.088)">
       <defs>
        <path id="DejaVuSans-37" d="M 525 4666 
L 3525 4666 
L 3525 4397 
L 1831 0 
L 1172 0 
L 2766 4134 
L 525 4134 
L 525 4666 
z
" transform="scale(0.015625)"/>
       </defs>
       <use xlink:href="#DejaVuSans-37"/>
       <use xlink:href="#DejaVuSans-32" x="63.623047"/>
       <use xlink:href="#DejaVuSans-30" x="127.246094"/>
      </g>
     </g>
    </g>
    <g id="xtick_11">
     <g id="line2d_11">
      <path d="M 239.916763 512.64 
L 239.916763 69.12 
" clip-path="url(#p3c870294db)" style="fill: none; stroke: #cccccc; stroke-width: 0.8; stroke-linecap: round"/>
     </g>
     <g id="text_11">
      <!-- 800 -->
      <g style="fill: #262626" transform="translate(235.695159 537.54543)rotate(-45)scale(0.088 -0.088)">
       <use xlink:href="#DejaVuSans-38"/>
       <use xlink:href="#DejaVuSans-30" x="63.623047"/>
       <use xlink:href="#DejaVuSans-30" x="127.246094"/>
      </g>
     </g>
    </g>
    <g id="xtick_12">
     <g id="line2d_12">
      <path d="M 256.94336 512.64 
L 256.94336 69.12 
" clip-path="url(#p3c870294db)" style="fill: none; stroke: #cccccc; stroke-width: 0.8; stroke-linecap: round"/>
     </g>
     <g id="text_12">
      <!-- 880 -->
      <g style="fill: #262626" transform="translate(252.721755 537.54543)rotate(-45)scale(0.088 -0.088)">
       <use xlink:href="#DejaVuSans-38"/>
       <use xlink:href="#DejaVuSans-38" x="63.623047"/>
       <use xlink:href="#DejaVuSans-30" x="127.246094"/>
      </g>
     </g>
    </g>
    <g id="xtick_13">
     <g id="line2d_13">
      <path d="M 273.969956 512.64 
L 273.969956 69.12 
" clip-path="url(#p3c870294db)" style="fill: none; stroke: #cccccc; stroke-width: 0.8; stroke-linecap: round"/>
     </g>
     <g id="text_13">
      <!-- 960 -->
      <g style="fill: #262626" transform="translate(269.748352 537.54543)rotate(-45)scale(0.088 -0.088)">
       <defs>
        <path id="DejaVuSans-39" d="M 703 97 
L 703 672 
Q 941 559 1184 500 
Q 1428 441 1663 441 
Q 2288 441 2617 861 
Q 2947 1281 2994 2138 
Q 2813 1869 2534 1725 
Q 2256 1581 1919 1581 
Q 1219 1581 811 2004 
Q 403 2428 403 3163 
Q 403 3881 828 4315 
Q 1253 4750 1959 4750 
Q 2769 4750 3195 4129 
Q 3622 3509 3622 2328 
Q 3622 1225 3098 567 
Q 2575 -91 1691 -91 
Q 1453 -91 1209 -44 
Q 966 3 703 97 
z
M 1959 2075 
Q 2384 2075 2632 2365 
Q 2881 2656 2881 3163 
Q 2881 3666 2632 3958 
Q 2384 4250 1959 4250 
Q 1534 4250 1286 3958 
Q 1038 3666 1038 3163 
Q 1038 2656 1286 2365 
Q 1534 2075 1959 2075 
z
" transform="scale(0.015625)"/>
       </defs>
       <use xlink:href="#DejaVuSans-39"/>
       <use xlink:href="#DejaVuSans-36" x="63.623047"/>
       <use xlink:href="#DejaVuSans-30" x="127.246094"/>
      </g>
     </g>
    </g>
    <g id="xtick_14">
     <g id="line2d_14">
      <path d="M 290.996553 512.64 
L 290.996553 69.12 
" clip-path="url(#p3c870294db)" style="fill: none; stroke: #cccccc; stroke-width: 0.8; stroke-linecap: round"/>
     </g>
     <g id="text_14">
      <!-- 1040 -->
      <g style="fill: #262626" transform="translate(284.795404 541.504521)rotate(-45)scale(0.088 -0.088)">
       <use xlink:href="#DejaVuSans-31"/>
       <use xlink:href="#DejaVuSans-30" x="63.623047"/>
       <use xlink:href="#DejaVuSans-34" x="127.246094"/>
       <use xlink:href="#DejaVuSans-30" x="190.869141"/>
      </g>
     </g>
    </g>
    <g id="xtick_15">
     <g id="line2d_15">
      <path d="M 308.02315 512.64 
L 308.02315 69.12 
" clip-path="url(#p3c870294db)" style="fill: none; stroke: #cccccc; stroke-width: 0.8; stroke-linecap: round"/>
     </g>
     <g id="text_15">
      <!-- 1120 -->
      <g style="fill: #262626" transform="translate(301.822 541.504521)rotate(-45)scale(0.088 -0.088)">
       <use xlink:href="#DejaVuSans-31"/>
       <use xlink:href="#DejaVuSans-31" x="63.623047"/>
       <use xlink:href="#DejaVuSans-32" x="127.246094"/>
       <use xlink:href="#DejaVuSans-30" x="190.869141"/>
      </g>
     </g>
    </g>
    <g id="xtick_16">
     <g id="line2d_16">
      <path d="M 325.049747 512.64 
L 325.049747 69.12 
" clip-path="url(#p3c870294db)" style="fill: none; stroke: #cccccc; stroke-width: 0.8; stroke-linecap: round"/>
     </g>
     <g id="text_16">
      <!-- 1200 -->
      <g style="fill: #262626" transform="translate(318.848597 541.504521)rotate(-45)scale(0.088 -0.088)">
       <use xlink:href="#DejaVuSans-31"/>
       <use xlink:href="#DejaVuSans-32" x="63.623047"/>
       <use xlink:href="#DejaVuSans-30" x="127.246094"/>
       <use xlink:href="#DejaVuSans-30" x="190.869141"/>
      </g>
     </g>
    </g>
    <g id="xtick_17">
     <g id="line2d_17">
      <path d="M 342.076343 512.64 
L 342.076343 69.12 
" clip-path="url(#p3c870294db)" style="fill: none; stroke: #cccccc; stroke-width: 0.8; stroke-linecap: round"/>
     </g>
     <g id="text_17">
      <!-- 1280 -->
      <g style="fill: #262626" transform="translate(335.875194 541.504521)rotate(-45)scale(0.088 -0.088)">
       <use xlink:href="#DejaVuSans-31"/>
       <use xlink:href="#DejaVuSans-32" x="63.623047"/>
       <use xlink:href="#DejaVuSans-38" x="127.246094"/>
       <use xlink:href="#DejaVuSans-30" x="190.869141"/>
      </g>
     </g>
    </g>
    <g id="xtick_18">
     <g id="line2d_18">
      <path d="M 359.10294 512.64 
L 359.10294 69.12 
" clip-path="url(#p3c870294db)" style="fill: none; stroke: #cccccc; stroke-width: 0.8; stroke-linecap: round"/>
     </g>
     <g id="text_18">
      <!-- 1360 -->
      <g style="fill: #262626" transform="translate(352.901791 541.504521)rotate(-45)scale(0.088 -0.088)">
       <use xlink:href="#DejaVuSans-31"/>
       <use xlink:href="#DejaVuSans-33" x="63.623047"/>
       <use xlink:href="#DejaVuSans-36" x="127.246094"/>
       <use xlink:href="#DejaVuSans-30" x="190.869141"/>
      </g>
     </g>
    </g>
    <g id="xtick_19">
     <g id="line2d_19">
      <path d="M 376.129537 512.64 
L 376.129537 69.12 
" clip-path="url(#p3c870294db)" style="fill: none; stroke: #cccccc; stroke-width: 0.8; stroke-linecap: round"/>
     </g>
     <g id="text_19">
      <!-- 1440 -->
      <g style="fill: #262626" transform="translate(369.928387 541.504521)rotate(-45)scale(0.088 -0.088)">
       <use xlink:href="#DejaVuSans-31"/>
       <use xlink:href="#DejaVuSans-34" x="63.623047"/>
       <use xlink:href="#DejaVuSans-34" x="127.246094"/>
       <use xlink:href="#DejaVuSans-30" x="190.869141"/>
      </g>
     </g>
    </g>
    <g id="text_20">
     <!-- Time (Minutes) -->
     <g style="fill: #262626" transform="translate(186.87375 554.093115)scale(0.096 -0.096)">
      <defs>
       <path id="DejaVuSans-54" d="M -19 4666 
L 3928 4666 
L 3928 4134 
L 2272 4134 
L 2272 0 
L 1638 0 
L 1638 4134 
L -19 4134 
L -19 4666 
z
" transform="scale(0.015625)"/>
       <path id="DejaVuSans-69" d="M 603 3500 
L 1178 3500 
L 1178 0 
L 603 0 
L 603 3500 
z
M 603 4863 
L 1178 4863 
L 1178 4134 
L 603 4134 
L 603 4863 
z
" transform="scale(0.015625)"/>
       <path id="DejaVuSans-6d" d="M 3328 2828 
Q 3544 3216 3844 3400 
Q 4144 3584 4550 3584 
Q 5097 3584 5394 3201 
Q 5691 2819 5691 2113 
L 5691 0 
L 5113 0 
L 5113 2094 
Q 5113 2597 4934 2840 
Q 4756 3084 4391 3084 
Q 3944 3084 3684 2787 
Q 3425 2491 3425 1978 
L 3425 0 
L 2847 0 
L 2847 2094 
Q 2847 2600 2669 2842 
Q 2491 3084 2119 3084 
Q 1678 3084 1418 2786 
Q 1159 2488 1159 1978 
L 1159 0 
L 581 0 
L 581 3500 
L 1159 3500 
L 1159 2956 
Q 1356 3278 1631 3431 
Q 1906 3584 2284 3584 
Q 2666 3584 2933 3390 
Q 3200 3197 3328 2828 
z
" transform="scale(0.015625)"/>
       <path id="DejaVuSans-65" d="M 3597 1894 
L 3597 1613 
L 953 1613 
Q 991 1019 1311 708 
Q 1631 397 2203 397 
Q 2534 397 2845 478 
Q 3156 559 3463 722 
L 3463 178 
Q 3153 47 2828 -22 
Q 2503 -91 2169 -91 
Q 1331 -91 842 396 
Q 353 884 353 1716 
Q 353 2575 817 3079 
Q 1281 3584 2069 3584 
Q 2775 3584 3186 3129 
Q 3597 2675 3597 1894 
z
M 3022 2063 
Q 3016 2534 2758 2815 
Q 2500 3097 2075 3097 
Q 1594 3097 1305 2825 
Q 1016 2553 972 2059 
L 3022 2063 
z
" transform="scale(0.015625)"/>
       <path id="DejaVuSans-20" transform="scale(0.015625)"/>
       <path id="DejaVuSans-28" d="M 1984 4856 
Q 1566 4138 1362 3434 
Q 1159 2731 1159 2009 
Q 1159 1288 1364 580 
Q 1569 -128 1984 -844 
L 1484 -844 
Q 1016 -109 783 600 
Q 550 1309 550 2009 
Q 550 2706 781 3412 
Q 1013 4119 1484 4856 
L 1984 4856 
z
" transform="scale(0.015625)"/>
       <path id="DejaVuSans-4d" d="M 628 4666 
L 1569 4666 
L 2759 1491 
L 3956 4666 
L 4897 4666 
L 4897 0 
L 4281 0 
L 4281 4097 
L 3078 897 
L 2444 897 
L 1241 4097 
L 1241 0 
L 628 0 
L 628 4666 
z
" transform="scale(0.015625)"/>
       <path id="DejaVuSans-6e" d="M 3513 2113 
L 3513 0 
L 2938 0 
L 2938 2094 
Q 2938 2591 2744 2837 
Q 2550 3084 2163 3084 
Q 1697 3084 1428 2787 
Q 1159 2491 1159 1978 
L 1159 0 
L 581 0 
L 581 3500 
L 1159 3500 
L 1159 2956 
Q 1366 3272 1645 3428 
Q 1925 3584 2291 3584 
Q 2894 3584 3203 3211 
Q 3513 2838 3513 2113 
z
" transform="scale(0.015625)"/>
       <path id="DejaVuSans-75" d="M 544 1381 
L 544 3500 
L 1119 3500 
L 1119 1403 
Q 1119 906 1312 657 
Q 1506 409 1894 409 
Q 2359 409 2629 706 
Q 2900 1003 2900 1516 
L 2900 3500 
L 3475 3500 
L 3475 0 
L 2900 0 
L 2900 538 
Q 2691 219 2414 64 
Q 2138 -91 1772 -91 
Q 1169 -91 856 284 
Q 544 659 544 1381 
z
M 1991 3584 
L 1991 3584 
z
" transform="scale(0.015625)"/>
       <path id="DejaVuSans-74" d="M 1172 4494 
L 1172 3500 
L 2356 3500 
L 2356 3053 
L 1172 3053 
L 1172 1153 
Q 1172 725 1289 603 
Q 1406 481 1766 481 
L 2356 481 
L 2356 0 
L 1766 0 
Q 1100 0 847 248 
Q 594 497 594 1153 
L 594 3053 
L 172 3053 
L 172 3500 
L 594 3500 
L 594 4494 
L 1172 4494 
z
" transform="scale(0.015625)"/>
       <path id="DejaVuSans-73" d="M 2834 3397 
L 2834 2853 
Q 2591 2978 2328 3040 
Q 2066 3103 1784 3103 
Q 1356 3103 1142 2972 
Q 928 2841 928 2578 
Q 928 2378 1081 2264 
Q 1234 2150 1697 2047 
L 1894 2003 
Q 2506 1872 2764 1633 
Q 3022 1394 3022 966 
Q 3022 478 2636 193 
Q 2250 -91 1575 -91 
Q 1294 -91 989 -36 
Q 684 19 347 128 
L 347 722 
Q 666 556 975 473 
Q 1284 391 1588 391 
Q 1994 391 2212 530 
Q 2431 669 2431 922 
Q 2431 1156 2273 1281 
Q 2116 1406 1581 1522 
L 1381 1569 
Q 847 1681 609 1914 
Q 372 2147 372 2553 
Q 372 3047 722 3315 
Q 1072 3584 1716 3584 
Q 2034 3584 2315 3537 
Q 2597 3491 2834 3397 
z
" transform="scale(0.015625)"/>
       <path id="DejaVuSans-29" d="M 513 4856 
L 1013 4856 
Q 1481 4119 1714 3412 
Q 1947 2706 1947 2009 
Q 1947 1309 1714 600 
Q 1481 -109 1013 -844 
L 513 -844 
Q 928 -128 1133 580 
Q 1338 1288 1338 2009 
Q 1338 2731 1133 3434 
Q 928 4138 513 4856 
z
" transform="scale(0.015625)"/>
      </defs>
      <use xlink:href="#DejaVuSans-54"/>
      <use xlink:href="#DejaVuSans-69" x="57.958984"/>
      <use xlink:href="#DejaVuSans-6d" x="85.742188"/>
      <use xlink:href="#DejaVuSans-65" x="183.154297"/>
      <use xlink:href="#DejaVuSans-20" x="244.677734"/>
      <use xlink:href="#DejaVuSans-28" x="276.464844"/>
      <use xlink:href="#DejaVuSans-4d" x="315.478516"/>
      <use xlink:href="#DejaVuSans-69" x="401.757812"/>
      <use xlink:href="#DejaVuSans-6e" x="429.541016"/>
      <use xlink:href="#DejaVuSans-75" x="492.919922"/>
      <use xlink:href="#DejaVuSans-74" x="556.298828"/>
      <use xlink:href="#DejaVuSans-65" x="595.507812"/>
      <use xlink:href="#DejaVuSans-73" x="657.03125"/>
      <use xlink:href="#DejaVuSans-29" x="709.130859"/>
     </g>
    </g>
   </g>
   <g id="matplotlib.axis_2">
    <g id="ytick_1">
     <g id="line2d_20">
      <path d="M 54.3375 492.48 
L 391.23 492.48 
" clip-path="url(#p3c870294db)" style="fill: none; stroke: #cccccc; stroke-width: 0.8; stroke-linecap: round"/>
     </g>
     <g id="text_21">
      <!-- 0 -->
      <g style="fill: #262626" transform="translate(40.4385 495.823312)scale(0.088 -0.088)">
       <use xlink:href="#DejaVuSans-30"/>
      </g>
     </g>
    </g>
    <g id="ytick_2">
     <g id="line2d_21">
      <path d="M 54.3375 470.092438 
L 391.23 470.092438 
" clip-path="url(#p3c870294db)" style="fill: none; stroke: #cccccc; stroke-width: 0.8; stroke-linecap: round"/>
     </g>
     <g id="text_22">
      <!-- 100 -->
      <g style="fill: #262626" transform="translate(29.2405 473.43575)scale(0.088 -0.088)">
       <use xlink:href="#DejaVuSans-31"/>
       <use xlink:href="#DejaVuSans-30" x="63.623047"/>
       <use xlink:href="#DejaVuSans-30" x="127.246094"/>
      </g>
     </g>
    </g>
    <g id="ytick_3">
     <g id="line2d_22">
      <path d="M 54.3375 447.704875 
L 391.23 447.704875 
" clip-path="url(#p3c870294db)" style="fill: none; stroke: #cccccc; stroke-width: 0.8; stroke-linecap: round"/>
     </g>
     <g id="text_23">
      <!-- 200 -->
      <g style="fill: #262626" transform="translate(29.2405 451.048188)scale(0.088 -0.088)">
       <use xlink:href="#DejaVuSans-32"/>
       <use xlink:href="#DejaVuSans-30" x="63.623047"/>
       <use xlink:href="#DejaVuSans-30" x="127.246094"/>
      </g>
     </g>
    </g>
    <g id="ytick_4">
     <g id="line2d_23">
      <path d="M 54.3375 425.317313 
L 391.23 425.317313 
" clip-path="url(#p3c870294db)" style="fill: none; stroke: #cccccc; stroke-width: 0.8; stroke-linecap: round"/>
     </g>
     <g id="text_24">
      <!-- 300 -->
      <g style="fill: #262626" transform="translate(29.2405 428.660625)scale(0.088 -0.088)">
       <use xlink:href="#DejaVuSans-33"/>
       <use xlink:href="#DejaVuSans-30" x="63.623047"/>
       <use xlink:href="#DejaVuSans-30" x="127.246094"/>
      </g>
     </g>
    </g>
    <g id="ytick_5">
     <g id="line2d_24">
      <path d="M 54.3375 402.92975 
L 391.23 402.92975 
" clip-path="url(#p3c870294db)" style="fill: none; stroke: #cccccc; stroke-width: 0.8; stroke-linecap: round"/>
     </g>
     <g id="text_25">
      <!-- 400 -->
      <g style="fill: #262626" transform="translate(29.2405 406.273063)scale(0.088 -0.088)">
       <use xlink:href="#DejaVuSans-34"/>
       <use xlink:href="#DejaVuSans-30" x="63.623047"/>
       <use xlink:href="#DejaVuSans-30" x="127.246094"/>
      </g>
     </g>
    </g>
    <g id="ytick_6">
     <g id="line2d_25">
      <path d="M 54.3375 380.542188 
L 391.23 380.542188 
" clip-path="url(#p3c870294db)" style="fill: none; stroke: #cccccc; stroke-width: 0.8; stroke-linecap: round"/>
     </g>
     <g id="text_26">
      <!-- 500 -->
      <g style="fill: #262626" transform="translate(29.2405 383.8855)scale(0.088 -0.088)">
       <use xlink:href="#DejaVuSans-35"/>
       <use xlink:href="#DejaVuSans-30" x="63.623047"/>
       <use xlink:href="#DejaVuSans-30" x="127.246094"/>
      </g>
     </g>
    </g>
    <g id="ytick_7">
     <g id="line2d_26">
      <path d="M 54.3375 358.154625 
L 391.23 358.154625 
" clip-path="url(#p3c870294db)" style="fill: none; stroke: #cccccc; stroke-width: 0.8; stroke-linecap: round"/>
     </g>
     <g id="text_27">
      <!-- 600 -->
      <g style="fill: #262626" transform="translate(29.2405 361.497938)scale(0.088 -0.088)">
       <use xlink:href="#DejaVuSans-36"/>
       <use xlink:href="#DejaVuSans-30" x="63.623047"/>
       <use xlink:href="#DejaVuSans-30" x="127.246094"/>
      </g>
     </g>
    </g>
    <g id="ytick_8">
     <g id="line2d_27">
      <path d="M 54.3375 335.767063 
L 391.23 335.767063 
" clip-path="url(#p3c870294db)" style="fill: none; stroke: #cccccc; stroke-width: 0.8; stroke-linecap: round"/>
     </g>
     <g id="text_28">
      <!-- 700 -->
      <g style="fill: #262626" transform="translate(29.2405 339.110375)scale(0.088 -0.088)">
       <use xlink:href="#DejaVuSans-37"/>
       <use xlink:href="#DejaVuSans-30" x="63.623047"/>
       <use xlink:href="#DejaVuSans-30" x="127.246094"/>
      </g>
     </g>
    </g>
    <g id="ytick_9">
     <g id="line2d_28">
      <path d="M 54.3375 313.3795 
L 391.23 313.3795 
" clip-path="url(#p3c870294db)" style="fill: none; stroke: #cccccc; stroke-width: 0.8; stroke-linecap: round"/>
     </g>
     <g id="text_29">
      <!-- 800 -->
      <g style="fill: #262626" transform="translate(29.2405 316.722813)scale(0.088 -0.088)">
       <use xlink:href="#DejaVuSans-38"/>
       <use xlink:href="#DejaVuSans-30" x="63.623047"/>
       <use xlink:href="#DejaVuSans-30" x="127.246094"/>
      </g>
     </g>
    </g>
    <g id="ytick_10">
     <g id="line2d_29">
      <path d="M 54.3375 290.991938 
L 391.23 290.991938 
" clip-path="url(#p3c870294db)" style="fill: none; stroke: #cccccc; stroke-width: 0.8; stroke-linecap: round"/>
     </g>
     <g id="text_30">
      <!-- 900 -->
      <g style="fill: #262626" transform="translate(29.2405 294.33525)scale(0.088 -0.088)">
       <use xlink:href="#DejaVuSans-39"/>
       <use xlink:href="#DejaVuSans-30" x="63.623047"/>
       <use xlink:href="#DejaVuSans-30" x="127.246094"/>
      </g>
     </g>
    </g>
    <g id="ytick_11">
     <g id="line2d_30">
      <path d="M 54.3375 268.604375 
L 391.23 268.604375 
" clip-path="url(#p3c870294db)" style="fill: none; stroke: #cccccc; stroke-width: 0.8; stroke-linecap: round"/>
     </g>
     <g id="text_31">
      <!-- 1000 -->
      <g style="fill: #262626" transform="translate(23.6415 271.947688)scale(0.088 -0.088)">
       <use xlink:href="#DejaVuSans-31"/>
       <use xlink:href="#DejaVuSans-30" x="63.623047"/>
       <use xlink:href="#DejaVuSans-30" x="127.246094"/>
       <use xlink:href="#DejaVuSans-30" x="190.869141"/>
      </g>
     </g>
    </g>
    <g id="ytick_12">
     <g id="line2d_31">
      <path d="M 54.3375 246.216813 
L 391.23 246.216813 
" clip-path="url(#p3c870294db)" style="fill: none; stroke: #cccccc; stroke-width: 0.8; stroke-linecap: round"/>
     </g>
     <g id="text_32">
      <!-- 1100 -->
      <g style="fill: #262626" transform="translate(23.6415 249.560125)scale(0.088 -0.088)">
       <use xlink:href="#DejaVuSans-31"/>
       <use xlink:href="#DejaVuSans-31" x="63.623047"/>
       <use xlink:href="#DejaVuSans-30" x="127.246094"/>
       <use xlink:href="#DejaVuSans-30" x="190.869141"/>
      </g>
     </g>
    </g>
    <g id="ytick_13">
     <g id="line2d_32">
      <path d="M 54.3375 223.82925 
L 391.23 223.82925 
" clip-path="url(#p3c870294db)" style="fill: none; stroke: #cccccc; stroke-width: 0.8; stroke-linecap: round"/>
     </g>
     <g id="text_33">
      <!-- 1200 -->
      <g style="fill: #262626" transform="translate(23.6415 227.172563)scale(0.088 -0.088)">
       <use xlink:href="#DejaVuSans-31"/>
       <use xlink:href="#DejaVuSans-32" x="63.623047"/>
       <use xlink:href="#DejaVuSans-30" x="127.246094"/>
       <use xlink:href="#DejaVuSans-30" x="190.869141"/>
      </g>
     </g>
    </g>
    <g id="ytick_14">
     <g id="line2d_33">
      <path d="M 54.3375 201.441688 
L 391.23 201.441688 
" clip-path="url(#p3c870294db)" style="fill: none; stroke: #cccccc; stroke-width: 0.8; stroke-linecap: round"/>
     </g>
     <g id="text_34">
      <!-- 1300 -->
      <g style="fill: #262626" transform="translate(23.6415 204.785)scale(0.088 -0.088)">
       <use xlink:href="#DejaVuSans-31"/>
       <use xlink:href="#DejaVuSans-33" x="63.623047"/>
       <use xlink:href="#DejaVuSans-30" x="127.246094"/>
       <use xlink:href="#DejaVuSans-30" x="190.869141"/>
      </g>
     </g>
    </g>
    <g id="ytick_15">
     <g id="line2d_34">
      <path d="M 54.3375 179.054125 
L 391.23 179.054125 
" clip-path="url(#p3c870294db)" style="fill: none; stroke: #cccccc; stroke-width: 0.8; stroke-linecap: round"/>
     </g>
     <g id="text_35">
      <!-- 1400 -->
      <g style="fill: #262626" transform="translate(23.6415 182.397438)scale(0.088 -0.088)">
       <use xlink:href="#DejaVuSans-31"/>
       <use xlink:href="#DejaVuSans-34" x="63.623047"/>
       <use xlink:href="#DejaVuSans-30" x="127.246094"/>
       <use xlink:href="#DejaVuSans-30" x="190.869141"/>
      </g>
     </g>
    </g>
    <g id="ytick_16">
     <g id="line2d_35">
      <path d="M 54.3375 156.666563 
L 391.23 156.666563 
" clip-path="url(#p3c870294db)" style="fill: none; stroke: #cccccc; stroke-width: 0.8; stroke-linecap: round"/>
     </g>
     <g id="text_36">
      <!-- 1500 -->
      <g style="fill: #262626" transform="translate(23.6415 160.009876)scale(0.088 -0.088)">
       <use xlink:href="#DejaVuSans-31"/>
       <use xlink:href="#DejaVuSans-35" x="63.623047"/>
       <use xlink:href="#DejaVuSans-30" x="127.246094"/>
       <use xlink:href="#DejaVuSans-30" x="190.869141"/>
      </g>
     </g>
    </g>
    <g id="ytick_17">
     <g id="line2d_36">
      <path d="M 54.3375 134.279001 
L 391.23 134.279001 
" clip-path="url(#p3c870294db)" style="fill: none; stroke: #cccccc; stroke-width: 0.8; stroke-linecap: round"/>
     </g>
     <g id="text_37">
      <!-- 1600 -->
      <g style="fill: #262626" transform="translate(23.6415 137.622313)scale(0.088 -0.088)">
       <use xlink:href="#DejaVuSans-31"/>
       <use xlink:href="#DejaVuSans-36" x="63.623047"/>
       <use xlink:href="#DejaVuSans-30" x="127.246094"/>
       <use xlink:href="#DejaVuSans-30" x="190.869141"/>
      </g>
     </g>
    </g>
    <g id="ytick_18">
     <g id="line2d_37">
      <path d="M 54.3375 111.891438 
L 391.23 111.891438 
" clip-path="url(#p3c870294db)" style="fill: none; stroke: #cccccc; stroke-width: 0.8; stroke-linecap: round"/>
     </g>
     <g id="text_38">
      <!-- 1700 -->
      <g style="fill: #262626" transform="translate(23.6415 115.234751)scale(0.088 -0.088)">
       <use xlink:href="#DejaVuSans-31"/>
       <use xlink:href="#DejaVuSans-37" x="63.623047"/>
       <use xlink:href="#DejaVuSans-30" x="127.246094"/>
       <use xlink:href="#DejaVuSans-30" x="190.869141"/>
      </g>
     </g>
    </g>
    <g id="ytick_19">
     <g id="line2d_38">
      <path d="M 54.3375 89.503876 
L 391.23 89.503876 
" clip-path="url(#p3c870294db)" style="fill: none; stroke: #cccccc; stroke-width: 0.8; stroke-linecap: round"/>
     </g>
     <g id="text_39">
      <!-- 1800 -->
      <g style="fill: #262626" transform="translate(23.6415 92.847188)scale(0.088 -0.088)">
       <use xlink:href="#DejaVuSans-31"/>
       <use xlink:href="#DejaVuSans-38" x="63.623047"/>
       <use xlink:href="#DejaVuSans-30" x="127.246094"/>
       <use xlink:href="#DejaVuSans-30" x="190.869141"/>
      </g>
     </g>
    </g>
    <g id="text_40">
     <!-- Edge Coverages -->
     <g style="fill: #262626" transform="translate(17.645 329.98575)rotate(-90)scale(0.096 -0.096)">
      <defs>
       <path id="DejaVuSans-45" d="M 628 4666 
L 3578 4666 
L 3578 4134 
L 1259 4134 
L 1259 2753 
L 3481 2753 
L 3481 2222 
L 1259 2222 
L 1259 531 
L 3634 531 
L 3634 0 
L 628 0 
L 628 4666 
z
" transform="scale(0.015625)"/>
       <path id="DejaVuSans-64" d="M 2906 2969 
L 2906 4863 
L 3481 4863 
L 3481 0 
L 2906 0 
L 2906 525 
Q 2725 213 2448 61 
Q 2172 -91 1784 -91 
Q 1150 -91 751 415 
Q 353 922 353 1747 
Q 353 2572 751 3078 
Q 1150 3584 1784 3584 
Q 2172 3584 2448 3432 
Q 2725 3281 2906 2969 
z
M 947 1747 
Q 947 1113 1208 752 
Q 1469 391 1925 391 
Q 2381 391 2643 752 
Q 2906 1113 2906 1747 
Q 2906 2381 2643 2742 
Q 2381 3103 1925 3103 
Q 1469 3103 1208 2742 
Q 947 2381 947 1747 
z
" transform="scale(0.015625)"/>
       <path id="DejaVuSans-67" d="M 2906 1791 
Q 2906 2416 2648 2759 
Q 2391 3103 1925 3103 
Q 1463 3103 1205 2759 
Q 947 2416 947 1791 
Q 947 1169 1205 825 
Q 1463 481 1925 481 
Q 2391 481 2648 825 
Q 2906 1169 2906 1791 
z
M 3481 434 
Q 3481 -459 3084 -895 
Q 2688 -1331 1869 -1331 
Q 1566 -1331 1297 -1286 
Q 1028 -1241 775 -1147 
L 775 -588 
Q 1028 -725 1275 -790 
Q 1522 -856 1778 -856 
Q 2344 -856 2625 -561 
Q 2906 -266 2906 331 
L 2906 616 
Q 2728 306 2450 153 
Q 2172 0 1784 0 
Q 1141 0 747 490 
Q 353 981 353 1791 
Q 353 2603 747 3093 
Q 1141 3584 1784 3584 
Q 2172 3584 2450 3431 
Q 2728 3278 2906 2969 
L 2906 3500 
L 3481 3500 
L 3481 434 
z
" transform="scale(0.015625)"/>
       <path id="DejaVuSans-43" d="M 4122 4306 
L 4122 3641 
Q 3803 3938 3442 4084 
Q 3081 4231 2675 4231 
Q 1875 4231 1450 3742 
Q 1025 3253 1025 2328 
Q 1025 1406 1450 917 
Q 1875 428 2675 428 
Q 3081 428 3442 575 
Q 3803 722 4122 1019 
L 4122 359 
Q 3791 134 3420 21 
Q 3050 -91 2638 -91 
Q 1578 -91 968 557 
Q 359 1206 359 2328 
Q 359 3453 968 4101 
Q 1578 4750 2638 4750 
Q 3056 4750 3426 4639 
Q 3797 4528 4122 4306 
z
" transform="scale(0.015625)"/>
       <path id="DejaVuSans-6f" d="M 1959 3097 
Q 1497 3097 1228 2736 
Q 959 2375 959 1747 
Q 959 1119 1226 758 
Q 1494 397 1959 397 
Q 2419 397 2687 759 
Q 2956 1122 2956 1747 
Q 2956 2369 2687 2733 
Q 2419 3097 1959 3097 
z
M 1959 3584 
Q 2709 3584 3137 3096 
Q 3566 2609 3566 1747 
Q 3566 888 3137 398 
Q 2709 -91 1959 -91 
Q 1206 -91 779 398 
Q 353 888 353 1747 
Q 353 2609 779 3096 
Q 1206 3584 1959 3584 
z
" transform="scale(0.015625)"/>
       <path id="DejaVuSans-76" d="M 191 3500 
L 800 3500 
L 1894 563 
L 2988 3500 
L 3597 3500 
L 2284 0 
L 1503 0 
L 191 3500 
z
" transform="scale(0.015625)"/>
       <path id="DejaVuSans-72" d="M 2631 2963 
Q 2534 3019 2420 3045 
Q 2306 3072 2169 3072 
Q 1681 3072 1420 2755 
Q 1159 2438 1159 1844 
L 1159 0 
L 581 0 
L 581 3500 
L 1159 3500 
L 1159 2956 
Q 1341 3275 1631 3429 
Q 1922 3584 2338 3584 
Q 2397 3584 2469 3576 
Q 2541 3569 2628 3553 
L 2631 2963 
z
" transform="scale(0.015625)"/>
       <path id="DejaVuSans-61" d="M 2194 1759 
Q 1497 1759 1228 1600 
Q 959 1441 959 1056 
Q 959 750 1161 570 
Q 1363 391 1709 391 
Q 2188 391 2477 730 
Q 2766 1069 2766 1631 
L 2766 1759 
L 2194 1759 
z
M 3341 1997 
L 3341 0 
L 2766 0 
L 2766 531 
Q 2569 213 2275 61 
Q 1981 -91 1556 -91 
Q 1019 -91 701 211 
Q 384 513 384 1019 
Q 384 1609 779 1909 
Q 1175 2209 1959 2209 
L 2766 2209 
L 2766 2266 
Q 2766 2663 2505 2880 
Q 2244 3097 1772 3097 
Q 1472 3097 1187 3025 
Q 903 2953 641 2809 
L 641 3341 
Q 956 3463 1253 3523 
Q 1550 3584 1831 3584 
Q 2591 3584 2966 3190 
Q 3341 2797 3341 1997 
z
" transform="scale(0.015625)"/>
      </defs>
      <use xlink:href="#DejaVuSans-45"/>
      <use xlink:href="#DejaVuSans-64" x="63.183594"/>
      <use xlink:href="#DejaVuSans-67" x="126.660156"/>
      <use xlink:href="#DejaVuSans-65" x="190.136719"/>
      <use xlink:href="#DejaVuSans-20" x="251.660156"/>
      <use xlink:href="#DejaVuSans-43" x="283.447266"/>
      <use xlink:href="#DejaVuSans-6f" x="353.271484"/>
      <use xlink:href="#DejaVuSans-76" x="414.453125"/>
      <use xlink:href="#DejaVuSans-65" x="473.632812"/>
      <use xlink:href="#DejaVuSans-72" x="535.15625"/>
      <use xlink:href="#DejaVuSans-61" x="576.269531"/>
      <use xlink:href="#DejaVuSans-67" x="637.548828"/>
      <use xlink:href="#DejaVuSans-65" x="701.025391"/>
      <use xlink:href="#DejaVuSans-73" x="762.548828"/>
     </g>
    </g>
   </g>
   <g id="PolyCollection_1">
    <defs>
     <path id="mffa78ae4ca" d="M 69.650795 -124.265364 
L 69.650795 -83.52 
L 69.650795 -124.265364 
L 69.650795 -124.265364 
z
" style="stroke: #db5f57; stroke-opacity: 0.2; stroke-width: 0.8"/>
    </defs>
    <g clip-path="url(#p3c870294db)">
     <use xlink:href="#mffa78ae4ca" x="0" y="576" style="fill: #db5f57; fill-opacity: 0.2; stroke: #db5f57; stroke-opacity: 0.2; stroke-width: 0.8"/>
    </g>
   </g>
   <g id="PolyCollection_2">
    <defs>
     <path id="m876bb618c4" d="M 69.650795 -124.265364 
L 69.650795 -83.52 
L 69.650795 -124.265364 
L 69.650795 -124.265364 
z
" style="stroke: #b9db57; stroke-opacity: 0.2; stroke-width: 0.8"/>
    </defs>
    <g clip-path="url(#p3c870294db)">
     <use xlink:href="#m876bb618c4" x="0" y="576" style="fill: #b9db57; fill-opacity: 0.2; stroke: #b9db57; stroke-opacity: 0.2; stroke-width: 0.8"/>
    </g>
   </g>
   <g id="PolyCollection_3">
    <defs>
     <path id="m6a3db3e062" d="M 69.650795 -108.817946 
L 69.650795 -83.52 
L 69.650795 -108.817946 
L 69.650795 -108.817946 
z
" style="stroke: #57db94; stroke-opacity: 0.2; stroke-width: 0.8"/>
    </defs>
    <g clip-path="url(#p3c870294db)">
     <use xlink:href="#m6a3db3e062" x="0" y="576" style="fill: #57db94; fill-opacity: 0.2; stroke: #57db94; stroke-opacity: 0.2; stroke-width: 0.8"/>
    </g>
   </g>
   <g id="PolyCollection_4">
    <defs>
     <path id="medcfb64d6c" d="M 69.650795 -121.578856 
L 69.650795 -83.52 
L 69.650795 -121.578856 
L 69.650795 -121.578856 
z
" style="stroke: #5784db; stroke-opacity: 0.2; stroke-width: 0.8"/>
    </defs>
    <g clip-path="url(#p3c870294db)">
     <use xlink:href="#medcfb64d6c" x="0" y="576" style="fill: #5784db; fill-opacity: 0.2; stroke: #5784db; stroke-opacity: 0.2; stroke-width: 0.8"/>
    </g>
   </g>
   <g id="PolyCollection_5">
    <defs>
     <path id="ma5ee679e75" d="M 69.650795 -133.444264 
L 69.650795 -83.52 
L 69.650795 -133.444264 
L 69.650795 -133.444264 
z
" style="stroke: #c957db; stroke-opacity: 0.2; stroke-width: 0.8"/>
    </defs>
    <g clip-path="url(#p3c870294db)">
     <use xlink:href="#ma5ee679e75" x="0" y="576" style="fill: #c957db; fill-opacity: 0.2; stroke: #c957db; stroke-opacity: 0.2; stroke-width: 0.8"/>
    </g>
   </g>
   <g id="line2d_39">
    <path d="M 69.650795 472.107318 
L 70.07646 407.407263 
L 70.289293 404.720755 
L 70.714958 388.377835 
L 71.140623 318.976391 
L 71.566288 317.633137 
L 71.991953 316.737635 
L 72.204785 315.842132 
L 72.417617 315.842132 
L 72.843282 314.94663 
L 73.056115 303.528973 
L 73.268947 267.484997 
L 73.48178 267.261122 
L 73.694612 258.977723 
L 73.907445 258.529972 
L 74.120277 257.410594 
L 74.33311 256.962843 
L 74.545942 256.962843 
L 74.971607 256.06734 
L 75.184439 241.963176 
L 75.610104 241.067674 
L 75.822937 236.590161 
L 76.035769 236.590161 
L 76.248602 236.14241 
L 76.461434 230.99327 
L 76.674267 230.99327 
L 76.887099 228.082887 
L 77.099932 227.859012 
L 77.312764 227.859012 
L 77.525596 222.262121 
L 78.164094 222.262121 
L 78.376926 220.24724 
L 78.589759 219.351738 
L 78.802591 219.351738 
L 79.228256 216.889106 
L 79.441089 216.66523 
L 79.653921 216.66523 
L 80.505251 211.06834 
L 80.930916 209.50121 
L 81.143748 207.710205 
L 81.569413 207.710205 
L 81.782246 204.799822 
L 81.995078 204.128195 
L 82.207911 203.90432 
L 82.633575 203.90432 
L 82.846408 202.784942 
L 83.272073 202.33719 
L 83.484905 202.33719 
L 83.697738 201.665564 
L 83.91057 201.665564 
L 84.549068 200.993937 
L 84.7619 200.546185 
L 85.400397 200.546185 
L 85.826062 199.874559 
L 86.038895 199.874559 
L 86.251727 198.531305 
L 86.46456 198.531305 
L 87.103057 196.292549 
L 87.31589 196.292549 
L 87.528722 195.844797 
L 87.741555 195.844797 
L 87.954387 194.053792 
L 88.167219 193.829917 
L 88.380052 193.382165 
L 89.444214 193.382165 
L 90.082712 192.262787 
L 90.295544 192.038912 
L 90.508376 192.038912 
L 90.721209 190.024031 
L 91.785371 185.99427 
L 92.211036 185.99427 
L 92.423869 185.322643 
L 92.636701 185.322643 
L 93.062366 184.874892 
L 93.275198 184.874892 
L 93.700863 183.755514 
L 94.126528 183.083887 
L 94.339361 183.083887 
L 94.552193 182.860011 
L 94.765026 182.41226 
L 95.190691 182.41226 
L 95.616356 181.069006 
L 96.04202 181.069006 
L 96.467685 180.621255 
L 96.680518 179.501877 
L 96.89335 179.278001 
L 97.531848 179.278001 
L 97.74468 178.83025 
L 98.59601 178.83025 
L 98.808842 178.606374 
L 99.021675 178.158623 
L 99.44734 178.158623 
L 99.660172 177.486996 
L 100.085837 177.039245 
L 100.29867 177.039245 
L 101.149999 175.472115 
L 101.362832 174.128862 
L 101.575664 174.128862 
L 101.788497 173.009484 
L 102.214162 173.009484 
L 102.426994 172.785608 
L 102.852659 171.442354 
L 103.065492 171.218479 
L 103.916821 171.218479 
L 104.129654 170.994603 
L 104.768151 170.994603 
L 105.193816 170.546852 
L 105.619481 170.546852 
L 105.832314 170.322976 
L 106.045146 170.322976 
L 106.257978 169.875225 
L 106.683643 169.875225 
L 106.896476 169.651349 
L 107.109308 169.651349 
L 107.747806 168.979722 
L 107.960638 168.979722 
L 108.173471 168.755847 
L 108.599136 168.755847 
L 109.0248 168.08422 
L 109.450465 168.08422 
L 109.663298 167.860344 
L 110.72746 167.860344 
L 110.940293 167.636469 
L 113.28145 167.636469 
L 113.494282 167.188717 
L 115.622607 167.188717 
L 115.835439 166.964842 
L 116.899601 166.964842 
L 117.112434 166.740966 
L 117.325266 166.740966 
L 117.538099 166.517091 
L 122.00758 166.517091 
L 122.220413 166.293215 
L 123.284575 166.293215 
L 123.497408 165.621588 
L 125.4129 165.621588 
L 125.625732 165.173837 
L 125.838565 165.173837 
L 126.051397 164.949961 
L 129.031052 164.949961 
L 129.243884 164.50221 
L 129.456717 164.50221 
L 129.669549 164.278334 
L 130.733711 164.278334 
L 130.946544 164.054459 
L 131.585041 164.054459 
L 131.797874 163.830583 
L 132.436371 163.830583 
L 132.649203 163.606707 
L 133.074868 163.606707 
L 133.287701 163.382832 
L 134.351863 163.382832 
L 134.564696 162.711205 
L 136.267355 162.711205 
L 136.480188 162.487329 
L 137.54435 162.487329 
L 137.757182 162.263454 
L 137.970015 162.263454 
L 138.182847 162.039578 
L 138.821345 162.039578 
L 139.034177 161.815702 
L 139.459842 161.815702 
L 139.672675 161.591827 
L 141.800999 161.591827 
L 142.013832 161.367951 
L 143.290826 161.367951 
L 143.503659 161.144076 
L 143.716491 161.144076 
L 144.142156 160.696324 
L 144.567821 160.696324 
L 144.780654 160.472449 
L 145.631983 160.472449 
L 145.844816 160.024697 
L 146.696146 160.024697 
L 146.908978 159.800822 
L 148.185973 159.800822 
L 148.398805 159.353071 
L 150.52713 159.353071 
L 150.739962 159.129195 
L 150.952795 159.129195 
L 151.165627 158.905319 
L 151.591292 158.905319 
L 151.804125 158.457568 
L 154.145282 158.457568 
L 154.358114 158.009817 
L 154.570947 158.009817 
L 154.783779 157.785941 
L 155.847942 157.785941 
L 156.060774 157.33819 
L 156.486439 157.33819 
L 156.699271 156.442687 
L 157.124936 156.442687 
L 157.337769 156.218812 
L 158.614763 156.218812 
L 158.827596 155.994936 
L 175.002863 155.994936 
L 175.215695 155.547185 
L 176.067025 155.547185 
L 176.279858 155.099434 
L 179.259512 155.099434 
L 179.472345 154.875558 
L 181.175004 154.875558 
L 181.387837 154.427807 
L 183.728994 154.427807 
L 183.941826 154.203931 
L 184.793156 154.203931 
L 185.005988 153.980056 
L 190.965297 153.980056 
L 191.17813 153.75618 
L 193.306454 153.75618 
L 193.519287 153.532304 
L 200.968423 153.532304 
L 201.181255 153.308429 
L 204.586575 153.308429 
L 204.799407 153.084553 
L 205.650737 153.084553 
L 205.863569 152.860677 
L 211.184381 152.860677 
L 211.397213 152.636802 
L 213.951203 152.636802 
L 214.164035 152.412926 
L 214.376868 152.412926 
L 214.5897 152.189051 
L 215.44103 152.189051 
L 215.653863 151.741299 
L 217.356522 151.741299 
L 217.569355 151.517424 
L 219.484847 151.517424 
L 219.697679 151.293548 
L 223.528664 151.293548 
L 223.741496 151.069672 
L 225.231323 151.069672 
L 225.444156 150.845797 
L 227.57248 150.845797 
L 227.785313 150.621921 
L 228.636643 150.621921 
L 228.849475 150.17417 
L 229.700805 150.17417 
L 229.913637 149.502543 
L 235.872946 149.502543 
L 236.085779 148.830916 
L 236.724276 148.830916 
L 236.937109 148.607041 
L 237.788438 148.607041 
L 238.001271 147.935414 
L 238.426936 147.935414 
L 238.639768 147.487662 
L 239.065433 147.487662 
L 239.278266 147.263787 
L 241.619423 147.263787 
L 241.832255 147.039911 
L 247.791564 147.039911 
L 248.004396 146.816036 
L 249.707056 146.816036 
L 249.919889 146.59216 
L 260.135847 146.59216 
L 260.348679 146.368284 
L 261.412841 146.368284 
L 261.625674 146.144409 
L 265.669491 146.144409 
L 266.095155 145.696657 
L 274.395621 145.696657 
L 274.608454 145.025031 
L 282.90892 145.025031 
L 283.121752 144.577279 
L 284.185915 144.577279 
L 284.398747 144.353404 
L 298.445689 144.353404 
L 298.658522 144.129528 
L 309.938642 144.129528 
L 310.151475 143.905652 
L 311.641302 143.905652 
L 311.854134 143.681777 
L 312.918297 143.681777 
L 313.131129 143.234026 
L 313.343961 143.234026 
L 313.769626 142.786274 
L 323.134255 142.786274 
L 323.347087 142.562399 
L 329.093563 142.562399 
L 329.306396 142.338523 
L 329.944893 142.338523 
L 330.157726 142.114647 
L 336.117035 142.114647 
L 336.329867 141.890772 
L 339.309522 141.890772 
L 339.522354 141.666896 
L 339.735186 141.666896 
L 339.948019 141.443021 
L 346.97149 141.443021 
L 347.184323 141.219145 
L 349.312647 141.219145 
L 349.52548 140.995269 
L 351.228139 140.995269 
L 351.440972 140.771394 
L 353.356464 140.771394 
L 353.569296 140.547518 
L 372.93705 140.547518 
L 373.149883 140.323642 
L 375.916705 140.323642 
L 375.916705 140.323642 
" clip-path="url(#p3c870294db)" style="fill: none; stroke: #db5f57; stroke-width: 1.2; stroke-linecap: round"/>
   </g>
   <g id="line2d_40">
    <path d="M 69.650795 472.107318 
L 70.07646 402.705875 
L 70.289293 365.09477 
L 70.502125 350.095103 
L 70.714958 323.677779 
L 71.566288 291.88744 
L 72.417617 273.529639 
L 72.63045 264.126863 
L 72.843282 261.664231 
L 73.48178 242.858679 
L 73.907445 238.15729 
L 74.33311 234.127529 
L 74.758774 230.321644 
L 74.971607 227.41126 
L 75.184439 226.515758 
L 75.397272 224.500877 
L 75.610104 223.82925 
L 75.822937 220.694992 
L 76.461434 216.889106 
L 76.887099 214.426474 
L 77.312764 209.948962 
L 77.951261 206.590827 
L 78.164094 206.366952 
L 78.589759 205.023698 
L 78.802591 205.023698 
L 79.015424 204.575947 
L 79.228256 202.784942 
L 79.441089 202.561066 
L 79.653921 201.889439 
L 79.866754 201.665564 
L 80.079586 199.426807 
L 80.718083 196.964175 
L 80.930916 196.7403 
L 81.356581 194.725419 
L 81.995078 191.815036 
L 82.207911 191.59116 
L 82.633575 190.919534 
L 83.484905 190.919534 
L 83.697738 190.695658 
L 84.549068 190.695658 
L 84.7619 190.471782 
L 86.46456 190.471782 
L 86.677392 187.337524 
L 87.103057 185.098767 
L 87.31589 184.874892 
L 87.528722 184.203265 
L 87.741555 184.203265 
L 88.167219 183.083887 
L 88.592884 182.636135 
L 89.444214 182.636135 
L 89.869879 181.069006 
L 90.082712 180.621255 
L 90.295544 180.621255 
L 90.934041 176.367618 
L 91.359706 175.919867 
L 91.785371 173.904986 
L 92.211036 173.457235 
L 93.062366 173.457235 
L 93.275198 173.233359 
L 94.339361 171.218479 
L 94.552193 170.994603 
L 94.765026 170.994603 
L 94.977858 170.322976 
L 95.403523 170.322976 
L 95.616356 169.427474 
L 97.74468 169.427474 
L 97.957513 166.964842 
L 101.149999 166.964842 
L 101.362832 166.740966 
L 104.555319 166.740966 
L 104.768151 166.517091 
L 107.322141 166.517091 
L 107.534973 159.576946 
L 115.409774 159.576946 
L 115.622607 158.457568 
L 115.835439 158.009817 
L 116.686769 158.009817 
L 116.899601 157.562066 
L 122.646078 157.562066 
L 122.85891 157.33819 
L 123.071743 157.33819 
L 123.284575 156.890439 
L 136.69302 156.890439 
L 136.905853 153.75618 
L 138.608512 153.75618 
L 138.821345 153.308429 
L 140.736837 153.308429 
L 140.949669 153.084553 
L 142.439497 153.084553 
L 142.652329 152.860677 
L 143.077994 152.860677 
L 143.290826 152.636802 
L 144.354989 152.636802 
L 144.567821 152.189051 
L 146.908978 152.189051 
L 147.121811 151.293548 
L 147.760308 151.293548 
L 147.973141 151.069672 
L 148.398805 151.069672 
L 148.611638 150.845797 
L 150.314298 150.845797 
L 150.52713 150.621921 
L 151.37846 150.621921 
L 151.591292 150.398046 
L 151.804125 149.950294 
L 153.293952 149.950294 
L 153.506784 149.726419 
L 153.719617 149.726419 
L 153.932449 149.502543 
L 155.847942 149.502543 
L 156.060774 149.278667 
L 156.486439 149.278667 
L 156.699271 148.383165 
L 157.337769 148.383165 
L 157.550601 148.159289 
L 224.592826 148.159289 
L 224.805658 143.905652 
L 225.231323 143.905652 
L 225.444156 143.681777 
L 233.318957 143.681777 
L 233.531789 142.786274 
L 234.808784 142.786274 
L 235.234449 142.338523 
L 236.937109 142.338523 
L 237.149941 142.114647 
L 237.362773 141.666896 
L 237.575606 141.666896 
L 237.788438 141.443021 
L 238.214103 141.443021 
L 238.426936 141.219145 
L 238.639768 140.771394 
L 241.40659 140.771394 
L 241.619423 140.547518 
L 246.301737 140.547518 
L 246.514569 140.323642 
L 247.578732 140.323642 
L 248.004396 139.875891 
L 249.707056 139.875891 
L 249.919889 139.652016 
L 254.38937 139.652016 
L 254.602203 139.42814 
L 259.923014 139.42814 
L 260.135847 139.204264 
L 265.669491 139.204264 
L 265.882323 138.980389 
L 272.905794 138.980389 
L 273.544292 138.308762 
L 282.270422 138.308762 
L 282.483255 138.084886 
L 282.696087 138.084886 
L 282.90892 137.861011 
L 296.955862 137.861011 
L 297.168695 137.637135 
L 298.445689 137.637135 
L 298.658522 137.413259 
L 308.448815 137.413259 
L 308.87448 136.965508 
L 309.72581 136.965508 
L 309.938642 136.741632 
L 312.705464 136.741632 
L 312.918297 136.517757 
L 313.131129 136.070006 
L 313.343961 136.070006 
L 313.769626 135.622254 
L 323.134255 135.622254 
L 323.347087 135.398379 
L 329.093563 135.398379 
L 329.306396 135.174503 
L 329.944893 135.174503 
L 330.157726 134.950627 
L 335.904202 134.950627 
L 336.117035 134.726752 
L 339.096689 134.726752 
L 339.309522 134.502876 
L 347.184323 134.502876 
L 347.397155 134.055125 
L 348.67415 134.055125 
L 348.886982 133.831249 
L 355.910453 133.831249 
L 356.123286 133.607374 
L 373.149883 133.607374 
L 373.362715 133.383498 
L 375.916705 133.383498 
L 375.916705 133.383498 
" clip-path="url(#p3c870294db)" style="fill: none; stroke: #b9db57; stroke-width: 1.2; stroke-linecap: round"/>
   </g>
   <g id="line2d_41">
    <path d="M 69.650795 479.831027 
L 70.07646 415.914536 
L 70.289293 411.884775 
L 70.502125 411.213148 
L 70.92779 408.750516 
L 71.140623 408.07889 
L 71.353455 389.049461 
L 71.77912 275.768395 
L 71.991953 274.425142 
L 72.204785 272.186385 
L 72.417617 271.738634 
L 72.63045 270.39538 
L 72.843282 258.529972 
L 73.056115 238.381166 
L 73.268947 236.814037 
L 73.48178 236.814037 
L 73.694612 236.590161 
L 74.120277 234.57528 
L 74.33311 234.127529 
L 74.545942 209.053459 
L 74.758774 208.157957 
L 74.971607 205.247574 
L 75.184439 205.023698 
L 75.822937 205.023698 
L 76.035769 204.799822 
L 76.461434 201.665564 
L 76.887099 201.217812 
L 77.099932 199.202932 
L 77.312764 184.874892 
L 77.525596 183.755514 
L 78.589759 183.755514 
L 78.802591 183.307762 
L 79.228256 183.307762 
L 79.441089 183.083887 
L 79.653921 173.009484 
L 79.866754 172.785608 
L 80.292418 169.875225 
L 80.718083 168.308096 
L 80.930916 168.308096 
L 81.143748 167.860344 
L 81.782246 167.860344 
L 81.995078 167.412593 
L 82.207911 162.263454 
L 82.420743 161.815702 
L 83.272073 161.815702 
L 83.484905 159.353071 
L 83.697738 158.681444 
L 84.7619 158.681444 
L 84.974733 156.890439 
L 85.400397 156.890439 
L 85.826062 156.442687 
L 86.038895 156.442687 
L 86.251727 156.218812 
L 86.46456 156.218812 
L 86.677392 155.099434 
L 87.741555 155.099434 
L 87.954387 151.741299 
L 88.380052 151.741299 
L 88.805717 151.293548 
L 89.231382 151.293548 
L 89.444214 151.069672 
L 89.869879 150.398046 
L 90.082712 150.398046 
L 90.508376 147.263787 
L 90.721209 146.368284 
L 90.934041 146.368284 
L 91.146874 146.144409 
L 91.359706 145.696657 
L 91.572539 145.696657 
L 91.785371 142.786274 
L 92.636701 142.786274 
L 92.849534 142.338523 
L 93.062366 141.219145 
L 93.275198 141.219145 
L 93.700863 140.771394 
L 93.913696 140.771394 
L 94.126528 140.547518 
L 94.339361 140.547518 
L 94.552193 139.875891 
L 94.977858 139.875891 
L 95.190691 139.652016 
L 95.616356 139.652016 
L 95.829188 139.204264 
L 96.254853 139.204264 
L 96.467685 138.980389 
L 96.680518 138.084886 
L 97.106183 138.084886 
L 97.531848 137.413259 
L 97.957513 137.413259 
L 98.170345 137.189384 
L 98.808842 137.189384 
L 99.021675 136.965508 
L 100.085837 136.965508 
L 100.29867 136.741632 
L 100.511502 136.741632 
L 100.724335 136.517757 
L 100.937167 136.517757 
L 101.149999 135.622254 
L 102.001329 135.622254 
L 102.214162 132.935747 
L 103.278324 132.935747 
L 103.491157 131.816369 
L 104.342486 131.816369 
L 104.555319 131.368617 
L 105.406649 131.368617 
L 105.619481 131.144742 
L 107.747806 131.144742 
L 107.960638 129.801488 
L 108.173471 129.801488 
L 108.386303 129.577612 
L 108.599136 129.129861 
L 108.811968 129.129861 
L 109.0248 128.905986 
L 109.237633 128.905986 
L 109.450465 128.68211 
L 111.57879 128.68211 
L 112.004455 128.234359 
L 112.217287 128.234359 
L 112.43012 128.010483 
L 114.132779 128.010483 
L 114.345612 127.338856 
L 115.196942 127.338856 
L 115.409774 127.114981 
L 117.325266 127.114981 
L 117.538099 126.891105 
L 122.433245 126.891105 
L 122.646078 126.667229 
L 122.85891 126.667229 
L 123.071743 126.443354 
L 123.497408 126.443354 
L 123.71024 126.219478 
L 125.200067 126.219478 
L 125.4129 125.995602 
L 125.838565 125.995602 
L 126.051397 125.547851 
L 126.26423 125.547851 
L 126.477062 125.323976 
L 128.605387 125.323976 
L 128.818219 125.1001 
L 129.456717 125.1001 
L 129.669549 124.876224 
L 131.585041 124.876224 
L 131.797874 124.652349 
L 132.223539 124.652349 
L 132.436371 124.428473 
L 133.074868 124.428473 
L 133.287701 124.204597 
L 133.500533 124.204597 
L 133.713366 123.980722 
L 136.054523 123.980722 
L 136.267355 123.756846 
L 137.54435 123.756846 
L 137.757182 123.532971 
L 139.459842 123.532971 
L 139.672675 123.309095 
L 141.800999 123.309095 
L 142.013832 123.085219 
L 143.929324 123.085219 
L 144.142156 122.861344 
L 144.354989 122.861344 
L 144.780654 122.413592 
L 145.206319 122.413592 
L 145.419151 122.189717 
L 146.696146 122.189717 
L 146.908978 121.965841 
L 148.398805 121.965841 
L 148.611638 121.51809 
L 149.888633 121.51809 
L 150.101465 121.294214 
L 150.314298 121.294214 
L 150.739962 120.622587 
L 150.952795 120.622587 
L 151.37846 120.174836 
L 151.804125 120.174836 
L 152.016957 119.950961 
L 152.442622 119.950961 
L 152.655455 119.727085 
L 153.719617 119.727085 
L 153.932449 119.503209 
L 156.486439 119.503209 
L 156.699271 119.055458 
L 157.124936 119.055458 
L 157.337769 118.607707 
L 158.614763 118.607707 
L 158.827596 118.159956 
L 164.999737 118.159956 
L 165.21257 117.712204 
L 175.215695 117.712204 
L 175.428528 117.488329 
L 175.64136 117.488329 
L 175.854193 117.264453 
L 176.279858 117.264453 
L 176.49269 116.816702 
L 177.131187 116.816702 
L 177.34402 116.592826 
L 179.04668 116.592826 
L 179.259512 116.368951 
L 179.472345 116.368951 
L 179.685177 116.145075 
L 180.536507 116.145075 
L 180.749339 115.921199 
L 183.941826 115.921199 
L 184.154659 115.697324 
L 185.005988 115.697324 
L 185.218821 115.473448 
L 190.965297 115.473448 
L 191.17813 114.801821 
L 193.306454 114.801821 
L 193.519287 114.577946 
L 206.502067 114.577946 
L 206.714899 114.35407 
L 209.694554 114.35407 
L 209.907386 114.130194 
L 214.164035 114.130194 
L 214.376868 113.682443 
L 216.718025 113.682443 
L 216.930857 113.458567 
L 217.356522 113.458567 
L 217.569355 113.234692 
L 219.059182 113.234692 
L 219.272014 113.010816 
L 219.484847 113.010816 
L 219.697679 112.786941 
L 224.379993 112.786941 
L 224.592826 112.563065 
L 227.146815 112.563065 
L 227.359648 112.339189 
L 228.849475 112.339189 
L 229.062308 110.995936 
L 229.913637 110.995936 
L 230.12647 110.324309 
L 235.447281 110.324309 
L 235.660114 109.876557 
L 237.149941 109.876557 
L 237.362773 109.652682 
L 238.426936 109.652682 
L 238.639768 108.981055 
L 238.852601 108.757179 
L 240.129595 108.757179 
L 240.342428 108.533304 
L 242.896417 108.533304 
L 243.10925 108.309428 
L 248.430061 108.309428 
L 248.642894 108.085552 
L 249.707056 108.085552 
L 249.919889 107.637801 
L 258.433187 107.637801 
L 258.646019 107.413926 
L 259.497349 107.413926 
L 259.710182 107.19005 
L 261.412841 107.19005 
L 261.625674 106.966174 
L 266.307988 106.966174 
L 266.52082 106.742299 
L 269.713307 106.742299 
L 269.92614 106.518423 
L 270.990302 106.518423 
L 271.203135 106.294547 
L 273.118627 106.294547 
L 273.331459 105.846796 
L 273.969956 105.846796 
L 274.182789 105.622921 
L 279.929265 105.622921 
L 280.142098 105.399045 
L 282.483255 105.399045 
L 282.696087 105.175169 
L 285.250077 105.175169 
L 285.462909 104.951294 
L 290.996553 104.951294 
L 291.209386 104.727418 
L 294.401873 104.727418 
L 294.614705 104.503542 
L 305.894825 104.503542 
L 306.107658 104.279667 
L 309.300145 104.279667 
L 309.512977 104.055791 
L 310.151475 104.055791 
L 310.364307 103.831916 
L 313.131129 103.831916 
L 313.343961 103.160289 
L 316.536448 103.160289 
L 316.749281 102.936413 
L 324.624082 102.936413 
L 324.836914 102.712537 
L 329.519228 102.712537 
L 329.732061 102.488662 
L 329.944893 102.488662 
L 330.157726 102.264786 
L 331.009056 102.264786 
L 331.434721 101.817035 
L 333.563045 101.817035 
L 333.775878 101.369284 
L 336.329867 101.369284 
L 336.5427 101.145408 
L 339.948019 101.145408 
L 340.160851 100.921532 
L 351.653804 100.921532 
L 351.866637 100.697657 
L 362.933925 100.697657 
L 363.146757 100.473781 
L 373.362715 100.473781 
L 373.575547 100.249906 
L 375.916705 100.249906 
L 375.916705 100.249906 
" clip-path="url(#p3c870294db)" style="fill: none; stroke: #57db94; stroke-width: 1.2; stroke-linecap: round"/>
   </g>
   <g id="line2d_42">
    <path d="M 69.650795 473.450572 
L 70.07646 407.183387 
L 70.714958 320.319645 
L 71.353455 295.46945 
L 71.566288 289.200933 
L 71.77912 287.186052 
L 72.204785 276.216147 
L 72.417617 270.619256 
L 72.63045 269.499878 
L 73.056115 252.261455 
L 73.268947 249.798823 
L 73.48178 241.291549 
L 73.694612 240.619922 
L 74.120277 232.784275 
L 74.33311 229.873892 
L 74.545942 228.97839 
L 74.971607 222.709872 
L 75.184439 221.366619 
L 75.822937 214.426474 
L 76.461434 208.157957 
L 76.674267 205.9192 
L 76.887099 205.247574 
L 77.525596 199.426807 
L 77.951261 198.083554 
L 78.164094 197.635802 
L 79.228256 192.262787 
L 79.441089 191.815036 
L 79.866754 190.471782 
L 80.292418 187.113648 
L 80.505251 187.113648 
L 80.718083 185.99427 
L 80.930916 185.546519 
L 81.143748 183.755514 
L 81.995078 181.069006 
L 82.207911 181.069006 
L 82.420743 180.173504 
L 82.633575 180.173504 
L 82.846408 179.054125 
L 83.05924 179.054125 
L 83.272073 178.83025 
L 83.697738 176.815369 
L 83.91057 176.815369 
L 84.123403 176.591494 
L 84.549068 175.919867 
L 84.7619 174.800489 
L 85.187565 174.800489 
L 85.61323 174.352737 
L 85.826062 174.352737 
L 86.038895 174.128862 
L 86.251727 173.009484 
L 86.677392 172.561732 
L 86.890225 171.66623 
L 87.103057 171.442354 
L 88.167219 169.203598 
L 88.380052 169.203598 
L 88.592884 168.979722 
L 89.018549 168.979722 
L 89.444214 168.531971 
L 89.657047 167.188717 
L 89.869879 167.188717 
L 90.082712 166.517091 
L 90.295544 166.293215 
L 90.508376 165.397712 
L 90.721209 162.487329 
L 91.785371 158.457568 
L 92.211036 158.009817 
L 92.849534 158.009817 
L 93.275198 157.562066 
L 93.700863 156.890439 
L 93.913696 156.890439 
L 94.126528 156.666563 
L 94.339361 156.666563 
L 94.552193 156.218812 
L 95.403523 156.218812 
L 95.829188 155.547185 
L 96.04202 155.547185 
L 96.467685 155.099434 
L 96.680518 154.427807 
L 96.89335 154.427807 
L 97.319015 153.980056 
L 97.957513 153.980056 
L 98.383177 153.532304 
L 99.021675 153.532304 
L 99.234507 153.308429 
L 99.660172 153.308429 
L 99.873005 153.084553 
L 100.085837 153.084553 
L 100.29867 152.860677 
L 100.511502 152.860677 
L 100.724335 152.636802 
L 100.937167 151.965175 
L 101.362832 148.830916 
L 101.575664 147.935414 
L 102.214162 147.935414 
L 102.426994 147.711538 
L 103.065492 147.711538 
L 103.278324 147.487662 
L 103.703989 147.487662 
L 103.916821 147.263787 
L 106.896476 147.263787 
L 107.322141 146.816036 
L 108.173471 145.025031 
L 108.599136 145.025031 
L 109.0248 144.577279 
L 110.514628 144.577279 
L 110.72746 144.129528 
L 111.57879 144.129528 
L 112.004455 143.681777 
L 112.217287 143.681777 
L 112.43012 143.457901 
L 114.984109 143.457901 
L 115.196942 143.234026 
L 115.622607 143.234026 
L 115.835439 143.01015 
L 116.686769 143.01015 
L 116.899601 142.786274 
L 122.646078 142.786274 
L 123.071743 142.338523 
L 123.497408 141.666896 
L 124.987235 141.666896 
L 125.4129 141.219145 
L 125.625732 141.219145 
L 125.838565 140.995269 
L 128.179722 140.995269 
L 128.392554 140.771394 
L 129.456717 140.771394 
L 129.669549 140.547518 
L 132.010706 140.547518 
L 132.223539 140.099767 
L 132.436371 140.099767 
L 132.649203 139.875891 
L 133.074868 139.875891 
L 133.287701 139.652016 
L 133.500533 139.652016 
L 133.713366 139.42814 
L 134.564696 139.42814 
L 134.777528 139.204264 
L 134.99036 139.204264 
L 135.203193 138.980389 
L 135.84169 138.980389 
L 136.054523 138.756513 
L 138.608512 138.756513 
L 138.821345 138.532637 
L 139.24701 138.532637 
L 139.459842 138.308762 
L 141.800999 138.308762 
L 142.013832 138.084886 
L 143.290826 138.084886 
L 143.503659 137.861011 
L 143.716491 137.861011 
L 144.142156 137.413259 
L 144.567821 137.413259 
L 144.780654 136.965508 
L 145.206319 136.965508 
L 145.631983 136.517757 
L 145.844816 136.517757 
L 146.057648 136.293881 
L 147.760308 136.293881 
L 147.973141 136.070006 
L 149.888633 136.070006 
L 150.101465 135.84613 
L 150.314298 135.84613 
L 150.52713 135.622254 
L 150.952795 135.622254 
L 151.165627 135.398379 
L 151.804125 135.398379 
L 152.22979 134.950627 
L 153.719617 134.950627 
L 153.932449 134.502876 
L 155.847942 134.502876 
L 156.060774 134.279001 
L 156.486439 134.279001 
L 156.699271 133.607374 
L 156.912104 133.383498 
L 157.124936 133.383498 
L 157.337769 133.159622 
L 164.36124 133.159622 
L 164.574072 132.711871 
L 174.79003 132.711871 
L 175.002863 132.487996 
L 176.279858 132.487996 
L 176.49269 132.26412 
L 176.705523 131.816369 
L 182.664831 131.816369 
L 182.877664 131.592493 
L 184.154659 131.592493 
L 184.367491 131.368617 
L 190.3268 131.368617 
L 190.539632 131.144742 
L 190.965297 131.144742 
L 191.17813 130.920866 
L 206.289234 130.920866 
L 206.502067 130.696991 
L 213.951203 130.696991 
L 214.164035 130.249239 
L 215.44103 130.249239 
L 215.653863 130.025364 
L 217.356522 130.025364 
L 217.569355 129.801488 
L 218.84635 129.801488 
L 219.059182 129.577612 
L 223.528664 129.577612 
L 223.741496 129.353737 
L 225.231323 129.353737 
L 225.444156 129.129861 
L 226.933983 129.129861 
L 227.146815 128.905986 
L 227.785313 128.905986 
L 227.998145 128.68211 
L 228.42381 128.68211 
L 228.849475 127.338856 
L 229.062308 127.338856 
L 229.27514 126.667229 
L 235.021616 126.667229 
L 235.234449 126.219478 
L 235.447281 126.219478 
L 235.660114 125.995602 
L 236.085779 125.995602 
L 236.298611 125.771727 
L 237.149941 125.771727 
L 237.362773 125.323976 
L 237.788438 125.323976 
L 238.001271 125.1001 
L 238.214103 125.1001 
L 238.426936 124.876224 
L 238.639768 124.428473 
L 241.619423 124.428473 
L 241.832255 124.204597 
L 247.791564 124.204597 
L 248.004396 123.756846 
L 249.494224 123.756846 
L 249.707056 123.532971 
L 259.497349 123.532971 
L 259.710182 123.309095 
L 259.923014 123.309095 
L 260.135847 123.085219 
L 265.882323 123.085219 
L 266.095155 122.861344 
L 270.77747 122.861344 
L 270.990302 122.637468 
L 272.692962 122.637468 
L 273.118627 122.189717 
L 273.331459 122.189717 
L 273.544292 121.965841 
L 282.270422 121.965841 
L 282.483255 121.741966 
L 282.696087 121.741966 
L 282.90892 121.51809 
L 298.445689 121.51809 
L 298.658522 121.294214 
L 309.72581 121.294214 
L 309.938642 121.070339 
L 312.492632 121.070339 
L 312.918297 120.622587 
L 313.131129 120.622587 
L 313.343961 120.398712 
L 313.556794 120.398712 
L 313.769626 120.174836 
L 314.833789 120.174836 
L 315.046621 119.950961 
L 318.664773 119.950961 
L 318.877605 119.727085 
L 323.347087 119.727085 
L 323.55992 119.503209 
L 329.093563 119.503209 
L 329.306396 119.279334 
L 329.944893 119.279334 
L 330.157726 119.055458 
L 331.434721 119.055458 
L 331.647553 118.831582 
L 332.924548 118.831582 
L 333.13738 118.607707 
L 335.904202 118.607707 
L 336.117035 118.159956 
L 339.309522 118.159956 
L 339.522354 117.93608 
L 348.461317 117.93608 
L 348.67415 117.712204 
L 361.65693 117.712204 
L 361.869762 117.488329 
L 375.916705 117.488329 
L 375.916705 117.488329 
" clip-path="url(#p3c870294db)" style="fill: none; stroke: #5784db; stroke-width: 1.2; stroke-linecap: round"/>
   </g>
   <g id="line2d_43">
    <path d="M 69.650795 467.517868 
L 69.863628 440.764731 
L 70.289293 335.543187 
L 70.714958 302.63347 
L 70.92779 288.977057 
L 71.140623 285.842798 
L 71.77912 265.693992 
L 71.991953 261.664231 
L 73.48178 216.889106 
L 73.907445 211.963842 
L 74.33311 205.9192 
L 75.184439 196.516424 
L 77.525596 175.024364 
L 77.951261 173.457235 
L 78.164094 173.233359 
L 78.376926 171.66623 
L 78.802591 170.322976 
L 79.228256 167.636469 
L 79.441089 167.188717 
L 79.866754 165.621588 
L 80.292418 161.815702 
L 80.505251 161.367951 
L 80.718083 160.024697 
L 80.930916 159.576946 
L 81.143748 157.785941 
L 81.356581 157.114314 
L 81.782246 155.323309 
L 81.995078 154.651682 
L 82.207911 154.427807 
L 82.420743 153.75618 
L 82.633575 153.75618 
L 82.846408 152.636802 
L 83.05924 152.636802 
L 83.272073 152.412926 
L 83.697738 150.398046 
L 84.123403 150.398046 
L 84.549068 149.726419 
L 84.7619 148.607041 
L 85.187565 148.607041 
L 85.61323 148.159289 
L 85.826062 148.159289 
L 86.038895 147.935414 
L 86.251727 147.039911 
L 86.46456 147.039911 
L 86.677392 146.816036 
L 87.103057 145.025031 
L 87.528722 144.577279 
L 87.954387 143.01015 
L 88.380052 143.01015 
L 88.592884 142.786274 
L 89.018549 142.786274 
L 89.444214 142.338523 
L 89.657047 140.995269 
L 89.869879 140.771394 
L 90.082712 140.099767 
L 90.295544 139.875891 
L 90.721209 135.84613 
L 91.572539 132.711871 
L 91.785371 132.040244 
L 91.998204 132.040244 
L 92.211036 131.816369 
L 92.636701 131.816369 
L 92.849534 131.592493 
L 93.062366 131.592493 
L 93.275198 131.368617 
L 93.700863 130.696991 
L 93.913696 130.696991 
L 94.126528 130.249239 
L 94.339361 130.249239 
L 94.552193 130.025364 
L 95.403523 130.025364 
L 95.616356 129.577612 
L 96.04202 129.577612 
L 96.254853 129.353737 
L 96.89335 128.234359 
L 97.106183 128.234359 
L 97.319015 128.010483 
L 97.74468 128.010483 
L 97.957513 127.786607 
L 99.660172 127.786607 
L 99.873005 127.562732 
L 100.085837 127.562732 
L 100.29867 127.338856 
L 100.511502 127.338856 
L 100.724335 127.114981 
L 100.937167 126.443354 
L 101.362832 122.861344 
L 101.575664 122.413592 
L 102.214162 122.413592 
L 102.426994 121.965841 
L 102.852659 121.965841 
L 103.065492 121.741966 
L 103.703989 121.741966 
L 103.916821 121.51809 
L 104.768151 121.51809 
L 104.980984 121.294214 
L 106.896476 121.294214 
L 107.322141 120.846463 
L 108.173471 119.279334 
L 108.599136 119.279334 
L 109.0248 118.831582 
L 110.514628 118.831582 
L 110.72746 118.383831 
L 111.57879 118.383831 
L 112.004455 117.93608 
L 112.217287 117.93608 
L 112.43012 117.712204 
L 114.984109 117.712204 
L 115.196942 117.488329 
L 116.686769 117.488329 
L 116.899601 117.264453 
L 122.00758 117.264453 
L 122.220413 117.040577 
L 122.85891 117.040577 
L 123.071743 116.816702 
L 123.497408 116.145075 
L 125.200067 116.145075 
L 125.4129 115.921199 
L 125.625732 115.921199 
L 125.838565 115.697324 
L 128.179722 115.697324 
L 128.392554 115.473448 
L 129.456717 115.473448 
L 129.669549 115.249572 
L 130.733711 115.249572 
L 130.946544 115.025697 
L 131.585041 115.025697 
L 131.797874 114.801821 
L 132.010706 114.801821 
L 132.223539 114.577946 
L 132.436371 114.577946 
L 132.649203 114.35407 
L 133.074868 114.35407 
L 133.287701 114.130194 
L 133.500533 114.130194 
L 133.713366 113.906319 
L 134.351863 113.906319 
L 134.564696 113.682443 
L 134.99036 113.682443 
L 135.203193 113.458567 
L 135.84169 113.458567 
L 136.054523 113.234692 
L 136.69302 113.234692 
L 136.905853 113.010816 
L 138.608512 113.010816 
L 138.821345 112.786941 
L 139.24701 112.786941 
L 139.459842 112.563065 
L 141.800999 112.563065 
L 142.013832 112.339189 
L 143.077994 112.339189 
L 143.290826 112.115314 
L 143.716491 112.115314 
L 144.142156 111.667562 
L 144.567821 111.667562 
L 144.780654 111.443687 
L 145.206319 111.443687 
L 145.419151 111.219811 
L 145.844816 111.219811 
L 146.057648 110.995936 
L 147.760308 110.995936 
L 147.973141 110.77206 
L 148.185973 110.77206 
L 148.398805 110.548184 
L 149.888633 110.548184 
L 150.101465 110.324309 
L 150.314298 110.324309 
L 150.52713 109.876557 
L 150.952795 109.876557 
L 151.165627 109.428806 
L 151.37846 109.428806 
L 151.591292 109.204931 
L 152.016957 109.204931 
L 152.22979 108.981055 
L 153.293952 108.981055 
L 153.506784 108.757179 
L 153.719617 108.757179 
L 153.932449 108.533304 
L 155.847942 108.533304 
L 156.060774 108.309428 
L 156.486439 108.309428 
L 156.699271 107.413926 
L 157.124936 107.413926 
L 157.337769 107.19005 
L 158.614763 107.19005 
L 158.827596 106.966174 
L 164.36124 106.966174 
L 164.574072 106.742299 
L 174.79003 106.742299 
L 175.002863 106.518423 
L 175.64136 106.518423 
L 175.854193 106.294547 
L 176.067025 106.294547 
L 176.49269 105.622921 
L 177.131187 105.622921 
L 177.34402 105.399045 
L 181.175004 105.399045 
L 181.387837 105.175169 
L 182.664831 105.175169 
L 182.877664 104.951294 
L 184.154659 104.951294 
L 184.367491 104.727418 
L 190.3268 104.727418 
L 190.539632 104.503542 
L 190.965297 104.503542 
L 191.17813 104.279667 
L 206.289234 104.279667 
L 206.502067 104.055791 
L 213.951203 104.055791 
L 214.164035 103.60804 
L 215.44103 103.60804 
L 215.653863 103.384164 
L 217.356522 103.384164 
L 217.569355 102.936413 
L 219.059182 102.936413 
L 219.272014 102.712537 
L 223.528664 102.712537 
L 223.741496 102.488662 
L 225.231323 102.488662 
L 225.444156 102.264786 
L 226.933983 102.264786 
L 227.146815 102.040911 
L 227.57248 102.040911 
L 227.785313 101.817035 
L 228.42381 101.817035 
L 228.849475 100.473781 
L 229.062308 100.473781 
L 229.27514 99.802154 
L 234.808784 99.802154 
L 235.234449 99.354403 
L 235.447281 99.354403 
L 235.660114 99.130527 
L 236.085779 99.130527 
L 236.298611 98.906652 
L 236.937109 98.906652 
L 237.362773 98.458901 
L 237.575606 98.458901 
L 237.788438 98.235025 
L 238.214103 98.235025 
L 238.639768 97.563398 
L 241.40659 97.563398 
L 241.619423 97.339522 
L 247.578732 97.339522 
L 248.004396 96.891771 
L 249.494224 96.891771 
L 249.707056 96.667896 
L 259.497349 96.667896 
L 259.710182 96.44402 
L 259.923014 96.44402 
L 260.135847 96.220144 
L 265.669491 96.220144 
L 265.882323 95.996269 
L 270.77747 95.996269 
L 270.990302 95.772393 
L 272.692962 95.772393 
L 273.118627 95.324642 
L 273.331459 95.324642 
L 273.544292 95.100766 
L 279.929265 95.100766 
L 280.142098 94.876891 
L 282.270422 94.876891 
L 282.483255 94.653015 
L 282.696087 94.653015 
L 282.90892 94.429139 
L 284.185915 94.429139 
L 284.398747 94.205264 
L 290.996553 94.205264 
L 291.209386 93.981388 
L 294.401873 93.981388 
L 294.614705 93.757512 
L 296.955862 93.757512 
L 297.168695 93.533637 
L 298.445689 93.533637 
L 298.658522 93.309761 
L 309.72581 93.309761 
L 309.938642 93.085886 
L 312.705464 93.085886 
L 313.343961 92.414259 
L 313.556794 92.414259 
L 313.769626 92.190383 
L 314.833789 92.190383 
L 315.046621 91.966507 
L 318.664773 91.966507 
L 318.877605 91.742632 
L 323.134255 91.742632 
L 323.347087 91.518756 
L 329.093563 91.518756 
L 329.306396 91.294881 
L 329.944893 91.294881 
L 330.157726 91.071005 
L 331.009056 91.071005 
L 331.434721 90.623254 
L 332.924548 90.623254 
L 333.13738 90.399378 
L 335.904202 90.399378 
L 336.117035 90.175502 
L 339.096689 90.175502 
L 339.309522 89.951627 
L 348.461317 89.951627 
L 348.67415 89.727751 
L 361.65693 89.727751 
L 361.869762 89.503876 
L 362.933925 89.503876 
L 363.146757 89.28 
L 375.916705 89.28 
L 375.916705 89.28 
" clip-path="url(#p3c870294db)" style="fill: none; stroke: #c957db; stroke-width: 1.2; stroke-linecap: round"/>
   </g>
   <g id="line2d_44"/>
   <g id="line2d_45"/>
   <g id="line2d_46"/>
   <g id="line2d_47"/>
   <g id="line2d_48"/>
   <g id="patch_3">
    <path d="M 54.3375 512.64 
L 54.3375 69.12 
" style="fill: none; stroke: #cccccc; stroke-linejoin: miter; stroke-linecap: square"/>
   </g>
   <g id="patch_4">
    <path d="M 54.3375 512.64 
L 391.23 512.64 
" style="fill: none; stroke: #cccccc; stroke-linejoin: miter; stroke-linecap: square"/>
   </g>
   <g id="text_41">
    <!-- Edge Coverage History -->
    <g style="fill: #262626" transform="translate(115.892262 63.12)scale(0.165888 -0.165888)">
     <defs>
      <path id="DejaVuSans-Bold-45" d="M 588 4666 
L 3834 4666 
L 3834 3756 
L 1791 3756 
L 1791 2888 
L 3713 2888 
L 3713 1978 
L 1791 1978 
L 1791 909 
L 3903 909 
L 3903 0 
L 588 0 
L 588 4666 
z
" transform="scale(0.015625)"/>
      <path id="DejaVuSans-Bold-64" d="M 2919 2988 
L 2919 4863 
L 4044 4863 
L 4044 0 
L 2919 0 
L 2919 506 
Q 2688 197 2409 53 
Q 2131 -91 1766 -91 
Q 1119 -91 703 423 
Q 288 938 288 1747 
Q 288 2556 703 3070 
Q 1119 3584 1766 3584 
Q 2128 3584 2408 3439 
Q 2688 3294 2919 2988 
z
M 2181 722 
Q 2541 722 2730 984 
Q 2919 1247 2919 1747 
Q 2919 2247 2730 2509 
Q 2541 2772 2181 2772 
Q 1825 2772 1636 2509 
Q 1447 2247 1447 1747 
Q 1447 1247 1636 984 
Q 1825 722 2181 722 
z
" transform="scale(0.015625)"/>
      <path id="DejaVuSans-Bold-67" d="M 2919 594 
Q 2688 288 2409 144 
Q 2131 0 1766 0 
Q 1125 0 706 504 
Q 288 1009 288 1791 
Q 288 2575 706 3076 
Q 1125 3578 1766 3578 
Q 2131 3578 2409 3434 
Q 2688 3291 2919 2981 
L 2919 3500 
L 4044 3500 
L 4044 353 
Q 4044 -491 3511 -936 
Q 2978 -1381 1966 -1381 
Q 1638 -1381 1331 -1331 
Q 1025 -1281 716 -1178 
L 716 -306 
Q 1009 -475 1290 -558 
Q 1572 -641 1856 -641 
Q 2406 -641 2662 -400 
Q 2919 -159 2919 353 
L 2919 594 
z
M 2181 2772 
Q 1834 2772 1640 2515 
Q 1447 2259 1447 1791 
Q 1447 1309 1634 1061 
Q 1822 813 2181 813 
Q 2531 813 2725 1069 
Q 2919 1325 2919 1791 
Q 2919 2259 2725 2515 
Q 2531 2772 2181 2772 
z
" transform="scale(0.015625)"/>
      <path id="DejaVuSans-Bold-65" d="M 4031 1759 
L 4031 1441 
L 1416 1441 
Q 1456 1047 1700 850 
Q 1944 653 2381 653 
Q 2734 653 3104 758 
Q 3475 863 3866 1075 
L 3866 213 
Q 3469 63 3072 -14 
Q 2675 -91 2278 -91 
Q 1328 -91 801 392 
Q 275 875 275 1747 
Q 275 2603 792 3093 
Q 1309 3584 2216 3584 
Q 3041 3584 3536 3087 
Q 4031 2591 4031 1759 
z
M 2881 2131 
Q 2881 2450 2695 2645 
Q 2509 2841 2209 2841 
Q 1884 2841 1681 2658 
Q 1478 2475 1428 2131 
L 2881 2131 
z
" transform="scale(0.015625)"/>
      <path id="DejaVuSans-Bold-20" transform="scale(0.015625)"/>
      <path id="DejaVuSans-Bold-43" d="M 4288 256 
Q 3956 84 3597 -3 
Q 3238 -91 2847 -91 
Q 1681 -91 1000 561 
Q 319 1213 319 2328 
Q 319 3447 1000 4098 
Q 1681 4750 2847 4750 
Q 3238 4750 3597 4662 
Q 3956 4575 4288 4403 
L 4288 3438 
Q 3953 3666 3628 3772 
Q 3303 3878 2944 3878 
Q 2300 3878 1931 3465 
Q 1563 3053 1563 2328 
Q 1563 1606 1931 1193 
Q 2300 781 2944 781 
Q 3303 781 3628 887 
Q 3953 994 4288 1222 
L 4288 256 
z
" transform="scale(0.015625)"/>
      <path id="DejaVuSans-Bold-6f" d="M 2203 2784 
Q 1831 2784 1636 2517 
Q 1441 2250 1441 1747 
Q 1441 1244 1636 976 
Q 1831 709 2203 709 
Q 2569 709 2762 976 
Q 2956 1244 2956 1747 
Q 2956 2250 2762 2517 
Q 2569 2784 2203 2784 
z
M 2203 3584 
Q 3106 3584 3614 3096 
Q 4122 2609 4122 1747 
Q 4122 884 3614 396 
Q 3106 -91 2203 -91 
Q 1297 -91 786 396 
Q 275 884 275 1747 
Q 275 2609 786 3096 
Q 1297 3584 2203 3584 
z
" transform="scale(0.015625)"/>
      <path id="DejaVuSans-Bold-76" d="M 97 3500 
L 1216 3500 
L 2088 1081 
L 2956 3500 
L 4078 3500 
L 2700 0 
L 1472 0 
L 97 3500 
z
" transform="scale(0.015625)"/>
      <path id="DejaVuSans-Bold-72" d="M 3138 2547 
Q 2991 2616 2845 2648 
Q 2700 2681 2553 2681 
Q 2122 2681 1889 2404 
Q 1656 2128 1656 1613 
L 1656 0 
L 538 0 
L 538 3500 
L 1656 3500 
L 1656 2925 
Q 1872 3269 2151 3426 
Q 2431 3584 2822 3584 
Q 2878 3584 2943 3579 
Q 3009 3575 3134 3559 
L 3138 2547 
z
" transform="scale(0.015625)"/>
      <path id="DejaVuSans-Bold-61" d="M 2106 1575 
Q 1756 1575 1579 1456 
Q 1403 1338 1403 1106 
Q 1403 894 1545 773 
Q 1688 653 1941 653 
Q 2256 653 2472 879 
Q 2688 1106 2688 1447 
L 2688 1575 
L 2106 1575 
z
M 3816 1997 
L 3816 0 
L 2688 0 
L 2688 519 
Q 2463 200 2181 54 
Q 1900 -91 1497 -91 
Q 953 -91 614 226 
Q 275 544 275 1050 
Q 275 1666 698 1953 
Q 1122 2241 2028 2241 
L 2688 2241 
L 2688 2328 
Q 2688 2594 2478 2717 
Q 2269 2841 1825 2841 
Q 1466 2841 1156 2769 
Q 847 2697 581 2553 
L 581 3406 
Q 941 3494 1303 3539 
Q 1666 3584 2028 3584 
Q 2975 3584 3395 3211 
Q 3816 2838 3816 1997 
z
" transform="scale(0.015625)"/>
      <path id="DejaVuSans-Bold-48" d="M 588 4666 
L 1791 4666 
L 1791 2888 
L 3566 2888 
L 3566 4666 
L 4769 4666 
L 4769 0 
L 3566 0 
L 3566 1978 
L 1791 1978 
L 1791 0 
L 588 0 
L 588 4666 
z
" transform="scale(0.015625)"/>
      <path id="DejaVuSans-Bold-69" d="M 538 3500 
L 1656 3500 
L 1656 0 
L 538 0 
L 538 3500 
z
M 538 4863 
L 1656 4863 
L 1656 3950 
L 538 3950 
L 538 4863 
z
" transform="scale(0.015625)"/>
      <path id="DejaVuSans-Bold-73" d="M 3272 3391 
L 3272 2541 
Q 2913 2691 2578 2766 
Q 2244 2841 1947 2841 
Q 1628 2841 1473 2761 
Q 1319 2681 1319 2516 
Q 1319 2381 1436 2309 
Q 1553 2238 1856 2203 
L 2053 2175 
Q 2913 2066 3209 1816 
Q 3506 1566 3506 1031 
Q 3506 472 3093 190 
Q 2681 -91 1863 -91 
Q 1516 -91 1145 -36 
Q 775 19 384 128 
L 384 978 
Q 719 816 1070 734 
Q 1422 653 1784 653 
Q 2113 653 2278 743 
Q 2444 834 2444 1013 
Q 2444 1163 2330 1236 
Q 2216 1309 1875 1350 
L 1678 1375 
Q 931 1469 631 1722 
Q 331 1975 331 2491 
Q 331 3047 712 3315 
Q 1094 3584 1881 3584 
Q 2191 3584 2531 3537 
Q 2872 3491 3272 3391 
z
" transform="scale(0.015625)"/>
      <path id="DejaVuSans-Bold-74" d="M 1759 4494 
L 1759 3500 
L 2913 3500 
L 2913 2700 
L 1759 2700 
L 1759 1216 
Q 1759 972 1856 886 
Q 1953 800 2241 800 
L 2816 800 
L 2816 0 
L 1856 0 
Q 1194 0 917 276 
Q 641 553 641 1216 
L 641 2700 
L 84 2700 
L 84 3500 
L 641 3500 
L 641 4494 
L 1759 4494 
z
" transform="scale(0.015625)"/>
      <path id="DejaVuSans-Bold-79" d="M 78 3500 
L 1197 3500 
L 2138 1125 
L 2938 3500 
L 4056 3500 
L 2584 -331 
Q 2363 -916 2067 -1148 
Q 1772 -1381 1288 -1381 
L 641 -1381 
L 641 -647 
L 991 -647 
Q 1275 -647 1404 -556 
Q 1534 -466 1606 -231 
L 1638 -134 
L 78 3500 
z
" transform="scale(0.015625)"/>
     </defs>
     <use xlink:href="#DejaVuSans-Bold-45"/>
     <use xlink:href="#DejaVuSans-Bold-64" x="68.310547"/>
     <use xlink:href="#DejaVuSans-Bold-67" x="139.892578"/>
     <use xlink:href="#DejaVuSans-Bold-65" x="211.474609"/>
     <use xlink:href="#DejaVuSans-Bold-20" x="279.296875"/>
     <use xlink:href="#DejaVuSans-Bold-43" x="314.111328"/>
     <use xlink:href="#DejaVuSans-Bold-6f" x="387.5"/>
     <use xlink:href="#DejaVuSans-Bold-76" x="456.201172"/>
     <use xlink:href="#DejaVuSans-Bold-65" x="521.386719"/>
     <use xlink:href="#DejaVuSans-Bold-72" x="589.208984"/>
     <use xlink:href="#DejaVuSans-Bold-61" x="638.525391"/>
     <use xlink:href="#DejaVuSans-Bold-67" x="706.005859"/>
     <use xlink:href="#DejaVuSans-Bold-65" x="777.587891"/>
     <use xlink:href="#DejaVuSans-Bold-20" x="845.410156"/>
     <use xlink:href="#DejaVuSans-Bold-48" x="880.224609"/>
     <use xlink:href="#DejaVuSans-Bold-69" x="963.916016"/>
     <use xlink:href="#DejaVuSans-Bold-73" x="998.193359"/>
     <use xlink:href="#DejaVuSans-Bold-74" x="1057.714844"/>
     <use xlink:href="#DejaVuSans-Bold-6f" x="1105.517578"/>
     <use xlink:href="#DejaVuSans-Bold-72" x="1174.21875"/>
     <use xlink:href="#DejaVuSans-Bold-79" x="1223.535156"/>
    </g>
   </g>
   <g id="legend_1">
    <g id="patch_5">
     <path d="M 273.541 508.24 
L 385.07 508.24 
Q 386.83 508.24 386.83 506.48 
L 386.83 428.8405 
Q 386.83 427.0805 385.07 427.0805 
L 273.541 427.0805 
Q 271.781 427.0805 271.781 428.8405 
L 271.781 506.48 
Q 271.781 508.24 273.541 508.24 
z
" style="fill: #ffffff; opacity: 0.8; stroke: #cccccc; stroke-width: 0.8; stroke-linejoin: miter"/>
    </g>
    <g id="text_42">
     <!-- fuzzer -->
     <g style="fill: #262626" transform="translate(314.6085 437.895)scale(0.096 -0.096)">
      <defs>
       <path id="DejaVuSans-66" d="M 2375 4863 
L 2375 4384 
L 1825 4384 
Q 1516 4384 1395 4259 
Q 1275 4134 1275 3809 
L 1275 3500 
L 2222 3500 
L 2222 3053 
L 1275 3053 
L 1275 0 
L 697 0 
L 697 3053 
L 147 3053 
L 147 3500 
L 697 3500 
L 697 3744 
Q 697 4328 969 4595 
Q 1241 4863 1831 4863 
L 2375 4863 
z
" transform="scale(0.015625)"/>
       <path id="DejaVuSans-7a" d="M 353 3500 
L 3084 3500 
L 3084 2975 
L 922 459 
L 3084 459 
L 3084 0 
L 275 0 
L 275 525 
L 2438 3041 
L 353 3041 
L 353 3500 
z
" transform="scale(0.015625)"/>
      </defs>
      <use xlink:href="#DejaVuSans-66"/>
      <use xlink:href="#DejaVuSans-75" x="35.205078"/>
      <use xlink:href="#DejaVuSans-7a" x="98.583984"/>
      <use xlink:href="#DejaVuSans-7a" x="151.074219"/>
      <use xlink:href="#DejaVuSans-65" x="203.564453"/>
      <use xlink:href="#DejaVuSans-72" x="265.087891"/>
     </g>
    </g>
    <g id="line2d_49">
     <path d="M 275.301 447.898125 
L 284.101 447.898125 
L 292.901 447.898125 
" style="fill: none; stroke: #db5f57; stroke-width: 1.2; stroke-linecap: round"/>
    </g>
    <g id="text_43">
     <!-- mopt-0-exid2 -->
     <g style="fill: #262626" transform="translate(299.941 450.978125)scale(0.088 -0.088)">
      <defs>
       <path id="DejaVuSans-70" d="M 1159 525 
L 1159 -1331 
L 581 -1331 
L 581 3500 
L 1159 3500 
L 1159 2969 
Q 1341 3281 1617 3432 
Q 1894 3584 2278 3584 
Q 2916 3584 3314 3078 
Q 3713 2572 3713 1747 
Q 3713 922 3314 415 
Q 2916 -91 2278 -91 
Q 1894 -91 1617 61 
Q 1341 213 1159 525 
z
M 3116 1747 
Q 3116 2381 2855 2742 
Q 2594 3103 2138 3103 
Q 1681 3103 1420 2742 
Q 1159 2381 1159 1747 
Q 1159 1113 1420 752 
Q 1681 391 2138 391 
Q 2594 391 2855 752 
Q 3116 1113 3116 1747 
z
" transform="scale(0.015625)"/>
       <path id="DejaVuSans-2d" d="M 313 2009 
L 1997 2009 
L 1997 1497 
L 313 1497 
L 313 2009 
z
" transform="scale(0.015625)"/>
       <path id="DejaVuSans-78" d="M 3513 3500 
L 2247 1797 
L 3578 0 
L 2900 0 
L 1881 1375 
L 863 0 
L 184 0 
L 1544 1831 
L 300 3500 
L 978 3500 
L 1906 2253 
L 2834 3500 
L 3513 3500 
z
" transform="scale(0.015625)"/>
      </defs>
      <use xlink:href="#DejaVuSans-6d"/>
      <use xlink:href="#DejaVuSans-6f" x="97.412109"/>
      <use xlink:href="#DejaVuSans-70" x="158.59375"/>
      <use xlink:href="#DejaVuSans-74" x="222.070312"/>
      <use xlink:href="#DejaVuSans-2d" x="261.279297"/>
      <use xlink:href="#DejaVuSans-30" x="297.363281"/>
      <use xlink:href="#DejaVuSans-2d" x="360.986328"/>
      <use xlink:href="#DejaVuSans-65" x="397.070312"/>
      <use xlink:href="#DejaVuSans-78" x="456.84375"/>
      <use xlink:href="#DejaVuSans-69" x="516.023438"/>
      <use xlink:href="#DejaVuSans-64" x="543.806641"/>
      <use xlink:href="#DejaVuSans-32" x="607.283203"/>
     </g>
    </g>
    <g id="line2d_50">
     <path d="M 275.301 460.814875 
L 284.101 460.814875 
L 292.901 460.814875 
" style="fill: none; stroke: #b9db57; stroke-width: 1.2; stroke-linecap: round"/>
    </g>
    <g id="text_44">
     <!-- fairfuzz-0-exid2 -->
     <g style="fill: #262626" transform="translate(299.941 463.894875)scale(0.088 -0.088)">
      <use xlink:href="#DejaVuSans-66"/>
      <use xlink:href="#DejaVuSans-61" x="35.205078"/>
      <use xlink:href="#DejaVuSans-69" x="96.484375"/>
      <use xlink:href="#DejaVuSans-72" x="124.267578"/>
      <use xlink:href="#DejaVuSans-66" x="165.380859"/>
      <use xlink:href="#DejaVuSans-75" x="200.585938"/>
      <use xlink:href="#DejaVuSans-7a" x="263.964844"/>
      <use xlink:href="#DejaVuSans-7a" x="316.455078"/>
      <use xlink:href="#DejaVuSans-2d" x="368.945312"/>
      <use xlink:href="#DejaVuSans-30" x="405.029297"/>
      <use xlink:href="#DejaVuSans-2d" x="468.652344"/>
      <use xlink:href="#DejaVuSans-65" x="504.736328"/>
      <use xlink:href="#DejaVuSans-78" x="564.509766"/>
      <use xlink:href="#DejaVuSans-69" x="623.689453"/>
      <use xlink:href="#DejaVuSans-64" x="651.472656"/>
      <use xlink:href="#DejaVuSans-32" x="714.949219"/>
     </g>
    </g>
    <g id="line2d_51">
     <path d="M 275.301 473.731625 
L 284.101 473.731625 
L 292.901 473.731625 
" style="fill: none; stroke: #57db94; stroke-width: 1.2; stroke-linecap: round"/>
    </g>
    <g id="text_45">
     <!-- aflplusplus-0-exid2 -->
     <g style="fill: #262626" transform="translate(299.941 476.811625)scale(0.088 -0.088)">
      <defs>
       <path id="DejaVuSans-6c" d="M 603 4863 
L 1178 4863 
L 1178 0 
L 603 0 
L 603 4863 
z
" transform="scale(0.015625)"/>
      </defs>
      <use xlink:href="#DejaVuSans-61"/>
      <use xlink:href="#DejaVuSans-66" x="61.279297"/>
      <use xlink:href="#DejaVuSans-6c" x="96.484375"/>
      <use xlink:href="#DejaVuSans-70" x="124.267578"/>
      <use xlink:href="#DejaVuSans-6c" x="187.744141"/>
      <use xlink:href="#DejaVuSans-75" x="215.527344"/>
      <use xlink:href="#DejaVuSans-73" x="278.90625"/>
      <use xlink:href="#DejaVuSans-70" x="331.005859"/>
      <use xlink:href="#DejaVuSans-6c" x="394.482422"/>
      <use xlink:href="#DejaVuSans-75" x="422.265625"/>
      <use xlink:href="#DejaVuSans-73" x="485.644531"/>
      <use xlink:href="#DejaVuSans-2d" x="537.744141"/>
      <use xlink:href="#DejaVuSans-30" x="573.828125"/>
      <use xlink:href="#DejaVuSans-2d" x="637.451172"/>
      <use xlink:href="#DejaVuSans-65" x="673.535156"/>
      <use xlink:href="#DejaVuSans-78" x="733.308594"/>
      <use xlink:href="#DejaVuSans-69" x="792.488281"/>
      <use xlink:href="#DejaVuSans-64" x="820.271484"/>
      <use xlink:href="#DejaVuSans-32" x="883.748047"/>
     </g>
    </g>
    <g id="line2d_52">
     <path d="M 275.301 486.648375 
L 284.101 486.648375 
L 292.901 486.648375 
" style="fill: none; stroke: #5784db; stroke-width: 1.2; stroke-linecap: round"/>
    </g>
    <g id="text_46">
     <!-- symcc-0-exid2 -->
     <g style="fill: #262626" transform="translate(299.941 489.728375)scale(0.088 -0.088)">
      <defs>
       <path id="DejaVuSans-79" d="M 2059 -325 
Q 1816 -950 1584 -1140 
Q 1353 -1331 966 -1331 
L 506 -1331 
L 506 -850 
L 844 -850 
Q 1081 -850 1212 -737 
Q 1344 -625 1503 -206 
L 1606 56 
L 191 3500 
L 800 3500 
L 1894 763 
L 2988 3500 
L 3597 3500 
L 2059 -325 
z
" transform="scale(0.015625)"/>
       <path id="DejaVuSans-63" d="M 3122 3366 
L 3122 2828 
Q 2878 2963 2633 3030 
Q 2388 3097 2138 3097 
Q 1578 3097 1268 2742 
Q 959 2388 959 1747 
Q 959 1106 1268 751 
Q 1578 397 2138 397 
Q 2388 397 2633 464 
Q 2878 531 3122 666 
L 3122 134 
Q 2881 22 2623 -34 
Q 2366 -91 2075 -91 
Q 1284 -91 818 406 
Q 353 903 353 1747 
Q 353 2603 823 3093 
Q 1294 3584 2113 3584 
Q 2378 3584 2631 3529 
Q 2884 3475 3122 3366 
z
" transform="scale(0.015625)"/>
      </defs>
      <use xlink:href="#DejaVuSans-73"/>
      <use xlink:href="#DejaVuSans-79" x="52.099609"/>
      <use xlink:href="#DejaVuSans-6d" x="111.279297"/>
      <use xlink:href="#DejaVuSans-63" x="208.691406"/>
      <use xlink:href="#DejaVuSans-63" x="263.671875"/>
      <use xlink:href="#DejaVuSans-2d" x="318.652344"/>
      <use xlink:href="#DejaVuSans-30" x="354.736328"/>
      <use xlink:href="#DejaVuSans-2d" x="418.359375"/>
      <use xlink:href="#DejaVuSans-65" x="454.443359"/>
      <use xlink:href="#DejaVuSans-78" x="514.216797"/>
      <use xlink:href="#DejaVuSans-69" x="573.396484"/>
      <use xlink:href="#DejaVuSans-64" x="601.179688"/>
      <use xlink:href="#DejaVuSans-32" x="664.65625"/>
     </g>
    </g>
    <g id="line2d_53">
     <path d="M 275.301 499.565125 
L 284.101 499.565125 
L 292.901 499.565125 
" style="fill: none; stroke: #c957db; stroke-width: 1.2; stroke-linecap: round"/>
    </g>
    <g id="text_47">
     <!-- fuzzer_global -->
     <g style="fill: #262626" transform="translate(299.941 502.645125)scale(0.088 -0.088)">
      <defs>
       <path id="DejaVuSans-5f" d="M 3263 -1063 
L 3263 -1509 
L -63 -1509 
L -63 -1063 
L 3263 -1063 
z
" transform="scale(0.015625)"/>
       <path id="DejaVuSans-62" d="M 3116 1747 
Q 3116 2381 2855 2742 
Q 2594 3103 2138 3103 
Q 1681 3103 1420 2742 
Q 1159 2381 1159 1747 
Q 1159 1113 1420 752 
Q 1681 391 2138 391 
Q 2594 391 2855 752 
Q 3116 1113 3116 1747 
z
M 1159 2969 
Q 1341 3281 1617 3432 
Q 1894 3584 2278 3584 
Q 2916 3584 3314 3078 
Q 3713 2572 3713 1747 
Q 3713 922 3314 415 
Q 2916 -91 2278 -91 
Q 1894 -91 1617 61 
Q 1341 213 1159 525 
L 1159 0 
L 581 0 
L 581 4863 
L 1159 4863 
L 1159 2969 
z
" transform="scale(0.015625)"/>
      </defs>
      <use xlink:href="#DejaVuSans-66"/>
      <use xlink:href="#DejaVuSans-75" x="35.205078"/>
      <use xlink:href="#DejaVuSans-7a" x="98.583984"/>
      <use xlink:href="#DejaVuSans-7a" x="151.074219"/>
      <use xlink:href="#DejaVuSans-65" x="203.564453"/>
      <use xlink:href="#DejaVuSans-72" x="265.087891"/>
      <use xlink:href="#DejaVuSans-5f" x="306.201172"/>
      <use xlink:href="#DejaVuSans-67" x="356.201172"/>
      <use xlink:href="#DejaVuSans-6c" x="419.677734"/>
      <use xlink:href="#DejaVuSans-6f" x="447.460938"/>
      <use xlink:href="#DejaVuSans-62" x="508.642578"/>
      <use xlink:href="#DejaVuSans-61" x="572.119141"/>
      <use xlink:href="#DejaVuSans-6c" x="633.398438"/>
     </g>
    </g>
   </g>
  </g>
 </g>
 <defs>
  <clipPath id="p3c870294db">
   <rect x="54.3375" y="69.12" width="336.8925" height="443.52"/>
  </clipPath>
 </defs>
</svg>
