<?xml version="1.0" encoding="utf-8" standalone="no"?>
<!DOCTYPE svg PUBLIC "-//W3C//DTD SVG 1.1//EN"
  "http://www.w3.org/Graphics/SVG/1.1/DTD/svg11.dtd">
<svg xmlns:xlink="http://www.w3.org/1999/xlink" width="434.7pt" height="576pt" viewBox="0 0 434.7 576" xmlns="http://www.w3.org/2000/svg" version="1.1">
 <metadata>
  <rdf:RDF xmlns:dc="http://purl.org/dc/elements/1.1/" xmlns:cc="http://creativecommons.org/ns#" xmlns:rdf="http://www.w3.org/1999/02/22-rdf-syntax-ns#">
   <cc:Work>
    <dc:type rdf:resource="http://purl.org/dc/dcmitype/StillImage"/>
    <dc:date>2022-09-15T11:35:32.309795</dc:date>
    <dc:format>image/svg+xml</dc:format>
    <dc:creator>
     <cc:Agent>
      <dc:title>Matplotlib v3.5.3, https://matplotlib.org/</dc:title>
     </cc:Agent>
    </dc:creator>
   </cc:Work>
  </rdf:RDF>
 </metadata>
 <defs>
  <style type="text/css">*{stroke-linejoin: round; stroke-linecap: butt}</style>
 </defs>
 <g id="figure_1">
  <g id="patch_1">
   <path d="M 0 576 
L 434.7 576 
L 434.7 0 
L 0 0 
z
" style="fill: #ffffff"/>
  </g>
  <g id="axes_1">
   <g id="patch_2">
    <path d="M 54.3375 512.64 
L 391.23 512.64 
L 391.23 69.12 
L 54.3375 69.12 
z
" style="fill: #ffffff"/>
   </g>
   <g id="matplotlib.axis_1">
    <g id="xtick_1">
     <g id="line2d_1">
      <path d="M 69.650795 512.64 
L 69.650795 69.12 
" clip-path="url(#p25488f5123)" style="fill: none; stroke: #cccccc; stroke-width: 0.8; stroke-linecap: round"/>
     </g>
     <g id="text_1">
      <!-- 0 -->
      <g style="fill: #262626" transform="translate(69.388282 529.627249)rotate(-45)scale(0.088 -0.088)">
       <defs>
        <path id="DejaVuSans-30" d="M 2034 4250 
Q 1547 4250 1301 3770 
Q 1056 3291 1056 2328 
Q 1056 1369 1301 889 
Q 1547 409 2034 409 
Q 2525 409 2770 889 
Q 3016 1369 3016 2328 
Q 3016 3291 2770 3770 
Q 2525 4250 2034 4250 
z
M 2034 4750 
Q 2819 4750 3233 4129 
Q 3647 3509 3647 2328 
Q 3647 1150 3233 529 
Q 2819 -91 2034 -91 
Q 1250 -91 836 529 
Q 422 1150 422 2328 
Q 422 3509 836 4129 
Q 1250 4750 2034 4750 
z
" transform="scale(0.015625)"/>
       </defs>
       <use xlink:href="#DejaVuSans-30"/>
      </g>
     </g>
    </g>
    <g id="xtick_2">
     <g id="line2d_2">
      <path d="M 86.677392 512.64 
L 86.677392 69.12 
" clip-path="url(#p25488f5123)" style="fill: none; stroke: #cccccc; stroke-width: 0.8; stroke-linecap: round"/>
     </g>
     <g id="text_2">
      <!-- 80 -->
      <g style="fill: #262626" transform="translate(84.435333 533.58634)rotate(-45)scale(0.088 -0.088)">
       <defs>
        <path id="DejaVuSans-38" d="M 2034 2216 
Q 1584 2216 1326 1975 
Q 1069 1734 1069 1313 
Q 1069 891 1326 650 
Q 1584 409 2034 409 
Q 2484 409 2743 651 
Q 3003 894 3003 1313 
Q 3003 1734 2745 1975 
Q 2488 2216 2034 2216 
z
M 1403 2484 
Q 997 2584 770 2862 
Q 544 3141 544 3541 
Q 544 4100 942 4425 
Q 1341 4750 2034 4750 
Q 2731 4750 3128 4425 
Q 3525 4100 3525 3541 
Q 3525 3141 3298 2862 
Q 3072 2584 2669 2484 
Q 3125 2378 3379 2068 
Q 3634 1759 3634 1313 
Q 3634 634 3220 271 
Q 2806 -91 2034 -91 
Q 1263 -91 848 271 
Q 434 634 434 1313 
Q 434 1759 690 2068 
Q 947 2378 1403 2484 
z
M 1172 3481 
Q 1172 3119 1398 2916 
Q 1625 2713 2034 2713 
Q 2441 2713 2670 2916 
Q 2900 3119 2900 3481 
Q 2900 3844 2670 4047 
Q 2441 4250 2034 4250 
Q 1625 4250 1398 4047 
Q 1172 3844 1172 3481 
z
" transform="scale(0.015625)"/>
       </defs>
       <use xlink:href="#DejaVuSans-38"/>
       <use xlink:href="#DejaVuSans-30" x="63.623047"/>
      </g>
     </g>
    </g>
    <g id="xtick_3">
     <g id="line2d_3">
      <path d="M 103.703989 512.64 
L 103.703989 69.12 
" clip-path="url(#p25488f5123)" style="fill: none; stroke: #cccccc; stroke-width: 0.8; stroke-linecap: round"/>
     </g>
     <g id="text_3">
      <!-- 160 -->
      <g style="fill: #262626" transform="translate(99.482385 537.54543)rotate(-45)scale(0.088 -0.088)">
       <defs>
        <path id="DejaVuSans-31" d="M 794 531 
L 1825 531 
L 1825 4091 
L 703 3866 
L 703 4441 
L 1819 4666 
L 2450 4666 
L 2450 531 
L 3481 531 
L 3481 0 
L 794 0 
L 794 531 
z
" transform="scale(0.015625)"/>
        <path id="DejaVuSans-36" d="M 2113 2584 
Q 1688 2584 1439 2293 
Q 1191 2003 1191 1497 
Q 1191 994 1439 701 
Q 1688 409 2113 409 
Q 2538 409 2786 701 
Q 3034 994 3034 1497 
Q 3034 2003 2786 2293 
Q 2538 2584 2113 2584 
z
M 3366 4563 
L 3366 3988 
Q 3128 4100 2886 4159 
Q 2644 4219 2406 4219 
Q 1781 4219 1451 3797 
Q 1122 3375 1075 2522 
Q 1259 2794 1537 2939 
Q 1816 3084 2150 3084 
Q 2853 3084 3261 2657 
Q 3669 2231 3669 1497 
Q 3669 778 3244 343 
Q 2819 -91 2113 -91 
Q 1303 -91 875 529 
Q 447 1150 447 2328 
Q 447 3434 972 4092 
Q 1497 4750 2381 4750 
Q 2619 4750 2861 4703 
Q 3103 4656 3366 4563 
z
" transform="scale(0.015625)"/>
       </defs>
       <use xlink:href="#DejaVuSans-31"/>
       <use xlink:href="#DejaVuSans-36" x="63.623047"/>
       <use xlink:href="#DejaVuSans-30" x="127.246094"/>
      </g>
     </g>
    </g>
    <g id="xtick_4">
     <g id="line2d_4">
      <path d="M 120.730586 512.64 
L 120.730586 69.12 
" clip-path="url(#p25488f5123)" style="fill: none; stroke: #cccccc; stroke-width: 0.8; stroke-linecap: round"/>
     </g>
     <g id="text_4">
      <!-- 240 -->
      <g style="fill: #262626" transform="translate(116.508981 537.54543)rotate(-45)scale(0.088 -0.088)">
       <defs>
        <path id="DejaVuSans-32" d="M 1228 531 
L 3431 531 
L 3431 0 
L 469 0 
L 469 531 
Q 828 903 1448 1529 
Q 2069 2156 2228 2338 
Q 2531 2678 2651 2914 
Q 2772 3150 2772 3378 
Q 2772 3750 2511 3984 
Q 2250 4219 1831 4219 
Q 1534 4219 1204 4116 
Q 875 4013 500 3803 
L 500 4441 
Q 881 4594 1212 4672 
Q 1544 4750 1819 4750 
Q 2544 4750 2975 4387 
Q 3406 4025 3406 3419 
Q 3406 3131 3298 2873 
Q 3191 2616 2906 2266 
Q 2828 2175 2409 1742 
Q 1991 1309 1228 531 
z
" transform="scale(0.015625)"/>
        <path id="DejaVuSans-34" d="M 2419 4116 
L 825 1625 
L 2419 1625 
L 2419 4116 
z
M 2253 4666 
L 3047 4666 
L 3047 1625 
L 3713 1625 
L 3713 1100 
L 3047 1100 
L 3047 0 
L 2419 0 
L 2419 1100 
L 313 1100 
L 313 1709 
L 2253 4666 
z
" transform="scale(0.015625)"/>
       </defs>
       <use xlink:href="#DejaVuSans-32"/>
       <use xlink:href="#DejaVuSans-34" x="63.623047"/>
       <use xlink:href="#DejaVuSans-30" x="127.246094"/>
      </g>
     </g>
    </g>
    <g id="xtick_5">
     <g id="line2d_5">
      <path d="M 137.757182 512.64 
L 137.757182 69.12 
" clip-path="url(#p25488f5123)" style="fill: none; stroke: #cccccc; stroke-width: 0.8; stroke-linecap: round"/>
     </g>
     <g id="text_5">
      <!-- 320 -->
      <g style="fill: #262626" transform="translate(133.535578 537.54543)rotate(-45)scale(0.088 -0.088)">
       <defs>
        <path id="DejaVuSans-33" d="M 2597 2516 
Q 3050 2419 3304 2112 
Q 3559 1806 3559 1356 
Q 3559 666 3084 287 
Q 2609 -91 1734 -91 
Q 1441 -91 1130 -33 
Q 819 25 488 141 
L 488 750 
Q 750 597 1062 519 
Q 1375 441 1716 441 
Q 2309 441 2620 675 
Q 2931 909 2931 1356 
Q 2931 1769 2642 2001 
Q 2353 2234 1838 2234 
L 1294 2234 
L 1294 2753 
L 1863 2753 
Q 2328 2753 2575 2939 
Q 2822 3125 2822 3475 
Q 2822 3834 2567 4026 
Q 2313 4219 1838 4219 
Q 1578 4219 1281 4162 
Q 984 4106 628 3988 
L 628 4550 
Q 988 4650 1302 4700 
Q 1616 4750 1894 4750 
Q 2613 4750 3031 4423 
Q 3450 4097 3450 3541 
Q 3450 3153 3228 2886 
Q 3006 2619 2597 2516 
z
" transform="scale(0.015625)"/>
       </defs>
       <use xlink:href="#DejaVuSans-33"/>
       <use xlink:href="#DejaVuSans-32" x="63.623047"/>
       <use xlink:href="#DejaVuSans-30" x="127.246094"/>
      </g>
     </g>
    </g>
    <g id="xtick_6">
     <g id="line2d_6">
      <path d="M 154.783779 512.64 
L 154.783779 69.12 
" clip-path="url(#p25488f5123)" style="fill: none; stroke: #cccccc; stroke-width: 0.8; stroke-linecap: round"/>
     </g>
     <g id="text_6">
      <!-- 400 -->
      <g style="fill: #262626" transform="translate(150.562175 537.54543)rotate(-45)scale(0.088 -0.088)">
       <use xlink:href="#DejaVuSans-34"/>
       <use xlink:href="#DejaVuSans-30" x="63.623047"/>
       <use xlink:href="#DejaVuSans-30" x="127.246094"/>
      </g>
     </g>
    </g>
    <g id="xtick_7">
     <g id="line2d_7">
      <path d="M 171.810376 512.64 
L 171.810376 69.12 
" clip-path="url(#p25488f5123)" style="fill: none; stroke: #cccccc; stroke-width: 0.8; stroke-linecap: round"/>
     </g>
     <g id="text_7">
      <!-- 480 -->
      <g style="fill: #262626" transform="translate(167.588772 537.54543)rotate(-45)scale(0.088 -0.088)">
       <use xlink:href="#DejaVuSans-34"/>
       <use xlink:href="#DejaVuSans-38" x="63.623047"/>
       <use xlink:href="#DejaVuSans-30" x="127.246094"/>
      </g>
     </g>
    </g>
    <g id="xtick_8">
     <g id="line2d_8">
      <path d="M 188.836973 512.64 
L 188.836973 69.12 
" clip-path="url(#p25488f5123)" style="fill: none; stroke: #cccccc; stroke-width: 0.8; stroke-linecap: round"/>
     </g>
     <g id="text_8">
      <!-- 560 -->
      <g style="fill: #262626" transform="translate(184.615368 537.54543)rotate(-45)scale(0.088 -0.088)">
       <defs>
        <path id="DejaVuSans-35" d="M 691 4666 
L 3169 4666 
L 3169 4134 
L 1269 4134 
L 1269 2991 
Q 1406 3038 1543 3061 
Q 1681 3084 1819 3084 
Q 2600 3084 3056 2656 
Q 3513 2228 3513 1497 
Q 3513 744 3044 326 
Q 2575 -91 1722 -91 
Q 1428 -91 1123 -41 
Q 819 9 494 109 
L 494 744 
Q 775 591 1075 516 
Q 1375 441 1709 441 
Q 2250 441 2565 725 
Q 2881 1009 2881 1497 
Q 2881 1984 2565 2268 
Q 2250 2553 1709 2553 
Q 1456 2553 1204 2497 
Q 953 2441 691 2322 
L 691 4666 
z
" transform="scale(0.015625)"/>
       </defs>
       <use xlink:href="#DejaVuSans-35"/>
       <use xlink:href="#DejaVuSans-36" x="63.623047"/>
       <use xlink:href="#DejaVuSans-30" x="127.246094"/>
      </g>
     </g>
    </g>
    <g id="xtick_9">
     <g id="line2d_9">
      <path d="M 205.863569 512.64 
L 205.863569 69.12 
" clip-path="url(#p25488f5123)" style="fill: none; stroke: #cccccc; stroke-width: 0.8; stroke-linecap: round"/>
     </g>
     <g id="text_9">
      <!-- 640 -->
      <g style="fill: #262626" transform="translate(201.641965 537.54543)rotate(-45)scale(0.088 -0.088)">
       <use xlink:href="#DejaVuSans-36"/>
       <use xlink:href="#DejaVuSans-34" x="63.623047"/>
       <use xlink:href="#DejaVuSans-30" x="127.246094"/>
      </g>
     </g>
    </g>
    <g id="xtick_10">
     <g id="line2d_10">
      <path d="M 222.890166 512.64 
L 222.890166 69.12 
" clip-path="url(#p25488f5123)" style="fill: none; stroke: #cccccc; stroke-width: 0.8; stroke-linecap: round"/>
     </g>
     <g id="text_10">
      <!-- 720 -->
      <g style="fill: #262626" transform="translate(218.668562 537.54543)rotate(-45)scale(0.088 -0.088)">
       <defs>
        <path id="DejaVuSans-37" d="M 525 4666 
L 3525 4666 
L 3525 4397 
L 1831 0 
L 1172 0 
L 2766 4134 
L 525 4134 
L 525 4666 
z
" transform="scale(0.015625)"/>
       </defs>
       <use xlink:href="#DejaVuSans-37"/>
       <use xlink:href="#DejaVuSans-32" x="63.623047"/>
       <use xlink:href="#DejaVuSans-30" x="127.246094"/>
      </g>
     </g>
    </g>
    <g id="xtick_11">
     <g id="line2d_11">
      <path d="M 239.916763 512.64 
L 239.916763 69.12 
" clip-path="url(#p25488f5123)" style="fill: none; stroke: #cccccc; stroke-width: 0.8; stroke-linecap: round"/>
     </g>
     <g id="text_11">
      <!-- 800 -->
      <g style="fill: #262626" transform="translate(235.695159 537.54543)rotate(-45)scale(0.088 -0.088)">
       <use xlink:href="#DejaVuSans-38"/>
       <use xlink:href="#DejaVuSans-30" x="63.623047"/>
       <use xlink:href="#DejaVuSans-30" x="127.246094"/>
      </g>
     </g>
    </g>
    <g id="xtick_12">
     <g id="line2d_12">
      <path d="M 256.94336 512.64 
L 256.94336 69.12 
" clip-path="url(#p25488f5123)" style="fill: none; stroke: #cccccc; stroke-width: 0.8; stroke-linecap: round"/>
     </g>
     <g id="text_12">
      <!-- 880 -->
      <g style="fill: #262626" transform="translate(252.721755 537.54543)rotate(-45)scale(0.088 -0.088)">
       <use xlink:href="#DejaVuSans-38"/>
       <use xlink:href="#DejaVuSans-38" x="63.623047"/>
       <use xlink:href="#DejaVuSans-30" x="127.246094"/>
      </g>
     </g>
    </g>
    <g id="xtick_13">
     <g id="line2d_13">
      <path d="M 273.969956 512.64 
L 273.969956 69.12 
" clip-path="url(#p25488f5123)" style="fill: none; stroke: #cccccc; stroke-width: 0.8; stroke-linecap: round"/>
     </g>
     <g id="text_13">
      <!-- 960 -->
      <g style="fill: #262626" transform="translate(269.748352 537.54543)rotate(-45)scale(0.088 -0.088)">
       <defs>
        <path id="DejaVuSans-39" d="M 703 97 
L 703 672 
Q 941 559 1184 500 
Q 1428 441 1663 441 
Q 2288 441 2617 861 
Q 2947 1281 2994 2138 
Q 2813 1869 2534 1725 
Q 2256 1581 1919 1581 
Q 1219 1581 811 2004 
Q 403 2428 403 3163 
Q 403 3881 828 4315 
Q 1253 4750 1959 4750 
Q 2769 4750 3195 4129 
Q 3622 3509 3622 2328 
Q 3622 1225 3098 567 
Q 2575 -91 1691 -91 
Q 1453 -91 1209 -44 
Q 966 3 703 97 
z
M 1959 2075 
Q 2384 2075 2632 2365 
Q 2881 2656 2881 3163 
Q 2881 3666 2632 3958 
Q 2384 4250 1959 4250 
Q 1534 4250 1286 3958 
Q 1038 3666 1038 3163 
Q 1038 2656 1286 2365 
Q 1534 2075 1959 2075 
z
" transform="scale(0.015625)"/>
       </defs>
       <use xlink:href="#DejaVuSans-39"/>
       <use xlink:href="#DejaVuSans-36" x="63.623047"/>
       <use xlink:href="#DejaVuSans-30" x="127.246094"/>
      </g>
     </g>
    </g>
    <g id="xtick_14">
     <g id="line2d_14">
      <path d="M 290.996553 512.64 
L 290.996553 69.12 
" clip-path="url(#p25488f5123)" style="fill: none; stroke: #cccccc; stroke-width: 0.8; stroke-linecap: round"/>
     </g>
     <g id="text_14">
      <!-- 1040 -->
      <g style="fill: #262626" transform="translate(284.795404 541.504521)rotate(-45)scale(0.088 -0.088)">
       <use xlink:href="#DejaVuSans-31"/>
       <use xlink:href="#DejaVuSans-30" x="63.623047"/>
       <use xlink:href="#DejaVuSans-34" x="127.246094"/>
       <use xlink:href="#DejaVuSans-30" x="190.869141"/>
      </g>
     </g>
    </g>
    <g id="xtick_15">
     <g id="line2d_15">
      <path d="M 308.02315 512.64 
L 308.02315 69.12 
" clip-path="url(#p25488f5123)" style="fill: none; stroke: #cccccc; stroke-width: 0.8; stroke-linecap: round"/>
     </g>
     <g id="text_15">
      <!-- 1120 -->
      <g style="fill: #262626" transform="translate(301.822 541.504521)rotate(-45)scale(0.088 -0.088)">
       <use xlink:href="#DejaVuSans-31"/>
       <use xlink:href="#DejaVuSans-31" x="63.623047"/>
       <use xlink:href="#DejaVuSans-32" x="127.246094"/>
       <use xlink:href="#DejaVuSans-30" x="190.869141"/>
      </g>
     </g>
    </g>
    <g id="xtick_16">
     <g id="line2d_16">
      <path d="M 325.049747 512.64 
L 325.049747 69.12 
" clip-path="url(#p25488f5123)" style="fill: none; stroke: #cccccc; stroke-width: 0.8; stroke-linecap: round"/>
     </g>
     <g id="text_16">
      <!-- 1200 -->
      <g style="fill: #262626" transform="translate(318.848597 541.504521)rotate(-45)scale(0.088 -0.088)">
       <use xlink:href="#DejaVuSans-31"/>
       <use xlink:href="#DejaVuSans-32" x="63.623047"/>
       <use xlink:href="#DejaVuSans-30" x="127.246094"/>
       <use xlink:href="#DejaVuSans-30" x="190.869141"/>
      </g>
     </g>
    </g>
    <g id="xtick_17">
     <g id="line2d_17">
      <path d="M 342.076343 512.64 
L 342.076343 69.12 
" clip-path="url(#p25488f5123)" style="fill: none; stroke: #cccccc; stroke-width: 0.8; stroke-linecap: round"/>
     </g>
     <g id="text_17">
      <!-- 1280 -->
      <g style="fill: #262626" transform="translate(335.875194 541.504521)rotate(-45)scale(0.088 -0.088)">
       <use xlink:href="#DejaVuSans-31"/>
       <use xlink:href="#DejaVuSans-32" x="63.623047"/>
       <use xlink:href="#DejaVuSans-38" x="127.246094"/>
       <use xlink:href="#DejaVuSans-30" x="190.869141"/>
      </g>
     </g>
    </g>
    <g id="xtick_18">
     <g id="line2d_18">
      <path d="M 359.10294 512.64 
L 359.10294 69.12 
" clip-path="url(#p25488f5123)" style="fill: none; stroke: #cccccc; stroke-width: 0.8; stroke-linecap: round"/>
     </g>
     <g id="text_18">
      <!-- 1360 -->
      <g style="fill: #262626" transform="translate(352.901791 541.504521)rotate(-45)scale(0.088 -0.088)">
       <use xlink:href="#DejaVuSans-31"/>
       <use xlink:href="#DejaVuSans-33" x="63.623047"/>
       <use xlink:href="#DejaVuSans-36" x="127.246094"/>
       <use xlink:href="#DejaVuSans-30" x="190.869141"/>
      </g>
     </g>
    </g>
    <g id="xtick_19">
     <g id="line2d_19">
      <path d="M 376.129537 512.64 
L 376.129537 69.12 
" clip-path="url(#p25488f5123)" style="fill: none; stroke: #cccccc; stroke-width: 0.8; stroke-linecap: round"/>
     </g>
     <g id="text_19">
      <!-- 1440 -->
      <g style="fill: #262626" transform="translate(369.928387 541.504521)rotate(-45)scale(0.088 -0.088)">
       <use xlink:href="#DejaVuSans-31"/>
       <use xlink:href="#DejaVuSans-34" x="63.623047"/>
       <use xlink:href="#DejaVuSans-34" x="127.246094"/>
       <use xlink:href="#DejaVuSans-30" x="190.869141"/>
      </g>
     </g>
    </g>
    <g id="text_20">
     <!-- Time (Minutes) -->
     <g style="fill: #262626" transform="translate(186.87375 554.093115)scale(0.096 -0.096)">
      <defs>
       <path id="DejaVuSans-54" d="M -19 4666 
L 3928 4666 
L 3928 4134 
L 2272 4134 
L 2272 0 
L 1638 0 
L 1638 4134 
L -19 4134 
L -19 4666 
z
" transform="scale(0.015625)"/>
       <path id="DejaVuSans-69" d="M 603 3500 
L 1178 3500 
L 1178 0 
L 603 0 
L 603 3500 
z
M 603 4863 
L 1178 4863 
L 1178 4134 
L 603 4134 
L 603 4863 
z
" transform="scale(0.015625)"/>
       <path id="DejaVuSans-6d" d="M 3328 2828 
Q 3544 3216 3844 3400 
Q 4144 3584 4550 3584 
Q 5097 3584 5394 3201 
Q 5691 2819 5691 2113 
L 5691 0 
L 5113 0 
L 5113 2094 
Q 5113 2597 4934 2840 
Q 4756 3084 4391 3084 
Q 3944 3084 3684 2787 
Q 3425 2491 3425 1978 
L 3425 0 
L 2847 0 
L 2847 2094 
Q 2847 2600 2669 2842 
Q 2491 3084 2119 3084 
Q 1678 3084 1418 2786 
Q 1159 2488 1159 1978 
L 1159 0 
L 581 0 
L 581 3500 
L 1159 3500 
L 1159 2956 
Q 1356 3278 1631 3431 
Q 1906 3584 2284 3584 
Q 2666 3584 2933 3390 
Q 3200 3197 3328 2828 
z
" transform="scale(0.015625)"/>
       <path id="DejaVuSans-65" d="M 3597 1894 
L 3597 1613 
L 953 1613 
Q 991 1019 1311 708 
Q 1631 397 2203 397 
Q 2534 397 2845 478 
Q 3156 559 3463 722 
L 3463 178 
Q 3153 47 2828 -22 
Q 2503 -91 2169 -91 
Q 1331 -91 842 396 
Q 353 884 353 1716 
Q 353 2575 817 3079 
Q 1281 3584 2069 3584 
Q 2775 3584 3186 3129 
Q 3597 2675 3597 1894 
z
M 3022 2063 
Q 3016 2534 2758 2815 
Q 2500 3097 2075 3097 
Q 1594 3097 1305 2825 
Q 1016 2553 972 2059 
L 3022 2063 
z
" transform="scale(0.015625)"/>
       <path id="DejaVuSans-20" transform="scale(0.015625)"/>
       <path id="DejaVuSans-28" d="M 1984 4856 
Q 1566 4138 1362 3434 
Q 1159 2731 1159 2009 
Q 1159 1288 1364 580 
Q 1569 -128 1984 -844 
L 1484 -844 
Q 1016 -109 783 600 
Q 550 1309 550 2009 
Q 550 2706 781 3412 
Q 1013 4119 1484 4856 
L 1984 4856 
z
" transform="scale(0.015625)"/>
       <path id="DejaVuSans-4d" d="M 628 4666 
L 1569 4666 
L 2759 1491 
L 3956 4666 
L 4897 4666 
L 4897 0 
L 4281 0 
L 4281 4097 
L 3078 897 
L 2444 897 
L 1241 4097 
L 1241 0 
L 628 0 
L 628 4666 
z
" transform="scale(0.015625)"/>
       <path id="DejaVuSans-6e" d="M 3513 2113 
L 3513 0 
L 2938 0 
L 2938 2094 
Q 2938 2591 2744 2837 
Q 2550 3084 2163 3084 
Q 1697 3084 1428 2787 
Q 1159 2491 1159 1978 
L 1159 0 
L 581 0 
L 581 3500 
L 1159 3500 
L 1159 2956 
Q 1366 3272 1645 3428 
Q 1925 3584 2291 3584 
Q 2894 3584 3203 3211 
Q 3513 2838 3513 2113 
z
" transform="scale(0.015625)"/>
       <path id="DejaVuSans-75" d="M 544 1381 
L 544 3500 
L 1119 3500 
L 1119 1403 
Q 1119 906 1312 657 
Q 1506 409 1894 409 
Q 2359 409 2629 706 
Q 2900 1003 2900 1516 
L 2900 3500 
L 3475 3500 
L 3475 0 
L 2900 0 
L 2900 538 
Q 2691 219 2414 64 
Q 2138 -91 1772 -91 
Q 1169 -91 856 284 
Q 544 659 544 1381 
z
M 1991 3584 
L 1991 3584 
z
" transform="scale(0.015625)"/>
       <path id="DejaVuSans-74" d="M 1172 4494 
L 1172 3500 
L 2356 3500 
L 2356 3053 
L 1172 3053 
L 1172 1153 
Q 1172 725 1289 603 
Q 1406 481 1766 481 
L 2356 481 
L 2356 0 
L 1766 0 
Q 1100 0 847 248 
Q 594 497 594 1153 
L 594 3053 
L 172 3053 
L 172 3500 
L 594 3500 
L 594 4494 
L 1172 4494 
z
" transform="scale(0.015625)"/>
       <path id="DejaVuSans-73" d="M 2834 3397 
L 2834 2853 
Q 2591 2978 2328 3040 
Q 2066 3103 1784 3103 
Q 1356 3103 1142 2972 
Q 928 2841 928 2578 
Q 928 2378 1081 2264 
Q 1234 2150 1697 2047 
L 1894 2003 
Q 2506 1872 2764 1633 
Q 3022 1394 3022 966 
Q 3022 478 2636 193 
Q 2250 -91 1575 -91 
Q 1294 -91 989 -36 
Q 684 19 347 128 
L 347 722 
Q 666 556 975 473 
Q 1284 391 1588 391 
Q 1994 391 2212 530 
Q 2431 669 2431 922 
Q 2431 1156 2273 1281 
Q 2116 1406 1581 1522 
L 1381 1569 
Q 847 1681 609 1914 
Q 372 2147 372 2553 
Q 372 3047 722 3315 
Q 1072 3584 1716 3584 
Q 2034 3584 2315 3537 
Q 2597 3491 2834 3397 
z
" transform="scale(0.015625)"/>
       <path id="DejaVuSans-29" d="M 513 4856 
L 1013 4856 
Q 1481 4119 1714 3412 
Q 1947 2706 1947 2009 
Q 1947 1309 1714 600 
Q 1481 -109 1013 -844 
L 513 -844 
Q 928 -128 1133 580 
Q 1338 1288 1338 2009 
Q 1338 2731 1133 3434 
Q 928 4138 513 4856 
z
" transform="scale(0.015625)"/>
      </defs>
      <use xlink:href="#DejaVuSans-54"/>
      <use xlink:href="#DejaVuSans-69" x="57.958984"/>
      <use xlink:href="#DejaVuSans-6d" x="85.742188"/>
      <use xlink:href="#DejaVuSans-65" x="183.154297"/>
      <use xlink:href="#DejaVuSans-20" x="244.677734"/>
      <use xlink:href="#DejaVuSans-28" x="276.464844"/>
      <use xlink:href="#DejaVuSans-4d" x="315.478516"/>
      <use xlink:href="#DejaVuSans-69" x="401.757812"/>
      <use xlink:href="#DejaVuSans-6e" x="429.541016"/>
      <use xlink:href="#DejaVuSans-75" x="492.919922"/>
      <use xlink:href="#DejaVuSans-74" x="556.298828"/>
      <use xlink:href="#DejaVuSans-65" x="595.507812"/>
      <use xlink:href="#DejaVuSans-73" x="657.03125"/>
      <use xlink:href="#DejaVuSans-29" x="709.130859"/>
     </g>
    </g>
   </g>
   <g id="matplotlib.axis_2">
    <g id="ytick_1">
     <g id="line2d_20">
      <path d="M 54.3375 492.48 
L 391.23 492.48 
" clip-path="url(#p25488f5123)" style="fill: none; stroke: #cccccc; stroke-width: 0.8; stroke-linecap: round"/>
     </g>
     <g id="text_21">
      <!-- 0 -->
      <g style="fill: #262626" transform="translate(40.4385 495.823312)scale(0.088 -0.088)">
       <use xlink:href="#DejaVuSans-30"/>
      </g>
     </g>
    </g>
    <g id="ytick_2">
     <g id="line2d_21">
      <path d="M 54.3375 415.971461 
L 391.23 415.971461 
" clip-path="url(#p25488f5123)" style="fill: none; stroke: #cccccc; stroke-width: 0.8; stroke-linecap: round"/>
     </g>
     <g id="text_22">
      <!-- 100 -->
      <g style="fill: #262626" transform="translate(29.2405 419.314774)scale(0.088 -0.088)">
       <use xlink:href="#DejaVuSans-31"/>
       <use xlink:href="#DejaVuSans-30" x="63.623047"/>
       <use xlink:href="#DejaVuSans-30" x="127.246094"/>
      </g>
     </g>
    </g>
    <g id="ytick_3">
     <g id="line2d_22">
      <path d="M 54.3375 339.462922 
L 391.23 339.462922 
" clip-path="url(#p25488f5123)" style="fill: none; stroke: #cccccc; stroke-width: 0.8; stroke-linecap: round"/>
     </g>
     <g id="text_23">
      <!-- 200 -->
      <g style="fill: #262626" transform="translate(29.2405 342.806235)scale(0.088 -0.088)">
       <use xlink:href="#DejaVuSans-32"/>
       <use xlink:href="#DejaVuSans-30" x="63.623047"/>
       <use xlink:href="#DejaVuSans-30" x="127.246094"/>
      </g>
     </g>
    </g>
    <g id="ytick_4">
     <g id="line2d_23">
      <path d="M 54.3375 262.954383 
L 391.23 262.954383 
" clip-path="url(#p25488f5123)" style="fill: none; stroke: #cccccc; stroke-width: 0.8; stroke-linecap: round"/>
     </g>
     <g id="text_24">
      <!-- 300 -->
      <g style="fill: #262626" transform="translate(29.2405 266.297696)scale(0.088 -0.088)">
       <use xlink:href="#DejaVuSans-33"/>
       <use xlink:href="#DejaVuSans-30" x="63.623047"/>
       <use xlink:href="#DejaVuSans-30" x="127.246094"/>
      </g>
     </g>
    </g>
    <g id="ytick_5">
     <g id="line2d_24">
      <path d="M 54.3375 186.445844 
L 391.23 186.445844 
" clip-path="url(#p25488f5123)" style="fill: none; stroke: #cccccc; stroke-width: 0.8; stroke-linecap: round"/>
     </g>
     <g id="text_25">
      <!-- 400 -->
      <g style="fill: #262626" transform="translate(29.2405 189.789157)scale(0.088 -0.088)">
       <use xlink:href="#DejaVuSans-34"/>
       <use xlink:href="#DejaVuSans-30" x="63.623047"/>
       <use xlink:href="#DejaVuSans-30" x="127.246094"/>
      </g>
     </g>
    </g>
    <g id="ytick_6">
     <g id="line2d_25">
      <path d="M 54.3375 109.937306 
L 391.23 109.937306 
" clip-path="url(#p25488f5123)" style="fill: none; stroke: #cccccc; stroke-width: 0.8; stroke-linecap: round"/>
     </g>
     <g id="text_26">
      <!-- 500 -->
      <g style="fill: #262626" transform="translate(29.2405 113.280618)scale(0.088 -0.088)">
       <use xlink:href="#DejaVuSans-35"/>
       <use xlink:href="#DejaVuSans-30" x="63.623047"/>
       <use xlink:href="#DejaVuSans-30" x="127.246094"/>
      </g>
     </g>
    </g>
    <g id="text_27">
     <!-- Edge Coverages -->
     <g style="fill: #262626" transform="translate(23.244 329.98575)rotate(-90)scale(0.096 -0.096)">
      <defs>
       <path id="DejaVuSans-45" d="M 628 4666 
L 3578 4666 
L 3578 4134 
L 1259 4134 
L 1259 2753 
L 3481 2753 
L 3481 2222 
L 1259 2222 
L 1259 531 
L 3634 531 
L 3634 0 
L 628 0 
L 628 4666 
z
" transform="scale(0.015625)"/>
       <path id="DejaVuSans-64" d="M 2906 2969 
L 2906 4863 
L 3481 4863 
L 3481 0 
L 2906 0 
L 2906 525 
Q 2725 213 2448 61 
Q 2172 -91 1784 -91 
Q 1150 -91 751 415 
Q 353 922 353 1747 
Q 353 2572 751 3078 
Q 1150 3584 1784 3584 
Q 2172 3584 2448 3432 
Q 2725 3281 2906 2969 
z
M 947 1747 
Q 947 1113 1208 752 
Q 1469 391 1925 391 
Q 2381 391 2643 752 
Q 2906 1113 2906 1747 
Q 2906 2381 2643 2742 
Q 2381 3103 1925 3103 
Q 1469 3103 1208 2742 
Q 947 2381 947 1747 
z
" transform="scale(0.015625)"/>
       <path id="DejaVuSans-67" d="M 2906 1791 
Q 2906 2416 2648 2759 
Q 2391 3103 1925 3103 
Q 1463 3103 1205 2759 
Q 947 2416 947 1791 
Q 947 1169 1205 825 
Q 1463 481 1925 481 
Q 2391 481 2648 825 
Q 2906 1169 2906 1791 
z
M 3481 434 
Q 3481 -459 3084 -895 
Q 2688 -1331 1869 -1331 
Q 1566 -1331 1297 -1286 
Q 1028 -1241 775 -1147 
L 775 -588 
Q 1028 -725 1275 -790 
Q 1522 -856 1778 -856 
Q 2344 -856 2625 -561 
Q 2906 -266 2906 331 
L 2906 616 
Q 2728 306 2450 153 
Q 2172 0 1784 0 
Q 1141 0 747 490 
Q 353 981 353 1791 
Q 353 2603 747 3093 
Q 1141 3584 1784 3584 
Q 2172 3584 2450 3431 
Q 2728 3278 2906 2969 
L 2906 3500 
L 3481 3500 
L 3481 434 
z
" transform="scale(0.015625)"/>
       <path id="DejaVuSans-43" d="M 4122 4306 
L 4122 3641 
Q 3803 3938 3442 4084 
Q 3081 4231 2675 4231 
Q 1875 4231 1450 3742 
Q 1025 3253 1025 2328 
Q 1025 1406 1450 917 
Q 1875 428 2675 428 
Q 3081 428 3442 575 
Q 3803 722 4122 1019 
L 4122 359 
Q 3791 134 3420 21 
Q 3050 -91 2638 -91 
Q 1578 -91 968 557 
Q 359 1206 359 2328 
Q 359 3453 968 4101 
Q 1578 4750 2638 4750 
Q 3056 4750 3426 4639 
Q 3797 4528 4122 4306 
z
" transform="scale(0.015625)"/>
       <path id="DejaVuSans-6f" d="M 1959 3097 
Q 1497 3097 1228 2736 
Q 959 2375 959 1747 
Q 959 1119 1226 758 
Q 1494 397 1959 397 
Q 2419 397 2687 759 
Q 2956 1122 2956 1747 
Q 2956 2369 2687 2733 
Q 2419 3097 1959 3097 
z
M 1959 3584 
Q 2709 3584 3137 3096 
Q 3566 2609 3566 1747 
Q 3566 888 3137 398 
Q 2709 -91 1959 -91 
Q 1206 -91 779 398 
Q 353 888 353 1747 
Q 353 2609 779 3096 
Q 1206 3584 1959 3584 
z
" transform="scale(0.015625)"/>
       <path id="DejaVuSans-76" d="M 191 3500 
L 800 3500 
L 1894 563 
L 2988 3500 
L 3597 3500 
L 2284 0 
L 1503 0 
L 191 3500 
z
" transform="scale(0.015625)"/>
       <path id="DejaVuSans-72" d="M 2631 2963 
Q 2534 3019 2420 3045 
Q 2306 3072 2169 3072 
Q 1681 3072 1420 2755 
Q 1159 2438 1159 1844 
L 1159 0 
L 581 0 
L 581 3500 
L 1159 3500 
L 1159 2956 
Q 1341 3275 1631 3429 
Q 1922 3584 2338 3584 
Q 2397 3584 2469 3576 
Q 2541 3569 2628 3553 
L 2631 2963 
z
" transform="scale(0.015625)"/>
       <path id="DejaVuSans-61" d="M 2194 1759 
Q 1497 1759 1228 1600 
Q 959 1441 959 1056 
Q 959 750 1161 570 
Q 1363 391 1709 391 
Q 2188 391 2477 730 
Q 2766 1069 2766 1631 
L 2766 1759 
L 2194 1759 
z
M 3341 1997 
L 3341 0 
L 2766 0 
L 2766 531 
Q 2569 213 2275 61 
Q 1981 -91 1556 -91 
Q 1019 -91 701 211 
Q 384 513 384 1019 
Q 384 1609 779 1909 
Q 1175 2209 1959 2209 
L 2766 2209 
L 2766 2266 
Q 2766 2663 2505 2880 
Q 2244 3097 1772 3097 
Q 1472 3097 1187 3025 
Q 903 2953 641 2809 
L 641 3341 
Q 956 3463 1253 3523 
Q 1550 3584 1831 3584 
Q 2591 3584 2966 3190 
Q 3341 2797 3341 1997 
z
" transform="scale(0.015625)"/>
      </defs>
      <use xlink:href="#DejaVuSans-45"/>
      <use xlink:href="#DejaVuSans-64" x="63.183594"/>
      <use xlink:href="#DejaVuSans-67" x="126.660156"/>
      <use xlink:href="#DejaVuSans-65" x="190.136719"/>
      <use xlink:href="#DejaVuSans-20" x="251.660156"/>
      <use xlink:href="#DejaVuSans-43" x="283.447266"/>
      <use xlink:href="#DejaVuSans-6f" x="353.271484"/>
      <use xlink:href="#DejaVuSans-76" x="414.453125"/>
      <use xlink:href="#DejaVuSans-65" x="473.632812"/>
      <use xlink:href="#DejaVuSans-72" x="535.15625"/>
      <use xlink:href="#DejaVuSans-61" x="576.269531"/>
      <use xlink:href="#DejaVuSans-67" x="637.548828"/>
      <use xlink:href="#DejaVuSans-65" x="701.025391"/>
      <use xlink:href="#DejaVuSans-73" x="762.548828"/>
     </g>
    </g>
   </g>
   <g id="PolyCollection_1">
    <defs>
     <path id="ma0359c6790" d="M 69.650795 -115.653586 
L 69.650795 -83.52 
L 69.650795 -115.653586 
L 69.650795 -115.653586 
z
" style="stroke: #db5f57; stroke-opacity: 0.2; stroke-width: 0.8"/>
    </defs>
    <g clip-path="url(#p25488f5123)">
     <use xlink:href="#ma0359c6790" x="0" y="576" style="fill: #db5f57; fill-opacity: 0.2; stroke: #db5f57; stroke-opacity: 0.2; stroke-width: 0.8"/>
    </g>
   </g>
   <g id="PolyCollection_2">
    <defs>
     <path id="m5d532ce5e5" d="M 69.650795 -105.707476 
L 69.650795 -83.52 
L 69.650795 -105.707476 
L 69.650795 -105.707476 
z
" style="stroke: #b9db57; stroke-opacity: 0.2; stroke-width: 0.8"/>
    </defs>
    <g clip-path="url(#p25488f5123)">
     <use xlink:href="#m5d532ce5e5" x="0" y="576" style="fill: #b9db57; fill-opacity: 0.2; stroke: #b9db57; stroke-opacity: 0.2; stroke-width: 0.8"/>
    </g>
   </g>
   <g id="PolyCollection_3">
    <defs>
     <path id="m0deeb2546e" d="M 69.650795 -102.647135 
L 69.650795 -83.52 
L 69.650795 -102.647135 
L 69.650795 -102.647135 
z
" style="stroke: #57db94; stroke-opacity: 0.2; stroke-width: 0.8"/>
    </defs>
    <g clip-path="url(#p25488f5123)">
     <use xlink:href="#m0deeb2546e" x="0" y="576" style="fill: #57db94; fill-opacity: 0.2; stroke: #57db94; stroke-opacity: 0.2; stroke-width: 0.8"/>
    </g>
   </g>
   <g id="PolyCollection_4">
    <defs>
     <path id="m891a317c6e" d="M 69.650795 -113.35833 
L 69.650795 -83.52 
L 69.650795 -113.35833 
L 69.650795 -113.35833 
z
" style="stroke: #5784db; stroke-opacity: 0.2; stroke-width: 0.8"/>
    </defs>
    <g clip-path="url(#p25488f5123)">
     <use xlink:href="#m891a317c6e" x="0" y="576" style="fill: #5784db; fill-opacity: 0.2; stroke: #5784db; stroke-opacity: 0.2; stroke-width: 0.8"/>
    </g>
   </g>
   <g id="PolyCollection_5">
    <defs>
     <path id="mb49d2c759b" d="M 69.650795 -117.183757 
L 69.650795 -83.52 
L 69.650795 -117.183757 
L 69.650795 -117.183757 
z
" style="stroke: #c957db; stroke-opacity: 0.2; stroke-width: 0.8"/>
    </defs>
    <g clip-path="url(#p25488f5123)">
     <use xlink:href="#mb49d2c759b" x="0" y="576" style="fill: #c957db; fill-opacity: 0.2; stroke: #c957db; stroke-opacity: 0.2; stroke-width: 0.8"/>
    </g>
   </g>
   <g id="line2d_26">
    <path d="M 69.650795 476.413207 
L 69.863628 441.219279 
L 70.502125 409.850778 
L 71.140623 398.374497 
L 71.566288 398.374497 
L 71.77912 396.844326 
L 71.991953 393.783985 
L 72.417617 385.368046 
L 72.63045 381.542619 
L 72.843282 380.777533 
L 73.907445 373.891765 
L 74.120277 373.126679 
L 74.33311 370.831423 
L 74.545942 370.066338 
L 74.971607 367.771082 
L 75.184439 363.945655 
L 75.397272 363.945655 
L 75.610104 362.415484 
L 75.822937 362.415484 
L 76.248602 360.885313 
L 77.099932 360.885313 
L 77.312764 360.120228 
L 77.738429 360.120228 
L 77.951261 359.355142 
L 78.376926 356.294801 
L 78.589759 331.046983 
L 78.802591 331.046983 
L 79.015424 330.281898 
L 80.079586 330.281898 
L 80.292418 329.516812 
L 80.718083 329.516812 
L 81.143748 327.986641 
L 82.846408 327.986641 
L 83.05924 327.221556 
L 84.336235 327.221556 
L 84.7619 325.691385 
L 85.400397 325.691385 
L 85.61323 324.9263 
L 86.038895 324.9263 
L 86.251727 324.161214 
L 86.890225 324.161214 
L 87.103057 323.396129 
L 87.528722 323.396129 
L 87.954387 321.865958 
L 88.167219 320.335787 
L 89.231382 320.335787 
L 89.444214 319.570702 
L 91.572539 319.570702 
L 91.785371 314.215104 
L 91.998204 270.605237 
L 97.106183 270.605237 
L 97.531848 269.075066 
L 98.383177 269.075066 
L 98.59601 268.309981 
L 99.021675 268.309981 
L 99.234507 267.544896 
L 99.44734 267.544896 
L 99.660172 266.77981 
L 102.426994 266.77981 
L 102.639827 259.128956 
L 105.832314 259.128956 
L 106.045146 258.363871 
L 107.322141 258.363871 
L 107.534973 257.598786 
L 115.622607 257.598786 
L 115.835439 237.706565 
L 116.048272 230.055712 
L 116.473937 230.055712 
L 116.686769 229.290626 
L 116.899601 226.99537 
L 117.112434 226.99537 
L 117.325266 226.230285 
L 117.538099 226.230285 
L 117.750931 225.465199 
L 118.389429 225.465199 
L 118.602261 222.404858 
L 120.092088 222.404858 
L 120.304921 221.639772 
L 122.00758 221.639772 
L 122.220413 213.988918 
L 122.433245 213.988918 
L 122.646078 213.223833 
L 124.348738 213.223833 
L 124.56157 212.458748 
L 124.774402 203.277723 
L 126.689895 203.277723 
L 126.902727 202.512638 
L 132.436371 202.512638 
L 132.649203 191.801442 
L 134.564696 191.801442 
L 134.777528 191.036357 
L 140.736837 191.036357 
L 140.949669 190.271271 
L 145.631983 190.271271 
L 145.844816 182.620417 
L 146.057648 182.620417 
L 146.270481 180.325161 
L 146.483313 179.560076 
L 147.760308 179.560076 
L 147.973141 175.734649 
L 148.611638 175.734649 
L 148.82447 174.969564 
L 149.037303 174.969564 
L 149.250135 174.204478 
L 151.804125 174.204478 
L 152.016957 173.439393 
L 153.506784 173.439393 
L 153.719617 168.84888 
L 153.932449 168.84888 
L 154.145282 168.083795 
L 159.466093 168.083795 
L 159.678926 166.553624 
L 159.891758 161.963112 
L 160.743088 161.963112 
L 160.955921 161.198027 
L 166.0639 161.198027 
L 166.276732 160.432941 
L 166.489564 160.432941 
L 166.702397 159.667856 
L 167.340894 159.667856 
L 167.553727 153.547173 
L 169.682051 153.547173 
L 169.894884 152.782087 
L 170.320549 152.782087 
L 170.533381 151.251917 
L 178.408182 151.251917 
L 178.621015 148.95666 
L 183.941826 148.95666 
L 184.154659 148.191575 
L 187.134313 148.191575 
L 187.347146 147.42649 
L 195.221947 147.42649 
L 195.434779 146.661404 
L 195.647611 145.131233 
L 196.073276 145.131233 
L 196.286109 144.366148 
L 196.711774 144.366148 
L 196.924606 143.601063 
L 204.373742 143.601063 
L 204.586575 139.01055 
L 204.799407 138.245465 
L 206.289234 138.245465 
L 206.502067 137.48038 
L 206.927732 137.48038 
L 207.140564 136.715294 
L 207.991894 136.715294 
L 208.204727 135.950209 
L 208.417559 133.654953 
L 208.630391 132.889867 
L 211.610046 132.889867 
L 211.822878 132.124782 
L 213.312706 132.124782 
L 213.525538 131.359696 
L 217.782187 131.359696 
L 217.99502 130.594611 
L 218.207852 130.594611 
L 218.420685 129.829526 
L 221.400339 129.829526 
L 221.826004 127.534269 
L 223.102999 127.534269 
L 223.315831 126.769184 
L 250.771218 126.769184 
L 250.984051 123.708843 
L 262.477004 123.708843 
L 262.689836 122.943757 
L 265.243826 122.943757 
L 265.456658 122.178672 
L 274.182789 122.178672 
L 274.395621 121.413586 
L 274.608454 121.413586 
L 274.821286 119.11833 
L 277.588108 119.11833 
L 277.800941 118.353245 
L 285.675742 118.353245 
L 285.888574 113.762732 
L 286.101407 112.997647 
L 286.527072 103.051537 
L 286.739904 102.286452 
L 291.422218 102.286452 
L 291.635051 101.521366 
L 293.550543 101.521366 
L 293.763375 100.756281 
L 296.74303 100.756281 
L 296.955862 99.991195 
L 300.148349 99.991195 
L 300.361181 99.22611 
L 306.958988 99.22611 
L 307.17182 98.461025 
L 313.343961 98.461025 
L 313.556794 97.695939 
L 313.769626 97.695939 
L 313.982459 96.930854 
L 315.259454 96.930854 
L 315.472286 96.165769 
L 330.370558 96.165769 
L 330.583391 95.400683 
L 363.998087 95.400683 
L 364.423752 93.870512 
L 375.916705 93.870512 
L 375.916705 93.870512 
" clip-path="url(#p25488f5123)" style="fill: none; stroke: #db5f57; stroke-width: 1.2; stroke-linecap: round"/>
   </g>
   <g id="line2d_27">
    <path d="M 69.650795 481.386262 
L 69.863628 470.292524 
L 70.07646 468.762353 
L 70.289293 468.762353 
L 70.502125 467.997268 
L 70.92779 467.997268 
L 71.353455 399.139583 
L 71.566288 399.139583 
L 71.77912 398.374497 
L 72.417617 398.374497 
L 72.63045 373.126679 
L 72.843282 370.066338 
L 73.056115 369.301252 
L 73.694612 369.301252 
L 73.907445 367.771082 
L 74.33311 367.771082 
L 74.545942 363.945655 
L 74.758774 355.529715 
L 74.971607 354.76463 
L 76.674267 354.76463 
L 77.099932 352.469374 
L 78.802591 352.469374 
L 79.015424 341.758178 
L 79.441089 341.758178 
L 79.653921 338.697837 
L 79.866754 338.697837 
L 80.079586 337.167666 
L 80.292418 337.167666 
L 80.505251 335.637495 
L 80.718083 335.637495 
L 80.930916 334.87241 
L 81.569413 334.87241 
L 81.782246 331.046983 
L 81.995078 331.046983 
L 82.207911 330.281898 
L 82.633575 330.281898 
L 82.846408 329.516812 
L 83.05924 329.516812 
L 83.272073 325.691385 
L 83.484905 324.9263 
L 83.91057 315.745275 
L 84.123403 315.745275 
L 84.336235 314.98019 
L 84.549068 314.98019 
L 85.400397 308.859507 
L 86.677392 308.859507 
L 86.890225 304.268994 
L 89.231382 304.268994 
L 89.444214 303.503909 
L 89.869879 303.503909 
L 90.082712 298.148311 
L 91.359706 298.148311 
L 91.785371 288.967287 
L 91.998204 288.967287 
L 92.211036 287.437116 
L 95.190691 287.437116 
L 95.403523 286.67203 
L 96.89335 286.67203 
L 97.106183 284.376774 
L 97.74468 284.376774 
L 97.957513 282.846603 
L 101.362832 282.846603 
L 101.575664 282.081518 
L 101.788497 282.081518 
L 102.001329 276.72592 
L 102.214162 276.72592 
L 102.426994 275.19575 
L 102.639827 275.19575 
L 102.852659 270.605237 
L 107.534973 270.605237 
L 107.747806 269.840152 
L 120.943418 269.840152 
L 121.156251 266.014725 
L 121.581916 264.484554 
L 121.794748 264.484554 
L 122.00758 237.706565 
L 122.220413 233.881139 
L 135.84169 233.881139 
L 136.054523 208.633321 
L 136.267355 207.868235 
L 140.311172 207.868235 
L 140.524004 204.042808 
L 154.783779 204.042808 
L 154.996612 185.680759 
L 159.040428 185.680759 
L 159.253261 181.855332 
L 165.21257 181.855332 
L 165.425402 176.499734 
L 174.151533 176.499734 
L 174.364365 171.144137 
L 177.556852 171.144137 
L 177.769685 169.613966 
L 190.965297 169.613966 
L 191.17813 166.553624 
L 198.201601 166.553624 
L 198.414433 164.258368 
L 202.671083 164.258368 
L 202.883915 161.963112 
L 203.30958 161.963112 
L 203.522412 161.198027 
L 204.16091 161.198027 
L 204.373742 159.667856 
L 207.140564 159.667856 
L 207.353397 157.3726 
L 211.610046 157.3726 
L 212.035711 155.842429 
L 227.998145 155.842429 
L 228.210978 152.782087 
L 248.642894 152.782087 
L 248.855726 148.95666 
L 260.135847 148.95666 
L 260.348679 148.191575 
L 263.753998 148.191575 
L 263.966831 147.42649 
L 285.462909 147.42649 
L 285.675742 139.775636 
L 286.527072 139.775636 
L 286.739904 133.654953 
L 294.401873 133.654953 
L 294.614705 132.889867 
L 299.084187 132.889867 
L 299.297019 132.124782 
L 316.323616 132.124782 
L 316.536448 130.594611 
L 333.775878 130.594611 
L 333.98871 129.829526 
L 352.717966 129.829526 
L 352.930799 129.06444 
L 370.383061 129.06444 
L 370.595893 128.299355 
L 375.916705 128.299355 
L 375.916705 128.299355 
" clip-path="url(#p25488f5123)" style="fill: none; stroke: #b9db57; stroke-width: 1.2; stroke-linecap: round"/>
   </g>
   <g id="line2d_28">
    <path d="M 69.650795 482.916433 
L 69.863628 472.58778 
L 70.07646 471.822694 
L 71.140623 471.822694 
L 71.353455 412.146034 
L 71.566288 392.253814 
L 71.991953 385.368046 
L 72.417617 385.368046 
L 72.63045 382.307704 
L 73.056115 382.307704 
L 73.268947 381.542619 
L 73.694612 381.542619 
L 74.33311 373.891765 
L 74.971607 373.891765 
L 75.184439 373.126679 
L 75.397272 373.126679 
L 75.610104 370.831423 
L 76.035769 370.831423 
L 76.248602 370.066338 
L 76.887099 370.066338 
L 77.099932 369.301252 
L 77.525596 369.301252 
L 77.738429 366.240911 
L 77.951261 365.475825 
L 78.802591 365.475825 
L 79.015424 364.71074 
L 79.866754 364.71074 
L 80.079586 363.945655 
L 82.846408 363.945655 
L 83.05924 363.180569 
L 85.187565 363.180569 
L 85.400397 362.415484 
L 85.826062 303.503909 
L 87.954387 303.503909 
L 88.167219 302.738824 
L 98.59601 302.738824 
L 98.808842 301.973738 
L 99.021675 295.08797 
L 99.234507 278.256091 
L 99.44734 278.256091 
L 99.660172 277.491006 
L 107.109308 277.491006 
L 107.322141 276.72592 
L 113.707115 276.72592 
L 113.919947 275.960835 
L 120.943418 275.960835 
L 121.369083 235.411309 
L 134.99036 235.411309 
L 135.203193 204.807894 
L 140.524004 204.807894 
L 140.736837 200.982467 
L 162.445748 200.982467 
L 162.65858 175.734649 
L 165.21257 175.734649 
L 165.425402 172.674307 
L 180.536507 172.674307 
L 180.749339 166.553624 
L 186.921481 166.553624 
L 187.134313 165.788539 
L 206.289234 165.788539 
L 206.502067 155.842429 
L 207.353397 155.842429 
L 207.566229 155.077343 
L 208.204727 155.077343 
L 208.417559 153.547173 
L 223.528664 153.547173 
L 223.741496 148.191575 
L 248.217229 148.191575 
L 248.430061 144.366148 
L 259.284517 144.366148 
L 259.497349 143.601063 
L 262.689836 143.601063 
L 262.902669 142.835977 
L 280.35493 142.835977 
L 280.567763 135.185123 
L 342.076343 135.185123 
L 342.289176 134.420038 
L 375.916705 134.420038 
L 375.916705 134.420038 
" clip-path="url(#p25488f5123)" style="fill: none; stroke: #57db94; stroke-width: 1.2; stroke-linecap: round"/>
   </g>
   <g id="line2d_29">
    <path d="M 69.650795 477.560835 
L 69.863628 445.044706 
L 70.502125 410.615863 
L 70.92779 410.615863 
L 71.140623 406.025351 
L 71.353455 396.079241 
L 71.566288 395.314156 
L 72.417617 381.542619 
L 72.63045 370.831423 
L 72.843282 370.831423 
L 73.268947 367.771082 
L 73.48178 367.771082 
L 73.694612 367.005996 
L 73.907445 360.885313 
L 74.120277 360.120228 
L 74.33311 360.120228 
L 74.545942 353.234459 
L 75.184439 350.939203 
L 75.610104 350.939203 
L 75.822937 348.643947 
L 76.035769 347.878861 
L 76.461434 347.878861 
L 76.674267 347.113776 
L 76.887099 344.81852 
L 77.099932 340.993093 
L 77.738429 340.993093 
L 77.951261 340.228008 
L 78.589759 340.228008 
L 78.802591 339.462922 
L 79.441089 339.462922 
L 79.653921 337.167666 
L 79.866754 336.402581 
L 80.079586 334.87241 
L 80.930916 334.87241 
L 81.143748 332.577154 
L 81.356581 332.577154 
L 81.569413 331.812068 
L 81.782246 328.751727 
L 81.995078 327.986641 
L 82.846408 327.986641 
L 83.05924 324.9263 
L 83.272073 324.161214 
L 83.484905 324.161214 
L 83.697738 321.865958 
L 83.91057 321.100873 
L 84.123403 312.684934 
L 84.336235 312.684934 
L 84.974733 310.389677 
L 85.187565 306.56425 
L 85.400397 305.03408 
L 85.826062 305.03408 
L 86.038895 304.268994 
L 86.46456 301.973738 
L 86.890225 301.973738 
L 87.103057 301.208653 
L 87.954387 301.208653 
L 88.167219 298.913397 
L 88.380052 298.913397 
L 88.592884 298.148311 
L 89.231382 298.148311 
L 89.444214 297.383226 
L 89.657047 297.383226 
L 89.869879 296.61814 
L 90.082712 295.08797 
L 90.934041 295.08797 
L 91.146874 291.262543 
L 91.572539 291.262543 
L 91.785371 290.497457 
L 92.423869 290.497457 
L 92.636701 284.376774 
L 92.849534 283.611689 
L 94.977858 283.611689 
L 95.190691 282.846603 
L 96.467685 282.846603 
L 96.680518 282.081518 
L 97.531848 282.081518 
L 97.74468 281.316433 
L 98.59601 281.316433 
L 98.808842 279.786262 
L 99.234507 279.786262 
L 99.44734 279.021176 
L 99.873005 279.021176 
L 100.29867 277.491006 
L 101.362832 277.491006 
L 101.575664 276.72592 
L 102.001329 276.72592 
L 102.214162 275.960835 
L 102.426994 275.960835 
L 102.639827 272.135408 
L 102.852659 270.605237 
L 105.193816 270.605237 
L 105.406649 269.075066 
L 105.832314 259.128956 
L 106.257978 257.598786 
L 106.470811 255.303529 
L 107.109308 253.008273 
L 107.747806 253.008273 
L 107.960638 252.243188 
L 108.811968 252.243188 
L 109.0248 251.478102 
L 109.87613 251.478102 
L 110.088963 248.417761 
L 110.301795 247.652676 
L 110.940293 247.652676 
L 111.153125 246.88759 
L 114.345612 246.88759 
L 114.558444 244.592334 
L 114.771277 243.827249 
L 116.048272 243.827249 
L 116.261104 242.297078 
L 116.473937 242.297078 
L 116.686769 241.531992 
L 117.750931 241.531992 
L 117.963764 240.766907 
L 118.602261 240.766907 
L 118.815094 239.236736 
L 120.304921 239.236736 
L 120.517753 238.471651 
L 121.369083 238.471651 
L 121.581916 236.176395 
L 122.00758 236.176395 
L 122.220413 235.411309 
L 122.85891 235.411309 
L 123.071743 234.646224 
L 123.284575 230.055712 
L 124.348738 222.404858 
L 124.56157 222.404858 
L 125.200067 218.579431 
L 126.689895 218.579431 
L 126.902727 217.814345 
L 127.328392 217.814345 
L 127.541224 216.284175 
L 128.392554 216.284175 
L 128.605387 215.519089 
L 130.095214 215.519089 
L 130.308046 214.754004 
L 131.585041 214.754004 
L 131.797874 208.633321 
L 137.757182 208.633321 
L 137.970015 207.868235 
L 138.182847 207.868235 
L 138.39568 206.338065 
L 140.311172 206.338065 
L 140.736837 204.042808 
L 141.162502 202.512638 
L 141.375334 202.512638 
L 141.588167 201.747552 
L 143.503659 201.747552 
L 143.716491 200.982467 
L 146.696146 200.982467 
L 146.908978 200.217381 
L 147.121811 197.15704 
L 147.334643 196.391954 
L 147.547476 196.391954 
L 147.973141 194.096698 
L 148.185973 193.331613 
L 148.82447 193.331613 
L 149.250135 191.036357 
L 150.314298 191.036357 
L 150.52713 190.271271 
L 151.37846 190.271271 
L 151.591292 189.506186 
L 153.08112 189.506186 
L 153.506784 187.976015 
L 155.209444 187.976015 
L 155.422277 187.21093 
L 156.060774 187.21093 
L 156.273606 186.445844 
L 157.124936 186.445844 
L 157.337769 185.680759 
L 157.550601 183.385503 
L 160.317423 183.385503 
L 160.530256 182.620417 
L 161.168753 182.620417 
L 161.381585 181.855332 
L 162.020083 181.855332 
L 162.232915 181.090247 
L 162.445748 181.090247 
L 163.084245 178.794991 
L 164.148407 178.794991 
L 164.36124 178.029905 
L 166.915229 178.029905 
L 167.128062 176.499734 
L 168.617889 176.499734 
L 168.830722 175.734649 
L 170.107716 175.734649 
L 170.320549 174.969564 
L 171.810376 174.969564 
L 172.023208 174.204478 
L 173.725868 174.204478 
L 173.938701 173.439393 
L 174.151533 173.439393 
L 174.364365 172.674307 
L 177.131187 172.674307 
L 177.34402 171.909222 
L 184.154659 171.909222 
L 184.367491 170.379051 
L 187.77281 170.379051 
L 187.985643 169.613966 
L 189.47547 169.613966 
L 189.688303 168.84888 
L 189.901135 168.84888 
L 190.113967 168.083795 
L 195.647611 168.083795 
L 195.860444 167.31871 
L 197.563104 167.31871 
L 197.775936 166.553624 
L 199.691428 166.553624 
L 199.904261 165.023454 
L 202.671083 165.023454 
L 202.883915 164.258368 
L 203.522412 164.258368 
L 203.735245 163.493283 
L 203.948077 161.963112 
L 205.863569 161.963112 
L 206.076402 160.432941 
L 207.140564 160.432941 
L 207.353397 159.667856 
L 208.417559 159.667856 
L 208.630391 157.3726 
L 211.610046 157.3726 
L 211.822878 156.607514 
L 215.44103 156.607514 
L 215.653863 155.842429 
L 220.974674 155.842429 
L 221.400339 154.312258 
L 222.038836 154.312258 
L 222.251669 153.547173 
L 241.40659 153.547173 
L 241.619423 152.782087 
L 242.470752 152.782087 
L 242.683585 152.017002 
L 245.876072 152.017002 
L 246.088904 151.251917 
L 246.514569 151.251917 
L 246.727402 150.486831 
L 248.004396 150.486831 
L 248.217229 149.721746 
L 253.963705 149.721746 
L 254.176538 148.95666 
L 258.646019 148.95666 
L 258.858852 148.191575 
L 262.689836 148.191575 
L 262.902669 147.42649 
L 275.034119 147.42649 
L 275.246951 145.131233 
L 277.800941 145.131233 
L 278.652271 139.775636 
L 286.101407 139.775636 
L 286.314239 137.48038 
L 286.527072 137.48038 
L 286.739904 135.185123 
L 287.591234 135.185123 
L 287.804066 134.420038 
L 299.297019 134.420038 
L 299.509852 133.654953 
L 312.279799 133.654953 
L 312.492632 132.889867 
L 315.472286 132.889867 
L 315.685119 132.124782 
L 330.583391 132.124782 
L 330.796223 131.359696 
L 352.717966 131.359696 
L 352.930799 130.594611 
L 375.916705 130.594611 
L 375.916705 130.594611 
" clip-path="url(#p25488f5123)" style="fill: none; stroke: #5784db; stroke-width: 1.2; stroke-linecap: round"/>
   </g>
   <g id="line2d_30">
    <path d="M 69.650795 475.648121 
L 69.863628 435.863681 
L 70.07646 426.682657 
L 70.502125 401.434839 
L 70.714958 399.904668 
L 72.204785 368.536167 
L 72.417617 366.240911 
L 72.843282 358.590057 
L 73.056115 357.824972 
L 73.268947 355.529715 
L 73.48178 354.76463 
L 74.120277 350.174118 
L 74.33311 350.174118 
L 74.545942 343.288349 
L 75.397272 337.932751 
L 75.610104 337.167666 
L 76.035769 334.87241 
L 76.674267 334.87241 
L 76.887099 332.577154 
L 77.099932 331.812068 
L 77.738429 331.812068 
L 78.164094 330.281898 
L 78.589759 330.281898 
L 79.015424 328.751727 
L 79.441089 328.751727 
L 79.653921 325.691385 
L 80.505251 322.631044 
L 80.718083 322.631044 
L 80.930916 321.865958 
L 81.143748 318.805617 
L 81.356581 318.805617 
L 81.569413 318.040531 
L 81.782246 318.040531 
L 81.995078 317.275446 
L 82.633575 317.275446 
L 82.846408 316.510361 
L 83.05924 313.450019 
L 83.484905 311.919848 
L 83.697738 303.503909 
L 84.123403 301.973738 
L 84.336235 301.973738 
L 85.61323 292.792713 
L 85.826062 292.792713 
L 86.038895 292.027628 
L 86.46456 289.732372 
L 86.890225 289.732372 
L 87.103057 288.967287 
L 87.528722 288.967287 
L 87.954387 287.437116 
L 88.167219 283.611689 
L 89.231382 283.611689 
L 89.444214 282.081518 
L 89.657047 282.081518 
L 90.082712 280.551347 
L 90.934041 280.551347 
L 91.146874 276.72592 
L 91.572539 276.72592 
L 91.785371 270.605237 
L 91.998204 269.840152 
L 92.636701 269.840152 
L 92.849534 269.075066 
L 94.977858 269.075066 
L 95.190691 268.309981 
L 96.467685 268.309981 
L 96.680518 267.544896 
L 97.106183 267.544896 
L 97.74468 265.249639 
L 98.59601 265.249639 
L 98.808842 264.484554 
L 99.021675 264.484554 
L 99.660172 262.189298 
L 101.362832 262.189298 
L 101.575664 261.424213 
L 101.788497 261.424213 
L 102.852659 253.773359 
L 105.193816 253.773359 
L 105.406649 252.243188 
L 105.832314 242.297078 
L 106.470811 237.706565 
L 106.683643 237.706565 
L 107.960638 233.116053 
L 108.811968 233.116053 
L 109.0248 232.350968 
L 109.87613 232.350968 
L 110.301795 230.820797 
L 110.940293 230.820797 
L 111.153125 230.055712 
L 114.345612 230.055712 
L 114.558444 227.760455 
L 114.771277 226.99537 
L 116.048272 226.99537 
L 116.261104 225.465199 
L 116.473937 225.465199 
L 117.112434 221.639772 
L 117.538099 221.639772 
L 117.963764 220.109602 
L 120.092088 220.109602 
L 120.304921 219.344516 
L 120.943418 219.344516 
L 121.581916 217.04926 
L 122.00758 217.04926 
L 122.220413 211.693662 
L 122.433245 211.693662 
L 122.646078 210.928577 
L 122.85891 210.928577 
L 123.071743 210.163491 
L 123.284575 210.163491 
L 124.348738 202.512638 
L 124.56157 202.512638 
L 125.200067 198.687211 
L 126.689895 198.687211 
L 126.902727 197.922125 
L 127.328392 197.922125 
L 127.541224 196.391954 
L 128.392554 196.391954 
L 128.605387 195.626869 
L 130.095214 195.626869 
L 130.308046 194.861784 
L 131.585041 194.861784 
L 131.797874 188.741101 
L 134.564696 188.741101 
L 134.777528 187.976015 
L 137.757182 187.976015 
L 137.970015 187.21093 
L 138.182847 187.21093 
L 138.39568 185.680759 
L 140.311172 185.680759 
L 140.949669 181.855332 
L 141.375334 181.855332 
L 141.588167 181.090247 
L 143.503659 181.090247 
L 143.716491 180.325161 
L 145.631983 180.325161 
L 145.844816 179.560076 
L 146.057648 179.560076 
L 146.270481 177.26482 
L 146.483313 176.499734 
L 146.696146 176.499734 
L 146.908978 175.734649 
L 147.121811 175.734649 
L 147.334643 174.969564 
L 147.547476 174.969564 
L 147.973141 172.674307 
L 148.185973 171.909222 
L 148.611638 171.909222 
L 148.82447 171.144137 
L 149.250135 168.083795 
L 151.37846 168.083795 
L 151.591292 167.31871 
L 153.08112 167.31871 
L 153.506784 165.788539 
L 153.932449 165.788539 
L 154.145282 165.023454 
L 155.209444 165.023454 
L 155.422277 164.258368 
L 157.124936 164.258368 
L 157.337769 163.493283 
L 157.550601 161.198027 
L 159.466093 161.198027 
L 159.678926 160.432941 
L 159.891758 158.90277 
L 160.317423 158.90277 
L 160.530256 158.137685 
L 160.743088 158.137685 
L 160.955921 157.3726 
L 162.020083 157.3726 
L 162.232915 156.607514 
L 162.445748 156.607514 
L 163.084245 154.312258 
L 164.148407 154.312258 
L 164.36124 153.547173 
L 165.21257 153.547173 
L 165.425402 152.782087 
L 166.0639 152.782087 
L 166.276732 152.017002 
L 166.489564 152.017002 
L 166.702397 151.251917 
L 167.340894 151.251917 
L 167.553727 150.486831 
L 168.617889 150.486831 
L 168.830722 149.721746 
L 169.682051 149.721746 
L 169.894884 148.95666 
L 170.320549 148.95666 
L 170.533381 148.191575 
L 173.725868 148.191575 
L 173.938701 147.42649 
L 174.151533 147.42649 
L 174.364365 146.661404 
L 177.131187 146.661404 
L 177.34402 145.896319 
L 183.941826 145.896319 
L 184.154659 145.131233 
L 187.134313 145.131233 
L 187.347146 144.366148 
L 187.77281 144.366148 
L 187.985643 143.601063 
L 189.901135 143.601063 
L 190.113967 142.835977 
L 195.221947 142.835977 
L 195.434779 142.070892 
L 196.073276 142.070892 
L 196.286109 141.305806 
L 196.711774 141.305806 
L 196.924606 140.540721 
L 199.691428 140.540721 
L 199.904261 139.01055 
L 202.671083 139.01055 
L 202.883915 138.245465 
L 203.30958 138.245465 
L 203.948077 135.950209 
L 204.586575 135.950209 
L 204.799407 135.185123 
L 206.289234 135.185123 
L 206.502067 134.420038 
L 206.927732 134.420038 
L 207.566229 132.124782 
L 208.204727 132.124782 
L 208.630391 129.829526 
L 211.610046 129.829526 
L 211.822878 129.06444 
L 213.312706 129.06444 
L 213.525538 128.299355 
L 215.44103 128.299355 
L 215.653863 127.534269 
L 217.782187 127.534269 
L 217.99502 126.769184 
L 218.207852 126.769184 
L 218.420685 126.004099 
L 220.974674 126.004099 
L 221.187507 125.239013 
L 221.613171 125.239013 
L 221.826004 124.473928 
L 223.102999 124.473928 
L 223.315831 123.708843 
L 241.40659 123.708843 
L 241.619423 122.943757 
L 242.470752 122.943757 
L 242.683585 122.178672 
L 245.876072 122.178672 
L 246.088904 121.413586 
L 246.514569 121.413586 
L 246.727402 120.648501 
L 248.004396 120.648501 
L 248.217229 119.883416 
L 258.646019 119.883416 
L 258.858852 119.11833 
L 262.477004 119.11833 
L 262.689836 118.353245 
L 274.182789 118.353245 
L 274.395621 117.588159 
L 274.608454 117.588159 
L 274.821286 115.292903 
L 277.588108 115.292903 
L 277.800941 114.527818 
L 278.652271 109.17222 
L 285.888574 109.17222 
L 286.101407 108.407135 
L 286.527072 98.461025 
L 286.739904 97.695939 
L 291.422218 97.695939 
L 291.635051 96.930854 
L 293.550543 96.930854 
L 293.763375 96.165769 
L 296.74303 96.165769 
L 296.955862 95.400683 
L 299.084187 95.400683 
L 299.297019 94.635598 
L 300.148349 94.635598 
L 300.361181 93.870512 
L 312.279799 93.870512 
L 312.492632 93.105427 
L 313.769626 93.105427 
L 313.982459 92.340342 
L 315.259454 92.340342 
L 315.472286 91.575256 
L 330.370558 91.575256 
L 330.583391 90.810171 
L 352.717966 90.810171 
L 352.930799 90.045085 
L 364.210919 90.045085 
L 364.423752 89.28 
L 375.916705 89.28 
L 375.916705 89.28 
" clip-path="url(#p25488f5123)" style="fill: none; stroke: #c957db; stroke-width: 1.2; stroke-linecap: round"/>
   </g>
   <g id="line2d_31"/>
   <g id="line2d_32"/>
   <g id="line2d_33"/>
   <g id="line2d_34"/>
   <g id="line2d_35"/>
   <g id="patch_3">
    <path d="M 54.3375 512.64 
L 54.3375 69.12 
" style="fill: none; stroke: #cccccc; stroke-linejoin: miter; stroke-linecap: square"/>
   </g>
   <g id="patch_4">
    <path d="M 54.3375 512.64 
L 391.23 512.64 
" style="fill: none; stroke: #cccccc; stroke-linejoin: miter; stroke-linecap: square"/>
   </g>
   <g id="text_28">
    <!-- Edge Coverage History -->
    <g style="fill: #262626" transform="translate(115.892262 63.12)scale(0.165888 -0.165888)">
     <defs>
      <path id="DejaVuSans-Bold-45" d="M 588 4666 
L 3834 4666 
L 3834 3756 
L 1791 3756 
L 1791 2888 
L 3713 2888 
L 3713 1978 
L 1791 1978 
L 1791 909 
L 3903 909 
L 3903 0 
L 588 0 
L 588 4666 
z
" transform="scale(0.015625)"/>
      <path id="DejaVuSans-Bold-64" d="M 2919 2988 
L 2919 4863 
L 4044 4863 
L 4044 0 
L 2919 0 
L 2919 506 
Q 2688 197 2409 53 
Q 2131 -91 1766 -91 
Q 1119 -91 703 423 
Q 288 938 288 1747 
Q 288 2556 703 3070 
Q 1119 3584 1766 3584 
Q 2128 3584 2408 3439 
Q 2688 3294 2919 2988 
z
M 2181 722 
Q 2541 722 2730 984 
Q 2919 1247 2919 1747 
Q 2919 2247 2730 2509 
Q 2541 2772 2181 2772 
Q 1825 2772 1636 2509 
Q 1447 2247 1447 1747 
Q 1447 1247 1636 984 
Q 1825 722 2181 722 
z
" transform="scale(0.015625)"/>
      <path id="DejaVuSans-Bold-67" d="M 2919 594 
Q 2688 288 2409 144 
Q 2131 0 1766 0 
Q 1125 0 706 504 
Q 288 1009 288 1791 
Q 288 2575 706 3076 
Q 1125 3578 1766 3578 
Q 2131 3578 2409 3434 
Q 2688 3291 2919 2981 
L 2919 3500 
L 4044 3500 
L 4044 353 
Q 4044 -491 3511 -936 
Q 2978 -1381 1966 -1381 
Q 1638 -1381 1331 -1331 
Q 1025 -1281 716 -1178 
L 716 -306 
Q 1009 -475 1290 -558 
Q 1572 -641 1856 -641 
Q 2406 -641 2662 -400 
Q 2919 -159 2919 353 
L 2919 594 
z
M 2181 2772 
Q 1834 2772 1640 2515 
Q 1447 2259 1447 1791 
Q 1447 1309 1634 1061 
Q 1822 813 2181 813 
Q 2531 813 2725 1069 
Q 2919 1325 2919 1791 
Q 2919 2259 2725 2515 
Q 2531 2772 2181 2772 
z
" transform="scale(0.015625)"/>
      <path id="DejaVuSans-Bold-65" d="M 4031 1759 
L 4031 1441 
L 1416 1441 
Q 1456 1047 1700 850 
Q 1944 653 2381 653 
Q 2734 653 3104 758 
Q 3475 863 3866 1075 
L 3866 213 
Q 3469 63 3072 -14 
Q 2675 -91 2278 -91 
Q 1328 -91 801 392 
Q 275 875 275 1747 
Q 275 2603 792 3093 
Q 1309 3584 2216 3584 
Q 3041 3584 3536 3087 
Q 4031 2591 4031 1759 
z
M 2881 2131 
Q 2881 2450 2695 2645 
Q 2509 2841 2209 2841 
Q 1884 2841 1681 2658 
Q 1478 2475 1428 2131 
L 2881 2131 
z
" transform="scale(0.015625)"/>
      <path id="DejaVuSans-Bold-20" transform="scale(0.015625)"/>
      <path id="DejaVuSans-Bold-43" d="M 4288 256 
Q 3956 84 3597 -3 
Q 3238 -91 2847 -91 
Q 1681 -91 1000 561 
Q 319 1213 319 2328 
Q 319 3447 1000 4098 
Q 1681 4750 2847 4750 
Q 3238 4750 3597 4662 
Q 3956 4575 4288 4403 
L 4288 3438 
Q 3953 3666 3628 3772 
Q 3303 3878 2944 3878 
Q 2300 3878 1931 3465 
Q 1563 3053 1563 2328 
Q 1563 1606 1931 1193 
Q 2300 781 2944 781 
Q 3303 781 3628 887 
Q 3953 994 4288 1222 
L 4288 256 
z
" transform="scale(0.015625)"/>
      <path id="DejaVuSans-Bold-6f" d="M 2203 2784 
Q 1831 2784 1636 2517 
Q 1441 2250 1441 1747 
Q 1441 1244 1636 976 
Q 1831 709 2203 709 
Q 2569 709 2762 976 
Q 2956 1244 2956 1747 
Q 2956 2250 2762 2517 
Q 2569 2784 2203 2784 
z
M 2203 3584 
Q 3106 3584 3614 3096 
Q 4122 2609 4122 1747 
Q 4122 884 3614 396 
Q 3106 -91 2203 -91 
Q 1297 -91 786 396 
Q 275 884 275 1747 
Q 275 2609 786 3096 
Q 1297 3584 2203 3584 
z
" transform="scale(0.015625)"/>
      <path id="DejaVuSans-Bold-76" d="M 97 3500 
L 1216 3500 
L 2088 1081 
L 2956 3500 
L 4078 3500 
L 2700 0 
L 1472 0 
L 97 3500 
z
" transform="scale(0.015625)"/>
      <path id="DejaVuSans-Bold-72" d="M 3138 2547 
Q 2991 2616 2845 2648 
Q 2700 2681 2553 2681 
Q 2122 2681 1889 2404 
Q 1656 2128 1656 1613 
L 1656 0 
L 538 0 
L 538 3500 
L 1656 3500 
L 1656 2925 
Q 1872 3269 2151 3426 
Q 2431 3584 2822 3584 
Q 2878 3584 2943 3579 
Q 3009 3575 3134 3559 
L 3138 2547 
z
" transform="scale(0.015625)"/>
      <path id="DejaVuSans-Bold-61" d="M 2106 1575 
Q 1756 1575 1579 1456 
Q 1403 1338 1403 1106 
Q 1403 894 1545 773 
Q 1688 653 1941 653 
Q 2256 653 2472 879 
Q 2688 1106 2688 1447 
L 2688 1575 
L 2106 1575 
z
M 3816 1997 
L 3816 0 
L 2688 0 
L 2688 519 
Q 2463 200 2181 54 
Q 1900 -91 1497 -91 
Q 953 -91 614 226 
Q 275 544 275 1050 
Q 275 1666 698 1953 
Q 1122 2241 2028 2241 
L 2688 2241 
L 2688 2328 
Q 2688 2594 2478 2717 
Q 2269 2841 1825 2841 
Q 1466 2841 1156 2769 
Q 847 2697 581 2553 
L 581 3406 
Q 941 3494 1303 3539 
Q 1666 3584 2028 3584 
Q 2975 3584 3395 3211 
Q 3816 2838 3816 1997 
z
" transform="scale(0.015625)"/>
      <path id="DejaVuSans-Bold-48" d="M 588 4666 
L 1791 4666 
L 1791 2888 
L 3566 2888 
L 3566 4666 
L 4769 4666 
L 4769 0 
L 3566 0 
L 3566 1978 
L 1791 1978 
L 1791 0 
L 588 0 
L 588 4666 
z
" transform="scale(0.015625)"/>
      <path id="DejaVuSans-Bold-69" d="M 538 3500 
L 1656 3500 
L 1656 0 
L 538 0 
L 538 3500 
z
M 538 4863 
L 1656 4863 
L 1656 3950 
L 538 3950 
L 538 4863 
z
" transform="scale(0.015625)"/>
      <path id="DejaVuSans-Bold-73" d="M 3272 3391 
L 3272 2541 
Q 2913 2691 2578 2766 
Q 2244 2841 1947 2841 
Q 1628 2841 1473 2761 
Q 1319 2681 1319 2516 
Q 1319 2381 1436 2309 
Q 1553 2238 1856 2203 
L 2053 2175 
Q 2913 2066 3209 1816 
Q 3506 1566 3506 1031 
Q 3506 472 3093 190 
Q 2681 -91 1863 -91 
Q 1516 -91 1145 -36 
Q 775 19 384 128 
L 384 978 
Q 719 816 1070 734 
Q 1422 653 1784 653 
Q 2113 653 2278 743 
Q 2444 834 2444 1013 
Q 2444 1163 2330 1236 
Q 2216 1309 1875 1350 
L 1678 1375 
Q 931 1469 631 1722 
Q 331 1975 331 2491 
Q 331 3047 712 3315 
Q 1094 3584 1881 3584 
Q 2191 3584 2531 3537 
Q 2872 3491 3272 3391 
z
" transform="scale(0.015625)"/>
      <path id="DejaVuSans-Bold-74" d="M 1759 4494 
L 1759 3500 
L 2913 3500 
L 2913 2700 
L 1759 2700 
L 1759 1216 
Q 1759 972 1856 886 
Q 1953 800 2241 800 
L 2816 800 
L 2816 0 
L 1856 0 
Q 1194 0 917 276 
Q 641 553 641 1216 
L 641 2700 
L 84 2700 
L 84 3500 
L 641 3500 
L 641 4494 
L 1759 4494 
z
" transform="scale(0.015625)"/>
      <path id="DejaVuSans-Bold-79" d="M 78 3500 
L 1197 3500 
L 2138 1125 
L 2938 3500 
L 4056 3500 
L 2584 -331 
Q 2363 -916 2067 -1148 
Q 1772 -1381 1288 -1381 
L 641 -1381 
L 641 -647 
L 991 -647 
Q 1275 -647 1404 -556 
Q 1534 -466 1606 -231 
L 1638 -134 
L 78 3500 
z
" transform="scale(0.015625)"/>
     </defs>
     <use xlink:href="#DejaVuSans-Bold-45"/>
     <use xlink:href="#DejaVuSans-Bold-64" x="68.310547"/>
     <use xlink:href="#DejaVuSans-Bold-67" x="139.892578"/>
     <use xlink:href="#DejaVuSans-Bold-65" x="211.474609"/>
     <use xlink:href="#DejaVuSans-Bold-20" x="279.296875"/>
     <use xlink:href="#DejaVuSans-Bold-43" x="314.111328"/>
     <use xlink:href="#DejaVuSans-Bold-6f" x="387.5"/>
     <use xlink:href="#DejaVuSans-Bold-76" x="456.201172"/>
     <use xlink:href="#DejaVuSans-Bold-65" x="521.386719"/>
     <use xlink:href="#DejaVuSans-Bold-72" x="589.208984"/>
     <use xlink:href="#DejaVuSans-Bold-61" x="638.525391"/>
     <use xlink:href="#DejaVuSans-Bold-67" x="706.005859"/>
     <use xlink:href="#DejaVuSans-Bold-65" x="777.587891"/>
     <use xlink:href="#DejaVuSans-Bold-20" x="845.410156"/>
     <use xlink:href="#DejaVuSans-Bold-48" x="880.224609"/>
     <use xlink:href="#DejaVuSans-Bold-69" x="963.916016"/>
     <use xlink:href="#DejaVuSans-Bold-73" x="998.193359"/>
     <use xlink:href="#DejaVuSans-Bold-74" x="1057.714844"/>
     <use xlink:href="#DejaVuSans-Bold-6f" x="1105.517578"/>
     <use xlink:href="#DejaVuSans-Bold-72" x="1174.21875"/>
     <use xlink:href="#DejaVuSans-Bold-79" x="1223.535156"/>
    </g>
   </g>
   <g id="legend_1">
    <g id="patch_5">
     <path d="M 267.942 508.24 
L 385.07 508.24 
Q 386.83 508.24 386.83 506.48 
L 386.83 428.8405 
Q 386.83 427.0805 385.07 427.0805 
L 267.942 427.0805 
Q 266.182 427.0805 266.182 428.8405 
L 266.182 506.48 
Q 266.182 508.24 267.942 508.24 
z
" style="fill: #ffffff; opacity: 0.8; stroke: #cccccc; stroke-width: 0.8; stroke-linejoin: miter"/>
    </g>
    <g id="text_29">
     <!-- fuzzer -->
     <g style="fill: #262626" transform="translate(311.809 437.895)scale(0.096 -0.096)">
      <defs>
       <path id="DejaVuSans-66" d="M 2375 4863 
L 2375 4384 
L 1825 4384 
Q 1516 4384 1395 4259 
Q 1275 4134 1275 3809 
L 1275 3500 
L 2222 3500 
L 2222 3053 
L 1275 3053 
L 1275 0 
L 697 0 
L 697 3053 
L 147 3053 
L 147 3500 
L 697 3500 
L 697 3744 
Q 697 4328 969 4595 
Q 1241 4863 1831 4863 
L 2375 4863 
z
" transform="scale(0.015625)"/>
       <path id="DejaVuSans-7a" d="M 353 3500 
L 3084 3500 
L 3084 2975 
L 922 459 
L 3084 459 
L 3084 0 
L 275 0 
L 275 525 
L 2438 3041 
L 353 3041 
L 353 3500 
z
" transform="scale(0.015625)"/>
      </defs>
      <use xlink:href="#DejaVuSans-66"/>
      <use xlink:href="#DejaVuSans-75" x="35.205078"/>
      <use xlink:href="#DejaVuSans-7a" x="98.583984"/>
      <use xlink:href="#DejaVuSans-7a" x="151.074219"/>
      <use xlink:href="#DejaVuSans-65" x="203.564453"/>
      <use xlink:href="#DejaVuSans-72" x="265.087891"/>
     </g>
    </g>
    <g id="line2d_36">
     <path d="M 269.702 447.898125 
L 278.502 447.898125 
L 287.302 447.898125 
" style="fill: none; stroke: #db5f57; stroke-width: 1.2; stroke-linecap: round"/>
    </g>
    <g id="text_30">
     <!-- fairfuzz-0-exid24 -->
     <g style="fill: #262626" transform="translate(294.342 450.978125)scale(0.088 -0.088)">
      <defs>
       <path id="DejaVuSans-2d" d="M 313 2009 
L 1997 2009 
L 1997 1497 
L 313 1497 
L 313 2009 
z
" transform="scale(0.015625)"/>
       <path id="DejaVuSans-78" d="M 3513 3500 
L 2247 1797 
L 3578 0 
L 2900 0 
L 1881 1375 
L 863 0 
L 184 0 
L 1544 1831 
L 300 3500 
L 978 3500 
L 1906 2253 
L 2834 3500 
L 3513 3500 
z
" transform="scale(0.015625)"/>
      </defs>
      <use xlink:href="#DejaVuSans-66"/>
      <use xlink:href="#DejaVuSans-61" x="35.205078"/>
      <use xlink:href="#DejaVuSans-69" x="96.484375"/>
      <use xlink:href="#DejaVuSans-72" x="124.267578"/>
      <use xlink:href="#DejaVuSans-66" x="165.380859"/>
      <use xlink:href="#DejaVuSans-75" x="200.585938"/>
      <use xlink:href="#DejaVuSans-7a" x="263.964844"/>
      <use xlink:href="#DejaVuSans-7a" x="316.455078"/>
      <use xlink:href="#DejaVuSans-2d" x="368.945312"/>
      <use xlink:href="#DejaVuSans-30" x="405.029297"/>
      <use xlink:href="#DejaVuSans-2d" x="468.652344"/>
      <use xlink:href="#DejaVuSans-65" x="504.736328"/>
      <use xlink:href="#DejaVuSans-78" x="564.509766"/>
      <use xlink:href="#DejaVuSans-69" x="623.689453"/>
      <use xlink:href="#DejaVuSans-64" x="651.472656"/>
      <use xlink:href="#DejaVuSans-32" x="714.949219"/>
      <use xlink:href="#DejaVuSans-34" x="778.572266"/>
     </g>
    </g>
    <g id="line2d_37">
     <path d="M 269.702 460.814875 
L 278.502 460.814875 
L 287.302 460.814875 
" style="fill: none; stroke: #b9db57; stroke-width: 1.2; stroke-linecap: round"/>
    </g>
    <g id="text_31">
     <!-- aflplusplus-0-exid24 -->
     <g style="fill: #262626" transform="translate(294.342 463.894875)scale(0.088 -0.088)">
      <defs>
       <path id="DejaVuSans-6c" d="M 603 4863 
L 1178 4863 
L 1178 0 
L 603 0 
L 603 4863 
z
" transform="scale(0.015625)"/>
       <path id="DejaVuSans-70" d="M 1159 525 
L 1159 -1331 
L 581 -1331 
L 581 3500 
L 1159 3500 
L 1159 2969 
Q 1341 3281 1617 3432 
Q 1894 3584 2278 3584 
Q 2916 3584 3314 3078 
Q 3713 2572 3713 1747 
Q 3713 922 3314 415 
Q 2916 -91 2278 -91 
Q 1894 -91 1617 61 
Q 1341 213 1159 525 
z
M 3116 1747 
Q 3116 2381 2855 2742 
Q 2594 3103 2138 3103 
Q 1681 3103 1420 2742 
Q 1159 2381 1159 1747 
Q 1159 1113 1420 752 
Q 1681 391 2138 391 
Q 2594 391 2855 752 
Q 3116 1113 3116 1747 
z
" transform="scale(0.015625)"/>
      </defs>
      <use xlink:href="#DejaVuSans-61"/>
      <use xlink:href="#DejaVuSans-66" x="61.279297"/>
      <use xlink:href="#DejaVuSans-6c" x="96.484375"/>
      <use xlink:href="#DejaVuSans-70" x="124.267578"/>
      <use xlink:href="#DejaVuSans-6c" x="187.744141"/>
      <use xlink:href="#DejaVuSans-75" x="215.527344"/>
      <use xlink:href="#DejaVuSans-73" x="278.90625"/>
      <use xlink:href="#DejaVuSans-70" x="331.005859"/>
      <use xlink:href="#DejaVuSans-6c" x="394.482422"/>
      <use xlink:href="#DejaVuSans-75" x="422.265625"/>
      <use xlink:href="#DejaVuSans-73" x="485.644531"/>
      <use xlink:href="#DejaVuSans-2d" x="537.744141"/>
      <use xlink:href="#DejaVuSans-30" x="573.828125"/>
      <use xlink:href="#DejaVuSans-2d" x="637.451172"/>
      <use xlink:href="#DejaVuSans-65" x="673.535156"/>
      <use xlink:href="#DejaVuSans-78" x="733.308594"/>
      <use xlink:href="#DejaVuSans-69" x="792.488281"/>
      <use xlink:href="#DejaVuSans-64" x="820.271484"/>
      <use xlink:href="#DejaVuSans-32" x="883.748047"/>
      <use xlink:href="#DejaVuSans-34" x="947.371094"/>
     </g>
    </g>
    <g id="line2d_38">
     <path d="M 269.702 473.731625 
L 278.502 473.731625 
L 287.302 473.731625 
" style="fill: none; stroke: #57db94; stroke-width: 1.2; stroke-linecap: round"/>
    </g>
    <g id="text_32">
     <!-- aflfast-0-exid24 -->
     <g style="fill: #262626" transform="translate(294.342 476.811625)scale(0.088 -0.088)">
      <use xlink:href="#DejaVuSans-61"/>
      <use xlink:href="#DejaVuSans-66" x="61.279297"/>
      <use xlink:href="#DejaVuSans-6c" x="96.484375"/>
      <use xlink:href="#DejaVuSans-66" x="124.267578"/>
      <use xlink:href="#DejaVuSans-61" x="159.472656"/>
      <use xlink:href="#DejaVuSans-73" x="220.751953"/>
      <use xlink:href="#DejaVuSans-74" x="272.851562"/>
      <use xlink:href="#DejaVuSans-2d" x="312.060547"/>
      <use xlink:href="#DejaVuSans-30" x="348.144531"/>
      <use xlink:href="#DejaVuSans-2d" x="411.767578"/>
      <use xlink:href="#DejaVuSans-65" x="447.851562"/>
      <use xlink:href="#DejaVuSans-78" x="507.625"/>
      <use xlink:href="#DejaVuSans-69" x="566.804688"/>
      <use xlink:href="#DejaVuSans-64" x="594.587891"/>
      <use xlink:href="#DejaVuSans-32" x="658.064453"/>
      <use xlink:href="#DejaVuSans-34" x="721.6875"/>
     </g>
    </g>
    <g id="line2d_39">
     <path d="M 269.702 486.648375 
L 278.502 486.648375 
L 287.302 486.648375 
" style="fill: none; stroke: #5784db; stroke-width: 1.2; stroke-linecap: round"/>
    </g>
    <g id="text_33">
     <!-- afl-0-exid24 -->
     <g style="fill: #262626" transform="translate(294.342 489.728375)scale(0.088 -0.088)">
      <use xlink:href="#DejaVuSans-61"/>
      <use xlink:href="#DejaVuSans-66" x="61.279297"/>
      <use xlink:href="#DejaVuSans-6c" x="96.484375"/>
      <use xlink:href="#DejaVuSans-2d" x="124.267578"/>
      <use xlink:href="#DejaVuSans-30" x="160.351562"/>
      <use xlink:href="#DejaVuSans-2d" x="223.974609"/>
      <use xlink:href="#DejaVuSans-65" x="260.058594"/>
      <use xlink:href="#DejaVuSans-78" x="319.832031"/>
      <use xlink:href="#DejaVuSans-69" x="379.011719"/>
      <use xlink:href="#DejaVuSans-64" x="406.794922"/>
      <use xlink:href="#DejaVuSans-32" x="470.271484"/>
      <use xlink:href="#DejaVuSans-34" x="533.894531"/>
     </g>
    </g>
    <g id="line2d_40">
     <path d="M 269.702 499.565125 
L 278.502 499.565125 
L 287.302 499.565125 
" style="fill: none; stroke: #c957db; stroke-width: 1.2; stroke-linecap: round"/>
    </g>
    <g id="text_34">
     <!-- fuzzer_global -->
     <g style="fill: #262626" transform="translate(294.342 502.645125)scale(0.088 -0.088)">
      <defs>
       <path id="DejaVuSans-5f" d="M 3263 -1063 
L 3263 -1509 
L -63 -1509 
L -63 -1063 
L 3263 -1063 
z
" transform="scale(0.015625)"/>
       <path id="DejaVuSans-62" d="M 3116 1747 
Q 3116 2381 2855 2742 
Q 2594 3103 2138 3103 
Q 1681 3103 1420 2742 
Q 1159 2381 1159 1747 
Q 1159 1113 1420 752 
Q 1681 391 2138 391 
Q 2594 391 2855 752 
Q 3116 1113 3116 1747 
z
M 1159 2969 
Q 1341 3281 1617 3432 
Q 1894 3584 2278 3584 
Q 2916 3584 3314 3078 
Q 3713 2572 3713 1747 
Q 3713 922 3314 415 
Q 2916 -91 2278 -91 
Q 1894 -91 1617 61 
Q 1341 213 1159 525 
L 1159 0 
L 581 0 
L 581 4863 
L 1159 4863 
L 1159 2969 
z
" transform="scale(0.015625)"/>
      </defs>
      <use xlink:href="#DejaVuSans-66"/>
      <use xlink:href="#DejaVuSans-75" x="35.205078"/>
      <use xlink:href="#DejaVuSans-7a" x="98.583984"/>
      <use xlink:href="#DejaVuSans-7a" x="151.074219"/>
      <use xlink:href="#DejaVuSans-65" x="203.564453"/>
      <use xlink:href="#DejaVuSans-72" x="265.087891"/>
      <use xlink:href="#DejaVuSans-5f" x="306.201172"/>
      <use xlink:href="#DejaVuSans-67" x="356.201172"/>
      <use xlink:href="#DejaVuSans-6c" x="419.677734"/>
      <use xlink:href="#DejaVuSans-6f" x="447.460938"/>
      <use xlink:href="#DejaVuSans-62" x="508.642578"/>
      <use xlink:href="#DejaVuSans-61" x="572.119141"/>
      <use xlink:href="#DejaVuSans-6c" x="633.398438"/>
     </g>
    </g>
   </g>
  </g>
 </g>
 <defs>
  <clipPath id="p25488f5123">
   <rect x="54.3375" y="69.12" width="336.8925" height="443.52"/>
  </clipPath>
 </defs>
</svg>
