<?xml version="1.0" encoding="utf-8" standalone="no"?>
<!DOCTYPE svg PUBLIC "-//W3C//DTD SVG 1.1//EN"
  "http://www.w3.org/Graphics/SVG/1.1/DTD/svg11.dtd">
<svg xmlns:xlink="http://www.w3.org/1999/xlink" width="434.7pt" height="576pt" viewBox="0 0 434.7 576" xmlns="http://www.w3.org/2000/svg" version="1.1">
 <metadata>
  <rdf:RDF xmlns:dc="http://purl.org/dc/elements/1.1/" xmlns:cc="http://creativecommons.org/ns#" xmlns:rdf="http://www.w3.org/1999/02/22-rdf-syntax-ns#">
   <cc:Work>
    <dc:type rdf:resource="http://purl.org/dc/dcmitype/StillImage"/>
    <dc:date>2022-09-15T10:13:42.388119</dc:date>
    <dc:format>image/svg+xml</dc:format>
    <dc:creator>
     <cc:Agent>
      <dc:title>Matplotlib v3.5.3, https://matplotlib.org/</dc:title>
     </cc:Agent>
    </dc:creator>
   </cc:Work>
  </rdf:RDF>
 </metadata>
 <defs>
  <style type="text/css">*{stroke-linejoin: round; stroke-linecap: butt}</style>
 </defs>
 <g id="figure_1">
  <g id="patch_1">
   <path d="M 0 576 
L 434.7 576 
L 434.7 0 
L 0 0 
z
" style="fill: #ffffff"/>
  </g>
  <g id="axes_1">
   <g id="patch_2">
    <path d="M 54.3375 512.64 
L 391.23 512.64 
L 391.23 69.12 
L 54.3375 69.12 
z
" style="fill: #ffffff"/>
   </g>
   <g id="matplotlib.axis_1">
    <g id="xtick_1">
     <g id="line2d_1">
      <path d="M 69.650795 512.64 
L 69.650795 69.12 
" clip-path="url(#p7e8de02bfa)" style="fill: none; stroke: #cccccc; stroke-width: 0.8; stroke-linecap: round"/>
     </g>
     <g id="text_1">
      <!-- 0 -->
      <g style="fill: #262626" transform="translate(69.388282 529.627249)rotate(-45)scale(0.088 -0.088)">
       <defs>
        <path id="DejaVuSans-30" d="M 2034 4250 
Q 1547 4250 1301 3770 
Q 1056 3291 1056 2328 
Q 1056 1369 1301 889 
Q 1547 409 2034 409 
Q 2525 409 2770 889 
Q 3016 1369 3016 2328 
Q 3016 3291 2770 3770 
Q 2525 4250 2034 4250 
z
M 2034 4750 
Q 2819 4750 3233 4129 
Q 3647 3509 3647 2328 
Q 3647 1150 3233 529 
Q 2819 -91 2034 -91 
Q 1250 -91 836 529 
Q 422 1150 422 2328 
Q 422 3509 836 4129 
Q 1250 4750 2034 4750 
z
" transform="scale(0.015625)"/>
       </defs>
       <use xlink:href="#DejaVuSans-30"/>
      </g>
     </g>
    </g>
    <g id="xtick_2">
     <g id="line2d_2">
      <path d="M 86.677392 512.64 
L 86.677392 69.12 
" clip-path="url(#p7e8de02bfa)" style="fill: none; stroke: #cccccc; stroke-width: 0.8; stroke-linecap: round"/>
     </g>
     <g id="text_2">
      <!-- 80 -->
      <g style="fill: #262626" transform="translate(84.435333 533.58634)rotate(-45)scale(0.088 -0.088)">
       <defs>
        <path id="DejaVuSans-38" d="M 2034 2216 
Q 1584 2216 1326 1975 
Q 1069 1734 1069 1313 
Q 1069 891 1326 650 
Q 1584 409 2034 409 
Q 2484 409 2743 651 
Q 3003 894 3003 1313 
Q 3003 1734 2745 1975 
Q 2488 2216 2034 2216 
z
M 1403 2484 
Q 997 2584 770 2862 
Q 544 3141 544 3541 
Q 544 4100 942 4425 
Q 1341 4750 2034 4750 
Q 2731 4750 3128 4425 
Q 3525 4100 3525 3541 
Q 3525 3141 3298 2862 
Q 3072 2584 2669 2484 
Q 3125 2378 3379 2068 
Q 3634 1759 3634 1313 
Q 3634 634 3220 271 
Q 2806 -91 2034 -91 
Q 1263 -91 848 271 
Q 434 634 434 1313 
Q 434 1759 690 2068 
Q 947 2378 1403 2484 
z
M 1172 3481 
Q 1172 3119 1398 2916 
Q 1625 2713 2034 2713 
Q 2441 2713 2670 2916 
Q 2900 3119 2900 3481 
Q 2900 3844 2670 4047 
Q 2441 4250 2034 4250 
Q 1625 4250 1398 4047 
Q 1172 3844 1172 3481 
z
" transform="scale(0.015625)"/>
       </defs>
       <use xlink:href="#DejaVuSans-38"/>
       <use xlink:href="#DejaVuSans-30" x="63.623047"/>
      </g>
     </g>
    </g>
    <g id="xtick_3">
     <g id="line2d_3">
      <path d="M 103.703989 512.64 
L 103.703989 69.12 
" clip-path="url(#p7e8de02bfa)" style="fill: none; stroke: #cccccc; stroke-width: 0.8; stroke-linecap: round"/>
     </g>
     <g id="text_3">
      <!-- 160 -->
      <g style="fill: #262626" transform="translate(99.482385 537.54543)rotate(-45)scale(0.088 -0.088)">
       <defs>
        <path id="DejaVuSans-31" d="M 794 531 
L 1825 531 
L 1825 4091 
L 703 3866 
L 703 4441 
L 1819 4666 
L 2450 4666 
L 2450 531 
L 3481 531 
L 3481 0 
L 794 0 
L 794 531 
z
" transform="scale(0.015625)"/>
        <path id="DejaVuSans-36" d="M 2113 2584 
Q 1688 2584 1439 2293 
Q 1191 2003 1191 1497 
Q 1191 994 1439 701 
Q 1688 409 2113 409 
Q 2538 409 2786 701 
Q 3034 994 3034 1497 
Q 3034 2003 2786 2293 
Q 2538 2584 2113 2584 
z
M 3366 4563 
L 3366 3988 
Q 3128 4100 2886 4159 
Q 2644 4219 2406 4219 
Q 1781 4219 1451 3797 
Q 1122 3375 1075 2522 
Q 1259 2794 1537 2939 
Q 1816 3084 2150 3084 
Q 2853 3084 3261 2657 
Q 3669 2231 3669 1497 
Q 3669 778 3244 343 
Q 2819 -91 2113 -91 
Q 1303 -91 875 529 
Q 447 1150 447 2328 
Q 447 3434 972 4092 
Q 1497 4750 2381 4750 
Q 2619 4750 2861 4703 
Q 3103 4656 3366 4563 
z
" transform="scale(0.015625)"/>
       </defs>
       <use xlink:href="#DejaVuSans-31"/>
       <use xlink:href="#DejaVuSans-36" x="63.623047"/>
       <use xlink:href="#DejaVuSans-30" x="127.246094"/>
      </g>
     </g>
    </g>
    <g id="xtick_4">
     <g id="line2d_4">
      <path d="M 120.730586 512.64 
L 120.730586 69.12 
" clip-path="url(#p7e8de02bfa)" style="fill: none; stroke: #cccccc; stroke-width: 0.8; stroke-linecap: round"/>
     </g>
     <g id="text_4">
      <!-- 240 -->
      <g style="fill: #262626" transform="translate(116.508981 537.54543)rotate(-45)scale(0.088 -0.088)">
       <defs>
        <path id="DejaVuSans-32" d="M 1228 531 
L 3431 531 
L 3431 0 
L 469 0 
L 469 531 
Q 828 903 1448 1529 
Q 2069 2156 2228 2338 
Q 2531 2678 2651 2914 
Q 2772 3150 2772 3378 
Q 2772 3750 2511 3984 
Q 2250 4219 1831 4219 
Q 1534 4219 1204 4116 
Q 875 4013 500 3803 
L 500 4441 
Q 881 4594 1212 4672 
Q 1544 4750 1819 4750 
Q 2544 4750 2975 4387 
Q 3406 4025 3406 3419 
Q 3406 3131 3298 2873 
Q 3191 2616 2906 2266 
Q 2828 2175 2409 1742 
Q 1991 1309 1228 531 
z
" transform="scale(0.015625)"/>
        <path id="DejaVuSans-34" d="M 2419 4116 
L 825 1625 
L 2419 1625 
L 2419 4116 
z
M 2253 4666 
L 3047 4666 
L 3047 1625 
L 3713 1625 
L 3713 1100 
L 3047 1100 
L 3047 0 
L 2419 0 
L 2419 1100 
L 313 1100 
L 313 1709 
L 2253 4666 
z
" transform="scale(0.015625)"/>
       </defs>
       <use xlink:href="#DejaVuSans-32"/>
       <use xlink:href="#DejaVuSans-34" x="63.623047"/>
       <use xlink:href="#DejaVuSans-30" x="127.246094"/>
      </g>
     </g>
    </g>
    <g id="xtick_5">
     <g id="line2d_5">
      <path d="M 137.757182 512.64 
L 137.757182 69.12 
" clip-path="url(#p7e8de02bfa)" style="fill: none; stroke: #cccccc; stroke-width: 0.8; stroke-linecap: round"/>
     </g>
     <g id="text_5">
      <!-- 320 -->
      <g style="fill: #262626" transform="translate(133.535578 537.54543)rotate(-45)scale(0.088 -0.088)">
       <defs>
        <path id="DejaVuSans-33" d="M 2597 2516 
Q 3050 2419 3304 2112 
Q 3559 1806 3559 1356 
Q 3559 666 3084 287 
Q 2609 -91 1734 -91 
Q 1441 -91 1130 -33 
Q 819 25 488 141 
L 488 750 
Q 750 597 1062 519 
Q 1375 441 1716 441 
Q 2309 441 2620 675 
Q 2931 909 2931 1356 
Q 2931 1769 2642 2001 
Q 2353 2234 1838 2234 
L 1294 2234 
L 1294 2753 
L 1863 2753 
Q 2328 2753 2575 2939 
Q 2822 3125 2822 3475 
Q 2822 3834 2567 4026 
Q 2313 4219 1838 4219 
Q 1578 4219 1281 4162 
Q 984 4106 628 3988 
L 628 4550 
Q 988 4650 1302 4700 
Q 1616 4750 1894 4750 
Q 2613 4750 3031 4423 
Q 3450 4097 3450 3541 
Q 3450 3153 3228 2886 
Q 3006 2619 2597 2516 
z
" transform="scale(0.015625)"/>
       </defs>
       <use xlink:href="#DejaVuSans-33"/>
       <use xlink:href="#DejaVuSans-32" x="63.623047"/>
       <use xlink:href="#DejaVuSans-30" x="127.246094"/>
      </g>
     </g>
    </g>
    <g id="xtick_6">
     <g id="line2d_6">
      <path d="M 154.783779 512.64 
L 154.783779 69.12 
" clip-path="url(#p7e8de02bfa)" style="fill: none; stroke: #cccccc; stroke-width: 0.8; stroke-linecap: round"/>
     </g>
     <g id="text_6">
      <!-- 400 -->
      <g style="fill: #262626" transform="translate(150.562175 537.54543)rotate(-45)scale(0.088 -0.088)">
       <use xlink:href="#DejaVuSans-34"/>
       <use xlink:href="#DejaVuSans-30" x="63.623047"/>
       <use xlink:href="#DejaVuSans-30" x="127.246094"/>
      </g>
     </g>
    </g>
    <g id="xtick_7">
     <g id="line2d_7">
      <path d="M 171.810376 512.64 
L 171.810376 69.12 
" clip-path="url(#p7e8de02bfa)" style="fill: none; stroke: #cccccc; stroke-width: 0.8; stroke-linecap: round"/>
     </g>
     <g id="text_7">
      <!-- 480 -->
      <g style="fill: #262626" transform="translate(167.588772 537.54543)rotate(-45)scale(0.088 -0.088)">
       <use xlink:href="#DejaVuSans-34"/>
       <use xlink:href="#DejaVuSans-38" x="63.623047"/>
       <use xlink:href="#DejaVuSans-30" x="127.246094"/>
      </g>
     </g>
    </g>
    <g id="xtick_8">
     <g id="line2d_8">
      <path d="M 188.836973 512.64 
L 188.836973 69.12 
" clip-path="url(#p7e8de02bfa)" style="fill: none; stroke: #cccccc; stroke-width: 0.8; stroke-linecap: round"/>
     </g>
     <g id="text_8">
      <!-- 560 -->
      <g style="fill: #262626" transform="translate(184.615368 537.54543)rotate(-45)scale(0.088 -0.088)">
       <defs>
        <path id="DejaVuSans-35" d="M 691 4666 
L 3169 4666 
L 3169 4134 
L 1269 4134 
L 1269 2991 
Q 1406 3038 1543 3061 
Q 1681 3084 1819 3084 
Q 2600 3084 3056 2656 
Q 3513 2228 3513 1497 
Q 3513 744 3044 326 
Q 2575 -91 1722 -91 
Q 1428 -91 1123 -41 
Q 819 9 494 109 
L 494 744 
Q 775 591 1075 516 
Q 1375 441 1709 441 
Q 2250 441 2565 725 
Q 2881 1009 2881 1497 
Q 2881 1984 2565 2268 
Q 2250 2553 1709 2553 
Q 1456 2553 1204 2497 
Q 953 2441 691 2322 
L 691 4666 
z
" transform="scale(0.015625)"/>
       </defs>
       <use xlink:href="#DejaVuSans-35"/>
       <use xlink:href="#DejaVuSans-36" x="63.623047"/>
       <use xlink:href="#DejaVuSans-30" x="127.246094"/>
      </g>
     </g>
    </g>
    <g id="xtick_9">
     <g id="line2d_9">
      <path d="M 205.863569 512.64 
L 205.863569 69.12 
" clip-path="url(#p7e8de02bfa)" style="fill: none; stroke: #cccccc; stroke-width: 0.8; stroke-linecap: round"/>
     </g>
     <g id="text_9">
      <!-- 640 -->
      <g style="fill: #262626" transform="translate(201.641965 537.54543)rotate(-45)scale(0.088 -0.088)">
       <use xlink:href="#DejaVuSans-36"/>
       <use xlink:href="#DejaVuSans-34" x="63.623047"/>
       <use xlink:href="#DejaVuSans-30" x="127.246094"/>
      </g>
     </g>
    </g>
    <g id="xtick_10">
     <g id="line2d_10">
      <path d="M 222.890166 512.64 
L 222.890166 69.12 
" clip-path="url(#p7e8de02bfa)" style="fill: none; stroke: #cccccc; stroke-width: 0.8; stroke-linecap: round"/>
     </g>
     <g id="text_10">
      <!-- 720 -->
      <g style="fill: #262626" transform="translate(218.668562 537.54543)rotate(-45)scale(0.088 -0.088)">
       <defs>
        <path id="DejaVuSans-37" d="M 525 4666 
L 3525 4666 
L 3525 4397 
L 1831 0 
L 1172 0 
L 2766 4134 
L 525 4134 
L 525 4666 
z
" transform="scale(0.015625)"/>
       </defs>
       <use xlink:href="#DejaVuSans-37"/>
       <use xlink:href="#DejaVuSans-32" x="63.623047"/>
       <use xlink:href="#DejaVuSans-30" x="127.246094"/>
      </g>
     </g>
    </g>
    <g id="xtick_11">
     <g id="line2d_11">
      <path d="M 239.916763 512.64 
L 239.916763 69.12 
" clip-path="url(#p7e8de02bfa)" style="fill: none; stroke: #cccccc; stroke-width: 0.8; stroke-linecap: round"/>
     </g>
     <g id="text_11">
      <!-- 800 -->
      <g style="fill: #262626" transform="translate(235.695159 537.54543)rotate(-45)scale(0.088 -0.088)">
       <use xlink:href="#DejaVuSans-38"/>
       <use xlink:href="#DejaVuSans-30" x="63.623047"/>
       <use xlink:href="#DejaVuSans-30" x="127.246094"/>
      </g>
     </g>
    </g>
    <g id="xtick_12">
     <g id="line2d_12">
      <path d="M 256.94336 512.64 
L 256.94336 69.12 
" clip-path="url(#p7e8de02bfa)" style="fill: none; stroke: #cccccc; stroke-width: 0.8; stroke-linecap: round"/>
     </g>
     <g id="text_12">
      <!-- 880 -->
      <g style="fill: #262626" transform="translate(252.721755 537.54543)rotate(-45)scale(0.088 -0.088)">
       <use xlink:href="#DejaVuSans-38"/>
       <use xlink:href="#DejaVuSans-38" x="63.623047"/>
       <use xlink:href="#DejaVuSans-30" x="127.246094"/>
      </g>
     </g>
    </g>
    <g id="xtick_13">
     <g id="line2d_13">
      <path d="M 273.969956 512.64 
L 273.969956 69.12 
" clip-path="url(#p7e8de02bfa)" style="fill: none; stroke: #cccccc; stroke-width: 0.8; stroke-linecap: round"/>
     </g>
     <g id="text_13">
      <!-- 960 -->
      <g style="fill: #262626" transform="translate(269.748352 537.54543)rotate(-45)scale(0.088 -0.088)">
       <defs>
        <path id="DejaVuSans-39" d="M 703 97 
L 703 672 
Q 941 559 1184 500 
Q 1428 441 1663 441 
Q 2288 441 2617 861 
Q 2947 1281 2994 2138 
Q 2813 1869 2534 1725 
Q 2256 1581 1919 1581 
Q 1219 1581 811 2004 
Q 403 2428 403 3163 
Q 403 3881 828 4315 
Q 1253 4750 1959 4750 
Q 2769 4750 3195 4129 
Q 3622 3509 3622 2328 
Q 3622 1225 3098 567 
Q 2575 -91 1691 -91 
Q 1453 -91 1209 -44 
Q 966 3 703 97 
z
M 1959 2075 
Q 2384 2075 2632 2365 
Q 2881 2656 2881 3163 
Q 2881 3666 2632 3958 
Q 2384 4250 1959 4250 
Q 1534 4250 1286 3958 
Q 1038 3666 1038 3163 
Q 1038 2656 1286 2365 
Q 1534 2075 1959 2075 
z
" transform="scale(0.015625)"/>
       </defs>
       <use xlink:href="#DejaVuSans-39"/>
       <use xlink:href="#DejaVuSans-36" x="63.623047"/>
       <use xlink:href="#DejaVuSans-30" x="127.246094"/>
      </g>
     </g>
    </g>
    <g id="xtick_14">
     <g id="line2d_14">
      <path d="M 290.996553 512.64 
L 290.996553 69.12 
" clip-path="url(#p7e8de02bfa)" style="fill: none; stroke: #cccccc; stroke-width: 0.8; stroke-linecap: round"/>
     </g>
     <g id="text_14">
      <!-- 1040 -->
      <g style="fill: #262626" transform="translate(284.795404 541.504521)rotate(-45)scale(0.088 -0.088)">
       <use xlink:href="#DejaVuSans-31"/>
       <use xlink:href="#DejaVuSans-30" x="63.623047"/>
       <use xlink:href="#DejaVuSans-34" x="127.246094"/>
       <use xlink:href="#DejaVuSans-30" x="190.869141"/>
      </g>
     </g>
    </g>
    <g id="xtick_15">
     <g id="line2d_15">
      <path d="M 308.02315 512.64 
L 308.02315 69.12 
" clip-path="url(#p7e8de02bfa)" style="fill: none; stroke: #cccccc; stroke-width: 0.8; stroke-linecap: round"/>
     </g>
     <g id="text_15">
      <!-- 1120 -->
      <g style="fill: #262626" transform="translate(301.822 541.504521)rotate(-45)scale(0.088 -0.088)">
       <use xlink:href="#DejaVuSans-31"/>
       <use xlink:href="#DejaVuSans-31" x="63.623047"/>
       <use xlink:href="#DejaVuSans-32" x="127.246094"/>
       <use xlink:href="#DejaVuSans-30" x="190.869141"/>
      </g>
     </g>
    </g>
    <g id="xtick_16">
     <g id="line2d_16">
      <path d="M 325.049747 512.64 
L 325.049747 69.12 
" clip-path="url(#p7e8de02bfa)" style="fill: none; stroke: #cccccc; stroke-width: 0.8; stroke-linecap: round"/>
     </g>
     <g id="text_16">
      <!-- 1200 -->
      <g style="fill: #262626" transform="translate(318.848597 541.504521)rotate(-45)scale(0.088 -0.088)">
       <use xlink:href="#DejaVuSans-31"/>
       <use xlink:href="#DejaVuSans-32" x="63.623047"/>
       <use xlink:href="#DejaVuSans-30" x="127.246094"/>
       <use xlink:href="#DejaVuSans-30" x="190.869141"/>
      </g>
     </g>
    </g>
    <g id="xtick_17">
     <g id="line2d_17">
      <path d="M 342.076343 512.64 
L 342.076343 69.12 
" clip-path="url(#p7e8de02bfa)" style="fill: none; stroke: #cccccc; stroke-width: 0.8; stroke-linecap: round"/>
     </g>
     <g id="text_17">
      <!-- 1280 -->
      <g style="fill: #262626" transform="translate(335.875194 541.504521)rotate(-45)scale(0.088 -0.088)">
       <use xlink:href="#DejaVuSans-31"/>
       <use xlink:href="#DejaVuSans-32" x="63.623047"/>
       <use xlink:href="#DejaVuSans-38" x="127.246094"/>
       <use xlink:href="#DejaVuSans-30" x="190.869141"/>
      </g>
     </g>
    </g>
    <g id="xtick_18">
     <g id="line2d_18">
      <path d="M 359.10294 512.64 
L 359.10294 69.12 
" clip-path="url(#p7e8de02bfa)" style="fill: none; stroke: #cccccc; stroke-width: 0.8; stroke-linecap: round"/>
     </g>
     <g id="text_18">
      <!-- 1360 -->
      <g style="fill: #262626" transform="translate(352.901791 541.504521)rotate(-45)scale(0.088 -0.088)">
       <use xlink:href="#DejaVuSans-31"/>
       <use xlink:href="#DejaVuSans-33" x="63.623047"/>
       <use xlink:href="#DejaVuSans-36" x="127.246094"/>
       <use xlink:href="#DejaVuSans-30" x="190.869141"/>
      </g>
     </g>
    </g>
    <g id="xtick_19">
     <g id="line2d_19">
      <path d="M 376.129537 512.64 
L 376.129537 69.12 
" clip-path="url(#p7e8de02bfa)" style="fill: none; stroke: #cccccc; stroke-width: 0.8; stroke-linecap: round"/>
     </g>
     <g id="text_19">
      <!-- 1440 -->
      <g style="fill: #262626" transform="translate(369.928387 541.504521)rotate(-45)scale(0.088 -0.088)">
       <use xlink:href="#DejaVuSans-31"/>
       <use xlink:href="#DejaVuSans-34" x="63.623047"/>
       <use xlink:href="#DejaVuSans-34" x="127.246094"/>
       <use xlink:href="#DejaVuSans-30" x="190.869141"/>
      </g>
     </g>
    </g>
    <g id="text_20">
     <!-- Time (Minutes) -->
     <g style="fill: #262626" transform="translate(186.87375 554.093115)scale(0.096 -0.096)">
      <defs>
       <path id="DejaVuSans-54" d="M -19 4666 
L 3928 4666 
L 3928 4134 
L 2272 4134 
L 2272 0 
L 1638 0 
L 1638 4134 
L -19 4134 
L -19 4666 
z
" transform="scale(0.015625)"/>
       <path id="DejaVuSans-69" d="M 603 3500 
L 1178 3500 
L 1178 0 
L 603 0 
L 603 3500 
z
M 603 4863 
L 1178 4863 
L 1178 4134 
L 603 4134 
L 603 4863 
z
" transform="scale(0.015625)"/>
       <path id="DejaVuSans-6d" d="M 3328 2828 
Q 3544 3216 3844 3400 
Q 4144 3584 4550 3584 
Q 5097 3584 5394 3201 
Q 5691 2819 5691 2113 
L 5691 0 
L 5113 0 
L 5113 2094 
Q 5113 2597 4934 2840 
Q 4756 3084 4391 3084 
Q 3944 3084 3684 2787 
Q 3425 2491 3425 1978 
L 3425 0 
L 2847 0 
L 2847 2094 
Q 2847 2600 2669 2842 
Q 2491 3084 2119 3084 
Q 1678 3084 1418 2786 
Q 1159 2488 1159 1978 
L 1159 0 
L 581 0 
L 581 3500 
L 1159 3500 
L 1159 2956 
Q 1356 3278 1631 3431 
Q 1906 3584 2284 3584 
Q 2666 3584 2933 3390 
Q 3200 3197 3328 2828 
z
" transform="scale(0.015625)"/>
       <path id="DejaVuSans-65" d="M 3597 1894 
L 3597 1613 
L 953 1613 
Q 991 1019 1311 708 
Q 1631 397 2203 397 
Q 2534 397 2845 478 
Q 3156 559 3463 722 
L 3463 178 
Q 3153 47 2828 -22 
Q 2503 -91 2169 -91 
Q 1331 -91 842 396 
Q 353 884 353 1716 
Q 353 2575 817 3079 
Q 1281 3584 2069 3584 
Q 2775 3584 3186 3129 
Q 3597 2675 3597 1894 
z
M 3022 2063 
Q 3016 2534 2758 2815 
Q 2500 3097 2075 3097 
Q 1594 3097 1305 2825 
Q 1016 2553 972 2059 
L 3022 2063 
z
" transform="scale(0.015625)"/>
       <path id="DejaVuSans-20" transform="scale(0.015625)"/>
       <path id="DejaVuSans-28" d="M 1984 4856 
Q 1566 4138 1362 3434 
Q 1159 2731 1159 2009 
Q 1159 1288 1364 580 
Q 1569 -128 1984 -844 
L 1484 -844 
Q 1016 -109 783 600 
Q 550 1309 550 2009 
Q 550 2706 781 3412 
Q 1013 4119 1484 4856 
L 1984 4856 
z
" transform="scale(0.015625)"/>
       <path id="DejaVuSans-4d" d="M 628 4666 
L 1569 4666 
L 2759 1491 
L 3956 4666 
L 4897 4666 
L 4897 0 
L 4281 0 
L 4281 4097 
L 3078 897 
L 2444 897 
L 1241 4097 
L 1241 0 
L 628 0 
L 628 4666 
z
" transform="scale(0.015625)"/>
       <path id="DejaVuSans-6e" d="M 3513 2113 
L 3513 0 
L 2938 0 
L 2938 2094 
Q 2938 2591 2744 2837 
Q 2550 3084 2163 3084 
Q 1697 3084 1428 2787 
Q 1159 2491 1159 1978 
L 1159 0 
L 581 0 
L 581 3500 
L 1159 3500 
L 1159 2956 
Q 1366 3272 1645 3428 
Q 1925 3584 2291 3584 
Q 2894 3584 3203 3211 
Q 3513 2838 3513 2113 
z
" transform="scale(0.015625)"/>
       <path id="DejaVuSans-75" d="M 544 1381 
L 544 3500 
L 1119 3500 
L 1119 1403 
Q 1119 906 1312 657 
Q 1506 409 1894 409 
Q 2359 409 2629 706 
Q 2900 1003 2900 1516 
L 2900 3500 
L 3475 3500 
L 3475 0 
L 2900 0 
L 2900 538 
Q 2691 219 2414 64 
Q 2138 -91 1772 -91 
Q 1169 -91 856 284 
Q 544 659 544 1381 
z
M 1991 3584 
L 1991 3584 
z
" transform="scale(0.015625)"/>
       <path id="DejaVuSans-74" d="M 1172 4494 
L 1172 3500 
L 2356 3500 
L 2356 3053 
L 1172 3053 
L 1172 1153 
Q 1172 725 1289 603 
Q 1406 481 1766 481 
L 2356 481 
L 2356 0 
L 1766 0 
Q 1100 0 847 248 
Q 594 497 594 1153 
L 594 3053 
L 172 3053 
L 172 3500 
L 594 3500 
L 594 4494 
L 1172 4494 
z
" transform="scale(0.015625)"/>
       <path id="DejaVuSans-73" d="M 2834 3397 
L 2834 2853 
Q 2591 2978 2328 3040 
Q 2066 3103 1784 3103 
Q 1356 3103 1142 2972 
Q 928 2841 928 2578 
Q 928 2378 1081 2264 
Q 1234 2150 1697 2047 
L 1894 2003 
Q 2506 1872 2764 1633 
Q 3022 1394 3022 966 
Q 3022 478 2636 193 
Q 2250 -91 1575 -91 
Q 1294 -91 989 -36 
Q 684 19 347 128 
L 347 722 
Q 666 556 975 473 
Q 1284 391 1588 391 
Q 1994 391 2212 530 
Q 2431 669 2431 922 
Q 2431 1156 2273 1281 
Q 2116 1406 1581 1522 
L 1381 1569 
Q 847 1681 609 1914 
Q 372 2147 372 2553 
Q 372 3047 722 3315 
Q 1072 3584 1716 3584 
Q 2034 3584 2315 3537 
Q 2597 3491 2834 3397 
z
" transform="scale(0.015625)"/>
       <path id="DejaVuSans-29" d="M 513 4856 
L 1013 4856 
Q 1481 4119 1714 3412 
Q 1947 2706 1947 2009 
Q 1947 1309 1714 600 
Q 1481 -109 1013 -844 
L 513 -844 
Q 928 -128 1133 580 
Q 1338 1288 1338 2009 
Q 1338 2731 1133 3434 
Q 928 4138 513 4856 
z
" transform="scale(0.015625)"/>
      </defs>
      <use xlink:href="#DejaVuSans-54"/>
      <use xlink:href="#DejaVuSans-69" x="57.958984"/>
      <use xlink:href="#DejaVuSans-6d" x="85.742188"/>
      <use xlink:href="#DejaVuSans-65" x="183.154297"/>
      <use xlink:href="#DejaVuSans-20" x="244.677734"/>
      <use xlink:href="#DejaVuSans-28" x="276.464844"/>
      <use xlink:href="#DejaVuSans-4d" x="315.478516"/>
      <use xlink:href="#DejaVuSans-69" x="401.757812"/>
      <use xlink:href="#DejaVuSans-6e" x="429.541016"/>
      <use xlink:href="#DejaVuSans-75" x="492.919922"/>
      <use xlink:href="#DejaVuSans-74" x="556.298828"/>
      <use xlink:href="#DejaVuSans-65" x="595.507812"/>
      <use xlink:href="#DejaVuSans-73" x="657.03125"/>
      <use xlink:href="#DejaVuSans-29" x="709.130859"/>
     </g>
    </g>
   </g>
   <g id="matplotlib.axis_2">
    <g id="ytick_1">
     <g id="line2d_20">
      <path d="M 54.3375 492.48 
L 391.23 492.48 
" clip-path="url(#p7e8de02bfa)" style="fill: none; stroke: #cccccc; stroke-width: 0.8; stroke-linecap: round"/>
     </g>
     <g id="text_21">
      <!-- 0 -->
      <g style="fill: #262626" transform="translate(40.4385 495.823312)scale(0.088 -0.088)">
       <use xlink:href="#DejaVuSans-30"/>
      </g>
     </g>
    </g>
    <g id="ytick_2">
     <g id="line2d_21">
      <path d="M 54.3375 474.655066 
L 391.23 474.655066 
" clip-path="url(#p7e8de02bfa)" style="fill: none; stroke: #cccccc; stroke-width: 0.8; stroke-linecap: round"/>
     </g>
     <g id="text_22">
      <!-- 100 -->
      <g style="fill: #262626" transform="translate(29.2405 477.998379)scale(0.088 -0.088)">
       <use xlink:href="#DejaVuSans-31"/>
       <use xlink:href="#DejaVuSans-30" x="63.623047"/>
       <use xlink:href="#DejaVuSans-30" x="127.246094"/>
      </g>
     </g>
    </g>
    <g id="ytick_3">
     <g id="line2d_22">
      <path d="M 54.3375 456.830133 
L 391.23 456.830133 
" clip-path="url(#p7e8de02bfa)" style="fill: none; stroke: #cccccc; stroke-width: 0.8; stroke-linecap: round"/>
     </g>
     <g id="text_23">
      <!-- 200 -->
      <g style="fill: #262626" transform="translate(29.2405 460.173445)scale(0.088 -0.088)">
       <use xlink:href="#DejaVuSans-32"/>
       <use xlink:href="#DejaVuSans-30" x="63.623047"/>
       <use xlink:href="#DejaVuSans-30" x="127.246094"/>
      </g>
     </g>
    </g>
    <g id="ytick_4">
     <g id="line2d_23">
      <path d="M 54.3375 439.005199 
L 391.23 439.005199 
" clip-path="url(#p7e8de02bfa)" style="fill: none; stroke: #cccccc; stroke-width: 0.8; stroke-linecap: round"/>
     </g>
     <g id="text_24">
      <!-- 300 -->
      <g style="fill: #262626" transform="translate(29.2405 442.348511)scale(0.088 -0.088)">
       <use xlink:href="#DejaVuSans-33"/>
       <use xlink:href="#DejaVuSans-30" x="63.623047"/>
       <use xlink:href="#DejaVuSans-30" x="127.246094"/>
      </g>
     </g>
    </g>
    <g id="ytick_5">
     <g id="line2d_24">
      <path d="M 54.3375 421.180265 
L 391.23 421.180265 
" clip-path="url(#p7e8de02bfa)" style="fill: none; stroke: #cccccc; stroke-width: 0.8; stroke-linecap: round"/>
     </g>
     <g id="text_25">
      <!-- 400 -->
      <g style="fill: #262626" transform="translate(29.2405 424.523578)scale(0.088 -0.088)">
       <use xlink:href="#DejaVuSans-34"/>
       <use xlink:href="#DejaVuSans-30" x="63.623047"/>
       <use xlink:href="#DejaVuSans-30" x="127.246094"/>
      </g>
     </g>
    </g>
    <g id="ytick_6">
     <g id="line2d_25">
      <path d="M 54.3375 403.355332 
L 391.23 403.355332 
" clip-path="url(#p7e8de02bfa)" style="fill: none; stroke: #cccccc; stroke-width: 0.8; stroke-linecap: round"/>
     </g>
     <g id="text_26">
      <!-- 500 -->
      <g style="fill: #262626" transform="translate(29.2405 406.698644)scale(0.088 -0.088)">
       <use xlink:href="#DejaVuSans-35"/>
       <use xlink:href="#DejaVuSans-30" x="63.623047"/>
       <use xlink:href="#DejaVuSans-30" x="127.246094"/>
      </g>
     </g>
    </g>
    <g id="ytick_7">
     <g id="line2d_26">
      <path d="M 54.3375 385.530398 
L 391.23 385.530398 
" clip-path="url(#p7e8de02bfa)" style="fill: none; stroke: #cccccc; stroke-width: 0.8; stroke-linecap: round"/>
     </g>
     <g id="text_27">
      <!-- 600 -->
      <g style="fill: #262626" transform="translate(29.2405 388.87371)scale(0.088 -0.088)">
       <use xlink:href="#DejaVuSans-36"/>
       <use xlink:href="#DejaVuSans-30" x="63.623047"/>
       <use xlink:href="#DejaVuSans-30" x="127.246094"/>
      </g>
     </g>
    </g>
    <g id="ytick_8">
     <g id="line2d_27">
      <path d="M 54.3375 367.705464 
L 391.23 367.705464 
" clip-path="url(#p7e8de02bfa)" style="fill: none; stroke: #cccccc; stroke-width: 0.8; stroke-linecap: round"/>
     </g>
     <g id="text_28">
      <!-- 700 -->
      <g style="fill: #262626" transform="translate(29.2405 371.048777)scale(0.088 -0.088)">
       <use xlink:href="#DejaVuSans-37"/>
       <use xlink:href="#DejaVuSans-30" x="63.623047"/>
       <use xlink:href="#DejaVuSans-30" x="127.246094"/>
      </g>
     </g>
    </g>
    <g id="ytick_9">
     <g id="line2d_28">
      <path d="M 54.3375 349.880531 
L 391.23 349.880531 
" clip-path="url(#p7e8de02bfa)" style="fill: none; stroke: #cccccc; stroke-width: 0.8; stroke-linecap: round"/>
     </g>
     <g id="text_29">
      <!-- 800 -->
      <g style="fill: #262626" transform="translate(29.2405 353.223843)scale(0.088 -0.088)">
       <use xlink:href="#DejaVuSans-38"/>
       <use xlink:href="#DejaVuSans-30" x="63.623047"/>
       <use xlink:href="#DejaVuSans-30" x="127.246094"/>
      </g>
     </g>
    </g>
    <g id="ytick_10">
     <g id="line2d_29">
      <path d="M 54.3375 332.055597 
L 391.23 332.055597 
" clip-path="url(#p7e8de02bfa)" style="fill: none; stroke: #cccccc; stroke-width: 0.8; stroke-linecap: round"/>
     </g>
     <g id="text_30">
      <!-- 900 -->
      <g style="fill: #262626" transform="translate(29.2405 335.398909)scale(0.088 -0.088)">
       <use xlink:href="#DejaVuSans-39"/>
       <use xlink:href="#DejaVuSans-30" x="63.623047"/>
       <use xlink:href="#DejaVuSans-30" x="127.246094"/>
      </g>
     </g>
    </g>
    <g id="ytick_11">
     <g id="line2d_30">
      <path d="M 54.3375 314.230663 
L 391.23 314.230663 
" clip-path="url(#p7e8de02bfa)" style="fill: none; stroke: #cccccc; stroke-width: 0.8; stroke-linecap: round"/>
     </g>
     <g id="text_31">
      <!-- 1000 -->
      <g style="fill: #262626" transform="translate(23.6415 317.573976)scale(0.088 -0.088)">
       <use xlink:href="#DejaVuSans-31"/>
       <use xlink:href="#DejaVuSans-30" x="63.623047"/>
       <use xlink:href="#DejaVuSans-30" x="127.246094"/>
       <use xlink:href="#DejaVuSans-30" x="190.869141"/>
      </g>
     </g>
    </g>
    <g id="ytick_12">
     <g id="line2d_31">
      <path d="M 54.3375 296.405729 
L 391.23 296.405729 
" clip-path="url(#p7e8de02bfa)" style="fill: none; stroke: #cccccc; stroke-width: 0.8; stroke-linecap: round"/>
     </g>
     <g id="text_32">
      <!-- 1100 -->
      <g style="fill: #262626" transform="translate(23.6415 299.749042)scale(0.088 -0.088)">
       <use xlink:href="#DejaVuSans-31"/>
       <use xlink:href="#DejaVuSans-31" x="63.623047"/>
       <use xlink:href="#DejaVuSans-30" x="127.246094"/>
       <use xlink:href="#DejaVuSans-30" x="190.869141"/>
      </g>
     </g>
    </g>
    <g id="ytick_13">
     <g id="line2d_32">
      <path d="M 54.3375 278.580796 
L 391.23 278.580796 
" clip-path="url(#p7e8de02bfa)" style="fill: none; stroke: #cccccc; stroke-width: 0.8; stroke-linecap: round"/>
     </g>
     <g id="text_33">
      <!-- 1200 -->
      <g style="fill: #262626" transform="translate(23.6415 281.924108)scale(0.088 -0.088)">
       <use xlink:href="#DejaVuSans-31"/>
       <use xlink:href="#DejaVuSans-32" x="63.623047"/>
       <use xlink:href="#DejaVuSans-30" x="127.246094"/>
       <use xlink:href="#DejaVuSans-30" x="190.869141"/>
      </g>
     </g>
    </g>
    <g id="ytick_14">
     <g id="line2d_33">
      <path d="M 54.3375 260.755862 
L 391.23 260.755862 
" clip-path="url(#p7e8de02bfa)" style="fill: none; stroke: #cccccc; stroke-width: 0.8; stroke-linecap: round"/>
     </g>
     <g id="text_34">
      <!-- 1300 -->
      <g style="fill: #262626" transform="translate(23.6415 264.099175)scale(0.088 -0.088)">
       <use xlink:href="#DejaVuSans-31"/>
       <use xlink:href="#DejaVuSans-33" x="63.623047"/>
       <use xlink:href="#DejaVuSans-30" x="127.246094"/>
       <use xlink:href="#DejaVuSans-30" x="190.869141"/>
      </g>
     </g>
    </g>
    <g id="ytick_15">
     <g id="line2d_34">
      <path d="M 54.3375 242.930928 
L 391.23 242.930928 
" clip-path="url(#p7e8de02bfa)" style="fill: none; stroke: #cccccc; stroke-width: 0.8; stroke-linecap: round"/>
     </g>
     <g id="text_35">
      <!-- 1400 -->
      <g style="fill: #262626" transform="translate(23.6415 246.274241)scale(0.088 -0.088)">
       <use xlink:href="#DejaVuSans-31"/>
       <use xlink:href="#DejaVuSans-34" x="63.623047"/>
       <use xlink:href="#DejaVuSans-30" x="127.246094"/>
       <use xlink:href="#DejaVuSans-30" x="190.869141"/>
      </g>
     </g>
    </g>
    <g id="ytick_16">
     <g id="line2d_35">
      <path d="M 54.3375 225.105995 
L 391.23 225.105995 
" clip-path="url(#p7e8de02bfa)" style="fill: none; stroke: #cccccc; stroke-width: 0.8; stroke-linecap: round"/>
     </g>
     <g id="text_36">
      <!-- 1500 -->
      <g style="fill: #262626" transform="translate(23.6415 228.449307)scale(0.088 -0.088)">
       <use xlink:href="#DejaVuSans-31"/>
       <use xlink:href="#DejaVuSans-35" x="63.623047"/>
       <use xlink:href="#DejaVuSans-30" x="127.246094"/>
       <use xlink:href="#DejaVuSans-30" x="190.869141"/>
      </g>
     </g>
    </g>
    <g id="ytick_17">
     <g id="line2d_36">
      <path d="M 54.3375 207.281061 
L 391.23 207.281061 
" clip-path="url(#p7e8de02bfa)" style="fill: none; stroke: #cccccc; stroke-width: 0.8; stroke-linecap: round"/>
     </g>
     <g id="text_37">
      <!-- 1600 -->
      <g style="fill: #262626" transform="translate(23.6415 210.624374)scale(0.088 -0.088)">
       <use xlink:href="#DejaVuSans-31"/>
       <use xlink:href="#DejaVuSans-36" x="63.623047"/>
       <use xlink:href="#DejaVuSans-30" x="127.246094"/>
       <use xlink:href="#DejaVuSans-30" x="190.869141"/>
      </g>
     </g>
    </g>
    <g id="ytick_18">
     <g id="line2d_37">
      <path d="M 54.3375 189.456127 
L 391.23 189.456127 
" clip-path="url(#p7e8de02bfa)" style="fill: none; stroke: #cccccc; stroke-width: 0.8; stroke-linecap: round"/>
     </g>
     <g id="text_38">
      <!-- 1700 -->
      <g style="fill: #262626" transform="translate(23.6415 192.79944)scale(0.088 -0.088)">
       <use xlink:href="#DejaVuSans-31"/>
       <use xlink:href="#DejaVuSans-37" x="63.623047"/>
       <use xlink:href="#DejaVuSans-30" x="127.246094"/>
       <use xlink:href="#DejaVuSans-30" x="190.869141"/>
      </g>
     </g>
    </g>
    <g id="ytick_19">
     <g id="line2d_38">
      <path d="M 54.3375 171.631194 
L 391.23 171.631194 
" clip-path="url(#p7e8de02bfa)" style="fill: none; stroke: #cccccc; stroke-width: 0.8; stroke-linecap: round"/>
     </g>
     <g id="text_39">
      <!-- 1800 -->
      <g style="fill: #262626" transform="translate(23.6415 174.974506)scale(0.088 -0.088)">
       <use xlink:href="#DejaVuSans-31"/>
       <use xlink:href="#DejaVuSans-38" x="63.623047"/>
       <use xlink:href="#DejaVuSans-30" x="127.246094"/>
       <use xlink:href="#DejaVuSans-30" x="190.869141"/>
      </g>
     </g>
    </g>
    <g id="ytick_20">
     <g id="line2d_39">
      <path d="M 54.3375 153.80626 
L 391.23 153.80626 
" clip-path="url(#p7e8de02bfa)" style="fill: none; stroke: #cccccc; stroke-width: 0.8; stroke-linecap: round"/>
     </g>
     <g id="text_40">
      <!-- 1900 -->
      <g style="fill: #262626" transform="translate(23.6415 157.149572)scale(0.088 -0.088)">
       <use xlink:href="#DejaVuSans-31"/>
       <use xlink:href="#DejaVuSans-39" x="63.623047"/>
       <use xlink:href="#DejaVuSans-30" x="127.246094"/>
       <use xlink:href="#DejaVuSans-30" x="190.869141"/>
      </g>
     </g>
    </g>
    <g id="ytick_21">
     <g id="line2d_40">
      <path d="M 54.3375 135.981326 
L 391.23 135.981326 
" clip-path="url(#p7e8de02bfa)" style="fill: none; stroke: #cccccc; stroke-width: 0.8; stroke-linecap: round"/>
     </g>
     <g id="text_41">
      <!-- 2000 -->
      <g style="fill: #262626" transform="translate(23.6415 139.324639)scale(0.088 -0.088)">
       <use xlink:href="#DejaVuSans-32"/>
       <use xlink:href="#DejaVuSans-30" x="63.623047"/>
       <use xlink:href="#DejaVuSans-30" x="127.246094"/>
       <use xlink:href="#DejaVuSans-30" x="190.869141"/>
      </g>
     </g>
    </g>
    <g id="ytick_22">
     <g id="line2d_41">
      <path d="M 54.3375 118.156393 
L 391.23 118.156393 
" clip-path="url(#p7e8de02bfa)" style="fill: none; stroke: #cccccc; stroke-width: 0.8; stroke-linecap: round"/>
     </g>
     <g id="text_42">
      <!-- 2100 -->
      <g style="fill: #262626" transform="translate(23.6415 121.499705)scale(0.088 -0.088)">
       <use xlink:href="#DejaVuSans-32"/>
       <use xlink:href="#DejaVuSans-31" x="63.623047"/>
       <use xlink:href="#DejaVuSans-30" x="127.246094"/>
       <use xlink:href="#DejaVuSans-30" x="190.869141"/>
      </g>
     </g>
    </g>
    <g id="ytick_23">
     <g id="line2d_42">
      <path d="M 54.3375 100.331459 
L 391.23 100.331459 
" clip-path="url(#p7e8de02bfa)" style="fill: none; stroke: #cccccc; stroke-width: 0.8; stroke-linecap: round"/>
     </g>
     <g id="text_43">
      <!-- 2200 -->
      <g style="fill: #262626" transform="translate(23.6415 103.674771)scale(0.088 -0.088)">
       <use xlink:href="#DejaVuSans-32"/>
       <use xlink:href="#DejaVuSans-32" x="63.623047"/>
       <use xlink:href="#DejaVuSans-30" x="127.246094"/>
       <use xlink:href="#DejaVuSans-30" x="190.869141"/>
      </g>
     </g>
    </g>
    <g id="text_44">
     <!-- Edge Coverages -->
     <g style="fill: #262626" transform="translate(17.645 329.98575)rotate(-90)scale(0.096 -0.096)">
      <defs>
       <path id="DejaVuSans-45" d="M 628 4666 
L 3578 4666 
L 3578 4134 
L 1259 4134 
L 1259 2753 
L 3481 2753 
L 3481 2222 
L 1259 2222 
L 1259 531 
L 3634 531 
L 3634 0 
L 628 0 
L 628 4666 
z
" transform="scale(0.015625)"/>
       <path id="DejaVuSans-64" d="M 2906 2969 
L 2906 4863 
L 3481 4863 
L 3481 0 
L 2906 0 
L 2906 525 
Q 2725 213 2448 61 
Q 2172 -91 1784 -91 
Q 1150 -91 751 415 
Q 353 922 353 1747 
Q 353 2572 751 3078 
Q 1150 3584 1784 3584 
Q 2172 3584 2448 3432 
Q 2725 3281 2906 2969 
z
M 947 1747 
Q 947 1113 1208 752 
Q 1469 391 1925 391 
Q 2381 391 2643 752 
Q 2906 1113 2906 1747 
Q 2906 2381 2643 2742 
Q 2381 3103 1925 3103 
Q 1469 3103 1208 2742 
Q 947 2381 947 1747 
z
" transform="scale(0.015625)"/>
       <path id="DejaVuSans-67" d="M 2906 1791 
Q 2906 2416 2648 2759 
Q 2391 3103 1925 3103 
Q 1463 3103 1205 2759 
Q 947 2416 947 1791 
Q 947 1169 1205 825 
Q 1463 481 1925 481 
Q 2391 481 2648 825 
Q 2906 1169 2906 1791 
z
M 3481 434 
Q 3481 -459 3084 -895 
Q 2688 -1331 1869 -1331 
Q 1566 -1331 1297 -1286 
Q 1028 -1241 775 -1147 
L 775 -588 
Q 1028 -725 1275 -790 
Q 1522 -856 1778 -856 
Q 2344 -856 2625 -561 
Q 2906 -266 2906 331 
L 2906 616 
Q 2728 306 2450 153 
Q 2172 0 1784 0 
Q 1141 0 747 490 
Q 353 981 353 1791 
Q 353 2603 747 3093 
Q 1141 3584 1784 3584 
Q 2172 3584 2450 3431 
Q 2728 3278 2906 2969 
L 2906 3500 
L 3481 3500 
L 3481 434 
z
" transform="scale(0.015625)"/>
       <path id="DejaVuSans-43" d="M 4122 4306 
L 4122 3641 
Q 3803 3938 3442 4084 
Q 3081 4231 2675 4231 
Q 1875 4231 1450 3742 
Q 1025 3253 1025 2328 
Q 1025 1406 1450 917 
Q 1875 428 2675 428 
Q 3081 428 3442 575 
Q 3803 722 4122 1019 
L 4122 359 
Q 3791 134 3420 21 
Q 3050 -91 2638 -91 
Q 1578 -91 968 557 
Q 359 1206 359 2328 
Q 359 3453 968 4101 
Q 1578 4750 2638 4750 
Q 3056 4750 3426 4639 
Q 3797 4528 4122 4306 
z
" transform="scale(0.015625)"/>
       <path id="DejaVuSans-6f" d="M 1959 3097 
Q 1497 3097 1228 2736 
Q 959 2375 959 1747 
Q 959 1119 1226 758 
Q 1494 397 1959 397 
Q 2419 397 2687 759 
Q 2956 1122 2956 1747 
Q 2956 2369 2687 2733 
Q 2419 3097 1959 3097 
z
M 1959 3584 
Q 2709 3584 3137 3096 
Q 3566 2609 3566 1747 
Q 3566 888 3137 398 
Q 2709 -91 1959 -91 
Q 1206 -91 779 398 
Q 353 888 353 1747 
Q 353 2609 779 3096 
Q 1206 3584 1959 3584 
z
" transform="scale(0.015625)"/>
       <path id="DejaVuSans-76" d="M 191 3500 
L 800 3500 
L 1894 563 
L 2988 3500 
L 3597 3500 
L 2284 0 
L 1503 0 
L 191 3500 
z
" transform="scale(0.015625)"/>
       <path id="DejaVuSans-72" d="M 2631 2963 
Q 2534 3019 2420 3045 
Q 2306 3072 2169 3072 
Q 1681 3072 1420 2755 
Q 1159 2438 1159 1844 
L 1159 0 
L 581 0 
L 581 3500 
L 1159 3500 
L 1159 2956 
Q 1341 3275 1631 3429 
Q 1922 3584 2338 3584 
Q 2397 3584 2469 3576 
Q 2541 3569 2628 3553 
L 2631 2963 
z
" transform="scale(0.015625)"/>
       <path id="DejaVuSans-61" d="M 2194 1759 
Q 1497 1759 1228 1600 
Q 959 1441 959 1056 
Q 959 750 1161 570 
Q 1363 391 1709 391 
Q 2188 391 2477 730 
Q 2766 1069 2766 1631 
L 2766 1759 
L 2194 1759 
z
M 3341 1997 
L 3341 0 
L 2766 0 
L 2766 531 
Q 2569 213 2275 61 
Q 1981 -91 1556 -91 
Q 1019 -91 701 211 
Q 384 513 384 1019 
Q 384 1609 779 1909 
Q 1175 2209 1959 2209 
L 2766 2209 
L 2766 2266 
Q 2766 2663 2505 2880 
Q 2244 3097 1772 3097 
Q 1472 3097 1187 3025 
Q 903 2953 641 2809 
L 641 3341 
Q 956 3463 1253 3523 
Q 1550 3584 1831 3584 
Q 2591 3584 2966 3190 
Q 3341 2797 3341 1997 
z
" transform="scale(0.015625)"/>
      </defs>
      <use xlink:href="#DejaVuSans-45"/>
      <use xlink:href="#DejaVuSans-64" x="63.183594"/>
      <use xlink:href="#DejaVuSans-67" x="126.660156"/>
      <use xlink:href="#DejaVuSans-65" x="190.136719"/>
      <use xlink:href="#DejaVuSans-20" x="251.660156"/>
      <use xlink:href="#DejaVuSans-43" x="283.447266"/>
      <use xlink:href="#DejaVuSans-6f" x="353.271484"/>
      <use xlink:href="#DejaVuSans-76" x="414.453125"/>
      <use xlink:href="#DejaVuSans-65" x="473.632812"/>
      <use xlink:href="#DejaVuSans-72" x="535.15625"/>
      <use xlink:href="#DejaVuSans-61" x="576.269531"/>
      <use xlink:href="#DejaVuSans-67" x="637.548828"/>
      <use xlink:href="#DejaVuSans-65" x="701.025391"/>
      <use xlink:href="#DejaVuSans-73" x="762.548828"/>
     </g>
    </g>
   </g>
   <g id="PolyCollection_1">
    <defs>
     <path id="mbd378f1ed0" d="M 69.650795 -87.084987 
L 69.650795 -83.52 
L 69.650795 -87.084987 
L 69.650795 -87.084987 
z
" style="stroke: #db5f57; stroke-opacity: 0.2; stroke-width: 0.8"/>
    </defs>
    <g clip-path="url(#p7e8de02bfa)">
     <use xlink:href="#mbd378f1ed0" x="0" y="576" style="fill: #db5f57; fill-opacity: 0.2; stroke: #db5f57; stroke-opacity: 0.2; stroke-width: 0.8"/>
    </g>
   </g>
   <g id="PolyCollection_2">
    <defs>
     <path id="m0192b68ed6" d="M 69.650795 -85.658992 
L 69.650795 -83.52 
L 69.650795 -85.658992 
L 69.650795 -85.658992 
z
" style="stroke: #b9db57; stroke-opacity: 0.2; stroke-width: 0.8"/>
    </defs>
    <g clip-path="url(#p7e8de02bfa)">
     <use xlink:href="#m0192b68ed6" x="0" y="576" style="fill: #b9db57; fill-opacity: 0.2; stroke: #b9db57; stroke-opacity: 0.2; stroke-width: 0.8"/>
    </g>
   </g>
   <g id="PolyCollection_3">
    <defs>
     <path id="m29e6af6270" d="M 69.650795 -84.945995 
L 69.650795 -83.52 
L 69.650795 -84.945995 
L 69.650795 -84.945995 
z
" style="stroke: #57db94; stroke-opacity: 0.2; stroke-width: 0.8"/>
    </defs>
    <g clip-path="url(#p7e8de02bfa)">
     <use xlink:href="#m29e6af6270" x="0" y="576" style="fill: #57db94; fill-opacity: 0.2; stroke: #57db94; stroke-opacity: 0.2; stroke-width: 0.8"/>
    </g>
   </g>
   <g id="PolyCollection_4">
    <defs>
     <path id="m678f7d8c85" d="M 69.650795 -86.906737 
L 69.650795 -83.52 
L 69.650795 -86.906737 
L 69.650795 -86.906737 
z
" style="stroke: #5784db; stroke-opacity: 0.2; stroke-width: 0.8"/>
    </defs>
    <g clip-path="url(#p7e8de02bfa)">
     <use xlink:href="#m678f7d8c85" x="0" y="576" style="fill: #5784db; fill-opacity: 0.2; stroke: #5784db; stroke-opacity: 0.2; stroke-width: 0.8"/>
    </g>
   </g>
   <g id="PolyCollection_5">
    <defs>
     <path id="mdbd581f452" d="M 69.650795 -87.084987 
L 69.650795 -83.52 
L 69.650795 -87.084987 
L 69.650795 -87.084987 
z
" style="stroke: #c957db; stroke-opacity: 0.2; stroke-width: 0.8"/>
    </defs>
    <g clip-path="url(#p7e8de02bfa)">
     <use xlink:href="#mdbd581f452" x="0" y="576" style="fill: #c957db; fill-opacity: 0.2; stroke: #c957db; stroke-opacity: 0.2; stroke-width: 0.8"/>
    </g>
   </g>
   <g id="line2d_43">
    <path d="M 69.650795 490.697507 
L 69.863628 488.915013 
L 71.566288 488.915013 
L 71.77912 486.419523 
L 72.204785 484.637029 
L 72.417617 483.924032 
L 72.63045 483.745782 
L 72.843282 483.745782 
L 73.056115 483.389284 
L 74.758774 483.389284 
L 75.397272 455.938886 
L 75.822937 440.965942 
L 76.035769 430.092732 
L 76.674267 418.863024 
L 77.099932 411.73305 
L 77.738429 404.603077 
L 78.164094 403.355332 
L 79.015424 403.355332 
L 79.228256 402.464085 
L 79.866754 402.464085 
L 80.292418 402.107586 
L 80.930916 402.107586 
L 81.143748 396.403607 
L 81.569413 394.442865 
L 81.782246 391.412626 
L 82.846408 391.412626 
L 83.05924 391.234377 
L 83.272073 390.34313 
L 83.484905 389.986631 
L 83.697738 389.986631 
L 84.123403 389.630133 
L 84.336235 353.445517 
L 84.7619 353.445517 
L 84.974733 352.73252 
L 85.187565 350.593528 
L 85.400397 350.415279 
L 85.826062 350.415279 
L 86.251727 301.75321 
L 87.103057 301.75321 
L 87.31589 301.396711 
L 87.741555 301.396711 
L 88.167219 300.327215 
L 88.805717 297.475225 
L 89.018549 296.22748 
L 89.231382 271.98557 
L 89.444214 271.807321 
L 89.657047 271.094324 
L 89.869879 270.916074 
L 90.082712 270.024828 
L 90.934041 270.024828 
L 91.146874 243.822175 
L 92.211036 243.822175 
L 92.423869 242.57443 
L 92.636701 221.184509 
L 92.849534 220.471512 
L 93.913696 220.471512 
L 94.126528 214.945782 
L 94.552193 214.945782 
L 95.190691 213.341538 
L 95.403523 213.341538 
L 95.616356 212.628541 
L 96.254853 212.628541 
L 96.467685 212.450292 
L 97.106183 212.450292 
L 97.319015 208.528806 
L 97.74468 208.528806 
L 97.957513 208.350557 
L 98.383177 208.350557 
L 98.59601 205.320318 
L 98.808842 204.78557 
L 99.021675 204.78557 
L 99.234507 201.220584 
L 99.44734 200.864085 
L 99.660172 198.546844 
L 99.873005 197.655597 
L 100.085837 197.477347 
L 100.29867 197.477347 
L 100.511502 196.76435 
L 100.724335 192.129867 
L 100.937167 192.129867 
L 101.149999 191.773369 
L 102.214162 191.773369 
L 102.426994 191.41687 
L 102.639827 188.030133 
L 102.852659 186.782387 
L 103.065492 186.604138 
L 103.916821 186.604138 
L 104.129654 186.425889 
L 104.768151 186.425889 
L 104.980984 186.247639 
L 105.406649 185.356393 
L 105.619481 185.356393 
L 105.832314 185.178143 
L 106.045146 185.178143 
L 106.257978 184.999894 
L 107.109308 184.999894 
L 107.322141 184.643395 
L 107.747806 183.039151 
L 107.960638 182.860902 
L 109.0248 181.078408 
L 110.088963 181.078408 
L 110.514628 180.187162 
L 110.940293 178.761167 
L 111.791622 176.443926 
L 112.004455 174.304934 
L 112.43012 173.413687 
L 112.642952 172.165942 
L 112.855785 171.987692 
L 113.068617 171.987692 
L 113.919947 171.274695 
L 114.132779 170.02695 
L 114.345612 170.02695 
L 114.558444 169.670451 
L 114.771277 169.670451 
L 115.196942 169.135703 
L 116.473937 169.135703 
L 116.686769 168.957454 
L 118.602261 168.957454 
L 118.815094 168.779204 
L 119.666423 168.779204 
L 119.879256 168.600955 
L 120.517753 168.600955 
L 120.730586 168.244456 
L 121.581916 168.244456 
L 121.794748 167.531459 
L 122.433245 167.531459 
L 122.85891 166.996711 
L 123.284575 166.996711 
L 123.497408 165.748966 
L 123.71024 165.570716 
L 124.135905 165.570716 
L 124.348738 165.392467 
L 124.987235 165.392467 
L 125.200067 165.214218 
L 126.26423 165.214218 
L 126.477062 164.679469 
L 126.689895 164.50122 
L 127.115559 163.431724 
L 127.541224 163.075225 
L 127.754057 163.075225 
L 127.966889 162.896976 
L 129.669549 162.896976 
L 129.882381 162.718727 
L 131.585041 162.718727 
L 131.797874 162.362228 
L 134.777528 162.362228 
L 135.203193 161.292732 
L 135.416025 161.114483 
L 135.628858 160.579735 
L 135.84169 160.401485 
L 136.267355 160.401485 
L 136.480188 160.044987 
L 136.905853 157.905995 
L 137.118685 157.371247 
L 137.331518 157.192997 
L 137.54435 157.192997 
L 137.757182 156.123501 
L 138.39568 155.588753 
L 138.608512 155.588753 
L 138.821345 155.410504 
L 139.24701 154.519257 
L 139.885507 153.984509 
L 140.09834 153.984509 
L 140.311172 153.628011 
L 140.524004 153.628011 
L 140.736837 153.449761 
L 141.375334 152.380265 
L 141.800999 152.380265 
L 142.439497 151.845517 
L 142.652329 150.954271 
L 142.865161 150.954271 
L 143.077994 150.063024 
L 143.503659 149.528276 
L 144.142156 149.528276 
L 144.567821 148.45878 
L 144.780654 147.924032 
L 145.206319 147.924032 
L 145.631983 147.389284 
L 146.483313 147.389284 
L 146.696146 147.211034 
L 146.908978 147.211034 
L 147.121811 147.032785 
L 147.334643 146.676286 
L 148.185973 146.676286 
L 148.611638 146.319788 
L 150.101465 146.319788 
L 150.52713 145.963289 
L 150.952795 145.963289 
L 151.165627 145.60679 
L 151.37846 144.359045 
L 151.591292 143.824297 
L 152.22979 143.824297 
L 152.442622 143.646048 
L 152.655455 143.646048 
L 152.868287 143.467798 
L 154.783779 143.467798 
L 154.996612 143.1113 
L 156.273606 143.1113 
L 156.486439 142.93305 
L 157.337769 142.93305 
L 157.550601 142.754801 
L 158.189099 142.754801 
L 158.401931 142.398302 
L 159.040428 142.398302 
L 159.253261 142.220053 
L 159.466093 141.685305 
L 160.104591 141.685305 
L 160.317423 141.507056 
L 160.530256 141.507056 
L 160.743088 141.150557 
L 166.702397 141.150557 
L 166.915229 140.972308 
L 167.340894 140.972308 
L 167.553727 140.25931 
L 168.405057 140.25931 
L 168.617889 140.081061 
L 170.320549 140.081061 
L 170.533381 139.724562 
L 170.746214 138.476817 
L 171.171879 137.942069 
L 171.384711 137.942069 
L 171.597544 137.76382 
L 171.810376 137.229072 
L 189.049805 137.229072 
L 189.262638 137.050822 
L 189.47547 137.050822 
L 189.688303 136.872573 
L 190.965297 136.872573 
L 191.17813 136.516074 
L 192.880789 136.516074 
L 193.093622 135.981326 
L 202.032585 135.981326 
L 202.245418 135.803077 
L 204.373742 135.803077 
L 204.586575 135.624828 
L 205.225072 135.624828 
L 205.437905 135.446578 
L 206.289234 135.446578 
L 206.502067 135.09008 
L 206.714899 135.09008 
L 206.927732 134.91183 
L 207.140564 134.377082 
L 209.268889 134.377082 
L 209.481721 134.198833 
L 214.376868 134.198833 
L 214.5897 133.485836 
L 216.930857 133.485836 
L 217.14369 133.307586 
L 218.420685 133.307586 
L 218.633517 133.129337 
L 228.42381 133.129337 
L 228.636643 132.951088 
L 232.893292 132.951088 
L 233.106124 132.772838 
L 233.957454 132.772838 
L 234.170287 131.703342 
L 235.021616 130.990345 
L 237.149941 130.990345 
L 237.362773 130.812095 
L 242.683585 130.812095 
L 242.896417 130.633846 
L 243.747747 130.633846 
L 243.96058 130.455597 
L 269.287642 130.455597 
L 269.500475 130.099098 
L 271.628799 130.099098 
L 271.841632 129.920849 
L 282.05759 129.920849 
L 282.270422 129.386101 
L 293.33771 129.386101 
L 293.550543 129.207851 
L 301.638176 129.207851 
L 301.851009 129.029602 
L 305.46916 129.029602 
L 305.681993 128.673103 
L 306.746155 128.673103 
L 306.958988 128.494854 
L 329.944893 128.494854 
L 330.157726 128.316605 
L 330.583391 127.425358 
L 331.009056 127.425358 
L 331.221888 126.89061 
L 331.434721 126.89061 
L 331.860385 126.534111 
L 332.28605 125.999363 
L 348.886982 125.999363 
L 349.099815 125.821114 
L 350.589642 125.821114 
L 351.228139 125.286366 
L 353.782129 125.286366 
L 353.994961 125.108117 
L 367.403406 125.108117 
L 367.616239 124.929867 
L 375.916705 124.929867 
L 375.916705 124.929867 
" clip-path="url(#p7e8de02bfa)" style="fill: none; stroke: #db5f57; stroke-width: 1.2; stroke-linecap: round"/>
   </g>
   <g id="line2d_44">
    <path d="M 69.650795 491.410504 
L 69.863628 490.162759 
L 70.07646 490.162759 
L 70.289293 489.984509 
L 70.502125 488.915013 
L 71.566288 488.915013 
L 71.77912 486.597772 
L 72.204785 485.528276 
L 72.417617 485.350027 
L 73.48178 485.350027 
L 73.694612 484.815279 
L 74.758774 484.815279 
L 74.971607 480.893793 
L 75.610104 441.32244 
L 75.822937 439.896446 
L 76.035769 439.896446 
L 76.248602 439.718196 
L 76.674267 439.005199 
L 76.887099 416.011034 
L 77.099932 413.337294 
L 77.312764 413.337294 
L 77.525596 407.098568 
L 77.951261 402.998833 
L 78.164094 402.820584 
L 78.376926 402.107586 
L 78.589759 402.107586 
L 78.802591 401.394589 
L 79.653921 401.394589 
L 79.866754 399.077347 
L 80.079586 398.899098 
L 80.292418 398.899098 
L 80.505251 397.473103 
L 80.718083 397.294854 
L 81.569413 392.838621 
L 82.420743 392.838621 
L 82.633575 389.986631 
L 82.846408 389.808382 
L 83.272073 389.808382 
L 83.484905 388.025889 
L 85.61323 388.025889 
L 85.826062 301.040212 
L 86.038895 300.327215 
L 86.251727 289.275756 
L 86.46456 286.958515 
L 86.677392 282.145782 
L 86.890225 280.898037 
L 87.103057 280.719788 
L 87.31589 280.18504 
L 87.528722 280.18504 
L 87.741555 273.233316 
L 87.954387 273.233316 
L 88.167219 259.508117 
L 88.380052 259.329867 
L 88.805717 256.299629 
L 89.018549 255.94313 
L 89.231382 255.94313 
L 89.444214 254.517135 
L 89.657047 254.160637 
L 89.869879 246.674164 
L 90.082712 246.674164 
L 90.295544 242.930928 
L 90.934041 242.930928 
L 91.146874 220.471512 
L 91.572539 220.471512 
L 91.785371 217.976021 
L 91.998204 208.172308 
L 92.211036 207.45931 
L 92.423869 207.45931 
L 92.636701 205.142069 
L 92.849534 193.555862 
L 93.275198 187.673634 
L 93.488031 187.673634 
L 93.913696 186.604138 
L 95.403523 186.604138 
L 95.829188 182.682653 
L 96.04202 182.682653 
L 96.467685 182.326154 
L 97.106183 182.326154 
L 97.319015 179.652414 
L 97.74468 179.652414 
L 97.957513 177.86992 
L 99.021675 177.86992 
L 99.234507 175.37443 
L 99.44734 175.37443 
L 99.873005 168.779204 
L 100.29867 168.244456 
L 100.511502 168.244456 
L 100.724335 163.075225 
L 102.852659 163.075225 
L 103.065492 157.905995 
L 104.980984 157.905995 
L 105.193816 157.549496 
L 106.257978 157.549496 
L 106.470811 156.301751 
L 107.109308 156.301751 
L 107.322141 156.123501 
L 107.534973 155.767003 
L 107.747806 154.519257 
L 108.173471 153.80626 
L 109.237633 153.80626 
L 109.450465 152.380265 
L 110.088963 152.380265 
L 110.514628 152.023767 
L 111.153125 149.706525 
L 111.365957 149.350027 
L 111.791622 147.924032 
L 112.004455 145.963289 
L 112.43012 144.893793 
L 112.642952 143.824297 
L 112.855785 143.646048 
L 113.068617 143.646048 
L 113.919947 142.93305 
L 114.132779 141.685305 
L 114.558444 141.685305 
L 115.196942 140.794058 
L 116.473937 140.794058 
L 116.686769 140.615809 
L 118.815094 140.615809 
L 119.027926 140.43756 
L 120.092088 140.43756 
L 120.304921 140.25931 
L 120.943418 140.25931 
L 121.156251 139.902812 
L 121.581916 139.902812 
L 121.794748 139.189814 
L 122.646078 139.189814 
L 122.85891 138.833316 
L 123.071743 138.833316 
L 123.284575 138.655066 
L 123.497408 137.407321 
L 123.71024 137.229072 
L 124.774402 137.229072 
L 124.987235 137.050822 
L 125.200067 137.050822 
L 125.4129 136.872573 
L 126.26423 136.872573 
L 126.477062 136.337825 
L 129.243884 136.337825 
L 129.456717 134.91183 
L 132.010706 134.91183 
L 132.223539 134.555332 
L 136.69302 134.555332 
L 136.905853 130.812095 
L 143.077994 130.812095 
L 143.290826 121.899629 
L 144.780654 121.899629 
L 144.993486 120.117135 
L 145.419151 120.117135 
L 145.631983 119.760637 
L 146.270481 119.760637 
L 146.696146 119.404138 
L 148.185973 119.404138 
L 148.611638 118.512891 
L 150.314298 118.512891 
L 150.739962 117.621645 
L 151.591292 117.621645 
L 151.804125 116.017401 
L 152.442622 116.017401 
L 152.868287 115.660902 
L 155.635109 115.660902 
L 155.847942 115.304403 
L 158.827596 115.304403 
L 159.040428 114.591406 
L 159.253261 114.413156 
L 159.466093 113.878408 
L 160.317423 113.878408 
L 160.530256 113.700159 
L 160.743088 113.34366 
L 166.702397 113.34366 
L 166.915229 113.165411 
L 167.553727 113.165411 
L 167.766559 112.630663 
L 169.894884 112.630663 
L 170.107716 112.274164 
L 175.64136 112.274164 
L 175.854193 109.778674 
L 189.688303 109.778674 
L 189.901135 109.422175 
L 192.242292 109.422175 
L 192.455125 109.065676 
L 192.880789 109.065676 
L 193.093622 108.530928 
L 203.30958 108.530928 
L 203.522412 108.352679 
L 204.16091 108.352679 
L 204.373742 108.17443 
L 206.714899 108.17443 
L 207.140564 106.926684 
L 217.99502 106.926684 
L 218.207852 106.748435 
L 292.912045 106.748435 
L 293.124878 101.935703 
L 295.678867 101.935703 
L 295.8917 101.757454 
L 359.528605 101.757454 
L 359.741438 97.657719 
L 368.680401 97.657719 
L 368.893233 97.479469 
L 375.916705 97.479469 
L 375.916705 97.479469 
" clip-path="url(#p7e8de02bfa)" style="fill: none; stroke: #b9db57; stroke-width: 1.2; stroke-linecap: round"/>
   </g>
   <g id="line2d_45">
    <path d="M 69.650795 491.767003 
L 70.07646 490.697507 
L 70.289293 490.697507 
L 70.502125 488.915013 
L 71.566288 488.915013 
L 71.77912 486.597772 
L 72.204785 485.528276 
L 72.63045 485.171777 
L 72.843282 485.171777 
L 73.056115 484.815279 
L 74.758774 484.815279 
L 74.971607 478.576552 
L 75.610104 474.120318 
L 76.035769 472.694324 
L 76.248602 425.636499 
L 76.674267 424.388753 
L 77.099932 424.032255 
L 77.312764 424.032255 
L 77.525596 423.854005 
L 77.738429 405.850822 
L 77.951261 403.355332 
L 78.164094 402.642334 
L 79.228256 402.642334 
L 79.441089 399.255597 
L 79.866754 398.899098 
L 80.079586 398.899098 
L 80.292418 397.294854 
L 80.505251 397.294854 
L 80.718083 397.116605 
L 81.782246 397.116605 
L 81.995078 390.877878 
L 82.207911 390.877878 
L 82.420743 390.699629 
L 82.846408 390.699629 
L 83.05924 390.521379 
L 87.741555 390.521379 
L 87.954387 390.34313 
L 88.380052 259.864615 
L 88.805717 259.864615 
L 89.018549 259.686366 
L 90.295544 259.686366 
L 90.508376 259.151618 
L 99.021675 259.151618 
L 99.234507 258.973369 
L 99.660172 258.973369 
L 99.873005 258.795119 
L 100.085837 237.761698 
L 100.29867 168.244456 
L 100.937167 168.244456 
L 101.149999 168.066207 
L 106.257978 168.066207 
L 106.470811 167.887958 
L 106.683643 167.887958 
L 106.896476 155.945252 
L 112.855785 155.945252 
L 113.068617 152.558515 
L 113.28145 143.289549 
L 113.494282 143.1113 
L 114.345612 143.1113 
L 114.558444 142.93305 
L 124.56157 142.93305 
L 124.774402 136.516074 
L 132.436371 136.516074 
L 132.649203 134.020584 
L 138.608512 134.020584 
L 138.821345 127.247109 
L 139.034177 127.068859 
L 145.631983 127.068859 
L 145.844816 119.047639 
L 150.952795 119.047639 
L 151.165627 116.908647 
L 159.040428 116.908647 
L 159.253261 113.878408 
L 163.50991 113.878408 
L 163.722743 112.808912 
L 171.384711 112.808912 
L 171.597544 109.956923 
L 177.34402 109.956923 
L 177.556852 109.243926 
L 190.113967 109.243926 
L 190.3268 108.887427 
L 198.627266 108.887427 
L 198.840098 107.99618 
L 202.45825 107.99618 
L 202.671083 107.461432 
L 203.522412 107.461432 
L 203.735245 107.283183 
L 209.907386 107.283183 
L 210.120219 105.144191 
L 214.164035 105.144191 
L 214.376868 104.787692 
L 222.038836 104.787692 
L 222.251669 104.252944 
L 229.062308 104.252944 
L 229.27514 104.074695 
L 236.724276 104.074695 
L 236.937109 102.113952 
L 237.149941 101.935703 
L 265.669491 101.935703 
L 265.882323 101.757454 
L 272.054464 101.757454 
L 272.267297 101.222706 
L 286.952737 101.222706 
L 287.165569 100.866207 
L 294.614705 100.866207 
L 294.827538 100.687958 
L 303.553668 100.687958 
L 303.766501 100.509708 
L 305.46916 100.509708 
L 305.894825 100.15321 
L 310.57714 100.15321 
L 310.789972 99.97496 
L 325.262579 99.97496 
L 325.475412 99.796711 
L 328.029401 99.796711 
L 328.242234 99.618462 
L 363.572422 99.618462 
L 363.785254 96.231724 
L 370.170228 96.231724 
L 370.383061 96.053475 
L 375.916705 96.053475 
L 375.916705 96.053475 
" clip-path="url(#p7e8de02bfa)" style="fill: none; stroke: #57db94; stroke-width: 1.2; stroke-linecap: round"/>
   </g>
   <g id="line2d_46">
    <path d="M 69.650795 490.786631 
L 69.863628 488.915013 
L 71.566288 488.915013 
L 71.77912 486.597772 
L 71.991953 486.419523 
L 72.417617 485.528276 
L 72.843282 485.528276 
L 73.056115 485.171777 
L 74.758774 485.171777 
L 75.184439 475.546313 
L 75.397272 459.147374 
L 75.610104 456.295385 
L 75.822937 439.005199 
L 76.035769 435.083714 
L 76.248602 427.418992 
L 76.461434 426.171247 
L 76.674267 420.467268 
L 76.887099 419.397772 
L 77.099932 415.119788 
L 77.312764 414.763289 
L 77.525596 410.485305 
L 77.738429 409.772308 
L 77.951261 406.56382 
L 78.164094 406.56382 
L 78.376926 405.316074 
L 78.589759 405.316074 
L 78.802591 405.137825 
L 79.441089 402.998833 
L 79.866754 402.642334 
L 80.292418 400.859841 
L 80.505251 400.859841 
L 80.718083 399.790345 
L 80.930916 399.612095 
L 81.569413 397.829602 
L 81.782246 396.403607 
L 81.995078 396.403607 
L 82.207911 394.977613 
L 82.420743 394.799363 
L 82.846408 393.729867 
L 83.272073 393.729867 
L 83.484905 392.125623 
L 84.549068 327.955862 
L 84.7619 320.112891 
L 84.974733 318.152149 
L 85.187565 307.457188 
L 85.400397 306.565942 
L 85.61323 303.357454 
L 85.826062 302.644456 
L 86.038895 291.058249 
L 86.251727 289.988753 
L 86.46456 283.215279 
L 86.890225 281.611034 
L 87.103057 281.076286 
L 87.31589 274.83756 
L 87.528722 273.768064 
L 87.954387 261.29061 
L 88.167219 260.042865 
L 88.380052 260.042865 
L 88.592884 258.082122 
L 88.805717 258.082122 
L 89.231382 255.94313 
L 89.444214 255.586631 
L 89.657047 252.734642 
L 89.869879 243.465676 
L 90.082712 243.465676 
L 90.295544 242.752679 
L 90.508376 240.791936 
L 90.721209 226.710239 
L 90.934041 225.284244 
L 91.146874 217.797772 
L 91.359706 217.263024 
L 91.785371 217.263024 
L 91.998204 207.281061 
L 92.211036 206.746313 
L 92.423869 206.568064 
L 92.636701 205.142069 
L 93.062366 190.347374 
L 93.488031 189.456127 
L 93.913696 188.921379 
L 94.126528 188.921379 
L 94.339361 188.74313 
L 94.765026 188.74313 
L 95.190691 187.317135 
L 95.403523 187.138886 
L 95.616356 186.782387 
L 95.829188 184.999894 
L 96.04202 184.821645 
L 96.254853 184.821645 
L 96.467685 184.286897 
L 96.680518 184.108647 
L 96.89335 184.108647 
L 97.106183 183.217401 
L 97.319015 181.256658 
L 97.531848 180.365411 
L 98.170345 180.365411 
L 98.383177 180.187162 
L 98.59601 179.295915 
L 98.808842 177.86992 
L 99.021675 177.691671 
L 99.234507 177.335172 
L 99.44734 174.126684 
L 99.873005 174.126684 
L 100.085837 171.631194 
L 100.29867 171.631194 
L 100.511502 171.452944 
L 100.724335 170.739947 
L 100.937167 166.461963 
L 102.639827 166.461963 
L 102.852659 162.183979 
L 103.065492 162.183979 
L 103.278324 161.470981 
L 103.703989 161.470981 
L 103.916821 161.292732 
L 104.768151 161.292732 
L 104.980984 161.114483 
L 105.193816 161.114483 
L 105.406649 160.401485 
L 105.619481 160.223236 
L 105.832314 160.223236 
L 106.257978 159.866737 
L 107.322141 159.866737 
L 108.173471 157.727745 
L 108.386303 157.727745 
L 108.599136 157.014748 
L 108.811968 156.836499 
L 109.0248 156.48 
L 110.301795 156.48 
L 110.72746 155.945252 
L 111.153125 154.162759 
L 111.365957 154.162759 
L 111.57879 153.271512 
L 111.791622 153.093263 
L 112.004455 152.380265 
L 112.217287 150.241273 
L 112.642952 150.241273 
L 112.855785 148.280531 
L 113.068617 148.280531 
L 113.28145 148.102281 
L 113.707115 148.102281 
L 113.919947 147.567533 
L 114.132779 147.567533 
L 114.345612 146.319788 
L 114.558444 146.141538 
L 114.771277 146.141538 
L 114.984109 145.78504 
L 115.196942 145.78504 
L 115.409774 145.428541 
L 118.815094 145.428541 
L 119.027926 145.250292 
L 119.666423 145.250292 
L 119.879256 145.072042 
L 120.943418 145.072042 
L 121.156251 144.893793 
L 121.581916 144.893793 
L 121.794748 144.180796 
L 122.646078 144.180796 
L 122.85891 143.824297 
L 123.071743 143.824297 
L 123.284575 143.646048 
L 123.497408 143.646048 
L 123.71024 142.398302 
L 124.135905 142.398302 
L 124.348738 142.220053 
L 125.200067 142.220053 
L 125.4129 142.041804 
L 126.477062 142.041804 
L 127.115559 140.25931 
L 127.328392 140.25931 
L 127.541224 139.902812 
L 129.882381 139.902812 
L 130.095214 139.724562 
L 132.010706 139.724562 
L 132.223539 139.368064 
L 135.203193 139.368064 
L 135.416025 138.476817 
L 135.628858 138.476817 
L 135.84169 137.58557 
L 136.480188 137.58557 
L 136.69302 136.694324 
L 136.905853 135.268329 
L 137.118685 135.268329 
L 137.331518 134.555332 
L 137.757182 134.555332 
L 137.970015 133.307586 
L 138.39568 132.772838 
L 139.034177 132.772838 
L 139.459842 131.881592 
L 139.672675 131.881592 
L 140.09834 131.346844 
L 140.311172 131.168594 
L 140.524004 131.168594 
L 140.736837 130.990345 
L 140.949669 130.990345 
L 141.162502 130.455597 
L 141.375334 130.455597 
L 141.588167 129.742599 
L 141.800999 129.742599 
L 142.013832 129.56435 
L 142.226664 129.56435 
L 142.439497 129.207851 
L 142.865161 129.207851 
L 143.077994 127.960106 
L 143.503659 127.960106 
L 143.716491 127.068859 
L 144.354989 127.068859 
L 144.567821 126.177613 
L 144.780654 126.177613 
L 144.993486 125.464615 
L 145.419151 125.464615 
L 145.631983 124.929867 
L 146.908978 124.929867 
L 147.121811 124.751618 
L 147.334643 124.395119 
L 147.547476 124.395119 
L 147.760308 124.21687 
L 148.398805 124.21687 
L 148.611638 123.860371 
L 148.82447 123.860371 
L 149.037303 123.682122 
L 150.52713 123.682122 
L 150.952795 122.969125 
L 151.165627 122.969125 
L 151.37846 122.612626 
L 151.591292 121.364881 
L 152.016957 121.364881 
L 152.22979 121.186631 
L 152.655455 121.186631 
L 152.868287 120.830133 
L 154.358114 120.830133 
L 154.570947 120.651883 
L 154.783779 120.651883 
L 154.996612 120.473634 
L 156.486439 120.473634 
L 156.699271 120.295385 
L 157.124936 120.295385 
L 157.337769 120.117135 
L 158.401931 120.117135 
L 158.614763 119.938886 
L 159.466093 119.938886 
L 159.678926 119.404138 
L 160.317423 119.404138 
L 160.530256 119.225889 
L 160.743088 118.86939 
L 166.702397 118.86939 
L 166.915229 118.691141 
L 167.553727 118.691141 
L 167.766559 118.156393 
L 168.192224 118.156393 
L 168.405057 117.978143 
L 170.107716 117.978143 
L 170.320549 117.799894 
L 170.746214 117.799894 
L 170.959046 116.19565 
L 171.597544 116.19565 
L 171.810376 115.660902 
L 189.049805 115.660902 
L 189.262638 115.482653 
L 189.47547 115.482653 
L 189.688303 115.304403 
L 190.3268 115.304403 
L 190.539632 115.126154 
L 191.17813 115.126154 
L 191.390962 114.947905 
L 193.093622 114.947905 
L 193.306454 114.591406 
L 196.711774 114.591406 
L 196.924606 114.413156 
L 201.60692 114.413156 
L 201.819753 114.234907 
L 203.735245 114.234907 
L 203.948077 114.056658 
L 205.01224 114.056658 
L 205.225072 113.878408 
L 205.863569 113.878408 
L 206.076402 113.700159 
L 206.502067 113.700159 
L 206.927732 113.34366 
L 207.140564 112.808912 
L 208.417559 112.808912 
L 208.843224 112.452414 
L 209.056056 112.452414 
L 209.268889 112.274164 
L 209.481721 112.274164 
L 209.694554 112.095915 
L 210.120219 112.095915 
L 210.333051 111.917666 
L 211.610046 111.917666 
L 211.822878 111.739416 
L 216.718025 111.739416 
L 216.930857 111.561167 
L 217.99502 111.561167 
L 218.207852 111.382918 
L 228.636643 111.382918 
L 228.849475 111.204668 
L 232.893292 111.204668 
L 233.106124 111.026419 
L 233.744622 111.026419 
L 234.170287 110.66992 
L 234.383119 109.778674 
L 234.595951 109.778674 
L 234.808784 109.422175 
L 237.149941 109.422175 
L 237.362773 109.243926 
L 242.896417 109.243926 
L 243.10925 109.065676 
L 269.287642 109.065676 
L 269.500475 108.709178 
L 271.628799 108.709178 
L 271.841632 108.530928 
L 281.419093 108.530928 
L 281.631925 108.352679 
L 282.05759 108.352679 
L 282.483255 107.99618 
L 293.550543 107.99618 
L 293.763375 107.817931 
L 301.851009 107.817931 
L 302.063841 107.639682 
L 305.46916 107.639682 
L 305.681993 107.283183 
L 306.958988 107.283183 
L 307.17182 107.104934 
L 329.944893 107.104934 
L 330.157726 106.926684 
L 330.370558 106.926684 
L 330.796223 106.213687 
L 331.221888 106.213687 
L 331.434721 105.50069 
L 331.860385 105.50069 
L 332.498883 104.965942 
L 349.099815 104.965942 
L 349.312647 104.787692 
L 350.589642 104.787692 
L 350.802474 104.609443 
L 351.015307 104.609443 
L 351.228139 104.252944 
L 353.782129 104.252944 
L 353.994961 104.074695 
L 367.616239 104.074695 
L 367.829071 103.896446 
L 375.916705 103.896446 
L 375.916705 103.896446 
" clip-path="url(#p7e8de02bfa)" style="fill: none; stroke: #5784db; stroke-width: 1.2; stroke-linecap: round"/>
   </g>
   <g id="line2d_47">
    <path d="M 69.650795 490.697507 
L 69.863628 488.915013 
L 71.566288 488.915013 
L 71.991953 485.171777 
L 72.63045 483.745782 
L 72.843282 483.745782 
L 73.056115 483.389284 
L 74.758774 483.389284 
L 75.184439 461.286366 
L 75.397272 453.799894 
L 75.610104 437.222706 
L 76.035769 425.28 
L 76.248602 422.962759 
L 76.674267 415.298037 
L 77.312764 406.38557 
L 77.525596 404.781326 
L 77.738429 401.929337 
L 78.164094 400.503342 
L 78.376926 400.146844 
L 78.589759 400.146844 
L 78.802591 399.433846 
L 79.015424 399.255597 
L 79.228256 397.473103 
L 79.441089 397.473103 
L 79.866754 397.116605 
L 80.292418 395.512361 
L 80.505251 395.512361 
L 80.718083 394.442865 
L 81.143748 393.729867 
L 81.782246 388.738886 
L 82.207911 388.738886 
L 83.05924 387.312891 
L 83.484905 385.708647 
L 84.7619 314.052414 
L 84.974733 311.735172 
L 85.187565 301.218462 
L 85.400397 300.327215 
L 85.61323 297.118727 
L 85.826062 296.405729 
L 86.038895 284.819523 
L 86.251727 283.750027 
L 86.46456 276.976552 
L 86.890225 275.372308 
L 87.103057 274.83756 
L 87.31589 268.598833 
L 87.528722 267.529337 
L 87.954387 254.517135 
L 89.231382 249.347905 
L 89.444214 248.813156 
L 89.657047 245.604668 
L 89.869879 237.405199 
L 90.295544 236.692202 
L 90.508376 234.731459 
L 90.721209 220.649761 
L 90.934041 219.223767 
L 91.146874 211.737294 
L 91.359706 211.202546 
L 91.785371 211.202546 
L 91.998204 201.220584 
L 92.211036 200.685836 
L 92.423869 199.259841 
L 92.636701 187.495385 
L 92.849534 186.782387 
L 93.062366 181.434907 
L 93.488031 180.54366 
L 93.913696 180.008912 
L 94.126528 180.008912 
L 94.339361 179.830663 
L 94.552193 179.830663 
L 95.403523 177.86992 
L 95.616356 177.691671 
L 95.829188 176.087427 
L 96.04202 175.909178 
L 96.254853 175.909178 
L 96.467685 175.37443 
L 96.680518 175.19618 
L 96.89335 175.19618 
L 97.106183 174.304934 
L 97.319015 172.344191 
L 97.531848 171.452944 
L 97.74468 171.452944 
L 97.957513 171.274695 
L 98.383177 171.274695 
L 98.59601 169.492202 
L 98.808842 168.957454 
L 99.021675 168.779204 
L 99.234507 165.035968 
L 99.44734 164.679469 
L 99.660172 162.540477 
L 100.29867 162.005729 
L 100.511502 161.292732 
L 100.724335 156.658249 
L 100.937167 156.48 
L 102.214162 156.48 
L 102.426994 156.123501 
L 102.639827 152.736764 
L 102.852659 151.489019 
L 103.065492 151.310769 
L 103.703989 151.310769 
L 103.916821 151.13252 
L 104.768151 151.13252 
L 104.980984 150.954271 
L 105.406649 150.063024 
L 105.619481 150.063024 
L 105.832314 149.884775 
L 106.045146 149.884775 
L 106.257978 149.706525 
L 107.109308 149.706525 
L 107.322141 149.350027 
L 107.747806 147.745782 
L 107.960638 147.567533 
L 109.0248 145.78504 
L 110.088963 145.78504 
L 110.514628 144.893793 
L 110.72746 143.824297 
L 111.153125 142.93305 
L 111.57879 141.685305 
L 111.791622 140.972308 
L 112.004455 139.011565 
L 112.642952 136.872573 
L 112.855785 136.694324 
L 113.068617 136.694324 
L 113.919947 135.981326 
L 114.132779 134.733581 
L 114.345612 134.733581 
L 114.558444 134.377082 
L 114.771277 134.377082 
L 115.196942 133.842334 
L 116.473937 133.842334 
L 116.686769 133.664085 
L 118.602261 133.664085 
L 118.815094 133.485836 
L 119.666423 133.485836 
L 119.879256 133.307586 
L 120.517753 133.307586 
L 120.730586 132.951088 
L 121.581916 132.951088 
L 121.794748 132.23809 
L 122.433245 132.23809 
L 122.85891 131.703342 
L 123.284575 131.703342 
L 123.497408 130.455597 
L 123.71024 130.277347 
L 124.135905 130.277347 
L 124.348738 130.099098 
L 124.987235 130.099098 
L 125.200067 129.920849 
L 126.26423 129.920849 
L 126.477062 129.386101 
L 126.689895 129.207851 
L 127.115559 128.138355 
L 127.541224 127.781857 
L 127.754057 127.781857 
L 127.966889 127.603607 
L 129.669549 127.603607 
L 129.882381 127.425358 
L 131.585041 127.425358 
L 131.797874 127.068859 
L 134.777528 127.068859 
L 135.203193 125.999363 
L 135.416025 125.821114 
L 135.628858 125.286366 
L 135.84169 125.108117 
L 136.267355 125.108117 
L 136.480188 124.751618 
L 136.905853 122.612626 
L 137.118685 122.077878 
L 137.331518 121.899629 
L 137.54435 121.899629 
L 137.757182 120.830133 
L 138.39568 120.295385 
L 138.608512 120.295385 
L 138.821345 120.117135 
L 139.24701 119.225889 
L 139.885507 118.691141 
L 140.09834 118.691141 
L 140.311172 118.334642 
L 140.524004 118.334642 
L 140.736837 118.156393 
L 141.375334 117.086897 
L 141.800999 117.086897 
L 142.439497 116.552149 
L 142.652329 115.660902 
L 142.865161 115.660902 
L 143.077994 114.769655 
L 143.503659 114.234907 
L 144.142156 114.234907 
L 144.567821 113.165411 
L 144.780654 112.630663 
L 145.206319 112.630663 
L 145.631983 112.095915 
L 146.483313 112.095915 
L 146.696146 111.917666 
L 146.908978 111.917666 
L 147.121811 111.739416 
L 147.334643 111.382918 
L 148.185973 111.382918 
L 148.611638 111.026419 
L 148.82447 111.026419 
L 149.037303 110.84817 
L 150.101465 110.84817 
L 150.52713 110.491671 
L 150.739962 110.135172 
L 150.952795 110.135172 
L 151.165627 109.778674 
L 151.591292 108.530928 
L 152.22979 108.530928 
L 152.442622 108.352679 
L 152.655455 108.352679 
L 152.868287 108.17443 
L 154.358114 108.17443 
L 154.570947 107.99618 
L 154.783779 107.99618 
L 154.996612 107.817931 
L 156.273606 107.817931 
L 156.486439 107.639682 
L 157.124936 107.639682 
L 157.337769 107.461432 
L 158.189099 107.461432 
L 158.401931 107.104934 
L 159.040428 107.104934 
L 159.253261 106.926684 
L 159.466093 106.391936 
L 160.104591 106.391936 
L 160.317423 106.213687 
L 160.530256 106.213687 
L 160.743088 105.857188 
L 166.702397 105.857188 
L 166.915229 105.678939 
L 167.340894 105.678939 
L 167.553727 104.965942 
L 168.192224 104.965942 
L 168.405057 104.787692 
L 169.894884 104.787692 
L 170.107716 104.609443 
L 170.320549 104.609443 
L 170.533381 104.431194 
L 170.746214 103.183448 
L 171.171879 102.6487 
L 171.384711 102.6487 
L 171.597544 102.470451 
L 171.810376 101.935703 
L 189.049805 101.935703 
L 189.262638 101.757454 
L 189.47547 101.757454 
L 189.688303 101.579204 
L 190.3268 101.579204 
L 190.539632 101.400955 
L 190.965297 101.400955 
L 191.17813 101.222706 
L 192.880789 101.222706 
L 193.093622 100.687958 
L 201.60692 100.687958 
L 201.819753 100.509708 
L 203.735245 100.509708 
L 203.948077 100.331459 
L 205.01224 100.331459 
L 205.225072 100.15321 
L 205.863569 100.15321 
L 206.076402 99.97496 
L 206.289234 99.97496 
L 206.502067 99.796711 
L 206.714899 99.796711 
L 206.927732 99.618462 
L 207.140564 99.083714 
L 208.417559 99.083714 
L 208.843224 98.727215 
L 209.056056 98.727215 
L 209.481721 98.370716 
L 210.120219 98.370716 
L 210.333051 98.192467 
L 211.610046 98.192467 
L 211.822878 98.014218 
L 216.718025 98.014218 
L 216.930857 97.835968 
L 217.99502 97.835968 
L 218.207852 97.479469 
L 228.42381 97.479469 
L 228.636643 97.30122 
L 232.893292 97.30122 
L 233.106124 97.122971 
L 233.744622 97.122971 
L 233.957454 96.944721 
L 234.170287 95.875225 
L 234.383119 95.696976 
L 234.595951 95.696976 
L 234.808784 95.340477 
L 236.937109 95.340477 
L 237.149941 95.162228 
L 242.683585 95.162228 
L 242.896417 94.983979 
L 243.747747 94.983979 
L 243.96058 94.805729 
L 269.287642 94.805729 
L 269.500475 94.449231 
L 271.628799 94.449231 
L 271.841632 94.270981 
L 281.419093 94.270981 
L 281.631925 94.092732 
L 282.05759 94.092732 
L 282.270422 93.736233 
L 293.33771 93.736233 
L 293.550543 93.557984 
L 301.638176 93.557984 
L 301.851009 93.379735 
L 305.46916 93.379735 
L 305.681993 93.023236 
L 306.746155 93.023236 
L 306.958988 92.844987 
L 329.944893 92.844987 
L 330.157726 92.666737 
L 330.583391 91.775491 
L 331.009056 91.775491 
L 331.221888 91.240743 
L 331.434721 91.062493 
L 331.647553 91.062493 
L 331.860385 90.884244 
L 332.28605 90.349496 
L 348.886982 90.349496 
L 349.099815 90.171247 
L 350.589642 90.171247 
L 351.228139 89.636499 
L 353.782129 89.636499 
L 353.994961 89.458249 
L 367.403406 89.458249 
L 367.616239 89.28 
L 375.916705 89.28 
L 375.916705 89.28 
" clip-path="url(#p7e8de02bfa)" style="fill: none; stroke: #c957db; stroke-width: 1.2; stroke-linecap: round"/>
   </g>
   <g id="line2d_48"/>
   <g id="line2d_49"/>
   <g id="line2d_50"/>
   <g id="line2d_51"/>
   <g id="line2d_52"/>
   <g id="patch_3">
    <path d="M 54.3375 512.64 
L 54.3375 69.12 
" style="fill: none; stroke: #cccccc; stroke-linejoin: miter; stroke-linecap: square"/>
   </g>
   <g id="patch_4">
    <path d="M 54.3375 512.64 
L 391.23 512.64 
" style="fill: none; stroke: #cccccc; stroke-linejoin: miter; stroke-linecap: square"/>
   </g>
   <g id="text_45">
    <!-- Edge Coverage History -->
    <g style="fill: #262626" transform="translate(115.892262 63.12)scale(0.165888 -0.165888)">
     <defs>
      <path id="DejaVuSans-Bold-45" d="M 588 4666 
L 3834 4666 
L 3834 3756 
L 1791 3756 
L 1791 2888 
L 3713 2888 
L 3713 1978 
L 1791 1978 
L 1791 909 
L 3903 909 
L 3903 0 
L 588 0 
L 588 4666 
z
" transform="scale(0.015625)"/>
      <path id="DejaVuSans-Bold-64" d="M 2919 2988 
L 2919 4863 
L 4044 4863 
L 4044 0 
L 2919 0 
L 2919 506 
Q 2688 197 2409 53 
Q 2131 -91 1766 -91 
Q 1119 -91 703 423 
Q 288 938 288 1747 
Q 288 2556 703 3070 
Q 1119 3584 1766 3584 
Q 2128 3584 2408 3439 
Q 2688 3294 2919 2988 
z
M 2181 722 
Q 2541 722 2730 984 
Q 2919 1247 2919 1747 
Q 2919 2247 2730 2509 
Q 2541 2772 2181 2772 
Q 1825 2772 1636 2509 
Q 1447 2247 1447 1747 
Q 1447 1247 1636 984 
Q 1825 722 2181 722 
z
" transform="scale(0.015625)"/>
      <path id="DejaVuSans-Bold-67" d="M 2919 594 
Q 2688 288 2409 144 
Q 2131 0 1766 0 
Q 1125 0 706 504 
Q 288 1009 288 1791 
Q 288 2575 706 3076 
Q 1125 3578 1766 3578 
Q 2131 3578 2409 3434 
Q 2688 3291 2919 2981 
L 2919 3500 
L 4044 3500 
L 4044 353 
Q 4044 -491 3511 -936 
Q 2978 -1381 1966 -1381 
Q 1638 -1381 1331 -1331 
Q 1025 -1281 716 -1178 
L 716 -306 
Q 1009 -475 1290 -558 
Q 1572 -641 1856 -641 
Q 2406 -641 2662 -400 
Q 2919 -159 2919 353 
L 2919 594 
z
M 2181 2772 
Q 1834 2772 1640 2515 
Q 1447 2259 1447 1791 
Q 1447 1309 1634 1061 
Q 1822 813 2181 813 
Q 2531 813 2725 1069 
Q 2919 1325 2919 1791 
Q 2919 2259 2725 2515 
Q 2531 2772 2181 2772 
z
" transform="scale(0.015625)"/>
      <path id="DejaVuSans-Bold-65" d="M 4031 1759 
L 4031 1441 
L 1416 1441 
Q 1456 1047 1700 850 
Q 1944 653 2381 653 
Q 2734 653 3104 758 
Q 3475 863 3866 1075 
L 3866 213 
Q 3469 63 3072 -14 
Q 2675 -91 2278 -91 
Q 1328 -91 801 392 
Q 275 875 275 1747 
Q 275 2603 792 3093 
Q 1309 3584 2216 3584 
Q 3041 3584 3536 3087 
Q 4031 2591 4031 1759 
z
M 2881 2131 
Q 2881 2450 2695 2645 
Q 2509 2841 2209 2841 
Q 1884 2841 1681 2658 
Q 1478 2475 1428 2131 
L 2881 2131 
z
" transform="scale(0.015625)"/>
      <path id="DejaVuSans-Bold-20" transform="scale(0.015625)"/>
      <path id="DejaVuSans-Bold-43" d="M 4288 256 
Q 3956 84 3597 -3 
Q 3238 -91 2847 -91 
Q 1681 -91 1000 561 
Q 319 1213 319 2328 
Q 319 3447 1000 4098 
Q 1681 4750 2847 4750 
Q 3238 4750 3597 4662 
Q 3956 4575 4288 4403 
L 4288 3438 
Q 3953 3666 3628 3772 
Q 3303 3878 2944 3878 
Q 2300 3878 1931 3465 
Q 1563 3053 1563 2328 
Q 1563 1606 1931 1193 
Q 2300 781 2944 781 
Q 3303 781 3628 887 
Q 3953 994 4288 1222 
L 4288 256 
z
" transform="scale(0.015625)"/>
      <path id="DejaVuSans-Bold-6f" d="M 2203 2784 
Q 1831 2784 1636 2517 
Q 1441 2250 1441 1747 
Q 1441 1244 1636 976 
Q 1831 709 2203 709 
Q 2569 709 2762 976 
Q 2956 1244 2956 1747 
Q 2956 2250 2762 2517 
Q 2569 2784 2203 2784 
z
M 2203 3584 
Q 3106 3584 3614 3096 
Q 4122 2609 4122 1747 
Q 4122 884 3614 396 
Q 3106 -91 2203 -91 
Q 1297 -91 786 396 
Q 275 884 275 1747 
Q 275 2609 786 3096 
Q 1297 3584 2203 3584 
z
" transform="scale(0.015625)"/>
      <path id="DejaVuSans-Bold-76" d="M 97 3500 
L 1216 3500 
L 2088 1081 
L 2956 3500 
L 4078 3500 
L 2700 0 
L 1472 0 
L 97 3500 
z
" transform="scale(0.015625)"/>
      <path id="DejaVuSans-Bold-72" d="M 3138 2547 
Q 2991 2616 2845 2648 
Q 2700 2681 2553 2681 
Q 2122 2681 1889 2404 
Q 1656 2128 1656 1613 
L 1656 0 
L 538 0 
L 538 3500 
L 1656 3500 
L 1656 2925 
Q 1872 3269 2151 3426 
Q 2431 3584 2822 3584 
Q 2878 3584 2943 3579 
Q 3009 3575 3134 3559 
L 3138 2547 
z
" transform="scale(0.015625)"/>
      <path id="DejaVuSans-Bold-61" d="M 2106 1575 
Q 1756 1575 1579 1456 
Q 1403 1338 1403 1106 
Q 1403 894 1545 773 
Q 1688 653 1941 653 
Q 2256 653 2472 879 
Q 2688 1106 2688 1447 
L 2688 1575 
L 2106 1575 
z
M 3816 1997 
L 3816 0 
L 2688 0 
L 2688 519 
Q 2463 200 2181 54 
Q 1900 -91 1497 -91 
Q 953 -91 614 226 
Q 275 544 275 1050 
Q 275 1666 698 1953 
Q 1122 2241 2028 2241 
L 2688 2241 
L 2688 2328 
Q 2688 2594 2478 2717 
Q 2269 2841 1825 2841 
Q 1466 2841 1156 2769 
Q 847 2697 581 2553 
L 581 3406 
Q 941 3494 1303 3539 
Q 1666 3584 2028 3584 
Q 2975 3584 3395 3211 
Q 3816 2838 3816 1997 
z
" transform="scale(0.015625)"/>
      <path id="DejaVuSans-Bold-48" d="M 588 4666 
L 1791 4666 
L 1791 2888 
L 3566 2888 
L 3566 4666 
L 4769 4666 
L 4769 0 
L 3566 0 
L 3566 1978 
L 1791 1978 
L 1791 0 
L 588 0 
L 588 4666 
z
" transform="scale(0.015625)"/>
      <path id="DejaVuSans-Bold-69" d="M 538 3500 
L 1656 3500 
L 1656 0 
L 538 0 
L 538 3500 
z
M 538 4863 
L 1656 4863 
L 1656 3950 
L 538 3950 
L 538 4863 
z
" transform="scale(0.015625)"/>
      <path id="DejaVuSans-Bold-73" d="M 3272 3391 
L 3272 2541 
Q 2913 2691 2578 2766 
Q 2244 2841 1947 2841 
Q 1628 2841 1473 2761 
Q 1319 2681 1319 2516 
Q 1319 2381 1436 2309 
Q 1553 2238 1856 2203 
L 2053 2175 
Q 2913 2066 3209 1816 
Q 3506 1566 3506 1031 
Q 3506 472 3093 190 
Q 2681 -91 1863 -91 
Q 1516 -91 1145 -36 
Q 775 19 384 128 
L 384 978 
Q 719 816 1070 734 
Q 1422 653 1784 653 
Q 2113 653 2278 743 
Q 2444 834 2444 1013 
Q 2444 1163 2330 1236 
Q 2216 1309 1875 1350 
L 1678 1375 
Q 931 1469 631 1722 
Q 331 1975 331 2491 
Q 331 3047 712 3315 
Q 1094 3584 1881 3584 
Q 2191 3584 2531 3537 
Q 2872 3491 3272 3391 
z
" transform="scale(0.015625)"/>
      <path id="DejaVuSans-Bold-74" d="M 1759 4494 
L 1759 3500 
L 2913 3500 
L 2913 2700 
L 1759 2700 
L 1759 1216 
Q 1759 972 1856 886 
Q 1953 800 2241 800 
L 2816 800 
L 2816 0 
L 1856 0 
Q 1194 0 917 276 
Q 641 553 641 1216 
L 641 2700 
L 84 2700 
L 84 3500 
L 641 3500 
L 641 4494 
L 1759 4494 
z
" transform="scale(0.015625)"/>
      <path id="DejaVuSans-Bold-79" d="M 78 3500 
L 1197 3500 
L 2138 1125 
L 2938 3500 
L 4056 3500 
L 2584 -331 
Q 2363 -916 2067 -1148 
Q 1772 -1381 1288 -1381 
L 641 -1381 
L 641 -647 
L 991 -647 
Q 1275 -647 1404 -556 
Q 1534 -466 1606 -231 
L 1638 -134 
L 78 3500 
z
" transform="scale(0.015625)"/>
     </defs>
     <use xlink:href="#DejaVuSans-Bold-45"/>
     <use xlink:href="#DejaVuSans-Bold-64" x="68.310547"/>
     <use xlink:href="#DejaVuSans-Bold-67" x="139.892578"/>
     <use xlink:href="#DejaVuSans-Bold-65" x="211.474609"/>
     <use xlink:href="#DejaVuSans-Bold-20" x="279.296875"/>
     <use xlink:href="#DejaVuSans-Bold-43" x="314.111328"/>
     <use xlink:href="#DejaVuSans-Bold-6f" x="387.5"/>
     <use xlink:href="#DejaVuSans-Bold-76" x="456.201172"/>
     <use xlink:href="#DejaVuSans-Bold-65" x="521.386719"/>
     <use xlink:href="#DejaVuSans-Bold-72" x="589.208984"/>
     <use xlink:href="#DejaVuSans-Bold-61" x="638.525391"/>
     <use xlink:href="#DejaVuSans-Bold-67" x="706.005859"/>
     <use xlink:href="#DejaVuSans-Bold-65" x="777.587891"/>
     <use xlink:href="#DejaVuSans-Bold-20" x="845.410156"/>
     <use xlink:href="#DejaVuSans-Bold-48" x="880.224609"/>
     <use xlink:href="#DejaVuSans-Bold-69" x="963.916016"/>
     <use xlink:href="#DejaVuSans-Bold-73" x="998.193359"/>
     <use xlink:href="#DejaVuSans-Bold-74" x="1057.714844"/>
     <use xlink:href="#DejaVuSans-Bold-6f" x="1105.517578"/>
     <use xlink:href="#DejaVuSans-Bold-72" x="1174.21875"/>
     <use xlink:href="#DejaVuSans-Bold-79" x="1223.535156"/>
    </g>
   </g>
   <g id="legend_1">
    <g id="patch_5">
     <path d="M 267.942 508.24 
L 385.07 508.24 
Q 386.83 508.24 386.83 506.48 
L 386.83 428.8405 
Q 386.83 427.0805 385.07 427.0805 
L 267.942 427.0805 
Q 266.182 427.0805 266.182 428.8405 
L 266.182 506.48 
Q 266.182 508.24 267.942 508.24 
z
" style="fill: #ffffff; opacity: 0.8; stroke: #cccccc; stroke-width: 0.8; stroke-linejoin: miter"/>
    </g>
    <g id="text_46">
     <!-- fuzzer -->
     <g style="fill: #262626" transform="translate(311.809 437.895)scale(0.096 -0.096)">
      <defs>
       <path id="DejaVuSans-66" d="M 2375 4863 
L 2375 4384 
L 1825 4384 
Q 1516 4384 1395 4259 
Q 1275 4134 1275 3809 
L 1275 3500 
L 2222 3500 
L 2222 3053 
L 1275 3053 
L 1275 0 
L 697 0 
L 697 3053 
L 147 3053 
L 147 3500 
L 697 3500 
L 697 3744 
Q 697 4328 969 4595 
Q 1241 4863 1831 4863 
L 2375 4863 
z
" transform="scale(0.015625)"/>
       <path id="DejaVuSans-7a" d="M 353 3500 
L 3084 3500 
L 3084 2975 
L 922 459 
L 3084 459 
L 3084 0 
L 275 0 
L 275 525 
L 2438 3041 
L 353 3041 
L 353 3500 
z
" transform="scale(0.015625)"/>
      </defs>
      <use xlink:href="#DejaVuSans-66"/>
      <use xlink:href="#DejaVuSans-75" x="35.205078"/>
      <use xlink:href="#DejaVuSans-7a" x="98.583984"/>
      <use xlink:href="#DejaVuSans-7a" x="151.074219"/>
      <use xlink:href="#DejaVuSans-65" x="203.564453"/>
      <use xlink:href="#DejaVuSans-72" x="265.087891"/>
     </g>
    </g>
    <g id="line2d_53">
     <path d="M 269.702 447.898125 
L 278.502 447.898125 
L 287.302 447.898125 
" style="fill: none; stroke: #db5f57; stroke-width: 1.2; stroke-linecap: round"/>
    </g>
    <g id="text_47">
     <!-- fairfuzz-0-exid22 -->
     <g style="fill: #262626" transform="translate(294.342 450.978125)scale(0.088 -0.088)">
      <defs>
       <path id="DejaVuSans-2d" d="M 313 2009 
L 1997 2009 
L 1997 1497 
L 313 1497 
L 313 2009 
z
" transform="scale(0.015625)"/>
       <path id="DejaVuSans-78" d="M 3513 3500 
L 2247 1797 
L 3578 0 
L 2900 0 
L 1881 1375 
L 863 0 
L 184 0 
L 1544 1831 
L 300 3500 
L 978 3500 
L 1906 2253 
L 2834 3500 
L 3513 3500 
z
" transform="scale(0.015625)"/>
      </defs>
      <use xlink:href="#DejaVuSans-66"/>
      <use xlink:href="#DejaVuSans-61" x="35.205078"/>
      <use xlink:href="#DejaVuSans-69" x="96.484375"/>
      <use xlink:href="#DejaVuSans-72" x="124.267578"/>
      <use xlink:href="#DejaVuSans-66" x="165.380859"/>
      <use xlink:href="#DejaVuSans-75" x="200.585938"/>
      <use xlink:href="#DejaVuSans-7a" x="263.964844"/>
      <use xlink:href="#DejaVuSans-7a" x="316.455078"/>
      <use xlink:href="#DejaVuSans-2d" x="368.945312"/>
      <use xlink:href="#DejaVuSans-30" x="405.029297"/>
      <use xlink:href="#DejaVuSans-2d" x="468.652344"/>
      <use xlink:href="#DejaVuSans-65" x="504.736328"/>
      <use xlink:href="#DejaVuSans-78" x="564.509766"/>
      <use xlink:href="#DejaVuSans-69" x="623.689453"/>
      <use xlink:href="#DejaVuSans-64" x="651.472656"/>
      <use xlink:href="#DejaVuSans-32" x="714.949219"/>
      <use xlink:href="#DejaVuSans-32" x="778.572266"/>
     </g>
    </g>
    <g id="line2d_54">
     <path d="M 269.702 460.814875 
L 278.502 460.814875 
L 287.302 460.814875 
" style="fill: none; stroke: #b9db57; stroke-width: 1.2; stroke-linecap: round"/>
    </g>
    <g id="text_48">
     <!-- aflplusplus-0-exid22 -->
     <g style="fill: #262626" transform="translate(294.342 463.894875)scale(0.088 -0.088)">
      <defs>
       <path id="DejaVuSans-6c" d="M 603 4863 
L 1178 4863 
L 1178 0 
L 603 0 
L 603 4863 
z
" transform="scale(0.015625)"/>
       <path id="DejaVuSans-70" d="M 1159 525 
L 1159 -1331 
L 581 -1331 
L 581 3500 
L 1159 3500 
L 1159 2969 
Q 1341 3281 1617 3432 
Q 1894 3584 2278 3584 
Q 2916 3584 3314 3078 
Q 3713 2572 3713 1747 
Q 3713 922 3314 415 
Q 2916 -91 2278 -91 
Q 1894 -91 1617 61 
Q 1341 213 1159 525 
z
M 3116 1747 
Q 3116 2381 2855 2742 
Q 2594 3103 2138 3103 
Q 1681 3103 1420 2742 
Q 1159 2381 1159 1747 
Q 1159 1113 1420 752 
Q 1681 391 2138 391 
Q 2594 391 2855 752 
Q 3116 1113 3116 1747 
z
" transform="scale(0.015625)"/>
      </defs>
      <use xlink:href="#DejaVuSans-61"/>
      <use xlink:href="#DejaVuSans-66" x="61.279297"/>
      <use xlink:href="#DejaVuSans-6c" x="96.484375"/>
      <use xlink:href="#DejaVuSans-70" x="124.267578"/>
      <use xlink:href="#DejaVuSans-6c" x="187.744141"/>
      <use xlink:href="#DejaVuSans-75" x="215.527344"/>
      <use xlink:href="#DejaVuSans-73" x="278.90625"/>
      <use xlink:href="#DejaVuSans-70" x="331.005859"/>
      <use xlink:href="#DejaVuSans-6c" x="394.482422"/>
      <use xlink:href="#DejaVuSans-75" x="422.265625"/>
      <use xlink:href="#DejaVuSans-73" x="485.644531"/>
      <use xlink:href="#DejaVuSans-2d" x="537.744141"/>
      <use xlink:href="#DejaVuSans-30" x="573.828125"/>
      <use xlink:href="#DejaVuSans-2d" x="637.451172"/>
      <use xlink:href="#DejaVuSans-65" x="673.535156"/>
      <use xlink:href="#DejaVuSans-78" x="733.308594"/>
      <use xlink:href="#DejaVuSans-69" x="792.488281"/>
      <use xlink:href="#DejaVuSans-64" x="820.271484"/>
      <use xlink:href="#DejaVuSans-32" x="883.748047"/>
      <use xlink:href="#DejaVuSans-32" x="947.371094"/>
     </g>
    </g>
    <g id="line2d_55">
     <path d="M 269.702 473.731625 
L 278.502 473.731625 
L 287.302 473.731625 
" style="fill: none; stroke: #57db94; stroke-width: 1.2; stroke-linecap: round"/>
    </g>
    <g id="text_49">
     <!-- aflfast-0-exid22 -->
     <g style="fill: #262626" transform="translate(294.342 476.811625)scale(0.088 -0.088)">
      <use xlink:href="#DejaVuSans-61"/>
      <use xlink:href="#DejaVuSans-66" x="61.279297"/>
      <use xlink:href="#DejaVuSans-6c" x="96.484375"/>
      <use xlink:href="#DejaVuSans-66" x="124.267578"/>
      <use xlink:href="#DejaVuSans-61" x="159.472656"/>
      <use xlink:href="#DejaVuSans-73" x="220.751953"/>
      <use xlink:href="#DejaVuSans-74" x="272.851562"/>
      <use xlink:href="#DejaVuSans-2d" x="312.060547"/>
      <use xlink:href="#DejaVuSans-30" x="348.144531"/>
      <use xlink:href="#DejaVuSans-2d" x="411.767578"/>
      <use xlink:href="#DejaVuSans-65" x="447.851562"/>
      <use xlink:href="#DejaVuSans-78" x="507.625"/>
      <use xlink:href="#DejaVuSans-69" x="566.804688"/>
      <use xlink:href="#DejaVuSans-64" x="594.587891"/>
      <use xlink:href="#DejaVuSans-32" x="658.064453"/>
      <use xlink:href="#DejaVuSans-32" x="721.6875"/>
     </g>
    </g>
    <g id="line2d_56">
     <path d="M 269.702 486.648375 
L 278.502 486.648375 
L 287.302 486.648375 
" style="fill: none; stroke: #5784db; stroke-width: 1.2; stroke-linecap: round"/>
    </g>
    <g id="text_50">
     <!-- afl-0-exid22 -->
     <g style="fill: #262626" transform="translate(294.342 489.728375)scale(0.088 -0.088)">
      <use xlink:href="#DejaVuSans-61"/>
      <use xlink:href="#DejaVuSans-66" x="61.279297"/>
      <use xlink:href="#DejaVuSans-6c" x="96.484375"/>
      <use xlink:href="#DejaVuSans-2d" x="124.267578"/>
      <use xlink:href="#DejaVuSans-30" x="160.351562"/>
      <use xlink:href="#DejaVuSans-2d" x="223.974609"/>
      <use xlink:href="#DejaVuSans-65" x="260.058594"/>
      <use xlink:href="#DejaVuSans-78" x="319.832031"/>
      <use xlink:href="#DejaVuSans-69" x="379.011719"/>
      <use xlink:href="#DejaVuSans-64" x="406.794922"/>
      <use xlink:href="#DejaVuSans-32" x="470.271484"/>
      <use xlink:href="#DejaVuSans-32" x="533.894531"/>
     </g>
    </g>
    <g id="line2d_57">
     <path d="M 269.702 499.565125 
L 278.502 499.565125 
L 287.302 499.565125 
" style="fill: none; stroke: #c957db; stroke-width: 1.2; stroke-linecap: round"/>
    </g>
    <g id="text_51">
     <!-- fuzzer_global -->
     <g style="fill: #262626" transform="translate(294.342 502.645125)scale(0.088 -0.088)">
      <defs>
       <path id="DejaVuSans-5f" d="M 3263 -1063 
L 3263 -1509 
L -63 -1509 
L -63 -1063 
L 3263 -1063 
z
" transform="scale(0.015625)"/>
       <path id="DejaVuSans-62" d="M 3116 1747 
Q 3116 2381 2855 2742 
Q 2594 3103 2138 3103 
Q 1681 3103 1420 2742 
Q 1159 2381 1159 1747 
Q 1159 1113 1420 752 
Q 1681 391 2138 391 
Q 2594 391 2855 752 
Q 3116 1113 3116 1747 
z
M 1159 2969 
Q 1341 3281 1617 3432 
Q 1894 3584 2278 3584 
Q 2916 3584 3314 3078 
Q 3713 2572 3713 1747 
Q 3713 922 3314 415 
Q 2916 -91 2278 -91 
Q 1894 -91 1617 61 
Q 1341 213 1159 525 
L 1159 0 
L 581 0 
L 581 4863 
L 1159 4863 
L 1159 2969 
z
" transform="scale(0.015625)"/>
      </defs>
      <use xlink:href="#DejaVuSans-66"/>
      <use xlink:href="#DejaVuSans-75" x="35.205078"/>
      <use xlink:href="#DejaVuSans-7a" x="98.583984"/>
      <use xlink:href="#DejaVuSans-7a" x="151.074219"/>
      <use xlink:href="#DejaVuSans-65" x="203.564453"/>
      <use xlink:href="#DejaVuSans-72" x="265.087891"/>
      <use xlink:href="#DejaVuSans-5f" x="306.201172"/>
      <use xlink:href="#DejaVuSans-67" x="356.201172"/>
      <use xlink:href="#DejaVuSans-6c" x="419.677734"/>
      <use xlink:href="#DejaVuSans-6f" x="447.460938"/>
      <use xlink:href="#DejaVuSans-62" x="508.642578"/>
      <use xlink:href="#DejaVuSans-61" x="572.119141"/>
      <use xlink:href="#DejaVuSans-6c" x="633.398438"/>
     </g>
    </g>
   </g>
  </g>
 </g>
 <defs>
  <clipPath id="p7e8de02bfa">
   <rect x="54.3375" y="69.12" width="336.8925" height="443.52"/>
  </clipPath>
 </defs>
</svg>
