<?xml version="1.0" encoding="utf-8" standalone="no"?>
<!DOCTYPE svg PUBLIC "-//W3C//DTD SVG 1.1//EN"
  "http://www.w3.org/Graphics/SVG/1.1/DTD/svg11.dtd">
<svg xmlns:xlink="http://www.w3.org/1999/xlink" width="434.7pt" height="576pt" viewBox="0 0 434.7 576" xmlns="http://www.w3.org/2000/svg" version="1.1">
 <metadata>
  <rdf:RDF xmlns:dc="http://purl.org/dc/elements/1.1/" xmlns:cc="http://creativecommons.org/ns#" xmlns:rdf="http://www.w3.org/1999/02/22-rdf-syntax-ns#">
   <cc:Work>
    <dc:type rdf:resource="http://purl.org/dc/dcmitype/StillImage"/>
    <dc:date>2022-09-15T11:36:37.806736</dc:date>
    <dc:format>image/svg+xml</dc:format>
    <dc:creator>
     <cc:Agent>
      <dc:title>Matplotlib v3.5.3, https://matplotlib.org/</dc:title>
     </cc:Agent>
    </dc:creator>
   </cc:Work>
  </rdf:RDF>
 </metadata>
 <defs>
  <style type="text/css">*{stroke-linejoin: round; stroke-linecap: butt}</style>
 </defs>
 <g id="figure_1">
  <g id="patch_1">
   <path d="M 0 576 
L 434.7 576 
L 434.7 0 
L 0 0 
z
" style="fill: #ffffff"/>
  </g>
  <g id="axes_1">
   <g id="patch_2">
    <path d="M 54.3375 512.64 
L 391.23 512.64 
L 391.23 69.12 
L 54.3375 69.12 
z
" style="fill: #ffffff"/>
   </g>
   <g id="matplotlib.axis_1">
    <g id="xtick_1">
     <g id="line2d_1">
      <path d="M 69.650795 512.64 
L 69.650795 69.12 
" clip-path="url(#pc0c635399c)" style="fill: none; stroke: #cccccc; stroke-width: 0.8; stroke-linecap: round"/>
     </g>
     <g id="text_1">
      <!-- 0 -->
      <g style="fill: #262626" transform="translate(69.388282 529.627249)rotate(-45)scale(0.088 -0.088)">
       <defs>
        <path id="DejaVuSans-30" d="M 2034 4250 
Q 1547 4250 1301 3770 
Q 1056 3291 1056 2328 
Q 1056 1369 1301 889 
Q 1547 409 2034 409 
Q 2525 409 2770 889 
Q 3016 1369 3016 2328 
Q 3016 3291 2770 3770 
Q 2525 4250 2034 4250 
z
M 2034 4750 
Q 2819 4750 3233 4129 
Q 3647 3509 3647 2328 
Q 3647 1150 3233 529 
Q 2819 -91 2034 -91 
Q 1250 -91 836 529 
Q 422 1150 422 2328 
Q 422 3509 836 4129 
Q 1250 4750 2034 4750 
z
" transform="scale(0.015625)"/>
       </defs>
       <use xlink:href="#DejaVuSans-30"/>
      </g>
     </g>
    </g>
    <g id="xtick_2">
     <g id="line2d_2">
      <path d="M 86.677392 512.64 
L 86.677392 69.12 
" clip-path="url(#pc0c635399c)" style="fill: none; stroke: #cccccc; stroke-width: 0.8; stroke-linecap: round"/>
     </g>
     <g id="text_2">
      <!-- 80 -->
      <g style="fill: #262626" transform="translate(84.435333 533.58634)rotate(-45)scale(0.088 -0.088)">
       <defs>
        <path id="DejaVuSans-38" d="M 2034 2216 
Q 1584 2216 1326 1975 
Q 1069 1734 1069 1313 
Q 1069 891 1326 650 
Q 1584 409 2034 409 
Q 2484 409 2743 651 
Q 3003 894 3003 1313 
Q 3003 1734 2745 1975 
Q 2488 2216 2034 2216 
z
M 1403 2484 
Q 997 2584 770 2862 
Q 544 3141 544 3541 
Q 544 4100 942 4425 
Q 1341 4750 2034 4750 
Q 2731 4750 3128 4425 
Q 3525 4100 3525 3541 
Q 3525 3141 3298 2862 
Q 3072 2584 2669 2484 
Q 3125 2378 3379 2068 
Q 3634 1759 3634 1313 
Q 3634 634 3220 271 
Q 2806 -91 2034 -91 
Q 1263 -91 848 271 
Q 434 634 434 1313 
Q 434 1759 690 2068 
Q 947 2378 1403 2484 
z
M 1172 3481 
Q 1172 3119 1398 2916 
Q 1625 2713 2034 2713 
Q 2441 2713 2670 2916 
Q 2900 3119 2900 3481 
Q 2900 3844 2670 4047 
Q 2441 4250 2034 4250 
Q 1625 4250 1398 4047 
Q 1172 3844 1172 3481 
z
" transform="scale(0.015625)"/>
       </defs>
       <use xlink:href="#DejaVuSans-38"/>
       <use xlink:href="#DejaVuSans-30" x="63.623047"/>
      </g>
     </g>
    </g>
    <g id="xtick_3">
     <g id="line2d_3">
      <path d="M 103.703989 512.64 
L 103.703989 69.12 
" clip-path="url(#pc0c635399c)" style="fill: none; stroke: #cccccc; stroke-width: 0.8; stroke-linecap: round"/>
     </g>
     <g id="text_3">
      <!-- 160 -->
      <g style="fill: #262626" transform="translate(99.482385 537.54543)rotate(-45)scale(0.088 -0.088)">
       <defs>
        <path id="DejaVuSans-31" d="M 794 531 
L 1825 531 
L 1825 4091 
L 703 3866 
L 703 4441 
L 1819 4666 
L 2450 4666 
L 2450 531 
L 3481 531 
L 3481 0 
L 794 0 
L 794 531 
z
" transform="scale(0.015625)"/>
        <path id="DejaVuSans-36" d="M 2113 2584 
Q 1688 2584 1439 2293 
Q 1191 2003 1191 1497 
Q 1191 994 1439 701 
Q 1688 409 2113 409 
Q 2538 409 2786 701 
Q 3034 994 3034 1497 
Q 3034 2003 2786 2293 
Q 2538 2584 2113 2584 
z
M 3366 4563 
L 3366 3988 
Q 3128 4100 2886 4159 
Q 2644 4219 2406 4219 
Q 1781 4219 1451 3797 
Q 1122 3375 1075 2522 
Q 1259 2794 1537 2939 
Q 1816 3084 2150 3084 
Q 2853 3084 3261 2657 
Q 3669 2231 3669 1497 
Q 3669 778 3244 343 
Q 2819 -91 2113 -91 
Q 1303 -91 875 529 
Q 447 1150 447 2328 
Q 447 3434 972 4092 
Q 1497 4750 2381 4750 
Q 2619 4750 2861 4703 
Q 3103 4656 3366 4563 
z
" transform="scale(0.015625)"/>
       </defs>
       <use xlink:href="#DejaVuSans-31"/>
       <use xlink:href="#DejaVuSans-36" x="63.623047"/>
       <use xlink:href="#DejaVuSans-30" x="127.246094"/>
      </g>
     </g>
    </g>
    <g id="xtick_4">
     <g id="line2d_4">
      <path d="M 120.730586 512.64 
L 120.730586 69.12 
" clip-path="url(#pc0c635399c)" style="fill: none; stroke: #cccccc; stroke-width: 0.8; stroke-linecap: round"/>
     </g>
     <g id="text_4">
      <!-- 240 -->
      <g style="fill: #262626" transform="translate(116.508981 537.54543)rotate(-45)scale(0.088 -0.088)">
       <defs>
        <path id="DejaVuSans-32" d="M 1228 531 
L 3431 531 
L 3431 0 
L 469 0 
L 469 531 
Q 828 903 1448 1529 
Q 2069 2156 2228 2338 
Q 2531 2678 2651 2914 
Q 2772 3150 2772 3378 
Q 2772 3750 2511 3984 
Q 2250 4219 1831 4219 
Q 1534 4219 1204 4116 
Q 875 4013 500 3803 
L 500 4441 
Q 881 4594 1212 4672 
Q 1544 4750 1819 4750 
Q 2544 4750 2975 4387 
Q 3406 4025 3406 3419 
Q 3406 3131 3298 2873 
Q 3191 2616 2906 2266 
Q 2828 2175 2409 1742 
Q 1991 1309 1228 531 
z
" transform="scale(0.015625)"/>
        <path id="DejaVuSans-34" d="M 2419 4116 
L 825 1625 
L 2419 1625 
L 2419 4116 
z
M 2253 4666 
L 3047 4666 
L 3047 1625 
L 3713 1625 
L 3713 1100 
L 3047 1100 
L 3047 0 
L 2419 0 
L 2419 1100 
L 313 1100 
L 313 1709 
L 2253 4666 
z
" transform="scale(0.015625)"/>
       </defs>
       <use xlink:href="#DejaVuSans-32"/>
       <use xlink:href="#DejaVuSans-34" x="63.623047"/>
       <use xlink:href="#DejaVuSans-30" x="127.246094"/>
      </g>
     </g>
    </g>
    <g id="xtick_5">
     <g id="line2d_5">
      <path d="M 137.757182 512.64 
L 137.757182 69.12 
" clip-path="url(#pc0c635399c)" style="fill: none; stroke: #cccccc; stroke-width: 0.8; stroke-linecap: round"/>
     </g>
     <g id="text_5">
      <!-- 320 -->
      <g style="fill: #262626" transform="translate(133.535578 537.54543)rotate(-45)scale(0.088 -0.088)">
       <defs>
        <path id="DejaVuSans-33" d="M 2597 2516 
Q 3050 2419 3304 2112 
Q 3559 1806 3559 1356 
Q 3559 666 3084 287 
Q 2609 -91 1734 -91 
Q 1441 -91 1130 -33 
Q 819 25 488 141 
L 488 750 
Q 750 597 1062 519 
Q 1375 441 1716 441 
Q 2309 441 2620 675 
Q 2931 909 2931 1356 
Q 2931 1769 2642 2001 
Q 2353 2234 1838 2234 
L 1294 2234 
L 1294 2753 
L 1863 2753 
Q 2328 2753 2575 2939 
Q 2822 3125 2822 3475 
Q 2822 3834 2567 4026 
Q 2313 4219 1838 4219 
Q 1578 4219 1281 4162 
Q 984 4106 628 3988 
L 628 4550 
Q 988 4650 1302 4700 
Q 1616 4750 1894 4750 
Q 2613 4750 3031 4423 
Q 3450 4097 3450 3541 
Q 3450 3153 3228 2886 
Q 3006 2619 2597 2516 
z
" transform="scale(0.015625)"/>
       </defs>
       <use xlink:href="#DejaVuSans-33"/>
       <use xlink:href="#DejaVuSans-32" x="63.623047"/>
       <use xlink:href="#DejaVuSans-30" x="127.246094"/>
      </g>
     </g>
    </g>
    <g id="xtick_6">
     <g id="line2d_6">
      <path d="M 154.783779 512.64 
L 154.783779 69.12 
" clip-path="url(#pc0c635399c)" style="fill: none; stroke: #cccccc; stroke-width: 0.8; stroke-linecap: round"/>
     </g>
     <g id="text_6">
      <!-- 400 -->
      <g style="fill: #262626" transform="translate(150.562175 537.54543)rotate(-45)scale(0.088 -0.088)">
       <use xlink:href="#DejaVuSans-34"/>
       <use xlink:href="#DejaVuSans-30" x="63.623047"/>
       <use xlink:href="#DejaVuSans-30" x="127.246094"/>
      </g>
     </g>
    </g>
    <g id="xtick_7">
     <g id="line2d_7">
      <path d="M 171.810376 512.64 
L 171.810376 69.12 
" clip-path="url(#pc0c635399c)" style="fill: none; stroke: #cccccc; stroke-width: 0.8; stroke-linecap: round"/>
     </g>
     <g id="text_7">
      <!-- 480 -->
      <g style="fill: #262626" transform="translate(167.588772 537.54543)rotate(-45)scale(0.088 -0.088)">
       <use xlink:href="#DejaVuSans-34"/>
       <use xlink:href="#DejaVuSans-38" x="63.623047"/>
       <use xlink:href="#DejaVuSans-30" x="127.246094"/>
      </g>
     </g>
    </g>
    <g id="xtick_8">
     <g id="line2d_8">
      <path d="M 188.836973 512.64 
L 188.836973 69.12 
" clip-path="url(#pc0c635399c)" style="fill: none; stroke: #cccccc; stroke-width: 0.8; stroke-linecap: round"/>
     </g>
     <g id="text_8">
      <!-- 560 -->
      <g style="fill: #262626" transform="translate(184.615368 537.54543)rotate(-45)scale(0.088 -0.088)">
       <defs>
        <path id="DejaVuSans-35" d="M 691 4666 
L 3169 4666 
L 3169 4134 
L 1269 4134 
L 1269 2991 
Q 1406 3038 1543 3061 
Q 1681 3084 1819 3084 
Q 2600 3084 3056 2656 
Q 3513 2228 3513 1497 
Q 3513 744 3044 326 
Q 2575 -91 1722 -91 
Q 1428 -91 1123 -41 
Q 819 9 494 109 
L 494 744 
Q 775 591 1075 516 
Q 1375 441 1709 441 
Q 2250 441 2565 725 
Q 2881 1009 2881 1497 
Q 2881 1984 2565 2268 
Q 2250 2553 1709 2553 
Q 1456 2553 1204 2497 
Q 953 2441 691 2322 
L 691 4666 
z
" transform="scale(0.015625)"/>
       </defs>
       <use xlink:href="#DejaVuSans-35"/>
       <use xlink:href="#DejaVuSans-36" x="63.623047"/>
       <use xlink:href="#DejaVuSans-30" x="127.246094"/>
      </g>
     </g>
    </g>
    <g id="xtick_9">
     <g id="line2d_9">
      <path d="M 205.863569 512.64 
L 205.863569 69.12 
" clip-path="url(#pc0c635399c)" style="fill: none; stroke: #cccccc; stroke-width: 0.8; stroke-linecap: round"/>
     </g>
     <g id="text_9">
      <!-- 640 -->
      <g style="fill: #262626" transform="translate(201.641965 537.54543)rotate(-45)scale(0.088 -0.088)">
       <use xlink:href="#DejaVuSans-36"/>
       <use xlink:href="#DejaVuSans-34" x="63.623047"/>
       <use xlink:href="#DejaVuSans-30" x="127.246094"/>
      </g>
     </g>
    </g>
    <g id="xtick_10">
     <g id="line2d_10">
      <path d="M 222.890166 512.64 
L 222.890166 69.12 
" clip-path="url(#pc0c635399c)" style="fill: none; stroke: #cccccc; stroke-width: 0.8; stroke-linecap: round"/>
     </g>
     <g id="text_10">
      <!-- 720 -->
      <g style="fill: #262626" transform="translate(218.668562 537.54543)rotate(-45)scale(0.088 -0.088)">
       <defs>
        <path id="DejaVuSans-37" d="M 525 4666 
L 3525 4666 
L 3525 4397 
L 1831 0 
L 1172 0 
L 2766 4134 
L 525 4134 
L 525 4666 
z
" transform="scale(0.015625)"/>
       </defs>
       <use xlink:href="#DejaVuSans-37"/>
       <use xlink:href="#DejaVuSans-32" x="63.623047"/>
       <use xlink:href="#DejaVuSans-30" x="127.246094"/>
      </g>
     </g>
    </g>
    <g id="xtick_11">
     <g id="line2d_11">
      <path d="M 239.916763 512.64 
L 239.916763 69.12 
" clip-path="url(#pc0c635399c)" style="fill: none; stroke: #cccccc; stroke-width: 0.8; stroke-linecap: round"/>
     </g>
     <g id="text_11">
      <!-- 800 -->
      <g style="fill: #262626" transform="translate(235.695159 537.54543)rotate(-45)scale(0.088 -0.088)">
       <use xlink:href="#DejaVuSans-38"/>
       <use xlink:href="#DejaVuSans-30" x="63.623047"/>
       <use xlink:href="#DejaVuSans-30" x="127.246094"/>
      </g>
     </g>
    </g>
    <g id="xtick_12">
     <g id="line2d_12">
      <path d="M 256.94336 512.64 
L 256.94336 69.12 
" clip-path="url(#pc0c635399c)" style="fill: none; stroke: #cccccc; stroke-width: 0.8; stroke-linecap: round"/>
     </g>
     <g id="text_12">
      <!-- 880 -->
      <g style="fill: #262626" transform="translate(252.721755 537.54543)rotate(-45)scale(0.088 -0.088)">
       <use xlink:href="#DejaVuSans-38"/>
       <use xlink:href="#DejaVuSans-38" x="63.623047"/>
       <use xlink:href="#DejaVuSans-30" x="127.246094"/>
      </g>
     </g>
    </g>
    <g id="xtick_13">
     <g id="line2d_13">
      <path d="M 273.969956 512.64 
L 273.969956 69.12 
" clip-path="url(#pc0c635399c)" style="fill: none; stroke: #cccccc; stroke-width: 0.8; stroke-linecap: round"/>
     </g>
     <g id="text_13">
      <!-- 960 -->
      <g style="fill: #262626" transform="translate(269.748352 537.54543)rotate(-45)scale(0.088 -0.088)">
       <defs>
        <path id="DejaVuSans-39" d="M 703 97 
L 703 672 
Q 941 559 1184 500 
Q 1428 441 1663 441 
Q 2288 441 2617 861 
Q 2947 1281 2994 2138 
Q 2813 1869 2534 1725 
Q 2256 1581 1919 1581 
Q 1219 1581 811 2004 
Q 403 2428 403 3163 
Q 403 3881 828 4315 
Q 1253 4750 1959 4750 
Q 2769 4750 3195 4129 
Q 3622 3509 3622 2328 
Q 3622 1225 3098 567 
Q 2575 -91 1691 -91 
Q 1453 -91 1209 -44 
Q 966 3 703 97 
z
M 1959 2075 
Q 2384 2075 2632 2365 
Q 2881 2656 2881 3163 
Q 2881 3666 2632 3958 
Q 2384 4250 1959 4250 
Q 1534 4250 1286 3958 
Q 1038 3666 1038 3163 
Q 1038 2656 1286 2365 
Q 1534 2075 1959 2075 
z
" transform="scale(0.015625)"/>
       </defs>
       <use xlink:href="#DejaVuSans-39"/>
       <use xlink:href="#DejaVuSans-36" x="63.623047"/>
       <use xlink:href="#DejaVuSans-30" x="127.246094"/>
      </g>
     </g>
    </g>
    <g id="xtick_14">
     <g id="line2d_14">
      <path d="M 290.996553 512.64 
L 290.996553 69.12 
" clip-path="url(#pc0c635399c)" style="fill: none; stroke: #cccccc; stroke-width: 0.8; stroke-linecap: round"/>
     </g>
     <g id="text_14">
      <!-- 1040 -->
      <g style="fill: #262626" transform="translate(284.795404 541.504521)rotate(-45)scale(0.088 -0.088)">
       <use xlink:href="#DejaVuSans-31"/>
       <use xlink:href="#DejaVuSans-30" x="63.623047"/>
       <use xlink:href="#DejaVuSans-34" x="127.246094"/>
       <use xlink:href="#DejaVuSans-30" x="190.869141"/>
      </g>
     </g>
    </g>
    <g id="xtick_15">
     <g id="line2d_15">
      <path d="M 308.02315 512.64 
L 308.02315 69.12 
" clip-path="url(#pc0c635399c)" style="fill: none; stroke: #cccccc; stroke-width: 0.8; stroke-linecap: round"/>
     </g>
     <g id="text_15">
      <!-- 1120 -->
      <g style="fill: #262626" transform="translate(301.822 541.504521)rotate(-45)scale(0.088 -0.088)">
       <use xlink:href="#DejaVuSans-31"/>
       <use xlink:href="#DejaVuSans-31" x="63.623047"/>
       <use xlink:href="#DejaVuSans-32" x="127.246094"/>
       <use xlink:href="#DejaVuSans-30" x="190.869141"/>
      </g>
     </g>
    </g>
    <g id="xtick_16">
     <g id="line2d_16">
      <path d="M 325.049747 512.64 
L 325.049747 69.12 
" clip-path="url(#pc0c635399c)" style="fill: none; stroke: #cccccc; stroke-width: 0.8; stroke-linecap: round"/>
     </g>
     <g id="text_16">
      <!-- 1200 -->
      <g style="fill: #262626" transform="translate(318.848597 541.504521)rotate(-45)scale(0.088 -0.088)">
       <use xlink:href="#DejaVuSans-31"/>
       <use xlink:href="#DejaVuSans-32" x="63.623047"/>
       <use xlink:href="#DejaVuSans-30" x="127.246094"/>
       <use xlink:href="#DejaVuSans-30" x="190.869141"/>
      </g>
     </g>
    </g>
    <g id="xtick_17">
     <g id="line2d_17">
      <path d="M 342.076343 512.64 
L 342.076343 69.12 
" clip-path="url(#pc0c635399c)" style="fill: none; stroke: #cccccc; stroke-width: 0.8; stroke-linecap: round"/>
     </g>
     <g id="text_17">
      <!-- 1280 -->
      <g style="fill: #262626" transform="translate(335.875194 541.504521)rotate(-45)scale(0.088 -0.088)">
       <use xlink:href="#DejaVuSans-31"/>
       <use xlink:href="#DejaVuSans-32" x="63.623047"/>
       <use xlink:href="#DejaVuSans-38" x="127.246094"/>
       <use xlink:href="#DejaVuSans-30" x="190.869141"/>
      </g>
     </g>
    </g>
    <g id="xtick_18">
     <g id="line2d_18">
      <path d="M 359.10294 512.64 
L 359.10294 69.12 
" clip-path="url(#pc0c635399c)" style="fill: none; stroke: #cccccc; stroke-width: 0.8; stroke-linecap: round"/>
     </g>
     <g id="text_18">
      <!-- 1360 -->
      <g style="fill: #262626" transform="translate(352.901791 541.504521)rotate(-45)scale(0.088 -0.088)">
       <use xlink:href="#DejaVuSans-31"/>
       <use xlink:href="#DejaVuSans-33" x="63.623047"/>
       <use xlink:href="#DejaVuSans-36" x="127.246094"/>
       <use xlink:href="#DejaVuSans-30" x="190.869141"/>
      </g>
     </g>
    </g>
    <g id="xtick_19">
     <g id="line2d_19">
      <path d="M 376.129537 512.64 
L 376.129537 69.12 
" clip-path="url(#pc0c635399c)" style="fill: none; stroke: #cccccc; stroke-width: 0.8; stroke-linecap: round"/>
     </g>
     <g id="text_19">
      <!-- 1440 -->
      <g style="fill: #262626" transform="translate(369.928387 541.504521)rotate(-45)scale(0.088 -0.088)">
       <use xlink:href="#DejaVuSans-31"/>
       <use xlink:href="#DejaVuSans-34" x="63.623047"/>
       <use xlink:href="#DejaVuSans-34" x="127.246094"/>
       <use xlink:href="#DejaVuSans-30" x="190.869141"/>
      </g>
     </g>
    </g>
    <g id="text_20">
     <!-- Time (Minutes) -->
     <g style="fill: #262626" transform="translate(186.87375 554.093115)scale(0.096 -0.096)">
      <defs>
       <path id="DejaVuSans-54" d="M -19 4666 
L 3928 4666 
L 3928 4134 
L 2272 4134 
L 2272 0 
L 1638 0 
L 1638 4134 
L -19 4134 
L -19 4666 
z
" transform="scale(0.015625)"/>
       <path id="DejaVuSans-69" d="M 603 3500 
L 1178 3500 
L 1178 0 
L 603 0 
L 603 3500 
z
M 603 4863 
L 1178 4863 
L 1178 4134 
L 603 4134 
L 603 4863 
z
" transform="scale(0.015625)"/>
       <path id="DejaVuSans-6d" d="M 3328 2828 
Q 3544 3216 3844 3400 
Q 4144 3584 4550 3584 
Q 5097 3584 5394 3201 
Q 5691 2819 5691 2113 
L 5691 0 
L 5113 0 
L 5113 2094 
Q 5113 2597 4934 2840 
Q 4756 3084 4391 3084 
Q 3944 3084 3684 2787 
Q 3425 2491 3425 1978 
L 3425 0 
L 2847 0 
L 2847 2094 
Q 2847 2600 2669 2842 
Q 2491 3084 2119 3084 
Q 1678 3084 1418 2786 
Q 1159 2488 1159 1978 
L 1159 0 
L 581 0 
L 581 3500 
L 1159 3500 
L 1159 2956 
Q 1356 3278 1631 3431 
Q 1906 3584 2284 3584 
Q 2666 3584 2933 3390 
Q 3200 3197 3328 2828 
z
" transform="scale(0.015625)"/>
       <path id="DejaVuSans-65" d="M 3597 1894 
L 3597 1613 
L 953 1613 
Q 991 1019 1311 708 
Q 1631 397 2203 397 
Q 2534 397 2845 478 
Q 3156 559 3463 722 
L 3463 178 
Q 3153 47 2828 -22 
Q 2503 -91 2169 -91 
Q 1331 -91 842 396 
Q 353 884 353 1716 
Q 353 2575 817 3079 
Q 1281 3584 2069 3584 
Q 2775 3584 3186 3129 
Q 3597 2675 3597 1894 
z
M 3022 2063 
Q 3016 2534 2758 2815 
Q 2500 3097 2075 3097 
Q 1594 3097 1305 2825 
Q 1016 2553 972 2059 
L 3022 2063 
z
" transform="scale(0.015625)"/>
       <path id="DejaVuSans-20" transform="scale(0.015625)"/>
       <path id="DejaVuSans-28" d="M 1984 4856 
Q 1566 4138 1362 3434 
Q 1159 2731 1159 2009 
Q 1159 1288 1364 580 
Q 1569 -128 1984 -844 
L 1484 -844 
Q 1016 -109 783 600 
Q 550 1309 550 2009 
Q 550 2706 781 3412 
Q 1013 4119 1484 4856 
L 1984 4856 
z
" transform="scale(0.015625)"/>
       <path id="DejaVuSans-4d" d="M 628 4666 
L 1569 4666 
L 2759 1491 
L 3956 4666 
L 4897 4666 
L 4897 0 
L 4281 0 
L 4281 4097 
L 3078 897 
L 2444 897 
L 1241 4097 
L 1241 0 
L 628 0 
L 628 4666 
z
" transform="scale(0.015625)"/>
       <path id="DejaVuSans-6e" d="M 3513 2113 
L 3513 0 
L 2938 0 
L 2938 2094 
Q 2938 2591 2744 2837 
Q 2550 3084 2163 3084 
Q 1697 3084 1428 2787 
Q 1159 2491 1159 1978 
L 1159 0 
L 581 0 
L 581 3500 
L 1159 3500 
L 1159 2956 
Q 1366 3272 1645 3428 
Q 1925 3584 2291 3584 
Q 2894 3584 3203 3211 
Q 3513 2838 3513 2113 
z
" transform="scale(0.015625)"/>
       <path id="DejaVuSans-75" d="M 544 1381 
L 544 3500 
L 1119 3500 
L 1119 1403 
Q 1119 906 1312 657 
Q 1506 409 1894 409 
Q 2359 409 2629 706 
Q 2900 1003 2900 1516 
L 2900 3500 
L 3475 3500 
L 3475 0 
L 2900 0 
L 2900 538 
Q 2691 219 2414 64 
Q 2138 -91 1772 -91 
Q 1169 -91 856 284 
Q 544 659 544 1381 
z
M 1991 3584 
L 1991 3584 
z
" transform="scale(0.015625)"/>
       <path id="DejaVuSans-74" d="M 1172 4494 
L 1172 3500 
L 2356 3500 
L 2356 3053 
L 1172 3053 
L 1172 1153 
Q 1172 725 1289 603 
Q 1406 481 1766 481 
L 2356 481 
L 2356 0 
L 1766 0 
Q 1100 0 847 248 
Q 594 497 594 1153 
L 594 3053 
L 172 3053 
L 172 3500 
L 594 3500 
L 594 4494 
L 1172 4494 
z
" transform="scale(0.015625)"/>
       <path id="DejaVuSans-73" d="M 2834 3397 
L 2834 2853 
Q 2591 2978 2328 3040 
Q 2066 3103 1784 3103 
Q 1356 3103 1142 2972 
Q 928 2841 928 2578 
Q 928 2378 1081 2264 
Q 1234 2150 1697 2047 
L 1894 2003 
Q 2506 1872 2764 1633 
Q 3022 1394 3022 966 
Q 3022 478 2636 193 
Q 2250 -91 1575 -91 
Q 1294 -91 989 -36 
Q 684 19 347 128 
L 347 722 
Q 666 556 975 473 
Q 1284 391 1588 391 
Q 1994 391 2212 530 
Q 2431 669 2431 922 
Q 2431 1156 2273 1281 
Q 2116 1406 1581 1522 
L 1381 1569 
Q 847 1681 609 1914 
Q 372 2147 372 2553 
Q 372 3047 722 3315 
Q 1072 3584 1716 3584 
Q 2034 3584 2315 3537 
Q 2597 3491 2834 3397 
z
" transform="scale(0.015625)"/>
       <path id="DejaVuSans-29" d="M 513 4856 
L 1013 4856 
Q 1481 4119 1714 3412 
Q 1947 2706 1947 2009 
Q 1947 1309 1714 600 
Q 1481 -109 1013 -844 
L 513 -844 
Q 928 -128 1133 580 
Q 1338 1288 1338 2009 
Q 1338 2731 1133 3434 
Q 928 4138 513 4856 
z
" transform="scale(0.015625)"/>
      </defs>
      <use xlink:href="#DejaVuSans-54"/>
      <use xlink:href="#DejaVuSans-69" x="57.958984"/>
      <use xlink:href="#DejaVuSans-6d" x="85.742188"/>
      <use xlink:href="#DejaVuSans-65" x="183.154297"/>
      <use xlink:href="#DejaVuSans-20" x="244.677734"/>
      <use xlink:href="#DejaVuSans-28" x="276.464844"/>
      <use xlink:href="#DejaVuSans-4d" x="315.478516"/>
      <use xlink:href="#DejaVuSans-69" x="401.757812"/>
      <use xlink:href="#DejaVuSans-6e" x="429.541016"/>
      <use xlink:href="#DejaVuSans-75" x="492.919922"/>
      <use xlink:href="#DejaVuSans-74" x="556.298828"/>
      <use xlink:href="#DejaVuSans-65" x="595.507812"/>
      <use xlink:href="#DejaVuSans-73" x="657.03125"/>
      <use xlink:href="#DejaVuSans-29" x="709.130859"/>
     </g>
    </g>
   </g>
   <g id="matplotlib.axis_2">
    <g id="ytick_1">
     <g id="line2d_20">
      <path d="M 54.3375 492.48 
L 391.23 492.48 
" clip-path="url(#pc0c635399c)" style="fill: none; stroke: #cccccc; stroke-width: 0.8; stroke-linecap: round"/>
     </g>
     <g id="text_21">
      <!-- 0 -->
      <g style="fill: #262626" transform="translate(40.4385 495.823313)scale(0.088 -0.088)">
       <use xlink:href="#DejaVuSans-30"/>
      </g>
     </g>
    </g>
    <g id="ytick_2">
     <g id="line2d_21">
      <path d="M 54.3375 474.488032 
L 391.23 474.488032 
" clip-path="url(#pc0c635399c)" style="fill: none; stroke: #cccccc; stroke-width: 0.8; stroke-linecap: round"/>
     </g>
     <g id="text_22">
      <!-- 100 -->
      <g style="fill: #262626" transform="translate(29.2405 477.831345)scale(0.088 -0.088)">
       <use xlink:href="#DejaVuSans-31"/>
       <use xlink:href="#DejaVuSans-30" x="63.623047"/>
       <use xlink:href="#DejaVuSans-30" x="127.246094"/>
      </g>
     </g>
    </g>
    <g id="ytick_3">
     <g id="line2d_22">
      <path d="M 54.3375 456.496064 
L 391.23 456.496064 
" clip-path="url(#pc0c635399c)" style="fill: none; stroke: #cccccc; stroke-width: 0.8; stroke-linecap: round"/>
     </g>
     <g id="text_23">
      <!-- 200 -->
      <g style="fill: #262626" transform="translate(29.2405 459.839377)scale(0.088 -0.088)">
       <use xlink:href="#DejaVuSans-32"/>
       <use xlink:href="#DejaVuSans-30" x="63.623047"/>
       <use xlink:href="#DejaVuSans-30" x="127.246094"/>
      </g>
     </g>
    </g>
    <g id="ytick_4">
     <g id="line2d_23">
      <path d="M 54.3375 438.504096 
L 391.23 438.504096 
" clip-path="url(#pc0c635399c)" style="fill: none; stroke: #cccccc; stroke-width: 0.8; stroke-linecap: round"/>
     </g>
     <g id="text_24">
      <!-- 300 -->
      <g style="fill: #262626" transform="translate(29.2405 441.847409)scale(0.088 -0.088)">
       <use xlink:href="#DejaVuSans-33"/>
       <use xlink:href="#DejaVuSans-30" x="63.623047"/>
       <use xlink:href="#DejaVuSans-30" x="127.246094"/>
      </g>
     </g>
    </g>
    <g id="ytick_5">
     <g id="line2d_24">
      <path d="M 54.3375 420.512129 
L 391.23 420.512129 
" clip-path="url(#pc0c635399c)" style="fill: none; stroke: #cccccc; stroke-width: 0.8; stroke-linecap: round"/>
     </g>
     <g id="text_25">
      <!-- 400 -->
      <g style="fill: #262626" transform="translate(29.2405 423.855441)scale(0.088 -0.088)">
       <use xlink:href="#DejaVuSans-34"/>
       <use xlink:href="#DejaVuSans-30" x="63.623047"/>
       <use xlink:href="#DejaVuSans-30" x="127.246094"/>
      </g>
     </g>
    </g>
    <g id="ytick_6">
     <g id="line2d_25">
      <path d="M 54.3375 402.520161 
L 391.23 402.520161 
" clip-path="url(#pc0c635399c)" style="fill: none; stroke: #cccccc; stroke-width: 0.8; stroke-linecap: round"/>
     </g>
     <g id="text_26">
      <!-- 500 -->
      <g style="fill: #262626" transform="translate(29.2405 405.863473)scale(0.088 -0.088)">
       <use xlink:href="#DejaVuSans-35"/>
       <use xlink:href="#DejaVuSans-30" x="63.623047"/>
       <use xlink:href="#DejaVuSans-30" x="127.246094"/>
      </g>
     </g>
    </g>
    <g id="ytick_7">
     <g id="line2d_26">
      <path d="M 54.3375 384.528193 
L 391.23 384.528193 
" clip-path="url(#pc0c635399c)" style="fill: none; stroke: #cccccc; stroke-width: 0.8; stroke-linecap: round"/>
     </g>
     <g id="text_27">
      <!-- 600 -->
      <g style="fill: #262626" transform="translate(29.2405 387.871505)scale(0.088 -0.088)">
       <use xlink:href="#DejaVuSans-36"/>
       <use xlink:href="#DejaVuSans-30" x="63.623047"/>
       <use xlink:href="#DejaVuSans-30" x="127.246094"/>
      </g>
     </g>
    </g>
    <g id="ytick_8">
     <g id="line2d_27">
      <path d="M 54.3375 366.536225 
L 391.23 366.536225 
" clip-path="url(#pc0c635399c)" style="fill: none; stroke: #cccccc; stroke-width: 0.8; stroke-linecap: round"/>
     </g>
     <g id="text_28">
      <!-- 700 -->
      <g style="fill: #262626" transform="translate(29.2405 369.879537)scale(0.088 -0.088)">
       <use xlink:href="#DejaVuSans-37"/>
       <use xlink:href="#DejaVuSans-30" x="63.623047"/>
       <use xlink:href="#DejaVuSans-30" x="127.246094"/>
      </g>
     </g>
    </g>
    <g id="ytick_9">
     <g id="line2d_28">
      <path d="M 54.3375 348.544257 
L 391.23 348.544257 
" clip-path="url(#pc0c635399c)" style="fill: none; stroke: #cccccc; stroke-width: 0.8; stroke-linecap: round"/>
     </g>
     <g id="text_29">
      <!-- 800 -->
      <g style="fill: #262626" transform="translate(29.2405 351.88757)scale(0.088 -0.088)">
       <use xlink:href="#DejaVuSans-38"/>
       <use xlink:href="#DejaVuSans-30" x="63.623047"/>
       <use xlink:href="#DejaVuSans-30" x="127.246094"/>
      </g>
     </g>
    </g>
    <g id="ytick_10">
     <g id="line2d_29">
      <path d="M 54.3375 330.552289 
L 391.23 330.552289 
" clip-path="url(#pc0c635399c)" style="fill: none; stroke: #cccccc; stroke-width: 0.8; stroke-linecap: round"/>
     </g>
     <g id="text_30">
      <!-- 900 -->
      <g style="fill: #262626" transform="translate(29.2405 333.895602)scale(0.088 -0.088)">
       <use xlink:href="#DejaVuSans-39"/>
       <use xlink:href="#DejaVuSans-30" x="63.623047"/>
       <use xlink:href="#DejaVuSans-30" x="127.246094"/>
      </g>
     </g>
    </g>
    <g id="ytick_11">
     <g id="line2d_30">
      <path d="M 54.3375 312.560321 
L 391.23 312.560321 
" clip-path="url(#pc0c635399c)" style="fill: none; stroke: #cccccc; stroke-width: 0.8; stroke-linecap: round"/>
     </g>
     <g id="text_31">
      <!-- 1000 -->
      <g style="fill: #262626" transform="translate(23.6415 315.903634)scale(0.088 -0.088)">
       <use xlink:href="#DejaVuSans-31"/>
       <use xlink:href="#DejaVuSans-30" x="63.623047"/>
       <use xlink:href="#DejaVuSans-30" x="127.246094"/>
       <use xlink:href="#DejaVuSans-30" x="190.869141"/>
      </g>
     </g>
    </g>
    <g id="ytick_12">
     <g id="line2d_31">
      <path d="M 54.3375 294.568353 
L 391.23 294.568353 
" clip-path="url(#pc0c635399c)" style="fill: none; stroke: #cccccc; stroke-width: 0.8; stroke-linecap: round"/>
     </g>
     <g id="text_32">
      <!-- 1100 -->
      <g style="fill: #262626" transform="translate(23.6415 297.911666)scale(0.088 -0.088)">
       <use xlink:href="#DejaVuSans-31"/>
       <use xlink:href="#DejaVuSans-31" x="63.623047"/>
       <use xlink:href="#DejaVuSans-30" x="127.246094"/>
       <use xlink:href="#DejaVuSans-30" x="190.869141"/>
      </g>
     </g>
    </g>
    <g id="ytick_13">
     <g id="line2d_32">
      <path d="M 54.3375 276.576386 
L 391.23 276.576386 
" clip-path="url(#pc0c635399c)" style="fill: none; stroke: #cccccc; stroke-width: 0.8; stroke-linecap: round"/>
     </g>
     <g id="text_33">
      <!-- 1200 -->
      <g style="fill: #262626" transform="translate(23.6415 279.919698)scale(0.088 -0.088)">
       <use xlink:href="#DejaVuSans-31"/>
       <use xlink:href="#DejaVuSans-32" x="63.623047"/>
       <use xlink:href="#DejaVuSans-30" x="127.246094"/>
       <use xlink:href="#DejaVuSans-30" x="190.869141"/>
      </g>
     </g>
    </g>
    <g id="ytick_14">
     <g id="line2d_33">
      <path d="M 54.3375 258.584418 
L 391.23 258.584418 
" clip-path="url(#pc0c635399c)" style="fill: none; stroke: #cccccc; stroke-width: 0.8; stroke-linecap: round"/>
     </g>
     <g id="text_34">
      <!-- 1300 -->
      <g style="fill: #262626" transform="translate(23.6415 261.92773)scale(0.088 -0.088)">
       <use xlink:href="#DejaVuSans-31"/>
       <use xlink:href="#DejaVuSans-33" x="63.623047"/>
       <use xlink:href="#DejaVuSans-30" x="127.246094"/>
       <use xlink:href="#DejaVuSans-30" x="190.869141"/>
      </g>
     </g>
    </g>
    <g id="ytick_15">
     <g id="line2d_34">
      <path d="M 54.3375 240.59245 
L 391.23 240.59245 
" clip-path="url(#pc0c635399c)" style="fill: none; stroke: #cccccc; stroke-width: 0.8; stroke-linecap: round"/>
     </g>
     <g id="text_35">
      <!-- 1400 -->
      <g style="fill: #262626" transform="translate(23.6415 243.935762)scale(0.088 -0.088)">
       <use xlink:href="#DejaVuSans-31"/>
       <use xlink:href="#DejaVuSans-34" x="63.623047"/>
       <use xlink:href="#DejaVuSans-30" x="127.246094"/>
       <use xlink:href="#DejaVuSans-30" x="190.869141"/>
      </g>
     </g>
    </g>
    <g id="ytick_16">
     <g id="line2d_35">
      <path d="M 54.3375 222.600482 
L 391.23 222.600482 
" clip-path="url(#pc0c635399c)" style="fill: none; stroke: #cccccc; stroke-width: 0.8; stroke-linecap: round"/>
     </g>
     <g id="text_36">
      <!-- 1500 -->
      <g style="fill: #262626" transform="translate(23.6415 225.943794)scale(0.088 -0.088)">
       <use xlink:href="#DejaVuSans-31"/>
       <use xlink:href="#DejaVuSans-35" x="63.623047"/>
       <use xlink:href="#DejaVuSans-30" x="127.246094"/>
       <use xlink:href="#DejaVuSans-30" x="190.869141"/>
      </g>
     </g>
    </g>
    <g id="ytick_17">
     <g id="line2d_36">
      <path d="M 54.3375 204.608514 
L 391.23 204.608514 
" clip-path="url(#pc0c635399c)" style="fill: none; stroke: #cccccc; stroke-width: 0.8; stroke-linecap: round"/>
     </g>
     <g id="text_37">
      <!-- 1600 -->
      <g style="fill: #262626" transform="translate(23.6415 207.951827)scale(0.088 -0.088)">
       <use xlink:href="#DejaVuSans-31"/>
       <use xlink:href="#DejaVuSans-36" x="63.623047"/>
       <use xlink:href="#DejaVuSans-30" x="127.246094"/>
       <use xlink:href="#DejaVuSans-30" x="190.869141"/>
      </g>
     </g>
    </g>
    <g id="ytick_18">
     <g id="line2d_37">
      <path d="M 54.3375 186.616546 
L 391.23 186.616546 
" clip-path="url(#pc0c635399c)" style="fill: none; stroke: #cccccc; stroke-width: 0.8; stroke-linecap: round"/>
     </g>
     <g id="text_38">
      <!-- 1700 -->
      <g style="fill: #262626" transform="translate(23.6415 189.959859)scale(0.088 -0.088)">
       <use xlink:href="#DejaVuSans-31"/>
       <use xlink:href="#DejaVuSans-37" x="63.623047"/>
       <use xlink:href="#DejaVuSans-30" x="127.246094"/>
       <use xlink:href="#DejaVuSans-30" x="190.869141"/>
      </g>
     </g>
    </g>
    <g id="ytick_19">
     <g id="line2d_38">
      <path d="M 54.3375 168.624578 
L 391.23 168.624578 
" clip-path="url(#pc0c635399c)" style="fill: none; stroke: #cccccc; stroke-width: 0.8; stroke-linecap: round"/>
     </g>
     <g id="text_39">
      <!-- 1800 -->
      <g style="fill: #262626" transform="translate(23.6415 171.967891)scale(0.088 -0.088)">
       <use xlink:href="#DejaVuSans-31"/>
       <use xlink:href="#DejaVuSans-38" x="63.623047"/>
       <use xlink:href="#DejaVuSans-30" x="127.246094"/>
       <use xlink:href="#DejaVuSans-30" x="190.869141"/>
      </g>
     </g>
    </g>
    <g id="ytick_20">
     <g id="line2d_39">
      <path d="M 54.3375 150.63261 
L 391.23 150.63261 
" clip-path="url(#pc0c635399c)" style="fill: none; stroke: #cccccc; stroke-width: 0.8; stroke-linecap: round"/>
     </g>
     <g id="text_40">
      <!-- 1900 -->
      <g style="fill: #262626" transform="translate(23.6415 153.975923)scale(0.088 -0.088)">
       <use xlink:href="#DejaVuSans-31"/>
       <use xlink:href="#DejaVuSans-39" x="63.623047"/>
       <use xlink:href="#DejaVuSans-30" x="127.246094"/>
       <use xlink:href="#DejaVuSans-30" x="190.869141"/>
      </g>
     </g>
    </g>
    <g id="ytick_21">
     <g id="line2d_40">
      <path d="M 54.3375 132.640643 
L 391.23 132.640643 
" clip-path="url(#pc0c635399c)" style="fill: none; stroke: #cccccc; stroke-width: 0.8; stroke-linecap: round"/>
     </g>
     <g id="text_41">
      <!-- 2000 -->
      <g style="fill: #262626" transform="translate(23.6415 135.983955)scale(0.088 -0.088)">
       <use xlink:href="#DejaVuSans-32"/>
       <use xlink:href="#DejaVuSans-30" x="63.623047"/>
       <use xlink:href="#DejaVuSans-30" x="127.246094"/>
       <use xlink:href="#DejaVuSans-30" x="190.869141"/>
      </g>
     </g>
    </g>
    <g id="ytick_22">
     <g id="line2d_41">
      <path d="M 54.3375 114.648675 
L 391.23 114.648675 
" clip-path="url(#pc0c635399c)" style="fill: none; stroke: #cccccc; stroke-width: 0.8; stroke-linecap: round"/>
     </g>
     <g id="text_42">
      <!-- 2100 -->
      <g style="fill: #262626" transform="translate(23.6415 117.991987)scale(0.088 -0.088)">
       <use xlink:href="#DejaVuSans-32"/>
       <use xlink:href="#DejaVuSans-31" x="63.623047"/>
       <use xlink:href="#DejaVuSans-30" x="127.246094"/>
       <use xlink:href="#DejaVuSans-30" x="190.869141"/>
      </g>
     </g>
    </g>
    <g id="ytick_23">
     <g id="line2d_42">
      <path d="M 54.3375 96.656707 
L 391.23 96.656707 
" clip-path="url(#pc0c635399c)" style="fill: none; stroke: #cccccc; stroke-width: 0.8; stroke-linecap: round"/>
     </g>
     <g id="text_43">
      <!-- 2200 -->
      <g style="fill: #262626" transform="translate(23.6415 100.000019)scale(0.088 -0.088)">
       <use xlink:href="#DejaVuSans-32"/>
       <use xlink:href="#DejaVuSans-32" x="63.623047"/>
       <use xlink:href="#DejaVuSans-30" x="127.246094"/>
       <use xlink:href="#DejaVuSans-30" x="190.869141"/>
      </g>
     </g>
    </g>
    <g id="text_44">
     <!-- Edge Coverages -->
     <g style="fill: #262626" transform="translate(17.645 329.98575)rotate(-90)scale(0.096 -0.096)">
      <defs>
       <path id="DejaVuSans-45" d="M 628 4666 
L 3578 4666 
L 3578 4134 
L 1259 4134 
L 1259 2753 
L 3481 2753 
L 3481 2222 
L 1259 2222 
L 1259 531 
L 3634 531 
L 3634 0 
L 628 0 
L 628 4666 
z
" transform="scale(0.015625)"/>
       <path id="DejaVuSans-64" d="M 2906 2969 
L 2906 4863 
L 3481 4863 
L 3481 0 
L 2906 0 
L 2906 525 
Q 2725 213 2448 61 
Q 2172 -91 1784 -91 
Q 1150 -91 751 415 
Q 353 922 353 1747 
Q 353 2572 751 3078 
Q 1150 3584 1784 3584 
Q 2172 3584 2448 3432 
Q 2725 3281 2906 2969 
z
M 947 1747 
Q 947 1113 1208 752 
Q 1469 391 1925 391 
Q 2381 391 2643 752 
Q 2906 1113 2906 1747 
Q 2906 2381 2643 2742 
Q 2381 3103 1925 3103 
Q 1469 3103 1208 2742 
Q 947 2381 947 1747 
z
" transform="scale(0.015625)"/>
       <path id="DejaVuSans-67" d="M 2906 1791 
Q 2906 2416 2648 2759 
Q 2391 3103 1925 3103 
Q 1463 3103 1205 2759 
Q 947 2416 947 1791 
Q 947 1169 1205 825 
Q 1463 481 1925 481 
Q 2391 481 2648 825 
Q 2906 1169 2906 1791 
z
M 3481 434 
Q 3481 -459 3084 -895 
Q 2688 -1331 1869 -1331 
Q 1566 -1331 1297 -1286 
Q 1028 -1241 775 -1147 
L 775 -588 
Q 1028 -725 1275 -790 
Q 1522 -856 1778 -856 
Q 2344 -856 2625 -561 
Q 2906 -266 2906 331 
L 2906 616 
Q 2728 306 2450 153 
Q 2172 0 1784 0 
Q 1141 0 747 490 
Q 353 981 353 1791 
Q 353 2603 747 3093 
Q 1141 3584 1784 3584 
Q 2172 3584 2450 3431 
Q 2728 3278 2906 2969 
L 2906 3500 
L 3481 3500 
L 3481 434 
z
" transform="scale(0.015625)"/>
       <path id="DejaVuSans-43" d="M 4122 4306 
L 4122 3641 
Q 3803 3938 3442 4084 
Q 3081 4231 2675 4231 
Q 1875 4231 1450 3742 
Q 1025 3253 1025 2328 
Q 1025 1406 1450 917 
Q 1875 428 2675 428 
Q 3081 428 3442 575 
Q 3803 722 4122 1019 
L 4122 359 
Q 3791 134 3420 21 
Q 3050 -91 2638 -91 
Q 1578 -91 968 557 
Q 359 1206 359 2328 
Q 359 3453 968 4101 
Q 1578 4750 2638 4750 
Q 3056 4750 3426 4639 
Q 3797 4528 4122 4306 
z
" transform="scale(0.015625)"/>
       <path id="DejaVuSans-6f" d="M 1959 3097 
Q 1497 3097 1228 2736 
Q 959 2375 959 1747 
Q 959 1119 1226 758 
Q 1494 397 1959 397 
Q 2419 397 2687 759 
Q 2956 1122 2956 1747 
Q 2956 2369 2687 2733 
Q 2419 3097 1959 3097 
z
M 1959 3584 
Q 2709 3584 3137 3096 
Q 3566 2609 3566 1747 
Q 3566 888 3137 398 
Q 2709 -91 1959 -91 
Q 1206 -91 779 398 
Q 353 888 353 1747 
Q 353 2609 779 3096 
Q 1206 3584 1959 3584 
z
" transform="scale(0.015625)"/>
       <path id="DejaVuSans-76" d="M 191 3500 
L 800 3500 
L 1894 563 
L 2988 3500 
L 3597 3500 
L 2284 0 
L 1503 0 
L 191 3500 
z
" transform="scale(0.015625)"/>
       <path id="DejaVuSans-72" d="M 2631 2963 
Q 2534 3019 2420 3045 
Q 2306 3072 2169 3072 
Q 1681 3072 1420 2755 
Q 1159 2438 1159 1844 
L 1159 0 
L 581 0 
L 581 3500 
L 1159 3500 
L 1159 2956 
Q 1341 3275 1631 3429 
Q 1922 3584 2338 3584 
Q 2397 3584 2469 3576 
Q 2541 3569 2628 3553 
L 2631 2963 
z
" transform="scale(0.015625)"/>
       <path id="DejaVuSans-61" d="M 2194 1759 
Q 1497 1759 1228 1600 
Q 959 1441 959 1056 
Q 959 750 1161 570 
Q 1363 391 1709 391 
Q 2188 391 2477 730 
Q 2766 1069 2766 1631 
L 2766 1759 
L 2194 1759 
z
M 3341 1997 
L 3341 0 
L 2766 0 
L 2766 531 
Q 2569 213 2275 61 
Q 1981 -91 1556 -91 
Q 1019 -91 701 211 
Q 384 513 384 1019 
Q 384 1609 779 1909 
Q 1175 2209 1959 2209 
L 2766 2209 
L 2766 2266 
Q 2766 2663 2505 2880 
Q 2244 3097 1772 3097 
Q 1472 3097 1187 3025 
Q 903 2953 641 2809 
L 641 3341 
Q 956 3463 1253 3523 
Q 1550 3584 1831 3584 
Q 2591 3584 2966 3190 
Q 3341 2797 3341 1997 
z
" transform="scale(0.015625)"/>
      </defs>
      <use xlink:href="#DejaVuSans-45"/>
      <use xlink:href="#DejaVuSans-64" x="63.183594"/>
      <use xlink:href="#DejaVuSans-67" x="126.660156"/>
      <use xlink:href="#DejaVuSans-65" x="190.136719"/>
      <use xlink:href="#DejaVuSans-20" x="251.660156"/>
      <use xlink:href="#DejaVuSans-43" x="283.447266"/>
      <use xlink:href="#DejaVuSans-6f" x="353.271484"/>
      <use xlink:href="#DejaVuSans-76" x="414.453125"/>
      <use xlink:href="#DejaVuSans-65" x="473.632812"/>
      <use xlink:href="#DejaVuSans-72" x="535.15625"/>
      <use xlink:href="#DejaVuSans-61" x="576.269531"/>
      <use xlink:href="#DejaVuSans-67" x="637.548828"/>
      <use xlink:href="#DejaVuSans-65" x="701.025391"/>
      <use xlink:href="#DejaVuSans-73" x="762.548828"/>
     </g>
    </g>
   </g>
   <g id="PolyCollection_1">
    <defs>
     <path id="mdf49d6afd0" d="M 69.650795 -84.779438 
L 69.650795 -83.52 
L 69.650795 -84.779438 
L 69.650795 -84.779438 
z
" style="stroke: #db5f57; stroke-opacity: 0.2; stroke-width: 0.8"/>
    </defs>
    <g clip-path="url(#pc0c635399c)">
     <use xlink:href="#mdf49d6afd0" x="0" y="576" style="fill: #db5f57; fill-opacity: 0.2; stroke: #db5f57; stroke-opacity: 0.2; stroke-width: 0.8"/>
    </g>
   </g>
   <g id="PolyCollection_2">
    <defs>
     <path id="mcde08cffe7" d="M 69.650795 -86.758554 
L 69.650795 -83.52 
L 69.650795 -86.758554 
L 69.650795 -86.758554 
z
" style="stroke: #b9db57; stroke-opacity: 0.2; stroke-width: 0.8"/>
    </defs>
    <g clip-path="url(#pc0c635399c)">
     <use xlink:href="#mcde08cffe7" x="0" y="576" style="fill: #b9db57; fill-opacity: 0.2; stroke: #b9db57; stroke-opacity: 0.2; stroke-width: 0.8"/>
    </g>
   </g>
   <g id="PolyCollection_3">
    <defs>
     <path id="mfe4ff5929b" d="M 69.650795 -85.679036 
L 69.650795 -83.52 
L 69.650795 -85.679036 
L 69.650795 -85.679036 
z
" style="stroke: #57db94; stroke-opacity: 0.2; stroke-width: 0.8"/>
    </defs>
    <g clip-path="url(#pc0c635399c)">
     <use xlink:href="#mfe4ff5929b" x="0" y="576" style="fill: #57db94; fill-opacity: 0.2; stroke: #57db94; stroke-opacity: 0.2; stroke-width: 0.8"/>
    </g>
   </g>
   <g id="PolyCollection_4">
    <defs>
     <path id="m82dd564a41" d="M 69.650795 -86.758554 
L 69.650795 -83.52 
L 69.650795 -86.758554 
L 69.650795 -86.758554 
z
" style="stroke: #5784db; stroke-opacity: 0.2; stroke-width: 0.8"/>
    </defs>
    <g clip-path="url(#pc0c635399c)">
     <use xlink:href="#m82dd564a41" x="0" y="576" style="fill: #5784db; fill-opacity: 0.2; stroke: #5784db; stroke-opacity: 0.2; stroke-width: 0.8"/>
    </g>
   </g>
   <g id="PolyCollection_5">
    <defs>
     <path id="ma1d464c8cf" d="M 69.650795 -86.758554 
L 69.650795 -83.52 
L 69.650795 -86.758554 
L 69.650795 -86.758554 
z
" style="stroke: #c957db; stroke-opacity: 0.2; stroke-width: 0.8"/>
    </defs>
    <g clip-path="url(#pc0c635399c)">
     <use xlink:href="#ma1d464c8cf" x="0" y="576" style="fill: #c957db; fill-opacity: 0.2; stroke: #c957db; stroke-opacity: 0.2; stroke-width: 0.8"/>
    </g>
   </g>
   <g id="line2d_43">
    <path d="M 69.650795 491.850281 
L 69.863628 491.040643 
L 70.07646 491.040643 
L 70.502125 490.141044 
L 70.714958 489.061526 
L 71.566288 489.061526 
L 71.991953 486.362731 
L 72.204785 485.463133 
L 72.417617 485.103293 
L 72.63045 485.103293 
L 72.843282 434.725783 
L 73.056115 434.725783 
L 73.268947 428.608514 
L 74.33311 425.19004 
L 74.545942 410.976386 
L 75.184439 408.097671 
L 75.397272 406.118554 
L 75.822937 406.118554 
L 76.035769 405.938635 
L 76.461434 405.938635 
L 76.674267 399.281606 
L 76.887099 399.101687 
L 77.099932 398.741847 
L 77.312764 398.741847 
L 77.525596 398.382008 
L 77.738429 397.12257 
L 79.015424 397.12257 
L 79.228256 389.026185 
L 80.718083 389.026185 
L 80.930916 388.666345 
L 87.528722 388.666345 
L 87.741555 388.486426 
L 88.592884 388.486426 
L 88.805717 352.32257 
L 89.018549 258.224578 
L 90.508376 258.224578 
L 90.721209 258.044659 
L 91.785371 258.044659 
L 91.998204 257.32498 
L 108.386303 257.32498 
L 108.811968 256.965141 
L 109.0248 256.965141 
L 109.450465 256.605301 
L 109.87613 256.605301 
L 110.088963 164.486426 
L 110.301795 160.168353 
L 119.027926 160.168353 
L 119.240758 155.310522 
L 119.453591 136.239036 
L 119.666423 136.059116 
L 120.304921 136.059116 
L 120.517753 135.879197 
L 141.375334 135.879197 
L 141.588167 118.966747 
L 163.935575 118.966747 
L 164.148407 113.029398 
L 175.428528 113.029398 
L 175.64136 112.669558 
L 179.472345 112.669558 
L 179.685177 112.489639 
L 187.559978 112.489639 
L 187.77281 109.251084 
L 204.799407 109.251084 
L 205.01224 106.372369 
L 224.592826 106.372369 
L 224.805658 103.313735 
L 249.281391 103.313735 
L 249.494224 101.154699 
L 273.118627 101.154699 
L 273.331459 100.61494 
L 293.550543 100.61494 
L 293.763375 99.175582 
L 294.18904 99.175582 
L 294.401873 98.995663 
L 313.556794 98.995663 
L 313.769626 98.635823 
L 324.836914 98.635823 
L 325.049747 96.476787 
L 329.944893 96.476787 
L 330.157726 95.937028 
L 333.775878 95.937028 
L 333.98871 95.757108 
L 344.843165 95.757108 
L 345.055998 95.577189 
L 362.295427 95.577189 
L 362.50826 95.397269 
L 375.916705 95.397269 
L 375.916705 95.397269 
" clip-path="url(#pc0c635399c)" style="fill: none; stroke: #db5f57; stroke-width: 1.2; stroke-linecap: round"/>
   </g>
   <g id="line2d_44">
    <path d="M 69.650795 490.860723 
L 69.863628 489.061526 
L 70.07646 488.881606 
L 71.566288 488.881606 
L 71.77912 483.304096 
L 72.63045 435.985221 
L 72.843282 435.625382 
L 73.056115 428.968353 
L 73.907445 419.61253 
L 74.120277 419.252691 
L 74.545942 412.235823 
L 74.971607 410.256707 
L 76.461434 402.160321 
L 76.674267 400.900884 
L 76.887099 400.720964 
L 77.099932 400.361124 
L 77.312764 400.361124 
L 77.525596 400.001285 
L 77.738429 398.741847 
L 78.164094 395.323373 
L 78.376926 394.603695 
L 78.589759 392.984418 
L 78.802591 392.444659 
L 79.228256 391.005301 
L 79.653921 389.925783 
L 79.866754 388.126586 
L 80.079586 387.766747 
L 80.505251 385.607711 
L 80.718083 385.607711 
L 80.930916 372.113735 
L 81.356581 367.255904 
L 81.569413 360.239036 
L 81.782246 359.159518 
L 81.995078 358.799679 
L 82.207911 356.820562 
L 82.633575 334.330602 
L 83.05924 324.43502 
L 83.484905 321.736225 
L 83.697738 321.556305 
L 84.123403 319.03743 
L 84.336235 318.137831 
L 84.549068 316.518554 
L 84.7619 308.422169 
L 84.974733 292.769157 
L 85.187565 286.651888 
L 85.400397 286.471968 
L 85.61323 285.932209 
L 85.826062 285.03261 
L 86.038895 284.852691 
L 86.46456 284.312932 
L 86.677392 284.133012 
L 86.890225 283.413333 
L 87.103057 281.973976 
L 87.31589 281.973976 
L 87.741555 274.05751 
L 87.954387 272.977992 
L 88.167219 272.977992 
L 88.380052 272.078394 
L 88.592884 267.220562 
L 88.805717 267.220562 
L 89.231382 265.961124 
L 89.444214 256.605301 
L 89.869879 256.065542 
L 90.082712 255.885622 
L 90.508376 255.885622 
L 90.721209 255.705703 
L 90.934041 255.705703 
L 91.146874 254.986024 
L 91.359706 254.986024 
L 91.785371 254.626185 
L 91.998204 250.847871 
L 92.423869 250.847871 
L 92.636701 249.768353 
L 93.488031 249.768353 
L 93.700863 249.588434 
L 93.913696 247.969157 
L 94.339361 247.969157 
L 94.552193 247.069558 
L 94.977858 247.069558 
L 95.190691 246.889639 
L 95.403523 246.889639 
L 95.616356 245.270361 
L 96.254853 244.730602 
L 96.467685 243.471165 
L 96.89335 243.471165 
L 97.106183 242.931406 
L 97.319015 242.931406 
L 98.170345 241.671968 
L 98.59601 241.671968 
L 98.808842 230.696867 
L 99.021675 230.516948 
L 99.234507 230.516948 
L 99.44734 230.337028 
L 99.660172 224.759518 
L 100.085837 224.759518 
L 100.29867 218.28241 
L 100.511502 202.269558 
L 101.362832 202.269558 
L 101.575664 191.114538 
L 101.788497 191.114538 
L 102.001329 190.934618 
L 102.214162 190.934618 
L 102.426994 190.754699 
L 102.639827 190.754699 
L 102.852659 190.574779 
L 103.278324 190.574779 
L 103.491157 186.436627 
L 103.703989 186.436627 
L 103.916821 186.256707 
L 104.129654 186.256707 
L 104.342486 182.118554 
L 104.768151 182.118554 
L 104.980984 181.758715 
L 105.193816 181.758715 
L 105.406649 181.578795 
L 106.257978 181.578795 
L 106.470811 181.398876 
L 106.683643 180.679197 
L 108.811968 180.679197 
L 109.0248 179.959518 
L 110.088963 179.959518 
L 110.301795 179.05992 
L 110.514628 178.88 
L 110.72746 174.022169 
L 110.940293 173.12257 
L 111.153125 172.762731 
L 111.365957 172.762731 
L 111.57879 172.582811 
L 111.791622 171.863133 
L 112.004455 171.863133 
L 112.217287 171.323373 
L 112.43012 171.143454 
L 112.642952 171.143454 
L 112.855785 170.963534 
L 113.068617 170.963534 
L 113.28145 169.704096 
L 114.771277 169.704096 
L 114.984109 168.264739 
L 115.409774 168.264739 
L 115.622607 166.645462 
L 116.048272 166.285622 
L 116.261104 166.285622 
L 116.473937 165.386024 
L 116.686769 165.386024 
L 116.899601 164.486426 
L 117.325266 164.486426 
L 117.538099 164.126586 
L 117.750931 164.126586 
L 117.963764 163.586827 
L 118.176596 163.586827 
L 118.389429 163.226988 
L 118.602261 163.226988 
L 118.815094 158.009317 
L 120.092088 158.009317 
L 120.304921 157.649478 
L 120.730586 157.649478 
L 120.943418 157.289639 
L 121.156251 157.289639 
L 121.369083 156.21012 
L 122.00758 156.21012 
L 122.220413 154.231004 
L 122.433245 154.231004 
L 122.646078 153.871165 
L 122.85891 153.871165 
L 123.071743 153.511325 
L 124.774402 153.511325 
L 125.200067 153.151486 
L 125.4129 152.611727 
L 126.902727 152.611727 
L 127.115559 152.431807 
L 127.328392 152.431807 
L 127.541224 152.251888 
L 127.754057 151.712129 
L 128.605387 151.712129 
L 128.818219 151.532209 
L 129.031052 150.81253 
L 129.243884 150.81253 
L 129.456717 150.63261 
L 130.308046 150.63261 
L 130.520879 150.452691 
L 130.733711 150.452691 
L 130.946544 150.092851 
L 131.159376 150.092851 
L 131.372209 149.373173 
L 131.797874 149.373173 
L 132.010706 147.214137 
L 132.436371 147.214137 
L 132.649203 146.134618 
L 132.862036 146.134618 
L 133.287701 145.0551 
L 133.500533 145.0551 
L 133.713366 144.875181 
L 133.926198 144.875181 
L 134.139031 144.335422 
L 134.351863 144.335422 
L 134.564696 143.615743 
L 134.777528 143.435823 
L 134.99036 143.435823 
L 135.203193 143.255904 
L 135.628858 143.255904 
L 136.054523 142.356305 
L 136.267355 142.356305 
L 136.69302 141.816546 
L 137.331518 141.816546 
L 137.54435 141.636627 
L 137.757182 141.636627 
L 137.970015 141.456707 
L 139.459842 141.456707 
L 139.672675 141.276787 
L 141.800999 141.276787 
L 142.013832 141.096867 
L 143.929324 141.096867 
L 144.142156 140.737028 
L 144.567821 140.737028 
L 145.419151 139.47759 
L 149.6758 139.47759 
L 149.888633 139.297671 
L 151.591292 139.297671 
L 151.804125 139.117751 
L 152.868287 139.117751 
L 153.08112 138.937831 
L 155.847942 138.937831 
L 156.060774 138.757912 
L 158.189099 138.757912 
L 158.401931 137.498474 
L 158.614763 136.958715 
L 159.891758 136.958715 
L 160.317423 136.598876 
L 161.381585 136.598876 
L 161.80725 134.979598 
L 165.425402 134.979598 
L 165.638235 134.799679 
L 166.702397 134.799679 
L 166.915229 134.619759 
L 169.043554 134.619759 
L 169.256386 134.439839 
L 169.469219 134.439839 
L 169.682051 134.08 
L 169.894884 134.08 
L 170.107716 133.720161 
L 170.320549 133.720161 
L 170.533381 133.360321 
L 175.428528 133.360321 
L 175.854193 132.640643 
L 176.279858 132.640643 
L 176.49269 132.280803 
L 177.131187 132.280803 
L 177.34402 132.100884 
L 179.685177 132.100884 
L 179.898009 131.920964 
L 180.536507 131.920964 
L 180.749339 131.741044 
L 181.175004 131.741044 
L 181.387837 131.561124 
L 182.451999 131.561124 
L 182.664831 131.381205 
L 187.134313 131.381205 
L 187.347146 131.201285 
L 188.836973 131.201285 
L 189.049805 131.021365 
L 189.262638 130.301687 
L 189.47547 130.301687 
L 189.688303 130.121767 
L 189.901135 129.582008 
L 190.113967 129.402088 
L 190.752465 129.402088 
L 190.965297 129.042249 
L 197.350271 129.042249 
L 197.563104 128.862329 
L 197.988768 128.862329 
L 198.201601 128.68241 
L 199.904261 128.68241 
L 200.117093 128.50249 
L 200.75559 128.50249 
L 200.968423 128.142651 
L 213.73837 128.142651 
L 213.951203 127.962731 
L 214.802533 127.962731 
L 215.015365 127.782811 
L 215.228198 127.782811 
L 215.44103 127.243052 
L 215.653863 126.343454 
L 216.505192 126.343454 
L 216.718025 125.983614 
L 217.99502 125.983614 
L 218.207852 125.803695 
L 220.549009 125.803695 
L 220.761842 125.623775 
L 229.700805 125.623775 
L 229.913637 125.443855 
L 230.339302 125.443855 
L 230.552135 125.263936 
L 230.764967 125.263936 
L 230.9778 125.084016 
L 234.170287 125.084016 
L 234.383119 124.904096 
L 236.937109 124.904096 
L 237.149941 124.724177 
L 237.362773 124.724177 
L 237.788438 124.364337 
L 240.980925 124.364337 
L 241.193758 124.184418 
L 243.747747 124.184418 
L 243.96058 124.004498 
L 244.386245 124.004498 
L 244.599077 123.644659 
L 244.81191 123.644659 
L 245.024742 123.464739 
L 246.940234 123.464739 
L 247.153067 123.284819 
L 260.135847 123.284819 
L 260.348679 122.92498 
L 272.267297 122.92498 
L 272.480129 122.74506 
L 273.757124 122.74506 
L 274.395621 122.205301 
L 274.608454 122.205301 
L 274.821286 122.025382 
L 276.098281 122.025382 
L 276.311114 121.845462 
L 283.76025 121.845462 
L 283.973082 121.665542 
L 285.037244 121.665542 
L 285.250077 121.485622 
L 295.253202 121.485622 
L 295.466035 121.305703 
L 300.574014 121.305703 
L 300.786846 121.125783 
L 321.431595 121.125783 
L 321.644427 119.326586 
L 322.070092 119.326586 
L 322.282925 119.146667 
L 324.836914 119.146667 
L 325.049747 118.966747 
L 325.901077 118.966747 
L 326.113909 118.606908 
L 327.603736 118.606908 
L 327.816569 118.426988 
L 362.082595 118.426988 
L 362.295427 118.247068 
L 375.916705 118.247068 
L 375.916705 118.247068 
" clip-path="url(#pc0c635399c)" style="fill: none; stroke: #b9db57; stroke-width: 1.2; stroke-linecap: round"/>
   </g>
   <g id="line2d_45">
    <path d="M 69.650795 491.400482 
L 69.863628 490.141044 
L 70.289293 490.141044 
L 70.502125 488.881606 
L 71.566288 488.881606 
L 71.77912 486.90249 
L 71.991953 472.149076 
L 72.204785 445.700884 
L 72.63045 434.725783 
L 72.843282 432.026988 
L 74.545942 432.026988 
L 74.758774 410.076787 
L 74.971607 409.177189 
L 76.035769 409.177189 
L 76.248602 402.340241 
L 76.674267 399.641446 
L 76.887099 399.461526 
L 77.312764 398.921767 
L 79.441089 398.921767 
L 79.653921 388.306506 
L 80.079586 385.787631 
L 80.292418 385.247871 
L 80.505251 385.247871 
L 80.930916 383.088835 
L 81.356581 383.088835 
L 81.569413 357.90008 
L 81.782246 357.90008 
L 81.995078 355.741044 
L 82.207911 354.841446 
L 83.05924 354.841446 
L 83.272073 325.334618 
L 83.484905 318.317751 
L 83.91057 318.317751 
L 84.123403 314.719357 
L 84.336235 313.819759 
L 84.974733 302.12498 
L 85.400397 302.12498 
L 85.61323 279.095261 
L 85.826062 278.015743 
L 86.038895 278.015743 
L 86.251727 277.655904 
L 86.677392 277.655904 
L 87.103057 275.316948 
L 87.31589 275.137028 
L 87.528722 274.597269 
L 93.700863 274.597269 
L 93.913696 239.692851 
L 100.937167 239.692851 
L 101.149999 228.177992 
L 101.362832 184.45751 
L 101.575664 172.762731 
L 101.788497 172.582811 
L 103.065492 172.582811 
L 103.278324 170.783614 
L 103.703989 170.783614 
L 103.916821 163.946667 
L 104.129654 163.946667 
L 104.342486 163.586827 
L 104.555319 163.586827 
L 104.768151 163.406908 
L 105.193816 163.406908 
L 105.406649 163.047068 
L 106.045146 163.047068 
L 106.257978 162.867149 
L 106.683643 161.96755 
L 108.599136 161.96755 
L 109.0248 161.247871 
L 109.237633 161.247871 
L 109.450465 161.067952 
L 109.87613 161.067952 
L 110.088963 160.708112 
L 110.301795 159.808514 
L 110.514628 154.590843 
L 110.72746 153.511325 
L 110.940293 153.511325 
L 111.791622 152.791647 
L 112.43012 151.892048 
L 112.855785 151.892048 
L 113.28145 150.452691 
L 113.494282 150.272771 
L 114.132779 150.272771 
L 114.345612 150.092851 
L 114.558444 150.092851 
L 114.771277 148.653494 
L 114.984109 148.653494 
L 116.048272 145.954699 
L 116.686769 145.954699 
L 116.899601 145.0551 
L 120.304921 145.0551 
L 120.517753 135.699277 
L 120.943418 135.699277 
L 121.156251 134.439839 
L 121.369083 134.25992 
L 121.581916 134.25992 
L 121.794748 132.640643 
L 123.284575 132.640643 
L 123.497408 131.561124 
L 125.4129 131.561124 
L 125.625732 130.661526 
L 127.541224 130.661526 
L 127.754057 130.121767 
L 128.818219 130.121767 
L 129.031052 129.222169 
L 129.456717 129.222169 
L 129.669549 129.042249 
L 130.520879 129.042249 
L 130.733711 128.68241 
L 131.159376 128.68241 
L 131.372209 127.602892 
L 133.074868 127.602892 
L 133.287701 122.92498 
L 133.926198 122.92498 
L 134.139031 122.205301 
L 134.564696 122.205301 
L 134.99036 121.125783 
L 137.331518 121.125783 
L 137.54435 119.506506 
L 143.716491 119.506506 
L 143.929324 118.606908 
L 144.354989 118.067149 
L 144.780654 118.067149 
L 144.993486 117.34747 
L 145.206319 117.34747 
L 145.419151 117.16755 
L 158.401931 117.16755 
L 158.614763 115.008514 
L 160.104591 115.008514 
L 160.317423 114.828594 
L 161.381585 114.828594 
L 161.594418 113.749076 
L 161.80725 113.749076 
L 162.020083 113.209317 
L 167.553727 113.209317 
L 167.766559 112.669558 
L 169.469219 112.669558 
L 169.682051 112.129799 
L 174.79003 112.129799 
L 175.002863 111.41012 
L 175.64136 111.41012 
L 175.854193 110.690442 
L 176.279858 110.690442 
L 176.49269 110.330602 
L 181.387837 110.330602 
L 181.600669 109.790843 
L 182.026334 109.790843 
L 182.239166 109.610924 
L 187.559978 109.610924 
L 187.77281 109.431004 
L 189.47547 109.431004 
L 189.901135 107.811727 
L 190.3268 107.811727 
L 190.539632 107.631807 
L 190.752465 107.631807 
L 191.17813 107.271968 
L 203.096748 107.271968 
L 203.30958 106.552289 
L 215.228198 106.552289 
L 215.44103 105.83261 
L 225.869821 105.83261 
L 226.082653 103.493655 
L 229.913637 103.493655 
L 230.12647 103.313735 
L 232.041962 103.313735 
L 232.254794 102.953896 
L 234.170287 102.953896 
L 234.383119 102.773976 
L 240.980925 102.773976 
L 241.193758 102.414137 
L 241.832255 102.414137 
L 242.045088 102.234217 
L 244.386245 102.234217 
L 244.599077 101.874378 
L 248.217229 101.874378 
L 248.430061 101.334618 
L 267.159318 101.334618 
L 267.37215 100.974779 
L 273.544292 100.974779 
L 273.757124 100.794859 
L 285.037244 100.794859 
L 285.250077 100.61494 
L 295.678867 100.61494 
L 295.8917 99.175582 
L 300.786846 99.175582 
L 300.999679 98.995663 
L 331.221888 98.995663 
L 331.434721 96.296867 
L 375.916705 96.296867 
L 375.916705 96.296867 
" clip-path="url(#pc0c635399c)" style="fill: none; stroke: #57db94; stroke-width: 1.2; stroke-linecap: round"/>
   </g>
   <g id="line2d_46">
    <path d="M 69.650795 490.860723 
L 69.863628 489.061526 
L 70.07646 488.881606 
L 71.566288 488.881606 
L 71.77912 486.182811 
L 71.991953 469.090442 
L 72.417617 453.43743 
L 72.63045 436.52498 
L 72.843282 433.646265 
L 73.268947 426.089639 
L 73.48178 422.671165 
L 73.694612 421.051888 
L 74.758774 408.45751 
L 74.971607 408.097671 
L 75.397272 405.039036 
L 75.610104 405.039036 
L 75.822937 404.859116 
L 76.035769 401.800482 
L 76.248602 401.620562 
L 76.461434 400.361124 
L 76.674267 397.842249 
L 76.887099 397.662329 
L 77.525596 397.662329 
L 77.738429 396.762731 
L 78.164094 393.704096 
L 78.376926 393.524177 
L 78.589759 393.524177 
L 78.802591 390.105703 
L 79.015424 389.925783 
L 79.228256 389.565944 
L 79.441089 389.565944 
L 79.653921 388.486426 
L 79.866754 385.96755 
L 80.079586 385.067952 
L 80.292418 384.708112 
L 80.718083 383.628594 
L 80.930916 368.875181 
L 81.143748 365.096867 
L 81.356581 364.557108 
L 81.569413 364.377189 
L 81.782246 363.83743 
L 81.995078 362.577992 
L 82.207911 360.418956 
L 82.420743 345.665542 
L 82.846408 335.050281 
L 83.05924 332.711325 
L 83.272073 332.531406 
L 83.484905 332.531406 
L 83.697738 332.351486 
L 83.91057 331.991647 
L 84.123403 315.798876 
L 84.336235 314.899277 
L 84.7619 309.861526 
L 84.974733 298.526586 
L 85.187565 293.308916 
L 85.400397 293.308916 
L 86.038895 292.229398 
L 86.251727 288.631004 
L 86.46456 279.994859 
L 86.677392 279.4551 
L 87.103057 279.4551 
L 87.528722 278.555502 
L 87.741555 278.555502 
L 88.167219 272.618153 
L 88.380052 272.618153 
L 88.592884 272.078394 
L 88.805717 263.622169 
L 90.082712 263.622169 
L 90.295544 263.442249 
L 90.508376 262.90249 
L 90.721209 253.546667 
L 91.572539 253.546667 
L 91.785371 253.366747 
L 91.998204 250.128193 
L 92.211036 249.948273 
L 92.423869 249.228594 
L 92.636701 249.048675 
L 92.849534 249.048675 
L 93.062366 246.529799 
L 93.275198 245.99004 
L 93.700863 245.630201 
L 94.339361 245.630201 
L 94.552193 244.730602 
L 94.977858 244.730602 
L 95.403523 243.651084 
L 95.616356 242.031807 
L 95.829188 242.031807 
L 96.04202 241.492048 
L 96.467685 241.492048 
L 96.680518 240.59245 
L 96.89335 240.41253 
L 97.106183 240.41253 
L 97.531848 240.052691 
L 98.170345 240.052691 
L 98.383177 227.818153 
L 98.808842 226.198876 
L 99.021675 222.060723 
L 99.234507 220.621365 
L 99.660172 219.721767 
L 99.873005 207.12739 
L 100.085837 207.12739 
L 100.29867 196.332209 
L 100.511502 196.332209 
L 100.724335 192.733815 
L 100.937167 192.733815 
L 101.149999 192.553896 
L 101.362832 178.88 
L 101.575664 178.88 
L 101.788497 178.70008 
L 102.426994 178.70008 
L 102.639827 178.520161 
L 102.852659 177.980402 
L 103.065492 177.800482 
L 103.278324 174.202088 
L 103.491157 174.202088 
L 103.703989 170.783614 
L 104.129654 169.884016 
L 104.555319 169.524177 
L 104.768151 169.524177 
L 104.980984 169.344257 
L 105.193816 169.344257 
L 105.406649 169.164337 
L 106.045146 169.164337 
L 106.257978 168.984418 
L 106.683643 168.084819 
L 108.386303 168.084819 
L 108.599136 167.72498 
L 108.811968 167.72498 
L 109.0248 167.365141 
L 109.237633 167.365141 
L 109.450465 167.185221 
L 109.87613 167.185221 
L 110.301795 165.925783 
L 110.514628 159.808514 
L 110.940293 159.808514 
L 111.57879 159.268755 
L 112.004455 158.728996 
L 112.43012 158.728996 
L 112.642952 158.189237 
L 112.855785 158.189237 
L 113.068617 157.109719 
L 113.28145 156.74988 
L 114.132779 156.74988 
L 114.345612 156.56996 
L 114.771277 154.950683 
L 114.984109 154.950683 
L 115.196942 154.410924 
L 115.409774 153.331406 
L 115.622607 153.151486 
L 116.048272 152.251888 
L 116.473937 152.251888 
L 116.899601 151.172369 
L 117.112434 151.172369 
L 117.750931 150.272771 
L 118.176596 149.912932 
L 118.389429 149.373173 
L 118.602261 142.176386 
L 119.879256 142.176386 
L 120.304921 141.816546 
L 120.517753 141.456707 
L 120.730586 141.456707 
L 121.156251 140.557108 
L 121.581916 140.197269 
L 121.794748 138.577992 
L 122.220413 138.218153 
L 122.433245 138.218153 
L 122.646078 137.858313 
L 122.85891 137.858313 
L 123.071743 137.498474 
L 124.774402 137.498474 
L 124.987235 137.318554 
L 125.200067 136.958715 
L 126.26423 136.958715 
L 126.689895 136.598876 
L 127.115559 136.598876 
L 127.541224 136.239036 
L 128.392554 136.239036 
L 128.605387 135.699277 
L 128.818219 135.519357 
L 129.031052 135.519357 
L 129.243884 135.159518 
L 130.095214 135.159518 
L 130.308046 134.979598 
L 130.520879 134.979598 
L 130.733711 134.619759 
L 130.946544 134.619759 
L 131.372209 133.720161 
L 131.797874 131.021365 
L 132.649203 129.761928 
L 132.862036 129.582008 
L 133.287701 129.042249 
L 133.500533 128.862329 
L 133.713366 128.50249 
L 133.926198 128.50249 
L 134.139031 128.32257 
L 134.351863 127.782811 
L 134.99036 127.243052 
L 135.203193 127.243052 
L 135.416025 127.063133 
L 135.84169 126.343454 
L 136.054523 126.343454 
L 136.267355 125.983614 
L 136.480188 125.983614 
L 136.69302 125.803695 
L 136.905853 125.803695 
L 137.118685 125.623775 
L 137.54435 125.623775 
L 137.757182 125.443855 
L 141.588167 125.443855 
L 141.800999 125.084016 
L 143.716491 125.084016 
L 144.354989 124.184418 
L 145.206319 124.184418 
L 145.419151 123.284819 
L 157.550601 123.284819 
L 157.763434 123.1049 
L 157.976266 122.74506 
L 158.401931 121.125783 
L 159.466093 121.125783 
L 159.678926 120.945863 
L 160.955921 120.945863 
L 161.168753 120.046265 
L 161.80725 119.146667 
L 165.425402 119.146667 
L 165.638235 118.966747 
L 166.489564 118.966747 
L 166.702397 118.606908 
L 169.043554 118.606908 
L 170.320549 117.52739 
L 170.533381 117.52739 
L 170.746214 117.34747 
L 176.067025 117.34747 
L 176.279858 116.267952 
L 177.131187 116.267952 
L 177.34402 116.088032 
L 180.323674 116.088032 
L 180.749339 115.728193 
L 182.026334 115.728193 
L 182.239166 115.548273 
L 188.198475 115.548273 
L 188.411308 115.368353 
L 189.049805 115.368353 
L 189.262638 115.188434 
L 189.47547 114.468755 
L 189.688303 114.288835 
L 190.113967 113.749076 
L 190.539632 113.749076 
L 190.965297 113.389237 
L 199.052931 113.389237 
L 199.265763 113.209317 
L 200.117093 113.209317 
L 200.329926 113.029398 
L 200.542758 113.029398 
L 200.968423 112.489639 
L 214.802533 112.489639 
L 215.015365 111.76996 
L 215.228198 111.76996 
L 215.44103 111.41012 
L 215.653863 110.330602 
L 217.569355 110.330602 
L 217.782187 109.790843 
L 217.99502 109.610924 
L 218.420685 109.610924 
L 218.633517 109.431004 
L 220.974674 109.431004 
L 221.187507 109.251084 
L 229.700805 109.251084 
L 229.913637 109.071165 
L 230.552135 109.071165 
L 230.764967 108.711325 
L 235.234449 108.711325 
L 235.447281 108.531406 
L 238.001271 108.531406 
L 238.214103 108.171566 
L 242.045088 108.171566 
L 242.25792 107.991647 
L 245.024742 107.991647 
L 245.237574 107.092048 
L 247.153067 107.092048 
L 247.365899 106.912129 
L 260.135847 106.912129 
L 260.348679 106.552289 
L 272.692962 106.552289 
L 272.905794 106.372369 
L 273.969956 106.372369 
L 274.395621 105.652691 
L 274.608454 105.652691 
L 274.821286 105.472771 
L 276.523946 105.472771 
L 276.736778 105.292851 
L 283.547417 105.292851 
L 283.76025 105.112932 
L 285.675742 105.112932 
L 285.888574 104.933012 
L 296.74303 104.933012 
L 296.955862 104.753092 
L 300.786846 104.753092 
L 300.999679 104.573173 
L 321.431595 104.573173 
L 321.644427 103.493655 
L 321.85726 103.313735 
L 324.624082 103.313735 
L 324.836914 103.133815 
L 325.688244 103.133815 
L 325.901077 102.773976 
L 327.178071 102.773976 
L 327.390904 102.594056 
L 362.50826 102.594056 
L 362.721092 102.414137 
L 375.916705 102.414137 
L 375.916705 102.414137 
" clip-path="url(#pc0c635399c)" style="fill: none; stroke: #5784db; stroke-width: 1.2; stroke-linecap: round"/>
   </g>
   <g id="line2d_47">
    <path d="M 69.650795 490.860723 
L 69.863628 489.061526 
L 70.07646 488.881606 
L 71.566288 488.881606 
L 71.77912 481.684819 
L 71.991953 467.471165 
L 72.204785 443.721767 
L 72.63045 433.286426 
L 74.545942 407.917751 
L 74.758774 406.838233 
L 74.971607 406.478394 
L 75.184439 405.218956 
L 75.397272 403.239839 
L 75.610104 402.88 
L 76.887099 395.863133 
L 77.099932 395.683213 
L 77.312764 395.683213 
L 77.525596 395.323373 
L 77.738429 394.063936 
L 78.164094 390.645462 
L 78.376926 389.925783 
L 78.589759 388.306506 
L 79.441089 385.427791 
L 80.292418 380.929799 
L 80.718083 379.850281 
L 80.930916 365.096867 
L 81.143748 363.117751 
L 81.356581 359.879197 
L 81.569413 352.862329 
L 82.207911 349.263936 
L 82.633575 321.196466 
L 82.846408 315.259116 
L 83.484905 312.200482 
L 83.697738 312.020562 
L 83.91057 310.221365 
L 84.123403 309.501687 
L 84.336235 307.70249 
L 84.549068 304.284016 
L 84.7619 297.267149 
L 84.974733 279.63502 
L 85.187565 274.23743 
L 85.400397 274.05751 
L 85.61323 273.697671 
L 85.826062 272.977992 
L 86.038895 272.798072 
L 86.890225 271.358715 
L 87.103057 269.919357 
L 87.31589 269.379598 
L 87.741555 261.103293 
L 88.167219 254.986024 
L 88.592884 253.546667 
L 89.018549 253.186827 
L 89.231382 252.826988 
L 89.444214 243.651084 
L 89.869879 243.111325 
L 90.295544 242.751486 
L 90.508376 242.751486 
L 90.721209 242.211727 
L 90.934041 242.211727 
L 91.146874 242.031807 
L 91.359706 242.031807 
L 91.572539 241.851888 
L 91.785371 241.492048 
L 91.998204 237.533815 
L 92.211036 237.533815 
L 92.423869 236.814137 
L 92.636701 236.634217 
L 92.849534 236.634217 
L 93.275198 235.01494 
L 93.488031 234.83502 
L 93.700863 234.475181 
L 94.339361 234.475181 
L 94.552193 233.575582 
L 94.977858 233.575582 
L 95.403523 232.675984 
L 95.616356 231.056707 
L 95.829188 230.876787 
L 96.04202 230.157108 
L 96.254853 229.977189 
L 96.467685 229.977189 
L 96.89335 229.43743 
L 97.106183 229.43743 
L 97.74468 228.897671 
L 98.170345 228.357912 
L 98.383177 216.303293 
L 98.59601 215.943454 
L 98.808842 215.223775 
L 99.021675 210.905703 
L 99.234507 209.466345 
L 99.660172 208.566747 
L 99.873005 195.972369 
L 100.085837 195.972369 
L 100.29867 185.177189 
L 100.511502 181.039036 
L 100.937167 181.039036 
L 101.149999 180.859116 
L 101.362832 167.185221 
L 101.575664 167.185221 
L 101.788497 167.005301 
L 102.214162 167.005301 
L 102.639827 166.645462 
L 103.065492 166.105703 
L 103.278324 162.507309 
L 103.491157 162.507309 
L 103.703989 159.088835 
L 104.129654 158.009317 
L 104.342486 158.009317 
L 104.555319 157.829398 
L 104.768151 157.829398 
L 104.980984 157.649478 
L 105.193816 157.649478 
L 105.406649 157.469558 
L 106.045146 157.469558 
L 106.257978 157.289639 
L 106.683643 156.39004 
L 108.386303 156.39004 
L 108.599136 156.030201 
L 108.811968 156.030201 
L 109.0248 155.670361 
L 109.237633 155.670361 
L 109.450465 155.490442 
L 109.87613 155.490442 
L 110.301795 154.231004 
L 110.514628 147.933815 
L 110.940293 147.933815 
L 111.57879 147.394056 
L 112.217287 146.494458 
L 112.43012 146.314538 
L 112.855785 146.314538 
L 113.28145 144.695261 
L 114.132779 144.695261 
L 114.345612 144.515341 
L 114.771277 143.075984 
L 114.984109 143.075984 
L 115.196942 142.536225 
L 115.409774 141.456707 
L 115.622607 141.276787 
L 116.048272 140.377189 
L 116.473937 140.377189 
L 116.899601 139.297671 
L 117.112434 139.297671 
L 117.750931 138.398072 
L 118.176596 138.038233 
L 118.389429 137.498474 
L 118.602261 130.301687 
L 119.879256 130.301687 
L 120.304921 129.941847 
L 120.517753 129.582008 
L 120.730586 129.582008 
L 121.156251 128.68241 
L 121.581916 128.32257 
L 121.794748 126.703293 
L 122.220413 126.343454 
L 122.433245 126.343454 
L 122.646078 125.983614 
L 122.85891 125.983614 
L 123.071743 125.623775 
L 124.774402 125.623775 
L 124.987235 125.443855 
L 125.200067 124.904096 
L 125.4129 124.724177 
L 126.477062 124.724177 
L 126.689895 124.544257 
L 127.115559 124.544257 
L 127.541224 124.184418 
L 128.392554 124.184418 
L 128.818219 123.284819 
L 129.031052 123.284819 
L 129.243884 123.1049 
L 130.095214 123.1049 
L 130.308046 122.92498 
L 130.520879 122.92498 
L 130.733711 122.565141 
L 130.946544 122.565141 
L 131.372209 121.665542 
L 131.797874 118.966747 
L 132.649203 117.707309 
L 132.862036 117.52739 
L 133.287701 116.987631 
L 133.500533 116.807711 
L 133.713366 116.447871 
L 133.926198 116.447871 
L 134.139031 116.267952 
L 134.351863 115.728193 
L 134.99036 115.188434 
L 135.203193 115.188434 
L 135.416025 115.008514 
L 135.84169 114.288835 
L 136.054523 114.288835 
L 136.267355 113.928996 
L 136.480188 113.928996 
L 136.69302 113.749076 
L 136.905853 113.749076 
L 137.118685 113.569157 
L 137.54435 113.569157 
L 137.757182 113.389237 
L 139.459842 113.389237 
L 139.672675 113.209317 
L 141.588167 113.209317 
L 141.800999 113.029398 
L 143.716491 113.029398 
L 144.354989 112.129799 
L 144.780654 112.129799 
L 144.993486 111.41012 
L 145.206319 111.41012 
L 145.419151 111.230201 
L 155.847942 111.230201 
L 156.060774 111.050281 
L 157.763434 111.050281 
L 157.976266 110.690442 
L 158.401931 109.071165 
L 159.466093 109.071165 
L 159.678926 108.891245 
L 160.104591 108.891245 
L 160.317423 108.711325 
L 160.955921 108.711325 
L 161.381585 107.631807 
L 161.594418 107.092048 
L 165.425402 107.092048 
L 165.638235 106.912129 
L 166.489564 106.912129 
L 166.702397 106.552289 
L 169.043554 106.552289 
L 169.469219 106.19245 
L 169.894884 105.652691 
L 170.107716 105.652691 
L 170.533381 105.292851 
L 175.428528 105.292851 
L 175.64136 104.573173 
L 176.067025 104.573173 
L 176.279858 104.213333 
L 177.131187 104.213333 
L 177.34402 104.033414 
L 179.472345 104.033414 
L 179.685177 103.853494 
L 180.536507 103.853494 
L 180.749339 103.673574 
L 182.026334 103.673574 
L 182.239166 103.493655 
L 187.134313 103.493655 
L 187.347146 103.313735 
L 188.836973 103.313735 
L 189.049805 103.133815 
L 189.262638 102.414137 
L 189.688303 102.054297 
L 190.113967 101.514538 
L 190.539632 101.514538 
L 190.965297 101.154699 
L 197.988768 101.154699 
L 198.201601 100.974779 
L 199.904261 100.974779 
L 200.117093 100.794859 
L 200.542758 100.794859 
L 200.968423 100.2551 
L 213.73837 100.2551 
L 213.951203 100.075181 
L 214.802533 100.075181 
L 215.015365 99.355502 
L 215.228198 99.355502 
L 215.44103 98.995663 
L 215.653863 97.916145 
L 216.505192 97.916145 
L 216.718025 97.556305 
L 217.569355 97.556305 
L 217.99502 97.016546 
L 220.549009 97.016546 
L 220.761842 96.836627 
L 229.700805 96.836627 
L 229.913637 96.656707 
L 230.339302 96.656707 
L 230.764967 96.296867 
L 234.170287 96.296867 
L 234.383119 96.116948 
L 236.937109 96.116948 
L 237.149941 95.937028 
L 237.575606 95.937028 
L 237.788438 95.757108 
L 240.980925 95.757108 
L 241.193758 95.577189 
L 243.747747 95.577189 
L 243.96058 95.397269 
L 244.386245 95.397269 
L 244.599077 95.03743 
L 244.81191 95.03743 
L 245.237574 94.67759 
L 246.940234 94.67759 
L 247.153067 94.497671 
L 260.135847 94.497671 
L 260.348679 94.137831 
L 272.267297 94.137831 
L 272.480129 93.957912 
L 273.757124 93.957912 
L 274.182789 93.598072 
L 274.395621 93.238233 
L 274.608454 93.238233 
L 274.821286 93.058313 
L 276.098281 93.058313 
L 276.311114 92.878394 
L 283.547417 92.878394 
L 283.76025 92.698474 
L 285.037244 92.698474 
L 285.250077 92.518554 
L 295.253202 92.518554 
L 295.466035 92.338635 
L 300.574014 92.338635 
L 300.786846 92.158715 
L 321.431595 92.158715 
L 321.644427 90.359518 
L 321.85726 90.179598 
L 324.624082 90.179598 
L 324.836914 89.999679 
L 325.688244 89.999679 
L 325.901077 89.639839 
L 327.178071 89.639839 
L 327.390904 89.45992 
L 362.082595 89.45992 
L 362.295427 89.28 
L 375.916705 89.28 
L 375.916705 89.28 
" clip-path="url(#pc0c635399c)" style="fill: none; stroke: #c957db; stroke-width: 1.2; stroke-linecap: round"/>
   </g>
   <g id="line2d_48"/>
   <g id="line2d_49"/>
   <g id="line2d_50"/>
   <g id="line2d_51"/>
   <g id="line2d_52"/>
   <g id="patch_3">
    <path d="M 54.3375 512.64 
L 54.3375 69.12 
" style="fill: none; stroke: #cccccc; stroke-linejoin: miter; stroke-linecap: square"/>
   </g>
   <g id="patch_4">
    <path d="M 54.3375 512.64 
L 391.23 512.64 
" style="fill: none; stroke: #cccccc; stroke-linejoin: miter; stroke-linecap: square"/>
   </g>
   <g id="text_45">
    <!-- Edge Coverage History -->
    <g style="fill: #262626" transform="translate(115.892262 63.12)scale(0.165888 -0.165888)">
     <defs>
      <path id="DejaVuSans-Bold-45" d="M 588 4666 
L 3834 4666 
L 3834 3756 
L 1791 3756 
L 1791 2888 
L 3713 2888 
L 3713 1978 
L 1791 1978 
L 1791 909 
L 3903 909 
L 3903 0 
L 588 0 
L 588 4666 
z
" transform="scale(0.015625)"/>
      <path id="DejaVuSans-Bold-64" d="M 2919 2988 
L 2919 4863 
L 4044 4863 
L 4044 0 
L 2919 0 
L 2919 506 
Q 2688 197 2409 53 
Q 2131 -91 1766 -91 
Q 1119 -91 703 423 
Q 288 938 288 1747 
Q 288 2556 703 3070 
Q 1119 3584 1766 3584 
Q 2128 3584 2408 3439 
Q 2688 3294 2919 2988 
z
M 2181 722 
Q 2541 722 2730 984 
Q 2919 1247 2919 1747 
Q 2919 2247 2730 2509 
Q 2541 2772 2181 2772 
Q 1825 2772 1636 2509 
Q 1447 2247 1447 1747 
Q 1447 1247 1636 984 
Q 1825 722 2181 722 
z
" transform="scale(0.015625)"/>
      <path id="DejaVuSans-Bold-67" d="M 2919 594 
Q 2688 288 2409 144 
Q 2131 0 1766 0 
Q 1125 0 706 504 
Q 288 1009 288 1791 
Q 288 2575 706 3076 
Q 1125 3578 1766 3578 
Q 2131 3578 2409 3434 
Q 2688 3291 2919 2981 
L 2919 3500 
L 4044 3500 
L 4044 353 
Q 4044 -491 3511 -936 
Q 2978 -1381 1966 -1381 
Q 1638 -1381 1331 -1331 
Q 1025 -1281 716 -1178 
L 716 -306 
Q 1009 -475 1290 -558 
Q 1572 -641 1856 -641 
Q 2406 -641 2662 -400 
Q 2919 -159 2919 353 
L 2919 594 
z
M 2181 2772 
Q 1834 2772 1640 2515 
Q 1447 2259 1447 1791 
Q 1447 1309 1634 1061 
Q 1822 813 2181 813 
Q 2531 813 2725 1069 
Q 2919 1325 2919 1791 
Q 2919 2259 2725 2515 
Q 2531 2772 2181 2772 
z
" transform="scale(0.015625)"/>
      <path id="DejaVuSans-Bold-65" d="M 4031 1759 
L 4031 1441 
L 1416 1441 
Q 1456 1047 1700 850 
Q 1944 653 2381 653 
Q 2734 653 3104 758 
Q 3475 863 3866 1075 
L 3866 213 
Q 3469 63 3072 -14 
Q 2675 -91 2278 -91 
Q 1328 -91 801 392 
Q 275 875 275 1747 
Q 275 2603 792 3093 
Q 1309 3584 2216 3584 
Q 3041 3584 3536 3087 
Q 4031 2591 4031 1759 
z
M 2881 2131 
Q 2881 2450 2695 2645 
Q 2509 2841 2209 2841 
Q 1884 2841 1681 2658 
Q 1478 2475 1428 2131 
L 2881 2131 
z
" transform="scale(0.015625)"/>
      <path id="DejaVuSans-Bold-20" transform="scale(0.015625)"/>
      <path id="DejaVuSans-Bold-43" d="M 4288 256 
Q 3956 84 3597 -3 
Q 3238 -91 2847 -91 
Q 1681 -91 1000 561 
Q 319 1213 319 2328 
Q 319 3447 1000 4098 
Q 1681 4750 2847 4750 
Q 3238 4750 3597 4662 
Q 3956 4575 4288 4403 
L 4288 3438 
Q 3953 3666 3628 3772 
Q 3303 3878 2944 3878 
Q 2300 3878 1931 3465 
Q 1563 3053 1563 2328 
Q 1563 1606 1931 1193 
Q 2300 781 2944 781 
Q 3303 781 3628 887 
Q 3953 994 4288 1222 
L 4288 256 
z
" transform="scale(0.015625)"/>
      <path id="DejaVuSans-Bold-6f" d="M 2203 2784 
Q 1831 2784 1636 2517 
Q 1441 2250 1441 1747 
Q 1441 1244 1636 976 
Q 1831 709 2203 709 
Q 2569 709 2762 976 
Q 2956 1244 2956 1747 
Q 2956 2250 2762 2517 
Q 2569 2784 2203 2784 
z
M 2203 3584 
Q 3106 3584 3614 3096 
Q 4122 2609 4122 1747 
Q 4122 884 3614 396 
Q 3106 -91 2203 -91 
Q 1297 -91 786 396 
Q 275 884 275 1747 
Q 275 2609 786 3096 
Q 1297 3584 2203 3584 
z
" transform="scale(0.015625)"/>
      <path id="DejaVuSans-Bold-76" d="M 97 3500 
L 1216 3500 
L 2088 1081 
L 2956 3500 
L 4078 3500 
L 2700 0 
L 1472 0 
L 97 3500 
z
" transform="scale(0.015625)"/>
      <path id="DejaVuSans-Bold-72" d="M 3138 2547 
Q 2991 2616 2845 2648 
Q 2700 2681 2553 2681 
Q 2122 2681 1889 2404 
Q 1656 2128 1656 1613 
L 1656 0 
L 538 0 
L 538 3500 
L 1656 3500 
L 1656 2925 
Q 1872 3269 2151 3426 
Q 2431 3584 2822 3584 
Q 2878 3584 2943 3579 
Q 3009 3575 3134 3559 
L 3138 2547 
z
" transform="scale(0.015625)"/>
      <path id="DejaVuSans-Bold-61" d="M 2106 1575 
Q 1756 1575 1579 1456 
Q 1403 1338 1403 1106 
Q 1403 894 1545 773 
Q 1688 653 1941 653 
Q 2256 653 2472 879 
Q 2688 1106 2688 1447 
L 2688 1575 
L 2106 1575 
z
M 3816 1997 
L 3816 0 
L 2688 0 
L 2688 519 
Q 2463 200 2181 54 
Q 1900 -91 1497 -91 
Q 953 -91 614 226 
Q 275 544 275 1050 
Q 275 1666 698 1953 
Q 1122 2241 2028 2241 
L 2688 2241 
L 2688 2328 
Q 2688 2594 2478 2717 
Q 2269 2841 1825 2841 
Q 1466 2841 1156 2769 
Q 847 2697 581 2553 
L 581 3406 
Q 941 3494 1303 3539 
Q 1666 3584 2028 3584 
Q 2975 3584 3395 3211 
Q 3816 2838 3816 1997 
z
" transform="scale(0.015625)"/>
      <path id="DejaVuSans-Bold-48" d="M 588 4666 
L 1791 4666 
L 1791 2888 
L 3566 2888 
L 3566 4666 
L 4769 4666 
L 4769 0 
L 3566 0 
L 3566 1978 
L 1791 1978 
L 1791 0 
L 588 0 
L 588 4666 
z
" transform="scale(0.015625)"/>
      <path id="DejaVuSans-Bold-69" d="M 538 3500 
L 1656 3500 
L 1656 0 
L 538 0 
L 538 3500 
z
M 538 4863 
L 1656 4863 
L 1656 3950 
L 538 3950 
L 538 4863 
z
" transform="scale(0.015625)"/>
      <path id="DejaVuSans-Bold-73" d="M 3272 3391 
L 3272 2541 
Q 2913 2691 2578 2766 
Q 2244 2841 1947 2841 
Q 1628 2841 1473 2761 
Q 1319 2681 1319 2516 
Q 1319 2381 1436 2309 
Q 1553 2238 1856 2203 
L 2053 2175 
Q 2913 2066 3209 1816 
Q 3506 1566 3506 1031 
Q 3506 472 3093 190 
Q 2681 -91 1863 -91 
Q 1516 -91 1145 -36 
Q 775 19 384 128 
L 384 978 
Q 719 816 1070 734 
Q 1422 653 1784 653 
Q 2113 653 2278 743 
Q 2444 834 2444 1013 
Q 2444 1163 2330 1236 
Q 2216 1309 1875 1350 
L 1678 1375 
Q 931 1469 631 1722 
Q 331 1975 331 2491 
Q 331 3047 712 3315 
Q 1094 3584 1881 3584 
Q 2191 3584 2531 3537 
Q 2872 3491 3272 3391 
z
" transform="scale(0.015625)"/>
      <path id="DejaVuSans-Bold-74" d="M 1759 4494 
L 1759 3500 
L 2913 3500 
L 2913 2700 
L 1759 2700 
L 1759 1216 
Q 1759 972 1856 886 
Q 1953 800 2241 800 
L 2816 800 
L 2816 0 
L 1856 0 
Q 1194 0 917 276 
Q 641 553 641 1216 
L 641 2700 
L 84 2700 
L 84 3500 
L 641 3500 
L 641 4494 
L 1759 4494 
z
" transform="scale(0.015625)"/>
      <path id="DejaVuSans-Bold-79" d="M 78 3500 
L 1197 3500 
L 2138 1125 
L 2938 3500 
L 4056 3500 
L 2584 -331 
Q 2363 -916 2067 -1148 
Q 1772 -1381 1288 -1381 
L 641 -1381 
L 641 -647 
L 991 -647 
Q 1275 -647 1404 -556 
Q 1534 -466 1606 -231 
L 1638 -134 
L 78 3500 
z
" transform="scale(0.015625)"/>
     </defs>
     <use xlink:href="#DejaVuSans-Bold-45"/>
     <use xlink:href="#DejaVuSans-Bold-64" x="68.310547"/>
     <use xlink:href="#DejaVuSans-Bold-67" x="139.892578"/>
     <use xlink:href="#DejaVuSans-Bold-65" x="211.474609"/>
     <use xlink:href="#DejaVuSans-Bold-20" x="279.296875"/>
     <use xlink:href="#DejaVuSans-Bold-43" x="314.111328"/>
     <use xlink:href="#DejaVuSans-Bold-6f" x="387.5"/>
     <use xlink:href="#DejaVuSans-Bold-76" x="456.201172"/>
     <use xlink:href="#DejaVuSans-Bold-65" x="521.386719"/>
     <use xlink:href="#DejaVuSans-Bold-72" x="589.208984"/>
     <use xlink:href="#DejaVuSans-Bold-61" x="638.525391"/>
     <use xlink:href="#DejaVuSans-Bold-67" x="706.005859"/>
     <use xlink:href="#DejaVuSans-Bold-65" x="777.587891"/>
     <use xlink:href="#DejaVuSans-Bold-20" x="845.410156"/>
     <use xlink:href="#DejaVuSans-Bold-48" x="880.224609"/>
     <use xlink:href="#DejaVuSans-Bold-69" x="963.916016"/>
     <use xlink:href="#DejaVuSans-Bold-73" x="998.193359"/>
     <use xlink:href="#DejaVuSans-Bold-74" x="1057.714844"/>
     <use xlink:href="#DejaVuSans-Bold-6f" x="1105.517578"/>
     <use xlink:href="#DejaVuSans-Bold-72" x="1174.21875"/>
     <use xlink:href="#DejaVuSans-Bold-79" x="1223.535156"/>
    </g>
   </g>
   <g id="legend_1">
    <g id="patch_5">
     <path d="M 267.942 508.24 
L 385.07 508.24 
Q 386.83 508.24 386.83 506.48 
L 386.83 428.8405 
Q 386.83 427.0805 385.07 427.0805 
L 267.942 427.0805 
Q 266.182 427.0805 266.182 428.8405 
L 266.182 506.48 
Q 266.182 508.24 267.942 508.24 
z
" style="fill: #ffffff; opacity: 0.8; stroke: #cccccc; stroke-width: 0.8; stroke-linejoin: miter"/>
    </g>
    <g id="text_46">
     <!-- fuzzer -->
     <g style="fill: #262626" transform="translate(311.809 437.895)scale(0.096 -0.096)">
      <defs>
       <path id="DejaVuSans-66" d="M 2375 4863 
L 2375 4384 
L 1825 4384 
Q 1516 4384 1395 4259 
Q 1275 4134 1275 3809 
L 1275 3500 
L 2222 3500 
L 2222 3053 
L 1275 3053 
L 1275 0 
L 697 0 
L 697 3053 
L 147 3053 
L 147 3500 
L 697 3500 
L 697 3744 
Q 697 4328 969 4595 
Q 1241 4863 1831 4863 
L 2375 4863 
z
" transform="scale(0.015625)"/>
       <path id="DejaVuSans-7a" d="M 353 3500 
L 3084 3500 
L 3084 2975 
L 922 459 
L 3084 459 
L 3084 0 
L 275 0 
L 275 525 
L 2438 3041 
L 353 3041 
L 353 3500 
z
" transform="scale(0.015625)"/>
      </defs>
      <use xlink:href="#DejaVuSans-66"/>
      <use xlink:href="#DejaVuSans-75" x="35.205078"/>
      <use xlink:href="#DejaVuSans-7a" x="98.583984"/>
      <use xlink:href="#DejaVuSans-7a" x="151.074219"/>
      <use xlink:href="#DejaVuSans-65" x="203.564453"/>
      <use xlink:href="#DejaVuSans-72" x="265.087891"/>
     </g>
    </g>
    <g id="line2d_53">
     <path d="M 269.702 447.898125 
L 278.502 447.898125 
L 287.302 447.898125 
" style="fill: none; stroke: #db5f57; stroke-width: 1.2; stroke-linecap: round"/>
    </g>
    <g id="text_47">
     <!-- aflfast-0-exid24 -->
     <g style="fill: #262626" transform="translate(294.342 450.978125)scale(0.088 -0.088)">
      <defs>
       <path id="DejaVuSans-6c" d="M 603 4863 
L 1178 4863 
L 1178 0 
L 603 0 
L 603 4863 
z
" transform="scale(0.015625)"/>
       <path id="DejaVuSans-2d" d="M 313 2009 
L 1997 2009 
L 1997 1497 
L 313 1497 
L 313 2009 
z
" transform="scale(0.015625)"/>
       <path id="DejaVuSans-78" d="M 3513 3500 
L 2247 1797 
L 3578 0 
L 2900 0 
L 1881 1375 
L 863 0 
L 184 0 
L 1544 1831 
L 300 3500 
L 978 3500 
L 1906 2253 
L 2834 3500 
L 3513 3500 
z
" transform="scale(0.015625)"/>
      </defs>
      <use xlink:href="#DejaVuSans-61"/>
      <use xlink:href="#DejaVuSans-66" x="61.279297"/>
      <use xlink:href="#DejaVuSans-6c" x="96.484375"/>
      <use xlink:href="#DejaVuSans-66" x="124.267578"/>
      <use xlink:href="#DejaVuSans-61" x="159.472656"/>
      <use xlink:href="#DejaVuSans-73" x="220.751953"/>
      <use xlink:href="#DejaVuSans-74" x="272.851562"/>
      <use xlink:href="#DejaVuSans-2d" x="312.060547"/>
      <use xlink:href="#DejaVuSans-30" x="348.144531"/>
      <use xlink:href="#DejaVuSans-2d" x="411.767578"/>
      <use xlink:href="#DejaVuSans-65" x="447.851562"/>
      <use xlink:href="#DejaVuSans-78" x="507.625"/>
      <use xlink:href="#DejaVuSans-69" x="566.804688"/>
      <use xlink:href="#DejaVuSans-64" x="594.587891"/>
      <use xlink:href="#DejaVuSans-32" x="658.064453"/>
      <use xlink:href="#DejaVuSans-34" x="721.6875"/>
     </g>
    </g>
    <g id="line2d_54">
     <path d="M 269.702 460.814875 
L 278.502 460.814875 
L 287.302 460.814875 
" style="fill: none; stroke: #b9db57; stroke-width: 1.2; stroke-linecap: round"/>
    </g>
    <g id="text_48">
     <!-- afl-0-exid24 -->
     <g style="fill: #262626" transform="translate(294.342 463.894875)scale(0.088 -0.088)">
      <use xlink:href="#DejaVuSans-61"/>
      <use xlink:href="#DejaVuSans-66" x="61.279297"/>
      <use xlink:href="#DejaVuSans-6c" x="96.484375"/>
      <use xlink:href="#DejaVuSans-2d" x="124.267578"/>
      <use xlink:href="#DejaVuSans-30" x="160.351562"/>
      <use xlink:href="#DejaVuSans-2d" x="223.974609"/>
      <use xlink:href="#DejaVuSans-65" x="260.058594"/>
      <use xlink:href="#DejaVuSans-78" x="319.832031"/>
      <use xlink:href="#DejaVuSans-69" x="379.011719"/>
      <use xlink:href="#DejaVuSans-64" x="406.794922"/>
      <use xlink:href="#DejaVuSans-32" x="470.271484"/>
      <use xlink:href="#DejaVuSans-34" x="533.894531"/>
     </g>
    </g>
    <g id="line2d_55">
     <path d="M 269.702 473.731625 
L 278.502 473.731625 
L 287.302 473.731625 
" style="fill: none; stroke: #57db94; stroke-width: 1.2; stroke-linecap: round"/>
    </g>
    <g id="text_49">
     <!-- aflplusplus-0-exid24 -->
     <g style="fill: #262626" transform="translate(294.342 476.811625)scale(0.088 -0.088)">
      <defs>
       <path id="DejaVuSans-70" d="M 1159 525 
L 1159 -1331 
L 581 -1331 
L 581 3500 
L 1159 3500 
L 1159 2969 
Q 1341 3281 1617 3432 
Q 1894 3584 2278 3584 
Q 2916 3584 3314 3078 
Q 3713 2572 3713 1747 
Q 3713 922 3314 415 
Q 2916 -91 2278 -91 
Q 1894 -91 1617 61 
Q 1341 213 1159 525 
z
M 3116 1747 
Q 3116 2381 2855 2742 
Q 2594 3103 2138 3103 
Q 1681 3103 1420 2742 
Q 1159 2381 1159 1747 
Q 1159 1113 1420 752 
Q 1681 391 2138 391 
Q 2594 391 2855 752 
Q 3116 1113 3116 1747 
z
" transform="scale(0.015625)"/>
      </defs>
      <use xlink:href="#DejaVuSans-61"/>
      <use xlink:href="#DejaVuSans-66" x="61.279297"/>
      <use xlink:href="#DejaVuSans-6c" x="96.484375"/>
      <use xlink:href="#DejaVuSans-70" x="124.267578"/>
      <use xlink:href="#DejaVuSans-6c" x="187.744141"/>
      <use xlink:href="#DejaVuSans-75" x="215.527344"/>
      <use xlink:href="#DejaVuSans-73" x="278.90625"/>
      <use xlink:href="#DejaVuSans-70" x="331.005859"/>
      <use xlink:href="#DejaVuSans-6c" x="394.482422"/>
      <use xlink:href="#DejaVuSans-75" x="422.265625"/>
      <use xlink:href="#DejaVuSans-73" x="485.644531"/>
      <use xlink:href="#DejaVuSans-2d" x="537.744141"/>
      <use xlink:href="#DejaVuSans-30" x="573.828125"/>
      <use xlink:href="#DejaVuSans-2d" x="637.451172"/>
      <use xlink:href="#DejaVuSans-65" x="673.535156"/>
      <use xlink:href="#DejaVuSans-78" x="733.308594"/>
      <use xlink:href="#DejaVuSans-69" x="792.488281"/>
      <use xlink:href="#DejaVuSans-64" x="820.271484"/>
      <use xlink:href="#DejaVuSans-32" x="883.748047"/>
      <use xlink:href="#DejaVuSans-34" x="947.371094"/>
     </g>
    </g>
    <g id="line2d_56">
     <path d="M 269.702 486.648375 
L 278.502 486.648375 
L 287.302 486.648375 
" style="fill: none; stroke: #5784db; stroke-width: 1.2; stroke-linecap: round"/>
    </g>
    <g id="text_50">
     <!-- fairfuzz-0-exid24 -->
     <g style="fill: #262626" transform="translate(294.342 489.728375)scale(0.088 -0.088)">
      <use xlink:href="#DejaVuSans-66"/>
      <use xlink:href="#DejaVuSans-61" x="35.205078"/>
      <use xlink:href="#DejaVuSans-69" x="96.484375"/>
      <use xlink:href="#DejaVuSans-72" x="124.267578"/>
      <use xlink:href="#DejaVuSans-66" x="165.380859"/>
      <use xlink:href="#DejaVuSans-75" x="200.585938"/>
      <use xlink:href="#DejaVuSans-7a" x="263.964844"/>
      <use xlink:href="#DejaVuSans-7a" x="316.455078"/>
      <use xlink:href="#DejaVuSans-2d" x="368.945312"/>
      <use xlink:href="#DejaVuSans-30" x="405.029297"/>
      <use xlink:href="#DejaVuSans-2d" x="468.652344"/>
      <use xlink:href="#DejaVuSans-65" x="504.736328"/>
      <use xlink:href="#DejaVuSans-78" x="564.509766"/>
      <use xlink:href="#DejaVuSans-69" x="623.689453"/>
      <use xlink:href="#DejaVuSans-64" x="651.472656"/>
      <use xlink:href="#DejaVuSans-32" x="714.949219"/>
      <use xlink:href="#DejaVuSans-34" x="778.572266"/>
     </g>
    </g>
    <g id="line2d_57">
     <path d="M 269.702 499.565125 
L 278.502 499.565125 
L 287.302 499.565125 
" style="fill: none; stroke: #c957db; stroke-width: 1.2; stroke-linecap: round"/>
    </g>
    <g id="text_51">
     <!-- fuzzer_global -->
     <g style="fill: #262626" transform="translate(294.342 502.645125)scale(0.088 -0.088)">
      <defs>
       <path id="DejaVuSans-5f" d="M 3263 -1063 
L 3263 -1509 
L -63 -1509 
L -63 -1063 
L 3263 -1063 
z
" transform="scale(0.015625)"/>
       <path id="DejaVuSans-62" d="M 3116 1747 
Q 3116 2381 2855 2742 
Q 2594 3103 2138 3103 
Q 1681 3103 1420 2742 
Q 1159 2381 1159 1747 
Q 1159 1113 1420 752 
Q 1681 391 2138 391 
Q 2594 391 2855 752 
Q 3116 1113 3116 1747 
z
M 1159 2969 
Q 1341 3281 1617 3432 
Q 1894 3584 2278 3584 
Q 2916 3584 3314 3078 
Q 3713 2572 3713 1747 
Q 3713 922 3314 415 
Q 2916 -91 2278 -91 
Q 1894 -91 1617 61 
Q 1341 213 1159 525 
L 1159 0 
L 581 0 
L 581 4863 
L 1159 4863 
L 1159 2969 
z
" transform="scale(0.015625)"/>
      </defs>
      <use xlink:href="#DejaVuSans-66"/>
      <use xlink:href="#DejaVuSans-75" x="35.205078"/>
      <use xlink:href="#DejaVuSans-7a" x="98.583984"/>
      <use xlink:href="#DejaVuSans-7a" x="151.074219"/>
      <use xlink:href="#DejaVuSans-65" x="203.564453"/>
      <use xlink:href="#DejaVuSans-72" x="265.087891"/>
      <use xlink:href="#DejaVuSans-5f" x="306.201172"/>
      <use xlink:href="#DejaVuSans-67" x="356.201172"/>
      <use xlink:href="#DejaVuSans-6c" x="419.677734"/>
      <use xlink:href="#DejaVuSans-6f" x="447.460938"/>
      <use xlink:href="#DejaVuSans-62" x="508.642578"/>
      <use xlink:href="#DejaVuSans-61" x="572.119141"/>
      <use xlink:href="#DejaVuSans-6c" x="633.398438"/>
     </g>
    </g>
   </g>
  </g>
 </g>
 <defs>
  <clipPath id="pc0c635399c">
   <rect x="54.3375" y="69.12" width="336.8925" height="443.52"/>
  </clipPath>
 </defs>
</svg>
