<?xml version="1.0" encoding="utf-8" standalone="no"?>
<!DOCTYPE svg PUBLIC "-//W3C//DTD SVG 1.1//EN"
  "http://www.w3.org/Graphics/SVG/1.1/DTD/svg11.dtd">
<svg xmlns:xlink="http://www.w3.org/1999/xlink" width="434.7pt" height="576pt" viewBox="0 0 434.7 576" xmlns="http://www.w3.org/2000/svg" version="1.1">
 <metadata>
  <rdf:RDF xmlns:dc="http://purl.org/dc/elements/1.1/" xmlns:cc="http://creativecommons.org/ns#" xmlns:rdf="http://www.w3.org/1999/02/22-rdf-syntax-ns#">
   <cc:Work>
    <dc:type rdf:resource="http://purl.org/dc/dcmitype/StillImage"/>
    <dc:date>2022-09-15T08:05:46.873830</dc:date>
    <dc:format>image/svg+xml</dc:format>
    <dc:creator>
     <cc:Agent>
      <dc:title>Matplotlib v3.5.3, https://matplotlib.org/</dc:title>
     </cc:Agent>
    </dc:creator>
   </cc:Work>
  </rdf:RDF>
 </metadata>
 <defs>
  <style type="text/css">*{stroke-linejoin: round; stroke-linecap: butt}</style>
 </defs>
 <g id="figure_1">
  <g id="patch_1">
   <path d="M 0 576 
L 434.7 576 
L 434.7 0 
L 0 0 
z
" style="fill: #ffffff"/>
  </g>
  <g id="axes_1">
   <g id="patch_2">
    <path d="M 54.3375 512.64 
L 391.23 512.64 
L 391.23 69.12 
L 54.3375 69.12 
z
" style="fill: #ffffff"/>
   </g>
   <g id="matplotlib.axis_1">
    <g id="xtick_1">
     <g id="line2d_1">
      <path d="M 69.650795 512.64 
L 69.650795 69.12 
" clip-path="url(#p1021cd8c20)" style="fill: none; stroke: #cccccc; stroke-width: 0.8; stroke-linecap: round"/>
     </g>
     <g id="text_1">
      <!-- 0 -->
      <g style="fill: #262626" transform="translate(69.388282 529.627249)rotate(-45)scale(0.088 -0.088)">
       <defs>
        <path id="DejaVuSans-30" d="M 2034 4250 
Q 1547 4250 1301 3770 
Q 1056 3291 1056 2328 
Q 1056 1369 1301 889 
Q 1547 409 2034 409 
Q 2525 409 2770 889 
Q 3016 1369 3016 2328 
Q 3016 3291 2770 3770 
Q 2525 4250 2034 4250 
z
M 2034 4750 
Q 2819 4750 3233 4129 
Q 3647 3509 3647 2328 
Q 3647 1150 3233 529 
Q 2819 -91 2034 -91 
Q 1250 -91 836 529 
Q 422 1150 422 2328 
Q 422 3509 836 4129 
Q 1250 4750 2034 4750 
z
" transform="scale(0.015625)"/>
       </defs>
       <use xlink:href="#DejaVuSans-30"/>
      </g>
     </g>
    </g>
    <g id="xtick_2">
     <g id="line2d_2">
      <path d="M 86.677392 512.64 
L 86.677392 69.12 
" clip-path="url(#p1021cd8c20)" style="fill: none; stroke: #cccccc; stroke-width: 0.8; stroke-linecap: round"/>
     </g>
     <g id="text_2">
      <!-- 80 -->
      <g style="fill: #262626" transform="translate(84.435333 533.58634)rotate(-45)scale(0.088 -0.088)">
       <defs>
        <path id="DejaVuSans-38" d="M 2034 2216 
Q 1584 2216 1326 1975 
Q 1069 1734 1069 1313 
Q 1069 891 1326 650 
Q 1584 409 2034 409 
Q 2484 409 2743 651 
Q 3003 894 3003 1313 
Q 3003 1734 2745 1975 
Q 2488 2216 2034 2216 
z
M 1403 2484 
Q 997 2584 770 2862 
Q 544 3141 544 3541 
Q 544 4100 942 4425 
Q 1341 4750 2034 4750 
Q 2731 4750 3128 4425 
Q 3525 4100 3525 3541 
Q 3525 3141 3298 2862 
Q 3072 2584 2669 2484 
Q 3125 2378 3379 2068 
Q 3634 1759 3634 1313 
Q 3634 634 3220 271 
Q 2806 -91 2034 -91 
Q 1263 -91 848 271 
Q 434 634 434 1313 
Q 434 1759 690 2068 
Q 947 2378 1403 2484 
z
M 1172 3481 
Q 1172 3119 1398 2916 
Q 1625 2713 2034 2713 
Q 2441 2713 2670 2916 
Q 2900 3119 2900 3481 
Q 2900 3844 2670 4047 
Q 2441 4250 2034 4250 
Q 1625 4250 1398 4047 
Q 1172 3844 1172 3481 
z
" transform="scale(0.015625)"/>
       </defs>
       <use xlink:href="#DejaVuSans-38"/>
       <use xlink:href="#DejaVuSans-30" x="63.623047"/>
      </g>
     </g>
    </g>
    <g id="xtick_3">
     <g id="line2d_3">
      <path d="M 103.703989 512.64 
L 103.703989 69.12 
" clip-path="url(#p1021cd8c20)" style="fill: none; stroke: #cccccc; stroke-width: 0.8; stroke-linecap: round"/>
     </g>
     <g id="text_3">
      <!-- 160 -->
      <g style="fill: #262626" transform="translate(99.482385 537.54543)rotate(-45)scale(0.088 -0.088)">
       <defs>
        <path id="DejaVuSans-31" d="M 794 531 
L 1825 531 
L 1825 4091 
L 703 3866 
L 703 4441 
L 1819 4666 
L 2450 4666 
L 2450 531 
L 3481 531 
L 3481 0 
L 794 0 
L 794 531 
z
" transform="scale(0.015625)"/>
        <path id="DejaVuSans-36" d="M 2113 2584 
Q 1688 2584 1439 2293 
Q 1191 2003 1191 1497 
Q 1191 994 1439 701 
Q 1688 409 2113 409 
Q 2538 409 2786 701 
Q 3034 994 3034 1497 
Q 3034 2003 2786 2293 
Q 2538 2584 2113 2584 
z
M 3366 4563 
L 3366 3988 
Q 3128 4100 2886 4159 
Q 2644 4219 2406 4219 
Q 1781 4219 1451 3797 
Q 1122 3375 1075 2522 
Q 1259 2794 1537 2939 
Q 1816 3084 2150 3084 
Q 2853 3084 3261 2657 
Q 3669 2231 3669 1497 
Q 3669 778 3244 343 
Q 2819 -91 2113 -91 
Q 1303 -91 875 529 
Q 447 1150 447 2328 
Q 447 3434 972 4092 
Q 1497 4750 2381 4750 
Q 2619 4750 2861 4703 
Q 3103 4656 3366 4563 
z
" transform="scale(0.015625)"/>
       </defs>
       <use xlink:href="#DejaVuSans-31"/>
       <use xlink:href="#DejaVuSans-36" x="63.623047"/>
       <use xlink:href="#DejaVuSans-30" x="127.246094"/>
      </g>
     </g>
    </g>
    <g id="xtick_4">
     <g id="line2d_4">
      <path d="M 120.730586 512.64 
L 120.730586 69.12 
" clip-path="url(#p1021cd8c20)" style="fill: none; stroke: #cccccc; stroke-width: 0.8; stroke-linecap: round"/>
     </g>
     <g id="text_4">
      <!-- 240 -->
      <g style="fill: #262626" transform="translate(116.508981 537.54543)rotate(-45)scale(0.088 -0.088)">
       <defs>
        <path id="DejaVuSans-32" d="M 1228 531 
L 3431 531 
L 3431 0 
L 469 0 
L 469 531 
Q 828 903 1448 1529 
Q 2069 2156 2228 2338 
Q 2531 2678 2651 2914 
Q 2772 3150 2772 3378 
Q 2772 3750 2511 3984 
Q 2250 4219 1831 4219 
Q 1534 4219 1204 4116 
Q 875 4013 500 3803 
L 500 4441 
Q 881 4594 1212 4672 
Q 1544 4750 1819 4750 
Q 2544 4750 2975 4387 
Q 3406 4025 3406 3419 
Q 3406 3131 3298 2873 
Q 3191 2616 2906 2266 
Q 2828 2175 2409 1742 
Q 1991 1309 1228 531 
z
" transform="scale(0.015625)"/>
        <path id="DejaVuSans-34" d="M 2419 4116 
L 825 1625 
L 2419 1625 
L 2419 4116 
z
M 2253 4666 
L 3047 4666 
L 3047 1625 
L 3713 1625 
L 3713 1100 
L 3047 1100 
L 3047 0 
L 2419 0 
L 2419 1100 
L 313 1100 
L 313 1709 
L 2253 4666 
z
" transform="scale(0.015625)"/>
       </defs>
       <use xlink:href="#DejaVuSans-32"/>
       <use xlink:href="#DejaVuSans-34" x="63.623047"/>
       <use xlink:href="#DejaVuSans-30" x="127.246094"/>
      </g>
     </g>
    </g>
    <g id="xtick_5">
     <g id="line2d_5">
      <path d="M 137.757182 512.64 
L 137.757182 69.12 
" clip-path="url(#p1021cd8c20)" style="fill: none; stroke: #cccccc; stroke-width: 0.8; stroke-linecap: round"/>
     </g>
     <g id="text_5">
      <!-- 320 -->
      <g style="fill: #262626" transform="translate(133.535578 537.54543)rotate(-45)scale(0.088 -0.088)">
       <defs>
        <path id="DejaVuSans-33" d="M 2597 2516 
Q 3050 2419 3304 2112 
Q 3559 1806 3559 1356 
Q 3559 666 3084 287 
Q 2609 -91 1734 -91 
Q 1441 -91 1130 -33 
Q 819 25 488 141 
L 488 750 
Q 750 597 1062 519 
Q 1375 441 1716 441 
Q 2309 441 2620 675 
Q 2931 909 2931 1356 
Q 2931 1769 2642 2001 
Q 2353 2234 1838 2234 
L 1294 2234 
L 1294 2753 
L 1863 2753 
Q 2328 2753 2575 2939 
Q 2822 3125 2822 3475 
Q 2822 3834 2567 4026 
Q 2313 4219 1838 4219 
Q 1578 4219 1281 4162 
Q 984 4106 628 3988 
L 628 4550 
Q 988 4650 1302 4700 
Q 1616 4750 1894 4750 
Q 2613 4750 3031 4423 
Q 3450 4097 3450 3541 
Q 3450 3153 3228 2886 
Q 3006 2619 2597 2516 
z
" transform="scale(0.015625)"/>
       </defs>
       <use xlink:href="#DejaVuSans-33"/>
       <use xlink:href="#DejaVuSans-32" x="63.623047"/>
       <use xlink:href="#DejaVuSans-30" x="127.246094"/>
      </g>
     </g>
    </g>
    <g id="xtick_6">
     <g id="line2d_6">
      <path d="M 154.783779 512.64 
L 154.783779 69.12 
" clip-path="url(#p1021cd8c20)" style="fill: none; stroke: #cccccc; stroke-width: 0.8; stroke-linecap: round"/>
     </g>
     <g id="text_6">
      <!-- 400 -->
      <g style="fill: #262626" transform="translate(150.562175 537.54543)rotate(-45)scale(0.088 -0.088)">
       <use xlink:href="#DejaVuSans-34"/>
       <use xlink:href="#DejaVuSans-30" x="63.623047"/>
       <use xlink:href="#DejaVuSans-30" x="127.246094"/>
      </g>
     </g>
    </g>
    <g id="xtick_7">
     <g id="line2d_7">
      <path d="M 171.810376 512.64 
L 171.810376 69.12 
" clip-path="url(#p1021cd8c20)" style="fill: none; stroke: #cccccc; stroke-width: 0.8; stroke-linecap: round"/>
     </g>
     <g id="text_7">
      <!-- 480 -->
      <g style="fill: #262626" transform="translate(167.588772 537.54543)rotate(-45)scale(0.088 -0.088)">
       <use xlink:href="#DejaVuSans-34"/>
       <use xlink:href="#DejaVuSans-38" x="63.623047"/>
       <use xlink:href="#DejaVuSans-30" x="127.246094"/>
      </g>
     </g>
    </g>
    <g id="xtick_8">
     <g id="line2d_8">
      <path d="M 188.836973 512.64 
L 188.836973 69.12 
" clip-path="url(#p1021cd8c20)" style="fill: none; stroke: #cccccc; stroke-width: 0.8; stroke-linecap: round"/>
     </g>
     <g id="text_8">
      <!-- 560 -->
      <g style="fill: #262626" transform="translate(184.615368 537.54543)rotate(-45)scale(0.088 -0.088)">
       <defs>
        <path id="DejaVuSans-35" d="M 691 4666 
L 3169 4666 
L 3169 4134 
L 1269 4134 
L 1269 2991 
Q 1406 3038 1543 3061 
Q 1681 3084 1819 3084 
Q 2600 3084 3056 2656 
Q 3513 2228 3513 1497 
Q 3513 744 3044 326 
Q 2575 -91 1722 -91 
Q 1428 -91 1123 -41 
Q 819 9 494 109 
L 494 744 
Q 775 591 1075 516 
Q 1375 441 1709 441 
Q 2250 441 2565 725 
Q 2881 1009 2881 1497 
Q 2881 1984 2565 2268 
Q 2250 2553 1709 2553 
Q 1456 2553 1204 2497 
Q 953 2441 691 2322 
L 691 4666 
z
" transform="scale(0.015625)"/>
       </defs>
       <use xlink:href="#DejaVuSans-35"/>
       <use xlink:href="#DejaVuSans-36" x="63.623047"/>
       <use xlink:href="#DejaVuSans-30" x="127.246094"/>
      </g>
     </g>
    </g>
    <g id="xtick_9">
     <g id="line2d_9">
      <path d="M 205.863569 512.64 
L 205.863569 69.12 
" clip-path="url(#p1021cd8c20)" style="fill: none; stroke: #cccccc; stroke-width: 0.8; stroke-linecap: round"/>
     </g>
     <g id="text_9">
      <!-- 640 -->
      <g style="fill: #262626" transform="translate(201.641965 537.54543)rotate(-45)scale(0.088 -0.088)">
       <use xlink:href="#DejaVuSans-36"/>
       <use xlink:href="#DejaVuSans-34" x="63.623047"/>
       <use xlink:href="#DejaVuSans-30" x="127.246094"/>
      </g>
     </g>
    </g>
    <g id="xtick_10">
     <g id="line2d_10">
      <path d="M 222.890166 512.64 
L 222.890166 69.12 
" clip-path="url(#p1021cd8c20)" style="fill: none; stroke: #cccccc; stroke-width: 0.8; stroke-linecap: round"/>
     </g>
     <g id="text_10">
      <!-- 720 -->
      <g style="fill: #262626" transform="translate(218.668562 537.54543)rotate(-45)scale(0.088 -0.088)">
       <defs>
        <path id="DejaVuSans-37" d="M 525 4666 
L 3525 4666 
L 3525 4397 
L 1831 0 
L 1172 0 
L 2766 4134 
L 525 4134 
L 525 4666 
z
" transform="scale(0.015625)"/>
       </defs>
       <use xlink:href="#DejaVuSans-37"/>
       <use xlink:href="#DejaVuSans-32" x="63.623047"/>
       <use xlink:href="#DejaVuSans-30" x="127.246094"/>
      </g>
     </g>
    </g>
    <g id="xtick_11">
     <g id="line2d_11">
      <path d="M 239.916763 512.64 
L 239.916763 69.12 
" clip-path="url(#p1021cd8c20)" style="fill: none; stroke: #cccccc; stroke-width: 0.8; stroke-linecap: round"/>
     </g>
     <g id="text_11">
      <!-- 800 -->
      <g style="fill: #262626" transform="translate(235.695159 537.54543)rotate(-45)scale(0.088 -0.088)">
       <use xlink:href="#DejaVuSans-38"/>
       <use xlink:href="#DejaVuSans-30" x="63.623047"/>
       <use xlink:href="#DejaVuSans-30" x="127.246094"/>
      </g>
     </g>
    </g>
    <g id="xtick_12">
     <g id="line2d_12">
      <path d="M 256.94336 512.64 
L 256.94336 69.12 
" clip-path="url(#p1021cd8c20)" style="fill: none; stroke: #cccccc; stroke-width: 0.8; stroke-linecap: round"/>
     </g>
     <g id="text_12">
      <!-- 880 -->
      <g style="fill: #262626" transform="translate(252.721755 537.54543)rotate(-45)scale(0.088 -0.088)">
       <use xlink:href="#DejaVuSans-38"/>
       <use xlink:href="#DejaVuSans-38" x="63.623047"/>
       <use xlink:href="#DejaVuSans-30" x="127.246094"/>
      </g>
     </g>
    </g>
    <g id="xtick_13">
     <g id="line2d_13">
      <path d="M 273.969956 512.64 
L 273.969956 69.12 
" clip-path="url(#p1021cd8c20)" style="fill: none; stroke: #cccccc; stroke-width: 0.8; stroke-linecap: round"/>
     </g>
     <g id="text_13">
      <!-- 960 -->
      <g style="fill: #262626" transform="translate(269.748352 537.54543)rotate(-45)scale(0.088 -0.088)">
       <defs>
        <path id="DejaVuSans-39" d="M 703 97 
L 703 672 
Q 941 559 1184 500 
Q 1428 441 1663 441 
Q 2288 441 2617 861 
Q 2947 1281 2994 2138 
Q 2813 1869 2534 1725 
Q 2256 1581 1919 1581 
Q 1219 1581 811 2004 
Q 403 2428 403 3163 
Q 403 3881 828 4315 
Q 1253 4750 1959 4750 
Q 2769 4750 3195 4129 
Q 3622 3509 3622 2328 
Q 3622 1225 3098 567 
Q 2575 -91 1691 -91 
Q 1453 -91 1209 -44 
Q 966 3 703 97 
z
M 1959 2075 
Q 2384 2075 2632 2365 
Q 2881 2656 2881 3163 
Q 2881 3666 2632 3958 
Q 2384 4250 1959 4250 
Q 1534 4250 1286 3958 
Q 1038 3666 1038 3163 
Q 1038 2656 1286 2365 
Q 1534 2075 1959 2075 
z
" transform="scale(0.015625)"/>
       </defs>
       <use xlink:href="#DejaVuSans-39"/>
       <use xlink:href="#DejaVuSans-36" x="63.623047"/>
       <use xlink:href="#DejaVuSans-30" x="127.246094"/>
      </g>
     </g>
    </g>
    <g id="xtick_14">
     <g id="line2d_14">
      <path d="M 290.996553 512.64 
L 290.996553 69.12 
" clip-path="url(#p1021cd8c20)" style="fill: none; stroke: #cccccc; stroke-width: 0.8; stroke-linecap: round"/>
     </g>
     <g id="text_14">
      <!-- 1040 -->
      <g style="fill: #262626" transform="translate(284.795404 541.504521)rotate(-45)scale(0.088 -0.088)">
       <use xlink:href="#DejaVuSans-31"/>
       <use xlink:href="#DejaVuSans-30" x="63.623047"/>
       <use xlink:href="#DejaVuSans-34" x="127.246094"/>
       <use xlink:href="#DejaVuSans-30" x="190.869141"/>
      </g>
     </g>
    </g>
    <g id="xtick_15">
     <g id="line2d_15">
      <path d="M 308.02315 512.64 
L 308.02315 69.12 
" clip-path="url(#p1021cd8c20)" style="fill: none; stroke: #cccccc; stroke-width: 0.8; stroke-linecap: round"/>
     </g>
     <g id="text_15">
      <!-- 1120 -->
      <g style="fill: #262626" transform="translate(301.822 541.504521)rotate(-45)scale(0.088 -0.088)">
       <use xlink:href="#DejaVuSans-31"/>
       <use xlink:href="#DejaVuSans-31" x="63.623047"/>
       <use xlink:href="#DejaVuSans-32" x="127.246094"/>
       <use xlink:href="#DejaVuSans-30" x="190.869141"/>
      </g>
     </g>
    </g>
    <g id="xtick_16">
     <g id="line2d_16">
      <path d="M 325.049747 512.64 
L 325.049747 69.12 
" clip-path="url(#p1021cd8c20)" style="fill: none; stroke: #cccccc; stroke-width: 0.8; stroke-linecap: round"/>
     </g>
     <g id="text_16">
      <!-- 1200 -->
      <g style="fill: #262626" transform="translate(318.848597 541.504521)rotate(-45)scale(0.088 -0.088)">
       <use xlink:href="#DejaVuSans-31"/>
       <use xlink:href="#DejaVuSans-32" x="63.623047"/>
       <use xlink:href="#DejaVuSans-30" x="127.246094"/>
       <use xlink:href="#DejaVuSans-30" x="190.869141"/>
      </g>
     </g>
    </g>
    <g id="xtick_17">
     <g id="line2d_17">
      <path d="M 342.076343 512.64 
L 342.076343 69.12 
" clip-path="url(#p1021cd8c20)" style="fill: none; stroke: #cccccc; stroke-width: 0.8; stroke-linecap: round"/>
     </g>
     <g id="text_17">
      <!-- 1280 -->
      <g style="fill: #262626" transform="translate(335.875194 541.504521)rotate(-45)scale(0.088 -0.088)">
       <use xlink:href="#DejaVuSans-31"/>
       <use xlink:href="#DejaVuSans-32" x="63.623047"/>
       <use xlink:href="#DejaVuSans-38" x="127.246094"/>
       <use xlink:href="#DejaVuSans-30" x="190.869141"/>
      </g>
     </g>
    </g>
    <g id="xtick_18">
     <g id="line2d_18">
      <path d="M 359.10294 512.64 
L 359.10294 69.12 
" clip-path="url(#p1021cd8c20)" style="fill: none; stroke: #cccccc; stroke-width: 0.8; stroke-linecap: round"/>
     </g>
     <g id="text_18">
      <!-- 1360 -->
      <g style="fill: #262626" transform="translate(352.901791 541.504521)rotate(-45)scale(0.088 -0.088)">
       <use xlink:href="#DejaVuSans-31"/>
       <use xlink:href="#DejaVuSans-33" x="63.623047"/>
       <use xlink:href="#DejaVuSans-36" x="127.246094"/>
       <use xlink:href="#DejaVuSans-30" x="190.869141"/>
      </g>
     </g>
    </g>
    <g id="xtick_19">
     <g id="line2d_19">
      <path d="M 376.129537 512.64 
L 376.129537 69.12 
" clip-path="url(#p1021cd8c20)" style="fill: none; stroke: #cccccc; stroke-width: 0.8; stroke-linecap: round"/>
     </g>
     <g id="text_19">
      <!-- 1440 -->
      <g style="fill: #262626" transform="translate(369.928387 541.504521)rotate(-45)scale(0.088 -0.088)">
       <use xlink:href="#DejaVuSans-31"/>
       <use xlink:href="#DejaVuSans-34" x="63.623047"/>
       <use xlink:href="#DejaVuSans-34" x="127.246094"/>
       <use xlink:href="#DejaVuSans-30" x="190.869141"/>
      </g>
     </g>
    </g>
    <g id="text_20">
     <!-- Time (Minutes) -->
     <g style="fill: #262626" transform="translate(186.87375 554.093115)scale(0.096 -0.096)">
      <defs>
       <path id="DejaVuSans-54" d="M -19 4666 
L 3928 4666 
L 3928 4134 
L 2272 4134 
L 2272 0 
L 1638 0 
L 1638 4134 
L -19 4134 
L -19 4666 
z
" transform="scale(0.015625)"/>
       <path id="DejaVuSans-69" d="M 603 3500 
L 1178 3500 
L 1178 0 
L 603 0 
L 603 3500 
z
M 603 4863 
L 1178 4863 
L 1178 4134 
L 603 4134 
L 603 4863 
z
" transform="scale(0.015625)"/>
       <path id="DejaVuSans-6d" d="M 3328 2828 
Q 3544 3216 3844 3400 
Q 4144 3584 4550 3584 
Q 5097 3584 5394 3201 
Q 5691 2819 5691 2113 
L 5691 0 
L 5113 0 
L 5113 2094 
Q 5113 2597 4934 2840 
Q 4756 3084 4391 3084 
Q 3944 3084 3684 2787 
Q 3425 2491 3425 1978 
L 3425 0 
L 2847 0 
L 2847 2094 
Q 2847 2600 2669 2842 
Q 2491 3084 2119 3084 
Q 1678 3084 1418 2786 
Q 1159 2488 1159 1978 
L 1159 0 
L 581 0 
L 581 3500 
L 1159 3500 
L 1159 2956 
Q 1356 3278 1631 3431 
Q 1906 3584 2284 3584 
Q 2666 3584 2933 3390 
Q 3200 3197 3328 2828 
z
" transform="scale(0.015625)"/>
       <path id="DejaVuSans-65" d="M 3597 1894 
L 3597 1613 
L 953 1613 
Q 991 1019 1311 708 
Q 1631 397 2203 397 
Q 2534 397 2845 478 
Q 3156 559 3463 722 
L 3463 178 
Q 3153 47 2828 -22 
Q 2503 -91 2169 -91 
Q 1331 -91 842 396 
Q 353 884 353 1716 
Q 353 2575 817 3079 
Q 1281 3584 2069 3584 
Q 2775 3584 3186 3129 
Q 3597 2675 3597 1894 
z
M 3022 2063 
Q 3016 2534 2758 2815 
Q 2500 3097 2075 3097 
Q 1594 3097 1305 2825 
Q 1016 2553 972 2059 
L 3022 2063 
z
" transform="scale(0.015625)"/>
       <path id="DejaVuSans-20" transform="scale(0.015625)"/>
       <path id="DejaVuSans-28" d="M 1984 4856 
Q 1566 4138 1362 3434 
Q 1159 2731 1159 2009 
Q 1159 1288 1364 580 
Q 1569 -128 1984 -844 
L 1484 -844 
Q 1016 -109 783 600 
Q 550 1309 550 2009 
Q 550 2706 781 3412 
Q 1013 4119 1484 4856 
L 1984 4856 
z
" transform="scale(0.015625)"/>
       <path id="DejaVuSans-4d" d="M 628 4666 
L 1569 4666 
L 2759 1491 
L 3956 4666 
L 4897 4666 
L 4897 0 
L 4281 0 
L 4281 4097 
L 3078 897 
L 2444 897 
L 1241 4097 
L 1241 0 
L 628 0 
L 628 4666 
z
" transform="scale(0.015625)"/>
       <path id="DejaVuSans-6e" d="M 3513 2113 
L 3513 0 
L 2938 0 
L 2938 2094 
Q 2938 2591 2744 2837 
Q 2550 3084 2163 3084 
Q 1697 3084 1428 2787 
Q 1159 2491 1159 1978 
L 1159 0 
L 581 0 
L 581 3500 
L 1159 3500 
L 1159 2956 
Q 1366 3272 1645 3428 
Q 1925 3584 2291 3584 
Q 2894 3584 3203 3211 
Q 3513 2838 3513 2113 
z
" transform="scale(0.015625)"/>
       <path id="DejaVuSans-75" d="M 544 1381 
L 544 3500 
L 1119 3500 
L 1119 1403 
Q 1119 906 1312 657 
Q 1506 409 1894 409 
Q 2359 409 2629 706 
Q 2900 1003 2900 1516 
L 2900 3500 
L 3475 3500 
L 3475 0 
L 2900 0 
L 2900 538 
Q 2691 219 2414 64 
Q 2138 -91 1772 -91 
Q 1169 -91 856 284 
Q 544 659 544 1381 
z
M 1991 3584 
L 1991 3584 
z
" transform="scale(0.015625)"/>
       <path id="DejaVuSans-74" d="M 1172 4494 
L 1172 3500 
L 2356 3500 
L 2356 3053 
L 1172 3053 
L 1172 1153 
Q 1172 725 1289 603 
Q 1406 481 1766 481 
L 2356 481 
L 2356 0 
L 1766 0 
Q 1100 0 847 248 
Q 594 497 594 1153 
L 594 3053 
L 172 3053 
L 172 3500 
L 594 3500 
L 594 4494 
L 1172 4494 
z
" transform="scale(0.015625)"/>
       <path id="DejaVuSans-73" d="M 2834 3397 
L 2834 2853 
Q 2591 2978 2328 3040 
Q 2066 3103 1784 3103 
Q 1356 3103 1142 2972 
Q 928 2841 928 2578 
Q 928 2378 1081 2264 
Q 1234 2150 1697 2047 
L 1894 2003 
Q 2506 1872 2764 1633 
Q 3022 1394 3022 966 
Q 3022 478 2636 193 
Q 2250 -91 1575 -91 
Q 1294 -91 989 -36 
Q 684 19 347 128 
L 347 722 
Q 666 556 975 473 
Q 1284 391 1588 391 
Q 1994 391 2212 530 
Q 2431 669 2431 922 
Q 2431 1156 2273 1281 
Q 2116 1406 1581 1522 
L 1381 1569 
Q 847 1681 609 1914 
Q 372 2147 372 2553 
Q 372 3047 722 3315 
Q 1072 3584 1716 3584 
Q 2034 3584 2315 3537 
Q 2597 3491 2834 3397 
z
" transform="scale(0.015625)"/>
       <path id="DejaVuSans-29" d="M 513 4856 
L 1013 4856 
Q 1481 4119 1714 3412 
Q 1947 2706 1947 2009 
Q 1947 1309 1714 600 
Q 1481 -109 1013 -844 
L 513 -844 
Q 928 -128 1133 580 
Q 1338 1288 1338 2009 
Q 1338 2731 1133 3434 
Q 928 4138 513 4856 
z
" transform="scale(0.015625)"/>
      </defs>
      <use xlink:href="#DejaVuSans-54"/>
      <use xlink:href="#DejaVuSans-69" x="57.958984"/>
      <use xlink:href="#DejaVuSans-6d" x="85.742188"/>
      <use xlink:href="#DejaVuSans-65" x="183.154297"/>
      <use xlink:href="#DejaVuSans-20" x="244.677734"/>
      <use xlink:href="#DejaVuSans-28" x="276.464844"/>
      <use xlink:href="#DejaVuSans-4d" x="315.478516"/>
      <use xlink:href="#DejaVuSans-69" x="401.757812"/>
      <use xlink:href="#DejaVuSans-6e" x="429.541016"/>
      <use xlink:href="#DejaVuSans-75" x="492.919922"/>
      <use xlink:href="#DejaVuSans-74" x="556.298828"/>
      <use xlink:href="#DejaVuSans-65" x="595.507812"/>
      <use xlink:href="#DejaVuSans-73" x="657.03125"/>
      <use xlink:href="#DejaVuSans-29" x="709.130859"/>
     </g>
    </g>
   </g>
   <g id="matplotlib.axis_2">
    <g id="ytick_1">
     <g id="line2d_20">
      <path d="M 54.3375 492.48 
L 391.23 492.48 
" clip-path="url(#p1021cd8c20)" style="fill: none; stroke: #cccccc; stroke-width: 0.8; stroke-linecap: round"/>
     </g>
     <g id="text_21">
      <!-- 0 -->
      <g style="fill: #262626" transform="translate(40.4385 495.823312)scale(0.088 -0.088)">
       <use xlink:href="#DejaVuSans-30"/>
      </g>
     </g>
    </g>
    <g id="ytick_2">
     <g id="line2d_21">
      <path d="M 54.3375 470.117271 
L 391.23 470.117271 
" clip-path="url(#p1021cd8c20)" style="fill: none; stroke: #cccccc; stroke-width: 0.8; stroke-linecap: round"/>
     </g>
     <g id="text_22">
      <!-- 100 -->
      <g style="fill: #262626" transform="translate(29.2405 473.460584)scale(0.088 -0.088)">
       <use xlink:href="#DejaVuSans-31"/>
       <use xlink:href="#DejaVuSans-30" x="63.623047"/>
       <use xlink:href="#DejaVuSans-30" x="127.246094"/>
      </g>
     </g>
    </g>
    <g id="ytick_3">
     <g id="line2d_22">
      <path d="M 54.3375 447.754542 
L 391.23 447.754542 
" clip-path="url(#p1021cd8c20)" style="fill: none; stroke: #cccccc; stroke-width: 0.8; stroke-linecap: round"/>
     </g>
     <g id="text_23">
      <!-- 200 -->
      <g style="fill: #262626" transform="translate(29.2405 451.097855)scale(0.088 -0.088)">
       <use xlink:href="#DejaVuSans-32"/>
       <use xlink:href="#DejaVuSans-30" x="63.623047"/>
       <use xlink:href="#DejaVuSans-30" x="127.246094"/>
      </g>
     </g>
    </g>
    <g id="ytick_4">
     <g id="line2d_23">
      <path d="M 54.3375 425.391814 
L 391.23 425.391814 
" clip-path="url(#p1021cd8c20)" style="fill: none; stroke: #cccccc; stroke-width: 0.8; stroke-linecap: round"/>
     </g>
     <g id="text_24">
      <!-- 300 -->
      <g style="fill: #262626" transform="translate(29.2405 428.735126)scale(0.088 -0.088)">
       <use xlink:href="#DejaVuSans-33"/>
       <use xlink:href="#DejaVuSans-30" x="63.623047"/>
       <use xlink:href="#DejaVuSans-30" x="127.246094"/>
      </g>
     </g>
    </g>
    <g id="ytick_5">
     <g id="line2d_24">
      <path d="M 54.3375 403.029085 
L 391.23 403.029085 
" clip-path="url(#p1021cd8c20)" style="fill: none; stroke: #cccccc; stroke-width: 0.8; stroke-linecap: round"/>
     </g>
     <g id="text_25">
      <!-- 400 -->
      <g style="fill: #262626" transform="translate(29.2405 406.372397)scale(0.088 -0.088)">
       <use xlink:href="#DejaVuSans-34"/>
       <use xlink:href="#DejaVuSans-30" x="63.623047"/>
       <use xlink:href="#DejaVuSans-30" x="127.246094"/>
      </g>
     </g>
    </g>
    <g id="ytick_6">
     <g id="line2d_25">
      <path d="M 54.3375 380.666356 
L 391.23 380.666356 
" clip-path="url(#p1021cd8c20)" style="fill: none; stroke: #cccccc; stroke-width: 0.8; stroke-linecap: round"/>
     </g>
     <g id="text_26">
      <!-- 500 -->
      <g style="fill: #262626" transform="translate(29.2405 384.009669)scale(0.088 -0.088)">
       <use xlink:href="#DejaVuSans-35"/>
       <use xlink:href="#DejaVuSans-30" x="63.623047"/>
       <use xlink:href="#DejaVuSans-30" x="127.246094"/>
      </g>
     </g>
    </g>
    <g id="ytick_7">
     <g id="line2d_26">
      <path d="M 54.3375 358.303627 
L 391.23 358.303627 
" clip-path="url(#p1021cd8c20)" style="fill: none; stroke: #cccccc; stroke-width: 0.8; stroke-linecap: round"/>
     </g>
     <g id="text_27">
      <!-- 600 -->
      <g style="fill: #262626" transform="translate(29.2405 361.64694)scale(0.088 -0.088)">
       <use xlink:href="#DejaVuSans-36"/>
       <use xlink:href="#DejaVuSans-30" x="63.623047"/>
       <use xlink:href="#DejaVuSans-30" x="127.246094"/>
      </g>
     </g>
    </g>
    <g id="ytick_8">
     <g id="line2d_27">
      <path d="M 54.3375 335.940899 
L 391.23 335.940899 
" clip-path="url(#p1021cd8c20)" style="fill: none; stroke: #cccccc; stroke-width: 0.8; stroke-linecap: round"/>
     </g>
     <g id="text_28">
      <!-- 700 -->
      <g style="fill: #262626" transform="translate(29.2405 339.284211)scale(0.088 -0.088)">
       <use xlink:href="#DejaVuSans-37"/>
       <use xlink:href="#DejaVuSans-30" x="63.623047"/>
       <use xlink:href="#DejaVuSans-30" x="127.246094"/>
      </g>
     </g>
    </g>
    <g id="ytick_9">
     <g id="line2d_28">
      <path d="M 54.3375 313.57817 
L 391.23 313.57817 
" clip-path="url(#p1021cd8c20)" style="fill: none; stroke: #cccccc; stroke-width: 0.8; stroke-linecap: round"/>
     </g>
     <g id="text_29">
      <!-- 800 -->
      <g style="fill: #262626" transform="translate(29.2405 316.921482)scale(0.088 -0.088)">
       <use xlink:href="#DejaVuSans-38"/>
       <use xlink:href="#DejaVuSans-30" x="63.623047"/>
       <use xlink:href="#DejaVuSans-30" x="127.246094"/>
      </g>
     </g>
    </g>
    <g id="ytick_10">
     <g id="line2d_29">
      <path d="M 54.3375 291.215441 
L 391.23 291.215441 
" clip-path="url(#p1021cd8c20)" style="fill: none; stroke: #cccccc; stroke-width: 0.8; stroke-linecap: round"/>
     </g>
     <g id="text_30">
      <!-- 900 -->
      <g style="fill: #262626" transform="translate(29.2405 294.558753)scale(0.088 -0.088)">
       <use xlink:href="#DejaVuSans-39"/>
       <use xlink:href="#DejaVuSans-30" x="63.623047"/>
       <use xlink:href="#DejaVuSans-30" x="127.246094"/>
      </g>
     </g>
    </g>
    <g id="ytick_11">
     <g id="line2d_30">
      <path d="M 54.3375 268.852712 
L 391.23 268.852712 
" clip-path="url(#p1021cd8c20)" style="fill: none; stroke: #cccccc; stroke-width: 0.8; stroke-linecap: round"/>
     </g>
     <g id="text_31">
      <!-- 1000 -->
      <g style="fill: #262626" transform="translate(23.6415 272.196025)scale(0.088 -0.088)">
       <use xlink:href="#DejaVuSans-31"/>
       <use xlink:href="#DejaVuSans-30" x="63.623047"/>
       <use xlink:href="#DejaVuSans-30" x="127.246094"/>
       <use xlink:href="#DejaVuSans-30" x="190.869141"/>
      </g>
     </g>
    </g>
    <g id="ytick_12">
     <g id="line2d_31">
      <path d="M 54.3375 246.489983 
L 391.23 246.489983 
" clip-path="url(#p1021cd8c20)" style="fill: none; stroke: #cccccc; stroke-width: 0.8; stroke-linecap: round"/>
     </g>
     <g id="text_32">
      <!-- 1100 -->
      <g style="fill: #262626" transform="translate(23.6415 249.833296)scale(0.088 -0.088)">
       <use xlink:href="#DejaVuSans-31"/>
       <use xlink:href="#DejaVuSans-31" x="63.623047"/>
       <use xlink:href="#DejaVuSans-30" x="127.246094"/>
       <use xlink:href="#DejaVuSans-30" x="190.869141"/>
      </g>
     </g>
    </g>
    <g id="ytick_13">
     <g id="line2d_32">
      <path d="M 54.3375 224.127255 
L 391.23 224.127255 
" clip-path="url(#p1021cd8c20)" style="fill: none; stroke: #cccccc; stroke-width: 0.8; stroke-linecap: round"/>
     </g>
     <g id="text_33">
      <!-- 1200 -->
      <g style="fill: #262626" transform="translate(23.6415 227.470567)scale(0.088 -0.088)">
       <use xlink:href="#DejaVuSans-31"/>
       <use xlink:href="#DejaVuSans-32" x="63.623047"/>
       <use xlink:href="#DejaVuSans-30" x="127.246094"/>
       <use xlink:href="#DejaVuSans-30" x="190.869141"/>
      </g>
     </g>
    </g>
    <g id="ytick_14">
     <g id="line2d_33">
      <path d="M 54.3375 201.764526 
L 391.23 201.764526 
" clip-path="url(#p1021cd8c20)" style="fill: none; stroke: #cccccc; stroke-width: 0.8; stroke-linecap: round"/>
     </g>
     <g id="text_34">
      <!-- 1300 -->
      <g style="fill: #262626" transform="translate(23.6415 205.107838)scale(0.088 -0.088)">
       <use xlink:href="#DejaVuSans-31"/>
       <use xlink:href="#DejaVuSans-33" x="63.623047"/>
       <use xlink:href="#DejaVuSans-30" x="127.246094"/>
       <use xlink:href="#DejaVuSans-30" x="190.869141"/>
      </g>
     </g>
    </g>
    <g id="ytick_15">
     <g id="line2d_34">
      <path d="M 54.3375 179.401797 
L 391.23 179.401797 
" clip-path="url(#p1021cd8c20)" style="fill: none; stroke: #cccccc; stroke-width: 0.8; stroke-linecap: round"/>
     </g>
     <g id="text_35">
      <!-- 1400 -->
      <g style="fill: #262626" transform="translate(23.6415 182.74511)scale(0.088 -0.088)">
       <use xlink:href="#DejaVuSans-31"/>
       <use xlink:href="#DejaVuSans-34" x="63.623047"/>
       <use xlink:href="#DejaVuSans-30" x="127.246094"/>
       <use xlink:href="#DejaVuSans-30" x="190.869141"/>
      </g>
     </g>
    </g>
    <g id="ytick_16">
     <g id="line2d_35">
      <path d="M 54.3375 157.039068 
L 391.23 157.039068 
" clip-path="url(#p1021cd8c20)" style="fill: none; stroke: #cccccc; stroke-width: 0.8; stroke-linecap: round"/>
     </g>
     <g id="text_36">
      <!-- 1500 -->
      <g style="fill: #262626" transform="translate(23.6415 160.382381)scale(0.088 -0.088)">
       <use xlink:href="#DejaVuSans-31"/>
       <use xlink:href="#DejaVuSans-35" x="63.623047"/>
       <use xlink:href="#DejaVuSans-30" x="127.246094"/>
       <use xlink:href="#DejaVuSans-30" x="190.869141"/>
      </g>
     </g>
    </g>
    <g id="ytick_17">
     <g id="line2d_36">
      <path d="M 54.3375 134.676339 
L 391.23 134.676339 
" clip-path="url(#p1021cd8c20)" style="fill: none; stroke: #cccccc; stroke-width: 0.8; stroke-linecap: round"/>
     </g>
     <g id="text_37">
      <!-- 1600 -->
      <g style="fill: #262626" transform="translate(23.6415 138.019652)scale(0.088 -0.088)">
       <use xlink:href="#DejaVuSans-31"/>
       <use xlink:href="#DejaVuSans-36" x="63.623047"/>
       <use xlink:href="#DejaVuSans-30" x="127.246094"/>
       <use xlink:href="#DejaVuSans-30" x="190.869141"/>
      </g>
     </g>
    </g>
    <g id="ytick_18">
     <g id="line2d_37">
      <path d="M 54.3375 112.313611 
L 391.23 112.313611 
" clip-path="url(#p1021cd8c20)" style="fill: none; stroke: #cccccc; stroke-width: 0.8; stroke-linecap: round"/>
     </g>
     <g id="text_38">
      <!-- 1700 -->
      <g style="fill: #262626" transform="translate(23.6415 115.656923)scale(0.088 -0.088)">
       <use xlink:href="#DejaVuSans-31"/>
       <use xlink:href="#DejaVuSans-37" x="63.623047"/>
       <use xlink:href="#DejaVuSans-30" x="127.246094"/>
       <use xlink:href="#DejaVuSans-30" x="190.869141"/>
      </g>
     </g>
    </g>
    <g id="ytick_19">
     <g id="line2d_38">
      <path d="M 54.3375 89.950882 
L 391.23 89.950882 
" clip-path="url(#p1021cd8c20)" style="fill: none; stroke: #cccccc; stroke-width: 0.8; stroke-linecap: round"/>
     </g>
     <g id="text_39">
      <!-- 1800 -->
      <g style="fill: #262626" transform="translate(23.6415 93.294194)scale(0.088 -0.088)">
       <use xlink:href="#DejaVuSans-31"/>
       <use xlink:href="#DejaVuSans-38" x="63.623047"/>
       <use xlink:href="#DejaVuSans-30" x="127.246094"/>
       <use xlink:href="#DejaVuSans-30" x="190.869141"/>
      </g>
     </g>
    </g>
    <g id="text_40">
     <!-- Edge Coverages -->
     <g style="fill: #262626" transform="translate(17.645 329.98575)rotate(-90)scale(0.096 -0.096)">
      <defs>
       <path id="DejaVuSans-45" d="M 628 4666 
L 3578 4666 
L 3578 4134 
L 1259 4134 
L 1259 2753 
L 3481 2753 
L 3481 2222 
L 1259 2222 
L 1259 531 
L 3634 531 
L 3634 0 
L 628 0 
L 628 4666 
z
" transform="scale(0.015625)"/>
       <path id="DejaVuSans-64" d="M 2906 2969 
L 2906 4863 
L 3481 4863 
L 3481 0 
L 2906 0 
L 2906 525 
Q 2725 213 2448 61 
Q 2172 -91 1784 -91 
Q 1150 -91 751 415 
Q 353 922 353 1747 
Q 353 2572 751 3078 
Q 1150 3584 1784 3584 
Q 2172 3584 2448 3432 
Q 2725 3281 2906 2969 
z
M 947 1747 
Q 947 1113 1208 752 
Q 1469 391 1925 391 
Q 2381 391 2643 752 
Q 2906 1113 2906 1747 
Q 2906 2381 2643 2742 
Q 2381 3103 1925 3103 
Q 1469 3103 1208 2742 
Q 947 2381 947 1747 
z
" transform="scale(0.015625)"/>
       <path id="DejaVuSans-67" d="M 2906 1791 
Q 2906 2416 2648 2759 
Q 2391 3103 1925 3103 
Q 1463 3103 1205 2759 
Q 947 2416 947 1791 
Q 947 1169 1205 825 
Q 1463 481 1925 481 
Q 2391 481 2648 825 
Q 2906 1169 2906 1791 
z
M 3481 434 
Q 3481 -459 3084 -895 
Q 2688 -1331 1869 -1331 
Q 1566 -1331 1297 -1286 
Q 1028 -1241 775 -1147 
L 775 -588 
Q 1028 -725 1275 -790 
Q 1522 -856 1778 -856 
Q 2344 -856 2625 -561 
Q 2906 -266 2906 331 
L 2906 616 
Q 2728 306 2450 153 
Q 2172 0 1784 0 
Q 1141 0 747 490 
Q 353 981 353 1791 
Q 353 2603 747 3093 
Q 1141 3584 1784 3584 
Q 2172 3584 2450 3431 
Q 2728 3278 2906 2969 
L 2906 3500 
L 3481 3500 
L 3481 434 
z
" transform="scale(0.015625)"/>
       <path id="DejaVuSans-43" d="M 4122 4306 
L 4122 3641 
Q 3803 3938 3442 4084 
Q 3081 4231 2675 4231 
Q 1875 4231 1450 3742 
Q 1025 3253 1025 2328 
Q 1025 1406 1450 917 
Q 1875 428 2675 428 
Q 3081 428 3442 575 
Q 3803 722 4122 1019 
L 4122 359 
Q 3791 134 3420 21 
Q 3050 -91 2638 -91 
Q 1578 -91 968 557 
Q 359 1206 359 2328 
Q 359 3453 968 4101 
Q 1578 4750 2638 4750 
Q 3056 4750 3426 4639 
Q 3797 4528 4122 4306 
z
" transform="scale(0.015625)"/>
       <path id="DejaVuSans-6f" d="M 1959 3097 
Q 1497 3097 1228 2736 
Q 959 2375 959 1747 
Q 959 1119 1226 758 
Q 1494 397 1959 397 
Q 2419 397 2687 759 
Q 2956 1122 2956 1747 
Q 2956 2369 2687 2733 
Q 2419 3097 1959 3097 
z
M 1959 3584 
Q 2709 3584 3137 3096 
Q 3566 2609 3566 1747 
Q 3566 888 3137 398 
Q 2709 -91 1959 -91 
Q 1206 -91 779 398 
Q 353 888 353 1747 
Q 353 2609 779 3096 
Q 1206 3584 1959 3584 
z
" transform="scale(0.015625)"/>
       <path id="DejaVuSans-76" d="M 191 3500 
L 800 3500 
L 1894 563 
L 2988 3500 
L 3597 3500 
L 2284 0 
L 1503 0 
L 191 3500 
z
" transform="scale(0.015625)"/>
       <path id="DejaVuSans-72" d="M 2631 2963 
Q 2534 3019 2420 3045 
Q 2306 3072 2169 3072 
Q 1681 3072 1420 2755 
Q 1159 2438 1159 1844 
L 1159 0 
L 581 0 
L 581 3500 
L 1159 3500 
L 1159 2956 
Q 1341 3275 1631 3429 
Q 1922 3584 2338 3584 
Q 2397 3584 2469 3576 
Q 2541 3569 2628 3553 
L 2631 2963 
z
" transform="scale(0.015625)"/>
       <path id="DejaVuSans-61" d="M 2194 1759 
Q 1497 1759 1228 1600 
Q 959 1441 959 1056 
Q 959 750 1161 570 
Q 1363 391 1709 391 
Q 2188 391 2477 730 
Q 2766 1069 2766 1631 
L 2766 1759 
L 2194 1759 
z
M 3341 1997 
L 3341 0 
L 2766 0 
L 2766 531 
Q 2569 213 2275 61 
Q 1981 -91 1556 -91 
Q 1019 -91 701 211 
Q 384 513 384 1019 
Q 384 1609 779 1909 
Q 1175 2209 1959 2209 
L 2766 2209 
L 2766 2266 
Q 2766 2663 2505 2880 
Q 2244 3097 1772 3097 
Q 1472 3097 1187 3025 
Q 903 2953 641 2809 
L 641 3341 
Q 956 3463 1253 3523 
Q 1550 3584 1831 3584 
Q 2591 3584 2966 3190 
Q 3341 2797 3341 1997 
z
" transform="scale(0.015625)"/>
      </defs>
      <use xlink:href="#DejaVuSans-45"/>
      <use xlink:href="#DejaVuSans-64" x="63.183594"/>
      <use xlink:href="#DejaVuSans-67" x="126.660156"/>
      <use xlink:href="#DejaVuSans-65" x="190.136719"/>
      <use xlink:href="#DejaVuSans-20" x="251.660156"/>
      <use xlink:href="#DejaVuSans-43" x="283.447266"/>
      <use xlink:href="#DejaVuSans-6f" x="353.271484"/>
      <use xlink:href="#DejaVuSans-76" x="414.453125"/>
      <use xlink:href="#DejaVuSans-65" x="473.632812"/>
      <use xlink:href="#DejaVuSans-72" x="535.15625"/>
      <use xlink:href="#DejaVuSans-61" x="576.269531"/>
      <use xlink:href="#DejaVuSans-67" x="637.548828"/>
      <use xlink:href="#DejaVuSans-65" x="701.025391"/>
      <use xlink:href="#DejaVuSans-73" x="762.548828"/>
     </g>
    </g>
   </g>
   <g id="PolyCollection_1">
    <defs>
     <path id="m9572ea1b0c" d="M 69.650795 -107.44812 
L 69.650795 -83.52 
L 69.650795 -107.44812 
L 69.650795 -107.44812 
z
" style="stroke: #db5f57; stroke-opacity: 0.2; stroke-width: 0.8"/>
    </defs>
    <g clip-path="url(#p1021cd8c20)">
     <use xlink:href="#m9572ea1b0c" x="0" y="576" style="fill: #db5f57; fill-opacity: 0.2; stroke: #db5f57; stroke-opacity: 0.2; stroke-width: 0.8"/>
    </g>
   </g>
   <g id="PolyCollection_2">
    <defs>
     <path id="m79b4326655" d="M 69.650795 -120.865757 
L 69.650795 -83.52 
L 69.650795 -120.865757 
L 69.650795 -120.865757 
z
" style="stroke: #b9db57; stroke-opacity: 0.2; stroke-width: 0.8"/>
    </defs>
    <g clip-path="url(#p1021cd8c20)">
     <use xlink:href="#m79b4326655" x="0" y="576" style="fill: #b9db57; fill-opacity: 0.2; stroke: #b9db57; stroke-opacity: 0.2; stroke-width: 0.8"/>
    </g>
   </g>
   <g id="PolyCollection_3">
    <defs>
     <path id="m0b8c50ce79" d="M 69.650795 -120.194875 
L 69.650795 -83.52 
L 69.650795 -120.194875 
L 69.650795 -120.194875 
z
" style="stroke: #57db94; stroke-opacity: 0.2; stroke-width: 0.8"/>
    </defs>
    <g clip-path="url(#p1021cd8c20)">
     <use xlink:href="#m0b8c50ce79" x="0" y="576" style="fill: #57db94; fill-opacity: 0.2; stroke: #57db94; stroke-opacity: 0.2; stroke-width: 0.8"/>
    </g>
   </g>
   <g id="PolyCollection_4">
    <defs>
     <path id="mdf546be0d4" d="M 69.650795 -123.10203 
L 69.650795 -83.52 
L 69.650795 -123.10203 
L 69.650795 -123.10203 
z
" style="stroke: #5784db; stroke-opacity: 0.2; stroke-width: 0.8"/>
    </defs>
    <g clip-path="url(#p1021cd8c20)">
     <use xlink:href="#mdf546be0d4" x="0" y="576" style="fill: #5784db; fill-opacity: 0.2; stroke: #5784db; stroke-opacity: 0.2; stroke-width: 0.8"/>
    </g>
   </g>
   <g id="PolyCollection_5">
    <defs>
     <path id="m159d81039b" d="M 69.650795 -132.718003 
L 69.650795 -83.52 
L 69.650795 -132.718003 
L 69.650795 -132.718003 
z
" style="stroke: #c957db; stroke-opacity: 0.2; stroke-width: 0.8"/>
    </defs>
    <g clip-path="url(#p1021cd8c20)">
     <use xlink:href="#m159d81039b" x="0" y="576" style="fill: #c957db; fill-opacity: 0.2; stroke: #c957db; stroke-opacity: 0.2; stroke-width: 0.8"/>
    </g>
   </g>
   <g id="line2d_39">
    <path d="M 69.650795 480.51594 
L 70.07646 417.788486 
L 70.289293 401.687321 
L 70.502125 400.792812 
L 70.92779 390.729584 
L 71.566288 384.020765 
L 71.991953 382.455374 
L 72.204785 380.442729 
L 72.417617 343.767854 
L 72.63045 280.481331 
L 72.843282 279.586822 
L 73.056115 279.363195 
L 73.48178 278.245058 
L 73.694612 257.224093 
L 74.758774 257.224093 
L 74.971607 254.093311 
L 75.184439 232.177837 
L 75.610104 231.506955 
L 75.822937 231.506955 
L 76.035769 230.836073 
L 76.461434 230.388819 
L 76.887099 229.717937 
L 77.099932 210.933245 
L 77.525596 210.48599 
L 77.738429 209.815108 
L 77.951261 209.591481 
L 78.164094 209.591481 
L 78.376926 208.02609 
L 78.589759 198.633744 
L 78.802591 198.633744 
L 79.015424 198.410116 
L 79.653921 198.410116 
L 79.866754 197.739235 
L 80.079586 197.515607 
L 80.505251 197.515607 
L 80.718083 197.29198 
L 80.930916 181.861697 
L 81.782246 181.861697 
L 81.995078 177.389151 
L 82.207911 176.941897 
L 82.420743 175.600133 
L 82.633575 175.600133 
L 82.846408 173.140233 
L 83.05924 172.692978 
L 83.484905 170.90396 
L 83.697738 170.90396 
L 83.91057 170.233078 
L 84.549068 170.233078 
L 84.7619 167.996805 
L 84.974733 167.549551 
L 85.400397 167.549551 
L 85.61323 167.325923 
L 86.038895 167.325923 
L 86.251727 162.182496 
L 86.677392 161.735241 
L 87.741555 161.735241 
L 87.954387 157.70995 
L 88.167219 157.486323 
L 88.805717 157.486323 
L 89.018549 156.815441 
L 89.444214 156.815441 
L 89.657047 155.473677 
L 90.082712 155.473677 
L 90.295544 154.131913 
L 90.721209 154.131913 
L 90.934041 152.566522 
L 91.146874 152.119268 
L 91.359706 152.119268 
L 91.572539 151.448386 
L 91.785371 151.448386 
L 91.998204 149.43574 
L 92.211036 149.43574 
L 92.423869 148.317604 
L 92.636701 148.093977 
L 93.913696 148.093977 
L 94.126528 146.97584 
L 94.339361 146.97584 
L 94.552193 145.186822 
L 94.765026 144.963195 
L 94.977858 144.963195 
L 95.190691 144.739567 
L 95.616356 143.845058 
L 96.254853 143.845058 
L 96.467685 141.832413 
L 96.680518 141.608785 
L 97.106183 140.267022 
L 97.319015 140.267022 
L 97.531848 140.043394 
L 97.74468 139.59614 
L 97.957513 138.030749 
L 98.170345 138.030749 
L 98.383177 137.359867 
L 99.234507 137.359867 
L 99.44734 137.13624 
L 99.660172 136.24173 
L 99.873005 136.24173 
L 100.085837 136.018103 
L 100.511502 136.018103 
L 100.724335 135.794476 
L 101.149999 135.794476 
L 101.362832 134.899967 
L 102.214162 134.899967 
L 102.852659 134.229085 
L 103.065492 134.229085 
L 103.278324 133.78183 
L 103.703989 133.78183 
L 104.129654 133.334576 
L 104.555319 133.334576 
L 104.768151 133.110948 
L 104.980984 133.110948 
L 105.193816 132.887321 
L 105.406649 132.440067 
L 105.619481 132.440067 
L 105.832314 132.216439 
L 106.045146 132.216439 
L 106.257978 131.32193 
L 110.301795 131.32193 
L 110.514628 130.874676 
L 113.068617 130.874676 
L 113.28145 130.651048 
L 113.494282 130.651048 
L 113.707115 130.427421 
L 115.196942 130.427421 
L 115.409774 129.980166 
L 116.261104 129.980166 
L 116.473937 129.756539 
L 118.389429 129.756539 
L 118.602261 129.532912 
L 121.794748 129.532912 
L 122.00758 129.309285 
L 122.433245 129.309285 
L 123.071743 128.638403 
L 123.284575 128.638403 
L 123.497408 128.414775 
L 126.26423 128.414775 
L 126.477062 128.191148 
L 127.754057 128.191148 
L 127.966889 127.967521 
L 130.733711 127.967521 
L 130.946544 127.743894 
L 134.139031 127.743894 
L 134.351863 127.520266 
L 134.99036 127.520266 
L 135.203193 127.296639 
L 137.970015 127.296639 
L 138.182847 127.073012 
L 140.09834 127.073012 
L 140.311172 126.849384 
L 141.162502 126.849384 
L 141.588167 126.178502 
L 142.013832 126.178502 
L 142.226664 125.731248 
L 144.142156 125.731248 
L 144.354989 125.507621 
L 145.631983 125.507621 
L 145.844816 125.283993 
L 147.547476 125.283993 
L 147.760308 125.060366 
L 149.6758 125.060366 
L 150.314298 124.389484 
L 150.952795 124.389484 
L 151.37846 123.94223 
L 152.22979 123.94223 
L 152.442622 123.718602 
L 152.655455 123.718602 
L 152.868287 123.494975 
L 154.570947 123.494975 
L 154.783779 123.271348 
L 154.996612 123.271348 
L 155.209444 123.04772 
L 155.422277 122.600466 
L 156.060774 122.600466 
L 156.273606 122.376839 
L 157.976266 122.376839 
L 158.189099 121.929584 
L 160.955921 121.929584 
L 161.168753 121.705957 
L 165.21257 121.705957 
L 165.425402 121.482329 
L 167.128062 121.482329 
L 167.340894 121.035075 
L 168.617889 121.035075 
L 168.830722 120.811448 
L 170.533381 120.811448 
L 170.746214 120.58782 
L 171.171879 120.58782 
L 171.384711 120.364193 
L 177.34402 120.364193 
L 177.556852 119.916938 
L 179.685177 119.916938 
L 179.898009 119.693311 
L 184.580324 119.693311 
L 184.793156 119.469684 
L 185.431653 119.469684 
L 185.644486 119.246057 
L 186.070151 119.246057 
L 186.282983 119.022429 
L 186.708648 119.022429 
L 186.921481 118.798802 
L 187.134313 118.798802 
L 187.347146 118.575175 
L 190.3268 118.575175 
L 190.539632 118.351547 
L 194.157784 118.351547 
L 194.370617 118.12792 
L 195.860444 118.12792 
L 196.073276 117.904293 
L 198.840098 117.904293 
L 199.052931 117.680666 
L 202.883915 117.680666 
L 203.30958 117.233411 
L 203.735245 117.233411 
L 203.948077 116.786156 
L 207.353397 116.786156 
L 207.566229 116.338902 
L 208.843224 116.338902 
L 209.056056 116.115275 
L 209.907386 116.115275 
L 210.120219 115.891647 
L 212.035711 115.891647 
L 212.248543 115.66802 
L 212.887041 115.66802 
L 213.099873 115.444393 
L 216.718025 115.444393 
L 216.930857 115.220765 
L 219.484847 115.220765 
L 219.697679 114.997138 
L 221.187507 114.997138 
L 221.400339 114.773511 
L 224.592826 114.773511 
L 224.805658 114.326256 
L 228.42381 114.326256 
L 228.636643 114.102629 
L 232.893292 114.102629 
L 233.106124 113.879002 
L 240.55526 113.879002 
L 240.768093 113.655374 
L 242.045088 113.655374 
L 242.25792 113.431747 
L 244.173412 113.431747 
L 244.386245 113.20812 
L 257.156192 113.20812 
L 257.369025 112.984493 
L 263.753998 112.984493 
L 263.966831 112.760865 
L 266.095155 112.760865 
L 266.307988 112.537238 
L 267.37215 112.537238 
L 267.584983 112.313611 
L 267.797815 112.313611 
L 268.010648 112.089983 
L 272.692962 112.089983 
L 272.905794 111.866356 
L 274.182789 111.866356 
L 274.395621 111.642729 
L 275.034119 111.642729 
L 275.246951 111.419101 
L 280.567763 111.419101 
L 280.780595 111.195474 
L 300.574014 111.195474 
L 300.786846 110.971847 
L 306.746155 110.971847 
L 306.958988 110.74822 
L 307.17182 110.74822 
L 307.384653 110.524592 
L 309.512977 110.524592 
L 309.72581 110.300965 
L 310.364307 110.300965 
L 310.57714 110.077338 
L 314.620956 110.077338 
L 314.833789 109.85371 
L 315.259454 109.85371 
L 315.472286 109.630083 
L 317.387778 109.630083 
L 317.600611 109.406456 
L 318.451941 109.406456 
L 318.664773 109.182829 
L 323.134255 109.182829 
L 323.347087 108.959201 
L 324.411249 108.959201 
L 324.624082 108.735574 
L 325.475412 108.735574 
L 325.688244 108.511947 
L 336.968364 108.511947 
L 337.181197 108.288319 
L 345.055998 108.288319 
L 345.26883 108.064692 
L 346.97149 108.064692 
L 347.184323 107.841065 
L 359.10294 107.841065 
L 359.315773 107.617438 
L 360.592767 107.617438 
L 360.8056 107.39381 
L 362.295427 107.39381 
L 362.50826 107.170183 
L 363.572422 107.170183 
L 363.785254 106.946556 
L 366.126411 106.946556 
L 366.339244 106.722928 
L 373.362715 106.722928 
L 373.575547 106.499301 
L 375.916705 106.499301 
L 375.916705 106.499301 
" clip-path="url(#p1021cd8c20)" style="fill: none; stroke: #db5f57; stroke-width: 1.2; stroke-linecap: round"/>
   </g>
   <g id="line2d_40">
    <path d="M 69.650795 473.807121 
L 70.07646 417.341231 
L 70.502125 405.712612 
L 70.714958 391.84772 
L 70.92779 346.898636 
L 71.140623 345.333245 
L 71.566288 344.438735 
L 71.77912 344.438735 
L 72.417617 340.860699 
L 73.48178 333.480998 
L 73.907445 332.586489 
L 74.120277 330.126589 
L 74.545942 267.287321 
L 74.758774 267.287321 
L 74.971607 267.063694 
L 75.610104 267.063694 
L 75.822937 254.764193 
L 76.248602 253.869684 
L 76.461434 253.869684 
L 76.674267 253.646057 
L 76.887099 245.819101 
L 77.312764 245.819101 
L 77.525596 245.595474 
L 77.951261 245.595474 
L 78.164094 245.14822 
L 78.376926 237.992146 
L 78.589759 237.992146 
L 79.015424 233.519601 
L 79.653921 233.519601 
L 79.866754 233.295973 
L 80.079586 227.481664 
L 80.292418 226.1399 
L 80.718083 226.1399 
L 80.930916 223.903627 
L 81.356581 223.903627 
L 81.569413 221.667354 
L 81.782246 221.667354 
L 81.995078 219.878336 
L 82.207911 219.878336 
L 82.420743 219.431082 
L 82.846408 219.431082 
L 83.05924 218.983827 
L 83.272073 218.983827 
L 83.484905 215.629418 
L 84.336235 215.629418 
L 84.549068 213.840399 
L 84.7619 213.840399 
L 85.187565 213.169517 
L 85.400397 213.169517 
L 85.61323 211.380499 
L 86.038895 211.380499 
L 86.251727 208.696972 
L 86.890225 207.578835 
L 87.103057 207.355208 
L 87.31589 207.355208 
L 87.741555 206.013444 
L 88.167219 204.895308 
L 88.380052 204.895308 
L 88.592884 204.671681 
L 88.805717 204.671681 
L 89.018549 204.224426 
L 89.657047 204.224426 
L 89.869879 203.329917 
L 90.082712 203.10629 
L 90.508376 201.764526 
L 90.721209 201.764526 
L 90.934041 201.093644 
L 91.359706 200.646389 
L 91.785371 199.975507 
L 91.998204 198.633744 
L 92.211036 198.633744 
L 92.423869 198.410116 
L 92.636701 197.962862 
L 93.488031 197.962862 
L 93.700863 197.739235 
L 93.913696 197.068353 
L 94.339361 194.608453 
L 94.552193 194.608453 
L 94.765026 193.937571 
L 94.977858 193.937571 
L 95.190691 193.713943 
L 95.403523 193.713943 
L 96.04202 193.043062 
L 96.254853 192.148552 
L 96.467685 190.135907 
L 97.106183 189.01777 
L 97.531848 189.01777 
L 97.957513 187.228752 
L 98.170345 187.228752 
L 99.021675 185.663361 
L 99.234507 185.439734 
L 99.44734 184.768852 
L 99.873005 184.768852 
L 100.085837 184.545225 
L 100.511502 184.545225 
L 100.724335 184.321597 
L 101.149999 183.650715 
L 102.214162 183.650715 
L 102.639827 183.203461 
L 103.278324 183.203461 
L 103.491157 182.532579 
L 103.703989 182.308952 
L 104.555319 182.308952 
L 104.980984 181.63807 
L 105.619481 181.63807 
L 105.832314 181.190815 
L 106.045146 181.190815 
L 106.257978 180.519933 
L 110.088963 180.519933 
L 110.301795 180.296306 
L 110.514628 180.296306 
L 110.72746 180.072679 
L 111.365957 180.072679 
L 111.57879 179.625424 
L 112.004455 179.625424 
L 112.217287 179.401797 
L 112.43012 179.401797 
L 112.642952 179.17817 
L 114.132779 179.17817 
L 114.345612 178.954542 
L 114.558444 178.954542 
L 114.771277 178.730915 
L 115.196942 178.730915 
L 115.622607 178.060033 
L 116.048272 178.060033 
L 116.261104 177.836406 
L 119.240758 177.836406 
L 119.879256 177.165524 
L 120.943418 177.165524 
L 121.156251 176.941897 
L 122.220413 176.941897 
L 122.433245 176.494642 
L 123.284575 176.494642 
L 123.497408 176.271015 
L 126.051397 176.271015 
L 126.26423 176.047388 
L 126.477062 176.047388 
L 126.689895 175.82376 
L 127.328392 175.82376 
L 127.541224 175.600133 
L 127.754057 175.600133 
L 127.966889 175.376506 
L 132.436371 175.376506 
L 132.649203 175.152879 
L 133.287701 175.152879 
L 133.926198 174.481997 
L 134.139031 174.481997 
L 134.351863 174.034742 
L 134.99036 174.034742 
L 135.203193 173.587488 
L 137.331518 173.587488 
L 137.54435 173.140233 
L 138.39568 173.140233 
L 138.608512 172.916606 
L 139.24701 172.916606 
L 139.459842 172.692978 
L 140.949669 172.692978 
L 141.162502 172.469351 
L 141.588167 172.469351 
L 141.800999 172.245724 
L 142.652329 172.245724 
L 142.865161 172.022097 
L 147.121811 172.022097 
L 147.334643 171.798469 
L 149.6758 171.798469 
L 149.888633 171.574842 
L 151.804125 171.574842 
L 152.016957 170.90396 
L 152.22979 170.680333 
L 152.442622 170.680333 
L 152.868287 170.233078 
L 154.570947 170.233078 
L 154.783779 170.009451 
L 157.337769 170.009451 
L 157.550601 169.785824 
L 157.763434 169.785824 
L 157.976266 169.562196 
L 158.401931 169.562196 
L 158.614763 169.338569 
L 160.530256 169.338569 
L 160.743088 169.114942 
L 166.0639 169.114942 
L 166.276732 168.891314 
L 168.405057 168.891314 
L 168.617889 168.667687 
L 173.300203 168.667687 
L 173.513036 168.44406 
L 174.577198 168.44406 
L 174.79003 168.220433 
L 176.49269 168.220433 
L 176.705523 167.996805 
L 181.813502 167.996805 
L 182.026334 167.773178 
L 189.262638 167.773178 
L 189.47547 167.549551 
L 191.390962 167.549551 
L 191.603795 167.325923 
L 195.009114 167.325923 
L 195.221947 166.878669 
L 198.627266 166.878669 
L 198.840098 166.655042 
L 199.265763 166.655042 
L 199.478596 166.431414 
L 203.522412 166.431414 
L 203.735245 165.760532 
L 204.799407 165.760532 
L 205.01224 165.536905 
L 207.991894 165.536905 
L 208.417559 165.089651 
L 213.099873 165.089651 
L 213.312706 164.866023 
L 216.718025 164.866023 
L 216.930857 164.642396 
L 221.826004 164.642396 
L 222.038836 164.195141 
L 224.592826 164.195141 
L 224.805658 163.971514 
L 225.231323 163.971514 
L 225.444156 163.747887 
L 228.42381 163.747887 
L 228.636643 163.300632 
L 228.849475 163.300632 
L 229.062308 163.077005 
L 232.893292 163.077005 
L 233.106124 162.62975 
L 233.318957 162.62975 
L 233.531789 162.406123 
L 235.234449 162.406123 
L 235.447281 162.182496 
L 243.747747 162.182496 
L 243.96058 161.958869 
L 246.514569 161.958869 
L 246.727402 161.735241 
L 263.115501 161.735241 
L 263.541166 161.287987 
L 268.861977 161.287987 
L 269.07481 161.064359 
L 280.567763 161.064359 
L 280.780595 160.840732 
L 285.037244 160.840732 
L 285.250077 160.617105 
L 285.462909 160.617105 
L 285.675742 160.393478 
L 303.128003 160.393478 
L 303.340836 160.16985 
L 304.404998 160.16985 
L 304.617831 159.946223 
L 309.087312 159.946223 
L 309.300145 159.722596 
L 309.938642 159.722596 
L 310.151475 159.498968 
L 314.833789 159.498968 
L 315.046621 159.275341 
L 316.749281 159.275341 
L 316.962113 159.051714 
L 319.516103 159.051714 
L 319.728935 158.828087 
L 324.198417 158.828087 
L 324.411249 158.604459 
L 324.836914 158.604459 
L 325.049747 158.380832 
L 325.688244 158.380832 
L 325.901077 158.157205 
L 346.12016 158.157205 
L 346.332993 157.933577 
L 346.545825 157.933577 
L 346.758658 157.486323 
L 354.633459 157.486323 
L 354.846291 157.262696 
L 361.231265 157.262696 
L 361.444097 157.039068 
L 362.082595 157.039068 
L 362.295427 156.815441 
L 363.572422 156.815441 
L 363.785254 156.591814 
L 372.93705 156.591814 
L 373.149883 156.368186 
L 375.916705 156.368186 
L 375.916705 156.368186 
" clip-path="url(#p1021cd8c20)" style="fill: none; stroke: #b9db57; stroke-width: 1.2; stroke-linecap: round"/>
   </g>
   <g id="line2d_41">
    <path d="M 69.650795 474.142562 
L 70.714958 351.371181 
L 70.92779 331.468353 
L 71.140623 324.983161 
L 71.566288 305.974842 
L 71.77912 303.738569 
L 72.204785 293.004459 
L 72.417617 290.544559 
L 72.843282 282.270349 
L 73.056115 271.759867 
L 73.268947 270.418103 
L 73.694612 264.380166 
L 74.545942 247.831747 
L 74.758774 247.160865 
L 74.971607 244.924592 
L 75.184439 244.030083 
L 75.610104 240.228419 
L 75.822937 237.768519 
L 76.035769 237.097637 
L 76.887099 230.836073 
L 77.312764 228.823428 
L 77.525596 226.810782 
L 77.738429 226.587155 
L 77.951261 226.587155 
L 78.164094 225.916273 
L 78.376926 222.114609 
L 79.441089 214.511281 
L 79.653921 214.064027 
L 80.292418 211.827754 
L 80.505251 209.815108 
L 80.930916 208.249717 
L 81.143748 207.355208 
L 81.356581 207.355208 
L 81.569413 205.789817 
L 81.782246 205.342562 
L 81.995078 204.448053 
L 82.207911 202.882662 
L 82.420743 202.21178 
L 82.633575 202.21178 
L 82.846408 201.988153 
L 83.05924 200.422762 
L 83.272073 200.422762 
L 83.484905 199.75188 
L 83.697738 199.75188 
L 83.91057 199.528253 
L 84.123403 199.528253 
L 84.336235 198.633744 
L 84.549068 198.410116 
L 84.7619 197.962862 
L 84.974733 197.962862 
L 85.61323 195.950216 
L 85.826062 194.608453 
L 86.038895 194.384825 
L 86.677392 192.148552 
L 87.103057 192.148552 
L 87.528722 191.030416 
L 87.954387 190.583161 
L 88.380052 189.91228 
L 88.592884 189.688652 
L 89.018549 188.794143 
L 89.231382 188.794143 
L 89.657047 187.228752 
L 89.869879 187.228752 
L 90.082712 186.781498 
L 90.295544 186.781498 
L 90.508376 186.334243 
L 90.721209 185.216106 
L 90.934041 185.216106 
L 91.146874 184.992479 
L 91.572539 184.992479 
L 91.998204 182.979834 
L 92.211036 182.532579 
L 92.423869 182.532579 
L 92.636701 181.861697 
L 93.275198 181.861697 
L 93.700863 181.414443 
L 93.913696 180.967188 
L 94.126528 179.849052 
L 94.339361 179.401797 
L 94.765026 177.612779 
L 94.977858 177.612779 
L 95.190691 177.389151 
L 95.829188 177.389151 
L 96.04202 176.941897 
L 96.254853 175.600133 
L 96.467685 175.152879 
L 96.680518 175.152879 
L 96.89335 173.811115 
L 97.106183 173.811115 
L 97.531848 173.140233 
L 97.74468 171.798469 
L 97.957513 171.798469 
L 98.383177 170.009451 
L 98.59601 169.562196 
L 99.234507 169.562196 
L 99.44734 168.44406 
L 99.660172 168.220433 
L 102.214162 168.220433 
L 102.426994 167.996805 
L 105.193816 167.996805 
L 105.406649 164.866023 
L 136.267355 164.866023 
L 136.480188 158.604459 
L 175.854193 158.604459 
L 176.279858 152.342895 
L 183.090496 152.342895 
L 183.303329 151.224759 
L 265.243826 151.224759 
L 265.669491 145.186822 
L 313.556794 145.186822 
L 313.769626 143.397804 
L 316.536448 143.397804 
L 316.749281 143.174176 
L 317.387778 143.174176 
L 317.600611 142.950549 
L 318.451941 142.950549 
L 318.664773 142.726922 
L 319.30327 142.726922 
L 319.516103 142.503295 
L 353.143631 142.503295 
L 353.356464 141.385158 
L 354.207794 141.385158 
L 354.420626 141.161531 
L 360.8056 141.161531 
L 361.018432 140.937903 
L 361.869762 140.937903 
L 362.082595 140.714276 
L 363.359589 140.714276 
L 363.572422 140.490649 
L 364.423752 140.490649 
L 364.636584 140.267022 
L 371.021558 140.267022 
L 371.23439 140.043394 
L 371.447223 140.043394 
L 371.660055 139.819767 
L 375.916705 139.819767 
L 375.916705 139.819767 
" clip-path="url(#p1021cd8c20)" style="fill: none; stroke: #57db94; stroke-width: 1.2; stroke-linecap: round"/>
   </g>
   <g id="line2d_42">
    <path d="M 69.650795 472.688985 
L 70.92779 317.156206 
L 71.140623 313.57817 
L 71.353455 297.02975 
L 71.566288 295.911614 
L 71.991953 286.519268 
L 72.204785 282.493977 
L 72.417617 281.152213 
L 72.63045 272.207121 
L 72.843282 271.312612 
L 73.268947 255.882329 
L 73.48178 254.98782 
L 73.694612 250.291647 
L 73.907445 249.620765 
L 74.120277 242.017438 
L 74.33311 240.452047 
L 74.545942 234.41411 
L 74.971607 231.506955 
L 75.184439 227.258037 
L 75.397272 225.469018 
L 76.035769 217.642063 
L 76.461434 214.958536 
L 76.674267 210.48599 
L 77.312764 207.131581 
L 77.738429 202.659035 
L 77.951261 201.988153 
L 78.164094 200.422762 
L 78.376926 199.75188 
L 78.802591 195.279334 
L 79.015424 194.161198 
L 79.653921 188.570516 
L 80.079586 185.886988 
L 80.292418 183.427088 
L 80.505251 182.979834 
L 81.356581 179.625424 
L 81.569413 179.401797 
L 81.782246 178.730915 
L 82.420743 174.929251 
L 82.633575 174.481997 
L 83.05924 172.469351 
L 83.484905 171.574842 
L 83.697738 171.574842 
L 84.123403 170.009451 
L 84.549068 168.44406 
L 84.7619 167.996805 
L 84.974733 167.996805 
L 85.400397 167.102296 
L 86.038895 163.747887 
L 86.677392 161.958869 
L 86.890225 160.617105 
L 87.31589 160.16985 
L 87.741555 159.498968 
L 87.954387 159.498968 
L 88.167219 159.051714 
L 88.380052 159.051714 
L 88.592884 158.828087 
L 88.805717 158.828087 
L 89.018549 157.933577 
L 89.231382 157.70995 
L 89.657047 156.815441 
L 89.869879 156.815441 
L 90.082712 155.697304 
L 90.934041 153.908286 
L 91.146874 153.908286 
L 91.359706 153.684659 
L 91.572539 153.237404 
L 91.785371 151.448386 
L 92.211036 151.448386 
L 92.849534 150.106622 
L 93.488031 150.106622 
L 93.913696 149.659368 
L 94.126528 148.988486 
L 94.339361 147.646722 
L 95.190691 146.752213 
L 95.403523 146.752213 
L 95.616356 146.304958 
L 96.04202 146.304958 
L 96.254853 145.857704 
L 96.680518 142.726922 
L 96.89335 142.279667 
L 97.531848 142.279667 
L 97.957513 140.490649 
L 98.59601 139.819767 
L 98.808842 139.819767 
L 99.44734 138.701631 
L 100.085837 138.701631 
L 100.29867 138.254376 
L 100.724335 138.254376 
L 100.937167 138.030749 
L 101.149999 138.030749 
L 101.362832 137.583494 
L 102.214162 137.583494 
L 102.639827 137.13624 
L 102.852659 137.13624 
L 103.065492 136.912612 
L 103.278324 136.24173 
L 103.703989 135.794476 
L 103.916821 135.794476 
L 104.129654 135.570849 
L 104.555319 135.570849 
L 104.768151 135.347221 
L 104.980984 135.347221 
L 105.193816 135.123594 
L 105.832314 135.123594 
L 106.045146 134.005458 
L 110.088963 134.005458 
L 110.301795 133.558203 
L 110.940293 133.558203 
L 111.153125 133.334576 
L 112.004455 133.334576 
L 112.217287 133.110948 
L 112.855785 133.110948 
L 113.068617 132.887321 
L 113.707115 132.887321 
L 113.919947 132.663694 
L 114.984109 132.663694 
L 115.196942 131.992812 
L 115.409774 131.992812 
L 115.622607 131.769185 
L 115.835439 131.769185 
L 116.048272 131.545557 
L 118.389429 131.545557 
L 118.602261 131.32193 
L 119.453591 131.32193 
L 119.666423 131.098303 
L 119.879256 131.098303 
L 120.092088 130.874676 
L 122.433245 130.874676 
L 122.85891 130.203794 
L 123.284575 130.203794 
L 123.497408 129.980166 
L 125.838565 129.980166 
L 126.051397 129.756539 
L 126.26423 129.756539 
L 126.477062 129.532912 
L 132.223539 129.532912 
L 132.436371 129.309285 
L 133.287701 129.309285 
L 133.500533 129.085657 
L 133.926198 129.085657 
L 134.139031 128.86203 
L 134.777528 128.86203 
L 134.99036 128.638403 
L 137.331518 128.638403 
L 137.54435 128.414775 
L 139.034177 128.414775 
L 139.24701 128.191148 
L 140.949669 128.191148 
L 141.800999 127.296639 
L 142.013832 127.296639 
L 142.226664 127.073012 
L 147.973141 127.073012 
L 148.185973 126.849384 
L 149.462968 126.849384 
L 149.888633 126.40213 
L 150.101465 126.40213 
L 150.314298 126.178502 
L 150.739962 126.178502 
L 151.165627 125.731248 
L 152.016957 125.731248 
L 152.22979 125.507621 
L 152.655455 125.507621 
L 152.868287 125.060366 
L 154.570947 125.060366 
L 154.783779 124.836739 
L 155.209444 124.836739 
L 155.635109 124.389484 
L 155.847942 124.389484 
L 156.060774 124.165857 
L 157.337769 124.165857 
L 157.763434 123.718602 
L 160.317423 123.718602 
L 160.530256 123.494975 
L 165.21257 123.494975 
L 165.425402 123.271348 
L 166.702397 123.271348 
L 166.915229 123.04772 
L 170.533381 123.04772 
L 170.746214 122.824093 
L 176.49269 122.824093 
L 176.705523 122.600466 
L 179.472345 122.600466 
L 179.685177 122.376839 
L 181.813502 122.376839 
L 182.026334 122.153211 
L 186.282983 122.153211 
L 186.495816 121.929584 
L 188.836973 121.929584 
L 189.049805 121.705957 
L 189.47547 121.705957 
L 189.688303 121.482329 
L 193.732119 121.482329 
L 193.944952 121.035075 
L 198.414433 121.035075 
L 198.627266 120.811448 
L 202.671083 120.811448 
L 203.096748 120.364193 
L 203.30958 120.364193 
L 203.522412 119.916938 
L 203.735245 119.916938 
L 203.948077 119.693311 
L 207.991894 119.693311 
L 208.204727 119.246057 
L 210.545884 119.246057 
L 210.758716 119.022429 
L 212.248543 119.022429 
L 212.461376 118.798802 
L 216.718025 118.798802 
L 216.930857 118.575175 
L 219.272014 118.575175 
L 219.484847 118.351547 
L 220.974674 118.351547 
L 221.187507 118.12792 
L 225.018491 118.12792 
L 225.231323 117.680666 
L 228.42381 117.680666 
L 228.636643 117.457038 
L 232.254794 117.457038 
L 232.467627 117.233411 
L 232.893292 117.233411 
L 233.106124 117.009784 
L 233.318957 117.009784 
L 233.531789 116.786156 
L 243.747747 116.786156 
L 243.96058 116.562529 
L 252.899543 116.562529 
L 253.112375 116.338902 
L 263.753998 116.338902 
L 263.966831 116.115275 
L 268.22348 116.115275 
L 268.436313 115.891647 
L 272.692962 115.891647 
L 272.905794 115.66802 
L 280.35493 115.66802 
L 280.567763 115.444393 
L 285.037244 115.444393 
L 285.250077 115.220765 
L 285.462909 115.220765 
L 285.675742 114.997138 
L 304.192166 114.997138 
L 304.404998 114.773511 
L 307.17182 114.773511 
L 307.384653 114.549884 
L 308.87448 114.549884 
L 309.087312 114.326256 
L 314.833789 114.326256 
L 315.046621 114.102629 
L 315.259454 114.102629 
L 315.472286 113.879002 
L 316.749281 113.879002 
L 316.962113 113.655374 
L 318.239108 113.655374 
L 318.451941 113.431747 
L 323.134255 113.431747 
L 323.347087 113.20812 
L 324.198417 113.20812 
L 324.411249 112.984493 
L 325.262579 112.984493 
L 325.475412 112.760865 
L 346.545825 112.760865 
L 346.758658 112.537238 
L 354.207794 112.537238 
L 354.420626 112.313611 
L 356.761783 112.313611 
L 356.974616 112.089983 
L 360.167103 112.089983 
L 360.379935 111.866356 
L 361.869762 111.866356 
L 362.082595 111.642729 
L 363.146757 111.642729 
L 363.359589 111.419101 
L 371.660055 111.419101 
L 371.872888 111.195474 
L 375.916705 111.195474 
L 375.916705 111.195474 
" clip-path="url(#p1021cd8c20)" style="fill: none; stroke: #5784db; stroke-width: 1.2; stroke-linecap: round"/>
   </g>
   <g id="line2d_43">
    <path d="M 69.650795 467.880998 
L 69.863628 440.822097 
L 70.289293 356.738236 
L 70.714958 307.76386 
L 71.353455 279.139567 
L 71.991953 267.734576 
L 72.417617 257.671348 
L 72.843282 251.633411 
L 73.056115 241.346556 
L 73.907445 228.5998 
L 74.545942 215.629418 
L 74.971607 212.722263 
L 75.184439 208.696972 
L 75.397272 207.578835 
L 75.822937 200.646389 
L 76.035769 199.75188 
L 76.248602 197.29198 
L 76.461434 196.397471 
L 76.674267 192.37218 
L 76.887099 191.254043 
L 77.099932 189.241398 
L 77.312764 188.794143 
L 77.525596 185.663361 
L 78.164094 182.085324 
L 78.376926 181.190815 
L 78.589759 177.612779 
L 79.015424 175.152879 
L 79.653921 169.785824 
L 80.079586 167.102296 
L 80.292418 164.642396 
L 80.718083 163.300632 
L 81.143748 161.064359 
L 81.356581 160.840732 
L 81.569413 160.393478 
L 81.782246 159.498968 
L 81.995078 157.70995 
L 82.207911 157.486323 
L 82.420743 156.144559 
L 82.633575 155.697304 
L 82.846408 154.131913 
L 83.272073 153.237404 
L 83.484905 152.342895 
L 83.697738 152.342895 
L 84.123403 150.553877 
L 84.549068 149.212113 
L 84.7619 148.764859 
L 84.974733 148.764859 
L 85.187565 148.093977 
L 85.400397 147.870349 
L 86.038895 144.068686 
L 86.46456 142.950549 
L 86.677392 142.279667 
L 86.890225 141.161531 
L 87.103057 140.937903 
L 87.954387 139.148885 
L 88.380052 139.148885 
L 88.592884 138.925258 
L 88.805717 138.925258 
L 89.018549 138.030749 
L 89.231382 138.030749 
L 89.657047 137.13624 
L 89.869879 137.13624 
L 90.082712 136.018103 
L 91.146874 134.005458 
L 91.359706 134.005458 
L 91.572539 133.558203 
L 91.785371 131.769185 
L 91.998204 131.769185 
L 92.849534 130.203794 
L 93.488031 130.203794 
L 93.700863 129.980166 
L 93.913696 129.532912 
L 94.339361 127.520266 
L 95.190691 126.625757 
L 95.403523 126.625757 
L 95.616356 126.178502 
L 95.829188 126.178502 
L 96.04202 125.954875 
L 96.467685 123.271348 
L 96.89335 121.929584 
L 97.319015 121.929584 
L 97.74468 120.811448 
L 97.957513 120.140566 
L 98.170345 120.140566 
L 98.59601 119.469684 
L 98.808842 119.469684 
L 99.44734 118.12792 
L 99.873005 118.12792 
L 100.29867 117.680666 
L 100.511502 117.680666 
L 101.149999 117.009784 
L 102.214162 117.009784 
L 102.426994 116.562529 
L 103.065492 116.562529 
L 103.278324 115.891647 
L 103.491157 115.66802 
L 103.916821 115.66802 
L 104.129654 115.444393 
L 104.555319 115.444393 
L 104.768151 115.220765 
L 104.980984 115.220765 
L 105.193816 114.997138 
L 105.832314 114.997138 
L 106.045146 113.879002 
L 110.088963 113.879002 
L 110.301795 113.431747 
L 112.855785 113.431747 
L 113.068617 113.20812 
L 113.707115 113.20812 
L 113.919947 112.984493 
L 114.984109 112.984493 
L 115.196942 112.313611 
L 115.409774 112.313611 
L 115.622607 112.089983 
L 115.835439 112.089983 
L 116.048272 111.866356 
L 118.389429 111.866356 
L 118.602261 111.642729 
L 119.240758 111.642729 
L 119.453591 111.419101 
L 119.666423 111.419101 
L 119.879256 111.195474 
L 122.220413 111.195474 
L 122.85891 110.524592 
L 123.284575 110.524592 
L 123.497408 110.300965 
L 125.838565 110.300965 
L 126.051397 110.077338 
L 126.26423 110.077338 
L 126.477062 109.85371 
L 132.223539 109.85371 
L 132.436371 109.630083 
L 133.287701 109.630083 
L 133.500533 109.406456 
L 133.926198 109.406456 
L 134.139031 109.182829 
L 134.777528 109.182829 
L 134.99036 108.959201 
L 137.331518 108.959201 
L 137.54435 108.735574 
L 139.034177 108.735574 
L 139.24701 108.511947 
L 140.949669 108.511947 
L 141.162502 108.288319 
L 141.588167 107.617438 
L 141.800999 107.39381 
L 142.013832 107.39381 
L 142.226664 107.170183 
L 147.121811 107.170183 
L 147.334643 106.946556 
L 149.462968 106.946556 
L 149.888633 106.499301 
L 150.101465 106.499301 
L 150.314298 106.275674 
L 150.739962 106.275674 
L 151.165627 105.828419 
L 152.016957 105.828419 
L 152.22979 105.604792 
L 152.442622 105.604792 
L 152.868287 105.157537 
L 154.570947 105.157537 
L 154.783779 104.93391 
L 155.209444 104.93391 
L 155.422277 104.486656 
L 155.847942 104.486656 
L 156.060774 104.263028 
L 157.337769 104.263028 
L 157.763434 103.815774 
L 165.21257 103.815774 
L 165.425402 103.592146 
L 166.702397 103.592146 
L 166.915229 103.368519 
L 170.533381 103.368519 
L 170.746214 103.144892 
L 176.49269 103.144892 
L 176.705523 102.921265 
L 177.982517 102.921265 
L 178.19535 102.697637 
L 179.472345 102.697637 
L 179.685177 102.47401 
L 181.813502 102.47401 
L 182.026334 102.250383 
L 184.580324 102.250383 
L 184.793156 102.026755 
L 185.431653 102.026755 
L 185.644486 101.803128 
L 186.070151 101.803128 
L 186.282983 101.579501 
L 187.134313 101.579501 
L 187.347146 101.355874 
L 188.836973 101.355874 
L 189.049805 101.132246 
L 189.262638 101.132246 
L 189.47547 100.908619 
L 193.732119 100.908619 
L 193.944952 100.684992 
L 198.414433 100.684992 
L 198.627266 100.461364 
L 202.671083 100.461364 
L 203.096748 100.01411 
L 203.30958 100.01411 
L 203.522412 99.566855 
L 203.735245 99.566855 
L 203.948077 99.343228 
L 207.991894 99.343228 
L 208.204727 98.895973 
L 209.907386 98.895973 
L 210.120219 98.672346 
L 212.035711 98.672346 
L 212.461376 98.225092 
L 216.718025 98.225092 
L 216.930857 98.001464 
L 219.272014 98.001464 
L 219.484847 97.777837 
L 220.974674 97.777837 
L 221.187507 97.55421 
L 224.592826 97.55421 
L 224.805658 97.330582 
L 228.42381 97.330582 
L 228.636643 97.106955 
L 228.849475 97.106955 
L 229.062308 96.883328 
L 232.254794 96.883328 
L 232.467627 96.6597 
L 232.893292 96.6597 
L 233.106124 96.436073 
L 235.234449 96.436073 
L 235.447281 96.212446 
L 240.55526 96.212446 
L 240.768093 95.988819 
L 243.747747 95.988819 
L 243.96058 95.765191 
L 257.156192 95.765191 
L 257.369025 95.541564 
L 263.328334 95.541564 
L 263.541166 95.317937 
L 266.095155 95.317937 
L 266.307988 95.094309 
L 267.37215 95.094309 
L 267.584983 94.870682 
L 268.22348 94.870682 
L 268.436313 94.647055 
L 272.692962 94.647055 
L 272.905794 94.423428 
L 275.034119 94.423428 
L 275.246951 94.1998 
L 280.35493 94.1998 
L 280.567763 93.976173 
L 285.462909 93.976173 
L 285.675742 93.752546 
L 304.192166 93.752546 
L 304.404998 93.528918 
L 307.17182 93.528918 
L 307.384653 93.305291 
L 308.87448 93.305291 
L 309.087312 93.081664 
L 314.620956 93.081664 
L 314.833789 92.858037 
L 315.259454 92.858037 
L 315.472286 92.634409 
L 316.536448 92.634409 
L 316.749281 92.410782 
L 318.239108 92.410782 
L 318.451941 92.187155 
L 323.134255 92.187155 
L 323.347087 91.963527 
L 324.198417 91.963527 
L 324.411249 91.7399 
L 325.262579 91.7399 
L 325.475412 91.516273 
L 336.968364 91.516273 
L 337.181197 91.292646 
L 345.055998 91.292646 
L 345.26883 91.069018 
L 346.545825 91.069018 
L 346.758658 90.845391 
L 354.207794 90.845391 
L 354.420626 90.621764 
L 356.761783 90.621764 
L 356.974616 90.398136 
L 360.167103 90.398136 
L 360.379935 90.174509 
L 361.869762 90.174509 
L 362.082595 89.950882 
L 363.146757 89.950882 
L 363.359589 89.727255 
L 371.021558 89.727255 
L 371.23439 89.503627 
L 371.447223 89.503627 
L 371.660055 89.28 
L 375.916705 89.28 
L 375.916705 89.28 
" clip-path="url(#p1021cd8c20)" style="fill: none; stroke: #c957db; stroke-width: 1.2; stroke-linecap: round"/>
   </g>
   <g id="line2d_44"/>
   <g id="line2d_45"/>
   <g id="line2d_46"/>
   <g id="line2d_47"/>
   <g id="line2d_48"/>
   <g id="patch_3">
    <path d="M 54.3375 512.64 
L 54.3375 69.12 
" style="fill: none; stroke: #cccccc; stroke-linejoin: miter; stroke-linecap: square"/>
   </g>
   <g id="patch_4">
    <path d="M 54.3375 512.64 
L 391.23 512.64 
" style="fill: none; stroke: #cccccc; stroke-linejoin: miter; stroke-linecap: square"/>
   </g>
   <g id="text_41">
    <!-- Edge Coverage History -->
    <g style="fill: #262626" transform="translate(115.892262 63.12)scale(0.165888 -0.165888)">
     <defs>
      <path id="DejaVuSans-Bold-45" d="M 588 4666 
L 3834 4666 
L 3834 3756 
L 1791 3756 
L 1791 2888 
L 3713 2888 
L 3713 1978 
L 1791 1978 
L 1791 909 
L 3903 909 
L 3903 0 
L 588 0 
L 588 4666 
z
" transform="scale(0.015625)"/>
      <path id="DejaVuSans-Bold-64" d="M 2919 2988 
L 2919 4863 
L 4044 4863 
L 4044 0 
L 2919 0 
L 2919 506 
Q 2688 197 2409 53 
Q 2131 -91 1766 -91 
Q 1119 -91 703 423 
Q 288 938 288 1747 
Q 288 2556 703 3070 
Q 1119 3584 1766 3584 
Q 2128 3584 2408 3439 
Q 2688 3294 2919 2988 
z
M 2181 722 
Q 2541 722 2730 984 
Q 2919 1247 2919 1747 
Q 2919 2247 2730 2509 
Q 2541 2772 2181 2772 
Q 1825 2772 1636 2509 
Q 1447 2247 1447 1747 
Q 1447 1247 1636 984 
Q 1825 722 2181 722 
z
" transform="scale(0.015625)"/>
      <path id="DejaVuSans-Bold-67" d="M 2919 594 
Q 2688 288 2409 144 
Q 2131 0 1766 0 
Q 1125 0 706 504 
Q 288 1009 288 1791 
Q 288 2575 706 3076 
Q 1125 3578 1766 3578 
Q 2131 3578 2409 3434 
Q 2688 3291 2919 2981 
L 2919 3500 
L 4044 3500 
L 4044 353 
Q 4044 -491 3511 -936 
Q 2978 -1381 1966 -1381 
Q 1638 -1381 1331 -1331 
Q 1025 -1281 716 -1178 
L 716 -306 
Q 1009 -475 1290 -558 
Q 1572 -641 1856 -641 
Q 2406 -641 2662 -400 
Q 2919 -159 2919 353 
L 2919 594 
z
M 2181 2772 
Q 1834 2772 1640 2515 
Q 1447 2259 1447 1791 
Q 1447 1309 1634 1061 
Q 1822 813 2181 813 
Q 2531 813 2725 1069 
Q 2919 1325 2919 1791 
Q 2919 2259 2725 2515 
Q 2531 2772 2181 2772 
z
" transform="scale(0.015625)"/>
      <path id="DejaVuSans-Bold-65" d="M 4031 1759 
L 4031 1441 
L 1416 1441 
Q 1456 1047 1700 850 
Q 1944 653 2381 653 
Q 2734 653 3104 758 
Q 3475 863 3866 1075 
L 3866 213 
Q 3469 63 3072 -14 
Q 2675 -91 2278 -91 
Q 1328 -91 801 392 
Q 275 875 275 1747 
Q 275 2603 792 3093 
Q 1309 3584 2216 3584 
Q 3041 3584 3536 3087 
Q 4031 2591 4031 1759 
z
M 2881 2131 
Q 2881 2450 2695 2645 
Q 2509 2841 2209 2841 
Q 1884 2841 1681 2658 
Q 1478 2475 1428 2131 
L 2881 2131 
z
" transform="scale(0.015625)"/>
      <path id="DejaVuSans-Bold-20" transform="scale(0.015625)"/>
      <path id="DejaVuSans-Bold-43" d="M 4288 256 
Q 3956 84 3597 -3 
Q 3238 -91 2847 -91 
Q 1681 -91 1000 561 
Q 319 1213 319 2328 
Q 319 3447 1000 4098 
Q 1681 4750 2847 4750 
Q 3238 4750 3597 4662 
Q 3956 4575 4288 4403 
L 4288 3438 
Q 3953 3666 3628 3772 
Q 3303 3878 2944 3878 
Q 2300 3878 1931 3465 
Q 1563 3053 1563 2328 
Q 1563 1606 1931 1193 
Q 2300 781 2944 781 
Q 3303 781 3628 887 
Q 3953 994 4288 1222 
L 4288 256 
z
" transform="scale(0.015625)"/>
      <path id="DejaVuSans-Bold-6f" d="M 2203 2784 
Q 1831 2784 1636 2517 
Q 1441 2250 1441 1747 
Q 1441 1244 1636 976 
Q 1831 709 2203 709 
Q 2569 709 2762 976 
Q 2956 1244 2956 1747 
Q 2956 2250 2762 2517 
Q 2569 2784 2203 2784 
z
M 2203 3584 
Q 3106 3584 3614 3096 
Q 4122 2609 4122 1747 
Q 4122 884 3614 396 
Q 3106 -91 2203 -91 
Q 1297 -91 786 396 
Q 275 884 275 1747 
Q 275 2609 786 3096 
Q 1297 3584 2203 3584 
z
" transform="scale(0.015625)"/>
      <path id="DejaVuSans-Bold-76" d="M 97 3500 
L 1216 3500 
L 2088 1081 
L 2956 3500 
L 4078 3500 
L 2700 0 
L 1472 0 
L 97 3500 
z
" transform="scale(0.015625)"/>
      <path id="DejaVuSans-Bold-72" d="M 3138 2547 
Q 2991 2616 2845 2648 
Q 2700 2681 2553 2681 
Q 2122 2681 1889 2404 
Q 1656 2128 1656 1613 
L 1656 0 
L 538 0 
L 538 3500 
L 1656 3500 
L 1656 2925 
Q 1872 3269 2151 3426 
Q 2431 3584 2822 3584 
Q 2878 3584 2943 3579 
Q 3009 3575 3134 3559 
L 3138 2547 
z
" transform="scale(0.015625)"/>
      <path id="DejaVuSans-Bold-61" d="M 2106 1575 
Q 1756 1575 1579 1456 
Q 1403 1338 1403 1106 
Q 1403 894 1545 773 
Q 1688 653 1941 653 
Q 2256 653 2472 879 
Q 2688 1106 2688 1447 
L 2688 1575 
L 2106 1575 
z
M 3816 1997 
L 3816 0 
L 2688 0 
L 2688 519 
Q 2463 200 2181 54 
Q 1900 -91 1497 -91 
Q 953 -91 614 226 
Q 275 544 275 1050 
Q 275 1666 698 1953 
Q 1122 2241 2028 2241 
L 2688 2241 
L 2688 2328 
Q 2688 2594 2478 2717 
Q 2269 2841 1825 2841 
Q 1466 2841 1156 2769 
Q 847 2697 581 2553 
L 581 3406 
Q 941 3494 1303 3539 
Q 1666 3584 2028 3584 
Q 2975 3584 3395 3211 
Q 3816 2838 3816 1997 
z
" transform="scale(0.015625)"/>
      <path id="DejaVuSans-Bold-48" d="M 588 4666 
L 1791 4666 
L 1791 2888 
L 3566 2888 
L 3566 4666 
L 4769 4666 
L 4769 0 
L 3566 0 
L 3566 1978 
L 1791 1978 
L 1791 0 
L 588 0 
L 588 4666 
z
" transform="scale(0.015625)"/>
      <path id="DejaVuSans-Bold-69" d="M 538 3500 
L 1656 3500 
L 1656 0 
L 538 0 
L 538 3500 
z
M 538 4863 
L 1656 4863 
L 1656 3950 
L 538 3950 
L 538 4863 
z
" transform="scale(0.015625)"/>
      <path id="DejaVuSans-Bold-73" d="M 3272 3391 
L 3272 2541 
Q 2913 2691 2578 2766 
Q 2244 2841 1947 2841 
Q 1628 2841 1473 2761 
Q 1319 2681 1319 2516 
Q 1319 2381 1436 2309 
Q 1553 2238 1856 2203 
L 2053 2175 
Q 2913 2066 3209 1816 
Q 3506 1566 3506 1031 
Q 3506 472 3093 190 
Q 2681 -91 1863 -91 
Q 1516 -91 1145 -36 
Q 775 19 384 128 
L 384 978 
Q 719 816 1070 734 
Q 1422 653 1784 653 
Q 2113 653 2278 743 
Q 2444 834 2444 1013 
Q 2444 1163 2330 1236 
Q 2216 1309 1875 1350 
L 1678 1375 
Q 931 1469 631 1722 
Q 331 1975 331 2491 
Q 331 3047 712 3315 
Q 1094 3584 1881 3584 
Q 2191 3584 2531 3537 
Q 2872 3491 3272 3391 
z
" transform="scale(0.015625)"/>
      <path id="DejaVuSans-Bold-74" d="M 1759 4494 
L 1759 3500 
L 2913 3500 
L 2913 2700 
L 1759 2700 
L 1759 1216 
Q 1759 972 1856 886 
Q 1953 800 2241 800 
L 2816 800 
L 2816 0 
L 1856 0 
Q 1194 0 917 276 
Q 641 553 641 1216 
L 641 2700 
L 84 2700 
L 84 3500 
L 641 3500 
L 641 4494 
L 1759 4494 
z
" transform="scale(0.015625)"/>
      <path id="DejaVuSans-Bold-79" d="M 78 3500 
L 1197 3500 
L 2138 1125 
L 2938 3500 
L 4056 3500 
L 2584 -331 
Q 2363 -916 2067 -1148 
Q 1772 -1381 1288 -1381 
L 641 -1381 
L 641 -647 
L 991 -647 
Q 1275 -647 1404 -556 
Q 1534 -466 1606 -231 
L 1638 -134 
L 78 3500 
z
" transform="scale(0.015625)"/>
     </defs>
     <use xlink:href="#DejaVuSans-Bold-45"/>
     <use xlink:href="#DejaVuSans-Bold-64" x="68.310547"/>
     <use xlink:href="#DejaVuSans-Bold-67" x="139.892578"/>
     <use xlink:href="#DejaVuSans-Bold-65" x="211.474609"/>
     <use xlink:href="#DejaVuSans-Bold-20" x="279.296875"/>
     <use xlink:href="#DejaVuSans-Bold-43" x="314.111328"/>
     <use xlink:href="#DejaVuSans-Bold-6f" x="387.5"/>
     <use xlink:href="#DejaVuSans-Bold-76" x="456.201172"/>
     <use xlink:href="#DejaVuSans-Bold-65" x="521.386719"/>
     <use xlink:href="#DejaVuSans-Bold-72" x="589.208984"/>
     <use xlink:href="#DejaVuSans-Bold-61" x="638.525391"/>
     <use xlink:href="#DejaVuSans-Bold-67" x="706.005859"/>
     <use xlink:href="#DejaVuSans-Bold-65" x="777.587891"/>
     <use xlink:href="#DejaVuSans-Bold-20" x="845.410156"/>
     <use xlink:href="#DejaVuSans-Bold-48" x="880.224609"/>
     <use xlink:href="#DejaVuSans-Bold-69" x="963.916016"/>
     <use xlink:href="#DejaVuSans-Bold-73" x="998.193359"/>
     <use xlink:href="#DejaVuSans-Bold-74" x="1057.714844"/>
     <use xlink:href="#DejaVuSans-Bold-6f" x="1105.517578"/>
     <use xlink:href="#DejaVuSans-Bold-72" x="1174.21875"/>
     <use xlink:href="#DejaVuSans-Bold-79" x="1223.535156"/>
    </g>
   </g>
   <g id="legend_1">
    <g id="patch_5">
     <path d="M 273.541 508.24 
L 385.07 508.24 
Q 386.83 508.24 386.83 506.48 
L 386.83 428.8405 
Q 386.83 427.0805 385.07 427.0805 
L 273.541 427.0805 
Q 271.781 427.0805 271.781 428.8405 
L 271.781 506.48 
Q 271.781 508.24 273.541 508.24 
z
" style="fill: #ffffff; opacity: 0.8; stroke: #cccccc; stroke-width: 0.8; stroke-linejoin: miter"/>
    </g>
    <g id="text_42">
     <!-- fuzzer -->
     <g style="fill: #262626" transform="translate(314.6085 437.895)scale(0.096 -0.096)">
      <defs>
       <path id="DejaVuSans-66" d="M 2375 4863 
L 2375 4384 
L 1825 4384 
Q 1516 4384 1395 4259 
Q 1275 4134 1275 3809 
L 1275 3500 
L 2222 3500 
L 2222 3053 
L 1275 3053 
L 1275 0 
L 697 0 
L 697 3053 
L 147 3053 
L 147 3500 
L 697 3500 
L 697 3744 
Q 697 4328 969 4595 
Q 1241 4863 1831 4863 
L 2375 4863 
z
" transform="scale(0.015625)"/>
       <path id="DejaVuSans-7a" d="M 353 3500 
L 3084 3500 
L 3084 2975 
L 922 459 
L 3084 459 
L 3084 0 
L 275 0 
L 275 525 
L 2438 3041 
L 353 3041 
L 353 3500 
z
" transform="scale(0.015625)"/>
      </defs>
      <use xlink:href="#DejaVuSans-66"/>
      <use xlink:href="#DejaVuSans-75" x="35.205078"/>
      <use xlink:href="#DejaVuSans-7a" x="98.583984"/>
      <use xlink:href="#DejaVuSans-7a" x="151.074219"/>
      <use xlink:href="#DejaVuSans-65" x="203.564453"/>
      <use xlink:href="#DejaVuSans-72" x="265.087891"/>
     </g>
    </g>
    <g id="line2d_49">
     <path d="M 275.301 447.898125 
L 284.101 447.898125 
L 292.901 447.898125 
" style="fill: none; stroke: #db5f57; stroke-width: 1.2; stroke-linecap: round"/>
    </g>
    <g id="text_43">
     <!-- aflplusplus-0-exid1 -->
     <g style="fill: #262626" transform="translate(299.941 450.978125)scale(0.088 -0.088)">
      <defs>
       <path id="DejaVuSans-6c" d="M 603 4863 
L 1178 4863 
L 1178 0 
L 603 0 
L 603 4863 
z
" transform="scale(0.015625)"/>
       <path id="DejaVuSans-70" d="M 1159 525 
L 1159 -1331 
L 581 -1331 
L 581 3500 
L 1159 3500 
L 1159 2969 
Q 1341 3281 1617 3432 
Q 1894 3584 2278 3584 
Q 2916 3584 3314 3078 
Q 3713 2572 3713 1747 
Q 3713 922 3314 415 
Q 2916 -91 2278 -91 
Q 1894 -91 1617 61 
Q 1341 213 1159 525 
z
M 3116 1747 
Q 3116 2381 2855 2742 
Q 2594 3103 2138 3103 
Q 1681 3103 1420 2742 
Q 1159 2381 1159 1747 
Q 1159 1113 1420 752 
Q 1681 391 2138 391 
Q 2594 391 2855 752 
Q 3116 1113 3116 1747 
z
" transform="scale(0.015625)"/>
       <path id="DejaVuSans-2d" d="M 313 2009 
L 1997 2009 
L 1997 1497 
L 313 1497 
L 313 2009 
z
" transform="scale(0.015625)"/>
       <path id="DejaVuSans-78" d="M 3513 3500 
L 2247 1797 
L 3578 0 
L 2900 0 
L 1881 1375 
L 863 0 
L 184 0 
L 1544 1831 
L 300 3500 
L 978 3500 
L 1906 2253 
L 2834 3500 
L 3513 3500 
z
" transform="scale(0.015625)"/>
      </defs>
      <use xlink:href="#DejaVuSans-61"/>
      <use xlink:href="#DejaVuSans-66" x="61.279297"/>
      <use xlink:href="#DejaVuSans-6c" x="96.484375"/>
      <use xlink:href="#DejaVuSans-70" x="124.267578"/>
      <use xlink:href="#DejaVuSans-6c" x="187.744141"/>
      <use xlink:href="#DejaVuSans-75" x="215.527344"/>
      <use xlink:href="#DejaVuSans-73" x="278.90625"/>
      <use xlink:href="#DejaVuSans-70" x="331.005859"/>
      <use xlink:href="#DejaVuSans-6c" x="394.482422"/>
      <use xlink:href="#DejaVuSans-75" x="422.265625"/>
      <use xlink:href="#DejaVuSans-73" x="485.644531"/>
      <use xlink:href="#DejaVuSans-2d" x="537.744141"/>
      <use xlink:href="#DejaVuSans-30" x="573.828125"/>
      <use xlink:href="#DejaVuSans-2d" x="637.451172"/>
      <use xlink:href="#DejaVuSans-65" x="673.535156"/>
      <use xlink:href="#DejaVuSans-78" x="733.308594"/>
      <use xlink:href="#DejaVuSans-69" x="792.488281"/>
      <use xlink:href="#DejaVuSans-64" x="820.271484"/>
      <use xlink:href="#DejaVuSans-31" x="883.748047"/>
     </g>
    </g>
    <g id="line2d_50">
     <path d="M 275.301 460.814875 
L 284.101 460.814875 
L 292.901 460.814875 
" style="fill: none; stroke: #b9db57; stroke-width: 1.2; stroke-linecap: round"/>
    </g>
    <g id="text_44">
     <!-- mopt-0-exid1 -->
     <g style="fill: #262626" transform="translate(299.941 463.894875)scale(0.088 -0.088)">
      <use xlink:href="#DejaVuSans-6d"/>
      <use xlink:href="#DejaVuSans-6f" x="97.412109"/>
      <use xlink:href="#DejaVuSans-70" x="158.59375"/>
      <use xlink:href="#DejaVuSans-74" x="222.070312"/>
      <use xlink:href="#DejaVuSans-2d" x="261.279297"/>
      <use xlink:href="#DejaVuSans-30" x="297.363281"/>
      <use xlink:href="#DejaVuSans-2d" x="360.986328"/>
      <use xlink:href="#DejaVuSans-65" x="397.070312"/>
      <use xlink:href="#DejaVuSans-78" x="456.84375"/>
      <use xlink:href="#DejaVuSans-69" x="516.023438"/>
      <use xlink:href="#DejaVuSans-64" x="543.806641"/>
      <use xlink:href="#DejaVuSans-31" x="607.283203"/>
     </g>
    </g>
    <g id="line2d_51">
     <path d="M 275.301 473.731625 
L 284.101 473.731625 
L 292.901 473.731625 
" style="fill: none; stroke: #57db94; stroke-width: 1.2; stroke-linecap: round"/>
    </g>
    <g id="text_45">
     <!-- fairfuzz-0-exid1 -->
     <g style="fill: #262626" transform="translate(299.941 476.811625)scale(0.088 -0.088)">
      <use xlink:href="#DejaVuSans-66"/>
      <use xlink:href="#DejaVuSans-61" x="35.205078"/>
      <use xlink:href="#DejaVuSans-69" x="96.484375"/>
      <use xlink:href="#DejaVuSans-72" x="124.267578"/>
      <use xlink:href="#DejaVuSans-66" x="165.380859"/>
      <use xlink:href="#DejaVuSans-75" x="200.585938"/>
      <use xlink:href="#DejaVuSans-7a" x="263.964844"/>
      <use xlink:href="#DejaVuSans-7a" x="316.455078"/>
      <use xlink:href="#DejaVuSans-2d" x="368.945312"/>
      <use xlink:href="#DejaVuSans-30" x="405.029297"/>
      <use xlink:href="#DejaVuSans-2d" x="468.652344"/>
      <use xlink:href="#DejaVuSans-65" x="504.736328"/>
      <use xlink:href="#DejaVuSans-78" x="564.509766"/>
      <use xlink:href="#DejaVuSans-69" x="623.689453"/>
      <use xlink:href="#DejaVuSans-64" x="651.472656"/>
      <use xlink:href="#DejaVuSans-31" x="714.949219"/>
     </g>
    </g>
    <g id="line2d_52">
     <path d="M 275.301 486.648375 
L 284.101 486.648375 
L 292.901 486.648375 
" style="fill: none; stroke: #5784db; stroke-width: 1.2; stroke-linecap: round"/>
    </g>
    <g id="text_46">
     <!-- symcc-0-exid1 -->
     <g style="fill: #262626" transform="translate(299.941 489.728375)scale(0.088 -0.088)">
      <defs>
       <path id="DejaVuSans-79" d="M 2059 -325 
Q 1816 -950 1584 -1140 
Q 1353 -1331 966 -1331 
L 506 -1331 
L 506 -850 
L 844 -850 
Q 1081 -850 1212 -737 
Q 1344 -625 1503 -206 
L 1606 56 
L 191 3500 
L 800 3500 
L 1894 763 
L 2988 3500 
L 3597 3500 
L 2059 -325 
z
" transform="scale(0.015625)"/>
       <path id="DejaVuSans-63" d="M 3122 3366 
L 3122 2828 
Q 2878 2963 2633 3030 
Q 2388 3097 2138 3097 
Q 1578 3097 1268 2742 
Q 959 2388 959 1747 
Q 959 1106 1268 751 
Q 1578 397 2138 397 
Q 2388 397 2633 464 
Q 2878 531 3122 666 
L 3122 134 
Q 2881 22 2623 -34 
Q 2366 -91 2075 -91 
Q 1284 -91 818 406 
Q 353 903 353 1747 
Q 353 2603 823 3093 
Q 1294 3584 2113 3584 
Q 2378 3584 2631 3529 
Q 2884 3475 3122 3366 
z
" transform="scale(0.015625)"/>
      </defs>
      <use xlink:href="#DejaVuSans-73"/>
      <use xlink:href="#DejaVuSans-79" x="52.099609"/>
      <use xlink:href="#DejaVuSans-6d" x="111.279297"/>
      <use xlink:href="#DejaVuSans-63" x="208.691406"/>
      <use xlink:href="#DejaVuSans-63" x="263.671875"/>
      <use xlink:href="#DejaVuSans-2d" x="318.652344"/>
      <use xlink:href="#DejaVuSans-30" x="354.736328"/>
      <use xlink:href="#DejaVuSans-2d" x="418.359375"/>
      <use xlink:href="#DejaVuSans-65" x="454.443359"/>
      <use xlink:href="#DejaVuSans-78" x="514.216797"/>
      <use xlink:href="#DejaVuSans-69" x="573.396484"/>
      <use xlink:href="#DejaVuSans-64" x="601.179688"/>
      <use xlink:href="#DejaVuSans-31" x="664.65625"/>
     </g>
    </g>
    <g id="line2d_53">
     <path d="M 275.301 499.565125 
L 284.101 499.565125 
L 292.901 499.565125 
" style="fill: none; stroke: #c957db; stroke-width: 1.2; stroke-linecap: round"/>
    </g>
    <g id="text_47">
     <!-- fuzzer_global -->
     <g style="fill: #262626" transform="translate(299.941 502.645125)scale(0.088 -0.088)">
      <defs>
       <path id="DejaVuSans-5f" d="M 3263 -1063 
L 3263 -1509 
L -63 -1509 
L -63 -1063 
L 3263 -1063 
z
" transform="scale(0.015625)"/>
       <path id="DejaVuSans-62" d="M 3116 1747 
Q 3116 2381 2855 2742 
Q 2594 3103 2138 3103 
Q 1681 3103 1420 2742 
Q 1159 2381 1159 1747 
Q 1159 1113 1420 752 
Q 1681 391 2138 391 
Q 2594 391 2855 752 
Q 3116 1113 3116 1747 
z
M 1159 2969 
Q 1341 3281 1617 3432 
Q 1894 3584 2278 3584 
Q 2916 3584 3314 3078 
Q 3713 2572 3713 1747 
Q 3713 922 3314 415 
Q 2916 -91 2278 -91 
Q 1894 -91 1617 61 
Q 1341 213 1159 525 
L 1159 0 
L 581 0 
L 581 4863 
L 1159 4863 
L 1159 2969 
z
" transform="scale(0.015625)"/>
      </defs>
      <use xlink:href="#DejaVuSans-66"/>
      <use xlink:href="#DejaVuSans-75" x="35.205078"/>
      <use xlink:href="#DejaVuSans-7a" x="98.583984"/>
      <use xlink:href="#DejaVuSans-7a" x="151.074219"/>
      <use xlink:href="#DejaVuSans-65" x="203.564453"/>
      <use xlink:href="#DejaVuSans-72" x="265.087891"/>
      <use xlink:href="#DejaVuSans-5f" x="306.201172"/>
      <use xlink:href="#DejaVuSans-67" x="356.201172"/>
      <use xlink:href="#DejaVuSans-6c" x="419.677734"/>
      <use xlink:href="#DejaVuSans-6f" x="447.460938"/>
      <use xlink:href="#DejaVuSans-62" x="508.642578"/>
      <use xlink:href="#DejaVuSans-61" x="572.119141"/>
      <use xlink:href="#DejaVuSans-6c" x="633.398438"/>
     </g>
    </g>
   </g>
  </g>
 </g>
 <defs>
  <clipPath id="p1021cd8c20">
   <rect x="54.3375" y="69.12" width="336.8925" height="443.52"/>
  </clipPath>
 </defs>
</svg>
