<?xml version="1.0" encoding="utf-8" standalone="no"?>
<!DOCTYPE svg PUBLIC "-//W3C//DTD SVG 1.1//EN"
  "http://www.w3.org/Graphics/SVG/1.1/DTD/svg11.dtd">
<svg xmlns:xlink="http://www.w3.org/1999/xlink" width="434.7pt" height="576pt" viewBox="0 0 434.7 576" xmlns="http://www.w3.org/2000/svg" version="1.1">
 <metadata>
  <rdf:RDF xmlns:dc="http://purl.org/dc/elements/1.1/" xmlns:cc="http://creativecommons.org/ns#" xmlns:rdf="http://www.w3.org/1999/02/22-rdf-syntax-ns#">
   <cc:Work>
    <dc:type rdf:resource="http://purl.org/dc/dcmitype/StillImage"/>
    <dc:date>2022-09-15T08:35:36.190466</dc:date>
    <dc:format>image/svg+xml</dc:format>
    <dc:creator>
     <cc:Agent>
      <dc:title>Matplotlib v3.5.3, https://matplotlib.org/</dc:title>
     </cc:Agent>
    </dc:creator>
   </cc:Work>
  </rdf:RDF>
 </metadata>
 <defs>
  <style type="text/css">*{stroke-linejoin: round; stroke-linecap: butt}</style>
 </defs>
 <g id="figure_1">
  <g id="patch_1">
   <path d="M 0 576 
L 434.7 576 
L 434.7 0 
L 0 0 
z
" style="fill: #ffffff"/>
  </g>
  <g id="axes_1">
   <g id="patch_2">
    <path d="M 54.3375 512.64 
L 391.23 512.64 
L 391.23 69.12 
L 54.3375 69.12 
z
" style="fill: #ffffff"/>
   </g>
   <g id="matplotlib.axis_1">
    <g id="xtick_1">
     <g id="line2d_1">
      <path d="M 69.650795 512.64 
L 69.650795 69.12 
" clip-path="url(#p02568bdc9f)" style="fill: none; stroke: #cccccc; stroke-width: 0.8; stroke-linecap: round"/>
     </g>
     <g id="text_1">
      <!-- 0 -->
      <g style="fill: #262626" transform="translate(69.388282 529.627249)rotate(-45)scale(0.088 -0.088)">
       <defs>
        <path id="DejaVuSans-30" d="M 2034 4250 
Q 1547 4250 1301 3770 
Q 1056 3291 1056 2328 
Q 1056 1369 1301 889 
Q 1547 409 2034 409 
Q 2525 409 2770 889 
Q 3016 1369 3016 2328 
Q 3016 3291 2770 3770 
Q 2525 4250 2034 4250 
z
M 2034 4750 
Q 2819 4750 3233 4129 
Q 3647 3509 3647 2328 
Q 3647 1150 3233 529 
Q 2819 -91 2034 -91 
Q 1250 -91 836 529 
Q 422 1150 422 2328 
Q 422 3509 836 4129 
Q 1250 4750 2034 4750 
z
" transform="scale(0.015625)"/>
       </defs>
       <use xlink:href="#DejaVuSans-30"/>
      </g>
     </g>
    </g>
    <g id="xtick_2">
     <g id="line2d_2">
      <path d="M 86.677392 512.64 
L 86.677392 69.12 
" clip-path="url(#p02568bdc9f)" style="fill: none; stroke: #cccccc; stroke-width: 0.8; stroke-linecap: round"/>
     </g>
     <g id="text_2">
      <!-- 80 -->
      <g style="fill: #262626" transform="translate(84.435333 533.58634)rotate(-45)scale(0.088 -0.088)">
       <defs>
        <path id="DejaVuSans-38" d="M 2034 2216 
Q 1584 2216 1326 1975 
Q 1069 1734 1069 1313 
Q 1069 891 1326 650 
Q 1584 409 2034 409 
Q 2484 409 2743 651 
Q 3003 894 3003 1313 
Q 3003 1734 2745 1975 
Q 2488 2216 2034 2216 
z
M 1403 2484 
Q 997 2584 770 2862 
Q 544 3141 544 3541 
Q 544 4100 942 4425 
Q 1341 4750 2034 4750 
Q 2731 4750 3128 4425 
Q 3525 4100 3525 3541 
Q 3525 3141 3298 2862 
Q 3072 2584 2669 2484 
Q 3125 2378 3379 2068 
Q 3634 1759 3634 1313 
Q 3634 634 3220 271 
Q 2806 -91 2034 -91 
Q 1263 -91 848 271 
Q 434 634 434 1313 
Q 434 1759 690 2068 
Q 947 2378 1403 2484 
z
M 1172 3481 
Q 1172 3119 1398 2916 
Q 1625 2713 2034 2713 
Q 2441 2713 2670 2916 
Q 2900 3119 2900 3481 
Q 2900 3844 2670 4047 
Q 2441 4250 2034 4250 
Q 1625 4250 1398 4047 
Q 1172 3844 1172 3481 
z
" transform="scale(0.015625)"/>
       </defs>
       <use xlink:href="#DejaVuSans-38"/>
       <use xlink:href="#DejaVuSans-30" x="63.623047"/>
      </g>
     </g>
    </g>
    <g id="xtick_3">
     <g id="line2d_3">
      <path d="M 103.703989 512.64 
L 103.703989 69.12 
" clip-path="url(#p02568bdc9f)" style="fill: none; stroke: #cccccc; stroke-width: 0.8; stroke-linecap: round"/>
     </g>
     <g id="text_3">
      <!-- 160 -->
      <g style="fill: #262626" transform="translate(99.482385 537.54543)rotate(-45)scale(0.088 -0.088)">
       <defs>
        <path id="DejaVuSans-31" d="M 794 531 
L 1825 531 
L 1825 4091 
L 703 3866 
L 703 4441 
L 1819 4666 
L 2450 4666 
L 2450 531 
L 3481 531 
L 3481 0 
L 794 0 
L 794 531 
z
" transform="scale(0.015625)"/>
        <path id="DejaVuSans-36" d="M 2113 2584 
Q 1688 2584 1439 2293 
Q 1191 2003 1191 1497 
Q 1191 994 1439 701 
Q 1688 409 2113 409 
Q 2538 409 2786 701 
Q 3034 994 3034 1497 
Q 3034 2003 2786 2293 
Q 2538 2584 2113 2584 
z
M 3366 4563 
L 3366 3988 
Q 3128 4100 2886 4159 
Q 2644 4219 2406 4219 
Q 1781 4219 1451 3797 
Q 1122 3375 1075 2522 
Q 1259 2794 1537 2939 
Q 1816 3084 2150 3084 
Q 2853 3084 3261 2657 
Q 3669 2231 3669 1497 
Q 3669 778 3244 343 
Q 2819 -91 2113 -91 
Q 1303 -91 875 529 
Q 447 1150 447 2328 
Q 447 3434 972 4092 
Q 1497 4750 2381 4750 
Q 2619 4750 2861 4703 
Q 3103 4656 3366 4563 
z
" transform="scale(0.015625)"/>
       </defs>
       <use xlink:href="#DejaVuSans-31"/>
       <use xlink:href="#DejaVuSans-36" x="63.623047"/>
       <use xlink:href="#DejaVuSans-30" x="127.246094"/>
      </g>
     </g>
    </g>
    <g id="xtick_4">
     <g id="line2d_4">
      <path d="M 120.730586 512.64 
L 120.730586 69.12 
" clip-path="url(#p02568bdc9f)" style="fill: none; stroke: #cccccc; stroke-width: 0.8; stroke-linecap: round"/>
     </g>
     <g id="text_4">
      <!-- 240 -->
      <g style="fill: #262626" transform="translate(116.508981 537.54543)rotate(-45)scale(0.088 -0.088)">
       <defs>
        <path id="DejaVuSans-32" d="M 1228 531 
L 3431 531 
L 3431 0 
L 469 0 
L 469 531 
Q 828 903 1448 1529 
Q 2069 2156 2228 2338 
Q 2531 2678 2651 2914 
Q 2772 3150 2772 3378 
Q 2772 3750 2511 3984 
Q 2250 4219 1831 4219 
Q 1534 4219 1204 4116 
Q 875 4013 500 3803 
L 500 4441 
Q 881 4594 1212 4672 
Q 1544 4750 1819 4750 
Q 2544 4750 2975 4387 
Q 3406 4025 3406 3419 
Q 3406 3131 3298 2873 
Q 3191 2616 2906 2266 
Q 2828 2175 2409 1742 
Q 1991 1309 1228 531 
z
" transform="scale(0.015625)"/>
        <path id="DejaVuSans-34" d="M 2419 4116 
L 825 1625 
L 2419 1625 
L 2419 4116 
z
M 2253 4666 
L 3047 4666 
L 3047 1625 
L 3713 1625 
L 3713 1100 
L 3047 1100 
L 3047 0 
L 2419 0 
L 2419 1100 
L 313 1100 
L 313 1709 
L 2253 4666 
z
" transform="scale(0.015625)"/>
       </defs>
       <use xlink:href="#DejaVuSans-32"/>
       <use xlink:href="#DejaVuSans-34" x="63.623047"/>
       <use xlink:href="#DejaVuSans-30" x="127.246094"/>
      </g>
     </g>
    </g>
    <g id="xtick_5">
     <g id="line2d_5">
      <path d="M 137.757182 512.64 
L 137.757182 69.12 
" clip-path="url(#p02568bdc9f)" style="fill: none; stroke: #cccccc; stroke-width: 0.8; stroke-linecap: round"/>
     </g>
     <g id="text_5">
      <!-- 320 -->
      <g style="fill: #262626" transform="translate(133.535578 537.54543)rotate(-45)scale(0.088 -0.088)">
       <defs>
        <path id="DejaVuSans-33" d="M 2597 2516 
Q 3050 2419 3304 2112 
Q 3559 1806 3559 1356 
Q 3559 666 3084 287 
Q 2609 -91 1734 -91 
Q 1441 -91 1130 -33 
Q 819 25 488 141 
L 488 750 
Q 750 597 1062 519 
Q 1375 441 1716 441 
Q 2309 441 2620 675 
Q 2931 909 2931 1356 
Q 2931 1769 2642 2001 
Q 2353 2234 1838 2234 
L 1294 2234 
L 1294 2753 
L 1863 2753 
Q 2328 2753 2575 2939 
Q 2822 3125 2822 3475 
Q 2822 3834 2567 4026 
Q 2313 4219 1838 4219 
Q 1578 4219 1281 4162 
Q 984 4106 628 3988 
L 628 4550 
Q 988 4650 1302 4700 
Q 1616 4750 1894 4750 
Q 2613 4750 3031 4423 
Q 3450 4097 3450 3541 
Q 3450 3153 3228 2886 
Q 3006 2619 2597 2516 
z
" transform="scale(0.015625)"/>
       </defs>
       <use xlink:href="#DejaVuSans-33"/>
       <use xlink:href="#DejaVuSans-32" x="63.623047"/>
       <use xlink:href="#DejaVuSans-30" x="127.246094"/>
      </g>
     </g>
    </g>
    <g id="xtick_6">
     <g id="line2d_6">
      <path d="M 154.783779 512.64 
L 154.783779 69.12 
" clip-path="url(#p02568bdc9f)" style="fill: none; stroke: #cccccc; stroke-width: 0.8; stroke-linecap: round"/>
     </g>
     <g id="text_6">
      <!-- 400 -->
      <g style="fill: #262626" transform="translate(150.562175 537.54543)rotate(-45)scale(0.088 -0.088)">
       <use xlink:href="#DejaVuSans-34"/>
       <use xlink:href="#DejaVuSans-30" x="63.623047"/>
       <use xlink:href="#DejaVuSans-30" x="127.246094"/>
      </g>
     </g>
    </g>
    <g id="xtick_7">
     <g id="line2d_7">
      <path d="M 171.810376 512.64 
L 171.810376 69.12 
" clip-path="url(#p02568bdc9f)" style="fill: none; stroke: #cccccc; stroke-width: 0.8; stroke-linecap: round"/>
     </g>
     <g id="text_7">
      <!-- 480 -->
      <g style="fill: #262626" transform="translate(167.588772 537.54543)rotate(-45)scale(0.088 -0.088)">
       <use xlink:href="#DejaVuSans-34"/>
       <use xlink:href="#DejaVuSans-38" x="63.623047"/>
       <use xlink:href="#DejaVuSans-30" x="127.246094"/>
      </g>
     </g>
    </g>
    <g id="xtick_8">
     <g id="line2d_8">
      <path d="M 188.836973 512.64 
L 188.836973 69.12 
" clip-path="url(#p02568bdc9f)" style="fill: none; stroke: #cccccc; stroke-width: 0.8; stroke-linecap: round"/>
     </g>
     <g id="text_8">
      <!-- 560 -->
      <g style="fill: #262626" transform="translate(184.615368 537.54543)rotate(-45)scale(0.088 -0.088)">
       <defs>
        <path id="DejaVuSans-35" d="M 691 4666 
L 3169 4666 
L 3169 4134 
L 1269 4134 
L 1269 2991 
Q 1406 3038 1543 3061 
Q 1681 3084 1819 3084 
Q 2600 3084 3056 2656 
Q 3513 2228 3513 1497 
Q 3513 744 3044 326 
Q 2575 -91 1722 -91 
Q 1428 -91 1123 -41 
Q 819 9 494 109 
L 494 744 
Q 775 591 1075 516 
Q 1375 441 1709 441 
Q 2250 441 2565 725 
Q 2881 1009 2881 1497 
Q 2881 1984 2565 2268 
Q 2250 2553 1709 2553 
Q 1456 2553 1204 2497 
Q 953 2441 691 2322 
L 691 4666 
z
" transform="scale(0.015625)"/>
       </defs>
       <use xlink:href="#DejaVuSans-35"/>
       <use xlink:href="#DejaVuSans-36" x="63.623047"/>
       <use xlink:href="#DejaVuSans-30" x="127.246094"/>
      </g>
     </g>
    </g>
    <g id="xtick_9">
     <g id="line2d_9">
      <path d="M 205.863569 512.64 
L 205.863569 69.12 
" clip-path="url(#p02568bdc9f)" style="fill: none; stroke: #cccccc; stroke-width: 0.8; stroke-linecap: round"/>
     </g>
     <g id="text_9">
      <!-- 640 -->
      <g style="fill: #262626" transform="translate(201.641965 537.54543)rotate(-45)scale(0.088 -0.088)">
       <use xlink:href="#DejaVuSans-36"/>
       <use xlink:href="#DejaVuSans-34" x="63.623047"/>
       <use xlink:href="#DejaVuSans-30" x="127.246094"/>
      </g>
     </g>
    </g>
    <g id="xtick_10">
     <g id="line2d_10">
      <path d="M 222.890166 512.64 
L 222.890166 69.12 
" clip-path="url(#p02568bdc9f)" style="fill: none; stroke: #cccccc; stroke-width: 0.8; stroke-linecap: round"/>
     </g>
     <g id="text_10">
      <!-- 720 -->
      <g style="fill: #262626" transform="translate(218.668562 537.54543)rotate(-45)scale(0.088 -0.088)">
       <defs>
        <path id="DejaVuSans-37" d="M 525 4666 
L 3525 4666 
L 3525 4397 
L 1831 0 
L 1172 0 
L 2766 4134 
L 525 4134 
L 525 4666 
z
" transform="scale(0.015625)"/>
       </defs>
       <use xlink:href="#DejaVuSans-37"/>
       <use xlink:href="#DejaVuSans-32" x="63.623047"/>
       <use xlink:href="#DejaVuSans-30" x="127.246094"/>
      </g>
     </g>
    </g>
    <g id="xtick_11">
     <g id="line2d_11">
      <path d="M 239.916763 512.64 
L 239.916763 69.12 
" clip-path="url(#p02568bdc9f)" style="fill: none; stroke: #cccccc; stroke-width: 0.8; stroke-linecap: round"/>
     </g>
     <g id="text_11">
      <!-- 800 -->
      <g style="fill: #262626" transform="translate(235.695159 537.54543)rotate(-45)scale(0.088 -0.088)">
       <use xlink:href="#DejaVuSans-38"/>
       <use xlink:href="#DejaVuSans-30" x="63.623047"/>
       <use xlink:href="#DejaVuSans-30" x="127.246094"/>
      </g>
     </g>
    </g>
    <g id="xtick_12">
     <g id="line2d_12">
      <path d="M 256.94336 512.64 
L 256.94336 69.12 
" clip-path="url(#p02568bdc9f)" style="fill: none; stroke: #cccccc; stroke-width: 0.8; stroke-linecap: round"/>
     </g>
     <g id="text_12">
      <!-- 880 -->
      <g style="fill: #262626" transform="translate(252.721755 537.54543)rotate(-45)scale(0.088 -0.088)">
       <use xlink:href="#DejaVuSans-38"/>
       <use xlink:href="#DejaVuSans-38" x="63.623047"/>
       <use xlink:href="#DejaVuSans-30" x="127.246094"/>
      </g>
     </g>
    </g>
    <g id="xtick_13">
     <g id="line2d_13">
      <path d="M 273.969956 512.64 
L 273.969956 69.12 
" clip-path="url(#p02568bdc9f)" style="fill: none; stroke: #cccccc; stroke-width: 0.8; stroke-linecap: round"/>
     </g>
     <g id="text_13">
      <!-- 960 -->
      <g style="fill: #262626" transform="translate(269.748352 537.54543)rotate(-45)scale(0.088 -0.088)">
       <defs>
        <path id="DejaVuSans-39" d="M 703 97 
L 703 672 
Q 941 559 1184 500 
Q 1428 441 1663 441 
Q 2288 441 2617 861 
Q 2947 1281 2994 2138 
Q 2813 1869 2534 1725 
Q 2256 1581 1919 1581 
Q 1219 1581 811 2004 
Q 403 2428 403 3163 
Q 403 3881 828 4315 
Q 1253 4750 1959 4750 
Q 2769 4750 3195 4129 
Q 3622 3509 3622 2328 
Q 3622 1225 3098 567 
Q 2575 -91 1691 -91 
Q 1453 -91 1209 -44 
Q 966 3 703 97 
z
M 1959 2075 
Q 2384 2075 2632 2365 
Q 2881 2656 2881 3163 
Q 2881 3666 2632 3958 
Q 2384 4250 1959 4250 
Q 1534 4250 1286 3958 
Q 1038 3666 1038 3163 
Q 1038 2656 1286 2365 
Q 1534 2075 1959 2075 
z
" transform="scale(0.015625)"/>
       </defs>
       <use xlink:href="#DejaVuSans-39"/>
       <use xlink:href="#DejaVuSans-36" x="63.623047"/>
       <use xlink:href="#DejaVuSans-30" x="127.246094"/>
      </g>
     </g>
    </g>
    <g id="xtick_14">
     <g id="line2d_14">
      <path d="M 290.996553 512.64 
L 290.996553 69.12 
" clip-path="url(#p02568bdc9f)" style="fill: none; stroke: #cccccc; stroke-width: 0.8; stroke-linecap: round"/>
     </g>
     <g id="text_14">
      <!-- 1040 -->
      <g style="fill: #262626" transform="translate(284.795404 541.504521)rotate(-45)scale(0.088 -0.088)">
       <use xlink:href="#DejaVuSans-31"/>
       <use xlink:href="#DejaVuSans-30" x="63.623047"/>
       <use xlink:href="#DejaVuSans-34" x="127.246094"/>
       <use xlink:href="#DejaVuSans-30" x="190.869141"/>
      </g>
     </g>
    </g>
    <g id="xtick_15">
     <g id="line2d_15">
      <path d="M 308.02315 512.64 
L 308.02315 69.12 
" clip-path="url(#p02568bdc9f)" style="fill: none; stroke: #cccccc; stroke-width: 0.8; stroke-linecap: round"/>
     </g>
     <g id="text_15">
      <!-- 1120 -->
      <g style="fill: #262626" transform="translate(301.822 541.504521)rotate(-45)scale(0.088 -0.088)">
       <use xlink:href="#DejaVuSans-31"/>
       <use xlink:href="#DejaVuSans-31" x="63.623047"/>
       <use xlink:href="#DejaVuSans-32" x="127.246094"/>
       <use xlink:href="#DejaVuSans-30" x="190.869141"/>
      </g>
     </g>
    </g>
    <g id="xtick_16">
     <g id="line2d_16">
      <path d="M 325.049747 512.64 
L 325.049747 69.12 
" clip-path="url(#p02568bdc9f)" style="fill: none; stroke: #cccccc; stroke-width: 0.8; stroke-linecap: round"/>
     </g>
     <g id="text_16">
      <!-- 1200 -->
      <g style="fill: #262626" transform="translate(318.848597 541.504521)rotate(-45)scale(0.088 -0.088)">
       <use xlink:href="#DejaVuSans-31"/>
       <use xlink:href="#DejaVuSans-32" x="63.623047"/>
       <use xlink:href="#DejaVuSans-30" x="127.246094"/>
       <use xlink:href="#DejaVuSans-30" x="190.869141"/>
      </g>
     </g>
    </g>
    <g id="xtick_17">
     <g id="line2d_17">
      <path d="M 342.076343 512.64 
L 342.076343 69.12 
" clip-path="url(#p02568bdc9f)" style="fill: none; stroke: #cccccc; stroke-width: 0.8; stroke-linecap: round"/>
     </g>
     <g id="text_17">
      <!-- 1280 -->
      <g style="fill: #262626" transform="translate(335.875194 541.504521)rotate(-45)scale(0.088 -0.088)">
       <use xlink:href="#DejaVuSans-31"/>
       <use xlink:href="#DejaVuSans-32" x="63.623047"/>
       <use xlink:href="#DejaVuSans-38" x="127.246094"/>
       <use xlink:href="#DejaVuSans-30" x="190.869141"/>
      </g>
     </g>
    </g>
    <g id="xtick_18">
     <g id="line2d_18">
      <path d="M 359.10294 512.64 
L 359.10294 69.12 
" clip-path="url(#p02568bdc9f)" style="fill: none; stroke: #cccccc; stroke-width: 0.8; stroke-linecap: round"/>
     </g>
     <g id="text_18">
      <!-- 1360 -->
      <g style="fill: #262626" transform="translate(352.901791 541.504521)rotate(-45)scale(0.088 -0.088)">
       <use xlink:href="#DejaVuSans-31"/>
       <use xlink:href="#DejaVuSans-33" x="63.623047"/>
       <use xlink:href="#DejaVuSans-36" x="127.246094"/>
       <use xlink:href="#DejaVuSans-30" x="190.869141"/>
      </g>
     </g>
    </g>
    <g id="xtick_19">
     <g id="line2d_19">
      <path d="M 376.129537 512.64 
L 376.129537 69.12 
" clip-path="url(#p02568bdc9f)" style="fill: none; stroke: #cccccc; stroke-width: 0.8; stroke-linecap: round"/>
     </g>
     <g id="text_19">
      <!-- 1440 -->
      <g style="fill: #262626" transform="translate(369.928387 541.504521)rotate(-45)scale(0.088 -0.088)">
       <use xlink:href="#DejaVuSans-31"/>
       <use xlink:href="#DejaVuSans-34" x="63.623047"/>
       <use xlink:href="#DejaVuSans-34" x="127.246094"/>
       <use xlink:href="#DejaVuSans-30" x="190.869141"/>
      </g>
     </g>
    </g>
    <g id="text_20">
     <!-- Time (Minutes) -->
     <g style="fill: #262626" transform="translate(186.87375 554.093115)scale(0.096 -0.096)">
      <defs>
       <path id="DejaVuSans-54" d="M -19 4666 
L 3928 4666 
L 3928 4134 
L 2272 4134 
L 2272 0 
L 1638 0 
L 1638 4134 
L -19 4134 
L -19 4666 
z
" transform="scale(0.015625)"/>
       <path id="DejaVuSans-69" d="M 603 3500 
L 1178 3500 
L 1178 0 
L 603 0 
L 603 3500 
z
M 603 4863 
L 1178 4863 
L 1178 4134 
L 603 4134 
L 603 4863 
z
" transform="scale(0.015625)"/>
       <path id="DejaVuSans-6d" d="M 3328 2828 
Q 3544 3216 3844 3400 
Q 4144 3584 4550 3584 
Q 5097 3584 5394 3201 
Q 5691 2819 5691 2113 
L 5691 0 
L 5113 0 
L 5113 2094 
Q 5113 2597 4934 2840 
Q 4756 3084 4391 3084 
Q 3944 3084 3684 2787 
Q 3425 2491 3425 1978 
L 3425 0 
L 2847 0 
L 2847 2094 
Q 2847 2600 2669 2842 
Q 2491 3084 2119 3084 
Q 1678 3084 1418 2786 
Q 1159 2488 1159 1978 
L 1159 0 
L 581 0 
L 581 3500 
L 1159 3500 
L 1159 2956 
Q 1356 3278 1631 3431 
Q 1906 3584 2284 3584 
Q 2666 3584 2933 3390 
Q 3200 3197 3328 2828 
z
" transform="scale(0.015625)"/>
       <path id="DejaVuSans-65" d="M 3597 1894 
L 3597 1613 
L 953 1613 
Q 991 1019 1311 708 
Q 1631 397 2203 397 
Q 2534 397 2845 478 
Q 3156 559 3463 722 
L 3463 178 
Q 3153 47 2828 -22 
Q 2503 -91 2169 -91 
Q 1331 -91 842 396 
Q 353 884 353 1716 
Q 353 2575 817 3079 
Q 1281 3584 2069 3584 
Q 2775 3584 3186 3129 
Q 3597 2675 3597 1894 
z
M 3022 2063 
Q 3016 2534 2758 2815 
Q 2500 3097 2075 3097 
Q 1594 3097 1305 2825 
Q 1016 2553 972 2059 
L 3022 2063 
z
" transform="scale(0.015625)"/>
       <path id="DejaVuSans-20" transform="scale(0.015625)"/>
       <path id="DejaVuSans-28" d="M 1984 4856 
Q 1566 4138 1362 3434 
Q 1159 2731 1159 2009 
Q 1159 1288 1364 580 
Q 1569 -128 1984 -844 
L 1484 -844 
Q 1016 -109 783 600 
Q 550 1309 550 2009 
Q 550 2706 781 3412 
Q 1013 4119 1484 4856 
L 1984 4856 
z
" transform="scale(0.015625)"/>
       <path id="DejaVuSans-4d" d="M 628 4666 
L 1569 4666 
L 2759 1491 
L 3956 4666 
L 4897 4666 
L 4897 0 
L 4281 0 
L 4281 4097 
L 3078 897 
L 2444 897 
L 1241 4097 
L 1241 0 
L 628 0 
L 628 4666 
z
" transform="scale(0.015625)"/>
       <path id="DejaVuSans-6e" d="M 3513 2113 
L 3513 0 
L 2938 0 
L 2938 2094 
Q 2938 2591 2744 2837 
Q 2550 3084 2163 3084 
Q 1697 3084 1428 2787 
Q 1159 2491 1159 1978 
L 1159 0 
L 581 0 
L 581 3500 
L 1159 3500 
L 1159 2956 
Q 1366 3272 1645 3428 
Q 1925 3584 2291 3584 
Q 2894 3584 3203 3211 
Q 3513 2838 3513 2113 
z
" transform="scale(0.015625)"/>
       <path id="DejaVuSans-75" d="M 544 1381 
L 544 3500 
L 1119 3500 
L 1119 1403 
Q 1119 906 1312 657 
Q 1506 409 1894 409 
Q 2359 409 2629 706 
Q 2900 1003 2900 1516 
L 2900 3500 
L 3475 3500 
L 3475 0 
L 2900 0 
L 2900 538 
Q 2691 219 2414 64 
Q 2138 -91 1772 -91 
Q 1169 -91 856 284 
Q 544 659 544 1381 
z
M 1991 3584 
L 1991 3584 
z
" transform="scale(0.015625)"/>
       <path id="DejaVuSans-74" d="M 1172 4494 
L 1172 3500 
L 2356 3500 
L 2356 3053 
L 1172 3053 
L 1172 1153 
Q 1172 725 1289 603 
Q 1406 481 1766 481 
L 2356 481 
L 2356 0 
L 1766 0 
Q 1100 0 847 248 
Q 594 497 594 1153 
L 594 3053 
L 172 3053 
L 172 3500 
L 594 3500 
L 594 4494 
L 1172 4494 
z
" transform="scale(0.015625)"/>
       <path id="DejaVuSans-73" d="M 2834 3397 
L 2834 2853 
Q 2591 2978 2328 3040 
Q 2066 3103 1784 3103 
Q 1356 3103 1142 2972 
Q 928 2841 928 2578 
Q 928 2378 1081 2264 
Q 1234 2150 1697 2047 
L 1894 2003 
Q 2506 1872 2764 1633 
Q 3022 1394 3022 966 
Q 3022 478 2636 193 
Q 2250 -91 1575 -91 
Q 1294 -91 989 -36 
Q 684 19 347 128 
L 347 722 
Q 666 556 975 473 
Q 1284 391 1588 391 
Q 1994 391 2212 530 
Q 2431 669 2431 922 
Q 2431 1156 2273 1281 
Q 2116 1406 1581 1522 
L 1381 1569 
Q 847 1681 609 1914 
Q 372 2147 372 2553 
Q 372 3047 722 3315 
Q 1072 3584 1716 3584 
Q 2034 3584 2315 3537 
Q 2597 3491 2834 3397 
z
" transform="scale(0.015625)"/>
       <path id="DejaVuSans-29" d="M 513 4856 
L 1013 4856 
Q 1481 4119 1714 3412 
Q 1947 2706 1947 2009 
Q 1947 1309 1714 600 
Q 1481 -109 1013 -844 
L 513 -844 
Q 928 -128 1133 580 
Q 1338 1288 1338 2009 
Q 1338 2731 1133 3434 
Q 928 4138 513 4856 
z
" transform="scale(0.015625)"/>
      </defs>
      <use xlink:href="#DejaVuSans-54"/>
      <use xlink:href="#DejaVuSans-69" x="57.958984"/>
      <use xlink:href="#DejaVuSans-6d" x="85.742188"/>
      <use xlink:href="#DejaVuSans-65" x="183.154297"/>
      <use xlink:href="#DejaVuSans-20" x="244.677734"/>
      <use xlink:href="#DejaVuSans-28" x="276.464844"/>
      <use xlink:href="#DejaVuSans-4d" x="315.478516"/>
      <use xlink:href="#DejaVuSans-69" x="401.757812"/>
      <use xlink:href="#DejaVuSans-6e" x="429.541016"/>
      <use xlink:href="#DejaVuSans-75" x="492.919922"/>
      <use xlink:href="#DejaVuSans-74" x="556.298828"/>
      <use xlink:href="#DejaVuSans-65" x="595.507812"/>
      <use xlink:href="#DejaVuSans-73" x="657.03125"/>
      <use xlink:href="#DejaVuSans-29" x="709.130859"/>
     </g>
    </g>
   </g>
   <g id="matplotlib.axis_2">
    <g id="ytick_1">
     <g id="line2d_20">
      <path d="M 54.3375 492.48 
L 391.23 492.48 
" clip-path="url(#p02568bdc9f)" style="fill: none; stroke: #cccccc; stroke-width: 0.8; stroke-linecap: round"/>
     </g>
     <g id="text_21">
      <!-- 0 -->
      <g style="fill: #262626" transform="translate(40.4385 495.823312)scale(0.088 -0.088)">
       <use xlink:href="#DejaVuSans-30"/>
      </g>
     </g>
    </g>
    <g id="ytick_2">
     <g id="line2d_21">
      <path d="M 54.3375 477.27638 
L 391.23 477.27638 
" clip-path="url(#p02568bdc9f)" style="fill: none; stroke: #cccccc; stroke-width: 0.8; stroke-linecap: round"/>
     </g>
     <g id="text_22">
      <!-- 100 -->
      <g style="fill: #262626" transform="translate(29.2405 480.619693)scale(0.088 -0.088)">
       <use xlink:href="#DejaVuSans-31"/>
       <use xlink:href="#DejaVuSans-30" x="63.623047"/>
       <use xlink:href="#DejaVuSans-30" x="127.246094"/>
      </g>
     </g>
    </g>
    <g id="ytick_3">
     <g id="line2d_22">
      <path d="M 54.3375 462.07276 
L 391.23 462.07276 
" clip-path="url(#p02568bdc9f)" style="fill: none; stroke: #cccccc; stroke-width: 0.8; stroke-linecap: round"/>
     </g>
     <g id="text_23">
      <!-- 200 -->
      <g style="fill: #262626" transform="translate(29.2405 465.416073)scale(0.088 -0.088)">
       <use xlink:href="#DejaVuSans-32"/>
       <use xlink:href="#DejaVuSans-30" x="63.623047"/>
       <use xlink:href="#DejaVuSans-30" x="127.246094"/>
      </g>
     </g>
    </g>
    <g id="ytick_4">
     <g id="line2d_23">
      <path d="M 54.3375 446.86914 
L 391.23 446.86914 
" clip-path="url(#p02568bdc9f)" style="fill: none; stroke: #cccccc; stroke-width: 0.8; stroke-linecap: round"/>
     </g>
     <g id="text_24">
      <!-- 300 -->
      <g style="fill: #262626" transform="translate(29.2405 450.212453)scale(0.088 -0.088)">
       <use xlink:href="#DejaVuSans-33"/>
       <use xlink:href="#DejaVuSans-30" x="63.623047"/>
       <use xlink:href="#DejaVuSans-30" x="127.246094"/>
      </g>
     </g>
    </g>
    <g id="ytick_5">
     <g id="line2d_24">
      <path d="M 54.3375 431.66552 
L 391.23 431.66552 
" clip-path="url(#p02568bdc9f)" style="fill: none; stroke: #cccccc; stroke-width: 0.8; stroke-linecap: round"/>
     </g>
     <g id="text_25">
      <!-- 400 -->
      <g style="fill: #262626" transform="translate(29.2405 435.008833)scale(0.088 -0.088)">
       <use xlink:href="#DejaVuSans-34"/>
       <use xlink:href="#DejaVuSans-30" x="63.623047"/>
       <use xlink:href="#DejaVuSans-30" x="127.246094"/>
      </g>
     </g>
    </g>
    <g id="ytick_6">
     <g id="line2d_25">
      <path d="M 54.3375 416.4619 
L 391.23 416.4619 
" clip-path="url(#p02568bdc9f)" style="fill: none; stroke: #cccccc; stroke-width: 0.8; stroke-linecap: round"/>
     </g>
     <g id="text_26">
      <!-- 500 -->
      <g style="fill: #262626" transform="translate(29.2405 419.805213)scale(0.088 -0.088)">
       <use xlink:href="#DejaVuSans-35"/>
       <use xlink:href="#DejaVuSans-30" x="63.623047"/>
       <use xlink:href="#DejaVuSans-30" x="127.246094"/>
      </g>
     </g>
    </g>
    <g id="ytick_7">
     <g id="line2d_26">
      <path d="M 54.3375 401.258281 
L 391.23 401.258281 
" clip-path="url(#p02568bdc9f)" style="fill: none; stroke: #cccccc; stroke-width: 0.8; stroke-linecap: round"/>
     </g>
     <g id="text_27">
      <!-- 600 -->
      <g style="fill: #262626" transform="translate(29.2405 404.601593)scale(0.088 -0.088)">
       <use xlink:href="#DejaVuSans-36"/>
       <use xlink:href="#DejaVuSans-30" x="63.623047"/>
       <use xlink:href="#DejaVuSans-30" x="127.246094"/>
      </g>
     </g>
    </g>
    <g id="ytick_8">
     <g id="line2d_27">
      <path d="M 54.3375 386.054661 
L 391.23 386.054661 
" clip-path="url(#p02568bdc9f)" style="fill: none; stroke: #cccccc; stroke-width: 0.8; stroke-linecap: round"/>
     </g>
     <g id="text_28">
      <!-- 700 -->
      <g style="fill: #262626" transform="translate(29.2405 389.397973)scale(0.088 -0.088)">
       <use xlink:href="#DejaVuSans-37"/>
       <use xlink:href="#DejaVuSans-30" x="63.623047"/>
       <use xlink:href="#DejaVuSans-30" x="127.246094"/>
      </g>
     </g>
    </g>
    <g id="ytick_9">
     <g id="line2d_28">
      <path d="M 54.3375 370.851041 
L 391.23 370.851041 
" clip-path="url(#p02568bdc9f)" style="fill: none; stroke: #cccccc; stroke-width: 0.8; stroke-linecap: round"/>
     </g>
     <g id="text_29">
      <!-- 800 -->
      <g style="fill: #262626" transform="translate(29.2405 374.194353)scale(0.088 -0.088)">
       <use xlink:href="#DejaVuSans-38"/>
       <use xlink:href="#DejaVuSans-30" x="63.623047"/>
       <use xlink:href="#DejaVuSans-30" x="127.246094"/>
      </g>
     </g>
    </g>
    <g id="ytick_10">
     <g id="line2d_29">
      <path d="M 54.3375 355.647421 
L 391.23 355.647421 
" clip-path="url(#p02568bdc9f)" style="fill: none; stroke: #cccccc; stroke-width: 0.8; stroke-linecap: round"/>
     </g>
     <g id="text_30">
      <!-- 900 -->
      <g style="fill: #262626" transform="translate(29.2405 358.990733)scale(0.088 -0.088)">
       <use xlink:href="#DejaVuSans-39"/>
       <use xlink:href="#DejaVuSans-30" x="63.623047"/>
       <use xlink:href="#DejaVuSans-30" x="127.246094"/>
      </g>
     </g>
    </g>
    <g id="ytick_11">
     <g id="line2d_30">
      <path d="M 54.3375 340.443801 
L 391.23 340.443801 
" clip-path="url(#p02568bdc9f)" style="fill: none; stroke: #cccccc; stroke-width: 0.8; stroke-linecap: round"/>
     </g>
     <g id="text_31">
      <!-- 1000 -->
      <g style="fill: #262626" transform="translate(23.6415 343.787113)scale(0.088 -0.088)">
       <use xlink:href="#DejaVuSans-31"/>
       <use xlink:href="#DejaVuSans-30" x="63.623047"/>
       <use xlink:href="#DejaVuSans-30" x="127.246094"/>
       <use xlink:href="#DejaVuSans-30" x="190.869141"/>
      </g>
     </g>
    </g>
    <g id="ytick_12">
     <g id="line2d_31">
      <path d="M 54.3375 325.240181 
L 391.23 325.240181 
" clip-path="url(#p02568bdc9f)" style="fill: none; stroke: #cccccc; stroke-width: 0.8; stroke-linecap: round"/>
     </g>
     <g id="text_32">
      <!-- 1100 -->
      <g style="fill: #262626" transform="translate(23.6415 328.583493)scale(0.088 -0.088)">
       <use xlink:href="#DejaVuSans-31"/>
       <use xlink:href="#DejaVuSans-31" x="63.623047"/>
       <use xlink:href="#DejaVuSans-30" x="127.246094"/>
       <use xlink:href="#DejaVuSans-30" x="190.869141"/>
      </g>
     </g>
    </g>
    <g id="ytick_13">
     <g id="line2d_32">
      <path d="M 54.3375 310.036561 
L 391.23 310.036561 
" clip-path="url(#p02568bdc9f)" style="fill: none; stroke: #cccccc; stroke-width: 0.8; stroke-linecap: round"/>
     </g>
     <g id="text_33">
      <!-- 1200 -->
      <g style="fill: #262626" transform="translate(23.6415 313.379874)scale(0.088 -0.088)">
       <use xlink:href="#DejaVuSans-31"/>
       <use xlink:href="#DejaVuSans-32" x="63.623047"/>
       <use xlink:href="#DejaVuSans-30" x="127.246094"/>
       <use xlink:href="#DejaVuSans-30" x="190.869141"/>
      </g>
     </g>
    </g>
    <g id="ytick_14">
     <g id="line2d_33">
      <path d="M 54.3375 294.832941 
L 391.23 294.832941 
" clip-path="url(#p02568bdc9f)" style="fill: none; stroke: #cccccc; stroke-width: 0.8; stroke-linecap: round"/>
     </g>
     <g id="text_34">
      <!-- 1300 -->
      <g style="fill: #262626" transform="translate(23.6415 298.176254)scale(0.088 -0.088)">
       <use xlink:href="#DejaVuSans-31"/>
       <use xlink:href="#DejaVuSans-33" x="63.623047"/>
       <use xlink:href="#DejaVuSans-30" x="127.246094"/>
       <use xlink:href="#DejaVuSans-30" x="190.869141"/>
      </g>
     </g>
    </g>
    <g id="ytick_15">
     <g id="line2d_34">
      <path d="M 54.3375 279.629321 
L 391.23 279.629321 
" clip-path="url(#p02568bdc9f)" style="fill: none; stroke: #cccccc; stroke-width: 0.8; stroke-linecap: round"/>
     </g>
     <g id="text_35">
      <!-- 1400 -->
      <g style="fill: #262626" transform="translate(23.6415 282.972634)scale(0.088 -0.088)">
       <use xlink:href="#DejaVuSans-31"/>
       <use xlink:href="#DejaVuSans-34" x="63.623047"/>
       <use xlink:href="#DejaVuSans-30" x="127.246094"/>
       <use xlink:href="#DejaVuSans-30" x="190.869141"/>
      </g>
     </g>
    </g>
    <g id="ytick_16">
     <g id="line2d_35">
      <path d="M 54.3375 264.425701 
L 391.23 264.425701 
" clip-path="url(#p02568bdc9f)" style="fill: none; stroke: #cccccc; stroke-width: 0.8; stroke-linecap: round"/>
     </g>
     <g id="text_36">
      <!-- 1500 -->
      <g style="fill: #262626" transform="translate(23.6415 267.769014)scale(0.088 -0.088)">
       <use xlink:href="#DejaVuSans-31"/>
       <use xlink:href="#DejaVuSans-35" x="63.623047"/>
       <use xlink:href="#DejaVuSans-30" x="127.246094"/>
       <use xlink:href="#DejaVuSans-30" x="190.869141"/>
      </g>
     </g>
    </g>
    <g id="ytick_17">
     <g id="line2d_36">
      <path d="M 54.3375 249.222081 
L 391.23 249.222081 
" clip-path="url(#p02568bdc9f)" style="fill: none; stroke: #cccccc; stroke-width: 0.8; stroke-linecap: round"/>
     </g>
     <g id="text_37">
      <!-- 1600 -->
      <g style="fill: #262626" transform="translate(23.6415 252.565394)scale(0.088 -0.088)">
       <use xlink:href="#DejaVuSans-31"/>
       <use xlink:href="#DejaVuSans-36" x="63.623047"/>
       <use xlink:href="#DejaVuSans-30" x="127.246094"/>
       <use xlink:href="#DejaVuSans-30" x="190.869141"/>
      </g>
     </g>
    </g>
    <g id="ytick_18">
     <g id="line2d_37">
      <path d="M 54.3375 234.018462 
L 391.23 234.018462 
" clip-path="url(#p02568bdc9f)" style="fill: none; stroke: #cccccc; stroke-width: 0.8; stroke-linecap: round"/>
     </g>
     <g id="text_38">
      <!-- 1700 -->
      <g style="fill: #262626" transform="translate(23.6415 237.361774)scale(0.088 -0.088)">
       <use xlink:href="#DejaVuSans-31"/>
       <use xlink:href="#DejaVuSans-37" x="63.623047"/>
       <use xlink:href="#DejaVuSans-30" x="127.246094"/>
       <use xlink:href="#DejaVuSans-30" x="190.869141"/>
      </g>
     </g>
    </g>
    <g id="ytick_19">
     <g id="line2d_38">
      <path d="M 54.3375 218.814842 
L 391.23 218.814842 
" clip-path="url(#p02568bdc9f)" style="fill: none; stroke: #cccccc; stroke-width: 0.8; stroke-linecap: round"/>
     </g>
     <g id="text_39">
      <!-- 1800 -->
      <g style="fill: #262626" transform="translate(23.6415 222.158154)scale(0.088 -0.088)">
       <use xlink:href="#DejaVuSans-31"/>
       <use xlink:href="#DejaVuSans-38" x="63.623047"/>
       <use xlink:href="#DejaVuSans-30" x="127.246094"/>
       <use xlink:href="#DejaVuSans-30" x="190.869141"/>
      </g>
     </g>
    </g>
    <g id="ytick_20">
     <g id="line2d_39">
      <path d="M 54.3375 203.611222 
L 391.23 203.611222 
" clip-path="url(#p02568bdc9f)" style="fill: none; stroke: #cccccc; stroke-width: 0.8; stroke-linecap: round"/>
     </g>
     <g id="text_40">
      <!-- 1900 -->
      <g style="fill: #262626" transform="translate(23.6415 206.954534)scale(0.088 -0.088)">
       <use xlink:href="#DejaVuSans-31"/>
       <use xlink:href="#DejaVuSans-39" x="63.623047"/>
       <use xlink:href="#DejaVuSans-30" x="127.246094"/>
       <use xlink:href="#DejaVuSans-30" x="190.869141"/>
      </g>
     </g>
    </g>
    <g id="ytick_21">
     <g id="line2d_40">
      <path d="M 54.3375 188.407602 
L 391.23 188.407602 
" clip-path="url(#p02568bdc9f)" style="fill: none; stroke: #cccccc; stroke-width: 0.8; stroke-linecap: round"/>
     </g>
     <g id="text_41">
      <!-- 2000 -->
      <g style="fill: #262626" transform="translate(23.6415 191.750914)scale(0.088 -0.088)">
       <use xlink:href="#DejaVuSans-32"/>
       <use xlink:href="#DejaVuSans-30" x="63.623047"/>
       <use xlink:href="#DejaVuSans-30" x="127.246094"/>
       <use xlink:href="#DejaVuSans-30" x="190.869141"/>
      </g>
     </g>
    </g>
    <g id="ytick_22">
     <g id="line2d_41">
      <path d="M 54.3375 173.203982 
L 391.23 173.203982 
" clip-path="url(#p02568bdc9f)" style="fill: none; stroke: #cccccc; stroke-width: 0.8; stroke-linecap: round"/>
     </g>
     <g id="text_42">
      <!-- 2100 -->
      <g style="fill: #262626" transform="translate(23.6415 176.547294)scale(0.088 -0.088)">
       <use xlink:href="#DejaVuSans-32"/>
       <use xlink:href="#DejaVuSans-31" x="63.623047"/>
       <use xlink:href="#DejaVuSans-30" x="127.246094"/>
       <use xlink:href="#DejaVuSans-30" x="190.869141"/>
      </g>
     </g>
    </g>
    <g id="ytick_23">
     <g id="line2d_42">
      <path d="M 54.3375 158.000362 
L 391.23 158.000362 
" clip-path="url(#p02568bdc9f)" style="fill: none; stroke: #cccccc; stroke-width: 0.8; stroke-linecap: round"/>
     </g>
     <g id="text_43">
      <!-- 2200 -->
      <g style="fill: #262626" transform="translate(23.6415 161.343674)scale(0.088 -0.088)">
       <use xlink:href="#DejaVuSans-32"/>
       <use xlink:href="#DejaVuSans-32" x="63.623047"/>
       <use xlink:href="#DejaVuSans-30" x="127.246094"/>
       <use xlink:href="#DejaVuSans-30" x="190.869141"/>
      </g>
     </g>
    </g>
    <g id="ytick_24">
     <g id="line2d_43">
      <path d="M 54.3375 142.796742 
L 391.23 142.796742 
" clip-path="url(#p02568bdc9f)" style="fill: none; stroke: #cccccc; stroke-width: 0.8; stroke-linecap: round"/>
     </g>
     <g id="text_44">
      <!-- 2300 -->
      <g style="fill: #262626" transform="translate(23.6415 146.140055)scale(0.088 -0.088)">
       <use xlink:href="#DejaVuSans-32"/>
       <use xlink:href="#DejaVuSans-33" x="63.623047"/>
       <use xlink:href="#DejaVuSans-30" x="127.246094"/>
       <use xlink:href="#DejaVuSans-30" x="190.869141"/>
      </g>
     </g>
    </g>
    <g id="ytick_25">
     <g id="line2d_44">
      <path d="M 54.3375 127.593122 
L 391.23 127.593122 
" clip-path="url(#p02568bdc9f)" style="fill: none; stroke: #cccccc; stroke-width: 0.8; stroke-linecap: round"/>
     </g>
     <g id="text_45">
      <!-- 2400 -->
      <g style="fill: #262626" transform="translate(23.6415 130.936435)scale(0.088 -0.088)">
       <use xlink:href="#DejaVuSans-32"/>
       <use xlink:href="#DejaVuSans-34" x="63.623047"/>
       <use xlink:href="#DejaVuSans-30" x="127.246094"/>
       <use xlink:href="#DejaVuSans-30" x="190.869141"/>
      </g>
     </g>
    </g>
    <g id="ytick_26">
     <g id="line2d_45">
      <path d="M 54.3375 112.389502 
L 391.23 112.389502 
" clip-path="url(#p02568bdc9f)" style="fill: none; stroke: #cccccc; stroke-width: 0.8; stroke-linecap: round"/>
     </g>
     <g id="text_46">
      <!-- 2500 -->
      <g style="fill: #262626" transform="translate(23.6415 115.732815)scale(0.088 -0.088)">
       <use xlink:href="#DejaVuSans-32"/>
       <use xlink:href="#DejaVuSans-35" x="63.623047"/>
       <use xlink:href="#DejaVuSans-30" x="127.246094"/>
       <use xlink:href="#DejaVuSans-30" x="190.869141"/>
      </g>
     </g>
    </g>
    <g id="ytick_27">
     <g id="line2d_46">
      <path d="M 54.3375 97.185882 
L 391.23 97.185882 
" clip-path="url(#p02568bdc9f)" style="fill: none; stroke: #cccccc; stroke-width: 0.8; stroke-linecap: round"/>
     </g>
     <g id="text_47">
      <!-- 2600 -->
      <g style="fill: #262626" transform="translate(23.6415 100.529195)scale(0.088 -0.088)">
       <use xlink:href="#DejaVuSans-32"/>
       <use xlink:href="#DejaVuSans-36" x="63.623047"/>
       <use xlink:href="#DejaVuSans-30" x="127.246094"/>
       <use xlink:href="#DejaVuSans-30" x="190.869141"/>
      </g>
     </g>
    </g>
    <g id="text_48">
     <!-- Edge Coverages -->
     <g style="fill: #262626" transform="translate(17.645 329.98575)rotate(-90)scale(0.096 -0.096)">
      <defs>
       <path id="DejaVuSans-45" d="M 628 4666 
L 3578 4666 
L 3578 4134 
L 1259 4134 
L 1259 2753 
L 3481 2753 
L 3481 2222 
L 1259 2222 
L 1259 531 
L 3634 531 
L 3634 0 
L 628 0 
L 628 4666 
z
" transform="scale(0.015625)"/>
       <path id="DejaVuSans-64" d="M 2906 2969 
L 2906 4863 
L 3481 4863 
L 3481 0 
L 2906 0 
L 2906 525 
Q 2725 213 2448 61 
Q 2172 -91 1784 -91 
Q 1150 -91 751 415 
Q 353 922 353 1747 
Q 353 2572 751 3078 
Q 1150 3584 1784 3584 
Q 2172 3584 2448 3432 
Q 2725 3281 2906 2969 
z
M 947 1747 
Q 947 1113 1208 752 
Q 1469 391 1925 391 
Q 2381 391 2643 752 
Q 2906 1113 2906 1747 
Q 2906 2381 2643 2742 
Q 2381 3103 1925 3103 
Q 1469 3103 1208 2742 
Q 947 2381 947 1747 
z
" transform="scale(0.015625)"/>
       <path id="DejaVuSans-67" d="M 2906 1791 
Q 2906 2416 2648 2759 
Q 2391 3103 1925 3103 
Q 1463 3103 1205 2759 
Q 947 2416 947 1791 
Q 947 1169 1205 825 
Q 1463 481 1925 481 
Q 2391 481 2648 825 
Q 2906 1169 2906 1791 
z
M 3481 434 
Q 3481 -459 3084 -895 
Q 2688 -1331 1869 -1331 
Q 1566 -1331 1297 -1286 
Q 1028 -1241 775 -1147 
L 775 -588 
Q 1028 -725 1275 -790 
Q 1522 -856 1778 -856 
Q 2344 -856 2625 -561 
Q 2906 -266 2906 331 
L 2906 616 
Q 2728 306 2450 153 
Q 2172 0 1784 0 
Q 1141 0 747 490 
Q 353 981 353 1791 
Q 353 2603 747 3093 
Q 1141 3584 1784 3584 
Q 2172 3584 2450 3431 
Q 2728 3278 2906 2969 
L 2906 3500 
L 3481 3500 
L 3481 434 
z
" transform="scale(0.015625)"/>
       <path id="DejaVuSans-43" d="M 4122 4306 
L 4122 3641 
Q 3803 3938 3442 4084 
Q 3081 4231 2675 4231 
Q 1875 4231 1450 3742 
Q 1025 3253 1025 2328 
Q 1025 1406 1450 917 
Q 1875 428 2675 428 
Q 3081 428 3442 575 
Q 3803 722 4122 1019 
L 4122 359 
Q 3791 134 3420 21 
Q 3050 -91 2638 -91 
Q 1578 -91 968 557 
Q 359 1206 359 2328 
Q 359 3453 968 4101 
Q 1578 4750 2638 4750 
Q 3056 4750 3426 4639 
Q 3797 4528 4122 4306 
z
" transform="scale(0.015625)"/>
       <path id="DejaVuSans-6f" d="M 1959 3097 
Q 1497 3097 1228 2736 
Q 959 2375 959 1747 
Q 959 1119 1226 758 
Q 1494 397 1959 397 
Q 2419 397 2687 759 
Q 2956 1122 2956 1747 
Q 2956 2369 2687 2733 
Q 2419 3097 1959 3097 
z
M 1959 3584 
Q 2709 3584 3137 3096 
Q 3566 2609 3566 1747 
Q 3566 888 3137 398 
Q 2709 -91 1959 -91 
Q 1206 -91 779 398 
Q 353 888 353 1747 
Q 353 2609 779 3096 
Q 1206 3584 1959 3584 
z
" transform="scale(0.015625)"/>
       <path id="DejaVuSans-76" d="M 191 3500 
L 800 3500 
L 1894 563 
L 2988 3500 
L 3597 3500 
L 2284 0 
L 1503 0 
L 191 3500 
z
" transform="scale(0.015625)"/>
       <path id="DejaVuSans-72" d="M 2631 2963 
Q 2534 3019 2420 3045 
Q 2306 3072 2169 3072 
Q 1681 3072 1420 2755 
Q 1159 2438 1159 1844 
L 1159 0 
L 581 0 
L 581 3500 
L 1159 3500 
L 1159 2956 
Q 1341 3275 1631 3429 
Q 1922 3584 2338 3584 
Q 2397 3584 2469 3576 
Q 2541 3569 2628 3553 
L 2631 2963 
z
" transform="scale(0.015625)"/>
       <path id="DejaVuSans-61" d="M 2194 1759 
Q 1497 1759 1228 1600 
Q 959 1441 959 1056 
Q 959 750 1161 570 
Q 1363 391 1709 391 
Q 2188 391 2477 730 
Q 2766 1069 2766 1631 
L 2766 1759 
L 2194 1759 
z
M 3341 1997 
L 3341 0 
L 2766 0 
L 2766 531 
Q 2569 213 2275 61 
Q 1981 -91 1556 -91 
Q 1019 -91 701 211 
Q 384 513 384 1019 
Q 384 1609 779 1909 
Q 1175 2209 1959 2209 
L 2766 2209 
L 2766 2266 
Q 2766 2663 2505 2880 
Q 2244 3097 1772 3097 
Q 1472 3097 1187 3025 
Q 903 2953 641 2809 
L 641 3341 
Q 956 3463 1253 3523 
Q 1550 3584 1831 3584 
Q 2591 3584 2966 3190 
Q 3341 2797 3341 1997 
z
" transform="scale(0.015625)"/>
      </defs>
      <use xlink:href="#DejaVuSans-45"/>
      <use xlink:href="#DejaVuSans-64" x="63.183594"/>
      <use xlink:href="#DejaVuSans-67" x="126.660156"/>
      <use xlink:href="#DejaVuSans-65" x="190.136719"/>
      <use xlink:href="#DejaVuSans-20" x="251.660156"/>
      <use xlink:href="#DejaVuSans-43" x="283.447266"/>
      <use xlink:href="#DejaVuSans-6f" x="353.271484"/>
      <use xlink:href="#DejaVuSans-76" x="414.453125"/>
      <use xlink:href="#DejaVuSans-65" x="473.632812"/>
      <use xlink:href="#DejaVuSans-72" x="535.15625"/>
      <use xlink:href="#DejaVuSans-61" x="576.269531"/>
      <use xlink:href="#DejaVuSans-67" x="637.548828"/>
      <use xlink:href="#DejaVuSans-65" x="701.025391"/>
      <use xlink:href="#DejaVuSans-73" x="762.548828"/>
     </g>
    </g>
   </g>
   <g id="PolyCollection_1">
    <defs>
     <path id="mb27c54eacb" d="M 69.650795 -100.548054 
L 69.650795 -83.52 
L 69.650795 -100.548054 
L 69.650795 -100.548054 
z
" style="stroke: #db5f57; stroke-opacity: 0.2; stroke-width: 0.8"/>
    </defs>
    <g clip-path="url(#p02568bdc9f)">
     <use xlink:href="#mb27c54eacb" x="0" y="576" style="fill: #db5f57; fill-opacity: 0.2; stroke: #db5f57; stroke-opacity: 0.2; stroke-width: 0.8"/>
    </g>
   </g>
   <g id="PolyCollection_2">
    <defs>
     <path id="macb1b04884" d="M 69.650795 -85.496471 
L 69.650795 -83.52 
L 69.650795 -85.496471 
L 69.650795 -85.496471 
z
" style="stroke: #b9db57; stroke-opacity: 0.2; stroke-width: 0.8"/>
    </defs>
    <g clip-path="url(#p02568bdc9f)">
     <use xlink:href="#macb1b04884" x="0" y="576" style="fill: #b9db57; fill-opacity: 0.2; stroke: #b9db57; stroke-opacity: 0.2; stroke-width: 0.8"/>
    </g>
   </g>
   <g id="PolyCollection_3">
    <defs>
     <path id="m2a07b1e451" d="M 69.650795 -95.682896 
L 69.650795 -83.52 
L 69.650795 -95.682896 
L 69.650795 -95.682896 
z
" style="stroke: #57db94; stroke-opacity: 0.2; stroke-width: 0.8"/>
    </defs>
    <g clip-path="url(#p02568bdc9f)">
     <use xlink:href="#m2a07b1e451" x="0" y="576" style="fill: #57db94; fill-opacity: 0.2; stroke: #57db94; stroke-opacity: 0.2; stroke-width: 0.8"/>
    </g>
   </g>
   <g id="PolyCollection_4">
    <defs>
     <path id="meb62e9c1ce" d="M 69.650795 -85.344434 
L 69.650795 -83.52 
L 69.650795 -85.344434 
L 69.650795 -85.344434 
z
" style="stroke: #5784db; stroke-opacity: 0.2; stroke-width: 0.8"/>
    </defs>
    <g clip-path="url(#p02568bdc9f)">
     <use xlink:href="#meb62e9c1ce" x="0" y="576" style="fill: #5784db; fill-opacity: 0.2; stroke: #5784db; stroke-opacity: 0.2; stroke-width: 0.8"/>
    </g>
   </g>
   <g id="PolyCollection_5">
    <defs>
     <path id="mcda64c895f" d="M 69.650795 -102.372489 
L 69.650795 -83.52 
L 69.650795 -102.372489 
L 69.650795 -102.372489 
z
" style="stroke: #c957db; stroke-opacity: 0.2; stroke-width: 0.8"/>
    </defs>
    <g clip-path="url(#p02568bdc9f)">
     <use xlink:href="#mcda64c895f" x="0" y="576" style="fill: #c957db; fill-opacity: 0.2; stroke: #c957db; stroke-opacity: 0.2; stroke-width: 0.8"/>
    </g>
   </g>
   <g id="line2d_47">
    <path d="M 69.650795 483.965973 
L 70.07646 445.348778 
L 70.502125 433.641991 
L 70.714958 429.537014 
L 71.353455 427.864615 
L 71.566288 427.712579 
L 71.77912 423.607602 
L 72.204785 419.502624 
L 72.417617 415.853756 
L 72.63045 414.637466 
L 72.843282 410.07638 
L 73.056115 408.708054 
L 73.48178 402.778643 
L 73.694612 400.041991 
L 73.907445 391.68 
L 74.120277 388.48724 
L 74.545942 371.459186 
L 74.758774 368.722534 
L 74.971607 355.343348 
L 75.184439 353.366878 
L 75.397272 352.910769 
L 75.610104 339.68362 
L 75.822937 338.315294 
L 76.035769 334.514389 
L 76.248602 318.854661 
L 76.461434 315.965973 
L 76.674267 315.357828 
L 76.887099 305.475475 
L 77.099932 305.171403 
L 77.312764 301.066425 
L 77.738429 282.213937 
L 77.951261 282.0619 
L 78.164094 268.834751 
L 78.376926 244.508959 
L 78.589759 243.748778 
L 78.802591 241.164163 
L 79.228256 226.112579 
L 79.441089 225.656471 
L 79.653921 222.767783 
L 79.866754 222.007602 
L 80.079586 210.756923 
L 80.292418 210.452851 
L 80.930916 203.003077 
L 81.143748 203.003077 
L 81.356581 202.09086 
L 81.569413 199.050136 
L 81.782246 198.746063 
L 81.995078 198.746063 
L 82.207911 198.137919 
L 82.420743 195.705339 
L 82.633575 194.641086 
L 82.846408 194.641086 
L 83.05924 194.032941 
L 83.697738 180.805792 
L 83.91057 180.653756 
L 84.123403 180.197647 
L 84.336235 180.197647 
L 84.7619 179.741538 
L 85.187565 177.765068 
L 85.400397 176.852851 
L 85.826062 176.852851 
L 86.251727 168.49086 
L 86.677392 168.49086 
L 86.890225 166.514389 
L 87.528722 163.625701 
L 88.167219 163.169593 
L 88.380052 161.953303 
L 88.592884 161.801267 
L 89.444214 155.719819 
L 89.657047 155.719819 
L 89.869879 155.567783 
L 90.082712 154.655566 
L 90.295544 154.351493 
L 90.721209 154.351493 
L 91.359706 153.135204 
L 91.785371 153.135204 
L 92.849534 151.614842 
L 93.062366 150.702624 
L 93.275198 150.702624 
L 93.913696 149.942443 
L 94.339361 148.422081 
L 94.552193 147.813937 
L 94.765026 147.813937 
L 94.977858 146.597647 
L 95.403523 145.533394 
L 96.04202 143.860995 
L 96.254853 143.860995 
L 96.467685 143.708959 
L 97.106183 143.708959 
L 97.319015 143.556923 
L 97.531848 141.580452 
L 97.74468 140.972308 
L 98.170345 140.668235 
L 98.383177 140.364163 
L 98.808842 140.364163 
L 99.021675 140.212127 
L 99.660172 140.212127 
L 99.873005 139.908054 
L 100.085837 139.908054 
L 100.511502 139.603982 
L 100.724335 139.603982 
L 100.937167 138.691765 
L 101.788497 137.475475 
L 102.001329 137.475475 
L 102.214162 137.323439 
L 102.852659 137.323439 
L 103.703989 136.715294 
L 104.342486 135.346968 
L 105.406649 135.346968 
L 105.619481 135.194932 
L 107.322141 135.194932 
L 107.534973 134.89086 
L 107.747806 134.89086 
L 107.960638 134.434751 
L 108.386303 134.130679 
L 109.0248 134.130679 
L 109.237633 133.978643 
L 109.450465 133.978643 
L 109.663298 133.67457 
L 112.855785 133.67457 
L 113.068617 133.218462 
L 113.919947 133.218462 
L 114.132779 133.066425 
L 114.345612 133.066425 
L 114.558444 132.610317 
L 116.261104 132.610317 
L 116.473937 132.458281 
L 116.686769 132.002172 
L 117.325266 132.002172 
L 117.538099 131.850136 
L 118.389429 131.850136 
L 118.602261 130.633846 
L 118.815094 130.633846 
L 119.027926 130.48181 
L 119.240758 130.48181 
L 119.453591 130.025701 
L 119.666423 129.26552 
L 120.092088 129.26552 
L 120.517753 127.897195 
L 120.730586 127.745158 
L 122.220413 127.745158 
L 122.433245 127.28905 
L 126.689895 127.28905 
L 126.902727 127.137014 
L 127.328392 126.680905 
L 129.669549 126.680905 
L 129.882381 126.528869 
L 133.713366 126.528869 
L 133.926198 126.376833 
L 137.331518 126.376833 
L 137.54435 126.224796 
L 144.354989 126.224796 
L 144.780654 125.464615 
L 147.547476 125.464615 
L 147.760308 125.312579 
L 149.037303 125.312579 
L 149.250135 125.160543 
L 161.594418 125.160543 
L 161.80725 125.008507 
L 162.020083 124.400362 
L 168.617889 124.400362 
L 168.830722 124.248326 
L 173.300203 124.248326 
L 173.513036 124.09629 
L 177.769685 124.09629 
L 177.982517 123.944253 
L 181.813502 123.944253 
L 182.026334 123.792217 
L 188.62414 123.792217 
L 188.836973 123.488145 
L 189.688303 123.488145 
L 189.901135 121.66371 
L 196.073276 121.66371 
L 196.286109 121.511674 
L 207.779062 121.511674 
L 208.204727 121.207602 
L 210.971549 121.207602 
L 211.184381 121.055566 
L 214.376868 121.055566 
L 214.5897 120.295385 
L 214.802533 120.143348 
L 238.426936 120.143348 
L 238.639768 119.991312 
L 246.088904 119.991312 
L 246.514569 118.166878 
L 246.727402 117.102624 
L 247.153067 116.190407 
L 247.365899 116.038371 
L 247.578732 112.997647 
L 247.791564 112.693575 
L 248.004396 111.933394 
L 248.217229 110.413032 
L 248.430061 109.804887 
L 249.068559 109.348778 
L 249.494224 109.348778 
L 249.707056 108.89267 
L 249.919889 108.89267 
L 250.132721 108.740633 
L 256.09203 108.740633 
L 256.304862 108.588597 
L 259.923014 108.588597 
L 260.135847 108.436561 
L 260.774344 107.67638 
L 268.22348 107.67638 
L 268.436313 107.524344 
L 269.713307 107.524344 
L 269.92614 107.372308 
L 277.800941 107.372308 
L 278.013773 107.220271 
L 284.398747 107.220271 
L 284.824412 106.764163 
L 285.037244 106.764163 
L 285.250077 106.612127 
L 285.462909 106.612127 
L 285.675742 106.308054 
L 295.678867 106.308054 
L 295.8917 105.851946 
L 305.894825 105.851946 
L 306.107658 105.69991 
L 307.17182 105.69991 
L 307.384653 105.547873 
L 308.02315 105.547873 
L 308.235982 105.395837 
L 359.528605 105.395837 
L 359.741438 105.091765 
L 367.829071 105.091765 
L 368.041904 104.939729 
L 375.278207 104.939729 
L 375.49104 104.787692 
L 375.916705 104.787692 
L 375.916705 104.787692 
" clip-path="url(#p02568bdc9f)" style="fill: none; stroke: #db5f57; stroke-width: 1.2; stroke-linecap: round"/>
   </g>
   <g id="line2d_48">
    <path d="M 69.650795 491.491765 
L 69.863628 490.351493 
L 70.07646 490.351493 
L 70.289293 490.047421 
L 70.502125 435.162353 
L 70.92779 429.841086 
L 71.140623 429.537014 
L 71.353455 428.928869 
L 71.566288 428.928869 
L 71.77912 424.519819 
L 72.204785 420.110769 
L 72.63045 414.029321 
L 73.056115 409.316199 
L 73.694612 396.849231 
L 73.907445 394.720724 
L 75.397272 339.379548 
L 75.610104 337.403077 
L 76.035769 319.614842 
L 76.674267 307.756018 
L 77.099932 293.616652 
L 77.525596 282.974118 
L 78.164094 262.905339 
L 78.376926 241.012127 
L 79.441089 218.510769 
L 79.653921 214.101719 
L 79.866754 207.108054 
L 80.292418 201.634751 
L 80.505251 199.810317 
L 80.718083 199.810317 
L 80.930916 192.664615 
L 81.143748 191.904434 
L 81.356581 191.904434 
L 81.569413 191.448326 
L 81.782246 190.08 
L 81.995078 187.799457 
L 82.420743 186.735204 
L 82.633575 186.735204 
L 82.846408 185.67095 
L 83.272073 185.062805 
L 83.484905 173.508054 
L 83.697738 172.139729 
L 83.91057 171.835656 
L 84.123403 171.835656 
L 84.549068 171.075475 
L 84.7619 171.075475 
L 84.974733 169.707149 
L 85.187565 169.555113 
L 85.400397 168.794932 
L 85.61323 165.146063 
L 85.826062 164.689955 
L 86.038895 159.67276 
L 86.251727 159.368688 
L 86.46456 158.760543 
L 86.677392 158.760543 
L 86.890225 157.088145 
L 87.103057 156.784072 
L 87.31589 154.959638 
L 87.528722 154.199457 
L 87.741555 154.047421 
L 87.954387 154.047421 
L 88.167219 153.743348 
L 89.018549 150.246516 
L 89.444214 146.749683 
L 89.657047 146.597647 
L 89.869879 146.293575 
L 90.295544 144.925249 
L 90.508376 144.925249 
L 90.934041 144.621176 
L 91.359706 143.708959 
L 91.785371 143.708959 
L 92.211036 142.948778 
L 92.423869 142.948778 
L 92.636701 142.188597 
L 92.849534 142.036561 
L 93.062366 141.27638 
L 93.275198 141.27638 
L 93.488031 141.124344 
L 93.700863 140.668235 
L 93.913696 140.516199 
L 94.765026 138.387692 
L 94.977858 137.931584 
L 95.829188 135.042896 
L 96.04202 134.89086 
L 96.254853 134.434751 
L 96.467685 134.434751 
L 96.680518 134.282715 
L 96.89335 133.978643 
L 97.106183 133.978643 
L 97.319015 133.826606 
L 97.531848 131.850136 
L 97.74468 131.241991 
L 98.59601 130.633846 
L 99.660172 130.633846 
L 99.873005 130.329774 
L 100.724335 130.329774 
L 100.937167 129.417557 
L 101.575664 129.417557 
L 101.788497 128.353303 
L 102.214162 128.353303 
L 102.426994 128.201267 
L 103.065492 128.201267 
L 103.278324 128.049231 
L 104.129654 126.680905 
L 104.342486 126.07276 
L 105.619481 126.07276 
L 105.832314 125.920724 
L 107.109308 125.920724 
L 107.747806 125.464615 
L 107.960638 125.160543 
L 108.173471 125.160543 
L 108.386303 124.856471 
L 108.599136 124.856471 
L 108.811968 124.704434 
L 109.0248 124.704434 
L 109.237633 124.552398 
L 109.450465 124.248326 
L 112.43012 124.248326 
L 112.642952 124.09629 
L 113.068617 124.09629 
L 113.28145 123.944253 
L 113.707115 123.944253 
L 113.919947 123.792217 
L 114.558444 123.792217 
L 114.771277 123.488145 
L 116.473937 123.488145 
L 116.899601 123.032036 
L 117.325266 123.032036 
L 117.538099 122.88 
L 118.602261 122.88 
L 118.815094 121.66371 
L 119.027926 121.511674 
L 119.453591 121.511674 
L 119.666423 119.839276 
L 120.092088 119.839276 
L 120.517753 118.927059 
L 120.730586 118.775023 
L 122.00758 118.775023 
L 122.220413 118.622986 
L 122.646078 118.622986 
L 122.85891 118.318914 
L 127.115559 118.318914 
L 127.754057 117.862805 
L 130.946544 117.862805 
L 131.159376 117.710769 
L 135.628858 117.710769 
L 135.84169 117.558733 
L 137.54435 117.558733 
L 137.757182 117.406697 
L 144.567821 117.406697 
L 144.780654 116.798552 
L 150.314298 116.798552 
L 150.739962 116.49448 
L 154.145282 116.49448 
L 154.358114 116.342443 
L 162.232915 116.342443 
L 162.445748 115.582262 
L 168.405057 115.582262 
L 168.617889 115.430226 
L 174.364365 115.430226 
L 174.577198 115.27819 
L 179.685177 115.27819 
L 179.898009 115.126154 
L 182.877664 115.126154 
L 183.090496 114.974118 
L 191.17813 114.974118 
L 191.390962 112.845611 
L 210.971549 112.845611 
L 211.184381 112.389502 
L 215.228198 112.389502 
L 215.44103 111.477285 
L 242.045088 111.477285 
L 242.25792 111.325249 
L 246.301737 111.325249 
L 246.514569 109.804887 
L 249.919889 109.804887 
L 250.132721 100.07457 
L 256.517695 100.07457 
L 256.730527 99.922534 
L 260.135847 99.922534 
L 260.348679 99.770498 
L 264.392496 99.770498 
L 264.605328 98.858281 
L 272.692962 98.858281 
L 272.905794 98.554208 
L 279.929265 98.554208 
L 280.142098 98.250136 
L 286.101407 98.250136 
L 286.314239 97.337919 
L 297.807192 97.337919 
L 298.020024 96.88181 
L 308.02315 96.88181 
L 308.235982 96.577738 
L 310.57714 96.577738 
L 310.789972 96.425701 
L 321.00593 96.425701 
L 321.218762 96.273665 
L 356.974616 96.273665 
L 357.187448 96.121629 
L 360.379935 96.121629 
L 360.592767 95.817557 
L 361.65693 95.817557 
L 361.869762 95.66552 
L 368.893233 95.66552 
L 369.106066 95.513484 
L 375.916705 95.513484 
L 375.916705 95.513484 
" clip-path="url(#p02568bdc9f)" style="fill: none; stroke: #b9db57; stroke-width: 1.2; stroke-linecap: round"/>
   </g>
   <g id="line2d_49">
    <path d="M 69.650795 486.398552 
L 69.863628 455.991312 
L 70.289293 438.355113 
L 70.92779 431.057376 
L 71.140623 430.753303 
L 71.353455 430.145158 
L 71.566288 429.993122 
L 71.77912 425.736109 
L 71.991953 425.127964 
L 72.843282 411.596742 
L 73.056115 410.532489 
L 73.268947 405.515294 
L 73.48178 404.299005 
L 73.907445 395.176833 
L 75.397272 343.332489 
L 75.610104 340.139729 
L 76.035769 322.959638 
L 76.674267 313.381357 
L 76.887099 304.715294 
L 77.312764 297.26552 
L 77.525596 292.552398 
L 78.164094 264.88181 
L 78.589759 248.309864 
L 78.802591 246.48543 
L 79.015424 237.66733 
L 79.228256 236.907149 
L 79.441089 233.410317 
L 79.653921 232.650136 
L 79.866754 222.767783 
L 80.079586 220.183167 
L 80.292418 220.031131 
L 80.505251 217.598552 
L 80.718083 212.277285 
L 80.930916 210.604887 
L 81.356581 209.996742 
L 81.782246 208.324344 
L 81.995078 206.49991 
L 82.207911 206.347873 
L 82.420743 205.435656 
L 82.633575 205.435656 
L 82.846408 204.371403 
L 83.05924 204.06733 
L 83.272073 203.155113 
L 83.484905 192.968688 
L 83.697738 192.208507 
L 83.91057 192.208507 
L 84.123403 191.904434 
L 84.336235 191.29629 
L 84.549068 191.29629 
L 84.7619 189.927964 
L 84.974733 189.927964 
L 85.187565 189.623891 
L 85.61323 185.822986 
L 85.826062 185.67095 
L 86.038895 180.957828 
L 86.251727 180.501719 
L 86.46456 180.501719 
L 86.677392 180.349683 
L 86.890225 180.349683 
L 87.31589 177.004887 
L 87.528722 176.548778 
L 87.954387 176.244706 
L 88.167219 175.940633 
L 88.380052 174.87638 
L 88.592884 174.420271 
L 88.805717 173.203982 
L 89.018549 173.203982 
L 89.231382 171.531584 
L 89.444214 168.946968 
L 89.657047 168.794932 
L 89.869879 168.338824 
L 90.295544 167.122534 
L 90.508376 166.970498 
L 90.721209 166.970498 
L 91.146874 166.666425 
L 91.359706 166.058281 
L 91.572539 166.058281 
L 91.785371 165.602172 
L 91.998204 165.450136 
L 92.211036 165.146063 
L 92.423869 165.146063 
L 92.636701 164.385882 
L 92.849534 164.385882 
L 93.062366 163.473665 
L 93.275198 163.473665 
L 93.488031 163.321629 
L 93.700863 162.86552 
L 93.913696 162.713484 
L 94.552193 160.432941 
L 94.765026 160.432941 
L 95.190691 158.760543 
L 95.403523 158.456471 
L 95.829188 157.088145 
L 96.254853 156.327964 
L 96.467685 156.327964 
L 96.680518 156.175928 
L 97.106183 156.175928 
L 97.319015 156.023891 
L 97.74468 153.439276 
L 97.957513 153.439276 
L 98.59601 152.527059 
L 99.660172 152.527059 
L 100.29867 152.07095 
L 100.724335 152.07095 
L 100.937167 151.310769 
L 101.149999 151.310769 
L 101.362832 151.158733 
L 101.788497 150.246516 
L 102.214162 150.246516 
L 102.426994 150.09448 
L 103.065492 150.09448 
L 103.278324 149.942443 
L 103.491157 149.638371 
L 103.703989 149.638371 
L 103.916821 149.182262 
L 104.129654 148.422081 
L 104.342486 148.270045 
L 105.406649 148.270045 
L 105.619481 148.118009 
L 106.896476 148.118009 
L 107.109308 147.965973 
L 107.322141 147.965973 
L 107.747806 147.6619 
L 108.173471 147.205792 
L 108.599136 147.205792 
L 109.0248 146.901719 
L 109.237633 146.901719 
L 109.450465 146.597647 
L 112.43012 146.597647 
L 112.642952 146.445611 
L 113.068617 146.445611 
L 113.28145 146.293575 
L 113.919947 146.293575 
L 114.132779 146.141538 
L 114.345612 146.141538 
L 114.558444 145.837466 
L 116.261104 145.837466 
L 116.473937 145.68543 
L 116.686769 145.381357 
L 117.325266 145.381357 
L 117.538099 145.229321 
L 118.389429 145.229321 
L 118.602261 144.165068 
L 119.027926 143.860995 
L 119.240758 143.860995 
L 119.453591 143.556923 
L 119.666423 142.49267 
L 119.879256 142.036561 
L 120.092088 141.884525 
L 120.517753 141.428416 
L 120.730586 141.27638 
L 122.220413 141.27638 
L 122.433245 140.668235 
L 126.051397 140.668235 
L 126.26423 140.516199 
L 126.902727 140.516199 
L 127.115559 140.364163 
L 127.328392 140.364163 
L 127.541224 140.212127 
L 129.456717 140.212127 
L 129.669549 140.06009 
L 133.713366 140.06009 
L 133.926198 139.908054 
L 137.331518 139.908054 
L 137.54435 139.756018 
L 144.354989 139.756018 
L 144.567821 139.603982 
L 144.780654 139.147873 
L 147.760308 139.147873 
L 147.973141 138.995837 
L 149.037303 138.995837 
L 149.250135 138.843801 
L 162.232915 138.843801 
L 162.445748 138.08362 
L 168.617889 138.08362 
L 168.830722 137.931584 
L 173.725868 137.931584 
L 173.938701 137.779548 
L 177.769685 137.779548 
L 177.982517 137.627511 
L 181.813502 137.627511 
L 182.026334 137.475475 
L 188.62414 137.475475 
L 188.836973 137.323439 
L 189.049805 137.323439 
L 189.262638 137.171403 
L 190.113967 137.171403 
L 190.3268 135.955113 
L 207.779062 135.955113 
L 208.204727 135.651041 
L 210.971549 135.651041 
L 211.184381 135.499005 
L 214.376868 135.499005 
L 214.5897 134.738824 
L 214.802533 134.586787 
L 238.214103 134.586787 
L 238.426936 134.434751 
L 246.088904 134.434751 
L 246.301737 134.282715 
L 246.940234 131.089955 
L 247.365899 130.48181 
L 247.578732 128.201267 
L 247.791564 127.593122 
L 248.004396 127.441086 
L 248.642894 124.704434 
L 249.707056 124.704434 
L 249.919889 124.248326 
L 250.132721 124.248326 
L 250.345553 124.09629 
L 255.027868 124.09629 
L 255.2407 123.944253 
L 260.348679 123.944253 
L 260.561512 123.488145 
L 262.051339 123.488145 
L 262.264171 123.336109 
L 262.902669 123.336109 
L 263.115501 123.184072 
L 268.22348 123.184072 
L 268.436313 123.032036 
L 269.500475 123.032036 
L 269.713307 122.88 
L 277.588108 122.88 
L 277.800941 122.727964 
L 278.226606 122.727964 
L 278.439438 122.575928 
L 284.398747 122.575928 
L 284.611579 122.423891 
L 284.824412 122.423891 
L 285.037244 122.119819 
L 285.250077 122.119819 
L 285.462909 121.815747 
L 295.466035 121.815747 
L 295.678867 121.511674 
L 295.8917 121.511674 
L 296.104532 121.359638 
L 305.681993 121.359638 
L 305.894825 121.207602 
L 306.958988 121.207602 
L 307.17182 121.055566 
L 308.02315 121.055566 
L 308.235982 120.903529 
L 318.451941 120.903529 
L 318.664773 120.751493 
L 356.548951 120.751493 
L 356.974616 120.447421 
L 359.528605 120.447421 
L 359.741438 120.143348 
L 367.616239 120.143348 
L 367.829071 119.991312 
L 375.278207 119.991312 
L 375.49104 119.839276 
L 375.916705 119.839276 
L 375.916705 119.839276 
" clip-path="url(#p02568bdc9f)" style="fill: none; stroke: #57db94; stroke-width: 1.2; stroke-linecap: round"/>
   </g>
   <g id="line2d_50">
    <path d="M 69.650795 491.567783 
L 69.863628 461.008507 
L 71.140623 450.518009 
L 71.353455 435.314389 
L 71.566288 429.841086 
L 71.77912 428.928869 
L 72.417617 418.742443 
L 73.056115 409.924344 
L 73.268947 408.251946 
L 73.907445 394.112579 
L 74.120277 386.054661 
L 74.33311 384.990407 
L 75.184439 343.484525 
L 75.397272 342.420271 
L 76.461434 313.68543 
L 76.674267 308.820271 
L 76.887099 299.6981 
L 77.312764 292.09629 
L 77.525596 283.886335 
L 77.738429 280.389502 
L 78.376926 244.204887 
L 78.589759 241.620271 
L 78.802591 236.907149 
L 79.015424 235.386787 
L 79.228256 228.697195 
L 79.653921 224.440181 
L 79.866754 211.365068 
L 80.292418 207.564163 
L 80.505251 207.108054 
L 80.718083 205.131584 
L 80.930916 200.722534 
L 81.356581 200.418462 
L 81.782246 199.050136 
L 81.995078 196.921629 
L 82.420743 196.009412 
L 82.633575 195.857376 
L 82.846408 194.793122 
L 83.05924 194.641086 
L 83.272073 193.880905 
L 83.484905 186.279095 
L 83.697738 182.934299 
L 83.91057 182.782262 
L 84.123403 182.782262 
L 84.549068 181.870045 
L 84.7619 181.565973 
L 85.187565 179.437466 
L 85.400397 175.940633 
L 85.61323 175.788597 
L 85.826062 175.484525 
L 86.038895 174.420271 
L 86.251727 169.707149 
L 86.46456 169.555113 
L 86.677392 169.555113 
L 86.890225 167.578643 
L 87.103057 167.426606 
L 87.528722 164.689955 
L 87.741555 164.385882 
L 87.954387 164.385882 
L 88.592884 163.625701 
L 88.805717 162.561448 
L 89.018549 160.88905 
L 89.231382 160.88905 
L 89.444214 157.848326 
L 90.082712 157.392217 
L 90.295544 156.327964 
L 90.508376 156.175928 
L 90.721209 156.175928 
L 91.146874 155.871855 
L 91.359706 155.111674 
L 91.785371 155.111674 
L 91.998204 154.655566 
L 92.211036 154.503529 
L 92.636701 154.503529 
L 93.062366 152.831131 
L 93.488031 152.831131 
L 93.700863 152.527059 
L 93.913696 152.527059 
L 94.126528 151.766878 
L 94.339361 151.766878 
L 94.552193 151.310769 
L 94.977858 151.310769 
L 95.403523 149.486335 
L 95.616356 148.422081 
L 95.829188 148.422081 
L 96.04202 147.6619 
L 96.254853 147.6619 
L 96.467685 147.509864 
L 96.680518 147.509864 
L 96.89335 147.357828 
L 97.319015 147.357828 
L 97.531848 146.445611 
L 97.74468 144.925249 
L 97.957513 144.925249 
L 98.170345 144.773213 
L 98.383177 144.165068 
L 99.873005 144.165068 
L 100.085837 144.013032 
L 100.511502 143.556923 
L 100.937167 143.556923 
L 101.149999 142.644706 
L 101.362832 142.644706 
L 101.575664 141.884525 
L 101.788497 141.884525 
L 102.001329 141.580452 
L 102.214162 141.580452 
L 102.426994 141.428416 
L 103.065492 141.428416 
L 103.278324 141.124344 
L 103.916821 141.124344 
L 104.129654 139.756018 
L 104.342486 139.756018 
L 104.555319 139.603982 
L 105.619481 139.603982 
L 105.832314 139.451946 
L 107.109308 139.451946 
L 107.322141 139.29991 
L 107.747806 139.29991 
L 108.173471 138.539729 
L 108.599136 138.539729 
L 109.0248 138.235656 
L 109.237633 138.235656 
L 109.450465 137.931584 
L 112.642952 137.931584 
L 112.855785 137.779548 
L 113.068617 137.779548 
L 113.28145 137.627511 
L 113.707115 137.627511 
L 113.919947 137.475475 
L 114.345612 137.019367 
L 114.771277 136.715294 
L 116.473937 136.715294 
L 116.899601 136.107149 
L 117.325266 136.107149 
L 117.538099 135.955113 
L 118.602261 135.955113 
L 118.815094 134.738824 
L 119.027926 134.738824 
L 119.240758 134.586787 
L 119.453591 134.282715 
L 119.666423 134.282715 
L 119.879256 132.610317 
L 120.092088 132.306244 
L 120.304921 132.306244 
L 120.730586 131.6981 
L 122.220413 131.6981 
L 122.646078 131.394027 
L 123.923073 131.394027 
L 124.135905 131.241991 
L 126.477062 131.241991 
L 126.689895 131.089955 
L 127.115559 131.089955 
L 127.541224 130.633846 
L 129.669549 130.633846 
L 129.882381 130.48181 
L 133.926198 130.48181 
L 134.139031 130.329774 
L 137.118685 130.329774 
L 137.331518 130.177738 
L 144.354989 130.177738 
L 144.567821 130.025701 
L 144.780654 129.569593 
L 147.547476 129.569593 
L 147.760308 129.417557 
L 149.037303 129.417557 
L 149.250135 129.26552 
L 162.232915 129.26552 
L 162.445748 128.505339 
L 168.830722 128.505339 
L 169.043554 128.353303 
L 173.513036 128.353303 
L 173.725868 128.201267 
L 178.408182 128.201267 
L 178.621015 128.049231 
L 182.239166 128.049231 
L 182.451999 127.897195 
L 188.62414 127.897195 
L 189.049805 127.593122 
L 189.688303 127.593122 
L 189.901135 126.376833 
L 196.073276 126.376833 
L 196.286109 126.224796 
L 208.843224 126.224796 
L 209.056056 126.07276 
L 210.971549 126.07276 
L 211.184381 125.920724 
L 214.376868 125.920724 
L 214.5897 125.768688 
L 214.802533 125.160543 
L 238.214103 125.160543 
L 238.426936 125.008507 
L 242.470752 125.008507 
L 242.683585 124.856471 
L 246.088904 124.856471 
L 246.301737 124.552398 
L 247.365899 121.055566 
L 247.578732 118.927059 
L 248.004396 117.710769 
L 248.642894 117.710769 
L 248.855726 115.582262 
L 249.068559 115.582262 
L 249.281391 115.430226 
L 249.919889 115.430226 
L 250.132721 114.822081 
L 255.027868 114.822081 
L 255.2407 114.670045 
L 259.923014 114.670045 
L 260.135847 114.518009 
L 260.987176 114.518009 
L 261.200009 114.0619 
L 268.22348 114.0619 
L 268.436313 113.909864 
L 269.713307 113.909864 
L 269.92614 113.757828 
L 277.800941 113.757828 
L 278.013773 113.605792 
L 278.652271 113.605792 
L 278.865103 113.453756 
L 284.611579 113.453756 
L 284.824412 112.997647 
L 285.675742 112.997647 
L 285.888574 112.845611 
L 286.527072 112.845611 
L 286.739904 112.541538 
L 295.678867 112.541538 
L 295.8917 112.237466 
L 296.317365 112.237466 
L 296.530197 112.08543 
L 308.661647 112.08543 
L 308.87448 111.933394 
L 312.918297 111.933394 
L 313.131129 111.781357 
L 338.883857 111.781357 
L 339.096689 111.629321 
L 359.741438 111.629321 
L 359.95427 111.325249 
L 367.616239 111.325249 
L 367.829071 111.173213 
L 375.703872 111.173213 
L 375.916705 111.021176 
L 375.916705 111.021176 
" clip-path="url(#p02568bdc9f)" style="fill: none; stroke: #5784db; stroke-width: 1.2; stroke-linecap: round"/>
   </g>
   <g id="line2d_51">
    <path d="M 69.650795 483.053756 
L 69.863628 452.190407 
L 70.289293 435.618462 
L 70.92779 427.712579 
L 71.353455 426.800362 
L 71.566288 426.648326 
L 71.77912 421.783167 
L 71.991953 420.414842 
L 73.268947 400.802172 
L 73.48178 399.889955 
L 74.33311 376.172308 
L 74.545942 362.337014 
L 74.758774 358.232036 
L 75.184439 337.403077 
L 75.397272 335.730679 
L 75.822937 321.895385 
L 76.035769 312.925249 
L 76.248602 310.644706 
L 77.525596 277.348778 
L 77.738429 265.337919 
L 77.951261 259.712579 
L 78.164094 237.059186 
L 78.589759 229.001267 
L 78.802591 225.048326 
L 79.015424 217.598552 
L 79.653921 210.148778 
L 79.866754 200.114389 
L 80.292418 196.009412 
L 80.505251 195.705339 
L 80.718083 190.08 
L 80.930916 187.951493 
L 81.143748 187.799457 
L 81.356581 187.343348 
L 81.569413 186.279095 
L 81.782246 185.822986 
L 81.995078 183.69448 
L 82.207911 182.934299 
L 82.420743 182.630226 
L 82.633575 181.565973 
L 82.846408 181.565973 
L 83.05924 181.109864 
L 83.484905 168.034751 
L 84.336235 166.970498 
L 84.549068 166.818462 
L 84.7619 165.450136 
L 84.974733 165.450136 
L 85.187565 164.537919 
L 85.400397 160.737014 
L 85.826062 159.976833 
L 86.038895 154.959638 
L 86.251727 154.351493 
L 86.46456 154.351493 
L 86.677392 154.199457 
L 87.103057 151.158733 
L 87.528722 149.486335 
L 87.954387 149.030226 
L 88.167219 148.87819 
L 88.380052 147.509864 
L 88.592884 147.357828 
L 89.444214 141.580452 
L 89.657047 141.580452 
L 89.869879 141.27638 
L 90.295544 140.06009 
L 90.508376 139.908054 
L 90.721209 139.908054 
L 90.934041 139.756018 
L 91.146874 138.995837 
L 91.359706 138.843801 
L 91.572539 138.843801 
L 92.211036 138.08362 
L 92.423869 138.08362 
L 92.636701 137.323439 
L 92.849534 137.171403 
L 93.062366 136.411222 
L 93.275198 136.411222 
L 93.913696 135.499005 
L 94.552193 133.522534 
L 94.765026 133.522534 
L 94.977858 132.306244 
L 95.403523 131.241991 
L 96.04202 129.569593 
L 96.254853 129.569593 
L 96.467685 129.417557 
L 97.106183 129.417557 
L 97.319015 129.26552 
L 97.531848 127.28905 
L 97.74468 126.680905 
L 97.957513 126.528869 
L 98.383177 125.920724 
L 99.660172 125.920724 
L 100.085837 125.464615 
L 100.29867 125.464615 
L 100.511502 125.312579 
L 100.724335 125.312579 
L 100.937167 124.400362 
L 101.149999 124.248326 
L 101.575664 123.488145 
L 101.788497 123.184072 
L 102.001329 123.184072 
L 102.214162 123.032036 
L 102.852659 123.032036 
L 103.278324 122.727964 
L 103.491157 122.423891 
L 103.703989 122.423891 
L 103.916821 121.967783 
L 104.129654 121.207602 
L 104.342486 120.903529 
L 105.406649 120.903529 
L 105.619481 120.751493 
L 106.896476 120.751493 
L 107.109308 120.599457 
L 107.322141 120.599457 
L 107.747806 120.295385 
L 108.173471 119.68724 
L 108.599136 119.68724 
L 109.0248 119.383167 
L 109.237633 119.383167 
L 109.450465 119.079095 
L 112.43012 119.079095 
L 112.642952 118.927059 
L 112.855785 118.927059 
L 113.068617 118.622986 
L 113.707115 118.622986 
L 114.132779 118.318914 
L 114.345612 118.318914 
L 114.558444 118.014842 
L 116.261104 118.014842 
L 116.473937 117.862805 
L 116.686769 117.406697 
L 117.325266 117.406697 
L 117.538099 117.254661 
L 118.389429 117.254661 
L 118.602261 116.038371 
L 118.815094 116.038371 
L 119.027926 115.886335 
L 119.240758 115.886335 
L 119.453591 115.430226 
L 119.666423 114.213937 
L 120.517753 113.149683 
L 120.730586 112.997647 
L 122.00758 112.997647 
L 122.220413 112.845611 
L 122.433245 112.541538 
L 126.051397 112.541538 
L 126.26423 112.389502 
L 126.902727 112.389502 
L 127.328392 111.933394 
L 129.456717 111.933394 
L 129.669549 111.781357 
L 133.713366 111.781357 
L 133.926198 111.629321 
L 137.118685 111.629321 
L 137.331518 111.477285 
L 144.354989 111.477285 
L 144.780654 110.717104 
L 147.547476 110.717104 
L 147.760308 110.565068 
L 149.037303 110.565068 
L 149.250135 110.413032 
L 161.594418 110.413032 
L 161.80725 110.260995 
L 162.020083 109.652851 
L 168.405057 109.652851 
L 168.617889 109.500814 
L 173.300203 109.500814 
L 173.513036 109.348778 
L 177.769685 109.348778 
L 177.982517 109.196742 
L 181.813502 109.196742 
L 182.026334 109.044706 
L 188.62414 109.044706 
L 188.836973 108.740633 
L 189.688303 108.740633 
L 189.901135 106.916199 
L 196.073276 106.916199 
L 196.286109 106.764163 
L 207.779062 106.764163 
L 208.204727 106.46009 
L 210.971549 106.46009 
L 211.184381 106.308054 
L 214.376868 106.308054 
L 214.5897 105.547873 
L 214.802533 105.395837 
L 238.214103 105.395837 
L 238.426936 105.243801 
L 246.088904 105.243801 
L 246.514569 103.419367 
L 246.940234 101.29086 
L 247.153067 100.834751 
L 247.365899 100.682715 
L 247.578732 98.0981 
L 247.791564 97.794027 
L 248.004396 97.033846 
L 248.217229 95.513484 
L 248.642894 94.601267 
L 248.855726 94.601267 
L 249.068559 94.449231 
L 249.494224 94.449231 
L 249.707056 93.993122 
L 249.919889 93.993122 
L 250.132721 93.841086 
L 255.027868 93.841086 
L 255.2407 93.68905 
L 259.923014 93.68905 
L 260.135847 93.537014 
L 260.774344 92.776833 
L 262.051339 92.776833 
L 262.264171 92.624796 
L 262.902669 92.624796 
L 263.115501 92.47276 
L 268.22348 92.47276 
L 268.436313 92.320724 
L 269.500475 92.320724 
L 269.713307 92.168688 
L 277.588108 92.168688 
L 277.800941 92.016652 
L 278.226606 92.016652 
L 278.439438 91.864615 
L 284.398747 91.864615 
L 284.824412 91.408507 
L 285.037244 91.408507 
L 285.250077 91.256471 
L 285.462909 90.952398 
L 295.466035 90.952398 
L 295.8917 90.49629 
L 305.681993 90.49629 
L 305.894825 90.344253 
L 306.958988 90.344253 
L 307.17182 90.192217 
L 308.02315 90.192217 
L 308.235982 90.040181 
L 356.761783 90.040181 
L 356.974616 89.888145 
L 359.528605 89.888145 
L 359.741438 89.584072 
L 367.616239 89.584072 
L 367.829071 89.432036 
L 375.278207 89.432036 
L 375.49104 89.28 
L 375.916705 89.28 
L 375.916705 89.28 
" clip-path="url(#p02568bdc9f)" style="fill: none; stroke: #c957db; stroke-width: 1.2; stroke-linecap: round"/>
   </g>
   <g id="line2d_52"/>
   <g id="line2d_53"/>
   <g id="line2d_54"/>
   <g id="line2d_55"/>
   <g id="line2d_56"/>
   <g id="patch_3">
    <path d="M 54.3375 512.64 
L 54.3375 69.12 
" style="fill: none; stroke: #cccccc; stroke-linejoin: miter; stroke-linecap: square"/>
   </g>
   <g id="patch_4">
    <path d="M 54.3375 512.64 
L 391.23 512.64 
" style="fill: none; stroke: #cccccc; stroke-linejoin: miter; stroke-linecap: square"/>
   </g>
   <g id="text_49">
    <!-- Edge Coverage History -->
    <g style="fill: #262626" transform="translate(115.892262 63.12)scale(0.165888 -0.165888)">
     <defs>
      <path id="DejaVuSans-Bold-45" d="M 588 4666 
L 3834 4666 
L 3834 3756 
L 1791 3756 
L 1791 2888 
L 3713 2888 
L 3713 1978 
L 1791 1978 
L 1791 909 
L 3903 909 
L 3903 0 
L 588 0 
L 588 4666 
z
" transform="scale(0.015625)"/>
      <path id="DejaVuSans-Bold-64" d="M 2919 2988 
L 2919 4863 
L 4044 4863 
L 4044 0 
L 2919 0 
L 2919 506 
Q 2688 197 2409 53 
Q 2131 -91 1766 -91 
Q 1119 -91 703 423 
Q 288 938 288 1747 
Q 288 2556 703 3070 
Q 1119 3584 1766 3584 
Q 2128 3584 2408 3439 
Q 2688 3294 2919 2988 
z
M 2181 722 
Q 2541 722 2730 984 
Q 2919 1247 2919 1747 
Q 2919 2247 2730 2509 
Q 2541 2772 2181 2772 
Q 1825 2772 1636 2509 
Q 1447 2247 1447 1747 
Q 1447 1247 1636 984 
Q 1825 722 2181 722 
z
" transform="scale(0.015625)"/>
      <path id="DejaVuSans-Bold-67" d="M 2919 594 
Q 2688 288 2409 144 
Q 2131 0 1766 0 
Q 1125 0 706 504 
Q 288 1009 288 1791 
Q 288 2575 706 3076 
Q 1125 3578 1766 3578 
Q 2131 3578 2409 3434 
Q 2688 3291 2919 2981 
L 2919 3500 
L 4044 3500 
L 4044 353 
Q 4044 -491 3511 -936 
Q 2978 -1381 1966 -1381 
Q 1638 -1381 1331 -1331 
Q 1025 -1281 716 -1178 
L 716 -306 
Q 1009 -475 1290 -558 
Q 1572 -641 1856 -641 
Q 2406 -641 2662 -400 
Q 2919 -159 2919 353 
L 2919 594 
z
M 2181 2772 
Q 1834 2772 1640 2515 
Q 1447 2259 1447 1791 
Q 1447 1309 1634 1061 
Q 1822 813 2181 813 
Q 2531 813 2725 1069 
Q 2919 1325 2919 1791 
Q 2919 2259 2725 2515 
Q 2531 2772 2181 2772 
z
" transform="scale(0.015625)"/>
      <path id="DejaVuSans-Bold-65" d="M 4031 1759 
L 4031 1441 
L 1416 1441 
Q 1456 1047 1700 850 
Q 1944 653 2381 653 
Q 2734 653 3104 758 
Q 3475 863 3866 1075 
L 3866 213 
Q 3469 63 3072 -14 
Q 2675 -91 2278 -91 
Q 1328 -91 801 392 
Q 275 875 275 1747 
Q 275 2603 792 3093 
Q 1309 3584 2216 3584 
Q 3041 3584 3536 3087 
Q 4031 2591 4031 1759 
z
M 2881 2131 
Q 2881 2450 2695 2645 
Q 2509 2841 2209 2841 
Q 1884 2841 1681 2658 
Q 1478 2475 1428 2131 
L 2881 2131 
z
" transform="scale(0.015625)"/>
      <path id="DejaVuSans-Bold-20" transform="scale(0.015625)"/>
      <path id="DejaVuSans-Bold-43" d="M 4288 256 
Q 3956 84 3597 -3 
Q 3238 -91 2847 -91 
Q 1681 -91 1000 561 
Q 319 1213 319 2328 
Q 319 3447 1000 4098 
Q 1681 4750 2847 4750 
Q 3238 4750 3597 4662 
Q 3956 4575 4288 4403 
L 4288 3438 
Q 3953 3666 3628 3772 
Q 3303 3878 2944 3878 
Q 2300 3878 1931 3465 
Q 1563 3053 1563 2328 
Q 1563 1606 1931 1193 
Q 2300 781 2944 781 
Q 3303 781 3628 887 
Q 3953 994 4288 1222 
L 4288 256 
z
" transform="scale(0.015625)"/>
      <path id="DejaVuSans-Bold-6f" d="M 2203 2784 
Q 1831 2784 1636 2517 
Q 1441 2250 1441 1747 
Q 1441 1244 1636 976 
Q 1831 709 2203 709 
Q 2569 709 2762 976 
Q 2956 1244 2956 1747 
Q 2956 2250 2762 2517 
Q 2569 2784 2203 2784 
z
M 2203 3584 
Q 3106 3584 3614 3096 
Q 4122 2609 4122 1747 
Q 4122 884 3614 396 
Q 3106 -91 2203 -91 
Q 1297 -91 786 396 
Q 275 884 275 1747 
Q 275 2609 786 3096 
Q 1297 3584 2203 3584 
z
" transform="scale(0.015625)"/>
      <path id="DejaVuSans-Bold-76" d="M 97 3500 
L 1216 3500 
L 2088 1081 
L 2956 3500 
L 4078 3500 
L 2700 0 
L 1472 0 
L 97 3500 
z
" transform="scale(0.015625)"/>
      <path id="DejaVuSans-Bold-72" d="M 3138 2547 
Q 2991 2616 2845 2648 
Q 2700 2681 2553 2681 
Q 2122 2681 1889 2404 
Q 1656 2128 1656 1613 
L 1656 0 
L 538 0 
L 538 3500 
L 1656 3500 
L 1656 2925 
Q 1872 3269 2151 3426 
Q 2431 3584 2822 3584 
Q 2878 3584 2943 3579 
Q 3009 3575 3134 3559 
L 3138 2547 
z
" transform="scale(0.015625)"/>
      <path id="DejaVuSans-Bold-61" d="M 2106 1575 
Q 1756 1575 1579 1456 
Q 1403 1338 1403 1106 
Q 1403 894 1545 773 
Q 1688 653 1941 653 
Q 2256 653 2472 879 
Q 2688 1106 2688 1447 
L 2688 1575 
L 2106 1575 
z
M 3816 1997 
L 3816 0 
L 2688 0 
L 2688 519 
Q 2463 200 2181 54 
Q 1900 -91 1497 -91 
Q 953 -91 614 226 
Q 275 544 275 1050 
Q 275 1666 698 1953 
Q 1122 2241 2028 2241 
L 2688 2241 
L 2688 2328 
Q 2688 2594 2478 2717 
Q 2269 2841 1825 2841 
Q 1466 2841 1156 2769 
Q 847 2697 581 2553 
L 581 3406 
Q 941 3494 1303 3539 
Q 1666 3584 2028 3584 
Q 2975 3584 3395 3211 
Q 3816 2838 3816 1997 
z
" transform="scale(0.015625)"/>
      <path id="DejaVuSans-Bold-48" d="M 588 4666 
L 1791 4666 
L 1791 2888 
L 3566 2888 
L 3566 4666 
L 4769 4666 
L 4769 0 
L 3566 0 
L 3566 1978 
L 1791 1978 
L 1791 0 
L 588 0 
L 588 4666 
z
" transform="scale(0.015625)"/>
      <path id="DejaVuSans-Bold-69" d="M 538 3500 
L 1656 3500 
L 1656 0 
L 538 0 
L 538 3500 
z
M 538 4863 
L 1656 4863 
L 1656 3950 
L 538 3950 
L 538 4863 
z
" transform="scale(0.015625)"/>
      <path id="DejaVuSans-Bold-73" d="M 3272 3391 
L 3272 2541 
Q 2913 2691 2578 2766 
Q 2244 2841 1947 2841 
Q 1628 2841 1473 2761 
Q 1319 2681 1319 2516 
Q 1319 2381 1436 2309 
Q 1553 2238 1856 2203 
L 2053 2175 
Q 2913 2066 3209 1816 
Q 3506 1566 3506 1031 
Q 3506 472 3093 190 
Q 2681 -91 1863 -91 
Q 1516 -91 1145 -36 
Q 775 19 384 128 
L 384 978 
Q 719 816 1070 734 
Q 1422 653 1784 653 
Q 2113 653 2278 743 
Q 2444 834 2444 1013 
Q 2444 1163 2330 1236 
Q 2216 1309 1875 1350 
L 1678 1375 
Q 931 1469 631 1722 
Q 331 1975 331 2491 
Q 331 3047 712 3315 
Q 1094 3584 1881 3584 
Q 2191 3584 2531 3537 
Q 2872 3491 3272 3391 
z
" transform="scale(0.015625)"/>
      <path id="DejaVuSans-Bold-74" d="M 1759 4494 
L 1759 3500 
L 2913 3500 
L 2913 2700 
L 1759 2700 
L 1759 1216 
Q 1759 972 1856 886 
Q 1953 800 2241 800 
L 2816 800 
L 2816 0 
L 1856 0 
Q 1194 0 917 276 
Q 641 553 641 1216 
L 641 2700 
L 84 2700 
L 84 3500 
L 641 3500 
L 641 4494 
L 1759 4494 
z
" transform="scale(0.015625)"/>
      <path id="DejaVuSans-Bold-79" d="M 78 3500 
L 1197 3500 
L 2138 1125 
L 2938 3500 
L 4056 3500 
L 2584 -331 
Q 2363 -916 2067 -1148 
Q 1772 -1381 1288 -1381 
L 641 -1381 
L 641 -647 
L 991 -647 
Q 1275 -647 1404 -556 
Q 1534 -466 1606 -231 
L 1638 -134 
L 78 3500 
z
" transform="scale(0.015625)"/>
     </defs>
     <use xlink:href="#DejaVuSans-Bold-45"/>
     <use xlink:href="#DejaVuSans-Bold-64" x="68.310547"/>
     <use xlink:href="#DejaVuSans-Bold-67" x="139.892578"/>
     <use xlink:href="#DejaVuSans-Bold-65" x="211.474609"/>
     <use xlink:href="#DejaVuSans-Bold-20" x="279.296875"/>
     <use xlink:href="#DejaVuSans-Bold-43" x="314.111328"/>
     <use xlink:href="#DejaVuSans-Bold-6f" x="387.5"/>
     <use xlink:href="#DejaVuSans-Bold-76" x="456.201172"/>
     <use xlink:href="#DejaVuSans-Bold-65" x="521.386719"/>
     <use xlink:href="#DejaVuSans-Bold-72" x="589.208984"/>
     <use xlink:href="#DejaVuSans-Bold-61" x="638.525391"/>
     <use xlink:href="#DejaVuSans-Bold-67" x="706.005859"/>
     <use xlink:href="#DejaVuSans-Bold-65" x="777.587891"/>
     <use xlink:href="#DejaVuSans-Bold-20" x="845.410156"/>
     <use xlink:href="#DejaVuSans-Bold-48" x="880.224609"/>
     <use xlink:href="#DejaVuSans-Bold-69" x="963.916016"/>
     <use xlink:href="#DejaVuSans-Bold-73" x="998.193359"/>
     <use xlink:href="#DejaVuSans-Bold-74" x="1057.714844"/>
     <use xlink:href="#DejaVuSans-Bold-6f" x="1105.517578"/>
     <use xlink:href="#DejaVuSans-Bold-72" x="1174.21875"/>
     <use xlink:href="#DejaVuSans-Bold-79" x="1223.535156"/>
    </g>
   </g>
   <g id="legend_1">
    <g id="patch_5">
     <path d="M 273.541 508.24 
L 385.07 508.24 
Q 386.83 508.24 386.83 506.48 
L 386.83 428.8405 
Q 386.83 427.0805 385.07 427.0805 
L 273.541 427.0805 
Q 271.781 427.0805 271.781 428.8405 
L 271.781 506.48 
Q 271.781 508.24 273.541 508.24 
z
" style="fill: #ffffff; opacity: 0.8; stroke: #cccccc; stroke-width: 0.8; stroke-linejoin: miter"/>
    </g>
    <g id="text_50">
     <!-- fuzzer -->
     <g style="fill: #262626" transform="translate(314.6085 437.895)scale(0.096 -0.096)">
      <defs>
       <path id="DejaVuSans-66" d="M 2375 4863 
L 2375 4384 
L 1825 4384 
Q 1516 4384 1395 4259 
Q 1275 4134 1275 3809 
L 1275 3500 
L 2222 3500 
L 2222 3053 
L 1275 3053 
L 1275 0 
L 697 0 
L 697 3053 
L 147 3053 
L 147 3500 
L 697 3500 
L 697 3744 
Q 697 4328 969 4595 
Q 1241 4863 1831 4863 
L 2375 4863 
z
" transform="scale(0.015625)"/>
       <path id="DejaVuSans-7a" d="M 353 3500 
L 3084 3500 
L 3084 2975 
L 922 459 
L 3084 459 
L 3084 0 
L 275 0 
L 275 525 
L 2438 3041 
L 353 3041 
L 353 3500 
z
" transform="scale(0.015625)"/>
      </defs>
      <use xlink:href="#DejaVuSans-66"/>
      <use xlink:href="#DejaVuSans-75" x="35.205078"/>
      <use xlink:href="#DejaVuSans-7a" x="98.583984"/>
      <use xlink:href="#DejaVuSans-7a" x="151.074219"/>
      <use xlink:href="#DejaVuSans-65" x="203.564453"/>
      <use xlink:href="#DejaVuSans-72" x="265.087891"/>
     </g>
    </g>
    <g id="line2d_57">
     <path d="M 275.301 447.898125 
L 284.101 447.898125 
L 292.901 447.898125 
" style="fill: none; stroke: #db5f57; stroke-width: 1.2; stroke-linecap: round"/>
    </g>
    <g id="text_51">
     <!-- fairfuzz-0-exid1 -->
     <g style="fill: #262626" transform="translate(299.941 450.978125)scale(0.088 -0.088)">
      <defs>
       <path id="DejaVuSans-2d" d="M 313 2009 
L 1997 2009 
L 1997 1497 
L 313 1497 
L 313 2009 
z
" transform="scale(0.015625)"/>
       <path id="DejaVuSans-78" d="M 3513 3500 
L 2247 1797 
L 3578 0 
L 2900 0 
L 1881 1375 
L 863 0 
L 184 0 
L 1544 1831 
L 300 3500 
L 978 3500 
L 1906 2253 
L 2834 3500 
L 3513 3500 
z
" transform="scale(0.015625)"/>
      </defs>
      <use xlink:href="#DejaVuSans-66"/>
      <use xlink:href="#DejaVuSans-61" x="35.205078"/>
      <use xlink:href="#DejaVuSans-69" x="96.484375"/>
      <use xlink:href="#DejaVuSans-72" x="124.267578"/>
      <use xlink:href="#DejaVuSans-66" x="165.380859"/>
      <use xlink:href="#DejaVuSans-75" x="200.585938"/>
      <use xlink:href="#DejaVuSans-7a" x="263.964844"/>
      <use xlink:href="#DejaVuSans-7a" x="316.455078"/>
      <use xlink:href="#DejaVuSans-2d" x="368.945312"/>
      <use xlink:href="#DejaVuSans-30" x="405.029297"/>
      <use xlink:href="#DejaVuSans-2d" x="468.652344"/>
      <use xlink:href="#DejaVuSans-65" x="504.736328"/>
      <use xlink:href="#DejaVuSans-78" x="564.509766"/>
      <use xlink:href="#DejaVuSans-69" x="623.689453"/>
      <use xlink:href="#DejaVuSans-64" x="651.472656"/>
      <use xlink:href="#DejaVuSans-31" x="714.949219"/>
     </g>
    </g>
    <g id="line2d_58">
     <path d="M 275.301 460.814875 
L 284.101 460.814875 
L 292.901 460.814875 
" style="fill: none; stroke: #b9db57; stroke-width: 1.2; stroke-linecap: round"/>
    </g>
    <g id="text_52">
     <!-- aflplusplus-0-exid1 -->
     <g style="fill: #262626" transform="translate(299.941 463.894875)scale(0.088 -0.088)">
      <defs>
       <path id="DejaVuSans-6c" d="M 603 4863 
L 1178 4863 
L 1178 0 
L 603 0 
L 603 4863 
z
" transform="scale(0.015625)"/>
       <path id="DejaVuSans-70" d="M 1159 525 
L 1159 -1331 
L 581 -1331 
L 581 3500 
L 1159 3500 
L 1159 2969 
Q 1341 3281 1617 3432 
Q 1894 3584 2278 3584 
Q 2916 3584 3314 3078 
Q 3713 2572 3713 1747 
Q 3713 922 3314 415 
Q 2916 -91 2278 -91 
Q 1894 -91 1617 61 
Q 1341 213 1159 525 
z
M 3116 1747 
Q 3116 2381 2855 2742 
Q 2594 3103 2138 3103 
Q 1681 3103 1420 2742 
Q 1159 2381 1159 1747 
Q 1159 1113 1420 752 
Q 1681 391 2138 391 
Q 2594 391 2855 752 
Q 3116 1113 3116 1747 
z
" transform="scale(0.015625)"/>
      </defs>
      <use xlink:href="#DejaVuSans-61"/>
      <use xlink:href="#DejaVuSans-66" x="61.279297"/>
      <use xlink:href="#DejaVuSans-6c" x="96.484375"/>
      <use xlink:href="#DejaVuSans-70" x="124.267578"/>
      <use xlink:href="#DejaVuSans-6c" x="187.744141"/>
      <use xlink:href="#DejaVuSans-75" x="215.527344"/>
      <use xlink:href="#DejaVuSans-73" x="278.90625"/>
      <use xlink:href="#DejaVuSans-70" x="331.005859"/>
      <use xlink:href="#DejaVuSans-6c" x="394.482422"/>
      <use xlink:href="#DejaVuSans-75" x="422.265625"/>
      <use xlink:href="#DejaVuSans-73" x="485.644531"/>
      <use xlink:href="#DejaVuSans-2d" x="537.744141"/>
      <use xlink:href="#DejaVuSans-30" x="573.828125"/>
      <use xlink:href="#DejaVuSans-2d" x="637.451172"/>
      <use xlink:href="#DejaVuSans-65" x="673.535156"/>
      <use xlink:href="#DejaVuSans-78" x="733.308594"/>
      <use xlink:href="#DejaVuSans-69" x="792.488281"/>
      <use xlink:href="#DejaVuSans-64" x="820.271484"/>
      <use xlink:href="#DejaVuSans-31" x="883.748047"/>
     </g>
    </g>
    <g id="line2d_59">
     <path d="M 275.301 473.731625 
L 284.101 473.731625 
L 292.901 473.731625 
" style="fill: none; stroke: #57db94; stroke-width: 1.2; stroke-linecap: round"/>
    </g>
    <g id="text_53">
     <!-- symcc-0-exid1 -->
     <g style="fill: #262626" transform="translate(299.941 476.811625)scale(0.088 -0.088)">
      <defs>
       <path id="DejaVuSans-79" d="M 2059 -325 
Q 1816 -950 1584 -1140 
Q 1353 -1331 966 -1331 
L 506 -1331 
L 506 -850 
L 844 -850 
Q 1081 -850 1212 -737 
Q 1344 -625 1503 -206 
L 1606 56 
L 191 3500 
L 800 3500 
L 1894 763 
L 2988 3500 
L 3597 3500 
L 2059 -325 
z
" transform="scale(0.015625)"/>
       <path id="DejaVuSans-63" d="M 3122 3366 
L 3122 2828 
Q 2878 2963 2633 3030 
Q 2388 3097 2138 3097 
Q 1578 3097 1268 2742 
Q 959 2388 959 1747 
Q 959 1106 1268 751 
Q 1578 397 2138 397 
Q 2388 397 2633 464 
Q 2878 531 3122 666 
L 3122 134 
Q 2881 22 2623 -34 
Q 2366 -91 2075 -91 
Q 1284 -91 818 406 
Q 353 903 353 1747 
Q 353 2603 823 3093 
Q 1294 3584 2113 3584 
Q 2378 3584 2631 3529 
Q 2884 3475 3122 3366 
z
" transform="scale(0.015625)"/>
      </defs>
      <use xlink:href="#DejaVuSans-73"/>
      <use xlink:href="#DejaVuSans-79" x="52.099609"/>
      <use xlink:href="#DejaVuSans-6d" x="111.279297"/>
      <use xlink:href="#DejaVuSans-63" x="208.691406"/>
      <use xlink:href="#DejaVuSans-63" x="263.671875"/>
      <use xlink:href="#DejaVuSans-2d" x="318.652344"/>
      <use xlink:href="#DejaVuSans-30" x="354.736328"/>
      <use xlink:href="#DejaVuSans-2d" x="418.359375"/>
      <use xlink:href="#DejaVuSans-65" x="454.443359"/>
      <use xlink:href="#DejaVuSans-78" x="514.216797"/>
      <use xlink:href="#DejaVuSans-69" x="573.396484"/>
      <use xlink:href="#DejaVuSans-64" x="601.179688"/>
      <use xlink:href="#DejaVuSans-31" x="664.65625"/>
     </g>
    </g>
    <g id="line2d_60">
     <path d="M 275.301 486.648375 
L 284.101 486.648375 
L 292.901 486.648375 
" style="fill: none; stroke: #5784db; stroke-width: 1.2; stroke-linecap: round"/>
    </g>
    <g id="text_54">
     <!-- mopt-0-exid1 -->
     <g style="fill: #262626" transform="translate(299.941 489.728375)scale(0.088 -0.088)">
      <use xlink:href="#DejaVuSans-6d"/>
      <use xlink:href="#DejaVuSans-6f" x="97.412109"/>
      <use xlink:href="#DejaVuSans-70" x="158.59375"/>
      <use xlink:href="#DejaVuSans-74" x="222.070312"/>
      <use xlink:href="#DejaVuSans-2d" x="261.279297"/>
      <use xlink:href="#DejaVuSans-30" x="297.363281"/>
      <use xlink:href="#DejaVuSans-2d" x="360.986328"/>
      <use xlink:href="#DejaVuSans-65" x="397.070312"/>
      <use xlink:href="#DejaVuSans-78" x="456.84375"/>
      <use xlink:href="#DejaVuSans-69" x="516.023438"/>
      <use xlink:href="#DejaVuSans-64" x="543.806641"/>
      <use xlink:href="#DejaVuSans-31" x="607.283203"/>
     </g>
    </g>
    <g id="line2d_61">
     <path d="M 275.301 499.565125 
L 284.101 499.565125 
L 292.901 499.565125 
" style="fill: none; stroke: #c957db; stroke-width: 1.2; stroke-linecap: round"/>
    </g>
    <g id="text_55">
     <!-- fuzzer_global -->
     <g style="fill: #262626" transform="translate(299.941 502.645125)scale(0.088 -0.088)">
      <defs>
       <path id="DejaVuSans-5f" d="M 3263 -1063 
L 3263 -1509 
L -63 -1509 
L -63 -1063 
L 3263 -1063 
z
" transform="scale(0.015625)"/>
       <path id="DejaVuSans-62" d="M 3116 1747 
Q 3116 2381 2855 2742 
Q 2594 3103 2138 3103 
Q 1681 3103 1420 2742 
Q 1159 2381 1159 1747 
Q 1159 1113 1420 752 
Q 1681 391 2138 391 
Q 2594 391 2855 752 
Q 3116 1113 3116 1747 
z
M 1159 2969 
Q 1341 3281 1617 3432 
Q 1894 3584 2278 3584 
Q 2916 3584 3314 3078 
Q 3713 2572 3713 1747 
Q 3713 922 3314 415 
Q 2916 -91 2278 -91 
Q 1894 -91 1617 61 
Q 1341 213 1159 525 
L 1159 0 
L 581 0 
L 581 4863 
L 1159 4863 
L 1159 2969 
z
" transform="scale(0.015625)"/>
      </defs>
      <use xlink:href="#DejaVuSans-66"/>
      <use xlink:href="#DejaVuSans-75" x="35.205078"/>
      <use xlink:href="#DejaVuSans-7a" x="98.583984"/>
      <use xlink:href="#DejaVuSans-7a" x="151.074219"/>
      <use xlink:href="#DejaVuSans-65" x="203.564453"/>
      <use xlink:href="#DejaVuSans-72" x="265.087891"/>
      <use xlink:href="#DejaVuSans-5f" x="306.201172"/>
      <use xlink:href="#DejaVuSans-67" x="356.201172"/>
      <use xlink:href="#DejaVuSans-6c" x="419.677734"/>
      <use xlink:href="#DejaVuSans-6f" x="447.460938"/>
      <use xlink:href="#DejaVuSans-62" x="508.642578"/>
      <use xlink:href="#DejaVuSans-61" x="572.119141"/>
      <use xlink:href="#DejaVuSans-6c" x="633.398438"/>
     </g>
    </g>
   </g>
  </g>
 </g>
 <defs>
  <clipPath id="p02568bdc9f">
   <rect x="54.3375" y="69.12" width="336.8925" height="443.52"/>
  </clipPath>
 </defs>
</svg>
