<?xml version="1.0" encoding="utf-8" standalone="no"?>
<!DOCTYPE svg PUBLIC "-//W3C//DTD SVG 1.1//EN"
  "http://www.w3.org/Graphics/SVG/1.1/DTD/svg11.dtd">
<svg xmlns:xlink="http://www.w3.org/1999/xlink" width="434.4pt" height="576pt" viewBox="0 0 434.4 576" xmlns="http://www.w3.org/2000/svg" version="1.1">
 <metadata>
  <rdf:RDF xmlns:dc="http://purl.org/dc/elements/1.1/" xmlns:cc="http://creativecommons.org/ns#" xmlns:rdf="http://www.w3.org/1999/02/22-rdf-syntax-ns#">
   <cc:Work>
    <dc:type rdf:resource="http://purl.org/dc/dcmitype/StillImage"/>
    <dc:date>2022-09-15T09:05:42.718009</dc:date>
    <dc:format>image/svg+xml</dc:format>
    <dc:creator>
     <cc:Agent>
      <dc:title>Matplotlib v3.5.3, https://matplotlib.org/</dc:title>
     </cc:Agent>
    </dc:creator>
   </cc:Work>
  </rdf:RDF>
 </metadata>
 <defs>
  <style type="text/css">*{stroke-linejoin: round; stroke-linecap: butt}</style>
 </defs>
 <g id="figure_1">
  <g id="patch_1">
   <path d="M 0 576 
L 434.4 576 
L 434.4 0 
L 0 0 
z
" style="fill: #ffffff"/>
  </g>
  <g id="axes_1">
   <g id="patch_2">
    <path d="M 54.3 512.64 
L 390.96 512.64 
L 390.96 69.12 
L 54.3 69.12 
z
" style="fill: #ffffff"/>
   </g>
   <g id="matplotlib.axis_1">
    <g id="xtick_1">
     <g id="line2d_1">
      <path d="M 69.602727 512.64 
L 69.602727 69.12 
" clip-path="url(#pc8d54e1791)" style="fill: none; stroke: #cccccc; stroke-width: 0.8; stroke-linecap: round"/>
     </g>
     <g id="text_1">
      <!-- 0 -->
      <g style="fill: #262626" transform="translate(69.340214 529.627249)rotate(-45)scale(0.088 -0.088)">
       <defs>
        <path id="DejaVuSans-30" d="M 2034 4250 
Q 1547 4250 1301 3770 
Q 1056 3291 1056 2328 
Q 1056 1369 1301 889 
Q 1547 409 2034 409 
Q 2525 409 2770 889 
Q 3016 1369 3016 2328 
Q 3016 3291 2770 3770 
Q 2525 4250 2034 4250 
z
M 2034 4750 
Q 2819 4750 3233 4129 
Q 3647 3509 3647 2328 
Q 3647 1150 3233 529 
Q 2819 -91 2034 -91 
Q 1250 -91 836 529 
Q 422 1150 422 2328 
Q 422 3509 836 4129 
Q 1250 4750 2034 4750 
z
" transform="scale(0.015625)"/>
       </defs>
       <use xlink:href="#DejaVuSans-30"/>
      </g>
     </g>
    </g>
    <g id="xtick_2">
     <g id="line2d_2">
      <path d="M 86.629406 512.64 
L 86.629406 69.12 
" clip-path="url(#pc8d54e1791)" style="fill: none; stroke: #cccccc; stroke-width: 0.8; stroke-linecap: round"/>
     </g>
     <g id="text_2">
      <!-- 80 -->
      <g style="fill: #262626" transform="translate(84.387347 533.58634)rotate(-45)scale(0.088 -0.088)">
       <defs>
        <path id="DejaVuSans-38" d="M 2034 2216 
Q 1584 2216 1326 1975 
Q 1069 1734 1069 1313 
Q 1069 891 1326 650 
Q 1584 409 2034 409 
Q 2484 409 2743 651 
Q 3003 894 3003 1313 
Q 3003 1734 2745 1975 
Q 2488 2216 2034 2216 
z
M 1403 2484 
Q 997 2584 770 2862 
Q 544 3141 544 3541 
Q 544 4100 942 4425 
Q 1341 4750 2034 4750 
Q 2731 4750 3128 4425 
Q 3525 4100 3525 3541 
Q 3525 3141 3298 2862 
Q 3072 2584 2669 2484 
Q 3125 2378 3379 2068 
Q 3634 1759 3634 1313 
Q 3634 634 3220 271 
Q 2806 -91 2034 -91 
Q 1263 -91 848 271 
Q 434 634 434 1313 
Q 434 1759 690 2068 
Q 947 2378 1403 2484 
z
M 1172 3481 
Q 1172 3119 1398 2916 
Q 1625 2713 2034 2713 
Q 2441 2713 2670 2916 
Q 2900 3119 2900 3481 
Q 2900 3844 2670 4047 
Q 2441 4250 2034 4250 
Q 1625 4250 1398 4047 
Q 1172 3844 1172 3481 
z
" transform="scale(0.015625)"/>
       </defs>
       <use xlink:href="#DejaVuSans-38"/>
       <use xlink:href="#DejaVuSans-30" x="63.623047"/>
      </g>
     </g>
    </g>
    <g id="xtick_3">
     <g id="line2d_3">
      <path d="M 103.656084 512.64 
L 103.656084 69.12 
" clip-path="url(#pc8d54e1791)" style="fill: none; stroke: #cccccc; stroke-width: 0.8; stroke-linecap: round"/>
     </g>
     <g id="text_3">
      <!-- 160 -->
      <g style="fill: #262626" transform="translate(99.43448 537.54543)rotate(-45)scale(0.088 -0.088)">
       <defs>
        <path id="DejaVuSans-31" d="M 794 531 
L 1825 531 
L 1825 4091 
L 703 3866 
L 703 4441 
L 1819 4666 
L 2450 4666 
L 2450 531 
L 3481 531 
L 3481 0 
L 794 0 
L 794 531 
z
" transform="scale(0.015625)"/>
        <path id="DejaVuSans-36" d="M 2113 2584 
Q 1688 2584 1439 2293 
Q 1191 2003 1191 1497 
Q 1191 994 1439 701 
Q 1688 409 2113 409 
Q 2538 409 2786 701 
Q 3034 994 3034 1497 
Q 3034 2003 2786 2293 
Q 2538 2584 2113 2584 
z
M 3366 4563 
L 3366 3988 
Q 3128 4100 2886 4159 
Q 2644 4219 2406 4219 
Q 1781 4219 1451 3797 
Q 1122 3375 1075 2522 
Q 1259 2794 1537 2939 
Q 1816 3084 2150 3084 
Q 2853 3084 3261 2657 
Q 3669 2231 3669 1497 
Q 3669 778 3244 343 
Q 2819 -91 2113 -91 
Q 1303 -91 875 529 
Q 447 1150 447 2328 
Q 447 3434 972 4092 
Q 1497 4750 2381 4750 
Q 2619 4750 2861 4703 
Q 3103 4656 3366 4563 
z
" transform="scale(0.015625)"/>
       </defs>
       <use xlink:href="#DejaVuSans-31"/>
       <use xlink:href="#DejaVuSans-36" x="63.623047"/>
       <use xlink:href="#DejaVuSans-30" x="127.246094"/>
      </g>
     </g>
    </g>
    <g id="xtick_4">
     <g id="line2d_4">
      <path d="M 120.682763 512.64 
L 120.682763 69.12 
" clip-path="url(#pc8d54e1791)" style="fill: none; stroke: #cccccc; stroke-width: 0.8; stroke-linecap: round"/>
     </g>
     <g id="text_4">
      <!-- 240 -->
      <g style="fill: #262626" transform="translate(116.461158 537.54543)rotate(-45)scale(0.088 -0.088)">
       <defs>
        <path id="DejaVuSans-32" d="M 1228 531 
L 3431 531 
L 3431 0 
L 469 0 
L 469 531 
Q 828 903 1448 1529 
Q 2069 2156 2228 2338 
Q 2531 2678 2651 2914 
Q 2772 3150 2772 3378 
Q 2772 3750 2511 3984 
Q 2250 4219 1831 4219 
Q 1534 4219 1204 4116 
Q 875 4013 500 3803 
L 500 4441 
Q 881 4594 1212 4672 
Q 1544 4750 1819 4750 
Q 2544 4750 2975 4387 
Q 3406 4025 3406 3419 
Q 3406 3131 3298 2873 
Q 3191 2616 2906 2266 
Q 2828 2175 2409 1742 
Q 1991 1309 1228 531 
z
" transform="scale(0.015625)"/>
        <path id="DejaVuSans-34" d="M 2419 4116 
L 825 1625 
L 2419 1625 
L 2419 4116 
z
M 2253 4666 
L 3047 4666 
L 3047 1625 
L 3713 1625 
L 3713 1100 
L 3047 1100 
L 3047 0 
L 2419 0 
L 2419 1100 
L 313 1100 
L 313 1709 
L 2253 4666 
z
" transform="scale(0.015625)"/>
       </defs>
       <use xlink:href="#DejaVuSans-32"/>
       <use xlink:href="#DejaVuSans-34" x="63.623047"/>
       <use xlink:href="#DejaVuSans-30" x="127.246094"/>
      </g>
     </g>
    </g>
    <g id="xtick_5">
     <g id="line2d_5">
      <path d="M 137.709441 512.64 
L 137.709441 69.12 
" clip-path="url(#pc8d54e1791)" style="fill: none; stroke: #cccccc; stroke-width: 0.8; stroke-linecap: round"/>
     </g>
     <g id="text_5">
      <!-- 320 -->
      <g style="fill: #262626" transform="translate(133.487837 537.54543)rotate(-45)scale(0.088 -0.088)">
       <defs>
        <path id="DejaVuSans-33" d="M 2597 2516 
Q 3050 2419 3304 2112 
Q 3559 1806 3559 1356 
Q 3559 666 3084 287 
Q 2609 -91 1734 -91 
Q 1441 -91 1130 -33 
Q 819 25 488 141 
L 488 750 
Q 750 597 1062 519 
Q 1375 441 1716 441 
Q 2309 441 2620 675 
Q 2931 909 2931 1356 
Q 2931 1769 2642 2001 
Q 2353 2234 1838 2234 
L 1294 2234 
L 1294 2753 
L 1863 2753 
Q 2328 2753 2575 2939 
Q 2822 3125 2822 3475 
Q 2822 3834 2567 4026 
Q 2313 4219 1838 4219 
Q 1578 4219 1281 4162 
Q 984 4106 628 3988 
L 628 4550 
Q 988 4650 1302 4700 
Q 1616 4750 1894 4750 
Q 2613 4750 3031 4423 
Q 3450 4097 3450 3541 
Q 3450 3153 3228 2886 
Q 3006 2619 2597 2516 
z
" transform="scale(0.015625)"/>
       </defs>
       <use xlink:href="#DejaVuSans-33"/>
       <use xlink:href="#DejaVuSans-32" x="63.623047"/>
       <use xlink:href="#DejaVuSans-30" x="127.246094"/>
      </g>
     </g>
    </g>
    <g id="xtick_6">
     <g id="line2d_6">
      <path d="M 154.73612 512.64 
L 154.73612 69.12 
" clip-path="url(#pc8d54e1791)" style="fill: none; stroke: #cccccc; stroke-width: 0.8; stroke-linecap: round"/>
     </g>
     <g id="text_6">
      <!-- 400 -->
      <g style="fill: #262626" transform="translate(150.514515 537.54543)rotate(-45)scale(0.088 -0.088)">
       <use xlink:href="#DejaVuSans-34"/>
       <use xlink:href="#DejaVuSans-30" x="63.623047"/>
       <use xlink:href="#DejaVuSans-30" x="127.246094"/>
      </g>
     </g>
    </g>
    <g id="xtick_7">
     <g id="line2d_7">
      <path d="M 171.762798 512.64 
L 171.762798 69.12 
" clip-path="url(#pc8d54e1791)" style="fill: none; stroke: #cccccc; stroke-width: 0.8; stroke-linecap: round"/>
     </g>
     <g id="text_7">
      <!-- 480 -->
      <g style="fill: #262626" transform="translate(167.541194 537.54543)rotate(-45)scale(0.088 -0.088)">
       <use xlink:href="#DejaVuSans-34"/>
       <use xlink:href="#DejaVuSans-38" x="63.623047"/>
       <use xlink:href="#DejaVuSans-30" x="127.246094"/>
      </g>
     </g>
    </g>
    <g id="xtick_8">
     <g id="line2d_8">
      <path d="M 188.789477 512.64 
L 188.789477 69.12 
" clip-path="url(#pc8d54e1791)" style="fill: none; stroke: #cccccc; stroke-width: 0.8; stroke-linecap: round"/>
     </g>
     <g id="text_8">
      <!-- 560 -->
      <g style="fill: #262626" transform="translate(184.567872 537.54543)rotate(-45)scale(0.088 -0.088)">
       <defs>
        <path id="DejaVuSans-35" d="M 691 4666 
L 3169 4666 
L 3169 4134 
L 1269 4134 
L 1269 2991 
Q 1406 3038 1543 3061 
Q 1681 3084 1819 3084 
Q 2600 3084 3056 2656 
Q 3513 2228 3513 1497 
Q 3513 744 3044 326 
Q 2575 -91 1722 -91 
Q 1428 -91 1123 -41 
Q 819 9 494 109 
L 494 744 
Q 775 591 1075 516 
Q 1375 441 1709 441 
Q 2250 441 2565 725 
Q 2881 1009 2881 1497 
Q 2881 1984 2565 2268 
Q 2250 2553 1709 2553 
Q 1456 2553 1204 2497 
Q 953 2441 691 2322 
L 691 4666 
z
" transform="scale(0.015625)"/>
       </defs>
       <use xlink:href="#DejaVuSans-35"/>
       <use xlink:href="#DejaVuSans-36" x="63.623047"/>
       <use xlink:href="#DejaVuSans-30" x="127.246094"/>
      </g>
     </g>
    </g>
    <g id="xtick_9">
     <g id="line2d_9">
      <path d="M 205.816155 512.64 
L 205.816155 69.12 
" clip-path="url(#pc8d54e1791)" style="fill: none; stroke: #cccccc; stroke-width: 0.8; stroke-linecap: round"/>
     </g>
     <g id="text_9">
      <!-- 640 -->
      <g style="fill: #262626" transform="translate(201.594551 537.54543)rotate(-45)scale(0.088 -0.088)">
       <use xlink:href="#DejaVuSans-36"/>
       <use xlink:href="#DejaVuSans-34" x="63.623047"/>
       <use xlink:href="#DejaVuSans-30" x="127.246094"/>
      </g>
     </g>
    </g>
    <g id="xtick_10">
     <g id="line2d_10">
      <path d="M 222.842833 512.64 
L 222.842833 69.12 
" clip-path="url(#pc8d54e1791)" style="fill: none; stroke: #cccccc; stroke-width: 0.8; stroke-linecap: round"/>
     </g>
     <g id="text_10">
      <!-- 720 -->
      <g style="fill: #262626" transform="translate(218.621229 537.54543)rotate(-45)scale(0.088 -0.088)">
       <defs>
        <path id="DejaVuSans-37" d="M 525 4666 
L 3525 4666 
L 3525 4397 
L 1831 0 
L 1172 0 
L 2766 4134 
L 525 4134 
L 525 4666 
z
" transform="scale(0.015625)"/>
       </defs>
       <use xlink:href="#DejaVuSans-37"/>
       <use xlink:href="#DejaVuSans-32" x="63.623047"/>
       <use xlink:href="#DejaVuSans-30" x="127.246094"/>
      </g>
     </g>
    </g>
    <g id="xtick_11">
     <g id="line2d_11">
      <path d="M 239.869512 512.64 
L 239.869512 69.12 
" clip-path="url(#pc8d54e1791)" style="fill: none; stroke: #cccccc; stroke-width: 0.8; stroke-linecap: round"/>
     </g>
     <g id="text_11">
      <!-- 800 -->
      <g style="fill: #262626" transform="translate(235.647908 537.54543)rotate(-45)scale(0.088 -0.088)">
       <use xlink:href="#DejaVuSans-38"/>
       <use xlink:href="#DejaVuSans-30" x="63.623047"/>
       <use xlink:href="#DejaVuSans-30" x="127.246094"/>
      </g>
     </g>
    </g>
    <g id="xtick_12">
     <g id="line2d_12">
      <path d="M 256.89619 512.64 
L 256.89619 69.12 
" clip-path="url(#pc8d54e1791)" style="fill: none; stroke: #cccccc; stroke-width: 0.8; stroke-linecap: round"/>
     </g>
     <g id="text_12">
      <!-- 880 -->
      <g style="fill: #262626" transform="translate(252.674586 537.54543)rotate(-45)scale(0.088 -0.088)">
       <use xlink:href="#DejaVuSans-38"/>
       <use xlink:href="#DejaVuSans-38" x="63.623047"/>
       <use xlink:href="#DejaVuSans-30" x="127.246094"/>
      </g>
     </g>
    </g>
    <g id="xtick_13">
     <g id="line2d_13">
      <path d="M 273.922869 512.64 
L 273.922869 69.12 
" clip-path="url(#pc8d54e1791)" style="fill: none; stroke: #cccccc; stroke-width: 0.8; stroke-linecap: round"/>
     </g>
     <g id="text_13">
      <!-- 960 -->
      <g style="fill: #262626" transform="translate(269.701265 537.54543)rotate(-45)scale(0.088 -0.088)">
       <defs>
        <path id="DejaVuSans-39" d="M 703 97 
L 703 672 
Q 941 559 1184 500 
Q 1428 441 1663 441 
Q 2288 441 2617 861 
Q 2947 1281 2994 2138 
Q 2813 1869 2534 1725 
Q 2256 1581 1919 1581 
Q 1219 1581 811 2004 
Q 403 2428 403 3163 
Q 403 3881 828 4315 
Q 1253 4750 1959 4750 
Q 2769 4750 3195 4129 
Q 3622 3509 3622 2328 
Q 3622 1225 3098 567 
Q 2575 -91 1691 -91 
Q 1453 -91 1209 -44 
Q 966 3 703 97 
z
M 1959 2075 
Q 2384 2075 2632 2365 
Q 2881 2656 2881 3163 
Q 2881 3666 2632 3958 
Q 2384 4250 1959 4250 
Q 1534 4250 1286 3958 
Q 1038 3666 1038 3163 
Q 1038 2656 1286 2365 
Q 1534 2075 1959 2075 
z
" transform="scale(0.015625)"/>
       </defs>
       <use xlink:href="#DejaVuSans-39"/>
       <use xlink:href="#DejaVuSans-36" x="63.623047"/>
       <use xlink:href="#DejaVuSans-30" x="127.246094"/>
      </g>
     </g>
    </g>
    <g id="xtick_14">
     <g id="line2d_14">
      <path d="M 290.949547 512.64 
L 290.949547 69.12 
" clip-path="url(#pc8d54e1791)" style="fill: none; stroke: #cccccc; stroke-width: 0.8; stroke-linecap: round"/>
     </g>
     <g id="text_14">
      <!-- 1040 -->
      <g style="fill: #262626" transform="translate(284.748398 541.504521)rotate(-45)scale(0.088 -0.088)">
       <use xlink:href="#DejaVuSans-31"/>
       <use xlink:href="#DejaVuSans-30" x="63.623047"/>
       <use xlink:href="#DejaVuSans-34" x="127.246094"/>
       <use xlink:href="#DejaVuSans-30" x="190.869141"/>
      </g>
     </g>
    </g>
    <g id="xtick_15">
     <g id="line2d_15">
      <path d="M 307.976226 512.64 
L 307.976226 69.12 
" clip-path="url(#pc8d54e1791)" style="fill: none; stroke: #cccccc; stroke-width: 0.8; stroke-linecap: round"/>
     </g>
     <g id="text_15">
      <!-- 1120 -->
      <g style="fill: #262626" transform="translate(301.775076 541.504521)rotate(-45)scale(0.088 -0.088)">
       <use xlink:href="#DejaVuSans-31"/>
       <use xlink:href="#DejaVuSans-31" x="63.623047"/>
       <use xlink:href="#DejaVuSans-32" x="127.246094"/>
       <use xlink:href="#DejaVuSans-30" x="190.869141"/>
      </g>
     </g>
    </g>
    <g id="xtick_16">
     <g id="line2d_16">
      <path d="M 325.002904 512.64 
L 325.002904 69.12 
" clip-path="url(#pc8d54e1791)" style="fill: none; stroke: #cccccc; stroke-width: 0.8; stroke-linecap: round"/>
     </g>
     <g id="text_16">
      <!-- 1200 -->
      <g style="fill: #262626" transform="translate(318.801755 541.504521)rotate(-45)scale(0.088 -0.088)">
       <use xlink:href="#DejaVuSans-31"/>
       <use xlink:href="#DejaVuSans-32" x="63.623047"/>
       <use xlink:href="#DejaVuSans-30" x="127.246094"/>
       <use xlink:href="#DejaVuSans-30" x="190.869141"/>
      </g>
     </g>
    </g>
    <g id="xtick_17">
     <g id="line2d_17">
      <path d="M 342.029583 512.64 
L 342.029583 69.12 
" clip-path="url(#pc8d54e1791)" style="fill: none; stroke: #cccccc; stroke-width: 0.8; stroke-linecap: round"/>
     </g>
     <g id="text_17">
      <!-- 1280 -->
      <g style="fill: #262626" transform="translate(335.828433 541.504521)rotate(-45)scale(0.088 -0.088)">
       <use xlink:href="#DejaVuSans-31"/>
       <use xlink:href="#DejaVuSans-32" x="63.623047"/>
       <use xlink:href="#DejaVuSans-38" x="127.246094"/>
       <use xlink:href="#DejaVuSans-30" x="190.869141"/>
      </g>
     </g>
    </g>
    <g id="xtick_18">
     <g id="line2d_18">
      <path d="M 359.056261 512.64 
L 359.056261 69.12 
" clip-path="url(#pc8d54e1791)" style="fill: none; stroke: #cccccc; stroke-width: 0.8; stroke-linecap: round"/>
     </g>
     <g id="text_18">
      <!-- 1360 -->
      <g style="fill: #262626" transform="translate(352.855112 541.504521)rotate(-45)scale(0.088 -0.088)">
       <use xlink:href="#DejaVuSans-31"/>
       <use xlink:href="#DejaVuSans-33" x="63.623047"/>
       <use xlink:href="#DejaVuSans-36" x="127.246094"/>
       <use xlink:href="#DejaVuSans-30" x="190.869141"/>
      </g>
     </g>
    </g>
    <g id="xtick_19">
     <g id="line2d_19">
      <path d="M 376.08294 512.64 
L 376.08294 69.12 
" clip-path="url(#pc8d54e1791)" style="fill: none; stroke: #cccccc; stroke-width: 0.8; stroke-linecap: round"/>
     </g>
     <g id="text_19">
      <!-- 1440 -->
      <g style="fill: #262626" transform="translate(369.88179 541.504521)rotate(-45)scale(0.088 -0.088)">
       <use xlink:href="#DejaVuSans-31"/>
       <use xlink:href="#DejaVuSans-34" x="63.623047"/>
       <use xlink:href="#DejaVuSans-34" x="127.246094"/>
       <use xlink:href="#DejaVuSans-30" x="190.869141"/>
      </g>
     </g>
    </g>
    <g id="text_20">
     <!-- Time (Minutes) -->
     <g style="fill: #262626" transform="translate(186.72 554.093115)scale(0.096 -0.096)">
      <defs>
       <path id="DejaVuSans-54" d="M -19 4666 
L 3928 4666 
L 3928 4134 
L 2272 4134 
L 2272 0 
L 1638 0 
L 1638 4134 
L -19 4134 
L -19 4666 
z
" transform="scale(0.015625)"/>
       <path id="DejaVuSans-69" d="M 603 3500 
L 1178 3500 
L 1178 0 
L 603 0 
L 603 3500 
z
M 603 4863 
L 1178 4863 
L 1178 4134 
L 603 4134 
L 603 4863 
z
" transform="scale(0.015625)"/>
       <path id="DejaVuSans-6d" d="M 3328 2828 
Q 3544 3216 3844 3400 
Q 4144 3584 4550 3584 
Q 5097 3584 5394 3201 
Q 5691 2819 5691 2113 
L 5691 0 
L 5113 0 
L 5113 2094 
Q 5113 2597 4934 2840 
Q 4756 3084 4391 3084 
Q 3944 3084 3684 2787 
Q 3425 2491 3425 1978 
L 3425 0 
L 2847 0 
L 2847 2094 
Q 2847 2600 2669 2842 
Q 2491 3084 2119 3084 
Q 1678 3084 1418 2786 
Q 1159 2488 1159 1978 
L 1159 0 
L 581 0 
L 581 3500 
L 1159 3500 
L 1159 2956 
Q 1356 3278 1631 3431 
Q 1906 3584 2284 3584 
Q 2666 3584 2933 3390 
Q 3200 3197 3328 2828 
z
" transform="scale(0.015625)"/>
       <path id="DejaVuSans-65" d="M 3597 1894 
L 3597 1613 
L 953 1613 
Q 991 1019 1311 708 
Q 1631 397 2203 397 
Q 2534 397 2845 478 
Q 3156 559 3463 722 
L 3463 178 
Q 3153 47 2828 -22 
Q 2503 -91 2169 -91 
Q 1331 -91 842 396 
Q 353 884 353 1716 
Q 353 2575 817 3079 
Q 1281 3584 2069 3584 
Q 2775 3584 3186 3129 
Q 3597 2675 3597 1894 
z
M 3022 2063 
Q 3016 2534 2758 2815 
Q 2500 3097 2075 3097 
Q 1594 3097 1305 2825 
Q 1016 2553 972 2059 
L 3022 2063 
z
" transform="scale(0.015625)"/>
       <path id="DejaVuSans-20" transform="scale(0.015625)"/>
       <path id="DejaVuSans-28" d="M 1984 4856 
Q 1566 4138 1362 3434 
Q 1159 2731 1159 2009 
Q 1159 1288 1364 580 
Q 1569 -128 1984 -844 
L 1484 -844 
Q 1016 -109 783 600 
Q 550 1309 550 2009 
Q 550 2706 781 3412 
Q 1013 4119 1484 4856 
L 1984 4856 
z
" transform="scale(0.015625)"/>
       <path id="DejaVuSans-4d" d="M 628 4666 
L 1569 4666 
L 2759 1491 
L 3956 4666 
L 4897 4666 
L 4897 0 
L 4281 0 
L 4281 4097 
L 3078 897 
L 2444 897 
L 1241 4097 
L 1241 0 
L 628 0 
L 628 4666 
z
" transform="scale(0.015625)"/>
       <path id="DejaVuSans-6e" d="M 3513 2113 
L 3513 0 
L 2938 0 
L 2938 2094 
Q 2938 2591 2744 2837 
Q 2550 3084 2163 3084 
Q 1697 3084 1428 2787 
Q 1159 2491 1159 1978 
L 1159 0 
L 581 0 
L 581 3500 
L 1159 3500 
L 1159 2956 
Q 1366 3272 1645 3428 
Q 1925 3584 2291 3584 
Q 2894 3584 3203 3211 
Q 3513 2838 3513 2113 
z
" transform="scale(0.015625)"/>
       <path id="DejaVuSans-75" d="M 544 1381 
L 544 3500 
L 1119 3500 
L 1119 1403 
Q 1119 906 1312 657 
Q 1506 409 1894 409 
Q 2359 409 2629 706 
Q 2900 1003 2900 1516 
L 2900 3500 
L 3475 3500 
L 3475 0 
L 2900 0 
L 2900 538 
Q 2691 219 2414 64 
Q 2138 -91 1772 -91 
Q 1169 -91 856 284 
Q 544 659 544 1381 
z
M 1991 3584 
L 1991 3584 
z
" transform="scale(0.015625)"/>
       <path id="DejaVuSans-74" d="M 1172 4494 
L 1172 3500 
L 2356 3500 
L 2356 3053 
L 1172 3053 
L 1172 1153 
Q 1172 725 1289 603 
Q 1406 481 1766 481 
L 2356 481 
L 2356 0 
L 1766 0 
Q 1100 0 847 248 
Q 594 497 594 1153 
L 594 3053 
L 172 3053 
L 172 3500 
L 594 3500 
L 594 4494 
L 1172 4494 
z
" transform="scale(0.015625)"/>
       <path id="DejaVuSans-73" d="M 2834 3397 
L 2834 2853 
Q 2591 2978 2328 3040 
Q 2066 3103 1784 3103 
Q 1356 3103 1142 2972 
Q 928 2841 928 2578 
Q 928 2378 1081 2264 
Q 1234 2150 1697 2047 
L 1894 2003 
Q 2506 1872 2764 1633 
Q 3022 1394 3022 966 
Q 3022 478 2636 193 
Q 2250 -91 1575 -91 
Q 1294 -91 989 -36 
Q 684 19 347 128 
L 347 722 
Q 666 556 975 473 
Q 1284 391 1588 391 
Q 1994 391 2212 530 
Q 2431 669 2431 922 
Q 2431 1156 2273 1281 
Q 2116 1406 1581 1522 
L 1381 1569 
Q 847 1681 609 1914 
Q 372 2147 372 2553 
Q 372 3047 722 3315 
Q 1072 3584 1716 3584 
Q 2034 3584 2315 3537 
Q 2597 3491 2834 3397 
z
" transform="scale(0.015625)"/>
       <path id="DejaVuSans-29" d="M 513 4856 
L 1013 4856 
Q 1481 4119 1714 3412 
Q 1947 2706 1947 2009 
Q 1947 1309 1714 600 
Q 1481 -109 1013 -844 
L 513 -844 
Q 928 -128 1133 580 
Q 1338 1288 1338 2009 
Q 1338 2731 1133 3434 
Q 928 4138 513 4856 
z
" transform="scale(0.015625)"/>
      </defs>
      <use xlink:href="#DejaVuSans-54"/>
      <use xlink:href="#DejaVuSans-69" x="57.958984"/>
      <use xlink:href="#DejaVuSans-6d" x="85.742188"/>
      <use xlink:href="#DejaVuSans-65" x="183.154297"/>
      <use xlink:href="#DejaVuSans-20" x="244.677734"/>
      <use xlink:href="#DejaVuSans-28" x="276.464844"/>
      <use xlink:href="#DejaVuSans-4d" x="315.478516"/>
      <use xlink:href="#DejaVuSans-69" x="401.757812"/>
      <use xlink:href="#DejaVuSans-6e" x="429.541016"/>
      <use xlink:href="#DejaVuSans-75" x="492.919922"/>
      <use xlink:href="#DejaVuSans-74" x="556.298828"/>
      <use xlink:href="#DejaVuSans-65" x="595.507812"/>
      <use xlink:href="#DejaVuSans-73" x="657.03125"/>
      <use xlink:href="#DejaVuSans-29" x="709.130859"/>
     </g>
    </g>
   </g>
   <g id="matplotlib.axis_2">
    <g id="ytick_1">
     <g id="line2d_20">
      <path d="M 54.3 492.48 
L 390.96 492.48 
" clip-path="url(#pc8d54e1791)" style="fill: none; stroke: #cccccc; stroke-width: 0.8; stroke-linecap: round"/>
     </g>
     <g id="text_21">
      <!-- 0 -->
      <g style="fill: #262626" transform="translate(40.401 495.823312)scale(0.088 -0.088)">
       <use xlink:href="#DejaVuSans-30"/>
      </g>
     </g>
    </g>
    <g id="ytick_2">
     <g id="line2d_21">
      <path d="M 54.3 452.11964 
L 390.96 452.11964 
" clip-path="url(#pc8d54e1791)" style="fill: none; stroke: #cccccc; stroke-width: 0.8; stroke-linecap: round"/>
     </g>
     <g id="text_22">
      <!-- 100 -->
      <g style="fill: #262626" transform="translate(29.203 455.462952)scale(0.088 -0.088)">
       <use xlink:href="#DejaVuSans-31"/>
       <use xlink:href="#DejaVuSans-30" x="63.623047"/>
       <use xlink:href="#DejaVuSans-30" x="127.246094"/>
      </g>
     </g>
    </g>
    <g id="ytick_3">
     <g id="line2d_22">
      <path d="M 54.3 411.759279 
L 390.96 411.759279 
" clip-path="url(#pc8d54e1791)" style="fill: none; stroke: #cccccc; stroke-width: 0.8; stroke-linecap: round"/>
     </g>
     <g id="text_23">
      <!-- 200 -->
      <g style="fill: #262626" transform="translate(29.203 415.102592)scale(0.088 -0.088)">
       <use xlink:href="#DejaVuSans-32"/>
       <use xlink:href="#DejaVuSans-30" x="63.623047"/>
       <use xlink:href="#DejaVuSans-30" x="127.246094"/>
      </g>
     </g>
    </g>
    <g id="ytick_4">
     <g id="line2d_23">
      <path d="M 54.3 371.398919 
L 390.96 371.398919 
" clip-path="url(#pc8d54e1791)" style="fill: none; stroke: #cccccc; stroke-width: 0.8; stroke-linecap: round"/>
     </g>
     <g id="text_24">
      <!-- 300 -->
      <g style="fill: #262626" transform="translate(29.203 374.742231)scale(0.088 -0.088)">
       <use xlink:href="#DejaVuSans-33"/>
       <use xlink:href="#DejaVuSans-30" x="63.623047"/>
       <use xlink:href="#DejaVuSans-30" x="127.246094"/>
      </g>
     </g>
    </g>
    <g id="ytick_5">
     <g id="line2d_24">
      <path d="M 54.3 331.038559 
L 390.96 331.038559 
" clip-path="url(#pc8d54e1791)" style="fill: none; stroke: #cccccc; stroke-width: 0.8; stroke-linecap: round"/>
     </g>
     <g id="text_25">
      <!-- 400 -->
      <g style="fill: #262626" transform="translate(29.203 334.381871)scale(0.088 -0.088)">
       <use xlink:href="#DejaVuSans-34"/>
       <use xlink:href="#DejaVuSans-30" x="63.623047"/>
       <use xlink:href="#DejaVuSans-30" x="127.246094"/>
      </g>
     </g>
    </g>
    <g id="ytick_6">
     <g id="line2d_25">
      <path d="M 54.3 290.678198 
L 390.96 290.678198 
" clip-path="url(#pc8d54e1791)" style="fill: none; stroke: #cccccc; stroke-width: 0.8; stroke-linecap: round"/>
     </g>
     <g id="text_26">
      <!-- 500 -->
      <g style="fill: #262626" transform="translate(29.203 294.021511)scale(0.088 -0.088)">
       <use xlink:href="#DejaVuSans-35"/>
       <use xlink:href="#DejaVuSans-30" x="63.623047"/>
       <use xlink:href="#DejaVuSans-30" x="127.246094"/>
      </g>
     </g>
    </g>
    <g id="ytick_7">
     <g id="line2d_26">
      <path d="M 54.3 250.317838 
L 390.96 250.317838 
" clip-path="url(#pc8d54e1791)" style="fill: none; stroke: #cccccc; stroke-width: 0.8; stroke-linecap: round"/>
     </g>
     <g id="text_27">
      <!-- 600 -->
      <g style="fill: #262626" transform="translate(29.203 253.66115)scale(0.088 -0.088)">
       <use xlink:href="#DejaVuSans-36"/>
       <use xlink:href="#DejaVuSans-30" x="63.623047"/>
       <use xlink:href="#DejaVuSans-30" x="127.246094"/>
      </g>
     </g>
    </g>
    <g id="ytick_8">
     <g id="line2d_27">
      <path d="M 54.3 209.957477 
L 390.96 209.957477 
" clip-path="url(#pc8d54e1791)" style="fill: none; stroke: #cccccc; stroke-width: 0.8; stroke-linecap: round"/>
     </g>
     <g id="text_28">
      <!-- 700 -->
      <g style="fill: #262626" transform="translate(29.203 213.30079)scale(0.088 -0.088)">
       <use xlink:href="#DejaVuSans-37"/>
       <use xlink:href="#DejaVuSans-30" x="63.623047"/>
       <use xlink:href="#DejaVuSans-30" x="127.246094"/>
      </g>
     </g>
    </g>
    <g id="ytick_9">
     <g id="line2d_28">
      <path d="M 54.3 169.597117 
L 390.96 169.597117 
" clip-path="url(#pc8d54e1791)" style="fill: none; stroke: #cccccc; stroke-width: 0.8; stroke-linecap: round"/>
     </g>
     <g id="text_29">
      <!-- 800 -->
      <g style="fill: #262626" transform="translate(29.203 172.94043)scale(0.088 -0.088)">
       <use xlink:href="#DejaVuSans-38"/>
       <use xlink:href="#DejaVuSans-30" x="63.623047"/>
       <use xlink:href="#DejaVuSans-30" x="127.246094"/>
      </g>
     </g>
    </g>
    <g id="ytick_10">
     <g id="line2d_29">
      <path d="M 54.3 129.236757 
L 390.96 129.236757 
" clip-path="url(#pc8d54e1791)" style="fill: none; stroke: #cccccc; stroke-width: 0.8; stroke-linecap: round"/>
     </g>
     <g id="text_30">
      <!-- 900 -->
      <g style="fill: #262626" transform="translate(29.203 132.580069)scale(0.088 -0.088)">
       <use xlink:href="#DejaVuSans-39"/>
       <use xlink:href="#DejaVuSans-30" x="63.623047"/>
       <use xlink:href="#DejaVuSans-30" x="127.246094"/>
      </g>
     </g>
    </g>
    <g id="text_31">
     <!-- Edge Coverages -->
     <g style="fill: #262626" transform="translate(23.2065 329.98575)rotate(-90)scale(0.096 -0.096)">
      <defs>
       <path id="DejaVuSans-45" d="M 628 4666 
L 3578 4666 
L 3578 4134 
L 1259 4134 
L 1259 2753 
L 3481 2753 
L 3481 2222 
L 1259 2222 
L 1259 531 
L 3634 531 
L 3634 0 
L 628 0 
L 628 4666 
z
" transform="scale(0.015625)"/>
       <path id="DejaVuSans-64" d="M 2906 2969 
L 2906 4863 
L 3481 4863 
L 3481 0 
L 2906 0 
L 2906 525 
Q 2725 213 2448 61 
Q 2172 -91 1784 -91 
Q 1150 -91 751 415 
Q 353 922 353 1747 
Q 353 2572 751 3078 
Q 1150 3584 1784 3584 
Q 2172 3584 2448 3432 
Q 2725 3281 2906 2969 
z
M 947 1747 
Q 947 1113 1208 752 
Q 1469 391 1925 391 
Q 2381 391 2643 752 
Q 2906 1113 2906 1747 
Q 2906 2381 2643 2742 
Q 2381 3103 1925 3103 
Q 1469 3103 1208 2742 
Q 947 2381 947 1747 
z
" transform="scale(0.015625)"/>
       <path id="DejaVuSans-67" d="M 2906 1791 
Q 2906 2416 2648 2759 
Q 2391 3103 1925 3103 
Q 1463 3103 1205 2759 
Q 947 2416 947 1791 
Q 947 1169 1205 825 
Q 1463 481 1925 481 
Q 2391 481 2648 825 
Q 2906 1169 2906 1791 
z
M 3481 434 
Q 3481 -459 3084 -895 
Q 2688 -1331 1869 -1331 
Q 1566 -1331 1297 -1286 
Q 1028 -1241 775 -1147 
L 775 -588 
Q 1028 -725 1275 -790 
Q 1522 -856 1778 -856 
Q 2344 -856 2625 -561 
Q 2906 -266 2906 331 
L 2906 616 
Q 2728 306 2450 153 
Q 2172 0 1784 0 
Q 1141 0 747 490 
Q 353 981 353 1791 
Q 353 2603 747 3093 
Q 1141 3584 1784 3584 
Q 2172 3584 2450 3431 
Q 2728 3278 2906 2969 
L 2906 3500 
L 3481 3500 
L 3481 434 
z
" transform="scale(0.015625)"/>
       <path id="DejaVuSans-43" d="M 4122 4306 
L 4122 3641 
Q 3803 3938 3442 4084 
Q 3081 4231 2675 4231 
Q 1875 4231 1450 3742 
Q 1025 3253 1025 2328 
Q 1025 1406 1450 917 
Q 1875 428 2675 428 
Q 3081 428 3442 575 
Q 3803 722 4122 1019 
L 4122 359 
Q 3791 134 3420 21 
Q 3050 -91 2638 -91 
Q 1578 -91 968 557 
Q 359 1206 359 2328 
Q 359 3453 968 4101 
Q 1578 4750 2638 4750 
Q 3056 4750 3426 4639 
Q 3797 4528 4122 4306 
z
" transform="scale(0.015625)"/>
       <path id="DejaVuSans-6f" d="M 1959 3097 
Q 1497 3097 1228 2736 
Q 959 2375 959 1747 
Q 959 1119 1226 758 
Q 1494 397 1959 397 
Q 2419 397 2687 759 
Q 2956 1122 2956 1747 
Q 2956 2369 2687 2733 
Q 2419 3097 1959 3097 
z
M 1959 3584 
Q 2709 3584 3137 3096 
Q 3566 2609 3566 1747 
Q 3566 888 3137 398 
Q 2709 -91 1959 -91 
Q 1206 -91 779 398 
Q 353 888 353 1747 
Q 353 2609 779 3096 
Q 1206 3584 1959 3584 
z
" transform="scale(0.015625)"/>
       <path id="DejaVuSans-76" d="M 191 3500 
L 800 3500 
L 1894 563 
L 2988 3500 
L 3597 3500 
L 2284 0 
L 1503 0 
L 191 3500 
z
" transform="scale(0.015625)"/>
       <path id="DejaVuSans-72" d="M 2631 2963 
Q 2534 3019 2420 3045 
Q 2306 3072 2169 3072 
Q 1681 3072 1420 2755 
Q 1159 2438 1159 1844 
L 1159 0 
L 581 0 
L 581 3500 
L 1159 3500 
L 1159 2956 
Q 1341 3275 1631 3429 
Q 1922 3584 2338 3584 
Q 2397 3584 2469 3576 
Q 2541 3569 2628 3553 
L 2631 2963 
z
" transform="scale(0.015625)"/>
       <path id="DejaVuSans-61" d="M 2194 1759 
Q 1497 1759 1228 1600 
Q 959 1441 959 1056 
Q 959 750 1161 570 
Q 1363 391 1709 391 
Q 2188 391 2477 730 
Q 2766 1069 2766 1631 
L 2766 1759 
L 2194 1759 
z
M 3341 1997 
L 3341 0 
L 2766 0 
L 2766 531 
Q 2569 213 2275 61 
Q 1981 -91 1556 -91 
Q 1019 -91 701 211 
Q 384 513 384 1019 
Q 384 1609 779 1909 
Q 1175 2209 1959 2209 
L 2766 2209 
L 2766 2266 
Q 2766 2663 2505 2880 
Q 2244 3097 1772 3097 
Q 1472 3097 1187 3025 
Q 903 2953 641 2809 
L 641 3341 
Q 956 3463 1253 3523 
Q 1550 3584 1831 3584 
Q 2591 3584 2966 3190 
Q 3341 2797 3341 1997 
z
" transform="scale(0.015625)"/>
      </defs>
      <use xlink:href="#DejaVuSans-45"/>
      <use xlink:href="#DejaVuSans-64" x="63.183594"/>
      <use xlink:href="#DejaVuSans-67" x="126.660156"/>
      <use xlink:href="#DejaVuSans-65" x="190.136719"/>
      <use xlink:href="#DejaVuSans-20" x="251.660156"/>
      <use xlink:href="#DejaVuSans-43" x="283.447266"/>
      <use xlink:href="#DejaVuSans-6f" x="353.271484"/>
      <use xlink:href="#DejaVuSans-76" x="414.453125"/>
      <use xlink:href="#DejaVuSans-65" x="473.632812"/>
      <use xlink:href="#DejaVuSans-72" x="535.15625"/>
      <use xlink:href="#DejaVuSans-61" x="576.269531"/>
      <use xlink:href="#DejaVuSans-67" x="637.548828"/>
      <use xlink:href="#DejaVuSans-65" x="701.025391"/>
      <use xlink:href="#DejaVuSans-73" x="762.548828"/>
     </g>
    </g>
   </g>
   <g id="PolyCollection_1">
    <defs>
     <path id="md56b92680f" d="M 69.602727 -89.17045 
L 69.602727 -83.52 
L 69.602727 -89.17045 
L 69.602727 -89.17045 
z
" style="stroke: #db5f57; stroke-opacity: 0.2; stroke-width: 0.8"/>
    </defs>
    <g clip-path="url(#pc8d54e1791)">
     <use xlink:href="#md56b92680f" x="0" y="576" style="fill: #db5f57; fill-opacity: 0.2; stroke: #db5f57; stroke-opacity: 0.2; stroke-width: 0.8"/>
    </g>
   </g>
   <g id="PolyCollection_2">
    <defs>
     <path id="m038460d60b" d="M 69.602727 -95.224505 
L 69.602727 -83.52 
L 69.602727 -95.224505 
L 69.602727 -95.224505 
z
" style="stroke: #b9db57; stroke-opacity: 0.2; stroke-width: 0.8"/>
    </defs>
    <g clip-path="url(#pc8d54e1791)">
     <use xlink:href="#m038460d60b" x="0" y="576" style="fill: #b9db57; fill-opacity: 0.2; stroke: #b9db57; stroke-opacity: 0.2; stroke-width: 0.8"/>
    </g>
   </g>
   <g id="PolyCollection_3">
    <defs>
     <path id="md31bb14474" d="M 69.602727 -117.019099 
L 69.602727 -83.52 
L 69.602727 -117.019099 
L 69.602727 -117.019099 
z
" style="stroke: #57db94; stroke-opacity: 0.2; stroke-width: 0.8"/>
    </defs>
    <g clip-path="url(#pc8d54e1791)">
     <use xlink:href="#md31bb14474" x="0" y="576" style="fill: #57db94; fill-opacity: 0.2; stroke: #57db94; stroke-opacity: 0.2; stroke-width: 0.8"/>
    </g>
   </g>
   <g id="PolyCollection_4">
    <defs>
     <path id="m7fc0a999ff" d="M 69.602727 -117.019099 
L 69.602727 -83.52 
L 69.602727 -117.019099 
L 69.602727 -117.019099 
z
" style="stroke: #5784db; stroke-opacity: 0.2; stroke-width: 0.8"/>
    </defs>
    <g clip-path="url(#pc8d54e1791)">
     <use xlink:href="#m7fc0a999ff" x="0" y="576" style="fill: #5784db; fill-opacity: 0.2; stroke: #5784db; stroke-opacity: 0.2; stroke-width: 0.8"/>
    </g>
   </g>
   <g id="PolyCollection_5">
    <defs>
     <path id="m6e62186bf9" d="M 69.602727 -119.037117 
L 69.602727 -83.52 
L 69.602727 -119.037117 
L 69.602727 -119.037117 
z
" style="stroke: #c957db; stroke-opacity: 0.2; stroke-width: 0.8"/>
    </defs>
    <g clip-path="url(#pc8d54e1791)">
     <use xlink:href="#m6e62186bf9" x="0" y="576" style="fill: #c957db; fill-opacity: 0.2; stroke: #c957db; stroke-opacity: 0.2; stroke-width: 0.8"/>
    </g>
   </g>
   <g id="line2d_30">
    <path d="M 69.602727 489.654775 
L 69.815561 485.215135 
L 70.028394 459.788108 
L 70.666895 459.788108 
L 70.879728 458.577297 
L 71.305395 438.397117 
L 71.731062 438.397117 
L 71.943896 420.234955 
L 72.156729 417.006126 
L 73.43373 417.006126 
L 73.646563 416.602523 
L 73.859397 416.602523 
L 74.285064 404.090811 
L 74.497897 404.090811 
L 74.710731 403.687207 
L 75.562065 403.687207 
L 75.774898 396.422342 
L 75.987732 396.018739 
L 76.413399 396.018739 
L 76.626232 392.386306 
L 80.244401 392.386306 
L 80.457235 391.982703 
L 80.670068 391.982703 
L 80.882902 391.579099 
L 81.095735 389.964685 
L 81.521402 389.157477 
L 81.734236 389.157477 
L 81.947069 376.242162 
L 82.159903 375.838559 
L 82.372736 375.838559 
L 82.58557 369.784505 
L 83.011237 369.784505 
L 83.22407 368.17009 
L 83.649737 368.17009 
L 83.86257 367.362883 
L 84.075404 367.362883 
L 84.288237 366.555676 
L 84.926738 366.555676 
L 85.139571 365.748468 
L 87.055073 365.748468 
L 87.267906 363.73045 
L 87.693573 363.73045 
L 87.906407 362.923243 
L 89.609074 362.923243 
L 89.821908 358.887207 
L 90.673242 358.887207 
L 90.886075 351.622342 
L 92.801577 351.622342 
L 93.01441 351.218739 
L 93.652911 351.218739 
L 93.865744 334.670991 
L 94.078578 329.020541 
L 95.142745 329.020541 
L 95.355578 328.213333 
L 96.632579 328.213333 
L 96.845413 327.80973 
L 97.27108 326.598919 
L 97.90958 326.598919 
L 98.122414 326.195315 
L 98.335247 326.195315 
L 98.548081 325.791712 
L 98.973748 325.791712 
L 99.186581 323.773694 
L 99.399415 316.105225 
L 100.889249 316.105225 
L 101.102082 314.490811 
L 101.527749 314.490811 
L 102.16625 312.472793 
L 102.591917 312.472793 
L 102.80475 312.069189 
L 104.081751 312.069189 
L 104.294585 310.858378 
L 107.912754 310.858378 
L 108.125587 310.454775 
L 108.338421 309.243964 
L 108.764088 309.243964 
L 108.976921 308.84036 
L 109.615422 308.84036 
L 109.828255 304.804324 
L 111.105256 304.804324 
L 111.31809 301.575495 
L 113.020757 301.575495 
L 113.233591 301.171892 
L 114.936259 301.171892 
L 115.149092 300.768288 
L 117.915927 300.768288 
L 118.128761 293.503423 
L 120.895596 293.503423 
L 121.10843 286.238559 
L 121.321263 285.834955 
L 121.534097 285.834955 
L 121.74693 285.431351 
L 122.598264 285.431351 
L 122.811097 285.027748 
L 123.023931 283.816937 
L 123.236764 283.816937 
L 123.449598 283.00973 
L 124.939432 283.00973 
L 125.152266 280.184505 
L 126.0036 280.184505 
L 126.216433 278.57009 
L 126.854934 278.57009 
L 127.067767 278.166486 
L 128.131935 278.166486 
L 128.344768 277.359279 
L 134.516939 277.359279 
L 134.729772 259.600721 
L 134.942606 257.582703 
L 136.219607 257.582703 
L 136.43244 256.775495 
L 137.283774 256.775495 
L 137.496608 256.371892 
L 139.837776 256.371892 
L 140.050609 253.143063 
L 146.435614 253.143063 
L 146.648447 252.739459 
L 148.351115 252.739459 
L 148.563949 244.667387 
L 148.776782 242.245766 
L 151.330784 242.245766 
L 151.543617 241.842162 
L 153.459119 241.842162 
L 153.671952 241.034955 
L 157.077288 241.034955 
L 157.290121 240.631351 
L 157.502955 240.631351 
L 157.715788 240.227748 
L 159.63129 240.227748 
L 159.844123 239.420541 
L 161.333958 239.420541 
L 161.546791 237.806126 
L 161.759624 237.806126 
L 162.185291 236.595315 
L 162.823792 236.595315 
L 163.036625 236.191712 
L 163.675126 236.191712 
L 163.887959 235.788108 
L 171.975632 235.788108 
L 172.188465 235.384505 
L 173.891133 235.384505 
L 174.103966 234.980901 
L 176.232301 234.980901 
L 176.445135 234.577297 
L 184.958474 234.577297 
L 185.171307 231.348468 
L 186.022641 231.348468 
L 186.235475 230.944865 
L 188.576643 230.944865 
L 188.789477 227.312432 
L 190.704978 227.312432 
L 190.917811 225.698018 
L 195.174481 225.698018 
L 195.387314 224.083604 
L 196.238648 224.083604 
L 196.451482 223.68 
L 202.197986 223.68 
L 202.410819 223.276396 
L 204.326321 223.276396 
L 204.539154 221.258378 
L 204.751988 215.607928 
L 206.667489 215.607928 
L 206.880322 214.800721 
L 218.160497 214.800721 
L 218.37333 214.397117 
L 219.437498 214.397117 
L 219.650331 213.993514 
L 220.288832 213.993514 
L 220.501665 213.58991 
L 220.714499 212.782703 
L 230.504839 212.782703 
L 230.717672 212.379099 
L 238.592511 212.379099 
L 238.805345 210.361081 
L 240.933679 210.361081 
L 241.146513 209.957477 
L 243.274848 209.957477 
L 243.487681 203.903423 
L 244.764682 203.903423 
L 244.977515 201.078198 
L 245.190349 201.078198 
L 245.403182 197.849369 
L 248.808518 197.849369 
L 249.021352 176.861982 
L 249.872686 176.861982 
L 250.085519 176.458378 
L 251.149686 176.458378 
L 251.36252 175.651171 
L 252.639521 175.651171 
L 252.852354 174.44036 
L 253.703688 174.44036 
L 253.916522 174.036757 
L 254.555022 174.036757 
L 254.767856 173.633153 
L 255.61919 173.633153 
L 255.832023 173.22955 
L 262.429861 173.22955 
L 262.642694 163.543063 
L 269.879033 163.543063 
L 270.091866 151.031351 
L 270.517533 151.031351 
L 270.730367 149.013333 
L 272.433035 149.013333 
L 272.645868 147.802523 
L 273.071535 147.802523 
L 273.284368 147.398919 
L 276.051204 147.398919 
L 276.264037 146.995315 
L 281.372041 146.995315 
L 281.584874 146.591712 
L 301.378388 146.591712 
L 301.591221 146.188108 
L 304.996557 146.188108 
L 305.209391 145.784505 
L 313.72273 145.784505 
L 313.935563 144.573694 
L 314.786897 144.573694 
L 314.999731 144.17009 
L 317.766566 144.17009 
L 317.979399 143.766486 
L 328.833907 143.766486 
L 329.04674 138.51964 
L 333.729077 138.51964 
L 333.94191 136.501622 
L 336.708746 136.501622 
L 336.921579 136.098018 
L 342.45525 136.098018 
L 342.668083 135.694414 
L 347.137586 135.694414 
L 347.35042 134.887207 
L 353.309757 134.887207 
L 353.522591 134.483604 
L 354.161091 134.483604 
L 354.373925 133.676396 
L 357.992094 133.676396 
L 358.204927 132.869189 
L 362.03593 132.869189 
L 362.248763 132.465586 
L 375.657273 132.465586 
L 375.657273 132.465586 
" clip-path="url(#pc8d54e1791)" style="fill: none; stroke: #db5f57; stroke-width: 1.2; stroke-linecap: round"/>
   </g>
   <g id="line2d_31">
    <path d="M 69.602727 486.627748 
L 69.815561 480.371892 
L 70.666895 480.371892 
L 70.879728 442.433153 
L 71.092562 426.289009 
L 71.943896 406.512432 
L 72.156729 405.301622 
L 72.369563 404.898018 
L 72.582396 403.283604 
L 72.795229 402.88 
L 73.220896 401.669189 
L 73.43373 401.669189 
L 74.07223 399.247568 
L 74.285064 399.247568 
L 74.497897 398.843964 
L 74.923564 397.22955 
L 75.136398 397.22955 
L 75.349231 396.422342 
L 75.562065 396.422342 
L 75.774898 385.928649 
L 75.987732 383.910631 
L 77.264733 383.910631 
L 77.477566 379.067387 
L 77.6904 379.067387 
L 78.3289 377.049369 
L 78.9674 377.049369 
L 79.180234 376.645766 
L 79.393067 373.416937 
L 79.818734 372.206126 
L 80.882902 372.206126 
L 81.095735 366.959279 
L 81.521402 365.748468 
L 81.947069 365.748468 
L 82.372736 359.694414 
L 82.798403 359.694414 
L 83.436904 357.676396 
L 83.649737 357.676396 
L 83.86257 356.869189 
L 84.075404 356.869189 
L 84.288237 356.465586 
L 85.352405 356.465586 
L 85.565238 355.658378 
L 86.416572 355.658378 
L 87.48074 353.64036 
L 87.693573 353.64036 
L 87.906407 352.833153 
L 88.11924 352.833153 
L 88.332074 350.815135 
L 88.544907 350.411532 
L 88.757741 350.411532 
L 88.970574 349.604324 
L 92.37591 349.604324 
L 92.801577 319.334054 
L 97.90958 319.334054 
L 98.122414 305.207928 
L 112.807924 305.207928 
L 113.020757 304.804324 
L 114.510592 304.804324 
L 114.723425 290.678198 
L 118.128761 290.678198 
L 118.341594 283.413333 
L 118.767261 283.413333 
L 118.980095 279.780901 
L 119.192928 279.780901 
L 119.618595 278.973694 
L 119.831429 278.973694 
L 120.044262 276.148468 
L 120.257096 275.744865 
L 123.236764 275.744865 
L 123.449598 272.516036 
L 126.216433 272.516036 
L 126.429267 269.287207 
L 126.854934 269.287207 
L 127.067767 268.076396 
L 129.834602 268.076396 
L 130.047436 264.443964 
L 130.473103 264.443964 
L 130.685936 262.425946 
L 130.89877 262.425946 
L 131.111603 256.371892 
L 133.878438 256.371892 
L 134.091272 250.317838 
L 136.858107 250.317838 
L 137.070941 246.685405 
L 140.263443 246.685405 
L 140.476276 242.245766 
L 143.030278 242.245766 
L 143.243112 235.788108 
L 146.22278 235.788108 
L 146.435614 232.155676 
L 152.394951 232.155676 
L 152.607785 231.348468 
L 155.800287 231.348468 
L 156.01312 230.944865 
L 158.567122 230.944865 
L 158.779956 229.33045 
L 162.185291 229.33045 
L 162.398125 225.698018 
L 164.739293 225.698018 
L 164.952127 225.294414 
L 173.891133 225.294414 
L 174.103966 224.890811 
L 176.657968 224.890811 
L 176.870802 224.083604 
L 177.509302 224.083604 
L 177.722136 223.276396 
L 180.701804 223.276396 
L 180.914638 222.065586 
L 183.681473 222.065586 
L 183.894306 220.854775 
L 186.448308 220.854775 
L 186.661142 220.047568 
L 190.279311 220.047568 
L 190.492144 213.186306 
L 193.89748 213.186306 
L 194.110314 212.379099 
L 197.515649 212.379099 
L 197.728483 207.535856 
L 200.708151 207.535856 
L 200.920985 203.49982 
L 204.113487 203.49982 
L 204.326321 202.289009 
L 221.778666 202.289009 
L 221.9915 201.885405 
L 222.204333 200.674595 
L 237.954011 200.674595 
L 238.166844 199.463784 
L 238.379678 199.06018 
L 241.785013 199.06018 
L 241.997847 198.656577 
L 242.849181 198.656577 
L 243.274848 193.813333 
L 243.487681 191.391712 
L 246.680183 191.391712 
L 246.893017 169.597117 
L 247.10585 163.543063 
L 249.872686 163.543063 
L 250.085519 158.296216 
L 253.916522 158.296216 
L 254.129355 156.278198 
L 257.321857 156.278198 
L 257.534691 155.874595 
L 260.51436 155.874595 
L 260.727193 152.242162 
L 260.940027 151.838559 
L 263.919695 151.838559 
L 264.132529 140.537658 
L 267.325031 140.537658 
L 267.537864 138.116036 
L 270.730367 138.116036 
L 270.9432 128.833153 
L 272.007368 128.833153 
L 272.220201 127.622342 
L 273.922869 127.622342 
L 274.135702 127.218739 
L 277.966705 127.218739 
L 278.179539 126.815135 
L 281.372041 126.815135 
L 281.584874 126.411532 
L 290.311047 126.411532 
L 290.52388 126.007928 
L 303.081056 126.007928 
L 303.293889 125.604324 
L 307.124892 125.604324 
L 307.337725 125.200721 
L 316.063898 125.200721 
L 316.276732 123.98991 
L 317.128065 123.98991 
L 317.340899 123.586306 
L 317.979399 123.586306 
L 318.192233 123.182703 
L 325.641405 123.182703 
L 325.854238 121.971892 
L 326.067072 121.971892 
L 326.279905 120.357477 
L 326.705572 120.357477 
L 327.131239 119.146667 
L 330.962242 119.146667 
L 331.175075 117.935856 
L 331.387909 117.935856 
L 331.600742 117.128649 
L 335.218911 117.128649 
L 335.431745 115.917838 
L 339.688414 115.917838 
L 339.901248 115.514234 
L 343.945084 115.514234 
L 344.157918 115.110631 
L 347.563253 115.110631 
L 347.776087 114.303423 
L 356.289426 114.303423 
L 356.502259 113.496216 
L 375.657273 113.496216 
L 375.657273 113.496216 
" clip-path="url(#pc8d54e1791)" style="fill: none; stroke: #b9db57; stroke-width: 1.2; stroke-linecap: round"/>
   </g>
   <g id="line2d_32">
    <path d="M 69.602727 475.73045 
L 69.815561 452.523243 
L 70.028394 446.872793 
L 70.241228 446.065586 
L 70.454061 437.186306 
L 70.879728 432.343063 
L 71.731062 421.849369 
L 72.156729 414.988108 
L 72.369563 413.373694 
L 72.795229 412.566486 
L 73.008063 407.723243 
L 73.220896 407.31964 
L 73.43373 406.512432 
L 73.646563 406.512432 
L 73.859397 405.301622 
L 74.07223 402.072793 
L 74.285064 391.579099 
L 74.710731 391.579099 
L 74.923564 391.175495 
L 75.349231 387.946667 
L 75.774898 387.139459 
L 75.987732 383.910631 
L 76.200565 383.507027 
L 76.413399 383.507027 
L 76.839066 382.296216 
L 77.051899 379.874595 
L 77.477566 378.663784 
L 77.6904 378.26018 
L 77.903233 377.049369 
L 78.116067 377.049369 
L 78.3289 375.434955 
L 78.541733 375.434955 
L 78.754567 375.031351 
L 78.9674 375.031351 
L 79.180234 374.224144 
L 80.031568 374.224144 
L 80.244401 373.013333 
L 80.457235 368.977297 
L 80.670068 368.17009 
L 80.882902 368.17009 
L 81.095735 367.766486 
L 81.734236 367.766486 
L 81.947069 367.362883 
L 82.159903 360.098018 
L 82.58557 359.290811 
L 83.011237 359.290811 
L 83.22407 358.887207 
L 83.649737 358.887207 
L 83.86257 356.869189 
L 84.075404 356.465586 
L 86.416572 356.465586 
L 86.629406 355.658378 
L 86.842239 355.658378 
L 87.055073 354.043964 
L 87.267906 353.64036 
L 87.906407 353.64036 
L 88.11924 353.236757 
L 88.332074 350.815135 
L 88.544907 350.411532 
L 89.396241 350.411532 
L 89.609074 350.007928 
L 89.821908 350.007928 
L 90.034741 346.375495 
L 90.460408 346.375495 
L 90.673242 339.917838 
L 91.098909 339.917838 
L 91.311742 339.514234 
L 91.737409 339.514234 
L 91.950243 332.652973 
L 92.588743 332.652973 
L 92.801577 319.334054 
L 93.227244 319.334054 
L 93.440077 314.894414 
L 94.291411 314.894414 
L 94.504245 314.490811 
L 94.717078 307.62955 
L 95.355578 307.62955 
L 95.568412 306.418739 
L 95.994079 306.418739 
L 96.419746 305.611532 
L 96.845413 305.611532 
L 97.27108 303.997117 
L 98.122414 303.997117 
L 98.335247 303.18991 
L 99.186581 303.18991 
L 99.399415 302.786306 
L 100.037915 302.786306 
L 100.250749 302.382703 
L 100.463582 302.382703 
L 100.676415 301.979099 
L 101.527749 301.979099 
L 101.740583 300.768288 
L 101.953416 300.768288 
L 102.16625 300.364685 
L 102.379083 298.346667 
L 104.507418 298.346667 
L 104.720252 297.539459 
L 104.933085 297.539459 
L 105.145919 297.135856 
L 108.551254 297.135856 
L 108.976921 296.328649 
L 109.615422 296.328649 
L 109.828255 291.889009 
L 111.743756 291.889009 
L 111.95659 290.274595 
L 112.59509 290.274595 
L 112.807924 289.870991 
L 113.233591 289.870991 
L 113.659258 289.063784 
L 116.000426 289.063784 
L 116.21326 284.624144 
L 116.638927 284.624144 
L 117.064594 283.413333 
L 117.49026 282.606126 
L 117.703094 281.798919 
L 118.341594 281.798919 
L 118.554428 281.395315 
L 118.767261 278.166486 
L 119.192928 278.166486 
L 119.405762 277.762883 
L 119.618595 277.762883 
L 119.831429 274.534054 
L 120.044262 274.13045 
L 120.682763 274.13045 
L 120.895596 273.726847 
L 121.10843 273.726847 
L 121.321263 272.112432 
L 123.023931 272.112432 
L 123.236764 270.901622 
L 124.513765 270.901622 
L 124.726599 269.690811 
L 126.429267 269.690811 
L 126.6421 267.672793 
L 129.621769 267.672793 
L 129.834602 263.636757 
L 130.685936 263.636757 
L 130.89877 256.371892 
L 133.452772 256.371892 
L 133.665605 249.510631 
L 133.878438 249.510631 
L 134.091272 249.107027 
L 134.516939 249.107027 
L 134.729772 247.089009 
L 136.645274 247.089009 
L 136.858107 246.685405 
L 137.496608 246.685405 
L 137.709441 245.070991 
L 138.773609 245.070991 
L 138.986442 243.86018 
L 139.412109 243.86018 
L 139.624942 243.052973 
L 139.837776 243.052973 
L 140.050609 241.842162 
L 141.114777 241.842162 
L 141.32761 239.420541 
L 142.178944 239.420541 
L 142.391778 239.016937 
L 142.604611 236.595315 
L 142.817445 236.191712 
L 143.030278 235.384505 
L 143.243112 235.384505 
L 143.455945 234.980901 
L 143.668779 234.173694 
L 144.094446 234.173694 
L 144.307279 232.155676 
L 144.732946 232.155676 
L 144.945779 231.752072 
L 145.58428 231.752072 
L 145.797113 231.348468 
L 151.330784 231.348468 
L 151.543617 230.944865 
L 152.394951 230.944865 
L 152.607785 230.541261 
L 153.246285 230.541261 
L 153.459119 230.137658 
L 158.354289 230.137658 
L 158.567122 229.33045 
L 159.418456 229.33045 
L 159.844123 228.523243 
L 160.26979 228.523243 
L 160.482624 228.11964 
L 160.695457 228.11964 
L 161.121124 227.312432 
L 162.185291 227.312432 
L 162.398125 225.698018 
L 163.462292 225.698018 
L 163.675126 225.294414 
L 171.762798 225.294414 
L 171.975632 224.890811 
L 174.529633 224.890811 
L 174.742467 224.487207 
L 175.806634 224.487207 
L 176.019468 224.083604 
L 176.657968 224.083604 
L 176.870802 223.68 
L 178.147803 223.68 
L 178.360636 223.276396 
L 178.786303 223.276396 
L 178.999136 222.872793 
L 180.063304 222.872793 
L 180.276137 222.469189 
L 180.914638 222.469189 
L 181.127471 222.065586 
L 182.617306 222.065586 
L 182.830139 221.258378 
L 185.171307 221.258378 
L 185.384141 220.854775 
L 187.938143 220.854775 
L 188.150976 219.643964 
L 188.576643 219.643964 
L 188.789477 216.818739 
L 189.64081 216.818739 
L 189.853644 214.800721 
L 190.066477 214.800721 
L 190.279311 214.397117 
L 193.471813 214.397117 
L 193.89748 213.58991 
L 194.748814 213.58991 
L 194.961647 213.186306 
L 195.812981 213.186306 
L 196.025815 212.782703 
L 196.451482 212.782703 
L 196.664315 212.379099 
L 197.089982 211.168288 
L 197.302816 210.764685 
L 197.515649 208.746667 
L 197.941316 208.746667 
L 198.15415 208.343063 
L 198.366983 207.535856 
L 199.005484 207.535856 
L 199.218317 206.728649 
L 199.643984 206.728649 
L 199.856818 206.325045 
L 200.282485 206.325045 
L 200.495318 205.921441 
L 200.708151 205.114234 
L 201.772319 205.114234 
L 201.985152 203.096216 
L 203.262153 203.096216 
L 203.474987 202.692613 
L 210.072825 202.692613 
L 210.285658 202.289009 
L 218.586164 202.289009 
L 218.798997 201.885405 
L 220.075998 201.885405 
L 220.288832 201.481802 
L 223.907001 201.481802 
L 224.119834 201.078198 
L 234.335841 201.078198 
L 234.548675 200.674595 
L 235.187175 200.674595 
L 235.400009 200.270991 
L 236.038509 200.270991 
L 236.251343 199.867387 
L 237.102677 199.867387 
L 237.31551 199.463784 
L 241.997847 199.463784 
L 242.21068 199.06018 
L 242.636347 199.06018 
L 243.062014 194.216937 
L 243.487681 190.988108 
L 243.700515 190.584505 
L 243.913348 190.584505 
L 244.126182 190.180901 
L 244.551849 188.162883 
L 244.764682 187.759279 
L 245.190349 187.759279 
L 245.403182 184.53045 
L 245.828849 184.53045 
L 246.46735 174.036757 
L 246.680183 174.036757 
L 246.893017 170.404324 
L 247.10585 170.000721 
L 247.318684 170.000721 
L 247.531517 167.175495 
L 247.744351 167.175495 
L 248.170018 166.368288 
L 248.382851 165.561081 
L 248.808518 165.561081 
L 249.021352 164.35027 
L 249.234185 164.35027 
L 249.447019 163.946667 
L 249.659852 163.946667 
L 249.872686 163.543063 
L 251.149686 163.543063 
L 251.36252 163.139459 
L 251.575353 163.139459 
L 251.788187 162.735856 
L 252.426687 162.735856 
L 252.639521 162.332252 
L 253.490855 162.332252 
L 253.703688 161.928649 
L 256.044856 161.928649 
L 256.25769 161.525045 
L 260.301526 161.525045 
L 260.51436 158.69982 
L 261.578527 158.69982 
L 261.79136 151.434955 
L 262.855528 151.434955 
L 263.068361 147.398919 
L 266.473697 147.398919 
L 266.686531 146.995315 
L 266.899364 146.188108 
L 267.112197 146.188108 
L 267.750698 144.17009 
L 267.963531 144.17009 
L 268.176365 142.959279 
L 268.602032 142.959279 
L 269.027699 140.941261 
L 269.453366 140.941261 
L 269.666199 137.712432 
L 270.091866 137.712432 
L 270.3047 137.308829 
L 270.517533 135.694414 
L 270.730367 135.694414 
L 270.9432 135.290811 
L 271.368867 135.290811 
L 271.581701 134.483604 
L 275.625537 134.483604 
L 275.83837 133.676396 
L 281.584874 133.676396 
L 281.797708 133.272793 
L 286.692878 133.272793 
L 286.905711 132.869189 
L 301.165554 132.869189 
L 301.378388 132.465586 
L 305.209391 132.465586 
L 305.422224 132.061982 
L 311.807228 132.061982 
L 312.020062 131.658378 
L 312.445729 131.658378 
L 312.658562 131.254775 
L 316.489565 131.254775 
L 316.915232 130.447568 
L 317.766566 130.447568 
L 317.979399 130.043964 
L 326.279905 130.043964 
L 326.492739 127.622342 
L 326.705572 126.815135 
L 326.918406 126.815135 
L 327.131239 126.411532 
L 328.833907 126.411532 
L 329.04674 125.200721 
L 331.387909 125.200721 
L 331.600742 124.393514 
L 332.66491 124.393514 
L 332.877743 123.98991 
L 333.090577 123.98991 
L 333.30341 123.182703 
L 339.049914 123.182703 
L 339.262748 122.779099 
L 341.603916 122.779099 
L 341.816749 122.375495 
L 347.137586 122.375495 
L 347.35042 121.568288 
L 353.522591 121.568288 
L 353.948258 120.761081 
L 375.657273 120.761081 
L 375.657273 120.761081 
" clip-path="url(#pc8d54e1791)" style="fill: none; stroke: #57db94; stroke-width: 1.2; stroke-linecap: round"/>
   </g>
   <g id="line2d_33">
    <path d="M 69.602727 475.73045 
L 69.815561 455.348468 
L 70.454061 435.975495 
L 70.666895 434.361081 
L 70.879728 429.517838 
L 71.092562 421.849369 
L 71.305395 421.042162 
L 71.943896 411.759279 
L 72.156729 410.548468 
L 72.369563 408.53045 
L 72.582396 397.633153 
L 72.795229 397.633153 
L 73.220896 396.422342 
L 74.07223 396.422342 
L 74.285064 396.018739 
L 74.710731 396.018739 
L 74.923564 395.615135 
L 75.774898 395.615135 
L 75.987732 394.807928 
L 76.200565 394.807928 
L 76.413399 392.78991 
L 76.839066 391.579099 
L 77.051899 391.579099 
L 77.264733 390.771892 
L 78.541733 390.771892 
L 78.754567 389.964685 
L 79.180234 389.964685 
L 79.605901 389.157477 
L 79.818734 386.332252 
L 80.031568 364.134054 
L 80.244401 364.134054 
L 80.670068 363.326847 
L 82.798403 363.326847 
L 83.011237 351.622342 
L 83.22407 351.218739 
L 87.48074 351.218739 
L 87.906407 350.411532 
L 88.332074 350.411532 
L 88.757741 349.604324 
L 88.970574 341.935856 
L 89.396241 341.935856 
L 89.609074 341.532252 
L 91.311742 341.532252 
L 91.524576 341.128649 
L 91.950243 341.128649 
L 92.163076 326.598919 
L 92.37591 326.195315 
L 93.01441 326.195315 
L 93.227244 325.791712 
L 94.291411 325.791712 
L 94.504245 308.033153 
L 94.717078 306.418739 
L 94.929911 300.768288 
L 95.142745 300.364685 
L 97.696747 300.364685 
L 97.90958 297.135856 
L 99.186581 297.135856 
L 99.399415 296.732252 
L 101.102082 296.732252 
L 101.314916 296.328649 
L 102.379083 296.328649 
L 102.591917 291.485405 
L 102.80475 291.081802 
L 105.571586 291.081802 
L 105.784419 290.678198 
L 105.997252 290.678198 
L 106.210086 290.274595 
L 107.487087 290.274595 
L 107.912754 289.063784 
L 108.764088 289.063784 
L 109.402588 286.642162 
L 109.615422 283.816937 
L 109.828255 283.00973 
L 110.041089 283.00973 
L 110.253922 280.991712 
L 110.679589 280.991712 
L 110.892423 280.588108 
L 113.233591 280.588108 
L 113.446424 280.184505 
L 114.936259 280.184505 
L 115.149092 279.780901 
L 118.980095 279.780901 
L 119.192928 279.377297 
L 119.405762 279.377297 
L 119.618595 278.973694 
L 123.662431 278.973694 
L 123.875265 262.82955 
L 124.088098 262.82955 
L 124.300932 262.425946 
L 125.365099 262.425946 
L 125.790766 261.618739 
L 126.0036 260.811532 
L 126.6421 260.811532 
L 126.854934 260.407928 
L 128.344768 260.407928 
L 128.557601 259.600721 
L 130.260269 259.600721 
L 130.473103 254.757477 
L 130.685936 253.95027 
L 130.89877 248.29982 
L 131.111603 247.896216 
L 131.324437 245.878198 
L 131.53727 245.878198 
L 131.750104 243.86018 
L 132.388604 243.86018 
L 132.601438 243.456577 
L 136.006773 243.456577 
L 136.219607 237.402523 
L 137.709441 237.402523 
L 137.922275 236.998919 
L 138.347942 236.998919 
L 138.560775 235.788108 
L 140.050609 235.788108 
L 140.263443 235.384505 
L 140.476276 235.384505 
L 140.68911 234.980901 
L 140.901943 234.980901 
L 141.32761 234.173694 
L 141.966111 234.173694 
L 142.391778 232.962883 
L 142.817445 232.962883 
L 143.030278 228.11964 
L 143.243112 227.716036 
L 144.094446 227.716036 
L 144.307279 227.312432 
L 144.732946 227.312432 
L 144.945779 226.908829 
L 145.158613 223.276396 
L 145.58428 223.276396 
L 145.797113 222.872793 
L 150.47945 222.872793 
L 150.692283 222.469189 
L 151.756451 222.469189 
L 151.969284 222.065586 
L 157.077288 222.065586 
L 157.290121 220.854775 
L 157.502955 220.854775 
L 157.715788 220.451171 
L 161.333958 220.451171 
L 161.546791 220.047568 
L 161.972458 218.836757 
L 162.610958 218.836757 
L 162.823792 216.415135 
L 173.678299 216.415135 
L 173.891133 216.011532 
L 182.191639 216.011532 
L 182.404472 215.607928 
L 183.042973 215.607928 
L 183.255806 211.975495 
L 184.958474 211.975495 
L 185.171307 211.571892 
L 185.596974 211.571892 
L 185.809808 211.168288 
L 187.938143 211.168288 
L 188.36381 209.15027 
L 188.576643 209.15027 
L 189.00231 206.325045 
L 189.215144 205.921441 
L 189.427977 205.921441 
L 189.64081 205.517838 
L 193.046146 205.517838 
L 193.25898 205.114234 
L 199.856818 205.114234 
L 200.069651 198.656577 
L 200.495318 198.656577 
L 200.708151 197.849369 
L 201.559485 197.849369 
L 201.772319 197.042162 
L 202.623653 197.042162 
L 202.836486 196.638559 
L 203.04932 195.831351 
L 205.390488 195.831351 
L 205.603322 195.024144 
L 213.690994 195.024144 
L 213.903827 194.216937 
L 233.271674 194.216937 
L 233.484508 192.602523 
L 234.123008 192.602523 
L 234.335841 192.198919 
L 235.612842 192.198919 
L 235.825676 191.795315 
L 236.889843 191.795315 
L 237.102677 191.391712 
L 238.805345 191.391712 
L 239.018178 190.988108 
L 240.720846 190.988108 
L 240.933679 190.584505 
L 244.126182 190.584505 
L 244.339015 181.301622 
L 244.977515 181.301622 
L 245.190349 180.898018 
L 245.403182 178.88 
L 245.616016 165.964685 
L 245.828849 160.717838 
L 246.254516 159.103423 
L 246.680183 156.681802 
L 246.893017 153.049369 
L 247.10585 151.434955 
L 247.318684 151.434955 
L 247.531517 151.031351 
L 247.744351 149.820541 
L 247.957184 149.416937 
L 248.382851 149.416937 
L 248.808518 148.206126 
L 249.659852 148.206126 
L 249.872686 147.398919 
L 250.724019 147.398919 
L 250.936853 146.591712 
L 251.36252 146.591712 
L 251.788187 145.380901 
L 253.278021 145.380901 
L 253.490855 144.573694 
L 255.406356 144.573694 
L 255.61919 144.17009 
L 258.386025 144.17009 
L 258.598858 143.766486 
L 259.024525 143.766486 
L 259.237359 142.555676 
L 259.450192 142.152072 
L 259.663026 142.152072 
L 260.088693 141.344865 
L 260.301526 141.344865 
L 260.51436 140.537658 
L 260.727193 140.537658 
L 261.15286 139.326847 
L 261.365694 139.326847 
L 261.578527 137.712432 
L 261.79136 137.712432 
L 262.004194 136.905225 
L 262.429861 136.905225 
L 262.642694 132.869189 
L 263.068361 132.061982 
L 263.494028 132.061982 
L 263.706862 128.833153 
L 264.983863 128.833153 
L 265.196696 128.42955 
L 266.686531 128.42955 
L 266.899364 127.622342 
L 267.112197 127.622342 
L 267.325031 127.218739 
L 267.537864 127.218739 
L 267.750698 126.007928 
L 267.963531 126.007928 
L 268.602032 123.98991 
L 268.814865 123.98991 
L 269.027699 123.586306 
L 269.240532 123.586306 
L 269.453366 122.375495 
L 269.666199 121.971892 
L 270.3047 121.971892 
L 270.517533 117.128649 
L 270.730367 117.128649 
L 270.9432 116.725045 
L 274.348536 116.725045 
L 274.561369 115.110631 
L 300.101387 115.110631 
L 300.314221 114.707027 
L 300.952721 114.707027 
L 301.165554 114.303423 
L 304.783724 114.303423 
L 304.996557 113.89982 
L 306.060724 113.89982 
L 306.273558 113.496216 
L 314.148397 113.496216 
L 314.36123 112.689009 
L 317.979399 112.689009 
L 318.192233 112.285405 
L 325.641405 112.285405 
L 325.854238 109.056577 
L 326.067072 108.249369 
L 328.833907 108.249369 
L 329.04674 105.827748 
L 332.452076 105.827748 
L 332.877743 104.213333 
L 333.090577 104.213333 
L 333.30341 103.80973 
L 336.070245 103.80973 
L 336.283079 103.406126 
L 341.391082 103.406126 
L 341.603916 103.002523 
L 345.860585 103.002523 
L 346.286252 102.195315 
L 352.88409 102.195315 
L 353.096924 101.791712 
L 355.863759 101.791712 
L 356.289426 100.580901 
L 365.866933 100.580901 
L 366.079766 100.177297 
L 375.657273 100.177297 
L 375.657273 100.177297 
" clip-path="url(#pc8d54e1791)" style="fill: none; stroke: #5784db; stroke-width: 1.2; stroke-linecap: round"/>
   </g>
   <g id="line2d_34">
    <path d="M 69.602727 474.721441 
L 69.815561 450.505225 
L 70.241228 435.168288 
L 70.454061 433.957477 
L 70.879728 425.078198 
L 71.305395 412.97009 
L 71.731062 402.476396 
L 71.943896 399.651171 
L 72.582396 397.22955 
L 72.795229 397.22955 
L 73.008063 391.579099 
L 73.43373 390.771892 
L 73.646563 389.964685 
L 74.285064 385.525045 
L 74.497897 385.525045 
L 74.710731 385.121441 
L 75.349231 380.278198 
L 75.562065 380.278198 
L 75.774898 379.874595 
L 75.987732 377.856577 
L 76.200565 377.452973 
L 76.626232 375.031351 
L 76.839066 374.627748 
L 77.264733 372.60973 
L 77.6904 371.802523 
L 77.903233 370.591712 
L 78.116067 370.591712 
L 78.3289 368.977297 
L 78.541733 368.977297 
L 78.754567 367.766486 
L 78.9674 367.766486 
L 79.180234 366.555676 
L 79.393067 366.555676 
L 79.605901 365.748468 
L 79.818734 364.134054 
L 80.031568 363.73045 
L 80.670068 360.501622 
L 80.882902 360.098018 
L 81.095735 358.887207 
L 81.521402 358.08 
L 81.947069 358.08 
L 82.159903 352.42955 
L 82.372736 352.025946 
L 82.58557 351.218739 
L 82.798403 351.218739 
L 83.011237 350.815135 
L 83.436904 349.604324 
L 83.649737 349.604324 
L 84.075404 348.393514 
L 84.926738 348.393514 
L 85.139571 347.586306 
L 86.416572 347.586306 
L 86.629406 346.779099 
L 86.842239 346.779099 
L 87.267906 345.568288 
L 87.48074 345.568288 
L 87.906407 344.761081 
L 88.11924 344.761081 
L 88.332074 342.743063 
L 88.970574 341.532252 
L 89.396241 341.532252 
L 89.609074 340.725045 
L 89.821908 340.725045 
L 90.034741 338.303423 
L 90.460408 338.303423 
L 90.673242 331.845766 
L 91.098909 331.845766 
L 91.524576 331.038559 
L 91.737409 331.038559 
L 91.950243 324.177297 
L 92.37591 322.966486 
L 92.588743 322.966486 
L 92.801577 310.051171 
L 93.01441 310.051171 
L 93.227244 309.647568 
L 93.440077 306.015135 
L 94.291411 306.015135 
L 94.504245 304.400721 
L 94.717078 297.539459 
L 95.142745 296.732252 
L 95.568412 295.521441 
L 95.994079 295.521441 
L 96.419746 294.714234 
L 96.632579 294.714234 
L 96.845413 294.310631 
L 97.058246 294.310631 
L 97.27108 293.907027 
L 97.696747 293.907027 
L 98.122414 293.09982 
L 98.335247 293.09982 
L 98.548081 292.696216 
L 99.186581 292.696216 
L 99.399415 291.889009 
L 100.037915 291.889009 
L 100.250749 291.485405 
L 100.463582 291.485405 
L 100.676415 291.081802 
L 101.102082 291.081802 
L 101.314916 290.678198 
L 101.527749 290.678198 
L 102.16625 288.256577 
L 102.591917 288.256577 
L 102.80475 287.449369 
L 104.507418 287.449369 
L 104.720252 286.642162 
L 104.933085 286.642162 
L 105.145919 286.238559 
L 105.571586 286.238559 
L 105.784419 285.834955 
L 107.69992 285.834955 
L 107.912754 285.431351 
L 108.551254 285.431351 
L 108.976921 284.624144 
L 109.402588 283.00973 
L 109.615422 280.184505 
L 109.828255 279.377297 
L 110.041089 279.377297 
L 110.253922 277.359279 
L 110.679589 277.359279 
L 110.892423 276.955676 
L 112.59509 276.955676 
L 112.807924 276.552072 
L 113.233591 276.552072 
L 113.446424 276.148468 
L 116.000426 276.148468 
L 116.21326 271.708829 
L 116.638927 271.708829 
L 117.064594 270.498018 
L 117.49026 269.690811 
L 117.703094 268.883604 
L 118.554428 268.883604 
L 118.767261 265.654775 
L 118.980095 265.654775 
L 119.618595 264.443964 
L 119.831429 262.022342 
L 120.682763 262.022342 
L 120.895596 261.618739 
L 121.10843 261.618739 
L 121.321263 260.004324 
L 121.534097 260.004324 
L 121.74693 259.600721 
L 122.598264 259.600721 
L 122.811097 259.197117 
L 123.023931 259.197117 
L 123.449598 257.986306 
L 123.662431 257.986306 
L 123.875265 256.371892 
L 124.088098 256.371892 
L 124.300932 255.968288 
L 125.365099 255.968288 
L 125.790766 255.161081 
L 126.0036 254.353874 
L 126.429267 254.353874 
L 127.067767 253.143063 
L 129.621769 253.143063 
L 129.834602 249.510631 
L 130.260269 249.510631 
L 130.685936 247.089009 
L 130.89877 241.438559 
L 131.111603 241.034955 
L 131.324437 239.420541 
L 131.53727 239.420541 
L 131.750104 237.402523 
L 132.388604 237.402523 
L 132.601438 236.998919 
L 133.452772 236.998919 
L 133.665605 234.173694 
L 133.878438 234.173694 
L 134.091272 233.77009 
L 134.516939 233.77009 
L 134.729772 231.752072 
L 136.006773 231.752072 
L 136.219607 230.944865 
L 136.645274 230.944865 
L 136.858107 230.541261 
L 137.496608 230.541261 
L 137.922275 229.33045 
L 138.773609 229.33045 
L 138.986442 228.523243 
L 139.412109 228.523243 
L 139.624942 227.716036 
L 139.837776 227.716036 
L 140.050609 226.505225 
L 140.263443 226.101622 
L 140.476276 226.101622 
L 140.68911 225.698018 
L 140.901943 225.698018 
L 141.114777 225.294414 
L 141.32761 223.68 
L 141.966111 223.68 
L 143.030278 220.047568 
L 143.668779 218.836757 
L 144.094446 218.836757 
L 144.307279 216.818739 
L 144.732946 216.818739 
L 144.945779 216.011532 
L 145.58428 216.011532 
L 145.797113 215.607928 
L 146.435614 215.607928 
L 146.648447 215.204324 
L 150.47945 215.204324 
L 150.692283 214.800721 
L 152.394951 214.800721 
L 152.607785 214.397117 
L 153.246285 214.397117 
L 153.459119 213.993514 
L 157.077288 213.993514 
L 157.290121 213.58991 
L 157.502955 213.58991 
L 157.715788 213.186306 
L 158.354289 213.186306 
L 158.567122 212.782703 
L 159.418456 212.782703 
L 159.844123 211.975495 
L 160.26979 211.975495 
L 160.482624 211.571892 
L 160.695457 211.571892 
L 161.121124 210.764685 
L 161.546791 210.764685 
L 161.972458 209.553874 
L 162.185291 209.553874 
L 162.398125 209.15027 
L 163.462292 209.15027 
L 163.675126 208.746667 
L 171.762798 208.746667 
L 171.975632 208.343063 
L 173.678299 208.343063 
L 174.103966 207.535856 
L 175.806634 207.535856 
L 176.019468 207.132252 
L 178.147803 207.132252 
L 178.360636 206.728649 
L 178.786303 206.728649 
L 178.999136 206.325045 
L 180.063304 206.325045 
L 180.276137 205.921441 
L 180.914638 205.921441 
L 181.127471 205.517838 
L 182.617306 205.517838 
L 182.830139 204.710631 
L 184.958474 204.710631 
L 185.171307 204.307027 
L 186.022641 204.307027 
L 186.235475 203.903423 
L 187.938143 203.903423 
L 188.36381 201.885405 
L 188.576643 201.885405 
L 188.789477 199.463784 
L 189.00231 199.463784 
L 189.215144 199.06018 
L 189.427977 199.06018 
L 189.64081 198.656577 
L 189.853644 197.849369 
L 190.066477 197.849369 
L 190.279311 197.445766 
L 193.046146 197.445766 
L 193.25898 197.042162 
L 193.471813 197.042162 
L 193.89748 196.234955 
L 194.748814 196.234955 
L 194.961647 195.831351 
L 195.812981 195.831351 
L 196.025815 195.427748 
L 196.451482 195.427748 
L 196.664315 195.024144 
L 197.089982 193.813333 
L 197.302816 193.40973 
L 197.515649 191.391712 
L 197.941316 191.391712 
L 198.15415 190.988108 
L 198.366983 190.180901 
L 199.005484 190.180901 
L 199.218317 189.373694 
L 199.643984 189.373694 
L 199.856818 188.97009 
L 200.495318 188.97009 
L 200.708151 187.355676 
L 201.559485 187.355676 
L 201.772319 186.952072 
L 201.985152 186.144865 
L 202.197986 186.144865 
L 202.410819 185.741261 
L 202.623653 185.741261 
L 202.836486 185.337658 
L 205.390488 185.337658 
L 205.603322 184.53045 
L 206.667489 184.53045 
L 206.880322 184.126847 
L 210.072825 184.126847 
L 210.285658 183.723243 
L 218.160497 183.723243 
L 218.37333 183.31964 
L 218.586164 183.31964 
L 218.798997 182.916036 
L 219.437498 182.916036 
L 219.650331 182.512432 
L 220.501665 182.512432 
L 220.714499 182.108829 
L 234.123008 182.108829 
L 234.335841 181.705225 
L 235.187175 181.705225 
L 235.400009 181.301622 
L 235.612842 181.301622 
L 235.825676 180.898018 
L 236.889843 180.898018 
L 237.31551 180.090811 
L 240.933679 180.090811 
L 241.146513 179.687207 
L 242.636347 179.687207 
L 243.062014 174.843964 
L 243.487681 171.615135 
L 243.700515 171.211532 
L 243.913348 171.211532 
L 244.126182 170.807928 
L 244.339015 169.193514 
L 244.764682 168.386306 
L 245.190349 168.386306 
L 245.403182 164.753874 
L 245.828849 150.224144 
L 246.254516 148.206126 
L 246.46735 146.188108 
L 246.680183 145.380901 
L 246.893017 141.748468 
L 247.10585 140.941261 
L 247.318684 140.941261 
L 247.531517 140.537658 
L 247.744351 139.326847 
L 247.957184 138.923243 
L 248.170018 138.923243 
L 248.382851 138.51964 
L 248.808518 137.308829 
L 249.234185 137.308829 
L 249.447019 136.905225 
L 250.724019 136.905225 
L 250.936853 136.098018 
L 251.36252 136.098018 
L 251.788187 134.887207 
L 253.278021 134.887207 
L 253.490855 134.08 
L 255.406356 134.08 
L 255.61919 133.676396 
L 258.386025 133.676396 
L 258.598858 133.272793 
L 259.024525 133.272793 
L 259.237359 132.061982 
L 259.450192 131.658378 
L 259.663026 131.658378 
L 260.088693 130.851171 
L 260.301526 130.851171 
L 260.51436 130.043964 
L 260.727193 130.043964 
L 261.15286 128.833153 
L 261.365694 128.833153 
L 261.578527 127.218739 
L 261.79136 122.375495 
L 262.642694 122.375495 
L 262.855528 121.971892 
L 263.068361 118.339459 
L 264.983863 118.339459 
L 265.196696 117.935856 
L 266.473697 117.935856 
L 266.686531 117.532252 
L 266.899364 116.725045 
L 267.112197 116.725045 
L 267.325031 115.917838 
L 267.537864 115.917838 
L 267.750698 114.707027 
L 267.963531 114.707027 
L 268.389198 113.092613 
L 268.602032 113.092613 
L 268.814865 112.689009 
L 269.027699 111.881802 
L 269.453366 111.881802 
L 269.666199 108.652973 
L 270.091866 108.652973 
L 270.3047 108.249369 
L 270.517533 106.634955 
L 270.730367 106.634955 
L 270.9432 105.827748 
L 271.368867 105.827748 
L 271.581701 105.424144 
L 273.071535 105.424144 
L 273.284368 105.020541 
L 273.922869 105.020541 
L 274.135702 104.616937 
L 281.372041 104.616937 
L 281.584874 104.213333 
L 300.952721 104.213333 
L 301.165554 103.80973 
L 304.783724 103.80973 
L 304.996557 103.406126 
L 306.060724 103.406126 
L 306.273558 103.002523 
L 311.807228 103.002523 
L 312.020062 102.598919 
L 312.445729 102.598919 
L 312.658562 102.195315 
L 314.786897 102.195315 
L 314.999731 101.791712 
L 317.766566 101.791712 
L 318.192233 100.984505 
L 325.641405 100.984505 
L 325.854238 98.562883 
L 326.067072 97.755676 
L 326.492739 97.755676 
L 326.705572 96.948468 
L 326.918406 96.948468 
L 327.131239 96.544865 
L 328.833907 96.544865 
L 329.04674 95.334054 
L 331.387909 95.334054 
L 331.600742 94.526847 
L 332.66491 94.526847 
L 332.877743 93.71964 
L 333.090577 93.71964 
L 333.30341 93.316036 
L 336.070245 93.316036 
L 336.283079 92.912432 
L 341.391082 92.912432 
L 341.603916 92.508829 
L 345.860585 92.508829 
L 346.286252 91.701622 
L 352.88409 91.701622 
L 353.096924 91.298018 
L 353.735424 91.298018 
L 353.948258 90.894414 
L 355.863759 90.894414 
L 356.289426 89.683604 
L 362.03593 89.683604 
L 362.248763 89.28 
L 375.657273 89.28 
L 375.657273 89.28 
" clip-path="url(#pc8d54e1791)" style="fill: none; stroke: #c957db; stroke-width: 1.2; stroke-linecap: round"/>
   </g>
   <g id="line2d_35"/>
   <g id="line2d_36"/>
   <g id="line2d_37"/>
   <g id="line2d_38"/>
   <g id="line2d_39"/>
   <g id="patch_3">
    <path d="M 54.3 512.64 
L 54.3 69.12 
" style="fill: none; stroke: #cccccc; stroke-linejoin: miter; stroke-linecap: square"/>
   </g>
   <g id="patch_4">
    <path d="M 54.3 512.64 
L 390.96 512.64 
" style="fill: none; stroke: #cccccc; stroke-linejoin: miter; stroke-linecap: square"/>
   </g>
   <g id="text_32">
    <!-- Edge Coverage History -->
    <g style="fill: #262626" transform="translate(115.738512 63.12)scale(0.165888 -0.165888)">
     <defs>
      <path id="DejaVuSans-Bold-45" d="M 588 4666 
L 3834 4666 
L 3834 3756 
L 1791 3756 
L 1791 2888 
L 3713 2888 
L 3713 1978 
L 1791 1978 
L 1791 909 
L 3903 909 
L 3903 0 
L 588 0 
L 588 4666 
z
" transform="scale(0.015625)"/>
      <path id="DejaVuSans-Bold-64" d="M 2919 2988 
L 2919 4863 
L 4044 4863 
L 4044 0 
L 2919 0 
L 2919 506 
Q 2688 197 2409 53 
Q 2131 -91 1766 -91 
Q 1119 -91 703 423 
Q 288 938 288 1747 
Q 288 2556 703 3070 
Q 1119 3584 1766 3584 
Q 2128 3584 2408 3439 
Q 2688 3294 2919 2988 
z
M 2181 722 
Q 2541 722 2730 984 
Q 2919 1247 2919 1747 
Q 2919 2247 2730 2509 
Q 2541 2772 2181 2772 
Q 1825 2772 1636 2509 
Q 1447 2247 1447 1747 
Q 1447 1247 1636 984 
Q 1825 722 2181 722 
z
" transform="scale(0.015625)"/>
      <path id="DejaVuSans-Bold-67" d="M 2919 594 
Q 2688 288 2409 144 
Q 2131 0 1766 0 
Q 1125 0 706 504 
Q 288 1009 288 1791 
Q 288 2575 706 3076 
Q 1125 3578 1766 3578 
Q 2131 3578 2409 3434 
Q 2688 3291 2919 2981 
L 2919 3500 
L 4044 3500 
L 4044 353 
Q 4044 -491 3511 -936 
Q 2978 -1381 1966 -1381 
Q 1638 -1381 1331 -1331 
Q 1025 -1281 716 -1178 
L 716 -306 
Q 1009 -475 1290 -558 
Q 1572 -641 1856 -641 
Q 2406 -641 2662 -400 
Q 2919 -159 2919 353 
L 2919 594 
z
M 2181 2772 
Q 1834 2772 1640 2515 
Q 1447 2259 1447 1791 
Q 1447 1309 1634 1061 
Q 1822 813 2181 813 
Q 2531 813 2725 1069 
Q 2919 1325 2919 1791 
Q 2919 2259 2725 2515 
Q 2531 2772 2181 2772 
z
" transform="scale(0.015625)"/>
      <path id="DejaVuSans-Bold-65" d="M 4031 1759 
L 4031 1441 
L 1416 1441 
Q 1456 1047 1700 850 
Q 1944 653 2381 653 
Q 2734 653 3104 758 
Q 3475 863 3866 1075 
L 3866 213 
Q 3469 63 3072 -14 
Q 2675 -91 2278 -91 
Q 1328 -91 801 392 
Q 275 875 275 1747 
Q 275 2603 792 3093 
Q 1309 3584 2216 3584 
Q 3041 3584 3536 3087 
Q 4031 2591 4031 1759 
z
M 2881 2131 
Q 2881 2450 2695 2645 
Q 2509 2841 2209 2841 
Q 1884 2841 1681 2658 
Q 1478 2475 1428 2131 
L 2881 2131 
z
" transform="scale(0.015625)"/>
      <path id="DejaVuSans-Bold-20" transform="scale(0.015625)"/>
      <path id="DejaVuSans-Bold-43" d="M 4288 256 
Q 3956 84 3597 -3 
Q 3238 -91 2847 -91 
Q 1681 -91 1000 561 
Q 319 1213 319 2328 
Q 319 3447 1000 4098 
Q 1681 4750 2847 4750 
Q 3238 4750 3597 4662 
Q 3956 4575 4288 4403 
L 4288 3438 
Q 3953 3666 3628 3772 
Q 3303 3878 2944 3878 
Q 2300 3878 1931 3465 
Q 1563 3053 1563 2328 
Q 1563 1606 1931 1193 
Q 2300 781 2944 781 
Q 3303 781 3628 887 
Q 3953 994 4288 1222 
L 4288 256 
z
" transform="scale(0.015625)"/>
      <path id="DejaVuSans-Bold-6f" d="M 2203 2784 
Q 1831 2784 1636 2517 
Q 1441 2250 1441 1747 
Q 1441 1244 1636 976 
Q 1831 709 2203 709 
Q 2569 709 2762 976 
Q 2956 1244 2956 1747 
Q 2956 2250 2762 2517 
Q 2569 2784 2203 2784 
z
M 2203 3584 
Q 3106 3584 3614 3096 
Q 4122 2609 4122 1747 
Q 4122 884 3614 396 
Q 3106 -91 2203 -91 
Q 1297 -91 786 396 
Q 275 884 275 1747 
Q 275 2609 786 3096 
Q 1297 3584 2203 3584 
z
" transform="scale(0.015625)"/>
      <path id="DejaVuSans-Bold-76" d="M 97 3500 
L 1216 3500 
L 2088 1081 
L 2956 3500 
L 4078 3500 
L 2700 0 
L 1472 0 
L 97 3500 
z
" transform="scale(0.015625)"/>
      <path id="DejaVuSans-Bold-72" d="M 3138 2547 
Q 2991 2616 2845 2648 
Q 2700 2681 2553 2681 
Q 2122 2681 1889 2404 
Q 1656 2128 1656 1613 
L 1656 0 
L 538 0 
L 538 3500 
L 1656 3500 
L 1656 2925 
Q 1872 3269 2151 3426 
Q 2431 3584 2822 3584 
Q 2878 3584 2943 3579 
Q 3009 3575 3134 3559 
L 3138 2547 
z
" transform="scale(0.015625)"/>
      <path id="DejaVuSans-Bold-61" d="M 2106 1575 
Q 1756 1575 1579 1456 
Q 1403 1338 1403 1106 
Q 1403 894 1545 773 
Q 1688 653 1941 653 
Q 2256 653 2472 879 
Q 2688 1106 2688 1447 
L 2688 1575 
L 2106 1575 
z
M 3816 1997 
L 3816 0 
L 2688 0 
L 2688 519 
Q 2463 200 2181 54 
Q 1900 -91 1497 -91 
Q 953 -91 614 226 
Q 275 544 275 1050 
Q 275 1666 698 1953 
Q 1122 2241 2028 2241 
L 2688 2241 
L 2688 2328 
Q 2688 2594 2478 2717 
Q 2269 2841 1825 2841 
Q 1466 2841 1156 2769 
Q 847 2697 581 2553 
L 581 3406 
Q 941 3494 1303 3539 
Q 1666 3584 2028 3584 
Q 2975 3584 3395 3211 
Q 3816 2838 3816 1997 
z
" transform="scale(0.015625)"/>
      <path id="DejaVuSans-Bold-48" d="M 588 4666 
L 1791 4666 
L 1791 2888 
L 3566 2888 
L 3566 4666 
L 4769 4666 
L 4769 0 
L 3566 0 
L 3566 1978 
L 1791 1978 
L 1791 0 
L 588 0 
L 588 4666 
z
" transform="scale(0.015625)"/>
      <path id="DejaVuSans-Bold-69" d="M 538 3500 
L 1656 3500 
L 1656 0 
L 538 0 
L 538 3500 
z
M 538 4863 
L 1656 4863 
L 1656 3950 
L 538 3950 
L 538 4863 
z
" transform="scale(0.015625)"/>
      <path id="DejaVuSans-Bold-73" d="M 3272 3391 
L 3272 2541 
Q 2913 2691 2578 2766 
Q 2244 2841 1947 2841 
Q 1628 2841 1473 2761 
Q 1319 2681 1319 2516 
Q 1319 2381 1436 2309 
Q 1553 2238 1856 2203 
L 2053 2175 
Q 2913 2066 3209 1816 
Q 3506 1566 3506 1031 
Q 3506 472 3093 190 
Q 2681 -91 1863 -91 
Q 1516 -91 1145 -36 
Q 775 19 384 128 
L 384 978 
Q 719 816 1070 734 
Q 1422 653 1784 653 
Q 2113 653 2278 743 
Q 2444 834 2444 1013 
Q 2444 1163 2330 1236 
Q 2216 1309 1875 1350 
L 1678 1375 
Q 931 1469 631 1722 
Q 331 1975 331 2491 
Q 331 3047 712 3315 
Q 1094 3584 1881 3584 
Q 2191 3584 2531 3537 
Q 2872 3491 3272 3391 
z
" transform="scale(0.015625)"/>
      <path id="DejaVuSans-Bold-74" d="M 1759 4494 
L 1759 3500 
L 2913 3500 
L 2913 2700 
L 1759 2700 
L 1759 1216 
Q 1759 972 1856 886 
Q 1953 800 2241 800 
L 2816 800 
L 2816 0 
L 1856 0 
Q 1194 0 917 276 
Q 641 553 641 1216 
L 641 2700 
L 84 2700 
L 84 3500 
L 641 3500 
L 641 4494 
L 1759 4494 
z
" transform="scale(0.015625)"/>
      <path id="DejaVuSans-Bold-79" d="M 78 3500 
L 1197 3500 
L 2138 1125 
L 2938 3500 
L 4056 3500 
L 2584 -331 
Q 2363 -916 2067 -1148 
Q 1772 -1381 1288 -1381 
L 641 -1381 
L 641 -647 
L 991 -647 
Q 1275 -647 1404 -556 
Q 1534 -466 1606 -231 
L 1638 -134 
L 78 3500 
z
" transform="scale(0.015625)"/>
     </defs>
     <use xlink:href="#DejaVuSans-Bold-45"/>
     <use xlink:href="#DejaVuSans-Bold-64" x="68.310547"/>
     <use xlink:href="#DejaVuSans-Bold-67" x="139.892578"/>
     <use xlink:href="#DejaVuSans-Bold-65" x="211.474609"/>
     <use xlink:href="#DejaVuSans-Bold-20" x="279.296875"/>
     <use xlink:href="#DejaVuSans-Bold-43" x="314.111328"/>
     <use xlink:href="#DejaVuSans-Bold-6f" x="387.5"/>
     <use xlink:href="#DejaVuSans-Bold-76" x="456.201172"/>
     <use xlink:href="#DejaVuSans-Bold-65" x="521.386719"/>
     <use xlink:href="#DejaVuSans-Bold-72" x="589.208984"/>
     <use xlink:href="#DejaVuSans-Bold-61" x="638.525391"/>
     <use xlink:href="#DejaVuSans-Bold-67" x="706.005859"/>
     <use xlink:href="#DejaVuSans-Bold-65" x="777.587891"/>
     <use xlink:href="#DejaVuSans-Bold-20" x="845.410156"/>
     <use xlink:href="#DejaVuSans-Bold-48" x="880.224609"/>
     <use xlink:href="#DejaVuSans-Bold-69" x="963.916016"/>
     <use xlink:href="#DejaVuSans-Bold-73" x="998.193359"/>
     <use xlink:href="#DejaVuSans-Bold-74" x="1057.714844"/>
     <use xlink:href="#DejaVuSans-Bold-6f" x="1105.517578"/>
     <use xlink:href="#DejaVuSans-Bold-72" x="1174.21875"/>
     <use xlink:href="#DejaVuSans-Bold-79" x="1223.535156"/>
    </g>
   </g>
   <g id="legend_1">
    <g id="patch_5">
     <path d="M 60.46 154.6795 
L 171.989 154.6795 
Q 173.749 154.6795 173.749 152.9195 
L 173.749 75.28 
Q 173.749 73.52 171.989 73.52 
L 60.46 73.52 
Q 58.7 73.52 58.7 75.28 
L 58.7 152.9195 
Q 58.7 154.6795 60.46 154.6795 
z
" style="fill: #ffffff; opacity: 0.8; stroke: #cccccc; stroke-width: 0.8; stroke-linejoin: miter"/>
    </g>
    <g id="text_33">
     <!-- fuzzer -->
     <g style="fill: #262626" transform="translate(101.5275 84.3345)scale(0.096 -0.096)">
      <defs>
       <path id="DejaVuSans-66" d="M 2375 4863 
L 2375 4384 
L 1825 4384 
Q 1516 4384 1395 4259 
Q 1275 4134 1275 3809 
L 1275 3500 
L 2222 3500 
L 2222 3053 
L 1275 3053 
L 1275 0 
L 697 0 
L 697 3053 
L 147 3053 
L 147 3500 
L 697 3500 
L 697 3744 
Q 697 4328 969 4595 
Q 1241 4863 1831 4863 
L 2375 4863 
z
" transform="scale(0.015625)"/>
       <path id="DejaVuSans-7a" d="M 353 3500 
L 3084 3500 
L 3084 2975 
L 922 459 
L 3084 459 
L 3084 0 
L 275 0 
L 275 525 
L 2438 3041 
L 353 3041 
L 353 3500 
z
" transform="scale(0.015625)"/>
      </defs>
      <use xlink:href="#DejaVuSans-66"/>
      <use xlink:href="#DejaVuSans-75" x="35.205078"/>
      <use xlink:href="#DejaVuSans-7a" x="98.583984"/>
      <use xlink:href="#DejaVuSans-7a" x="151.074219"/>
      <use xlink:href="#DejaVuSans-65" x="203.564453"/>
      <use xlink:href="#DejaVuSans-72" x="265.087891"/>
     </g>
    </g>
    <g id="line2d_40">
     <path d="M 62.22 94.337625 
L 71.02 94.337625 
L 79.82 94.337625 
" style="fill: none; stroke: #db5f57; stroke-width: 1.2; stroke-linecap: round"/>
    </g>
    <g id="text_34">
     <!-- mopt-0-exid1 -->
     <g style="fill: #262626" transform="translate(86.86 97.417625)scale(0.088 -0.088)">
      <defs>
       <path id="DejaVuSans-70" d="M 1159 525 
L 1159 -1331 
L 581 -1331 
L 581 3500 
L 1159 3500 
L 1159 2969 
Q 1341 3281 1617 3432 
Q 1894 3584 2278 3584 
Q 2916 3584 3314 3078 
Q 3713 2572 3713 1747 
Q 3713 922 3314 415 
Q 2916 -91 2278 -91 
Q 1894 -91 1617 61 
Q 1341 213 1159 525 
z
M 3116 1747 
Q 3116 2381 2855 2742 
Q 2594 3103 2138 3103 
Q 1681 3103 1420 2742 
Q 1159 2381 1159 1747 
Q 1159 1113 1420 752 
Q 1681 391 2138 391 
Q 2594 391 2855 752 
Q 3116 1113 3116 1747 
z
" transform="scale(0.015625)"/>
       <path id="DejaVuSans-2d" d="M 313 2009 
L 1997 2009 
L 1997 1497 
L 313 1497 
L 313 2009 
z
" transform="scale(0.015625)"/>
       <path id="DejaVuSans-78" d="M 3513 3500 
L 2247 1797 
L 3578 0 
L 2900 0 
L 1881 1375 
L 863 0 
L 184 0 
L 1544 1831 
L 300 3500 
L 978 3500 
L 1906 2253 
L 2834 3500 
L 3513 3500 
z
" transform="scale(0.015625)"/>
      </defs>
      <use xlink:href="#DejaVuSans-6d"/>
      <use xlink:href="#DejaVuSans-6f" x="97.412109"/>
      <use xlink:href="#DejaVuSans-70" x="158.59375"/>
      <use xlink:href="#DejaVuSans-74" x="222.070312"/>
      <use xlink:href="#DejaVuSans-2d" x="261.279297"/>
      <use xlink:href="#DejaVuSans-30" x="297.363281"/>
      <use xlink:href="#DejaVuSans-2d" x="360.986328"/>
      <use xlink:href="#DejaVuSans-65" x="397.070312"/>
      <use xlink:href="#DejaVuSans-78" x="456.84375"/>
      <use xlink:href="#DejaVuSans-69" x="516.023438"/>
      <use xlink:href="#DejaVuSans-64" x="543.806641"/>
      <use xlink:href="#DejaVuSans-31" x="607.283203"/>
     </g>
    </g>
    <g id="line2d_41">
     <path d="M 62.22 107.254375 
L 71.02 107.254375 
L 79.82 107.254375 
" style="fill: none; stroke: #b9db57; stroke-width: 1.2; stroke-linecap: round"/>
    </g>
    <g id="text_35">
     <!-- aflplusplus-0-exid1 -->
     <g style="fill: #262626" transform="translate(86.86 110.334375)scale(0.088 -0.088)">
      <defs>
       <path id="DejaVuSans-6c" d="M 603 4863 
L 1178 4863 
L 1178 0 
L 603 0 
L 603 4863 
z
" transform="scale(0.015625)"/>
      </defs>
      <use xlink:href="#DejaVuSans-61"/>
      <use xlink:href="#DejaVuSans-66" x="61.279297"/>
      <use xlink:href="#DejaVuSans-6c" x="96.484375"/>
      <use xlink:href="#DejaVuSans-70" x="124.267578"/>
      <use xlink:href="#DejaVuSans-6c" x="187.744141"/>
      <use xlink:href="#DejaVuSans-75" x="215.527344"/>
      <use xlink:href="#DejaVuSans-73" x="278.90625"/>
      <use xlink:href="#DejaVuSans-70" x="331.005859"/>
      <use xlink:href="#DejaVuSans-6c" x="394.482422"/>
      <use xlink:href="#DejaVuSans-75" x="422.265625"/>
      <use xlink:href="#DejaVuSans-73" x="485.644531"/>
      <use xlink:href="#DejaVuSans-2d" x="537.744141"/>
      <use xlink:href="#DejaVuSans-30" x="573.828125"/>
      <use xlink:href="#DejaVuSans-2d" x="637.451172"/>
      <use xlink:href="#DejaVuSans-65" x="673.535156"/>
      <use xlink:href="#DejaVuSans-78" x="733.308594"/>
      <use xlink:href="#DejaVuSans-69" x="792.488281"/>
      <use xlink:href="#DejaVuSans-64" x="820.271484"/>
      <use xlink:href="#DejaVuSans-31" x="883.748047"/>
     </g>
    </g>
    <g id="line2d_42">
     <path d="M 62.22 120.171125 
L 71.02 120.171125 
L 79.82 120.171125 
" style="fill: none; stroke: #57db94; stroke-width: 1.2; stroke-linecap: round"/>
    </g>
    <g id="text_36">
     <!-- symcc-0-exid1 -->
     <g style="fill: #262626" transform="translate(86.86 123.251125)scale(0.088 -0.088)">
      <defs>
       <path id="DejaVuSans-79" d="M 2059 -325 
Q 1816 -950 1584 -1140 
Q 1353 -1331 966 -1331 
L 506 -1331 
L 506 -850 
L 844 -850 
Q 1081 -850 1212 -737 
Q 1344 -625 1503 -206 
L 1606 56 
L 191 3500 
L 800 3500 
L 1894 763 
L 2988 3500 
L 3597 3500 
L 2059 -325 
z
" transform="scale(0.015625)"/>
       <path id="DejaVuSans-63" d="M 3122 3366 
L 3122 2828 
Q 2878 2963 2633 3030 
Q 2388 3097 2138 3097 
Q 1578 3097 1268 2742 
Q 959 2388 959 1747 
Q 959 1106 1268 751 
Q 1578 397 2138 397 
Q 2388 397 2633 464 
Q 2878 531 3122 666 
L 3122 134 
Q 2881 22 2623 -34 
Q 2366 -91 2075 -91 
Q 1284 -91 818 406 
Q 353 903 353 1747 
Q 353 2603 823 3093 
Q 1294 3584 2113 3584 
Q 2378 3584 2631 3529 
Q 2884 3475 3122 3366 
z
" transform="scale(0.015625)"/>
      </defs>
      <use xlink:href="#DejaVuSans-73"/>
      <use xlink:href="#DejaVuSans-79" x="52.099609"/>
      <use xlink:href="#DejaVuSans-6d" x="111.279297"/>
      <use xlink:href="#DejaVuSans-63" x="208.691406"/>
      <use xlink:href="#DejaVuSans-63" x="263.671875"/>
      <use xlink:href="#DejaVuSans-2d" x="318.652344"/>
      <use xlink:href="#DejaVuSans-30" x="354.736328"/>
      <use xlink:href="#DejaVuSans-2d" x="418.359375"/>
      <use xlink:href="#DejaVuSans-65" x="454.443359"/>
      <use xlink:href="#DejaVuSans-78" x="514.216797"/>
      <use xlink:href="#DejaVuSans-69" x="573.396484"/>
      <use xlink:href="#DejaVuSans-64" x="601.179688"/>
      <use xlink:href="#DejaVuSans-31" x="664.65625"/>
     </g>
    </g>
    <g id="line2d_43">
     <path d="M 62.22 133.087875 
L 71.02 133.087875 
L 79.82 133.087875 
" style="fill: none; stroke: #5784db; stroke-width: 1.2; stroke-linecap: round"/>
    </g>
    <g id="text_37">
     <!-- fairfuzz-0-exid1 -->
     <g style="fill: #262626" transform="translate(86.86 136.167875)scale(0.088 -0.088)">
      <use xlink:href="#DejaVuSans-66"/>
      <use xlink:href="#DejaVuSans-61" x="35.205078"/>
      <use xlink:href="#DejaVuSans-69" x="96.484375"/>
      <use xlink:href="#DejaVuSans-72" x="124.267578"/>
      <use xlink:href="#DejaVuSans-66" x="165.380859"/>
      <use xlink:href="#DejaVuSans-75" x="200.585938"/>
      <use xlink:href="#DejaVuSans-7a" x="263.964844"/>
      <use xlink:href="#DejaVuSans-7a" x="316.455078"/>
      <use xlink:href="#DejaVuSans-2d" x="368.945312"/>
      <use xlink:href="#DejaVuSans-30" x="405.029297"/>
      <use xlink:href="#DejaVuSans-2d" x="468.652344"/>
      <use xlink:href="#DejaVuSans-65" x="504.736328"/>
      <use xlink:href="#DejaVuSans-78" x="564.509766"/>
      <use xlink:href="#DejaVuSans-69" x="623.689453"/>
      <use xlink:href="#DejaVuSans-64" x="651.472656"/>
      <use xlink:href="#DejaVuSans-31" x="714.949219"/>
     </g>
    </g>
    <g id="line2d_44">
     <path d="M 62.22 146.004625 
L 71.02 146.004625 
L 79.82 146.004625 
" style="fill: none; stroke: #c957db; stroke-width: 1.2; stroke-linecap: round"/>
    </g>
    <g id="text_38">
     <!-- fuzzer_global -->
     <g style="fill: #262626" transform="translate(86.86 149.084625)scale(0.088 -0.088)">
      <defs>
       <path id="DejaVuSans-5f" d="M 3263 -1063 
L 3263 -1509 
L -63 -1509 
L -63 -1063 
L 3263 -1063 
z
" transform="scale(0.015625)"/>
       <path id="DejaVuSans-62" d="M 3116 1747 
Q 3116 2381 2855 2742 
Q 2594 3103 2138 3103 
Q 1681 3103 1420 2742 
Q 1159 2381 1159 1747 
Q 1159 1113 1420 752 
Q 1681 391 2138 391 
Q 2594 391 2855 752 
Q 3116 1113 3116 1747 
z
M 1159 2969 
Q 1341 3281 1617 3432 
Q 1894 3584 2278 3584 
Q 2916 3584 3314 3078 
Q 3713 2572 3713 1747 
Q 3713 922 3314 415 
Q 2916 -91 2278 -91 
Q 1894 -91 1617 61 
Q 1341 213 1159 525 
L 1159 0 
L 581 0 
L 581 4863 
L 1159 4863 
L 1159 2969 
z
" transform="scale(0.015625)"/>
      </defs>
      <use xlink:href="#DejaVuSans-66"/>
      <use xlink:href="#DejaVuSans-75" x="35.205078"/>
      <use xlink:href="#DejaVuSans-7a" x="98.583984"/>
      <use xlink:href="#DejaVuSans-7a" x="151.074219"/>
      <use xlink:href="#DejaVuSans-65" x="203.564453"/>
      <use xlink:href="#DejaVuSans-72" x="265.087891"/>
      <use xlink:href="#DejaVuSans-5f" x="306.201172"/>
      <use xlink:href="#DejaVuSans-67" x="356.201172"/>
      <use xlink:href="#DejaVuSans-6c" x="419.677734"/>
      <use xlink:href="#DejaVuSans-6f" x="447.460938"/>
      <use xlink:href="#DejaVuSans-62" x="508.642578"/>
      <use xlink:href="#DejaVuSans-61" x="572.119141"/>
      <use xlink:href="#DejaVuSans-6c" x="633.398438"/>
     </g>
    </g>
   </g>
  </g>
 </g>
 <defs>
  <clipPath id="pc8d54e1791">
   <rect x="54.3" y="69.12" width="336.66" height="443.52"/>
  </clipPath>
 </defs>
</svg>
