<?xml version="1.0" encoding="utf-8" standalone="no"?>
<!DOCTYPE svg PUBLIC "-//W3C//DTD SVG 1.1//EN"
  "http://www.w3.org/Graphics/SVG/1.1/DTD/svg11.dtd">
<svg xmlns:xlink="http://www.w3.org/1999/xlink" width="434.7pt" height="576pt" viewBox="0 0 434.7 576" xmlns="http://www.w3.org/2000/svg" version="1.1">
 <metadata>
  <rdf:RDF xmlns:dc="http://purl.org/dc/elements/1.1/" xmlns:cc="http://creativecommons.org/ns#" xmlns:rdf="http://www.w3.org/1999/02/22-rdf-syntax-ns#">
   <cc:Work>
    <dc:type rdf:resource="http://purl.org/dc/dcmitype/StillImage"/>
    <dc:date>2022-09-15T07:59:59.095309</dc:date>
    <dc:format>image/svg+xml</dc:format>
    <dc:creator>
     <cc:Agent>
      <dc:title>Matplotlib v3.5.3, https://matplotlib.org/</dc:title>
     </cc:Agent>
    </dc:creator>
   </cc:Work>
  </rdf:RDF>
 </metadata>
 <defs>
  <style type="text/css">*{stroke-linejoin: round; stroke-linecap: butt}</style>
 </defs>
 <g id="figure_1">
  <g id="patch_1">
   <path d="M 0 576 
L 434.7 576 
L 434.7 0 
L 0 0 
z
" style="fill: #ffffff"/>
  </g>
  <g id="axes_1">
   <g id="patch_2">
    <path d="M 54.3375 512.64 
L 391.23 512.64 
L 391.23 69.12 
L 54.3375 69.12 
z
" style="fill: #ffffff"/>
   </g>
   <g id="matplotlib.axis_1">
    <g id="xtick_1">
     <g id="line2d_1">
      <path d="M 69.650795 512.64 
L 69.650795 69.12 
" clip-path="url(#p7647c712fb)" style="fill: none; stroke: #cccccc; stroke-width: 0.8; stroke-linecap: round"/>
     </g>
     <g id="text_1">
      <!-- 0 -->
      <g style="fill: #262626" transform="translate(69.388282 529.627249)rotate(-45)scale(0.088 -0.088)">
       <defs>
        <path id="DejaVuSans-30" d="M 2034 4250 
Q 1547 4250 1301 3770 
Q 1056 3291 1056 2328 
Q 1056 1369 1301 889 
Q 1547 409 2034 409 
Q 2525 409 2770 889 
Q 3016 1369 3016 2328 
Q 3016 3291 2770 3770 
Q 2525 4250 2034 4250 
z
M 2034 4750 
Q 2819 4750 3233 4129 
Q 3647 3509 3647 2328 
Q 3647 1150 3233 529 
Q 2819 -91 2034 -91 
Q 1250 -91 836 529 
Q 422 1150 422 2328 
Q 422 3509 836 4129 
Q 1250 4750 2034 4750 
z
" transform="scale(0.015625)"/>
       </defs>
       <use xlink:href="#DejaVuSans-30"/>
      </g>
     </g>
    </g>
    <g id="xtick_2">
     <g id="line2d_2">
      <path d="M 86.677392 512.64 
L 86.677392 69.12 
" clip-path="url(#p7647c712fb)" style="fill: none; stroke: #cccccc; stroke-width: 0.8; stroke-linecap: round"/>
     </g>
     <g id="text_2">
      <!-- 80 -->
      <g style="fill: #262626" transform="translate(84.435333 533.58634)rotate(-45)scale(0.088 -0.088)">
       <defs>
        <path id="DejaVuSans-38" d="M 2034 2216 
Q 1584 2216 1326 1975 
Q 1069 1734 1069 1313 
Q 1069 891 1326 650 
Q 1584 409 2034 409 
Q 2484 409 2743 651 
Q 3003 894 3003 1313 
Q 3003 1734 2745 1975 
Q 2488 2216 2034 2216 
z
M 1403 2484 
Q 997 2584 770 2862 
Q 544 3141 544 3541 
Q 544 4100 942 4425 
Q 1341 4750 2034 4750 
Q 2731 4750 3128 4425 
Q 3525 4100 3525 3541 
Q 3525 3141 3298 2862 
Q 3072 2584 2669 2484 
Q 3125 2378 3379 2068 
Q 3634 1759 3634 1313 
Q 3634 634 3220 271 
Q 2806 -91 2034 -91 
Q 1263 -91 848 271 
Q 434 634 434 1313 
Q 434 1759 690 2068 
Q 947 2378 1403 2484 
z
M 1172 3481 
Q 1172 3119 1398 2916 
Q 1625 2713 2034 2713 
Q 2441 2713 2670 2916 
Q 2900 3119 2900 3481 
Q 2900 3844 2670 4047 
Q 2441 4250 2034 4250 
Q 1625 4250 1398 4047 
Q 1172 3844 1172 3481 
z
" transform="scale(0.015625)"/>
       </defs>
       <use xlink:href="#DejaVuSans-38"/>
       <use xlink:href="#DejaVuSans-30" x="63.623047"/>
      </g>
     </g>
    </g>
    <g id="xtick_3">
     <g id="line2d_3">
      <path d="M 103.703989 512.64 
L 103.703989 69.12 
" clip-path="url(#p7647c712fb)" style="fill: none; stroke: #cccccc; stroke-width: 0.8; stroke-linecap: round"/>
     </g>
     <g id="text_3">
      <!-- 160 -->
      <g style="fill: #262626" transform="translate(99.482385 537.54543)rotate(-45)scale(0.088 -0.088)">
       <defs>
        <path id="DejaVuSans-31" d="M 794 531 
L 1825 531 
L 1825 4091 
L 703 3866 
L 703 4441 
L 1819 4666 
L 2450 4666 
L 2450 531 
L 3481 531 
L 3481 0 
L 794 0 
L 794 531 
z
" transform="scale(0.015625)"/>
        <path id="DejaVuSans-36" d="M 2113 2584 
Q 1688 2584 1439 2293 
Q 1191 2003 1191 1497 
Q 1191 994 1439 701 
Q 1688 409 2113 409 
Q 2538 409 2786 701 
Q 3034 994 3034 1497 
Q 3034 2003 2786 2293 
Q 2538 2584 2113 2584 
z
M 3366 4563 
L 3366 3988 
Q 3128 4100 2886 4159 
Q 2644 4219 2406 4219 
Q 1781 4219 1451 3797 
Q 1122 3375 1075 2522 
Q 1259 2794 1537 2939 
Q 1816 3084 2150 3084 
Q 2853 3084 3261 2657 
Q 3669 2231 3669 1497 
Q 3669 778 3244 343 
Q 2819 -91 2113 -91 
Q 1303 -91 875 529 
Q 447 1150 447 2328 
Q 447 3434 972 4092 
Q 1497 4750 2381 4750 
Q 2619 4750 2861 4703 
Q 3103 4656 3366 4563 
z
" transform="scale(0.015625)"/>
       </defs>
       <use xlink:href="#DejaVuSans-31"/>
       <use xlink:href="#DejaVuSans-36" x="63.623047"/>
       <use xlink:href="#DejaVuSans-30" x="127.246094"/>
      </g>
     </g>
    </g>
    <g id="xtick_4">
     <g id="line2d_4">
      <path d="M 120.730586 512.64 
L 120.730586 69.12 
" clip-path="url(#p7647c712fb)" style="fill: none; stroke: #cccccc; stroke-width: 0.8; stroke-linecap: round"/>
     </g>
     <g id="text_4">
      <!-- 240 -->
      <g style="fill: #262626" transform="translate(116.508981 537.54543)rotate(-45)scale(0.088 -0.088)">
       <defs>
        <path id="DejaVuSans-32" d="M 1228 531 
L 3431 531 
L 3431 0 
L 469 0 
L 469 531 
Q 828 903 1448 1529 
Q 2069 2156 2228 2338 
Q 2531 2678 2651 2914 
Q 2772 3150 2772 3378 
Q 2772 3750 2511 3984 
Q 2250 4219 1831 4219 
Q 1534 4219 1204 4116 
Q 875 4013 500 3803 
L 500 4441 
Q 881 4594 1212 4672 
Q 1544 4750 1819 4750 
Q 2544 4750 2975 4387 
Q 3406 4025 3406 3419 
Q 3406 3131 3298 2873 
Q 3191 2616 2906 2266 
Q 2828 2175 2409 1742 
Q 1991 1309 1228 531 
z
" transform="scale(0.015625)"/>
        <path id="DejaVuSans-34" d="M 2419 4116 
L 825 1625 
L 2419 1625 
L 2419 4116 
z
M 2253 4666 
L 3047 4666 
L 3047 1625 
L 3713 1625 
L 3713 1100 
L 3047 1100 
L 3047 0 
L 2419 0 
L 2419 1100 
L 313 1100 
L 313 1709 
L 2253 4666 
z
" transform="scale(0.015625)"/>
       </defs>
       <use xlink:href="#DejaVuSans-32"/>
       <use xlink:href="#DejaVuSans-34" x="63.623047"/>
       <use xlink:href="#DejaVuSans-30" x="127.246094"/>
      </g>
     </g>
    </g>
    <g id="xtick_5">
     <g id="line2d_5">
      <path d="M 137.757182 512.64 
L 137.757182 69.12 
" clip-path="url(#p7647c712fb)" style="fill: none; stroke: #cccccc; stroke-width: 0.8; stroke-linecap: round"/>
     </g>
     <g id="text_5">
      <!-- 320 -->
      <g style="fill: #262626" transform="translate(133.535578 537.54543)rotate(-45)scale(0.088 -0.088)">
       <defs>
        <path id="DejaVuSans-33" d="M 2597 2516 
Q 3050 2419 3304 2112 
Q 3559 1806 3559 1356 
Q 3559 666 3084 287 
Q 2609 -91 1734 -91 
Q 1441 -91 1130 -33 
Q 819 25 488 141 
L 488 750 
Q 750 597 1062 519 
Q 1375 441 1716 441 
Q 2309 441 2620 675 
Q 2931 909 2931 1356 
Q 2931 1769 2642 2001 
Q 2353 2234 1838 2234 
L 1294 2234 
L 1294 2753 
L 1863 2753 
Q 2328 2753 2575 2939 
Q 2822 3125 2822 3475 
Q 2822 3834 2567 4026 
Q 2313 4219 1838 4219 
Q 1578 4219 1281 4162 
Q 984 4106 628 3988 
L 628 4550 
Q 988 4650 1302 4700 
Q 1616 4750 1894 4750 
Q 2613 4750 3031 4423 
Q 3450 4097 3450 3541 
Q 3450 3153 3228 2886 
Q 3006 2619 2597 2516 
z
" transform="scale(0.015625)"/>
       </defs>
       <use xlink:href="#DejaVuSans-33"/>
       <use xlink:href="#DejaVuSans-32" x="63.623047"/>
       <use xlink:href="#DejaVuSans-30" x="127.246094"/>
      </g>
     </g>
    </g>
    <g id="xtick_6">
     <g id="line2d_6">
      <path d="M 154.783779 512.64 
L 154.783779 69.12 
" clip-path="url(#p7647c712fb)" style="fill: none; stroke: #cccccc; stroke-width: 0.8; stroke-linecap: round"/>
     </g>
     <g id="text_6">
      <!-- 400 -->
      <g style="fill: #262626" transform="translate(150.562175 537.54543)rotate(-45)scale(0.088 -0.088)">
       <use xlink:href="#DejaVuSans-34"/>
       <use xlink:href="#DejaVuSans-30" x="63.623047"/>
       <use xlink:href="#DejaVuSans-30" x="127.246094"/>
      </g>
     </g>
    </g>
    <g id="xtick_7">
     <g id="line2d_7">
      <path d="M 171.810376 512.64 
L 171.810376 69.12 
" clip-path="url(#p7647c712fb)" style="fill: none; stroke: #cccccc; stroke-width: 0.8; stroke-linecap: round"/>
     </g>
     <g id="text_7">
      <!-- 480 -->
      <g style="fill: #262626" transform="translate(167.588772 537.54543)rotate(-45)scale(0.088 -0.088)">
       <use xlink:href="#DejaVuSans-34"/>
       <use xlink:href="#DejaVuSans-38" x="63.623047"/>
       <use xlink:href="#DejaVuSans-30" x="127.246094"/>
      </g>
     </g>
    </g>
    <g id="xtick_8">
     <g id="line2d_8">
      <path d="M 188.836973 512.64 
L 188.836973 69.12 
" clip-path="url(#p7647c712fb)" style="fill: none; stroke: #cccccc; stroke-width: 0.8; stroke-linecap: round"/>
     </g>
     <g id="text_8">
      <!-- 560 -->
      <g style="fill: #262626" transform="translate(184.615368 537.54543)rotate(-45)scale(0.088 -0.088)">
       <defs>
        <path id="DejaVuSans-35" d="M 691 4666 
L 3169 4666 
L 3169 4134 
L 1269 4134 
L 1269 2991 
Q 1406 3038 1543 3061 
Q 1681 3084 1819 3084 
Q 2600 3084 3056 2656 
Q 3513 2228 3513 1497 
Q 3513 744 3044 326 
Q 2575 -91 1722 -91 
Q 1428 -91 1123 -41 
Q 819 9 494 109 
L 494 744 
Q 775 591 1075 516 
Q 1375 441 1709 441 
Q 2250 441 2565 725 
Q 2881 1009 2881 1497 
Q 2881 1984 2565 2268 
Q 2250 2553 1709 2553 
Q 1456 2553 1204 2497 
Q 953 2441 691 2322 
L 691 4666 
z
" transform="scale(0.015625)"/>
       </defs>
       <use xlink:href="#DejaVuSans-35"/>
       <use xlink:href="#DejaVuSans-36" x="63.623047"/>
       <use xlink:href="#DejaVuSans-30" x="127.246094"/>
      </g>
     </g>
    </g>
    <g id="xtick_9">
     <g id="line2d_9">
      <path d="M 205.863569 512.64 
L 205.863569 69.12 
" clip-path="url(#p7647c712fb)" style="fill: none; stroke: #cccccc; stroke-width: 0.8; stroke-linecap: round"/>
     </g>
     <g id="text_9">
      <!-- 640 -->
      <g style="fill: #262626" transform="translate(201.641965 537.54543)rotate(-45)scale(0.088 -0.088)">
       <use xlink:href="#DejaVuSans-36"/>
       <use xlink:href="#DejaVuSans-34" x="63.623047"/>
       <use xlink:href="#DejaVuSans-30" x="127.246094"/>
      </g>
     </g>
    </g>
    <g id="xtick_10">
     <g id="line2d_10">
      <path d="M 222.890166 512.64 
L 222.890166 69.12 
" clip-path="url(#p7647c712fb)" style="fill: none; stroke: #cccccc; stroke-width: 0.8; stroke-linecap: round"/>
     </g>
     <g id="text_10">
      <!-- 720 -->
      <g style="fill: #262626" transform="translate(218.668562 537.54543)rotate(-45)scale(0.088 -0.088)">
       <defs>
        <path id="DejaVuSans-37" d="M 525 4666 
L 3525 4666 
L 3525 4397 
L 1831 0 
L 1172 0 
L 2766 4134 
L 525 4134 
L 525 4666 
z
" transform="scale(0.015625)"/>
       </defs>
       <use xlink:href="#DejaVuSans-37"/>
       <use xlink:href="#DejaVuSans-32" x="63.623047"/>
       <use xlink:href="#DejaVuSans-30" x="127.246094"/>
      </g>
     </g>
    </g>
    <g id="xtick_11">
     <g id="line2d_11">
      <path d="M 239.916763 512.64 
L 239.916763 69.12 
" clip-path="url(#p7647c712fb)" style="fill: none; stroke: #cccccc; stroke-width: 0.8; stroke-linecap: round"/>
     </g>
     <g id="text_11">
      <!-- 800 -->
      <g style="fill: #262626" transform="translate(235.695159 537.54543)rotate(-45)scale(0.088 -0.088)">
       <use xlink:href="#DejaVuSans-38"/>
       <use xlink:href="#DejaVuSans-30" x="63.623047"/>
       <use xlink:href="#DejaVuSans-30" x="127.246094"/>
      </g>
     </g>
    </g>
    <g id="xtick_12">
     <g id="line2d_12">
      <path d="M 256.94336 512.64 
L 256.94336 69.12 
" clip-path="url(#p7647c712fb)" style="fill: none; stroke: #cccccc; stroke-width: 0.8; stroke-linecap: round"/>
     </g>
     <g id="text_12">
      <!-- 880 -->
      <g style="fill: #262626" transform="translate(252.721755 537.54543)rotate(-45)scale(0.088 -0.088)">
       <use xlink:href="#DejaVuSans-38"/>
       <use xlink:href="#DejaVuSans-38" x="63.623047"/>
       <use xlink:href="#DejaVuSans-30" x="127.246094"/>
      </g>
     </g>
    </g>
    <g id="xtick_13">
     <g id="line2d_13">
      <path d="M 273.969956 512.64 
L 273.969956 69.12 
" clip-path="url(#p7647c712fb)" style="fill: none; stroke: #cccccc; stroke-width: 0.8; stroke-linecap: round"/>
     </g>
     <g id="text_13">
      <!-- 960 -->
      <g style="fill: #262626" transform="translate(269.748352 537.54543)rotate(-45)scale(0.088 -0.088)">
       <defs>
        <path id="DejaVuSans-39" d="M 703 97 
L 703 672 
Q 941 559 1184 500 
Q 1428 441 1663 441 
Q 2288 441 2617 861 
Q 2947 1281 2994 2138 
Q 2813 1869 2534 1725 
Q 2256 1581 1919 1581 
Q 1219 1581 811 2004 
Q 403 2428 403 3163 
Q 403 3881 828 4315 
Q 1253 4750 1959 4750 
Q 2769 4750 3195 4129 
Q 3622 3509 3622 2328 
Q 3622 1225 3098 567 
Q 2575 -91 1691 -91 
Q 1453 -91 1209 -44 
Q 966 3 703 97 
z
M 1959 2075 
Q 2384 2075 2632 2365 
Q 2881 2656 2881 3163 
Q 2881 3666 2632 3958 
Q 2384 4250 1959 4250 
Q 1534 4250 1286 3958 
Q 1038 3666 1038 3163 
Q 1038 2656 1286 2365 
Q 1534 2075 1959 2075 
z
" transform="scale(0.015625)"/>
       </defs>
       <use xlink:href="#DejaVuSans-39"/>
       <use xlink:href="#DejaVuSans-36" x="63.623047"/>
       <use xlink:href="#DejaVuSans-30" x="127.246094"/>
      </g>
     </g>
    </g>
    <g id="xtick_14">
     <g id="line2d_14">
      <path d="M 290.996553 512.64 
L 290.996553 69.12 
" clip-path="url(#p7647c712fb)" style="fill: none; stroke: #cccccc; stroke-width: 0.8; stroke-linecap: round"/>
     </g>
     <g id="text_14">
      <!-- 1040 -->
      <g style="fill: #262626" transform="translate(284.795404 541.504521)rotate(-45)scale(0.088 -0.088)">
       <use xlink:href="#DejaVuSans-31"/>
       <use xlink:href="#DejaVuSans-30" x="63.623047"/>
       <use xlink:href="#DejaVuSans-34" x="127.246094"/>
       <use xlink:href="#DejaVuSans-30" x="190.869141"/>
      </g>
     </g>
    </g>
    <g id="xtick_15">
     <g id="line2d_15">
      <path d="M 308.02315 512.64 
L 308.02315 69.12 
" clip-path="url(#p7647c712fb)" style="fill: none; stroke: #cccccc; stroke-width: 0.8; stroke-linecap: round"/>
     </g>
     <g id="text_15">
      <!-- 1120 -->
      <g style="fill: #262626" transform="translate(301.822 541.504521)rotate(-45)scale(0.088 -0.088)">
       <use xlink:href="#DejaVuSans-31"/>
       <use xlink:href="#DejaVuSans-31" x="63.623047"/>
       <use xlink:href="#DejaVuSans-32" x="127.246094"/>
       <use xlink:href="#DejaVuSans-30" x="190.869141"/>
      </g>
     </g>
    </g>
    <g id="xtick_16">
     <g id="line2d_16">
      <path d="M 325.049747 512.64 
L 325.049747 69.12 
" clip-path="url(#p7647c712fb)" style="fill: none; stroke: #cccccc; stroke-width: 0.8; stroke-linecap: round"/>
     </g>
     <g id="text_16">
      <!-- 1200 -->
      <g style="fill: #262626" transform="translate(318.848597 541.504521)rotate(-45)scale(0.088 -0.088)">
       <use xlink:href="#DejaVuSans-31"/>
       <use xlink:href="#DejaVuSans-32" x="63.623047"/>
       <use xlink:href="#DejaVuSans-30" x="127.246094"/>
       <use xlink:href="#DejaVuSans-30" x="190.869141"/>
      </g>
     </g>
    </g>
    <g id="xtick_17">
     <g id="line2d_17">
      <path d="M 342.076343 512.64 
L 342.076343 69.12 
" clip-path="url(#p7647c712fb)" style="fill: none; stroke: #cccccc; stroke-width: 0.8; stroke-linecap: round"/>
     </g>
     <g id="text_17">
      <!-- 1280 -->
      <g style="fill: #262626" transform="translate(335.875194 541.504521)rotate(-45)scale(0.088 -0.088)">
       <use xlink:href="#DejaVuSans-31"/>
       <use xlink:href="#DejaVuSans-32" x="63.623047"/>
       <use xlink:href="#DejaVuSans-38" x="127.246094"/>
       <use xlink:href="#DejaVuSans-30" x="190.869141"/>
      </g>
     </g>
    </g>
    <g id="xtick_18">
     <g id="line2d_18">
      <path d="M 359.10294 512.64 
L 359.10294 69.12 
" clip-path="url(#p7647c712fb)" style="fill: none; stroke: #cccccc; stroke-width: 0.8; stroke-linecap: round"/>
     </g>
     <g id="text_18">
      <!-- 1360 -->
      <g style="fill: #262626" transform="translate(352.901791 541.504521)rotate(-45)scale(0.088 -0.088)">
       <use xlink:href="#DejaVuSans-31"/>
       <use xlink:href="#DejaVuSans-33" x="63.623047"/>
       <use xlink:href="#DejaVuSans-36" x="127.246094"/>
       <use xlink:href="#DejaVuSans-30" x="190.869141"/>
      </g>
     </g>
    </g>
    <g id="xtick_19">
     <g id="line2d_19">
      <path d="M 376.129537 512.64 
L 376.129537 69.12 
" clip-path="url(#p7647c712fb)" style="fill: none; stroke: #cccccc; stroke-width: 0.8; stroke-linecap: round"/>
     </g>
     <g id="text_19">
      <!-- 1440 -->
      <g style="fill: #262626" transform="translate(369.928387 541.504521)rotate(-45)scale(0.088 -0.088)">
       <use xlink:href="#DejaVuSans-31"/>
       <use xlink:href="#DejaVuSans-34" x="63.623047"/>
       <use xlink:href="#DejaVuSans-34" x="127.246094"/>
       <use xlink:href="#DejaVuSans-30" x="190.869141"/>
      </g>
     </g>
    </g>
    <g id="text_20">
     <!-- Time (Minutes) -->
     <g style="fill: #262626" transform="translate(186.87375 554.093115)scale(0.096 -0.096)">
      <defs>
       <path id="DejaVuSans-54" d="M -19 4666 
L 3928 4666 
L 3928 4134 
L 2272 4134 
L 2272 0 
L 1638 0 
L 1638 4134 
L -19 4134 
L -19 4666 
z
" transform="scale(0.015625)"/>
       <path id="DejaVuSans-69" d="M 603 3500 
L 1178 3500 
L 1178 0 
L 603 0 
L 603 3500 
z
M 603 4863 
L 1178 4863 
L 1178 4134 
L 603 4134 
L 603 4863 
z
" transform="scale(0.015625)"/>
       <path id="DejaVuSans-6d" d="M 3328 2828 
Q 3544 3216 3844 3400 
Q 4144 3584 4550 3584 
Q 5097 3584 5394 3201 
Q 5691 2819 5691 2113 
L 5691 0 
L 5113 0 
L 5113 2094 
Q 5113 2597 4934 2840 
Q 4756 3084 4391 3084 
Q 3944 3084 3684 2787 
Q 3425 2491 3425 1978 
L 3425 0 
L 2847 0 
L 2847 2094 
Q 2847 2600 2669 2842 
Q 2491 3084 2119 3084 
Q 1678 3084 1418 2786 
Q 1159 2488 1159 1978 
L 1159 0 
L 581 0 
L 581 3500 
L 1159 3500 
L 1159 2956 
Q 1356 3278 1631 3431 
Q 1906 3584 2284 3584 
Q 2666 3584 2933 3390 
Q 3200 3197 3328 2828 
z
" transform="scale(0.015625)"/>
       <path id="DejaVuSans-65" d="M 3597 1894 
L 3597 1613 
L 953 1613 
Q 991 1019 1311 708 
Q 1631 397 2203 397 
Q 2534 397 2845 478 
Q 3156 559 3463 722 
L 3463 178 
Q 3153 47 2828 -22 
Q 2503 -91 2169 -91 
Q 1331 -91 842 396 
Q 353 884 353 1716 
Q 353 2575 817 3079 
Q 1281 3584 2069 3584 
Q 2775 3584 3186 3129 
Q 3597 2675 3597 1894 
z
M 3022 2063 
Q 3016 2534 2758 2815 
Q 2500 3097 2075 3097 
Q 1594 3097 1305 2825 
Q 1016 2553 972 2059 
L 3022 2063 
z
" transform="scale(0.015625)"/>
       <path id="DejaVuSans-20" transform="scale(0.015625)"/>
       <path id="DejaVuSans-28" d="M 1984 4856 
Q 1566 4138 1362 3434 
Q 1159 2731 1159 2009 
Q 1159 1288 1364 580 
Q 1569 -128 1984 -844 
L 1484 -844 
Q 1016 -109 783 600 
Q 550 1309 550 2009 
Q 550 2706 781 3412 
Q 1013 4119 1484 4856 
L 1984 4856 
z
" transform="scale(0.015625)"/>
       <path id="DejaVuSans-4d" d="M 628 4666 
L 1569 4666 
L 2759 1491 
L 3956 4666 
L 4897 4666 
L 4897 0 
L 4281 0 
L 4281 4097 
L 3078 897 
L 2444 897 
L 1241 4097 
L 1241 0 
L 628 0 
L 628 4666 
z
" transform="scale(0.015625)"/>
       <path id="DejaVuSans-6e" d="M 3513 2113 
L 3513 0 
L 2938 0 
L 2938 2094 
Q 2938 2591 2744 2837 
Q 2550 3084 2163 3084 
Q 1697 3084 1428 2787 
Q 1159 2491 1159 1978 
L 1159 0 
L 581 0 
L 581 3500 
L 1159 3500 
L 1159 2956 
Q 1366 3272 1645 3428 
Q 1925 3584 2291 3584 
Q 2894 3584 3203 3211 
Q 3513 2838 3513 2113 
z
" transform="scale(0.015625)"/>
       <path id="DejaVuSans-75" d="M 544 1381 
L 544 3500 
L 1119 3500 
L 1119 1403 
Q 1119 906 1312 657 
Q 1506 409 1894 409 
Q 2359 409 2629 706 
Q 2900 1003 2900 1516 
L 2900 3500 
L 3475 3500 
L 3475 0 
L 2900 0 
L 2900 538 
Q 2691 219 2414 64 
Q 2138 -91 1772 -91 
Q 1169 -91 856 284 
Q 544 659 544 1381 
z
M 1991 3584 
L 1991 3584 
z
" transform="scale(0.015625)"/>
       <path id="DejaVuSans-74" d="M 1172 4494 
L 1172 3500 
L 2356 3500 
L 2356 3053 
L 1172 3053 
L 1172 1153 
Q 1172 725 1289 603 
Q 1406 481 1766 481 
L 2356 481 
L 2356 0 
L 1766 0 
Q 1100 0 847 248 
Q 594 497 594 1153 
L 594 3053 
L 172 3053 
L 172 3500 
L 594 3500 
L 594 4494 
L 1172 4494 
z
" transform="scale(0.015625)"/>
       <path id="DejaVuSans-73" d="M 2834 3397 
L 2834 2853 
Q 2591 2978 2328 3040 
Q 2066 3103 1784 3103 
Q 1356 3103 1142 2972 
Q 928 2841 928 2578 
Q 928 2378 1081 2264 
Q 1234 2150 1697 2047 
L 1894 2003 
Q 2506 1872 2764 1633 
Q 3022 1394 3022 966 
Q 3022 478 2636 193 
Q 2250 -91 1575 -91 
Q 1294 -91 989 -36 
Q 684 19 347 128 
L 347 722 
Q 666 556 975 473 
Q 1284 391 1588 391 
Q 1994 391 2212 530 
Q 2431 669 2431 922 
Q 2431 1156 2273 1281 
Q 2116 1406 1581 1522 
L 1381 1569 
Q 847 1681 609 1914 
Q 372 2147 372 2553 
Q 372 3047 722 3315 
Q 1072 3584 1716 3584 
Q 2034 3584 2315 3537 
Q 2597 3491 2834 3397 
z
" transform="scale(0.015625)"/>
       <path id="DejaVuSans-29" d="M 513 4856 
L 1013 4856 
Q 1481 4119 1714 3412 
Q 1947 2706 1947 2009 
Q 1947 1309 1714 600 
Q 1481 -109 1013 -844 
L 513 -844 
Q 928 -128 1133 580 
Q 1338 1288 1338 2009 
Q 1338 2731 1133 3434 
Q 928 4138 513 4856 
z
" transform="scale(0.015625)"/>
      </defs>
      <use xlink:href="#DejaVuSans-54"/>
      <use xlink:href="#DejaVuSans-69" x="57.958984"/>
      <use xlink:href="#DejaVuSans-6d" x="85.742188"/>
      <use xlink:href="#DejaVuSans-65" x="183.154297"/>
      <use xlink:href="#DejaVuSans-20" x="244.677734"/>
      <use xlink:href="#DejaVuSans-28" x="276.464844"/>
      <use xlink:href="#DejaVuSans-4d" x="315.478516"/>
      <use xlink:href="#DejaVuSans-69" x="401.757812"/>
      <use xlink:href="#DejaVuSans-6e" x="429.541016"/>
      <use xlink:href="#DejaVuSans-75" x="492.919922"/>
      <use xlink:href="#DejaVuSans-74" x="556.298828"/>
      <use xlink:href="#DejaVuSans-65" x="595.507812"/>
      <use xlink:href="#DejaVuSans-73" x="657.03125"/>
      <use xlink:href="#DejaVuSans-29" x="709.130859"/>
     </g>
    </g>
   </g>
   <g id="matplotlib.axis_2">
    <g id="ytick_1">
     <g id="line2d_20">
      <path d="M 54.3375 492.48 
L 391.23 492.48 
" clip-path="url(#p7647c712fb)" style="fill: none; stroke: #cccccc; stroke-width: 0.8; stroke-linecap: round"/>
     </g>
     <g id="text_21">
      <!-- 0 -->
      <g style="fill: #262626" transform="translate(40.4385 495.823312)scale(0.088 -0.088)">
       <use xlink:href="#DejaVuSans-30"/>
      </g>
     </g>
    </g>
    <g id="ytick_2">
     <g id="line2d_21">
      <path d="M 54.3375 427.552464 
L 391.23 427.552464 
" clip-path="url(#p7647c712fb)" style="fill: none; stroke: #cccccc; stroke-width: 0.8; stroke-linecap: round"/>
     </g>
     <g id="text_22">
      <!-- 100 -->
      <g style="fill: #262626" transform="translate(29.2405 430.895776)scale(0.088 -0.088)">
       <use xlink:href="#DejaVuSans-31"/>
       <use xlink:href="#DejaVuSans-30" x="63.623047"/>
       <use xlink:href="#DejaVuSans-30" x="127.246094"/>
      </g>
     </g>
    </g>
    <g id="ytick_3">
     <g id="line2d_22">
      <path d="M 54.3375 362.624928 
L 391.23 362.624928 
" clip-path="url(#p7647c712fb)" style="fill: none; stroke: #cccccc; stroke-width: 0.8; stroke-linecap: round"/>
     </g>
     <g id="text_23">
      <!-- 200 -->
      <g style="fill: #262626" transform="translate(29.2405 365.96824)scale(0.088 -0.088)">
       <use xlink:href="#DejaVuSans-32"/>
       <use xlink:href="#DejaVuSans-30" x="63.623047"/>
       <use xlink:href="#DejaVuSans-30" x="127.246094"/>
      </g>
     </g>
    </g>
    <g id="ytick_4">
     <g id="line2d_23">
      <path d="M 54.3375 297.697391 
L 391.23 297.697391 
" clip-path="url(#p7647c712fb)" style="fill: none; stroke: #cccccc; stroke-width: 0.8; stroke-linecap: round"/>
     </g>
     <g id="text_24">
      <!-- 300 -->
      <g style="fill: #262626" transform="translate(29.2405 301.040704)scale(0.088 -0.088)">
       <use xlink:href="#DejaVuSans-33"/>
       <use xlink:href="#DejaVuSans-30" x="63.623047"/>
       <use xlink:href="#DejaVuSans-30" x="127.246094"/>
      </g>
     </g>
    </g>
    <g id="ytick_5">
     <g id="line2d_24">
      <path d="M 54.3375 232.769855 
L 391.23 232.769855 
" clip-path="url(#p7647c712fb)" style="fill: none; stroke: #cccccc; stroke-width: 0.8; stroke-linecap: round"/>
     </g>
     <g id="text_25">
      <!-- 400 -->
      <g style="fill: #262626" transform="translate(29.2405 236.113168)scale(0.088 -0.088)">
       <use xlink:href="#DejaVuSans-34"/>
       <use xlink:href="#DejaVuSans-30" x="63.623047"/>
       <use xlink:href="#DejaVuSans-30" x="127.246094"/>
      </g>
     </g>
    </g>
    <g id="ytick_6">
     <g id="line2d_25">
      <path d="M 54.3375 167.842319 
L 391.23 167.842319 
" clip-path="url(#p7647c712fb)" style="fill: none; stroke: #cccccc; stroke-width: 0.8; stroke-linecap: round"/>
     </g>
     <g id="text_26">
      <!-- 500 -->
      <g style="fill: #262626" transform="translate(29.2405 171.185631)scale(0.088 -0.088)">
       <use xlink:href="#DejaVuSans-35"/>
       <use xlink:href="#DejaVuSans-30" x="63.623047"/>
       <use xlink:href="#DejaVuSans-30" x="127.246094"/>
      </g>
     </g>
    </g>
    <g id="ytick_7">
     <g id="line2d_26">
      <path d="M 54.3375 102.914783 
L 391.23 102.914783 
" clip-path="url(#p7647c712fb)" style="fill: none; stroke: #cccccc; stroke-width: 0.8; stroke-linecap: round"/>
     </g>
     <g id="text_27">
      <!-- 600 -->
      <g style="fill: #262626" transform="translate(29.2405 106.258095)scale(0.088 -0.088)">
       <use xlink:href="#DejaVuSans-36"/>
       <use xlink:href="#DejaVuSans-30" x="63.623047"/>
       <use xlink:href="#DejaVuSans-30" x="127.246094"/>
      </g>
     </g>
    </g>
    <g id="text_28">
     <!-- Edge Coverages -->
     <g style="fill: #262626" transform="translate(23.244 329.98575)rotate(-90)scale(0.096 -0.096)">
      <defs>
       <path id="DejaVuSans-45" d="M 628 4666 
L 3578 4666 
L 3578 4134 
L 1259 4134 
L 1259 2753 
L 3481 2753 
L 3481 2222 
L 1259 2222 
L 1259 531 
L 3634 531 
L 3634 0 
L 628 0 
L 628 4666 
z
" transform="scale(0.015625)"/>
       <path id="DejaVuSans-64" d="M 2906 2969 
L 2906 4863 
L 3481 4863 
L 3481 0 
L 2906 0 
L 2906 525 
Q 2725 213 2448 61 
Q 2172 -91 1784 -91 
Q 1150 -91 751 415 
Q 353 922 353 1747 
Q 353 2572 751 3078 
Q 1150 3584 1784 3584 
Q 2172 3584 2448 3432 
Q 2725 3281 2906 2969 
z
M 947 1747 
Q 947 1113 1208 752 
Q 1469 391 1925 391 
Q 2381 391 2643 752 
Q 2906 1113 2906 1747 
Q 2906 2381 2643 2742 
Q 2381 3103 1925 3103 
Q 1469 3103 1208 2742 
Q 947 2381 947 1747 
z
" transform="scale(0.015625)"/>
       <path id="DejaVuSans-67" d="M 2906 1791 
Q 2906 2416 2648 2759 
Q 2391 3103 1925 3103 
Q 1463 3103 1205 2759 
Q 947 2416 947 1791 
Q 947 1169 1205 825 
Q 1463 481 1925 481 
Q 2391 481 2648 825 
Q 2906 1169 2906 1791 
z
M 3481 434 
Q 3481 -459 3084 -895 
Q 2688 -1331 1869 -1331 
Q 1566 -1331 1297 -1286 
Q 1028 -1241 775 -1147 
L 775 -588 
Q 1028 -725 1275 -790 
Q 1522 -856 1778 -856 
Q 2344 -856 2625 -561 
Q 2906 -266 2906 331 
L 2906 616 
Q 2728 306 2450 153 
Q 2172 0 1784 0 
Q 1141 0 747 490 
Q 353 981 353 1791 
Q 353 2603 747 3093 
Q 1141 3584 1784 3584 
Q 2172 3584 2450 3431 
Q 2728 3278 2906 2969 
L 2906 3500 
L 3481 3500 
L 3481 434 
z
" transform="scale(0.015625)"/>
       <path id="DejaVuSans-43" d="M 4122 4306 
L 4122 3641 
Q 3803 3938 3442 4084 
Q 3081 4231 2675 4231 
Q 1875 4231 1450 3742 
Q 1025 3253 1025 2328 
Q 1025 1406 1450 917 
Q 1875 428 2675 428 
Q 3081 428 3442 575 
Q 3803 722 4122 1019 
L 4122 359 
Q 3791 134 3420 21 
Q 3050 -91 2638 -91 
Q 1578 -91 968 557 
Q 359 1206 359 2328 
Q 359 3453 968 4101 
Q 1578 4750 2638 4750 
Q 3056 4750 3426 4639 
Q 3797 4528 4122 4306 
z
" transform="scale(0.015625)"/>
       <path id="DejaVuSans-6f" d="M 1959 3097 
Q 1497 3097 1228 2736 
Q 959 2375 959 1747 
Q 959 1119 1226 758 
Q 1494 397 1959 397 
Q 2419 397 2687 759 
Q 2956 1122 2956 1747 
Q 2956 2369 2687 2733 
Q 2419 3097 1959 3097 
z
M 1959 3584 
Q 2709 3584 3137 3096 
Q 3566 2609 3566 1747 
Q 3566 888 3137 398 
Q 2709 -91 1959 -91 
Q 1206 -91 779 398 
Q 353 888 353 1747 
Q 353 2609 779 3096 
Q 1206 3584 1959 3584 
z
" transform="scale(0.015625)"/>
       <path id="DejaVuSans-76" d="M 191 3500 
L 800 3500 
L 1894 563 
L 2988 3500 
L 3597 3500 
L 2284 0 
L 1503 0 
L 191 3500 
z
" transform="scale(0.015625)"/>
       <path id="DejaVuSans-72" d="M 2631 2963 
Q 2534 3019 2420 3045 
Q 2306 3072 2169 3072 
Q 1681 3072 1420 2755 
Q 1159 2438 1159 1844 
L 1159 0 
L 581 0 
L 581 3500 
L 1159 3500 
L 1159 2956 
Q 1341 3275 1631 3429 
Q 1922 3584 2338 3584 
Q 2397 3584 2469 3576 
Q 2541 3569 2628 3553 
L 2631 2963 
z
" transform="scale(0.015625)"/>
       <path id="DejaVuSans-61" d="M 2194 1759 
Q 1497 1759 1228 1600 
Q 959 1441 959 1056 
Q 959 750 1161 570 
Q 1363 391 1709 391 
Q 2188 391 2477 730 
Q 2766 1069 2766 1631 
L 2766 1759 
L 2194 1759 
z
M 3341 1997 
L 3341 0 
L 2766 0 
L 2766 531 
Q 2569 213 2275 61 
Q 1981 -91 1556 -91 
Q 1019 -91 701 211 
Q 384 513 384 1019 
Q 384 1609 779 1909 
Q 1175 2209 1959 2209 
L 2766 2209 
L 2766 2266 
Q 2766 2663 2505 2880 
Q 2244 3097 1772 3097 
Q 1472 3097 1187 3025 
Q 903 2953 641 2809 
L 641 3341 
Q 956 3463 1253 3523 
Q 1550 3584 1831 3584 
Q 2591 3584 2966 3190 
Q 3341 2797 3341 1997 
z
" transform="scale(0.015625)"/>
      </defs>
      <use xlink:href="#DejaVuSans-45"/>
      <use xlink:href="#DejaVuSans-64" x="63.183594"/>
      <use xlink:href="#DejaVuSans-67" x="126.660156"/>
      <use xlink:href="#DejaVuSans-65" x="190.136719"/>
      <use xlink:href="#DejaVuSans-20" x="251.660156"/>
      <use xlink:href="#DejaVuSans-43" x="283.447266"/>
      <use xlink:href="#DejaVuSans-6f" x="353.271484"/>
      <use xlink:href="#DejaVuSans-76" x="414.453125"/>
      <use xlink:href="#DejaVuSans-65" x="473.632812"/>
      <use xlink:href="#DejaVuSans-72" x="535.15625"/>
      <use xlink:href="#DejaVuSans-61" x="576.269531"/>
      <use xlink:href="#DejaVuSans-67" x="637.548828"/>
      <use xlink:href="#DejaVuSans-65" x="701.025391"/>
      <use xlink:href="#DejaVuSans-73" x="762.548828"/>
     </g>
    </g>
   </g>
   <g id="PolyCollection_1">
    <defs>
     <path id="m822fad29d0" d="M 69.650795 -110.14029 
L 69.650795 -83.52 
L 69.650795 -110.14029 
L 69.650795 -110.14029 
z
" style="stroke: #db5f57; stroke-opacity: 0.2; stroke-width: 0.8"/>
    </defs>
    <g clip-path="url(#p7647c712fb)">
     <use xlink:href="#m822fad29d0" x="0" y="576" style="fill: #db5f57; fill-opacity: 0.2; stroke: #db5f57; stroke-opacity: 0.2; stroke-width: 0.8"/>
    </g>
   </g>
   <g id="PolyCollection_2">
    <defs>
     <path id="m4967569f4c" d="M 69.650795 -102.998261 
L 69.650795 -83.52 
L 69.650795 -102.998261 
L 69.650795 -102.998261 
z
" style="stroke: #b9db57; stroke-opacity: 0.2; stroke-width: 0.8"/>
    </defs>
    <g clip-path="url(#p7647c712fb)">
     <use xlink:href="#m4967569f4c" x="0" y="576" style="fill: #b9db57; fill-opacity: 0.2; stroke: #b9db57; stroke-opacity: 0.2; stroke-width: 0.8"/>
    </g>
   </g>
   <g id="PolyCollection_3">
    <defs>
     <path id="m9c6084aa0d" d="M 69.650795 -110.14029 
L 69.650795 -83.52 
L 69.650795 -110.14029 
L 69.650795 -110.14029 
z
" style="stroke: #57db94; stroke-opacity: 0.2; stroke-width: 0.8"/>
    </defs>
    <g clip-path="url(#p7647c712fb)">
     <use xlink:href="#m9c6084aa0d" x="0" y="576" style="fill: #57db94; fill-opacity: 0.2; stroke: #57db94; stroke-opacity: 0.2; stroke-width: 0.8"/>
    </g>
   </g>
   <g id="PolyCollection_4">
    <defs>
     <path id="m6fd0acb10f" d="M 69.650795 -139.357681 
L 69.650795 -83.52 
L 69.650795 -139.357681 
L 69.650795 -139.357681 
z
" style="stroke: #5784db; stroke-opacity: 0.2; stroke-width: 0.8"/>
    </defs>
    <g clip-path="url(#p7647c712fb)">
     <use xlink:href="#m6fd0acb10f" x="0" y="576" style="fill: #5784db; fill-opacity: 0.2; stroke: #5784db; stroke-opacity: 0.2; stroke-width: 0.8"/>
    </g>
   </g>
   <g id="PolyCollection_5">
    <defs>
     <path id="mc4f932d3dd" d="M 69.650795 -148.447536 
L 69.650795 -83.52 
L 69.650795 -148.447536 
L 69.650795 -148.447536 
z
" style="stroke: #c957db; stroke-opacity: 0.2; stroke-width: 0.8"/>
    </defs>
    <g clip-path="url(#p7647c712fb)">
     <use xlink:href="#mc4f932d3dd" x="0" y="576" style="fill: #c957db; fill-opacity: 0.2; stroke: #c957db; stroke-opacity: 0.2; stroke-width: 0.8"/>
    </g>
   </g>
   <g id="line2d_27">
    <path d="M 69.650795 479.169855 
L 69.863628 443.784348 
L 70.289293 426.903188 
L 70.714958 411.969855 
L 70.92779 399.633623 
L 71.140623 348.34087 
L 71.353455 346.393043 
L 71.566288 343.146667 
L 71.77912 342.497391 
L 71.991953 337.952464 
L 72.204785 336.653913 
L 72.417617 332.108986 
L 72.63045 332.108986 
L 72.843282 323.668406 
L 73.056115 308.085797 
L 73.268947 308.085797 
L 73.48178 306.137971 
L 73.694612 305.488696 
L 73.907445 303.54087 
L 74.545942 301.593043 
L 75.397272 297.048116 
L 76.035769 297.048116 
L 76.461434 295.749565 
L 77.099932 295.749565 
L 77.312764 294.451014 
L 77.525596 294.451014 
L 77.738429 293.801739 
L 77.951261 293.801739 
L 78.164094 293.152464 
L 78.376926 293.152464 
L 78.589759 292.503188 
L 79.015424 292.503188 
L 79.228256 291.204638 
L 79.441089 287.958261 
L 79.866754 287.958261 
L 80.292418 286.010435 
L 81.569413 286.010435 
L 81.782246 285.361159 
L 81.995078 285.361159 
L 82.420743 278.21913 
L 82.846408 274.323478 
L 83.05924 272.375652 
L 83.272073 272.375652 
L 83.697738 267.181449 
L 83.91057 267.181449 
L 84.123403 263.935072 
L 84.7619 260.688696 
L 84.974733 260.03942 
L 85.187565 258.74087 
L 85.400397 256.143768 
L 85.61323 255.494493 
L 85.826062 255.494493 
L 86.038895 254.845217 
L 86.251727 254.845217 
L 86.46456 252.897391 
L 86.677392 252.897391 
L 86.890225 248.352464 
L 87.31589 248.352464 
L 87.741555 246.404638 
L 87.954387 245.755362 
L 88.380052 245.755362 
L 88.592884 245.106087 
L 89.231382 245.106087 
L 89.444214 243.807536 
L 89.657047 240.561159 
L 89.869879 239.911884 
L 90.082712 239.911884 
L 90.295544 239.262609 
L 91.146874 239.262609 
L 91.359706 238.613333 
L 91.572539 238.613333 
L 91.785371 237.964058 
L 92.211036 237.964058 
L 92.423869 237.314783 
L 92.849534 231.471304 
L 93.275198 228.874203 
L 93.488031 228.874203 
L 94.126528 226.926377 
L 94.552193 224.978551 
L 94.765026 224.978551 
L 94.977858 224.329275 
L 95.403523 224.329275 
L 95.616356 223.68 
L 96.680518 223.68 
L 96.89335 221.082899 
L 97.106183 220.433623 
L 97.319015 220.433623 
L 97.531848 219.784348 
L 98.383177 215.23942 
L 99.021675 215.23942 
L 99.660172 213.291594 
L 99.873005 211.343768 
L 100.937167 211.343768 
L 101.149999 210.694493 
L 101.362832 210.694493 
L 101.575664 210.045217 
L 101.788497 210.045217 
L 102.214162 208.746667 
L 103.065492 208.746667 
L 103.491157 207.448116 
L 103.703989 206.149565 
L 104.768151 206.149565 
L 104.980984 205.50029 
L 109.237633 205.50029 
L 109.450465 204.851014 
L 109.663298 204.851014 
L 110.088963 203.552464 
L 113.068617 203.552464 
L 113.28145 202.903188 
L 114.558444 202.903188 
L 115.196942 193.164058 
L 118.389429 193.164058 
L 118.602261 192.514783 
L 118.815094 190.566957 
L 119.240758 190.566957 
L 119.453591 189.917681 
L 119.879256 189.917681 
L 120.092088 189.268406 
L 120.517753 189.268406 
L 120.730586 188.61913 
L 120.943418 188.61913 
L 121.156251 187.969855 
L 122.646078 187.969855 
L 122.85891 187.32058 
L 124.348738 187.32058 
L 124.56157 186.671304 
L 124.987235 186.671304 
L 125.200067 185.372754 
L 125.625732 185.372754 
L 125.838565 184.723478 
L 127.754057 184.723478 
L 127.966889 184.074203 
L 130.733711 184.074203 
L 130.946544 183.424928 
L 132.223539 183.424928 
L 132.436371 182.775652 
L 133.287701 182.775652 
L 133.500533 182.126377 
L 133.713366 182.126377 
L 133.926198 181.477101 
L 135.203193 181.477101 
L 135.416025 180.827826 
L 137.118685 180.827826 
L 137.331518 180.178551 
L 138.821345 180.178551 
L 139.034177 179.529275 
L 140.736837 179.529275 
L 140.949669 178.88 
L 141.162502 178.88 
L 141.375334 177.581449 
L 143.716491 177.581449 
L 143.929324 176.932174 
L 144.780654 176.932174 
L 144.993486 176.282899 
L 145.206319 176.282899 
L 145.419151 175.633623 
L 145.844816 175.633623 
L 146.057648 174.984348 
L 146.270481 174.984348 
L 146.483313 174.335072 
L 147.973141 174.335072 
L 148.398805 173.036522 
L 149.250135 173.036522 
L 149.462968 172.387246 
L 152.016957 172.387246 
L 152.22979 171.088696 
L 167.979392 171.088696 
L 168.192224 170.43942 
L 169.043554 170.43942 
L 169.256386 169.790145 
L 169.469219 169.790145 
L 169.682051 169.14087 
L 170.959046 169.14087 
L 171.171879 166.543768 
L 171.810376 166.543768 
L 172.236041 165.245217 
L 172.661706 163.297391 
L 174.364365 163.297391 
L 174.577198 162.648116 
L 178.408182 162.648116 
L 178.621015 161.998841 
L 180.110842 161.998841 
L 180.323674 160.70029 
L 183.090496 160.70029 
L 183.303329 160.051014 
L 185.005988 160.051014 
L 185.218821 159.401739 
L 185.644486 159.401739 
L 185.857318 158.103188 
L 190.752465 158.103188 
L 190.965297 157.453913 
L 196.924606 157.453913 
L 197.137439 156.804638 
L 207.779062 156.804638 
L 207.991894 156.155362 
L 208.204727 156.155362 
L 208.417559 154.856812 
L 208.630391 154.856812 
L 208.843224 154.207536 
L 212.887041 154.207536 
L 213.099873 153.558261 
L 213.525538 153.558261 
L 213.73837 152.908986 
L 218.84635 152.908986 
L 219.059182 152.25971 
L 225.231323 152.25971 
L 225.444156 150.311884 
L 226.295486 150.311884 
L 226.508318 145.117681 
L 230.9778 145.117681 
L 231.190632 144.468406 
L 231.403465 143.169855 
L 232.680459 143.169855 
L 232.893292 142.52058 
L 238.001271 142.52058 
L 238.214103 141.871304 
L 239.065433 141.871304 
L 239.278266 137.975652 
L 239.916763 137.975652 
L 240.342428 136.677101 
L 240.768093 136.677101 
L 240.980925 136.027826 
L 242.045088 136.027826 
L 242.25792 135.378551 
L 242.470752 135.378551 
L 242.683585 134.729275 
L 244.81191 134.729275 
L 245.024742 134.08 
L 246.727402 134.08 
L 246.940234 133.430725 
L 247.365899 133.430725 
L 247.578732 132.132174 
L 248.430061 132.132174 
L 248.642894 131.482899 
L 249.281391 131.482899 
L 249.494224 130.184348 
L 250.345553 130.184348 
L 250.558386 129.535072 
L 251.196883 129.535072 
L 251.409716 128.885797 
L 251.622548 128.885797 
L 251.835381 128.236522 
L 253.112375 128.236522 
L 253.325208 127.587246 
L 257.581857 127.587246 
L 257.79469 126.937971 
L 265.669491 126.937971 
L 265.882323 126.288696 
L 266.52082 126.288696 
L 266.733653 125.63942 
L 272.267297 125.63942 
L 272.480129 124.990145 
L 273.544292 124.990145 
L 273.757124 124.34087 
L 276.949611 124.34087 
L 277.162443 123.691594 
L 280.142098 123.691594 
L 280.35493 123.042319 
L 287.378401 123.042319 
L 287.591234 122.393043 
L 289.293894 122.393043 
L 289.506726 121.094493 
L 293.550543 121.094493 
L 293.976208 119.795942 
L 304.617831 119.795942 
L 304.830663 118.497391 
L 309.512977 118.497391 
L 309.72581 117.198841 
L 311.215637 117.198841 
L 311.428469 116.549565 
L 316.962113 116.549565 
L 317.174946 115.90029 
L 341.650679 115.90029 
L 341.863511 114.601739 
L 348.886982 114.601739 
L 349.099815 113.952464 
L 375.916705 113.952464 
L 375.916705 113.952464 
" clip-path="url(#p7647c712fb)" style="fill: none; stroke: #db5f57; stroke-width: 1.2; stroke-linecap: round"/>
   </g>
   <g id="line2d_28">
    <path d="M 69.650795 482.74087 
L 69.863628 465.210435 
L 70.289293 461.964058 
L 70.502125 397.685797 
L 70.714958 393.790145 
L 71.353455 389.894493 
L 71.77912 378.207536 
L 71.991953 377.558261 
L 72.204785 373.013333 
L 72.63045 369.766957 
L 73.48178 365.222029 
L 73.694612 310.682899 
L 74.33311 310.682899 
L 74.545942 306.137971 
L 74.758774 304.190145 
L 75.184439 304.190145 
L 75.397272 302.242319 
L 75.822937 302.242319 
L 76.035769 301.593043 
L 76.248602 300.294493 
L 77.738429 300.294493 
L 77.951261 298.346667 
L 78.164094 298.346667 
L 78.376926 297.048116 
L 79.015424 297.048116 
L 79.228256 295.10029 
L 79.441089 295.10029 
L 79.653921 291.853913 
L 80.079586 291.853913 
L 80.292418 289.906087 
L 81.143748 289.906087 
L 81.356581 289.256812 
L 81.782246 289.256812 
L 81.995078 288.607536 
L 82.207911 288.607536 
L 82.420743 280.816232 
L 82.633575 280.816232 
L 82.846408 277.569855 
L 83.272073 277.569855 
L 83.484905 272.375652 
L 83.697738 272.375652 
L 83.91057 269.778551 
L 84.123403 269.129275 
L 84.336235 265.882899 
L 84.549068 265.882899 
L 84.7619 263.285797 
L 84.974733 262.636522 
L 85.187565 260.688696 
L 85.400397 260.688696 
L 85.61323 260.03942 
L 85.826062 260.03942 
L 86.038895 258.74087 
L 86.251727 258.74087 
L 86.46456 256.793043 
L 86.677392 256.793043 
L 86.890225 252.248116 
L 87.31589 252.248116 
L 87.528722 250.949565 
L 87.741555 250.949565 
L 87.954387 249.651014 
L 89.018549 249.651014 
L 89.231382 249.001739 
L 90.082712 249.001739 
L 90.295544 244.456812 
L 90.508376 244.456812 
L 90.721209 243.158261 
L 91.572539 243.158261 
L 91.785371 241.85971 
L 92.211036 241.85971 
L 92.423869 241.210435 
L 92.636701 241.210435 
L 92.849534 236.016232 
L 93.062366 236.016232 
L 93.275198 232.769855 
L 93.700863 232.769855 
L 93.913696 232.12058 
L 94.339361 232.12058 
L 94.552193 229.523478 
L 94.765026 229.523478 
L 95.190691 228.224928 
L 95.616356 228.224928 
L 95.829188 226.926377 
L 96.467685 226.926377 
L 96.680518 225.627826 
L 97.106183 225.627826 
L 97.319015 224.329275 
L 97.531848 224.329275 
L 97.74468 223.68 
L 97.957513 221.732174 
L 98.170345 221.732174 
L 98.383177 221.082899 
L 98.59601 221.082899 
L 98.808842 219.784348 
L 99.021675 219.784348 
L 99.234507 219.135072 
L 99.44734 219.135072 
L 99.660172 217.836522 
L 100.085837 217.836522 
L 100.29867 215.23942 
L 101.362832 215.23942 
L 101.575664 213.94087 
L 101.788497 213.94087 
L 102.001329 213.291594 
L 102.426994 213.291594 
L 102.639827 212.642319 
L 103.278324 212.642319 
L 103.491157 211.343768 
L 103.916821 211.343768 
L 104.129654 210.045217 
L 104.768151 210.045217 
L 104.980984 209.395942 
L 109.237633 209.395942 
L 109.450465 208.746667 
L 110.088963 208.746667 
L 110.301795 207.448116 
L 111.153125 207.448116 
L 111.365957 206.149565 
L 111.57879 206.149565 
L 111.791622 205.50029 
L 112.004455 205.50029 
L 112.217287 203.552464 
L 112.642952 203.552464 
L 112.855785 201.604638 
L 113.494282 201.604638 
L 113.707115 199.656812 
L 114.132779 199.656812 
L 114.345612 199.007536 
L 114.771277 199.007536 
L 114.984109 197.708986 
L 115.835439 197.708986 
L 116.048272 195.761159 
L 118.602261 195.761159 
L 118.815094 195.111884 
L 119.453591 195.111884 
L 119.666423 194.462609 
L 120.092088 194.462609 
L 120.517753 193.164058 
L 123.497408 193.164058 
L 123.71024 191.865507 
L 124.56157 191.865507 
L 124.774402 191.216232 
L 125.200067 191.216232 
L 125.4129 189.917681 
L 125.838565 189.917681 
L 126.051397 189.268406 
L 127.541224 189.268406 
L 127.754057 188.61913 
L 130.308046 188.61913 
L 130.520879 187.969855 
L 131.797874 187.969855 
L 132.010706 187.32058 
L 133.500533 187.32058 
L 133.713366 186.671304 
L 135.416025 186.671304 
L 135.628858 186.022029 
L 136.054523 186.022029 
L 136.267355 185.372754 
L 137.331518 185.372754 
L 137.54435 184.723478 
L 138.39568 184.723478 
L 138.608512 184.074203 
L 140.736837 184.074203 
L 140.949669 183.424928 
L 141.162502 183.424928 
L 141.375334 182.126377 
L 142.013832 182.126377 
L 142.226664 181.477101 
L 145.206319 181.477101 
L 145.419151 180.827826 
L 146.270481 180.827826 
L 146.483313 178.88 
L 148.185973 178.88 
L 148.398805 177.581449 
L 149.037303 177.581449 
L 149.250135 176.932174 
L 152.442622 176.932174 
L 152.655455 176.282899 
L 156.273606 176.282899 
L 156.486439 175.633623 
L 167.979392 175.633623 
L 168.192224 174.984348 
L 170.107716 174.984348 
L 170.320549 173.685797 
L 170.533381 173.685797 
L 170.746214 171.737971 
L 172.023208 171.737971 
L 172.236041 169.14087 
L 173.938701 169.14087 
L 174.151533 167.193043 
L 176.067025 167.193043 
L 176.279858 166.543768 
L 179.472345 166.543768 
L 179.685177 165.894493 
L 180.962172 165.894493 
L 181.175004 163.297391 
L 185.644486 163.297391 
L 185.857318 162.648116 
L 186.282983 162.648116 
L 186.495816 161.998841 
L 189.049805 161.998841 
L 189.262638 161.349565 
L 190.3268 161.349565 
L 190.539632 160.70029 
L 197.137439 160.70029 
L 197.350271 160.051014 
L 207.991894 160.051014 
L 208.204727 159.401739 
L 208.417559 158.103188 
L 209.907386 158.103188 
L 210.120219 157.453913 
L 211.184381 157.453913 
L 211.397213 156.804638 
L 213.951203 156.804638 
L 214.164035 156.155362 
L 220.761842 156.155362 
L 220.974674 155.506087 
L 229.062308 155.506087 
L 229.27514 149.662609 
L 232.041962 149.662609 
L 232.254794 147.714783 
L 238.639768 147.714783 
L 239.278266 144.468406 
L 239.703931 144.468406 
L 239.916763 143.169855 
L 241.40659 143.169855 
L 241.619423 140.572754 
L 243.747747 140.572754 
L 243.96058 139.274203 
L 245.663239 139.274203 
L 245.876072 138.624928 
L 247.153067 138.624928 
L 247.365899 137.326377 
L 248.004396 137.326377 
L 248.217229 136.677101 
L 248.855726 136.677101 
L 249.068559 135.378551 
L 250.558386 135.378551 
L 250.771218 134.08 
L 251.835381 134.08 
L 252.048213 132.781449 
L 253.112375 132.781449 
L 253.325208 132.132174 
L 257.369025 132.132174 
L 257.581857 131.482899 
L 265.669491 131.482899 
L 265.882323 130.833623 
L 266.52082 130.833623 
L 266.733653 130.184348 
L 275.672616 130.184348 
L 275.885449 128.885797 
L 279.929265 128.885797 
L 280.142098 128.236522 
L 289.081061 128.236522 
L 289.506726 126.937971 
L 290.145223 126.937971 
L 290.358056 126.288696 
L 293.550543 126.288696 
L 293.763375 125.63942 
L 304.617831 125.63942 
L 304.830663 124.990145 
L 309.72581 124.990145 
L 309.938642 123.691594 
L 311.428469 123.691594 
L 311.641302 123.042319 
L 316.749281 123.042319 
L 316.962113 122.393043 
L 341.225014 122.393043 
L 341.437846 121.094493 
L 350.802474 121.094493 
L 351.015307 120.445217 
L 375.916705 120.445217 
L 375.916705 120.445217 
" clip-path="url(#p7647c712fb)" style="fill: none; stroke: #b9db57; stroke-width: 1.2; stroke-linecap: round"/>
   </g>
   <g id="line2d_29">
    <path d="M 69.650795 479.169855 
L 69.863628 439.23942 
L 70.07646 424.955362 
L 71.140623 401.581449 
L 71.353455 400.932174 
L 71.77912 394.43942 
L 71.991953 384.70029 
L 72.63045 370.416232 
L 73.056115 338.601739 
L 73.268947 311.332174 
L 73.694612 311.332174 
L 73.907445 309.384348 
L 74.120277 305.488696 
L 74.545942 305.488696 
L 74.758774 304.83942 
L 74.971607 304.83942 
L 75.610104 301.593043 
L 75.822937 301.593043 
L 76.248602 300.294493 
L 77.099932 300.294493 
L 77.312764 298.995942 
L 77.525596 298.995942 
L 77.738429 298.346667 
L 78.164094 298.346667 
L 78.376926 297.697391 
L 78.589759 297.697391 
L 79.015424 296.398841 
L 79.228256 293.801739 
L 79.653921 293.801739 
L 80.079586 291.204638 
L 80.292418 288.607536 
L 80.930916 288.607536 
L 81.356581 287.308986 
L 81.569413 287.308986 
L 81.782246 286.65971 
L 82.207911 286.65971 
L 82.420743 280.166957 
L 82.633575 280.166957 
L 83.05924 278.868406 
L 83.272073 271.077101 
L 83.697738 271.077101 
L 83.91057 270.427826 
L 84.123403 267.181449 
L 84.549068 267.181449 
L 84.7619 266.532174 
L 84.974733 266.532174 
L 85.187565 259.390145 
L 85.400397 258.74087 
L 86.251727 258.74087 
L 86.46456 256.143768 
L 86.677392 256.143768 
L 86.890225 255.494493 
L 87.103057 255.494493 
L 87.31589 254.845217 
L 87.528722 254.845217 
L 87.741555 254.195942 
L 87.954387 254.195942 
L 88.167219 249.001739 
L 88.380052 249.001739 
L 88.592884 248.352464 
L 89.231382 248.352464 
L 89.444214 247.703188 
L 89.657047 247.703188 
L 89.869879 247.053913 
L 90.082712 243.807536 
L 91.146874 243.807536 
L 91.359706 242.508986 
L 92.636701 242.508986 
L 92.849534 235.366957 
L 93.913696 235.366957 
L 94.339361 234.068406 
L 94.552193 228.874203 
L 96.254853 228.874203 
L 96.680518 224.978551 
L 97.531848 224.978551 
L 97.74468 224.329275 
L 97.957513 224.329275 
L 98.170345 219.784348 
L 98.383177 219.135072 
L 98.808842 219.135072 
L 99.021675 218.485797 
L 99.234507 218.485797 
L 99.44734 216.537971 
L 99.873005 216.537971 
L 100.085837 214.590145 
L 101.149999 214.590145 
L 101.362832 213.94087 
L 101.575664 213.94087 
L 101.788497 212.642319 
L 104.555319 212.642319 
L 104.768151 211.993043 
L 106.470811 211.993043 
L 106.683643 208.746667 
L 109.87613 208.746667 
L 110.088963 206.798841 
L 111.153125 206.798841 
L 111.365957 205.50029 
L 122.00758 205.50029 
L 122.220413 204.851014 
L 122.646078 204.851014 
L 122.85891 204.201739 
L 123.284575 191.216232 
L 124.135905 191.216232 
L 124.348738 190.566957 
L 125.200067 190.566957 
L 125.4129 189.268406 
L 126.477062 189.268406 
L 126.689895 188.61913 
L 127.541224 188.61913 
L 127.754057 187.969855 
L 130.095214 187.969855 
L 130.308046 187.32058 
L 132.862036 187.32058 
L 133.074868 186.671304 
L 137.54435 186.671304 
L 137.757182 186.022029 
L 137.970015 184.074203 
L 138.821345 184.074203 
L 139.034177 183.424928 
L 140.949669 183.424928 
L 141.375334 182.126377 
L 142.013832 182.126377 
L 142.226664 181.477101 
L 144.142156 181.477101 
L 144.354989 180.827826 
L 144.780654 180.827826 
L 144.993486 180.178551 
L 145.844816 180.178551 
L 146.270481 178.230725 
L 147.973141 178.230725 
L 148.185973 177.581449 
L 149.037303 177.581449 
L 149.250135 176.282899 
L 152.016957 176.282899 
L 152.442622 174.984348 
L 160.955921 174.984348 
L 161.168753 174.335072 
L 166.702397 174.335072 
L 166.915229 173.685797 
L 167.766559 173.685797 
L 167.979392 173.036522 
L 169.682051 173.036522 
L 169.894884 172.387246 
L 170.107716 172.387246 
L 170.320549 171.737971 
L 176.279858 171.737971 
L 176.49269 167.193043 
L 179.259512 167.193043 
L 179.472345 166.543768 
L 179.685177 166.543768 
L 179.898009 165.894493 
L 180.323674 165.894493 
L 180.536507 164.595942 
L 186.070151 164.595942 
L 186.282983 163.946667 
L 189.901135 163.946667 
L 190.113967 163.297391 
L 193.519287 163.297391 
L 193.732119 162.648116 
L 222.677334 162.648116 
L 223.102999 158.103188 
L 223.315831 156.804638 
L 225.018491 156.804638 
L 225.231323 156.155362 
L 225.444156 154.856812 
L 225.869821 154.856812 
L 226.082653 151.610435 
L 226.295486 151.610435 
L 226.508318 150.311884 
L 239.491098 150.311884 
L 239.703931 149.013333 
L 239.916763 145.117681 
L 240.129595 144.468406 
L 240.768093 144.468406 
L 240.980925 141.871304 
L 242.896417 141.871304 
L 243.10925 140.572754 
L 245.876072 140.572754 
L 246.088904 139.923478 
L 246.727402 139.923478 
L 246.940234 139.274203 
L 247.153067 139.274203 
L 247.578732 137.975652 
L 249.281391 137.975652 
L 249.494224 136.027826 
L 250.771218 136.027826 
L 251.196883 134.729275 
L 253.112375 134.729275 
L 253.325208 134.08 
L 254.602203 134.08 
L 254.815035 133.430725 
L 266.307988 133.430725 
L 266.52082 132.781449 
L 267.37215 132.781449 
L 267.584983 131.482899 
L 272.054464 131.482899 
L 272.267297 130.833623 
L 273.331459 130.833623 
L 273.544292 130.184348 
L 279.716433 130.184348 
L 279.929265 129.535072 
L 287.378401 129.535072 
L 287.591234 128.885797 
L 289.081061 128.885797 
L 289.506726 127.587246 
L 289.932391 127.587246 
L 290.145223 126.937971 
L 307.17182 126.937971 
L 307.384653 125.63942 
L 309.300145 125.63942 
L 309.512977 124.34087 
L 313.556794 124.34087 
L 313.769626 123.691594 
L 324.624082 123.691594 
L 324.836914 123.042319 
L 328.880731 123.042319 
L 329.093563 122.393043 
L 341.012181 122.393043 
L 341.225014 121.094493 
L 348.67415 121.094493 
L 348.886982 120.445217 
L 375.916705 120.445217 
L 375.916705 120.445217 
" clip-path="url(#p7647c712fb)" style="fill: none; stroke: #57db94; stroke-width: 1.2; stroke-linecap: round"/>
   </g>
   <g id="line2d_30">
    <path d="M 69.650795 464.561159 
L 69.863628 413.917681 
L 70.502125 388.595942 
L 70.92779 379.506087 
L 71.140623 379.506087 
L 71.353455 376.908986 
L 71.566288 376.908986 
L 71.77912 369.766957 
L 71.991953 368.468406 
L 72.204785 365.222029 
L 72.417617 363.923478 
L 72.63045 363.923478 
L 72.843282 360.677101 
L 73.056115 354.833623 
L 73.268947 353.535072 
L 73.48178 353.535072 
L 74.33311 350.937971 
L 74.545942 348.34087 
L 74.971607 348.34087 
L 75.184439 347.691594 
L 79.015424 347.691594 
L 79.228256 347.042319 
L 79.441089 347.042319 
L 79.866754 345.743768 
L 80.718083 337.952464 
L 80.930916 337.303188 
L 81.143748 336.004638 
L 81.569413 336.004638 
L 81.782246 329.511884 
L 81.995078 267.830725 
L 82.207911 262.636522 
L 82.633575 259.390145 
L 83.697738 252.897391 
L 83.91057 252.897391 
L 84.123403 251.598841 
L 84.336235 251.598841 
L 84.549068 250.30029 
L 84.7619 250.30029 
L 84.974733 249.001739 
L 85.187565 249.001739 
L 85.400397 248.352464 
L 85.826062 248.352464 
L 86.251727 247.053913 
L 86.46456 245.755362 
L 86.677392 240.561159 
L 86.890225 239.911884 
L 87.954387 239.911884 
L 88.167219 239.262609 
L 89.231382 239.262609 
L 89.444214 231.471304 
L 89.657047 230.822029 
L 91.572539 230.822029 
L 91.785371 229.523478 
L 93.062366 229.523478 
L 93.275198 228.874203 
L 93.700863 228.874203 
L 93.913696 228.224928 
L 94.977858 228.224928 
L 95.190691 227.575652 
L 108.811968 227.575652 
L 109.0248 226.926377 
L 110.72746 226.926377 
L 111.153125 225.627826 
L 111.365957 225.627826 
L 111.57879 224.978551 
L 111.791622 224.978551 
L 112.004455 180.178551 
L 112.217287 178.230725 
L 112.43012 178.230725 
L 112.642952 176.282899 
L 112.855785 175.633623 
L 113.068617 175.633623 
L 113.28145 174.335072 
L 113.494282 174.335072 
L 113.707115 173.685797 
L 113.919947 173.685797 
L 114.132779 173.036522 
L 115.409774 173.036522 
L 115.835439 171.088696 
L 120.943418 171.088696 
L 121.156251 170.43942 
L 137.118685 170.43942 
L 137.331518 169.790145 
L 147.547476 169.790145 
L 147.973141 152.908986 
L 157.763434 152.908986 
L 157.976266 149.662609 
L 167.553727 149.662609 
L 167.766559 149.013333 
L 177.982517 149.013333 
L 178.19535 141.871304 
L 188.411308 141.871304 
L 188.62414 138.624928 
L 198.627266 138.624928 
L 198.840098 137.326377 
L 209.056056 137.326377 
L 209.268889 134.729275 
L 222.677334 134.729275 
L 222.890166 132.132174 
L 236.298611 132.132174 
L 236.724276 123.042319 
L 238.001271 123.042319 
L 238.214103 122.393043 
L 249.919889 122.393043 
L 250.132721 108.758261 
L 263.753998 108.758261 
L 263.966831 108.108986 
L 264.179663 105.511884 
L 265.456658 105.511884 
L 265.669491 104.862609 
L 278.013773 104.862609 
L 278.226606 103.564058 
L 291.635051 103.564058 
L 291.847883 100.317681 
L 302.915171 100.317681 
L 303.128003 99.668406 
L 316.749281 99.668406 
L 316.962113 95.772754 
L 342.076343 95.772754 
L 342.289176 94.474203 
L 353.569296 94.474203 
L 353.782129 93.824928 
L 375.916705 93.824928 
L 375.916705 93.824928 
" clip-path="url(#p7647c712fb)" style="fill: none; stroke: #5784db; stroke-width: 1.2; stroke-linecap: round"/>
   </g>
   <g id="line2d_31">
    <path d="M 69.650795 460.016232 
L 69.863628 401.581449 
L 70.714958 348.990145 
L 70.92779 335.355362 
L 71.140623 333.407536 
L 71.353455 329.511884 
L 71.566288 328.862609 
L 72.63045 307.436522 
L 73.056115 290.555362 
L 73.694612 287.308986 
L 73.907445 286.65971 
L 74.120277 285.361159 
L 74.33311 285.361159 
L 74.545942 283.413333 
L 74.971607 282.114783 
L 75.184439 280.166957 
L 75.822937 280.166957 
L 76.248602 278.868406 
L 77.099932 278.868406 
L 77.312764 277.569855 
L 77.525596 277.569855 
L 77.738429 276.92058 
L 77.951261 276.92058 
L 78.376926 275.622029 
L 78.802591 275.622029 
L 79.015424 274.972754 
L 79.228256 271.726377 
L 79.441089 270.427826 
L 79.653921 270.427826 
L 79.866754 269.778551 
L 80.079586 268.48 
L 80.930916 268.48 
L 81.143748 267.830725 
L 81.569413 267.830725 
L 81.782246 267.181449 
L 81.995078 265.233623 
L 82.420743 257.442319 
L 83.05924 253.546667 
L 83.484905 249.001739 
L 84.336235 243.158261 
L 84.549068 241.210435 
L 84.7619 240.561159 
L 85.187565 237.314783 
L 85.400397 236.016232 
L 85.826062 236.016232 
L 86.251727 234.717681 
L 86.46456 233.41913 
L 86.677392 228.224928 
L 86.890225 226.926377 
L 87.103057 226.926377 
L 87.528722 225.627826 
L 87.741555 224.329275 
L 88.380052 224.329275 
L 88.592884 223.68 
L 89.231382 223.68 
L 89.444214 216.537971 
L 89.869879 215.23942 
L 90.082712 215.23942 
L 90.295544 214.590145 
L 91.146874 214.590145 
L 91.359706 213.94087 
L 91.572539 213.94087 
L 91.785371 213.291594 
L 92.211036 213.291594 
L 92.423869 212.642319 
L 92.849534 206.798841 
L 93.275198 204.201739 
L 93.488031 204.201739 
L 93.700863 203.552464 
L 94.126528 201.604638 
L 94.552193 200.306087 
L 94.765026 200.306087 
L 95.190691 199.007536 
L 95.403523 199.007536 
L 95.616356 198.358261 
L 96.467685 198.358261 
L 96.680518 196.410435 
L 97.106183 195.111884 
L 97.319015 195.111884 
L 97.531848 194.462609 
L 97.74468 192.514783 
L 98.170345 191.216232 
L 98.383177 189.917681 
L 98.808842 189.917681 
L 99.021675 189.268406 
L 99.234507 189.268406 
L 99.44734 187.969855 
L 99.660172 187.969855 
L 99.873005 186.022029 
L 100.937167 186.022029 
L 101.575664 184.074203 
L 102.001329 184.074203 
L 102.214162 183.424928 
L 103.065492 183.424928 
L 103.491157 182.126377 
L 103.703989 180.827826 
L 104.555319 180.827826 
L 104.768151 180.178551 
L 109.237633 180.178551 
L 109.450465 179.529275 
L 109.663298 179.529275 
L 110.088963 178.230725 
L 110.72746 178.230725 
L 111.153125 176.932174 
L 111.365957 176.932174 
L 111.57879 176.282899 
L 112.004455 176.282899 
L 112.217287 174.335072 
L 112.43012 174.335072 
L 112.642952 172.387246 
L 113.068617 172.387246 
L 113.28145 170.43942 
L 113.494282 170.43942 
L 113.707115 169.790145 
L 113.919947 169.790145 
L 114.132779 169.14087 
L 114.558444 169.14087 
L 114.771277 167.842319 
L 115.409774 167.842319 
L 115.835439 165.894493 
L 118.389429 165.894493 
L 118.602261 165.245217 
L 119.240758 165.245217 
L 119.453591 164.595942 
L 119.879256 164.595942 
L 120.092088 163.946667 
L 120.304921 163.946667 
L 120.517753 163.297391 
L 120.943418 163.297391 
L 121.156251 162.648116 
L 122.646078 162.648116 
L 122.85891 161.998841 
L 124.135905 161.998841 
L 124.348738 161.349565 
L 124.987235 161.349565 
L 125.200067 160.051014 
L 125.625732 160.051014 
L 125.838565 159.401739 
L 127.541224 159.401739 
L 127.754057 158.752464 
L 130.095214 158.752464 
L 130.308046 158.103188 
L 131.797874 158.103188 
L 132.010706 157.453913 
L 133.287701 157.453913 
L 133.500533 156.804638 
L 133.713366 156.804638 
L 133.926198 156.155362 
L 135.203193 156.155362 
L 135.416025 155.506087 
L 137.118685 155.506087 
L 137.331518 154.856812 
L 138.39568 154.856812 
L 138.608512 154.207536 
L 140.736837 154.207536 
L 141.375334 152.25971 
L 142.013832 152.25971 
L 142.226664 151.610435 
L 144.142156 151.610435 
L 144.354989 150.961159 
L 145.206319 150.961159 
L 145.419151 150.311884 
L 145.844816 150.311884 
L 146.270481 149.013333 
L 147.973141 149.013333 
L 148.185973 147.714783 
L 149.037303 147.714783 
L 149.250135 147.065507 
L 152.016957 147.065507 
L 152.22979 145.766957 
L 166.702397 145.766957 
L 166.915229 145.117681 
L 167.766559 145.117681 
L 167.979392 144.468406 
L 169.043554 144.468406 
L 169.256386 143.81913 
L 170.107716 143.81913 
L 170.320549 143.169855 
L 170.533381 143.169855 
L 170.746214 141.222029 
L 171.810376 141.222029 
L 172.236041 139.923478 
L 172.661706 137.975652 
L 174.364365 137.975652 
L 174.577198 137.326377 
L 178.408182 137.326377 
L 178.621015 136.677101 
L 179.685177 136.677101 
L 179.898009 136.027826 
L 180.110842 136.027826 
L 180.323674 135.378551 
L 180.536507 134.08 
L 183.090496 134.08 
L 183.303329 133.430725 
L 185.005988 133.430725 
L 185.218821 132.781449 
L 189.049805 132.781449 
L 189.262638 132.132174 
L 196.924606 132.132174 
L 197.137439 131.482899 
L 207.779062 131.482899 
L 208.204727 130.184348 
L 208.417559 128.885797 
L 211.184381 128.885797 
L 211.397213 128.236522 
L 212.887041 128.236522 
L 213.099873 127.587246 
L 218.84635 127.587246 
L 219.059182 126.937971 
L 225.018491 126.937971 
L 225.231323 126.288696 
L 225.444156 124.990145 
L 225.869821 124.990145 
L 226.082653 121.743768 
L 226.295486 121.743768 
L 226.508318 119.795942 
L 230.9778 119.795942 
L 231.190632 119.146667 
L 231.403465 117.848116 
L 238.001271 117.848116 
L 238.214103 117.198841 
L 238.639768 117.198841 
L 239.278266 113.303188 
L 239.916763 113.303188 
L 240.342428 112.004638 
L 240.768093 112.004638 
L 240.980925 111.355362 
L 242.045088 111.355362 
L 242.25792 110.706087 
L 242.470752 110.706087 
L 242.683585 110.056812 
L 244.81191 110.056812 
L 245.024742 109.407536 
L 246.727402 109.407536 
L 246.940234 108.758261 
L 247.153067 108.758261 
L 247.578732 107.45971 
L 248.430061 107.45971 
L 248.642894 106.810435 
L 248.855726 106.810435 
L 249.068559 106.161159 
L 249.281391 106.161159 
L 249.494224 105.511884 
L 250.345553 105.511884 
L 250.558386 104.862609 
L 250.984051 104.862609 
L 251.196883 104.213333 
L 251.622548 104.213333 
L 251.835381 103.564058 
L 253.112375 103.564058 
L 253.325208 102.914783 
L 257.369025 102.914783 
L 257.581857 102.265507 
L 265.456658 102.265507 
L 265.669491 101.616232 
L 266.307988 101.616232 
L 266.52082 100.966957 
L 272.054464 100.966957 
L 272.267297 100.317681 
L 273.331459 100.317681 
L 273.544292 99.668406 
L 279.716433 99.668406 
L 279.929265 99.01913 
L 287.378401 99.01913 
L 287.591234 98.369855 
L 289.081061 98.369855 
L 289.506726 97.071304 
L 289.932391 97.071304 
L 290.145223 96.422029 
L 293.550543 96.422029 
L 293.763375 95.772754 
L 304.617831 95.772754 
L 304.830663 94.474203 
L 309.300145 94.474203 
L 309.512977 93.175652 
L 311.215637 93.175652 
L 311.428469 92.526377 
L 316.749281 92.526377 
L 316.962113 91.877101 
L 324.624082 91.877101 
L 324.836914 91.227826 
L 341.012181 91.227826 
L 341.225014 89.929275 
L 348.67415 89.929275 
L 348.886982 89.28 
L 375.916705 89.28 
L 375.916705 89.28 
" clip-path="url(#p7647c712fb)" style="fill: none; stroke: #c957db; stroke-width: 1.2; stroke-linecap: round"/>
   </g>
   <g id="line2d_32"/>
   <g id="line2d_33"/>
   <g id="line2d_34"/>
   <g id="line2d_35"/>
   <g id="line2d_36"/>
   <g id="patch_3">
    <path d="M 54.3375 512.64 
L 54.3375 69.12 
" style="fill: none; stroke: #cccccc; stroke-linejoin: miter; stroke-linecap: square"/>
   </g>
   <g id="patch_4">
    <path d="M 54.3375 512.64 
L 391.23 512.64 
" style="fill: none; stroke: #cccccc; stroke-linejoin: miter; stroke-linecap: square"/>
   </g>
   <g id="text_29">
    <!-- Edge Coverage History -->
    <g style="fill: #262626" transform="translate(115.892262 63.12)scale(0.165888 -0.165888)">
     <defs>
      <path id="DejaVuSans-Bold-45" d="M 588 4666 
L 3834 4666 
L 3834 3756 
L 1791 3756 
L 1791 2888 
L 3713 2888 
L 3713 1978 
L 1791 1978 
L 1791 909 
L 3903 909 
L 3903 0 
L 588 0 
L 588 4666 
z
" transform="scale(0.015625)"/>
      <path id="DejaVuSans-Bold-64" d="M 2919 2988 
L 2919 4863 
L 4044 4863 
L 4044 0 
L 2919 0 
L 2919 506 
Q 2688 197 2409 53 
Q 2131 -91 1766 -91 
Q 1119 -91 703 423 
Q 288 938 288 1747 
Q 288 2556 703 3070 
Q 1119 3584 1766 3584 
Q 2128 3584 2408 3439 
Q 2688 3294 2919 2988 
z
M 2181 722 
Q 2541 722 2730 984 
Q 2919 1247 2919 1747 
Q 2919 2247 2730 2509 
Q 2541 2772 2181 2772 
Q 1825 2772 1636 2509 
Q 1447 2247 1447 1747 
Q 1447 1247 1636 984 
Q 1825 722 2181 722 
z
" transform="scale(0.015625)"/>
      <path id="DejaVuSans-Bold-67" d="M 2919 594 
Q 2688 288 2409 144 
Q 2131 0 1766 0 
Q 1125 0 706 504 
Q 288 1009 288 1791 
Q 288 2575 706 3076 
Q 1125 3578 1766 3578 
Q 2131 3578 2409 3434 
Q 2688 3291 2919 2981 
L 2919 3500 
L 4044 3500 
L 4044 353 
Q 4044 -491 3511 -936 
Q 2978 -1381 1966 -1381 
Q 1638 -1381 1331 -1331 
Q 1025 -1281 716 -1178 
L 716 -306 
Q 1009 -475 1290 -558 
Q 1572 -641 1856 -641 
Q 2406 -641 2662 -400 
Q 2919 -159 2919 353 
L 2919 594 
z
M 2181 2772 
Q 1834 2772 1640 2515 
Q 1447 2259 1447 1791 
Q 1447 1309 1634 1061 
Q 1822 813 2181 813 
Q 2531 813 2725 1069 
Q 2919 1325 2919 1791 
Q 2919 2259 2725 2515 
Q 2531 2772 2181 2772 
z
" transform="scale(0.015625)"/>
      <path id="DejaVuSans-Bold-65" d="M 4031 1759 
L 4031 1441 
L 1416 1441 
Q 1456 1047 1700 850 
Q 1944 653 2381 653 
Q 2734 653 3104 758 
Q 3475 863 3866 1075 
L 3866 213 
Q 3469 63 3072 -14 
Q 2675 -91 2278 -91 
Q 1328 -91 801 392 
Q 275 875 275 1747 
Q 275 2603 792 3093 
Q 1309 3584 2216 3584 
Q 3041 3584 3536 3087 
Q 4031 2591 4031 1759 
z
M 2881 2131 
Q 2881 2450 2695 2645 
Q 2509 2841 2209 2841 
Q 1884 2841 1681 2658 
Q 1478 2475 1428 2131 
L 2881 2131 
z
" transform="scale(0.015625)"/>
      <path id="DejaVuSans-Bold-20" transform="scale(0.015625)"/>
      <path id="DejaVuSans-Bold-43" d="M 4288 256 
Q 3956 84 3597 -3 
Q 3238 -91 2847 -91 
Q 1681 -91 1000 561 
Q 319 1213 319 2328 
Q 319 3447 1000 4098 
Q 1681 4750 2847 4750 
Q 3238 4750 3597 4662 
Q 3956 4575 4288 4403 
L 4288 3438 
Q 3953 3666 3628 3772 
Q 3303 3878 2944 3878 
Q 2300 3878 1931 3465 
Q 1563 3053 1563 2328 
Q 1563 1606 1931 1193 
Q 2300 781 2944 781 
Q 3303 781 3628 887 
Q 3953 994 4288 1222 
L 4288 256 
z
" transform="scale(0.015625)"/>
      <path id="DejaVuSans-Bold-6f" d="M 2203 2784 
Q 1831 2784 1636 2517 
Q 1441 2250 1441 1747 
Q 1441 1244 1636 976 
Q 1831 709 2203 709 
Q 2569 709 2762 976 
Q 2956 1244 2956 1747 
Q 2956 2250 2762 2517 
Q 2569 2784 2203 2784 
z
M 2203 3584 
Q 3106 3584 3614 3096 
Q 4122 2609 4122 1747 
Q 4122 884 3614 396 
Q 3106 -91 2203 -91 
Q 1297 -91 786 396 
Q 275 884 275 1747 
Q 275 2609 786 3096 
Q 1297 3584 2203 3584 
z
" transform="scale(0.015625)"/>
      <path id="DejaVuSans-Bold-76" d="M 97 3500 
L 1216 3500 
L 2088 1081 
L 2956 3500 
L 4078 3500 
L 2700 0 
L 1472 0 
L 97 3500 
z
" transform="scale(0.015625)"/>
      <path id="DejaVuSans-Bold-72" d="M 3138 2547 
Q 2991 2616 2845 2648 
Q 2700 2681 2553 2681 
Q 2122 2681 1889 2404 
Q 1656 2128 1656 1613 
L 1656 0 
L 538 0 
L 538 3500 
L 1656 3500 
L 1656 2925 
Q 1872 3269 2151 3426 
Q 2431 3584 2822 3584 
Q 2878 3584 2943 3579 
Q 3009 3575 3134 3559 
L 3138 2547 
z
" transform="scale(0.015625)"/>
      <path id="DejaVuSans-Bold-61" d="M 2106 1575 
Q 1756 1575 1579 1456 
Q 1403 1338 1403 1106 
Q 1403 894 1545 773 
Q 1688 653 1941 653 
Q 2256 653 2472 879 
Q 2688 1106 2688 1447 
L 2688 1575 
L 2106 1575 
z
M 3816 1997 
L 3816 0 
L 2688 0 
L 2688 519 
Q 2463 200 2181 54 
Q 1900 -91 1497 -91 
Q 953 -91 614 226 
Q 275 544 275 1050 
Q 275 1666 698 1953 
Q 1122 2241 2028 2241 
L 2688 2241 
L 2688 2328 
Q 2688 2594 2478 2717 
Q 2269 2841 1825 2841 
Q 1466 2841 1156 2769 
Q 847 2697 581 2553 
L 581 3406 
Q 941 3494 1303 3539 
Q 1666 3584 2028 3584 
Q 2975 3584 3395 3211 
Q 3816 2838 3816 1997 
z
" transform="scale(0.015625)"/>
      <path id="DejaVuSans-Bold-48" d="M 588 4666 
L 1791 4666 
L 1791 2888 
L 3566 2888 
L 3566 4666 
L 4769 4666 
L 4769 0 
L 3566 0 
L 3566 1978 
L 1791 1978 
L 1791 0 
L 588 0 
L 588 4666 
z
" transform="scale(0.015625)"/>
      <path id="DejaVuSans-Bold-69" d="M 538 3500 
L 1656 3500 
L 1656 0 
L 538 0 
L 538 3500 
z
M 538 4863 
L 1656 4863 
L 1656 3950 
L 538 3950 
L 538 4863 
z
" transform="scale(0.015625)"/>
      <path id="DejaVuSans-Bold-73" d="M 3272 3391 
L 3272 2541 
Q 2913 2691 2578 2766 
Q 2244 2841 1947 2841 
Q 1628 2841 1473 2761 
Q 1319 2681 1319 2516 
Q 1319 2381 1436 2309 
Q 1553 2238 1856 2203 
L 2053 2175 
Q 2913 2066 3209 1816 
Q 3506 1566 3506 1031 
Q 3506 472 3093 190 
Q 2681 -91 1863 -91 
Q 1516 -91 1145 -36 
Q 775 19 384 128 
L 384 978 
Q 719 816 1070 734 
Q 1422 653 1784 653 
Q 2113 653 2278 743 
Q 2444 834 2444 1013 
Q 2444 1163 2330 1236 
Q 2216 1309 1875 1350 
L 1678 1375 
Q 931 1469 631 1722 
Q 331 1975 331 2491 
Q 331 3047 712 3315 
Q 1094 3584 1881 3584 
Q 2191 3584 2531 3537 
Q 2872 3491 3272 3391 
z
" transform="scale(0.015625)"/>
      <path id="DejaVuSans-Bold-74" d="M 1759 4494 
L 1759 3500 
L 2913 3500 
L 2913 2700 
L 1759 2700 
L 1759 1216 
Q 1759 972 1856 886 
Q 1953 800 2241 800 
L 2816 800 
L 2816 0 
L 1856 0 
Q 1194 0 917 276 
Q 641 553 641 1216 
L 641 2700 
L 84 2700 
L 84 3500 
L 641 3500 
L 641 4494 
L 1759 4494 
z
" transform="scale(0.015625)"/>
      <path id="DejaVuSans-Bold-79" d="M 78 3500 
L 1197 3500 
L 2138 1125 
L 2938 3500 
L 4056 3500 
L 2584 -331 
Q 2363 -916 2067 -1148 
Q 1772 -1381 1288 -1381 
L 641 -1381 
L 641 -647 
L 991 -647 
Q 1275 -647 1404 -556 
Q 1534 -466 1606 -231 
L 1638 -134 
L 78 3500 
z
" transform="scale(0.015625)"/>
     </defs>
     <use xlink:href="#DejaVuSans-Bold-45"/>
     <use xlink:href="#DejaVuSans-Bold-64" x="68.310547"/>
     <use xlink:href="#DejaVuSans-Bold-67" x="139.892578"/>
     <use xlink:href="#DejaVuSans-Bold-65" x="211.474609"/>
     <use xlink:href="#DejaVuSans-Bold-20" x="279.296875"/>
     <use xlink:href="#DejaVuSans-Bold-43" x="314.111328"/>
     <use xlink:href="#DejaVuSans-Bold-6f" x="387.5"/>
     <use xlink:href="#DejaVuSans-Bold-76" x="456.201172"/>
     <use xlink:href="#DejaVuSans-Bold-65" x="521.386719"/>
     <use xlink:href="#DejaVuSans-Bold-72" x="589.208984"/>
     <use xlink:href="#DejaVuSans-Bold-61" x="638.525391"/>
     <use xlink:href="#DejaVuSans-Bold-67" x="706.005859"/>
     <use xlink:href="#DejaVuSans-Bold-65" x="777.587891"/>
     <use xlink:href="#DejaVuSans-Bold-20" x="845.410156"/>
     <use xlink:href="#DejaVuSans-Bold-48" x="880.224609"/>
     <use xlink:href="#DejaVuSans-Bold-69" x="963.916016"/>
     <use xlink:href="#DejaVuSans-Bold-73" x="998.193359"/>
     <use xlink:href="#DejaVuSans-Bold-74" x="1057.714844"/>
     <use xlink:href="#DejaVuSans-Bold-6f" x="1105.517578"/>
     <use xlink:href="#DejaVuSans-Bold-72" x="1174.21875"/>
     <use xlink:href="#DejaVuSans-Bold-79" x="1223.535156"/>
    </g>
   </g>
   <g id="legend_1">
    <g id="patch_5">
     <path d="M 273.541 508.24 
L 385.07 508.24 
Q 386.83 508.24 386.83 506.48 
L 386.83 428.8405 
Q 386.83 427.0805 385.07 427.0805 
L 273.541 427.0805 
Q 271.781 427.0805 271.781 428.8405 
L 271.781 506.48 
Q 271.781 508.24 273.541 508.24 
z
" style="fill: #ffffff; opacity: 0.8; stroke: #cccccc; stroke-width: 0.8; stroke-linejoin: miter"/>
    </g>
    <g id="text_30">
     <!-- fuzzer -->
     <g style="fill: #262626" transform="translate(314.6085 437.895)scale(0.096 -0.096)">
      <defs>
       <path id="DejaVuSans-66" d="M 2375 4863 
L 2375 4384 
L 1825 4384 
Q 1516 4384 1395 4259 
Q 1275 4134 1275 3809 
L 1275 3500 
L 2222 3500 
L 2222 3053 
L 1275 3053 
L 1275 0 
L 697 0 
L 697 3053 
L 147 3053 
L 147 3500 
L 697 3500 
L 697 3744 
Q 697 4328 969 4595 
Q 1241 4863 1831 4863 
L 2375 4863 
z
" transform="scale(0.015625)"/>
       <path id="DejaVuSans-7a" d="M 353 3500 
L 3084 3500 
L 3084 2975 
L 922 459 
L 3084 459 
L 3084 0 
L 275 0 
L 275 525 
L 2438 3041 
L 353 3041 
L 353 3500 
z
" transform="scale(0.015625)"/>
      </defs>
      <use xlink:href="#DejaVuSans-66"/>
      <use xlink:href="#DejaVuSans-75" x="35.205078"/>
      <use xlink:href="#DejaVuSans-7a" x="98.583984"/>
      <use xlink:href="#DejaVuSans-7a" x="151.074219"/>
      <use xlink:href="#DejaVuSans-65" x="203.564453"/>
      <use xlink:href="#DejaVuSans-72" x="265.087891"/>
     </g>
    </g>
    <g id="line2d_37">
     <path d="M 275.301 447.898125 
L 284.101 447.898125 
L 292.901 447.898125 
" style="fill: none; stroke: #db5f57; stroke-width: 1.2; stroke-linecap: round"/>
    </g>
    <g id="text_31">
     <!-- symcc-0-exid0 -->
     <g style="fill: #262626" transform="translate(299.941 450.978125)scale(0.088 -0.088)">
      <defs>
       <path id="DejaVuSans-79" d="M 2059 -325 
Q 1816 -950 1584 -1140 
Q 1353 -1331 966 -1331 
L 506 -1331 
L 506 -850 
L 844 -850 
Q 1081 -850 1212 -737 
Q 1344 -625 1503 -206 
L 1606 56 
L 191 3500 
L 800 3500 
L 1894 763 
L 2988 3500 
L 3597 3500 
L 2059 -325 
z
" transform="scale(0.015625)"/>
       <path id="DejaVuSans-63" d="M 3122 3366 
L 3122 2828 
Q 2878 2963 2633 3030 
Q 2388 3097 2138 3097 
Q 1578 3097 1268 2742 
Q 959 2388 959 1747 
Q 959 1106 1268 751 
Q 1578 397 2138 397 
Q 2388 397 2633 464 
Q 2878 531 3122 666 
L 3122 134 
Q 2881 22 2623 -34 
Q 2366 -91 2075 -91 
Q 1284 -91 818 406 
Q 353 903 353 1747 
Q 353 2603 823 3093 
Q 1294 3584 2113 3584 
Q 2378 3584 2631 3529 
Q 2884 3475 3122 3366 
z
" transform="scale(0.015625)"/>
       <path id="DejaVuSans-2d" d="M 313 2009 
L 1997 2009 
L 1997 1497 
L 313 1497 
L 313 2009 
z
" transform="scale(0.015625)"/>
       <path id="DejaVuSans-78" d="M 3513 3500 
L 2247 1797 
L 3578 0 
L 2900 0 
L 1881 1375 
L 863 0 
L 184 0 
L 1544 1831 
L 300 3500 
L 978 3500 
L 1906 2253 
L 2834 3500 
L 3513 3500 
z
" transform="scale(0.015625)"/>
      </defs>
      <use xlink:href="#DejaVuSans-73"/>
      <use xlink:href="#DejaVuSans-79" x="52.099609"/>
      <use xlink:href="#DejaVuSans-6d" x="111.279297"/>
      <use xlink:href="#DejaVuSans-63" x="208.691406"/>
      <use xlink:href="#DejaVuSans-63" x="263.671875"/>
      <use xlink:href="#DejaVuSans-2d" x="318.652344"/>
      <use xlink:href="#DejaVuSans-30" x="354.736328"/>
      <use xlink:href="#DejaVuSans-2d" x="418.359375"/>
      <use xlink:href="#DejaVuSans-65" x="454.443359"/>
      <use xlink:href="#DejaVuSans-78" x="514.216797"/>
      <use xlink:href="#DejaVuSans-69" x="573.396484"/>
      <use xlink:href="#DejaVuSans-64" x="601.179688"/>
      <use xlink:href="#DejaVuSans-30" x="664.65625"/>
     </g>
    </g>
    <g id="line2d_38">
     <path d="M 275.301 460.814875 
L 284.101 460.814875 
L 292.901 460.814875 
" style="fill: none; stroke: #b9db57; stroke-width: 1.2; stroke-linecap: round"/>
    </g>
    <g id="text_32">
     <!-- mopt-0-exid0 -->
     <g style="fill: #262626" transform="translate(299.941 463.894875)scale(0.088 -0.088)">
      <defs>
       <path id="DejaVuSans-70" d="M 1159 525 
L 1159 -1331 
L 581 -1331 
L 581 3500 
L 1159 3500 
L 1159 2969 
Q 1341 3281 1617 3432 
Q 1894 3584 2278 3584 
Q 2916 3584 3314 3078 
Q 3713 2572 3713 1747 
Q 3713 922 3314 415 
Q 2916 -91 2278 -91 
Q 1894 -91 1617 61 
Q 1341 213 1159 525 
z
M 3116 1747 
Q 3116 2381 2855 2742 
Q 2594 3103 2138 3103 
Q 1681 3103 1420 2742 
Q 1159 2381 1159 1747 
Q 1159 1113 1420 752 
Q 1681 391 2138 391 
Q 2594 391 2855 752 
Q 3116 1113 3116 1747 
z
" transform="scale(0.015625)"/>
      </defs>
      <use xlink:href="#DejaVuSans-6d"/>
      <use xlink:href="#DejaVuSans-6f" x="97.412109"/>
      <use xlink:href="#DejaVuSans-70" x="158.59375"/>
      <use xlink:href="#DejaVuSans-74" x="222.070312"/>
      <use xlink:href="#DejaVuSans-2d" x="261.279297"/>
      <use xlink:href="#DejaVuSans-30" x="297.363281"/>
      <use xlink:href="#DejaVuSans-2d" x="360.986328"/>
      <use xlink:href="#DejaVuSans-65" x="397.070312"/>
      <use xlink:href="#DejaVuSans-78" x="456.84375"/>
      <use xlink:href="#DejaVuSans-69" x="516.023438"/>
      <use xlink:href="#DejaVuSans-64" x="543.806641"/>
      <use xlink:href="#DejaVuSans-30" x="607.283203"/>
     </g>
    </g>
    <g id="line2d_39">
     <path d="M 275.301 473.731625 
L 284.101 473.731625 
L 292.901 473.731625 
" style="fill: none; stroke: #57db94; stroke-width: 1.2; stroke-linecap: round"/>
    </g>
    <g id="text_33">
     <!-- fairfuzz-0-exid0 -->
     <g style="fill: #262626" transform="translate(299.941 476.811625)scale(0.088 -0.088)">
      <use xlink:href="#DejaVuSans-66"/>
      <use xlink:href="#DejaVuSans-61" x="35.205078"/>
      <use xlink:href="#DejaVuSans-69" x="96.484375"/>
      <use xlink:href="#DejaVuSans-72" x="124.267578"/>
      <use xlink:href="#DejaVuSans-66" x="165.380859"/>
      <use xlink:href="#DejaVuSans-75" x="200.585938"/>
      <use xlink:href="#DejaVuSans-7a" x="263.964844"/>
      <use xlink:href="#DejaVuSans-7a" x="316.455078"/>
      <use xlink:href="#DejaVuSans-2d" x="368.945312"/>
      <use xlink:href="#DejaVuSans-30" x="405.029297"/>
      <use xlink:href="#DejaVuSans-2d" x="468.652344"/>
      <use xlink:href="#DejaVuSans-65" x="504.736328"/>
      <use xlink:href="#DejaVuSans-78" x="564.509766"/>
      <use xlink:href="#DejaVuSans-69" x="623.689453"/>
      <use xlink:href="#DejaVuSans-64" x="651.472656"/>
      <use xlink:href="#DejaVuSans-30" x="714.949219"/>
     </g>
    </g>
    <g id="line2d_40">
     <path d="M 275.301 486.648375 
L 284.101 486.648375 
L 292.901 486.648375 
" style="fill: none; stroke: #5784db; stroke-width: 1.2; stroke-linecap: round"/>
    </g>
    <g id="text_34">
     <!-- aflplusplus-0-exid0 -->
     <g style="fill: #262626" transform="translate(299.941 489.728375)scale(0.088 -0.088)">
      <defs>
       <path id="DejaVuSans-6c" d="M 603 4863 
L 1178 4863 
L 1178 0 
L 603 0 
L 603 4863 
z
" transform="scale(0.015625)"/>
      </defs>
      <use xlink:href="#DejaVuSans-61"/>
      <use xlink:href="#DejaVuSans-66" x="61.279297"/>
      <use xlink:href="#DejaVuSans-6c" x="96.484375"/>
      <use xlink:href="#DejaVuSans-70" x="124.267578"/>
      <use xlink:href="#DejaVuSans-6c" x="187.744141"/>
      <use xlink:href="#DejaVuSans-75" x="215.527344"/>
      <use xlink:href="#DejaVuSans-73" x="278.90625"/>
      <use xlink:href="#DejaVuSans-70" x="331.005859"/>
      <use xlink:href="#DejaVuSans-6c" x="394.482422"/>
      <use xlink:href="#DejaVuSans-75" x="422.265625"/>
      <use xlink:href="#DejaVuSans-73" x="485.644531"/>
      <use xlink:href="#DejaVuSans-2d" x="537.744141"/>
      <use xlink:href="#DejaVuSans-30" x="573.828125"/>
      <use xlink:href="#DejaVuSans-2d" x="637.451172"/>
      <use xlink:href="#DejaVuSans-65" x="673.535156"/>
      <use xlink:href="#DejaVuSans-78" x="733.308594"/>
      <use xlink:href="#DejaVuSans-69" x="792.488281"/>
      <use xlink:href="#DejaVuSans-64" x="820.271484"/>
      <use xlink:href="#DejaVuSans-30" x="883.748047"/>
     </g>
    </g>
    <g id="line2d_41">
     <path d="M 275.301 499.565125 
L 284.101 499.565125 
L 292.901 499.565125 
" style="fill: none; stroke: #c957db; stroke-width: 1.2; stroke-linecap: round"/>
    </g>
    <g id="text_35">
     <!-- fuzzer_global -->
     <g style="fill: #262626" transform="translate(299.941 502.645125)scale(0.088 -0.088)">
      <defs>
       <path id="DejaVuSans-5f" d="M 3263 -1063 
L 3263 -1509 
L -63 -1509 
L -63 -1063 
L 3263 -1063 
z
" transform="scale(0.015625)"/>
       <path id="DejaVuSans-62" d="M 3116 1747 
Q 3116 2381 2855 2742 
Q 2594 3103 2138 3103 
Q 1681 3103 1420 2742 
Q 1159 2381 1159 1747 
Q 1159 1113 1420 752 
Q 1681 391 2138 391 
Q 2594 391 2855 752 
Q 3116 1113 3116 1747 
z
M 1159 2969 
Q 1341 3281 1617 3432 
Q 1894 3584 2278 3584 
Q 2916 3584 3314 3078 
Q 3713 2572 3713 1747 
Q 3713 922 3314 415 
Q 2916 -91 2278 -91 
Q 1894 -91 1617 61 
Q 1341 213 1159 525 
L 1159 0 
L 581 0 
L 581 4863 
L 1159 4863 
L 1159 2969 
z
" transform="scale(0.015625)"/>
      </defs>
      <use xlink:href="#DejaVuSans-66"/>
      <use xlink:href="#DejaVuSans-75" x="35.205078"/>
      <use xlink:href="#DejaVuSans-7a" x="98.583984"/>
      <use xlink:href="#DejaVuSans-7a" x="151.074219"/>
      <use xlink:href="#DejaVuSans-65" x="203.564453"/>
      <use xlink:href="#DejaVuSans-72" x="265.087891"/>
      <use xlink:href="#DejaVuSans-5f" x="306.201172"/>
      <use xlink:href="#DejaVuSans-67" x="356.201172"/>
      <use xlink:href="#DejaVuSans-6c" x="419.677734"/>
      <use xlink:href="#DejaVuSans-6f" x="447.460938"/>
      <use xlink:href="#DejaVuSans-62" x="508.642578"/>
      <use xlink:href="#DejaVuSans-61" x="572.119141"/>
      <use xlink:href="#DejaVuSans-6c" x="633.398438"/>
     </g>
    </g>
   </g>
  </g>
 </g>
 <defs>
  <clipPath id="p7647c712fb">
   <rect x="54.3375" y="69.12" width="336.8925" height="443.52"/>
  </clipPath>
 </defs>
</svg>
