<?xml version="1.0" encoding="utf-8" standalone="no"?>
<!DOCTYPE svg PUBLIC "-//W3C//DTD SVG 1.1//EN"
  "http://www.w3.org/Graphics/SVG/1.1/DTD/svg11.dtd">
<svg xmlns:xlink="http://www.w3.org/1999/xlink" width="434.7pt" height="576pt" viewBox="0 0 434.7 576" xmlns="http://www.w3.org/2000/svg" version="1.1">
 <metadata>
  <rdf:RDF xmlns:dc="http://purl.org/dc/elements/1.1/" xmlns:cc="http://creativecommons.org/ns#" xmlns:rdf="http://www.w3.org/1999/02/22-rdf-syntax-ns#">
   <cc:Work>
    <dc:type rdf:resource="http://purl.org/dc/dcmitype/StillImage"/>
    <dc:date>2022-09-15T08:12:01.667250</dc:date>
    <dc:format>image/svg+xml</dc:format>
    <dc:creator>
     <cc:Agent>
      <dc:title>Matplotlib v3.5.3, https://matplotlib.org/</dc:title>
     </cc:Agent>
    </dc:creator>
   </cc:Work>
  </rdf:RDF>
 </metadata>
 <defs>
  <style type="text/css">*{stroke-linejoin: round; stroke-linecap: butt}</style>
 </defs>
 <g id="figure_1">
  <g id="patch_1">
   <path d="M 0 576 
L 434.7 576 
L 434.7 0 
L 0 0 
z
" style="fill: #ffffff"/>
  </g>
  <g id="axes_1">
   <g id="patch_2">
    <path d="M 54.3375 512.64 
L 391.23 512.64 
L 391.23 69.12 
L 54.3375 69.12 
z
" style="fill: #ffffff"/>
   </g>
   <g id="matplotlib.axis_1">
    <g id="xtick_1">
     <g id="line2d_1">
      <path d="M 69.650795 512.64 
L 69.650795 69.12 
" clip-path="url(#p98b748868c)" style="fill: none; stroke: #cccccc; stroke-width: 0.8; stroke-linecap: round"/>
     </g>
     <g id="text_1">
      <!-- 0 -->
      <g style="fill: #262626" transform="translate(69.388282 529.627249)rotate(-45)scale(0.088 -0.088)">
       <defs>
        <path id="DejaVuSans-30" d="M 2034 4250 
Q 1547 4250 1301 3770 
Q 1056 3291 1056 2328 
Q 1056 1369 1301 889 
Q 1547 409 2034 409 
Q 2525 409 2770 889 
Q 3016 1369 3016 2328 
Q 3016 3291 2770 3770 
Q 2525 4250 2034 4250 
z
M 2034 4750 
Q 2819 4750 3233 4129 
Q 3647 3509 3647 2328 
Q 3647 1150 3233 529 
Q 2819 -91 2034 -91 
Q 1250 -91 836 529 
Q 422 1150 422 2328 
Q 422 3509 836 4129 
Q 1250 4750 2034 4750 
z
" transform="scale(0.015625)"/>
       </defs>
       <use xlink:href="#DejaVuSans-30"/>
      </g>
     </g>
    </g>
    <g id="xtick_2">
     <g id="line2d_2">
      <path d="M 86.677392 512.64 
L 86.677392 69.12 
" clip-path="url(#p98b748868c)" style="fill: none; stroke: #cccccc; stroke-width: 0.8; stroke-linecap: round"/>
     </g>
     <g id="text_2">
      <!-- 80 -->
      <g style="fill: #262626" transform="translate(84.435333 533.58634)rotate(-45)scale(0.088 -0.088)">
       <defs>
        <path id="DejaVuSans-38" d="M 2034 2216 
Q 1584 2216 1326 1975 
Q 1069 1734 1069 1313 
Q 1069 891 1326 650 
Q 1584 409 2034 409 
Q 2484 409 2743 651 
Q 3003 894 3003 1313 
Q 3003 1734 2745 1975 
Q 2488 2216 2034 2216 
z
M 1403 2484 
Q 997 2584 770 2862 
Q 544 3141 544 3541 
Q 544 4100 942 4425 
Q 1341 4750 2034 4750 
Q 2731 4750 3128 4425 
Q 3525 4100 3525 3541 
Q 3525 3141 3298 2862 
Q 3072 2584 2669 2484 
Q 3125 2378 3379 2068 
Q 3634 1759 3634 1313 
Q 3634 634 3220 271 
Q 2806 -91 2034 -91 
Q 1263 -91 848 271 
Q 434 634 434 1313 
Q 434 1759 690 2068 
Q 947 2378 1403 2484 
z
M 1172 3481 
Q 1172 3119 1398 2916 
Q 1625 2713 2034 2713 
Q 2441 2713 2670 2916 
Q 2900 3119 2900 3481 
Q 2900 3844 2670 4047 
Q 2441 4250 2034 4250 
Q 1625 4250 1398 4047 
Q 1172 3844 1172 3481 
z
" transform="scale(0.015625)"/>
       </defs>
       <use xlink:href="#DejaVuSans-38"/>
       <use xlink:href="#DejaVuSans-30" x="63.623047"/>
      </g>
     </g>
    </g>
    <g id="xtick_3">
     <g id="line2d_3">
      <path d="M 103.703989 512.64 
L 103.703989 69.12 
" clip-path="url(#p98b748868c)" style="fill: none; stroke: #cccccc; stroke-width: 0.8; stroke-linecap: round"/>
     </g>
     <g id="text_3">
      <!-- 160 -->
      <g style="fill: #262626" transform="translate(99.482385 537.54543)rotate(-45)scale(0.088 -0.088)">
       <defs>
        <path id="DejaVuSans-31" d="M 794 531 
L 1825 531 
L 1825 4091 
L 703 3866 
L 703 4441 
L 1819 4666 
L 2450 4666 
L 2450 531 
L 3481 531 
L 3481 0 
L 794 0 
L 794 531 
z
" transform="scale(0.015625)"/>
        <path id="DejaVuSans-36" d="M 2113 2584 
Q 1688 2584 1439 2293 
Q 1191 2003 1191 1497 
Q 1191 994 1439 701 
Q 1688 409 2113 409 
Q 2538 409 2786 701 
Q 3034 994 3034 1497 
Q 3034 2003 2786 2293 
Q 2538 2584 2113 2584 
z
M 3366 4563 
L 3366 3988 
Q 3128 4100 2886 4159 
Q 2644 4219 2406 4219 
Q 1781 4219 1451 3797 
Q 1122 3375 1075 2522 
Q 1259 2794 1537 2939 
Q 1816 3084 2150 3084 
Q 2853 3084 3261 2657 
Q 3669 2231 3669 1497 
Q 3669 778 3244 343 
Q 2819 -91 2113 -91 
Q 1303 -91 875 529 
Q 447 1150 447 2328 
Q 447 3434 972 4092 
Q 1497 4750 2381 4750 
Q 2619 4750 2861 4703 
Q 3103 4656 3366 4563 
z
" transform="scale(0.015625)"/>
       </defs>
       <use xlink:href="#DejaVuSans-31"/>
       <use xlink:href="#DejaVuSans-36" x="63.623047"/>
       <use xlink:href="#DejaVuSans-30" x="127.246094"/>
      </g>
     </g>
    </g>
    <g id="xtick_4">
     <g id="line2d_4">
      <path d="M 120.730586 512.64 
L 120.730586 69.12 
" clip-path="url(#p98b748868c)" style="fill: none; stroke: #cccccc; stroke-width: 0.8; stroke-linecap: round"/>
     </g>
     <g id="text_4">
      <!-- 240 -->
      <g style="fill: #262626" transform="translate(116.508981 537.54543)rotate(-45)scale(0.088 -0.088)">
       <defs>
        <path id="DejaVuSans-32" d="M 1228 531 
L 3431 531 
L 3431 0 
L 469 0 
L 469 531 
Q 828 903 1448 1529 
Q 2069 2156 2228 2338 
Q 2531 2678 2651 2914 
Q 2772 3150 2772 3378 
Q 2772 3750 2511 3984 
Q 2250 4219 1831 4219 
Q 1534 4219 1204 4116 
Q 875 4013 500 3803 
L 500 4441 
Q 881 4594 1212 4672 
Q 1544 4750 1819 4750 
Q 2544 4750 2975 4387 
Q 3406 4025 3406 3419 
Q 3406 3131 3298 2873 
Q 3191 2616 2906 2266 
Q 2828 2175 2409 1742 
Q 1991 1309 1228 531 
z
" transform="scale(0.015625)"/>
        <path id="DejaVuSans-34" d="M 2419 4116 
L 825 1625 
L 2419 1625 
L 2419 4116 
z
M 2253 4666 
L 3047 4666 
L 3047 1625 
L 3713 1625 
L 3713 1100 
L 3047 1100 
L 3047 0 
L 2419 0 
L 2419 1100 
L 313 1100 
L 313 1709 
L 2253 4666 
z
" transform="scale(0.015625)"/>
       </defs>
       <use xlink:href="#DejaVuSans-32"/>
       <use xlink:href="#DejaVuSans-34" x="63.623047"/>
       <use xlink:href="#DejaVuSans-30" x="127.246094"/>
      </g>
     </g>
    </g>
    <g id="xtick_5">
     <g id="line2d_5">
      <path d="M 137.757182 512.64 
L 137.757182 69.12 
" clip-path="url(#p98b748868c)" style="fill: none; stroke: #cccccc; stroke-width: 0.8; stroke-linecap: round"/>
     </g>
     <g id="text_5">
      <!-- 320 -->
      <g style="fill: #262626" transform="translate(133.535578 537.54543)rotate(-45)scale(0.088 -0.088)">
       <defs>
        <path id="DejaVuSans-33" d="M 2597 2516 
Q 3050 2419 3304 2112 
Q 3559 1806 3559 1356 
Q 3559 666 3084 287 
Q 2609 -91 1734 -91 
Q 1441 -91 1130 -33 
Q 819 25 488 141 
L 488 750 
Q 750 597 1062 519 
Q 1375 441 1716 441 
Q 2309 441 2620 675 
Q 2931 909 2931 1356 
Q 2931 1769 2642 2001 
Q 2353 2234 1838 2234 
L 1294 2234 
L 1294 2753 
L 1863 2753 
Q 2328 2753 2575 2939 
Q 2822 3125 2822 3475 
Q 2822 3834 2567 4026 
Q 2313 4219 1838 4219 
Q 1578 4219 1281 4162 
Q 984 4106 628 3988 
L 628 4550 
Q 988 4650 1302 4700 
Q 1616 4750 1894 4750 
Q 2613 4750 3031 4423 
Q 3450 4097 3450 3541 
Q 3450 3153 3228 2886 
Q 3006 2619 2597 2516 
z
" transform="scale(0.015625)"/>
       </defs>
       <use xlink:href="#DejaVuSans-33"/>
       <use xlink:href="#DejaVuSans-32" x="63.623047"/>
       <use xlink:href="#DejaVuSans-30" x="127.246094"/>
      </g>
     </g>
    </g>
    <g id="xtick_6">
     <g id="line2d_6">
      <path d="M 154.783779 512.64 
L 154.783779 69.12 
" clip-path="url(#p98b748868c)" style="fill: none; stroke: #cccccc; stroke-width: 0.8; stroke-linecap: round"/>
     </g>
     <g id="text_6">
      <!-- 400 -->
      <g style="fill: #262626" transform="translate(150.562175 537.54543)rotate(-45)scale(0.088 -0.088)">
       <use xlink:href="#DejaVuSans-34"/>
       <use xlink:href="#DejaVuSans-30" x="63.623047"/>
       <use xlink:href="#DejaVuSans-30" x="127.246094"/>
      </g>
     </g>
    </g>
    <g id="xtick_7">
     <g id="line2d_7">
      <path d="M 171.810376 512.64 
L 171.810376 69.12 
" clip-path="url(#p98b748868c)" style="fill: none; stroke: #cccccc; stroke-width: 0.8; stroke-linecap: round"/>
     </g>
     <g id="text_7">
      <!-- 480 -->
      <g style="fill: #262626" transform="translate(167.588772 537.54543)rotate(-45)scale(0.088 -0.088)">
       <use xlink:href="#DejaVuSans-34"/>
       <use xlink:href="#DejaVuSans-38" x="63.623047"/>
       <use xlink:href="#DejaVuSans-30" x="127.246094"/>
      </g>
     </g>
    </g>
    <g id="xtick_8">
     <g id="line2d_8">
      <path d="M 188.836973 512.64 
L 188.836973 69.12 
" clip-path="url(#p98b748868c)" style="fill: none; stroke: #cccccc; stroke-width: 0.8; stroke-linecap: round"/>
     </g>
     <g id="text_8">
      <!-- 560 -->
      <g style="fill: #262626" transform="translate(184.615368 537.54543)rotate(-45)scale(0.088 -0.088)">
       <defs>
        <path id="DejaVuSans-35" d="M 691 4666 
L 3169 4666 
L 3169 4134 
L 1269 4134 
L 1269 2991 
Q 1406 3038 1543 3061 
Q 1681 3084 1819 3084 
Q 2600 3084 3056 2656 
Q 3513 2228 3513 1497 
Q 3513 744 3044 326 
Q 2575 -91 1722 -91 
Q 1428 -91 1123 -41 
Q 819 9 494 109 
L 494 744 
Q 775 591 1075 516 
Q 1375 441 1709 441 
Q 2250 441 2565 725 
Q 2881 1009 2881 1497 
Q 2881 1984 2565 2268 
Q 2250 2553 1709 2553 
Q 1456 2553 1204 2497 
Q 953 2441 691 2322 
L 691 4666 
z
" transform="scale(0.015625)"/>
       </defs>
       <use xlink:href="#DejaVuSans-35"/>
       <use xlink:href="#DejaVuSans-36" x="63.623047"/>
       <use xlink:href="#DejaVuSans-30" x="127.246094"/>
      </g>
     </g>
    </g>
    <g id="xtick_9">
     <g id="line2d_9">
      <path d="M 205.863569 512.64 
L 205.863569 69.12 
" clip-path="url(#p98b748868c)" style="fill: none; stroke: #cccccc; stroke-width: 0.8; stroke-linecap: round"/>
     </g>
     <g id="text_9">
      <!-- 640 -->
      <g style="fill: #262626" transform="translate(201.641965 537.54543)rotate(-45)scale(0.088 -0.088)">
       <use xlink:href="#DejaVuSans-36"/>
       <use xlink:href="#DejaVuSans-34" x="63.623047"/>
       <use xlink:href="#DejaVuSans-30" x="127.246094"/>
      </g>
     </g>
    </g>
    <g id="xtick_10">
     <g id="line2d_10">
      <path d="M 222.890166 512.64 
L 222.890166 69.12 
" clip-path="url(#p98b748868c)" style="fill: none; stroke: #cccccc; stroke-width: 0.8; stroke-linecap: round"/>
     </g>
     <g id="text_10">
      <!-- 720 -->
      <g style="fill: #262626" transform="translate(218.668562 537.54543)rotate(-45)scale(0.088 -0.088)">
       <defs>
        <path id="DejaVuSans-37" d="M 525 4666 
L 3525 4666 
L 3525 4397 
L 1831 0 
L 1172 0 
L 2766 4134 
L 525 4134 
L 525 4666 
z
" transform="scale(0.015625)"/>
       </defs>
       <use xlink:href="#DejaVuSans-37"/>
       <use xlink:href="#DejaVuSans-32" x="63.623047"/>
       <use xlink:href="#DejaVuSans-30" x="127.246094"/>
      </g>
     </g>
    </g>
    <g id="xtick_11">
     <g id="line2d_11">
      <path d="M 239.916763 512.64 
L 239.916763 69.12 
" clip-path="url(#p98b748868c)" style="fill: none; stroke: #cccccc; stroke-width: 0.8; stroke-linecap: round"/>
     </g>
     <g id="text_11">
      <!-- 800 -->
      <g style="fill: #262626" transform="translate(235.695159 537.54543)rotate(-45)scale(0.088 -0.088)">
       <use xlink:href="#DejaVuSans-38"/>
       <use xlink:href="#DejaVuSans-30" x="63.623047"/>
       <use xlink:href="#DejaVuSans-30" x="127.246094"/>
      </g>
     </g>
    </g>
    <g id="xtick_12">
     <g id="line2d_12">
      <path d="M 256.94336 512.64 
L 256.94336 69.12 
" clip-path="url(#p98b748868c)" style="fill: none; stroke: #cccccc; stroke-width: 0.8; stroke-linecap: round"/>
     </g>
     <g id="text_12">
      <!-- 880 -->
      <g style="fill: #262626" transform="translate(252.721755 537.54543)rotate(-45)scale(0.088 -0.088)">
       <use xlink:href="#DejaVuSans-38"/>
       <use xlink:href="#DejaVuSans-38" x="63.623047"/>
       <use xlink:href="#DejaVuSans-30" x="127.246094"/>
      </g>
     </g>
    </g>
    <g id="xtick_13">
     <g id="line2d_13">
      <path d="M 273.969956 512.64 
L 273.969956 69.12 
" clip-path="url(#p98b748868c)" style="fill: none; stroke: #cccccc; stroke-width: 0.8; stroke-linecap: round"/>
     </g>
     <g id="text_13">
      <!-- 960 -->
      <g style="fill: #262626" transform="translate(269.748352 537.54543)rotate(-45)scale(0.088 -0.088)">
       <defs>
        <path id="DejaVuSans-39" d="M 703 97 
L 703 672 
Q 941 559 1184 500 
Q 1428 441 1663 441 
Q 2288 441 2617 861 
Q 2947 1281 2994 2138 
Q 2813 1869 2534 1725 
Q 2256 1581 1919 1581 
Q 1219 1581 811 2004 
Q 403 2428 403 3163 
Q 403 3881 828 4315 
Q 1253 4750 1959 4750 
Q 2769 4750 3195 4129 
Q 3622 3509 3622 2328 
Q 3622 1225 3098 567 
Q 2575 -91 1691 -91 
Q 1453 -91 1209 -44 
Q 966 3 703 97 
z
M 1959 2075 
Q 2384 2075 2632 2365 
Q 2881 2656 2881 3163 
Q 2881 3666 2632 3958 
Q 2384 4250 1959 4250 
Q 1534 4250 1286 3958 
Q 1038 3666 1038 3163 
Q 1038 2656 1286 2365 
Q 1534 2075 1959 2075 
z
" transform="scale(0.015625)"/>
       </defs>
       <use xlink:href="#DejaVuSans-39"/>
       <use xlink:href="#DejaVuSans-36" x="63.623047"/>
       <use xlink:href="#DejaVuSans-30" x="127.246094"/>
      </g>
     </g>
    </g>
    <g id="xtick_14">
     <g id="line2d_14">
      <path d="M 290.996553 512.64 
L 290.996553 69.12 
" clip-path="url(#p98b748868c)" style="fill: none; stroke: #cccccc; stroke-width: 0.8; stroke-linecap: round"/>
     </g>
     <g id="text_14">
      <!-- 1040 -->
      <g style="fill: #262626" transform="translate(284.795404 541.504521)rotate(-45)scale(0.088 -0.088)">
       <use xlink:href="#DejaVuSans-31"/>
       <use xlink:href="#DejaVuSans-30" x="63.623047"/>
       <use xlink:href="#DejaVuSans-34" x="127.246094"/>
       <use xlink:href="#DejaVuSans-30" x="190.869141"/>
      </g>
     </g>
    </g>
    <g id="xtick_15">
     <g id="line2d_15">
      <path d="M 308.02315 512.64 
L 308.02315 69.12 
" clip-path="url(#p98b748868c)" style="fill: none; stroke: #cccccc; stroke-width: 0.8; stroke-linecap: round"/>
     </g>
     <g id="text_15">
      <!-- 1120 -->
      <g style="fill: #262626" transform="translate(301.822 541.504521)rotate(-45)scale(0.088 -0.088)">
       <use xlink:href="#DejaVuSans-31"/>
       <use xlink:href="#DejaVuSans-31" x="63.623047"/>
       <use xlink:href="#DejaVuSans-32" x="127.246094"/>
       <use xlink:href="#DejaVuSans-30" x="190.869141"/>
      </g>
     </g>
    </g>
    <g id="xtick_16">
     <g id="line2d_16">
      <path d="M 325.049747 512.64 
L 325.049747 69.12 
" clip-path="url(#p98b748868c)" style="fill: none; stroke: #cccccc; stroke-width: 0.8; stroke-linecap: round"/>
     </g>
     <g id="text_16">
      <!-- 1200 -->
      <g style="fill: #262626" transform="translate(318.848597 541.504521)rotate(-45)scale(0.088 -0.088)">
       <use xlink:href="#DejaVuSans-31"/>
       <use xlink:href="#DejaVuSans-32" x="63.623047"/>
       <use xlink:href="#DejaVuSans-30" x="127.246094"/>
       <use xlink:href="#DejaVuSans-30" x="190.869141"/>
      </g>
     </g>
    </g>
    <g id="xtick_17">
     <g id="line2d_17">
      <path d="M 342.076343 512.64 
L 342.076343 69.12 
" clip-path="url(#p98b748868c)" style="fill: none; stroke: #cccccc; stroke-width: 0.8; stroke-linecap: round"/>
     </g>
     <g id="text_17">
      <!-- 1280 -->
      <g style="fill: #262626" transform="translate(335.875194 541.504521)rotate(-45)scale(0.088 -0.088)">
       <use xlink:href="#DejaVuSans-31"/>
       <use xlink:href="#DejaVuSans-32" x="63.623047"/>
       <use xlink:href="#DejaVuSans-38" x="127.246094"/>
       <use xlink:href="#DejaVuSans-30" x="190.869141"/>
      </g>
     </g>
    </g>
    <g id="xtick_18">
     <g id="line2d_18">
      <path d="M 359.10294 512.64 
L 359.10294 69.12 
" clip-path="url(#p98b748868c)" style="fill: none; stroke: #cccccc; stroke-width: 0.8; stroke-linecap: round"/>
     </g>
     <g id="text_18">
      <!-- 1360 -->
      <g style="fill: #262626" transform="translate(352.901791 541.504521)rotate(-45)scale(0.088 -0.088)">
       <use xlink:href="#DejaVuSans-31"/>
       <use xlink:href="#DejaVuSans-33" x="63.623047"/>
       <use xlink:href="#DejaVuSans-36" x="127.246094"/>
       <use xlink:href="#DejaVuSans-30" x="190.869141"/>
      </g>
     </g>
    </g>
    <g id="xtick_19">
     <g id="line2d_19">
      <path d="M 376.129537 512.64 
L 376.129537 69.12 
" clip-path="url(#p98b748868c)" style="fill: none; stroke: #cccccc; stroke-width: 0.8; stroke-linecap: round"/>
     </g>
     <g id="text_19">
      <!-- 1440 -->
      <g style="fill: #262626" transform="translate(369.928387 541.504521)rotate(-45)scale(0.088 -0.088)">
       <use xlink:href="#DejaVuSans-31"/>
       <use xlink:href="#DejaVuSans-34" x="63.623047"/>
       <use xlink:href="#DejaVuSans-34" x="127.246094"/>
       <use xlink:href="#DejaVuSans-30" x="190.869141"/>
      </g>
     </g>
    </g>
    <g id="text_20">
     <!-- Time (Minutes) -->
     <g style="fill: #262626" transform="translate(186.87375 554.093115)scale(0.096 -0.096)">
      <defs>
       <path id="DejaVuSans-54" d="M -19 4666 
L 3928 4666 
L 3928 4134 
L 2272 4134 
L 2272 0 
L 1638 0 
L 1638 4134 
L -19 4134 
L -19 4666 
z
" transform="scale(0.015625)"/>
       <path id="DejaVuSans-69" d="M 603 3500 
L 1178 3500 
L 1178 0 
L 603 0 
L 603 3500 
z
M 603 4863 
L 1178 4863 
L 1178 4134 
L 603 4134 
L 603 4863 
z
" transform="scale(0.015625)"/>
       <path id="DejaVuSans-6d" d="M 3328 2828 
Q 3544 3216 3844 3400 
Q 4144 3584 4550 3584 
Q 5097 3584 5394 3201 
Q 5691 2819 5691 2113 
L 5691 0 
L 5113 0 
L 5113 2094 
Q 5113 2597 4934 2840 
Q 4756 3084 4391 3084 
Q 3944 3084 3684 2787 
Q 3425 2491 3425 1978 
L 3425 0 
L 2847 0 
L 2847 2094 
Q 2847 2600 2669 2842 
Q 2491 3084 2119 3084 
Q 1678 3084 1418 2786 
Q 1159 2488 1159 1978 
L 1159 0 
L 581 0 
L 581 3500 
L 1159 3500 
L 1159 2956 
Q 1356 3278 1631 3431 
Q 1906 3584 2284 3584 
Q 2666 3584 2933 3390 
Q 3200 3197 3328 2828 
z
" transform="scale(0.015625)"/>
       <path id="DejaVuSans-65" d="M 3597 1894 
L 3597 1613 
L 953 1613 
Q 991 1019 1311 708 
Q 1631 397 2203 397 
Q 2534 397 2845 478 
Q 3156 559 3463 722 
L 3463 178 
Q 3153 47 2828 -22 
Q 2503 -91 2169 -91 
Q 1331 -91 842 396 
Q 353 884 353 1716 
Q 353 2575 817 3079 
Q 1281 3584 2069 3584 
Q 2775 3584 3186 3129 
Q 3597 2675 3597 1894 
z
M 3022 2063 
Q 3016 2534 2758 2815 
Q 2500 3097 2075 3097 
Q 1594 3097 1305 2825 
Q 1016 2553 972 2059 
L 3022 2063 
z
" transform="scale(0.015625)"/>
       <path id="DejaVuSans-20" transform="scale(0.015625)"/>
       <path id="DejaVuSans-28" d="M 1984 4856 
Q 1566 4138 1362 3434 
Q 1159 2731 1159 2009 
Q 1159 1288 1364 580 
Q 1569 -128 1984 -844 
L 1484 -844 
Q 1016 -109 783 600 
Q 550 1309 550 2009 
Q 550 2706 781 3412 
Q 1013 4119 1484 4856 
L 1984 4856 
z
" transform="scale(0.015625)"/>
       <path id="DejaVuSans-4d" d="M 628 4666 
L 1569 4666 
L 2759 1491 
L 3956 4666 
L 4897 4666 
L 4897 0 
L 4281 0 
L 4281 4097 
L 3078 897 
L 2444 897 
L 1241 4097 
L 1241 0 
L 628 0 
L 628 4666 
z
" transform="scale(0.015625)"/>
       <path id="DejaVuSans-6e" d="M 3513 2113 
L 3513 0 
L 2938 0 
L 2938 2094 
Q 2938 2591 2744 2837 
Q 2550 3084 2163 3084 
Q 1697 3084 1428 2787 
Q 1159 2491 1159 1978 
L 1159 0 
L 581 0 
L 581 3500 
L 1159 3500 
L 1159 2956 
Q 1366 3272 1645 3428 
Q 1925 3584 2291 3584 
Q 2894 3584 3203 3211 
Q 3513 2838 3513 2113 
z
" transform="scale(0.015625)"/>
       <path id="DejaVuSans-75" d="M 544 1381 
L 544 3500 
L 1119 3500 
L 1119 1403 
Q 1119 906 1312 657 
Q 1506 409 1894 409 
Q 2359 409 2629 706 
Q 2900 1003 2900 1516 
L 2900 3500 
L 3475 3500 
L 3475 0 
L 2900 0 
L 2900 538 
Q 2691 219 2414 64 
Q 2138 -91 1772 -91 
Q 1169 -91 856 284 
Q 544 659 544 1381 
z
M 1991 3584 
L 1991 3584 
z
" transform="scale(0.015625)"/>
       <path id="DejaVuSans-74" d="M 1172 4494 
L 1172 3500 
L 2356 3500 
L 2356 3053 
L 1172 3053 
L 1172 1153 
Q 1172 725 1289 603 
Q 1406 481 1766 481 
L 2356 481 
L 2356 0 
L 1766 0 
Q 1100 0 847 248 
Q 594 497 594 1153 
L 594 3053 
L 172 3053 
L 172 3500 
L 594 3500 
L 594 4494 
L 1172 4494 
z
" transform="scale(0.015625)"/>
       <path id="DejaVuSans-73" d="M 2834 3397 
L 2834 2853 
Q 2591 2978 2328 3040 
Q 2066 3103 1784 3103 
Q 1356 3103 1142 2972 
Q 928 2841 928 2578 
Q 928 2378 1081 2264 
Q 1234 2150 1697 2047 
L 1894 2003 
Q 2506 1872 2764 1633 
Q 3022 1394 3022 966 
Q 3022 478 2636 193 
Q 2250 -91 1575 -91 
Q 1294 -91 989 -36 
Q 684 19 347 128 
L 347 722 
Q 666 556 975 473 
Q 1284 391 1588 391 
Q 1994 391 2212 530 
Q 2431 669 2431 922 
Q 2431 1156 2273 1281 
Q 2116 1406 1581 1522 
L 1381 1569 
Q 847 1681 609 1914 
Q 372 2147 372 2553 
Q 372 3047 722 3315 
Q 1072 3584 1716 3584 
Q 2034 3584 2315 3537 
Q 2597 3491 2834 3397 
z
" transform="scale(0.015625)"/>
       <path id="DejaVuSans-29" d="M 513 4856 
L 1013 4856 
Q 1481 4119 1714 3412 
Q 1947 2706 1947 2009 
Q 1947 1309 1714 600 
Q 1481 -109 1013 -844 
L 513 -844 
Q 928 -128 1133 580 
Q 1338 1288 1338 2009 
Q 1338 2731 1133 3434 
Q 928 4138 513 4856 
z
" transform="scale(0.015625)"/>
      </defs>
      <use xlink:href="#DejaVuSans-54"/>
      <use xlink:href="#DejaVuSans-69" x="57.958984"/>
      <use xlink:href="#DejaVuSans-6d" x="85.742188"/>
      <use xlink:href="#DejaVuSans-65" x="183.154297"/>
      <use xlink:href="#DejaVuSans-20" x="244.677734"/>
      <use xlink:href="#DejaVuSans-28" x="276.464844"/>
      <use xlink:href="#DejaVuSans-4d" x="315.478516"/>
      <use xlink:href="#DejaVuSans-69" x="401.757812"/>
      <use xlink:href="#DejaVuSans-6e" x="429.541016"/>
      <use xlink:href="#DejaVuSans-75" x="492.919922"/>
      <use xlink:href="#DejaVuSans-74" x="556.298828"/>
      <use xlink:href="#DejaVuSans-65" x="595.507812"/>
      <use xlink:href="#DejaVuSans-73" x="657.03125"/>
      <use xlink:href="#DejaVuSans-29" x="709.130859"/>
     </g>
    </g>
   </g>
   <g id="matplotlib.axis_2">
    <g id="ytick_1">
     <g id="line2d_20">
      <path d="M 54.3375 492.48 
L 391.23 492.48 
" clip-path="url(#p98b748868c)" style="fill: none; stroke: #cccccc; stroke-width: 0.8; stroke-linecap: round"/>
     </g>
     <g id="text_21">
      <!-- 0 -->
      <g style="fill: #262626" transform="translate(40.4385 495.823313)scale(0.088 -0.088)">
       <use xlink:href="#DejaVuSans-30"/>
      </g>
     </g>
    </g>
    <g id="ytick_2">
     <g id="line2d_21">
      <path d="M 54.3375 469.751702 
L 391.23 469.751702 
" clip-path="url(#p98b748868c)" style="fill: none; stroke: #cccccc; stroke-width: 0.8; stroke-linecap: round"/>
     </g>
     <g id="text_22">
      <!-- 100 -->
      <g style="fill: #262626" transform="translate(29.2405 473.095015)scale(0.088 -0.088)">
       <use xlink:href="#DejaVuSans-31"/>
       <use xlink:href="#DejaVuSans-30" x="63.623047"/>
       <use xlink:href="#DejaVuSans-30" x="127.246094"/>
      </g>
     </g>
    </g>
    <g id="ytick_3">
     <g id="line2d_22">
      <path d="M 54.3375 447.023405 
L 391.23 447.023405 
" clip-path="url(#p98b748868c)" style="fill: none; stroke: #cccccc; stroke-width: 0.8; stroke-linecap: round"/>
     </g>
     <g id="text_23">
      <!-- 200 -->
      <g style="fill: #262626" transform="translate(29.2405 450.366717)scale(0.088 -0.088)">
       <use xlink:href="#DejaVuSans-32"/>
       <use xlink:href="#DejaVuSans-30" x="63.623047"/>
       <use xlink:href="#DejaVuSans-30" x="127.246094"/>
      </g>
     </g>
    </g>
    <g id="ytick_4">
     <g id="line2d_23">
      <path d="M 54.3375 424.295107 
L 391.23 424.295107 
" clip-path="url(#p98b748868c)" style="fill: none; stroke: #cccccc; stroke-width: 0.8; stroke-linecap: round"/>
     </g>
     <g id="text_24">
      <!-- 300 -->
      <g style="fill: #262626" transform="translate(29.2405 427.63842)scale(0.088 -0.088)">
       <use xlink:href="#DejaVuSans-33"/>
       <use xlink:href="#DejaVuSans-30" x="63.623047"/>
       <use xlink:href="#DejaVuSans-30" x="127.246094"/>
      </g>
     </g>
    </g>
    <g id="ytick_5">
     <g id="line2d_24">
      <path d="M 54.3375 401.566809 
L 391.23 401.566809 
" clip-path="url(#p98b748868c)" style="fill: none; stroke: #cccccc; stroke-width: 0.8; stroke-linecap: round"/>
     </g>
     <g id="text_25">
      <!-- 400 -->
      <g style="fill: #262626" transform="translate(29.2405 404.910122)scale(0.088 -0.088)">
       <use xlink:href="#DejaVuSans-34"/>
       <use xlink:href="#DejaVuSans-30" x="63.623047"/>
       <use xlink:href="#DejaVuSans-30" x="127.246094"/>
      </g>
     </g>
    </g>
    <g id="ytick_6">
     <g id="line2d_25">
      <path d="M 54.3375 378.838512 
L 391.23 378.838512 
" clip-path="url(#p98b748868c)" style="fill: none; stroke: #cccccc; stroke-width: 0.8; stroke-linecap: round"/>
     </g>
     <g id="text_26">
      <!-- 500 -->
      <g style="fill: #262626" transform="translate(29.2405 382.181824)scale(0.088 -0.088)">
       <use xlink:href="#DejaVuSans-35"/>
       <use xlink:href="#DejaVuSans-30" x="63.623047"/>
       <use xlink:href="#DejaVuSans-30" x="127.246094"/>
      </g>
     </g>
    </g>
    <g id="ytick_7">
     <g id="line2d_26">
      <path d="M 54.3375 356.110214 
L 391.23 356.110214 
" clip-path="url(#p98b748868c)" style="fill: none; stroke: #cccccc; stroke-width: 0.8; stroke-linecap: round"/>
     </g>
     <g id="text_27">
      <!-- 600 -->
      <g style="fill: #262626" transform="translate(29.2405 359.453527)scale(0.088 -0.088)">
       <use xlink:href="#DejaVuSans-36"/>
       <use xlink:href="#DejaVuSans-30" x="63.623047"/>
       <use xlink:href="#DejaVuSans-30" x="127.246094"/>
      </g>
     </g>
    </g>
    <g id="ytick_8">
     <g id="line2d_27">
      <path d="M 54.3375 333.381917 
L 391.23 333.381917 
" clip-path="url(#p98b748868c)" style="fill: none; stroke: #cccccc; stroke-width: 0.8; stroke-linecap: round"/>
     </g>
     <g id="text_28">
      <!-- 700 -->
      <g style="fill: #262626" transform="translate(29.2405 336.725229)scale(0.088 -0.088)">
       <use xlink:href="#DejaVuSans-37"/>
       <use xlink:href="#DejaVuSans-30" x="63.623047"/>
       <use xlink:href="#DejaVuSans-30" x="127.246094"/>
      </g>
     </g>
    </g>
    <g id="ytick_9">
     <g id="line2d_28">
      <path d="M 54.3375 310.653619 
L 391.23 310.653619 
" clip-path="url(#p98b748868c)" style="fill: none; stroke: #cccccc; stroke-width: 0.8; stroke-linecap: round"/>
     </g>
     <g id="text_29">
      <!-- 800 -->
      <g style="fill: #262626" transform="translate(29.2405 313.996931)scale(0.088 -0.088)">
       <use xlink:href="#DejaVuSans-38"/>
       <use xlink:href="#DejaVuSans-30" x="63.623047"/>
       <use xlink:href="#DejaVuSans-30" x="127.246094"/>
      </g>
     </g>
    </g>
    <g id="ytick_10">
     <g id="line2d_29">
      <path d="M 54.3375 287.925321 
L 391.23 287.925321 
" clip-path="url(#p98b748868c)" style="fill: none; stroke: #cccccc; stroke-width: 0.8; stroke-linecap: round"/>
     </g>
     <g id="text_30">
      <!-- 900 -->
      <g style="fill: #262626" transform="translate(29.2405 291.268634)scale(0.088 -0.088)">
       <use xlink:href="#DejaVuSans-39"/>
       <use xlink:href="#DejaVuSans-30" x="63.623047"/>
       <use xlink:href="#DejaVuSans-30" x="127.246094"/>
      </g>
     </g>
    </g>
    <g id="ytick_11">
     <g id="line2d_30">
      <path d="M 54.3375 265.197024 
L 391.23 265.197024 
" clip-path="url(#p98b748868c)" style="fill: none; stroke: #cccccc; stroke-width: 0.8; stroke-linecap: round"/>
     </g>
     <g id="text_31">
      <!-- 1000 -->
      <g style="fill: #262626" transform="translate(23.6415 268.540336)scale(0.088 -0.088)">
       <use xlink:href="#DejaVuSans-31"/>
       <use xlink:href="#DejaVuSans-30" x="63.623047"/>
       <use xlink:href="#DejaVuSans-30" x="127.246094"/>
       <use xlink:href="#DejaVuSans-30" x="190.869141"/>
      </g>
     </g>
    </g>
    <g id="ytick_12">
     <g id="line2d_31">
      <path d="M 54.3375 242.468726 
L 391.23 242.468726 
" clip-path="url(#p98b748868c)" style="fill: none; stroke: #cccccc; stroke-width: 0.8; stroke-linecap: round"/>
     </g>
     <g id="text_32">
      <!-- 1100 -->
      <g style="fill: #262626" transform="translate(23.6415 245.812039)scale(0.088 -0.088)">
       <use xlink:href="#DejaVuSans-31"/>
       <use xlink:href="#DejaVuSans-31" x="63.623047"/>
       <use xlink:href="#DejaVuSans-30" x="127.246094"/>
       <use xlink:href="#DejaVuSans-30" x="190.869141"/>
      </g>
     </g>
    </g>
    <g id="ytick_13">
     <g id="line2d_32">
      <path d="M 54.3375 219.740428 
L 391.23 219.740428 
" clip-path="url(#p98b748868c)" style="fill: none; stroke: #cccccc; stroke-width: 0.8; stroke-linecap: round"/>
     </g>
     <g id="text_33">
      <!-- 1200 -->
      <g style="fill: #262626" transform="translate(23.6415 223.083741)scale(0.088 -0.088)">
       <use xlink:href="#DejaVuSans-31"/>
       <use xlink:href="#DejaVuSans-32" x="63.623047"/>
       <use xlink:href="#DejaVuSans-30" x="127.246094"/>
       <use xlink:href="#DejaVuSans-30" x="190.869141"/>
      </g>
     </g>
    </g>
    <g id="ytick_14">
     <g id="line2d_33">
      <path d="M 54.3375 197.012131 
L 391.23 197.012131 
" clip-path="url(#p98b748868c)" style="fill: none; stroke: #cccccc; stroke-width: 0.8; stroke-linecap: round"/>
     </g>
     <g id="text_34">
      <!-- 1300 -->
      <g style="fill: #262626" transform="translate(23.6415 200.355443)scale(0.088 -0.088)">
       <use xlink:href="#DejaVuSans-31"/>
       <use xlink:href="#DejaVuSans-33" x="63.623047"/>
       <use xlink:href="#DejaVuSans-30" x="127.246094"/>
       <use xlink:href="#DejaVuSans-30" x="190.869141"/>
      </g>
     </g>
    </g>
    <g id="ytick_15">
     <g id="line2d_34">
      <path d="M 54.3375 174.283833 
L 391.23 174.283833 
" clip-path="url(#p98b748868c)" style="fill: none; stroke: #cccccc; stroke-width: 0.8; stroke-linecap: round"/>
     </g>
     <g id="text_35">
      <!-- 1400 -->
      <g style="fill: #262626" transform="translate(23.6415 177.627146)scale(0.088 -0.088)">
       <use xlink:href="#DejaVuSans-31"/>
       <use xlink:href="#DejaVuSans-34" x="63.623047"/>
       <use xlink:href="#DejaVuSans-30" x="127.246094"/>
       <use xlink:href="#DejaVuSans-30" x="190.869141"/>
      </g>
     </g>
    </g>
    <g id="ytick_16">
     <g id="line2d_35">
      <path d="M 54.3375 151.555536 
L 391.23 151.555536 
" clip-path="url(#p98b748868c)" style="fill: none; stroke: #cccccc; stroke-width: 0.8; stroke-linecap: round"/>
     </g>
     <g id="text_36">
      <!-- 1500 -->
      <g style="fill: #262626" transform="translate(23.6415 154.898848)scale(0.088 -0.088)">
       <use xlink:href="#DejaVuSans-31"/>
       <use xlink:href="#DejaVuSans-35" x="63.623047"/>
       <use xlink:href="#DejaVuSans-30" x="127.246094"/>
       <use xlink:href="#DejaVuSans-30" x="190.869141"/>
      </g>
     </g>
    </g>
    <g id="ytick_17">
     <g id="line2d_36">
      <path d="M 54.3375 128.827238 
L 391.23 128.827238 
" clip-path="url(#p98b748868c)" style="fill: none; stroke: #cccccc; stroke-width: 0.8; stroke-linecap: round"/>
     </g>
     <g id="text_37">
      <!-- 1600 -->
      <g style="fill: #262626" transform="translate(23.6415 132.17055)scale(0.088 -0.088)">
       <use xlink:href="#DejaVuSans-31"/>
       <use xlink:href="#DejaVuSans-36" x="63.623047"/>
       <use xlink:href="#DejaVuSans-30" x="127.246094"/>
       <use xlink:href="#DejaVuSans-30" x="190.869141"/>
      </g>
     </g>
    </g>
    <g id="ytick_18">
     <g id="line2d_37">
      <path d="M 54.3375 106.09894 
L 391.23 106.09894 
" clip-path="url(#p98b748868c)" style="fill: none; stroke: #cccccc; stroke-width: 0.8; stroke-linecap: round"/>
     </g>
     <g id="text_38">
      <!-- 1700 -->
      <g style="fill: #262626" transform="translate(23.6415 109.442253)scale(0.088 -0.088)">
       <use xlink:href="#DejaVuSans-31"/>
       <use xlink:href="#DejaVuSans-37" x="63.623047"/>
       <use xlink:href="#DejaVuSans-30" x="127.246094"/>
       <use xlink:href="#DejaVuSans-30" x="190.869141"/>
      </g>
     </g>
    </g>
    <g id="text_39">
     <!-- Edge Coverages -->
     <g style="fill: #262626" transform="translate(17.645 329.98575)rotate(-90)scale(0.096 -0.096)">
      <defs>
       <path id="DejaVuSans-45" d="M 628 4666 
L 3578 4666 
L 3578 4134 
L 1259 4134 
L 1259 2753 
L 3481 2753 
L 3481 2222 
L 1259 2222 
L 1259 531 
L 3634 531 
L 3634 0 
L 628 0 
L 628 4666 
z
" transform="scale(0.015625)"/>
       <path id="DejaVuSans-64" d="M 2906 2969 
L 2906 4863 
L 3481 4863 
L 3481 0 
L 2906 0 
L 2906 525 
Q 2725 213 2448 61 
Q 2172 -91 1784 -91 
Q 1150 -91 751 415 
Q 353 922 353 1747 
Q 353 2572 751 3078 
Q 1150 3584 1784 3584 
Q 2172 3584 2448 3432 
Q 2725 3281 2906 2969 
z
M 947 1747 
Q 947 1113 1208 752 
Q 1469 391 1925 391 
Q 2381 391 2643 752 
Q 2906 1113 2906 1747 
Q 2906 2381 2643 2742 
Q 2381 3103 1925 3103 
Q 1469 3103 1208 2742 
Q 947 2381 947 1747 
z
" transform="scale(0.015625)"/>
       <path id="DejaVuSans-67" d="M 2906 1791 
Q 2906 2416 2648 2759 
Q 2391 3103 1925 3103 
Q 1463 3103 1205 2759 
Q 947 2416 947 1791 
Q 947 1169 1205 825 
Q 1463 481 1925 481 
Q 2391 481 2648 825 
Q 2906 1169 2906 1791 
z
M 3481 434 
Q 3481 -459 3084 -895 
Q 2688 -1331 1869 -1331 
Q 1566 -1331 1297 -1286 
Q 1028 -1241 775 -1147 
L 775 -588 
Q 1028 -725 1275 -790 
Q 1522 -856 1778 -856 
Q 2344 -856 2625 -561 
Q 2906 -266 2906 331 
L 2906 616 
Q 2728 306 2450 153 
Q 2172 0 1784 0 
Q 1141 0 747 490 
Q 353 981 353 1791 
Q 353 2603 747 3093 
Q 1141 3584 1784 3584 
Q 2172 3584 2450 3431 
Q 2728 3278 2906 2969 
L 2906 3500 
L 3481 3500 
L 3481 434 
z
" transform="scale(0.015625)"/>
       <path id="DejaVuSans-43" d="M 4122 4306 
L 4122 3641 
Q 3803 3938 3442 4084 
Q 3081 4231 2675 4231 
Q 1875 4231 1450 3742 
Q 1025 3253 1025 2328 
Q 1025 1406 1450 917 
Q 1875 428 2675 428 
Q 3081 428 3442 575 
Q 3803 722 4122 1019 
L 4122 359 
Q 3791 134 3420 21 
Q 3050 -91 2638 -91 
Q 1578 -91 968 557 
Q 359 1206 359 2328 
Q 359 3453 968 4101 
Q 1578 4750 2638 4750 
Q 3056 4750 3426 4639 
Q 3797 4528 4122 4306 
z
" transform="scale(0.015625)"/>
       <path id="DejaVuSans-6f" d="M 1959 3097 
Q 1497 3097 1228 2736 
Q 959 2375 959 1747 
Q 959 1119 1226 758 
Q 1494 397 1959 397 
Q 2419 397 2687 759 
Q 2956 1122 2956 1747 
Q 2956 2369 2687 2733 
Q 2419 3097 1959 3097 
z
M 1959 3584 
Q 2709 3584 3137 3096 
Q 3566 2609 3566 1747 
Q 3566 888 3137 398 
Q 2709 -91 1959 -91 
Q 1206 -91 779 398 
Q 353 888 353 1747 
Q 353 2609 779 3096 
Q 1206 3584 1959 3584 
z
" transform="scale(0.015625)"/>
       <path id="DejaVuSans-76" d="M 191 3500 
L 800 3500 
L 1894 563 
L 2988 3500 
L 3597 3500 
L 2284 0 
L 1503 0 
L 191 3500 
z
" transform="scale(0.015625)"/>
       <path id="DejaVuSans-72" d="M 2631 2963 
Q 2534 3019 2420 3045 
Q 2306 3072 2169 3072 
Q 1681 3072 1420 2755 
Q 1159 2438 1159 1844 
L 1159 0 
L 581 0 
L 581 3500 
L 1159 3500 
L 1159 2956 
Q 1341 3275 1631 3429 
Q 1922 3584 2338 3584 
Q 2397 3584 2469 3576 
Q 2541 3569 2628 3553 
L 2631 2963 
z
" transform="scale(0.015625)"/>
       <path id="DejaVuSans-61" d="M 2194 1759 
Q 1497 1759 1228 1600 
Q 959 1441 959 1056 
Q 959 750 1161 570 
Q 1363 391 1709 391 
Q 2188 391 2477 730 
Q 2766 1069 2766 1631 
L 2766 1759 
L 2194 1759 
z
M 3341 1997 
L 3341 0 
L 2766 0 
L 2766 531 
Q 2569 213 2275 61 
Q 1981 -91 1556 -91 
Q 1019 -91 701 211 
Q 384 513 384 1019 
Q 384 1609 779 1909 
Q 1175 2209 1959 2209 
L 2766 2209 
L 2766 2266 
Q 2766 2663 2505 2880 
Q 2244 3097 1772 3097 
Q 1472 3097 1187 3025 
Q 903 2953 641 2809 
L 641 3341 
Q 956 3463 1253 3523 
Q 1550 3584 1831 3584 
Q 2591 3584 2966 3190 
Q 3341 2797 3341 1997 
z
" transform="scale(0.015625)"/>
      </defs>
      <use xlink:href="#DejaVuSans-45"/>
      <use xlink:href="#DejaVuSans-64" x="63.183594"/>
      <use xlink:href="#DejaVuSans-67" x="126.660156"/>
      <use xlink:href="#DejaVuSans-65" x="190.136719"/>
      <use xlink:href="#DejaVuSans-20" x="251.660156"/>
      <use xlink:href="#DejaVuSans-43" x="283.447266"/>
      <use xlink:href="#DejaVuSans-6f" x="353.271484"/>
      <use xlink:href="#DejaVuSans-76" x="414.453125"/>
      <use xlink:href="#DejaVuSans-65" x="473.632812"/>
      <use xlink:href="#DejaVuSans-72" x="535.15625"/>
      <use xlink:href="#DejaVuSans-61" x="576.269531"/>
      <use xlink:href="#DejaVuSans-67" x="637.548828"/>
      <use xlink:href="#DejaVuSans-65" x="701.025391"/>
      <use xlink:href="#DejaVuSans-73" x="762.548828"/>
     </g>
    </g>
   </g>
   <g id="PolyCollection_1">
    <defs>
     <path id="meff9e27b3d" d="M 69.650795 -106.021015 
L 69.650795 -83.52 
L 69.650795 -106.021015 
L 69.650795 -106.021015 
z
" style="stroke: #db5f57; stroke-opacity: 0.2; stroke-width: 0.8"/>
    </defs>
    <g clip-path="url(#p98b748868c)">
     <use xlink:href="#meff9e27b3d" x="0" y="576" style="fill: #db5f57; fill-opacity: 0.2; stroke: #db5f57; stroke-opacity: 0.2; stroke-width: 0.8"/>
    </g>
   </g>
   <g id="PolyCollection_2">
    <defs>
     <path id="m2cfb12a0d1" d="M 69.650795 -120.794408 
L 69.650795 -83.52 
L 69.650795 -120.794408 
L 69.650795 -120.794408 
z
" style="stroke: #b9db57; stroke-opacity: 0.2; stroke-width: 0.8"/>
    </defs>
    <g clip-path="url(#p98b748868c)">
     <use xlink:href="#m2cfb12a0d1" x="0" y="576" style="fill: #b9db57; fill-opacity: 0.2; stroke: #b9db57; stroke-opacity: 0.2; stroke-width: 0.8"/>
    </g>
   </g>
   <g id="PolyCollection_3">
    <defs>
     <path id="mf03d72af1f" d="M 69.650795 -120.112559 
L 69.650795 -83.52 
L 69.650795 -120.112559 
L 69.650795 -120.112559 
z
" style="stroke: #57db94; stroke-opacity: 0.2; stroke-width: 0.8"/>
    </defs>
    <g clip-path="url(#p98b748868c)">
     <use xlink:href="#mf03d72af1f" x="0" y="576" style="fill: #57db94; fill-opacity: 0.2; stroke: #57db94; stroke-opacity: 0.2; stroke-width: 0.8"/>
    </g>
   </g>
   <g id="PolyCollection_4">
    <defs>
     <path id="m7532816ef9" d="M 69.650795 -120.567125 
L 69.650795 -83.52 
L 69.650795 -120.567125 
L 69.650795 -120.567125 
z
" style="stroke: #5784db; stroke-opacity: 0.2; stroke-width: 0.8"/>
    </defs>
    <g clip-path="url(#p98b748868c)">
     <use xlink:href="#m7532816ef9" x="0" y="576" style="fill: #5784db; fill-opacity: 0.2; stroke: #5784db; stroke-opacity: 0.2; stroke-width: 0.8"/>
    </g>
   </g>
   <g id="PolyCollection_5">
    <defs>
     <path id="m5302b7dc0b" d="M 69.650795 -128.976595 
L 69.650795 -83.52 
L 69.650795 -128.976595 
L 69.650795 -128.976595 
z
" style="stroke: #c957db; stroke-opacity: 0.2; stroke-width: 0.8"/>
    </defs>
    <g clip-path="url(#p98b748868c)">
     <use xlink:href="#m5302b7dc0b" x="0" y="576" style="fill: #c957db; fill-opacity: 0.2; stroke: #c957db; stroke-opacity: 0.2; stroke-width: 0.8"/>
    </g>
   </g>
   <g id="line2d_38">
    <path d="M 69.650795 481.229493 
L 70.07646 419.522165 
L 70.289293 401.339526 
L 70.502125 400.430395 
L 71.353455 385.429718 
L 72.204785 379.520361 
L 72.417617 352.473687 
L 72.63045 291.789132 
L 72.843282 266.333439 
L 73.056115 265.424307 
L 73.268947 265.424307 
L 73.48178 264.742458 
L 73.694612 239.059481 
L 73.907445 236.786652 
L 74.120277 236.559369 
L 74.33311 236.559369 
L 74.971607 233.60469 
L 75.184439 233.150124 
L 75.610104 212.012807 
L 75.822937 207.467148 
L 76.035769 206.785299 
L 76.887099 206.785299 
L 77.312764 205.648884 
L 77.738429 205.194318 
L 77.951261 205.194318 
L 78.376926 189.511793 
L 79.015424 189.511793 
L 79.228256 185.193416 
L 79.441089 183.375152 
L 79.653921 182.920586 
L 79.866754 181.784171 
L 80.079586 181.329605 
L 80.292418 180.193191 
L 80.505251 180.193191 
L 80.718083 179.965908 
L 81.143748 179.284059 
L 81.356581 179.056776 
L 81.569413 172.465569 
L 82.207911 172.465569 
L 82.420743 172.238286 
L 82.633575 172.238286 
L 82.846408 167.238061 
L 83.05924 166.783495 
L 83.272073 165.64708 
L 83.484905 165.64708 
L 83.697738 164.510665 
L 83.91057 164.510665 
L 84.336235 164.056099 
L 84.549068 163.37425 
L 84.974733 162.919684 
L 85.400397 160.874138 
L 85.826062 160.419572 
L 86.46456 160.419572 
L 86.677392 156.328478 
L 86.890225 155.646629 
L 87.103057 155.646629 
L 87.31589 155.192063 
L 87.528722 155.192063 
L 87.741555 150.873687 
L 87.954387 149.964555 
L 88.167219 149.964555 
L 88.380052 149.055423 
L 88.805717 148.600857 
L 89.018549 148.600857 
L 89.231382 148.373574 
L 89.444214 148.373574 
L 89.657047 146.782593 
L 90.295544 146.782593 
L 90.508376 146.55531 
L 90.721209 146.55531 
L 90.934041 143.827914 
L 91.359706 142.691499 
L 91.572539 142.691499 
L 91.785371 142.464216 
L 92.423869 142.464216 
L 92.849534 139.282255 
L 93.062366 139.282255 
L 93.488031 137.918557 
L 93.700863 137.918557 
L 93.913696 137.691274 
L 94.552193 137.691274 
L 94.765026 137.009425 
L 95.190691 137.009425 
L 95.403523 135.87301 
L 95.616356 135.418444 
L 95.829188 135.418444 
L 96.04202 134.282029 
L 96.467685 134.282029 
L 96.89335 133.827463 
L 97.106183 133.827463 
L 97.531848 133.372897 
L 98.170345 133.372897 
L 98.383177 133.145614 
L 98.59601 133.145614 
L 98.808842 132.918331 
L 99.021675 132.918331 
L 99.234507 132.691048 
L 100.085837 132.691048 
L 100.29867 132.236483 
L 100.724335 132.236483 
L 100.937167 131.100068 
L 101.149999 131.100068 
L 101.362832 130.645502 
L 101.788497 130.645502 
L 102.001329 130.418219 
L 102.214162 130.418219 
L 102.426994 130.190936 
L 103.278324 130.190936 
L 103.491157 129.963653 
L 103.703989 129.963653 
L 103.916821 129.73637 
L 104.342486 129.73637 
L 104.555319 129.509087 
L 104.768151 129.509087 
L 104.980984 129.054521 
L 106.257978 129.054521 
L 106.470811 128.599955 
L 106.683643 128.599955 
L 106.896476 128.145389 
L 107.322141 128.145389 
L 107.534973 127.690823 
L 107.747806 127.690823 
L 107.960638 127.46354 
L 108.386303 127.46354 
L 108.599136 127.236257 
L 108.811968 127.236257 
L 109.0248 126.554408 
L 109.87613 126.554408 
L 110.088963 126.327125 
L 110.301795 126.327125 
L 110.514628 125.872559 
L 110.940293 125.872559 
L 111.153125 125.645276 
L 114.345612 125.645276 
L 114.558444 125.417993 
L 114.771277 125.417993 
L 114.984109 125.19071 
L 115.409774 125.19071 
L 115.835439 124.736144 
L 117.112434 124.736144 
L 117.325266 124.508861 
L 119.666423 124.508861 
L 119.879256 124.281578 
L 122.85891 124.281578 
L 123.284575 123.827012 
L 127.541224 123.827012 
L 127.754057 123.599729 
L 128.392554 123.599729 
L 128.605387 123.145163 
L 133.074868 123.145163 
L 133.287701 122.91788 
L 135.416025 122.91788 
L 135.628858 122.690598 
L 138.821345 122.690598 
L 139.034177 122.463315 
L 141.588167 122.463315 
L 141.800999 122.008749 
L 144.354989 122.008749 
L 144.567821 121.3269 
L 144.780654 121.099617 
L 145.844816 121.099617 
L 146.057648 120.872334 
L 146.483313 120.872334 
L 146.908978 120.417768 
L 148.185973 120.417768 
L 148.398805 120.190485 
L 149.462968 120.190485 
L 149.6758 119.963202 
L 149.888633 119.963202 
L 150.101465 119.735919 
L 150.739962 119.735919 
L 150.952795 119.508636 
L 152.442622 119.508636 
L 152.655455 119.281353 
L 153.506784 119.281353 
L 153.719617 119.05407 
L 157.550601 119.05407 
L 157.763434 118.826787 
L 158.189099 118.826787 
L 158.401931 118.599504 
L 164.148407 118.599504 
L 164.36124 118.372221 
L 166.702397 118.372221 
L 166.915229 118.144938 
L 167.553727 118.144938 
L 167.766559 117.463089 
L 168.405057 117.463089 
L 168.617889 117.235806 
L 171.384711 117.235806 
L 171.597544 117.008523 
L 174.577198 117.008523 
L 174.79003 116.78124 
L 175.002863 116.78124 
L 175.215695 116.553957 
L 176.918355 116.553957 
L 177.131187 116.326674 
L 185.431653 116.326674 
L 185.644486 116.099391 
L 186.921481 116.099391 
L 187.134313 115.872108 
L 191.390962 115.872108 
L 191.603795 115.644825 
L 194.370617 115.644825 
L 194.796282 115.190259 
L 198.840098 115.190259 
L 199.052931 114.962976 
L 199.265763 114.962976 
L 199.691428 114.50841 
L 199.904261 113.826561 
L 201.819753 113.826561 
L 202.032585 113.599278 
L 205.650737 113.599278 
L 205.863569 113.144713 
L 206.502067 113.144713 
L 206.714899 112.91743 
L 208.843224 112.91743 
L 209.056056 112.690147 
L 212.887041 112.690147 
L 213.099873 112.462864 
L 213.525538 112.462864 
L 213.73837 112.235581 
L 214.5897 112.235581 
L 214.802533 112.008298 
L 217.356522 112.008298 
L 217.569355 111.781015 
L 220.974674 111.781015 
L 221.187507 111.553732 
L 225.231323 111.553732 
L 225.444156 111.326449 
L 229.27514 111.326449 
L 229.487972 111.099166 
L 233.106124 111.099166 
L 233.318957 110.871883 
L 235.021616 110.871883 
L 235.234449 110.6446 
L 238.852601 110.6446 
L 239.065433 110.417317 
L 247.153067 110.417317 
L 247.365899 110.190034 
L 250.132721 110.190034 
L 250.345553 109.053619 
L 252.686711 109.053619 
L 252.899543 108.826336 
L 253.963705 108.826336 
L 254.176538 108.599053 
L 255.453533 108.599053 
L 255.666365 108.37177 
L 256.517695 108.37177 
L 256.730527 108.144487 
L 256.94336 108.144487 
L 257.156192 107.917204 
L 266.946485 107.917204 
L 267.159318 107.689921 
L 269.07481 107.689921 
L 269.287642 107.462638 
L 274.608454 107.462638 
L 274.821286 107.235355 
L 284.824412 107.235355 
L 285.037244 107.008072 
L 286.527072 107.008072 
L 286.739904 106.780789 
L 287.378401 106.780789 
L 287.591234 106.553506 
L 289.719558 106.553506 
L 289.932391 106.326223 
L 299.084187 106.326223 
L 299.297019 106.09894 
L 299.509852 106.09894 
L 299.722684 105.871657 
L 305.256328 105.871657 
L 305.46916 103.371545 
L 305.681993 103.371545 
L 305.894825 102.689696 
L 316.110783 102.689696 
L 316.323616 102.23513 
L 317.600611 102.23513 
L 317.813443 102.007847 
L 320.793098 102.007847 
L 321.00593 101.780564 
L 347.184323 101.780564 
L 347.397155 101.553281 
L 353.994961 101.553281 
L 354.207794 101.325998 
L 362.082595 101.325998 
L 362.295427 101.098715 
L 368.254736 101.098715 
L 368.467568 100.871432 
L 370.595893 100.871432 
L 370.808726 100.644149 
L 375.916705 100.644149 
L 375.916705 100.644149 
" clip-path="url(#p98b748868c)" style="fill: none; stroke: #db5f57; stroke-width: 1.2; stroke-linecap: round"/>
   </g>
   <g id="line2d_39">
    <path d="M 69.650795 473.842796 
L 70.502125 366.565231 
L 70.714958 362.701421 
L 70.92779 348.837159 
L 71.140623 320.426787 
L 71.77912 297.243923 
L 72.204785 289.289019 
L 72.63045 282.697813 
L 73.48178 261.560496 
L 73.694612 257.014837 
L 73.907445 246.332537 
L 74.758774 237.013935 
L 74.971607 236.559369 
L 76.035769 227.922616 
L 76.461434 226.558918 
L 76.674267 226.558918 
L 76.887099 223.376956 
L 77.099932 222.467824 
L 77.312764 222.467824 
L 77.525596 220.194994 
L 77.951261 218.604014 
L 78.376926 214.967486 
L 78.589759 214.285637 
L 78.802591 214.058354 
L 79.228256 212.467373 
L 79.653921 211.330958 
L 79.866754 210.649109 
L 80.079586 210.421826 
L 80.292418 210.421826 
L 80.505251 208.603563 
L 80.930916 207.467148 
L 81.569413 203.148771 
L 81.782246 202.921488 
L 82.207911 201.103224 
L 82.420743 200.421375 
L 82.633575 199.284961 
L 83.05924 198.375829 
L 83.272073 198.375829 
L 84.123403 193.602886 
L 84.549068 192.921037 
L 84.974733 192.466471 
L 85.187565 191.557339 
L 85.400397 191.557339 
L 85.61323 191.102773 
L 85.826062 189.739076 
L 86.038895 189.511793 
L 86.251727 188.602661 
L 86.46456 188.375378 
L 86.890225 187.466246 
L 87.103057 186.557114 
L 87.31589 186.329831 
L 87.528722 185.647982 
L 87.741555 184.284284 
L 88.167219 183.375152 
L 88.380052 182.46602 
L 88.592884 182.46602 
L 88.805717 182.238737 
L 89.018549 182.238737 
L 89.869879 181.329605 
L 90.508376 181.329605 
L 90.721209 181.102322 
L 91.146874 179.284059 
L 91.572539 178.374927 
L 91.785371 178.374927 
L 91.998204 177.693078 
L 92.423869 177.693078 
L 92.636701 177.465795 
L 93.275198 174.511116 
L 93.488031 174.283833 
L 93.700863 174.283833 
L 93.913696 174.05655 
L 94.126528 174.05655 
L 94.339361 173.829267 
L 94.552193 173.829267 
L 95.190691 171.556437 
L 95.403523 171.556437 
L 96.04202 170.420023 
L 96.467685 170.420023 
L 96.89335 169.738174 
L 97.106183 169.510891 
L 98.170345 169.510891 
L 98.59601 169.056325 
L 98.808842 169.056325 
L 99.021675 168.829042 
L 100.085837 168.829042 
L 100.29867 168.601759 
L 100.511502 168.147193 
L 106.470811 168.147193 
L 106.683643 167.91991 
L 106.896476 164.510665 
L 107.322141 164.510665 
L 107.747806 164.056099 
L 108.811968 164.056099 
L 109.0248 163.37425 
L 109.450465 163.37425 
L 109.663298 163.146967 
L 116.686769 163.146967 
L 116.899601 159.51044 
L 128.179722 159.51044 
L 128.392554 159.283157 
L 152.868287 159.283157 
L 153.08112 155.419346 
L 153.293952 154.737497 
L 162.232915 154.737497 
L 162.445748 153.828365 
L 198.414433 153.828365 
L 198.627266 150.646404 
L 206.502067 150.646404 
L 206.714899 149.282706 
L 279.077936 149.282706 
L 279.290768 148.146291 
L 279.5036 144.964329 
L 279.716433 144.737046 
L 303.766501 144.737046 
L 303.979333 141.327802 
L 305.256328 141.327802 
L 305.46916 140.645953 
L 375.916705 140.645953 
L 375.916705 140.645953 
" clip-path="url(#p98b748868c)" style="fill: none; stroke: #b9db57; stroke-width: 1.2; stroke-linecap: round"/>
   </g>
   <g id="line2d_40">
    <path d="M 69.650795 474.18372 
L 70.289293 398.612131 
L 70.502125 390.202661 
L 70.714958 351.109989 
L 70.92779 351.109989 
L 71.140623 350.655423 
L 71.353455 349.746291 
L 71.77912 345.655197 
L 71.991953 345.200631 
L 72.204785 344.064216 
L 72.417617 298.834904 
L 72.843282 289.061736 
L 73.056115 288.834453 
L 73.268947 287.016189 
L 73.48178 271.78823 
L 73.694612 271.78823 
L 73.907445 271.560947 
L 74.120277 255.423856 
L 74.545942 254.96929 
L 74.758774 247.696234 
L 74.971607 247.241669 
L 75.184439 245.423405 
L 75.397272 245.423405 
L 75.610104 241.786877 
L 75.822937 240.650462 
L 76.035769 237.241218 
L 76.248602 236.559369 
L 76.461434 234.059256 
L 76.674267 234.059256 
L 77.099932 230.422728 
L 77.312764 230.195445 
L 77.951261 225.422503 
L 78.164094 224.058805 
L 78.376926 223.831522 
L 78.589759 222.695107 
L 78.802591 222.467824 
L 80.079586 217.467599 
L 80.292418 216.78575 
L 80.505251 216.558467 
L 80.718083 216.103901 
L 81.569413 211.330958 
L 82.420743 207.694431 
L 82.633575 207.694431 
L 83.05924 205.648884 
L 83.272073 205.421601 
L 83.484905 204.285186 
L 83.697738 204.057903 
L 83.91057 203.148771 
L 84.123403 203.148771 
L 84.336235 202.012356 
L 84.974733 200.421375 
L 85.400397 199.057678 
L 85.826062 197.012131 
L 86.038895 197.012131 
L 86.46456 195.42115 
L 86.677392 195.42115 
L 86.890225 194.966584 
L 87.103057 194.966584 
L 87.31589 193.602886 
L 87.528722 193.14832 
L 87.954387 190.193641 
L 88.167219 190.193641 
L 88.380052 189.739076 
L 88.592884 189.739076 
L 88.805717 189.28451 
L 89.018549 189.28451 
L 89.231382 188.375378 
L 90.082712 187.466246 
L 90.508376 187.466246 
L 91.359706 184.73885 
L 91.572539 184.511567 
L 91.785371 183.829718 
L 91.998204 183.602435 
L 92.211036 183.147869 
L 92.423869 183.147869 
L 93.275198 180.193191 
L 93.488031 180.193191 
L 93.913696 179.511342 
L 94.126528 179.511342 
L 94.552193 179.056776 
L 94.765026 179.056776 
L 95.403523 176.783946 
L 95.616356 176.783946 
L 96.254853 175.647531 
L 96.467685 175.420248 
L 96.680518 174.965682 
L 96.89335 174.965682 
L 97.74468 174.05655 
L 98.383177 174.05655 
L 98.59601 173.829267 
L 98.808842 173.829267 
L 99.021675 173.374701 
L 99.234507 173.374701 
L 99.660172 172.920135 
L 99.873005 172.465569 
L 100.29867 172.465569 
L 100.511502 172.238286 
L 100.724335 171.556437 
L 100.937167 171.556437 
L 101.149999 170.874589 
L 101.362832 170.874589 
L 101.575664 170.420023 
L 102.214162 170.420023 
L 102.426994 170.19274 
L 102.639827 169.738174 
L 103.065492 169.738174 
L 103.278324 169.510891 
L 103.703989 169.510891 
L 104.342486 168.829042 
L 104.768151 168.829042 
L 105.193816 168.374476 
L 105.619481 168.374476 
L 105.832314 167.91991 
L 106.045146 167.91991 
L 106.257978 167.692627 
L 106.683643 167.692627 
L 106.896476 167.238061 
L 108.599136 167.238061 
L 108.811968 166.101646 
L 109.0248 165.874363 
L 109.663298 165.874363 
L 109.87613 165.64708 
L 110.514628 165.64708 
L 110.940293 165.192514 
L 111.153125 165.192514 
L 111.365957 164.965231 
L 111.57879 164.965231 
L 111.791622 164.737948 
L 112.004455 164.737948 
L 112.217287 164.510665 
L 112.855785 164.510665 
L 113.068617 164.283382 
L 113.28145 164.283382 
L 113.494282 164.056099 
L 114.132779 164.056099 
L 114.345612 163.828816 
L 114.558444 163.37425 
L 115.196942 163.37425 
L 115.409774 163.146967 
L 116.473937 163.146967 
L 116.899601 162.465118 
L 119.240758 162.465118 
L 119.666423 162.010552 
L 120.092088 162.010552 
L 120.304921 161.783269 
L 122.646078 161.783269 
L 122.85891 161.555986 
L 127.328392 161.555986 
L 127.541224 161.328703 
L 128.392554 161.328703 
L 128.605387 161.101421 
L 129.243884 161.101421 
L 129.456717 160.874138 
L 130.308046 160.874138 
L 130.520879 160.646855 
L 131.372209 160.646855 
L 131.585041 160.419572 
L 132.223539 160.419572 
L 132.436371 160.192289 
L 132.862036 160.192289 
L 133.074868 159.737723 
L 136.480188 159.737723 
L 136.69302 159.51044 
L 140.524004 159.51044 
L 140.736837 159.283157 
L 142.652329 159.283157 
L 142.865161 159.055874 
L 143.716491 159.055874 
L 143.929324 158.828591 
L 144.142156 158.828591 
L 144.354989 158.601308 
L 145.844816 158.601308 
L 146.057648 158.374025 
L 146.696146 158.374025 
L 146.908978 158.146742 
L 147.334643 158.146742 
L 147.547476 157.919459 
L 148.398805 157.919459 
L 148.611638 157.692176 
L 153.293952 157.692176 
L 153.506784 157.23761 
L 154.570947 157.23761 
L 154.783779 157.010327 
L 157.550601 157.010327 
L 157.763434 156.783044 
L 159.253261 156.783044 
L 159.678926 156.328478 
L 160.955921 156.328478 
L 161.168753 156.101195 
L 162.232915 156.101195 
L 162.445748 155.873912 
L 166.0639 155.873912 
L 166.489564 155.419346 
L 167.340894 155.419346 
L 167.553727 154.737497 
L 167.766559 154.510214 
L 168.405057 154.510214 
L 168.617889 154.282931 
L 179.04668 154.282931 
L 179.259512 154.055648 
L 185.218821 154.055648 
L 185.431653 153.601082 
L 186.921481 153.601082 
L 187.134313 153.373799 
L 189.688303 153.373799 
L 189.901135 153.146516 
L 191.390962 153.146516 
L 191.603795 152.919233 
L 193.306454 152.919233 
L 193.519287 152.69195 
L 194.583449 152.69195 
L 194.796282 152.464667 
L 202.032585 152.464667 
L 202.245418 151.555536 
L 205.437905 151.555536 
L 205.863569 151.10097 
L 206.289234 151.10097 
L 206.714899 150.646404 
L 207.140564 150.646404 
L 207.353397 150.419121 
L 207.566229 150.419121 
L 207.779062 150.191838 
L 210.120219 150.191838 
L 210.333051 149.964555 
L 220.123344 149.964555 
L 220.336177 149.509989 
L 221.400339 149.509989 
L 221.613171 149.282706 
L 225.231323 149.282706 
L 225.444156 149.055423 
L 230.9778 149.055423 
L 231.190632 148.82814 
L 234.595951 148.82814 
L 234.808784 148.600857 
L 244.599077 148.600857 
L 244.81191 148.373574 
L 249.919889 148.373574 
L 250.132721 148.146291 
L 255.027868 148.146291 
L 255.2407 147.919008 
L 256.730527 147.919008 
L 256.94336 147.691725 
L 268.436313 147.691725 
L 268.649145 147.464442 
L 270.351805 147.464442 
L 270.564637 147.237159 
L 272.480129 147.237159 
L 272.692962 146.782593 
L 275.246951 146.782593 
L 275.459784 146.55531 
L 279.5036 146.55531 
L 279.716433 146.328027 
L 286.739904 146.328027 
L 286.952737 146.100744 
L 287.591234 146.100744 
L 287.804066 145.873461 
L 292.699213 145.873461 
L 292.912045 145.646178 
L 301.638176 145.646178 
L 301.851009 145.191612 
L 302.915171 145.191612 
L 303.128003 144.509763 
L 303.766501 144.509763 
L 303.979333 143.373348 
L 304.404998 143.373348 
L 304.830663 142.918782 
L 305.46916 142.918782 
L 305.681993 142.691499 
L 305.894825 142.009651 
L 310.364307 142.009651 
L 310.57714 141.782368 
L 311.428469 141.782368 
L 311.641302 141.555085 
L 312.066967 141.555085 
L 312.279799 141.327802 
L 320.367433 141.327802 
L 320.580265 141.100519 
L 342.289176 141.100519 
L 342.502008 140.873236 
L 347.397155 140.873236 
L 347.609987 140.645953 
L 353.782129 140.645953 
L 353.994961 140.41867 
L 362.933925 140.41867 
L 363.146757 140.191387 
L 365.700746 140.191387 
L 365.913579 139.964104 
L 375.916705 139.964104 
L 375.916705 139.964104 
" clip-path="url(#p98b748868c)" style="fill: none; stroke: #57db94; stroke-width: 1.2; stroke-linecap: round"/>
   </g>
   <g id="line2d_41">
    <path d="M 69.650795 473.956437 
L 70.502125 361.792289 
L 70.714958 352.473687 
L 70.92779 319.972221 
L 71.566288 286.561623 
L 71.77912 285.425209 
L 71.991953 280.1977 
L 72.204785 279.288568 
L 72.63045 267.24257 
L 72.843282 264.969741 
L 73.056115 260.196798 
L 73.48178 246.787103 
L 73.694612 244.514273 
L 74.120277 232.468275 
L 74.33311 231.559143 
L 74.758774 225.19522 
L 74.971607 224.740654 
L 75.184439 223.149673 
L 76.461434 207.921714 
L 76.674267 207.467148 
L 77.099932 204.512469 
L 77.312764 204.285186 
L 78.589759 195.42115 
L 79.015424 194.512018 
L 79.441089 191.330056 
L 80.292418 188.148095 
L 80.718083 187.01168 
L 80.930916 183.147869 
L 81.143748 182.920586 
L 81.356581 180.193191 
L 81.782246 178.829493 
L 81.995078 177.693078 
L 82.207911 177.465795 
L 82.633575 175.647531 
L 82.846408 175.420248 
L 83.05924 174.738399 
L 83.272073 173.601984 
L 83.484905 173.374701 
L 83.697738 173.374701 
L 84.123403 171.101871 
L 84.549068 170.420023 
L 84.7619 170.19274 
L 84.974733 169.056325 
L 85.61323 167.692627 
L 86.46456 164.283382 
L 86.677392 164.056099 
L 87.31589 161.783269 
L 87.954387 157.464893 
L 88.167219 157.464893 
L 88.380052 157.23761 
L 88.592884 156.783044 
L 88.805717 156.783044 
L 89.018549 155.646629 
L 89.869879 154.055648 
L 90.082712 154.055648 
L 90.508376 153.601082 
L 91.572539 150.419121 
L 91.785371 150.419121 
L 91.998204 149.737272 
L 92.423869 149.282706 
L 92.849534 146.782593 
L 93.062366 146.782593 
L 93.275198 146.100744 
L 93.488031 146.100744 
L 93.700863 145.191612 
L 94.339361 145.191612 
L 94.552193 144.964329 
L 94.977858 143.600631 
L 95.829188 142.691499 
L 96.04202 142.691499 
L 96.254853 142.236933 
L 96.467685 142.236933 
L 96.89335 141.555085 
L 97.106183 141.327802 
L 97.319015 141.327802 
L 97.531848 141.100519 
L 99.44734 141.100519 
L 99.660172 140.873236 
L 99.873005 140.41867 
L 100.085837 140.41867 
L 100.29867 140.191387 
L 100.511502 139.736821 
L 100.724335 139.736821 
L 101.362832 139.054972 
L 102.214162 139.054972 
L 102.426994 138.827689 
L 103.065492 138.827689 
L 103.278324 138.600406 
L 103.703989 138.600406 
L 104.342486 137.918557 
L 105.832314 137.918557 
L 106.257978 137.463991 
L 106.470811 137.463991 
L 106.683643 137.009425 
L 106.896476 137.009425 
L 107.109308 136.782142 
L 107.960638 136.782142 
L 108.173471 136.327576 
L 108.386303 136.327576 
L 109.0248 134.963878 
L 109.87613 134.963878 
L 110.088963 134.509312 
L 110.514628 134.509312 
L 110.72746 134.282029 
L 112.642952 134.282029 
L 112.855785 134.054746 
L 114.132779 134.054746 
L 114.558444 133.60018 
L 114.771277 133.60018 
L 114.984109 133.372897 
L 115.196942 133.372897 
L 115.622607 132.918331 
L 116.048272 132.918331 
L 116.473937 132.463766 
L 119.453591 132.463766 
L 119.666423 132.236483 
L 120.517753 132.236483 
L 120.730586 132.0092 
L 122.646078 132.0092 
L 122.85891 131.781917 
L 123.071743 131.781917 
L 123.284575 131.554634 
L 126.477062 131.554634 
L 126.689895 131.327351 
L 128.392554 131.327351 
L 128.605387 131.100068 
L 131.372209 131.100068 
L 131.585041 130.872785 
L 133.074868 130.872785 
L 133.287701 130.645502 
L 134.139031 130.645502 
L 134.351863 130.418219 
L 141.588167 130.418219 
L 141.800999 129.963653 
L 142.652329 129.963653 
L 142.865161 129.73637 
L 143.716491 129.73637 
L 143.929324 129.281804 
L 144.354989 129.281804 
L 144.567821 129.054521 
L 144.780654 129.054521 
L 144.993486 128.827238 
L 148.185973 128.827238 
L 148.398805 128.599955 
L 150.101465 128.599955 
L 150.314298 128.372672 
L 150.739962 128.372672 
L 150.952795 128.145389 
L 153.08112 128.145389 
L 153.293952 127.918106 
L 153.932449 127.918106 
L 154.145282 127.690823 
L 157.337769 127.690823 
L 157.550601 127.46354 
L 158.189099 127.46354 
L 158.401931 127.236257 
L 160.743088 127.236257 
L 160.955921 127.008974 
L 166.489564 127.008974 
L 166.702397 126.327125 
L 167.340894 126.327125 
L 167.766559 125.645276 
L 168.405057 125.645276 
L 168.617889 125.417993 
L 175.428528 125.417993 
L 175.64136 125.19071 
L 176.705523 125.19071 
L 176.918355 124.963427 
L 187.134313 124.963427 
L 187.347146 124.736144 
L 191.816627 124.736144 
L 192.02946 124.508861 
L 194.583449 124.508861 
L 194.796282 124.281578 
L 198.840098 124.281578 
L 199.478596 123.599729 
L 199.691428 122.91788 
L 199.904261 122.91788 
L 200.117093 122.690598 
L 201.394088 122.690598 
L 201.60692 122.463315 
L 206.502067 122.463315 
L 206.714899 122.236032 
L 207.991894 122.236032 
L 208.204727 122.008749 
L 209.056056 122.008749 
L 209.268889 121.781466 
L 210.120219 121.781466 
L 210.333051 121.554183 
L 213.312706 121.554183 
L 213.525538 121.3269 
L 213.951203 121.3269 
L 214.164035 121.099617 
L 219.697679 121.099617 
L 219.910512 120.872334 
L 225.018491 120.872334 
L 225.231323 120.645051 
L 230.552135 120.645051 
L 230.764967 120.417768 
L 234.595951 120.417768 
L 234.808784 120.190485 
L 250.558386 120.190485 
L 250.771218 119.735919 
L 252.048213 119.735919 
L 252.261046 119.508636 
L 257.156192 119.508636 
L 257.369025 119.281353 
L 265.882323 119.281353 
L 266.095155 119.05407 
L 272.905794 119.05407 
L 273.118627 118.826787 
L 275.246951 118.826787 
L 275.459784 118.599504 
L 280.567763 118.599504 
L 280.780595 118.372221 
L 286.739904 118.372221 
L 286.952737 118.144938 
L 287.378401 118.144938 
L 287.591234 117.917655 
L 289.719558 117.917655 
L 289.932391 117.690372 
L 297.168695 117.690372 
L 297.381527 117.463089 
L 300.999679 117.463089 
L 301.212511 117.235806 
L 301.425344 117.235806 
L 301.638176 117.008523 
L 301.851009 117.008523 
L 302.276674 116.553957 
L 302.489506 116.553957 
L 302.702339 116.326674 
L 302.915171 116.326674 
L 303.128003 115.872108 
L 303.340836 115.872108 
L 303.553668 115.190259 
L 303.766501 115.190259 
L 303.979333 114.962976 
L 305.681993 114.962976 
L 305.894825 114.053844 
L 311.428469 114.053844 
L 311.641302 113.826561 
L 312.066967 113.826561 
L 312.279799 113.599278 
L 316.749281 113.599278 
L 316.962113 113.371995 
L 320.367433 113.371995 
L 320.580265 113.144713 
L 343.779003 113.144713 
L 343.991836 112.91743 
L 353.782129 112.91743 
L 353.994961 112.690147 
L 362.082595 112.690147 
L 362.295427 112.462864 
L 375.916705 112.462864 
L 375.916705 112.462864 
" clip-path="url(#p98b748868c)" style="fill: none; stroke: #5784db; stroke-width: 1.2; stroke-linecap: round"/>
   </g>
   <g id="line2d_42">
    <path d="M 69.650795 469.751702 
L 69.863628 440.886764 
L 70.289293 355.655648 
L 70.502125 324.745163 
L 70.714958 318.153957 
L 71.353455 276.33389 
L 72.417617 255.878422 
L 72.843282 246.332537 
L 73.694612 224.513371 
L 73.907445 214.51292 
L 74.758774 204.057903 
L 74.971607 203.603337 
L 75.184439 201.55779 
L 75.397272 200.648658 
L 76.248602 188.148095 
L 76.674267 187.01168 
L 76.887099 184.73885 
L 77.099932 183.829718 
L 77.312764 183.602435 
L 77.951261 178.374927 
L 78.376926 175.192965 
L 78.589759 174.511116 
L 78.802591 174.283833 
L 79.015424 173.601984 
L 79.441089 170.647306 
L 79.653921 169.965457 
L 80.079586 167.91991 
L 80.718083 165.874363 
L 80.930916 162.010552 
L 81.569413 157.919459 
L 81.782246 157.692176 
L 82.207911 155.873912 
L 83.272073 151.782818 
L 83.697738 150.873687 
L 83.91057 149.055423 
L 84.123403 149.055423 
L 84.549068 148.373574 
L 84.7619 148.146291 
L 84.974733 146.782593 
L 85.400397 146.100744 
L 85.826062 144.28248 
L 86.038895 143.600631 
L 86.251727 142.464216 
L 86.46456 142.236933 
L 86.890225 141.327802 
L 87.528722 138.373123 
L 87.741555 136.327576 
L 87.954387 135.645727 
L 88.167219 135.645727 
L 88.592884 134.736595 
L 88.805717 134.736595 
L 89.231382 132.918331 
L 89.869879 132.236483 
L 90.082712 132.236483 
L 90.295544 132.0092 
L 90.508376 131.554634 
L 91.146874 129.054521 
L 91.998204 127.46354 
L 92.211036 127.46354 
L 92.423869 127.236257 
L 92.849534 124.736144 
L 93.062366 124.508861 
L 93.913696 122.91788 
L 94.126528 122.91788 
L 94.339361 122.690598 
L 94.552193 122.690598 
L 94.765026 121.554183 
L 94.977858 121.099617 
L 95.190691 121.099617 
L 95.829188 120.417768 
L 96.04202 119.963202 
L 96.467685 119.963202 
L 96.89335 119.281353 
L 97.106183 119.05407 
L 97.319015 119.05407 
L 97.531848 118.826787 
L 99.44734 118.826787 
L 99.660172 118.599504 
L 99.873005 118.144938 
L 100.085837 118.144938 
L 100.29867 117.917655 
L 100.511502 117.463089 
L 100.724335 117.463089 
L 100.937167 117.235806 
L 101.149999 117.235806 
L 101.362832 117.008523 
L 102.214162 117.008523 
L 102.426994 116.553957 
L 103.065492 116.553957 
L 103.278324 116.326674 
L 103.703989 116.326674 
L 104.342486 115.644825 
L 105.832314 115.644825 
L 106.257978 115.190259 
L 106.470811 115.190259 
L 106.683643 114.735693 
L 106.896476 114.735693 
L 107.109308 114.50841 
L 107.322141 114.50841 
L 107.534973 114.281127 
L 107.960638 114.281127 
L 108.173471 114.053844 
L 108.386303 114.053844 
L 109.0248 112.91743 
L 109.87613 112.91743 
L 110.088963 112.462864 
L 110.514628 112.462864 
L 110.72746 112.235581 
L 114.132779 112.235581 
L 114.558444 111.781015 
L 114.771277 111.781015 
L 114.984109 111.553732 
L 115.196942 111.553732 
L 115.622607 111.099166 
L 116.048272 111.099166 
L 116.473937 110.6446 
L 119.453591 110.6446 
L 119.666423 110.417317 
L 120.517753 110.417317 
L 120.730586 110.190034 
L 122.646078 110.190034 
L 122.85891 109.962751 
L 123.071743 109.962751 
L 123.284575 109.735468 
L 126.477062 109.735468 
L 126.689895 109.508185 
L 127.328392 109.508185 
L 127.541224 109.280902 
L 128.392554 109.280902 
L 128.605387 109.053619 
L 132.862036 109.053619 
L 133.074868 108.826336 
L 134.139031 108.826336 
L 134.351863 108.599053 
L 141.588167 108.599053 
L 141.800999 108.144487 
L 142.652329 108.144487 
L 142.865161 107.917204 
L 143.716491 107.917204 
L 143.929324 107.462638 
L 144.354989 107.462638 
L 144.780654 107.008072 
L 148.185973 107.008072 
L 148.398805 106.780789 
L 149.888633 106.780789 
L 150.101465 106.553506 
L 150.739962 106.553506 
L 150.952795 106.326223 
L 152.442622 106.326223 
L 152.655455 106.09894 
L 153.08112 106.09894 
L 153.293952 105.871657 
L 157.337769 105.871657 
L 157.550601 105.644374 
L 158.189099 105.644374 
L 158.401931 105.417091 
L 164.148407 105.417091 
L 164.36124 105.189808 
L 166.0639 105.189808 
L 166.276732 104.962525 
L 166.489564 104.962525 
L 166.702397 104.507959 
L 167.340894 104.507959 
L 167.766559 103.82611 
L 168.405057 103.82611 
L 168.617889 103.598828 
L 174.577198 103.598828 
L 174.79003 103.371545 
L 176.705523 103.371545 
L 176.918355 103.144262 
L 186.921481 103.144262 
L 187.134313 102.916979 
L 191.390962 102.916979 
L 191.603795 102.689696 
L 194.370617 102.689696 
L 194.583449 102.462413 
L 198.840098 102.462413 
L 199.478596 101.780564 
L 199.691428 100.871432 
L 199.904261 100.644149 
L 201.394088 100.644149 
L 201.60692 100.416866 
L 206.502067 100.416866 
L 206.714899 100.189583 
L 207.991894 100.189583 
L 208.204727 99.9623 
L 210.120219 99.9623 
L 210.333051 99.735017 
L 212.887041 99.735017 
L 213.099873 99.507734 
L 217.356522 99.507734 
L 217.569355 99.280451 
L 219.697679 99.280451 
L 219.910512 99.053168 
L 225.018491 99.053168 
L 225.231323 98.825885 
L 230.552135 98.825885 
L 230.764967 98.598602 
L 234.595951 98.598602 
L 234.808784 98.371319 
L 238.852601 98.371319 
L 239.065433 98.144036 
L 247.153067 98.144036 
L 247.365899 97.916753 
L 249.919889 97.916753 
L 250.345553 97.462187 
L 252.048213 97.462187 
L 252.261046 97.234904 
L 256.517695 97.234904 
L 257.156192 96.553055 
L 265.882323 96.553055 
L 266.095155 96.325772 
L 272.480129 96.325772 
L 272.692962 96.098489 
L 275.246951 96.098489 
L 275.459784 95.871206 
L 279.5036 95.871206 
L 279.716433 95.643923 
L 286.739904 95.643923 
L 286.952737 95.41664 
L 287.378401 95.41664 
L 287.591234 95.189357 
L 289.719558 95.189357 
L 289.932391 94.962074 
L 297.168695 94.962074 
L 297.381527 94.734791 
L 300.999679 94.734791 
L 301.212511 94.507508 
L 301.425344 94.507508 
L 301.638176 94.280225 
L 301.851009 94.280225 
L 302.276674 93.82566 
L 302.489506 93.82566 
L 302.702339 93.598377 
L 302.915171 93.598377 
L 303.128003 93.143811 
L 303.340836 93.143811 
L 303.553668 92.461962 
L 303.766501 92.461962 
L 303.979333 92.234679 
L 304.404998 92.234679 
L 304.617831 92.007396 
L 305.256328 92.007396 
L 305.46916 91.325547 
L 305.681993 91.098264 
L 311.428469 91.098264 
L 311.641302 90.870981 
L 312.066967 90.870981 
L 312.279799 90.643698 
L 316.749281 90.643698 
L 316.962113 90.416415 
L 320.367433 90.416415 
L 320.580265 90.189132 
L 347.184323 90.189132 
L 347.397155 89.961849 
L 353.782129 89.961849 
L 353.994961 89.734566 
L 362.082595 89.734566 
L 362.295427 89.507283 
L 370.595893 89.507283 
L 370.808726 89.28 
L 375.916705 89.28 
L 375.916705 89.28 
" clip-path="url(#p98b748868c)" style="fill: none; stroke: #c957db; stroke-width: 1.2; stroke-linecap: round"/>
   </g>
   <g id="line2d_43"/>
   <g id="line2d_44"/>
   <g id="line2d_45"/>
   <g id="line2d_46"/>
   <g id="line2d_47"/>
   <g id="patch_3">
    <path d="M 54.3375 512.64 
L 54.3375 69.12 
" style="fill: none; stroke: #cccccc; stroke-linejoin: miter; stroke-linecap: square"/>
   </g>
   <g id="patch_4">
    <path d="M 54.3375 512.64 
L 391.23 512.64 
" style="fill: none; stroke: #cccccc; stroke-linejoin: miter; stroke-linecap: square"/>
   </g>
   <g id="text_40">
    <!-- Edge Coverage History -->
    <g style="fill: #262626" transform="translate(115.892262 63.12)scale(0.165888 -0.165888)">
     <defs>
      <path id="DejaVuSans-Bold-45" d="M 588 4666 
L 3834 4666 
L 3834 3756 
L 1791 3756 
L 1791 2888 
L 3713 2888 
L 3713 1978 
L 1791 1978 
L 1791 909 
L 3903 909 
L 3903 0 
L 588 0 
L 588 4666 
z
" transform="scale(0.015625)"/>
      <path id="DejaVuSans-Bold-64" d="M 2919 2988 
L 2919 4863 
L 4044 4863 
L 4044 0 
L 2919 0 
L 2919 506 
Q 2688 197 2409 53 
Q 2131 -91 1766 -91 
Q 1119 -91 703 423 
Q 288 938 288 1747 
Q 288 2556 703 3070 
Q 1119 3584 1766 3584 
Q 2128 3584 2408 3439 
Q 2688 3294 2919 2988 
z
M 2181 722 
Q 2541 722 2730 984 
Q 2919 1247 2919 1747 
Q 2919 2247 2730 2509 
Q 2541 2772 2181 2772 
Q 1825 2772 1636 2509 
Q 1447 2247 1447 1747 
Q 1447 1247 1636 984 
Q 1825 722 2181 722 
z
" transform="scale(0.015625)"/>
      <path id="DejaVuSans-Bold-67" d="M 2919 594 
Q 2688 288 2409 144 
Q 2131 0 1766 0 
Q 1125 0 706 504 
Q 288 1009 288 1791 
Q 288 2575 706 3076 
Q 1125 3578 1766 3578 
Q 2131 3578 2409 3434 
Q 2688 3291 2919 2981 
L 2919 3500 
L 4044 3500 
L 4044 353 
Q 4044 -491 3511 -936 
Q 2978 -1381 1966 -1381 
Q 1638 -1381 1331 -1331 
Q 1025 -1281 716 -1178 
L 716 -306 
Q 1009 -475 1290 -558 
Q 1572 -641 1856 -641 
Q 2406 -641 2662 -400 
Q 2919 -159 2919 353 
L 2919 594 
z
M 2181 2772 
Q 1834 2772 1640 2515 
Q 1447 2259 1447 1791 
Q 1447 1309 1634 1061 
Q 1822 813 2181 813 
Q 2531 813 2725 1069 
Q 2919 1325 2919 1791 
Q 2919 2259 2725 2515 
Q 2531 2772 2181 2772 
z
" transform="scale(0.015625)"/>
      <path id="DejaVuSans-Bold-65" d="M 4031 1759 
L 4031 1441 
L 1416 1441 
Q 1456 1047 1700 850 
Q 1944 653 2381 653 
Q 2734 653 3104 758 
Q 3475 863 3866 1075 
L 3866 213 
Q 3469 63 3072 -14 
Q 2675 -91 2278 -91 
Q 1328 -91 801 392 
Q 275 875 275 1747 
Q 275 2603 792 3093 
Q 1309 3584 2216 3584 
Q 3041 3584 3536 3087 
Q 4031 2591 4031 1759 
z
M 2881 2131 
Q 2881 2450 2695 2645 
Q 2509 2841 2209 2841 
Q 1884 2841 1681 2658 
Q 1478 2475 1428 2131 
L 2881 2131 
z
" transform="scale(0.015625)"/>
      <path id="DejaVuSans-Bold-20" transform="scale(0.015625)"/>
      <path id="DejaVuSans-Bold-43" d="M 4288 256 
Q 3956 84 3597 -3 
Q 3238 -91 2847 -91 
Q 1681 -91 1000 561 
Q 319 1213 319 2328 
Q 319 3447 1000 4098 
Q 1681 4750 2847 4750 
Q 3238 4750 3597 4662 
Q 3956 4575 4288 4403 
L 4288 3438 
Q 3953 3666 3628 3772 
Q 3303 3878 2944 3878 
Q 2300 3878 1931 3465 
Q 1563 3053 1563 2328 
Q 1563 1606 1931 1193 
Q 2300 781 2944 781 
Q 3303 781 3628 887 
Q 3953 994 4288 1222 
L 4288 256 
z
" transform="scale(0.015625)"/>
      <path id="DejaVuSans-Bold-6f" d="M 2203 2784 
Q 1831 2784 1636 2517 
Q 1441 2250 1441 1747 
Q 1441 1244 1636 976 
Q 1831 709 2203 709 
Q 2569 709 2762 976 
Q 2956 1244 2956 1747 
Q 2956 2250 2762 2517 
Q 2569 2784 2203 2784 
z
M 2203 3584 
Q 3106 3584 3614 3096 
Q 4122 2609 4122 1747 
Q 4122 884 3614 396 
Q 3106 -91 2203 -91 
Q 1297 -91 786 396 
Q 275 884 275 1747 
Q 275 2609 786 3096 
Q 1297 3584 2203 3584 
z
" transform="scale(0.015625)"/>
      <path id="DejaVuSans-Bold-76" d="M 97 3500 
L 1216 3500 
L 2088 1081 
L 2956 3500 
L 4078 3500 
L 2700 0 
L 1472 0 
L 97 3500 
z
" transform="scale(0.015625)"/>
      <path id="DejaVuSans-Bold-72" d="M 3138 2547 
Q 2991 2616 2845 2648 
Q 2700 2681 2553 2681 
Q 2122 2681 1889 2404 
Q 1656 2128 1656 1613 
L 1656 0 
L 538 0 
L 538 3500 
L 1656 3500 
L 1656 2925 
Q 1872 3269 2151 3426 
Q 2431 3584 2822 3584 
Q 2878 3584 2943 3579 
Q 3009 3575 3134 3559 
L 3138 2547 
z
" transform="scale(0.015625)"/>
      <path id="DejaVuSans-Bold-61" d="M 2106 1575 
Q 1756 1575 1579 1456 
Q 1403 1338 1403 1106 
Q 1403 894 1545 773 
Q 1688 653 1941 653 
Q 2256 653 2472 879 
Q 2688 1106 2688 1447 
L 2688 1575 
L 2106 1575 
z
M 3816 1997 
L 3816 0 
L 2688 0 
L 2688 519 
Q 2463 200 2181 54 
Q 1900 -91 1497 -91 
Q 953 -91 614 226 
Q 275 544 275 1050 
Q 275 1666 698 1953 
Q 1122 2241 2028 2241 
L 2688 2241 
L 2688 2328 
Q 2688 2594 2478 2717 
Q 2269 2841 1825 2841 
Q 1466 2841 1156 2769 
Q 847 2697 581 2553 
L 581 3406 
Q 941 3494 1303 3539 
Q 1666 3584 2028 3584 
Q 2975 3584 3395 3211 
Q 3816 2838 3816 1997 
z
" transform="scale(0.015625)"/>
      <path id="DejaVuSans-Bold-48" d="M 588 4666 
L 1791 4666 
L 1791 2888 
L 3566 2888 
L 3566 4666 
L 4769 4666 
L 4769 0 
L 3566 0 
L 3566 1978 
L 1791 1978 
L 1791 0 
L 588 0 
L 588 4666 
z
" transform="scale(0.015625)"/>
      <path id="DejaVuSans-Bold-69" d="M 538 3500 
L 1656 3500 
L 1656 0 
L 538 0 
L 538 3500 
z
M 538 4863 
L 1656 4863 
L 1656 3950 
L 538 3950 
L 538 4863 
z
" transform="scale(0.015625)"/>
      <path id="DejaVuSans-Bold-73" d="M 3272 3391 
L 3272 2541 
Q 2913 2691 2578 2766 
Q 2244 2841 1947 2841 
Q 1628 2841 1473 2761 
Q 1319 2681 1319 2516 
Q 1319 2381 1436 2309 
Q 1553 2238 1856 2203 
L 2053 2175 
Q 2913 2066 3209 1816 
Q 3506 1566 3506 1031 
Q 3506 472 3093 190 
Q 2681 -91 1863 -91 
Q 1516 -91 1145 -36 
Q 775 19 384 128 
L 384 978 
Q 719 816 1070 734 
Q 1422 653 1784 653 
Q 2113 653 2278 743 
Q 2444 834 2444 1013 
Q 2444 1163 2330 1236 
Q 2216 1309 1875 1350 
L 1678 1375 
Q 931 1469 631 1722 
Q 331 1975 331 2491 
Q 331 3047 712 3315 
Q 1094 3584 1881 3584 
Q 2191 3584 2531 3537 
Q 2872 3491 3272 3391 
z
" transform="scale(0.015625)"/>
      <path id="DejaVuSans-Bold-74" d="M 1759 4494 
L 1759 3500 
L 2913 3500 
L 2913 2700 
L 1759 2700 
L 1759 1216 
Q 1759 972 1856 886 
Q 1953 800 2241 800 
L 2816 800 
L 2816 0 
L 1856 0 
Q 1194 0 917 276 
Q 641 553 641 1216 
L 641 2700 
L 84 2700 
L 84 3500 
L 641 3500 
L 641 4494 
L 1759 4494 
z
" transform="scale(0.015625)"/>
      <path id="DejaVuSans-Bold-79" d="M 78 3500 
L 1197 3500 
L 2138 1125 
L 2938 3500 
L 4056 3500 
L 2584 -331 
Q 2363 -916 2067 -1148 
Q 1772 -1381 1288 -1381 
L 641 -1381 
L 641 -647 
L 991 -647 
Q 1275 -647 1404 -556 
Q 1534 -466 1606 -231 
L 1638 -134 
L 78 3500 
z
" transform="scale(0.015625)"/>
     </defs>
     <use xlink:href="#DejaVuSans-Bold-45"/>
     <use xlink:href="#DejaVuSans-Bold-64" x="68.310547"/>
     <use xlink:href="#DejaVuSans-Bold-67" x="139.892578"/>
     <use xlink:href="#DejaVuSans-Bold-65" x="211.474609"/>
     <use xlink:href="#DejaVuSans-Bold-20" x="279.296875"/>
     <use xlink:href="#DejaVuSans-Bold-43" x="314.111328"/>
     <use xlink:href="#DejaVuSans-Bold-6f" x="387.5"/>
     <use xlink:href="#DejaVuSans-Bold-76" x="456.201172"/>
     <use xlink:href="#DejaVuSans-Bold-65" x="521.386719"/>
     <use xlink:href="#DejaVuSans-Bold-72" x="589.208984"/>
     <use xlink:href="#DejaVuSans-Bold-61" x="638.525391"/>
     <use xlink:href="#DejaVuSans-Bold-67" x="706.005859"/>
     <use xlink:href="#DejaVuSans-Bold-65" x="777.587891"/>
     <use xlink:href="#DejaVuSans-Bold-20" x="845.410156"/>
     <use xlink:href="#DejaVuSans-Bold-48" x="880.224609"/>
     <use xlink:href="#DejaVuSans-Bold-69" x="963.916016"/>
     <use xlink:href="#DejaVuSans-Bold-73" x="998.193359"/>
     <use xlink:href="#DejaVuSans-Bold-74" x="1057.714844"/>
     <use xlink:href="#DejaVuSans-Bold-6f" x="1105.517578"/>
     <use xlink:href="#DejaVuSans-Bold-72" x="1174.21875"/>
     <use xlink:href="#DejaVuSans-Bold-79" x="1223.535156"/>
    </g>
   </g>
   <g id="legend_1">
    <g id="patch_5">
     <path d="M 273.541 508.24 
L 385.07 508.24 
Q 386.83 508.24 386.83 506.48 
L 386.83 428.8405 
Q 386.83 427.0805 385.07 427.0805 
L 273.541 427.0805 
Q 271.781 427.0805 271.781 428.8405 
L 271.781 506.48 
Q 271.781 508.24 273.541 508.24 
z
" style="fill: #ffffff; opacity: 0.8; stroke: #cccccc; stroke-width: 0.8; stroke-linejoin: miter"/>
    </g>
    <g id="text_41">
     <!-- fuzzer -->
     <g style="fill: #262626" transform="translate(314.6085 437.895)scale(0.096 -0.096)">
      <defs>
       <path id="DejaVuSans-66" d="M 2375 4863 
L 2375 4384 
L 1825 4384 
Q 1516 4384 1395 4259 
Q 1275 4134 1275 3809 
L 1275 3500 
L 2222 3500 
L 2222 3053 
L 1275 3053 
L 1275 0 
L 697 0 
L 697 3053 
L 147 3053 
L 147 3500 
L 697 3500 
L 697 3744 
Q 697 4328 969 4595 
Q 1241 4863 1831 4863 
L 2375 4863 
z
" transform="scale(0.015625)"/>
       <path id="DejaVuSans-7a" d="M 353 3500 
L 3084 3500 
L 3084 2975 
L 922 459 
L 3084 459 
L 3084 0 
L 275 0 
L 275 525 
L 2438 3041 
L 353 3041 
L 353 3500 
z
" transform="scale(0.015625)"/>
      </defs>
      <use xlink:href="#DejaVuSans-66"/>
      <use xlink:href="#DejaVuSans-75" x="35.205078"/>
      <use xlink:href="#DejaVuSans-7a" x="98.583984"/>
      <use xlink:href="#DejaVuSans-7a" x="151.074219"/>
      <use xlink:href="#DejaVuSans-65" x="203.564453"/>
      <use xlink:href="#DejaVuSans-72" x="265.087891"/>
     </g>
    </g>
    <g id="line2d_48">
     <path d="M 275.301 447.898125 
L 284.101 447.898125 
L 292.901 447.898125 
" style="fill: none; stroke: #db5f57; stroke-width: 1.2; stroke-linecap: round"/>
    </g>
    <g id="text_42">
     <!-- aflplusplus-0-exid2 -->
     <g style="fill: #262626" transform="translate(299.941 450.978125)scale(0.088 -0.088)">
      <defs>
       <path id="DejaVuSans-6c" d="M 603 4863 
L 1178 4863 
L 1178 0 
L 603 0 
L 603 4863 
z
" transform="scale(0.015625)"/>
       <path id="DejaVuSans-70" d="M 1159 525 
L 1159 -1331 
L 581 -1331 
L 581 3500 
L 1159 3500 
L 1159 2969 
Q 1341 3281 1617 3432 
Q 1894 3584 2278 3584 
Q 2916 3584 3314 3078 
Q 3713 2572 3713 1747 
Q 3713 922 3314 415 
Q 2916 -91 2278 -91 
Q 1894 -91 1617 61 
Q 1341 213 1159 525 
z
M 3116 1747 
Q 3116 2381 2855 2742 
Q 2594 3103 2138 3103 
Q 1681 3103 1420 2742 
Q 1159 2381 1159 1747 
Q 1159 1113 1420 752 
Q 1681 391 2138 391 
Q 2594 391 2855 752 
Q 3116 1113 3116 1747 
z
" transform="scale(0.015625)"/>
       <path id="DejaVuSans-2d" d="M 313 2009 
L 1997 2009 
L 1997 1497 
L 313 1497 
L 313 2009 
z
" transform="scale(0.015625)"/>
       <path id="DejaVuSans-78" d="M 3513 3500 
L 2247 1797 
L 3578 0 
L 2900 0 
L 1881 1375 
L 863 0 
L 184 0 
L 1544 1831 
L 300 3500 
L 978 3500 
L 1906 2253 
L 2834 3500 
L 3513 3500 
z
" transform="scale(0.015625)"/>
      </defs>
      <use xlink:href="#DejaVuSans-61"/>
      <use xlink:href="#DejaVuSans-66" x="61.279297"/>
      <use xlink:href="#DejaVuSans-6c" x="96.484375"/>
      <use xlink:href="#DejaVuSans-70" x="124.267578"/>
      <use xlink:href="#DejaVuSans-6c" x="187.744141"/>
      <use xlink:href="#DejaVuSans-75" x="215.527344"/>
      <use xlink:href="#DejaVuSans-73" x="278.90625"/>
      <use xlink:href="#DejaVuSans-70" x="331.005859"/>
      <use xlink:href="#DejaVuSans-6c" x="394.482422"/>
      <use xlink:href="#DejaVuSans-75" x="422.265625"/>
      <use xlink:href="#DejaVuSans-73" x="485.644531"/>
      <use xlink:href="#DejaVuSans-2d" x="537.744141"/>
      <use xlink:href="#DejaVuSans-30" x="573.828125"/>
      <use xlink:href="#DejaVuSans-2d" x="637.451172"/>
      <use xlink:href="#DejaVuSans-65" x="673.535156"/>
      <use xlink:href="#DejaVuSans-78" x="733.308594"/>
      <use xlink:href="#DejaVuSans-69" x="792.488281"/>
      <use xlink:href="#DejaVuSans-64" x="820.271484"/>
      <use xlink:href="#DejaVuSans-32" x="883.748047"/>
     </g>
    </g>
    <g id="line2d_49">
     <path d="M 275.301 460.814875 
L 284.101 460.814875 
L 292.901 460.814875 
" style="fill: none; stroke: #b9db57; stroke-width: 1.2; stroke-linecap: round"/>
    </g>
    <g id="text_43">
     <!-- fairfuzz-0-exid2 -->
     <g style="fill: #262626" transform="translate(299.941 463.894875)scale(0.088 -0.088)">
      <use xlink:href="#DejaVuSans-66"/>
      <use xlink:href="#DejaVuSans-61" x="35.205078"/>
      <use xlink:href="#DejaVuSans-69" x="96.484375"/>
      <use xlink:href="#DejaVuSans-72" x="124.267578"/>
      <use xlink:href="#DejaVuSans-66" x="165.380859"/>
      <use xlink:href="#DejaVuSans-75" x="200.585938"/>
      <use xlink:href="#DejaVuSans-7a" x="263.964844"/>
      <use xlink:href="#DejaVuSans-7a" x="316.455078"/>
      <use xlink:href="#DejaVuSans-2d" x="368.945312"/>
      <use xlink:href="#DejaVuSans-30" x="405.029297"/>
      <use xlink:href="#DejaVuSans-2d" x="468.652344"/>
      <use xlink:href="#DejaVuSans-65" x="504.736328"/>
      <use xlink:href="#DejaVuSans-78" x="564.509766"/>
      <use xlink:href="#DejaVuSans-69" x="623.689453"/>
      <use xlink:href="#DejaVuSans-64" x="651.472656"/>
      <use xlink:href="#DejaVuSans-32" x="714.949219"/>
     </g>
    </g>
    <g id="line2d_50">
     <path d="M 275.301 473.731625 
L 284.101 473.731625 
L 292.901 473.731625 
" style="fill: none; stroke: #57db94; stroke-width: 1.2; stroke-linecap: round"/>
    </g>
    <g id="text_44">
     <!-- mopt-0-exid2 -->
     <g style="fill: #262626" transform="translate(299.941 476.811625)scale(0.088 -0.088)">
      <use xlink:href="#DejaVuSans-6d"/>
      <use xlink:href="#DejaVuSans-6f" x="97.412109"/>
      <use xlink:href="#DejaVuSans-70" x="158.59375"/>
      <use xlink:href="#DejaVuSans-74" x="222.070312"/>
      <use xlink:href="#DejaVuSans-2d" x="261.279297"/>
      <use xlink:href="#DejaVuSans-30" x="297.363281"/>
      <use xlink:href="#DejaVuSans-2d" x="360.986328"/>
      <use xlink:href="#DejaVuSans-65" x="397.070312"/>
      <use xlink:href="#DejaVuSans-78" x="456.84375"/>
      <use xlink:href="#DejaVuSans-69" x="516.023438"/>
      <use xlink:href="#DejaVuSans-64" x="543.806641"/>
      <use xlink:href="#DejaVuSans-32" x="607.283203"/>
     </g>
    </g>
    <g id="line2d_51">
     <path d="M 275.301 486.648375 
L 284.101 486.648375 
L 292.901 486.648375 
" style="fill: none; stroke: #5784db; stroke-width: 1.2; stroke-linecap: round"/>
    </g>
    <g id="text_45">
     <!-- symcc-0-exid2 -->
     <g style="fill: #262626" transform="translate(299.941 489.728375)scale(0.088 -0.088)">
      <defs>
       <path id="DejaVuSans-79" d="M 2059 -325 
Q 1816 -950 1584 -1140 
Q 1353 -1331 966 -1331 
L 506 -1331 
L 506 -850 
L 844 -850 
Q 1081 -850 1212 -737 
Q 1344 -625 1503 -206 
L 1606 56 
L 191 3500 
L 800 3500 
L 1894 763 
L 2988 3500 
L 3597 3500 
L 2059 -325 
z
" transform="scale(0.015625)"/>
       <path id="DejaVuSans-63" d="M 3122 3366 
L 3122 2828 
Q 2878 2963 2633 3030 
Q 2388 3097 2138 3097 
Q 1578 3097 1268 2742 
Q 959 2388 959 1747 
Q 959 1106 1268 751 
Q 1578 397 2138 397 
Q 2388 397 2633 464 
Q 2878 531 3122 666 
L 3122 134 
Q 2881 22 2623 -34 
Q 2366 -91 2075 -91 
Q 1284 -91 818 406 
Q 353 903 353 1747 
Q 353 2603 823 3093 
Q 1294 3584 2113 3584 
Q 2378 3584 2631 3529 
Q 2884 3475 3122 3366 
z
" transform="scale(0.015625)"/>
      </defs>
      <use xlink:href="#DejaVuSans-73"/>
      <use xlink:href="#DejaVuSans-79" x="52.099609"/>
      <use xlink:href="#DejaVuSans-6d" x="111.279297"/>
      <use xlink:href="#DejaVuSans-63" x="208.691406"/>
      <use xlink:href="#DejaVuSans-63" x="263.671875"/>
      <use xlink:href="#DejaVuSans-2d" x="318.652344"/>
      <use xlink:href="#DejaVuSans-30" x="354.736328"/>
      <use xlink:href="#DejaVuSans-2d" x="418.359375"/>
      <use xlink:href="#DejaVuSans-65" x="454.443359"/>
      <use xlink:href="#DejaVuSans-78" x="514.216797"/>
      <use xlink:href="#DejaVuSans-69" x="573.396484"/>
      <use xlink:href="#DejaVuSans-64" x="601.179688"/>
      <use xlink:href="#DejaVuSans-32" x="664.65625"/>
     </g>
    </g>
    <g id="line2d_52">
     <path d="M 275.301 499.565125 
L 284.101 499.565125 
L 292.901 499.565125 
" style="fill: none; stroke: #c957db; stroke-width: 1.2; stroke-linecap: round"/>
    </g>
    <g id="text_46">
     <!-- fuzzer_global -->
     <g style="fill: #262626" transform="translate(299.941 502.645125)scale(0.088 -0.088)">
      <defs>
       <path id="DejaVuSans-5f" d="M 3263 -1063 
L 3263 -1509 
L -63 -1509 
L -63 -1063 
L 3263 -1063 
z
" transform="scale(0.015625)"/>
       <path id="DejaVuSans-62" d="M 3116 1747 
Q 3116 2381 2855 2742 
Q 2594 3103 2138 3103 
Q 1681 3103 1420 2742 
Q 1159 2381 1159 1747 
Q 1159 1113 1420 752 
Q 1681 391 2138 391 
Q 2594 391 2855 752 
Q 3116 1113 3116 1747 
z
M 1159 2969 
Q 1341 3281 1617 3432 
Q 1894 3584 2278 3584 
Q 2916 3584 3314 3078 
Q 3713 2572 3713 1747 
Q 3713 922 3314 415 
Q 2916 -91 2278 -91 
Q 1894 -91 1617 61 
Q 1341 213 1159 525 
L 1159 0 
L 581 0 
L 581 4863 
L 1159 4863 
L 1159 2969 
z
" transform="scale(0.015625)"/>
      </defs>
      <use xlink:href="#DejaVuSans-66"/>
      <use xlink:href="#DejaVuSans-75" x="35.205078"/>
      <use xlink:href="#DejaVuSans-7a" x="98.583984"/>
      <use xlink:href="#DejaVuSans-7a" x="151.074219"/>
      <use xlink:href="#DejaVuSans-65" x="203.564453"/>
      <use xlink:href="#DejaVuSans-72" x="265.087891"/>
      <use xlink:href="#DejaVuSans-5f" x="306.201172"/>
      <use xlink:href="#DejaVuSans-67" x="356.201172"/>
      <use xlink:href="#DejaVuSans-6c" x="419.677734"/>
      <use xlink:href="#DejaVuSans-6f" x="447.460938"/>
      <use xlink:href="#DejaVuSans-62" x="508.642578"/>
      <use xlink:href="#DejaVuSans-61" x="572.119141"/>
      <use xlink:href="#DejaVuSans-6c" x="633.398438"/>
     </g>
    </g>
   </g>
  </g>
 </g>
 <defs>
  <clipPath id="p98b748868c">
   <rect x="54.3375" y="69.12" width="336.8925" height="443.52"/>
  </clipPath>
 </defs>
</svg>
