<?xml version="1.0" encoding="utf-8" standalone="no"?>
<!DOCTYPE svg PUBLIC "-//W3C//DTD SVG 1.1//EN"
  "http://www.w3.org/Graphics/SVG/1.1/DTD/svg11.dtd">
<svg xmlns:xlink="http://www.w3.org/1999/xlink" width="434.7pt" height="576pt" viewBox="0 0 434.7 576" xmlns="http://www.w3.org/2000/svg" version="1.1">
 <metadata>
  <rdf:RDF xmlns:dc="http://purl.org/dc/elements/1.1/" xmlns:cc="http://creativecommons.org/ns#" xmlns:rdf="http://www.w3.org/1999/02/22-rdf-syntax-ns#">
   <cc:Work>
    <dc:type rdf:resource="http://purl.org/dc/dcmitype/StillImage"/>
    <dc:date>2022-09-15T09:49:17.455884</dc:date>
    <dc:format>image/svg+xml</dc:format>
    <dc:creator>
     <cc:Agent>
      <dc:title>Matplotlib v3.5.3, https://matplotlib.org/</dc:title>
     </cc:Agent>
    </dc:creator>
   </cc:Work>
  </rdf:RDF>
 </metadata>
 <defs>
  <style type="text/css">*{stroke-linejoin: round; stroke-linecap: butt}</style>
 </defs>
 <g id="figure_1">
  <g id="patch_1">
   <path d="M 0 576 
L 434.7 576 
L 434.7 0 
L 0 0 
z
" style="fill: #ffffff"/>
  </g>
  <g id="axes_1">
   <g id="patch_2">
    <path d="M 54.3375 512.64 
L 391.23 512.64 
L 391.23 69.12 
L 54.3375 69.12 
z
" style="fill: #ffffff"/>
   </g>
   <g id="matplotlib.axis_1">
    <g id="xtick_1">
     <g id="line2d_1">
      <path d="M 69.650795 512.64 
L 69.650795 69.12 
" clip-path="url(#p7a89953619)" style="fill: none; stroke: #cccccc; stroke-width: 0.8; stroke-linecap: round"/>
     </g>
     <g id="text_1">
      <!-- 0 -->
      <g style="fill: #262626" transform="translate(69.388282 529.627249)rotate(-45)scale(0.088 -0.088)">
       <defs>
        <path id="DejaVuSans-30" d="M 2034 4250 
Q 1547 4250 1301 3770 
Q 1056 3291 1056 2328 
Q 1056 1369 1301 889 
Q 1547 409 2034 409 
Q 2525 409 2770 889 
Q 3016 1369 3016 2328 
Q 3016 3291 2770 3770 
Q 2525 4250 2034 4250 
z
M 2034 4750 
Q 2819 4750 3233 4129 
Q 3647 3509 3647 2328 
Q 3647 1150 3233 529 
Q 2819 -91 2034 -91 
Q 1250 -91 836 529 
Q 422 1150 422 2328 
Q 422 3509 836 4129 
Q 1250 4750 2034 4750 
z
" transform="scale(0.015625)"/>
       </defs>
       <use xlink:href="#DejaVuSans-30"/>
      </g>
     </g>
    </g>
    <g id="xtick_2">
     <g id="line2d_2">
      <path d="M 86.677392 512.64 
L 86.677392 69.12 
" clip-path="url(#p7a89953619)" style="fill: none; stroke: #cccccc; stroke-width: 0.8; stroke-linecap: round"/>
     </g>
     <g id="text_2">
      <!-- 80 -->
      <g style="fill: #262626" transform="translate(84.435333 533.58634)rotate(-45)scale(0.088 -0.088)">
       <defs>
        <path id="DejaVuSans-38" d="M 2034 2216 
Q 1584 2216 1326 1975 
Q 1069 1734 1069 1313 
Q 1069 891 1326 650 
Q 1584 409 2034 409 
Q 2484 409 2743 651 
Q 3003 894 3003 1313 
Q 3003 1734 2745 1975 
Q 2488 2216 2034 2216 
z
M 1403 2484 
Q 997 2584 770 2862 
Q 544 3141 544 3541 
Q 544 4100 942 4425 
Q 1341 4750 2034 4750 
Q 2731 4750 3128 4425 
Q 3525 4100 3525 3541 
Q 3525 3141 3298 2862 
Q 3072 2584 2669 2484 
Q 3125 2378 3379 2068 
Q 3634 1759 3634 1313 
Q 3634 634 3220 271 
Q 2806 -91 2034 -91 
Q 1263 -91 848 271 
Q 434 634 434 1313 
Q 434 1759 690 2068 
Q 947 2378 1403 2484 
z
M 1172 3481 
Q 1172 3119 1398 2916 
Q 1625 2713 2034 2713 
Q 2441 2713 2670 2916 
Q 2900 3119 2900 3481 
Q 2900 3844 2670 4047 
Q 2441 4250 2034 4250 
Q 1625 4250 1398 4047 
Q 1172 3844 1172 3481 
z
" transform="scale(0.015625)"/>
       </defs>
       <use xlink:href="#DejaVuSans-38"/>
       <use xlink:href="#DejaVuSans-30" x="63.623047"/>
      </g>
     </g>
    </g>
    <g id="xtick_3">
     <g id="line2d_3">
      <path d="M 103.703989 512.64 
L 103.703989 69.12 
" clip-path="url(#p7a89953619)" style="fill: none; stroke: #cccccc; stroke-width: 0.8; stroke-linecap: round"/>
     </g>
     <g id="text_3">
      <!-- 160 -->
      <g style="fill: #262626" transform="translate(99.482385 537.54543)rotate(-45)scale(0.088 -0.088)">
       <defs>
        <path id="DejaVuSans-31" d="M 794 531 
L 1825 531 
L 1825 4091 
L 703 3866 
L 703 4441 
L 1819 4666 
L 2450 4666 
L 2450 531 
L 3481 531 
L 3481 0 
L 794 0 
L 794 531 
z
" transform="scale(0.015625)"/>
        <path id="DejaVuSans-36" d="M 2113 2584 
Q 1688 2584 1439 2293 
Q 1191 2003 1191 1497 
Q 1191 994 1439 701 
Q 1688 409 2113 409 
Q 2538 409 2786 701 
Q 3034 994 3034 1497 
Q 3034 2003 2786 2293 
Q 2538 2584 2113 2584 
z
M 3366 4563 
L 3366 3988 
Q 3128 4100 2886 4159 
Q 2644 4219 2406 4219 
Q 1781 4219 1451 3797 
Q 1122 3375 1075 2522 
Q 1259 2794 1537 2939 
Q 1816 3084 2150 3084 
Q 2853 3084 3261 2657 
Q 3669 2231 3669 1497 
Q 3669 778 3244 343 
Q 2819 -91 2113 -91 
Q 1303 -91 875 529 
Q 447 1150 447 2328 
Q 447 3434 972 4092 
Q 1497 4750 2381 4750 
Q 2619 4750 2861 4703 
Q 3103 4656 3366 4563 
z
" transform="scale(0.015625)"/>
       </defs>
       <use xlink:href="#DejaVuSans-31"/>
       <use xlink:href="#DejaVuSans-36" x="63.623047"/>
       <use xlink:href="#DejaVuSans-30" x="127.246094"/>
      </g>
     </g>
    </g>
    <g id="xtick_4">
     <g id="line2d_4">
      <path d="M 120.730586 512.64 
L 120.730586 69.12 
" clip-path="url(#p7a89953619)" style="fill: none; stroke: #cccccc; stroke-width: 0.8; stroke-linecap: round"/>
     </g>
     <g id="text_4">
      <!-- 240 -->
      <g style="fill: #262626" transform="translate(116.508981 537.54543)rotate(-45)scale(0.088 -0.088)">
       <defs>
        <path id="DejaVuSans-32" d="M 1228 531 
L 3431 531 
L 3431 0 
L 469 0 
L 469 531 
Q 828 903 1448 1529 
Q 2069 2156 2228 2338 
Q 2531 2678 2651 2914 
Q 2772 3150 2772 3378 
Q 2772 3750 2511 3984 
Q 2250 4219 1831 4219 
Q 1534 4219 1204 4116 
Q 875 4013 500 3803 
L 500 4441 
Q 881 4594 1212 4672 
Q 1544 4750 1819 4750 
Q 2544 4750 2975 4387 
Q 3406 4025 3406 3419 
Q 3406 3131 3298 2873 
Q 3191 2616 2906 2266 
Q 2828 2175 2409 1742 
Q 1991 1309 1228 531 
z
" transform="scale(0.015625)"/>
        <path id="DejaVuSans-34" d="M 2419 4116 
L 825 1625 
L 2419 1625 
L 2419 4116 
z
M 2253 4666 
L 3047 4666 
L 3047 1625 
L 3713 1625 
L 3713 1100 
L 3047 1100 
L 3047 0 
L 2419 0 
L 2419 1100 
L 313 1100 
L 313 1709 
L 2253 4666 
z
" transform="scale(0.015625)"/>
       </defs>
       <use xlink:href="#DejaVuSans-32"/>
       <use xlink:href="#DejaVuSans-34" x="63.623047"/>
       <use xlink:href="#DejaVuSans-30" x="127.246094"/>
      </g>
     </g>
    </g>
    <g id="xtick_5">
     <g id="line2d_5">
      <path d="M 137.757182 512.64 
L 137.757182 69.12 
" clip-path="url(#p7a89953619)" style="fill: none; stroke: #cccccc; stroke-width: 0.8; stroke-linecap: round"/>
     </g>
     <g id="text_5">
      <!-- 320 -->
      <g style="fill: #262626" transform="translate(133.535578 537.54543)rotate(-45)scale(0.088 -0.088)">
       <defs>
        <path id="DejaVuSans-33" d="M 2597 2516 
Q 3050 2419 3304 2112 
Q 3559 1806 3559 1356 
Q 3559 666 3084 287 
Q 2609 -91 1734 -91 
Q 1441 -91 1130 -33 
Q 819 25 488 141 
L 488 750 
Q 750 597 1062 519 
Q 1375 441 1716 441 
Q 2309 441 2620 675 
Q 2931 909 2931 1356 
Q 2931 1769 2642 2001 
Q 2353 2234 1838 2234 
L 1294 2234 
L 1294 2753 
L 1863 2753 
Q 2328 2753 2575 2939 
Q 2822 3125 2822 3475 
Q 2822 3834 2567 4026 
Q 2313 4219 1838 4219 
Q 1578 4219 1281 4162 
Q 984 4106 628 3988 
L 628 4550 
Q 988 4650 1302 4700 
Q 1616 4750 1894 4750 
Q 2613 4750 3031 4423 
Q 3450 4097 3450 3541 
Q 3450 3153 3228 2886 
Q 3006 2619 2597 2516 
z
" transform="scale(0.015625)"/>
       </defs>
       <use xlink:href="#DejaVuSans-33"/>
       <use xlink:href="#DejaVuSans-32" x="63.623047"/>
       <use xlink:href="#DejaVuSans-30" x="127.246094"/>
      </g>
     </g>
    </g>
    <g id="xtick_6">
     <g id="line2d_6">
      <path d="M 154.783779 512.64 
L 154.783779 69.12 
" clip-path="url(#p7a89953619)" style="fill: none; stroke: #cccccc; stroke-width: 0.8; stroke-linecap: round"/>
     </g>
     <g id="text_6">
      <!-- 400 -->
      <g style="fill: #262626" transform="translate(150.562175 537.54543)rotate(-45)scale(0.088 -0.088)">
       <use xlink:href="#DejaVuSans-34"/>
       <use xlink:href="#DejaVuSans-30" x="63.623047"/>
       <use xlink:href="#DejaVuSans-30" x="127.246094"/>
      </g>
     </g>
    </g>
    <g id="xtick_7">
     <g id="line2d_7">
      <path d="M 171.810376 512.64 
L 171.810376 69.12 
" clip-path="url(#p7a89953619)" style="fill: none; stroke: #cccccc; stroke-width: 0.8; stroke-linecap: round"/>
     </g>
     <g id="text_7">
      <!-- 480 -->
      <g style="fill: #262626" transform="translate(167.588772 537.54543)rotate(-45)scale(0.088 -0.088)">
       <use xlink:href="#DejaVuSans-34"/>
       <use xlink:href="#DejaVuSans-38" x="63.623047"/>
       <use xlink:href="#DejaVuSans-30" x="127.246094"/>
      </g>
     </g>
    </g>
    <g id="xtick_8">
     <g id="line2d_8">
      <path d="M 188.836973 512.64 
L 188.836973 69.12 
" clip-path="url(#p7a89953619)" style="fill: none; stroke: #cccccc; stroke-width: 0.8; stroke-linecap: round"/>
     </g>
     <g id="text_8">
      <!-- 560 -->
      <g style="fill: #262626" transform="translate(184.615368 537.54543)rotate(-45)scale(0.088 -0.088)">
       <defs>
        <path id="DejaVuSans-35" d="M 691 4666 
L 3169 4666 
L 3169 4134 
L 1269 4134 
L 1269 2991 
Q 1406 3038 1543 3061 
Q 1681 3084 1819 3084 
Q 2600 3084 3056 2656 
Q 3513 2228 3513 1497 
Q 3513 744 3044 326 
Q 2575 -91 1722 -91 
Q 1428 -91 1123 -41 
Q 819 9 494 109 
L 494 744 
Q 775 591 1075 516 
Q 1375 441 1709 441 
Q 2250 441 2565 725 
Q 2881 1009 2881 1497 
Q 2881 1984 2565 2268 
Q 2250 2553 1709 2553 
Q 1456 2553 1204 2497 
Q 953 2441 691 2322 
L 691 4666 
z
" transform="scale(0.015625)"/>
       </defs>
       <use xlink:href="#DejaVuSans-35"/>
       <use xlink:href="#DejaVuSans-36" x="63.623047"/>
       <use xlink:href="#DejaVuSans-30" x="127.246094"/>
      </g>
     </g>
    </g>
    <g id="xtick_9">
     <g id="line2d_9">
      <path d="M 205.863569 512.64 
L 205.863569 69.12 
" clip-path="url(#p7a89953619)" style="fill: none; stroke: #cccccc; stroke-width: 0.8; stroke-linecap: round"/>
     </g>
     <g id="text_9">
      <!-- 640 -->
      <g style="fill: #262626" transform="translate(201.641965 537.54543)rotate(-45)scale(0.088 -0.088)">
       <use xlink:href="#DejaVuSans-36"/>
       <use xlink:href="#DejaVuSans-34" x="63.623047"/>
       <use xlink:href="#DejaVuSans-30" x="127.246094"/>
      </g>
     </g>
    </g>
    <g id="xtick_10">
     <g id="line2d_10">
      <path d="M 222.890166 512.64 
L 222.890166 69.12 
" clip-path="url(#p7a89953619)" style="fill: none; stroke: #cccccc; stroke-width: 0.8; stroke-linecap: round"/>
     </g>
     <g id="text_10">
      <!-- 720 -->
      <g style="fill: #262626" transform="translate(218.668562 537.54543)rotate(-45)scale(0.088 -0.088)">
       <defs>
        <path id="DejaVuSans-37" d="M 525 4666 
L 3525 4666 
L 3525 4397 
L 1831 0 
L 1172 0 
L 2766 4134 
L 525 4134 
L 525 4666 
z
" transform="scale(0.015625)"/>
       </defs>
       <use xlink:href="#DejaVuSans-37"/>
       <use xlink:href="#DejaVuSans-32" x="63.623047"/>
       <use xlink:href="#DejaVuSans-30" x="127.246094"/>
      </g>
     </g>
    </g>
    <g id="xtick_11">
     <g id="line2d_11">
      <path d="M 239.916763 512.64 
L 239.916763 69.12 
" clip-path="url(#p7a89953619)" style="fill: none; stroke: #cccccc; stroke-width: 0.8; stroke-linecap: round"/>
     </g>
     <g id="text_11">
      <!-- 800 -->
      <g style="fill: #262626" transform="translate(235.695159 537.54543)rotate(-45)scale(0.088 -0.088)">
       <use xlink:href="#DejaVuSans-38"/>
       <use xlink:href="#DejaVuSans-30" x="63.623047"/>
       <use xlink:href="#DejaVuSans-30" x="127.246094"/>
      </g>
     </g>
    </g>
    <g id="xtick_12">
     <g id="line2d_12">
      <path d="M 256.94336 512.64 
L 256.94336 69.12 
" clip-path="url(#p7a89953619)" style="fill: none; stroke: #cccccc; stroke-width: 0.8; stroke-linecap: round"/>
     </g>
     <g id="text_12">
      <!-- 880 -->
      <g style="fill: #262626" transform="translate(252.721755 537.54543)rotate(-45)scale(0.088 -0.088)">
       <use xlink:href="#DejaVuSans-38"/>
       <use xlink:href="#DejaVuSans-38" x="63.623047"/>
       <use xlink:href="#DejaVuSans-30" x="127.246094"/>
      </g>
     </g>
    </g>
    <g id="xtick_13">
     <g id="line2d_13">
      <path d="M 273.969956 512.64 
L 273.969956 69.12 
" clip-path="url(#p7a89953619)" style="fill: none; stroke: #cccccc; stroke-width: 0.8; stroke-linecap: round"/>
     </g>
     <g id="text_13">
      <!-- 960 -->
      <g style="fill: #262626" transform="translate(269.748352 537.54543)rotate(-45)scale(0.088 -0.088)">
       <defs>
        <path id="DejaVuSans-39" d="M 703 97 
L 703 672 
Q 941 559 1184 500 
Q 1428 441 1663 441 
Q 2288 441 2617 861 
Q 2947 1281 2994 2138 
Q 2813 1869 2534 1725 
Q 2256 1581 1919 1581 
Q 1219 1581 811 2004 
Q 403 2428 403 3163 
Q 403 3881 828 4315 
Q 1253 4750 1959 4750 
Q 2769 4750 3195 4129 
Q 3622 3509 3622 2328 
Q 3622 1225 3098 567 
Q 2575 -91 1691 -91 
Q 1453 -91 1209 -44 
Q 966 3 703 97 
z
M 1959 2075 
Q 2384 2075 2632 2365 
Q 2881 2656 2881 3163 
Q 2881 3666 2632 3958 
Q 2384 4250 1959 4250 
Q 1534 4250 1286 3958 
Q 1038 3666 1038 3163 
Q 1038 2656 1286 2365 
Q 1534 2075 1959 2075 
z
" transform="scale(0.015625)"/>
       </defs>
       <use xlink:href="#DejaVuSans-39"/>
       <use xlink:href="#DejaVuSans-36" x="63.623047"/>
       <use xlink:href="#DejaVuSans-30" x="127.246094"/>
      </g>
     </g>
    </g>
    <g id="xtick_14">
     <g id="line2d_14">
      <path d="M 290.996553 512.64 
L 290.996553 69.12 
" clip-path="url(#p7a89953619)" style="fill: none; stroke: #cccccc; stroke-width: 0.8; stroke-linecap: round"/>
     </g>
     <g id="text_14">
      <!-- 1040 -->
      <g style="fill: #262626" transform="translate(284.795404 541.504521)rotate(-45)scale(0.088 -0.088)">
       <use xlink:href="#DejaVuSans-31"/>
       <use xlink:href="#DejaVuSans-30" x="63.623047"/>
       <use xlink:href="#DejaVuSans-34" x="127.246094"/>
       <use xlink:href="#DejaVuSans-30" x="190.869141"/>
      </g>
     </g>
    </g>
    <g id="xtick_15">
     <g id="line2d_15">
      <path d="M 308.02315 512.64 
L 308.02315 69.12 
" clip-path="url(#p7a89953619)" style="fill: none; stroke: #cccccc; stroke-width: 0.8; stroke-linecap: round"/>
     </g>
     <g id="text_15">
      <!-- 1120 -->
      <g style="fill: #262626" transform="translate(301.822 541.504521)rotate(-45)scale(0.088 -0.088)">
       <use xlink:href="#DejaVuSans-31"/>
       <use xlink:href="#DejaVuSans-31" x="63.623047"/>
       <use xlink:href="#DejaVuSans-32" x="127.246094"/>
       <use xlink:href="#DejaVuSans-30" x="190.869141"/>
      </g>
     </g>
    </g>
    <g id="xtick_16">
     <g id="line2d_16">
      <path d="M 325.049747 512.64 
L 325.049747 69.12 
" clip-path="url(#p7a89953619)" style="fill: none; stroke: #cccccc; stroke-width: 0.8; stroke-linecap: round"/>
     </g>
     <g id="text_16">
      <!-- 1200 -->
      <g style="fill: #262626" transform="translate(318.848597 541.504521)rotate(-45)scale(0.088 -0.088)">
       <use xlink:href="#DejaVuSans-31"/>
       <use xlink:href="#DejaVuSans-32" x="63.623047"/>
       <use xlink:href="#DejaVuSans-30" x="127.246094"/>
       <use xlink:href="#DejaVuSans-30" x="190.869141"/>
      </g>
     </g>
    </g>
    <g id="xtick_17">
     <g id="line2d_17">
      <path d="M 342.076343 512.64 
L 342.076343 69.12 
" clip-path="url(#p7a89953619)" style="fill: none; stroke: #cccccc; stroke-width: 0.8; stroke-linecap: round"/>
     </g>
     <g id="text_17">
      <!-- 1280 -->
      <g style="fill: #262626" transform="translate(335.875194 541.504521)rotate(-45)scale(0.088 -0.088)">
       <use xlink:href="#DejaVuSans-31"/>
       <use xlink:href="#DejaVuSans-32" x="63.623047"/>
       <use xlink:href="#DejaVuSans-38" x="127.246094"/>
       <use xlink:href="#DejaVuSans-30" x="190.869141"/>
      </g>
     </g>
    </g>
    <g id="xtick_18">
     <g id="line2d_18">
      <path d="M 359.10294 512.64 
L 359.10294 69.12 
" clip-path="url(#p7a89953619)" style="fill: none; stroke: #cccccc; stroke-width: 0.8; stroke-linecap: round"/>
     </g>
     <g id="text_18">
      <!-- 1360 -->
      <g style="fill: #262626" transform="translate(352.901791 541.504521)rotate(-45)scale(0.088 -0.088)">
       <use xlink:href="#DejaVuSans-31"/>
       <use xlink:href="#DejaVuSans-33" x="63.623047"/>
       <use xlink:href="#DejaVuSans-36" x="127.246094"/>
       <use xlink:href="#DejaVuSans-30" x="190.869141"/>
      </g>
     </g>
    </g>
    <g id="xtick_19">
     <g id="line2d_19">
      <path d="M 376.129537 512.64 
L 376.129537 69.12 
" clip-path="url(#p7a89953619)" style="fill: none; stroke: #cccccc; stroke-width: 0.8; stroke-linecap: round"/>
     </g>
     <g id="text_19">
      <!-- 1440 -->
      <g style="fill: #262626" transform="translate(369.928387 541.504521)rotate(-45)scale(0.088 -0.088)">
       <use xlink:href="#DejaVuSans-31"/>
       <use xlink:href="#DejaVuSans-34" x="63.623047"/>
       <use xlink:href="#DejaVuSans-34" x="127.246094"/>
       <use xlink:href="#DejaVuSans-30" x="190.869141"/>
      </g>
     </g>
    </g>
    <g id="text_20">
     <!-- Time (Minutes) -->
     <g style="fill: #262626" transform="translate(186.87375 554.093115)scale(0.096 -0.096)">
      <defs>
       <path id="DejaVuSans-54" d="M -19 4666 
L 3928 4666 
L 3928 4134 
L 2272 4134 
L 2272 0 
L 1638 0 
L 1638 4134 
L -19 4134 
L -19 4666 
z
" transform="scale(0.015625)"/>
       <path id="DejaVuSans-69" d="M 603 3500 
L 1178 3500 
L 1178 0 
L 603 0 
L 603 3500 
z
M 603 4863 
L 1178 4863 
L 1178 4134 
L 603 4134 
L 603 4863 
z
" transform="scale(0.015625)"/>
       <path id="DejaVuSans-6d" d="M 3328 2828 
Q 3544 3216 3844 3400 
Q 4144 3584 4550 3584 
Q 5097 3584 5394 3201 
Q 5691 2819 5691 2113 
L 5691 0 
L 5113 0 
L 5113 2094 
Q 5113 2597 4934 2840 
Q 4756 3084 4391 3084 
Q 3944 3084 3684 2787 
Q 3425 2491 3425 1978 
L 3425 0 
L 2847 0 
L 2847 2094 
Q 2847 2600 2669 2842 
Q 2491 3084 2119 3084 
Q 1678 3084 1418 2786 
Q 1159 2488 1159 1978 
L 1159 0 
L 581 0 
L 581 3500 
L 1159 3500 
L 1159 2956 
Q 1356 3278 1631 3431 
Q 1906 3584 2284 3584 
Q 2666 3584 2933 3390 
Q 3200 3197 3328 2828 
z
" transform="scale(0.015625)"/>
       <path id="DejaVuSans-65" d="M 3597 1894 
L 3597 1613 
L 953 1613 
Q 991 1019 1311 708 
Q 1631 397 2203 397 
Q 2534 397 2845 478 
Q 3156 559 3463 722 
L 3463 178 
Q 3153 47 2828 -22 
Q 2503 -91 2169 -91 
Q 1331 -91 842 396 
Q 353 884 353 1716 
Q 353 2575 817 3079 
Q 1281 3584 2069 3584 
Q 2775 3584 3186 3129 
Q 3597 2675 3597 1894 
z
M 3022 2063 
Q 3016 2534 2758 2815 
Q 2500 3097 2075 3097 
Q 1594 3097 1305 2825 
Q 1016 2553 972 2059 
L 3022 2063 
z
" transform="scale(0.015625)"/>
       <path id="DejaVuSans-20" transform="scale(0.015625)"/>
       <path id="DejaVuSans-28" d="M 1984 4856 
Q 1566 4138 1362 3434 
Q 1159 2731 1159 2009 
Q 1159 1288 1364 580 
Q 1569 -128 1984 -844 
L 1484 -844 
Q 1016 -109 783 600 
Q 550 1309 550 2009 
Q 550 2706 781 3412 
Q 1013 4119 1484 4856 
L 1984 4856 
z
" transform="scale(0.015625)"/>
       <path id="DejaVuSans-4d" d="M 628 4666 
L 1569 4666 
L 2759 1491 
L 3956 4666 
L 4897 4666 
L 4897 0 
L 4281 0 
L 4281 4097 
L 3078 897 
L 2444 897 
L 1241 4097 
L 1241 0 
L 628 0 
L 628 4666 
z
" transform="scale(0.015625)"/>
       <path id="DejaVuSans-6e" d="M 3513 2113 
L 3513 0 
L 2938 0 
L 2938 2094 
Q 2938 2591 2744 2837 
Q 2550 3084 2163 3084 
Q 1697 3084 1428 2787 
Q 1159 2491 1159 1978 
L 1159 0 
L 581 0 
L 581 3500 
L 1159 3500 
L 1159 2956 
Q 1366 3272 1645 3428 
Q 1925 3584 2291 3584 
Q 2894 3584 3203 3211 
Q 3513 2838 3513 2113 
z
" transform="scale(0.015625)"/>
       <path id="DejaVuSans-75" d="M 544 1381 
L 544 3500 
L 1119 3500 
L 1119 1403 
Q 1119 906 1312 657 
Q 1506 409 1894 409 
Q 2359 409 2629 706 
Q 2900 1003 2900 1516 
L 2900 3500 
L 3475 3500 
L 3475 0 
L 2900 0 
L 2900 538 
Q 2691 219 2414 64 
Q 2138 -91 1772 -91 
Q 1169 -91 856 284 
Q 544 659 544 1381 
z
M 1991 3584 
L 1991 3584 
z
" transform="scale(0.015625)"/>
       <path id="DejaVuSans-74" d="M 1172 4494 
L 1172 3500 
L 2356 3500 
L 2356 3053 
L 1172 3053 
L 1172 1153 
Q 1172 725 1289 603 
Q 1406 481 1766 481 
L 2356 481 
L 2356 0 
L 1766 0 
Q 1100 0 847 248 
Q 594 497 594 1153 
L 594 3053 
L 172 3053 
L 172 3500 
L 594 3500 
L 594 4494 
L 1172 4494 
z
" transform="scale(0.015625)"/>
       <path id="DejaVuSans-73" d="M 2834 3397 
L 2834 2853 
Q 2591 2978 2328 3040 
Q 2066 3103 1784 3103 
Q 1356 3103 1142 2972 
Q 928 2841 928 2578 
Q 928 2378 1081 2264 
Q 1234 2150 1697 2047 
L 1894 2003 
Q 2506 1872 2764 1633 
Q 3022 1394 3022 966 
Q 3022 478 2636 193 
Q 2250 -91 1575 -91 
Q 1294 -91 989 -36 
Q 684 19 347 128 
L 347 722 
Q 666 556 975 473 
Q 1284 391 1588 391 
Q 1994 391 2212 530 
Q 2431 669 2431 922 
Q 2431 1156 2273 1281 
Q 2116 1406 1581 1522 
L 1381 1569 
Q 847 1681 609 1914 
Q 372 2147 372 2553 
Q 372 3047 722 3315 
Q 1072 3584 1716 3584 
Q 2034 3584 2315 3537 
Q 2597 3491 2834 3397 
z
" transform="scale(0.015625)"/>
       <path id="DejaVuSans-29" d="M 513 4856 
L 1013 4856 
Q 1481 4119 1714 3412 
Q 1947 2706 1947 2009 
Q 1947 1309 1714 600 
Q 1481 -109 1013 -844 
L 513 -844 
Q 928 -128 1133 580 
Q 1338 1288 1338 2009 
Q 1338 2731 1133 3434 
Q 928 4138 513 4856 
z
" transform="scale(0.015625)"/>
      </defs>
      <use xlink:href="#DejaVuSans-54"/>
      <use xlink:href="#DejaVuSans-69" x="57.958984"/>
      <use xlink:href="#DejaVuSans-6d" x="85.742188"/>
      <use xlink:href="#DejaVuSans-65" x="183.154297"/>
      <use xlink:href="#DejaVuSans-20" x="244.677734"/>
      <use xlink:href="#DejaVuSans-28" x="276.464844"/>
      <use xlink:href="#DejaVuSans-4d" x="315.478516"/>
      <use xlink:href="#DejaVuSans-69" x="401.757812"/>
      <use xlink:href="#DejaVuSans-6e" x="429.541016"/>
      <use xlink:href="#DejaVuSans-75" x="492.919922"/>
      <use xlink:href="#DejaVuSans-74" x="556.298828"/>
      <use xlink:href="#DejaVuSans-65" x="595.507812"/>
      <use xlink:href="#DejaVuSans-73" x="657.03125"/>
      <use xlink:href="#DejaVuSans-29" x="709.130859"/>
     </g>
    </g>
   </g>
   <g id="matplotlib.axis_2">
    <g id="ytick_1">
     <g id="line2d_20">
      <path d="M 54.3375 492.48 
L 391.23 492.48 
" clip-path="url(#p7a89953619)" style="fill: none; stroke: #cccccc; stroke-width: 0.8; stroke-linecap: round"/>
     </g>
     <g id="text_21">
      <!-- 0 -->
      <g style="fill: #262626" transform="translate(40.4385 495.823312)scale(0.088 -0.088)">
       <use xlink:href="#DejaVuSans-30"/>
      </g>
     </g>
    </g>
    <g id="ytick_2">
     <g id="line2d_21">
      <path d="M 54.3375 466.057982 
L 391.23 466.057982 
" clip-path="url(#p7a89953619)" style="fill: none; stroke: #cccccc; stroke-width: 0.8; stroke-linecap: round"/>
     </g>
     <g id="text_22">
      <!-- 100 -->
      <g style="fill: #262626" transform="translate(29.2405 469.401294)scale(0.088 -0.088)">
       <use xlink:href="#DejaVuSans-31"/>
       <use xlink:href="#DejaVuSans-30" x="63.623047"/>
       <use xlink:href="#DejaVuSans-30" x="127.246094"/>
      </g>
     </g>
    </g>
    <g id="ytick_3">
     <g id="line2d_22">
      <path d="M 54.3375 439.635963 
L 391.23 439.635963 
" clip-path="url(#p7a89953619)" style="fill: none; stroke: #cccccc; stroke-width: 0.8; stroke-linecap: round"/>
     </g>
     <g id="text_23">
      <!-- 200 -->
      <g style="fill: #262626" transform="translate(29.2405 442.979276)scale(0.088 -0.088)">
       <use xlink:href="#DejaVuSans-32"/>
       <use xlink:href="#DejaVuSans-30" x="63.623047"/>
       <use xlink:href="#DejaVuSans-30" x="127.246094"/>
      </g>
     </g>
    </g>
    <g id="ytick_4">
     <g id="line2d_23">
      <path d="M 54.3375 413.213945 
L 391.23 413.213945 
" clip-path="url(#p7a89953619)" style="fill: none; stroke: #cccccc; stroke-width: 0.8; stroke-linecap: round"/>
     </g>
     <g id="text_24">
      <!-- 300 -->
      <g style="fill: #262626" transform="translate(29.2405 416.557257)scale(0.088 -0.088)">
       <use xlink:href="#DejaVuSans-33"/>
       <use xlink:href="#DejaVuSans-30" x="63.623047"/>
       <use xlink:href="#DejaVuSans-30" x="127.246094"/>
      </g>
     </g>
    </g>
    <g id="ytick_5">
     <g id="line2d_24">
      <path d="M 54.3375 386.791927 
L 391.23 386.791927 
" clip-path="url(#p7a89953619)" style="fill: none; stroke: #cccccc; stroke-width: 0.8; stroke-linecap: round"/>
     </g>
     <g id="text_25">
      <!-- 400 -->
      <g style="fill: #262626" transform="translate(29.2405 390.135239)scale(0.088 -0.088)">
       <use xlink:href="#DejaVuSans-34"/>
       <use xlink:href="#DejaVuSans-30" x="63.623047"/>
       <use xlink:href="#DejaVuSans-30" x="127.246094"/>
      </g>
     </g>
    </g>
    <g id="ytick_6">
     <g id="line2d_25">
      <path d="M 54.3375 360.369908 
L 391.23 360.369908 
" clip-path="url(#p7a89953619)" style="fill: none; stroke: #cccccc; stroke-width: 0.8; stroke-linecap: round"/>
     </g>
     <g id="text_26">
      <!-- 500 -->
      <g style="fill: #262626" transform="translate(29.2405 363.713221)scale(0.088 -0.088)">
       <use xlink:href="#DejaVuSans-35"/>
       <use xlink:href="#DejaVuSans-30" x="63.623047"/>
       <use xlink:href="#DejaVuSans-30" x="127.246094"/>
      </g>
     </g>
    </g>
    <g id="ytick_7">
     <g id="line2d_26">
      <path d="M 54.3375 333.94789 
L 391.23 333.94789 
" clip-path="url(#p7a89953619)" style="fill: none; stroke: #cccccc; stroke-width: 0.8; stroke-linecap: round"/>
     </g>
     <g id="text_27">
      <!-- 600 -->
      <g style="fill: #262626" transform="translate(29.2405 337.291202)scale(0.088 -0.088)">
       <use xlink:href="#DejaVuSans-36"/>
       <use xlink:href="#DejaVuSans-30" x="63.623047"/>
       <use xlink:href="#DejaVuSans-30" x="127.246094"/>
      </g>
     </g>
    </g>
    <g id="ytick_8">
     <g id="line2d_27">
      <path d="M 54.3375 307.525872 
L 391.23 307.525872 
" clip-path="url(#p7a89953619)" style="fill: none; stroke: #cccccc; stroke-width: 0.8; stroke-linecap: round"/>
     </g>
     <g id="text_28">
      <!-- 700 -->
      <g style="fill: #262626" transform="translate(29.2405 310.869184)scale(0.088 -0.088)">
       <use xlink:href="#DejaVuSans-37"/>
       <use xlink:href="#DejaVuSans-30" x="63.623047"/>
       <use xlink:href="#DejaVuSans-30" x="127.246094"/>
      </g>
     </g>
    </g>
    <g id="ytick_9">
     <g id="line2d_28">
      <path d="M 54.3375 281.103853 
L 391.23 281.103853 
" clip-path="url(#p7a89953619)" style="fill: none; stroke: #cccccc; stroke-width: 0.8; stroke-linecap: round"/>
     </g>
     <g id="text_29">
      <!-- 800 -->
      <g style="fill: #262626" transform="translate(29.2405 284.447166)scale(0.088 -0.088)">
       <use xlink:href="#DejaVuSans-38"/>
       <use xlink:href="#DejaVuSans-30" x="63.623047"/>
       <use xlink:href="#DejaVuSans-30" x="127.246094"/>
      </g>
     </g>
    </g>
    <g id="ytick_10">
     <g id="line2d_29">
      <path d="M 54.3375 254.681835 
L 391.23 254.681835 
" clip-path="url(#p7a89953619)" style="fill: none; stroke: #cccccc; stroke-width: 0.8; stroke-linecap: round"/>
     </g>
     <g id="text_30">
      <!-- 900 -->
      <g style="fill: #262626" transform="translate(29.2405 258.025147)scale(0.088 -0.088)">
       <use xlink:href="#DejaVuSans-39"/>
       <use xlink:href="#DejaVuSans-30" x="63.623047"/>
       <use xlink:href="#DejaVuSans-30" x="127.246094"/>
      </g>
     </g>
    </g>
    <g id="ytick_11">
     <g id="line2d_30">
      <path d="M 54.3375 228.259817 
L 391.23 228.259817 
" clip-path="url(#p7a89953619)" style="fill: none; stroke: #cccccc; stroke-width: 0.8; stroke-linecap: round"/>
     </g>
     <g id="text_31">
      <!-- 1000 -->
      <g style="fill: #262626" transform="translate(23.6415 231.603129)scale(0.088 -0.088)">
       <use xlink:href="#DejaVuSans-31"/>
       <use xlink:href="#DejaVuSans-30" x="63.623047"/>
       <use xlink:href="#DejaVuSans-30" x="127.246094"/>
       <use xlink:href="#DejaVuSans-30" x="190.869141"/>
      </g>
     </g>
    </g>
    <g id="ytick_12">
     <g id="line2d_31">
      <path d="M 54.3375 201.837798 
L 391.23 201.837798 
" clip-path="url(#p7a89953619)" style="fill: none; stroke: #cccccc; stroke-width: 0.8; stroke-linecap: round"/>
     </g>
     <g id="text_32">
      <!-- 1100 -->
      <g style="fill: #262626" transform="translate(23.6415 205.181111)scale(0.088 -0.088)">
       <use xlink:href="#DejaVuSans-31"/>
       <use xlink:href="#DejaVuSans-31" x="63.623047"/>
       <use xlink:href="#DejaVuSans-30" x="127.246094"/>
       <use xlink:href="#DejaVuSans-30" x="190.869141"/>
      </g>
     </g>
    </g>
    <g id="ytick_13">
     <g id="line2d_32">
      <path d="M 54.3375 175.41578 
L 391.23 175.41578 
" clip-path="url(#p7a89953619)" style="fill: none; stroke: #cccccc; stroke-width: 0.8; stroke-linecap: round"/>
     </g>
     <g id="text_33">
      <!-- 1200 -->
      <g style="fill: #262626" transform="translate(23.6415 178.759092)scale(0.088 -0.088)">
       <use xlink:href="#DejaVuSans-31"/>
       <use xlink:href="#DejaVuSans-32" x="63.623047"/>
       <use xlink:href="#DejaVuSans-30" x="127.246094"/>
       <use xlink:href="#DejaVuSans-30" x="190.869141"/>
      </g>
     </g>
    </g>
    <g id="ytick_14">
     <g id="line2d_33">
      <path d="M 54.3375 148.993761 
L 391.23 148.993761 
" clip-path="url(#p7a89953619)" style="fill: none; stroke: #cccccc; stroke-width: 0.8; stroke-linecap: round"/>
     </g>
     <g id="text_34">
      <!-- 1300 -->
      <g style="fill: #262626" transform="translate(23.6415 152.337074)scale(0.088 -0.088)">
       <use xlink:href="#DejaVuSans-31"/>
       <use xlink:href="#DejaVuSans-33" x="63.623047"/>
       <use xlink:href="#DejaVuSans-30" x="127.246094"/>
       <use xlink:href="#DejaVuSans-30" x="190.869141"/>
      </g>
     </g>
    </g>
    <g id="ytick_15">
     <g id="line2d_34">
      <path d="M 54.3375 122.571743 
L 391.23 122.571743 
" clip-path="url(#p7a89953619)" style="fill: none; stroke: #cccccc; stroke-width: 0.8; stroke-linecap: round"/>
     </g>
     <g id="text_35">
      <!-- 1400 -->
      <g style="fill: #262626" transform="translate(23.6415 125.915056)scale(0.088 -0.088)">
       <use xlink:href="#DejaVuSans-31"/>
       <use xlink:href="#DejaVuSans-34" x="63.623047"/>
       <use xlink:href="#DejaVuSans-30" x="127.246094"/>
       <use xlink:href="#DejaVuSans-30" x="190.869141"/>
      </g>
     </g>
    </g>
    <g id="ytick_16">
     <g id="line2d_35">
      <path d="M 54.3375 96.149725 
L 391.23 96.149725 
" clip-path="url(#p7a89953619)" style="fill: none; stroke: #cccccc; stroke-width: 0.8; stroke-linecap: round"/>
     </g>
     <g id="text_36">
      <!-- 1500 -->
      <g style="fill: #262626" transform="translate(23.6415 99.493037)scale(0.088 -0.088)">
       <use xlink:href="#DejaVuSans-31"/>
       <use xlink:href="#DejaVuSans-35" x="63.623047"/>
       <use xlink:href="#DejaVuSans-30" x="127.246094"/>
       <use xlink:href="#DejaVuSans-30" x="190.869141"/>
      </g>
     </g>
    </g>
    <g id="text_37">
     <!-- Edge Coverages -->
     <g style="fill: #262626" transform="translate(17.645 329.98575)rotate(-90)scale(0.096 -0.096)">
      <defs>
       <path id="DejaVuSans-45" d="M 628 4666 
L 3578 4666 
L 3578 4134 
L 1259 4134 
L 1259 2753 
L 3481 2753 
L 3481 2222 
L 1259 2222 
L 1259 531 
L 3634 531 
L 3634 0 
L 628 0 
L 628 4666 
z
" transform="scale(0.015625)"/>
       <path id="DejaVuSans-64" d="M 2906 2969 
L 2906 4863 
L 3481 4863 
L 3481 0 
L 2906 0 
L 2906 525 
Q 2725 213 2448 61 
Q 2172 -91 1784 -91 
Q 1150 -91 751 415 
Q 353 922 353 1747 
Q 353 2572 751 3078 
Q 1150 3584 1784 3584 
Q 2172 3584 2448 3432 
Q 2725 3281 2906 2969 
z
M 947 1747 
Q 947 1113 1208 752 
Q 1469 391 1925 391 
Q 2381 391 2643 752 
Q 2906 1113 2906 1747 
Q 2906 2381 2643 2742 
Q 2381 3103 1925 3103 
Q 1469 3103 1208 2742 
Q 947 2381 947 1747 
z
" transform="scale(0.015625)"/>
       <path id="DejaVuSans-67" d="M 2906 1791 
Q 2906 2416 2648 2759 
Q 2391 3103 1925 3103 
Q 1463 3103 1205 2759 
Q 947 2416 947 1791 
Q 947 1169 1205 825 
Q 1463 481 1925 481 
Q 2391 481 2648 825 
Q 2906 1169 2906 1791 
z
M 3481 434 
Q 3481 -459 3084 -895 
Q 2688 -1331 1869 -1331 
Q 1566 -1331 1297 -1286 
Q 1028 -1241 775 -1147 
L 775 -588 
Q 1028 -725 1275 -790 
Q 1522 -856 1778 -856 
Q 2344 -856 2625 -561 
Q 2906 -266 2906 331 
L 2906 616 
Q 2728 306 2450 153 
Q 2172 0 1784 0 
Q 1141 0 747 490 
Q 353 981 353 1791 
Q 353 2603 747 3093 
Q 1141 3584 1784 3584 
Q 2172 3584 2450 3431 
Q 2728 3278 2906 2969 
L 2906 3500 
L 3481 3500 
L 3481 434 
z
" transform="scale(0.015625)"/>
       <path id="DejaVuSans-43" d="M 4122 4306 
L 4122 3641 
Q 3803 3938 3442 4084 
Q 3081 4231 2675 4231 
Q 1875 4231 1450 3742 
Q 1025 3253 1025 2328 
Q 1025 1406 1450 917 
Q 1875 428 2675 428 
Q 3081 428 3442 575 
Q 3803 722 4122 1019 
L 4122 359 
Q 3791 134 3420 21 
Q 3050 -91 2638 -91 
Q 1578 -91 968 557 
Q 359 1206 359 2328 
Q 359 3453 968 4101 
Q 1578 4750 2638 4750 
Q 3056 4750 3426 4639 
Q 3797 4528 4122 4306 
z
" transform="scale(0.015625)"/>
       <path id="DejaVuSans-6f" d="M 1959 3097 
Q 1497 3097 1228 2736 
Q 959 2375 959 1747 
Q 959 1119 1226 758 
Q 1494 397 1959 397 
Q 2419 397 2687 759 
Q 2956 1122 2956 1747 
Q 2956 2369 2687 2733 
Q 2419 3097 1959 3097 
z
M 1959 3584 
Q 2709 3584 3137 3096 
Q 3566 2609 3566 1747 
Q 3566 888 3137 398 
Q 2709 -91 1959 -91 
Q 1206 -91 779 398 
Q 353 888 353 1747 
Q 353 2609 779 3096 
Q 1206 3584 1959 3584 
z
" transform="scale(0.015625)"/>
       <path id="DejaVuSans-76" d="M 191 3500 
L 800 3500 
L 1894 563 
L 2988 3500 
L 3597 3500 
L 2284 0 
L 1503 0 
L 191 3500 
z
" transform="scale(0.015625)"/>
       <path id="DejaVuSans-72" d="M 2631 2963 
Q 2534 3019 2420 3045 
Q 2306 3072 2169 3072 
Q 1681 3072 1420 2755 
Q 1159 2438 1159 1844 
L 1159 0 
L 581 0 
L 581 3500 
L 1159 3500 
L 1159 2956 
Q 1341 3275 1631 3429 
Q 1922 3584 2338 3584 
Q 2397 3584 2469 3576 
Q 2541 3569 2628 3553 
L 2631 2963 
z
" transform="scale(0.015625)"/>
       <path id="DejaVuSans-61" d="M 2194 1759 
Q 1497 1759 1228 1600 
Q 959 1441 959 1056 
Q 959 750 1161 570 
Q 1363 391 1709 391 
Q 2188 391 2477 730 
Q 2766 1069 2766 1631 
L 2766 1759 
L 2194 1759 
z
M 3341 1997 
L 3341 0 
L 2766 0 
L 2766 531 
Q 2569 213 2275 61 
Q 1981 -91 1556 -91 
Q 1019 -91 701 211 
Q 384 513 384 1019 
Q 384 1609 779 1909 
Q 1175 2209 1959 2209 
L 2766 2209 
L 2766 2266 
Q 2766 2663 2505 2880 
Q 2244 3097 1772 3097 
Q 1472 3097 1187 3025 
Q 903 2953 641 2809 
L 641 3341 
Q 956 3463 1253 3523 
Q 1550 3584 1831 3584 
Q 2591 3584 2966 3190 
Q 3341 2797 3341 1997 
z
" transform="scale(0.015625)"/>
      </defs>
      <use xlink:href="#DejaVuSans-45"/>
      <use xlink:href="#DejaVuSans-64" x="63.183594"/>
      <use xlink:href="#DejaVuSans-67" x="126.660156"/>
      <use xlink:href="#DejaVuSans-65" x="190.136719"/>
      <use xlink:href="#DejaVuSans-20" x="251.660156"/>
      <use xlink:href="#DejaVuSans-43" x="283.447266"/>
      <use xlink:href="#DejaVuSans-6f" x="353.271484"/>
      <use xlink:href="#DejaVuSans-76" x="414.453125"/>
      <use xlink:href="#DejaVuSans-65" x="473.632812"/>
      <use xlink:href="#DejaVuSans-72" x="535.15625"/>
      <use xlink:href="#DejaVuSans-61" x="576.269531"/>
      <use xlink:href="#DejaVuSans-67" x="637.548828"/>
      <use xlink:href="#DejaVuSans-65" x="701.025391"/>
      <use xlink:href="#DejaVuSans-73" x="762.548828"/>
     </g>
    </g>
   </g>
   <g id="PolyCollection_1">
    <defs>
     <path id="m32b6481cf2" d="M 69.650795 -90.125505 
L 69.650795 -83.52 
L 69.650795 -90.125505 
L 69.650795 -90.125505 
z
" style="stroke: #db5f57; stroke-opacity: 0.2; stroke-width: 0.8"/>
    </defs>
    <g clip-path="url(#p7a89953619)">
     <use xlink:href="#m32b6481cf2" x="0" y="576" style="fill: #db5f57; fill-opacity: 0.2; stroke: #db5f57; stroke-opacity: 0.2; stroke-width: 0.8"/>
    </g>
   </g>
   <g id="PolyCollection_2">
    <defs>
     <path id="m2efac47ba0" d="M 69.650795 -95.409908 
L 69.650795 -83.52 
L 69.650795 -95.409908 
L 69.650795 -95.409908 
z
" style="stroke: #b9db57; stroke-opacity: 0.2; stroke-width: 0.8"/>
    </defs>
    <g clip-path="url(#p7a89953619)">
     <use xlink:href="#m2efac47ba0" x="0" y="576" style="fill: #b9db57; fill-opacity: 0.2; stroke: #b9db57; stroke-opacity: 0.2; stroke-width: 0.8"/>
    </g>
   </g>
   <g id="PolyCollection_3">
    <defs>
     <path id="m777a5a7225" d="M 69.650795 -88.540183 
L 69.650795 -83.52 
L 69.650795 -88.540183 
L 69.650795 -88.540183 
z
" style="stroke: #57db94; stroke-opacity: 0.2; stroke-width: 0.8"/>
    </defs>
    <g clip-path="url(#p7a89953619)">
     <use xlink:href="#m777a5a7225" x="0" y="576" style="fill: #57db94; fill-opacity: 0.2; stroke: #57db94; stroke-opacity: 0.2; stroke-width: 0.8"/>
    </g>
   </g>
   <g id="PolyCollection_4">
    <defs>
     <path id="m7f21a3d870" d="M 69.650795 -100.430092 
L 69.650795 -83.52 
L 69.650795 -100.430092 
L 69.650795 -100.430092 
z
" style="stroke: #5784db; stroke-opacity: 0.2; stroke-width: 0.8"/>
    </defs>
    <g clip-path="url(#p7a89953619)">
     <use xlink:href="#m7f21a3d870" x="0" y="576" style="fill: #5784db; fill-opacity: 0.2; stroke: #5784db; stroke-opacity: 0.2; stroke-width: 0.8"/>
    </g>
   </g>
   <g id="PolyCollection_5">
    <defs>
     <path id="mb5f370dc0c" d="M 69.650795 -99.901651 
L 69.650795 -83.52 
L 69.650795 -99.901651 
L 69.650795 -99.901651 
z
" style="stroke: #c957db; stroke-opacity: 0.2; stroke-width: 0.8"/>
    </defs>
    <g clip-path="url(#p7a89953619)">
     <use xlink:href="#mb5f370dc0c" x="0" y="576" style="fill: #c957db; fill-opacity: 0.2; stroke: #c957db; stroke-opacity: 0.2; stroke-width: 0.8"/>
    </g>
   </g>
   <g id="line2d_36">
    <path d="M 69.650795 489.177248 
L 69.863628 485.081835 
L 70.502125 484.289174 
L 70.714958 458.659817 
L 70.92779 446.769908 
L 71.140623 445.184587 
L 71.566288 431.445138 
L 71.991953 425.368073 
L 72.204785 415.327706 
L 72.417617 415.327706 
L 72.63045 387.848807 
L 72.843282 384.942385 
L 73.268947 371.202936 
L 73.694612 360.369908 
L 74.33311 349.00844 
L 74.758774 345.045138 
L 74.971607 340.817615 
L 75.397272 337.118532 
L 75.610104 335.004771 
L 75.822937 331.569908 
L 76.248602 329.191927 
L 76.461434 325.757064 
L 76.887099 310.696514 
L 77.099932 309.375413 
L 77.312764 303.562569 
L 77.525596 302.241468 
L 77.738429 301.977248 
L 77.951261 301.977248 
L 78.164094 300.391927 
L 78.376926 297.485505 
L 78.589759 296.957064 
L 78.802591 295.635963 
L 79.441089 289.030459 
L 79.653921 288.237798 
L 79.866754 285.595596 
L 80.505251 283.217615 
L 81.569413 275.291009 
L 81.782246 274.762569 
L 82.207911 272.648807 
L 82.420743 272.384587 
L 83.272073 267.100183 
L 83.697738 266.043303 
L 84.7619 260.758899 
L 85.400397 250.190092 
L 85.61323 248.868991 
L 85.826062 248.604771 
L 86.038895 248.07633 
L 86.251727 247.01945 
L 86.677392 246.491009 
L 89.231382 246.491009 
L 89.444214 232.487339 
L 89.657047 231.694679 
L 89.869879 231.430459 
L 90.295544 230.637798 
L 90.508376 230.373578 
L 90.721209 229.580917 
L 90.934041 229.316697 
L 91.146874 229.316697 
L 91.359706 227.995596 
L 91.572539 227.995596 
L 91.998204 227.467156 
L 92.423869 225.617615 
L 92.636701 224.296514 
L 92.849534 224.296514 
L 93.062366 220.861651 
L 93.488031 218.21945 
L 93.700863 217.426789 
L 93.913696 217.426789 
L 94.126528 217.162569 
L 94.339361 217.162569 
L 94.552193 215.841468 
L 95.190691 215.841468 
L 95.616356 215.048807 
L 95.829188 215.048807 
L 96.254853 214.256147 
L 96.467685 213.991927 
L 97.531848 213.991927 
L 97.74468 213.463486 
L 97.957513 213.463486 
L 98.170345 213.199266 
L 100.085837 213.199266 
L 100.29867 212.142385 
L 100.511502 208.179083 
L 101.149999 207.386422 
L 101.362832 207.386422 
L 101.788497 206.857982 
L 102.214162 206.857982 
L 102.426994 205.00844 
L 102.639827 204.74422 
L 102.852659 204.74422 
L 103.278324 202.894679 
L 103.491157 202.894679 
L 103.703989 202.366239 
L 104.129654 202.366239 
L 104.342486 201.837798 
L 104.768151 201.837798 
L 105.193816 201.309358 
L 108.599136 201.309358 
L 109.0248 200.516697 
L 109.237633 200.252477 
L 111.791622 200.252477 
L 112.004455 199.988257 
L 114.558444 199.988257 
L 114.771277 199.724037 
L 115.196942 199.724037 
L 115.622607 199.195596 
L 130.733711 199.195596 
L 130.946544 194.703853 
L 131.159376 194.703853 
L 131.372209 194.439633 
L 132.010706 194.439633 
L 132.223539 194.175413 
L 132.649203 194.175413 
L 132.862036 193.911193 
L 137.54435 193.911193 
L 137.757182 193.646972 
L 138.821345 193.646972 
L 139.034177 193.118532 
L 142.226664 193.118532 
L 142.439497 192.854312 
L 142.865161 192.854312 
L 143.077994 192.590092 
L 145.206319 192.590092 
L 145.419151 192.325872 
L 146.057648 192.325872 
L 146.270481 192.061651 
L 147.334643 192.061651 
L 147.547476 191.004771 
L 149.6758 191.004771 
L 150.101465 186.513028 
L 150.314298 186.513028 
L 150.739962 184.135046 
L 150.952795 183.342385 
L 151.165627 183.342385 
L 151.37846 183.078165 
L 152.016957 183.078165 
L 152.22979 181.757064 
L 152.442622 181.492844 
L 154.996612 181.492844 
L 155.422277 178.322202 
L 155.847942 178.322202 
L 156.060774 178.057982 
L 156.699271 178.057982 
L 156.912104 177.265321 
L 157.124936 177.001101 
L 157.337769 174.623119 
L 157.550601 174.623119 
L 157.763434 174.358899 
L 158.189099 174.358899 
L 158.401931 174.094679 
L 159.466093 174.094679 
L 159.678926 173.830459 
L 159.891758 172.773578 
L 160.317423 172.773578 
L 160.530256 172.509358 
L 161.594418 172.509358 
L 161.80725 171.980917 
L 162.65858 171.980917 
L 162.871413 171.716697 
L 163.722743 171.716697 
L 163.935575 171.452477 
L 164.36124 171.452477 
L 164.574072 171.188257 
L 165.425402 171.188257 
L 165.638235 170.924037 
L 170.959046 170.924037 
L 171.171879 170.659817 
L 173.725868 170.659817 
L 173.938701 169.074495 
L 174.151533 169.074495 
L 174.577198 167.489174 
L 175.215695 167.489174 
L 175.428528 167.224954 
L 176.067025 167.224954 
L 176.279858 166.960734 
L 179.472345 166.960734 
L 179.685177 165.903853 
L 179.898009 165.639633 
L 186.282983 165.639633 
L 186.495816 165.111193 
L 187.347146 165.111193 
L 187.559978 162.468991 
L 188.411308 162.468991 
L 188.62414 161.41211 
L 200.329926 161.41211 
L 200.542758 160.88367 
L 200.968423 160.88367 
L 201.181255 160.61945 
L 203.948077 160.61945 
L 204.16091 160.091009 
L 208.630391 160.091009 
L 208.843224 159.298349 
L 215.866695 159.298349 
L 216.079528 158.505688 
L 226.508318 158.505688 
L 226.72115 158.241468 
L 237.362773 158.241468 
L 237.788438 157.713028 
L 244.81191 157.713028 
L 245.024742 157.448807 
L 259.284517 157.448807 
L 259.497349 157.184587 
L 262.477004 157.184587 
L 262.689836 156.920367 
L 266.733653 156.920367 
L 266.946485 156.656147 
L 269.07481 156.656147 
L 269.287642 156.391927 
L 276.523946 156.391927 
L 276.736778 156.127706 
L 277.800941 156.127706 
L 278.226606 155.599266 
L 281.631925 155.599266 
L 281.844757 155.335046 
L 282.05759 155.335046 
L 282.270422 155.070826 
L 285.462909 155.070826 
L 285.675742 153.749725 
L 292.699213 153.749725 
L 292.912045 153.485505 
L 302.276674 153.485505 
L 302.489506 153.221284 
L 303.128003 153.221284 
L 303.340836 152.957064 
L 306.32049 152.957064 
L 306.533323 152.428624 
L 311.428469 152.428624 
L 311.641302 152.164404 
L 342.502008 152.164404 
L 342.714841 151.900183 
L 343.140506 151.900183 
L 343.566171 150.843303 
L 343.991836 150.843303 
L 344.204668 150.579083 
L 347.609987 150.579083 
L 347.82282 149.786422 
L 364.636584 149.786422 
L 364.849417 149.257982 
L 375.916705 149.257982 
L 375.916705 149.257982 
" clip-path="url(#p7a89953619)" style="fill: none; stroke: #db5f57; stroke-width: 1.2; stroke-linecap: round"/>
   </g>
   <g id="line2d_37">
    <path d="M 69.650795 486.535046 
L 69.863628 463.41578 
L 70.07646 461.037798 
L 70.289293 452.318532 
L 70.714958 449.14789 
L 70.92779 443.599266 
L 71.140623 442.278165 
L 71.566288 428.538716 
L 71.77912 427.481835 
L 71.991953 421.933211 
L 73.056115 375.430459 
L 73.907445 354.292844 
L 74.33311 347.158899 
L 75.610104 331.569908 
L 75.822937 326.549725 
L 76.035769 325.228624 
L 76.248602 324.700183 
L 76.461434 323.114862 
L 76.887099 305.41211 
L 77.099932 303.034128 
L 77.312764 297.749725 
L 77.525596 296.164404 
L 77.738429 296.164404 
L 77.951261 295.900183 
L 78.164094 293.786422 
L 78.376926 293.257982 
L 78.589759 289.030459 
L 78.802591 288.237798 
L 79.228256 282.689174 
L 79.866754 276.87633 
L 81.143748 270.535046 
L 81.569413 265.779083 
L 81.782246 265.250642 
L 82.207911 262.872661 
L 82.420743 262.08 
L 82.846408 259.437798 
L 83.05924 258.909358 
L 83.484905 256.531376 
L 83.697738 256.002936 
L 84.123403 256.002936 
L 84.336235 252.039633 
L 84.549068 251.775413 
L 85.61323 237.243303 
L 85.826062 236.450642 
L 86.038895 236.186422 
L 86.46456 234.601101 
L 86.677392 234.601101 
L 87.528722 225.353394 
L 87.954387 224.296514 
L 88.167219 222.182752 
L 88.380052 222.182752 
L 88.592884 221.654312 
L 88.805717 220.597431 
L 89.018549 218.74789 
L 89.444214 217.426789 
L 89.657047 217.162569 
L 89.869879 216.634128 
L 90.082712 213.727706 
L 90.295544 213.199266 
L 90.508376 211.349725 
L 91.359706 208.443303 
L 91.572539 206.857982 
L 92.636701 204.48 
L 92.849534 203.158899 
L 93.062366 199.195596 
L 93.275198 197.874495 
L 93.488031 197.610275 
L 93.700863 196.553394 
L 93.913696 196.289174 
L 94.552193 194.968073 
L 94.765026 194.968073 
L 94.977858 194.703853 
L 95.403523 194.703853 
L 95.616356 193.646972 
L 96.04202 193.646972 
L 96.254853 193.382752 
L 96.467685 192.854312 
L 96.680518 192.854312 
L 96.89335 192.590092 
L 97.319015 192.590092 
L 97.531848 192.061651 
L 97.957513 192.061651 
L 98.170345 191.533211 
L 99.021675 191.533211 
L 99.44734 189.41945 
L 99.660172 188.626789 
L 100.29867 188.626789 
L 100.511502 184.399266 
L 101.149999 183.606606 
L 101.575664 183.606606 
L 101.788497 183.078165 
L 102.001329 183.078165 
L 102.214162 181.492844 
L 102.639827 180.435963 
L 102.852659 180.435963 
L 103.278324 177.001101 
L 103.491157 176.472661 
L 103.916821 174.358899 
L 104.129654 174.094679 
L 104.342486 174.094679 
L 104.768151 173.302018 
L 104.980984 173.037798 
L 105.406649 173.037798 
L 105.619481 172.773578 
L 106.470811 172.773578 
L 106.683643 172.509358 
L 108.386303 172.509358 
L 108.599136 171.716697 
L 108.811968 171.716697 
L 109.237633 171.188257 
L 111.153125 171.188257 
L 111.57879 170.659817 
L 113.068617 170.659817 
L 113.28145 170.395596 
L 115.196942 170.395596 
L 115.622607 169.867156 
L 116.261104 169.867156 
L 116.686769 169.338716 
L 116.899601 169.338716 
L 117.112434 169.074495 
L 117.325266 169.074495 
L 117.538099 168.281835 
L 117.750931 168.281835 
L 117.963764 168.017615 
L 119.027926 168.017615 
L 119.240758 167.753394 
L 119.666423 167.753394 
L 119.879256 167.489174 
L 121.369083 167.489174 
L 121.581916 167.224954 
L 123.071743 167.224954 
L 123.284575 166.960734 
L 123.497408 166.960734 
L 123.923073 166.432294 
L 124.135905 166.432294 
L 124.348738 165.375413 
L 124.56157 165.375413 
L 124.774402 164.846972 
L 124.987235 164.846972 
L 125.200067 164.582752 
L 125.4129 164.054312 
L 125.625732 164.054312 
L 126.051397 163.261651 
L 127.966889 163.261651 
L 128.179722 162.997431 
L 128.392554 162.468991 
L 129.243884 162.468991 
L 129.456717 162.204771 
L 129.669549 162.204771 
L 130.308046 160.88367 
L 130.946544 160.88367 
L 131.372209 160.355229 
L 132.649203 160.355229 
L 132.862036 160.091009 
L 136.905853 160.091009 
L 137.118685 159.826789 
L 138.821345 159.826789 
L 139.034177 159.298349 
L 142.652329 159.298349 
L 142.865161 159.034128 
L 143.929324 159.034128 
L 144.142156 158.769908 
L 146.908978 158.769908 
L 147.121811 157.448807 
L 147.547476 157.448807 
L 147.760308 157.184587 
L 147.973141 157.184587 
L 148.185973 156.920367 
L 149.6758 156.920367 
L 149.888633 153.485505 
L 150.314298 151.371743 
L 150.739962 150.314862 
L 150.952795 148.993761 
L 151.165627 148.993761 
L 151.804125 147.672661 
L 152.016957 147.672661 
L 152.22979 147.40844 
L 154.358114 147.40844 
L 154.570947 146.88 
L 154.996612 146.88 
L 155.422277 143.445138 
L 156.060774 143.445138 
L 156.699271 142.652477 
L 156.912104 141.859817 
L 157.124936 141.595596 
L 157.337769 140.274495 
L 157.550601 140.274495 
L 157.763434 139.481835 
L 159.253261 139.481835 
L 159.466093 139.217615 
L 159.678926 138.424954 
L 159.891758 138.160734 
L 160.317423 137.368073 
L 160.530256 137.103853 
L 161.594418 137.103853 
L 161.80725 136.575413 
L 162.020083 136.575413 
L 162.232915 136.311193 
L 162.445748 135.518532 
L 172.874538 135.518532 
L 173.087371 135.254312 
L 173.513036 135.254312 
L 174.364365 132.34789 
L 174.577198 132.08367 
L 177.769685 132.08367 
L 177.982517 131.81945 
L 178.621015 131.81945 
L 178.833847 131.555229 
L 179.259512 131.555229 
L 179.685177 130.234128 
L 182.239166 130.234128 
L 182.664831 128.384587 
L 186.070151 128.384587 
L 186.495816 126.799266 
L 186.708648 125.478165 
L 186.921481 125.478165 
L 187.134313 125.213945 
L 187.347146 125.213945 
L 187.559978 123.628624 
L 187.77281 123.364404 
L 188.198475 122.571743 
L 188.411308 122.571743 
L 188.62414 122.307523 
L 188.836973 122.307523 
L 189.049805 122.043303 
L 226.508318 122.043303 
L 226.72115 121.779083 
L 257.581857 121.779083 
L 257.79469 115.173578 
L 258.858852 115.173578 
L 259.071684 114.909358 
L 261.200009 114.909358 
L 261.412841 114.645138 
L 261.625674 114.645138 
L 261.838506 114.380917 
L 262.477004 114.380917 
L 262.689836 114.116697 
L 265.030993 114.116697 
L 265.243826 113.852477 
L 268.649145 113.852477 
L 269.07481 113.324037 
L 278.013773 113.324037 
L 278.226606 113.059817 
L 281.631925 113.059817 
L 281.844757 112.531376 
L 282.90892 112.531376 
L 283.121752 112.002936 
L 283.334585 112.002936 
L 283.547417 111.474495 
L 284.185915 111.474495 
L 284.398747 111.210275 
L 286.527072 111.210275 
L 286.952737 110.681835 
L 288.016899 110.681835 
L 288.229731 110.417615 
L 292.699213 110.417615 
L 292.912045 110.153394 
L 295.678867 110.153394 
L 295.8917 109.889174 
L 296.955862 109.889174 
L 297.168695 109.624954 
L 299.084187 109.624954 
L 299.297019 109.096514 
L 299.722684 109.096514 
L 300.148349 108.303853 
L 303.340836 108.303853 
L 303.553668 107.511193 
L 308.448815 107.511193 
L 308.661647 106.982752 
L 309.087312 106.982752 
L 309.300145 106.718532 
L 316.536448 106.718532 
L 316.749281 106.454312 
L 321.85726 106.454312 
L 322.282925 105.925872 
L 334.414375 105.925872 
L 334.84004 105.397431 
L 336.117035 105.397431 
L 336.329867 105.133211 
L 340.799349 105.133211 
L 341.012181 104.868991 
L 342.927673 104.868991 
L 343.140506 103.81211 
L 343.566171 103.81211 
L 343.779003 103.01945 
L 345.055998 103.01945 
L 345.26883 102.755229 
L 347.184323 102.755229 
L 347.397155 101.962569 
L 347.609987 101.962569 
L 347.82282 101.434128 
L 350.376809 101.434128 
L 350.589642 101.169908 
L 356.336118 101.169908 
L 356.548951 100.905688 
L 362.082595 100.905688 
L 362.295427 100.641468 
L 362.50826 100.641468 
L 362.721092 100.113028 
L 375.916705 100.113028 
L 375.916705 100.113028 
" clip-path="url(#p7a89953619)" style="fill: none; stroke: #b9db57; stroke-width: 1.2; stroke-linecap: round"/>
   </g>
   <g id="line2d_38">
    <path d="M 69.650795 489.969908 
L 69.863628 487.195596 
L 70.07646 466.586422 
L 70.289293 466.057982 
L 70.502125 466.057982 
L 70.714958 453.903853 
L 71.140623 453.903853 
L 71.353455 444.391927 
L 71.566288 444.391927 
L 71.77912 433.558899 
L 71.991953 428.802936 
L 72.843282 428.802936 
L 73.056115 387.320367 
L 73.268947 381.771743 
L 73.48178 379.393761 
L 73.694612 379.393761 
L 73.907445 365.918532 
L 74.545942 355.613945 
L 74.758774 352.707523 
L 74.971607 352.707523 
L 75.184439 349.00844 
L 75.397272 349.00844 
L 75.822937 338.175413 
L 76.461434 338.175413 
L 76.674267 328.399266 
L 76.887099 327.606606 
L 77.099932 318.358899 
L 77.312764 318.358899 
L 77.525596 310.960734 
L 77.738429 310.960734 
L 77.951261 309.375413 
L 78.164094 309.375413 
L 78.376926 304.61945 
L 78.589759 304.61945 
L 79.015424 299.335046 
L 79.441089 295.371743 
L 79.653921 295.371743 
L 80.079586 290.88 
L 80.292418 290.88 
L 81.356581 285.859817 
L 81.569413 282.689174 
L 81.995078 281.632294 
L 82.207911 279.782752 
L 82.420743 279.254312 
L 82.633575 278.197431 
L 82.846408 276.34789 
L 83.05924 276.08367 
L 83.484905 273.969908 
L 84.123403 271.856147 
L 84.336235 269.478165 
L 84.549068 269.478165 
L 84.7619 267.892844 
L 84.974733 264.986422 
L 85.400397 257.324037 
L 85.826062 255.738716 
L 86.038895 255.210275 
L 86.677392 251.511193 
L 86.890225 250.190092 
L 87.103057 249.661651 
L 87.528722 249.661651 
L 87.741555 244.641468 
L 87.954387 244.113028 
L 88.167219 242.527706 
L 88.380052 241.999266 
L 88.592884 241.999266 
L 88.805717 240.413945 
L 89.018549 240.149725 
L 89.231382 238.300183 
L 89.869879 236.979083 
L 90.295544 233.28 
L 90.721209 230.637798 
L 90.934041 230.109358 
L 92.423869 230.109358 
L 92.636701 224.560734 
L 92.849534 224.296514 
L 93.062366 223.768073 
L 93.275198 220.597431 
L 93.700863 218.48367 
L 94.126528 217.955229 
L 94.552193 216.898349 
L 95.190691 216.898349 
L 95.403523 216.105688 
L 95.829188 216.105688 
L 96.04202 215.841468 
L 96.680518 215.841468 
L 96.89335 215.048807 
L 97.74468 215.048807 
L 97.957513 214.784587 
L 103.065492 214.784587 
L 103.278324 203.95156 
L 106.470811 203.95156 
L 106.683643 199.988257 
L 107.109308 199.988257 
L 107.322141 199.724037 
L 108.173471 199.724037 
L 108.386303 199.459817 
L 108.811968 199.459817 
L 109.0248 198.931376 
L 109.237633 198.931376 
L 109.450465 198.402936 
L 110.72746 198.402936 
L 110.940293 197.874495 
L 111.791622 197.874495 
L 112.004455 197.081835 
L 113.068617 197.081835 
L 113.28145 196.817615 
L 116.899601 196.817615 
L 117.112434 195.496514 
L 117.325266 195.496514 
L 117.750931 194.703853 
L 117.963764 194.439633 
L 119.453591 194.439633 
L 119.666423 194.175413 
L 120.730586 194.175413 
L 120.943418 193.911193 
L 121.581916 193.911193 
L 121.794748 193.646972 
L 123.284575 193.646972 
L 123.497408 193.382752 
L 124.987235 193.382752 
L 125.200067 191.533211 
L 127.115559 191.533211 
L 127.328392 191.004771 
L 129.882381 191.004771 
L 130.095214 189.155229 
L 131.372209 189.155229 
L 131.585041 188.098349 
L 134.777528 188.098349 
L 134.99036 187.569908 
L 137.757182 187.569908 
L 137.970015 187.305688 
L 138.821345 187.305688 
L 139.034177 186.777248 
L 143.716491 186.777248 
L 143.929324 186.513028 
L 144.142156 186.513028 
L 144.354989 186.248807 
L 146.908978 186.248807 
L 147.121811 185.720367 
L 147.334643 184.663486 
L 147.973141 184.663486 
L 148.185973 184.399266 
L 148.611638 184.399266 
L 148.82447 184.135046 
L 149.888633 184.135046 
L 150.101465 181.757064 
L 150.314298 181.757064 
L 150.739962 179.643303 
L 151.37846 179.643303 
L 151.591292 178.057982 
L 151.804125 177.529541 
L 154.358114 177.529541 
L 154.570947 177.265321 
L 154.783779 177.265321 
L 154.996612 177.001101 
L 155.635109 177.001101 
L 155.847942 173.830459 
L 156.060774 173.830459 
L 156.273606 173.566239 
L 156.486439 173.566239 
L 156.699271 173.037798 
L 156.912104 173.037798 
L 157.124936 171.980917 
L 157.337769 171.980917 
L 157.550601 170.659817 
L 157.763434 170.131376 
L 159.253261 170.131376 
L 159.466093 169.867156 
L 159.678926 169.867156 
L 159.891758 169.338716 
L 160.104591 169.338716 
L 160.317423 168.546055 
L 160.530256 168.281835 
L 161.80725 168.281835 
L 162.020083 167.753394 
L 162.232915 167.753394 
L 162.65858 166.696514 
L 165.21257 166.696514 
L 165.425402 166.432294 
L 173.725868 166.432294 
L 174.151533 164.054312 
L 174.364365 164.054312 
L 174.577198 163.525872 
L 176.918355 163.525872 
L 177.131187 163.261651 
L 177.769685 163.261651 
L 177.982517 162.997431 
L 179.898009 162.997431 
L 180.110842 161.41211 
L 182.451999 161.41211 
L 182.664831 160.091009 
L 186.070151 160.091009 
L 186.282983 159.826789 
L 186.708648 159.826789 
L 186.921481 157.977248 
L 187.134313 157.448807 
L 190.3268 157.448807 
L 190.539632 155.335046 
L 195.221947 155.335046 
L 195.434779 154.542385 
L 195.647611 154.278165 
L 199.904261 154.278165 
L 200.117093 153.749725 
L 200.329926 153.749725 
L 200.542758 152.692844 
L 200.968423 152.164404 
L 201.181255 151.635963 
L 201.60692 151.635963 
L 201.819753 151.371743 
L 202.883915 151.371743 
L 203.096748 150.843303 
L 206.714899 150.843303 
L 207.140564 150.314862 
L 207.779062 150.314862 
L 207.991894 150.050642 
L 208.843224 150.050642 
L 209.056056 149.786422 
L 210.758716 149.786422 
L 210.971549 149.522202 
L 211.184381 148.993761 
L 216.718025 148.993761 
L 216.930857 148.201101 
L 227.359648 148.201101 
L 227.57248 147.936881 
L 231.616297 147.936881 
L 231.82913 147.672661 
L 234.383119 147.672661 
L 234.595951 147.40844 
L 255.666365 147.40844 
L 256.09203 146.88 
L 258.433187 146.88 
L 258.646019 146.61578 
L 261.412841 146.61578 
L 261.625674 146.087339 
L 262.689836 146.087339 
L 262.902669 145.823119 
L 265.456658 145.823119 
L 265.669491 145.558899 
L 269.07481 145.558899 
L 269.287642 145.294679 
L 271.628799 145.294679 
L 271.841632 144.766239 
L 278.226606 144.766239 
L 278.439438 144.502018 
L 281.844757 144.502018 
L 282.05759 143.973578 
L 283.121752 143.973578 
L 283.334585 143.445138 
L 283.547417 143.445138 
L 283.76025 143.180917 
L 284.398747 143.180917 
L 284.611579 142.916697 
L 286.314239 142.916697 
L 286.527072 142.652477 
L 287.804066 142.652477 
L 288.229731 142.124037 
L 292.912045 142.124037 
L 293.124878 141.859817 
L 293.976208 141.859817 
L 294.18904 141.595596 
L 297.381527 141.595596 
L 297.594359 141.331376 
L 299.297019 141.331376 
L 299.509852 141.067156 
L 299.935517 141.067156 
L 300.148349 140.274495 
L 304.830663 140.274495 
L 305.043496 139.481835 
L 309.72581 139.481835 
L 309.938642 138.689174 
L 316.962113 138.689174 
L 317.174946 138.424954 
L 322.070092 138.424954 
L 322.282925 137.896514 
L 334.627207 137.896514 
L 334.84004 137.368073 
L 336.117035 137.368073 
L 336.329867 137.103853 
L 341.012181 137.103853 
L 341.225014 136.839633 
L 342.289176 136.839633 
L 342.502008 136.575413 
L 343.140506 136.575413 
L 343.353338 135.782752 
L 345.26883 135.782752 
L 345.481663 135.254312 
L 345.694495 135.254312 
L 345.907328 134.990092 
L 346.97149 134.990092 
L 347.397155 134.461651 
L 347.609987 133.933211 
L 348.035652 133.933211 
L 348.248485 133.668991 
L 350.163977 133.668991 
L 350.376809 133.404771 
L 356.336118 133.404771 
L 356.548951 133.14055 
L 362.295427 133.14055 
L 362.721092 132.61211 
L 375.916705 132.61211 
L 375.916705 132.61211 
" clip-path="url(#p7a89953619)" style="fill: none; stroke: #57db94; stroke-width: 1.2; stroke-linecap: round"/>
   </g>
   <g id="line2d_39">
    <path d="M 69.650795 484.024954 
L 69.863628 465.265321 
L 70.289293 455.224954 
L 71.140623 445.184587 
L 71.566288 431.180917 
L 71.991953 423.254312 
L 72.204785 414.270826 
L 72.63045 387.584587 
L 74.120277 351.122202 
L 74.971607 341.081835 
L 75.184439 339.760734 
L 75.397272 337.118532 
L 75.610104 332.891009 
L 75.822937 331.041468 
L 76.035769 330.513028 
L 76.248602 329.456147 
L 76.887099 310.696514 
L 77.525596 303.034128 
L 77.951261 303.034128 
L 78.589759 297.485505 
L 78.802591 294.579083 
L 79.015424 293.257982 
L 79.228256 290.88 
L 80.718083 282.953394 
L 81.569413 277.404771 
L 81.995078 275.026789 
L 82.207911 274.498349 
L 83.05924 270.535046 
L 83.272073 270.535046 
L 83.697738 267.892844 
L 83.91057 267.364404 
L 84.549068 263.665321 
L 84.7619 262.34422 
L 84.974733 257.059817 
L 85.187565 255.738716 
L 85.400397 252.832294 
L 85.61323 251.511193 
L 86.038895 250.982752 
L 87.103057 244.113028 
L 87.31589 243.848807 
L 87.528722 240.413945 
L 87.954387 238.035963 
L 88.167219 237.507523 
L 88.592884 235.922202 
L 89.657047 234.601101 
L 89.869879 234.601101 
L 90.295544 233.28 
L 90.508376 233.01578 
L 90.934041 232.223119 
L 91.146874 230.902018 
L 91.359706 230.902018 
L 91.998204 230.109358 
L 92.211036 229.316697 
L 92.636701 227.202936 
L 92.849534 226.674495 
L 93.062366 223.503853 
L 94.765026 219.54055 
L 95.190691 219.54055 
L 95.403523 218.74789 
L 95.616356 218.48367 
L 96.04202 218.48367 
L 96.467685 217.955229 
L 97.531848 217.955229 
L 97.74468 217.162569 
L 99.021675 217.162569 
L 99.234507 216.898349 
L 99.660172 216.898349 
L 99.873005 216.634128 
L 100.085837 216.634128 
L 100.511502 212.142385 
L 101.149999 211.349725 
L 101.362832 211.349725 
L 101.575664 211.085505 
L 101.788497 211.085505 
L 102.001329 210.821284 
L 102.214162 209.500183 
L 102.426994 209.500183 
L 103.065492 208.707523 
L 103.491157 206.593761 
L 104.129654 206.593761 
L 104.555319 205.801101 
L 104.980984 205.801101 
L 105.193816 205.536881 
L 108.386303 205.536881 
L 108.599136 205.272661 
L 109.0248 205.272661 
L 109.237633 204.74422 
L 111.365957 204.74422 
L 111.57879 204.48 
L 112.855785 204.48 
L 113.068617 204.21578 
L 115.196942 204.21578 
L 115.622607 203.687339 
L 116.899601 203.687339 
L 117.112434 203.158899 
L 119.453591 203.158899 
L 119.666423 202.894679 
L 120.304921 202.894679 
L 120.517753 202.630459 
L 121.369083 202.630459 
L 121.581916 202.366239 
L 122.85891 202.366239 
L 123.071743 202.102018 
L 123.284575 202.102018 
L 123.497408 201.837798 
L 123.923073 201.837798 
L 124.348738 201.045138 
L 124.56157 200.780917 
L 124.774402 200.252477 
L 125.4129 200.252477 
L 125.838565 199.724037 
L 128.179722 199.724037 
L 128.392554 199.195596 
L 129.456717 199.195596 
L 129.669549 198.931376 
L 130.095214 198.931376 
L 130.308046 198.667156 
L 130.946544 198.667156 
L 131.159376 198.402936 
L 132.649203 198.402936 
L 132.862036 198.138716 
L 137.331518 198.138716 
L 137.54435 197.874495 
L 138.821345 197.874495 
L 139.034177 197.610275 
L 139.459842 197.610275 
L 139.672675 197.346055 
L 144.142156 197.346055 
L 144.354989 197.081835 
L 145.844816 197.081835 
L 146.057648 196.817615 
L 146.908978 196.817615 
L 147.121811 195.496514 
L 148.185973 195.496514 
L 148.398805 195.232294 
L 149.6758 195.232294 
L 149.888633 193.118532 
L 150.52713 190.74055 
L 150.739962 188.891009 
L 151.165627 188.891009 
L 151.37846 188.098349 
L 151.591292 188.098349 
L 152.22979 187.305688 
L 154.783779 187.305688 
L 154.996612 187.041468 
L 155.209444 184.663486 
L 155.635109 184.135046 
L 156.273606 184.135046 
L 156.486439 183.606606 
L 156.699271 183.606606 
L 156.912104 183.078165 
L 157.124936 183.078165 
L 157.337769 182.021284 
L 157.550601 182.021284 
L 157.763434 180.700183 
L 157.976266 180.435963 
L 159.466093 180.435963 
L 159.678926 179.643303 
L 160.104591 179.114862 
L 160.317423 179.114862 
L 160.530256 178.850642 
L 161.594418 178.850642 
L 161.80725 178.322202 
L 162.232915 178.322202 
L 162.445748 178.057982 
L 163.722743 178.057982 
L 163.935575 177.793761 
L 164.148407 177.793761 
L 164.36124 177.529541 
L 173.513036 177.529541 
L 174.151533 174.887339 
L 174.364365 174.887339 
L 174.577198 174.094679 
L 174.79003 173.830459 
L 179.259512 173.830459 
L 179.472345 173.566239 
L 179.685177 172.509358 
L 186.070151 172.509358 
L 186.495816 171.980917 
L 186.921481 171.980917 
L 187.77281 168.017615 
L 187.985643 168.017615 
L 188.198475 167.753394 
L 188.62414 167.753394 
L 188.836973 167.489174 
L 199.691428 167.489174 
L 200.117093 166.960734 
L 200.75559 166.960734 
L 201.181255 166.432294 
L 202.45825 166.432294 
L 202.671083 166.168073 
L 206.714899 166.168073 
L 207.140564 165.639633 
L 215.866695 165.639633 
L 216.079528 165.375413 
L 226.082653 165.375413 
L 226.295486 165.111193 
L 226.508318 165.111193 
L 226.72115 164.846972 
L 236.511444 164.846972 
L 236.724276 164.582752 
L 236.937109 164.054312 
L 258.433187 164.054312 
L 258.646019 163.790092 
L 263.966831 163.790092 
L 264.179663 163.525872 
L 264.818161 163.525872 
L 265.030993 163.261651 
L 268.649145 163.261651 
L 268.861977 162.997431 
L 275.459784 162.997431 
L 275.672616 162.733211 
L 276.949611 162.733211 
L 277.162443 162.468991 
L 281.419093 162.468991 
L 281.844757 161.94055 
L 284.824412 161.94055 
L 285.037244 160.88367 
L 300.148349 160.88367 
L 300.361181 160.61945 
L 303.553668 160.61945 
L 303.766501 159.826789 
L 342.289176 159.826789 
L 342.714841 159.298349 
L 342.927673 159.298349 
L 343.140506 159.034128 
L 343.353338 159.034128 
L 343.566171 158.505688 
L 347.184323 158.505688 
L 347.397155 158.241468 
L 347.609987 157.713028 
L 362.295427 157.713028 
L 362.721092 157.184587 
L 375.916705 157.184587 
L 375.916705 157.184587 
" clip-path="url(#p7a89953619)" style="fill: none; stroke: #5784db; stroke-width: 1.2; stroke-linecap: round"/>
   </g>
   <g id="line2d_40">
    <path d="M 69.650795 484.289174 
L 69.863628 462.887339 
L 70.289293 451.525872 
L 70.502125 449.67633 
L 70.714958 446.769908 
L 70.92779 442.013945 
L 71.140623 440.428624 
L 71.566288 426.424954 
L 71.991953 418.234128 
L 72.204785 409.250642 
L 72.63045 382.035963 
L 73.907445 346.102018 
L 74.33311 339.232294 
L 75.397272 324.964404 
L 75.822937 319.41578 
L 76.248602 317.037798 
L 77.099932 294.843303 
L 77.312764 289.823119 
L 77.525596 288.237798 
L 77.738429 288.237798 
L 77.951261 287.973578 
L 78.589759 281.103853 
L 79.015424 276.34789 
L 79.441089 272.384587 
L 79.653921 271.063486 
L 79.866754 268.421284 
L 80.505251 265.779083 
L 80.718083 264.722202 
L 80.930916 262.34422 
L 81.143748 261.287339 
L 81.569413 258.116697 
L 81.782246 257.324037 
L 82.633575 252.568073 
L 82.846408 251.511193 
L 83.05924 251.246972 
L 83.484905 248.604771 
L 84.123403 245.698349 
L 84.7619 240.413945 
L 85.187565 232.75156 
L 85.400397 230.109358 
L 85.826062 228.259817 
L 86.038895 227.995596 
L 87.103057 221.125872 
L 87.954387 214.256147 
L 88.592884 212.670826 
L 89.444214 208.707523 
L 89.869879 208.179083 
L 90.082712 205.00844 
L 90.295544 204.48 
L 90.721209 201.573578 
L 90.934041 201.309358 
L 91.146874 199.988257 
L 91.359706 199.988257 
L 91.572539 198.402936 
L 92.211036 196.817615 
L 92.423869 195.232294 
L 92.849534 193.911193 
L 93.062366 189.94789 
L 93.488031 188.362569 
L 93.700863 187.569908 
L 93.913696 187.305688 
L 94.552193 185.984587 
L 94.765026 185.984587 
L 94.977858 185.720367 
L 95.190691 185.720367 
L 95.403523 184.927706 
L 95.616356 184.663486 
L 96.04202 184.663486 
L 96.467685 183.870826 
L 97.319015 183.870826 
L 97.531848 183.342385 
L 97.74468 183.342385 
L 98.170345 182.813945 
L 99.021675 182.813945 
L 99.44734 180.700183 
L 99.660172 179.907523 
L 100.085837 179.907523 
L 100.511502 175.41578 
L 101.149999 174.623119 
L 101.362832 174.623119 
L 101.788497 174.094679 
L 102.001329 174.094679 
L 102.214162 172.509358 
L 102.639827 171.452477 
L 102.852659 171.452477 
L 103.278324 167.489174 
L 103.916821 165.375413 
L 104.129654 165.111193 
L 104.342486 164.582752 
L 104.555319 164.582752 
L 105.193816 163.790092 
L 108.173471 163.790092 
L 108.386303 163.525872 
L 108.599136 162.997431 
L 108.811968 162.997431 
L 109.237633 162.468991 
L 111.153125 162.468991 
L 111.57879 161.94055 
L 112.855785 161.94055 
L 113.068617 161.67633 
L 115.196942 161.67633 
L 115.622607 161.14789 
L 116.261104 161.14789 
L 116.686769 160.61945 
L 116.899601 160.61945 
L 117.112434 160.355229 
L 117.325266 160.355229 
L 117.538099 159.562569 
L 117.750931 159.298349 
L 119.027926 159.298349 
L 119.240758 159.034128 
L 119.453591 159.034128 
L 119.666423 158.769908 
L 121.369083 158.769908 
L 121.581916 158.505688 
L 122.85891 158.505688 
L 123.071743 158.241468 
L 123.284575 158.241468 
L 123.497408 157.977248 
L 123.71024 157.977248 
L 124.135905 157.448807 
L 124.348738 156.656147 
L 124.56157 156.656147 
L 124.774402 156.127706 
L 124.987235 156.127706 
L 125.200067 155.863486 
L 125.4129 155.335046 
L 125.625732 155.335046 
L 126.051397 154.542385 
L 127.966889 154.542385 
L 128.179722 154.278165 
L 128.392554 153.749725 
L 129.243884 153.749725 
L 129.882381 152.957064 
L 130.308046 152.164404 
L 130.946544 152.164404 
L 131.159376 151.635963 
L 132.649203 151.635963 
L 132.862036 151.371743 
L 136.905853 151.371743 
L 137.118685 151.107523 
L 138.821345 151.107523 
L 139.034177 150.579083 
L 142.652329 150.579083 
L 142.865161 150.314862 
L 143.929324 150.314862 
L 144.142156 150.050642 
L 146.908978 150.050642 
L 147.121811 148.729541 
L 147.547476 148.729541 
L 147.760308 148.465321 
L 147.973141 148.465321 
L 148.185973 148.201101 
L 149.6758 148.201101 
L 149.888633 144.766239 
L 150.314298 142.652477 
L 150.52713 142.124037 
L 150.739962 140.538716 
L 150.952795 140.274495 
L 151.165627 140.274495 
L 151.37846 139.481835 
L 151.591292 139.481835 
L 151.804125 138.953394 
L 152.016957 138.953394 
L 152.22979 138.689174 
L 154.358114 138.689174 
L 154.570947 138.160734 
L 154.783779 138.160734 
L 154.996612 137.896514 
L 155.209444 135.518532 
L 155.422277 134.725872 
L 156.060774 134.725872 
L 156.273606 134.461651 
L 156.486439 133.933211 
L 156.699271 133.933211 
L 157.337769 131.291009 
L 157.550601 131.291009 
L 157.763434 130.498349 
L 159.253261 130.498349 
L 159.466093 130.234128 
L 159.891758 128.913028 
L 160.530256 128.120367 
L 161.594418 128.120367 
L 161.80725 127.591927 
L 162.020083 127.591927 
L 162.232915 127.327706 
L 162.445748 126.535046 
L 163.722743 126.535046 
L 163.935575 126.270826 
L 165.425402 126.270826 
L 165.638235 126.006606 
L 173.513036 126.006606 
L 173.725868 125.213945 
L 173.938701 123.892844 
L 174.364365 123.100183 
L 174.79003 122.571743 
L 176.067025 122.571743 
L 176.279858 122.307523 
L 177.769685 122.307523 
L 177.982517 122.043303 
L 178.621015 122.043303 
L 178.833847 121.779083 
L 179.259512 121.779083 
L 179.685177 120.457982 
L 182.239166 120.457982 
L 182.664831 118.60844 
L 186.070151 118.60844 
L 186.708648 115.702018 
L 186.921481 115.702018 
L 187.134313 114.909358 
L 187.347146 114.645138 
L 187.77281 113.059817 
L 187.985643 113.059817 
L 188.198475 112.795596 
L 188.411308 112.795596 
L 188.62414 112.531376 
L 188.836973 112.531376 
L 189.049805 112.267156 
L 195.221947 112.267156 
L 195.434779 111.474495 
L 195.647611 111.210275 
L 199.691428 111.210275 
L 199.904261 110.946055 
L 200.117093 110.417615 
L 200.329926 110.417615 
L 200.542758 109.360734 
L 200.968423 108.832294 
L 201.181255 108.303853 
L 202.45825 108.303853 
L 202.671083 108.039633 
L 202.883915 108.039633 
L 203.096748 107.775413 
L 206.714899 107.775413 
L 207.140564 107.246972 
L 207.779062 107.246972 
L 207.991894 106.982752 
L 208.843224 106.982752 
L 209.056056 106.718532 
L 210.758716 106.718532 
L 210.971549 106.454312 
L 211.184381 105.925872 
L 215.866695 105.925872 
L 216.079528 105.397431 
L 226.508318 105.397431 
L 226.72115 105.133211 
L 255.666365 105.133211 
L 256.09203 104.604771 
L 258.433187 104.604771 
L 258.646019 104.34055 
L 261.200009 104.34055 
L 261.625674 103.81211 
L 262.477004 103.81211 
L 262.689836 103.54789 
L 264.818161 103.54789 
L 265.030993 103.28367 
L 268.649145 103.28367 
L 269.07481 102.755229 
L 271.628799 102.755229 
L 271.841632 102.491009 
L 278.013773 102.491009 
L 278.226606 102.226789 
L 281.419093 102.226789 
L 281.844757 101.698349 
L 282.90892 101.698349 
L 283.334585 100.905688 
L 283.547417 100.641468 
L 284.185915 100.641468 
L 284.398747 100.377248 
L 286.314239 100.377248 
L 286.527072 100.113028 
L 286.739904 100.113028 
L 286.952737 99.848807 
L 288.016899 99.848807 
L 288.229731 99.584587 
L 292.699213 99.584587 
L 292.912045 99.320367 
L 293.976208 99.320367 
L 294.18904 99.056147 
L 296.955862 99.056147 
L 297.168695 98.791927 
L 299.084187 98.791927 
L 299.297019 98.263486 
L 299.722684 98.263486 
L 300.148349 97.470826 
L 303.128003 97.470826 
L 303.340836 97.206606 
L 303.553668 96.678165 
L 308.448815 96.678165 
L 308.661647 96.149725 
L 309.087312 96.149725 
L 309.300145 95.885505 
L 316.536448 95.885505 
L 316.749281 95.621284 
L 321.85726 95.621284 
L 322.282925 95.092844 
L 334.414375 95.092844 
L 334.84004 94.564404 
L 336.117035 94.564404 
L 336.329867 94.300183 
L 340.799349 94.300183 
L 341.012181 94.035963 
L 342.289176 94.035963 
L 342.714841 93.507523 
L 342.927673 93.507523 
L 343.140506 92.714862 
L 343.353338 92.714862 
L 343.566171 92.186422 
L 345.055998 92.186422 
L 345.26883 91.922202 
L 346.97149 91.922202 
L 347.184323 91.657982 
L 347.609987 90.601101 
L 350.163977 90.601101 
L 350.376809 90.336881 
L 356.336118 90.336881 
L 356.548951 90.072661 
L 362.082595 90.072661 
L 362.295427 89.80844 
L 362.50826 89.80844 
L 362.721092 89.28 
L 375.916705 89.28 
L 375.916705 89.28 
" clip-path="url(#p7a89953619)" style="fill: none; stroke: #c957db; stroke-width: 1.2; stroke-linecap: round"/>
   </g>
   <g id="line2d_41"/>
   <g id="line2d_42"/>
   <g id="line2d_43"/>
   <g id="line2d_44"/>
   <g id="line2d_45"/>
   <g id="patch_3">
    <path d="M 54.3375 512.64 
L 54.3375 69.12 
" style="fill: none; stroke: #cccccc; stroke-linejoin: miter; stroke-linecap: square"/>
   </g>
   <g id="patch_4">
    <path d="M 54.3375 512.64 
L 391.23 512.64 
" style="fill: none; stroke: #cccccc; stroke-linejoin: miter; stroke-linecap: square"/>
   </g>
   <g id="text_38">
    <!-- Edge Coverage History -->
    <g style="fill: #262626" transform="translate(115.892262 63.12)scale(0.165888 -0.165888)">
     <defs>
      <path id="DejaVuSans-Bold-45" d="M 588 4666 
L 3834 4666 
L 3834 3756 
L 1791 3756 
L 1791 2888 
L 3713 2888 
L 3713 1978 
L 1791 1978 
L 1791 909 
L 3903 909 
L 3903 0 
L 588 0 
L 588 4666 
z
" transform="scale(0.015625)"/>
      <path id="DejaVuSans-Bold-64" d="M 2919 2988 
L 2919 4863 
L 4044 4863 
L 4044 0 
L 2919 0 
L 2919 506 
Q 2688 197 2409 53 
Q 2131 -91 1766 -91 
Q 1119 -91 703 423 
Q 288 938 288 1747 
Q 288 2556 703 3070 
Q 1119 3584 1766 3584 
Q 2128 3584 2408 3439 
Q 2688 3294 2919 2988 
z
M 2181 722 
Q 2541 722 2730 984 
Q 2919 1247 2919 1747 
Q 2919 2247 2730 2509 
Q 2541 2772 2181 2772 
Q 1825 2772 1636 2509 
Q 1447 2247 1447 1747 
Q 1447 1247 1636 984 
Q 1825 722 2181 722 
z
" transform="scale(0.015625)"/>
      <path id="DejaVuSans-Bold-67" d="M 2919 594 
Q 2688 288 2409 144 
Q 2131 0 1766 0 
Q 1125 0 706 504 
Q 288 1009 288 1791 
Q 288 2575 706 3076 
Q 1125 3578 1766 3578 
Q 2131 3578 2409 3434 
Q 2688 3291 2919 2981 
L 2919 3500 
L 4044 3500 
L 4044 353 
Q 4044 -491 3511 -936 
Q 2978 -1381 1966 -1381 
Q 1638 -1381 1331 -1331 
Q 1025 -1281 716 -1178 
L 716 -306 
Q 1009 -475 1290 -558 
Q 1572 -641 1856 -641 
Q 2406 -641 2662 -400 
Q 2919 -159 2919 353 
L 2919 594 
z
M 2181 2772 
Q 1834 2772 1640 2515 
Q 1447 2259 1447 1791 
Q 1447 1309 1634 1061 
Q 1822 813 2181 813 
Q 2531 813 2725 1069 
Q 2919 1325 2919 1791 
Q 2919 2259 2725 2515 
Q 2531 2772 2181 2772 
z
" transform="scale(0.015625)"/>
      <path id="DejaVuSans-Bold-65" d="M 4031 1759 
L 4031 1441 
L 1416 1441 
Q 1456 1047 1700 850 
Q 1944 653 2381 653 
Q 2734 653 3104 758 
Q 3475 863 3866 1075 
L 3866 213 
Q 3469 63 3072 -14 
Q 2675 -91 2278 -91 
Q 1328 -91 801 392 
Q 275 875 275 1747 
Q 275 2603 792 3093 
Q 1309 3584 2216 3584 
Q 3041 3584 3536 3087 
Q 4031 2591 4031 1759 
z
M 2881 2131 
Q 2881 2450 2695 2645 
Q 2509 2841 2209 2841 
Q 1884 2841 1681 2658 
Q 1478 2475 1428 2131 
L 2881 2131 
z
" transform="scale(0.015625)"/>
      <path id="DejaVuSans-Bold-20" transform="scale(0.015625)"/>
      <path id="DejaVuSans-Bold-43" d="M 4288 256 
Q 3956 84 3597 -3 
Q 3238 -91 2847 -91 
Q 1681 -91 1000 561 
Q 319 1213 319 2328 
Q 319 3447 1000 4098 
Q 1681 4750 2847 4750 
Q 3238 4750 3597 4662 
Q 3956 4575 4288 4403 
L 4288 3438 
Q 3953 3666 3628 3772 
Q 3303 3878 2944 3878 
Q 2300 3878 1931 3465 
Q 1563 3053 1563 2328 
Q 1563 1606 1931 1193 
Q 2300 781 2944 781 
Q 3303 781 3628 887 
Q 3953 994 4288 1222 
L 4288 256 
z
" transform="scale(0.015625)"/>
      <path id="DejaVuSans-Bold-6f" d="M 2203 2784 
Q 1831 2784 1636 2517 
Q 1441 2250 1441 1747 
Q 1441 1244 1636 976 
Q 1831 709 2203 709 
Q 2569 709 2762 976 
Q 2956 1244 2956 1747 
Q 2956 2250 2762 2517 
Q 2569 2784 2203 2784 
z
M 2203 3584 
Q 3106 3584 3614 3096 
Q 4122 2609 4122 1747 
Q 4122 884 3614 396 
Q 3106 -91 2203 -91 
Q 1297 -91 786 396 
Q 275 884 275 1747 
Q 275 2609 786 3096 
Q 1297 3584 2203 3584 
z
" transform="scale(0.015625)"/>
      <path id="DejaVuSans-Bold-76" d="M 97 3500 
L 1216 3500 
L 2088 1081 
L 2956 3500 
L 4078 3500 
L 2700 0 
L 1472 0 
L 97 3500 
z
" transform="scale(0.015625)"/>
      <path id="DejaVuSans-Bold-72" d="M 3138 2547 
Q 2991 2616 2845 2648 
Q 2700 2681 2553 2681 
Q 2122 2681 1889 2404 
Q 1656 2128 1656 1613 
L 1656 0 
L 538 0 
L 538 3500 
L 1656 3500 
L 1656 2925 
Q 1872 3269 2151 3426 
Q 2431 3584 2822 3584 
Q 2878 3584 2943 3579 
Q 3009 3575 3134 3559 
L 3138 2547 
z
" transform="scale(0.015625)"/>
      <path id="DejaVuSans-Bold-61" d="M 2106 1575 
Q 1756 1575 1579 1456 
Q 1403 1338 1403 1106 
Q 1403 894 1545 773 
Q 1688 653 1941 653 
Q 2256 653 2472 879 
Q 2688 1106 2688 1447 
L 2688 1575 
L 2106 1575 
z
M 3816 1997 
L 3816 0 
L 2688 0 
L 2688 519 
Q 2463 200 2181 54 
Q 1900 -91 1497 -91 
Q 953 -91 614 226 
Q 275 544 275 1050 
Q 275 1666 698 1953 
Q 1122 2241 2028 2241 
L 2688 2241 
L 2688 2328 
Q 2688 2594 2478 2717 
Q 2269 2841 1825 2841 
Q 1466 2841 1156 2769 
Q 847 2697 581 2553 
L 581 3406 
Q 941 3494 1303 3539 
Q 1666 3584 2028 3584 
Q 2975 3584 3395 3211 
Q 3816 2838 3816 1997 
z
" transform="scale(0.015625)"/>
      <path id="DejaVuSans-Bold-48" d="M 588 4666 
L 1791 4666 
L 1791 2888 
L 3566 2888 
L 3566 4666 
L 4769 4666 
L 4769 0 
L 3566 0 
L 3566 1978 
L 1791 1978 
L 1791 0 
L 588 0 
L 588 4666 
z
" transform="scale(0.015625)"/>
      <path id="DejaVuSans-Bold-69" d="M 538 3500 
L 1656 3500 
L 1656 0 
L 538 0 
L 538 3500 
z
M 538 4863 
L 1656 4863 
L 1656 3950 
L 538 3950 
L 538 4863 
z
" transform="scale(0.015625)"/>
      <path id="DejaVuSans-Bold-73" d="M 3272 3391 
L 3272 2541 
Q 2913 2691 2578 2766 
Q 2244 2841 1947 2841 
Q 1628 2841 1473 2761 
Q 1319 2681 1319 2516 
Q 1319 2381 1436 2309 
Q 1553 2238 1856 2203 
L 2053 2175 
Q 2913 2066 3209 1816 
Q 3506 1566 3506 1031 
Q 3506 472 3093 190 
Q 2681 -91 1863 -91 
Q 1516 -91 1145 -36 
Q 775 19 384 128 
L 384 978 
Q 719 816 1070 734 
Q 1422 653 1784 653 
Q 2113 653 2278 743 
Q 2444 834 2444 1013 
Q 2444 1163 2330 1236 
Q 2216 1309 1875 1350 
L 1678 1375 
Q 931 1469 631 1722 
Q 331 1975 331 2491 
Q 331 3047 712 3315 
Q 1094 3584 1881 3584 
Q 2191 3584 2531 3537 
Q 2872 3491 3272 3391 
z
" transform="scale(0.015625)"/>
      <path id="DejaVuSans-Bold-74" d="M 1759 4494 
L 1759 3500 
L 2913 3500 
L 2913 2700 
L 1759 2700 
L 1759 1216 
Q 1759 972 1856 886 
Q 1953 800 2241 800 
L 2816 800 
L 2816 0 
L 1856 0 
Q 1194 0 917 276 
Q 641 553 641 1216 
L 641 2700 
L 84 2700 
L 84 3500 
L 641 3500 
L 641 4494 
L 1759 4494 
z
" transform="scale(0.015625)"/>
      <path id="DejaVuSans-Bold-79" d="M 78 3500 
L 1197 3500 
L 2138 1125 
L 2938 3500 
L 4056 3500 
L 2584 -331 
Q 2363 -916 2067 -1148 
Q 1772 -1381 1288 -1381 
L 641 -1381 
L 641 -647 
L 991 -647 
Q 1275 -647 1404 -556 
Q 1534 -466 1606 -231 
L 1638 -134 
L 78 3500 
z
" transform="scale(0.015625)"/>
     </defs>
     <use xlink:href="#DejaVuSans-Bold-45"/>
     <use xlink:href="#DejaVuSans-Bold-64" x="68.310547"/>
     <use xlink:href="#DejaVuSans-Bold-67" x="139.892578"/>
     <use xlink:href="#DejaVuSans-Bold-65" x="211.474609"/>
     <use xlink:href="#DejaVuSans-Bold-20" x="279.296875"/>
     <use xlink:href="#DejaVuSans-Bold-43" x="314.111328"/>
     <use xlink:href="#DejaVuSans-Bold-6f" x="387.5"/>
     <use xlink:href="#DejaVuSans-Bold-76" x="456.201172"/>
     <use xlink:href="#DejaVuSans-Bold-65" x="521.386719"/>
     <use xlink:href="#DejaVuSans-Bold-72" x="589.208984"/>
     <use xlink:href="#DejaVuSans-Bold-61" x="638.525391"/>
     <use xlink:href="#DejaVuSans-Bold-67" x="706.005859"/>
     <use xlink:href="#DejaVuSans-Bold-65" x="777.587891"/>
     <use xlink:href="#DejaVuSans-Bold-20" x="845.410156"/>
     <use xlink:href="#DejaVuSans-Bold-48" x="880.224609"/>
     <use xlink:href="#DejaVuSans-Bold-69" x="963.916016"/>
     <use xlink:href="#DejaVuSans-Bold-73" x="998.193359"/>
     <use xlink:href="#DejaVuSans-Bold-74" x="1057.714844"/>
     <use xlink:href="#DejaVuSans-Bold-6f" x="1105.517578"/>
     <use xlink:href="#DejaVuSans-Bold-72" x="1174.21875"/>
     <use xlink:href="#DejaVuSans-Bold-79" x="1223.535156"/>
    </g>
   </g>
   <g id="legend_1">
    <g id="patch_5">
     <path d="M 273.541 508.24 
L 385.07 508.24 
Q 386.83 508.24 386.83 506.48 
L 386.83 428.8405 
Q 386.83 427.0805 385.07 427.0805 
L 273.541 427.0805 
Q 271.781 427.0805 271.781 428.8405 
L 271.781 506.48 
Q 271.781 508.24 273.541 508.24 
z
" style="fill: #ffffff; opacity: 0.8; stroke: #cccccc; stroke-width: 0.8; stroke-linejoin: miter"/>
    </g>
    <g id="text_39">
     <!-- fuzzer -->
     <g style="fill: #262626" transform="translate(314.6085 437.895)scale(0.096 -0.096)">
      <defs>
       <path id="DejaVuSans-66" d="M 2375 4863 
L 2375 4384 
L 1825 4384 
Q 1516 4384 1395 4259 
Q 1275 4134 1275 3809 
L 1275 3500 
L 2222 3500 
L 2222 3053 
L 1275 3053 
L 1275 0 
L 697 0 
L 697 3053 
L 147 3053 
L 147 3500 
L 697 3500 
L 697 3744 
Q 697 4328 969 4595 
Q 1241 4863 1831 4863 
L 2375 4863 
z
" transform="scale(0.015625)"/>
       <path id="DejaVuSans-7a" d="M 353 3500 
L 3084 3500 
L 3084 2975 
L 922 459 
L 3084 459 
L 3084 0 
L 275 0 
L 275 525 
L 2438 3041 
L 353 3041 
L 353 3500 
z
" transform="scale(0.015625)"/>
      </defs>
      <use xlink:href="#DejaVuSans-66"/>
      <use xlink:href="#DejaVuSans-75" x="35.205078"/>
      <use xlink:href="#DejaVuSans-7a" x="98.583984"/>
      <use xlink:href="#DejaVuSans-7a" x="151.074219"/>
      <use xlink:href="#DejaVuSans-65" x="203.564453"/>
      <use xlink:href="#DejaVuSans-72" x="265.087891"/>
     </g>
    </g>
    <g id="line2d_46">
     <path d="M 275.301 447.898125 
L 284.101 447.898125 
L 292.901 447.898125 
" style="fill: none; stroke: #db5f57; stroke-width: 1.2; stroke-linecap: round"/>
    </g>
    <g id="text_40">
     <!-- aflplusplus-0-exid3 -->
     <g style="fill: #262626" transform="translate(299.941 450.978125)scale(0.088 -0.088)">
      <defs>
       <path id="DejaVuSans-6c" d="M 603 4863 
L 1178 4863 
L 1178 0 
L 603 0 
L 603 4863 
z
" transform="scale(0.015625)"/>
       <path id="DejaVuSans-70" d="M 1159 525 
L 1159 -1331 
L 581 -1331 
L 581 3500 
L 1159 3500 
L 1159 2969 
Q 1341 3281 1617 3432 
Q 1894 3584 2278 3584 
Q 2916 3584 3314 3078 
Q 3713 2572 3713 1747 
Q 3713 922 3314 415 
Q 2916 -91 2278 -91 
Q 1894 -91 1617 61 
Q 1341 213 1159 525 
z
M 3116 1747 
Q 3116 2381 2855 2742 
Q 2594 3103 2138 3103 
Q 1681 3103 1420 2742 
Q 1159 2381 1159 1747 
Q 1159 1113 1420 752 
Q 1681 391 2138 391 
Q 2594 391 2855 752 
Q 3116 1113 3116 1747 
z
" transform="scale(0.015625)"/>
       <path id="DejaVuSans-2d" d="M 313 2009 
L 1997 2009 
L 1997 1497 
L 313 1497 
L 313 2009 
z
" transform="scale(0.015625)"/>
       <path id="DejaVuSans-78" d="M 3513 3500 
L 2247 1797 
L 3578 0 
L 2900 0 
L 1881 1375 
L 863 0 
L 184 0 
L 1544 1831 
L 300 3500 
L 978 3500 
L 1906 2253 
L 2834 3500 
L 3513 3500 
z
" transform="scale(0.015625)"/>
      </defs>
      <use xlink:href="#DejaVuSans-61"/>
      <use xlink:href="#DejaVuSans-66" x="61.279297"/>
      <use xlink:href="#DejaVuSans-6c" x="96.484375"/>
      <use xlink:href="#DejaVuSans-70" x="124.267578"/>
      <use xlink:href="#DejaVuSans-6c" x="187.744141"/>
      <use xlink:href="#DejaVuSans-75" x="215.527344"/>
      <use xlink:href="#DejaVuSans-73" x="278.90625"/>
      <use xlink:href="#DejaVuSans-70" x="331.005859"/>
      <use xlink:href="#DejaVuSans-6c" x="394.482422"/>
      <use xlink:href="#DejaVuSans-75" x="422.265625"/>
      <use xlink:href="#DejaVuSans-73" x="485.644531"/>
      <use xlink:href="#DejaVuSans-2d" x="537.744141"/>
      <use xlink:href="#DejaVuSans-30" x="573.828125"/>
      <use xlink:href="#DejaVuSans-2d" x="637.451172"/>
      <use xlink:href="#DejaVuSans-65" x="673.535156"/>
      <use xlink:href="#DejaVuSans-78" x="733.308594"/>
      <use xlink:href="#DejaVuSans-69" x="792.488281"/>
      <use xlink:href="#DejaVuSans-64" x="820.271484"/>
      <use xlink:href="#DejaVuSans-33" x="883.748047"/>
     </g>
    </g>
    <g id="line2d_47">
     <path d="M 275.301 460.814875 
L 284.101 460.814875 
L 292.901 460.814875 
" style="fill: none; stroke: #b9db57; stroke-width: 1.2; stroke-linecap: round"/>
    </g>
    <g id="text_41">
     <!-- fairfuzz-0-exid3 -->
     <g style="fill: #262626" transform="translate(299.941 463.894875)scale(0.088 -0.088)">
      <use xlink:href="#DejaVuSans-66"/>
      <use xlink:href="#DejaVuSans-61" x="35.205078"/>
      <use xlink:href="#DejaVuSans-69" x="96.484375"/>
      <use xlink:href="#DejaVuSans-72" x="124.267578"/>
      <use xlink:href="#DejaVuSans-66" x="165.380859"/>
      <use xlink:href="#DejaVuSans-75" x="200.585938"/>
      <use xlink:href="#DejaVuSans-7a" x="263.964844"/>
      <use xlink:href="#DejaVuSans-7a" x="316.455078"/>
      <use xlink:href="#DejaVuSans-2d" x="368.945312"/>
      <use xlink:href="#DejaVuSans-30" x="405.029297"/>
      <use xlink:href="#DejaVuSans-2d" x="468.652344"/>
      <use xlink:href="#DejaVuSans-65" x="504.736328"/>
      <use xlink:href="#DejaVuSans-78" x="564.509766"/>
      <use xlink:href="#DejaVuSans-69" x="623.689453"/>
      <use xlink:href="#DejaVuSans-64" x="651.472656"/>
      <use xlink:href="#DejaVuSans-33" x="714.949219"/>
     </g>
    </g>
    <g id="line2d_48">
     <path d="M 275.301 473.731625 
L 284.101 473.731625 
L 292.901 473.731625 
" style="fill: none; stroke: #57db94; stroke-width: 1.2; stroke-linecap: round"/>
    </g>
    <g id="text_42">
     <!-- mopt-0-exid3 -->
     <g style="fill: #262626" transform="translate(299.941 476.811625)scale(0.088 -0.088)">
      <use xlink:href="#DejaVuSans-6d"/>
      <use xlink:href="#DejaVuSans-6f" x="97.412109"/>
      <use xlink:href="#DejaVuSans-70" x="158.59375"/>
      <use xlink:href="#DejaVuSans-74" x="222.070312"/>
      <use xlink:href="#DejaVuSans-2d" x="261.279297"/>
      <use xlink:href="#DejaVuSans-30" x="297.363281"/>
      <use xlink:href="#DejaVuSans-2d" x="360.986328"/>
      <use xlink:href="#DejaVuSans-65" x="397.070312"/>
      <use xlink:href="#DejaVuSans-78" x="456.84375"/>
      <use xlink:href="#DejaVuSans-69" x="516.023438"/>
      <use xlink:href="#DejaVuSans-64" x="543.806641"/>
      <use xlink:href="#DejaVuSans-33" x="607.283203"/>
     </g>
    </g>
    <g id="line2d_49">
     <path d="M 275.301 486.648375 
L 284.101 486.648375 
L 292.901 486.648375 
" style="fill: none; stroke: #5784db; stroke-width: 1.2; stroke-linecap: round"/>
    </g>
    <g id="text_43">
     <!-- symcc-0-exid3 -->
     <g style="fill: #262626" transform="translate(299.941 489.728375)scale(0.088 -0.088)">
      <defs>
       <path id="DejaVuSans-79" d="M 2059 -325 
Q 1816 -950 1584 -1140 
Q 1353 -1331 966 -1331 
L 506 -1331 
L 506 -850 
L 844 -850 
Q 1081 -850 1212 -737 
Q 1344 -625 1503 -206 
L 1606 56 
L 191 3500 
L 800 3500 
L 1894 763 
L 2988 3500 
L 3597 3500 
L 2059 -325 
z
" transform="scale(0.015625)"/>
       <path id="DejaVuSans-63" d="M 3122 3366 
L 3122 2828 
Q 2878 2963 2633 3030 
Q 2388 3097 2138 3097 
Q 1578 3097 1268 2742 
Q 959 2388 959 1747 
Q 959 1106 1268 751 
Q 1578 397 2138 397 
Q 2388 397 2633 464 
Q 2878 531 3122 666 
L 3122 134 
Q 2881 22 2623 -34 
Q 2366 -91 2075 -91 
Q 1284 -91 818 406 
Q 353 903 353 1747 
Q 353 2603 823 3093 
Q 1294 3584 2113 3584 
Q 2378 3584 2631 3529 
Q 2884 3475 3122 3366 
z
" transform="scale(0.015625)"/>
      </defs>
      <use xlink:href="#DejaVuSans-73"/>
      <use xlink:href="#DejaVuSans-79" x="52.099609"/>
      <use xlink:href="#DejaVuSans-6d" x="111.279297"/>
      <use xlink:href="#DejaVuSans-63" x="208.691406"/>
      <use xlink:href="#DejaVuSans-63" x="263.671875"/>
      <use xlink:href="#DejaVuSans-2d" x="318.652344"/>
      <use xlink:href="#DejaVuSans-30" x="354.736328"/>
      <use xlink:href="#DejaVuSans-2d" x="418.359375"/>
      <use xlink:href="#DejaVuSans-65" x="454.443359"/>
      <use xlink:href="#DejaVuSans-78" x="514.216797"/>
      <use xlink:href="#DejaVuSans-69" x="573.396484"/>
      <use xlink:href="#DejaVuSans-64" x="601.179688"/>
      <use xlink:href="#DejaVuSans-33" x="664.65625"/>
     </g>
    </g>
    <g id="line2d_50">
     <path d="M 275.301 499.565125 
L 284.101 499.565125 
L 292.901 499.565125 
" style="fill: none; stroke: #c957db; stroke-width: 1.2; stroke-linecap: round"/>
    </g>
    <g id="text_44">
     <!-- fuzzer_global -->
     <g style="fill: #262626" transform="translate(299.941 502.645125)scale(0.088 -0.088)">
      <defs>
       <path id="DejaVuSans-5f" d="M 3263 -1063 
L 3263 -1509 
L -63 -1509 
L -63 -1063 
L 3263 -1063 
z
" transform="scale(0.015625)"/>
       <path id="DejaVuSans-62" d="M 3116 1747 
Q 3116 2381 2855 2742 
Q 2594 3103 2138 3103 
Q 1681 3103 1420 2742 
Q 1159 2381 1159 1747 
Q 1159 1113 1420 752 
Q 1681 391 2138 391 
Q 2594 391 2855 752 
Q 3116 1113 3116 1747 
z
M 1159 2969 
Q 1341 3281 1617 3432 
Q 1894 3584 2278 3584 
Q 2916 3584 3314 3078 
Q 3713 2572 3713 1747 
Q 3713 922 3314 415 
Q 2916 -91 2278 -91 
Q 1894 -91 1617 61 
Q 1341 213 1159 525 
L 1159 0 
L 581 0 
L 581 4863 
L 1159 4863 
L 1159 2969 
z
" transform="scale(0.015625)"/>
      </defs>
      <use xlink:href="#DejaVuSans-66"/>
      <use xlink:href="#DejaVuSans-75" x="35.205078"/>
      <use xlink:href="#DejaVuSans-7a" x="98.583984"/>
      <use xlink:href="#DejaVuSans-7a" x="151.074219"/>
      <use xlink:href="#DejaVuSans-65" x="203.564453"/>
      <use xlink:href="#DejaVuSans-72" x="265.087891"/>
      <use xlink:href="#DejaVuSans-5f" x="306.201172"/>
      <use xlink:href="#DejaVuSans-67" x="356.201172"/>
      <use xlink:href="#DejaVuSans-6c" x="419.677734"/>
      <use xlink:href="#DejaVuSans-6f" x="447.460938"/>
      <use xlink:href="#DejaVuSans-62" x="508.642578"/>
      <use xlink:href="#DejaVuSans-61" x="572.119141"/>
      <use xlink:href="#DejaVuSans-6c" x="633.398438"/>
     </g>
    </g>
   </g>
  </g>
 </g>
 <defs>
  <clipPath id="p7a89953619">
   <rect x="54.3375" y="69.12" width="336.8925" height="443.52"/>
  </clipPath>
 </defs>
</svg>
