<?xml version="1.0" encoding="utf-8" standalone="no"?>
<!DOCTYPE svg PUBLIC "-//W3C//DTD SVG 1.1//EN"
  "http://www.w3.org/Graphics/SVG/1.1/DTD/svg11.dtd">
<svg xmlns:xlink="http://www.w3.org/1999/xlink" width="434.4pt" height="576pt" viewBox="0 0 434.4 576" xmlns="http://www.w3.org/2000/svg" version="1.1">
 <metadata>
  <rdf:RDF xmlns:dc="http://purl.org/dc/elements/1.1/" xmlns:cc="http://creativecommons.org/ns#" xmlns:rdf="http://www.w3.org/1999/02/22-rdf-syntax-ns#">
   <cc:Work>
    <dc:type rdf:resource="http://purl.org/dc/dcmitype/StillImage"/>
    <dc:date>2022-09-15T09:03:24.392659</dc:date>
    <dc:format>image/svg+xml</dc:format>
    <dc:creator>
     <cc:Agent>
      <dc:title>Matplotlib v3.5.3, https://matplotlib.org/</dc:title>
     </cc:Agent>
    </dc:creator>
   </cc:Work>
  </rdf:RDF>
 </metadata>
 <defs>
  <style type="text/css">*{stroke-linejoin: round; stroke-linecap: butt}</style>
 </defs>
 <g id="figure_1">
  <g id="patch_1">
   <path d="M 0 576 
L 434.4 576 
L 434.4 0 
L 0 0 
z
" style="fill: #ffffff"/>
  </g>
  <g id="axes_1">
   <g id="patch_2">
    <path d="M 54.3 512.64 
L 390.96 512.64 
L 390.96 69.12 
L 54.3 69.12 
z
" style="fill: #ffffff"/>
   </g>
   <g id="matplotlib.axis_1">
    <g id="xtick_1">
     <g id="line2d_1">
      <path d="M 69.602727 512.64 
L 69.602727 69.12 
" clip-path="url(#p5f595514ed)" style="fill: none; stroke: #cccccc; stroke-width: 0.8; stroke-linecap: round"/>
     </g>
     <g id="text_1">
      <!-- 0 -->
      <g style="fill: #262626" transform="translate(69.340214 529.627249)rotate(-45)scale(0.088 -0.088)">
       <defs>
        <path id="DejaVuSans-30" d="M 2034 4250 
Q 1547 4250 1301 3770 
Q 1056 3291 1056 2328 
Q 1056 1369 1301 889 
Q 1547 409 2034 409 
Q 2525 409 2770 889 
Q 3016 1369 3016 2328 
Q 3016 3291 2770 3770 
Q 2525 4250 2034 4250 
z
M 2034 4750 
Q 2819 4750 3233 4129 
Q 3647 3509 3647 2328 
Q 3647 1150 3233 529 
Q 2819 -91 2034 -91 
Q 1250 -91 836 529 
Q 422 1150 422 2328 
Q 422 3509 836 4129 
Q 1250 4750 2034 4750 
z
" transform="scale(0.015625)"/>
       </defs>
       <use xlink:href="#DejaVuSans-30"/>
      </g>
     </g>
    </g>
    <g id="xtick_2">
     <g id="line2d_2">
      <path d="M 86.629406 512.64 
L 86.629406 69.12 
" clip-path="url(#p5f595514ed)" style="fill: none; stroke: #cccccc; stroke-width: 0.8; stroke-linecap: round"/>
     </g>
     <g id="text_2">
      <!-- 80 -->
      <g style="fill: #262626" transform="translate(84.387347 533.58634)rotate(-45)scale(0.088 -0.088)">
       <defs>
        <path id="DejaVuSans-38" d="M 2034 2216 
Q 1584 2216 1326 1975 
Q 1069 1734 1069 1313 
Q 1069 891 1326 650 
Q 1584 409 2034 409 
Q 2484 409 2743 651 
Q 3003 894 3003 1313 
Q 3003 1734 2745 1975 
Q 2488 2216 2034 2216 
z
M 1403 2484 
Q 997 2584 770 2862 
Q 544 3141 544 3541 
Q 544 4100 942 4425 
Q 1341 4750 2034 4750 
Q 2731 4750 3128 4425 
Q 3525 4100 3525 3541 
Q 3525 3141 3298 2862 
Q 3072 2584 2669 2484 
Q 3125 2378 3379 2068 
Q 3634 1759 3634 1313 
Q 3634 634 3220 271 
Q 2806 -91 2034 -91 
Q 1263 -91 848 271 
Q 434 634 434 1313 
Q 434 1759 690 2068 
Q 947 2378 1403 2484 
z
M 1172 3481 
Q 1172 3119 1398 2916 
Q 1625 2713 2034 2713 
Q 2441 2713 2670 2916 
Q 2900 3119 2900 3481 
Q 2900 3844 2670 4047 
Q 2441 4250 2034 4250 
Q 1625 4250 1398 4047 
Q 1172 3844 1172 3481 
z
" transform="scale(0.015625)"/>
       </defs>
       <use xlink:href="#DejaVuSans-38"/>
       <use xlink:href="#DejaVuSans-30" x="63.623047"/>
      </g>
     </g>
    </g>
    <g id="xtick_3">
     <g id="line2d_3">
      <path d="M 103.656084 512.64 
L 103.656084 69.12 
" clip-path="url(#p5f595514ed)" style="fill: none; stroke: #cccccc; stroke-width: 0.8; stroke-linecap: round"/>
     </g>
     <g id="text_3">
      <!-- 160 -->
      <g style="fill: #262626" transform="translate(99.43448 537.54543)rotate(-45)scale(0.088 -0.088)">
       <defs>
        <path id="DejaVuSans-31" d="M 794 531 
L 1825 531 
L 1825 4091 
L 703 3866 
L 703 4441 
L 1819 4666 
L 2450 4666 
L 2450 531 
L 3481 531 
L 3481 0 
L 794 0 
L 794 531 
z
" transform="scale(0.015625)"/>
        <path id="DejaVuSans-36" d="M 2113 2584 
Q 1688 2584 1439 2293 
Q 1191 2003 1191 1497 
Q 1191 994 1439 701 
Q 1688 409 2113 409 
Q 2538 409 2786 701 
Q 3034 994 3034 1497 
Q 3034 2003 2786 2293 
Q 2538 2584 2113 2584 
z
M 3366 4563 
L 3366 3988 
Q 3128 4100 2886 4159 
Q 2644 4219 2406 4219 
Q 1781 4219 1451 3797 
Q 1122 3375 1075 2522 
Q 1259 2794 1537 2939 
Q 1816 3084 2150 3084 
Q 2853 3084 3261 2657 
Q 3669 2231 3669 1497 
Q 3669 778 3244 343 
Q 2819 -91 2113 -91 
Q 1303 -91 875 529 
Q 447 1150 447 2328 
Q 447 3434 972 4092 
Q 1497 4750 2381 4750 
Q 2619 4750 2861 4703 
Q 3103 4656 3366 4563 
z
" transform="scale(0.015625)"/>
       </defs>
       <use xlink:href="#DejaVuSans-31"/>
       <use xlink:href="#DejaVuSans-36" x="63.623047"/>
       <use xlink:href="#DejaVuSans-30" x="127.246094"/>
      </g>
     </g>
    </g>
    <g id="xtick_4">
     <g id="line2d_4">
      <path d="M 120.682763 512.64 
L 120.682763 69.12 
" clip-path="url(#p5f595514ed)" style="fill: none; stroke: #cccccc; stroke-width: 0.8; stroke-linecap: round"/>
     </g>
     <g id="text_4">
      <!-- 240 -->
      <g style="fill: #262626" transform="translate(116.461158 537.54543)rotate(-45)scale(0.088 -0.088)">
       <defs>
        <path id="DejaVuSans-32" d="M 1228 531 
L 3431 531 
L 3431 0 
L 469 0 
L 469 531 
Q 828 903 1448 1529 
Q 2069 2156 2228 2338 
Q 2531 2678 2651 2914 
Q 2772 3150 2772 3378 
Q 2772 3750 2511 3984 
Q 2250 4219 1831 4219 
Q 1534 4219 1204 4116 
Q 875 4013 500 3803 
L 500 4441 
Q 881 4594 1212 4672 
Q 1544 4750 1819 4750 
Q 2544 4750 2975 4387 
Q 3406 4025 3406 3419 
Q 3406 3131 3298 2873 
Q 3191 2616 2906 2266 
Q 2828 2175 2409 1742 
Q 1991 1309 1228 531 
z
" transform="scale(0.015625)"/>
        <path id="DejaVuSans-34" d="M 2419 4116 
L 825 1625 
L 2419 1625 
L 2419 4116 
z
M 2253 4666 
L 3047 4666 
L 3047 1625 
L 3713 1625 
L 3713 1100 
L 3047 1100 
L 3047 0 
L 2419 0 
L 2419 1100 
L 313 1100 
L 313 1709 
L 2253 4666 
z
" transform="scale(0.015625)"/>
       </defs>
       <use xlink:href="#DejaVuSans-32"/>
       <use xlink:href="#DejaVuSans-34" x="63.623047"/>
       <use xlink:href="#DejaVuSans-30" x="127.246094"/>
      </g>
     </g>
    </g>
    <g id="xtick_5">
     <g id="line2d_5">
      <path d="M 137.709441 512.64 
L 137.709441 69.12 
" clip-path="url(#p5f595514ed)" style="fill: none; stroke: #cccccc; stroke-width: 0.8; stroke-linecap: round"/>
     </g>
     <g id="text_5">
      <!-- 320 -->
      <g style="fill: #262626" transform="translate(133.487837 537.54543)rotate(-45)scale(0.088 -0.088)">
       <defs>
        <path id="DejaVuSans-33" d="M 2597 2516 
Q 3050 2419 3304 2112 
Q 3559 1806 3559 1356 
Q 3559 666 3084 287 
Q 2609 -91 1734 -91 
Q 1441 -91 1130 -33 
Q 819 25 488 141 
L 488 750 
Q 750 597 1062 519 
Q 1375 441 1716 441 
Q 2309 441 2620 675 
Q 2931 909 2931 1356 
Q 2931 1769 2642 2001 
Q 2353 2234 1838 2234 
L 1294 2234 
L 1294 2753 
L 1863 2753 
Q 2328 2753 2575 2939 
Q 2822 3125 2822 3475 
Q 2822 3834 2567 4026 
Q 2313 4219 1838 4219 
Q 1578 4219 1281 4162 
Q 984 4106 628 3988 
L 628 4550 
Q 988 4650 1302 4700 
Q 1616 4750 1894 4750 
Q 2613 4750 3031 4423 
Q 3450 4097 3450 3541 
Q 3450 3153 3228 2886 
Q 3006 2619 2597 2516 
z
" transform="scale(0.015625)"/>
       </defs>
       <use xlink:href="#DejaVuSans-33"/>
       <use xlink:href="#DejaVuSans-32" x="63.623047"/>
       <use xlink:href="#DejaVuSans-30" x="127.246094"/>
      </g>
     </g>
    </g>
    <g id="xtick_6">
     <g id="line2d_6">
      <path d="M 154.73612 512.64 
L 154.73612 69.12 
" clip-path="url(#p5f595514ed)" style="fill: none; stroke: #cccccc; stroke-width: 0.8; stroke-linecap: round"/>
     </g>
     <g id="text_6">
      <!-- 400 -->
      <g style="fill: #262626" transform="translate(150.514515 537.54543)rotate(-45)scale(0.088 -0.088)">
       <use xlink:href="#DejaVuSans-34"/>
       <use xlink:href="#DejaVuSans-30" x="63.623047"/>
       <use xlink:href="#DejaVuSans-30" x="127.246094"/>
      </g>
     </g>
    </g>
    <g id="xtick_7">
     <g id="line2d_7">
      <path d="M 171.762798 512.64 
L 171.762798 69.12 
" clip-path="url(#p5f595514ed)" style="fill: none; stroke: #cccccc; stroke-width: 0.8; stroke-linecap: round"/>
     </g>
     <g id="text_7">
      <!-- 480 -->
      <g style="fill: #262626" transform="translate(167.541194 537.54543)rotate(-45)scale(0.088 -0.088)">
       <use xlink:href="#DejaVuSans-34"/>
       <use xlink:href="#DejaVuSans-38" x="63.623047"/>
       <use xlink:href="#DejaVuSans-30" x="127.246094"/>
      </g>
     </g>
    </g>
    <g id="xtick_8">
     <g id="line2d_8">
      <path d="M 188.789477 512.64 
L 188.789477 69.12 
" clip-path="url(#p5f595514ed)" style="fill: none; stroke: #cccccc; stroke-width: 0.8; stroke-linecap: round"/>
     </g>
     <g id="text_8">
      <!-- 560 -->
      <g style="fill: #262626" transform="translate(184.567872 537.54543)rotate(-45)scale(0.088 -0.088)">
       <defs>
        <path id="DejaVuSans-35" d="M 691 4666 
L 3169 4666 
L 3169 4134 
L 1269 4134 
L 1269 2991 
Q 1406 3038 1543 3061 
Q 1681 3084 1819 3084 
Q 2600 3084 3056 2656 
Q 3513 2228 3513 1497 
Q 3513 744 3044 326 
Q 2575 -91 1722 -91 
Q 1428 -91 1123 -41 
Q 819 9 494 109 
L 494 744 
Q 775 591 1075 516 
Q 1375 441 1709 441 
Q 2250 441 2565 725 
Q 2881 1009 2881 1497 
Q 2881 1984 2565 2268 
Q 2250 2553 1709 2553 
Q 1456 2553 1204 2497 
Q 953 2441 691 2322 
L 691 4666 
z
" transform="scale(0.015625)"/>
       </defs>
       <use xlink:href="#DejaVuSans-35"/>
       <use xlink:href="#DejaVuSans-36" x="63.623047"/>
       <use xlink:href="#DejaVuSans-30" x="127.246094"/>
      </g>
     </g>
    </g>
    <g id="xtick_9">
     <g id="line2d_9">
      <path d="M 205.816155 512.64 
L 205.816155 69.12 
" clip-path="url(#p5f595514ed)" style="fill: none; stroke: #cccccc; stroke-width: 0.8; stroke-linecap: round"/>
     </g>
     <g id="text_9">
      <!-- 640 -->
      <g style="fill: #262626" transform="translate(201.594551 537.54543)rotate(-45)scale(0.088 -0.088)">
       <use xlink:href="#DejaVuSans-36"/>
       <use xlink:href="#DejaVuSans-34" x="63.623047"/>
       <use xlink:href="#DejaVuSans-30" x="127.246094"/>
      </g>
     </g>
    </g>
    <g id="xtick_10">
     <g id="line2d_10">
      <path d="M 222.842833 512.64 
L 222.842833 69.12 
" clip-path="url(#p5f595514ed)" style="fill: none; stroke: #cccccc; stroke-width: 0.8; stroke-linecap: round"/>
     </g>
     <g id="text_10">
      <!-- 720 -->
      <g style="fill: #262626" transform="translate(218.621229 537.54543)rotate(-45)scale(0.088 -0.088)">
       <defs>
        <path id="DejaVuSans-37" d="M 525 4666 
L 3525 4666 
L 3525 4397 
L 1831 0 
L 1172 0 
L 2766 4134 
L 525 4134 
L 525 4666 
z
" transform="scale(0.015625)"/>
       </defs>
       <use xlink:href="#DejaVuSans-37"/>
       <use xlink:href="#DejaVuSans-32" x="63.623047"/>
       <use xlink:href="#DejaVuSans-30" x="127.246094"/>
      </g>
     </g>
    </g>
    <g id="xtick_11">
     <g id="line2d_11">
      <path d="M 239.869512 512.64 
L 239.869512 69.12 
" clip-path="url(#p5f595514ed)" style="fill: none; stroke: #cccccc; stroke-width: 0.8; stroke-linecap: round"/>
     </g>
     <g id="text_11">
      <!-- 800 -->
      <g style="fill: #262626" transform="translate(235.647908 537.54543)rotate(-45)scale(0.088 -0.088)">
       <use xlink:href="#DejaVuSans-38"/>
       <use xlink:href="#DejaVuSans-30" x="63.623047"/>
       <use xlink:href="#DejaVuSans-30" x="127.246094"/>
      </g>
     </g>
    </g>
    <g id="xtick_12">
     <g id="line2d_12">
      <path d="M 256.89619 512.64 
L 256.89619 69.12 
" clip-path="url(#p5f595514ed)" style="fill: none; stroke: #cccccc; stroke-width: 0.8; stroke-linecap: round"/>
     </g>
     <g id="text_12">
      <!-- 880 -->
      <g style="fill: #262626" transform="translate(252.674586 537.54543)rotate(-45)scale(0.088 -0.088)">
       <use xlink:href="#DejaVuSans-38"/>
       <use xlink:href="#DejaVuSans-38" x="63.623047"/>
       <use xlink:href="#DejaVuSans-30" x="127.246094"/>
      </g>
     </g>
    </g>
    <g id="xtick_13">
     <g id="line2d_13">
      <path d="M 273.922869 512.64 
L 273.922869 69.12 
" clip-path="url(#p5f595514ed)" style="fill: none; stroke: #cccccc; stroke-width: 0.8; stroke-linecap: round"/>
     </g>
     <g id="text_13">
      <!-- 960 -->
      <g style="fill: #262626" transform="translate(269.701265 537.54543)rotate(-45)scale(0.088 -0.088)">
       <defs>
        <path id="DejaVuSans-39" d="M 703 97 
L 703 672 
Q 941 559 1184 500 
Q 1428 441 1663 441 
Q 2288 441 2617 861 
Q 2947 1281 2994 2138 
Q 2813 1869 2534 1725 
Q 2256 1581 1919 1581 
Q 1219 1581 811 2004 
Q 403 2428 403 3163 
Q 403 3881 828 4315 
Q 1253 4750 1959 4750 
Q 2769 4750 3195 4129 
Q 3622 3509 3622 2328 
Q 3622 1225 3098 567 
Q 2575 -91 1691 -91 
Q 1453 -91 1209 -44 
Q 966 3 703 97 
z
M 1959 2075 
Q 2384 2075 2632 2365 
Q 2881 2656 2881 3163 
Q 2881 3666 2632 3958 
Q 2384 4250 1959 4250 
Q 1534 4250 1286 3958 
Q 1038 3666 1038 3163 
Q 1038 2656 1286 2365 
Q 1534 2075 1959 2075 
z
" transform="scale(0.015625)"/>
       </defs>
       <use xlink:href="#DejaVuSans-39"/>
       <use xlink:href="#DejaVuSans-36" x="63.623047"/>
       <use xlink:href="#DejaVuSans-30" x="127.246094"/>
      </g>
     </g>
    </g>
    <g id="xtick_14">
     <g id="line2d_14">
      <path d="M 290.949547 512.64 
L 290.949547 69.12 
" clip-path="url(#p5f595514ed)" style="fill: none; stroke: #cccccc; stroke-width: 0.8; stroke-linecap: round"/>
     </g>
     <g id="text_14">
      <!-- 1040 -->
      <g style="fill: #262626" transform="translate(284.748398 541.504521)rotate(-45)scale(0.088 -0.088)">
       <use xlink:href="#DejaVuSans-31"/>
       <use xlink:href="#DejaVuSans-30" x="63.623047"/>
       <use xlink:href="#DejaVuSans-34" x="127.246094"/>
       <use xlink:href="#DejaVuSans-30" x="190.869141"/>
      </g>
     </g>
    </g>
    <g id="xtick_15">
     <g id="line2d_15">
      <path d="M 307.976226 512.64 
L 307.976226 69.12 
" clip-path="url(#p5f595514ed)" style="fill: none; stroke: #cccccc; stroke-width: 0.8; stroke-linecap: round"/>
     </g>
     <g id="text_15">
      <!-- 1120 -->
      <g style="fill: #262626" transform="translate(301.775076 541.504521)rotate(-45)scale(0.088 -0.088)">
       <use xlink:href="#DejaVuSans-31"/>
       <use xlink:href="#DejaVuSans-31" x="63.623047"/>
       <use xlink:href="#DejaVuSans-32" x="127.246094"/>
       <use xlink:href="#DejaVuSans-30" x="190.869141"/>
      </g>
     </g>
    </g>
    <g id="xtick_16">
     <g id="line2d_16">
      <path d="M 325.002904 512.64 
L 325.002904 69.12 
" clip-path="url(#p5f595514ed)" style="fill: none; stroke: #cccccc; stroke-width: 0.8; stroke-linecap: round"/>
     </g>
     <g id="text_16">
      <!-- 1200 -->
      <g style="fill: #262626" transform="translate(318.801755 541.504521)rotate(-45)scale(0.088 -0.088)">
       <use xlink:href="#DejaVuSans-31"/>
       <use xlink:href="#DejaVuSans-32" x="63.623047"/>
       <use xlink:href="#DejaVuSans-30" x="127.246094"/>
       <use xlink:href="#DejaVuSans-30" x="190.869141"/>
      </g>
     </g>
    </g>
    <g id="xtick_17">
     <g id="line2d_17">
      <path d="M 342.029583 512.64 
L 342.029583 69.12 
" clip-path="url(#p5f595514ed)" style="fill: none; stroke: #cccccc; stroke-width: 0.8; stroke-linecap: round"/>
     </g>
     <g id="text_17">
      <!-- 1280 -->
      <g style="fill: #262626" transform="translate(335.828433 541.504521)rotate(-45)scale(0.088 -0.088)">
       <use xlink:href="#DejaVuSans-31"/>
       <use xlink:href="#DejaVuSans-32" x="63.623047"/>
       <use xlink:href="#DejaVuSans-38" x="127.246094"/>
       <use xlink:href="#DejaVuSans-30" x="190.869141"/>
      </g>
     </g>
    </g>
    <g id="xtick_18">
     <g id="line2d_18">
      <path d="M 359.056261 512.64 
L 359.056261 69.12 
" clip-path="url(#p5f595514ed)" style="fill: none; stroke: #cccccc; stroke-width: 0.8; stroke-linecap: round"/>
     </g>
     <g id="text_18">
      <!-- 1360 -->
      <g style="fill: #262626" transform="translate(352.855112 541.504521)rotate(-45)scale(0.088 -0.088)">
       <use xlink:href="#DejaVuSans-31"/>
       <use xlink:href="#DejaVuSans-33" x="63.623047"/>
       <use xlink:href="#DejaVuSans-36" x="127.246094"/>
       <use xlink:href="#DejaVuSans-30" x="190.869141"/>
      </g>
     </g>
    </g>
    <g id="xtick_19">
     <g id="line2d_19">
      <path d="M 376.08294 512.64 
L 376.08294 69.12 
" clip-path="url(#p5f595514ed)" style="fill: none; stroke: #cccccc; stroke-width: 0.8; stroke-linecap: round"/>
     </g>
     <g id="text_19">
      <!-- 1440 -->
      <g style="fill: #262626" transform="translate(369.88179 541.504521)rotate(-45)scale(0.088 -0.088)">
       <use xlink:href="#DejaVuSans-31"/>
       <use xlink:href="#DejaVuSans-34" x="63.623047"/>
       <use xlink:href="#DejaVuSans-34" x="127.246094"/>
       <use xlink:href="#DejaVuSans-30" x="190.869141"/>
      </g>
     </g>
    </g>
    <g id="text_20">
     <!-- Time (Minutes) -->
     <g style="fill: #262626" transform="translate(186.72 554.093115)scale(0.096 -0.096)">
      <defs>
       <path id="DejaVuSans-54" d="M -19 4666 
L 3928 4666 
L 3928 4134 
L 2272 4134 
L 2272 0 
L 1638 0 
L 1638 4134 
L -19 4134 
L -19 4666 
z
" transform="scale(0.015625)"/>
       <path id="DejaVuSans-69" d="M 603 3500 
L 1178 3500 
L 1178 0 
L 603 0 
L 603 3500 
z
M 603 4863 
L 1178 4863 
L 1178 4134 
L 603 4134 
L 603 4863 
z
" transform="scale(0.015625)"/>
       <path id="DejaVuSans-6d" d="M 3328 2828 
Q 3544 3216 3844 3400 
Q 4144 3584 4550 3584 
Q 5097 3584 5394 3201 
Q 5691 2819 5691 2113 
L 5691 0 
L 5113 0 
L 5113 2094 
Q 5113 2597 4934 2840 
Q 4756 3084 4391 3084 
Q 3944 3084 3684 2787 
Q 3425 2491 3425 1978 
L 3425 0 
L 2847 0 
L 2847 2094 
Q 2847 2600 2669 2842 
Q 2491 3084 2119 3084 
Q 1678 3084 1418 2786 
Q 1159 2488 1159 1978 
L 1159 0 
L 581 0 
L 581 3500 
L 1159 3500 
L 1159 2956 
Q 1356 3278 1631 3431 
Q 1906 3584 2284 3584 
Q 2666 3584 2933 3390 
Q 3200 3197 3328 2828 
z
" transform="scale(0.015625)"/>
       <path id="DejaVuSans-65" d="M 3597 1894 
L 3597 1613 
L 953 1613 
Q 991 1019 1311 708 
Q 1631 397 2203 397 
Q 2534 397 2845 478 
Q 3156 559 3463 722 
L 3463 178 
Q 3153 47 2828 -22 
Q 2503 -91 2169 -91 
Q 1331 -91 842 396 
Q 353 884 353 1716 
Q 353 2575 817 3079 
Q 1281 3584 2069 3584 
Q 2775 3584 3186 3129 
Q 3597 2675 3597 1894 
z
M 3022 2063 
Q 3016 2534 2758 2815 
Q 2500 3097 2075 3097 
Q 1594 3097 1305 2825 
Q 1016 2553 972 2059 
L 3022 2063 
z
" transform="scale(0.015625)"/>
       <path id="DejaVuSans-20" transform="scale(0.015625)"/>
       <path id="DejaVuSans-28" d="M 1984 4856 
Q 1566 4138 1362 3434 
Q 1159 2731 1159 2009 
Q 1159 1288 1364 580 
Q 1569 -128 1984 -844 
L 1484 -844 
Q 1016 -109 783 600 
Q 550 1309 550 2009 
Q 550 2706 781 3412 
Q 1013 4119 1484 4856 
L 1984 4856 
z
" transform="scale(0.015625)"/>
       <path id="DejaVuSans-4d" d="M 628 4666 
L 1569 4666 
L 2759 1491 
L 3956 4666 
L 4897 4666 
L 4897 0 
L 4281 0 
L 4281 4097 
L 3078 897 
L 2444 897 
L 1241 4097 
L 1241 0 
L 628 0 
L 628 4666 
z
" transform="scale(0.015625)"/>
       <path id="DejaVuSans-6e" d="M 3513 2113 
L 3513 0 
L 2938 0 
L 2938 2094 
Q 2938 2591 2744 2837 
Q 2550 3084 2163 3084 
Q 1697 3084 1428 2787 
Q 1159 2491 1159 1978 
L 1159 0 
L 581 0 
L 581 3500 
L 1159 3500 
L 1159 2956 
Q 1366 3272 1645 3428 
Q 1925 3584 2291 3584 
Q 2894 3584 3203 3211 
Q 3513 2838 3513 2113 
z
" transform="scale(0.015625)"/>
       <path id="DejaVuSans-75" d="M 544 1381 
L 544 3500 
L 1119 3500 
L 1119 1403 
Q 1119 906 1312 657 
Q 1506 409 1894 409 
Q 2359 409 2629 706 
Q 2900 1003 2900 1516 
L 2900 3500 
L 3475 3500 
L 3475 0 
L 2900 0 
L 2900 538 
Q 2691 219 2414 64 
Q 2138 -91 1772 -91 
Q 1169 -91 856 284 
Q 544 659 544 1381 
z
M 1991 3584 
L 1991 3584 
z
" transform="scale(0.015625)"/>
       <path id="DejaVuSans-74" d="M 1172 4494 
L 1172 3500 
L 2356 3500 
L 2356 3053 
L 1172 3053 
L 1172 1153 
Q 1172 725 1289 603 
Q 1406 481 1766 481 
L 2356 481 
L 2356 0 
L 1766 0 
Q 1100 0 847 248 
Q 594 497 594 1153 
L 594 3053 
L 172 3053 
L 172 3500 
L 594 3500 
L 594 4494 
L 1172 4494 
z
" transform="scale(0.015625)"/>
       <path id="DejaVuSans-73" d="M 2834 3397 
L 2834 2853 
Q 2591 2978 2328 3040 
Q 2066 3103 1784 3103 
Q 1356 3103 1142 2972 
Q 928 2841 928 2578 
Q 928 2378 1081 2264 
Q 1234 2150 1697 2047 
L 1894 2003 
Q 2506 1872 2764 1633 
Q 3022 1394 3022 966 
Q 3022 478 2636 193 
Q 2250 -91 1575 -91 
Q 1294 -91 989 -36 
Q 684 19 347 128 
L 347 722 
Q 666 556 975 473 
Q 1284 391 1588 391 
Q 1994 391 2212 530 
Q 2431 669 2431 922 
Q 2431 1156 2273 1281 
Q 2116 1406 1581 1522 
L 1381 1569 
Q 847 1681 609 1914 
Q 372 2147 372 2553 
Q 372 3047 722 3315 
Q 1072 3584 1716 3584 
Q 2034 3584 2315 3537 
Q 2597 3491 2834 3397 
z
" transform="scale(0.015625)"/>
       <path id="DejaVuSans-29" d="M 513 4856 
L 1013 4856 
Q 1481 4119 1714 3412 
Q 1947 2706 1947 2009 
Q 1947 1309 1714 600 
Q 1481 -109 1013 -844 
L 513 -844 
Q 928 -128 1133 580 
Q 1338 1288 1338 2009 
Q 1338 2731 1133 3434 
Q 928 4138 513 4856 
z
" transform="scale(0.015625)"/>
      </defs>
      <use xlink:href="#DejaVuSans-54"/>
      <use xlink:href="#DejaVuSans-69" x="57.958984"/>
      <use xlink:href="#DejaVuSans-6d" x="85.742188"/>
      <use xlink:href="#DejaVuSans-65" x="183.154297"/>
      <use xlink:href="#DejaVuSans-20" x="244.677734"/>
      <use xlink:href="#DejaVuSans-28" x="276.464844"/>
      <use xlink:href="#DejaVuSans-4d" x="315.478516"/>
      <use xlink:href="#DejaVuSans-69" x="401.757812"/>
      <use xlink:href="#DejaVuSans-6e" x="429.541016"/>
      <use xlink:href="#DejaVuSans-75" x="492.919922"/>
      <use xlink:href="#DejaVuSans-74" x="556.298828"/>
      <use xlink:href="#DejaVuSans-65" x="595.507812"/>
      <use xlink:href="#DejaVuSans-73" x="657.03125"/>
      <use xlink:href="#DejaVuSans-29" x="709.130859"/>
     </g>
    </g>
   </g>
   <g id="matplotlib.axis_2">
    <g id="ytick_1">
     <g id="line2d_20">
      <path d="M 54.3 492.48 
L 390.96 492.48 
" clip-path="url(#p5f595514ed)" style="fill: none; stroke: #cccccc; stroke-width: 0.8; stroke-linecap: round"/>
     </g>
     <g id="text_21">
      <!-- 0 -->
      <g style="fill: #262626" transform="translate(40.401 495.823312)scale(0.088 -0.088)">
       <use xlink:href="#DejaVuSans-30"/>
      </g>
     </g>
    </g>
    <g id="ytick_2">
     <g id="line2d_21">
      <path d="M 54.3 426.597647 
L 390.96 426.597647 
" clip-path="url(#p5f595514ed)" style="fill: none; stroke: #cccccc; stroke-width: 0.8; stroke-linecap: round"/>
     </g>
     <g id="text_22">
      <!-- 100 -->
      <g style="fill: #262626" transform="translate(29.203 429.94096)scale(0.088 -0.088)">
       <use xlink:href="#DejaVuSans-31"/>
       <use xlink:href="#DejaVuSans-30" x="63.623047"/>
       <use xlink:href="#DejaVuSans-30" x="127.246094"/>
      </g>
     </g>
    </g>
    <g id="ytick_3">
     <g id="line2d_22">
      <path d="M 54.3 360.715294 
L 390.96 360.715294 
" clip-path="url(#p5f595514ed)" style="fill: none; stroke: #cccccc; stroke-width: 0.8; stroke-linecap: round"/>
     </g>
     <g id="text_23">
      <!-- 200 -->
      <g style="fill: #262626" transform="translate(29.203 364.058607)scale(0.088 -0.088)">
       <use xlink:href="#DejaVuSans-32"/>
       <use xlink:href="#DejaVuSans-30" x="63.623047"/>
       <use xlink:href="#DejaVuSans-30" x="127.246094"/>
      </g>
     </g>
    </g>
    <g id="ytick_4">
     <g id="line2d_23">
      <path d="M 54.3 294.832941 
L 390.96 294.832941 
" clip-path="url(#p5f595514ed)" style="fill: none; stroke: #cccccc; stroke-width: 0.8; stroke-linecap: round"/>
     </g>
     <g id="text_24">
      <!-- 300 -->
      <g style="fill: #262626" transform="translate(29.203 298.176254)scale(0.088 -0.088)">
       <use xlink:href="#DejaVuSans-33"/>
       <use xlink:href="#DejaVuSans-30" x="63.623047"/>
       <use xlink:href="#DejaVuSans-30" x="127.246094"/>
      </g>
     </g>
    </g>
    <g id="ytick_5">
     <g id="line2d_24">
      <path d="M 54.3 228.950588 
L 390.96 228.950588 
" clip-path="url(#p5f595514ed)" style="fill: none; stroke: #cccccc; stroke-width: 0.8; stroke-linecap: round"/>
     </g>
     <g id="text_25">
      <!-- 400 -->
      <g style="fill: #262626" transform="translate(29.203 232.293901)scale(0.088 -0.088)">
       <use xlink:href="#DejaVuSans-34"/>
       <use xlink:href="#DejaVuSans-30" x="63.623047"/>
       <use xlink:href="#DejaVuSans-30" x="127.246094"/>
      </g>
     </g>
    </g>
    <g id="ytick_6">
     <g id="line2d_25">
      <path d="M 54.3 163.068235 
L 390.96 163.068235 
" clip-path="url(#p5f595514ed)" style="fill: none; stroke: #cccccc; stroke-width: 0.8; stroke-linecap: round"/>
     </g>
     <g id="text_26">
      <!-- 500 -->
      <g style="fill: #262626" transform="translate(29.203 166.411548)scale(0.088 -0.088)">
       <use xlink:href="#DejaVuSans-35"/>
       <use xlink:href="#DejaVuSans-30" x="63.623047"/>
       <use xlink:href="#DejaVuSans-30" x="127.246094"/>
      </g>
     </g>
    </g>
    <g id="ytick_7">
     <g id="line2d_26">
      <path d="M 54.3 97.185882 
L 390.96 97.185882 
" clip-path="url(#p5f595514ed)" style="fill: none; stroke: #cccccc; stroke-width: 0.8; stroke-linecap: round"/>
     </g>
     <g id="text_27">
      <!-- 600 -->
      <g style="fill: #262626" transform="translate(29.203 100.529195)scale(0.088 -0.088)">
       <use xlink:href="#DejaVuSans-36"/>
       <use xlink:href="#DejaVuSans-30" x="63.623047"/>
       <use xlink:href="#DejaVuSans-30" x="127.246094"/>
      </g>
     </g>
    </g>
    <g id="text_28">
     <!-- Edge Coverages -->
     <g style="fill: #262626" transform="translate(23.2065 329.98575)rotate(-90)scale(0.096 -0.096)">
      <defs>
       <path id="DejaVuSans-45" d="M 628 4666 
L 3578 4666 
L 3578 4134 
L 1259 4134 
L 1259 2753 
L 3481 2753 
L 3481 2222 
L 1259 2222 
L 1259 531 
L 3634 531 
L 3634 0 
L 628 0 
L 628 4666 
z
" transform="scale(0.015625)"/>
       <path id="DejaVuSans-64" d="M 2906 2969 
L 2906 4863 
L 3481 4863 
L 3481 0 
L 2906 0 
L 2906 525 
Q 2725 213 2448 61 
Q 2172 -91 1784 -91 
Q 1150 -91 751 415 
Q 353 922 353 1747 
Q 353 2572 751 3078 
Q 1150 3584 1784 3584 
Q 2172 3584 2448 3432 
Q 2725 3281 2906 2969 
z
M 947 1747 
Q 947 1113 1208 752 
Q 1469 391 1925 391 
Q 2381 391 2643 752 
Q 2906 1113 2906 1747 
Q 2906 2381 2643 2742 
Q 2381 3103 1925 3103 
Q 1469 3103 1208 2742 
Q 947 2381 947 1747 
z
" transform="scale(0.015625)"/>
       <path id="DejaVuSans-67" d="M 2906 1791 
Q 2906 2416 2648 2759 
Q 2391 3103 1925 3103 
Q 1463 3103 1205 2759 
Q 947 2416 947 1791 
Q 947 1169 1205 825 
Q 1463 481 1925 481 
Q 2391 481 2648 825 
Q 2906 1169 2906 1791 
z
M 3481 434 
Q 3481 -459 3084 -895 
Q 2688 -1331 1869 -1331 
Q 1566 -1331 1297 -1286 
Q 1028 -1241 775 -1147 
L 775 -588 
Q 1028 -725 1275 -790 
Q 1522 -856 1778 -856 
Q 2344 -856 2625 -561 
Q 2906 -266 2906 331 
L 2906 616 
Q 2728 306 2450 153 
Q 2172 0 1784 0 
Q 1141 0 747 490 
Q 353 981 353 1791 
Q 353 2603 747 3093 
Q 1141 3584 1784 3584 
Q 2172 3584 2450 3431 
Q 2728 3278 2906 2969 
L 2906 3500 
L 3481 3500 
L 3481 434 
z
" transform="scale(0.015625)"/>
       <path id="DejaVuSans-43" d="M 4122 4306 
L 4122 3641 
Q 3803 3938 3442 4084 
Q 3081 4231 2675 4231 
Q 1875 4231 1450 3742 
Q 1025 3253 1025 2328 
Q 1025 1406 1450 917 
Q 1875 428 2675 428 
Q 3081 428 3442 575 
Q 3803 722 4122 1019 
L 4122 359 
Q 3791 134 3420 21 
Q 3050 -91 2638 -91 
Q 1578 -91 968 557 
Q 359 1206 359 2328 
Q 359 3453 968 4101 
Q 1578 4750 2638 4750 
Q 3056 4750 3426 4639 
Q 3797 4528 4122 4306 
z
" transform="scale(0.015625)"/>
       <path id="DejaVuSans-6f" d="M 1959 3097 
Q 1497 3097 1228 2736 
Q 959 2375 959 1747 
Q 959 1119 1226 758 
Q 1494 397 1959 397 
Q 2419 397 2687 759 
Q 2956 1122 2956 1747 
Q 2956 2369 2687 2733 
Q 2419 3097 1959 3097 
z
M 1959 3584 
Q 2709 3584 3137 3096 
Q 3566 2609 3566 1747 
Q 3566 888 3137 398 
Q 2709 -91 1959 -91 
Q 1206 -91 779 398 
Q 353 888 353 1747 
Q 353 2609 779 3096 
Q 1206 3584 1959 3584 
z
" transform="scale(0.015625)"/>
       <path id="DejaVuSans-76" d="M 191 3500 
L 800 3500 
L 1894 563 
L 2988 3500 
L 3597 3500 
L 2284 0 
L 1503 0 
L 191 3500 
z
" transform="scale(0.015625)"/>
       <path id="DejaVuSans-72" d="M 2631 2963 
Q 2534 3019 2420 3045 
Q 2306 3072 2169 3072 
Q 1681 3072 1420 2755 
Q 1159 2438 1159 1844 
L 1159 0 
L 581 0 
L 581 3500 
L 1159 3500 
L 1159 2956 
Q 1341 3275 1631 3429 
Q 1922 3584 2338 3584 
Q 2397 3584 2469 3576 
Q 2541 3569 2628 3553 
L 2631 2963 
z
" transform="scale(0.015625)"/>
       <path id="DejaVuSans-61" d="M 2194 1759 
Q 1497 1759 1228 1600 
Q 959 1441 959 1056 
Q 959 750 1161 570 
Q 1363 391 1709 391 
Q 2188 391 2477 730 
Q 2766 1069 2766 1631 
L 2766 1759 
L 2194 1759 
z
M 3341 1997 
L 3341 0 
L 2766 0 
L 2766 531 
Q 2569 213 2275 61 
Q 1981 -91 1556 -91 
Q 1019 -91 701 211 
Q 384 513 384 1019 
Q 384 1609 779 1909 
Q 1175 2209 1959 2209 
L 2766 2209 
L 2766 2266 
Q 2766 2663 2505 2880 
Q 2244 3097 1772 3097 
Q 1472 3097 1187 3025 
Q 903 2953 641 2809 
L 641 3341 
Q 956 3463 1253 3523 
Q 1550 3584 1831 3584 
Q 2591 3584 2966 3190 
Q 3341 2797 3341 1997 
z
" transform="scale(0.015625)"/>
      </defs>
      <use xlink:href="#DejaVuSans-45"/>
      <use xlink:href="#DejaVuSans-64" x="63.183594"/>
      <use xlink:href="#DejaVuSans-67" x="126.660156"/>
      <use xlink:href="#DejaVuSans-65" x="190.136719"/>
      <use xlink:href="#DejaVuSans-20" x="251.660156"/>
      <use xlink:href="#DejaVuSans-43" x="283.447266"/>
      <use xlink:href="#DejaVuSans-6f" x="353.271484"/>
      <use xlink:href="#DejaVuSans-76" x="414.453125"/>
      <use xlink:href="#DejaVuSans-65" x="473.632812"/>
      <use xlink:href="#DejaVuSans-72" x="535.15625"/>
      <use xlink:href="#DejaVuSans-61" x="576.269531"/>
      <use xlink:href="#DejaVuSans-67" x="637.548828"/>
      <use xlink:href="#DejaVuSans-65" x="701.025391"/>
      <use xlink:href="#DejaVuSans-73" x="762.548828"/>
     </g>
    </g>
   </g>
   <g id="PolyCollection_1">
    <defs>
     <path id="m2232c348ff" d="M 69.602727 -105.92 
L 69.602727 -83.52 
L 69.602727 -105.92 
L 69.602727 -105.92 
z
" style="stroke: #db5f57; stroke-opacity: 0.2; stroke-width: 0.8"/>
    </defs>
    <g clip-path="url(#p5f595514ed)">
     <use xlink:href="#m2232c348ff" x="0" y="576" style="fill: #db5f57; fill-opacity: 0.2; stroke: #db5f57; stroke-opacity: 0.2; stroke-width: 0.8"/>
    </g>
   </g>
   <g id="PolyCollection_2">
    <defs>
     <path id="mca65cec203" d="M 69.602727 -104.602353 
L 69.602727 -83.52 
L 69.602727 -104.602353 
L 69.602727 -104.602353 
z
" style="stroke: #b9db57; stroke-opacity: 0.2; stroke-width: 0.8"/>
    </defs>
    <g clip-path="url(#p5f595514ed)">
     <use xlink:href="#mca65cec203" x="0" y="576" style="fill: #b9db57; fill-opacity: 0.2; stroke: #b9db57; stroke-opacity: 0.2; stroke-width: 0.8"/>
    </g>
   </g>
   <g id="PolyCollection_3">
    <defs>
     <path id="m146ca033ed" d="M 69.602727 -140.837647 
L 69.602727 -83.52 
L 69.602727 -140.837647 
L 69.602727 -140.837647 
z
" style="stroke: #57db94; stroke-opacity: 0.2; stroke-width: 0.8"/>
    </defs>
    <g clip-path="url(#p5f595514ed)">
     <use xlink:href="#m146ca033ed" x="0" y="576" style="fill: #57db94; fill-opacity: 0.2; stroke: #57db94; stroke-opacity: 0.2; stroke-width: 0.8"/>
    </g>
   </g>
   <g id="PolyCollection_4">
    <defs>
     <path id="m23e81f92e1" d="M 69.602727 -90.108235 
L 69.602727 -83.52 
L 69.602727 -90.108235 
L 69.602727 -90.108235 
z
" style="stroke: #5784db; stroke-opacity: 0.2; stroke-width: 0.8"/>
    </defs>
    <g clip-path="url(#p5f595514ed)">
     <use xlink:href="#m23e81f92e1" x="0" y="576" style="fill: #5784db; fill-opacity: 0.2; stroke: #5784db; stroke-opacity: 0.2; stroke-width: 0.8"/>
    </g>
   </g>
   <g id="PolyCollection_5">
    <defs>
     <path id="mc7917292ee" d="M 69.602727 -147.425882 
L 69.602727 -83.52 
L 69.602727 -147.425882 
L 69.602727 -147.425882 
z
" style="stroke: #c957db; stroke-opacity: 0.2; stroke-width: 0.8"/>
    </defs>
    <g clip-path="url(#p5f595514ed)">
     <use xlink:href="#mc7917292ee" x="0" y="576" style="fill: #c957db; fill-opacity: 0.2; stroke: #c957db; stroke-opacity: 0.2; stroke-width: 0.8"/>
    </g>
   </g>
   <g id="line2d_27">
    <path d="M 69.602727 481.28 
L 69.815561 431.209412 
L 70.879728 394.315294 
L 71.092562 354.785882 
L 71.731062 348.197647 
L 72.369563 340.291765 
L 72.795229 338.974118 
L 73.008063 338.974118 
L 73.220896 331.068235 
L 73.646563 327.774118 
L 74.285064 327.774118 
L 74.497897 326.456471 
L 74.710731 323.821176 
L 75.136398 322.503529 
L 75.349231 320.527059 
L 75.562065 319.868235 
L 75.774898 318.550588 
L 75.987732 318.550588 
L 76.200565 313.938824 
L 76.413399 313.938824 
L 77.477566 310.644706 
L 77.6904 310.644706 
L 77.903233 309.985882 
L 78.3289 309.985882 
L 78.541733 309.327059 
L 79.180234 306.032941 
L 79.393067 305.374118 
L 79.818734 305.374118 
L 80.031568 304.056471 
L 80.457235 304.056471 
L 80.670068 302.08 
L 81.095735 302.08 
L 81.308569 295.491765 
L 81.734236 290.88 
L 81.947069 289.562353 
L 82.58557 282.974118 
L 83.011237 279.68 
L 83.22407 278.362353 
L 85.352405 278.362353 
L 85.565238 266.503529 
L 85.778072 266.503529 
L 85.990905 263.209412 
L 86.203739 261.891765 
L 87.055073 261.891765 
L 87.267906 260.574118 
L 87.48074 260.574118 
L 87.693573 259.915294 
L 87.906407 256.621176 
L 88.11924 255.962353 
L 88.332074 255.962353 
L 88.544907 248.715294 
L 89.821908 248.715294 
L 90.886075 242.785882 
L 91.311742 241.468235 
L 91.737409 241.468235 
L 91.950243 239.491765 
L 92.37591 238.174118 
L 93.652911 238.174118 
L 94.078578 236.197647 
L 94.291411 235.538824 
L 94.504245 234.221176 
L 98.122414 234.221176 
L 98.335247 233.562353 
L 98.548081 233.562353 
L 98.760914 232.903529 
L 98.973748 232.903529 
L 99.186581 232.244706 
L 103.230417 232.244706 
L 103.443251 231.585882 
L 103.868918 231.585882 
L 104.081751 230.927059 
L 105.358752 230.927059 
L 105.997252 228.950588 
L 106.635753 228.950588 
L 106.848586 228.291765 
L 107.06142 226.315294 
L 107.487087 226.315294 
L 107.69992 225.656471 
L 108.125587 225.656471 
L 108.338421 224.338824 
L 108.551254 224.338824 
L 108.764088 223.68 
L 108.976921 223.68 
L 109.402588 222.362353 
L 109.615422 222.362353 
L 109.828255 221.703529 
L 110.041089 221.703529 
L 110.892423 217.091765 
L 111.105256 210.503529 
L 111.31809 207.868235 
L 111.743756 206.550588 
L 111.95659 201.28 
L 112.169423 199.962353 
L 112.382257 199.962353 
L 112.59509 197.985882 
L 112.807924 197.985882 
L 114.084925 190.738824 
L 116.85176 190.738824 
L 117.064594 190.08 
L 117.277427 188.762353 
L 118.341594 188.762353 
L 118.554428 188.103529 
L 118.767261 188.103529 
L 118.980095 187.444706 
L 119.618595 187.444706 
L 119.831429 186.127059 
L 120.044262 186.127059 
L 120.257096 185.468235 
L 120.469929 185.468235 
L 120.895596 184.150588 
L 121.10843 184.150588 
L 121.534097 182.832941 
L 121.959764 182.832941 
L 122.385431 181.515294 
L 122.598264 181.515294 
L 122.811097 180.856471 
L 124.300932 180.856471 
L 124.513765 178.88 
L 125.152266 178.88 
L 125.577933 177.562353 
L 126.6421 177.562353 
L 126.854934 176.903529 
L 128.131935 176.903529 
L 128.557601 175.585882 
L 128.770435 174.268235 
L 130.260269 174.268235 
L 130.685936 172.950588 
L 134.091272 172.950588 
L 134.304105 169.656471 
L 134.729772 168.338824 
L 134.942606 168.338824 
L 135.155439 167.021176 
L 136.006773 167.021176 
L 136.219607 166.362353 
L 137.070941 166.362353 
L 137.283774 163.727059 
L 138.560775 163.727059 
L 138.773609 163.068235 
L 138.986442 163.068235 
L 139.199276 161.750588 
L 140.68911 161.750588 
L 140.901943 159.774118 
L 141.114777 159.774118 
L 141.540444 158.456471 
L 141.966111 158.456471 
L 142.178944 157.797647 
L 143.243112 157.797647 
L 143.455945 156.48 
L 145.158613 156.48 
L 145.371446 155.821176 
L 147.074114 155.821176 
L 147.286948 155.162353 
L 147.712615 155.162353 
L 147.925448 153.844706 
L 150.905117 153.844706 
L 151.11795 152.527059 
L 151.969284 152.527059 
L 152.182118 151.868235 
L 155.587454 151.868235 
L 156.01312 149.891765 
L 156.438787 149.891765 
L 156.651621 149.232941 
L 157.077288 147.256471 
L 157.290121 147.256471 
L 157.502955 146.597647 
L 159.205623 146.597647 
L 159.418456 145.28 
L 162.398125 145.28 
L 162.610958 143.962353 
L 164.52646 143.962353 
L 164.739293 143.303529 
L 171.762798 143.303529 
L 171.975632 142.644706 
L 172.188465 142.644706 
L 172.401299 141.985882 
L 173.465466 141.985882 
L 173.678299 141.327059 
L 180.276137 141.327059 
L 180.488971 136.715294 
L 185.809808 136.715294 
L 186.022641 134.738824 
L 186.448308 134.738824 
L 186.661142 134.08 
L 187.299642 134.08 
L 187.512476 133.421176 
L 188.576643 133.421176 
L 188.789477 132.762353 
L 193.89748 132.762353 
L 194.323147 130.785882 
L 195.174481 130.785882 
L 195.387314 130.127059 
L 196.451482 130.127059 
L 196.877149 128.809412 
L 202.197986 128.809412 
L 202.410819 128.150588 
L 204.326321 128.150588 
L 204.539154 127.491765 
L 213.903827 127.491765 
L 214.116661 126.832941 
L 244.126182 126.832941 
L 244.339015 126.174118 
L 250.936853 126.174118 
L 251.149686 125.515294 
L 258.386025 125.515294 
L 258.598858 124.856471 
L 264.132529 124.856471 
L 264.345362 124.197647 
L 264.771029 124.197647 
L 264.983863 123.538824 
L 299.250053 123.538824 
L 299.462887 122.88 
L 324.15157 122.88 
L 324.364404 122.221176 
L 337.985747 122.221176 
L 338.19858 121.562353 
L 341.391082 121.562353 
L 341.603916 120.903529 
L 342.029583 120.903529 
L 342.242416 120.244706 
L 349.478755 120.244706 
L 349.691588 118.927059 
L 364.377098 118.927059 
L 364.589932 118.268235 
L 369.910769 118.268235 
L 370.123602 117.609412 
L 374.805939 117.609412 
L 375.018772 116.950588 
L 375.657273 116.950588 
L 375.657273 116.950588 
" clip-path="url(#p5f595514ed)" style="fill: none; stroke: #db5f57; stroke-width: 1.2; stroke-linecap: round"/>
   </g>
   <g id="line2d_28">
    <path d="M 69.602727 481.938824 
L 69.815561 422.644706 
L 70.028394 412.103529 
L 70.454061 405.515294 
L 70.666895 404.856471 
L 71.518229 387.727059 
L 71.731062 385.750588 
L 71.943896 350.174118 
L 72.369563 348.197647 
L 73.008063 332.385882 
L 73.220896 332.385882 
L 73.646563 328.432941 
L 74.285064 328.432941 
L 75.349231 321.844706 
L 75.562065 321.844706 
L 75.774898 320.527059 
L 76.413399 320.527059 
L 76.626232 315.915294 
L 76.839066 315.915294 
L 77.051899 314.597647 
L 77.264733 314.597647 
L 77.6904 313.28 
L 78.116067 313.28 
L 78.3289 312.621176 
L 78.541733 312.621176 
L 78.754567 311.962353 
L 78.9674 311.962353 
L 79.180234 309.327059 
L 79.393067 309.327059 
L 79.605901 308.668235 
L 79.818734 308.668235 
L 80.031568 307.350588 
L 80.244401 307.350588 
L 80.457235 306.691765 
L 80.670068 306.691765 
L 80.882902 306.032941 
L 81.095735 302.738824 
L 81.308569 302.738824 
L 81.521402 296.809412 
L 81.734236 294.174118 
L 81.947069 294.174118 
L 82.159903 290.88 
L 82.372736 290.88 
L 82.798403 284.291765 
L 83.011237 284.291765 
L 83.22407 281.656471 
L 83.436904 281.656471 
L 83.649737 280.997647 
L 83.86257 280.997647 
L 84.075404 277.044706 
L 84.288237 277.044706 
L 84.501071 276.385882 
L 84.926738 276.385882 
L 85.139571 271.115294 
L 85.565238 271.115294 
L 85.778072 265.844706 
L 86.203739 265.844706 
L 86.416572 265.185882 
L 86.629406 265.185882 
L 86.842239 264.527059 
L 87.055073 264.527059 
L 87.267906 263.209412 
L 87.693573 263.209412 
L 87.906407 259.256471 
L 88.11924 259.256471 
L 88.332074 252.668235 
L 89.183408 252.668235 
L 89.396241 252.009412 
L 89.821908 252.009412 
L 90.034741 251.350588 
L 90.247575 251.350588 
L 91.311742 245.421176 
L 91.737409 244.103529 
L 91.950243 244.103529 
L 92.37591 241.468235 
L 92.588743 241.468235 
L 92.801577 240.809412 
L 95.994079 240.809412 
L 96.632579 237.515294 
L 97.696747 237.515294 
L 97.90958 236.856471 
L 98.122414 236.856471 
L 98.335247 236.197647 
L 98.973748 236.197647 
L 99.186581 235.538824 
L 100.676415 235.538824 
L 100.889249 234.88 
L 103.656084 234.88 
L 103.868918 234.221176 
L 104.081751 234.221176 
L 104.294585 233.562353 
L 104.720252 233.562353 
L 104.933085 232.903529 
L 105.571586 232.903529 
L 105.997252 231.585882 
L 106.635753 231.585882 
L 106.848586 230.927059 
L 107.06142 228.950588 
L 107.69992 228.950588 
L 107.912754 228.291765 
L 111.95659 228.291765 
L 112.169423 207.209412 
L 112.59509 207.209412 
L 112.807924 203.915294 
L 113.233591 203.915294 
L 113.446424 200.621176 
L 113.659258 200.621176 
L 113.872091 197.327059 
L 114.936259 197.327059 
L 115.149092 196.009412 
L 118.341594 196.009412 
L 118.767261 194.691765 
L 118.980095 194.691765 
L 119.192928 193.374118 
L 119.831429 193.374118 
L 120.257096 192.056471 
L 120.469929 192.056471 
L 120.682763 190.738824 
L 121.321263 190.738824 
L 121.534097 190.08 
L 122.811097 190.08 
L 123.023931 189.421176 
L 123.875265 189.421176 
L 124.088098 188.762353 
L 124.513765 188.762353 
L 124.726599 185.468235 
L 125.577933 185.468235 
L 125.790766 184.150588 
L 128.770435 184.150588 
L 128.983268 180.856471 
L 130.685936 180.856471 
L 130.89877 180.197647 
L 132.814271 180.197647 
L 133.027105 178.221176 
L 133.239938 178.221176 
L 133.452772 177.562353 
L 133.878438 177.562353 
L 134.091272 176.903529 
L 134.516939 176.903529 
L 134.729772 176.244706 
L 134.942606 174.927059 
L 135.155439 174.927059 
L 135.368273 174.268235 
L 136.219607 174.268235 
L 136.43244 173.609412 
L 136.858107 171.632941 
L 137.283774 171.632941 
L 137.496608 170.974118 
L 138.986442 170.974118 
L 139.199276 168.997647 
L 139.624942 168.997647 
L 140.050609 167.021176 
L 142.391778 167.021176 
L 142.604611 164.385882 
L 143.243112 164.385882 
L 143.455945 163.727059 
L 145.371446 163.727059 
L 145.58428 163.068235 
L 147.286948 163.068235 
L 147.499781 160.432941 
L 150.266617 160.432941 
L 150.47945 159.774118 
L 151.330784 159.774118 
L 151.543617 159.115294 
L 152.182118 159.115294 
L 152.394951 158.456471 
L 153.671952 158.456471 
L 153.884786 157.797647 
L 155.800287 157.797647 
L 156.01312 156.48 
L 156.225954 156.48 
L 156.438787 155.821176 
L 156.651621 155.821176 
L 157.077288 154.503529 
L 157.928622 154.503529 
L 158.141455 153.844706 
L 158.354289 153.844706 
L 158.567122 153.185882 
L 158.779956 153.185882 
L 158.992789 152.527059 
L 159.844123 152.527059 
L 160.482624 150.550588 
L 161.333958 150.550588 
L 161.546791 149.891765 
L 164.100793 149.891765 
L 164.313626 149.232941 
L 164.52646 149.232941 
L 164.739293 148.574118 
L 171.549965 148.574118 
L 171.762798 147.915294 
L 172.401299 147.915294 
L 172.614132 147.256471 
L 173.039799 147.256471 
L 173.252632 146.597647 
L 177.934969 146.597647 
L 178.147803 145.938824 
L 178.360636 145.938824 
L 178.573469 145.28 
L 178.999136 145.28 
L 179.21197 144.621176 
L 179.424803 144.621176 
L 179.637637 143.962353 
L 180.276137 143.962353 
L 180.488971 143.303529 
L 181.765972 143.303529 
L 181.978805 142.644706 
L 183.894306 142.644706 
L 184.319973 141.327059 
L 187.086809 141.327059 
L 187.299642 140.009412 
L 189.215144 140.009412 
L 189.427977 139.350588 
L 190.066477 139.350588 
L 190.279311 138.691765 
L 190.704978 138.691765 
L 190.917811 138.032941 
L 193.684647 138.032941 
L 193.89748 137.374118 
L 194.110314 137.374118 
L 194.323147 136.715294 
L 195.600148 136.715294 
L 195.812981 136.056471 
L 197.515649 136.056471 
L 197.728483 135.397647 
L 202.197986 135.397647 
L 202.410819 134.738824 
L 212.413993 134.738824 
L 212.626826 134.08 
L 235.825676 134.08 
L 236.038509 133.421176 
L 244.339015 133.421176 
L 244.551849 132.762353 
L 251.149686 132.762353 
L 251.36252 132.103529 
L 258.386025 132.103529 
L 258.598858 131.444706 
L 264.132529 131.444706 
L 264.345362 130.785882 
L 264.983863 130.785882 
L 265.196696 130.127059 
L 299.250053 130.127059 
L 299.462887 129.468235 
L 316.276732 129.468235 
L 316.489565 128.809412 
L 330.536575 128.809412 
L 330.749408 128.150588 
L 337.56008 128.150588 
L 337.772913 127.491765 
L 337.985747 127.491765 
L 338.19858 126.832941 
L 342.029583 126.832941 
L 342.242416 126.174118 
L 342.45525 126.174118 
L 342.668083 125.515294 
L 349.691588 125.515294 
L 349.904422 124.856471 
L 360.758929 124.856471 
L 360.971763 124.197647 
L 363.100097 124.197647 
L 363.312931 123.538824 
L 373.954605 123.538824 
L 374.167438 122.88 
L 374.805939 122.88 
L 375.018772 122.221176 
L 375.657273 122.221176 
L 375.657273 122.221176 
" clip-path="url(#p5f595514ed)" style="fill: none; stroke: #b9db57; stroke-width: 1.2; stroke-linecap: round"/>
   </g>
   <g id="line2d_29">
    <path d="M 69.602727 463.821176 
L 69.815561 405.515294 
L 70.241228 397.609412 
L 70.454061 386.409412 
L 70.879728 378.503529 
L 71.092562 378.503529 
L 71.731062 373.891765 
L 71.943896 367.962353 
L 72.156729 367.303529 
L 72.369563 364.009412 
L 72.582396 362.691765 
L 72.795229 362.691765 
L 73.008063 354.785882 
L 73.43373 352.150588 
L 74.07223 352.150588 
L 74.285064 351.491765 
L 74.497897 351.491765 
L 75.349231 346.88 
L 75.562065 346.88 
L 75.774898 346.221176 
L 79.605901 346.221176 
L 79.818734 342.268235 
L 80.244401 340.950588 
L 80.457235 339.632941 
L 80.882902 294.174118 
L 81.095735 282.315294 
L 81.521402 276.385882 
L 81.734236 275.068235 
L 82.58557 265.844706 
L 82.798403 265.185882 
L 83.011237 265.185882 
L 83.22407 263.209412 
L 83.436904 263.209412 
L 83.649737 260.574118 
L 83.86257 260.574118 
L 84.075404 257.938824 
L 84.288237 257.938824 
L 84.501071 257.28 
L 85.139571 257.28 
L 85.352405 255.303529 
L 85.565238 255.303529 
L 85.778072 248.056471 
L 86.842239 248.056471 
L 87.055073 247.397647 
L 88.11924 247.397647 
L 88.332074 236.197647 
L 88.544907 235.538824 
L 90.247575 235.538824 
L 90.460408 234.221176 
L 91.737409 234.221176 
L 91.950243 233.562353 
L 92.588743 233.562353 
L 92.801577 232.903529 
L 93.652911 232.903529 
L 94.078578 231.585882 
L 104.507418 231.585882 
L 104.720252 230.927059 
L 108.976921 230.927059 
L 109.189755 230.268235 
L 109.828255 230.268235 
L 110.041089 205.232941 
L 110.253922 204.574118 
L 110.466756 193.374118 
L 110.679589 188.762353 
L 111.105256 187.444706 
L 111.31809 186.127059 
L 111.530923 186.127059 
L 111.743756 185.468235 
L 111.95659 185.468235 
L 112.169423 184.809412 
L 112.382257 184.809412 
L 112.59509 183.491765 
L 114.723425 183.491765 
L 114.936259 182.832941 
L 115.149092 181.515294 
L 118.767261 181.515294 
L 118.980095 180.856471 
L 132.601438 180.856471 
L 132.814271 178.88 
L 142.817445 178.88 
L 143.030278 177.562353 
L 144.520113 177.562353 
L 144.732946 176.903529 
L 156.01312 176.903529 
L 156.225954 176.244706 
L 158.141455 176.244706 
L 158.354289 175.585882 
L 158.779956 175.585882 
L 158.992789 174.927059 
L 160.26979 174.927059 
L 160.482624 155.162353 
L 161.121124 140.009412 
L 161.333958 126.174118 
L 161.546791 119.585882 
L 177.083635 119.585882 
L 177.509302 115.632941 
L 177.934969 114.315294 
L 178.360636 114.315294 
L 178.573469 113.656471 
L 178.999136 113.656471 
L 179.424803 111.68 
L 180.063304 111.68 
L 180.276137 111.021176 
L 181.765972 111.021176 
L 181.978805 110.362353 
L 183.46864 110.362353 
L 183.681473 109.703529 
L 186.448308 109.703529 
L 186.661142 109.044706 
L 189.427977 109.044706 
L 189.64081 108.385882 
L 212.413993 108.385882 
L 212.626826 105.091765 
L 212.83966 103.774118 
L 254.767856 103.774118 
L 255.193523 102.456471 
L 265.622363 102.456471 
L 265.835197 100.48 
L 303.293889 100.48 
L 303.506723 99.821176 
L 316.276732 99.821176 
L 316.489565 99.162353 
L 342.668083 99.162353 
L 342.880917 98.503529 
L 343.09375 98.503529 
L 343.306584 96.527059 
L 356.715093 96.527059 
L 356.927926 95.868235 
L 367.5696 95.868235 
L 367.782434 95.209412 
L 375.657273 95.209412 
L 375.657273 95.209412 
" clip-path="url(#p5f595514ed)" style="fill: none; stroke: #57db94; stroke-width: 1.2; stroke-linecap: round"/>
   </g>
   <g id="line2d_30">
    <path d="M 69.602727 489.185882 
L 69.815561 485.891765 
L 70.879728 485.891765 
L 71.092562 481.938824 
L 71.943896 449.656471 
L 72.156729 344.244706 
L 74.07223 344.244706 
L 74.285064 343.585882 
L 76.200565 343.585882 
L 76.626232 341.609412 
L 76.839066 340.950588 
L 78.9674 340.950588 
L 79.180234 340.291765 
L 81.308569 340.291765 
L 81.521402 338.315294 
L 81.734236 338.315294 
L 81.947069 337.656471 
L 84.075404 337.656471 
L 84.713904 334.362353 
L 84.926738 326.456471 
L 85.139571 323.821176 
L 85.352405 268.48 
L 85.990905 268.48 
L 86.203739 267.821176 
L 86.416572 267.821176 
L 86.629406 263.209412 
L 86.842239 263.209412 
L 87.055073 262.550588 
L 87.267906 262.550588 
L 87.48074 261.891765 
L 88.11924 261.891765 
L 88.332074 260.574118 
L 88.544907 251.350588 
L 88.970574 251.350588 
L 89.183408 250.691765 
L 89.821908 250.691765 
L 90.460408 248.715294 
L 90.673242 247.397647 
L 90.886075 247.397647 
L 91.098909 244.103529 
L 91.524576 244.103529 
L 92.163076 242.127059 
L 92.37591 240.150588 
L 92.588743 239.491765 
L 96.632579 239.491765 
L 96.845413 236.856471 
L 97.696747 236.856471 
L 97.90958 236.197647 
L 107.69992 236.197647 
L 107.912754 226.315294 
L 108.125587 225.656471 
L 108.976921 225.656471 
L 109.189755 223.021176 
L 109.402588 223.021176 
L 109.615422 222.362353 
L 110.041089 222.362353 
L 110.253922 221.703529 
L 110.466756 219.727059 
L 111.530923 219.727059 
L 111.743756 205.232941 
L 111.95659 205.232941 
L 112.169423 204.574118 
L 113.233591 204.574118 
L 113.446424 198.644706 
L 113.659258 197.327059 
L 121.321263 197.327059 
L 121.534097 193.374118 
L 121.74693 186.785882 
L 122.598264 186.785882 
L 122.811097 186.127059 
L 123.236764 186.127059 
L 123.449598 184.809412 
L 123.662431 184.809412 
L 123.875265 184.150588 
L 124.939432 184.150588 
L 125.152266 183.491765 
L 126.216433 183.491765 
L 126.429267 182.174118 
L 127.280601 182.174118 
L 127.493434 181.515294 
L 128.131935 181.515294 
L 128.344768 180.856471 
L 128.770435 180.856471 
L 128.983268 178.88 
L 130.685936 178.88 
L 130.89877 178.221176 
L 132.814271 178.221176 
L 133.027105 176.244706 
L 133.878438 176.244706 
L 134.091272 175.585882 
L 134.729772 175.585882 
L 134.942606 172.950588 
L 136.219607 172.950588 
L 136.43244 170.974118 
L 137.709441 170.974118 
L 137.922275 168.997647 
L 138.560775 168.997647 
L 138.773609 168.338824 
L 138.986442 168.338824 
L 139.199276 166.362353 
L 139.412109 166.362353 
L 139.624942 165.703529 
L 140.476276 165.703529 
L 140.68911 165.044706 
L 141.114777 165.044706 
L 141.32761 163.727059 
L 141.966111 163.727059 
L 142.178944 163.068235 
L 142.391778 163.068235 
L 142.604611 162.409412 
L 144.094446 162.409412 
L 144.307279 161.091765 
L 145.371446 161.091765 
L 145.58428 160.432941 
L 146.861281 160.432941 
L 147.286948 159.115294 
L 149.415283 159.115294 
L 149.84095 157.797647 
L 375.657273 157.797647 
L 375.657273 157.797647 
" clip-path="url(#p5f595514ed)" style="fill: none; stroke: #5784db; stroke-width: 1.2; stroke-linecap: round"/>
   </g>
   <g id="line2d_31">
    <path d="M 69.602727 460.527059 
L 69.815561 396.291765 
L 70.241228 377.185882 
L 70.454061 360.056471 
L 71.092562 340.950588 
L 71.518229 335.68 
L 71.731062 333.703529 
L 72.156729 325.138824 
L 72.369563 321.844706 
L 72.582396 321.185882 
L 72.795229 321.185882 
L 73.008063 313.28 
L 73.220896 311.962353 
L 73.43373 309.327059 
L 74.285064 309.327059 
L 74.497897 308.009412 
L 74.710731 304.715294 
L 74.923564 304.715294 
L 75.136398 302.08 
L 75.349231 302.08 
L 75.562065 301.421176 
L 75.774898 300.103529 
L 75.987732 300.103529 
L 76.200565 296.150588 
L 76.626232 294.174118 
L 76.839066 293.515294 
L 77.051899 293.515294 
L 77.477566 292.197647 
L 77.6904 292.197647 
L 77.903233 291.538824 
L 78.3289 291.538824 
L 78.541733 290.88 
L 79.180234 287.585882 
L 79.393067 286.927059 
L 79.605901 286.927059 
L 80.031568 285.609412 
L 80.244401 285.609412 
L 80.670068 283.632941 
L 80.882902 283.632941 
L 81.095735 276.385882 
L 81.521402 269.797647 
L 81.734236 268.48 
L 81.947069 264.527059 
L 82.159903 263.209412 
L 82.58557 257.28 
L 83.011237 255.962353 
L 83.22407 253.985882 
L 83.436904 253.985882 
L 83.649737 251.350588 
L 83.86257 251.350588 
L 84.075404 248.715294 
L 84.501071 247.397647 
L 84.713904 247.397647 
L 84.926738 242.785882 
L 85.139571 242.127059 
L 85.352405 240.150588 
L 85.565238 240.150588 
L 85.778072 235.538824 
L 85.990905 235.538824 
L 86.203739 234.88 
L 86.842239 234.88 
L 87.055073 233.562353 
L 87.48074 233.562353 
L 87.693573 232.903529 
L 87.906407 229.609412 
L 88.11924 228.950588 
L 88.332074 217.091765 
L 88.544907 216.432941 
L 89.821908 216.432941 
L 90.886075 210.503529 
L 91.311742 209.185882 
L 91.524576 209.185882 
L 91.737409 208.527059 
L 92.163076 205.891765 
L 92.37591 205.891765 
L 92.588743 205.232941 
L 93.652911 205.232941 
L 93.865744 203.256471 
L 94.291411 201.938824 
L 97.696747 201.938824 
L 97.90958 201.28 
L 98.122414 201.28 
L 98.335247 200.621176 
L 98.973748 200.621176 
L 99.186581 199.962353 
L 103.230417 199.962353 
L 103.443251 199.303529 
L 103.868918 199.303529 
L 104.081751 198.644706 
L 104.507418 198.644706 
L 104.720252 197.985882 
L 105.571586 197.985882 
L 105.997252 196.668235 
L 106.635753 196.668235 
L 107.274253 193.374118 
L 107.487087 193.374118 
L 107.69992 192.715294 
L 107.912754 192.715294 
L 108.125587 192.056471 
L 108.338421 190.738824 
L 108.976921 190.738824 
L 109.189755 189.421176 
L 109.402588 189.421176 
L 109.615422 188.762353 
L 109.828255 188.762353 
L 110.253922 187.444706 
L 110.466756 186.127059 
L 110.679589 179.538824 
L 111.105256 178.221176 
L 111.31809 174.268235 
L 111.530923 173.609412 
L 111.743756 170.315294 
L 111.95659 169.656471 
L 112.169423 167.68 
L 112.382257 167.68 
L 112.59509 166.362353 
L 112.807924 166.362353 
L 113.872091 159.774118 
L 114.723425 159.774118 
L 115.149092 158.456471 
L 116.85176 158.456471 
L 117.064594 157.797647 
L 118.341594 157.797647 
L 118.554428 157.138824 
L 118.767261 157.138824 
L 118.980095 155.821176 
L 119.618595 155.821176 
L 119.831429 155.162353 
L 120.044262 155.162353 
L 120.257096 154.503529 
L 120.469929 154.503529 
L 120.682763 153.185882 
L 121.10843 153.185882 
L 121.534097 151.868235 
L 121.959764 151.868235 
L 122.385431 150.550588 
L 122.598264 150.550588 
L 122.811097 149.232941 
L 123.662431 149.232941 
L 124.088098 147.915294 
L 125.152266 147.915294 
L 125.577933 146.597647 
L 126.6421 146.597647 
L 126.854934 145.938824 
L 128.131935 145.938824 
L 128.557601 143.962353 
L 128.770435 143.303529 
L 130.260269 143.303529 
L 130.685936 141.985882 
L 132.601438 141.985882 
L 132.814271 140.009412 
L 133.239938 140.009412 
L 133.452772 139.350588 
L 133.878438 139.350588 
L 134.091272 138.691765 
L 134.304105 138.691765 
L 134.516939 138.032941 
L 134.729772 136.715294 
L 134.942606 136.715294 
L 135.155439 136.056471 
L 136.006773 136.056471 
L 136.858107 133.421176 
L 137.070941 133.421176 
L 137.283774 132.762353 
L 138.560775 132.762353 
L 138.773609 131.444706 
L 138.986442 131.444706 
L 139.199276 130.785882 
L 139.412109 130.785882 
L 139.624942 130.127059 
L 139.837776 130.127059 
L 140.050609 129.468235 
L 140.68911 129.468235 
L 140.901943 128.809412 
L 141.114777 128.809412 
L 141.540444 127.491765 
L 141.966111 127.491765 
L 142.178944 126.832941 
L 142.817445 126.832941 
L 143.030278 125.515294 
L 144.520113 125.515294 
L 144.732946 124.856471 
L 146.861281 124.856471 
L 147.074114 124.197647 
L 147.286948 122.88 
L 149.628116 122.88 
L 149.84095 122.221176 
L 150.905117 122.221176 
L 151.11795 121.562353 
L 151.969284 121.562353 
L 152.182118 120.903529 
L 153.671952 120.903529 
L 153.884786 120.244706 
L 155.587454 120.244706 
L 155.800287 118.927059 
L 156.01312 118.927059 
L 156.225954 118.268235 
L 156.438787 118.268235 
L 157.077288 116.291765 
L 157.928622 116.291765 
L 158.141455 115.632941 
L 158.779956 115.632941 
L 158.992789 114.974118 
L 160.26979 114.974118 
L 160.482624 114.315294 
L 161.333958 114.315294 
L 161.546791 113.656471 
L 164.52646 113.656471 
L 164.739293 112.997647 
L 171.549965 112.997647 
L 171.762798 112.338824 
L 172.188465 112.338824 
L 172.401299 111.68 
L 173.039799 111.68 
L 173.252632 111.021176 
L 177.509302 111.021176 
L 177.934969 109.703529 
L 178.360636 109.703529 
L 178.573469 109.044706 
L 178.999136 109.044706 
L 179.424803 107.068235 
L 180.063304 107.068235 
L 180.276137 106.409412 
L 181.765972 106.409412 
L 181.978805 105.750588 
L 183.46864 105.750588 
L 183.681473 105.091765 
L 183.894306 105.091765 
L 184.10714 104.432941 
L 186.448308 104.432941 
L 186.661142 103.774118 
L 187.086809 103.774118 
L 187.299642 103.115294 
L 189.427977 103.115294 
L 189.64081 102.456471 
L 193.684647 102.456471 
L 193.89748 101.797647 
L 194.110314 101.797647 
L 194.323147 100.48 
L 196.664315 100.48 
L 196.877149 99.821176 
L 202.197986 99.821176 
L 202.410819 99.162353 
L 212.413993 99.162353 
L 212.626826 98.503529 
L 250.936853 98.503529 
L 251.149686 97.844706 
L 258.386025 97.844706 
L 258.598858 97.185882 
L 264.132529 97.185882 
L 264.345362 96.527059 
L 264.771029 96.527059 
L 264.983863 95.868235 
L 299.250053 95.868235 
L 299.462887 95.209412 
L 316.276732 95.209412 
L 316.489565 94.550588 
L 337.985747 94.550588 
L 338.19858 93.891765 
L 341.391082 93.891765 
L 341.603916 93.232941 
L 342.029583 93.232941 
L 342.242416 91.915294 
L 349.478755 91.915294 
L 349.691588 91.256471 
L 363.100097 91.256471 
L 363.312931 90.597647 
L 369.910769 90.597647 
L 370.123602 89.938824 
L 374.805939 89.938824 
L 375.018772 89.28 
L 375.657273 89.28 
L 375.657273 89.28 
" clip-path="url(#p5f595514ed)" style="fill: none; stroke: #c957db; stroke-width: 1.2; stroke-linecap: round"/>
   </g>
   <g id="line2d_32"/>
   <g id="line2d_33"/>
   <g id="line2d_34"/>
   <g id="line2d_35"/>
   <g id="line2d_36"/>
   <g id="patch_3">
    <path d="M 54.3 512.64 
L 54.3 69.12 
" style="fill: none; stroke: #cccccc; stroke-linejoin: miter; stroke-linecap: square"/>
   </g>
   <g id="patch_4">
    <path d="M 54.3 512.64 
L 390.96 512.64 
" style="fill: none; stroke: #cccccc; stroke-linejoin: miter; stroke-linecap: square"/>
   </g>
   <g id="text_29">
    <!-- Edge Coverage History -->
    <g style="fill: #262626" transform="translate(115.738512 63.12)scale(0.165888 -0.165888)">
     <defs>
      <path id="DejaVuSans-Bold-45" d="M 588 4666 
L 3834 4666 
L 3834 3756 
L 1791 3756 
L 1791 2888 
L 3713 2888 
L 3713 1978 
L 1791 1978 
L 1791 909 
L 3903 909 
L 3903 0 
L 588 0 
L 588 4666 
z
" transform="scale(0.015625)"/>
      <path id="DejaVuSans-Bold-64" d="M 2919 2988 
L 2919 4863 
L 4044 4863 
L 4044 0 
L 2919 0 
L 2919 506 
Q 2688 197 2409 53 
Q 2131 -91 1766 -91 
Q 1119 -91 703 423 
Q 288 938 288 1747 
Q 288 2556 703 3070 
Q 1119 3584 1766 3584 
Q 2128 3584 2408 3439 
Q 2688 3294 2919 2988 
z
M 2181 722 
Q 2541 722 2730 984 
Q 2919 1247 2919 1747 
Q 2919 2247 2730 2509 
Q 2541 2772 2181 2772 
Q 1825 2772 1636 2509 
Q 1447 2247 1447 1747 
Q 1447 1247 1636 984 
Q 1825 722 2181 722 
z
" transform="scale(0.015625)"/>
      <path id="DejaVuSans-Bold-67" d="M 2919 594 
Q 2688 288 2409 144 
Q 2131 0 1766 0 
Q 1125 0 706 504 
Q 288 1009 288 1791 
Q 288 2575 706 3076 
Q 1125 3578 1766 3578 
Q 2131 3578 2409 3434 
Q 2688 3291 2919 2981 
L 2919 3500 
L 4044 3500 
L 4044 353 
Q 4044 -491 3511 -936 
Q 2978 -1381 1966 -1381 
Q 1638 -1381 1331 -1331 
Q 1025 -1281 716 -1178 
L 716 -306 
Q 1009 -475 1290 -558 
Q 1572 -641 1856 -641 
Q 2406 -641 2662 -400 
Q 2919 -159 2919 353 
L 2919 594 
z
M 2181 2772 
Q 1834 2772 1640 2515 
Q 1447 2259 1447 1791 
Q 1447 1309 1634 1061 
Q 1822 813 2181 813 
Q 2531 813 2725 1069 
Q 2919 1325 2919 1791 
Q 2919 2259 2725 2515 
Q 2531 2772 2181 2772 
z
" transform="scale(0.015625)"/>
      <path id="DejaVuSans-Bold-65" d="M 4031 1759 
L 4031 1441 
L 1416 1441 
Q 1456 1047 1700 850 
Q 1944 653 2381 653 
Q 2734 653 3104 758 
Q 3475 863 3866 1075 
L 3866 213 
Q 3469 63 3072 -14 
Q 2675 -91 2278 -91 
Q 1328 -91 801 392 
Q 275 875 275 1747 
Q 275 2603 792 3093 
Q 1309 3584 2216 3584 
Q 3041 3584 3536 3087 
Q 4031 2591 4031 1759 
z
M 2881 2131 
Q 2881 2450 2695 2645 
Q 2509 2841 2209 2841 
Q 1884 2841 1681 2658 
Q 1478 2475 1428 2131 
L 2881 2131 
z
" transform="scale(0.015625)"/>
      <path id="DejaVuSans-Bold-20" transform="scale(0.015625)"/>
      <path id="DejaVuSans-Bold-43" d="M 4288 256 
Q 3956 84 3597 -3 
Q 3238 -91 2847 -91 
Q 1681 -91 1000 561 
Q 319 1213 319 2328 
Q 319 3447 1000 4098 
Q 1681 4750 2847 4750 
Q 3238 4750 3597 4662 
Q 3956 4575 4288 4403 
L 4288 3438 
Q 3953 3666 3628 3772 
Q 3303 3878 2944 3878 
Q 2300 3878 1931 3465 
Q 1563 3053 1563 2328 
Q 1563 1606 1931 1193 
Q 2300 781 2944 781 
Q 3303 781 3628 887 
Q 3953 994 4288 1222 
L 4288 256 
z
" transform="scale(0.015625)"/>
      <path id="DejaVuSans-Bold-6f" d="M 2203 2784 
Q 1831 2784 1636 2517 
Q 1441 2250 1441 1747 
Q 1441 1244 1636 976 
Q 1831 709 2203 709 
Q 2569 709 2762 976 
Q 2956 1244 2956 1747 
Q 2956 2250 2762 2517 
Q 2569 2784 2203 2784 
z
M 2203 3584 
Q 3106 3584 3614 3096 
Q 4122 2609 4122 1747 
Q 4122 884 3614 396 
Q 3106 -91 2203 -91 
Q 1297 -91 786 396 
Q 275 884 275 1747 
Q 275 2609 786 3096 
Q 1297 3584 2203 3584 
z
" transform="scale(0.015625)"/>
      <path id="DejaVuSans-Bold-76" d="M 97 3500 
L 1216 3500 
L 2088 1081 
L 2956 3500 
L 4078 3500 
L 2700 0 
L 1472 0 
L 97 3500 
z
" transform="scale(0.015625)"/>
      <path id="DejaVuSans-Bold-72" d="M 3138 2547 
Q 2991 2616 2845 2648 
Q 2700 2681 2553 2681 
Q 2122 2681 1889 2404 
Q 1656 2128 1656 1613 
L 1656 0 
L 538 0 
L 538 3500 
L 1656 3500 
L 1656 2925 
Q 1872 3269 2151 3426 
Q 2431 3584 2822 3584 
Q 2878 3584 2943 3579 
Q 3009 3575 3134 3559 
L 3138 2547 
z
" transform="scale(0.015625)"/>
      <path id="DejaVuSans-Bold-61" d="M 2106 1575 
Q 1756 1575 1579 1456 
Q 1403 1338 1403 1106 
Q 1403 894 1545 773 
Q 1688 653 1941 653 
Q 2256 653 2472 879 
Q 2688 1106 2688 1447 
L 2688 1575 
L 2106 1575 
z
M 3816 1997 
L 3816 0 
L 2688 0 
L 2688 519 
Q 2463 200 2181 54 
Q 1900 -91 1497 -91 
Q 953 -91 614 226 
Q 275 544 275 1050 
Q 275 1666 698 1953 
Q 1122 2241 2028 2241 
L 2688 2241 
L 2688 2328 
Q 2688 2594 2478 2717 
Q 2269 2841 1825 2841 
Q 1466 2841 1156 2769 
Q 847 2697 581 2553 
L 581 3406 
Q 941 3494 1303 3539 
Q 1666 3584 2028 3584 
Q 2975 3584 3395 3211 
Q 3816 2838 3816 1997 
z
" transform="scale(0.015625)"/>
      <path id="DejaVuSans-Bold-48" d="M 588 4666 
L 1791 4666 
L 1791 2888 
L 3566 2888 
L 3566 4666 
L 4769 4666 
L 4769 0 
L 3566 0 
L 3566 1978 
L 1791 1978 
L 1791 0 
L 588 0 
L 588 4666 
z
" transform="scale(0.015625)"/>
      <path id="DejaVuSans-Bold-69" d="M 538 3500 
L 1656 3500 
L 1656 0 
L 538 0 
L 538 3500 
z
M 538 4863 
L 1656 4863 
L 1656 3950 
L 538 3950 
L 538 4863 
z
" transform="scale(0.015625)"/>
      <path id="DejaVuSans-Bold-73" d="M 3272 3391 
L 3272 2541 
Q 2913 2691 2578 2766 
Q 2244 2841 1947 2841 
Q 1628 2841 1473 2761 
Q 1319 2681 1319 2516 
Q 1319 2381 1436 2309 
Q 1553 2238 1856 2203 
L 2053 2175 
Q 2913 2066 3209 1816 
Q 3506 1566 3506 1031 
Q 3506 472 3093 190 
Q 2681 -91 1863 -91 
Q 1516 -91 1145 -36 
Q 775 19 384 128 
L 384 978 
Q 719 816 1070 734 
Q 1422 653 1784 653 
Q 2113 653 2278 743 
Q 2444 834 2444 1013 
Q 2444 1163 2330 1236 
Q 2216 1309 1875 1350 
L 1678 1375 
Q 931 1469 631 1722 
Q 331 1975 331 2491 
Q 331 3047 712 3315 
Q 1094 3584 1881 3584 
Q 2191 3584 2531 3537 
Q 2872 3491 3272 3391 
z
" transform="scale(0.015625)"/>
      <path id="DejaVuSans-Bold-74" d="M 1759 4494 
L 1759 3500 
L 2913 3500 
L 2913 2700 
L 1759 2700 
L 1759 1216 
Q 1759 972 1856 886 
Q 1953 800 2241 800 
L 2816 800 
L 2816 0 
L 1856 0 
Q 1194 0 917 276 
Q 641 553 641 1216 
L 641 2700 
L 84 2700 
L 84 3500 
L 641 3500 
L 641 4494 
L 1759 4494 
z
" transform="scale(0.015625)"/>
      <path id="DejaVuSans-Bold-79" d="M 78 3500 
L 1197 3500 
L 2138 1125 
L 2938 3500 
L 4056 3500 
L 2584 -331 
Q 2363 -916 2067 -1148 
Q 1772 -1381 1288 -1381 
L 641 -1381 
L 641 -647 
L 991 -647 
Q 1275 -647 1404 -556 
Q 1534 -466 1606 -231 
L 1638 -134 
L 78 3500 
z
" transform="scale(0.015625)"/>
     </defs>
     <use xlink:href="#DejaVuSans-Bold-45"/>
     <use xlink:href="#DejaVuSans-Bold-64" x="68.310547"/>
     <use xlink:href="#DejaVuSans-Bold-67" x="139.892578"/>
     <use xlink:href="#DejaVuSans-Bold-65" x="211.474609"/>
     <use xlink:href="#DejaVuSans-Bold-20" x="279.296875"/>
     <use xlink:href="#DejaVuSans-Bold-43" x="314.111328"/>
     <use xlink:href="#DejaVuSans-Bold-6f" x="387.5"/>
     <use xlink:href="#DejaVuSans-Bold-76" x="456.201172"/>
     <use xlink:href="#DejaVuSans-Bold-65" x="521.386719"/>
     <use xlink:href="#DejaVuSans-Bold-72" x="589.208984"/>
     <use xlink:href="#DejaVuSans-Bold-61" x="638.525391"/>
     <use xlink:href="#DejaVuSans-Bold-67" x="706.005859"/>
     <use xlink:href="#DejaVuSans-Bold-65" x="777.587891"/>
     <use xlink:href="#DejaVuSans-Bold-20" x="845.410156"/>
     <use xlink:href="#DejaVuSans-Bold-48" x="880.224609"/>
     <use xlink:href="#DejaVuSans-Bold-69" x="963.916016"/>
     <use xlink:href="#DejaVuSans-Bold-73" x="998.193359"/>
     <use xlink:href="#DejaVuSans-Bold-74" x="1057.714844"/>
     <use xlink:href="#DejaVuSans-Bold-6f" x="1105.517578"/>
     <use xlink:href="#DejaVuSans-Bold-72" x="1174.21875"/>
     <use xlink:href="#DejaVuSans-Bold-79" x="1223.535156"/>
    </g>
   </g>
   <g id="legend_1">
    <g id="patch_5">
     <path d="M 273.271 508.24 
L 384.8 508.24 
Q 386.56 508.24 386.56 506.48 
L 386.56 428.8405 
Q 386.56 427.0805 384.8 427.0805 
L 273.271 427.0805 
Q 271.511 427.0805 271.511 428.8405 
L 271.511 506.48 
Q 271.511 508.24 273.271 508.24 
z
" style="fill: #ffffff; opacity: 0.8; stroke: #cccccc; stroke-width: 0.8; stroke-linejoin: miter"/>
    </g>
    <g id="text_30">
     <!-- fuzzer -->
     <g style="fill: #262626" transform="translate(314.3385 437.895)scale(0.096 -0.096)">
      <defs>
       <path id="DejaVuSans-66" d="M 2375 4863 
L 2375 4384 
L 1825 4384 
Q 1516 4384 1395 4259 
Q 1275 4134 1275 3809 
L 1275 3500 
L 2222 3500 
L 2222 3053 
L 1275 3053 
L 1275 0 
L 697 0 
L 697 3053 
L 147 3053 
L 147 3500 
L 697 3500 
L 697 3744 
Q 697 4328 969 4595 
Q 1241 4863 1831 4863 
L 2375 4863 
z
" transform="scale(0.015625)"/>
       <path id="DejaVuSans-7a" d="M 353 3500 
L 3084 3500 
L 3084 2975 
L 922 459 
L 3084 459 
L 3084 0 
L 275 0 
L 275 525 
L 2438 3041 
L 353 3041 
L 353 3500 
z
" transform="scale(0.015625)"/>
      </defs>
      <use xlink:href="#DejaVuSans-66"/>
      <use xlink:href="#DejaVuSans-75" x="35.205078"/>
      <use xlink:href="#DejaVuSans-7a" x="98.583984"/>
      <use xlink:href="#DejaVuSans-7a" x="151.074219"/>
      <use xlink:href="#DejaVuSans-65" x="203.564453"/>
      <use xlink:href="#DejaVuSans-72" x="265.087891"/>
     </g>
    </g>
    <g id="line2d_37">
     <path d="M 275.031 447.898125 
L 283.831 447.898125 
L 292.631 447.898125 
" style="fill: none; stroke: #db5f57; stroke-width: 1.2; stroke-linecap: round"/>
    </g>
    <g id="text_31">
     <!-- symcc-0-exid0 -->
     <g style="fill: #262626" transform="translate(299.671 450.978125)scale(0.088 -0.088)">
      <defs>
       <path id="DejaVuSans-79" d="M 2059 -325 
Q 1816 -950 1584 -1140 
Q 1353 -1331 966 -1331 
L 506 -1331 
L 506 -850 
L 844 -850 
Q 1081 -850 1212 -737 
Q 1344 -625 1503 -206 
L 1606 56 
L 191 3500 
L 800 3500 
L 1894 763 
L 2988 3500 
L 3597 3500 
L 2059 -325 
z
" transform="scale(0.015625)"/>
       <path id="DejaVuSans-63" d="M 3122 3366 
L 3122 2828 
Q 2878 2963 2633 3030 
Q 2388 3097 2138 3097 
Q 1578 3097 1268 2742 
Q 959 2388 959 1747 
Q 959 1106 1268 751 
Q 1578 397 2138 397 
Q 2388 397 2633 464 
Q 2878 531 3122 666 
L 3122 134 
Q 2881 22 2623 -34 
Q 2366 -91 2075 -91 
Q 1284 -91 818 406 
Q 353 903 353 1747 
Q 353 2603 823 3093 
Q 1294 3584 2113 3584 
Q 2378 3584 2631 3529 
Q 2884 3475 3122 3366 
z
" transform="scale(0.015625)"/>
       <path id="DejaVuSans-2d" d="M 313 2009 
L 1997 2009 
L 1997 1497 
L 313 1497 
L 313 2009 
z
" transform="scale(0.015625)"/>
       <path id="DejaVuSans-78" d="M 3513 3500 
L 2247 1797 
L 3578 0 
L 2900 0 
L 1881 1375 
L 863 0 
L 184 0 
L 1544 1831 
L 300 3500 
L 978 3500 
L 1906 2253 
L 2834 3500 
L 3513 3500 
z
" transform="scale(0.015625)"/>
      </defs>
      <use xlink:href="#DejaVuSans-73"/>
      <use xlink:href="#DejaVuSans-79" x="52.099609"/>
      <use xlink:href="#DejaVuSans-6d" x="111.279297"/>
      <use xlink:href="#DejaVuSans-63" x="208.691406"/>
      <use xlink:href="#DejaVuSans-63" x="263.671875"/>
      <use xlink:href="#DejaVuSans-2d" x="318.652344"/>
      <use xlink:href="#DejaVuSans-30" x="354.736328"/>
      <use xlink:href="#DejaVuSans-2d" x="418.359375"/>
      <use xlink:href="#DejaVuSans-65" x="454.443359"/>
      <use xlink:href="#DejaVuSans-78" x="514.216797"/>
      <use xlink:href="#DejaVuSans-69" x="573.396484"/>
      <use xlink:href="#DejaVuSans-64" x="601.179688"/>
      <use xlink:href="#DejaVuSans-30" x="664.65625"/>
     </g>
    </g>
    <g id="line2d_38">
     <path d="M 275.031 460.814875 
L 283.831 460.814875 
L 292.631 460.814875 
" style="fill: none; stroke: #b9db57; stroke-width: 1.2; stroke-linecap: round"/>
    </g>
    <g id="text_32">
     <!-- mopt-0-exid0 -->
     <g style="fill: #262626" transform="translate(299.671 463.894875)scale(0.088 -0.088)">
      <defs>
       <path id="DejaVuSans-70" d="M 1159 525 
L 1159 -1331 
L 581 -1331 
L 581 3500 
L 1159 3500 
L 1159 2969 
Q 1341 3281 1617 3432 
Q 1894 3584 2278 3584 
Q 2916 3584 3314 3078 
Q 3713 2572 3713 1747 
Q 3713 922 3314 415 
Q 2916 -91 2278 -91 
Q 1894 -91 1617 61 
Q 1341 213 1159 525 
z
M 3116 1747 
Q 3116 2381 2855 2742 
Q 2594 3103 2138 3103 
Q 1681 3103 1420 2742 
Q 1159 2381 1159 1747 
Q 1159 1113 1420 752 
Q 1681 391 2138 391 
Q 2594 391 2855 752 
Q 3116 1113 3116 1747 
z
" transform="scale(0.015625)"/>
      </defs>
      <use xlink:href="#DejaVuSans-6d"/>
      <use xlink:href="#DejaVuSans-6f" x="97.412109"/>
      <use xlink:href="#DejaVuSans-70" x="158.59375"/>
      <use xlink:href="#DejaVuSans-74" x="222.070312"/>
      <use xlink:href="#DejaVuSans-2d" x="261.279297"/>
      <use xlink:href="#DejaVuSans-30" x="297.363281"/>
      <use xlink:href="#DejaVuSans-2d" x="360.986328"/>
      <use xlink:href="#DejaVuSans-65" x="397.070312"/>
      <use xlink:href="#DejaVuSans-78" x="456.84375"/>
      <use xlink:href="#DejaVuSans-69" x="516.023438"/>
      <use xlink:href="#DejaVuSans-64" x="543.806641"/>
      <use xlink:href="#DejaVuSans-30" x="607.283203"/>
     </g>
    </g>
    <g id="line2d_39">
     <path d="M 275.031 473.731625 
L 283.831 473.731625 
L 292.631 473.731625 
" style="fill: none; stroke: #57db94; stroke-width: 1.2; stroke-linecap: round"/>
    </g>
    <g id="text_33">
     <!-- aflplusplus-0-exid0 -->
     <g style="fill: #262626" transform="translate(299.671 476.811625)scale(0.088 -0.088)">
      <defs>
       <path id="DejaVuSans-6c" d="M 603 4863 
L 1178 4863 
L 1178 0 
L 603 0 
L 603 4863 
z
" transform="scale(0.015625)"/>
      </defs>
      <use xlink:href="#DejaVuSans-61"/>
      <use xlink:href="#DejaVuSans-66" x="61.279297"/>
      <use xlink:href="#DejaVuSans-6c" x="96.484375"/>
      <use xlink:href="#DejaVuSans-70" x="124.267578"/>
      <use xlink:href="#DejaVuSans-6c" x="187.744141"/>
      <use xlink:href="#DejaVuSans-75" x="215.527344"/>
      <use xlink:href="#DejaVuSans-73" x="278.90625"/>
      <use xlink:href="#DejaVuSans-70" x="331.005859"/>
      <use xlink:href="#DejaVuSans-6c" x="394.482422"/>
      <use xlink:href="#DejaVuSans-75" x="422.265625"/>
      <use xlink:href="#DejaVuSans-73" x="485.644531"/>
      <use xlink:href="#DejaVuSans-2d" x="537.744141"/>
      <use xlink:href="#DejaVuSans-30" x="573.828125"/>
      <use xlink:href="#DejaVuSans-2d" x="637.451172"/>
      <use xlink:href="#DejaVuSans-65" x="673.535156"/>
      <use xlink:href="#DejaVuSans-78" x="733.308594"/>
      <use xlink:href="#DejaVuSans-69" x="792.488281"/>
      <use xlink:href="#DejaVuSans-64" x="820.271484"/>
      <use xlink:href="#DejaVuSans-30" x="883.748047"/>
     </g>
    </g>
    <g id="line2d_40">
     <path d="M 275.031 486.648375 
L 283.831 486.648375 
L 292.631 486.648375 
" style="fill: none; stroke: #5784db; stroke-width: 1.2; stroke-linecap: round"/>
    </g>
    <g id="text_34">
     <!-- fairfuzz-0-exid0 -->
     <g style="fill: #262626" transform="translate(299.671 489.728375)scale(0.088 -0.088)">
      <use xlink:href="#DejaVuSans-66"/>
      <use xlink:href="#DejaVuSans-61" x="35.205078"/>
      <use xlink:href="#DejaVuSans-69" x="96.484375"/>
      <use xlink:href="#DejaVuSans-72" x="124.267578"/>
      <use xlink:href="#DejaVuSans-66" x="165.380859"/>
      <use xlink:href="#DejaVuSans-75" x="200.585938"/>
      <use xlink:href="#DejaVuSans-7a" x="263.964844"/>
      <use xlink:href="#DejaVuSans-7a" x="316.455078"/>
      <use xlink:href="#DejaVuSans-2d" x="368.945312"/>
      <use xlink:href="#DejaVuSans-30" x="405.029297"/>
      <use xlink:href="#DejaVuSans-2d" x="468.652344"/>
      <use xlink:href="#DejaVuSans-65" x="504.736328"/>
      <use xlink:href="#DejaVuSans-78" x="564.509766"/>
      <use xlink:href="#DejaVuSans-69" x="623.689453"/>
      <use xlink:href="#DejaVuSans-64" x="651.472656"/>
      <use xlink:href="#DejaVuSans-30" x="714.949219"/>
     </g>
    </g>
    <g id="line2d_41">
     <path d="M 275.031 499.565125 
L 283.831 499.565125 
L 292.631 499.565125 
" style="fill: none; stroke: #c957db; stroke-width: 1.2; stroke-linecap: round"/>
    </g>
    <g id="text_35">
     <!-- fuzzer_global -->
     <g style="fill: #262626" transform="translate(299.671 502.645125)scale(0.088 -0.088)">
      <defs>
       <path id="DejaVuSans-5f" d="M 3263 -1063 
L 3263 -1509 
L -63 -1509 
L -63 -1063 
L 3263 -1063 
z
" transform="scale(0.015625)"/>
       <path id="DejaVuSans-62" d="M 3116 1747 
Q 3116 2381 2855 2742 
Q 2594 3103 2138 3103 
Q 1681 3103 1420 2742 
Q 1159 2381 1159 1747 
Q 1159 1113 1420 752 
Q 1681 391 2138 391 
Q 2594 391 2855 752 
Q 3116 1113 3116 1747 
z
M 1159 2969 
Q 1341 3281 1617 3432 
Q 1894 3584 2278 3584 
Q 2916 3584 3314 3078 
Q 3713 2572 3713 1747 
Q 3713 922 3314 415 
Q 2916 -91 2278 -91 
Q 1894 -91 1617 61 
Q 1341 213 1159 525 
L 1159 0 
L 581 0 
L 581 4863 
L 1159 4863 
L 1159 2969 
z
" transform="scale(0.015625)"/>
      </defs>
      <use xlink:href="#DejaVuSans-66"/>
      <use xlink:href="#DejaVuSans-75" x="35.205078"/>
      <use xlink:href="#DejaVuSans-7a" x="98.583984"/>
      <use xlink:href="#DejaVuSans-7a" x="151.074219"/>
      <use xlink:href="#DejaVuSans-65" x="203.564453"/>
      <use xlink:href="#DejaVuSans-72" x="265.087891"/>
      <use xlink:href="#DejaVuSans-5f" x="306.201172"/>
      <use xlink:href="#DejaVuSans-67" x="356.201172"/>
      <use xlink:href="#DejaVuSans-6c" x="419.677734"/>
      <use xlink:href="#DejaVuSans-6f" x="447.460938"/>
      <use xlink:href="#DejaVuSans-62" x="508.642578"/>
      <use xlink:href="#DejaVuSans-61" x="572.119141"/>
      <use xlink:href="#DejaVuSans-6c" x="633.398438"/>
     </g>
    </g>
   </g>
  </g>
 </g>
 <defs>
  <clipPath id="p5f595514ed">
   <rect x="54.3" y="69.12" width="336.66" height="443.52"/>
  </clipPath>
 </defs>
</svg>
