<?xml version="1.0" encoding="utf-8" standalone="no"?>
<!DOCTYPE svg PUBLIC "-//W3C//DTD SVG 1.1//EN"
  "http://www.w3.org/Graphics/SVG/1.1/DTD/svg11.dtd">
<svg xmlns:xlink="http://www.w3.org/1999/xlink" width="434.7pt" height="576pt" viewBox="0 0 434.7 576" xmlns="http://www.w3.org/2000/svg" version="1.1">
 <metadata>
  <rdf:RDF xmlns:dc="http://purl.org/dc/elements/1.1/" xmlns:cc="http://creativecommons.org/ns#" xmlns:rdf="http://www.w3.org/1999/02/22-rdf-syntax-ns#">
   <cc:Work>
    <dc:type rdf:resource="http://purl.org/dc/dcmitype/StillImage"/>
    <dc:date>2022-09-15T10:40:42.081015</dc:date>
    <dc:format>image/svg+xml</dc:format>
    <dc:creator>
     <cc:Agent>
      <dc:title>Matplotlib v3.5.3, https://matplotlib.org/</dc:title>
     </cc:Agent>
    </dc:creator>
   </cc:Work>
  </rdf:RDF>
 </metadata>
 <defs>
  <style type="text/css">*{stroke-linejoin: round; stroke-linecap: butt}</style>
 </defs>
 <g id="figure_1">
  <g id="patch_1">
   <path d="M 0 576 
L 434.7 576 
L 434.7 0 
L 0 0 
z
" style="fill: #ffffff"/>
  </g>
  <g id="axes_1">
   <g id="patch_2">
    <path d="M 54.3375 512.64 
L 391.23 512.64 
L 391.23 69.12 
L 54.3375 69.12 
z
" style="fill: #ffffff"/>
   </g>
   <g id="matplotlib.axis_1">
    <g id="xtick_1">
     <g id="line2d_1">
      <path d="M 69.650795 512.64 
L 69.650795 69.12 
" clip-path="url(#p8e035f2449)" style="fill: none; stroke: #cccccc; stroke-width: 0.8; stroke-linecap: round"/>
     </g>
     <g id="text_1">
      <!-- 0 -->
      <g style="fill: #262626" transform="translate(69.388282 529.627249)rotate(-45)scale(0.088 -0.088)">
       <defs>
        <path id="DejaVuSans-30" d="M 2034 4250 
Q 1547 4250 1301 3770 
Q 1056 3291 1056 2328 
Q 1056 1369 1301 889 
Q 1547 409 2034 409 
Q 2525 409 2770 889 
Q 3016 1369 3016 2328 
Q 3016 3291 2770 3770 
Q 2525 4250 2034 4250 
z
M 2034 4750 
Q 2819 4750 3233 4129 
Q 3647 3509 3647 2328 
Q 3647 1150 3233 529 
Q 2819 -91 2034 -91 
Q 1250 -91 836 529 
Q 422 1150 422 2328 
Q 422 3509 836 4129 
Q 1250 4750 2034 4750 
z
" transform="scale(0.015625)"/>
       </defs>
       <use xlink:href="#DejaVuSans-30"/>
      </g>
     </g>
    </g>
    <g id="xtick_2">
     <g id="line2d_2">
      <path d="M 86.677392 512.64 
L 86.677392 69.12 
" clip-path="url(#p8e035f2449)" style="fill: none; stroke: #cccccc; stroke-width: 0.8; stroke-linecap: round"/>
     </g>
     <g id="text_2">
      <!-- 80 -->
      <g style="fill: #262626" transform="translate(84.435333 533.58634)rotate(-45)scale(0.088 -0.088)">
       <defs>
        <path id="DejaVuSans-38" d="M 2034 2216 
Q 1584 2216 1326 1975 
Q 1069 1734 1069 1313 
Q 1069 891 1326 650 
Q 1584 409 2034 409 
Q 2484 409 2743 651 
Q 3003 894 3003 1313 
Q 3003 1734 2745 1975 
Q 2488 2216 2034 2216 
z
M 1403 2484 
Q 997 2584 770 2862 
Q 544 3141 544 3541 
Q 544 4100 942 4425 
Q 1341 4750 2034 4750 
Q 2731 4750 3128 4425 
Q 3525 4100 3525 3541 
Q 3525 3141 3298 2862 
Q 3072 2584 2669 2484 
Q 3125 2378 3379 2068 
Q 3634 1759 3634 1313 
Q 3634 634 3220 271 
Q 2806 -91 2034 -91 
Q 1263 -91 848 271 
Q 434 634 434 1313 
Q 434 1759 690 2068 
Q 947 2378 1403 2484 
z
M 1172 3481 
Q 1172 3119 1398 2916 
Q 1625 2713 2034 2713 
Q 2441 2713 2670 2916 
Q 2900 3119 2900 3481 
Q 2900 3844 2670 4047 
Q 2441 4250 2034 4250 
Q 1625 4250 1398 4047 
Q 1172 3844 1172 3481 
z
" transform="scale(0.015625)"/>
       </defs>
       <use xlink:href="#DejaVuSans-38"/>
       <use xlink:href="#DejaVuSans-30" x="63.623047"/>
      </g>
     </g>
    </g>
    <g id="xtick_3">
     <g id="line2d_3">
      <path d="M 103.703989 512.64 
L 103.703989 69.12 
" clip-path="url(#p8e035f2449)" style="fill: none; stroke: #cccccc; stroke-width: 0.8; stroke-linecap: round"/>
     </g>
     <g id="text_3">
      <!-- 160 -->
      <g style="fill: #262626" transform="translate(99.482385 537.54543)rotate(-45)scale(0.088 -0.088)">
       <defs>
        <path id="DejaVuSans-31" d="M 794 531 
L 1825 531 
L 1825 4091 
L 703 3866 
L 703 4441 
L 1819 4666 
L 2450 4666 
L 2450 531 
L 3481 531 
L 3481 0 
L 794 0 
L 794 531 
z
" transform="scale(0.015625)"/>
        <path id="DejaVuSans-36" d="M 2113 2584 
Q 1688 2584 1439 2293 
Q 1191 2003 1191 1497 
Q 1191 994 1439 701 
Q 1688 409 2113 409 
Q 2538 409 2786 701 
Q 3034 994 3034 1497 
Q 3034 2003 2786 2293 
Q 2538 2584 2113 2584 
z
M 3366 4563 
L 3366 3988 
Q 3128 4100 2886 4159 
Q 2644 4219 2406 4219 
Q 1781 4219 1451 3797 
Q 1122 3375 1075 2522 
Q 1259 2794 1537 2939 
Q 1816 3084 2150 3084 
Q 2853 3084 3261 2657 
Q 3669 2231 3669 1497 
Q 3669 778 3244 343 
Q 2819 -91 2113 -91 
Q 1303 -91 875 529 
Q 447 1150 447 2328 
Q 447 3434 972 4092 
Q 1497 4750 2381 4750 
Q 2619 4750 2861 4703 
Q 3103 4656 3366 4563 
z
" transform="scale(0.015625)"/>
       </defs>
       <use xlink:href="#DejaVuSans-31"/>
       <use xlink:href="#DejaVuSans-36" x="63.623047"/>
       <use xlink:href="#DejaVuSans-30" x="127.246094"/>
      </g>
     </g>
    </g>
    <g id="xtick_4">
     <g id="line2d_4">
      <path d="M 120.730586 512.64 
L 120.730586 69.12 
" clip-path="url(#p8e035f2449)" style="fill: none; stroke: #cccccc; stroke-width: 0.8; stroke-linecap: round"/>
     </g>
     <g id="text_4">
      <!-- 240 -->
      <g style="fill: #262626" transform="translate(116.508981 537.54543)rotate(-45)scale(0.088 -0.088)">
       <defs>
        <path id="DejaVuSans-32" d="M 1228 531 
L 3431 531 
L 3431 0 
L 469 0 
L 469 531 
Q 828 903 1448 1529 
Q 2069 2156 2228 2338 
Q 2531 2678 2651 2914 
Q 2772 3150 2772 3378 
Q 2772 3750 2511 3984 
Q 2250 4219 1831 4219 
Q 1534 4219 1204 4116 
Q 875 4013 500 3803 
L 500 4441 
Q 881 4594 1212 4672 
Q 1544 4750 1819 4750 
Q 2544 4750 2975 4387 
Q 3406 4025 3406 3419 
Q 3406 3131 3298 2873 
Q 3191 2616 2906 2266 
Q 2828 2175 2409 1742 
Q 1991 1309 1228 531 
z
" transform="scale(0.015625)"/>
        <path id="DejaVuSans-34" d="M 2419 4116 
L 825 1625 
L 2419 1625 
L 2419 4116 
z
M 2253 4666 
L 3047 4666 
L 3047 1625 
L 3713 1625 
L 3713 1100 
L 3047 1100 
L 3047 0 
L 2419 0 
L 2419 1100 
L 313 1100 
L 313 1709 
L 2253 4666 
z
" transform="scale(0.015625)"/>
       </defs>
       <use xlink:href="#DejaVuSans-32"/>
       <use xlink:href="#DejaVuSans-34" x="63.623047"/>
       <use xlink:href="#DejaVuSans-30" x="127.246094"/>
      </g>
     </g>
    </g>
    <g id="xtick_5">
     <g id="line2d_5">
      <path d="M 137.757182 512.64 
L 137.757182 69.12 
" clip-path="url(#p8e035f2449)" style="fill: none; stroke: #cccccc; stroke-width: 0.8; stroke-linecap: round"/>
     </g>
     <g id="text_5">
      <!-- 320 -->
      <g style="fill: #262626" transform="translate(133.535578 537.54543)rotate(-45)scale(0.088 -0.088)">
       <defs>
        <path id="DejaVuSans-33" d="M 2597 2516 
Q 3050 2419 3304 2112 
Q 3559 1806 3559 1356 
Q 3559 666 3084 287 
Q 2609 -91 1734 -91 
Q 1441 -91 1130 -33 
Q 819 25 488 141 
L 488 750 
Q 750 597 1062 519 
Q 1375 441 1716 441 
Q 2309 441 2620 675 
Q 2931 909 2931 1356 
Q 2931 1769 2642 2001 
Q 2353 2234 1838 2234 
L 1294 2234 
L 1294 2753 
L 1863 2753 
Q 2328 2753 2575 2939 
Q 2822 3125 2822 3475 
Q 2822 3834 2567 4026 
Q 2313 4219 1838 4219 
Q 1578 4219 1281 4162 
Q 984 4106 628 3988 
L 628 4550 
Q 988 4650 1302 4700 
Q 1616 4750 1894 4750 
Q 2613 4750 3031 4423 
Q 3450 4097 3450 3541 
Q 3450 3153 3228 2886 
Q 3006 2619 2597 2516 
z
" transform="scale(0.015625)"/>
       </defs>
       <use xlink:href="#DejaVuSans-33"/>
       <use xlink:href="#DejaVuSans-32" x="63.623047"/>
       <use xlink:href="#DejaVuSans-30" x="127.246094"/>
      </g>
     </g>
    </g>
    <g id="xtick_6">
     <g id="line2d_6">
      <path d="M 154.783779 512.64 
L 154.783779 69.12 
" clip-path="url(#p8e035f2449)" style="fill: none; stroke: #cccccc; stroke-width: 0.8; stroke-linecap: round"/>
     </g>
     <g id="text_6">
      <!-- 400 -->
      <g style="fill: #262626" transform="translate(150.562175 537.54543)rotate(-45)scale(0.088 -0.088)">
       <use xlink:href="#DejaVuSans-34"/>
       <use xlink:href="#DejaVuSans-30" x="63.623047"/>
       <use xlink:href="#DejaVuSans-30" x="127.246094"/>
      </g>
     </g>
    </g>
    <g id="xtick_7">
     <g id="line2d_7">
      <path d="M 171.810376 512.64 
L 171.810376 69.12 
" clip-path="url(#p8e035f2449)" style="fill: none; stroke: #cccccc; stroke-width: 0.8; stroke-linecap: round"/>
     </g>
     <g id="text_7">
      <!-- 480 -->
      <g style="fill: #262626" transform="translate(167.588772 537.54543)rotate(-45)scale(0.088 -0.088)">
       <use xlink:href="#DejaVuSans-34"/>
       <use xlink:href="#DejaVuSans-38" x="63.623047"/>
       <use xlink:href="#DejaVuSans-30" x="127.246094"/>
      </g>
     </g>
    </g>
    <g id="xtick_8">
     <g id="line2d_8">
      <path d="M 188.836973 512.64 
L 188.836973 69.12 
" clip-path="url(#p8e035f2449)" style="fill: none; stroke: #cccccc; stroke-width: 0.8; stroke-linecap: round"/>
     </g>
     <g id="text_8">
      <!-- 560 -->
      <g style="fill: #262626" transform="translate(184.615368 537.54543)rotate(-45)scale(0.088 -0.088)">
       <defs>
        <path id="DejaVuSans-35" d="M 691 4666 
L 3169 4666 
L 3169 4134 
L 1269 4134 
L 1269 2991 
Q 1406 3038 1543 3061 
Q 1681 3084 1819 3084 
Q 2600 3084 3056 2656 
Q 3513 2228 3513 1497 
Q 3513 744 3044 326 
Q 2575 -91 1722 -91 
Q 1428 -91 1123 -41 
Q 819 9 494 109 
L 494 744 
Q 775 591 1075 516 
Q 1375 441 1709 441 
Q 2250 441 2565 725 
Q 2881 1009 2881 1497 
Q 2881 1984 2565 2268 
Q 2250 2553 1709 2553 
Q 1456 2553 1204 2497 
Q 953 2441 691 2322 
L 691 4666 
z
" transform="scale(0.015625)"/>
       </defs>
       <use xlink:href="#DejaVuSans-35"/>
       <use xlink:href="#DejaVuSans-36" x="63.623047"/>
       <use xlink:href="#DejaVuSans-30" x="127.246094"/>
      </g>
     </g>
    </g>
    <g id="xtick_9">
     <g id="line2d_9">
      <path d="M 205.863569 512.64 
L 205.863569 69.12 
" clip-path="url(#p8e035f2449)" style="fill: none; stroke: #cccccc; stroke-width: 0.8; stroke-linecap: round"/>
     </g>
     <g id="text_9">
      <!-- 640 -->
      <g style="fill: #262626" transform="translate(201.641965 537.54543)rotate(-45)scale(0.088 -0.088)">
       <use xlink:href="#DejaVuSans-36"/>
       <use xlink:href="#DejaVuSans-34" x="63.623047"/>
       <use xlink:href="#DejaVuSans-30" x="127.246094"/>
      </g>
     </g>
    </g>
    <g id="xtick_10">
     <g id="line2d_10">
      <path d="M 222.890166 512.64 
L 222.890166 69.12 
" clip-path="url(#p8e035f2449)" style="fill: none; stroke: #cccccc; stroke-width: 0.8; stroke-linecap: round"/>
     </g>
     <g id="text_10">
      <!-- 720 -->
      <g style="fill: #262626" transform="translate(218.668562 537.54543)rotate(-45)scale(0.088 -0.088)">
       <defs>
        <path id="DejaVuSans-37" d="M 525 4666 
L 3525 4666 
L 3525 4397 
L 1831 0 
L 1172 0 
L 2766 4134 
L 525 4134 
L 525 4666 
z
" transform="scale(0.015625)"/>
       </defs>
       <use xlink:href="#DejaVuSans-37"/>
       <use xlink:href="#DejaVuSans-32" x="63.623047"/>
       <use xlink:href="#DejaVuSans-30" x="127.246094"/>
      </g>
     </g>
    </g>
    <g id="xtick_11">
     <g id="line2d_11">
      <path d="M 239.916763 512.64 
L 239.916763 69.12 
" clip-path="url(#p8e035f2449)" style="fill: none; stroke: #cccccc; stroke-width: 0.8; stroke-linecap: round"/>
     </g>
     <g id="text_11">
      <!-- 800 -->
      <g style="fill: #262626" transform="translate(235.695159 537.54543)rotate(-45)scale(0.088 -0.088)">
       <use xlink:href="#DejaVuSans-38"/>
       <use xlink:href="#DejaVuSans-30" x="63.623047"/>
       <use xlink:href="#DejaVuSans-30" x="127.246094"/>
      </g>
     </g>
    </g>
    <g id="xtick_12">
     <g id="line2d_12">
      <path d="M 256.94336 512.64 
L 256.94336 69.12 
" clip-path="url(#p8e035f2449)" style="fill: none; stroke: #cccccc; stroke-width: 0.8; stroke-linecap: round"/>
     </g>
     <g id="text_12">
      <!-- 880 -->
      <g style="fill: #262626" transform="translate(252.721755 537.54543)rotate(-45)scale(0.088 -0.088)">
       <use xlink:href="#DejaVuSans-38"/>
       <use xlink:href="#DejaVuSans-38" x="63.623047"/>
       <use xlink:href="#DejaVuSans-30" x="127.246094"/>
      </g>
     </g>
    </g>
    <g id="xtick_13">
     <g id="line2d_13">
      <path d="M 273.969956 512.64 
L 273.969956 69.12 
" clip-path="url(#p8e035f2449)" style="fill: none; stroke: #cccccc; stroke-width: 0.8; stroke-linecap: round"/>
     </g>
     <g id="text_13">
      <!-- 960 -->
      <g style="fill: #262626" transform="translate(269.748352 537.54543)rotate(-45)scale(0.088 -0.088)">
       <defs>
        <path id="DejaVuSans-39" d="M 703 97 
L 703 672 
Q 941 559 1184 500 
Q 1428 441 1663 441 
Q 2288 441 2617 861 
Q 2947 1281 2994 2138 
Q 2813 1869 2534 1725 
Q 2256 1581 1919 1581 
Q 1219 1581 811 2004 
Q 403 2428 403 3163 
Q 403 3881 828 4315 
Q 1253 4750 1959 4750 
Q 2769 4750 3195 4129 
Q 3622 3509 3622 2328 
Q 3622 1225 3098 567 
Q 2575 -91 1691 -91 
Q 1453 -91 1209 -44 
Q 966 3 703 97 
z
M 1959 2075 
Q 2384 2075 2632 2365 
Q 2881 2656 2881 3163 
Q 2881 3666 2632 3958 
Q 2384 4250 1959 4250 
Q 1534 4250 1286 3958 
Q 1038 3666 1038 3163 
Q 1038 2656 1286 2365 
Q 1534 2075 1959 2075 
z
" transform="scale(0.015625)"/>
       </defs>
       <use xlink:href="#DejaVuSans-39"/>
       <use xlink:href="#DejaVuSans-36" x="63.623047"/>
       <use xlink:href="#DejaVuSans-30" x="127.246094"/>
      </g>
     </g>
    </g>
    <g id="xtick_14">
     <g id="line2d_14">
      <path d="M 290.996553 512.64 
L 290.996553 69.12 
" clip-path="url(#p8e035f2449)" style="fill: none; stroke: #cccccc; stroke-width: 0.8; stroke-linecap: round"/>
     </g>
     <g id="text_14">
      <!-- 1040 -->
      <g style="fill: #262626" transform="translate(284.795404 541.504521)rotate(-45)scale(0.088 -0.088)">
       <use xlink:href="#DejaVuSans-31"/>
       <use xlink:href="#DejaVuSans-30" x="63.623047"/>
       <use xlink:href="#DejaVuSans-34" x="127.246094"/>
       <use xlink:href="#DejaVuSans-30" x="190.869141"/>
      </g>
     </g>
    </g>
    <g id="xtick_15">
     <g id="line2d_15">
      <path d="M 308.02315 512.64 
L 308.02315 69.12 
" clip-path="url(#p8e035f2449)" style="fill: none; stroke: #cccccc; stroke-width: 0.8; stroke-linecap: round"/>
     </g>
     <g id="text_15">
      <!-- 1120 -->
      <g style="fill: #262626" transform="translate(301.822 541.504521)rotate(-45)scale(0.088 -0.088)">
       <use xlink:href="#DejaVuSans-31"/>
       <use xlink:href="#DejaVuSans-31" x="63.623047"/>
       <use xlink:href="#DejaVuSans-32" x="127.246094"/>
       <use xlink:href="#DejaVuSans-30" x="190.869141"/>
      </g>
     </g>
    </g>
    <g id="xtick_16">
     <g id="line2d_16">
      <path d="M 325.049747 512.64 
L 325.049747 69.12 
" clip-path="url(#p8e035f2449)" style="fill: none; stroke: #cccccc; stroke-width: 0.8; stroke-linecap: round"/>
     </g>
     <g id="text_16">
      <!-- 1200 -->
      <g style="fill: #262626" transform="translate(318.848597 541.504521)rotate(-45)scale(0.088 -0.088)">
       <use xlink:href="#DejaVuSans-31"/>
       <use xlink:href="#DejaVuSans-32" x="63.623047"/>
       <use xlink:href="#DejaVuSans-30" x="127.246094"/>
       <use xlink:href="#DejaVuSans-30" x="190.869141"/>
      </g>
     </g>
    </g>
    <g id="xtick_17">
     <g id="line2d_17">
      <path d="M 342.076343 512.64 
L 342.076343 69.12 
" clip-path="url(#p8e035f2449)" style="fill: none; stroke: #cccccc; stroke-width: 0.8; stroke-linecap: round"/>
     </g>
     <g id="text_17">
      <!-- 1280 -->
      <g style="fill: #262626" transform="translate(335.875194 541.504521)rotate(-45)scale(0.088 -0.088)">
       <use xlink:href="#DejaVuSans-31"/>
       <use xlink:href="#DejaVuSans-32" x="63.623047"/>
       <use xlink:href="#DejaVuSans-38" x="127.246094"/>
       <use xlink:href="#DejaVuSans-30" x="190.869141"/>
      </g>
     </g>
    </g>
    <g id="xtick_18">
     <g id="line2d_18">
      <path d="M 359.10294 512.64 
L 359.10294 69.12 
" clip-path="url(#p8e035f2449)" style="fill: none; stroke: #cccccc; stroke-width: 0.8; stroke-linecap: round"/>
     </g>
     <g id="text_18">
      <!-- 1360 -->
      <g style="fill: #262626" transform="translate(352.901791 541.504521)rotate(-45)scale(0.088 -0.088)">
       <use xlink:href="#DejaVuSans-31"/>
       <use xlink:href="#DejaVuSans-33" x="63.623047"/>
       <use xlink:href="#DejaVuSans-36" x="127.246094"/>
       <use xlink:href="#DejaVuSans-30" x="190.869141"/>
      </g>
     </g>
    </g>
    <g id="xtick_19">
     <g id="line2d_19">
      <path d="M 376.129537 512.64 
L 376.129537 69.12 
" clip-path="url(#p8e035f2449)" style="fill: none; stroke: #cccccc; stroke-width: 0.8; stroke-linecap: round"/>
     </g>
     <g id="text_19">
      <!-- 1440 -->
      <g style="fill: #262626" transform="translate(369.928387 541.504521)rotate(-45)scale(0.088 -0.088)">
       <use xlink:href="#DejaVuSans-31"/>
       <use xlink:href="#DejaVuSans-34" x="63.623047"/>
       <use xlink:href="#DejaVuSans-34" x="127.246094"/>
       <use xlink:href="#DejaVuSans-30" x="190.869141"/>
      </g>
     </g>
    </g>
    <g id="text_20">
     <!-- Time (Minutes) -->
     <g style="fill: #262626" transform="translate(186.87375 554.093115)scale(0.096 -0.096)">
      <defs>
       <path id="DejaVuSans-54" d="M -19 4666 
L 3928 4666 
L 3928 4134 
L 2272 4134 
L 2272 0 
L 1638 0 
L 1638 4134 
L -19 4134 
L -19 4666 
z
" transform="scale(0.015625)"/>
       <path id="DejaVuSans-69" d="M 603 3500 
L 1178 3500 
L 1178 0 
L 603 0 
L 603 3500 
z
M 603 4863 
L 1178 4863 
L 1178 4134 
L 603 4134 
L 603 4863 
z
" transform="scale(0.015625)"/>
       <path id="DejaVuSans-6d" d="M 3328 2828 
Q 3544 3216 3844 3400 
Q 4144 3584 4550 3584 
Q 5097 3584 5394 3201 
Q 5691 2819 5691 2113 
L 5691 0 
L 5113 0 
L 5113 2094 
Q 5113 2597 4934 2840 
Q 4756 3084 4391 3084 
Q 3944 3084 3684 2787 
Q 3425 2491 3425 1978 
L 3425 0 
L 2847 0 
L 2847 2094 
Q 2847 2600 2669 2842 
Q 2491 3084 2119 3084 
Q 1678 3084 1418 2786 
Q 1159 2488 1159 1978 
L 1159 0 
L 581 0 
L 581 3500 
L 1159 3500 
L 1159 2956 
Q 1356 3278 1631 3431 
Q 1906 3584 2284 3584 
Q 2666 3584 2933 3390 
Q 3200 3197 3328 2828 
z
" transform="scale(0.015625)"/>
       <path id="DejaVuSans-65" d="M 3597 1894 
L 3597 1613 
L 953 1613 
Q 991 1019 1311 708 
Q 1631 397 2203 397 
Q 2534 397 2845 478 
Q 3156 559 3463 722 
L 3463 178 
Q 3153 47 2828 -22 
Q 2503 -91 2169 -91 
Q 1331 -91 842 396 
Q 353 884 353 1716 
Q 353 2575 817 3079 
Q 1281 3584 2069 3584 
Q 2775 3584 3186 3129 
Q 3597 2675 3597 1894 
z
M 3022 2063 
Q 3016 2534 2758 2815 
Q 2500 3097 2075 3097 
Q 1594 3097 1305 2825 
Q 1016 2553 972 2059 
L 3022 2063 
z
" transform="scale(0.015625)"/>
       <path id="DejaVuSans-20" transform="scale(0.015625)"/>
       <path id="DejaVuSans-28" d="M 1984 4856 
Q 1566 4138 1362 3434 
Q 1159 2731 1159 2009 
Q 1159 1288 1364 580 
Q 1569 -128 1984 -844 
L 1484 -844 
Q 1016 -109 783 600 
Q 550 1309 550 2009 
Q 550 2706 781 3412 
Q 1013 4119 1484 4856 
L 1984 4856 
z
" transform="scale(0.015625)"/>
       <path id="DejaVuSans-4d" d="M 628 4666 
L 1569 4666 
L 2759 1491 
L 3956 4666 
L 4897 4666 
L 4897 0 
L 4281 0 
L 4281 4097 
L 3078 897 
L 2444 897 
L 1241 4097 
L 1241 0 
L 628 0 
L 628 4666 
z
" transform="scale(0.015625)"/>
       <path id="DejaVuSans-6e" d="M 3513 2113 
L 3513 0 
L 2938 0 
L 2938 2094 
Q 2938 2591 2744 2837 
Q 2550 3084 2163 3084 
Q 1697 3084 1428 2787 
Q 1159 2491 1159 1978 
L 1159 0 
L 581 0 
L 581 3500 
L 1159 3500 
L 1159 2956 
Q 1366 3272 1645 3428 
Q 1925 3584 2291 3584 
Q 2894 3584 3203 3211 
Q 3513 2838 3513 2113 
z
" transform="scale(0.015625)"/>
       <path id="DejaVuSans-75" d="M 544 1381 
L 544 3500 
L 1119 3500 
L 1119 1403 
Q 1119 906 1312 657 
Q 1506 409 1894 409 
Q 2359 409 2629 706 
Q 2900 1003 2900 1516 
L 2900 3500 
L 3475 3500 
L 3475 0 
L 2900 0 
L 2900 538 
Q 2691 219 2414 64 
Q 2138 -91 1772 -91 
Q 1169 -91 856 284 
Q 544 659 544 1381 
z
M 1991 3584 
L 1991 3584 
z
" transform="scale(0.015625)"/>
       <path id="DejaVuSans-74" d="M 1172 4494 
L 1172 3500 
L 2356 3500 
L 2356 3053 
L 1172 3053 
L 1172 1153 
Q 1172 725 1289 603 
Q 1406 481 1766 481 
L 2356 481 
L 2356 0 
L 1766 0 
Q 1100 0 847 248 
Q 594 497 594 1153 
L 594 3053 
L 172 3053 
L 172 3500 
L 594 3500 
L 594 4494 
L 1172 4494 
z
" transform="scale(0.015625)"/>
       <path id="DejaVuSans-73" d="M 2834 3397 
L 2834 2853 
Q 2591 2978 2328 3040 
Q 2066 3103 1784 3103 
Q 1356 3103 1142 2972 
Q 928 2841 928 2578 
Q 928 2378 1081 2264 
Q 1234 2150 1697 2047 
L 1894 2003 
Q 2506 1872 2764 1633 
Q 3022 1394 3022 966 
Q 3022 478 2636 193 
Q 2250 -91 1575 -91 
Q 1294 -91 989 -36 
Q 684 19 347 128 
L 347 722 
Q 666 556 975 473 
Q 1284 391 1588 391 
Q 1994 391 2212 530 
Q 2431 669 2431 922 
Q 2431 1156 2273 1281 
Q 2116 1406 1581 1522 
L 1381 1569 
Q 847 1681 609 1914 
Q 372 2147 372 2553 
Q 372 3047 722 3315 
Q 1072 3584 1716 3584 
Q 2034 3584 2315 3537 
Q 2597 3491 2834 3397 
z
" transform="scale(0.015625)"/>
       <path id="DejaVuSans-29" d="M 513 4856 
L 1013 4856 
Q 1481 4119 1714 3412 
Q 1947 2706 1947 2009 
Q 1947 1309 1714 600 
Q 1481 -109 1013 -844 
L 513 -844 
Q 928 -128 1133 580 
Q 1338 1288 1338 2009 
Q 1338 2731 1133 3434 
Q 928 4138 513 4856 
z
" transform="scale(0.015625)"/>
      </defs>
      <use xlink:href="#DejaVuSans-54"/>
      <use xlink:href="#DejaVuSans-69" x="57.958984"/>
      <use xlink:href="#DejaVuSans-6d" x="85.742188"/>
      <use xlink:href="#DejaVuSans-65" x="183.154297"/>
      <use xlink:href="#DejaVuSans-20" x="244.677734"/>
      <use xlink:href="#DejaVuSans-28" x="276.464844"/>
      <use xlink:href="#DejaVuSans-4d" x="315.478516"/>
      <use xlink:href="#DejaVuSans-69" x="401.757812"/>
      <use xlink:href="#DejaVuSans-6e" x="429.541016"/>
      <use xlink:href="#DejaVuSans-75" x="492.919922"/>
      <use xlink:href="#DejaVuSans-74" x="556.298828"/>
      <use xlink:href="#DejaVuSans-65" x="595.507812"/>
      <use xlink:href="#DejaVuSans-73" x="657.03125"/>
      <use xlink:href="#DejaVuSans-29" x="709.130859"/>
     </g>
    </g>
   </g>
   <g id="matplotlib.axis_2">
    <g id="ytick_1">
     <g id="line2d_20">
      <path d="M 54.3375 492.48 
L 391.23 492.48 
" clip-path="url(#p8e035f2449)" style="fill: none; stroke: #cccccc; stroke-width: 0.8; stroke-linecap: round"/>
     </g>
     <g id="text_21">
      <!-- 0 -->
      <g style="fill: #262626" transform="translate(40.4385 495.823312)scale(0.088 -0.088)">
       <use xlink:href="#DejaVuSans-30"/>
      </g>
     </g>
    </g>
    <g id="ytick_2">
     <g id="line2d_21">
      <path d="M 54.3375 425.503256 
L 391.23 425.503256 
" clip-path="url(#p8e035f2449)" style="fill: none; stroke: #cccccc; stroke-width: 0.8; stroke-linecap: round"/>
     </g>
     <g id="text_22">
      <!-- 100 -->
      <g style="fill: #262626" transform="translate(29.2405 428.846568)scale(0.088 -0.088)">
       <use xlink:href="#DejaVuSans-31"/>
       <use xlink:href="#DejaVuSans-30" x="63.623047"/>
       <use xlink:href="#DejaVuSans-30" x="127.246094"/>
      </g>
     </g>
    </g>
    <g id="ytick_3">
     <g id="line2d_22">
      <path d="M 54.3375 358.526512 
L 391.23 358.526512 
" clip-path="url(#p8e035f2449)" style="fill: none; stroke: #cccccc; stroke-width: 0.8; stroke-linecap: round"/>
     </g>
     <g id="text_23">
      <!-- 200 -->
      <g style="fill: #262626" transform="translate(29.2405 361.869824)scale(0.088 -0.088)">
       <use xlink:href="#DejaVuSans-32"/>
       <use xlink:href="#DejaVuSans-30" x="63.623047"/>
       <use xlink:href="#DejaVuSans-30" x="127.246094"/>
      </g>
     </g>
    </g>
    <g id="ytick_4">
     <g id="line2d_23">
      <path d="M 54.3375 291.549767 
L 391.23 291.549767 
" clip-path="url(#p8e035f2449)" style="fill: none; stroke: #cccccc; stroke-width: 0.8; stroke-linecap: round"/>
     </g>
     <g id="text_24">
      <!-- 300 -->
      <g style="fill: #262626" transform="translate(29.2405 294.89308)scale(0.088 -0.088)">
       <use xlink:href="#DejaVuSans-33"/>
       <use xlink:href="#DejaVuSans-30" x="63.623047"/>
       <use xlink:href="#DejaVuSans-30" x="127.246094"/>
      </g>
     </g>
    </g>
    <g id="ytick_5">
     <g id="line2d_24">
      <path d="M 54.3375 224.573023 
L 391.23 224.573023 
" clip-path="url(#p8e035f2449)" style="fill: none; stroke: #cccccc; stroke-width: 0.8; stroke-linecap: round"/>
     </g>
     <g id="text_25">
      <!-- 400 -->
      <g style="fill: #262626" transform="translate(29.2405 227.916336)scale(0.088 -0.088)">
       <use xlink:href="#DejaVuSans-34"/>
       <use xlink:href="#DejaVuSans-30" x="63.623047"/>
       <use xlink:href="#DejaVuSans-30" x="127.246094"/>
      </g>
     </g>
    </g>
    <g id="ytick_6">
     <g id="line2d_25">
      <path d="M 54.3375 157.596279 
L 391.23 157.596279 
" clip-path="url(#p8e035f2449)" style="fill: none; stroke: #cccccc; stroke-width: 0.8; stroke-linecap: round"/>
     </g>
     <g id="text_26">
      <!-- 500 -->
      <g style="fill: #262626" transform="translate(29.2405 160.939592)scale(0.088 -0.088)">
       <use xlink:href="#DejaVuSans-35"/>
       <use xlink:href="#DejaVuSans-30" x="63.623047"/>
       <use xlink:href="#DejaVuSans-30" x="127.246094"/>
      </g>
     </g>
    </g>
    <g id="ytick_7">
     <g id="line2d_26">
      <path d="M 54.3375 90.619535 
L 391.23 90.619535 
" clip-path="url(#p8e035f2449)" style="fill: none; stroke: #cccccc; stroke-width: 0.8; stroke-linecap: round"/>
     </g>
     <g id="text_27">
      <!-- 600 -->
      <g style="fill: #262626" transform="translate(29.2405 93.962847)scale(0.088 -0.088)">
       <use xlink:href="#DejaVuSans-36"/>
       <use xlink:href="#DejaVuSans-30" x="63.623047"/>
       <use xlink:href="#DejaVuSans-30" x="127.246094"/>
      </g>
     </g>
    </g>
    <g id="text_28">
     <!-- Edge Coverages -->
     <g style="fill: #262626" transform="translate(23.244 329.98575)rotate(-90)scale(0.096 -0.096)">
      <defs>
       <path id="DejaVuSans-45" d="M 628 4666 
L 3578 4666 
L 3578 4134 
L 1259 4134 
L 1259 2753 
L 3481 2753 
L 3481 2222 
L 1259 2222 
L 1259 531 
L 3634 531 
L 3634 0 
L 628 0 
L 628 4666 
z
" transform="scale(0.015625)"/>
       <path id="DejaVuSans-64" d="M 2906 2969 
L 2906 4863 
L 3481 4863 
L 3481 0 
L 2906 0 
L 2906 525 
Q 2725 213 2448 61 
Q 2172 -91 1784 -91 
Q 1150 -91 751 415 
Q 353 922 353 1747 
Q 353 2572 751 3078 
Q 1150 3584 1784 3584 
Q 2172 3584 2448 3432 
Q 2725 3281 2906 2969 
z
M 947 1747 
Q 947 1113 1208 752 
Q 1469 391 1925 391 
Q 2381 391 2643 752 
Q 2906 1113 2906 1747 
Q 2906 2381 2643 2742 
Q 2381 3103 1925 3103 
Q 1469 3103 1208 2742 
Q 947 2381 947 1747 
z
" transform="scale(0.015625)"/>
       <path id="DejaVuSans-67" d="M 2906 1791 
Q 2906 2416 2648 2759 
Q 2391 3103 1925 3103 
Q 1463 3103 1205 2759 
Q 947 2416 947 1791 
Q 947 1169 1205 825 
Q 1463 481 1925 481 
Q 2391 481 2648 825 
Q 2906 1169 2906 1791 
z
M 3481 434 
Q 3481 -459 3084 -895 
Q 2688 -1331 1869 -1331 
Q 1566 -1331 1297 -1286 
Q 1028 -1241 775 -1147 
L 775 -588 
Q 1028 -725 1275 -790 
Q 1522 -856 1778 -856 
Q 2344 -856 2625 -561 
Q 2906 -266 2906 331 
L 2906 616 
Q 2728 306 2450 153 
Q 2172 0 1784 0 
Q 1141 0 747 490 
Q 353 981 353 1791 
Q 353 2603 747 3093 
Q 1141 3584 1784 3584 
Q 2172 3584 2450 3431 
Q 2728 3278 2906 2969 
L 2906 3500 
L 3481 3500 
L 3481 434 
z
" transform="scale(0.015625)"/>
       <path id="DejaVuSans-43" d="M 4122 4306 
L 4122 3641 
Q 3803 3938 3442 4084 
Q 3081 4231 2675 4231 
Q 1875 4231 1450 3742 
Q 1025 3253 1025 2328 
Q 1025 1406 1450 917 
Q 1875 428 2675 428 
Q 3081 428 3442 575 
Q 3803 722 4122 1019 
L 4122 359 
Q 3791 134 3420 21 
Q 3050 -91 2638 -91 
Q 1578 -91 968 557 
Q 359 1206 359 2328 
Q 359 3453 968 4101 
Q 1578 4750 2638 4750 
Q 3056 4750 3426 4639 
Q 3797 4528 4122 4306 
z
" transform="scale(0.015625)"/>
       <path id="DejaVuSans-6f" d="M 1959 3097 
Q 1497 3097 1228 2736 
Q 959 2375 959 1747 
Q 959 1119 1226 758 
Q 1494 397 1959 397 
Q 2419 397 2687 759 
Q 2956 1122 2956 1747 
Q 2956 2369 2687 2733 
Q 2419 3097 1959 3097 
z
M 1959 3584 
Q 2709 3584 3137 3096 
Q 3566 2609 3566 1747 
Q 3566 888 3137 398 
Q 2709 -91 1959 -91 
Q 1206 -91 779 398 
Q 353 888 353 1747 
Q 353 2609 779 3096 
Q 1206 3584 1959 3584 
z
" transform="scale(0.015625)"/>
       <path id="DejaVuSans-76" d="M 191 3500 
L 800 3500 
L 1894 563 
L 2988 3500 
L 3597 3500 
L 2284 0 
L 1503 0 
L 191 3500 
z
" transform="scale(0.015625)"/>
       <path id="DejaVuSans-72" d="M 2631 2963 
Q 2534 3019 2420 3045 
Q 2306 3072 2169 3072 
Q 1681 3072 1420 2755 
Q 1159 2438 1159 1844 
L 1159 0 
L 581 0 
L 581 3500 
L 1159 3500 
L 1159 2956 
Q 1341 3275 1631 3429 
Q 1922 3584 2338 3584 
Q 2397 3584 2469 3576 
Q 2541 3569 2628 3553 
L 2631 2963 
z
" transform="scale(0.015625)"/>
       <path id="DejaVuSans-61" d="M 2194 1759 
Q 1497 1759 1228 1600 
Q 959 1441 959 1056 
Q 959 750 1161 570 
Q 1363 391 1709 391 
Q 2188 391 2477 730 
Q 2766 1069 2766 1631 
L 2766 1759 
L 2194 1759 
z
M 3341 1997 
L 3341 0 
L 2766 0 
L 2766 531 
Q 2569 213 2275 61 
Q 1981 -91 1556 -91 
Q 1019 -91 701 211 
Q 384 513 384 1019 
Q 384 1609 779 1909 
Q 1175 2209 1959 2209 
L 2766 2209 
L 2766 2266 
Q 2766 2663 2505 2880 
Q 2244 3097 1772 3097 
Q 1472 3097 1187 3025 
Q 903 2953 641 2809 
L 641 3341 
Q 956 3463 1253 3523 
Q 1550 3584 1831 3584 
Q 2591 3584 2966 3190 
Q 3341 2797 3341 1997 
z
" transform="scale(0.015625)"/>
      </defs>
      <use xlink:href="#DejaVuSans-45"/>
      <use xlink:href="#DejaVuSans-64" x="63.183594"/>
      <use xlink:href="#DejaVuSans-67" x="126.660156"/>
      <use xlink:href="#DejaVuSans-65" x="190.136719"/>
      <use xlink:href="#DejaVuSans-20" x="251.660156"/>
      <use xlink:href="#DejaVuSans-43" x="283.447266"/>
      <use xlink:href="#DejaVuSans-6f" x="353.271484"/>
      <use xlink:href="#DejaVuSans-76" x="414.453125"/>
      <use xlink:href="#DejaVuSans-65" x="473.632812"/>
      <use xlink:href="#DejaVuSans-72" x="535.15625"/>
      <use xlink:href="#DejaVuSans-61" x="576.269531"/>
      <use xlink:href="#DejaVuSans-67" x="637.548828"/>
      <use xlink:href="#DejaVuSans-65" x="701.025391"/>
      <use xlink:href="#DejaVuSans-73" x="762.548828"/>
     </g>
    </g>
   </g>
   <g id="PolyCollection_1">
    <defs>
     <path id="m63634c2502" d="M 69.650795 -140.450233 
L 69.650795 -83.52 
L 69.650795 -140.450233 
L 69.650795 -140.450233 
z
" style="stroke: #db5f57; stroke-opacity: 0.2; stroke-width: 0.8"/>
    </defs>
    <g clip-path="url(#p8e035f2449)">
     <use xlink:href="#m63634c2502" x="0" y="576" style="fill: #db5f57; fill-opacity: 0.2; stroke: #db5f57; stroke-opacity: 0.2; stroke-width: 0.8"/>
    </g>
   </g>
   <g id="PolyCollection_2">
    <defs>
     <path id="m67ba4461f6" d="M 69.650795 -110.980465 
L 69.650795 -83.52 
L 69.650795 -110.980465 
L 69.650795 -110.980465 
z
" style="stroke: #b9db57; stroke-opacity: 0.2; stroke-width: 0.8"/>
    </defs>
    <g clip-path="url(#p8e035f2449)">
     <use xlink:href="#m67ba4461f6" x="0" y="576" style="fill: #b9db57; fill-opacity: 0.2; stroke: #b9db57; stroke-opacity: 0.2; stroke-width: 0.8"/>
    </g>
   </g>
   <g id="PolyCollection_3">
    <defs>
     <path id="m4058ba53e1" d="M 69.650795 -108.971163 
L 69.650795 -83.52 
L 69.650795 -108.971163 
L 69.650795 -108.971163 
z
" style="stroke: #57db94; stroke-opacity: 0.2; stroke-width: 0.8"/>
    </defs>
    <g clip-path="url(#p8e035f2449)">
     <use xlink:href="#m4058ba53e1" x="0" y="576" style="fill: #57db94; fill-opacity: 0.2; stroke: #57db94; stroke-opacity: 0.2; stroke-width: 0.8"/>
    </g>
   </g>
   <g id="PolyCollection_4">
    <defs>
     <path id="m8821e7d240" d="M 69.650795 -114.99907 
L 69.650795 -83.52 
L 69.650795 -114.99907 
L 69.650795 -114.99907 
z
" style="stroke: #5784db; stroke-opacity: 0.2; stroke-width: 0.8"/>
    </defs>
    <g clip-path="url(#p8e035f2449)">
     <use xlink:href="#m8821e7d240" x="0" y="576" style="fill: #5784db; fill-opacity: 0.2; stroke: #5784db; stroke-opacity: 0.2; stroke-width: 0.8"/>
    </g>
   </g>
   <g id="PolyCollection_5">
    <defs>
     <path id="m2ddfcd9162" d="M 69.650795 -157.864186 
L 69.650795 -83.52 
L 69.650795 -157.864186 
L 69.650795 -157.864186 
z
" style="stroke: #c957db; stroke-opacity: 0.2; stroke-width: 0.8"/>
    </defs>
    <g clip-path="url(#p8e035f2449)">
     <use xlink:href="#m2ddfcd9162" x="0" y="576" style="fill: #c957db; fill-opacity: 0.2; stroke: #c957db; stroke-opacity: 0.2; stroke-width: 0.8"/>
    </g>
   </g>
   <g id="line2d_27">
    <path d="M 69.650795 464.014884 
L 69.863628 411.43814 
L 70.502125 385.986977 
L 70.92779 376.610233 
L 71.140623 375.940465 
L 71.353455 373.931163 
L 71.566288 373.931163 
L 71.77912 365.893953 
L 71.991953 365.224186 
L 72.204785 361.875349 
L 72.417617 360.535814 
L 72.63045 360.535814 
L 73.268947 348.48 
L 73.48178 348.48 
L 73.907445 345.80093 
L 74.120277 345.80093 
L 74.758774 342.452093 
L 74.971607 341.782326 
L 78.802591 341.782326 
L 79.015424 337.763721 
L 79.228256 337.093953 
L 80.079586 328.386977 
L 80.505251 328.386977 
L 80.718083 327.717209 
L 80.930916 327.717209 
L 81.143748 237.298605 
L 82.846408 237.298605 
L 83.05924 236.628837 
L 83.272073 236.628837 
L 83.484905 235.95907 
L 83.697738 235.95907 
L 84.123403 234.619535 
L 84.549068 225.242791 
L 84.7619 225.242791 
L 85.187565 223.903256 
L 85.61323 219.884651 
L 85.826062 219.214884 
L 87.741555 219.214884 
L 87.954387 215.196279 
L 88.167219 214.526512 
L 89.657047 214.526512 
L 89.869879 213.856744 
L 90.295544 213.856744 
L 90.508376 212.517209 
L 99.44734 212.517209 
L 99.660172 211.847442 
L 100.937167 211.847442 
L 101.149999 210.507907 
L 120.304921 210.507907 
L 120.517753 175.010233 
L 130.095214 175.010233 
L 130.308046 165.633488 
L 142.439497 165.633488 
L 142.652329 159.605581 
L 152.22979 159.605581 
L 152.442622 150.228837 
L 165.21257 150.228837 
L 165.425402 141.52186 
L 166.915229 141.52186 
L 167.128062 140.852093 
L 178.19535 140.852093 
L 178.408182 139.512558 
L 191.17813 139.512558 
L 191.390962 132.145116 
L 201.819753 132.145116 
L 202.032585 129.466047 
L 215.015365 129.466047 
L 215.228198 128.796279 
L 227.998145 128.796279 
L 228.210978 127.456744 
L 240.980925 127.456744 
L 241.193758 122.098605 
L 253.750873 122.098605 
L 253.963705 112.052093 
L 266.307988 112.052093 
L 266.52082 109.373023 
L 268.010648 109.373023 
L 268.22348 108.703256 
L 279.077936 108.703256 
L 279.290768 104.014884 
L 292.060716 104.014884 
L 292.273548 103.345116 
L 305.681993 103.345116 
L 305.894825 102.005581 
L 330.157726 102.005581 
L 330.370558 101.335814 
L 340.799349 101.335814 
L 341.012181 99.996279 
L 351.866637 99.996279 
L 352.079469 99.326512 
L 375.916705 99.326512 
L 375.916705 99.326512 
" clip-path="url(#p8e035f2449)" style="fill: none; stroke: #db5f57; stroke-width: 1.2; stroke-linecap: round"/>
   </g>
   <g id="line2d_28">
    <path d="M 69.650795 478.749767 
L 69.863628 463.010233 
L 70.07646 458.32186 
L 70.289293 442.917209 
L 70.502125 436.889302 
L 70.92779 413.447442 
L 72.204785 373.931163 
L 72.417617 371.252093 
L 72.843282 353.83814 
L 73.056115 334.414884 
L 73.268947 278.824186 
L 74.33311 278.824186 
L 74.758774 277.484651 
L 75.184439 268.777674 
L 75.397272 268.777674 
L 75.610104 268.107907 
L 76.035769 266.098605 
L 76.248602 262.749767 
L 76.674267 262.749767 
L 76.887099 258.061395 
L 77.099932 258.061395 
L 77.312764 256.72186 
L 77.525596 256.72186 
L 77.738429 256.052093 
L 77.951261 256.052093 
L 78.164094 255.382326 
L 78.376926 255.382326 
L 78.589759 254.712558 
L 79.015424 254.712558 
L 79.228256 254.042791 
L 80.079586 254.042791 
L 80.292418 253.373023 
L 80.505251 249.354419 
L 81.143748 249.354419 
L 81.356581 248.684651 
L 81.782246 248.684651 
L 81.995078 248.014884 
L 82.420743 248.014884 
L 82.633575 246.005581 
L 83.697738 246.005581 
L 83.91057 243.996279 
L 84.549068 243.996279 
L 84.7619 235.95907 
L 94.765026 235.95907 
L 94.977858 235.289302 
L 95.403523 235.289302 
L 95.616356 234.619535 
L 96.467685 234.619535 
L 96.680518 233.949767 
L 98.383177 233.949767 
L 98.59601 233.28 
L 101.149999 233.28 
L 101.362832 232.610233 
L 103.065492 232.610233 
L 103.278324 217.205581 
L 103.491157 216.535814 
L 105.406649 216.535814 
L 105.619481 215.866047 
L 106.045146 215.866047 
L 106.257978 215.196279 
L 106.896476 215.196279 
L 107.109308 213.186977 
L 107.534973 213.186977 
L 107.747806 212.517209 
L 108.173471 212.517209 
L 108.386303 211.177674 
L 108.599136 211.177674 
L 108.811968 210.507907 
L 109.450465 210.507907 
L 109.87613 208.498605 
L 111.365957 208.498605 
L 111.57879 207.15907 
L 112.004455 207.15907 
L 112.217287 206.489302 
L 113.28145 206.489302 
L 113.494282 203.810233 
L 113.707115 203.810233 
L 113.919947 203.140465 
L 115.196942 203.140465 
L 115.409774 201.131163 
L 115.835439 201.131163 
L 116.048272 200.461395 
L 116.261104 199.12186 
L 116.686769 199.12186 
L 116.899601 196.442791 
L 117.325266 196.442791 
L 117.538099 195.773023 
L 119.240758 195.773023 
L 119.453591 195.103256 
L 121.156251 195.103256 
L 121.369083 191.084651 
L 121.794748 191.084651 
L 122.00758 190.414884 
L 123.071743 190.414884 
L 123.284575 188.405581 
L 124.987235 188.405581 
L 125.200067 187.735814 
L 126.051397 187.735814 
L 126.26423 187.066047 
L 126.477062 187.066047 
L 126.689895 185.056744 
L 128.605387 185.056744 
L 128.818219 184.386977 
L 129.456717 184.386977 
L 129.669549 183.717209 
L 129.882381 183.717209 
L 130.095214 183.047442 
L 130.308046 183.047442 
L 130.520879 181.707907 
L 131.372209 181.707907 
L 131.585041 181.03814 
L 132.436371 181.03814 
L 132.649203 180.368372 
L 145.844816 180.368372 
L 146.057648 177.019535 
L 146.483313 177.019535 
L 146.696146 176.349767 
L 146.908978 176.349767 
L 147.121811 175.68 
L 147.334643 175.68 
L 147.547476 175.010233 
L 147.973141 175.010233 
L 148.185973 174.340465 
L 149.462968 174.340465 
L 149.888633 173.00093 
L 150.101465 173.00093 
L 150.314298 171.661395 
L 150.52713 171.661395 
L 150.739962 170.991628 
L 151.37846 170.991628 
L 151.591292 170.32186 
L 152.016957 170.32186 
L 152.442622 168.982326 
L 153.506784 168.982326 
L 153.719617 166.973023 
L 154.358114 166.973023 
L 154.570947 166.303256 
L 154.996612 166.303256 
L 155.422277 163.624186 
L 157.763434 163.624186 
L 157.976266 162.954419 
L 159.253261 162.954419 
L 159.466093 162.284651 
L 160.104591 162.284651 
L 160.317423 161.614884 
L 163.297078 161.614884 
L 163.50991 160.945116 
L 177.34402 160.945116 
L 177.556852 160.275349 
L 177.982517 160.275349 
L 178.19535 158.935814 
L 178.621015 158.935814 
L 178.833847 158.266047 
L 179.472345 158.266047 
L 179.685177 157.596279 
L 181.387837 157.596279 
L 181.600669 156.926512 
L 182.026334 156.926512 
L 182.451999 155.586977 
L 184.580324 155.586977 
L 184.793156 154.247442 
L 185.005988 154.247442 
L 185.218821 152.907907 
L 186.495816 152.907907 
L 186.708648 151.568372 
L 240.980925 151.568372 
L 241.193758 143.531163 
L 242.683585 143.531163 
L 243.10925 142.191628 
L 244.173412 142.191628 
L 244.599077 140.182326 
L 248.855726 140.182326 
L 249.068559 139.512558 
L 249.919889 139.512558 
L 250.132721 138.173023 
L 253.750873 138.173023 
L 253.963705 137.503256 
L 266.307988 137.503256 
L 266.52082 135.493953 
L 267.37215 135.493953 
L 267.797815 134.154419 
L 268.861977 134.154419 
L 269.07481 131.475349 
L 269.500475 131.475349 
L 269.713307 130.805581 
L 277.800941 130.805581 
L 278.013773 130.135814 
L 375.916705 130.135814 
L 375.916705 130.135814 
" clip-path="url(#p8e035f2449)" style="fill: none; stroke: #b9db57; stroke-width: 1.2; stroke-linecap: round"/>
   </g>
   <g id="line2d_29">
    <path d="M 69.650795 479.754419 
L 69.863628 454.303256 
L 70.289293 440.907907 
L 70.92779 424.163721 
L 71.140623 422.154419 
L 71.353455 413.447442 
L 71.566288 410.098605 
L 72.204785 406.749767 
L 72.417617 406.749767 
L 72.63045 402.061395 
L 72.843282 400.72186 
L 73.268947 394.693953 
L 73.694612 393.354419 
L 74.33311 393.354419 
L 74.758774 391.345116 
L 74.971607 391.345116 
L 75.184439 389.335814 
L 75.397272 388.666047 
L 76.248602 388.666047 
L 76.461434 387.996279 
L 77.099932 387.996279 
L 77.312764 387.326512 
L 83.91057 387.326512 
L 84.336235 385.986977 
L 85.61323 385.986977 
L 85.826062 384.647442 
L 86.251727 384.647442 
L 86.46456 383.977674 
L 87.954387 383.977674 
L 88.167219 383.307907 
L 88.592884 383.307907 
L 88.805717 381.298605 
L 89.231382 379.95907 
L 89.869879 374.60093 
L 90.082712 373.931163 
L 90.295544 372.591628 
L 90.721209 343.12186 
L 91.359706 327.717209 
L 91.572539 327.047442 
L 91.785371 325.707907 
L 91.998204 325.707907 
L 92.211036 322.35907 
L 92.636701 321.019535 
L 92.849534 321.019535 
L 93.062366 313.652093 
L 93.275198 310.973023 
L 93.488031 310.973023 
L 93.700863 310.303256 
L 93.913696 308.963721 
L 94.126528 308.963721 
L 94.339361 306.954419 
L 94.552193 306.284651 
L 98.808842 306.284651 
L 99.021675 305.614884 
L 100.511502 305.614884 
L 100.724335 304.945116 
L 100.937167 304.945116 
L 101.149999 304.275349 
L 102.001329 304.275349 
L 102.214162 303.605581 
L 102.426994 303.605581 
L 102.852659 301.596279 
L 103.065492 301.596279 
L 103.491157 300.256744 
L 103.703989 219.214884 
L 103.916821 196.442791 
L 106.683643 196.442791 
L 107.109308 193.763721 
L 107.322141 193.763721 
L 107.747806 192.424186 
L 109.237633 192.424186 
L 109.450465 191.084651 
L 119.453591 191.084651 
L 119.666423 190.414884 
L 120.517753 190.414884 
L 120.730586 189.075349 
L 120.943418 189.075349 
L 121.156251 170.32186 
L 135.84169 170.32186 
L 136.054523 160.945116 
L 143.716491 160.945116 
L 143.929324 160.275349 
L 146.908978 160.275349 
L 147.121811 154.247442 
L 147.547476 154.247442 
L 147.760308 153.577674 
L 152.442622 153.577674 
L 152.655455 147.549767 
L 164.786905 147.549767 
L 164.999737 138.842791 
L 176.918355 138.842791 
L 177.131187 138.173023 
L 179.685177 138.173023 
L 179.898009 137.503256 
L 181.813502 137.503256 
L 182.026334 136.833488 
L 186.070151 136.833488 
L 186.282983 136.163721 
L 189.262638 136.163721 
L 189.47547 130.805581 
L 190.3268 130.805581 
L 190.752465 128.796279 
L 191.816627 128.796279 
L 192.02946 128.126512 
L 193.944952 128.126512 
L 194.157784 127.456744 
L 195.647611 127.456744 
L 195.860444 126.786977 
L 207.566229 126.786977 
L 207.779062 126.117209 
L 207.991894 126.117209 
L 208.204727 124.107907 
L 210.545884 124.107907 
L 210.758716 123.43814 
L 225.656988 123.43814 
L 225.869821 122.098605 
L 236.937109 122.098605 
L 237.149941 121.428837 
L 237.362773 121.428837 
L 237.788438 120.089302 
L 238.426936 120.089302 
L 238.852601 118.749767 
L 239.491098 118.749767 
L 239.703931 117.410233 
L 243.10925 117.410233 
L 243.322082 112.72186 
L 243.534915 112.72186 
L 243.747747 112.052093 
L 263.966831 112.052093 
L 264.179663 106.693953 
L 265.030993 106.693953 
L 265.456658 105.354419 
L 267.584983 105.354419 
L 267.797815 104.684651 
L 268.010648 104.684651 
L 268.22348 103.345116 
L 291.635051 103.345116 
L 291.847883 98.656744 
L 309.300145 98.656744 
L 309.512977 97.317209 
L 335.052872 97.317209 
L 335.265705 96.647442 
L 347.397155 96.647442 
L 347.609987 94.63814 
L 375.703872 94.63814 
L 375.916705 93.968372 
L 375.916705 93.968372 
" clip-path="url(#p8e035f2449)" style="fill: none; stroke: #57db94; stroke-width: 1.2; stroke-linecap: round"/>
   </g>
   <g id="line2d_30">
    <path d="M 69.650795 476.740465 
L 70.07646 433.540465 
L 70.502125 415.456744 
L 70.714958 401.391628 
L 70.92779 331.066047 
L 71.140623 324.368372 
L 71.353455 323.698605 
L 71.566288 321.019535 
L 72.204785 301.596279 
L 72.417617 301.596279 
L 72.63045 296.907907 
L 73.056115 280.163721 
L 73.48178 276.814884 
L 73.694612 276.145116 
L 73.907445 276.145116 
L 74.120277 275.475349 
L 74.545942 271.456744 
L 74.758774 271.456744 
L 74.971607 270.786977 
L 75.397272 265.428837 
L 75.822937 264.089302 
L 76.035769 264.089302 
L 76.248602 258.061395 
L 76.674267 258.061395 
L 76.887099 257.391628 
L 77.312764 257.391628 
L 77.738429 255.382326 
L 77.951261 255.382326 
L 78.164094 254.712558 
L 78.589759 254.712558 
L 78.802591 254.042791 
L 79.228256 254.042791 
L 79.441089 252.703256 
L 79.653921 252.703256 
L 79.866754 252.033488 
L 80.079586 249.354419 
L 83.697738 249.354419 
L 83.91057 246.005581 
L 84.549068 246.005581 
L 84.7619 245.335814 
L 84.974733 235.95907 
L 85.187565 235.289302 
L 85.400397 235.289302 
L 85.826062 231.270698 
L 86.251727 229.261395 
L 86.46456 229.261395 
L 86.677392 228.591628 
L 86.890225 228.591628 
L 87.103057 227.92186 
L 87.954387 227.92186 
L 88.167219 227.252093 
L 88.592884 225.242791 
L 89.657047 225.242791 
L 89.869879 223.903256 
L 90.082712 223.903256 
L 90.721209 221.893953 
L 91.146874 221.893953 
L 91.359706 221.224186 
L 94.552193 221.224186 
L 94.765026 220.554419 
L 94.977858 220.554419 
L 95.190691 219.884651 
L 95.403523 219.884651 
L 95.616356 219.214884 
L 96.254853 219.214884 
L 96.467685 218.545116 
L 97.531848 218.545116 
L 97.74468 217.875349 
L 98.170345 217.875349 
L 98.59601 216.535814 
L 103.278324 216.535814 
L 103.491157 215.196279 
L 106.257978 215.196279 
L 106.470811 214.526512 
L 106.683643 214.526512 
L 106.896476 213.856744 
L 107.109308 212.517209 
L 109.663298 212.517209 
L 109.87613 209.168372 
L 110.088963 208.498605 
L 111.365957 208.498605 
L 111.57879 207.828837 
L 112.004455 207.828837 
L 112.217287 206.489302 
L 112.642952 206.489302 
L 112.855785 205.819535 
L 113.068617 205.819535 
L 113.28145 204.48 
L 113.494282 204.48 
L 113.707115 203.140465 
L 113.919947 203.140465 
L 114.132779 202.470698 
L 114.558444 202.470698 
L 114.771277 201.80093 
L 115.622607 201.80093 
L 115.835439 201.131163 
L 116.473937 197.112558 
L 116.899601 197.112558 
L 117.112434 195.773023 
L 117.538099 195.773023 
L 117.750931 195.103256 
L 118.176596 195.103256 
L 118.389429 194.433488 
L 118.602261 193.093953 
L 119.240758 193.093953 
L 119.453591 192.424186 
L 119.879256 192.424186 
L 120.092088 191.754419 
L 120.943418 191.754419 
L 121.156251 190.414884 
L 121.369083 190.414884 
L 121.581916 189.075349 
L 121.794748 189.075349 
L 122.00758 188.405581 
L 122.220413 188.405581 
L 122.433245 187.735814 
L 124.56157 187.735814 
L 124.774402 187.066047 
L 126.051397 187.066047 
L 126.26423 186.396279 
L 126.477062 184.386977 
L 129.031052 184.386977 
L 129.243884 183.717209 
L 129.456717 183.717209 
L 129.669549 183.047442 
L 129.882381 183.047442 
L 130.308046 181.707907 
L 130.946544 181.707907 
L 131.159376 181.03814 
L 132.649203 181.03814 
L 132.862036 180.368372 
L 137.970015 180.368372 
L 138.182847 179.028837 
L 138.821345 179.028837 
L 139.034177 178.35907 
L 139.672675 178.35907 
L 139.885507 177.689302 
L 140.09834 177.689302 
L 140.311172 176.349767 
L 141.375334 176.349767 
L 141.588167 175.68 
L 143.290826 175.68 
L 143.503659 175.010233 
L 143.716491 175.010233 
L 143.929324 174.340465 
L 147.760308 174.340465 
L 147.973141 173.00093 
L 148.398805 173.00093 
L 148.82447 171.661395 
L 151.804125 171.661395 
L 152.016957 168.312558 
L 152.442622 168.312558 
L 152.655455 167.642791 
L 152.868287 165.633488 
L 153.293952 165.633488 
L 153.719617 164.293953 
L 153.932449 164.293953 
L 154.145282 163.624186 
L 154.358114 163.624186 
L 154.570947 162.954419 
L 154.783779 162.954419 
L 154.996612 161.614884 
L 155.209444 161.614884 
L 155.422277 160.945116 
L 158.189099 160.945116 
L 158.401931 160.275349 
L 160.743088 160.275349 
L 160.955921 159.605581 
L 163.935575 159.605581 
L 164.148407 158.935814 
L 166.915229 158.935814 
L 167.128062 158.266047 
L 178.19535 158.266047 
L 178.408182 156.926512 
L 178.833847 156.926512 
L 179.04668 156.256744 
L 182.239166 156.256744 
L 182.451999 154.247442 
L 183.941826 154.247442 
L 184.367491 152.907907 
L 185.431653 152.907907 
L 185.644486 151.568372 
L 186.282983 151.568372 
L 186.495816 150.898605 
L 187.347146 150.898605 
L 187.559978 150.228837 
L 190.3268 150.228837 
L 190.539632 148.889302 
L 190.752465 148.889302 
L 190.965297 148.219535 
L 192.02946 148.219535 
L 192.242292 147.549767 
L 193.519287 147.549767 
L 193.732119 146.88 
L 194.583449 146.88 
L 194.796282 146.210233 
L 197.563104 146.210233 
L 197.775936 145.540465 
L 207.566229 145.540465 
L 207.779062 144.870698 
L 221.826004 144.870698 
L 222.038836 144.20093 
L 222.677334 144.20093 
L 222.890166 143.531163 
L 234.595951 143.531163 
L 234.808784 142.861395 
L 239.065433 142.861395 
L 239.278266 140.852093 
L 240.980925 140.852093 
L 241.193758 140.182326 
L 245.024742 140.182326 
L 245.237574 138.173023 
L 249.068559 138.173023 
L 249.281391 137.503256 
L 249.919889 137.503256 
L 250.132721 136.833488 
L 250.345553 136.833488 
L 250.558386 135.493953 
L 253.750873 135.493953 
L 253.963705 134.824186 
L 260.774344 134.824186 
L 260.987176 134.154419 
L 265.243826 134.154419 
L 265.456658 133.484651 
L 265.669491 133.484651 
L 265.882323 132.814884 
L 266.52082 132.814884 
L 266.733653 132.145116 
L 270.351805 132.145116 
L 270.564637 128.796279 
L 273.118627 128.796279 
L 273.331459 128.126512 
L 277.375276 128.126512 
L 277.588108 127.456744 
L 279.5036 127.456744 
L 279.716433 126.786977 
L 305.894825 126.786977 
L 306.107658 126.117209 
L 306.32049 124.777674 
L 327.603736 124.777674 
L 327.816569 124.107907 
L 335.265705 124.107907 
L 335.478537 123.43814 
L 337.394029 123.43814 
L 337.606862 122.768372 
L 345.481663 122.768372 
L 345.694495 122.098605 
L 346.758658 122.098605 
L 346.97149 121.428837 
L 366.126411 121.428837 
L 366.339244 120.75907 
L 375.916705 120.75907 
L 375.916705 120.75907 
" clip-path="url(#p8e035f2449)" style="fill: none; stroke: #5784db; stroke-width: 1.2; stroke-linecap: round"/>
   </g>
   <g id="line2d_31">
    <path d="M 69.650795 455.307907 
L 69.863628 387.326512 
L 70.714958 325.03814 
L 71.140623 312.982326 
L 71.566288 302.935814 
L 72.204785 289.540465 
L 72.417617 288.20093 
L 72.843282 274.805581 
L 73.056115 265.428837 
L 73.48178 262.08 
L 73.907445 260.740465 
L 74.120277 260.740465 
L 74.545942 256.72186 
L 74.971607 255.382326 
L 75.184439 251.363721 
L 75.397272 250.693953 
L 76.035769 247.345116 
L 76.248602 243.326512 
L 76.674267 243.326512 
L 76.887099 242.656744 
L 77.099932 242.656744 
L 77.312764 241.317209 
L 77.525596 241.317209 
L 77.738429 240.647442 
L 77.951261 240.647442 
L 78.164094 239.977674 
L 78.376926 239.977674 
L 78.589759 239.307907 
L 79.015424 239.307907 
L 79.441089 237.968372 
L 79.653921 236.628837 
L 79.866754 236.628837 
L 80.079586 233.949767 
L 81.143748 233.949767 
L 81.356581 233.28 
L 82.420743 233.28 
L 82.633575 231.940465 
L 82.846408 231.940465 
L 83.05924 231.270698 
L 83.272073 231.270698 
L 83.484905 230.60093 
L 83.697738 230.60093 
L 83.91057 228.591628 
L 84.336235 227.252093 
L 84.549068 221.893953 
L 84.7619 219.884651 
L 85.187565 218.545116 
L 85.61323 214.526512 
L 85.826062 213.856744 
L 86.038895 212.517209 
L 86.251727 212.517209 
L 86.46456 211.847442 
L 86.890225 211.847442 
L 87.103057 211.177674 
L 87.741555 211.177674 
L 87.954387 207.15907 
L 88.167219 206.489302 
L 88.380052 206.489302 
L 88.592884 205.819535 
L 89.657047 205.819535 
L 90.082712 203.810233 
L 90.295544 203.810233 
L 90.508376 201.80093 
L 91.146874 201.80093 
L 91.359706 201.131163 
L 94.552193 201.131163 
L 94.765026 200.461395 
L 94.977858 200.461395 
L 95.190691 199.791628 
L 95.403523 199.791628 
L 95.616356 199.12186 
L 96.254853 199.12186 
L 96.467685 198.452093 
L 97.531848 198.452093 
L 97.74468 197.782326 
L 98.170345 197.782326 
L 98.59601 196.442791 
L 99.44734 196.442791 
L 99.660172 195.773023 
L 100.937167 195.773023 
L 101.149999 194.433488 
L 102.426994 194.433488 
L 102.639827 193.763721 
L 103.278324 193.763721 
L 103.491157 193.093953 
L 106.045146 193.093953 
L 106.257978 192.424186 
L 106.683643 192.424186 
L 106.896476 191.754419 
L 107.109308 190.414884 
L 107.322141 190.414884 
L 107.534973 189.745116 
L 107.747806 188.405581 
L 108.599136 188.405581 
L 108.811968 187.735814 
L 109.237633 187.735814 
L 109.450465 186.396279 
L 109.663298 186.396279 
L 110.088963 185.056744 
L 111.365957 185.056744 
L 111.57879 184.386977 
L 112.004455 184.386977 
L 112.217287 183.047442 
L 112.642952 183.047442 
L 112.855785 182.377674 
L 113.068617 182.377674 
L 113.28145 181.03814 
L 113.494282 181.03814 
L 113.919947 179.028837 
L 114.558444 179.028837 
L 114.771277 178.35907 
L 115.622607 178.35907 
L 115.835439 177.689302 
L 116.261104 173.670698 
L 116.899601 173.670698 
L 117.112434 172.331163 
L 117.325266 172.331163 
L 117.538099 171.661395 
L 118.389429 171.661395 
L 118.602261 170.32186 
L 119.240758 170.32186 
L 119.666423 168.982326 
L 119.879256 168.982326 
L 120.092088 168.312558 
L 120.517753 168.312558 
L 120.730586 166.973023 
L 121.369083 166.973023 
L 121.581916 165.633488 
L 121.794748 165.633488 
L 122.00758 164.963721 
L 122.220413 164.963721 
L 122.433245 164.293953 
L 124.56157 164.293953 
L 124.774402 163.624186 
L 126.051397 163.624186 
L 126.477062 160.945116 
L 128.605387 160.945116 
L 128.818219 160.275349 
L 129.456717 160.275349 
L 129.669549 159.605581 
L 129.882381 159.605581 
L 130.308046 158.266047 
L 130.946544 158.266047 
L 131.159376 157.596279 
L 132.436371 157.596279 
L 132.649203 156.926512 
L 137.970015 156.926512 
L 138.182847 155.586977 
L 138.821345 155.586977 
L 139.034177 154.917209 
L 139.672675 154.917209 
L 139.885507 154.247442 
L 140.09834 154.247442 
L 140.311172 152.907907 
L 141.375334 152.907907 
L 141.588167 152.23814 
L 143.290826 152.23814 
L 143.503659 151.568372 
L 143.716491 151.568372 
L 143.929324 150.898605 
L 146.483313 150.898605 
L 146.696146 150.228837 
L 146.908978 150.228837 
L 147.121811 148.889302 
L 147.334643 148.889302 
L 147.547476 148.219535 
L 147.973141 148.219535 
L 148.185973 147.549767 
L 148.611638 147.549767 
L 148.82447 146.88 
L 149.6758 146.88 
L 149.888633 146.210233 
L 150.101465 146.210233 
L 150.314298 144.870698 
L 150.52713 144.870698 
L 150.739962 144.20093 
L 151.37846 144.20093 
L 151.591292 143.531163 
L 152.016957 143.531163 
L 152.868287 140.852093 
L 153.293952 140.852093 
L 153.719617 139.512558 
L 153.932449 139.512558 
L 154.145282 138.842791 
L 154.358114 138.842791 
L 154.570947 138.173023 
L 154.783779 138.173023 
L 154.996612 136.833488 
L 155.209444 136.833488 
L 155.422277 135.493953 
L 157.763434 135.493953 
L 157.976266 134.824186 
L 158.189099 134.824186 
L 158.401931 134.154419 
L 160.104591 134.154419 
L 160.317423 133.484651 
L 163.297078 133.484651 
L 163.50991 132.814884 
L 166.915229 132.814884 
L 167.128062 132.145116 
L 177.982517 132.145116 
L 178.19535 130.805581 
L 178.621015 130.805581 
L 178.833847 130.135814 
L 181.813502 130.135814 
L 182.451999 128.126512 
L 184.154659 128.126512 
L 184.367491 127.456744 
L 185.005988 127.456744 
L 185.218821 126.117209 
L 186.070151 126.117209 
L 186.495816 124.777674 
L 190.3268 124.777674 
L 190.752465 122.768372 
L 191.816627 122.768372 
L 192.02946 122.098605 
L 193.519287 122.098605 
L 193.732119 121.428837 
L 193.944952 121.428837 
L 194.157784 120.75907 
L 197.563104 120.75907 
L 197.775936 120.089302 
L 207.566229 120.089302 
L 207.779062 119.419535 
L 221.826004 119.419535 
L 222.038836 118.749767 
L 222.677334 118.749767 
L 222.890166 118.08 
L 234.595951 118.08 
L 234.808784 117.410233 
L 237.362773 117.410233 
L 237.788438 116.070698 
L 238.426936 116.070698 
L 238.852601 114.731163 
L 239.491098 114.731163 
L 239.703931 113.391628 
L 240.980925 113.391628 
L 241.193758 112.72186 
L 242.683585 112.72186 
L 243.10925 111.382326 
L 243.322082 106.693953 
L 243.534915 106.693953 
L 243.747747 106.024186 
L 244.386245 106.024186 
L 244.599077 105.354419 
L 248.855726 105.354419 
L 249.068559 104.684651 
L 249.919889 104.684651 
L 250.132721 103.345116 
L 253.750873 103.345116 
L 253.963705 102.675349 
L 260.774344 102.675349 
L 260.987176 102.005581 
L 265.030993 102.005581 
L 265.243826 101.335814 
L 265.456658 99.996279 
L 266.307988 99.996279 
L 266.52082 99.326512 
L 267.584983 99.326512 
L 267.797815 97.986977 
L 268.010648 97.986977 
L 268.22348 95.977674 
L 269.500475 95.977674 
L 269.713307 95.307907 
L 277.375276 95.307907 
L 277.588108 94.63814 
L 279.5036 94.63814 
L 279.716433 93.968372 
L 305.681993 93.968372 
L 305.894825 92.628837 
L 327.603736 92.628837 
L 327.816569 91.95907 
L 335.265705 91.95907 
L 335.478537 91.289302 
L 337.394029 91.289302 
L 337.606862 90.619535 
L 346.758658 90.619535 
L 346.97149 89.949767 
L 366.126411 89.949767 
L 366.339244 89.28 
L 375.916705 89.28 
L 375.916705 89.28 
" clip-path="url(#p8e035f2449)" style="fill: none; stroke: #c957db; stroke-width: 1.2; stroke-linecap: round"/>
   </g>
   <g id="line2d_32"/>
   <g id="line2d_33"/>
   <g id="line2d_34"/>
   <g id="line2d_35"/>
   <g id="line2d_36"/>
   <g id="patch_3">
    <path d="M 54.3375 512.64 
L 54.3375 69.12 
" style="fill: none; stroke: #cccccc; stroke-linejoin: miter; stroke-linecap: square"/>
   </g>
   <g id="patch_4">
    <path d="M 54.3375 512.64 
L 391.23 512.64 
" style="fill: none; stroke: #cccccc; stroke-linejoin: miter; stroke-linecap: square"/>
   </g>
   <g id="text_29">
    <!-- Edge Coverage History -->
    <g style="fill: #262626" transform="translate(115.892262 63.12)scale(0.165888 -0.165888)">
     <defs>
      <path id="DejaVuSans-Bold-45" d="M 588 4666 
L 3834 4666 
L 3834 3756 
L 1791 3756 
L 1791 2888 
L 3713 2888 
L 3713 1978 
L 1791 1978 
L 1791 909 
L 3903 909 
L 3903 0 
L 588 0 
L 588 4666 
z
" transform="scale(0.015625)"/>
      <path id="DejaVuSans-Bold-64" d="M 2919 2988 
L 2919 4863 
L 4044 4863 
L 4044 0 
L 2919 0 
L 2919 506 
Q 2688 197 2409 53 
Q 2131 -91 1766 -91 
Q 1119 -91 703 423 
Q 288 938 288 1747 
Q 288 2556 703 3070 
Q 1119 3584 1766 3584 
Q 2128 3584 2408 3439 
Q 2688 3294 2919 2988 
z
M 2181 722 
Q 2541 722 2730 984 
Q 2919 1247 2919 1747 
Q 2919 2247 2730 2509 
Q 2541 2772 2181 2772 
Q 1825 2772 1636 2509 
Q 1447 2247 1447 1747 
Q 1447 1247 1636 984 
Q 1825 722 2181 722 
z
" transform="scale(0.015625)"/>
      <path id="DejaVuSans-Bold-67" d="M 2919 594 
Q 2688 288 2409 144 
Q 2131 0 1766 0 
Q 1125 0 706 504 
Q 288 1009 288 1791 
Q 288 2575 706 3076 
Q 1125 3578 1766 3578 
Q 2131 3578 2409 3434 
Q 2688 3291 2919 2981 
L 2919 3500 
L 4044 3500 
L 4044 353 
Q 4044 -491 3511 -936 
Q 2978 -1381 1966 -1381 
Q 1638 -1381 1331 -1331 
Q 1025 -1281 716 -1178 
L 716 -306 
Q 1009 -475 1290 -558 
Q 1572 -641 1856 -641 
Q 2406 -641 2662 -400 
Q 2919 -159 2919 353 
L 2919 594 
z
M 2181 2772 
Q 1834 2772 1640 2515 
Q 1447 2259 1447 1791 
Q 1447 1309 1634 1061 
Q 1822 813 2181 813 
Q 2531 813 2725 1069 
Q 2919 1325 2919 1791 
Q 2919 2259 2725 2515 
Q 2531 2772 2181 2772 
z
" transform="scale(0.015625)"/>
      <path id="DejaVuSans-Bold-65" d="M 4031 1759 
L 4031 1441 
L 1416 1441 
Q 1456 1047 1700 850 
Q 1944 653 2381 653 
Q 2734 653 3104 758 
Q 3475 863 3866 1075 
L 3866 213 
Q 3469 63 3072 -14 
Q 2675 -91 2278 -91 
Q 1328 -91 801 392 
Q 275 875 275 1747 
Q 275 2603 792 3093 
Q 1309 3584 2216 3584 
Q 3041 3584 3536 3087 
Q 4031 2591 4031 1759 
z
M 2881 2131 
Q 2881 2450 2695 2645 
Q 2509 2841 2209 2841 
Q 1884 2841 1681 2658 
Q 1478 2475 1428 2131 
L 2881 2131 
z
" transform="scale(0.015625)"/>
      <path id="DejaVuSans-Bold-20" transform="scale(0.015625)"/>
      <path id="DejaVuSans-Bold-43" d="M 4288 256 
Q 3956 84 3597 -3 
Q 3238 -91 2847 -91 
Q 1681 -91 1000 561 
Q 319 1213 319 2328 
Q 319 3447 1000 4098 
Q 1681 4750 2847 4750 
Q 3238 4750 3597 4662 
Q 3956 4575 4288 4403 
L 4288 3438 
Q 3953 3666 3628 3772 
Q 3303 3878 2944 3878 
Q 2300 3878 1931 3465 
Q 1563 3053 1563 2328 
Q 1563 1606 1931 1193 
Q 2300 781 2944 781 
Q 3303 781 3628 887 
Q 3953 994 4288 1222 
L 4288 256 
z
" transform="scale(0.015625)"/>
      <path id="DejaVuSans-Bold-6f" d="M 2203 2784 
Q 1831 2784 1636 2517 
Q 1441 2250 1441 1747 
Q 1441 1244 1636 976 
Q 1831 709 2203 709 
Q 2569 709 2762 976 
Q 2956 1244 2956 1747 
Q 2956 2250 2762 2517 
Q 2569 2784 2203 2784 
z
M 2203 3584 
Q 3106 3584 3614 3096 
Q 4122 2609 4122 1747 
Q 4122 884 3614 396 
Q 3106 -91 2203 -91 
Q 1297 -91 786 396 
Q 275 884 275 1747 
Q 275 2609 786 3096 
Q 1297 3584 2203 3584 
z
" transform="scale(0.015625)"/>
      <path id="DejaVuSans-Bold-76" d="M 97 3500 
L 1216 3500 
L 2088 1081 
L 2956 3500 
L 4078 3500 
L 2700 0 
L 1472 0 
L 97 3500 
z
" transform="scale(0.015625)"/>
      <path id="DejaVuSans-Bold-72" d="M 3138 2547 
Q 2991 2616 2845 2648 
Q 2700 2681 2553 2681 
Q 2122 2681 1889 2404 
Q 1656 2128 1656 1613 
L 1656 0 
L 538 0 
L 538 3500 
L 1656 3500 
L 1656 2925 
Q 1872 3269 2151 3426 
Q 2431 3584 2822 3584 
Q 2878 3584 2943 3579 
Q 3009 3575 3134 3559 
L 3138 2547 
z
" transform="scale(0.015625)"/>
      <path id="DejaVuSans-Bold-61" d="M 2106 1575 
Q 1756 1575 1579 1456 
Q 1403 1338 1403 1106 
Q 1403 894 1545 773 
Q 1688 653 1941 653 
Q 2256 653 2472 879 
Q 2688 1106 2688 1447 
L 2688 1575 
L 2106 1575 
z
M 3816 1997 
L 3816 0 
L 2688 0 
L 2688 519 
Q 2463 200 2181 54 
Q 1900 -91 1497 -91 
Q 953 -91 614 226 
Q 275 544 275 1050 
Q 275 1666 698 1953 
Q 1122 2241 2028 2241 
L 2688 2241 
L 2688 2328 
Q 2688 2594 2478 2717 
Q 2269 2841 1825 2841 
Q 1466 2841 1156 2769 
Q 847 2697 581 2553 
L 581 3406 
Q 941 3494 1303 3539 
Q 1666 3584 2028 3584 
Q 2975 3584 3395 3211 
Q 3816 2838 3816 1997 
z
" transform="scale(0.015625)"/>
      <path id="DejaVuSans-Bold-48" d="M 588 4666 
L 1791 4666 
L 1791 2888 
L 3566 2888 
L 3566 4666 
L 4769 4666 
L 4769 0 
L 3566 0 
L 3566 1978 
L 1791 1978 
L 1791 0 
L 588 0 
L 588 4666 
z
" transform="scale(0.015625)"/>
      <path id="DejaVuSans-Bold-69" d="M 538 3500 
L 1656 3500 
L 1656 0 
L 538 0 
L 538 3500 
z
M 538 4863 
L 1656 4863 
L 1656 3950 
L 538 3950 
L 538 4863 
z
" transform="scale(0.015625)"/>
      <path id="DejaVuSans-Bold-73" d="M 3272 3391 
L 3272 2541 
Q 2913 2691 2578 2766 
Q 2244 2841 1947 2841 
Q 1628 2841 1473 2761 
Q 1319 2681 1319 2516 
Q 1319 2381 1436 2309 
Q 1553 2238 1856 2203 
L 2053 2175 
Q 2913 2066 3209 1816 
Q 3506 1566 3506 1031 
Q 3506 472 3093 190 
Q 2681 -91 1863 -91 
Q 1516 -91 1145 -36 
Q 775 19 384 128 
L 384 978 
Q 719 816 1070 734 
Q 1422 653 1784 653 
Q 2113 653 2278 743 
Q 2444 834 2444 1013 
Q 2444 1163 2330 1236 
Q 2216 1309 1875 1350 
L 1678 1375 
Q 931 1469 631 1722 
Q 331 1975 331 2491 
Q 331 3047 712 3315 
Q 1094 3584 1881 3584 
Q 2191 3584 2531 3537 
Q 2872 3491 3272 3391 
z
" transform="scale(0.015625)"/>
      <path id="DejaVuSans-Bold-74" d="M 1759 4494 
L 1759 3500 
L 2913 3500 
L 2913 2700 
L 1759 2700 
L 1759 1216 
Q 1759 972 1856 886 
Q 1953 800 2241 800 
L 2816 800 
L 2816 0 
L 1856 0 
Q 1194 0 917 276 
Q 641 553 641 1216 
L 641 2700 
L 84 2700 
L 84 3500 
L 641 3500 
L 641 4494 
L 1759 4494 
z
" transform="scale(0.015625)"/>
      <path id="DejaVuSans-Bold-79" d="M 78 3500 
L 1197 3500 
L 2138 1125 
L 2938 3500 
L 4056 3500 
L 2584 -331 
Q 2363 -916 2067 -1148 
Q 1772 -1381 1288 -1381 
L 641 -1381 
L 641 -647 
L 991 -647 
Q 1275 -647 1404 -556 
Q 1534 -466 1606 -231 
L 1638 -134 
L 78 3500 
z
" transform="scale(0.015625)"/>
     </defs>
     <use xlink:href="#DejaVuSans-Bold-45"/>
     <use xlink:href="#DejaVuSans-Bold-64" x="68.310547"/>
     <use xlink:href="#DejaVuSans-Bold-67" x="139.892578"/>
     <use xlink:href="#DejaVuSans-Bold-65" x="211.474609"/>
     <use xlink:href="#DejaVuSans-Bold-20" x="279.296875"/>
     <use xlink:href="#DejaVuSans-Bold-43" x="314.111328"/>
     <use xlink:href="#DejaVuSans-Bold-6f" x="387.5"/>
     <use xlink:href="#DejaVuSans-Bold-76" x="456.201172"/>
     <use xlink:href="#DejaVuSans-Bold-65" x="521.386719"/>
     <use xlink:href="#DejaVuSans-Bold-72" x="589.208984"/>
     <use xlink:href="#DejaVuSans-Bold-61" x="638.525391"/>
     <use xlink:href="#DejaVuSans-Bold-67" x="706.005859"/>
     <use xlink:href="#DejaVuSans-Bold-65" x="777.587891"/>
     <use xlink:href="#DejaVuSans-Bold-20" x="845.410156"/>
     <use xlink:href="#DejaVuSans-Bold-48" x="880.224609"/>
     <use xlink:href="#DejaVuSans-Bold-69" x="963.916016"/>
     <use xlink:href="#DejaVuSans-Bold-73" x="998.193359"/>
     <use xlink:href="#DejaVuSans-Bold-74" x="1057.714844"/>
     <use xlink:href="#DejaVuSans-Bold-6f" x="1105.517578"/>
     <use xlink:href="#DejaVuSans-Bold-72" x="1174.21875"/>
     <use xlink:href="#DejaVuSans-Bold-79" x="1223.535156"/>
    </g>
   </g>
   <g id="legend_1">
    <g id="patch_5">
     <path d="M 267.942 508.24 
L 385.07 508.24 
Q 386.83 508.24 386.83 506.48 
L 386.83 428.8405 
Q 386.83 427.0805 385.07 427.0805 
L 267.942 427.0805 
Q 266.182 427.0805 266.182 428.8405 
L 266.182 506.48 
Q 266.182 508.24 267.942 508.24 
z
" style="fill: #ffffff; opacity: 0.8; stroke: #cccccc; stroke-width: 0.8; stroke-linejoin: miter"/>
    </g>
    <g id="text_30">
     <!-- fuzzer -->
     <g style="fill: #262626" transform="translate(311.809 437.895)scale(0.096 -0.096)">
      <defs>
       <path id="DejaVuSans-66" d="M 2375 4863 
L 2375 4384 
L 1825 4384 
Q 1516 4384 1395 4259 
Q 1275 4134 1275 3809 
L 1275 3500 
L 2222 3500 
L 2222 3053 
L 1275 3053 
L 1275 0 
L 697 0 
L 697 3053 
L 147 3053 
L 147 3500 
L 697 3500 
L 697 3744 
Q 697 4328 969 4595 
Q 1241 4863 1831 4863 
L 2375 4863 
z
" transform="scale(0.015625)"/>
       <path id="DejaVuSans-7a" d="M 353 3500 
L 3084 3500 
L 3084 2975 
L 922 459 
L 3084 459 
L 3084 0 
L 275 0 
L 275 525 
L 2438 3041 
L 353 3041 
L 353 3500 
z
" transform="scale(0.015625)"/>
      </defs>
      <use xlink:href="#DejaVuSans-66"/>
      <use xlink:href="#DejaVuSans-75" x="35.205078"/>
      <use xlink:href="#DejaVuSans-7a" x="98.583984"/>
      <use xlink:href="#DejaVuSans-7a" x="151.074219"/>
      <use xlink:href="#DejaVuSans-65" x="203.564453"/>
      <use xlink:href="#DejaVuSans-72" x="265.087891"/>
     </g>
    </g>
    <g id="line2d_37">
     <path d="M 269.702 447.898125 
L 278.502 447.898125 
L 287.302 447.898125 
" style="fill: none; stroke: #db5f57; stroke-width: 1.2; stroke-linecap: round"/>
    </g>
    <g id="text_31">
     <!-- aflplusplus-0-exid22 -->
     <g style="fill: #262626" transform="translate(294.342 450.978125)scale(0.088 -0.088)">
      <defs>
       <path id="DejaVuSans-6c" d="M 603 4863 
L 1178 4863 
L 1178 0 
L 603 0 
L 603 4863 
z
" transform="scale(0.015625)"/>
       <path id="DejaVuSans-70" d="M 1159 525 
L 1159 -1331 
L 581 -1331 
L 581 3500 
L 1159 3500 
L 1159 2969 
Q 1341 3281 1617 3432 
Q 1894 3584 2278 3584 
Q 2916 3584 3314 3078 
Q 3713 2572 3713 1747 
Q 3713 922 3314 415 
Q 2916 -91 2278 -91 
Q 1894 -91 1617 61 
Q 1341 213 1159 525 
z
M 3116 1747 
Q 3116 2381 2855 2742 
Q 2594 3103 2138 3103 
Q 1681 3103 1420 2742 
Q 1159 2381 1159 1747 
Q 1159 1113 1420 752 
Q 1681 391 2138 391 
Q 2594 391 2855 752 
Q 3116 1113 3116 1747 
z
" transform="scale(0.015625)"/>
       <path id="DejaVuSans-2d" d="M 313 2009 
L 1997 2009 
L 1997 1497 
L 313 1497 
L 313 2009 
z
" transform="scale(0.015625)"/>
       <path id="DejaVuSans-78" d="M 3513 3500 
L 2247 1797 
L 3578 0 
L 2900 0 
L 1881 1375 
L 863 0 
L 184 0 
L 1544 1831 
L 300 3500 
L 978 3500 
L 1906 2253 
L 2834 3500 
L 3513 3500 
z
" transform="scale(0.015625)"/>
      </defs>
      <use xlink:href="#DejaVuSans-61"/>
      <use xlink:href="#DejaVuSans-66" x="61.279297"/>
      <use xlink:href="#DejaVuSans-6c" x="96.484375"/>
      <use xlink:href="#DejaVuSans-70" x="124.267578"/>
      <use xlink:href="#DejaVuSans-6c" x="187.744141"/>
      <use xlink:href="#DejaVuSans-75" x="215.527344"/>
      <use xlink:href="#DejaVuSans-73" x="278.90625"/>
      <use xlink:href="#DejaVuSans-70" x="331.005859"/>
      <use xlink:href="#DejaVuSans-6c" x="394.482422"/>
      <use xlink:href="#DejaVuSans-75" x="422.265625"/>
      <use xlink:href="#DejaVuSans-73" x="485.644531"/>
      <use xlink:href="#DejaVuSans-2d" x="537.744141"/>
      <use xlink:href="#DejaVuSans-30" x="573.828125"/>
      <use xlink:href="#DejaVuSans-2d" x="637.451172"/>
      <use xlink:href="#DejaVuSans-65" x="673.535156"/>
      <use xlink:href="#DejaVuSans-78" x="733.308594"/>
      <use xlink:href="#DejaVuSans-69" x="792.488281"/>
      <use xlink:href="#DejaVuSans-64" x="820.271484"/>
      <use xlink:href="#DejaVuSans-32" x="883.748047"/>
      <use xlink:href="#DejaVuSans-32" x="947.371094"/>
     </g>
    </g>
    <g id="line2d_38">
     <path d="M 269.702 460.814875 
L 278.502 460.814875 
L 287.302 460.814875 
" style="fill: none; stroke: #b9db57; stroke-width: 1.2; stroke-linecap: round"/>
    </g>
    <g id="text_32">
     <!-- fairfuzz-0-exid22 -->
     <g style="fill: #262626" transform="translate(294.342 463.894875)scale(0.088 -0.088)">
      <use xlink:href="#DejaVuSans-66"/>
      <use xlink:href="#DejaVuSans-61" x="35.205078"/>
      <use xlink:href="#DejaVuSans-69" x="96.484375"/>
      <use xlink:href="#DejaVuSans-72" x="124.267578"/>
      <use xlink:href="#DejaVuSans-66" x="165.380859"/>
      <use xlink:href="#DejaVuSans-75" x="200.585938"/>
      <use xlink:href="#DejaVuSans-7a" x="263.964844"/>
      <use xlink:href="#DejaVuSans-7a" x="316.455078"/>
      <use xlink:href="#DejaVuSans-2d" x="368.945312"/>
      <use xlink:href="#DejaVuSans-30" x="405.029297"/>
      <use xlink:href="#DejaVuSans-2d" x="468.652344"/>
      <use xlink:href="#DejaVuSans-65" x="504.736328"/>
      <use xlink:href="#DejaVuSans-78" x="564.509766"/>
      <use xlink:href="#DejaVuSans-69" x="623.689453"/>
      <use xlink:href="#DejaVuSans-64" x="651.472656"/>
      <use xlink:href="#DejaVuSans-32" x="714.949219"/>
      <use xlink:href="#DejaVuSans-32" x="778.572266"/>
     </g>
    </g>
    <g id="line2d_39">
     <path d="M 269.702 473.731625 
L 278.502 473.731625 
L 287.302 473.731625 
" style="fill: none; stroke: #57db94; stroke-width: 1.2; stroke-linecap: round"/>
    </g>
    <g id="text_33">
     <!-- aflfast-0-exid22 -->
     <g style="fill: #262626" transform="translate(294.342 476.811625)scale(0.088 -0.088)">
      <use xlink:href="#DejaVuSans-61"/>
      <use xlink:href="#DejaVuSans-66" x="61.279297"/>
      <use xlink:href="#DejaVuSans-6c" x="96.484375"/>
      <use xlink:href="#DejaVuSans-66" x="124.267578"/>
      <use xlink:href="#DejaVuSans-61" x="159.472656"/>
      <use xlink:href="#DejaVuSans-73" x="220.751953"/>
      <use xlink:href="#DejaVuSans-74" x="272.851562"/>
      <use xlink:href="#DejaVuSans-2d" x="312.060547"/>
      <use xlink:href="#DejaVuSans-30" x="348.144531"/>
      <use xlink:href="#DejaVuSans-2d" x="411.767578"/>
      <use xlink:href="#DejaVuSans-65" x="447.851562"/>
      <use xlink:href="#DejaVuSans-78" x="507.625"/>
      <use xlink:href="#DejaVuSans-69" x="566.804688"/>
      <use xlink:href="#DejaVuSans-64" x="594.587891"/>
      <use xlink:href="#DejaVuSans-32" x="658.064453"/>
      <use xlink:href="#DejaVuSans-32" x="721.6875"/>
     </g>
    </g>
    <g id="line2d_40">
     <path d="M 269.702 486.648375 
L 278.502 486.648375 
L 287.302 486.648375 
" style="fill: none; stroke: #5784db; stroke-width: 1.2; stroke-linecap: round"/>
    </g>
    <g id="text_34">
     <!-- afl-0-exid22 -->
     <g style="fill: #262626" transform="translate(294.342 489.728375)scale(0.088 -0.088)">
      <use xlink:href="#DejaVuSans-61"/>
      <use xlink:href="#DejaVuSans-66" x="61.279297"/>
      <use xlink:href="#DejaVuSans-6c" x="96.484375"/>
      <use xlink:href="#DejaVuSans-2d" x="124.267578"/>
      <use xlink:href="#DejaVuSans-30" x="160.351562"/>
      <use xlink:href="#DejaVuSans-2d" x="223.974609"/>
      <use xlink:href="#DejaVuSans-65" x="260.058594"/>
      <use xlink:href="#DejaVuSans-78" x="319.832031"/>
      <use xlink:href="#DejaVuSans-69" x="379.011719"/>
      <use xlink:href="#DejaVuSans-64" x="406.794922"/>
      <use xlink:href="#DejaVuSans-32" x="470.271484"/>
      <use xlink:href="#DejaVuSans-32" x="533.894531"/>
     </g>
    </g>
    <g id="line2d_41">
     <path d="M 269.702 499.565125 
L 278.502 499.565125 
L 287.302 499.565125 
" style="fill: none; stroke: #c957db; stroke-width: 1.2; stroke-linecap: round"/>
    </g>
    <g id="text_35">
     <!-- fuzzer_global -->
     <g style="fill: #262626" transform="translate(294.342 502.645125)scale(0.088 -0.088)">
      <defs>
       <path id="DejaVuSans-5f" d="M 3263 -1063 
L 3263 -1509 
L -63 -1509 
L -63 -1063 
L 3263 -1063 
z
" transform="scale(0.015625)"/>
       <path id="DejaVuSans-62" d="M 3116 1747 
Q 3116 2381 2855 2742 
Q 2594 3103 2138 3103 
Q 1681 3103 1420 2742 
Q 1159 2381 1159 1747 
Q 1159 1113 1420 752 
Q 1681 391 2138 391 
Q 2594 391 2855 752 
Q 3116 1113 3116 1747 
z
M 1159 2969 
Q 1341 3281 1617 3432 
Q 1894 3584 2278 3584 
Q 2916 3584 3314 3078 
Q 3713 2572 3713 1747 
Q 3713 922 3314 415 
Q 2916 -91 2278 -91 
Q 1894 -91 1617 61 
Q 1341 213 1159 525 
L 1159 0 
L 581 0 
L 581 4863 
L 1159 4863 
L 1159 2969 
z
" transform="scale(0.015625)"/>
      </defs>
      <use xlink:href="#DejaVuSans-66"/>
      <use xlink:href="#DejaVuSans-75" x="35.205078"/>
      <use xlink:href="#DejaVuSans-7a" x="98.583984"/>
      <use xlink:href="#DejaVuSans-7a" x="151.074219"/>
      <use xlink:href="#DejaVuSans-65" x="203.564453"/>
      <use xlink:href="#DejaVuSans-72" x="265.087891"/>
      <use xlink:href="#DejaVuSans-5f" x="306.201172"/>
      <use xlink:href="#DejaVuSans-67" x="356.201172"/>
      <use xlink:href="#DejaVuSans-6c" x="419.677734"/>
      <use xlink:href="#DejaVuSans-6f" x="447.460938"/>
      <use xlink:href="#DejaVuSans-62" x="508.642578"/>
      <use xlink:href="#DejaVuSans-61" x="572.119141"/>
      <use xlink:href="#DejaVuSans-6c" x="633.398438"/>
     </g>
    </g>
   </g>
  </g>
 </g>
 <defs>
  <clipPath id="p8e035f2449">
   <rect x="54.3375" y="69.12" width="336.8925" height="443.52"/>
  </clipPath>
 </defs>
</svg>
