<?xml version="1.0" encoding="utf-8" standalone="no"?>
<!DOCTYPE svg PUBLIC "-//W3C//DTD SVG 1.1//EN"
  "http://www.w3.org/Graphics/SVG/1.1/DTD/svg11.dtd">
<svg xmlns:xlink="http://www.w3.org/1999/xlink" width="434.7pt" height="576pt" viewBox="0 0 434.7 576" xmlns="http://www.w3.org/2000/svg" version="1.1">
 <metadata>
  <rdf:RDF xmlns:dc="http://purl.org/dc/elements/1.1/" xmlns:cc="http://creativecommons.org/ns#" xmlns:rdf="http://www.w3.org/1999/02/22-rdf-syntax-ns#">
   <cc:Work>
    <dc:type rdf:resource="http://purl.org/dc/dcmitype/StillImage"/>
    <dc:date>2022-09-15T08:23:01.125518</dc:date>
    <dc:format>image/svg+xml</dc:format>
    <dc:creator>
     <cc:Agent>
      <dc:title>Matplotlib v3.5.3, https://matplotlib.org/</dc:title>
     </cc:Agent>
    </dc:creator>
   </cc:Work>
  </rdf:RDF>
 </metadata>
 <defs>
  <style type="text/css">*{stroke-linejoin: round; stroke-linecap: butt}</style>
 </defs>
 <g id="figure_1">
  <g id="patch_1">
   <path d="M 0 576 
L 434.7 576 
L 434.7 0 
L 0 0 
z
" style="fill: #ffffff"/>
  </g>
  <g id="axes_1">
   <g id="patch_2">
    <path d="M 54.3375 512.64 
L 391.23 512.64 
L 391.23 69.12 
L 54.3375 69.12 
z
" style="fill: #ffffff"/>
   </g>
   <g id="matplotlib.axis_1">
    <g id="xtick_1">
     <g id="line2d_1">
      <path d="M 69.650795 512.64 
L 69.650795 69.12 
" clip-path="url(#p00321a5b93)" style="fill: none; stroke: #cccccc; stroke-width: 0.8; stroke-linecap: round"/>
     </g>
     <g id="text_1">
      <!-- 0 -->
      <g style="fill: #262626" transform="translate(69.388282 529.627249)rotate(-45)scale(0.088 -0.088)">
       <defs>
        <path id="DejaVuSans-30" d="M 2034 4250 
Q 1547 4250 1301 3770 
Q 1056 3291 1056 2328 
Q 1056 1369 1301 889 
Q 1547 409 2034 409 
Q 2525 409 2770 889 
Q 3016 1369 3016 2328 
Q 3016 3291 2770 3770 
Q 2525 4250 2034 4250 
z
M 2034 4750 
Q 2819 4750 3233 4129 
Q 3647 3509 3647 2328 
Q 3647 1150 3233 529 
Q 2819 -91 2034 -91 
Q 1250 -91 836 529 
Q 422 1150 422 2328 
Q 422 3509 836 4129 
Q 1250 4750 2034 4750 
z
" transform="scale(0.015625)"/>
       </defs>
       <use xlink:href="#DejaVuSans-30"/>
      </g>
     </g>
    </g>
    <g id="xtick_2">
     <g id="line2d_2">
      <path d="M 86.677392 512.64 
L 86.677392 69.12 
" clip-path="url(#p00321a5b93)" style="fill: none; stroke: #cccccc; stroke-width: 0.8; stroke-linecap: round"/>
     </g>
     <g id="text_2">
      <!-- 80 -->
      <g style="fill: #262626" transform="translate(84.435333 533.58634)rotate(-45)scale(0.088 -0.088)">
       <defs>
        <path id="DejaVuSans-38" d="M 2034 2216 
Q 1584 2216 1326 1975 
Q 1069 1734 1069 1313 
Q 1069 891 1326 650 
Q 1584 409 2034 409 
Q 2484 409 2743 651 
Q 3003 894 3003 1313 
Q 3003 1734 2745 1975 
Q 2488 2216 2034 2216 
z
M 1403 2484 
Q 997 2584 770 2862 
Q 544 3141 544 3541 
Q 544 4100 942 4425 
Q 1341 4750 2034 4750 
Q 2731 4750 3128 4425 
Q 3525 4100 3525 3541 
Q 3525 3141 3298 2862 
Q 3072 2584 2669 2484 
Q 3125 2378 3379 2068 
Q 3634 1759 3634 1313 
Q 3634 634 3220 271 
Q 2806 -91 2034 -91 
Q 1263 -91 848 271 
Q 434 634 434 1313 
Q 434 1759 690 2068 
Q 947 2378 1403 2484 
z
M 1172 3481 
Q 1172 3119 1398 2916 
Q 1625 2713 2034 2713 
Q 2441 2713 2670 2916 
Q 2900 3119 2900 3481 
Q 2900 3844 2670 4047 
Q 2441 4250 2034 4250 
Q 1625 4250 1398 4047 
Q 1172 3844 1172 3481 
z
" transform="scale(0.015625)"/>
       </defs>
       <use xlink:href="#DejaVuSans-38"/>
       <use xlink:href="#DejaVuSans-30" x="63.623047"/>
      </g>
     </g>
    </g>
    <g id="xtick_3">
     <g id="line2d_3">
      <path d="M 103.703989 512.64 
L 103.703989 69.12 
" clip-path="url(#p00321a5b93)" style="fill: none; stroke: #cccccc; stroke-width: 0.8; stroke-linecap: round"/>
     </g>
     <g id="text_3">
      <!-- 160 -->
      <g style="fill: #262626" transform="translate(99.482385 537.54543)rotate(-45)scale(0.088 -0.088)">
       <defs>
        <path id="DejaVuSans-31" d="M 794 531 
L 1825 531 
L 1825 4091 
L 703 3866 
L 703 4441 
L 1819 4666 
L 2450 4666 
L 2450 531 
L 3481 531 
L 3481 0 
L 794 0 
L 794 531 
z
" transform="scale(0.015625)"/>
        <path id="DejaVuSans-36" d="M 2113 2584 
Q 1688 2584 1439 2293 
Q 1191 2003 1191 1497 
Q 1191 994 1439 701 
Q 1688 409 2113 409 
Q 2538 409 2786 701 
Q 3034 994 3034 1497 
Q 3034 2003 2786 2293 
Q 2538 2584 2113 2584 
z
M 3366 4563 
L 3366 3988 
Q 3128 4100 2886 4159 
Q 2644 4219 2406 4219 
Q 1781 4219 1451 3797 
Q 1122 3375 1075 2522 
Q 1259 2794 1537 2939 
Q 1816 3084 2150 3084 
Q 2853 3084 3261 2657 
Q 3669 2231 3669 1497 
Q 3669 778 3244 343 
Q 2819 -91 2113 -91 
Q 1303 -91 875 529 
Q 447 1150 447 2328 
Q 447 3434 972 4092 
Q 1497 4750 2381 4750 
Q 2619 4750 2861 4703 
Q 3103 4656 3366 4563 
z
" transform="scale(0.015625)"/>
       </defs>
       <use xlink:href="#DejaVuSans-31"/>
       <use xlink:href="#DejaVuSans-36" x="63.623047"/>
       <use xlink:href="#DejaVuSans-30" x="127.246094"/>
      </g>
     </g>
    </g>
    <g id="xtick_4">
     <g id="line2d_4">
      <path d="M 120.730586 512.64 
L 120.730586 69.12 
" clip-path="url(#p00321a5b93)" style="fill: none; stroke: #cccccc; stroke-width: 0.8; stroke-linecap: round"/>
     </g>
     <g id="text_4">
      <!-- 240 -->
      <g style="fill: #262626" transform="translate(116.508981 537.54543)rotate(-45)scale(0.088 -0.088)">
       <defs>
        <path id="DejaVuSans-32" d="M 1228 531 
L 3431 531 
L 3431 0 
L 469 0 
L 469 531 
Q 828 903 1448 1529 
Q 2069 2156 2228 2338 
Q 2531 2678 2651 2914 
Q 2772 3150 2772 3378 
Q 2772 3750 2511 3984 
Q 2250 4219 1831 4219 
Q 1534 4219 1204 4116 
Q 875 4013 500 3803 
L 500 4441 
Q 881 4594 1212 4672 
Q 1544 4750 1819 4750 
Q 2544 4750 2975 4387 
Q 3406 4025 3406 3419 
Q 3406 3131 3298 2873 
Q 3191 2616 2906 2266 
Q 2828 2175 2409 1742 
Q 1991 1309 1228 531 
z
" transform="scale(0.015625)"/>
        <path id="DejaVuSans-34" d="M 2419 4116 
L 825 1625 
L 2419 1625 
L 2419 4116 
z
M 2253 4666 
L 3047 4666 
L 3047 1625 
L 3713 1625 
L 3713 1100 
L 3047 1100 
L 3047 0 
L 2419 0 
L 2419 1100 
L 313 1100 
L 313 1709 
L 2253 4666 
z
" transform="scale(0.015625)"/>
       </defs>
       <use xlink:href="#DejaVuSans-32"/>
       <use xlink:href="#DejaVuSans-34" x="63.623047"/>
       <use xlink:href="#DejaVuSans-30" x="127.246094"/>
      </g>
     </g>
    </g>
    <g id="xtick_5">
     <g id="line2d_5">
      <path d="M 137.757182 512.64 
L 137.757182 69.12 
" clip-path="url(#p00321a5b93)" style="fill: none; stroke: #cccccc; stroke-width: 0.8; stroke-linecap: round"/>
     </g>
     <g id="text_5">
      <!-- 320 -->
      <g style="fill: #262626" transform="translate(133.535578 537.54543)rotate(-45)scale(0.088 -0.088)">
       <defs>
        <path id="DejaVuSans-33" d="M 2597 2516 
Q 3050 2419 3304 2112 
Q 3559 1806 3559 1356 
Q 3559 666 3084 287 
Q 2609 -91 1734 -91 
Q 1441 -91 1130 -33 
Q 819 25 488 141 
L 488 750 
Q 750 597 1062 519 
Q 1375 441 1716 441 
Q 2309 441 2620 675 
Q 2931 909 2931 1356 
Q 2931 1769 2642 2001 
Q 2353 2234 1838 2234 
L 1294 2234 
L 1294 2753 
L 1863 2753 
Q 2328 2753 2575 2939 
Q 2822 3125 2822 3475 
Q 2822 3834 2567 4026 
Q 2313 4219 1838 4219 
Q 1578 4219 1281 4162 
Q 984 4106 628 3988 
L 628 4550 
Q 988 4650 1302 4700 
Q 1616 4750 1894 4750 
Q 2613 4750 3031 4423 
Q 3450 4097 3450 3541 
Q 3450 3153 3228 2886 
Q 3006 2619 2597 2516 
z
" transform="scale(0.015625)"/>
       </defs>
       <use xlink:href="#DejaVuSans-33"/>
       <use xlink:href="#DejaVuSans-32" x="63.623047"/>
       <use xlink:href="#DejaVuSans-30" x="127.246094"/>
      </g>
     </g>
    </g>
    <g id="xtick_6">
     <g id="line2d_6">
      <path d="M 154.783779 512.64 
L 154.783779 69.12 
" clip-path="url(#p00321a5b93)" style="fill: none; stroke: #cccccc; stroke-width: 0.8; stroke-linecap: round"/>
     </g>
     <g id="text_6">
      <!-- 400 -->
      <g style="fill: #262626" transform="translate(150.562175 537.54543)rotate(-45)scale(0.088 -0.088)">
       <use xlink:href="#DejaVuSans-34"/>
       <use xlink:href="#DejaVuSans-30" x="63.623047"/>
       <use xlink:href="#DejaVuSans-30" x="127.246094"/>
      </g>
     </g>
    </g>
    <g id="xtick_7">
     <g id="line2d_7">
      <path d="M 171.810376 512.64 
L 171.810376 69.12 
" clip-path="url(#p00321a5b93)" style="fill: none; stroke: #cccccc; stroke-width: 0.8; stroke-linecap: round"/>
     </g>
     <g id="text_7">
      <!-- 480 -->
      <g style="fill: #262626" transform="translate(167.588772 537.54543)rotate(-45)scale(0.088 -0.088)">
       <use xlink:href="#DejaVuSans-34"/>
       <use xlink:href="#DejaVuSans-38" x="63.623047"/>
       <use xlink:href="#DejaVuSans-30" x="127.246094"/>
      </g>
     </g>
    </g>
    <g id="xtick_8">
     <g id="line2d_8">
      <path d="M 188.836973 512.64 
L 188.836973 69.12 
" clip-path="url(#p00321a5b93)" style="fill: none; stroke: #cccccc; stroke-width: 0.8; stroke-linecap: round"/>
     </g>
     <g id="text_8">
      <!-- 560 -->
      <g style="fill: #262626" transform="translate(184.615368 537.54543)rotate(-45)scale(0.088 -0.088)">
       <defs>
        <path id="DejaVuSans-35" d="M 691 4666 
L 3169 4666 
L 3169 4134 
L 1269 4134 
L 1269 2991 
Q 1406 3038 1543 3061 
Q 1681 3084 1819 3084 
Q 2600 3084 3056 2656 
Q 3513 2228 3513 1497 
Q 3513 744 3044 326 
Q 2575 -91 1722 -91 
Q 1428 -91 1123 -41 
Q 819 9 494 109 
L 494 744 
Q 775 591 1075 516 
Q 1375 441 1709 441 
Q 2250 441 2565 725 
Q 2881 1009 2881 1497 
Q 2881 1984 2565 2268 
Q 2250 2553 1709 2553 
Q 1456 2553 1204 2497 
Q 953 2441 691 2322 
L 691 4666 
z
" transform="scale(0.015625)"/>
       </defs>
       <use xlink:href="#DejaVuSans-35"/>
       <use xlink:href="#DejaVuSans-36" x="63.623047"/>
       <use xlink:href="#DejaVuSans-30" x="127.246094"/>
      </g>
     </g>
    </g>
    <g id="xtick_9">
     <g id="line2d_9">
      <path d="M 205.863569 512.64 
L 205.863569 69.12 
" clip-path="url(#p00321a5b93)" style="fill: none; stroke: #cccccc; stroke-width: 0.8; stroke-linecap: round"/>
     </g>
     <g id="text_9">
      <!-- 640 -->
      <g style="fill: #262626" transform="translate(201.641965 537.54543)rotate(-45)scale(0.088 -0.088)">
       <use xlink:href="#DejaVuSans-36"/>
       <use xlink:href="#DejaVuSans-34" x="63.623047"/>
       <use xlink:href="#DejaVuSans-30" x="127.246094"/>
      </g>
     </g>
    </g>
    <g id="xtick_10">
     <g id="line2d_10">
      <path d="M 222.890166 512.64 
L 222.890166 69.12 
" clip-path="url(#p00321a5b93)" style="fill: none; stroke: #cccccc; stroke-width: 0.8; stroke-linecap: round"/>
     </g>
     <g id="text_10">
      <!-- 720 -->
      <g style="fill: #262626" transform="translate(218.668562 537.54543)rotate(-45)scale(0.088 -0.088)">
       <defs>
        <path id="DejaVuSans-37" d="M 525 4666 
L 3525 4666 
L 3525 4397 
L 1831 0 
L 1172 0 
L 2766 4134 
L 525 4134 
L 525 4666 
z
" transform="scale(0.015625)"/>
       </defs>
       <use xlink:href="#DejaVuSans-37"/>
       <use xlink:href="#DejaVuSans-32" x="63.623047"/>
       <use xlink:href="#DejaVuSans-30" x="127.246094"/>
      </g>
     </g>
    </g>
    <g id="xtick_11">
     <g id="line2d_11">
      <path d="M 239.916763 512.64 
L 239.916763 69.12 
" clip-path="url(#p00321a5b93)" style="fill: none; stroke: #cccccc; stroke-width: 0.8; stroke-linecap: round"/>
     </g>
     <g id="text_11">
      <!-- 800 -->
      <g style="fill: #262626" transform="translate(235.695159 537.54543)rotate(-45)scale(0.088 -0.088)">
       <use xlink:href="#DejaVuSans-38"/>
       <use xlink:href="#DejaVuSans-30" x="63.623047"/>
       <use xlink:href="#DejaVuSans-30" x="127.246094"/>
      </g>
     </g>
    </g>
    <g id="xtick_12">
     <g id="line2d_12">
      <path d="M 256.94336 512.64 
L 256.94336 69.12 
" clip-path="url(#p00321a5b93)" style="fill: none; stroke: #cccccc; stroke-width: 0.8; stroke-linecap: round"/>
     </g>
     <g id="text_12">
      <!-- 880 -->
      <g style="fill: #262626" transform="translate(252.721755 537.54543)rotate(-45)scale(0.088 -0.088)">
       <use xlink:href="#DejaVuSans-38"/>
       <use xlink:href="#DejaVuSans-38" x="63.623047"/>
       <use xlink:href="#DejaVuSans-30" x="127.246094"/>
      </g>
     </g>
    </g>
    <g id="xtick_13">
     <g id="line2d_13">
      <path d="M 273.969956 512.64 
L 273.969956 69.12 
" clip-path="url(#p00321a5b93)" style="fill: none; stroke: #cccccc; stroke-width: 0.8; stroke-linecap: round"/>
     </g>
     <g id="text_13">
      <!-- 960 -->
      <g style="fill: #262626" transform="translate(269.748352 537.54543)rotate(-45)scale(0.088 -0.088)">
       <defs>
        <path id="DejaVuSans-39" d="M 703 97 
L 703 672 
Q 941 559 1184 500 
Q 1428 441 1663 441 
Q 2288 441 2617 861 
Q 2947 1281 2994 2138 
Q 2813 1869 2534 1725 
Q 2256 1581 1919 1581 
Q 1219 1581 811 2004 
Q 403 2428 403 3163 
Q 403 3881 828 4315 
Q 1253 4750 1959 4750 
Q 2769 4750 3195 4129 
Q 3622 3509 3622 2328 
Q 3622 1225 3098 567 
Q 2575 -91 1691 -91 
Q 1453 -91 1209 -44 
Q 966 3 703 97 
z
M 1959 2075 
Q 2384 2075 2632 2365 
Q 2881 2656 2881 3163 
Q 2881 3666 2632 3958 
Q 2384 4250 1959 4250 
Q 1534 4250 1286 3958 
Q 1038 3666 1038 3163 
Q 1038 2656 1286 2365 
Q 1534 2075 1959 2075 
z
" transform="scale(0.015625)"/>
       </defs>
       <use xlink:href="#DejaVuSans-39"/>
       <use xlink:href="#DejaVuSans-36" x="63.623047"/>
       <use xlink:href="#DejaVuSans-30" x="127.246094"/>
      </g>
     </g>
    </g>
    <g id="xtick_14">
     <g id="line2d_14">
      <path d="M 290.996553 512.64 
L 290.996553 69.12 
" clip-path="url(#p00321a5b93)" style="fill: none; stroke: #cccccc; stroke-width: 0.8; stroke-linecap: round"/>
     </g>
     <g id="text_14">
      <!-- 1040 -->
      <g style="fill: #262626" transform="translate(284.795404 541.504521)rotate(-45)scale(0.088 -0.088)">
       <use xlink:href="#DejaVuSans-31"/>
       <use xlink:href="#DejaVuSans-30" x="63.623047"/>
       <use xlink:href="#DejaVuSans-34" x="127.246094"/>
       <use xlink:href="#DejaVuSans-30" x="190.869141"/>
      </g>
     </g>
    </g>
    <g id="xtick_15">
     <g id="line2d_15">
      <path d="M 308.02315 512.64 
L 308.02315 69.12 
" clip-path="url(#p00321a5b93)" style="fill: none; stroke: #cccccc; stroke-width: 0.8; stroke-linecap: round"/>
     </g>
     <g id="text_15">
      <!-- 1120 -->
      <g style="fill: #262626" transform="translate(301.822 541.504521)rotate(-45)scale(0.088 -0.088)">
       <use xlink:href="#DejaVuSans-31"/>
       <use xlink:href="#DejaVuSans-31" x="63.623047"/>
       <use xlink:href="#DejaVuSans-32" x="127.246094"/>
       <use xlink:href="#DejaVuSans-30" x="190.869141"/>
      </g>
     </g>
    </g>
    <g id="xtick_16">
     <g id="line2d_16">
      <path d="M 325.049747 512.64 
L 325.049747 69.12 
" clip-path="url(#p00321a5b93)" style="fill: none; stroke: #cccccc; stroke-width: 0.8; stroke-linecap: round"/>
     </g>
     <g id="text_16">
      <!-- 1200 -->
      <g style="fill: #262626" transform="translate(318.848597 541.504521)rotate(-45)scale(0.088 -0.088)">
       <use xlink:href="#DejaVuSans-31"/>
       <use xlink:href="#DejaVuSans-32" x="63.623047"/>
       <use xlink:href="#DejaVuSans-30" x="127.246094"/>
       <use xlink:href="#DejaVuSans-30" x="190.869141"/>
      </g>
     </g>
    </g>
    <g id="xtick_17">
     <g id="line2d_17">
      <path d="M 342.076343 512.64 
L 342.076343 69.12 
" clip-path="url(#p00321a5b93)" style="fill: none; stroke: #cccccc; stroke-width: 0.8; stroke-linecap: round"/>
     </g>
     <g id="text_17">
      <!-- 1280 -->
      <g style="fill: #262626" transform="translate(335.875194 541.504521)rotate(-45)scale(0.088 -0.088)">
       <use xlink:href="#DejaVuSans-31"/>
       <use xlink:href="#DejaVuSans-32" x="63.623047"/>
       <use xlink:href="#DejaVuSans-38" x="127.246094"/>
       <use xlink:href="#DejaVuSans-30" x="190.869141"/>
      </g>
     </g>
    </g>
    <g id="xtick_18">
     <g id="line2d_18">
      <path d="M 359.10294 512.64 
L 359.10294 69.12 
" clip-path="url(#p00321a5b93)" style="fill: none; stroke: #cccccc; stroke-width: 0.8; stroke-linecap: round"/>
     </g>
     <g id="text_18">
      <!-- 1360 -->
      <g style="fill: #262626" transform="translate(352.901791 541.504521)rotate(-45)scale(0.088 -0.088)">
       <use xlink:href="#DejaVuSans-31"/>
       <use xlink:href="#DejaVuSans-33" x="63.623047"/>
       <use xlink:href="#DejaVuSans-36" x="127.246094"/>
       <use xlink:href="#DejaVuSans-30" x="190.869141"/>
      </g>
     </g>
    </g>
    <g id="xtick_19">
     <g id="line2d_19">
      <path d="M 376.129537 512.64 
L 376.129537 69.12 
" clip-path="url(#p00321a5b93)" style="fill: none; stroke: #cccccc; stroke-width: 0.8; stroke-linecap: round"/>
     </g>
     <g id="text_19">
      <!-- 1440 -->
      <g style="fill: #262626" transform="translate(369.928387 541.504521)rotate(-45)scale(0.088 -0.088)">
       <use xlink:href="#DejaVuSans-31"/>
       <use xlink:href="#DejaVuSans-34" x="63.623047"/>
       <use xlink:href="#DejaVuSans-34" x="127.246094"/>
       <use xlink:href="#DejaVuSans-30" x="190.869141"/>
      </g>
     </g>
    </g>
    <g id="text_20">
     <!-- Time (Minutes) -->
     <g style="fill: #262626" transform="translate(186.87375 554.093115)scale(0.096 -0.096)">
      <defs>
       <path id="DejaVuSans-54" d="M -19 4666 
L 3928 4666 
L 3928 4134 
L 2272 4134 
L 2272 0 
L 1638 0 
L 1638 4134 
L -19 4134 
L -19 4666 
z
" transform="scale(0.015625)"/>
       <path id="DejaVuSans-69" d="M 603 3500 
L 1178 3500 
L 1178 0 
L 603 0 
L 603 3500 
z
M 603 4863 
L 1178 4863 
L 1178 4134 
L 603 4134 
L 603 4863 
z
" transform="scale(0.015625)"/>
       <path id="DejaVuSans-6d" d="M 3328 2828 
Q 3544 3216 3844 3400 
Q 4144 3584 4550 3584 
Q 5097 3584 5394 3201 
Q 5691 2819 5691 2113 
L 5691 0 
L 5113 0 
L 5113 2094 
Q 5113 2597 4934 2840 
Q 4756 3084 4391 3084 
Q 3944 3084 3684 2787 
Q 3425 2491 3425 1978 
L 3425 0 
L 2847 0 
L 2847 2094 
Q 2847 2600 2669 2842 
Q 2491 3084 2119 3084 
Q 1678 3084 1418 2786 
Q 1159 2488 1159 1978 
L 1159 0 
L 581 0 
L 581 3500 
L 1159 3500 
L 1159 2956 
Q 1356 3278 1631 3431 
Q 1906 3584 2284 3584 
Q 2666 3584 2933 3390 
Q 3200 3197 3328 2828 
z
" transform="scale(0.015625)"/>
       <path id="DejaVuSans-65" d="M 3597 1894 
L 3597 1613 
L 953 1613 
Q 991 1019 1311 708 
Q 1631 397 2203 397 
Q 2534 397 2845 478 
Q 3156 559 3463 722 
L 3463 178 
Q 3153 47 2828 -22 
Q 2503 -91 2169 -91 
Q 1331 -91 842 396 
Q 353 884 353 1716 
Q 353 2575 817 3079 
Q 1281 3584 2069 3584 
Q 2775 3584 3186 3129 
Q 3597 2675 3597 1894 
z
M 3022 2063 
Q 3016 2534 2758 2815 
Q 2500 3097 2075 3097 
Q 1594 3097 1305 2825 
Q 1016 2553 972 2059 
L 3022 2063 
z
" transform="scale(0.015625)"/>
       <path id="DejaVuSans-20" transform="scale(0.015625)"/>
       <path id="DejaVuSans-28" d="M 1984 4856 
Q 1566 4138 1362 3434 
Q 1159 2731 1159 2009 
Q 1159 1288 1364 580 
Q 1569 -128 1984 -844 
L 1484 -844 
Q 1016 -109 783 600 
Q 550 1309 550 2009 
Q 550 2706 781 3412 
Q 1013 4119 1484 4856 
L 1984 4856 
z
" transform="scale(0.015625)"/>
       <path id="DejaVuSans-4d" d="M 628 4666 
L 1569 4666 
L 2759 1491 
L 3956 4666 
L 4897 4666 
L 4897 0 
L 4281 0 
L 4281 4097 
L 3078 897 
L 2444 897 
L 1241 4097 
L 1241 0 
L 628 0 
L 628 4666 
z
" transform="scale(0.015625)"/>
       <path id="DejaVuSans-6e" d="M 3513 2113 
L 3513 0 
L 2938 0 
L 2938 2094 
Q 2938 2591 2744 2837 
Q 2550 3084 2163 3084 
Q 1697 3084 1428 2787 
Q 1159 2491 1159 1978 
L 1159 0 
L 581 0 
L 581 3500 
L 1159 3500 
L 1159 2956 
Q 1366 3272 1645 3428 
Q 1925 3584 2291 3584 
Q 2894 3584 3203 3211 
Q 3513 2838 3513 2113 
z
" transform="scale(0.015625)"/>
       <path id="DejaVuSans-75" d="M 544 1381 
L 544 3500 
L 1119 3500 
L 1119 1403 
Q 1119 906 1312 657 
Q 1506 409 1894 409 
Q 2359 409 2629 706 
Q 2900 1003 2900 1516 
L 2900 3500 
L 3475 3500 
L 3475 0 
L 2900 0 
L 2900 538 
Q 2691 219 2414 64 
Q 2138 -91 1772 -91 
Q 1169 -91 856 284 
Q 544 659 544 1381 
z
M 1991 3584 
L 1991 3584 
z
" transform="scale(0.015625)"/>
       <path id="DejaVuSans-74" d="M 1172 4494 
L 1172 3500 
L 2356 3500 
L 2356 3053 
L 1172 3053 
L 1172 1153 
Q 1172 725 1289 603 
Q 1406 481 1766 481 
L 2356 481 
L 2356 0 
L 1766 0 
Q 1100 0 847 248 
Q 594 497 594 1153 
L 594 3053 
L 172 3053 
L 172 3500 
L 594 3500 
L 594 4494 
L 1172 4494 
z
" transform="scale(0.015625)"/>
       <path id="DejaVuSans-73" d="M 2834 3397 
L 2834 2853 
Q 2591 2978 2328 3040 
Q 2066 3103 1784 3103 
Q 1356 3103 1142 2972 
Q 928 2841 928 2578 
Q 928 2378 1081 2264 
Q 1234 2150 1697 2047 
L 1894 2003 
Q 2506 1872 2764 1633 
Q 3022 1394 3022 966 
Q 3022 478 2636 193 
Q 2250 -91 1575 -91 
Q 1294 -91 989 -36 
Q 684 19 347 128 
L 347 722 
Q 666 556 975 473 
Q 1284 391 1588 391 
Q 1994 391 2212 530 
Q 2431 669 2431 922 
Q 2431 1156 2273 1281 
Q 2116 1406 1581 1522 
L 1381 1569 
Q 847 1681 609 1914 
Q 372 2147 372 2553 
Q 372 3047 722 3315 
Q 1072 3584 1716 3584 
Q 2034 3584 2315 3537 
Q 2597 3491 2834 3397 
z
" transform="scale(0.015625)"/>
       <path id="DejaVuSans-29" d="M 513 4856 
L 1013 4856 
Q 1481 4119 1714 3412 
Q 1947 2706 1947 2009 
Q 1947 1309 1714 600 
Q 1481 -109 1013 -844 
L 513 -844 
Q 928 -128 1133 580 
Q 1338 1288 1338 2009 
Q 1338 2731 1133 3434 
Q 928 4138 513 4856 
z
" transform="scale(0.015625)"/>
      </defs>
      <use xlink:href="#DejaVuSans-54"/>
      <use xlink:href="#DejaVuSans-69" x="57.958984"/>
      <use xlink:href="#DejaVuSans-6d" x="85.742188"/>
      <use xlink:href="#DejaVuSans-65" x="183.154297"/>
      <use xlink:href="#DejaVuSans-20" x="244.677734"/>
      <use xlink:href="#DejaVuSans-28" x="276.464844"/>
      <use xlink:href="#DejaVuSans-4d" x="315.478516"/>
      <use xlink:href="#DejaVuSans-69" x="401.757812"/>
      <use xlink:href="#DejaVuSans-6e" x="429.541016"/>
      <use xlink:href="#DejaVuSans-75" x="492.919922"/>
      <use xlink:href="#DejaVuSans-74" x="556.298828"/>
      <use xlink:href="#DejaVuSans-65" x="595.507812"/>
      <use xlink:href="#DejaVuSans-73" x="657.03125"/>
      <use xlink:href="#DejaVuSans-29" x="709.130859"/>
     </g>
    </g>
   </g>
   <g id="matplotlib.axis_2">
    <g id="ytick_1">
     <g id="line2d_20">
      <path d="M 54.3375 492.48 
L 391.23 492.48 
" clip-path="url(#p00321a5b93)" style="fill: none; stroke: #cccccc; stroke-width: 0.8; stroke-linecap: round"/>
     </g>
     <g id="text_21">
      <!-- 0 -->
      <g style="fill: #262626" transform="translate(40.4385 495.823312)scale(0.088 -0.088)">
       <use xlink:href="#DejaVuSans-30"/>
      </g>
     </g>
    </g>
    <g id="ytick_2">
     <g id="line2d_21">
      <path d="M 54.3375 478.151642 
L 391.23 478.151642 
" clip-path="url(#p00321a5b93)" style="fill: none; stroke: #cccccc; stroke-width: 0.8; stroke-linecap: round"/>
     </g>
     <g id="text_22">
      <!-- 100 -->
      <g style="fill: #262626" transform="translate(29.2405 481.494954)scale(0.088 -0.088)">
       <use xlink:href="#DejaVuSans-31"/>
       <use xlink:href="#DejaVuSans-30" x="63.623047"/>
       <use xlink:href="#DejaVuSans-30" x="127.246094"/>
      </g>
     </g>
    </g>
    <g id="ytick_3">
     <g id="line2d_22">
      <path d="M 54.3375 463.823284 
L 391.23 463.823284 
" clip-path="url(#p00321a5b93)" style="fill: none; stroke: #cccccc; stroke-width: 0.8; stroke-linecap: round"/>
     </g>
     <g id="text_23">
      <!-- 200 -->
      <g style="fill: #262626" transform="translate(29.2405 467.166596)scale(0.088 -0.088)">
       <use xlink:href="#DejaVuSans-32"/>
       <use xlink:href="#DejaVuSans-30" x="63.623047"/>
       <use xlink:href="#DejaVuSans-30" x="127.246094"/>
      </g>
     </g>
    </g>
    <g id="ytick_4">
     <g id="line2d_23">
      <path d="M 54.3375 449.494925 
L 391.23 449.494925 
" clip-path="url(#p00321a5b93)" style="fill: none; stroke: #cccccc; stroke-width: 0.8; stroke-linecap: round"/>
     </g>
     <g id="text_24">
      <!-- 300 -->
      <g style="fill: #262626" transform="translate(29.2405 452.838238)scale(0.088 -0.088)">
       <use xlink:href="#DejaVuSans-33"/>
       <use xlink:href="#DejaVuSans-30" x="63.623047"/>
       <use xlink:href="#DejaVuSans-30" x="127.246094"/>
      </g>
     </g>
    </g>
    <g id="ytick_5">
     <g id="line2d_24">
      <path d="M 54.3375 435.166567 
L 391.23 435.166567 
" clip-path="url(#p00321a5b93)" style="fill: none; stroke: #cccccc; stroke-width: 0.8; stroke-linecap: round"/>
     </g>
     <g id="text_25">
      <!-- 400 -->
      <g style="fill: #262626" transform="translate(29.2405 438.50988)scale(0.088 -0.088)">
       <use xlink:href="#DejaVuSans-34"/>
       <use xlink:href="#DejaVuSans-30" x="63.623047"/>
       <use xlink:href="#DejaVuSans-30" x="127.246094"/>
      </g>
     </g>
    </g>
    <g id="ytick_6">
     <g id="line2d_25">
      <path d="M 54.3375 420.838209 
L 391.23 420.838209 
" clip-path="url(#p00321a5b93)" style="fill: none; stroke: #cccccc; stroke-width: 0.8; stroke-linecap: round"/>
     </g>
     <g id="text_26">
      <!-- 500 -->
      <g style="fill: #262626" transform="translate(29.2405 424.181521)scale(0.088 -0.088)">
       <use xlink:href="#DejaVuSans-35"/>
       <use xlink:href="#DejaVuSans-30" x="63.623047"/>
       <use xlink:href="#DejaVuSans-30" x="127.246094"/>
      </g>
     </g>
    </g>
    <g id="ytick_7">
     <g id="line2d_26">
      <path d="M 54.3375 406.509851 
L 391.23 406.509851 
" clip-path="url(#p00321a5b93)" style="fill: none; stroke: #cccccc; stroke-width: 0.8; stroke-linecap: round"/>
     </g>
     <g id="text_27">
      <!-- 600 -->
      <g style="fill: #262626" transform="translate(29.2405 409.853163)scale(0.088 -0.088)">
       <use xlink:href="#DejaVuSans-36"/>
       <use xlink:href="#DejaVuSans-30" x="63.623047"/>
       <use xlink:href="#DejaVuSans-30" x="127.246094"/>
      </g>
     </g>
    </g>
    <g id="ytick_8">
     <g id="line2d_27">
      <path d="M 54.3375 392.181493 
L 391.23 392.181493 
" clip-path="url(#p00321a5b93)" style="fill: none; stroke: #cccccc; stroke-width: 0.8; stroke-linecap: round"/>
     </g>
     <g id="text_28">
      <!-- 700 -->
      <g style="fill: #262626" transform="translate(29.2405 395.524805)scale(0.088 -0.088)">
       <use xlink:href="#DejaVuSans-37"/>
       <use xlink:href="#DejaVuSans-30" x="63.623047"/>
       <use xlink:href="#DejaVuSans-30" x="127.246094"/>
      </g>
     </g>
    </g>
    <g id="ytick_9">
     <g id="line2d_28">
      <path d="M 54.3375 377.853134 
L 391.23 377.853134 
" clip-path="url(#p00321a5b93)" style="fill: none; stroke: #cccccc; stroke-width: 0.8; stroke-linecap: round"/>
     </g>
     <g id="text_29">
      <!-- 800 -->
      <g style="fill: #262626" transform="translate(29.2405 381.196447)scale(0.088 -0.088)">
       <use xlink:href="#DejaVuSans-38"/>
       <use xlink:href="#DejaVuSans-30" x="63.623047"/>
       <use xlink:href="#DejaVuSans-30" x="127.246094"/>
      </g>
     </g>
    </g>
    <g id="ytick_10">
     <g id="line2d_29">
      <path d="M 54.3375 363.524776 
L 391.23 363.524776 
" clip-path="url(#p00321a5b93)" style="fill: none; stroke: #cccccc; stroke-width: 0.8; stroke-linecap: round"/>
     </g>
     <g id="text_30">
      <!-- 900 -->
      <g style="fill: #262626" transform="translate(29.2405 366.868089)scale(0.088 -0.088)">
       <use xlink:href="#DejaVuSans-39"/>
       <use xlink:href="#DejaVuSans-30" x="63.623047"/>
       <use xlink:href="#DejaVuSans-30" x="127.246094"/>
      </g>
     </g>
    </g>
    <g id="ytick_11">
     <g id="line2d_30">
      <path d="M 54.3375 349.196418 
L 391.23 349.196418 
" clip-path="url(#p00321a5b93)" style="fill: none; stroke: #cccccc; stroke-width: 0.8; stroke-linecap: round"/>
     </g>
     <g id="text_31">
      <!-- 1000 -->
      <g style="fill: #262626" transform="translate(23.6415 352.53973)scale(0.088 -0.088)">
       <use xlink:href="#DejaVuSans-31"/>
       <use xlink:href="#DejaVuSans-30" x="63.623047"/>
       <use xlink:href="#DejaVuSans-30" x="127.246094"/>
       <use xlink:href="#DejaVuSans-30" x="190.869141"/>
      </g>
     </g>
    </g>
    <g id="ytick_12">
     <g id="line2d_31">
      <path d="M 54.3375 334.86806 
L 391.23 334.86806 
" clip-path="url(#p00321a5b93)" style="fill: none; stroke: #cccccc; stroke-width: 0.8; stroke-linecap: round"/>
     </g>
     <g id="text_32">
      <!-- 1100 -->
      <g style="fill: #262626" transform="translate(23.6415 338.211372)scale(0.088 -0.088)">
       <use xlink:href="#DejaVuSans-31"/>
       <use xlink:href="#DejaVuSans-31" x="63.623047"/>
       <use xlink:href="#DejaVuSans-30" x="127.246094"/>
       <use xlink:href="#DejaVuSans-30" x="190.869141"/>
      </g>
     </g>
    </g>
    <g id="ytick_13">
     <g id="line2d_32">
      <path d="M 54.3375 320.539701 
L 391.23 320.539701 
" clip-path="url(#p00321a5b93)" style="fill: none; stroke: #cccccc; stroke-width: 0.8; stroke-linecap: round"/>
     </g>
     <g id="text_33">
      <!-- 1200 -->
      <g style="fill: #262626" transform="translate(23.6415 323.883014)scale(0.088 -0.088)">
       <use xlink:href="#DejaVuSans-31"/>
       <use xlink:href="#DejaVuSans-32" x="63.623047"/>
       <use xlink:href="#DejaVuSans-30" x="127.246094"/>
       <use xlink:href="#DejaVuSans-30" x="190.869141"/>
      </g>
     </g>
    </g>
    <g id="ytick_14">
     <g id="line2d_33">
      <path d="M 54.3375 306.211343 
L 391.23 306.211343 
" clip-path="url(#p00321a5b93)" style="fill: none; stroke: #cccccc; stroke-width: 0.8; stroke-linecap: round"/>
     </g>
     <g id="text_34">
      <!-- 1300 -->
      <g style="fill: #262626" transform="translate(23.6415 309.554656)scale(0.088 -0.088)">
       <use xlink:href="#DejaVuSans-31"/>
       <use xlink:href="#DejaVuSans-33" x="63.623047"/>
       <use xlink:href="#DejaVuSans-30" x="127.246094"/>
       <use xlink:href="#DejaVuSans-30" x="190.869141"/>
      </g>
     </g>
    </g>
    <g id="ytick_15">
     <g id="line2d_34">
      <path d="M 54.3375 291.882985 
L 391.23 291.882985 
" clip-path="url(#p00321a5b93)" style="fill: none; stroke: #cccccc; stroke-width: 0.8; stroke-linecap: round"/>
     </g>
     <g id="text_35">
      <!-- 1400 -->
      <g style="fill: #262626" transform="translate(23.6415 295.226298)scale(0.088 -0.088)">
       <use xlink:href="#DejaVuSans-31"/>
       <use xlink:href="#DejaVuSans-34" x="63.623047"/>
       <use xlink:href="#DejaVuSans-30" x="127.246094"/>
       <use xlink:href="#DejaVuSans-30" x="190.869141"/>
      </g>
     </g>
    </g>
    <g id="ytick_16">
     <g id="line2d_35">
      <path d="M 54.3375 277.554627 
L 391.23 277.554627 
" clip-path="url(#p00321a5b93)" style="fill: none; stroke: #cccccc; stroke-width: 0.8; stroke-linecap: round"/>
     </g>
     <g id="text_36">
      <!-- 1500 -->
      <g style="fill: #262626" transform="translate(23.6415 280.897939)scale(0.088 -0.088)">
       <use xlink:href="#DejaVuSans-31"/>
       <use xlink:href="#DejaVuSans-35" x="63.623047"/>
       <use xlink:href="#DejaVuSans-30" x="127.246094"/>
       <use xlink:href="#DejaVuSans-30" x="190.869141"/>
      </g>
     </g>
    </g>
    <g id="ytick_17">
     <g id="line2d_36">
      <path d="M 54.3375 263.226269 
L 391.23 263.226269 
" clip-path="url(#p00321a5b93)" style="fill: none; stroke: #cccccc; stroke-width: 0.8; stroke-linecap: round"/>
     </g>
     <g id="text_37">
      <!-- 1600 -->
      <g style="fill: #262626" transform="translate(23.6415 266.569581)scale(0.088 -0.088)">
       <use xlink:href="#DejaVuSans-31"/>
       <use xlink:href="#DejaVuSans-36" x="63.623047"/>
       <use xlink:href="#DejaVuSans-30" x="127.246094"/>
       <use xlink:href="#DejaVuSans-30" x="190.869141"/>
      </g>
     </g>
    </g>
    <g id="ytick_18">
     <g id="line2d_37">
      <path d="M 54.3375 248.89791 
L 391.23 248.89791 
" clip-path="url(#p00321a5b93)" style="fill: none; stroke: #cccccc; stroke-width: 0.8; stroke-linecap: round"/>
     </g>
     <g id="text_38">
      <!-- 1700 -->
      <g style="fill: #262626" transform="translate(23.6415 252.241223)scale(0.088 -0.088)">
       <use xlink:href="#DejaVuSans-31"/>
       <use xlink:href="#DejaVuSans-37" x="63.623047"/>
       <use xlink:href="#DejaVuSans-30" x="127.246094"/>
       <use xlink:href="#DejaVuSans-30" x="190.869141"/>
      </g>
     </g>
    </g>
    <g id="ytick_19">
     <g id="line2d_38">
      <path d="M 54.3375 234.569552 
L 391.23 234.569552 
" clip-path="url(#p00321a5b93)" style="fill: none; stroke: #cccccc; stroke-width: 0.8; stroke-linecap: round"/>
     </g>
     <g id="text_39">
      <!-- 1800 -->
      <g style="fill: #262626" transform="translate(23.6415 237.912865)scale(0.088 -0.088)">
       <use xlink:href="#DejaVuSans-31"/>
       <use xlink:href="#DejaVuSans-38" x="63.623047"/>
       <use xlink:href="#DejaVuSans-30" x="127.246094"/>
       <use xlink:href="#DejaVuSans-30" x="190.869141"/>
      </g>
     </g>
    </g>
    <g id="ytick_20">
     <g id="line2d_39">
      <path d="M 54.3375 220.241194 
L 391.23 220.241194 
" clip-path="url(#p00321a5b93)" style="fill: none; stroke: #cccccc; stroke-width: 0.8; stroke-linecap: round"/>
     </g>
     <g id="text_40">
      <!-- 1900 -->
      <g style="fill: #262626" transform="translate(23.6415 223.584507)scale(0.088 -0.088)">
       <use xlink:href="#DejaVuSans-31"/>
       <use xlink:href="#DejaVuSans-39" x="63.623047"/>
       <use xlink:href="#DejaVuSans-30" x="127.246094"/>
       <use xlink:href="#DejaVuSans-30" x="190.869141"/>
      </g>
     </g>
    </g>
    <g id="ytick_21">
     <g id="line2d_40">
      <path d="M 54.3375 205.912836 
L 391.23 205.912836 
" clip-path="url(#p00321a5b93)" style="fill: none; stroke: #cccccc; stroke-width: 0.8; stroke-linecap: round"/>
     </g>
     <g id="text_41">
      <!-- 2000 -->
      <g style="fill: #262626" transform="translate(23.6415 209.256148)scale(0.088 -0.088)">
       <use xlink:href="#DejaVuSans-32"/>
       <use xlink:href="#DejaVuSans-30" x="63.623047"/>
       <use xlink:href="#DejaVuSans-30" x="127.246094"/>
       <use xlink:href="#DejaVuSans-30" x="190.869141"/>
      </g>
     </g>
    </g>
    <g id="ytick_22">
     <g id="line2d_41">
      <path d="M 54.3375 191.584478 
L 391.23 191.584478 
" clip-path="url(#p00321a5b93)" style="fill: none; stroke: #cccccc; stroke-width: 0.8; stroke-linecap: round"/>
     </g>
     <g id="text_42">
      <!-- 2100 -->
      <g style="fill: #262626" transform="translate(23.6415 194.92779)scale(0.088 -0.088)">
       <use xlink:href="#DejaVuSans-32"/>
       <use xlink:href="#DejaVuSans-31" x="63.623047"/>
       <use xlink:href="#DejaVuSans-30" x="127.246094"/>
       <use xlink:href="#DejaVuSans-30" x="190.869141"/>
      </g>
     </g>
    </g>
    <g id="ytick_23">
     <g id="line2d_42">
      <path d="M 54.3375 177.256119 
L 391.23 177.256119 
" clip-path="url(#p00321a5b93)" style="fill: none; stroke: #cccccc; stroke-width: 0.8; stroke-linecap: round"/>
     </g>
     <g id="text_43">
      <!-- 2200 -->
      <g style="fill: #262626" transform="translate(23.6415 180.599432)scale(0.088 -0.088)">
       <use xlink:href="#DejaVuSans-32"/>
       <use xlink:href="#DejaVuSans-32" x="63.623047"/>
       <use xlink:href="#DejaVuSans-30" x="127.246094"/>
       <use xlink:href="#DejaVuSans-30" x="190.869141"/>
      </g>
     </g>
    </g>
    <g id="ytick_24">
     <g id="line2d_43">
      <path d="M 54.3375 162.927761 
L 391.23 162.927761 
" clip-path="url(#p00321a5b93)" style="fill: none; stroke: #cccccc; stroke-width: 0.8; stroke-linecap: round"/>
     </g>
     <g id="text_44">
      <!-- 2300 -->
      <g style="fill: #262626" transform="translate(23.6415 166.271074)scale(0.088 -0.088)">
       <use xlink:href="#DejaVuSans-32"/>
       <use xlink:href="#DejaVuSans-33" x="63.623047"/>
       <use xlink:href="#DejaVuSans-30" x="127.246094"/>
       <use xlink:href="#DejaVuSans-30" x="190.869141"/>
      </g>
     </g>
    </g>
    <g id="ytick_25">
     <g id="line2d_44">
      <path d="M 54.3375 148.599403 
L 391.23 148.599403 
" clip-path="url(#p00321a5b93)" style="fill: none; stroke: #cccccc; stroke-width: 0.8; stroke-linecap: round"/>
     </g>
     <g id="text_45">
      <!-- 2400 -->
      <g style="fill: #262626" transform="translate(23.6415 151.942715)scale(0.088 -0.088)">
       <use xlink:href="#DejaVuSans-32"/>
       <use xlink:href="#DejaVuSans-34" x="63.623047"/>
       <use xlink:href="#DejaVuSans-30" x="127.246094"/>
       <use xlink:href="#DejaVuSans-30" x="190.869141"/>
      </g>
     </g>
    </g>
    <g id="ytick_26">
     <g id="line2d_45">
      <path d="M 54.3375 134.271045 
L 391.23 134.271045 
" clip-path="url(#p00321a5b93)" style="fill: none; stroke: #cccccc; stroke-width: 0.8; stroke-linecap: round"/>
     </g>
     <g id="text_46">
      <!-- 2500 -->
      <g style="fill: #262626" transform="translate(23.6415 137.614357)scale(0.088 -0.088)">
       <use xlink:href="#DejaVuSans-32"/>
       <use xlink:href="#DejaVuSans-35" x="63.623047"/>
       <use xlink:href="#DejaVuSans-30" x="127.246094"/>
       <use xlink:href="#DejaVuSans-30" x="190.869141"/>
      </g>
     </g>
    </g>
    <g id="ytick_27">
     <g id="line2d_46">
      <path d="M 54.3375 119.942687 
L 391.23 119.942687 
" clip-path="url(#p00321a5b93)" style="fill: none; stroke: #cccccc; stroke-width: 0.8; stroke-linecap: round"/>
     </g>
     <g id="text_47">
      <!-- 2600 -->
      <g style="fill: #262626" transform="translate(23.6415 123.285999)scale(0.088 -0.088)">
       <use xlink:href="#DejaVuSans-32"/>
       <use xlink:href="#DejaVuSans-36" x="63.623047"/>
       <use xlink:href="#DejaVuSans-30" x="127.246094"/>
       <use xlink:href="#DejaVuSans-30" x="190.869141"/>
      </g>
     </g>
    </g>
    <g id="ytick_28">
     <g id="line2d_47">
      <path d="M 54.3375 105.614328 
L 391.23 105.614328 
" clip-path="url(#p00321a5b93)" style="fill: none; stroke: #cccccc; stroke-width: 0.8; stroke-linecap: round"/>
     </g>
     <g id="text_48">
      <!-- 2700 -->
      <g style="fill: #262626" transform="translate(23.6415 108.957641)scale(0.088 -0.088)">
       <use xlink:href="#DejaVuSans-32"/>
       <use xlink:href="#DejaVuSans-37" x="63.623047"/>
       <use xlink:href="#DejaVuSans-30" x="127.246094"/>
       <use xlink:href="#DejaVuSans-30" x="190.869141"/>
      </g>
     </g>
    </g>
    <g id="ytick_29">
     <g id="line2d_48">
      <path d="M 54.3375 91.28597 
L 391.23 91.28597 
" clip-path="url(#p00321a5b93)" style="fill: none; stroke: #cccccc; stroke-width: 0.8; stroke-linecap: round"/>
     </g>
     <g id="text_49">
      <!-- 2800 -->
      <g style="fill: #262626" transform="translate(23.6415 94.629283)scale(0.088 -0.088)">
       <use xlink:href="#DejaVuSans-32"/>
       <use xlink:href="#DejaVuSans-38" x="63.623047"/>
       <use xlink:href="#DejaVuSans-30" x="127.246094"/>
       <use xlink:href="#DejaVuSans-30" x="190.869141"/>
      </g>
     </g>
    </g>
    <g id="text_50">
     <!-- Edge Coverages -->
     <g style="fill: #262626" transform="translate(17.645 329.98575)rotate(-90)scale(0.096 -0.096)">
      <defs>
       <path id="DejaVuSans-45" d="M 628 4666 
L 3578 4666 
L 3578 4134 
L 1259 4134 
L 1259 2753 
L 3481 2753 
L 3481 2222 
L 1259 2222 
L 1259 531 
L 3634 531 
L 3634 0 
L 628 0 
L 628 4666 
z
" transform="scale(0.015625)"/>
       <path id="DejaVuSans-64" d="M 2906 2969 
L 2906 4863 
L 3481 4863 
L 3481 0 
L 2906 0 
L 2906 525 
Q 2725 213 2448 61 
Q 2172 -91 1784 -91 
Q 1150 -91 751 415 
Q 353 922 353 1747 
Q 353 2572 751 3078 
Q 1150 3584 1784 3584 
Q 2172 3584 2448 3432 
Q 2725 3281 2906 2969 
z
M 947 1747 
Q 947 1113 1208 752 
Q 1469 391 1925 391 
Q 2381 391 2643 752 
Q 2906 1113 2906 1747 
Q 2906 2381 2643 2742 
Q 2381 3103 1925 3103 
Q 1469 3103 1208 2742 
Q 947 2381 947 1747 
z
" transform="scale(0.015625)"/>
       <path id="DejaVuSans-67" d="M 2906 1791 
Q 2906 2416 2648 2759 
Q 2391 3103 1925 3103 
Q 1463 3103 1205 2759 
Q 947 2416 947 1791 
Q 947 1169 1205 825 
Q 1463 481 1925 481 
Q 2391 481 2648 825 
Q 2906 1169 2906 1791 
z
M 3481 434 
Q 3481 -459 3084 -895 
Q 2688 -1331 1869 -1331 
Q 1566 -1331 1297 -1286 
Q 1028 -1241 775 -1147 
L 775 -588 
Q 1028 -725 1275 -790 
Q 1522 -856 1778 -856 
Q 2344 -856 2625 -561 
Q 2906 -266 2906 331 
L 2906 616 
Q 2728 306 2450 153 
Q 2172 0 1784 0 
Q 1141 0 747 490 
Q 353 981 353 1791 
Q 353 2603 747 3093 
Q 1141 3584 1784 3584 
Q 2172 3584 2450 3431 
Q 2728 3278 2906 2969 
L 2906 3500 
L 3481 3500 
L 3481 434 
z
" transform="scale(0.015625)"/>
       <path id="DejaVuSans-43" d="M 4122 4306 
L 4122 3641 
Q 3803 3938 3442 4084 
Q 3081 4231 2675 4231 
Q 1875 4231 1450 3742 
Q 1025 3253 1025 2328 
Q 1025 1406 1450 917 
Q 1875 428 2675 428 
Q 3081 428 3442 575 
Q 3803 722 4122 1019 
L 4122 359 
Q 3791 134 3420 21 
Q 3050 -91 2638 -91 
Q 1578 -91 968 557 
Q 359 1206 359 2328 
Q 359 3453 968 4101 
Q 1578 4750 2638 4750 
Q 3056 4750 3426 4639 
Q 3797 4528 4122 4306 
z
" transform="scale(0.015625)"/>
       <path id="DejaVuSans-6f" d="M 1959 3097 
Q 1497 3097 1228 2736 
Q 959 2375 959 1747 
Q 959 1119 1226 758 
Q 1494 397 1959 397 
Q 2419 397 2687 759 
Q 2956 1122 2956 1747 
Q 2956 2369 2687 2733 
Q 2419 3097 1959 3097 
z
M 1959 3584 
Q 2709 3584 3137 3096 
Q 3566 2609 3566 1747 
Q 3566 888 3137 398 
Q 2709 -91 1959 -91 
Q 1206 -91 779 398 
Q 353 888 353 1747 
Q 353 2609 779 3096 
Q 1206 3584 1959 3584 
z
" transform="scale(0.015625)"/>
       <path id="DejaVuSans-76" d="M 191 3500 
L 800 3500 
L 1894 563 
L 2988 3500 
L 3597 3500 
L 2284 0 
L 1503 0 
L 191 3500 
z
" transform="scale(0.015625)"/>
       <path id="DejaVuSans-72" d="M 2631 2963 
Q 2534 3019 2420 3045 
Q 2306 3072 2169 3072 
Q 1681 3072 1420 2755 
Q 1159 2438 1159 1844 
L 1159 0 
L 581 0 
L 581 3500 
L 1159 3500 
L 1159 2956 
Q 1341 3275 1631 3429 
Q 1922 3584 2338 3584 
Q 2397 3584 2469 3576 
Q 2541 3569 2628 3553 
L 2631 2963 
z
" transform="scale(0.015625)"/>
       <path id="DejaVuSans-61" d="M 2194 1759 
Q 1497 1759 1228 1600 
Q 959 1441 959 1056 
Q 959 750 1161 570 
Q 1363 391 1709 391 
Q 2188 391 2477 730 
Q 2766 1069 2766 1631 
L 2766 1759 
L 2194 1759 
z
M 3341 1997 
L 3341 0 
L 2766 0 
L 2766 531 
Q 2569 213 2275 61 
Q 1981 -91 1556 -91 
Q 1019 -91 701 211 
Q 384 513 384 1019 
Q 384 1609 779 1909 
Q 1175 2209 1959 2209 
L 2766 2209 
L 2766 2266 
Q 2766 2663 2505 2880 
Q 2244 3097 1772 3097 
Q 1472 3097 1187 3025 
Q 903 2953 641 2809 
L 641 3341 
Q 956 3463 1253 3523 
Q 1550 3584 1831 3584 
Q 2591 3584 2966 3190 
Q 3341 2797 3341 1997 
z
" transform="scale(0.015625)"/>
      </defs>
      <use xlink:href="#DejaVuSans-45"/>
      <use xlink:href="#DejaVuSans-64" x="63.183594"/>
      <use xlink:href="#DejaVuSans-67" x="126.660156"/>
      <use xlink:href="#DejaVuSans-65" x="190.136719"/>
      <use xlink:href="#DejaVuSans-20" x="251.660156"/>
      <use xlink:href="#DejaVuSans-43" x="283.447266"/>
      <use xlink:href="#DejaVuSans-6f" x="353.271484"/>
      <use xlink:href="#DejaVuSans-76" x="414.453125"/>
      <use xlink:href="#DejaVuSans-65" x="473.632812"/>
      <use xlink:href="#DejaVuSans-72" x="535.15625"/>
      <use xlink:href="#DejaVuSans-61" x="576.269531"/>
      <use xlink:href="#DejaVuSans-67" x="637.548828"/>
      <use xlink:href="#DejaVuSans-65" x="701.025391"/>
      <use xlink:href="#DejaVuSans-73" x="762.548828"/>
     </g>
    </g>
   </g>
   <g id="PolyCollection_1">
    <defs>
     <path id="md8e3e872b5" d="M 69.650795 -85.096119 
L 69.650795 -83.52 
L 69.650795 -85.096119 
L 69.650795 -85.096119 
z
" style="stroke: #db5f57; stroke-opacity: 0.2; stroke-width: 0.8"/>
    </defs>
    <g clip-path="url(#p00321a5b93)">
     <use xlink:href="#md8e3e872b5" x="0" y="576" style="fill: #db5f57; fill-opacity: 0.2; stroke: #db5f57; stroke-opacity: 0.2; stroke-width: 0.8"/>
    </g>
   </g>
   <g id="PolyCollection_2">
    <defs>
     <path id="mb4d90f4761" d="M 69.650795 -90.684179 
L 69.650795 -83.52 
L 69.650795 -90.684179 
L 69.650795 -90.684179 
z
" style="stroke: #b9db57; stroke-opacity: 0.2; stroke-width: 0.8"/>
    </defs>
    <g clip-path="url(#p00321a5b93)">
     <use xlink:href="#mb4d90f4761" x="0" y="576" style="fill: #b9db57; fill-opacity: 0.2; stroke: #b9db57; stroke-opacity: 0.2; stroke-width: 0.8"/>
    </g>
   </g>
   <g id="PolyCollection_3">
    <defs>
     <path id="mab2b94a3d7" d="M 69.650795 -90.397612 
L 69.650795 -83.52 
L 69.650795 -90.397612 
L 69.650795 -90.397612 
z
" style="stroke: #57db94; stroke-opacity: 0.2; stroke-width: 0.8"/>
    </defs>
    <g clip-path="url(#p00321a5b93)">
     <use xlink:href="#mab2b94a3d7" x="0" y="576" style="fill: #57db94; fill-opacity: 0.2; stroke: #57db94; stroke-opacity: 0.2; stroke-width: 0.8"/>
    </g>
   </g>
   <g id="PolyCollection_4">
    <defs>
     <path id="m82cc37f876" d="M 69.650795 -85.096119 
L 69.650795 -83.52 
L 69.650795 -85.096119 
L 69.650795 -85.096119 
z
" style="stroke: #5784db; stroke-opacity: 0.2; stroke-width: 0.8"/>
    </defs>
    <g clip-path="url(#p00321a5b93)">
     <use xlink:href="#m82cc37f876" x="0" y="576" style="fill: #5784db; fill-opacity: 0.2; stroke: #5784db; stroke-opacity: 0.2; stroke-width: 0.8"/>
    </g>
   </g>
   <g id="PolyCollection_5">
    <defs>
     <path id="mff34d1e420" d="M 69.650795 -91.11403 
L 69.650795 -83.52 
L 69.650795 -91.11403 
L 69.650795 -91.11403 
z
" style="stroke: #c957db; stroke-opacity: 0.2; stroke-width: 0.8"/>
    </defs>
    <g clip-path="url(#p00321a5b93)">
     <use xlink:href="#mff34d1e420" x="0" y="576" style="fill: #c957db; fill-opacity: 0.2; stroke: #c957db; stroke-opacity: 0.2; stroke-width: 0.8"/>
    </g>
   </g>
   <g id="line2d_49">
    <path d="M 69.650795 491.69194 
L 70.07646 465.542687 
L 70.289293 456.802388 
L 70.502125 455.656119 
L 70.714958 451.357612 
L 70.92779 433.733731 
L 71.140623 431.871045 
L 71.566288 430.86806 
L 71.77912 426.282985 
L 72.204785 423.847164 
L 72.63045 420.265075 
L 72.843282 414.963582 
L 73.694612 348.193433 
L 74.120277 324.838209 
L 74.33311 318.963582 
L 74.758774 294.032239 
L 74.971607 288.730746 
L 75.397272 267.66806 
L 76.674267 228.121791 
L 77.099932 221.387463 
L 77.312764 217.232239 
L 77.525596 215.369552 
L 77.738429 214.796418 
L 77.951261 212.360597 
L 78.164094 211.644179 
L 78.376926 208.06209 
L 78.589759 207.059104 
L 78.802591 204.623284 
L 79.015424 204.050149 
L 79.441089 201.327761 
L 79.653921 201.327761 
L 79.866754 200.611343 
L 80.079586 200.324776 
L 80.292418 199.321791 
L 80.505251 198.89194 
L 80.930916 198.89194 
L 81.143748 198.748657 
L 81.356581 192.300896 
L 81.569413 190.438209 
L 82.207911 188.575522 
L 82.420743 188.575522 
L 82.633575 187.572537 
L 82.846408 185.566567 
L 83.484905 184.420299 
L 83.91057 184.420299 
L 84.336235 183.703881 
L 84.7619 183.703881 
L 84.974733 183.560597 
L 85.187565 182.557612 
L 85.400397 182.271045 
L 85.61323 181.69791 
L 85.826062 181.69791 
L 86.251727 181.26806 
L 86.46456 181.26806 
L 86.677392 180.838209 
L 87.31589 180.838209 
L 87.528722 180.694925 
L 87.741555 180.121791 
L 87.954387 180.121791 
L 88.167219 178.975522 
L 88.380052 178.975522 
L 88.592884 178.545672 
L 89.018549 178.545672 
L 89.231382 178.402388 
L 89.444214 178.402388 
L 89.869879 177.972537 
L 90.082712 176.682985 
L 90.295544 176.539701 
L 90.508376 174.390448 
L 90.721209 173.67403 
L 90.934041 173.530746 
L 91.146874 172.527761 
L 91.359706 170.378507 
L 91.998204 168.515821 
L 92.211036 168.515821 
L 92.423869 168.08597 
L 92.849534 166.796418 
L 93.275198 166.796418 
L 93.700863 165.650149 
L 94.126528 164.933731 
L 94.339361 164.647164 
L 94.552193 164.07403 
L 94.765026 164.07403 
L 95.190691 163.644179 
L 95.403523 163.644179 
L 95.616356 163.500896 
L 95.829188 163.214328 
L 96.04202 163.214328 
L 96.254853 163.071045 
L 96.89335 163.071045 
L 97.106183 162.641194 
L 97.319015 162.641194 
L 97.531848 162.06806 
L 97.957513 162.06806 
L 98.170345 161.494925 
L 98.383177 161.351642 
L 98.808842 160.205373 
L 99.660172 160.205373 
L 99.873005 160.06209 
L 101.788497 160.06209 
L 102.214162 159.775522 
L 102.639827 159.775522 
L 103.278324 157.626269 
L 104.129654 157.626269 
L 104.342486 157.482985 
L 105.193816 157.482985 
L 105.619481 155.906866 
L 105.832314 155.763582 
L 106.045146 155.047164 
L 106.257978 155.047164 
L 106.470811 154.47403 
L 106.683643 154.47403 
L 106.896476 154.044179 
L 107.534973 153.614328 
L 110.72746 153.614328 
L 110.940293 153.327761 
L 111.365957 151.608358 
L 111.791622 151.608358 
L 112.004455 150.748657 
L 112.642952 150.748657 
L 112.855785 150.605373 
L 113.068617 150.605373 
L 113.28145 150.46209 
L 114.771277 150.46209 
L 115.196942 150.175522 
L 117.325266 150.175522 
L 117.538099 150.032239 
L 117.750931 149.745672 
L 118.176596 148.312836 
L 119.027926 147.166567 
L 119.240758 147.166567 
L 119.453591 146.736716 
L 122.85891 146.736716 
L 123.497408 146.020299 
L 123.923073 143.584478 
L 124.135905 143.29791 
L 124.987235 143.29791 
L 125.200067 142.438209 
L 125.625732 142.438209 
L 125.838565 142.151642 
L 126.26423 142.151642 
L 126.689895 141.721791 
L 127.328392 141.721791 
L 127.541224 141.578507 
L 127.966889 139.429254 
L 128.179722 137.423284 
L 128.605387 136.277015 
L 128.818219 135.847164 
L 129.031052 134.987463 
L 129.243884 134.844179 
L 129.456717 133.69791 
L 129.669549 133.554627 
L 129.882381 132.981493 
L 130.308046 132.694925 
L 130.520879 132.694925 
L 130.733711 132.551642 
L 131.159376 132.551642 
L 131.372209 132.408358 
L 132.649203 132.408358 
L 132.862036 131.978507 
L 133.500533 131.978507 
L 133.713366 131.835224 
L 134.564696 131.835224 
L 134.777528 131.69194 
L 140.524004 131.69194 
L 140.736837 131.548657 
L 140.949669 131.548657 
L 141.162502 131.405373 
L 141.375334 131.405373 
L 141.588167 130.545672 
L 142.013832 130.545672 
L 142.226664 130.402388 
L 142.439497 130.402388 
L 142.652329 129.972537 
L 143.077994 129.972537 
L 143.290826 129.829254 
L 143.503659 129.829254 
L 143.716491 129.68597 
L 144.354989 129.68597 
L 144.567821 129.542687 
L 146.696146 129.542687 
L 146.908978 129.399403 
L 147.121811 129.399403 
L 147.334643 129.256119 
L 147.760308 129.256119 
L 147.973141 129.112836 
L 154.145282 129.112836 
L 154.358114 128.969552 
L 162.445748 128.969552 
L 162.65858 128.826269 
L 172.236041 128.826269 
L 172.448873 128.682985 
L 173.300203 128.682985 
L 173.513036 128.539701 
L 176.279858 128.539701 
L 176.49269 128.253134 
L 176.705523 128.253134 
L 176.918355 128.109851 
L 177.34402 128.109851 
L 177.556852 127.68 
L 181.387837 127.68 
L 181.600669 127.536716 
L 182.877664 127.536716 
L 183.090496 127.393433 
L 195.221947 127.393433 
L 195.434779 127.250149 
L 195.647611 127.250149 
L 195.860444 126.963582 
L 196.711774 126.963582 
L 196.924606 126.820299 
L 200.117093 126.820299 
L 200.329926 126.677015 
L 200.542758 126.247164 
L 201.181255 126.247164 
L 201.394088 126.103881 
L 201.60692 126.103881 
L 201.819753 125.960597 
L 210.120219 125.960597 
L 210.333051 125.244179 
L 211.184381 125.244179 
L 211.397213 124.957612 
L 211.610046 123.954627 
L 212.461376 123.954627 
L 212.887041 123.524776 
L 213.951203 123.524776 
L 214.376868 123.238209 
L 215.015365 123.238209 
L 215.866695 122.665075 
L 216.29236 122.665075 
L 217.14369 121.518806 
L 217.356522 121.518806 
L 217.569355 121.375522 
L 221.400339 121.375522 
L 221.613171 121.232239 
L 223.954329 121.232239 
L 224.167161 121.088955 
L 224.592826 121.088955 
L 224.805658 120.802388 
L 226.933983 120.802388 
L 227.359648 120.515821 
L 229.700805 120.515821 
L 229.913637 120.229254 
L 245.663239 120.229254 
L 245.876072 120.08597 
L 257.79469 120.08597 
L 258.007522 119.799403 
L 261.200009 119.799403 
L 261.412841 119.369552 
L 267.37215 119.369552 
L 267.584983 118.366567 
L 268.22348 118.366567 
L 268.436313 118.223284 
L 283.334585 118.223284 
L 283.547417 118.08 
L 296.530197 118.08 
L 296.74303 117.936716 
L 305.46916 117.936716 
L 305.681993 117.793433 
L 311.002804 117.793433 
L 311.215637 117.650149 
L 364.636584 117.650149 
L 364.849417 117.506866 
L 369.531731 117.506866 
L 369.744563 117.363582 
L 375.916705 117.363582 
L 375.916705 117.363582 
" clip-path="url(#p00321a5b93)" style="fill: none; stroke: #db5f57; stroke-width: 1.2; stroke-linecap: round"/>
   </g>
   <g id="line2d_50">
    <path d="M 69.650795 488.89791 
L 70.289293 447.059104 
L 70.714958 431.871045 
L 71.140623 428.002388 
L 71.353455 427.715821 
L 71.566288 425.853134 
L 71.77912 422.127761 
L 71.991953 421.554627 
L 72.204785 419.69194 
L 72.417617 418.832239 
L 72.63045 413.817313 
L 72.843282 400.348657 
L 73.056115 395.763582 
L 73.48178 368.109851 
L 73.694612 364.384478 
L 73.907445 325.69791 
L 74.545942 277.124776 
L 74.758774 275.548657 
L 74.971607 271.68 
L 75.184439 259.787463 
L 75.610104 252.336716 
L 76.248602 229.411343 
L 76.461434 225.829254 
L 76.674267 213.220299 
L 76.887099 208.635224 
L 77.312764 206.199403 
L 77.525596 202.903881 
L 77.738429 202.760597 
L 77.951261 200.611343 
L 78.164094 197.029254 
L 78.376926 196.312836 
L 78.589759 194.593433 
L 78.802591 194.593433 
L 79.015424 193.447164 
L 79.228256 193.303881 
L 79.441089 192.587463 
L 79.653921 190.294925 
L 79.866754 190.294925 
L 80.079586 190.008358 
L 80.292418 189.435224 
L 80.930916 189.435224 
L 81.143748 183.847164 
L 81.356581 182.127761 
L 81.782246 180.838209 
L 81.995078 180.551642 
L 82.633575 178.259104 
L 82.846408 176.539701 
L 83.05924 176.396418 
L 83.272073 175.823284 
L 83.484905 175.68 
L 83.91057 175.68 
L 84.123403 175.393433 
L 84.7619 175.393433 
L 84.974733 174.103881 
L 85.187565 174.103881 
L 85.400397 173.387463 
L 85.826062 173.387463 
L 86.038895 172.814328 
L 86.251727 172.814328 
L 86.46456 171.954627 
L 86.890225 171.524776 
L 87.31589 171.238209 
L 87.528722 170.521791 
L 87.741555 170.378507 
L 87.954387 169.66209 
L 88.380052 169.232239 
L 88.592884 169.232239 
L 88.805717 169.088955 
L 89.018549 168.515821 
L 89.444214 168.515821 
L 89.869879 166.653134 
L 90.082712 166.366567 
L 90.295544 163.500896 
L 90.508376 163.214328 
L 90.721209 162.49791 
L 90.934041 162.211343 
L 91.572539 157.912836 
L 92.423869 156.336716 
L 92.636701 155.477015 
L 92.849534 155.333731 
L 93.062366 155.333731 
L 93.275198 155.190448 
L 93.700863 154.044179 
L 94.126528 153.757612 
L 94.339361 153.757612 
L 94.977858 152.324776 
L 95.403523 152.324776 
L 95.616356 152.181493 
L 95.829188 151.894925 
L 96.254853 151.894925 
L 96.89335 151.465075 
L 97.319015 151.465075 
L 97.531848 151.178507 
L 97.957513 150.175522 
L 98.170345 150.032239 
L 98.59601 149.172537 
L 98.808842 149.029254 
L 99.021675 148.742687 
L 102.426994 148.742687 
L 102.639827 148.312836 
L 103.065492 146.450149 
L 104.342486 146.450149 
L 104.555319 146.306866 
L 104.980984 146.306866 
L 105.193816 146.020299 
L 105.406649 145.017313 
L 106.045146 144.014328 
L 106.257978 143.29791 
L 106.470811 143.011343 
L 106.683643 143.011343 
L 106.896476 142.581493 
L 107.109308 142.581493 
L 107.534973 142.294925 
L 110.72746 142.294925 
L 111.153125 140.145672 
L 111.365957 139.859104 
L 112.004455 139.859104 
L 112.217287 139.142687 
L 112.642952 139.142687 
L 113.068617 138.712836 
L 114.345612 138.712836 
L 114.558444 138.569552 
L 117.538099 138.569552 
L 117.963764 136.850149 
L 118.176596 136.563582 
L 118.389429 136.563582 
L 118.815094 135.560597 
L 119.240758 135.560597 
L 119.453591 135.27403 
L 122.646078 135.27403 
L 123.071743 134.844179 
L 123.284575 134.844179 
L 123.497408 133.411343 
L 124.348738 131.405373 
L 124.56157 131.26209 
L 124.774402 131.26209 
L 124.987235 130.832239 
L 125.4129 130.832239 
L 125.838565 130.545672 
L 126.26423 130.545672 
L 126.477062 130.115821 
L 126.689895 129.972537 
L 127.115559 129.972537 
L 127.328392 129.829254 
L 127.754057 127.823284 
L 127.966889 127.536716 
L 128.179722 124.957612 
L 129.243884 122.951642 
L 129.456717 121.66209 
L 130.095214 120.945672 
L 130.308046 120.802388 
L 131.159376 120.802388 
L 131.372209 120.659104 
L 132.649203 120.659104 
L 132.862036 120.515821 
L 133.074868 119.799403 
L 133.500533 119.799403 
L 133.713366 119.656119 
L 134.564696 119.656119 
L 134.777528 119.512836 
L 140.736837 119.512836 
L 140.949669 119.369552 
L 141.162502 119.082985 
L 141.375334 119.082985 
L 141.588167 118.223284 
L 142.013832 117.936716 
L 142.652329 117.936716 
L 142.865161 117.506866 
L 143.503659 117.506866 
L 143.716491 117.363582 
L 144.142156 117.363582 
L 144.354989 117.220299 
L 146.483313 117.220299 
L 146.696146 117.077015 
L 146.908978 117.077015 
L 147.121811 116.933731 
L 154.145282 116.933731 
L 154.358114 116.790448 
L 162.232915 116.790448 
L 162.445748 116.647164 
L 172.023208 116.647164 
L 172.236041 116.503881 
L 173.087371 116.503881 
L 173.300203 116.360597 
L 176.279858 116.360597 
L 176.705523 116.07403 
L 177.131187 116.07403 
L 177.34402 115.930746 
L 177.556852 115.644179 
L 181.387837 115.644179 
L 181.600669 115.500896 
L 188.198475 115.500896 
L 188.411308 115.357612 
L 194.583449 115.357612 
L 194.796282 115.214328 
L 195.647611 115.214328 
L 195.860444 114.927761 
L 196.711774 114.927761 
L 196.924606 114.784478 
L 200.329926 114.784478 
L 200.542758 113.924776 
L 201.60692 113.924776 
L 201.819753 113.781493 
L 209.907386 113.781493 
L 210.120219 113.494925 
L 210.333051 113.494925 
L 210.758716 112.06209 
L 210.971549 112.06209 
L 211.184381 111.775522 
L 211.397213 111.775522 
L 211.610046 111.632239 
L 212.887041 111.632239 
L 213.099873 111.488955 
L 214.164035 111.488955 
L 214.376868 111.345672 
L 214.5897 111.345672 
L 214.802533 111.202388 
L 215.015365 111.202388 
L 215.228198 111.059104 
L 215.44103 111.059104 
L 215.653863 110.772537 
L 215.866695 110.772537 
L 216.505192 110.342687 
L 216.718025 109.769552 
L 216.930857 109.769552 
L 217.356522 109.339701 
L 221.187507 109.339701 
L 221.400339 109.196418 
L 223.954329 109.196418 
L 224.167161 109.053134 
L 224.379993 108.766567 
L 226.933983 108.766567 
L 227.146815 108.48 
L 229.700805 108.48 
L 229.913637 108.193433 
L 244.81191 108.193433 
L 245.024742 108.050149 
L 257.369025 108.050149 
L 257.581857 107.763582 
L 261.200009 107.763582 
L 261.412841 107.333731 
L 266.733653 107.333731 
L 266.946485 107.190448 
L 267.37215 106.187463 
L 268.010648 106.187463 
L 268.22348 106.044179 
L 296.530197 106.044179 
L 296.74303 105.900896 
L 305.256328 105.900896 
L 305.46916 105.757612 
L 311.428469 105.757612 
L 311.641302 105.614328 
L 375.916705 105.614328 
L 375.916705 105.614328 
" clip-path="url(#p00321a5b93)" style="fill: none; stroke: #b9db57; stroke-width: 1.2; stroke-linecap: round"/>
   </g>
   <g id="line2d_51">
    <path d="M 69.650795 489.041194 
L 70.07646 457.805373 
L 70.502125 438.318806 
L 70.714958 433.017313 
L 71.140623 429.435224 
L 71.353455 428.575522 
L 71.77912 424.133731 
L 71.991953 423.130746 
L 72.417617 419.405373 
L 72.63045 415.823284 
L 72.843282 405.506866 
L 73.907445 319.966567 
L 74.120277 311.226269 
L 74.545942 275.69194 
L 75.184439 252.766567 
L 75.397272 249.184478 
L 75.822937 233.136716 
L 76.035769 231.417313 
L 76.461434 214.509851 
L 77.525596 200.89791 
L 77.738429 200.611343 
L 78.164094 197.172537 
L 78.589759 192.157612 
L 79.015424 191.29791 
L 79.441089 188.575522 
L 79.653921 188.432239 
L 80.079586 187.572537 
L 80.718083 186.856119 
L 81.143748 186.856119 
L 81.356581 181.26806 
L 81.569413 179.405373 
L 82.420743 177.542687 
L 83.05924 174.963582 
L 84.123403 173.67403 
L 84.336235 173.530746 
L 84.7619 173.530746 
L 84.974733 172.527761 
L 85.400397 172.09791 
L 85.61323 171.381493 
L 86.038895 171.381493 
L 86.251727 170.951642 
L 86.46456 170.09194 
L 86.677392 169.805373 
L 86.890225 169.805373 
L 87.103057 169.518806 
L 87.31589 169.518806 
L 87.528722 168.802388 
L 87.741555 168.802388 
L 88.380052 167.656119 
L 88.592884 167.656119 
L 89.018549 166.939701 
L 89.444214 166.653134 
L 89.869879 164.933731 
L 90.295544 164.503881 
L 90.508376 162.06806 
L 90.934041 161.208358 
L 91.146874 160.49194 
L 91.359706 157.626269 
L 92.211036 155.906866 
L 92.423869 155.906866 
L 92.636701 155.190448 
L 92.849534 154.903881 
L 93.062366 154.903881 
L 93.275198 154.760597 
L 93.700863 153.900896 
L 94.126528 153.327761 
L 94.339361 153.327761 
L 94.552193 152.611343 
L 94.765026 152.611343 
L 94.977858 152.181493 
L 95.616356 152.181493 
L 95.829188 151.751642 
L 96.467685 151.751642 
L 96.680518 151.608358 
L 96.89335 151.321791 
L 97.319015 151.321791 
L 97.531848 150.605373 
L 97.74468 150.46209 
L 97.957513 150.032239 
L 98.170345 149.888955 
L 98.383177 149.315821 
L 98.59601 149.172537 
L 98.808842 148.742687 
L 102.426994 148.742687 
L 102.639827 148.312836 
L 103.065492 146.593433 
L 104.129654 146.593433 
L 104.342486 146.450149 
L 105.193816 146.450149 
L 105.406649 145.160597 
L 106.045146 144.157612 
L 106.683643 142.86806 
L 106.896476 142.724776 
L 107.322141 142.724776 
L 107.534973 142.438209 
L 110.72746 142.438209 
L 111.153125 140.288955 
L 112.004455 140.288955 
L 112.217287 139.572537 
L 112.642952 139.572537 
L 113.068617 139.142687 
L 113.707115 139.142687 
L 113.919947 138.999403 
L 114.771277 138.999403 
L 114.984109 138.856119 
L 117.112434 138.856119 
L 117.325266 138.712836 
L 117.538099 138.712836 
L 117.750931 138.426269 
L 117.963764 137.423284 
L 119.027926 135.990448 
L 119.240758 135.990448 
L 119.453591 135.703881 
L 122.646078 135.703881 
L 122.85891 135.560597 
L 123.284575 134.987463 
L 123.497408 133.841194 
L 123.71024 133.411343 
L 123.923073 132.408358 
L 124.135905 132.265075 
L 124.56157 131.548657 
L 124.774402 131.548657 
L 124.987235 131.118806 
L 125.625732 131.118806 
L 125.838565 130.975522 
L 126.26423 130.975522 
L 126.477062 130.832239 
L 126.689895 130.402388 
L 127.115559 130.402388 
L 127.328392 130.259104 
L 127.541224 129.972537 
L 127.754057 128.682985 
L 127.966889 126.390448 
L 128.179722 125.67403 
L 128.392554 125.67403 
L 128.605387 124.814328 
L 128.818219 124.814328 
L 129.243884 122.808358 
L 129.456717 122.521791 
L 129.882381 121.66209 
L 130.308046 121.375522 
L 130.946544 121.375522 
L 131.159376 121.232239 
L 132.436371 121.232239 
L 132.649203 121.088955 
L 132.862036 120.515821 
L 133.074868 120.372537 
L 133.500533 120.372537 
L 133.713366 120.229254 
L 134.351863 120.229254 
L 134.564696 120.08597 
L 140.311172 120.08597 
L 140.524004 119.942687 
L 140.949669 119.942687 
L 141.162502 119.799403 
L 141.375334 119.799403 
L 141.588167 119.082985 
L 141.800999 119.082985 
L 142.013832 118.653134 
L 142.439497 118.653134 
L 142.652329 118.08 
L 143.503659 118.08 
L 143.716491 117.936716 
L 144.142156 117.936716 
L 144.354989 117.793433 
L 146.483313 117.793433 
L 146.908978 117.506866 
L 147.121811 117.506866 
L 147.334643 117.363582 
L 148.611638 117.363582 
L 148.82447 117.220299 
L 172.023208 117.220299 
L 172.236041 117.077015 
L 173.087371 117.077015 
L 173.300203 116.933731 
L 176.279858 116.933731 
L 176.705523 116.503881 
L 177.131187 116.503881 
L 177.769685 116.07403 
L 178.621015 116.07403 
L 178.833847 115.930746 
L 180.962172 115.930746 
L 181.387837 115.644179 
L 188.198475 115.644179 
L 188.411308 115.500896 
L 195.221947 115.500896 
L 195.860444 115.071045 
L 196.711774 115.071045 
L 196.924606 114.927761 
L 200.542758 114.927761 
L 200.75559 114.49791 
L 201.394088 114.49791 
L 201.60692 114.354627 
L 209.694554 114.354627 
L 210.545884 113.351642 
L 210.758716 112.635224 
L 210.971549 112.635224 
L 211.184381 112.348657 
L 211.397213 112.348657 
L 211.610046 112.205373 
L 212.887041 112.205373 
L 213.099873 112.06209 
L 214.376868 112.06209 
L 214.5897 111.775522 
L 215.015365 111.775522 
L 215.228198 111.632239 
L 215.866695 111.632239 
L 216.29236 111.202388 
L 216.505192 111.202388 
L 216.718025 110.48597 
L 216.930857 110.48597 
L 217.14369 110.199403 
L 217.356522 110.199403 
L 217.569355 110.056119 
L 221.400339 110.056119 
L 221.613171 109.912836 
L 223.954329 109.912836 
L 224.379993 109.626269 
L 226.508318 109.626269 
L 226.72115 109.482985 
L 227.146815 109.482985 
L 227.359648 109.196418 
L 229.700805 109.196418 
L 229.913637 108.909851 
L 244.81191 108.909851 
L 245.024742 108.766567 
L 256.94336 108.766567 
L 257.369025 108.48 
L 261.412841 108.48 
L 261.625674 108.050149 
L 266.946485 108.050149 
L 267.159318 107.906866 
L 267.37215 107.047164 
L 267.584983 106.760597 
L 296.530197 106.760597 
L 296.74303 106.617313 
L 305.256328 106.617313 
L 305.46916 106.47403 
L 311.002804 106.47403 
L 311.215637 106.330746 
L 369.531731 106.330746 
L 369.744563 106.187463 
L 375.916705 106.187463 
L 375.916705 106.187463 
" clip-path="url(#p00321a5b93)" style="fill: none; stroke: #57db94; stroke-width: 1.2; stroke-linecap: round"/>
   </g>
   <g id="line2d_52">
    <path d="M 69.650795 491.69194 
L 69.863628 490.760597 
L 70.07646 490.617313 
L 70.289293 490.617313 
L 70.92779 430.581493 
L 71.140623 429.435224 
L 71.353455 429.29194 
L 71.566288 428.288955 
L 71.991953 423.27403 
L 72.204785 420.981493 
L 72.417617 420.121791 
L 72.63045 417.829254 
L 72.843282 412.527761 
L 73.48178 361.948657 
L 73.694612 332.145672 
L 73.907445 323.26209 
L 74.120277 298.47403 
L 74.33311 290.306866 
L 74.545942 269.100896 
L 74.758774 263.512836 
L 74.971607 253.626269 
L 75.184439 253.626269 
L 75.610104 236.002388 
L 76.035769 217.088955 
L 76.887099 198.605373 
L 77.525596 191.584478 
L 77.738429 191.584478 
L 78.376926 185.28 
L 78.589759 182.987463 
L 78.802591 182.987463 
L 79.015424 182.271045 
L 79.441089 179.26209 
L 79.653921 179.118806 
L 79.866754 178.688955 
L 80.079586 178.545672 
L 80.292418 178.545672 
L 80.505251 177.972537 
L 80.930916 177.972537 
L 81.356581 170.951642 
L 81.782246 170.09194 
L 82.633575 167.226269 
L 82.846408 165.936716 
L 83.272073 165.220299 
L 83.484905 164.790448 
L 83.697738 164.790448 
L 84.123403 164.503881 
L 84.336235 164.07403 
L 84.7619 164.07403 
L 84.974733 162.927761 
L 85.187565 162.927761 
L 85.400397 162.06806 
L 85.61323 161.924776 
L 85.826062 161.924776 
L 86.251727 161.494925 
L 86.46456 160.778507 
L 86.677392 160.778507 
L 87.103057 160.06209 
L 87.528722 160.06209 
L 87.741555 159.345672 
L 87.954387 159.202388 
L 88.167219 158.48597 
L 88.380052 158.342687 
L 89.231382 157.339701 
L 89.444214 157.339701 
L 89.657047 156.909851 
L 89.869879 155.763582 
L 90.082712 155.333731 
L 90.295544 153.041194 
L 90.508376 152.181493 
L 90.721209 151.894925 
L 90.934041 151.178507 
L 91.146874 149.745672 
L 91.359706 147.453134 
L 91.785371 146.450149 
L 91.998204 146.163582 
L 92.211036 145.590448 
L 92.423869 145.590448 
L 92.636701 144.587463 
L 92.849534 144.587463 
L 93.488031 144.157612 
L 93.700863 143.29791 
L 94.126528 142.86806 
L 94.339361 142.724776 
L 94.552193 141.865075 
L 94.765026 141.865075 
L 95.190691 141.435224 
L 95.616356 141.435224 
L 95.829188 141.005373 
L 96.467685 141.005373 
L 96.680518 140.86209 
L 96.89335 140.575522 
L 97.106183 140.575522 
L 97.319015 140.432239 
L 97.531848 139.715821 
L 97.957513 139.429254 
L 98.383177 138.712836 
L 99.021675 137.853134 
L 102.426994 137.853134 
L 102.639827 137.423284 
L 103.278324 135.560597 
L 104.129654 135.560597 
L 104.342486 135.417313 
L 104.980984 135.417313 
L 105.193816 135.27403 
L 105.406649 134.127761 
L 105.619481 133.841194 
L 105.832314 133.841194 
L 106.045146 133.124776 
L 106.257978 132.981493 
L 106.683643 131.835224 
L 106.896476 131.835224 
L 107.109308 131.69194 
L 107.322141 131.69194 
L 107.534973 131.405373 
L 110.72746 131.405373 
L 111.153125 129.256119 
L 112.004455 129.256119 
L 112.217287 128.396418 
L 112.642952 128.396418 
L 112.855785 128.109851 
L 113.707115 128.109851 
L 113.919947 127.966567 
L 114.771277 127.966567 
L 114.984109 127.823284 
L 117.112434 127.823284 
L 117.538099 127.536716 
L 117.750931 127.250149 
L 117.963764 126.247164 
L 118.176596 126.103881 
L 119.879256 126.103881 
L 120.092088 124.527761 
L 122.646078 124.527761 
L 123.497408 123.524776 
L 123.71024 122.235224 
L 123.923073 121.948657 
L 124.348738 121.948657 
L 124.56157 120.372537 
L 124.774402 120.372537 
L 124.987235 119.942687 
L 126.051397 119.942687 
L 126.26423 119.656119 
L 126.902727 119.656119 
L 127.115559 119.082985 
L 127.754057 119.082985 
L 127.966889 116.647164 
L 128.392554 116.647164 
L 128.605387 113.208358 
L 129.031052 113.208358 
L 129.669549 111.059104 
L 130.308046 111.059104 
L 130.520879 110.056119 
L 130.946544 110.056119 
L 131.159376 109.912836 
L 133.074868 109.912836 
L 133.287701 109.053134 
L 133.926198 109.053134 
L 134.139031 108.909851 
L 134.564696 108.909851 
L 134.777528 108.766567 
L 141.800999 108.766567 
L 142.013832 107.333731 
L 142.652329 107.333731 
L 142.865161 106.760597 
L 144.354989 106.760597 
L 144.567821 106.47403 
L 146.483313 106.47403 
L 146.696146 106.330746 
L 147.334643 106.330746 
L 147.547476 106.187463 
L 148.82447 106.187463 
L 149.037303 106.044179 
L 172.236041 106.044179 
L 172.448873 105.900896 
L 173.725868 105.900896 
L 173.938701 105.757612 
L 176.918355 105.757612 
L 177.131187 105.327761 
L 177.556852 105.327761 
L 177.769685 104.89791 
L 178.833847 104.89791 
L 179.04668 104.754627 
L 181.600669 104.754627 
L 181.813502 104.46806 
L 188.411308 104.46806 
L 188.62414 104.324776 
L 195.647611 104.324776 
L 195.860444 103.894925 
L 196.924606 103.894925 
L 197.137439 103.751642 
L 200.75559 103.751642 
L 200.968423 102.89194 
L 202.245418 102.89194 
L 202.45825 102.748657 
L 209.907386 102.748657 
L 210.120219 102.46209 
L 210.545884 102.46209 
L 210.758716 101.172537 
L 211.397213 101.172537 
L 211.610046 100.599403 
L 213.951203 100.599403 
L 214.164035 100.456119 
L 216.29236 100.456119 
L 216.505192 99.453134 
L 218.420685 99.453134 
L 218.633517 98.306866 
L 222.038836 98.306866 
L 222.251669 98.163582 
L 224.167161 98.163582 
L 224.379993 97.877015 
L 226.295486 97.877015 
L 226.508318 97.733731 
L 227.359648 97.733731 
L 227.57248 97.303881 
L 229.700805 97.303881 
L 229.913637 97.017313 
L 244.81191 97.017313 
L 245.024742 96.87403 
L 257.156192 96.87403 
L 257.369025 96.587463 
L 261.412841 96.587463 
L 261.625674 96.444179 
L 263.328334 96.444179 
L 263.541166 96.300896 
L 268.010648 96.300896 
L 268.22348 95.011343 
L 298.445689 95.011343 
L 298.658522 94.86806 
L 307.17182 94.86806 
L 307.384653 94.724776 
L 312.066967 94.724776 
L 312.279799 94.581493 
L 369.957396 94.581493 
L 370.170228 94.438209 
L 375.916705 94.438209 
L 375.916705 94.438209 
" clip-path="url(#p00321a5b93)" style="fill: none; stroke: #5784db; stroke-width: 1.2; stroke-linecap: round"/>
   </g>
   <g id="line2d_53">
    <path d="M 69.650795 488.682985 
L 70.07646 455.369552 
L 70.502125 436.169552 
L 70.92779 428.432239 
L 71.353455 426.282985 
L 71.77912 421.411343 
L 72.204785 418.832239 
L 72.417617 416.682985 
L 72.63045 412.384478 
L 73.056115 380.575522 
L 74.545942 264.229254 
L 75.184439 243.023284 
L 75.397272 232.706866 
L 75.822937 222.103881 
L 76.035769 211.930746 
L 76.248602 208.635224 
L 76.674267 197.602388 
L 76.887099 193.303881 
L 77.099932 191.871045 
L 77.312764 189.005373 
L 77.525596 188.002388 
L 77.738429 187.572537 
L 78.164094 182.271045 
L 78.376926 181.411343 
L 78.589759 179.405373 
L 79.015424 178.545672 
L 79.228256 176.539701 
L 79.653921 175.250149 
L 80.292418 174.390448 
L 80.930916 174.390448 
L 81.143748 168.802388 
L 81.356581 167.082985 
L 81.782246 165.793433 
L 81.995078 165.506866 
L 82.633575 163.214328 
L 82.846408 161.494925 
L 83.484905 160.635224 
L 83.697738 160.635224 
L 83.91057 160.49194 
L 84.123403 160.06209 
L 84.7619 160.06209 
L 84.974733 158.915821 
L 85.187565 158.915821 
L 85.400397 158.199403 
L 85.61323 158.056119 
L 85.826062 158.056119 
L 86.038895 157.626269 
L 86.251727 157.626269 
L 86.46456 156.766567 
L 86.890225 156.336716 
L 87.103057 156.193433 
L 87.31589 156.193433 
L 87.528722 155.477015 
L 87.741555 155.333731 
L 87.954387 154.47403 
L 88.592884 153.757612 
L 88.805717 153.614328 
L 89.231382 153.184478 
L 89.444214 153.184478 
L 89.869879 151.465075 
L 90.082712 151.178507 
L 90.295544 148.312836 
L 90.508376 148.026269 
L 90.721209 147.309851 
L 90.934041 147.023284 
L 91.572539 142.724776 
L 92.423869 141.148657 
L 92.636701 140.288955 
L 92.849534 140.145672 
L 93.062366 140.145672 
L 93.488031 139.429254 
L 93.700863 138.856119 
L 93.913696 138.712836 
L 94.339361 138.139701 
L 94.552193 137.566567 
L 94.765026 137.423284 
L 94.977858 137.136716 
L 95.403523 137.136716 
L 95.616356 136.993433 
L 95.829188 136.706866 
L 96.254853 136.706866 
L 96.89335 136.277015 
L 97.319015 136.277015 
L 97.531848 135.560597 
L 97.74468 135.417313 
L 97.957513 134.987463 
L 98.170345 134.844179 
L 98.59601 133.984478 
L 98.808842 133.554627 
L 101.788497 133.554627 
L 102.001329 133.411343 
L 102.426994 133.411343 
L 102.639827 132.981493 
L 103.065492 131.118806 
L 104.129654 131.118806 
L 104.342486 130.975522 
L 104.980984 130.975522 
L 105.193816 130.688955 
L 105.406649 129.68597 
L 106.045146 128.682985 
L 106.257978 127.966567 
L 106.896476 127.250149 
L 107.109308 127.250149 
L 107.534973 126.963582 
L 110.72746 126.963582 
L 111.153125 124.527761 
L 111.791622 124.527761 
L 112.004455 123.66806 
L 112.642952 123.66806 
L 113.068617 123.238209 
L 113.707115 123.238209 
L 113.919947 123.094925 
L 114.771277 123.094925 
L 114.984109 122.808358 
L 117.112434 122.808358 
L 117.325266 122.665075 
L 117.538099 122.665075 
L 118.176596 120.802388 
L 118.389429 120.659104 
L 118.815094 119.799403 
L 119.240758 119.799403 
L 119.453591 119.512836 
L 122.646078 119.512836 
L 123.284575 118.796418 
L 123.497408 117.363582 
L 123.71024 116.933731 
L 123.923073 116.07403 
L 124.56157 115.357612 
L 124.774402 115.357612 
L 124.987235 114.927761 
L 125.4129 114.927761 
L 125.838565 114.641194 
L 126.26423 114.641194 
L 126.477062 114.211343 
L 126.689895 114.06806 
L 127.115559 114.06806 
L 127.328392 113.924776 
L 127.754057 111.918806 
L 128.179722 109.053134 
L 129.031052 107.190448 
L 129.456717 105.757612 
L 129.669549 105.327761 
L 130.308046 104.89791 
L 130.946544 104.89791 
L 131.159376 104.754627 
L 132.436371 104.754627 
L 132.649203 104.611343 
L 132.862036 104.038209 
L 133.074868 103.894925 
L 133.500533 103.894925 
L 133.713366 103.751642 
L 134.351863 103.751642 
L 134.564696 103.608358 
L 140.311172 103.608358 
L 140.524004 103.465075 
L 140.949669 103.465075 
L 141.162502 103.178507 
L 141.375334 103.178507 
L 141.588167 102.175522 
L 141.800999 102.175522 
L 142.013832 102.032239 
L 142.439497 102.032239 
L 142.652329 101.459104 
L 143.503659 101.459104 
L 143.716491 101.315821 
L 144.142156 101.315821 
L 144.354989 101.172537 
L 146.483313 101.172537 
L 146.908978 100.88597 
L 148.611638 100.88597 
L 148.82447 100.742687 
L 162.232915 100.742687 
L 162.445748 100.599403 
L 172.023208 100.599403 
L 172.236041 100.456119 
L 173.087371 100.456119 
L 173.300203 100.312836 
L 176.279858 100.312836 
L 176.705523 99.882985 
L 177.131187 99.882985 
L 177.34402 99.739701 
L 177.556852 99.453134 
L 181.175004 99.453134 
L 181.387837 99.309851 
L 188.198475 99.309851 
L 188.411308 99.166567 
L 194.583449 99.166567 
L 194.796282 99.023284 
L 195.434779 99.023284 
L 195.860444 98.736716 
L 196.711774 98.736716 
L 196.924606 98.593433 
L 200.117093 98.593433 
L 200.329926 98.450149 
L 200.542758 97.733731 
L 201.394088 97.733731 
L 201.60692 97.590448 
L 209.694554 97.590448 
L 210.545884 96.587463 
L 210.758716 95.871045 
L 210.971549 95.871045 
L 211.184381 95.584478 
L 211.397213 95.584478 
L 211.610046 95.441194 
L 212.674208 95.441194 
L 212.887041 95.29791 
L 213.951203 95.29791 
L 214.376868 95.011343 
L 215.015365 95.011343 
L 215.866695 94.438209 
L 216.079528 94.438209 
L 216.505192 94.151642 
L 216.718025 93.578507 
L 216.930857 93.578507 
L 217.356522 93.148657 
L 221.187507 93.148657 
L 221.400339 93.005373 
L 223.954329 93.005373 
L 224.167161 92.86209 
L 224.379993 92.575522 
L 226.933983 92.575522 
L 227.146815 92.288955 
L 229.700805 92.288955 
L 229.913637 92.002388 
L 244.81191 92.002388 
L 245.024742 91.859104 
L 256.94336 91.859104 
L 257.369025 91.572537 
L 261.200009 91.572537 
L 261.412841 91.142687 
L 266.733653 91.142687 
L 266.946485 90.999403 
L 267.37215 89.996418 
L 267.584983 89.853134 
L 296.530197 89.853134 
L 296.74303 89.709851 
L 305.256328 89.709851 
L 305.46916 89.566567 
L 311.002804 89.566567 
L 311.215637 89.423284 
L 369.531731 89.423284 
L 369.744563 89.28 
L 375.916705 89.28 
L 375.916705 89.28 
" clip-path="url(#p00321a5b93)" style="fill: none; stroke: #c957db; stroke-width: 1.2; stroke-linecap: round"/>
   </g>
   <g id="line2d_54"/>
   <g id="line2d_55"/>
   <g id="line2d_56"/>
   <g id="line2d_57"/>
   <g id="line2d_58"/>
   <g id="patch_3">
    <path d="M 54.3375 512.64 
L 54.3375 69.12 
" style="fill: none; stroke: #cccccc; stroke-linejoin: miter; stroke-linecap: square"/>
   </g>
   <g id="patch_4">
    <path d="M 54.3375 512.64 
L 391.23 512.64 
" style="fill: none; stroke: #cccccc; stroke-linejoin: miter; stroke-linecap: square"/>
   </g>
   <g id="text_51">
    <!-- Edge Coverage History -->
    <g style="fill: #262626" transform="translate(115.892262 63.12)scale(0.165888 -0.165888)">
     <defs>
      <path id="DejaVuSans-Bold-45" d="M 588 4666 
L 3834 4666 
L 3834 3756 
L 1791 3756 
L 1791 2888 
L 3713 2888 
L 3713 1978 
L 1791 1978 
L 1791 909 
L 3903 909 
L 3903 0 
L 588 0 
L 588 4666 
z
" transform="scale(0.015625)"/>
      <path id="DejaVuSans-Bold-64" d="M 2919 2988 
L 2919 4863 
L 4044 4863 
L 4044 0 
L 2919 0 
L 2919 506 
Q 2688 197 2409 53 
Q 2131 -91 1766 -91 
Q 1119 -91 703 423 
Q 288 938 288 1747 
Q 288 2556 703 3070 
Q 1119 3584 1766 3584 
Q 2128 3584 2408 3439 
Q 2688 3294 2919 2988 
z
M 2181 722 
Q 2541 722 2730 984 
Q 2919 1247 2919 1747 
Q 2919 2247 2730 2509 
Q 2541 2772 2181 2772 
Q 1825 2772 1636 2509 
Q 1447 2247 1447 1747 
Q 1447 1247 1636 984 
Q 1825 722 2181 722 
z
" transform="scale(0.015625)"/>
      <path id="DejaVuSans-Bold-67" d="M 2919 594 
Q 2688 288 2409 144 
Q 2131 0 1766 0 
Q 1125 0 706 504 
Q 288 1009 288 1791 
Q 288 2575 706 3076 
Q 1125 3578 1766 3578 
Q 2131 3578 2409 3434 
Q 2688 3291 2919 2981 
L 2919 3500 
L 4044 3500 
L 4044 353 
Q 4044 -491 3511 -936 
Q 2978 -1381 1966 -1381 
Q 1638 -1381 1331 -1331 
Q 1025 -1281 716 -1178 
L 716 -306 
Q 1009 -475 1290 -558 
Q 1572 -641 1856 -641 
Q 2406 -641 2662 -400 
Q 2919 -159 2919 353 
L 2919 594 
z
M 2181 2772 
Q 1834 2772 1640 2515 
Q 1447 2259 1447 1791 
Q 1447 1309 1634 1061 
Q 1822 813 2181 813 
Q 2531 813 2725 1069 
Q 2919 1325 2919 1791 
Q 2919 2259 2725 2515 
Q 2531 2772 2181 2772 
z
" transform="scale(0.015625)"/>
      <path id="DejaVuSans-Bold-65" d="M 4031 1759 
L 4031 1441 
L 1416 1441 
Q 1456 1047 1700 850 
Q 1944 653 2381 653 
Q 2734 653 3104 758 
Q 3475 863 3866 1075 
L 3866 213 
Q 3469 63 3072 -14 
Q 2675 -91 2278 -91 
Q 1328 -91 801 392 
Q 275 875 275 1747 
Q 275 2603 792 3093 
Q 1309 3584 2216 3584 
Q 3041 3584 3536 3087 
Q 4031 2591 4031 1759 
z
M 2881 2131 
Q 2881 2450 2695 2645 
Q 2509 2841 2209 2841 
Q 1884 2841 1681 2658 
Q 1478 2475 1428 2131 
L 2881 2131 
z
" transform="scale(0.015625)"/>
      <path id="DejaVuSans-Bold-20" transform="scale(0.015625)"/>
      <path id="DejaVuSans-Bold-43" d="M 4288 256 
Q 3956 84 3597 -3 
Q 3238 -91 2847 -91 
Q 1681 -91 1000 561 
Q 319 1213 319 2328 
Q 319 3447 1000 4098 
Q 1681 4750 2847 4750 
Q 3238 4750 3597 4662 
Q 3956 4575 4288 4403 
L 4288 3438 
Q 3953 3666 3628 3772 
Q 3303 3878 2944 3878 
Q 2300 3878 1931 3465 
Q 1563 3053 1563 2328 
Q 1563 1606 1931 1193 
Q 2300 781 2944 781 
Q 3303 781 3628 887 
Q 3953 994 4288 1222 
L 4288 256 
z
" transform="scale(0.015625)"/>
      <path id="DejaVuSans-Bold-6f" d="M 2203 2784 
Q 1831 2784 1636 2517 
Q 1441 2250 1441 1747 
Q 1441 1244 1636 976 
Q 1831 709 2203 709 
Q 2569 709 2762 976 
Q 2956 1244 2956 1747 
Q 2956 2250 2762 2517 
Q 2569 2784 2203 2784 
z
M 2203 3584 
Q 3106 3584 3614 3096 
Q 4122 2609 4122 1747 
Q 4122 884 3614 396 
Q 3106 -91 2203 -91 
Q 1297 -91 786 396 
Q 275 884 275 1747 
Q 275 2609 786 3096 
Q 1297 3584 2203 3584 
z
" transform="scale(0.015625)"/>
      <path id="DejaVuSans-Bold-76" d="M 97 3500 
L 1216 3500 
L 2088 1081 
L 2956 3500 
L 4078 3500 
L 2700 0 
L 1472 0 
L 97 3500 
z
" transform="scale(0.015625)"/>
      <path id="DejaVuSans-Bold-72" d="M 3138 2547 
Q 2991 2616 2845 2648 
Q 2700 2681 2553 2681 
Q 2122 2681 1889 2404 
Q 1656 2128 1656 1613 
L 1656 0 
L 538 0 
L 538 3500 
L 1656 3500 
L 1656 2925 
Q 1872 3269 2151 3426 
Q 2431 3584 2822 3584 
Q 2878 3584 2943 3579 
Q 3009 3575 3134 3559 
L 3138 2547 
z
" transform="scale(0.015625)"/>
      <path id="DejaVuSans-Bold-61" d="M 2106 1575 
Q 1756 1575 1579 1456 
Q 1403 1338 1403 1106 
Q 1403 894 1545 773 
Q 1688 653 1941 653 
Q 2256 653 2472 879 
Q 2688 1106 2688 1447 
L 2688 1575 
L 2106 1575 
z
M 3816 1997 
L 3816 0 
L 2688 0 
L 2688 519 
Q 2463 200 2181 54 
Q 1900 -91 1497 -91 
Q 953 -91 614 226 
Q 275 544 275 1050 
Q 275 1666 698 1953 
Q 1122 2241 2028 2241 
L 2688 2241 
L 2688 2328 
Q 2688 2594 2478 2717 
Q 2269 2841 1825 2841 
Q 1466 2841 1156 2769 
Q 847 2697 581 2553 
L 581 3406 
Q 941 3494 1303 3539 
Q 1666 3584 2028 3584 
Q 2975 3584 3395 3211 
Q 3816 2838 3816 1997 
z
" transform="scale(0.015625)"/>
      <path id="DejaVuSans-Bold-48" d="M 588 4666 
L 1791 4666 
L 1791 2888 
L 3566 2888 
L 3566 4666 
L 4769 4666 
L 4769 0 
L 3566 0 
L 3566 1978 
L 1791 1978 
L 1791 0 
L 588 0 
L 588 4666 
z
" transform="scale(0.015625)"/>
      <path id="DejaVuSans-Bold-69" d="M 538 3500 
L 1656 3500 
L 1656 0 
L 538 0 
L 538 3500 
z
M 538 4863 
L 1656 4863 
L 1656 3950 
L 538 3950 
L 538 4863 
z
" transform="scale(0.015625)"/>
      <path id="DejaVuSans-Bold-73" d="M 3272 3391 
L 3272 2541 
Q 2913 2691 2578 2766 
Q 2244 2841 1947 2841 
Q 1628 2841 1473 2761 
Q 1319 2681 1319 2516 
Q 1319 2381 1436 2309 
Q 1553 2238 1856 2203 
L 2053 2175 
Q 2913 2066 3209 1816 
Q 3506 1566 3506 1031 
Q 3506 472 3093 190 
Q 2681 -91 1863 -91 
Q 1516 -91 1145 -36 
Q 775 19 384 128 
L 384 978 
Q 719 816 1070 734 
Q 1422 653 1784 653 
Q 2113 653 2278 743 
Q 2444 834 2444 1013 
Q 2444 1163 2330 1236 
Q 2216 1309 1875 1350 
L 1678 1375 
Q 931 1469 631 1722 
Q 331 1975 331 2491 
Q 331 3047 712 3315 
Q 1094 3584 1881 3584 
Q 2191 3584 2531 3537 
Q 2872 3491 3272 3391 
z
" transform="scale(0.015625)"/>
      <path id="DejaVuSans-Bold-74" d="M 1759 4494 
L 1759 3500 
L 2913 3500 
L 2913 2700 
L 1759 2700 
L 1759 1216 
Q 1759 972 1856 886 
Q 1953 800 2241 800 
L 2816 800 
L 2816 0 
L 1856 0 
Q 1194 0 917 276 
Q 641 553 641 1216 
L 641 2700 
L 84 2700 
L 84 3500 
L 641 3500 
L 641 4494 
L 1759 4494 
z
" transform="scale(0.015625)"/>
      <path id="DejaVuSans-Bold-79" d="M 78 3500 
L 1197 3500 
L 2138 1125 
L 2938 3500 
L 4056 3500 
L 2584 -331 
Q 2363 -916 2067 -1148 
Q 1772 -1381 1288 -1381 
L 641 -1381 
L 641 -647 
L 991 -647 
Q 1275 -647 1404 -556 
Q 1534 -466 1606 -231 
L 1638 -134 
L 78 3500 
z
" transform="scale(0.015625)"/>
     </defs>
     <use xlink:href="#DejaVuSans-Bold-45"/>
     <use xlink:href="#DejaVuSans-Bold-64" x="68.310547"/>
     <use xlink:href="#DejaVuSans-Bold-67" x="139.892578"/>
     <use xlink:href="#DejaVuSans-Bold-65" x="211.474609"/>
     <use xlink:href="#DejaVuSans-Bold-20" x="279.296875"/>
     <use xlink:href="#DejaVuSans-Bold-43" x="314.111328"/>
     <use xlink:href="#DejaVuSans-Bold-6f" x="387.5"/>
     <use xlink:href="#DejaVuSans-Bold-76" x="456.201172"/>
     <use xlink:href="#DejaVuSans-Bold-65" x="521.386719"/>
     <use xlink:href="#DejaVuSans-Bold-72" x="589.208984"/>
     <use xlink:href="#DejaVuSans-Bold-61" x="638.525391"/>
     <use xlink:href="#DejaVuSans-Bold-67" x="706.005859"/>
     <use xlink:href="#DejaVuSans-Bold-65" x="777.587891"/>
     <use xlink:href="#DejaVuSans-Bold-20" x="845.410156"/>
     <use xlink:href="#DejaVuSans-Bold-48" x="880.224609"/>
     <use xlink:href="#DejaVuSans-Bold-69" x="963.916016"/>
     <use xlink:href="#DejaVuSans-Bold-73" x="998.193359"/>
     <use xlink:href="#DejaVuSans-Bold-74" x="1057.714844"/>
     <use xlink:href="#DejaVuSans-Bold-6f" x="1105.517578"/>
     <use xlink:href="#DejaVuSans-Bold-72" x="1174.21875"/>
     <use xlink:href="#DejaVuSans-Bold-79" x="1223.535156"/>
    </g>
   </g>
   <g id="legend_1">
    <g id="patch_5">
     <path d="M 273.541 508.24 
L 385.07 508.24 
Q 386.83 508.24 386.83 506.48 
L 386.83 428.8405 
Q 386.83 427.0805 385.07 427.0805 
L 273.541 427.0805 
Q 271.781 427.0805 271.781 428.8405 
L 271.781 506.48 
Q 271.781 508.24 273.541 508.24 
z
" style="fill: #ffffff; opacity: 0.8; stroke: #cccccc; stroke-width: 0.8; stroke-linejoin: miter"/>
    </g>
    <g id="text_52">
     <!-- fuzzer -->
     <g style="fill: #262626" transform="translate(314.6085 437.895)scale(0.096 -0.096)">
      <defs>
       <path id="DejaVuSans-66" d="M 2375 4863 
L 2375 4384 
L 1825 4384 
Q 1516 4384 1395 4259 
Q 1275 4134 1275 3809 
L 1275 3500 
L 2222 3500 
L 2222 3053 
L 1275 3053 
L 1275 0 
L 697 0 
L 697 3053 
L 147 3053 
L 147 3500 
L 697 3500 
L 697 3744 
Q 697 4328 969 4595 
Q 1241 4863 1831 4863 
L 2375 4863 
z
" transform="scale(0.015625)"/>
       <path id="DejaVuSans-7a" d="M 353 3500 
L 3084 3500 
L 3084 2975 
L 922 459 
L 3084 459 
L 3084 0 
L 275 0 
L 275 525 
L 2438 3041 
L 353 3041 
L 353 3500 
z
" transform="scale(0.015625)"/>
      </defs>
      <use xlink:href="#DejaVuSans-66"/>
      <use xlink:href="#DejaVuSans-75" x="35.205078"/>
      <use xlink:href="#DejaVuSans-7a" x="98.583984"/>
      <use xlink:href="#DejaVuSans-7a" x="151.074219"/>
      <use xlink:href="#DejaVuSans-65" x="203.564453"/>
      <use xlink:href="#DejaVuSans-72" x="265.087891"/>
     </g>
    </g>
    <g id="line2d_59">
     <path d="M 275.301 447.898125 
L 284.101 447.898125 
L 292.901 447.898125 
" style="fill: none; stroke: #db5f57; stroke-width: 1.2; stroke-linecap: round"/>
    </g>
    <g id="text_53">
     <!-- mopt-0-exid4 -->
     <g style="fill: #262626" transform="translate(299.941 450.978125)scale(0.088 -0.088)">
      <defs>
       <path id="DejaVuSans-70" d="M 1159 525 
L 1159 -1331 
L 581 -1331 
L 581 3500 
L 1159 3500 
L 1159 2969 
Q 1341 3281 1617 3432 
Q 1894 3584 2278 3584 
Q 2916 3584 3314 3078 
Q 3713 2572 3713 1747 
Q 3713 922 3314 415 
Q 2916 -91 2278 -91 
Q 1894 -91 1617 61 
Q 1341 213 1159 525 
z
M 3116 1747 
Q 3116 2381 2855 2742 
Q 2594 3103 2138 3103 
Q 1681 3103 1420 2742 
Q 1159 2381 1159 1747 
Q 1159 1113 1420 752 
Q 1681 391 2138 391 
Q 2594 391 2855 752 
Q 3116 1113 3116 1747 
z
" transform="scale(0.015625)"/>
       <path id="DejaVuSans-2d" d="M 313 2009 
L 1997 2009 
L 1997 1497 
L 313 1497 
L 313 2009 
z
" transform="scale(0.015625)"/>
       <path id="DejaVuSans-78" d="M 3513 3500 
L 2247 1797 
L 3578 0 
L 2900 0 
L 1881 1375 
L 863 0 
L 184 0 
L 1544 1831 
L 300 3500 
L 978 3500 
L 1906 2253 
L 2834 3500 
L 3513 3500 
z
" transform="scale(0.015625)"/>
      </defs>
      <use xlink:href="#DejaVuSans-6d"/>
      <use xlink:href="#DejaVuSans-6f" x="97.412109"/>
      <use xlink:href="#DejaVuSans-70" x="158.59375"/>
      <use xlink:href="#DejaVuSans-74" x="222.070312"/>
      <use xlink:href="#DejaVuSans-2d" x="261.279297"/>
      <use xlink:href="#DejaVuSans-30" x="297.363281"/>
      <use xlink:href="#DejaVuSans-2d" x="360.986328"/>
      <use xlink:href="#DejaVuSans-65" x="397.070312"/>
      <use xlink:href="#DejaVuSans-78" x="456.84375"/>
      <use xlink:href="#DejaVuSans-69" x="516.023438"/>
      <use xlink:href="#DejaVuSans-64" x="543.806641"/>
      <use xlink:href="#DejaVuSans-34" x="607.283203"/>
     </g>
    </g>
    <g id="line2d_60">
     <path d="M 275.301 460.814875 
L 284.101 460.814875 
L 292.901 460.814875 
" style="fill: none; stroke: #b9db57; stroke-width: 1.2; stroke-linecap: round"/>
    </g>
    <g id="text_54">
     <!-- fairfuzz-0-exid4 -->
     <g style="fill: #262626" transform="translate(299.941 463.894875)scale(0.088 -0.088)">
      <use xlink:href="#DejaVuSans-66"/>
      <use xlink:href="#DejaVuSans-61" x="35.205078"/>
      <use xlink:href="#DejaVuSans-69" x="96.484375"/>
      <use xlink:href="#DejaVuSans-72" x="124.267578"/>
      <use xlink:href="#DejaVuSans-66" x="165.380859"/>
      <use xlink:href="#DejaVuSans-75" x="200.585938"/>
      <use xlink:href="#DejaVuSans-7a" x="263.964844"/>
      <use xlink:href="#DejaVuSans-7a" x="316.455078"/>
      <use xlink:href="#DejaVuSans-2d" x="368.945312"/>
      <use xlink:href="#DejaVuSans-30" x="405.029297"/>
      <use xlink:href="#DejaVuSans-2d" x="468.652344"/>
      <use xlink:href="#DejaVuSans-65" x="504.736328"/>
      <use xlink:href="#DejaVuSans-78" x="564.509766"/>
      <use xlink:href="#DejaVuSans-69" x="623.689453"/>
      <use xlink:href="#DejaVuSans-64" x="651.472656"/>
      <use xlink:href="#DejaVuSans-34" x="714.949219"/>
     </g>
    </g>
    <g id="line2d_61">
     <path d="M 275.301 473.731625 
L 284.101 473.731625 
L 292.901 473.731625 
" style="fill: none; stroke: #57db94; stroke-width: 1.2; stroke-linecap: round"/>
    </g>
    <g id="text_55">
     <!-- symcc-0-exid4 -->
     <g style="fill: #262626" transform="translate(299.941 476.811625)scale(0.088 -0.088)">
      <defs>
       <path id="DejaVuSans-79" d="M 2059 -325 
Q 1816 -950 1584 -1140 
Q 1353 -1331 966 -1331 
L 506 -1331 
L 506 -850 
L 844 -850 
Q 1081 -850 1212 -737 
Q 1344 -625 1503 -206 
L 1606 56 
L 191 3500 
L 800 3500 
L 1894 763 
L 2988 3500 
L 3597 3500 
L 2059 -325 
z
" transform="scale(0.015625)"/>
       <path id="DejaVuSans-63" d="M 3122 3366 
L 3122 2828 
Q 2878 2963 2633 3030 
Q 2388 3097 2138 3097 
Q 1578 3097 1268 2742 
Q 959 2388 959 1747 
Q 959 1106 1268 751 
Q 1578 397 2138 397 
Q 2388 397 2633 464 
Q 2878 531 3122 666 
L 3122 134 
Q 2881 22 2623 -34 
Q 2366 -91 2075 -91 
Q 1284 -91 818 406 
Q 353 903 353 1747 
Q 353 2603 823 3093 
Q 1294 3584 2113 3584 
Q 2378 3584 2631 3529 
Q 2884 3475 3122 3366 
z
" transform="scale(0.015625)"/>
      </defs>
      <use xlink:href="#DejaVuSans-73"/>
      <use xlink:href="#DejaVuSans-79" x="52.099609"/>
      <use xlink:href="#DejaVuSans-6d" x="111.279297"/>
      <use xlink:href="#DejaVuSans-63" x="208.691406"/>
      <use xlink:href="#DejaVuSans-63" x="263.671875"/>
      <use xlink:href="#DejaVuSans-2d" x="318.652344"/>
      <use xlink:href="#DejaVuSans-30" x="354.736328"/>
      <use xlink:href="#DejaVuSans-2d" x="418.359375"/>
      <use xlink:href="#DejaVuSans-65" x="454.443359"/>
      <use xlink:href="#DejaVuSans-78" x="514.216797"/>
      <use xlink:href="#DejaVuSans-69" x="573.396484"/>
      <use xlink:href="#DejaVuSans-64" x="601.179688"/>
      <use xlink:href="#DejaVuSans-34" x="664.65625"/>
     </g>
    </g>
    <g id="line2d_62">
     <path d="M 275.301 486.648375 
L 284.101 486.648375 
L 292.901 486.648375 
" style="fill: none; stroke: #5784db; stroke-width: 1.2; stroke-linecap: round"/>
    </g>
    <g id="text_56">
     <!-- aflplusplus-0-exid4 -->
     <g style="fill: #262626" transform="translate(299.941 489.728375)scale(0.088 -0.088)">
      <defs>
       <path id="DejaVuSans-6c" d="M 603 4863 
L 1178 4863 
L 1178 0 
L 603 0 
L 603 4863 
z
" transform="scale(0.015625)"/>
      </defs>
      <use xlink:href="#DejaVuSans-61"/>
      <use xlink:href="#DejaVuSans-66" x="61.279297"/>
      <use xlink:href="#DejaVuSans-6c" x="96.484375"/>
      <use xlink:href="#DejaVuSans-70" x="124.267578"/>
      <use xlink:href="#DejaVuSans-6c" x="187.744141"/>
      <use xlink:href="#DejaVuSans-75" x="215.527344"/>
      <use xlink:href="#DejaVuSans-73" x="278.90625"/>
      <use xlink:href="#DejaVuSans-70" x="331.005859"/>
      <use xlink:href="#DejaVuSans-6c" x="394.482422"/>
      <use xlink:href="#DejaVuSans-75" x="422.265625"/>
      <use xlink:href="#DejaVuSans-73" x="485.644531"/>
      <use xlink:href="#DejaVuSans-2d" x="537.744141"/>
      <use xlink:href="#DejaVuSans-30" x="573.828125"/>
      <use xlink:href="#DejaVuSans-2d" x="637.451172"/>
      <use xlink:href="#DejaVuSans-65" x="673.535156"/>
      <use xlink:href="#DejaVuSans-78" x="733.308594"/>
      <use xlink:href="#DejaVuSans-69" x="792.488281"/>
      <use xlink:href="#DejaVuSans-64" x="820.271484"/>
      <use xlink:href="#DejaVuSans-34" x="883.748047"/>
     </g>
    </g>
    <g id="line2d_63">
     <path d="M 275.301 499.565125 
L 284.101 499.565125 
L 292.901 499.565125 
" style="fill: none; stroke: #c957db; stroke-width: 1.2; stroke-linecap: round"/>
    </g>
    <g id="text_57">
     <!-- fuzzer_global -->
     <g style="fill: #262626" transform="translate(299.941 502.645125)scale(0.088 -0.088)">
      <defs>
       <path id="DejaVuSans-5f" d="M 3263 -1063 
L 3263 -1509 
L -63 -1509 
L -63 -1063 
L 3263 -1063 
z
" transform="scale(0.015625)"/>
       <path id="DejaVuSans-62" d="M 3116 1747 
Q 3116 2381 2855 2742 
Q 2594 3103 2138 3103 
Q 1681 3103 1420 2742 
Q 1159 2381 1159 1747 
Q 1159 1113 1420 752 
Q 1681 391 2138 391 
Q 2594 391 2855 752 
Q 3116 1113 3116 1747 
z
M 1159 2969 
Q 1341 3281 1617 3432 
Q 1894 3584 2278 3584 
Q 2916 3584 3314 3078 
Q 3713 2572 3713 1747 
Q 3713 922 3314 415 
Q 2916 -91 2278 -91 
Q 1894 -91 1617 61 
Q 1341 213 1159 525 
L 1159 0 
L 581 0 
L 581 4863 
L 1159 4863 
L 1159 2969 
z
" transform="scale(0.015625)"/>
      </defs>
      <use xlink:href="#DejaVuSans-66"/>
      <use xlink:href="#DejaVuSans-75" x="35.205078"/>
      <use xlink:href="#DejaVuSans-7a" x="98.583984"/>
      <use xlink:href="#DejaVuSans-7a" x="151.074219"/>
      <use xlink:href="#DejaVuSans-65" x="203.564453"/>
      <use xlink:href="#DejaVuSans-72" x="265.087891"/>
      <use xlink:href="#DejaVuSans-5f" x="306.201172"/>
      <use xlink:href="#DejaVuSans-67" x="356.201172"/>
      <use xlink:href="#DejaVuSans-6c" x="419.677734"/>
      <use xlink:href="#DejaVuSans-6f" x="447.460938"/>
      <use xlink:href="#DejaVuSans-62" x="508.642578"/>
      <use xlink:href="#DejaVuSans-61" x="572.119141"/>
      <use xlink:href="#DejaVuSans-6c" x="633.398438"/>
     </g>
    </g>
   </g>
  </g>
 </g>
 <defs>
  <clipPath id="p00321a5b93">
   <rect x="54.3375" y="69.12" width="336.8925" height="443.52"/>
  </clipPath>
 </defs>
</svg>
