<?xml version="1.0" encoding="utf-8" standalone="no"?>
<!DOCTYPE svg PUBLIC "-//W3C//DTD SVG 1.1//EN"
  "http://www.w3.org/Graphics/SVG/1.1/DTD/svg11.dtd">
<svg xmlns:xlink="http://www.w3.org/1999/xlink" width="434.7pt" height="576pt" viewBox="0 0 434.7 576" xmlns="http://www.w3.org/2000/svg" version="1.1">
 <metadata>
  <rdf:RDF xmlns:dc="http://purl.org/dc/elements/1.1/" xmlns:cc="http://creativecommons.org/ns#" xmlns:rdf="http://www.w3.org/1999/02/22-rdf-syntax-ns#">
   <cc:Work>
    <dc:type rdf:resource="http://purl.org/dc/dcmitype/StillImage"/>
    <dc:date>2022-09-15T11:07:16.048328</dc:date>
    <dc:format>image/svg+xml</dc:format>
    <dc:creator>
     <cc:Agent>
      <dc:title>Matplotlib v3.5.3, https://matplotlib.org/</dc:title>
     </cc:Agent>
    </dc:creator>
   </cc:Work>
  </rdf:RDF>
 </metadata>
 <defs>
  <style type="text/css">*{stroke-linejoin: round; stroke-linecap: butt}</style>
 </defs>
 <g id="figure_1">
  <g id="patch_1">
   <path d="M 0 576 
L 434.7 576 
L 434.7 0 
L 0 0 
z
" style="fill: #ffffff"/>
  </g>
  <g id="axes_1">
   <g id="patch_2">
    <path d="M 54.3375 512.64 
L 391.23 512.64 
L 391.23 69.12 
L 54.3375 69.12 
z
" style="fill: #ffffff"/>
   </g>
   <g id="matplotlib.axis_1">
    <g id="xtick_1">
     <g id="line2d_1">
      <path d="M 69.650795 512.64 
L 69.650795 69.12 
" clip-path="url(#pab9f6ba467)" style="fill: none; stroke: #cccccc; stroke-width: 0.8; stroke-linecap: round"/>
     </g>
     <g id="text_1">
      <!-- 0 -->
      <g style="fill: #262626" transform="translate(69.388282 529.627249)rotate(-45)scale(0.088 -0.088)">
       <defs>
        <path id="DejaVuSans-30" d="M 2034 4250 
Q 1547 4250 1301 3770 
Q 1056 3291 1056 2328 
Q 1056 1369 1301 889 
Q 1547 409 2034 409 
Q 2525 409 2770 889 
Q 3016 1369 3016 2328 
Q 3016 3291 2770 3770 
Q 2525 4250 2034 4250 
z
M 2034 4750 
Q 2819 4750 3233 4129 
Q 3647 3509 3647 2328 
Q 3647 1150 3233 529 
Q 2819 -91 2034 -91 
Q 1250 -91 836 529 
Q 422 1150 422 2328 
Q 422 3509 836 4129 
Q 1250 4750 2034 4750 
z
" transform="scale(0.015625)"/>
       </defs>
       <use xlink:href="#DejaVuSans-30"/>
      </g>
     </g>
    </g>
    <g id="xtick_2">
     <g id="line2d_2">
      <path d="M 86.677392 512.64 
L 86.677392 69.12 
" clip-path="url(#pab9f6ba467)" style="fill: none; stroke: #cccccc; stroke-width: 0.8; stroke-linecap: round"/>
     </g>
     <g id="text_2">
      <!-- 80 -->
      <g style="fill: #262626" transform="translate(84.435333 533.58634)rotate(-45)scale(0.088 -0.088)">
       <defs>
        <path id="DejaVuSans-38" d="M 2034 2216 
Q 1584 2216 1326 1975 
Q 1069 1734 1069 1313 
Q 1069 891 1326 650 
Q 1584 409 2034 409 
Q 2484 409 2743 651 
Q 3003 894 3003 1313 
Q 3003 1734 2745 1975 
Q 2488 2216 2034 2216 
z
M 1403 2484 
Q 997 2584 770 2862 
Q 544 3141 544 3541 
Q 544 4100 942 4425 
Q 1341 4750 2034 4750 
Q 2731 4750 3128 4425 
Q 3525 4100 3525 3541 
Q 3525 3141 3298 2862 
Q 3072 2584 2669 2484 
Q 3125 2378 3379 2068 
Q 3634 1759 3634 1313 
Q 3634 634 3220 271 
Q 2806 -91 2034 -91 
Q 1263 -91 848 271 
Q 434 634 434 1313 
Q 434 1759 690 2068 
Q 947 2378 1403 2484 
z
M 1172 3481 
Q 1172 3119 1398 2916 
Q 1625 2713 2034 2713 
Q 2441 2713 2670 2916 
Q 2900 3119 2900 3481 
Q 2900 3844 2670 4047 
Q 2441 4250 2034 4250 
Q 1625 4250 1398 4047 
Q 1172 3844 1172 3481 
z
" transform="scale(0.015625)"/>
       </defs>
       <use xlink:href="#DejaVuSans-38"/>
       <use xlink:href="#DejaVuSans-30" x="63.623047"/>
      </g>
     </g>
    </g>
    <g id="xtick_3">
     <g id="line2d_3">
      <path d="M 103.703989 512.64 
L 103.703989 69.12 
" clip-path="url(#pab9f6ba467)" style="fill: none; stroke: #cccccc; stroke-width: 0.8; stroke-linecap: round"/>
     </g>
     <g id="text_3">
      <!-- 160 -->
      <g style="fill: #262626" transform="translate(99.482385 537.54543)rotate(-45)scale(0.088 -0.088)">
       <defs>
        <path id="DejaVuSans-31" d="M 794 531 
L 1825 531 
L 1825 4091 
L 703 3866 
L 703 4441 
L 1819 4666 
L 2450 4666 
L 2450 531 
L 3481 531 
L 3481 0 
L 794 0 
L 794 531 
z
" transform="scale(0.015625)"/>
        <path id="DejaVuSans-36" d="M 2113 2584 
Q 1688 2584 1439 2293 
Q 1191 2003 1191 1497 
Q 1191 994 1439 701 
Q 1688 409 2113 409 
Q 2538 409 2786 701 
Q 3034 994 3034 1497 
Q 3034 2003 2786 2293 
Q 2538 2584 2113 2584 
z
M 3366 4563 
L 3366 3988 
Q 3128 4100 2886 4159 
Q 2644 4219 2406 4219 
Q 1781 4219 1451 3797 
Q 1122 3375 1075 2522 
Q 1259 2794 1537 2939 
Q 1816 3084 2150 3084 
Q 2853 3084 3261 2657 
Q 3669 2231 3669 1497 
Q 3669 778 3244 343 
Q 2819 -91 2113 -91 
Q 1303 -91 875 529 
Q 447 1150 447 2328 
Q 447 3434 972 4092 
Q 1497 4750 2381 4750 
Q 2619 4750 2861 4703 
Q 3103 4656 3366 4563 
z
" transform="scale(0.015625)"/>
       </defs>
       <use xlink:href="#DejaVuSans-31"/>
       <use xlink:href="#DejaVuSans-36" x="63.623047"/>
       <use xlink:href="#DejaVuSans-30" x="127.246094"/>
      </g>
     </g>
    </g>
    <g id="xtick_4">
     <g id="line2d_4">
      <path d="M 120.730586 512.64 
L 120.730586 69.12 
" clip-path="url(#pab9f6ba467)" style="fill: none; stroke: #cccccc; stroke-width: 0.8; stroke-linecap: round"/>
     </g>
     <g id="text_4">
      <!-- 240 -->
      <g style="fill: #262626" transform="translate(116.508981 537.54543)rotate(-45)scale(0.088 -0.088)">
       <defs>
        <path id="DejaVuSans-32" d="M 1228 531 
L 3431 531 
L 3431 0 
L 469 0 
L 469 531 
Q 828 903 1448 1529 
Q 2069 2156 2228 2338 
Q 2531 2678 2651 2914 
Q 2772 3150 2772 3378 
Q 2772 3750 2511 3984 
Q 2250 4219 1831 4219 
Q 1534 4219 1204 4116 
Q 875 4013 500 3803 
L 500 4441 
Q 881 4594 1212 4672 
Q 1544 4750 1819 4750 
Q 2544 4750 2975 4387 
Q 3406 4025 3406 3419 
Q 3406 3131 3298 2873 
Q 3191 2616 2906 2266 
Q 2828 2175 2409 1742 
Q 1991 1309 1228 531 
z
" transform="scale(0.015625)"/>
        <path id="DejaVuSans-34" d="M 2419 4116 
L 825 1625 
L 2419 1625 
L 2419 4116 
z
M 2253 4666 
L 3047 4666 
L 3047 1625 
L 3713 1625 
L 3713 1100 
L 3047 1100 
L 3047 0 
L 2419 0 
L 2419 1100 
L 313 1100 
L 313 1709 
L 2253 4666 
z
" transform="scale(0.015625)"/>
       </defs>
       <use xlink:href="#DejaVuSans-32"/>
       <use xlink:href="#DejaVuSans-34" x="63.623047"/>
       <use xlink:href="#DejaVuSans-30" x="127.246094"/>
      </g>
     </g>
    </g>
    <g id="xtick_5">
     <g id="line2d_5">
      <path d="M 137.757182 512.64 
L 137.757182 69.12 
" clip-path="url(#pab9f6ba467)" style="fill: none; stroke: #cccccc; stroke-width: 0.8; stroke-linecap: round"/>
     </g>
     <g id="text_5">
      <!-- 320 -->
      <g style="fill: #262626" transform="translate(133.535578 537.54543)rotate(-45)scale(0.088 -0.088)">
       <defs>
        <path id="DejaVuSans-33" d="M 2597 2516 
Q 3050 2419 3304 2112 
Q 3559 1806 3559 1356 
Q 3559 666 3084 287 
Q 2609 -91 1734 -91 
Q 1441 -91 1130 -33 
Q 819 25 488 141 
L 488 750 
Q 750 597 1062 519 
Q 1375 441 1716 441 
Q 2309 441 2620 675 
Q 2931 909 2931 1356 
Q 2931 1769 2642 2001 
Q 2353 2234 1838 2234 
L 1294 2234 
L 1294 2753 
L 1863 2753 
Q 2328 2753 2575 2939 
Q 2822 3125 2822 3475 
Q 2822 3834 2567 4026 
Q 2313 4219 1838 4219 
Q 1578 4219 1281 4162 
Q 984 4106 628 3988 
L 628 4550 
Q 988 4650 1302 4700 
Q 1616 4750 1894 4750 
Q 2613 4750 3031 4423 
Q 3450 4097 3450 3541 
Q 3450 3153 3228 2886 
Q 3006 2619 2597 2516 
z
" transform="scale(0.015625)"/>
       </defs>
       <use xlink:href="#DejaVuSans-33"/>
       <use xlink:href="#DejaVuSans-32" x="63.623047"/>
       <use xlink:href="#DejaVuSans-30" x="127.246094"/>
      </g>
     </g>
    </g>
    <g id="xtick_6">
     <g id="line2d_6">
      <path d="M 154.783779 512.64 
L 154.783779 69.12 
" clip-path="url(#pab9f6ba467)" style="fill: none; stroke: #cccccc; stroke-width: 0.8; stroke-linecap: round"/>
     </g>
     <g id="text_6">
      <!-- 400 -->
      <g style="fill: #262626" transform="translate(150.562175 537.54543)rotate(-45)scale(0.088 -0.088)">
       <use xlink:href="#DejaVuSans-34"/>
       <use xlink:href="#DejaVuSans-30" x="63.623047"/>
       <use xlink:href="#DejaVuSans-30" x="127.246094"/>
      </g>
     </g>
    </g>
    <g id="xtick_7">
     <g id="line2d_7">
      <path d="M 171.810376 512.64 
L 171.810376 69.12 
" clip-path="url(#pab9f6ba467)" style="fill: none; stroke: #cccccc; stroke-width: 0.8; stroke-linecap: round"/>
     </g>
     <g id="text_7">
      <!-- 480 -->
      <g style="fill: #262626" transform="translate(167.588772 537.54543)rotate(-45)scale(0.088 -0.088)">
       <use xlink:href="#DejaVuSans-34"/>
       <use xlink:href="#DejaVuSans-38" x="63.623047"/>
       <use xlink:href="#DejaVuSans-30" x="127.246094"/>
      </g>
     </g>
    </g>
    <g id="xtick_8">
     <g id="line2d_8">
      <path d="M 188.836973 512.64 
L 188.836973 69.12 
" clip-path="url(#pab9f6ba467)" style="fill: none; stroke: #cccccc; stroke-width: 0.8; stroke-linecap: round"/>
     </g>
     <g id="text_8">
      <!-- 560 -->
      <g style="fill: #262626" transform="translate(184.615368 537.54543)rotate(-45)scale(0.088 -0.088)">
       <defs>
        <path id="DejaVuSans-35" d="M 691 4666 
L 3169 4666 
L 3169 4134 
L 1269 4134 
L 1269 2991 
Q 1406 3038 1543 3061 
Q 1681 3084 1819 3084 
Q 2600 3084 3056 2656 
Q 3513 2228 3513 1497 
Q 3513 744 3044 326 
Q 2575 -91 1722 -91 
Q 1428 -91 1123 -41 
Q 819 9 494 109 
L 494 744 
Q 775 591 1075 516 
Q 1375 441 1709 441 
Q 2250 441 2565 725 
Q 2881 1009 2881 1497 
Q 2881 1984 2565 2268 
Q 2250 2553 1709 2553 
Q 1456 2553 1204 2497 
Q 953 2441 691 2322 
L 691 4666 
z
" transform="scale(0.015625)"/>
       </defs>
       <use xlink:href="#DejaVuSans-35"/>
       <use xlink:href="#DejaVuSans-36" x="63.623047"/>
       <use xlink:href="#DejaVuSans-30" x="127.246094"/>
      </g>
     </g>
    </g>
    <g id="xtick_9">
     <g id="line2d_9">
      <path d="M 205.863569 512.64 
L 205.863569 69.12 
" clip-path="url(#pab9f6ba467)" style="fill: none; stroke: #cccccc; stroke-width: 0.8; stroke-linecap: round"/>
     </g>
     <g id="text_9">
      <!-- 640 -->
      <g style="fill: #262626" transform="translate(201.641965 537.54543)rotate(-45)scale(0.088 -0.088)">
       <use xlink:href="#DejaVuSans-36"/>
       <use xlink:href="#DejaVuSans-34" x="63.623047"/>
       <use xlink:href="#DejaVuSans-30" x="127.246094"/>
      </g>
     </g>
    </g>
    <g id="xtick_10">
     <g id="line2d_10">
      <path d="M 222.890166 512.64 
L 222.890166 69.12 
" clip-path="url(#pab9f6ba467)" style="fill: none; stroke: #cccccc; stroke-width: 0.8; stroke-linecap: round"/>
     </g>
     <g id="text_10">
      <!-- 720 -->
      <g style="fill: #262626" transform="translate(218.668562 537.54543)rotate(-45)scale(0.088 -0.088)">
       <defs>
        <path id="DejaVuSans-37" d="M 525 4666 
L 3525 4666 
L 3525 4397 
L 1831 0 
L 1172 0 
L 2766 4134 
L 525 4134 
L 525 4666 
z
" transform="scale(0.015625)"/>
       </defs>
       <use xlink:href="#DejaVuSans-37"/>
       <use xlink:href="#DejaVuSans-32" x="63.623047"/>
       <use xlink:href="#DejaVuSans-30" x="127.246094"/>
      </g>
     </g>
    </g>
    <g id="xtick_11">
     <g id="line2d_11">
      <path d="M 239.916763 512.64 
L 239.916763 69.12 
" clip-path="url(#pab9f6ba467)" style="fill: none; stroke: #cccccc; stroke-width: 0.8; stroke-linecap: round"/>
     </g>
     <g id="text_11">
      <!-- 800 -->
      <g style="fill: #262626" transform="translate(235.695159 537.54543)rotate(-45)scale(0.088 -0.088)">
       <use xlink:href="#DejaVuSans-38"/>
       <use xlink:href="#DejaVuSans-30" x="63.623047"/>
       <use xlink:href="#DejaVuSans-30" x="127.246094"/>
      </g>
     </g>
    </g>
    <g id="xtick_12">
     <g id="line2d_12">
      <path d="M 256.94336 512.64 
L 256.94336 69.12 
" clip-path="url(#pab9f6ba467)" style="fill: none; stroke: #cccccc; stroke-width: 0.8; stroke-linecap: round"/>
     </g>
     <g id="text_12">
      <!-- 880 -->
      <g style="fill: #262626" transform="translate(252.721755 537.54543)rotate(-45)scale(0.088 -0.088)">
       <use xlink:href="#DejaVuSans-38"/>
       <use xlink:href="#DejaVuSans-38" x="63.623047"/>
       <use xlink:href="#DejaVuSans-30" x="127.246094"/>
      </g>
     </g>
    </g>
    <g id="xtick_13">
     <g id="line2d_13">
      <path d="M 273.969956 512.64 
L 273.969956 69.12 
" clip-path="url(#pab9f6ba467)" style="fill: none; stroke: #cccccc; stroke-width: 0.8; stroke-linecap: round"/>
     </g>
     <g id="text_13">
      <!-- 960 -->
      <g style="fill: #262626" transform="translate(269.748352 537.54543)rotate(-45)scale(0.088 -0.088)">
       <defs>
        <path id="DejaVuSans-39" d="M 703 97 
L 703 672 
Q 941 559 1184 500 
Q 1428 441 1663 441 
Q 2288 441 2617 861 
Q 2947 1281 2994 2138 
Q 2813 1869 2534 1725 
Q 2256 1581 1919 1581 
Q 1219 1581 811 2004 
Q 403 2428 403 3163 
Q 403 3881 828 4315 
Q 1253 4750 1959 4750 
Q 2769 4750 3195 4129 
Q 3622 3509 3622 2328 
Q 3622 1225 3098 567 
Q 2575 -91 1691 -91 
Q 1453 -91 1209 -44 
Q 966 3 703 97 
z
M 1959 2075 
Q 2384 2075 2632 2365 
Q 2881 2656 2881 3163 
Q 2881 3666 2632 3958 
Q 2384 4250 1959 4250 
Q 1534 4250 1286 3958 
Q 1038 3666 1038 3163 
Q 1038 2656 1286 2365 
Q 1534 2075 1959 2075 
z
" transform="scale(0.015625)"/>
       </defs>
       <use xlink:href="#DejaVuSans-39"/>
       <use xlink:href="#DejaVuSans-36" x="63.623047"/>
       <use xlink:href="#DejaVuSans-30" x="127.246094"/>
      </g>
     </g>
    </g>
    <g id="xtick_14">
     <g id="line2d_14">
      <path d="M 290.996553 512.64 
L 290.996553 69.12 
" clip-path="url(#pab9f6ba467)" style="fill: none; stroke: #cccccc; stroke-width: 0.8; stroke-linecap: round"/>
     </g>
     <g id="text_14">
      <!-- 1040 -->
      <g style="fill: #262626" transform="translate(284.795404 541.504521)rotate(-45)scale(0.088 -0.088)">
       <use xlink:href="#DejaVuSans-31"/>
       <use xlink:href="#DejaVuSans-30" x="63.623047"/>
       <use xlink:href="#DejaVuSans-34" x="127.246094"/>
       <use xlink:href="#DejaVuSans-30" x="190.869141"/>
      </g>
     </g>
    </g>
    <g id="xtick_15">
     <g id="line2d_15">
      <path d="M 308.02315 512.64 
L 308.02315 69.12 
" clip-path="url(#pab9f6ba467)" style="fill: none; stroke: #cccccc; stroke-width: 0.8; stroke-linecap: round"/>
     </g>
     <g id="text_15">
      <!-- 1120 -->
      <g style="fill: #262626" transform="translate(301.822 541.504521)rotate(-45)scale(0.088 -0.088)">
       <use xlink:href="#DejaVuSans-31"/>
       <use xlink:href="#DejaVuSans-31" x="63.623047"/>
       <use xlink:href="#DejaVuSans-32" x="127.246094"/>
       <use xlink:href="#DejaVuSans-30" x="190.869141"/>
      </g>
     </g>
    </g>
    <g id="xtick_16">
     <g id="line2d_16">
      <path d="M 325.049747 512.64 
L 325.049747 69.12 
" clip-path="url(#pab9f6ba467)" style="fill: none; stroke: #cccccc; stroke-width: 0.8; stroke-linecap: round"/>
     </g>
     <g id="text_16">
      <!-- 1200 -->
      <g style="fill: #262626" transform="translate(318.848597 541.504521)rotate(-45)scale(0.088 -0.088)">
       <use xlink:href="#DejaVuSans-31"/>
       <use xlink:href="#DejaVuSans-32" x="63.623047"/>
       <use xlink:href="#DejaVuSans-30" x="127.246094"/>
       <use xlink:href="#DejaVuSans-30" x="190.869141"/>
      </g>
     </g>
    </g>
    <g id="xtick_17">
     <g id="line2d_17">
      <path d="M 342.076343 512.64 
L 342.076343 69.12 
" clip-path="url(#pab9f6ba467)" style="fill: none; stroke: #cccccc; stroke-width: 0.8; stroke-linecap: round"/>
     </g>
     <g id="text_17">
      <!-- 1280 -->
      <g style="fill: #262626" transform="translate(335.875194 541.504521)rotate(-45)scale(0.088 -0.088)">
       <use xlink:href="#DejaVuSans-31"/>
       <use xlink:href="#DejaVuSans-32" x="63.623047"/>
       <use xlink:href="#DejaVuSans-38" x="127.246094"/>
       <use xlink:href="#DejaVuSans-30" x="190.869141"/>
      </g>
     </g>
    </g>
    <g id="xtick_18">
     <g id="line2d_18">
      <path d="M 359.10294 512.64 
L 359.10294 69.12 
" clip-path="url(#pab9f6ba467)" style="fill: none; stroke: #cccccc; stroke-width: 0.8; stroke-linecap: round"/>
     </g>
     <g id="text_18">
      <!-- 1360 -->
      <g style="fill: #262626" transform="translate(352.901791 541.504521)rotate(-45)scale(0.088 -0.088)">
       <use xlink:href="#DejaVuSans-31"/>
       <use xlink:href="#DejaVuSans-33" x="63.623047"/>
       <use xlink:href="#DejaVuSans-36" x="127.246094"/>
       <use xlink:href="#DejaVuSans-30" x="190.869141"/>
      </g>
     </g>
    </g>
    <g id="xtick_19">
     <g id="line2d_19">
      <path d="M 376.129537 512.64 
L 376.129537 69.12 
" clip-path="url(#pab9f6ba467)" style="fill: none; stroke: #cccccc; stroke-width: 0.8; stroke-linecap: round"/>
     </g>
     <g id="text_19">
      <!-- 1440 -->
      <g style="fill: #262626" transform="translate(369.928387 541.504521)rotate(-45)scale(0.088 -0.088)">
       <use xlink:href="#DejaVuSans-31"/>
       <use xlink:href="#DejaVuSans-34" x="63.623047"/>
       <use xlink:href="#DejaVuSans-34" x="127.246094"/>
       <use xlink:href="#DejaVuSans-30" x="190.869141"/>
      </g>
     </g>
    </g>
    <g id="text_20">
     <!-- Time (Minutes) -->
     <g style="fill: #262626" transform="translate(186.87375 554.093115)scale(0.096 -0.096)">
      <defs>
       <path id="DejaVuSans-54" d="M -19 4666 
L 3928 4666 
L 3928 4134 
L 2272 4134 
L 2272 0 
L 1638 0 
L 1638 4134 
L -19 4134 
L -19 4666 
z
" transform="scale(0.015625)"/>
       <path id="DejaVuSans-69" d="M 603 3500 
L 1178 3500 
L 1178 0 
L 603 0 
L 603 3500 
z
M 603 4863 
L 1178 4863 
L 1178 4134 
L 603 4134 
L 603 4863 
z
" transform="scale(0.015625)"/>
       <path id="DejaVuSans-6d" d="M 3328 2828 
Q 3544 3216 3844 3400 
Q 4144 3584 4550 3584 
Q 5097 3584 5394 3201 
Q 5691 2819 5691 2113 
L 5691 0 
L 5113 0 
L 5113 2094 
Q 5113 2597 4934 2840 
Q 4756 3084 4391 3084 
Q 3944 3084 3684 2787 
Q 3425 2491 3425 1978 
L 3425 0 
L 2847 0 
L 2847 2094 
Q 2847 2600 2669 2842 
Q 2491 3084 2119 3084 
Q 1678 3084 1418 2786 
Q 1159 2488 1159 1978 
L 1159 0 
L 581 0 
L 581 3500 
L 1159 3500 
L 1159 2956 
Q 1356 3278 1631 3431 
Q 1906 3584 2284 3584 
Q 2666 3584 2933 3390 
Q 3200 3197 3328 2828 
z
" transform="scale(0.015625)"/>
       <path id="DejaVuSans-65" d="M 3597 1894 
L 3597 1613 
L 953 1613 
Q 991 1019 1311 708 
Q 1631 397 2203 397 
Q 2534 397 2845 478 
Q 3156 559 3463 722 
L 3463 178 
Q 3153 47 2828 -22 
Q 2503 -91 2169 -91 
Q 1331 -91 842 396 
Q 353 884 353 1716 
Q 353 2575 817 3079 
Q 1281 3584 2069 3584 
Q 2775 3584 3186 3129 
Q 3597 2675 3597 1894 
z
M 3022 2063 
Q 3016 2534 2758 2815 
Q 2500 3097 2075 3097 
Q 1594 3097 1305 2825 
Q 1016 2553 972 2059 
L 3022 2063 
z
" transform="scale(0.015625)"/>
       <path id="DejaVuSans-20" transform="scale(0.015625)"/>
       <path id="DejaVuSans-28" d="M 1984 4856 
Q 1566 4138 1362 3434 
Q 1159 2731 1159 2009 
Q 1159 1288 1364 580 
Q 1569 -128 1984 -844 
L 1484 -844 
Q 1016 -109 783 600 
Q 550 1309 550 2009 
Q 550 2706 781 3412 
Q 1013 4119 1484 4856 
L 1984 4856 
z
" transform="scale(0.015625)"/>
       <path id="DejaVuSans-4d" d="M 628 4666 
L 1569 4666 
L 2759 1491 
L 3956 4666 
L 4897 4666 
L 4897 0 
L 4281 0 
L 4281 4097 
L 3078 897 
L 2444 897 
L 1241 4097 
L 1241 0 
L 628 0 
L 628 4666 
z
" transform="scale(0.015625)"/>
       <path id="DejaVuSans-6e" d="M 3513 2113 
L 3513 0 
L 2938 0 
L 2938 2094 
Q 2938 2591 2744 2837 
Q 2550 3084 2163 3084 
Q 1697 3084 1428 2787 
Q 1159 2491 1159 1978 
L 1159 0 
L 581 0 
L 581 3500 
L 1159 3500 
L 1159 2956 
Q 1366 3272 1645 3428 
Q 1925 3584 2291 3584 
Q 2894 3584 3203 3211 
Q 3513 2838 3513 2113 
z
" transform="scale(0.015625)"/>
       <path id="DejaVuSans-75" d="M 544 1381 
L 544 3500 
L 1119 3500 
L 1119 1403 
Q 1119 906 1312 657 
Q 1506 409 1894 409 
Q 2359 409 2629 706 
Q 2900 1003 2900 1516 
L 2900 3500 
L 3475 3500 
L 3475 0 
L 2900 0 
L 2900 538 
Q 2691 219 2414 64 
Q 2138 -91 1772 -91 
Q 1169 -91 856 284 
Q 544 659 544 1381 
z
M 1991 3584 
L 1991 3584 
z
" transform="scale(0.015625)"/>
       <path id="DejaVuSans-74" d="M 1172 4494 
L 1172 3500 
L 2356 3500 
L 2356 3053 
L 1172 3053 
L 1172 1153 
Q 1172 725 1289 603 
Q 1406 481 1766 481 
L 2356 481 
L 2356 0 
L 1766 0 
Q 1100 0 847 248 
Q 594 497 594 1153 
L 594 3053 
L 172 3053 
L 172 3500 
L 594 3500 
L 594 4494 
L 1172 4494 
z
" transform="scale(0.015625)"/>
       <path id="DejaVuSans-73" d="M 2834 3397 
L 2834 2853 
Q 2591 2978 2328 3040 
Q 2066 3103 1784 3103 
Q 1356 3103 1142 2972 
Q 928 2841 928 2578 
Q 928 2378 1081 2264 
Q 1234 2150 1697 2047 
L 1894 2003 
Q 2506 1872 2764 1633 
Q 3022 1394 3022 966 
Q 3022 478 2636 193 
Q 2250 -91 1575 -91 
Q 1294 -91 989 -36 
Q 684 19 347 128 
L 347 722 
Q 666 556 975 473 
Q 1284 391 1588 391 
Q 1994 391 2212 530 
Q 2431 669 2431 922 
Q 2431 1156 2273 1281 
Q 2116 1406 1581 1522 
L 1381 1569 
Q 847 1681 609 1914 
Q 372 2147 372 2553 
Q 372 3047 722 3315 
Q 1072 3584 1716 3584 
Q 2034 3584 2315 3537 
Q 2597 3491 2834 3397 
z
" transform="scale(0.015625)"/>
       <path id="DejaVuSans-29" d="M 513 4856 
L 1013 4856 
Q 1481 4119 1714 3412 
Q 1947 2706 1947 2009 
Q 1947 1309 1714 600 
Q 1481 -109 1013 -844 
L 513 -844 
Q 928 -128 1133 580 
Q 1338 1288 1338 2009 
Q 1338 2731 1133 3434 
Q 928 4138 513 4856 
z
" transform="scale(0.015625)"/>
      </defs>
      <use xlink:href="#DejaVuSans-54"/>
      <use xlink:href="#DejaVuSans-69" x="57.958984"/>
      <use xlink:href="#DejaVuSans-6d" x="85.742188"/>
      <use xlink:href="#DejaVuSans-65" x="183.154297"/>
      <use xlink:href="#DejaVuSans-20" x="244.677734"/>
      <use xlink:href="#DejaVuSans-28" x="276.464844"/>
      <use xlink:href="#DejaVuSans-4d" x="315.478516"/>
      <use xlink:href="#DejaVuSans-69" x="401.757812"/>
      <use xlink:href="#DejaVuSans-6e" x="429.541016"/>
      <use xlink:href="#DejaVuSans-75" x="492.919922"/>
      <use xlink:href="#DejaVuSans-74" x="556.298828"/>
      <use xlink:href="#DejaVuSans-65" x="595.507812"/>
      <use xlink:href="#DejaVuSans-73" x="657.03125"/>
      <use xlink:href="#DejaVuSans-29" x="709.130859"/>
     </g>
    </g>
   </g>
   <g id="matplotlib.axis_2">
    <g id="ytick_1">
     <g id="line2d_20">
      <path d="M 54.3375 492.48 
L 391.23 492.48 
" clip-path="url(#pab9f6ba467)" style="fill: none; stroke: #cccccc; stroke-width: 0.8; stroke-linecap: round"/>
     </g>
     <g id="text_21">
      <!-- 0 -->
      <g style="fill: #262626" transform="translate(40.4385 495.823313)scale(0.088 -0.088)">
       <use xlink:href="#DejaVuSans-30"/>
      </g>
     </g>
    </g>
    <g id="ytick_2">
     <g id="line2d_21">
      <path d="M 54.3375 424.024992 
L 391.23 424.024992 
" clip-path="url(#pab9f6ba467)" style="fill: none; stroke: #cccccc; stroke-width: 0.8; stroke-linecap: round"/>
     </g>
     <g id="text_22">
      <!-- 100 -->
      <g style="fill: #262626" transform="translate(29.2405 427.368304)scale(0.088 -0.088)">
       <use xlink:href="#DejaVuSans-31"/>
       <use xlink:href="#DejaVuSans-30" x="63.623047"/>
       <use xlink:href="#DejaVuSans-30" x="127.246094"/>
      </g>
     </g>
    </g>
    <g id="ytick_3">
     <g id="line2d_22">
      <path d="M 54.3375 355.569983 
L 391.23 355.569983 
" clip-path="url(#pab9f6ba467)" style="fill: none; stroke: #cccccc; stroke-width: 0.8; stroke-linecap: round"/>
     </g>
     <g id="text_23">
      <!-- 200 -->
      <g style="fill: #262626" transform="translate(29.2405 358.913296)scale(0.088 -0.088)">
       <use xlink:href="#DejaVuSans-32"/>
       <use xlink:href="#DejaVuSans-30" x="63.623047"/>
       <use xlink:href="#DejaVuSans-30" x="127.246094"/>
      </g>
     </g>
    </g>
    <g id="ytick_4">
     <g id="line2d_23">
      <path d="M 54.3375 287.114975 
L 391.23 287.114975 
" clip-path="url(#pab9f6ba467)" style="fill: none; stroke: #cccccc; stroke-width: 0.8; stroke-linecap: round"/>
     </g>
     <g id="text_24">
      <!-- 300 -->
      <g style="fill: #262626" transform="translate(29.2405 290.458287)scale(0.088 -0.088)">
       <use xlink:href="#DejaVuSans-33"/>
       <use xlink:href="#DejaVuSans-30" x="63.623047"/>
       <use xlink:href="#DejaVuSans-30" x="127.246094"/>
      </g>
     </g>
    </g>
    <g id="ytick_5">
     <g id="line2d_24">
      <path d="M 54.3375 218.659966 
L 391.23 218.659966 
" clip-path="url(#pab9f6ba467)" style="fill: none; stroke: #cccccc; stroke-width: 0.8; stroke-linecap: round"/>
     </g>
     <g id="text_25">
      <!-- 400 -->
      <g style="fill: #262626" transform="translate(29.2405 222.003279)scale(0.088 -0.088)">
       <use xlink:href="#DejaVuSans-34"/>
       <use xlink:href="#DejaVuSans-30" x="63.623047"/>
       <use xlink:href="#DejaVuSans-30" x="127.246094"/>
      </g>
     </g>
    </g>
    <g id="ytick_6">
     <g id="line2d_25">
      <path d="M 54.3375 150.204958 
L 391.23 150.204958 
" clip-path="url(#pab9f6ba467)" style="fill: none; stroke: #cccccc; stroke-width: 0.8; stroke-linecap: round"/>
     </g>
     <g id="text_26">
      <!-- 500 -->
      <g style="fill: #262626" transform="translate(29.2405 153.54827)scale(0.088 -0.088)">
       <use xlink:href="#DejaVuSans-35"/>
       <use xlink:href="#DejaVuSans-30" x="63.623047"/>
       <use xlink:href="#DejaVuSans-30" x="127.246094"/>
      </g>
     </g>
    </g>
    <g id="text_27">
     <!-- Edge Coverages -->
     <g style="fill: #262626" transform="translate(23.244 329.98575)rotate(-90)scale(0.096 -0.096)">
      <defs>
       <path id="DejaVuSans-45" d="M 628 4666 
L 3578 4666 
L 3578 4134 
L 1259 4134 
L 1259 2753 
L 3481 2753 
L 3481 2222 
L 1259 2222 
L 1259 531 
L 3634 531 
L 3634 0 
L 628 0 
L 628 4666 
z
" transform="scale(0.015625)"/>
       <path id="DejaVuSans-64" d="M 2906 2969 
L 2906 4863 
L 3481 4863 
L 3481 0 
L 2906 0 
L 2906 525 
Q 2725 213 2448 61 
Q 2172 -91 1784 -91 
Q 1150 -91 751 415 
Q 353 922 353 1747 
Q 353 2572 751 3078 
Q 1150 3584 1784 3584 
Q 2172 3584 2448 3432 
Q 2725 3281 2906 2969 
z
M 947 1747 
Q 947 1113 1208 752 
Q 1469 391 1925 391 
Q 2381 391 2643 752 
Q 2906 1113 2906 1747 
Q 2906 2381 2643 2742 
Q 2381 3103 1925 3103 
Q 1469 3103 1208 2742 
Q 947 2381 947 1747 
z
" transform="scale(0.015625)"/>
       <path id="DejaVuSans-67" d="M 2906 1791 
Q 2906 2416 2648 2759 
Q 2391 3103 1925 3103 
Q 1463 3103 1205 2759 
Q 947 2416 947 1791 
Q 947 1169 1205 825 
Q 1463 481 1925 481 
Q 2391 481 2648 825 
Q 2906 1169 2906 1791 
z
M 3481 434 
Q 3481 -459 3084 -895 
Q 2688 -1331 1869 -1331 
Q 1566 -1331 1297 -1286 
Q 1028 -1241 775 -1147 
L 775 -588 
Q 1028 -725 1275 -790 
Q 1522 -856 1778 -856 
Q 2344 -856 2625 -561 
Q 2906 -266 2906 331 
L 2906 616 
Q 2728 306 2450 153 
Q 2172 0 1784 0 
Q 1141 0 747 490 
Q 353 981 353 1791 
Q 353 2603 747 3093 
Q 1141 3584 1784 3584 
Q 2172 3584 2450 3431 
Q 2728 3278 2906 2969 
L 2906 3500 
L 3481 3500 
L 3481 434 
z
" transform="scale(0.015625)"/>
       <path id="DejaVuSans-43" d="M 4122 4306 
L 4122 3641 
Q 3803 3938 3442 4084 
Q 3081 4231 2675 4231 
Q 1875 4231 1450 3742 
Q 1025 3253 1025 2328 
Q 1025 1406 1450 917 
Q 1875 428 2675 428 
Q 3081 428 3442 575 
Q 3803 722 4122 1019 
L 4122 359 
Q 3791 134 3420 21 
Q 3050 -91 2638 -91 
Q 1578 -91 968 557 
Q 359 1206 359 2328 
Q 359 3453 968 4101 
Q 1578 4750 2638 4750 
Q 3056 4750 3426 4639 
Q 3797 4528 4122 4306 
z
" transform="scale(0.015625)"/>
       <path id="DejaVuSans-6f" d="M 1959 3097 
Q 1497 3097 1228 2736 
Q 959 2375 959 1747 
Q 959 1119 1226 758 
Q 1494 397 1959 397 
Q 2419 397 2687 759 
Q 2956 1122 2956 1747 
Q 2956 2369 2687 2733 
Q 2419 3097 1959 3097 
z
M 1959 3584 
Q 2709 3584 3137 3096 
Q 3566 2609 3566 1747 
Q 3566 888 3137 398 
Q 2709 -91 1959 -91 
Q 1206 -91 779 398 
Q 353 888 353 1747 
Q 353 2609 779 3096 
Q 1206 3584 1959 3584 
z
" transform="scale(0.015625)"/>
       <path id="DejaVuSans-76" d="M 191 3500 
L 800 3500 
L 1894 563 
L 2988 3500 
L 3597 3500 
L 2284 0 
L 1503 0 
L 191 3500 
z
" transform="scale(0.015625)"/>
       <path id="DejaVuSans-72" d="M 2631 2963 
Q 2534 3019 2420 3045 
Q 2306 3072 2169 3072 
Q 1681 3072 1420 2755 
Q 1159 2438 1159 1844 
L 1159 0 
L 581 0 
L 581 3500 
L 1159 3500 
L 1159 2956 
Q 1341 3275 1631 3429 
Q 1922 3584 2338 3584 
Q 2397 3584 2469 3576 
Q 2541 3569 2628 3553 
L 2631 2963 
z
" transform="scale(0.015625)"/>
       <path id="DejaVuSans-61" d="M 2194 1759 
Q 1497 1759 1228 1600 
Q 959 1441 959 1056 
Q 959 750 1161 570 
Q 1363 391 1709 391 
Q 2188 391 2477 730 
Q 2766 1069 2766 1631 
L 2766 1759 
L 2194 1759 
z
M 3341 1997 
L 3341 0 
L 2766 0 
L 2766 531 
Q 2569 213 2275 61 
Q 1981 -91 1556 -91 
Q 1019 -91 701 211 
Q 384 513 384 1019 
Q 384 1609 779 1909 
Q 1175 2209 1959 2209 
L 2766 2209 
L 2766 2266 
Q 2766 2663 2505 2880 
Q 2244 3097 1772 3097 
Q 1472 3097 1187 3025 
Q 903 2953 641 2809 
L 641 3341 
Q 956 3463 1253 3523 
Q 1550 3584 1831 3584 
Q 2591 3584 2966 3190 
Q 3341 2797 3341 1997 
z
" transform="scale(0.015625)"/>
      </defs>
      <use xlink:href="#DejaVuSans-45"/>
      <use xlink:href="#DejaVuSans-64" x="63.183594"/>
      <use xlink:href="#DejaVuSans-67" x="126.660156"/>
      <use xlink:href="#DejaVuSans-65" x="190.136719"/>
      <use xlink:href="#DejaVuSans-20" x="251.660156"/>
      <use xlink:href="#DejaVuSans-43" x="283.447266"/>
      <use xlink:href="#DejaVuSans-6f" x="353.271484"/>
      <use xlink:href="#DejaVuSans-76" x="414.453125"/>
      <use xlink:href="#DejaVuSans-65" x="473.632812"/>
      <use xlink:href="#DejaVuSans-72" x="535.15625"/>
      <use xlink:href="#DejaVuSans-61" x="576.269531"/>
      <use xlink:href="#DejaVuSans-67" x="637.548828"/>
      <use xlink:href="#DejaVuSans-65" x="701.025391"/>
      <use xlink:href="#DejaVuSans-73" x="762.548828"/>
     </g>
    </g>
   </g>
   <g id="PolyCollection_1">
    <defs>
     <path id="madcd1e6a63" d="M 69.650795 -100.633752 
L 69.650795 -83.52 
L 69.650795 -100.633752 
L 69.650795 -100.633752 
z
" style="stroke: #db5f57; stroke-opacity: 0.2; stroke-width: 0.8"/>
    </defs>
    <g clip-path="url(#pab9f6ba467)">
     <use xlink:href="#madcd1e6a63" x="0" y="576" style="fill: #db5f57; fill-opacity: 0.2; stroke: #db5f57; stroke-opacity: 0.2; stroke-width: 0.8"/>
    </g>
   </g>
   <g id="PolyCollection_2">
    <defs>
     <path id="m3f467e0cea" d="M 69.650795 -118.432054 
L 69.650795 -83.52 
L 69.650795 -118.432054 
L 69.650795 -118.432054 
z
" style="stroke: #b9db57; stroke-opacity: 0.2; stroke-width: 0.8"/>
    </defs>
    <g clip-path="url(#pab9f6ba467)">
     <use xlink:href="#m3f467e0cea" x="0" y="576" style="fill: #b9db57; fill-opacity: 0.2; stroke: #b9db57; stroke-opacity: 0.2; stroke-width: 0.8"/>
    </g>
   </g>
   <g id="PolyCollection_3">
    <defs>
     <path id="m4621f81aba" d="M 69.650795 -108.848353 
L 69.650795 -83.52 
L 69.650795 -108.848353 
L 69.650795 -108.848353 
z
" style="stroke: #57db94; stroke-opacity: 0.2; stroke-width: 0.8"/>
    </defs>
    <g clip-path="url(#pab9f6ba467)">
     <use xlink:href="#m4621f81aba" x="0" y="576" style="fill: #57db94; fill-opacity: 0.2; stroke: #57db94; stroke-opacity: 0.2; stroke-width: 0.8"/>
    </g>
   </g>
   <g id="PolyCollection_4">
    <defs>
     <path id="m5ffbd6e2d1" d="M 69.650795 -99.264652 
L 69.650795 -83.52 
L 69.650795 -99.264652 
L 69.650795 -99.264652 
z
" style="stroke: #5784db; stroke-opacity: 0.2; stroke-width: 0.8"/>
    </defs>
    <g clip-path="url(#pab9f6ba467)">
     <use xlink:href="#m5ffbd6e2d1" x="0" y="576" style="fill: #5784db; fill-opacity: 0.2; stroke: #5784db; stroke-opacity: 0.2; stroke-width: 0.8"/>
    </g>
   </g>
   <g id="PolyCollection_5">
    <defs>
     <path id="mdf993f6dc0" d="M 69.650795 -121.854805 
L 69.650795 -83.52 
L 69.650795 -121.854805 
L 69.650795 -121.854805 
z
" style="stroke: #c957db; stroke-opacity: 0.2; stroke-width: 0.8"/>
    </defs>
    <g clip-path="url(#pab9f6ba467)">
     <use xlink:href="#mdf993f6dc0" x="0" y="576" style="fill: #c957db; fill-opacity: 0.2; stroke: #c957db; stroke-opacity: 0.2; stroke-width: 0.8"/>
    </g>
   </g>
   <g id="line2d_26">
    <path d="M 69.650795 483.923124 
L 69.863628 475.366248 
L 70.07646 472.628048 
L 71.140623 472.628048 
L 71.353455 385.690187 
L 71.566288 371.999185 
L 71.991953 370.630085 
L 72.417617 370.630085 
L 72.843282 368.576435 
L 73.056115 343.932632 
L 73.268947 342.563531 
L 73.694612 335.718031 
L 73.907445 335.718031 
L 74.120277 335.03348 
L 74.33311 332.97983 
L 74.545942 332.97983 
L 74.758774 328.18798 
L 74.971607 326.134329 
L 75.184439 325.449779 
L 75.397272 325.449779 
L 75.610104 324.080679 
L 75.822937 324.080679 
L 76.035769 322.027029 
L 76.248602 321.342479 
L 77.099932 316.550628 
L 77.525596 316.550628 
L 77.738429 315.181528 
L 77.951261 315.181528 
L 78.164094 314.496978 
L 79.866754 314.496978 
L 80.079586 313.127878 
L 80.292418 313.127878 
L 80.505251 306.282377 
L 80.718083 306.282377 
L 80.930916 302.859626 
L 81.356581 302.859626 
L 81.569413 302.175076 
L 81.995078 299.436876 
L 82.207911 299.436876 
L 82.633575 298.067776 
L 83.484905 298.067776 
L 83.697738 293.275925 
L 83.91057 293.275925 
L 84.123403 292.591375 
L 86.46456 292.591375 
L 86.677392 282.323124 
L 86.890225 280.269474 
L 87.31589 280.269474 
L 87.528722 275.477623 
L 103.703989 275.477623 
L 103.916821 236.458268 
L 109.663298 236.458268 
L 109.87613 235.773718 
L 119.666423 235.773718 
L 119.879256 216.606316 
L 120.092088 216.606316 
L 120.304921 214.552666 
L 120.517753 213.868115 
L 134.564696 213.868115 
L 134.777528 199.492564 
L 136.905853 199.492564 
L 137.118685 198.808014 
L 153.932449 198.808014 
L 154.145282 189.908862 
L 157.550601 189.908862 
L 157.763434 174.164211 
L 161.168753 174.164211 
L 161.381585 168.68781 
L 165.21257 168.68781 
L 165.425402 167.31871 
L 173.725868 167.31871 
L 173.938701 165.265059 
L 177.131187 165.265059 
L 177.34402 163.895959 
L 180.110842 163.895959 
L 180.323674 162.526859 
L 185.005988 162.526859 
L 185.218821 161.157759 
L 190.965297 161.157759 
L 191.17813 160.473209 
L 197.137439 160.473209 
L 197.350271 159.104109 
L 203.735245 159.104109 
L 203.948077 158.419559 
L 220.336177 158.419559 
L 220.549009 157.735008 
L 223.102999 157.735008 
L 223.315831 157.050458 
L 226.295486 157.050458 
L 226.508318 156.365908 
L 235.021616 156.365908 
L 235.234449 154.312258 
L 235.447281 154.312258 
L 235.660114 153.627708 
L 236.298611 153.627708 
L 236.511444 152.943158 
L 239.916763 152.943158 
L 240.129595 151.574058 
L 243.322082 151.574058 
L 243.534915 148.151307 
L 246.514569 148.151307 
L 246.727402 147.466757 
L 264.392496 147.466757 
L 264.605328 146.782207 
L 268.010648 146.782207 
L 268.22348 146.097657 
L 275.672616 146.097657 
L 275.885449 144.728557 
L 281.844757 144.728557 
L 282.05759 141.990357 
L 291.422218 141.990357 
L 291.635051 141.305806 
L 294.401873 141.305806 
L 294.614705 140.621256 
L 305.681993 140.621256 
L 305.894825 136.513956 
L 312.066967 136.513956 
L 312.279799 135.829406 
L 345.907328 135.829406 
L 346.12016 135.144856 
L 359.95427 135.144856 
L 360.167103 128.299355 
L 362.933925 128.299355 
L 363.146757 126.245705 
L 375.916705 126.245705 
L 375.916705 126.245705 
" clip-path="url(#pab9f6ba467)" style="fill: none; stroke: #db5f57; stroke-width: 1.2; stroke-linecap: round"/>
   </g>
   <g id="line2d_27">
    <path d="M 69.650795 475.023973 
L 69.863628 441.823294 
L 70.289293 419.233141 
L 70.502125 397.327538 
L 70.714958 387.743837 
L 70.92779 385.005637 
L 71.140623 378.160136 
L 71.353455 375.421935 
L 71.77912 367.207334 
L 71.991953 365.153684 
L 72.63045 365.153684 
L 72.843282 364.469134 
L 73.056115 345.301732 
L 74.120277 345.301732 
L 74.33311 344.617182 
L 74.545942 337.771681 
L 76.035769 337.771681 
L 76.248602 326.818879 
L 76.461434 326.134329 
L 76.674267 326.134329 
L 77.099932 324.765229 
L 77.951261 324.765229 
L 78.164094 324.080679 
L 79.015424 324.080679 
L 79.228256 320.657929 
L 80.079586 320.657929 
L 80.292418 319.973379 
L 80.718083 314.496978 
L 80.930916 313.812428 
L 81.143748 313.812428 
L 81.356581 313.127878 
L 81.569413 307.651477 
L 81.782246 306.966927 
L 81.995078 306.966927 
L 82.420743 304.913277 
L 82.633575 304.228727 
L 83.05924 304.228727 
L 83.272073 303.544177 
L 83.697738 303.544177 
L 83.91057 302.859626 
L 84.123403 302.859626 
L 84.336235 300.805976 
L 84.549068 295.329576 
L 84.7619 295.329576 
L 84.974733 294.645025 
L 86.251727 294.645025 
L 86.46456 291.222275 
L 86.890225 291.222275 
L 87.31589 289.168625 
L 87.528722 278.900374 
L 88.167219 278.900374 
L 88.592884 272.739423 
L 88.805717 272.739423 
L 89.018549 272.054873 
L 89.869879 272.054873 
L 90.082712 267.263022 
L 90.934041 267.263022 
L 91.146874 265.893922 
L 91.359706 265.893922 
L 91.572539 265.209372 
L 91.785371 263.840272 
L 92.211036 263.840272 
L 92.636701 262.471171 
L 92.849534 262.471171 
L 93.062366 261.786621 
L 93.275198 261.786621 
L 93.488031 259.048421 
L 93.700863 259.048421 
L 93.913696 256.994771 
L 94.126528 256.310221 
L 95.403523 256.310221 
L 95.616356 255.625671 
L 95.829188 255.625671 
L 96.04202 254.941121 
L 96.680518 254.941121 
L 97.106183 252.88747 
L 97.957513 252.88747 
L 98.170345 252.20292 
L 98.59601 252.20292 
L 98.808842 251.51837 
L 99.021675 251.51837 
L 99.234507 249.46472 
L 99.44734 248.78017 
L 99.660172 243.988319 
L 99.873005 243.303769 
L 100.29867 243.303769 
L 100.511502 241.250119 
L 101.575664 241.250119 
L 101.788497 240.565569 
L 102.852659 240.565569 
L 103.065492 239.881019 
L 105.619481 239.881019 
L 106.045146 238.511919 
L 107.109308 238.511919 
L 107.322141 237.827368 
L 107.534973 237.827368 
L 107.747806 237.142818 
L 109.0248 237.142818 
L 109.237633 236.458268 
L 109.663298 236.458268 
L 109.87613 234.404618 
L 110.088963 233.720068 
L 112.642952 233.720068 
L 112.855785 232.350968 
L 115.622607 232.350968 
L 115.835439 231.666418 
L 116.048272 223.451817 
L 117.963764 223.451817 
L 118.176596 222.767267 
L 119.027926 222.767267 
L 119.240758 221.398166 
L 120.092088 221.398166 
L 120.304921 220.713616 
L 121.156251 220.713616 
L 121.369083 218.659966 
L 121.581916 218.659966 
L 121.794748 217.290866 
L 122.00758 217.290866 
L 122.220413 216.606316 
L 123.71024 216.606316 
L 124.135905 215.237216 
L 124.56157 215.237216 
L 124.774402 214.552666 
L 125.625732 214.552666 
L 126.051397 213.183565 
L 126.26423 213.183565 
L 126.477062 212.499015 
L 127.966889 212.499015 
L 128.179722 210.445365 
L 128.605387 210.445365 
L 129.031052 209.076265 
L 129.882381 209.076265 
L 130.095214 208.391715 
L 131.159376 208.391715 
L 131.372209 205.653514 
L 132.649203 205.653514 
L 132.862036 204.968964 
L 133.926198 204.968964 
L 134.351863 203.599864 
L 137.331518 203.599864 
L 137.54435 202.915314 
L 141.800999 202.915314 
L 142.013832 201.546214 
L 142.439497 201.546214 
L 142.652329 200.861664 
L 143.929324 200.861664 
L 144.142156 196.069813 
L 145.419151 196.069813 
L 145.631983 195.385263 
L 151.37846 195.385263 
L 151.591292 194.700713 
L 154.570947 194.700713 
L 154.783779 185.117012 
L 155.422277 185.117012 
L 155.635109 184.432462 
L 155.847942 181.694261 
L 156.060774 181.694261 
L 156.486439 180.325161 
L 157.976266 180.325161 
L 158.401931 178.956061 
L 159.678926 178.956061 
L 159.891758 176.217861 
L 161.168753 176.217861 
L 161.381585 174.848761 
L 162.871413 174.848761 
L 163.084245 174.164211 
L 165.21257 174.164211 
L 165.425402 173.47966 
L 172.874538 173.47966 
L 173.300203 172.11056 
L 175.215695 172.11056 
L 175.428528 171.42601 
L 178.19535 171.42601 
L 178.408182 170.05691 
L 180.749339 170.05691 
L 180.962172 169.37236 
L 181.387837 169.37236 
L 181.600669 168.68781 
L 182.239166 168.68781 
L 182.451999 168.00326 
L 190.3268 168.00326 
L 190.539632 167.31871 
L 196.711774 167.31871 
L 196.924606 166.63416 
L 202.671083 166.63416 
L 202.883915 165.94961 
L 213.099873 165.94961 
L 213.312706 165.265059 
L 220.761842 165.265059 
L 220.974674 164.580509 
L 221.400339 164.580509 
L 221.613171 163.895959 
L 224.379993 163.895959 
L 224.805658 162.526859 
L 231.616297 162.526859 
L 231.82913 161.842309 
L 234.170287 161.842309 
L 234.383119 160.473209 
L 235.021616 160.473209 
L 235.234449 159.788659 
L 235.660114 159.788659 
L 235.872946 159.104109 
L 236.724276 159.104109 
L 236.937109 158.419559 
L 238.001271 158.419559 
L 238.214103 157.735008 
L 240.768093 157.735008 
L 240.980925 157.050458 
L 241.832255 157.050458 
L 242.045088 154.996808 
L 245.876072 154.996808 
L 246.088904 154.312258 
L 257.156192 154.312258 
L 257.369025 153.627708 
L 265.456658 153.627708 
L 265.669491 152.943158 
L 272.267297 152.943158 
L 272.480129 152.258608 
L 273.757124 152.258608 
L 273.969956 151.574058 
L 280.780595 151.574058 
L 280.993428 149.520407 
L 281.20626 148.835857 
L 281.419093 148.835857 
L 281.631925 148.151307 
L 290.145223 148.151307 
L 290.358056 147.466757 
L 292.273548 147.466757 
L 292.48638 146.782207 
L 302.276674 146.782207 
L 302.489506 145.413107 
L 302.702339 145.413107 
L 302.915171 144.728557 
L 303.128003 144.728557 
L 303.340836 144.044007 
L 304.192166 144.044007 
L 304.404998 142.674907 
L 310.151475 142.674907 
L 310.364307 141.990357 
L 338.245359 141.990357 
L 338.458192 141.305806 
L 345.26883 141.305806 
L 345.481663 140.621256 
L 349.312647 140.621256 
L 349.52548 139.936706 
L 352.930799 139.936706 
L 353.143631 139.252156 
L 353.569296 139.252156 
L 353.782129 138.567606 
L 355.059124 138.567606 
L 355.271956 137.883056 
L 355.484788 137.883056 
L 355.697621 135.829406 
L 358.677275 135.829406 
L 358.890108 134.460306 
L 360.592767 134.460306 
L 361.018432 133.091205 
L 361.869762 133.091205 
L 362.082595 132.406655 
L 374.63971 132.406655 
L 374.852542 127.614805 
L 375.278207 127.614805 
L 375.49104 126.245705 
L 375.916705 126.245705 
L 375.916705 126.245705 
" clip-path="url(#pab9f6ba467)" style="fill: none; stroke: #b9db57; stroke-width: 1.2; stroke-linecap: round"/>
   </g>
   <g id="line2d_28">
    <path d="M 69.650795 479.815823 
L 70.289293 410.33399 
L 70.714958 387.743837 
L 71.353455 378.844686 
L 71.566288 378.160136 
L 72.204785 374.737385 
L 72.843282 356.254533 
L 73.056115 339.140781 
L 73.48178 339.140781 
L 73.694612 338.456231 
L 73.907445 338.456231 
L 74.33311 330.24163 
L 74.545942 329.55708 
L 74.758774 329.55708 
L 74.971607 328.87253 
L 75.184439 328.87253 
L 75.397272 328.18798 
L 75.610104 326.818879 
L 78.802591 326.818879 
L 79.015424 326.134329 
L 79.653921 326.134329 
L 79.866754 324.765229 
L 81.569413 324.765229 
L 81.782246 324.080679 
L 82.420743 324.080679 
L 82.633575 322.711579 
L 82.846408 290.537725 
L 84.549068 290.537725 
L 84.7619 288.484075 
L 84.974733 288.484075 
L 85.187565 287.114975 
L 85.400397 284.376774 
L 85.61323 284.376774 
L 85.826062 283.692224 
L 86.038895 283.692224 
L 86.46456 282.323124 
L 86.677392 276.162173 
L 87.103057 272.054873 
L 87.741555 272.054873 
L 87.954387 271.370323 
L 88.167219 271.370323 
L 88.592884 267.263022 
L 88.805717 267.263022 
L 89.018549 266.578472 
L 89.231382 266.578472 
L 89.444214 265.893922 
L 89.657047 265.893922 
L 90.082712 262.471171 
L 90.508376 262.471171 
L 90.721209 261.786621 
L 91.572539 261.786621 
L 91.785371 261.102071 
L 93.062366 261.102071 
L 93.700863 243.988319 
L 96.467685 243.988319 
L 96.89335 241.934669 
L 97.531848 241.934669 
L 97.74468 241.250119 
L 97.957513 241.250119 
L 98.170345 233.720068 
L 98.383177 233.035518 
L 99.44734 233.035518 
L 99.660172 227.559117 
L 99.873005 226.874567 
L 100.29867 226.874567 
L 100.511502 226.190017 
L 102.214162 226.190017 
L 102.426994 224.136367 
L 106.045146 224.136367 
L 106.257978 223.451817 
L 108.599136 223.451817 
L 108.811968 222.767267 
L 111.153125 222.767267 
L 111.365957 217.975416 
L 111.791622 217.975416 
L 112.004455 217.290866 
L 115.622607 217.290866 
L 115.835439 215.921766 
L 118.602261 215.921766 
L 118.815094 215.237216 
L 119.240758 215.237216 
L 119.453591 214.552666 
L 122.433245 214.552666 
L 122.646078 213.868115 
L 123.71024 213.868115 
L 123.923073 198.123463 
L 124.774402 198.123463 
L 124.987235 197.438913 
L 125.200067 197.438913 
L 125.4129 196.754363 
L 126.902727 196.754363 
L 127.115559 194.016163 
L 129.456717 194.016163 
L 129.669549 193.331613 
L 130.308046 193.331613 
L 130.520879 192.647063 
L 131.159376 192.647063 
L 131.585041 191.277963 
L 133.287701 191.277963 
L 133.500533 186.486112 
L 135.628858 186.486112 
L 136.054523 184.432462 
L 137.757182 184.432462 
L 137.970015 183.063362 
L 140.09834 183.063362 
L 140.311172 182.378812 
L 141.800999 182.378812 
L 142.013832 181.694261 
L 143.077994 181.694261 
L 143.290826 176.902411 
L 144.567821 176.902411 
L 144.780654 176.217861 
L 145.419151 176.217861 
L 145.631983 174.164211 
L 154.570947 174.164211 
L 154.783779 162.526859 
L 154.996612 161.157759 
L 155.209444 161.157759 
L 155.422277 160.473209 
L 159.466093 160.473209 
L 159.678926 159.788659 
L 160.104591 156.365908 
L 160.317423 152.258608 
L 162.65858 152.258608 
L 162.871413 151.574058 
L 170.959046 151.574058 
L 171.171879 150.889508 
L 172.874538 150.889508 
L 173.300203 149.520407 
L 174.364365 149.520407 
L 174.577198 148.835857 
L 177.131187 148.835857 
L 177.34402 148.151307 
L 178.19535 148.151307 
L 178.621015 146.782207 
L 180.749339 146.782207 
L 181.175004 145.413107 
L 190.3268 145.413107 
L 190.539632 144.728557 
L 192.880789 144.728557 
L 193.093622 144.044007 
L 193.519287 144.044007 
L 193.732119 142.674907 
L 196.286109 142.674907 
L 196.711774 141.305806 
L 200.542758 141.305806 
L 200.75559 140.621256 
L 216.079528 140.621256 
L 216.29236 139.936706 
L 235.234449 139.936706 
L 235.447281 135.829406 
L 238.214103 135.829406 
L 238.426936 135.144856 
L 239.065433 135.144856 
L 239.278266 134.460306 
L 240.980925 134.460306 
L 241.193758 131.722105 
L 241.40659 131.722105 
L 241.619423 130.353005 
L 241.832255 130.353005 
L 242.045088 129.668455 
L 243.747747 129.668455 
L 243.96058 128.983905 
L 253.53804 128.983905 
L 253.750873 128.299355 
L 254.176538 128.299355 
L 254.38937 127.614805 
L 254.602203 127.614805 
L 254.815035 126.930255 
L 257.369025 126.930255 
L 257.581857 126.245705 
L 270.564637 126.245705 
L 270.77747 125.561154 
L 273.969956 125.561154 
L 274.182789 124.876604 
L 277.375276 124.876604 
L 277.588108 122.822954 
L 279.290768 122.822954 
L 279.5036 122.138404 
L 283.121752 122.138404 
L 283.334585 121.453854 
L 287.378401 121.453854 
L 287.591234 120.769304 
L 289.293894 120.769304 
L 289.506726 120.084754 
L 289.932391 120.084754 
L 290.145223 119.400204 
L 299.297019 119.400204 
L 299.509852 118.715654 
L 302.489506 118.715654 
L 302.915171 117.346553 
L 303.128003 117.346553 
L 303.340836 116.662003 
L 303.766501 116.662003 
L 304.192166 115.292903 
L 310.57714 115.292903 
L 310.789972 114.608353 
L 316.110783 114.608353 
L 316.323616 113.923803 
L 319.941768 113.923803 
L 320.1546 113.239253 
L 345.694495 113.239253 
L 345.907328 112.554703 
L 347.609987 112.554703 
L 347.82282 111.870153 
L 349.951144 111.870153 
L 350.163977 111.185603 
L 354.420626 111.185603 
L 354.633459 109.816503 
L 361.65693 109.816503 
L 361.869762 105.709202 
L 365.700746 105.709202 
L 365.913579 105.024652 
L 374.214045 105.024652 
L 374.426877 99.548251 
L 374.852542 98.179151 
L 375.065375 98.179151 
L 375.278207 97.494601 
L 375.916705 97.494601 
L 375.916705 97.494601 
" clip-path="url(#pab9f6ba467)" style="fill: none; stroke: #57db94; stroke-width: 1.2; stroke-linecap: round"/>
   </g>
   <g id="line2d_29">
    <path d="M 69.650795 484.607674 
L 69.863628 473.997148 
L 70.07646 473.997148 
L 70.289293 473.312598 
L 71.140623 473.312598 
L 71.566288 376.106486 
L 71.991953 358.992733 
L 72.204785 358.992733 
L 72.417617 353.516333 
L 72.63045 353.516333 
L 73.056115 351.462683 
L 73.268947 343.248081 
L 73.694612 343.248081 
L 73.907445 342.563531 
L 75.184439 342.563531 
L 75.397272 341.878981 
L 75.610104 341.878981 
L 75.822937 341.194431 
L 76.461434 341.194431 
L 76.674267 340.509881 
L 77.099932 340.509881 
L 77.312764 339.825331 
L 81.995078 339.825331 
L 82.207911 339.140781 
L 83.272073 339.140781 
L 83.484905 338.456231 
L 84.549068 338.456231 
L 84.7619 337.771681 
L 85.400397 337.771681 
L 85.61323 337.087131 
L 87.31589 337.087131 
L 87.528722 335.718031 
L 87.741555 289.168625 
L 87.954387 277.531273 
L 91.785371 277.531273 
L 91.998204 276.846723 
L 101.362832 276.846723 
L 101.575664 241.934669 
L 101.788497 241.250119 
L 102.001329 241.250119 
L 102.214162 240.565569 
L 114.558444 240.565569 
L 114.771277 232.350968 
L 115.196942 232.350968 
L 115.409774 229.612767 
L 115.622607 224.136367 
L 115.835439 224.136367 
L 116.048272 223.451817 
L 123.923073 223.451817 
L 124.135905 222.767267 
L 130.095214 222.767267 
L 130.308046 222.082716 
L 130.520879 209.076265 
L 130.733711 208.391715 
L 130.946544 208.391715 
L 131.159376 207.707165 
L 133.287701 207.707165 
L 133.500533 207.022615 
L 136.267355 207.022615 
L 136.480188 206.338065 
L 136.905853 206.338065 
L 137.118685 205.653514 
L 143.716491 205.653514 
L 143.929324 203.599864 
L 144.142156 196.069813 
L 157.550601 196.069813 
L 157.763434 178.956061 
L 159.466093 178.956061 
L 159.678926 177.586961 
L 172.236041 177.586961 
L 172.448873 172.11056 
L 185.431653 172.11056 
L 185.644486 165.94961 
L 185.857318 165.265059 
L 193.519287 165.265059 
L 193.732119 164.580509 
L 196.073276 164.580509 
L 196.711774 162.526859 
L 210.971549 162.526859 
L 211.184381 161.842309 
L 213.312706 161.842309 
L 213.525538 161.157759 
L 226.72115 161.157759 
L 226.933983 159.788659 
L 240.129595 159.788659 
L 240.342428 154.312258 
L 242.470752 154.312258 
L 242.683585 150.889508 
L 245.876072 150.889508 
L 246.088904 150.204958 
L 249.281391 150.204958 
L 249.494224 149.520407 
L 256.304862 149.520407 
L 256.517695 148.835857 
L 269.287642 148.835857 
L 269.500475 148.151307 
L 272.267297 148.151307 
L 272.480129 147.466757 
L 284.611579 147.466757 
L 284.824412 144.044007 
L 295.678867 144.044007 
L 296.104532 141.990357 
L 298.232857 141.990357 
L 298.445689 141.305806 
L 298.871354 141.305806 
L 299.297019 139.936706 
L 301.638176 139.936706 
L 301.851009 139.252156 
L 303.979333 139.252156 
L 304.192166 138.567606 
L 309.72581 138.567606 
L 309.938642 137.883056 
L 310.151475 137.883056 
L 310.364307 133.775756 
L 344.843165 133.775756 
L 345.055998 133.091205 
L 349.52548 133.091205 
L 349.738312 132.406655 
L 352.505134 132.406655 
L 352.717966 131.722105 
L 360.592767 131.722105 
L 360.8056 126.245705 
L 361.018432 124.876604 
L 362.933925 124.876604 
L 363.146757 124.192054 
L 375.916705 124.192054 
L 375.916705 124.192054 
" clip-path="url(#pab9f6ba467)" style="fill: none; stroke: #5784db; stroke-width: 1.2; stroke-linecap: round"/>
   </g>
   <g id="line2d_30">
    <path d="M 69.650795 473.312598 
L 70.07646 426.078642 
L 70.502125 387.743837 
L 70.92779 374.052835 
L 71.140623 371.314635 
L 71.991953 352.147233 
L 72.204785 351.462683 
L 72.843282 337.771681 
L 73.268947 334.34893 
L 73.694612 330.24163 
L 73.907445 329.55708 
L 74.545942 326.134329 
L 74.758774 321.342479 
L 75.822937 315.181528 
L 76.035769 315.181528 
L 76.248602 313.127878 
L 76.674267 311.758778 
L 77.099932 309.705127 
L 77.525596 309.705127 
L 77.738429 308.336027 
L 77.951261 308.336027 
L 78.164094 307.651477 
L 79.653921 307.651477 
L 79.866754 306.282377 
L 80.079586 306.282377 
L 80.292418 305.597827 
L 80.505251 298.752326 
L 80.718083 296.014126 
L 80.930916 295.329576 
L 81.143748 295.329576 
L 81.356581 294.645025 
L 81.569413 294.645025 
L 82.846408 286.430424 
L 83.05924 286.430424 
L 83.272073 285.745874 
L 83.697738 285.745874 
L 83.91057 285.061324 
L 84.123403 285.061324 
L 85.61323 276.162173 
L 85.826062 275.477623 
L 86.038895 275.477623 
L 86.251727 274.793073 
L 86.677392 272.054873 
L 87.103057 266.578472 
L 87.31589 265.893922 
L 87.528722 263.840272 
L 87.741555 263.840272 
L 87.954387 263.155722 
L 88.167219 263.155722 
L 88.805717 256.310221 
L 89.018549 254.941121 
L 89.231382 254.941121 
L 89.444214 254.25657 
L 89.657047 254.25657 
L 90.082712 252.20292 
L 90.508376 252.20292 
L 90.721209 251.51837 
L 90.934041 251.51837 
L 91.146874 250.14927 
L 91.572539 250.14927 
L 91.998204 248.09562 
L 92.423869 248.09562 
L 92.636701 247.41107 
L 92.849534 247.41107 
L 93.062366 246.72652 
L 93.275198 246.72652 
L 93.488031 243.988319 
L 93.700863 239.196469 
L 93.913696 237.142818 
L 95.403523 237.142818 
L 95.616356 236.458268 
L 95.829188 236.458268 
L 96.04202 235.773718 
L 96.467685 235.773718 
L 96.89335 233.720068 
L 97.106183 233.035518 
L 97.531848 233.035518 
L 97.74468 232.350968 
L 97.957513 232.350968 
L 98.170345 229.612767 
L 98.383177 228.928217 
L 99.44734 228.928217 
L 99.660172 222.767267 
L 99.873005 221.398166 
L 100.29867 221.398166 
L 100.511502 220.713616 
L 101.575664 220.713616 
L 101.788497 220.029066 
L 102.001329 220.029066 
L 102.214162 219.344516 
L 105.619481 219.344516 
L 106.257978 217.290866 
L 107.109308 217.290866 
L 107.322141 216.606316 
L 108.599136 216.606316 
L 108.811968 215.921766 
L 109.663298 215.921766 
L 109.87613 213.868115 
L 110.088963 213.183565 
L 111.791622 213.183565 
L 112.004455 212.499015 
L 112.642952 212.499015 
L 112.855785 211.129915 
L 115.196942 211.129915 
L 115.409774 208.391715 
L 115.622607 202.915314 
L 116.048272 200.861664 
L 117.963764 200.861664 
L 118.176596 200.177114 
L 118.602261 200.177114 
L 118.815094 199.492564 
L 119.027926 199.492564 
L 119.453591 198.123463 
L 120.092088 198.123463 
L 120.304921 196.069813 
L 121.581916 196.069813 
L 121.794748 194.700713 
L 122.00758 194.700713 
L 122.220413 194.016163 
L 123.71024 194.016163 
L 124.135905 192.647063 
L 124.56157 192.647063 
L 124.987235 191.277963 
L 125.200067 191.277963 
L 125.4129 190.593413 
L 125.838565 190.593413 
L 126.051397 189.908862 
L 126.26423 189.908862 
L 126.477062 189.224312 
L 127.966889 189.224312 
L 128.179722 187.170662 
L 128.818219 187.170662 
L 129.031052 186.486112 
L 129.456717 186.486112 
L 129.669549 185.801562 
L 130.308046 185.801562 
L 130.520879 185.117012 
L 130.946544 185.117012 
L 131.159376 184.432462 
L 131.585041 182.378812 
L 133.287701 182.378812 
L 133.500533 181.694261 
L 133.926198 181.694261 
L 134.139031 181.009711 
L 135.628858 181.009711 
L 136.054523 179.640611 
L 136.267355 179.640611 
L 136.480188 178.956061 
L 136.905853 178.956061 
L 137.118685 178.271511 
L 140.09834 178.271511 
L 140.311172 177.586961 
L 141.800999 177.586961 
L 142.013832 176.217861 
L 142.439497 176.217861 
L 142.652329 175.533311 
L 143.077994 175.533311 
L 143.290826 170.74146 
L 144.567821 170.74146 
L 144.780654 170.05691 
L 145.419151 170.05691 
L 145.631983 169.37236 
L 154.570947 169.37236 
L 154.783779 157.735008 
L 154.996612 156.365908 
L 155.209444 156.365908 
L 155.635109 154.996808 
L 156.060774 154.996808 
L 156.486439 153.627708 
L 157.550601 153.627708 
L 157.763434 152.943158 
L 157.976266 152.943158 
L 158.401931 151.574058 
L 159.466093 151.574058 
L 159.678926 150.889508 
L 160.104591 147.466757 
L 162.65858 147.466757 
L 163.084245 146.097657 
L 172.874538 146.097657 
L 173.087371 145.413107 
L 173.300203 144.044007 
L 174.364365 144.044007 
L 174.577198 143.359457 
L 177.131187 143.359457 
L 177.34402 142.674907 
L 178.19535 142.674907 
L 178.621015 141.305806 
L 180.749339 141.305806 
L 180.962172 140.621256 
L 182.239166 140.621256 
L 182.451999 139.936706 
L 190.3268 139.936706 
L 190.539632 139.252156 
L 192.880789 139.252156 
L 193.093622 138.567606 
L 193.519287 138.567606 
L 193.732119 137.198506 
L 196.286109 137.198506 
L 196.711774 135.829406 
L 200.542758 135.829406 
L 200.75559 135.144856 
L 213.099873 135.144856 
L 213.312706 134.460306 
L 221.400339 134.460306 
L 221.613171 133.775756 
L 224.592826 133.775756 
L 224.805658 133.091205 
L 234.170287 133.091205 
L 234.383119 131.722105 
L 235.021616 131.722105 
L 235.447281 130.353005 
L 236.298611 130.353005 
L 236.511444 129.668455 
L 238.001271 129.668455 
L 238.426936 128.299355 
L 239.065433 128.299355 
L 239.278266 127.614805 
L 240.768093 127.614805 
L 241.193758 126.245705 
L 241.40659 126.245705 
L 241.619423 124.876604 
L 241.832255 124.876604 
L 242.045088 124.192054 
L 243.747747 124.192054 
L 243.96058 123.507504 
L 253.53804 123.507504 
L 253.750873 122.822954 
L 254.176538 122.822954 
L 254.38937 122.138404 
L 254.602203 122.138404 
L 254.815035 121.453854 
L 257.369025 121.453854 
L 257.581857 120.769304 
L 265.456658 120.769304 
L 265.669491 120.084754 
L 272.267297 120.084754 
L 272.480129 119.400204 
L 273.757124 119.400204 
L 274.182789 118.031104 
L 277.375276 118.031104 
L 277.588108 117.346553 
L 279.290768 117.346553 
L 279.5036 116.662003 
L 280.780595 116.662003 
L 281.20626 114.608353 
L 289.293894 114.608353 
L 289.506726 113.923803 
L 289.932391 113.923803 
L 290.145223 113.239253 
L 292.273548 113.239253 
L 292.48638 112.554703 
L 302.276674 112.554703 
L 302.489506 111.185603 
L 302.702339 111.185603 
L 302.915171 110.501053 
L 303.128003 110.501053 
L 303.340836 109.816503 
L 303.766501 109.816503 
L 304.192166 108.447402 
L 309.72581 108.447402 
L 309.938642 107.762852 
L 316.110783 107.762852 
L 316.323616 107.078302 
L 319.941768 107.078302 
L 320.1546 106.393752 
L 344.843165 106.393752 
L 345.055998 105.709202 
L 347.609987 105.709202 
L 347.82282 105.024652 
L 349.951144 105.024652 
L 350.163977 104.340102 
L 352.505134 104.340102 
L 352.717966 103.655552 
L 352.930799 103.655552 
L 353.143631 102.971002 
L 355.059124 102.971002 
L 355.271956 102.286452 
L 355.484788 102.286452 
L 355.697621 100.232801 
L 358.677275 100.232801 
L 358.890108 98.863701 
L 360.592767 98.863701 
L 361.018432 97.494601 
L 361.869762 97.494601 
L 362.082595 96.810051 
L 374.214045 96.810051 
L 374.426877 91.33365 
L 374.852542 89.96455 
L 375.065375 89.96455 
L 375.278207 89.28 
L 375.916705 89.28 
L 375.916705 89.28 
" clip-path="url(#pab9f6ba467)" style="fill: none; stroke: #c957db; stroke-width: 1.2; stroke-linecap: round"/>
   </g>
   <g id="line2d_31"/>
   <g id="line2d_32"/>
   <g id="line2d_33"/>
   <g id="line2d_34"/>
   <g id="line2d_35"/>
   <g id="patch_3">
    <path d="M 54.3375 512.64 
L 54.3375 69.12 
" style="fill: none; stroke: #cccccc; stroke-linejoin: miter; stroke-linecap: square"/>
   </g>
   <g id="patch_4">
    <path d="M 54.3375 512.64 
L 391.23 512.64 
" style="fill: none; stroke: #cccccc; stroke-linejoin: miter; stroke-linecap: square"/>
   </g>
   <g id="text_28">
    <!-- Edge Coverage History -->
    <g style="fill: #262626" transform="translate(115.892262 63.12)scale(0.165888 -0.165888)">
     <defs>
      <path id="DejaVuSans-Bold-45" d="M 588 4666 
L 3834 4666 
L 3834 3756 
L 1791 3756 
L 1791 2888 
L 3713 2888 
L 3713 1978 
L 1791 1978 
L 1791 909 
L 3903 909 
L 3903 0 
L 588 0 
L 588 4666 
z
" transform="scale(0.015625)"/>
      <path id="DejaVuSans-Bold-64" d="M 2919 2988 
L 2919 4863 
L 4044 4863 
L 4044 0 
L 2919 0 
L 2919 506 
Q 2688 197 2409 53 
Q 2131 -91 1766 -91 
Q 1119 -91 703 423 
Q 288 938 288 1747 
Q 288 2556 703 3070 
Q 1119 3584 1766 3584 
Q 2128 3584 2408 3439 
Q 2688 3294 2919 2988 
z
M 2181 722 
Q 2541 722 2730 984 
Q 2919 1247 2919 1747 
Q 2919 2247 2730 2509 
Q 2541 2772 2181 2772 
Q 1825 2772 1636 2509 
Q 1447 2247 1447 1747 
Q 1447 1247 1636 984 
Q 1825 722 2181 722 
z
" transform="scale(0.015625)"/>
      <path id="DejaVuSans-Bold-67" d="M 2919 594 
Q 2688 288 2409 144 
Q 2131 0 1766 0 
Q 1125 0 706 504 
Q 288 1009 288 1791 
Q 288 2575 706 3076 
Q 1125 3578 1766 3578 
Q 2131 3578 2409 3434 
Q 2688 3291 2919 2981 
L 2919 3500 
L 4044 3500 
L 4044 353 
Q 4044 -491 3511 -936 
Q 2978 -1381 1966 -1381 
Q 1638 -1381 1331 -1331 
Q 1025 -1281 716 -1178 
L 716 -306 
Q 1009 -475 1290 -558 
Q 1572 -641 1856 -641 
Q 2406 -641 2662 -400 
Q 2919 -159 2919 353 
L 2919 594 
z
M 2181 2772 
Q 1834 2772 1640 2515 
Q 1447 2259 1447 1791 
Q 1447 1309 1634 1061 
Q 1822 813 2181 813 
Q 2531 813 2725 1069 
Q 2919 1325 2919 1791 
Q 2919 2259 2725 2515 
Q 2531 2772 2181 2772 
z
" transform="scale(0.015625)"/>
      <path id="DejaVuSans-Bold-65" d="M 4031 1759 
L 4031 1441 
L 1416 1441 
Q 1456 1047 1700 850 
Q 1944 653 2381 653 
Q 2734 653 3104 758 
Q 3475 863 3866 1075 
L 3866 213 
Q 3469 63 3072 -14 
Q 2675 -91 2278 -91 
Q 1328 -91 801 392 
Q 275 875 275 1747 
Q 275 2603 792 3093 
Q 1309 3584 2216 3584 
Q 3041 3584 3536 3087 
Q 4031 2591 4031 1759 
z
M 2881 2131 
Q 2881 2450 2695 2645 
Q 2509 2841 2209 2841 
Q 1884 2841 1681 2658 
Q 1478 2475 1428 2131 
L 2881 2131 
z
" transform="scale(0.015625)"/>
      <path id="DejaVuSans-Bold-20" transform="scale(0.015625)"/>
      <path id="DejaVuSans-Bold-43" d="M 4288 256 
Q 3956 84 3597 -3 
Q 3238 -91 2847 -91 
Q 1681 -91 1000 561 
Q 319 1213 319 2328 
Q 319 3447 1000 4098 
Q 1681 4750 2847 4750 
Q 3238 4750 3597 4662 
Q 3956 4575 4288 4403 
L 4288 3438 
Q 3953 3666 3628 3772 
Q 3303 3878 2944 3878 
Q 2300 3878 1931 3465 
Q 1563 3053 1563 2328 
Q 1563 1606 1931 1193 
Q 2300 781 2944 781 
Q 3303 781 3628 887 
Q 3953 994 4288 1222 
L 4288 256 
z
" transform="scale(0.015625)"/>
      <path id="DejaVuSans-Bold-6f" d="M 2203 2784 
Q 1831 2784 1636 2517 
Q 1441 2250 1441 1747 
Q 1441 1244 1636 976 
Q 1831 709 2203 709 
Q 2569 709 2762 976 
Q 2956 1244 2956 1747 
Q 2956 2250 2762 2517 
Q 2569 2784 2203 2784 
z
M 2203 3584 
Q 3106 3584 3614 3096 
Q 4122 2609 4122 1747 
Q 4122 884 3614 396 
Q 3106 -91 2203 -91 
Q 1297 -91 786 396 
Q 275 884 275 1747 
Q 275 2609 786 3096 
Q 1297 3584 2203 3584 
z
" transform="scale(0.015625)"/>
      <path id="DejaVuSans-Bold-76" d="M 97 3500 
L 1216 3500 
L 2088 1081 
L 2956 3500 
L 4078 3500 
L 2700 0 
L 1472 0 
L 97 3500 
z
" transform="scale(0.015625)"/>
      <path id="DejaVuSans-Bold-72" d="M 3138 2547 
Q 2991 2616 2845 2648 
Q 2700 2681 2553 2681 
Q 2122 2681 1889 2404 
Q 1656 2128 1656 1613 
L 1656 0 
L 538 0 
L 538 3500 
L 1656 3500 
L 1656 2925 
Q 1872 3269 2151 3426 
Q 2431 3584 2822 3584 
Q 2878 3584 2943 3579 
Q 3009 3575 3134 3559 
L 3138 2547 
z
" transform="scale(0.015625)"/>
      <path id="DejaVuSans-Bold-61" d="M 2106 1575 
Q 1756 1575 1579 1456 
Q 1403 1338 1403 1106 
Q 1403 894 1545 773 
Q 1688 653 1941 653 
Q 2256 653 2472 879 
Q 2688 1106 2688 1447 
L 2688 1575 
L 2106 1575 
z
M 3816 1997 
L 3816 0 
L 2688 0 
L 2688 519 
Q 2463 200 2181 54 
Q 1900 -91 1497 -91 
Q 953 -91 614 226 
Q 275 544 275 1050 
Q 275 1666 698 1953 
Q 1122 2241 2028 2241 
L 2688 2241 
L 2688 2328 
Q 2688 2594 2478 2717 
Q 2269 2841 1825 2841 
Q 1466 2841 1156 2769 
Q 847 2697 581 2553 
L 581 3406 
Q 941 3494 1303 3539 
Q 1666 3584 2028 3584 
Q 2975 3584 3395 3211 
Q 3816 2838 3816 1997 
z
" transform="scale(0.015625)"/>
      <path id="DejaVuSans-Bold-48" d="M 588 4666 
L 1791 4666 
L 1791 2888 
L 3566 2888 
L 3566 4666 
L 4769 4666 
L 4769 0 
L 3566 0 
L 3566 1978 
L 1791 1978 
L 1791 0 
L 588 0 
L 588 4666 
z
" transform="scale(0.015625)"/>
      <path id="DejaVuSans-Bold-69" d="M 538 3500 
L 1656 3500 
L 1656 0 
L 538 0 
L 538 3500 
z
M 538 4863 
L 1656 4863 
L 1656 3950 
L 538 3950 
L 538 4863 
z
" transform="scale(0.015625)"/>
      <path id="DejaVuSans-Bold-73" d="M 3272 3391 
L 3272 2541 
Q 2913 2691 2578 2766 
Q 2244 2841 1947 2841 
Q 1628 2841 1473 2761 
Q 1319 2681 1319 2516 
Q 1319 2381 1436 2309 
Q 1553 2238 1856 2203 
L 2053 2175 
Q 2913 2066 3209 1816 
Q 3506 1566 3506 1031 
Q 3506 472 3093 190 
Q 2681 -91 1863 -91 
Q 1516 -91 1145 -36 
Q 775 19 384 128 
L 384 978 
Q 719 816 1070 734 
Q 1422 653 1784 653 
Q 2113 653 2278 743 
Q 2444 834 2444 1013 
Q 2444 1163 2330 1236 
Q 2216 1309 1875 1350 
L 1678 1375 
Q 931 1469 631 1722 
Q 331 1975 331 2491 
Q 331 3047 712 3315 
Q 1094 3584 1881 3584 
Q 2191 3584 2531 3537 
Q 2872 3491 3272 3391 
z
" transform="scale(0.015625)"/>
      <path id="DejaVuSans-Bold-74" d="M 1759 4494 
L 1759 3500 
L 2913 3500 
L 2913 2700 
L 1759 2700 
L 1759 1216 
Q 1759 972 1856 886 
Q 1953 800 2241 800 
L 2816 800 
L 2816 0 
L 1856 0 
Q 1194 0 917 276 
Q 641 553 641 1216 
L 641 2700 
L 84 2700 
L 84 3500 
L 641 3500 
L 641 4494 
L 1759 4494 
z
" transform="scale(0.015625)"/>
      <path id="DejaVuSans-Bold-79" d="M 78 3500 
L 1197 3500 
L 2138 1125 
L 2938 3500 
L 4056 3500 
L 2584 -331 
Q 2363 -916 2067 -1148 
Q 1772 -1381 1288 -1381 
L 641 -1381 
L 641 -647 
L 991 -647 
Q 1275 -647 1404 -556 
Q 1534 -466 1606 -231 
L 1638 -134 
L 78 3500 
z
" transform="scale(0.015625)"/>
     </defs>
     <use xlink:href="#DejaVuSans-Bold-45"/>
     <use xlink:href="#DejaVuSans-Bold-64" x="68.310547"/>
     <use xlink:href="#DejaVuSans-Bold-67" x="139.892578"/>
     <use xlink:href="#DejaVuSans-Bold-65" x="211.474609"/>
     <use xlink:href="#DejaVuSans-Bold-20" x="279.296875"/>
     <use xlink:href="#DejaVuSans-Bold-43" x="314.111328"/>
     <use xlink:href="#DejaVuSans-Bold-6f" x="387.5"/>
     <use xlink:href="#DejaVuSans-Bold-76" x="456.201172"/>
     <use xlink:href="#DejaVuSans-Bold-65" x="521.386719"/>
     <use xlink:href="#DejaVuSans-Bold-72" x="589.208984"/>
     <use xlink:href="#DejaVuSans-Bold-61" x="638.525391"/>
     <use xlink:href="#DejaVuSans-Bold-67" x="706.005859"/>
     <use xlink:href="#DejaVuSans-Bold-65" x="777.587891"/>
     <use xlink:href="#DejaVuSans-Bold-20" x="845.410156"/>
     <use xlink:href="#DejaVuSans-Bold-48" x="880.224609"/>
     <use xlink:href="#DejaVuSans-Bold-69" x="963.916016"/>
     <use xlink:href="#DejaVuSans-Bold-73" x="998.193359"/>
     <use xlink:href="#DejaVuSans-Bold-74" x="1057.714844"/>
     <use xlink:href="#DejaVuSans-Bold-6f" x="1105.517578"/>
     <use xlink:href="#DejaVuSans-Bold-72" x="1174.21875"/>
     <use xlink:href="#DejaVuSans-Bold-79" x="1223.535156"/>
    </g>
   </g>
   <g id="legend_1">
    <g id="patch_5">
     <path d="M 267.942 508.24 
L 385.07 508.24 
Q 386.83 508.24 386.83 506.48 
L 386.83 428.8405 
Q 386.83 427.0805 385.07 427.0805 
L 267.942 427.0805 
Q 266.182 427.0805 266.182 428.8405 
L 266.182 506.48 
Q 266.182 508.24 267.942 508.24 
z
" style="fill: #ffffff; opacity: 0.8; stroke: #cccccc; stroke-width: 0.8; stroke-linejoin: miter"/>
    </g>
    <g id="text_29">
     <!-- fuzzer -->
     <g style="fill: #262626" transform="translate(311.809 437.895)scale(0.096 -0.096)">
      <defs>
       <path id="DejaVuSans-66" d="M 2375 4863 
L 2375 4384 
L 1825 4384 
Q 1516 4384 1395 4259 
Q 1275 4134 1275 3809 
L 1275 3500 
L 2222 3500 
L 2222 3053 
L 1275 3053 
L 1275 0 
L 697 0 
L 697 3053 
L 147 3053 
L 147 3500 
L 697 3500 
L 697 3744 
Q 697 4328 969 4595 
Q 1241 4863 1831 4863 
L 2375 4863 
z
" transform="scale(0.015625)"/>
       <path id="DejaVuSans-7a" d="M 353 3500 
L 3084 3500 
L 3084 2975 
L 922 459 
L 3084 459 
L 3084 0 
L 275 0 
L 275 525 
L 2438 3041 
L 353 3041 
L 353 3500 
z
" transform="scale(0.015625)"/>
      </defs>
      <use xlink:href="#DejaVuSans-66"/>
      <use xlink:href="#DejaVuSans-75" x="35.205078"/>
      <use xlink:href="#DejaVuSans-7a" x="98.583984"/>
      <use xlink:href="#DejaVuSans-7a" x="151.074219"/>
      <use xlink:href="#DejaVuSans-65" x="203.564453"/>
      <use xlink:href="#DejaVuSans-72" x="265.087891"/>
     </g>
    </g>
    <g id="line2d_36">
     <path d="M 269.702 447.898125 
L 278.502 447.898125 
L 287.302 447.898125 
" style="fill: none; stroke: #db5f57; stroke-width: 1.2; stroke-linecap: round"/>
    </g>
    <g id="text_30">
     <!-- aflplusplus-0-exid23 -->
     <g style="fill: #262626" transform="translate(294.342 450.978125)scale(0.088 -0.088)">
      <defs>
       <path id="DejaVuSans-6c" d="M 603 4863 
L 1178 4863 
L 1178 0 
L 603 0 
L 603 4863 
z
" transform="scale(0.015625)"/>
       <path id="DejaVuSans-70" d="M 1159 525 
L 1159 -1331 
L 581 -1331 
L 581 3500 
L 1159 3500 
L 1159 2969 
Q 1341 3281 1617 3432 
Q 1894 3584 2278 3584 
Q 2916 3584 3314 3078 
Q 3713 2572 3713 1747 
Q 3713 922 3314 415 
Q 2916 -91 2278 -91 
Q 1894 -91 1617 61 
Q 1341 213 1159 525 
z
M 3116 1747 
Q 3116 2381 2855 2742 
Q 2594 3103 2138 3103 
Q 1681 3103 1420 2742 
Q 1159 2381 1159 1747 
Q 1159 1113 1420 752 
Q 1681 391 2138 391 
Q 2594 391 2855 752 
Q 3116 1113 3116 1747 
z
" transform="scale(0.015625)"/>
       <path id="DejaVuSans-2d" d="M 313 2009 
L 1997 2009 
L 1997 1497 
L 313 1497 
L 313 2009 
z
" transform="scale(0.015625)"/>
       <path id="DejaVuSans-78" d="M 3513 3500 
L 2247 1797 
L 3578 0 
L 2900 0 
L 1881 1375 
L 863 0 
L 184 0 
L 1544 1831 
L 300 3500 
L 978 3500 
L 1906 2253 
L 2834 3500 
L 3513 3500 
z
" transform="scale(0.015625)"/>
      </defs>
      <use xlink:href="#DejaVuSans-61"/>
      <use xlink:href="#DejaVuSans-66" x="61.279297"/>
      <use xlink:href="#DejaVuSans-6c" x="96.484375"/>
      <use xlink:href="#DejaVuSans-70" x="124.267578"/>
      <use xlink:href="#DejaVuSans-6c" x="187.744141"/>
      <use xlink:href="#DejaVuSans-75" x="215.527344"/>
      <use xlink:href="#DejaVuSans-73" x="278.90625"/>
      <use xlink:href="#DejaVuSans-70" x="331.005859"/>
      <use xlink:href="#DejaVuSans-6c" x="394.482422"/>
      <use xlink:href="#DejaVuSans-75" x="422.265625"/>
      <use xlink:href="#DejaVuSans-73" x="485.644531"/>
      <use xlink:href="#DejaVuSans-2d" x="537.744141"/>
      <use xlink:href="#DejaVuSans-30" x="573.828125"/>
      <use xlink:href="#DejaVuSans-2d" x="637.451172"/>
      <use xlink:href="#DejaVuSans-65" x="673.535156"/>
      <use xlink:href="#DejaVuSans-78" x="733.308594"/>
      <use xlink:href="#DejaVuSans-69" x="792.488281"/>
      <use xlink:href="#DejaVuSans-64" x="820.271484"/>
      <use xlink:href="#DejaVuSans-32" x="883.748047"/>
      <use xlink:href="#DejaVuSans-33" x="947.371094"/>
     </g>
    </g>
    <g id="line2d_37">
     <path d="M 269.702 460.814875 
L 278.502 460.814875 
L 287.302 460.814875 
" style="fill: none; stroke: #b9db57; stroke-width: 1.2; stroke-linecap: round"/>
    </g>
    <g id="text_31">
     <!-- afl-0-exid23 -->
     <g style="fill: #262626" transform="translate(294.342 463.894875)scale(0.088 -0.088)">
      <use xlink:href="#DejaVuSans-61"/>
      <use xlink:href="#DejaVuSans-66" x="61.279297"/>
      <use xlink:href="#DejaVuSans-6c" x="96.484375"/>
      <use xlink:href="#DejaVuSans-2d" x="124.267578"/>
      <use xlink:href="#DejaVuSans-30" x="160.351562"/>
      <use xlink:href="#DejaVuSans-2d" x="223.974609"/>
      <use xlink:href="#DejaVuSans-65" x="260.058594"/>
      <use xlink:href="#DejaVuSans-78" x="319.832031"/>
      <use xlink:href="#DejaVuSans-69" x="379.011719"/>
      <use xlink:href="#DejaVuSans-64" x="406.794922"/>
      <use xlink:href="#DejaVuSans-32" x="470.271484"/>
      <use xlink:href="#DejaVuSans-33" x="533.894531"/>
     </g>
    </g>
    <g id="line2d_38">
     <path d="M 269.702 473.731625 
L 278.502 473.731625 
L 287.302 473.731625 
" style="fill: none; stroke: #57db94; stroke-width: 1.2; stroke-linecap: round"/>
    </g>
    <g id="text_32">
     <!-- fairfuzz-0-exid23 -->
     <g style="fill: #262626" transform="translate(294.342 476.811625)scale(0.088 -0.088)">
      <use xlink:href="#DejaVuSans-66"/>
      <use xlink:href="#DejaVuSans-61" x="35.205078"/>
      <use xlink:href="#DejaVuSans-69" x="96.484375"/>
      <use xlink:href="#DejaVuSans-72" x="124.267578"/>
      <use xlink:href="#DejaVuSans-66" x="165.380859"/>
      <use xlink:href="#DejaVuSans-75" x="200.585938"/>
      <use xlink:href="#DejaVuSans-7a" x="263.964844"/>
      <use xlink:href="#DejaVuSans-7a" x="316.455078"/>
      <use xlink:href="#DejaVuSans-2d" x="368.945312"/>
      <use xlink:href="#DejaVuSans-30" x="405.029297"/>
      <use xlink:href="#DejaVuSans-2d" x="468.652344"/>
      <use xlink:href="#DejaVuSans-65" x="504.736328"/>
      <use xlink:href="#DejaVuSans-78" x="564.509766"/>
      <use xlink:href="#DejaVuSans-69" x="623.689453"/>
      <use xlink:href="#DejaVuSans-64" x="651.472656"/>
      <use xlink:href="#DejaVuSans-32" x="714.949219"/>
      <use xlink:href="#DejaVuSans-33" x="778.572266"/>
     </g>
    </g>
    <g id="line2d_39">
     <path d="M 269.702 486.648375 
L 278.502 486.648375 
L 287.302 486.648375 
" style="fill: none; stroke: #5784db; stroke-width: 1.2; stroke-linecap: round"/>
    </g>
    <g id="text_33">
     <!-- aflfast-0-exid23 -->
     <g style="fill: #262626" transform="translate(294.342 489.728375)scale(0.088 -0.088)">
      <use xlink:href="#DejaVuSans-61"/>
      <use xlink:href="#DejaVuSans-66" x="61.279297"/>
      <use xlink:href="#DejaVuSans-6c" x="96.484375"/>
      <use xlink:href="#DejaVuSans-66" x="124.267578"/>
      <use xlink:href="#DejaVuSans-61" x="159.472656"/>
      <use xlink:href="#DejaVuSans-73" x="220.751953"/>
      <use xlink:href="#DejaVuSans-74" x="272.851562"/>
      <use xlink:href="#DejaVuSans-2d" x="312.060547"/>
      <use xlink:href="#DejaVuSans-30" x="348.144531"/>
      <use xlink:href="#DejaVuSans-2d" x="411.767578"/>
      <use xlink:href="#DejaVuSans-65" x="447.851562"/>
      <use xlink:href="#DejaVuSans-78" x="507.625"/>
      <use xlink:href="#DejaVuSans-69" x="566.804688"/>
      <use xlink:href="#DejaVuSans-64" x="594.587891"/>
      <use xlink:href="#DejaVuSans-32" x="658.064453"/>
      <use xlink:href="#DejaVuSans-33" x="721.6875"/>
     </g>
    </g>
    <g id="line2d_40">
     <path d="M 269.702 499.565125 
L 278.502 499.565125 
L 287.302 499.565125 
" style="fill: none; stroke: #c957db; stroke-width: 1.2; stroke-linecap: round"/>
    </g>
    <g id="text_34">
     <!-- fuzzer_global -->
     <g style="fill: #262626" transform="translate(294.342 502.645125)scale(0.088 -0.088)">
      <defs>
       <path id="DejaVuSans-5f" d="M 3263 -1063 
L 3263 -1509 
L -63 -1509 
L -63 -1063 
L 3263 -1063 
z
" transform="scale(0.015625)"/>
       <path id="DejaVuSans-62" d="M 3116 1747 
Q 3116 2381 2855 2742 
Q 2594 3103 2138 3103 
Q 1681 3103 1420 2742 
Q 1159 2381 1159 1747 
Q 1159 1113 1420 752 
Q 1681 391 2138 391 
Q 2594 391 2855 752 
Q 3116 1113 3116 1747 
z
M 1159 2969 
Q 1341 3281 1617 3432 
Q 1894 3584 2278 3584 
Q 2916 3584 3314 3078 
Q 3713 2572 3713 1747 
Q 3713 922 3314 415 
Q 2916 -91 2278 -91 
Q 1894 -91 1617 61 
Q 1341 213 1159 525 
L 1159 0 
L 581 0 
L 581 4863 
L 1159 4863 
L 1159 2969 
z
" transform="scale(0.015625)"/>
      </defs>
      <use xlink:href="#DejaVuSans-66"/>
      <use xlink:href="#DejaVuSans-75" x="35.205078"/>
      <use xlink:href="#DejaVuSans-7a" x="98.583984"/>
      <use xlink:href="#DejaVuSans-7a" x="151.074219"/>
      <use xlink:href="#DejaVuSans-65" x="203.564453"/>
      <use xlink:href="#DejaVuSans-72" x="265.087891"/>
      <use xlink:href="#DejaVuSans-5f" x="306.201172"/>
      <use xlink:href="#DejaVuSans-67" x="356.201172"/>
      <use xlink:href="#DejaVuSans-6c" x="419.677734"/>
      <use xlink:href="#DejaVuSans-6f" x="447.460938"/>
      <use xlink:href="#DejaVuSans-62" x="508.642578"/>
      <use xlink:href="#DejaVuSans-61" x="572.119141"/>
      <use xlink:href="#DejaVuSans-6c" x="633.398438"/>
     </g>
    </g>
   </g>
  </g>
 </g>
 <defs>
  <clipPath id="pab9f6ba467">
   <rect x="54.3375" y="69.12" width="336.8925" height="443.52"/>
  </clipPath>
 </defs>
</svg>
