<?xml version="1.0" encoding="utf-8" standalone="no"?>
<!DOCTYPE svg PUBLIC "-//W3C//DTD SVG 1.1//EN"
  "http://www.w3.org/Graphics/SVG/1.1/DTD/svg11.dtd">
<svg xmlns:xlink="http://www.w3.org/1999/xlink" width="434.7pt" height="576pt" viewBox="0 0 434.7 576" xmlns="http://www.w3.org/2000/svg" version="1.1">
 <metadata>
  <rdf:RDF xmlns:dc="http://purl.org/dc/elements/1.1/" xmlns:cc="http://creativecommons.org/ns#" xmlns:rdf="http://www.w3.org/1999/02/22-rdf-syntax-ns#">
   <cc:Work>
    <dc:type rdf:resource="http://purl.org/dc/dcmitype/StillImage"/>
    <dc:date>2022-09-15T09:18:08.352596</dc:date>
    <dc:format>image/svg+xml</dc:format>
    <dc:creator>
     <cc:Agent>
      <dc:title>Matplotlib v3.5.3, https://matplotlib.org/</dc:title>
     </cc:Agent>
    </dc:creator>
   </cc:Work>
  </rdf:RDF>
 </metadata>
 <defs>
  <style type="text/css">*{stroke-linejoin: round; stroke-linecap: butt}</style>
 </defs>
 <g id="figure_1">
  <g id="patch_1">
   <path d="M 0 576 
L 434.7 576 
L 434.7 0 
L 0 0 
z
" style="fill: #ffffff"/>
  </g>
  <g id="axes_1">
   <g id="patch_2">
    <path d="M 54.3375 512.64 
L 391.23 512.64 
L 391.23 69.12 
L 54.3375 69.12 
z
" style="fill: #ffffff"/>
   </g>
   <g id="matplotlib.axis_1">
    <g id="xtick_1">
     <g id="line2d_1">
      <path d="M 69.650795 512.64 
L 69.650795 69.12 
" clip-path="url(#p7361ce88ac)" style="fill: none; stroke: #cccccc; stroke-width: 0.8; stroke-linecap: round"/>
     </g>
     <g id="text_1">
      <!-- 0 -->
      <g style="fill: #262626" transform="translate(69.388282 529.627249)rotate(-45)scale(0.088 -0.088)">
       <defs>
        <path id="DejaVuSans-30" d="M 2034 4250 
Q 1547 4250 1301 3770 
Q 1056 3291 1056 2328 
Q 1056 1369 1301 889 
Q 1547 409 2034 409 
Q 2525 409 2770 889 
Q 3016 1369 3016 2328 
Q 3016 3291 2770 3770 
Q 2525 4250 2034 4250 
z
M 2034 4750 
Q 2819 4750 3233 4129 
Q 3647 3509 3647 2328 
Q 3647 1150 3233 529 
Q 2819 -91 2034 -91 
Q 1250 -91 836 529 
Q 422 1150 422 2328 
Q 422 3509 836 4129 
Q 1250 4750 2034 4750 
z
" transform="scale(0.015625)"/>
       </defs>
       <use xlink:href="#DejaVuSans-30"/>
      </g>
     </g>
    </g>
    <g id="xtick_2">
     <g id="line2d_2">
      <path d="M 86.677392 512.64 
L 86.677392 69.12 
" clip-path="url(#p7361ce88ac)" style="fill: none; stroke: #cccccc; stroke-width: 0.8; stroke-linecap: round"/>
     </g>
     <g id="text_2">
      <!-- 80 -->
      <g style="fill: #262626" transform="translate(84.435333 533.58634)rotate(-45)scale(0.088 -0.088)">
       <defs>
        <path id="DejaVuSans-38" d="M 2034 2216 
Q 1584 2216 1326 1975 
Q 1069 1734 1069 1313 
Q 1069 891 1326 650 
Q 1584 409 2034 409 
Q 2484 409 2743 651 
Q 3003 894 3003 1313 
Q 3003 1734 2745 1975 
Q 2488 2216 2034 2216 
z
M 1403 2484 
Q 997 2584 770 2862 
Q 544 3141 544 3541 
Q 544 4100 942 4425 
Q 1341 4750 2034 4750 
Q 2731 4750 3128 4425 
Q 3525 4100 3525 3541 
Q 3525 3141 3298 2862 
Q 3072 2584 2669 2484 
Q 3125 2378 3379 2068 
Q 3634 1759 3634 1313 
Q 3634 634 3220 271 
Q 2806 -91 2034 -91 
Q 1263 -91 848 271 
Q 434 634 434 1313 
Q 434 1759 690 2068 
Q 947 2378 1403 2484 
z
M 1172 3481 
Q 1172 3119 1398 2916 
Q 1625 2713 2034 2713 
Q 2441 2713 2670 2916 
Q 2900 3119 2900 3481 
Q 2900 3844 2670 4047 
Q 2441 4250 2034 4250 
Q 1625 4250 1398 4047 
Q 1172 3844 1172 3481 
z
" transform="scale(0.015625)"/>
       </defs>
       <use xlink:href="#DejaVuSans-38"/>
       <use xlink:href="#DejaVuSans-30" x="63.623047"/>
      </g>
     </g>
    </g>
    <g id="xtick_3">
     <g id="line2d_3">
      <path d="M 103.703989 512.64 
L 103.703989 69.12 
" clip-path="url(#p7361ce88ac)" style="fill: none; stroke: #cccccc; stroke-width: 0.8; stroke-linecap: round"/>
     </g>
     <g id="text_3">
      <!-- 160 -->
      <g style="fill: #262626" transform="translate(99.482385 537.54543)rotate(-45)scale(0.088 -0.088)">
       <defs>
        <path id="DejaVuSans-31" d="M 794 531 
L 1825 531 
L 1825 4091 
L 703 3866 
L 703 4441 
L 1819 4666 
L 2450 4666 
L 2450 531 
L 3481 531 
L 3481 0 
L 794 0 
L 794 531 
z
" transform="scale(0.015625)"/>
        <path id="DejaVuSans-36" d="M 2113 2584 
Q 1688 2584 1439 2293 
Q 1191 2003 1191 1497 
Q 1191 994 1439 701 
Q 1688 409 2113 409 
Q 2538 409 2786 701 
Q 3034 994 3034 1497 
Q 3034 2003 2786 2293 
Q 2538 2584 2113 2584 
z
M 3366 4563 
L 3366 3988 
Q 3128 4100 2886 4159 
Q 2644 4219 2406 4219 
Q 1781 4219 1451 3797 
Q 1122 3375 1075 2522 
Q 1259 2794 1537 2939 
Q 1816 3084 2150 3084 
Q 2853 3084 3261 2657 
Q 3669 2231 3669 1497 
Q 3669 778 3244 343 
Q 2819 -91 2113 -91 
Q 1303 -91 875 529 
Q 447 1150 447 2328 
Q 447 3434 972 4092 
Q 1497 4750 2381 4750 
Q 2619 4750 2861 4703 
Q 3103 4656 3366 4563 
z
" transform="scale(0.015625)"/>
       </defs>
       <use xlink:href="#DejaVuSans-31"/>
       <use xlink:href="#DejaVuSans-36" x="63.623047"/>
       <use xlink:href="#DejaVuSans-30" x="127.246094"/>
      </g>
     </g>
    </g>
    <g id="xtick_4">
     <g id="line2d_4">
      <path d="M 120.730586 512.64 
L 120.730586 69.12 
" clip-path="url(#p7361ce88ac)" style="fill: none; stroke: #cccccc; stroke-width: 0.8; stroke-linecap: round"/>
     </g>
     <g id="text_4">
      <!-- 240 -->
      <g style="fill: #262626" transform="translate(116.508981 537.54543)rotate(-45)scale(0.088 -0.088)">
       <defs>
        <path id="DejaVuSans-32" d="M 1228 531 
L 3431 531 
L 3431 0 
L 469 0 
L 469 531 
Q 828 903 1448 1529 
Q 2069 2156 2228 2338 
Q 2531 2678 2651 2914 
Q 2772 3150 2772 3378 
Q 2772 3750 2511 3984 
Q 2250 4219 1831 4219 
Q 1534 4219 1204 4116 
Q 875 4013 500 3803 
L 500 4441 
Q 881 4594 1212 4672 
Q 1544 4750 1819 4750 
Q 2544 4750 2975 4387 
Q 3406 4025 3406 3419 
Q 3406 3131 3298 2873 
Q 3191 2616 2906 2266 
Q 2828 2175 2409 1742 
Q 1991 1309 1228 531 
z
" transform="scale(0.015625)"/>
        <path id="DejaVuSans-34" d="M 2419 4116 
L 825 1625 
L 2419 1625 
L 2419 4116 
z
M 2253 4666 
L 3047 4666 
L 3047 1625 
L 3713 1625 
L 3713 1100 
L 3047 1100 
L 3047 0 
L 2419 0 
L 2419 1100 
L 313 1100 
L 313 1709 
L 2253 4666 
z
" transform="scale(0.015625)"/>
       </defs>
       <use xlink:href="#DejaVuSans-32"/>
       <use xlink:href="#DejaVuSans-34" x="63.623047"/>
       <use xlink:href="#DejaVuSans-30" x="127.246094"/>
      </g>
     </g>
    </g>
    <g id="xtick_5">
     <g id="line2d_5">
      <path d="M 137.757182 512.64 
L 137.757182 69.12 
" clip-path="url(#p7361ce88ac)" style="fill: none; stroke: #cccccc; stroke-width: 0.8; stroke-linecap: round"/>
     </g>
     <g id="text_5">
      <!-- 320 -->
      <g style="fill: #262626" transform="translate(133.535578 537.54543)rotate(-45)scale(0.088 -0.088)">
       <defs>
        <path id="DejaVuSans-33" d="M 2597 2516 
Q 3050 2419 3304 2112 
Q 3559 1806 3559 1356 
Q 3559 666 3084 287 
Q 2609 -91 1734 -91 
Q 1441 -91 1130 -33 
Q 819 25 488 141 
L 488 750 
Q 750 597 1062 519 
Q 1375 441 1716 441 
Q 2309 441 2620 675 
Q 2931 909 2931 1356 
Q 2931 1769 2642 2001 
Q 2353 2234 1838 2234 
L 1294 2234 
L 1294 2753 
L 1863 2753 
Q 2328 2753 2575 2939 
Q 2822 3125 2822 3475 
Q 2822 3834 2567 4026 
Q 2313 4219 1838 4219 
Q 1578 4219 1281 4162 
Q 984 4106 628 3988 
L 628 4550 
Q 988 4650 1302 4700 
Q 1616 4750 1894 4750 
Q 2613 4750 3031 4423 
Q 3450 4097 3450 3541 
Q 3450 3153 3228 2886 
Q 3006 2619 2597 2516 
z
" transform="scale(0.015625)"/>
       </defs>
       <use xlink:href="#DejaVuSans-33"/>
       <use xlink:href="#DejaVuSans-32" x="63.623047"/>
       <use xlink:href="#DejaVuSans-30" x="127.246094"/>
      </g>
     </g>
    </g>
    <g id="xtick_6">
     <g id="line2d_6">
      <path d="M 154.783779 512.64 
L 154.783779 69.12 
" clip-path="url(#p7361ce88ac)" style="fill: none; stroke: #cccccc; stroke-width: 0.8; stroke-linecap: round"/>
     </g>
     <g id="text_6">
      <!-- 400 -->
      <g style="fill: #262626" transform="translate(150.562175 537.54543)rotate(-45)scale(0.088 -0.088)">
       <use xlink:href="#DejaVuSans-34"/>
       <use xlink:href="#DejaVuSans-30" x="63.623047"/>
       <use xlink:href="#DejaVuSans-30" x="127.246094"/>
      </g>
     </g>
    </g>
    <g id="xtick_7">
     <g id="line2d_7">
      <path d="M 171.810376 512.64 
L 171.810376 69.12 
" clip-path="url(#p7361ce88ac)" style="fill: none; stroke: #cccccc; stroke-width: 0.8; stroke-linecap: round"/>
     </g>
     <g id="text_7">
      <!-- 480 -->
      <g style="fill: #262626" transform="translate(167.588772 537.54543)rotate(-45)scale(0.088 -0.088)">
       <use xlink:href="#DejaVuSans-34"/>
       <use xlink:href="#DejaVuSans-38" x="63.623047"/>
       <use xlink:href="#DejaVuSans-30" x="127.246094"/>
      </g>
     </g>
    </g>
    <g id="xtick_8">
     <g id="line2d_8">
      <path d="M 188.836973 512.64 
L 188.836973 69.12 
" clip-path="url(#p7361ce88ac)" style="fill: none; stroke: #cccccc; stroke-width: 0.8; stroke-linecap: round"/>
     </g>
     <g id="text_8">
      <!-- 560 -->
      <g style="fill: #262626" transform="translate(184.615368 537.54543)rotate(-45)scale(0.088 -0.088)">
       <defs>
        <path id="DejaVuSans-35" d="M 691 4666 
L 3169 4666 
L 3169 4134 
L 1269 4134 
L 1269 2991 
Q 1406 3038 1543 3061 
Q 1681 3084 1819 3084 
Q 2600 3084 3056 2656 
Q 3513 2228 3513 1497 
Q 3513 744 3044 326 
Q 2575 -91 1722 -91 
Q 1428 -91 1123 -41 
Q 819 9 494 109 
L 494 744 
Q 775 591 1075 516 
Q 1375 441 1709 441 
Q 2250 441 2565 725 
Q 2881 1009 2881 1497 
Q 2881 1984 2565 2268 
Q 2250 2553 1709 2553 
Q 1456 2553 1204 2497 
Q 953 2441 691 2322 
L 691 4666 
z
" transform="scale(0.015625)"/>
       </defs>
       <use xlink:href="#DejaVuSans-35"/>
       <use xlink:href="#DejaVuSans-36" x="63.623047"/>
       <use xlink:href="#DejaVuSans-30" x="127.246094"/>
      </g>
     </g>
    </g>
    <g id="xtick_9">
     <g id="line2d_9">
      <path d="M 205.863569 512.64 
L 205.863569 69.12 
" clip-path="url(#p7361ce88ac)" style="fill: none; stroke: #cccccc; stroke-width: 0.8; stroke-linecap: round"/>
     </g>
     <g id="text_9">
      <!-- 640 -->
      <g style="fill: #262626" transform="translate(201.641965 537.54543)rotate(-45)scale(0.088 -0.088)">
       <use xlink:href="#DejaVuSans-36"/>
       <use xlink:href="#DejaVuSans-34" x="63.623047"/>
       <use xlink:href="#DejaVuSans-30" x="127.246094"/>
      </g>
     </g>
    </g>
    <g id="xtick_10">
     <g id="line2d_10">
      <path d="M 222.890166 512.64 
L 222.890166 69.12 
" clip-path="url(#p7361ce88ac)" style="fill: none; stroke: #cccccc; stroke-width: 0.8; stroke-linecap: round"/>
     </g>
     <g id="text_10">
      <!-- 720 -->
      <g style="fill: #262626" transform="translate(218.668562 537.54543)rotate(-45)scale(0.088 -0.088)">
       <defs>
        <path id="DejaVuSans-37" d="M 525 4666 
L 3525 4666 
L 3525 4397 
L 1831 0 
L 1172 0 
L 2766 4134 
L 525 4134 
L 525 4666 
z
" transform="scale(0.015625)"/>
       </defs>
       <use xlink:href="#DejaVuSans-37"/>
       <use xlink:href="#DejaVuSans-32" x="63.623047"/>
       <use xlink:href="#DejaVuSans-30" x="127.246094"/>
      </g>
     </g>
    </g>
    <g id="xtick_11">
     <g id="line2d_11">
      <path d="M 239.916763 512.64 
L 239.916763 69.12 
" clip-path="url(#p7361ce88ac)" style="fill: none; stroke: #cccccc; stroke-width: 0.8; stroke-linecap: round"/>
     </g>
     <g id="text_11">
      <!-- 800 -->
      <g style="fill: #262626" transform="translate(235.695159 537.54543)rotate(-45)scale(0.088 -0.088)">
       <use xlink:href="#DejaVuSans-38"/>
       <use xlink:href="#DejaVuSans-30" x="63.623047"/>
       <use xlink:href="#DejaVuSans-30" x="127.246094"/>
      </g>
     </g>
    </g>
    <g id="xtick_12">
     <g id="line2d_12">
      <path d="M 256.94336 512.64 
L 256.94336 69.12 
" clip-path="url(#p7361ce88ac)" style="fill: none; stroke: #cccccc; stroke-width: 0.8; stroke-linecap: round"/>
     </g>
     <g id="text_12">
      <!-- 880 -->
      <g style="fill: #262626" transform="translate(252.721755 537.54543)rotate(-45)scale(0.088 -0.088)">
       <use xlink:href="#DejaVuSans-38"/>
       <use xlink:href="#DejaVuSans-38" x="63.623047"/>
       <use xlink:href="#DejaVuSans-30" x="127.246094"/>
      </g>
     </g>
    </g>
    <g id="xtick_13">
     <g id="line2d_13">
      <path d="M 273.969956 512.64 
L 273.969956 69.12 
" clip-path="url(#p7361ce88ac)" style="fill: none; stroke: #cccccc; stroke-width: 0.8; stroke-linecap: round"/>
     </g>
     <g id="text_13">
      <!-- 960 -->
      <g style="fill: #262626" transform="translate(269.748352 537.54543)rotate(-45)scale(0.088 -0.088)">
       <defs>
        <path id="DejaVuSans-39" d="M 703 97 
L 703 672 
Q 941 559 1184 500 
Q 1428 441 1663 441 
Q 2288 441 2617 861 
Q 2947 1281 2994 2138 
Q 2813 1869 2534 1725 
Q 2256 1581 1919 1581 
Q 1219 1581 811 2004 
Q 403 2428 403 3163 
Q 403 3881 828 4315 
Q 1253 4750 1959 4750 
Q 2769 4750 3195 4129 
Q 3622 3509 3622 2328 
Q 3622 1225 3098 567 
Q 2575 -91 1691 -91 
Q 1453 -91 1209 -44 
Q 966 3 703 97 
z
M 1959 2075 
Q 2384 2075 2632 2365 
Q 2881 2656 2881 3163 
Q 2881 3666 2632 3958 
Q 2384 4250 1959 4250 
Q 1534 4250 1286 3958 
Q 1038 3666 1038 3163 
Q 1038 2656 1286 2365 
Q 1534 2075 1959 2075 
z
" transform="scale(0.015625)"/>
       </defs>
       <use xlink:href="#DejaVuSans-39"/>
       <use xlink:href="#DejaVuSans-36" x="63.623047"/>
       <use xlink:href="#DejaVuSans-30" x="127.246094"/>
      </g>
     </g>
    </g>
    <g id="xtick_14">
     <g id="line2d_14">
      <path d="M 290.996553 512.64 
L 290.996553 69.12 
" clip-path="url(#p7361ce88ac)" style="fill: none; stroke: #cccccc; stroke-width: 0.8; stroke-linecap: round"/>
     </g>
     <g id="text_14">
      <!-- 1040 -->
      <g style="fill: #262626" transform="translate(284.795404 541.504521)rotate(-45)scale(0.088 -0.088)">
       <use xlink:href="#DejaVuSans-31"/>
       <use xlink:href="#DejaVuSans-30" x="63.623047"/>
       <use xlink:href="#DejaVuSans-34" x="127.246094"/>
       <use xlink:href="#DejaVuSans-30" x="190.869141"/>
      </g>
     </g>
    </g>
    <g id="xtick_15">
     <g id="line2d_15">
      <path d="M 308.02315 512.64 
L 308.02315 69.12 
" clip-path="url(#p7361ce88ac)" style="fill: none; stroke: #cccccc; stroke-width: 0.8; stroke-linecap: round"/>
     </g>
     <g id="text_15">
      <!-- 1120 -->
      <g style="fill: #262626" transform="translate(301.822 541.504521)rotate(-45)scale(0.088 -0.088)">
       <use xlink:href="#DejaVuSans-31"/>
       <use xlink:href="#DejaVuSans-31" x="63.623047"/>
       <use xlink:href="#DejaVuSans-32" x="127.246094"/>
       <use xlink:href="#DejaVuSans-30" x="190.869141"/>
      </g>
     </g>
    </g>
    <g id="xtick_16">
     <g id="line2d_16">
      <path d="M 325.049747 512.64 
L 325.049747 69.12 
" clip-path="url(#p7361ce88ac)" style="fill: none; stroke: #cccccc; stroke-width: 0.8; stroke-linecap: round"/>
     </g>
     <g id="text_16">
      <!-- 1200 -->
      <g style="fill: #262626" transform="translate(318.848597 541.504521)rotate(-45)scale(0.088 -0.088)">
       <use xlink:href="#DejaVuSans-31"/>
       <use xlink:href="#DejaVuSans-32" x="63.623047"/>
       <use xlink:href="#DejaVuSans-30" x="127.246094"/>
       <use xlink:href="#DejaVuSans-30" x="190.869141"/>
      </g>
     </g>
    </g>
    <g id="xtick_17">
     <g id="line2d_17">
      <path d="M 342.076343 512.64 
L 342.076343 69.12 
" clip-path="url(#p7361ce88ac)" style="fill: none; stroke: #cccccc; stroke-width: 0.8; stroke-linecap: round"/>
     </g>
     <g id="text_17">
      <!-- 1280 -->
      <g style="fill: #262626" transform="translate(335.875194 541.504521)rotate(-45)scale(0.088 -0.088)">
       <use xlink:href="#DejaVuSans-31"/>
       <use xlink:href="#DejaVuSans-32" x="63.623047"/>
       <use xlink:href="#DejaVuSans-38" x="127.246094"/>
       <use xlink:href="#DejaVuSans-30" x="190.869141"/>
      </g>
     </g>
    </g>
    <g id="xtick_18">
     <g id="line2d_18">
      <path d="M 359.10294 512.64 
L 359.10294 69.12 
" clip-path="url(#p7361ce88ac)" style="fill: none; stroke: #cccccc; stroke-width: 0.8; stroke-linecap: round"/>
     </g>
     <g id="text_18">
      <!-- 1360 -->
      <g style="fill: #262626" transform="translate(352.901791 541.504521)rotate(-45)scale(0.088 -0.088)">
       <use xlink:href="#DejaVuSans-31"/>
       <use xlink:href="#DejaVuSans-33" x="63.623047"/>
       <use xlink:href="#DejaVuSans-36" x="127.246094"/>
       <use xlink:href="#DejaVuSans-30" x="190.869141"/>
      </g>
     </g>
    </g>
    <g id="xtick_19">
     <g id="line2d_19">
      <path d="M 376.129537 512.64 
L 376.129537 69.12 
" clip-path="url(#p7361ce88ac)" style="fill: none; stroke: #cccccc; stroke-width: 0.8; stroke-linecap: round"/>
     </g>
     <g id="text_19">
      <!-- 1440 -->
      <g style="fill: #262626" transform="translate(369.928387 541.504521)rotate(-45)scale(0.088 -0.088)">
       <use xlink:href="#DejaVuSans-31"/>
       <use xlink:href="#DejaVuSans-34" x="63.623047"/>
       <use xlink:href="#DejaVuSans-34" x="127.246094"/>
       <use xlink:href="#DejaVuSans-30" x="190.869141"/>
      </g>
     </g>
    </g>
    <g id="text_20">
     <!-- Time (Minutes) -->
     <g style="fill: #262626" transform="translate(186.87375 554.093115)scale(0.096 -0.096)">
      <defs>
       <path id="DejaVuSans-54" d="M -19 4666 
L 3928 4666 
L 3928 4134 
L 2272 4134 
L 2272 0 
L 1638 0 
L 1638 4134 
L -19 4134 
L -19 4666 
z
" transform="scale(0.015625)"/>
       <path id="DejaVuSans-69" d="M 603 3500 
L 1178 3500 
L 1178 0 
L 603 0 
L 603 3500 
z
M 603 4863 
L 1178 4863 
L 1178 4134 
L 603 4134 
L 603 4863 
z
" transform="scale(0.015625)"/>
       <path id="DejaVuSans-6d" d="M 3328 2828 
Q 3544 3216 3844 3400 
Q 4144 3584 4550 3584 
Q 5097 3584 5394 3201 
Q 5691 2819 5691 2113 
L 5691 0 
L 5113 0 
L 5113 2094 
Q 5113 2597 4934 2840 
Q 4756 3084 4391 3084 
Q 3944 3084 3684 2787 
Q 3425 2491 3425 1978 
L 3425 0 
L 2847 0 
L 2847 2094 
Q 2847 2600 2669 2842 
Q 2491 3084 2119 3084 
Q 1678 3084 1418 2786 
Q 1159 2488 1159 1978 
L 1159 0 
L 581 0 
L 581 3500 
L 1159 3500 
L 1159 2956 
Q 1356 3278 1631 3431 
Q 1906 3584 2284 3584 
Q 2666 3584 2933 3390 
Q 3200 3197 3328 2828 
z
" transform="scale(0.015625)"/>
       <path id="DejaVuSans-65" d="M 3597 1894 
L 3597 1613 
L 953 1613 
Q 991 1019 1311 708 
Q 1631 397 2203 397 
Q 2534 397 2845 478 
Q 3156 559 3463 722 
L 3463 178 
Q 3153 47 2828 -22 
Q 2503 -91 2169 -91 
Q 1331 -91 842 396 
Q 353 884 353 1716 
Q 353 2575 817 3079 
Q 1281 3584 2069 3584 
Q 2775 3584 3186 3129 
Q 3597 2675 3597 1894 
z
M 3022 2063 
Q 3016 2534 2758 2815 
Q 2500 3097 2075 3097 
Q 1594 3097 1305 2825 
Q 1016 2553 972 2059 
L 3022 2063 
z
" transform="scale(0.015625)"/>
       <path id="DejaVuSans-20" transform="scale(0.015625)"/>
       <path id="DejaVuSans-28" d="M 1984 4856 
Q 1566 4138 1362 3434 
Q 1159 2731 1159 2009 
Q 1159 1288 1364 580 
Q 1569 -128 1984 -844 
L 1484 -844 
Q 1016 -109 783 600 
Q 550 1309 550 2009 
Q 550 2706 781 3412 
Q 1013 4119 1484 4856 
L 1984 4856 
z
" transform="scale(0.015625)"/>
       <path id="DejaVuSans-4d" d="M 628 4666 
L 1569 4666 
L 2759 1491 
L 3956 4666 
L 4897 4666 
L 4897 0 
L 4281 0 
L 4281 4097 
L 3078 897 
L 2444 897 
L 1241 4097 
L 1241 0 
L 628 0 
L 628 4666 
z
" transform="scale(0.015625)"/>
       <path id="DejaVuSans-6e" d="M 3513 2113 
L 3513 0 
L 2938 0 
L 2938 2094 
Q 2938 2591 2744 2837 
Q 2550 3084 2163 3084 
Q 1697 3084 1428 2787 
Q 1159 2491 1159 1978 
L 1159 0 
L 581 0 
L 581 3500 
L 1159 3500 
L 1159 2956 
Q 1366 3272 1645 3428 
Q 1925 3584 2291 3584 
Q 2894 3584 3203 3211 
Q 3513 2838 3513 2113 
z
" transform="scale(0.015625)"/>
       <path id="DejaVuSans-75" d="M 544 1381 
L 544 3500 
L 1119 3500 
L 1119 1403 
Q 1119 906 1312 657 
Q 1506 409 1894 409 
Q 2359 409 2629 706 
Q 2900 1003 2900 1516 
L 2900 3500 
L 3475 3500 
L 3475 0 
L 2900 0 
L 2900 538 
Q 2691 219 2414 64 
Q 2138 -91 1772 -91 
Q 1169 -91 856 284 
Q 544 659 544 1381 
z
M 1991 3584 
L 1991 3584 
z
" transform="scale(0.015625)"/>
       <path id="DejaVuSans-74" d="M 1172 4494 
L 1172 3500 
L 2356 3500 
L 2356 3053 
L 1172 3053 
L 1172 1153 
Q 1172 725 1289 603 
Q 1406 481 1766 481 
L 2356 481 
L 2356 0 
L 1766 0 
Q 1100 0 847 248 
Q 594 497 594 1153 
L 594 3053 
L 172 3053 
L 172 3500 
L 594 3500 
L 594 4494 
L 1172 4494 
z
" transform="scale(0.015625)"/>
       <path id="DejaVuSans-73" d="M 2834 3397 
L 2834 2853 
Q 2591 2978 2328 3040 
Q 2066 3103 1784 3103 
Q 1356 3103 1142 2972 
Q 928 2841 928 2578 
Q 928 2378 1081 2264 
Q 1234 2150 1697 2047 
L 1894 2003 
Q 2506 1872 2764 1633 
Q 3022 1394 3022 966 
Q 3022 478 2636 193 
Q 2250 -91 1575 -91 
Q 1294 -91 989 -36 
Q 684 19 347 128 
L 347 722 
Q 666 556 975 473 
Q 1284 391 1588 391 
Q 1994 391 2212 530 
Q 2431 669 2431 922 
Q 2431 1156 2273 1281 
Q 2116 1406 1581 1522 
L 1381 1569 
Q 847 1681 609 1914 
Q 372 2147 372 2553 
Q 372 3047 722 3315 
Q 1072 3584 1716 3584 
Q 2034 3584 2315 3537 
Q 2597 3491 2834 3397 
z
" transform="scale(0.015625)"/>
       <path id="DejaVuSans-29" d="M 513 4856 
L 1013 4856 
Q 1481 4119 1714 3412 
Q 1947 2706 1947 2009 
Q 1947 1309 1714 600 
Q 1481 -109 1013 -844 
L 513 -844 
Q 928 -128 1133 580 
Q 1338 1288 1338 2009 
Q 1338 2731 1133 3434 
Q 928 4138 513 4856 
z
" transform="scale(0.015625)"/>
      </defs>
      <use xlink:href="#DejaVuSans-54"/>
      <use xlink:href="#DejaVuSans-69" x="57.958984"/>
      <use xlink:href="#DejaVuSans-6d" x="85.742188"/>
      <use xlink:href="#DejaVuSans-65" x="183.154297"/>
      <use xlink:href="#DejaVuSans-20" x="244.677734"/>
      <use xlink:href="#DejaVuSans-28" x="276.464844"/>
      <use xlink:href="#DejaVuSans-4d" x="315.478516"/>
      <use xlink:href="#DejaVuSans-69" x="401.757812"/>
      <use xlink:href="#DejaVuSans-6e" x="429.541016"/>
      <use xlink:href="#DejaVuSans-75" x="492.919922"/>
      <use xlink:href="#DejaVuSans-74" x="556.298828"/>
      <use xlink:href="#DejaVuSans-65" x="595.507812"/>
      <use xlink:href="#DejaVuSans-73" x="657.03125"/>
      <use xlink:href="#DejaVuSans-29" x="709.130859"/>
     </g>
    </g>
   </g>
   <g id="matplotlib.axis_2">
    <g id="ytick_1">
     <g id="line2d_20">
      <path d="M 54.3375 492.48 
L 391.23 492.48 
" clip-path="url(#p7361ce88ac)" style="fill: none; stroke: #cccccc; stroke-width: 0.8; stroke-linecap: round"/>
     </g>
     <g id="text_21">
      <!-- 0 -->
      <g style="fill: #262626" transform="translate(40.4385 495.823312)scale(0.088 -0.088)">
       <use xlink:href="#DejaVuSans-30"/>
      </g>
     </g>
    </g>
    <g id="ytick_2">
     <g id="line2d_21">
      <path d="M 54.3375 470.374737 
L 391.23 470.374737 
" clip-path="url(#p7361ce88ac)" style="fill: none; stroke: #cccccc; stroke-width: 0.8; stroke-linecap: round"/>
     </g>
     <g id="text_22">
      <!-- 100 -->
      <g style="fill: #262626" transform="translate(29.2405 473.718049)scale(0.088 -0.088)">
       <use xlink:href="#DejaVuSans-31"/>
       <use xlink:href="#DejaVuSans-30" x="63.623047"/>
       <use xlink:href="#DejaVuSans-30" x="127.246094"/>
      </g>
     </g>
    </g>
    <g id="ytick_3">
     <g id="line2d_22">
      <path d="M 54.3375 448.269474 
L 391.23 448.269474 
" clip-path="url(#p7361ce88ac)" style="fill: none; stroke: #cccccc; stroke-width: 0.8; stroke-linecap: round"/>
     </g>
     <g id="text_23">
      <!-- 200 -->
      <g style="fill: #262626" transform="translate(29.2405 451.612786)scale(0.088 -0.088)">
       <use xlink:href="#DejaVuSans-32"/>
       <use xlink:href="#DejaVuSans-30" x="63.623047"/>
       <use xlink:href="#DejaVuSans-30" x="127.246094"/>
      </g>
     </g>
    </g>
    <g id="ytick_4">
     <g id="line2d_23">
      <path d="M 54.3375 426.164211 
L 391.23 426.164211 
" clip-path="url(#p7361ce88ac)" style="fill: none; stroke: #cccccc; stroke-width: 0.8; stroke-linecap: round"/>
     </g>
     <g id="text_24">
      <!-- 300 -->
      <g style="fill: #262626" transform="translate(29.2405 429.507523)scale(0.088 -0.088)">
       <use xlink:href="#DejaVuSans-33"/>
       <use xlink:href="#DejaVuSans-30" x="63.623047"/>
       <use xlink:href="#DejaVuSans-30" x="127.246094"/>
      </g>
     </g>
    </g>
    <g id="ytick_5">
     <g id="line2d_24">
      <path d="M 54.3375 404.058947 
L 391.23 404.058947 
" clip-path="url(#p7361ce88ac)" style="fill: none; stroke: #cccccc; stroke-width: 0.8; stroke-linecap: round"/>
     </g>
     <g id="text_25">
      <!-- 400 -->
      <g style="fill: #262626" transform="translate(29.2405 407.40226)scale(0.088 -0.088)">
       <use xlink:href="#DejaVuSans-34"/>
       <use xlink:href="#DejaVuSans-30" x="63.623047"/>
       <use xlink:href="#DejaVuSans-30" x="127.246094"/>
      </g>
     </g>
    </g>
    <g id="ytick_6">
     <g id="line2d_25">
      <path d="M 54.3375 381.953684 
L 391.23 381.953684 
" clip-path="url(#p7361ce88ac)" style="fill: none; stroke: #cccccc; stroke-width: 0.8; stroke-linecap: round"/>
     </g>
     <g id="text_26">
      <!-- 500 -->
      <g style="fill: #262626" transform="translate(29.2405 385.296997)scale(0.088 -0.088)">
       <use xlink:href="#DejaVuSans-35"/>
       <use xlink:href="#DejaVuSans-30" x="63.623047"/>
       <use xlink:href="#DejaVuSans-30" x="127.246094"/>
      </g>
     </g>
    </g>
    <g id="ytick_7">
     <g id="line2d_26">
      <path d="M 54.3375 359.848421 
L 391.23 359.848421 
" clip-path="url(#p7361ce88ac)" style="fill: none; stroke: #cccccc; stroke-width: 0.8; stroke-linecap: round"/>
     </g>
     <g id="text_27">
      <!-- 600 -->
      <g style="fill: #262626" transform="translate(29.2405 363.191734)scale(0.088 -0.088)">
       <use xlink:href="#DejaVuSans-36"/>
       <use xlink:href="#DejaVuSans-30" x="63.623047"/>
       <use xlink:href="#DejaVuSans-30" x="127.246094"/>
      </g>
     </g>
    </g>
    <g id="ytick_8">
     <g id="line2d_27">
      <path d="M 54.3375 337.743158 
L 391.23 337.743158 
" clip-path="url(#p7361ce88ac)" style="fill: none; stroke: #cccccc; stroke-width: 0.8; stroke-linecap: round"/>
     </g>
     <g id="text_28">
      <!-- 700 -->
      <g style="fill: #262626" transform="translate(29.2405 341.08647)scale(0.088 -0.088)">
       <use xlink:href="#DejaVuSans-37"/>
       <use xlink:href="#DejaVuSans-30" x="63.623047"/>
       <use xlink:href="#DejaVuSans-30" x="127.246094"/>
      </g>
     </g>
    </g>
    <g id="ytick_9">
     <g id="line2d_28">
      <path d="M 54.3375 315.637895 
L 391.23 315.637895 
" clip-path="url(#p7361ce88ac)" style="fill: none; stroke: #cccccc; stroke-width: 0.8; stroke-linecap: round"/>
     </g>
     <g id="text_29">
      <!-- 800 -->
      <g style="fill: #262626" transform="translate(29.2405 318.981207)scale(0.088 -0.088)">
       <use xlink:href="#DejaVuSans-38"/>
       <use xlink:href="#DejaVuSans-30" x="63.623047"/>
       <use xlink:href="#DejaVuSans-30" x="127.246094"/>
      </g>
     </g>
    </g>
    <g id="ytick_10">
     <g id="line2d_29">
      <path d="M 54.3375 293.532632 
L 391.23 293.532632 
" clip-path="url(#p7361ce88ac)" style="fill: none; stroke: #cccccc; stroke-width: 0.8; stroke-linecap: round"/>
     </g>
     <g id="text_30">
      <!-- 900 -->
      <g style="fill: #262626" transform="translate(29.2405 296.875944)scale(0.088 -0.088)">
       <use xlink:href="#DejaVuSans-39"/>
       <use xlink:href="#DejaVuSans-30" x="63.623047"/>
       <use xlink:href="#DejaVuSans-30" x="127.246094"/>
      </g>
     </g>
    </g>
    <g id="ytick_11">
     <g id="line2d_30">
      <path d="M 54.3375 271.427368 
L 391.23 271.427368 
" clip-path="url(#p7361ce88ac)" style="fill: none; stroke: #cccccc; stroke-width: 0.8; stroke-linecap: round"/>
     </g>
     <g id="text_31">
      <!-- 1000 -->
      <g style="fill: #262626" transform="translate(23.6415 274.770681)scale(0.088 -0.088)">
       <use xlink:href="#DejaVuSans-31"/>
       <use xlink:href="#DejaVuSans-30" x="63.623047"/>
       <use xlink:href="#DejaVuSans-30" x="127.246094"/>
       <use xlink:href="#DejaVuSans-30" x="190.869141"/>
      </g>
     </g>
    </g>
    <g id="ytick_12">
     <g id="line2d_31">
      <path d="M 54.3375 249.322105 
L 391.23 249.322105 
" clip-path="url(#p7361ce88ac)" style="fill: none; stroke: #cccccc; stroke-width: 0.8; stroke-linecap: round"/>
     </g>
     <g id="text_32">
      <!-- 1100 -->
      <g style="fill: #262626" transform="translate(23.6415 252.665418)scale(0.088 -0.088)">
       <use xlink:href="#DejaVuSans-31"/>
       <use xlink:href="#DejaVuSans-31" x="63.623047"/>
       <use xlink:href="#DejaVuSans-30" x="127.246094"/>
       <use xlink:href="#DejaVuSans-30" x="190.869141"/>
      </g>
     </g>
    </g>
    <g id="ytick_13">
     <g id="line2d_32">
      <path d="M 54.3375 227.216842 
L 391.23 227.216842 
" clip-path="url(#p7361ce88ac)" style="fill: none; stroke: #cccccc; stroke-width: 0.8; stroke-linecap: round"/>
     </g>
     <g id="text_33">
      <!-- 1200 -->
      <g style="fill: #262626" transform="translate(23.6415 230.560155)scale(0.088 -0.088)">
       <use xlink:href="#DejaVuSans-31"/>
       <use xlink:href="#DejaVuSans-32" x="63.623047"/>
       <use xlink:href="#DejaVuSans-30" x="127.246094"/>
       <use xlink:href="#DejaVuSans-30" x="190.869141"/>
      </g>
     </g>
    </g>
    <g id="ytick_14">
     <g id="line2d_33">
      <path d="M 54.3375 205.111579 
L 391.23 205.111579 
" clip-path="url(#p7361ce88ac)" style="fill: none; stroke: #cccccc; stroke-width: 0.8; stroke-linecap: round"/>
     </g>
     <g id="text_34">
      <!-- 1300 -->
      <g style="fill: #262626" transform="translate(23.6415 208.454891)scale(0.088 -0.088)">
       <use xlink:href="#DejaVuSans-31"/>
       <use xlink:href="#DejaVuSans-33" x="63.623047"/>
       <use xlink:href="#DejaVuSans-30" x="127.246094"/>
       <use xlink:href="#DejaVuSans-30" x="190.869141"/>
      </g>
     </g>
    </g>
    <g id="ytick_15">
     <g id="line2d_34">
      <path d="M 54.3375 183.006316 
L 391.23 183.006316 
" clip-path="url(#p7361ce88ac)" style="fill: none; stroke: #cccccc; stroke-width: 0.8; stroke-linecap: round"/>
     </g>
     <g id="text_35">
      <!-- 1400 -->
      <g style="fill: #262626" transform="translate(23.6415 186.349628)scale(0.088 -0.088)">
       <use xlink:href="#DejaVuSans-31"/>
       <use xlink:href="#DejaVuSans-34" x="63.623047"/>
       <use xlink:href="#DejaVuSans-30" x="127.246094"/>
       <use xlink:href="#DejaVuSans-30" x="190.869141"/>
      </g>
     </g>
    </g>
    <g id="ytick_16">
     <g id="line2d_35">
      <path d="M 54.3375 160.901053 
L 391.23 160.901053 
" clip-path="url(#p7361ce88ac)" style="fill: none; stroke: #cccccc; stroke-width: 0.8; stroke-linecap: round"/>
     </g>
     <g id="text_36">
      <!-- 1500 -->
      <g style="fill: #262626" transform="translate(23.6415 164.244365)scale(0.088 -0.088)">
       <use xlink:href="#DejaVuSans-31"/>
       <use xlink:href="#DejaVuSans-35" x="63.623047"/>
       <use xlink:href="#DejaVuSans-30" x="127.246094"/>
       <use xlink:href="#DejaVuSans-30" x="190.869141"/>
      </g>
     </g>
    </g>
    <g id="ytick_17">
     <g id="line2d_36">
      <path d="M 54.3375 138.795789 
L 391.23 138.795789 
" clip-path="url(#p7361ce88ac)" style="fill: none; stroke: #cccccc; stroke-width: 0.8; stroke-linecap: round"/>
     </g>
     <g id="text_37">
      <!-- 1600 -->
      <g style="fill: #262626" transform="translate(23.6415 142.139102)scale(0.088 -0.088)">
       <use xlink:href="#DejaVuSans-31"/>
       <use xlink:href="#DejaVuSans-36" x="63.623047"/>
       <use xlink:href="#DejaVuSans-30" x="127.246094"/>
       <use xlink:href="#DejaVuSans-30" x="190.869141"/>
      </g>
     </g>
    </g>
    <g id="ytick_18">
     <g id="line2d_37">
      <path d="M 54.3375 116.690526 
L 391.23 116.690526 
" clip-path="url(#p7361ce88ac)" style="fill: none; stroke: #cccccc; stroke-width: 0.8; stroke-linecap: round"/>
     </g>
     <g id="text_38">
      <!-- 1700 -->
      <g style="fill: #262626" transform="translate(23.6415 120.033839)scale(0.088 -0.088)">
       <use xlink:href="#DejaVuSans-31"/>
       <use xlink:href="#DejaVuSans-37" x="63.623047"/>
       <use xlink:href="#DejaVuSans-30" x="127.246094"/>
       <use xlink:href="#DejaVuSans-30" x="190.869141"/>
      </g>
     </g>
    </g>
    <g id="ytick_19">
     <g id="line2d_38">
      <path d="M 54.3375 94.585263 
L 391.23 94.585263 
" clip-path="url(#p7361ce88ac)" style="fill: none; stroke: #cccccc; stroke-width: 0.8; stroke-linecap: round"/>
     </g>
     <g id="text_39">
      <!-- 1800 -->
      <g style="fill: #262626" transform="translate(23.6415 97.928576)scale(0.088 -0.088)">
       <use xlink:href="#DejaVuSans-31"/>
       <use xlink:href="#DejaVuSans-38" x="63.623047"/>
       <use xlink:href="#DejaVuSans-30" x="127.246094"/>
       <use xlink:href="#DejaVuSans-30" x="190.869141"/>
      </g>
     </g>
    </g>
    <g id="text_40">
     <!-- Edge Coverages -->
     <g style="fill: #262626" transform="translate(17.645 329.98575)rotate(-90)scale(0.096 -0.096)">
      <defs>
       <path id="DejaVuSans-45" d="M 628 4666 
L 3578 4666 
L 3578 4134 
L 1259 4134 
L 1259 2753 
L 3481 2753 
L 3481 2222 
L 1259 2222 
L 1259 531 
L 3634 531 
L 3634 0 
L 628 0 
L 628 4666 
z
" transform="scale(0.015625)"/>
       <path id="DejaVuSans-64" d="M 2906 2969 
L 2906 4863 
L 3481 4863 
L 3481 0 
L 2906 0 
L 2906 525 
Q 2725 213 2448 61 
Q 2172 -91 1784 -91 
Q 1150 -91 751 415 
Q 353 922 353 1747 
Q 353 2572 751 3078 
Q 1150 3584 1784 3584 
Q 2172 3584 2448 3432 
Q 2725 3281 2906 2969 
z
M 947 1747 
Q 947 1113 1208 752 
Q 1469 391 1925 391 
Q 2381 391 2643 752 
Q 2906 1113 2906 1747 
Q 2906 2381 2643 2742 
Q 2381 3103 1925 3103 
Q 1469 3103 1208 2742 
Q 947 2381 947 1747 
z
" transform="scale(0.015625)"/>
       <path id="DejaVuSans-67" d="M 2906 1791 
Q 2906 2416 2648 2759 
Q 2391 3103 1925 3103 
Q 1463 3103 1205 2759 
Q 947 2416 947 1791 
Q 947 1169 1205 825 
Q 1463 481 1925 481 
Q 2391 481 2648 825 
Q 2906 1169 2906 1791 
z
M 3481 434 
Q 3481 -459 3084 -895 
Q 2688 -1331 1869 -1331 
Q 1566 -1331 1297 -1286 
Q 1028 -1241 775 -1147 
L 775 -588 
Q 1028 -725 1275 -790 
Q 1522 -856 1778 -856 
Q 2344 -856 2625 -561 
Q 2906 -266 2906 331 
L 2906 616 
Q 2728 306 2450 153 
Q 2172 0 1784 0 
Q 1141 0 747 490 
Q 353 981 353 1791 
Q 353 2603 747 3093 
Q 1141 3584 1784 3584 
Q 2172 3584 2450 3431 
Q 2728 3278 2906 2969 
L 2906 3500 
L 3481 3500 
L 3481 434 
z
" transform="scale(0.015625)"/>
       <path id="DejaVuSans-43" d="M 4122 4306 
L 4122 3641 
Q 3803 3938 3442 4084 
Q 3081 4231 2675 4231 
Q 1875 4231 1450 3742 
Q 1025 3253 1025 2328 
Q 1025 1406 1450 917 
Q 1875 428 2675 428 
Q 3081 428 3442 575 
Q 3803 722 4122 1019 
L 4122 359 
Q 3791 134 3420 21 
Q 3050 -91 2638 -91 
Q 1578 -91 968 557 
Q 359 1206 359 2328 
Q 359 3453 968 4101 
Q 1578 4750 2638 4750 
Q 3056 4750 3426 4639 
Q 3797 4528 4122 4306 
z
" transform="scale(0.015625)"/>
       <path id="DejaVuSans-6f" d="M 1959 3097 
Q 1497 3097 1228 2736 
Q 959 2375 959 1747 
Q 959 1119 1226 758 
Q 1494 397 1959 397 
Q 2419 397 2687 759 
Q 2956 1122 2956 1747 
Q 2956 2369 2687 2733 
Q 2419 3097 1959 3097 
z
M 1959 3584 
Q 2709 3584 3137 3096 
Q 3566 2609 3566 1747 
Q 3566 888 3137 398 
Q 2709 -91 1959 -91 
Q 1206 -91 779 398 
Q 353 888 353 1747 
Q 353 2609 779 3096 
Q 1206 3584 1959 3584 
z
" transform="scale(0.015625)"/>
       <path id="DejaVuSans-76" d="M 191 3500 
L 800 3500 
L 1894 563 
L 2988 3500 
L 3597 3500 
L 2284 0 
L 1503 0 
L 191 3500 
z
" transform="scale(0.015625)"/>
       <path id="DejaVuSans-72" d="M 2631 2963 
Q 2534 3019 2420 3045 
Q 2306 3072 2169 3072 
Q 1681 3072 1420 2755 
Q 1159 2438 1159 1844 
L 1159 0 
L 581 0 
L 581 3500 
L 1159 3500 
L 1159 2956 
Q 1341 3275 1631 3429 
Q 1922 3584 2338 3584 
Q 2397 3584 2469 3576 
Q 2541 3569 2628 3553 
L 2631 2963 
z
" transform="scale(0.015625)"/>
       <path id="DejaVuSans-61" d="M 2194 1759 
Q 1497 1759 1228 1600 
Q 959 1441 959 1056 
Q 959 750 1161 570 
Q 1363 391 1709 391 
Q 2188 391 2477 730 
Q 2766 1069 2766 1631 
L 2766 1759 
L 2194 1759 
z
M 3341 1997 
L 3341 0 
L 2766 0 
L 2766 531 
Q 2569 213 2275 61 
Q 1981 -91 1556 -91 
Q 1019 -91 701 211 
Q 384 513 384 1019 
Q 384 1609 779 1909 
Q 1175 2209 1959 2209 
L 2766 2209 
L 2766 2266 
Q 2766 2663 2505 2880 
Q 2244 3097 1772 3097 
Q 1472 3097 1187 3025 
Q 903 2953 641 2809 
L 641 3341 
Q 956 3463 1253 3523 
Q 1550 3584 1831 3584 
Q 2591 3584 2966 3190 
Q 3341 2797 3341 1997 
z
" transform="scale(0.015625)"/>
      </defs>
      <use xlink:href="#DejaVuSans-45"/>
      <use xlink:href="#DejaVuSans-64" x="63.183594"/>
      <use xlink:href="#DejaVuSans-67" x="126.660156"/>
      <use xlink:href="#DejaVuSans-65" x="190.136719"/>
      <use xlink:href="#DejaVuSans-20" x="251.660156"/>
      <use xlink:href="#DejaVuSans-43" x="283.447266"/>
      <use xlink:href="#DejaVuSans-6f" x="353.271484"/>
      <use xlink:href="#DejaVuSans-76" x="414.453125"/>
      <use xlink:href="#DejaVuSans-65" x="473.632812"/>
      <use xlink:href="#DejaVuSans-72" x="535.15625"/>
      <use xlink:href="#DejaVuSans-61" x="576.269531"/>
      <use xlink:href="#DejaVuSans-67" x="637.548828"/>
      <use xlink:href="#DejaVuSans-65" x="701.025391"/>
      <use xlink:href="#DejaVuSans-73" x="762.548828"/>
     </g>
    </g>
   </g>
   <g id="PolyCollection_1">
    <defs>
     <path id="m158dd1e6be" d="M 69.650795 -98.551579 
L 69.650795 -83.52 
L 69.650795 -98.551579 
L 69.650795 -98.551579 
z
" style="stroke: #db5f57; stroke-opacity: 0.2; stroke-width: 0.8"/>
    </defs>
    <g clip-path="url(#p7361ce88ac)">
     <use xlink:href="#m158dd1e6be" x="0" y="576" style="fill: #db5f57; fill-opacity: 0.2; stroke: #db5f57; stroke-opacity: 0.2; stroke-width: 0.8"/>
    </g>
   </g>
   <g id="PolyCollection_2">
    <defs>
     <path id="m46c836c5cc" d="M 69.650795 -87.498947 
L 69.650795 -83.52 
L 69.650795 -87.498947 
L 69.650795 -87.498947 
z
" style="stroke: #b9db57; stroke-opacity: 0.2; stroke-width: 0.8"/>
    </defs>
    <g clip-path="url(#p7361ce88ac)">
     <use xlink:href="#m46c836c5cc" x="0" y="576" style="fill: #b9db57; fill-opacity: 0.2; stroke: #b9db57; stroke-opacity: 0.2; stroke-width: 0.8"/>
    </g>
   </g>
   <g id="PolyCollection_3">
    <defs>
     <path id="m4043bf9828" d="M 69.650795 -93.025263 
L 69.650795 -83.52 
L 69.650795 -93.025263 
L 69.650795 -93.025263 
z
" style="stroke: #57db94; stroke-opacity: 0.2; stroke-width: 0.8"/>
    </defs>
    <g clip-path="url(#p7361ce88ac)">
     <use xlink:href="#m4043bf9828" x="0" y="576" style="fill: #57db94; fill-opacity: 0.2; stroke: #57db94; stroke-opacity: 0.2; stroke-width: 0.8"/>
    </g>
   </g>
   <g id="PolyCollection_4">
    <defs>
     <path id="m6e4669d0be" d="M 69.650795 -89.709474 
L 69.650795 -83.52 
L 69.650795 -89.709474 
L 69.650795 -89.709474 
z
" style="stroke: #5784db; stroke-opacity: 0.2; stroke-width: 0.8"/>
    </defs>
    <g clip-path="url(#p7361ce88ac)">
     <use xlink:href="#m6e4669d0be" x="0" y="576" style="fill: #5784db; fill-opacity: 0.2; stroke: #5784db; stroke-opacity: 0.2; stroke-width: 0.8"/>
    </g>
   </g>
   <g id="PolyCollection_5">
    <defs>
     <path id="m4d1c107f54" d="M 69.650795 -99.435789 
L 69.650795 -83.52 
L 69.650795 -99.435789 
L 69.650795 -99.435789 
z
" style="stroke: #c957db; stroke-opacity: 0.2; stroke-width: 0.8"/>
    </defs>
    <g clip-path="url(#p7361ce88ac)">
     <use xlink:href="#m4d1c107f54" x="0" y="576" style="fill: #c957db; fill-opacity: 0.2; stroke: #c957db; stroke-opacity: 0.2; stroke-width: 0.8"/>
    </g>
   </g>
   <g id="line2d_39">
    <path d="M 69.650795 484.964211 
L 70.07646 458.658947 
L 70.289293 456.448421 
L 70.714958 447.385263 
L 70.92779 442.301053 
L 71.353455 420.858947 
L 71.566288 417.543158 
L 72.417617 390.353684 
L 74.120277 361.616842 
L 74.33311 360.732632 
L 74.545942 357.858947 
L 74.758774 353.216842 
L 74.971607 352.332632 
L 75.397272 344.816842 
L 75.610104 342.827368 
L 75.822937 342.164211 
L 76.461434 336.195789 
L 76.887099 334.869474 
L 78.164094 326.911579 
L 78.376926 323.595789 
L 78.589759 322.932632 
L 79.228256 317.627368 
L 79.866754 312.764211 
L 80.292418 310.111579 
L 80.505251 308.122105 
L 80.930916 306.132632 
L 81.356581 303.922105 
L 81.782246 303.48 
L 81.995078 301.932632 
L 82.207911 301.490526 
L 82.633575 299.943158 
L 82.846408 297.290526 
L 83.05924 296.185263 
L 83.272073 295.743158 
L 83.484905 295.743158 
L 83.91057 295.301053 
L 84.123403 294.416842 
L 84.549068 293.974737 
L 84.7619 293.532632 
L 85.400397 291.101053 
L 85.61323 290.88 
L 85.826062 290.88 
L 86.038895 289.332632 
L 86.251727 288.669474 
L 87.103057 284.027368 
L 87.31589 283.364211 
L 87.741555 281.374737 
L 87.954387 280.490526 
L 88.167219 280.490526 
L 88.380052 280.269474 
L 88.592884 280.269474 
L 89.018549 279.385263 
L 89.231382 279.385263 
L 89.657047 278.28 
L 89.869879 278.058947 
L 90.295544 278.058947 
L 90.508376 277.616842 
L 90.721209 277.616842 
L 91.146874 276.511579 
L 91.359706 275.627368 
L 91.572539 275.406316 
L 91.785371 275.406316 
L 91.998204 275.185263 
L 92.423869 273.858947 
L 92.636701 273.637895 
L 93.062366 272.753684 
L 93.275198 272.753684 
L 93.700863 272.090526 
L 93.913696 272.090526 
L 94.126528 271.427368 
L 94.552193 270.985263 
L 94.765026 270.985263 
L 95.190691 270.322105 
L 95.403523 270.322105 
L 96.04202 269.658947 
L 96.680518 269.658947 
L 97.319015 268.332632 
L 97.531848 268.332632 
L 97.74468 268.111579 
L 97.957513 267.669474 
L 98.808842 267.669474 
L 99.021675 267.227368 
L 99.234507 266.122105 
L 99.873005 265.016842 
L 100.085837 264.795789 
L 100.29867 264.795789 
L 100.724335 264.353684 
L 101.149999 264.353684 
L 101.362832 264.132632 
L 101.788497 263.469474 
L 102.001329 263.469474 
L 102.214162 263.027368 
L 102.639827 263.027368 
L 102.852659 262.806316 
L 103.278324 261.258947 
L 103.491157 261.258947 
L 103.703989 260.374737 
L 103.916821 260.153684 
L 104.129654 260.153684 
L 104.342486 259.932632 
L 104.980984 259.932632 
L 105.193816 259.711579 
L 105.406649 259.711579 
L 105.619481 259.490526 
L 105.832314 259.490526 
L 106.045146 259.269474 
L 106.470811 259.269474 
L 106.683643 259.048421 
L 107.109308 259.048421 
L 107.322141 258.385263 
L 107.534973 258.385263 
L 107.747806 257.943158 
L 108.811968 257.943158 
L 109.0248 257.722105 
L 110.72746 257.722105 
L 111.153125 257.28 
L 111.365957 257.28 
L 111.57879 257.058947 
L 111.791622 255.953684 
L 112.004455 255.953684 
L 112.217287 255.290526 
L 112.43012 255.290526 
L 112.642952 255.069474 
L 113.068617 254.406316 
L 113.28145 254.406316 
L 114.132779 253.522105 
L 114.558444 251.753684 
L 115.835439 251.753684 
L 116.048272 251.311579 
L 116.686769 251.311579 
L 116.899601 251.090526 
L 117.538099 251.090526 
L 117.750931 250.869474 
L 118.389429 250.869474 
L 118.602261 250.648421 
L 119.666423 250.648421 
L 120.092088 250.206316 
L 120.517753 250.206316 
L 120.730586 249.985263 
L 121.156251 249.322105 
L 122.646078 249.322105 
L 122.85891 249.101053 
L 123.71024 249.101053 
L 123.923073 248.88 
L 124.135905 248.216842 
L 126.051397 248.216842 
L 126.26423 247.553684 
L 126.902727 247.553684 
L 127.328392 245.785263 
L 127.966889 245.785263 
L 128.179722 245.564211 
L 128.392554 245.564211 
L 128.605387 244.901053 
L 128.818219 242.690526 
L 129.031052 238.269474 
L 129.243884 238.048421 
L 129.456717 230.311579 
L 129.669549 228.543158 
L 129.882381 225.448421 
L 130.095214 225.448421 
L 130.308046 223.016842 
L 130.520879 222.353684 
L 130.733711 222.353684 
L 131.159376 220.585263 
L 131.797874 218.595789 
L 132.436371 217.932632 
L 132.649203 217.932632 
L 132.862036 217.711579 
L 133.074868 217.711579 
L 133.287701 217.490526 
L 134.139031 217.490526 
L 134.351863 215.722105 
L 134.564696 215.058947 
L 134.777528 213.953684 
L 135.84169 213.953684 
L 136.054523 213.732632 
L 136.480188 213.732632 
L 137.118685 212.627368 
L 137.331518 212.406316 
L 138.182847 210.858947 
L 138.821345 210.858947 
L 139.24701 210.416842 
L 140.311172 210.416842 
L 140.524004 209.974737 
L 140.736837 209.974737 
L 140.949669 209.753684 
L 141.375334 209.753684 
L 142.013832 207.985263 
L 142.652329 207.985263 
L 143.290826 207.322105 
L 143.716491 207.322105 
L 143.929324 206.88 
L 144.354989 206.88 
L 144.567821 206.658947 
L 145.419151 206.658947 
L 146.270481 205.774737 
L 149.888633 205.774737 
L 150.101465 205.553684 
L 158.827596 205.553684 
L 159.040428 205.111579 
L 161.594418 205.111579 
L 161.80725 204.890526 
L 162.232915 204.890526 
L 162.445748 204.669474 
L 163.50991 204.669474 
L 163.722743 204.448421 
L 167.340894 204.448421 
L 167.766559 204.006316 
L 170.533381 204.006316 
L 170.746214 203.785263 
L 171.810376 203.785263 
L 172.023208 199.364211 
L 172.448873 198.037895 
L 173.087371 198.037895 
L 173.725868 197.374737 
L 184.154659 197.374737 
L 184.580324 196.932632 
L 185.431653 196.932632 
L 185.857318 196.490526 
L 191.603795 196.490526 
L 192.242292 195.827368 
L 192.667957 194.722105 
L 192.880789 194.722105 
L 193.093622 191.406316 
L 193.732119 191.406316 
L 193.944952 190.964211 
L 194.796282 190.964211 
L 195.009114 190.743158 
L 196.924606 190.743158 
L 197.137439 190.522105 
L 197.775936 190.522105 
L 197.988768 190.301053 
L 198.414433 189.637895 
L 198.627266 189.637895 
L 199.052931 188.753684 
L 201.819753 188.753684 
L 202.032585 188.532632 
L 202.245418 188.532632 
L 202.671083 188.090526 
L 205.650737 188.090526 
L 205.863569 187.869474 
L 206.502067 187.869474 
L 206.714899 187.648421 
L 207.566229 187.648421 
L 207.779062 186.985263 
L 210.971549 186.985263 
L 211.397213 186.543158 
L 215.228198 186.543158 
L 215.44103 186.322105 
L 216.079528 186.322105 
L 216.29236 186.101053 
L 219.272014 186.101053 
L 219.484847 185.88 
L 221.187507 185.88 
L 221.400339 185.658947 
L 221.613171 185.216842 
L 223.954329 185.216842 
L 224.167161 184.774737 
L 225.869821 184.774737 
L 226.082653 184.553684 
L 226.72115 184.553684 
L 226.933983 184.332632 
L 228.849475 184.332632 
L 229.062308 184.111579 
L 236.937109 184.111579 
L 237.149941 183.890526 
L 243.322082 183.890526 
L 243.534915 183.669474 
L 245.663239 183.669474 
L 245.876072 183.448421 
L 246.088904 183.006316 
L 252.473878 183.006316 
L 252.686711 182.785263 
L 258.646019 182.785263 
L 258.858852 182.564211 
L 266.095155 182.564211 
L 266.307988 182.343158 
L 268.010648 182.343158 
L 268.22348 182.122105 
L 270.77747 182.122105 
L 270.990302 181.901053 
L 278.439438 181.901053 
L 278.652271 181.68 
L 279.290768 181.68 
L 279.5036 181.458947 
L 285.675742 181.458947 
L 285.888574 181.237895 
L 286.101407 181.237895 
L 286.314239 181.016842 
L 286.952737 181.016842 
L 287.165569 180.574737 
L 287.804066 180.574737 
L 288.016899 180.353684 
L 288.229731 179.911579 
L 291.422218 179.911579 
L 291.635051 179.690526 
L 292.699213 179.690526 
L 292.912045 179.469474 
L 294.18904 179.469474 
L 294.401873 179.248421 
L 304.192166 179.248421 
L 304.404998 179.027368 
L 308.661647 179.027368 
L 308.87448 178.806316 
L 318.239108 178.806316 
L 318.451941 178.585263 
L 319.30327 178.585263 
L 319.516103 178.364211 
L 320.793098 178.364211 
L 321.00593 178.143158 
L 322.282925 178.143158 
L 322.495757 177.922105 
L 353.569296 177.922105 
L 353.782129 177.701053 
L 356.123286 177.701053 
L 356.336118 177.48 
L 356.548951 177.48 
L 356.761783 177.258947 
L 367.829071 177.258947 
L 368.041904 177.037895 
L 375.916705 177.037895 
L 375.916705 177.037895 
" clip-path="url(#p7361ce88ac)" style="fill: none; stroke: #db5f57; stroke-width: 1.2; stroke-linecap: round"/>
   </g>
   <g id="line2d_40">
    <path d="M 69.650795 490.490526 
L 69.863628 488.501053 
L 70.07646 473.469474 
L 70.289293 471.701053 
L 70.502125 471.701053 
L 70.714958 454.458947 
L 71.140623 454.458947 
L 71.353455 453.132632 
L 71.566288 427.711579 
L 71.77912 425.943158 
L 71.991953 425.943158 
L 72.417617 401.185263 
L 72.63045 401.185263 
L 72.843282 400.964211 
L 73.48178 400.964211 
L 73.694612 376.648421 
L 73.907445 376.427368 
L 74.120277 376.427368 
L 74.545942 364.932632 
L 74.758774 364.932632 
L 75.184439 352.553684 
L 76.035769 352.553684 
L 76.248602 352.111579 
L 76.461434 338.627368 
L 76.674267 338.627368 
L 77.099932 333.322105 
L 77.312764 333.322105 
L 77.738429 326.911579 
L 77.951261 325.585263 
L 78.164094 325.585263 
L 78.376926 321.164211 
L 78.589759 321.164211 
L 78.802591 318.511579 
L 79.015424 317.406316 
L 79.228256 317.406316 
L 79.441089 312.764211 
L 79.653921 312.764211 
L 79.866754 309.006316 
L 80.079586 309.006316 
L 80.292418 305.911579 
L 80.505251 305.690526 
L 80.718083 305.690526 
L 80.930916 302.816842 
L 81.143748 301.711579 
L 81.356581 298.837895 
L 81.569413 298.837895 
L 81.782246 297.732632 
L 82.207911 293.753684 
L 82.420743 292.869474 
L 82.846408 288.227368 
L 83.05924 287.564211 
L 83.272073 287.564211 
L 83.484905 284.469474 
L 83.91057 283.585263 
L 84.549068 280.490526 
L 84.7619 280.048421 
L 84.974733 278.501053 
L 85.187565 278.28 
L 85.400397 277.616842 
L 85.826062 277.174737 
L 86.038895 275.406316 
L 86.251727 274.743158 
L 86.46456 272.753684 
L 86.677392 271.869474 
L 86.890225 271.869474 
L 87.103057 270.543158 
L 87.31589 270.322105 
L 87.741555 266.564211 
L 87.954387 266.122105 
L 88.380052 264.132632 
L 89.231382 261.48 
L 89.869879 260.816842 
L 90.295544 260.816842 
L 90.508376 260.153684 
L 90.721209 259.932632 
L 90.934041 259.269474 
L 91.146874 259.269474 
L 91.359706 256.837895 
L 91.572539 256.837895 
L 91.785371 254.848421 
L 91.998204 253.964211 
L 92.423869 253.964211 
L 92.849534 252.637895 
L 93.062366 252.416842 
L 93.275198 252.416842 
L 93.488031 251.753684 
L 94.339361 250.869474 
L 94.765026 250.869474 
L 94.977858 249.985263 
L 95.616356 249.322105 
L 95.829188 249.322105 
L 96.04202 249.101053 
L 96.89335 249.101053 
L 97.106183 248.658947 
L 97.319015 247.332632 
L 97.531848 247.332632 
L 98.59601 246.227368 
L 99.021675 246.227368 
L 99.234507 246.006316 
L 99.44734 246.006316 
L 99.660172 242.027368 
L 100.29867 242.027368 
L 100.511502 241.806316 
L 100.724335 241.143158 
L 100.937167 241.143158 
L 101.149999 240.258947 
L 101.362832 240.258947 
L 101.575664 240.037895 
L 102.001329 240.037895 
L 102.426994 238.711579 
L 102.639827 238.711579 
L 102.852659 238.490526 
L 103.065492 237.385263 
L 103.278324 236.943158 
L 103.491157 236.058947 
L 104.129654 236.058947 
L 104.342486 234.732632 
L 104.555319 234.511579 
L 104.980984 234.511579 
L 105.193816 234.290526 
L 105.406649 234.290526 
L 105.619481 233.848421 
L 106.045146 233.848421 
L 106.257978 233.627368 
L 106.470811 233.627368 
L 106.683643 232.964211 
L 106.896476 232.964211 
L 107.109308 232.301053 
L 107.747806 232.301053 
L 108.173471 231.637895 
L 108.386303 231.416842 
L 109.0248 231.416842 
L 109.237633 230.974737 
L 109.663298 230.974737 
L 109.87613 230.753684 
L 110.940293 230.753684 
L 111.153125 230.532632 
L 111.57879 230.532632 
L 111.791622 229.206316 
L 112.217287 229.206316 
L 112.642952 228.101053 
L 112.855785 228.101053 
L 113.068617 227.216842 
L 113.28145 226.995789 
L 113.494282 226.995789 
L 113.919947 225.890526 
L 114.132779 225.448421 
L 114.558444 223.458947 
L 114.771277 223.237895 
L 116.261104 223.237895 
L 116.473937 222.795789 
L 116.686769 222.795789 
L 116.899601 222.353684 
L 117.325266 222.353684 
L 117.538099 222.132632 
L 118.389429 222.132632 
L 118.815094 221.690526 
L 119.453591 221.690526 
L 119.666423 221.469474 
L 119.879256 221.469474 
L 120.092088 221.027368 
L 121.156251 221.027368 
L 121.369083 220.143158 
L 124.135905 220.143158 
L 124.348738 219.48 
L 124.774402 219.48 
L 124.987235 219.037895 
L 125.200067 219.037895 
L 125.838565 217.932632 
L 126.051397 217.932632 
L 126.477062 216.827368 
L 127.115559 216.827368 
L 127.328392 215.501053 
L 127.541224 215.501053 
L 127.754057 215.28 
L 127.966889 215.28 
L 128.179722 215.058947 
L 129.031052 215.058947 
L 129.243884 208.648421 
L 129.456717 208.648421 
L 129.882381 200.911579 
L 130.308046 195.606316 
L 130.733711 193.837895 
L 130.946544 193.616842 
L 131.372209 191.848421 
L 131.797874 191.848421 
L 132.010706 190.964211 
L 132.223539 190.743158 
L 132.436371 190.301053 
L 132.649203 190.301053 
L 132.862036 190.08 
L 134.777528 190.08 
L 134.99036 186.985263 
L 135.84169 186.985263 
L 136.054523 186.764211 
L 136.267355 186.764211 
L 136.480188 186.543158 
L 136.69302 186.543158 
L 136.905853 185.437895 
L 137.118685 185.437895 
L 137.54435 184.995789 
L 137.970015 183.669474 
L 138.182847 183.448421 
L 138.39568 183.006316 
L 138.821345 183.006316 
L 139.034177 182.785263 
L 139.672675 182.785263 
L 139.885507 182.564211 
L 140.311172 182.564211 
L 140.524004 182.122105 
L 140.949669 182.122105 
L 141.162502 181.458947 
L 141.375334 181.237895 
L 141.588167 180.795789 
L 141.800999 179.690526 
L 142.226664 179.690526 
L 142.439497 179.248421 
L 142.865161 179.248421 
L 143.077994 179.027368 
L 143.290826 178.364211 
L 143.716491 177.922105 
L 143.929324 177.258947 
L 144.354989 177.258947 
L 144.567821 177.037895 
L 145.419151 177.037895 
L 145.631983 176.374737 
L 145.844816 176.153684 
L 146.696146 176.153684 
L 146.908978 175.932632 
L 147.760308 175.932632 
L 147.973141 175.711579 
L 150.52713 175.711579 
L 150.739962 175.269474 
L 154.145282 175.269474 
L 154.358114 175.048421 
L 156.060774 175.048421 
L 156.273606 174.827368 
L 157.124936 174.827368 
L 157.337769 174.606316 
L 159.040428 174.606316 
L 159.253261 174.385263 
L 163.297078 174.385263 
L 163.50991 174.164211 
L 166.0639 174.164211 
L 166.276732 173.943158 
L 167.553727 173.943158 
L 167.979392 173.501053 
L 168.192224 173.501053 
L 168.405057 173.28 
L 168.617889 173.28 
L 168.830722 172.837895 
L 171.597544 172.837895 
L 171.810376 172.616842 
L 172.448873 172.616842 
L 172.661706 168.195789 
L 173.087371 168.195789 
L 173.513036 167.753684 
L 173.725868 167.753684 
L 173.938701 167.532632 
L 176.067025 167.532632 
L 176.279858 167.090526 
L 188.62414 167.090526 
L 188.836973 165.985263 
L 191.816627 165.985263 
L 192.02946 165.543158 
L 199.691428 165.543158 
L 199.904261 159.574737 
L 202.883915 159.574737 
L 203.30958 159.132632 
L 205.437905 159.132632 
L 205.650737 158.690526 
L 206.076402 158.690526 
L 206.289234 158.469474 
L 211.184381 158.469474 
L 211.397213 157.806316 
L 215.015365 157.806316 
L 215.44103 157.364211 
L 219.910512 157.364211 
L 220.123344 156.258947 
L 220.336177 155.816842 
L 221.400339 155.816842 
L 222.038836 154.711579 
L 223.315831 154.711579 
L 223.528664 154.490526 
L 224.379993 154.490526 
L 224.592826 154.048421 
L 226.082653 154.048421 
L 226.295486 153.827368 
L 226.72115 153.827368 
L 226.933983 153.606316 
L 229.062308 153.606316 
L 229.27514 153.385263 
L 229.487972 153.385263 
L 229.913637 152.943158 
L 236.937109 152.943158 
L 237.362773 152.501053 
L 238.214103 152.501053 
L 238.426936 152.058947 
L 239.703931 152.058947 
L 239.916763 151.837895 
L 240.768093 151.837895 
L 240.980925 151.616842 
L 241.619423 151.616842 
L 241.832255 151.395789 
L 243.322082 151.395789 
L 243.534915 151.174737 
L 244.386245 151.174737 
L 244.599077 150.953684 
L 245.024742 150.953684 
L 245.237574 150.511579 
L 245.663239 150.511579 
L 246.088904 150.069474 
L 246.514569 150.069474 
L 246.727402 149.848421 
L 252.261046 149.848421 
L 252.473878 149.627368 
L 255.027868 149.627368 
L 255.2407 149.406316 
L 255.879197 149.406316 
L 256.09203 149.185263 
L 266.307988 149.185263 
L 266.52082 148.964211 
L 271.203135 148.964211 
L 271.415967 148.743158 
L 278.226606 148.743158 
L 278.439438 148.522105 
L 279.290768 148.522105 
L 279.5036 148.301053 
L 286.101407 148.301053 
L 286.314239 148.08 
L 286.527072 147.416842 
L 286.952737 146.974737 
L 289.081061 146.974737 
L 289.506726 145.648421 
L 289.719558 145.648421 
L 289.932391 145.427368 
L 290.358056 145.427368 
L 290.570888 143.88 
L 292.060716 143.88 
L 292.48638 143.437895 
L 293.33771 143.437895 
L 293.763375 142.995789 
L 294.401873 142.995789 
L 294.614705 142.774737 
L 295.466035 142.774737 
L 295.678867 142.553684 
L 308.02315 142.553684 
L 308.235982 142.332632 
L 317.813443 142.332632 
L 318.026276 142.111579 
L 318.877605 142.111579 
L 319.090438 141.890526 
L 321.218762 141.890526 
L 321.431595 141.669474 
L 322.921422 141.669474 
L 323.134255 141.448421 
L 329.944893 141.448421 
L 330.370558 140.785263 
L 335.052872 140.785263 
L 335.478537 140.343158 
L 339.522354 140.343158 
L 339.735186 140.122105 
L 343.991836 140.122105 
L 344.204668 139.68 
L 353.569296 139.68 
L 353.782129 139.458947 
L 356.761783 139.458947 
L 356.974616 139.237895 
L 359.10294 139.237895 
L 359.315773 139.016842 
L 359.95427 139.016842 
L 360.167103 138.795789 
L 361.65693 138.795789 
L 361.869762 138.574737 
L 367.616239 138.574737 
L 367.829071 138.353684 
L 372.93705 138.353684 
L 373.149883 138.132632 
L 375.916705 138.132632 
L 375.916705 138.132632 
" clip-path="url(#p7361ce88ac)" style="fill: none; stroke: #b9db57; stroke-width: 1.2; stroke-linecap: round"/>
   </g>
   <g id="line2d_41">
    <path d="M 69.650795 487.727368 
L 69.863628 469.269474 
L 70.92779 440.311579 
L 71.353455 419.974737 
L 72.417617 380.627368 
L 73.48178 354.543158 
L 73.694612 351.448421 
L 73.907445 346.585263 
L 74.120277 345.037895 
L 74.758774 338.185263 
L 75.397272 324.037895 
L 75.610104 321.385263 
L 75.822937 320.722105 
L 76.248602 315.195789 
L 76.887099 311.658947 
L 77.312764 305.469474 
L 77.525596 303.922105 
L 77.738429 300.385263 
L 77.951261 299.722105 
L 78.376926 293.532632 
L 78.589759 292.869474 
L 78.802591 290.216842 
L 79.015424 289.995789 
L 79.228256 286.458947 
L 79.441089 284.911579 
L 79.866754 279.606316 
L 80.079586 278.058947 
L 80.292418 277.395789 
L 80.505251 274.522105 
L 80.718083 274.301053 
L 80.930916 273.195789 
L 81.143748 270.322105 
L 81.782246 266.785263 
L 81.995078 264.132632 
L 82.420743 263.469474 
L 82.633575 259.269474 
L 82.846408 258.827368 
L 83.05924 257.722105 
L 83.484905 254.406316 
L 83.91057 253.522105 
L 84.123403 251.753684 
L 84.336235 251.090526 
L 84.549068 249.985263 
L 84.7619 249.543158 
L 84.974733 247.995789 
L 85.187565 247.774737 
L 85.826062 246.227368 
L 86.038895 244.237895 
L 86.251727 244.016842 
L 86.890225 239.374737 
L 87.31589 238.932632 
L 87.528722 237.385263 
L 87.741555 234.732632 
L 87.954387 234.290526 
L 88.167219 233.185263 
L 88.380052 232.964211 
L 88.592884 231.637895 
L 89.869879 229.206316 
L 90.082712 229.206316 
L 90.508376 228.543158 
L 90.721209 228.543158 
L 90.934041 227.88 
L 91.146874 225.890526 
L 91.998204 222.132632 
L 92.211036 222.132632 
L 92.636701 221.248421 
L 92.849534 220.364211 
L 93.275198 219.922105 
L 93.488031 219.922105 
L 93.700863 218.816842 
L 93.913696 218.374737 
L 94.126528 218.374737 
L 95.190691 216.385263 
L 95.403523 216.164211 
L 96.04202 216.164211 
L 96.467685 215.501053 
L 96.680518 215.28 
L 96.89335 214.616842 
L 97.106183 213.511579 
L 97.319015 213.290526 
L 97.74468 213.290526 
L 98.170345 212.848421 
L 98.383177 212.848421 
L 98.59601 212.627368 
L 98.808842 212.627368 
L 99.021675 211.522105 
L 99.234507 211.08 
L 99.44734 208.869474 
L 99.660172 208.427368 
L 99.873005 208.427368 
L 100.085837 208.206316 
L 100.29867 208.206316 
L 100.511502 207.543158 
L 100.937167 207.543158 
L 101.149999 206.658947 
L 101.362832 206.658947 
L 101.575664 206.216842 
L 101.788497 206.216842 
L 102.426994 204.890526 
L 102.639827 204.890526 
L 103.703989 201.795789 
L 103.916821 200.469474 
L 104.129654 200.248421 
L 104.768151 200.248421 
L 105.193816 199.806316 
L 105.406649 199.806316 
L 105.832314 199.143158 
L 106.257978 199.143158 
L 106.896476 198.037895 
L 107.109308 197.816842 
L 107.960638 197.816842 
L 108.386303 197.374737 
L 109.0248 197.374737 
L 109.450465 196.932632 
L 112.004455 196.932632 
L 112.217287 196.711579 
L 112.43012 194.722105 
L 112.855785 193.616842 
L 113.707115 192.732632 
L 113.919947 191.848421 
L 114.132779 191.848421 
L 114.345612 190.301053 
L 114.558444 189.637895 
L 114.771277 189.416842 
L 115.835439 189.416842 
L 116.048272 188.753684 
L 116.473937 188.753684 
L 116.899601 188.311579 
L 117.325266 188.311579 
L 117.538099 188.090526 
L 117.963764 188.090526 
L 118.176596 187.869474 
L 118.815094 187.869474 
L 119.027926 187.648421 
L 119.453591 187.648421 
L 120.092088 186.985263 
L 120.304921 186.985263 
L 120.943418 185.658947 
L 121.369083 185.658947 
L 121.581916 185.437895 
L 123.923073 185.437895 
L 124.348738 184.774737 
L 124.774402 184.774737 
L 124.987235 184.553684 
L 125.200067 183.669474 
L 125.625732 183.227368 
L 126.26423 181.901053 
L 126.902727 181.901053 
L 127.115559 181.68 
L 127.328392 181.016842 
L 127.541224 181.016842 
L 127.754057 179.911579 
L 128.179722 179.911579 
L 128.392554 179.690526 
L 128.818219 179.690526 
L 129.243884 169.964211 
L 130.308046 158.027368 
L 130.520879 156.922105 
L 130.946544 156.037895 
L 131.159376 155.153684 
L 131.372209 154.932632 
L 131.585041 154.932632 
L 131.797874 154.269474 
L 132.010706 154.269474 
L 132.223539 154.048421 
L 132.436371 153.606316 
L 132.862036 153.606316 
L 133.074868 153.164211 
L 134.351863 153.164211 
L 134.564696 151.174737 
L 134.99036 150.732632 
L 136.054523 150.732632 
L 136.267355 149.185263 
L 136.480188 148.743158 
L 136.69302 148.743158 
L 136.905853 148.08 
L 137.118685 148.08 
L 137.331518 147.416842 
L 137.757182 147.416842 
L 137.970015 147.195789 
L 138.182847 146.753684 
L 138.39568 145.869474 
L 138.608512 145.869474 
L 138.821345 145.648421 
L 139.459842 145.648421 
L 139.672675 145.427368 
L 140.311172 145.427368 
L 140.524004 144.985263 
L 140.736837 144.985263 
L 141.162502 144.322105 
L 141.375334 144.322105 
L 141.800999 142.553684 
L 142.013832 142.332632 
L 142.652329 142.332632 
L 142.865161 141.890526 
L 143.077994 141.890526 
L 143.290826 141.669474 
L 143.503659 141.227368 
L 143.716491 141.227368 
L 143.929324 141.006316 
L 144.142156 141.006316 
L 144.567821 140.343158 
L 145.206319 140.343158 
L 145.419151 140.122105 
L 145.844816 139.458947 
L 146.270481 139.016842 
L 147.760308 139.016842 
L 147.973141 138.795789 
L 148.398805 138.795789 
L 148.611638 138.574737 
L 149.6758 138.574737 
L 149.888633 138.353684 
L 150.314298 138.353684 
L 150.52713 138.132632 
L 153.293952 138.132632 
L 153.506784 137.911579 
L 156.060774 137.911579 
L 156.273606 137.690526 
L 156.912104 137.690526 
L 157.124936 137.469474 
L 158.827596 137.469474 
L 159.253261 137.027368 
L 162.232915 137.027368 
L 162.445748 136.806316 
L 165.638235 136.806316 
L 165.851067 136.585263 
L 166.915229 136.585263 
L 167.128062 136.364211 
L 167.340894 136.364211 
L 167.553727 136.143158 
L 167.979392 136.143158 
L 168.405057 135.48 
L 170.533381 135.48 
L 170.746214 135.258947 
L 171.810376 135.258947 
L 172.023208 130.395789 
L 172.236041 129.511579 
L 172.874538 129.511579 
L 173.087371 129.290526 
L 173.300203 129.290526 
L 173.513036 129.069474 
L 175.002863 129.069474 
L 175.215695 128.848421 
L 175.428528 128.848421 
L 175.64136 128.627368 
L 184.154659 128.627368 
L 184.580324 128.185263 
L 185.218821 128.185263 
L 185.431653 127.964211 
L 185.857318 127.964211 
L 186.282983 127.522105 
L 188.836973 127.522105 
L 189.049805 127.301053 
L 191.816627 127.301053 
L 192.02946 127.08 
L 192.242292 126.416842 
L 192.667957 125.974737 
L 192.880789 122.658947 
L 193.093622 121.553684 
L 193.306454 121.332632 
L 193.519287 121.332632 
L 193.732119 120.890526 
L 195.009114 120.890526 
L 195.221947 120.669474 
L 197.137439 120.669474 
L 197.350271 120.448421 
L 197.775936 120.448421 
L 197.988768 119.785263 
L 199.265763 119.785263 
L 199.478596 118.68 
L 201.60692 118.68 
L 201.819753 118.458947 
L 203.522412 118.458947 
L 203.735245 118.237895 
L 205.225072 118.237895 
L 205.437905 118.016842 
L 205.650737 118.016842 
L 205.863569 117.795789 
L 207.353397 117.795789 
L 207.566229 117.574737 
L 207.779062 116.690526 
L 209.694554 116.690526 
L 210.120219 116.248421 
L 211.184381 116.248421 
L 211.397213 116.027368 
L 215.015365 116.027368 
L 215.228198 115.806316 
L 215.653863 115.806316 
L 215.866695 115.585263 
L 216.079528 115.585263 
L 216.29236 115.364211 
L 217.569355 115.364211 
L 217.782187 115.143158 
L 218.84635 115.143158 
L 219.059182 114.922105 
L 220.123344 114.922105 
L 220.336177 114.701053 
L 221.400339 114.701053 
L 221.613171 114.037895 
L 221.826004 113.816842 
L 222.251669 113.816842 
L 222.890166 113.153684 
L 224.167161 113.153684 
L 224.379993 112.711579 
L 225.869821 112.711579 
L 226.082653 112.490526 
L 226.72115 112.490526 
L 226.933983 112.269474 
L 228.849475 112.269474 
L 229.062308 112.048421 
L 229.700805 112.048421 
L 229.913637 111.827368 
L 236.511444 111.827368 
L 236.724276 111.606316 
L 236.937109 111.606316 
L 237.362773 111.164211 
L 239.916763 111.164211 
L 240.129595 110.943158 
L 240.768093 110.943158 
L 240.980925 110.722105 
L 241.619423 110.722105 
L 241.832255 110.501053 
L 243.10925 110.501053 
L 243.322082 110.28 
L 244.599077 110.28 
L 245.237574 109.616842 
L 245.876072 109.616842 
L 246.088904 108.953684 
L 246.514569 108.953684 
L 246.727402 108.732632 
L 285.250077 108.732632 
L 285.462909 107.406316 
L 285.675742 107.406316 
L 285.888574 106.964211 
L 286.527072 106.964211 
L 286.739904 106.743158 
L 287.378401 106.743158 
L 287.591234 106.522105 
L 287.804066 105.858947 
L 288.016899 105.858947 
L 288.229731 105.637895 
L 288.442564 105.195789 
L 289.506726 105.195789 
L 289.932391 103.427368 
L 290.358056 103.427368 
L 290.570888 102.985263 
L 291.635051 102.985263 
L 291.847883 102.764211 
L 292.060716 102.764211 
L 292.48638 102.101053 
L 292.699213 101.88 
L 293.124878 101.216842 
L 293.550543 101.216842 
L 293.763375 100.995789 
L 294.18904 100.995789 
L 294.401873 100.553684 
L 296.104532 100.553684 
L 296.317365 100.332632 
L 304.830663 100.332632 
L 305.043496 100.111579 
L 307.597485 100.111579 
L 307.810318 99.890526 
L 318.877605 99.890526 
L 319.090438 99.669474 
L 329.519228 99.669474 
L 329.732061 99.006316 
L 329.944893 99.006316 
L 330.370558 98.343158 
L 335.052872 98.343158 
L 335.478537 97.901053 
L 339.522354 97.901053 
L 339.735186 97.68 
L 344.630333 97.68 
L 344.843165 97.237895 
L 353.569296 97.237895 
L 353.782129 97.016842 
L 356.123286 97.016842 
L 356.336118 96.795789 
L 356.548951 96.795789 
L 356.761783 96.574737 
L 367.616239 96.574737 
L 367.829071 96.353684 
L 375.916705 96.353684 
L 375.916705 96.353684 
" clip-path="url(#p7361ce88ac)" style="fill: none; stroke: #57db94; stroke-width: 1.2; stroke-linecap: round"/>
   </g>
   <g id="line2d_42">
    <path d="M 69.650795 489.385263 
L 69.863628 485.848421 
L 70.289293 485.406316 
L 70.502125 485.406316 
L 70.714958 455.122105 
L 71.353455 420.416842 
L 71.77912 414.227368 
L 72.204785 393.448421 
L 72.417617 388.806316 
L 72.63045 387.922105 
L 73.056115 376.427368 
L 74.120277 358.522105 
L 74.545942 355.206316 
L 75.397272 341.058947 
L 75.822937 338.185263 
L 76.035769 337.08 
L 76.248602 333.764211 
L 76.461434 332.658947 
L 76.674267 332.437895 
L 77.099932 330.006316 
L 77.738429 325.585263 
L 77.951261 325.143158 
L 78.376926 321.164211 
L 78.802591 318.069474 
L 79.015424 316.743158 
L 79.228256 316.301053 
L 79.441089 312.322105 
L 80.079586 307.901053 
L 80.505251 306.132632 
L 80.718083 303.701053 
L 80.930916 303.701053 
L 81.356581 301.048421 
L 81.782246 299.722105 
L 81.995078 298.395789 
L 82.420743 297.290526 
L 83.05924 293.311579 
L 83.272073 292.206316 
L 83.484905 292.206316 
L 83.91057 291.101053 
L 84.123403 289.774737 
L 85.187565 287.785263 
L 85.400397 286.458947 
L 85.826062 285.574737 
L 86.46456 282.037895 
L 86.677392 280.490526 
L 87.31589 278.501053 
L 87.741555 276.069474 
L 87.954387 274.964211 
L 88.167219 274.964211 
L 88.380052 274.743158 
L 88.805717 273.858947 
L 89.018549 273.858947 
L 89.231382 273.195789 
L 89.444214 273.195789 
L 89.657047 272.532632 
L 89.869879 272.311579 
L 90.295544 272.311579 
L 90.508376 271.869474 
L 90.721209 271.869474 
L 91.146874 270.764211 
L 91.572539 270.322105 
L 91.998204 268.995789 
L 92.211036 268.774737 
L 92.423869 268.774737 
L 92.636701 267.669474 
L 93.488031 265.901053 
L 93.700863 265.901053 
L 93.913696 265.68 
L 94.126528 265.237895 
L 94.339361 265.237895 
L 94.552193 265.016842 
L 94.977858 264.353684 
L 95.190691 264.132632 
L 95.403523 264.132632 
L 95.616356 263.911579 
L 95.829188 263.911579 
L 96.04202 263.469474 
L 96.467685 263.469474 
L 97.319015 261.922105 
L 97.531848 261.922105 
L 97.957513 261.48 
L 98.170345 261.037895 
L 98.808842 261.037895 
L 99.234507 259.269474 
L 99.44734 259.048421 
L 99.660172 258.385263 
L 100.085837 257.943158 
L 100.511502 257.943158 
L 100.724335 257.722105 
L 101.149999 257.722105 
L 101.788497 257.058947 
L 102.214162 256.395789 
L 103.065492 256.395789 
L 103.278324 254.406316 
L 103.491157 254.185263 
L 103.703989 253.522105 
L 104.129654 253.08 
L 105.193816 253.08 
L 105.619481 252.637895 
L 106.045146 252.637895 
L 106.470811 252.195789 
L 106.896476 252.195789 
L 107.109308 251.532632 
L 107.534973 251.532632 
L 107.747806 250.869474 
L 108.173471 250.869474 
L 108.386303 250.648421 
L 110.72746 250.648421 
L 110.940293 250.427368 
L 111.365957 250.427368 
L 111.57879 249.985263 
L 111.791622 249.985263 
L 112.217287 248.437895 
L 112.43012 248.216842 
L 112.642952 248.216842 
L 113.068617 247.553684 
L 113.28145 247.332632 
L 113.494282 247.332632 
L 113.707115 246.890526 
L 114.132779 246.890526 
L 114.771277 244.68 
L 115.835439 244.68 
L 116.048272 243.795789 
L 116.473937 243.795789 
L 116.899601 243.353684 
L 117.538099 243.353684 
L 117.750931 243.132632 
L 118.815094 243.132632 
L 119.027926 242.911579 
L 119.879256 242.911579 
L 120.517753 242.248421 
L 120.730586 242.248421 
L 120.943418 242.027368 
L 121.156251 242.027368 
L 121.369083 241.585263 
L 123.71024 241.585263 
L 124.135905 240.701053 
L 124.56157 240.701053 
L 124.774402 240.48 
L 125.838565 240.48 
L 126.051397 240.258947 
L 126.477062 239.595789 
L 127.541224 239.595789 
L 127.754057 238.048421 
L 127.966889 238.048421 
L 128.818219 237.164211 
L 129.031052 230.311579 
L 129.243884 228.764211 
L 129.456717 225.006316 
L 129.669549 225.006316 
L 129.882381 218.816842 
L 130.308046 215.058947 
L 130.520879 213.953684 
L 130.946544 213.069474 
L 131.372209 211.522105 
L 131.585041 211.522105 
L 131.797874 210.858947 
L 132.010706 210.858947 
L 132.223539 209.753684 
L 132.436371 209.532632 
L 132.862036 209.532632 
L 133.074868 209.311579 
L 133.287701 209.311579 
L 133.500533 209.090526 
L 134.351863 209.090526 
L 134.564696 207.322105 
L 134.99036 207.322105 
L 135.203193 205.332632 
L 136.054523 205.332632 
L 136.267355 205.111579 
L 136.480188 204.669474 
L 136.69302 204.669474 
L 136.905853 204.006316 
L 137.118685 204.006316 
L 137.54435 203.564211 
L 137.757182 202.901053 
L 137.970015 202.68 
L 138.182847 202.68 
L 138.39568 202.458947 
L 139.24701 202.458947 
L 139.459842 202.016842 
L 140.311172 202.016842 
L 140.524004 201.795789 
L 140.949669 201.795789 
L 141.162502 201.353684 
L 141.588167 201.353684 
L 141.800999 200.027368 
L 142.013832 199.585263 
L 142.439497 199.585263 
L 142.652329 199.364211 
L 142.865161 199.364211 
L 143.077994 199.143158 
L 143.290826 199.143158 
L 143.503659 198.922105 
L 143.716491 198.922105 
L 143.929324 198.48 
L 144.354989 198.48 
L 144.567821 198.258947 
L 145.419151 198.258947 
L 145.631983 198.037895 
L 145.844816 198.037895 
L 146.057648 197.816842 
L 146.483313 197.816842 
L 146.696146 197.153684 
L 149.888633 197.153684 
L 150.101465 196.932632 
L 160.317423 196.932632 
L 160.530256 196.490526 
L 163.50991 196.490526 
L 163.722743 196.048421 
L 163.935575 196.048421 
L 164.148407 195.827368 
L 167.553727 195.827368 
L 167.766559 195.385263 
L 169.894884 195.385263 
L 170.107716 195.164211 
L 175.428528 195.164211 
L 175.64136 188.311579 
L 181.813502 188.311579 
L 182.026334 188.090526 
L 185.431653 188.090526 
L 185.644486 187.427368 
L 185.857318 187.206316 
L 198.414433 187.206316 
L 198.627266 179.911579 
L 199.691428 179.911579 
L 199.904261 179.248421 
L 301.851009 179.248421 
L 302.063841 169.08 
L 308.661647 169.08 
L 308.87448 168.858947 
L 311.854134 168.858947 
L 312.066967 168.637895 
L 322.282925 168.637895 
L 322.495757 167.974737 
L 353.994961 167.974737 
L 354.207794 167.753684 
L 366.552076 167.753684 
L 366.764909 167.311579 
L 375.916705 167.311579 
L 375.916705 167.311579 
" clip-path="url(#p7361ce88ac)" style="fill: none; stroke: #5784db; stroke-width: 1.2; stroke-linecap: round"/>
   </g>
   <g id="line2d_43">
    <path d="M 69.650795 484.522105 
L 70.07646 457.553684 
L 70.289293 455.343158 
L 70.92779 439.648421 
L 71.353455 415.332632 
L 71.566288 409.585263 
L 72.204785 381.953684 
L 72.417617 379.08 
L 73.907445 345.258947 
L 74.33311 340.837895 
L 74.545942 338.185263 
L 74.971607 330.890526 
L 75.397272 322.048421 
L 76.035769 316.08 
L 76.461434 311.437895 
L 77.525596 301.932632 
L 77.738429 299.058947 
L 77.951261 297.953684 
L 78.376926 291.985263 
L 78.589759 291.101053 
L 78.802591 288.890526 
L 79.015424 288.227368 
L 79.653921 280.048421 
L 80.505251 273.195789 
L 80.718083 272.753684 
L 80.930916 271.427368 
L 81.356581 266.785263 
L 81.782246 265.016842 
L 81.995078 262.364211 
L 82.420743 260.374737 
L 82.633575 257.28 
L 83.05924 255.069474 
L 83.484905 252.416842 
L 83.91057 251.311579 
L 84.549068 247.995789 
L 84.974733 246.227368 
L 85.826062 244.237895 
L 86.038895 241.585263 
L 86.251727 240.922105 
L 86.890225 236.943158 
L 87.103057 236.722105 
L 87.31589 236.058947 
L 87.741555 232.08 
L 87.954387 230.974737 
L 88.167219 230.753684 
L 88.380052 230.311579 
L 88.805717 228.543158 
L 89.018549 228.322105 
L 89.444214 226.995789 
L 89.869879 226.553684 
L 90.082712 226.553684 
L 90.295544 226.332632 
L 90.508376 225.890526 
L 90.721209 225.890526 
L 90.934041 225.227368 
L 91.359706 221.690526 
L 91.785371 220.585263 
L 91.998204 219.701053 
L 92.211036 219.48 
L 92.636701 218.374737 
L 93.913696 215.943158 
L 94.126528 215.722105 
L 94.977858 214.174737 
L 95.616356 213.511579 
L 95.829188 213.511579 
L 96.04202 213.290526 
L 96.254853 213.290526 
L 96.680518 212.848421 
L 96.89335 212.185263 
L 97.106183 211.08 
L 97.319015 210.858947 
L 97.531848 210.858947 
L 97.74468 210.637895 
L 97.957513 210.637895 
L 98.170345 210.416842 
L 98.383177 210.416842 
L 98.59601 210.195789 
L 98.808842 210.195789 
L 99.234507 207.322105 
L 99.660172 205.995789 
L 99.873005 205.995789 
L 100.085837 205.774737 
L 100.29867 205.774737 
L 100.511502 205.111579 
L 100.937167 205.111579 
L 101.149999 204.227368 
L 101.362832 204.227368 
L 101.788497 203.564211 
L 102.001329 203.343158 
L 102.214162 202.68 
L 102.426994 202.458947 
L 102.639827 202.458947 
L 103.703989 198.258947 
L 104.129654 197.816842 
L 104.342486 197.816842 
L 104.555319 197.595789 
L 104.980984 197.595789 
L 105.193816 197.374737 
L 105.406649 197.374737 
L 105.832314 196.711579 
L 106.257978 196.711579 
L 106.470811 196.048421 
L 106.683643 196.048421 
L 107.109308 195.385263 
L 107.534973 195.385263 
L 107.747806 194.943158 
L 108.173471 194.943158 
L 108.386303 194.722105 
L 109.0248 194.722105 
L 109.237633 194.501053 
L 110.72746 194.501053 
L 110.940293 194.28 
L 111.365957 194.28 
L 111.57879 193.837895 
L 111.791622 192.953684 
L 112.004455 192.953684 
L 112.43012 191.627368 
L 112.855785 190.522105 
L 113.707115 189.637895 
L 113.919947 188.753684 
L 114.132779 188.532632 
L 114.558444 186.543158 
L 114.771277 186.322105 
L 115.835439 186.322105 
L 116.048272 185.658947 
L 116.473937 185.658947 
L 116.899601 185.216842 
L 117.325266 185.216842 
L 117.538099 184.995789 
L 117.963764 184.995789 
L 118.176596 184.774737 
L 118.389429 184.774737 
L 118.602261 184.553684 
L 119.453591 184.553684 
L 119.666423 184.111579 
L 119.879256 184.111579 
L 120.092088 183.890526 
L 120.304921 183.890526 
L 120.517753 183.227368 
L 120.730586 183.227368 
L 120.943418 182.564211 
L 123.71024 182.564211 
L 124.135905 181.68 
L 124.774402 181.68 
L 125.200067 180.574737 
L 125.625732 180.132632 
L 126.26423 178.806316 
L 126.902727 178.806316 
L 127.328392 177.258947 
L 127.541224 177.258947 
L 127.754057 176.816842 
L 127.966889 176.816842 
L 128.392554 176.374737 
L 128.605387 175.932632 
L 128.818219 173.722105 
L 129.456717 160.68 
L 130.095214 154.269474 
L 130.733711 152.058947 
L 131.797874 148.964211 
L 132.436371 148.301053 
L 132.649203 148.301053 
L 132.862036 148.08 
L 133.074868 148.08 
L 133.287701 147.858947 
L 134.139031 147.858947 
L 134.564696 144.985263 
L 134.777528 144.101053 
L 134.99036 143.88 
L 135.84169 143.88 
L 136.054523 143.658947 
L 136.267355 143.658947 
L 136.480188 142.995789 
L 136.69302 142.995789 
L 136.905853 142.332632 
L 137.118685 142.332632 
L 138.182847 140.122105 
L 138.608512 140.122105 
L 138.821345 139.901053 
L 139.034177 139.901053 
L 139.24701 139.68 
L 140.311172 139.68 
L 140.524004 139.237895 
L 140.736837 139.237895 
L 140.949669 138.574737 
L 141.162502 138.574737 
L 141.375334 138.353684 
L 142.013832 136.585263 
L 142.226664 136.585263 
L 142.439497 136.364211 
L 142.652329 136.364211 
L 143.077994 135.701053 
L 143.290826 135.701053 
L 143.929324 134.595789 
L 144.354989 134.595789 
L 144.567821 134.374737 
L 145.206319 134.374737 
L 145.419151 134.153684 
L 145.844816 133.490526 
L 146.270481 133.048421 
L 147.760308 133.048421 
L 147.973141 132.827368 
L 149.6758 132.827368 
L 150.101465 132.385263 
L 153.293952 132.385263 
L 153.506784 132.164211 
L 156.060774 132.164211 
L 156.273606 131.943158 
L 156.912104 131.943158 
L 157.124936 131.722105 
L 158.827596 131.722105 
L 159.040428 131.28 
L 162.232915 131.28 
L 162.445748 131.058947 
L 165.638235 131.058947 
L 165.851067 130.837895 
L 166.915229 130.837895 
L 167.128062 130.616842 
L 167.340894 130.616842 
L 167.766559 130.174737 
L 167.979392 130.174737 
L 168.405057 129.511579 
L 170.533381 129.511579 
L 170.746214 129.290526 
L 171.810376 129.290526 
L 172.023208 124.427368 
L 172.236041 123.543158 
L 172.874538 123.543158 
L 173.087371 123.322105 
L 173.300203 123.322105 
L 173.513036 123.101053 
L 175.002863 123.101053 
L 175.215695 122.88 
L 175.428528 122.88 
L 175.64136 122.658947 
L 184.154659 122.658947 
L 184.580324 122.216842 
L 185.218821 122.216842 
L 185.431653 121.995789 
L 185.644486 121.995789 
L 185.857318 121.774737 
L 186.070151 121.774737 
L 186.282983 121.553684 
L 188.836973 121.553684 
L 189.049805 121.332632 
L 191.603795 121.332632 
L 192.02946 120.890526 
L 192.242292 120.227368 
L 192.455125 120.006316 
L 192.667957 119.564211 
L 192.880789 116.469474 
L 193.093622 115.143158 
L 193.519287 115.143158 
L 193.732119 114.701053 
L 195.009114 114.701053 
L 195.221947 114.48 
L 196.924606 114.48 
L 197.137439 114.258947 
L 197.775936 114.258947 
L 197.988768 113.595789 
L 198.201601 113.595789 
L 198.414433 113.374737 
L 198.627266 113.374737 
L 199.052931 112.490526 
L 201.60692 112.490526 
L 201.819753 112.269474 
L 203.096748 112.269474 
L 203.30958 112.048421 
L 205.225072 112.048421 
L 205.650737 111.606316 
L 206.502067 111.606316 
L 206.714899 111.385263 
L 207.566229 111.385263 
L 207.779062 110.501053 
L 209.694554 110.501053 
L 210.120219 110.058947 
L 211.184381 110.058947 
L 211.397213 109.837895 
L 215.015365 109.837895 
L 215.44103 109.395789 
L 216.079528 109.395789 
L 216.29236 109.174737 
L 217.569355 109.174737 
L 217.782187 108.953684 
L 218.84635 108.953684 
L 219.059182 108.732632 
L 220.123344 108.732632 
L 220.336177 108.511579 
L 221.187507 108.511579 
L 221.400339 108.290526 
L 221.613171 107.627368 
L 221.826004 107.406316 
L 222.464501 107.406316 
L 222.890166 106.964211 
L 223.954329 106.964211 
L 224.167161 106.522105 
L 225.869821 106.522105 
L 226.082653 106.301053 
L 226.72115 106.301053 
L 226.933983 106.08 
L 228.849475 106.08 
L 229.062308 105.858947 
L 229.487972 105.858947 
L 229.700805 105.637895 
L 236.511444 105.637895 
L 236.724276 105.416842 
L 236.937109 105.416842 
L 237.362773 104.974737 
L 239.703931 104.974737 
L 239.916763 104.753684 
L 240.768093 104.753684 
L 240.980925 104.532632 
L 241.619423 104.532632 
L 241.832255 104.311579 
L 243.10925 104.311579 
L 243.322082 104.090526 
L 244.386245 104.090526 
L 244.599077 103.869474 
L 244.81191 103.869474 
L 245.237574 103.427368 
L 245.663239 103.427368 
L 245.876072 103.206316 
L 246.088904 102.764211 
L 252.261046 102.764211 
L 252.473878 102.543158 
L 255.879197 102.543158 
L 256.09203 102.322105 
L 266.095155 102.322105 
L 266.307988 102.101053 
L 270.77747 102.101053 
L 270.990302 101.88 
L 278.226606 101.88 
L 278.439438 101.658947 
L 279.290768 101.658947 
L 279.5036 101.437895 
L 285.675742 101.437895 
L 285.888574 100.995789 
L 286.101407 100.995789 
L 286.527072 100.553684 
L 286.952737 99.890526 
L 287.378401 99.890526 
L 287.804066 99.448421 
L 288.016899 99.448421 
L 288.442564 98.343158 
L 289.081061 98.343158 
L 289.506726 97.016842 
L 290.358056 97.016842 
L 290.570888 96.574737 
L 291.635051 96.574737 
L 291.847883 96.353684 
L 292.060716 96.353684 
L 292.48638 95.690526 
L 292.699213 95.469474 
L 293.124878 94.806316 
L 293.33771 94.806316 
L 293.550543 94.585263 
L 294.18904 94.585263 
L 294.401873 94.143158 
L 296.104532 94.143158 
L 296.317365 93.922105 
L 304.192166 93.922105 
L 304.404998 93.701053 
L 307.597485 93.701053 
L 307.810318 93.48 
L 317.813443 93.48 
L 318.026276 93.258947 
L 318.877605 93.258947 
L 319.090438 93.037895 
L 320.793098 93.037895 
L 321.00593 92.816842 
L 322.282925 92.816842 
L 322.495757 92.595789 
L 329.944893 92.595789 
L 330.370558 91.932632 
L 335.052872 91.932632 
L 335.478537 91.490526 
L 339.522354 91.490526 
L 339.735186 91.269474 
L 343.991836 91.269474 
L 344.204668 90.827368 
L 353.569296 90.827368 
L 353.782129 90.606316 
L 356.123286 90.606316 
L 356.336118 90.385263 
L 356.548951 90.385263 
L 356.761783 90.164211 
L 359.95427 90.164211 
L 360.167103 89.943158 
L 361.65693 89.943158 
L 361.869762 89.722105 
L 367.616239 89.722105 
L 367.829071 89.501053 
L 372.93705 89.501053 
L 373.149883 89.28 
L 375.916705 89.28 
L 375.916705 89.28 
" clip-path="url(#p7361ce88ac)" style="fill: none; stroke: #c957db; stroke-width: 1.2; stroke-linecap: round"/>
   </g>
   <g id="line2d_44"/>
   <g id="line2d_45"/>
   <g id="line2d_46"/>
   <g id="line2d_47"/>
   <g id="line2d_48"/>
   <g id="patch_3">
    <path d="M 54.3375 512.64 
L 54.3375 69.12 
" style="fill: none; stroke: #cccccc; stroke-linejoin: miter; stroke-linecap: square"/>
   </g>
   <g id="patch_4">
    <path d="M 54.3375 512.64 
L 391.23 512.64 
" style="fill: none; stroke: #cccccc; stroke-linejoin: miter; stroke-linecap: square"/>
   </g>
   <g id="text_41">
    <!-- Edge Coverage History -->
    <g style="fill: #262626" transform="translate(115.892262 63.12)scale(0.165888 -0.165888)">
     <defs>
      <path id="DejaVuSans-Bold-45" d="M 588 4666 
L 3834 4666 
L 3834 3756 
L 1791 3756 
L 1791 2888 
L 3713 2888 
L 3713 1978 
L 1791 1978 
L 1791 909 
L 3903 909 
L 3903 0 
L 588 0 
L 588 4666 
z
" transform="scale(0.015625)"/>
      <path id="DejaVuSans-Bold-64" d="M 2919 2988 
L 2919 4863 
L 4044 4863 
L 4044 0 
L 2919 0 
L 2919 506 
Q 2688 197 2409 53 
Q 2131 -91 1766 -91 
Q 1119 -91 703 423 
Q 288 938 288 1747 
Q 288 2556 703 3070 
Q 1119 3584 1766 3584 
Q 2128 3584 2408 3439 
Q 2688 3294 2919 2988 
z
M 2181 722 
Q 2541 722 2730 984 
Q 2919 1247 2919 1747 
Q 2919 2247 2730 2509 
Q 2541 2772 2181 2772 
Q 1825 2772 1636 2509 
Q 1447 2247 1447 1747 
Q 1447 1247 1636 984 
Q 1825 722 2181 722 
z
" transform="scale(0.015625)"/>
      <path id="DejaVuSans-Bold-67" d="M 2919 594 
Q 2688 288 2409 144 
Q 2131 0 1766 0 
Q 1125 0 706 504 
Q 288 1009 288 1791 
Q 288 2575 706 3076 
Q 1125 3578 1766 3578 
Q 2131 3578 2409 3434 
Q 2688 3291 2919 2981 
L 2919 3500 
L 4044 3500 
L 4044 353 
Q 4044 -491 3511 -936 
Q 2978 -1381 1966 -1381 
Q 1638 -1381 1331 -1331 
Q 1025 -1281 716 -1178 
L 716 -306 
Q 1009 -475 1290 -558 
Q 1572 -641 1856 -641 
Q 2406 -641 2662 -400 
Q 2919 -159 2919 353 
L 2919 594 
z
M 2181 2772 
Q 1834 2772 1640 2515 
Q 1447 2259 1447 1791 
Q 1447 1309 1634 1061 
Q 1822 813 2181 813 
Q 2531 813 2725 1069 
Q 2919 1325 2919 1791 
Q 2919 2259 2725 2515 
Q 2531 2772 2181 2772 
z
" transform="scale(0.015625)"/>
      <path id="DejaVuSans-Bold-65" d="M 4031 1759 
L 4031 1441 
L 1416 1441 
Q 1456 1047 1700 850 
Q 1944 653 2381 653 
Q 2734 653 3104 758 
Q 3475 863 3866 1075 
L 3866 213 
Q 3469 63 3072 -14 
Q 2675 -91 2278 -91 
Q 1328 -91 801 392 
Q 275 875 275 1747 
Q 275 2603 792 3093 
Q 1309 3584 2216 3584 
Q 3041 3584 3536 3087 
Q 4031 2591 4031 1759 
z
M 2881 2131 
Q 2881 2450 2695 2645 
Q 2509 2841 2209 2841 
Q 1884 2841 1681 2658 
Q 1478 2475 1428 2131 
L 2881 2131 
z
" transform="scale(0.015625)"/>
      <path id="DejaVuSans-Bold-20" transform="scale(0.015625)"/>
      <path id="DejaVuSans-Bold-43" d="M 4288 256 
Q 3956 84 3597 -3 
Q 3238 -91 2847 -91 
Q 1681 -91 1000 561 
Q 319 1213 319 2328 
Q 319 3447 1000 4098 
Q 1681 4750 2847 4750 
Q 3238 4750 3597 4662 
Q 3956 4575 4288 4403 
L 4288 3438 
Q 3953 3666 3628 3772 
Q 3303 3878 2944 3878 
Q 2300 3878 1931 3465 
Q 1563 3053 1563 2328 
Q 1563 1606 1931 1193 
Q 2300 781 2944 781 
Q 3303 781 3628 887 
Q 3953 994 4288 1222 
L 4288 256 
z
" transform="scale(0.015625)"/>
      <path id="DejaVuSans-Bold-6f" d="M 2203 2784 
Q 1831 2784 1636 2517 
Q 1441 2250 1441 1747 
Q 1441 1244 1636 976 
Q 1831 709 2203 709 
Q 2569 709 2762 976 
Q 2956 1244 2956 1747 
Q 2956 2250 2762 2517 
Q 2569 2784 2203 2784 
z
M 2203 3584 
Q 3106 3584 3614 3096 
Q 4122 2609 4122 1747 
Q 4122 884 3614 396 
Q 3106 -91 2203 -91 
Q 1297 -91 786 396 
Q 275 884 275 1747 
Q 275 2609 786 3096 
Q 1297 3584 2203 3584 
z
" transform="scale(0.015625)"/>
      <path id="DejaVuSans-Bold-76" d="M 97 3500 
L 1216 3500 
L 2088 1081 
L 2956 3500 
L 4078 3500 
L 2700 0 
L 1472 0 
L 97 3500 
z
" transform="scale(0.015625)"/>
      <path id="DejaVuSans-Bold-72" d="M 3138 2547 
Q 2991 2616 2845 2648 
Q 2700 2681 2553 2681 
Q 2122 2681 1889 2404 
Q 1656 2128 1656 1613 
L 1656 0 
L 538 0 
L 538 3500 
L 1656 3500 
L 1656 2925 
Q 1872 3269 2151 3426 
Q 2431 3584 2822 3584 
Q 2878 3584 2943 3579 
Q 3009 3575 3134 3559 
L 3138 2547 
z
" transform="scale(0.015625)"/>
      <path id="DejaVuSans-Bold-61" d="M 2106 1575 
Q 1756 1575 1579 1456 
Q 1403 1338 1403 1106 
Q 1403 894 1545 773 
Q 1688 653 1941 653 
Q 2256 653 2472 879 
Q 2688 1106 2688 1447 
L 2688 1575 
L 2106 1575 
z
M 3816 1997 
L 3816 0 
L 2688 0 
L 2688 519 
Q 2463 200 2181 54 
Q 1900 -91 1497 -91 
Q 953 -91 614 226 
Q 275 544 275 1050 
Q 275 1666 698 1953 
Q 1122 2241 2028 2241 
L 2688 2241 
L 2688 2328 
Q 2688 2594 2478 2717 
Q 2269 2841 1825 2841 
Q 1466 2841 1156 2769 
Q 847 2697 581 2553 
L 581 3406 
Q 941 3494 1303 3539 
Q 1666 3584 2028 3584 
Q 2975 3584 3395 3211 
Q 3816 2838 3816 1997 
z
" transform="scale(0.015625)"/>
      <path id="DejaVuSans-Bold-48" d="M 588 4666 
L 1791 4666 
L 1791 2888 
L 3566 2888 
L 3566 4666 
L 4769 4666 
L 4769 0 
L 3566 0 
L 3566 1978 
L 1791 1978 
L 1791 0 
L 588 0 
L 588 4666 
z
" transform="scale(0.015625)"/>
      <path id="DejaVuSans-Bold-69" d="M 538 3500 
L 1656 3500 
L 1656 0 
L 538 0 
L 538 3500 
z
M 538 4863 
L 1656 4863 
L 1656 3950 
L 538 3950 
L 538 4863 
z
" transform="scale(0.015625)"/>
      <path id="DejaVuSans-Bold-73" d="M 3272 3391 
L 3272 2541 
Q 2913 2691 2578 2766 
Q 2244 2841 1947 2841 
Q 1628 2841 1473 2761 
Q 1319 2681 1319 2516 
Q 1319 2381 1436 2309 
Q 1553 2238 1856 2203 
L 2053 2175 
Q 2913 2066 3209 1816 
Q 3506 1566 3506 1031 
Q 3506 472 3093 190 
Q 2681 -91 1863 -91 
Q 1516 -91 1145 -36 
Q 775 19 384 128 
L 384 978 
Q 719 816 1070 734 
Q 1422 653 1784 653 
Q 2113 653 2278 743 
Q 2444 834 2444 1013 
Q 2444 1163 2330 1236 
Q 2216 1309 1875 1350 
L 1678 1375 
Q 931 1469 631 1722 
Q 331 1975 331 2491 
Q 331 3047 712 3315 
Q 1094 3584 1881 3584 
Q 2191 3584 2531 3537 
Q 2872 3491 3272 3391 
z
" transform="scale(0.015625)"/>
      <path id="DejaVuSans-Bold-74" d="M 1759 4494 
L 1759 3500 
L 2913 3500 
L 2913 2700 
L 1759 2700 
L 1759 1216 
Q 1759 972 1856 886 
Q 1953 800 2241 800 
L 2816 800 
L 2816 0 
L 1856 0 
Q 1194 0 917 276 
Q 641 553 641 1216 
L 641 2700 
L 84 2700 
L 84 3500 
L 641 3500 
L 641 4494 
L 1759 4494 
z
" transform="scale(0.015625)"/>
      <path id="DejaVuSans-Bold-79" d="M 78 3500 
L 1197 3500 
L 2138 1125 
L 2938 3500 
L 4056 3500 
L 2584 -331 
Q 2363 -916 2067 -1148 
Q 1772 -1381 1288 -1381 
L 641 -1381 
L 641 -647 
L 991 -647 
Q 1275 -647 1404 -556 
Q 1534 -466 1606 -231 
L 1638 -134 
L 78 3500 
z
" transform="scale(0.015625)"/>
     </defs>
     <use xlink:href="#DejaVuSans-Bold-45"/>
     <use xlink:href="#DejaVuSans-Bold-64" x="68.310547"/>
     <use xlink:href="#DejaVuSans-Bold-67" x="139.892578"/>
     <use xlink:href="#DejaVuSans-Bold-65" x="211.474609"/>
     <use xlink:href="#DejaVuSans-Bold-20" x="279.296875"/>
     <use xlink:href="#DejaVuSans-Bold-43" x="314.111328"/>
     <use xlink:href="#DejaVuSans-Bold-6f" x="387.5"/>
     <use xlink:href="#DejaVuSans-Bold-76" x="456.201172"/>
     <use xlink:href="#DejaVuSans-Bold-65" x="521.386719"/>
     <use xlink:href="#DejaVuSans-Bold-72" x="589.208984"/>
     <use xlink:href="#DejaVuSans-Bold-61" x="638.525391"/>
     <use xlink:href="#DejaVuSans-Bold-67" x="706.005859"/>
     <use xlink:href="#DejaVuSans-Bold-65" x="777.587891"/>
     <use xlink:href="#DejaVuSans-Bold-20" x="845.410156"/>
     <use xlink:href="#DejaVuSans-Bold-48" x="880.224609"/>
     <use xlink:href="#DejaVuSans-Bold-69" x="963.916016"/>
     <use xlink:href="#DejaVuSans-Bold-73" x="998.193359"/>
     <use xlink:href="#DejaVuSans-Bold-74" x="1057.714844"/>
     <use xlink:href="#DejaVuSans-Bold-6f" x="1105.517578"/>
     <use xlink:href="#DejaVuSans-Bold-72" x="1174.21875"/>
     <use xlink:href="#DejaVuSans-Bold-79" x="1223.535156"/>
    </g>
   </g>
   <g id="legend_1">
    <g id="patch_5">
     <path d="M 273.541 508.24 
L 385.07 508.24 
Q 386.83 508.24 386.83 506.48 
L 386.83 428.8405 
Q 386.83 427.0805 385.07 427.0805 
L 273.541 427.0805 
Q 271.781 427.0805 271.781 428.8405 
L 271.781 506.48 
Q 271.781 508.24 273.541 508.24 
z
" style="fill: #ffffff; opacity: 0.8; stroke: #cccccc; stroke-width: 0.8; stroke-linejoin: miter"/>
    </g>
    <g id="text_42">
     <!-- fuzzer -->
     <g style="fill: #262626" transform="translate(314.6085 437.895)scale(0.096 -0.096)">
      <defs>
       <path id="DejaVuSans-66" d="M 2375 4863 
L 2375 4384 
L 1825 4384 
Q 1516 4384 1395 4259 
Q 1275 4134 1275 3809 
L 1275 3500 
L 2222 3500 
L 2222 3053 
L 1275 3053 
L 1275 0 
L 697 0 
L 697 3053 
L 147 3053 
L 147 3500 
L 697 3500 
L 697 3744 
Q 697 4328 969 4595 
Q 1241 4863 1831 4863 
L 2375 4863 
z
" transform="scale(0.015625)"/>
       <path id="DejaVuSans-7a" d="M 353 3500 
L 3084 3500 
L 3084 2975 
L 922 459 
L 3084 459 
L 3084 0 
L 275 0 
L 275 525 
L 2438 3041 
L 353 3041 
L 353 3500 
z
" transform="scale(0.015625)"/>
      </defs>
      <use xlink:href="#DejaVuSans-66"/>
      <use xlink:href="#DejaVuSans-75" x="35.205078"/>
      <use xlink:href="#DejaVuSans-7a" x="98.583984"/>
      <use xlink:href="#DejaVuSans-7a" x="151.074219"/>
      <use xlink:href="#DejaVuSans-65" x="203.564453"/>
      <use xlink:href="#DejaVuSans-72" x="265.087891"/>
     </g>
    </g>
    <g id="line2d_49">
     <path d="M 275.301 447.898125 
L 284.101 447.898125 
L 292.901 447.898125 
" style="fill: none; stroke: #db5f57; stroke-width: 1.2; stroke-linecap: round"/>
    </g>
    <g id="text_43">
     <!-- symcc-0-exid3 -->
     <g style="fill: #262626" transform="translate(299.941 450.978125)scale(0.088 -0.088)">
      <defs>
       <path id="DejaVuSans-79" d="M 2059 -325 
Q 1816 -950 1584 -1140 
Q 1353 -1331 966 -1331 
L 506 -1331 
L 506 -850 
L 844 -850 
Q 1081 -850 1212 -737 
Q 1344 -625 1503 -206 
L 1606 56 
L 191 3500 
L 800 3500 
L 1894 763 
L 2988 3500 
L 3597 3500 
L 2059 -325 
z
" transform="scale(0.015625)"/>
       <path id="DejaVuSans-63" d="M 3122 3366 
L 3122 2828 
Q 2878 2963 2633 3030 
Q 2388 3097 2138 3097 
Q 1578 3097 1268 2742 
Q 959 2388 959 1747 
Q 959 1106 1268 751 
Q 1578 397 2138 397 
Q 2388 397 2633 464 
Q 2878 531 3122 666 
L 3122 134 
Q 2881 22 2623 -34 
Q 2366 -91 2075 -91 
Q 1284 -91 818 406 
Q 353 903 353 1747 
Q 353 2603 823 3093 
Q 1294 3584 2113 3584 
Q 2378 3584 2631 3529 
Q 2884 3475 3122 3366 
z
" transform="scale(0.015625)"/>
       <path id="DejaVuSans-2d" d="M 313 2009 
L 1997 2009 
L 1997 1497 
L 313 1497 
L 313 2009 
z
" transform="scale(0.015625)"/>
       <path id="DejaVuSans-78" d="M 3513 3500 
L 2247 1797 
L 3578 0 
L 2900 0 
L 1881 1375 
L 863 0 
L 184 0 
L 1544 1831 
L 300 3500 
L 978 3500 
L 1906 2253 
L 2834 3500 
L 3513 3500 
z
" transform="scale(0.015625)"/>
      </defs>
      <use xlink:href="#DejaVuSans-73"/>
      <use xlink:href="#DejaVuSans-79" x="52.099609"/>
      <use xlink:href="#DejaVuSans-6d" x="111.279297"/>
      <use xlink:href="#DejaVuSans-63" x="208.691406"/>
      <use xlink:href="#DejaVuSans-63" x="263.671875"/>
      <use xlink:href="#DejaVuSans-2d" x="318.652344"/>
      <use xlink:href="#DejaVuSans-30" x="354.736328"/>
      <use xlink:href="#DejaVuSans-2d" x="418.359375"/>
      <use xlink:href="#DejaVuSans-65" x="454.443359"/>
      <use xlink:href="#DejaVuSans-78" x="514.216797"/>
      <use xlink:href="#DejaVuSans-69" x="573.396484"/>
      <use xlink:href="#DejaVuSans-64" x="601.179688"/>
      <use xlink:href="#DejaVuSans-33" x="664.65625"/>
     </g>
    </g>
    <g id="line2d_50">
     <path d="M 275.301 460.814875 
L 284.101 460.814875 
L 292.901 460.814875 
" style="fill: none; stroke: #b9db57; stroke-width: 1.2; stroke-linecap: round"/>
    </g>
    <g id="text_44">
     <!-- mopt-0-exid3 -->
     <g style="fill: #262626" transform="translate(299.941 463.894875)scale(0.088 -0.088)">
      <defs>
       <path id="DejaVuSans-70" d="M 1159 525 
L 1159 -1331 
L 581 -1331 
L 581 3500 
L 1159 3500 
L 1159 2969 
Q 1341 3281 1617 3432 
Q 1894 3584 2278 3584 
Q 2916 3584 3314 3078 
Q 3713 2572 3713 1747 
Q 3713 922 3314 415 
Q 2916 -91 2278 -91 
Q 1894 -91 1617 61 
Q 1341 213 1159 525 
z
M 3116 1747 
Q 3116 2381 2855 2742 
Q 2594 3103 2138 3103 
Q 1681 3103 1420 2742 
Q 1159 2381 1159 1747 
Q 1159 1113 1420 752 
Q 1681 391 2138 391 
Q 2594 391 2855 752 
Q 3116 1113 3116 1747 
z
" transform="scale(0.015625)"/>
      </defs>
      <use xlink:href="#DejaVuSans-6d"/>
      <use xlink:href="#DejaVuSans-6f" x="97.412109"/>
      <use xlink:href="#DejaVuSans-70" x="158.59375"/>
      <use xlink:href="#DejaVuSans-74" x="222.070312"/>
      <use xlink:href="#DejaVuSans-2d" x="261.279297"/>
      <use xlink:href="#DejaVuSans-30" x="297.363281"/>
      <use xlink:href="#DejaVuSans-2d" x="360.986328"/>
      <use xlink:href="#DejaVuSans-65" x="397.070312"/>
      <use xlink:href="#DejaVuSans-78" x="456.84375"/>
      <use xlink:href="#DejaVuSans-69" x="516.023438"/>
      <use xlink:href="#DejaVuSans-64" x="543.806641"/>
      <use xlink:href="#DejaVuSans-33" x="607.283203"/>
     </g>
    </g>
    <g id="line2d_51">
     <path d="M 275.301 473.731625 
L 284.101 473.731625 
L 292.901 473.731625 
" style="fill: none; stroke: #57db94; stroke-width: 1.2; stroke-linecap: round"/>
    </g>
    <g id="text_45">
     <!-- fairfuzz-0-exid3 -->
     <g style="fill: #262626" transform="translate(299.941 476.811625)scale(0.088 -0.088)">
      <use xlink:href="#DejaVuSans-66"/>
      <use xlink:href="#DejaVuSans-61" x="35.205078"/>
      <use xlink:href="#DejaVuSans-69" x="96.484375"/>
      <use xlink:href="#DejaVuSans-72" x="124.267578"/>
      <use xlink:href="#DejaVuSans-66" x="165.380859"/>
      <use xlink:href="#DejaVuSans-75" x="200.585938"/>
      <use xlink:href="#DejaVuSans-7a" x="263.964844"/>
      <use xlink:href="#DejaVuSans-7a" x="316.455078"/>
      <use xlink:href="#DejaVuSans-2d" x="368.945312"/>
      <use xlink:href="#DejaVuSans-30" x="405.029297"/>
      <use xlink:href="#DejaVuSans-2d" x="468.652344"/>
      <use xlink:href="#DejaVuSans-65" x="504.736328"/>
      <use xlink:href="#DejaVuSans-78" x="564.509766"/>
      <use xlink:href="#DejaVuSans-69" x="623.689453"/>
      <use xlink:href="#DejaVuSans-64" x="651.472656"/>
      <use xlink:href="#DejaVuSans-33" x="714.949219"/>
     </g>
    </g>
    <g id="line2d_52">
     <path d="M 275.301 486.648375 
L 284.101 486.648375 
L 292.901 486.648375 
" style="fill: none; stroke: #5784db; stroke-width: 1.2; stroke-linecap: round"/>
    </g>
    <g id="text_46">
     <!-- aflplusplus-0-exid3 -->
     <g style="fill: #262626" transform="translate(299.941 489.728375)scale(0.088 -0.088)">
      <defs>
       <path id="DejaVuSans-6c" d="M 603 4863 
L 1178 4863 
L 1178 0 
L 603 0 
L 603 4863 
z
" transform="scale(0.015625)"/>
      </defs>
      <use xlink:href="#DejaVuSans-61"/>
      <use xlink:href="#DejaVuSans-66" x="61.279297"/>
      <use xlink:href="#DejaVuSans-6c" x="96.484375"/>
      <use xlink:href="#DejaVuSans-70" x="124.267578"/>
      <use xlink:href="#DejaVuSans-6c" x="187.744141"/>
      <use xlink:href="#DejaVuSans-75" x="215.527344"/>
      <use xlink:href="#DejaVuSans-73" x="278.90625"/>
      <use xlink:href="#DejaVuSans-70" x="331.005859"/>
      <use xlink:href="#DejaVuSans-6c" x="394.482422"/>
      <use xlink:href="#DejaVuSans-75" x="422.265625"/>
      <use xlink:href="#DejaVuSans-73" x="485.644531"/>
      <use xlink:href="#DejaVuSans-2d" x="537.744141"/>
      <use xlink:href="#DejaVuSans-30" x="573.828125"/>
      <use xlink:href="#DejaVuSans-2d" x="637.451172"/>
      <use xlink:href="#DejaVuSans-65" x="673.535156"/>
      <use xlink:href="#DejaVuSans-78" x="733.308594"/>
      <use xlink:href="#DejaVuSans-69" x="792.488281"/>
      <use xlink:href="#DejaVuSans-64" x="820.271484"/>
      <use xlink:href="#DejaVuSans-33" x="883.748047"/>
     </g>
    </g>
    <g id="line2d_53">
     <path d="M 275.301 499.565125 
L 284.101 499.565125 
L 292.901 499.565125 
" style="fill: none; stroke: #c957db; stroke-width: 1.2; stroke-linecap: round"/>
    </g>
    <g id="text_47">
     <!-- fuzzer_global -->
     <g style="fill: #262626" transform="translate(299.941 502.645125)scale(0.088 -0.088)">
      <defs>
       <path id="DejaVuSans-5f" d="M 3263 -1063 
L 3263 -1509 
L -63 -1509 
L -63 -1063 
L 3263 -1063 
z
" transform="scale(0.015625)"/>
       <path id="DejaVuSans-62" d="M 3116 1747 
Q 3116 2381 2855 2742 
Q 2594 3103 2138 3103 
Q 1681 3103 1420 2742 
Q 1159 2381 1159 1747 
Q 1159 1113 1420 752 
Q 1681 391 2138 391 
Q 2594 391 2855 752 
Q 3116 1113 3116 1747 
z
M 1159 2969 
Q 1341 3281 1617 3432 
Q 1894 3584 2278 3584 
Q 2916 3584 3314 3078 
Q 3713 2572 3713 1747 
Q 3713 922 3314 415 
Q 2916 -91 2278 -91 
Q 1894 -91 1617 61 
Q 1341 213 1159 525 
L 1159 0 
L 581 0 
L 581 4863 
L 1159 4863 
L 1159 2969 
z
" transform="scale(0.015625)"/>
      </defs>
      <use xlink:href="#DejaVuSans-66"/>
      <use xlink:href="#DejaVuSans-75" x="35.205078"/>
      <use xlink:href="#DejaVuSans-7a" x="98.583984"/>
      <use xlink:href="#DejaVuSans-7a" x="151.074219"/>
      <use xlink:href="#DejaVuSans-65" x="203.564453"/>
      <use xlink:href="#DejaVuSans-72" x="265.087891"/>
      <use xlink:href="#DejaVuSans-5f" x="306.201172"/>
      <use xlink:href="#DejaVuSans-67" x="356.201172"/>
      <use xlink:href="#DejaVuSans-6c" x="419.677734"/>
      <use xlink:href="#DejaVuSans-6f" x="447.460938"/>
      <use xlink:href="#DejaVuSans-62" x="508.642578"/>
      <use xlink:href="#DejaVuSans-61" x="572.119141"/>
      <use xlink:href="#DejaVuSans-6c" x="633.398438"/>
     </g>
    </g>
   </g>
  </g>
 </g>
 <defs>
  <clipPath id="p7361ce88ac">
   <rect x="54.3375" y="69.12" width="336.8925" height="443.52"/>
  </clipPath>
 </defs>
</svg>
