<?xml version="1.0" encoding="utf-8" standalone="no"?>
<!DOCTYPE svg PUBLIC "-//W3C//DTD SVG 1.1//EN"
  "http://www.w3.org/Graphics/SVG/1.1/DTD/svg11.dtd">
<svg xmlns:xlink="http://www.w3.org/1999/xlink" width="434.4pt" height="576pt" viewBox="0 0 434.4 576" xmlns="http://www.w3.org/2000/svg" version="1.1">
 <metadata>
  <rdf:RDF xmlns:dc="http://purl.org/dc/elements/1.1/" xmlns:cc="http://creativecommons.org/ns#" xmlns:rdf="http://www.w3.org/1999/02/22-rdf-syntax-ns#">
   <cc:Work>
    <dc:type rdf:resource="http://purl.org/dc/dcmitype/StillImage"/>
    <dc:date>2022-09-15T10:05:03.737244</dc:date>
    <dc:format>image/svg+xml</dc:format>
    <dc:creator>
     <cc:Agent>
      <dc:title>Matplotlib v3.5.3, https://matplotlib.org/</dc:title>
     </cc:Agent>
    </dc:creator>
   </cc:Work>
  </rdf:RDF>
 </metadata>
 <defs>
  <style type="text/css">*{stroke-linejoin: round; stroke-linecap: butt}</style>
 </defs>
 <g id="figure_1">
  <g id="patch_1">
   <path d="M 0 576 
L 434.4 576 
L 434.4 0 
L 0 0 
z
" style="fill: #ffffff"/>
  </g>
  <g id="axes_1">
   <g id="patch_2">
    <path d="M 54.3 512.64 
L 390.96 512.64 
L 390.96 69.12 
L 54.3 69.12 
z
" style="fill: #ffffff"/>
   </g>
   <g id="matplotlib.axis_1">
    <g id="xtick_1">
     <g id="line2d_1">
      <path d="M 69.602727 512.64 
L 69.602727 69.12 
" clip-path="url(#p1b60d98a9d)" style="fill: none; stroke: #cccccc; stroke-width: 0.8; stroke-linecap: round"/>
     </g>
     <g id="text_1">
      <!-- 0 -->
      <g style="fill: #262626" transform="translate(69.340214 529.627249)rotate(-45)scale(0.088 -0.088)">
       <defs>
        <path id="DejaVuSans-30" d="M 2034 4250 
Q 1547 4250 1301 3770 
Q 1056 3291 1056 2328 
Q 1056 1369 1301 889 
Q 1547 409 2034 409 
Q 2525 409 2770 889 
Q 3016 1369 3016 2328 
Q 3016 3291 2770 3770 
Q 2525 4250 2034 4250 
z
M 2034 4750 
Q 2819 4750 3233 4129 
Q 3647 3509 3647 2328 
Q 3647 1150 3233 529 
Q 2819 -91 2034 -91 
Q 1250 -91 836 529 
Q 422 1150 422 2328 
Q 422 3509 836 4129 
Q 1250 4750 2034 4750 
z
" transform="scale(0.015625)"/>
       </defs>
       <use xlink:href="#DejaVuSans-30"/>
      </g>
     </g>
    </g>
    <g id="xtick_2">
     <g id="line2d_2">
      <path d="M 86.629406 512.64 
L 86.629406 69.12 
" clip-path="url(#p1b60d98a9d)" style="fill: none; stroke: #cccccc; stroke-width: 0.8; stroke-linecap: round"/>
     </g>
     <g id="text_2">
      <!-- 80 -->
      <g style="fill: #262626" transform="translate(84.387347 533.58634)rotate(-45)scale(0.088 -0.088)">
       <defs>
        <path id="DejaVuSans-38" d="M 2034 2216 
Q 1584 2216 1326 1975 
Q 1069 1734 1069 1313 
Q 1069 891 1326 650 
Q 1584 409 2034 409 
Q 2484 409 2743 651 
Q 3003 894 3003 1313 
Q 3003 1734 2745 1975 
Q 2488 2216 2034 2216 
z
M 1403 2484 
Q 997 2584 770 2862 
Q 544 3141 544 3541 
Q 544 4100 942 4425 
Q 1341 4750 2034 4750 
Q 2731 4750 3128 4425 
Q 3525 4100 3525 3541 
Q 3525 3141 3298 2862 
Q 3072 2584 2669 2484 
Q 3125 2378 3379 2068 
Q 3634 1759 3634 1313 
Q 3634 634 3220 271 
Q 2806 -91 2034 -91 
Q 1263 -91 848 271 
Q 434 634 434 1313 
Q 434 1759 690 2068 
Q 947 2378 1403 2484 
z
M 1172 3481 
Q 1172 3119 1398 2916 
Q 1625 2713 2034 2713 
Q 2441 2713 2670 2916 
Q 2900 3119 2900 3481 
Q 2900 3844 2670 4047 
Q 2441 4250 2034 4250 
Q 1625 4250 1398 4047 
Q 1172 3844 1172 3481 
z
" transform="scale(0.015625)"/>
       </defs>
       <use xlink:href="#DejaVuSans-38"/>
       <use xlink:href="#DejaVuSans-30" x="63.623047"/>
      </g>
     </g>
    </g>
    <g id="xtick_3">
     <g id="line2d_3">
      <path d="M 103.656084 512.64 
L 103.656084 69.12 
" clip-path="url(#p1b60d98a9d)" style="fill: none; stroke: #cccccc; stroke-width: 0.8; stroke-linecap: round"/>
     </g>
     <g id="text_3">
      <!-- 160 -->
      <g style="fill: #262626" transform="translate(99.43448 537.54543)rotate(-45)scale(0.088 -0.088)">
       <defs>
        <path id="DejaVuSans-31" d="M 794 531 
L 1825 531 
L 1825 4091 
L 703 3866 
L 703 4441 
L 1819 4666 
L 2450 4666 
L 2450 531 
L 3481 531 
L 3481 0 
L 794 0 
L 794 531 
z
" transform="scale(0.015625)"/>
        <path id="DejaVuSans-36" d="M 2113 2584 
Q 1688 2584 1439 2293 
Q 1191 2003 1191 1497 
Q 1191 994 1439 701 
Q 1688 409 2113 409 
Q 2538 409 2786 701 
Q 3034 994 3034 1497 
Q 3034 2003 2786 2293 
Q 2538 2584 2113 2584 
z
M 3366 4563 
L 3366 3988 
Q 3128 4100 2886 4159 
Q 2644 4219 2406 4219 
Q 1781 4219 1451 3797 
Q 1122 3375 1075 2522 
Q 1259 2794 1537 2939 
Q 1816 3084 2150 3084 
Q 2853 3084 3261 2657 
Q 3669 2231 3669 1497 
Q 3669 778 3244 343 
Q 2819 -91 2113 -91 
Q 1303 -91 875 529 
Q 447 1150 447 2328 
Q 447 3434 972 4092 
Q 1497 4750 2381 4750 
Q 2619 4750 2861 4703 
Q 3103 4656 3366 4563 
z
" transform="scale(0.015625)"/>
       </defs>
       <use xlink:href="#DejaVuSans-31"/>
       <use xlink:href="#DejaVuSans-36" x="63.623047"/>
       <use xlink:href="#DejaVuSans-30" x="127.246094"/>
      </g>
     </g>
    </g>
    <g id="xtick_4">
     <g id="line2d_4">
      <path d="M 120.682763 512.64 
L 120.682763 69.12 
" clip-path="url(#p1b60d98a9d)" style="fill: none; stroke: #cccccc; stroke-width: 0.8; stroke-linecap: round"/>
     </g>
     <g id="text_4">
      <!-- 240 -->
      <g style="fill: #262626" transform="translate(116.461158 537.54543)rotate(-45)scale(0.088 -0.088)">
       <defs>
        <path id="DejaVuSans-32" d="M 1228 531 
L 3431 531 
L 3431 0 
L 469 0 
L 469 531 
Q 828 903 1448 1529 
Q 2069 2156 2228 2338 
Q 2531 2678 2651 2914 
Q 2772 3150 2772 3378 
Q 2772 3750 2511 3984 
Q 2250 4219 1831 4219 
Q 1534 4219 1204 4116 
Q 875 4013 500 3803 
L 500 4441 
Q 881 4594 1212 4672 
Q 1544 4750 1819 4750 
Q 2544 4750 2975 4387 
Q 3406 4025 3406 3419 
Q 3406 3131 3298 2873 
Q 3191 2616 2906 2266 
Q 2828 2175 2409 1742 
Q 1991 1309 1228 531 
z
" transform="scale(0.015625)"/>
        <path id="DejaVuSans-34" d="M 2419 4116 
L 825 1625 
L 2419 1625 
L 2419 4116 
z
M 2253 4666 
L 3047 4666 
L 3047 1625 
L 3713 1625 
L 3713 1100 
L 3047 1100 
L 3047 0 
L 2419 0 
L 2419 1100 
L 313 1100 
L 313 1709 
L 2253 4666 
z
" transform="scale(0.015625)"/>
       </defs>
       <use xlink:href="#DejaVuSans-32"/>
       <use xlink:href="#DejaVuSans-34" x="63.623047"/>
       <use xlink:href="#DejaVuSans-30" x="127.246094"/>
      </g>
     </g>
    </g>
    <g id="xtick_5">
     <g id="line2d_5">
      <path d="M 137.709441 512.64 
L 137.709441 69.12 
" clip-path="url(#p1b60d98a9d)" style="fill: none; stroke: #cccccc; stroke-width: 0.8; stroke-linecap: round"/>
     </g>
     <g id="text_5">
      <!-- 320 -->
      <g style="fill: #262626" transform="translate(133.487837 537.54543)rotate(-45)scale(0.088 -0.088)">
       <defs>
        <path id="DejaVuSans-33" d="M 2597 2516 
Q 3050 2419 3304 2112 
Q 3559 1806 3559 1356 
Q 3559 666 3084 287 
Q 2609 -91 1734 -91 
Q 1441 -91 1130 -33 
Q 819 25 488 141 
L 488 750 
Q 750 597 1062 519 
Q 1375 441 1716 441 
Q 2309 441 2620 675 
Q 2931 909 2931 1356 
Q 2931 1769 2642 2001 
Q 2353 2234 1838 2234 
L 1294 2234 
L 1294 2753 
L 1863 2753 
Q 2328 2753 2575 2939 
Q 2822 3125 2822 3475 
Q 2822 3834 2567 4026 
Q 2313 4219 1838 4219 
Q 1578 4219 1281 4162 
Q 984 4106 628 3988 
L 628 4550 
Q 988 4650 1302 4700 
Q 1616 4750 1894 4750 
Q 2613 4750 3031 4423 
Q 3450 4097 3450 3541 
Q 3450 3153 3228 2886 
Q 3006 2619 2597 2516 
z
" transform="scale(0.015625)"/>
       </defs>
       <use xlink:href="#DejaVuSans-33"/>
       <use xlink:href="#DejaVuSans-32" x="63.623047"/>
       <use xlink:href="#DejaVuSans-30" x="127.246094"/>
      </g>
     </g>
    </g>
    <g id="xtick_6">
     <g id="line2d_6">
      <path d="M 154.73612 512.64 
L 154.73612 69.12 
" clip-path="url(#p1b60d98a9d)" style="fill: none; stroke: #cccccc; stroke-width: 0.8; stroke-linecap: round"/>
     </g>
     <g id="text_6">
      <!-- 400 -->
      <g style="fill: #262626" transform="translate(150.514515 537.54543)rotate(-45)scale(0.088 -0.088)">
       <use xlink:href="#DejaVuSans-34"/>
       <use xlink:href="#DejaVuSans-30" x="63.623047"/>
       <use xlink:href="#DejaVuSans-30" x="127.246094"/>
      </g>
     </g>
    </g>
    <g id="xtick_7">
     <g id="line2d_7">
      <path d="M 171.762798 512.64 
L 171.762798 69.12 
" clip-path="url(#p1b60d98a9d)" style="fill: none; stroke: #cccccc; stroke-width: 0.8; stroke-linecap: round"/>
     </g>
     <g id="text_7">
      <!-- 480 -->
      <g style="fill: #262626" transform="translate(167.541194 537.54543)rotate(-45)scale(0.088 -0.088)">
       <use xlink:href="#DejaVuSans-34"/>
       <use xlink:href="#DejaVuSans-38" x="63.623047"/>
       <use xlink:href="#DejaVuSans-30" x="127.246094"/>
      </g>
     </g>
    </g>
    <g id="xtick_8">
     <g id="line2d_8">
      <path d="M 188.789477 512.64 
L 188.789477 69.12 
" clip-path="url(#p1b60d98a9d)" style="fill: none; stroke: #cccccc; stroke-width: 0.8; stroke-linecap: round"/>
     </g>
     <g id="text_8">
      <!-- 560 -->
      <g style="fill: #262626" transform="translate(184.567872 537.54543)rotate(-45)scale(0.088 -0.088)">
       <defs>
        <path id="DejaVuSans-35" d="M 691 4666 
L 3169 4666 
L 3169 4134 
L 1269 4134 
L 1269 2991 
Q 1406 3038 1543 3061 
Q 1681 3084 1819 3084 
Q 2600 3084 3056 2656 
Q 3513 2228 3513 1497 
Q 3513 744 3044 326 
Q 2575 -91 1722 -91 
Q 1428 -91 1123 -41 
Q 819 9 494 109 
L 494 744 
Q 775 591 1075 516 
Q 1375 441 1709 441 
Q 2250 441 2565 725 
Q 2881 1009 2881 1497 
Q 2881 1984 2565 2268 
Q 2250 2553 1709 2553 
Q 1456 2553 1204 2497 
Q 953 2441 691 2322 
L 691 4666 
z
" transform="scale(0.015625)"/>
       </defs>
       <use xlink:href="#DejaVuSans-35"/>
       <use xlink:href="#DejaVuSans-36" x="63.623047"/>
       <use xlink:href="#DejaVuSans-30" x="127.246094"/>
      </g>
     </g>
    </g>
    <g id="xtick_9">
     <g id="line2d_9">
      <path d="M 205.816155 512.64 
L 205.816155 69.12 
" clip-path="url(#p1b60d98a9d)" style="fill: none; stroke: #cccccc; stroke-width: 0.8; stroke-linecap: round"/>
     </g>
     <g id="text_9">
      <!-- 640 -->
      <g style="fill: #262626" transform="translate(201.594551 537.54543)rotate(-45)scale(0.088 -0.088)">
       <use xlink:href="#DejaVuSans-36"/>
       <use xlink:href="#DejaVuSans-34" x="63.623047"/>
       <use xlink:href="#DejaVuSans-30" x="127.246094"/>
      </g>
     </g>
    </g>
    <g id="xtick_10">
     <g id="line2d_10">
      <path d="M 222.842833 512.64 
L 222.842833 69.12 
" clip-path="url(#p1b60d98a9d)" style="fill: none; stroke: #cccccc; stroke-width: 0.8; stroke-linecap: round"/>
     </g>
     <g id="text_10">
      <!-- 720 -->
      <g style="fill: #262626" transform="translate(218.621229 537.54543)rotate(-45)scale(0.088 -0.088)">
       <defs>
        <path id="DejaVuSans-37" d="M 525 4666 
L 3525 4666 
L 3525 4397 
L 1831 0 
L 1172 0 
L 2766 4134 
L 525 4134 
L 525 4666 
z
" transform="scale(0.015625)"/>
       </defs>
       <use xlink:href="#DejaVuSans-37"/>
       <use xlink:href="#DejaVuSans-32" x="63.623047"/>
       <use xlink:href="#DejaVuSans-30" x="127.246094"/>
      </g>
     </g>
    </g>
    <g id="xtick_11">
     <g id="line2d_11">
      <path d="M 239.869512 512.64 
L 239.869512 69.12 
" clip-path="url(#p1b60d98a9d)" style="fill: none; stroke: #cccccc; stroke-width: 0.8; stroke-linecap: round"/>
     </g>
     <g id="text_11">
      <!-- 800 -->
      <g style="fill: #262626" transform="translate(235.647908 537.54543)rotate(-45)scale(0.088 -0.088)">
       <use xlink:href="#DejaVuSans-38"/>
       <use xlink:href="#DejaVuSans-30" x="63.623047"/>
       <use xlink:href="#DejaVuSans-30" x="127.246094"/>
      </g>
     </g>
    </g>
    <g id="xtick_12">
     <g id="line2d_12">
      <path d="M 256.89619 512.64 
L 256.89619 69.12 
" clip-path="url(#p1b60d98a9d)" style="fill: none; stroke: #cccccc; stroke-width: 0.8; stroke-linecap: round"/>
     </g>
     <g id="text_12">
      <!-- 880 -->
      <g style="fill: #262626" transform="translate(252.674586 537.54543)rotate(-45)scale(0.088 -0.088)">
       <use xlink:href="#DejaVuSans-38"/>
       <use xlink:href="#DejaVuSans-38" x="63.623047"/>
       <use xlink:href="#DejaVuSans-30" x="127.246094"/>
      </g>
     </g>
    </g>
    <g id="xtick_13">
     <g id="line2d_13">
      <path d="M 273.922869 512.64 
L 273.922869 69.12 
" clip-path="url(#p1b60d98a9d)" style="fill: none; stroke: #cccccc; stroke-width: 0.8; stroke-linecap: round"/>
     </g>
     <g id="text_13">
      <!-- 960 -->
      <g style="fill: #262626" transform="translate(269.701265 537.54543)rotate(-45)scale(0.088 -0.088)">
       <defs>
        <path id="DejaVuSans-39" d="M 703 97 
L 703 672 
Q 941 559 1184 500 
Q 1428 441 1663 441 
Q 2288 441 2617 861 
Q 2947 1281 2994 2138 
Q 2813 1869 2534 1725 
Q 2256 1581 1919 1581 
Q 1219 1581 811 2004 
Q 403 2428 403 3163 
Q 403 3881 828 4315 
Q 1253 4750 1959 4750 
Q 2769 4750 3195 4129 
Q 3622 3509 3622 2328 
Q 3622 1225 3098 567 
Q 2575 -91 1691 -91 
Q 1453 -91 1209 -44 
Q 966 3 703 97 
z
M 1959 2075 
Q 2384 2075 2632 2365 
Q 2881 2656 2881 3163 
Q 2881 3666 2632 3958 
Q 2384 4250 1959 4250 
Q 1534 4250 1286 3958 
Q 1038 3666 1038 3163 
Q 1038 2656 1286 2365 
Q 1534 2075 1959 2075 
z
" transform="scale(0.015625)"/>
       </defs>
       <use xlink:href="#DejaVuSans-39"/>
       <use xlink:href="#DejaVuSans-36" x="63.623047"/>
       <use xlink:href="#DejaVuSans-30" x="127.246094"/>
      </g>
     </g>
    </g>
    <g id="xtick_14">
     <g id="line2d_14">
      <path d="M 290.949547 512.64 
L 290.949547 69.12 
" clip-path="url(#p1b60d98a9d)" style="fill: none; stroke: #cccccc; stroke-width: 0.8; stroke-linecap: round"/>
     </g>
     <g id="text_14">
      <!-- 1040 -->
      <g style="fill: #262626" transform="translate(284.748398 541.504521)rotate(-45)scale(0.088 -0.088)">
       <use xlink:href="#DejaVuSans-31"/>
       <use xlink:href="#DejaVuSans-30" x="63.623047"/>
       <use xlink:href="#DejaVuSans-34" x="127.246094"/>
       <use xlink:href="#DejaVuSans-30" x="190.869141"/>
      </g>
     </g>
    </g>
    <g id="xtick_15">
     <g id="line2d_15">
      <path d="M 307.976226 512.64 
L 307.976226 69.12 
" clip-path="url(#p1b60d98a9d)" style="fill: none; stroke: #cccccc; stroke-width: 0.8; stroke-linecap: round"/>
     </g>
     <g id="text_15">
      <!-- 1120 -->
      <g style="fill: #262626" transform="translate(301.775076 541.504521)rotate(-45)scale(0.088 -0.088)">
       <use xlink:href="#DejaVuSans-31"/>
       <use xlink:href="#DejaVuSans-31" x="63.623047"/>
       <use xlink:href="#DejaVuSans-32" x="127.246094"/>
       <use xlink:href="#DejaVuSans-30" x="190.869141"/>
      </g>
     </g>
    </g>
    <g id="xtick_16">
     <g id="line2d_16">
      <path d="M 325.002904 512.64 
L 325.002904 69.12 
" clip-path="url(#p1b60d98a9d)" style="fill: none; stroke: #cccccc; stroke-width: 0.8; stroke-linecap: round"/>
     </g>
     <g id="text_16">
      <!-- 1200 -->
      <g style="fill: #262626" transform="translate(318.801755 541.504521)rotate(-45)scale(0.088 -0.088)">
       <use xlink:href="#DejaVuSans-31"/>
       <use xlink:href="#DejaVuSans-32" x="63.623047"/>
       <use xlink:href="#DejaVuSans-30" x="127.246094"/>
       <use xlink:href="#DejaVuSans-30" x="190.869141"/>
      </g>
     </g>
    </g>
    <g id="xtick_17">
     <g id="line2d_17">
      <path d="M 342.029583 512.64 
L 342.029583 69.12 
" clip-path="url(#p1b60d98a9d)" style="fill: none; stroke: #cccccc; stroke-width: 0.8; stroke-linecap: round"/>
     </g>
     <g id="text_17">
      <!-- 1280 -->
      <g style="fill: #262626" transform="translate(335.828433 541.504521)rotate(-45)scale(0.088 -0.088)">
       <use xlink:href="#DejaVuSans-31"/>
       <use xlink:href="#DejaVuSans-32" x="63.623047"/>
       <use xlink:href="#DejaVuSans-38" x="127.246094"/>
       <use xlink:href="#DejaVuSans-30" x="190.869141"/>
      </g>
     </g>
    </g>
    <g id="xtick_18">
     <g id="line2d_18">
      <path d="M 359.056261 512.64 
L 359.056261 69.12 
" clip-path="url(#p1b60d98a9d)" style="fill: none; stroke: #cccccc; stroke-width: 0.8; stroke-linecap: round"/>
     </g>
     <g id="text_18">
      <!-- 1360 -->
      <g style="fill: #262626" transform="translate(352.855112 541.504521)rotate(-45)scale(0.088 -0.088)">
       <use xlink:href="#DejaVuSans-31"/>
       <use xlink:href="#DejaVuSans-33" x="63.623047"/>
       <use xlink:href="#DejaVuSans-36" x="127.246094"/>
       <use xlink:href="#DejaVuSans-30" x="190.869141"/>
      </g>
     </g>
    </g>
    <g id="xtick_19">
     <g id="line2d_19">
      <path d="M 376.08294 512.64 
L 376.08294 69.12 
" clip-path="url(#p1b60d98a9d)" style="fill: none; stroke: #cccccc; stroke-width: 0.8; stroke-linecap: round"/>
     </g>
     <g id="text_19">
      <!-- 1440 -->
      <g style="fill: #262626" transform="translate(369.88179 541.504521)rotate(-45)scale(0.088 -0.088)">
       <use xlink:href="#DejaVuSans-31"/>
       <use xlink:href="#DejaVuSans-34" x="63.623047"/>
       <use xlink:href="#DejaVuSans-34" x="127.246094"/>
       <use xlink:href="#DejaVuSans-30" x="190.869141"/>
      </g>
     </g>
    </g>
    <g id="text_20">
     <!-- Time (Minutes) -->
     <g style="fill: #262626" transform="translate(186.72 554.093115)scale(0.096 -0.096)">
      <defs>
       <path id="DejaVuSans-54" d="M -19 4666 
L 3928 4666 
L 3928 4134 
L 2272 4134 
L 2272 0 
L 1638 0 
L 1638 4134 
L -19 4134 
L -19 4666 
z
" transform="scale(0.015625)"/>
       <path id="DejaVuSans-69" d="M 603 3500 
L 1178 3500 
L 1178 0 
L 603 0 
L 603 3500 
z
M 603 4863 
L 1178 4863 
L 1178 4134 
L 603 4134 
L 603 4863 
z
" transform="scale(0.015625)"/>
       <path id="DejaVuSans-6d" d="M 3328 2828 
Q 3544 3216 3844 3400 
Q 4144 3584 4550 3584 
Q 5097 3584 5394 3201 
Q 5691 2819 5691 2113 
L 5691 0 
L 5113 0 
L 5113 2094 
Q 5113 2597 4934 2840 
Q 4756 3084 4391 3084 
Q 3944 3084 3684 2787 
Q 3425 2491 3425 1978 
L 3425 0 
L 2847 0 
L 2847 2094 
Q 2847 2600 2669 2842 
Q 2491 3084 2119 3084 
Q 1678 3084 1418 2786 
Q 1159 2488 1159 1978 
L 1159 0 
L 581 0 
L 581 3500 
L 1159 3500 
L 1159 2956 
Q 1356 3278 1631 3431 
Q 1906 3584 2284 3584 
Q 2666 3584 2933 3390 
Q 3200 3197 3328 2828 
z
" transform="scale(0.015625)"/>
       <path id="DejaVuSans-65" d="M 3597 1894 
L 3597 1613 
L 953 1613 
Q 991 1019 1311 708 
Q 1631 397 2203 397 
Q 2534 397 2845 478 
Q 3156 559 3463 722 
L 3463 178 
Q 3153 47 2828 -22 
Q 2503 -91 2169 -91 
Q 1331 -91 842 396 
Q 353 884 353 1716 
Q 353 2575 817 3079 
Q 1281 3584 2069 3584 
Q 2775 3584 3186 3129 
Q 3597 2675 3597 1894 
z
M 3022 2063 
Q 3016 2534 2758 2815 
Q 2500 3097 2075 3097 
Q 1594 3097 1305 2825 
Q 1016 2553 972 2059 
L 3022 2063 
z
" transform="scale(0.015625)"/>
       <path id="DejaVuSans-20" transform="scale(0.015625)"/>
       <path id="DejaVuSans-28" d="M 1984 4856 
Q 1566 4138 1362 3434 
Q 1159 2731 1159 2009 
Q 1159 1288 1364 580 
Q 1569 -128 1984 -844 
L 1484 -844 
Q 1016 -109 783 600 
Q 550 1309 550 2009 
Q 550 2706 781 3412 
Q 1013 4119 1484 4856 
L 1984 4856 
z
" transform="scale(0.015625)"/>
       <path id="DejaVuSans-4d" d="M 628 4666 
L 1569 4666 
L 2759 1491 
L 3956 4666 
L 4897 4666 
L 4897 0 
L 4281 0 
L 4281 4097 
L 3078 897 
L 2444 897 
L 1241 4097 
L 1241 0 
L 628 0 
L 628 4666 
z
" transform="scale(0.015625)"/>
       <path id="DejaVuSans-6e" d="M 3513 2113 
L 3513 0 
L 2938 0 
L 2938 2094 
Q 2938 2591 2744 2837 
Q 2550 3084 2163 3084 
Q 1697 3084 1428 2787 
Q 1159 2491 1159 1978 
L 1159 0 
L 581 0 
L 581 3500 
L 1159 3500 
L 1159 2956 
Q 1366 3272 1645 3428 
Q 1925 3584 2291 3584 
Q 2894 3584 3203 3211 
Q 3513 2838 3513 2113 
z
" transform="scale(0.015625)"/>
       <path id="DejaVuSans-75" d="M 544 1381 
L 544 3500 
L 1119 3500 
L 1119 1403 
Q 1119 906 1312 657 
Q 1506 409 1894 409 
Q 2359 409 2629 706 
Q 2900 1003 2900 1516 
L 2900 3500 
L 3475 3500 
L 3475 0 
L 2900 0 
L 2900 538 
Q 2691 219 2414 64 
Q 2138 -91 1772 -91 
Q 1169 -91 856 284 
Q 544 659 544 1381 
z
M 1991 3584 
L 1991 3584 
z
" transform="scale(0.015625)"/>
       <path id="DejaVuSans-74" d="M 1172 4494 
L 1172 3500 
L 2356 3500 
L 2356 3053 
L 1172 3053 
L 1172 1153 
Q 1172 725 1289 603 
Q 1406 481 1766 481 
L 2356 481 
L 2356 0 
L 1766 0 
Q 1100 0 847 248 
Q 594 497 594 1153 
L 594 3053 
L 172 3053 
L 172 3500 
L 594 3500 
L 594 4494 
L 1172 4494 
z
" transform="scale(0.015625)"/>
       <path id="DejaVuSans-73" d="M 2834 3397 
L 2834 2853 
Q 2591 2978 2328 3040 
Q 2066 3103 1784 3103 
Q 1356 3103 1142 2972 
Q 928 2841 928 2578 
Q 928 2378 1081 2264 
Q 1234 2150 1697 2047 
L 1894 2003 
Q 2506 1872 2764 1633 
Q 3022 1394 3022 966 
Q 3022 478 2636 193 
Q 2250 -91 1575 -91 
Q 1294 -91 989 -36 
Q 684 19 347 128 
L 347 722 
Q 666 556 975 473 
Q 1284 391 1588 391 
Q 1994 391 2212 530 
Q 2431 669 2431 922 
Q 2431 1156 2273 1281 
Q 2116 1406 1581 1522 
L 1381 1569 
Q 847 1681 609 1914 
Q 372 2147 372 2553 
Q 372 3047 722 3315 
Q 1072 3584 1716 3584 
Q 2034 3584 2315 3537 
Q 2597 3491 2834 3397 
z
" transform="scale(0.015625)"/>
       <path id="DejaVuSans-29" d="M 513 4856 
L 1013 4856 
Q 1481 4119 1714 3412 
Q 1947 2706 1947 2009 
Q 1947 1309 1714 600 
Q 1481 -109 1013 -844 
L 513 -844 
Q 928 -128 1133 580 
Q 1338 1288 1338 2009 
Q 1338 2731 1133 3434 
Q 928 4138 513 4856 
z
" transform="scale(0.015625)"/>
      </defs>
      <use xlink:href="#DejaVuSans-54"/>
      <use xlink:href="#DejaVuSans-69" x="57.958984"/>
      <use xlink:href="#DejaVuSans-6d" x="85.742188"/>
      <use xlink:href="#DejaVuSans-65" x="183.154297"/>
      <use xlink:href="#DejaVuSans-20" x="244.677734"/>
      <use xlink:href="#DejaVuSans-28" x="276.464844"/>
      <use xlink:href="#DejaVuSans-4d" x="315.478516"/>
      <use xlink:href="#DejaVuSans-69" x="401.757812"/>
      <use xlink:href="#DejaVuSans-6e" x="429.541016"/>
      <use xlink:href="#DejaVuSans-75" x="492.919922"/>
      <use xlink:href="#DejaVuSans-74" x="556.298828"/>
      <use xlink:href="#DejaVuSans-65" x="595.507812"/>
      <use xlink:href="#DejaVuSans-73" x="657.03125"/>
      <use xlink:href="#DejaVuSans-29" x="709.130859"/>
     </g>
    </g>
   </g>
   <g id="matplotlib.axis_2">
    <g id="ytick_1">
     <g id="line2d_20">
      <path d="M 54.3 492.48 
L 390.96 492.48 
" clip-path="url(#p1b60d98a9d)" style="fill: none; stroke: #cccccc; stroke-width: 0.8; stroke-linecap: round"/>
     </g>
     <g id="text_21">
      <!-- 0 -->
      <g style="fill: #262626" transform="translate(40.401 495.823313)scale(0.088 -0.088)">
       <use xlink:href="#DejaVuSans-30"/>
      </g>
     </g>
    </g>
    <g id="ytick_2">
     <g id="line2d_21">
      <path d="M 54.3 470.661818 
L 390.96 470.661818 
" clip-path="url(#p1b60d98a9d)" style="fill: none; stroke: #cccccc; stroke-width: 0.8; stroke-linecap: round"/>
     </g>
     <g id="text_22">
      <!-- 100 -->
      <g style="fill: #262626" transform="translate(29.203 474.005131)scale(0.088 -0.088)">
       <use xlink:href="#DejaVuSans-31"/>
       <use xlink:href="#DejaVuSans-30" x="63.623047"/>
       <use xlink:href="#DejaVuSans-30" x="127.246094"/>
      </g>
     </g>
    </g>
    <g id="ytick_3">
     <g id="line2d_22">
      <path d="M 54.3 448.843636 
L 390.96 448.843636 
" clip-path="url(#p1b60d98a9d)" style="fill: none; stroke: #cccccc; stroke-width: 0.8; stroke-linecap: round"/>
     </g>
     <g id="text_23">
      <!-- 200 -->
      <g style="fill: #262626" transform="translate(29.203 452.186949)scale(0.088 -0.088)">
       <use xlink:href="#DejaVuSans-32"/>
       <use xlink:href="#DejaVuSans-30" x="63.623047"/>
       <use xlink:href="#DejaVuSans-30" x="127.246094"/>
      </g>
     </g>
    </g>
    <g id="ytick_4">
     <g id="line2d_23">
      <path d="M 54.3 427.025455 
L 390.96 427.025455 
" clip-path="url(#p1b60d98a9d)" style="fill: none; stroke: #cccccc; stroke-width: 0.8; stroke-linecap: round"/>
     </g>
     <g id="text_24">
      <!-- 300 -->
      <g style="fill: #262626" transform="translate(29.203 430.368767)scale(0.088 -0.088)">
       <use xlink:href="#DejaVuSans-33"/>
       <use xlink:href="#DejaVuSans-30" x="63.623047"/>
       <use xlink:href="#DejaVuSans-30" x="127.246094"/>
      </g>
     </g>
    </g>
    <g id="ytick_5">
     <g id="line2d_24">
      <path d="M 54.3 405.207273 
L 390.96 405.207273 
" clip-path="url(#p1b60d98a9d)" style="fill: none; stroke: #cccccc; stroke-width: 0.8; stroke-linecap: round"/>
     </g>
     <g id="text_25">
      <!-- 400 -->
      <g style="fill: #262626" transform="translate(29.203 408.550585)scale(0.088 -0.088)">
       <use xlink:href="#DejaVuSans-34"/>
       <use xlink:href="#DejaVuSans-30" x="63.623047"/>
       <use xlink:href="#DejaVuSans-30" x="127.246094"/>
      </g>
     </g>
    </g>
    <g id="ytick_6">
     <g id="line2d_25">
      <path d="M 54.3 383.389091 
L 390.96 383.389091 
" clip-path="url(#p1b60d98a9d)" style="fill: none; stroke: #cccccc; stroke-width: 0.8; stroke-linecap: round"/>
     </g>
     <g id="text_26">
      <!-- 500 -->
      <g style="fill: #262626" transform="translate(29.203 386.732403)scale(0.088 -0.088)">
       <use xlink:href="#DejaVuSans-35"/>
       <use xlink:href="#DejaVuSans-30" x="63.623047"/>
       <use xlink:href="#DejaVuSans-30" x="127.246094"/>
      </g>
     </g>
    </g>
    <g id="ytick_7">
     <g id="line2d_26">
      <path d="M 54.3 361.570909 
L 390.96 361.570909 
" clip-path="url(#p1b60d98a9d)" style="fill: none; stroke: #cccccc; stroke-width: 0.8; stroke-linecap: round"/>
     </g>
     <g id="text_27">
      <!-- 600 -->
      <g style="fill: #262626" transform="translate(29.203 364.914222)scale(0.088 -0.088)">
       <use xlink:href="#DejaVuSans-36"/>
       <use xlink:href="#DejaVuSans-30" x="63.623047"/>
       <use xlink:href="#DejaVuSans-30" x="127.246094"/>
      </g>
     </g>
    </g>
    <g id="ytick_8">
     <g id="line2d_27">
      <path d="M 54.3 339.752727 
L 390.96 339.752727 
" clip-path="url(#p1b60d98a9d)" style="fill: none; stroke: #cccccc; stroke-width: 0.8; stroke-linecap: round"/>
     </g>
     <g id="text_28">
      <!-- 700 -->
      <g style="fill: #262626" transform="translate(29.203 343.09604)scale(0.088 -0.088)">
       <use xlink:href="#DejaVuSans-37"/>
       <use xlink:href="#DejaVuSans-30" x="63.623047"/>
       <use xlink:href="#DejaVuSans-30" x="127.246094"/>
      </g>
     </g>
    </g>
    <g id="ytick_9">
     <g id="line2d_28">
      <path d="M 54.3 317.934545 
L 390.96 317.934545 
" clip-path="url(#p1b60d98a9d)" style="fill: none; stroke: #cccccc; stroke-width: 0.8; stroke-linecap: round"/>
     </g>
     <g id="text_29">
      <!-- 800 -->
      <g style="fill: #262626" transform="translate(29.203 321.277858)scale(0.088 -0.088)">
       <use xlink:href="#DejaVuSans-38"/>
       <use xlink:href="#DejaVuSans-30" x="63.623047"/>
       <use xlink:href="#DejaVuSans-30" x="127.246094"/>
      </g>
     </g>
    </g>
    <g id="ytick_10">
     <g id="line2d_29">
      <path d="M 54.3 296.116364 
L 390.96 296.116364 
" clip-path="url(#p1b60d98a9d)" style="fill: none; stroke: #cccccc; stroke-width: 0.8; stroke-linecap: round"/>
     </g>
     <g id="text_30">
      <!-- 900 -->
      <g style="fill: #262626" transform="translate(29.203 299.459676)scale(0.088 -0.088)">
       <use xlink:href="#DejaVuSans-39"/>
       <use xlink:href="#DejaVuSans-30" x="63.623047"/>
       <use xlink:href="#DejaVuSans-30" x="127.246094"/>
      </g>
     </g>
    </g>
    <g id="ytick_11">
     <g id="line2d_30">
      <path d="M 54.3 274.298182 
L 390.96 274.298182 
" clip-path="url(#p1b60d98a9d)" style="fill: none; stroke: #cccccc; stroke-width: 0.8; stroke-linecap: round"/>
     </g>
     <g id="text_31">
      <!-- 1000 -->
      <g style="fill: #262626" transform="translate(23.604 277.641494)scale(0.088 -0.088)">
       <use xlink:href="#DejaVuSans-31"/>
       <use xlink:href="#DejaVuSans-30" x="63.623047"/>
       <use xlink:href="#DejaVuSans-30" x="127.246094"/>
       <use xlink:href="#DejaVuSans-30" x="190.869141"/>
      </g>
     </g>
    </g>
    <g id="ytick_12">
     <g id="line2d_31">
      <path d="M 54.3 252.48 
L 390.96 252.48 
" clip-path="url(#p1b60d98a9d)" style="fill: none; stroke: #cccccc; stroke-width: 0.8; stroke-linecap: round"/>
     </g>
     <g id="text_32">
      <!-- 1100 -->
      <g style="fill: #262626" transform="translate(23.604 255.823313)scale(0.088 -0.088)">
       <use xlink:href="#DejaVuSans-31"/>
       <use xlink:href="#DejaVuSans-31" x="63.623047"/>
       <use xlink:href="#DejaVuSans-30" x="127.246094"/>
       <use xlink:href="#DejaVuSans-30" x="190.869141"/>
      </g>
     </g>
    </g>
    <g id="ytick_13">
     <g id="line2d_32">
      <path d="M 54.3 230.661818 
L 390.96 230.661818 
" clip-path="url(#p1b60d98a9d)" style="fill: none; stroke: #cccccc; stroke-width: 0.8; stroke-linecap: round"/>
     </g>
     <g id="text_33">
      <!-- 1200 -->
      <g style="fill: #262626" transform="translate(23.604 234.005131)scale(0.088 -0.088)">
       <use xlink:href="#DejaVuSans-31"/>
       <use xlink:href="#DejaVuSans-32" x="63.623047"/>
       <use xlink:href="#DejaVuSans-30" x="127.246094"/>
       <use xlink:href="#DejaVuSans-30" x="190.869141"/>
      </g>
     </g>
    </g>
    <g id="ytick_14">
     <g id="line2d_33">
      <path d="M 54.3 208.843636 
L 390.96 208.843636 
" clip-path="url(#p1b60d98a9d)" style="fill: none; stroke: #cccccc; stroke-width: 0.8; stroke-linecap: round"/>
     </g>
     <g id="text_34">
      <!-- 1300 -->
      <g style="fill: #262626" transform="translate(23.604 212.186949)scale(0.088 -0.088)">
       <use xlink:href="#DejaVuSans-31"/>
       <use xlink:href="#DejaVuSans-33" x="63.623047"/>
       <use xlink:href="#DejaVuSans-30" x="127.246094"/>
       <use xlink:href="#DejaVuSans-30" x="190.869141"/>
      </g>
     </g>
    </g>
    <g id="ytick_15">
     <g id="line2d_34">
      <path d="M 54.3 187.025455 
L 390.96 187.025455 
" clip-path="url(#p1b60d98a9d)" style="fill: none; stroke: #cccccc; stroke-width: 0.8; stroke-linecap: round"/>
     </g>
     <g id="text_35">
      <!-- 1400 -->
      <g style="fill: #262626" transform="translate(23.604 190.368767)scale(0.088 -0.088)">
       <use xlink:href="#DejaVuSans-31"/>
       <use xlink:href="#DejaVuSans-34" x="63.623047"/>
       <use xlink:href="#DejaVuSans-30" x="127.246094"/>
       <use xlink:href="#DejaVuSans-30" x="190.869141"/>
      </g>
     </g>
    </g>
    <g id="ytick_16">
     <g id="line2d_35">
      <path d="M 54.3 165.207273 
L 390.96 165.207273 
" clip-path="url(#p1b60d98a9d)" style="fill: none; stroke: #cccccc; stroke-width: 0.8; stroke-linecap: round"/>
     </g>
     <g id="text_36">
      <!-- 1500 -->
      <g style="fill: #262626" transform="translate(23.604 168.550585)scale(0.088 -0.088)">
       <use xlink:href="#DejaVuSans-31"/>
       <use xlink:href="#DejaVuSans-35" x="63.623047"/>
       <use xlink:href="#DejaVuSans-30" x="127.246094"/>
       <use xlink:href="#DejaVuSans-30" x="190.869141"/>
      </g>
     </g>
    </g>
    <g id="ytick_17">
     <g id="line2d_36">
      <path d="M 54.3 143.389091 
L 390.96 143.389091 
" clip-path="url(#p1b60d98a9d)" style="fill: none; stroke: #cccccc; stroke-width: 0.8; stroke-linecap: round"/>
     </g>
     <g id="text_37">
      <!-- 1600 -->
      <g style="fill: #262626" transform="translate(23.604 146.732403)scale(0.088 -0.088)">
       <use xlink:href="#DejaVuSans-31"/>
       <use xlink:href="#DejaVuSans-36" x="63.623047"/>
       <use xlink:href="#DejaVuSans-30" x="127.246094"/>
       <use xlink:href="#DejaVuSans-30" x="190.869141"/>
      </g>
     </g>
    </g>
    <g id="ytick_18">
     <g id="line2d_37">
      <path d="M 54.3 121.570909 
L 390.96 121.570909 
" clip-path="url(#p1b60d98a9d)" style="fill: none; stroke: #cccccc; stroke-width: 0.8; stroke-linecap: round"/>
     </g>
     <g id="text_38">
      <!-- 1700 -->
      <g style="fill: #262626" transform="translate(23.604 124.914222)scale(0.088 -0.088)">
       <use xlink:href="#DejaVuSans-31"/>
       <use xlink:href="#DejaVuSans-37" x="63.623047"/>
       <use xlink:href="#DejaVuSans-30" x="127.246094"/>
       <use xlink:href="#DejaVuSans-30" x="190.869141"/>
      </g>
     </g>
    </g>
    <g id="ytick_19">
     <g id="line2d_38">
      <path d="M 54.3 99.752727 
L 390.96 99.752727 
" clip-path="url(#p1b60d98a9d)" style="fill: none; stroke: #cccccc; stroke-width: 0.8; stroke-linecap: round"/>
     </g>
     <g id="text_39">
      <!-- 1800 -->
      <g style="fill: #262626" transform="translate(23.604 103.09604)scale(0.088 -0.088)">
       <use xlink:href="#DejaVuSans-31"/>
       <use xlink:href="#DejaVuSans-38" x="63.623047"/>
       <use xlink:href="#DejaVuSans-30" x="127.246094"/>
       <use xlink:href="#DejaVuSans-30" x="190.869141"/>
      </g>
     </g>
    </g>
    <g id="text_40">
     <!-- Edge Coverages -->
     <g style="fill: #262626" transform="translate(17.6075 329.98575)rotate(-90)scale(0.096 -0.096)">
      <defs>
       <path id="DejaVuSans-45" d="M 628 4666 
L 3578 4666 
L 3578 4134 
L 1259 4134 
L 1259 2753 
L 3481 2753 
L 3481 2222 
L 1259 2222 
L 1259 531 
L 3634 531 
L 3634 0 
L 628 0 
L 628 4666 
z
" transform="scale(0.015625)"/>
       <path id="DejaVuSans-64" d="M 2906 2969 
L 2906 4863 
L 3481 4863 
L 3481 0 
L 2906 0 
L 2906 525 
Q 2725 213 2448 61 
Q 2172 -91 1784 -91 
Q 1150 -91 751 415 
Q 353 922 353 1747 
Q 353 2572 751 3078 
Q 1150 3584 1784 3584 
Q 2172 3584 2448 3432 
Q 2725 3281 2906 2969 
z
M 947 1747 
Q 947 1113 1208 752 
Q 1469 391 1925 391 
Q 2381 391 2643 752 
Q 2906 1113 2906 1747 
Q 2906 2381 2643 2742 
Q 2381 3103 1925 3103 
Q 1469 3103 1208 2742 
Q 947 2381 947 1747 
z
" transform="scale(0.015625)"/>
       <path id="DejaVuSans-67" d="M 2906 1791 
Q 2906 2416 2648 2759 
Q 2391 3103 1925 3103 
Q 1463 3103 1205 2759 
Q 947 2416 947 1791 
Q 947 1169 1205 825 
Q 1463 481 1925 481 
Q 2391 481 2648 825 
Q 2906 1169 2906 1791 
z
M 3481 434 
Q 3481 -459 3084 -895 
Q 2688 -1331 1869 -1331 
Q 1566 -1331 1297 -1286 
Q 1028 -1241 775 -1147 
L 775 -588 
Q 1028 -725 1275 -790 
Q 1522 -856 1778 -856 
Q 2344 -856 2625 -561 
Q 2906 -266 2906 331 
L 2906 616 
Q 2728 306 2450 153 
Q 2172 0 1784 0 
Q 1141 0 747 490 
Q 353 981 353 1791 
Q 353 2603 747 3093 
Q 1141 3584 1784 3584 
Q 2172 3584 2450 3431 
Q 2728 3278 2906 2969 
L 2906 3500 
L 3481 3500 
L 3481 434 
z
" transform="scale(0.015625)"/>
       <path id="DejaVuSans-43" d="M 4122 4306 
L 4122 3641 
Q 3803 3938 3442 4084 
Q 3081 4231 2675 4231 
Q 1875 4231 1450 3742 
Q 1025 3253 1025 2328 
Q 1025 1406 1450 917 
Q 1875 428 2675 428 
Q 3081 428 3442 575 
Q 3803 722 4122 1019 
L 4122 359 
Q 3791 134 3420 21 
Q 3050 -91 2638 -91 
Q 1578 -91 968 557 
Q 359 1206 359 2328 
Q 359 3453 968 4101 
Q 1578 4750 2638 4750 
Q 3056 4750 3426 4639 
Q 3797 4528 4122 4306 
z
" transform="scale(0.015625)"/>
       <path id="DejaVuSans-6f" d="M 1959 3097 
Q 1497 3097 1228 2736 
Q 959 2375 959 1747 
Q 959 1119 1226 758 
Q 1494 397 1959 397 
Q 2419 397 2687 759 
Q 2956 1122 2956 1747 
Q 2956 2369 2687 2733 
Q 2419 3097 1959 3097 
z
M 1959 3584 
Q 2709 3584 3137 3096 
Q 3566 2609 3566 1747 
Q 3566 888 3137 398 
Q 2709 -91 1959 -91 
Q 1206 -91 779 398 
Q 353 888 353 1747 
Q 353 2609 779 3096 
Q 1206 3584 1959 3584 
z
" transform="scale(0.015625)"/>
       <path id="DejaVuSans-76" d="M 191 3500 
L 800 3500 
L 1894 563 
L 2988 3500 
L 3597 3500 
L 2284 0 
L 1503 0 
L 191 3500 
z
" transform="scale(0.015625)"/>
       <path id="DejaVuSans-72" d="M 2631 2963 
Q 2534 3019 2420 3045 
Q 2306 3072 2169 3072 
Q 1681 3072 1420 2755 
Q 1159 2438 1159 1844 
L 1159 0 
L 581 0 
L 581 3500 
L 1159 3500 
L 1159 2956 
Q 1341 3275 1631 3429 
Q 1922 3584 2338 3584 
Q 2397 3584 2469 3576 
Q 2541 3569 2628 3553 
L 2631 2963 
z
" transform="scale(0.015625)"/>
       <path id="DejaVuSans-61" d="M 2194 1759 
Q 1497 1759 1228 1600 
Q 959 1441 959 1056 
Q 959 750 1161 570 
Q 1363 391 1709 391 
Q 2188 391 2477 730 
Q 2766 1069 2766 1631 
L 2766 1759 
L 2194 1759 
z
M 3341 1997 
L 3341 0 
L 2766 0 
L 2766 531 
Q 2569 213 2275 61 
Q 1981 -91 1556 -91 
Q 1019 -91 701 211 
Q 384 513 384 1019 
Q 384 1609 779 1909 
Q 1175 2209 1959 2209 
L 2766 2209 
L 2766 2266 
Q 2766 2663 2505 2880 
Q 2244 3097 1772 3097 
Q 1472 3097 1187 3025 
Q 903 2953 641 2809 
L 641 3341 
Q 956 3463 1253 3523 
Q 1550 3584 1831 3584 
Q 2591 3584 2966 3190 
Q 3341 2797 3341 1997 
z
" transform="scale(0.015625)"/>
      </defs>
      <use xlink:href="#DejaVuSans-45"/>
      <use xlink:href="#DejaVuSans-64" x="63.183594"/>
      <use xlink:href="#DejaVuSans-67" x="126.660156"/>
      <use xlink:href="#DejaVuSans-65" x="190.136719"/>
      <use xlink:href="#DejaVuSans-20" x="251.660156"/>
      <use xlink:href="#DejaVuSans-43" x="283.447266"/>
      <use xlink:href="#DejaVuSans-6f" x="353.271484"/>
      <use xlink:href="#DejaVuSans-76" x="414.453125"/>
      <use xlink:href="#DejaVuSans-65" x="473.632812"/>
      <use xlink:href="#DejaVuSans-72" x="535.15625"/>
      <use xlink:href="#DejaVuSans-61" x="576.269531"/>
      <use xlink:href="#DejaVuSans-67" x="637.548828"/>
      <use xlink:href="#DejaVuSans-65" x="701.025391"/>
      <use xlink:href="#DejaVuSans-73" x="762.548828"/>
     </g>
    </g>
   </g>
   <g id="PolyCollection_1">
    <defs>
     <path id="m8715db1bab" d="M 69.602727 -122.138182 
L 69.602727 -83.52 
L 69.602727 -122.138182 
L 69.602727 -122.138182 
z
" style="stroke: #db5f57; stroke-opacity: 0.2; stroke-width: 0.8"/>
    </defs>
    <g clip-path="url(#p1b60d98a9d)">
     <use xlink:href="#m8715db1bab" x="0" y="576" style="fill: #db5f57; fill-opacity: 0.2; stroke: #db5f57; stroke-opacity: 0.2; stroke-width: 0.8"/>
    </g>
   </g>
   <g id="PolyCollection_2">
    <defs>
     <path id="mf5d5ffb01f" d="M 69.602727 -107.301818 
L 69.602727 -83.52 
L 69.602727 -107.301818 
L 69.602727 -107.301818 
z
" style="stroke: #b9db57; stroke-opacity: 0.2; stroke-width: 0.8"/>
    </defs>
    <g clip-path="url(#p1b60d98a9d)">
     <use xlink:href="#mf5d5ffb01f" x="0" y="576" style="fill: #b9db57; fill-opacity: 0.2; stroke: #b9db57; stroke-opacity: 0.2; stroke-width: 0.8"/>
    </g>
   </g>
   <g id="PolyCollection_3">
    <defs>
     <path id="m41c7d17274" d="M 69.602727 -122.356364 
L 69.602727 -83.52 
L 69.602727 -122.356364 
L 69.602727 -122.356364 
z
" style="stroke: #57db94; stroke-opacity: 0.2; stroke-width: 0.8"/>
    </defs>
    <g clip-path="url(#p1b60d98a9d)">
     <use xlink:href="#m41c7d17274" x="0" y="576" style="fill: #57db94; fill-opacity: 0.2; stroke: #57db94; stroke-opacity: 0.2; stroke-width: 0.8"/>
    </g>
   </g>
   <g id="PolyCollection_4">
    <defs>
     <path id="m580c0a24ba" d="M 69.602727 -108.174545 
L 69.602727 -83.52 
L 69.602727 -108.174545 
L 69.602727 -108.174545 
z
" style="stroke: #5784db; stroke-opacity: 0.2; stroke-width: 0.8"/>
    </defs>
    <g clip-path="url(#p1b60d98a9d)">
     <use xlink:href="#m580c0a24ba" x="0" y="576" style="fill: #5784db; fill-opacity: 0.2; stroke: #5784db; stroke-opacity: 0.2; stroke-width: 0.8"/>
    </g>
   </g>
   <g id="PolyCollection_5">
    <defs>
     <path id="m62230625cd" d="M 69.602727 -130.865455 
L 69.602727 -83.52 
L 69.602727 -130.865455 
L 69.602727 -130.865455 
z
" style="stroke: #c957db; stroke-opacity: 0.2; stroke-width: 0.8"/>
    </defs>
    <g clip-path="url(#p1b60d98a9d)">
     <use xlink:href="#m62230625cd" x="0" y="576" style="fill: #c957db; fill-opacity: 0.2; stroke: #c957db; stroke-opacity: 0.2; stroke-width: 0.8"/>
    </g>
   </g>
   <g id="line2d_39">
    <path d="M 69.602727 473.170909 
L 70.666895 332.116364 
L 70.879728 328.407273 
L 71.305395 306.370909 
L 71.518229 303.752727 
L 71.731062 290.007273 
L 71.943896 288.043636 
L 72.156729 279.970909 
L 72.369563 278.88 
L 72.582396 273.207273 
L 72.795229 272.770909 
L 73.008063 269.28 
L 73.220896 268.843636 
L 73.43373 258.589091 
L 73.859397 251.170909 
L 74.07223 248.552727 
L 74.497897 239.389091 
L 74.710731 235.461818 
L 74.923564 235.025455 
L 75.136398 233.28 
L 75.349231 233.28 
L 75.774898 230.661818 
L 75.987732 228.261818 
L 76.200565 223.68 
L 76.626232 221.061818 
L 77.6904 211.898182 
L 77.903233 210.370909 
L 78.3289 209.716364 
L 78.754567 207.970909 
L 79.393067 204.916364 
L 80.244401 200.770909 
L 80.457235 200.770909 
L 80.670068 200.116364 
L 80.882902 198.589091 
L 81.734236 196.625455 
L 82.58557 191.389091 
L 82.798403 191.170909 
L 83.011237 190.734545 
L 83.436904 187.025455 
L 83.649737 187.025455 
L 83.86257 185.934545 
L 84.075404 185.934545 
L 84.288237 185.716364 
L 84.501071 183.970909 
L 84.926738 182.443636 
L 85.352405 181.134545 
L 85.778072 180.261818 
L 85.990905 178.952727 
L 86.203739 178.734545 
L 86.416572 178.08 
L 86.629406 177.861818 
L 86.842239 176.334545 
L 87.055073 175.68 
L 87.48074 173.28 
L 87.693573 173.28 
L 87.906407 172.189091 
L 88.332074 172.189091 
L 88.544907 170.88 
L 88.970574 169.789091 
L 89.609074 166.298182 
L 89.821908 166.08 
L 90.034741 166.08 
L 90.460408 164.334545 
L 91.098909 163.68 
L 91.311742 161.716364 
L 91.737409 161.061818 
L 91.950243 161.061818 
L 92.163076 159.534545 
L 92.37591 159.316364 
L 93.440077 156.261818 
L 93.652911 156.043636 
L 94.078578 156.043636 
L 94.291411 154.516364 
L 94.929911 153.861818 
L 95.142745 153.861818 
L 95.781245 152.116364 
L 95.994079 150.807273 
L 96.419746 150.370909 
L 96.632579 149.934545 
L 97.058246 149.934545 
L 97.483913 149.498182 
L 97.90958 148.843636 
L 98.335247 148.843636 
L 98.548081 148.189091 
L 98.760914 148.189091 
L 98.973748 147.970909 
L 99.186581 147.970909 
L 99.399415 147.752727 
L 99.825082 147.752727 
L 100.037915 147.534545 
L 100.250749 147.534545 
L 100.463582 147.316364 
L 102.16625 147.316364 
L 102.591917 146.443636 
L 103.017584 146.443636 
L 103.230417 146.225455 
L 103.443251 146.225455 
L 103.656084 145.789091 
L 103.868918 145.789091 
L 104.081751 145.570909 
L 104.294585 145.134545 
L 104.720252 145.134545 
L 105.145919 144.698182 
L 105.358752 144.261818 
L 105.784419 144.261818 
L 105.997252 144.043636 
L 107.274253 144.043636 
L 107.487087 143.825455 
L 109.402588 143.825455 
L 109.615422 143.607273 
L 110.041089 143.607273 
L 110.253922 143.389091 
L 110.679589 143.389091 
L 110.892423 143.170909 
L 111.31809 143.170909 
L 111.530923 142.952727 
L 116.638927 142.952727 
L 116.85176 142.516364 
L 117.915927 142.516364 
L 118.128761 141.861818 
L 118.554428 141.861818 
L 118.767261 141.643636 
L 119.405762 141.643636 
L 119.618595 141.425455 
L 120.257096 141.425455 
L 120.469929 141.207273 
L 121.534097 141.207273 
L 121.74693 140.989091 
L 123.023931 140.989091 
L 123.236764 140.770909 
L 123.449598 140.770909 
L 123.662431 140.552727 
L 125.790766 140.552727 
L 126.0036 140.334545 
L 126.429267 140.334545 
L 126.6421 140.116364 
L 126.854934 140.116364 
L 127.067767 139.898182 
L 127.280601 139.898182 
L 127.493434 139.68 
L 128.983268 139.68 
L 129.196102 139.461818 
L 130.685936 139.461818 
L 130.89877 139.243636 
L 131.53727 139.243636 
L 131.962937 138.807273 
L 133.027105 138.807273 
L 133.239938 138.589091 
L 133.878438 138.589091 
L 134.304105 138.152727 
L 135.368273 138.152727 
L 135.79394 137.716364 
L 136.645274 137.716364 
L 136.858107 137.498182 
L 138.986442 137.498182 
L 139.199276 137.28 
L 156.651621 137.28 
L 156.864454 136.843636 
L 157.928622 136.843636 
L 158.141455 136.625455 
L 159.63129 136.625455 
L 160.056957 136.189091 
L 162.823792 136.189091 
L 163.036625 135.970909 
L 164.100793 135.970909 
L 164.313626 135.752727 
L 164.52646 135.752727 
L 164.739293 135.534545 
L 171.337131 135.534545 
L 171.549965 135.316364 
L 172.188465 135.316364 
L 172.401299 135.098182 
L 176.445135 135.098182 
L 176.657968 134.88 
L 188.150976 134.88 
L 188.36381 134.225455 
L 188.576643 134.007273 
L 189.427977 134.007273 
L 189.64081 133.789091 
L 194.535981 133.789091 
L 194.748814 133.570909 
L 214.329494 133.570909 
L 214.542328 133.352727 
L 223.055667 133.352727 
L 223.2685 133.134545 
L 230.717672 133.134545 
L 230.930506 132.916364 
L 238.805345 132.916364 
L 239.018178 132.48 
L 240.295179 132.48 
L 240.508012 132.261818 
L 240.933679 132.261818 
L 241.146513 132.043636 
L 241.57218 132.043636 
L 241.997847 131.607273 
L 242.423514 131.607273 
L 242.636347 131.389091 
L 246.680183 131.389091 
L 246.893017 131.170909 
L 247.10585 131.170909 
L 247.318684 130.952727 
L 247.957184 130.952727 
L 248.595685 130.298182 
L 248.808518 130.298182 
L 249.021352 130.08 
L 252.00102 130.08 
L 252.213854 129.861818 
L 260.727193 129.861818 
L 260.940027 129.643636 
L 266.260864 129.643636 
L 266.473697 129.425455 
L 268.814865 129.425455 
L 269.027699 129.207273 
L 272.645868 129.207273 
L 272.858701 128.989091 
L 274.348536 128.989091 
L 274.774203 128.552727 
L 276.264037 128.552727 
L 276.476871 128.334545 
L 278.179539 128.334545 
L 278.392372 128.116364 
L 279.030872 128.116364 
L 279.243706 127.898182 
L 280.307873 127.898182 
L 280.520707 127.68 
L 280.946374 127.68 
L 281.159207 127.461818 
L 281.372041 126.807273 
L 289.672546 126.807273 
L 289.88538 126.589091 
L 294.567717 126.589091 
L 294.78055 126.370909 
L 294.993383 126.370909 
L 295.206217 126.152727 
L 295.631884 126.152727 
L 295.844717 125.716364 
L 297.760219 125.716364 
L 297.973052 125.28 
L 298.611553 125.28 
L 298.824386 125.061818 
L 304.996557 125.061818 
L 305.209391 124.843636 
L 314.786897 124.843636 
L 314.999731 124.625455 
L 316.276732 124.625455 
L 316.489565 124.407273 
L 319.469234 124.407273 
L 319.682067 124.189091 
L 320.746235 124.189091 
L 320.959068 123.970909 
L 322.874569 123.970909 
L 323.087403 123.752727 
L 325.854238 123.752727 
L 326.067072 123.534545 
L 331.813576 123.534545 
L 332.026409 123.098182 
L 332.239243 123.098182 
L 332.452076 122.661818 
L 337.772913 122.661818 
L 337.985747 122.443636 
L 338.411414 122.443636 
L 338.624247 122.225455 
L 363.525764 122.225455 
L 363.738598 122.007273 
L 365.015599 122.007273 
L 365.441266 121.570909 
L 375.657273 121.570909 
L 375.657273 121.570909 
" clip-path="url(#p1b60d98a9d)" style="fill: none; stroke: #db5f57; stroke-width: 1.2; stroke-linecap: round"/>
   </g>
   <g id="line2d_40">
    <path d="M 69.602727 480.589091 
L 70.028394 422.225455 
L 70.241228 414.152727 
L 70.454061 412.843636 
L 70.666895 412.407273 
L 70.879728 411.098182 
L 71.092562 410.88 
L 71.305395 410.007273 
L 71.518229 378.152727 
L 71.943896 290.007273 
L 72.156729 288.916364 
L 72.369563 288.916364 
L 72.795229 288.48 
L 73.008063 286.952727 
L 73.220896 264.916364 
L 73.43373 264.916364 
L 73.646563 264.261818 
L 74.07223 262.298182 
L 74.285064 261.643636 
L 74.497897 237.861818 
L 74.923564 235.898182 
L 75.136398 235.898182 
L 75.349231 234.589091 
L 75.987732 233.498182 
L 76.200565 221.498182 
L 76.413399 221.28 
L 76.626232 220.843636 
L 76.839066 220.843636 
L 77.051899 220.189091 
L 77.264733 219.970909 
L 77.477566 218.88 
L 77.6904 208.625455 
L 78.116067 207.534545 
L 78.3289 207.316364 
L 78.541733 207.316364 
L 78.9674 206.88 
L 79.393067 205.570909 
L 79.605901 205.352727 
L 79.818734 205.352727 
L 80.031568 196.843636 
L 80.244401 196.843636 
L 80.457235 196.407273 
L 80.670068 196.407273 
L 80.882902 195.970909 
L 81.095735 192.261818 
L 81.308569 191.389091 
L 81.521402 191.170909 
L 82.372736 191.170909 
L 82.58557 186.589091 
L 83.22407 186.589091 
L 83.436904 182.443636 
L 84.075404 182.443636 
L 84.288237 180.916364 
L 84.501071 180.261818 
L 84.713904 178.516364 
L 84.926738 178.298182 
L 85.139571 177.207273 
L 85.565238 177.207273 
L 85.778072 175.243636 
L 85.990905 175.025455 
L 86.203739 175.025455 
L 86.416572 174.807273 
L 86.842239 174.152727 
L 87.055073 174.152727 
L 87.267906 170.88 
L 88.332074 170.88 
L 88.544907 166.952727 
L 88.757741 166.08 
L 89.609074 166.08 
L 89.821908 162.370909 
L 90.247575 162.370909 
L 90.460408 161.498182 
L 90.886075 161.498182 
L 91.098909 160.189091 
L 91.524576 160.189091 
L 91.737409 159.970909 
L 91.950243 159.970909 
L 92.163076 159.534545 
L 92.37591 159.534545 
L 92.588743 154.734545 
L 92.801577 153.643636 
L 93.440077 153.643636 
L 93.652911 153.425455 
L 93.865744 151.68 
L 94.291411 151.68 
L 94.504245 150.152727 
L 94.929911 150.152727 
L 95.142745 149.498182 
L 95.568412 149.498182 
L 95.994079 149.061818 
L 96.419746 149.061818 
L 96.632579 145.570909 
L 96.845413 145.352727 
L 97.058246 145.352727 
L 97.696747 144.261818 
L 97.90958 144.043636 
L 98.335247 144.043636 
L 98.548081 143.825455 
L 98.760914 143.170909 
L 98.973748 143.170909 
L 99.186581 142.298182 
L 99.612248 142.298182 
L 99.825082 142.08 
L 100.037915 142.08 
L 100.250749 141.643636 
L 101.102082 141.643636 
L 101.314916 141.425455 
L 102.80475 141.425455 
L 103.017584 140.770909 
L 103.230417 140.770909 
L 103.656084 140.334545 
L 103.868918 140.334545 
L 104.294585 139.68 
L 105.571586 139.68 
L 105.784419 139.025455 
L 105.997252 139.025455 
L 106.422919 138.589091 
L 107.487087 138.589091 
L 107.69992 138.370909 
L 109.828255 138.370909 
L 110.041089 138.152727 
L 110.679589 138.152727 
L 110.892423 137.934545 
L 111.105256 137.934545 
L 111.31809 137.716364 
L 111.530923 137.716364 
L 111.743756 137.498182 
L 113.872091 137.498182 
L 114.084925 137.061818 
L 114.297758 137.061818 
L 114.510592 136.843636 
L 115.361926 136.843636 
L 115.574759 136.625455 
L 116.21326 136.625455 
L 116.426093 136.407273 
L 117.49026 136.407273 
L 117.703094 135.970909 
L 117.915927 135.970909 
L 118.128761 135.752727 
L 118.341594 135.316364 
L 118.554428 135.316364 
L 118.767261 134.88 
L 118.980095 134.88 
L 119.192928 134.661818 
L 119.831429 134.661818 
L 120.044262 134.443636 
L 121.10843 134.443636 
L 121.321263 134.007273 
L 122.598264 134.007273 
L 122.811097 133.789091 
L 123.023931 133.789091 
L 123.236764 133.570909 
L 123.449598 133.570909 
L 123.662431 133.134545 
L 126.429267 133.134545 
L 126.6421 132.916364 
L 127.493434 132.916364 
L 127.706268 132.48 
L 128.983268 132.48 
L 129.196102 132.261818 
L 129.408935 132.261818 
L 129.621769 132.043636 
L 130.89877 132.043636 
L 131.111603 131.825455 
L 133.878438 131.825455 
L 134.091272 131.607273 
L 135.581106 131.607273 
L 135.79394 130.952727 
L 152.820618 130.952727 
L 153.033452 130.734545 
L 154.097619 130.734545 
L 154.310453 130.516364 
L 154.523286 130.516364 
L 154.73612 130.298182 
L 157.715788 130.298182 
L 157.928622 130.08 
L 160.908291 130.08 
L 161.121124 129.861818 
L 161.759624 129.861818 
L 161.972458 129.643636 
L 162.185291 129.643636 
L 162.398125 129.207273 
L 163.036625 129.207273 
L 163.462292 128.770909 
L 163.675126 128.770909 
L 163.887959 128.552727 
L 164.100793 128.552727 
L 164.313626 128.334545 
L 168.357462 128.334545 
L 168.570296 128.116364 
L 169.634463 128.116364 
L 169.847297 127.898182 
L 170.911464 127.898182 
L 171.124298 127.68 
L 171.337131 127.68 
L 171.549965 127.461818 
L 172.188465 127.461818 
L 172.401299 127.243636 
L 177.296469 127.243636 
L 177.509302 127.025455 
L 187.938143 127.025455 
L 188.150976 126.807273 
L 188.576643 126.807273 
L 188.789477 126.152727 
L 194.110314 126.152727 
L 194.323147 125.934545 
L 194.748814 125.934545 
L 194.961647 125.716364 
L 196.877149 125.716364 
L 197.089982 125.498182 
L 197.515649 125.498182 
L 197.728483 125.28 
L 207.093156 125.28 
L 207.305989 125.061818 
L 207.731656 125.061818 
L 207.94449 124.625455 
L 214.542328 124.625455 
L 214.755161 124.407273 
L 214.967995 124.407273 
L 215.180828 124.189091 
L 219.650331 124.189091 
L 219.863165 123.970909 
L 223.055667 123.970909 
L 223.2685 123.752727 
L 230.504839 123.752727 
L 230.717672 123.534545 
L 238.805345 123.534545 
L 239.231012 122.88 
L 240.933679 122.88 
L 241.146513 122.661818 
L 241.57218 122.661818 
L 241.785013 122.443636 
L 242.423514 122.443636 
L 242.636347 122.007273 
L 246.680183 122.007273 
L 246.893017 121.789091 
L 247.318684 121.789091 
L 247.531517 121.570909 
L 248.170018 121.570909 
L 248.382851 121.352727 
L 250.298353 121.352727 
L 250.511186 121.134545 
L 252.00102 121.134545 
L 252.213854 120.48 
L 257.109024 120.48 
L 257.321857 120.261818 
L 259.450192 120.261818 
L 259.663026 120.043636 
L 260.727193 120.043636 
L 260.940027 119.825455 
L 267.325031 119.825455 
L 267.537864 119.607273 
L 270.3047 119.607273 
L 270.517533 119.389091 
L 274.987036 119.389091 
L 275.19987 119.170909 
L 277.115371 119.170909 
L 277.328205 118.952727 
L 280.307873 118.952727 
L 280.520707 118.516364 
L 282.223375 118.516364 
L 282.436208 118.08 
L 287.118545 118.08 
L 287.331378 117.861818 
L 289.034046 117.861818 
L 289.24688 117.643636 
L 295.844717 117.643636 
L 296.057551 116.770909 
L 304.996557 116.770909 
L 305.209391 116.334545 
L 311.168728 116.334545 
L 311.381562 116.116364 
L 312.658562 116.116364 
L 312.871396 115.898182 
L 320.107734 115.898182 
L 320.320568 115.68 
L 321.171902 115.68 
L 321.384735 115.243636 
L 323.300236 115.243636 
L 323.51307 115.025455 
L 330.110908 115.025455 
L 330.323741 114.807273 
L 332.239243 114.807273 
L 332.452076 113.934545 
L 341.391082 113.934545 
L 341.603916 113.716364 
L 349.904422 113.716364 
L 350.117255 113.498182 
L 358.417761 113.498182 
L 358.630594 113.28 
L 359.056261 113.28 
L 359.269095 113.061818 
L 366.079766 113.061818 
L 366.2926 112.843636 
L 367.995267 112.843636 
L 368.208101 112.625455 
L 372.039104 112.625455 
L 372.251937 112.407273 
L 375.657273 112.407273 
L 375.657273 112.407273 
" clip-path="url(#p1b60d98a9d)" style="fill: none; stroke: #b9db57; stroke-width: 1.2; stroke-linecap: round"/>
   </g>
   <g id="line2d_41">
    <path d="M 69.602727 473.061818 
L 70.666895 349.789091 
L 70.879728 327.534545 
L 71.731062 305.934545 
L 72.156729 290.225455 
L 72.369563 289.352727 
L 72.582396 283.68 
L 73.008063 279.098182 
L 73.43373 266.443636 
L 74.710731 245.934545 
L 75.774898 241.352727 
L 76.200565 237.861818 
L 76.413399 237.643636 
L 77.264733 229.789091 
L 77.477566 228.043636 
L 77.6904 227.825455 
L 77.903233 225.425455 
L 78.116067 224.770909 
L 78.3289 224.770909 
L 79.180234 220.843636 
L 79.393067 220.189091 
L 79.818734 217.570909 
L 80.457235 215.607273 
L 80.670068 215.389091 
L 81.095735 213.861818 
L 81.734236 212.552727 
L 81.947069 210.370909 
L 82.159903 209.716364 
L 82.372736 209.498182 
L 82.58557 208.407273 
L 82.798403 208.407273 
L 83.22407 207.316364 
L 83.436904 206.225455 
L 83.649737 206.007273 
L 84.288237 206.007273 
L 84.501071 204.043636 
L 84.713904 204.043636 
L 85.565238 200.989091 
L 85.778072 200.770909 
L 85.990905 199.68 
L 86.203739 199.243636 
L 86.629406 199.243636 
L 86.842239 197.498182 
L 87.055073 197.061818 
L 87.267906 196.189091 
L 87.48074 196.189091 
L 87.693573 195.970909 
L 87.906407 193.789091 
L 88.11924 193.789091 
L 88.332074 193.570909 
L 88.544907 192.916364 
L 88.970574 192.48 
L 89.183408 192.48 
L 89.609074 190.516364 
L 89.821908 190.516364 
L 90.034741 190.298182 
L 90.247575 189.425455 
L 90.460408 189.207273 
L 90.673242 188.770909 
L 90.886075 188.770909 
L 91.311742 185.716364 
L 91.737409 185.061818 
L 91.950243 185.061818 
L 92.163076 184.407273 
L 92.588743 183.970909 
L 92.801577 182.007273 
L 93.440077 179.825455 
L 93.652911 179.825455 
L 93.865744 179.607273 
L 94.078578 178.298182 
L 94.504245 178.298182 
L 94.929911 177.861818 
L 95.142745 177.861818 
L 95.568412 176.770909 
L 95.994079 174.152727 
L 96.419746 174.152727 
L 96.632579 173.934545 
L 98.335247 173.934545 
L 98.548081 172.625455 
L 98.973748 172.189091 
L 99.399415 171.534545 
L 101.527749 171.534545 
L 101.740583 171.098182 
L 104.720252 171.098182 
L 104.933085 170.88 
L 107.912754 170.88 
L 108.125587 168.48 
L 110.466756 168.48 
L 110.679589 168.261818 
L 111.31809 168.261818 
L 111.530923 167.825455 
L 129.834602 167.825455 
L 130.047436 167.607273 
L 138.773609 167.607273 
L 138.986442 167.389091 
L 139.624942 167.389091 
L 139.837776 163.68 
L 192.407646 163.68 
L 192.620479 161.716364 
L 193.684647 161.716364 
L 193.89748 161.498182 
L 196.238648 161.498182 
L 196.664315 161.061818 
L 214.116661 161.061818 
L 214.542328 160.625455 
L 241.57218 160.625455 
L 241.785013 159.098182 
L 258.173191 159.098182 
L 258.386025 158.225455 
L 259.237359 158.225455 
L 259.450192 158.007273 
L 260.727193 158.007273 
L 260.940027 157.789091 
L 288.395546 157.789091 
L 288.608379 156.043636 
L 288.821213 155.825455 
L 289.459713 155.825455 
L 289.88538 155.389091 
L 294.567717 155.389091 
L 294.78055 155.170909 
L 294.993383 155.170909 
L 295.206217 154.952727 
L 295.631884 154.952727 
L 295.844717 154.734545 
L 296.696051 154.734545 
L 297.121718 154.298182 
L 297.547385 154.298182 
L 297.760219 154.08 
L 298.398719 154.08 
L 298.611553 153.861818 
L 298.824386 153.861818 
L 299.03722 153.643636 
L 299.67572 153.643636 
L 299.888554 153.425455 
L 304.57089 153.425455 
L 305.209391 152.770909 
L 306.273558 152.770909 
L 306.486391 152.552727 
L 309.253227 152.552727 
L 309.46606 152.334545 
L 319.043567 152.334545 
L 319.2564 152.116364 
L 319.469234 152.116364 
L 319.682067 151.898182 
L 320.746235 151.898182 
L 320.959068 151.461818 
L 322.874569 151.461818 
L 323.087403 151.243636 
L 325.854238 151.243636 
L 326.067072 151.025455 
L 331.600742 151.025455 
L 331.813576 150.807273 
L 332.026409 150.370909 
L 332.239243 150.370909 
L 332.452076 150.152727 
L 335.644578 150.152727 
L 335.857412 149.934545 
L 336.708746 149.934545 
L 336.921579 149.716364 
L 338.411414 149.716364 
L 338.624247 149.498182 
L 347.137586 149.498182 
L 347.35042 149.28 
L 352.458423 149.28 
L 352.671257 149.061818 
L 375.657273 149.061818 
L 375.657273 149.061818 
" clip-path="url(#p1b60d98a9d)" style="fill: none; stroke: #57db94; stroke-width: 1.2; stroke-linecap: round"/>
   </g>
   <g id="line2d_42">
    <path d="M 69.602727 480.152727 
L 70.028394 423.752727 
L 70.454061 421.134545 
L 70.666895 418.734545 
L 71.305395 416.334545 
L 71.731062 382.08 
L 72.369563 374.443636 
L 72.795229 370.08 
L 73.008063 351.752727 
L 73.220896 266.007273 
L 73.646563 265.134545 
L 73.859397 265.134545 
L 74.07223 264.916364 
L 74.497897 264.916364 
L 74.710731 239.607273 
L 75.349231 238.952727 
L 75.562065 234.152727 
L 75.987732 233.716364 
L 76.200565 233.716364 
L 76.413399 230.225455 
L 76.626232 223.461818 
L 77.051899 223.461818 
L 77.264733 222.807273 
L 77.477566 221.716364 
L 77.903233 221.061818 
L 78.116067 221.061818 
L 78.3289 212.116364 
L 78.541733 212.116364 
L 78.754567 211.68 
L 78.9674 211.68 
L 79.180234 211.461818 
L 79.393067 206.443636 
L 80.457235 206.443636 
L 80.670068 202.08 
L 80.882902 201.861818 
L 81.308569 199.898182 
L 81.947069 199.898182 
L 82.159903 199.461818 
L 82.372736 194.661818 
L 82.58557 192.48 
L 83.436904 191.607273 
L 83.649737 188.770909 
L 84.075404 188.116364 
L 84.288237 187.898182 
L 84.501071 187.898182 
L 84.713904 187.68 
L 84.926738 184.843636 
L 85.778072 184.843636 
L 85.990905 181.352727 
L 86.203739 181.134545 
L 86.842239 181.134545 
L 87.055073 178.298182 
L 87.48074 177.643636 
L 87.693573 177.643636 
L 87.906407 175.025455 
L 88.11924 174.589091 
L 88.544907 174.589091 
L 88.757741 173.061818 
L 88.970574 172.843636 
L 89.183408 171.534545 
L 89.396241 171.534545 
L 89.609074 169.570909 
L 90.034741 169.570909 
L 90.247575 168.916364 
L 90.460408 168.698182 
L 91.524576 168.698182 
L 91.737409 164.116364 
L 91.950243 164.116364 
L 92.163076 163.243636 
L 92.37591 163.025455 
L 93.01441 163.025455 
L 93.227244 159.970909 
L 93.440077 159.534545 
L 94.078578 159.534545 
L 94.291411 159.316364 
L 94.504245 159.316364 
L 94.717078 157.134545 
L 94.929911 156.916364 
L 95.355578 156.916364 
L 95.568412 155.170909 
L 95.781245 154.952727 
L 95.994079 152.770909 
L 96.632579 152.770909 
L 96.845413 152.552727 
L 97.696747 152.552727 
L 97.90958 151.898182 
L 98.122414 151.898182 
L 98.335247 151.68 
L 98.548081 151.243636 
L 98.760914 150.152727 
L 99.825082 150.152727 
L 100.037915 149.498182 
L 101.314916 149.498182 
L 101.527749 149.28 
L 102.16625 149.28 
L 102.379083 148.625455 
L 104.081751 148.625455 
L 104.294585 147.098182 
L 105.145919 147.098182 
L 105.358752 146.88 
L 105.571586 146.88 
L 105.784419 146.661818 
L 105.997252 146.661818 
L 106.422919 145.570909 
L 110.466756 145.570909 
L 110.679589 145.134545 
L 110.892423 145.134545 
L 111.105256 144.916364 
L 111.31809 144.48 
L 111.530923 144.48 
L 111.743756 144.261818 
L 116.638927 144.261818 
L 116.85176 143.825455 
L 117.915927 143.825455 
L 118.128761 143.389091 
L 118.341594 143.389091 
L 118.554428 143.170909 
L 119.618595 143.170909 
L 119.831429 142.734545 
L 120.469929 142.734545 
L 120.895596 142.298182 
L 121.74693 142.298182 
L 121.959764 142.08 
L 123.449598 142.08 
L 123.662431 141.425455 
L 126.0036 141.425455 
L 126.216433 141.207273 
L 126.854934 141.207273 
L 127.280601 140.770909 
L 128.344768 140.770909 
L 128.557601 140.552727 
L 128.770435 140.116364 
L 128.983268 140.116364 
L 129.408935 139.68 
L 130.473103 139.68 
L 130.685936 139.461818 
L 131.53727 139.461818 
L 131.750104 139.243636 
L 135.581106 139.243636 
L 135.79394 138.589091 
L 144.520113 138.589091 
L 144.732946 138.370909 
L 149.415283 138.370909 
L 149.628116 137.716364 
L 154.097619 137.716364 
L 154.523286 137.28 
L 157.715788 137.28 
L 157.928622 137.061818 
L 158.567122 137.061818 
L 158.779956 136.843636 
L 159.63129 136.843636 
L 159.844123 136.625455 
L 163.249459 136.625455 
L 163.462292 136.407273 
L 163.887959 136.407273 
L 164.100793 135.970909 
L 168.357462 135.970909 
L 168.570296 135.752727 
L 169.208796 135.752727 
L 169.42163 135.534545 
L 169.634463 135.534545 
L 169.847297 135.316364 
L 170.485797 135.316364 
L 170.698631 135.098182 
L 171.124298 135.098182 
L 171.337131 134.88 
L 172.614132 134.88 
L 172.826965 134.661818 
L 176.657968 134.661818 
L 176.870802 134.443636 
L 186.873975 134.443636 
L 187.086809 134.225455 
L 187.938143 134.225455 
L 188.150976 134.007273 
L 188.36381 134.007273 
L 188.576643 133.352727 
L 193.89748 133.352727 
L 194.110314 133.134545 
L 196.238648 133.134545 
L 196.664315 132.698182 
L 197.089982 132.698182 
L 197.302816 132.48 
L 199.431151 132.48 
L 199.643984 132.261818 
L 206.454655 132.261818 
L 206.667489 132.043636 
L 207.093156 132.043636 
L 207.305989 131.825455 
L 214.755161 131.825455 
L 214.967995 131.389091 
L 219.437498 131.389091 
L 219.650331 131.170909 
L 223.055667 131.170909 
L 223.2685 130.952727 
L 230.930506 130.952727 
L 231.143339 130.734545 
L 240.082345 130.734545 
L 240.295179 130.298182 
L 242.423514 130.298182 
L 242.636347 129.425455 
L 242.849181 129.425455 
L 243.062014 128.989091 
L 249.447019 128.989091 
L 249.659852 128.334545 
L 250.511186 128.334545 
L 250.724019 128.116364 
L 251.149686 128.116364 
L 251.36252 127.898182 
L 252.00102 127.898182 
L 252.213854 127.243636 
L 253.703688 127.243636 
L 253.916522 127.025455 
L 256.470523 127.025455 
L 256.683357 126.807273 
L 260.088693 126.807273 
L 260.301526 126.589091 
L 261.15286 126.589091 
L 261.365694 126.370909 
L 267.112197 126.370909 
L 267.325031 126.152727 
L 268.814865 126.152727 
L 269.027699 125.934545 
L 275.412703 125.934545 
L 275.625537 125.716364 
L 276.264037 125.716364 
L 276.476871 125.498182 
L 278.179539 125.498182 
L 278.392372 125.28 
L 281.372041 125.28 
L 281.584874 124.407273 
L 285.62871 124.407273 
L 285.841544 124.189091 
L 286.054377 124.189091 
L 286.267211 123.970909 
L 287.331378 123.970909 
L 287.544212 123.752727 
L 294.567717 123.752727 
L 294.78055 123.534545 
L 294.993383 123.534545 
L 295.206217 123.316364 
L 295.631884 123.316364 
L 295.844717 122.88 
L 305.209391 122.88 
L 305.422224 122.443636 
L 306.060724 122.443636 
L 306.273558 122.225455 
L 309.891727 122.225455 
L 310.104561 122.007273 
L 313.084229 122.007273 
L 313.297063 121.789091 
L 324.790071 121.789091 
L 325.002904 120.916364 
L 329.898074 120.916364 
L 330.110908 120.698182 
L 331.600742 120.698182 
L 331.813576 120.48 
L 332.239243 120.48 
L 332.452076 120.043636 
L 338.19858 120.043636 
L 338.411414 119.825455 
L 338.624247 119.825455 
L 338.837081 119.607273 
L 363.738598 119.607273 
L 363.951431 119.389091 
L 364.377098 119.389091 
L 364.589932 119.170909 
L 375.657273 119.170909 
L 375.657273 119.170909 
" clip-path="url(#p1b60d98a9d)" style="fill: none; stroke: #5784db; stroke-width: 1.2; stroke-linecap: round"/>
   </g>
   <g id="line2d_43">
    <path d="M 69.602727 468.807273 
L 69.815561 442.734545 
L 70.454061 330.152727 
L 70.666895 310.734545 
L 71.305395 289.789091 
L 71.518229 279.098182 
L 72.582396 257.28 
L 73.008063 251.607273 
L 73.43373 239.825455 
L 73.859397 231.752727 
L 74.923564 215.170909 
L 75.774898 210.370909 
L 75.987732 208.189091 
L 76.200565 203.825455 
L 76.413399 202.734545 
L 77.6904 190.298182 
L 77.903233 188.989091 
L 78.3289 188.334545 
L 78.754567 185.934545 
L 80.457235 177.643636 
L 80.670068 176.770909 
L 80.882902 175.243636 
L 81.095735 174.589091 
L 81.308569 173.498182 
L 81.521402 173.28 
L 81.734236 172.625455 
L 82.159903 170.007273 
L 82.372736 169.134545 
L 82.58557 167.389091 
L 82.798403 167.170909 
L 83.011237 166.734545 
L 83.436904 163.025455 
L 83.649737 163.025455 
L 83.86257 161.934545 
L 84.075404 161.716364 
L 84.288237 161.28 
L 84.501071 159.098182 
L 84.713904 159.098182 
L 85.565238 155.825455 
L 85.778072 155.607273 
L 85.990905 154.08 
L 86.629406 152.552727 
L 86.842239 150.807273 
L 87.055073 150.370909 
L 87.48074 147.752727 
L 87.693573 147.534545 
L 87.906407 146.661818 
L 88.11924 146.661818 
L 88.332074 146.443636 
L 88.544907 145.352727 
L 88.757741 144.916364 
L 89.183408 142.952727 
L 89.396241 141.207273 
L 89.609074 140.552727 
L 89.821908 140.334545 
L 90.034741 140.334545 
L 90.460408 138.370909 
L 90.886075 137.934545 
L 91.311742 134.661818 
L 91.737409 134.225455 
L 91.950243 134.225455 
L 92.163076 132.698182 
L 92.37591 132.48 
L 93.01441 130.298182 
L 93.440077 128.989091 
L 93.652911 128.552727 
L 93.865744 128.552727 
L 94.291411 127.025455 
L 94.504245 127.025455 
L 95.142745 126.370909 
L 95.355578 125.934545 
L 95.994079 122.443636 
L 96.419746 122.443636 
L 96.632579 122.007273 
L 97.058246 122.007273 
L 97.483913 121.570909 
L 97.90958 120.916364 
L 98.335247 120.916364 
L 98.548081 120.261818 
L 99.399415 119.389091 
L 99.825082 119.389091 
L 100.037915 119.170909 
L 100.250749 119.170909 
L 100.463582 118.952727 
L 101.314916 118.952727 
L 101.527749 118.734545 
L 102.16625 118.734545 
L 102.591917 118.08 
L 103.017584 118.08 
L 103.656084 117.425455 
L 103.868918 117.425455 
L 104.294585 116.770909 
L 104.720252 116.770909 
L 105.145919 116.334545 
L 105.358752 115.898182 
L 105.571586 115.898182 
L 105.784419 115.68 
L 107.274253 115.68 
L 107.487087 115.461818 
L 109.828255 115.461818 
L 110.041089 115.243636 
L 110.679589 115.243636 
L 110.892423 115.025455 
L 111.105256 115.025455 
L 111.743756 114.370909 
L 116.638927 114.370909 
L 116.85176 113.934545 
L 117.915927 113.934545 
L 118.128761 113.28 
L 118.554428 113.28 
L 118.767261 113.061818 
L 118.980095 113.061818 
L 119.192928 112.843636 
L 119.405762 112.843636 
L 119.618595 112.625455 
L 120.257096 112.625455 
L 120.469929 112.407273 
L 121.534097 112.407273 
L 121.74693 112.189091 
L 123.023931 112.189091 
L 123.236764 111.970909 
L 123.449598 111.970909 
L 123.662431 111.534545 
L 125.790766 111.534545 
L 126.0036 111.316364 
L 126.854934 111.316364 
L 127.067767 111.098182 
L 127.280601 111.098182 
L 127.493434 110.88 
L 128.557601 110.88 
L 128.770435 110.661818 
L 129.196102 110.661818 
L 129.408935 110.443636 
L 130.473103 110.443636 
L 130.685936 110.225455 
L 131.53727 110.225455 
L 131.962937 109.789091 
L 133.878438 109.789091 
L 134.304105 109.352727 
L 135.368273 109.352727 
L 135.79394 108.916364 
L 136.645274 108.916364 
L 136.858107 108.698182 
L 138.986442 108.698182 
L 139.199276 108.48 
L 154.097619 108.48 
L 154.523286 108.043636 
L 157.715788 108.043636 
L 157.928622 107.825455 
L 159.63129 107.825455 
L 160.056957 107.389091 
L 162.823792 107.389091 
L 163.036625 107.170909 
L 163.249459 107.170909 
L 163.462292 106.952727 
L 163.887959 106.952727 
L 164.100793 106.734545 
L 168.357462 106.734545 
L 168.570296 106.516364 
L 169.634463 106.516364 
L 169.847297 106.298182 
L 170.485797 106.298182 
L 170.698631 106.08 
L 171.124298 106.08 
L 171.337131 105.861818 
L 172.188465 105.861818 
L 172.401299 105.643636 
L 176.445135 105.643636 
L 176.657968 105.425455 
L 187.938143 105.425455 
L 188.150976 105.207273 
L 188.36381 104.552727 
L 189.427977 104.552727 
L 189.64081 104.334545 
L 193.684647 104.334545 
L 193.89748 104.116364 
L 194.535981 104.116364 
L 194.748814 103.898182 
L 196.451482 103.898182 
L 196.664315 103.68 
L 197.089982 103.68 
L 197.302816 103.461818 
L 207.093156 103.461818 
L 207.305989 103.243636 
L 207.731656 103.243636 
L 207.94449 103.025455 
L 214.116661 103.025455 
L 214.542328 102.589091 
L 219.437498 102.589091 
L 219.650331 102.370909 
L 223.055667 102.370909 
L 223.2685 102.152727 
L 230.504839 102.152727 
L 230.717672 101.934545 
L 238.805345 101.934545 
L 239.231012 101.28 
L 240.295179 101.28 
L 240.508012 101.061818 
L 240.933679 101.061818 
L 241.146513 100.843636 
L 241.57218 100.843636 
L 241.997847 100.189091 
L 242.423514 100.189091 
L 242.636347 99.970909 
L 246.680183 99.970909 
L 246.893017 99.752727 
L 247.10585 99.752727 
L 247.318684 99.534545 
L 247.957184 99.534545 
L 248.595685 98.88 
L 248.808518 98.88 
L 249.021352 98.661818 
L 250.298353 98.661818 
L 250.511186 98.443636 
L 252.00102 98.443636 
L 252.213854 97.789091 
L 259.237359 97.789091 
L 259.450192 97.570909 
L 260.727193 97.570909 
L 260.940027 97.352727 
L 267.112197 97.352727 
L 267.325031 97.134545 
L 268.814865 97.134545 
L 269.027699 96.916364 
L 274.348536 96.916364 
L 274.561369 96.698182 
L 276.264037 96.698182 
L 276.476871 96.48 
L 278.179539 96.48 
L 278.392372 96.261818 
L 279.030872 96.261818 
L 279.243706 96.043636 
L 280.307873 96.043636 
L 280.520707 95.825455 
L 280.946374 95.825455 
L 281.159207 95.607273 
L 281.372041 94.952727 
L 286.054377 94.952727 
L 286.267211 94.734545 
L 287.331378 94.734545 
L 287.544212 94.516364 
L 289.672546 94.516364 
L 289.88538 94.298182 
L 294.567717 94.298182 
L 294.78055 94.08 
L 294.993383 94.08 
L 295.206217 93.861818 
L 295.631884 93.861818 
L 295.844717 93.425455 
L 298.398719 93.425455 
L 298.611553 93.207273 
L 304.783724 93.207273 
L 305.209391 92.770909 
L 312.658562 92.770909 
L 312.871396 92.552727 
L 316.276732 92.552727 
L 316.489565 92.334545 
L 319.469234 92.334545 
L 319.682067 92.116364 
L 320.746235 92.116364 
L 320.959068 91.68 
L 322.874569 91.68 
L 323.087403 91.461818 
L 325.854238 91.461818 
L 326.067072 91.243636 
L 329.898074 91.243636 
L 330.110908 91.025455 
L 331.600742 91.025455 
L 331.813576 90.807273 
L 332.026409 90.370909 
L 332.239243 90.370909 
L 332.452076 90.152727 
L 336.708746 90.152727 
L 336.921579 89.934545 
L 338.411414 89.934545 
L 338.624247 89.716364 
L 363.525764 89.716364 
L 363.738598 89.498182 
L 365.015599 89.498182 
L 365.228432 89.28 
L 375.657273 89.28 
L 375.657273 89.28 
" clip-path="url(#p1b60d98a9d)" style="fill: none; stroke: #c957db; stroke-width: 1.2; stroke-linecap: round"/>
   </g>
   <g id="line2d_44"/>
   <g id="line2d_45"/>
   <g id="line2d_46"/>
   <g id="line2d_47"/>
   <g id="line2d_48"/>
   <g id="patch_3">
    <path d="M 54.3 512.64 
L 54.3 69.12 
" style="fill: none; stroke: #cccccc; stroke-linejoin: miter; stroke-linecap: square"/>
   </g>
   <g id="patch_4">
    <path d="M 54.3 512.64 
L 390.96 512.64 
" style="fill: none; stroke: #cccccc; stroke-linejoin: miter; stroke-linecap: square"/>
   </g>
   <g id="text_41">
    <!-- Edge Coverage History -->
    <g style="fill: #262626" transform="translate(115.738512 63.12)scale(0.165888 -0.165888)">
     <defs>
      <path id="DejaVuSans-Bold-45" d="M 588 4666 
L 3834 4666 
L 3834 3756 
L 1791 3756 
L 1791 2888 
L 3713 2888 
L 3713 1978 
L 1791 1978 
L 1791 909 
L 3903 909 
L 3903 0 
L 588 0 
L 588 4666 
z
" transform="scale(0.015625)"/>
      <path id="DejaVuSans-Bold-64" d="M 2919 2988 
L 2919 4863 
L 4044 4863 
L 4044 0 
L 2919 0 
L 2919 506 
Q 2688 197 2409 53 
Q 2131 -91 1766 -91 
Q 1119 -91 703 423 
Q 288 938 288 1747 
Q 288 2556 703 3070 
Q 1119 3584 1766 3584 
Q 2128 3584 2408 3439 
Q 2688 3294 2919 2988 
z
M 2181 722 
Q 2541 722 2730 984 
Q 2919 1247 2919 1747 
Q 2919 2247 2730 2509 
Q 2541 2772 2181 2772 
Q 1825 2772 1636 2509 
Q 1447 2247 1447 1747 
Q 1447 1247 1636 984 
Q 1825 722 2181 722 
z
" transform="scale(0.015625)"/>
      <path id="DejaVuSans-Bold-67" d="M 2919 594 
Q 2688 288 2409 144 
Q 2131 0 1766 0 
Q 1125 0 706 504 
Q 288 1009 288 1791 
Q 288 2575 706 3076 
Q 1125 3578 1766 3578 
Q 2131 3578 2409 3434 
Q 2688 3291 2919 2981 
L 2919 3500 
L 4044 3500 
L 4044 353 
Q 4044 -491 3511 -936 
Q 2978 -1381 1966 -1381 
Q 1638 -1381 1331 -1331 
Q 1025 -1281 716 -1178 
L 716 -306 
Q 1009 -475 1290 -558 
Q 1572 -641 1856 -641 
Q 2406 -641 2662 -400 
Q 2919 -159 2919 353 
L 2919 594 
z
M 2181 2772 
Q 1834 2772 1640 2515 
Q 1447 2259 1447 1791 
Q 1447 1309 1634 1061 
Q 1822 813 2181 813 
Q 2531 813 2725 1069 
Q 2919 1325 2919 1791 
Q 2919 2259 2725 2515 
Q 2531 2772 2181 2772 
z
" transform="scale(0.015625)"/>
      <path id="DejaVuSans-Bold-65" d="M 4031 1759 
L 4031 1441 
L 1416 1441 
Q 1456 1047 1700 850 
Q 1944 653 2381 653 
Q 2734 653 3104 758 
Q 3475 863 3866 1075 
L 3866 213 
Q 3469 63 3072 -14 
Q 2675 -91 2278 -91 
Q 1328 -91 801 392 
Q 275 875 275 1747 
Q 275 2603 792 3093 
Q 1309 3584 2216 3584 
Q 3041 3584 3536 3087 
Q 4031 2591 4031 1759 
z
M 2881 2131 
Q 2881 2450 2695 2645 
Q 2509 2841 2209 2841 
Q 1884 2841 1681 2658 
Q 1478 2475 1428 2131 
L 2881 2131 
z
" transform="scale(0.015625)"/>
      <path id="DejaVuSans-Bold-20" transform="scale(0.015625)"/>
      <path id="DejaVuSans-Bold-43" d="M 4288 256 
Q 3956 84 3597 -3 
Q 3238 -91 2847 -91 
Q 1681 -91 1000 561 
Q 319 1213 319 2328 
Q 319 3447 1000 4098 
Q 1681 4750 2847 4750 
Q 3238 4750 3597 4662 
Q 3956 4575 4288 4403 
L 4288 3438 
Q 3953 3666 3628 3772 
Q 3303 3878 2944 3878 
Q 2300 3878 1931 3465 
Q 1563 3053 1563 2328 
Q 1563 1606 1931 1193 
Q 2300 781 2944 781 
Q 3303 781 3628 887 
Q 3953 994 4288 1222 
L 4288 256 
z
" transform="scale(0.015625)"/>
      <path id="DejaVuSans-Bold-6f" d="M 2203 2784 
Q 1831 2784 1636 2517 
Q 1441 2250 1441 1747 
Q 1441 1244 1636 976 
Q 1831 709 2203 709 
Q 2569 709 2762 976 
Q 2956 1244 2956 1747 
Q 2956 2250 2762 2517 
Q 2569 2784 2203 2784 
z
M 2203 3584 
Q 3106 3584 3614 3096 
Q 4122 2609 4122 1747 
Q 4122 884 3614 396 
Q 3106 -91 2203 -91 
Q 1297 -91 786 396 
Q 275 884 275 1747 
Q 275 2609 786 3096 
Q 1297 3584 2203 3584 
z
" transform="scale(0.015625)"/>
      <path id="DejaVuSans-Bold-76" d="M 97 3500 
L 1216 3500 
L 2088 1081 
L 2956 3500 
L 4078 3500 
L 2700 0 
L 1472 0 
L 97 3500 
z
" transform="scale(0.015625)"/>
      <path id="DejaVuSans-Bold-72" d="M 3138 2547 
Q 2991 2616 2845 2648 
Q 2700 2681 2553 2681 
Q 2122 2681 1889 2404 
Q 1656 2128 1656 1613 
L 1656 0 
L 538 0 
L 538 3500 
L 1656 3500 
L 1656 2925 
Q 1872 3269 2151 3426 
Q 2431 3584 2822 3584 
Q 2878 3584 2943 3579 
Q 3009 3575 3134 3559 
L 3138 2547 
z
" transform="scale(0.015625)"/>
      <path id="DejaVuSans-Bold-61" d="M 2106 1575 
Q 1756 1575 1579 1456 
Q 1403 1338 1403 1106 
Q 1403 894 1545 773 
Q 1688 653 1941 653 
Q 2256 653 2472 879 
Q 2688 1106 2688 1447 
L 2688 1575 
L 2106 1575 
z
M 3816 1997 
L 3816 0 
L 2688 0 
L 2688 519 
Q 2463 200 2181 54 
Q 1900 -91 1497 -91 
Q 953 -91 614 226 
Q 275 544 275 1050 
Q 275 1666 698 1953 
Q 1122 2241 2028 2241 
L 2688 2241 
L 2688 2328 
Q 2688 2594 2478 2717 
Q 2269 2841 1825 2841 
Q 1466 2841 1156 2769 
Q 847 2697 581 2553 
L 581 3406 
Q 941 3494 1303 3539 
Q 1666 3584 2028 3584 
Q 2975 3584 3395 3211 
Q 3816 2838 3816 1997 
z
" transform="scale(0.015625)"/>
      <path id="DejaVuSans-Bold-48" d="M 588 4666 
L 1791 4666 
L 1791 2888 
L 3566 2888 
L 3566 4666 
L 4769 4666 
L 4769 0 
L 3566 0 
L 3566 1978 
L 1791 1978 
L 1791 0 
L 588 0 
L 588 4666 
z
" transform="scale(0.015625)"/>
      <path id="DejaVuSans-Bold-69" d="M 538 3500 
L 1656 3500 
L 1656 0 
L 538 0 
L 538 3500 
z
M 538 4863 
L 1656 4863 
L 1656 3950 
L 538 3950 
L 538 4863 
z
" transform="scale(0.015625)"/>
      <path id="DejaVuSans-Bold-73" d="M 3272 3391 
L 3272 2541 
Q 2913 2691 2578 2766 
Q 2244 2841 1947 2841 
Q 1628 2841 1473 2761 
Q 1319 2681 1319 2516 
Q 1319 2381 1436 2309 
Q 1553 2238 1856 2203 
L 2053 2175 
Q 2913 2066 3209 1816 
Q 3506 1566 3506 1031 
Q 3506 472 3093 190 
Q 2681 -91 1863 -91 
Q 1516 -91 1145 -36 
Q 775 19 384 128 
L 384 978 
Q 719 816 1070 734 
Q 1422 653 1784 653 
Q 2113 653 2278 743 
Q 2444 834 2444 1013 
Q 2444 1163 2330 1236 
Q 2216 1309 1875 1350 
L 1678 1375 
Q 931 1469 631 1722 
Q 331 1975 331 2491 
Q 331 3047 712 3315 
Q 1094 3584 1881 3584 
Q 2191 3584 2531 3537 
Q 2872 3491 3272 3391 
z
" transform="scale(0.015625)"/>
      <path id="DejaVuSans-Bold-74" d="M 1759 4494 
L 1759 3500 
L 2913 3500 
L 2913 2700 
L 1759 2700 
L 1759 1216 
Q 1759 972 1856 886 
Q 1953 800 2241 800 
L 2816 800 
L 2816 0 
L 1856 0 
Q 1194 0 917 276 
Q 641 553 641 1216 
L 641 2700 
L 84 2700 
L 84 3500 
L 641 3500 
L 641 4494 
L 1759 4494 
z
" transform="scale(0.015625)"/>
      <path id="DejaVuSans-Bold-79" d="M 78 3500 
L 1197 3500 
L 2138 1125 
L 2938 3500 
L 4056 3500 
L 2584 -331 
Q 2363 -916 2067 -1148 
Q 1772 -1381 1288 -1381 
L 641 -1381 
L 641 -647 
L 991 -647 
Q 1275 -647 1404 -556 
Q 1534 -466 1606 -231 
L 1638 -134 
L 78 3500 
z
" transform="scale(0.015625)"/>
     </defs>
     <use xlink:href="#DejaVuSans-Bold-45"/>
     <use xlink:href="#DejaVuSans-Bold-64" x="68.310547"/>
     <use xlink:href="#DejaVuSans-Bold-67" x="139.892578"/>
     <use xlink:href="#DejaVuSans-Bold-65" x="211.474609"/>
     <use xlink:href="#DejaVuSans-Bold-20" x="279.296875"/>
     <use xlink:href="#DejaVuSans-Bold-43" x="314.111328"/>
     <use xlink:href="#DejaVuSans-Bold-6f" x="387.5"/>
     <use xlink:href="#DejaVuSans-Bold-76" x="456.201172"/>
     <use xlink:href="#DejaVuSans-Bold-65" x="521.386719"/>
     <use xlink:href="#DejaVuSans-Bold-72" x="589.208984"/>
     <use xlink:href="#DejaVuSans-Bold-61" x="638.525391"/>
     <use xlink:href="#DejaVuSans-Bold-67" x="706.005859"/>
     <use xlink:href="#DejaVuSans-Bold-65" x="777.587891"/>
     <use xlink:href="#DejaVuSans-Bold-20" x="845.410156"/>
     <use xlink:href="#DejaVuSans-Bold-48" x="880.224609"/>
     <use xlink:href="#DejaVuSans-Bold-69" x="963.916016"/>
     <use xlink:href="#DejaVuSans-Bold-73" x="998.193359"/>
     <use xlink:href="#DejaVuSans-Bold-74" x="1057.714844"/>
     <use xlink:href="#DejaVuSans-Bold-6f" x="1105.517578"/>
     <use xlink:href="#DejaVuSans-Bold-72" x="1174.21875"/>
     <use xlink:href="#DejaVuSans-Bold-79" x="1223.535156"/>
    </g>
   </g>
   <g id="legend_1">
    <g id="patch_5">
     <path d="M 267.672 508.24 
L 384.8 508.24 
Q 386.56 508.24 386.56 506.48 
L 386.56 428.8405 
Q 386.56 427.0805 384.8 427.0805 
L 267.672 427.0805 
Q 265.912 427.0805 265.912 428.8405 
L 265.912 506.48 
Q 265.912 508.24 267.672 508.24 
z
" style="fill: #ffffff; opacity: 0.8; stroke: #cccccc; stroke-width: 0.8; stroke-linejoin: miter"/>
    </g>
    <g id="text_42">
     <!-- fuzzer -->
     <g style="fill: #262626" transform="translate(311.539 437.895)scale(0.096 -0.096)">
      <defs>
       <path id="DejaVuSans-66" d="M 2375 4863 
L 2375 4384 
L 1825 4384 
Q 1516 4384 1395 4259 
Q 1275 4134 1275 3809 
L 1275 3500 
L 2222 3500 
L 2222 3053 
L 1275 3053 
L 1275 0 
L 697 0 
L 697 3053 
L 147 3053 
L 147 3500 
L 697 3500 
L 697 3744 
Q 697 4328 969 4595 
Q 1241 4863 1831 4863 
L 2375 4863 
z
" transform="scale(0.015625)"/>
       <path id="DejaVuSans-7a" d="M 353 3500 
L 3084 3500 
L 3084 2975 
L 922 459 
L 3084 459 
L 3084 0 
L 275 0 
L 275 525 
L 2438 3041 
L 353 3041 
L 353 3500 
z
" transform="scale(0.015625)"/>
      </defs>
      <use xlink:href="#DejaVuSans-66"/>
      <use xlink:href="#DejaVuSans-75" x="35.205078"/>
      <use xlink:href="#DejaVuSans-7a" x="98.583984"/>
      <use xlink:href="#DejaVuSans-7a" x="151.074219"/>
      <use xlink:href="#DejaVuSans-65" x="203.564453"/>
      <use xlink:href="#DejaVuSans-72" x="265.087891"/>
     </g>
    </g>
    <g id="line2d_49">
     <path d="M 269.432 447.898125 
L 278.232 447.898125 
L 287.032 447.898125 
" style="fill: none; stroke: #db5f57; stroke-width: 1.2; stroke-linecap: round"/>
    </g>
    <g id="text_43">
     <!-- afl-0-exid20 -->
     <g style="fill: #262626" transform="translate(294.072 450.978125)scale(0.088 -0.088)">
      <defs>
       <path id="DejaVuSans-6c" d="M 603 4863 
L 1178 4863 
L 1178 0 
L 603 0 
L 603 4863 
z
" transform="scale(0.015625)"/>
       <path id="DejaVuSans-2d" d="M 313 2009 
L 1997 2009 
L 1997 1497 
L 313 1497 
L 313 2009 
z
" transform="scale(0.015625)"/>
       <path id="DejaVuSans-78" d="M 3513 3500 
L 2247 1797 
L 3578 0 
L 2900 0 
L 1881 1375 
L 863 0 
L 184 0 
L 1544 1831 
L 300 3500 
L 978 3500 
L 1906 2253 
L 2834 3500 
L 3513 3500 
z
" transform="scale(0.015625)"/>
      </defs>
      <use xlink:href="#DejaVuSans-61"/>
      <use xlink:href="#DejaVuSans-66" x="61.279297"/>
      <use xlink:href="#DejaVuSans-6c" x="96.484375"/>
      <use xlink:href="#DejaVuSans-2d" x="124.267578"/>
      <use xlink:href="#DejaVuSans-30" x="160.351562"/>
      <use xlink:href="#DejaVuSans-2d" x="223.974609"/>
      <use xlink:href="#DejaVuSans-65" x="260.058594"/>
      <use xlink:href="#DejaVuSans-78" x="319.832031"/>
      <use xlink:href="#DejaVuSans-69" x="379.011719"/>
      <use xlink:href="#DejaVuSans-64" x="406.794922"/>
      <use xlink:href="#DejaVuSans-32" x="470.271484"/>
      <use xlink:href="#DejaVuSans-30" x="533.894531"/>
     </g>
    </g>
    <g id="line2d_50">
     <path d="M 269.432 460.814875 
L 278.232 460.814875 
L 287.032 460.814875 
" style="fill: none; stroke: #b9db57; stroke-width: 1.2; stroke-linecap: round"/>
    </g>
    <g id="text_44">
     <!-- aflplusplus-0-exid20 -->
     <g style="fill: #262626" transform="translate(294.072 463.894875)scale(0.088 -0.088)">
      <defs>
       <path id="DejaVuSans-70" d="M 1159 525 
L 1159 -1331 
L 581 -1331 
L 581 3500 
L 1159 3500 
L 1159 2969 
Q 1341 3281 1617 3432 
Q 1894 3584 2278 3584 
Q 2916 3584 3314 3078 
Q 3713 2572 3713 1747 
Q 3713 922 3314 415 
Q 2916 -91 2278 -91 
Q 1894 -91 1617 61 
Q 1341 213 1159 525 
z
M 3116 1747 
Q 3116 2381 2855 2742 
Q 2594 3103 2138 3103 
Q 1681 3103 1420 2742 
Q 1159 2381 1159 1747 
Q 1159 1113 1420 752 
Q 1681 391 2138 391 
Q 2594 391 2855 752 
Q 3116 1113 3116 1747 
z
" transform="scale(0.015625)"/>
      </defs>
      <use xlink:href="#DejaVuSans-61"/>
      <use xlink:href="#DejaVuSans-66" x="61.279297"/>
      <use xlink:href="#DejaVuSans-6c" x="96.484375"/>
      <use xlink:href="#DejaVuSans-70" x="124.267578"/>
      <use xlink:href="#DejaVuSans-6c" x="187.744141"/>
      <use xlink:href="#DejaVuSans-75" x="215.527344"/>
      <use xlink:href="#DejaVuSans-73" x="278.90625"/>
      <use xlink:href="#DejaVuSans-70" x="331.005859"/>
      <use xlink:href="#DejaVuSans-6c" x="394.482422"/>
      <use xlink:href="#DejaVuSans-75" x="422.265625"/>
      <use xlink:href="#DejaVuSans-73" x="485.644531"/>
      <use xlink:href="#DejaVuSans-2d" x="537.744141"/>
      <use xlink:href="#DejaVuSans-30" x="573.828125"/>
      <use xlink:href="#DejaVuSans-2d" x="637.451172"/>
      <use xlink:href="#DejaVuSans-65" x="673.535156"/>
      <use xlink:href="#DejaVuSans-78" x="733.308594"/>
      <use xlink:href="#DejaVuSans-69" x="792.488281"/>
      <use xlink:href="#DejaVuSans-64" x="820.271484"/>
      <use xlink:href="#DejaVuSans-32" x="883.748047"/>
      <use xlink:href="#DejaVuSans-30" x="947.371094"/>
     </g>
    </g>
    <g id="line2d_51">
     <path d="M 269.432 473.731625 
L 278.232 473.731625 
L 287.032 473.731625 
" style="fill: none; stroke: #57db94; stroke-width: 1.2; stroke-linecap: round"/>
    </g>
    <g id="text_45">
     <!-- fairfuzz-0-exid20 -->
     <g style="fill: #262626" transform="translate(294.072 476.811625)scale(0.088 -0.088)">
      <use xlink:href="#DejaVuSans-66"/>
      <use xlink:href="#DejaVuSans-61" x="35.205078"/>
      <use xlink:href="#DejaVuSans-69" x="96.484375"/>
      <use xlink:href="#DejaVuSans-72" x="124.267578"/>
      <use xlink:href="#DejaVuSans-66" x="165.380859"/>
      <use xlink:href="#DejaVuSans-75" x="200.585938"/>
      <use xlink:href="#DejaVuSans-7a" x="263.964844"/>
      <use xlink:href="#DejaVuSans-7a" x="316.455078"/>
      <use xlink:href="#DejaVuSans-2d" x="368.945312"/>
      <use xlink:href="#DejaVuSans-30" x="405.029297"/>
      <use xlink:href="#DejaVuSans-2d" x="468.652344"/>
      <use xlink:href="#DejaVuSans-65" x="504.736328"/>
      <use xlink:href="#DejaVuSans-78" x="564.509766"/>
      <use xlink:href="#DejaVuSans-69" x="623.689453"/>
      <use xlink:href="#DejaVuSans-64" x="651.472656"/>
      <use xlink:href="#DejaVuSans-32" x="714.949219"/>
      <use xlink:href="#DejaVuSans-30" x="778.572266"/>
     </g>
    </g>
    <g id="line2d_52">
     <path d="M 269.432 486.648375 
L 278.232 486.648375 
L 287.032 486.648375 
" style="fill: none; stroke: #5784db; stroke-width: 1.2; stroke-linecap: round"/>
    </g>
    <g id="text_46">
     <!-- aflfast-0-exid20 -->
     <g style="fill: #262626" transform="translate(294.072 489.728375)scale(0.088 -0.088)">
      <use xlink:href="#DejaVuSans-61"/>
      <use xlink:href="#DejaVuSans-66" x="61.279297"/>
      <use xlink:href="#DejaVuSans-6c" x="96.484375"/>
      <use xlink:href="#DejaVuSans-66" x="124.267578"/>
      <use xlink:href="#DejaVuSans-61" x="159.472656"/>
      <use xlink:href="#DejaVuSans-73" x="220.751953"/>
      <use xlink:href="#DejaVuSans-74" x="272.851562"/>
      <use xlink:href="#DejaVuSans-2d" x="312.060547"/>
      <use xlink:href="#DejaVuSans-30" x="348.144531"/>
      <use xlink:href="#DejaVuSans-2d" x="411.767578"/>
      <use xlink:href="#DejaVuSans-65" x="447.851562"/>
      <use xlink:href="#DejaVuSans-78" x="507.625"/>
      <use xlink:href="#DejaVuSans-69" x="566.804688"/>
      <use xlink:href="#DejaVuSans-64" x="594.587891"/>
      <use xlink:href="#DejaVuSans-32" x="658.064453"/>
      <use xlink:href="#DejaVuSans-30" x="721.6875"/>
     </g>
    </g>
    <g id="line2d_53">
     <path d="M 269.432 499.565125 
L 278.232 499.565125 
L 287.032 499.565125 
" style="fill: none; stroke: #c957db; stroke-width: 1.2; stroke-linecap: round"/>
    </g>
    <g id="text_47">
     <!-- fuzzer_global -->
     <g style="fill: #262626" transform="translate(294.072 502.645125)scale(0.088 -0.088)">
      <defs>
       <path id="DejaVuSans-5f" d="M 3263 -1063 
L 3263 -1509 
L -63 -1509 
L -63 -1063 
L 3263 -1063 
z
" transform="scale(0.015625)"/>
       <path id="DejaVuSans-62" d="M 3116 1747 
Q 3116 2381 2855 2742 
Q 2594 3103 2138 3103 
Q 1681 3103 1420 2742 
Q 1159 2381 1159 1747 
Q 1159 1113 1420 752 
Q 1681 391 2138 391 
Q 2594 391 2855 752 
Q 3116 1113 3116 1747 
z
M 1159 2969 
Q 1341 3281 1617 3432 
Q 1894 3584 2278 3584 
Q 2916 3584 3314 3078 
Q 3713 2572 3713 1747 
Q 3713 922 3314 415 
Q 2916 -91 2278 -91 
Q 1894 -91 1617 61 
Q 1341 213 1159 525 
L 1159 0 
L 581 0 
L 581 4863 
L 1159 4863 
L 1159 2969 
z
" transform="scale(0.015625)"/>
      </defs>
      <use xlink:href="#DejaVuSans-66"/>
      <use xlink:href="#DejaVuSans-75" x="35.205078"/>
      <use xlink:href="#DejaVuSans-7a" x="98.583984"/>
      <use xlink:href="#DejaVuSans-7a" x="151.074219"/>
      <use xlink:href="#DejaVuSans-65" x="203.564453"/>
      <use xlink:href="#DejaVuSans-72" x="265.087891"/>
      <use xlink:href="#DejaVuSans-5f" x="306.201172"/>
      <use xlink:href="#DejaVuSans-67" x="356.201172"/>
      <use xlink:href="#DejaVuSans-6c" x="419.677734"/>
      <use xlink:href="#DejaVuSans-6f" x="447.460938"/>
      <use xlink:href="#DejaVuSans-62" x="508.642578"/>
      <use xlink:href="#DejaVuSans-61" x="572.119141"/>
      <use xlink:href="#DejaVuSans-6c" x="633.398438"/>
     </g>
    </g>
   </g>
  </g>
 </g>
 <defs>
  <clipPath id="p1b60d98a9d">
   <rect x="54.3" y="69.12" width="336.66" height="443.52"/>
  </clipPath>
 </defs>
</svg>
