<?xml version="1.0" encoding="utf-8" standalone="no"?>
<!DOCTYPE svg PUBLIC "-//W3C//DTD SVG 1.1//EN"
  "http://www.w3.org/Graphics/SVG/1.1/DTD/svg11.dtd">
<svg xmlns:xlink="http://www.w3.org/1999/xlink" width="434.7pt" height="576pt" viewBox="0 0 434.7 576" xmlns="http://www.w3.org/2000/svg" version="1.1">
 <metadata>
  <rdf:RDF xmlns:dc="http://purl.org/dc/elements/1.1/" xmlns:cc="http://creativecommons.org/ns#" xmlns:rdf="http://www.w3.org/1999/02/22-rdf-syntax-ns#">
   <cc:Work>
    <dc:type rdf:resource="http://purl.org/dc/dcmitype/StillImage"/>
    <dc:date>2022-09-15T11:26:28.985024</dc:date>
    <dc:format>image/svg+xml</dc:format>
    <dc:creator>
     <cc:Agent>
      <dc:title>Matplotlib v3.5.3, https://matplotlib.org/</dc:title>
     </cc:Agent>
    </dc:creator>
   </cc:Work>
  </rdf:RDF>
 </metadata>
 <defs>
  <style type="text/css">*{stroke-linejoin: round; stroke-linecap: butt}</style>
 </defs>
 <g id="figure_1">
  <g id="patch_1">
   <path d="M 0 576 
L 434.7 576 
L 434.7 0 
L 0 0 
z
" style="fill: #ffffff"/>
  </g>
  <g id="axes_1">
   <g id="patch_2">
    <path d="M 54.3375 512.64 
L 391.23 512.64 
L 391.23 69.12 
L 54.3375 69.12 
z
" style="fill: #ffffff"/>
   </g>
   <g id="matplotlib.axis_1">
    <g id="xtick_1">
     <g id="line2d_1">
      <path d="M 69.650795 512.64 
L 69.650795 69.12 
" clip-path="url(#pea1dfe547b)" style="fill: none; stroke: #cccccc; stroke-width: 0.8; stroke-linecap: round"/>
     </g>
     <g id="text_1">
      <!-- 0 -->
      <g style="fill: #262626" transform="translate(69.388282 529.627249)rotate(-45)scale(0.088 -0.088)">
       <defs>
        <path id="DejaVuSans-30" d="M 2034 4250 
Q 1547 4250 1301 3770 
Q 1056 3291 1056 2328 
Q 1056 1369 1301 889 
Q 1547 409 2034 409 
Q 2525 409 2770 889 
Q 3016 1369 3016 2328 
Q 3016 3291 2770 3770 
Q 2525 4250 2034 4250 
z
M 2034 4750 
Q 2819 4750 3233 4129 
Q 3647 3509 3647 2328 
Q 3647 1150 3233 529 
Q 2819 -91 2034 -91 
Q 1250 -91 836 529 
Q 422 1150 422 2328 
Q 422 3509 836 4129 
Q 1250 4750 2034 4750 
z
" transform="scale(0.015625)"/>
       </defs>
       <use xlink:href="#DejaVuSans-30"/>
      </g>
     </g>
    </g>
    <g id="xtick_2">
     <g id="line2d_2">
      <path d="M 86.677392 512.64 
L 86.677392 69.12 
" clip-path="url(#pea1dfe547b)" style="fill: none; stroke: #cccccc; stroke-width: 0.8; stroke-linecap: round"/>
     </g>
     <g id="text_2">
      <!-- 80 -->
      <g style="fill: #262626" transform="translate(84.435333 533.58634)rotate(-45)scale(0.088 -0.088)">
       <defs>
        <path id="DejaVuSans-38" d="M 2034 2216 
Q 1584 2216 1326 1975 
Q 1069 1734 1069 1313 
Q 1069 891 1326 650 
Q 1584 409 2034 409 
Q 2484 409 2743 651 
Q 3003 894 3003 1313 
Q 3003 1734 2745 1975 
Q 2488 2216 2034 2216 
z
M 1403 2484 
Q 997 2584 770 2862 
Q 544 3141 544 3541 
Q 544 4100 942 4425 
Q 1341 4750 2034 4750 
Q 2731 4750 3128 4425 
Q 3525 4100 3525 3541 
Q 3525 3141 3298 2862 
Q 3072 2584 2669 2484 
Q 3125 2378 3379 2068 
Q 3634 1759 3634 1313 
Q 3634 634 3220 271 
Q 2806 -91 2034 -91 
Q 1263 -91 848 271 
Q 434 634 434 1313 
Q 434 1759 690 2068 
Q 947 2378 1403 2484 
z
M 1172 3481 
Q 1172 3119 1398 2916 
Q 1625 2713 2034 2713 
Q 2441 2713 2670 2916 
Q 2900 3119 2900 3481 
Q 2900 3844 2670 4047 
Q 2441 4250 2034 4250 
Q 1625 4250 1398 4047 
Q 1172 3844 1172 3481 
z
" transform="scale(0.015625)"/>
       </defs>
       <use xlink:href="#DejaVuSans-38"/>
       <use xlink:href="#DejaVuSans-30" x="63.623047"/>
      </g>
     </g>
    </g>
    <g id="xtick_3">
     <g id="line2d_3">
      <path d="M 103.703989 512.64 
L 103.703989 69.12 
" clip-path="url(#pea1dfe547b)" style="fill: none; stroke: #cccccc; stroke-width: 0.8; stroke-linecap: round"/>
     </g>
     <g id="text_3">
      <!-- 160 -->
      <g style="fill: #262626" transform="translate(99.482385 537.54543)rotate(-45)scale(0.088 -0.088)">
       <defs>
        <path id="DejaVuSans-31" d="M 794 531 
L 1825 531 
L 1825 4091 
L 703 3866 
L 703 4441 
L 1819 4666 
L 2450 4666 
L 2450 531 
L 3481 531 
L 3481 0 
L 794 0 
L 794 531 
z
" transform="scale(0.015625)"/>
        <path id="DejaVuSans-36" d="M 2113 2584 
Q 1688 2584 1439 2293 
Q 1191 2003 1191 1497 
Q 1191 994 1439 701 
Q 1688 409 2113 409 
Q 2538 409 2786 701 
Q 3034 994 3034 1497 
Q 3034 2003 2786 2293 
Q 2538 2584 2113 2584 
z
M 3366 4563 
L 3366 3988 
Q 3128 4100 2886 4159 
Q 2644 4219 2406 4219 
Q 1781 4219 1451 3797 
Q 1122 3375 1075 2522 
Q 1259 2794 1537 2939 
Q 1816 3084 2150 3084 
Q 2853 3084 3261 2657 
Q 3669 2231 3669 1497 
Q 3669 778 3244 343 
Q 2819 -91 2113 -91 
Q 1303 -91 875 529 
Q 447 1150 447 2328 
Q 447 3434 972 4092 
Q 1497 4750 2381 4750 
Q 2619 4750 2861 4703 
Q 3103 4656 3366 4563 
z
" transform="scale(0.015625)"/>
       </defs>
       <use xlink:href="#DejaVuSans-31"/>
       <use xlink:href="#DejaVuSans-36" x="63.623047"/>
       <use xlink:href="#DejaVuSans-30" x="127.246094"/>
      </g>
     </g>
    </g>
    <g id="xtick_4">
     <g id="line2d_4">
      <path d="M 120.730586 512.64 
L 120.730586 69.12 
" clip-path="url(#pea1dfe547b)" style="fill: none; stroke: #cccccc; stroke-width: 0.8; stroke-linecap: round"/>
     </g>
     <g id="text_4">
      <!-- 240 -->
      <g style="fill: #262626" transform="translate(116.508981 537.54543)rotate(-45)scale(0.088 -0.088)">
       <defs>
        <path id="DejaVuSans-32" d="M 1228 531 
L 3431 531 
L 3431 0 
L 469 0 
L 469 531 
Q 828 903 1448 1529 
Q 2069 2156 2228 2338 
Q 2531 2678 2651 2914 
Q 2772 3150 2772 3378 
Q 2772 3750 2511 3984 
Q 2250 4219 1831 4219 
Q 1534 4219 1204 4116 
Q 875 4013 500 3803 
L 500 4441 
Q 881 4594 1212 4672 
Q 1544 4750 1819 4750 
Q 2544 4750 2975 4387 
Q 3406 4025 3406 3419 
Q 3406 3131 3298 2873 
Q 3191 2616 2906 2266 
Q 2828 2175 2409 1742 
Q 1991 1309 1228 531 
z
" transform="scale(0.015625)"/>
        <path id="DejaVuSans-34" d="M 2419 4116 
L 825 1625 
L 2419 1625 
L 2419 4116 
z
M 2253 4666 
L 3047 4666 
L 3047 1625 
L 3713 1625 
L 3713 1100 
L 3047 1100 
L 3047 0 
L 2419 0 
L 2419 1100 
L 313 1100 
L 313 1709 
L 2253 4666 
z
" transform="scale(0.015625)"/>
       </defs>
       <use xlink:href="#DejaVuSans-32"/>
       <use xlink:href="#DejaVuSans-34" x="63.623047"/>
       <use xlink:href="#DejaVuSans-30" x="127.246094"/>
      </g>
     </g>
    </g>
    <g id="xtick_5">
     <g id="line2d_5">
      <path d="M 137.757182 512.64 
L 137.757182 69.12 
" clip-path="url(#pea1dfe547b)" style="fill: none; stroke: #cccccc; stroke-width: 0.8; stroke-linecap: round"/>
     </g>
     <g id="text_5">
      <!-- 320 -->
      <g style="fill: #262626" transform="translate(133.535578 537.54543)rotate(-45)scale(0.088 -0.088)">
       <defs>
        <path id="DejaVuSans-33" d="M 2597 2516 
Q 3050 2419 3304 2112 
Q 3559 1806 3559 1356 
Q 3559 666 3084 287 
Q 2609 -91 1734 -91 
Q 1441 -91 1130 -33 
Q 819 25 488 141 
L 488 750 
Q 750 597 1062 519 
Q 1375 441 1716 441 
Q 2309 441 2620 675 
Q 2931 909 2931 1356 
Q 2931 1769 2642 2001 
Q 2353 2234 1838 2234 
L 1294 2234 
L 1294 2753 
L 1863 2753 
Q 2328 2753 2575 2939 
Q 2822 3125 2822 3475 
Q 2822 3834 2567 4026 
Q 2313 4219 1838 4219 
Q 1578 4219 1281 4162 
Q 984 4106 628 3988 
L 628 4550 
Q 988 4650 1302 4700 
Q 1616 4750 1894 4750 
Q 2613 4750 3031 4423 
Q 3450 4097 3450 3541 
Q 3450 3153 3228 2886 
Q 3006 2619 2597 2516 
z
" transform="scale(0.015625)"/>
       </defs>
       <use xlink:href="#DejaVuSans-33"/>
       <use xlink:href="#DejaVuSans-32" x="63.623047"/>
       <use xlink:href="#DejaVuSans-30" x="127.246094"/>
      </g>
     </g>
    </g>
    <g id="xtick_6">
     <g id="line2d_6">
      <path d="M 154.783779 512.64 
L 154.783779 69.12 
" clip-path="url(#pea1dfe547b)" style="fill: none; stroke: #cccccc; stroke-width: 0.8; stroke-linecap: round"/>
     </g>
     <g id="text_6">
      <!-- 400 -->
      <g style="fill: #262626" transform="translate(150.562175 537.54543)rotate(-45)scale(0.088 -0.088)">
       <use xlink:href="#DejaVuSans-34"/>
       <use xlink:href="#DejaVuSans-30" x="63.623047"/>
       <use xlink:href="#DejaVuSans-30" x="127.246094"/>
      </g>
     </g>
    </g>
    <g id="xtick_7">
     <g id="line2d_7">
      <path d="M 171.810376 512.64 
L 171.810376 69.12 
" clip-path="url(#pea1dfe547b)" style="fill: none; stroke: #cccccc; stroke-width: 0.8; stroke-linecap: round"/>
     </g>
     <g id="text_7">
      <!-- 480 -->
      <g style="fill: #262626" transform="translate(167.588772 537.54543)rotate(-45)scale(0.088 -0.088)">
       <use xlink:href="#DejaVuSans-34"/>
       <use xlink:href="#DejaVuSans-38" x="63.623047"/>
       <use xlink:href="#DejaVuSans-30" x="127.246094"/>
      </g>
     </g>
    </g>
    <g id="xtick_8">
     <g id="line2d_8">
      <path d="M 188.836973 512.64 
L 188.836973 69.12 
" clip-path="url(#pea1dfe547b)" style="fill: none; stroke: #cccccc; stroke-width: 0.8; stroke-linecap: round"/>
     </g>
     <g id="text_8">
      <!-- 560 -->
      <g style="fill: #262626" transform="translate(184.615368 537.54543)rotate(-45)scale(0.088 -0.088)">
       <defs>
        <path id="DejaVuSans-35" d="M 691 4666 
L 3169 4666 
L 3169 4134 
L 1269 4134 
L 1269 2991 
Q 1406 3038 1543 3061 
Q 1681 3084 1819 3084 
Q 2600 3084 3056 2656 
Q 3513 2228 3513 1497 
Q 3513 744 3044 326 
Q 2575 -91 1722 -91 
Q 1428 -91 1123 -41 
Q 819 9 494 109 
L 494 744 
Q 775 591 1075 516 
Q 1375 441 1709 441 
Q 2250 441 2565 725 
Q 2881 1009 2881 1497 
Q 2881 1984 2565 2268 
Q 2250 2553 1709 2553 
Q 1456 2553 1204 2497 
Q 953 2441 691 2322 
L 691 4666 
z
" transform="scale(0.015625)"/>
       </defs>
       <use xlink:href="#DejaVuSans-35"/>
       <use xlink:href="#DejaVuSans-36" x="63.623047"/>
       <use xlink:href="#DejaVuSans-30" x="127.246094"/>
      </g>
     </g>
    </g>
    <g id="xtick_9">
     <g id="line2d_9">
      <path d="M 205.863569 512.64 
L 205.863569 69.12 
" clip-path="url(#pea1dfe547b)" style="fill: none; stroke: #cccccc; stroke-width: 0.8; stroke-linecap: round"/>
     </g>
     <g id="text_9">
      <!-- 640 -->
      <g style="fill: #262626" transform="translate(201.641965 537.54543)rotate(-45)scale(0.088 -0.088)">
       <use xlink:href="#DejaVuSans-36"/>
       <use xlink:href="#DejaVuSans-34" x="63.623047"/>
       <use xlink:href="#DejaVuSans-30" x="127.246094"/>
      </g>
     </g>
    </g>
    <g id="xtick_10">
     <g id="line2d_10">
      <path d="M 222.890166 512.64 
L 222.890166 69.12 
" clip-path="url(#pea1dfe547b)" style="fill: none; stroke: #cccccc; stroke-width: 0.8; stroke-linecap: round"/>
     </g>
     <g id="text_10">
      <!-- 720 -->
      <g style="fill: #262626" transform="translate(218.668562 537.54543)rotate(-45)scale(0.088 -0.088)">
       <defs>
        <path id="DejaVuSans-37" d="M 525 4666 
L 3525 4666 
L 3525 4397 
L 1831 0 
L 1172 0 
L 2766 4134 
L 525 4134 
L 525 4666 
z
" transform="scale(0.015625)"/>
       </defs>
       <use xlink:href="#DejaVuSans-37"/>
       <use xlink:href="#DejaVuSans-32" x="63.623047"/>
       <use xlink:href="#DejaVuSans-30" x="127.246094"/>
      </g>
     </g>
    </g>
    <g id="xtick_11">
     <g id="line2d_11">
      <path d="M 239.916763 512.64 
L 239.916763 69.12 
" clip-path="url(#pea1dfe547b)" style="fill: none; stroke: #cccccc; stroke-width: 0.8; stroke-linecap: round"/>
     </g>
     <g id="text_11">
      <!-- 800 -->
      <g style="fill: #262626" transform="translate(235.695159 537.54543)rotate(-45)scale(0.088 -0.088)">
       <use xlink:href="#DejaVuSans-38"/>
       <use xlink:href="#DejaVuSans-30" x="63.623047"/>
       <use xlink:href="#DejaVuSans-30" x="127.246094"/>
      </g>
     </g>
    </g>
    <g id="xtick_12">
     <g id="line2d_12">
      <path d="M 256.94336 512.64 
L 256.94336 69.12 
" clip-path="url(#pea1dfe547b)" style="fill: none; stroke: #cccccc; stroke-width: 0.8; stroke-linecap: round"/>
     </g>
     <g id="text_12">
      <!-- 880 -->
      <g style="fill: #262626" transform="translate(252.721755 537.54543)rotate(-45)scale(0.088 -0.088)">
       <use xlink:href="#DejaVuSans-38"/>
       <use xlink:href="#DejaVuSans-38" x="63.623047"/>
       <use xlink:href="#DejaVuSans-30" x="127.246094"/>
      </g>
     </g>
    </g>
    <g id="xtick_13">
     <g id="line2d_13">
      <path d="M 273.969956 512.64 
L 273.969956 69.12 
" clip-path="url(#pea1dfe547b)" style="fill: none; stroke: #cccccc; stroke-width: 0.8; stroke-linecap: round"/>
     </g>
     <g id="text_13">
      <!-- 960 -->
      <g style="fill: #262626" transform="translate(269.748352 537.54543)rotate(-45)scale(0.088 -0.088)">
       <defs>
        <path id="DejaVuSans-39" d="M 703 97 
L 703 672 
Q 941 559 1184 500 
Q 1428 441 1663 441 
Q 2288 441 2617 861 
Q 2947 1281 2994 2138 
Q 2813 1869 2534 1725 
Q 2256 1581 1919 1581 
Q 1219 1581 811 2004 
Q 403 2428 403 3163 
Q 403 3881 828 4315 
Q 1253 4750 1959 4750 
Q 2769 4750 3195 4129 
Q 3622 3509 3622 2328 
Q 3622 1225 3098 567 
Q 2575 -91 1691 -91 
Q 1453 -91 1209 -44 
Q 966 3 703 97 
z
M 1959 2075 
Q 2384 2075 2632 2365 
Q 2881 2656 2881 3163 
Q 2881 3666 2632 3958 
Q 2384 4250 1959 4250 
Q 1534 4250 1286 3958 
Q 1038 3666 1038 3163 
Q 1038 2656 1286 2365 
Q 1534 2075 1959 2075 
z
" transform="scale(0.015625)"/>
       </defs>
       <use xlink:href="#DejaVuSans-39"/>
       <use xlink:href="#DejaVuSans-36" x="63.623047"/>
       <use xlink:href="#DejaVuSans-30" x="127.246094"/>
      </g>
     </g>
    </g>
    <g id="xtick_14">
     <g id="line2d_14">
      <path d="M 290.996553 512.64 
L 290.996553 69.12 
" clip-path="url(#pea1dfe547b)" style="fill: none; stroke: #cccccc; stroke-width: 0.8; stroke-linecap: round"/>
     </g>
     <g id="text_14">
      <!-- 1040 -->
      <g style="fill: #262626" transform="translate(284.795404 541.504521)rotate(-45)scale(0.088 -0.088)">
       <use xlink:href="#DejaVuSans-31"/>
       <use xlink:href="#DejaVuSans-30" x="63.623047"/>
       <use xlink:href="#DejaVuSans-34" x="127.246094"/>
       <use xlink:href="#DejaVuSans-30" x="190.869141"/>
      </g>
     </g>
    </g>
    <g id="xtick_15">
     <g id="line2d_15">
      <path d="M 308.02315 512.64 
L 308.02315 69.12 
" clip-path="url(#pea1dfe547b)" style="fill: none; stroke: #cccccc; stroke-width: 0.8; stroke-linecap: round"/>
     </g>
     <g id="text_15">
      <!-- 1120 -->
      <g style="fill: #262626" transform="translate(301.822 541.504521)rotate(-45)scale(0.088 -0.088)">
       <use xlink:href="#DejaVuSans-31"/>
       <use xlink:href="#DejaVuSans-31" x="63.623047"/>
       <use xlink:href="#DejaVuSans-32" x="127.246094"/>
       <use xlink:href="#DejaVuSans-30" x="190.869141"/>
      </g>
     </g>
    </g>
    <g id="xtick_16">
     <g id="line2d_16">
      <path d="M 325.049747 512.64 
L 325.049747 69.12 
" clip-path="url(#pea1dfe547b)" style="fill: none; stroke: #cccccc; stroke-width: 0.8; stroke-linecap: round"/>
     </g>
     <g id="text_16">
      <!-- 1200 -->
      <g style="fill: #262626" transform="translate(318.848597 541.504521)rotate(-45)scale(0.088 -0.088)">
       <use xlink:href="#DejaVuSans-31"/>
       <use xlink:href="#DejaVuSans-32" x="63.623047"/>
       <use xlink:href="#DejaVuSans-30" x="127.246094"/>
       <use xlink:href="#DejaVuSans-30" x="190.869141"/>
      </g>
     </g>
    </g>
    <g id="xtick_17">
     <g id="line2d_17">
      <path d="M 342.076343 512.64 
L 342.076343 69.12 
" clip-path="url(#pea1dfe547b)" style="fill: none; stroke: #cccccc; stroke-width: 0.8; stroke-linecap: round"/>
     </g>
     <g id="text_17">
      <!-- 1280 -->
      <g style="fill: #262626" transform="translate(335.875194 541.504521)rotate(-45)scale(0.088 -0.088)">
       <use xlink:href="#DejaVuSans-31"/>
       <use xlink:href="#DejaVuSans-32" x="63.623047"/>
       <use xlink:href="#DejaVuSans-38" x="127.246094"/>
       <use xlink:href="#DejaVuSans-30" x="190.869141"/>
      </g>
     </g>
    </g>
    <g id="xtick_18">
     <g id="line2d_18">
      <path d="M 359.10294 512.64 
L 359.10294 69.12 
" clip-path="url(#pea1dfe547b)" style="fill: none; stroke: #cccccc; stroke-width: 0.8; stroke-linecap: round"/>
     </g>
     <g id="text_18">
      <!-- 1360 -->
      <g style="fill: #262626" transform="translate(352.901791 541.504521)rotate(-45)scale(0.088 -0.088)">
       <use xlink:href="#DejaVuSans-31"/>
       <use xlink:href="#DejaVuSans-33" x="63.623047"/>
       <use xlink:href="#DejaVuSans-36" x="127.246094"/>
       <use xlink:href="#DejaVuSans-30" x="190.869141"/>
      </g>
     </g>
    </g>
    <g id="xtick_19">
     <g id="line2d_19">
      <path d="M 376.129537 512.64 
L 376.129537 69.12 
" clip-path="url(#pea1dfe547b)" style="fill: none; stroke: #cccccc; stroke-width: 0.8; stroke-linecap: round"/>
     </g>
     <g id="text_19">
      <!-- 1440 -->
      <g style="fill: #262626" transform="translate(369.928387 541.504521)rotate(-45)scale(0.088 -0.088)">
       <use xlink:href="#DejaVuSans-31"/>
       <use xlink:href="#DejaVuSans-34" x="63.623047"/>
       <use xlink:href="#DejaVuSans-34" x="127.246094"/>
       <use xlink:href="#DejaVuSans-30" x="190.869141"/>
      </g>
     </g>
    </g>
    <g id="text_20">
     <!-- Time (Minutes) -->
     <g style="fill: #262626" transform="translate(186.87375 554.093115)scale(0.096 -0.096)">
      <defs>
       <path id="DejaVuSans-54" d="M -19 4666 
L 3928 4666 
L 3928 4134 
L 2272 4134 
L 2272 0 
L 1638 0 
L 1638 4134 
L -19 4134 
L -19 4666 
z
" transform="scale(0.015625)"/>
       <path id="DejaVuSans-69" d="M 603 3500 
L 1178 3500 
L 1178 0 
L 603 0 
L 603 3500 
z
M 603 4863 
L 1178 4863 
L 1178 4134 
L 603 4134 
L 603 4863 
z
" transform="scale(0.015625)"/>
       <path id="DejaVuSans-6d" d="M 3328 2828 
Q 3544 3216 3844 3400 
Q 4144 3584 4550 3584 
Q 5097 3584 5394 3201 
Q 5691 2819 5691 2113 
L 5691 0 
L 5113 0 
L 5113 2094 
Q 5113 2597 4934 2840 
Q 4756 3084 4391 3084 
Q 3944 3084 3684 2787 
Q 3425 2491 3425 1978 
L 3425 0 
L 2847 0 
L 2847 2094 
Q 2847 2600 2669 2842 
Q 2491 3084 2119 3084 
Q 1678 3084 1418 2786 
Q 1159 2488 1159 1978 
L 1159 0 
L 581 0 
L 581 3500 
L 1159 3500 
L 1159 2956 
Q 1356 3278 1631 3431 
Q 1906 3584 2284 3584 
Q 2666 3584 2933 3390 
Q 3200 3197 3328 2828 
z
" transform="scale(0.015625)"/>
       <path id="DejaVuSans-65" d="M 3597 1894 
L 3597 1613 
L 953 1613 
Q 991 1019 1311 708 
Q 1631 397 2203 397 
Q 2534 397 2845 478 
Q 3156 559 3463 722 
L 3463 178 
Q 3153 47 2828 -22 
Q 2503 -91 2169 -91 
Q 1331 -91 842 396 
Q 353 884 353 1716 
Q 353 2575 817 3079 
Q 1281 3584 2069 3584 
Q 2775 3584 3186 3129 
Q 3597 2675 3597 1894 
z
M 3022 2063 
Q 3016 2534 2758 2815 
Q 2500 3097 2075 3097 
Q 1594 3097 1305 2825 
Q 1016 2553 972 2059 
L 3022 2063 
z
" transform="scale(0.015625)"/>
       <path id="DejaVuSans-20" transform="scale(0.015625)"/>
       <path id="DejaVuSans-28" d="M 1984 4856 
Q 1566 4138 1362 3434 
Q 1159 2731 1159 2009 
Q 1159 1288 1364 580 
Q 1569 -128 1984 -844 
L 1484 -844 
Q 1016 -109 783 600 
Q 550 1309 550 2009 
Q 550 2706 781 3412 
Q 1013 4119 1484 4856 
L 1984 4856 
z
" transform="scale(0.015625)"/>
       <path id="DejaVuSans-4d" d="M 628 4666 
L 1569 4666 
L 2759 1491 
L 3956 4666 
L 4897 4666 
L 4897 0 
L 4281 0 
L 4281 4097 
L 3078 897 
L 2444 897 
L 1241 4097 
L 1241 0 
L 628 0 
L 628 4666 
z
" transform="scale(0.015625)"/>
       <path id="DejaVuSans-6e" d="M 3513 2113 
L 3513 0 
L 2938 0 
L 2938 2094 
Q 2938 2591 2744 2837 
Q 2550 3084 2163 3084 
Q 1697 3084 1428 2787 
Q 1159 2491 1159 1978 
L 1159 0 
L 581 0 
L 581 3500 
L 1159 3500 
L 1159 2956 
Q 1366 3272 1645 3428 
Q 1925 3584 2291 3584 
Q 2894 3584 3203 3211 
Q 3513 2838 3513 2113 
z
" transform="scale(0.015625)"/>
       <path id="DejaVuSans-75" d="M 544 1381 
L 544 3500 
L 1119 3500 
L 1119 1403 
Q 1119 906 1312 657 
Q 1506 409 1894 409 
Q 2359 409 2629 706 
Q 2900 1003 2900 1516 
L 2900 3500 
L 3475 3500 
L 3475 0 
L 2900 0 
L 2900 538 
Q 2691 219 2414 64 
Q 2138 -91 1772 -91 
Q 1169 -91 856 284 
Q 544 659 544 1381 
z
M 1991 3584 
L 1991 3584 
z
" transform="scale(0.015625)"/>
       <path id="DejaVuSans-74" d="M 1172 4494 
L 1172 3500 
L 2356 3500 
L 2356 3053 
L 1172 3053 
L 1172 1153 
Q 1172 725 1289 603 
Q 1406 481 1766 481 
L 2356 481 
L 2356 0 
L 1766 0 
Q 1100 0 847 248 
Q 594 497 594 1153 
L 594 3053 
L 172 3053 
L 172 3500 
L 594 3500 
L 594 4494 
L 1172 4494 
z
" transform="scale(0.015625)"/>
       <path id="DejaVuSans-73" d="M 2834 3397 
L 2834 2853 
Q 2591 2978 2328 3040 
Q 2066 3103 1784 3103 
Q 1356 3103 1142 2972 
Q 928 2841 928 2578 
Q 928 2378 1081 2264 
Q 1234 2150 1697 2047 
L 1894 2003 
Q 2506 1872 2764 1633 
Q 3022 1394 3022 966 
Q 3022 478 2636 193 
Q 2250 -91 1575 -91 
Q 1294 -91 989 -36 
Q 684 19 347 128 
L 347 722 
Q 666 556 975 473 
Q 1284 391 1588 391 
Q 1994 391 2212 530 
Q 2431 669 2431 922 
Q 2431 1156 2273 1281 
Q 2116 1406 1581 1522 
L 1381 1569 
Q 847 1681 609 1914 
Q 372 2147 372 2553 
Q 372 3047 722 3315 
Q 1072 3584 1716 3584 
Q 2034 3584 2315 3537 
Q 2597 3491 2834 3397 
z
" transform="scale(0.015625)"/>
       <path id="DejaVuSans-29" d="M 513 4856 
L 1013 4856 
Q 1481 4119 1714 3412 
Q 1947 2706 1947 2009 
Q 1947 1309 1714 600 
Q 1481 -109 1013 -844 
L 513 -844 
Q 928 -128 1133 580 
Q 1338 1288 1338 2009 
Q 1338 2731 1133 3434 
Q 928 4138 513 4856 
z
" transform="scale(0.015625)"/>
      </defs>
      <use xlink:href="#DejaVuSans-54"/>
      <use xlink:href="#DejaVuSans-69" x="57.958984"/>
      <use xlink:href="#DejaVuSans-6d" x="85.742188"/>
      <use xlink:href="#DejaVuSans-65" x="183.154297"/>
      <use xlink:href="#DejaVuSans-20" x="244.677734"/>
      <use xlink:href="#DejaVuSans-28" x="276.464844"/>
      <use xlink:href="#DejaVuSans-4d" x="315.478516"/>
      <use xlink:href="#DejaVuSans-69" x="401.757812"/>
      <use xlink:href="#DejaVuSans-6e" x="429.541016"/>
      <use xlink:href="#DejaVuSans-75" x="492.919922"/>
      <use xlink:href="#DejaVuSans-74" x="556.298828"/>
      <use xlink:href="#DejaVuSans-65" x="595.507812"/>
      <use xlink:href="#DejaVuSans-73" x="657.03125"/>
      <use xlink:href="#DejaVuSans-29" x="709.130859"/>
     </g>
    </g>
   </g>
   <g id="matplotlib.axis_2">
    <g id="ytick_1">
     <g id="line2d_20">
      <path d="M 54.3375 492.48 
L 391.23 492.48 
" clip-path="url(#pea1dfe547b)" style="fill: none; stroke: #cccccc; stroke-width: 0.8; stroke-linecap: round"/>
     </g>
     <g id="text_21">
      <!-- 0 -->
      <g style="fill: #262626" transform="translate(40.4385 495.823312)scale(0.088 -0.088)">
       <use xlink:href="#DejaVuSans-30"/>
      </g>
     </g>
    </g>
    <g id="ytick_2">
     <g id="line2d_21">
      <path d="M 54.3375 431.016585 
L 391.23 431.016585 
" clip-path="url(#pea1dfe547b)" style="fill: none; stroke: #cccccc; stroke-width: 0.8; stroke-linecap: round"/>
     </g>
     <g id="text_22">
      <!-- 100 -->
      <g style="fill: #262626" transform="translate(29.2405 434.359898)scale(0.088 -0.088)">
       <use xlink:href="#DejaVuSans-31"/>
       <use xlink:href="#DejaVuSans-30" x="63.623047"/>
       <use xlink:href="#DejaVuSans-30" x="127.246094"/>
      </g>
     </g>
    </g>
    <g id="ytick_3">
     <g id="line2d_22">
      <path d="M 54.3375 369.553171 
L 391.23 369.553171 
" clip-path="url(#pea1dfe547b)" style="fill: none; stroke: #cccccc; stroke-width: 0.8; stroke-linecap: round"/>
     </g>
     <g id="text_23">
      <!-- 200 -->
      <g style="fill: #262626" transform="translate(29.2405 372.896483)scale(0.088 -0.088)">
       <use xlink:href="#DejaVuSans-32"/>
       <use xlink:href="#DejaVuSans-30" x="63.623047"/>
       <use xlink:href="#DejaVuSans-30" x="127.246094"/>
      </g>
     </g>
    </g>
    <g id="ytick_4">
     <g id="line2d_23">
      <path d="M 54.3375 308.089756 
L 391.23 308.089756 
" clip-path="url(#pea1dfe547b)" style="fill: none; stroke: #cccccc; stroke-width: 0.8; stroke-linecap: round"/>
     </g>
     <g id="text_24">
      <!-- 300 -->
      <g style="fill: #262626" transform="translate(29.2405 311.433069)scale(0.088 -0.088)">
       <use xlink:href="#DejaVuSans-33"/>
       <use xlink:href="#DejaVuSans-30" x="63.623047"/>
       <use xlink:href="#DejaVuSans-30" x="127.246094"/>
      </g>
     </g>
    </g>
    <g id="ytick_5">
     <g id="line2d_24">
      <path d="M 54.3375 246.626341 
L 391.23 246.626341 
" clip-path="url(#pea1dfe547b)" style="fill: none; stroke: #cccccc; stroke-width: 0.8; stroke-linecap: round"/>
     </g>
     <g id="text_25">
      <!-- 400 -->
      <g style="fill: #262626" transform="translate(29.2405 249.969654)scale(0.088 -0.088)">
       <use xlink:href="#DejaVuSans-34"/>
       <use xlink:href="#DejaVuSans-30" x="63.623047"/>
       <use xlink:href="#DejaVuSans-30" x="127.246094"/>
      </g>
     </g>
    </g>
    <g id="ytick_6">
     <g id="line2d_25">
      <path d="M 54.3375 185.162927 
L 391.23 185.162927 
" clip-path="url(#pea1dfe547b)" style="fill: none; stroke: #cccccc; stroke-width: 0.8; stroke-linecap: round"/>
     </g>
     <g id="text_26">
      <!-- 500 -->
      <g style="fill: #262626" transform="translate(29.2405 188.506239)scale(0.088 -0.088)">
       <use xlink:href="#DejaVuSans-35"/>
       <use xlink:href="#DejaVuSans-30" x="63.623047"/>
       <use xlink:href="#DejaVuSans-30" x="127.246094"/>
      </g>
     </g>
    </g>
    <g id="ytick_7">
     <g id="line2d_26">
      <path d="M 54.3375 123.699512 
L 391.23 123.699512 
" clip-path="url(#pea1dfe547b)" style="fill: none; stroke: #cccccc; stroke-width: 0.8; stroke-linecap: round"/>
     </g>
     <g id="text_27">
      <!-- 600 -->
      <g style="fill: #262626" transform="translate(29.2405 127.042825)scale(0.088 -0.088)">
       <use xlink:href="#DejaVuSans-36"/>
       <use xlink:href="#DejaVuSans-30" x="63.623047"/>
       <use xlink:href="#DejaVuSans-30" x="127.246094"/>
      </g>
     </g>
    </g>
    <g id="text_28">
     <!-- Edge Coverages -->
     <g style="fill: #262626" transform="translate(23.244 329.98575)rotate(-90)scale(0.096 -0.096)">
      <defs>
       <path id="DejaVuSans-45" d="M 628 4666 
L 3578 4666 
L 3578 4134 
L 1259 4134 
L 1259 2753 
L 3481 2753 
L 3481 2222 
L 1259 2222 
L 1259 531 
L 3634 531 
L 3634 0 
L 628 0 
L 628 4666 
z
" transform="scale(0.015625)"/>
       <path id="DejaVuSans-64" d="M 2906 2969 
L 2906 4863 
L 3481 4863 
L 3481 0 
L 2906 0 
L 2906 525 
Q 2725 213 2448 61 
Q 2172 -91 1784 -91 
Q 1150 -91 751 415 
Q 353 922 353 1747 
Q 353 2572 751 3078 
Q 1150 3584 1784 3584 
Q 2172 3584 2448 3432 
Q 2725 3281 2906 2969 
z
M 947 1747 
Q 947 1113 1208 752 
Q 1469 391 1925 391 
Q 2381 391 2643 752 
Q 2906 1113 2906 1747 
Q 2906 2381 2643 2742 
Q 2381 3103 1925 3103 
Q 1469 3103 1208 2742 
Q 947 2381 947 1747 
z
" transform="scale(0.015625)"/>
       <path id="DejaVuSans-67" d="M 2906 1791 
Q 2906 2416 2648 2759 
Q 2391 3103 1925 3103 
Q 1463 3103 1205 2759 
Q 947 2416 947 1791 
Q 947 1169 1205 825 
Q 1463 481 1925 481 
Q 2391 481 2648 825 
Q 2906 1169 2906 1791 
z
M 3481 434 
Q 3481 -459 3084 -895 
Q 2688 -1331 1869 -1331 
Q 1566 -1331 1297 -1286 
Q 1028 -1241 775 -1147 
L 775 -588 
Q 1028 -725 1275 -790 
Q 1522 -856 1778 -856 
Q 2344 -856 2625 -561 
Q 2906 -266 2906 331 
L 2906 616 
Q 2728 306 2450 153 
Q 2172 0 1784 0 
Q 1141 0 747 490 
Q 353 981 353 1791 
Q 353 2603 747 3093 
Q 1141 3584 1784 3584 
Q 2172 3584 2450 3431 
Q 2728 3278 2906 2969 
L 2906 3500 
L 3481 3500 
L 3481 434 
z
" transform="scale(0.015625)"/>
       <path id="DejaVuSans-43" d="M 4122 4306 
L 4122 3641 
Q 3803 3938 3442 4084 
Q 3081 4231 2675 4231 
Q 1875 4231 1450 3742 
Q 1025 3253 1025 2328 
Q 1025 1406 1450 917 
Q 1875 428 2675 428 
Q 3081 428 3442 575 
Q 3803 722 4122 1019 
L 4122 359 
Q 3791 134 3420 21 
Q 3050 -91 2638 -91 
Q 1578 -91 968 557 
Q 359 1206 359 2328 
Q 359 3453 968 4101 
Q 1578 4750 2638 4750 
Q 3056 4750 3426 4639 
Q 3797 4528 4122 4306 
z
" transform="scale(0.015625)"/>
       <path id="DejaVuSans-6f" d="M 1959 3097 
Q 1497 3097 1228 2736 
Q 959 2375 959 1747 
Q 959 1119 1226 758 
Q 1494 397 1959 397 
Q 2419 397 2687 759 
Q 2956 1122 2956 1747 
Q 2956 2369 2687 2733 
Q 2419 3097 1959 3097 
z
M 1959 3584 
Q 2709 3584 3137 3096 
Q 3566 2609 3566 1747 
Q 3566 888 3137 398 
Q 2709 -91 1959 -91 
Q 1206 -91 779 398 
Q 353 888 353 1747 
Q 353 2609 779 3096 
Q 1206 3584 1959 3584 
z
" transform="scale(0.015625)"/>
       <path id="DejaVuSans-76" d="M 191 3500 
L 800 3500 
L 1894 563 
L 2988 3500 
L 3597 3500 
L 2284 0 
L 1503 0 
L 191 3500 
z
" transform="scale(0.015625)"/>
       <path id="DejaVuSans-72" d="M 2631 2963 
Q 2534 3019 2420 3045 
Q 2306 3072 2169 3072 
Q 1681 3072 1420 2755 
Q 1159 2438 1159 1844 
L 1159 0 
L 581 0 
L 581 3500 
L 1159 3500 
L 1159 2956 
Q 1341 3275 1631 3429 
Q 1922 3584 2338 3584 
Q 2397 3584 2469 3576 
Q 2541 3569 2628 3553 
L 2631 2963 
z
" transform="scale(0.015625)"/>
       <path id="DejaVuSans-61" d="M 2194 1759 
Q 1497 1759 1228 1600 
Q 959 1441 959 1056 
Q 959 750 1161 570 
Q 1363 391 1709 391 
Q 2188 391 2477 730 
Q 2766 1069 2766 1631 
L 2766 1759 
L 2194 1759 
z
M 3341 1997 
L 3341 0 
L 2766 0 
L 2766 531 
Q 2569 213 2275 61 
Q 1981 -91 1556 -91 
Q 1019 -91 701 211 
Q 384 513 384 1019 
Q 384 1609 779 1909 
Q 1175 2209 1959 2209 
L 2766 2209 
L 2766 2266 
Q 2766 2663 2505 2880 
Q 2244 3097 1772 3097 
Q 1472 3097 1187 3025 
Q 903 2953 641 2809 
L 641 3341 
Q 956 3463 1253 3523 
Q 1550 3584 1831 3584 
Q 2591 3584 2966 3190 
Q 3341 2797 3341 1997 
z
" transform="scale(0.015625)"/>
      </defs>
      <use xlink:href="#DejaVuSans-45"/>
      <use xlink:href="#DejaVuSans-64" x="63.183594"/>
      <use xlink:href="#DejaVuSans-67" x="126.660156"/>
      <use xlink:href="#DejaVuSans-65" x="190.136719"/>
      <use xlink:href="#DejaVuSans-20" x="251.660156"/>
      <use xlink:href="#DejaVuSans-43" x="283.447266"/>
      <use xlink:href="#DejaVuSans-6f" x="353.271484"/>
      <use xlink:href="#DejaVuSans-76" x="414.453125"/>
      <use xlink:href="#DejaVuSans-65" x="473.632812"/>
      <use xlink:href="#DejaVuSans-72" x="535.15625"/>
      <use xlink:href="#DejaVuSans-61" x="576.269531"/>
      <use xlink:href="#DejaVuSans-67" x="637.548828"/>
      <use xlink:href="#DejaVuSans-65" x="701.025391"/>
      <use xlink:href="#DejaVuSans-73" x="762.548828"/>
     </g>
    </g>
   </g>
   <g id="PolyCollection_1">
    <defs>
     <path id="m505674e40a" d="M 69.650795 -105.032195 
L 69.650795 -83.52 
L 69.650795 -105.032195 
L 69.650795 -105.032195 
z
" style="stroke: #db5f57; stroke-opacity: 0.2; stroke-width: 0.8"/>
    </defs>
    <g clip-path="url(#pea1dfe547b)">
     <use xlink:href="#m505674e40a" x="0" y="576" style="fill: #db5f57; fill-opacity: 0.2; stroke: #db5f57; stroke-opacity: 0.2; stroke-width: 0.8"/>
    </g>
   </g>
   <g id="PolyCollection_2">
    <defs>
     <path id="m0703e7d959" d="M 69.650795 -98.27122 
L 69.650795 -83.52 
L 69.650795 -98.27122 
L 69.650795 -98.27122 
z
" style="stroke: #b9db57; stroke-opacity: 0.2; stroke-width: 0.8"/>
    </defs>
    <g clip-path="url(#pea1dfe547b)">
     <use xlink:href="#m0703e7d959" x="0" y="576" style="fill: #b9db57; fill-opacity: 0.2; stroke: #b9db57; stroke-opacity: 0.2; stroke-width: 0.8"/>
    </g>
   </g>
   <g id="PolyCollection_3">
    <defs>
     <path id="m304711c381" d="M 69.650795 -101.959024 
L 69.650795 -83.52 
L 69.650795 -101.959024 
L 69.650795 -101.959024 
z
" style="stroke: #57db94; stroke-opacity: 0.2; stroke-width: 0.8"/>
    </defs>
    <g clip-path="url(#pea1dfe547b)">
     <use xlink:href="#m304711c381" x="0" y="576" style="fill: #57db94; fill-opacity: 0.2; stroke: #57db94; stroke-opacity: 0.2; stroke-width: 0.8"/>
    </g>
   </g>
   <g id="PolyCollection_4">
    <defs>
     <path id="m610e925d36" d="M 69.650795 -108.105366 
L 69.650795 -83.52 
L 69.650795 -108.105366 
L 69.650795 -108.105366 
z
" style="stroke: #5784db; stroke-opacity: 0.2; stroke-width: 0.8"/>
    </defs>
    <g clip-path="url(#pea1dfe547b)">
     <use xlink:href="#m610e925d36" x="0" y="576" style="fill: #5784db; fill-opacity: 0.2; stroke: #5784db; stroke-opacity: 0.2; stroke-width: 0.8"/>
    </g>
   </g>
   <g id="PolyCollection_5">
    <defs>
     <path id="m12ba3892bf" d="M 69.650795 -108.72 
L 69.650795 -83.52 
L 69.650795 -108.72 
L 69.650795 -108.72 
z
" style="stroke: #c957db; stroke-opacity: 0.2; stroke-width: 0.8"/>
    </defs>
    <g clip-path="url(#pea1dfe547b)">
     <use xlink:href="#m12ba3892bf" x="0" y="576" style="fill: #c957db; fill-opacity: 0.2; stroke: #c957db; stroke-opacity: 0.2; stroke-width: 0.8"/>
    </g>
   </g>
   <g id="line2d_27">
    <path d="M 69.650795 481.723902 
L 69.863628 458.060488 
L 70.289293 447.611707 
L 70.502125 442.08 
L 70.92779 435.933659 
L 71.140623 432.860488 
L 71.353455 431.63122 
L 71.566288 417.494634 
L 72.204785 399.670244 
L 72.63045 387.377561 
L 72.843282 387.377561 
L 73.056115 378.772683 
L 73.268947 378.772683 
L 73.48178 378.158049 
L 73.694612 378.158049 
L 73.907445 368.323902 
L 74.120277 368.323902 
L 74.33311 367.094634 
L 74.758774 367.094634 
L 75.397272 362.177561 
L 75.822937 360.333659 
L 76.035769 349.884878 
L 76.248602 349.884878 
L 76.461434 349.270244 
L 76.887099 346.197073 
L 77.099932 346.197073 
L 77.525596 341.894634 
L 77.738429 329.601951 
L 77.951261 329.601951 
L 78.164094 328.987317 
L 78.376926 328.987317 
L 78.589759 327.758049 
L 78.802591 327.758049 
L 79.015424 327.143415 
L 79.228256 324.070244 
L 79.441089 324.070244 
L 79.653921 323.45561 
L 79.866754 323.45561 
L 80.079586 322.840976 
L 80.930916 322.840976 
L 81.143748 314.236098 
L 82.420743 314.236098 
L 82.633575 312.392195 
L 83.272073 312.392195 
L 83.91057 308.70439 
L 84.336235 308.70439 
L 84.549068 307.475122 
L 86.038895 307.475122 
L 86.251727 296.411707 
L 87.103057 296.411707 
L 87.31589 292.109268 
L 88.167219 292.109268 
L 88.380052 291.494634 
L 88.592884 290.265366 
L 89.444214 290.265366 
L 89.657047 287.806829 
L 89.869879 287.806829 
L 90.082712 287.192195 
L 90.721209 287.192195 
L 90.934041 282.889756 
L 91.146874 282.275122 
L 91.359706 282.275122 
L 91.572539 279.816585 
L 91.998204 279.816585 
L 92.423869 278.587317 
L 92.636701 278.587317 
L 93.062366 277.358049 
L 93.275198 277.358049 
L 93.488031 276.12878 
L 94.126528 276.12878 
L 94.339361 275.514146 
L 94.765026 275.514146 
L 94.977858 267.523902 
L 95.190691 267.523902 
L 95.403523 266.909268 
L 96.04202 266.909268 
L 96.254853 266.294634 
L 96.680518 263.221463 
L 96.89335 263.221463 
L 97.106183 261.992195 
L 97.319015 261.992195 
L 97.531848 261.377561 
L 97.74468 261.377561 
L 97.957513 260.762927 
L 98.59601 260.762927 
L 98.808842 260.148293 
L 99.021675 260.148293 
L 99.234507 258.30439 
L 99.44734 257.689756 
L 101.362832 257.689756 
L 101.575664 255.845854 
L 101.788497 255.23122 
L 102.214162 255.23122 
L 102.426994 254.616585 
L 102.852659 252.772683 
L 105.406649 252.772683 
L 105.832314 251.543415 
L 106.045146 246.626341 
L 106.257978 246.011707 
L 109.0248 246.011707 
L 109.237633 245.397073 
L 110.940293 245.397073 
L 111.153125 244.782439 
L 112.642952 244.782439 
L 113.068617 242.938537 
L 115.622607 242.938537 
L 116.048272 241.709268 
L 116.686769 241.709268 
L 116.899601 241.094634 
L 117.112434 238.636098 
L 117.325266 238.636098 
L 117.538099 238.021463 
L 117.750931 238.021463 
L 117.963764 236.792195 
L 119.027926 236.792195 
L 119.240758 236.177561 
L 119.879256 236.177561 
L 120.092088 234.948293 
L 120.517753 234.948293 
L 120.730586 234.333659 
L 120.943418 234.333659 
L 121.369083 231.260488 
L 121.581916 230.645854 
L 122.220413 225.72878 
L 122.646078 225.72878 
L 122.85891 224.499512 
L 125.200067 224.499512 
L 125.4129 223.884878 
L 126.26423 223.884878 
L 126.477062 222.65561 
L 127.541224 222.65561 
L 127.754057 222.040976 
L 129.882381 222.040976 
L 130.095214 219.582439 
L 130.308046 218.967805 
L 130.733711 218.967805 
L 130.946544 216.509268 
L 131.159376 215.894634 
L 131.797874 215.894634 
L 132.010706 214.665366 
L 132.223539 212.206829 
L 132.436371 212.206829 
L 132.649203 211.592195 
L 136.054523 211.592195 
L 136.267355 210.977561 
L 136.905853 210.977561 
L 137.118685 210.362927 
L 138.608512 210.362927 
L 138.821345 207.90439 
L 140.311172 207.90439 
L 140.524004 198.070244 
L 140.736837 198.070244 
L 141.162502 196.840976 
L 142.013832 196.840976 
L 142.226664 196.226341 
L 142.865161 196.226341 
L 143.077994 195.611707 
L 146.270481 195.611707 
L 146.483313 194.997073 
L 147.121811 194.997073 
L 147.334643 193.767805 
L 149.037303 193.767805 
L 149.462968 191.923902 
L 151.804125 191.923902 
L 152.016957 191.309268 
L 152.868287 191.309268 
L 153.08112 190.694634 
L 154.996612 190.694634 
L 155.209444 190.08 
L 156.273606 190.08 
L 156.699271 188.850732 
L 156.912104 188.850732 
L 157.124936 188.236098 
L 158.189099 188.236098 
L 158.401931 187.006829 
L 159.466093 187.006829 
L 159.678926 186.392195 
L 159.891758 186.392195 
L 160.104591 185.162927 
L 160.955921 185.162927 
L 161.168753 183.319024 
L 161.381585 182.70439 
L 161.594418 182.70439 
L 161.80725 182.089756 
L 162.020083 182.089756 
L 162.232915 181.475122 
L 162.445748 181.475122 
L 162.871413 179.63122 
L 164.148407 179.63122 
L 164.36124 179.016585 
L 165.851067 179.016585 
L 166.0639 178.401951 
L 167.553727 178.401951 
L 167.766559 177.787317 
L 169.256386 177.787317 
L 169.469219 176.558049 
L 171.384711 176.558049 
L 171.597544 175.943415 
L 172.236041 175.943415 
L 172.448873 175.32878 
L 176.705523 175.32878 
L 176.918355 174.714146 
L 180.110842 174.714146 
L 180.323674 172.870244 
L 183.516161 172.870244 
L 183.728994 167.338537 
L 185.005988 167.338537 
L 185.218821 166.723902 
L 186.282983 166.723902 
L 186.495816 163.036098 
L 189.262638 163.036098 
L 189.47547 162.421463 
L 191.390962 162.421463 
L 191.816627 161.192195 
L 193.519287 161.192195 
L 193.732119 160.577561 
L 194.157784 160.577561 
L 194.370617 159.962927 
L 195.221947 159.962927 
L 195.434779 158.733659 
L 203.522412 158.733659 
L 203.735245 158.119024 
L 226.082653 158.119024 
L 226.295486 157.50439 
L 233.318957 157.50439 
L 233.531789 156.889756 
L 234.595951 156.889756 
L 234.808784 156.275122 
L 235.021616 156.275122 
L 235.447281 155.045854 
L 235.872946 155.045854 
L 236.085779 154.43122 
L 237.362773 154.43122 
L 237.575606 153.816585 
L 240.55526 153.816585 
L 240.768093 153.201951 
L 248.004396 153.201951 
L 248.217229 151.972683 
L 248.430061 151.972683 
L 248.642894 150.12878 
L 248.855726 149.514146 
L 249.707056 149.514146 
L 250.132721 148.284878 
L 250.345553 147.05561 
L 262.902669 147.05561 
L 263.115501 146.440976 
L 265.456658 146.440976 
L 265.669491 145.826341 
L 267.797815 145.826341 
L 268.010648 145.211707 
L 272.054464 145.211707 
L 272.267297 144.597073 
L 289.719558 144.597073 
L 289.932391 143.982439 
L 306.32049 143.982439 
L 306.533323 143.367805 
L 322.70859 143.367805 
L 322.921422 142.753171 
L 325.688244 142.753171 
L 325.901077 141.523902 
L 326.326742 141.523902 
L 326.539574 140.909268 
L 328.029401 140.909268 
L 328.242234 140.294634 
L 335.69137 140.294634 
L 335.904202 139.68 
L 345.907328 139.68 
L 346.12016 139.065366 
L 350.376809 139.065366 
L 350.589642 138.450732 
L 362.50826 138.450732 
L 362.721092 135.992195 
L 362.933925 135.992195 
L 363.146757 135.377561 
L 363.998087 135.377561 
L 364.210919 134.148293 
L 366.339244 134.148293 
L 366.552076 133.533659 
L 367.403406 133.533659 
L 367.616239 132.919024 
L 368.893233 132.919024 
L 369.106066 132.30439 
L 371.447223 132.30439 
L 371.660055 131.689756 
L 373.362715 131.689756 
L 373.575547 130.460488 
L 375.916705 130.460488 
L 375.916705 130.460488 
" clip-path="url(#pea1dfe547b)" style="fill: none; stroke: #db5f57; stroke-width: 1.2; stroke-linecap: round"/>
   </g>
   <g id="line2d_28">
    <path d="M 69.650795 485.10439 
L 69.863628 477.114146 
L 70.07646 476.499512 
L 70.289293 476.499512 
L 70.502125 475.884878 
L 70.92779 475.884878 
L 71.140623 425.484878 
L 71.353455 415.650732 
L 71.566288 392.294634 
L 71.77912 392.294634 
L 71.991953 387.992195 
L 72.417617 387.992195 
L 72.63045 386.762927 
L 73.48178 386.762927 
L 73.694612 385.533659 
L 74.120277 381.845854 
L 74.33311 380.001951 
L 74.758774 378.772683 
L 74.971607 376.92878 
L 75.184439 376.92878 
L 75.610104 375.084878 
L 75.822937 375.084878 
L 76.248602 373.85561 
L 76.674267 373.85561 
L 76.887099 372.626341 
L 77.951261 372.626341 
L 78.164094 372.011707 
L 79.015424 372.011707 
L 79.866754 369.553171 
L 80.079586 369.553171 
L 80.505251 367.709268 
L 82.420743 367.709268 
L 82.633575 367.094634 
L 83.05924 367.094634 
L 83.272073 365.865366 
L 83.484905 365.865366 
L 83.697738 365.250732 
L 85.61323 365.250732 
L 85.826062 363.406829 
L 86.038895 363.406829 
L 86.677392 361.562927 
L 86.890225 282.275122 
L 87.103057 282.275122 
L 87.31589 281.045854 
L 89.018549 281.045854 
L 89.231382 280.43122 
L 89.444214 280.43122 
L 89.869879 279.201951 
L 90.082712 279.201951 
L 90.295544 278.587317 
L 90.721209 278.587317 
L 90.934041 277.972683 
L 103.065492 277.972683 
L 103.278324 239.250732 
L 120.730586 239.250732 
L 120.943418 220.811707 
L 133.713366 220.811707 
L 133.926198 199.914146 
L 138.39568 199.914146 
L 138.608512 199.299512 
L 147.121811 199.299512 
L 147.334643 181.475122 
L 151.37846 181.475122 
L 151.591292 180.245854 
L 153.719617 180.245854 
L 153.932449 178.401951 
L 156.273606 178.401951 
L 156.486439 177.172683 
L 156.699271 177.172683 
L 156.912104 176.558049 
L 159.253261 176.558049 
L 159.466093 174.714146 
L 159.678926 174.099512 
L 160.104591 174.099512 
L 160.530256 172.25561 
L 174.151533 172.25561 
L 174.364365 164.265366 
L 176.49269 164.265366 
L 176.705523 163.650732 
L 179.685177 163.650732 
L 179.898009 163.036098 
L 180.110842 163.036098 
L 180.323674 161.192195 
L 186.708648 161.192195 
L 186.921481 151.358049 
L 198.840098 151.358049 
L 199.052931 147.670244 
L 213.525538 147.670244 
L 213.73837 146.440976 
L 226.082653 146.440976 
L 226.295486 145.826341 
L 233.106124 145.826341 
L 233.318957 145.211707 
L 235.872946 145.211707 
L 236.085779 142.138537 
L 239.278266 142.138537 
L 239.491098 141.523902 
L 243.10925 141.523902 
L 243.322082 140.294634 
L 248.004396 140.294634 
L 248.217229 139.68 
L 249.068559 139.68 
L 249.281391 139.065366 
L 250.558386 139.065366 
L 250.771218 133.533659 
L 275.459784 133.533659 
L 275.672616 130.460488 
L 291.422218 130.460488 
L 291.635051 129.845854 
L 300.148349 129.845854 
L 300.361181 129.23122 
L 316.110783 129.23122 
L 316.323616 128.616585 
L 328.880731 128.616585 
L 329.093563 125.543415 
L 342.714841 125.543415 
L 342.927673 124.92878 
L 346.332993 124.92878 
L 346.545825 124.314146 
L 349.099815 124.314146 
L 349.312647 123.699512 
L 362.50826 123.699512 
L 362.721092 120.626341 
L 364.636584 120.626341 
L 364.849417 118.167805 
L 366.339244 118.167805 
L 366.764909 116.938537 
L 371.872888 116.938537 
L 372.08572 115.709268 
L 374.852542 115.709268 
L 375.065375 114.48 
L 375.916705 114.48 
L 375.916705 114.48 
" clip-path="url(#pea1dfe547b)" style="fill: none; stroke: #b9db57; stroke-width: 1.2; stroke-linecap: round"/>
   </g>
   <g id="line2d_29">
    <path d="M 69.650795 483.260488 
L 69.863628 474.040976 
L 70.289293 472.197073 
L 70.92779 472.197073 
L 71.353455 405.201951 
L 71.77912 380.616585 
L 71.991953 379.387317 
L 73.056115 368.323902 
L 73.268947 366.48 
L 73.48178 361.562927 
L 73.694612 360.948293 
L 74.33311 357.875122 
L 74.545942 351.72878 
L 74.971607 351.72878 
L 75.397272 345.582439 
L 75.610104 344.967805 
L 75.822937 344.967805 
L 76.035769 340.665366 
L 76.248602 340.665366 
L 76.461434 336.362927 
L 76.674267 334.519024 
L 76.887099 333.90439 
L 77.312764 326.52878 
L 77.525596 325.914146 
L 78.376926 325.914146 
L 78.589759 313.621463 
L 79.228256 313.621463 
L 79.441089 306.245854 
L 79.653921 306.245854 
L 79.866754 305.016585 
L 80.505251 305.016585 
L 80.718083 302.558049 
L 81.569413 302.558049 
L 81.782246 300.714146 
L 82.633575 300.714146 
L 82.846408 300.099512 
L 83.484905 300.099512 
L 83.697738 298.25561 
L 83.91057 298.25561 
L 84.123403 297.026341 
L 84.974733 297.026341 
L 85.187565 287.806829 
L 85.400397 287.806829 
L 85.826062 286.577561 
L 86.251727 286.577561 
L 86.46456 285.348293 
L 86.677392 285.348293 
L 86.890225 283.50439 
L 87.528722 283.50439 
L 87.741555 281.660488 
L 88.167219 281.660488 
L 88.592884 279.816585 
L 88.805717 279.816585 
L 89.018549 277.972683 
L 89.231382 277.358049 
L 89.869879 277.358049 
L 90.082712 276.743415 
L 90.295544 273.670244 
L 91.359706 273.670244 
L 91.572539 268.138537 
L 91.785371 267.523902 
L 93.700863 267.523902 
L 93.913696 256.460488 
L 94.126528 255.845854 
L 96.467685 255.845854 
L 96.680518 250.92878 
L 96.89335 250.92878 
L 97.106183 249.699512 
L 98.383177 249.699512 
L 98.59601 248.470244 
L 113.28145 248.470244 
L 113.494282 230.645854 
L 118.389429 230.645854 
L 118.602261 223.884878 
L 122.220413 223.884878 
L 122.433245 212.206829 
L 124.987235 212.206829 
L 125.200067 211.592195 
L 143.077994 211.592195 
L 143.290826 183.933659 
L 161.594418 183.933659 
L 161.80725 183.319024 
L 162.020083 169.797073 
L 165.21257 169.797073 
L 165.425402 167.953171 
L 168.192224 167.953171 
L 168.405057 166.723902 
L 175.002863 166.723902 
L 175.215695 164.88 
L 179.259512 164.88 
L 179.472345 164.265366 
L 182.026334 164.265366 
L 182.239166 157.50439 
L 184.793156 157.50439 
L 185.218821 156.275122 
L 187.985643 156.275122 
L 188.198475 155.660488 
L 188.411308 151.972683 
L 204.799407 151.972683 
L 205.01224 147.670244 
L 211.610046 147.670244 
L 211.822878 147.05561 
L 233.106124 147.05561 
L 233.318957 145.826341 
L 246.301737 145.826341 
L 246.514569 140.909268 
L 249.707056 140.909268 
L 249.919889 137.221463 
L 253.325208 137.221463 
L 253.53804 134.762927 
L 263.115501 134.762927 
L 263.328334 134.148293 
L 271.415967 134.148293 
L 271.628799 131.689756 
L 311.428469 131.689756 
L 311.641302 130.460488 
L 321.431595 130.460488 
L 321.644427 129.845854 
L 324.836914 129.845854 
L 325.049747 129.23122 
L 332.711715 129.23122 
L 332.924548 127.387317 
L 338.671024 127.387317 
L 338.883857 126.772683 
L 348.248485 126.772683 
L 348.461317 126.158049 
L 351.440972 126.158049 
L 351.653804 125.543415 
L 358.25161 125.543415 
L 358.464443 124.92878 
L 375.916705 124.92878 
L 375.916705 124.92878 
" clip-path="url(#pea1dfe547b)" style="fill: none; stroke: #57db94; stroke-width: 1.2; stroke-linecap: round"/>
   </g>
   <g id="line2d_30">
    <path d="M 69.650795 480.187317 
L 70.289293 442.08 
L 70.502125 440.236098 
L 70.714958 434.70439 
L 70.92779 432.860488 
L 71.140623 405.201951 
L 71.77912 384.919024 
L 72.843282 379.387317 
L 73.48178 366.48 
L 73.907445 360.948293 
L 74.545942 357.875122 
L 74.758774 357.260488 
L 74.971607 355.416585 
L 75.184439 355.416585 
L 75.397272 354.801951 
L 76.248602 346.197073 
L 76.461434 345.582439 
L 76.674267 343.738537 
L 76.887099 343.738537 
L 77.312764 342.509268 
L 77.525596 341.28 
L 77.951261 337.592195 
L 78.164094 336.977561 
L 78.802591 333.90439 
L 79.015424 333.90439 
L 79.228256 333.289756 
L 80.079586 328.987317 
L 80.292418 328.372683 
L 80.718083 326.52878 
L 81.143748 326.52878 
L 81.569413 323.45561 
L 81.782246 295.182439 
L 83.697738 295.182439 
L 83.91057 294.567805 
L 84.549068 294.567805 
L 84.974733 284.733659 
L 85.187565 284.733659 
L 85.400397 281.660488 
L 85.826062 281.660488 
L 86.251727 280.43122 
L 86.46456 280.43122 
L 86.677392 279.201951 
L 87.103057 279.201951 
L 87.31589 278.587317 
L 87.741555 278.587317 
L 87.954387 277.972683 
L 89.657047 277.972683 
L 89.869879 277.358049 
L 90.295544 277.358049 
L 90.934041 275.514146 
L 91.359706 275.514146 
L 91.572539 273.05561 
L 91.998204 273.05561 
L 92.423869 271.826341 
L 92.849534 271.826341 
L 93.062366 257.075122 
L 93.275198 252.772683 
L 93.488031 252.158049 
L 93.913696 252.158049 
L 94.126528 251.543415 
L 95.190691 251.543415 
L 95.403523 249.084878 
L 95.616356 244.782439 
L 99.234507 244.782439 
L 99.44734 244.167805 
L 99.873005 244.167805 
L 100.085837 243.553171 
L 100.29867 243.553171 
L 100.511502 242.938537 
L 102.214162 242.938537 
L 102.426994 234.333659 
L 102.639827 233.10439 
L 108.173471 233.10439 
L 108.386303 226.343415 
L 110.088963 226.343415 
L 110.301795 225.72878 
L 111.791622 225.72878 
L 112.004455 225.114146 
L 113.707115 225.114146 
L 113.919947 224.499512 
L 114.132779 222.040976 
L 115.409774 222.040976 
L 115.622607 221.426341 
L 116.899601 221.426341 
L 117.112434 220.811707 
L 117.538099 220.811707 
L 117.750931 216.509268 
L 120.730586 216.509268 
L 120.943418 215.894634 
L 121.581916 215.894634 
L 121.794748 214.665366 
L 122.00758 214.665366 
L 122.220413 213.436098 
L 122.646078 213.436098 
L 122.85891 203.601951 
L 124.774402 203.601951 
L 124.987235 202.987317 
L 128.605387 202.987317 
L 129.031052 198.070244 
L 130.095214 198.070244 
L 130.520879 194.382439 
L 132.649203 194.382439 
L 132.862036 193.767805 
L 138.39568 193.767805 
L 138.608512 191.923902 
L 138.821345 185.777561 
L 139.459842 185.777561 
L 139.885507 180.245854 
L 140.09834 175.32878 
L 142.865161 175.32878 
L 143.077994 172.870244 
L 146.696146 172.870244 
L 146.908978 171.640976 
L 148.611638 171.640976 
L 148.82447 171.026341 
L 149.037303 171.026341 
L 149.250135 170.411707 
L 151.37846 170.411707 
L 151.591292 169.797073 
L 152.016957 169.797073 
L 152.22979 169.182439 
L 154.570947 169.182439 
L 154.783779 166.723902 
L 159.678926 166.723902 
L 159.891758 166.109268 
L 160.104591 166.109268 
L 160.317423 165.494634 
L 160.955921 165.494634 
L 161.168753 159.962927 
L 161.381585 159.348293 
L 162.445748 159.348293 
L 162.65858 158.733659 
L 163.935575 158.733659 
L 164.148407 158.119024 
L 166.0639 158.119024 
L 166.276732 155.660488 
L 168.830722 155.660488 
L 169.043554 154.43122 
L 169.256386 154.43122 
L 169.469219 153.816585 
L 175.64136 153.816585 
L 175.854193 153.201951 
L 177.556852 153.201951 
L 177.769685 152.587317 
L 179.685177 152.587317 
L 179.898009 151.972683 
L 180.110842 150.12878 
L 181.387837 150.12878 
L 181.600669 148.284878 
L 182.026334 142.753171 
L 182.239166 141.523902 
L 185.005988 141.523902 
L 185.218821 140.909268 
L 185.431653 140.909268 
L 185.644486 138.450732 
L 190.752465 138.450732 
L 190.965297 137.836098 
L 192.242292 137.836098 
L 192.667957 135.992195 
L 193.093622 134.762927 
L 200.968423 134.762927 
L 201.181255 133.533659 
L 201.819753 133.533659 
L 202.032585 132.919024 
L 207.991894 132.919024 
L 208.204727 132.30439 
L 228.42381 132.30439 
L 228.636643 131.689756 
L 231.190632 131.689756 
L 231.616297 130.460488 
L 234.595951 130.460488 
L 234.808784 129.845854 
L 235.021616 129.845854 
L 235.234449 128.001951 
L 235.447281 128.001951 
L 235.660114 127.387317 
L 240.342428 127.387317 
L 240.55526 126.158049 
L 241.832255 126.158049 
L 242.045088 125.543415 
L 247.791564 125.543415 
L 248.217229 124.314146 
L 248.430061 122.470244 
L 248.642894 121.85561 
L 258.007522 121.85561 
L 258.220354 119.397073 
L 265.456658 119.397073 
L 265.669491 118.782439 
L 265.882323 118.782439 
L 266.095155 118.167805 
L 268.22348 118.167805 
L 268.436313 117.553171 
L 270.351805 117.553171 
L 270.564637 116.938537 
L 276.523946 116.938537 
L 276.736778 116.323902 
L 299.722684 116.323902 
L 299.935517 115.709268 
L 307.810318 115.709268 
L 308.02315 115.094634 
L 309.512977 115.094634 
L 309.72581 114.48 
L 309.938642 114.48 
L 310.151475 113.865366 
L 317.813443 113.865366 
L 318.239108 112.636098 
L 321.218762 112.636098 
L 321.644427 111.406829 
L 322.70859 111.406829 
L 322.921422 110.792195 
L 327.390904 110.792195 
L 327.603736 110.177561 
L 329.519228 110.177561 
L 329.732061 109.562927 
L 337.394029 109.562927 
L 337.606862 108.948293 
L 345.481663 108.948293 
L 345.694495 108.333659 
L 350.802474 108.333659 
L 351.015307 107.719024 
L 356.123286 107.719024 
L 356.336118 107.10439 
L 362.295427 107.10439 
L 362.50826 104.645854 
L 362.721092 104.03122 
L 362.933925 104.03122 
L 363.146757 103.416585 
L 363.572422 103.416585 
L 363.998087 102.187317 
L 364.210919 102.187317 
L 364.423752 101.572683 
L 366.764909 101.572683 
L 366.977741 100.343415 
L 369.106066 100.343415 
L 369.318898 99.72878 
L 369.957396 99.72878 
L 370.170228 99.114146 
L 373.149883 99.114146 
L 373.362715 97.884878 
L 374.214045 97.884878 
L 374.426877 97.270244 
L 375.703872 97.270244 
L 375.916705 96.040976 
L 375.916705 96.040976 
" clip-path="url(#pea1dfe547b)" style="fill: none; stroke: #5784db; stroke-width: 1.2; stroke-linecap: round"/>
   </g>
   <g id="line2d_31">
    <path d="M 69.650795 479.88 
L 69.863628 453.758049 
L 70.502125 436.548293 
L 70.92779 428.558049 
L 71.140623 401.514146 
L 71.353455 393.523902 
L 71.566288 378.158049 
L 71.991953 370.782439 
L 72.63045 364.021463 
L 72.843282 364.021463 
L 73.907445 349.884878 
L 74.33311 346.197073 
L 74.545942 345.582439 
L 74.758774 345.582439 
L 74.971607 342.509268 
L 75.184439 341.894634 
L 76.035769 333.289756 
L 76.461434 330.216585 
L 76.674267 325.299512 
L 76.887099 323.45561 
L 77.099932 322.840976 
L 77.525596 314.236098 
L 77.738429 311.777561 
L 77.951261 311.162927 
L 78.802591 306.860488 
L 79.015424 306.860488 
L 79.228256 306.245854 
L 79.441089 299.484878 
L 80.718083 295.797073 
L 81.143748 295.797073 
L 81.356581 295.182439 
L 81.569413 295.182439 
L 81.782246 293.953171 
L 82.633575 293.953171 
L 82.846408 293.338537 
L 83.272073 293.338537 
L 83.91057 290.265366 
L 84.336235 290.265366 
L 84.549068 289.036098 
L 84.974733 279.816585 
L 85.400397 279.816585 
L 86.251727 277.358049 
L 86.46456 277.358049 
L 86.890225 275.514146 
L 87.103057 275.514146 
L 87.31589 273.670244 
L 87.741555 273.670244 
L 87.954387 273.05561 
L 88.167219 273.05561 
L 88.592884 271.211707 
L 88.805717 271.211707 
L 89.231382 268.138537 
L 89.444214 268.138537 
L 89.869879 266.909268 
L 90.508376 263.836098 
L 90.721209 263.221463 
L 91.146874 261.377561 
L 91.359706 261.377561 
L 91.572539 258.919024 
L 91.998204 258.919024 
L 92.423869 257.689756 
L 92.849534 257.689756 
L 93.488031 247.85561 
L 93.913696 247.85561 
L 94.339361 246.626341 
L 95.190691 246.626341 
L 95.403523 243.553171 
L 95.616356 242.323902 
L 96.04202 242.323902 
L 96.254853 241.709268 
L 96.467685 241.709268 
L 96.680518 241.094634 
L 96.89335 241.094634 
L 97.106183 239.865366 
L 97.319015 239.865366 
L 97.531848 239.250732 
L 97.74468 239.250732 
L 97.957513 238.636098 
L 98.59601 238.636098 
L 98.808842 238.021463 
L 99.021675 238.021463 
L 99.234507 236.177561 
L 99.44734 235.562927 
L 99.873005 235.562927 
L 100.085837 234.948293 
L 100.29867 234.948293 
L 100.511502 234.333659 
L 101.362832 234.333659 
L 101.788497 232.489756 
L 102.214162 232.489756 
L 102.426994 231.875122 
L 102.852659 230.03122 
L 105.406649 230.03122 
L 105.832314 228.801951 
L 106.045146 223.884878 
L 106.257978 223.270244 
L 109.0248 223.270244 
L 109.237633 222.65561 
L 110.088963 222.65561 
L 110.301795 222.040976 
L 110.940293 222.040976 
L 111.153125 221.426341 
L 112.642952 221.426341 
L 113.068617 219.582439 
L 113.707115 219.582439 
L 113.919947 218.967805 
L 115.409774 218.967805 
L 115.622607 218.353171 
L 115.835439 218.353171 
L 116.048272 217.738537 
L 116.686769 217.738537 
L 116.899601 217.123902 
L 117.112434 214.050732 
L 117.325266 214.050732 
L 117.538099 213.436098 
L 117.750931 213.436098 
L 117.963764 212.821463 
L 118.389429 212.821463 
L 118.602261 212.206829 
L 119.879256 212.206829 
L 120.092088 210.977561 
L 120.517753 210.977561 
L 120.943418 209.748293 
L 121.794748 204.216585 
L 122.220413 199.914146 
L 124.774402 199.914146 
L 124.987235 199.299512 
L 126.26423 199.299512 
L 126.477062 198.070244 
L 127.541224 198.070244 
L 127.754057 197.45561 
L 128.605387 197.45561 
L 128.818219 194.382439 
L 130.095214 194.382439 
L 130.308046 191.309268 
L 130.520879 190.08 
L 130.733711 190.08 
L 131.159376 188.850732 
L 131.797874 188.850732 
L 132.436371 185.777561 
L 132.862036 184.548293 
L 136.054523 184.548293 
L 136.267355 183.933659 
L 136.905853 183.933659 
L 137.118685 183.319024 
L 138.39568 183.319024 
L 138.608512 180.860488 
L 139.459842 180.860488 
L 139.885507 175.32878 
L 140.09834 170.411707 
L 140.736837 170.411707 
L 141.162502 169.182439 
L 142.013832 169.182439 
L 142.226664 168.567805 
L 142.865161 168.567805 
L 143.077994 167.953171 
L 146.270481 167.953171 
L 146.483313 167.338537 
L 146.696146 167.338537 
L 146.908978 166.109268 
L 148.611638 166.109268 
L 148.82447 165.494634 
L 149.037303 165.494634 
L 149.250135 164.88 
L 151.804125 164.88 
L 152.22979 163.650732 
L 152.868287 163.650732 
L 153.08112 163.036098 
L 154.570947 163.036098 
L 154.783779 161.806829 
L 156.273606 161.806829 
L 156.699271 160.577561 
L 156.912104 160.577561 
L 157.124936 159.962927 
L 158.189099 159.962927 
L 158.401931 158.733659 
L 159.466093 158.733659 
L 159.891758 156.889756 
L 160.317423 156.889756 
L 160.530256 156.275122 
L 160.955921 156.275122 
L 161.381585 153.201951 
L 162.020083 153.201951 
L 162.232915 152.587317 
L 162.445748 152.587317 
L 162.65858 151.972683 
L 163.935575 151.972683 
L 164.148407 151.358049 
L 165.851067 151.358049 
L 166.0639 150.743415 
L 167.553727 150.743415 
L 167.766559 150.12878 
L 168.830722 150.12878 
L 169.043554 149.514146 
L 169.256386 149.514146 
L 169.469219 148.899512 
L 172.236041 148.899512 
L 172.448873 148.284878 
L 175.64136 148.284878 
L 175.854193 147.670244 
L 179.685177 147.670244 
L 179.898009 147.05561 
L 180.110842 145.211707 
L 181.387837 145.211707 
L 181.600669 143.367805 
L 182.026334 137.836098 
L 182.239166 136.606829 
L 184.793156 136.606829 
L 185.218821 135.377561 
L 185.431653 135.377561 
L 185.644486 132.919024 
L 186.282983 132.919024 
L 186.495816 131.689756 
L 189.262638 131.689756 
L 189.47547 131.075122 
L 190.752465 131.075122 
L 190.965297 130.460488 
L 192.455125 130.460488 
L 193.093622 128.616585 
L 195.221947 128.616585 
L 195.434779 127.387317 
L 201.819753 127.387317 
L 202.032585 126.772683 
L 207.991894 126.772683 
L 208.204727 126.158049 
L 226.082653 126.158049 
L 226.295486 125.543415 
L 231.190632 125.543415 
L 231.616297 124.314146 
L 234.595951 124.314146 
L 234.808784 123.699512 
L 235.021616 123.699512 
L 235.234449 121.85561 
L 235.447281 121.85561 
L 235.660114 121.240976 
L 237.362773 121.240976 
L 237.575606 120.626341 
L 240.342428 120.626341 
L 240.55526 120.011707 
L 241.832255 120.011707 
L 242.045088 119.397073 
L 247.791564 119.397073 
L 248.217229 118.167805 
L 248.430061 116.323902 
L 248.642894 115.709268 
L 249.707056 115.709268 
L 250.132721 114.48 
L 250.345553 113.250732 
L 262.902669 113.250732 
L 263.115501 112.636098 
L 265.456658 112.636098 
L 265.669491 112.021463 
L 265.882323 112.021463 
L 266.095155 111.406829 
L 267.797815 111.406829 
L 268.010648 110.792195 
L 270.351805 110.792195 
L 270.564637 110.177561 
L 299.722684 110.177561 
L 299.935517 109.562927 
L 306.32049 109.562927 
L 306.533323 108.948293 
L 307.810318 108.948293 
L 308.02315 108.333659 
L 309.938642 108.333659 
L 310.151475 107.719024 
L 317.813443 107.719024 
L 318.239108 106.489756 
L 321.218762 106.489756 
L 321.644427 105.260488 
L 322.70859 105.260488 
L 322.921422 104.645854 
L 325.688244 104.645854 
L 325.901077 103.416585 
L 328.029401 103.416585 
L 328.242234 102.801951 
L 335.69137 102.801951 
L 335.904202 102.187317 
L 345.481663 102.187317 
L 345.694495 101.572683 
L 349.099815 101.572683 
L 349.312647 100.958049 
L 356.123286 100.958049 
L 356.336118 100.343415 
L 362.295427 100.343415 
L 362.50826 97.884878 
L 362.721092 97.270244 
L 362.933925 97.270244 
L 363.146757 96.040976 
L 363.572422 96.040976 
L 363.998087 94.811707 
L 366.339244 94.811707 
L 366.552076 93.582439 
L 368.893233 93.582439 
L 369.106066 92.967805 
L 369.957396 92.967805 
L 370.170228 92.353171 
L 373.149883 92.353171 
L 373.362715 91.123902 
L 374.214045 91.123902 
L 374.426877 90.509268 
L 375.703872 90.509268 
L 375.916705 89.28 
L 375.916705 89.28 
" clip-path="url(#pea1dfe547b)" style="fill: none; stroke: #c957db; stroke-width: 1.2; stroke-linecap: round"/>
   </g>
   <g id="line2d_32"/>
   <g id="line2d_33"/>
   <g id="line2d_34"/>
   <g id="line2d_35"/>
   <g id="line2d_36"/>
   <g id="patch_3">
    <path d="M 54.3375 512.64 
L 54.3375 69.12 
" style="fill: none; stroke: #cccccc; stroke-linejoin: miter; stroke-linecap: square"/>
   </g>
   <g id="patch_4">
    <path d="M 54.3375 512.64 
L 391.23 512.64 
" style="fill: none; stroke: #cccccc; stroke-linejoin: miter; stroke-linecap: square"/>
   </g>
   <g id="text_29">
    <!-- Edge Coverage History -->
    <g style="fill: #262626" transform="translate(115.892262 63.12)scale(0.165888 -0.165888)">
     <defs>
      <path id="DejaVuSans-Bold-45" d="M 588 4666 
L 3834 4666 
L 3834 3756 
L 1791 3756 
L 1791 2888 
L 3713 2888 
L 3713 1978 
L 1791 1978 
L 1791 909 
L 3903 909 
L 3903 0 
L 588 0 
L 588 4666 
z
" transform="scale(0.015625)"/>
      <path id="DejaVuSans-Bold-64" d="M 2919 2988 
L 2919 4863 
L 4044 4863 
L 4044 0 
L 2919 0 
L 2919 506 
Q 2688 197 2409 53 
Q 2131 -91 1766 -91 
Q 1119 -91 703 423 
Q 288 938 288 1747 
Q 288 2556 703 3070 
Q 1119 3584 1766 3584 
Q 2128 3584 2408 3439 
Q 2688 3294 2919 2988 
z
M 2181 722 
Q 2541 722 2730 984 
Q 2919 1247 2919 1747 
Q 2919 2247 2730 2509 
Q 2541 2772 2181 2772 
Q 1825 2772 1636 2509 
Q 1447 2247 1447 1747 
Q 1447 1247 1636 984 
Q 1825 722 2181 722 
z
" transform="scale(0.015625)"/>
      <path id="DejaVuSans-Bold-67" d="M 2919 594 
Q 2688 288 2409 144 
Q 2131 0 1766 0 
Q 1125 0 706 504 
Q 288 1009 288 1791 
Q 288 2575 706 3076 
Q 1125 3578 1766 3578 
Q 2131 3578 2409 3434 
Q 2688 3291 2919 2981 
L 2919 3500 
L 4044 3500 
L 4044 353 
Q 4044 -491 3511 -936 
Q 2978 -1381 1966 -1381 
Q 1638 -1381 1331 -1331 
Q 1025 -1281 716 -1178 
L 716 -306 
Q 1009 -475 1290 -558 
Q 1572 -641 1856 -641 
Q 2406 -641 2662 -400 
Q 2919 -159 2919 353 
L 2919 594 
z
M 2181 2772 
Q 1834 2772 1640 2515 
Q 1447 2259 1447 1791 
Q 1447 1309 1634 1061 
Q 1822 813 2181 813 
Q 2531 813 2725 1069 
Q 2919 1325 2919 1791 
Q 2919 2259 2725 2515 
Q 2531 2772 2181 2772 
z
" transform="scale(0.015625)"/>
      <path id="DejaVuSans-Bold-65" d="M 4031 1759 
L 4031 1441 
L 1416 1441 
Q 1456 1047 1700 850 
Q 1944 653 2381 653 
Q 2734 653 3104 758 
Q 3475 863 3866 1075 
L 3866 213 
Q 3469 63 3072 -14 
Q 2675 -91 2278 -91 
Q 1328 -91 801 392 
Q 275 875 275 1747 
Q 275 2603 792 3093 
Q 1309 3584 2216 3584 
Q 3041 3584 3536 3087 
Q 4031 2591 4031 1759 
z
M 2881 2131 
Q 2881 2450 2695 2645 
Q 2509 2841 2209 2841 
Q 1884 2841 1681 2658 
Q 1478 2475 1428 2131 
L 2881 2131 
z
" transform="scale(0.015625)"/>
      <path id="DejaVuSans-Bold-20" transform="scale(0.015625)"/>
      <path id="DejaVuSans-Bold-43" d="M 4288 256 
Q 3956 84 3597 -3 
Q 3238 -91 2847 -91 
Q 1681 -91 1000 561 
Q 319 1213 319 2328 
Q 319 3447 1000 4098 
Q 1681 4750 2847 4750 
Q 3238 4750 3597 4662 
Q 3956 4575 4288 4403 
L 4288 3438 
Q 3953 3666 3628 3772 
Q 3303 3878 2944 3878 
Q 2300 3878 1931 3465 
Q 1563 3053 1563 2328 
Q 1563 1606 1931 1193 
Q 2300 781 2944 781 
Q 3303 781 3628 887 
Q 3953 994 4288 1222 
L 4288 256 
z
" transform="scale(0.015625)"/>
      <path id="DejaVuSans-Bold-6f" d="M 2203 2784 
Q 1831 2784 1636 2517 
Q 1441 2250 1441 1747 
Q 1441 1244 1636 976 
Q 1831 709 2203 709 
Q 2569 709 2762 976 
Q 2956 1244 2956 1747 
Q 2956 2250 2762 2517 
Q 2569 2784 2203 2784 
z
M 2203 3584 
Q 3106 3584 3614 3096 
Q 4122 2609 4122 1747 
Q 4122 884 3614 396 
Q 3106 -91 2203 -91 
Q 1297 -91 786 396 
Q 275 884 275 1747 
Q 275 2609 786 3096 
Q 1297 3584 2203 3584 
z
" transform="scale(0.015625)"/>
      <path id="DejaVuSans-Bold-76" d="M 97 3500 
L 1216 3500 
L 2088 1081 
L 2956 3500 
L 4078 3500 
L 2700 0 
L 1472 0 
L 97 3500 
z
" transform="scale(0.015625)"/>
      <path id="DejaVuSans-Bold-72" d="M 3138 2547 
Q 2991 2616 2845 2648 
Q 2700 2681 2553 2681 
Q 2122 2681 1889 2404 
Q 1656 2128 1656 1613 
L 1656 0 
L 538 0 
L 538 3500 
L 1656 3500 
L 1656 2925 
Q 1872 3269 2151 3426 
Q 2431 3584 2822 3584 
Q 2878 3584 2943 3579 
Q 3009 3575 3134 3559 
L 3138 2547 
z
" transform="scale(0.015625)"/>
      <path id="DejaVuSans-Bold-61" d="M 2106 1575 
Q 1756 1575 1579 1456 
Q 1403 1338 1403 1106 
Q 1403 894 1545 773 
Q 1688 653 1941 653 
Q 2256 653 2472 879 
Q 2688 1106 2688 1447 
L 2688 1575 
L 2106 1575 
z
M 3816 1997 
L 3816 0 
L 2688 0 
L 2688 519 
Q 2463 200 2181 54 
Q 1900 -91 1497 -91 
Q 953 -91 614 226 
Q 275 544 275 1050 
Q 275 1666 698 1953 
Q 1122 2241 2028 2241 
L 2688 2241 
L 2688 2328 
Q 2688 2594 2478 2717 
Q 2269 2841 1825 2841 
Q 1466 2841 1156 2769 
Q 847 2697 581 2553 
L 581 3406 
Q 941 3494 1303 3539 
Q 1666 3584 2028 3584 
Q 2975 3584 3395 3211 
Q 3816 2838 3816 1997 
z
" transform="scale(0.015625)"/>
      <path id="DejaVuSans-Bold-48" d="M 588 4666 
L 1791 4666 
L 1791 2888 
L 3566 2888 
L 3566 4666 
L 4769 4666 
L 4769 0 
L 3566 0 
L 3566 1978 
L 1791 1978 
L 1791 0 
L 588 0 
L 588 4666 
z
" transform="scale(0.015625)"/>
      <path id="DejaVuSans-Bold-69" d="M 538 3500 
L 1656 3500 
L 1656 0 
L 538 0 
L 538 3500 
z
M 538 4863 
L 1656 4863 
L 1656 3950 
L 538 3950 
L 538 4863 
z
" transform="scale(0.015625)"/>
      <path id="DejaVuSans-Bold-73" d="M 3272 3391 
L 3272 2541 
Q 2913 2691 2578 2766 
Q 2244 2841 1947 2841 
Q 1628 2841 1473 2761 
Q 1319 2681 1319 2516 
Q 1319 2381 1436 2309 
Q 1553 2238 1856 2203 
L 2053 2175 
Q 2913 2066 3209 1816 
Q 3506 1566 3506 1031 
Q 3506 472 3093 190 
Q 2681 -91 1863 -91 
Q 1516 -91 1145 -36 
Q 775 19 384 128 
L 384 978 
Q 719 816 1070 734 
Q 1422 653 1784 653 
Q 2113 653 2278 743 
Q 2444 834 2444 1013 
Q 2444 1163 2330 1236 
Q 2216 1309 1875 1350 
L 1678 1375 
Q 931 1469 631 1722 
Q 331 1975 331 2491 
Q 331 3047 712 3315 
Q 1094 3584 1881 3584 
Q 2191 3584 2531 3537 
Q 2872 3491 3272 3391 
z
" transform="scale(0.015625)"/>
      <path id="DejaVuSans-Bold-74" d="M 1759 4494 
L 1759 3500 
L 2913 3500 
L 2913 2700 
L 1759 2700 
L 1759 1216 
Q 1759 972 1856 886 
Q 1953 800 2241 800 
L 2816 800 
L 2816 0 
L 1856 0 
Q 1194 0 917 276 
Q 641 553 641 1216 
L 641 2700 
L 84 2700 
L 84 3500 
L 641 3500 
L 641 4494 
L 1759 4494 
z
" transform="scale(0.015625)"/>
      <path id="DejaVuSans-Bold-79" d="M 78 3500 
L 1197 3500 
L 2138 1125 
L 2938 3500 
L 4056 3500 
L 2584 -331 
Q 2363 -916 2067 -1148 
Q 1772 -1381 1288 -1381 
L 641 -1381 
L 641 -647 
L 991 -647 
Q 1275 -647 1404 -556 
Q 1534 -466 1606 -231 
L 1638 -134 
L 78 3500 
z
" transform="scale(0.015625)"/>
     </defs>
     <use xlink:href="#DejaVuSans-Bold-45"/>
     <use xlink:href="#DejaVuSans-Bold-64" x="68.310547"/>
     <use xlink:href="#DejaVuSans-Bold-67" x="139.892578"/>
     <use xlink:href="#DejaVuSans-Bold-65" x="211.474609"/>
     <use xlink:href="#DejaVuSans-Bold-20" x="279.296875"/>
     <use xlink:href="#DejaVuSans-Bold-43" x="314.111328"/>
     <use xlink:href="#DejaVuSans-Bold-6f" x="387.5"/>
     <use xlink:href="#DejaVuSans-Bold-76" x="456.201172"/>
     <use xlink:href="#DejaVuSans-Bold-65" x="521.386719"/>
     <use xlink:href="#DejaVuSans-Bold-72" x="589.208984"/>
     <use xlink:href="#DejaVuSans-Bold-61" x="638.525391"/>
     <use xlink:href="#DejaVuSans-Bold-67" x="706.005859"/>
     <use xlink:href="#DejaVuSans-Bold-65" x="777.587891"/>
     <use xlink:href="#DejaVuSans-Bold-20" x="845.410156"/>
     <use xlink:href="#DejaVuSans-Bold-48" x="880.224609"/>
     <use xlink:href="#DejaVuSans-Bold-69" x="963.916016"/>
     <use xlink:href="#DejaVuSans-Bold-73" x="998.193359"/>
     <use xlink:href="#DejaVuSans-Bold-74" x="1057.714844"/>
     <use xlink:href="#DejaVuSans-Bold-6f" x="1105.517578"/>
     <use xlink:href="#DejaVuSans-Bold-72" x="1174.21875"/>
     <use xlink:href="#DejaVuSans-Bold-79" x="1223.535156"/>
    </g>
   </g>
   <g id="legend_1">
    <g id="patch_5">
     <path d="M 267.942 508.24 
L 385.07 508.24 
Q 386.83 508.24 386.83 506.48 
L 386.83 428.8405 
Q 386.83 427.0805 385.07 427.0805 
L 267.942 427.0805 
Q 266.182 427.0805 266.182 428.8405 
L 266.182 506.48 
Q 266.182 508.24 267.942 508.24 
z
" style="fill: #ffffff; opacity: 0.8; stroke: #cccccc; stroke-width: 0.8; stroke-linejoin: miter"/>
    </g>
    <g id="text_30">
     <!-- fuzzer -->
     <g style="fill: #262626" transform="translate(311.809 437.895)scale(0.096 -0.096)">
      <defs>
       <path id="DejaVuSans-66" d="M 2375 4863 
L 2375 4384 
L 1825 4384 
Q 1516 4384 1395 4259 
Q 1275 4134 1275 3809 
L 1275 3500 
L 2222 3500 
L 2222 3053 
L 1275 3053 
L 1275 0 
L 697 0 
L 697 3053 
L 147 3053 
L 147 3500 
L 697 3500 
L 697 3744 
Q 697 4328 969 4595 
Q 1241 4863 1831 4863 
L 2375 4863 
z
" transform="scale(0.015625)"/>
       <path id="DejaVuSans-7a" d="M 353 3500 
L 3084 3500 
L 3084 2975 
L 922 459 
L 3084 459 
L 3084 0 
L 275 0 
L 275 525 
L 2438 3041 
L 353 3041 
L 353 3500 
z
" transform="scale(0.015625)"/>
      </defs>
      <use xlink:href="#DejaVuSans-66"/>
      <use xlink:href="#DejaVuSans-75" x="35.205078"/>
      <use xlink:href="#DejaVuSans-7a" x="98.583984"/>
      <use xlink:href="#DejaVuSans-7a" x="151.074219"/>
      <use xlink:href="#DejaVuSans-65" x="203.564453"/>
      <use xlink:href="#DejaVuSans-72" x="265.087891"/>
     </g>
    </g>
    <g id="line2d_37">
     <path d="M 269.702 447.898125 
L 278.502 447.898125 
L 287.302 447.898125 
" style="fill: none; stroke: #db5f57; stroke-width: 1.2; stroke-linecap: round"/>
    </g>
    <g id="text_31">
     <!-- afl-0-exid22 -->
     <g style="fill: #262626" transform="translate(294.342 450.978125)scale(0.088 -0.088)">
      <defs>
       <path id="DejaVuSans-6c" d="M 603 4863 
L 1178 4863 
L 1178 0 
L 603 0 
L 603 4863 
z
" transform="scale(0.015625)"/>
       <path id="DejaVuSans-2d" d="M 313 2009 
L 1997 2009 
L 1997 1497 
L 313 1497 
L 313 2009 
z
" transform="scale(0.015625)"/>
       <path id="DejaVuSans-78" d="M 3513 3500 
L 2247 1797 
L 3578 0 
L 2900 0 
L 1881 1375 
L 863 0 
L 184 0 
L 1544 1831 
L 300 3500 
L 978 3500 
L 1906 2253 
L 2834 3500 
L 3513 3500 
z
" transform="scale(0.015625)"/>
      </defs>
      <use xlink:href="#DejaVuSans-61"/>
      <use xlink:href="#DejaVuSans-66" x="61.279297"/>
      <use xlink:href="#DejaVuSans-6c" x="96.484375"/>
      <use xlink:href="#DejaVuSans-2d" x="124.267578"/>
      <use xlink:href="#DejaVuSans-30" x="160.351562"/>
      <use xlink:href="#DejaVuSans-2d" x="223.974609"/>
      <use xlink:href="#DejaVuSans-65" x="260.058594"/>
      <use xlink:href="#DejaVuSans-78" x="319.832031"/>
      <use xlink:href="#DejaVuSans-69" x="379.011719"/>
      <use xlink:href="#DejaVuSans-64" x="406.794922"/>
      <use xlink:href="#DejaVuSans-32" x="470.271484"/>
      <use xlink:href="#DejaVuSans-32" x="533.894531"/>
     </g>
    </g>
    <g id="line2d_38">
     <path d="M 269.702 460.814875 
L 278.502 460.814875 
L 287.302 460.814875 
" style="fill: none; stroke: #b9db57; stroke-width: 1.2; stroke-linecap: round"/>
    </g>
    <g id="text_32">
     <!-- aflfast-0-exid22 -->
     <g style="fill: #262626" transform="translate(294.342 463.894875)scale(0.088 -0.088)">
      <use xlink:href="#DejaVuSans-61"/>
      <use xlink:href="#DejaVuSans-66" x="61.279297"/>
      <use xlink:href="#DejaVuSans-6c" x="96.484375"/>
      <use xlink:href="#DejaVuSans-66" x="124.267578"/>
      <use xlink:href="#DejaVuSans-61" x="159.472656"/>
      <use xlink:href="#DejaVuSans-73" x="220.751953"/>
      <use xlink:href="#DejaVuSans-74" x="272.851562"/>
      <use xlink:href="#DejaVuSans-2d" x="312.060547"/>
      <use xlink:href="#DejaVuSans-30" x="348.144531"/>
      <use xlink:href="#DejaVuSans-2d" x="411.767578"/>
      <use xlink:href="#DejaVuSans-65" x="447.851562"/>
      <use xlink:href="#DejaVuSans-78" x="507.625"/>
      <use xlink:href="#DejaVuSans-69" x="566.804688"/>
      <use xlink:href="#DejaVuSans-64" x="594.587891"/>
      <use xlink:href="#DejaVuSans-32" x="658.064453"/>
      <use xlink:href="#DejaVuSans-32" x="721.6875"/>
     </g>
    </g>
    <g id="line2d_39">
     <path d="M 269.702 473.731625 
L 278.502 473.731625 
L 287.302 473.731625 
" style="fill: none; stroke: #57db94; stroke-width: 1.2; stroke-linecap: round"/>
    </g>
    <g id="text_33">
     <!-- aflplusplus-0-exid22 -->
     <g style="fill: #262626" transform="translate(294.342 476.811625)scale(0.088 -0.088)">
      <defs>
       <path id="DejaVuSans-70" d="M 1159 525 
L 1159 -1331 
L 581 -1331 
L 581 3500 
L 1159 3500 
L 1159 2969 
Q 1341 3281 1617 3432 
Q 1894 3584 2278 3584 
Q 2916 3584 3314 3078 
Q 3713 2572 3713 1747 
Q 3713 922 3314 415 
Q 2916 -91 2278 -91 
Q 1894 -91 1617 61 
Q 1341 213 1159 525 
z
M 3116 1747 
Q 3116 2381 2855 2742 
Q 2594 3103 2138 3103 
Q 1681 3103 1420 2742 
Q 1159 2381 1159 1747 
Q 1159 1113 1420 752 
Q 1681 391 2138 391 
Q 2594 391 2855 752 
Q 3116 1113 3116 1747 
z
" transform="scale(0.015625)"/>
      </defs>
      <use xlink:href="#DejaVuSans-61"/>
      <use xlink:href="#DejaVuSans-66" x="61.279297"/>
      <use xlink:href="#DejaVuSans-6c" x="96.484375"/>
      <use xlink:href="#DejaVuSans-70" x="124.267578"/>
      <use xlink:href="#DejaVuSans-6c" x="187.744141"/>
      <use xlink:href="#DejaVuSans-75" x="215.527344"/>
      <use xlink:href="#DejaVuSans-73" x="278.90625"/>
      <use xlink:href="#DejaVuSans-70" x="331.005859"/>
      <use xlink:href="#DejaVuSans-6c" x="394.482422"/>
      <use xlink:href="#DejaVuSans-75" x="422.265625"/>
      <use xlink:href="#DejaVuSans-73" x="485.644531"/>
      <use xlink:href="#DejaVuSans-2d" x="537.744141"/>
      <use xlink:href="#DejaVuSans-30" x="573.828125"/>
      <use xlink:href="#DejaVuSans-2d" x="637.451172"/>
      <use xlink:href="#DejaVuSans-65" x="673.535156"/>
      <use xlink:href="#DejaVuSans-78" x="733.308594"/>
      <use xlink:href="#DejaVuSans-69" x="792.488281"/>
      <use xlink:href="#DejaVuSans-64" x="820.271484"/>
      <use xlink:href="#DejaVuSans-32" x="883.748047"/>
      <use xlink:href="#DejaVuSans-32" x="947.371094"/>
     </g>
    </g>
    <g id="line2d_40">
     <path d="M 269.702 486.648375 
L 278.502 486.648375 
L 287.302 486.648375 
" style="fill: none; stroke: #5784db; stroke-width: 1.2; stroke-linecap: round"/>
    </g>
    <g id="text_34">
     <!-- fairfuzz-0-exid22 -->
     <g style="fill: #262626" transform="translate(294.342 489.728375)scale(0.088 -0.088)">
      <use xlink:href="#DejaVuSans-66"/>
      <use xlink:href="#DejaVuSans-61" x="35.205078"/>
      <use xlink:href="#DejaVuSans-69" x="96.484375"/>
      <use xlink:href="#DejaVuSans-72" x="124.267578"/>
      <use xlink:href="#DejaVuSans-66" x="165.380859"/>
      <use xlink:href="#DejaVuSans-75" x="200.585938"/>
      <use xlink:href="#DejaVuSans-7a" x="263.964844"/>
      <use xlink:href="#DejaVuSans-7a" x="316.455078"/>
      <use xlink:href="#DejaVuSans-2d" x="368.945312"/>
      <use xlink:href="#DejaVuSans-30" x="405.029297"/>
      <use xlink:href="#DejaVuSans-2d" x="468.652344"/>
      <use xlink:href="#DejaVuSans-65" x="504.736328"/>
      <use xlink:href="#DejaVuSans-78" x="564.509766"/>
      <use xlink:href="#DejaVuSans-69" x="623.689453"/>
      <use xlink:href="#DejaVuSans-64" x="651.472656"/>
      <use xlink:href="#DejaVuSans-32" x="714.949219"/>
      <use xlink:href="#DejaVuSans-32" x="778.572266"/>
     </g>
    </g>
    <g id="line2d_41">
     <path d="M 269.702 499.565125 
L 278.502 499.565125 
L 287.302 499.565125 
" style="fill: none; stroke: #c957db; stroke-width: 1.2; stroke-linecap: round"/>
    </g>
    <g id="text_35">
     <!-- fuzzer_global -->
     <g style="fill: #262626" transform="translate(294.342 502.645125)scale(0.088 -0.088)">
      <defs>
       <path id="DejaVuSans-5f" d="M 3263 -1063 
L 3263 -1509 
L -63 -1509 
L -63 -1063 
L 3263 -1063 
z
" transform="scale(0.015625)"/>
       <path id="DejaVuSans-62" d="M 3116 1747 
Q 3116 2381 2855 2742 
Q 2594 3103 2138 3103 
Q 1681 3103 1420 2742 
Q 1159 2381 1159 1747 
Q 1159 1113 1420 752 
Q 1681 391 2138 391 
Q 2594 391 2855 752 
Q 3116 1113 3116 1747 
z
M 1159 2969 
Q 1341 3281 1617 3432 
Q 1894 3584 2278 3584 
Q 2916 3584 3314 3078 
Q 3713 2572 3713 1747 
Q 3713 922 3314 415 
Q 2916 -91 2278 -91 
Q 1894 -91 1617 61 
Q 1341 213 1159 525 
L 1159 0 
L 581 0 
L 581 4863 
L 1159 4863 
L 1159 2969 
z
" transform="scale(0.015625)"/>
      </defs>
      <use xlink:href="#DejaVuSans-66"/>
      <use xlink:href="#DejaVuSans-75" x="35.205078"/>
      <use xlink:href="#DejaVuSans-7a" x="98.583984"/>
      <use xlink:href="#DejaVuSans-7a" x="151.074219"/>
      <use xlink:href="#DejaVuSans-65" x="203.564453"/>
      <use xlink:href="#DejaVuSans-72" x="265.087891"/>
      <use xlink:href="#DejaVuSans-5f" x="306.201172"/>
      <use xlink:href="#DejaVuSans-67" x="356.201172"/>
      <use xlink:href="#DejaVuSans-6c" x="419.677734"/>
      <use xlink:href="#DejaVuSans-6f" x="447.460938"/>
      <use xlink:href="#DejaVuSans-62" x="508.642578"/>
      <use xlink:href="#DejaVuSans-61" x="572.119141"/>
      <use xlink:href="#DejaVuSans-6c" x="633.398438"/>
     </g>
    </g>
   </g>
  </g>
 </g>
 <defs>
  <clipPath id="pea1dfe547b">
   <rect x="54.3375" y="69.12" width="336.8925" height="443.52"/>
  </clipPath>
 </defs>
</svg>
