<?xml version="1.0" encoding="utf-8" standalone="no"?>
<!DOCTYPE svg PUBLIC "-//W3C//DTD SVG 1.1//EN"
  "http://www.w3.org/Graphics/SVG/1.1/DTD/svg11.dtd">
<svg xmlns:xlink="http://www.w3.org/1999/xlink" width="2764.8pt" height="2073.6pt" viewBox="0 0 2764.8 2073.6" xmlns="http://www.w3.org/2000/svg" version="1.1">
 <metadata>
  <rdf:RDF xmlns:dc="http://purl.org/dc/elements/1.1/" xmlns:cc="http://creativecommons.org/ns#" xmlns:rdf="http://www.w3.org/1999/02/22-rdf-syntax-ns#">
   <cc:Work>
    <dc:type rdf:resource="http://purl.org/dc/dcmitype/StillImage"/>
    <dc:date>2022-09-15T05:58:05.995119</dc:date>
    <dc:format>image/svg+xml</dc:format>
    <dc:creator>
     <cc:Agent>
      <dc:title>Matplotlib v3.5.3, https://matplotlib.org/</dc:title>
     </cc:Agent>
    </dc:creator>
   </cc:Work>
  </rdf:RDF>
 </metadata>
 <defs>
  <style type="text/css">*{stroke-linejoin: round; stroke-linecap: butt}</style>
 </defs>
 <g id="figure_1">
  <g id="patch_1">
   <path d="M 0 2073.6 
L 2764.8 2073.6 
L 2764.8 0 
L 0 0 
z
" style="fill: #ffffff"/>
  </g>
  <g id="axes_1">
   <g id="patch_2">
    <path d="M 345.6 1845.504 
L 2488.32 1845.504 
L 2488.32 248.832 
L 345.6 248.832 
z
" style="fill: #ffffff"/>
   </g>
   <g id="matplotlib.axis_1">
    <g id="xtick_1">
     <g id="line2d_1">
      <path d="M 442.996364 1845.504 
L 442.996364 248.832 
" clip-path="url(#pfe060ee556)" style="fill: none; stroke: #cccccc; stroke-linecap: round"/>
     </g>
     <g id="text_1">
      <!-- 0 -->
      <g style="fill: #262626" transform="translate(439.496989 1863.362281)scale(0.11 -0.11)">
       <defs>
        <path id="DejaVuSans-30" d="M 2034 4250 
Q 1547 4250 1301 3770 
Q 1056 3291 1056 2328 
Q 1056 1369 1301 889 
Q 1547 409 2034 409 
Q 2525 409 2770 889 
Q 3016 1369 3016 2328 
Q 3016 3291 2770 3770 
Q 2525 4250 2034 4250 
z
M 2034 4750 
Q 2819 4750 3233 4129 
Q 3647 3509 3647 2328 
Q 3647 1150 3233 529 
Q 2819 -91 2034 -91 
Q 1250 -91 836 529 
Q 422 1150 422 2328 
Q 422 3509 836 4129 
Q 1250 4750 2034 4750 
z
" transform="scale(0.015625)"/>
       </defs>
       <use xlink:href="#DejaVuSans-30"/>
      </g>
     </g>
    </g>
    <g id="xtick_2">
     <g id="line2d_2">
      <path d="M 716.389665 1845.504 
L 716.389665 248.832 
" clip-path="url(#pfe060ee556)" style="fill: none; stroke: #cccccc; stroke-linecap: round"/>
     </g>
     <g id="text_2">
      <!-- 200 -->
      <g style="fill: #262626" transform="translate(705.89154 1863.362281)scale(0.11 -0.11)">
       <defs>
        <path id="DejaVuSans-32" d="M 1228 531 
L 3431 531 
L 3431 0 
L 469 0 
L 469 531 
Q 828 903 1448 1529 
Q 2069 2156 2228 2338 
Q 2531 2678 2651 2914 
Q 2772 3150 2772 3378 
Q 2772 3750 2511 3984 
Q 2250 4219 1831 4219 
Q 1534 4219 1204 4116 
Q 875 4013 500 3803 
L 500 4441 
Q 881 4594 1212 4672 
Q 1544 4750 1819 4750 
Q 2544 4750 2975 4387 
Q 3406 4025 3406 3419 
Q 3406 3131 3298 2873 
Q 3191 2616 2906 2266 
Q 2828 2175 2409 1742 
Q 1991 1309 1228 531 
z
" transform="scale(0.015625)"/>
       </defs>
       <use xlink:href="#DejaVuSans-32"/>
       <use xlink:href="#DejaVuSans-30" x="63.623047"/>
       <use xlink:href="#DejaVuSans-30" x="127.246094"/>
      </g>
     </g>
    </g>
    <g id="xtick_3">
     <g id="line2d_3">
      <path d="M 989.782967 1845.504 
L 989.782967 248.832 
" clip-path="url(#pfe060ee556)" style="fill: none; stroke: #cccccc; stroke-linecap: round"/>
     </g>
     <g id="text_3">
      <!-- 400 -->
      <g style="fill: #262626" transform="translate(979.284842 1863.362281)scale(0.11 -0.11)">
       <defs>
        <path id="DejaVuSans-34" d="M 2419 4116 
L 825 1625 
L 2419 1625 
L 2419 4116 
z
M 2253 4666 
L 3047 4666 
L 3047 1625 
L 3713 1625 
L 3713 1100 
L 3047 1100 
L 3047 0 
L 2419 0 
L 2419 1100 
L 313 1100 
L 313 1709 
L 2253 4666 
z
" transform="scale(0.015625)"/>
       </defs>
       <use xlink:href="#DejaVuSans-34"/>
       <use xlink:href="#DejaVuSans-30" x="63.623047"/>
       <use xlink:href="#DejaVuSans-30" x="127.246094"/>
      </g>
     </g>
    </g>
    <g id="xtick_4">
     <g id="line2d_4">
      <path d="M 1263.176268 1845.504 
L 1263.176268 248.832 
" clip-path="url(#pfe060ee556)" style="fill: none; stroke: #cccccc; stroke-linecap: round"/>
     </g>
     <g id="text_4">
      <!-- 600 -->
      <g style="fill: #262626" transform="translate(1252.678143 1863.362281)scale(0.11 -0.11)">
       <defs>
        <path id="DejaVuSans-36" d="M 2113 2584 
Q 1688 2584 1439 2293 
Q 1191 2003 1191 1497 
Q 1191 994 1439 701 
Q 1688 409 2113 409 
Q 2538 409 2786 701 
Q 3034 994 3034 1497 
Q 3034 2003 2786 2293 
Q 2538 2584 2113 2584 
z
M 3366 4563 
L 3366 3988 
Q 3128 4100 2886 4159 
Q 2644 4219 2406 4219 
Q 1781 4219 1451 3797 
Q 1122 3375 1075 2522 
Q 1259 2794 1537 2939 
Q 1816 3084 2150 3084 
Q 2853 3084 3261 2657 
Q 3669 2231 3669 1497 
Q 3669 778 3244 343 
Q 2819 -91 2113 -91 
Q 1303 -91 875 529 
Q 447 1150 447 2328 
Q 447 3434 972 4092 
Q 1497 4750 2381 4750 
Q 2619 4750 2861 4703 
Q 3103 4656 3366 4563 
z
" transform="scale(0.015625)"/>
       </defs>
       <use xlink:href="#DejaVuSans-36"/>
       <use xlink:href="#DejaVuSans-30" x="63.623047"/>
       <use xlink:href="#DejaVuSans-30" x="127.246094"/>
      </g>
     </g>
    </g>
    <g id="xtick_5">
     <g id="line2d_5">
      <path d="M 1536.569569 1845.504 
L 1536.569569 248.832 
" clip-path="url(#pfe060ee556)" style="fill: none; stroke: #cccccc; stroke-linecap: round"/>
     </g>
     <g id="text_5">
      <!-- 800 -->
      <g style="fill: #262626" transform="translate(1526.071444 1863.362281)scale(0.11 -0.11)">
       <defs>
        <path id="DejaVuSans-38" d="M 2034 2216 
Q 1584 2216 1326 1975 
Q 1069 1734 1069 1313 
Q 1069 891 1326 650 
Q 1584 409 2034 409 
Q 2484 409 2743 651 
Q 3003 894 3003 1313 
Q 3003 1734 2745 1975 
Q 2488 2216 2034 2216 
z
M 1403 2484 
Q 997 2584 770 2862 
Q 544 3141 544 3541 
Q 544 4100 942 4425 
Q 1341 4750 2034 4750 
Q 2731 4750 3128 4425 
Q 3525 4100 3525 3541 
Q 3525 3141 3298 2862 
Q 3072 2584 2669 2484 
Q 3125 2378 3379 2068 
Q 3634 1759 3634 1313 
Q 3634 634 3220 271 
Q 2806 -91 2034 -91 
Q 1263 -91 848 271 
Q 434 634 434 1313 
Q 434 1759 690 2068 
Q 947 2378 1403 2484 
z
M 1172 3481 
Q 1172 3119 1398 2916 
Q 1625 2713 2034 2713 
Q 2441 2713 2670 2916 
Q 2900 3119 2900 3481 
Q 2900 3844 2670 4047 
Q 2441 4250 2034 4250 
Q 1625 4250 1398 4047 
Q 1172 3844 1172 3481 
z
" transform="scale(0.015625)"/>
       </defs>
       <use xlink:href="#DejaVuSans-38"/>
       <use xlink:href="#DejaVuSans-30" x="63.623047"/>
       <use xlink:href="#DejaVuSans-30" x="127.246094"/>
      </g>
     </g>
    </g>
    <g id="xtick_6">
     <g id="line2d_6">
      <path d="M 1809.962871 1845.504 
L 1809.962871 248.832 
" clip-path="url(#pfe060ee556)" style="fill: none; stroke: #cccccc; stroke-linecap: round"/>
     </g>
     <g id="text_6">
      <!-- 1000 -->
      <g style="fill: #262626" transform="translate(1795.965371 1863.362281)scale(0.11 -0.11)">
       <defs>
        <path id="DejaVuSans-31" d="M 794 531 
L 1825 531 
L 1825 4091 
L 703 3866 
L 703 4441 
L 1819 4666 
L 2450 4666 
L 2450 531 
L 3481 531 
L 3481 0 
L 794 0 
L 794 531 
z
" transform="scale(0.015625)"/>
       </defs>
       <use xlink:href="#DejaVuSans-31"/>
       <use xlink:href="#DejaVuSans-30" x="63.623047"/>
       <use xlink:href="#DejaVuSans-30" x="127.246094"/>
       <use xlink:href="#DejaVuSans-30" x="190.869141"/>
      </g>
     </g>
    </g>
    <g id="xtick_7">
     <g id="line2d_7">
      <path d="M 2083.356172 1845.504 
L 2083.356172 248.832 
" clip-path="url(#pfe060ee556)" style="fill: none; stroke: #cccccc; stroke-linecap: round"/>
     </g>
     <g id="text_7">
      <!-- 1200 -->
      <g style="fill: #262626" transform="translate(2069.358672 1863.362281)scale(0.11 -0.11)">
       <use xlink:href="#DejaVuSans-31"/>
       <use xlink:href="#DejaVuSans-32" x="63.623047"/>
       <use xlink:href="#DejaVuSans-30" x="127.246094"/>
       <use xlink:href="#DejaVuSans-30" x="190.869141"/>
      </g>
     </g>
    </g>
    <g id="xtick_8">
     <g id="line2d_8">
      <path d="M 2356.749474 1845.504 
L 2356.749474 248.832 
" clip-path="url(#pfe060ee556)" style="fill: none; stroke: #cccccc; stroke-linecap: round"/>
     </g>
     <g id="text_8">
      <!-- 1400 -->
      <g style="fill: #262626" transform="translate(2342.751974 1863.362281)scale(0.11 -0.11)">
       <use xlink:href="#DejaVuSans-31"/>
       <use xlink:href="#DejaVuSans-34" x="63.623047"/>
       <use xlink:href="#DejaVuSans-30" x="127.246094"/>
       <use xlink:href="#DejaVuSans-30" x="190.869141"/>
      </g>
     </g>
    </g>
    <g id="text_9">
     <!-- Discovery Time (Minutes) -->
     <g style="fill: #262626" transform="translate(1340.521875 1878.768062)scale(0.12 -0.12)">
      <defs>
       <path id="DejaVuSans-44" d="M 1259 4147 
L 1259 519 
L 2022 519 
Q 2988 519 3436 956 
Q 3884 1394 3884 2338 
Q 3884 3275 3436 3711 
Q 2988 4147 2022 4147 
L 1259 4147 
z
M 628 4666 
L 1925 4666 
Q 3281 4666 3915 4102 
Q 4550 3538 4550 2338 
Q 4550 1131 3912 565 
Q 3275 0 1925 0 
L 628 0 
L 628 4666 
z
" transform="scale(0.015625)"/>
       <path id="DejaVuSans-69" d="M 603 3500 
L 1178 3500 
L 1178 0 
L 603 0 
L 603 3500 
z
M 603 4863 
L 1178 4863 
L 1178 4134 
L 603 4134 
L 603 4863 
z
" transform="scale(0.015625)"/>
       <path id="DejaVuSans-73" d="M 2834 3397 
L 2834 2853 
Q 2591 2978 2328 3040 
Q 2066 3103 1784 3103 
Q 1356 3103 1142 2972 
Q 928 2841 928 2578 
Q 928 2378 1081 2264 
Q 1234 2150 1697 2047 
L 1894 2003 
Q 2506 1872 2764 1633 
Q 3022 1394 3022 966 
Q 3022 478 2636 193 
Q 2250 -91 1575 -91 
Q 1294 -91 989 -36 
Q 684 19 347 128 
L 347 722 
Q 666 556 975 473 
Q 1284 391 1588 391 
Q 1994 391 2212 530 
Q 2431 669 2431 922 
Q 2431 1156 2273 1281 
Q 2116 1406 1581 1522 
L 1381 1569 
Q 847 1681 609 1914 
Q 372 2147 372 2553 
Q 372 3047 722 3315 
Q 1072 3584 1716 3584 
Q 2034 3584 2315 3537 
Q 2597 3491 2834 3397 
z
" transform="scale(0.015625)"/>
       <path id="DejaVuSans-63" d="M 3122 3366 
L 3122 2828 
Q 2878 2963 2633 3030 
Q 2388 3097 2138 3097 
Q 1578 3097 1268 2742 
Q 959 2388 959 1747 
Q 959 1106 1268 751 
Q 1578 397 2138 397 
Q 2388 397 2633 464 
Q 2878 531 3122 666 
L 3122 134 
Q 2881 22 2623 -34 
Q 2366 -91 2075 -91 
Q 1284 -91 818 406 
Q 353 903 353 1747 
Q 353 2603 823 3093 
Q 1294 3584 2113 3584 
Q 2378 3584 2631 3529 
Q 2884 3475 3122 3366 
z
" transform="scale(0.015625)"/>
       <path id="DejaVuSans-6f" d="M 1959 3097 
Q 1497 3097 1228 2736 
Q 959 2375 959 1747 
Q 959 1119 1226 758 
Q 1494 397 1959 397 
Q 2419 397 2687 759 
Q 2956 1122 2956 1747 
Q 2956 2369 2687 2733 
Q 2419 3097 1959 3097 
z
M 1959 3584 
Q 2709 3584 3137 3096 
Q 3566 2609 3566 1747 
Q 3566 888 3137 398 
Q 2709 -91 1959 -91 
Q 1206 -91 779 398 
Q 353 888 353 1747 
Q 353 2609 779 3096 
Q 1206 3584 1959 3584 
z
" transform="scale(0.015625)"/>
       <path id="DejaVuSans-76" d="M 191 3500 
L 800 3500 
L 1894 563 
L 2988 3500 
L 3597 3500 
L 2284 0 
L 1503 0 
L 191 3500 
z
" transform="scale(0.015625)"/>
       <path id="DejaVuSans-65" d="M 3597 1894 
L 3597 1613 
L 953 1613 
Q 991 1019 1311 708 
Q 1631 397 2203 397 
Q 2534 397 2845 478 
Q 3156 559 3463 722 
L 3463 178 
Q 3153 47 2828 -22 
Q 2503 -91 2169 -91 
Q 1331 -91 842 396 
Q 353 884 353 1716 
Q 353 2575 817 3079 
Q 1281 3584 2069 3584 
Q 2775 3584 3186 3129 
Q 3597 2675 3597 1894 
z
M 3022 2063 
Q 3016 2534 2758 2815 
Q 2500 3097 2075 3097 
Q 1594 3097 1305 2825 
Q 1016 2553 972 2059 
L 3022 2063 
z
" transform="scale(0.015625)"/>
       <path id="DejaVuSans-72" d="M 2631 2963 
Q 2534 3019 2420 3045 
Q 2306 3072 2169 3072 
Q 1681 3072 1420 2755 
Q 1159 2438 1159 1844 
L 1159 0 
L 581 0 
L 581 3500 
L 1159 3500 
L 1159 2956 
Q 1341 3275 1631 3429 
Q 1922 3584 2338 3584 
Q 2397 3584 2469 3576 
Q 2541 3569 2628 3553 
L 2631 2963 
z
" transform="scale(0.015625)"/>
       <path id="DejaVuSans-79" d="M 2059 -325 
Q 1816 -950 1584 -1140 
Q 1353 -1331 966 -1331 
L 506 -1331 
L 506 -850 
L 844 -850 
Q 1081 -850 1212 -737 
Q 1344 -625 1503 -206 
L 1606 56 
L 191 3500 
L 800 3500 
L 1894 763 
L 2988 3500 
L 3597 3500 
L 2059 -325 
z
" transform="scale(0.015625)"/>
       <path id="DejaVuSans-20" transform="scale(0.015625)"/>
       <path id="DejaVuSans-54" d="M -19 4666 
L 3928 4666 
L 3928 4134 
L 2272 4134 
L 2272 0 
L 1638 0 
L 1638 4134 
L -19 4134 
L -19 4666 
z
" transform="scale(0.015625)"/>
       <path id="DejaVuSans-6d" d="M 3328 2828 
Q 3544 3216 3844 3400 
Q 4144 3584 4550 3584 
Q 5097 3584 5394 3201 
Q 5691 2819 5691 2113 
L 5691 0 
L 5113 0 
L 5113 2094 
Q 5113 2597 4934 2840 
Q 4756 3084 4391 3084 
Q 3944 3084 3684 2787 
Q 3425 2491 3425 1978 
L 3425 0 
L 2847 0 
L 2847 2094 
Q 2847 2600 2669 2842 
Q 2491 3084 2119 3084 
Q 1678 3084 1418 2786 
Q 1159 2488 1159 1978 
L 1159 0 
L 581 0 
L 581 3500 
L 1159 3500 
L 1159 2956 
Q 1356 3278 1631 3431 
Q 1906 3584 2284 3584 
Q 2666 3584 2933 3390 
Q 3200 3197 3328 2828 
z
" transform="scale(0.015625)"/>
       <path id="DejaVuSans-28" d="M 1984 4856 
Q 1566 4138 1362 3434 
Q 1159 2731 1159 2009 
Q 1159 1288 1364 580 
Q 1569 -128 1984 -844 
L 1484 -844 
Q 1016 -109 783 600 
Q 550 1309 550 2009 
Q 550 2706 781 3412 
Q 1013 4119 1484 4856 
L 1984 4856 
z
" transform="scale(0.015625)"/>
       <path id="DejaVuSans-4d" d="M 628 4666 
L 1569 4666 
L 2759 1491 
L 3956 4666 
L 4897 4666 
L 4897 0 
L 4281 0 
L 4281 4097 
L 3078 897 
L 2444 897 
L 1241 4097 
L 1241 0 
L 628 0 
L 628 4666 
z
" transform="scale(0.015625)"/>
       <path id="DejaVuSans-6e" d="M 3513 2113 
L 3513 0 
L 2938 0 
L 2938 2094 
Q 2938 2591 2744 2837 
Q 2550 3084 2163 3084 
Q 1697 3084 1428 2787 
Q 1159 2491 1159 1978 
L 1159 0 
L 581 0 
L 581 3500 
L 1159 3500 
L 1159 2956 
Q 1366 3272 1645 3428 
Q 1925 3584 2291 3584 
Q 2894 3584 3203 3211 
Q 3513 2838 3513 2113 
z
" transform="scale(0.015625)"/>
       <path id="DejaVuSans-75" d="M 544 1381 
L 544 3500 
L 1119 3500 
L 1119 1403 
Q 1119 906 1312 657 
Q 1506 409 1894 409 
Q 2359 409 2629 706 
Q 2900 1003 2900 1516 
L 2900 3500 
L 3475 3500 
L 3475 0 
L 2900 0 
L 2900 538 
Q 2691 219 2414 64 
Q 2138 -91 1772 -91 
Q 1169 -91 856 284 
Q 544 659 544 1381 
z
M 1991 3584 
L 1991 3584 
z
" transform="scale(0.015625)"/>
       <path id="DejaVuSans-74" d="M 1172 4494 
L 1172 3500 
L 2356 3500 
L 2356 3053 
L 1172 3053 
L 1172 1153 
Q 1172 725 1289 603 
Q 1406 481 1766 481 
L 2356 481 
L 2356 0 
L 1766 0 
Q 1100 0 847 248 
Q 594 497 594 1153 
L 594 3053 
L 172 3053 
L 172 3500 
L 594 3500 
L 594 4494 
L 1172 4494 
z
" transform="scale(0.015625)"/>
       <path id="DejaVuSans-29" d="M 513 4856 
L 1013 4856 
Q 1481 4119 1714 3412 
Q 1947 2706 1947 2009 
Q 1947 1309 1714 600 
Q 1481 -109 1013 -844 
L 513 -844 
Q 928 -128 1133 580 
Q 1338 1288 1338 2009 
Q 1338 2731 1133 3434 
Q 928 4138 513 4856 
z
" transform="scale(0.015625)"/>
      </defs>
      <use xlink:href="#DejaVuSans-44"/>
      <use xlink:href="#DejaVuSans-69" x="77.001953"/>
      <use xlink:href="#DejaVuSans-73" x="104.785156"/>
      <use xlink:href="#DejaVuSans-63" x="156.884766"/>
      <use xlink:href="#DejaVuSans-6f" x="211.865234"/>
      <use xlink:href="#DejaVuSans-76" x="273.046875"/>
      <use xlink:href="#DejaVuSans-65" x="332.226562"/>
      <use xlink:href="#DejaVuSans-72" x="393.75"/>
      <use xlink:href="#DejaVuSans-79" x="434.863281"/>
      <use xlink:href="#DejaVuSans-20" x="494.042969"/>
      <use xlink:href="#DejaVuSans-54" x="525.830078"/>
      <use xlink:href="#DejaVuSans-69" x="583.789062"/>
      <use xlink:href="#DejaVuSans-6d" x="611.572266"/>
      <use xlink:href="#DejaVuSans-65" x="708.984375"/>
      <use xlink:href="#DejaVuSans-20" x="770.507812"/>
      <use xlink:href="#DejaVuSans-28" x="802.294922"/>
      <use xlink:href="#DejaVuSans-4d" x="841.308594"/>
      <use xlink:href="#DejaVuSans-69" x="927.587891"/>
      <use xlink:href="#DejaVuSans-6e" x="955.371094"/>
      <use xlink:href="#DejaVuSans-75" x="1018.75"/>
      <use xlink:href="#DejaVuSans-74" x="1082.128906"/>
      <use xlink:href="#DejaVuSans-65" x="1121.337891"/>
      <use xlink:href="#DejaVuSans-73" x="1182.861328"/>
      <use xlink:href="#DejaVuSans-29" x="1234.960938"/>
     </g>
    </g>
   </g>
   <g id="matplotlib.axis_2">
    <g id="ytick_1">
     <g id="line2d_9">
      <path d="M 345.6 1772.928 
L 2488.32 1772.928 
" clip-path="url(#pfe060ee556)" style="fill: none; stroke: #cccccc; stroke-linecap: round"/>
     </g>
     <g id="text_10">
      <!-- 0 -->
      <g style="fill: #262626" transform="translate(329.10125 1777.107141)scale(0.11 -0.11)">
       <use xlink:href="#DejaVuSans-30"/>
      </g>
     </g>
    </g>
    <g id="ytick_2">
     <g id="line2d_10">
      <path d="M 345.6 1564.973845 
L 2488.32 1564.973845 
" clip-path="url(#pfe060ee556)" style="fill: none; stroke: #cccccc; stroke-linecap: round"/>
     </g>
     <g id="text_11">
      <!-- 50 -->
      <g style="fill: #262626" transform="translate(322.1025 1569.152986)scale(0.11 -0.11)">
       <defs>
        <path id="DejaVuSans-35" d="M 691 4666 
L 3169 4666 
L 3169 4134 
L 1269 4134 
L 1269 2991 
Q 1406 3038 1543 3061 
Q 1681 3084 1819 3084 
Q 2600 3084 3056 2656 
Q 3513 2228 3513 1497 
Q 3513 744 3044 326 
Q 2575 -91 1722 -91 
Q 1428 -91 1123 -41 
Q 819 9 494 109 
L 494 744 
Q 775 591 1075 516 
Q 1375 441 1709 441 
Q 2250 441 2565 725 
Q 2881 1009 2881 1497 
Q 2881 1984 2565 2268 
Q 2250 2553 1709 2553 
Q 1456 2553 1204 2497 
Q 953 2441 691 2322 
L 691 4666 
z
" transform="scale(0.015625)"/>
       </defs>
       <use xlink:href="#DejaVuSans-35"/>
       <use xlink:href="#DejaVuSans-30" x="63.623047"/>
      </g>
     </g>
    </g>
    <g id="ytick_3">
     <g id="line2d_11">
      <path d="M 345.6 1357.019691 
L 2488.32 1357.019691 
" clip-path="url(#pfe060ee556)" style="fill: none; stroke: #cccccc; stroke-linecap: round"/>
     </g>
     <g id="text_12">
      <!-- 100 -->
      <g style="fill: #262626" transform="translate(315.10375 1361.198831)scale(0.11 -0.11)">
       <use xlink:href="#DejaVuSans-31"/>
       <use xlink:href="#DejaVuSans-30" x="63.623047"/>
       <use xlink:href="#DejaVuSans-30" x="127.246094"/>
      </g>
     </g>
    </g>
    <g id="ytick_4">
     <g id="line2d_12">
      <path d="M 345.6 1149.065536 
L 2488.32 1149.065536 
" clip-path="url(#pfe060ee556)" style="fill: none; stroke: #cccccc; stroke-linecap: round"/>
     </g>
     <g id="text_13">
      <!-- 150 -->
      <g style="fill: #262626" transform="translate(315.10375 1153.244676)scale(0.11 -0.11)">
       <use xlink:href="#DejaVuSans-31"/>
       <use xlink:href="#DejaVuSans-35" x="63.623047"/>
       <use xlink:href="#DejaVuSans-30" x="127.246094"/>
      </g>
     </g>
    </g>
    <g id="ytick_5">
     <g id="line2d_13">
      <path d="M 345.6 941.111381 
L 2488.32 941.111381 
" clip-path="url(#pfe060ee556)" style="fill: none; stroke: #cccccc; stroke-linecap: round"/>
     </g>
     <g id="text_14">
      <!-- 200 -->
      <g style="fill: #262626" transform="translate(315.10375 945.290522)scale(0.11 -0.11)">
       <use xlink:href="#DejaVuSans-32"/>
       <use xlink:href="#DejaVuSans-30" x="63.623047"/>
       <use xlink:href="#DejaVuSans-30" x="127.246094"/>
      </g>
     </g>
    </g>
    <g id="ytick_6">
     <g id="line2d_14">
      <path d="M 345.6 733.157226 
L 2488.32 733.157226 
" clip-path="url(#pfe060ee556)" style="fill: none; stroke: #cccccc; stroke-linecap: round"/>
     </g>
     <g id="text_15">
      <!-- 250 -->
      <g style="fill: #262626" transform="translate(315.10375 737.336367)scale(0.11 -0.11)">
       <use xlink:href="#DejaVuSans-32"/>
       <use xlink:href="#DejaVuSans-35" x="63.623047"/>
       <use xlink:href="#DejaVuSans-30" x="127.246094"/>
      </g>
     </g>
    </g>
    <g id="ytick_7">
     <g id="line2d_15">
      <path d="M 345.6 525.203072 
L 2488.32 525.203072 
" clip-path="url(#pfe060ee556)" style="fill: none; stroke: #cccccc; stroke-linecap: round"/>
     </g>
     <g id="text_16">
      <!-- 300 -->
      <g style="fill: #262626" transform="translate(315.10375 529.382212)scale(0.11 -0.11)">
       <defs>
        <path id="DejaVuSans-33" d="M 2597 2516 
Q 3050 2419 3304 2112 
Q 3559 1806 3559 1356 
Q 3559 666 3084 287 
Q 2609 -91 1734 -91 
Q 1441 -91 1130 -33 
Q 819 25 488 141 
L 488 750 
Q 750 597 1062 519 
Q 1375 441 1716 441 
Q 2309 441 2620 675 
Q 2931 909 2931 1356 
Q 2931 1769 2642 2001 
Q 2353 2234 1838 2234 
L 1294 2234 
L 1294 2753 
L 1863 2753 
Q 2328 2753 2575 2939 
Q 2822 3125 2822 3475 
Q 2822 3834 2567 4026 
Q 2313 4219 1838 4219 
Q 1578 4219 1281 4162 
Q 984 4106 628 3988 
L 628 4550 
Q 988 4650 1302 4700 
Q 1616 4750 1894 4750 
Q 2613 4750 3031 4423 
Q 3450 4097 3450 3541 
Q 3450 3153 3228 2886 
Q 3006 2619 2597 2516 
z
" transform="scale(0.015625)"/>
       </defs>
       <use xlink:href="#DejaVuSans-33"/>
       <use xlink:href="#DejaVuSans-30" x="63.623047"/>
       <use xlink:href="#DejaVuSans-30" x="127.246094"/>
      </g>
     </g>
    </g>
    <g id="ytick_8">
     <g id="line2d_16">
      <path d="M 345.6 317.248917 
L 2488.32 317.248917 
" clip-path="url(#pfe060ee556)" style="fill: none; stroke: #cccccc; stroke-linecap: round"/>
     </g>
     <g id="text_17">
      <!-- 350 -->
      <g style="fill: #262626" transform="translate(315.10375 321.428058)scale(0.11 -0.11)">
       <use xlink:href="#DejaVuSans-33"/>
       <use xlink:href="#DejaVuSans-35" x="63.623047"/>
       <use xlink:href="#DejaVuSans-30" x="127.246094"/>
      </g>
     </g>
    </g>
    <g id="text_18">
     <!-- Bug Count -->
     <g style="fill: #262626" transform="translate(308.608125 1078.621125)rotate(-90)scale(0.12 -0.12)">
      <defs>
       <path id="DejaVuSans-42" d="M 1259 2228 
L 1259 519 
L 2272 519 
Q 2781 519 3026 730 
Q 3272 941 3272 1375 
Q 3272 1813 3026 2020 
Q 2781 2228 2272 2228 
L 1259 2228 
z
M 1259 4147 
L 1259 2741 
L 2194 2741 
Q 2656 2741 2882 2914 
Q 3109 3088 3109 3444 
Q 3109 3797 2882 3972 
Q 2656 4147 2194 4147 
L 1259 4147 
z
M 628 4666 
L 2241 4666 
Q 2963 4666 3353 4366 
Q 3744 4066 3744 3513 
Q 3744 3084 3544 2831 
Q 3344 2578 2956 2516 
Q 3422 2416 3680 2098 
Q 3938 1781 3938 1306 
Q 3938 681 3513 340 
Q 3088 0 2303 0 
L 628 0 
L 628 4666 
z
" transform="scale(0.015625)"/>
       <path id="DejaVuSans-67" d="M 2906 1791 
Q 2906 2416 2648 2759 
Q 2391 3103 1925 3103 
Q 1463 3103 1205 2759 
Q 947 2416 947 1791 
Q 947 1169 1205 825 
Q 1463 481 1925 481 
Q 2391 481 2648 825 
Q 2906 1169 2906 1791 
z
M 3481 434 
Q 3481 -459 3084 -895 
Q 2688 -1331 1869 -1331 
Q 1566 -1331 1297 -1286 
Q 1028 -1241 775 -1147 
L 775 -588 
Q 1028 -725 1275 -790 
Q 1522 -856 1778 -856 
Q 2344 -856 2625 -561 
Q 2906 -266 2906 331 
L 2906 616 
Q 2728 306 2450 153 
Q 2172 0 1784 0 
Q 1141 0 747 490 
Q 353 981 353 1791 
Q 353 2603 747 3093 
Q 1141 3584 1784 3584 
Q 2172 3584 2450 3431 
Q 2728 3278 2906 2969 
L 2906 3500 
L 3481 3500 
L 3481 434 
z
" transform="scale(0.015625)"/>
       <path id="DejaVuSans-43" d="M 4122 4306 
L 4122 3641 
Q 3803 3938 3442 4084 
Q 3081 4231 2675 4231 
Q 1875 4231 1450 3742 
Q 1025 3253 1025 2328 
Q 1025 1406 1450 917 
Q 1875 428 2675 428 
Q 3081 428 3442 575 
Q 3803 722 4122 1019 
L 4122 359 
Q 3791 134 3420 21 
Q 3050 -91 2638 -91 
Q 1578 -91 968 557 
Q 359 1206 359 2328 
Q 359 3453 968 4101 
Q 1578 4750 2638 4750 
Q 3056 4750 3426 4639 
Q 3797 4528 4122 4306 
z
" transform="scale(0.015625)"/>
      </defs>
      <use xlink:href="#DejaVuSans-42"/>
      <use xlink:href="#DejaVuSans-75" x="68.603516"/>
      <use xlink:href="#DejaVuSans-67" x="131.982422"/>
      <use xlink:href="#DejaVuSans-20" x="195.458984"/>
      <use xlink:href="#DejaVuSans-43" x="227.246094"/>
      <use xlink:href="#DejaVuSans-6f" x="297.070312"/>
      <use xlink:href="#DejaVuSans-75" x="358.251953"/>
      <use xlink:href="#DejaVuSans-6e" x="421.630859"/>
      <use xlink:href="#DejaVuSans-74" x="485.009766"/>
     </g>
    </g>
   </g>
   <g id="PolyCollection_1">
    <defs>
     <path id="mbda6219fb1" d="M 456.666029 -308.990166 
L 456.666029 -308.990166 
L 660.344038 -325.626499 
L 760.132593 -336.717387 
L 768.334392 -358.899163 
L 771.068325 -367.21733 
L 773.802258 -389.676378 
L 775.169225 -430.435393 
L 776.536191 -467.035324 
L 784.73799 -489.2171 
L 786.104957 -528.035209 
L 790.205856 -561.030602 
L 792.939789 -591.807817 
L 810.710354 -600.125983 
L 827.113952 -608.444149 
L 846.251483 -633.398648 
L 847.61845 -687.786657 
L 848.985416 -774.807473 
L 851.719349 -824.71647 
L 854.453282 -853.830052 
L 855.820249 -885.716355 
L 857.187215 -907.898132 
L 1048.562526 -916.216298 
L 1096.406354 -924.534464 
L 1126.479617 -939.091255 
L 1127.846584 -968.898017 
L 1129.21355 -991.079794 
L 1130.580517 -999.39796 
L 1159.286813 -1016.034292 
L 1361.597856 -1024.352458 
L 1364.331789 -1032.670625 
L 1367.065722 -1040.988791 
L 1369.799656 -1049.306957 
L 1372.533589 -1057.625123 
L 1376.634488 -1077.034178 
L 1378.001455 -1099.215954 
L 1379.368421 -1107.53412 
L 1386.203254 -1115.852287 
L 1394.405053 -1132.488619 
L 1472.322144 -1149.124951 
L 1513.331139 -1157.443117 
L 1514.698105 -1174.07945 
L 1516.065072 -1182.397616 
L 1517.432038 -1190.715782 
L 1518.799005 -1207.352115 
L 1522.899904 -1215.670281 
L 1524.266871 -1226.761169 
L 1525.633837 -1248.942946 
L 1528.36777 -1257.261112 
L 1529.734737 -1265.579278 
L 1531.101703 -1282.21561 
L 1536.569569 -1290.533777 
L 1540.670469 -1298.851943 
L 1542.037435 -1307.170109 
L 1544.771368 -1336.803576 
L 1550.239234 -1382.033605 
L 1558.441033 -1390.351771 
L 1565.275866 -1398.669937 
L 1570.743732 -1415.306269 
L 1570.743732 -1415.306269 
L 1570.743732 -1415.306269 
L 1565.275866 -1406.988103 
L 1558.441033 -1390.351771 
L 1550.239234 -1382.033605 
L 1544.771368 -1353.959794 
L 1542.037435 -1307.170109 
L 1540.670469 -1298.851943 
L 1536.569569 -1290.533777 
L 1531.101703 -1282.21561 
L 1529.734737 -1273.897444 
L 1528.36777 -1257.261112 
L 1525.633837 -1248.942946 
L 1524.266871 -1237.852057 
L 1522.899904 -1215.670281 
L 1518.799005 -1207.352115 
L 1517.432038 -1199.033948 
L 1516.065072 -1182.397616 
L 1514.698105 -1174.07945 
L 1513.331139 -1165.761284 
L 1472.322144 -1149.124951 
L 1394.405053 -1140.806785 
L 1386.203254 -1124.170453 
L 1379.368421 -1107.53412 
L 1378.001455 -1099.215954 
L 1376.634488 -1088.125066 
L 1372.533589 -1065.943289 
L 1369.799656 -1049.306957 
L 1367.065722 -1040.988791 
L 1364.331789 -1032.670625 
L 1361.597856 -1024.352458 
L 1159.286813 -1016.034292 
L 1130.580517 -999.39796 
L 1129.21355 -991.079794 
L 1127.846584 -979.988905 
L 1126.479617 -951.594499 
L 1096.406354 -924.534464 
L 1048.562526 -916.216298 
L 857.187215 -907.898132 
L 855.820249 -896.807244 
L 854.453282 -866.307301 
L 851.719349 -830.261914 
L 848.985416 -792.03796 
L 847.61845 -711.461438 
L 846.251483 -638.597501 
L 827.113952 -608.444149 
L 810.710354 -600.125983 
L 792.939789 -591.807817 
L 790.205856 -576.003301 
L 786.104957 -539.126097 
L 784.73799 -505.160252 
L 776.536191 -467.035324 
L 775.169225 -444.576275 
L 773.802258 -401.321811 
L 771.068325 -367.21733 
L 768.334392 -358.899163 
L 760.132593 -347.808275 
L 660.344038 -325.626499 
L 456.666029 -308.990166 
z
" style="stroke: #4c72b0; stroke-opacity: 0.2"/>
    </defs>
    <g clip-path="url(#pfe060ee556)">
     <use xlink:href="#mbda6219fb1" x="0" y="2073.6" style="fill: #4c72b0; fill-opacity: 0.2; stroke: #4c72b0; stroke-opacity: 0.2"/>
    </g>
   </g>
   <g id="PolyCollection_2">
    <defs>
     <path id="m6d82cbdfff" d="M 758.765627 -317.308332 
L 758.765627 -308.990166 
L 762.866526 -325.626499 
L 866.755981 -349.194636 
L 869.489914 -389.399106 
L 870.85688 -408.80816 
L 877.691713 -417.126327 
L 891.361378 -425.444493 
L 895.462278 -433.762659 
L 924.168574 -442.080825 
L 951.507904 -450.398991 
L 952.874871 -472.026223 
L 954.241837 -503.080711 
L 956.97577 -525.262487 
L 961.07667 -533.580653 
L 962.443636 -550.216986 
L 978.847234 -558.535152 
L 989.782967 -581.410109 
L 999.351732 -616.762315 
L 1010.287464 -631.319106 
L 1019.85623 -658.353146 
L 1043.09466 -679.148562 
L 1044.461627 -709.301914 
L 1047.19556 -733.216642 
L 1048.562526 -741.534808 
L 1052.663426 -758.17114 
L 1066.333091 -766.489307 
L 1067.700057 -774.807473 
L 1070.43399 -783.125639 
L 1081.369722 -799.761971 
L 1082.736689 -808.080138 
L 1093.672421 -816.398304 
L 1095.039388 -828.875553 
L 1107.342086 -845.511885 
L 1116.910852 -853.830052 
L 1122.378718 -862.148218 
L 1123.745684 -870.466384 
L 1126.479617 -878.78455 
L 1129.21355 -895.420883 
L 1141.516249 -916.216298 
L 1146.984115 -945.32988 
L 1148.351081 -953.648046 
L 1149.718048 -961.966212 
L 1153.818947 -970.284378 
L 1163.387713 -978.602544 
L 1164.754679 -995.238877 
L 1172.956478 -1003.557043 
L 1182.525244 -1011.875209 
L 1183.892211 -1020.193375 
L 1203.029742 -1028.511542 
L 1222.167273 -1036.829708 
L 1239.937837 -1045.147874 
L 1264.543234 -1053.46604 
L 1268.644134 -1061.784206 
L 1285.047732 -1070.102372 
L 1305.55223 -1089.511427 
L 1311.020096 -1111.693203 
L 1312.387062 -1120.01137 
L 1319.221895 -1136.647702 
L 1326.056727 -1144.965868 
L 1330.157627 -1153.284034 
L 1332.89156 -1161.602201 
L 1346.561225 -1169.920367 
L 1358.863923 -1178.238533 
L 1361.597856 -1186.556699 
L 1378.001455 -1197.647587 
L 1380.735388 -1219.829364 
L 1393.038086 -1228.14753 
L 1406.707751 -1244.783862 
L 1416.276517 -1253.102029 
L 1424.478316 -1261.420195 
L 1425.845282 -1269.738361 
L 1435.414048 -1278.056527 
L 1440.881914 -1286.374693 
L 1468.221244 -1294.69286 
L 1476.423043 -1311.329192 
L 1480.523943 -1319.647358 
L 1488.725742 -1336.283691 
L 1527.000804 -1344.601857 
L 1562.541933 -1352.920023 
L 1593.982163 -1361.238189 
L 1595.349129 -1369.556355 
L 1599.450029 -1386.192688 
L 1600.816995 -1394.510854 
L 1626.789359 -1402.82902 
L 1633.624191 -1411.147186 
L 1634.991158 -1419.465352 
L 1691.036785 -1436.101685 
L 1695.137684 -1461.056183 
L 1696.504651 -1469.37435 
L 1697.871617 -1477.692516 
L 1703.339483 -1486.010682 
L 1799.027139 -1494.328848 
L 1804.495005 -1502.647014 
L 1820.898603 -1510.965181 
L 1835.935234 -1519.283347 
L 1872.84333 -1527.601513 
L 1893.347828 -1535.919679 
L 1897.448727 -1544.237845 
L 1898.815694 -1552.556011 
L 1938.457722 -1560.874178 
L 1945.292555 -1569.192344 
L 1953.494354 -1577.51051 
L 2019.108746 -1585.828676 
L 2038.246278 -1594.146842 
L 2039.613244 -1602.465009 
L 2045.08111 -1613.555897 
L 2103.86067 -1635.737673 
L 2117.530335 -1644.05584 
L 2128.466067 -1652.374006 
L 2131.2 -1669.010338 
L 2148.970565 -1677.328504 
L 2155.805397 -1685.64667 
L 2226.887656 -1693.964837 
L 2267.896651 -1710.601169 
L 2274.731483 -1718.919335 
L 2291.135081 -1727.237501 
L 2341.712842 -1735.555668 
L 2348.547675 -1743.873834 
L 2390.923636 -1752.192 
L 2390.923636 -1752.192 
L 2390.923636 -1752.192 
L 2348.547675 -1743.873834 
L 2341.712842 -1735.555668 
L 2291.135081 -1727.237501 
L 2274.731483 -1718.919335 
L 2267.896651 -1710.601169 
L 2226.887656 -1702.283003 
L 2155.805397 -1685.64667 
L 2148.970565 -1677.328504 
L 2131.2 -1669.010338 
L 2128.466067 -1660.692172 
L 2117.530335 -1644.05584 
L 2103.86067 -1635.737673 
L 2045.08111 -1624.646785 
L 2039.613244 -1602.465009 
L 2038.246278 -1594.146842 
L 2019.108746 -1585.828676 
L 1953.494354 -1577.51051 
L 1945.292555 -1569.192344 
L 1938.457722 -1560.874178 
L 1898.815694 -1552.556011 
L 1897.448727 -1544.237845 
L 1893.347828 -1535.919679 
L 1872.84333 -1527.601513 
L 1835.935234 -1519.283347 
L 1820.898603 -1510.965181 
L 1804.495005 -1502.647014 
L 1799.027139 -1494.328848 
L 1703.339483 -1486.010682 
L 1697.871617 -1477.692516 
L 1696.504651 -1469.37435 
L 1695.137684 -1461.056183 
L 1691.036785 -1447.539163 
L 1634.991158 -1419.465352 
L 1633.624191 -1411.147186 
L 1626.789359 -1402.82902 
L 1600.816995 -1394.510854 
L 1599.450029 -1386.192688 
L 1595.349129 -1377.874521 
L 1593.982163 -1361.238189 
L 1562.541933 -1352.920023 
L 1527.000804 -1344.601857 
L 1488.725742 -1336.283691 
L 1480.523943 -1327.965524 
L 1476.423043 -1311.329192 
L 1468.221244 -1303.011026 
L 1440.881914 -1286.374693 
L 1435.414048 -1278.056527 
L 1425.845282 -1269.738361 
L 1424.478316 -1261.420195 
L 1416.276517 -1253.102029 
L 1406.707751 -1244.783862 
L 1393.038086 -1236.465696 
L 1380.735388 -1219.829364 
L 1378.001455 -1208.738476 
L 1361.597856 -1186.556699 
L 1358.863923 -1178.238533 
L 1346.561225 -1169.920367 
L 1332.89156 -1161.602201 
L 1330.157627 -1153.284034 
L 1326.056727 -1144.965868 
L 1319.221895 -1136.647702 
L 1312.387062 -1128.329536 
L 1311.020096 -1111.693203 
L 1305.55223 -1100.602315 
L 1285.047732 -1078.420539 
L 1268.644134 -1061.784206 
L 1264.543234 -1053.46604 
L 1239.937837 -1045.147874 
L 1222.167273 -1036.829708 
L 1203.029742 -1028.511542 
L 1183.892211 -1020.193375 
L 1182.525244 -1011.875209 
L 1172.956478 -1003.557043 
L 1164.754679 -995.238877 
L 1163.387713 -986.920711 
L 1153.818947 -970.284378 
L 1149.718048 -961.966212 
L 1148.351081 -953.648046 
L 1146.984115 -945.32988 
L 1141.516249 -927.861731 
L 1129.21355 -895.420883 
L 1126.479617 -887.102716 
L 1123.745684 -870.466384 
L 1122.378718 -862.148218 
L 1116.910852 -853.830052 
L 1107.342086 -845.511885 
L 1095.039388 -835.530086 
L 1093.672421 -816.398304 
L 1082.736689 -808.080138 
L 1081.369722 -799.761971 
L 1070.43399 -791.443805 
L 1067.700057 -774.807473 
L 1066.333091 -766.489307 
L 1052.663426 -758.17114 
L 1048.562526 -749.852974 
L 1047.19556 -733.216642 
L 1044.461627 -718.659851 
L 1043.09466 -688.853089 
L 1019.85623 -666.671312 
L 1010.287464 -643.796355 
L 999.351732 -616.762315 
L 989.782967 -596.66008 
L 978.847234 -558.535152 
L 962.443636 -550.216986 
L 961.07667 -533.580653 
L 956.97577 -525.262487 
L 954.241837 -514.171599 
L 952.874871 -484.503473 
L 951.507904 -450.398991 
L 924.168574 -442.080825 
L 895.462278 -433.762659 
L 891.361378 -425.444493 
L 877.691713 -417.126327 
L 870.85688 -408.80816 
L 869.489914 -400.489994 
L 866.755981 -363.058246 
L 762.866526 -325.626499 
L 758.765627 -317.308332 
z
" style="stroke: #dd8452; stroke-opacity: 0.2"/>
    </defs>
    <g clip-path="url(#pfe060ee556)">
     <use xlink:href="#m6d82cbdfff" x="0" y="2073.6" style="fill: #dd8452; fill-opacity: 0.2; stroke: #dd8452; stroke-opacity: 0.2"/>
    </g>
   </g>
   <g id="PolyCollection_3">
    <defs>
     <path id="m6bddfe0097" d="M 1833.201301 -333.944665 
L 1833.201301 -333.944665 
L 1833.201301 -333.944665 
L 1833.201301 -333.944665 
z
" style="stroke: #55a868; stroke-opacity: 0.2"/>
    </defs>
    <g clip-path="url(#pfe060ee556)">
     <use xlink:href="#m6bddfe0097" x="0" y="2073.6" style="fill: #55a868; fill-opacity: 0.2; stroke: #55a868; stroke-opacity: 0.2"/>
    </g>
   </g>
   <g id="line2d_17">
    <path d="M 442.996364 1772.928 
L 456.666029 1764.609834 
L 660.344038 1747.973501 
L 760.132593 1731.337169 
L 768.334392 1714.700837 
L 771.068325 1706.38267 
L 773.802258 1678.100905 
L 775.169225 1634.846441 
L 776.536191 1606.564676 
L 784.73799 1576.064734 
L 786.104957 1540.019347 
L 790.205856 1505.083049 
L 792.939789 1481.792183 
L 810.710354 1473.474017 
L 827.113952 1465.155851 
L 846.251483 1438.121811 
L 847.61845 1373.656023 
L 848.985416 1290.474361 
L 851.719349 1246.110808 
L 854.453282 1213.947232 
L 855.820249 1182.338201 
L 857.187215 1165.701868 
L 1048.562526 1157.383702 
L 1096.406354 1149.065536 
L 1126.479617 1128.27012 
L 1127.846584 1099.156539 
L 1129.21355 1082.520206 
L 1130.580517 1074.20204 
L 1159.286813 1057.565708 
L 1361.597856 1049.247542 
L 1364.331789 1040.929375 
L 1367.065722 1032.611209 
L 1369.799656 1024.293043 
L 1372.533589 1011.815794 
L 1376.634488 991.020378 
L 1378.001455 974.384046 
L 1379.368421 966.06588 
L 1386.203254 953.58863 
L 1394.405053 936.952298 
L 1472.322144 924.475049 
L 1513.331139 911.997799 
L 1514.698105 899.52055 
L 1516.065072 891.202384 
L 1517.432038 878.725135 
L 1518.799005 866.247885 
L 1522.899904 857.929719 
L 1524.266871 841.293387 
L 1525.633837 824.657054 
L 1528.36777 816.338888 
L 1529.734737 803.861639 
L 1531.101703 791.38439 
L 1536.569569 783.066223 
L 1540.670469 774.748057 
L 1542.037435 766.429891 
L 1544.771368 727.958372 
L 1550.239234 691.566395 
L 1558.441033 683.248229 
L 1565.275866 670.77098 
L 1570.743732 658.293731 
" clip-path="url(#pfe060ee556)" style="fill: none; stroke: #4c72b0; stroke-width: 1.5; stroke-linecap: round"/>
   </g>
   <g id="line2d_18">
    <path d="M 442.996364 1772.928 
L 758.765627 1760.450751 
L 762.866526 1747.973501 
L 866.755981 1717.473559 
L 869.489914 1678.65545 
L 870.85688 1664.79184 
L 877.691713 1656.473673 
L 891.361378 1648.155507 
L 895.462278 1639.837341 
L 924.168574 1631.519175 
L 951.507904 1623.201009 
L 952.874871 1594.919244 
L 954.241837 1564.973845 
L 956.97577 1548.337513 
L 961.07667 1540.019347 
L 962.443636 1523.383014 
L 978.847234 1515.064848 
L 989.782967 1484.564905 
L 999.351732 1456.837685 
L 1010.287464 1436.042269 
L 1019.85623 1411.087771 
L 1043.09466 1390.292355 
L 1044.461627 1359.099232 
L 1047.19556 1340.383358 
L 1048.562526 1327.906109 
L 1052.663426 1315.42886 
L 1066.333091 1307.110693 
L 1067.700057 1298.792527 
L 1070.43399 1286.315278 
L 1081.369722 1273.838029 
L 1082.736689 1265.519862 
L 1093.672421 1257.201696 
L 1095.039388 1241.397181 
L 1107.342086 1228.088115 
L 1116.910852 1219.769948 
L 1122.378718 1211.451782 
L 1123.745684 1203.133616 
L 1126.479617 1190.656367 
L 1129.21355 1178.179117 
L 1141.516249 1151.560986 
L 1146.984115 1128.27012 
L 1148.351081 1119.951954 
L 1149.718048 1111.633788 
L 1153.818947 1103.315622 
L 1163.387713 1090.838372 
L 1164.754679 1078.361123 
L 1172.956478 1070.042957 
L 1182.525244 1061.724791 
L 1183.892211 1053.406625 
L 1203.029742 1045.088458 
L 1222.167273 1036.770292 
L 1239.937837 1028.452126 
L 1264.543234 1020.13396 
L 1268.644134 1011.815794 
L 1285.047732 999.338544 
L 1305.55223 978.543129 
L 1311.020096 961.906797 
L 1312.387062 949.429547 
L 1319.221895 936.952298 
L 1326.056727 928.634132 
L 1330.157627 920.315966 
L 1332.89156 911.997799 
L 1346.561225 903.679633 
L 1358.863923 895.361467 
L 1361.597856 887.043301 
L 1378.001455 870.406968 
L 1380.735388 853.770636 
L 1393.038086 841.293387 
L 1406.707751 828.816138 
L 1416.276517 820.497971 
L 1424.478316 812.179805 
L 1425.845282 803.861639 
L 1435.414048 795.543473 
L 1440.881914 787.225307 
L 1468.221244 774.748057 
L 1476.423043 762.270808 
L 1480.523943 749.793559 
L 1488.725742 737.316309 
L 1527.000804 728.998143 
L 1562.541933 720.679977 
L 1593.982163 712.361811 
L 1595.349129 699.884562 
L 1599.450029 687.407312 
L 1600.816995 679.089146 
L 1626.789359 670.77098 
L 1633.624191 662.452814 
L 1634.991158 654.134648 
L 1691.036785 631.259691 
L 1695.137684 612.543817 
L 1696.504651 604.22565 
L 1697.871617 595.907484 
L 1703.339483 587.589318 
L 1799.027139 579.271152 
L 1804.495005 570.952986 
L 1820.898603 562.634819 
L 1835.935234 554.316653 
L 1872.84333 545.998487 
L 1893.347828 537.680321 
L 1897.448727 529.362155 
L 1898.815694 521.043989 
L 1938.457722 512.725822 
L 1945.292555 504.407656 
L 1953.494354 496.08949 
L 2019.108746 487.771324 
L 2038.246278 479.453158 
L 2039.613244 471.134991 
L 2045.08111 454.498659 
L 2103.86067 437.862327 
L 2117.530335 429.54416 
L 2128.466067 417.066911 
L 2131.2 404.589662 
L 2148.970565 396.271496 
L 2155.805397 387.95333 
L 2226.887656 375.47608 
L 2267.896651 362.998831 
L 2274.731483 354.680665 
L 2291.135081 346.362499 
L 2341.712842 338.044332 
L 2348.547675 329.726166 
L 2390.923636 321.408 
" clip-path="url(#pfe060ee556)" style="fill: none; stroke: #dd8452; stroke-width: 1.5; stroke-linecap: round"/>
   </g>
   <g id="line2d_19">
    <path d="M 442.996364 1772.928 
L 1833.201301 1739.655335 
" clip-path="url(#pfe060ee556)" style="fill: none; stroke: #55a868; stroke-width: 1.5; stroke-linecap: round"/>
   </g>
   <g id="line2d_20"/>
   <g id="line2d_21"/>
   <g id="line2d_22"/>
   <g id="patch_3">
    <path d="M 345.6 1845.504 
L 345.6 248.832 
" style="fill: none; stroke: #cccccc; stroke-width: 1.25; stroke-linejoin: miter; stroke-linecap: square"/>
   </g>
   <g id="patch_4">
    <path d="M 345.6 1845.504 
L 2488.32 1845.504 
" style="fill: none; stroke: #cccccc; stroke-width: 1.25; stroke-linejoin: miter; stroke-linecap: square"/>
   </g>
   <g id="text_19">
    <!-- Bug Discovery History -->
    <g style="fill: #262626" transform="translate(1287.42156 242.832)scale(0.20736 -0.20736)">
     <defs>
      <path id="DejaVuSans-Bold-42" d="M 2456 2859 
Q 2741 2859 2887 2984 
Q 3034 3109 3034 3353 
Q 3034 3594 2887 3720 
Q 2741 3847 2456 3847 
L 1791 3847 
L 1791 2859 
L 2456 2859 
z
M 2497 819 
Q 2859 819 3042 972 
Q 3225 1125 3225 1434 
Q 3225 1738 3044 1889 
Q 2863 2041 2497 2041 
L 1791 2041 
L 1791 819 
L 2497 819 
z
M 3616 2497 
Q 4003 2384 4215 2081 
Q 4428 1778 4428 1338 
Q 4428 663 3972 331 
Q 3516 0 2584 0 
L 588 0 
L 588 4666 
L 2394 4666 
Q 3366 4666 3802 4372 
Q 4238 4078 4238 3431 
Q 4238 3091 4078 2852 
Q 3919 2613 3616 2497 
z
" transform="scale(0.015625)"/>
      <path id="DejaVuSans-Bold-75" d="M 500 1363 
L 500 3500 
L 1625 3500 
L 1625 3150 
Q 1625 2866 1622 2436 
Q 1619 2006 1619 1863 
Q 1619 1441 1641 1255 
Q 1663 1069 1716 984 
Q 1784 875 1895 815 
Q 2006 756 2150 756 
Q 2500 756 2700 1025 
Q 2900 1294 2900 1772 
L 2900 3500 
L 4019 3500 
L 4019 0 
L 2900 0 
L 2900 506 
Q 2647 200 2364 54 
Q 2081 -91 1741 -91 
Q 1134 -91 817 281 
Q 500 653 500 1363 
z
" transform="scale(0.015625)"/>
      <path id="DejaVuSans-Bold-67" d="M 2919 594 
Q 2688 288 2409 144 
Q 2131 0 1766 0 
Q 1125 0 706 504 
Q 288 1009 288 1791 
Q 288 2575 706 3076 
Q 1125 3578 1766 3578 
Q 2131 3578 2409 3434 
Q 2688 3291 2919 2981 
L 2919 3500 
L 4044 3500 
L 4044 353 
Q 4044 -491 3511 -936 
Q 2978 -1381 1966 -1381 
Q 1638 -1381 1331 -1331 
Q 1025 -1281 716 -1178 
L 716 -306 
Q 1009 -475 1290 -558 
Q 1572 -641 1856 -641 
Q 2406 -641 2662 -400 
Q 2919 -159 2919 353 
L 2919 594 
z
M 2181 2772 
Q 1834 2772 1640 2515 
Q 1447 2259 1447 1791 
Q 1447 1309 1634 1061 
Q 1822 813 2181 813 
Q 2531 813 2725 1069 
Q 2919 1325 2919 1791 
Q 2919 2259 2725 2515 
Q 2531 2772 2181 2772 
z
" transform="scale(0.015625)"/>
      <path id="DejaVuSans-Bold-20" transform="scale(0.015625)"/>
      <path id="DejaVuSans-Bold-44" d="M 1791 3756 
L 1791 909 
L 2222 909 
Q 2959 909 3348 1275 
Q 3738 1641 3738 2338 
Q 3738 3031 3350 3393 
Q 2963 3756 2222 3756 
L 1791 3756 
z
M 588 4666 
L 1856 4666 
Q 2919 4666 3439 4514 
Q 3959 4363 4331 4000 
Q 4659 3684 4818 3271 
Q 4978 2859 4978 2338 
Q 4978 1809 4818 1395 
Q 4659 981 4331 666 
Q 3956 303 3431 151 
Q 2906 0 1856 0 
L 588 0 
L 588 4666 
z
" transform="scale(0.015625)"/>
      <path id="DejaVuSans-Bold-69" d="M 538 3500 
L 1656 3500 
L 1656 0 
L 538 0 
L 538 3500 
z
M 538 4863 
L 1656 4863 
L 1656 3950 
L 538 3950 
L 538 4863 
z
" transform="scale(0.015625)"/>
      <path id="DejaVuSans-Bold-73" d="M 3272 3391 
L 3272 2541 
Q 2913 2691 2578 2766 
Q 2244 2841 1947 2841 
Q 1628 2841 1473 2761 
Q 1319 2681 1319 2516 
Q 1319 2381 1436 2309 
Q 1553 2238 1856 2203 
L 2053 2175 
Q 2913 2066 3209 1816 
Q 3506 1566 3506 1031 
Q 3506 472 3093 190 
Q 2681 -91 1863 -91 
Q 1516 -91 1145 -36 
Q 775 19 384 128 
L 384 978 
Q 719 816 1070 734 
Q 1422 653 1784 653 
Q 2113 653 2278 743 
Q 2444 834 2444 1013 
Q 2444 1163 2330 1236 
Q 2216 1309 1875 1350 
L 1678 1375 
Q 931 1469 631 1722 
Q 331 1975 331 2491 
Q 331 3047 712 3315 
Q 1094 3584 1881 3584 
Q 2191 3584 2531 3537 
Q 2872 3491 3272 3391 
z
" transform="scale(0.015625)"/>
      <path id="DejaVuSans-Bold-63" d="M 3366 3391 
L 3366 2478 
Q 3138 2634 2908 2709 
Q 2678 2784 2431 2784 
Q 1963 2784 1702 2511 
Q 1441 2238 1441 1747 
Q 1441 1256 1702 982 
Q 1963 709 2431 709 
Q 2694 709 2930 787 
Q 3166 866 3366 1019 
L 3366 103 
Q 3103 6 2833 -42 
Q 2563 -91 2291 -91 
Q 1344 -91 809 395 
Q 275 881 275 1747 
Q 275 2613 809 3098 
Q 1344 3584 2291 3584 
Q 2566 3584 2833 3536 
Q 3100 3488 3366 3391 
z
" transform="scale(0.015625)"/>
      <path id="DejaVuSans-Bold-6f" d="M 2203 2784 
Q 1831 2784 1636 2517 
Q 1441 2250 1441 1747 
Q 1441 1244 1636 976 
Q 1831 709 2203 709 
Q 2569 709 2762 976 
Q 2956 1244 2956 1747 
Q 2956 2250 2762 2517 
Q 2569 2784 2203 2784 
z
M 2203 3584 
Q 3106 3584 3614 3096 
Q 4122 2609 4122 1747 
Q 4122 884 3614 396 
Q 3106 -91 2203 -91 
Q 1297 -91 786 396 
Q 275 884 275 1747 
Q 275 2609 786 3096 
Q 1297 3584 2203 3584 
z
" transform="scale(0.015625)"/>
      <path id="DejaVuSans-Bold-76" d="M 97 3500 
L 1216 3500 
L 2088 1081 
L 2956 3500 
L 4078 3500 
L 2700 0 
L 1472 0 
L 97 3500 
z
" transform="scale(0.015625)"/>
      <path id="DejaVuSans-Bold-65" d="M 4031 1759 
L 4031 1441 
L 1416 1441 
Q 1456 1047 1700 850 
Q 1944 653 2381 653 
Q 2734 653 3104 758 
Q 3475 863 3866 1075 
L 3866 213 
Q 3469 63 3072 -14 
Q 2675 -91 2278 -91 
Q 1328 -91 801 392 
Q 275 875 275 1747 
Q 275 2603 792 3093 
Q 1309 3584 2216 3584 
Q 3041 3584 3536 3087 
Q 4031 2591 4031 1759 
z
M 2881 2131 
Q 2881 2450 2695 2645 
Q 2509 2841 2209 2841 
Q 1884 2841 1681 2658 
Q 1478 2475 1428 2131 
L 2881 2131 
z
" transform="scale(0.015625)"/>
      <path id="DejaVuSans-Bold-72" d="M 3138 2547 
Q 2991 2616 2845 2648 
Q 2700 2681 2553 2681 
Q 2122 2681 1889 2404 
Q 1656 2128 1656 1613 
L 1656 0 
L 538 0 
L 538 3500 
L 1656 3500 
L 1656 2925 
Q 1872 3269 2151 3426 
Q 2431 3584 2822 3584 
Q 2878 3584 2943 3579 
Q 3009 3575 3134 3559 
L 3138 2547 
z
" transform="scale(0.015625)"/>
      <path id="DejaVuSans-Bold-79" d="M 78 3500 
L 1197 3500 
L 2138 1125 
L 2938 3500 
L 4056 3500 
L 2584 -331 
Q 2363 -916 2067 -1148 
Q 1772 -1381 1288 -1381 
L 641 -1381 
L 641 -647 
L 991 -647 
Q 1275 -647 1404 -556 
Q 1534 -466 1606 -231 
L 1638 -134 
L 78 3500 
z
" transform="scale(0.015625)"/>
      <path id="DejaVuSans-Bold-48" d="M 588 4666 
L 1791 4666 
L 1791 2888 
L 3566 2888 
L 3566 4666 
L 4769 4666 
L 4769 0 
L 3566 0 
L 3566 1978 
L 1791 1978 
L 1791 0 
L 588 0 
L 588 4666 
z
" transform="scale(0.015625)"/>
      <path id="DejaVuSans-Bold-74" d="M 1759 4494 
L 1759 3500 
L 2913 3500 
L 2913 2700 
L 1759 2700 
L 1759 1216 
Q 1759 972 1856 886 
Q 1953 800 2241 800 
L 2816 800 
L 2816 0 
L 1856 0 
Q 1194 0 917 276 
Q 641 553 641 1216 
L 641 2700 
L 84 2700 
L 84 3500 
L 641 3500 
L 641 4494 
L 1759 4494 
z
" transform="scale(0.015625)"/>
     </defs>
     <use xlink:href="#DejaVuSans-Bold-42"/>
     <use xlink:href="#DejaVuSans-Bold-75" x="76.220703"/>
     <use xlink:href="#DejaVuSans-Bold-67" x="147.412109"/>
     <use xlink:href="#DejaVuSans-Bold-20" x="218.994141"/>
     <use xlink:href="#DejaVuSans-Bold-44" x="253.808594"/>
     <use xlink:href="#DejaVuSans-Bold-69" x="336.816406"/>
     <use xlink:href="#DejaVuSans-Bold-73" x="371.09375"/>
     <use xlink:href="#DejaVuSans-Bold-63" x="430.615234"/>
     <use xlink:href="#DejaVuSans-Bold-6f" x="489.892578"/>
     <use xlink:href="#DejaVuSans-Bold-76" x="558.59375"/>
     <use xlink:href="#DejaVuSans-Bold-65" x="623.779297"/>
     <use xlink:href="#DejaVuSans-Bold-72" x="691.601562"/>
     <use xlink:href="#DejaVuSans-Bold-79" x="740.917969"/>
     <use xlink:href="#DejaVuSans-Bold-20" x="806.103516"/>
     <use xlink:href="#DejaVuSans-Bold-48" x="840.917969"/>
     <use xlink:href="#DejaVuSans-Bold-69" x="924.609375"/>
     <use xlink:href="#DejaVuSans-Bold-73" x="958.886719"/>
     <use xlink:href="#DejaVuSans-Bold-74" x="1018.408203"/>
     <use xlink:href="#DejaVuSans-Bold-6f" x="1066.210938"/>
     <use xlink:href="#DejaVuSans-Bold-72" x="1134.912109"/>
     <use xlink:href="#DejaVuSans-Bold-79" x="1184.228516"/>
    </g>
   </g>
   <g id="legend_1">
    <g id="patch_5">
     <path d="M 353.3 323.183562 
L 481.140625 323.183562 
Q 483.340625 323.183562 483.340625 320.983562 
L 483.340625 256.532 
Q 483.340625 254.332 481.140625 254.332 
L 353.3 254.332 
Q 351.1 254.332 351.1 256.532 
L 351.1 320.983562 
Q 351.1 323.183562 353.3 323.183562 
z
" style="fill: #ffffff; opacity: 0.8; stroke: #cccccc; stroke-linejoin: miter"/>
    </g>
    <g id="text_20">
     <!-- fuzzer -->
     <g style="fill: #262626" transform="translate(398.849062 267.850125)scale(0.12 -0.12)">
      <defs>
       <path id="DejaVuSans-66" d="M 2375 4863 
L 2375 4384 
L 1825 4384 
Q 1516 4384 1395 4259 
Q 1275 4134 1275 3809 
L 1275 3500 
L 2222 3500 
L 2222 3053 
L 1275 3053 
L 1275 0 
L 697 0 
L 697 3053 
L 147 3053 
L 147 3500 
L 697 3500 
L 697 3744 
Q 697 4328 969 4595 
Q 1241 4863 1831 4863 
L 2375 4863 
z
" transform="scale(0.015625)"/>
       <path id="DejaVuSans-7a" d="M 353 3500 
L 3084 3500 
L 3084 2975 
L 922 459 
L 3084 459 
L 3084 0 
L 275 0 
L 275 525 
L 2438 3041 
L 353 3041 
L 353 3500 
z
" transform="scale(0.015625)"/>
      </defs>
      <use xlink:href="#DejaVuSans-66"/>
      <use xlink:href="#DejaVuSans-75" x="35.205078"/>
      <use xlink:href="#DejaVuSans-7a" x="98.583984"/>
      <use xlink:href="#DejaVuSans-7a" x="151.074219"/>
      <use xlink:href="#DejaVuSans-65" x="203.564453"/>
      <use xlink:href="#DejaVuSans-72" x="265.087891"/>
     </g>
    </g>
    <g id="line2d_23">
     <path d="M 355.5 280.354031 
L 366.5 280.354031 
L 377.5 280.354031 
" style="fill: none; stroke: #4c72b0; stroke-width: 1.5; stroke-linecap: round"/>
    </g>
    <g id="text_21">
     <!-- fairfuzz-0-exid20 -->
     <g style="fill: #262626" transform="translate(386.3 284.204031)scale(0.11 -0.11)">
      <defs>
       <path id="DejaVuSans-61" d="M 2194 1759 
Q 1497 1759 1228 1600 
Q 959 1441 959 1056 
Q 959 750 1161 570 
Q 1363 391 1709 391 
Q 2188 391 2477 730 
Q 2766 1069 2766 1631 
L 2766 1759 
L 2194 1759 
z
M 3341 1997 
L 3341 0 
L 2766 0 
L 2766 531 
Q 2569 213 2275 61 
Q 1981 -91 1556 -91 
Q 1019 -91 701 211 
Q 384 513 384 1019 
Q 384 1609 779 1909 
Q 1175 2209 1959 2209 
L 2766 2209 
L 2766 2266 
Q 2766 2663 2505 2880 
Q 2244 3097 1772 3097 
Q 1472 3097 1187 3025 
Q 903 2953 641 2809 
L 641 3341 
Q 956 3463 1253 3523 
Q 1550 3584 1831 3584 
Q 2591 3584 2966 3190 
Q 3341 2797 3341 1997 
z
" transform="scale(0.015625)"/>
       <path id="DejaVuSans-2d" d="M 313 2009 
L 1997 2009 
L 1997 1497 
L 313 1497 
L 313 2009 
z
" transform="scale(0.015625)"/>
       <path id="DejaVuSans-78" d="M 3513 3500 
L 2247 1797 
L 3578 0 
L 2900 0 
L 1881 1375 
L 863 0 
L 184 0 
L 1544 1831 
L 300 3500 
L 978 3500 
L 1906 2253 
L 2834 3500 
L 3513 3500 
z
" transform="scale(0.015625)"/>
       <path id="DejaVuSans-64" d="M 2906 2969 
L 2906 4863 
L 3481 4863 
L 3481 0 
L 2906 0 
L 2906 525 
Q 2725 213 2448 61 
Q 2172 -91 1784 -91 
Q 1150 -91 751 415 
Q 353 922 353 1747 
Q 353 2572 751 3078 
Q 1150 3584 1784 3584 
Q 2172 3584 2448 3432 
Q 2725 3281 2906 2969 
z
M 947 1747 
Q 947 1113 1208 752 
Q 1469 391 1925 391 
Q 2381 391 2643 752 
Q 2906 1113 2906 1747 
Q 2906 2381 2643 2742 
Q 2381 3103 1925 3103 
Q 1469 3103 1208 2742 
Q 947 2381 947 1747 
z
" transform="scale(0.015625)"/>
      </defs>
      <use xlink:href="#DejaVuSans-66"/>
      <use xlink:href="#DejaVuSans-61" x="35.205078"/>
      <use xlink:href="#DejaVuSans-69" x="96.484375"/>
      <use xlink:href="#DejaVuSans-72" x="124.267578"/>
      <use xlink:href="#DejaVuSans-66" x="165.380859"/>
      <use xlink:href="#DejaVuSans-75" x="200.585938"/>
      <use xlink:href="#DejaVuSans-7a" x="263.964844"/>
      <use xlink:href="#DejaVuSans-7a" x="316.455078"/>
      <use xlink:href="#DejaVuSans-2d" x="368.945312"/>
      <use xlink:href="#DejaVuSans-30" x="405.029297"/>
      <use xlink:href="#DejaVuSans-2d" x="468.652344"/>
      <use xlink:href="#DejaVuSans-65" x="504.736328"/>
      <use xlink:href="#DejaVuSans-78" x="564.509766"/>
      <use xlink:href="#DejaVuSans-69" x="623.689453"/>
      <use xlink:href="#DejaVuSans-64" x="651.472656"/>
      <use xlink:href="#DejaVuSans-32" x="714.949219"/>
      <use xlink:href="#DejaVuSans-30" x="778.572266"/>
     </g>
    </g>
    <g id="line2d_24">
     <path d="M 355.5 296.499969 
L 366.5 296.499969 
L 377.5 296.499969 
" style="fill: none; stroke: #dd8452; stroke-width: 1.5; stroke-linecap: round"/>
    </g>
    <g id="text_22">
     <!-- afl-0-exid20 -->
     <g style="fill: #262626" transform="translate(386.3 300.349969)scale(0.11 -0.11)">
      <defs>
       <path id="DejaVuSans-6c" d="M 603 4863 
L 1178 4863 
L 1178 0 
L 603 0 
L 603 4863 
z
" transform="scale(0.015625)"/>
      </defs>
      <use xlink:href="#DejaVuSans-61"/>
      <use xlink:href="#DejaVuSans-66" x="61.279297"/>
      <use xlink:href="#DejaVuSans-6c" x="96.484375"/>
      <use xlink:href="#DejaVuSans-2d" x="124.267578"/>
      <use xlink:href="#DejaVuSans-30" x="160.351562"/>
      <use xlink:href="#DejaVuSans-2d" x="223.974609"/>
      <use xlink:href="#DejaVuSans-65" x="260.058594"/>
      <use xlink:href="#DejaVuSans-78" x="319.832031"/>
      <use xlink:href="#DejaVuSans-69" x="379.011719"/>
      <use xlink:href="#DejaVuSans-64" x="406.794922"/>
      <use xlink:href="#DejaVuSans-32" x="470.271484"/>
      <use xlink:href="#DejaVuSans-30" x="533.894531"/>
     </g>
    </g>
    <g id="line2d_25">
     <path d="M 355.5 312.645906 
L 366.5 312.645906 
L 377.5 312.645906 
" style="fill: none; stroke: #55a868; stroke-width: 1.5; stroke-linecap: round"/>
    </g>
    <g id="text_23">
     <!-- aflfast-0-exid20 -->
     <g style="fill: #262626" transform="translate(386.3 316.495906)scale(0.11 -0.11)">
      <use xlink:href="#DejaVuSans-61"/>
      <use xlink:href="#DejaVuSans-66" x="61.279297"/>
      <use xlink:href="#DejaVuSans-6c" x="96.484375"/>
      <use xlink:href="#DejaVuSans-66" x="124.267578"/>
      <use xlink:href="#DejaVuSans-61" x="159.472656"/>
      <use xlink:href="#DejaVuSans-73" x="220.751953"/>
      <use xlink:href="#DejaVuSans-74" x="272.851562"/>
      <use xlink:href="#DejaVuSans-2d" x="312.060547"/>
      <use xlink:href="#DejaVuSans-30" x="348.144531"/>
      <use xlink:href="#DejaVuSans-2d" x="411.767578"/>
      <use xlink:href="#DejaVuSans-65" x="447.851562"/>
      <use xlink:href="#DejaVuSans-78" x="507.625"/>
      <use xlink:href="#DejaVuSans-69" x="566.804688"/>
      <use xlink:href="#DejaVuSans-64" x="594.587891"/>
      <use xlink:href="#DejaVuSans-32" x="658.064453"/>
      <use xlink:href="#DejaVuSans-30" x="721.6875"/>
     </g>
    </g>
   </g>
  </g>
 </g>
 <defs>
  <clipPath id="pfe060ee556">
   <rect x="345.6" y="248.832" width="2142.72" height="1596.672"/>
  </clipPath>
 </defs>
</svg>
