<?xml version="1.0" encoding="utf-8" standalone="no"?>
<!DOCTYPE svg PUBLIC "-//W3C//DTD SVG 1.1//EN"
  "http://www.w3.org/Graphics/SVG/1.1/DTD/svg11.dtd">
<svg xmlns:xlink="http://www.w3.org/1999/xlink" width="434.7pt" height="576pt" viewBox="0 0 434.7 576" xmlns="http://www.w3.org/2000/svg" version="1.1">
 <metadata>
  <rdf:RDF xmlns:dc="http://purl.org/dc/elements/1.1/" xmlns:cc="http://creativecommons.org/ns#" xmlns:rdf="http://www.w3.org/1999/02/22-rdf-syntax-ns#">
   <cc:Work>
    <dc:type rdf:resource="http://purl.org/dc/dcmitype/StillImage"/>
    <dc:date>2022-09-15T10:27:42.562604</dc:date>
    <dc:format>image/svg+xml</dc:format>
    <dc:creator>
     <cc:Agent>
      <dc:title>Matplotlib v3.5.3, https://matplotlib.org/</dc:title>
     </cc:Agent>
    </dc:creator>
   </cc:Work>
  </rdf:RDF>
 </metadata>
 <defs>
  <style type="text/css">*{stroke-linejoin: round; stroke-linecap: butt}</style>
 </defs>
 <g id="figure_1">
  <g id="patch_1">
   <path d="M 0 576 
L 434.7 576 
L 434.7 0 
L 0 0 
z
" style="fill: #ffffff"/>
  </g>
  <g id="axes_1">
   <g id="patch_2">
    <path d="M 54.3375 512.64 
L 391.23 512.64 
L 391.23 69.12 
L 54.3375 69.12 
z
" style="fill: #ffffff"/>
   </g>
   <g id="matplotlib.axis_1">
    <g id="xtick_1">
     <g id="line2d_1">
      <path d="M 69.650795 512.64 
L 69.650795 69.12 
" clip-path="url(#p3802ea357a)" style="fill: none; stroke: #cccccc; stroke-width: 0.8; stroke-linecap: round"/>
     </g>
     <g id="text_1">
      <!-- 0 -->
      <g style="fill: #262626" transform="translate(69.388282 529.627249)rotate(-45)scale(0.088 -0.088)">
       <defs>
        <path id="DejaVuSans-30" d="M 2034 4250 
Q 1547 4250 1301 3770 
Q 1056 3291 1056 2328 
Q 1056 1369 1301 889 
Q 1547 409 2034 409 
Q 2525 409 2770 889 
Q 3016 1369 3016 2328 
Q 3016 3291 2770 3770 
Q 2525 4250 2034 4250 
z
M 2034 4750 
Q 2819 4750 3233 4129 
Q 3647 3509 3647 2328 
Q 3647 1150 3233 529 
Q 2819 -91 2034 -91 
Q 1250 -91 836 529 
Q 422 1150 422 2328 
Q 422 3509 836 4129 
Q 1250 4750 2034 4750 
z
" transform="scale(0.015625)"/>
       </defs>
       <use xlink:href="#DejaVuSans-30"/>
      </g>
     </g>
    </g>
    <g id="xtick_2">
     <g id="line2d_2">
      <path d="M 86.677392 512.64 
L 86.677392 69.12 
" clip-path="url(#p3802ea357a)" style="fill: none; stroke: #cccccc; stroke-width: 0.8; stroke-linecap: round"/>
     </g>
     <g id="text_2">
      <!-- 80 -->
      <g style="fill: #262626" transform="translate(84.435333 533.58634)rotate(-45)scale(0.088 -0.088)">
       <defs>
        <path id="DejaVuSans-38" d="M 2034 2216 
Q 1584 2216 1326 1975 
Q 1069 1734 1069 1313 
Q 1069 891 1326 650 
Q 1584 409 2034 409 
Q 2484 409 2743 651 
Q 3003 894 3003 1313 
Q 3003 1734 2745 1975 
Q 2488 2216 2034 2216 
z
M 1403 2484 
Q 997 2584 770 2862 
Q 544 3141 544 3541 
Q 544 4100 942 4425 
Q 1341 4750 2034 4750 
Q 2731 4750 3128 4425 
Q 3525 4100 3525 3541 
Q 3525 3141 3298 2862 
Q 3072 2584 2669 2484 
Q 3125 2378 3379 2068 
Q 3634 1759 3634 1313 
Q 3634 634 3220 271 
Q 2806 -91 2034 -91 
Q 1263 -91 848 271 
Q 434 634 434 1313 
Q 434 1759 690 2068 
Q 947 2378 1403 2484 
z
M 1172 3481 
Q 1172 3119 1398 2916 
Q 1625 2713 2034 2713 
Q 2441 2713 2670 2916 
Q 2900 3119 2900 3481 
Q 2900 3844 2670 4047 
Q 2441 4250 2034 4250 
Q 1625 4250 1398 4047 
Q 1172 3844 1172 3481 
z
" transform="scale(0.015625)"/>
       </defs>
       <use xlink:href="#DejaVuSans-38"/>
       <use xlink:href="#DejaVuSans-30" x="63.623047"/>
      </g>
     </g>
    </g>
    <g id="xtick_3">
     <g id="line2d_3">
      <path d="M 103.703989 512.64 
L 103.703989 69.12 
" clip-path="url(#p3802ea357a)" style="fill: none; stroke: #cccccc; stroke-width: 0.8; stroke-linecap: round"/>
     </g>
     <g id="text_3">
      <!-- 160 -->
      <g style="fill: #262626" transform="translate(99.482385 537.54543)rotate(-45)scale(0.088 -0.088)">
       <defs>
        <path id="DejaVuSans-31" d="M 794 531 
L 1825 531 
L 1825 4091 
L 703 3866 
L 703 4441 
L 1819 4666 
L 2450 4666 
L 2450 531 
L 3481 531 
L 3481 0 
L 794 0 
L 794 531 
z
" transform="scale(0.015625)"/>
        <path id="DejaVuSans-36" d="M 2113 2584 
Q 1688 2584 1439 2293 
Q 1191 2003 1191 1497 
Q 1191 994 1439 701 
Q 1688 409 2113 409 
Q 2538 409 2786 701 
Q 3034 994 3034 1497 
Q 3034 2003 2786 2293 
Q 2538 2584 2113 2584 
z
M 3366 4563 
L 3366 3988 
Q 3128 4100 2886 4159 
Q 2644 4219 2406 4219 
Q 1781 4219 1451 3797 
Q 1122 3375 1075 2522 
Q 1259 2794 1537 2939 
Q 1816 3084 2150 3084 
Q 2853 3084 3261 2657 
Q 3669 2231 3669 1497 
Q 3669 778 3244 343 
Q 2819 -91 2113 -91 
Q 1303 -91 875 529 
Q 447 1150 447 2328 
Q 447 3434 972 4092 
Q 1497 4750 2381 4750 
Q 2619 4750 2861 4703 
Q 3103 4656 3366 4563 
z
" transform="scale(0.015625)"/>
       </defs>
       <use xlink:href="#DejaVuSans-31"/>
       <use xlink:href="#DejaVuSans-36" x="63.623047"/>
       <use xlink:href="#DejaVuSans-30" x="127.246094"/>
      </g>
     </g>
    </g>
    <g id="xtick_4">
     <g id="line2d_4">
      <path d="M 120.730586 512.64 
L 120.730586 69.12 
" clip-path="url(#p3802ea357a)" style="fill: none; stroke: #cccccc; stroke-width: 0.8; stroke-linecap: round"/>
     </g>
     <g id="text_4">
      <!-- 240 -->
      <g style="fill: #262626" transform="translate(116.508981 537.54543)rotate(-45)scale(0.088 -0.088)">
       <defs>
        <path id="DejaVuSans-32" d="M 1228 531 
L 3431 531 
L 3431 0 
L 469 0 
L 469 531 
Q 828 903 1448 1529 
Q 2069 2156 2228 2338 
Q 2531 2678 2651 2914 
Q 2772 3150 2772 3378 
Q 2772 3750 2511 3984 
Q 2250 4219 1831 4219 
Q 1534 4219 1204 4116 
Q 875 4013 500 3803 
L 500 4441 
Q 881 4594 1212 4672 
Q 1544 4750 1819 4750 
Q 2544 4750 2975 4387 
Q 3406 4025 3406 3419 
Q 3406 3131 3298 2873 
Q 3191 2616 2906 2266 
Q 2828 2175 2409 1742 
Q 1991 1309 1228 531 
z
" transform="scale(0.015625)"/>
        <path id="DejaVuSans-34" d="M 2419 4116 
L 825 1625 
L 2419 1625 
L 2419 4116 
z
M 2253 4666 
L 3047 4666 
L 3047 1625 
L 3713 1625 
L 3713 1100 
L 3047 1100 
L 3047 0 
L 2419 0 
L 2419 1100 
L 313 1100 
L 313 1709 
L 2253 4666 
z
" transform="scale(0.015625)"/>
       </defs>
       <use xlink:href="#DejaVuSans-32"/>
       <use xlink:href="#DejaVuSans-34" x="63.623047"/>
       <use xlink:href="#DejaVuSans-30" x="127.246094"/>
      </g>
     </g>
    </g>
    <g id="xtick_5">
     <g id="line2d_5">
      <path d="M 137.757182 512.64 
L 137.757182 69.12 
" clip-path="url(#p3802ea357a)" style="fill: none; stroke: #cccccc; stroke-width: 0.8; stroke-linecap: round"/>
     </g>
     <g id="text_5">
      <!-- 320 -->
      <g style="fill: #262626" transform="translate(133.535578 537.54543)rotate(-45)scale(0.088 -0.088)">
       <defs>
        <path id="DejaVuSans-33" d="M 2597 2516 
Q 3050 2419 3304 2112 
Q 3559 1806 3559 1356 
Q 3559 666 3084 287 
Q 2609 -91 1734 -91 
Q 1441 -91 1130 -33 
Q 819 25 488 141 
L 488 750 
Q 750 597 1062 519 
Q 1375 441 1716 441 
Q 2309 441 2620 675 
Q 2931 909 2931 1356 
Q 2931 1769 2642 2001 
Q 2353 2234 1838 2234 
L 1294 2234 
L 1294 2753 
L 1863 2753 
Q 2328 2753 2575 2939 
Q 2822 3125 2822 3475 
Q 2822 3834 2567 4026 
Q 2313 4219 1838 4219 
Q 1578 4219 1281 4162 
Q 984 4106 628 3988 
L 628 4550 
Q 988 4650 1302 4700 
Q 1616 4750 1894 4750 
Q 2613 4750 3031 4423 
Q 3450 4097 3450 3541 
Q 3450 3153 3228 2886 
Q 3006 2619 2597 2516 
z
" transform="scale(0.015625)"/>
       </defs>
       <use xlink:href="#DejaVuSans-33"/>
       <use xlink:href="#DejaVuSans-32" x="63.623047"/>
       <use xlink:href="#DejaVuSans-30" x="127.246094"/>
      </g>
     </g>
    </g>
    <g id="xtick_6">
     <g id="line2d_6">
      <path d="M 154.783779 512.64 
L 154.783779 69.12 
" clip-path="url(#p3802ea357a)" style="fill: none; stroke: #cccccc; stroke-width: 0.8; stroke-linecap: round"/>
     </g>
     <g id="text_6">
      <!-- 400 -->
      <g style="fill: #262626" transform="translate(150.562175 537.54543)rotate(-45)scale(0.088 -0.088)">
       <use xlink:href="#DejaVuSans-34"/>
       <use xlink:href="#DejaVuSans-30" x="63.623047"/>
       <use xlink:href="#DejaVuSans-30" x="127.246094"/>
      </g>
     </g>
    </g>
    <g id="xtick_7">
     <g id="line2d_7">
      <path d="M 171.810376 512.64 
L 171.810376 69.12 
" clip-path="url(#p3802ea357a)" style="fill: none; stroke: #cccccc; stroke-width: 0.8; stroke-linecap: round"/>
     </g>
     <g id="text_7">
      <!-- 480 -->
      <g style="fill: #262626" transform="translate(167.588772 537.54543)rotate(-45)scale(0.088 -0.088)">
       <use xlink:href="#DejaVuSans-34"/>
       <use xlink:href="#DejaVuSans-38" x="63.623047"/>
       <use xlink:href="#DejaVuSans-30" x="127.246094"/>
      </g>
     </g>
    </g>
    <g id="xtick_8">
     <g id="line2d_8">
      <path d="M 188.836973 512.64 
L 188.836973 69.12 
" clip-path="url(#p3802ea357a)" style="fill: none; stroke: #cccccc; stroke-width: 0.8; stroke-linecap: round"/>
     </g>
     <g id="text_8">
      <!-- 560 -->
      <g style="fill: #262626" transform="translate(184.615368 537.54543)rotate(-45)scale(0.088 -0.088)">
       <defs>
        <path id="DejaVuSans-35" d="M 691 4666 
L 3169 4666 
L 3169 4134 
L 1269 4134 
L 1269 2991 
Q 1406 3038 1543 3061 
Q 1681 3084 1819 3084 
Q 2600 3084 3056 2656 
Q 3513 2228 3513 1497 
Q 3513 744 3044 326 
Q 2575 -91 1722 -91 
Q 1428 -91 1123 -41 
Q 819 9 494 109 
L 494 744 
Q 775 591 1075 516 
Q 1375 441 1709 441 
Q 2250 441 2565 725 
Q 2881 1009 2881 1497 
Q 2881 1984 2565 2268 
Q 2250 2553 1709 2553 
Q 1456 2553 1204 2497 
Q 953 2441 691 2322 
L 691 4666 
z
" transform="scale(0.015625)"/>
       </defs>
       <use xlink:href="#DejaVuSans-35"/>
       <use xlink:href="#DejaVuSans-36" x="63.623047"/>
       <use xlink:href="#DejaVuSans-30" x="127.246094"/>
      </g>
     </g>
    </g>
    <g id="xtick_9">
     <g id="line2d_9">
      <path d="M 205.863569 512.64 
L 205.863569 69.12 
" clip-path="url(#p3802ea357a)" style="fill: none; stroke: #cccccc; stroke-width: 0.8; stroke-linecap: round"/>
     </g>
     <g id="text_9">
      <!-- 640 -->
      <g style="fill: #262626" transform="translate(201.641965 537.54543)rotate(-45)scale(0.088 -0.088)">
       <use xlink:href="#DejaVuSans-36"/>
       <use xlink:href="#DejaVuSans-34" x="63.623047"/>
       <use xlink:href="#DejaVuSans-30" x="127.246094"/>
      </g>
     </g>
    </g>
    <g id="xtick_10">
     <g id="line2d_10">
      <path d="M 222.890166 512.64 
L 222.890166 69.12 
" clip-path="url(#p3802ea357a)" style="fill: none; stroke: #cccccc; stroke-width: 0.8; stroke-linecap: round"/>
     </g>
     <g id="text_10">
      <!-- 720 -->
      <g style="fill: #262626" transform="translate(218.668562 537.54543)rotate(-45)scale(0.088 -0.088)">
       <defs>
        <path id="DejaVuSans-37" d="M 525 4666 
L 3525 4666 
L 3525 4397 
L 1831 0 
L 1172 0 
L 2766 4134 
L 525 4134 
L 525 4666 
z
" transform="scale(0.015625)"/>
       </defs>
       <use xlink:href="#DejaVuSans-37"/>
       <use xlink:href="#DejaVuSans-32" x="63.623047"/>
       <use xlink:href="#DejaVuSans-30" x="127.246094"/>
      </g>
     </g>
    </g>
    <g id="xtick_11">
     <g id="line2d_11">
      <path d="M 239.916763 512.64 
L 239.916763 69.12 
" clip-path="url(#p3802ea357a)" style="fill: none; stroke: #cccccc; stroke-width: 0.8; stroke-linecap: round"/>
     </g>
     <g id="text_11">
      <!-- 800 -->
      <g style="fill: #262626" transform="translate(235.695159 537.54543)rotate(-45)scale(0.088 -0.088)">
       <use xlink:href="#DejaVuSans-38"/>
       <use xlink:href="#DejaVuSans-30" x="63.623047"/>
       <use xlink:href="#DejaVuSans-30" x="127.246094"/>
      </g>
     </g>
    </g>
    <g id="xtick_12">
     <g id="line2d_12">
      <path d="M 256.94336 512.64 
L 256.94336 69.12 
" clip-path="url(#p3802ea357a)" style="fill: none; stroke: #cccccc; stroke-width: 0.8; stroke-linecap: round"/>
     </g>
     <g id="text_12">
      <!-- 880 -->
      <g style="fill: #262626" transform="translate(252.721755 537.54543)rotate(-45)scale(0.088 -0.088)">
       <use xlink:href="#DejaVuSans-38"/>
       <use xlink:href="#DejaVuSans-38" x="63.623047"/>
       <use xlink:href="#DejaVuSans-30" x="127.246094"/>
      </g>
     </g>
    </g>
    <g id="xtick_13">
     <g id="line2d_13">
      <path d="M 273.969956 512.64 
L 273.969956 69.12 
" clip-path="url(#p3802ea357a)" style="fill: none; stroke: #cccccc; stroke-width: 0.8; stroke-linecap: round"/>
     </g>
     <g id="text_13">
      <!-- 960 -->
      <g style="fill: #262626" transform="translate(269.748352 537.54543)rotate(-45)scale(0.088 -0.088)">
       <defs>
        <path id="DejaVuSans-39" d="M 703 97 
L 703 672 
Q 941 559 1184 500 
Q 1428 441 1663 441 
Q 2288 441 2617 861 
Q 2947 1281 2994 2138 
Q 2813 1869 2534 1725 
Q 2256 1581 1919 1581 
Q 1219 1581 811 2004 
Q 403 2428 403 3163 
Q 403 3881 828 4315 
Q 1253 4750 1959 4750 
Q 2769 4750 3195 4129 
Q 3622 3509 3622 2328 
Q 3622 1225 3098 567 
Q 2575 -91 1691 -91 
Q 1453 -91 1209 -44 
Q 966 3 703 97 
z
M 1959 2075 
Q 2384 2075 2632 2365 
Q 2881 2656 2881 3163 
Q 2881 3666 2632 3958 
Q 2384 4250 1959 4250 
Q 1534 4250 1286 3958 
Q 1038 3666 1038 3163 
Q 1038 2656 1286 2365 
Q 1534 2075 1959 2075 
z
" transform="scale(0.015625)"/>
       </defs>
       <use xlink:href="#DejaVuSans-39"/>
       <use xlink:href="#DejaVuSans-36" x="63.623047"/>
       <use xlink:href="#DejaVuSans-30" x="127.246094"/>
      </g>
     </g>
    </g>
    <g id="xtick_14">
     <g id="line2d_14">
      <path d="M 290.996553 512.64 
L 290.996553 69.12 
" clip-path="url(#p3802ea357a)" style="fill: none; stroke: #cccccc; stroke-width: 0.8; stroke-linecap: round"/>
     </g>
     <g id="text_14">
      <!-- 1040 -->
      <g style="fill: #262626" transform="translate(284.795404 541.504521)rotate(-45)scale(0.088 -0.088)">
       <use xlink:href="#DejaVuSans-31"/>
       <use xlink:href="#DejaVuSans-30" x="63.623047"/>
       <use xlink:href="#DejaVuSans-34" x="127.246094"/>
       <use xlink:href="#DejaVuSans-30" x="190.869141"/>
      </g>
     </g>
    </g>
    <g id="xtick_15">
     <g id="line2d_15">
      <path d="M 308.02315 512.64 
L 308.02315 69.12 
" clip-path="url(#p3802ea357a)" style="fill: none; stroke: #cccccc; stroke-width: 0.8; stroke-linecap: round"/>
     </g>
     <g id="text_15">
      <!-- 1120 -->
      <g style="fill: #262626" transform="translate(301.822 541.504521)rotate(-45)scale(0.088 -0.088)">
       <use xlink:href="#DejaVuSans-31"/>
       <use xlink:href="#DejaVuSans-31" x="63.623047"/>
       <use xlink:href="#DejaVuSans-32" x="127.246094"/>
       <use xlink:href="#DejaVuSans-30" x="190.869141"/>
      </g>
     </g>
    </g>
    <g id="xtick_16">
     <g id="line2d_16">
      <path d="M 325.049747 512.64 
L 325.049747 69.12 
" clip-path="url(#p3802ea357a)" style="fill: none; stroke: #cccccc; stroke-width: 0.8; stroke-linecap: round"/>
     </g>
     <g id="text_16">
      <!-- 1200 -->
      <g style="fill: #262626" transform="translate(318.848597 541.504521)rotate(-45)scale(0.088 -0.088)">
       <use xlink:href="#DejaVuSans-31"/>
       <use xlink:href="#DejaVuSans-32" x="63.623047"/>
       <use xlink:href="#DejaVuSans-30" x="127.246094"/>
       <use xlink:href="#DejaVuSans-30" x="190.869141"/>
      </g>
     </g>
    </g>
    <g id="xtick_17">
     <g id="line2d_17">
      <path d="M 342.076343 512.64 
L 342.076343 69.12 
" clip-path="url(#p3802ea357a)" style="fill: none; stroke: #cccccc; stroke-width: 0.8; stroke-linecap: round"/>
     </g>
     <g id="text_17">
      <!-- 1280 -->
      <g style="fill: #262626" transform="translate(335.875194 541.504521)rotate(-45)scale(0.088 -0.088)">
       <use xlink:href="#DejaVuSans-31"/>
       <use xlink:href="#DejaVuSans-32" x="63.623047"/>
       <use xlink:href="#DejaVuSans-38" x="127.246094"/>
       <use xlink:href="#DejaVuSans-30" x="190.869141"/>
      </g>
     </g>
    </g>
    <g id="xtick_18">
     <g id="line2d_18">
      <path d="M 359.10294 512.64 
L 359.10294 69.12 
" clip-path="url(#p3802ea357a)" style="fill: none; stroke: #cccccc; stroke-width: 0.8; stroke-linecap: round"/>
     </g>
     <g id="text_18">
      <!-- 1360 -->
      <g style="fill: #262626" transform="translate(352.901791 541.504521)rotate(-45)scale(0.088 -0.088)">
       <use xlink:href="#DejaVuSans-31"/>
       <use xlink:href="#DejaVuSans-33" x="63.623047"/>
       <use xlink:href="#DejaVuSans-36" x="127.246094"/>
       <use xlink:href="#DejaVuSans-30" x="190.869141"/>
      </g>
     </g>
    </g>
    <g id="xtick_19">
     <g id="line2d_19">
      <path d="M 376.129537 512.64 
L 376.129537 69.12 
" clip-path="url(#p3802ea357a)" style="fill: none; stroke: #cccccc; stroke-width: 0.8; stroke-linecap: round"/>
     </g>
     <g id="text_19">
      <!-- 1440 -->
      <g style="fill: #262626" transform="translate(369.928387 541.504521)rotate(-45)scale(0.088 -0.088)">
       <use xlink:href="#DejaVuSans-31"/>
       <use xlink:href="#DejaVuSans-34" x="63.623047"/>
       <use xlink:href="#DejaVuSans-34" x="127.246094"/>
       <use xlink:href="#DejaVuSans-30" x="190.869141"/>
      </g>
     </g>
    </g>
    <g id="text_20">
     <!-- Time (Minutes) -->
     <g style="fill: #262626" transform="translate(186.87375 554.093115)scale(0.096 -0.096)">
      <defs>
       <path id="DejaVuSans-54" d="M -19 4666 
L 3928 4666 
L 3928 4134 
L 2272 4134 
L 2272 0 
L 1638 0 
L 1638 4134 
L -19 4134 
L -19 4666 
z
" transform="scale(0.015625)"/>
       <path id="DejaVuSans-69" d="M 603 3500 
L 1178 3500 
L 1178 0 
L 603 0 
L 603 3500 
z
M 603 4863 
L 1178 4863 
L 1178 4134 
L 603 4134 
L 603 4863 
z
" transform="scale(0.015625)"/>
       <path id="DejaVuSans-6d" d="M 3328 2828 
Q 3544 3216 3844 3400 
Q 4144 3584 4550 3584 
Q 5097 3584 5394 3201 
Q 5691 2819 5691 2113 
L 5691 0 
L 5113 0 
L 5113 2094 
Q 5113 2597 4934 2840 
Q 4756 3084 4391 3084 
Q 3944 3084 3684 2787 
Q 3425 2491 3425 1978 
L 3425 0 
L 2847 0 
L 2847 2094 
Q 2847 2600 2669 2842 
Q 2491 3084 2119 3084 
Q 1678 3084 1418 2786 
Q 1159 2488 1159 1978 
L 1159 0 
L 581 0 
L 581 3500 
L 1159 3500 
L 1159 2956 
Q 1356 3278 1631 3431 
Q 1906 3584 2284 3584 
Q 2666 3584 2933 3390 
Q 3200 3197 3328 2828 
z
" transform="scale(0.015625)"/>
       <path id="DejaVuSans-65" d="M 3597 1894 
L 3597 1613 
L 953 1613 
Q 991 1019 1311 708 
Q 1631 397 2203 397 
Q 2534 397 2845 478 
Q 3156 559 3463 722 
L 3463 178 
Q 3153 47 2828 -22 
Q 2503 -91 2169 -91 
Q 1331 -91 842 396 
Q 353 884 353 1716 
Q 353 2575 817 3079 
Q 1281 3584 2069 3584 
Q 2775 3584 3186 3129 
Q 3597 2675 3597 1894 
z
M 3022 2063 
Q 3016 2534 2758 2815 
Q 2500 3097 2075 3097 
Q 1594 3097 1305 2825 
Q 1016 2553 972 2059 
L 3022 2063 
z
" transform="scale(0.015625)"/>
       <path id="DejaVuSans-20" transform="scale(0.015625)"/>
       <path id="DejaVuSans-28" d="M 1984 4856 
Q 1566 4138 1362 3434 
Q 1159 2731 1159 2009 
Q 1159 1288 1364 580 
Q 1569 -128 1984 -844 
L 1484 -844 
Q 1016 -109 783 600 
Q 550 1309 550 2009 
Q 550 2706 781 3412 
Q 1013 4119 1484 4856 
L 1984 4856 
z
" transform="scale(0.015625)"/>
       <path id="DejaVuSans-4d" d="M 628 4666 
L 1569 4666 
L 2759 1491 
L 3956 4666 
L 4897 4666 
L 4897 0 
L 4281 0 
L 4281 4097 
L 3078 897 
L 2444 897 
L 1241 4097 
L 1241 0 
L 628 0 
L 628 4666 
z
" transform="scale(0.015625)"/>
       <path id="DejaVuSans-6e" d="M 3513 2113 
L 3513 0 
L 2938 0 
L 2938 2094 
Q 2938 2591 2744 2837 
Q 2550 3084 2163 3084 
Q 1697 3084 1428 2787 
Q 1159 2491 1159 1978 
L 1159 0 
L 581 0 
L 581 3500 
L 1159 3500 
L 1159 2956 
Q 1366 3272 1645 3428 
Q 1925 3584 2291 3584 
Q 2894 3584 3203 3211 
Q 3513 2838 3513 2113 
z
" transform="scale(0.015625)"/>
       <path id="DejaVuSans-75" d="M 544 1381 
L 544 3500 
L 1119 3500 
L 1119 1403 
Q 1119 906 1312 657 
Q 1506 409 1894 409 
Q 2359 409 2629 706 
Q 2900 1003 2900 1516 
L 2900 3500 
L 3475 3500 
L 3475 0 
L 2900 0 
L 2900 538 
Q 2691 219 2414 64 
Q 2138 -91 1772 -91 
Q 1169 -91 856 284 
Q 544 659 544 1381 
z
M 1991 3584 
L 1991 3584 
z
" transform="scale(0.015625)"/>
       <path id="DejaVuSans-74" d="M 1172 4494 
L 1172 3500 
L 2356 3500 
L 2356 3053 
L 1172 3053 
L 1172 1153 
Q 1172 725 1289 603 
Q 1406 481 1766 481 
L 2356 481 
L 2356 0 
L 1766 0 
Q 1100 0 847 248 
Q 594 497 594 1153 
L 594 3053 
L 172 3053 
L 172 3500 
L 594 3500 
L 594 4494 
L 1172 4494 
z
" transform="scale(0.015625)"/>
       <path id="DejaVuSans-73" d="M 2834 3397 
L 2834 2853 
Q 2591 2978 2328 3040 
Q 2066 3103 1784 3103 
Q 1356 3103 1142 2972 
Q 928 2841 928 2578 
Q 928 2378 1081 2264 
Q 1234 2150 1697 2047 
L 1894 2003 
Q 2506 1872 2764 1633 
Q 3022 1394 3022 966 
Q 3022 478 2636 193 
Q 2250 -91 1575 -91 
Q 1294 -91 989 -36 
Q 684 19 347 128 
L 347 722 
Q 666 556 975 473 
Q 1284 391 1588 391 
Q 1994 391 2212 530 
Q 2431 669 2431 922 
Q 2431 1156 2273 1281 
Q 2116 1406 1581 1522 
L 1381 1569 
Q 847 1681 609 1914 
Q 372 2147 372 2553 
Q 372 3047 722 3315 
Q 1072 3584 1716 3584 
Q 2034 3584 2315 3537 
Q 2597 3491 2834 3397 
z
" transform="scale(0.015625)"/>
       <path id="DejaVuSans-29" d="M 513 4856 
L 1013 4856 
Q 1481 4119 1714 3412 
Q 1947 2706 1947 2009 
Q 1947 1309 1714 600 
Q 1481 -109 1013 -844 
L 513 -844 
Q 928 -128 1133 580 
Q 1338 1288 1338 2009 
Q 1338 2731 1133 3434 
Q 928 4138 513 4856 
z
" transform="scale(0.015625)"/>
      </defs>
      <use xlink:href="#DejaVuSans-54"/>
      <use xlink:href="#DejaVuSans-69" x="57.958984"/>
      <use xlink:href="#DejaVuSans-6d" x="85.742188"/>
      <use xlink:href="#DejaVuSans-65" x="183.154297"/>
      <use xlink:href="#DejaVuSans-20" x="244.677734"/>
      <use xlink:href="#DejaVuSans-28" x="276.464844"/>
      <use xlink:href="#DejaVuSans-4d" x="315.478516"/>
      <use xlink:href="#DejaVuSans-69" x="401.757812"/>
      <use xlink:href="#DejaVuSans-6e" x="429.541016"/>
      <use xlink:href="#DejaVuSans-75" x="492.919922"/>
      <use xlink:href="#DejaVuSans-74" x="556.298828"/>
      <use xlink:href="#DejaVuSans-65" x="595.507812"/>
      <use xlink:href="#DejaVuSans-73" x="657.03125"/>
      <use xlink:href="#DejaVuSans-29" x="709.130859"/>
     </g>
    </g>
   </g>
   <g id="matplotlib.axis_2">
    <g id="ytick_1">
     <g id="line2d_20">
      <path d="M 54.3375 492.48 
L 391.23 492.48 
" clip-path="url(#p3802ea357a)" style="fill: none; stroke: #cccccc; stroke-width: 0.8; stroke-linecap: round"/>
     </g>
     <g id="text_21">
      <!-- 0 -->
      <g style="fill: #262626" transform="translate(40.4385 495.823313)scale(0.088 -0.088)">
       <use xlink:href="#DejaVuSans-30"/>
      </g>
     </g>
    </g>
    <g id="ytick_2">
     <g id="line2d_21">
      <path d="M 54.3375 444.018462 
L 391.23 444.018462 
" clip-path="url(#p3802ea357a)" style="fill: none; stroke: #cccccc; stroke-width: 0.8; stroke-linecap: round"/>
     </g>
     <g id="text_22">
      <!-- 100 -->
      <g style="fill: #262626" transform="translate(29.2405 447.361774)scale(0.088 -0.088)">
       <use xlink:href="#DejaVuSans-31"/>
       <use xlink:href="#DejaVuSans-30" x="63.623047"/>
       <use xlink:href="#DejaVuSans-30" x="127.246094"/>
      </g>
     </g>
    </g>
    <g id="ytick_3">
     <g id="line2d_22">
      <path d="M 54.3375 395.556923 
L 391.23 395.556923 
" clip-path="url(#p3802ea357a)" style="fill: none; stroke: #cccccc; stroke-width: 0.8; stroke-linecap: round"/>
     </g>
     <g id="text_23">
      <!-- 200 -->
      <g style="fill: #262626" transform="translate(29.2405 398.900236)scale(0.088 -0.088)">
       <use xlink:href="#DejaVuSans-32"/>
       <use xlink:href="#DejaVuSans-30" x="63.623047"/>
       <use xlink:href="#DejaVuSans-30" x="127.246094"/>
      </g>
     </g>
    </g>
    <g id="ytick_4">
     <g id="line2d_23">
      <path d="M 54.3375 347.095385 
L 391.23 347.095385 
" clip-path="url(#p3802ea357a)" style="fill: none; stroke: #cccccc; stroke-width: 0.8; stroke-linecap: round"/>
     </g>
     <g id="text_24">
      <!-- 300 -->
      <g style="fill: #262626" transform="translate(29.2405 350.438697)scale(0.088 -0.088)">
       <use xlink:href="#DejaVuSans-33"/>
       <use xlink:href="#DejaVuSans-30" x="63.623047"/>
       <use xlink:href="#DejaVuSans-30" x="127.246094"/>
      </g>
     </g>
    </g>
    <g id="ytick_5">
     <g id="line2d_24">
      <path d="M 54.3375 298.633846 
L 391.23 298.633846 
" clip-path="url(#p3802ea357a)" style="fill: none; stroke: #cccccc; stroke-width: 0.8; stroke-linecap: round"/>
     </g>
     <g id="text_25">
      <!-- 400 -->
      <g style="fill: #262626" transform="translate(29.2405 301.977159)scale(0.088 -0.088)">
       <use xlink:href="#DejaVuSans-34"/>
       <use xlink:href="#DejaVuSans-30" x="63.623047"/>
       <use xlink:href="#DejaVuSans-30" x="127.246094"/>
      </g>
     </g>
    </g>
    <g id="ytick_6">
     <g id="line2d_25">
      <path d="M 54.3375 250.172308 
L 391.23 250.172308 
" clip-path="url(#p3802ea357a)" style="fill: none; stroke: #cccccc; stroke-width: 0.8; stroke-linecap: round"/>
     </g>
     <g id="text_26">
      <!-- 500 -->
      <g style="fill: #262626" transform="translate(29.2405 253.51562)scale(0.088 -0.088)">
       <use xlink:href="#DejaVuSans-35"/>
       <use xlink:href="#DejaVuSans-30" x="63.623047"/>
       <use xlink:href="#DejaVuSans-30" x="127.246094"/>
      </g>
     </g>
    </g>
    <g id="ytick_7">
     <g id="line2d_26">
      <path d="M 54.3375 201.710769 
L 391.23 201.710769 
" clip-path="url(#p3802ea357a)" style="fill: none; stroke: #cccccc; stroke-width: 0.8; stroke-linecap: round"/>
     </g>
     <g id="text_27">
      <!-- 600 -->
      <g style="fill: #262626" transform="translate(29.2405 205.054082)scale(0.088 -0.088)">
       <use xlink:href="#DejaVuSans-36"/>
       <use xlink:href="#DejaVuSans-30" x="63.623047"/>
       <use xlink:href="#DejaVuSans-30" x="127.246094"/>
      </g>
     </g>
    </g>
    <g id="ytick_8">
     <g id="line2d_27">
      <path d="M 54.3375 153.249231 
L 391.23 153.249231 
" clip-path="url(#p3802ea357a)" style="fill: none; stroke: #cccccc; stroke-width: 0.8; stroke-linecap: round"/>
     </g>
     <g id="text_28">
      <!-- 700 -->
      <g style="fill: #262626" transform="translate(29.2405 156.592543)scale(0.088 -0.088)">
       <use xlink:href="#DejaVuSans-37"/>
       <use xlink:href="#DejaVuSans-30" x="63.623047"/>
       <use xlink:href="#DejaVuSans-30" x="127.246094"/>
      </g>
     </g>
    </g>
    <g id="ytick_9">
     <g id="line2d_28">
      <path d="M 54.3375 104.787692 
L 391.23 104.787692 
" clip-path="url(#p3802ea357a)" style="fill: none; stroke: #cccccc; stroke-width: 0.8; stroke-linecap: round"/>
     </g>
     <g id="text_29">
      <!-- 800 -->
      <g style="fill: #262626" transform="translate(29.2405 108.131005)scale(0.088 -0.088)">
       <use xlink:href="#DejaVuSans-38"/>
       <use xlink:href="#DejaVuSans-30" x="63.623047"/>
       <use xlink:href="#DejaVuSans-30" x="127.246094"/>
      </g>
     </g>
    </g>
    <g id="text_30">
     <!-- Edge Coverages -->
     <g style="fill: #262626" transform="translate(23.244 329.98575)rotate(-90)scale(0.096 -0.096)">
      <defs>
       <path id="DejaVuSans-45" d="M 628 4666 
L 3578 4666 
L 3578 4134 
L 1259 4134 
L 1259 2753 
L 3481 2753 
L 3481 2222 
L 1259 2222 
L 1259 531 
L 3634 531 
L 3634 0 
L 628 0 
L 628 4666 
z
" transform="scale(0.015625)"/>
       <path id="DejaVuSans-64" d="M 2906 2969 
L 2906 4863 
L 3481 4863 
L 3481 0 
L 2906 0 
L 2906 525 
Q 2725 213 2448 61 
Q 2172 -91 1784 -91 
Q 1150 -91 751 415 
Q 353 922 353 1747 
Q 353 2572 751 3078 
Q 1150 3584 1784 3584 
Q 2172 3584 2448 3432 
Q 2725 3281 2906 2969 
z
M 947 1747 
Q 947 1113 1208 752 
Q 1469 391 1925 391 
Q 2381 391 2643 752 
Q 2906 1113 2906 1747 
Q 2906 2381 2643 2742 
Q 2381 3103 1925 3103 
Q 1469 3103 1208 2742 
Q 947 2381 947 1747 
z
" transform="scale(0.015625)"/>
       <path id="DejaVuSans-67" d="M 2906 1791 
Q 2906 2416 2648 2759 
Q 2391 3103 1925 3103 
Q 1463 3103 1205 2759 
Q 947 2416 947 1791 
Q 947 1169 1205 825 
Q 1463 481 1925 481 
Q 2391 481 2648 825 
Q 2906 1169 2906 1791 
z
M 3481 434 
Q 3481 -459 3084 -895 
Q 2688 -1331 1869 -1331 
Q 1566 -1331 1297 -1286 
Q 1028 -1241 775 -1147 
L 775 -588 
Q 1028 -725 1275 -790 
Q 1522 -856 1778 -856 
Q 2344 -856 2625 -561 
Q 2906 -266 2906 331 
L 2906 616 
Q 2728 306 2450 153 
Q 2172 0 1784 0 
Q 1141 0 747 490 
Q 353 981 353 1791 
Q 353 2603 747 3093 
Q 1141 3584 1784 3584 
Q 2172 3584 2450 3431 
Q 2728 3278 2906 2969 
L 2906 3500 
L 3481 3500 
L 3481 434 
z
" transform="scale(0.015625)"/>
       <path id="DejaVuSans-43" d="M 4122 4306 
L 4122 3641 
Q 3803 3938 3442 4084 
Q 3081 4231 2675 4231 
Q 1875 4231 1450 3742 
Q 1025 3253 1025 2328 
Q 1025 1406 1450 917 
Q 1875 428 2675 428 
Q 3081 428 3442 575 
Q 3803 722 4122 1019 
L 4122 359 
Q 3791 134 3420 21 
Q 3050 -91 2638 -91 
Q 1578 -91 968 557 
Q 359 1206 359 2328 
Q 359 3453 968 4101 
Q 1578 4750 2638 4750 
Q 3056 4750 3426 4639 
Q 3797 4528 4122 4306 
z
" transform="scale(0.015625)"/>
       <path id="DejaVuSans-6f" d="M 1959 3097 
Q 1497 3097 1228 2736 
Q 959 2375 959 1747 
Q 959 1119 1226 758 
Q 1494 397 1959 397 
Q 2419 397 2687 759 
Q 2956 1122 2956 1747 
Q 2956 2369 2687 2733 
Q 2419 3097 1959 3097 
z
M 1959 3584 
Q 2709 3584 3137 3096 
Q 3566 2609 3566 1747 
Q 3566 888 3137 398 
Q 2709 -91 1959 -91 
Q 1206 -91 779 398 
Q 353 888 353 1747 
Q 353 2609 779 3096 
Q 1206 3584 1959 3584 
z
" transform="scale(0.015625)"/>
       <path id="DejaVuSans-76" d="M 191 3500 
L 800 3500 
L 1894 563 
L 2988 3500 
L 3597 3500 
L 2284 0 
L 1503 0 
L 191 3500 
z
" transform="scale(0.015625)"/>
       <path id="DejaVuSans-72" d="M 2631 2963 
Q 2534 3019 2420 3045 
Q 2306 3072 2169 3072 
Q 1681 3072 1420 2755 
Q 1159 2438 1159 1844 
L 1159 0 
L 581 0 
L 581 3500 
L 1159 3500 
L 1159 2956 
Q 1341 3275 1631 3429 
Q 1922 3584 2338 3584 
Q 2397 3584 2469 3576 
Q 2541 3569 2628 3553 
L 2631 2963 
z
" transform="scale(0.015625)"/>
       <path id="DejaVuSans-61" d="M 2194 1759 
Q 1497 1759 1228 1600 
Q 959 1441 959 1056 
Q 959 750 1161 570 
Q 1363 391 1709 391 
Q 2188 391 2477 730 
Q 2766 1069 2766 1631 
L 2766 1759 
L 2194 1759 
z
M 3341 1997 
L 3341 0 
L 2766 0 
L 2766 531 
Q 2569 213 2275 61 
Q 1981 -91 1556 -91 
Q 1019 -91 701 211 
Q 384 513 384 1019 
Q 384 1609 779 1909 
Q 1175 2209 1959 2209 
L 2766 2209 
L 2766 2266 
Q 2766 2663 2505 2880 
Q 2244 3097 1772 3097 
Q 1472 3097 1187 3025 
Q 903 2953 641 2809 
L 641 3341 
Q 956 3463 1253 3523 
Q 1550 3584 1831 3584 
Q 2591 3584 2966 3190 
Q 3341 2797 3341 1997 
z
" transform="scale(0.015625)"/>
      </defs>
      <use xlink:href="#DejaVuSans-45"/>
      <use xlink:href="#DejaVuSans-64" x="63.183594"/>
      <use xlink:href="#DejaVuSans-67" x="126.660156"/>
      <use xlink:href="#DejaVuSans-65" x="190.136719"/>
      <use xlink:href="#DejaVuSans-20" x="251.660156"/>
      <use xlink:href="#DejaVuSans-43" x="283.447266"/>
      <use xlink:href="#DejaVuSans-6f" x="353.271484"/>
      <use xlink:href="#DejaVuSans-76" x="414.453125"/>
      <use xlink:href="#DejaVuSans-65" x="473.632812"/>
      <use xlink:href="#DejaVuSans-72" x="535.15625"/>
      <use xlink:href="#DejaVuSans-61" x="576.269531"/>
      <use xlink:href="#DejaVuSans-67" x="637.548828"/>
      <use xlink:href="#DejaVuSans-65" x="701.025391"/>
      <use xlink:href="#DejaVuSans-73" x="762.548828"/>
     </g>
    </g>
   </g>
   <g id="PolyCollection_1">
    <defs>
     <path id="m76ebbfbe80" d="M 69.650795 -115.02 
L 69.650795 -83.52 
L 69.650795 -115.02 
L 69.650795 -115.02 
z
" style="stroke: #db5f57; stroke-opacity: 0.2; stroke-width: 0.8"/>
    </defs>
    <g clip-path="url(#p3802ea357a)">
     <use xlink:href="#m76ebbfbe80" x="0" y="576" style="fill: #db5f57; fill-opacity: 0.2; stroke: #db5f57; stroke-opacity: 0.2; stroke-width: 0.8"/>
    </g>
   </g>
   <g id="PolyCollection_2">
    <defs>
     <path id="m35a921e5ad" d="M 69.650795 -110.658462 
L 69.650795 -83.52 
L 69.650795 -110.658462 
L 69.650795 -110.658462 
z
" style="stroke: #b9db57; stroke-opacity: 0.2; stroke-width: 0.8"/>
    </defs>
    <g clip-path="url(#p3802ea357a)">
     <use xlink:href="#m35a921e5ad" x="0" y="576" style="fill: #b9db57; fill-opacity: 0.2; stroke: #b9db57; stroke-opacity: 0.2; stroke-width: 0.8"/>
    </g>
   </g>
   <g id="PolyCollection_3">
    <defs>
     <path id="m900ec293a1" d="M 69.650795 -96.12 
L 69.650795 -83.52 
L 69.650795 -96.12 
L 69.650795 -96.12 
z
" style="stroke: #57db94; stroke-opacity: 0.2; stroke-width: 0.8"/>
    </defs>
    <g clip-path="url(#p3802ea357a)">
     <use xlink:href="#m900ec293a1" x="0" y="576" style="fill: #57db94; fill-opacity: 0.2; stroke: #57db94; stroke-opacity: 0.2; stroke-width: 0.8"/>
    </g>
   </g>
   <g id="PolyCollection_4">
    <defs>
     <path id="mdfe6f4a52f" d="M 69.650795 -93.696923 
L 69.650795 -83.52 
L 69.650795 -93.696923 
L 69.650795 -93.696923 
z
" style="stroke: #5784db; stroke-opacity: 0.2; stroke-width: 0.8"/>
    </defs>
    <g clip-path="url(#p3802ea357a)">
     <use xlink:href="#mdfe6f4a52f" x="0" y="576" style="fill: #5784db; fill-opacity: 0.2; stroke: #5784db; stroke-opacity: 0.2; stroke-width: 0.8"/>
    </g>
   </g>
   <g id="PolyCollection_5">
    <defs>
     <path id="m5a3545b306" d="M 69.650795 -116.473846 
L 69.650795 -83.52 
L 69.650795 -116.473846 
L 69.650795 -116.473846 
z
" style="stroke: #c957db; stroke-opacity: 0.2; stroke-width: 0.8"/>
    </defs>
    <g clip-path="url(#p3802ea357a)">
     <use xlink:href="#m5a3545b306" x="0" y="576" style="fill: #c957db; fill-opacity: 0.2; stroke: #c957db; stroke-opacity: 0.2; stroke-width: 0.8"/>
    </g>
   </g>
   <g id="line2d_29">
    <path d="M 69.650795 476.73 
L 69.863628 455.649231 
L 70.07646 452.741538 
L 70.289293 444.503077 
L 70.502125 442.08 
L 70.714958 441.595385 
L 71.353455 433.841538 
L 71.77912 431.903077 
L 71.991953 411.549231 
L 72.204785 411.064615 
L 72.417617 411.064615 
L 72.63045 403.795385 
L 73.056115 403.795385 
L 73.268947 397.495385 
L 73.48178 396.526154 
L 73.907445 396.526154 
L 74.120277 395.072308 
L 74.33311 394.587692 
L 74.758774 391.68 
L 75.184439 386.349231 
L 75.397272 386.349231 
L 75.822937 385.38 
L 76.035769 385.38 
L 76.248602 384.895385 
L 76.461434 383.926154 
L 77.099932 383.926154 
L 77.312764 378.595385 
L 77.525596 378.595385 
L 77.738429 378.110769 
L 77.951261 378.110769 
L 78.164094 377.626154 
L 78.589759 377.626154 
L 78.802591 375.687692 
L 79.015424 375.687692 
L 79.228256 373.749231 
L 79.441089 373.264615 
L 79.866754 373.264615 
L 80.079586 371.326154 
L 80.292418 370.841538 
L 80.505251 366.48 
L 81.143748 366.48 
L 81.356581 365.995385 
L 81.569413 364.541538 
L 81.995078 363.572308 
L 82.420743 363.572308 
L 82.846408 362.603077 
L 83.05924 361.149231 
L 84.549068 361.149231 
L 84.974733 360.18 
L 85.61323 360.18 
L 85.826062 358.726154 
L 86.46456 358.726154 
L 86.677392 358.241538 
L 86.890225 358.241538 
L 87.103057 357.756923 
L 87.31589 350.972308 
L 87.528722 350.487692 
L 87.741555 350.487692 
L 87.954387 350.003077 
L 88.167219 349.033846 
L 88.592884 349.033846 
L 88.805717 348.549231 
L 89.444214 348.549231 
L 89.869879 347.095385 
L 90.934041 347.095385 
L 91.146874 346.610769 
L 91.572539 346.610769 
L 91.785371 346.126154 
L 91.998204 346.126154 
L 92.211036 345.641538 
L 92.423869 345.641538 
L 92.636701 345.156923 
L 93.913696 345.156923 
L 94.126528 344.672308 
L 94.339361 344.672308 
L 94.552193 344.187692 
L 94.977858 344.187692 
L 95.190691 343.703077 
L 95.403523 341.764615 
L 95.616356 341.764615 
L 95.829188 341.28 
L 96.254853 341.28 
L 96.89335 339.826154 
L 98.170345 339.826154 
L 98.383177 339.341538 
L 98.59601 338.372308 
L 100.085837 338.372308 
L 100.29867 337.887692 
L 100.511502 336.433846 
L 103.491157 336.433846 
L 103.703989 327.226154 
L 104.342486 325.772308 
L 106.257978 325.772308 
L 106.683643 324.318462 
L 107.109308 324.318462 
L 107.322141 323.833846 
L 107.747806 323.833846 
L 108.386303 322.38 
L 109.237633 322.38 
L 109.450465 321.895385 
L 110.301795 321.895385 
L 110.514628 319.956923 
L 111.365957 319.956923 
L 111.57879 319.472308 
L 112.217287 319.472308 
L 112.642952 318.503077 
L 113.068617 317.049231 
L 114.345612 317.049231 
L 114.558444 316.564615 
L 116.686769 316.564615 
L 116.899601 315.595385 
L 117.112434 315.595385 
L 117.325266 315.110769 
L 117.538099 315.110769 
L 117.750931 314.626154 
L 118.815094 314.626154 
L 119.240758 313.172308 
L 119.453591 313.172308 
L 119.666423 312.687692 
L 120.730586 312.687692 
L 120.943418 311.718462 
L 121.581916 311.718462 
L 121.794748 311.233846 
L 122.646078 311.233846 
L 122.85891 310.749231 
L 125.4129 310.749231 
L 125.625732 310.264615 
L 126.477062 310.264615 
L 126.689895 309.78 
L 127.328392 309.78 
L 127.754057 308.326154 
L 127.966889 307.841538 
L 129.243884 307.841538 
L 129.456717 307.356923 
L 131.372209 307.356923 
L 131.585041 306.872308 
L 135.416025 306.872308 
L 135.84169 304.933846 
L 136.054523 302.026154 
L 136.267355 301.541538 
L 140.736837 301.541538 
L 140.949669 300.572308 
L 141.375334 300.572308 
L 141.800999 299.603077 
L 144.780654 299.603077 
L 144.993486 299.118462 
L 145.631983 299.118462 
L 145.844816 298.633846 
L 146.057648 297.664615 
L 149.462968 297.664615 
L 149.888633 296.210769 
L 150.314298 296.210769 
L 150.52713 295.726154 
L 151.165627 295.726154 
L 151.37846 295.241538 
L 151.804125 295.241538 
L 152.016957 289.426154 
L 152.22979 288.941538 
L 154.145282 288.941538 
L 154.358114 288.456923 
L 155.209444 288.456923 
L 155.422277 287.972308 
L 155.635109 287.972308 
L 155.847942 287.487692 
L 157.550601 287.487692 
L 157.763434 287.003077 
L 158.401931 287.003077 
L 158.614763 286.518462 
L 162.232915 286.518462 
L 162.445748 286.033846 
L 162.871413 286.033846 
L 163.084245 285.549231 
L 163.50991 285.549231 
L 163.722743 285.064615 
L 165.851067 285.064615 
L 166.0639 284.095385 
L 168.405057 284.095385 
L 168.617889 283.610769 
L 168.830722 283.610769 
L 169.043554 283.126154 
L 169.256386 283.126154 
L 169.469219 282.641538 
L 169.894884 282.641538 
L 170.107716 282.156923 
L 171.171879 282.156923 
L 171.597544 281.187692 
L 179.259512 281.187692 
L 179.472345 280.218462 
L 180.110842 280.218462 
L 180.536507 279.249231 
L 181.813502 279.249231 
L 182.026334 278.764615 
L 189.688303 278.764615 
L 189.901135 278.28 
L 191.816627 278.28 
L 192.02946 277.795385 
L 196.073276 277.795385 
L 196.286109 276.341538 
L 198.201601 276.341538 
L 198.414433 275.856923 
L 198.627266 274.403077 
L 198.840098 273.918462 
L 199.478596 273.918462 
L 199.691428 273.433846 
L 200.542758 273.433846 
L 200.968423 272.464615 
L 201.60692 272.464615 
L 201.819753 271.98 
L 209.056056 271.98 
L 209.268889 271.495385 
L 216.505192 271.495385 
L 216.718025 271.010769 
L 230.339302 271.010769 
L 230.552135 270.526154 
L 231.616297 270.526154 
L 231.82913 270.041538 
L 238.214103 270.041538 
L 238.426936 269.556923 
L 239.703931 269.556923 
L 239.916763 269.072308 
L 243.96058 269.072308 
L 244.173412 268.587692 
L 244.81191 268.587692 
L 245.024742 268.103077 
L 248.642894 268.103077 
L 248.855726 267.133846 
L 250.984051 267.133846 
L 251.196883 266.649231 
L 256.304862 266.649231 
L 256.517695 257.926154 
L 257.79469 257.926154 
L 258.007522 257.441538 
L 260.348679 257.441538 
L 260.774344 256.472308 
L 260.987176 255.503077 
L 269.500475 255.503077 
L 269.713307 255.018462 
L 272.054464 255.018462 
L 272.267297 254.533846 
L 276.098281 254.533846 
L 276.311114 254.049231 
L 288.442564 254.049231 
L 288.655396 253.564615 
L 298.232857 253.564615 
L 298.445689 253.08 
L 304.404998 253.08 
L 304.617831 252.595385 
L 310.789972 252.595385 
L 311.002804 251.626154 
L 314.620956 251.626154 
L 314.833789 250.172308 
L 315.046621 247.264615 
L 325.688244 247.264615 
L 325.901077 246.78 
L 328.242234 246.78 
L 328.455066 246.295385 
L 329.093563 246.295385 
L 329.306396 245.326154 
L 330.157726 245.326154 
L 330.370558 241.933846 
L 331.221888 241.933846 
L 331.434721 240.964615 
L 332.924548 240.964615 
L 333.350213 239.995385 
L 334.414375 239.995385 
L 334.627207 239.510769 
L 336.329867 239.510769 
L 336.5427 239.026154 
L 336.755532 239.026154 
L 336.968364 238.056923 
L 337.606862 238.056923 
L 337.819694 235.149231 
L 338.458192 235.149231 
L 338.671024 234.664615 
L 346.332993 234.664615 
L 346.545825 232.241538 
L 347.609987 232.241538 
L 347.82282 230.787692 
L 348.035652 230.787692 
L 348.248485 230.303077 
L 348.461317 230.303077 
L 348.67415 228.849231 
L 348.886982 228.849231 
L 349.099815 228.364615 
L 349.738312 228.364615 
L 349.951144 226.426154 
L 350.163977 226.426154 
L 350.376809 223.518462 
L 350.802474 222.549231 
L 351.228139 218.187692 
L 351.440972 209.464615 
L 351.866637 209.464615 
L 352.079469 208.98 
L 352.292302 207.526154 
L 352.505134 201.710769 
L 352.717966 201.710769 
L 352.930799 198.318462 
L 353.356464 196.864615 
L 353.569296 196.864615 
L 353.782129 195.895385 
L 354.633459 195.895385 
L 354.846291 192.987692 
L 355.059124 192.987692 
L 355.271956 188.141538 
L 355.484788 187.656923 
L 355.697621 181.841538 
L 355.910453 181.841538 
L 356.123286 179.418462 
L 356.761783 179.418462 
L 356.974616 178.933846 
L 357.187448 172.633846 
L 357.400281 172.633846 
L 357.613113 172.149231 
L 357.825945 170.695385 
L 358.038778 170.695385 
L 358.25161 168.756923 
L 358.677275 168.756923 
L 358.890108 168.272308 
L 359.10294 166.333846 
L 359.315773 165.849231 
L 359.95427 162.941538 
L 360.379935 162.941538 
L 360.8056 160.518462 
L 361.444097 158.095385 
L 361.869762 158.095385 
L 362.295427 152.764615 
L 362.721092 152.764615 
L 362.933925 149.372308 
L 363.146757 148.887692 
L 363.359589 148.887692 
L 363.572422 148.403077 
L 363.785254 148.403077 
L 363.998087 147.918462 
L 364.423752 147.918462 
L 364.636584 147.433846 
L 365.275082 147.433846 
L 365.487914 144.526154 
L 365.700746 144.041538 
L 366.126411 144.041538 
L 366.339244 142.587692 
L 366.552076 142.587692 
L 366.764909 139.68 
L 367.190574 139.68 
L 367.403406 136.287692 
L 369.744563 136.287692 
L 369.957396 135.803077 
L 372.724218 135.803077 
L 372.93705 134.349231 
L 373.362715 134.349231 
L 373.575547 132.895385 
L 374.001212 132.895385 
L 374.214045 132.410769 
L 375.916705 132.410769 
L 375.916705 132.410769 
" clip-path="url(#p3802ea357a)" style="fill: none; stroke: #db5f57; stroke-width: 1.2; stroke-linecap: round"/>
   </g>
   <g id="line2d_30">
    <path d="M 69.650795 478.910769 
L 69.863628 453.710769 
L 70.07646 449.349231 
L 70.289293 447.410769 
L 70.714958 422.695385 
L 71.77912 413.487692 
L 72.204785 412.033846 
L 72.417617 412.033846 
L 72.63045 411.549231 
L 72.843282 409.610769 
L 73.056115 409.126154 
L 73.48178 409.126154 
L 73.694612 408.641538 
L 73.907445 407.672308 
L 74.33311 403.795385 
L 75.184439 403.795385 
L 75.397272 384.410769 
L 75.822937 383.441538 
L 76.035769 382.472308 
L 76.248602 382.472308 
L 76.674267 381.503077 
L 76.887099 381.503077 
L 77.312764 380.049231 
L 77.525596 380.049231 
L 77.951261 379.08 
L 78.164094 379.08 
L 78.376926 378.595385 
L 78.802591 378.595385 
L 79.015424 377.626154 
L 79.441089 377.626154 
L 79.653921 377.141538 
L 79.866754 377.141538 
L 80.079586 376.656923 
L 80.505251 376.656923 
L 80.718083 376.172308 
L 80.930916 375.203077 
L 81.143748 375.203077 
L 81.569413 374.233846 
L 81.782246 374.233846 
L 81.995078 373.749231 
L 82.207911 373.749231 
L 82.420743 373.264615 
L 82.846408 360.18 
L 83.05924 360.18 
L 83.484905 359.210769 
L 83.697738 359.210769 
L 83.91057 358.726154 
L 85.400397 358.726154 
L 85.61323 358.241538 
L 86.038895 358.241538 
L 86.251727 357.756923 
L 86.46456 356.787692 
L 86.677392 356.787692 
L 86.890225 356.303077 
L 90.295544 356.303077 
L 90.508376 355.818462 
L 92.211036 355.818462 
L 92.423869 342.733846 
L 92.849534 341.764615 
L 98.808842 341.764615 
L 99.021675 341.28 
L 99.234507 340.310769 
L 99.660172 340.310769 
L 99.873005 339.826154 
L 100.085837 339.826154 
L 100.29867 339.341538 
L 101.575664 339.341538 
L 101.788497 338.856923 
L 102.214162 338.856923 
L 102.426994 337.887692 
L 102.852659 321.410769 
L 103.065492 320.926154 
L 103.491157 320.926154 
L 103.703989 320.441538 
L 105.832314 320.441538 
L 106.045146 319.956923 
L 106.683643 319.956923 
L 106.896476 319.472308 
L 108.173471 319.472308 
L 108.386303 316.564615 
L 109.450465 316.564615 
L 109.663298 316.08 
L 109.87613 316.08 
L 110.301795 315.110769 
L 111.57879 315.110769 
L 111.791622 313.172308 
L 113.494282 313.172308 
L 113.707115 312.687692 
L 113.919947 312.687692 
L 114.132779 312.203077 
L 114.558444 312.203077 
L 114.771277 311.233846 
L 115.196942 311.233846 
L 115.409774 309.295385 
L 117.963764 309.295385 
L 118.176596 308.326154 
L 124.56157 308.326154 
L 124.774402 307.841538 
L 126.902727 307.841538 
L 127.115559 303.964615 
L 132.223539 303.964615 
L 132.436371 301.541538 
L 134.99036 301.541538 
L 135.203193 299.603077 
L 135.84169 299.603077 
L 136.054523 295.726154 
L 137.970015 295.726154 
L 138.182847 295.241538 
L 140.09834 295.241538 
L 140.311172 294.756923 
L 144.993486 294.756923 
L 145.419151 293.787692 
L 147.121811 293.787692 
L 147.334643 290.88 
L 148.611638 290.88 
L 148.82447 290.395385 
L 150.314298 290.395385 
L 150.739962 282.641538 
L 150.952795 282.156923 
L 151.591292 282.156923 
L 151.804125 281.672308 
L 154.996612 281.672308 
L 155.209444 280.218462 
L 162.020083 280.218462 
L 162.232915 279.733846 
L 164.574072 279.733846 
L 164.786905 279.249231 
L 164.999737 276.341538 
L 165.21257 275.856923 
L 165.638235 275.856923 
L 165.851067 275.372308 
L 169.043554 275.372308 
L 169.256386 274.887692 
L 171.171879 274.887692 
L 171.597544 273.433846 
L 175.428528 273.433846 
L 175.64136 271.495385 
L 180.749339 271.495385 
L 180.962172 269.556923 
L 183.941826 269.556923 
L 184.154659 269.072308 
L 186.708648 269.072308 
L 186.921481 268.587692 
L 195.009114 268.587692 
L 195.221947 266.649231 
L 195.434779 266.164615 
L 197.137439 266.164615 
L 197.350271 264.710769 
L 202.245418 264.710769 
L 202.45825 262.772308 
L 202.671083 262.287692 
L 203.735245 262.287692 
L 203.948077 261.803077 
L 204.373742 261.803077 
L 204.586575 261.318462 
L 205.650737 261.318462 
L 205.863569 260.349231 
L 207.566229 260.349231 
L 207.779062 259.864615 
L 210.333051 259.864615 
L 210.545884 259.38 
L 217.99502 259.38 
L 218.207852 258.895385 
L 218.633517 258.895385 
L 218.84635 258.410769 
L 221.826004 258.410769 
L 222.038836 257.926154 
L 223.315831 257.926154 
L 223.528664 257.441538 
L 231.190632 257.441538 
L 231.616297 256.472308 
L 242.470752 256.472308 
L 242.683585 255.987692 
L 243.322082 255.987692 
L 243.534915 255.503077 
L 246.514569 255.503077 
L 246.727402 254.049231 
L 248.430061 254.049231 
L 248.855726 252.595385 
L 256.94336 252.595385 
L 257.156192 243.872308 
L 257.369025 243.872308 
L 257.79469 242.903077 
L 260.135847 242.903077 
L 260.348679 242.418462 
L 260.561512 242.418462 
L 260.774344 241.933846 
L 260.987176 240.964615 
L 269.92614 240.964615 
L 270.138972 240.48 
L 271.415967 240.48 
L 271.628799 239.995385 
L 271.841632 239.995385 
L 272.054464 239.026154 
L 279.716433 239.026154 
L 279.929265 238.541538 
L 294.18904 238.541538 
L 294.401873 238.056923 
L 301.638176 238.056923 
L 301.851009 237.572308 
L 304.192166 237.572308 
L 304.404998 237.087692 
L 311.428469 237.087692 
L 311.641302 231.756923 
L 311.854134 230.787692 
L 312.066967 230.787692 
L 312.279799 230.303077 
L 312.492632 230.303077 
L 312.705464 229.818462 
L 324.198417 229.818462 
L 324.411249 229.333846 
L 329.944893 229.333846 
L 330.370558 224.003077 
L 331.009056 224.003077 
L 331.221888 223.518462 
L 332.28605 223.518462 
L 332.498883 223.033846 
L 335.69137 223.033846 
L 335.904202 222.549231 
L 336.329867 222.549231 
L 336.5427 220.610769 
L 336.968364 220.610769 
L 337.394029 213.826154 
L 338.245359 213.826154 
L 338.458192 213.341538 
L 343.140506 213.341538 
L 343.566171 212.372308 
L 346.332993 212.372308 
L 346.545825 210.433846 
L 348.035652 210.433846 
L 348.67415 207.526154 
L 348.886982 207.526154 
L 349.099815 206.556923 
L 349.52548 206.556923 
L 349.738312 206.072308 
L 349.951144 204.618462 
L 350.163977 204.133846 
L 350.802474 204.133846 
L 351.440972 187.656923 
L 351.866637 180.387692 
L 352.079469 179.903077 
L 352.505134 179.903077 
L 352.717966 179.418462 
L 353.143631 174.572308 
L 353.569296 174.572308 
L 353.994961 172.149231 
L 354.207794 172.149231 
L 354.420626 168.756923 
L 354.633459 168.756923 
L 355.059124 165.364615 
L 355.271956 158.58 
L 355.910453 153.733846 
L 356.548951 148.887692 
L 356.761783 148.887692 
L 356.974616 146.949231 
L 357.187448 146.949231 
L 357.400281 145.98 
L 357.825945 145.98 
L 358.038778 144.041538 
L 358.25161 144.041538 
L 358.464443 143.072308 
L 358.890108 140.164615 
L 359.315773 138.710769 
L 359.528605 138.710769 
L 359.95427 136.287692 
L 360.167103 136.287692 
L 360.379935 135.803077 
L 360.592767 134.349231 
L 361.018432 133.38 
L 361.444097 133.38 
L 362.295427 124.172308 
L 362.50826 123.203077 
L 362.721092 121.264615 
L 362.933925 120.78 
L 363.359589 120.78 
L 363.572422 120.295385 
L 364.423752 120.295385 
L 364.636584 119.326154 
L 364.849417 119.326154 
L 365.487914 115.449231 
L 365.700746 115.449231 
L 366.339244 113.026154 
L 366.552076 110.603077 
L 366.764909 110.118462 
L 366.977741 106.726154 
L 369.106066 106.726154 
L 369.318898 106.241538 
L 372.08572 106.241538 
L 372.298553 105.756923 
L 372.511385 104.787692 
L 372.93705 104.787692 
L 373.362715 103.818462 
L 373.78838 102.364615 
L 375.49104 102.364615 
L 375.916705 99.941538 
L 375.916705 99.941538 
" clip-path="url(#p3802ea357a)" style="fill: none; stroke: #b9db57; stroke-width: 1.2; stroke-linecap: round"/>
   </g>
   <g id="line2d_31">
    <path d="M 69.650795 486.18 
L 69.863628 479.395385 
L 70.07646 478.910769 
L 70.502125 478.910769 
L 70.714958 478.426154 
L 70.92779 478.426154 
L 71.140623 424.633846 
L 71.353455 420.272308 
L 71.566288 418.818462 
L 71.77912 413.972308 
L 71.991953 412.033846 
L 72.417617 404.28 
L 72.63045 402.826154 
L 72.843282 402.826154 
L 73.694612 399.433846 
L 73.907445 399.433846 
L 74.120277 394.103077 
L 74.33311 393.618462 
L 74.545942 393.618462 
L 75.184439 389.256923 
L 75.822937 389.256923 
L 76.035769 386.833846 
L 76.248602 386.833846 
L 76.461434 383.926154 
L 76.674267 383.441538 
L 76.887099 382.472308 
L 77.312764 382.472308 
L 77.525596 381.987692 
L 77.738429 379.564615 
L 77.951261 379.564615 
L 78.376926 378.110769 
L 78.589759 378.110769 
L 78.802591 377.141538 
L 79.015424 375.203077 
L 79.228256 375.203077 
L 79.653921 372.295385 
L 79.866754 372.295385 
L 80.079586 370.356923 
L 80.505251 370.356923 
L 81.143748 367.933846 
L 81.356581 367.449231 
L 81.995078 367.449231 
L 82.207911 365.995385 
L 84.123403 365.995385 
L 84.336235 363.572308 
L 84.7619 363.572308 
L 84.974733 362.603077 
L 85.187565 359.210769 
L 85.400397 359.210769 
L 85.61323 358.726154 
L 85.826062 358.726154 
L 86.038895 357.272308 
L 86.251727 356.787692 
L 87.954387 356.787692 
L 88.592884 355.333846 
L 90.082712 355.333846 
L 90.295544 349.518462 
L 93.488031 349.518462 
L 93.700863 347.095385 
L 114.984109 347.095385 
L 115.196942 317.049231 
L 117.963764 317.049231 
L 118.176596 316.08 
L 120.517753 316.08 
L 120.730586 314.141538 
L 123.923073 314.141538 
L 124.135905 312.203077 
L 127.115559 312.203077 
L 127.328392 311.233846 
L 143.503659 311.233846 
L 143.716491 302.026154 
L 146.483313 302.026154 
L 146.696146 300.087692 
L 162.445748 300.087692 
L 162.65858 287.003077 
L 165.638235 287.003077 
L 165.851067 286.033846 
L 168.405057 286.033846 
L 168.617889 285.549231 
L 168.830722 284.58 
L 171.384711 284.58 
L 171.597544 282.641538 
L 181.175004 282.641538 
L 181.387837 280.703077 
L 182.451999 280.703077 
L 182.664831 280.218462 
L 185.431653 280.218462 
L 185.644486 279.733846 
L 190.752465 279.733846 
L 190.965297 279.249231 
L 207.140564 279.249231 
L 207.353397 272.949231 
L 210.333051 272.949231 
L 210.545884 272.464615 
L 222.890166 272.464615 
L 223.102999 271.98 
L 232.893292 271.98 
L 233.106124 271.010769 
L 239.916763 271.010769 
L 240.129595 270.041538 
L 245.876072 270.041538 
L 246.088904 269.072308 
L 248.004396 269.072308 
L 248.217229 268.587692 
L 254.602203 268.587692 
L 254.815035 267.618462 
L 255.027868 267.618462 
L 255.2407 258.895385 
L 258.646019 258.895385 
L 258.858852 258.410769 
L 261.838506 258.410769 
L 262.051339 256.472308 
L 278.652271 256.472308 
L 278.865103 255.503077 
L 288.868229 255.503077 
L 289.081061 255.018462 
L 300.999679 255.018462 
L 301.212511 254.533846 
L 304.404998 254.533846 
L 304.617831 254.049231 
L 310.364307 254.049231 
L 310.57714 253.08 
L 313.556794 253.08 
L 313.769626 246.78 
L 326.752406 246.78 
L 326.965239 246.295385 
L 330.583391 246.295385 
L 330.796223 240.964615 
L 349.099815 240.964615 
L 349.312647 226.910769 
L 367.190574 226.910769 
L 367.403406 127.08 
L 371.447223 127.08 
L 371.660055 126.595385 
L 375.916705 126.595385 
L 375.916705 126.595385 
" clip-path="url(#p3802ea357a)" style="fill: none; stroke: #57db94; stroke-width: 1.2; stroke-linecap: round"/>
   </g>
   <g id="line2d_32">
    <path d="M 69.650795 487.391538 
L 69.863628 480.364615 
L 70.289293 478.910769 
L 70.92779 478.910769 
L 71.140623 425.118462 
L 71.353455 420.756923 
L 71.77912 420.756923 
L 71.991953 419.303077 
L 72.204785 415.910769 
L 72.417617 415.426154 
L 72.63045 401.856923 
L 72.843282 398.949231 
L 73.056115 398.949231 
L 73.268947 395.072308 
L 76.035769 395.072308 
L 76.248602 394.587692 
L 77.099932 394.587692 
L 77.312764 394.103077 
L 80.718083 394.103077 
L 80.930916 393.618462 
L 81.782246 393.618462 
L 81.995078 393.133846 
L 82.633575 393.133846 
L 82.846408 392.649231 
L 84.123403 392.649231 
L 84.336235 392.164615 
L 86.038895 392.164615 
L 86.251727 391.68 
L 86.46456 391.68 
L 86.677392 391.195385 
L 89.657047 391.195385 
L 89.869879 390.710769 
L 90.508376 390.710769 
L 90.721209 344.672308 
L 104.980984 344.672308 
L 105.193816 343.703077 
L 106.257978 343.703077 
L 106.470811 343.218462 
L 106.683643 343.218462 
L 106.896476 321.410769 
L 107.109308 320.926154 
L 109.237633 320.926154 
L 109.450465 320.441538 
L 120.092088 320.441538 
L 120.304921 309.78 
L 122.00758 309.78 
L 122.220413 308.326154 
L 135.628858 308.326154 
L 135.84169 302.510769 
L 136.054523 302.510769 
L 136.267355 300.087692 
L 138.182847 300.087692 
L 138.39568 299.603077 
L 143.929324 299.603077 
L 144.142156 299.118462 
L 154.996612 299.118462 
L 155.209444 293.787692 
L 155.422277 285.549231 
L 155.635109 285.064615 
L 158.189099 285.064615 
L 158.401931 284.095385 
L 169.469219 284.095385 
L 169.682051 283.610769 
L 170.959046 283.610769 
L 171.171879 283.126154 
L 172.448873 283.126154 
L 172.661706 278.28 
L 178.19535 278.28 
L 178.621015 277.310769 
L 185.005988 277.310769 
L 185.218821 275.372308 
L 187.77281 275.372308 
L 187.985643 274.887692 
L 190.113967 274.887692 
L 190.539632 273.918462 
L 202.45825 273.918462 
L 202.671083 269.072308 
L 202.883915 268.587692 
L 205.01224 268.587692 
L 205.225072 267.618462 
L 217.356522 267.618462 
L 217.569355 267.133846 
L 235.021616 267.133846 
L 235.234449 265.68 
L 239.916763 265.68 
L 240.129595 264.226154 
L 244.599077 264.226154 
L 245.024742 263.256923 
L 257.79469 263.256923 
L 258.007522 253.08 
L 260.987176 253.08 
L 261.200009 251.141538 
L 269.92614 251.141538 
L 270.138972 250.656923 
L 289.506726 250.656923 
L 289.719558 249.687692 
L 303.979333 249.687692 
L 304.404998 248.718462 
L 308.448815 248.718462 
L 308.661647 247.749231 
L 315.259454 247.749231 
L 315.472286 241.449231 
L 328.242234 241.449231 
L 328.455066 240.48 
L 328.880731 240.48 
L 329.093563 239.510769 
L 331.009056 239.510769 
L 331.221888 239.026154 
L 341.650679 239.026154 
L 341.863511 228.849231 
L 343.991836 228.849231 
L 344.204668 227.88 
L 346.97149 227.88 
L 347.184323 225.941538 
L 349.52548 225.941538 
L 349.738312 221.095385 
L 352.930799 221.095385 
L 353.143631 189.595385 
L 353.356464 188.141538 
L 355.484788 188.141538 
L 355.697621 170.210769 
L 355.910453 168.272308 
L 357.825945 168.272308 
L 358.038778 156.641538 
L 358.25161 156.641538 
L 358.464443 155.672308 
L 358.890108 155.672308 
L 359.10294 154.218462 
L 360.8056 154.218462 
L 361.018432 146.949231 
L 362.721092 146.949231 
L 362.933925 135.318462 
L 365.913579 135.318462 
L 366.126411 134.833846 
L 366.339244 134.833846 
L 366.552076 134.349231 
L 367.190574 134.349231 
L 367.403406 121.264615 
L 370.383061 121.264615 
L 370.595893 120.78 
L 375.916705 120.78 
L 375.916705 120.78 
" clip-path="url(#p3802ea357a)" style="fill: none; stroke: #5784db; stroke-width: 1.2; stroke-linecap: round"/>
   </g>
   <g id="line2d_33">
    <path d="M 69.650795 476.003077 
L 69.863628 452.256923 
L 70.07646 447.410769 
L 70.502125 428.026154 
L 70.714958 418.818462 
L 71.140623 413.487692 
L 71.353455 412.518462 
L 72.843282 393.133846 
L 73.056115 392.164615 
L 73.48178 388.287692 
L 73.694612 387.803077 
L 73.907445 387.803077 
L 74.120277 385.38 
L 74.758774 382.956923 
L 74.971607 380.533846 
L 75.184439 380.049231 
L 75.397272 380.049231 
L 76.248602 375.687692 
L 76.461434 373.749231 
L 76.887099 372.78 
L 77.099932 372.78 
L 77.525596 371.810769 
L 77.738429 369.872308 
L 78.376926 368.418462 
L 78.589759 368.418462 
L 78.802591 365.510769 
L 79.015424 365.510769 
L 79.228256 364.056923 
L 79.441089 363.572308 
L 79.653921 362.118462 
L 79.866754 362.118462 
L 80.079586 360.18 
L 80.292418 360.18 
L 80.930916 358.726154 
L 81.356581 357.272308 
L 81.569413 357.272308 
L 81.782246 356.787692 
L 81.995078 355.818462 
L 82.207911 355.818462 
L 82.633575 354.849231 
L 82.846408 353.395385 
L 83.05924 353.395385 
L 83.484905 352.426154 
L 83.697738 352.426154 
L 83.91057 351.941538 
L 84.549068 351.941538 
L 84.974733 350.972308 
L 85.187565 347.58 
L 85.400397 347.58 
L 85.61323 347.095385 
L 85.826062 345.641538 
L 86.038895 345.641538 
L 86.677392 343.218462 
L 87.528722 341.28 
L 87.741555 341.28 
L 87.954387 340.795385 
L 88.167219 339.341538 
L 88.805717 337.887692 
L 89.657047 337.887692 
L 89.869879 337.403077 
L 90.295544 337.403077 
L 90.508376 336.918462 
L 90.934041 336.918462 
L 91.146874 336.433846 
L 91.998204 336.433846 
L 92.211036 335.949231 
L 92.423869 335.949231 
L 92.849534 334.495385 
L 93.913696 334.495385 
L 94.126528 334.010769 
L 94.339361 334.010769 
L 94.552193 333.526154 
L 94.977858 333.526154 
L 95.190691 333.041538 
L 95.403523 331.103077 
L 95.616356 331.103077 
L 95.829188 330.618462 
L 96.254853 330.618462 
L 96.89335 329.164615 
L 98.170345 329.164615 
L 98.383177 328.68 
L 98.59601 327.710769 
L 99.021675 327.710769 
L 99.234507 327.226154 
L 99.660172 327.226154 
L 99.873005 326.741538 
L 100.085837 326.741538 
L 100.511502 325.772308 
L 102.214162 325.772308 
L 102.639827 323.349231 
L 102.852659 314.141538 
L 103.065492 313.656923 
L 103.491157 313.656923 
L 103.916821 312.203077 
L 104.342486 311.233846 
L 105.832314 311.233846 
L 106.045146 310.749231 
L 106.257978 310.749231 
L 106.896476 309.295385 
L 107.109308 309.295385 
L 107.322141 308.810769 
L 107.960638 308.810769 
L 108.386303 307.841538 
L 109.237633 307.841538 
L 109.663298 306.387692 
L 109.87613 306.387692 
L 110.301795 305.418462 
L 111.365957 305.418462 
L 111.57879 304.933846 
L 112.217287 304.933846 
L 112.642952 303.964615 
L 113.068617 302.510769 
L 113.494282 302.510769 
L 113.707115 302.026154 
L 113.919947 302.026154 
L 114.132779 301.541538 
L 114.345612 301.541538 
L 114.558444 301.056923 
L 117.112434 301.056923 
L 117.325266 300.572308 
L 117.538099 300.572308 
L 117.750931 300.087692 
L 117.963764 300.087692 
L 118.176596 299.603077 
L 118.815094 299.603077 
L 119.240758 298.149231 
L 120.730586 298.149231 
L 120.943418 297.18 
L 121.581916 297.18 
L 121.794748 296.695385 
L 122.646078 296.695385 
L 122.85891 296.210769 
L 125.4129 296.210769 
L 125.625732 295.726154 
L 126.477062 295.726154 
L 126.689895 295.241538 
L 127.328392 295.241538 
L 127.754057 293.787692 
L 127.966889 293.303077 
L 129.243884 293.303077 
L 129.456717 292.818462 
L 131.372209 292.818462 
L 131.585041 292.333846 
L 134.99036 292.333846 
L 135.203193 290.395385 
L 135.628858 290.395385 
L 135.84169 289.426154 
L 136.054523 286.518462 
L 136.267355 286.033846 
L 137.970015 286.033846 
L 138.182847 285.549231 
L 140.736837 285.549231 
L 140.949669 284.58 
L 141.375334 284.58 
L 141.800999 283.610769 
L 143.929324 283.610769 
L 144.142156 283.126154 
L 144.993486 283.126154 
L 145.419151 282.156923 
L 145.631983 282.156923 
L 145.844816 281.672308 
L 148.611638 281.672308 
L 148.82447 281.187692 
L 149.462968 281.187692 
L 149.888633 280.218462 
L 150.314298 280.218462 
L 150.739962 273.433846 
L 150.952795 272.949231 
L 151.165627 272.949231 
L 151.37846 272.464615 
L 151.591292 272.464615 
L 151.804125 271.98 
L 152.016957 271.98 
L 152.22979 271.495385 
L 154.145282 271.495385 
L 154.358114 271.010769 
L 155.209444 271.010769 
L 155.422277 270.526154 
L 155.635109 270.526154 
L 155.847942 270.041538 
L 157.550601 270.041538 
L 157.763434 269.556923 
L 158.401931 269.556923 
L 158.614763 269.072308 
L 162.020083 269.072308 
L 162.445748 268.103077 
L 162.871413 268.103077 
L 163.084245 267.618462 
L 164.574072 267.618462 
L 164.786905 267.133846 
L 164.999737 267.133846 
L 165.21257 266.649231 
L 165.638235 266.649231 
L 165.851067 266.164615 
L 168.405057 266.164615 
L 168.617889 265.195385 
L 169.043554 265.195385 
L 169.469219 264.226154 
L 171.171879 264.226154 
L 171.597544 262.772308 
L 175.428528 262.772308 
L 175.64136 262.287692 
L 178.19535 262.287692 
L 178.621015 261.318462 
L 180.110842 261.318462 
L 180.536507 260.349231 
L 181.813502 260.349231 
L 182.026334 259.864615 
L 183.941826 259.864615 
L 184.154659 259.38 
L 187.77281 259.38 
L 187.985643 258.895385 
L 190.113967 258.895385 
L 190.3268 258.410769 
L 195.009114 258.410769 
L 195.434779 256.956923 
L 197.137439 256.956923 
L 197.350271 255.503077 
L 198.627266 255.503077 
L 198.840098 255.018462 
L 199.478596 255.018462 
L 199.691428 254.533846 
L 200.542758 254.533846 
L 200.75559 254.049231 
L 201.60692 254.049231 
L 201.819753 253.564615 
L 202.45825 253.564615 
L 202.671083 253.08 
L 203.735245 253.08 
L 203.948077 252.595385 
L 204.373742 252.595385 
L 204.586575 252.110769 
L 205.650737 252.110769 
L 205.863569 251.141538 
L 207.566229 251.141538 
L 207.779062 250.656923 
L 209.056056 250.656923 
L 209.268889 250.172308 
L 217.99502 250.172308 
L 218.207852 249.687692 
L 218.633517 249.687692 
L 218.84635 249.203077 
L 221.826004 249.203077 
L 222.038836 248.718462 
L 223.315831 248.718462 
L 223.528664 248.233846 
L 230.339302 248.233846 
L 230.552135 247.749231 
L 231.403465 247.749231 
L 231.616297 247.264615 
L 238.214103 247.264615 
L 238.426936 246.78 
L 239.703931 246.78 
L 239.916763 246.295385 
L 243.322082 246.295385 
L 243.534915 245.810769 
L 244.81191 245.810769 
L 245.024742 245.326154 
L 246.514569 245.326154 
L 246.727402 243.872308 
L 248.430061 243.872308 
L 248.855726 242.903077 
L 255.027868 242.903077 
L 255.2407 234.18 
L 257.369025 234.18 
L 257.581857 233.695385 
L 260.135847 233.695385 
L 260.348679 233.210769 
L 260.561512 233.210769 
L 260.774344 232.726154 
L 260.987176 231.756923 
L 269.500475 231.756923 
L 269.713307 231.272308 
L 269.92614 231.272308 
L 270.138972 230.787692 
L 271.415967 230.787692 
L 271.628799 230.303077 
L 271.841632 230.303077 
L 272.054464 229.818462 
L 279.716433 229.818462 
L 279.929265 229.333846 
L 288.442564 229.333846 
L 288.655396 228.849231 
L 298.232857 228.849231 
L 298.445689 228.364615 
L 304.192166 228.364615 
L 304.404998 227.88 
L 308.448815 227.88 
L 308.661647 226.910769 
L 311.428469 226.910769 
L 311.641302 222.064615 
L 311.854134 221.095385 
L 312.066967 221.095385 
L 312.279799 220.610769 
L 312.492632 220.610769 
L 312.705464 220.126154 
L 324.198417 220.126154 
L 324.411249 219.641538 
L 328.242234 219.641538 
L 328.455066 219.156923 
L 328.880731 219.156923 
L 329.093563 218.187692 
L 329.944893 218.187692 
L 330.370558 214.310769 
L 331.009056 214.310769 
L 331.221888 213.826154 
L 332.28605 213.826154 
L 332.498883 213.341538 
L 333.13738 213.341538 
L 333.350213 212.856923 
L 334.414375 212.856923 
L 334.627207 212.372308 
L 336.329867 212.372308 
L 336.5427 211.403077 
L 336.755532 211.403077 
L 336.968364 210.918462 
L 337.394029 204.618462 
L 338.245359 204.618462 
L 338.458192 204.133846 
L 343.140506 204.133846 
L 343.566171 203.164615 
L 346.332993 203.164615 
L 346.545825 201.226154 
L 347.609987 201.226154 
L 347.82282 200.741538 
L 348.035652 200.741538 
L 348.67415 197.833846 
L 348.886982 197.833846 
L 349.099815 196.38 
L 349.312647 195.895385 
L 349.738312 195.895385 
L 349.951144 194.441538 
L 350.163977 193.956923 
L 350.376809 191.049231 
L 350.802474 191.049231 
L 351.228139 182.810769 
L 351.440972 175.541538 
L 351.866637 170.210769 
L 352.505134 167.787692 
L 352.717966 167.303077 
L 352.930799 164.395385 
L 353.356464 162.941538 
L 353.569296 162.941538 
L 353.994961 161.487692 
L 354.207794 161.487692 
L 354.420626 158.095385 
L 354.633459 158.095385 
L 355.059124 154.703077 
L 355.271956 147.918462 
L 355.697621 144.041538 
L 356.548951 138.226154 
L 356.761783 138.226154 
L 356.974616 135.803077 
L 357.187448 135.318462 
L 357.400281 135.318462 
L 357.613113 134.833846 
L 358.038778 131.441538 
L 358.25161 131.441538 
L 358.464443 130.472308 
L 358.677275 130.472308 
L 359.10294 128.049231 
L 359.315773 127.08 
L 359.528605 127.08 
L 359.741438 126.595385 
L 359.95427 124.656923 
L 360.167103 124.656923 
L 360.592767 123.687692 
L 360.8056 122.233846 
L 361.018432 121.749231 
L 361.444097 120.295385 
L 361.65693 120.295385 
L 362.721092 110.603077 
L 363.146757 109.633846 
L 363.359589 109.633846 
L 363.572422 109.149231 
L 364.423752 109.149231 
L 364.636584 108.18 
L 364.849417 108.18 
L 365.062249 107.210769 
L 365.275082 105.272308 
L 365.913579 103.818462 
L 366.339244 102.364615 
L 366.552076 99.941538 
L 366.764909 99.456923 
L 366.977741 96.064615 
L 369.106066 96.064615 
L 369.318898 95.58 
L 372.08572 95.58 
L 372.298553 95.095385 
L 372.511385 94.126154 
L 372.724218 94.126154 
L 373.78838 91.703077 
L 375.49104 91.703077 
L 375.916705 89.28 
L 375.916705 89.28 
" clip-path="url(#p3802ea357a)" style="fill: none; stroke: #c957db; stroke-width: 1.2; stroke-linecap: round"/>
   </g>
   <g id="line2d_34"/>
   <g id="line2d_35"/>
   <g id="line2d_36"/>
   <g id="line2d_37"/>
   <g id="line2d_38"/>
   <g id="patch_3">
    <path d="M 54.3375 512.64 
L 54.3375 69.12 
" style="fill: none; stroke: #cccccc; stroke-linejoin: miter; stroke-linecap: square"/>
   </g>
   <g id="patch_4">
    <path d="M 54.3375 512.64 
L 391.23 512.64 
" style="fill: none; stroke: #cccccc; stroke-linejoin: miter; stroke-linecap: square"/>
   </g>
   <g id="text_31">
    <!-- Edge Coverage History -->
    <g style="fill: #262626" transform="translate(115.892262 63.12)scale(0.165888 -0.165888)">
     <defs>
      <path id="DejaVuSans-Bold-45" d="M 588 4666 
L 3834 4666 
L 3834 3756 
L 1791 3756 
L 1791 2888 
L 3713 2888 
L 3713 1978 
L 1791 1978 
L 1791 909 
L 3903 909 
L 3903 0 
L 588 0 
L 588 4666 
z
" transform="scale(0.015625)"/>
      <path id="DejaVuSans-Bold-64" d="M 2919 2988 
L 2919 4863 
L 4044 4863 
L 4044 0 
L 2919 0 
L 2919 506 
Q 2688 197 2409 53 
Q 2131 -91 1766 -91 
Q 1119 -91 703 423 
Q 288 938 288 1747 
Q 288 2556 703 3070 
Q 1119 3584 1766 3584 
Q 2128 3584 2408 3439 
Q 2688 3294 2919 2988 
z
M 2181 722 
Q 2541 722 2730 984 
Q 2919 1247 2919 1747 
Q 2919 2247 2730 2509 
Q 2541 2772 2181 2772 
Q 1825 2772 1636 2509 
Q 1447 2247 1447 1747 
Q 1447 1247 1636 984 
Q 1825 722 2181 722 
z
" transform="scale(0.015625)"/>
      <path id="DejaVuSans-Bold-67" d="M 2919 594 
Q 2688 288 2409 144 
Q 2131 0 1766 0 
Q 1125 0 706 504 
Q 288 1009 288 1791 
Q 288 2575 706 3076 
Q 1125 3578 1766 3578 
Q 2131 3578 2409 3434 
Q 2688 3291 2919 2981 
L 2919 3500 
L 4044 3500 
L 4044 353 
Q 4044 -491 3511 -936 
Q 2978 -1381 1966 -1381 
Q 1638 -1381 1331 -1331 
Q 1025 -1281 716 -1178 
L 716 -306 
Q 1009 -475 1290 -558 
Q 1572 -641 1856 -641 
Q 2406 -641 2662 -400 
Q 2919 -159 2919 353 
L 2919 594 
z
M 2181 2772 
Q 1834 2772 1640 2515 
Q 1447 2259 1447 1791 
Q 1447 1309 1634 1061 
Q 1822 813 2181 813 
Q 2531 813 2725 1069 
Q 2919 1325 2919 1791 
Q 2919 2259 2725 2515 
Q 2531 2772 2181 2772 
z
" transform="scale(0.015625)"/>
      <path id="DejaVuSans-Bold-65" d="M 4031 1759 
L 4031 1441 
L 1416 1441 
Q 1456 1047 1700 850 
Q 1944 653 2381 653 
Q 2734 653 3104 758 
Q 3475 863 3866 1075 
L 3866 213 
Q 3469 63 3072 -14 
Q 2675 -91 2278 -91 
Q 1328 -91 801 392 
Q 275 875 275 1747 
Q 275 2603 792 3093 
Q 1309 3584 2216 3584 
Q 3041 3584 3536 3087 
Q 4031 2591 4031 1759 
z
M 2881 2131 
Q 2881 2450 2695 2645 
Q 2509 2841 2209 2841 
Q 1884 2841 1681 2658 
Q 1478 2475 1428 2131 
L 2881 2131 
z
" transform="scale(0.015625)"/>
      <path id="DejaVuSans-Bold-20" transform="scale(0.015625)"/>
      <path id="DejaVuSans-Bold-43" d="M 4288 256 
Q 3956 84 3597 -3 
Q 3238 -91 2847 -91 
Q 1681 -91 1000 561 
Q 319 1213 319 2328 
Q 319 3447 1000 4098 
Q 1681 4750 2847 4750 
Q 3238 4750 3597 4662 
Q 3956 4575 4288 4403 
L 4288 3438 
Q 3953 3666 3628 3772 
Q 3303 3878 2944 3878 
Q 2300 3878 1931 3465 
Q 1563 3053 1563 2328 
Q 1563 1606 1931 1193 
Q 2300 781 2944 781 
Q 3303 781 3628 887 
Q 3953 994 4288 1222 
L 4288 256 
z
" transform="scale(0.015625)"/>
      <path id="DejaVuSans-Bold-6f" d="M 2203 2784 
Q 1831 2784 1636 2517 
Q 1441 2250 1441 1747 
Q 1441 1244 1636 976 
Q 1831 709 2203 709 
Q 2569 709 2762 976 
Q 2956 1244 2956 1747 
Q 2956 2250 2762 2517 
Q 2569 2784 2203 2784 
z
M 2203 3584 
Q 3106 3584 3614 3096 
Q 4122 2609 4122 1747 
Q 4122 884 3614 396 
Q 3106 -91 2203 -91 
Q 1297 -91 786 396 
Q 275 884 275 1747 
Q 275 2609 786 3096 
Q 1297 3584 2203 3584 
z
" transform="scale(0.015625)"/>
      <path id="DejaVuSans-Bold-76" d="M 97 3500 
L 1216 3500 
L 2088 1081 
L 2956 3500 
L 4078 3500 
L 2700 0 
L 1472 0 
L 97 3500 
z
" transform="scale(0.015625)"/>
      <path id="DejaVuSans-Bold-72" d="M 3138 2547 
Q 2991 2616 2845 2648 
Q 2700 2681 2553 2681 
Q 2122 2681 1889 2404 
Q 1656 2128 1656 1613 
L 1656 0 
L 538 0 
L 538 3500 
L 1656 3500 
L 1656 2925 
Q 1872 3269 2151 3426 
Q 2431 3584 2822 3584 
Q 2878 3584 2943 3579 
Q 3009 3575 3134 3559 
L 3138 2547 
z
" transform="scale(0.015625)"/>
      <path id="DejaVuSans-Bold-61" d="M 2106 1575 
Q 1756 1575 1579 1456 
Q 1403 1338 1403 1106 
Q 1403 894 1545 773 
Q 1688 653 1941 653 
Q 2256 653 2472 879 
Q 2688 1106 2688 1447 
L 2688 1575 
L 2106 1575 
z
M 3816 1997 
L 3816 0 
L 2688 0 
L 2688 519 
Q 2463 200 2181 54 
Q 1900 -91 1497 -91 
Q 953 -91 614 226 
Q 275 544 275 1050 
Q 275 1666 698 1953 
Q 1122 2241 2028 2241 
L 2688 2241 
L 2688 2328 
Q 2688 2594 2478 2717 
Q 2269 2841 1825 2841 
Q 1466 2841 1156 2769 
Q 847 2697 581 2553 
L 581 3406 
Q 941 3494 1303 3539 
Q 1666 3584 2028 3584 
Q 2975 3584 3395 3211 
Q 3816 2838 3816 1997 
z
" transform="scale(0.015625)"/>
      <path id="DejaVuSans-Bold-48" d="M 588 4666 
L 1791 4666 
L 1791 2888 
L 3566 2888 
L 3566 4666 
L 4769 4666 
L 4769 0 
L 3566 0 
L 3566 1978 
L 1791 1978 
L 1791 0 
L 588 0 
L 588 4666 
z
" transform="scale(0.015625)"/>
      <path id="DejaVuSans-Bold-69" d="M 538 3500 
L 1656 3500 
L 1656 0 
L 538 0 
L 538 3500 
z
M 538 4863 
L 1656 4863 
L 1656 3950 
L 538 3950 
L 538 4863 
z
" transform="scale(0.015625)"/>
      <path id="DejaVuSans-Bold-73" d="M 3272 3391 
L 3272 2541 
Q 2913 2691 2578 2766 
Q 2244 2841 1947 2841 
Q 1628 2841 1473 2761 
Q 1319 2681 1319 2516 
Q 1319 2381 1436 2309 
Q 1553 2238 1856 2203 
L 2053 2175 
Q 2913 2066 3209 1816 
Q 3506 1566 3506 1031 
Q 3506 472 3093 190 
Q 2681 -91 1863 -91 
Q 1516 -91 1145 -36 
Q 775 19 384 128 
L 384 978 
Q 719 816 1070 734 
Q 1422 653 1784 653 
Q 2113 653 2278 743 
Q 2444 834 2444 1013 
Q 2444 1163 2330 1236 
Q 2216 1309 1875 1350 
L 1678 1375 
Q 931 1469 631 1722 
Q 331 1975 331 2491 
Q 331 3047 712 3315 
Q 1094 3584 1881 3584 
Q 2191 3584 2531 3537 
Q 2872 3491 3272 3391 
z
" transform="scale(0.015625)"/>
      <path id="DejaVuSans-Bold-74" d="M 1759 4494 
L 1759 3500 
L 2913 3500 
L 2913 2700 
L 1759 2700 
L 1759 1216 
Q 1759 972 1856 886 
Q 1953 800 2241 800 
L 2816 800 
L 2816 0 
L 1856 0 
Q 1194 0 917 276 
Q 641 553 641 1216 
L 641 2700 
L 84 2700 
L 84 3500 
L 641 3500 
L 641 4494 
L 1759 4494 
z
" transform="scale(0.015625)"/>
      <path id="DejaVuSans-Bold-79" d="M 78 3500 
L 1197 3500 
L 2138 1125 
L 2938 3500 
L 4056 3500 
L 2584 -331 
Q 2363 -916 2067 -1148 
Q 1772 -1381 1288 -1381 
L 641 -1381 
L 641 -647 
L 991 -647 
Q 1275 -647 1404 -556 
Q 1534 -466 1606 -231 
L 1638 -134 
L 78 3500 
z
" transform="scale(0.015625)"/>
     </defs>
     <use xlink:href="#DejaVuSans-Bold-45"/>
     <use xlink:href="#DejaVuSans-Bold-64" x="68.310547"/>
     <use xlink:href="#DejaVuSans-Bold-67" x="139.892578"/>
     <use xlink:href="#DejaVuSans-Bold-65" x="211.474609"/>
     <use xlink:href="#DejaVuSans-Bold-20" x="279.296875"/>
     <use xlink:href="#DejaVuSans-Bold-43" x="314.111328"/>
     <use xlink:href="#DejaVuSans-Bold-6f" x="387.5"/>
     <use xlink:href="#DejaVuSans-Bold-76" x="456.201172"/>
     <use xlink:href="#DejaVuSans-Bold-65" x="521.386719"/>
     <use xlink:href="#DejaVuSans-Bold-72" x="589.208984"/>
     <use xlink:href="#DejaVuSans-Bold-61" x="638.525391"/>
     <use xlink:href="#DejaVuSans-Bold-67" x="706.005859"/>
     <use xlink:href="#DejaVuSans-Bold-65" x="777.587891"/>
     <use xlink:href="#DejaVuSans-Bold-20" x="845.410156"/>
     <use xlink:href="#DejaVuSans-Bold-48" x="880.224609"/>
     <use xlink:href="#DejaVuSans-Bold-69" x="963.916016"/>
     <use xlink:href="#DejaVuSans-Bold-73" x="998.193359"/>
     <use xlink:href="#DejaVuSans-Bold-74" x="1057.714844"/>
     <use xlink:href="#DejaVuSans-Bold-6f" x="1105.517578"/>
     <use xlink:href="#DejaVuSans-Bold-72" x="1174.21875"/>
     <use xlink:href="#DejaVuSans-Bold-79" x="1223.535156"/>
    </g>
   </g>
   <g id="legend_1">
    <g id="patch_5">
     <path d="M 60.4975 154.6795 
L 177.6255 154.6795 
Q 179.3855 154.6795 179.3855 152.9195 
L 179.3855 75.28 
Q 179.3855 73.52 177.6255 73.52 
L 60.4975 73.52 
Q 58.7375 73.52 58.7375 75.28 
L 58.7375 152.9195 
Q 58.7375 154.6795 60.4975 154.6795 
z
" style="fill: #ffffff; opacity: 0.8; stroke: #cccccc; stroke-width: 0.8; stroke-linejoin: miter"/>
    </g>
    <g id="text_32">
     <!-- fuzzer -->
     <g style="fill: #262626" transform="translate(104.3645 84.3345)scale(0.096 -0.096)">
      <defs>
       <path id="DejaVuSans-66" d="M 2375 4863 
L 2375 4384 
L 1825 4384 
Q 1516 4384 1395 4259 
Q 1275 4134 1275 3809 
L 1275 3500 
L 2222 3500 
L 2222 3053 
L 1275 3053 
L 1275 0 
L 697 0 
L 697 3053 
L 147 3053 
L 147 3500 
L 697 3500 
L 697 3744 
Q 697 4328 969 4595 
Q 1241 4863 1831 4863 
L 2375 4863 
z
" transform="scale(0.015625)"/>
       <path id="DejaVuSans-7a" d="M 353 3500 
L 3084 3500 
L 3084 2975 
L 922 459 
L 3084 459 
L 3084 0 
L 275 0 
L 275 525 
L 2438 3041 
L 353 3041 
L 353 3500 
z
" transform="scale(0.015625)"/>
      </defs>
      <use xlink:href="#DejaVuSans-66"/>
      <use xlink:href="#DejaVuSans-75" x="35.205078"/>
      <use xlink:href="#DejaVuSans-7a" x="98.583984"/>
      <use xlink:href="#DejaVuSans-7a" x="151.074219"/>
      <use xlink:href="#DejaVuSans-65" x="203.564453"/>
      <use xlink:href="#DejaVuSans-72" x="265.087891"/>
     </g>
    </g>
    <g id="line2d_39">
     <path d="M 62.2575 94.337625 
L 71.0575 94.337625 
L 79.8575 94.337625 
" style="fill: none; stroke: #db5f57; stroke-width: 1.2; stroke-linecap: round"/>
    </g>
    <g id="text_33">
     <!-- afl-0-exid20 -->
     <g style="fill: #262626" transform="translate(86.8975 97.417625)scale(0.088 -0.088)">
      <defs>
       <path id="DejaVuSans-6c" d="M 603 4863 
L 1178 4863 
L 1178 0 
L 603 0 
L 603 4863 
z
" transform="scale(0.015625)"/>
       <path id="DejaVuSans-2d" d="M 313 2009 
L 1997 2009 
L 1997 1497 
L 313 1497 
L 313 2009 
z
" transform="scale(0.015625)"/>
       <path id="DejaVuSans-78" d="M 3513 3500 
L 2247 1797 
L 3578 0 
L 2900 0 
L 1881 1375 
L 863 0 
L 184 0 
L 1544 1831 
L 300 3500 
L 978 3500 
L 1906 2253 
L 2834 3500 
L 3513 3500 
z
" transform="scale(0.015625)"/>
      </defs>
      <use xlink:href="#DejaVuSans-61"/>
      <use xlink:href="#DejaVuSans-66" x="61.279297"/>
      <use xlink:href="#DejaVuSans-6c" x="96.484375"/>
      <use xlink:href="#DejaVuSans-2d" x="124.267578"/>
      <use xlink:href="#DejaVuSans-30" x="160.351562"/>
      <use xlink:href="#DejaVuSans-2d" x="223.974609"/>
      <use xlink:href="#DejaVuSans-65" x="260.058594"/>
      <use xlink:href="#DejaVuSans-78" x="319.832031"/>
      <use xlink:href="#DejaVuSans-69" x="379.011719"/>
      <use xlink:href="#DejaVuSans-64" x="406.794922"/>
      <use xlink:href="#DejaVuSans-32" x="470.271484"/>
      <use xlink:href="#DejaVuSans-30" x="533.894531"/>
     </g>
    </g>
    <g id="line2d_40">
     <path d="M 62.2575 107.254375 
L 71.0575 107.254375 
L 79.8575 107.254375 
" style="fill: none; stroke: #b9db57; stroke-width: 1.2; stroke-linecap: round"/>
    </g>
    <g id="text_34">
     <!-- fairfuzz-0-exid20 -->
     <g style="fill: #262626" transform="translate(86.8975 110.334375)scale(0.088 -0.088)">
      <use xlink:href="#DejaVuSans-66"/>
      <use xlink:href="#DejaVuSans-61" x="35.205078"/>
      <use xlink:href="#DejaVuSans-69" x="96.484375"/>
      <use xlink:href="#DejaVuSans-72" x="124.267578"/>
      <use xlink:href="#DejaVuSans-66" x="165.380859"/>
      <use xlink:href="#DejaVuSans-75" x="200.585938"/>
      <use xlink:href="#DejaVuSans-7a" x="263.964844"/>
      <use xlink:href="#DejaVuSans-7a" x="316.455078"/>
      <use xlink:href="#DejaVuSans-2d" x="368.945312"/>
      <use xlink:href="#DejaVuSans-30" x="405.029297"/>
      <use xlink:href="#DejaVuSans-2d" x="468.652344"/>
      <use xlink:href="#DejaVuSans-65" x="504.736328"/>
      <use xlink:href="#DejaVuSans-78" x="564.509766"/>
      <use xlink:href="#DejaVuSans-69" x="623.689453"/>
      <use xlink:href="#DejaVuSans-64" x="651.472656"/>
      <use xlink:href="#DejaVuSans-32" x="714.949219"/>
      <use xlink:href="#DejaVuSans-30" x="778.572266"/>
     </g>
    </g>
    <g id="line2d_41">
     <path d="M 62.2575 120.171125 
L 71.0575 120.171125 
L 79.8575 120.171125 
" style="fill: none; stroke: #57db94; stroke-width: 1.2; stroke-linecap: round"/>
    </g>
    <g id="text_35">
     <!-- aflplusplus-0-exid20 -->
     <g style="fill: #262626" transform="translate(86.8975 123.251125)scale(0.088 -0.088)">
      <defs>
       <path id="DejaVuSans-70" d="M 1159 525 
L 1159 -1331 
L 581 -1331 
L 581 3500 
L 1159 3500 
L 1159 2969 
Q 1341 3281 1617 3432 
Q 1894 3584 2278 3584 
Q 2916 3584 3314 3078 
Q 3713 2572 3713 1747 
Q 3713 922 3314 415 
Q 2916 -91 2278 -91 
Q 1894 -91 1617 61 
Q 1341 213 1159 525 
z
M 3116 1747 
Q 3116 2381 2855 2742 
Q 2594 3103 2138 3103 
Q 1681 3103 1420 2742 
Q 1159 2381 1159 1747 
Q 1159 1113 1420 752 
Q 1681 391 2138 391 
Q 2594 391 2855 752 
Q 3116 1113 3116 1747 
z
" transform="scale(0.015625)"/>
      </defs>
      <use xlink:href="#DejaVuSans-61"/>
      <use xlink:href="#DejaVuSans-66" x="61.279297"/>
      <use xlink:href="#DejaVuSans-6c" x="96.484375"/>
      <use xlink:href="#DejaVuSans-70" x="124.267578"/>
      <use xlink:href="#DejaVuSans-6c" x="187.744141"/>
      <use xlink:href="#DejaVuSans-75" x="215.527344"/>
      <use xlink:href="#DejaVuSans-73" x="278.90625"/>
      <use xlink:href="#DejaVuSans-70" x="331.005859"/>
      <use xlink:href="#DejaVuSans-6c" x="394.482422"/>
      <use xlink:href="#DejaVuSans-75" x="422.265625"/>
      <use xlink:href="#DejaVuSans-73" x="485.644531"/>
      <use xlink:href="#DejaVuSans-2d" x="537.744141"/>
      <use xlink:href="#DejaVuSans-30" x="573.828125"/>
      <use xlink:href="#DejaVuSans-2d" x="637.451172"/>
      <use xlink:href="#DejaVuSans-65" x="673.535156"/>
      <use xlink:href="#DejaVuSans-78" x="733.308594"/>
      <use xlink:href="#DejaVuSans-69" x="792.488281"/>
      <use xlink:href="#DejaVuSans-64" x="820.271484"/>
      <use xlink:href="#DejaVuSans-32" x="883.748047"/>
      <use xlink:href="#DejaVuSans-30" x="947.371094"/>
     </g>
    </g>
    <g id="line2d_42">
     <path d="M 62.2575 133.087875 
L 71.0575 133.087875 
L 79.8575 133.087875 
" style="fill: none; stroke: #5784db; stroke-width: 1.2; stroke-linecap: round"/>
    </g>
    <g id="text_36">
     <!-- aflfast-0-exid20 -->
     <g style="fill: #262626" transform="translate(86.8975 136.167875)scale(0.088 -0.088)">
      <use xlink:href="#DejaVuSans-61"/>
      <use xlink:href="#DejaVuSans-66" x="61.279297"/>
      <use xlink:href="#DejaVuSans-6c" x="96.484375"/>
      <use xlink:href="#DejaVuSans-66" x="124.267578"/>
      <use xlink:href="#DejaVuSans-61" x="159.472656"/>
      <use xlink:href="#DejaVuSans-73" x="220.751953"/>
      <use xlink:href="#DejaVuSans-74" x="272.851562"/>
      <use xlink:href="#DejaVuSans-2d" x="312.060547"/>
      <use xlink:href="#DejaVuSans-30" x="348.144531"/>
      <use xlink:href="#DejaVuSans-2d" x="411.767578"/>
      <use xlink:href="#DejaVuSans-65" x="447.851562"/>
      <use xlink:href="#DejaVuSans-78" x="507.625"/>
      <use xlink:href="#DejaVuSans-69" x="566.804688"/>
      <use xlink:href="#DejaVuSans-64" x="594.587891"/>
      <use xlink:href="#DejaVuSans-32" x="658.064453"/>
      <use xlink:href="#DejaVuSans-30" x="721.6875"/>
     </g>
    </g>
    <g id="line2d_43">
     <path d="M 62.2575 146.004625 
L 71.0575 146.004625 
L 79.8575 146.004625 
" style="fill: none; stroke: #c957db; stroke-width: 1.2; stroke-linecap: round"/>
    </g>
    <g id="text_37">
     <!-- fuzzer_global -->
     <g style="fill: #262626" transform="translate(86.8975 149.084625)scale(0.088 -0.088)">
      <defs>
       <path id="DejaVuSans-5f" d="M 3263 -1063 
L 3263 -1509 
L -63 -1509 
L -63 -1063 
L 3263 -1063 
z
" transform="scale(0.015625)"/>
       <path id="DejaVuSans-62" d="M 3116 1747 
Q 3116 2381 2855 2742 
Q 2594 3103 2138 3103 
Q 1681 3103 1420 2742 
Q 1159 2381 1159 1747 
Q 1159 1113 1420 752 
Q 1681 391 2138 391 
Q 2594 391 2855 752 
Q 3116 1113 3116 1747 
z
M 1159 2969 
Q 1341 3281 1617 3432 
Q 1894 3584 2278 3584 
Q 2916 3584 3314 3078 
Q 3713 2572 3713 1747 
Q 3713 922 3314 415 
Q 2916 -91 2278 -91 
Q 1894 -91 1617 61 
Q 1341 213 1159 525 
L 1159 0 
L 581 0 
L 581 4863 
L 1159 4863 
L 1159 2969 
z
" transform="scale(0.015625)"/>
      </defs>
      <use xlink:href="#DejaVuSans-66"/>
      <use xlink:href="#DejaVuSans-75" x="35.205078"/>
      <use xlink:href="#DejaVuSans-7a" x="98.583984"/>
      <use xlink:href="#DejaVuSans-7a" x="151.074219"/>
      <use xlink:href="#DejaVuSans-65" x="203.564453"/>
      <use xlink:href="#DejaVuSans-72" x="265.087891"/>
      <use xlink:href="#DejaVuSans-5f" x="306.201172"/>
      <use xlink:href="#DejaVuSans-67" x="356.201172"/>
      <use xlink:href="#DejaVuSans-6c" x="419.677734"/>
      <use xlink:href="#DejaVuSans-6f" x="447.460938"/>
      <use xlink:href="#DejaVuSans-62" x="508.642578"/>
      <use xlink:href="#DejaVuSans-61" x="572.119141"/>
      <use xlink:href="#DejaVuSans-6c" x="633.398438"/>
     </g>
    </g>
   </g>
  </g>
 </g>
 <defs>
  <clipPath id="p3802ea357a">
   <rect x="54.3375" y="69.12" width="336.8925" height="443.52"/>
  </clipPath>
 </defs>
</svg>
