<?xml version="1.0" encoding="utf-8" standalone="no"?>
<!DOCTYPE svg PUBLIC "-//W3C//DTD SVG 1.1//EN"
  "http://www.w3.org/Graphics/SVG/1.1/DTD/svg11.dtd">
<svg xmlns:xlink="http://www.w3.org/1999/xlink" width="434.7pt" height="576pt" viewBox="0 0 434.7 576" xmlns="http://www.w3.org/2000/svg" version="1.1">
 <metadata>
  <rdf:RDF xmlns:dc="http://purl.org/dc/elements/1.1/" xmlns:cc="http://creativecommons.org/ns#" xmlns:rdf="http://www.w3.org/1999/02/22-rdf-syntax-ns#">
   <cc:Work>
    <dc:type rdf:resource="http://purl.org/dc/dcmitype/StillImage"/>
    <dc:date>2022-09-15T10:48:30.538835</dc:date>
    <dc:format>image/svg+xml</dc:format>
    <dc:creator>
     <cc:Agent>
      <dc:title>Matplotlib v3.5.3, https://matplotlib.org/</dc:title>
     </cc:Agent>
    </dc:creator>
   </cc:Work>
  </rdf:RDF>
 </metadata>
 <defs>
  <style type="text/css">*{stroke-linejoin: round; stroke-linecap: butt}</style>
 </defs>
 <g id="figure_1">
  <g id="patch_1">
   <path d="M 0 576 
L 434.7 576 
L 434.7 0 
L 0 0 
z
" style="fill: #ffffff"/>
  </g>
  <g id="axes_1">
   <g id="patch_2">
    <path d="M 54.3375 512.64 
L 391.23 512.64 
L 391.23 69.12 
L 54.3375 69.12 
z
" style="fill: #ffffff"/>
   </g>
   <g id="matplotlib.axis_1">
    <g id="xtick_1">
     <g id="line2d_1">
      <path d="M 69.650795 512.64 
L 69.650795 69.12 
" clip-path="url(#pcef7c2f728)" style="fill: none; stroke: #cccccc; stroke-width: 0.8; stroke-linecap: round"/>
     </g>
     <g id="text_1">
      <!-- 0 -->
      <g style="fill: #262626" transform="translate(69.388282 529.627249)rotate(-45)scale(0.088 -0.088)">
       <defs>
        <path id="DejaVuSans-30" d="M 2034 4250 
Q 1547 4250 1301 3770 
Q 1056 3291 1056 2328 
Q 1056 1369 1301 889 
Q 1547 409 2034 409 
Q 2525 409 2770 889 
Q 3016 1369 3016 2328 
Q 3016 3291 2770 3770 
Q 2525 4250 2034 4250 
z
M 2034 4750 
Q 2819 4750 3233 4129 
Q 3647 3509 3647 2328 
Q 3647 1150 3233 529 
Q 2819 -91 2034 -91 
Q 1250 -91 836 529 
Q 422 1150 422 2328 
Q 422 3509 836 4129 
Q 1250 4750 2034 4750 
z
" transform="scale(0.015625)"/>
       </defs>
       <use xlink:href="#DejaVuSans-30"/>
      </g>
     </g>
    </g>
    <g id="xtick_2">
     <g id="line2d_2">
      <path d="M 86.677392 512.64 
L 86.677392 69.12 
" clip-path="url(#pcef7c2f728)" style="fill: none; stroke: #cccccc; stroke-width: 0.8; stroke-linecap: round"/>
     </g>
     <g id="text_2">
      <!-- 80 -->
      <g style="fill: #262626" transform="translate(84.435333 533.58634)rotate(-45)scale(0.088 -0.088)">
       <defs>
        <path id="DejaVuSans-38" d="M 2034 2216 
Q 1584 2216 1326 1975 
Q 1069 1734 1069 1313 
Q 1069 891 1326 650 
Q 1584 409 2034 409 
Q 2484 409 2743 651 
Q 3003 894 3003 1313 
Q 3003 1734 2745 1975 
Q 2488 2216 2034 2216 
z
M 1403 2484 
Q 997 2584 770 2862 
Q 544 3141 544 3541 
Q 544 4100 942 4425 
Q 1341 4750 2034 4750 
Q 2731 4750 3128 4425 
Q 3525 4100 3525 3541 
Q 3525 3141 3298 2862 
Q 3072 2584 2669 2484 
Q 3125 2378 3379 2068 
Q 3634 1759 3634 1313 
Q 3634 634 3220 271 
Q 2806 -91 2034 -91 
Q 1263 -91 848 271 
Q 434 634 434 1313 
Q 434 1759 690 2068 
Q 947 2378 1403 2484 
z
M 1172 3481 
Q 1172 3119 1398 2916 
Q 1625 2713 2034 2713 
Q 2441 2713 2670 2916 
Q 2900 3119 2900 3481 
Q 2900 3844 2670 4047 
Q 2441 4250 2034 4250 
Q 1625 4250 1398 4047 
Q 1172 3844 1172 3481 
z
" transform="scale(0.015625)"/>
       </defs>
       <use xlink:href="#DejaVuSans-38"/>
       <use xlink:href="#DejaVuSans-30" x="63.623047"/>
      </g>
     </g>
    </g>
    <g id="xtick_3">
     <g id="line2d_3">
      <path d="M 103.703989 512.64 
L 103.703989 69.12 
" clip-path="url(#pcef7c2f728)" style="fill: none; stroke: #cccccc; stroke-width: 0.8; stroke-linecap: round"/>
     </g>
     <g id="text_3">
      <!-- 160 -->
      <g style="fill: #262626" transform="translate(99.482385 537.54543)rotate(-45)scale(0.088 -0.088)">
       <defs>
        <path id="DejaVuSans-31" d="M 794 531 
L 1825 531 
L 1825 4091 
L 703 3866 
L 703 4441 
L 1819 4666 
L 2450 4666 
L 2450 531 
L 3481 531 
L 3481 0 
L 794 0 
L 794 531 
z
" transform="scale(0.015625)"/>
        <path id="DejaVuSans-36" d="M 2113 2584 
Q 1688 2584 1439 2293 
Q 1191 2003 1191 1497 
Q 1191 994 1439 701 
Q 1688 409 2113 409 
Q 2538 409 2786 701 
Q 3034 994 3034 1497 
Q 3034 2003 2786 2293 
Q 2538 2584 2113 2584 
z
M 3366 4563 
L 3366 3988 
Q 3128 4100 2886 4159 
Q 2644 4219 2406 4219 
Q 1781 4219 1451 3797 
Q 1122 3375 1075 2522 
Q 1259 2794 1537 2939 
Q 1816 3084 2150 3084 
Q 2853 3084 3261 2657 
Q 3669 2231 3669 1497 
Q 3669 778 3244 343 
Q 2819 -91 2113 -91 
Q 1303 -91 875 529 
Q 447 1150 447 2328 
Q 447 3434 972 4092 
Q 1497 4750 2381 4750 
Q 2619 4750 2861 4703 
Q 3103 4656 3366 4563 
z
" transform="scale(0.015625)"/>
       </defs>
       <use xlink:href="#DejaVuSans-31"/>
       <use xlink:href="#DejaVuSans-36" x="63.623047"/>
       <use xlink:href="#DejaVuSans-30" x="127.246094"/>
      </g>
     </g>
    </g>
    <g id="xtick_4">
     <g id="line2d_4">
      <path d="M 120.730586 512.64 
L 120.730586 69.12 
" clip-path="url(#pcef7c2f728)" style="fill: none; stroke: #cccccc; stroke-width: 0.8; stroke-linecap: round"/>
     </g>
     <g id="text_4">
      <!-- 240 -->
      <g style="fill: #262626" transform="translate(116.508981 537.54543)rotate(-45)scale(0.088 -0.088)">
       <defs>
        <path id="DejaVuSans-32" d="M 1228 531 
L 3431 531 
L 3431 0 
L 469 0 
L 469 531 
Q 828 903 1448 1529 
Q 2069 2156 2228 2338 
Q 2531 2678 2651 2914 
Q 2772 3150 2772 3378 
Q 2772 3750 2511 3984 
Q 2250 4219 1831 4219 
Q 1534 4219 1204 4116 
Q 875 4013 500 3803 
L 500 4441 
Q 881 4594 1212 4672 
Q 1544 4750 1819 4750 
Q 2544 4750 2975 4387 
Q 3406 4025 3406 3419 
Q 3406 3131 3298 2873 
Q 3191 2616 2906 2266 
Q 2828 2175 2409 1742 
Q 1991 1309 1228 531 
z
" transform="scale(0.015625)"/>
        <path id="DejaVuSans-34" d="M 2419 4116 
L 825 1625 
L 2419 1625 
L 2419 4116 
z
M 2253 4666 
L 3047 4666 
L 3047 1625 
L 3713 1625 
L 3713 1100 
L 3047 1100 
L 3047 0 
L 2419 0 
L 2419 1100 
L 313 1100 
L 313 1709 
L 2253 4666 
z
" transform="scale(0.015625)"/>
       </defs>
       <use xlink:href="#DejaVuSans-32"/>
       <use xlink:href="#DejaVuSans-34" x="63.623047"/>
       <use xlink:href="#DejaVuSans-30" x="127.246094"/>
      </g>
     </g>
    </g>
    <g id="xtick_5">
     <g id="line2d_5">
      <path d="M 137.757182 512.64 
L 137.757182 69.12 
" clip-path="url(#pcef7c2f728)" style="fill: none; stroke: #cccccc; stroke-width: 0.8; stroke-linecap: round"/>
     </g>
     <g id="text_5">
      <!-- 320 -->
      <g style="fill: #262626" transform="translate(133.535578 537.54543)rotate(-45)scale(0.088 -0.088)">
       <defs>
        <path id="DejaVuSans-33" d="M 2597 2516 
Q 3050 2419 3304 2112 
Q 3559 1806 3559 1356 
Q 3559 666 3084 287 
Q 2609 -91 1734 -91 
Q 1441 -91 1130 -33 
Q 819 25 488 141 
L 488 750 
Q 750 597 1062 519 
Q 1375 441 1716 441 
Q 2309 441 2620 675 
Q 2931 909 2931 1356 
Q 2931 1769 2642 2001 
Q 2353 2234 1838 2234 
L 1294 2234 
L 1294 2753 
L 1863 2753 
Q 2328 2753 2575 2939 
Q 2822 3125 2822 3475 
Q 2822 3834 2567 4026 
Q 2313 4219 1838 4219 
Q 1578 4219 1281 4162 
Q 984 4106 628 3988 
L 628 4550 
Q 988 4650 1302 4700 
Q 1616 4750 1894 4750 
Q 2613 4750 3031 4423 
Q 3450 4097 3450 3541 
Q 3450 3153 3228 2886 
Q 3006 2619 2597 2516 
z
" transform="scale(0.015625)"/>
       </defs>
       <use xlink:href="#DejaVuSans-33"/>
       <use xlink:href="#DejaVuSans-32" x="63.623047"/>
       <use xlink:href="#DejaVuSans-30" x="127.246094"/>
      </g>
     </g>
    </g>
    <g id="xtick_6">
     <g id="line2d_6">
      <path d="M 154.783779 512.64 
L 154.783779 69.12 
" clip-path="url(#pcef7c2f728)" style="fill: none; stroke: #cccccc; stroke-width: 0.8; stroke-linecap: round"/>
     </g>
     <g id="text_6">
      <!-- 400 -->
      <g style="fill: #262626" transform="translate(150.562175 537.54543)rotate(-45)scale(0.088 -0.088)">
       <use xlink:href="#DejaVuSans-34"/>
       <use xlink:href="#DejaVuSans-30" x="63.623047"/>
       <use xlink:href="#DejaVuSans-30" x="127.246094"/>
      </g>
     </g>
    </g>
    <g id="xtick_7">
     <g id="line2d_7">
      <path d="M 171.810376 512.64 
L 171.810376 69.12 
" clip-path="url(#pcef7c2f728)" style="fill: none; stroke: #cccccc; stroke-width: 0.8; stroke-linecap: round"/>
     </g>
     <g id="text_7">
      <!-- 480 -->
      <g style="fill: #262626" transform="translate(167.588772 537.54543)rotate(-45)scale(0.088 -0.088)">
       <use xlink:href="#DejaVuSans-34"/>
       <use xlink:href="#DejaVuSans-38" x="63.623047"/>
       <use xlink:href="#DejaVuSans-30" x="127.246094"/>
      </g>
     </g>
    </g>
    <g id="xtick_8">
     <g id="line2d_8">
      <path d="M 188.836973 512.64 
L 188.836973 69.12 
" clip-path="url(#pcef7c2f728)" style="fill: none; stroke: #cccccc; stroke-width: 0.8; stroke-linecap: round"/>
     </g>
     <g id="text_8">
      <!-- 560 -->
      <g style="fill: #262626" transform="translate(184.615368 537.54543)rotate(-45)scale(0.088 -0.088)">
       <defs>
        <path id="DejaVuSans-35" d="M 691 4666 
L 3169 4666 
L 3169 4134 
L 1269 4134 
L 1269 2991 
Q 1406 3038 1543 3061 
Q 1681 3084 1819 3084 
Q 2600 3084 3056 2656 
Q 3513 2228 3513 1497 
Q 3513 744 3044 326 
Q 2575 -91 1722 -91 
Q 1428 -91 1123 -41 
Q 819 9 494 109 
L 494 744 
Q 775 591 1075 516 
Q 1375 441 1709 441 
Q 2250 441 2565 725 
Q 2881 1009 2881 1497 
Q 2881 1984 2565 2268 
Q 2250 2553 1709 2553 
Q 1456 2553 1204 2497 
Q 953 2441 691 2322 
L 691 4666 
z
" transform="scale(0.015625)"/>
       </defs>
       <use xlink:href="#DejaVuSans-35"/>
       <use xlink:href="#DejaVuSans-36" x="63.623047"/>
       <use xlink:href="#DejaVuSans-30" x="127.246094"/>
      </g>
     </g>
    </g>
    <g id="xtick_9">
     <g id="line2d_9">
      <path d="M 205.863569 512.64 
L 205.863569 69.12 
" clip-path="url(#pcef7c2f728)" style="fill: none; stroke: #cccccc; stroke-width: 0.8; stroke-linecap: round"/>
     </g>
     <g id="text_9">
      <!-- 640 -->
      <g style="fill: #262626" transform="translate(201.641965 537.54543)rotate(-45)scale(0.088 -0.088)">
       <use xlink:href="#DejaVuSans-36"/>
       <use xlink:href="#DejaVuSans-34" x="63.623047"/>
       <use xlink:href="#DejaVuSans-30" x="127.246094"/>
      </g>
     </g>
    </g>
    <g id="xtick_10">
     <g id="line2d_10">
      <path d="M 222.890166 512.64 
L 222.890166 69.12 
" clip-path="url(#pcef7c2f728)" style="fill: none; stroke: #cccccc; stroke-width: 0.8; stroke-linecap: round"/>
     </g>
     <g id="text_10">
      <!-- 720 -->
      <g style="fill: #262626" transform="translate(218.668562 537.54543)rotate(-45)scale(0.088 -0.088)">
       <defs>
        <path id="DejaVuSans-37" d="M 525 4666 
L 3525 4666 
L 3525 4397 
L 1831 0 
L 1172 0 
L 2766 4134 
L 525 4134 
L 525 4666 
z
" transform="scale(0.015625)"/>
       </defs>
       <use xlink:href="#DejaVuSans-37"/>
       <use xlink:href="#DejaVuSans-32" x="63.623047"/>
       <use xlink:href="#DejaVuSans-30" x="127.246094"/>
      </g>
     </g>
    </g>
    <g id="xtick_11">
     <g id="line2d_11">
      <path d="M 239.916763 512.64 
L 239.916763 69.12 
" clip-path="url(#pcef7c2f728)" style="fill: none; stroke: #cccccc; stroke-width: 0.8; stroke-linecap: round"/>
     </g>
     <g id="text_11">
      <!-- 800 -->
      <g style="fill: #262626" transform="translate(235.695159 537.54543)rotate(-45)scale(0.088 -0.088)">
       <use xlink:href="#DejaVuSans-38"/>
       <use xlink:href="#DejaVuSans-30" x="63.623047"/>
       <use xlink:href="#DejaVuSans-30" x="127.246094"/>
      </g>
     </g>
    </g>
    <g id="xtick_12">
     <g id="line2d_12">
      <path d="M 256.94336 512.64 
L 256.94336 69.12 
" clip-path="url(#pcef7c2f728)" style="fill: none; stroke: #cccccc; stroke-width: 0.8; stroke-linecap: round"/>
     </g>
     <g id="text_12">
      <!-- 880 -->
      <g style="fill: #262626" transform="translate(252.721755 537.54543)rotate(-45)scale(0.088 -0.088)">
       <use xlink:href="#DejaVuSans-38"/>
       <use xlink:href="#DejaVuSans-38" x="63.623047"/>
       <use xlink:href="#DejaVuSans-30" x="127.246094"/>
      </g>
     </g>
    </g>
    <g id="xtick_13">
     <g id="line2d_13">
      <path d="M 273.969956 512.64 
L 273.969956 69.12 
" clip-path="url(#pcef7c2f728)" style="fill: none; stroke: #cccccc; stroke-width: 0.8; stroke-linecap: round"/>
     </g>
     <g id="text_13">
      <!-- 960 -->
      <g style="fill: #262626" transform="translate(269.748352 537.54543)rotate(-45)scale(0.088 -0.088)">
       <defs>
        <path id="DejaVuSans-39" d="M 703 97 
L 703 672 
Q 941 559 1184 500 
Q 1428 441 1663 441 
Q 2288 441 2617 861 
Q 2947 1281 2994 2138 
Q 2813 1869 2534 1725 
Q 2256 1581 1919 1581 
Q 1219 1581 811 2004 
Q 403 2428 403 3163 
Q 403 3881 828 4315 
Q 1253 4750 1959 4750 
Q 2769 4750 3195 4129 
Q 3622 3509 3622 2328 
Q 3622 1225 3098 567 
Q 2575 -91 1691 -91 
Q 1453 -91 1209 -44 
Q 966 3 703 97 
z
M 1959 2075 
Q 2384 2075 2632 2365 
Q 2881 2656 2881 3163 
Q 2881 3666 2632 3958 
Q 2384 4250 1959 4250 
Q 1534 4250 1286 3958 
Q 1038 3666 1038 3163 
Q 1038 2656 1286 2365 
Q 1534 2075 1959 2075 
z
" transform="scale(0.015625)"/>
       </defs>
       <use xlink:href="#DejaVuSans-39"/>
       <use xlink:href="#DejaVuSans-36" x="63.623047"/>
       <use xlink:href="#DejaVuSans-30" x="127.246094"/>
      </g>
     </g>
    </g>
    <g id="xtick_14">
     <g id="line2d_14">
      <path d="M 290.996553 512.64 
L 290.996553 69.12 
" clip-path="url(#pcef7c2f728)" style="fill: none; stroke: #cccccc; stroke-width: 0.8; stroke-linecap: round"/>
     </g>
     <g id="text_14">
      <!-- 1040 -->
      <g style="fill: #262626" transform="translate(284.795404 541.504521)rotate(-45)scale(0.088 -0.088)">
       <use xlink:href="#DejaVuSans-31"/>
       <use xlink:href="#DejaVuSans-30" x="63.623047"/>
       <use xlink:href="#DejaVuSans-34" x="127.246094"/>
       <use xlink:href="#DejaVuSans-30" x="190.869141"/>
      </g>
     </g>
    </g>
    <g id="xtick_15">
     <g id="line2d_15">
      <path d="M 308.02315 512.64 
L 308.02315 69.12 
" clip-path="url(#pcef7c2f728)" style="fill: none; stroke: #cccccc; stroke-width: 0.8; stroke-linecap: round"/>
     </g>
     <g id="text_15">
      <!-- 1120 -->
      <g style="fill: #262626" transform="translate(301.822 541.504521)rotate(-45)scale(0.088 -0.088)">
       <use xlink:href="#DejaVuSans-31"/>
       <use xlink:href="#DejaVuSans-31" x="63.623047"/>
       <use xlink:href="#DejaVuSans-32" x="127.246094"/>
       <use xlink:href="#DejaVuSans-30" x="190.869141"/>
      </g>
     </g>
    </g>
    <g id="xtick_16">
     <g id="line2d_16">
      <path d="M 325.049747 512.64 
L 325.049747 69.12 
" clip-path="url(#pcef7c2f728)" style="fill: none; stroke: #cccccc; stroke-width: 0.8; stroke-linecap: round"/>
     </g>
     <g id="text_16">
      <!-- 1200 -->
      <g style="fill: #262626" transform="translate(318.848597 541.504521)rotate(-45)scale(0.088 -0.088)">
       <use xlink:href="#DejaVuSans-31"/>
       <use xlink:href="#DejaVuSans-32" x="63.623047"/>
       <use xlink:href="#DejaVuSans-30" x="127.246094"/>
       <use xlink:href="#DejaVuSans-30" x="190.869141"/>
      </g>
     </g>
    </g>
    <g id="xtick_17">
     <g id="line2d_17">
      <path d="M 342.076343 512.64 
L 342.076343 69.12 
" clip-path="url(#pcef7c2f728)" style="fill: none; stroke: #cccccc; stroke-width: 0.8; stroke-linecap: round"/>
     </g>
     <g id="text_17">
      <!-- 1280 -->
      <g style="fill: #262626" transform="translate(335.875194 541.504521)rotate(-45)scale(0.088 -0.088)">
       <use xlink:href="#DejaVuSans-31"/>
       <use xlink:href="#DejaVuSans-32" x="63.623047"/>
       <use xlink:href="#DejaVuSans-38" x="127.246094"/>
       <use xlink:href="#DejaVuSans-30" x="190.869141"/>
      </g>
     </g>
    </g>
    <g id="xtick_18">
     <g id="line2d_18">
      <path d="M 359.10294 512.64 
L 359.10294 69.12 
" clip-path="url(#pcef7c2f728)" style="fill: none; stroke: #cccccc; stroke-width: 0.8; stroke-linecap: round"/>
     </g>
     <g id="text_18">
      <!-- 1360 -->
      <g style="fill: #262626" transform="translate(352.901791 541.504521)rotate(-45)scale(0.088 -0.088)">
       <use xlink:href="#DejaVuSans-31"/>
       <use xlink:href="#DejaVuSans-33" x="63.623047"/>
       <use xlink:href="#DejaVuSans-36" x="127.246094"/>
       <use xlink:href="#DejaVuSans-30" x="190.869141"/>
      </g>
     </g>
    </g>
    <g id="xtick_19">
     <g id="line2d_19">
      <path d="M 376.129537 512.64 
L 376.129537 69.12 
" clip-path="url(#pcef7c2f728)" style="fill: none; stroke: #cccccc; stroke-width: 0.8; stroke-linecap: round"/>
     </g>
     <g id="text_19">
      <!-- 1440 -->
      <g style="fill: #262626" transform="translate(369.928387 541.504521)rotate(-45)scale(0.088 -0.088)">
       <use xlink:href="#DejaVuSans-31"/>
       <use xlink:href="#DejaVuSans-34" x="63.623047"/>
       <use xlink:href="#DejaVuSans-34" x="127.246094"/>
       <use xlink:href="#DejaVuSans-30" x="190.869141"/>
      </g>
     </g>
    </g>
    <g id="text_20">
     <!-- Time (Minutes) -->
     <g style="fill: #262626" transform="translate(186.87375 554.093115)scale(0.096 -0.096)">
      <defs>
       <path id="DejaVuSans-54" d="M -19 4666 
L 3928 4666 
L 3928 4134 
L 2272 4134 
L 2272 0 
L 1638 0 
L 1638 4134 
L -19 4134 
L -19 4666 
z
" transform="scale(0.015625)"/>
       <path id="DejaVuSans-69" d="M 603 3500 
L 1178 3500 
L 1178 0 
L 603 0 
L 603 3500 
z
M 603 4863 
L 1178 4863 
L 1178 4134 
L 603 4134 
L 603 4863 
z
" transform="scale(0.015625)"/>
       <path id="DejaVuSans-6d" d="M 3328 2828 
Q 3544 3216 3844 3400 
Q 4144 3584 4550 3584 
Q 5097 3584 5394 3201 
Q 5691 2819 5691 2113 
L 5691 0 
L 5113 0 
L 5113 2094 
Q 5113 2597 4934 2840 
Q 4756 3084 4391 3084 
Q 3944 3084 3684 2787 
Q 3425 2491 3425 1978 
L 3425 0 
L 2847 0 
L 2847 2094 
Q 2847 2600 2669 2842 
Q 2491 3084 2119 3084 
Q 1678 3084 1418 2786 
Q 1159 2488 1159 1978 
L 1159 0 
L 581 0 
L 581 3500 
L 1159 3500 
L 1159 2956 
Q 1356 3278 1631 3431 
Q 1906 3584 2284 3584 
Q 2666 3584 2933 3390 
Q 3200 3197 3328 2828 
z
" transform="scale(0.015625)"/>
       <path id="DejaVuSans-65" d="M 3597 1894 
L 3597 1613 
L 953 1613 
Q 991 1019 1311 708 
Q 1631 397 2203 397 
Q 2534 397 2845 478 
Q 3156 559 3463 722 
L 3463 178 
Q 3153 47 2828 -22 
Q 2503 -91 2169 -91 
Q 1331 -91 842 396 
Q 353 884 353 1716 
Q 353 2575 817 3079 
Q 1281 3584 2069 3584 
Q 2775 3584 3186 3129 
Q 3597 2675 3597 1894 
z
M 3022 2063 
Q 3016 2534 2758 2815 
Q 2500 3097 2075 3097 
Q 1594 3097 1305 2825 
Q 1016 2553 972 2059 
L 3022 2063 
z
" transform="scale(0.015625)"/>
       <path id="DejaVuSans-20" transform="scale(0.015625)"/>
       <path id="DejaVuSans-28" d="M 1984 4856 
Q 1566 4138 1362 3434 
Q 1159 2731 1159 2009 
Q 1159 1288 1364 580 
Q 1569 -128 1984 -844 
L 1484 -844 
Q 1016 -109 783 600 
Q 550 1309 550 2009 
Q 550 2706 781 3412 
Q 1013 4119 1484 4856 
L 1984 4856 
z
" transform="scale(0.015625)"/>
       <path id="DejaVuSans-4d" d="M 628 4666 
L 1569 4666 
L 2759 1491 
L 3956 4666 
L 4897 4666 
L 4897 0 
L 4281 0 
L 4281 4097 
L 3078 897 
L 2444 897 
L 1241 4097 
L 1241 0 
L 628 0 
L 628 4666 
z
" transform="scale(0.015625)"/>
       <path id="DejaVuSans-6e" d="M 3513 2113 
L 3513 0 
L 2938 0 
L 2938 2094 
Q 2938 2591 2744 2837 
Q 2550 3084 2163 3084 
Q 1697 3084 1428 2787 
Q 1159 2491 1159 1978 
L 1159 0 
L 581 0 
L 581 3500 
L 1159 3500 
L 1159 2956 
Q 1366 3272 1645 3428 
Q 1925 3584 2291 3584 
Q 2894 3584 3203 3211 
Q 3513 2838 3513 2113 
z
" transform="scale(0.015625)"/>
       <path id="DejaVuSans-75" d="M 544 1381 
L 544 3500 
L 1119 3500 
L 1119 1403 
Q 1119 906 1312 657 
Q 1506 409 1894 409 
Q 2359 409 2629 706 
Q 2900 1003 2900 1516 
L 2900 3500 
L 3475 3500 
L 3475 0 
L 2900 0 
L 2900 538 
Q 2691 219 2414 64 
Q 2138 -91 1772 -91 
Q 1169 -91 856 284 
Q 544 659 544 1381 
z
M 1991 3584 
L 1991 3584 
z
" transform="scale(0.015625)"/>
       <path id="DejaVuSans-74" d="M 1172 4494 
L 1172 3500 
L 2356 3500 
L 2356 3053 
L 1172 3053 
L 1172 1153 
Q 1172 725 1289 603 
Q 1406 481 1766 481 
L 2356 481 
L 2356 0 
L 1766 0 
Q 1100 0 847 248 
Q 594 497 594 1153 
L 594 3053 
L 172 3053 
L 172 3500 
L 594 3500 
L 594 4494 
L 1172 4494 
z
" transform="scale(0.015625)"/>
       <path id="DejaVuSans-73" d="M 2834 3397 
L 2834 2853 
Q 2591 2978 2328 3040 
Q 2066 3103 1784 3103 
Q 1356 3103 1142 2972 
Q 928 2841 928 2578 
Q 928 2378 1081 2264 
Q 1234 2150 1697 2047 
L 1894 2003 
Q 2506 1872 2764 1633 
Q 3022 1394 3022 966 
Q 3022 478 2636 193 
Q 2250 -91 1575 -91 
Q 1294 -91 989 -36 
Q 684 19 347 128 
L 347 722 
Q 666 556 975 473 
Q 1284 391 1588 391 
Q 1994 391 2212 530 
Q 2431 669 2431 922 
Q 2431 1156 2273 1281 
Q 2116 1406 1581 1522 
L 1381 1569 
Q 847 1681 609 1914 
Q 372 2147 372 2553 
Q 372 3047 722 3315 
Q 1072 3584 1716 3584 
Q 2034 3584 2315 3537 
Q 2597 3491 2834 3397 
z
" transform="scale(0.015625)"/>
       <path id="DejaVuSans-29" d="M 513 4856 
L 1013 4856 
Q 1481 4119 1714 3412 
Q 1947 2706 1947 2009 
Q 1947 1309 1714 600 
Q 1481 -109 1013 -844 
L 513 -844 
Q 928 -128 1133 580 
Q 1338 1288 1338 2009 
Q 1338 2731 1133 3434 
Q 928 4138 513 4856 
z
" transform="scale(0.015625)"/>
      </defs>
      <use xlink:href="#DejaVuSans-54"/>
      <use xlink:href="#DejaVuSans-69" x="57.958984"/>
      <use xlink:href="#DejaVuSans-6d" x="85.742188"/>
      <use xlink:href="#DejaVuSans-65" x="183.154297"/>
      <use xlink:href="#DejaVuSans-20" x="244.677734"/>
      <use xlink:href="#DejaVuSans-28" x="276.464844"/>
      <use xlink:href="#DejaVuSans-4d" x="315.478516"/>
      <use xlink:href="#DejaVuSans-69" x="401.757812"/>
      <use xlink:href="#DejaVuSans-6e" x="429.541016"/>
      <use xlink:href="#DejaVuSans-75" x="492.919922"/>
      <use xlink:href="#DejaVuSans-74" x="556.298828"/>
      <use xlink:href="#DejaVuSans-65" x="595.507812"/>
      <use xlink:href="#DejaVuSans-73" x="657.03125"/>
      <use xlink:href="#DejaVuSans-29" x="709.130859"/>
     </g>
    </g>
   </g>
   <g id="matplotlib.axis_2">
    <g id="ytick_1">
     <g id="line2d_20">
      <path d="M 54.3375 492.48 
L 391.23 492.48 
" clip-path="url(#pcef7c2f728)" style="fill: none; stroke: #cccccc; stroke-width: 0.8; stroke-linecap: round"/>
     </g>
     <g id="text_21">
      <!-- 0 -->
      <g style="fill: #262626" transform="translate(40.4385 495.823312)scale(0.088 -0.088)">
       <use xlink:href="#DejaVuSans-30"/>
      </g>
     </g>
    </g>
    <g id="ytick_2">
     <g id="line2d_21">
      <path d="M 54.3375 474.78803 
L 391.23 474.78803 
" clip-path="url(#pcef7c2f728)" style="fill: none; stroke: #cccccc; stroke-width: 0.8; stroke-linecap: round"/>
     </g>
     <g id="text_22">
      <!-- 100 -->
      <g style="fill: #262626" transform="translate(29.2405 478.131342)scale(0.088 -0.088)">
       <use xlink:href="#DejaVuSans-31"/>
       <use xlink:href="#DejaVuSans-30" x="63.623047"/>
       <use xlink:href="#DejaVuSans-30" x="127.246094"/>
      </g>
     </g>
    </g>
    <g id="ytick_3">
     <g id="line2d_22">
      <path d="M 54.3375 457.09606 
L 391.23 457.09606 
" clip-path="url(#pcef7c2f728)" style="fill: none; stroke: #cccccc; stroke-width: 0.8; stroke-linecap: round"/>
     </g>
     <g id="text_23">
      <!-- 200 -->
      <g style="fill: #262626" transform="translate(29.2405 460.439372)scale(0.088 -0.088)">
       <use xlink:href="#DejaVuSans-32"/>
       <use xlink:href="#DejaVuSans-30" x="63.623047"/>
       <use xlink:href="#DejaVuSans-30" x="127.246094"/>
      </g>
     </g>
    </g>
    <g id="ytick_4">
     <g id="line2d_23">
      <path d="M 54.3375 439.40409 
L 391.23 439.40409 
" clip-path="url(#pcef7c2f728)" style="fill: none; stroke: #cccccc; stroke-width: 0.8; stroke-linecap: round"/>
     </g>
     <g id="text_24">
      <!-- 300 -->
      <g style="fill: #262626" transform="translate(29.2405 442.747402)scale(0.088 -0.088)">
       <use xlink:href="#DejaVuSans-33"/>
       <use xlink:href="#DejaVuSans-30" x="63.623047"/>
       <use xlink:href="#DejaVuSans-30" x="127.246094"/>
      </g>
     </g>
    </g>
    <g id="ytick_5">
     <g id="line2d_24">
      <path d="M 54.3375 421.712119 
L 391.23 421.712119 
" clip-path="url(#pcef7c2f728)" style="fill: none; stroke: #cccccc; stroke-width: 0.8; stroke-linecap: round"/>
     </g>
     <g id="text_25">
      <!-- 400 -->
      <g style="fill: #262626" transform="translate(29.2405 425.055432)scale(0.088 -0.088)">
       <use xlink:href="#DejaVuSans-34"/>
       <use xlink:href="#DejaVuSans-30" x="63.623047"/>
       <use xlink:href="#DejaVuSans-30" x="127.246094"/>
      </g>
     </g>
    </g>
    <g id="ytick_6">
     <g id="line2d_25">
      <path d="M 54.3375 404.020149 
L 391.23 404.020149 
" clip-path="url(#pcef7c2f728)" style="fill: none; stroke: #cccccc; stroke-width: 0.8; stroke-linecap: round"/>
     </g>
     <g id="text_26">
      <!-- 500 -->
      <g style="fill: #262626" transform="translate(29.2405 407.363462)scale(0.088 -0.088)">
       <use xlink:href="#DejaVuSans-35"/>
       <use xlink:href="#DejaVuSans-30" x="63.623047"/>
       <use xlink:href="#DejaVuSans-30" x="127.246094"/>
      </g>
     </g>
    </g>
    <g id="ytick_7">
     <g id="line2d_26">
      <path d="M 54.3375 386.328179 
L 391.23 386.328179 
" clip-path="url(#pcef7c2f728)" style="fill: none; stroke: #cccccc; stroke-width: 0.8; stroke-linecap: round"/>
     </g>
     <g id="text_27">
      <!-- 600 -->
      <g style="fill: #262626" transform="translate(29.2405 389.671492)scale(0.088 -0.088)">
       <use xlink:href="#DejaVuSans-36"/>
       <use xlink:href="#DejaVuSans-30" x="63.623047"/>
       <use xlink:href="#DejaVuSans-30" x="127.246094"/>
      </g>
     </g>
    </g>
    <g id="ytick_8">
     <g id="line2d_27">
      <path d="M 54.3375 368.636209 
L 391.23 368.636209 
" clip-path="url(#pcef7c2f728)" style="fill: none; stroke: #cccccc; stroke-width: 0.8; stroke-linecap: round"/>
     </g>
     <g id="text_28">
      <!-- 700 -->
      <g style="fill: #262626" transform="translate(29.2405 371.979521)scale(0.088 -0.088)">
       <use xlink:href="#DejaVuSans-37"/>
       <use xlink:href="#DejaVuSans-30" x="63.623047"/>
       <use xlink:href="#DejaVuSans-30" x="127.246094"/>
      </g>
     </g>
    </g>
    <g id="ytick_9">
     <g id="line2d_28">
      <path d="M 54.3375 350.944239 
L 391.23 350.944239 
" clip-path="url(#pcef7c2f728)" style="fill: none; stroke: #cccccc; stroke-width: 0.8; stroke-linecap: round"/>
     </g>
     <g id="text_29">
      <!-- 800 -->
      <g style="fill: #262626" transform="translate(29.2405 354.287551)scale(0.088 -0.088)">
       <use xlink:href="#DejaVuSans-38"/>
       <use xlink:href="#DejaVuSans-30" x="63.623047"/>
       <use xlink:href="#DejaVuSans-30" x="127.246094"/>
      </g>
     </g>
    </g>
    <g id="ytick_10">
     <g id="line2d_29">
      <path d="M 54.3375 333.252269 
L 391.23 333.252269 
" clip-path="url(#pcef7c2f728)" style="fill: none; stroke: #cccccc; stroke-width: 0.8; stroke-linecap: round"/>
     </g>
     <g id="text_30">
      <!-- 900 -->
      <g style="fill: #262626" transform="translate(29.2405 336.595581)scale(0.088 -0.088)">
       <use xlink:href="#DejaVuSans-39"/>
       <use xlink:href="#DejaVuSans-30" x="63.623047"/>
       <use xlink:href="#DejaVuSans-30" x="127.246094"/>
      </g>
     </g>
    </g>
    <g id="ytick_11">
     <g id="line2d_30">
      <path d="M 54.3375 315.560298 
L 391.23 315.560298 
" clip-path="url(#pcef7c2f728)" style="fill: none; stroke: #cccccc; stroke-width: 0.8; stroke-linecap: round"/>
     </g>
     <g id="text_31">
      <!-- 1000 -->
      <g style="fill: #262626" transform="translate(23.6415 318.903611)scale(0.088 -0.088)">
       <use xlink:href="#DejaVuSans-31"/>
       <use xlink:href="#DejaVuSans-30" x="63.623047"/>
       <use xlink:href="#DejaVuSans-30" x="127.246094"/>
       <use xlink:href="#DejaVuSans-30" x="190.869141"/>
      </g>
     </g>
    </g>
    <g id="ytick_12">
     <g id="line2d_31">
      <path d="M 54.3375 297.868328 
L 391.23 297.868328 
" clip-path="url(#pcef7c2f728)" style="fill: none; stroke: #cccccc; stroke-width: 0.8; stroke-linecap: round"/>
     </g>
     <g id="text_32">
      <!-- 1100 -->
      <g style="fill: #262626" transform="translate(23.6415 301.211641)scale(0.088 -0.088)">
       <use xlink:href="#DejaVuSans-31"/>
       <use xlink:href="#DejaVuSans-31" x="63.623047"/>
       <use xlink:href="#DejaVuSans-30" x="127.246094"/>
       <use xlink:href="#DejaVuSans-30" x="190.869141"/>
      </g>
     </g>
    </g>
    <g id="ytick_13">
     <g id="line2d_32">
      <path d="M 54.3375 280.176358 
L 391.23 280.176358 
" clip-path="url(#pcef7c2f728)" style="fill: none; stroke: #cccccc; stroke-width: 0.8; stroke-linecap: round"/>
     </g>
     <g id="text_33">
      <!-- 1200 -->
      <g style="fill: #262626" transform="translate(23.6415 283.519671)scale(0.088 -0.088)">
       <use xlink:href="#DejaVuSans-31"/>
       <use xlink:href="#DejaVuSans-32" x="63.623047"/>
       <use xlink:href="#DejaVuSans-30" x="127.246094"/>
       <use xlink:href="#DejaVuSans-30" x="190.869141"/>
      </g>
     </g>
    </g>
    <g id="ytick_14">
     <g id="line2d_33">
      <path d="M 54.3375 262.484388 
L 391.23 262.484388 
" clip-path="url(#pcef7c2f728)" style="fill: none; stroke: #cccccc; stroke-width: 0.8; stroke-linecap: round"/>
     </g>
     <g id="text_34">
      <!-- 1300 -->
      <g style="fill: #262626" transform="translate(23.6415 265.8277)scale(0.088 -0.088)">
       <use xlink:href="#DejaVuSans-31"/>
       <use xlink:href="#DejaVuSans-33" x="63.623047"/>
       <use xlink:href="#DejaVuSans-30" x="127.246094"/>
       <use xlink:href="#DejaVuSans-30" x="190.869141"/>
      </g>
     </g>
    </g>
    <g id="ytick_15">
     <g id="line2d_34">
      <path d="M 54.3375 244.792418 
L 391.23 244.792418 
" clip-path="url(#pcef7c2f728)" style="fill: none; stroke: #cccccc; stroke-width: 0.8; stroke-linecap: round"/>
     </g>
     <g id="text_35">
      <!-- 1400 -->
      <g style="fill: #262626" transform="translate(23.6415 248.13573)scale(0.088 -0.088)">
       <use xlink:href="#DejaVuSans-31"/>
       <use xlink:href="#DejaVuSans-34" x="63.623047"/>
       <use xlink:href="#DejaVuSans-30" x="127.246094"/>
       <use xlink:href="#DejaVuSans-30" x="190.869141"/>
      </g>
     </g>
    </g>
    <g id="ytick_16">
     <g id="line2d_35">
      <path d="M 54.3375 227.100448 
L 391.23 227.100448 
" clip-path="url(#pcef7c2f728)" style="fill: none; stroke: #cccccc; stroke-width: 0.8; stroke-linecap: round"/>
     </g>
     <g id="text_36">
      <!-- 1500 -->
      <g style="fill: #262626" transform="translate(23.6415 230.44376)scale(0.088 -0.088)">
       <use xlink:href="#DejaVuSans-31"/>
       <use xlink:href="#DejaVuSans-35" x="63.623047"/>
       <use xlink:href="#DejaVuSans-30" x="127.246094"/>
       <use xlink:href="#DejaVuSans-30" x="190.869141"/>
      </g>
     </g>
    </g>
    <g id="ytick_17">
     <g id="line2d_36">
      <path d="M 54.3375 209.408477 
L 391.23 209.408477 
" clip-path="url(#pcef7c2f728)" style="fill: none; stroke: #cccccc; stroke-width: 0.8; stroke-linecap: round"/>
     </g>
     <g id="text_37">
      <!-- 1600 -->
      <g style="fill: #262626" transform="translate(23.6415 212.75179)scale(0.088 -0.088)">
       <use xlink:href="#DejaVuSans-31"/>
       <use xlink:href="#DejaVuSans-36" x="63.623047"/>
       <use xlink:href="#DejaVuSans-30" x="127.246094"/>
       <use xlink:href="#DejaVuSans-30" x="190.869141"/>
      </g>
     </g>
    </g>
    <g id="ytick_18">
     <g id="line2d_37">
      <path d="M 54.3375 191.716507 
L 391.23 191.716507 
" clip-path="url(#pcef7c2f728)" style="fill: none; stroke: #cccccc; stroke-width: 0.8; stroke-linecap: round"/>
     </g>
     <g id="text_38">
      <!-- 1700 -->
      <g style="fill: #262626" transform="translate(23.6415 195.05982)scale(0.088 -0.088)">
       <use xlink:href="#DejaVuSans-31"/>
       <use xlink:href="#DejaVuSans-37" x="63.623047"/>
       <use xlink:href="#DejaVuSans-30" x="127.246094"/>
       <use xlink:href="#DejaVuSans-30" x="190.869141"/>
      </g>
     </g>
    </g>
    <g id="ytick_19">
     <g id="line2d_38">
      <path d="M 54.3375 174.024537 
L 391.23 174.024537 
" clip-path="url(#pcef7c2f728)" style="fill: none; stroke: #cccccc; stroke-width: 0.8; stroke-linecap: round"/>
     </g>
     <g id="text_39">
      <!-- 1800 -->
      <g style="fill: #262626" transform="translate(23.6415 177.36785)scale(0.088 -0.088)">
       <use xlink:href="#DejaVuSans-31"/>
       <use xlink:href="#DejaVuSans-38" x="63.623047"/>
       <use xlink:href="#DejaVuSans-30" x="127.246094"/>
       <use xlink:href="#DejaVuSans-30" x="190.869141"/>
      </g>
     </g>
    </g>
    <g id="ytick_20">
     <g id="line2d_39">
      <path d="M 54.3375 156.332567 
L 391.23 156.332567 
" clip-path="url(#pcef7c2f728)" style="fill: none; stroke: #cccccc; stroke-width: 0.8; stroke-linecap: round"/>
     </g>
     <g id="text_40">
      <!-- 1900 -->
      <g style="fill: #262626" transform="translate(23.6415 159.675879)scale(0.088 -0.088)">
       <use xlink:href="#DejaVuSans-31"/>
       <use xlink:href="#DejaVuSans-39" x="63.623047"/>
       <use xlink:href="#DejaVuSans-30" x="127.246094"/>
       <use xlink:href="#DejaVuSans-30" x="190.869141"/>
      </g>
     </g>
    </g>
    <g id="ytick_21">
     <g id="line2d_40">
      <path d="M 54.3375 138.640597 
L 391.23 138.640597 
" clip-path="url(#pcef7c2f728)" style="fill: none; stroke: #cccccc; stroke-width: 0.8; stroke-linecap: round"/>
     </g>
     <g id="text_41">
      <!-- 2000 -->
      <g style="fill: #262626" transform="translate(23.6415 141.983909)scale(0.088 -0.088)">
       <use xlink:href="#DejaVuSans-32"/>
       <use xlink:href="#DejaVuSans-30" x="63.623047"/>
       <use xlink:href="#DejaVuSans-30" x="127.246094"/>
       <use xlink:href="#DejaVuSans-30" x="190.869141"/>
      </g>
     </g>
    </g>
    <g id="ytick_22">
     <g id="line2d_41">
      <path d="M 54.3375 120.948627 
L 391.23 120.948627 
" clip-path="url(#pcef7c2f728)" style="fill: none; stroke: #cccccc; stroke-width: 0.8; stroke-linecap: round"/>
     </g>
     <g id="text_42">
      <!-- 2100 -->
      <g style="fill: #262626" transform="translate(23.6415 124.291939)scale(0.088 -0.088)">
       <use xlink:href="#DejaVuSans-32"/>
       <use xlink:href="#DejaVuSans-31" x="63.623047"/>
       <use xlink:href="#DejaVuSans-30" x="127.246094"/>
       <use xlink:href="#DejaVuSans-30" x="190.869141"/>
      </g>
     </g>
    </g>
    <g id="ytick_23">
     <g id="line2d_42">
      <path d="M 54.3375 103.256656 
L 391.23 103.256656 
" clip-path="url(#pcef7c2f728)" style="fill: none; stroke: #cccccc; stroke-width: 0.8; stroke-linecap: round"/>
     </g>
     <g id="text_43">
      <!-- 2200 -->
      <g style="fill: #262626" transform="translate(23.6415 106.599969)scale(0.088 -0.088)">
       <use xlink:href="#DejaVuSans-32"/>
       <use xlink:href="#DejaVuSans-32" x="63.623047"/>
       <use xlink:href="#DejaVuSans-30" x="127.246094"/>
       <use xlink:href="#DejaVuSans-30" x="190.869141"/>
      </g>
     </g>
    </g>
    <g id="text_44">
     <!-- Edge Coverages -->
     <g style="fill: #262626" transform="translate(17.645 329.98575)rotate(-90)scale(0.096 -0.096)">
      <defs>
       <path id="DejaVuSans-45" d="M 628 4666 
L 3578 4666 
L 3578 4134 
L 1259 4134 
L 1259 2753 
L 3481 2753 
L 3481 2222 
L 1259 2222 
L 1259 531 
L 3634 531 
L 3634 0 
L 628 0 
L 628 4666 
z
" transform="scale(0.015625)"/>
       <path id="DejaVuSans-64" d="M 2906 2969 
L 2906 4863 
L 3481 4863 
L 3481 0 
L 2906 0 
L 2906 525 
Q 2725 213 2448 61 
Q 2172 -91 1784 -91 
Q 1150 -91 751 415 
Q 353 922 353 1747 
Q 353 2572 751 3078 
Q 1150 3584 1784 3584 
Q 2172 3584 2448 3432 
Q 2725 3281 2906 2969 
z
M 947 1747 
Q 947 1113 1208 752 
Q 1469 391 1925 391 
Q 2381 391 2643 752 
Q 2906 1113 2906 1747 
Q 2906 2381 2643 2742 
Q 2381 3103 1925 3103 
Q 1469 3103 1208 2742 
Q 947 2381 947 1747 
z
" transform="scale(0.015625)"/>
       <path id="DejaVuSans-67" d="M 2906 1791 
Q 2906 2416 2648 2759 
Q 2391 3103 1925 3103 
Q 1463 3103 1205 2759 
Q 947 2416 947 1791 
Q 947 1169 1205 825 
Q 1463 481 1925 481 
Q 2391 481 2648 825 
Q 2906 1169 2906 1791 
z
M 3481 434 
Q 3481 -459 3084 -895 
Q 2688 -1331 1869 -1331 
Q 1566 -1331 1297 -1286 
Q 1028 -1241 775 -1147 
L 775 -588 
Q 1028 -725 1275 -790 
Q 1522 -856 1778 -856 
Q 2344 -856 2625 -561 
Q 2906 -266 2906 331 
L 2906 616 
Q 2728 306 2450 153 
Q 2172 0 1784 0 
Q 1141 0 747 490 
Q 353 981 353 1791 
Q 353 2603 747 3093 
Q 1141 3584 1784 3584 
Q 2172 3584 2450 3431 
Q 2728 3278 2906 2969 
L 2906 3500 
L 3481 3500 
L 3481 434 
z
" transform="scale(0.015625)"/>
       <path id="DejaVuSans-43" d="M 4122 4306 
L 4122 3641 
Q 3803 3938 3442 4084 
Q 3081 4231 2675 4231 
Q 1875 4231 1450 3742 
Q 1025 3253 1025 2328 
Q 1025 1406 1450 917 
Q 1875 428 2675 428 
Q 3081 428 3442 575 
Q 3803 722 4122 1019 
L 4122 359 
Q 3791 134 3420 21 
Q 3050 -91 2638 -91 
Q 1578 -91 968 557 
Q 359 1206 359 2328 
Q 359 3453 968 4101 
Q 1578 4750 2638 4750 
Q 3056 4750 3426 4639 
Q 3797 4528 4122 4306 
z
" transform="scale(0.015625)"/>
       <path id="DejaVuSans-6f" d="M 1959 3097 
Q 1497 3097 1228 2736 
Q 959 2375 959 1747 
Q 959 1119 1226 758 
Q 1494 397 1959 397 
Q 2419 397 2687 759 
Q 2956 1122 2956 1747 
Q 2956 2369 2687 2733 
Q 2419 3097 1959 3097 
z
M 1959 3584 
Q 2709 3584 3137 3096 
Q 3566 2609 3566 1747 
Q 3566 888 3137 398 
Q 2709 -91 1959 -91 
Q 1206 -91 779 398 
Q 353 888 353 1747 
Q 353 2609 779 3096 
Q 1206 3584 1959 3584 
z
" transform="scale(0.015625)"/>
       <path id="DejaVuSans-76" d="M 191 3500 
L 800 3500 
L 1894 563 
L 2988 3500 
L 3597 3500 
L 2284 0 
L 1503 0 
L 191 3500 
z
" transform="scale(0.015625)"/>
       <path id="DejaVuSans-72" d="M 2631 2963 
Q 2534 3019 2420 3045 
Q 2306 3072 2169 3072 
Q 1681 3072 1420 2755 
Q 1159 2438 1159 1844 
L 1159 0 
L 581 0 
L 581 3500 
L 1159 3500 
L 1159 2956 
Q 1341 3275 1631 3429 
Q 1922 3584 2338 3584 
Q 2397 3584 2469 3576 
Q 2541 3569 2628 3553 
L 2631 2963 
z
" transform="scale(0.015625)"/>
       <path id="DejaVuSans-61" d="M 2194 1759 
Q 1497 1759 1228 1600 
Q 959 1441 959 1056 
Q 959 750 1161 570 
Q 1363 391 1709 391 
Q 2188 391 2477 730 
Q 2766 1069 2766 1631 
L 2766 1759 
L 2194 1759 
z
M 3341 1997 
L 3341 0 
L 2766 0 
L 2766 531 
Q 2569 213 2275 61 
Q 1981 -91 1556 -91 
Q 1019 -91 701 211 
Q 384 513 384 1019 
Q 384 1609 779 1909 
Q 1175 2209 1959 2209 
L 2766 2209 
L 2766 2266 
Q 2766 2663 2505 2880 
Q 2244 3097 1772 3097 
Q 1472 3097 1187 3025 
Q 903 2953 641 2809 
L 641 3341 
Q 956 3463 1253 3523 
Q 1550 3584 1831 3584 
Q 2591 3584 2966 3190 
Q 3341 2797 3341 1997 
z
" transform="scale(0.015625)"/>
      </defs>
      <use xlink:href="#DejaVuSans-45"/>
      <use xlink:href="#DejaVuSans-64" x="63.183594"/>
      <use xlink:href="#DejaVuSans-67" x="126.660156"/>
      <use xlink:href="#DejaVuSans-65" x="190.136719"/>
      <use xlink:href="#DejaVuSans-20" x="251.660156"/>
      <use xlink:href="#DejaVuSans-43" x="283.447266"/>
      <use xlink:href="#DejaVuSans-6f" x="353.271484"/>
      <use xlink:href="#DejaVuSans-76" x="414.453125"/>
      <use xlink:href="#DejaVuSans-65" x="473.632812"/>
      <use xlink:href="#DejaVuSans-72" x="535.15625"/>
      <use xlink:href="#DejaVuSans-61" x="576.269531"/>
      <use xlink:href="#DejaVuSans-67" x="637.548828"/>
      <use xlink:href="#DejaVuSans-65" x="701.025391"/>
      <use xlink:href="#DejaVuSans-73" x="762.548828"/>
     </g>
    </g>
   </g>
   <g id="PolyCollection_1">
    <defs>
     <path id="m98d512295f" d="M 69.650795 -84.935358 
L 69.650795 -83.52 
L 69.650795 -84.935358 
L 69.650795 -84.935358 
z
" style="stroke: #db5f57; stroke-opacity: 0.2; stroke-width: 0.8"/>
    </defs>
    <g clip-path="url(#pcef7c2f728)">
     <use xlink:href="#m98d512295f" x="0" y="576" style="fill: #db5f57; fill-opacity: 0.2; stroke: #db5f57; stroke-opacity: 0.2; stroke-width: 0.8"/>
    </g>
   </g>
   <g id="PolyCollection_2">
    <defs>
     <path id="m5167f0ee3a" d="M 69.650795 -86.881474 
L 69.650795 -83.52 
L 69.650795 -86.881474 
L 69.650795 -86.881474 
z
" style="stroke: #b9db57; stroke-opacity: 0.2; stroke-width: 0.8"/>
    </defs>
    <g clip-path="url(#pcef7c2f728)">
     <use xlink:href="#m5167f0ee3a" x="0" y="576" style="fill: #b9db57; fill-opacity: 0.2; stroke: #b9db57; stroke-opacity: 0.2; stroke-width: 0.8"/>
    </g>
   </g>
   <g id="PolyCollection_3">
    <defs>
     <path id="mc60f3880d8" d="M 69.650795 -85.819956 
L 69.650795 -83.52 
L 69.650795 -85.819956 
L 69.650795 -85.819956 
z
" style="stroke: #57db94; stroke-opacity: 0.2; stroke-width: 0.8"/>
    </defs>
    <g clip-path="url(#pcef7c2f728)">
     <use xlink:href="#mc60f3880d8" x="0" y="576" style="fill: #57db94; fill-opacity: 0.2; stroke: #57db94; stroke-opacity: 0.2; stroke-width: 0.8"/>
    </g>
   </g>
   <g id="PolyCollection_4">
    <defs>
     <path id="m72f4f7263c" d="M 69.650795 -86.881474 
L 69.650795 -83.52 
L 69.650795 -86.881474 
L 69.650795 -86.881474 
z
" style="stroke: #5784db; stroke-opacity: 0.2; stroke-width: 0.8"/>
    </defs>
    <g clip-path="url(#pcef7c2f728)">
     <use xlink:href="#m72f4f7263c" x="0" y="576" style="fill: #5784db; fill-opacity: 0.2; stroke: #5784db; stroke-opacity: 0.2; stroke-width: 0.8"/>
    </g>
   </g>
   <g id="PolyCollection_5">
    <defs>
     <path id="mcbf7d0d03a" d="M 69.650795 -86.881474 
L 69.650795 -83.52 
L 69.650795 -86.881474 
L 69.650795 -86.881474 
z
" style="stroke: #c957db; stroke-opacity: 0.2; stroke-width: 0.8"/>
    </defs>
    <g clip-path="url(#pcef7c2f728)">
     <use xlink:href="#mcbf7d0d03a" x="0" y="576" style="fill: #c957db; fill-opacity: 0.2; stroke: #c957db; stroke-opacity: 0.2; stroke-width: 0.8"/>
    </g>
   </g>
   <g id="line2d_43">
    <path d="M 69.650795 491.772321 
L 69.863628 490.710803 
L 70.07646 490.533883 
L 70.289293 490.533883 
L 70.502125 490.356964 
L 70.714958 489.295445 
L 71.140623 489.295445 
L 71.566288 486.64165 
L 71.991953 486.110891 
L 72.204785 485.933971 
L 72.417617 485.580132 
L 72.63045 485.580132 
L 73.48178 472.488074 
L 73.694612 471.603475 
L 73.907445 433.919579 
L 74.120277 431.619623 
L 74.33311 431.619623 
L 74.545942 431.442703 
L 74.971607 431.442703 
L 75.184439 431.265783 
L 75.397272 414.989171 
L 75.610104 414.812251 
L 76.035769 414.812251 
L 76.248602 412.689215 
L 76.674267 412.689215 
L 76.887099 411.096937 
L 77.951261 411.096937 
L 78.164094 410.743098 
L 79.441089 410.743098 
L 79.653921 410.566178 
L 80.505251 410.566178 
L 80.718083 410.212339 
L 84.336235 410.212339 
L 84.549068 409.32774 
L 91.998204 409.32774 
L 92.211036 409.150821 
L 92.423869 374.651479 
L 108.599136 374.651479 
L 108.811968 335.906064 
L 109.237633 335.906064 
L 109.450465 335.552225 
L 115.196942 335.552225 
L 115.409774 334.844546 
L 121.156251 334.844546 
L 121.369083 334.667626 
L 126.689895 334.667626 
L 126.902727 334.490706 
L 127.966889 334.490706 
L 128.179722 333.429188 
L 144.993486 333.429188 
L 145.206319 333.252269 
L 152.22979 333.252269 
L 152.442622 333.075349 
L 153.08112 333.075349 
L 153.293952 332.898429 
L 176.918355 332.898429 
L 177.131187 321.044809 
L 177.556852 144.832786 
L 222.251669 144.832786 
L 222.464501 144.655867 
L 224.167161 144.655867 
L 224.379993 112.98724 
L 224.592826 112.81032 
L 232.893292 112.81032 
L 233.106124 112.633401 
L 275.885449 112.633401 
L 276.098281 105.910452 
L 320.1546 105.910452 
L 320.367433 100.072102 
L 320.580265 99.895182 
L 321.431595 99.895182 
L 321.644427 99.541343 
L 368.467568 99.541343 
L 368.680401 97.418306 
L 369.531731 97.418306 
L 369.744563 97.241387 
L 371.872888 97.241387 
L 372.298553 96.887547 
L 375.916705 96.887547 
L 375.916705 96.887547 
" clip-path="url(#pcef7c2f728)" style="fill: none; stroke: #db5f57; stroke-width: 1.2; stroke-linecap: round"/>
   </g>
   <g id="line2d_44">
    <path d="M 69.650795 490.799263 
L 69.863628 489.118526 
L 71.140623 489.118526 
L 71.566288 486.46473 
L 71.77912 486.46473 
L 71.991953 486.110891 
L 72.204785 486.110891 
L 72.417617 485.580132 
L 72.63045 485.403212 
L 72.843282 485.403212 
L 73.268947 449.134673 
L 74.971607 418.350645 
L 75.184439 417.996806 
L 75.610104 415.16609 
L 75.822937 414.635331 
L 76.035769 414.635331 
L 76.248602 414.104572 
L 76.674267 411.981536 
L 76.887099 410.035419 
L 77.099932 409.32774 
L 77.525596 407.204704 
L 77.738429 407.204704 
L 77.951261 406.143186 
L 78.589759 405.612427 
L 78.802591 405.612427 
L 79.228256 404.550908 
L 79.441089 404.373989 
L 80.079586 404.373989 
L 80.292418 404.197069 
L 80.718083 402.781711 
L 80.930916 402.427872 
L 81.143748 402.427872 
L 81.356581 402.250952 
L 81.782246 401.543273 
L 81.995078 401.543273 
L 82.420743 400.481755 
L 83.05924 399.950996 
L 83.272073 399.950996 
L 83.697738 399.420237 
L 83.91057 399.420237 
L 84.123403 399.243317 
L 86.038895 399.243317 
L 86.251727 399.066398 
L 87.103057 399.066398 
L 87.31589 398.889478 
L 87.528722 398.889478 
L 87.741555 398.712558 
L 88.380052 398.712558 
L 88.592884 398.358719 
L 89.231382 398.358719 
L 89.657047 398.004879 
L 89.869879 398.004879 
L 90.082712 397.297201 
L 90.295544 397.297201 
L 90.508376 390.397332 
L 90.721209 389.158894 
L 90.934041 388.805055 
L 91.146874 385.266661 
L 91.359706 385.089741 
L 91.572539 384.205143 
L 91.785371 384.205143 
L 91.998204 375.712997 
L 92.636701 373.413041 
L 92.849534 373.413041 
L 93.275198 372.882282 
L 93.700863 372.882282 
L 93.913696 371.290004 
L 94.126528 371.113085 
L 94.339361 371.113085 
L 94.552193 370.936165 
L 95.190691 370.936165 
L 95.403523 370.759245 
L 95.616356 370.759245 
L 96.254853 370.228486 
L 96.467685 370.228486 
L 96.680518 370.051566 
L 96.89335 370.051566 
L 97.106183 364.567056 
L 97.319015 363.151698 
L 97.531848 362.620939 
L 97.74468 362.444019 
L 98.383177 362.444019 
L 98.59601 362.2671 
L 99.021675 362.2671 
L 99.234507 362.09018 
L 99.44734 362.09018 
L 99.660172 361.91326 
L 100.29867 361.91326 
L 100.511502 361.559421 
L 100.937167 361.559421 
L 101.362832 359.790224 
L 102.001329 359.790224 
L 102.214162 359.613304 
L 102.426994 358.551786 
L 102.639827 358.197946 
L 102.852659 351.474998 
L 103.065492 350.944239 
L 103.491157 350.590399 
L 103.916821 350.590399 
L 104.129654 349.528881 
L 104.342486 349.528881 
L 104.555319 348.467363 
L 104.980984 348.467363 
L 105.193816 348.290443 
L 106.470811 346.344326 
L 107.322141 346.344326 
L 107.534973 345.813567 
L 107.960638 345.813567 
L 108.173471 345.636648 
L 108.386303 345.636648 
L 108.599136 336.082984 
L 109.0248 336.082984 
L 109.237633 335.906064 
L 109.450465 335.906064 
L 109.663298 335.552225 
L 110.514628 335.552225 
L 110.72746 335.375305 
L 110.940293 335.021466 
L 111.153125 335.021466 
L 111.57879 334.667626 
L 111.791622 334.313787 
L 113.068617 334.313787 
L 113.28145 334.136867 
L 113.494282 334.136867 
L 113.919947 333.783028 
L 114.345612 333.252269 
L 114.558444 333.252269 
L 114.771277 333.075349 
L 115.409774 333.075349 
L 115.622607 332.36767 
L 116.686769 332.36767 
L 116.899601 331.483072 
L 117.112434 331.483072 
L 117.325266 329.536955 
L 117.538099 319.452532 
L 117.963764 319.452532 
L 118.176596 318.921773 
L 118.389429 318.921773 
L 118.815094 308.66043 
L 120.092088 308.66043 
L 120.304921 308.48351 
L 120.943418 308.48351 
L 121.156251 308.306591 
L 122.220413 308.306591 
L 122.433245 308.129671 
L 122.85891 308.129671 
L 123.071743 307.952751 
L 124.348738 307.952751 
L 124.56157 307.775832 
L 126.477062 307.775832 
L 126.689895 307.245072 
L 127.115559 307.245072 
L 127.328392 307.068153 
L 128.392554 307.068153 
L 128.605387 305.652795 
L 129.456717 305.652795 
L 129.669549 305.475875 
L 129.882381 305.122036 
L 130.733711 305.122036 
L 130.946544 304.768197 
L 131.372209 304.768197 
L 131.585041 304.414357 
L 132.010706 304.414357 
L 132.223539 297.868328 
L 132.436371 297.514489 
L 133.713366 297.514489 
L 133.926198 297.160649 
L 134.351863 297.160649 
L 134.564696 293.976095 
L 134.777528 293.976095 
L 134.99036 289.199263 
L 135.203193 288.668504 
L 135.416025 276.461044 
L 135.628858 276.284125 
L 135.84169 275.930285 
L 136.054523 275.930285 
L 136.267355 272.92265 
L 136.480188 272.92265 
L 136.905853 272.568811 
L 138.182847 272.568811 
L 138.821345 271.684212 
L 139.034177 270.445774 
L 139.24701 270.445774 
L 139.459842 262.130548 
L 140.09834 262.130548 
L 140.311172 255.761439 
L 140.736837 255.761439 
L 140.949669 253.638403 
L 141.162502 249.21541 
L 141.800999 247.446213 
L 142.013832 233.646477 
L 142.652329 233.646477 
L 142.865161 233.115717 
L 143.290826 233.115717 
L 143.503659 224.977411 
L 143.929324 224.977411 
L 144.142156 223.915893 
L 144.567821 223.915893 
L 144.780654 207.285441 
L 145.206319 207.285441 
L 145.419151 206.931602 
L 145.844816 206.931602 
L 146.057648 206.577762 
L 146.483313 206.577762 
L 146.696146 196.1395 
L 147.334643 196.1395 
L 147.547476 195.96258 
L 147.760308 195.96258 
L 147.973141 195.78566 
L 148.398805 195.78566 
L 148.611638 195.431821 
L 148.82447 195.431821 
L 149.250135 195.077982 
L 149.6758 195.077982 
L 149.888633 194.370303 
L 150.101465 194.370303 
L 150.314298 194.016463 
L 152.868287 194.016463 
L 153.08112 193.485704 
L 153.293952 193.308785 
L 153.719617 193.308785 
L 153.932449 193.131865 
L 155.847942 193.131865 
L 156.060774 180.747486 
L 156.486439 180.747486 
L 156.699271 176.678333 
L 157.124936 176.678333 
L 157.337769 176.501413 
L 161.594418 176.501413 
L 161.80725 176.147573 
L 162.020083 176.147573 
L 162.232915 175.439895 
L 163.297078 175.439895 
L 163.722743 175.086055 
L 165.425402 175.086055 
L 165.638235 174.378376 
L 165.851067 174.378376 
L 166.276732 174.024537 
L 166.489564 157.924844 
L 168.405057 157.924844 
L 168.617889 157.747925 
L 171.810376 157.747925 
L 172.023208 155.094129 
L 172.448873 155.094129 
L 172.661706 154.20953 
L 172.874538 154.20953 
L 173.087371 153.148012 
L 173.300203 153.148012 
L 173.513036 152.617253 
L 174.577198 152.617253 
L 174.79003 152.086494 
L 176.067025 152.086494 
L 176.279858 151.909574 
L 176.49269 151.909574 
L 176.705523 151.732655 
L 178.19535 151.732655 
L 178.408182 150.848056 
L 178.621015 144.125108 
L 179.04668 144.125108 
L 179.259512 143.417429 
L 179.685177 143.417429 
L 179.898009 143.240509 
L 180.110842 143.240509 
L 180.323674 141.825151 
L 180.536507 141.648232 
L 180.749339 141.648232 
L 180.962172 141.117473 
L 181.175004 141.117473 
L 181.387837 139.525195 
L 181.600669 138.994436 
L 182.026334 138.994436 
L 182.239166 138.640597 
L 182.451999 138.640597 
L 182.664831 138.463677 
L 183.090496 138.463677 
L 183.303329 137.048319 
L 183.941826 137.048319 
L 184.154659 136.163721 
L 184.367491 136.163721 
L 184.793156 135.279122 
L 185.218821 135.279122 
L 185.431653 134.925283 
L 185.644486 134.925283 
L 185.857318 134.748363 
L 186.070151 134.748363 
L 186.282983 134.217604 
L 186.708648 134.217604 
L 187.134313 133.509925 
L 187.985643 133.509925 
L 188.198475 133.333006 
L 188.62414 133.333006 
L 188.836973 133.156086 
L 189.262638 133.156086 
L 189.47547 132.802247 
L 190.113967 132.802247 
L 190.3268 132.448407 
L 190.539632 132.448407 
L 190.965297 132.094568 
L 191.603795 132.094568 
L 191.816627 131.563809 
L 192.242292 131.563809 
L 192.455125 131.209969 
L 192.880789 131.209969 
L 193.093622 130.85613 
L 194.370617 130.85613 
L 194.796282 130.50229 
L 195.434779 130.50229 
L 195.647611 127.140816 
L 196.073276 127.140816 
L 196.286109 126.433137 
L 196.498941 126.433137 
L 196.711774 124.84086 
L 199.904261 124.84086 
L 200.117093 124.66394 
L 200.542758 124.66394 
L 200.75559 124.487021 
L 206.076402 124.487021 
L 206.289234 124.310101 
L 206.502067 124.310101 
L 206.714899 123.956262 
L 207.991894 123.956262 
L 208.204727 123.779342 
L 209.694554 123.779342 
L 209.907386 123.248583 
L 210.758716 123.248583 
L 210.971549 123.071663 
L 212.674208 123.071663 
L 212.887041 122.187065 
L 213.73837 122.187065 
L 213.951203 122.010145 
L 214.376868 122.010145 
L 214.5897 121.833225 
L 219.484847 121.833225 
L 219.697679 121.656305 
L 222.677334 121.656305 
L 222.890166 121.125546 
L 224.379993 121.125546 
L 224.592826 120.594787 
L 224.805658 120.594787 
L 225.018491 120.417867 
L 229.27514 120.417867 
L 229.487972 118.117911 
L 229.700805 118.117911 
L 229.913637 117.587152 
L 230.12647 117.587152 
L 230.339302 117.233313 
L 231.190632 117.233313 
L 231.403465 117.056393 
L 232.680459 117.056393 
L 232.893292 116.879473 
L 233.106124 116.879473 
L 233.318957 116.702554 
L 233.957454 116.702554 
L 234.170287 116.348714 
L 234.383119 116.348714 
L 234.595951 116.171795 
L 238.639768 116.171795 
L 238.852601 115.994875 
L 239.278266 115.994875 
L 239.491098 115.817955 
L 242.25792 115.817955 
L 242.470752 115.641036 
L 249.919889 115.641036 
L 250.132721 115.464116 
L 251.835381 115.464116 
L 252.048213 115.287196 
L 253.112375 115.287196 
L 253.325208 115.110276 
L 255.027868 115.110276 
L 255.2407 114.933357 
L 255.879197 114.933357 
L 256.304862 114.579517 
L 263.753998 114.579517 
L 263.966831 114.402598 
L 272.267297 114.402598 
L 272.480129 114.048758 
L 273.757124 114.048758 
L 273.969956 113.871839 
L 275.034119 113.871839 
L 275.246951 113.694919 
L 280.142098 113.694919 
L 280.35493 113.341079 
L 280.567763 113.341079 
L 280.780595 113.16416 
L 280.993428 112.81032 
L 281.844757 112.81032 
L 282.05759 112.633401 
L 282.696087 112.633401 
L 282.90892 112.279561 
L 286.101407 112.279561 
L 286.314239 112.102642 
L 287.378401 112.102642 
L 287.591234 111.925722 
L 295.253202 111.925722 
L 295.678867 110.864204 
L 295.8917 110.864204 
L 296.104532 110.510364 
L 296.74303 110.510364 
L 296.955862 110.156525 
L 298.020024 110.156525 
L 298.232857 109.095007 
L 298.871354 109.095007 
L 299.084187 108.918087 
L 309.087312 108.918087 
L 309.300145 108.741167 
L 324.624082 108.741167 
L 324.836914 108.210408 
L 325.688244 108.210408 
L 325.901077 107.679649 
L 328.242234 107.679649 
L 328.455066 107.502729 
L 342.289176 107.502729 
L 342.502008 107.32581 
L 342.927673 107.32581 
L 343.140506 107.14889 
L 343.353338 107.14889 
L 343.566171 106.97197 
L 347.82282 106.97197 
L 348.035652 106.79505 
L 358.464443 106.79505 
L 358.677275 106.618131 
L 369.531731 106.618131 
L 369.744563 106.441211 
L 370.170228 105.379693 
L 372.08572 105.379693 
L 372.298553 105.025853 
L 375.065375 105.025853 
L 375.278207 104.495094 
L 375.49104 104.318175 
L 375.703872 104.318175 
L 375.916705 104.141255 
L 375.916705 104.141255 
" clip-path="url(#pcef7c2f728)" style="fill: none; stroke: #b9db57; stroke-width: 1.2; stroke-linecap: round"/>
   </g>
   <g id="line2d_45">
    <path d="M 69.650795 491.330022 
L 69.863628 490.180044 
L 70.07646 490.003124 
L 70.289293 490.003124 
L 70.502125 489.118526 
L 71.140623 489.118526 
L 71.566288 486.46473 
L 71.77912 486.28781 
L 72.417617 485.403212 
L 72.63045 485.226292 
L 72.843282 478.326424 
L 73.056115 459.042176 
L 73.268947 458.157578 
L 73.48178 444.357841 
L 73.907445 442.588644 
L 74.120277 442.234805 
L 74.758774 419.589083 
L 74.971607 417.112207 
L 75.184439 416.581448 
L 75.610104 413.750733 
L 76.035769 413.750733 
L 76.248602 412.689215 
L 76.461434 412.335375 
L 77.099932 408.266222 
L 77.312764 407.558543 
L 77.525596 406.320105 
L 77.738429 405.789346 
L 77.951261 404.904748 
L 78.164094 404.550908 
L 78.376926 404.550908 
L 78.589759 404.197069 
L 79.015424 404.197069 
L 79.228256 403.135551 
L 79.441089 402.958631 
L 81.356581 402.958631 
L 81.569413 400.835595 
L 81.995078 400.127916 
L 82.846408 400.127916 
L 83.05924 398.712558 
L 83.484905 398.181799 
L 83.91057 397.82796 
L 86.890225 397.82796 
L 87.31589 397.47412 
L 87.741555 397.47412 
L 87.954387 397.297201 
L 89.444214 397.297201 
L 89.657047 396.589522 
L 90.295544 396.589522 
L 90.508376 395.881843 
L 90.934041 395.881843 
L 91.146874 387.743537 
L 91.359706 387.743537 
L 91.572539 383.674384 
L 92.636701 383.674384 
L 92.849534 372.882282 
L 93.062366 372.882282 
L 93.488031 372.351523 
L 93.913696 372.351523 
L 94.126528 370.759245 
L 94.552193 370.759245 
L 94.765026 370.582326 
L 95.403523 370.582326 
L 95.616356 370.228486 
L 95.829188 370.228486 
L 96.04202 370.051566 
L 96.89335 370.051566 
L 97.319015 362.620939 
L 97.531848 362.444019 
L 99.234507 362.444019 
L 99.660172 361.382501 
L 101.788497 361.382501 
L 102.001329 359.082545 
L 102.214162 358.905625 
L 102.426994 358.374866 
L 102.639827 358.197946 
L 102.852659 353.244195 
L 103.065492 351.121158 
L 103.491157 350.41348 
L 103.703989 349.705801 
L 103.916821 349.528881 
L 104.768151 349.528881 
L 104.980984 348.290443 
L 105.193816 347.936604 
L 106.896476 347.936604 
L 107.109308 345.990487 
L 107.322141 345.990487 
L 107.534973 345.813567 
L 107.747806 345.459728 
L 107.960638 345.459728 
L 108.173471 343.159772 
L 108.386303 335.906064 
L 108.599136 335.552225 
L 110.514628 335.552225 
L 110.72746 334.844546 
L 111.365957 334.844546 
L 111.57879 333.783028 
L 112.43012 333.783028 
L 112.642952 333.606108 
L 113.494282 333.606108 
L 113.919947 333.252269 
L 114.132779 333.252269 
L 114.345612 332.721509 
L 114.771277 332.721509 
L 115.196942 332.36767 
L 115.409774 331.836911 
L 116.261104 331.836911 
L 116.686769 330.952312 
L 118.815094 330.952312 
L 119.027926 307.952751 
L 120.943418 307.952751 
L 121.156251 307.598912 
L 122.433245 307.598912 
L 122.646078 307.421992 
L 123.923073 307.421992 
L 124.135905 307.245072 
L 124.774402 307.245072 
L 124.987235 307.068153 
L 127.966889 307.068153 
L 128.605387 304.945116 
L 130.095214 304.945116 
L 130.308046 304.414357 
L 131.159376 304.414357 
L 131.585041 303.706678 
L 132.010706 303.706678 
L 132.223539 296.62989 
L 133.926198 296.62989 
L 134.351863 295.568372 
L 134.564696 292.914577 
L 134.99036 292.914577 
L 135.203193 275.399526 
L 135.416025 275.222606 
L 135.84169 274.514928 
L 136.054523 271.153453 
L 160.743088 271.153453 
L 160.955921 201.97785 
L 161.168753 170.309223 
L 162.65858 170.309223 
L 162.871413 169.247705 
L 163.50991 169.247705 
L 163.722743 168.893866 
L 166.0639 168.893866 
L 166.276732 154.20953 
L 166.702397 154.20953 
L 166.915229 151.024976 
L 168.405057 151.024976 
L 168.617889 150.848056 
L 172.448873 150.848056 
L 172.661706 147.132742 
L 176.279858 147.132742 
L 176.49269 146.955823 
L 177.769685 146.955823 
L 177.982517 143.948188 
L 178.621015 143.948188 
L 178.833847 135.809882 
L 179.04668 135.809882 
L 179.259512 135.102203 
L 179.685177 135.102203 
L 179.898009 134.925283 
L 180.110842 134.394524 
L 180.323674 133.333006 
L 180.749339 132.802247 
L 181.387837 132.802247 
L 181.600669 130.325371 
L 208.843224 130.325371 
L 209.056056 115.110276 
L 239.065433 115.110276 
L 239.278266 114.933357 
L 239.491098 107.502729 
L 239.703931 107.32581 
L 243.534915 107.32581 
L 243.747747 107.14889 
L 249.919889 107.14889 
L 250.132721 106.97197 
L 251.835381 106.97197 
L 252.048213 106.79505 
L 254.815035 106.79505 
L 255.027868 106.618131 
L 255.453533 106.618131 
L 255.666365 106.441211 
L 256.09203 106.441211 
L 256.304862 106.264291 
L 264.392496 106.264291 
L 264.605328 106.087372 
L 272.054464 106.087372 
L 272.267297 105.733532 
L 273.331459 105.733532 
L 273.544292 105.556613 
L 298.020024 105.556613 
L 298.232857 100.249022 
L 321.00593 100.249022 
L 321.218762 99.895182 
L 324.411249 99.895182 
L 324.624082 99.364423 
L 326.113909 99.364423 
L 326.326742 98.833664 
L 363.359589 98.833664 
L 363.572422 97.772146 
L 375.916705 97.772146 
L 375.916705 97.772146 
" clip-path="url(#pcef7c2f728)" style="fill: none; stroke: #57db94; stroke-width: 1.2; stroke-linecap: round"/>
   </g>
   <g id="line2d_46">
    <path d="M 69.650795 490.799263 
L 69.863628 489.118526 
L 71.140623 489.118526 
L 71.353455 486.28781 
L 71.77912 484.518613 
L 71.991953 484.341694 
L 72.204785 484.341694 
L 72.417617 483.810935 
L 72.63045 483.634015 
L 73.268947 456.91914 
L 73.48178 440.465608 
L 73.694612 433.919579 
L 73.907445 432.681141 
L 74.120277 430.558104 
L 74.545942 425.073594 
L 74.758774 417.996806 
L 74.971607 414.812251 
L 75.184439 414.281492 
L 75.610104 411.627696 
L 75.822937 411.450777 
L 76.248602 411.450777 
L 76.674267 409.858499 
L 76.887099 407.735463 
L 77.099932 407.735463 
L 77.312764 406.497025 
L 77.525596 405.966266 
L 77.951261 405.966266 
L 78.164094 405.081667 
L 78.376926 404.904748 
L 78.589759 404.020149 
L 78.802591 403.843229 
L 79.228256 403.843229 
L 79.441089 400.304835 
L 80.292418 400.304835 
L 80.505251 399.950996 
L 81.995078 399.950996 
L 82.420743 399.243317 
L 82.633575 396.766441 
L 83.05924 396.766441 
L 83.272073 396.412602 
L 83.697738 396.412602 
L 83.91057 396.235682 
L 87.528722 396.235682 
L 87.741555 395.174164 
L 89.018549 395.174164 
L 89.231382 394.997244 
L 91.146874 394.997244 
L 91.359706 383.143624 
L 94.977858 383.143624 
L 95.190691 372.351523 
L 96.254853 372.351523 
L 96.467685 372.174603 
L 97.106183 372.174603 
L 97.531848 371.643844 
L 97.957513 371.643844 
L 98.170345 369.520807 
L 98.383177 369.343888 
L 99.44734 369.343888 
L 99.660172 364.390136 
L 100.29867 364.390136 
L 100.724335 364.036297 
L 101.575664 364.036297 
L 102.001329 362.974778 
L 102.426994 362.974778 
L 102.639827 362.797859 
L 103.916821 362.797859 
L 104.129654 362.09018 
L 104.342486 352.182677 
L 104.980984 352.182677 
L 105.406649 351.651918 
L 105.619481 351.651918 
L 105.832314 350.944239 
L 106.045146 350.944239 
L 106.470811 350.590399 
L 106.896476 350.590399 
L 107.109308 350.41348 
L 107.322141 350.41348 
L 107.534973 350.23656 
L 107.747806 349.351961 
L 107.960638 349.351961 
L 108.386303 339.798297 
L 108.599136 339.444458 
L 109.237633 339.444458 
L 109.450465 339.267538 
L 110.301795 339.267538 
L 110.514628 339.090619 
L 110.72746 338.736779 
L 111.153125 338.736779 
L 112.004455 337.498341 
L 112.43012 337.498341 
L 112.642952 337.321422 
L 113.919947 337.321422 
L 114.132779 337.144502 
L 114.984109 337.144502 
L 115.196942 336.967582 
L 115.409774 335.729144 
L 116.048272 335.729144 
L 116.261104 335.552225 
L 116.686769 334.844546 
L 116.899601 327.413918 
L 117.112434 325.113962 
L 117.325266 324.937043 
L 117.538099 324.406283 
L 117.750931 324.406283 
L 117.963764 323.875524 
L 118.176596 321.929408 
L 120.730586 321.929408 
L 120.943418 313.437262 
L 123.071743 313.437262 
L 123.284575 313.260342 
L 125.625732 313.260342 
L 125.838565 312.729583 
L 126.477062 312.729583 
L 126.689895 312.375744 
L 128.392554 312.375744 
L 128.605387 312.198824 
L 129.031052 312.198824 
L 129.243884 312.021904 
L 130.308046 312.021904 
L 130.733711 311.668065 
L 130.946544 309.721948 
L 131.159376 309.721948 
L 131.372209 309.545029 
L 131.585041 309.014269 
L 131.797874 307.598912 
L 132.010706 302.46824 
L 132.862036 302.46824 
L 133.287701 302.114401 
L 134.139031 302.114401 
L 134.351863 299.460606 
L 134.564696 298.929846 
L 134.777528 289.376183 
L 134.99036 286.368548 
L 135.203193 286.368548 
L 135.416025 281.945555 
L 135.628858 281.945555 
L 136.267355 278.230241 
L 137.970015 278.230241 
L 138.182847 278.053322 
L 138.39568 278.053322 
L 138.608512 276.814884 
L 138.821345 276.637964 
L 139.034177 276.637964 
L 139.24701 268.676577 
L 139.459842 268.145818 
L 139.672675 267.968899 
L 139.885507 267.968899 
L 140.09834 266.90738 
L 140.311172 260.361351 
L 140.524004 260.361351 
L 140.736837 258.061395 
L 140.949669 258.061395 
L 141.375334 256.999877 
L 141.588167 256.999877 
L 141.800999 243.023221 
L 142.013832 242.492462 
L 142.226664 242.315542 
L 142.439497 241.961703 
L 142.652329 241.961703 
L 143.077994 234.000316 
L 143.290826 234.000316 
L 143.503659 232.761878 
L 143.716491 232.408039 
L 143.929324 232.408039 
L 144.142156 215.777587 
L 144.354989 213.83147 
L 144.993486 213.83147 
L 145.206319 213.65455 
L 145.419151 213.300711 
L 145.631983 208.523879 
L 145.844816 208.170039 
L 146.057648 208.170039 
L 146.270481 199.324054 
L 146.483313 197.377938 
L 147.121811 197.377938 
L 147.334643 197.201018 
L 147.547476 197.201018 
L 147.760308 197.024098 
L 148.185973 197.024098 
L 148.611638 196.670259 
L 149.037303 196.670259 
L 149.250135 196.493339 
L 149.462968 195.608741 
L 149.6758 195.608741 
L 149.888633 195.431821 
L 150.101465 195.431821 
L 150.314298 195.254901 
L 152.442622 195.254901 
L 152.655455 195.077982 
L 152.868287 194.724142 
L 153.293952 194.724142 
L 153.506784 194.547222 
L 154.783779 194.547222 
L 154.996612 194.370303 
L 155.209444 194.370303 
L 155.422277 194.016463 
L 155.635109 193.131865 
L 155.847942 192.954945 
L 156.060774 179.509048 
L 156.273606 177.386011 
L 156.699271 177.386011 
L 156.912104 177.209092 
L 161.168753 177.209092 
L 161.381585 176.855252 
L 161.594418 176.855252 
L 162.020083 176.147573 
L 163.297078 176.147573 
L 163.50991 175.970654 
L 164.999737 175.970654 
L 165.425402 175.616814 
L 165.851067 174.378376 
L 166.276732 158.101764 
L 166.489564 157.924844 
L 168.192224 157.924844 
L 168.405057 157.747925 
L 171.384711 157.747925 
L 171.810376 154.56337 
L 172.023208 154.38645 
L 172.236041 154.38645 
L 172.874538 151.909574 
L 173.300203 151.378815 
L 174.151533 151.378815 
L 174.364365 151.201896 
L 174.577198 150.848056 
L 176.067025 150.848056 
L 176.279858 150.671136 
L 177.769685 150.671136 
L 178.19535 149.786538 
L 178.408182 143.948188 
L 178.621015 142.35591 
L 178.833847 142.178991 
L 179.04668 141.648232 
L 179.259512 141.471312 
L 179.685177 141.471312 
L 179.898009 141.294392 
L 180.110842 140.763633 
L 180.323674 139.525195 
L 180.536507 139.348276 
L 180.749339 138.994436 
L 181.387837 136.8714 
L 181.600669 136.69448 
L 181.813502 136.69448 
L 182.026334 136.51756 
L 182.239166 135.986801 
L 182.451999 135.986801 
L 182.664831 135.279122 
L 183.090496 135.279122 
L 183.303329 134.748363 
L 183.516161 134.748363 
L 183.728994 134.040685 
L 183.941826 133.863765 
L 184.154659 133.333006 
L 184.367491 133.333006 
L 184.793156 132.979166 
L 185.005988 132.979166 
L 185.218821 132.625327 
L 185.644486 132.625327 
L 185.857318 132.094568 
L 186.070151 131.917648 
L 186.282983 131.917648 
L 186.495816 131.563809 
L 186.921481 131.563809 
L 187.134313 131.209969 
L 187.77281 131.209969 
L 187.985643 131.03305 
L 188.198475 131.03305 
L 188.411308 130.85613 
L 188.62414 130.85613 
L 189.049805 130.50229 
L 189.688303 130.50229 
L 190.3268 129.971531 
L 190.539632 129.971531 
L 190.752465 129.794612 
L 191.17813 129.794612 
L 191.603795 129.263853 
L 191.816627 129.086933 
L 192.02946 129.086933 
L 192.455125 128.733093 
L 192.667957 128.733093 
L 192.880789 128.556174 
L 193.944952 128.556174 
L 194.157784 128.379254 
L 194.796282 128.379254 
L 195.009114 128.202334 
L 195.434779 128.202334 
L 195.647611 124.66394 
L 196.073276 124.66394 
L 196.286109 122.363984 
L 196.498941 122.187065 
L 197.350271 122.187065 
L 197.563104 122.010145 
L 199.904261 122.010145 
L 200.329926 121.656305 
L 206.076402 121.656305 
L 206.289234 121.302466 
L 208.630391 121.302466 
L 208.843224 121.125546 
L 209.481721 121.125546 
L 209.694554 120.417867 
L 210.758716 120.417867 
L 210.971549 120.240948 
L 212.035711 120.240948 
L 212.248543 119.887108 
L 212.461376 119.17943 
L 213.525538 119.17943 
L 213.73837 119.00251 
L 214.164035 119.00251 
L 214.376868 118.82559 
L 219.484847 118.82559 
L 219.697679 118.64867 
L 227.359648 118.64867 
L 227.57248 118.471751 
L 228.636643 118.471751 
L 228.849475 118.294831 
L 229.062308 117.764072 
L 229.27514 115.641036 
L 229.700805 114.579517 
L 229.913637 114.579517 
L 230.339302 114.225678 
L 230.9778 114.225678 
L 231.190632 114.048758 
L 232.467627 114.048758 
L 232.680459 113.871839 
L 233.106124 113.871839 
L 233.318957 113.694919 
L 234.383119 113.694919 
L 234.595951 113.16416 
L 240.55526 113.16416 
L 240.768093 112.81032 
L 243.96058 112.81032 
L 244.173412 112.633401 
L 251.196883 112.633401 
L 251.409716 112.456481 
L 251.622548 112.456481 
L 251.835381 112.279561 
L 254.815035 112.279561 
L 255.027868 112.102642 
L 255.453533 112.102642 
L 255.666365 111.925722 
L 255.879197 111.925722 
L 256.09203 111.748802 
L 264.179663 111.748802 
L 264.392496 111.571882 
L 274.821286 111.571882 
L 275.034119 111.041123 
L 277.800941 111.041123 
L 278.013773 110.864204 
L 281.631925 110.864204 
L 281.844757 109.802685 
L 282.483255 109.802685 
L 282.696087 109.448846 
L 287.165569 109.448846 
L 287.378401 109.095007 
L 294.827538 109.095007 
L 295.466035 108.033488 
L 295.678867 108.033488 
L 295.8917 107.502729 
L 296.317365 107.502729 
L 296.74303 107.14889 
L 298.020024 107.14889 
L 298.232857 105.733532 
L 298.658522 105.733532 
L 298.871354 105.556613 
L 313.131129 105.556613 
L 313.343961 105.379693 
L 325.262579 105.379693 
L 325.475412 104.848934 
L 327.390904 104.848934 
L 327.603736 104.495094 
L 328.242234 104.495094 
L 328.455066 104.318175 
L 342.714841 104.318175 
L 342.927673 104.141255 
L 345.26883 104.141255 
L 345.481663 103.787416 
L 347.82282 103.787416 
L 348.035652 103.610496 
L 372.724218 103.610496 
L 372.93705 102.195138 
L 374.852542 102.195138 
L 375.065375 101.664379 
L 375.278207 101.664379 
L 375.703872 101.31054 
L 375.916705 101.31054 
L 375.916705 101.31054 
" clip-path="url(#pcef7c2f728)" style="fill: none; stroke: #5784db; stroke-width: 1.2; stroke-linecap: round"/>
   </g>
   <g id="line2d_47">
    <path d="M 69.650795 490.799263 
L 69.863628 489.118526 
L 71.140623 489.118526 
L 71.353455 486.110891 
L 71.77912 484.341694 
L 71.991953 484.164774 
L 72.417617 483.634015 
L 72.63045 483.457095 
L 72.843282 475.495709 
L 73.268947 444.357841 
L 73.694612 433.565739 
L 74.120277 429.673506 
L 74.758774 417.642966 
L 74.971607 414.812251 
L 75.184439 414.281492 
L 75.397272 412.335375 
L 75.822937 410.920018 
L 76.035769 410.920018 
L 76.461434 409.32774 
L 77.312764 404.020149 
L 77.525596 403.135551 
L 77.738429 403.135551 
L 77.951261 402.074032 
L 78.589759 401.543273 
L 78.802591 401.543273 
L 79.228256 400.481755 
L 79.441089 400.304835 
L 80.079586 400.304835 
L 80.292418 400.127916 
L 80.505251 398.889478 
L 80.930916 398.358719 
L 81.143748 398.358719 
L 81.356581 398.181799 
L 81.782246 397.47412 
L 81.995078 397.47412 
L 82.420743 396.412602 
L 83.05924 395.881843 
L 83.272073 395.528004 
L 83.484905 395.528004 
L 83.91057 395.174164 
L 86.038895 395.174164 
L 86.251727 394.997244 
L 87.103057 394.997244 
L 87.31589 394.820325 
L 87.528722 394.820325 
L 87.741555 394.643405 
L 88.380052 394.643405 
L 88.592884 394.289566 
L 89.018549 394.289566 
L 89.231382 394.112646 
L 89.444214 394.112646 
L 89.657047 393.935726 
L 89.869879 393.935726 
L 90.082712 393.228047 
L 90.295544 393.228047 
L 90.508376 386.328179 
L 90.721209 385.089741 
L 90.934041 384.735902 
L 91.146874 381.197508 
L 91.359706 381.020588 
L 91.572539 380.135989 
L 91.785371 380.135989 
L 91.998204 371.643844 
L 92.636701 369.343888 
L 92.849534 369.343888 
L 93.275198 368.813129 
L 93.700863 368.813129 
L 93.913696 367.220851 
L 94.126528 367.043932 
L 94.339361 367.043932 
L 94.552193 366.867012 
L 94.977858 366.867012 
L 95.403523 366.513172 
L 95.829188 366.513172 
L 96.467685 365.982413 
L 96.89335 365.982413 
L 97.106183 360.497903 
L 97.319015 358.728706 
L 97.74468 358.374866 
L 98.170345 358.374866 
L 98.383177 358.197946 
L 99.021675 358.197946 
L 99.234507 358.021027 
L 99.44734 358.021027 
L 99.660172 357.490268 
L 100.29867 357.490268 
L 100.724335 357.136428 
L 100.937167 357.136428 
L 101.362832 355.721071 
L 101.575664 355.721071 
L 101.788497 355.190312 
L 102.214162 354.836472 
L 102.639827 353.951874 
L 102.852659 347.228925 
L 103.278324 346.698166 
L 103.491157 346.521246 
L 103.703989 345.813567 
L 103.916821 345.636648 
L 104.342486 344.39821 
L 104.980984 344.39821 
L 105.193816 343.867451 
L 105.619481 343.513611 
L 105.832314 342.805932 
L 106.045146 342.629013 
L 106.257978 342.629013 
L 106.470811 342.275173 
L 106.896476 342.275173 
L 107.109308 342.098254 
L 107.322141 342.098254 
L 107.747806 341.567495 
L 107.960638 341.567495 
L 108.386303 332.013831 
L 108.599136 331.659991 
L 109.0248 331.659991 
L 109.237633 331.483072 
L 109.450465 331.129232 
L 110.301795 331.129232 
L 110.514628 330.952312 
L 110.72746 330.421553 
L 111.153125 330.421553 
L 111.57879 329.713875 
L 112.43012 329.713875 
L 112.642952 329.536955 
L 113.494282 329.536955 
L 113.919947 329.183115 
L 114.132779 328.652356 
L 114.558444 328.652356 
L 114.771277 328.475437 
L 114.984109 328.475437 
L 115.196942 328.298517 
L 115.409774 327.767758 
L 116.048272 327.767758 
L 116.261104 327.590838 
L 116.686769 326.883159 
L 116.899601 319.452532 
L 117.325266 315.029539 
L 117.538099 314.49878 
L 117.750931 314.49878 
L 117.963764 313.968021 
L 118.176596 313.791101 
L 118.389429 313.791101 
L 118.815094 303.706678 
L 120.092088 303.706678 
L 120.304921 303.529759 
L 120.730586 303.529759 
L 120.943418 303.352839 
L 122.220413 303.352839 
L 122.433245 303.175919 
L 122.85891 303.175919 
L 123.284575 302.82208 
L 124.348738 302.82208 
L 124.56157 302.64516 
L 126.477062 302.64516 
L 126.689895 302.114401 
L 127.115559 302.114401 
L 127.328392 301.937481 
L 127.966889 301.937481 
L 128.179722 300.875963 
L 128.392554 300.875963 
L 128.605387 300.522124 
L 129.031052 300.522124 
L 129.243884 300.345204 
L 129.669549 300.345204 
L 129.882381 299.991365 
L 130.308046 299.991365 
L 130.733711 299.637525 
L 131.159376 299.637525 
L 131.372209 299.460606 
L 131.585041 298.752927 
L 131.797874 297.337569 
L 132.010706 292.206898 
L 132.223539 292.206898 
L 132.436371 292.029978 
L 132.862036 292.029978 
L 133.287701 291.676139 
L 134.139031 291.676139 
L 134.351863 289.022343 
L 134.564696 288.491584 
L 134.99036 271.153453 
L 135.203193 270.622694 
L 135.416025 270.622694 
L 135.628858 270.268855 
L 136.054523 266.553541 
L 136.267355 266.376621 
L 137.970015 266.376621 
L 138.39568 266.022782 
L 138.608512 264.253585 
L 139.034177 263.899746 
L 139.24701 255.938359 
L 139.459842 255.4076 
L 139.672675 255.23068 
L 139.885507 255.23068 
L 140.09834 254.169162 
L 140.311172 246.915454 
L 140.949669 246.915454 
L 141.162502 241.784783 
L 141.375334 240.723265 
L 141.588167 240.723265 
L 141.800999 226.746608 
L 142.013832 226.038929 
L 142.226664 225.86201 
L 142.439497 225.50817 
L 142.652329 225.50817 
L 143.077994 217.546784 
L 143.290826 217.546784 
L 143.503659 216.308346 
L 143.716491 215.954506 
L 143.929324 215.954506 
L 144.142156 199.324054 
L 144.354989 197.377938 
L 144.993486 197.377938 
L 145.419151 197.024098 
L 145.631983 197.024098 
L 145.844816 196.670259 
L 146.057648 196.670259 
L 146.270481 187.824274 
L 146.483313 185.878157 
L 147.121811 185.878157 
L 147.334643 185.701237 
L 147.547476 185.701237 
L 147.760308 185.524318 
L 148.185973 185.524318 
L 148.611638 185.170478 
L 148.82447 185.170478 
L 149.037303 184.993559 
L 149.6758 184.10896 
L 149.888633 183.93204 
L 150.101465 183.93204 
L 150.314298 183.755121 
L 152.442622 183.755121 
L 152.655455 183.578201 
L 152.868287 183.224362 
L 153.08112 183.224362 
L 153.506784 182.870522 
L 155.209444 182.870522 
L 155.422277 182.516683 
L 155.635109 181.632084 
L 155.847942 181.455165 
L 156.060774 168.009267 
L 156.273606 165.886231 
L 156.699271 165.886231 
L 156.912104 165.709311 
L 161.168753 165.709311 
L 161.381585 165.355472 
L 161.594418 165.355472 
L 162.020083 164.647793 
L 163.297078 164.647793 
L 163.50991 164.293953 
L 165.21257 164.293953 
L 165.425402 164.117034 
L 165.851067 162.878596 
L 166.276732 146.601983 
L 166.489564 146.425064 
L 168.192224 146.425064 
L 168.405057 146.248144 
L 171.384711 146.248144 
L 171.810376 143.063589 
L 172.023208 142.88667 
L 172.236041 142.88667 
L 172.874538 140.409794 
L 173.300203 139.879035 
L 174.151533 139.879035 
L 174.364365 139.702115 
L 174.577198 139.348276 
L 176.067025 139.348276 
L 176.49269 138.994436 
L 177.769685 138.994436 
L 178.19535 138.109838 
L 178.408182 132.271487 
L 178.621015 130.67921 
L 178.833847 130.67921 
L 179.04668 130.148451 
L 179.259512 129.971531 
L 179.685177 129.971531 
L 179.898009 129.794612 
L 180.110842 129.263853 
L 180.323674 128.025415 
L 180.536507 127.848495 
L 180.749339 127.494656 
L 181.387837 125.371619 
L 181.600669 125.194699 
L 181.813502 125.194699 
L 182.026334 125.01778 
L 182.239166 124.487021 
L 182.451999 124.487021 
L 182.664831 123.779342 
L 183.090496 123.779342 
L 183.303329 123.248583 
L 183.516161 123.248583 
L 183.728994 122.540904 
L 183.941826 122.363984 
L 184.154659 121.833225 
L 184.367491 121.833225 
L 184.793156 121.479386 
L 185.005988 121.479386 
L 185.218821 121.125546 
L 185.644486 121.125546 
L 185.857318 120.594787 
L 186.070151 120.417867 
L 186.282983 120.417867 
L 186.495816 120.064028 
L 186.921481 120.064028 
L 187.134313 119.710189 
L 187.77281 119.710189 
L 187.985643 119.533269 
L 188.198475 119.533269 
L 188.411308 119.356349 
L 188.62414 119.356349 
L 189.049805 119.00251 
L 189.688303 119.00251 
L 190.3268 118.471751 
L 190.539632 118.471751 
L 190.752465 118.294831 
L 191.17813 118.294831 
L 191.603795 117.764072 
L 191.816627 117.587152 
L 192.02946 117.587152 
L 192.455125 117.233313 
L 192.667957 117.233313 
L 192.880789 117.056393 
L 193.944952 117.056393 
L 194.157784 116.879473 
L 194.583449 116.879473 
L 194.796282 116.702554 
L 195.434779 116.702554 
L 195.647611 113.16416 
L 196.073276 113.16416 
L 196.286109 110.864204 
L 196.498941 110.687284 
L 197.350271 110.687284 
L 197.563104 110.510364 
L 199.904261 110.510364 
L 200.329926 110.156525 
L 206.076402 110.156525 
L 206.289234 109.625766 
L 207.991894 109.625766 
L 208.204727 109.448846 
L 209.481721 109.448846 
L 209.694554 108.918087 
L 210.758716 108.918087 
L 210.971549 108.741167 
L 212.035711 108.741167 
L 212.248543 108.387328 
L 212.461376 107.679649 
L 213.525538 107.679649 
L 213.73837 107.502729 
L 214.164035 107.502729 
L 214.376868 107.32581 
L 219.484847 107.32581 
L 219.697679 107.14889 
L 224.167161 107.14889 
L 224.379993 106.618131 
L 224.592826 106.441211 
L 227.359648 106.441211 
L 227.57248 106.264291 
L 229.062308 106.264291 
L 229.27514 104.141255 
L 229.700805 103.079737 
L 229.913637 103.079737 
L 230.339302 102.725897 
L 230.9778 102.725897 
L 231.190632 102.548978 
L 232.467627 102.548978 
L 232.680459 102.372058 
L 232.893292 102.372058 
L 233.106124 102.195138 
L 233.957454 102.195138 
L 234.170287 101.841299 
L 234.383119 101.841299 
L 234.595951 101.664379 
L 238.639768 101.664379 
L 238.852601 101.487459 
L 239.278266 101.487459 
L 239.491098 101.31054 
L 242.25792 101.31054 
L 242.470752 101.13362 
L 249.919889 101.13362 
L 250.132721 100.9567 
L 251.622548 100.9567 
L 251.835381 100.779781 
L 254.815035 100.779781 
L 255.027868 100.602861 
L 255.453533 100.602861 
L 255.666365 100.425941 
L 255.879197 100.425941 
L 256.09203 100.249022 
L 263.753998 100.249022 
L 263.966831 100.072102 
L 272.054464 100.072102 
L 272.267297 99.718262 
L 273.331459 99.718262 
L 273.544292 99.541343 
L 275.034119 99.541343 
L 275.246951 99.364423 
L 280.142098 99.364423 
L 280.35493 99.010584 
L 280.567763 99.010584 
L 280.780595 98.833664 
L 280.993428 98.479824 
L 281.631925 98.479824 
L 281.844757 98.302905 
L 282.483255 98.302905 
L 282.696087 97.949065 
L 286.101407 97.949065 
L 286.314239 97.772146 
L 287.165569 97.772146 
L 287.378401 97.595226 
L 294.827538 97.595226 
L 295.466035 96.533708 
L 295.678867 96.533708 
L 295.8917 96.002949 
L 296.317365 96.002949 
L 296.74303 95.649109 
L 298.020024 95.649109 
L 298.232857 94.233752 
L 298.658522 94.233752 
L 298.871354 94.056832 
L 309.087312 94.056832 
L 309.300145 93.879912 
L 324.411249 93.879912 
L 324.624082 93.349153 
L 325.688244 93.349153 
L 325.901077 92.818394 
L 328.242234 92.818394 
L 328.455066 92.641474 
L 342.289176 92.641474 
L 342.502008 92.464555 
L 342.927673 92.464555 
L 343.140506 92.287635 
L 343.353338 92.287635 
L 343.566171 92.110715 
L 347.82282 92.110715 
L 348.035652 91.933796 
L 358.464443 91.933796 
L 358.677275 91.756876 
L 369.531731 91.756876 
L 369.744563 91.579956 
L 370.170228 90.518438 
L 371.872888 90.518438 
L 372.298553 90.164599 
L 374.852542 90.164599 
L 375.065375 89.633839 
L 375.278207 89.633839 
L 375.703872 89.28 
L 375.916705 89.28 
L 375.916705 89.28 
" clip-path="url(#pcef7c2f728)" style="fill: none; stroke: #c957db; stroke-width: 1.2; stroke-linecap: round"/>
   </g>
   <g id="line2d_48"/>
   <g id="line2d_49"/>
   <g id="line2d_50"/>
   <g id="line2d_51"/>
   <g id="line2d_52"/>
   <g id="patch_3">
    <path d="M 54.3375 512.64 
L 54.3375 69.12 
" style="fill: none; stroke: #cccccc; stroke-linejoin: miter; stroke-linecap: square"/>
   </g>
   <g id="patch_4">
    <path d="M 54.3375 512.64 
L 391.23 512.64 
" style="fill: none; stroke: #cccccc; stroke-linejoin: miter; stroke-linecap: square"/>
   </g>
   <g id="text_45">
    <!-- Edge Coverage History -->
    <g style="fill: #262626" transform="translate(115.892262 63.12)scale(0.165888 -0.165888)">
     <defs>
      <path id="DejaVuSans-Bold-45" d="M 588 4666 
L 3834 4666 
L 3834 3756 
L 1791 3756 
L 1791 2888 
L 3713 2888 
L 3713 1978 
L 1791 1978 
L 1791 909 
L 3903 909 
L 3903 0 
L 588 0 
L 588 4666 
z
" transform="scale(0.015625)"/>
      <path id="DejaVuSans-Bold-64" d="M 2919 2988 
L 2919 4863 
L 4044 4863 
L 4044 0 
L 2919 0 
L 2919 506 
Q 2688 197 2409 53 
Q 2131 -91 1766 -91 
Q 1119 -91 703 423 
Q 288 938 288 1747 
Q 288 2556 703 3070 
Q 1119 3584 1766 3584 
Q 2128 3584 2408 3439 
Q 2688 3294 2919 2988 
z
M 2181 722 
Q 2541 722 2730 984 
Q 2919 1247 2919 1747 
Q 2919 2247 2730 2509 
Q 2541 2772 2181 2772 
Q 1825 2772 1636 2509 
Q 1447 2247 1447 1747 
Q 1447 1247 1636 984 
Q 1825 722 2181 722 
z
" transform="scale(0.015625)"/>
      <path id="DejaVuSans-Bold-67" d="M 2919 594 
Q 2688 288 2409 144 
Q 2131 0 1766 0 
Q 1125 0 706 504 
Q 288 1009 288 1791 
Q 288 2575 706 3076 
Q 1125 3578 1766 3578 
Q 2131 3578 2409 3434 
Q 2688 3291 2919 2981 
L 2919 3500 
L 4044 3500 
L 4044 353 
Q 4044 -491 3511 -936 
Q 2978 -1381 1966 -1381 
Q 1638 -1381 1331 -1331 
Q 1025 -1281 716 -1178 
L 716 -306 
Q 1009 -475 1290 -558 
Q 1572 -641 1856 -641 
Q 2406 -641 2662 -400 
Q 2919 -159 2919 353 
L 2919 594 
z
M 2181 2772 
Q 1834 2772 1640 2515 
Q 1447 2259 1447 1791 
Q 1447 1309 1634 1061 
Q 1822 813 2181 813 
Q 2531 813 2725 1069 
Q 2919 1325 2919 1791 
Q 2919 2259 2725 2515 
Q 2531 2772 2181 2772 
z
" transform="scale(0.015625)"/>
      <path id="DejaVuSans-Bold-65" d="M 4031 1759 
L 4031 1441 
L 1416 1441 
Q 1456 1047 1700 850 
Q 1944 653 2381 653 
Q 2734 653 3104 758 
Q 3475 863 3866 1075 
L 3866 213 
Q 3469 63 3072 -14 
Q 2675 -91 2278 -91 
Q 1328 -91 801 392 
Q 275 875 275 1747 
Q 275 2603 792 3093 
Q 1309 3584 2216 3584 
Q 3041 3584 3536 3087 
Q 4031 2591 4031 1759 
z
M 2881 2131 
Q 2881 2450 2695 2645 
Q 2509 2841 2209 2841 
Q 1884 2841 1681 2658 
Q 1478 2475 1428 2131 
L 2881 2131 
z
" transform="scale(0.015625)"/>
      <path id="DejaVuSans-Bold-20" transform="scale(0.015625)"/>
      <path id="DejaVuSans-Bold-43" d="M 4288 256 
Q 3956 84 3597 -3 
Q 3238 -91 2847 -91 
Q 1681 -91 1000 561 
Q 319 1213 319 2328 
Q 319 3447 1000 4098 
Q 1681 4750 2847 4750 
Q 3238 4750 3597 4662 
Q 3956 4575 4288 4403 
L 4288 3438 
Q 3953 3666 3628 3772 
Q 3303 3878 2944 3878 
Q 2300 3878 1931 3465 
Q 1563 3053 1563 2328 
Q 1563 1606 1931 1193 
Q 2300 781 2944 781 
Q 3303 781 3628 887 
Q 3953 994 4288 1222 
L 4288 256 
z
" transform="scale(0.015625)"/>
      <path id="DejaVuSans-Bold-6f" d="M 2203 2784 
Q 1831 2784 1636 2517 
Q 1441 2250 1441 1747 
Q 1441 1244 1636 976 
Q 1831 709 2203 709 
Q 2569 709 2762 976 
Q 2956 1244 2956 1747 
Q 2956 2250 2762 2517 
Q 2569 2784 2203 2784 
z
M 2203 3584 
Q 3106 3584 3614 3096 
Q 4122 2609 4122 1747 
Q 4122 884 3614 396 
Q 3106 -91 2203 -91 
Q 1297 -91 786 396 
Q 275 884 275 1747 
Q 275 2609 786 3096 
Q 1297 3584 2203 3584 
z
" transform="scale(0.015625)"/>
      <path id="DejaVuSans-Bold-76" d="M 97 3500 
L 1216 3500 
L 2088 1081 
L 2956 3500 
L 4078 3500 
L 2700 0 
L 1472 0 
L 97 3500 
z
" transform="scale(0.015625)"/>
      <path id="DejaVuSans-Bold-72" d="M 3138 2547 
Q 2991 2616 2845 2648 
Q 2700 2681 2553 2681 
Q 2122 2681 1889 2404 
Q 1656 2128 1656 1613 
L 1656 0 
L 538 0 
L 538 3500 
L 1656 3500 
L 1656 2925 
Q 1872 3269 2151 3426 
Q 2431 3584 2822 3584 
Q 2878 3584 2943 3579 
Q 3009 3575 3134 3559 
L 3138 2547 
z
" transform="scale(0.015625)"/>
      <path id="DejaVuSans-Bold-61" d="M 2106 1575 
Q 1756 1575 1579 1456 
Q 1403 1338 1403 1106 
Q 1403 894 1545 773 
Q 1688 653 1941 653 
Q 2256 653 2472 879 
Q 2688 1106 2688 1447 
L 2688 1575 
L 2106 1575 
z
M 3816 1997 
L 3816 0 
L 2688 0 
L 2688 519 
Q 2463 200 2181 54 
Q 1900 -91 1497 -91 
Q 953 -91 614 226 
Q 275 544 275 1050 
Q 275 1666 698 1953 
Q 1122 2241 2028 2241 
L 2688 2241 
L 2688 2328 
Q 2688 2594 2478 2717 
Q 2269 2841 1825 2841 
Q 1466 2841 1156 2769 
Q 847 2697 581 2553 
L 581 3406 
Q 941 3494 1303 3539 
Q 1666 3584 2028 3584 
Q 2975 3584 3395 3211 
Q 3816 2838 3816 1997 
z
" transform="scale(0.015625)"/>
      <path id="DejaVuSans-Bold-48" d="M 588 4666 
L 1791 4666 
L 1791 2888 
L 3566 2888 
L 3566 4666 
L 4769 4666 
L 4769 0 
L 3566 0 
L 3566 1978 
L 1791 1978 
L 1791 0 
L 588 0 
L 588 4666 
z
" transform="scale(0.015625)"/>
      <path id="DejaVuSans-Bold-69" d="M 538 3500 
L 1656 3500 
L 1656 0 
L 538 0 
L 538 3500 
z
M 538 4863 
L 1656 4863 
L 1656 3950 
L 538 3950 
L 538 4863 
z
" transform="scale(0.015625)"/>
      <path id="DejaVuSans-Bold-73" d="M 3272 3391 
L 3272 2541 
Q 2913 2691 2578 2766 
Q 2244 2841 1947 2841 
Q 1628 2841 1473 2761 
Q 1319 2681 1319 2516 
Q 1319 2381 1436 2309 
Q 1553 2238 1856 2203 
L 2053 2175 
Q 2913 2066 3209 1816 
Q 3506 1566 3506 1031 
Q 3506 472 3093 190 
Q 2681 -91 1863 -91 
Q 1516 -91 1145 -36 
Q 775 19 384 128 
L 384 978 
Q 719 816 1070 734 
Q 1422 653 1784 653 
Q 2113 653 2278 743 
Q 2444 834 2444 1013 
Q 2444 1163 2330 1236 
Q 2216 1309 1875 1350 
L 1678 1375 
Q 931 1469 631 1722 
Q 331 1975 331 2491 
Q 331 3047 712 3315 
Q 1094 3584 1881 3584 
Q 2191 3584 2531 3537 
Q 2872 3491 3272 3391 
z
" transform="scale(0.015625)"/>
      <path id="DejaVuSans-Bold-74" d="M 1759 4494 
L 1759 3500 
L 2913 3500 
L 2913 2700 
L 1759 2700 
L 1759 1216 
Q 1759 972 1856 886 
Q 1953 800 2241 800 
L 2816 800 
L 2816 0 
L 1856 0 
Q 1194 0 917 276 
Q 641 553 641 1216 
L 641 2700 
L 84 2700 
L 84 3500 
L 641 3500 
L 641 4494 
L 1759 4494 
z
" transform="scale(0.015625)"/>
      <path id="DejaVuSans-Bold-79" d="M 78 3500 
L 1197 3500 
L 2138 1125 
L 2938 3500 
L 4056 3500 
L 2584 -331 
Q 2363 -916 2067 -1148 
Q 1772 -1381 1288 -1381 
L 641 -1381 
L 641 -647 
L 991 -647 
Q 1275 -647 1404 -556 
Q 1534 -466 1606 -231 
L 1638 -134 
L 78 3500 
z
" transform="scale(0.015625)"/>
     </defs>
     <use xlink:href="#DejaVuSans-Bold-45"/>
     <use xlink:href="#DejaVuSans-Bold-64" x="68.310547"/>
     <use xlink:href="#DejaVuSans-Bold-67" x="139.892578"/>
     <use xlink:href="#DejaVuSans-Bold-65" x="211.474609"/>
     <use xlink:href="#DejaVuSans-Bold-20" x="279.296875"/>
     <use xlink:href="#DejaVuSans-Bold-43" x="314.111328"/>
     <use xlink:href="#DejaVuSans-Bold-6f" x="387.5"/>
     <use xlink:href="#DejaVuSans-Bold-76" x="456.201172"/>
     <use xlink:href="#DejaVuSans-Bold-65" x="521.386719"/>
     <use xlink:href="#DejaVuSans-Bold-72" x="589.208984"/>
     <use xlink:href="#DejaVuSans-Bold-61" x="638.525391"/>
     <use xlink:href="#DejaVuSans-Bold-67" x="706.005859"/>
     <use xlink:href="#DejaVuSans-Bold-65" x="777.587891"/>
     <use xlink:href="#DejaVuSans-Bold-20" x="845.410156"/>
     <use xlink:href="#DejaVuSans-Bold-48" x="880.224609"/>
     <use xlink:href="#DejaVuSans-Bold-69" x="963.916016"/>
     <use xlink:href="#DejaVuSans-Bold-73" x="998.193359"/>
     <use xlink:href="#DejaVuSans-Bold-74" x="1057.714844"/>
     <use xlink:href="#DejaVuSans-Bold-6f" x="1105.517578"/>
     <use xlink:href="#DejaVuSans-Bold-72" x="1174.21875"/>
     <use xlink:href="#DejaVuSans-Bold-79" x="1223.535156"/>
    </g>
   </g>
   <g id="legend_1">
    <g id="patch_5">
     <path d="M 267.942 508.24 
L 385.07 508.24 
Q 386.83 508.24 386.83 506.48 
L 386.83 428.8405 
Q 386.83 427.0805 385.07 427.0805 
L 267.942 427.0805 
Q 266.182 427.0805 266.182 428.8405 
L 266.182 506.48 
Q 266.182 508.24 267.942 508.24 
z
" style="fill: #ffffff; opacity: 0.8; stroke: #cccccc; stroke-width: 0.8; stroke-linejoin: miter"/>
    </g>
    <g id="text_46">
     <!-- fuzzer -->
     <g style="fill: #262626" transform="translate(311.809 437.895)scale(0.096 -0.096)">
      <defs>
       <path id="DejaVuSans-66" d="M 2375 4863 
L 2375 4384 
L 1825 4384 
Q 1516 4384 1395 4259 
Q 1275 4134 1275 3809 
L 1275 3500 
L 2222 3500 
L 2222 3053 
L 1275 3053 
L 1275 0 
L 697 0 
L 697 3053 
L 147 3053 
L 147 3500 
L 697 3500 
L 697 3744 
Q 697 4328 969 4595 
Q 1241 4863 1831 4863 
L 2375 4863 
z
" transform="scale(0.015625)"/>
       <path id="DejaVuSans-7a" d="M 353 3500 
L 3084 3500 
L 3084 2975 
L 922 459 
L 3084 459 
L 3084 0 
L 275 0 
L 275 525 
L 2438 3041 
L 353 3041 
L 353 3500 
z
" transform="scale(0.015625)"/>
      </defs>
      <use xlink:href="#DejaVuSans-66"/>
      <use xlink:href="#DejaVuSans-75" x="35.205078"/>
      <use xlink:href="#DejaVuSans-7a" x="98.583984"/>
      <use xlink:href="#DejaVuSans-7a" x="151.074219"/>
      <use xlink:href="#DejaVuSans-65" x="203.564453"/>
      <use xlink:href="#DejaVuSans-72" x="265.087891"/>
     </g>
    </g>
    <g id="line2d_53">
     <path d="M 269.702 447.898125 
L 278.502 447.898125 
L 287.302 447.898125 
" style="fill: none; stroke: #db5f57; stroke-width: 1.2; stroke-linecap: round"/>
    </g>
    <g id="text_47">
     <!-- aflfast-0-exid24 -->
     <g style="fill: #262626" transform="translate(294.342 450.978125)scale(0.088 -0.088)">
      <defs>
       <path id="DejaVuSans-6c" d="M 603 4863 
L 1178 4863 
L 1178 0 
L 603 0 
L 603 4863 
z
" transform="scale(0.015625)"/>
       <path id="DejaVuSans-2d" d="M 313 2009 
L 1997 2009 
L 1997 1497 
L 313 1497 
L 313 2009 
z
" transform="scale(0.015625)"/>
       <path id="DejaVuSans-78" d="M 3513 3500 
L 2247 1797 
L 3578 0 
L 2900 0 
L 1881 1375 
L 863 0 
L 184 0 
L 1544 1831 
L 300 3500 
L 978 3500 
L 1906 2253 
L 2834 3500 
L 3513 3500 
z
" transform="scale(0.015625)"/>
      </defs>
      <use xlink:href="#DejaVuSans-61"/>
      <use xlink:href="#DejaVuSans-66" x="61.279297"/>
      <use xlink:href="#DejaVuSans-6c" x="96.484375"/>
      <use xlink:href="#DejaVuSans-66" x="124.267578"/>
      <use xlink:href="#DejaVuSans-61" x="159.472656"/>
      <use xlink:href="#DejaVuSans-73" x="220.751953"/>
      <use xlink:href="#DejaVuSans-74" x="272.851562"/>
      <use xlink:href="#DejaVuSans-2d" x="312.060547"/>
      <use xlink:href="#DejaVuSans-30" x="348.144531"/>
      <use xlink:href="#DejaVuSans-2d" x="411.767578"/>
      <use xlink:href="#DejaVuSans-65" x="447.851562"/>
      <use xlink:href="#DejaVuSans-78" x="507.625"/>
      <use xlink:href="#DejaVuSans-69" x="566.804688"/>
      <use xlink:href="#DejaVuSans-64" x="594.587891"/>
      <use xlink:href="#DejaVuSans-32" x="658.064453"/>
      <use xlink:href="#DejaVuSans-34" x="721.6875"/>
     </g>
    </g>
    <g id="line2d_54">
     <path d="M 269.702 460.814875 
L 278.502 460.814875 
L 287.302 460.814875 
" style="fill: none; stroke: #b9db57; stroke-width: 1.2; stroke-linecap: round"/>
    </g>
    <g id="text_48">
     <!-- afl-0-exid24 -->
     <g style="fill: #262626" transform="translate(294.342 463.894875)scale(0.088 -0.088)">
      <use xlink:href="#DejaVuSans-61"/>
      <use xlink:href="#DejaVuSans-66" x="61.279297"/>
      <use xlink:href="#DejaVuSans-6c" x="96.484375"/>
      <use xlink:href="#DejaVuSans-2d" x="124.267578"/>
      <use xlink:href="#DejaVuSans-30" x="160.351562"/>
      <use xlink:href="#DejaVuSans-2d" x="223.974609"/>
      <use xlink:href="#DejaVuSans-65" x="260.058594"/>
      <use xlink:href="#DejaVuSans-78" x="319.832031"/>
      <use xlink:href="#DejaVuSans-69" x="379.011719"/>
      <use xlink:href="#DejaVuSans-64" x="406.794922"/>
      <use xlink:href="#DejaVuSans-32" x="470.271484"/>
      <use xlink:href="#DejaVuSans-34" x="533.894531"/>
     </g>
    </g>
    <g id="line2d_55">
     <path d="M 269.702 473.731625 
L 278.502 473.731625 
L 287.302 473.731625 
" style="fill: none; stroke: #57db94; stroke-width: 1.2; stroke-linecap: round"/>
    </g>
    <g id="text_49">
     <!-- aflplusplus-0-exid24 -->
     <g style="fill: #262626" transform="translate(294.342 476.811625)scale(0.088 -0.088)">
      <defs>
       <path id="DejaVuSans-70" d="M 1159 525 
L 1159 -1331 
L 581 -1331 
L 581 3500 
L 1159 3500 
L 1159 2969 
Q 1341 3281 1617 3432 
Q 1894 3584 2278 3584 
Q 2916 3584 3314 3078 
Q 3713 2572 3713 1747 
Q 3713 922 3314 415 
Q 2916 -91 2278 -91 
Q 1894 -91 1617 61 
Q 1341 213 1159 525 
z
M 3116 1747 
Q 3116 2381 2855 2742 
Q 2594 3103 2138 3103 
Q 1681 3103 1420 2742 
Q 1159 2381 1159 1747 
Q 1159 1113 1420 752 
Q 1681 391 2138 391 
Q 2594 391 2855 752 
Q 3116 1113 3116 1747 
z
" transform="scale(0.015625)"/>
      </defs>
      <use xlink:href="#DejaVuSans-61"/>
      <use xlink:href="#DejaVuSans-66" x="61.279297"/>
      <use xlink:href="#DejaVuSans-6c" x="96.484375"/>
      <use xlink:href="#DejaVuSans-70" x="124.267578"/>
      <use xlink:href="#DejaVuSans-6c" x="187.744141"/>
      <use xlink:href="#DejaVuSans-75" x="215.527344"/>
      <use xlink:href="#DejaVuSans-73" x="278.90625"/>
      <use xlink:href="#DejaVuSans-70" x="331.005859"/>
      <use xlink:href="#DejaVuSans-6c" x="394.482422"/>
      <use xlink:href="#DejaVuSans-75" x="422.265625"/>
      <use xlink:href="#DejaVuSans-73" x="485.644531"/>
      <use xlink:href="#DejaVuSans-2d" x="537.744141"/>
      <use xlink:href="#DejaVuSans-30" x="573.828125"/>
      <use xlink:href="#DejaVuSans-2d" x="637.451172"/>
      <use xlink:href="#DejaVuSans-65" x="673.535156"/>
      <use xlink:href="#DejaVuSans-78" x="733.308594"/>
      <use xlink:href="#DejaVuSans-69" x="792.488281"/>
      <use xlink:href="#DejaVuSans-64" x="820.271484"/>
      <use xlink:href="#DejaVuSans-32" x="883.748047"/>
      <use xlink:href="#DejaVuSans-34" x="947.371094"/>
     </g>
    </g>
    <g id="line2d_56">
     <path d="M 269.702 486.648375 
L 278.502 486.648375 
L 287.302 486.648375 
" style="fill: none; stroke: #5784db; stroke-width: 1.2; stroke-linecap: round"/>
    </g>
    <g id="text_50">
     <!-- fairfuzz-0-exid24 -->
     <g style="fill: #262626" transform="translate(294.342 489.728375)scale(0.088 -0.088)">
      <use xlink:href="#DejaVuSans-66"/>
      <use xlink:href="#DejaVuSans-61" x="35.205078"/>
      <use xlink:href="#DejaVuSans-69" x="96.484375"/>
      <use xlink:href="#DejaVuSans-72" x="124.267578"/>
      <use xlink:href="#DejaVuSans-66" x="165.380859"/>
      <use xlink:href="#DejaVuSans-75" x="200.585938"/>
      <use xlink:href="#DejaVuSans-7a" x="263.964844"/>
      <use xlink:href="#DejaVuSans-7a" x="316.455078"/>
      <use xlink:href="#DejaVuSans-2d" x="368.945312"/>
      <use xlink:href="#DejaVuSans-30" x="405.029297"/>
      <use xlink:href="#DejaVuSans-2d" x="468.652344"/>
      <use xlink:href="#DejaVuSans-65" x="504.736328"/>
      <use xlink:href="#DejaVuSans-78" x="564.509766"/>
      <use xlink:href="#DejaVuSans-69" x="623.689453"/>
      <use xlink:href="#DejaVuSans-64" x="651.472656"/>
      <use xlink:href="#DejaVuSans-32" x="714.949219"/>
      <use xlink:href="#DejaVuSans-34" x="778.572266"/>
     </g>
    </g>
    <g id="line2d_57">
     <path d="M 269.702 499.565125 
L 278.502 499.565125 
L 287.302 499.565125 
" style="fill: none; stroke: #c957db; stroke-width: 1.2; stroke-linecap: round"/>
    </g>
    <g id="text_51">
     <!-- fuzzer_global -->
     <g style="fill: #262626" transform="translate(294.342 502.645125)scale(0.088 -0.088)">
      <defs>
       <path id="DejaVuSans-5f" d="M 3263 -1063 
L 3263 -1509 
L -63 -1509 
L -63 -1063 
L 3263 -1063 
z
" transform="scale(0.015625)"/>
       <path id="DejaVuSans-62" d="M 3116 1747 
Q 3116 2381 2855 2742 
Q 2594 3103 2138 3103 
Q 1681 3103 1420 2742 
Q 1159 2381 1159 1747 
Q 1159 1113 1420 752 
Q 1681 391 2138 391 
Q 2594 391 2855 752 
Q 3116 1113 3116 1747 
z
M 1159 2969 
Q 1341 3281 1617 3432 
Q 1894 3584 2278 3584 
Q 2916 3584 3314 3078 
Q 3713 2572 3713 1747 
Q 3713 922 3314 415 
Q 2916 -91 2278 -91 
Q 1894 -91 1617 61 
Q 1341 213 1159 525 
L 1159 0 
L 581 0 
L 581 4863 
L 1159 4863 
L 1159 2969 
z
" transform="scale(0.015625)"/>
      </defs>
      <use xlink:href="#DejaVuSans-66"/>
      <use xlink:href="#DejaVuSans-75" x="35.205078"/>
      <use xlink:href="#DejaVuSans-7a" x="98.583984"/>
      <use xlink:href="#DejaVuSans-7a" x="151.074219"/>
      <use xlink:href="#DejaVuSans-65" x="203.564453"/>
      <use xlink:href="#DejaVuSans-72" x="265.087891"/>
      <use xlink:href="#DejaVuSans-5f" x="306.201172"/>
      <use xlink:href="#DejaVuSans-67" x="356.201172"/>
      <use xlink:href="#DejaVuSans-6c" x="419.677734"/>
      <use xlink:href="#DejaVuSans-6f" x="447.460938"/>
      <use xlink:href="#DejaVuSans-62" x="508.642578"/>
      <use xlink:href="#DejaVuSans-61" x="572.119141"/>
      <use xlink:href="#DejaVuSans-6c" x="633.398438"/>
     </g>
    </g>
   </g>
  </g>
 </g>
 <defs>
  <clipPath id="pcef7c2f728">
   <rect x="54.3375" y="69.12" width="336.8925" height="443.52"/>
  </clipPath>
 </defs>
</svg>
