<?xml version="1.0" encoding="utf-8" standalone="no"?>
<!DOCTYPE svg PUBLIC "-//W3C//DTD SVG 1.1//EN"
  "http://www.w3.org/Graphics/SVG/1.1/DTD/svg11.dtd">
<svg xmlns:xlink="http://www.w3.org/1999/xlink" width="434.7pt" height="576pt" viewBox="0 0 434.7 576" xmlns="http://www.w3.org/2000/svg" version="1.1">
 <metadata>
  <rdf:RDF xmlns:dc="http://purl.org/dc/elements/1.1/" xmlns:cc="http://creativecommons.org/ns#" xmlns:rdf="http://www.w3.org/1999/02/22-rdf-syntax-ns#">
   <cc:Work>
    <dc:type rdf:resource="http://purl.org/dc/dcmitype/StillImage"/>
    <dc:date>2022-09-15T10:58:34.715393</dc:date>
    <dc:format>image/svg+xml</dc:format>
    <dc:creator>
     <cc:Agent>
      <dc:title>Matplotlib v3.5.3, https://matplotlib.org/</dc:title>
     </cc:Agent>
    </dc:creator>
   </cc:Work>
  </rdf:RDF>
 </metadata>
 <defs>
  <style type="text/css">*{stroke-linejoin: round; stroke-linecap: butt}</style>
 </defs>
 <g id="figure_1">
  <g id="patch_1">
   <path d="M 0 576 
L 434.7 576 
L 434.7 0 
L 0 0 
z
" style="fill: #ffffff"/>
  </g>
  <g id="axes_1">
   <g id="patch_2">
    <path d="M 54.3375 512.64 
L 391.23 512.64 
L 391.23 69.12 
L 54.3375 69.12 
z
" style="fill: #ffffff"/>
   </g>
   <g id="matplotlib.axis_1">
    <g id="xtick_1">
     <g id="line2d_1">
      <path d="M 69.650795 512.64 
L 69.650795 69.12 
" clip-path="url(#p83651e4c24)" style="fill: none; stroke: #cccccc; stroke-width: 0.8; stroke-linecap: round"/>
     </g>
     <g id="text_1">
      <!-- 0 -->
      <g style="fill: #262626" transform="translate(69.388282 529.627249)rotate(-45)scale(0.088 -0.088)">
       <defs>
        <path id="DejaVuSans-30" d="M 2034 4250 
Q 1547 4250 1301 3770 
Q 1056 3291 1056 2328 
Q 1056 1369 1301 889 
Q 1547 409 2034 409 
Q 2525 409 2770 889 
Q 3016 1369 3016 2328 
Q 3016 3291 2770 3770 
Q 2525 4250 2034 4250 
z
M 2034 4750 
Q 2819 4750 3233 4129 
Q 3647 3509 3647 2328 
Q 3647 1150 3233 529 
Q 2819 -91 2034 -91 
Q 1250 -91 836 529 
Q 422 1150 422 2328 
Q 422 3509 836 4129 
Q 1250 4750 2034 4750 
z
" transform="scale(0.015625)"/>
       </defs>
       <use xlink:href="#DejaVuSans-30"/>
      </g>
     </g>
    </g>
    <g id="xtick_2">
     <g id="line2d_2">
      <path d="M 86.677392 512.64 
L 86.677392 69.12 
" clip-path="url(#p83651e4c24)" style="fill: none; stroke: #cccccc; stroke-width: 0.8; stroke-linecap: round"/>
     </g>
     <g id="text_2">
      <!-- 80 -->
      <g style="fill: #262626" transform="translate(84.435333 533.58634)rotate(-45)scale(0.088 -0.088)">
       <defs>
        <path id="DejaVuSans-38" d="M 2034 2216 
Q 1584 2216 1326 1975 
Q 1069 1734 1069 1313 
Q 1069 891 1326 650 
Q 1584 409 2034 409 
Q 2484 409 2743 651 
Q 3003 894 3003 1313 
Q 3003 1734 2745 1975 
Q 2488 2216 2034 2216 
z
M 1403 2484 
Q 997 2584 770 2862 
Q 544 3141 544 3541 
Q 544 4100 942 4425 
Q 1341 4750 2034 4750 
Q 2731 4750 3128 4425 
Q 3525 4100 3525 3541 
Q 3525 3141 3298 2862 
Q 3072 2584 2669 2484 
Q 3125 2378 3379 2068 
Q 3634 1759 3634 1313 
Q 3634 634 3220 271 
Q 2806 -91 2034 -91 
Q 1263 -91 848 271 
Q 434 634 434 1313 
Q 434 1759 690 2068 
Q 947 2378 1403 2484 
z
M 1172 3481 
Q 1172 3119 1398 2916 
Q 1625 2713 2034 2713 
Q 2441 2713 2670 2916 
Q 2900 3119 2900 3481 
Q 2900 3844 2670 4047 
Q 2441 4250 2034 4250 
Q 1625 4250 1398 4047 
Q 1172 3844 1172 3481 
z
" transform="scale(0.015625)"/>
       </defs>
       <use xlink:href="#DejaVuSans-38"/>
       <use xlink:href="#DejaVuSans-30" x="63.623047"/>
      </g>
     </g>
    </g>
    <g id="xtick_3">
     <g id="line2d_3">
      <path d="M 103.703989 512.64 
L 103.703989 69.12 
" clip-path="url(#p83651e4c24)" style="fill: none; stroke: #cccccc; stroke-width: 0.8; stroke-linecap: round"/>
     </g>
     <g id="text_3">
      <!-- 160 -->
      <g style="fill: #262626" transform="translate(99.482385 537.54543)rotate(-45)scale(0.088 -0.088)">
       <defs>
        <path id="DejaVuSans-31" d="M 794 531 
L 1825 531 
L 1825 4091 
L 703 3866 
L 703 4441 
L 1819 4666 
L 2450 4666 
L 2450 531 
L 3481 531 
L 3481 0 
L 794 0 
L 794 531 
z
" transform="scale(0.015625)"/>
        <path id="DejaVuSans-36" d="M 2113 2584 
Q 1688 2584 1439 2293 
Q 1191 2003 1191 1497 
Q 1191 994 1439 701 
Q 1688 409 2113 409 
Q 2538 409 2786 701 
Q 3034 994 3034 1497 
Q 3034 2003 2786 2293 
Q 2538 2584 2113 2584 
z
M 3366 4563 
L 3366 3988 
Q 3128 4100 2886 4159 
Q 2644 4219 2406 4219 
Q 1781 4219 1451 3797 
Q 1122 3375 1075 2522 
Q 1259 2794 1537 2939 
Q 1816 3084 2150 3084 
Q 2853 3084 3261 2657 
Q 3669 2231 3669 1497 
Q 3669 778 3244 343 
Q 2819 -91 2113 -91 
Q 1303 -91 875 529 
Q 447 1150 447 2328 
Q 447 3434 972 4092 
Q 1497 4750 2381 4750 
Q 2619 4750 2861 4703 
Q 3103 4656 3366 4563 
z
" transform="scale(0.015625)"/>
       </defs>
       <use xlink:href="#DejaVuSans-31"/>
       <use xlink:href="#DejaVuSans-36" x="63.623047"/>
       <use xlink:href="#DejaVuSans-30" x="127.246094"/>
      </g>
     </g>
    </g>
    <g id="xtick_4">
     <g id="line2d_4">
      <path d="M 120.730586 512.64 
L 120.730586 69.12 
" clip-path="url(#p83651e4c24)" style="fill: none; stroke: #cccccc; stroke-width: 0.8; stroke-linecap: round"/>
     </g>
     <g id="text_4">
      <!-- 240 -->
      <g style="fill: #262626" transform="translate(116.508981 537.54543)rotate(-45)scale(0.088 -0.088)">
       <defs>
        <path id="DejaVuSans-32" d="M 1228 531 
L 3431 531 
L 3431 0 
L 469 0 
L 469 531 
Q 828 903 1448 1529 
Q 2069 2156 2228 2338 
Q 2531 2678 2651 2914 
Q 2772 3150 2772 3378 
Q 2772 3750 2511 3984 
Q 2250 4219 1831 4219 
Q 1534 4219 1204 4116 
Q 875 4013 500 3803 
L 500 4441 
Q 881 4594 1212 4672 
Q 1544 4750 1819 4750 
Q 2544 4750 2975 4387 
Q 3406 4025 3406 3419 
Q 3406 3131 3298 2873 
Q 3191 2616 2906 2266 
Q 2828 2175 2409 1742 
Q 1991 1309 1228 531 
z
" transform="scale(0.015625)"/>
        <path id="DejaVuSans-34" d="M 2419 4116 
L 825 1625 
L 2419 1625 
L 2419 4116 
z
M 2253 4666 
L 3047 4666 
L 3047 1625 
L 3713 1625 
L 3713 1100 
L 3047 1100 
L 3047 0 
L 2419 0 
L 2419 1100 
L 313 1100 
L 313 1709 
L 2253 4666 
z
" transform="scale(0.015625)"/>
       </defs>
       <use xlink:href="#DejaVuSans-32"/>
       <use xlink:href="#DejaVuSans-34" x="63.623047"/>
       <use xlink:href="#DejaVuSans-30" x="127.246094"/>
      </g>
     </g>
    </g>
    <g id="xtick_5">
     <g id="line2d_5">
      <path d="M 137.757182 512.64 
L 137.757182 69.12 
" clip-path="url(#p83651e4c24)" style="fill: none; stroke: #cccccc; stroke-width: 0.8; stroke-linecap: round"/>
     </g>
     <g id="text_5">
      <!-- 320 -->
      <g style="fill: #262626" transform="translate(133.535578 537.54543)rotate(-45)scale(0.088 -0.088)">
       <defs>
        <path id="DejaVuSans-33" d="M 2597 2516 
Q 3050 2419 3304 2112 
Q 3559 1806 3559 1356 
Q 3559 666 3084 287 
Q 2609 -91 1734 -91 
Q 1441 -91 1130 -33 
Q 819 25 488 141 
L 488 750 
Q 750 597 1062 519 
Q 1375 441 1716 441 
Q 2309 441 2620 675 
Q 2931 909 2931 1356 
Q 2931 1769 2642 2001 
Q 2353 2234 1838 2234 
L 1294 2234 
L 1294 2753 
L 1863 2753 
Q 2328 2753 2575 2939 
Q 2822 3125 2822 3475 
Q 2822 3834 2567 4026 
Q 2313 4219 1838 4219 
Q 1578 4219 1281 4162 
Q 984 4106 628 3988 
L 628 4550 
Q 988 4650 1302 4700 
Q 1616 4750 1894 4750 
Q 2613 4750 3031 4423 
Q 3450 4097 3450 3541 
Q 3450 3153 3228 2886 
Q 3006 2619 2597 2516 
z
" transform="scale(0.015625)"/>
       </defs>
       <use xlink:href="#DejaVuSans-33"/>
       <use xlink:href="#DejaVuSans-32" x="63.623047"/>
       <use xlink:href="#DejaVuSans-30" x="127.246094"/>
      </g>
     </g>
    </g>
    <g id="xtick_6">
     <g id="line2d_6">
      <path d="M 154.783779 512.64 
L 154.783779 69.12 
" clip-path="url(#p83651e4c24)" style="fill: none; stroke: #cccccc; stroke-width: 0.8; stroke-linecap: round"/>
     </g>
     <g id="text_6">
      <!-- 400 -->
      <g style="fill: #262626" transform="translate(150.562175 537.54543)rotate(-45)scale(0.088 -0.088)">
       <use xlink:href="#DejaVuSans-34"/>
       <use xlink:href="#DejaVuSans-30" x="63.623047"/>
       <use xlink:href="#DejaVuSans-30" x="127.246094"/>
      </g>
     </g>
    </g>
    <g id="xtick_7">
     <g id="line2d_7">
      <path d="M 171.810376 512.64 
L 171.810376 69.12 
" clip-path="url(#p83651e4c24)" style="fill: none; stroke: #cccccc; stroke-width: 0.8; stroke-linecap: round"/>
     </g>
     <g id="text_7">
      <!-- 480 -->
      <g style="fill: #262626" transform="translate(167.588772 537.54543)rotate(-45)scale(0.088 -0.088)">
       <use xlink:href="#DejaVuSans-34"/>
       <use xlink:href="#DejaVuSans-38" x="63.623047"/>
       <use xlink:href="#DejaVuSans-30" x="127.246094"/>
      </g>
     </g>
    </g>
    <g id="xtick_8">
     <g id="line2d_8">
      <path d="M 188.836973 512.64 
L 188.836973 69.12 
" clip-path="url(#p83651e4c24)" style="fill: none; stroke: #cccccc; stroke-width: 0.8; stroke-linecap: round"/>
     </g>
     <g id="text_8">
      <!-- 560 -->
      <g style="fill: #262626" transform="translate(184.615368 537.54543)rotate(-45)scale(0.088 -0.088)">
       <defs>
        <path id="DejaVuSans-35" d="M 691 4666 
L 3169 4666 
L 3169 4134 
L 1269 4134 
L 1269 2991 
Q 1406 3038 1543 3061 
Q 1681 3084 1819 3084 
Q 2600 3084 3056 2656 
Q 3513 2228 3513 1497 
Q 3513 744 3044 326 
Q 2575 -91 1722 -91 
Q 1428 -91 1123 -41 
Q 819 9 494 109 
L 494 744 
Q 775 591 1075 516 
Q 1375 441 1709 441 
Q 2250 441 2565 725 
Q 2881 1009 2881 1497 
Q 2881 1984 2565 2268 
Q 2250 2553 1709 2553 
Q 1456 2553 1204 2497 
Q 953 2441 691 2322 
L 691 4666 
z
" transform="scale(0.015625)"/>
       </defs>
       <use xlink:href="#DejaVuSans-35"/>
       <use xlink:href="#DejaVuSans-36" x="63.623047"/>
       <use xlink:href="#DejaVuSans-30" x="127.246094"/>
      </g>
     </g>
    </g>
    <g id="xtick_9">
     <g id="line2d_9">
      <path d="M 205.863569 512.64 
L 205.863569 69.12 
" clip-path="url(#p83651e4c24)" style="fill: none; stroke: #cccccc; stroke-width: 0.8; stroke-linecap: round"/>
     </g>
     <g id="text_9">
      <!-- 640 -->
      <g style="fill: #262626" transform="translate(201.641965 537.54543)rotate(-45)scale(0.088 -0.088)">
       <use xlink:href="#DejaVuSans-36"/>
       <use xlink:href="#DejaVuSans-34" x="63.623047"/>
       <use xlink:href="#DejaVuSans-30" x="127.246094"/>
      </g>
     </g>
    </g>
    <g id="xtick_10">
     <g id="line2d_10">
      <path d="M 222.890166 512.64 
L 222.890166 69.12 
" clip-path="url(#p83651e4c24)" style="fill: none; stroke: #cccccc; stroke-width: 0.8; stroke-linecap: round"/>
     </g>
     <g id="text_10">
      <!-- 720 -->
      <g style="fill: #262626" transform="translate(218.668562 537.54543)rotate(-45)scale(0.088 -0.088)">
       <defs>
        <path id="DejaVuSans-37" d="M 525 4666 
L 3525 4666 
L 3525 4397 
L 1831 0 
L 1172 0 
L 2766 4134 
L 525 4134 
L 525 4666 
z
" transform="scale(0.015625)"/>
       </defs>
       <use xlink:href="#DejaVuSans-37"/>
       <use xlink:href="#DejaVuSans-32" x="63.623047"/>
       <use xlink:href="#DejaVuSans-30" x="127.246094"/>
      </g>
     </g>
    </g>
    <g id="xtick_11">
     <g id="line2d_11">
      <path d="M 239.916763 512.64 
L 239.916763 69.12 
" clip-path="url(#p83651e4c24)" style="fill: none; stroke: #cccccc; stroke-width: 0.8; stroke-linecap: round"/>
     </g>
     <g id="text_11">
      <!-- 800 -->
      <g style="fill: #262626" transform="translate(235.695159 537.54543)rotate(-45)scale(0.088 -0.088)">
       <use xlink:href="#DejaVuSans-38"/>
       <use xlink:href="#DejaVuSans-30" x="63.623047"/>
       <use xlink:href="#DejaVuSans-30" x="127.246094"/>
      </g>
     </g>
    </g>
    <g id="xtick_12">
     <g id="line2d_12">
      <path d="M 256.94336 512.64 
L 256.94336 69.12 
" clip-path="url(#p83651e4c24)" style="fill: none; stroke: #cccccc; stroke-width: 0.8; stroke-linecap: round"/>
     </g>
     <g id="text_12">
      <!-- 880 -->
      <g style="fill: #262626" transform="translate(252.721755 537.54543)rotate(-45)scale(0.088 -0.088)">
       <use xlink:href="#DejaVuSans-38"/>
       <use xlink:href="#DejaVuSans-38" x="63.623047"/>
       <use xlink:href="#DejaVuSans-30" x="127.246094"/>
      </g>
     </g>
    </g>
    <g id="xtick_13">
     <g id="line2d_13">
      <path d="M 273.969956 512.64 
L 273.969956 69.12 
" clip-path="url(#p83651e4c24)" style="fill: none; stroke: #cccccc; stroke-width: 0.8; stroke-linecap: round"/>
     </g>
     <g id="text_13">
      <!-- 960 -->
      <g style="fill: #262626" transform="translate(269.748352 537.54543)rotate(-45)scale(0.088 -0.088)">
       <defs>
        <path id="DejaVuSans-39" d="M 703 97 
L 703 672 
Q 941 559 1184 500 
Q 1428 441 1663 441 
Q 2288 441 2617 861 
Q 2947 1281 2994 2138 
Q 2813 1869 2534 1725 
Q 2256 1581 1919 1581 
Q 1219 1581 811 2004 
Q 403 2428 403 3163 
Q 403 3881 828 4315 
Q 1253 4750 1959 4750 
Q 2769 4750 3195 4129 
Q 3622 3509 3622 2328 
Q 3622 1225 3098 567 
Q 2575 -91 1691 -91 
Q 1453 -91 1209 -44 
Q 966 3 703 97 
z
M 1959 2075 
Q 2384 2075 2632 2365 
Q 2881 2656 2881 3163 
Q 2881 3666 2632 3958 
Q 2384 4250 1959 4250 
Q 1534 4250 1286 3958 
Q 1038 3666 1038 3163 
Q 1038 2656 1286 2365 
Q 1534 2075 1959 2075 
z
" transform="scale(0.015625)"/>
       </defs>
       <use xlink:href="#DejaVuSans-39"/>
       <use xlink:href="#DejaVuSans-36" x="63.623047"/>
       <use xlink:href="#DejaVuSans-30" x="127.246094"/>
      </g>
     </g>
    </g>
    <g id="xtick_14">
     <g id="line2d_14">
      <path d="M 290.996553 512.64 
L 290.996553 69.12 
" clip-path="url(#p83651e4c24)" style="fill: none; stroke: #cccccc; stroke-width: 0.8; stroke-linecap: round"/>
     </g>
     <g id="text_14">
      <!-- 1040 -->
      <g style="fill: #262626" transform="translate(284.795404 541.504521)rotate(-45)scale(0.088 -0.088)">
       <use xlink:href="#DejaVuSans-31"/>
       <use xlink:href="#DejaVuSans-30" x="63.623047"/>
       <use xlink:href="#DejaVuSans-34" x="127.246094"/>
       <use xlink:href="#DejaVuSans-30" x="190.869141"/>
      </g>
     </g>
    </g>
    <g id="xtick_15">
     <g id="line2d_15">
      <path d="M 308.02315 512.64 
L 308.02315 69.12 
" clip-path="url(#p83651e4c24)" style="fill: none; stroke: #cccccc; stroke-width: 0.8; stroke-linecap: round"/>
     </g>
     <g id="text_15">
      <!-- 1120 -->
      <g style="fill: #262626" transform="translate(301.822 541.504521)rotate(-45)scale(0.088 -0.088)">
       <use xlink:href="#DejaVuSans-31"/>
       <use xlink:href="#DejaVuSans-31" x="63.623047"/>
       <use xlink:href="#DejaVuSans-32" x="127.246094"/>
       <use xlink:href="#DejaVuSans-30" x="190.869141"/>
      </g>
     </g>
    </g>
    <g id="xtick_16">
     <g id="line2d_16">
      <path d="M 325.049747 512.64 
L 325.049747 69.12 
" clip-path="url(#p83651e4c24)" style="fill: none; stroke: #cccccc; stroke-width: 0.8; stroke-linecap: round"/>
     </g>
     <g id="text_16">
      <!-- 1200 -->
      <g style="fill: #262626" transform="translate(318.848597 541.504521)rotate(-45)scale(0.088 -0.088)">
       <use xlink:href="#DejaVuSans-31"/>
       <use xlink:href="#DejaVuSans-32" x="63.623047"/>
       <use xlink:href="#DejaVuSans-30" x="127.246094"/>
       <use xlink:href="#DejaVuSans-30" x="190.869141"/>
      </g>
     </g>
    </g>
    <g id="xtick_17">
     <g id="line2d_17">
      <path d="M 342.076343 512.64 
L 342.076343 69.12 
" clip-path="url(#p83651e4c24)" style="fill: none; stroke: #cccccc; stroke-width: 0.8; stroke-linecap: round"/>
     </g>
     <g id="text_17">
      <!-- 1280 -->
      <g style="fill: #262626" transform="translate(335.875194 541.504521)rotate(-45)scale(0.088 -0.088)">
       <use xlink:href="#DejaVuSans-31"/>
       <use xlink:href="#DejaVuSans-32" x="63.623047"/>
       <use xlink:href="#DejaVuSans-38" x="127.246094"/>
       <use xlink:href="#DejaVuSans-30" x="190.869141"/>
      </g>
     </g>
    </g>
    <g id="xtick_18">
     <g id="line2d_18">
      <path d="M 359.10294 512.64 
L 359.10294 69.12 
" clip-path="url(#p83651e4c24)" style="fill: none; stroke: #cccccc; stroke-width: 0.8; stroke-linecap: round"/>
     </g>
     <g id="text_18">
      <!-- 1360 -->
      <g style="fill: #262626" transform="translate(352.901791 541.504521)rotate(-45)scale(0.088 -0.088)">
       <use xlink:href="#DejaVuSans-31"/>
       <use xlink:href="#DejaVuSans-33" x="63.623047"/>
       <use xlink:href="#DejaVuSans-36" x="127.246094"/>
       <use xlink:href="#DejaVuSans-30" x="190.869141"/>
      </g>
     </g>
    </g>
    <g id="xtick_19">
     <g id="line2d_19">
      <path d="M 376.129537 512.64 
L 376.129537 69.12 
" clip-path="url(#p83651e4c24)" style="fill: none; stroke: #cccccc; stroke-width: 0.8; stroke-linecap: round"/>
     </g>
     <g id="text_19">
      <!-- 1440 -->
      <g style="fill: #262626" transform="translate(369.928387 541.504521)rotate(-45)scale(0.088 -0.088)">
       <use xlink:href="#DejaVuSans-31"/>
       <use xlink:href="#DejaVuSans-34" x="63.623047"/>
       <use xlink:href="#DejaVuSans-34" x="127.246094"/>
       <use xlink:href="#DejaVuSans-30" x="190.869141"/>
      </g>
     </g>
    </g>
    <g id="text_20">
     <!-- Time (Minutes) -->
     <g style="fill: #262626" transform="translate(186.87375 554.093115)scale(0.096 -0.096)">
      <defs>
       <path id="DejaVuSans-54" d="M -19 4666 
L 3928 4666 
L 3928 4134 
L 2272 4134 
L 2272 0 
L 1638 0 
L 1638 4134 
L -19 4134 
L -19 4666 
z
" transform="scale(0.015625)"/>
       <path id="DejaVuSans-69" d="M 603 3500 
L 1178 3500 
L 1178 0 
L 603 0 
L 603 3500 
z
M 603 4863 
L 1178 4863 
L 1178 4134 
L 603 4134 
L 603 4863 
z
" transform="scale(0.015625)"/>
       <path id="DejaVuSans-6d" d="M 3328 2828 
Q 3544 3216 3844 3400 
Q 4144 3584 4550 3584 
Q 5097 3584 5394 3201 
Q 5691 2819 5691 2113 
L 5691 0 
L 5113 0 
L 5113 2094 
Q 5113 2597 4934 2840 
Q 4756 3084 4391 3084 
Q 3944 3084 3684 2787 
Q 3425 2491 3425 1978 
L 3425 0 
L 2847 0 
L 2847 2094 
Q 2847 2600 2669 2842 
Q 2491 3084 2119 3084 
Q 1678 3084 1418 2786 
Q 1159 2488 1159 1978 
L 1159 0 
L 581 0 
L 581 3500 
L 1159 3500 
L 1159 2956 
Q 1356 3278 1631 3431 
Q 1906 3584 2284 3584 
Q 2666 3584 2933 3390 
Q 3200 3197 3328 2828 
z
" transform="scale(0.015625)"/>
       <path id="DejaVuSans-65" d="M 3597 1894 
L 3597 1613 
L 953 1613 
Q 991 1019 1311 708 
Q 1631 397 2203 397 
Q 2534 397 2845 478 
Q 3156 559 3463 722 
L 3463 178 
Q 3153 47 2828 -22 
Q 2503 -91 2169 -91 
Q 1331 -91 842 396 
Q 353 884 353 1716 
Q 353 2575 817 3079 
Q 1281 3584 2069 3584 
Q 2775 3584 3186 3129 
Q 3597 2675 3597 1894 
z
M 3022 2063 
Q 3016 2534 2758 2815 
Q 2500 3097 2075 3097 
Q 1594 3097 1305 2825 
Q 1016 2553 972 2059 
L 3022 2063 
z
" transform="scale(0.015625)"/>
       <path id="DejaVuSans-20" transform="scale(0.015625)"/>
       <path id="DejaVuSans-28" d="M 1984 4856 
Q 1566 4138 1362 3434 
Q 1159 2731 1159 2009 
Q 1159 1288 1364 580 
Q 1569 -128 1984 -844 
L 1484 -844 
Q 1016 -109 783 600 
Q 550 1309 550 2009 
Q 550 2706 781 3412 
Q 1013 4119 1484 4856 
L 1984 4856 
z
" transform="scale(0.015625)"/>
       <path id="DejaVuSans-4d" d="M 628 4666 
L 1569 4666 
L 2759 1491 
L 3956 4666 
L 4897 4666 
L 4897 0 
L 4281 0 
L 4281 4097 
L 3078 897 
L 2444 897 
L 1241 4097 
L 1241 0 
L 628 0 
L 628 4666 
z
" transform="scale(0.015625)"/>
       <path id="DejaVuSans-6e" d="M 3513 2113 
L 3513 0 
L 2938 0 
L 2938 2094 
Q 2938 2591 2744 2837 
Q 2550 3084 2163 3084 
Q 1697 3084 1428 2787 
Q 1159 2491 1159 1978 
L 1159 0 
L 581 0 
L 581 3500 
L 1159 3500 
L 1159 2956 
Q 1366 3272 1645 3428 
Q 1925 3584 2291 3584 
Q 2894 3584 3203 3211 
Q 3513 2838 3513 2113 
z
" transform="scale(0.015625)"/>
       <path id="DejaVuSans-75" d="M 544 1381 
L 544 3500 
L 1119 3500 
L 1119 1403 
Q 1119 906 1312 657 
Q 1506 409 1894 409 
Q 2359 409 2629 706 
Q 2900 1003 2900 1516 
L 2900 3500 
L 3475 3500 
L 3475 0 
L 2900 0 
L 2900 538 
Q 2691 219 2414 64 
Q 2138 -91 1772 -91 
Q 1169 -91 856 284 
Q 544 659 544 1381 
z
M 1991 3584 
L 1991 3584 
z
" transform="scale(0.015625)"/>
       <path id="DejaVuSans-74" d="M 1172 4494 
L 1172 3500 
L 2356 3500 
L 2356 3053 
L 1172 3053 
L 1172 1153 
Q 1172 725 1289 603 
Q 1406 481 1766 481 
L 2356 481 
L 2356 0 
L 1766 0 
Q 1100 0 847 248 
Q 594 497 594 1153 
L 594 3053 
L 172 3053 
L 172 3500 
L 594 3500 
L 594 4494 
L 1172 4494 
z
" transform="scale(0.015625)"/>
       <path id="DejaVuSans-73" d="M 2834 3397 
L 2834 2853 
Q 2591 2978 2328 3040 
Q 2066 3103 1784 3103 
Q 1356 3103 1142 2972 
Q 928 2841 928 2578 
Q 928 2378 1081 2264 
Q 1234 2150 1697 2047 
L 1894 2003 
Q 2506 1872 2764 1633 
Q 3022 1394 3022 966 
Q 3022 478 2636 193 
Q 2250 -91 1575 -91 
Q 1294 -91 989 -36 
Q 684 19 347 128 
L 347 722 
Q 666 556 975 473 
Q 1284 391 1588 391 
Q 1994 391 2212 530 
Q 2431 669 2431 922 
Q 2431 1156 2273 1281 
Q 2116 1406 1581 1522 
L 1381 1569 
Q 847 1681 609 1914 
Q 372 2147 372 2553 
Q 372 3047 722 3315 
Q 1072 3584 1716 3584 
Q 2034 3584 2315 3537 
Q 2597 3491 2834 3397 
z
" transform="scale(0.015625)"/>
       <path id="DejaVuSans-29" d="M 513 4856 
L 1013 4856 
Q 1481 4119 1714 3412 
Q 1947 2706 1947 2009 
Q 1947 1309 1714 600 
Q 1481 -109 1013 -844 
L 513 -844 
Q 928 -128 1133 580 
Q 1338 1288 1338 2009 
Q 1338 2731 1133 3434 
Q 928 4138 513 4856 
z
" transform="scale(0.015625)"/>
      </defs>
      <use xlink:href="#DejaVuSans-54"/>
      <use xlink:href="#DejaVuSans-69" x="57.958984"/>
      <use xlink:href="#DejaVuSans-6d" x="85.742188"/>
      <use xlink:href="#DejaVuSans-65" x="183.154297"/>
      <use xlink:href="#DejaVuSans-20" x="244.677734"/>
      <use xlink:href="#DejaVuSans-28" x="276.464844"/>
      <use xlink:href="#DejaVuSans-4d" x="315.478516"/>
      <use xlink:href="#DejaVuSans-69" x="401.757812"/>
      <use xlink:href="#DejaVuSans-6e" x="429.541016"/>
      <use xlink:href="#DejaVuSans-75" x="492.919922"/>
      <use xlink:href="#DejaVuSans-74" x="556.298828"/>
      <use xlink:href="#DejaVuSans-65" x="595.507812"/>
      <use xlink:href="#DejaVuSans-73" x="657.03125"/>
      <use xlink:href="#DejaVuSans-29" x="709.130859"/>
     </g>
    </g>
   </g>
   <g id="matplotlib.axis_2">
    <g id="ytick_1">
     <g id="line2d_20">
      <path d="M 54.3375 492.48 
L 391.23 492.48 
" clip-path="url(#p83651e4c24)" style="fill: none; stroke: #cccccc; stroke-width: 0.8; stroke-linecap: round"/>
     </g>
     <g id="text_21">
      <!-- 0 -->
      <g style="fill: #262626" transform="translate(40.4385 495.823313)scale(0.088 -0.088)">
       <use xlink:href="#DejaVuSans-30"/>
      </g>
     </g>
    </g>
    <g id="ytick_2">
     <g id="line2d_21">
      <path d="M 54.3375 477.282111 
L 391.23 477.282111 
" clip-path="url(#p83651e4c24)" style="fill: none; stroke: #cccccc; stroke-width: 0.8; stroke-linecap: round"/>
     </g>
     <g id="text_22">
      <!-- 100 -->
      <g style="fill: #262626" transform="translate(29.2405 480.625423)scale(0.088 -0.088)">
       <use xlink:href="#DejaVuSans-31"/>
       <use xlink:href="#DejaVuSans-30" x="63.623047"/>
       <use xlink:href="#DejaVuSans-30" x="127.246094"/>
      </g>
     </g>
    </g>
    <g id="ytick_3">
     <g id="line2d_22">
      <path d="M 54.3375 462.084222 
L 391.23 462.084222 
" clip-path="url(#p83651e4c24)" style="fill: none; stroke: #cccccc; stroke-width: 0.8; stroke-linecap: round"/>
     </g>
     <g id="text_23">
      <!-- 200 -->
      <g style="fill: #262626" transform="translate(29.2405 465.427534)scale(0.088 -0.088)">
       <use xlink:href="#DejaVuSans-32"/>
       <use xlink:href="#DejaVuSans-30" x="63.623047"/>
       <use xlink:href="#DejaVuSans-30" x="127.246094"/>
      </g>
     </g>
    </g>
    <g id="ytick_4">
     <g id="line2d_23">
      <path d="M 54.3375 446.886332 
L 391.23 446.886332 
" clip-path="url(#p83651e4c24)" style="fill: none; stroke: #cccccc; stroke-width: 0.8; stroke-linecap: round"/>
     </g>
     <g id="text_24">
      <!-- 300 -->
      <g style="fill: #262626" transform="translate(29.2405 450.229645)scale(0.088 -0.088)">
       <use xlink:href="#DejaVuSans-33"/>
       <use xlink:href="#DejaVuSans-30" x="63.623047"/>
       <use xlink:href="#DejaVuSans-30" x="127.246094"/>
      </g>
     </g>
    </g>
    <g id="ytick_5">
     <g id="line2d_24">
      <path d="M 54.3375 431.688443 
L 391.23 431.688443 
" clip-path="url(#p83651e4c24)" style="fill: none; stroke: #cccccc; stroke-width: 0.8; stroke-linecap: round"/>
     </g>
     <g id="text_25">
      <!-- 400 -->
      <g style="fill: #262626" transform="translate(29.2405 435.031756)scale(0.088 -0.088)">
       <use xlink:href="#DejaVuSans-34"/>
       <use xlink:href="#DejaVuSans-30" x="63.623047"/>
       <use xlink:href="#DejaVuSans-30" x="127.246094"/>
      </g>
     </g>
    </g>
    <g id="ytick_6">
     <g id="line2d_25">
      <path d="M 54.3375 416.490554 
L 391.23 416.490554 
" clip-path="url(#p83651e4c24)" style="fill: none; stroke: #cccccc; stroke-width: 0.8; stroke-linecap: round"/>
     </g>
     <g id="text_26">
      <!-- 500 -->
      <g style="fill: #262626" transform="translate(29.2405 419.833867)scale(0.088 -0.088)">
       <use xlink:href="#DejaVuSans-35"/>
       <use xlink:href="#DejaVuSans-30" x="63.623047"/>
       <use xlink:href="#DejaVuSans-30" x="127.246094"/>
      </g>
     </g>
    </g>
    <g id="ytick_7">
     <g id="line2d_26">
      <path d="M 54.3375 401.292665 
L 391.23 401.292665 
" clip-path="url(#p83651e4c24)" style="fill: none; stroke: #cccccc; stroke-width: 0.8; stroke-linecap: round"/>
     </g>
     <g id="text_27">
      <!-- 600 -->
      <g style="fill: #262626" transform="translate(29.2405 404.635977)scale(0.088 -0.088)">
       <use xlink:href="#DejaVuSans-36"/>
       <use xlink:href="#DejaVuSans-30" x="63.623047"/>
       <use xlink:href="#DejaVuSans-30" x="127.246094"/>
      </g>
     </g>
    </g>
    <g id="ytick_8">
     <g id="line2d_27">
      <path d="M 54.3375 386.094776 
L 391.23 386.094776 
" clip-path="url(#p83651e4c24)" style="fill: none; stroke: #cccccc; stroke-width: 0.8; stroke-linecap: round"/>
     </g>
     <g id="text_28">
      <!-- 700 -->
      <g style="fill: #262626" transform="translate(29.2405 389.438088)scale(0.088 -0.088)">
       <use xlink:href="#DejaVuSans-37"/>
       <use xlink:href="#DejaVuSans-30" x="63.623047"/>
       <use xlink:href="#DejaVuSans-30" x="127.246094"/>
      </g>
     </g>
    </g>
    <g id="ytick_9">
     <g id="line2d_28">
      <path d="M 54.3375 370.896887 
L 391.23 370.896887 
" clip-path="url(#p83651e4c24)" style="fill: none; stroke: #cccccc; stroke-width: 0.8; stroke-linecap: round"/>
     </g>
     <g id="text_29">
      <!-- 800 -->
      <g style="fill: #262626" transform="translate(29.2405 374.240199)scale(0.088 -0.088)">
       <use xlink:href="#DejaVuSans-38"/>
       <use xlink:href="#DejaVuSans-30" x="63.623047"/>
       <use xlink:href="#DejaVuSans-30" x="127.246094"/>
      </g>
     </g>
    </g>
    <g id="ytick_10">
     <g id="line2d_29">
      <path d="M 54.3375 355.698997 
L 391.23 355.698997 
" clip-path="url(#p83651e4c24)" style="fill: none; stroke: #cccccc; stroke-width: 0.8; stroke-linecap: round"/>
     </g>
     <g id="text_30">
      <!-- 900 -->
      <g style="fill: #262626" transform="translate(29.2405 359.04231)scale(0.088 -0.088)">
       <use xlink:href="#DejaVuSans-39"/>
       <use xlink:href="#DejaVuSans-30" x="63.623047"/>
       <use xlink:href="#DejaVuSans-30" x="127.246094"/>
      </g>
     </g>
    </g>
    <g id="ytick_11">
     <g id="line2d_30">
      <path d="M 54.3375 340.501108 
L 391.23 340.501108 
" clip-path="url(#p83651e4c24)" style="fill: none; stroke: #cccccc; stroke-width: 0.8; stroke-linecap: round"/>
     </g>
     <g id="text_31">
      <!-- 1000 -->
      <g style="fill: #262626" transform="translate(23.6415 343.844421)scale(0.088 -0.088)">
       <use xlink:href="#DejaVuSans-31"/>
       <use xlink:href="#DejaVuSans-30" x="63.623047"/>
       <use xlink:href="#DejaVuSans-30" x="127.246094"/>
       <use xlink:href="#DejaVuSans-30" x="190.869141"/>
      </g>
     </g>
    </g>
    <g id="ytick_12">
     <g id="line2d_31">
      <path d="M 54.3375 325.303219 
L 391.23 325.303219 
" clip-path="url(#p83651e4c24)" style="fill: none; stroke: #cccccc; stroke-width: 0.8; stroke-linecap: round"/>
     </g>
     <g id="text_32">
      <!-- 1100 -->
      <g style="fill: #262626" transform="translate(23.6415 328.646531)scale(0.088 -0.088)">
       <use xlink:href="#DejaVuSans-31"/>
       <use xlink:href="#DejaVuSans-31" x="63.623047"/>
       <use xlink:href="#DejaVuSans-30" x="127.246094"/>
       <use xlink:href="#DejaVuSans-30" x="190.869141"/>
      </g>
     </g>
    </g>
    <g id="ytick_13">
     <g id="line2d_32">
      <path d="M 54.3375 310.10533 
L 391.23 310.10533 
" clip-path="url(#p83651e4c24)" style="fill: none; stroke: #cccccc; stroke-width: 0.8; stroke-linecap: round"/>
     </g>
     <g id="text_33">
      <!-- 1200 -->
      <g style="fill: #262626" transform="translate(23.6415 313.448642)scale(0.088 -0.088)">
       <use xlink:href="#DejaVuSans-31"/>
       <use xlink:href="#DejaVuSans-32" x="63.623047"/>
       <use xlink:href="#DejaVuSans-30" x="127.246094"/>
       <use xlink:href="#DejaVuSans-30" x="190.869141"/>
      </g>
     </g>
    </g>
    <g id="ytick_14">
     <g id="line2d_33">
      <path d="M 54.3375 294.907441 
L 391.23 294.907441 
" clip-path="url(#p83651e4c24)" style="fill: none; stroke: #cccccc; stroke-width: 0.8; stroke-linecap: round"/>
     </g>
     <g id="text_34">
      <!-- 1300 -->
      <g style="fill: #262626" transform="translate(23.6415 298.250753)scale(0.088 -0.088)">
       <use xlink:href="#DejaVuSans-31"/>
       <use xlink:href="#DejaVuSans-33" x="63.623047"/>
       <use xlink:href="#DejaVuSans-30" x="127.246094"/>
       <use xlink:href="#DejaVuSans-30" x="190.869141"/>
      </g>
     </g>
    </g>
    <g id="ytick_15">
     <g id="line2d_34">
      <path d="M 54.3375 279.709551 
L 391.23 279.709551 
" clip-path="url(#p83651e4c24)" style="fill: none; stroke: #cccccc; stroke-width: 0.8; stroke-linecap: round"/>
     </g>
     <g id="text_35">
      <!-- 1400 -->
      <g style="fill: #262626" transform="translate(23.6415 283.052864)scale(0.088 -0.088)">
       <use xlink:href="#DejaVuSans-31"/>
       <use xlink:href="#DejaVuSans-34" x="63.623047"/>
       <use xlink:href="#DejaVuSans-30" x="127.246094"/>
       <use xlink:href="#DejaVuSans-30" x="190.869141"/>
      </g>
     </g>
    </g>
    <g id="ytick_16">
     <g id="line2d_35">
      <path d="M 54.3375 264.511662 
L 391.23 264.511662 
" clip-path="url(#p83651e4c24)" style="fill: none; stroke: #cccccc; stroke-width: 0.8; stroke-linecap: round"/>
     </g>
     <g id="text_36">
      <!-- 1500 -->
      <g style="fill: #262626" transform="translate(23.6415 267.854975)scale(0.088 -0.088)">
       <use xlink:href="#DejaVuSans-31"/>
       <use xlink:href="#DejaVuSans-35" x="63.623047"/>
       <use xlink:href="#DejaVuSans-30" x="127.246094"/>
       <use xlink:href="#DejaVuSans-30" x="190.869141"/>
      </g>
     </g>
    </g>
    <g id="ytick_17">
     <g id="line2d_36">
      <path d="M 54.3375 249.313773 
L 391.23 249.313773 
" clip-path="url(#p83651e4c24)" style="fill: none; stroke: #cccccc; stroke-width: 0.8; stroke-linecap: round"/>
     </g>
     <g id="text_37">
      <!-- 1600 -->
      <g style="fill: #262626" transform="translate(23.6415 252.657086)scale(0.088 -0.088)">
       <use xlink:href="#DejaVuSans-31"/>
       <use xlink:href="#DejaVuSans-36" x="63.623047"/>
       <use xlink:href="#DejaVuSans-30" x="127.246094"/>
       <use xlink:href="#DejaVuSans-30" x="190.869141"/>
      </g>
     </g>
    </g>
    <g id="ytick_18">
     <g id="line2d_37">
      <path d="M 54.3375 234.115884 
L 391.23 234.115884 
" clip-path="url(#p83651e4c24)" style="fill: none; stroke: #cccccc; stroke-width: 0.8; stroke-linecap: round"/>
     </g>
     <g id="text_38">
      <!-- 1700 -->
      <g style="fill: #262626" transform="translate(23.6415 237.459196)scale(0.088 -0.088)">
       <use xlink:href="#DejaVuSans-31"/>
       <use xlink:href="#DejaVuSans-37" x="63.623047"/>
       <use xlink:href="#DejaVuSans-30" x="127.246094"/>
       <use xlink:href="#DejaVuSans-30" x="190.869141"/>
      </g>
     </g>
    </g>
    <g id="ytick_19">
     <g id="line2d_38">
      <path d="M 54.3375 218.917995 
L 391.23 218.917995 
" clip-path="url(#p83651e4c24)" style="fill: none; stroke: #cccccc; stroke-width: 0.8; stroke-linecap: round"/>
     </g>
     <g id="text_39">
      <!-- 1800 -->
      <g style="fill: #262626" transform="translate(23.6415 222.261307)scale(0.088 -0.088)">
       <use xlink:href="#DejaVuSans-31"/>
       <use xlink:href="#DejaVuSans-38" x="63.623047"/>
       <use xlink:href="#DejaVuSans-30" x="127.246094"/>
       <use xlink:href="#DejaVuSans-30" x="190.869141"/>
      </g>
     </g>
    </g>
    <g id="ytick_20">
     <g id="line2d_39">
      <path d="M 54.3375 203.720106 
L 391.23 203.720106 
" clip-path="url(#p83651e4c24)" style="fill: none; stroke: #cccccc; stroke-width: 0.8; stroke-linecap: round"/>
     </g>
     <g id="text_40">
      <!-- 1900 -->
      <g style="fill: #262626" transform="translate(23.6415 207.063418)scale(0.088 -0.088)">
       <use xlink:href="#DejaVuSans-31"/>
       <use xlink:href="#DejaVuSans-39" x="63.623047"/>
       <use xlink:href="#DejaVuSans-30" x="127.246094"/>
       <use xlink:href="#DejaVuSans-30" x="190.869141"/>
      </g>
     </g>
    </g>
    <g id="ytick_21">
     <g id="line2d_40">
      <path d="M 54.3375 188.522216 
L 391.23 188.522216 
" clip-path="url(#p83651e4c24)" style="fill: none; stroke: #cccccc; stroke-width: 0.8; stroke-linecap: round"/>
     </g>
     <g id="text_41">
      <!-- 2000 -->
      <g style="fill: #262626" transform="translate(23.6415 191.865529)scale(0.088 -0.088)">
       <use xlink:href="#DejaVuSans-32"/>
       <use xlink:href="#DejaVuSans-30" x="63.623047"/>
       <use xlink:href="#DejaVuSans-30" x="127.246094"/>
       <use xlink:href="#DejaVuSans-30" x="190.869141"/>
      </g>
     </g>
    </g>
    <g id="ytick_22">
     <g id="line2d_41">
      <path d="M 54.3375 173.324327 
L 391.23 173.324327 
" clip-path="url(#p83651e4c24)" style="fill: none; stroke: #cccccc; stroke-width: 0.8; stroke-linecap: round"/>
     </g>
     <g id="text_42">
      <!-- 2100 -->
      <g style="fill: #262626" transform="translate(23.6415 176.66764)scale(0.088 -0.088)">
       <use xlink:href="#DejaVuSans-32"/>
       <use xlink:href="#DejaVuSans-31" x="63.623047"/>
       <use xlink:href="#DejaVuSans-30" x="127.246094"/>
       <use xlink:href="#DejaVuSans-30" x="190.869141"/>
      </g>
     </g>
    </g>
    <g id="ytick_23">
     <g id="line2d_42">
      <path d="M 54.3375 158.126438 
L 391.23 158.126438 
" clip-path="url(#p83651e4c24)" style="fill: none; stroke: #cccccc; stroke-width: 0.8; stroke-linecap: round"/>
     </g>
     <g id="text_43">
      <!-- 2200 -->
      <g style="fill: #262626" transform="translate(23.6415 161.46975)scale(0.088 -0.088)">
       <use xlink:href="#DejaVuSans-32"/>
       <use xlink:href="#DejaVuSans-32" x="63.623047"/>
       <use xlink:href="#DejaVuSans-30" x="127.246094"/>
       <use xlink:href="#DejaVuSans-30" x="190.869141"/>
      </g>
     </g>
    </g>
    <g id="ytick_24">
     <g id="line2d_43">
      <path d="M 54.3375 142.928549 
L 391.23 142.928549 
" clip-path="url(#p83651e4c24)" style="fill: none; stroke: #cccccc; stroke-width: 0.8; stroke-linecap: round"/>
     </g>
     <g id="text_44">
      <!-- 2300 -->
      <g style="fill: #262626" transform="translate(23.6415 146.271861)scale(0.088 -0.088)">
       <use xlink:href="#DejaVuSans-32"/>
       <use xlink:href="#DejaVuSans-33" x="63.623047"/>
       <use xlink:href="#DejaVuSans-30" x="127.246094"/>
       <use xlink:href="#DejaVuSans-30" x="190.869141"/>
      </g>
     </g>
    </g>
    <g id="ytick_25">
     <g id="line2d_44">
      <path d="M 54.3375 127.73066 
L 391.23 127.73066 
" clip-path="url(#p83651e4c24)" style="fill: none; stroke: #cccccc; stroke-width: 0.8; stroke-linecap: round"/>
     </g>
     <g id="text_45">
      <!-- 2400 -->
      <g style="fill: #262626" transform="translate(23.6415 131.073972)scale(0.088 -0.088)">
       <use xlink:href="#DejaVuSans-32"/>
       <use xlink:href="#DejaVuSans-34" x="63.623047"/>
       <use xlink:href="#DejaVuSans-30" x="127.246094"/>
       <use xlink:href="#DejaVuSans-30" x="190.869141"/>
      </g>
     </g>
    </g>
    <g id="ytick_26">
     <g id="line2d_45">
      <path d="M 54.3375 112.53277 
L 391.23 112.53277 
" clip-path="url(#p83651e4c24)" style="fill: none; stroke: #cccccc; stroke-width: 0.8; stroke-linecap: round"/>
     </g>
     <g id="text_46">
      <!-- 2500 -->
      <g style="fill: #262626" transform="translate(23.6415 115.876083)scale(0.088 -0.088)">
       <use xlink:href="#DejaVuSans-32"/>
       <use xlink:href="#DejaVuSans-35" x="63.623047"/>
       <use xlink:href="#DejaVuSans-30" x="127.246094"/>
       <use xlink:href="#DejaVuSans-30" x="190.869141"/>
      </g>
     </g>
    </g>
    <g id="ytick_27">
     <g id="line2d_46">
      <path d="M 54.3375 97.334881 
L 391.23 97.334881 
" clip-path="url(#p83651e4c24)" style="fill: none; stroke: #cccccc; stroke-width: 0.8; stroke-linecap: round"/>
     </g>
     <g id="text_47">
      <!-- 2600 -->
      <g style="fill: #262626" transform="translate(23.6415 100.678194)scale(0.088 -0.088)">
       <use xlink:href="#DejaVuSans-32"/>
       <use xlink:href="#DejaVuSans-36" x="63.623047"/>
       <use xlink:href="#DejaVuSans-30" x="127.246094"/>
       <use xlink:href="#DejaVuSans-30" x="190.869141"/>
      </g>
     </g>
    </g>
    <g id="text_48">
     <!-- Edge Coverages -->
     <g style="fill: #262626" transform="translate(17.645 329.98575)rotate(-90)scale(0.096 -0.096)">
      <defs>
       <path id="DejaVuSans-45" d="M 628 4666 
L 3578 4666 
L 3578 4134 
L 1259 4134 
L 1259 2753 
L 3481 2753 
L 3481 2222 
L 1259 2222 
L 1259 531 
L 3634 531 
L 3634 0 
L 628 0 
L 628 4666 
z
" transform="scale(0.015625)"/>
       <path id="DejaVuSans-64" d="M 2906 2969 
L 2906 4863 
L 3481 4863 
L 3481 0 
L 2906 0 
L 2906 525 
Q 2725 213 2448 61 
Q 2172 -91 1784 -91 
Q 1150 -91 751 415 
Q 353 922 353 1747 
Q 353 2572 751 3078 
Q 1150 3584 1784 3584 
Q 2172 3584 2448 3432 
Q 2725 3281 2906 2969 
z
M 947 1747 
Q 947 1113 1208 752 
Q 1469 391 1925 391 
Q 2381 391 2643 752 
Q 2906 1113 2906 1747 
Q 2906 2381 2643 2742 
Q 2381 3103 1925 3103 
Q 1469 3103 1208 2742 
Q 947 2381 947 1747 
z
" transform="scale(0.015625)"/>
       <path id="DejaVuSans-67" d="M 2906 1791 
Q 2906 2416 2648 2759 
Q 2391 3103 1925 3103 
Q 1463 3103 1205 2759 
Q 947 2416 947 1791 
Q 947 1169 1205 825 
Q 1463 481 1925 481 
Q 2391 481 2648 825 
Q 2906 1169 2906 1791 
z
M 3481 434 
Q 3481 -459 3084 -895 
Q 2688 -1331 1869 -1331 
Q 1566 -1331 1297 -1286 
Q 1028 -1241 775 -1147 
L 775 -588 
Q 1028 -725 1275 -790 
Q 1522 -856 1778 -856 
Q 2344 -856 2625 -561 
Q 2906 -266 2906 331 
L 2906 616 
Q 2728 306 2450 153 
Q 2172 0 1784 0 
Q 1141 0 747 490 
Q 353 981 353 1791 
Q 353 2603 747 3093 
Q 1141 3584 1784 3584 
Q 2172 3584 2450 3431 
Q 2728 3278 2906 2969 
L 2906 3500 
L 3481 3500 
L 3481 434 
z
" transform="scale(0.015625)"/>
       <path id="DejaVuSans-43" d="M 4122 4306 
L 4122 3641 
Q 3803 3938 3442 4084 
Q 3081 4231 2675 4231 
Q 1875 4231 1450 3742 
Q 1025 3253 1025 2328 
Q 1025 1406 1450 917 
Q 1875 428 2675 428 
Q 3081 428 3442 575 
Q 3803 722 4122 1019 
L 4122 359 
Q 3791 134 3420 21 
Q 3050 -91 2638 -91 
Q 1578 -91 968 557 
Q 359 1206 359 2328 
Q 359 3453 968 4101 
Q 1578 4750 2638 4750 
Q 3056 4750 3426 4639 
Q 3797 4528 4122 4306 
z
" transform="scale(0.015625)"/>
       <path id="DejaVuSans-6f" d="M 1959 3097 
Q 1497 3097 1228 2736 
Q 959 2375 959 1747 
Q 959 1119 1226 758 
Q 1494 397 1959 397 
Q 2419 397 2687 759 
Q 2956 1122 2956 1747 
Q 2956 2369 2687 2733 
Q 2419 3097 1959 3097 
z
M 1959 3584 
Q 2709 3584 3137 3096 
Q 3566 2609 3566 1747 
Q 3566 888 3137 398 
Q 2709 -91 1959 -91 
Q 1206 -91 779 398 
Q 353 888 353 1747 
Q 353 2609 779 3096 
Q 1206 3584 1959 3584 
z
" transform="scale(0.015625)"/>
       <path id="DejaVuSans-76" d="M 191 3500 
L 800 3500 
L 1894 563 
L 2988 3500 
L 3597 3500 
L 2284 0 
L 1503 0 
L 191 3500 
z
" transform="scale(0.015625)"/>
       <path id="DejaVuSans-72" d="M 2631 2963 
Q 2534 3019 2420 3045 
Q 2306 3072 2169 3072 
Q 1681 3072 1420 2755 
Q 1159 2438 1159 1844 
L 1159 0 
L 581 0 
L 581 3500 
L 1159 3500 
L 1159 2956 
Q 1341 3275 1631 3429 
Q 1922 3584 2338 3584 
Q 2397 3584 2469 3576 
Q 2541 3569 2628 3553 
L 2631 2963 
z
" transform="scale(0.015625)"/>
       <path id="DejaVuSans-61" d="M 2194 1759 
Q 1497 1759 1228 1600 
Q 959 1441 959 1056 
Q 959 750 1161 570 
Q 1363 391 1709 391 
Q 2188 391 2477 730 
Q 2766 1069 2766 1631 
L 2766 1759 
L 2194 1759 
z
M 3341 1997 
L 3341 0 
L 2766 0 
L 2766 531 
Q 2569 213 2275 61 
Q 1981 -91 1556 -91 
Q 1019 -91 701 211 
Q 384 513 384 1019 
Q 384 1609 779 1909 
Q 1175 2209 1959 2209 
L 2766 2209 
L 2766 2266 
Q 2766 2663 2505 2880 
Q 2244 3097 1772 3097 
Q 1472 3097 1187 3025 
Q 903 2953 641 2809 
L 641 3341 
Q 956 3463 1253 3523 
Q 1550 3584 1831 3584 
Q 2591 3584 2966 3190 
Q 3341 2797 3341 1997 
z
" transform="scale(0.015625)"/>
      </defs>
      <use xlink:href="#DejaVuSans-45"/>
      <use xlink:href="#DejaVuSans-64" x="63.183594"/>
      <use xlink:href="#DejaVuSans-67" x="126.660156"/>
      <use xlink:href="#DejaVuSans-65" x="190.136719"/>
      <use xlink:href="#DejaVuSans-20" x="251.660156"/>
      <use xlink:href="#DejaVuSans-43" x="283.447266"/>
      <use xlink:href="#DejaVuSans-6f" x="353.271484"/>
      <use xlink:href="#DejaVuSans-76" x="414.453125"/>
      <use xlink:href="#DejaVuSans-65" x="473.632812"/>
      <use xlink:href="#DejaVuSans-72" x="535.15625"/>
      <use xlink:href="#DejaVuSans-61" x="576.269531"/>
      <use xlink:href="#DejaVuSans-67" x="637.548828"/>
      <use xlink:href="#DejaVuSans-65" x="701.025391"/>
      <use xlink:href="#DejaVuSans-73" x="762.548828"/>
     </g>
    </g>
   </g>
   <g id="PolyCollection_1">
    <defs>
     <path id="mf055c838b5" d="M 69.650795 -86.407599 
L 69.650795 -83.52 
L 69.650795 -86.407599 
L 69.650795 -86.407599 
z
" style="stroke: #db5f57; stroke-opacity: 0.2; stroke-width: 0.8"/>
    </defs>
    <g clip-path="url(#p83651e4c24)">
     <use xlink:href="#mf055c838b5" x="0" y="576" style="fill: #db5f57; fill-opacity: 0.2; stroke: #db5f57; stroke-opacity: 0.2; stroke-width: 0.8"/>
    </g>
   </g>
   <g id="PolyCollection_2">
    <defs>
     <path id="mbfdf8102ec" d="M 69.650795 -85.191768 
L 69.650795 -83.52 
L 69.650795 -85.191768 
L 69.650795 -85.191768 
z
" style="stroke: #b9db57; stroke-opacity: 0.2; stroke-width: 0.8"/>
    </defs>
    <g clip-path="url(#p83651e4c24)">
     <use xlink:href="#mbfdf8102ec" x="0" y="576" style="fill: #b9db57; fill-opacity: 0.2; stroke: #b9db57; stroke-opacity: 0.2; stroke-width: 0.8"/>
    </g>
   </g>
   <g id="PolyCollection_3">
    <defs>
     <path id="m6a03b9df47" d="M 69.650795 -86.407599 
L 69.650795 -83.52 
L 69.650795 -86.407599 
L 69.650795 -86.407599 
z
" style="stroke: #57db94; stroke-opacity: 0.2; stroke-width: 0.8"/>
    </defs>
    <g clip-path="url(#p83651e4c24)">
     <use xlink:href="#m6a03b9df47" x="0" y="576" style="fill: #57db94; fill-opacity: 0.2; stroke: #57db94; stroke-opacity: 0.2; stroke-width: 0.8"/>
    </g>
   </g>
   <g id="PolyCollection_4">
    <defs>
     <path id="mbedccedba4" d="M 69.650795 -84.88781 
L 69.650795 -83.52 
L 69.650795 -84.88781 
L 69.650795 -84.88781 
z
" style="stroke: #5784db; stroke-opacity: 0.2; stroke-width: 0.8"/>
    </defs>
    <g clip-path="url(#p83651e4c24)">
     <use xlink:href="#mbedccedba4" x="0" y="576" style="fill: #5784db; fill-opacity: 0.2; stroke: #5784db; stroke-opacity: 0.2; stroke-width: 0.8"/>
    </g>
   </g>
   <g id="PolyCollection_5">
    <defs>
     <path id="m35f6ab5ff9" d="M 69.650795 -86.407599 
L 69.650795 -83.52 
L 69.650795 -86.407599 
L 69.650795 -86.407599 
z
" style="stroke: #c957db; stroke-opacity: 0.2; stroke-width: 0.8"/>
    </defs>
    <g clip-path="url(#p83651e4c24)">
     <use xlink:href="#m35f6ab5ff9" x="0" y="576" style="fill: #c957db; fill-opacity: 0.2; stroke: #c957db; stroke-opacity: 0.2; stroke-width: 0.8"/>
    </g>
   </g>
   <g id="line2d_47">
    <path d="M 69.650795 491.036201 
L 69.863628 489.592401 
L 71.140623 489.592401 
L 71.991953 486.400844 
L 72.204785 486.400844 
L 72.417617 486.096887 
L 72.63045 486.096887 
L 72.843282 481.53752 
L 73.056115 466.795567 
L 73.268947 461.780264 
L 73.48178 448.710079 
L 73.907445 439.743325 
L 74.120277 437.311662 
L 74.33311 433.360211 
L 74.545942 432.600317 
L 75.184439 427.281055 
L 75.610104 420.290026 
L 76.674267 381.991346 
L 76.887099 370.896887 
L 77.099932 366.793456 
L 77.312764 357.066807 
L 77.525596 339.589235 
L 77.951261 327.582902 
L 78.164094 321.807704 
L 78.589759 294.755462 
L 78.802591 287.004538 
L 79.015424 283.357045 
L 79.228256 269.223008 
L 79.441089 268.007177 
L 79.653921 265.119578 
L 79.866754 263.751768 
L 80.079586 257.216675 
L 80.292418 256.152823 
L 80.718083 251.593456 
L 80.930916 247.945963 
L 81.143748 246.578153 
L 81.356581 242.018786 
L 81.569413 240.650976 
L 82.207911 239.131187 
L 82.633575 237.45942 
L 82.846408 237.155462 
L 83.05924 227.73277 
L 83.697738 223.173404 
L 83.91057 222.869446 
L 84.123403 222.26153 
L 84.336235 214.358628 
L 84.549068 212.68686 
L 84.7619 212.534881 
L 85.400397 211.623008 
L 85.61323 201.288443 
L 85.826062 200.832507 
L 86.038895 197.64095 
L 86.251727 197.64095 
L 86.677392 191.409815 
L 86.890225 183.354934 
L 87.103057 183.354934 
L 87.31589 178.339631 
L 87.741555 176.667863 
L 87.954387 176.667863 
L 88.167219 176.211926 
L 88.380052 176.211926 
L 88.805717 175.148074 
L 89.018549 175.148074 
L 89.444214 174.388179 
L 89.869879 171.348602 
L 90.082712 170.13277 
L 90.295544 169.980792 
L 90.508376 169.980792 
L 90.721209 169.372876 
L 90.934041 169.372876 
L 91.359706 168.76496 
L 91.785371 168.76496 
L 91.998204 168.461003 
L 92.211036 168.461003 
L 93.275198 164.813509 
L 93.913696 163.901636 
L 94.126528 163.29372 
L 94.339361 163.29372 
L 94.552193 163.141741 
L 95.190691 163.141741 
L 95.403523 162.989763 
L 95.616356 162.685805 
L 95.829188 162.685805 
L 96.04202 162.229868 
L 96.680518 162.229868 
L 96.89335 162.077889 
L 97.106183 162.077889 
L 97.319015 161.621953 
L 97.531848 161.621953 
L 97.74468 161.317995 
L 98.170345 161.317995 
L 98.383177 161.014037 
L 98.59601 160.406121 
L 99.021675 160.102164 
L 99.234507 159.798206 
L 99.44734 159.798206 
L 99.660172 159.494248 
L 99.873005 159.494248 
L 100.085837 158.278417 
L 100.29867 158.278417 
L 100.511502 157.82248 
L 101.149999 157.82248 
L 101.575664 157.518522 
L 102.001329 157.518522 
L 102.214162 157.366544 
L 102.426994 156.910607 
L 102.852659 156.910607 
L 103.065492 156.758628 
L 103.278324 156.758628 
L 103.491157 156.606649 
L 103.703989 156.606649 
L 103.916821 155.846755 
L 104.129654 155.846755 
L 104.342486 155.390818 
L 107.109308 155.390818 
L 107.322141 154.934881 
L 107.534973 154.782902 
L 107.747806 154.782902 
L 107.960638 154.478945 
L 108.386303 154.478945 
L 108.599136 152.047282 
L 108.811968 152.047282 
L 109.237633 150.679472 
L 109.450465 150.679472 
L 109.663298 150.527493 
L 109.87613 149.61562 
L 110.088963 149.61562 
L 110.514628 149.311662 
L 110.72746 148.703747 
L 110.940293 148.551768 
L 111.153125 148.551768 
L 111.365957 148.24781 
L 112.217287 148.24781 
L 112.642952 147.335937 
L 112.855785 147.335937 
L 113.068617 147.183958 
L 113.707115 147.183958 
L 113.919947 146.424063 
L 115.196942 146.424063 
L 115.409774 146.272084 
L 119.879256 146.272084 
L 120.092088 146.120106 
L 120.943418 146.120106 
L 121.156251 145.968127 
L 121.794748 145.968127 
L 122.220413 145.664169 
L 123.497408 145.664169 
L 123.71024 145.51219 
L 127.541224 145.51219 
L 127.754057 145.208232 
L 128.392554 145.208232 
L 128.605387 145.056253 
L 132.223539 145.056253 
L 132.436371 144.904274 
L 132.862036 144.904274 
L 133.287701 143.992401 
L 133.500533 143.232507 
L 133.713366 143.232507 
L 133.926198 142.928549 
L 134.139031 142.928549 
L 134.351863 142.77657 
L 137.970015 142.77657 
L 138.39568 142.320633 
L 142.439497 142.320633 
L 142.652329 141.864697 
L 142.865161 141.864697 
L 143.077994 141.712718 
L 144.993486 141.712718 
L 145.206319 141.560739 
L 145.419151 141.560739 
L 145.631983 140.952823 
L 149.037303 140.952823 
L 149.250135 140.496887 
L 149.462968 140.344908 
L 151.37846 140.344908 
L 151.591292 140.192929 
L 152.22979 140.192929 
L 152.442622 140.04095 
L 159.040428 140.04095 
L 159.253261 139.888971 
L 163.50991 139.888971 
L 163.722743 139.433034 
L 167.340894 139.433034 
L 167.766559 139.129077 
L 167.979392 139.129077 
L 168.192224 138.977098 
L 169.469219 138.977098 
L 169.682051 138.825119 
L 182.026334 138.825119 
L 182.239166 138.67314 
L 183.516161 138.67314 
L 183.728994 138.521161 
L 184.367491 138.521161 
L 184.580324 138.369182 
L 186.282983 138.369182 
L 186.495816 138.217203 
L 190.3268 138.217203 
L 190.752465 137.913245 
L 196.498941 137.913245 
L 196.711774 137.761266 
L 197.988768 137.761266 
L 198.201601 137.609288 
L 199.265763 137.609288 
L 199.478596 137.30533 
L 199.691428 137.30533 
L 199.904261 137.153351 
L 200.117093 137.153351 
L 200.329926 137.001372 
L 203.522412 137.001372 
L 203.735245 136.849393 
L 206.289234 136.849393 
L 206.927732 136.393456 
L 226.082653 136.393456 
L 226.295486 136.089499 
L 235.660114 136.089499 
L 235.872946 135.93752 
L 237.362773 135.93752 
L 237.788438 135.177625 
L 240.55526 135.177625 
L 240.768093 135.025646 
L 241.40659 135.025646 
L 241.619423 134.873668 
L 244.599077 134.873668 
L 244.81191 134.721689 
L 246.514569 134.721689 
L 246.727402 134.56971 
L 261.838506 134.56971 
L 262.051339 134.417731 
L 262.477004 133.961794 
L 279.5036 133.961794 
L 279.716433 133.809815 
L 286.314239 133.809815 
L 286.527072 133.657836 
L 288.868229 133.657836 
L 289.293894 130.314301 
L 289.506726 129.858364 
L 289.932391 129.554406 
L 290.570888 129.554406 
L 290.783721 128.946491 
L 291.635051 128.946491 
L 291.847883 128.794512 
L 293.763375 128.794512 
L 293.976208 128.490554 
L 295.8917 128.490554 
L 296.104532 127.882639 
L 296.530197 125.147018 
L 296.74303 125.147018 
L 296.955862 124.083166 
L 297.168695 122.25942 
L 297.594359 121.651504 
L 298.020024 121.651504 
L 298.232857 121.043588 
L 298.871354 121.043588 
L 299.084187 120.739631 
L 299.509852 119.523799 
L 299.935517 119.067863 
L 300.148349 118.915884 
L 301.425344 118.915884 
L 301.851009 118.611926 
L 305.894825 118.611926 
L 306.32049 118.307968 
L 310.364307 118.307968 
L 310.789972 118.004011 
L 328.242234 118.004011 
L 328.455066 116.028285 
L 328.667899 116.028285 
L 328.880731 115.572348 
L 329.306396 115.268391 
L 352.505134 115.268391 
L 352.717966 115.116412 
L 355.271956 115.116412 
L 355.697621 114.812454 
L 355.910453 113.90058 
L 356.123286 113.748602 
L 356.336118 113.140686 
L 356.761783 113.140686 
L 356.974616 112.988707 
L 372.298553 112.988707 
L 372.724218 112.684749 
L 375.916705 112.684749 
L 375.916705 112.684749 
" clip-path="url(#p83651e4c24)" style="fill: none; stroke: #db5f57; stroke-width: 1.2; stroke-linecap: round"/>
   </g>
   <g id="line2d_48">
    <path d="M 69.650795 491.644116 
L 69.863628 490.808232 
L 70.07646 490.656253 
L 70.289293 490.656253 
L 70.502125 489.896359 
L 71.140623 489.896359 
L 71.353455 489.288443 
L 71.566288 487.464697 
L 71.77912 486.856781 
L 71.991953 486.704802 
L 72.204785 486.704802 
L 72.417617 486.552823 
L 72.63045 486.552823 
L 73.056115 466.643588 
L 73.268947 454.02934 
L 73.48178 449.92591 
L 73.694612 443.542797 
L 73.907445 442.782902 
L 74.120277 437.919578 
L 74.33311 435.639894 
L 75.397272 435.639894 
L 75.822937 413.147018 
L 76.035769 413.147018 
L 76.248602 412.99504 
L 76.887099 412.99504 
L 77.099932 369.985013 
L 77.525596 345.364433 
L 77.951261 323.175515 
L 78.376926 323.175515 
L 78.589759 290.955989 
L 78.802591 283.509024 
L 79.228256 283.509024 
L 79.441089 262.991873 
L 79.653921 260.864169 
L 79.866754 260.104274 
L 80.079586 256.152823 
L 80.292418 256.152823 
L 80.718083 246.730132 
L 80.930916 243.234617 
L 81.356581 241.258892 
L 81.569413 235.483694 
L 86.038895 235.483694 
L 86.46456 187.306385 
L 86.677392 187.306385 
L 86.890225 172.260475 
L 87.741555 172.260475 
L 87.954387 164.813509 
L 88.805717 164.813509 
L 89.018549 163.597678 
L 89.231382 163.597678 
L 89.657047 161.317995 
L 89.869879 159.798206 
L 90.082712 159.494248 
L 90.295544 159.494248 
L 90.508376 157.974459 
L 90.721209 157.974459 
L 90.934041 157.366544 
L 91.146874 157.366544 
L 91.785371 156.45467 
L 92.211036 156.45467 
L 92.423869 154.934881 
L 92.636701 154.630923 
L 92.849534 153.263113 
L 93.488031 152.199261 
L 93.913696 151.135409 
L 94.126528 150.98343 
L 94.339361 150.98343 
L 94.552193 150.831451 
L 95.403523 150.831451 
L 95.616356 150.527493 
L 96.254853 150.527493 
L 96.467685 150.071557 
L 96.89335 150.071557 
L 97.106183 149.919578 
L 97.319015 149.61562 
L 97.531848 149.61562 
L 97.74468 149.159683 
L 98.170345 149.159683 
L 98.383177 149.007704 
L 98.59601 149.007704 
L 98.808842 147.943852 
L 99.44734 147.943852 
L 99.660172 147.183958 
L 100.085837 145.056253 
L 101.149999 145.056253 
L 101.788497 144.600317 
L 102.001329 144.600317 
L 102.214162 144.448338 
L 102.426994 144.14438 
L 102.639827 144.14438 
L 103.065492 143.840422 
L 103.278324 143.840422 
L 103.491157 143.080528 
L 103.703989 142.928549 
L 103.916821 142.320633 
L 104.129654 142.168654 
L 105.619481 142.168654 
L 105.832314 142.016675 
L 106.896476 142.016675 
L 107.109308 141.560739 
L 107.747806 141.560739 
L 108.173471 141.104802 
L 108.386303 141.104802 
L 108.599136 138.369182 
L 109.237633 138.369182 
L 109.450465 137.001372 
L 110.940293 137.001372 
L 111.153125 134.721689 
L 111.365957 134.56971 
L 112.004455 134.56971 
L 112.217287 134.417731 
L 112.43012 133.505858 
L 113.28145 133.505858 
L 113.494282 133.2019 
L 113.707115 132.290026 
L 115.409774 132.290026 
L 115.622607 132.138047 
L 120.092088 132.138047 
L 120.304921 131.986069 
L 121.369083 131.986069 
L 121.581916 131.83409 
L 122.00758 131.83409 
L 122.220413 131.530132 
L 124.774402 131.530132 
L 124.987235 131.378153 
L 127.541224 131.378153 
L 127.754057 131.074195 
L 132.436371 131.074195 
L 132.649203 130.922216 
L 134.351863 130.922216 
L 134.564696 128.642533 
L 139.885507 128.642533 
L 140.09834 128.186596 
L 143.290826 128.186596 
L 143.503659 127.578681 
L 145.631983 127.578681 
L 145.844816 126.970765 
L 149.037303 126.970765 
L 149.250135 126.36285 
L 151.37846 126.36285 
L 151.591292 126.210871 
L 152.016957 126.210871 
L 152.22979 126.058892 
L 164.148407 126.058892 
L 164.36124 125.450976 
L 167.128062 125.450976 
L 167.340894 125.298997 
L 167.979392 125.298997 
L 168.192224 125.147018 
L 172.448873 125.147018 
L 172.661706 124.99504 
L 183.516161 124.99504 
L 183.728994 124.539103 
L 189.049805 124.539103 
L 189.262638 124.387124 
L 192.880789 124.387124 
L 193.093622 124.083166 
L 198.414433 124.083166 
L 198.627266 123.931187 
L 199.052931 123.931187 
L 199.265763 123.779208 
L 199.478596 123.779208 
L 199.691428 123.475251 
L 201.394088 123.475251 
L 201.60692 123.323272 
L 203.522412 123.323272 
L 203.735245 123.171293 
L 206.076402 123.171293 
L 206.289234 123.019314 
L 206.502067 123.019314 
L 206.714899 122.867335 
L 207.991894 122.867335 
L 208.204727 122.715356 
L 210.971549 122.715356 
L 211.184381 122.563377 
L 227.785313 122.563377 
L 227.998145 122.25942 
L 237.362773 122.25942 
L 237.575606 121.347546 
L 240.55526 121.347546 
L 240.768093 121.195567 
L 241.193758 121.195567 
L 241.40659 121.043588 
L 244.81191 121.043588 
L 245.024742 120.739631 
L 250.771218 120.739631 
L 250.984051 120.587652 
L 262.689836 120.587652 
L 262.902669 119.979736 
L 280.35493 119.979736 
L 280.567763 119.675778 
L 286.739904 119.675778 
L 286.952737 119.523799 
L 288.655396 119.523799 
L 288.868229 118.459947 
L 290.358056 118.459947 
L 290.570888 114.964433 
L 293.33771 114.964433 
L 293.550543 114.660475 
L 294.827538 114.660475 
L 295.04037 114.356517 
L 298.232857 114.356517 
L 298.445689 105.389763 
L 299.084187 105.389763 
L 299.297019 105.237784 
L 299.935517 105.237784 
L 300.148349 102.806121 
L 302.276674 102.806121 
L 302.489506 102.502164 
L 310.364307 102.502164 
L 310.57714 102.046227 
L 312.279799 102.046227 
L 312.492632 101.742269 
L 326.113909 101.742269 
L 326.326742 101.59029 
L 328.029401 101.59029 
L 328.242234 100.830396 
L 329.093563 100.830396 
L 329.306396 97.942797 
L 341.650679 97.942797 
L 341.863511 97.790818 
L 353.782129 97.790818 
L 353.994961 97.638839 
L 355.484788 97.638839 
L 355.697621 97.182902 
L 359.10294 97.182902 
L 359.315773 95.207177 
L 373.78838 95.207177 
L 374.001212 94.903219 
L 375.916705 94.903219 
L 375.916705 94.903219 
" clip-path="url(#p83651e4c24)" style="fill: none; stroke: #b9db57; stroke-width: 1.2; stroke-linecap: round"/>
   </g>
   <g id="line2d_49">
    <path d="M 69.650795 491.036201 
L 69.863628 489.592401 
L 71.140623 489.592401 
L 71.566288 487.616675 
L 71.77912 485.185013 
L 71.991953 485.033034 
L 72.204785 485.033034 
L 72.417617 484.881055 
L 72.63045 484.881055 
L 73.268947 457.980792 
L 73.694612 449.469974 
L 73.907445 438.375515 
L 74.33311 432.752296 
L 74.545942 430.016675 
L 74.758774 429.40876 
L 75.184439 425.30533 
L 75.397272 423.329604 
L 76.035769 401.90058 
L 76.248602 399.620897 
L 76.674267 371.656781 
L 76.887099 370.136992 
L 77.525596 349.467863 
L 77.738429 331.99029 
L 78.164094 328.038839 
L 78.589759 301.746491 
L 78.802591 301.290554 
L 79.015424 282.293193 
L 79.228256 276.669974 
L 79.441089 276.517995 
L 79.653921 276.214037 
L 80.079586 257.672612 
L 80.292418 256.760739 
L 80.505251 256.760739 
L 80.930916 247.490026 
L 81.356581 246.730132 
L 81.569413 246.730132 
L 81.782246 240.19504 
L 81.995078 240.043061 
L 82.420743 240.043061 
L 82.633575 237.307441 
L 82.846408 236.699525 
L 83.05924 229.860475 
L 83.272073 229.860475 
L 83.484905 224.845172 
L 83.697738 224.693193 
L 83.91057 224.237256 
L 84.123403 216.030396 
L 84.336235 212.68686 
L 84.549068 211.926966 
L 84.974733 211.926966 
L 85.187565 210.711135 
L 85.400397 197.488971 
L 85.61323 197.185013 
L 85.826062 193.081583 
L 86.251727 192.16971 
L 86.46456 178.491609 
L 86.677392 177.731715 
L 86.890225 173.476306 
L 87.103057 173.172348 
L 87.954387 169.980792 
L 88.380052 169.980792 
L 88.805717 169.068918 
L 89.018549 168.76496 
L 89.231382 168.76496 
L 89.869879 164.509551 
L 90.082712 163.141741 
L 90.295544 162.989763 
L 90.508376 162.989763 
L 90.721209 162.381847 
L 90.934041 162.381847 
L 91.146874 162.229868 
L 91.359706 161.92591 
L 91.572539 161.92591 
L 91.785371 161.773931 
L 91.998204 160.710079 
L 92.211036 160.5581 
L 92.849534 157.82248 
L 93.700863 156.45467 
L 93.913696 155.998734 
L 94.339361 155.694776 
L 95.616356 155.694776 
L 95.829188 155.08686 
L 96.04202 154.934881 
L 96.680518 154.934881 
L 96.89335 154.782902 
L 97.106183 154.782902 
L 97.74468 154.023008 
L 98.170345 154.023008 
L 98.59601 152.959156 
L 98.808842 152.959156 
L 99.021675 152.503219 
L 99.234507 152.35124 
L 99.44734 152.047282 
L 99.660172 152.047282 
L 99.873005 150.527493 
L 100.085837 149.919578 
L 100.29867 149.919578 
L 100.511502 149.767599 
L 101.149999 149.767599 
L 101.575664 149.311662 
L 101.788497 149.159683 
L 102.001329 149.159683 
L 102.214162 149.007704 
L 102.426994 148.703747 
L 102.639827 148.703747 
L 102.852659 148.399789 
L 103.065492 148.399789 
L 103.278324 148.24781 
L 103.491157 147.639894 
L 103.703989 147.487916 
L 103.916821 146.728021 
L 104.129654 146.576042 
L 106.896476 146.576042 
L 107.109308 146.120106 
L 107.534973 146.120106 
L 107.960638 145.664169 
L 108.599136 143.080528 
L 109.237633 141.864697 
L 109.450465 141.712718 
L 109.663298 141.712718 
L 109.87613 140.952823 
L 110.088963 140.800844 
L 110.940293 139.736992 
L 111.365957 139.433034 
L 112.004455 139.433034 
L 112.43012 138.369182 
L 112.642952 138.065224 
L 113.494282 138.065224 
L 113.707115 137.153351 
L 115.196942 137.153351 
L 115.409774 137.001372 
L 119.666423 137.001372 
L 119.879256 136.849393 
L 120.943418 136.849393 
L 121.156251 136.697414 
L 121.581916 136.697414 
L 122.00758 136.393456 
L 123.497408 136.393456 
L 123.71024 136.241478 
L 127.541224 136.241478 
L 127.966889 135.785541 
L 132.436371 135.785541 
L 132.862036 135.481583 
L 133.074868 135.177625 
L 133.287701 133.961794 
L 133.500533 133.809815 
L 133.713366 133.353879 
L 133.926198 133.353879 
L 134.139031 133.2019 
L 137.54435 133.2019 
L 137.757182 133.049921 
L 138.182847 132.593984 
L 142.226664 132.593984 
L 142.439497 132.442005 
L 142.652329 131.986069 
L 145.206319 131.986069 
L 145.631983 131.530132 
L 145.844816 131.378153 
L 148.82447 131.378153 
L 149.462968 130.618259 
L 151.37846 130.618259 
L 151.591292 130.46628 
L 152.016957 130.46628 
L 152.22979 130.314301 
L 159.466093 130.314301 
L 159.678926 130.162322 
L 163.084245 130.162322 
L 163.297078 129.706385 
L 167.979392 129.706385 
L 168.192224 129.402427 
L 169.469219 129.402427 
L 169.682051 129.250449 
L 182.239166 129.250449 
L 182.451999 128.946491 
L 183.516161 128.946491 
L 183.728994 128.794512 
L 186.495816 128.794512 
L 186.708648 128.642533 
L 190.3268 128.642533 
L 190.752465 128.338575 
L 196.286109 128.338575 
L 196.498941 128.186596 
L 199.265763 128.186596 
L 199.478596 127.73066 
L 200.117093 127.73066 
L 200.329926 127.578681 
L 203.735245 127.578681 
L 203.948077 127.426702 
L 206.289234 127.426702 
L 206.927732 126.970765 
L 208.630391 126.970765 
L 208.843224 126.818786 
L 226.082653 126.818786 
L 226.295486 126.514828 
L 236.085779 126.514828 
L 236.298611 126.36285 
L 236.937109 126.36285 
L 237.149941 126.210871 
L 237.575606 125.450976 
L 241.40659 125.450976 
L 241.619423 125.298997 
L 244.386245 125.298997 
L 244.599077 125.147018 
L 246.514569 125.147018 
L 246.727402 124.99504 
L 261.838506 124.99504 
L 262.051339 124.843061 
L 262.477004 124.387124 
L 269.07481 124.387124 
L 269.287642 124.235145 
L 279.5036 124.235145 
L 279.716433 123.931187 
L 286.314239 123.931187 
L 286.527072 123.779208 
L 288.229731 123.779208 
L 288.655396 122.715356 
L 288.868229 122.563377 
L 289.081061 121.955462 
L 289.293894 120.587652 
L 289.719558 119.827757 
L 289.932391 119.675778 
L 290.358056 119.675778 
L 290.570888 119.067863 
L 291.422218 119.067863 
L 291.635051 118.915884 
L 293.550543 118.915884 
L 293.763375 118.611926 
L 295.8917 118.611926 
L 296.317365 114.964433 
L 297.168695 110.709024 
L 297.594359 110.405066 
L 298.232857 110.405066 
L 298.445689 110.101108 
L 298.658522 110.101108 
L 298.871354 109.79715 
L 299.084187 109.189235 
L 299.297019 108.125383 
L 299.509852 108.125383 
L 299.722684 107.669446 
L 299.935517 107.517467 
L 301.425344 107.517467 
L 301.851009 107.213509 
L 306.533323 107.213509 
L 306.746155 106.909551 
L 309.72581 106.909551 
L 309.938642 106.757573 
L 310.364307 106.757573 
L 310.789972 106.453615 
L 328.029401 106.453615 
L 328.242234 105.541741 
L 328.455066 103.566016 
L 328.667899 103.110079 
L 329.093563 102.806121 
L 352.505134 102.806121 
L 352.717966 102.654142 
L 355.484788 102.654142 
L 355.697621 102.198206 
L 355.910453 100.830396 
L 356.123286 100.374459 
L 356.548951 100.374459 
L 356.761783 100.22248 
L 372.511385 100.22248 
L 372.724218 99.918522 
L 375.916705 99.918522 
L 375.916705 99.918522 
" clip-path="url(#p83651e4c24)" style="fill: none; stroke: #57db94; stroke-width: 1.2; stroke-linecap: round"/>
   </g>
   <g id="line2d_50">
    <path d="M 69.650795 491.796095 
L 69.863628 490.960211 
L 70.07646 490.808232 
L 70.289293 490.808232 
L 70.502125 489.74438 
L 71.353455 489.74438 
L 71.566288 487.464697 
L 71.77912 486.704802 
L 71.991953 486.552823 
L 72.204785 486.552823 
L 72.417617 486.400844 
L 72.63045 486.400844 
L 72.843282 479.865752 
L 73.48178 475.154406 
L 73.694612 445.518522 
L 74.120277 438.071557 
L 74.33311 433.968127 
L 74.545942 432.904274 
L 74.758774 432.752296 
L 75.397272 425.457309 
L 75.610104 425.30533 
L 76.461434 425.30533 
L 76.887099 373.480528 
L 77.312764 373.17657 
L 77.738429 331.230396 
L 77.951261 322.111662 
L 78.376926 320.439894 
L 78.589759 319.68 
L 79.653921 319.68 
L 79.866754 319.528021 
L 80.718083 319.528021 
L 80.930916 318.920106 
L 81.356581 318.616148 
L 81.569413 318.160211 
L 81.782246 318.160211 
L 81.995078 318.008232 
L 82.207911 241.56285 
L 82.420743 233.659947 
L 82.633575 233.355989 
L 85.187565 233.355989 
L 85.400397 233.052032 
L 85.61323 222.413509 
L 85.826062 190.345963 
L 86.46456 190.345963 
L 86.677392 171.956517 
L 88.592884 171.956517 
L 88.805717 163.29372 
L 90.721209 163.29372 
L 90.934041 156.45467 
L 92.849534 156.45467 
L 93.062366 152.047282 
L 93.913696 152.047282 
L 94.126528 150.071557 
L 104.555319 150.071557 
L 104.768151 141.40876 
L 107.960638 141.40876 
L 108.173471 141.256781 
L 108.811968 141.256781 
L 109.0248 137.30533 
L 109.663298 137.30533 
L 109.87613 137.153351 
L 110.088963 137.153351 
L 110.301795 137.001372 
L 110.72746 137.001372 
L 110.940293 134.265752 
L 112.43012 134.265752 
L 112.855785 132.593984 
L 114.771277 132.593984 
L 114.984109 131.682111 
L 118.176596 131.682111 
L 118.389429 131.530132 
L 120.092088 131.530132 
L 120.304921 131.378153 
L 125.200067 131.378153 
L 125.4129 130.770237 
L 127.754057 130.770237 
L 127.966889 130.46628 
L 132.862036 130.46628 
L 133.074868 130.010343 
L 133.287701 130.010343 
L 133.500533 128.642533 
L 135.203193 128.642533 
L 135.416025 128.034617 
L 137.757182 128.034617 
L 137.970015 127.73066 
L 139.885507 127.73066 
L 140.09834 127.578681 
L 141.588167 127.578681 
L 141.800999 127.426702 
L 145.419151 127.426702 
L 145.631983 126.210871 
L 148.82447 126.210871 
L 149.037303 126.058892 
L 150.739962 126.058892 
L 150.952795 125.450976 
L 153.293952 125.450976 
L 153.506784 125.147018 
L 160.530256 125.147018 
L 160.743088 124.99504 
L 164.36124 124.99504 
L 164.574072 124.539103 
L 168.405057 124.539103 
L 168.617889 124.235145 
L 169.469219 124.235145 
L 169.682051 124.083166 
L 182.239166 124.083166 
L 182.451999 123.931187 
L 183.941826 123.931187 
L 184.154659 123.62723 
L 187.559978 123.62723 
L 187.985643 123.323272 
L 190.3268 123.323272 
L 190.539632 123.171293 
L 192.667957 123.171293 
L 192.880789 123.019314 
L 196.711774 123.019314 
L 196.924606 122.867335 
L 200.329926 122.867335 
L 200.542758 122.25942 
L 205.225072 122.25942 
L 205.437905 122.107441 
L 208.417559 122.107441 
L 208.630391 121.499525 
L 227.359648 121.499525 
L 227.57248 121.195567 
L 236.511444 121.195567 
L 236.724276 121.043588 
L 238.001271 121.043588 
L 238.214103 120.131715 
L 242.896417 120.131715 
L 243.10925 119.827757 
L 245.663239 119.827757 
L 245.876072 119.675778 
L 246.514569 119.675778 
L 246.727402 119.523799 
L 262.051339 119.523799 
L 262.264171 119.371821 
L 263.115501 119.371821 
L 263.328334 118.915884 
L 280.780595 118.915884 
L 280.993428 118.611926 
L 286.739904 118.611926 
L 286.952737 118.459947 
L 288.868229 118.459947 
L 289.081061 116.636201 
L 290.783721 116.636201 
L 290.996553 113.748602 
L 294.18904 113.748602 
L 294.401873 113.292665 
L 296.104532 113.292665 
L 296.317365 109.645172 
L 299.935517 109.645172 
L 300.148349 101.894248 
L 303.128003 101.894248 
L 303.340836 101.59029 
L 305.894825 101.59029 
L 306.107658 101.286332 
L 310.789972 101.286332 
L 311.002804 100.830396 
L 328.667899 100.830396 
L 328.880731 97.48686 
L 329.519228 97.48686 
L 329.732061 97.182902 
L 341.650679 97.182902 
L 341.863511 97.030923 
L 352.505134 97.030923 
L 352.717966 96.878945 
L 358.038778 96.878945 
L 358.25161 94.599261 
L 372.511385 94.599261 
L 372.724218 94.295303 
L 375.916705 94.295303 
L 375.916705 94.295303 
" clip-path="url(#p83651e4c24)" style="fill: none; stroke: #5784db; stroke-width: 1.2; stroke-linecap: round"/>
   </g>
   <g id="line2d_51">
    <path d="M 69.650795 491.036201 
L 69.863628 489.592401 
L 71.140623 489.592401 
L 71.77912 485.033034 
L 71.991953 484.881055 
L 72.204785 484.881055 
L 72.417617 484.729077 
L 72.63045 484.729077 
L 73.48178 446.430396 
L 73.907445 437.007704 
L 74.33311 430.928549 
L 74.545942 428.800844 
L 74.758774 428.496887 
L 74.971607 426.825119 
L 75.397272 420.745963 
L 76.248602 392.781847 
L 77.099932 356.306913 
L 77.312764 349.923799 
L 77.738429 322.263641 
L 77.951261 318.768127 
L 78.164094 313.296887 
L 78.589759 285.788707 
L 79.015424 274.846227 
L 79.228256 259.34438 
L 79.441089 258.888443 
L 79.866754 254.329077 
L 80.079586 248.097942 
L 80.292418 247.03409 
L 80.718083 242.322744 
L 80.930916 238.219314 
L 81.143748 237.155462 
L 81.356581 232.444116 
L 81.569413 231.228285 
L 82.207911 229.708496 
L 82.633575 227.884749 
L 82.846408 227.884749 
L 83.05924 218.006121 
L 83.697738 213.294776 
L 83.91057 212.838839 
L 84.123403 204.328021 
L 84.336235 203.264169 
L 84.549068 201.592401 
L 84.7619 201.592401 
L 85.187565 200.832507 
L 85.400397 187.458364 
L 85.61323 187.154406 
L 85.826062 183.658892 
L 86.251727 182.747018 
L 86.46456 169.068918 
L 86.677392 168.157045 
L 86.890225 164.053615 
L 87.103057 163.749657 
L 87.528722 161.166016 
L 87.741555 161.014037 
L 87.954387 160.5581 
L 88.380052 160.5581 
L 88.805717 159.494248 
L 89.018549 159.342269 
L 89.231382 159.342269 
L 89.869879 155.08686 
L 90.082712 153.71905 
L 90.295544 153.567071 
L 90.508376 153.567071 
L 90.721209 152.959156 
L 90.934041 152.959156 
L 91.359706 152.047282 
L 91.572539 152.047282 
L 91.785371 151.895303 
L 91.998204 151.287388 
L 92.211036 151.135409 
L 92.849534 148.399789 
L 93.700863 147.031979 
L 93.913696 146.576042 
L 94.339361 146.272084 
L 95.403523 146.272084 
L 96.04202 145.51219 
L 96.680518 145.51219 
L 96.89335 145.360211 
L 97.106183 145.360211 
L 97.531848 144.600317 
L 98.170345 144.600317 
L 99.021675 142.928549 
L 99.234507 142.928549 
L 99.44734 142.624591 
L 99.660172 142.624591 
L 99.873005 141.104802 
L 100.085837 140.496887 
L 100.29867 140.496887 
L 100.511502 140.344908 
L 101.149999 140.344908 
L 101.575664 139.888971 
L 101.788497 139.736992 
L 102.001329 139.736992 
L 102.214162 139.585013 
L 102.426994 139.281055 
L 102.639827 139.281055 
L 102.852659 138.977098 
L 103.065492 138.977098 
L 103.278324 138.825119 
L 103.491157 138.217203 
L 103.703989 138.065224 
L 103.916821 137.30533 
L 104.129654 137.153351 
L 106.896476 137.153351 
L 107.109308 136.697414 
L 107.534973 136.697414 
L 107.960638 136.241478 
L 108.599136 133.505858 
L 109.237633 132.290026 
L 109.450465 132.138047 
L 109.663298 132.138047 
L 109.87613 131.226174 
L 110.088963 131.226174 
L 110.514628 130.46628 
L 110.940293 130.010343 
L 111.365957 129.706385 
L 112.004455 129.706385 
L 112.43012 128.642533 
L 112.642952 128.338575 
L 113.494282 128.338575 
L 113.707115 127.426702 
L 115.196942 127.426702 
L 115.409774 127.274723 
L 119.666423 127.274723 
L 119.879256 127.122744 
L 120.943418 127.122744 
L 121.156251 126.970765 
L 121.581916 126.970765 
L 122.00758 126.666807 
L 123.497408 126.666807 
L 123.71024 126.514828 
L 127.541224 126.514828 
L 127.966889 126.058892 
L 132.223539 126.058892 
L 132.436371 125.906913 
L 132.649203 125.906913 
L 132.862036 125.754934 
L 133.074868 125.298997 
L 133.287701 124.083166 
L 133.500533 123.931187 
L 133.713366 123.475251 
L 133.926198 123.475251 
L 134.139031 123.323272 
L 137.54435 123.323272 
L 137.757182 123.171293 
L 138.182847 122.715356 
L 142.226664 122.715356 
L 142.439497 122.563377 
L 142.652329 122.107441 
L 144.993486 122.107441 
L 145.419151 121.803483 
L 145.631983 121.499525 
L 148.82447 121.499525 
L 149.462968 120.739631 
L 151.37846 120.739631 
L 151.591292 120.587652 
L 152.016957 120.587652 
L 152.22979 120.435673 
L 159.040428 120.435673 
L 159.253261 120.283694 
L 163.084245 120.283694 
L 163.297078 119.827757 
L 167.128062 119.827757 
L 167.340894 119.675778 
L 167.979392 119.675778 
L 168.192224 119.523799 
L 169.469219 119.523799 
L 169.682051 119.371821 
L 182.026334 119.371821 
L 182.451999 119.067863 
L 183.516161 119.067863 
L 183.728994 118.915884 
L 186.282983 118.915884 
L 186.495816 118.763905 
L 190.3268 118.763905 
L 190.752465 118.459947 
L 196.286109 118.459947 
L 196.498941 118.307968 
L 199.052931 118.307968 
L 199.265763 118.155989 
L 199.478596 117.852032 
L 200.117093 117.852032 
L 200.329926 117.700053 
L 203.522412 117.700053 
L 203.735245 117.548074 
L 206.076402 117.548074 
L 206.289234 117.396095 
L 206.502067 117.396095 
L 206.927732 117.092137 
L 208.417559 117.092137 
L 208.630391 116.940158 
L 226.082653 116.940158 
L 226.295486 116.636201 
L 235.660114 116.636201 
L 235.872946 116.484222 
L 236.937109 116.484222 
L 237.149941 116.332243 
L 237.575606 115.572348 
L 240.55526 115.572348 
L 240.768093 115.420369 
L 241.193758 115.420369 
L 241.40659 115.268391 
L 244.386245 115.268391 
L 244.599077 115.116412 
L 246.514569 115.116412 
L 246.727402 114.964433 
L 261.838506 114.964433 
L 262.051339 114.812454 
L 262.477004 114.356517 
L 269.07481 114.356517 
L 269.287642 114.204538 
L 279.5036 114.204538 
L 279.716433 113.90058 
L 286.314239 113.90058 
L 286.527072 113.748602 
L 288.229731 113.748602 
L 288.655396 112.684749 
L 288.868229 112.53277 
L 289.293894 110.405066 
L 289.506726 109.949129 
L 289.932391 109.645172 
L 290.358056 109.645172 
L 290.570888 109.037256 
L 291.422218 109.037256 
L 291.635051 108.885277 
L 293.550543 108.885277 
L 293.763375 108.581319 
L 295.8917 108.581319 
L 296.317365 104.933826 
L 297.168695 100.678417 
L 297.381527 100.526438 
L 297.594359 100.22248 
L 298.020024 100.22248 
L 298.232857 99.614565 
L 298.658522 99.614565 
L 298.871354 99.462586 
L 299.084187 98.85467 
L 299.297019 97.790818 
L 299.509852 97.638839 
L 299.722684 97.182902 
L 299.935517 97.030923 
L 301.425344 97.030923 
L 301.851009 96.726966 
L 305.894825 96.726966 
L 306.107658 96.423008 
L 309.72581 96.423008 
L 309.938642 96.271029 
L 310.364307 96.271029 
L 310.789972 95.967071 
L 328.029401 95.967071 
L 328.242234 95.055198 
L 328.455066 93.079472 
L 328.667899 92.623536 
L 329.093563 92.319578 
L 341.650679 92.319578 
L 341.863511 92.167599 
L 352.505134 92.167599 
L 352.717966 92.01562 
L 355.271956 92.01562 
L 355.484788 91.863641 
L 355.697621 91.559683 
L 355.910453 90.191873 
L 356.123286 89.735937 
L 356.548951 89.735937 
L 356.761783 89.583958 
L 372.298553 89.583958 
L 372.724218 89.28 
L 375.916705 89.28 
L 375.916705 89.28 
" clip-path="url(#p83651e4c24)" style="fill: none; stroke: #c957db; stroke-width: 1.2; stroke-linecap: round"/>
   </g>
   <g id="line2d_52"/>
   <g id="line2d_53"/>
   <g id="line2d_54"/>
   <g id="line2d_55"/>
   <g id="line2d_56"/>
   <g id="patch_3">
    <path d="M 54.3375 512.64 
L 54.3375 69.12 
" style="fill: none; stroke: #cccccc; stroke-linejoin: miter; stroke-linecap: square"/>
   </g>
   <g id="patch_4">
    <path d="M 54.3375 512.64 
L 391.23 512.64 
" style="fill: none; stroke: #cccccc; stroke-linejoin: miter; stroke-linecap: square"/>
   </g>
   <g id="text_49">
    <!-- Edge Coverage History -->
    <g style="fill: #262626" transform="translate(115.892262 63.12)scale(0.165888 -0.165888)">
     <defs>
      <path id="DejaVuSans-Bold-45" d="M 588 4666 
L 3834 4666 
L 3834 3756 
L 1791 3756 
L 1791 2888 
L 3713 2888 
L 3713 1978 
L 1791 1978 
L 1791 909 
L 3903 909 
L 3903 0 
L 588 0 
L 588 4666 
z
" transform="scale(0.015625)"/>
      <path id="DejaVuSans-Bold-64" d="M 2919 2988 
L 2919 4863 
L 4044 4863 
L 4044 0 
L 2919 0 
L 2919 506 
Q 2688 197 2409 53 
Q 2131 -91 1766 -91 
Q 1119 -91 703 423 
Q 288 938 288 1747 
Q 288 2556 703 3070 
Q 1119 3584 1766 3584 
Q 2128 3584 2408 3439 
Q 2688 3294 2919 2988 
z
M 2181 722 
Q 2541 722 2730 984 
Q 2919 1247 2919 1747 
Q 2919 2247 2730 2509 
Q 2541 2772 2181 2772 
Q 1825 2772 1636 2509 
Q 1447 2247 1447 1747 
Q 1447 1247 1636 984 
Q 1825 722 2181 722 
z
" transform="scale(0.015625)"/>
      <path id="DejaVuSans-Bold-67" d="M 2919 594 
Q 2688 288 2409 144 
Q 2131 0 1766 0 
Q 1125 0 706 504 
Q 288 1009 288 1791 
Q 288 2575 706 3076 
Q 1125 3578 1766 3578 
Q 2131 3578 2409 3434 
Q 2688 3291 2919 2981 
L 2919 3500 
L 4044 3500 
L 4044 353 
Q 4044 -491 3511 -936 
Q 2978 -1381 1966 -1381 
Q 1638 -1381 1331 -1331 
Q 1025 -1281 716 -1178 
L 716 -306 
Q 1009 -475 1290 -558 
Q 1572 -641 1856 -641 
Q 2406 -641 2662 -400 
Q 2919 -159 2919 353 
L 2919 594 
z
M 2181 2772 
Q 1834 2772 1640 2515 
Q 1447 2259 1447 1791 
Q 1447 1309 1634 1061 
Q 1822 813 2181 813 
Q 2531 813 2725 1069 
Q 2919 1325 2919 1791 
Q 2919 2259 2725 2515 
Q 2531 2772 2181 2772 
z
" transform="scale(0.015625)"/>
      <path id="DejaVuSans-Bold-65" d="M 4031 1759 
L 4031 1441 
L 1416 1441 
Q 1456 1047 1700 850 
Q 1944 653 2381 653 
Q 2734 653 3104 758 
Q 3475 863 3866 1075 
L 3866 213 
Q 3469 63 3072 -14 
Q 2675 -91 2278 -91 
Q 1328 -91 801 392 
Q 275 875 275 1747 
Q 275 2603 792 3093 
Q 1309 3584 2216 3584 
Q 3041 3584 3536 3087 
Q 4031 2591 4031 1759 
z
M 2881 2131 
Q 2881 2450 2695 2645 
Q 2509 2841 2209 2841 
Q 1884 2841 1681 2658 
Q 1478 2475 1428 2131 
L 2881 2131 
z
" transform="scale(0.015625)"/>
      <path id="DejaVuSans-Bold-20" transform="scale(0.015625)"/>
      <path id="DejaVuSans-Bold-43" d="M 4288 256 
Q 3956 84 3597 -3 
Q 3238 -91 2847 -91 
Q 1681 -91 1000 561 
Q 319 1213 319 2328 
Q 319 3447 1000 4098 
Q 1681 4750 2847 4750 
Q 3238 4750 3597 4662 
Q 3956 4575 4288 4403 
L 4288 3438 
Q 3953 3666 3628 3772 
Q 3303 3878 2944 3878 
Q 2300 3878 1931 3465 
Q 1563 3053 1563 2328 
Q 1563 1606 1931 1193 
Q 2300 781 2944 781 
Q 3303 781 3628 887 
Q 3953 994 4288 1222 
L 4288 256 
z
" transform="scale(0.015625)"/>
      <path id="DejaVuSans-Bold-6f" d="M 2203 2784 
Q 1831 2784 1636 2517 
Q 1441 2250 1441 1747 
Q 1441 1244 1636 976 
Q 1831 709 2203 709 
Q 2569 709 2762 976 
Q 2956 1244 2956 1747 
Q 2956 2250 2762 2517 
Q 2569 2784 2203 2784 
z
M 2203 3584 
Q 3106 3584 3614 3096 
Q 4122 2609 4122 1747 
Q 4122 884 3614 396 
Q 3106 -91 2203 -91 
Q 1297 -91 786 396 
Q 275 884 275 1747 
Q 275 2609 786 3096 
Q 1297 3584 2203 3584 
z
" transform="scale(0.015625)"/>
      <path id="DejaVuSans-Bold-76" d="M 97 3500 
L 1216 3500 
L 2088 1081 
L 2956 3500 
L 4078 3500 
L 2700 0 
L 1472 0 
L 97 3500 
z
" transform="scale(0.015625)"/>
      <path id="DejaVuSans-Bold-72" d="M 3138 2547 
Q 2991 2616 2845 2648 
Q 2700 2681 2553 2681 
Q 2122 2681 1889 2404 
Q 1656 2128 1656 1613 
L 1656 0 
L 538 0 
L 538 3500 
L 1656 3500 
L 1656 2925 
Q 1872 3269 2151 3426 
Q 2431 3584 2822 3584 
Q 2878 3584 2943 3579 
Q 3009 3575 3134 3559 
L 3138 2547 
z
" transform="scale(0.015625)"/>
      <path id="DejaVuSans-Bold-61" d="M 2106 1575 
Q 1756 1575 1579 1456 
Q 1403 1338 1403 1106 
Q 1403 894 1545 773 
Q 1688 653 1941 653 
Q 2256 653 2472 879 
Q 2688 1106 2688 1447 
L 2688 1575 
L 2106 1575 
z
M 3816 1997 
L 3816 0 
L 2688 0 
L 2688 519 
Q 2463 200 2181 54 
Q 1900 -91 1497 -91 
Q 953 -91 614 226 
Q 275 544 275 1050 
Q 275 1666 698 1953 
Q 1122 2241 2028 2241 
L 2688 2241 
L 2688 2328 
Q 2688 2594 2478 2717 
Q 2269 2841 1825 2841 
Q 1466 2841 1156 2769 
Q 847 2697 581 2553 
L 581 3406 
Q 941 3494 1303 3539 
Q 1666 3584 2028 3584 
Q 2975 3584 3395 3211 
Q 3816 2838 3816 1997 
z
" transform="scale(0.015625)"/>
      <path id="DejaVuSans-Bold-48" d="M 588 4666 
L 1791 4666 
L 1791 2888 
L 3566 2888 
L 3566 4666 
L 4769 4666 
L 4769 0 
L 3566 0 
L 3566 1978 
L 1791 1978 
L 1791 0 
L 588 0 
L 588 4666 
z
" transform="scale(0.015625)"/>
      <path id="DejaVuSans-Bold-69" d="M 538 3500 
L 1656 3500 
L 1656 0 
L 538 0 
L 538 3500 
z
M 538 4863 
L 1656 4863 
L 1656 3950 
L 538 3950 
L 538 4863 
z
" transform="scale(0.015625)"/>
      <path id="DejaVuSans-Bold-73" d="M 3272 3391 
L 3272 2541 
Q 2913 2691 2578 2766 
Q 2244 2841 1947 2841 
Q 1628 2841 1473 2761 
Q 1319 2681 1319 2516 
Q 1319 2381 1436 2309 
Q 1553 2238 1856 2203 
L 2053 2175 
Q 2913 2066 3209 1816 
Q 3506 1566 3506 1031 
Q 3506 472 3093 190 
Q 2681 -91 1863 -91 
Q 1516 -91 1145 -36 
Q 775 19 384 128 
L 384 978 
Q 719 816 1070 734 
Q 1422 653 1784 653 
Q 2113 653 2278 743 
Q 2444 834 2444 1013 
Q 2444 1163 2330 1236 
Q 2216 1309 1875 1350 
L 1678 1375 
Q 931 1469 631 1722 
Q 331 1975 331 2491 
Q 331 3047 712 3315 
Q 1094 3584 1881 3584 
Q 2191 3584 2531 3537 
Q 2872 3491 3272 3391 
z
" transform="scale(0.015625)"/>
      <path id="DejaVuSans-Bold-74" d="M 1759 4494 
L 1759 3500 
L 2913 3500 
L 2913 2700 
L 1759 2700 
L 1759 1216 
Q 1759 972 1856 886 
Q 1953 800 2241 800 
L 2816 800 
L 2816 0 
L 1856 0 
Q 1194 0 917 276 
Q 641 553 641 1216 
L 641 2700 
L 84 2700 
L 84 3500 
L 641 3500 
L 641 4494 
L 1759 4494 
z
" transform="scale(0.015625)"/>
      <path id="DejaVuSans-Bold-79" d="M 78 3500 
L 1197 3500 
L 2138 1125 
L 2938 3500 
L 4056 3500 
L 2584 -331 
Q 2363 -916 2067 -1148 
Q 1772 -1381 1288 -1381 
L 641 -1381 
L 641 -647 
L 991 -647 
Q 1275 -647 1404 -556 
Q 1534 -466 1606 -231 
L 1638 -134 
L 78 3500 
z
" transform="scale(0.015625)"/>
     </defs>
     <use xlink:href="#DejaVuSans-Bold-45"/>
     <use xlink:href="#DejaVuSans-Bold-64" x="68.310547"/>
     <use xlink:href="#DejaVuSans-Bold-67" x="139.892578"/>
     <use xlink:href="#DejaVuSans-Bold-65" x="211.474609"/>
     <use xlink:href="#DejaVuSans-Bold-20" x="279.296875"/>
     <use xlink:href="#DejaVuSans-Bold-43" x="314.111328"/>
     <use xlink:href="#DejaVuSans-Bold-6f" x="387.5"/>
     <use xlink:href="#DejaVuSans-Bold-76" x="456.201172"/>
     <use xlink:href="#DejaVuSans-Bold-65" x="521.386719"/>
     <use xlink:href="#DejaVuSans-Bold-72" x="589.208984"/>
     <use xlink:href="#DejaVuSans-Bold-61" x="638.525391"/>
     <use xlink:href="#DejaVuSans-Bold-67" x="706.005859"/>
     <use xlink:href="#DejaVuSans-Bold-65" x="777.587891"/>
     <use xlink:href="#DejaVuSans-Bold-20" x="845.410156"/>
     <use xlink:href="#DejaVuSans-Bold-48" x="880.224609"/>
     <use xlink:href="#DejaVuSans-Bold-69" x="963.916016"/>
     <use xlink:href="#DejaVuSans-Bold-73" x="998.193359"/>
     <use xlink:href="#DejaVuSans-Bold-74" x="1057.714844"/>
     <use xlink:href="#DejaVuSans-Bold-6f" x="1105.517578"/>
     <use xlink:href="#DejaVuSans-Bold-72" x="1174.21875"/>
     <use xlink:href="#DejaVuSans-Bold-79" x="1223.535156"/>
    </g>
   </g>
   <g id="legend_1">
    <g id="patch_5">
     <path d="M 267.942 508.24 
L 385.07 508.24 
Q 386.83 508.24 386.83 506.48 
L 386.83 428.8405 
Q 386.83 427.0805 385.07 427.0805 
L 267.942 427.0805 
Q 266.182 427.0805 266.182 428.8405 
L 266.182 506.48 
Q 266.182 508.24 267.942 508.24 
z
" style="fill: #ffffff; opacity: 0.8; stroke: #cccccc; stroke-width: 0.8; stroke-linejoin: miter"/>
    </g>
    <g id="text_50">
     <!-- fuzzer -->
     <g style="fill: #262626" transform="translate(311.809 437.895)scale(0.096 -0.096)">
      <defs>
       <path id="DejaVuSans-66" d="M 2375 4863 
L 2375 4384 
L 1825 4384 
Q 1516 4384 1395 4259 
Q 1275 4134 1275 3809 
L 1275 3500 
L 2222 3500 
L 2222 3053 
L 1275 3053 
L 1275 0 
L 697 0 
L 697 3053 
L 147 3053 
L 147 3500 
L 697 3500 
L 697 3744 
Q 697 4328 969 4595 
Q 1241 4863 1831 4863 
L 2375 4863 
z
" transform="scale(0.015625)"/>
       <path id="DejaVuSans-7a" d="M 353 3500 
L 3084 3500 
L 3084 2975 
L 922 459 
L 3084 459 
L 3084 0 
L 275 0 
L 275 525 
L 2438 3041 
L 353 3041 
L 353 3500 
z
" transform="scale(0.015625)"/>
      </defs>
      <use xlink:href="#DejaVuSans-66"/>
      <use xlink:href="#DejaVuSans-75" x="35.205078"/>
      <use xlink:href="#DejaVuSans-7a" x="98.583984"/>
      <use xlink:href="#DejaVuSans-7a" x="151.074219"/>
      <use xlink:href="#DejaVuSans-65" x="203.564453"/>
      <use xlink:href="#DejaVuSans-72" x="265.087891"/>
     </g>
    </g>
    <g id="line2d_57">
     <path d="M 269.702 447.898125 
L 278.502 447.898125 
L 287.302 447.898125 
" style="fill: none; stroke: #db5f57; stroke-width: 1.2; stroke-linecap: round"/>
    </g>
    <g id="text_51">
     <!-- afl-0-exid21 -->
     <g style="fill: #262626" transform="translate(294.342 450.978125)scale(0.088 -0.088)">
      <defs>
       <path id="DejaVuSans-6c" d="M 603 4863 
L 1178 4863 
L 1178 0 
L 603 0 
L 603 4863 
z
" transform="scale(0.015625)"/>
       <path id="DejaVuSans-2d" d="M 313 2009 
L 1997 2009 
L 1997 1497 
L 313 1497 
L 313 2009 
z
" transform="scale(0.015625)"/>
       <path id="DejaVuSans-78" d="M 3513 3500 
L 2247 1797 
L 3578 0 
L 2900 0 
L 1881 1375 
L 863 0 
L 184 0 
L 1544 1831 
L 300 3500 
L 978 3500 
L 1906 2253 
L 2834 3500 
L 3513 3500 
z
" transform="scale(0.015625)"/>
      </defs>
      <use xlink:href="#DejaVuSans-61"/>
      <use xlink:href="#DejaVuSans-66" x="61.279297"/>
      <use xlink:href="#DejaVuSans-6c" x="96.484375"/>
      <use xlink:href="#DejaVuSans-2d" x="124.267578"/>
      <use xlink:href="#DejaVuSans-30" x="160.351562"/>
      <use xlink:href="#DejaVuSans-2d" x="223.974609"/>
      <use xlink:href="#DejaVuSans-65" x="260.058594"/>
      <use xlink:href="#DejaVuSans-78" x="319.832031"/>
      <use xlink:href="#DejaVuSans-69" x="379.011719"/>
      <use xlink:href="#DejaVuSans-64" x="406.794922"/>
      <use xlink:href="#DejaVuSans-32" x="470.271484"/>
      <use xlink:href="#DejaVuSans-31" x="533.894531"/>
     </g>
    </g>
    <g id="line2d_58">
     <path d="M 269.702 460.814875 
L 278.502 460.814875 
L 287.302 460.814875 
" style="fill: none; stroke: #b9db57; stroke-width: 1.2; stroke-linecap: round"/>
    </g>
    <g id="text_52">
     <!-- aflplusplus-0-exid21 -->
     <g style="fill: #262626" transform="translate(294.342 463.894875)scale(0.088 -0.088)">
      <defs>
       <path id="DejaVuSans-70" d="M 1159 525 
L 1159 -1331 
L 581 -1331 
L 581 3500 
L 1159 3500 
L 1159 2969 
Q 1341 3281 1617 3432 
Q 1894 3584 2278 3584 
Q 2916 3584 3314 3078 
Q 3713 2572 3713 1747 
Q 3713 922 3314 415 
Q 2916 -91 2278 -91 
Q 1894 -91 1617 61 
Q 1341 213 1159 525 
z
M 3116 1747 
Q 3116 2381 2855 2742 
Q 2594 3103 2138 3103 
Q 1681 3103 1420 2742 
Q 1159 2381 1159 1747 
Q 1159 1113 1420 752 
Q 1681 391 2138 391 
Q 2594 391 2855 752 
Q 3116 1113 3116 1747 
z
" transform="scale(0.015625)"/>
      </defs>
      <use xlink:href="#DejaVuSans-61"/>
      <use xlink:href="#DejaVuSans-66" x="61.279297"/>
      <use xlink:href="#DejaVuSans-6c" x="96.484375"/>
      <use xlink:href="#DejaVuSans-70" x="124.267578"/>
      <use xlink:href="#DejaVuSans-6c" x="187.744141"/>
      <use xlink:href="#DejaVuSans-75" x="215.527344"/>
      <use xlink:href="#DejaVuSans-73" x="278.90625"/>
      <use xlink:href="#DejaVuSans-70" x="331.005859"/>
      <use xlink:href="#DejaVuSans-6c" x="394.482422"/>
      <use xlink:href="#DejaVuSans-75" x="422.265625"/>
      <use xlink:href="#DejaVuSans-73" x="485.644531"/>
      <use xlink:href="#DejaVuSans-2d" x="537.744141"/>
      <use xlink:href="#DejaVuSans-30" x="573.828125"/>
      <use xlink:href="#DejaVuSans-2d" x="637.451172"/>
      <use xlink:href="#DejaVuSans-65" x="673.535156"/>
      <use xlink:href="#DejaVuSans-78" x="733.308594"/>
      <use xlink:href="#DejaVuSans-69" x="792.488281"/>
      <use xlink:href="#DejaVuSans-64" x="820.271484"/>
      <use xlink:href="#DejaVuSans-32" x="883.748047"/>
      <use xlink:href="#DejaVuSans-31" x="947.371094"/>
     </g>
    </g>
    <g id="line2d_59">
     <path d="M 269.702 473.731625 
L 278.502 473.731625 
L 287.302 473.731625 
" style="fill: none; stroke: #57db94; stroke-width: 1.2; stroke-linecap: round"/>
    </g>
    <g id="text_53">
     <!-- fairfuzz-0-exid21 -->
     <g style="fill: #262626" transform="translate(294.342 476.811625)scale(0.088 -0.088)">
      <use xlink:href="#DejaVuSans-66"/>
      <use xlink:href="#DejaVuSans-61" x="35.205078"/>
      <use xlink:href="#DejaVuSans-69" x="96.484375"/>
      <use xlink:href="#DejaVuSans-72" x="124.267578"/>
      <use xlink:href="#DejaVuSans-66" x="165.380859"/>
      <use xlink:href="#DejaVuSans-75" x="200.585938"/>
      <use xlink:href="#DejaVuSans-7a" x="263.964844"/>
      <use xlink:href="#DejaVuSans-7a" x="316.455078"/>
      <use xlink:href="#DejaVuSans-2d" x="368.945312"/>
      <use xlink:href="#DejaVuSans-30" x="405.029297"/>
      <use xlink:href="#DejaVuSans-2d" x="468.652344"/>
      <use xlink:href="#DejaVuSans-65" x="504.736328"/>
      <use xlink:href="#DejaVuSans-78" x="564.509766"/>
      <use xlink:href="#DejaVuSans-69" x="623.689453"/>
      <use xlink:href="#DejaVuSans-64" x="651.472656"/>
      <use xlink:href="#DejaVuSans-32" x="714.949219"/>
      <use xlink:href="#DejaVuSans-31" x="778.572266"/>
     </g>
    </g>
    <g id="line2d_60">
     <path d="M 269.702 486.648375 
L 278.502 486.648375 
L 287.302 486.648375 
" style="fill: none; stroke: #5784db; stroke-width: 1.2; stroke-linecap: round"/>
    </g>
    <g id="text_54">
     <!-- aflfast-0-exid21 -->
     <g style="fill: #262626" transform="translate(294.342 489.728375)scale(0.088 -0.088)">
      <use xlink:href="#DejaVuSans-61"/>
      <use xlink:href="#DejaVuSans-66" x="61.279297"/>
      <use xlink:href="#DejaVuSans-6c" x="96.484375"/>
      <use xlink:href="#DejaVuSans-66" x="124.267578"/>
      <use xlink:href="#DejaVuSans-61" x="159.472656"/>
      <use xlink:href="#DejaVuSans-73" x="220.751953"/>
      <use xlink:href="#DejaVuSans-74" x="272.851562"/>
      <use xlink:href="#DejaVuSans-2d" x="312.060547"/>
      <use xlink:href="#DejaVuSans-30" x="348.144531"/>
      <use xlink:href="#DejaVuSans-2d" x="411.767578"/>
      <use xlink:href="#DejaVuSans-65" x="447.851562"/>
      <use xlink:href="#DejaVuSans-78" x="507.625"/>
      <use xlink:href="#DejaVuSans-69" x="566.804688"/>
      <use xlink:href="#DejaVuSans-64" x="594.587891"/>
      <use xlink:href="#DejaVuSans-32" x="658.064453"/>
      <use xlink:href="#DejaVuSans-31" x="721.6875"/>
     </g>
    </g>
    <g id="line2d_61">
     <path d="M 269.702 499.565125 
L 278.502 499.565125 
L 287.302 499.565125 
" style="fill: none; stroke: #c957db; stroke-width: 1.2; stroke-linecap: round"/>
    </g>
    <g id="text_55">
     <!-- fuzzer_global -->
     <g style="fill: #262626" transform="translate(294.342 502.645125)scale(0.088 -0.088)">
      <defs>
       <path id="DejaVuSans-5f" d="M 3263 -1063 
L 3263 -1509 
L -63 -1509 
L -63 -1063 
L 3263 -1063 
z
" transform="scale(0.015625)"/>
       <path id="DejaVuSans-62" d="M 3116 1747 
Q 3116 2381 2855 2742 
Q 2594 3103 2138 3103 
Q 1681 3103 1420 2742 
Q 1159 2381 1159 1747 
Q 1159 1113 1420 752 
Q 1681 391 2138 391 
Q 2594 391 2855 752 
Q 3116 1113 3116 1747 
z
M 1159 2969 
Q 1341 3281 1617 3432 
Q 1894 3584 2278 3584 
Q 2916 3584 3314 3078 
Q 3713 2572 3713 1747 
Q 3713 922 3314 415 
Q 2916 -91 2278 -91 
Q 1894 -91 1617 61 
Q 1341 213 1159 525 
L 1159 0 
L 581 0 
L 581 4863 
L 1159 4863 
L 1159 2969 
z
" transform="scale(0.015625)"/>
      </defs>
      <use xlink:href="#DejaVuSans-66"/>
      <use xlink:href="#DejaVuSans-75" x="35.205078"/>
      <use xlink:href="#DejaVuSans-7a" x="98.583984"/>
      <use xlink:href="#DejaVuSans-7a" x="151.074219"/>
      <use xlink:href="#DejaVuSans-65" x="203.564453"/>
      <use xlink:href="#DejaVuSans-72" x="265.087891"/>
      <use xlink:href="#DejaVuSans-5f" x="306.201172"/>
      <use xlink:href="#DejaVuSans-67" x="356.201172"/>
      <use xlink:href="#DejaVuSans-6c" x="419.677734"/>
      <use xlink:href="#DejaVuSans-6f" x="447.460938"/>
      <use xlink:href="#DejaVuSans-62" x="508.642578"/>
      <use xlink:href="#DejaVuSans-61" x="572.119141"/>
      <use xlink:href="#DejaVuSans-6c" x="633.398438"/>
     </g>
    </g>
   </g>
  </g>
 </g>
 <defs>
  <clipPath id="p83651e4c24">
   <rect x="54.3375" y="69.12" width="336.8925" height="443.52"/>
  </clipPath>
 </defs>
</svg>
