<?xml version="1.0" encoding="utf-8" standalone="no"?>
<!DOCTYPE svg PUBLIC "-//W3C//DTD SVG 1.1//EN"
  "http://www.w3.org/Graphics/SVG/1.1/DTD/svg11.dtd">
<svg xmlns:xlink="http://www.w3.org/1999/xlink" width="434.7pt" height="576pt" viewBox="0 0 434.7 576" xmlns="http://www.w3.org/2000/svg" version="1.1">
 <metadata>
  <rdf:RDF xmlns:dc="http://purl.org/dc/elements/1.1/" xmlns:cc="http://creativecommons.org/ns#" xmlns:rdf="http://www.w3.org/1999/02/22-rdf-syntax-ns#">
   <cc:Work>
    <dc:type rdf:resource="http://purl.org/dc/dcmitype/StillImage"/>
    <dc:date>2022-09-15T11:31:19.873996</dc:date>
    <dc:format>image/svg+xml</dc:format>
    <dc:creator>
     <cc:Agent>
      <dc:title>Matplotlib v3.5.3, https://matplotlib.org/</dc:title>
     </cc:Agent>
    </dc:creator>
   </cc:Work>
  </rdf:RDF>
 </metadata>
 <defs>
  <style type="text/css">*{stroke-linejoin: round; stroke-linecap: butt}</style>
 </defs>
 <g id="figure_1">
  <g id="patch_1">
   <path d="M 0 576 
L 434.7 576 
L 434.7 0 
L 0 0 
z
" style="fill: #ffffff"/>
  </g>
  <g id="axes_1">
   <g id="patch_2">
    <path d="M 54.3375 512.64 
L 391.23 512.64 
L 391.23 69.12 
L 54.3375 69.12 
z
" style="fill: #ffffff"/>
   </g>
   <g id="matplotlib.axis_1">
    <g id="xtick_1">
     <g id="line2d_1">
      <path d="M 69.650795 512.64 
L 69.650795 69.12 
" clip-path="url(#p101bfa4805)" style="fill: none; stroke: #cccccc; stroke-width: 0.8; stroke-linecap: round"/>
     </g>
     <g id="text_1">
      <!-- 0 -->
      <g style="fill: #262626" transform="translate(69.388282 529.627249)rotate(-45)scale(0.088 -0.088)">
       <defs>
        <path id="DejaVuSans-30" d="M 2034 4250 
Q 1547 4250 1301 3770 
Q 1056 3291 1056 2328 
Q 1056 1369 1301 889 
Q 1547 409 2034 409 
Q 2525 409 2770 889 
Q 3016 1369 3016 2328 
Q 3016 3291 2770 3770 
Q 2525 4250 2034 4250 
z
M 2034 4750 
Q 2819 4750 3233 4129 
Q 3647 3509 3647 2328 
Q 3647 1150 3233 529 
Q 2819 -91 2034 -91 
Q 1250 -91 836 529 
Q 422 1150 422 2328 
Q 422 3509 836 4129 
Q 1250 4750 2034 4750 
z
" transform="scale(0.015625)"/>
       </defs>
       <use xlink:href="#DejaVuSans-30"/>
      </g>
     </g>
    </g>
    <g id="xtick_2">
     <g id="line2d_2">
      <path d="M 86.677392 512.64 
L 86.677392 69.12 
" clip-path="url(#p101bfa4805)" style="fill: none; stroke: #cccccc; stroke-width: 0.8; stroke-linecap: round"/>
     </g>
     <g id="text_2">
      <!-- 80 -->
      <g style="fill: #262626" transform="translate(84.435333 533.58634)rotate(-45)scale(0.088 -0.088)">
       <defs>
        <path id="DejaVuSans-38" d="M 2034 2216 
Q 1584 2216 1326 1975 
Q 1069 1734 1069 1313 
Q 1069 891 1326 650 
Q 1584 409 2034 409 
Q 2484 409 2743 651 
Q 3003 894 3003 1313 
Q 3003 1734 2745 1975 
Q 2488 2216 2034 2216 
z
M 1403 2484 
Q 997 2584 770 2862 
Q 544 3141 544 3541 
Q 544 4100 942 4425 
Q 1341 4750 2034 4750 
Q 2731 4750 3128 4425 
Q 3525 4100 3525 3541 
Q 3525 3141 3298 2862 
Q 3072 2584 2669 2484 
Q 3125 2378 3379 2068 
Q 3634 1759 3634 1313 
Q 3634 634 3220 271 
Q 2806 -91 2034 -91 
Q 1263 -91 848 271 
Q 434 634 434 1313 
Q 434 1759 690 2068 
Q 947 2378 1403 2484 
z
M 1172 3481 
Q 1172 3119 1398 2916 
Q 1625 2713 2034 2713 
Q 2441 2713 2670 2916 
Q 2900 3119 2900 3481 
Q 2900 3844 2670 4047 
Q 2441 4250 2034 4250 
Q 1625 4250 1398 4047 
Q 1172 3844 1172 3481 
z
" transform="scale(0.015625)"/>
       </defs>
       <use xlink:href="#DejaVuSans-38"/>
       <use xlink:href="#DejaVuSans-30" x="63.623047"/>
      </g>
     </g>
    </g>
    <g id="xtick_3">
     <g id="line2d_3">
      <path d="M 103.703989 512.64 
L 103.703989 69.12 
" clip-path="url(#p101bfa4805)" style="fill: none; stroke: #cccccc; stroke-width: 0.8; stroke-linecap: round"/>
     </g>
     <g id="text_3">
      <!-- 160 -->
      <g style="fill: #262626" transform="translate(99.482385 537.54543)rotate(-45)scale(0.088 -0.088)">
       <defs>
        <path id="DejaVuSans-31" d="M 794 531 
L 1825 531 
L 1825 4091 
L 703 3866 
L 703 4441 
L 1819 4666 
L 2450 4666 
L 2450 531 
L 3481 531 
L 3481 0 
L 794 0 
L 794 531 
z
" transform="scale(0.015625)"/>
        <path id="DejaVuSans-36" d="M 2113 2584 
Q 1688 2584 1439 2293 
Q 1191 2003 1191 1497 
Q 1191 994 1439 701 
Q 1688 409 2113 409 
Q 2538 409 2786 701 
Q 3034 994 3034 1497 
Q 3034 2003 2786 2293 
Q 2538 2584 2113 2584 
z
M 3366 4563 
L 3366 3988 
Q 3128 4100 2886 4159 
Q 2644 4219 2406 4219 
Q 1781 4219 1451 3797 
Q 1122 3375 1075 2522 
Q 1259 2794 1537 2939 
Q 1816 3084 2150 3084 
Q 2853 3084 3261 2657 
Q 3669 2231 3669 1497 
Q 3669 778 3244 343 
Q 2819 -91 2113 -91 
Q 1303 -91 875 529 
Q 447 1150 447 2328 
Q 447 3434 972 4092 
Q 1497 4750 2381 4750 
Q 2619 4750 2861 4703 
Q 3103 4656 3366 4563 
z
" transform="scale(0.015625)"/>
       </defs>
       <use xlink:href="#DejaVuSans-31"/>
       <use xlink:href="#DejaVuSans-36" x="63.623047"/>
       <use xlink:href="#DejaVuSans-30" x="127.246094"/>
      </g>
     </g>
    </g>
    <g id="xtick_4">
     <g id="line2d_4">
      <path d="M 120.730586 512.64 
L 120.730586 69.12 
" clip-path="url(#p101bfa4805)" style="fill: none; stroke: #cccccc; stroke-width: 0.8; stroke-linecap: round"/>
     </g>
     <g id="text_4">
      <!-- 240 -->
      <g style="fill: #262626" transform="translate(116.508981 537.54543)rotate(-45)scale(0.088 -0.088)">
       <defs>
        <path id="DejaVuSans-32" d="M 1228 531 
L 3431 531 
L 3431 0 
L 469 0 
L 469 531 
Q 828 903 1448 1529 
Q 2069 2156 2228 2338 
Q 2531 2678 2651 2914 
Q 2772 3150 2772 3378 
Q 2772 3750 2511 3984 
Q 2250 4219 1831 4219 
Q 1534 4219 1204 4116 
Q 875 4013 500 3803 
L 500 4441 
Q 881 4594 1212 4672 
Q 1544 4750 1819 4750 
Q 2544 4750 2975 4387 
Q 3406 4025 3406 3419 
Q 3406 3131 3298 2873 
Q 3191 2616 2906 2266 
Q 2828 2175 2409 1742 
Q 1991 1309 1228 531 
z
" transform="scale(0.015625)"/>
        <path id="DejaVuSans-34" d="M 2419 4116 
L 825 1625 
L 2419 1625 
L 2419 4116 
z
M 2253 4666 
L 3047 4666 
L 3047 1625 
L 3713 1625 
L 3713 1100 
L 3047 1100 
L 3047 0 
L 2419 0 
L 2419 1100 
L 313 1100 
L 313 1709 
L 2253 4666 
z
" transform="scale(0.015625)"/>
       </defs>
       <use xlink:href="#DejaVuSans-32"/>
       <use xlink:href="#DejaVuSans-34" x="63.623047"/>
       <use xlink:href="#DejaVuSans-30" x="127.246094"/>
      </g>
     </g>
    </g>
    <g id="xtick_5">
     <g id="line2d_5">
      <path d="M 137.757182 512.64 
L 137.757182 69.12 
" clip-path="url(#p101bfa4805)" style="fill: none; stroke: #cccccc; stroke-width: 0.8; stroke-linecap: round"/>
     </g>
     <g id="text_5">
      <!-- 320 -->
      <g style="fill: #262626" transform="translate(133.535578 537.54543)rotate(-45)scale(0.088 -0.088)">
       <defs>
        <path id="DejaVuSans-33" d="M 2597 2516 
Q 3050 2419 3304 2112 
Q 3559 1806 3559 1356 
Q 3559 666 3084 287 
Q 2609 -91 1734 -91 
Q 1441 -91 1130 -33 
Q 819 25 488 141 
L 488 750 
Q 750 597 1062 519 
Q 1375 441 1716 441 
Q 2309 441 2620 675 
Q 2931 909 2931 1356 
Q 2931 1769 2642 2001 
Q 2353 2234 1838 2234 
L 1294 2234 
L 1294 2753 
L 1863 2753 
Q 2328 2753 2575 2939 
Q 2822 3125 2822 3475 
Q 2822 3834 2567 4026 
Q 2313 4219 1838 4219 
Q 1578 4219 1281 4162 
Q 984 4106 628 3988 
L 628 4550 
Q 988 4650 1302 4700 
Q 1616 4750 1894 4750 
Q 2613 4750 3031 4423 
Q 3450 4097 3450 3541 
Q 3450 3153 3228 2886 
Q 3006 2619 2597 2516 
z
" transform="scale(0.015625)"/>
       </defs>
       <use xlink:href="#DejaVuSans-33"/>
       <use xlink:href="#DejaVuSans-32" x="63.623047"/>
       <use xlink:href="#DejaVuSans-30" x="127.246094"/>
      </g>
     </g>
    </g>
    <g id="xtick_6">
     <g id="line2d_6">
      <path d="M 154.783779 512.64 
L 154.783779 69.12 
" clip-path="url(#p101bfa4805)" style="fill: none; stroke: #cccccc; stroke-width: 0.8; stroke-linecap: round"/>
     </g>
     <g id="text_6">
      <!-- 400 -->
      <g style="fill: #262626" transform="translate(150.562175 537.54543)rotate(-45)scale(0.088 -0.088)">
       <use xlink:href="#DejaVuSans-34"/>
       <use xlink:href="#DejaVuSans-30" x="63.623047"/>
       <use xlink:href="#DejaVuSans-30" x="127.246094"/>
      </g>
     </g>
    </g>
    <g id="xtick_7">
     <g id="line2d_7">
      <path d="M 171.810376 512.64 
L 171.810376 69.12 
" clip-path="url(#p101bfa4805)" style="fill: none; stroke: #cccccc; stroke-width: 0.8; stroke-linecap: round"/>
     </g>
     <g id="text_7">
      <!-- 480 -->
      <g style="fill: #262626" transform="translate(167.588772 537.54543)rotate(-45)scale(0.088 -0.088)">
       <use xlink:href="#DejaVuSans-34"/>
       <use xlink:href="#DejaVuSans-38" x="63.623047"/>
       <use xlink:href="#DejaVuSans-30" x="127.246094"/>
      </g>
     </g>
    </g>
    <g id="xtick_8">
     <g id="line2d_8">
      <path d="M 188.836973 512.64 
L 188.836973 69.12 
" clip-path="url(#p101bfa4805)" style="fill: none; stroke: #cccccc; stroke-width: 0.8; stroke-linecap: round"/>
     </g>
     <g id="text_8">
      <!-- 560 -->
      <g style="fill: #262626" transform="translate(184.615368 537.54543)rotate(-45)scale(0.088 -0.088)">
       <defs>
        <path id="DejaVuSans-35" d="M 691 4666 
L 3169 4666 
L 3169 4134 
L 1269 4134 
L 1269 2991 
Q 1406 3038 1543 3061 
Q 1681 3084 1819 3084 
Q 2600 3084 3056 2656 
Q 3513 2228 3513 1497 
Q 3513 744 3044 326 
Q 2575 -91 1722 -91 
Q 1428 -91 1123 -41 
Q 819 9 494 109 
L 494 744 
Q 775 591 1075 516 
Q 1375 441 1709 441 
Q 2250 441 2565 725 
Q 2881 1009 2881 1497 
Q 2881 1984 2565 2268 
Q 2250 2553 1709 2553 
Q 1456 2553 1204 2497 
Q 953 2441 691 2322 
L 691 4666 
z
" transform="scale(0.015625)"/>
       </defs>
       <use xlink:href="#DejaVuSans-35"/>
       <use xlink:href="#DejaVuSans-36" x="63.623047"/>
       <use xlink:href="#DejaVuSans-30" x="127.246094"/>
      </g>
     </g>
    </g>
    <g id="xtick_9">
     <g id="line2d_9">
      <path d="M 205.863569 512.64 
L 205.863569 69.12 
" clip-path="url(#p101bfa4805)" style="fill: none; stroke: #cccccc; stroke-width: 0.8; stroke-linecap: round"/>
     </g>
     <g id="text_9">
      <!-- 640 -->
      <g style="fill: #262626" transform="translate(201.641965 537.54543)rotate(-45)scale(0.088 -0.088)">
       <use xlink:href="#DejaVuSans-36"/>
       <use xlink:href="#DejaVuSans-34" x="63.623047"/>
       <use xlink:href="#DejaVuSans-30" x="127.246094"/>
      </g>
     </g>
    </g>
    <g id="xtick_10">
     <g id="line2d_10">
      <path d="M 222.890166 512.64 
L 222.890166 69.12 
" clip-path="url(#p101bfa4805)" style="fill: none; stroke: #cccccc; stroke-width: 0.8; stroke-linecap: round"/>
     </g>
     <g id="text_10">
      <!-- 720 -->
      <g style="fill: #262626" transform="translate(218.668562 537.54543)rotate(-45)scale(0.088 -0.088)">
       <defs>
        <path id="DejaVuSans-37" d="M 525 4666 
L 3525 4666 
L 3525 4397 
L 1831 0 
L 1172 0 
L 2766 4134 
L 525 4134 
L 525 4666 
z
" transform="scale(0.015625)"/>
       </defs>
       <use xlink:href="#DejaVuSans-37"/>
       <use xlink:href="#DejaVuSans-32" x="63.623047"/>
       <use xlink:href="#DejaVuSans-30" x="127.246094"/>
      </g>
     </g>
    </g>
    <g id="xtick_11">
     <g id="line2d_11">
      <path d="M 239.916763 512.64 
L 239.916763 69.12 
" clip-path="url(#p101bfa4805)" style="fill: none; stroke: #cccccc; stroke-width: 0.8; stroke-linecap: round"/>
     </g>
     <g id="text_11">
      <!-- 800 -->
      <g style="fill: #262626" transform="translate(235.695159 537.54543)rotate(-45)scale(0.088 -0.088)">
       <use xlink:href="#DejaVuSans-38"/>
       <use xlink:href="#DejaVuSans-30" x="63.623047"/>
       <use xlink:href="#DejaVuSans-30" x="127.246094"/>
      </g>
     </g>
    </g>
    <g id="xtick_12">
     <g id="line2d_12">
      <path d="M 256.94336 512.64 
L 256.94336 69.12 
" clip-path="url(#p101bfa4805)" style="fill: none; stroke: #cccccc; stroke-width: 0.8; stroke-linecap: round"/>
     </g>
     <g id="text_12">
      <!-- 880 -->
      <g style="fill: #262626" transform="translate(252.721755 537.54543)rotate(-45)scale(0.088 -0.088)">
       <use xlink:href="#DejaVuSans-38"/>
       <use xlink:href="#DejaVuSans-38" x="63.623047"/>
       <use xlink:href="#DejaVuSans-30" x="127.246094"/>
      </g>
     </g>
    </g>
    <g id="xtick_13">
     <g id="line2d_13">
      <path d="M 273.969956 512.64 
L 273.969956 69.12 
" clip-path="url(#p101bfa4805)" style="fill: none; stroke: #cccccc; stroke-width: 0.8; stroke-linecap: round"/>
     </g>
     <g id="text_13">
      <!-- 960 -->
      <g style="fill: #262626" transform="translate(269.748352 537.54543)rotate(-45)scale(0.088 -0.088)">
       <defs>
        <path id="DejaVuSans-39" d="M 703 97 
L 703 672 
Q 941 559 1184 500 
Q 1428 441 1663 441 
Q 2288 441 2617 861 
Q 2947 1281 2994 2138 
Q 2813 1869 2534 1725 
Q 2256 1581 1919 1581 
Q 1219 1581 811 2004 
Q 403 2428 403 3163 
Q 403 3881 828 4315 
Q 1253 4750 1959 4750 
Q 2769 4750 3195 4129 
Q 3622 3509 3622 2328 
Q 3622 1225 3098 567 
Q 2575 -91 1691 -91 
Q 1453 -91 1209 -44 
Q 966 3 703 97 
z
M 1959 2075 
Q 2384 2075 2632 2365 
Q 2881 2656 2881 3163 
Q 2881 3666 2632 3958 
Q 2384 4250 1959 4250 
Q 1534 4250 1286 3958 
Q 1038 3666 1038 3163 
Q 1038 2656 1286 2365 
Q 1534 2075 1959 2075 
z
" transform="scale(0.015625)"/>
       </defs>
       <use xlink:href="#DejaVuSans-39"/>
       <use xlink:href="#DejaVuSans-36" x="63.623047"/>
       <use xlink:href="#DejaVuSans-30" x="127.246094"/>
      </g>
     </g>
    </g>
    <g id="xtick_14">
     <g id="line2d_14">
      <path d="M 290.996553 512.64 
L 290.996553 69.12 
" clip-path="url(#p101bfa4805)" style="fill: none; stroke: #cccccc; stroke-width: 0.8; stroke-linecap: round"/>
     </g>
     <g id="text_14">
      <!-- 1040 -->
      <g style="fill: #262626" transform="translate(284.795404 541.504521)rotate(-45)scale(0.088 -0.088)">
       <use xlink:href="#DejaVuSans-31"/>
       <use xlink:href="#DejaVuSans-30" x="63.623047"/>
       <use xlink:href="#DejaVuSans-34" x="127.246094"/>
       <use xlink:href="#DejaVuSans-30" x="190.869141"/>
      </g>
     </g>
    </g>
    <g id="xtick_15">
     <g id="line2d_15">
      <path d="M 308.02315 512.64 
L 308.02315 69.12 
" clip-path="url(#p101bfa4805)" style="fill: none; stroke: #cccccc; stroke-width: 0.8; stroke-linecap: round"/>
     </g>
     <g id="text_15">
      <!-- 1120 -->
      <g style="fill: #262626" transform="translate(301.822 541.504521)rotate(-45)scale(0.088 -0.088)">
       <use xlink:href="#DejaVuSans-31"/>
       <use xlink:href="#DejaVuSans-31" x="63.623047"/>
       <use xlink:href="#DejaVuSans-32" x="127.246094"/>
       <use xlink:href="#DejaVuSans-30" x="190.869141"/>
      </g>
     </g>
    </g>
    <g id="xtick_16">
     <g id="line2d_16">
      <path d="M 325.049747 512.64 
L 325.049747 69.12 
" clip-path="url(#p101bfa4805)" style="fill: none; stroke: #cccccc; stroke-width: 0.8; stroke-linecap: round"/>
     </g>
     <g id="text_16">
      <!-- 1200 -->
      <g style="fill: #262626" transform="translate(318.848597 541.504521)rotate(-45)scale(0.088 -0.088)">
       <use xlink:href="#DejaVuSans-31"/>
       <use xlink:href="#DejaVuSans-32" x="63.623047"/>
       <use xlink:href="#DejaVuSans-30" x="127.246094"/>
       <use xlink:href="#DejaVuSans-30" x="190.869141"/>
      </g>
     </g>
    </g>
    <g id="xtick_17">
     <g id="line2d_17">
      <path d="M 342.076343 512.64 
L 342.076343 69.12 
" clip-path="url(#p101bfa4805)" style="fill: none; stroke: #cccccc; stroke-width: 0.8; stroke-linecap: round"/>
     </g>
     <g id="text_17">
      <!-- 1280 -->
      <g style="fill: #262626" transform="translate(335.875194 541.504521)rotate(-45)scale(0.088 -0.088)">
       <use xlink:href="#DejaVuSans-31"/>
       <use xlink:href="#DejaVuSans-32" x="63.623047"/>
       <use xlink:href="#DejaVuSans-38" x="127.246094"/>
       <use xlink:href="#DejaVuSans-30" x="190.869141"/>
      </g>
     </g>
    </g>
    <g id="xtick_18">
     <g id="line2d_18">
      <path d="M 359.10294 512.64 
L 359.10294 69.12 
" clip-path="url(#p101bfa4805)" style="fill: none; stroke: #cccccc; stroke-width: 0.8; stroke-linecap: round"/>
     </g>
     <g id="text_18">
      <!-- 1360 -->
      <g style="fill: #262626" transform="translate(352.901791 541.504521)rotate(-45)scale(0.088 -0.088)">
       <use xlink:href="#DejaVuSans-31"/>
       <use xlink:href="#DejaVuSans-33" x="63.623047"/>
       <use xlink:href="#DejaVuSans-36" x="127.246094"/>
       <use xlink:href="#DejaVuSans-30" x="190.869141"/>
      </g>
     </g>
    </g>
    <g id="xtick_19">
     <g id="line2d_19">
      <path d="M 376.129537 512.64 
L 376.129537 69.12 
" clip-path="url(#p101bfa4805)" style="fill: none; stroke: #cccccc; stroke-width: 0.8; stroke-linecap: round"/>
     </g>
     <g id="text_19">
      <!-- 1440 -->
      <g style="fill: #262626" transform="translate(369.928387 541.504521)rotate(-45)scale(0.088 -0.088)">
       <use xlink:href="#DejaVuSans-31"/>
       <use xlink:href="#DejaVuSans-34" x="63.623047"/>
       <use xlink:href="#DejaVuSans-34" x="127.246094"/>
       <use xlink:href="#DejaVuSans-30" x="190.869141"/>
      </g>
     </g>
    </g>
    <g id="text_20">
     <!-- Time (Minutes) -->
     <g style="fill: #262626" transform="translate(186.87375 554.093115)scale(0.096 -0.096)">
      <defs>
       <path id="DejaVuSans-54" d="M -19 4666 
L 3928 4666 
L 3928 4134 
L 2272 4134 
L 2272 0 
L 1638 0 
L 1638 4134 
L -19 4134 
L -19 4666 
z
" transform="scale(0.015625)"/>
       <path id="DejaVuSans-69" d="M 603 3500 
L 1178 3500 
L 1178 0 
L 603 0 
L 603 3500 
z
M 603 4863 
L 1178 4863 
L 1178 4134 
L 603 4134 
L 603 4863 
z
" transform="scale(0.015625)"/>
       <path id="DejaVuSans-6d" d="M 3328 2828 
Q 3544 3216 3844 3400 
Q 4144 3584 4550 3584 
Q 5097 3584 5394 3201 
Q 5691 2819 5691 2113 
L 5691 0 
L 5113 0 
L 5113 2094 
Q 5113 2597 4934 2840 
Q 4756 3084 4391 3084 
Q 3944 3084 3684 2787 
Q 3425 2491 3425 1978 
L 3425 0 
L 2847 0 
L 2847 2094 
Q 2847 2600 2669 2842 
Q 2491 3084 2119 3084 
Q 1678 3084 1418 2786 
Q 1159 2488 1159 1978 
L 1159 0 
L 581 0 
L 581 3500 
L 1159 3500 
L 1159 2956 
Q 1356 3278 1631 3431 
Q 1906 3584 2284 3584 
Q 2666 3584 2933 3390 
Q 3200 3197 3328 2828 
z
" transform="scale(0.015625)"/>
       <path id="DejaVuSans-65" d="M 3597 1894 
L 3597 1613 
L 953 1613 
Q 991 1019 1311 708 
Q 1631 397 2203 397 
Q 2534 397 2845 478 
Q 3156 559 3463 722 
L 3463 178 
Q 3153 47 2828 -22 
Q 2503 -91 2169 -91 
Q 1331 -91 842 396 
Q 353 884 353 1716 
Q 353 2575 817 3079 
Q 1281 3584 2069 3584 
Q 2775 3584 3186 3129 
Q 3597 2675 3597 1894 
z
M 3022 2063 
Q 3016 2534 2758 2815 
Q 2500 3097 2075 3097 
Q 1594 3097 1305 2825 
Q 1016 2553 972 2059 
L 3022 2063 
z
" transform="scale(0.015625)"/>
       <path id="DejaVuSans-20" transform="scale(0.015625)"/>
       <path id="DejaVuSans-28" d="M 1984 4856 
Q 1566 4138 1362 3434 
Q 1159 2731 1159 2009 
Q 1159 1288 1364 580 
Q 1569 -128 1984 -844 
L 1484 -844 
Q 1016 -109 783 600 
Q 550 1309 550 2009 
Q 550 2706 781 3412 
Q 1013 4119 1484 4856 
L 1984 4856 
z
" transform="scale(0.015625)"/>
       <path id="DejaVuSans-4d" d="M 628 4666 
L 1569 4666 
L 2759 1491 
L 3956 4666 
L 4897 4666 
L 4897 0 
L 4281 0 
L 4281 4097 
L 3078 897 
L 2444 897 
L 1241 4097 
L 1241 0 
L 628 0 
L 628 4666 
z
" transform="scale(0.015625)"/>
       <path id="DejaVuSans-6e" d="M 3513 2113 
L 3513 0 
L 2938 0 
L 2938 2094 
Q 2938 2591 2744 2837 
Q 2550 3084 2163 3084 
Q 1697 3084 1428 2787 
Q 1159 2491 1159 1978 
L 1159 0 
L 581 0 
L 581 3500 
L 1159 3500 
L 1159 2956 
Q 1366 3272 1645 3428 
Q 1925 3584 2291 3584 
Q 2894 3584 3203 3211 
Q 3513 2838 3513 2113 
z
" transform="scale(0.015625)"/>
       <path id="DejaVuSans-75" d="M 544 1381 
L 544 3500 
L 1119 3500 
L 1119 1403 
Q 1119 906 1312 657 
Q 1506 409 1894 409 
Q 2359 409 2629 706 
Q 2900 1003 2900 1516 
L 2900 3500 
L 3475 3500 
L 3475 0 
L 2900 0 
L 2900 538 
Q 2691 219 2414 64 
Q 2138 -91 1772 -91 
Q 1169 -91 856 284 
Q 544 659 544 1381 
z
M 1991 3584 
L 1991 3584 
z
" transform="scale(0.015625)"/>
       <path id="DejaVuSans-74" d="M 1172 4494 
L 1172 3500 
L 2356 3500 
L 2356 3053 
L 1172 3053 
L 1172 1153 
Q 1172 725 1289 603 
Q 1406 481 1766 481 
L 2356 481 
L 2356 0 
L 1766 0 
Q 1100 0 847 248 
Q 594 497 594 1153 
L 594 3053 
L 172 3053 
L 172 3500 
L 594 3500 
L 594 4494 
L 1172 4494 
z
" transform="scale(0.015625)"/>
       <path id="DejaVuSans-73" d="M 2834 3397 
L 2834 2853 
Q 2591 2978 2328 3040 
Q 2066 3103 1784 3103 
Q 1356 3103 1142 2972 
Q 928 2841 928 2578 
Q 928 2378 1081 2264 
Q 1234 2150 1697 2047 
L 1894 2003 
Q 2506 1872 2764 1633 
Q 3022 1394 3022 966 
Q 3022 478 2636 193 
Q 2250 -91 1575 -91 
Q 1294 -91 989 -36 
Q 684 19 347 128 
L 347 722 
Q 666 556 975 473 
Q 1284 391 1588 391 
Q 1994 391 2212 530 
Q 2431 669 2431 922 
Q 2431 1156 2273 1281 
Q 2116 1406 1581 1522 
L 1381 1569 
Q 847 1681 609 1914 
Q 372 2147 372 2553 
Q 372 3047 722 3315 
Q 1072 3584 1716 3584 
Q 2034 3584 2315 3537 
Q 2597 3491 2834 3397 
z
" transform="scale(0.015625)"/>
       <path id="DejaVuSans-29" d="M 513 4856 
L 1013 4856 
Q 1481 4119 1714 3412 
Q 1947 2706 1947 2009 
Q 1947 1309 1714 600 
Q 1481 -109 1013 -844 
L 513 -844 
Q 928 -128 1133 580 
Q 1338 1288 1338 2009 
Q 1338 2731 1133 3434 
Q 928 4138 513 4856 
z
" transform="scale(0.015625)"/>
      </defs>
      <use xlink:href="#DejaVuSans-54"/>
      <use xlink:href="#DejaVuSans-69" x="57.958984"/>
      <use xlink:href="#DejaVuSans-6d" x="85.742188"/>
      <use xlink:href="#DejaVuSans-65" x="183.154297"/>
      <use xlink:href="#DejaVuSans-20" x="244.677734"/>
      <use xlink:href="#DejaVuSans-28" x="276.464844"/>
      <use xlink:href="#DejaVuSans-4d" x="315.478516"/>
      <use xlink:href="#DejaVuSans-69" x="401.757812"/>
      <use xlink:href="#DejaVuSans-6e" x="429.541016"/>
      <use xlink:href="#DejaVuSans-75" x="492.919922"/>
      <use xlink:href="#DejaVuSans-74" x="556.298828"/>
      <use xlink:href="#DejaVuSans-65" x="595.507812"/>
      <use xlink:href="#DejaVuSans-73" x="657.03125"/>
      <use xlink:href="#DejaVuSans-29" x="709.130859"/>
     </g>
    </g>
   </g>
   <g id="matplotlib.axis_2">
    <g id="ytick_1">
     <g id="line2d_20">
      <path d="M 54.3375 492.48 
L 391.23 492.48 
" clip-path="url(#p101bfa4805)" style="fill: none; stroke: #cccccc; stroke-width: 0.8; stroke-linecap: round"/>
     </g>
     <g id="text_21">
      <!-- 0 -->
      <g style="fill: #262626" transform="translate(40.4385 495.823312)scale(0.088 -0.088)">
       <use xlink:href="#DejaVuSans-30"/>
      </g>
     </g>
    </g>
    <g id="ytick_2">
     <g id="line2d_21">
      <path d="M 54.3375 441.570909 
L 391.23 441.570909 
" clip-path="url(#p101bfa4805)" style="fill: none; stroke: #cccccc; stroke-width: 0.8; stroke-linecap: round"/>
     </g>
     <g id="text_22">
      <!-- 100 -->
      <g style="fill: #262626" transform="translate(29.2405 444.914222)scale(0.088 -0.088)">
       <use xlink:href="#DejaVuSans-31"/>
       <use xlink:href="#DejaVuSans-30" x="63.623047"/>
       <use xlink:href="#DejaVuSans-30" x="127.246094"/>
      </g>
     </g>
    </g>
    <g id="ytick_3">
     <g id="line2d_22">
      <path d="M 54.3375 390.661818 
L 391.23 390.661818 
" clip-path="url(#p101bfa4805)" style="fill: none; stroke: #cccccc; stroke-width: 0.8; stroke-linecap: round"/>
     </g>
     <g id="text_23">
      <!-- 200 -->
      <g style="fill: #262626" transform="translate(29.2405 394.005131)scale(0.088 -0.088)">
       <use xlink:href="#DejaVuSans-32"/>
       <use xlink:href="#DejaVuSans-30" x="63.623047"/>
       <use xlink:href="#DejaVuSans-30" x="127.246094"/>
      </g>
     </g>
    </g>
    <g id="ytick_4">
     <g id="line2d_23">
      <path d="M 54.3375 339.752727 
L 391.23 339.752727 
" clip-path="url(#p101bfa4805)" style="fill: none; stroke: #cccccc; stroke-width: 0.8; stroke-linecap: round"/>
     </g>
     <g id="text_24">
      <!-- 300 -->
      <g style="fill: #262626" transform="translate(29.2405 343.09604)scale(0.088 -0.088)">
       <use xlink:href="#DejaVuSans-33"/>
       <use xlink:href="#DejaVuSans-30" x="63.623047"/>
       <use xlink:href="#DejaVuSans-30" x="127.246094"/>
      </g>
     </g>
    </g>
    <g id="ytick_5">
     <g id="line2d_24">
      <path d="M 54.3375 288.843636 
L 391.23 288.843636 
" clip-path="url(#p101bfa4805)" style="fill: none; stroke: #cccccc; stroke-width: 0.8; stroke-linecap: round"/>
     </g>
     <g id="text_25">
      <!-- 400 -->
      <g style="fill: #262626" transform="translate(29.2405 292.186949)scale(0.088 -0.088)">
       <use xlink:href="#DejaVuSans-34"/>
       <use xlink:href="#DejaVuSans-30" x="63.623047"/>
       <use xlink:href="#DejaVuSans-30" x="127.246094"/>
      </g>
     </g>
    </g>
    <g id="ytick_6">
     <g id="line2d_25">
      <path d="M 54.3375 237.934545 
L 391.23 237.934545 
" clip-path="url(#p101bfa4805)" style="fill: none; stroke: #cccccc; stroke-width: 0.8; stroke-linecap: round"/>
     </g>
     <g id="text_26">
      <!-- 500 -->
      <g style="fill: #262626" transform="translate(29.2405 241.277858)scale(0.088 -0.088)">
       <use xlink:href="#DejaVuSans-35"/>
       <use xlink:href="#DejaVuSans-30" x="63.623047"/>
       <use xlink:href="#DejaVuSans-30" x="127.246094"/>
      </g>
     </g>
    </g>
    <g id="ytick_7">
     <g id="line2d_26">
      <path d="M 54.3375 187.025455 
L 391.23 187.025455 
" clip-path="url(#p101bfa4805)" style="fill: none; stroke: #cccccc; stroke-width: 0.8; stroke-linecap: round"/>
     </g>
     <g id="text_27">
      <!-- 600 -->
      <g style="fill: #262626" transform="translate(29.2405 190.368767)scale(0.088 -0.088)">
       <use xlink:href="#DejaVuSans-36"/>
       <use xlink:href="#DejaVuSans-30" x="63.623047"/>
       <use xlink:href="#DejaVuSans-30" x="127.246094"/>
      </g>
     </g>
    </g>
    <g id="ytick_8">
     <g id="line2d_27">
      <path d="M 54.3375 136.116364 
L 391.23 136.116364 
" clip-path="url(#p101bfa4805)" style="fill: none; stroke: #cccccc; stroke-width: 0.8; stroke-linecap: round"/>
     </g>
     <g id="text_28">
      <!-- 700 -->
      <g style="fill: #262626" transform="translate(29.2405 139.459676)scale(0.088 -0.088)">
       <use xlink:href="#DejaVuSans-37"/>
       <use xlink:href="#DejaVuSans-30" x="63.623047"/>
       <use xlink:href="#DejaVuSans-30" x="127.246094"/>
      </g>
     </g>
    </g>
    <g id="text_29">
     <!-- Edge Coverages -->
     <g style="fill: #262626" transform="translate(23.244 329.98575)rotate(-90)scale(0.096 -0.096)">
      <defs>
       <path id="DejaVuSans-45" d="M 628 4666 
L 3578 4666 
L 3578 4134 
L 1259 4134 
L 1259 2753 
L 3481 2753 
L 3481 2222 
L 1259 2222 
L 1259 531 
L 3634 531 
L 3634 0 
L 628 0 
L 628 4666 
z
" transform="scale(0.015625)"/>
       <path id="DejaVuSans-64" d="M 2906 2969 
L 2906 4863 
L 3481 4863 
L 3481 0 
L 2906 0 
L 2906 525 
Q 2725 213 2448 61 
Q 2172 -91 1784 -91 
Q 1150 -91 751 415 
Q 353 922 353 1747 
Q 353 2572 751 3078 
Q 1150 3584 1784 3584 
Q 2172 3584 2448 3432 
Q 2725 3281 2906 2969 
z
M 947 1747 
Q 947 1113 1208 752 
Q 1469 391 1925 391 
Q 2381 391 2643 752 
Q 2906 1113 2906 1747 
Q 2906 2381 2643 2742 
Q 2381 3103 1925 3103 
Q 1469 3103 1208 2742 
Q 947 2381 947 1747 
z
" transform="scale(0.015625)"/>
       <path id="DejaVuSans-67" d="M 2906 1791 
Q 2906 2416 2648 2759 
Q 2391 3103 1925 3103 
Q 1463 3103 1205 2759 
Q 947 2416 947 1791 
Q 947 1169 1205 825 
Q 1463 481 1925 481 
Q 2391 481 2648 825 
Q 2906 1169 2906 1791 
z
M 3481 434 
Q 3481 -459 3084 -895 
Q 2688 -1331 1869 -1331 
Q 1566 -1331 1297 -1286 
Q 1028 -1241 775 -1147 
L 775 -588 
Q 1028 -725 1275 -790 
Q 1522 -856 1778 -856 
Q 2344 -856 2625 -561 
Q 2906 -266 2906 331 
L 2906 616 
Q 2728 306 2450 153 
Q 2172 0 1784 0 
Q 1141 0 747 490 
Q 353 981 353 1791 
Q 353 2603 747 3093 
Q 1141 3584 1784 3584 
Q 2172 3584 2450 3431 
Q 2728 3278 2906 2969 
L 2906 3500 
L 3481 3500 
L 3481 434 
z
" transform="scale(0.015625)"/>
       <path id="DejaVuSans-43" d="M 4122 4306 
L 4122 3641 
Q 3803 3938 3442 4084 
Q 3081 4231 2675 4231 
Q 1875 4231 1450 3742 
Q 1025 3253 1025 2328 
Q 1025 1406 1450 917 
Q 1875 428 2675 428 
Q 3081 428 3442 575 
Q 3803 722 4122 1019 
L 4122 359 
Q 3791 134 3420 21 
Q 3050 -91 2638 -91 
Q 1578 -91 968 557 
Q 359 1206 359 2328 
Q 359 3453 968 4101 
Q 1578 4750 2638 4750 
Q 3056 4750 3426 4639 
Q 3797 4528 4122 4306 
z
" transform="scale(0.015625)"/>
       <path id="DejaVuSans-6f" d="M 1959 3097 
Q 1497 3097 1228 2736 
Q 959 2375 959 1747 
Q 959 1119 1226 758 
Q 1494 397 1959 397 
Q 2419 397 2687 759 
Q 2956 1122 2956 1747 
Q 2956 2369 2687 2733 
Q 2419 3097 1959 3097 
z
M 1959 3584 
Q 2709 3584 3137 3096 
Q 3566 2609 3566 1747 
Q 3566 888 3137 398 
Q 2709 -91 1959 -91 
Q 1206 -91 779 398 
Q 353 888 353 1747 
Q 353 2609 779 3096 
Q 1206 3584 1959 3584 
z
" transform="scale(0.015625)"/>
       <path id="DejaVuSans-76" d="M 191 3500 
L 800 3500 
L 1894 563 
L 2988 3500 
L 3597 3500 
L 2284 0 
L 1503 0 
L 191 3500 
z
" transform="scale(0.015625)"/>
       <path id="DejaVuSans-72" d="M 2631 2963 
Q 2534 3019 2420 3045 
Q 2306 3072 2169 3072 
Q 1681 3072 1420 2755 
Q 1159 2438 1159 1844 
L 1159 0 
L 581 0 
L 581 3500 
L 1159 3500 
L 1159 2956 
Q 1341 3275 1631 3429 
Q 1922 3584 2338 3584 
Q 2397 3584 2469 3576 
Q 2541 3569 2628 3553 
L 2631 2963 
z
" transform="scale(0.015625)"/>
       <path id="DejaVuSans-61" d="M 2194 1759 
Q 1497 1759 1228 1600 
Q 959 1441 959 1056 
Q 959 750 1161 570 
Q 1363 391 1709 391 
Q 2188 391 2477 730 
Q 2766 1069 2766 1631 
L 2766 1759 
L 2194 1759 
z
M 3341 1997 
L 3341 0 
L 2766 0 
L 2766 531 
Q 2569 213 2275 61 
Q 1981 -91 1556 -91 
Q 1019 -91 701 211 
Q 384 513 384 1019 
Q 384 1609 779 1909 
Q 1175 2209 1959 2209 
L 2766 2209 
L 2766 2266 
Q 2766 2663 2505 2880 
Q 2244 3097 1772 3097 
Q 1472 3097 1187 3025 
Q 903 2953 641 2809 
L 641 3341 
Q 956 3463 1253 3523 
Q 1550 3584 1831 3584 
Q 2591 3584 2966 3190 
Q 3341 2797 3341 1997 
z
" transform="scale(0.015625)"/>
      </defs>
      <use xlink:href="#DejaVuSans-45"/>
      <use xlink:href="#DejaVuSans-64" x="63.183594"/>
      <use xlink:href="#DejaVuSans-67" x="126.660156"/>
      <use xlink:href="#DejaVuSans-65" x="190.136719"/>
      <use xlink:href="#DejaVuSans-20" x="251.660156"/>
      <use xlink:href="#DejaVuSans-43" x="283.447266"/>
      <use xlink:href="#DejaVuSans-6f" x="353.271484"/>
      <use xlink:href="#DejaVuSans-76" x="414.453125"/>
      <use xlink:href="#DejaVuSans-65" x="473.632812"/>
      <use xlink:href="#DejaVuSans-72" x="535.15625"/>
      <use xlink:href="#DejaVuSans-61" x="576.269531"/>
      <use xlink:href="#DejaVuSans-67" x="637.548828"/>
      <use xlink:href="#DejaVuSans-65" x="701.025391"/>
      <use xlink:href="#DejaVuSans-73" x="762.548828"/>
     </g>
    </g>
   </g>
   <g id="PolyCollection_1">
    <defs>
     <path id="mb5099cbde8" d="M 69.650795 -96.247273 
L 69.650795 -83.52 
L 69.650795 -96.247273 
L 69.650795 -96.247273 
z
" style="stroke: #db5f57; stroke-opacity: 0.2; stroke-width: 0.8"/>
    </defs>
    <g clip-path="url(#p101bfa4805)">
     <use xlink:href="#mb5099cbde8" x="0" y="576" style="fill: #db5f57; fill-opacity: 0.2; stroke: #db5f57; stroke-opacity: 0.2; stroke-width: 0.8"/>
    </g>
   </g>
   <g id="PolyCollection_2">
    <defs>
     <path id="m8d2753f319" d="M 69.650795 -94.72 
L 69.650795 -83.52 
L 69.650795 -94.72 
L 69.650795 -94.72 
z
" style="stroke: #b9db57; stroke-opacity: 0.2; stroke-width: 0.8"/>
    </defs>
    <g clip-path="url(#p101bfa4805)">
     <use xlink:href="#m8d2753f319" x="0" y="576" style="fill: #b9db57; fill-opacity: 0.2; stroke: #b9db57; stroke-opacity: 0.2; stroke-width: 0.8"/>
    </g>
   </g>
   <g id="PolyCollection_3">
    <defs>
     <path id="m7be11b5fdd" d="M 69.650795 -104.901818 
L 69.650795 -83.52 
L 69.650795 -104.901818 
L 69.650795 -104.901818 
z
" style="stroke: #57db94; stroke-opacity: 0.2; stroke-width: 0.8"/>
    </defs>
    <g clip-path="url(#p101bfa4805)">
     <use xlink:href="#m7be11b5fdd" x="0" y="576" style="fill: #57db94; fill-opacity: 0.2; stroke: #57db94; stroke-opacity: 0.2; stroke-width: 0.8"/>
    </g>
   </g>
   <g id="PolyCollection_4">
    <defs>
     <path id="m29cdb8df6d" d="M 69.650795 -103.374545 
L 69.650795 -83.52 
L 69.650795 -103.374545 
L 69.650795 -103.374545 
z
" style="stroke: #5784db; stroke-opacity: 0.2; stroke-width: 0.8"/>
    </defs>
    <g clip-path="url(#p101bfa4805)">
     <use xlink:href="#m29cdb8df6d" x="0" y="576" style="fill: #5784db; fill-opacity: 0.2; stroke: #5784db; stroke-opacity: 0.2; stroke-width: 0.8"/>
    </g>
   </g>
   <g id="PolyCollection_5">
    <defs>
     <path id="ma7db071fd8" d="M 69.650795 -108.465455 
L 69.650795 -83.52 
L 69.650795 -108.465455 
L 69.650795 -108.465455 
z
" style="stroke: #c957db; stroke-opacity: 0.2; stroke-width: 0.8"/>
    </defs>
    <g clip-path="url(#p101bfa4805)">
     <use xlink:href="#ma7db071fd8" x="0" y="576" style="fill: #c957db; fill-opacity: 0.2; stroke: #c957db; stroke-opacity: 0.2; stroke-width: 0.8"/>
    </g>
   </g>
   <g id="line2d_28">
    <path d="M 69.650795 486.116364 
L 69.863628 479.243636 
L 70.289293 478.225455 
L 70.502125 478.225455 
L 70.714958 477.716364 
L 70.92779 477.716364 
L 71.353455 436.989091 
L 71.566288 433.934545 
L 71.77912 432.916364 
L 71.991953 432.916364 
L 72.417617 431.898182 
L 72.63045 431.898182 
L 72.843282 429.861818 
L 73.056115 429.352727 
L 73.907445 423.243636 
L 74.545942 423.243636 
L 74.971607 402.370909 
L 75.184439 402.370909 
L 75.397272 401.861818 
L 75.610104 401.861818 
L 76.035769 400.843636 
L 76.674267 400.843636 
L 76.887099 400.334545 
L 77.738429 400.334545 
L 77.951261 399.825455 
L 78.589759 399.825455 
L 78.802591 386.589091 
L 79.015424 385.061818 
L 79.228256 385.061818 
L 79.441089 384.552727 
L 79.866754 384.552727 
L 80.079586 384.043636 
L 80.718083 384.043636 
L 80.930916 383.534545 
L 81.782246 383.534545 
L 81.995078 383.025455 
L 82.633575 383.025455 
L 82.846408 379.461818 
L 83.05924 379.461818 
L 83.484905 378.443636 
L 84.974733 378.443636 
L 85.187565 374.370909 
L 85.400397 373.352727 
L 85.61323 371.316364 
L 86.038895 371.316364 
L 86.251727 370.807273 
L 86.46456 370.807273 
L 86.677392 369.789091 
L 87.31589 369.789091 
L 87.528722 369.28 
L 88.592884 369.28 
L 88.805717 363.170909 
L 93.275198 363.170909 
L 93.488031 360.116364 
L 93.913696 358.589091 
L 94.339361 358.589091 
L 94.552193 356.043636 
L 94.765026 356.043636 
L 94.977858 355.534545 
L 96.254853 355.534545 
L 96.467685 355.025455 
L 96.680518 355.025455 
L 96.89335 352.989091 
L 98.383177 352.989091 
L 98.808842 351.461818 
L 99.021675 351.461818 
L 99.234507 350.952727 
L 101.149999 350.952727 
L 101.575664 349.425455 
L 114.132779 349.425455 
L 114.558444 348.407273 
L 114.771277 348.407273 
L 114.984109 343.316364 
L 115.196942 332.116364 
L 118.176596 332.116364 
L 118.389429 330.08 
L 132.010706 330.08 
L 132.223539 324.989091 
L 132.436371 324.989091 
L 132.649203 324.48 
L 160.955921 324.48 
L 161.168753 299.534545 
L 164.148407 299.534545 
L 164.36124 299.025455 
L 166.702397 299.025455 
L 166.915229 298.516364 
L 169.256386 298.516364 
L 169.469219 295.970909 
L 175.215695 295.970909 
L 175.428528 291.898182 
L 188.62414 291.898182 
L 188.836973 280.189091 
L 202.032585 280.189091 
L 202.245418 276.116364 
L 209.907386 276.116364 
L 210.120219 275.607273 
L 234.808784 275.607273 
L 235.021616 267.970909 
L 243.747747 267.970909 
L 243.96058 267.461818 
L 255.666365 267.461818 
L 255.879197 264.916364 
L 261.625674 264.916364 
L 261.838506 262.370909 
L 288.655396 262.370909 
L 288.868229 255.243636 
L 305.46916 255.243636 
L 305.681993 253.207273 
L 306.32049 253.207273 
L 306.533323 251.170909 
L 306.746155 250.661818 
L 350.163977 250.661818 
L 350.376809 174.298182 
L 350.589642 172.770909 
L 363.998087 172.770909 
L 364.210919 131.534545 
L 368.893233 131.534545 
L 369.106066 125.934545 
L 372.93705 125.934545 
L 373.149883 124.916364 
L 374.426877 124.916364 
L 374.63971 123.389091 
L 375.916705 123.389091 
L 375.916705 123.389091 
" clip-path="url(#p101bfa4805)" style="fill: none; stroke: #db5f57; stroke-width: 1.2; stroke-linecap: round"/>
   </g>
   <g id="line2d_29">
    <path d="M 69.650795 486.88 
L 69.863628 480.261818 
L 70.289293 479.243636 
L 70.502125 479.243636 
L 70.714958 478.225455 
L 70.92779 478.225455 
L 71.353455 448.189091 
L 71.991953 431.898182 
L 72.204785 430.88 
L 72.417617 426.807273 
L 73.48178 426.807273 
L 73.694612 425.789091 
L 73.907445 425.789091 
L 74.33311 424.261818 
L 74.545942 423.752727 
L 74.971607 422.225455 
L 75.397272 422.225455 
L 75.610104 421.207273 
L 76.674267 421.207273 
L 77.099932 419.68 
L 77.525596 418.661818 
L 77.738429 417.643636 
L 78.589759 417.643636 
L 78.802591 417.134545 
L 79.228256 415.607273 
L 79.441089 415.098182 
L 80.292418 415.098182 
L 80.718083 414.08 
L 80.930916 408.989091 
L 81.143748 407.970909 
L 81.356581 407.970909 
L 81.569413 407.461818 
L 81.782246 405.934545 
L 81.995078 405.934545 
L 82.420743 378.443636 
L 82.633575 377.934545 
L 84.7619 377.934545 
L 84.974733 377.425455 
L 93.062366 377.425455 
L 93.275198 358.589091 
L 93.488031 358.589091 
L 93.700863 357.061818 
L 93.913696 356.552727 
L 98.383177 356.552727 
L 98.59601 356.043636 
L 106.470811 356.043636 
L 106.683643 343.825455 
L 120.304921 343.825455 
L 120.517753 339.243636 
L 120.730586 327.025455 
L 124.987235 327.025455 
L 125.200067 324.48 
L 127.966889 324.48 
L 128.179722 323.970909 
L 132.436371 323.970909 
L 132.649203 323.461818 
L 135.628858 323.461818 
L 135.84169 322.952727 
L 136.480188 322.952727 
L 136.69302 319.389091 
L 136.905853 319.389091 
L 137.118685 318.88 
L 139.885507 318.88 
L 140.09834 318.370909 
L 140.311172 318.370909 
L 140.524004 317.861818 
L 146.057648 317.861818 
L 146.270481 317.352727 
L 149.250135 317.352727 
L 149.462968 304.625455 
L 154.145282 304.625455 
L 154.358114 303.098182 
L 154.570947 303.098182 
L 154.783779 302.589091 
L 155.847942 302.589091 
L 156.060774 302.08 
L 156.273606 302.08 
L 156.486439 301.570909 
L 158.401931 301.570909 
L 158.827596 300.043636 
L 160.955921 300.043636 
L 161.168753 295.461818 
L 173.300203 295.461818 
L 173.513036 291.389091 
L 173.938701 291.389091 
L 174.151533 289.352727 
L 176.067025 289.352727 
L 176.279858 285.789091 
L 177.982517 285.789091 
L 178.19535 285.28 
L 182.877664 285.28 
L 183.090496 284.770909 
L 187.77281 284.770909 
L 187.985643 276.625455 
L 197.563104 276.625455 
L 197.775936 276.116364 
L 199.691428 276.116364 
L 199.904261 272.043636 
L 211.397213 272.043636 
L 211.610046 271.534545 
L 214.164035 271.534545 
L 214.376868 271.025455 
L 214.5897 271.025455 
L 215.015365 270.007273 
L 226.933983 270.007273 
L 227.146815 266.443636 
L 227.359648 265.934545 
L 229.487972 265.934545 
L 229.700805 264.407273 
L 234.170287 264.407273 
L 234.383119 263.389091 
L 249.281391 263.389091 
L 249.494224 260.843636 
L 258.646019 260.843636 
L 258.858852 260.334545 
L 261.838506 260.334545 
L 262.051339 258.298182 
L 265.243826 258.298182 
L 265.456658 256.770909 
L 268.22348 256.770909 
L 268.436313 256.261818 
L 272.905794 256.261818 
L 273.118627 255.752727 
L 280.993428 255.752727 
L 281.20626 255.243636 
L 292.912045 255.243636 
L 293.124878 250.152727 
L 299.297019 250.152727 
L 299.509852 249.643636 
L 312.279799 249.643636 
L 312.492632 246.589091 
L 361.231265 246.589091 
L 361.444097 246.08 
L 362.721092 246.08 
L 362.933925 245.570909 
L 363.998087 245.570909 
L 364.210919 232.843636 
L 364.423752 124.916364 
L 364.636584 124.916364 
L 364.849417 122.370909 
L 375.916705 122.370909 
L 375.916705 122.370909 
" clip-path="url(#p101bfa4805)" style="fill: none; stroke: #b9db57; stroke-width: 1.2; stroke-linecap: round"/>
   </g>
   <g id="line2d_30">
    <path d="M 69.650795 481.789091 
L 69.863628 457.861818 
L 70.714958 435.461818 
L 71.140623 428.843636 
L 71.353455 426.807273 
L 71.566288 426.298182 
L 71.991953 424.261818 
L 72.204785 420.189091 
L 72.417617 420.189091 
L 72.843282 419.170909 
L 73.056115 419.170909 
L 73.268947 418.152727 
L 73.694612 418.152727 
L 74.120277 416.625455 
L 74.33311 416.625455 
L 74.545942 415.607273 
L 74.758774 415.607273 
L 74.971607 415.098182 
L 75.184439 415.098182 
L 75.397272 414.08 
L 75.822937 414.08 
L 76.035769 413.570909 
L 76.248602 413.570909 
L 76.887099 412.043636 
L 77.099932 411.025455 
L 77.312764 411.025455 
L 77.525596 410.516364 
L 77.738429 410.516364 
L 77.951261 409.498182 
L 78.164094 409.498182 
L 78.589759 408.48 
L 78.802591 408.48 
L 79.015424 407.461818 
L 79.228256 407.461818 
L 80.079586 405.425455 
L 80.292418 405.425455 
L 80.505251 404.916364 
L 80.718083 404.916364 
L 80.930916 401.861818 
L 81.143748 373.861818 
L 81.356581 373.352727 
L 81.569413 373.352727 
L 81.782246 372.843636 
L 82.846408 372.843636 
L 83.05924 372.334545 
L 84.7619 372.334545 
L 84.974733 371.825455 
L 86.46456 371.825455 
L 86.890225 367.243636 
L 87.103057 366.734545 
L 87.528722 366.734545 
L 87.954387 365.716364 
L 88.167219 365.716364 
L 88.380052 364.698182 
L 89.018549 364.698182 
L 89.231382 364.189091 
L 89.657047 364.189091 
L 89.869879 363.68 
L 90.295544 363.68 
L 90.508376 362.661818 
L 90.721209 362.661818 
L 91.359706 360.116364 
L 91.572539 360.116364 
L 91.785371 359.098182 
L 91.998204 359.098182 
L 92.211036 358.589091 
L 92.423869 358.589091 
L 92.636701 357.570909 
L 92.849534 357.570909 
L 93.062366 357.061818 
L 94.126528 357.061818 
L 94.339361 356.552727 
L 94.552193 354.516364 
L 96.467685 354.516364 
L 96.680518 354.007273 
L 99.021675 354.007273 
L 99.234507 353.498182 
L 104.342486 353.498182 
L 104.555319 327.534545 
L 104.768151 327.025455 
L 109.663298 327.025455 
L 109.87613 326.007273 
L 110.088963 323.461818 
L 111.153125 323.461818 
L 111.365957 322.952727 
L 113.494282 322.952727 
L 113.707115 322.443636 
L 113.919947 318.88 
L 116.261104 318.88 
L 116.473937 318.370909 
L 121.794748 318.370909 
L 122.00758 309.716364 
L 132.862036 309.716364 
L 133.074868 304.116364 
L 137.54435 304.116364 
L 137.757182 299.534545 
L 137.970015 299.025455 
L 138.182847 296.989091 
L 141.800999 296.989091 
L 142.013832 295.461818 
L 144.993486 295.461818 
L 145.206319 293.934545 
L 145.419151 290.370909 
L 158.614763 290.370909 
L 158.827596 284.261818 
L 163.722743 284.261818 
L 163.935575 283.752727 
L 165.21257 283.752727 
L 165.425402 283.243636 
L 167.340894 283.243636 
L 167.553727 282.734545 
L 171.597544 282.734545 
L 171.810376 274.589091 
L 172.236041 274.589091 
L 172.448873 274.08 
L 173.513036 274.08 
L 173.725868 273.570909 
L 175.002863 273.570909 
L 175.215695 272.552727 
L 179.04668 272.552727 
L 179.259512 272.043636 
L 179.685177 272.043636 
L 179.898009 270.007273 
L 180.110842 269.498182 
L 180.749339 269.498182 
L 180.962172 263.389091 
L 181.175004 261.861818 
L 185.644486 261.861818 
L 185.857318 259.825455 
L 186.282983 259.825455 
L 186.495816 259.316364 
L 186.708648 259.316364 
L 186.921481 258.807273 
L 192.455125 258.807273 
L 192.667957 258.298182 
L 193.519287 258.298182 
L 193.732119 257.789091 
L 194.157784 257.789091 
L 194.370617 257.28 
L 195.434779 257.28 
L 195.647611 256.261818 
L 196.286109 256.261818 
L 196.498941 255.752727 
L 199.478596 255.752727 
L 199.691428 252.698182 
L 206.076402 252.698182 
L 206.289234 251.68 
L 219.910512 251.68 
L 220.123344 249.134545 
L 226.082653 249.134545 
L 226.295486 248.625455 
L 226.508318 246.589091 
L 226.933983 246.589091 
L 227.146815 246.08 
L 232.467627 246.08 
L 232.680459 244.043636 
L 245.237574 244.043636 
L 245.450407 242.516364 
L 250.771218 242.516364 
L 250.984051 242.007273 
L 257.156192 242.007273 
L 257.369025 240.989091 
L 268.010648 240.989091 
L 268.22348 240.48 
L 272.692962 240.48 
L 272.905794 235.898182 
L 273.118627 233.861818 
L 281.419093 233.861818 
L 281.844757 232.843636 
L 283.76025 232.843636 
L 283.973082 231.825455 
L 285.250077 231.825455 
L 285.462909 231.316364 
L 291.847883 231.316364 
L 292.060716 229.28 
L 292.48638 228.261818 
L 300.148349 228.261818 
L 300.361181 227.752727 
L 306.107658 227.752727 
L 306.32049 227.243636 
L 335.904202 227.243636 
L 336.117035 224.698182 
L 336.329867 224.189091 
L 336.5427 224.189091 
L 337.181197 218.589091 
L 337.394029 210.443636 
L 338.245359 203.316364 
L 338.671024 193.134545 
L 338.883857 192.116364 
L 339.096689 188.552727 
L 339.309522 188.043636 
L 339.522354 185.498182 
L 339.735186 185.498182 
L 339.948019 184.48 
L 340.160851 184.48 
L 340.373684 183.970909 
L 340.799349 183.970909 
L 341.437846 182.443636 
L 341.650679 182.443636 
L 342.289176 179.389091 
L 342.502008 174.807273 
L 342.714841 174.298182 
L 343.140506 171.752727 
L 343.353338 170.225455 
L 344.417501 170.225455 
L 345.055998 167.170909 
L 345.481663 167.170909 
L 345.907328 166.152727 
L 346.12016 166.152727 
L 346.332993 165.134545 
L 346.97149 165.134545 
L 347.609987 161.061818 
L 348.035652 161.061818 
L 348.248485 155.970909 
L 348.461317 155.461818 
L 348.67415 150.88 
L 349.312647 148.334545 
L 349.52548 148.334545 
L 349.951144 147.316364 
L 350.163977 147.316364 
L 350.376809 145.789091 
L 350.589642 145.789091 
L 350.802474 143.752727 
L 351.015307 143.243636 
L 351.653804 138.152727 
L 352.079469 135.098182 
L 352.292302 128.989091 
L 352.717966 127.970909 
L 352.930799 126.952727 
L 353.143631 126.952727 
L 353.569296 125.425455 
L 353.994961 125.425455 
L 354.207794 124.916364 
L 354.420626 123.389091 
L 354.846291 123.389091 
L 355.271956 119.316364 
L 355.484788 118.807273 
L 355.697621 118.807273 
L 355.910453 118.298182 
L 356.548951 118.298182 
L 356.761783 117.789091 
L 356.974616 117.789091 
L 357.187448 117.28 
L 357.613113 115.752727 
L 358.038778 115.752727 
L 358.25161 114.734545 
L 358.464443 110.152727 
L 358.890108 110.152727 
L 359.10294 109.643636 
L 359.315773 108.116364 
L 359.528605 107.607273 
L 359.741438 106.589091 
L 361.444097 106.589091 
L 361.65693 106.08 
L 363.572422 106.08 
L 363.785254 105.570909 
L 364.210919 101.498182 
L 364.636584 100.48 
L 364.849417 97.425455 
L 368.254736 97.425455 
L 368.467568 96.407273 
L 369.318898 96.407273 
L 369.531731 95.898182 
L 374.001212 95.898182 
L 374.426877 94.370909 
L 374.852542 94.370909 
L 375.065375 92.334545 
L 375.278207 91.825455 
L 375.703872 91.825455 
L 375.916705 91.316364 
L 375.916705 91.316364 
" clip-path="url(#p101bfa4805)" style="fill: none; stroke: #57db94; stroke-width: 1.2; stroke-linecap: round"/>
   </g>
   <g id="line2d_31">
    <path d="M 69.650795 482.552727 
L 69.863628 461.934545 
L 70.289293 452.261818 
L 70.502125 438.516364 
L 70.714958 435.970909 
L 70.92779 435.461818 
L 71.566288 431.898182 
L 71.77912 426.807273 
L 72.204785 425.789091 
L 72.63045 423.243636 
L 73.056115 415.098182 
L 73.268947 411.025455 
L 73.48178 410.007273 
L 73.694612 404.407273 
L 73.907445 404.407273 
L 74.120277 403.898182 
L 74.545942 403.898182 
L 75.184439 401.352727 
L 75.822937 399.825455 
L 76.035769 397.789091 
L 76.461434 397.789091 
L 76.674267 397.28 
L 76.887099 394.225455 
L 77.099932 394.225455 
L 77.312764 393.207273 
L 77.525596 387.098182 
L 77.738429 386.589091 
L 78.164094 386.589091 
L 78.376926 384.043636 
L 78.589759 383.025455 
L 79.228256 383.025455 
L 79.441089 381.498182 
L 79.653921 381.498182 
L 80.079586 380.48 
L 80.930916 380.48 
L 81.143748 379.970909 
L 82.207911 379.970909 
L 82.420743 378.952727 
L 82.633575 376.407273 
L 83.484905 376.407273 
L 83.697738 375.898182 
L 84.123403 372.843636 
L 84.549068 372.843636 
L 84.7619 371.825455 
L 85.187565 371.825455 
L 85.400397 370.298182 
L 85.826062 370.298182 
L 86.251727 369.28 
L 86.46456 369.28 
L 86.677392 368.770909 
L 86.890225 368.770909 
L 87.31589 367.243636 
L 87.954387 367.243636 
L 88.167219 366.225455 
L 88.380052 366.225455 
L 88.592884 361.134545 
L 89.444214 361.134545 
L 89.657047 360.625455 
L 91.359706 360.625455 
L 91.572539 359.098182 
L 92.636701 359.098182 
L 92.849534 358.589091 
L 93.700863 358.589091 
L 93.913696 358.08 
L 94.339361 358.08 
L 94.552193 353.498182 
L 94.765026 353.498182 
L 95.190691 352.48 
L 95.616356 350.443636 
L 99.234507 350.443636 
L 99.44734 346.88 
L 99.660172 346.370909 
L 101.149999 346.370909 
L 101.362832 345.861818 
L 102.426994 345.861818 
L 102.639827 345.352727 
L 104.768151 345.352727 
L 104.980984 342.807273 
L 109.237633 342.807273 
L 109.663298 341.789091 
L 109.87613 341.789091 
L 110.514628 340.261818 
L 110.940293 340.261818 
L 111.153125 338.734545 
L 112.004455 338.734545 
L 112.217287 336.698182 
L 113.707115 336.698182 
L 113.919947 335.68 
L 114.132779 331.607273 
L 114.345612 331.098182 
L 114.984109 331.098182 
L 115.196942 329.061818 
L 116.473937 329.061818 
L 116.686769 328.552727 
L 117.750931 328.552727 
L 117.963764 327.025455 
L 118.815094 327.025455 
L 119.027926 326.516364 
L 119.879256 326.516364 
L 120.092088 326.007273 
L 124.56157 326.007273 
L 124.774402 323.970909 
L 127.966889 323.970909 
L 128.179722 323.461818 
L 128.605387 323.461818 
L 128.818219 322.952727 
L 129.669549 322.952727 
L 129.882381 322.443636 
L 130.095214 322.443636 
L 130.308046 321.934545 
L 134.777528 321.934545 
L 134.99036 321.425455 
L 135.628858 321.425455 
L 136.054523 319.898182 
L 136.905853 319.898182 
L 137.118685 317.861818 
L 138.821345 317.861818 
L 139.034177 314.298182 
L 140.524004 314.298182 
L 140.736837 313.789091 
L 141.800999 313.789091 
L 142.013832 312.261818 
L 144.142156 312.261818 
L 144.567821 309.716364 
L 144.993486 309.716364 
L 145.206319 309.207273 
L 146.057648 309.207273 
L 146.270481 308.698182 
L 146.696146 308.698182 
L 146.908978 306.661818 
L 148.185973 306.661818 
L 149.037303 304.625455 
L 151.37846 304.625455 
L 151.591292 304.116364 
L 151.804125 304.116364 
L 152.016957 303.607273 
L 153.719617 303.607273 
L 153.932449 303.098182 
L 155.847942 303.098182 
L 156.060774 302.589091 
L 158.827596 302.589091 
L 159.040428 301.061818 
L 159.253261 300.552727 
L 160.104591 300.552727 
L 160.317423 300.043636 
L 160.743088 300.043636 
L 160.955921 299.534545 
L 161.594418 299.534545 
L 161.80725 295.461818 
L 162.871413 295.461818 
L 163.084245 294.952727 
L 167.340894 294.952727 
L 167.766559 292.916364 
L 168.830722 292.916364 
L 169.043554 292.407273 
L 172.448873 292.407273 
L 172.661706 291.898182 
L 173.300203 291.898182 
L 173.513036 290.370909 
L 173.725868 290.370909 
L 173.938701 289.861818 
L 175.002863 289.861818 
L 175.215695 289.352727 
L 175.428528 287.316364 
L 175.64136 287.316364 
L 175.854193 286.298182 
L 178.621015 286.298182 
L 178.833847 285.789091 
L 179.685177 285.789091 
L 179.898009 283.752727 
L 180.323674 283.752727 
L 180.536507 283.243636 
L 181.600669 283.243636 
L 181.813502 281.207273 
L 182.664831 281.207273 
L 183.090496 279.68 
L 184.367491 279.68 
L 184.793156 278.661818 
L 186.282983 278.661818 
L 186.495816 277.643636 
L 188.411308 277.643636 
L 188.62414 277.134545 
L 189.262638 277.134545 
L 189.47547 276.625455 
L 189.901135 276.625455 
L 190.113967 276.116364 
L 190.965297 276.116364 
L 191.17813 275.607273 
L 192.455125 275.607273 
L 192.667957 274.589091 
L 196.286109 274.589091 
L 196.498941 274.08 
L 197.137439 274.08 
L 197.350271 273.061818 
L 203.948077 273.061818 
L 204.16091 272.552727 
L 207.991894 272.552727 
L 208.204727 272.043636 
L 214.802533 272.043636 
L 215.015365 270.516364 
L 216.718025 270.516364 
L 216.930857 270.007273 
L 220.974674 270.007273 
L 221.400339 268.48 
L 224.592826 268.48 
L 224.805658 267.970909 
L 227.359648 267.970909 
L 227.57248 266.952727 
L 228.210978 266.952727 
L 228.42381 266.443636 
L 228.636643 265.425455 
L 233.318957 265.425455 
L 233.531789 264.916364 
L 233.957454 264.916364 
L 234.170287 264.407273 
L 240.55526 264.407273 
L 240.768093 263.898182 
L 244.81191 263.898182 
L 245.024742 263.389091 
L 245.450407 263.389091 
L 245.663239 262.88 
L 246.088904 262.88 
L 246.301737 262.370909 
L 248.855726 262.370909 
L 249.068559 261.861818 
L 250.771218 261.861818 
L 250.984051 261.352727 
L 258.858852 261.352727 
L 259.284517 260.334545 
L 260.348679 260.334545 
L 260.987176 258.807273 
L 261.625674 258.807273 
L 261.838506 257.789091 
L 263.753998 257.789091 
L 263.966831 257.28 
L 264.818161 257.28 
L 265.030993 256.770909 
L 265.243826 256.770909 
L 265.456658 256.261818 
L 268.22348 256.261818 
L 268.436313 255.752727 
L 273.544292 255.752727 
L 273.757124 255.243636 
L 279.716433 255.243636 
L 279.929265 254.734545 
L 282.90892 254.734545 
L 283.121752 253.716364 
L 283.973082 253.716364 
L 284.185915 251.170909 
L 285.462909 251.170909 
L 285.675742 250.661818 
L 292.060716 250.661818 
L 292.273548 250.152727 
L 292.912045 250.152727 
L 293.124878 249.643636 
L 298.658522 249.643636 
L 298.871354 249.134545 
L 302.915171 249.134545 
L 303.128003 248.625455 
L 307.810318 248.625455 
L 308.02315 246.08 
L 341.012181 246.08 
L 341.225014 217.061818 
L 341.437846 216.043636 
L 341.863511 216.043636 
L 342.076343 215.025455 
L 342.502008 215.025455 
L 342.714841 208.916364 
L 343.566171 208.916364 
L 343.779003 205.352727 
L 346.12016 205.352727 
L 346.332993 202.298182 
L 348.035652 202.298182 
L 348.248485 201.789091 
L 348.461317 192.625455 
L 348.886982 192.625455 
L 349.099815 186.007273 
L 349.52548 186.007273 
L 349.738312 185.498182 
L 349.951144 184.48 
L 350.376809 184.48 
L 350.589642 181.934545 
L 350.802474 181.425455 
L 351.015307 178.88 
L 351.228139 178.88 
L 351.440972 178.370909 
L 351.653804 178.370909 
L 351.866637 174.298182 
L 352.079469 174.298182 
L 352.292302 169.716364 
L 352.930799 169.716364 
L 353.143631 167.68 
L 353.569296 167.68 
L 354.633459 163.098182 
L 355.059124 163.098182 
L 355.271956 160.043636 
L 355.910453 160.043636 
L 356.123286 159.025455 
L 356.761783 159.025455 
L 356.974616 158.516364 
L 357.187448 158.516364 
L 357.400281 157.498182 
L 358.038778 157.498182 
L 358.25161 156.48 
L 358.464443 156.48 
L 358.677275 153.425455 
L 359.10294 153.425455 
L 359.315773 151.898182 
L 359.528605 151.898182 
L 359.741438 150.88 
L 360.167103 150.88 
L 360.379935 149.861818 
L 361.65693 149.861818 
L 361.869762 149.352727 
L 362.295427 149.352727 
L 362.50826 148.843636 
L 363.359589 148.843636 
L 363.572422 147.825455 
L 363.785254 147.825455 
L 363.998087 147.316364 
L 364.210919 144.261818 
L 364.636584 144.261818 
L 364.849417 142.225455 
L 365.275082 142.225455 
L 365.487914 141.207273 
L 366.977741 141.207273 
L 367.190574 140.698182 
L 368.041904 140.698182 
L 368.254736 140.189091 
L 370.170228 140.189091 
L 370.383061 139.68 
L 371.021558 139.68 
L 371.23439 139.170909 
L 371.872888 139.170909 
L 372.08572 138.661818 
L 374.426877 138.661818 
L 374.63971 138.152727 
L 375.065375 138.152727 
L 375.278207 134.589091 
L 375.916705 134.589091 
L 375.916705 134.589091 
" clip-path="url(#p101bfa4805)" style="fill: none; stroke: #5784db; stroke-width: 1.2; stroke-linecap: round"/>
   </g>
   <g id="line2d_32">
    <path d="M 69.650795 480.007273 
L 69.863628 448.698182 
L 70.502125 430.88 
L 70.92779 426.298182 
L 71.566288 419.68 
L 71.77912 418.661818 
L 71.991953 416.625455 
L 72.417617 410.007273 
L 72.63045 408.989091 
L 73.268947 398.807273 
L 73.48178 398.298182 
L 73.694612 396.261818 
L 73.907445 396.261818 
L 74.120277 394.734545 
L 74.33311 394.225455 
L 74.545942 394.225455 
L 75.397272 390.152727 
L 75.610104 390.152727 
L 76.035769 388.116364 
L 76.674267 388.116364 
L 77.099932 386.589091 
L 77.312764 386.08 
L 77.525596 380.989091 
L 78.589759 376.407273 
L 78.802591 376.407273 
L 79.015424 375.389091 
L 79.228256 375.389091 
L 79.441089 374.88 
L 79.653921 374.88 
L 79.866754 374.370909 
L 80.079586 373.352727 
L 80.718083 373.352727 
L 80.930916 371.316364 
L 81.569413 369.789091 
L 81.782246 368.770909 
L 82.207911 368.770909 
L 82.420743 368.261818 
L 82.846408 368.261818 
L 83.05924 367.752727 
L 83.272073 367.752727 
L 83.697738 366.734545 
L 84.123403 363.68 
L 84.7619 363.68 
L 84.974733 362.661818 
L 85.187565 362.661818 
L 85.61323 360.116364 
L 85.826062 360.116364 
L 86.038895 359.607273 
L 86.46456 359.607273 
L 86.677392 357.061818 
L 86.890225 356.552727 
L 87.31589 355.025455 
L 88.380052 352.48 
L 88.592884 352.48 
L 88.805717 351.970909 
L 89.444214 351.970909 
L 89.869879 350.952727 
L 90.934041 350.952727 
L 91.146874 350.443636 
L 91.359706 349.425455 
L 91.572539 349.425455 
L 91.785371 348.916364 
L 91.998204 348.916364 
L 92.211036 348.407273 
L 92.423869 348.407273 
L 93.062366 346.88 
L 93.275198 345.861818 
L 93.488031 345.861818 
L 93.913696 343.316364 
L 94.126528 343.316364 
L 94.339361 342.807273 
L 94.552193 340.770909 
L 94.765026 340.770909 
L 95.190691 339.752727 
L 95.403523 339.752727 
L 95.616356 338.734545 
L 96.254853 338.734545 
L 96.467685 338.225455 
L 96.680518 338.225455 
L 96.89335 337.716364 
L 98.383177 337.716364 
L 98.59601 336.189091 
L 99.021675 336.189091 
L 99.44734 334.661818 
L 99.660172 334.152727 
L 101.149999 334.152727 
L 101.362832 333.643636 
L 102.426994 333.643636 
L 102.639827 333.134545 
L 104.342486 333.134545 
L 104.555319 329.061818 
L 104.768151 328.552727 
L 109.237633 328.552727 
L 109.663298 327.534545 
L 110.514628 323.970909 
L 110.940293 323.970909 
L 111.153125 322.443636 
L 111.365957 321.934545 
L 113.494282 321.934545 
L 113.707115 321.425455 
L 113.919947 319.389091 
L 114.132779 315.316364 
L 114.345612 314.298182 
L 116.261104 314.298182 
L 116.686769 313.28 
L 117.750931 313.28 
L 117.963764 311.752727 
L 118.815094 311.752727 
L 119.027926 311.243636 
L 119.879256 311.243636 
L 120.092088 310.734545 
L 124.56157 310.734545 
L 124.774402 308.698182 
L 127.966889 308.698182 
L 128.179722 307.68 
L 128.605387 307.68 
L 128.818219 307.170909 
L 130.095214 307.170909 
L 130.308046 306.661818 
L 132.436371 306.661818 
L 132.649203 306.152727 
L 132.862036 306.152727 
L 133.074868 305.134545 
L 135.628858 305.134545 
L 136.054523 303.607273 
L 136.905853 303.607273 
L 137.118685 301.061818 
L 137.54435 301.061818 
L 137.757182 298.007273 
L 139.885507 298.007273 
L 140.09834 297.498182 
L 140.311172 297.498182 
L 140.524004 296.989091 
L 141.800999 296.989091 
L 142.013832 295.461818 
L 144.142156 295.461818 
L 144.354989 293.934545 
L 144.567821 293.425455 
L 144.993486 293.425455 
L 145.206319 291.389091 
L 145.419151 290.88 
L 146.057648 290.88 
L 146.270481 289.861818 
L 148.185973 289.861818 
L 149.037303 287.825455 
L 151.37846 287.825455 
L 151.591292 287.316364 
L 151.804125 287.316364 
L 152.016957 286.807273 
L 153.719617 286.807273 
L 153.932449 286.298182 
L 154.570947 286.298182 
L 154.783779 285.789091 
L 155.847942 285.789091 
L 156.060774 285.28 
L 158.401931 285.28 
L 158.827596 283.752727 
L 159.040428 283.752727 
L 159.253261 283.243636 
L 160.104591 283.243636 
L 160.317423 282.734545 
L 160.955921 282.734545 
L 161.168753 278.661818 
L 162.871413 278.661818 
L 163.084245 278.152727 
L 165.21257 278.152727 
L 165.425402 277.643636 
L 167.340894 277.643636 
L 167.766559 275.098182 
L 168.830722 275.098182 
L 169.043554 274.589091 
L 172.236041 274.589091 
L 172.448873 274.08 
L 173.300203 274.08 
L 173.513036 272.552727 
L 173.938701 271.534545 
L 175.002863 271.534545 
L 175.215695 270.516364 
L 175.428528 268.48 
L 175.64136 268.48 
L 175.854193 267.461818 
L 177.982517 267.461818 
L 178.19535 266.952727 
L 178.621015 266.952727 
L 178.833847 266.443636 
L 179.04668 266.443636 
L 179.259512 265.934545 
L 179.685177 265.934545 
L 179.898009 263.898182 
L 180.323674 263.898182 
L 180.536507 263.389091 
L 180.749339 263.389091 
L 180.962172 262.88 
L 181.175004 261.352727 
L 182.664831 261.352727 
L 183.090496 259.316364 
L 184.580324 259.316364 
L 184.793156 258.807273 
L 186.282983 258.807273 
L 186.495816 257.28 
L 186.708648 257.28 
L 186.921481 256.770909 
L 188.411308 256.770909 
L 188.62414 256.261818 
L 189.262638 256.261818 
L 189.47547 255.752727 
L 189.901135 255.752727 
L 190.113967 255.243636 
L 190.965297 255.243636 
L 191.17813 254.734545 
L 192.455125 254.734545 
L 192.667957 253.716364 
L 195.434779 253.716364 
L 195.647611 253.207273 
L 196.286109 253.207273 
L 196.498941 252.189091 
L 206.076402 252.189091 
L 206.289234 251.170909 
L 214.164035 251.170909 
L 214.376868 250.661818 
L 214.5897 250.661818 
L 215.015365 249.643636 
L 216.718025 249.643636 
L 216.930857 249.134545 
L 219.910512 249.134545 
L 220.123344 248.625455 
L 220.974674 248.625455 
L 221.400339 247.098182 
L 224.592826 247.098182 
L 224.805658 246.589091 
L 226.295486 246.589091 
L 226.508318 246.08 
L 226.933983 246.08 
L 227.146815 245.570909 
L 228.210978 245.570909 
L 228.42381 245.061818 
L 228.636643 244.043636 
L 232.467627 244.043636 
L 232.680459 243.534545 
L 233.957454 243.534545 
L 234.170287 243.025455 
L 240.55526 243.025455 
L 240.768093 242.516364 
L 244.81191 242.516364 
L 245.024742 242.007273 
L 245.450407 242.007273 
L 245.663239 241.498182 
L 246.088904 241.498182 
L 246.301737 240.989091 
L 248.855726 240.989091 
L 249.068559 240.48 
L 258.646019 240.48 
L 259.071684 239.461818 
L 260.561512 239.461818 
L 260.987176 238.443636 
L 261.625674 238.443636 
L 261.838506 237.425455 
L 263.753998 237.425455 
L 263.966831 236.916364 
L 264.818161 236.916364 
L 265.030993 236.407273 
L 265.243826 236.407273 
L 265.456658 235.898182 
L 268.010648 235.898182 
L 268.22348 235.389091 
L 272.692962 235.389091 
L 272.905794 234.370909 
L 273.118627 232.334545 
L 279.716433 232.334545 
L 279.929265 231.825455 
L 281.419093 231.825455 
L 281.844757 230.807273 
L 282.90892 230.807273 
L 283.121752 230.298182 
L 283.973082 230.298182 
L 284.185915 228.261818 
L 285.250077 228.261818 
L 285.462909 227.752727 
L 292.060716 227.752727 
L 292.48638 226.734545 
L 298.658522 226.734545 
L 298.871354 226.225455 
L 302.915171 226.225455 
L 303.128003 225.716364 
L 306.32049 225.716364 
L 306.533323 223.68 
L 306.746155 223.170909 
L 336.5427 223.170909 
L 337.181197 217.570909 
L 337.394029 209.425455 
L 338.245359 202.298182 
L 338.671024 192.116364 
L 338.883857 191.098182 
L 339.096689 187.534545 
L 339.309522 187.025455 
L 339.522354 184.48 
L 339.735186 184.48 
L 339.948019 183.461818 
L 340.160851 183.461818 
L 340.373684 182.952727 
L 340.799349 182.952727 
L 341.437846 181.425455 
L 341.650679 181.425455 
L 342.289176 178.370909 
L 342.502008 173.789091 
L 342.714841 173.28 
L 343.140506 170.734545 
L 343.353338 169.207273 
L 344.417501 169.207273 
L 345.055998 166.152727 
L 345.481663 166.152727 
L 345.907328 165.134545 
L 346.12016 165.134545 
L 346.332993 164.116364 
L 346.97149 164.116364 
L 347.609987 160.043636 
L 348.035652 160.043636 
L 348.248485 154.443636 
L 348.461317 153.934545 
L 348.67415 149.352727 
L 349.312647 146.807273 
L 349.52548 146.807273 
L 349.738312 146.298182 
L 349.951144 145.28 
L 350.163977 145.28 
L 350.376809 143.752727 
L 350.589642 143.243636 
L 350.802474 140.698182 
L 351.015307 140.189091 
L 351.228139 140.189091 
L 351.866637 134.589091 
L 352.079469 133.570909 
L 352.292302 127.461818 
L 352.717966 126.443636 
L 352.930799 125.425455 
L 353.143631 125.425455 
L 353.569296 123.898182 
L 353.782129 123.898182 
L 354.633459 120.334545 
L 354.846291 120.334545 
L 355.059124 119.825455 
L 355.271956 117.28 
L 355.484788 116.770909 
L 355.697621 116.770909 
L 355.910453 116.261818 
L 356.548951 116.261818 
L 356.761783 115.752727 
L 356.974616 115.752727 
L 357.613113 114.225455 
L 358.038778 114.225455 
L 358.25161 113.207273 
L 358.464443 108.625455 
L 358.890108 108.625455 
L 359.10294 108.116364 
L 359.315773 106.589091 
L 359.528605 106.08 
L 359.741438 105.061818 
L 361.231265 105.061818 
L 361.444097 104.552727 
L 363.359589 104.552727 
L 363.998087 100.989091 
L 364.210919 98.443636 
L 364.636584 97.425455 
L 364.849417 95.898182 
L 366.977741 95.898182 
L 367.190574 95.389091 
L 368.041904 95.389091 
L 368.254736 94.88 
L 369.318898 94.88 
L 369.531731 94.370909 
L 371.021558 94.370909 
L 371.23439 93.861818 
L 374.001212 93.861818 
L 374.426877 92.334545 
L 374.852542 92.334545 
L 375.065375 90.298182 
L 375.278207 89.789091 
L 375.703872 89.789091 
L 375.916705 89.28 
L 375.916705 89.28 
" clip-path="url(#p101bfa4805)" style="fill: none; stroke: #c957db; stroke-width: 1.2; stroke-linecap: round"/>
   </g>
   <g id="line2d_33"/>
   <g id="line2d_34"/>
   <g id="line2d_35"/>
   <g id="line2d_36"/>
   <g id="line2d_37"/>
   <g id="patch_3">
    <path d="M 54.3375 512.64 
L 54.3375 69.12 
" style="fill: none; stroke: #cccccc; stroke-linejoin: miter; stroke-linecap: square"/>
   </g>
   <g id="patch_4">
    <path d="M 54.3375 512.64 
L 391.23 512.64 
" style="fill: none; stroke: #cccccc; stroke-linejoin: miter; stroke-linecap: square"/>
   </g>
   <g id="text_30">
    <!-- Edge Coverage History -->
    <g style="fill: #262626" transform="translate(115.892262 63.12)scale(0.165888 -0.165888)">
     <defs>
      <path id="DejaVuSans-Bold-45" d="M 588 4666 
L 3834 4666 
L 3834 3756 
L 1791 3756 
L 1791 2888 
L 3713 2888 
L 3713 1978 
L 1791 1978 
L 1791 909 
L 3903 909 
L 3903 0 
L 588 0 
L 588 4666 
z
" transform="scale(0.015625)"/>
      <path id="DejaVuSans-Bold-64" d="M 2919 2988 
L 2919 4863 
L 4044 4863 
L 4044 0 
L 2919 0 
L 2919 506 
Q 2688 197 2409 53 
Q 2131 -91 1766 -91 
Q 1119 -91 703 423 
Q 288 938 288 1747 
Q 288 2556 703 3070 
Q 1119 3584 1766 3584 
Q 2128 3584 2408 3439 
Q 2688 3294 2919 2988 
z
M 2181 722 
Q 2541 722 2730 984 
Q 2919 1247 2919 1747 
Q 2919 2247 2730 2509 
Q 2541 2772 2181 2772 
Q 1825 2772 1636 2509 
Q 1447 2247 1447 1747 
Q 1447 1247 1636 984 
Q 1825 722 2181 722 
z
" transform="scale(0.015625)"/>
      <path id="DejaVuSans-Bold-67" d="M 2919 594 
Q 2688 288 2409 144 
Q 2131 0 1766 0 
Q 1125 0 706 504 
Q 288 1009 288 1791 
Q 288 2575 706 3076 
Q 1125 3578 1766 3578 
Q 2131 3578 2409 3434 
Q 2688 3291 2919 2981 
L 2919 3500 
L 4044 3500 
L 4044 353 
Q 4044 -491 3511 -936 
Q 2978 -1381 1966 -1381 
Q 1638 -1381 1331 -1331 
Q 1025 -1281 716 -1178 
L 716 -306 
Q 1009 -475 1290 -558 
Q 1572 -641 1856 -641 
Q 2406 -641 2662 -400 
Q 2919 -159 2919 353 
L 2919 594 
z
M 2181 2772 
Q 1834 2772 1640 2515 
Q 1447 2259 1447 1791 
Q 1447 1309 1634 1061 
Q 1822 813 2181 813 
Q 2531 813 2725 1069 
Q 2919 1325 2919 1791 
Q 2919 2259 2725 2515 
Q 2531 2772 2181 2772 
z
" transform="scale(0.015625)"/>
      <path id="DejaVuSans-Bold-65" d="M 4031 1759 
L 4031 1441 
L 1416 1441 
Q 1456 1047 1700 850 
Q 1944 653 2381 653 
Q 2734 653 3104 758 
Q 3475 863 3866 1075 
L 3866 213 
Q 3469 63 3072 -14 
Q 2675 -91 2278 -91 
Q 1328 -91 801 392 
Q 275 875 275 1747 
Q 275 2603 792 3093 
Q 1309 3584 2216 3584 
Q 3041 3584 3536 3087 
Q 4031 2591 4031 1759 
z
M 2881 2131 
Q 2881 2450 2695 2645 
Q 2509 2841 2209 2841 
Q 1884 2841 1681 2658 
Q 1478 2475 1428 2131 
L 2881 2131 
z
" transform="scale(0.015625)"/>
      <path id="DejaVuSans-Bold-20" transform="scale(0.015625)"/>
      <path id="DejaVuSans-Bold-43" d="M 4288 256 
Q 3956 84 3597 -3 
Q 3238 -91 2847 -91 
Q 1681 -91 1000 561 
Q 319 1213 319 2328 
Q 319 3447 1000 4098 
Q 1681 4750 2847 4750 
Q 3238 4750 3597 4662 
Q 3956 4575 4288 4403 
L 4288 3438 
Q 3953 3666 3628 3772 
Q 3303 3878 2944 3878 
Q 2300 3878 1931 3465 
Q 1563 3053 1563 2328 
Q 1563 1606 1931 1193 
Q 2300 781 2944 781 
Q 3303 781 3628 887 
Q 3953 994 4288 1222 
L 4288 256 
z
" transform="scale(0.015625)"/>
      <path id="DejaVuSans-Bold-6f" d="M 2203 2784 
Q 1831 2784 1636 2517 
Q 1441 2250 1441 1747 
Q 1441 1244 1636 976 
Q 1831 709 2203 709 
Q 2569 709 2762 976 
Q 2956 1244 2956 1747 
Q 2956 2250 2762 2517 
Q 2569 2784 2203 2784 
z
M 2203 3584 
Q 3106 3584 3614 3096 
Q 4122 2609 4122 1747 
Q 4122 884 3614 396 
Q 3106 -91 2203 -91 
Q 1297 -91 786 396 
Q 275 884 275 1747 
Q 275 2609 786 3096 
Q 1297 3584 2203 3584 
z
" transform="scale(0.015625)"/>
      <path id="DejaVuSans-Bold-76" d="M 97 3500 
L 1216 3500 
L 2088 1081 
L 2956 3500 
L 4078 3500 
L 2700 0 
L 1472 0 
L 97 3500 
z
" transform="scale(0.015625)"/>
      <path id="DejaVuSans-Bold-72" d="M 3138 2547 
Q 2991 2616 2845 2648 
Q 2700 2681 2553 2681 
Q 2122 2681 1889 2404 
Q 1656 2128 1656 1613 
L 1656 0 
L 538 0 
L 538 3500 
L 1656 3500 
L 1656 2925 
Q 1872 3269 2151 3426 
Q 2431 3584 2822 3584 
Q 2878 3584 2943 3579 
Q 3009 3575 3134 3559 
L 3138 2547 
z
" transform="scale(0.015625)"/>
      <path id="DejaVuSans-Bold-61" d="M 2106 1575 
Q 1756 1575 1579 1456 
Q 1403 1338 1403 1106 
Q 1403 894 1545 773 
Q 1688 653 1941 653 
Q 2256 653 2472 879 
Q 2688 1106 2688 1447 
L 2688 1575 
L 2106 1575 
z
M 3816 1997 
L 3816 0 
L 2688 0 
L 2688 519 
Q 2463 200 2181 54 
Q 1900 -91 1497 -91 
Q 953 -91 614 226 
Q 275 544 275 1050 
Q 275 1666 698 1953 
Q 1122 2241 2028 2241 
L 2688 2241 
L 2688 2328 
Q 2688 2594 2478 2717 
Q 2269 2841 1825 2841 
Q 1466 2841 1156 2769 
Q 847 2697 581 2553 
L 581 3406 
Q 941 3494 1303 3539 
Q 1666 3584 2028 3584 
Q 2975 3584 3395 3211 
Q 3816 2838 3816 1997 
z
" transform="scale(0.015625)"/>
      <path id="DejaVuSans-Bold-48" d="M 588 4666 
L 1791 4666 
L 1791 2888 
L 3566 2888 
L 3566 4666 
L 4769 4666 
L 4769 0 
L 3566 0 
L 3566 1978 
L 1791 1978 
L 1791 0 
L 588 0 
L 588 4666 
z
" transform="scale(0.015625)"/>
      <path id="DejaVuSans-Bold-69" d="M 538 3500 
L 1656 3500 
L 1656 0 
L 538 0 
L 538 3500 
z
M 538 4863 
L 1656 4863 
L 1656 3950 
L 538 3950 
L 538 4863 
z
" transform="scale(0.015625)"/>
      <path id="DejaVuSans-Bold-73" d="M 3272 3391 
L 3272 2541 
Q 2913 2691 2578 2766 
Q 2244 2841 1947 2841 
Q 1628 2841 1473 2761 
Q 1319 2681 1319 2516 
Q 1319 2381 1436 2309 
Q 1553 2238 1856 2203 
L 2053 2175 
Q 2913 2066 3209 1816 
Q 3506 1566 3506 1031 
Q 3506 472 3093 190 
Q 2681 -91 1863 -91 
Q 1516 -91 1145 -36 
Q 775 19 384 128 
L 384 978 
Q 719 816 1070 734 
Q 1422 653 1784 653 
Q 2113 653 2278 743 
Q 2444 834 2444 1013 
Q 2444 1163 2330 1236 
Q 2216 1309 1875 1350 
L 1678 1375 
Q 931 1469 631 1722 
Q 331 1975 331 2491 
Q 331 3047 712 3315 
Q 1094 3584 1881 3584 
Q 2191 3584 2531 3537 
Q 2872 3491 3272 3391 
z
" transform="scale(0.015625)"/>
      <path id="DejaVuSans-Bold-74" d="M 1759 4494 
L 1759 3500 
L 2913 3500 
L 2913 2700 
L 1759 2700 
L 1759 1216 
Q 1759 972 1856 886 
Q 1953 800 2241 800 
L 2816 800 
L 2816 0 
L 1856 0 
Q 1194 0 917 276 
Q 641 553 641 1216 
L 641 2700 
L 84 2700 
L 84 3500 
L 641 3500 
L 641 4494 
L 1759 4494 
z
" transform="scale(0.015625)"/>
      <path id="DejaVuSans-Bold-79" d="M 78 3500 
L 1197 3500 
L 2138 1125 
L 2938 3500 
L 4056 3500 
L 2584 -331 
Q 2363 -916 2067 -1148 
Q 1772 -1381 1288 -1381 
L 641 -1381 
L 641 -647 
L 991 -647 
Q 1275 -647 1404 -556 
Q 1534 -466 1606 -231 
L 1638 -134 
L 78 3500 
z
" transform="scale(0.015625)"/>
     </defs>
     <use xlink:href="#DejaVuSans-Bold-45"/>
     <use xlink:href="#DejaVuSans-Bold-64" x="68.310547"/>
     <use xlink:href="#DejaVuSans-Bold-67" x="139.892578"/>
     <use xlink:href="#DejaVuSans-Bold-65" x="211.474609"/>
     <use xlink:href="#DejaVuSans-Bold-20" x="279.296875"/>
     <use xlink:href="#DejaVuSans-Bold-43" x="314.111328"/>
     <use xlink:href="#DejaVuSans-Bold-6f" x="387.5"/>
     <use xlink:href="#DejaVuSans-Bold-76" x="456.201172"/>
     <use xlink:href="#DejaVuSans-Bold-65" x="521.386719"/>
     <use xlink:href="#DejaVuSans-Bold-72" x="589.208984"/>
     <use xlink:href="#DejaVuSans-Bold-61" x="638.525391"/>
     <use xlink:href="#DejaVuSans-Bold-67" x="706.005859"/>
     <use xlink:href="#DejaVuSans-Bold-65" x="777.587891"/>
     <use xlink:href="#DejaVuSans-Bold-20" x="845.410156"/>
     <use xlink:href="#DejaVuSans-Bold-48" x="880.224609"/>
     <use xlink:href="#DejaVuSans-Bold-69" x="963.916016"/>
     <use xlink:href="#DejaVuSans-Bold-73" x="998.193359"/>
     <use xlink:href="#DejaVuSans-Bold-74" x="1057.714844"/>
     <use xlink:href="#DejaVuSans-Bold-6f" x="1105.517578"/>
     <use xlink:href="#DejaVuSans-Bold-72" x="1174.21875"/>
     <use xlink:href="#DejaVuSans-Bold-79" x="1223.535156"/>
    </g>
   </g>
   <g id="legend_1">
    <g id="patch_5">
     <path d="M 60.4975 154.6795 
L 177.6255 154.6795 
Q 179.3855 154.6795 179.3855 152.9195 
L 179.3855 75.28 
Q 179.3855 73.52 177.6255 73.52 
L 60.4975 73.52 
Q 58.7375 73.52 58.7375 75.28 
L 58.7375 152.9195 
Q 58.7375 154.6795 60.4975 154.6795 
z
" style="fill: #ffffff; opacity: 0.8; stroke: #cccccc; stroke-width: 0.8; stroke-linejoin: miter"/>
    </g>
    <g id="text_31">
     <!-- fuzzer -->
     <g style="fill: #262626" transform="translate(104.3645 84.3345)scale(0.096 -0.096)">
      <defs>
       <path id="DejaVuSans-66" d="M 2375 4863 
L 2375 4384 
L 1825 4384 
Q 1516 4384 1395 4259 
Q 1275 4134 1275 3809 
L 1275 3500 
L 2222 3500 
L 2222 3053 
L 1275 3053 
L 1275 0 
L 697 0 
L 697 3053 
L 147 3053 
L 147 3500 
L 697 3500 
L 697 3744 
Q 697 4328 969 4595 
Q 1241 4863 1831 4863 
L 2375 4863 
z
" transform="scale(0.015625)"/>
       <path id="DejaVuSans-7a" d="M 353 3500 
L 3084 3500 
L 3084 2975 
L 922 459 
L 3084 459 
L 3084 0 
L 275 0 
L 275 525 
L 2438 3041 
L 353 3041 
L 353 3500 
z
" transform="scale(0.015625)"/>
      </defs>
      <use xlink:href="#DejaVuSans-66"/>
      <use xlink:href="#DejaVuSans-75" x="35.205078"/>
      <use xlink:href="#DejaVuSans-7a" x="98.583984"/>
      <use xlink:href="#DejaVuSans-7a" x="151.074219"/>
      <use xlink:href="#DejaVuSans-65" x="203.564453"/>
      <use xlink:href="#DejaVuSans-72" x="265.087891"/>
     </g>
    </g>
    <g id="line2d_38">
     <path d="M 62.2575 94.337625 
L 71.0575 94.337625 
L 79.8575 94.337625 
" style="fill: none; stroke: #db5f57; stroke-width: 1.2; stroke-linecap: round"/>
    </g>
    <g id="text_32">
     <!-- aflplusplus-0-exid23 -->
     <g style="fill: #262626" transform="translate(86.8975 97.417625)scale(0.088 -0.088)">
      <defs>
       <path id="DejaVuSans-6c" d="M 603 4863 
L 1178 4863 
L 1178 0 
L 603 0 
L 603 4863 
z
" transform="scale(0.015625)"/>
       <path id="DejaVuSans-70" d="M 1159 525 
L 1159 -1331 
L 581 -1331 
L 581 3500 
L 1159 3500 
L 1159 2969 
Q 1341 3281 1617 3432 
Q 1894 3584 2278 3584 
Q 2916 3584 3314 3078 
Q 3713 2572 3713 1747 
Q 3713 922 3314 415 
Q 2916 -91 2278 -91 
Q 1894 -91 1617 61 
Q 1341 213 1159 525 
z
M 3116 1747 
Q 3116 2381 2855 2742 
Q 2594 3103 2138 3103 
Q 1681 3103 1420 2742 
Q 1159 2381 1159 1747 
Q 1159 1113 1420 752 
Q 1681 391 2138 391 
Q 2594 391 2855 752 
Q 3116 1113 3116 1747 
z
" transform="scale(0.015625)"/>
       <path id="DejaVuSans-2d" d="M 313 2009 
L 1997 2009 
L 1997 1497 
L 313 1497 
L 313 2009 
z
" transform="scale(0.015625)"/>
       <path id="DejaVuSans-78" d="M 3513 3500 
L 2247 1797 
L 3578 0 
L 2900 0 
L 1881 1375 
L 863 0 
L 184 0 
L 1544 1831 
L 300 3500 
L 978 3500 
L 1906 2253 
L 2834 3500 
L 3513 3500 
z
" transform="scale(0.015625)"/>
      </defs>
      <use xlink:href="#DejaVuSans-61"/>
      <use xlink:href="#DejaVuSans-66" x="61.279297"/>
      <use xlink:href="#DejaVuSans-6c" x="96.484375"/>
      <use xlink:href="#DejaVuSans-70" x="124.267578"/>
      <use xlink:href="#DejaVuSans-6c" x="187.744141"/>
      <use xlink:href="#DejaVuSans-75" x="215.527344"/>
      <use xlink:href="#DejaVuSans-73" x="278.90625"/>
      <use xlink:href="#DejaVuSans-70" x="331.005859"/>
      <use xlink:href="#DejaVuSans-6c" x="394.482422"/>
      <use xlink:href="#DejaVuSans-75" x="422.265625"/>
      <use xlink:href="#DejaVuSans-73" x="485.644531"/>
      <use xlink:href="#DejaVuSans-2d" x="537.744141"/>
      <use xlink:href="#DejaVuSans-30" x="573.828125"/>
      <use xlink:href="#DejaVuSans-2d" x="637.451172"/>
      <use xlink:href="#DejaVuSans-65" x="673.535156"/>
      <use xlink:href="#DejaVuSans-78" x="733.308594"/>
      <use xlink:href="#DejaVuSans-69" x="792.488281"/>
      <use xlink:href="#DejaVuSans-64" x="820.271484"/>
      <use xlink:href="#DejaVuSans-32" x="883.748047"/>
      <use xlink:href="#DejaVuSans-33" x="947.371094"/>
     </g>
    </g>
    <g id="line2d_39">
     <path d="M 62.2575 107.254375 
L 71.0575 107.254375 
L 79.8575 107.254375 
" style="fill: none; stroke: #b9db57; stroke-width: 1.2; stroke-linecap: round"/>
    </g>
    <g id="text_33">
     <!-- aflfast-0-exid23 -->
     <g style="fill: #262626" transform="translate(86.8975 110.334375)scale(0.088 -0.088)">
      <use xlink:href="#DejaVuSans-61"/>
      <use xlink:href="#DejaVuSans-66" x="61.279297"/>
      <use xlink:href="#DejaVuSans-6c" x="96.484375"/>
      <use xlink:href="#DejaVuSans-66" x="124.267578"/>
      <use xlink:href="#DejaVuSans-61" x="159.472656"/>
      <use xlink:href="#DejaVuSans-73" x="220.751953"/>
      <use xlink:href="#DejaVuSans-74" x="272.851562"/>
      <use xlink:href="#DejaVuSans-2d" x="312.060547"/>
      <use xlink:href="#DejaVuSans-30" x="348.144531"/>
      <use xlink:href="#DejaVuSans-2d" x="411.767578"/>
      <use xlink:href="#DejaVuSans-65" x="447.851562"/>
      <use xlink:href="#DejaVuSans-78" x="507.625"/>
      <use xlink:href="#DejaVuSans-69" x="566.804688"/>
      <use xlink:href="#DejaVuSans-64" x="594.587891"/>
      <use xlink:href="#DejaVuSans-32" x="658.064453"/>
      <use xlink:href="#DejaVuSans-33" x="721.6875"/>
     </g>
    </g>
    <g id="line2d_40">
     <path d="M 62.2575 120.171125 
L 71.0575 120.171125 
L 79.8575 120.171125 
" style="fill: none; stroke: #57db94; stroke-width: 1.2; stroke-linecap: round"/>
    </g>
    <g id="text_34">
     <!-- fairfuzz-0-exid23 -->
     <g style="fill: #262626" transform="translate(86.8975 123.251125)scale(0.088 -0.088)">
      <use xlink:href="#DejaVuSans-66"/>
      <use xlink:href="#DejaVuSans-61" x="35.205078"/>
      <use xlink:href="#DejaVuSans-69" x="96.484375"/>
      <use xlink:href="#DejaVuSans-72" x="124.267578"/>
      <use xlink:href="#DejaVuSans-66" x="165.380859"/>
      <use xlink:href="#DejaVuSans-75" x="200.585938"/>
      <use xlink:href="#DejaVuSans-7a" x="263.964844"/>
      <use xlink:href="#DejaVuSans-7a" x="316.455078"/>
      <use xlink:href="#DejaVuSans-2d" x="368.945312"/>
      <use xlink:href="#DejaVuSans-30" x="405.029297"/>
      <use xlink:href="#DejaVuSans-2d" x="468.652344"/>
      <use xlink:href="#DejaVuSans-65" x="504.736328"/>
      <use xlink:href="#DejaVuSans-78" x="564.509766"/>
      <use xlink:href="#DejaVuSans-69" x="623.689453"/>
      <use xlink:href="#DejaVuSans-64" x="651.472656"/>
      <use xlink:href="#DejaVuSans-32" x="714.949219"/>
      <use xlink:href="#DejaVuSans-33" x="778.572266"/>
     </g>
    </g>
    <g id="line2d_41">
     <path d="M 62.2575 133.087875 
L 71.0575 133.087875 
L 79.8575 133.087875 
" style="fill: none; stroke: #5784db; stroke-width: 1.2; stroke-linecap: round"/>
    </g>
    <g id="text_35">
     <!-- afl-0-exid23 -->
     <g style="fill: #262626" transform="translate(86.8975 136.167875)scale(0.088 -0.088)">
      <use xlink:href="#DejaVuSans-61"/>
      <use xlink:href="#DejaVuSans-66" x="61.279297"/>
      <use xlink:href="#DejaVuSans-6c" x="96.484375"/>
      <use xlink:href="#DejaVuSans-2d" x="124.267578"/>
      <use xlink:href="#DejaVuSans-30" x="160.351562"/>
      <use xlink:href="#DejaVuSans-2d" x="223.974609"/>
      <use xlink:href="#DejaVuSans-65" x="260.058594"/>
      <use xlink:href="#DejaVuSans-78" x="319.832031"/>
      <use xlink:href="#DejaVuSans-69" x="379.011719"/>
      <use xlink:href="#DejaVuSans-64" x="406.794922"/>
      <use xlink:href="#DejaVuSans-32" x="470.271484"/>
      <use xlink:href="#DejaVuSans-33" x="533.894531"/>
     </g>
    </g>
    <g id="line2d_42">
     <path d="M 62.2575 146.004625 
L 71.0575 146.004625 
L 79.8575 146.004625 
" style="fill: none; stroke: #c957db; stroke-width: 1.2; stroke-linecap: round"/>
    </g>
    <g id="text_36">
     <!-- fuzzer_global -->
     <g style="fill: #262626" transform="translate(86.8975 149.084625)scale(0.088 -0.088)">
      <defs>
       <path id="DejaVuSans-5f" d="M 3263 -1063 
L 3263 -1509 
L -63 -1509 
L -63 -1063 
L 3263 -1063 
z
" transform="scale(0.015625)"/>
       <path id="DejaVuSans-62" d="M 3116 1747 
Q 3116 2381 2855 2742 
Q 2594 3103 2138 3103 
Q 1681 3103 1420 2742 
Q 1159 2381 1159 1747 
Q 1159 1113 1420 752 
Q 1681 391 2138 391 
Q 2594 391 2855 752 
Q 3116 1113 3116 1747 
z
M 1159 2969 
Q 1341 3281 1617 3432 
Q 1894 3584 2278 3584 
Q 2916 3584 3314 3078 
Q 3713 2572 3713 1747 
Q 3713 922 3314 415 
Q 2916 -91 2278 -91 
Q 1894 -91 1617 61 
Q 1341 213 1159 525 
L 1159 0 
L 581 0 
L 581 4863 
L 1159 4863 
L 1159 2969 
z
" transform="scale(0.015625)"/>
      </defs>
      <use xlink:href="#DejaVuSans-66"/>
      <use xlink:href="#DejaVuSans-75" x="35.205078"/>
      <use xlink:href="#DejaVuSans-7a" x="98.583984"/>
      <use xlink:href="#DejaVuSans-7a" x="151.074219"/>
      <use xlink:href="#DejaVuSans-65" x="203.564453"/>
      <use xlink:href="#DejaVuSans-72" x="265.087891"/>
      <use xlink:href="#DejaVuSans-5f" x="306.201172"/>
      <use xlink:href="#DejaVuSans-67" x="356.201172"/>
      <use xlink:href="#DejaVuSans-6c" x="419.677734"/>
      <use xlink:href="#DejaVuSans-6f" x="447.460938"/>
      <use xlink:href="#DejaVuSans-62" x="508.642578"/>
      <use xlink:href="#DejaVuSans-61" x="572.119141"/>
      <use xlink:href="#DejaVuSans-6c" x="633.398438"/>
     </g>
    </g>
   </g>
  </g>
 </g>
 <defs>
  <clipPath id="p101bfa4805">
   <rect x="54.3375" y="69.12" width="336.8925" height="443.52"/>
  </clipPath>
 </defs>
</svg>
