<?xml version="1.0" encoding="utf-8" standalone="no"?>
<!DOCTYPE svg PUBLIC "-//W3C//DTD SVG 1.1//EN"
  "http://www.w3.org/Graphics/SVG/1.1/DTD/svg11.dtd">
<svg xmlns:xlink="http://www.w3.org/1999/xlink" width="2764.8pt" height="2073.6pt" viewBox="0 0 2764.8 2073.6" xmlns="http://www.w3.org/2000/svg" version="1.1">
 <metadata>
  <rdf:RDF xmlns:dc="http://purl.org/dc/elements/1.1/" xmlns:cc="http://creativecommons.org/ns#" xmlns:rdf="http://www.w3.org/1999/02/22-rdf-syntax-ns#">
   <cc:Work>
    <dc:type rdf:resource="http://purl.org/dc/dcmitype/StillImage"/>
    <dc:date>2022-09-15T06:16:01.630697</dc:date>
    <dc:format>image/svg+xml</dc:format>
    <dc:creator>
     <cc:Agent>
      <dc:title>Matplotlib v3.5.3, https://matplotlib.org/</dc:title>
     </cc:Agent>
    </dc:creator>
   </cc:Work>
  </rdf:RDF>
 </metadata>
 <defs>
  <style type="text/css">*{stroke-linejoin: round; stroke-linecap: butt}</style>
 </defs>
 <g id="figure_1">
  <g id="patch_1">
   <path d="M 0 2073.6 
L 2764.8 2073.6 
L 2764.8 0 
L 0 0 
z
" style="fill: #ffffff"/>
  </g>
  <g id="axes_1">
   <g id="patch_2">
    <path d="M 345.6 1845.504 
L 2488.32 1845.504 
L 2488.32 248.832 
L 345.6 248.832 
z
" style="fill: #ffffff"/>
   </g>
   <g id="matplotlib.axis_1">
    <g id="xtick_1">
     <g id="line2d_1">
      <path d="M 442.996364 1845.504 
L 442.996364 248.832 
" clip-path="url(#p91c0889cc1)" style="fill: none; stroke: #cccccc; stroke-linecap: round"/>
     </g>
     <g id="text_1">
      <!-- 0 -->
      <g style="fill: #262626" transform="translate(439.496989 1863.362281)scale(0.11 -0.11)">
       <defs>
        <path id="DejaVuSans-30" d="M 2034 4250 
Q 1547 4250 1301 3770 
Q 1056 3291 1056 2328 
Q 1056 1369 1301 889 
Q 1547 409 2034 409 
Q 2525 409 2770 889 
Q 3016 1369 3016 2328 
Q 3016 3291 2770 3770 
Q 2525 4250 2034 4250 
z
M 2034 4750 
Q 2819 4750 3233 4129 
Q 3647 3509 3647 2328 
Q 3647 1150 3233 529 
Q 2819 -91 2034 -91 
Q 1250 -91 836 529 
Q 422 1150 422 2328 
Q 422 3509 836 4129 
Q 1250 4750 2034 4750 
z
" transform="scale(0.015625)"/>
       </defs>
       <use xlink:href="#DejaVuSans-30"/>
      </g>
     </g>
    </g>
    <g id="xtick_2">
     <g id="line2d_2">
      <path d="M 756.925014 1845.504 
L 756.925014 248.832 
" clip-path="url(#p91c0889cc1)" style="fill: none; stroke: #cccccc; stroke-linecap: round"/>
     </g>
     <g id="text_2">
      <!-- 200 -->
      <g style="fill: #262626" transform="translate(746.426889 1863.362281)scale(0.11 -0.11)">
       <defs>
        <path id="DejaVuSans-32" d="M 1228 531 
L 3431 531 
L 3431 0 
L 469 0 
L 469 531 
Q 828 903 1448 1529 
Q 2069 2156 2228 2338 
Q 2531 2678 2651 2914 
Q 2772 3150 2772 3378 
Q 2772 3750 2511 3984 
Q 2250 4219 1831 4219 
Q 1534 4219 1204 4116 
Q 875 4013 500 3803 
L 500 4441 
Q 881 4594 1212 4672 
Q 1544 4750 1819 4750 
Q 2544 4750 2975 4387 
Q 3406 4025 3406 3419 
Q 3406 3131 3298 2873 
Q 3191 2616 2906 2266 
Q 2828 2175 2409 1742 
Q 1991 1309 1228 531 
z
" transform="scale(0.015625)"/>
       </defs>
       <use xlink:href="#DejaVuSans-32"/>
       <use xlink:href="#DejaVuSans-30" x="63.623047"/>
       <use xlink:href="#DejaVuSans-30" x="127.246094"/>
      </g>
     </g>
    </g>
    <g id="xtick_3">
     <g id="line2d_3">
      <path d="M 1070.853663 1845.504 
L 1070.853663 248.832 
" clip-path="url(#p91c0889cc1)" style="fill: none; stroke: #cccccc; stroke-linecap: round"/>
     </g>
     <g id="text_3">
      <!-- 400 -->
      <g style="fill: #262626" transform="translate(1060.355538 1863.362281)scale(0.11 -0.11)">
       <defs>
        <path id="DejaVuSans-34" d="M 2419 4116 
L 825 1625 
L 2419 1625 
L 2419 4116 
z
M 2253 4666 
L 3047 4666 
L 3047 1625 
L 3713 1625 
L 3713 1100 
L 3047 1100 
L 3047 0 
L 2419 0 
L 2419 1100 
L 313 1100 
L 313 1709 
L 2253 4666 
z
" transform="scale(0.015625)"/>
       </defs>
       <use xlink:href="#DejaVuSans-34"/>
       <use xlink:href="#DejaVuSans-30" x="63.623047"/>
       <use xlink:href="#DejaVuSans-30" x="127.246094"/>
      </g>
     </g>
    </g>
    <g id="xtick_4">
     <g id="line2d_4">
      <path d="M 1384.782313 1845.504 
L 1384.782313 248.832 
" clip-path="url(#p91c0889cc1)" style="fill: none; stroke: #cccccc; stroke-linecap: round"/>
     </g>
     <g id="text_4">
      <!-- 600 -->
      <g style="fill: #262626" transform="translate(1374.284188 1863.362281)scale(0.11 -0.11)">
       <defs>
        <path id="DejaVuSans-36" d="M 2113 2584 
Q 1688 2584 1439 2293 
Q 1191 2003 1191 1497 
Q 1191 994 1439 701 
Q 1688 409 2113 409 
Q 2538 409 2786 701 
Q 3034 994 3034 1497 
Q 3034 2003 2786 2293 
Q 2538 2584 2113 2584 
z
M 3366 4563 
L 3366 3988 
Q 3128 4100 2886 4159 
Q 2644 4219 2406 4219 
Q 1781 4219 1451 3797 
Q 1122 3375 1075 2522 
Q 1259 2794 1537 2939 
Q 1816 3084 2150 3084 
Q 2853 3084 3261 2657 
Q 3669 2231 3669 1497 
Q 3669 778 3244 343 
Q 2819 -91 2113 -91 
Q 1303 -91 875 529 
Q 447 1150 447 2328 
Q 447 3434 972 4092 
Q 1497 4750 2381 4750 
Q 2619 4750 2861 4703 
Q 3103 4656 3366 4563 
z
" transform="scale(0.015625)"/>
       </defs>
       <use xlink:href="#DejaVuSans-36"/>
       <use xlink:href="#DejaVuSans-30" x="63.623047"/>
       <use xlink:href="#DejaVuSans-30" x="127.246094"/>
      </g>
     </g>
    </g>
    <g id="xtick_5">
     <g id="line2d_5">
      <path d="M 1698.710963 1845.504 
L 1698.710963 248.832 
" clip-path="url(#p91c0889cc1)" style="fill: none; stroke: #cccccc; stroke-linecap: round"/>
     </g>
     <g id="text_5">
      <!-- 800 -->
      <g style="fill: #262626" transform="translate(1688.212838 1863.362281)scale(0.11 -0.11)">
       <defs>
        <path id="DejaVuSans-38" d="M 2034 2216 
Q 1584 2216 1326 1975 
Q 1069 1734 1069 1313 
Q 1069 891 1326 650 
Q 1584 409 2034 409 
Q 2484 409 2743 651 
Q 3003 894 3003 1313 
Q 3003 1734 2745 1975 
Q 2488 2216 2034 2216 
z
M 1403 2484 
Q 997 2584 770 2862 
Q 544 3141 544 3541 
Q 544 4100 942 4425 
Q 1341 4750 2034 4750 
Q 2731 4750 3128 4425 
Q 3525 4100 3525 3541 
Q 3525 3141 3298 2862 
Q 3072 2584 2669 2484 
Q 3125 2378 3379 2068 
Q 3634 1759 3634 1313 
Q 3634 634 3220 271 
Q 2806 -91 2034 -91 
Q 1263 -91 848 271 
Q 434 634 434 1313 
Q 434 1759 690 2068 
Q 947 2378 1403 2484 
z
M 1172 3481 
Q 1172 3119 1398 2916 
Q 1625 2713 2034 2713 
Q 2441 2713 2670 2916 
Q 2900 3119 2900 3481 
Q 2900 3844 2670 4047 
Q 2441 4250 2034 4250 
Q 1625 4250 1398 4047 
Q 1172 3844 1172 3481 
z
" transform="scale(0.015625)"/>
       </defs>
       <use xlink:href="#DejaVuSans-38"/>
       <use xlink:href="#DejaVuSans-30" x="63.623047"/>
       <use xlink:href="#DejaVuSans-30" x="127.246094"/>
      </g>
     </g>
    </g>
    <g id="xtick_6">
     <g id="line2d_6">
      <path d="M 2012.639613 1845.504 
L 2012.639613 248.832 
" clip-path="url(#p91c0889cc1)" style="fill: none; stroke: #cccccc; stroke-linecap: round"/>
     </g>
     <g id="text_6">
      <!-- 1000 -->
      <g style="fill: #262626" transform="translate(1998.642113 1863.362281)scale(0.11 -0.11)">
       <defs>
        <path id="DejaVuSans-31" d="M 794 531 
L 1825 531 
L 1825 4091 
L 703 3866 
L 703 4441 
L 1819 4666 
L 2450 4666 
L 2450 531 
L 3481 531 
L 3481 0 
L 794 0 
L 794 531 
z
" transform="scale(0.015625)"/>
       </defs>
       <use xlink:href="#DejaVuSans-31"/>
       <use xlink:href="#DejaVuSans-30" x="63.623047"/>
       <use xlink:href="#DejaVuSans-30" x="127.246094"/>
       <use xlink:href="#DejaVuSans-30" x="190.869141"/>
      </g>
     </g>
    </g>
    <g id="xtick_7">
     <g id="line2d_7">
      <path d="M 2326.568263 1845.504 
L 2326.568263 248.832 
" clip-path="url(#p91c0889cc1)" style="fill: none; stroke: #cccccc; stroke-linecap: round"/>
     </g>
     <g id="text_7">
      <!-- 1200 -->
      <g style="fill: #262626" transform="translate(2312.570763 1863.362281)scale(0.11 -0.11)">
       <use xlink:href="#DejaVuSans-31"/>
       <use xlink:href="#DejaVuSans-32" x="63.623047"/>
       <use xlink:href="#DejaVuSans-30" x="127.246094"/>
       <use xlink:href="#DejaVuSans-30" x="190.869141"/>
      </g>
     </g>
    </g>
    <g id="text_8">
     <!-- Discovery Time (Minutes) -->
     <g style="fill: #262626" transform="translate(1340.521875 1878.768062)scale(0.12 -0.12)">
      <defs>
       <path id="DejaVuSans-44" d="M 1259 4147 
L 1259 519 
L 2022 519 
Q 2988 519 3436 956 
Q 3884 1394 3884 2338 
Q 3884 3275 3436 3711 
Q 2988 4147 2022 4147 
L 1259 4147 
z
M 628 4666 
L 1925 4666 
Q 3281 4666 3915 4102 
Q 4550 3538 4550 2338 
Q 4550 1131 3912 565 
Q 3275 0 1925 0 
L 628 0 
L 628 4666 
z
" transform="scale(0.015625)"/>
       <path id="DejaVuSans-69" d="M 603 3500 
L 1178 3500 
L 1178 0 
L 603 0 
L 603 3500 
z
M 603 4863 
L 1178 4863 
L 1178 4134 
L 603 4134 
L 603 4863 
z
" transform="scale(0.015625)"/>
       <path id="DejaVuSans-73" d="M 2834 3397 
L 2834 2853 
Q 2591 2978 2328 3040 
Q 2066 3103 1784 3103 
Q 1356 3103 1142 2972 
Q 928 2841 928 2578 
Q 928 2378 1081 2264 
Q 1234 2150 1697 2047 
L 1894 2003 
Q 2506 1872 2764 1633 
Q 3022 1394 3022 966 
Q 3022 478 2636 193 
Q 2250 -91 1575 -91 
Q 1294 -91 989 -36 
Q 684 19 347 128 
L 347 722 
Q 666 556 975 473 
Q 1284 391 1588 391 
Q 1994 391 2212 530 
Q 2431 669 2431 922 
Q 2431 1156 2273 1281 
Q 2116 1406 1581 1522 
L 1381 1569 
Q 847 1681 609 1914 
Q 372 2147 372 2553 
Q 372 3047 722 3315 
Q 1072 3584 1716 3584 
Q 2034 3584 2315 3537 
Q 2597 3491 2834 3397 
z
" transform="scale(0.015625)"/>
       <path id="DejaVuSans-63" d="M 3122 3366 
L 3122 2828 
Q 2878 2963 2633 3030 
Q 2388 3097 2138 3097 
Q 1578 3097 1268 2742 
Q 959 2388 959 1747 
Q 959 1106 1268 751 
Q 1578 397 2138 397 
Q 2388 397 2633 464 
Q 2878 531 3122 666 
L 3122 134 
Q 2881 22 2623 -34 
Q 2366 -91 2075 -91 
Q 1284 -91 818 406 
Q 353 903 353 1747 
Q 353 2603 823 3093 
Q 1294 3584 2113 3584 
Q 2378 3584 2631 3529 
Q 2884 3475 3122 3366 
z
" transform="scale(0.015625)"/>
       <path id="DejaVuSans-6f" d="M 1959 3097 
Q 1497 3097 1228 2736 
Q 959 2375 959 1747 
Q 959 1119 1226 758 
Q 1494 397 1959 397 
Q 2419 397 2687 759 
Q 2956 1122 2956 1747 
Q 2956 2369 2687 2733 
Q 2419 3097 1959 3097 
z
M 1959 3584 
Q 2709 3584 3137 3096 
Q 3566 2609 3566 1747 
Q 3566 888 3137 398 
Q 2709 -91 1959 -91 
Q 1206 -91 779 398 
Q 353 888 353 1747 
Q 353 2609 779 3096 
Q 1206 3584 1959 3584 
z
" transform="scale(0.015625)"/>
       <path id="DejaVuSans-76" d="M 191 3500 
L 800 3500 
L 1894 563 
L 2988 3500 
L 3597 3500 
L 2284 0 
L 1503 0 
L 191 3500 
z
" transform="scale(0.015625)"/>
       <path id="DejaVuSans-65" d="M 3597 1894 
L 3597 1613 
L 953 1613 
Q 991 1019 1311 708 
Q 1631 397 2203 397 
Q 2534 397 2845 478 
Q 3156 559 3463 722 
L 3463 178 
Q 3153 47 2828 -22 
Q 2503 -91 2169 -91 
Q 1331 -91 842 396 
Q 353 884 353 1716 
Q 353 2575 817 3079 
Q 1281 3584 2069 3584 
Q 2775 3584 3186 3129 
Q 3597 2675 3597 1894 
z
M 3022 2063 
Q 3016 2534 2758 2815 
Q 2500 3097 2075 3097 
Q 1594 3097 1305 2825 
Q 1016 2553 972 2059 
L 3022 2063 
z
" transform="scale(0.015625)"/>
       <path id="DejaVuSans-72" d="M 2631 2963 
Q 2534 3019 2420 3045 
Q 2306 3072 2169 3072 
Q 1681 3072 1420 2755 
Q 1159 2438 1159 1844 
L 1159 0 
L 581 0 
L 581 3500 
L 1159 3500 
L 1159 2956 
Q 1341 3275 1631 3429 
Q 1922 3584 2338 3584 
Q 2397 3584 2469 3576 
Q 2541 3569 2628 3553 
L 2631 2963 
z
" transform="scale(0.015625)"/>
       <path id="DejaVuSans-79" d="M 2059 -325 
Q 1816 -950 1584 -1140 
Q 1353 -1331 966 -1331 
L 506 -1331 
L 506 -850 
L 844 -850 
Q 1081 -850 1212 -737 
Q 1344 -625 1503 -206 
L 1606 56 
L 191 3500 
L 800 3500 
L 1894 763 
L 2988 3500 
L 3597 3500 
L 2059 -325 
z
" transform="scale(0.015625)"/>
       <path id="DejaVuSans-20" transform="scale(0.015625)"/>
       <path id="DejaVuSans-54" d="M -19 4666 
L 3928 4666 
L 3928 4134 
L 2272 4134 
L 2272 0 
L 1638 0 
L 1638 4134 
L -19 4134 
L -19 4666 
z
" transform="scale(0.015625)"/>
       <path id="DejaVuSans-6d" d="M 3328 2828 
Q 3544 3216 3844 3400 
Q 4144 3584 4550 3584 
Q 5097 3584 5394 3201 
Q 5691 2819 5691 2113 
L 5691 0 
L 5113 0 
L 5113 2094 
Q 5113 2597 4934 2840 
Q 4756 3084 4391 3084 
Q 3944 3084 3684 2787 
Q 3425 2491 3425 1978 
L 3425 0 
L 2847 0 
L 2847 2094 
Q 2847 2600 2669 2842 
Q 2491 3084 2119 3084 
Q 1678 3084 1418 2786 
Q 1159 2488 1159 1978 
L 1159 0 
L 581 0 
L 581 3500 
L 1159 3500 
L 1159 2956 
Q 1356 3278 1631 3431 
Q 1906 3584 2284 3584 
Q 2666 3584 2933 3390 
Q 3200 3197 3328 2828 
z
" transform="scale(0.015625)"/>
       <path id="DejaVuSans-28" d="M 1984 4856 
Q 1566 4138 1362 3434 
Q 1159 2731 1159 2009 
Q 1159 1288 1364 580 
Q 1569 -128 1984 -844 
L 1484 -844 
Q 1016 -109 783 600 
Q 550 1309 550 2009 
Q 550 2706 781 3412 
Q 1013 4119 1484 4856 
L 1984 4856 
z
" transform="scale(0.015625)"/>
       <path id="DejaVuSans-4d" d="M 628 4666 
L 1569 4666 
L 2759 1491 
L 3956 4666 
L 4897 4666 
L 4897 0 
L 4281 0 
L 4281 4097 
L 3078 897 
L 2444 897 
L 1241 4097 
L 1241 0 
L 628 0 
L 628 4666 
z
" transform="scale(0.015625)"/>
       <path id="DejaVuSans-6e" d="M 3513 2113 
L 3513 0 
L 2938 0 
L 2938 2094 
Q 2938 2591 2744 2837 
Q 2550 3084 2163 3084 
Q 1697 3084 1428 2787 
Q 1159 2491 1159 1978 
L 1159 0 
L 581 0 
L 581 3500 
L 1159 3500 
L 1159 2956 
Q 1366 3272 1645 3428 
Q 1925 3584 2291 3584 
Q 2894 3584 3203 3211 
Q 3513 2838 3513 2113 
z
" transform="scale(0.015625)"/>
       <path id="DejaVuSans-75" d="M 544 1381 
L 544 3500 
L 1119 3500 
L 1119 1403 
Q 1119 906 1312 657 
Q 1506 409 1894 409 
Q 2359 409 2629 706 
Q 2900 1003 2900 1516 
L 2900 3500 
L 3475 3500 
L 3475 0 
L 2900 0 
L 2900 538 
Q 2691 219 2414 64 
Q 2138 -91 1772 -91 
Q 1169 -91 856 284 
Q 544 659 544 1381 
z
M 1991 3584 
L 1991 3584 
z
" transform="scale(0.015625)"/>
       <path id="DejaVuSans-74" d="M 1172 4494 
L 1172 3500 
L 2356 3500 
L 2356 3053 
L 1172 3053 
L 1172 1153 
Q 1172 725 1289 603 
Q 1406 481 1766 481 
L 2356 481 
L 2356 0 
L 1766 0 
Q 1100 0 847 248 
Q 594 497 594 1153 
L 594 3053 
L 172 3053 
L 172 3500 
L 594 3500 
L 594 4494 
L 1172 4494 
z
" transform="scale(0.015625)"/>
       <path id="DejaVuSans-29" d="M 513 4856 
L 1013 4856 
Q 1481 4119 1714 3412 
Q 1947 2706 1947 2009 
Q 1947 1309 1714 600 
Q 1481 -109 1013 -844 
L 513 -844 
Q 928 -128 1133 580 
Q 1338 1288 1338 2009 
Q 1338 2731 1133 3434 
Q 928 4138 513 4856 
z
" transform="scale(0.015625)"/>
      </defs>
      <use xlink:href="#DejaVuSans-44"/>
      <use xlink:href="#DejaVuSans-69" x="77.001953"/>
      <use xlink:href="#DejaVuSans-73" x="104.785156"/>
      <use xlink:href="#DejaVuSans-63" x="156.884766"/>
      <use xlink:href="#DejaVuSans-6f" x="211.865234"/>
      <use xlink:href="#DejaVuSans-76" x="273.046875"/>
      <use xlink:href="#DejaVuSans-65" x="332.226562"/>
      <use xlink:href="#DejaVuSans-72" x="393.75"/>
      <use xlink:href="#DejaVuSans-79" x="434.863281"/>
      <use xlink:href="#DejaVuSans-20" x="494.042969"/>
      <use xlink:href="#DejaVuSans-54" x="525.830078"/>
      <use xlink:href="#DejaVuSans-69" x="583.789062"/>
      <use xlink:href="#DejaVuSans-6d" x="611.572266"/>
      <use xlink:href="#DejaVuSans-65" x="708.984375"/>
      <use xlink:href="#DejaVuSans-20" x="770.507812"/>
      <use xlink:href="#DejaVuSans-28" x="802.294922"/>
      <use xlink:href="#DejaVuSans-4d" x="841.308594"/>
      <use xlink:href="#DejaVuSans-69" x="927.587891"/>
      <use xlink:href="#DejaVuSans-6e" x="955.371094"/>
      <use xlink:href="#DejaVuSans-75" x="1018.75"/>
      <use xlink:href="#DejaVuSans-74" x="1082.128906"/>
      <use xlink:href="#DejaVuSans-65" x="1121.337891"/>
      <use xlink:href="#DejaVuSans-73" x="1182.861328"/>
      <use xlink:href="#DejaVuSans-29" x="1234.960938"/>
     </g>
    </g>
   </g>
   <g id="matplotlib.axis_2">
    <g id="ytick_1">
     <g id="line2d_8">
      <path d="M 345.6 1772.928 
L 2488.32 1772.928 
" clip-path="url(#p91c0889cc1)" style="fill: none; stroke: #cccccc; stroke-linecap: round"/>
     </g>
     <g id="text_9">
      <!-- 0 -->
      <g style="fill: #262626" transform="translate(329.10125 1777.107141)scale(0.11 -0.11)">
       <use xlink:href="#DejaVuSans-30"/>
      </g>
     </g>
    </g>
    <g id="ytick_2">
     <g id="line2d_9">
      <path d="M 345.6 1563.170775 
L 2488.32 1563.170775 
" clip-path="url(#p91c0889cc1)" style="fill: none; stroke: #cccccc; stroke-linecap: round"/>
     </g>
     <g id="text_10">
      <!-- 50 -->
      <g style="fill: #262626" transform="translate(322.1025 1567.349915)scale(0.11 -0.11)">
       <defs>
        <path id="DejaVuSans-35" d="M 691 4666 
L 3169 4666 
L 3169 4134 
L 1269 4134 
L 1269 2991 
Q 1406 3038 1543 3061 
Q 1681 3084 1819 3084 
Q 2600 3084 3056 2656 
Q 3513 2228 3513 1497 
Q 3513 744 3044 326 
Q 2575 -91 1722 -91 
Q 1428 -91 1123 -41 
Q 819 9 494 109 
L 494 744 
Q 775 591 1075 516 
Q 1375 441 1709 441 
Q 2250 441 2565 725 
Q 2881 1009 2881 1497 
Q 2881 1984 2565 2268 
Q 2250 2553 1709 2553 
Q 1456 2553 1204 2497 
Q 953 2441 691 2322 
L 691 4666 
z
" transform="scale(0.015625)"/>
       </defs>
       <use xlink:href="#DejaVuSans-35"/>
       <use xlink:href="#DejaVuSans-30" x="63.623047"/>
      </g>
     </g>
    </g>
    <g id="ytick_3">
     <g id="line2d_10">
      <path d="M 345.6 1353.413549 
L 2488.32 1353.413549 
" clip-path="url(#p91c0889cc1)" style="fill: none; stroke: #cccccc; stroke-linecap: round"/>
     </g>
     <g id="text_11">
      <!-- 100 -->
      <g style="fill: #262626" transform="translate(315.10375 1357.59269)scale(0.11 -0.11)">
       <use xlink:href="#DejaVuSans-31"/>
       <use xlink:href="#DejaVuSans-30" x="63.623047"/>
       <use xlink:href="#DejaVuSans-30" x="127.246094"/>
      </g>
     </g>
    </g>
    <g id="ytick_4">
     <g id="line2d_11">
      <path d="M 345.6 1143.656324 
L 2488.32 1143.656324 
" clip-path="url(#p91c0889cc1)" style="fill: none; stroke: #cccccc; stroke-linecap: round"/>
     </g>
     <g id="text_12">
      <!-- 150 -->
      <g style="fill: #262626" transform="translate(315.10375 1147.835464)scale(0.11 -0.11)">
       <use xlink:href="#DejaVuSans-31"/>
       <use xlink:href="#DejaVuSans-35" x="63.623047"/>
       <use xlink:href="#DejaVuSans-30" x="127.246094"/>
      </g>
     </g>
    </g>
    <g id="ytick_5">
     <g id="line2d_12">
      <path d="M 345.6 933.899098 
L 2488.32 933.899098 
" clip-path="url(#p91c0889cc1)" style="fill: none; stroke: #cccccc; stroke-linecap: round"/>
     </g>
     <g id="text_13">
      <!-- 200 -->
      <g style="fill: #262626" transform="translate(315.10375 938.078239)scale(0.11 -0.11)">
       <use xlink:href="#DejaVuSans-32"/>
       <use xlink:href="#DejaVuSans-30" x="63.623047"/>
       <use xlink:href="#DejaVuSans-30" x="127.246094"/>
      </g>
     </g>
    </g>
    <g id="ytick_6">
     <g id="line2d_13">
      <path d="M 345.6 724.141873 
L 2488.32 724.141873 
" clip-path="url(#p91c0889cc1)" style="fill: none; stroke: #cccccc; stroke-linecap: round"/>
     </g>
     <g id="text_14">
      <!-- 250 -->
      <g style="fill: #262626" transform="translate(315.10375 728.321013)scale(0.11 -0.11)">
       <use xlink:href="#DejaVuSans-32"/>
       <use xlink:href="#DejaVuSans-35" x="63.623047"/>
       <use xlink:href="#DejaVuSans-30" x="127.246094"/>
      </g>
     </g>
    </g>
    <g id="ytick_7">
     <g id="line2d_14">
      <path d="M 345.6 514.384647 
L 2488.32 514.384647 
" clip-path="url(#p91c0889cc1)" style="fill: none; stroke: #cccccc; stroke-linecap: round"/>
     </g>
     <g id="text_15">
      <!-- 300 -->
      <g style="fill: #262626" transform="translate(315.10375 518.563788)scale(0.11 -0.11)">
       <defs>
        <path id="DejaVuSans-33" d="M 2597 2516 
Q 3050 2419 3304 2112 
Q 3559 1806 3559 1356 
Q 3559 666 3084 287 
Q 2609 -91 1734 -91 
Q 1441 -91 1130 -33 
Q 819 25 488 141 
L 488 750 
Q 750 597 1062 519 
Q 1375 441 1716 441 
Q 2309 441 2620 675 
Q 2931 909 2931 1356 
Q 2931 1769 2642 2001 
Q 2353 2234 1838 2234 
L 1294 2234 
L 1294 2753 
L 1863 2753 
Q 2328 2753 2575 2939 
Q 2822 3125 2822 3475 
Q 2822 3834 2567 4026 
Q 2313 4219 1838 4219 
Q 1578 4219 1281 4162 
Q 984 4106 628 3988 
L 628 4550 
Q 988 4650 1302 4700 
Q 1616 4750 1894 4750 
Q 2613 4750 3031 4423 
Q 3450 4097 3450 3541 
Q 3450 3153 3228 2886 
Q 3006 2619 2597 2516 
z
" transform="scale(0.015625)"/>
       </defs>
       <use xlink:href="#DejaVuSans-33"/>
       <use xlink:href="#DejaVuSans-30" x="63.623047"/>
       <use xlink:href="#DejaVuSans-30" x="127.246094"/>
      </g>
     </g>
    </g>
    <g id="ytick_8">
     <g id="line2d_15">
      <path d="M 345.6 304.627422 
L 2488.32 304.627422 
" clip-path="url(#p91c0889cc1)" style="fill: none; stroke: #cccccc; stroke-linecap: round"/>
     </g>
     <g id="text_16">
      <!-- 350 -->
      <g style="fill: #262626" transform="translate(315.10375 308.806563)scale(0.11 -0.11)">
       <use xlink:href="#DejaVuSans-33"/>
       <use xlink:href="#DejaVuSans-35" x="63.623047"/>
       <use xlink:href="#DejaVuSans-30" x="127.246094"/>
      </g>
     </g>
    </g>
    <g id="text_17">
     <!-- Bug Count -->
     <g style="fill: #262626" transform="translate(308.608125 1078.621125)rotate(-90)scale(0.12 -0.12)">
      <defs>
       <path id="DejaVuSans-42" d="M 1259 2228 
L 1259 519 
L 2272 519 
Q 2781 519 3026 730 
Q 3272 941 3272 1375 
Q 3272 1813 3026 2020 
Q 2781 2228 2272 2228 
L 1259 2228 
z
M 1259 4147 
L 1259 2741 
L 2194 2741 
Q 2656 2741 2882 2914 
Q 3109 3088 3109 3444 
Q 3109 3797 2882 3972 
Q 2656 4147 2194 4147 
L 1259 4147 
z
M 628 4666 
L 2241 4666 
Q 2963 4666 3353 4366 
Q 3744 4066 3744 3513 
Q 3744 3084 3544 2831 
Q 3344 2578 2956 2516 
Q 3422 2416 3680 2098 
Q 3938 1781 3938 1306 
Q 3938 681 3513 340 
Q 3088 0 2303 0 
L 628 0 
L 628 4666 
z
" transform="scale(0.015625)"/>
       <path id="DejaVuSans-67" d="M 2906 1791 
Q 2906 2416 2648 2759 
Q 2391 3103 1925 3103 
Q 1463 3103 1205 2759 
Q 947 2416 947 1791 
Q 947 1169 1205 825 
Q 1463 481 1925 481 
Q 2391 481 2648 825 
Q 2906 1169 2906 1791 
z
M 3481 434 
Q 3481 -459 3084 -895 
Q 2688 -1331 1869 -1331 
Q 1566 -1331 1297 -1286 
Q 1028 -1241 775 -1147 
L 775 -588 
Q 1028 -725 1275 -790 
Q 1522 -856 1778 -856 
Q 2344 -856 2625 -561 
Q 2906 -266 2906 331 
L 2906 616 
Q 2728 306 2450 153 
Q 2172 0 1784 0 
Q 1141 0 747 490 
Q 353 981 353 1791 
Q 353 2603 747 3093 
Q 1141 3584 1784 3584 
Q 2172 3584 2450 3431 
Q 2728 3278 2906 2969 
L 2906 3500 
L 3481 3500 
L 3481 434 
z
" transform="scale(0.015625)"/>
       <path id="DejaVuSans-43" d="M 4122 4306 
L 4122 3641 
Q 3803 3938 3442 4084 
Q 3081 4231 2675 4231 
Q 1875 4231 1450 3742 
Q 1025 3253 1025 2328 
Q 1025 1406 1450 917 
Q 1875 428 2675 428 
Q 3081 428 3442 575 
Q 3803 722 4122 1019 
L 4122 359 
Q 3791 134 3420 21 
Q 3050 -91 2638 -91 
Q 1578 -91 968 557 
Q 359 1206 359 2328 
Q 359 3453 968 4101 
Q 1578 4750 2638 4750 
Q 3056 4750 3426 4639 
Q 3797 4528 4122 4306 
z
" transform="scale(0.015625)"/>
      </defs>
      <use xlink:href="#DejaVuSans-42"/>
      <use xlink:href="#DejaVuSans-75" x="68.603516"/>
      <use xlink:href="#DejaVuSans-67" x="131.982422"/>
      <use xlink:href="#DejaVuSans-20" x="195.458984"/>
      <use xlink:href="#DejaVuSans-43" x="227.246094"/>
      <use xlink:href="#DejaVuSans-6f" x="297.070312"/>
      <use xlink:href="#DejaVuSans-75" x="358.251953"/>
      <use xlink:href="#DejaVuSans-6e" x="421.630859"/>
      <use xlink:href="#DejaVuSans-74" x="485.009766"/>
     </g>
    </g>
   </g>
   <g id="PolyCollection_1">
    <path d="M 452.414223 1744.610775 
L 452.414223 1756.147422 
L 461.832083 1730.976555 
L 490.085661 1714.195977 
L 494.794591 1705.805688 
L 496.364234 1697.415399 
L 512.060667 1680.634821 
L 512.060667 1676.439676 
L 512.060667 1676.439676 
L 496.364234 1689.02511 
L 494.794591 1705.805688 
L 490.085661 1714.195977 
L 461.832083 1722.586266 
L 452.414223 1744.610775 
z
" clip-path="url(#p91c0889cc1)" style="fill: #4c72b0; fill-opacity: 0.2; stroke: #4c72b0; stroke-opacity: 0.2"/>
    <path d="M 516.769596 1663.854243 
L 516.769596 1663.854243 
L 519.908883 1647.073665 
L 521.478526 1615.310428 
L 524.617813 1592.536786 
L 546.592818 1573.658636 
L 557.580321 1550.585341 
L 571.70711 1542.195052 
L 571.70711 1529.609618 
L 571.70711 1529.609618 
L 557.580321 1550.585341 
L 546.592818 1561.073202 
L 524.617813 1592.536786 
L 521.478526 1605.721526 
L 519.908883 1636.06141 
L 516.769596 1663.854243 
z
" clip-path="url(#p91c0889cc1)" style="fill: #4c72b0; fill-opacity: 0.2; stroke: #4c72b0; stroke-opacity: 0.2"/>
    <path d="M 598.391045 1508.633896 
L 598.391045 1517.024185 
L 612.517835 1504.438751 
L 618.796408 1479.267884 
L 621.935694 1460.090081 
L 623.505337 1420.543353 
L 632.923197 1370.194127 
L 684.721424 1361.803838 
L 687.860711 1292.476315 
L 687.860711 1262.445152 
L 687.860711 1262.445152 
L 684.721424 1361.803838 
L 632.923197 1370.194127 
L 623.505337 1402.856324 
L 621.935694 1450.471214 
L 618.796408 1476.750798 
L 612.517835 1496.048462 
L 598.391045 1508.633896 
z
" clip-path="url(#p91c0889cc1)" style="fill: #4c72b0; fill-opacity: 0.2; stroke: #4c72b0; stroke-opacity: 0.2"/>
    <path d="M 703.557143 1159.03852 
L 703.557143 1175.819098 
L 705.126786 1043.434321 
L 709.835716 908.728231 
L 720.823219 904.533087 
L 720.823219 896.142798 
L 720.823219 896.142798 
L 709.835716 908.728231 
L 705.126786 1010.393745 
L 703.557143 1159.03852 
z
" clip-path="url(#p91c0889cc1)" style="fill: #4c72b0; fill-opacity: 0.2; stroke: #4c72b0; stroke-opacity: 0.2"/>
    <path d="M 731.810722 879.36222 
L 731.810722 879.36222 
L 733.380365 870.971931 
L 738.089295 858.386497 
L 741.228581 845.801064 
L 742.798224 837.410775 
L 744.367868 829.020486 
L 750.646441 812.239908 
L 753.785727 803.849618 
L 753.785727 797.556902 
L 753.785727 797.556902 
L 750.646441 812.239908 
L 744.367868 829.020486 
L 742.798224 837.410775 
L 741.228581 845.801064 
L 738.089295 854.191353 
L 733.380365 862.581642 
L 731.810722 879.36222 
z
" clip-path="url(#p91c0889cc1)" style="fill: #4c72b0; fill-opacity: 0.2; stroke: #4c72b0; stroke-opacity: 0.2"/>
    <path d="M 811.862527 782.873896 
L 811.862527 782.873896 
L 813.432171 770.288462 
L 813.432171 770.288462 
L 813.432171 770.288462 
L 811.862527 782.873896 
z
" clip-path="url(#p91c0889cc1)" style="fill: #4c72b0; fill-opacity: 0.2; stroke: #4c72b0; stroke-opacity: 0.2"/>
    <path d="M 830.698246 745.117595 
L 830.698246 753.507884 
L 854.242895 736.727306 
L 873.078614 728.337017 
L 888.775047 719.946728 
L 895.05362 711.556439 
L 904.471479 700.369387 
L 915.458982 677.995283 
L 915.458982 677.995283 
L 915.458982 677.995283 
L 904.471479 689.182335 
L 895.05362 711.556439 
L 888.775047 719.946728 
L 873.078614 728.337017 
L 854.242895 736.727306 
L 830.698246 745.117595 
z
" clip-path="url(#p91c0889cc1)" style="fill: #4c72b0; fill-opacity: 0.2; stroke: #4c72b0; stroke-opacity: 0.2"/>
    <path d="M 959.408993 665.40985 
L 959.408993 665.40985 
L 968.826852 657.019561 
L 976.675068 648.629272 
L 979.814355 640.238983 
L 993.941144 631.848694 
L 997.080431 623.458405 
L 998.650074 615.068116 
L 1015.91615 606.677827 
L 1034.751869 598.287538 
L 1091.259026 589.897249 
L 1116.373318 581.50696 
L 1121.082247 573.116671 
L 1136.77868 564.726382 
L 1176.019761 556.336092 
L 1213.691199 547.945803 
L 1213.691199 547.945803 
L 1213.691199 547.945803 
L 1176.019761 556.336092 
L 1136.77868 564.726382 
L 1121.082247 573.116671 
L 1116.373318 581.50696 
L 1091.259026 589.897249 
L 1034.751869 598.287538 
L 1015.91615 606.677827 
L 998.650074 615.068116 
L 997.080431 623.458405 
L 993.941144 631.848694 
L 979.814355 640.238983 
L 976.675068 648.629272 
L 968.826852 657.019561 
L 959.408993 665.40985 
z
" clip-path="url(#p91c0889cc1)" style="fill: #4c72b0; fill-opacity: 0.2; stroke: #4c72b0; stroke-opacity: 0.2"/>
    <path d="M 1262.35014 526.970081 
L 1262.35014 535.36037 
L 1265.489426 518.579792 
L 1276.476929 510.189503 
L 1278.046572 501.799214 
L 1315.71801 493.408925 
L 1336.123373 485.018636 
L 1358.098378 476.628347 
L 1373.794811 468.238058 
L 1378.50374 459.847769 
L 1453.846616 451.45748 
L 1477.391265 443.067191 
L 1497.796627 426.286613 
L 1505.644844 417.896324 
L 1551.164498 409.506035 
L 1742.660974 401.115746 
L 1752.078834 392.725457 
L 1825.852067 384.335168 
L 1882.359224 375.944879 
L 1896.486013 367.55459 
L 2094.261062 359.164301 
L 2098.969992 350.774012 
L 2122.514641 342.383723 
L 2164.895008 333.993434 
L 2235.528955 325.603145 
L 2235.528955 325.603145 
L 2235.528955 325.603145 
L 2164.895008 333.993434 
L 2122.514641 342.383723 
L 2098.969992 350.774012 
L 2094.261062 359.164301 
L 1896.486013 367.55459 
L 1882.359224 375.944879 
L 1825.852067 384.335168 
L 1752.078834 392.725457 
L 1742.660974 401.115746 
L 1551.164498 409.506035 
L 1505.644844 417.896324 
L 1497.796627 426.286613 
L 1477.391265 434.676902 
L 1453.846616 451.45748 
L 1378.50374 459.847769 
L 1373.794811 468.238058 
L 1358.098378 476.628347 
L 1336.123373 485.018636 
L 1315.71801 493.408925 
L 1278.046572 501.799214 
L 1276.476929 510.189503 
L 1265.489426 518.579792 
L 1262.35014 526.970081 
z
" clip-path="url(#p91c0889cc1)" style="fill: #4c72b0; fill-opacity: 0.2; stroke: #4c72b0; stroke-opacity: 0.2"/>
   </g>
   <g id="PolyCollection_2">
    <path d="M 491.655304 1764.537711 
L 491.655304 1764.537711 
L 510.491023 1745.659561 
L 639.20177 1693.420023 
L 640.771413 1625.631815 
L 647.049986 1596.731931 
L 764.77323 1586.663584 
L 766.342873 1556.305993 
L 767.912516 1517.024185 
L 871.508971 1491.853318 
L 874.648257 1483.463029 
L 1328.275156 1475.07274 
L 1361.237665 1466.682451 
L 1365.946594 1433.121295 
L 1369.085881 1424.731006 
L 1373.794811 1402.356902 
L 1373.794811 1385.576324 
L 1373.794811 1385.576324 
L 1369.085881 1424.731006 
L 1365.946594 1433.121295 
L 1361.237665 1466.682451 
L 1328.275156 1475.07274 
L 874.648257 1483.463029 
L 871.508971 1491.853318 
L 767.912516 1505.038058 
L 766.342873 1541.050922 
L 764.77323 1578.273295 
L 647.049986 1596.731931 
L 640.771413 1612.580254 
L 639.20177 1670.047075 
L 510.491023 1733.074127 
L 491.655304 1764.537711 
z
" clip-path="url(#p91c0889cc1)" style="fill: #dd8452; fill-opacity: 0.2; stroke: #dd8452; stroke-opacity: 0.2"/>
    <path d="M 1392.63053 1349.218405 
L 1392.63053 1349.218405 
L 1400.478746 1345.02326 
L 1402.048389 1328.242682 
L 1518.20199 1319.852393 
L 1519.771633 1303.071815 
L 1753.648477 1294.681526 
L 1755.21812 1277.900948 
L 1758.357407 1269.510659 
L 1758.357407 1261.12037 
L 1758.357407 1261.12037 
L 1755.21812 1277.900948 
L 1753.648477 1286.291237 
L 1519.771633 1303.071815 
L 1518.20199 1319.852393 
L 1402.048389 1328.242682 
L 1400.478746 1336.632971 
L 1392.63053 1349.218405 
z
" clip-path="url(#p91c0889cc1)" style="fill: #dd8452; fill-opacity: 0.2; stroke: #dd8452; stroke-opacity: 0.2"/>
    <path d="M 2025.196759 1235.949503 
L 2025.196759 1244.339792 
L 2025.196759 1235.949503 
L 2025.196759 1235.949503 
z
" clip-path="url(#p91c0889cc1)" style="fill: #dd8452; fill-opacity: 0.2; stroke: #dd8452; stroke-opacity: 0.2"/>
    <path d="M 2040.893192 1209.380254 
L 2040.893192 1220.567306 
L 2149.198576 1198.193202 
L 2150.768219 1189.802913 
L 2152.337862 1181.412624 
L 2153.907506 1173.022335 
L 2158.616435 1164.632046 
L 2161.755722 1156.241757 
L 2202.566446 1117.286844 
L 2263.782533 1059.753434 
L 2265.352176 1051.363145 
L 2265.352176 1051.363145 
L 2265.352176 1051.363145 
L 2263.782533 1059.753434 
L 2202.566446 1096.710659 
L 2161.755722 1156.241757 
L 2158.616435 1164.632046 
L 2153.907506 1173.022335 
L 2152.337862 1181.412624 
L 2150.768219 1189.802913 
L 2149.198576 1198.193202 
L 2040.893192 1209.380254 
z
" clip-path="url(#p91c0889cc1)" style="fill: #dd8452; fill-opacity: 0.2; stroke: #dd8452; stroke-opacity: 0.2"/>
    <path d="M 2276.339679 1019.899561 
L 2276.339679 1032.484994 
L 2276.339679 1019.899561 
L 2276.339679 1019.899561 
z
" clip-path="url(#p91c0889cc1)" style="fill: #dd8452; fill-opacity: 0.2; stroke: #dd8452; stroke-opacity: 0.2"/>
    <path d="M 2379.936134 1001.02141 
L 2379.936134 1001.02141 
L 2389.353993 992.631121 
L 2390.923636 984.240832 
L 2390.923636 975.850543 
L 2390.923636 975.850543 
L 2389.353993 992.631121 
L 2379.936134 1001.02141 
z
" clip-path="url(#p91c0889cc1)" style="fill: #dd8452; fill-opacity: 0.2; stroke: #dd8452; stroke-opacity: 0.2"/>
   </g>
   <g id="PolyCollection_3">
    <path d="M 654.898202 1733.558182 
L 654.898202 1750.016057 
L 656.467846 1710.000832 
L 656.467846 1710.000832 
L 656.467846 1710.000832 
L 654.898202 1733.558182 
z
" clip-path="url(#p91c0889cc1)" style="fill: #55a868; fill-opacity: 0.2; stroke: #55a868; stroke-opacity: 0.2"/>
    <path d="M 736.519651 1639.024231 
L 736.519651 1662.115006 
L 738.089295 1596.731931 
L 766.342873 1579.951353 
L 811.862527 1554.780486 
L 2354.821842 1546.390197 
L 2354.821842 1546.390197 
L 2354.821842 1546.390197 
L 811.862527 1554.780486 
L 766.342873 1567.365919 
L 738.089295 1596.731931 
L 736.519651 1639.024231 
z
" clip-path="url(#p91c0889cc1)" style="fill: #55a868; fill-opacity: 0.2; stroke: #55a868; stroke-opacity: 0.2"/>
   </g>
   <g id="PolyCollection_4">
    <defs>
     <path id="m6e2626e9d0" d="M 1863.523505 -309.062289 
L 1863.523505 -309.062289 
L 1863.523505 -309.062289 
L 1863.523505 -309.062289 
z
" style="stroke: #c44e52; stroke-opacity: 0.2"/>
    </defs>
    <g clip-path="url(#p91c0889cc1)">
     <use xlink:href="#m6e2626e9d0" x="0" y="2073.6" style="fill: #c44e52; fill-opacity: 0.2; stroke: #c44e52; stroke-opacity: 0.2"/>
    </g>
   </g>
   <g id="line2d_16">
    <path d="M 442.996364 1772.928 
L 452.414223 1749.854705 
L 461.832083 1726.78141 
L 490.085661 1714.195977 
L 494.794591 1705.805688 
L 496.364234 1693.220254 
L 512.060667 1679.236439 
L 515.199953 1672.244532 
L 516.769596 1663.854243 
L 519.908883 1641.305341 
L 521.478526 1610.515977 
L 524.617813 1592.536786 
L 546.592818 1567.365919 
L 557.580321 1550.585341 
L 571.70711 1535.482821 
L 587.403543 1525.414474 
L 598.391045 1512.82904 
L 612.517835 1498.845225 
L 618.796408 1478.428855 
L 621.935694 1455.29563 
L 623.505337 1412.145572 
L 632.923197 1370.194127 
L 684.721424 1361.803838 
L 687.860711 1278.011347 
L 692.56964 1198.193202 
L 703.557143 1167.428809 
L 705.126786 1027.107582 
L 709.835716 908.728231 
L 720.823219 898.939561 
L 723.962505 891.947653 
L 731.810722 879.36222 
L 733.380365 866.776786 
L 738.089295 856.288925 
L 741.228581 845.801064 
L 742.798224 837.410775 
L 744.367868 829.020486 
L 750.646441 812.239908 
L 753.785727 800.70326 
L 756.925014 791.264185 
L 811.862527 782.873896 
L 813.432171 770.288462 
L 816.571457 766.093318 
L 819.710744 761.898173 
L 830.698246 749.31274 
L 854.242895 736.727306 
L 873.078614 728.337017 
L 888.775047 719.946728 
L 895.05362 711.556439 
L 904.471479 694.775861 
L 915.458982 677.995283 
L 951.560776 673.800139 
L 959.408993 665.40985 
L 968.826852 657.019561 
L 976.675068 648.629272 
L 979.814355 640.238983 
L 993.941144 631.848694 
L 997.080431 623.458405 
L 998.650074 615.068116 
L 1015.91615 606.677827 
L 1034.751869 598.287538 
L 1091.259026 589.897249 
L 1116.373318 581.50696 
L 1121.082247 573.116671 
L 1136.77868 564.726382 
L 1176.019761 556.336092 
L 1213.691199 547.945803 
L 1219.969772 543.750659 
L 1262.35014 531.165225 
L 1265.489426 518.579792 
L 1276.476929 510.189503 
L 1278.046572 501.799214 
L 1315.71801 493.408925 
L 1336.123373 485.018636 
L 1358.098378 476.628347 
L 1373.794811 468.238058 
L 1378.50374 459.847769 
L 1453.846616 451.45748 
L 1477.391265 438.872046 
L 1497.796627 426.286613 
L 1505.644844 417.896324 
L 1551.164498 409.506035 
L 1742.660974 401.115746 
L 1752.078834 392.725457 
L 1825.852067 384.335168 
L 1882.359224 375.944879 
L 1896.486013 367.55459 
L 2094.261062 359.164301 
L 2098.969992 350.774012 
L 2122.514641 342.383723 
L 2164.895008 333.993434 
L 2235.528955 325.603145 
L 2241.807528 321.408 
" clip-path="url(#p91c0889cc1)" style="fill: none; stroke: #4c72b0; stroke-width: 1.5; stroke-linecap: round"/>
   </g>
   <g id="line2d_17">
    <path d="M 442.996364 1772.928 
L 491.655304 1764.537711 
L 510.491023 1739.366844 
L 639.20177 1681.833434 
L 640.771413 1619.106035 
L 647.049986 1596.731931 
L 764.77323 1582.468439 
L 766.342873 1548.678457 
L 767.912516 1511.031121 
L 871.508971 1491.853318 
L 874.648257 1483.463029 
L 1328.275156 1475.07274 
L 1361.237665 1466.682451 
L 1365.946594 1433.121295 
L 1369.085881 1424.731006 
L 1373.794811 1393.966613 
L 1386.351957 1370.194127 
L 1389.491243 1365.998983 
L 1392.63053 1349.218405 
L 1400.478746 1339.429734 
L 1402.048389 1328.242682 
L 1518.20199 1319.852393 
L 1519.771633 1303.071815 
L 1753.648477 1290.486382 
L 1755.21812 1277.900948 
L 1758.357407 1265.315514 
L 1905.903872 1256.925225 
L 1909.043159 1252.730081 
L 2025.196759 1240.144647 
L 2026.766402 1231.754358 
L 2040.893192 1214.97378 
L 2149.198576 1198.193202 
L 2150.768219 1189.802913 
L 2152.337862 1181.412624 
L 2153.907506 1173.022335 
L 2158.616435 1164.632046 
L 2161.755722 1156.241757 
L 2202.566446 1107.298405 
L 2263.782533 1059.753434 
L 2265.352176 1051.363145 
L 2274.770036 1047.168 
L 2276.339679 1026.192277 
L 2373.657561 1009.411699 
L 2379.936134 1001.02141 
L 2389.353993 992.631121 
L 2390.923636 980.045688 
" clip-path="url(#p91c0889cc1)" style="fill: none; stroke: #dd8452; stroke-width: 1.5; stroke-linecap: round"/>
   </g>
   <g id="line2d_18">
    <path d="M 442.996364 1772.928 
L 654.898202 1741.625768 
L 656.467846 1710.000832 
L 669.024992 1705.805688 
L 736.519651 1650.569618 
L 738.089295 1596.731931 
L 766.342873 1573.658636 
L 811.862527 1554.780486 
L 2354.821842 1546.390197 
" clip-path="url(#p91c0889cc1)" style="fill: none; stroke: #55a868; stroke-width: 1.5; stroke-linecap: round"/>
   </g>
   <g id="line2d_19">
    <path d="M 442.996364 1772.928 
L 1863.523505 1764.537711 
" clip-path="url(#p91c0889cc1)" style="fill: none; stroke: #c44e52; stroke-width: 1.5; stroke-linecap: round"/>
   </g>
   <g id="line2d_20"/>
   <g id="line2d_21"/>
   <g id="line2d_22"/>
   <g id="line2d_23"/>
   <g id="patch_3">
    <path d="M 345.6 1845.504 
L 345.6 248.832 
" style="fill: none; stroke: #cccccc; stroke-width: 1.25; stroke-linejoin: miter; stroke-linecap: square"/>
   </g>
   <g id="patch_4">
    <path d="M 345.6 1845.504 
L 2488.32 1845.504 
" style="fill: none; stroke: #cccccc; stroke-width: 1.25; stroke-linejoin: miter; stroke-linecap: square"/>
   </g>
   <g id="text_18">
    <!-- Bug Discovery History -->
    <g style="fill: #262626" transform="translate(1287.42156 242.832)scale(0.20736 -0.20736)">
     <defs>
      <path id="DejaVuSans-Bold-42" d="M 2456 2859 
Q 2741 2859 2887 2984 
Q 3034 3109 3034 3353 
Q 3034 3594 2887 3720 
Q 2741 3847 2456 3847 
L 1791 3847 
L 1791 2859 
L 2456 2859 
z
M 2497 819 
Q 2859 819 3042 972 
Q 3225 1125 3225 1434 
Q 3225 1738 3044 1889 
Q 2863 2041 2497 2041 
L 1791 2041 
L 1791 819 
L 2497 819 
z
M 3616 2497 
Q 4003 2384 4215 2081 
Q 4428 1778 4428 1338 
Q 4428 663 3972 331 
Q 3516 0 2584 0 
L 588 0 
L 588 4666 
L 2394 4666 
Q 3366 4666 3802 4372 
Q 4238 4078 4238 3431 
Q 4238 3091 4078 2852 
Q 3919 2613 3616 2497 
z
" transform="scale(0.015625)"/>
      <path id="DejaVuSans-Bold-75" d="M 500 1363 
L 500 3500 
L 1625 3500 
L 1625 3150 
Q 1625 2866 1622 2436 
Q 1619 2006 1619 1863 
Q 1619 1441 1641 1255 
Q 1663 1069 1716 984 
Q 1784 875 1895 815 
Q 2006 756 2150 756 
Q 2500 756 2700 1025 
Q 2900 1294 2900 1772 
L 2900 3500 
L 4019 3500 
L 4019 0 
L 2900 0 
L 2900 506 
Q 2647 200 2364 54 
Q 2081 -91 1741 -91 
Q 1134 -91 817 281 
Q 500 653 500 1363 
z
" transform="scale(0.015625)"/>
      <path id="DejaVuSans-Bold-67" d="M 2919 594 
Q 2688 288 2409 144 
Q 2131 0 1766 0 
Q 1125 0 706 504 
Q 288 1009 288 1791 
Q 288 2575 706 3076 
Q 1125 3578 1766 3578 
Q 2131 3578 2409 3434 
Q 2688 3291 2919 2981 
L 2919 3500 
L 4044 3500 
L 4044 353 
Q 4044 -491 3511 -936 
Q 2978 -1381 1966 -1381 
Q 1638 -1381 1331 -1331 
Q 1025 -1281 716 -1178 
L 716 -306 
Q 1009 -475 1290 -558 
Q 1572 -641 1856 -641 
Q 2406 -641 2662 -400 
Q 2919 -159 2919 353 
L 2919 594 
z
M 2181 2772 
Q 1834 2772 1640 2515 
Q 1447 2259 1447 1791 
Q 1447 1309 1634 1061 
Q 1822 813 2181 813 
Q 2531 813 2725 1069 
Q 2919 1325 2919 1791 
Q 2919 2259 2725 2515 
Q 2531 2772 2181 2772 
z
" transform="scale(0.015625)"/>
      <path id="DejaVuSans-Bold-20" transform="scale(0.015625)"/>
      <path id="DejaVuSans-Bold-44" d="M 1791 3756 
L 1791 909 
L 2222 909 
Q 2959 909 3348 1275 
Q 3738 1641 3738 2338 
Q 3738 3031 3350 3393 
Q 2963 3756 2222 3756 
L 1791 3756 
z
M 588 4666 
L 1856 4666 
Q 2919 4666 3439 4514 
Q 3959 4363 4331 4000 
Q 4659 3684 4818 3271 
Q 4978 2859 4978 2338 
Q 4978 1809 4818 1395 
Q 4659 981 4331 666 
Q 3956 303 3431 151 
Q 2906 0 1856 0 
L 588 0 
L 588 4666 
z
" transform="scale(0.015625)"/>
      <path id="DejaVuSans-Bold-69" d="M 538 3500 
L 1656 3500 
L 1656 0 
L 538 0 
L 538 3500 
z
M 538 4863 
L 1656 4863 
L 1656 3950 
L 538 3950 
L 538 4863 
z
" transform="scale(0.015625)"/>
      <path id="DejaVuSans-Bold-73" d="M 3272 3391 
L 3272 2541 
Q 2913 2691 2578 2766 
Q 2244 2841 1947 2841 
Q 1628 2841 1473 2761 
Q 1319 2681 1319 2516 
Q 1319 2381 1436 2309 
Q 1553 2238 1856 2203 
L 2053 2175 
Q 2913 2066 3209 1816 
Q 3506 1566 3506 1031 
Q 3506 472 3093 190 
Q 2681 -91 1863 -91 
Q 1516 -91 1145 -36 
Q 775 19 384 128 
L 384 978 
Q 719 816 1070 734 
Q 1422 653 1784 653 
Q 2113 653 2278 743 
Q 2444 834 2444 1013 
Q 2444 1163 2330 1236 
Q 2216 1309 1875 1350 
L 1678 1375 
Q 931 1469 631 1722 
Q 331 1975 331 2491 
Q 331 3047 712 3315 
Q 1094 3584 1881 3584 
Q 2191 3584 2531 3537 
Q 2872 3491 3272 3391 
z
" transform="scale(0.015625)"/>
      <path id="DejaVuSans-Bold-63" d="M 3366 3391 
L 3366 2478 
Q 3138 2634 2908 2709 
Q 2678 2784 2431 2784 
Q 1963 2784 1702 2511 
Q 1441 2238 1441 1747 
Q 1441 1256 1702 982 
Q 1963 709 2431 709 
Q 2694 709 2930 787 
Q 3166 866 3366 1019 
L 3366 103 
Q 3103 6 2833 -42 
Q 2563 -91 2291 -91 
Q 1344 -91 809 395 
Q 275 881 275 1747 
Q 275 2613 809 3098 
Q 1344 3584 2291 3584 
Q 2566 3584 2833 3536 
Q 3100 3488 3366 3391 
z
" transform="scale(0.015625)"/>
      <path id="DejaVuSans-Bold-6f" d="M 2203 2784 
Q 1831 2784 1636 2517 
Q 1441 2250 1441 1747 
Q 1441 1244 1636 976 
Q 1831 709 2203 709 
Q 2569 709 2762 976 
Q 2956 1244 2956 1747 
Q 2956 2250 2762 2517 
Q 2569 2784 2203 2784 
z
M 2203 3584 
Q 3106 3584 3614 3096 
Q 4122 2609 4122 1747 
Q 4122 884 3614 396 
Q 3106 -91 2203 -91 
Q 1297 -91 786 396 
Q 275 884 275 1747 
Q 275 2609 786 3096 
Q 1297 3584 2203 3584 
z
" transform="scale(0.015625)"/>
      <path id="DejaVuSans-Bold-76" d="M 97 3500 
L 1216 3500 
L 2088 1081 
L 2956 3500 
L 4078 3500 
L 2700 0 
L 1472 0 
L 97 3500 
z
" transform="scale(0.015625)"/>
      <path id="DejaVuSans-Bold-65" d="M 4031 1759 
L 4031 1441 
L 1416 1441 
Q 1456 1047 1700 850 
Q 1944 653 2381 653 
Q 2734 653 3104 758 
Q 3475 863 3866 1075 
L 3866 213 
Q 3469 63 3072 -14 
Q 2675 -91 2278 -91 
Q 1328 -91 801 392 
Q 275 875 275 1747 
Q 275 2603 792 3093 
Q 1309 3584 2216 3584 
Q 3041 3584 3536 3087 
Q 4031 2591 4031 1759 
z
M 2881 2131 
Q 2881 2450 2695 2645 
Q 2509 2841 2209 2841 
Q 1884 2841 1681 2658 
Q 1478 2475 1428 2131 
L 2881 2131 
z
" transform="scale(0.015625)"/>
      <path id="DejaVuSans-Bold-72" d="M 3138 2547 
Q 2991 2616 2845 2648 
Q 2700 2681 2553 2681 
Q 2122 2681 1889 2404 
Q 1656 2128 1656 1613 
L 1656 0 
L 538 0 
L 538 3500 
L 1656 3500 
L 1656 2925 
Q 1872 3269 2151 3426 
Q 2431 3584 2822 3584 
Q 2878 3584 2943 3579 
Q 3009 3575 3134 3559 
L 3138 2547 
z
" transform="scale(0.015625)"/>
      <path id="DejaVuSans-Bold-79" d="M 78 3500 
L 1197 3500 
L 2138 1125 
L 2938 3500 
L 4056 3500 
L 2584 -331 
Q 2363 -916 2067 -1148 
Q 1772 -1381 1288 -1381 
L 641 -1381 
L 641 -647 
L 991 -647 
Q 1275 -647 1404 -556 
Q 1534 -466 1606 -231 
L 1638 -134 
L 78 3500 
z
" transform="scale(0.015625)"/>
      <path id="DejaVuSans-Bold-48" d="M 588 4666 
L 1791 4666 
L 1791 2888 
L 3566 2888 
L 3566 4666 
L 4769 4666 
L 4769 0 
L 3566 0 
L 3566 1978 
L 1791 1978 
L 1791 0 
L 588 0 
L 588 4666 
z
" transform="scale(0.015625)"/>
      <path id="DejaVuSans-Bold-74" d="M 1759 4494 
L 1759 3500 
L 2913 3500 
L 2913 2700 
L 1759 2700 
L 1759 1216 
Q 1759 972 1856 886 
Q 1953 800 2241 800 
L 2816 800 
L 2816 0 
L 1856 0 
Q 1194 0 917 276 
Q 641 553 641 1216 
L 641 2700 
L 84 2700 
L 84 3500 
L 641 3500 
L 641 4494 
L 1759 4494 
z
" transform="scale(0.015625)"/>
     </defs>
     <use xlink:href="#DejaVuSans-Bold-42"/>
     <use xlink:href="#DejaVuSans-Bold-75" x="76.220703"/>
     <use xlink:href="#DejaVuSans-Bold-67" x="147.412109"/>
     <use xlink:href="#DejaVuSans-Bold-20" x="218.994141"/>
     <use xlink:href="#DejaVuSans-Bold-44" x="253.808594"/>
     <use xlink:href="#DejaVuSans-Bold-69" x="336.816406"/>
     <use xlink:href="#DejaVuSans-Bold-73" x="371.09375"/>
     <use xlink:href="#DejaVuSans-Bold-63" x="430.615234"/>
     <use xlink:href="#DejaVuSans-Bold-6f" x="489.892578"/>
     <use xlink:href="#DejaVuSans-Bold-76" x="558.59375"/>
     <use xlink:href="#DejaVuSans-Bold-65" x="623.779297"/>
     <use xlink:href="#DejaVuSans-Bold-72" x="691.601562"/>
     <use xlink:href="#DejaVuSans-Bold-79" x="740.917969"/>
     <use xlink:href="#DejaVuSans-Bold-20" x="806.103516"/>
     <use xlink:href="#DejaVuSans-Bold-48" x="840.917969"/>
     <use xlink:href="#DejaVuSans-Bold-69" x="924.609375"/>
     <use xlink:href="#DejaVuSans-Bold-73" x="958.886719"/>
     <use xlink:href="#DejaVuSans-Bold-74" x="1018.408203"/>
     <use xlink:href="#DejaVuSans-Bold-6f" x="1066.210938"/>
     <use xlink:href="#DejaVuSans-Bold-72" x="1134.912109"/>
     <use xlink:href="#DejaVuSans-Bold-79" x="1184.228516"/>
    </g>
   </g>
   <g id="legend_1">
    <g id="patch_5">
     <path d="M 2334.21 339.3295 
L 2480.62 339.3295 
Q 2482.82 339.3295 2482.82 337.1295 
L 2482.82 256.532 
Q 2482.82 254.332 2480.62 254.332 
L 2334.21 254.332 
Q 2332.01 254.332 2332.01 256.532 
L 2332.01 337.1295 
Q 2332.01 339.3295 2334.21 339.3295 
z
" style="fill: #ffffff; opacity: 0.8; stroke: #cccccc; stroke-linejoin: miter"/>
    </g>
    <g id="text_19">
     <!-- fuzzer -->
     <g style="fill: #262626" transform="translate(2389.04375 267.850125)scale(0.12 -0.12)">
      <defs>
       <path id="DejaVuSans-66" d="M 2375 4863 
L 2375 4384 
L 1825 4384 
Q 1516 4384 1395 4259 
Q 1275 4134 1275 3809 
L 1275 3500 
L 2222 3500 
L 2222 3053 
L 1275 3053 
L 1275 0 
L 697 0 
L 697 3053 
L 147 3053 
L 147 3500 
L 697 3500 
L 697 3744 
Q 697 4328 969 4595 
Q 1241 4863 1831 4863 
L 2375 4863 
z
" transform="scale(0.015625)"/>
       <path id="DejaVuSans-7a" d="M 353 3500 
L 3084 3500 
L 3084 2975 
L 922 459 
L 3084 459 
L 3084 0 
L 275 0 
L 275 525 
L 2438 3041 
L 353 3041 
L 353 3500 
z
" transform="scale(0.015625)"/>
      </defs>
      <use xlink:href="#DejaVuSans-66"/>
      <use xlink:href="#DejaVuSans-75" x="35.205078"/>
      <use xlink:href="#DejaVuSans-7a" x="98.583984"/>
      <use xlink:href="#DejaVuSans-7a" x="151.074219"/>
      <use xlink:href="#DejaVuSans-65" x="203.564453"/>
      <use xlink:href="#DejaVuSans-72" x="265.087891"/>
     </g>
    </g>
    <g id="line2d_24">
     <path d="M 2336.41 280.354031 
L 2347.41 280.354031 
L 2358.41 280.354031 
" style="fill: none; stroke: #4c72b0; stroke-width: 1.5; stroke-linecap: round"/>
    </g>
    <g id="text_20">
     <!-- afl-0-exid24 -->
     <g style="fill: #262626" transform="translate(2367.21 284.204031)scale(0.11 -0.11)">
      <defs>
       <path id="DejaVuSans-61" d="M 2194 1759 
Q 1497 1759 1228 1600 
Q 959 1441 959 1056 
Q 959 750 1161 570 
Q 1363 391 1709 391 
Q 2188 391 2477 730 
Q 2766 1069 2766 1631 
L 2766 1759 
L 2194 1759 
z
M 3341 1997 
L 3341 0 
L 2766 0 
L 2766 531 
Q 2569 213 2275 61 
Q 1981 -91 1556 -91 
Q 1019 -91 701 211 
Q 384 513 384 1019 
Q 384 1609 779 1909 
Q 1175 2209 1959 2209 
L 2766 2209 
L 2766 2266 
Q 2766 2663 2505 2880 
Q 2244 3097 1772 3097 
Q 1472 3097 1187 3025 
Q 903 2953 641 2809 
L 641 3341 
Q 956 3463 1253 3523 
Q 1550 3584 1831 3584 
Q 2591 3584 2966 3190 
Q 3341 2797 3341 1997 
z
" transform="scale(0.015625)"/>
       <path id="DejaVuSans-6c" d="M 603 4863 
L 1178 4863 
L 1178 0 
L 603 0 
L 603 4863 
z
" transform="scale(0.015625)"/>
       <path id="DejaVuSans-2d" d="M 313 2009 
L 1997 2009 
L 1997 1497 
L 313 1497 
L 313 2009 
z
" transform="scale(0.015625)"/>
       <path id="DejaVuSans-78" d="M 3513 3500 
L 2247 1797 
L 3578 0 
L 2900 0 
L 1881 1375 
L 863 0 
L 184 0 
L 1544 1831 
L 300 3500 
L 978 3500 
L 1906 2253 
L 2834 3500 
L 3513 3500 
z
" transform="scale(0.015625)"/>
       <path id="DejaVuSans-64" d="M 2906 2969 
L 2906 4863 
L 3481 4863 
L 3481 0 
L 2906 0 
L 2906 525 
Q 2725 213 2448 61 
Q 2172 -91 1784 -91 
Q 1150 -91 751 415 
Q 353 922 353 1747 
Q 353 2572 751 3078 
Q 1150 3584 1784 3584 
Q 2172 3584 2448 3432 
Q 2725 3281 2906 2969 
z
M 947 1747 
Q 947 1113 1208 752 
Q 1469 391 1925 391 
Q 2381 391 2643 752 
Q 2906 1113 2906 1747 
Q 2906 2381 2643 2742 
Q 2381 3103 1925 3103 
Q 1469 3103 1208 2742 
Q 947 2381 947 1747 
z
" transform="scale(0.015625)"/>
      </defs>
      <use xlink:href="#DejaVuSans-61"/>
      <use xlink:href="#DejaVuSans-66" x="61.279297"/>
      <use xlink:href="#DejaVuSans-6c" x="96.484375"/>
      <use xlink:href="#DejaVuSans-2d" x="124.267578"/>
      <use xlink:href="#DejaVuSans-30" x="160.351562"/>
      <use xlink:href="#DejaVuSans-2d" x="223.974609"/>
      <use xlink:href="#DejaVuSans-65" x="260.058594"/>
      <use xlink:href="#DejaVuSans-78" x="319.832031"/>
      <use xlink:href="#DejaVuSans-69" x="379.011719"/>
      <use xlink:href="#DejaVuSans-64" x="406.794922"/>
      <use xlink:href="#DejaVuSans-32" x="470.271484"/>
      <use xlink:href="#DejaVuSans-34" x="533.894531"/>
     </g>
    </g>
    <g id="line2d_25">
     <path d="M 2336.41 296.499969 
L 2347.41 296.499969 
L 2358.41 296.499969 
" style="fill: none; stroke: #dd8452; stroke-width: 1.5; stroke-linecap: round"/>
    </g>
    <g id="text_21">
     <!-- fairfuzz-0-exid24 -->
     <g style="fill: #262626" transform="translate(2367.21 300.349969)scale(0.11 -0.11)">
      <use xlink:href="#DejaVuSans-66"/>
      <use xlink:href="#DejaVuSans-61" x="35.205078"/>
      <use xlink:href="#DejaVuSans-69" x="96.484375"/>
      <use xlink:href="#DejaVuSans-72" x="124.267578"/>
      <use xlink:href="#DejaVuSans-66" x="165.380859"/>
      <use xlink:href="#DejaVuSans-75" x="200.585938"/>
      <use xlink:href="#DejaVuSans-7a" x="263.964844"/>
      <use xlink:href="#DejaVuSans-7a" x="316.455078"/>
      <use xlink:href="#DejaVuSans-2d" x="368.945312"/>
      <use xlink:href="#DejaVuSans-30" x="405.029297"/>
      <use xlink:href="#DejaVuSans-2d" x="468.652344"/>
      <use xlink:href="#DejaVuSans-65" x="504.736328"/>
      <use xlink:href="#DejaVuSans-78" x="564.509766"/>
      <use xlink:href="#DejaVuSans-69" x="623.689453"/>
      <use xlink:href="#DejaVuSans-64" x="651.472656"/>
      <use xlink:href="#DejaVuSans-32" x="714.949219"/>
      <use xlink:href="#DejaVuSans-34" x="778.572266"/>
     </g>
    </g>
    <g id="line2d_26">
     <path d="M 2336.41 312.645906 
L 2347.41 312.645906 
L 2358.41 312.645906 
" style="fill: none; stroke: #55a868; stroke-width: 1.5; stroke-linecap: round"/>
    </g>
    <g id="text_22">
     <!-- aflplusplus-0-exid24 -->
     <g style="fill: #262626" transform="translate(2367.21 316.495906)scale(0.11 -0.11)">
      <defs>
       <path id="DejaVuSans-70" d="M 1159 525 
L 1159 -1331 
L 581 -1331 
L 581 3500 
L 1159 3500 
L 1159 2969 
Q 1341 3281 1617 3432 
Q 1894 3584 2278 3584 
Q 2916 3584 3314 3078 
Q 3713 2572 3713 1747 
Q 3713 922 3314 415 
Q 2916 -91 2278 -91 
Q 1894 -91 1617 61 
Q 1341 213 1159 525 
z
M 3116 1747 
Q 3116 2381 2855 2742 
Q 2594 3103 2138 3103 
Q 1681 3103 1420 2742 
Q 1159 2381 1159 1747 
Q 1159 1113 1420 752 
Q 1681 391 2138 391 
Q 2594 391 2855 752 
Q 3116 1113 3116 1747 
z
" transform="scale(0.015625)"/>
      </defs>
      <use xlink:href="#DejaVuSans-61"/>
      <use xlink:href="#DejaVuSans-66" x="61.279297"/>
      <use xlink:href="#DejaVuSans-6c" x="96.484375"/>
      <use xlink:href="#DejaVuSans-70" x="124.267578"/>
      <use xlink:href="#DejaVuSans-6c" x="187.744141"/>
      <use xlink:href="#DejaVuSans-75" x="215.527344"/>
      <use xlink:href="#DejaVuSans-73" x="278.90625"/>
      <use xlink:href="#DejaVuSans-70" x="331.005859"/>
      <use xlink:href="#DejaVuSans-6c" x="394.482422"/>
      <use xlink:href="#DejaVuSans-75" x="422.265625"/>
      <use xlink:href="#DejaVuSans-73" x="485.644531"/>
      <use xlink:href="#DejaVuSans-2d" x="537.744141"/>
      <use xlink:href="#DejaVuSans-30" x="573.828125"/>
      <use xlink:href="#DejaVuSans-2d" x="637.451172"/>
      <use xlink:href="#DejaVuSans-65" x="673.535156"/>
      <use xlink:href="#DejaVuSans-78" x="733.308594"/>
      <use xlink:href="#DejaVuSans-69" x="792.488281"/>
      <use xlink:href="#DejaVuSans-64" x="820.271484"/>
      <use xlink:href="#DejaVuSans-32" x="883.748047"/>
      <use xlink:href="#DejaVuSans-34" x="947.371094"/>
     </g>
    </g>
    <g id="line2d_27">
     <path d="M 2336.41 328.791844 
L 2347.41 328.791844 
L 2358.41 328.791844 
" style="fill: none; stroke: #c44e52; stroke-width: 1.5; stroke-linecap: round"/>
    </g>
    <g id="text_23">
     <!-- aflfast-0-exid24 -->
     <g style="fill: #262626" transform="translate(2367.21 332.641844)scale(0.11 -0.11)">
      <use xlink:href="#DejaVuSans-61"/>
      <use xlink:href="#DejaVuSans-66" x="61.279297"/>
      <use xlink:href="#DejaVuSans-6c" x="96.484375"/>
      <use xlink:href="#DejaVuSans-66" x="124.267578"/>
      <use xlink:href="#DejaVuSans-61" x="159.472656"/>
      <use xlink:href="#DejaVuSans-73" x="220.751953"/>
      <use xlink:href="#DejaVuSans-74" x="272.851562"/>
      <use xlink:href="#DejaVuSans-2d" x="312.060547"/>
      <use xlink:href="#DejaVuSans-30" x="348.144531"/>
      <use xlink:href="#DejaVuSans-2d" x="411.767578"/>
      <use xlink:href="#DejaVuSans-65" x="447.851562"/>
      <use xlink:href="#DejaVuSans-78" x="507.625"/>
      <use xlink:href="#DejaVuSans-69" x="566.804688"/>
      <use xlink:href="#DejaVuSans-64" x="594.587891"/>
      <use xlink:href="#DejaVuSans-32" x="658.064453"/>
      <use xlink:href="#DejaVuSans-34" x="721.6875"/>
     </g>
    </g>
   </g>
  </g>
 </g>
 <defs>
  <clipPath id="p91c0889cc1">
   <rect x="345.6" y="248.832" width="2142.72" height="1596.672"/>
  </clipPath>
 </defs>
</svg>
