<?xml version="1.0" encoding="utf-8" standalone="no"?>
<!DOCTYPE svg PUBLIC "-//W3C//DTD SVG 1.1//EN"
  "http://www.w3.org/Graphics/SVG/1.1/DTD/svg11.dtd">
<svg xmlns:xlink="http://www.w3.org/1999/xlink" width="434.4pt" height="576pt" viewBox="0 0 434.4 576" xmlns="http://www.w3.org/2000/svg" version="1.1">
 <metadata>
  <rdf:RDF xmlns:dc="http://purl.org/dc/elements/1.1/" xmlns:cc="http://creativecommons.org/ns#" xmlns:rdf="http://www.w3.org/1999/02/22-rdf-syntax-ns#">
   <cc:Work>
    <dc:type rdf:resource="http://purl.org/dc/dcmitype/StillImage"/>
    <dc:date>2022-09-15T09:02:48.310124</dc:date>
    <dc:format>image/svg+xml</dc:format>
    <dc:creator>
     <cc:Agent>
      <dc:title>Matplotlib v3.5.3, https://matplotlib.org/</dc:title>
     </cc:Agent>
    </dc:creator>
   </cc:Work>
  </rdf:RDF>
 </metadata>
 <defs>
  <style type="text/css">*{stroke-linejoin: round; stroke-linecap: butt}</style>
 </defs>
 <g id="figure_1">
  <g id="patch_1">
   <path d="M 0 576 
L 434.4 576 
L 434.4 0 
L 0 0 
z
" style="fill: #ffffff"/>
  </g>
  <g id="axes_1">
   <g id="patch_2">
    <path d="M 54.3 512.64 
L 390.96 512.64 
L 390.96 69.12 
L 54.3 69.12 
z
" style="fill: #ffffff"/>
   </g>
   <g id="matplotlib.axis_1">
    <g id="xtick_1">
     <g id="line2d_1">
      <path d="M 69.602727 512.64 
L 69.602727 69.12 
" clip-path="url(#p5fc05ff2f8)" style="fill: none; stroke: #cccccc; stroke-width: 0.8; stroke-linecap: round"/>
     </g>
     <g id="text_1">
      <!-- 0 -->
      <g style="fill: #262626" transform="translate(69.340214 529.627249)rotate(-45)scale(0.088 -0.088)">
       <defs>
        <path id="DejaVuSans-30" d="M 2034 4250 
Q 1547 4250 1301 3770 
Q 1056 3291 1056 2328 
Q 1056 1369 1301 889 
Q 1547 409 2034 409 
Q 2525 409 2770 889 
Q 3016 1369 3016 2328 
Q 3016 3291 2770 3770 
Q 2525 4250 2034 4250 
z
M 2034 4750 
Q 2819 4750 3233 4129 
Q 3647 3509 3647 2328 
Q 3647 1150 3233 529 
Q 2819 -91 2034 -91 
Q 1250 -91 836 529 
Q 422 1150 422 2328 
Q 422 3509 836 4129 
Q 1250 4750 2034 4750 
z
" transform="scale(0.015625)"/>
       </defs>
       <use xlink:href="#DejaVuSans-30"/>
      </g>
     </g>
    </g>
    <g id="xtick_2">
     <g id="line2d_2">
      <path d="M 86.629406 512.64 
L 86.629406 69.12 
" clip-path="url(#p5fc05ff2f8)" style="fill: none; stroke: #cccccc; stroke-width: 0.8; stroke-linecap: round"/>
     </g>
     <g id="text_2">
      <!-- 80 -->
      <g style="fill: #262626" transform="translate(84.387347 533.58634)rotate(-45)scale(0.088 -0.088)">
       <defs>
        <path id="DejaVuSans-38" d="M 2034 2216 
Q 1584 2216 1326 1975 
Q 1069 1734 1069 1313 
Q 1069 891 1326 650 
Q 1584 409 2034 409 
Q 2484 409 2743 651 
Q 3003 894 3003 1313 
Q 3003 1734 2745 1975 
Q 2488 2216 2034 2216 
z
M 1403 2484 
Q 997 2584 770 2862 
Q 544 3141 544 3541 
Q 544 4100 942 4425 
Q 1341 4750 2034 4750 
Q 2731 4750 3128 4425 
Q 3525 4100 3525 3541 
Q 3525 3141 3298 2862 
Q 3072 2584 2669 2484 
Q 3125 2378 3379 2068 
Q 3634 1759 3634 1313 
Q 3634 634 3220 271 
Q 2806 -91 2034 -91 
Q 1263 -91 848 271 
Q 434 634 434 1313 
Q 434 1759 690 2068 
Q 947 2378 1403 2484 
z
M 1172 3481 
Q 1172 3119 1398 2916 
Q 1625 2713 2034 2713 
Q 2441 2713 2670 2916 
Q 2900 3119 2900 3481 
Q 2900 3844 2670 4047 
Q 2441 4250 2034 4250 
Q 1625 4250 1398 4047 
Q 1172 3844 1172 3481 
z
" transform="scale(0.015625)"/>
       </defs>
       <use xlink:href="#DejaVuSans-38"/>
       <use xlink:href="#DejaVuSans-30" x="63.623047"/>
      </g>
     </g>
    </g>
    <g id="xtick_3">
     <g id="line2d_3">
      <path d="M 103.656084 512.64 
L 103.656084 69.12 
" clip-path="url(#p5fc05ff2f8)" style="fill: none; stroke: #cccccc; stroke-width: 0.8; stroke-linecap: round"/>
     </g>
     <g id="text_3">
      <!-- 160 -->
      <g style="fill: #262626" transform="translate(99.43448 537.54543)rotate(-45)scale(0.088 -0.088)">
       <defs>
        <path id="DejaVuSans-31" d="M 794 531 
L 1825 531 
L 1825 4091 
L 703 3866 
L 703 4441 
L 1819 4666 
L 2450 4666 
L 2450 531 
L 3481 531 
L 3481 0 
L 794 0 
L 794 531 
z
" transform="scale(0.015625)"/>
        <path id="DejaVuSans-36" d="M 2113 2584 
Q 1688 2584 1439 2293 
Q 1191 2003 1191 1497 
Q 1191 994 1439 701 
Q 1688 409 2113 409 
Q 2538 409 2786 701 
Q 3034 994 3034 1497 
Q 3034 2003 2786 2293 
Q 2538 2584 2113 2584 
z
M 3366 4563 
L 3366 3988 
Q 3128 4100 2886 4159 
Q 2644 4219 2406 4219 
Q 1781 4219 1451 3797 
Q 1122 3375 1075 2522 
Q 1259 2794 1537 2939 
Q 1816 3084 2150 3084 
Q 2853 3084 3261 2657 
Q 3669 2231 3669 1497 
Q 3669 778 3244 343 
Q 2819 -91 2113 -91 
Q 1303 -91 875 529 
Q 447 1150 447 2328 
Q 447 3434 972 4092 
Q 1497 4750 2381 4750 
Q 2619 4750 2861 4703 
Q 3103 4656 3366 4563 
z
" transform="scale(0.015625)"/>
       </defs>
       <use xlink:href="#DejaVuSans-31"/>
       <use xlink:href="#DejaVuSans-36" x="63.623047"/>
       <use xlink:href="#DejaVuSans-30" x="127.246094"/>
      </g>
     </g>
    </g>
    <g id="xtick_4">
     <g id="line2d_4">
      <path d="M 120.682763 512.64 
L 120.682763 69.12 
" clip-path="url(#p5fc05ff2f8)" style="fill: none; stroke: #cccccc; stroke-width: 0.8; stroke-linecap: round"/>
     </g>
     <g id="text_4">
      <!-- 240 -->
      <g style="fill: #262626" transform="translate(116.461158 537.54543)rotate(-45)scale(0.088 -0.088)">
       <defs>
        <path id="DejaVuSans-32" d="M 1228 531 
L 3431 531 
L 3431 0 
L 469 0 
L 469 531 
Q 828 903 1448 1529 
Q 2069 2156 2228 2338 
Q 2531 2678 2651 2914 
Q 2772 3150 2772 3378 
Q 2772 3750 2511 3984 
Q 2250 4219 1831 4219 
Q 1534 4219 1204 4116 
Q 875 4013 500 3803 
L 500 4441 
Q 881 4594 1212 4672 
Q 1544 4750 1819 4750 
Q 2544 4750 2975 4387 
Q 3406 4025 3406 3419 
Q 3406 3131 3298 2873 
Q 3191 2616 2906 2266 
Q 2828 2175 2409 1742 
Q 1991 1309 1228 531 
z
" transform="scale(0.015625)"/>
        <path id="DejaVuSans-34" d="M 2419 4116 
L 825 1625 
L 2419 1625 
L 2419 4116 
z
M 2253 4666 
L 3047 4666 
L 3047 1625 
L 3713 1625 
L 3713 1100 
L 3047 1100 
L 3047 0 
L 2419 0 
L 2419 1100 
L 313 1100 
L 313 1709 
L 2253 4666 
z
" transform="scale(0.015625)"/>
       </defs>
       <use xlink:href="#DejaVuSans-32"/>
       <use xlink:href="#DejaVuSans-34" x="63.623047"/>
       <use xlink:href="#DejaVuSans-30" x="127.246094"/>
      </g>
     </g>
    </g>
    <g id="xtick_5">
     <g id="line2d_5">
      <path d="M 137.709441 512.64 
L 137.709441 69.12 
" clip-path="url(#p5fc05ff2f8)" style="fill: none; stroke: #cccccc; stroke-width: 0.8; stroke-linecap: round"/>
     </g>
     <g id="text_5">
      <!-- 320 -->
      <g style="fill: #262626" transform="translate(133.487837 537.54543)rotate(-45)scale(0.088 -0.088)">
       <defs>
        <path id="DejaVuSans-33" d="M 2597 2516 
Q 3050 2419 3304 2112 
Q 3559 1806 3559 1356 
Q 3559 666 3084 287 
Q 2609 -91 1734 -91 
Q 1441 -91 1130 -33 
Q 819 25 488 141 
L 488 750 
Q 750 597 1062 519 
Q 1375 441 1716 441 
Q 2309 441 2620 675 
Q 2931 909 2931 1356 
Q 2931 1769 2642 2001 
Q 2353 2234 1838 2234 
L 1294 2234 
L 1294 2753 
L 1863 2753 
Q 2328 2753 2575 2939 
Q 2822 3125 2822 3475 
Q 2822 3834 2567 4026 
Q 2313 4219 1838 4219 
Q 1578 4219 1281 4162 
Q 984 4106 628 3988 
L 628 4550 
Q 988 4650 1302 4700 
Q 1616 4750 1894 4750 
Q 2613 4750 3031 4423 
Q 3450 4097 3450 3541 
Q 3450 3153 3228 2886 
Q 3006 2619 2597 2516 
z
" transform="scale(0.015625)"/>
       </defs>
       <use xlink:href="#DejaVuSans-33"/>
       <use xlink:href="#DejaVuSans-32" x="63.623047"/>
       <use xlink:href="#DejaVuSans-30" x="127.246094"/>
      </g>
     </g>
    </g>
    <g id="xtick_6">
     <g id="line2d_6">
      <path d="M 154.73612 512.64 
L 154.73612 69.12 
" clip-path="url(#p5fc05ff2f8)" style="fill: none; stroke: #cccccc; stroke-width: 0.8; stroke-linecap: round"/>
     </g>
     <g id="text_6">
      <!-- 400 -->
      <g style="fill: #262626" transform="translate(150.514515 537.54543)rotate(-45)scale(0.088 -0.088)">
       <use xlink:href="#DejaVuSans-34"/>
       <use xlink:href="#DejaVuSans-30" x="63.623047"/>
       <use xlink:href="#DejaVuSans-30" x="127.246094"/>
      </g>
     </g>
    </g>
    <g id="xtick_7">
     <g id="line2d_7">
      <path d="M 171.762798 512.64 
L 171.762798 69.12 
" clip-path="url(#p5fc05ff2f8)" style="fill: none; stroke: #cccccc; stroke-width: 0.8; stroke-linecap: round"/>
     </g>
     <g id="text_7">
      <!-- 480 -->
      <g style="fill: #262626" transform="translate(167.541194 537.54543)rotate(-45)scale(0.088 -0.088)">
       <use xlink:href="#DejaVuSans-34"/>
       <use xlink:href="#DejaVuSans-38" x="63.623047"/>
       <use xlink:href="#DejaVuSans-30" x="127.246094"/>
      </g>
     </g>
    </g>
    <g id="xtick_8">
     <g id="line2d_8">
      <path d="M 188.789477 512.64 
L 188.789477 69.12 
" clip-path="url(#p5fc05ff2f8)" style="fill: none; stroke: #cccccc; stroke-width: 0.8; stroke-linecap: round"/>
     </g>
     <g id="text_8">
      <!-- 560 -->
      <g style="fill: #262626" transform="translate(184.567872 537.54543)rotate(-45)scale(0.088 -0.088)">
       <defs>
        <path id="DejaVuSans-35" d="M 691 4666 
L 3169 4666 
L 3169 4134 
L 1269 4134 
L 1269 2991 
Q 1406 3038 1543 3061 
Q 1681 3084 1819 3084 
Q 2600 3084 3056 2656 
Q 3513 2228 3513 1497 
Q 3513 744 3044 326 
Q 2575 -91 1722 -91 
Q 1428 -91 1123 -41 
Q 819 9 494 109 
L 494 744 
Q 775 591 1075 516 
Q 1375 441 1709 441 
Q 2250 441 2565 725 
Q 2881 1009 2881 1497 
Q 2881 1984 2565 2268 
Q 2250 2553 1709 2553 
Q 1456 2553 1204 2497 
Q 953 2441 691 2322 
L 691 4666 
z
" transform="scale(0.015625)"/>
       </defs>
       <use xlink:href="#DejaVuSans-35"/>
       <use xlink:href="#DejaVuSans-36" x="63.623047"/>
       <use xlink:href="#DejaVuSans-30" x="127.246094"/>
      </g>
     </g>
    </g>
    <g id="xtick_9">
     <g id="line2d_9">
      <path d="M 205.816155 512.64 
L 205.816155 69.12 
" clip-path="url(#p5fc05ff2f8)" style="fill: none; stroke: #cccccc; stroke-width: 0.8; stroke-linecap: round"/>
     </g>
     <g id="text_9">
      <!-- 640 -->
      <g style="fill: #262626" transform="translate(201.594551 537.54543)rotate(-45)scale(0.088 -0.088)">
       <use xlink:href="#DejaVuSans-36"/>
       <use xlink:href="#DejaVuSans-34" x="63.623047"/>
       <use xlink:href="#DejaVuSans-30" x="127.246094"/>
      </g>
     </g>
    </g>
    <g id="xtick_10">
     <g id="line2d_10">
      <path d="M 222.842833 512.64 
L 222.842833 69.12 
" clip-path="url(#p5fc05ff2f8)" style="fill: none; stroke: #cccccc; stroke-width: 0.8; stroke-linecap: round"/>
     </g>
     <g id="text_10">
      <!-- 720 -->
      <g style="fill: #262626" transform="translate(218.621229 537.54543)rotate(-45)scale(0.088 -0.088)">
       <defs>
        <path id="DejaVuSans-37" d="M 525 4666 
L 3525 4666 
L 3525 4397 
L 1831 0 
L 1172 0 
L 2766 4134 
L 525 4134 
L 525 4666 
z
" transform="scale(0.015625)"/>
       </defs>
       <use xlink:href="#DejaVuSans-37"/>
       <use xlink:href="#DejaVuSans-32" x="63.623047"/>
       <use xlink:href="#DejaVuSans-30" x="127.246094"/>
      </g>
     </g>
    </g>
    <g id="xtick_11">
     <g id="line2d_11">
      <path d="M 239.869512 512.64 
L 239.869512 69.12 
" clip-path="url(#p5fc05ff2f8)" style="fill: none; stroke: #cccccc; stroke-width: 0.8; stroke-linecap: round"/>
     </g>
     <g id="text_11">
      <!-- 800 -->
      <g style="fill: #262626" transform="translate(235.647908 537.54543)rotate(-45)scale(0.088 -0.088)">
       <use xlink:href="#DejaVuSans-38"/>
       <use xlink:href="#DejaVuSans-30" x="63.623047"/>
       <use xlink:href="#DejaVuSans-30" x="127.246094"/>
      </g>
     </g>
    </g>
    <g id="xtick_12">
     <g id="line2d_12">
      <path d="M 256.89619 512.64 
L 256.89619 69.12 
" clip-path="url(#p5fc05ff2f8)" style="fill: none; stroke: #cccccc; stroke-width: 0.8; stroke-linecap: round"/>
     </g>
     <g id="text_12">
      <!-- 880 -->
      <g style="fill: #262626" transform="translate(252.674586 537.54543)rotate(-45)scale(0.088 -0.088)">
       <use xlink:href="#DejaVuSans-38"/>
       <use xlink:href="#DejaVuSans-38" x="63.623047"/>
       <use xlink:href="#DejaVuSans-30" x="127.246094"/>
      </g>
     </g>
    </g>
    <g id="xtick_13">
     <g id="line2d_13">
      <path d="M 273.922869 512.64 
L 273.922869 69.12 
" clip-path="url(#p5fc05ff2f8)" style="fill: none; stroke: #cccccc; stroke-width: 0.8; stroke-linecap: round"/>
     </g>
     <g id="text_13">
      <!-- 960 -->
      <g style="fill: #262626" transform="translate(269.701265 537.54543)rotate(-45)scale(0.088 -0.088)">
       <defs>
        <path id="DejaVuSans-39" d="M 703 97 
L 703 672 
Q 941 559 1184 500 
Q 1428 441 1663 441 
Q 2288 441 2617 861 
Q 2947 1281 2994 2138 
Q 2813 1869 2534 1725 
Q 2256 1581 1919 1581 
Q 1219 1581 811 2004 
Q 403 2428 403 3163 
Q 403 3881 828 4315 
Q 1253 4750 1959 4750 
Q 2769 4750 3195 4129 
Q 3622 3509 3622 2328 
Q 3622 1225 3098 567 
Q 2575 -91 1691 -91 
Q 1453 -91 1209 -44 
Q 966 3 703 97 
z
M 1959 2075 
Q 2384 2075 2632 2365 
Q 2881 2656 2881 3163 
Q 2881 3666 2632 3958 
Q 2384 4250 1959 4250 
Q 1534 4250 1286 3958 
Q 1038 3666 1038 3163 
Q 1038 2656 1286 2365 
Q 1534 2075 1959 2075 
z
" transform="scale(0.015625)"/>
       </defs>
       <use xlink:href="#DejaVuSans-39"/>
       <use xlink:href="#DejaVuSans-36" x="63.623047"/>
       <use xlink:href="#DejaVuSans-30" x="127.246094"/>
      </g>
     </g>
    </g>
    <g id="xtick_14">
     <g id="line2d_14">
      <path d="M 290.949547 512.64 
L 290.949547 69.12 
" clip-path="url(#p5fc05ff2f8)" style="fill: none; stroke: #cccccc; stroke-width: 0.8; stroke-linecap: round"/>
     </g>
     <g id="text_14">
      <!-- 1040 -->
      <g style="fill: #262626" transform="translate(284.748398 541.504521)rotate(-45)scale(0.088 -0.088)">
       <use xlink:href="#DejaVuSans-31"/>
       <use xlink:href="#DejaVuSans-30" x="63.623047"/>
       <use xlink:href="#DejaVuSans-34" x="127.246094"/>
       <use xlink:href="#DejaVuSans-30" x="190.869141"/>
      </g>
     </g>
    </g>
    <g id="xtick_15">
     <g id="line2d_15">
      <path d="M 307.976226 512.64 
L 307.976226 69.12 
" clip-path="url(#p5fc05ff2f8)" style="fill: none; stroke: #cccccc; stroke-width: 0.8; stroke-linecap: round"/>
     </g>
     <g id="text_15">
      <!-- 1120 -->
      <g style="fill: #262626" transform="translate(301.775076 541.504521)rotate(-45)scale(0.088 -0.088)">
       <use xlink:href="#DejaVuSans-31"/>
       <use xlink:href="#DejaVuSans-31" x="63.623047"/>
       <use xlink:href="#DejaVuSans-32" x="127.246094"/>
       <use xlink:href="#DejaVuSans-30" x="190.869141"/>
      </g>
     </g>
    </g>
    <g id="xtick_16">
     <g id="line2d_16">
      <path d="M 325.002904 512.64 
L 325.002904 69.12 
" clip-path="url(#p5fc05ff2f8)" style="fill: none; stroke: #cccccc; stroke-width: 0.8; stroke-linecap: round"/>
     </g>
     <g id="text_16">
      <!-- 1200 -->
      <g style="fill: #262626" transform="translate(318.801755 541.504521)rotate(-45)scale(0.088 -0.088)">
       <use xlink:href="#DejaVuSans-31"/>
       <use xlink:href="#DejaVuSans-32" x="63.623047"/>
       <use xlink:href="#DejaVuSans-30" x="127.246094"/>
       <use xlink:href="#DejaVuSans-30" x="190.869141"/>
      </g>
     </g>
    </g>
    <g id="xtick_17">
     <g id="line2d_17">
      <path d="M 342.029583 512.64 
L 342.029583 69.12 
" clip-path="url(#p5fc05ff2f8)" style="fill: none; stroke: #cccccc; stroke-width: 0.8; stroke-linecap: round"/>
     </g>
     <g id="text_17">
      <!-- 1280 -->
      <g style="fill: #262626" transform="translate(335.828433 541.504521)rotate(-45)scale(0.088 -0.088)">
       <use xlink:href="#DejaVuSans-31"/>
       <use xlink:href="#DejaVuSans-32" x="63.623047"/>
       <use xlink:href="#DejaVuSans-38" x="127.246094"/>
       <use xlink:href="#DejaVuSans-30" x="190.869141"/>
      </g>
     </g>
    </g>
    <g id="xtick_18">
     <g id="line2d_18">
      <path d="M 359.056261 512.64 
L 359.056261 69.12 
" clip-path="url(#p5fc05ff2f8)" style="fill: none; stroke: #cccccc; stroke-width: 0.8; stroke-linecap: round"/>
     </g>
     <g id="text_18">
      <!-- 1360 -->
      <g style="fill: #262626" transform="translate(352.855112 541.504521)rotate(-45)scale(0.088 -0.088)">
       <use xlink:href="#DejaVuSans-31"/>
       <use xlink:href="#DejaVuSans-33" x="63.623047"/>
       <use xlink:href="#DejaVuSans-36" x="127.246094"/>
       <use xlink:href="#DejaVuSans-30" x="190.869141"/>
      </g>
     </g>
    </g>
    <g id="xtick_19">
     <g id="line2d_19">
      <path d="M 376.08294 512.64 
L 376.08294 69.12 
" clip-path="url(#p5fc05ff2f8)" style="fill: none; stroke: #cccccc; stroke-width: 0.8; stroke-linecap: round"/>
     </g>
     <g id="text_19">
      <!-- 1440 -->
      <g style="fill: #262626" transform="translate(369.88179 541.504521)rotate(-45)scale(0.088 -0.088)">
       <use xlink:href="#DejaVuSans-31"/>
       <use xlink:href="#DejaVuSans-34" x="63.623047"/>
       <use xlink:href="#DejaVuSans-34" x="127.246094"/>
       <use xlink:href="#DejaVuSans-30" x="190.869141"/>
      </g>
     </g>
    </g>
    <g id="text_20">
     <!-- Time (Minutes) -->
     <g style="fill: #262626" transform="translate(186.72 554.093115)scale(0.096 -0.096)">
      <defs>
       <path id="DejaVuSans-54" d="M -19 4666 
L 3928 4666 
L 3928 4134 
L 2272 4134 
L 2272 0 
L 1638 0 
L 1638 4134 
L -19 4134 
L -19 4666 
z
" transform="scale(0.015625)"/>
       <path id="DejaVuSans-69" d="M 603 3500 
L 1178 3500 
L 1178 0 
L 603 0 
L 603 3500 
z
M 603 4863 
L 1178 4863 
L 1178 4134 
L 603 4134 
L 603 4863 
z
" transform="scale(0.015625)"/>
       <path id="DejaVuSans-6d" d="M 3328 2828 
Q 3544 3216 3844 3400 
Q 4144 3584 4550 3584 
Q 5097 3584 5394 3201 
Q 5691 2819 5691 2113 
L 5691 0 
L 5113 0 
L 5113 2094 
Q 5113 2597 4934 2840 
Q 4756 3084 4391 3084 
Q 3944 3084 3684 2787 
Q 3425 2491 3425 1978 
L 3425 0 
L 2847 0 
L 2847 2094 
Q 2847 2600 2669 2842 
Q 2491 3084 2119 3084 
Q 1678 3084 1418 2786 
Q 1159 2488 1159 1978 
L 1159 0 
L 581 0 
L 581 3500 
L 1159 3500 
L 1159 2956 
Q 1356 3278 1631 3431 
Q 1906 3584 2284 3584 
Q 2666 3584 2933 3390 
Q 3200 3197 3328 2828 
z
" transform="scale(0.015625)"/>
       <path id="DejaVuSans-65" d="M 3597 1894 
L 3597 1613 
L 953 1613 
Q 991 1019 1311 708 
Q 1631 397 2203 397 
Q 2534 397 2845 478 
Q 3156 559 3463 722 
L 3463 178 
Q 3153 47 2828 -22 
Q 2503 -91 2169 -91 
Q 1331 -91 842 396 
Q 353 884 353 1716 
Q 353 2575 817 3079 
Q 1281 3584 2069 3584 
Q 2775 3584 3186 3129 
Q 3597 2675 3597 1894 
z
M 3022 2063 
Q 3016 2534 2758 2815 
Q 2500 3097 2075 3097 
Q 1594 3097 1305 2825 
Q 1016 2553 972 2059 
L 3022 2063 
z
" transform="scale(0.015625)"/>
       <path id="DejaVuSans-20" transform="scale(0.015625)"/>
       <path id="DejaVuSans-28" d="M 1984 4856 
Q 1566 4138 1362 3434 
Q 1159 2731 1159 2009 
Q 1159 1288 1364 580 
Q 1569 -128 1984 -844 
L 1484 -844 
Q 1016 -109 783 600 
Q 550 1309 550 2009 
Q 550 2706 781 3412 
Q 1013 4119 1484 4856 
L 1984 4856 
z
" transform="scale(0.015625)"/>
       <path id="DejaVuSans-4d" d="M 628 4666 
L 1569 4666 
L 2759 1491 
L 3956 4666 
L 4897 4666 
L 4897 0 
L 4281 0 
L 4281 4097 
L 3078 897 
L 2444 897 
L 1241 4097 
L 1241 0 
L 628 0 
L 628 4666 
z
" transform="scale(0.015625)"/>
       <path id="DejaVuSans-6e" d="M 3513 2113 
L 3513 0 
L 2938 0 
L 2938 2094 
Q 2938 2591 2744 2837 
Q 2550 3084 2163 3084 
Q 1697 3084 1428 2787 
Q 1159 2491 1159 1978 
L 1159 0 
L 581 0 
L 581 3500 
L 1159 3500 
L 1159 2956 
Q 1366 3272 1645 3428 
Q 1925 3584 2291 3584 
Q 2894 3584 3203 3211 
Q 3513 2838 3513 2113 
z
" transform="scale(0.015625)"/>
       <path id="DejaVuSans-75" d="M 544 1381 
L 544 3500 
L 1119 3500 
L 1119 1403 
Q 1119 906 1312 657 
Q 1506 409 1894 409 
Q 2359 409 2629 706 
Q 2900 1003 2900 1516 
L 2900 3500 
L 3475 3500 
L 3475 0 
L 2900 0 
L 2900 538 
Q 2691 219 2414 64 
Q 2138 -91 1772 -91 
Q 1169 -91 856 284 
Q 544 659 544 1381 
z
M 1991 3584 
L 1991 3584 
z
" transform="scale(0.015625)"/>
       <path id="DejaVuSans-74" d="M 1172 4494 
L 1172 3500 
L 2356 3500 
L 2356 3053 
L 1172 3053 
L 1172 1153 
Q 1172 725 1289 603 
Q 1406 481 1766 481 
L 2356 481 
L 2356 0 
L 1766 0 
Q 1100 0 847 248 
Q 594 497 594 1153 
L 594 3053 
L 172 3053 
L 172 3500 
L 594 3500 
L 594 4494 
L 1172 4494 
z
" transform="scale(0.015625)"/>
       <path id="DejaVuSans-73" d="M 2834 3397 
L 2834 2853 
Q 2591 2978 2328 3040 
Q 2066 3103 1784 3103 
Q 1356 3103 1142 2972 
Q 928 2841 928 2578 
Q 928 2378 1081 2264 
Q 1234 2150 1697 2047 
L 1894 2003 
Q 2506 1872 2764 1633 
Q 3022 1394 3022 966 
Q 3022 478 2636 193 
Q 2250 -91 1575 -91 
Q 1294 -91 989 -36 
Q 684 19 347 128 
L 347 722 
Q 666 556 975 473 
Q 1284 391 1588 391 
Q 1994 391 2212 530 
Q 2431 669 2431 922 
Q 2431 1156 2273 1281 
Q 2116 1406 1581 1522 
L 1381 1569 
Q 847 1681 609 1914 
Q 372 2147 372 2553 
Q 372 3047 722 3315 
Q 1072 3584 1716 3584 
Q 2034 3584 2315 3537 
Q 2597 3491 2834 3397 
z
" transform="scale(0.015625)"/>
       <path id="DejaVuSans-29" d="M 513 4856 
L 1013 4856 
Q 1481 4119 1714 3412 
Q 1947 2706 1947 2009 
Q 1947 1309 1714 600 
Q 1481 -109 1013 -844 
L 513 -844 
Q 928 -128 1133 580 
Q 1338 1288 1338 2009 
Q 1338 2731 1133 3434 
Q 928 4138 513 4856 
z
" transform="scale(0.015625)"/>
      </defs>
      <use xlink:href="#DejaVuSans-54"/>
      <use xlink:href="#DejaVuSans-69" x="57.958984"/>
      <use xlink:href="#DejaVuSans-6d" x="85.742188"/>
      <use xlink:href="#DejaVuSans-65" x="183.154297"/>
      <use xlink:href="#DejaVuSans-20" x="244.677734"/>
      <use xlink:href="#DejaVuSans-28" x="276.464844"/>
      <use xlink:href="#DejaVuSans-4d" x="315.478516"/>
      <use xlink:href="#DejaVuSans-69" x="401.757812"/>
      <use xlink:href="#DejaVuSans-6e" x="429.541016"/>
      <use xlink:href="#DejaVuSans-75" x="492.919922"/>
      <use xlink:href="#DejaVuSans-74" x="556.298828"/>
      <use xlink:href="#DejaVuSans-65" x="595.507812"/>
      <use xlink:href="#DejaVuSans-73" x="657.03125"/>
      <use xlink:href="#DejaVuSans-29" x="709.130859"/>
     </g>
    </g>
   </g>
   <g id="matplotlib.axis_2">
    <g id="ytick_1">
     <g id="line2d_20">
      <path d="M 54.3 492.48 
L 390.96 492.48 
" clip-path="url(#p5fc05ff2f8)" style="fill: none; stroke: #cccccc; stroke-width: 0.8; stroke-linecap: round"/>
     </g>
     <g id="text_21">
      <!-- 0 -->
      <g style="fill: #262626" transform="translate(40.401 495.823312)scale(0.088 -0.088)">
       <use xlink:href="#DejaVuSans-30"/>
      </g>
     </g>
    </g>
    <g id="ytick_2">
     <g id="line2d_21">
      <path d="M 54.3 469.687462 
L 390.96 469.687462 
" clip-path="url(#p5fc05ff2f8)" style="fill: none; stroke: #cccccc; stroke-width: 0.8; stroke-linecap: round"/>
     </g>
     <g id="text_22">
      <!-- 100 -->
      <g style="fill: #262626" transform="translate(29.203 473.030774)scale(0.088 -0.088)">
       <use xlink:href="#DejaVuSans-31"/>
       <use xlink:href="#DejaVuSans-30" x="63.623047"/>
       <use xlink:href="#DejaVuSans-30" x="127.246094"/>
      </g>
     </g>
    </g>
    <g id="ytick_3">
     <g id="line2d_22">
      <path d="M 54.3 446.894924 
L 390.96 446.894924 
" clip-path="url(#p5fc05ff2f8)" style="fill: none; stroke: #cccccc; stroke-width: 0.8; stroke-linecap: round"/>
     </g>
     <g id="text_23">
      <!-- 200 -->
      <g style="fill: #262626" transform="translate(29.203 450.238236)scale(0.088 -0.088)">
       <use xlink:href="#DejaVuSans-32"/>
       <use xlink:href="#DejaVuSans-30" x="63.623047"/>
       <use xlink:href="#DejaVuSans-30" x="127.246094"/>
      </g>
     </g>
    </g>
    <g id="ytick_4">
     <g id="line2d_23">
      <path d="M 54.3 424.102386 
L 390.96 424.102386 
" clip-path="url(#p5fc05ff2f8)" style="fill: none; stroke: #cccccc; stroke-width: 0.8; stroke-linecap: round"/>
     </g>
     <g id="text_24">
      <!-- 300 -->
      <g style="fill: #262626" transform="translate(29.203 427.445698)scale(0.088 -0.088)">
       <use xlink:href="#DejaVuSans-33"/>
       <use xlink:href="#DejaVuSans-30" x="63.623047"/>
       <use xlink:href="#DejaVuSans-30" x="127.246094"/>
      </g>
     </g>
    </g>
    <g id="ytick_5">
     <g id="line2d_24">
      <path d="M 54.3 401.309847 
L 390.96 401.309847 
" clip-path="url(#p5fc05ff2f8)" style="fill: none; stroke: #cccccc; stroke-width: 0.8; stroke-linecap: round"/>
     </g>
     <g id="text_25">
      <!-- 400 -->
      <g style="fill: #262626" transform="translate(29.203 404.65316)scale(0.088 -0.088)">
       <use xlink:href="#DejaVuSans-34"/>
       <use xlink:href="#DejaVuSans-30" x="63.623047"/>
       <use xlink:href="#DejaVuSans-30" x="127.246094"/>
      </g>
     </g>
    </g>
    <g id="ytick_6">
     <g id="line2d_25">
      <path d="M 54.3 378.517309 
L 390.96 378.517309 
" clip-path="url(#p5fc05ff2f8)" style="fill: none; stroke: #cccccc; stroke-width: 0.8; stroke-linecap: round"/>
     </g>
     <g id="text_26">
      <!-- 500 -->
      <g style="fill: #262626" transform="translate(29.203 381.860622)scale(0.088 -0.088)">
       <use xlink:href="#DejaVuSans-35"/>
       <use xlink:href="#DejaVuSans-30" x="63.623047"/>
       <use xlink:href="#DejaVuSans-30" x="127.246094"/>
      </g>
     </g>
    </g>
    <g id="ytick_7">
     <g id="line2d_26">
      <path d="M 54.3 355.724771 
L 390.96 355.724771 
" clip-path="url(#p5fc05ff2f8)" style="fill: none; stroke: #cccccc; stroke-width: 0.8; stroke-linecap: round"/>
     </g>
     <g id="text_27">
      <!-- 600 -->
      <g style="fill: #262626" transform="translate(29.203 359.068084)scale(0.088 -0.088)">
       <use xlink:href="#DejaVuSans-36"/>
       <use xlink:href="#DejaVuSans-30" x="63.623047"/>
       <use xlink:href="#DejaVuSans-30" x="127.246094"/>
      </g>
     </g>
    </g>
    <g id="ytick_8">
     <g id="line2d_27">
      <path d="M 54.3 332.932233 
L 390.96 332.932233 
" clip-path="url(#p5fc05ff2f8)" style="fill: none; stroke: #cccccc; stroke-width: 0.8; stroke-linecap: round"/>
     </g>
     <g id="text_28">
      <!-- 700 -->
      <g style="fill: #262626" transform="translate(29.203 336.275545)scale(0.088 -0.088)">
       <use xlink:href="#DejaVuSans-37"/>
       <use xlink:href="#DejaVuSans-30" x="63.623047"/>
       <use xlink:href="#DejaVuSans-30" x="127.246094"/>
      </g>
     </g>
    </g>
    <g id="ytick_9">
     <g id="line2d_28">
      <path d="M 54.3 310.139695 
L 390.96 310.139695 
" clip-path="url(#p5fc05ff2f8)" style="fill: none; stroke: #cccccc; stroke-width: 0.8; stroke-linecap: round"/>
     </g>
     <g id="text_29">
      <!-- 800 -->
      <g style="fill: #262626" transform="translate(29.203 313.483007)scale(0.088 -0.088)">
       <use xlink:href="#DejaVuSans-38"/>
       <use xlink:href="#DejaVuSans-30" x="63.623047"/>
       <use xlink:href="#DejaVuSans-30" x="127.246094"/>
      </g>
     </g>
    </g>
    <g id="ytick_10">
     <g id="line2d_29">
      <path d="M 54.3 287.347157 
L 390.96 287.347157 
" clip-path="url(#p5fc05ff2f8)" style="fill: none; stroke: #cccccc; stroke-width: 0.8; stroke-linecap: round"/>
     </g>
     <g id="text_30">
      <!-- 900 -->
      <g style="fill: #262626" transform="translate(29.203 290.690469)scale(0.088 -0.088)">
       <use xlink:href="#DejaVuSans-39"/>
       <use xlink:href="#DejaVuSans-30" x="63.623047"/>
       <use xlink:href="#DejaVuSans-30" x="127.246094"/>
      </g>
     </g>
    </g>
    <g id="ytick_11">
     <g id="line2d_30">
      <path d="M 54.3 264.554618 
L 390.96 264.554618 
" clip-path="url(#p5fc05ff2f8)" style="fill: none; stroke: #cccccc; stroke-width: 0.8; stroke-linecap: round"/>
     </g>
     <g id="text_31">
      <!-- 1000 -->
      <g style="fill: #262626" transform="translate(23.604 267.897931)scale(0.088 -0.088)">
       <use xlink:href="#DejaVuSans-31"/>
       <use xlink:href="#DejaVuSans-30" x="63.623047"/>
       <use xlink:href="#DejaVuSans-30" x="127.246094"/>
       <use xlink:href="#DejaVuSans-30" x="190.869141"/>
      </g>
     </g>
    </g>
    <g id="ytick_12">
     <g id="line2d_31">
      <path d="M 54.3 241.76208 
L 390.96 241.76208 
" clip-path="url(#p5fc05ff2f8)" style="fill: none; stroke: #cccccc; stroke-width: 0.8; stroke-linecap: round"/>
     </g>
     <g id="text_32">
      <!-- 1100 -->
      <g style="fill: #262626" transform="translate(23.604 245.105393)scale(0.088 -0.088)">
       <use xlink:href="#DejaVuSans-31"/>
       <use xlink:href="#DejaVuSans-31" x="63.623047"/>
       <use xlink:href="#DejaVuSans-30" x="127.246094"/>
       <use xlink:href="#DejaVuSans-30" x="190.869141"/>
      </g>
     </g>
    </g>
    <g id="ytick_13">
     <g id="line2d_32">
      <path d="M 54.3 218.969542 
L 390.96 218.969542 
" clip-path="url(#p5fc05ff2f8)" style="fill: none; stroke: #cccccc; stroke-width: 0.8; stroke-linecap: round"/>
     </g>
     <g id="text_33">
      <!-- 1200 -->
      <g style="fill: #262626" transform="translate(23.604 222.312855)scale(0.088 -0.088)">
       <use xlink:href="#DejaVuSans-31"/>
       <use xlink:href="#DejaVuSans-32" x="63.623047"/>
       <use xlink:href="#DejaVuSans-30" x="127.246094"/>
       <use xlink:href="#DejaVuSans-30" x="190.869141"/>
      </g>
     </g>
    </g>
    <g id="ytick_14">
     <g id="line2d_33">
      <path d="M 54.3 196.177004 
L 390.96 196.177004 
" clip-path="url(#p5fc05ff2f8)" style="fill: none; stroke: #cccccc; stroke-width: 0.8; stroke-linecap: round"/>
     </g>
     <g id="text_34">
      <!-- 1300 -->
      <g style="fill: #262626" transform="translate(23.604 199.520316)scale(0.088 -0.088)">
       <use xlink:href="#DejaVuSans-31"/>
       <use xlink:href="#DejaVuSans-33" x="63.623047"/>
       <use xlink:href="#DejaVuSans-30" x="127.246094"/>
       <use xlink:href="#DejaVuSans-30" x="190.869141"/>
      </g>
     </g>
    </g>
    <g id="ytick_15">
     <g id="line2d_34">
      <path d="M 54.3 173.384466 
L 390.96 173.384466 
" clip-path="url(#p5fc05ff2f8)" style="fill: none; stroke: #cccccc; stroke-width: 0.8; stroke-linecap: round"/>
     </g>
     <g id="text_35">
      <!-- 1400 -->
      <g style="fill: #262626" transform="translate(23.604 176.727778)scale(0.088 -0.088)">
       <use xlink:href="#DejaVuSans-31"/>
       <use xlink:href="#DejaVuSans-34" x="63.623047"/>
       <use xlink:href="#DejaVuSans-30" x="127.246094"/>
       <use xlink:href="#DejaVuSans-30" x="190.869141"/>
      </g>
     </g>
    </g>
    <g id="ytick_16">
     <g id="line2d_35">
      <path d="M 54.3 150.591928 
L 390.96 150.591928 
" clip-path="url(#p5fc05ff2f8)" style="fill: none; stroke: #cccccc; stroke-width: 0.8; stroke-linecap: round"/>
     </g>
     <g id="text_36">
      <!-- 1500 -->
      <g style="fill: #262626" transform="translate(23.604 153.93524)scale(0.088 -0.088)">
       <use xlink:href="#DejaVuSans-31"/>
       <use xlink:href="#DejaVuSans-35" x="63.623047"/>
       <use xlink:href="#DejaVuSans-30" x="127.246094"/>
       <use xlink:href="#DejaVuSans-30" x="190.869141"/>
      </g>
     </g>
    </g>
    <g id="ytick_17">
     <g id="line2d_36">
      <path d="M 54.3 127.799389 
L 390.96 127.799389 
" clip-path="url(#p5fc05ff2f8)" style="fill: none; stroke: #cccccc; stroke-width: 0.8; stroke-linecap: round"/>
     </g>
     <g id="text_37">
      <!-- 1600 -->
      <g style="fill: #262626" transform="translate(23.604 131.142702)scale(0.088 -0.088)">
       <use xlink:href="#DejaVuSans-31"/>
       <use xlink:href="#DejaVuSans-36" x="63.623047"/>
       <use xlink:href="#DejaVuSans-30" x="127.246094"/>
       <use xlink:href="#DejaVuSans-30" x="190.869141"/>
      </g>
     </g>
    </g>
    <g id="ytick_18">
     <g id="line2d_37">
      <path d="M 54.3 105.006851 
L 390.96 105.006851 
" clip-path="url(#p5fc05ff2f8)" style="fill: none; stroke: #cccccc; stroke-width: 0.8; stroke-linecap: round"/>
     </g>
     <g id="text_38">
      <!-- 1700 -->
      <g style="fill: #262626" transform="translate(23.604 108.350164)scale(0.088 -0.088)">
       <use xlink:href="#DejaVuSans-31"/>
       <use xlink:href="#DejaVuSans-37" x="63.623047"/>
       <use xlink:href="#DejaVuSans-30" x="127.246094"/>
       <use xlink:href="#DejaVuSans-30" x="190.869141"/>
      </g>
     </g>
    </g>
    <g id="text_39">
     <!-- Edge Coverages -->
     <g style="fill: #262626" transform="translate(17.6075 329.98575)rotate(-90)scale(0.096 -0.096)">
      <defs>
       <path id="DejaVuSans-45" d="M 628 4666 
L 3578 4666 
L 3578 4134 
L 1259 4134 
L 1259 2753 
L 3481 2753 
L 3481 2222 
L 1259 2222 
L 1259 531 
L 3634 531 
L 3634 0 
L 628 0 
L 628 4666 
z
" transform="scale(0.015625)"/>
       <path id="DejaVuSans-64" d="M 2906 2969 
L 2906 4863 
L 3481 4863 
L 3481 0 
L 2906 0 
L 2906 525 
Q 2725 213 2448 61 
Q 2172 -91 1784 -91 
Q 1150 -91 751 415 
Q 353 922 353 1747 
Q 353 2572 751 3078 
Q 1150 3584 1784 3584 
Q 2172 3584 2448 3432 
Q 2725 3281 2906 2969 
z
M 947 1747 
Q 947 1113 1208 752 
Q 1469 391 1925 391 
Q 2381 391 2643 752 
Q 2906 1113 2906 1747 
Q 2906 2381 2643 2742 
Q 2381 3103 1925 3103 
Q 1469 3103 1208 2742 
Q 947 2381 947 1747 
z
" transform="scale(0.015625)"/>
       <path id="DejaVuSans-67" d="M 2906 1791 
Q 2906 2416 2648 2759 
Q 2391 3103 1925 3103 
Q 1463 3103 1205 2759 
Q 947 2416 947 1791 
Q 947 1169 1205 825 
Q 1463 481 1925 481 
Q 2391 481 2648 825 
Q 2906 1169 2906 1791 
z
M 3481 434 
Q 3481 -459 3084 -895 
Q 2688 -1331 1869 -1331 
Q 1566 -1331 1297 -1286 
Q 1028 -1241 775 -1147 
L 775 -588 
Q 1028 -725 1275 -790 
Q 1522 -856 1778 -856 
Q 2344 -856 2625 -561 
Q 2906 -266 2906 331 
L 2906 616 
Q 2728 306 2450 153 
Q 2172 0 1784 0 
Q 1141 0 747 490 
Q 353 981 353 1791 
Q 353 2603 747 3093 
Q 1141 3584 1784 3584 
Q 2172 3584 2450 3431 
Q 2728 3278 2906 2969 
L 2906 3500 
L 3481 3500 
L 3481 434 
z
" transform="scale(0.015625)"/>
       <path id="DejaVuSans-43" d="M 4122 4306 
L 4122 3641 
Q 3803 3938 3442 4084 
Q 3081 4231 2675 4231 
Q 1875 4231 1450 3742 
Q 1025 3253 1025 2328 
Q 1025 1406 1450 917 
Q 1875 428 2675 428 
Q 3081 428 3442 575 
Q 3803 722 4122 1019 
L 4122 359 
Q 3791 134 3420 21 
Q 3050 -91 2638 -91 
Q 1578 -91 968 557 
Q 359 1206 359 2328 
Q 359 3453 968 4101 
Q 1578 4750 2638 4750 
Q 3056 4750 3426 4639 
Q 3797 4528 4122 4306 
z
" transform="scale(0.015625)"/>
       <path id="DejaVuSans-6f" d="M 1959 3097 
Q 1497 3097 1228 2736 
Q 959 2375 959 1747 
Q 959 1119 1226 758 
Q 1494 397 1959 397 
Q 2419 397 2687 759 
Q 2956 1122 2956 1747 
Q 2956 2369 2687 2733 
Q 2419 3097 1959 3097 
z
M 1959 3584 
Q 2709 3584 3137 3096 
Q 3566 2609 3566 1747 
Q 3566 888 3137 398 
Q 2709 -91 1959 -91 
Q 1206 -91 779 398 
Q 353 888 353 1747 
Q 353 2609 779 3096 
Q 1206 3584 1959 3584 
z
" transform="scale(0.015625)"/>
       <path id="DejaVuSans-76" d="M 191 3500 
L 800 3500 
L 1894 563 
L 2988 3500 
L 3597 3500 
L 2284 0 
L 1503 0 
L 191 3500 
z
" transform="scale(0.015625)"/>
       <path id="DejaVuSans-72" d="M 2631 2963 
Q 2534 3019 2420 3045 
Q 2306 3072 2169 3072 
Q 1681 3072 1420 2755 
Q 1159 2438 1159 1844 
L 1159 0 
L 581 0 
L 581 3500 
L 1159 3500 
L 1159 2956 
Q 1341 3275 1631 3429 
Q 1922 3584 2338 3584 
Q 2397 3584 2469 3576 
Q 2541 3569 2628 3553 
L 2631 2963 
z
" transform="scale(0.015625)"/>
       <path id="DejaVuSans-61" d="M 2194 1759 
Q 1497 1759 1228 1600 
Q 959 1441 959 1056 
Q 959 750 1161 570 
Q 1363 391 1709 391 
Q 2188 391 2477 730 
Q 2766 1069 2766 1631 
L 2766 1759 
L 2194 1759 
z
M 3341 1997 
L 3341 0 
L 2766 0 
L 2766 531 
Q 2569 213 2275 61 
Q 1981 -91 1556 -91 
Q 1019 -91 701 211 
Q 384 513 384 1019 
Q 384 1609 779 1909 
Q 1175 2209 1959 2209 
L 2766 2209 
L 2766 2266 
Q 2766 2663 2505 2880 
Q 2244 3097 1772 3097 
Q 1472 3097 1187 3025 
Q 903 2953 641 2809 
L 641 3341 
Q 956 3463 1253 3523 
Q 1550 3584 1831 3584 
Q 2591 3584 2966 3190 
Q 3341 2797 3341 1997 
z
" transform="scale(0.015625)"/>
      </defs>
      <use xlink:href="#DejaVuSans-45"/>
      <use xlink:href="#DejaVuSans-64" x="63.183594"/>
      <use xlink:href="#DejaVuSans-67" x="126.660156"/>
      <use xlink:href="#DejaVuSans-65" x="190.136719"/>
      <use xlink:href="#DejaVuSans-20" x="251.660156"/>
      <use xlink:href="#DejaVuSans-43" x="283.447266"/>
      <use xlink:href="#DejaVuSans-6f" x="353.271484"/>
      <use xlink:href="#DejaVuSans-76" x="414.453125"/>
      <use xlink:href="#DejaVuSans-65" x="473.632812"/>
      <use xlink:href="#DejaVuSans-72" x="535.15625"/>
      <use xlink:href="#DejaVuSans-61" x="576.269531"/>
      <use xlink:href="#DejaVuSans-67" x="637.548828"/>
      <use xlink:href="#DejaVuSans-65" x="701.025391"/>
      <use xlink:href="#DejaVuSans-73" x="762.548828"/>
     </g>
    </g>
   </g>
   <g id="PolyCollection_1">
    <defs>
     <path id="me972faa24d" d="M 69.602727 -111.098971 
L 69.602727 -83.52 
L 69.602727 -111.098971 
L 69.602727 -111.098971 
z
" style="stroke: #db5f57; stroke-opacity: 0.2; stroke-width: 0.8"/>
    </defs>
    <g clip-path="url(#p5fc05ff2f8)">
     <use xlink:href="#me972faa24d" x="0" y="576" style="fill: #db5f57; fill-opacity: 0.2; stroke: #db5f57; stroke-opacity: 0.2; stroke-width: 0.8"/>
    </g>
   </g>
   <g id="PolyCollection_2">
    <defs>
     <path id="mdb588c768b" d="M 69.602727 -124.774494 
L 69.602727 -83.52 
L 69.602727 -124.774494 
L 69.602727 -124.774494 
z
" style="stroke: #b9db57; stroke-opacity: 0.2; stroke-width: 0.8"/>
    </defs>
    <g clip-path="url(#p5fc05ff2f8)">
     <use xlink:href="#mdb588c768b" x="0" y="576" style="fill: #b9db57; fill-opacity: 0.2; stroke: #b9db57; stroke-opacity: 0.2; stroke-width: 0.8"/>
    </g>
   </g>
   <g id="PolyCollection_3">
    <defs>
     <path id="m9630fb87c9" d="M 69.602727 -125.45827 
L 69.602727 -83.52 
L 69.602727 -125.45827 
L 69.602727 -125.45827 
z
" style="stroke: #57db94; stroke-opacity: 0.2; stroke-width: 0.8"/>
    </defs>
    <g clip-path="url(#p5fc05ff2f8)">
     <use xlink:href="#m9630fb87c9" x="0" y="576" style="fill: #57db94; fill-opacity: 0.2; stroke: #57db94; stroke-opacity: 0.2; stroke-width: 0.8"/>
    </g>
   </g>
   <g id="PolyCollection_4">
    <defs>
     <path id="m3e2658926a" d="M 69.602727 -126.597897 
L 69.602727 -83.52 
L 69.602727 -126.597897 
L 69.602727 -126.597897 
z
" style="stroke: #5784db; stroke-opacity: 0.2; stroke-width: 0.8"/>
    </defs>
    <g clip-path="url(#p5fc05ff2f8)">
     <use xlink:href="#m3e2658926a" x="0" y="576" style="fill: #5784db; fill-opacity: 0.2; stroke: #5784db; stroke-opacity: 0.2; stroke-width: 0.8"/>
    </g>
   </g>
   <g id="PolyCollection_5">
    <defs>
     <path id="m41136f9637" d="M 69.602727 -134.575285 
L 69.602727 -83.52 
L 69.602727 -134.575285 
L 69.602727 -134.575285 
z
" style="stroke: #c957db; stroke-opacity: 0.2; stroke-width: 0.8"/>
    </defs>
    <g clip-path="url(#p5fc05ff2f8)">
     <use xlink:href="#m41136f9637" x="0" y="576" style="fill: #c957db; fill-opacity: 0.2; stroke: #c957db; stroke-opacity: 0.2; stroke-width: 0.8"/>
    </g>
   </g>
   <g id="line2d_38">
    <path d="M 69.602727 478.690514 
L 70.028394 404.500803 
L 70.241228 401.309847 
L 70.454061 393.78831 
L 71.518229 382.392041 
L 71.731062 374.414652 
L 72.369563 267.289723 
L 72.795229 266.833872 
L 73.008063 266.378021 
L 73.220896 258.628559 
L 73.43373 233.328841 
L 73.859397 231.277513 
L 74.497897 231.277513 
L 74.923564 228.086557 
L 75.349231 226.94693 
L 75.562065 205.74987 
L 75.774898 205.521945 
L 76.413399 205.521945 
L 76.626232 201.419288 
L 76.839066 193.669825 
L 77.051899 193.213974 
L 78.3289 193.213974 
L 78.754567 192.530198 
L 78.9674 192.530198 
L 79.180234 178.170899 
L 80.031568 174.524093 
L 80.882902 173.612391 
L 81.095735 173.612391 
L 81.308569 169.053884 
L 82.372736 169.053884 
L 82.58557 164.951227 
L 82.798403 164.267451 
L 83.011237 164.267451 
L 83.22407 163.583674 
L 83.649737 163.583674 
L 83.86257 163.355749 
L 84.075404 162.899898 
L 84.288237 160.392719 
L 84.501071 160.164794 
L 85.139571 160.164794 
L 85.352405 159.936868 
L 85.778072 159.936868 
L 85.990905 156.290062 
L 86.416572 156.290062 
L 86.842239 155.150435 
L 87.055073 155.150435 
L 87.48074 153.782883 
L 87.693573 153.782883 
L 87.906407 153.327032 
L 88.970574 153.327032 
L 89.183408 151.95948 
L 89.396241 151.731555 
L 89.609074 151.731555 
L 89.821908 150.364002 
L 90.034741 150.364002 
L 90.247575 149.680226 
L 90.460408 149.452301 
L 90.673242 148.99645 
L 91.098909 148.99645 
L 91.311742 146.261345 
L 92.163076 146.261345 
L 92.37591 144.893793 
L 92.588743 144.437942 
L 92.801577 144.437942 
L 93.01441 144.210017 
L 93.227244 144.210017 
L 93.440077 143.982092 
L 93.652911 143.298315 
L 94.929911 143.298315 
L 95.142745 141.474912 
L 95.355578 141.246987 
L 95.568412 141.246987 
L 95.781245 141.019062 
L 96.845413 141.019062 
L 97.058246 139.423584 
L 97.27108 138.967733 
L 97.90958 138.967733 
L 98.122414 138.511882 
L 98.973748 138.511882 
L 99.186581 138.283957 
L 100.037915 138.283957 
L 100.463582 136.916405 
L 100.889249 136.916405 
L 101.314916 136.460554 
L 101.527749 136.460554 
L 101.740583 136.232629 
L 102.379083 136.232629 
L 102.80475 135.776778 
L 103.017584 135.776778 
L 103.230417 135.548852 
L 103.443251 135.548852 
L 103.656084 135.093002 
L 103.868918 135.093002 
L 104.720252 134.1813 
L 105.997252 134.1813 
L 106.210086 133.725449 
L 107.487087 133.725449 
L 107.69992 132.585822 
L 108.125587 132.585822 
L 108.338421 132.357897 
L 108.764088 132.357897 
L 109.402588 131.674121 
L 111.95659 131.674121 
L 112.169423 131.446196 
L 113.872091 131.446196 
L 114.084925 130.990345 
L 114.297758 130.990345 
L 114.510592 130.762419 
L 114.723425 130.762419 
L 115.361926 129.394867 
L 115.574759 129.394867 
L 115.787593 128.711091 
L 116.426093 128.711091 
L 116.638927 127.571464 
L 117.915927 127.571464 
L 118.128761 127.343539 
L 120.682763 127.343539 
L 120.895596 126.203912 
L 130.260269 126.203912 
L 130.473103 125.975986 
L 131.962937 125.975986 
L 132.175771 125.748061 
L 134.091272 125.748061 
L 134.304105 124.83636 
L 134.516939 124.83636 
L 134.729772 124.152583 
L 135.155439 124.152583 
L 135.368273 122.101255 
L 135.581106 122.101255 
L 135.79394 121.87333 
L 136.858107 121.87333 
L 137.070941 121.645404 
L 137.496608 121.645404 
L 137.709441 121.417479 
L 139.412109 121.417479 
L 139.624942 120.961628 
L 140.050609 120.961628 
L 140.263443 120.505777 
L 140.68911 120.505777 
L 140.901943 120.049927 
L 142.178944 120.049927 
L 142.391778 119.138225 
L 143.243112 119.138225 
L 143.455945 118.9103 
L 144.094446 118.9103 
L 144.307279 118.682374 
L 144.520113 118.226523 
L 145.371446 118.226523 
L 145.58428 117.770673 
L 150.053783 117.770673 
L 150.266617 117.542747 
L 153.459119 117.542747 
L 153.671952 117.314822 
L 155.161787 117.314822 
L 155.37462 116.631046 
L 165.803461 116.631046 
L 166.016294 116.175195 
L 168.995963 116.175195 
L 169.208796 115.94727 
L 169.634463 115.94727 
L 169.847297 115.719344 
L 170.272964 115.719344 
L 170.485797 115.491419 
L 170.911464 115.491419 
L 171.337131 115.035568 
L 174.742467 115.035568 
L 174.9553 114.807643 
L 180.488971 114.807643 
L 180.701804 114.579717 
L 192.620479 114.579717 
L 192.833313 114.351792 
L 195.812981 114.351792 
L 196.025815 114.123867 
L 196.877149 114.123867 
L 197.089982 113.895941 
L 208.795824 113.895941 
L 209.008657 113.668016 
L 213.265327 113.668016 
L 213.47816 113.44009 
L 215.606495 113.44009 
L 215.819329 113.212165 
L 216.670663 113.212165 
L 216.883496 112.98424 
L 219.011831 112.98424 
L 219.224664 112.756314 
L 220.927332 112.756314 
L 221.140166 112.528389 
L 222.204333 112.528389 
L 222.417167 112.072538 
L 223.481334 112.072538 
L 223.694167 111.844613 
L 225.396835 111.844613 
L 225.609669 111.616687 
L 229.440671 111.616687 
L 229.653505 111.388762 
L 230.292005 111.388762 
L 230.717672 110.704986 
L 237.31551 110.704986 
L 237.528344 110.249135 
L 240.933679 110.249135 
L 241.146513 110.02121 
L 242.423514 110.02121 
L 242.636347 109.793284 
L 246.893017 109.793284 
L 247.10585 109.565359 
L 256.89619 109.565359 
L 257.109024 109.337434 
L 258.173191 109.337434 
L 258.386025 109.109508 
L 260.727193 109.109508 
L 260.940027 108.881583 
L 262.642694 108.881583 
L 262.855528 108.653657 
L 264.132529 108.653657 
L 264.345362 108.197807 
L 267.750698 108.197807 
L 267.963531 107.969881 
L 270.730367 107.969881 
L 270.9432 107.741956 
L 273.497202 107.741956 
L 273.710035 107.286105 
L 276.051204 107.286105 
L 276.264037 107.05818 
L 277.541038 107.05818 
L 277.753872 106.602329 
L 278.392372 106.602329 
L 278.605205 106.146478 
L 278.818039 106.146478 
L 279.030872 105.690627 
L 288.821213 105.690627 
L 289.034046 105.462702 
L 304.145223 105.462702 
L 304.358057 105.234777 
L 307.337725 105.234777 
L 307.550559 104.778926 
L 308.82756 104.778926 
L 309.040393 104.551001 
L 309.678894 104.551001 
L 309.891727 104.323075 
L 329.472407 104.323075 
L 329.685241 104.09515 
L 333.090577 104.09515 
L 333.30341 103.867224 
L 343.945084 103.867224 
L 344.370751 102.727598 
L 345.009251 102.727598 
L 345.222085 102.499672 
L 361.823096 102.499672 
L 362.03593 102.043821 
L 365.866933 102.043821 
L 366.079766 101.815896 
L 375.657273 101.815896 
L 375.657273 101.815896 
" clip-path="url(#p5fc05ff2f8)" style="fill: none; stroke: #db5f57; stroke-width: 1.2; stroke-linecap: round"/>
   </g>
   <g id="line2d_39">
    <path d="M 69.602727 471.852753 
L 70.028394 405.64043 
L 70.241228 402.905325 
L 70.666895 392.420757 
L 71.092562 316.977456 
L 71.518229 315.609904 
L 71.731062 315.154053 
L 71.943896 313.786501 
L 72.156729 313.33065 
L 72.369563 312.418949 
L 72.795229 309.911769 
L 73.008063 278.002216 
L 73.220896 275.950888 
L 73.859397 275.950888 
L 74.285064 275.039186 
L 74.497897 274.127484 
L 74.710731 245.864737 
L 75.136398 245.864737 
L 75.349231 245.636812 
L 75.562065 244.72511 
L 75.774898 237.659423 
L 75.987732 237.659423 
L 76.200565 234.012617 
L 76.626232 233.556767 
L 76.839066 228.314483 
L 77.051899 228.314483 
L 77.264733 227.858632 
L 77.477566 223.52805 
L 77.6904 223.52805 
L 77.903233 222.160497 
L 78.116067 222.160497 
L 78.541733 218.513691 
L 78.754567 218.513691 
L 78.9674 216.462363 
L 79.180234 216.462363 
L 79.393067 216.234438 
L 79.605901 213.955184 
L 79.818734 213.955184 
L 80.031568 213.727258 
L 80.244401 210.536303 
L 80.457235 209.168751 
L 80.670068 208.940825 
L 80.882902 205.74987 
L 81.095735 205.521945 
L 81.308569 204.154392 
L 81.521402 204.154392 
L 81.734236 203.698542 
L 82.372736 203.698542 
L 82.58557 200.735512 
L 82.798403 199.367959 
L 83.011237 198.912109 
L 83.22407 197.772482 
L 84.288237 195.493228 
L 84.501071 195.493228 
L 84.926738 194.125676 
L 85.139571 194.125676 
L 85.352405 193.213974 
L 85.778072 192.758123 
L 85.990905 192.074347 
L 86.203739 190.93472 
L 86.416572 190.93472 
L 86.629406 190.478869 
L 86.842239 189.567168 
L 87.055073 189.567168 
L 87.267906 189.339243 
L 87.48074 188.655466 
L 88.11924 187.97169 
L 88.332074 187.515839 
L 88.544907 187.515839 
L 88.757741 186.604138 
L 88.970574 186.376213 
L 89.183408 186.376213 
L 89.609074 184.324884 
L 89.821908 184.096959 
L 90.034741 183.413183 
L 90.247575 183.185257 
L 90.460408 182.501481 
L 90.673242 182.501481 
L 90.886075 180.678078 
L 91.098909 179.994302 
L 91.524576 178.170899 
L 92.588743 178.170899 
L 92.801577 177.031272 
L 93.01441 177.031272 
L 93.227244 176.803347 
L 93.440077 176.803347 
L 93.652911 176.347496 
L 93.865744 176.347496 
L 94.078578 176.11957 
L 94.291411 176.11957 
L 94.504245 175.891645 
L 94.717078 175.891645 
L 95.568412 174.979943 
L 95.994079 174.979943 
L 96.206912 173.840317 
L 96.419746 173.384466 
L 97.696747 173.384466 
L 97.90958 173.15654 
L 98.122414 172.70069 
L 98.548081 172.70069 
L 98.973748 172.016914 
L 99.399415 172.016914 
L 99.612248 171.788988 
L 100.889249 171.788988 
L 101.102082 171.561063 
L 102.80475 171.561063 
L 103.017584 171.333137 
L 103.230417 171.333137 
L 103.443251 170.877287 
L 103.656084 170.877287 
L 103.868918 170.649361 
L 104.081751 170.649361 
L 104.294585 170.421436 
L 104.720252 170.421436 
L 104.933085 169.73766 
L 105.145919 169.509734 
L 105.997252 169.509734 
L 106.210086 169.053884 
L 106.422919 169.053884 
L 106.635753 168.825958 
L 107.06142 168.825958 
L 107.487087 168.370107 
L 107.912754 168.370107 
L 108.125587 168.142182 
L 108.551254 168.142182 
L 108.764088 167.914257 
L 109.402588 167.914257 
L 109.615422 167.458406 
L 109.828255 167.458406 
L 110.041089 167.002555 
L 110.253922 167.002555 
L 110.466756 166.77463 
L 111.530923 166.77463 
L 111.743756 166.546704 
L 111.95659 166.546704 
L 112.382257 166.090854 
L 113.020757 166.090854 
L 113.233591 165.862928 
L 114.084925 165.862928 
L 114.510592 165.179152 
L 114.723425 164.951227 
L 115.149092 164.951227 
L 115.574759 164.495376 
L 116.21326 164.495376 
L 116.426093 163.8116 
L 116.638927 163.8116 
L 116.85176 163.127824 
L 118.341594 163.127824 
L 118.554428 162.899898 
L 119.618595 162.899898 
L 119.831429 162.671973 
L 123.449598 162.671973 
L 123.662431 162.444047 
L 127.919101 162.444047 
L 128.131935 162.216122 
L 130.047436 162.216122 
L 130.260269 161.988197 
L 133.239938 161.988197 
L 133.452772 161.760271 
L 134.091272 161.760271 
L 134.304105 161.076495 
L 134.516939 160.84857 
L 134.942606 159.481018 
L 135.155439 159.481018 
L 135.368273 157.657614 
L 136.858107 157.657614 
L 137.283774 157.201764 
L 138.135108 157.201764 
L 138.347942 156.973838 
L 138.986442 156.973838 
L 139.412109 156.290062 
L 140.050609 156.290062 
L 140.263443 156.062137 
L 140.68911 156.062137 
L 141.114777 155.378361 
L 141.753277 155.378361 
L 141.966111 154.92251 
L 143.243112 154.92251 
L 143.455945 154.694585 
L 143.881612 154.694585 
L 144.094446 154.466659 
L 146.009947 154.466659 
L 146.22278 154.010808 
L 149.202449 154.010808 
L 149.415283 153.782883 
L 150.47945 153.782883 
L 150.692283 153.554958 
L 153.884786 153.554958 
L 154.097619 153.327032 
L 154.310453 153.327032 
L 154.523286 152.871181 
L 156.864454 152.871181 
L 157.077288 152.643256 
L 158.354289 152.643256 
L 158.567122 152.415331 
L 160.056957 152.415331 
L 160.26979 152.187405 
L 162.185291 152.187405 
L 162.398125 151.95948 
L 165.16496 151.95948 
L 165.377794 151.503629 
L 167.718962 151.503629 
L 167.931795 151.275704 
L 168.357462 151.275704 
L 168.570296 151.047778 
L 168.783129 151.047778 
L 168.995963 150.819853 
L 169.847297 150.819853 
L 170.06013 150.591928 
L 170.272964 150.591928 
L 170.485797 150.364002 
L 170.911464 150.364002 
L 171.124298 150.136077 
L 171.549965 150.136077 
L 171.762798 149.908151 
L 177.296469 149.908151 
L 177.509302 149.680226 
L 178.573469 149.680226 
L 178.786303 149.224375 
L 183.042973 149.224375 
L 183.255806 148.99645 
L 191.130645 148.99645 
L 191.343478 148.768525 
L 194.961647 148.768525 
L 195.174481 148.540599 
L 203.262153 148.540599 
L 203.474987 148.312674 
L 206.880322 148.312674 
L 207.093156 147.856823 
L 213.690994 147.856823 
L 213.903827 147.628898 
L 220.075998 147.628898 
L 220.288832 147.400972 
L 221.9915 147.400972 
L 222.204333 147.173047 
L 223.055667 147.173047 
L 223.2685 146.945122 
L 225.184002 146.945122 
L 225.396835 146.717196 
L 229.227838 146.717196 
L 229.440671 146.489271 
L 230.292005 146.489271 
L 230.504839 146.261345 
L 233.484508 146.261345 
L 233.697341 146.03342 
L 236.038509 146.03342 
L 236.251343 145.805495 
L 237.102677 145.805495 
L 237.31551 145.577569 
L 246.254516 145.577569 
L 246.46735 145.349644 
L 248.170018 145.349644 
L 248.382851 145.121718 
L 256.683357 145.121718 
L 256.89619 144.665868 
L 257.960358 144.665868 
L 258.173191 144.437942 
L 260.940027 144.437942 
L 261.15286 143.982092 
L 261.365694 143.982092 
L 261.578527 143.754166 
L 263.281195 143.754166 
L 263.494028 143.526241 
L 267.537864 143.526241 
L 267.750698 143.298315 
L 269.240532 143.298315 
L 269.453366 143.07039 
L 272.433035 143.07039 
L 272.645868 142.614539 
L 274.987036 142.614539 
L 275.19987 142.386614 
L 281.584874 142.386614 
L 281.797708 142.158689 
L 302.442555 142.158689 
L 302.655389 141.930763 
L 303.506723 141.930763 
L 303.719556 141.702838 
L 304.145223 141.702838 
L 304.358057 141.474912 
L 305.422224 141.474912 
L 305.635058 141.246987 
L 306.699225 141.246987 
L 306.912058 141.019062 
L 307.337725 141.019062 
L 307.550559 140.791136 
L 345.222085 140.791136 
L 345.434918 140.563211 
L 350.117255 140.563211 
L 350.330089 140.335285 
L 355.863759 140.335285 
L 356.076592 140.10736 
L 360.971763 140.10736 
L 361.184596 139.879435 
L 365.228432 139.879435 
L 365.441266 139.651509 
L 374.805939 139.651509 
L 375.018772 139.423584 
L 375.657273 139.423584 
L 375.657273 139.423584 
" clip-path="url(#p5fc05ff2f8)" style="fill: none; stroke: #b9db57; stroke-width: 1.2; stroke-linecap: round"/>
   </g>
   <g id="line2d_40">
    <path d="M 69.602727 471.510865 
L 70.241228 373.730876 
L 70.454061 335.211487 
L 70.879728 303.985709 
L 72.582396 270.252753 
L 72.795229 267.289723 
L 73.220896 251.107021 
L 73.43373 249.283618 
L 73.859397 234.468468 
L 74.07223 233.556767 
L 74.923564 225.123527 
L 75.136398 224.211826 
L 75.774898 219.881244 
L 75.987732 219.653318 
L 76.626232 213.043482 
L 76.839066 212.131781 
L 77.477566 206.433646 
L 77.903233 204.838168 
L 78.3289 203.014765 
L 78.754567 200.279661 
L 78.9674 198.912109 
L 79.180234 198.456258 
L 79.605901 195.949079 
L 79.818734 195.721153 
L 80.882902 191.390571 
L 81.095735 189.567168 
L 81.521402 188.427541 
L 81.734236 188.199616 
L 81.947069 187.515839 
L 82.58557 186.832063 
L 82.798403 184.780735 
L 83.011237 184.780735 
L 83.22407 184.552809 
L 83.436904 183.413183 
L 83.649737 183.185257 
L 83.86257 183.185257 
L 84.075404 182.273556 
L 84.288237 182.04563 
L 84.713904 180.906003 
L 84.926738 180.678078 
L 85.352405 179.0826 
L 85.565238 178.854675 
L 85.778072 178.398824 
L 85.990905 178.398824 
L 86.203739 176.575421 
L 86.416572 176.575421 
L 86.629406 176.347496 
L 86.842239 174.979943 
L 87.48074 174.296167 
L 87.693573 174.296167 
L 88.332074 173.15654 
L 88.970574 173.15654 
L 89.183408 171.788988 
L 90.247575 169.509734 
L 90.886075 166.090854 
L 91.737409 164.495376 
L 91.950243 164.495376 
L 92.163076 164.267451 
L 93.440077 164.267451 
L 93.652911 163.355749 
L 93.865744 163.355749 
L 94.717078 162.444047 
L 94.929911 162.444047 
L 95.142745 161.988197 
L 96.206912 161.988197 
L 96.419746 161.760271 
L 99.186581 161.760271 
L 99.399415 161.304421 
L 101.740583 161.304421 
L 101.953416 161.076495 
L 103.868918 161.076495 
L 104.081751 160.84857 
L 111.95659 160.84857 
L 112.169423 160.620644 
L 121.10843 160.620644 
L 121.321263 154.466659 
L 121.534097 152.871181 
L 133.878438 152.871181 
L 134.304105 150.819853 
L 134.516939 150.591928 
L 136.219607 150.591928 
L 136.43244 148.084748 
L 136.858107 148.084748 
L 137.070941 147.856823 
L 138.347942 147.856823 
L 138.560775 147.400972 
L 140.476276 147.400972 
L 140.68911 145.805495 
L 141.114777 145.805495 
L 141.32761 145.577569 
L 142.604611 145.577569 
L 142.817445 144.437942 
L 143.030278 144.210017 
L 151.330784 144.210017 
L 151.543617 142.842465 
L 161.546791 142.842465 
L 161.759624 141.246987 
L 165.16496 141.246987 
L 165.803461 140.10736 
L 201.985152 140.10736 
L 202.410819 136.916405 
L 202.623653 136.688479 
L 244.126182 136.688479 
L 244.339015 134.1813 
L 246.254516 134.1813 
L 246.46735 133.953375 
L 256.25769 133.953375 
L 256.470523 133.725449 
L 256.683357 133.725449 
L 256.89619 133.497524 
L 257.534691 133.497524 
L 257.747524 133.269599 
L 259.237359 133.269599 
L 259.450192 133.041673 
L 260.088693 133.041673 
L 260.301526 132.813748 
L 260.51436 132.813748 
L 260.727193 132.585822 
L 261.578527 132.585822 
L 261.79136 132.357897 
L 264.771029 132.357897 
L 264.983863 131.902046 
L 267.537864 131.902046 
L 267.750698 131.674121 
L 269.240532 131.674121 
L 269.453366 131.446196 
L 272.220201 131.446196 
L 272.433035 130.990345 
L 283.500376 130.990345 
L 283.713209 130.762419 
L 304.996557 130.762419 
L 305.422224 130.078643 
L 306.273558 130.078643 
L 306.486391 129.850718 
L 307.124892 129.850718 
L 307.550559 129.394867 
L 355.012425 129.394867 
L 355.225259 129.166942 
L 361.184596 129.166942 
L 361.39743 128.939016 
L 365.441266 128.939016 
L 365.654099 128.711091 
L 375.657273 128.711091 
L 375.657273 128.711091 
" clip-path="url(#p5fc05ff2f8)" style="fill: none; stroke: #57db94; stroke-width: 1.2; stroke-linecap: round"/>
   </g>
   <g id="line2d_41">
    <path d="M 69.602727 470.941051 
L 70.241228 369.628219 
L 70.454061 331.336755 
L 70.666895 317.889158 
L 70.879728 296.464172 
L 71.092562 293.273217 
L 71.518229 278.230141 
L 71.731062 277.31844 
L 71.943896 269.341051 
L 72.156729 267.745574 
L 72.582396 256.121379 
L 72.795229 255.209678 
L 73.008063 241.990006 
L 73.220896 240.850379 
L 73.646563 228.086557 
L 73.859397 225.579378 
L 74.07223 219.653318 
L 74.285064 217.60199 
L 74.923564 209.396676 
L 75.349231 205.74987 
L 76.626232 192.986049 
L 76.839066 192.530198 
L 77.051899 189.567168 
L 78.9674 178.854675 
L 79.393067 176.347496 
L 80.457235 171.333137 
L 80.882902 168.370107 
L 81.095735 167.914257 
L 81.521402 165.862928 
L 81.734236 165.862928 
L 81.947069 165.407077 
L 82.372736 163.127824 
L 82.58557 162.899898 
L 82.798403 162.444047 
L 83.011237 161.532346 
L 83.22407 161.304421 
L 84.288237 158.113465 
L 84.501071 157.657614 
L 84.713904 157.657614 
L 84.926738 157.429689 
L 85.139571 157.429689 
L 85.352405 156.290062 
L 86.842239 153.099107 
L 87.055073 153.099107 
L 87.267906 152.187405 
L 87.48074 152.187405 
L 87.693573 151.95948 
L 87.906407 151.503629 
L 88.544907 151.503629 
L 88.970574 151.047778 
L 89.396241 149.224375 
L 90.034741 148.084748 
L 90.247575 147.856823 
L 90.460408 147.400972 
L 91.311742 142.158689 
L 91.524576 142.158689 
L 91.737409 141.930763 
L 91.950243 141.930763 
L 92.163076 141.702838 
L 92.37591 141.702838 
L 92.588743 141.474912 
L 93.01441 141.474912 
L 93.227244 141.246987 
L 93.652911 140.563211 
L 94.504245 140.563211 
L 94.717078 140.335285 
L 94.929911 140.335285 
L 95.142745 140.10736 
L 95.568412 138.967733 
L 95.781245 138.967733 
L 96.206912 137.600181 
L 96.419746 137.600181 
L 96.632579 137.372256 
L 96.845413 137.372256 
L 97.058246 137.14433 
L 97.27108 137.14433 
L 97.483913 136.916405 
L 97.696747 136.916405 
L 98.122414 136.460554 
L 98.548081 136.460554 
L 98.760914 136.232629 
L 99.186581 136.232629 
L 99.399415 136.004703 
L 100.463582 136.004703 
L 100.676415 135.776778 
L 102.591917 135.776778 
L 102.80475 135.548852 
L 103.017584 135.548852 
L 103.443251 134.865076 
L 103.656084 134.865076 
L 103.868918 134.637151 
L 104.081751 133.953375 
L 104.294585 133.953375 
L 104.507418 133.497524 
L 104.933085 133.497524 
L 105.145919 133.269599 
L 105.784419 133.269599 
L 106.210086 132.813748 
L 106.422919 132.813748 
L 106.635753 132.585822 
L 106.848586 132.585822 
L 107.06142 131.902046 
L 107.274253 131.902046 
L 107.487087 131.674121 
L 107.69992 131.674121 
L 107.912754 131.446196 
L 108.551254 131.446196 
L 108.764088 131.21827 
L 108.976921 131.21827 
L 109.402588 130.762419 
L 111.105256 130.762419 
L 111.530923 130.306569 
L 112.169423 130.306569 
L 112.382257 130.078643 
L 113.020757 130.078643 
L 113.233591 129.850718 
L 113.659258 129.850718 
L 113.872091 129.622793 
L 114.084925 129.622793 
L 114.297758 129.394867 
L 114.510592 129.394867 
L 114.723425 128.939016 
L 114.936259 128.939016 
L 115.149092 127.799389 
L 115.361926 127.799389 
L 115.574759 127.571464 
L 116.000426 127.571464 
L 116.21326 126.659763 
L 116.426093 126.431837 
L 116.638927 125.748061 
L 120.044262 125.748061 
L 120.257096 125.520136 
L 126.6421 125.520136 
L 126.854934 125.29221 
L 130.89877 125.29221 
L 131.111603 125.064285 
L 131.962937 125.064285 
L 132.175771 124.83636 
L 132.814271 124.83636 
L 133.027105 124.608434 
L 134.304105 124.608434 
L 135.155439 121.189553 
L 135.368273 120.961628 
L 137.070941 120.961628 
L 137.496608 120.505777 
L 138.986442 120.505777 
L 139.412109 119.822001 
L 139.624942 119.822001 
L 139.837776 119.594076 
L 140.050609 119.594076 
L 140.263443 119.36615 
L 140.476276 119.36615 
L 140.68911 118.682374 
L 140.901943 118.682374 
L 141.32761 118.226523 
L 141.966111 118.226523 
L 142.178944 117.998598 
L 143.030278 117.998598 
L 143.243112 117.770673 
L 144.094446 117.770673 
L 144.307279 117.542747 
L 144.520113 117.086897 
L 144.945779 117.086897 
L 145.158613 116.858971 
L 145.371446 116.858971 
L 145.58428 116.631046 
L 145.797113 116.631046 
L 146.009947 116.40312 
L 150.053783 116.40312 
L 150.266617 116.175195 
L 152.607785 116.175195 
L 152.820618 115.94727 
L 153.246285 115.94727 
L 153.459119 115.719344 
L 153.671952 115.719344 
L 153.884786 115.491419 
L 154.310453 115.491419 
L 154.523286 115.263493 
L 157.077288 115.263493 
L 157.290121 115.035568 
L 162.185291 115.035568 
L 162.398125 114.807643 
L 165.377794 114.807643 
L 165.590627 114.579717 
L 167.931795 114.579717 
L 168.144629 114.123867 
L 168.570296 114.123867 
L 168.783129 113.895941 
L 170.485797 113.895941 
L 170.698631 113.668016 
L 170.911464 113.212165 
L 174.529633 113.212165 
L 174.742467 112.98424 
L 194.748814 112.98424 
L 194.961647 112.756314 
L 212.413993 112.756314 
L 212.626826 112.528389 
L 213.690994 112.528389 
L 213.903827 112.300464 
L 218.798997 112.300464 
L 219.011831 112.072538 
L 221.778666 112.072538 
L 221.9915 111.844613 
L 222.204333 111.844613 
L 222.417167 111.616687 
L 223.055667 111.616687 
L 223.2685 111.388762 
L 225.184002 111.388762 
L 225.396835 111.160837 
L 229.227838 111.160837 
L 229.440671 110.932911 
L 230.292005 110.932911 
L 230.504839 110.704986 
L 233.697341 110.704986 
L 234.123008 110.249135 
L 237.102677 110.249135 
L 237.31551 109.793284 
L 246.254516 109.793284 
L 246.46735 109.565359 
L 256.683357 109.565359 
L 257.109024 109.109508 
L 257.534691 109.109508 
L 257.747524 108.881583 
L 259.450192 108.881583 
L 259.875859 108.425732 
L 260.51436 108.425732 
L 260.727193 108.197807 
L 261.79136 108.197807 
L 262.217027 107.741956 
L 267.537864 107.741956 
L 267.750698 107.514031 
L 269.240532 107.514031 
L 269.453366 107.286105 
L 272.220201 107.286105 
L 272.433035 107.05818 
L 280.520707 107.05818 
L 280.73354 106.830254 
L 281.584874 106.830254 
L 281.797708 106.602329 
L 306.699225 106.602329 
L 306.912058 106.374404 
L 307.124892 105.918553 
L 307.337725 105.918553 
L 307.550559 105.690627 
L 312.658562 105.690627 
L 312.871396 105.462702 
L 314.999731 105.462702 
L 315.212564 105.234777 
L 322.236069 105.234777 
L 322.448903 105.006851 
L 329.472407 105.006851 
L 329.685241 104.778926 
L 360.758929 104.778926 
L 360.971763 104.551001 
L 365.441266 104.551001 
L 365.654099 104.323075 
L 375.657273 104.323075 
L 375.657273 104.323075 
" clip-path="url(#p5fc05ff2f8)" style="fill: none; stroke: #5784db; stroke-width: 1.2; stroke-linecap: round"/>
   </g>
   <g id="line2d_42">
    <path d="M 69.602727 466.952357 
L 69.815561 441.424715 
L 70.028394 370.995772 
L 70.666895 295.780396 
L 71.092562 276.862589 
L 72.582396 246.320588 
L 72.795229 243.129633 
L 73.008063 227.858632 
L 73.646563 215.094811 
L 73.859397 208.484975 
L 74.07223 208.029124 
L 74.923564 198.456258 
L 75.349231 194.581526 
L 75.774898 190.023019 
L 75.987732 187.059989 
L 76.200565 185.692436 
L 76.626232 181.361854 
L 76.839066 180.450153 
L 77.051899 177.487123 
L 78.116067 171.788988 
L 78.541733 168.825958 
L 79.605901 162.216122 
L 79.818734 161.760271 
L 80.457235 158.569316 
L 80.670068 156.062137 
L 81.521402 153.099107 
L 81.734236 153.099107 
L 81.947069 152.643256 
L 82.372736 150.364002 
L 82.58557 150.136077 
L 83.011237 148.99645 
L 83.22407 148.768525 
L 84.501071 144.893793 
L 84.713904 144.437942 
L 84.926738 144.437942 
L 85.352405 142.842465 
L 86.203739 141.019062 
L 86.416572 141.019062 
L 86.629406 140.563211 
L 86.842239 139.651509 
L 87.055073 139.651509 
L 87.267906 138.739808 
L 87.693573 138.283957 
L 88.11924 137.600181 
L 88.544907 137.600181 
L 88.970574 137.14433 
L 89.396241 135.320927 
L 89.821908 134.865076 
L 90.247575 133.953375 
L 90.673242 131.674121 
L 91.311742 128.711091 
L 91.524576 128.483166 
L 92.37591 128.483166 
L 92.588743 128.25524 
L 92.801577 128.25524 
L 93.01441 128.027315 
L 93.227244 128.027315 
L 93.440077 127.343539 
L 93.652911 127.115613 
L 93.865744 127.115613 
L 94.078578 126.887688 
L 94.291411 126.887688 
L 94.717078 126.431837 
L 94.929911 126.431837 
L 95.568412 125.29221 
L 95.781245 125.29221 
L 96.206912 123.924658 
L 97.696747 123.924658 
L 98.122414 123.468807 
L 98.548081 123.468807 
L 98.760914 123.240882 
L 99.186581 123.240882 
L 99.399415 123.012956 
L 100.463582 123.012956 
L 100.676415 122.785031 
L 100.889249 122.785031 
L 101.102082 122.557106 
L 102.379083 122.557106 
L 102.80475 122.101255 
L 103.017584 122.101255 
L 103.656084 121.417479 
L 103.868918 121.417479 
L 104.081751 120.733703 
L 104.294585 120.733703 
L 104.507418 120.277852 
L 104.933085 120.277852 
L 105.145919 120.049927 
L 105.784419 120.049927 
L 106.210086 119.594076 
L 106.422919 119.594076 
L 106.635753 119.36615 
L 106.848586 119.36615 
L 107.06142 118.682374 
L 107.274253 118.682374 
L 107.487087 118.454449 
L 107.69992 118.454449 
L 107.912754 118.226523 
L 108.551254 118.226523 
L 108.764088 117.998598 
L 108.976921 117.998598 
L 109.402588 117.542747 
L 111.95659 117.542747 
L 112.382257 117.086897 
L 113.659258 117.086897 
L 113.872091 116.858971 
L 114.084925 116.858971 
L 114.297758 116.631046 
L 114.510592 116.631046 
L 114.723425 116.175195 
L 114.936259 116.175195 
L 115.149092 115.035568 
L 115.361926 114.807643 
L 115.574759 114.807643 
L 115.787593 114.579717 
L 116.000426 114.579717 
L 116.21326 113.668016 
L 116.426093 113.44009 
L 116.638927 112.756314 
L 120.044262 112.756314 
L 120.257096 112.528389 
L 126.6421 112.528389 
L 126.854934 112.300464 
L 130.047436 112.300464 
L 130.260269 112.072538 
L 131.962937 112.072538 
L 132.175771 111.844613 
L 133.878438 111.844613 
L 134.729772 110.249135 
L 134.942606 108.881583 
L 135.368273 108.197807 
L 136.858107 108.197807 
L 137.283774 107.741956 
L 138.986442 107.741956 
L 139.412109 107.05818 
L 139.624942 107.05818 
L 139.837776 106.830254 
L 140.050609 106.830254 
L 140.263443 106.602329 
L 140.476276 106.602329 
L 140.68911 106.146478 
L 140.901943 106.146478 
L 141.114777 105.918553 
L 141.32761 105.462702 
L 141.966111 105.462702 
L 142.178944 105.234777 
L 142.817445 105.234777 
L 143.030278 105.006851 
L 143.881612 105.006851 
L 144.520113 104.323075 
L 144.945779 104.323075 
L 145.158613 104.09515 
L 145.371446 104.09515 
L 145.58428 103.867224 
L 145.797113 103.867224 
L 146.009947 103.639299 
L 149.202449 103.639299 
L 149.415283 103.411374 
L 150.053783 103.411374 
L 150.266617 103.183448 
L 152.607785 103.183448 
L 152.820618 102.955523 
L 153.246285 102.955523 
L 153.459119 102.727598 
L 153.671952 102.727598 
L 154.097619 102.271747 
L 156.864454 102.271747 
L 157.077288 102.043821 
L 162.185291 102.043821 
L 162.398125 101.815896 
L 165.16496 101.815896 
L 165.377794 101.360045 
L 167.718962 101.360045 
L 168.144629 100.904194 
L 168.570296 100.904194 
L 168.995963 100.448344 
L 170.272964 100.448344 
L 170.485797 100.220418 
L 170.698631 100.220418 
L 170.911464 99.764568 
L 174.529633 99.764568 
L 174.742467 99.536642 
L 183.042973 99.536642 
L 183.255806 99.308717 
L 212.413993 99.308717 
L 212.626826 99.080791 
L 213.690994 99.080791 
L 213.903827 98.852866 
L 215.606495 98.852866 
L 215.819329 98.624941 
L 218.798997 98.624941 
L 219.011831 98.397015 
L 221.778666 98.397015 
L 221.9915 98.16909 
L 222.204333 98.16909 
L 222.417167 97.941164 
L 223.055667 97.941164 
L 223.2685 97.713239 
L 225.184002 97.713239 
L 225.396835 97.485314 
L 229.227838 97.485314 
L 229.440671 97.257388 
L 230.292005 97.257388 
L 230.717672 96.801538 
L 233.484508 96.801538 
L 233.697341 96.573612 
L 237.102677 96.573612 
L 237.31551 96.117761 
L 242.423514 96.117761 
L 242.636347 95.889836 
L 246.254516 95.889836 
L 246.46735 95.661911 
L 256.683357 95.661911 
L 256.89619 95.20606 
L 257.534691 95.20606 
L 257.747524 94.978135 
L 259.237359 94.978135 
L 259.450192 94.750209 
L 260.51436 94.750209 
L 260.727193 94.522284 
L 261.365694 94.522284 
L 261.578527 94.294358 
L 262.004194 94.294358 
L 262.217027 94.066433 
L 267.537864 94.066433 
L 267.750698 93.838508 
L 269.240532 93.838508 
L 269.453366 93.610582 
L 272.220201 93.610582 
L 272.433035 93.154731 
L 277.541038 93.154731 
L 277.753872 92.698881 
L 278.392372 92.698881 
L 278.605205 92.470955 
L 278.818039 92.470955 
L 279.030872 92.015105 
L 280.520707 92.015105 
L 280.73354 91.787179 
L 281.584874 91.787179 
L 281.797708 91.559254 
L 306.273558 91.559254 
L 306.486391 91.331328 
L 306.912058 91.331328 
L 307.124892 90.875478 
L 307.337725 90.875478 
L 307.550559 90.647552 
L 329.472407 90.647552 
L 329.685241 90.419627 
L 343.945084 90.419627 
L 344.370751 89.963776 
L 345.009251 89.963776 
L 345.222085 89.735851 
L 360.758929 89.735851 
L 360.971763 89.507925 
L 365.228432 89.507925 
L 365.441266 89.28 
L 375.657273 89.28 
L 375.657273 89.28 
" clip-path="url(#p5fc05ff2f8)" style="fill: none; stroke: #c957db; stroke-width: 1.2; stroke-linecap: round"/>
   </g>
   <g id="line2d_43"/>
   <g id="line2d_44"/>
   <g id="line2d_45"/>
   <g id="line2d_46"/>
   <g id="line2d_47"/>
   <g id="patch_3">
    <path d="M 54.3 512.64 
L 54.3 69.12 
" style="fill: none; stroke: #cccccc; stroke-linejoin: miter; stroke-linecap: square"/>
   </g>
   <g id="patch_4">
    <path d="M 54.3 512.64 
L 390.96 512.64 
" style="fill: none; stroke: #cccccc; stroke-linejoin: miter; stroke-linecap: square"/>
   </g>
   <g id="text_40">
    <!-- Edge Coverage History -->
    <g style="fill: #262626" transform="translate(115.738512 63.12)scale(0.165888 -0.165888)">
     <defs>
      <path id="DejaVuSans-Bold-45" d="M 588 4666 
L 3834 4666 
L 3834 3756 
L 1791 3756 
L 1791 2888 
L 3713 2888 
L 3713 1978 
L 1791 1978 
L 1791 909 
L 3903 909 
L 3903 0 
L 588 0 
L 588 4666 
z
" transform="scale(0.015625)"/>
      <path id="DejaVuSans-Bold-64" d="M 2919 2988 
L 2919 4863 
L 4044 4863 
L 4044 0 
L 2919 0 
L 2919 506 
Q 2688 197 2409 53 
Q 2131 -91 1766 -91 
Q 1119 -91 703 423 
Q 288 938 288 1747 
Q 288 2556 703 3070 
Q 1119 3584 1766 3584 
Q 2128 3584 2408 3439 
Q 2688 3294 2919 2988 
z
M 2181 722 
Q 2541 722 2730 984 
Q 2919 1247 2919 1747 
Q 2919 2247 2730 2509 
Q 2541 2772 2181 2772 
Q 1825 2772 1636 2509 
Q 1447 2247 1447 1747 
Q 1447 1247 1636 984 
Q 1825 722 2181 722 
z
" transform="scale(0.015625)"/>
      <path id="DejaVuSans-Bold-67" d="M 2919 594 
Q 2688 288 2409 144 
Q 2131 0 1766 0 
Q 1125 0 706 504 
Q 288 1009 288 1791 
Q 288 2575 706 3076 
Q 1125 3578 1766 3578 
Q 2131 3578 2409 3434 
Q 2688 3291 2919 2981 
L 2919 3500 
L 4044 3500 
L 4044 353 
Q 4044 -491 3511 -936 
Q 2978 -1381 1966 -1381 
Q 1638 -1381 1331 -1331 
Q 1025 -1281 716 -1178 
L 716 -306 
Q 1009 -475 1290 -558 
Q 1572 -641 1856 -641 
Q 2406 -641 2662 -400 
Q 2919 -159 2919 353 
L 2919 594 
z
M 2181 2772 
Q 1834 2772 1640 2515 
Q 1447 2259 1447 1791 
Q 1447 1309 1634 1061 
Q 1822 813 2181 813 
Q 2531 813 2725 1069 
Q 2919 1325 2919 1791 
Q 2919 2259 2725 2515 
Q 2531 2772 2181 2772 
z
" transform="scale(0.015625)"/>
      <path id="DejaVuSans-Bold-65" d="M 4031 1759 
L 4031 1441 
L 1416 1441 
Q 1456 1047 1700 850 
Q 1944 653 2381 653 
Q 2734 653 3104 758 
Q 3475 863 3866 1075 
L 3866 213 
Q 3469 63 3072 -14 
Q 2675 -91 2278 -91 
Q 1328 -91 801 392 
Q 275 875 275 1747 
Q 275 2603 792 3093 
Q 1309 3584 2216 3584 
Q 3041 3584 3536 3087 
Q 4031 2591 4031 1759 
z
M 2881 2131 
Q 2881 2450 2695 2645 
Q 2509 2841 2209 2841 
Q 1884 2841 1681 2658 
Q 1478 2475 1428 2131 
L 2881 2131 
z
" transform="scale(0.015625)"/>
      <path id="DejaVuSans-Bold-20" transform="scale(0.015625)"/>
      <path id="DejaVuSans-Bold-43" d="M 4288 256 
Q 3956 84 3597 -3 
Q 3238 -91 2847 -91 
Q 1681 -91 1000 561 
Q 319 1213 319 2328 
Q 319 3447 1000 4098 
Q 1681 4750 2847 4750 
Q 3238 4750 3597 4662 
Q 3956 4575 4288 4403 
L 4288 3438 
Q 3953 3666 3628 3772 
Q 3303 3878 2944 3878 
Q 2300 3878 1931 3465 
Q 1563 3053 1563 2328 
Q 1563 1606 1931 1193 
Q 2300 781 2944 781 
Q 3303 781 3628 887 
Q 3953 994 4288 1222 
L 4288 256 
z
" transform="scale(0.015625)"/>
      <path id="DejaVuSans-Bold-6f" d="M 2203 2784 
Q 1831 2784 1636 2517 
Q 1441 2250 1441 1747 
Q 1441 1244 1636 976 
Q 1831 709 2203 709 
Q 2569 709 2762 976 
Q 2956 1244 2956 1747 
Q 2956 2250 2762 2517 
Q 2569 2784 2203 2784 
z
M 2203 3584 
Q 3106 3584 3614 3096 
Q 4122 2609 4122 1747 
Q 4122 884 3614 396 
Q 3106 -91 2203 -91 
Q 1297 -91 786 396 
Q 275 884 275 1747 
Q 275 2609 786 3096 
Q 1297 3584 2203 3584 
z
" transform="scale(0.015625)"/>
      <path id="DejaVuSans-Bold-76" d="M 97 3500 
L 1216 3500 
L 2088 1081 
L 2956 3500 
L 4078 3500 
L 2700 0 
L 1472 0 
L 97 3500 
z
" transform="scale(0.015625)"/>
      <path id="DejaVuSans-Bold-72" d="M 3138 2547 
Q 2991 2616 2845 2648 
Q 2700 2681 2553 2681 
Q 2122 2681 1889 2404 
Q 1656 2128 1656 1613 
L 1656 0 
L 538 0 
L 538 3500 
L 1656 3500 
L 1656 2925 
Q 1872 3269 2151 3426 
Q 2431 3584 2822 3584 
Q 2878 3584 2943 3579 
Q 3009 3575 3134 3559 
L 3138 2547 
z
" transform="scale(0.015625)"/>
      <path id="DejaVuSans-Bold-61" d="M 2106 1575 
Q 1756 1575 1579 1456 
Q 1403 1338 1403 1106 
Q 1403 894 1545 773 
Q 1688 653 1941 653 
Q 2256 653 2472 879 
Q 2688 1106 2688 1447 
L 2688 1575 
L 2106 1575 
z
M 3816 1997 
L 3816 0 
L 2688 0 
L 2688 519 
Q 2463 200 2181 54 
Q 1900 -91 1497 -91 
Q 953 -91 614 226 
Q 275 544 275 1050 
Q 275 1666 698 1953 
Q 1122 2241 2028 2241 
L 2688 2241 
L 2688 2328 
Q 2688 2594 2478 2717 
Q 2269 2841 1825 2841 
Q 1466 2841 1156 2769 
Q 847 2697 581 2553 
L 581 3406 
Q 941 3494 1303 3539 
Q 1666 3584 2028 3584 
Q 2975 3584 3395 3211 
Q 3816 2838 3816 1997 
z
" transform="scale(0.015625)"/>
      <path id="DejaVuSans-Bold-48" d="M 588 4666 
L 1791 4666 
L 1791 2888 
L 3566 2888 
L 3566 4666 
L 4769 4666 
L 4769 0 
L 3566 0 
L 3566 1978 
L 1791 1978 
L 1791 0 
L 588 0 
L 588 4666 
z
" transform="scale(0.015625)"/>
      <path id="DejaVuSans-Bold-69" d="M 538 3500 
L 1656 3500 
L 1656 0 
L 538 0 
L 538 3500 
z
M 538 4863 
L 1656 4863 
L 1656 3950 
L 538 3950 
L 538 4863 
z
" transform="scale(0.015625)"/>
      <path id="DejaVuSans-Bold-73" d="M 3272 3391 
L 3272 2541 
Q 2913 2691 2578 2766 
Q 2244 2841 1947 2841 
Q 1628 2841 1473 2761 
Q 1319 2681 1319 2516 
Q 1319 2381 1436 2309 
Q 1553 2238 1856 2203 
L 2053 2175 
Q 2913 2066 3209 1816 
Q 3506 1566 3506 1031 
Q 3506 472 3093 190 
Q 2681 -91 1863 -91 
Q 1516 -91 1145 -36 
Q 775 19 384 128 
L 384 978 
Q 719 816 1070 734 
Q 1422 653 1784 653 
Q 2113 653 2278 743 
Q 2444 834 2444 1013 
Q 2444 1163 2330 1236 
Q 2216 1309 1875 1350 
L 1678 1375 
Q 931 1469 631 1722 
Q 331 1975 331 2491 
Q 331 3047 712 3315 
Q 1094 3584 1881 3584 
Q 2191 3584 2531 3537 
Q 2872 3491 3272 3391 
z
" transform="scale(0.015625)"/>
      <path id="DejaVuSans-Bold-74" d="M 1759 4494 
L 1759 3500 
L 2913 3500 
L 2913 2700 
L 1759 2700 
L 1759 1216 
Q 1759 972 1856 886 
Q 1953 800 2241 800 
L 2816 800 
L 2816 0 
L 1856 0 
Q 1194 0 917 276 
Q 641 553 641 1216 
L 641 2700 
L 84 2700 
L 84 3500 
L 641 3500 
L 641 4494 
L 1759 4494 
z
" transform="scale(0.015625)"/>
      <path id="DejaVuSans-Bold-79" d="M 78 3500 
L 1197 3500 
L 2138 1125 
L 2938 3500 
L 4056 3500 
L 2584 -331 
Q 2363 -916 2067 -1148 
Q 1772 -1381 1288 -1381 
L 641 -1381 
L 641 -647 
L 991 -647 
Q 1275 -647 1404 -556 
Q 1534 -466 1606 -231 
L 1638 -134 
L 78 3500 
z
" transform="scale(0.015625)"/>
     </defs>
     <use xlink:href="#DejaVuSans-Bold-45"/>
     <use xlink:href="#DejaVuSans-Bold-64" x="68.310547"/>
     <use xlink:href="#DejaVuSans-Bold-67" x="139.892578"/>
     <use xlink:href="#DejaVuSans-Bold-65" x="211.474609"/>
     <use xlink:href="#DejaVuSans-Bold-20" x="279.296875"/>
     <use xlink:href="#DejaVuSans-Bold-43" x="314.111328"/>
     <use xlink:href="#DejaVuSans-Bold-6f" x="387.5"/>
     <use xlink:href="#DejaVuSans-Bold-76" x="456.201172"/>
     <use xlink:href="#DejaVuSans-Bold-65" x="521.386719"/>
     <use xlink:href="#DejaVuSans-Bold-72" x="589.208984"/>
     <use xlink:href="#DejaVuSans-Bold-61" x="638.525391"/>
     <use xlink:href="#DejaVuSans-Bold-67" x="706.005859"/>
     <use xlink:href="#DejaVuSans-Bold-65" x="777.587891"/>
     <use xlink:href="#DejaVuSans-Bold-20" x="845.410156"/>
     <use xlink:href="#DejaVuSans-Bold-48" x="880.224609"/>
     <use xlink:href="#DejaVuSans-Bold-69" x="963.916016"/>
     <use xlink:href="#DejaVuSans-Bold-73" x="998.193359"/>
     <use xlink:href="#DejaVuSans-Bold-74" x="1057.714844"/>
     <use xlink:href="#DejaVuSans-Bold-6f" x="1105.517578"/>
     <use xlink:href="#DejaVuSans-Bold-72" x="1174.21875"/>
     <use xlink:href="#DejaVuSans-Bold-79" x="1223.535156"/>
    </g>
   </g>
   <g id="legend_1">
    <g id="patch_5">
     <path d="M 273.271 508.24 
L 384.8 508.24 
Q 386.56 508.24 386.56 506.48 
L 386.56 428.8405 
Q 386.56 427.0805 384.8 427.0805 
L 273.271 427.0805 
Q 271.511 427.0805 271.511 428.8405 
L 271.511 506.48 
Q 271.511 508.24 273.271 508.24 
z
" style="fill: #ffffff; opacity: 0.8; stroke: #cccccc; stroke-width: 0.8; stroke-linejoin: miter"/>
    </g>
    <g id="text_41">
     <!-- fuzzer -->
     <g style="fill: #262626" transform="translate(314.3385 437.895)scale(0.096 -0.096)">
      <defs>
       <path id="DejaVuSans-66" d="M 2375 4863 
L 2375 4384 
L 1825 4384 
Q 1516 4384 1395 4259 
Q 1275 4134 1275 3809 
L 1275 3500 
L 2222 3500 
L 2222 3053 
L 1275 3053 
L 1275 0 
L 697 0 
L 697 3053 
L 147 3053 
L 147 3500 
L 697 3500 
L 697 3744 
Q 697 4328 969 4595 
Q 1241 4863 1831 4863 
L 2375 4863 
z
" transform="scale(0.015625)"/>
       <path id="DejaVuSans-7a" d="M 353 3500 
L 3084 3500 
L 3084 2975 
L 922 459 
L 3084 459 
L 3084 0 
L 275 0 
L 275 525 
L 2438 3041 
L 353 3041 
L 353 3500 
z
" transform="scale(0.015625)"/>
      </defs>
      <use xlink:href="#DejaVuSans-66"/>
      <use xlink:href="#DejaVuSans-75" x="35.205078"/>
      <use xlink:href="#DejaVuSans-7a" x="98.583984"/>
      <use xlink:href="#DejaVuSans-7a" x="151.074219"/>
      <use xlink:href="#DejaVuSans-65" x="203.564453"/>
      <use xlink:href="#DejaVuSans-72" x="265.087891"/>
     </g>
    </g>
    <g id="line2d_48">
     <path d="M 275.031 447.898125 
L 283.831 447.898125 
L 292.631 447.898125 
" style="fill: none; stroke: #db5f57; stroke-width: 1.2; stroke-linecap: round"/>
    </g>
    <g id="text_42">
     <!-- aflplusplus-0-exid0 -->
     <g style="fill: #262626" transform="translate(299.671 450.978125)scale(0.088 -0.088)">
      <defs>
       <path id="DejaVuSans-6c" d="M 603 4863 
L 1178 4863 
L 1178 0 
L 603 0 
L 603 4863 
z
" transform="scale(0.015625)"/>
       <path id="DejaVuSans-70" d="M 1159 525 
L 1159 -1331 
L 581 -1331 
L 581 3500 
L 1159 3500 
L 1159 2969 
Q 1341 3281 1617 3432 
Q 1894 3584 2278 3584 
Q 2916 3584 3314 3078 
Q 3713 2572 3713 1747 
Q 3713 922 3314 415 
Q 2916 -91 2278 -91 
Q 1894 -91 1617 61 
Q 1341 213 1159 525 
z
M 3116 1747 
Q 3116 2381 2855 2742 
Q 2594 3103 2138 3103 
Q 1681 3103 1420 2742 
Q 1159 2381 1159 1747 
Q 1159 1113 1420 752 
Q 1681 391 2138 391 
Q 2594 391 2855 752 
Q 3116 1113 3116 1747 
z
" transform="scale(0.015625)"/>
       <path id="DejaVuSans-2d" d="M 313 2009 
L 1997 2009 
L 1997 1497 
L 313 1497 
L 313 2009 
z
" transform="scale(0.015625)"/>
       <path id="DejaVuSans-78" d="M 3513 3500 
L 2247 1797 
L 3578 0 
L 2900 0 
L 1881 1375 
L 863 0 
L 184 0 
L 1544 1831 
L 300 3500 
L 978 3500 
L 1906 2253 
L 2834 3500 
L 3513 3500 
z
" transform="scale(0.015625)"/>
      </defs>
      <use xlink:href="#DejaVuSans-61"/>
      <use xlink:href="#DejaVuSans-66" x="61.279297"/>
      <use xlink:href="#DejaVuSans-6c" x="96.484375"/>
      <use xlink:href="#DejaVuSans-70" x="124.267578"/>
      <use xlink:href="#DejaVuSans-6c" x="187.744141"/>
      <use xlink:href="#DejaVuSans-75" x="215.527344"/>
      <use xlink:href="#DejaVuSans-73" x="278.90625"/>
      <use xlink:href="#DejaVuSans-70" x="331.005859"/>
      <use xlink:href="#DejaVuSans-6c" x="394.482422"/>
      <use xlink:href="#DejaVuSans-75" x="422.265625"/>
      <use xlink:href="#DejaVuSans-73" x="485.644531"/>
      <use xlink:href="#DejaVuSans-2d" x="537.744141"/>
      <use xlink:href="#DejaVuSans-30" x="573.828125"/>
      <use xlink:href="#DejaVuSans-2d" x="637.451172"/>
      <use xlink:href="#DejaVuSans-65" x="673.535156"/>
      <use xlink:href="#DejaVuSans-78" x="733.308594"/>
      <use xlink:href="#DejaVuSans-69" x="792.488281"/>
      <use xlink:href="#DejaVuSans-64" x="820.271484"/>
      <use xlink:href="#DejaVuSans-30" x="883.748047"/>
     </g>
    </g>
    <g id="line2d_49">
     <path d="M 275.031 460.814875 
L 283.831 460.814875 
L 292.631 460.814875 
" style="fill: none; stroke: #b9db57; stroke-width: 1.2; stroke-linecap: round"/>
    </g>
    <g id="text_43">
     <!-- mopt-0-exid0 -->
     <g style="fill: #262626" transform="translate(299.671 463.894875)scale(0.088 -0.088)">
      <use xlink:href="#DejaVuSans-6d"/>
      <use xlink:href="#DejaVuSans-6f" x="97.412109"/>
      <use xlink:href="#DejaVuSans-70" x="158.59375"/>
      <use xlink:href="#DejaVuSans-74" x="222.070312"/>
      <use xlink:href="#DejaVuSans-2d" x="261.279297"/>
      <use xlink:href="#DejaVuSans-30" x="297.363281"/>
      <use xlink:href="#DejaVuSans-2d" x="360.986328"/>
      <use xlink:href="#DejaVuSans-65" x="397.070312"/>
      <use xlink:href="#DejaVuSans-78" x="456.84375"/>
      <use xlink:href="#DejaVuSans-69" x="516.023438"/>
      <use xlink:href="#DejaVuSans-64" x="543.806641"/>
      <use xlink:href="#DejaVuSans-30" x="607.283203"/>
     </g>
    </g>
    <g id="line2d_50">
     <path d="M 275.031 473.731625 
L 283.831 473.731625 
L 292.631 473.731625 
" style="fill: none; stroke: #57db94; stroke-width: 1.2; stroke-linecap: round"/>
    </g>
    <g id="text_44">
     <!-- fairfuzz-0-exid0 -->
     <g style="fill: #262626" transform="translate(299.671 476.811625)scale(0.088 -0.088)">
      <use xlink:href="#DejaVuSans-66"/>
      <use xlink:href="#DejaVuSans-61" x="35.205078"/>
      <use xlink:href="#DejaVuSans-69" x="96.484375"/>
      <use xlink:href="#DejaVuSans-72" x="124.267578"/>
      <use xlink:href="#DejaVuSans-66" x="165.380859"/>
      <use xlink:href="#DejaVuSans-75" x="200.585938"/>
      <use xlink:href="#DejaVuSans-7a" x="263.964844"/>
      <use xlink:href="#DejaVuSans-7a" x="316.455078"/>
      <use xlink:href="#DejaVuSans-2d" x="368.945312"/>
      <use xlink:href="#DejaVuSans-30" x="405.029297"/>
      <use xlink:href="#DejaVuSans-2d" x="468.652344"/>
      <use xlink:href="#DejaVuSans-65" x="504.736328"/>
      <use xlink:href="#DejaVuSans-78" x="564.509766"/>
      <use xlink:href="#DejaVuSans-69" x="623.689453"/>
      <use xlink:href="#DejaVuSans-64" x="651.472656"/>
      <use xlink:href="#DejaVuSans-30" x="714.949219"/>
     </g>
    </g>
    <g id="line2d_51">
     <path d="M 275.031 486.648375 
L 283.831 486.648375 
L 292.631 486.648375 
" style="fill: none; stroke: #5784db; stroke-width: 1.2; stroke-linecap: round"/>
    </g>
    <g id="text_45">
     <!-- symcc-0-exid0 -->
     <g style="fill: #262626" transform="translate(299.671 489.728375)scale(0.088 -0.088)">
      <defs>
       <path id="DejaVuSans-79" d="M 2059 -325 
Q 1816 -950 1584 -1140 
Q 1353 -1331 966 -1331 
L 506 -1331 
L 506 -850 
L 844 -850 
Q 1081 -850 1212 -737 
Q 1344 -625 1503 -206 
L 1606 56 
L 191 3500 
L 800 3500 
L 1894 763 
L 2988 3500 
L 3597 3500 
L 2059 -325 
z
" transform="scale(0.015625)"/>
       <path id="DejaVuSans-63" d="M 3122 3366 
L 3122 2828 
Q 2878 2963 2633 3030 
Q 2388 3097 2138 3097 
Q 1578 3097 1268 2742 
Q 959 2388 959 1747 
Q 959 1106 1268 751 
Q 1578 397 2138 397 
Q 2388 397 2633 464 
Q 2878 531 3122 666 
L 3122 134 
Q 2881 22 2623 -34 
Q 2366 -91 2075 -91 
Q 1284 -91 818 406 
Q 353 903 353 1747 
Q 353 2603 823 3093 
Q 1294 3584 2113 3584 
Q 2378 3584 2631 3529 
Q 2884 3475 3122 3366 
z
" transform="scale(0.015625)"/>
      </defs>
      <use xlink:href="#DejaVuSans-73"/>
      <use xlink:href="#DejaVuSans-79" x="52.099609"/>
      <use xlink:href="#DejaVuSans-6d" x="111.279297"/>
      <use xlink:href="#DejaVuSans-63" x="208.691406"/>
      <use xlink:href="#DejaVuSans-63" x="263.671875"/>
      <use xlink:href="#DejaVuSans-2d" x="318.652344"/>
      <use xlink:href="#DejaVuSans-30" x="354.736328"/>
      <use xlink:href="#DejaVuSans-2d" x="418.359375"/>
      <use xlink:href="#DejaVuSans-65" x="454.443359"/>
      <use xlink:href="#DejaVuSans-78" x="514.216797"/>
      <use xlink:href="#DejaVuSans-69" x="573.396484"/>
      <use xlink:href="#DejaVuSans-64" x="601.179688"/>
      <use xlink:href="#DejaVuSans-30" x="664.65625"/>
     </g>
    </g>
    <g id="line2d_52">
     <path d="M 275.031 499.565125 
L 283.831 499.565125 
L 292.631 499.565125 
" style="fill: none; stroke: #c957db; stroke-width: 1.2; stroke-linecap: round"/>
    </g>
    <g id="text_46">
     <!-- fuzzer_global -->
     <g style="fill: #262626" transform="translate(299.671 502.645125)scale(0.088 -0.088)">
      <defs>
       <path id="DejaVuSans-5f" d="M 3263 -1063 
L 3263 -1509 
L -63 -1509 
L -63 -1063 
L 3263 -1063 
z
" transform="scale(0.015625)"/>
       <path id="DejaVuSans-62" d="M 3116 1747 
Q 3116 2381 2855 2742 
Q 2594 3103 2138 3103 
Q 1681 3103 1420 2742 
Q 1159 2381 1159 1747 
Q 1159 1113 1420 752 
Q 1681 391 2138 391 
Q 2594 391 2855 752 
Q 3116 1113 3116 1747 
z
M 1159 2969 
Q 1341 3281 1617 3432 
Q 1894 3584 2278 3584 
Q 2916 3584 3314 3078 
Q 3713 2572 3713 1747 
Q 3713 922 3314 415 
Q 2916 -91 2278 -91 
Q 1894 -91 1617 61 
Q 1341 213 1159 525 
L 1159 0 
L 581 0 
L 581 4863 
L 1159 4863 
L 1159 2969 
z
" transform="scale(0.015625)"/>
      </defs>
      <use xlink:href="#DejaVuSans-66"/>
      <use xlink:href="#DejaVuSans-75" x="35.205078"/>
      <use xlink:href="#DejaVuSans-7a" x="98.583984"/>
      <use xlink:href="#DejaVuSans-7a" x="151.074219"/>
      <use xlink:href="#DejaVuSans-65" x="203.564453"/>
      <use xlink:href="#DejaVuSans-72" x="265.087891"/>
      <use xlink:href="#DejaVuSans-5f" x="306.201172"/>
      <use xlink:href="#DejaVuSans-67" x="356.201172"/>
      <use xlink:href="#DejaVuSans-6c" x="419.677734"/>
      <use xlink:href="#DejaVuSans-6f" x="447.460938"/>
      <use xlink:href="#DejaVuSans-62" x="508.642578"/>
      <use xlink:href="#DejaVuSans-61" x="572.119141"/>
      <use xlink:href="#DejaVuSans-6c" x="633.398438"/>
     </g>
    </g>
   </g>
  </g>
 </g>
 <defs>
  <clipPath id="p5fc05ff2f8">
   <rect x="54.3" y="69.12" width="336.66" height="443.52"/>
  </clipPath>
 </defs>
</svg>
