<?xml version="1.0" encoding="utf-8" standalone="no"?>
<!DOCTYPE svg PUBLIC "-//W3C//DTD SVG 1.1//EN"
  "http://www.w3.org/Graphics/SVG/1.1/DTD/svg11.dtd">
<svg xmlns:xlink="http://www.w3.org/1999/xlink" width="434.7pt" height="576pt" viewBox="0 0 434.7 576" xmlns="http://www.w3.org/2000/svg" version="1.1">
 <metadata>
  <rdf:RDF xmlns:dc="http://purl.org/dc/elements/1.1/" xmlns:cc="http://creativecommons.org/ns#" xmlns:rdf="http://www.w3.org/1999/02/22-rdf-syntax-ns#">
   <cc:Work>
    <dc:type rdf:resource="http://purl.org/dc/dcmitype/StillImage"/>
    <dc:date>2022-09-15T11:09:54.899464</dc:date>
    <dc:format>image/svg+xml</dc:format>
    <dc:creator>
     <cc:Agent>
      <dc:title>Matplotlib v3.5.3, https://matplotlib.org/</dc:title>
     </cc:Agent>
    </dc:creator>
   </cc:Work>
  </rdf:RDF>
 </metadata>
 <defs>
  <style type="text/css">*{stroke-linejoin: round; stroke-linecap: butt}</style>
 </defs>
 <g id="figure_1">
  <g id="patch_1">
   <path d="M 0 576 
L 434.7 576 
L 434.7 0 
L 0 0 
z
" style="fill: #ffffff"/>
  </g>
  <g id="axes_1">
   <g id="patch_2">
    <path d="M 54.3375 512.64 
L 391.23 512.64 
L 391.23 69.12 
L 54.3375 69.12 
z
" style="fill: #ffffff"/>
   </g>
   <g id="matplotlib.axis_1">
    <g id="xtick_1">
     <g id="line2d_1">
      <path d="M 69.650795 512.64 
L 69.650795 69.12 
" clip-path="url(#pc6cea8c57c)" style="fill: none; stroke: #cccccc; stroke-width: 0.8; stroke-linecap: round"/>
     </g>
     <g id="text_1">
      <!-- 0 -->
      <g style="fill: #262626" transform="translate(69.388282 529.627249)rotate(-45)scale(0.088 -0.088)">
       <defs>
        <path id="DejaVuSans-30" d="M 2034 4250 
Q 1547 4250 1301 3770 
Q 1056 3291 1056 2328 
Q 1056 1369 1301 889 
Q 1547 409 2034 409 
Q 2525 409 2770 889 
Q 3016 1369 3016 2328 
Q 3016 3291 2770 3770 
Q 2525 4250 2034 4250 
z
M 2034 4750 
Q 2819 4750 3233 4129 
Q 3647 3509 3647 2328 
Q 3647 1150 3233 529 
Q 2819 -91 2034 -91 
Q 1250 -91 836 529 
Q 422 1150 422 2328 
Q 422 3509 836 4129 
Q 1250 4750 2034 4750 
z
" transform="scale(0.015625)"/>
       </defs>
       <use xlink:href="#DejaVuSans-30"/>
      </g>
     </g>
    </g>
    <g id="xtick_2">
     <g id="line2d_2">
      <path d="M 86.677392 512.64 
L 86.677392 69.12 
" clip-path="url(#pc6cea8c57c)" style="fill: none; stroke: #cccccc; stroke-width: 0.8; stroke-linecap: round"/>
     </g>
     <g id="text_2">
      <!-- 80 -->
      <g style="fill: #262626" transform="translate(84.435333 533.58634)rotate(-45)scale(0.088 -0.088)">
       <defs>
        <path id="DejaVuSans-38" d="M 2034 2216 
Q 1584 2216 1326 1975 
Q 1069 1734 1069 1313 
Q 1069 891 1326 650 
Q 1584 409 2034 409 
Q 2484 409 2743 651 
Q 3003 894 3003 1313 
Q 3003 1734 2745 1975 
Q 2488 2216 2034 2216 
z
M 1403 2484 
Q 997 2584 770 2862 
Q 544 3141 544 3541 
Q 544 4100 942 4425 
Q 1341 4750 2034 4750 
Q 2731 4750 3128 4425 
Q 3525 4100 3525 3541 
Q 3525 3141 3298 2862 
Q 3072 2584 2669 2484 
Q 3125 2378 3379 2068 
Q 3634 1759 3634 1313 
Q 3634 634 3220 271 
Q 2806 -91 2034 -91 
Q 1263 -91 848 271 
Q 434 634 434 1313 
Q 434 1759 690 2068 
Q 947 2378 1403 2484 
z
M 1172 3481 
Q 1172 3119 1398 2916 
Q 1625 2713 2034 2713 
Q 2441 2713 2670 2916 
Q 2900 3119 2900 3481 
Q 2900 3844 2670 4047 
Q 2441 4250 2034 4250 
Q 1625 4250 1398 4047 
Q 1172 3844 1172 3481 
z
" transform="scale(0.015625)"/>
       </defs>
       <use xlink:href="#DejaVuSans-38"/>
       <use xlink:href="#DejaVuSans-30" x="63.623047"/>
      </g>
     </g>
    </g>
    <g id="xtick_3">
     <g id="line2d_3">
      <path d="M 103.703989 512.64 
L 103.703989 69.12 
" clip-path="url(#pc6cea8c57c)" style="fill: none; stroke: #cccccc; stroke-width: 0.8; stroke-linecap: round"/>
     </g>
     <g id="text_3">
      <!-- 160 -->
      <g style="fill: #262626" transform="translate(99.482385 537.54543)rotate(-45)scale(0.088 -0.088)">
       <defs>
        <path id="DejaVuSans-31" d="M 794 531 
L 1825 531 
L 1825 4091 
L 703 3866 
L 703 4441 
L 1819 4666 
L 2450 4666 
L 2450 531 
L 3481 531 
L 3481 0 
L 794 0 
L 794 531 
z
" transform="scale(0.015625)"/>
        <path id="DejaVuSans-36" d="M 2113 2584 
Q 1688 2584 1439 2293 
Q 1191 2003 1191 1497 
Q 1191 994 1439 701 
Q 1688 409 2113 409 
Q 2538 409 2786 701 
Q 3034 994 3034 1497 
Q 3034 2003 2786 2293 
Q 2538 2584 2113 2584 
z
M 3366 4563 
L 3366 3988 
Q 3128 4100 2886 4159 
Q 2644 4219 2406 4219 
Q 1781 4219 1451 3797 
Q 1122 3375 1075 2522 
Q 1259 2794 1537 2939 
Q 1816 3084 2150 3084 
Q 2853 3084 3261 2657 
Q 3669 2231 3669 1497 
Q 3669 778 3244 343 
Q 2819 -91 2113 -91 
Q 1303 -91 875 529 
Q 447 1150 447 2328 
Q 447 3434 972 4092 
Q 1497 4750 2381 4750 
Q 2619 4750 2861 4703 
Q 3103 4656 3366 4563 
z
" transform="scale(0.015625)"/>
       </defs>
       <use xlink:href="#DejaVuSans-31"/>
       <use xlink:href="#DejaVuSans-36" x="63.623047"/>
       <use xlink:href="#DejaVuSans-30" x="127.246094"/>
      </g>
     </g>
    </g>
    <g id="xtick_4">
     <g id="line2d_4">
      <path d="M 120.730586 512.64 
L 120.730586 69.12 
" clip-path="url(#pc6cea8c57c)" style="fill: none; stroke: #cccccc; stroke-width: 0.8; stroke-linecap: round"/>
     </g>
     <g id="text_4">
      <!-- 240 -->
      <g style="fill: #262626" transform="translate(116.508981 537.54543)rotate(-45)scale(0.088 -0.088)">
       <defs>
        <path id="DejaVuSans-32" d="M 1228 531 
L 3431 531 
L 3431 0 
L 469 0 
L 469 531 
Q 828 903 1448 1529 
Q 2069 2156 2228 2338 
Q 2531 2678 2651 2914 
Q 2772 3150 2772 3378 
Q 2772 3750 2511 3984 
Q 2250 4219 1831 4219 
Q 1534 4219 1204 4116 
Q 875 4013 500 3803 
L 500 4441 
Q 881 4594 1212 4672 
Q 1544 4750 1819 4750 
Q 2544 4750 2975 4387 
Q 3406 4025 3406 3419 
Q 3406 3131 3298 2873 
Q 3191 2616 2906 2266 
Q 2828 2175 2409 1742 
Q 1991 1309 1228 531 
z
" transform="scale(0.015625)"/>
        <path id="DejaVuSans-34" d="M 2419 4116 
L 825 1625 
L 2419 1625 
L 2419 4116 
z
M 2253 4666 
L 3047 4666 
L 3047 1625 
L 3713 1625 
L 3713 1100 
L 3047 1100 
L 3047 0 
L 2419 0 
L 2419 1100 
L 313 1100 
L 313 1709 
L 2253 4666 
z
" transform="scale(0.015625)"/>
       </defs>
       <use xlink:href="#DejaVuSans-32"/>
       <use xlink:href="#DejaVuSans-34" x="63.623047"/>
       <use xlink:href="#DejaVuSans-30" x="127.246094"/>
      </g>
     </g>
    </g>
    <g id="xtick_5">
     <g id="line2d_5">
      <path d="M 137.757182 512.64 
L 137.757182 69.12 
" clip-path="url(#pc6cea8c57c)" style="fill: none; stroke: #cccccc; stroke-width: 0.8; stroke-linecap: round"/>
     </g>
     <g id="text_5">
      <!-- 320 -->
      <g style="fill: #262626" transform="translate(133.535578 537.54543)rotate(-45)scale(0.088 -0.088)">
       <defs>
        <path id="DejaVuSans-33" d="M 2597 2516 
Q 3050 2419 3304 2112 
Q 3559 1806 3559 1356 
Q 3559 666 3084 287 
Q 2609 -91 1734 -91 
Q 1441 -91 1130 -33 
Q 819 25 488 141 
L 488 750 
Q 750 597 1062 519 
Q 1375 441 1716 441 
Q 2309 441 2620 675 
Q 2931 909 2931 1356 
Q 2931 1769 2642 2001 
Q 2353 2234 1838 2234 
L 1294 2234 
L 1294 2753 
L 1863 2753 
Q 2328 2753 2575 2939 
Q 2822 3125 2822 3475 
Q 2822 3834 2567 4026 
Q 2313 4219 1838 4219 
Q 1578 4219 1281 4162 
Q 984 4106 628 3988 
L 628 4550 
Q 988 4650 1302 4700 
Q 1616 4750 1894 4750 
Q 2613 4750 3031 4423 
Q 3450 4097 3450 3541 
Q 3450 3153 3228 2886 
Q 3006 2619 2597 2516 
z
" transform="scale(0.015625)"/>
       </defs>
       <use xlink:href="#DejaVuSans-33"/>
       <use xlink:href="#DejaVuSans-32" x="63.623047"/>
       <use xlink:href="#DejaVuSans-30" x="127.246094"/>
      </g>
     </g>
    </g>
    <g id="xtick_6">
     <g id="line2d_6">
      <path d="M 154.783779 512.64 
L 154.783779 69.12 
" clip-path="url(#pc6cea8c57c)" style="fill: none; stroke: #cccccc; stroke-width: 0.8; stroke-linecap: round"/>
     </g>
     <g id="text_6">
      <!-- 400 -->
      <g style="fill: #262626" transform="translate(150.562175 537.54543)rotate(-45)scale(0.088 -0.088)">
       <use xlink:href="#DejaVuSans-34"/>
       <use xlink:href="#DejaVuSans-30" x="63.623047"/>
       <use xlink:href="#DejaVuSans-30" x="127.246094"/>
      </g>
     </g>
    </g>
    <g id="xtick_7">
     <g id="line2d_7">
      <path d="M 171.810376 512.64 
L 171.810376 69.12 
" clip-path="url(#pc6cea8c57c)" style="fill: none; stroke: #cccccc; stroke-width: 0.8; stroke-linecap: round"/>
     </g>
     <g id="text_7">
      <!-- 480 -->
      <g style="fill: #262626" transform="translate(167.588772 537.54543)rotate(-45)scale(0.088 -0.088)">
       <use xlink:href="#DejaVuSans-34"/>
       <use xlink:href="#DejaVuSans-38" x="63.623047"/>
       <use xlink:href="#DejaVuSans-30" x="127.246094"/>
      </g>
     </g>
    </g>
    <g id="xtick_8">
     <g id="line2d_8">
      <path d="M 188.836973 512.64 
L 188.836973 69.12 
" clip-path="url(#pc6cea8c57c)" style="fill: none; stroke: #cccccc; stroke-width: 0.8; stroke-linecap: round"/>
     </g>
     <g id="text_8">
      <!-- 560 -->
      <g style="fill: #262626" transform="translate(184.615368 537.54543)rotate(-45)scale(0.088 -0.088)">
       <defs>
        <path id="DejaVuSans-35" d="M 691 4666 
L 3169 4666 
L 3169 4134 
L 1269 4134 
L 1269 2991 
Q 1406 3038 1543 3061 
Q 1681 3084 1819 3084 
Q 2600 3084 3056 2656 
Q 3513 2228 3513 1497 
Q 3513 744 3044 326 
Q 2575 -91 1722 -91 
Q 1428 -91 1123 -41 
Q 819 9 494 109 
L 494 744 
Q 775 591 1075 516 
Q 1375 441 1709 441 
Q 2250 441 2565 725 
Q 2881 1009 2881 1497 
Q 2881 1984 2565 2268 
Q 2250 2553 1709 2553 
Q 1456 2553 1204 2497 
Q 953 2441 691 2322 
L 691 4666 
z
" transform="scale(0.015625)"/>
       </defs>
       <use xlink:href="#DejaVuSans-35"/>
       <use xlink:href="#DejaVuSans-36" x="63.623047"/>
       <use xlink:href="#DejaVuSans-30" x="127.246094"/>
      </g>
     </g>
    </g>
    <g id="xtick_9">
     <g id="line2d_9">
      <path d="M 205.863569 512.64 
L 205.863569 69.12 
" clip-path="url(#pc6cea8c57c)" style="fill: none; stroke: #cccccc; stroke-width: 0.8; stroke-linecap: round"/>
     </g>
     <g id="text_9">
      <!-- 640 -->
      <g style="fill: #262626" transform="translate(201.641965 537.54543)rotate(-45)scale(0.088 -0.088)">
       <use xlink:href="#DejaVuSans-36"/>
       <use xlink:href="#DejaVuSans-34" x="63.623047"/>
       <use xlink:href="#DejaVuSans-30" x="127.246094"/>
      </g>
     </g>
    </g>
    <g id="xtick_10">
     <g id="line2d_10">
      <path d="M 222.890166 512.64 
L 222.890166 69.12 
" clip-path="url(#pc6cea8c57c)" style="fill: none; stroke: #cccccc; stroke-width: 0.8; stroke-linecap: round"/>
     </g>
     <g id="text_10">
      <!-- 720 -->
      <g style="fill: #262626" transform="translate(218.668562 537.54543)rotate(-45)scale(0.088 -0.088)">
       <defs>
        <path id="DejaVuSans-37" d="M 525 4666 
L 3525 4666 
L 3525 4397 
L 1831 0 
L 1172 0 
L 2766 4134 
L 525 4134 
L 525 4666 
z
" transform="scale(0.015625)"/>
       </defs>
       <use xlink:href="#DejaVuSans-37"/>
       <use xlink:href="#DejaVuSans-32" x="63.623047"/>
       <use xlink:href="#DejaVuSans-30" x="127.246094"/>
      </g>
     </g>
    </g>
    <g id="xtick_11">
     <g id="line2d_11">
      <path d="M 239.916763 512.64 
L 239.916763 69.12 
" clip-path="url(#pc6cea8c57c)" style="fill: none; stroke: #cccccc; stroke-width: 0.8; stroke-linecap: round"/>
     </g>
     <g id="text_11">
      <!-- 800 -->
      <g style="fill: #262626" transform="translate(235.695159 537.54543)rotate(-45)scale(0.088 -0.088)">
       <use xlink:href="#DejaVuSans-38"/>
       <use xlink:href="#DejaVuSans-30" x="63.623047"/>
       <use xlink:href="#DejaVuSans-30" x="127.246094"/>
      </g>
     </g>
    </g>
    <g id="xtick_12">
     <g id="line2d_12">
      <path d="M 256.94336 512.64 
L 256.94336 69.12 
" clip-path="url(#pc6cea8c57c)" style="fill: none; stroke: #cccccc; stroke-width: 0.8; stroke-linecap: round"/>
     </g>
     <g id="text_12">
      <!-- 880 -->
      <g style="fill: #262626" transform="translate(252.721755 537.54543)rotate(-45)scale(0.088 -0.088)">
       <use xlink:href="#DejaVuSans-38"/>
       <use xlink:href="#DejaVuSans-38" x="63.623047"/>
       <use xlink:href="#DejaVuSans-30" x="127.246094"/>
      </g>
     </g>
    </g>
    <g id="xtick_13">
     <g id="line2d_13">
      <path d="M 273.969956 512.64 
L 273.969956 69.12 
" clip-path="url(#pc6cea8c57c)" style="fill: none; stroke: #cccccc; stroke-width: 0.8; stroke-linecap: round"/>
     </g>
     <g id="text_13">
      <!-- 960 -->
      <g style="fill: #262626" transform="translate(269.748352 537.54543)rotate(-45)scale(0.088 -0.088)">
       <defs>
        <path id="DejaVuSans-39" d="M 703 97 
L 703 672 
Q 941 559 1184 500 
Q 1428 441 1663 441 
Q 2288 441 2617 861 
Q 2947 1281 2994 2138 
Q 2813 1869 2534 1725 
Q 2256 1581 1919 1581 
Q 1219 1581 811 2004 
Q 403 2428 403 3163 
Q 403 3881 828 4315 
Q 1253 4750 1959 4750 
Q 2769 4750 3195 4129 
Q 3622 3509 3622 2328 
Q 3622 1225 3098 567 
Q 2575 -91 1691 -91 
Q 1453 -91 1209 -44 
Q 966 3 703 97 
z
M 1959 2075 
Q 2384 2075 2632 2365 
Q 2881 2656 2881 3163 
Q 2881 3666 2632 3958 
Q 2384 4250 1959 4250 
Q 1534 4250 1286 3958 
Q 1038 3666 1038 3163 
Q 1038 2656 1286 2365 
Q 1534 2075 1959 2075 
z
" transform="scale(0.015625)"/>
       </defs>
       <use xlink:href="#DejaVuSans-39"/>
       <use xlink:href="#DejaVuSans-36" x="63.623047"/>
       <use xlink:href="#DejaVuSans-30" x="127.246094"/>
      </g>
     </g>
    </g>
    <g id="xtick_14">
     <g id="line2d_14">
      <path d="M 290.996553 512.64 
L 290.996553 69.12 
" clip-path="url(#pc6cea8c57c)" style="fill: none; stroke: #cccccc; stroke-width: 0.8; stroke-linecap: round"/>
     </g>
     <g id="text_14">
      <!-- 1040 -->
      <g style="fill: #262626" transform="translate(284.795404 541.504521)rotate(-45)scale(0.088 -0.088)">
       <use xlink:href="#DejaVuSans-31"/>
       <use xlink:href="#DejaVuSans-30" x="63.623047"/>
       <use xlink:href="#DejaVuSans-34" x="127.246094"/>
       <use xlink:href="#DejaVuSans-30" x="190.869141"/>
      </g>
     </g>
    </g>
    <g id="xtick_15">
     <g id="line2d_15">
      <path d="M 308.02315 512.64 
L 308.02315 69.12 
" clip-path="url(#pc6cea8c57c)" style="fill: none; stroke: #cccccc; stroke-width: 0.8; stroke-linecap: round"/>
     </g>
     <g id="text_15">
      <!-- 1120 -->
      <g style="fill: #262626" transform="translate(301.822 541.504521)rotate(-45)scale(0.088 -0.088)">
       <use xlink:href="#DejaVuSans-31"/>
       <use xlink:href="#DejaVuSans-31" x="63.623047"/>
       <use xlink:href="#DejaVuSans-32" x="127.246094"/>
       <use xlink:href="#DejaVuSans-30" x="190.869141"/>
      </g>
     </g>
    </g>
    <g id="xtick_16">
     <g id="line2d_16">
      <path d="M 325.049747 512.64 
L 325.049747 69.12 
" clip-path="url(#pc6cea8c57c)" style="fill: none; stroke: #cccccc; stroke-width: 0.8; stroke-linecap: round"/>
     </g>
     <g id="text_16">
      <!-- 1200 -->
      <g style="fill: #262626" transform="translate(318.848597 541.504521)rotate(-45)scale(0.088 -0.088)">
       <use xlink:href="#DejaVuSans-31"/>
       <use xlink:href="#DejaVuSans-32" x="63.623047"/>
       <use xlink:href="#DejaVuSans-30" x="127.246094"/>
       <use xlink:href="#DejaVuSans-30" x="190.869141"/>
      </g>
     </g>
    </g>
    <g id="xtick_17">
     <g id="line2d_17">
      <path d="M 342.076343 512.64 
L 342.076343 69.12 
" clip-path="url(#pc6cea8c57c)" style="fill: none; stroke: #cccccc; stroke-width: 0.8; stroke-linecap: round"/>
     </g>
     <g id="text_17">
      <!-- 1280 -->
      <g style="fill: #262626" transform="translate(335.875194 541.504521)rotate(-45)scale(0.088 -0.088)">
       <use xlink:href="#DejaVuSans-31"/>
       <use xlink:href="#DejaVuSans-32" x="63.623047"/>
       <use xlink:href="#DejaVuSans-38" x="127.246094"/>
       <use xlink:href="#DejaVuSans-30" x="190.869141"/>
      </g>
     </g>
    </g>
    <g id="xtick_18">
     <g id="line2d_18">
      <path d="M 359.10294 512.64 
L 359.10294 69.12 
" clip-path="url(#pc6cea8c57c)" style="fill: none; stroke: #cccccc; stroke-width: 0.8; stroke-linecap: round"/>
     </g>
     <g id="text_18">
      <!-- 1360 -->
      <g style="fill: #262626" transform="translate(352.901791 541.504521)rotate(-45)scale(0.088 -0.088)">
       <use xlink:href="#DejaVuSans-31"/>
       <use xlink:href="#DejaVuSans-33" x="63.623047"/>
       <use xlink:href="#DejaVuSans-36" x="127.246094"/>
       <use xlink:href="#DejaVuSans-30" x="190.869141"/>
      </g>
     </g>
    </g>
    <g id="xtick_19">
     <g id="line2d_19">
      <path d="M 376.129537 512.64 
L 376.129537 69.12 
" clip-path="url(#pc6cea8c57c)" style="fill: none; stroke: #cccccc; stroke-width: 0.8; stroke-linecap: round"/>
     </g>
     <g id="text_19">
      <!-- 1440 -->
      <g style="fill: #262626" transform="translate(369.928387 541.504521)rotate(-45)scale(0.088 -0.088)">
       <use xlink:href="#DejaVuSans-31"/>
       <use xlink:href="#DejaVuSans-34" x="63.623047"/>
       <use xlink:href="#DejaVuSans-34" x="127.246094"/>
       <use xlink:href="#DejaVuSans-30" x="190.869141"/>
      </g>
     </g>
    </g>
    <g id="text_20">
     <!-- Time (Minutes) -->
     <g style="fill: #262626" transform="translate(186.87375 554.093115)scale(0.096 -0.096)">
      <defs>
       <path id="DejaVuSans-54" d="M -19 4666 
L 3928 4666 
L 3928 4134 
L 2272 4134 
L 2272 0 
L 1638 0 
L 1638 4134 
L -19 4134 
L -19 4666 
z
" transform="scale(0.015625)"/>
       <path id="DejaVuSans-69" d="M 603 3500 
L 1178 3500 
L 1178 0 
L 603 0 
L 603 3500 
z
M 603 4863 
L 1178 4863 
L 1178 4134 
L 603 4134 
L 603 4863 
z
" transform="scale(0.015625)"/>
       <path id="DejaVuSans-6d" d="M 3328 2828 
Q 3544 3216 3844 3400 
Q 4144 3584 4550 3584 
Q 5097 3584 5394 3201 
Q 5691 2819 5691 2113 
L 5691 0 
L 5113 0 
L 5113 2094 
Q 5113 2597 4934 2840 
Q 4756 3084 4391 3084 
Q 3944 3084 3684 2787 
Q 3425 2491 3425 1978 
L 3425 0 
L 2847 0 
L 2847 2094 
Q 2847 2600 2669 2842 
Q 2491 3084 2119 3084 
Q 1678 3084 1418 2786 
Q 1159 2488 1159 1978 
L 1159 0 
L 581 0 
L 581 3500 
L 1159 3500 
L 1159 2956 
Q 1356 3278 1631 3431 
Q 1906 3584 2284 3584 
Q 2666 3584 2933 3390 
Q 3200 3197 3328 2828 
z
" transform="scale(0.015625)"/>
       <path id="DejaVuSans-65" d="M 3597 1894 
L 3597 1613 
L 953 1613 
Q 991 1019 1311 708 
Q 1631 397 2203 397 
Q 2534 397 2845 478 
Q 3156 559 3463 722 
L 3463 178 
Q 3153 47 2828 -22 
Q 2503 -91 2169 -91 
Q 1331 -91 842 396 
Q 353 884 353 1716 
Q 353 2575 817 3079 
Q 1281 3584 2069 3584 
Q 2775 3584 3186 3129 
Q 3597 2675 3597 1894 
z
M 3022 2063 
Q 3016 2534 2758 2815 
Q 2500 3097 2075 3097 
Q 1594 3097 1305 2825 
Q 1016 2553 972 2059 
L 3022 2063 
z
" transform="scale(0.015625)"/>
       <path id="DejaVuSans-20" transform="scale(0.015625)"/>
       <path id="DejaVuSans-28" d="M 1984 4856 
Q 1566 4138 1362 3434 
Q 1159 2731 1159 2009 
Q 1159 1288 1364 580 
Q 1569 -128 1984 -844 
L 1484 -844 
Q 1016 -109 783 600 
Q 550 1309 550 2009 
Q 550 2706 781 3412 
Q 1013 4119 1484 4856 
L 1984 4856 
z
" transform="scale(0.015625)"/>
       <path id="DejaVuSans-4d" d="M 628 4666 
L 1569 4666 
L 2759 1491 
L 3956 4666 
L 4897 4666 
L 4897 0 
L 4281 0 
L 4281 4097 
L 3078 897 
L 2444 897 
L 1241 4097 
L 1241 0 
L 628 0 
L 628 4666 
z
" transform="scale(0.015625)"/>
       <path id="DejaVuSans-6e" d="M 3513 2113 
L 3513 0 
L 2938 0 
L 2938 2094 
Q 2938 2591 2744 2837 
Q 2550 3084 2163 3084 
Q 1697 3084 1428 2787 
Q 1159 2491 1159 1978 
L 1159 0 
L 581 0 
L 581 3500 
L 1159 3500 
L 1159 2956 
Q 1366 3272 1645 3428 
Q 1925 3584 2291 3584 
Q 2894 3584 3203 3211 
Q 3513 2838 3513 2113 
z
" transform="scale(0.015625)"/>
       <path id="DejaVuSans-75" d="M 544 1381 
L 544 3500 
L 1119 3500 
L 1119 1403 
Q 1119 906 1312 657 
Q 1506 409 1894 409 
Q 2359 409 2629 706 
Q 2900 1003 2900 1516 
L 2900 3500 
L 3475 3500 
L 3475 0 
L 2900 0 
L 2900 538 
Q 2691 219 2414 64 
Q 2138 -91 1772 -91 
Q 1169 -91 856 284 
Q 544 659 544 1381 
z
M 1991 3584 
L 1991 3584 
z
" transform="scale(0.015625)"/>
       <path id="DejaVuSans-74" d="M 1172 4494 
L 1172 3500 
L 2356 3500 
L 2356 3053 
L 1172 3053 
L 1172 1153 
Q 1172 725 1289 603 
Q 1406 481 1766 481 
L 2356 481 
L 2356 0 
L 1766 0 
Q 1100 0 847 248 
Q 594 497 594 1153 
L 594 3053 
L 172 3053 
L 172 3500 
L 594 3500 
L 594 4494 
L 1172 4494 
z
" transform="scale(0.015625)"/>
       <path id="DejaVuSans-73" d="M 2834 3397 
L 2834 2853 
Q 2591 2978 2328 3040 
Q 2066 3103 1784 3103 
Q 1356 3103 1142 2972 
Q 928 2841 928 2578 
Q 928 2378 1081 2264 
Q 1234 2150 1697 2047 
L 1894 2003 
Q 2506 1872 2764 1633 
Q 3022 1394 3022 966 
Q 3022 478 2636 193 
Q 2250 -91 1575 -91 
Q 1294 -91 989 -36 
Q 684 19 347 128 
L 347 722 
Q 666 556 975 473 
Q 1284 391 1588 391 
Q 1994 391 2212 530 
Q 2431 669 2431 922 
Q 2431 1156 2273 1281 
Q 2116 1406 1581 1522 
L 1381 1569 
Q 847 1681 609 1914 
Q 372 2147 372 2553 
Q 372 3047 722 3315 
Q 1072 3584 1716 3584 
Q 2034 3584 2315 3537 
Q 2597 3491 2834 3397 
z
" transform="scale(0.015625)"/>
       <path id="DejaVuSans-29" d="M 513 4856 
L 1013 4856 
Q 1481 4119 1714 3412 
Q 1947 2706 1947 2009 
Q 1947 1309 1714 600 
Q 1481 -109 1013 -844 
L 513 -844 
Q 928 -128 1133 580 
Q 1338 1288 1338 2009 
Q 1338 2731 1133 3434 
Q 928 4138 513 4856 
z
" transform="scale(0.015625)"/>
      </defs>
      <use xlink:href="#DejaVuSans-54"/>
      <use xlink:href="#DejaVuSans-69" x="57.958984"/>
      <use xlink:href="#DejaVuSans-6d" x="85.742188"/>
      <use xlink:href="#DejaVuSans-65" x="183.154297"/>
      <use xlink:href="#DejaVuSans-20" x="244.677734"/>
      <use xlink:href="#DejaVuSans-28" x="276.464844"/>
      <use xlink:href="#DejaVuSans-4d" x="315.478516"/>
      <use xlink:href="#DejaVuSans-69" x="401.757812"/>
      <use xlink:href="#DejaVuSans-6e" x="429.541016"/>
      <use xlink:href="#DejaVuSans-75" x="492.919922"/>
      <use xlink:href="#DejaVuSans-74" x="556.298828"/>
      <use xlink:href="#DejaVuSans-65" x="595.507812"/>
      <use xlink:href="#DejaVuSans-73" x="657.03125"/>
      <use xlink:href="#DejaVuSans-29" x="709.130859"/>
     </g>
    </g>
   </g>
   <g id="matplotlib.axis_2">
    <g id="ytick_1">
     <g id="line2d_20">
      <path d="M 54.3375 492.48 
L 391.23 492.48 
" clip-path="url(#pc6cea8c57c)" style="fill: none; stroke: #cccccc; stroke-width: 0.8; stroke-linecap: round"/>
     </g>
     <g id="text_21">
      <!-- 0 -->
      <g style="fill: #262626" transform="translate(40.4385 495.823312)scale(0.088 -0.088)">
       <use xlink:href="#DejaVuSans-30"/>
      </g>
     </g>
    </g>
    <g id="ytick_2">
     <g id="line2d_21">
      <path d="M 54.3375 429.48 
L 391.23 429.48 
" clip-path="url(#pc6cea8c57c)" style="fill: none; stroke: #cccccc; stroke-width: 0.8; stroke-linecap: round"/>
     </g>
     <g id="text_22">
      <!-- 100 -->
      <g style="fill: #262626" transform="translate(29.2405 432.823313)scale(0.088 -0.088)">
       <use xlink:href="#DejaVuSans-31"/>
       <use xlink:href="#DejaVuSans-30" x="63.623047"/>
       <use xlink:href="#DejaVuSans-30" x="127.246094"/>
      </g>
     </g>
    </g>
    <g id="ytick_3">
     <g id="line2d_22">
      <path d="M 54.3375 366.48 
L 391.23 366.48 
" clip-path="url(#pc6cea8c57c)" style="fill: none; stroke: #cccccc; stroke-width: 0.8; stroke-linecap: round"/>
     </g>
     <g id="text_23">
      <!-- 200 -->
      <g style="fill: #262626" transform="translate(29.2405 369.823313)scale(0.088 -0.088)">
       <use xlink:href="#DejaVuSans-32"/>
       <use xlink:href="#DejaVuSans-30" x="63.623047"/>
       <use xlink:href="#DejaVuSans-30" x="127.246094"/>
      </g>
     </g>
    </g>
    <g id="ytick_4">
     <g id="line2d_23">
      <path d="M 54.3375 303.48 
L 391.23 303.48 
" clip-path="url(#pc6cea8c57c)" style="fill: none; stroke: #cccccc; stroke-width: 0.8; stroke-linecap: round"/>
     </g>
     <g id="text_24">
      <!-- 300 -->
      <g style="fill: #262626" transform="translate(29.2405 306.823313)scale(0.088 -0.088)">
       <use xlink:href="#DejaVuSans-33"/>
       <use xlink:href="#DejaVuSans-30" x="63.623047"/>
       <use xlink:href="#DejaVuSans-30" x="127.246094"/>
      </g>
     </g>
    </g>
    <g id="ytick_5">
     <g id="line2d_24">
      <path d="M 54.3375 240.48 
L 391.23 240.48 
" clip-path="url(#pc6cea8c57c)" style="fill: none; stroke: #cccccc; stroke-width: 0.8; stroke-linecap: round"/>
     </g>
     <g id="text_25">
      <!-- 400 -->
      <g style="fill: #262626" transform="translate(29.2405 243.823313)scale(0.088 -0.088)">
       <use xlink:href="#DejaVuSans-34"/>
       <use xlink:href="#DejaVuSans-30" x="63.623047"/>
       <use xlink:href="#DejaVuSans-30" x="127.246094"/>
      </g>
     </g>
    </g>
    <g id="ytick_6">
     <g id="line2d_25">
      <path d="M 54.3375 177.48 
L 391.23 177.48 
" clip-path="url(#pc6cea8c57c)" style="fill: none; stroke: #cccccc; stroke-width: 0.8; stroke-linecap: round"/>
     </g>
     <g id="text_26">
      <!-- 500 -->
      <g style="fill: #262626" transform="translate(29.2405 180.823313)scale(0.088 -0.088)">
       <use xlink:href="#DejaVuSans-35"/>
       <use xlink:href="#DejaVuSans-30" x="63.623047"/>
       <use xlink:href="#DejaVuSans-30" x="127.246094"/>
      </g>
     </g>
    </g>
    <g id="ytick_7">
     <g id="line2d_26">
      <path d="M 54.3375 114.48 
L 391.23 114.48 
" clip-path="url(#pc6cea8c57c)" style="fill: none; stroke: #cccccc; stroke-width: 0.8; stroke-linecap: round"/>
     </g>
     <g id="text_27">
      <!-- 600 -->
      <g style="fill: #262626" transform="translate(29.2405 117.823313)scale(0.088 -0.088)">
       <use xlink:href="#DejaVuSans-36"/>
       <use xlink:href="#DejaVuSans-30" x="63.623047"/>
       <use xlink:href="#DejaVuSans-30" x="127.246094"/>
      </g>
     </g>
    </g>
    <g id="text_28">
     <!-- Edge Coverages -->
     <g style="fill: #262626" transform="translate(23.244 329.98575)rotate(-90)scale(0.096 -0.096)">
      <defs>
       <path id="DejaVuSans-45" d="M 628 4666 
L 3578 4666 
L 3578 4134 
L 1259 4134 
L 1259 2753 
L 3481 2753 
L 3481 2222 
L 1259 2222 
L 1259 531 
L 3634 531 
L 3634 0 
L 628 0 
L 628 4666 
z
" transform="scale(0.015625)"/>
       <path id="DejaVuSans-64" d="M 2906 2969 
L 2906 4863 
L 3481 4863 
L 3481 0 
L 2906 0 
L 2906 525 
Q 2725 213 2448 61 
Q 2172 -91 1784 -91 
Q 1150 -91 751 415 
Q 353 922 353 1747 
Q 353 2572 751 3078 
Q 1150 3584 1784 3584 
Q 2172 3584 2448 3432 
Q 2725 3281 2906 2969 
z
M 947 1747 
Q 947 1113 1208 752 
Q 1469 391 1925 391 
Q 2381 391 2643 752 
Q 2906 1113 2906 1747 
Q 2906 2381 2643 2742 
Q 2381 3103 1925 3103 
Q 1469 3103 1208 2742 
Q 947 2381 947 1747 
z
" transform="scale(0.015625)"/>
       <path id="DejaVuSans-67" d="M 2906 1791 
Q 2906 2416 2648 2759 
Q 2391 3103 1925 3103 
Q 1463 3103 1205 2759 
Q 947 2416 947 1791 
Q 947 1169 1205 825 
Q 1463 481 1925 481 
Q 2391 481 2648 825 
Q 2906 1169 2906 1791 
z
M 3481 434 
Q 3481 -459 3084 -895 
Q 2688 -1331 1869 -1331 
Q 1566 -1331 1297 -1286 
Q 1028 -1241 775 -1147 
L 775 -588 
Q 1028 -725 1275 -790 
Q 1522 -856 1778 -856 
Q 2344 -856 2625 -561 
Q 2906 -266 2906 331 
L 2906 616 
Q 2728 306 2450 153 
Q 2172 0 1784 0 
Q 1141 0 747 490 
Q 353 981 353 1791 
Q 353 2603 747 3093 
Q 1141 3584 1784 3584 
Q 2172 3584 2450 3431 
Q 2728 3278 2906 2969 
L 2906 3500 
L 3481 3500 
L 3481 434 
z
" transform="scale(0.015625)"/>
       <path id="DejaVuSans-43" d="M 4122 4306 
L 4122 3641 
Q 3803 3938 3442 4084 
Q 3081 4231 2675 4231 
Q 1875 4231 1450 3742 
Q 1025 3253 1025 2328 
Q 1025 1406 1450 917 
Q 1875 428 2675 428 
Q 3081 428 3442 575 
Q 3803 722 4122 1019 
L 4122 359 
Q 3791 134 3420 21 
Q 3050 -91 2638 -91 
Q 1578 -91 968 557 
Q 359 1206 359 2328 
Q 359 3453 968 4101 
Q 1578 4750 2638 4750 
Q 3056 4750 3426 4639 
Q 3797 4528 4122 4306 
z
" transform="scale(0.015625)"/>
       <path id="DejaVuSans-6f" d="M 1959 3097 
Q 1497 3097 1228 2736 
Q 959 2375 959 1747 
Q 959 1119 1226 758 
Q 1494 397 1959 397 
Q 2419 397 2687 759 
Q 2956 1122 2956 1747 
Q 2956 2369 2687 2733 
Q 2419 3097 1959 3097 
z
M 1959 3584 
Q 2709 3584 3137 3096 
Q 3566 2609 3566 1747 
Q 3566 888 3137 398 
Q 2709 -91 1959 -91 
Q 1206 -91 779 398 
Q 353 888 353 1747 
Q 353 2609 779 3096 
Q 1206 3584 1959 3584 
z
" transform="scale(0.015625)"/>
       <path id="DejaVuSans-76" d="M 191 3500 
L 800 3500 
L 1894 563 
L 2988 3500 
L 3597 3500 
L 2284 0 
L 1503 0 
L 191 3500 
z
" transform="scale(0.015625)"/>
       <path id="DejaVuSans-72" d="M 2631 2963 
Q 2534 3019 2420 3045 
Q 2306 3072 2169 3072 
Q 1681 3072 1420 2755 
Q 1159 2438 1159 1844 
L 1159 0 
L 581 0 
L 581 3500 
L 1159 3500 
L 1159 2956 
Q 1341 3275 1631 3429 
Q 1922 3584 2338 3584 
Q 2397 3584 2469 3576 
Q 2541 3569 2628 3553 
L 2631 2963 
z
" transform="scale(0.015625)"/>
       <path id="DejaVuSans-61" d="M 2194 1759 
Q 1497 1759 1228 1600 
Q 959 1441 959 1056 
Q 959 750 1161 570 
Q 1363 391 1709 391 
Q 2188 391 2477 730 
Q 2766 1069 2766 1631 
L 2766 1759 
L 2194 1759 
z
M 3341 1997 
L 3341 0 
L 2766 0 
L 2766 531 
Q 2569 213 2275 61 
Q 1981 -91 1556 -91 
Q 1019 -91 701 211 
Q 384 513 384 1019 
Q 384 1609 779 1909 
Q 1175 2209 1959 2209 
L 2766 2209 
L 2766 2266 
Q 2766 2663 2505 2880 
Q 2244 3097 1772 3097 
Q 1472 3097 1187 3025 
Q 903 2953 641 2809 
L 641 3341 
Q 956 3463 1253 3523 
Q 1550 3584 1831 3584 
Q 2591 3584 2966 3190 
Q 3341 2797 3341 1997 
z
" transform="scale(0.015625)"/>
      </defs>
      <use xlink:href="#DejaVuSans-45"/>
      <use xlink:href="#DejaVuSans-64" x="63.183594"/>
      <use xlink:href="#DejaVuSans-67" x="126.660156"/>
      <use xlink:href="#DejaVuSans-65" x="190.136719"/>
      <use xlink:href="#DejaVuSans-20" x="251.660156"/>
      <use xlink:href="#DejaVuSans-43" x="283.447266"/>
      <use xlink:href="#DejaVuSans-6f" x="353.271484"/>
      <use xlink:href="#DejaVuSans-76" x="414.453125"/>
      <use xlink:href="#DejaVuSans-65" x="473.632812"/>
      <use xlink:href="#DejaVuSans-72" x="535.15625"/>
      <use xlink:href="#DejaVuSans-61" x="576.269531"/>
      <use xlink:href="#DejaVuSans-67" x="637.548828"/>
      <use xlink:href="#DejaVuSans-65" x="701.025391"/>
      <use xlink:href="#DejaVuSans-73" x="762.548828"/>
     </g>
    </g>
   </g>
   <g id="PolyCollection_1">
    <defs>
     <path id="mdd00156f93" d="M 69.650795 -113.13 
L 69.650795 -83.52 
L 69.650795 -113.13 
L 69.650795 -113.13 
z
" style="stroke: #db5f57; stroke-opacity: 0.2; stroke-width: 0.8"/>
    </defs>
    <g clip-path="url(#pc6cea8c57c)">
     <use xlink:href="#mdd00156f93" x="0" y="576" style="fill: #db5f57; fill-opacity: 0.2; stroke: #db5f57; stroke-opacity: 0.2; stroke-width: 0.8"/>
    </g>
   </g>
   <g id="PolyCollection_2">
    <defs>
     <path id="mcfafca8bd9" d="M 69.650795 -135.81 
L 69.650795 -83.52 
L 69.650795 -135.81 
L 69.650795 -135.81 
z
" style="stroke: #b9db57; stroke-opacity: 0.2; stroke-width: 0.8"/>
    </defs>
    <g clip-path="url(#pc6cea8c57c)">
     <use xlink:href="#mcfafca8bd9" x="0" y="576" style="fill: #b9db57; fill-opacity: 0.2; stroke: #b9db57; stroke-opacity: 0.2; stroke-width: 0.8"/>
    </g>
   </g>
   <g id="PolyCollection_3">
    <defs>
     <path id="maeeb51511d" d="M 69.650795 -108.09 
L 69.650795 -83.52 
L 69.650795 -108.09 
L 69.650795 -108.09 
z
" style="stroke: #57db94; stroke-opacity: 0.2; stroke-width: 0.8"/>
    </defs>
    <g clip-path="url(#pc6cea8c57c)">
     <use xlink:href="#maeeb51511d" x="0" y="576" style="fill: #57db94; fill-opacity: 0.2; stroke: #57db94; stroke-opacity: 0.2; stroke-width: 0.8"/>
    </g>
   </g>
   <g id="PolyCollection_4">
    <defs>
     <path id="mb1dd65a362" d="M 69.650795 -108.09 
L 69.650795 -83.52 
L 69.650795 -108.09 
L 69.650795 -108.09 
z
" style="stroke: #5784db; stroke-opacity: 0.2; stroke-width: 0.8"/>
    </defs>
    <g clip-path="url(#pc6cea8c57c)">
     <use xlink:href="#mb1dd65a362" x="0" y="576" style="fill: #5784db; fill-opacity: 0.2; stroke: #5784db; stroke-opacity: 0.2; stroke-width: 0.8"/>
    </g>
   </g>
   <g id="PolyCollection_5">
    <defs>
     <path id="mf756132fd0" d="M 69.650795 -148.41 
L 69.650795 -83.52 
L 69.650795 -148.41 
L 69.650795 -148.41 
z
" style="stroke: #c957db; stroke-opacity: 0.2; stroke-width: 0.8"/>
    </defs>
    <g clip-path="url(#pc6cea8c57c)">
     <use xlink:href="#mf756132fd0" x="0" y="576" style="fill: #c957db; fill-opacity: 0.2; stroke: #c957db; stroke-opacity: 0.2; stroke-width: 0.8"/>
    </g>
   </g>
   <g id="line2d_27">
    <path d="M 69.650795 477.675 
L 69.863628 457.2 
L 70.07646 452.79 
L 70.714958 449.64 
L 71.566288 449.64 
L 71.77912 445.23 
L 72.204785 442.08 
L 72.417617 440.82 
L 72.63045 440.82 
L 72.843282 439.56 
L 73.056115 437.04 
L 73.268947 436.41 
L 74.120277 426.96 
L 74.33311 425.7 
L 74.545942 425.7 
L 74.758774 425.07 
L 74.971607 423.81 
L 75.184439 423.81 
L 75.397272 420.03 
L 75.610104 420.03 
L 75.822937 418.77 
L 76.248602 418.77 
L 76.461434 414.99 
L 77.525596 414.99 
L 77.738429 414.36 
L 83.91057 414.36 
L 84.123403 413.1 
L 84.336235 413.1 
L 84.549068 412.47 
L 85.187565 412.47 
L 85.61323 410.58 
L 85.826062 410.58 
L 86.038895 409.95 
L 86.251727 409.95 
L 86.46456 403.02 
L 86.677392 243.63 
L 86.890225 243.63 
L 87.103057 241.11 
L 88.805717 241.11 
L 89.018549 235.44 
L 89.231382 234.81 
L 91.359706 234.81 
L 91.572539 233.55 
L 100.29867 233.55 
L 100.511502 220.32 
L 101.575664 220.32 
L 101.788497 217.8 
L 102.001329 217.8 
L 102.214162 217.17 
L 107.109308 217.17 
L 107.322141 213.39 
L 109.663298 213.39 
L 109.87613 211.5 
L 110.088963 205.83 
L 110.301795 205.83 
L 110.514628 203.31 
L 112.43012 203.31 
L 112.642952 197.64 
L 115.409774 197.64 
L 115.622607 197.01 
L 123.71024 197.01 
L 123.923073 196.38 
L 124.135905 196.38 
L 124.348738 181.89 
L 124.56157 178.11 
L 124.987235 175.59 
L 125.200067 175.59 
L 125.4129 172.44 
L 125.625732 171.18 
L 125.838565 171.18 
L 126.051397 170.55 
L 128.392554 170.55 
L 128.605387 169.92 
L 129.882381 169.92 
L 130.095214 154.17 
L 132.436371 154.17 
L 132.649203 147.87 
L 134.777528 147.87 
L 134.99036 144.72 
L 135.628858 144.72 
L 135.84169 144.09 
L 140.524004 144.09 
L 140.736837 138.42 
L 140.949669 138.42 
L 141.162502 135.9 
L 143.290826 135.9 
L 143.503659 132.75 
L 143.716491 131.49 
L 146.270481 131.49 
L 146.483313 130.23 
L 155.635109 130.23 
L 155.847942 125.19 
L 156.060774 125.19 
L 156.273606 124.56 
L 158.614763 124.56 
L 158.827596 123.3 
L 177.131187 123.3 
L 177.34402 115.11 
L 180.536507 115.11 
L 180.749339 114.48 
L 181.600669 114.48 
L 181.813502 113.22 
L 184.154659 113.22 
L 184.367491 112.59 
L 204.16091 112.59 
L 204.373742 110.7 
L 237.362773 110.7 
L 237.575606 109.44 
L 247.791564 109.44 
L 248.004396 108.18 
L 260.561512 108.18 
L 260.774344 107.55 
L 299.297019 107.55 
L 299.722684 105.66 
L 303.979333 105.66 
L 304.192166 105.03 
L 305.681993 105.03 
L 305.894825 104.4 
L 312.279799 104.4 
L 312.492632 103.14 
L 343.991836 103.14 
L 344.204668 101.25 
L 345.26883 101.25 
L 345.481663 100.62 
L 345.694495 98.73 
L 346.332993 98.73 
L 346.758658 97.47 
L 348.248485 97.47 
L 348.461317 96.84 
L 350.589642 96.84 
L 350.802474 93.06 
L 367.616239 93.06 
L 367.829071 91.17 
L 372.298553 91.17 
L 372.511385 90.54 
L 375.916705 90.54 
L 375.916705 90.54 
" clip-path="url(#pc6cea8c57c)" style="fill: none; stroke: #db5f57; stroke-width: 1.2; stroke-linecap: round"/>
   </g>
   <g id="line2d_28">
    <path d="M 69.650795 466.335 
L 69.863628 416.25 
L 70.714958 386.01 
L 70.92779 383.49 
L 71.140623 382.86 
L 71.353455 380.97 
L 71.566288 380.97 
L 71.77912 373.41 
L 71.991953 372.78 
L 72.204785 369.63 
L 72.417617 368.37 
L 72.63045 368.37 
L 72.843282 360.81 
L 73.056115 360.18 
L 73.268947 358.92 
L 73.48178 358.92 
L 73.694612 358.29 
L 74.120277 356.4 
L 74.33311 355.77 
L 74.545942 353.88 
L 74.758774 353.88 
L 74.971607 353.25 
L 78.802591 353.25 
L 79.228256 351.99 
L 79.441089 350.73 
L 79.866754 344.43 
L 80.079586 343.17 
L 80.292418 339.39 
L 80.718083 338.13 
L 80.930916 338.13 
L 81.143748 337.5 
L 81.356581 261.27 
L 83.05924 261.27 
L 83.272073 259.38 
L 83.91057 259.38 
L 84.336235 258.12 
L 84.7619 258.12 
L 84.974733 257.49 
L 86.251727 257.49 
L 86.46456 256.86 
L 100.511502 256.86 
L 100.724335 256.23 
L 103.491157 256.23 
L 103.703989 220.32 
L 113.068617 220.32 
L 113.28145 199.53 
L 123.497408 199.53 
L 123.71024 186.93 
L 136.480188 186.93 
L 136.69302 150.39 
L 150.739962 150.39 
L 150.952795 134.01 
L 160.530256 134.01 
L 160.743088 128.34 
L 172.874538 128.34 
L 173.087371 122.04 
L 185.857318 122.04 
L 186.070151 119.52 
L 198.840098 119.52 
L 199.052931 118.26 
L 211.610046 118.26 
L 211.822878 117.63 
L 232.893292 117.63 
L 233.106124 116.37 
L 245.450407 116.37 
L 245.663239 115.74 
L 256.730527 115.74 
L 256.94336 115.11 
L 269.500475 115.11 
L 269.713307 114.48 
L 293.33771 114.48 
L 293.550543 113.85 
L 306.533323 113.85 
L 306.746155 111.33 
L 346.332993 111.33 
L 346.545825 105.66 
L 359.315773 105.66 
L 359.528605 99.99 
L 371.872888 99.99 
L 372.08572 99.36 
L 374.852542 99.36 
L 375.065375 98.73 
L 375.916705 98.73 
L 375.916705 98.73 
" clip-path="url(#pc6cea8c57c)" style="fill: none; stroke: #b9db57; stroke-width: 1.2; stroke-linecap: round"/>
   </g>
   <g id="line2d_29">
    <path d="M 69.650795 480.195 
L 69.863628 465.39 
L 70.07646 460.98 
L 70.289293 447.12 
L 70.502125 441.45 
L 70.92779 424.44 
L 71.140623 421.92 
L 71.353455 416.88 
L 71.77912 403.02 
L 71.991953 399.24 
L 72.204785 389.16 
L 72.417617 385.38 
L 72.63045 321.75 
L 72.843282 318.6 
L 73.268947 307.26 
L 73.48178 306.63 
L 73.907445 306.63 
L 74.120277 305.37 
L 74.545942 305.37 
L 74.758774 292.14 
L 75.397272 292.14 
L 75.610104 290.88 
L 75.822937 290.88 
L 76.248602 288.99 
L 77.099932 288.99 
L 77.525596 285.84 
L 77.738429 285.84 
L 77.951261 285.21 
L 78.164094 285.21 
L 78.376926 283.95 
L 79.015424 283.95 
L 79.653921 280.8 
L 80.079586 279.54 
L 80.292418 279.54 
L 80.505251 275.13 
L 81.143748 275.13 
L 81.356581 274.5 
L 81.782246 274.5 
L 81.995078 273.87 
L 82.846408 273.87 
L 83.05924 273.24 
L 83.91057 273.24 
L 84.336235 271.98 
L 84.549068 270.09 
L 84.7619 270.09 
L 84.974733 268.2 
L 85.187565 267.57 
L 85.400397 267.57 
L 85.61323 266.94 
L 85.826062 264.42 
L 86.038895 263.79 
L 86.251727 263.79 
L 86.46456 262.53 
L 86.890225 262.53 
L 87.31589 260.64 
L 87.741555 260.64 
L 87.954387 258.12 
L 88.592884 258.12 
L 88.805717 254.34 
L 89.231382 254.34 
L 89.444214 253.71 
L 89.869879 253.71 
L 90.082712 253.08 
L 90.295544 251.19 
L 91.146874 251.19 
L 91.359706 249.3 
L 91.572539 249.3 
L 91.785371 248.04 
L 91.998204 248.04 
L 92.211036 246.15 
L 93.062366 246.15 
L 93.275198 245.52 
L 97.531848 245.52 
L 97.74468 244.89 
L 97.957513 244.89 
L 98.170345 239.85 
L 99.660172 239.85 
L 99.873005 239.22 
L 100.511502 239.22 
L 100.937167 237.96 
L 101.788497 237.96 
L 102.001329 236.07 
L 102.214162 235.44 
L 102.852659 235.44 
L 103.065492 234.81 
L 103.703989 234.81 
L 103.916821 234.18 
L 104.129654 234.18 
L 104.555319 232.29 
L 106.257978 232.29 
L 106.470811 231.66 
L 108.173471 231.66 
L 108.386303 230.4 
L 110.301795 230.4 
L 110.72746 221.58 
L 111.365957 221.58 
L 111.791622 220.32 
L 112.642952 220.32 
L 112.855785 216.54 
L 113.068617 216.54 
L 113.28145 215.91 
L 113.919947 215.91 
L 114.132779 214.65 
L 116.686769 214.65 
L 116.899601 214.02 
L 118.815094 214.02 
L 119.027926 213.39 
L 120.092088 213.39 
L 120.304921 212.76 
L 120.517753 210.87 
L 120.730586 210.24 
L 120.943418 210.24 
L 121.156251 205.83 
L 122.85891 205.83 
L 123.071743 205.2 
L 125.838565 205.2 
L 126.051397 204.57 
L 127.328392 204.57 
L 127.541224 188.19 
L 127.966889 188.19 
L 128.392554 186.3 
L 129.031052 184.41 
L 129.456717 184.41 
L 129.669549 181.26 
L 129.882381 180.63 
L 130.520879 177.48 
L 130.733711 176.85 
L 130.946544 175.59 
L 131.159376 175.59 
L 131.372209 173.7 
L 131.585041 173.7 
L 131.797874 173.07 
L 133.074868 173.07 
L 133.287701 172.44 
L 137.118685 172.44 
L 137.331518 171.81 
L 138.182847 171.81 
L 138.39568 166.77 
L 138.608512 166.14 
L 139.672675 166.14 
L 139.885507 165.51 
L 140.09834 165.51 
L 140.311172 164.88 
L 141.162502 164.88 
L 141.375334 164.25 
L 142.013832 164.25 
L 142.226664 163.62 
L 142.439497 160.47 
L 142.865161 160.47 
L 143.929324 157.32 
L 145.206319 157.32 
L 145.844816 155.43 
L 146.696146 155.43 
L 146.908978 153.54 
L 147.547476 153.54 
L 147.760308 152.91 
L 149.250135 152.91 
L 149.462968 152.28 
L 152.22979 152.28 
L 152.442622 151.65 
L 154.358114 151.65 
L 154.570947 151.02 
L 154.996612 151.02 
L 155.209444 150.39 
L 155.422277 150.39 
L 155.635109 149.76 
L 157.124936 149.76 
L 157.337769 149.13 
L 162.232915 149.13 
L 162.445748 148.5 
L 162.65858 144.09 
L 162.871413 144.09 
L 163.084245 142.83 
L 175.428528 142.83 
L 175.64136 140.94 
L 177.769685 140.94 
L 177.982517 140.31 
L 181.600669 140.31 
L 181.813502 139.68 
L 182.451999 139.68 
L 182.664831 139.05 
L 186.708648 139.05 
L 186.921481 138.42 
L 195.860444 138.42 
L 196.073276 137.16 
L 200.542758 137.16 
L 200.75559 136.53 
L 202.671083 136.53 
L 202.883915 135.9 
L 223.741496 135.9 
L 223.954329 135.27 
L 226.295486 135.27 
L 226.508318 134.64 
L 232.680459 134.64 
L 232.893292 134.01 
L 240.55526 134.01 
L 240.768093 133.38 
L 245.237574 133.38 
L 245.663239 132.12 
L 247.578732 132.12 
L 247.791564 131.49 
L 260.987176 131.49 
L 261.200009 130.86 
L 290.570888 130.86 
L 290.783721 130.23 
L 300.361181 130.23 
L 300.574014 128.97 
L 302.276674 128.97 
L 302.489506 128.34 
L 304.617831 128.34 
L 304.830663 127.71 
L 335.052872 127.71 
L 335.265705 127.08 
L 339.096689 127.08 
L 339.309522 126.45 
L 344.843165 126.45 
L 345.26883 125.19 
L 346.545825 125.19 
L 346.758658 124.56 
L 349.312647 124.56 
L 349.52548 123.93 
L 354.846291 123.93 
L 355.059124 123.3 
L 367.616239 123.3 
L 367.829071 122.67 
L 375.065375 122.67 
L 375.49104 121.41 
L 375.916705 121.41 
L 375.916705 121.41 
" clip-path="url(#pc6cea8c57c)" style="fill: none; stroke: #57db94; stroke-width: 1.2; stroke-linecap: round"/>
   </g>
   <g id="line2d_30">
    <path d="M 69.650795 480.195 
L 70.07646 442.71 
L 70.502125 421.29 
L 70.714958 413.1 
L 70.92779 349.47 
L 71.140623 343.17 
L 72.204785 329.94 
L 72.63045 319.86 
L 72.843282 317.34 
L 73.48178 294.66 
L 73.694612 294.03 
L 73.907445 292.77 
L 74.120277 292.77 
L 74.758774 289.62 
L 75.397272 289.62 
L 75.610104 288.99 
L 76.035769 288.99 
L 76.248602 287.1 
L 76.674267 287.1 
L 76.887099 286.47 
L 77.312764 286.47 
L 77.525596 284.58 
L 77.738429 284.58 
L 77.951261 283.95 
L 78.164094 283.95 
L 78.589759 282.69 
L 79.015424 282.69 
L 79.441089 281.43 
L 79.653921 280.17 
L 79.866754 277.02 
L 80.079586 276.39 
L 80.292418 273.87 
L 81.143748 273.87 
L 81.356581 273.24 
L 81.569413 273.24 
L 81.782246 272.61 
L 81.995078 272.61 
L 82.207911 271.98 
L 84.123403 271.98 
L 84.549068 268.2 
L 84.7619 266.94 
L 84.974733 266.94 
L 85.187565 264.42 
L 85.400397 263.79 
L 85.61323 263.79 
L 85.826062 263.16 
L 86.038895 261.9 
L 86.46456 261.9 
L 86.677392 260.01 
L 86.890225 260.01 
L 87.103057 258.75 
L 87.31589 258.75 
L 87.528722 258.12 
L 87.741555 258.12 
L 87.954387 257.49 
L 88.167219 254.34 
L 88.380052 253.71 
L 88.592884 253.71 
L 88.805717 253.08 
L 89.018549 253.08 
L 89.231382 251.82 
L 89.444214 251.82 
L 89.657047 251.19 
L 89.869879 251.19 
L 90.082712 250.56 
L 90.295544 250.56 
L 90.721209 248.67 
L 91.359706 248.67 
L 91.572539 246.78 
L 91.785371 246.15 
L 92.211036 244.26 
L 92.636701 244.26 
L 92.849534 243.63 
L 93.062366 243.63 
L 93.275198 240.48 
L 95.403523 240.48 
L 95.616356 239.85 
L 97.106183 239.85 
L 97.319015 239.22 
L 97.531848 239.22 
L 97.74468 238.59 
L 98.170345 238.59 
L 98.383177 237.96 
L 100.511502 237.96 
L 100.724335 237.33 
L 100.937167 237.33 
L 101.362832 235.44 
L 102.001329 235.44 
L 102.214162 234.81 
L 103.703989 234.81 
L 104.129654 232.92 
L 104.980984 232.92 
L 105.193816 232.29 
L 106.683643 232.29 
L 106.896476 231.66 
L 107.109308 231.66 
L 107.322141 231.03 
L 108.173471 231.03 
L 108.386303 229.77 
L 109.237633 229.77 
L 109.663298 228.51 
L 112.217287 228.51 
L 112.43012 227.88 
L 112.642952 227.88 
L 112.855785 216.54 
L 113.068617 215.91 
L 113.707115 215.91 
L 113.919947 215.28 
L 114.132779 215.28 
L 114.345612 214.02 
L 114.558444 214.02 
L 114.984109 212.76 
L 115.622607 212.76 
L 115.835439 212.13 
L 117.112434 212.13 
L 117.538099 210.24 
L 117.963764 210.24 
L 118.176596 208.35 
L 119.453591 208.35 
L 119.666423 207.72 
L 120.730586 207.72 
L 120.943418 205.2 
L 121.156251 205.2 
L 121.581916 203.31 
L 122.433245 203.31 
L 122.85891 202.05 
L 123.284575 202.05 
L 123.497408 200.16 
L 123.923073 200.16 
L 124.135905 198.9 
L 124.348738 198.9 
L 124.56157 196.38 
L 124.774402 196.38 
L 125.200067 193.86 
L 125.4129 190.71 
L 126.051397 188.82 
L 126.26423 188.82 
L 126.902727 185.67 
L 127.328392 185.67 
L 127.541224 185.04 
L 127.754057 185.04 
L 127.966889 183.78 
L 128.605387 183.78 
L 128.818219 181.26 
L 129.243884 181.26 
L 129.669549 177.48 
L 130.733711 174.33 
L 130.946544 174.33 
L 131.159376 170.55 
L 131.372209 169.92 
L 133.713366 169.92 
L 134.139031 168.66 
L 134.351863 167.4 
L 135.628858 167.4 
L 135.84169 166.77 
L 136.054523 166.77 
L 136.267355 166.14 
L 136.69302 166.14 
L 136.905853 164.88 
L 137.331518 164.88 
L 137.54435 164.25 
L 138.182847 164.25 
L 138.39568 163.62 
L 138.821345 163.62 
L 139.034177 162.99 
L 139.672675 162.99 
L 139.885507 162.36 
L 140.09834 162.36 
L 140.311172 161.73 
L 140.736837 161.73 
L 140.949669 161.1 
L 141.162502 159.21 
L 141.375334 158.58 
L 142.439497 158.58 
L 142.652329 157.95 
L 142.865161 156.69 
L 143.077994 156.69 
L 143.503659 155.43 
L 143.929324 155.43 
L 144.354989 154.17 
L 145.206319 154.17 
L 145.419151 153.54 
L 145.844816 153.54 
L 146.057648 152.91 
L 146.696146 152.91 
L 146.908978 151.65 
L 147.547476 151.65 
L 147.760308 151.02 
L 149.888633 151.02 
L 150.101465 150.39 
L 154.358114 150.39 
L 154.570947 149.76 
L 155.422277 149.76 
L 155.635109 149.13 
L 157.124936 149.13 
L 157.337769 148.5 
L 158.401931 148.5 
L 158.614763 147.24 
L 158.827596 147.24 
L 159.040428 146.61 
L 160.104591 146.61 
L 160.317423 145.98 
L 160.530256 145.98 
L 160.743088 145.35 
L 160.955921 143.46 
L 162.232915 143.46 
L 162.445748 142.83 
L 163.084245 142.83 
L 163.297078 141.57 
L 164.36124 141.57 
L 164.574072 140.94 
L 171.810376 140.94 
L 172.023208 140.31 
L 172.236041 139.05 
L 177.982517 139.05 
L 178.19535 138.42 
L 180.536507 138.42 
L 180.749339 137.79 
L 182.239166 137.79 
L 182.451999 137.16 
L 190.965297 137.16 
L 191.17813 136.53 
L 196.286109 136.53 
L 196.498941 135.9 
L 200.968423 135.9 
L 201.181255 135.27 
L 222.677334 135.27 
L 222.890166 134.64 
L 226.295486 134.64 
L 226.508318 134.01 
L 238.852601 134.01 
L 239.065433 133.38 
L 245.663239 133.38 
L 245.876072 132.75 
L 259.284517 132.75 
L 259.497349 132.12 
L 288.016899 132.12 
L 288.229731 131.49 
L 299.722684 131.49 
L 299.935517 130.23 
L 301.638176 130.23 
L 301.851009 129.6 
L 303.979333 129.6 
L 304.192166 128.97 
L 335.478537 128.97 
L 335.69137 128.34 
L 344.204668 128.34 
L 344.417501 127.71 
L 345.481663 127.71 
L 345.694495 126.45 
L 345.907328 126.45 
L 346.12016 125.82 
L 347.184323 125.82 
L 347.397155 125.19 
L 348.248485 125.19 
L 348.461317 124.56 
L 348.67415 124.56 
L 348.886982 123.93 
L 354.420626 123.93 
L 354.633459 123.3 
L 365.913579 123.3 
L 366.126411 122.67 
L 372.511385 122.67 
L 372.724218 122.04 
L 375.916705 122.04 
L 375.916705 122.04 
" clip-path="url(#pc6cea8c57c)" style="fill: none; stroke: #5784db; stroke-width: 1.2; stroke-linecap: round"/>
   </g>
   <g id="line2d_31">
    <path d="M 69.650795 460.035 
L 69.863628 398.61 
L 70.714958 343.17 
L 71.991953 321.75 
L 72.204785 313.56 
L 72.417617 311.04 
L 72.63045 310.41 
L 73.268947 285.21 
L 74.120277 280.8 
L 74.33311 280.17 
L 74.545942 277.65 
L 75.397272 277.65 
L 75.610104 277.02 
L 75.822937 277.02 
L 76.035769 276.39 
L 76.248602 275.13 
L 76.674267 275.13 
L 76.887099 274.5 
L 77.099932 274.5 
L 77.312764 272.61 
L 77.738429 272.61 
L 77.951261 271.98 
L 78.164094 271.98 
L 78.376926 270.72 
L 79.015424 270.72 
L 79.653921 266.94 
L 80.079586 263.16 
L 80.292418 261.27 
L 81.143748 261.27 
L 81.356581 260.64 
L 81.569413 260.64 
L 81.995078 259.38 
L 83.91057 259.38 
L 84.549068 254.34 
L 84.7619 254.34 
L 84.974733 251.82 
L 85.61323 249.93 
L 85.826062 249.93 
L 86.038895 248.67 
L 86.251727 248.67 
L 86.46456 246.78 
L 86.890225 246.78 
L 87.103057 244.26 
L 87.31589 243.63 
L 87.741555 243.63 
L 87.954387 243 
L 88.167219 239.85 
L 88.380052 239.22 
L 88.592884 239.22 
L 88.805717 238.59 
L 89.018549 238.59 
L 89.444214 236.7 
L 89.869879 236.7 
L 90.082712 236.07 
L 90.295544 236.07 
L 90.721209 234.18 
L 91.359706 234.18 
L 91.785371 230.4 
L 91.998204 230.4 
L 92.211036 229.77 
L 92.636701 229.77 
L 92.849534 229.14 
L 93.062366 229.14 
L 93.275198 225.99 
L 95.403523 225.99 
L 95.616356 225.36 
L 97.106183 225.36 
L 97.319015 224.73 
L 97.531848 224.73 
L 97.74468 224.1 
L 97.957513 224.1 
L 98.383177 222.84 
L 100.29867 222.84 
L 100.724335 221.58 
L 100.937167 221.58 
L 101.362832 219.69 
L 102.001329 219.69 
L 102.214162 219.06 
L 103.703989 219.06 
L 103.916821 217.17 
L 104.342486 217.17 
L 104.555319 216.54 
L 106.257978 216.54 
L 106.470811 215.91 
L 106.683643 215.91 
L 106.896476 215.28 
L 108.173471 215.28 
L 108.386303 212.76 
L 109.663298 212.76 
L 109.87613 211.5 
L 110.088963 205.83 
L 110.301795 205.83 
L 110.514628 203.31 
L 111.365957 203.31 
L 111.791622 202.05 
L 112.217287 202.05 
L 112.43012 201.42 
L 112.642952 195.75 
L 112.855785 195.75 
L 113.28145 194.49 
L 113.707115 194.49 
L 113.919947 193.86 
L 114.132779 193.86 
L 114.345612 193.23 
L 114.558444 193.23 
L 114.984109 191.97 
L 115.409774 191.97 
L 115.622607 191.34 
L 116.686769 191.34 
L 116.899601 190.71 
L 117.112434 190.71 
L 117.538099 189.45 
L 117.963764 189.45 
L 118.176596 187.56 
L 118.815094 187.56 
L 119.027926 186.93 
L 120.092088 186.93 
L 120.943418 184.41 
L 121.156251 184.41 
L 121.581916 183.15 
L 122.646078 183.15 
L 123.071743 181.89 
L 123.284575 181.89 
L 123.497408 181.26 
L 123.71024 181.26 
L 123.923073 180.63 
L 124.135905 179.37 
L 124.348738 179.37 
L 124.56157 176.85 
L 124.774402 176.22 
L 125.625732 168.66 
L 125.838565 168.03 
L 126.051397 166.14 
L 126.477062 166.14 
L 126.902727 164.88 
L 127.328392 164.88 
L 127.541224 163.62 
L 127.754057 163.62 
L 129.031052 159.84 
L 129.243884 159.84 
L 129.669549 156.69 
L 130.308046 153.54 
L 130.520879 152.91 
L 131.372209 148.5 
L 133.713366 148.5 
L 134.139031 147.24 
L 134.351863 145.98 
L 134.777528 145.98 
L 134.99036 145.35 
L 135.628858 145.35 
L 135.84169 144.72 
L 136.054523 144.72 
L 136.267355 144.09 
L 136.69302 144.09 
L 136.905853 142.83 
L 137.118685 142.83 
L 137.54435 141.57 
L 138.39568 141.57 
L 138.608512 140.94 
L 139.672675 140.94 
L 139.885507 140.31 
L 140.09834 140.31 
L 140.311172 139.68 
L 140.524004 139.68 
L 140.949669 138.42 
L 141.162502 136.53 
L 142.013832 136.53 
L 142.226664 135.9 
L 142.652329 135.9 
L 143.077994 134.01 
L 143.290826 133.38 
L 143.503659 133.38 
L 143.716491 132.12 
L 143.929324 132.12 
L 144.142156 131.49 
L 145.206319 131.49 
L 145.419151 130.86 
L 145.631983 130.86 
L 145.844816 130.23 
L 146.270481 130.23 
L 146.483313 128.97 
L 147.547476 128.97 
L 147.760308 128.34 
L 149.250135 128.34 
L 149.462968 127.71 
L 154.358114 127.71 
L 154.570947 127.08 
L 154.996612 127.08 
L 155.209444 126.45 
L 155.422277 126.45 
L 155.635109 125.82 
L 156.060774 125.82 
L 156.273606 125.19 
L 157.124936 125.19 
L 157.337769 124.56 
L 158.401931 124.56 
L 158.614763 123.3 
L 158.827596 123.3 
L 159.040428 122.67 
L 160.104591 122.67 
L 160.317423 122.04 
L 160.530256 122.04 
L 160.955921 119.52 
L 162.232915 119.52 
L 162.445748 118.89 
L 162.871413 118.89 
L 163.084245 117.63 
L 164.36124 117.63 
L 164.574072 117 
L 171.810376 117 
L 172.023208 116.37 
L 172.236041 115.11 
L 177.769685 115.11 
L 177.982517 114.48 
L 180.536507 114.48 
L 180.749339 113.85 
L 181.600669 113.85 
L 181.813502 113.22 
L 184.154659 113.22 
L 184.367491 112.59 
L 190.965297 112.59 
L 191.17813 111.96 
L 195.860444 111.96 
L 196.073276 111.33 
L 200.542758 111.33 
L 200.75559 110.7 
L 222.677334 110.7 
L 222.890166 110.07 
L 226.295486 110.07 
L 226.508318 109.44 
L 238.852601 109.44 
L 239.065433 108.81 
L 245.450407 108.81 
L 245.663239 108.18 
L 247.578732 108.18 
L 247.791564 107.55 
L 259.284517 107.55 
L 259.497349 106.92 
L 288.016899 106.92 
L 288.229731 106.29 
L 299.297019 106.29 
L 299.722684 105.03 
L 301.638176 105.03 
L 301.851009 104.4 
L 303.979333 104.4 
L 304.192166 103.77 
L 312.279799 103.77 
L 312.492632 103.14 
L 335.052872 103.14 
L 335.265705 102.51 
L 339.096689 102.51 
L 339.309522 101.88 
L 343.991836 101.88 
L 344.204668 101.25 
L 344.843165 101.25 
L 345.481663 99.36 
L 345.694495 97.47 
L 346.332993 97.47 
L 346.758658 96.21 
L 348.248485 96.21 
L 348.461317 95.58 
L 350.589642 95.58 
L 350.802474 91.8 
L 354.420626 91.8 
L 354.633459 91.17 
L 365.913579 91.17 
L 366.126411 90.54 
L 372.298553 90.54 
L 372.511385 89.91 
L 375.278207 89.91 
L 375.49104 89.28 
L 375.916705 89.28 
L 375.916705 89.28 
" clip-path="url(#pc6cea8c57c)" style="fill: none; stroke: #c957db; stroke-width: 1.2; stroke-linecap: round"/>
   </g>
   <g id="line2d_32"/>
   <g id="line2d_33"/>
   <g id="line2d_34"/>
   <g id="line2d_35"/>
   <g id="line2d_36"/>
   <g id="patch_3">
    <path d="M 54.3375 512.64 
L 54.3375 69.12 
" style="fill: none; stroke: #cccccc; stroke-linejoin: miter; stroke-linecap: square"/>
   </g>
   <g id="patch_4">
    <path d="M 54.3375 512.64 
L 391.23 512.64 
" style="fill: none; stroke: #cccccc; stroke-linejoin: miter; stroke-linecap: square"/>
   </g>
   <g id="text_29">
    <!-- Edge Coverage History -->
    <g style="fill: #262626" transform="translate(115.892262 63.12)scale(0.165888 -0.165888)">
     <defs>
      <path id="DejaVuSans-Bold-45" d="M 588 4666 
L 3834 4666 
L 3834 3756 
L 1791 3756 
L 1791 2888 
L 3713 2888 
L 3713 1978 
L 1791 1978 
L 1791 909 
L 3903 909 
L 3903 0 
L 588 0 
L 588 4666 
z
" transform="scale(0.015625)"/>
      <path id="DejaVuSans-Bold-64" d="M 2919 2988 
L 2919 4863 
L 4044 4863 
L 4044 0 
L 2919 0 
L 2919 506 
Q 2688 197 2409 53 
Q 2131 -91 1766 -91 
Q 1119 -91 703 423 
Q 288 938 288 1747 
Q 288 2556 703 3070 
Q 1119 3584 1766 3584 
Q 2128 3584 2408 3439 
Q 2688 3294 2919 2988 
z
M 2181 722 
Q 2541 722 2730 984 
Q 2919 1247 2919 1747 
Q 2919 2247 2730 2509 
Q 2541 2772 2181 2772 
Q 1825 2772 1636 2509 
Q 1447 2247 1447 1747 
Q 1447 1247 1636 984 
Q 1825 722 2181 722 
z
" transform="scale(0.015625)"/>
      <path id="DejaVuSans-Bold-67" d="M 2919 594 
Q 2688 288 2409 144 
Q 2131 0 1766 0 
Q 1125 0 706 504 
Q 288 1009 288 1791 
Q 288 2575 706 3076 
Q 1125 3578 1766 3578 
Q 2131 3578 2409 3434 
Q 2688 3291 2919 2981 
L 2919 3500 
L 4044 3500 
L 4044 353 
Q 4044 -491 3511 -936 
Q 2978 -1381 1966 -1381 
Q 1638 -1381 1331 -1331 
Q 1025 -1281 716 -1178 
L 716 -306 
Q 1009 -475 1290 -558 
Q 1572 -641 1856 -641 
Q 2406 -641 2662 -400 
Q 2919 -159 2919 353 
L 2919 594 
z
M 2181 2772 
Q 1834 2772 1640 2515 
Q 1447 2259 1447 1791 
Q 1447 1309 1634 1061 
Q 1822 813 2181 813 
Q 2531 813 2725 1069 
Q 2919 1325 2919 1791 
Q 2919 2259 2725 2515 
Q 2531 2772 2181 2772 
z
" transform="scale(0.015625)"/>
      <path id="DejaVuSans-Bold-65" d="M 4031 1759 
L 4031 1441 
L 1416 1441 
Q 1456 1047 1700 850 
Q 1944 653 2381 653 
Q 2734 653 3104 758 
Q 3475 863 3866 1075 
L 3866 213 
Q 3469 63 3072 -14 
Q 2675 -91 2278 -91 
Q 1328 -91 801 392 
Q 275 875 275 1747 
Q 275 2603 792 3093 
Q 1309 3584 2216 3584 
Q 3041 3584 3536 3087 
Q 4031 2591 4031 1759 
z
M 2881 2131 
Q 2881 2450 2695 2645 
Q 2509 2841 2209 2841 
Q 1884 2841 1681 2658 
Q 1478 2475 1428 2131 
L 2881 2131 
z
" transform="scale(0.015625)"/>
      <path id="DejaVuSans-Bold-20" transform="scale(0.015625)"/>
      <path id="DejaVuSans-Bold-43" d="M 4288 256 
Q 3956 84 3597 -3 
Q 3238 -91 2847 -91 
Q 1681 -91 1000 561 
Q 319 1213 319 2328 
Q 319 3447 1000 4098 
Q 1681 4750 2847 4750 
Q 3238 4750 3597 4662 
Q 3956 4575 4288 4403 
L 4288 3438 
Q 3953 3666 3628 3772 
Q 3303 3878 2944 3878 
Q 2300 3878 1931 3465 
Q 1563 3053 1563 2328 
Q 1563 1606 1931 1193 
Q 2300 781 2944 781 
Q 3303 781 3628 887 
Q 3953 994 4288 1222 
L 4288 256 
z
" transform="scale(0.015625)"/>
      <path id="DejaVuSans-Bold-6f" d="M 2203 2784 
Q 1831 2784 1636 2517 
Q 1441 2250 1441 1747 
Q 1441 1244 1636 976 
Q 1831 709 2203 709 
Q 2569 709 2762 976 
Q 2956 1244 2956 1747 
Q 2956 2250 2762 2517 
Q 2569 2784 2203 2784 
z
M 2203 3584 
Q 3106 3584 3614 3096 
Q 4122 2609 4122 1747 
Q 4122 884 3614 396 
Q 3106 -91 2203 -91 
Q 1297 -91 786 396 
Q 275 884 275 1747 
Q 275 2609 786 3096 
Q 1297 3584 2203 3584 
z
" transform="scale(0.015625)"/>
      <path id="DejaVuSans-Bold-76" d="M 97 3500 
L 1216 3500 
L 2088 1081 
L 2956 3500 
L 4078 3500 
L 2700 0 
L 1472 0 
L 97 3500 
z
" transform="scale(0.015625)"/>
      <path id="DejaVuSans-Bold-72" d="M 3138 2547 
Q 2991 2616 2845 2648 
Q 2700 2681 2553 2681 
Q 2122 2681 1889 2404 
Q 1656 2128 1656 1613 
L 1656 0 
L 538 0 
L 538 3500 
L 1656 3500 
L 1656 2925 
Q 1872 3269 2151 3426 
Q 2431 3584 2822 3584 
Q 2878 3584 2943 3579 
Q 3009 3575 3134 3559 
L 3138 2547 
z
" transform="scale(0.015625)"/>
      <path id="DejaVuSans-Bold-61" d="M 2106 1575 
Q 1756 1575 1579 1456 
Q 1403 1338 1403 1106 
Q 1403 894 1545 773 
Q 1688 653 1941 653 
Q 2256 653 2472 879 
Q 2688 1106 2688 1447 
L 2688 1575 
L 2106 1575 
z
M 3816 1997 
L 3816 0 
L 2688 0 
L 2688 519 
Q 2463 200 2181 54 
Q 1900 -91 1497 -91 
Q 953 -91 614 226 
Q 275 544 275 1050 
Q 275 1666 698 1953 
Q 1122 2241 2028 2241 
L 2688 2241 
L 2688 2328 
Q 2688 2594 2478 2717 
Q 2269 2841 1825 2841 
Q 1466 2841 1156 2769 
Q 847 2697 581 2553 
L 581 3406 
Q 941 3494 1303 3539 
Q 1666 3584 2028 3584 
Q 2975 3584 3395 3211 
Q 3816 2838 3816 1997 
z
" transform="scale(0.015625)"/>
      <path id="DejaVuSans-Bold-48" d="M 588 4666 
L 1791 4666 
L 1791 2888 
L 3566 2888 
L 3566 4666 
L 4769 4666 
L 4769 0 
L 3566 0 
L 3566 1978 
L 1791 1978 
L 1791 0 
L 588 0 
L 588 4666 
z
" transform="scale(0.015625)"/>
      <path id="DejaVuSans-Bold-69" d="M 538 3500 
L 1656 3500 
L 1656 0 
L 538 0 
L 538 3500 
z
M 538 4863 
L 1656 4863 
L 1656 3950 
L 538 3950 
L 538 4863 
z
" transform="scale(0.015625)"/>
      <path id="DejaVuSans-Bold-73" d="M 3272 3391 
L 3272 2541 
Q 2913 2691 2578 2766 
Q 2244 2841 1947 2841 
Q 1628 2841 1473 2761 
Q 1319 2681 1319 2516 
Q 1319 2381 1436 2309 
Q 1553 2238 1856 2203 
L 2053 2175 
Q 2913 2066 3209 1816 
Q 3506 1566 3506 1031 
Q 3506 472 3093 190 
Q 2681 -91 1863 -91 
Q 1516 -91 1145 -36 
Q 775 19 384 128 
L 384 978 
Q 719 816 1070 734 
Q 1422 653 1784 653 
Q 2113 653 2278 743 
Q 2444 834 2444 1013 
Q 2444 1163 2330 1236 
Q 2216 1309 1875 1350 
L 1678 1375 
Q 931 1469 631 1722 
Q 331 1975 331 2491 
Q 331 3047 712 3315 
Q 1094 3584 1881 3584 
Q 2191 3584 2531 3537 
Q 2872 3491 3272 3391 
z
" transform="scale(0.015625)"/>
      <path id="DejaVuSans-Bold-74" d="M 1759 4494 
L 1759 3500 
L 2913 3500 
L 2913 2700 
L 1759 2700 
L 1759 1216 
Q 1759 972 1856 886 
Q 1953 800 2241 800 
L 2816 800 
L 2816 0 
L 1856 0 
Q 1194 0 917 276 
Q 641 553 641 1216 
L 641 2700 
L 84 2700 
L 84 3500 
L 641 3500 
L 641 4494 
L 1759 4494 
z
" transform="scale(0.015625)"/>
      <path id="DejaVuSans-Bold-79" d="M 78 3500 
L 1197 3500 
L 2138 1125 
L 2938 3500 
L 4056 3500 
L 2584 -331 
Q 2363 -916 2067 -1148 
Q 1772 -1381 1288 -1381 
L 641 -1381 
L 641 -647 
L 991 -647 
Q 1275 -647 1404 -556 
Q 1534 -466 1606 -231 
L 1638 -134 
L 78 3500 
z
" transform="scale(0.015625)"/>
     </defs>
     <use xlink:href="#DejaVuSans-Bold-45"/>
     <use xlink:href="#DejaVuSans-Bold-64" x="68.310547"/>
     <use xlink:href="#DejaVuSans-Bold-67" x="139.892578"/>
     <use xlink:href="#DejaVuSans-Bold-65" x="211.474609"/>
     <use xlink:href="#DejaVuSans-Bold-20" x="279.296875"/>
     <use xlink:href="#DejaVuSans-Bold-43" x="314.111328"/>
     <use xlink:href="#DejaVuSans-Bold-6f" x="387.5"/>
     <use xlink:href="#DejaVuSans-Bold-76" x="456.201172"/>
     <use xlink:href="#DejaVuSans-Bold-65" x="521.386719"/>
     <use xlink:href="#DejaVuSans-Bold-72" x="589.208984"/>
     <use xlink:href="#DejaVuSans-Bold-61" x="638.525391"/>
     <use xlink:href="#DejaVuSans-Bold-67" x="706.005859"/>
     <use xlink:href="#DejaVuSans-Bold-65" x="777.587891"/>
     <use xlink:href="#DejaVuSans-Bold-20" x="845.410156"/>
     <use xlink:href="#DejaVuSans-Bold-48" x="880.224609"/>
     <use xlink:href="#DejaVuSans-Bold-69" x="963.916016"/>
     <use xlink:href="#DejaVuSans-Bold-73" x="998.193359"/>
     <use xlink:href="#DejaVuSans-Bold-74" x="1057.714844"/>
     <use xlink:href="#DejaVuSans-Bold-6f" x="1105.517578"/>
     <use xlink:href="#DejaVuSans-Bold-72" x="1174.21875"/>
     <use xlink:href="#DejaVuSans-Bold-79" x="1223.535156"/>
    </g>
   </g>
   <g id="legend_1">
    <g id="patch_5">
     <path d="M 267.942 508.24 
L 385.07 508.24 
Q 386.83 508.24 386.83 506.48 
L 386.83 428.8405 
Q 386.83 427.0805 385.07 427.0805 
L 267.942 427.0805 
Q 266.182 427.0805 266.182 428.8405 
L 266.182 506.48 
Q 266.182 508.24 267.942 508.24 
z
" style="fill: #ffffff; opacity: 0.8; stroke: #cccccc; stroke-width: 0.8; stroke-linejoin: miter"/>
    </g>
    <g id="text_30">
     <!-- fuzzer -->
     <g style="fill: #262626" transform="translate(311.809 437.895)scale(0.096 -0.096)">
      <defs>
       <path id="DejaVuSans-66" d="M 2375 4863 
L 2375 4384 
L 1825 4384 
Q 1516 4384 1395 4259 
Q 1275 4134 1275 3809 
L 1275 3500 
L 2222 3500 
L 2222 3053 
L 1275 3053 
L 1275 0 
L 697 0 
L 697 3053 
L 147 3053 
L 147 3500 
L 697 3500 
L 697 3744 
Q 697 4328 969 4595 
Q 1241 4863 1831 4863 
L 2375 4863 
z
" transform="scale(0.015625)"/>
       <path id="DejaVuSans-7a" d="M 353 3500 
L 3084 3500 
L 3084 2975 
L 922 459 
L 3084 459 
L 3084 0 
L 275 0 
L 275 525 
L 2438 3041 
L 353 3041 
L 353 3500 
z
" transform="scale(0.015625)"/>
      </defs>
      <use xlink:href="#DejaVuSans-66"/>
      <use xlink:href="#DejaVuSans-75" x="35.205078"/>
      <use xlink:href="#DejaVuSans-7a" x="98.583984"/>
      <use xlink:href="#DejaVuSans-7a" x="151.074219"/>
      <use xlink:href="#DejaVuSans-65" x="203.564453"/>
      <use xlink:href="#DejaVuSans-72" x="265.087891"/>
     </g>
    </g>
    <g id="line2d_37">
     <path d="M 269.702 447.898125 
L 278.502 447.898125 
L 287.302 447.898125 
" style="fill: none; stroke: #db5f57; stroke-width: 1.2; stroke-linecap: round"/>
    </g>
    <g id="text_31">
     <!-- aflfast-0-exid23 -->
     <g style="fill: #262626" transform="translate(294.342 450.978125)scale(0.088 -0.088)">
      <defs>
       <path id="DejaVuSans-6c" d="M 603 4863 
L 1178 4863 
L 1178 0 
L 603 0 
L 603 4863 
z
" transform="scale(0.015625)"/>
       <path id="DejaVuSans-2d" d="M 313 2009 
L 1997 2009 
L 1997 1497 
L 313 1497 
L 313 2009 
z
" transform="scale(0.015625)"/>
       <path id="DejaVuSans-78" d="M 3513 3500 
L 2247 1797 
L 3578 0 
L 2900 0 
L 1881 1375 
L 863 0 
L 184 0 
L 1544 1831 
L 300 3500 
L 978 3500 
L 1906 2253 
L 2834 3500 
L 3513 3500 
z
" transform="scale(0.015625)"/>
      </defs>
      <use xlink:href="#DejaVuSans-61"/>
      <use xlink:href="#DejaVuSans-66" x="61.279297"/>
      <use xlink:href="#DejaVuSans-6c" x="96.484375"/>
      <use xlink:href="#DejaVuSans-66" x="124.267578"/>
      <use xlink:href="#DejaVuSans-61" x="159.472656"/>
      <use xlink:href="#DejaVuSans-73" x="220.751953"/>
      <use xlink:href="#DejaVuSans-74" x="272.851562"/>
      <use xlink:href="#DejaVuSans-2d" x="312.060547"/>
      <use xlink:href="#DejaVuSans-30" x="348.144531"/>
      <use xlink:href="#DejaVuSans-2d" x="411.767578"/>
      <use xlink:href="#DejaVuSans-65" x="447.851562"/>
      <use xlink:href="#DejaVuSans-78" x="507.625"/>
      <use xlink:href="#DejaVuSans-69" x="566.804688"/>
      <use xlink:href="#DejaVuSans-64" x="594.587891"/>
      <use xlink:href="#DejaVuSans-32" x="658.064453"/>
      <use xlink:href="#DejaVuSans-33" x="721.6875"/>
     </g>
    </g>
    <g id="line2d_38">
     <path d="M 269.702 460.814875 
L 278.502 460.814875 
L 287.302 460.814875 
" style="fill: none; stroke: #b9db57; stroke-width: 1.2; stroke-linecap: round"/>
    </g>
    <g id="text_32">
     <!-- aflplusplus-0-exid23 -->
     <g style="fill: #262626" transform="translate(294.342 463.894875)scale(0.088 -0.088)">
      <defs>
       <path id="DejaVuSans-70" d="M 1159 525 
L 1159 -1331 
L 581 -1331 
L 581 3500 
L 1159 3500 
L 1159 2969 
Q 1341 3281 1617 3432 
Q 1894 3584 2278 3584 
Q 2916 3584 3314 3078 
Q 3713 2572 3713 1747 
Q 3713 922 3314 415 
Q 2916 -91 2278 -91 
Q 1894 -91 1617 61 
Q 1341 213 1159 525 
z
M 3116 1747 
Q 3116 2381 2855 2742 
Q 2594 3103 2138 3103 
Q 1681 3103 1420 2742 
Q 1159 2381 1159 1747 
Q 1159 1113 1420 752 
Q 1681 391 2138 391 
Q 2594 391 2855 752 
Q 3116 1113 3116 1747 
z
" transform="scale(0.015625)"/>
      </defs>
      <use xlink:href="#DejaVuSans-61"/>
      <use xlink:href="#DejaVuSans-66" x="61.279297"/>
      <use xlink:href="#DejaVuSans-6c" x="96.484375"/>
      <use xlink:href="#DejaVuSans-70" x="124.267578"/>
      <use xlink:href="#DejaVuSans-6c" x="187.744141"/>
      <use xlink:href="#DejaVuSans-75" x="215.527344"/>
      <use xlink:href="#DejaVuSans-73" x="278.90625"/>
      <use xlink:href="#DejaVuSans-70" x="331.005859"/>
      <use xlink:href="#DejaVuSans-6c" x="394.482422"/>
      <use xlink:href="#DejaVuSans-75" x="422.265625"/>
      <use xlink:href="#DejaVuSans-73" x="485.644531"/>
      <use xlink:href="#DejaVuSans-2d" x="537.744141"/>
      <use xlink:href="#DejaVuSans-30" x="573.828125"/>
      <use xlink:href="#DejaVuSans-2d" x="637.451172"/>
      <use xlink:href="#DejaVuSans-65" x="673.535156"/>
      <use xlink:href="#DejaVuSans-78" x="733.308594"/>
      <use xlink:href="#DejaVuSans-69" x="792.488281"/>
      <use xlink:href="#DejaVuSans-64" x="820.271484"/>
      <use xlink:href="#DejaVuSans-32" x="883.748047"/>
      <use xlink:href="#DejaVuSans-33" x="947.371094"/>
     </g>
    </g>
    <g id="line2d_39">
     <path d="M 269.702 473.731625 
L 278.502 473.731625 
L 287.302 473.731625 
" style="fill: none; stroke: #57db94; stroke-width: 1.2; stroke-linecap: round"/>
    </g>
    <g id="text_33">
     <!-- fairfuzz-0-exid23 -->
     <g style="fill: #262626" transform="translate(294.342 476.811625)scale(0.088 -0.088)">
      <use xlink:href="#DejaVuSans-66"/>
      <use xlink:href="#DejaVuSans-61" x="35.205078"/>
      <use xlink:href="#DejaVuSans-69" x="96.484375"/>
      <use xlink:href="#DejaVuSans-72" x="124.267578"/>
      <use xlink:href="#DejaVuSans-66" x="165.380859"/>
      <use xlink:href="#DejaVuSans-75" x="200.585938"/>
      <use xlink:href="#DejaVuSans-7a" x="263.964844"/>
      <use xlink:href="#DejaVuSans-7a" x="316.455078"/>
      <use xlink:href="#DejaVuSans-2d" x="368.945312"/>
      <use xlink:href="#DejaVuSans-30" x="405.029297"/>
      <use xlink:href="#DejaVuSans-2d" x="468.652344"/>
      <use xlink:href="#DejaVuSans-65" x="504.736328"/>
      <use xlink:href="#DejaVuSans-78" x="564.509766"/>
      <use xlink:href="#DejaVuSans-69" x="623.689453"/>
      <use xlink:href="#DejaVuSans-64" x="651.472656"/>
      <use xlink:href="#DejaVuSans-32" x="714.949219"/>
      <use xlink:href="#DejaVuSans-33" x="778.572266"/>
     </g>
    </g>
    <g id="line2d_40">
     <path d="M 269.702 486.648375 
L 278.502 486.648375 
L 287.302 486.648375 
" style="fill: none; stroke: #5784db; stroke-width: 1.2; stroke-linecap: round"/>
    </g>
    <g id="text_34">
     <!-- afl-0-exid23 -->
     <g style="fill: #262626" transform="translate(294.342 489.728375)scale(0.088 -0.088)">
      <use xlink:href="#DejaVuSans-61"/>
      <use xlink:href="#DejaVuSans-66" x="61.279297"/>
      <use xlink:href="#DejaVuSans-6c" x="96.484375"/>
      <use xlink:href="#DejaVuSans-2d" x="124.267578"/>
      <use xlink:href="#DejaVuSans-30" x="160.351562"/>
      <use xlink:href="#DejaVuSans-2d" x="223.974609"/>
      <use xlink:href="#DejaVuSans-65" x="260.058594"/>
      <use xlink:href="#DejaVuSans-78" x="319.832031"/>
      <use xlink:href="#DejaVuSans-69" x="379.011719"/>
      <use xlink:href="#DejaVuSans-64" x="406.794922"/>
      <use xlink:href="#DejaVuSans-32" x="470.271484"/>
      <use xlink:href="#DejaVuSans-33" x="533.894531"/>
     </g>
    </g>
    <g id="line2d_41">
     <path d="M 269.702 499.565125 
L 278.502 499.565125 
L 287.302 499.565125 
" style="fill: none; stroke: #c957db; stroke-width: 1.2; stroke-linecap: round"/>
    </g>
    <g id="text_35">
     <!-- fuzzer_global -->
     <g style="fill: #262626" transform="translate(294.342 502.645125)scale(0.088 -0.088)">
      <defs>
       <path id="DejaVuSans-5f" d="M 3263 -1063 
L 3263 -1509 
L -63 -1509 
L -63 -1063 
L 3263 -1063 
z
" transform="scale(0.015625)"/>
       <path id="DejaVuSans-62" d="M 3116 1747 
Q 3116 2381 2855 2742 
Q 2594 3103 2138 3103 
Q 1681 3103 1420 2742 
Q 1159 2381 1159 1747 
Q 1159 1113 1420 752 
Q 1681 391 2138 391 
Q 2594 391 2855 752 
Q 3116 1113 3116 1747 
z
M 1159 2969 
Q 1341 3281 1617 3432 
Q 1894 3584 2278 3584 
Q 2916 3584 3314 3078 
Q 3713 2572 3713 1747 
Q 3713 922 3314 415 
Q 2916 -91 2278 -91 
Q 1894 -91 1617 61 
Q 1341 213 1159 525 
L 1159 0 
L 581 0 
L 581 4863 
L 1159 4863 
L 1159 2969 
z
" transform="scale(0.015625)"/>
      </defs>
      <use xlink:href="#DejaVuSans-66"/>
      <use xlink:href="#DejaVuSans-75" x="35.205078"/>
      <use xlink:href="#DejaVuSans-7a" x="98.583984"/>
      <use xlink:href="#DejaVuSans-7a" x="151.074219"/>
      <use xlink:href="#DejaVuSans-65" x="203.564453"/>
      <use xlink:href="#DejaVuSans-72" x="265.087891"/>
      <use xlink:href="#DejaVuSans-5f" x="306.201172"/>
      <use xlink:href="#DejaVuSans-67" x="356.201172"/>
      <use xlink:href="#DejaVuSans-6c" x="419.677734"/>
      <use xlink:href="#DejaVuSans-6f" x="447.460938"/>
      <use xlink:href="#DejaVuSans-62" x="508.642578"/>
      <use xlink:href="#DejaVuSans-61" x="572.119141"/>
      <use xlink:href="#DejaVuSans-6c" x="633.398438"/>
     </g>
    </g>
   </g>
  </g>
 </g>
 <defs>
  <clipPath id="pc6cea8c57c">
   <rect x="54.3375" y="69.12" width="336.8925" height="443.52"/>
  </clipPath>
 </defs>
</svg>
