<?xml version="1.0" encoding="utf-8" standalone="no"?>
<!DOCTYPE svg PUBLIC "-//W3C//DTD SVG 1.1//EN"
  "http://www.w3.org/Graphics/SVG/1.1/DTD/svg11.dtd">
<svg xmlns:xlink="http://www.w3.org/1999/xlink" width="434.7pt" height="576pt" viewBox="0 0 434.7 576" xmlns="http://www.w3.org/2000/svg" version="1.1">
 <metadata>
  <rdf:RDF xmlns:dc="http://purl.org/dc/elements/1.1/" xmlns:cc="http://creativecommons.org/ns#" xmlns:rdf="http://www.w3.org/1999/02/22-rdf-syntax-ns#">
   <cc:Work>
    <dc:type rdf:resource="http://purl.org/dc/dcmitype/StillImage"/>
    <dc:date>2022-09-15T09:14:06.927082</dc:date>
    <dc:format>image/svg+xml</dc:format>
    <dc:creator>
     <cc:Agent>
      <dc:title>Matplotlib v3.5.3, https://matplotlib.org/</dc:title>
     </cc:Agent>
    </dc:creator>
   </cc:Work>
  </rdf:RDF>
 </metadata>
 <defs>
  <style type="text/css">*{stroke-linejoin: round; stroke-linecap: butt}</style>
 </defs>
 <g id="figure_1">
  <g id="patch_1">
   <path d="M 0 576 
L 434.7 576 
L 434.7 0 
L 0 0 
z
" style="fill: #ffffff"/>
  </g>
  <g id="axes_1">
   <g id="patch_2">
    <path d="M 54.3375 512.64 
L 391.23 512.64 
L 391.23 69.12 
L 54.3375 69.12 
z
" style="fill: #ffffff"/>
   </g>
   <g id="matplotlib.axis_1">
    <g id="xtick_1">
     <g id="line2d_1">
      <path d="M 69.650795 512.64 
L 69.650795 69.12 
" clip-path="url(#p25cb32033f)" style="fill: none; stroke: #cccccc; stroke-width: 0.8; stroke-linecap: round"/>
     </g>
     <g id="text_1">
      <!-- 0 -->
      <g style="fill: #262626" transform="translate(69.388282 529.627249)rotate(-45)scale(0.088 -0.088)">
       <defs>
        <path id="DejaVuSans-30" d="M 2034 4250 
Q 1547 4250 1301 3770 
Q 1056 3291 1056 2328 
Q 1056 1369 1301 889 
Q 1547 409 2034 409 
Q 2525 409 2770 889 
Q 3016 1369 3016 2328 
Q 3016 3291 2770 3770 
Q 2525 4250 2034 4250 
z
M 2034 4750 
Q 2819 4750 3233 4129 
Q 3647 3509 3647 2328 
Q 3647 1150 3233 529 
Q 2819 -91 2034 -91 
Q 1250 -91 836 529 
Q 422 1150 422 2328 
Q 422 3509 836 4129 
Q 1250 4750 2034 4750 
z
" transform="scale(0.015625)"/>
       </defs>
       <use xlink:href="#DejaVuSans-30"/>
      </g>
     </g>
    </g>
    <g id="xtick_2">
     <g id="line2d_2">
      <path d="M 86.677392 512.64 
L 86.677392 69.12 
" clip-path="url(#p25cb32033f)" style="fill: none; stroke: #cccccc; stroke-width: 0.8; stroke-linecap: round"/>
     </g>
     <g id="text_2">
      <!-- 80 -->
      <g style="fill: #262626" transform="translate(84.435333 533.58634)rotate(-45)scale(0.088 -0.088)">
       <defs>
        <path id="DejaVuSans-38" d="M 2034 2216 
Q 1584 2216 1326 1975 
Q 1069 1734 1069 1313 
Q 1069 891 1326 650 
Q 1584 409 2034 409 
Q 2484 409 2743 651 
Q 3003 894 3003 1313 
Q 3003 1734 2745 1975 
Q 2488 2216 2034 2216 
z
M 1403 2484 
Q 997 2584 770 2862 
Q 544 3141 544 3541 
Q 544 4100 942 4425 
Q 1341 4750 2034 4750 
Q 2731 4750 3128 4425 
Q 3525 4100 3525 3541 
Q 3525 3141 3298 2862 
Q 3072 2584 2669 2484 
Q 3125 2378 3379 2068 
Q 3634 1759 3634 1313 
Q 3634 634 3220 271 
Q 2806 -91 2034 -91 
Q 1263 -91 848 271 
Q 434 634 434 1313 
Q 434 1759 690 2068 
Q 947 2378 1403 2484 
z
M 1172 3481 
Q 1172 3119 1398 2916 
Q 1625 2713 2034 2713 
Q 2441 2713 2670 2916 
Q 2900 3119 2900 3481 
Q 2900 3844 2670 4047 
Q 2441 4250 2034 4250 
Q 1625 4250 1398 4047 
Q 1172 3844 1172 3481 
z
" transform="scale(0.015625)"/>
       </defs>
       <use xlink:href="#DejaVuSans-38"/>
       <use xlink:href="#DejaVuSans-30" x="63.623047"/>
      </g>
     </g>
    </g>
    <g id="xtick_3">
     <g id="line2d_3">
      <path d="M 103.703989 512.64 
L 103.703989 69.12 
" clip-path="url(#p25cb32033f)" style="fill: none; stroke: #cccccc; stroke-width: 0.8; stroke-linecap: round"/>
     </g>
     <g id="text_3">
      <!-- 160 -->
      <g style="fill: #262626" transform="translate(99.482385 537.54543)rotate(-45)scale(0.088 -0.088)">
       <defs>
        <path id="DejaVuSans-31" d="M 794 531 
L 1825 531 
L 1825 4091 
L 703 3866 
L 703 4441 
L 1819 4666 
L 2450 4666 
L 2450 531 
L 3481 531 
L 3481 0 
L 794 0 
L 794 531 
z
" transform="scale(0.015625)"/>
        <path id="DejaVuSans-36" d="M 2113 2584 
Q 1688 2584 1439 2293 
Q 1191 2003 1191 1497 
Q 1191 994 1439 701 
Q 1688 409 2113 409 
Q 2538 409 2786 701 
Q 3034 994 3034 1497 
Q 3034 2003 2786 2293 
Q 2538 2584 2113 2584 
z
M 3366 4563 
L 3366 3988 
Q 3128 4100 2886 4159 
Q 2644 4219 2406 4219 
Q 1781 4219 1451 3797 
Q 1122 3375 1075 2522 
Q 1259 2794 1537 2939 
Q 1816 3084 2150 3084 
Q 2853 3084 3261 2657 
Q 3669 2231 3669 1497 
Q 3669 778 3244 343 
Q 2819 -91 2113 -91 
Q 1303 -91 875 529 
Q 447 1150 447 2328 
Q 447 3434 972 4092 
Q 1497 4750 2381 4750 
Q 2619 4750 2861 4703 
Q 3103 4656 3366 4563 
z
" transform="scale(0.015625)"/>
       </defs>
       <use xlink:href="#DejaVuSans-31"/>
       <use xlink:href="#DejaVuSans-36" x="63.623047"/>
       <use xlink:href="#DejaVuSans-30" x="127.246094"/>
      </g>
     </g>
    </g>
    <g id="xtick_4">
     <g id="line2d_4">
      <path d="M 120.730586 512.64 
L 120.730586 69.12 
" clip-path="url(#p25cb32033f)" style="fill: none; stroke: #cccccc; stroke-width: 0.8; stroke-linecap: round"/>
     </g>
     <g id="text_4">
      <!-- 240 -->
      <g style="fill: #262626" transform="translate(116.508981 537.54543)rotate(-45)scale(0.088 -0.088)">
       <defs>
        <path id="DejaVuSans-32" d="M 1228 531 
L 3431 531 
L 3431 0 
L 469 0 
L 469 531 
Q 828 903 1448 1529 
Q 2069 2156 2228 2338 
Q 2531 2678 2651 2914 
Q 2772 3150 2772 3378 
Q 2772 3750 2511 3984 
Q 2250 4219 1831 4219 
Q 1534 4219 1204 4116 
Q 875 4013 500 3803 
L 500 4441 
Q 881 4594 1212 4672 
Q 1544 4750 1819 4750 
Q 2544 4750 2975 4387 
Q 3406 4025 3406 3419 
Q 3406 3131 3298 2873 
Q 3191 2616 2906 2266 
Q 2828 2175 2409 1742 
Q 1991 1309 1228 531 
z
" transform="scale(0.015625)"/>
        <path id="DejaVuSans-34" d="M 2419 4116 
L 825 1625 
L 2419 1625 
L 2419 4116 
z
M 2253 4666 
L 3047 4666 
L 3047 1625 
L 3713 1625 
L 3713 1100 
L 3047 1100 
L 3047 0 
L 2419 0 
L 2419 1100 
L 313 1100 
L 313 1709 
L 2253 4666 
z
" transform="scale(0.015625)"/>
       </defs>
       <use xlink:href="#DejaVuSans-32"/>
       <use xlink:href="#DejaVuSans-34" x="63.623047"/>
       <use xlink:href="#DejaVuSans-30" x="127.246094"/>
      </g>
     </g>
    </g>
    <g id="xtick_5">
     <g id="line2d_5">
      <path d="M 137.757182 512.64 
L 137.757182 69.12 
" clip-path="url(#p25cb32033f)" style="fill: none; stroke: #cccccc; stroke-width: 0.8; stroke-linecap: round"/>
     </g>
     <g id="text_5">
      <!-- 320 -->
      <g style="fill: #262626" transform="translate(133.535578 537.54543)rotate(-45)scale(0.088 -0.088)">
       <defs>
        <path id="DejaVuSans-33" d="M 2597 2516 
Q 3050 2419 3304 2112 
Q 3559 1806 3559 1356 
Q 3559 666 3084 287 
Q 2609 -91 1734 -91 
Q 1441 -91 1130 -33 
Q 819 25 488 141 
L 488 750 
Q 750 597 1062 519 
Q 1375 441 1716 441 
Q 2309 441 2620 675 
Q 2931 909 2931 1356 
Q 2931 1769 2642 2001 
Q 2353 2234 1838 2234 
L 1294 2234 
L 1294 2753 
L 1863 2753 
Q 2328 2753 2575 2939 
Q 2822 3125 2822 3475 
Q 2822 3834 2567 4026 
Q 2313 4219 1838 4219 
Q 1578 4219 1281 4162 
Q 984 4106 628 3988 
L 628 4550 
Q 988 4650 1302 4700 
Q 1616 4750 1894 4750 
Q 2613 4750 3031 4423 
Q 3450 4097 3450 3541 
Q 3450 3153 3228 2886 
Q 3006 2619 2597 2516 
z
" transform="scale(0.015625)"/>
       </defs>
       <use xlink:href="#DejaVuSans-33"/>
       <use xlink:href="#DejaVuSans-32" x="63.623047"/>
       <use xlink:href="#DejaVuSans-30" x="127.246094"/>
      </g>
     </g>
    </g>
    <g id="xtick_6">
     <g id="line2d_6">
      <path d="M 154.783779 512.64 
L 154.783779 69.12 
" clip-path="url(#p25cb32033f)" style="fill: none; stroke: #cccccc; stroke-width: 0.8; stroke-linecap: round"/>
     </g>
     <g id="text_6">
      <!-- 400 -->
      <g style="fill: #262626" transform="translate(150.562175 537.54543)rotate(-45)scale(0.088 -0.088)">
       <use xlink:href="#DejaVuSans-34"/>
       <use xlink:href="#DejaVuSans-30" x="63.623047"/>
       <use xlink:href="#DejaVuSans-30" x="127.246094"/>
      </g>
     </g>
    </g>
    <g id="xtick_7">
     <g id="line2d_7">
      <path d="M 171.810376 512.64 
L 171.810376 69.12 
" clip-path="url(#p25cb32033f)" style="fill: none; stroke: #cccccc; stroke-width: 0.8; stroke-linecap: round"/>
     </g>
     <g id="text_7">
      <!-- 480 -->
      <g style="fill: #262626" transform="translate(167.588772 537.54543)rotate(-45)scale(0.088 -0.088)">
       <use xlink:href="#DejaVuSans-34"/>
       <use xlink:href="#DejaVuSans-38" x="63.623047"/>
       <use xlink:href="#DejaVuSans-30" x="127.246094"/>
      </g>
     </g>
    </g>
    <g id="xtick_8">
     <g id="line2d_8">
      <path d="M 188.836973 512.64 
L 188.836973 69.12 
" clip-path="url(#p25cb32033f)" style="fill: none; stroke: #cccccc; stroke-width: 0.8; stroke-linecap: round"/>
     </g>
     <g id="text_8">
      <!-- 560 -->
      <g style="fill: #262626" transform="translate(184.615368 537.54543)rotate(-45)scale(0.088 -0.088)">
       <defs>
        <path id="DejaVuSans-35" d="M 691 4666 
L 3169 4666 
L 3169 4134 
L 1269 4134 
L 1269 2991 
Q 1406 3038 1543 3061 
Q 1681 3084 1819 3084 
Q 2600 3084 3056 2656 
Q 3513 2228 3513 1497 
Q 3513 744 3044 326 
Q 2575 -91 1722 -91 
Q 1428 -91 1123 -41 
Q 819 9 494 109 
L 494 744 
Q 775 591 1075 516 
Q 1375 441 1709 441 
Q 2250 441 2565 725 
Q 2881 1009 2881 1497 
Q 2881 1984 2565 2268 
Q 2250 2553 1709 2553 
Q 1456 2553 1204 2497 
Q 953 2441 691 2322 
L 691 4666 
z
" transform="scale(0.015625)"/>
       </defs>
       <use xlink:href="#DejaVuSans-35"/>
       <use xlink:href="#DejaVuSans-36" x="63.623047"/>
       <use xlink:href="#DejaVuSans-30" x="127.246094"/>
      </g>
     </g>
    </g>
    <g id="xtick_9">
     <g id="line2d_9">
      <path d="M 205.863569 512.64 
L 205.863569 69.12 
" clip-path="url(#p25cb32033f)" style="fill: none; stroke: #cccccc; stroke-width: 0.8; stroke-linecap: round"/>
     </g>
     <g id="text_9">
      <!-- 640 -->
      <g style="fill: #262626" transform="translate(201.641965 537.54543)rotate(-45)scale(0.088 -0.088)">
       <use xlink:href="#DejaVuSans-36"/>
       <use xlink:href="#DejaVuSans-34" x="63.623047"/>
       <use xlink:href="#DejaVuSans-30" x="127.246094"/>
      </g>
     </g>
    </g>
    <g id="xtick_10">
     <g id="line2d_10">
      <path d="M 222.890166 512.64 
L 222.890166 69.12 
" clip-path="url(#p25cb32033f)" style="fill: none; stroke: #cccccc; stroke-width: 0.8; stroke-linecap: round"/>
     </g>
     <g id="text_10">
      <!-- 720 -->
      <g style="fill: #262626" transform="translate(218.668562 537.54543)rotate(-45)scale(0.088 -0.088)">
       <defs>
        <path id="DejaVuSans-37" d="M 525 4666 
L 3525 4666 
L 3525 4397 
L 1831 0 
L 1172 0 
L 2766 4134 
L 525 4134 
L 525 4666 
z
" transform="scale(0.015625)"/>
       </defs>
       <use xlink:href="#DejaVuSans-37"/>
       <use xlink:href="#DejaVuSans-32" x="63.623047"/>
       <use xlink:href="#DejaVuSans-30" x="127.246094"/>
      </g>
     </g>
    </g>
    <g id="xtick_11">
     <g id="line2d_11">
      <path d="M 239.916763 512.64 
L 239.916763 69.12 
" clip-path="url(#p25cb32033f)" style="fill: none; stroke: #cccccc; stroke-width: 0.8; stroke-linecap: round"/>
     </g>
     <g id="text_11">
      <!-- 800 -->
      <g style="fill: #262626" transform="translate(235.695159 537.54543)rotate(-45)scale(0.088 -0.088)">
       <use xlink:href="#DejaVuSans-38"/>
       <use xlink:href="#DejaVuSans-30" x="63.623047"/>
       <use xlink:href="#DejaVuSans-30" x="127.246094"/>
      </g>
     </g>
    </g>
    <g id="xtick_12">
     <g id="line2d_12">
      <path d="M 256.94336 512.64 
L 256.94336 69.12 
" clip-path="url(#p25cb32033f)" style="fill: none; stroke: #cccccc; stroke-width: 0.8; stroke-linecap: round"/>
     </g>
     <g id="text_12">
      <!-- 880 -->
      <g style="fill: #262626" transform="translate(252.721755 537.54543)rotate(-45)scale(0.088 -0.088)">
       <use xlink:href="#DejaVuSans-38"/>
       <use xlink:href="#DejaVuSans-38" x="63.623047"/>
       <use xlink:href="#DejaVuSans-30" x="127.246094"/>
      </g>
     </g>
    </g>
    <g id="xtick_13">
     <g id="line2d_13">
      <path d="M 273.969956 512.64 
L 273.969956 69.12 
" clip-path="url(#p25cb32033f)" style="fill: none; stroke: #cccccc; stroke-width: 0.8; stroke-linecap: round"/>
     </g>
     <g id="text_13">
      <!-- 960 -->
      <g style="fill: #262626" transform="translate(269.748352 537.54543)rotate(-45)scale(0.088 -0.088)">
       <defs>
        <path id="DejaVuSans-39" d="M 703 97 
L 703 672 
Q 941 559 1184 500 
Q 1428 441 1663 441 
Q 2288 441 2617 861 
Q 2947 1281 2994 2138 
Q 2813 1869 2534 1725 
Q 2256 1581 1919 1581 
Q 1219 1581 811 2004 
Q 403 2428 403 3163 
Q 403 3881 828 4315 
Q 1253 4750 1959 4750 
Q 2769 4750 3195 4129 
Q 3622 3509 3622 2328 
Q 3622 1225 3098 567 
Q 2575 -91 1691 -91 
Q 1453 -91 1209 -44 
Q 966 3 703 97 
z
M 1959 2075 
Q 2384 2075 2632 2365 
Q 2881 2656 2881 3163 
Q 2881 3666 2632 3958 
Q 2384 4250 1959 4250 
Q 1534 4250 1286 3958 
Q 1038 3666 1038 3163 
Q 1038 2656 1286 2365 
Q 1534 2075 1959 2075 
z
" transform="scale(0.015625)"/>
       </defs>
       <use xlink:href="#DejaVuSans-39"/>
       <use xlink:href="#DejaVuSans-36" x="63.623047"/>
       <use xlink:href="#DejaVuSans-30" x="127.246094"/>
      </g>
     </g>
    </g>
    <g id="xtick_14">
     <g id="line2d_14">
      <path d="M 290.996553 512.64 
L 290.996553 69.12 
" clip-path="url(#p25cb32033f)" style="fill: none; stroke: #cccccc; stroke-width: 0.8; stroke-linecap: round"/>
     </g>
     <g id="text_14">
      <!-- 1040 -->
      <g style="fill: #262626" transform="translate(284.795404 541.504521)rotate(-45)scale(0.088 -0.088)">
       <use xlink:href="#DejaVuSans-31"/>
       <use xlink:href="#DejaVuSans-30" x="63.623047"/>
       <use xlink:href="#DejaVuSans-34" x="127.246094"/>
       <use xlink:href="#DejaVuSans-30" x="190.869141"/>
      </g>
     </g>
    </g>
    <g id="xtick_15">
     <g id="line2d_15">
      <path d="M 308.02315 512.64 
L 308.02315 69.12 
" clip-path="url(#p25cb32033f)" style="fill: none; stroke: #cccccc; stroke-width: 0.8; stroke-linecap: round"/>
     </g>
     <g id="text_15">
      <!-- 1120 -->
      <g style="fill: #262626" transform="translate(301.822 541.504521)rotate(-45)scale(0.088 -0.088)">
       <use xlink:href="#DejaVuSans-31"/>
       <use xlink:href="#DejaVuSans-31" x="63.623047"/>
       <use xlink:href="#DejaVuSans-32" x="127.246094"/>
       <use xlink:href="#DejaVuSans-30" x="190.869141"/>
      </g>
     </g>
    </g>
    <g id="xtick_16">
     <g id="line2d_16">
      <path d="M 325.049747 512.64 
L 325.049747 69.12 
" clip-path="url(#p25cb32033f)" style="fill: none; stroke: #cccccc; stroke-width: 0.8; stroke-linecap: round"/>
     </g>
     <g id="text_16">
      <!-- 1200 -->
      <g style="fill: #262626" transform="translate(318.848597 541.504521)rotate(-45)scale(0.088 -0.088)">
       <use xlink:href="#DejaVuSans-31"/>
       <use xlink:href="#DejaVuSans-32" x="63.623047"/>
       <use xlink:href="#DejaVuSans-30" x="127.246094"/>
       <use xlink:href="#DejaVuSans-30" x="190.869141"/>
      </g>
     </g>
    </g>
    <g id="xtick_17">
     <g id="line2d_17">
      <path d="M 342.076343 512.64 
L 342.076343 69.12 
" clip-path="url(#p25cb32033f)" style="fill: none; stroke: #cccccc; stroke-width: 0.8; stroke-linecap: round"/>
     </g>
     <g id="text_17">
      <!-- 1280 -->
      <g style="fill: #262626" transform="translate(335.875194 541.504521)rotate(-45)scale(0.088 -0.088)">
       <use xlink:href="#DejaVuSans-31"/>
       <use xlink:href="#DejaVuSans-32" x="63.623047"/>
       <use xlink:href="#DejaVuSans-38" x="127.246094"/>
       <use xlink:href="#DejaVuSans-30" x="190.869141"/>
      </g>
     </g>
    </g>
    <g id="xtick_18">
     <g id="line2d_18">
      <path d="M 359.10294 512.64 
L 359.10294 69.12 
" clip-path="url(#p25cb32033f)" style="fill: none; stroke: #cccccc; stroke-width: 0.8; stroke-linecap: round"/>
     </g>
     <g id="text_18">
      <!-- 1360 -->
      <g style="fill: #262626" transform="translate(352.901791 541.504521)rotate(-45)scale(0.088 -0.088)">
       <use xlink:href="#DejaVuSans-31"/>
       <use xlink:href="#DejaVuSans-33" x="63.623047"/>
       <use xlink:href="#DejaVuSans-36" x="127.246094"/>
       <use xlink:href="#DejaVuSans-30" x="190.869141"/>
      </g>
     </g>
    </g>
    <g id="xtick_19">
     <g id="line2d_19">
      <path d="M 376.129537 512.64 
L 376.129537 69.12 
" clip-path="url(#p25cb32033f)" style="fill: none; stroke: #cccccc; stroke-width: 0.8; stroke-linecap: round"/>
     </g>
     <g id="text_19">
      <!-- 1440 -->
      <g style="fill: #262626" transform="translate(369.928387 541.504521)rotate(-45)scale(0.088 -0.088)">
       <use xlink:href="#DejaVuSans-31"/>
       <use xlink:href="#DejaVuSans-34" x="63.623047"/>
       <use xlink:href="#DejaVuSans-34" x="127.246094"/>
       <use xlink:href="#DejaVuSans-30" x="190.869141"/>
      </g>
     </g>
    </g>
    <g id="text_20">
     <!-- Time (Minutes) -->
     <g style="fill: #262626" transform="translate(186.87375 554.093115)scale(0.096 -0.096)">
      <defs>
       <path id="DejaVuSans-54" d="M -19 4666 
L 3928 4666 
L 3928 4134 
L 2272 4134 
L 2272 0 
L 1638 0 
L 1638 4134 
L -19 4134 
L -19 4666 
z
" transform="scale(0.015625)"/>
       <path id="DejaVuSans-69" d="M 603 3500 
L 1178 3500 
L 1178 0 
L 603 0 
L 603 3500 
z
M 603 4863 
L 1178 4863 
L 1178 4134 
L 603 4134 
L 603 4863 
z
" transform="scale(0.015625)"/>
       <path id="DejaVuSans-6d" d="M 3328 2828 
Q 3544 3216 3844 3400 
Q 4144 3584 4550 3584 
Q 5097 3584 5394 3201 
Q 5691 2819 5691 2113 
L 5691 0 
L 5113 0 
L 5113 2094 
Q 5113 2597 4934 2840 
Q 4756 3084 4391 3084 
Q 3944 3084 3684 2787 
Q 3425 2491 3425 1978 
L 3425 0 
L 2847 0 
L 2847 2094 
Q 2847 2600 2669 2842 
Q 2491 3084 2119 3084 
Q 1678 3084 1418 2786 
Q 1159 2488 1159 1978 
L 1159 0 
L 581 0 
L 581 3500 
L 1159 3500 
L 1159 2956 
Q 1356 3278 1631 3431 
Q 1906 3584 2284 3584 
Q 2666 3584 2933 3390 
Q 3200 3197 3328 2828 
z
" transform="scale(0.015625)"/>
       <path id="DejaVuSans-65" d="M 3597 1894 
L 3597 1613 
L 953 1613 
Q 991 1019 1311 708 
Q 1631 397 2203 397 
Q 2534 397 2845 478 
Q 3156 559 3463 722 
L 3463 178 
Q 3153 47 2828 -22 
Q 2503 -91 2169 -91 
Q 1331 -91 842 396 
Q 353 884 353 1716 
Q 353 2575 817 3079 
Q 1281 3584 2069 3584 
Q 2775 3584 3186 3129 
Q 3597 2675 3597 1894 
z
M 3022 2063 
Q 3016 2534 2758 2815 
Q 2500 3097 2075 3097 
Q 1594 3097 1305 2825 
Q 1016 2553 972 2059 
L 3022 2063 
z
" transform="scale(0.015625)"/>
       <path id="DejaVuSans-20" transform="scale(0.015625)"/>
       <path id="DejaVuSans-28" d="M 1984 4856 
Q 1566 4138 1362 3434 
Q 1159 2731 1159 2009 
Q 1159 1288 1364 580 
Q 1569 -128 1984 -844 
L 1484 -844 
Q 1016 -109 783 600 
Q 550 1309 550 2009 
Q 550 2706 781 3412 
Q 1013 4119 1484 4856 
L 1984 4856 
z
" transform="scale(0.015625)"/>
       <path id="DejaVuSans-4d" d="M 628 4666 
L 1569 4666 
L 2759 1491 
L 3956 4666 
L 4897 4666 
L 4897 0 
L 4281 0 
L 4281 4097 
L 3078 897 
L 2444 897 
L 1241 4097 
L 1241 0 
L 628 0 
L 628 4666 
z
" transform="scale(0.015625)"/>
       <path id="DejaVuSans-6e" d="M 3513 2113 
L 3513 0 
L 2938 0 
L 2938 2094 
Q 2938 2591 2744 2837 
Q 2550 3084 2163 3084 
Q 1697 3084 1428 2787 
Q 1159 2491 1159 1978 
L 1159 0 
L 581 0 
L 581 3500 
L 1159 3500 
L 1159 2956 
Q 1366 3272 1645 3428 
Q 1925 3584 2291 3584 
Q 2894 3584 3203 3211 
Q 3513 2838 3513 2113 
z
" transform="scale(0.015625)"/>
       <path id="DejaVuSans-75" d="M 544 1381 
L 544 3500 
L 1119 3500 
L 1119 1403 
Q 1119 906 1312 657 
Q 1506 409 1894 409 
Q 2359 409 2629 706 
Q 2900 1003 2900 1516 
L 2900 3500 
L 3475 3500 
L 3475 0 
L 2900 0 
L 2900 538 
Q 2691 219 2414 64 
Q 2138 -91 1772 -91 
Q 1169 -91 856 284 
Q 544 659 544 1381 
z
M 1991 3584 
L 1991 3584 
z
" transform="scale(0.015625)"/>
       <path id="DejaVuSans-74" d="M 1172 4494 
L 1172 3500 
L 2356 3500 
L 2356 3053 
L 1172 3053 
L 1172 1153 
Q 1172 725 1289 603 
Q 1406 481 1766 481 
L 2356 481 
L 2356 0 
L 1766 0 
Q 1100 0 847 248 
Q 594 497 594 1153 
L 594 3053 
L 172 3053 
L 172 3500 
L 594 3500 
L 594 4494 
L 1172 4494 
z
" transform="scale(0.015625)"/>
       <path id="DejaVuSans-73" d="M 2834 3397 
L 2834 2853 
Q 2591 2978 2328 3040 
Q 2066 3103 1784 3103 
Q 1356 3103 1142 2972 
Q 928 2841 928 2578 
Q 928 2378 1081 2264 
Q 1234 2150 1697 2047 
L 1894 2003 
Q 2506 1872 2764 1633 
Q 3022 1394 3022 966 
Q 3022 478 2636 193 
Q 2250 -91 1575 -91 
Q 1294 -91 989 -36 
Q 684 19 347 128 
L 347 722 
Q 666 556 975 473 
Q 1284 391 1588 391 
Q 1994 391 2212 530 
Q 2431 669 2431 922 
Q 2431 1156 2273 1281 
Q 2116 1406 1581 1522 
L 1381 1569 
Q 847 1681 609 1914 
Q 372 2147 372 2553 
Q 372 3047 722 3315 
Q 1072 3584 1716 3584 
Q 2034 3584 2315 3537 
Q 2597 3491 2834 3397 
z
" transform="scale(0.015625)"/>
       <path id="DejaVuSans-29" d="M 513 4856 
L 1013 4856 
Q 1481 4119 1714 3412 
Q 1947 2706 1947 2009 
Q 1947 1309 1714 600 
Q 1481 -109 1013 -844 
L 513 -844 
Q 928 -128 1133 580 
Q 1338 1288 1338 2009 
Q 1338 2731 1133 3434 
Q 928 4138 513 4856 
z
" transform="scale(0.015625)"/>
      </defs>
      <use xlink:href="#DejaVuSans-54"/>
      <use xlink:href="#DejaVuSans-69" x="57.958984"/>
      <use xlink:href="#DejaVuSans-6d" x="85.742188"/>
      <use xlink:href="#DejaVuSans-65" x="183.154297"/>
      <use xlink:href="#DejaVuSans-20" x="244.677734"/>
      <use xlink:href="#DejaVuSans-28" x="276.464844"/>
      <use xlink:href="#DejaVuSans-4d" x="315.478516"/>
      <use xlink:href="#DejaVuSans-69" x="401.757812"/>
      <use xlink:href="#DejaVuSans-6e" x="429.541016"/>
      <use xlink:href="#DejaVuSans-75" x="492.919922"/>
      <use xlink:href="#DejaVuSans-74" x="556.298828"/>
      <use xlink:href="#DejaVuSans-65" x="595.507812"/>
      <use xlink:href="#DejaVuSans-73" x="657.03125"/>
      <use xlink:href="#DejaVuSans-29" x="709.130859"/>
     </g>
    </g>
   </g>
   <g id="matplotlib.axis_2">
    <g id="ytick_1">
     <g id="line2d_20">
      <path d="M 54.3375 492.48 
L 391.23 492.48 
" clip-path="url(#p25cb32033f)" style="fill: none; stroke: #cccccc; stroke-width: 0.8; stroke-linecap: round"/>
     </g>
     <g id="text_21">
      <!-- 0 -->
      <g style="fill: #262626" transform="translate(40.4385 495.823312)scale(0.088 -0.088)">
       <use xlink:href="#DejaVuSans-30"/>
      </g>
     </g>
    </g>
    <g id="ytick_2">
     <g id="line2d_21">
      <path d="M 54.3375 477.535597 
L 391.23 477.535597 
" clip-path="url(#p25cb32033f)" style="fill: none; stroke: #cccccc; stroke-width: 0.8; stroke-linecap: round"/>
     </g>
     <g id="text_22">
      <!-- 100 -->
      <g style="fill: #262626" transform="translate(29.2405 480.878909)scale(0.088 -0.088)">
       <use xlink:href="#DejaVuSans-31"/>
       <use xlink:href="#DejaVuSans-30" x="63.623047"/>
       <use xlink:href="#DejaVuSans-30" x="127.246094"/>
      </g>
     </g>
    </g>
    <g id="ytick_3">
     <g id="line2d_22">
      <path d="M 54.3375 462.591193 
L 391.23 462.591193 
" clip-path="url(#p25cb32033f)" style="fill: none; stroke: #cccccc; stroke-width: 0.8; stroke-linecap: round"/>
     </g>
     <g id="text_23">
      <!-- 200 -->
      <g style="fill: #262626" transform="translate(29.2405 465.934506)scale(0.088 -0.088)">
       <use xlink:href="#DejaVuSans-32"/>
       <use xlink:href="#DejaVuSans-30" x="63.623047"/>
       <use xlink:href="#DejaVuSans-30" x="127.246094"/>
      </g>
     </g>
    </g>
    <g id="ytick_4">
     <g id="line2d_23">
      <path d="M 54.3375 447.64679 
L 391.23 447.64679 
" clip-path="url(#p25cb32033f)" style="fill: none; stroke: #cccccc; stroke-width: 0.8; stroke-linecap: round"/>
     </g>
     <g id="text_24">
      <!-- 300 -->
      <g style="fill: #262626" transform="translate(29.2405 450.990103)scale(0.088 -0.088)">
       <use xlink:href="#DejaVuSans-33"/>
       <use xlink:href="#DejaVuSans-30" x="63.623047"/>
       <use xlink:href="#DejaVuSans-30" x="127.246094"/>
      </g>
     </g>
    </g>
    <g id="ytick_5">
     <g id="line2d_24">
      <path d="M 54.3375 432.702387 
L 391.23 432.702387 
" clip-path="url(#p25cb32033f)" style="fill: none; stroke: #cccccc; stroke-width: 0.8; stroke-linecap: round"/>
     </g>
     <g id="text_25">
      <!-- 400 -->
      <g style="fill: #262626" transform="translate(29.2405 436.045699)scale(0.088 -0.088)">
       <use xlink:href="#DejaVuSans-34"/>
       <use xlink:href="#DejaVuSans-30" x="63.623047"/>
       <use xlink:href="#DejaVuSans-30" x="127.246094"/>
      </g>
     </g>
    </g>
    <g id="ytick_6">
     <g id="line2d_25">
      <path d="M 54.3375 417.757984 
L 391.23 417.757984 
" clip-path="url(#p25cb32033f)" style="fill: none; stroke: #cccccc; stroke-width: 0.8; stroke-linecap: round"/>
     </g>
     <g id="text_26">
      <!-- 500 -->
      <g style="fill: #262626" transform="translate(29.2405 421.101296)scale(0.088 -0.088)">
       <use xlink:href="#DejaVuSans-35"/>
       <use xlink:href="#DejaVuSans-30" x="63.623047"/>
       <use xlink:href="#DejaVuSans-30" x="127.246094"/>
      </g>
     </g>
    </g>
    <g id="ytick_7">
     <g id="line2d_26">
      <path d="M 54.3375 402.81358 
L 391.23 402.81358 
" clip-path="url(#p25cb32033f)" style="fill: none; stroke: #cccccc; stroke-width: 0.8; stroke-linecap: round"/>
     </g>
     <g id="text_27">
      <!-- 600 -->
      <g style="fill: #262626" transform="translate(29.2405 406.156893)scale(0.088 -0.088)">
       <use xlink:href="#DejaVuSans-36"/>
       <use xlink:href="#DejaVuSans-30" x="63.623047"/>
       <use xlink:href="#DejaVuSans-30" x="127.246094"/>
      </g>
     </g>
    </g>
    <g id="ytick_8">
     <g id="line2d_27">
      <path d="M 54.3375 387.869177 
L 391.23 387.869177 
" clip-path="url(#p25cb32033f)" style="fill: none; stroke: #cccccc; stroke-width: 0.8; stroke-linecap: round"/>
     </g>
     <g id="text_28">
      <!-- 700 -->
      <g style="fill: #262626" transform="translate(29.2405 391.21249)scale(0.088 -0.088)">
       <use xlink:href="#DejaVuSans-37"/>
       <use xlink:href="#DejaVuSans-30" x="63.623047"/>
       <use xlink:href="#DejaVuSans-30" x="127.246094"/>
      </g>
     </g>
    </g>
    <g id="ytick_9">
     <g id="line2d_28">
      <path d="M 54.3375 372.924774 
L 391.23 372.924774 
" clip-path="url(#p25cb32033f)" style="fill: none; stroke: #cccccc; stroke-width: 0.8; stroke-linecap: round"/>
     </g>
     <g id="text_29">
      <!-- 800 -->
      <g style="fill: #262626" transform="translate(29.2405 376.268086)scale(0.088 -0.088)">
       <use xlink:href="#DejaVuSans-38"/>
       <use xlink:href="#DejaVuSans-30" x="63.623047"/>
       <use xlink:href="#DejaVuSans-30" x="127.246094"/>
      </g>
     </g>
    </g>
    <g id="ytick_10">
     <g id="line2d_29">
      <path d="M 54.3375 357.980371 
L 391.23 357.980371 
" clip-path="url(#p25cb32033f)" style="fill: none; stroke: #cccccc; stroke-width: 0.8; stroke-linecap: round"/>
     </g>
     <g id="text_30">
      <!-- 900 -->
      <g style="fill: #262626" transform="translate(29.2405 361.323683)scale(0.088 -0.088)">
       <use xlink:href="#DejaVuSans-39"/>
       <use xlink:href="#DejaVuSans-30" x="63.623047"/>
       <use xlink:href="#DejaVuSans-30" x="127.246094"/>
      </g>
     </g>
    </g>
    <g id="ytick_11">
     <g id="line2d_30">
      <path d="M 54.3375 343.035967 
L 391.23 343.035967 
" clip-path="url(#p25cb32033f)" style="fill: none; stroke: #cccccc; stroke-width: 0.8; stroke-linecap: round"/>
     </g>
     <g id="text_31">
      <!-- 1000 -->
      <g style="fill: #262626" transform="translate(23.6415 346.37928)scale(0.088 -0.088)">
       <use xlink:href="#DejaVuSans-31"/>
       <use xlink:href="#DejaVuSans-30" x="63.623047"/>
       <use xlink:href="#DejaVuSans-30" x="127.246094"/>
       <use xlink:href="#DejaVuSans-30" x="190.869141"/>
      </g>
     </g>
    </g>
    <g id="ytick_12">
     <g id="line2d_31">
      <path d="M 54.3375 328.091564 
L 391.23 328.091564 
" clip-path="url(#p25cb32033f)" style="fill: none; stroke: #cccccc; stroke-width: 0.8; stroke-linecap: round"/>
     </g>
     <g id="text_32">
      <!-- 1100 -->
      <g style="fill: #262626" transform="translate(23.6415 331.434877)scale(0.088 -0.088)">
       <use xlink:href="#DejaVuSans-31"/>
       <use xlink:href="#DejaVuSans-31" x="63.623047"/>
       <use xlink:href="#DejaVuSans-30" x="127.246094"/>
       <use xlink:href="#DejaVuSans-30" x="190.869141"/>
      </g>
     </g>
    </g>
    <g id="ytick_13">
     <g id="line2d_32">
      <path d="M 54.3375 313.147161 
L 391.23 313.147161 
" clip-path="url(#p25cb32033f)" style="fill: none; stroke: #cccccc; stroke-width: 0.8; stroke-linecap: round"/>
     </g>
     <g id="text_33">
      <!-- 1200 -->
      <g style="fill: #262626" transform="translate(23.6415 316.490473)scale(0.088 -0.088)">
       <use xlink:href="#DejaVuSans-31"/>
       <use xlink:href="#DejaVuSans-32" x="63.623047"/>
       <use xlink:href="#DejaVuSans-30" x="127.246094"/>
       <use xlink:href="#DejaVuSans-30" x="190.869141"/>
      </g>
     </g>
    </g>
    <g id="ytick_14">
     <g id="line2d_33">
      <path d="M 54.3375 298.202758 
L 391.23 298.202758 
" clip-path="url(#p25cb32033f)" style="fill: none; stroke: #cccccc; stroke-width: 0.8; stroke-linecap: round"/>
     </g>
     <g id="text_34">
      <!-- 1300 -->
      <g style="fill: #262626" transform="translate(23.6415 301.54607)scale(0.088 -0.088)">
       <use xlink:href="#DejaVuSans-31"/>
       <use xlink:href="#DejaVuSans-33" x="63.623047"/>
       <use xlink:href="#DejaVuSans-30" x="127.246094"/>
       <use xlink:href="#DejaVuSans-30" x="190.869141"/>
      </g>
     </g>
    </g>
    <g id="ytick_15">
     <g id="line2d_34">
      <path d="M 54.3375 283.258354 
L 391.23 283.258354 
" clip-path="url(#p25cb32033f)" style="fill: none; stroke: #cccccc; stroke-width: 0.8; stroke-linecap: round"/>
     </g>
     <g id="text_35">
      <!-- 1400 -->
      <g style="fill: #262626" transform="translate(23.6415 286.601667)scale(0.088 -0.088)">
       <use xlink:href="#DejaVuSans-31"/>
       <use xlink:href="#DejaVuSans-34" x="63.623047"/>
       <use xlink:href="#DejaVuSans-30" x="127.246094"/>
       <use xlink:href="#DejaVuSans-30" x="190.869141"/>
      </g>
     </g>
    </g>
    <g id="ytick_16">
     <g id="line2d_35">
      <path d="M 54.3375 268.313951 
L 391.23 268.313951 
" clip-path="url(#p25cb32033f)" style="fill: none; stroke: #cccccc; stroke-width: 0.8; stroke-linecap: round"/>
     </g>
     <g id="text_36">
      <!-- 1500 -->
      <g style="fill: #262626" transform="translate(23.6415 271.657264)scale(0.088 -0.088)">
       <use xlink:href="#DejaVuSans-31"/>
       <use xlink:href="#DejaVuSans-35" x="63.623047"/>
       <use xlink:href="#DejaVuSans-30" x="127.246094"/>
       <use xlink:href="#DejaVuSans-30" x="190.869141"/>
      </g>
     </g>
    </g>
    <g id="ytick_17">
     <g id="line2d_36">
      <path d="M 54.3375 253.369548 
L 391.23 253.369548 
" clip-path="url(#p25cb32033f)" style="fill: none; stroke: #cccccc; stroke-width: 0.8; stroke-linecap: round"/>
     </g>
     <g id="text_37">
      <!-- 1600 -->
      <g style="fill: #262626" transform="translate(23.6415 256.71286)scale(0.088 -0.088)">
       <use xlink:href="#DejaVuSans-31"/>
       <use xlink:href="#DejaVuSans-36" x="63.623047"/>
       <use xlink:href="#DejaVuSans-30" x="127.246094"/>
       <use xlink:href="#DejaVuSans-30" x="190.869141"/>
      </g>
     </g>
    </g>
    <g id="ytick_18">
     <g id="line2d_37">
      <path d="M 54.3375 238.425145 
L 391.23 238.425145 
" clip-path="url(#p25cb32033f)" style="fill: none; stroke: #cccccc; stroke-width: 0.8; stroke-linecap: round"/>
     </g>
     <g id="text_38">
      <!-- 1700 -->
      <g style="fill: #262626" transform="translate(23.6415 241.768457)scale(0.088 -0.088)">
       <use xlink:href="#DejaVuSans-31"/>
       <use xlink:href="#DejaVuSans-37" x="63.623047"/>
       <use xlink:href="#DejaVuSans-30" x="127.246094"/>
       <use xlink:href="#DejaVuSans-30" x="190.869141"/>
      </g>
     </g>
    </g>
    <g id="ytick_19">
     <g id="line2d_38">
      <path d="M 54.3375 223.480741 
L 391.23 223.480741 
" clip-path="url(#p25cb32033f)" style="fill: none; stroke: #cccccc; stroke-width: 0.8; stroke-linecap: round"/>
     </g>
     <g id="text_39">
      <!-- 1800 -->
      <g style="fill: #262626" transform="translate(23.6415 226.824054)scale(0.088 -0.088)">
       <use xlink:href="#DejaVuSans-31"/>
       <use xlink:href="#DejaVuSans-38" x="63.623047"/>
       <use xlink:href="#DejaVuSans-30" x="127.246094"/>
       <use xlink:href="#DejaVuSans-30" x="190.869141"/>
      </g>
     </g>
    </g>
    <g id="ytick_20">
     <g id="line2d_39">
      <path d="M 54.3375 208.536338 
L 391.23 208.536338 
" clip-path="url(#p25cb32033f)" style="fill: none; stroke: #cccccc; stroke-width: 0.8; stroke-linecap: round"/>
     </g>
     <g id="text_40">
      <!-- 1900 -->
      <g style="fill: #262626" transform="translate(23.6415 211.879651)scale(0.088 -0.088)">
       <use xlink:href="#DejaVuSans-31"/>
       <use xlink:href="#DejaVuSans-39" x="63.623047"/>
       <use xlink:href="#DejaVuSans-30" x="127.246094"/>
       <use xlink:href="#DejaVuSans-30" x="190.869141"/>
      </g>
     </g>
    </g>
    <g id="ytick_21">
     <g id="line2d_40">
      <path d="M 54.3375 193.591935 
L 391.23 193.591935 
" clip-path="url(#p25cb32033f)" style="fill: none; stroke: #cccccc; stroke-width: 0.8; stroke-linecap: round"/>
     </g>
     <g id="text_41">
      <!-- 2000 -->
      <g style="fill: #262626" transform="translate(23.6415 196.935247)scale(0.088 -0.088)">
       <use xlink:href="#DejaVuSans-32"/>
       <use xlink:href="#DejaVuSans-30" x="63.623047"/>
       <use xlink:href="#DejaVuSans-30" x="127.246094"/>
       <use xlink:href="#DejaVuSans-30" x="190.869141"/>
      </g>
     </g>
    </g>
    <g id="ytick_22">
     <g id="line2d_41">
      <path d="M 54.3375 178.647532 
L 391.23 178.647532 
" clip-path="url(#p25cb32033f)" style="fill: none; stroke: #cccccc; stroke-width: 0.8; stroke-linecap: round"/>
     </g>
     <g id="text_42">
      <!-- 2100 -->
      <g style="fill: #262626" transform="translate(23.6415 181.990844)scale(0.088 -0.088)">
       <use xlink:href="#DejaVuSans-32"/>
       <use xlink:href="#DejaVuSans-31" x="63.623047"/>
       <use xlink:href="#DejaVuSans-30" x="127.246094"/>
       <use xlink:href="#DejaVuSans-30" x="190.869141"/>
      </g>
     </g>
    </g>
    <g id="ytick_23">
     <g id="line2d_42">
      <path d="M 54.3375 163.703128 
L 391.23 163.703128 
" clip-path="url(#p25cb32033f)" style="fill: none; stroke: #cccccc; stroke-width: 0.8; stroke-linecap: round"/>
     </g>
     <g id="text_43">
      <!-- 2200 -->
      <g style="fill: #262626" transform="translate(23.6415 167.046441)scale(0.088 -0.088)">
       <use xlink:href="#DejaVuSans-32"/>
       <use xlink:href="#DejaVuSans-32" x="63.623047"/>
       <use xlink:href="#DejaVuSans-30" x="127.246094"/>
       <use xlink:href="#DejaVuSans-30" x="190.869141"/>
      </g>
     </g>
    </g>
    <g id="ytick_24">
     <g id="line2d_43">
      <path d="M 54.3375 148.758725 
L 391.23 148.758725 
" clip-path="url(#p25cb32033f)" style="fill: none; stroke: #cccccc; stroke-width: 0.8; stroke-linecap: round"/>
     </g>
     <g id="text_44">
      <!-- 2300 -->
      <g style="fill: #262626" transform="translate(23.6415 152.102037)scale(0.088 -0.088)">
       <use xlink:href="#DejaVuSans-32"/>
       <use xlink:href="#DejaVuSans-33" x="63.623047"/>
       <use xlink:href="#DejaVuSans-30" x="127.246094"/>
       <use xlink:href="#DejaVuSans-30" x="190.869141"/>
      </g>
     </g>
    </g>
    <g id="ytick_25">
     <g id="line2d_44">
      <path d="M 54.3375 133.814322 
L 391.23 133.814322 
" clip-path="url(#p25cb32033f)" style="fill: none; stroke: #cccccc; stroke-width: 0.8; stroke-linecap: round"/>
     </g>
     <g id="text_45">
      <!-- 2400 -->
      <g style="fill: #262626" transform="translate(23.6415 137.157634)scale(0.088 -0.088)">
       <use xlink:href="#DejaVuSans-32"/>
       <use xlink:href="#DejaVuSans-34" x="63.623047"/>
       <use xlink:href="#DejaVuSans-30" x="127.246094"/>
       <use xlink:href="#DejaVuSans-30" x="190.869141"/>
      </g>
     </g>
    </g>
    <g id="ytick_26">
     <g id="line2d_45">
      <path d="M 54.3375 118.869918 
L 391.23 118.869918 
" clip-path="url(#p25cb32033f)" style="fill: none; stroke: #cccccc; stroke-width: 0.8; stroke-linecap: round"/>
     </g>
     <g id="text_46">
      <!-- 2500 -->
      <g style="fill: #262626" transform="translate(23.6415 122.213231)scale(0.088 -0.088)">
       <use xlink:href="#DejaVuSans-32"/>
       <use xlink:href="#DejaVuSans-35" x="63.623047"/>
       <use xlink:href="#DejaVuSans-30" x="127.246094"/>
       <use xlink:href="#DejaVuSans-30" x="190.869141"/>
      </g>
     </g>
    </g>
    <g id="ytick_27">
     <g id="line2d_46">
      <path d="M 54.3375 103.925515 
L 391.23 103.925515 
" clip-path="url(#p25cb32033f)" style="fill: none; stroke: #cccccc; stroke-width: 0.8; stroke-linecap: round"/>
     </g>
     <g id="text_47">
      <!-- 2600 -->
      <g style="fill: #262626" transform="translate(23.6415 107.268828)scale(0.088 -0.088)">
       <use xlink:href="#DejaVuSans-32"/>
       <use xlink:href="#DejaVuSans-36" x="63.623047"/>
       <use xlink:href="#DejaVuSans-30" x="127.246094"/>
       <use xlink:href="#DejaVuSans-30" x="190.869141"/>
      </g>
     </g>
    </g>
    <g id="text_48">
     <!-- Edge Coverages -->
     <g style="fill: #262626" transform="translate(17.645 329.98575)rotate(-90)scale(0.096 -0.096)">
      <defs>
       <path id="DejaVuSans-45" d="M 628 4666 
L 3578 4666 
L 3578 4134 
L 1259 4134 
L 1259 2753 
L 3481 2753 
L 3481 2222 
L 1259 2222 
L 1259 531 
L 3634 531 
L 3634 0 
L 628 0 
L 628 4666 
z
" transform="scale(0.015625)"/>
       <path id="DejaVuSans-64" d="M 2906 2969 
L 2906 4863 
L 3481 4863 
L 3481 0 
L 2906 0 
L 2906 525 
Q 2725 213 2448 61 
Q 2172 -91 1784 -91 
Q 1150 -91 751 415 
Q 353 922 353 1747 
Q 353 2572 751 3078 
Q 1150 3584 1784 3584 
Q 2172 3584 2448 3432 
Q 2725 3281 2906 2969 
z
M 947 1747 
Q 947 1113 1208 752 
Q 1469 391 1925 391 
Q 2381 391 2643 752 
Q 2906 1113 2906 1747 
Q 2906 2381 2643 2742 
Q 2381 3103 1925 3103 
Q 1469 3103 1208 2742 
Q 947 2381 947 1747 
z
" transform="scale(0.015625)"/>
       <path id="DejaVuSans-67" d="M 2906 1791 
Q 2906 2416 2648 2759 
Q 2391 3103 1925 3103 
Q 1463 3103 1205 2759 
Q 947 2416 947 1791 
Q 947 1169 1205 825 
Q 1463 481 1925 481 
Q 2391 481 2648 825 
Q 2906 1169 2906 1791 
z
M 3481 434 
Q 3481 -459 3084 -895 
Q 2688 -1331 1869 -1331 
Q 1566 -1331 1297 -1286 
Q 1028 -1241 775 -1147 
L 775 -588 
Q 1028 -725 1275 -790 
Q 1522 -856 1778 -856 
Q 2344 -856 2625 -561 
Q 2906 -266 2906 331 
L 2906 616 
Q 2728 306 2450 153 
Q 2172 0 1784 0 
Q 1141 0 747 490 
Q 353 981 353 1791 
Q 353 2603 747 3093 
Q 1141 3584 1784 3584 
Q 2172 3584 2450 3431 
Q 2728 3278 2906 2969 
L 2906 3500 
L 3481 3500 
L 3481 434 
z
" transform="scale(0.015625)"/>
       <path id="DejaVuSans-43" d="M 4122 4306 
L 4122 3641 
Q 3803 3938 3442 4084 
Q 3081 4231 2675 4231 
Q 1875 4231 1450 3742 
Q 1025 3253 1025 2328 
Q 1025 1406 1450 917 
Q 1875 428 2675 428 
Q 3081 428 3442 575 
Q 3803 722 4122 1019 
L 4122 359 
Q 3791 134 3420 21 
Q 3050 -91 2638 -91 
Q 1578 -91 968 557 
Q 359 1206 359 2328 
Q 359 3453 968 4101 
Q 1578 4750 2638 4750 
Q 3056 4750 3426 4639 
Q 3797 4528 4122 4306 
z
" transform="scale(0.015625)"/>
       <path id="DejaVuSans-6f" d="M 1959 3097 
Q 1497 3097 1228 2736 
Q 959 2375 959 1747 
Q 959 1119 1226 758 
Q 1494 397 1959 397 
Q 2419 397 2687 759 
Q 2956 1122 2956 1747 
Q 2956 2369 2687 2733 
Q 2419 3097 1959 3097 
z
M 1959 3584 
Q 2709 3584 3137 3096 
Q 3566 2609 3566 1747 
Q 3566 888 3137 398 
Q 2709 -91 1959 -91 
Q 1206 -91 779 398 
Q 353 888 353 1747 
Q 353 2609 779 3096 
Q 1206 3584 1959 3584 
z
" transform="scale(0.015625)"/>
       <path id="DejaVuSans-76" d="M 191 3500 
L 800 3500 
L 1894 563 
L 2988 3500 
L 3597 3500 
L 2284 0 
L 1503 0 
L 191 3500 
z
" transform="scale(0.015625)"/>
       <path id="DejaVuSans-72" d="M 2631 2963 
Q 2534 3019 2420 3045 
Q 2306 3072 2169 3072 
Q 1681 3072 1420 2755 
Q 1159 2438 1159 1844 
L 1159 0 
L 581 0 
L 581 3500 
L 1159 3500 
L 1159 2956 
Q 1341 3275 1631 3429 
Q 1922 3584 2338 3584 
Q 2397 3584 2469 3576 
Q 2541 3569 2628 3553 
L 2631 2963 
z
" transform="scale(0.015625)"/>
       <path id="DejaVuSans-61" d="M 2194 1759 
Q 1497 1759 1228 1600 
Q 959 1441 959 1056 
Q 959 750 1161 570 
Q 1363 391 1709 391 
Q 2188 391 2477 730 
Q 2766 1069 2766 1631 
L 2766 1759 
L 2194 1759 
z
M 3341 1997 
L 3341 0 
L 2766 0 
L 2766 531 
Q 2569 213 2275 61 
Q 1981 -91 1556 -91 
Q 1019 -91 701 211 
Q 384 513 384 1019 
Q 384 1609 779 1909 
Q 1175 2209 1959 2209 
L 2766 2209 
L 2766 2266 
Q 2766 2663 2505 2880 
Q 2244 3097 1772 3097 
Q 1472 3097 1187 3025 
Q 903 2953 641 2809 
L 641 3341 
Q 956 3463 1253 3523 
Q 1550 3584 1831 3584 
Q 2591 3584 2966 3190 
Q 3341 2797 3341 1997 
z
" transform="scale(0.015625)"/>
      </defs>
      <use xlink:href="#DejaVuSans-45"/>
      <use xlink:href="#DejaVuSans-64" x="63.183594"/>
      <use xlink:href="#DejaVuSans-67" x="126.660156"/>
      <use xlink:href="#DejaVuSans-65" x="190.136719"/>
      <use xlink:href="#DejaVuSans-20" x="251.660156"/>
      <use xlink:href="#DejaVuSans-43" x="283.447266"/>
      <use xlink:href="#DejaVuSans-6f" x="353.271484"/>
      <use xlink:href="#DejaVuSans-76" x="414.453125"/>
      <use xlink:href="#DejaVuSans-65" x="473.632812"/>
      <use xlink:href="#DejaVuSans-72" x="535.15625"/>
      <use xlink:href="#DejaVuSans-61" x="576.269531"/>
      <use xlink:href="#DejaVuSans-67" x="637.548828"/>
      <use xlink:href="#DejaVuSans-65" x="701.025391"/>
      <use xlink:href="#DejaVuSans-73" x="762.548828"/>
     </g>
    </g>
   </g>
   <g id="PolyCollection_1">
    <defs>
     <path id="mdd59f4154c" d="M 69.650795 -93.682194 
L 69.650795 -83.52 
L 69.650795 -93.682194 
L 69.650795 -93.682194 
z
" style="stroke: #db5f57; stroke-opacity: 0.2; stroke-width: 0.8"/>
    </defs>
    <g clip-path="url(#p25cb32033f)">
     <use xlink:href="#mdd59f4154c" x="0" y="576" style="fill: #db5f57; fill-opacity: 0.2; stroke: #db5f57; stroke-opacity: 0.2; stroke-width: 0.8"/>
    </g>
   </g>
   <g id="PolyCollection_2">
    <defs>
     <path id="md0456316da" d="M 69.650795 -85.313328 
L 69.650795 -83.52 
L 69.650795 -85.313328 
L 69.650795 -85.313328 
z
" style="stroke: #b9db57; stroke-opacity: 0.2; stroke-width: 0.8"/>
    </defs>
    <g clip-path="url(#p25cb32033f)">
     <use xlink:href="#md0456316da" x="0" y="576" style="fill: #b9db57; fill-opacity: 0.2; stroke: #b9db57; stroke-opacity: 0.2; stroke-width: 0.8"/>
    </g>
   </g>
   <g id="PolyCollection_3">
    <defs>
     <path id="m9926a36be4" d="M 69.650795 -94.429414 
L 69.650795 -83.52 
L 69.650795 -94.429414 
L 69.650795 -94.429414 
z
" style="stroke: #57db94; stroke-opacity: 0.2; stroke-width: 0.8"/>
    </defs>
    <g clip-path="url(#p25cb32033f)">
     <use xlink:href="#m9926a36be4" x="0" y="576" style="fill: #57db94; fill-opacity: 0.2; stroke: #57db94; stroke-opacity: 0.2; stroke-width: 0.8"/>
    </g>
   </g>
   <g id="PolyCollection_4">
    <defs>
     <path id="m9d0a3307b9" d="M 69.650795 -85.313328 
L 69.650795 -83.52 
L 69.650795 -85.313328 
L 69.650795 -85.313328 
z
" style="stroke: #5784db; stroke-opacity: 0.2; stroke-width: 0.8"/>
    </defs>
    <g clip-path="url(#p25cb32033f)">
     <use xlink:href="#m9d0a3307b9" x="0" y="576" style="fill: #5784db; fill-opacity: 0.2; stroke: #5784db; stroke-opacity: 0.2; stroke-width: 0.8"/>
    </g>
   </g>
   <g id="PolyCollection_5">
    <defs>
     <path id="m90e66778cb" d="M 69.650795 -95.176635 
L 69.650795 -83.52 
L 69.650795 -95.176635 
L 69.650795 -95.176635 
z
" style="stroke: #c957db; stroke-opacity: 0.2; stroke-width: 0.8"/>
    </defs>
    <g clip-path="url(#p25cb32033f)">
     <use xlink:href="#m90e66778cb" x="0" y="576" style="fill: #c957db; fill-opacity: 0.2; stroke: #c957db; stroke-opacity: 0.2; stroke-width: 0.8"/>
    </g>
   </g>
   <g id="line2d_47">
    <path d="M 69.650795 487.398903 
L 70.07646 450.187339 
L 70.289293 437.783484 
L 71.140623 423.586301 
L 71.353455 422.689637 
L 71.77912 415.964655 
L 71.991953 412.527443 
L 72.204785 406.848569 
L 72.63045 404.158577 
L 72.843282 402.81358 
L 73.056115 376.212543 
L 73.268947 366.797569 
L 73.48178 362.314248 
L 73.694612 344.23152 
L 73.907445 343.783188 
L 74.120277 339.598755 
L 74.33311 331.827665 
L 74.545942 298.352202 
L 74.758774 295.213877 
L 75.184439 280.717806 
L 75.397272 267.118399 
L 75.610104 266.520623 
L 76.035769 255.910096 
L 76.248602 253.369548 
L 76.461434 248.437895 
L 76.674267 236.03404 
L 76.887099 236.03404 
L 77.312764 234.987932 
L 77.525596 230.205723 
L 77.738429 229.757391 
L 77.951261 229.757391 
L 78.164094 213.019659 
L 78.376926 211.525219 
L 78.589759 211.375775 
L 79.015424 203.006909 
L 79.228256 203.006909 
L 79.441089 202.857465 
L 79.653921 202.857465 
L 79.866754 202.110245 
L 80.292418 198.374144 
L 80.505251 198.075256 
L 80.718083 197.328036 
L 80.930916 197.328036 
L 81.143748 197.178592 
L 81.782246 197.178592 
L 81.995078 197.029148 
L 82.420743 197.029148 
L 82.633575 188.510838 
L 83.05924 185.970289 
L 83.272073 185.970289 
L 83.697738 184.176961 
L 83.91057 184.027517 
L 84.123403 183.579185 
L 84.549068 183.579185 
L 84.7619 183.429741 
L 85.400397 180.44086 
L 85.826062 178.94642 
L 86.251727 177.900311 
L 86.46456 177.601423 
L 86.677392 177.003647 
L 87.31589 177.003647 
L 87.528722 176.854203 
L 87.741555 176.854203 
L 88.167219 176.555315 
L 88.380052 174.761987 
L 88.592884 174.164211 
L 89.018549 174.164211 
L 89.231382 174.014766 
L 89.444214 173.715878 
L 89.657047 173.715878 
L 89.869879 173.566434 
L 90.295544 171.773106 
L 90.508376 170.876442 
L 90.721209 170.726998 
L 90.934041 169.531446 
L 91.359706 169.232557 
L 91.572539 168.784225 
L 91.785371 168.037005 
L 92.211036 167.738117 
L 92.636701 166.990897 
L 93.275198 165.048125 
L 93.913696 163.703128 
L 94.552193 160.714248 
L 94.977858 159.967027 
L 95.190691 159.817583 
L 95.403523 159.369251 
L 95.616356 159.219807 
L 96.254853 157.725367 
L 96.467685 157.426479 
L 96.89335 156.380371 
L 97.531848 155.63315 
L 97.74468 155.63315 
L 97.957513 155.184818 
L 98.170345 154.13871 
L 98.383177 153.690378 
L 98.59601 153.690378 
L 98.808842 153.39149 
L 99.234507 152.494826 
L 99.44734 152.345382 
L 99.660172 151.598162 
L 99.873005 151.299274 
L 100.085837 150.253165 
L 100.29867 149.804833 
L 100.511502 148.758725 
L 100.724335 146.666509 
L 100.937167 145.919288 
L 101.362832 145.919288 
L 101.575664 144.574292 
L 101.788497 144.424848 
L 102.001329 143.528184 
L 102.214162 143.528184 
L 102.426994 143.37874 
L 102.639827 142.930408 
L 102.852659 142.930408 
L 103.065492 142.780964 
L 105.406649 142.780964 
L 105.619481 142.183188 
L 105.832314 142.183188 
L 106.045146 141.884299 
L 106.896476 141.884299 
L 107.322141 141.585411 
L 107.747806 141.585411 
L 107.960638 141.435967 
L 108.173471 141.435967 
L 108.386303 141.286523 
L 108.599136 141.286523 
L 108.811968 141.137079 
L 109.237633 141.137079 
L 109.450465 140.987635 
L 109.663298 140.688747 
L 109.87613 140.688747 
L 110.088963 140.539303 
L 110.301795 140.539303 
L 110.940293 139.792083 
L 113.28145 139.792083 
L 113.494282 139.194307 
L 116.899601 139.194307 
L 117.112434 138.745975 
L 120.092088 138.745975 
L 120.304921 138.148199 
L 121.156251 138.148199 
L 121.369083 137.998755 
L 121.794748 137.998755 
L 122.00758 137.400979 
L 123.284575 137.400979 
L 123.497408 137.251534 
L 127.754057 137.251534 
L 127.966889 136.952646 
L 132.862036 136.952646 
L 133.074868 136.653758 
L 134.777528 136.653758 
L 134.99036 136.35487 
L 135.416025 136.35487 
L 135.628858 136.205426 
L 135.84169 136.205426 
L 136.054523 135.757094 
L 156.273606 135.757094 
L 156.699271 135.458206 
L 163.297078 135.458206 
L 163.50991 135.308762 
L 164.786905 135.308762 
L 164.999737 134.262654 
L 167.766559 134.262654 
L 167.979392 134.11321 
L 168.192224 133.814322 
L 172.661706 133.814322 
L 173.087371 133.515434 
L 173.300203 133.515434 
L 173.513036 133.216546 
L 174.151533 133.216546 
L 174.364365 132.768213 
L 174.79003 126.491564 
L 175.002863 126.192676 
L 175.428528 124.698236 
L 175.64136 122.755463 
L 176.49269 119.467695 
L 176.705523 119.019362 
L 177.131187 119.019362 
L 177.34402 118.57103 
L 177.556852 118.421586 
L 177.982517 117.524922 
L 178.408182 117.524922 
L 178.833847 117.226034 
L 180.536507 117.226034 
L 180.749339 117.07659 
L 181.600669 117.07659 
L 181.813502 116.927146 
L 182.451999 116.927146 
L 182.664831 116.777702 
L 186.921481 116.777702 
L 187.134313 116.628258 
L 198.627266 116.628258 
L 198.840098 116.179926 
L 199.052931 116.030482 
L 212.461376 116.030482 
L 212.674208 115.881038 
L 214.164035 115.881038 
L 214.376868 115.731594 
L 218.207852 115.731594 
L 218.420685 115.58215 
L 239.916763 115.58215 
L 240.129595 115.432706 
L 241.193758 115.432706 
L 241.40659 115.133818 
L 242.470752 115.133818 
L 243.322082 114.087709 
L 245.876072 114.087709 
L 246.514569 113.639377 
L 247.578732 113.639377 
L 247.791564 113.489933 
L 248.004396 113.489933 
L 248.217229 113.340489 
L 251.622548 113.340489 
L 251.835381 113.191045 
L 252.048213 113.191045 
L 252.261046 113.041601 
L 252.686711 112.294381 
L 258.646019 112.294381 
L 258.858852 112.144937 
L 295.253202 112.144937 
L 295.466035 111.995493 
L 295.678867 111.397717 
L 295.8917 111.397717 
L 296.104532 111.248273 
L 297.168695 111.248273 
L 297.381527 111.098829 
L 298.658522 111.098829 
L 298.871354 110.949385 
L 299.297019 110.949385 
L 299.509852 110.799941 
L 305.256328 110.799941 
L 305.46916 110.650497 
L 347.82282 110.650497 
L 348.035652 110.501053 
L 363.146757 110.501053 
L 363.359589 110.351609 
L 363.572422 108.707724 
L 363.785254 108.408836 
L 364.210919 108.408836 
L 364.423752 108.259392 
L 375.916705 108.259392 
L 375.916705 108.259392 
" clip-path="url(#p25cb32033f)" style="fill: none; stroke: #db5f57; stroke-width: 1.2; stroke-linecap: round"/>
   </g>
   <g id="line2d_48">
    <path d="M 69.650795 491.583336 
L 69.863628 490.537228 
L 70.289293 490.537228 
L 70.502125 437.335152 
L 70.714958 428.966286 
L 71.566288 420.447976 
L 71.77912 419.10298 
L 72.843282 387.719733 
L 73.056115 369.039229 
L 73.48178 358.578147 
L 73.694612 340.345975 
L 73.907445 336.759318 
L 74.120277 335.414322 
L 75.184439 263.980074 
L 75.610104 259.945085 
L 76.461434 242.759021 
L 76.674267 227.814618 
L 77.099932 226.917954 
L 77.525596 211.076887 
L 77.738429 205.099125 
L 77.951261 204.053017 
L 78.589759 195.684151 
L 78.802591 194.339155 
L 79.015424 190.304166 
L 79.653921 188.809726 
L 79.866754 187.165841 
L 80.079586 187.016397 
L 80.292418 187.016397 
L 80.718083 185.521957 
L 80.930916 185.372513 
L 81.143748 184.924181 
L 81.569413 184.924181 
L 82.633575 181.9353 
L 82.846408 173.715878 
L 83.05924 173.267546 
L 83.272073 173.118102 
L 83.697738 171.773106 
L 83.91057 171.623662 
L 84.123403 170.876442 
L 84.336235 170.577554 
L 84.549068 170.577554 
L 84.7619 170.129222 
L 84.974733 169.382001 
L 85.187565 169.083113 
L 85.400397 168.186449 
L 85.61323 168.037005 
L 85.826062 166.692009 
L 86.251727 165.795345 
L 86.890225 165.048125 
L 87.31589 165.048125 
L 87.528722 164.749236 
L 87.741555 164.749236 
L 87.954387 164.599792 
L 88.167219 164.599792 
L 88.380052 163.703128 
L 88.592884 162.059244 
L 89.018549 162.059244 
L 89.231382 161.9098 
L 89.444214 161.610912 
L 89.657047 161.610912 
L 89.869879 161.461468 
L 90.082712 161.013136 
L 90.508376 158.771475 
L 90.721209 158.622031 
L 90.934041 157.575923 
L 91.146874 157.277035 
L 91.359706 157.277035 
L 91.572539 156.978147 
L 91.998204 155.63315 
L 92.211036 155.63315 
L 92.423869 155.334262 
L 92.636701 155.334262 
L 93.275198 153.839822 
L 93.700863 151.598162 
L 93.913696 151.598162 
L 94.126528 151.299274 
L 94.339361 150.103721 
L 94.552193 149.954277 
L 94.765026 148.609281 
L 94.977858 148.011505 
L 95.190691 147.862061 
L 95.403523 147.862061 
L 95.616356 147.413729 
L 96.04202 146.068732 
L 96.254853 145.769844 
L 96.467685 145.769844 
L 97.106183 144.275404 
L 97.319015 144.12596 
L 97.531848 143.677628 
L 97.74468 143.677628 
L 97.957513 143.229296 
L 98.170345 142.033744 
L 98.383177 142.033744 
L 99.234507 140.688747 
L 99.873005 139.493195 
L 100.511502 136.504314 
L 100.724335 134.710986 
L 100.937167 133.963766 
L 101.362832 133.963766 
L 101.575664 132.917658 
L 101.788497 132.618769 
L 102.001329 131.423217 
L 102.214162 131.423217 
L 102.426994 131.273773 
L 102.639827 130.974885 
L 102.852659 130.974885 
L 103.065492 130.825441 
L 104.980984 130.825441 
L 105.193816 130.675997 
L 105.406649 130.675997 
L 105.619481 130.526553 
L 105.832314 130.526553 
L 106.045146 130.227665 
L 107.109308 130.227665 
L 107.322141 129.928777 
L 107.747806 129.928777 
L 107.960638 129.629889 
L 108.386303 129.629889 
L 108.811968 129.331001 
L 109.0248 129.331001 
L 109.663298 128.882669 
L 110.088963 128.882669 
L 110.301795 128.733225 
L 110.514628 128.733225 
L 111.153125 127.986004 
L 112.642952 127.986004 
L 112.855785 127.83656 
L 113.28145 127.388228 
L 116.686769 127.388228 
L 117.112434 127.08934 
L 117.325266 126.790452 
L 119.879256 126.790452 
L 120.304921 126.34212 
L 120.517753 126.192676 
L 120.730586 126.192676 
L 121.156251 125.893788 
L 121.369083 125.893788 
L 121.581916 125.445456 
L 122.646078 125.445456 
L 122.85891 125.296012 
L 128.179722 125.296012 
L 128.392554 124.997124 
L 133.713366 124.997124 
L 133.926198 124.698236 
L 135.416025 124.698236 
L 135.628858 124.249904 
L 136.69302 124.249904 
L 136.905853 123.801572 
L 140.311172 123.801572 
L 140.524004 123.502683 
L 155.635109 123.502683 
L 155.847942 123.353239 
L 162.871413 123.353239 
L 163.084245 123.203795 
L 167.766559 123.203795 
L 167.979392 123.054351 
L 171.171879 123.054351 
L 171.597544 122.456575 
L 172.874538 122.456575 
L 173.087371 122.157687 
L 173.725868 122.157687 
L 173.938701 121.858799 
L 174.577198 121.858799 
L 174.79003 118.122698 
L 175.428528 118.122698 
L 175.64136 112.443825 
L 176.067025 112.443825 
L 176.279858 108.707724 
L 176.918355 108.707724 
L 177.131187 108.109948 
L 177.982517 108.109948 
L 178.19535 106.615508 
L 189.688303 106.615508 
L 189.901135 105.718844 
L 190.113967 105.5694 
L 199.052931 105.5694 
L 199.265763 105.121067 
L 200.117093 105.121067 
L 200.329926 104.971623 
L 213.099873 104.971623 
L 213.312706 104.822179 
L 214.164035 104.822179 
L 214.376868 104.672735 
L 219.059182 104.672735 
L 219.272014 104.523291 
L 242.470752 104.523291 
L 242.683585 104.373847 
L 242.896417 103.776071 
L 243.747747 103.776071 
L 243.96058 103.028851 
L 245.876072 103.028851 
L 246.088904 102.879407 
L 246.940234 102.879407 
L 247.153067 102.729963 
L 247.791564 102.729963 
L 248.004396 102.580519 
L 248.642894 102.580519 
L 248.855726 102.431075 
L 251.409716 102.431075 
L 251.622548 102.281631 
L 252.261046 102.281631 
L 252.473878 101.683855 
L 252.899543 101.683855 
L 253.112375 101.384967 
L 259.071684 101.384967 
L 259.284517 101.235523 
L 311.002804 101.235523 
L 311.215637 99.890526 
L 349.52548 99.890526 
L 349.738312 99.741082 
L 366.339244 99.741082 
L 366.552076 97.648866 
L 366.764909 97.499422 
L 375.916705 97.499422 
L 375.916705 97.499422 
" clip-path="url(#p25cb32033f)" style="fill: none; stroke: #b9db57; stroke-width: 1.2; stroke-linecap: round"/>
   </g>
   <g id="line2d_49">
    <path d="M 69.650795 487.025293 
L 70.07646 450.635671 
L 70.289293 437.335152 
L 71.140623 424.034633 
L 71.353455 423.287413 
L 72.204785 410.883558 
L 73.056115 376.212543 
L 73.48178 348.266509 
L 73.694612 342.139303 
L 73.907445 339.598755 
L 74.33311 313.894381 
L 74.971607 274.291712 
L 75.184439 271.003944 
L 75.397272 270.8545 
L 75.822937 265.026182 
L 76.674267 237.827368 
L 77.099932 236.930704 
L 77.312764 226.76851 
L 77.525596 226.320178 
L 77.738429 217.054648 
L 77.951261 216.456872 
L 78.164094 215.111875 
L 78.376926 215.111875 
L 78.802591 207.340786 
L 79.015424 203.754129 
L 79.653921 201.661913 
L 79.866754 200.316916 
L 80.079586 200.167472 
L 80.292418 199.71914 
L 80.505251 198.673032 
L 80.930916 198.673032 
L 81.143748 198.075256 
L 81.356581 198.075256 
L 81.569413 197.925812 
L 82.207911 196.431371 
L 82.633575 194.638043 
L 82.846408 188.361394 
L 83.05924 187.913062 
L 83.484905 187.614173 
L 83.91057 186.269177 
L 84.123403 186.269177 
L 84.336235 185.521957 
L 84.7619 184.924181 
L 84.974733 184.176961 
L 85.187565 183.878073 
L 85.400397 182.831964 
L 85.61323 182.68252 
L 85.826062 181.486968 
L 86.890225 180.141972 
L 87.103057 180.141972 
L 87.31589 179.992528 
L 87.528722 179.992528 
L 87.954387 179.69364 
L 88.167219 179.69364 
L 88.380052 179.245308 
L 88.592884 177.451979 
L 88.805717 177.302535 
L 89.018549 177.302535 
L 89.444214 176.854203 
L 89.657047 176.704759 
L 89.869879 176.704759 
L 90.082712 176.106983 
L 90.508376 174.014766 
L 90.721209 173.865322 
L 90.934041 172.66977 
L 91.146874 172.66977 
L 91.359706 172.370882 
L 91.785371 171.17533 
L 91.998204 171.025886 
L 92.211036 171.025886 
L 92.849534 170.129222 
L 93.700863 167.140341 
L 94.126528 166.841453 
L 94.765026 163.852572 
L 95.403523 163.105352 
L 95.616356 162.955908 
L 96.04202 161.9098 
L 96.680518 161.16258 
L 96.89335 160.265915 
L 97.106183 160.116471 
L 97.319015 159.668139 
L 97.531848 159.518695 
L 97.74468 159.518695 
L 97.957513 159.070363 
L 98.170345 157.874811 
L 98.808842 157.426479 
L 99.660172 155.782595 
L 99.873005 155.483706 
L 100.511502 152.345382 
L 100.724335 150.552053 
L 100.937167 149.804833 
L 101.362832 149.804833 
L 101.575664 148.609281 
L 101.788497 148.459837 
L 102.001329 147.413729 
L 102.214162 147.413729 
L 102.426994 146.965397 
L 102.852659 146.965397 
L 103.065492 146.815953 
L 104.768151 146.815953 
L 104.980984 146.666509 
L 105.406649 146.666509 
L 105.619481 146.36762 
L 105.832314 146.36762 
L 106.257978 146.068732 
L 107.109308 146.068732 
L 107.322141 145.769844 
L 107.747806 145.769844 
L 108.386303 145.321512 
L 108.599136 145.321512 
L 108.811968 145.172068 
L 109.0248 145.172068 
L 109.237633 145.022624 
L 109.450465 144.723736 
L 110.088963 144.723736 
L 110.301795 144.574292 
L 110.940293 143.827072 
L 112.642952 143.827072 
L 112.855785 143.677628 
L 113.28145 143.229296 
L 116.473937 143.229296 
L 116.686769 143.079852 
L 117.112434 142.63152 
L 119.666423 142.63152 
L 120.092088 142.183188 
L 120.304921 142.033744 
L 120.943418 142.033744 
L 121.156251 141.884299 
L 121.369083 141.884299 
L 121.581916 141.585411 
L 122.646078 141.585411 
L 122.85891 141.435967 
L 127.754057 141.435967 
L 128.179722 141.137079 
L 132.862036 141.137079 
L 133.074868 140.838191 
L 134.564696 140.838191 
L 134.777528 140.539303 
L 135.416025 140.539303 
L 135.628858 140.389859 
L 135.84169 140.389859 
L 136.054523 140.090971 
L 139.034177 140.090971 
L 139.24701 139.941527 
L 155.209444 139.941527 
L 155.422277 139.792083 
L 163.084245 139.792083 
L 163.297078 139.642639 
L 164.999737 139.642639 
L 165.21257 139.343751 
L 167.979392 139.343751 
L 168.192224 138.895419 
L 173.087371 138.895419 
L 173.513036 138.297643 
L 174.151533 138.297643 
L 174.364365 137.849311 
L 174.577198 137.849311 
L 175.002863 132.319881 
L 175.215695 132.319881 
L 175.428528 131.423217 
L 175.64136 131.423217 
L 176.067025 126.939896 
L 176.279858 126.939896 
L 176.49269 126.34212 
L 176.705523 126.34212 
L 177.131187 125.744344 
L 177.34402 125.744344 
L 177.556852 125.5949 
L 177.769685 124.997124 
L 178.19535 124.698236 
L 178.408182 124.698236 
L 178.621015 124.548792 
L 178.833847 124.548792 
L 179.04668 124.10046 
L 181.600669 124.10046 
L 181.813502 123.951016 
L 186.921481 123.951016 
L 187.134313 123.801572 
L 198.840098 123.801572 
L 199.052931 123.203795 
L 212.674208 123.203795 
L 212.887041 123.054351 
L 213.951203 123.054351 
L 214.164035 122.904907 
L 218.207852 122.904907 
L 218.420685 122.755463 
L 239.703931 122.755463 
L 239.916763 122.606019 
L 241.193758 122.606019 
L 241.40659 122.307131 
L 242.470752 122.307131 
L 243.322082 121.261023 
L 245.876072 121.261023 
L 246.088904 121.111579 
L 246.301737 121.111579 
L 246.514569 120.962135 
L 247.578732 120.962135 
L 247.791564 120.812691 
L 248.004396 120.812691 
L 248.217229 120.663247 
L 248.430061 120.663247 
L 248.642894 120.513803 
L 250.984051 120.513803 
L 251.196883 120.364359 
L 252.261046 120.364359 
L 252.686711 119.467695 
L 258.646019 119.467695 
L 258.858852 119.318251 
L 295.253202 119.318251 
L 295.466035 119.168807 
L 295.8917 118.57103 
L 296.104532 118.57103 
L 296.317365 118.421586 
L 298.445689 118.421586 
L 298.658522 118.272142 
L 298.871354 118.272142 
L 299.084187 118.122698 
L 363.359589 118.122698 
L 363.572422 116.777702 
L 363.785254 116.32937 
L 364.423752 116.32937 
L 364.636584 116.179926 
L 375.916705 116.179926 
L 375.916705 116.179926 
" clip-path="url(#p25cb32033f)" style="fill: none; stroke: #57db94; stroke-width: 1.2; stroke-linecap: round"/>
   </g>
   <g id="line2d_50">
    <path d="M 69.650795 491.583336 
L 70.07646 459.751757 
L 70.502125 457.360652 
L 70.714958 440.473477 
L 71.140623 429.86295 
L 71.353455 429.265174 
L 71.566288 426.575182 
L 71.77912 425.977405 
L 72.63045 407.894678 
L 72.843282 394.893047 
L 73.056115 390.110838 
L 73.268947 372.924774 
L 73.48178 365.00424 
L 73.694612 349.312617 
L 73.907445 347.519288 
L 74.758774 298.202758 
L 74.971607 283.407798 
L 75.184439 282.660578 
L 75.610104 274.291712 
L 75.822937 270.705056 
L 76.035769 270.406168 
L 76.461434 249.633447 
L 76.674267 248.288451 
L 76.887099 243.207354 
L 77.099932 242.310689 
L 77.312764 230.654055 
L 77.525596 229.309059 
L 77.738429 221.537969 
L 77.951261 220.043529 
L 78.164094 216.00854 
L 78.376926 215.859096 
L 78.589759 211.076887 
L 78.802591 210.927443 
L 79.015424 207.041898 
L 79.228256 206.74301 
L 79.441089 205.696901 
L 79.653921 205.248569 
L 80.079586 203.455241 
L 80.292418 202.857465 
L 80.505251 201.661913 
L 81.143748 201.21358 
L 81.356581 200.765248 
L 81.569413 200.615804 
L 81.995078 199.868584 
L 82.207911 199.420252 
L 82.420743 198.523588 
L 82.633575 198.2247 
L 82.846408 191.798606 
L 83.05924 191.798606 
L 83.272073 191.350274 
L 83.484905 191.20083 
L 83.697738 190.304166 
L 83.91057 190.005278 
L 84.123403 189.108614 
L 84.336235 188.809726 
L 84.549068 188.809726 
L 84.7619 188.660282 
L 84.974733 188.660282 
L 85.400397 186.568065 
L 85.61323 186.119733 
L 85.826062 185.073625 
L 86.038895 185.073625 
L 86.46456 184.027517 
L 86.677392 183.728629 
L 86.890225 183.130852 
L 87.528722 183.130852 
L 87.741555 182.831964 
L 87.954387 182.831964 
L 88.167219 182.68252 
L 88.380052 182.68252 
L 88.592884 180.739748 
L 89.231382 180.739748 
L 89.444214 180.291416 
L 89.657047 180.141972 
L 89.869879 180.141972 
L 90.082712 179.544196 
L 90.295544 178.348643 
L 90.508376 178.348643 
L 91.146874 176.106983 
L 91.785371 176.106983 
L 91.998204 174.612543 
L 92.211036 174.612543 
L 92.423869 174.313655 
L 92.849534 174.313655 
L 93.275198 172.819214 
L 94.339361 169.830334 
L 94.552193 169.830334 
L 94.765026 168.634781 
L 94.977858 168.634781 
L 95.190691 168.186449 
L 95.403523 168.186449 
L 95.829188 167.887561 
L 96.467685 167.887561 
L 96.680518 167.588673 
L 97.106183 166.243677 
L 97.319015 166.243677 
L 97.957513 165.347013 
L 98.170345 163.852572 
L 98.59601 163.40424 
L 98.808842 163.254796 
L 100.085837 160.564804 
L 100.29867 159.219807 
L 100.511502 158.920919 
L 100.937167 156.230927 
L 101.149999 156.081483 
L 101.575664 156.081483 
L 102.001329 153.989266 
L 102.639827 153.242046 
L 102.852659 153.242046 
L 103.065492 152.943158 
L 103.916821 152.943158 
L 104.129654 152.793714 
L 104.768151 152.793714 
L 104.980984 152.64427 
L 105.619481 152.64427 
L 105.832314 152.195938 
L 106.257978 151.89705 
L 107.109308 151.89705 
L 107.322141 151.747606 
L 107.960638 151.747606 
L 108.173471 151.448718 
L 108.386303 151.448718 
L 108.811968 151.14983 
L 109.237633 151.14983 
L 109.450465 150.701497 
L 110.088963 150.701497 
L 110.301795 150.552053 
L 110.940293 149.804833 
L 112.004455 149.804833 
L 112.217287 149.655389 
L 112.855785 149.655389 
L 113.068617 149.505945 
L 113.28145 149.057613 
L 116.686769 149.057613 
L 117.112434 148.609281 
L 119.666423 148.609281 
L 119.879256 148.459837 
L 120.092088 148.459837 
L 120.304921 148.310393 
L 120.943418 148.310393 
L 121.156251 148.011505 
L 121.581916 148.011505 
L 121.794748 147.563173 
L 122.00758 147.563173 
L 122.220413 147.413729 
L 127.966889 147.413729 
L 128.179722 147.114841 
L 132.862036 147.114841 
L 133.074868 146.815953 
L 134.99036 146.815953 
L 135.628858 146.36762 
L 136.905853 146.36762 
L 137.118685 145.919288 
L 139.459842 145.919288 
L 139.672675 145.769844 
L 140.09834 145.769844 
L 140.311172 145.6204 
L 156.273606 145.6204 
L 156.699271 145.321512 
L 164.999737 145.321512 
L 165.21257 144.574292 
L 167.979392 144.574292 
L 168.192224 144.275404 
L 172.874538 144.275404 
L 173.300203 143.976516 
L 173.513036 143.677628 
L 174.79003 143.677628 
L 175.002863 139.792083 
L 175.215695 139.792083 
L 175.428528 138.596531 
L 175.64136 138.596531 
L 175.854193 136.653758 
L 176.49269 136.653758 
L 176.705523 133.515434 
L 177.131187 133.515434 
L 177.34402 133.216546 
L 177.556852 133.216546 
L 177.769685 132.618769 
L 177.982517 132.618769 
L 178.19535 132.020993 
L 178.621015 132.020993 
L 178.833847 131.722105 
L 179.04668 131.722105 
L 179.259512 131.423217 
L 179.898009 131.423217 
L 180.110842 131.273773 
L 181.813502 131.273773 
L 182.026334 131.124329 
L 182.451999 131.124329 
L 182.664831 130.974885 
L 187.134313 130.974885 
L 187.347146 130.825441 
L 199.265763 130.825441 
L 199.478596 130.227665 
L 213.525538 130.227665 
L 213.951203 129.928777 
L 218.207852 129.928777 
L 218.420685 129.779333 
L 239.703931 129.779333 
L 239.916763 129.629889 
L 241.193758 129.629889 
L 241.40659 129.331001 
L 242.470752 129.331001 
L 243.322082 128.284893 
L 245.876072 128.284893 
L 246.088904 128.135448 
L 246.301737 128.135448 
L 246.514569 127.83656 
L 247.791564 127.83656 
L 248.004396 127.687116 
L 248.430061 127.687116 
L 248.642894 127.537672 
L 251.196883 127.537672 
L 251.409716 127.388228 
L 252.261046 127.388228 
L 252.686711 126.491564 
L 258.646019 126.491564 
L 258.858852 126.34212 
L 295.253202 126.34212 
L 295.466035 126.192676 
L 295.678867 125.5949 
L 296.104532 125.5949 
L 296.317365 125.445456 
L 297.381527 125.445456 
L 297.594359 125.296012 
L 298.445689 125.296012 
L 298.658522 125.146568 
L 299.084187 125.146568 
L 299.297019 124.997124 
L 304.617831 124.997124 
L 304.830663 124.84768 
L 348.035652 124.84768 
L 348.248485 124.698236 
L 363.359589 124.698236 
L 363.572422 123.502683 
L 363.785254 123.502683 
L 363.998087 123.054351 
L 364.423752 123.054351 
L 364.636584 122.904907 
L 375.916705 122.904907 
L 375.916705 122.904907 
" clip-path="url(#p25cb32033f)" style="fill: none; stroke: #5784db; stroke-width: 1.2; stroke-linecap: round"/>
   </g>
   <g id="line2d_51">
    <path d="M 69.650795 486.651683 
L 70.07646 445.106242 
L 70.289293 435.242936 
L 71.140623 421.494085 
L 71.353455 420.59742 
L 71.566288 417.907428 
L 72.204785 404.457465 
L 72.63045 392.80083 
L 73.694612 335.264878 
L 73.907445 333.172661 
L 74.758774 268.762283 
L 75.184439 258.898977 
L 75.397272 256.806761 
L 76.035769 244.55235 
L 76.248602 237.976812 
L 76.461434 224.078517 
L 76.674267 221.986301 
L 76.887099 221.687413 
L 77.099932 220.342417 
L 77.312764 208.835226 
L 77.525596 204.949681 
L 77.738429 198.97192 
L 77.951261 198.075256 
L 78.164094 194.040267 
L 78.376926 192.396383 
L 78.589759 189.258058 
L 78.802591 188.95917 
L 79.015424 184.924181 
L 79.228256 184.625293 
L 79.441089 183.878073 
L 79.653921 183.579185 
L 79.866754 181.785856 
L 80.079586 181.785856 
L 80.505251 179.992528 
L 80.718083 179.992528 
L 80.930916 179.843084 
L 81.143748 179.245308 
L 81.356581 179.245308 
L 81.569413 179.095864 
L 82.420743 177.302535 
L 82.633575 170.42811 
L 82.846408 168.485337 
L 83.272073 168.037005 
L 83.697738 166.542565 
L 84.336235 165.347013 
L 84.7619 164.898681 
L 85.187565 162.955908 
L 85.400397 162.65702 
L 85.61323 161.610912 
L 86.677392 159.219807 
L 87.103057 159.219807 
L 87.528722 158.920919 
L 87.741555 158.920919 
L 87.954387 158.771475 
L 88.167219 158.771475 
L 88.380052 156.978147 
L 88.592884 156.380371 
L 89.018549 156.380371 
L 89.444214 155.932039 
L 89.657047 155.782595 
L 89.869879 155.782595 
L 90.295544 153.989266 
L 90.508376 153.092602 
L 90.721209 152.943158 
L 90.934041 151.747606 
L 91.146874 151.598162 
L 91.572539 150.850941 
L 91.785371 150.103721 
L 91.998204 149.954277 
L 92.211036 149.954277 
L 92.636701 149.207057 
L 93.275198 147.264285 
L 94.339361 144.275404 
L 94.552193 142.930408 
L 94.977858 142.183188 
L 95.190691 142.033744 
L 95.403523 141.585411 
L 95.616356 141.435967 
L 96.254853 139.941527 
L 96.467685 139.642639 
L 96.89335 138.596531 
L 97.531848 137.849311 
L 97.74468 137.849311 
L 97.957513 137.400979 
L 98.170345 136.055982 
L 98.383177 135.757094 
L 98.59601 135.757094 
L 98.808842 135.60765 
L 99.44734 134.11321 
L 99.660172 133.963766 
L 99.873005 133.515434 
L 100.511502 130.526553 
L 100.724335 128.882669 
L 100.937167 128.135448 
L 101.362832 128.135448 
L 101.575664 126.790452 
L 101.788497 126.641008 
L 102.001329 125.445456 
L 102.214162 125.445456 
L 102.426994 124.997124 
L 102.852659 124.997124 
L 103.065492 124.698236 
L 104.768151 124.698236 
L 104.980984 124.548792 
L 105.406649 124.548792 
L 105.619481 124.10046 
L 105.832314 124.10046 
L 106.045146 123.801572 
L 106.896476 123.801572 
L 107.322141 123.502683 
L 107.747806 123.502683 
L 107.960638 123.203795 
L 108.173471 123.203795 
L 108.386303 123.054351 
L 108.599136 123.054351 
L 108.811968 122.904907 
L 109.0248 122.904907 
L 109.237633 122.755463 
L 109.450465 122.456575 
L 109.87613 122.456575 
L 110.088963 122.307131 
L 110.301795 122.307131 
L 110.940293 121.559911 
L 112.642952 121.559911 
L 112.855785 121.410467 
L 113.28145 120.962135 
L 116.473937 120.962135 
L 117.112434 120.513803 
L 119.666423 120.513803 
L 120.092088 120.065471 
L 120.304921 119.916027 
L 120.730586 119.916027 
L 121.156251 119.617139 
L 121.369083 119.617139 
L 121.581916 119.168807 
L 121.794748 119.168807 
L 122.00758 119.019362 
L 122.646078 119.019362 
L 122.85891 118.869918 
L 127.754057 118.869918 
L 127.966889 118.57103 
L 132.862036 118.57103 
L 133.074868 118.272142 
L 134.564696 118.272142 
L 134.777528 117.973254 
L 135.203193 117.973254 
L 135.628858 117.674366 
L 135.84169 117.674366 
L 136.054523 117.375478 
L 139.034177 117.375478 
L 139.24701 117.226034 
L 140.09834 117.226034 
L 140.311172 117.07659 
L 155.209444 117.07659 
L 155.422277 116.927146 
L 156.486439 116.927146 
L 156.699271 116.777702 
L 162.871413 116.777702 
L 163.084245 116.628258 
L 164.786905 116.628258 
L 164.999737 115.58215 
L 167.766559 115.58215 
L 167.979392 115.432706 
L 168.192224 115.133818 
L 172.661706 115.133818 
L 173.087371 114.83493 
L 173.300203 114.83493 
L 173.513036 114.536042 
L 174.151533 114.536042 
L 174.364365 114.087709 
L 174.79003 107.81106 
L 175.428528 106.017732 
L 175.854193 102.879407 
L 176.067025 101.384967 
L 176.705523 100.189414 
L 176.918355 100.189414 
L 177.34402 99.741082 
L 177.556852 99.591638 
L 177.982517 98.694974 
L 178.408182 98.694974 
L 178.833847 98.246642 
L 179.04668 98.097198 
L 181.600669 98.097198 
L 181.813502 97.947754 
L 182.451999 97.947754 
L 182.664831 97.79831 
L 186.921481 97.79831 
L 187.134313 97.648866 
L 198.627266 97.648866 
L 198.840098 97.200534 
L 199.052931 97.05109 
L 212.461376 97.05109 
L 212.674208 96.901646 
L 213.73837 96.901646 
L 213.951203 96.752202 
L 218.207852 96.752202 
L 218.420685 96.602758 
L 239.703931 96.602758 
L 239.916763 96.453314 
L 241.193758 96.453314 
L 241.40659 96.154426 
L 242.470752 96.154426 
L 243.322082 95.108317 
L 245.876072 95.108317 
L 246.514569 94.659985 
L 247.578732 94.659985 
L 247.791564 94.510541 
L 248.004396 94.510541 
L 248.217229 94.361097 
L 250.984051 94.361097 
L 251.196883 94.211653 
L 252.048213 94.211653 
L 252.261046 94.062209 
L 252.686711 93.314989 
L 258.646019 93.314989 
L 258.858852 93.165545 
L 295.253202 93.165545 
L 295.466035 93.016101 
L 295.678867 92.418325 
L 295.8917 92.418325 
L 296.104532 92.268881 
L 297.168695 92.268881 
L 297.381527 92.119437 
L 298.445689 92.119437 
L 298.658522 91.969993 
L 298.871354 91.969993 
L 299.084187 91.820549 
L 304.617831 91.820549 
L 304.830663 91.671105 
L 347.82282 91.671105 
L 348.035652 91.52166 
L 363.146757 91.52166 
L 363.359589 91.372216 
L 363.572422 89.728332 
L 363.785254 89.429444 
L 364.210919 89.429444 
L 364.423752 89.28 
L 375.916705 89.28 
L 375.916705 89.28 
" clip-path="url(#p25cb32033f)" style="fill: none; stroke: #c957db; stroke-width: 1.2; stroke-linecap: round"/>
   </g>
   <g id="line2d_52"/>
   <g id="line2d_53"/>
   <g id="line2d_54"/>
   <g id="line2d_55"/>
   <g id="line2d_56"/>
   <g id="patch_3">
    <path d="M 54.3375 512.64 
L 54.3375 69.12 
" style="fill: none; stroke: #cccccc; stroke-linejoin: miter; stroke-linecap: square"/>
   </g>
   <g id="patch_4">
    <path d="M 54.3375 512.64 
L 391.23 512.64 
" style="fill: none; stroke: #cccccc; stroke-linejoin: miter; stroke-linecap: square"/>
   </g>
   <g id="text_49">
    <!-- Edge Coverage History -->
    <g style="fill: #262626" transform="translate(115.892262 63.12)scale(0.165888 -0.165888)">
     <defs>
      <path id="DejaVuSans-Bold-45" d="M 588 4666 
L 3834 4666 
L 3834 3756 
L 1791 3756 
L 1791 2888 
L 3713 2888 
L 3713 1978 
L 1791 1978 
L 1791 909 
L 3903 909 
L 3903 0 
L 588 0 
L 588 4666 
z
" transform="scale(0.015625)"/>
      <path id="DejaVuSans-Bold-64" d="M 2919 2988 
L 2919 4863 
L 4044 4863 
L 4044 0 
L 2919 0 
L 2919 506 
Q 2688 197 2409 53 
Q 2131 -91 1766 -91 
Q 1119 -91 703 423 
Q 288 938 288 1747 
Q 288 2556 703 3070 
Q 1119 3584 1766 3584 
Q 2128 3584 2408 3439 
Q 2688 3294 2919 2988 
z
M 2181 722 
Q 2541 722 2730 984 
Q 2919 1247 2919 1747 
Q 2919 2247 2730 2509 
Q 2541 2772 2181 2772 
Q 1825 2772 1636 2509 
Q 1447 2247 1447 1747 
Q 1447 1247 1636 984 
Q 1825 722 2181 722 
z
" transform="scale(0.015625)"/>
      <path id="DejaVuSans-Bold-67" d="M 2919 594 
Q 2688 288 2409 144 
Q 2131 0 1766 0 
Q 1125 0 706 504 
Q 288 1009 288 1791 
Q 288 2575 706 3076 
Q 1125 3578 1766 3578 
Q 2131 3578 2409 3434 
Q 2688 3291 2919 2981 
L 2919 3500 
L 4044 3500 
L 4044 353 
Q 4044 -491 3511 -936 
Q 2978 -1381 1966 -1381 
Q 1638 -1381 1331 -1331 
Q 1025 -1281 716 -1178 
L 716 -306 
Q 1009 -475 1290 -558 
Q 1572 -641 1856 -641 
Q 2406 -641 2662 -400 
Q 2919 -159 2919 353 
L 2919 594 
z
M 2181 2772 
Q 1834 2772 1640 2515 
Q 1447 2259 1447 1791 
Q 1447 1309 1634 1061 
Q 1822 813 2181 813 
Q 2531 813 2725 1069 
Q 2919 1325 2919 1791 
Q 2919 2259 2725 2515 
Q 2531 2772 2181 2772 
z
" transform="scale(0.015625)"/>
      <path id="DejaVuSans-Bold-65" d="M 4031 1759 
L 4031 1441 
L 1416 1441 
Q 1456 1047 1700 850 
Q 1944 653 2381 653 
Q 2734 653 3104 758 
Q 3475 863 3866 1075 
L 3866 213 
Q 3469 63 3072 -14 
Q 2675 -91 2278 -91 
Q 1328 -91 801 392 
Q 275 875 275 1747 
Q 275 2603 792 3093 
Q 1309 3584 2216 3584 
Q 3041 3584 3536 3087 
Q 4031 2591 4031 1759 
z
M 2881 2131 
Q 2881 2450 2695 2645 
Q 2509 2841 2209 2841 
Q 1884 2841 1681 2658 
Q 1478 2475 1428 2131 
L 2881 2131 
z
" transform="scale(0.015625)"/>
      <path id="DejaVuSans-Bold-20" transform="scale(0.015625)"/>
      <path id="DejaVuSans-Bold-43" d="M 4288 256 
Q 3956 84 3597 -3 
Q 3238 -91 2847 -91 
Q 1681 -91 1000 561 
Q 319 1213 319 2328 
Q 319 3447 1000 4098 
Q 1681 4750 2847 4750 
Q 3238 4750 3597 4662 
Q 3956 4575 4288 4403 
L 4288 3438 
Q 3953 3666 3628 3772 
Q 3303 3878 2944 3878 
Q 2300 3878 1931 3465 
Q 1563 3053 1563 2328 
Q 1563 1606 1931 1193 
Q 2300 781 2944 781 
Q 3303 781 3628 887 
Q 3953 994 4288 1222 
L 4288 256 
z
" transform="scale(0.015625)"/>
      <path id="DejaVuSans-Bold-6f" d="M 2203 2784 
Q 1831 2784 1636 2517 
Q 1441 2250 1441 1747 
Q 1441 1244 1636 976 
Q 1831 709 2203 709 
Q 2569 709 2762 976 
Q 2956 1244 2956 1747 
Q 2956 2250 2762 2517 
Q 2569 2784 2203 2784 
z
M 2203 3584 
Q 3106 3584 3614 3096 
Q 4122 2609 4122 1747 
Q 4122 884 3614 396 
Q 3106 -91 2203 -91 
Q 1297 -91 786 396 
Q 275 884 275 1747 
Q 275 2609 786 3096 
Q 1297 3584 2203 3584 
z
" transform="scale(0.015625)"/>
      <path id="DejaVuSans-Bold-76" d="M 97 3500 
L 1216 3500 
L 2088 1081 
L 2956 3500 
L 4078 3500 
L 2700 0 
L 1472 0 
L 97 3500 
z
" transform="scale(0.015625)"/>
      <path id="DejaVuSans-Bold-72" d="M 3138 2547 
Q 2991 2616 2845 2648 
Q 2700 2681 2553 2681 
Q 2122 2681 1889 2404 
Q 1656 2128 1656 1613 
L 1656 0 
L 538 0 
L 538 3500 
L 1656 3500 
L 1656 2925 
Q 1872 3269 2151 3426 
Q 2431 3584 2822 3584 
Q 2878 3584 2943 3579 
Q 3009 3575 3134 3559 
L 3138 2547 
z
" transform="scale(0.015625)"/>
      <path id="DejaVuSans-Bold-61" d="M 2106 1575 
Q 1756 1575 1579 1456 
Q 1403 1338 1403 1106 
Q 1403 894 1545 773 
Q 1688 653 1941 653 
Q 2256 653 2472 879 
Q 2688 1106 2688 1447 
L 2688 1575 
L 2106 1575 
z
M 3816 1997 
L 3816 0 
L 2688 0 
L 2688 519 
Q 2463 200 2181 54 
Q 1900 -91 1497 -91 
Q 953 -91 614 226 
Q 275 544 275 1050 
Q 275 1666 698 1953 
Q 1122 2241 2028 2241 
L 2688 2241 
L 2688 2328 
Q 2688 2594 2478 2717 
Q 2269 2841 1825 2841 
Q 1466 2841 1156 2769 
Q 847 2697 581 2553 
L 581 3406 
Q 941 3494 1303 3539 
Q 1666 3584 2028 3584 
Q 2975 3584 3395 3211 
Q 3816 2838 3816 1997 
z
" transform="scale(0.015625)"/>
      <path id="DejaVuSans-Bold-48" d="M 588 4666 
L 1791 4666 
L 1791 2888 
L 3566 2888 
L 3566 4666 
L 4769 4666 
L 4769 0 
L 3566 0 
L 3566 1978 
L 1791 1978 
L 1791 0 
L 588 0 
L 588 4666 
z
" transform="scale(0.015625)"/>
      <path id="DejaVuSans-Bold-69" d="M 538 3500 
L 1656 3500 
L 1656 0 
L 538 0 
L 538 3500 
z
M 538 4863 
L 1656 4863 
L 1656 3950 
L 538 3950 
L 538 4863 
z
" transform="scale(0.015625)"/>
      <path id="DejaVuSans-Bold-73" d="M 3272 3391 
L 3272 2541 
Q 2913 2691 2578 2766 
Q 2244 2841 1947 2841 
Q 1628 2841 1473 2761 
Q 1319 2681 1319 2516 
Q 1319 2381 1436 2309 
Q 1553 2238 1856 2203 
L 2053 2175 
Q 2913 2066 3209 1816 
Q 3506 1566 3506 1031 
Q 3506 472 3093 190 
Q 2681 -91 1863 -91 
Q 1516 -91 1145 -36 
Q 775 19 384 128 
L 384 978 
Q 719 816 1070 734 
Q 1422 653 1784 653 
Q 2113 653 2278 743 
Q 2444 834 2444 1013 
Q 2444 1163 2330 1236 
Q 2216 1309 1875 1350 
L 1678 1375 
Q 931 1469 631 1722 
Q 331 1975 331 2491 
Q 331 3047 712 3315 
Q 1094 3584 1881 3584 
Q 2191 3584 2531 3537 
Q 2872 3491 3272 3391 
z
" transform="scale(0.015625)"/>
      <path id="DejaVuSans-Bold-74" d="M 1759 4494 
L 1759 3500 
L 2913 3500 
L 2913 2700 
L 1759 2700 
L 1759 1216 
Q 1759 972 1856 886 
Q 1953 800 2241 800 
L 2816 800 
L 2816 0 
L 1856 0 
Q 1194 0 917 276 
Q 641 553 641 1216 
L 641 2700 
L 84 2700 
L 84 3500 
L 641 3500 
L 641 4494 
L 1759 4494 
z
" transform="scale(0.015625)"/>
      <path id="DejaVuSans-Bold-79" d="M 78 3500 
L 1197 3500 
L 2138 1125 
L 2938 3500 
L 4056 3500 
L 2584 -331 
Q 2363 -916 2067 -1148 
Q 1772 -1381 1288 -1381 
L 641 -1381 
L 641 -647 
L 991 -647 
Q 1275 -647 1404 -556 
Q 1534 -466 1606 -231 
L 1638 -134 
L 78 3500 
z
" transform="scale(0.015625)"/>
     </defs>
     <use xlink:href="#DejaVuSans-Bold-45"/>
     <use xlink:href="#DejaVuSans-Bold-64" x="68.310547"/>
     <use xlink:href="#DejaVuSans-Bold-67" x="139.892578"/>
     <use xlink:href="#DejaVuSans-Bold-65" x="211.474609"/>
     <use xlink:href="#DejaVuSans-Bold-20" x="279.296875"/>
     <use xlink:href="#DejaVuSans-Bold-43" x="314.111328"/>
     <use xlink:href="#DejaVuSans-Bold-6f" x="387.5"/>
     <use xlink:href="#DejaVuSans-Bold-76" x="456.201172"/>
     <use xlink:href="#DejaVuSans-Bold-65" x="521.386719"/>
     <use xlink:href="#DejaVuSans-Bold-72" x="589.208984"/>
     <use xlink:href="#DejaVuSans-Bold-61" x="638.525391"/>
     <use xlink:href="#DejaVuSans-Bold-67" x="706.005859"/>
     <use xlink:href="#DejaVuSans-Bold-65" x="777.587891"/>
     <use xlink:href="#DejaVuSans-Bold-20" x="845.410156"/>
     <use xlink:href="#DejaVuSans-Bold-48" x="880.224609"/>
     <use xlink:href="#DejaVuSans-Bold-69" x="963.916016"/>
     <use xlink:href="#DejaVuSans-Bold-73" x="998.193359"/>
     <use xlink:href="#DejaVuSans-Bold-74" x="1057.714844"/>
     <use xlink:href="#DejaVuSans-Bold-6f" x="1105.517578"/>
     <use xlink:href="#DejaVuSans-Bold-72" x="1174.21875"/>
     <use xlink:href="#DejaVuSans-Bold-79" x="1223.535156"/>
    </g>
   </g>
   <g id="legend_1">
    <g id="patch_5">
     <path d="M 273.541 508.24 
L 385.07 508.24 
Q 386.83 508.24 386.83 506.48 
L 386.83 428.8405 
Q 386.83 427.0805 385.07 427.0805 
L 273.541 427.0805 
Q 271.781 427.0805 271.781 428.8405 
L 271.781 506.48 
Q 271.781 508.24 273.541 508.24 
z
" style="fill: #ffffff; opacity: 0.8; stroke: #cccccc; stroke-width: 0.8; stroke-linejoin: miter"/>
    </g>
    <g id="text_50">
     <!-- fuzzer -->
     <g style="fill: #262626" transform="translate(314.6085 437.895)scale(0.096 -0.096)">
      <defs>
       <path id="DejaVuSans-66" d="M 2375 4863 
L 2375 4384 
L 1825 4384 
Q 1516 4384 1395 4259 
Q 1275 4134 1275 3809 
L 1275 3500 
L 2222 3500 
L 2222 3053 
L 1275 3053 
L 1275 0 
L 697 0 
L 697 3053 
L 147 3053 
L 147 3500 
L 697 3500 
L 697 3744 
Q 697 4328 969 4595 
Q 1241 4863 1831 4863 
L 2375 4863 
z
" transform="scale(0.015625)"/>
       <path id="DejaVuSans-7a" d="M 353 3500 
L 3084 3500 
L 3084 2975 
L 922 459 
L 3084 459 
L 3084 0 
L 275 0 
L 275 525 
L 2438 3041 
L 353 3041 
L 353 3500 
z
" transform="scale(0.015625)"/>
      </defs>
      <use xlink:href="#DejaVuSans-66"/>
      <use xlink:href="#DejaVuSans-75" x="35.205078"/>
      <use xlink:href="#DejaVuSans-7a" x="98.583984"/>
      <use xlink:href="#DejaVuSans-7a" x="151.074219"/>
      <use xlink:href="#DejaVuSans-65" x="203.564453"/>
      <use xlink:href="#DejaVuSans-72" x="265.087891"/>
     </g>
    </g>
    <g id="line2d_57">
     <path d="M 275.301 447.898125 
L 284.101 447.898125 
L 292.901 447.898125 
" style="fill: none; stroke: #db5f57; stroke-width: 1.2; stroke-linecap: round"/>
    </g>
    <g id="text_51">
     <!-- fairfuzz-0-exid2 -->
     <g style="fill: #262626" transform="translate(299.941 450.978125)scale(0.088 -0.088)">
      <defs>
       <path id="DejaVuSans-2d" d="M 313 2009 
L 1997 2009 
L 1997 1497 
L 313 1497 
L 313 2009 
z
" transform="scale(0.015625)"/>
       <path id="DejaVuSans-78" d="M 3513 3500 
L 2247 1797 
L 3578 0 
L 2900 0 
L 1881 1375 
L 863 0 
L 184 0 
L 1544 1831 
L 300 3500 
L 978 3500 
L 1906 2253 
L 2834 3500 
L 3513 3500 
z
" transform="scale(0.015625)"/>
      </defs>
      <use xlink:href="#DejaVuSans-66"/>
      <use xlink:href="#DejaVuSans-61" x="35.205078"/>
      <use xlink:href="#DejaVuSans-69" x="96.484375"/>
      <use xlink:href="#DejaVuSans-72" x="124.267578"/>
      <use xlink:href="#DejaVuSans-66" x="165.380859"/>
      <use xlink:href="#DejaVuSans-75" x="200.585938"/>
      <use xlink:href="#DejaVuSans-7a" x="263.964844"/>
      <use xlink:href="#DejaVuSans-7a" x="316.455078"/>
      <use xlink:href="#DejaVuSans-2d" x="368.945312"/>
      <use xlink:href="#DejaVuSans-30" x="405.029297"/>
      <use xlink:href="#DejaVuSans-2d" x="468.652344"/>
      <use xlink:href="#DejaVuSans-65" x="504.736328"/>
      <use xlink:href="#DejaVuSans-78" x="564.509766"/>
      <use xlink:href="#DejaVuSans-69" x="623.689453"/>
      <use xlink:href="#DejaVuSans-64" x="651.472656"/>
      <use xlink:href="#DejaVuSans-32" x="714.949219"/>
     </g>
    </g>
    <g id="line2d_58">
     <path d="M 275.301 460.814875 
L 284.101 460.814875 
L 292.901 460.814875 
" style="fill: none; stroke: #b9db57; stroke-width: 1.2; stroke-linecap: round"/>
    </g>
    <g id="text_52">
     <!-- aflplusplus-0-exid2 -->
     <g style="fill: #262626" transform="translate(299.941 463.894875)scale(0.088 -0.088)">
      <defs>
       <path id="DejaVuSans-6c" d="M 603 4863 
L 1178 4863 
L 1178 0 
L 603 0 
L 603 4863 
z
" transform="scale(0.015625)"/>
       <path id="DejaVuSans-70" d="M 1159 525 
L 1159 -1331 
L 581 -1331 
L 581 3500 
L 1159 3500 
L 1159 2969 
Q 1341 3281 1617 3432 
Q 1894 3584 2278 3584 
Q 2916 3584 3314 3078 
Q 3713 2572 3713 1747 
Q 3713 922 3314 415 
Q 2916 -91 2278 -91 
Q 1894 -91 1617 61 
Q 1341 213 1159 525 
z
M 3116 1747 
Q 3116 2381 2855 2742 
Q 2594 3103 2138 3103 
Q 1681 3103 1420 2742 
Q 1159 2381 1159 1747 
Q 1159 1113 1420 752 
Q 1681 391 2138 391 
Q 2594 391 2855 752 
Q 3116 1113 3116 1747 
z
" transform="scale(0.015625)"/>
      </defs>
      <use xlink:href="#DejaVuSans-61"/>
      <use xlink:href="#DejaVuSans-66" x="61.279297"/>
      <use xlink:href="#DejaVuSans-6c" x="96.484375"/>
      <use xlink:href="#DejaVuSans-70" x="124.267578"/>
      <use xlink:href="#DejaVuSans-6c" x="187.744141"/>
      <use xlink:href="#DejaVuSans-75" x="215.527344"/>
      <use xlink:href="#DejaVuSans-73" x="278.90625"/>
      <use xlink:href="#DejaVuSans-70" x="331.005859"/>
      <use xlink:href="#DejaVuSans-6c" x="394.482422"/>
      <use xlink:href="#DejaVuSans-75" x="422.265625"/>
      <use xlink:href="#DejaVuSans-73" x="485.644531"/>
      <use xlink:href="#DejaVuSans-2d" x="537.744141"/>
      <use xlink:href="#DejaVuSans-30" x="573.828125"/>
      <use xlink:href="#DejaVuSans-2d" x="637.451172"/>
      <use xlink:href="#DejaVuSans-65" x="673.535156"/>
      <use xlink:href="#DejaVuSans-78" x="733.308594"/>
      <use xlink:href="#DejaVuSans-69" x="792.488281"/>
      <use xlink:href="#DejaVuSans-64" x="820.271484"/>
      <use xlink:href="#DejaVuSans-32" x="883.748047"/>
     </g>
    </g>
    <g id="line2d_59">
     <path d="M 275.301 473.731625 
L 284.101 473.731625 
L 292.901 473.731625 
" style="fill: none; stroke: #57db94; stroke-width: 1.2; stroke-linecap: round"/>
    </g>
    <g id="text_53">
     <!-- symcc-0-exid2 -->
     <g style="fill: #262626" transform="translate(299.941 476.811625)scale(0.088 -0.088)">
      <defs>
       <path id="DejaVuSans-79" d="M 2059 -325 
Q 1816 -950 1584 -1140 
Q 1353 -1331 966 -1331 
L 506 -1331 
L 506 -850 
L 844 -850 
Q 1081 -850 1212 -737 
Q 1344 -625 1503 -206 
L 1606 56 
L 191 3500 
L 800 3500 
L 1894 763 
L 2988 3500 
L 3597 3500 
L 2059 -325 
z
" transform="scale(0.015625)"/>
       <path id="DejaVuSans-63" d="M 3122 3366 
L 3122 2828 
Q 2878 2963 2633 3030 
Q 2388 3097 2138 3097 
Q 1578 3097 1268 2742 
Q 959 2388 959 1747 
Q 959 1106 1268 751 
Q 1578 397 2138 397 
Q 2388 397 2633 464 
Q 2878 531 3122 666 
L 3122 134 
Q 2881 22 2623 -34 
Q 2366 -91 2075 -91 
Q 1284 -91 818 406 
Q 353 903 353 1747 
Q 353 2603 823 3093 
Q 1294 3584 2113 3584 
Q 2378 3584 2631 3529 
Q 2884 3475 3122 3366 
z
" transform="scale(0.015625)"/>
      </defs>
      <use xlink:href="#DejaVuSans-73"/>
      <use xlink:href="#DejaVuSans-79" x="52.099609"/>
      <use xlink:href="#DejaVuSans-6d" x="111.279297"/>
      <use xlink:href="#DejaVuSans-63" x="208.691406"/>
      <use xlink:href="#DejaVuSans-63" x="263.671875"/>
      <use xlink:href="#DejaVuSans-2d" x="318.652344"/>
      <use xlink:href="#DejaVuSans-30" x="354.736328"/>
      <use xlink:href="#DejaVuSans-2d" x="418.359375"/>
      <use xlink:href="#DejaVuSans-65" x="454.443359"/>
      <use xlink:href="#DejaVuSans-78" x="514.216797"/>
      <use xlink:href="#DejaVuSans-69" x="573.396484"/>
      <use xlink:href="#DejaVuSans-64" x="601.179688"/>
      <use xlink:href="#DejaVuSans-32" x="664.65625"/>
     </g>
    </g>
    <g id="line2d_60">
     <path d="M 275.301 486.648375 
L 284.101 486.648375 
L 292.901 486.648375 
" style="fill: none; stroke: #5784db; stroke-width: 1.2; stroke-linecap: round"/>
    </g>
    <g id="text_54">
     <!-- mopt-0-exid2 -->
     <g style="fill: #262626" transform="translate(299.941 489.728375)scale(0.088 -0.088)">
      <use xlink:href="#DejaVuSans-6d"/>
      <use xlink:href="#DejaVuSans-6f" x="97.412109"/>
      <use xlink:href="#DejaVuSans-70" x="158.59375"/>
      <use xlink:href="#DejaVuSans-74" x="222.070312"/>
      <use xlink:href="#DejaVuSans-2d" x="261.279297"/>
      <use xlink:href="#DejaVuSans-30" x="297.363281"/>
      <use xlink:href="#DejaVuSans-2d" x="360.986328"/>
      <use xlink:href="#DejaVuSans-65" x="397.070312"/>
      <use xlink:href="#DejaVuSans-78" x="456.84375"/>
      <use xlink:href="#DejaVuSans-69" x="516.023438"/>
      <use xlink:href="#DejaVuSans-64" x="543.806641"/>
      <use xlink:href="#DejaVuSans-32" x="607.283203"/>
     </g>
    </g>
    <g id="line2d_61">
     <path d="M 275.301 499.565125 
L 284.101 499.565125 
L 292.901 499.565125 
" style="fill: none; stroke: #c957db; stroke-width: 1.2; stroke-linecap: round"/>
    </g>
    <g id="text_55">
     <!-- fuzzer_global -->
     <g style="fill: #262626" transform="translate(299.941 502.645125)scale(0.088 -0.088)">
      <defs>
       <path id="DejaVuSans-5f" d="M 3263 -1063 
L 3263 -1509 
L -63 -1509 
L -63 -1063 
L 3263 -1063 
z
" transform="scale(0.015625)"/>
       <path id="DejaVuSans-62" d="M 3116 1747 
Q 3116 2381 2855 2742 
Q 2594 3103 2138 3103 
Q 1681 3103 1420 2742 
Q 1159 2381 1159 1747 
Q 1159 1113 1420 752 
Q 1681 391 2138 391 
Q 2594 391 2855 752 
Q 3116 1113 3116 1747 
z
M 1159 2969 
Q 1341 3281 1617 3432 
Q 1894 3584 2278 3584 
Q 2916 3584 3314 3078 
Q 3713 2572 3713 1747 
Q 3713 922 3314 415 
Q 2916 -91 2278 -91 
Q 1894 -91 1617 61 
Q 1341 213 1159 525 
L 1159 0 
L 581 0 
L 581 4863 
L 1159 4863 
L 1159 2969 
z
" transform="scale(0.015625)"/>
      </defs>
      <use xlink:href="#DejaVuSans-66"/>
      <use xlink:href="#DejaVuSans-75" x="35.205078"/>
      <use xlink:href="#DejaVuSans-7a" x="98.583984"/>
      <use xlink:href="#DejaVuSans-7a" x="151.074219"/>
      <use xlink:href="#DejaVuSans-65" x="203.564453"/>
      <use xlink:href="#DejaVuSans-72" x="265.087891"/>
      <use xlink:href="#DejaVuSans-5f" x="306.201172"/>
      <use xlink:href="#DejaVuSans-67" x="356.201172"/>
      <use xlink:href="#DejaVuSans-6c" x="419.677734"/>
      <use xlink:href="#DejaVuSans-6f" x="447.460938"/>
      <use xlink:href="#DejaVuSans-62" x="508.642578"/>
      <use xlink:href="#DejaVuSans-61" x="572.119141"/>
      <use xlink:href="#DejaVuSans-6c" x="633.398438"/>
     </g>
    </g>
   </g>
  </g>
 </g>
 <defs>
  <clipPath id="p25cb32033f">
   <rect x="54.3375" y="69.12" width="336.8925" height="443.52"/>
  </clipPath>
 </defs>
</svg>
