<?xml version="1.0" encoding="utf-8" standalone="no"?>
<!DOCTYPE svg PUBLIC "-//W3C//DTD SVG 1.1//EN"
  "http://www.w3.org/Graphics/SVG/1.1/DTD/svg11.dtd">
<svg xmlns:xlink="http://www.w3.org/1999/xlink" width="434.7pt" height="576pt" viewBox="0 0 434.7 576" xmlns="http://www.w3.org/2000/svg" version="1.1">
 <metadata>
  <rdf:RDF xmlns:dc="http://purl.org/dc/elements/1.1/" xmlns:cc="http://creativecommons.org/ns#" xmlns:rdf="http://www.w3.org/1999/02/22-rdf-syntax-ns#">
   <cc:Work>
    <dc:type rdf:resource="http://purl.org/dc/dcmitype/StillImage"/>
    <dc:date>2022-09-15T11:09:21.365564</dc:date>
    <dc:format>image/svg+xml</dc:format>
    <dc:creator>
     <cc:Agent>
      <dc:title>Matplotlib v3.5.3, https://matplotlib.org/</dc:title>
     </cc:Agent>
    </dc:creator>
   </cc:Work>
  </rdf:RDF>
 </metadata>
 <defs>
  <style type="text/css">*{stroke-linejoin: round; stroke-linecap: butt}</style>
 </defs>
 <g id="figure_1">
  <g id="patch_1">
   <path d="M 0 576 
L 434.7 576 
L 434.7 0 
L 0 0 
z
" style="fill: #ffffff"/>
  </g>
  <g id="axes_1">
   <g id="patch_2">
    <path d="M 54.3375 512.64 
L 391.23 512.64 
L 391.23 69.12 
L 54.3375 69.12 
z
" style="fill: #ffffff"/>
   </g>
   <g id="matplotlib.axis_1">
    <g id="xtick_1">
     <g id="line2d_1">
      <path d="M 69.650795 512.64 
L 69.650795 69.12 
" clip-path="url(#p1b166e7819)" style="fill: none; stroke: #cccccc; stroke-width: 0.8; stroke-linecap: round"/>
     </g>
     <g id="text_1">
      <!-- 0 -->
      <g style="fill: #262626" transform="translate(69.388282 529.627249)rotate(-45)scale(0.088 -0.088)">
       <defs>
        <path id="DejaVuSans-30" d="M 2034 4250 
Q 1547 4250 1301 3770 
Q 1056 3291 1056 2328 
Q 1056 1369 1301 889 
Q 1547 409 2034 409 
Q 2525 409 2770 889 
Q 3016 1369 3016 2328 
Q 3016 3291 2770 3770 
Q 2525 4250 2034 4250 
z
M 2034 4750 
Q 2819 4750 3233 4129 
Q 3647 3509 3647 2328 
Q 3647 1150 3233 529 
Q 2819 -91 2034 -91 
Q 1250 -91 836 529 
Q 422 1150 422 2328 
Q 422 3509 836 4129 
Q 1250 4750 2034 4750 
z
" transform="scale(0.015625)"/>
       </defs>
       <use xlink:href="#DejaVuSans-30"/>
      </g>
     </g>
    </g>
    <g id="xtick_2">
     <g id="line2d_2">
      <path d="M 86.677392 512.64 
L 86.677392 69.12 
" clip-path="url(#p1b166e7819)" style="fill: none; stroke: #cccccc; stroke-width: 0.8; stroke-linecap: round"/>
     </g>
     <g id="text_2">
      <!-- 80 -->
      <g style="fill: #262626" transform="translate(84.435333 533.58634)rotate(-45)scale(0.088 -0.088)">
       <defs>
        <path id="DejaVuSans-38" d="M 2034 2216 
Q 1584 2216 1326 1975 
Q 1069 1734 1069 1313 
Q 1069 891 1326 650 
Q 1584 409 2034 409 
Q 2484 409 2743 651 
Q 3003 894 3003 1313 
Q 3003 1734 2745 1975 
Q 2488 2216 2034 2216 
z
M 1403 2484 
Q 997 2584 770 2862 
Q 544 3141 544 3541 
Q 544 4100 942 4425 
Q 1341 4750 2034 4750 
Q 2731 4750 3128 4425 
Q 3525 4100 3525 3541 
Q 3525 3141 3298 2862 
Q 3072 2584 2669 2484 
Q 3125 2378 3379 2068 
Q 3634 1759 3634 1313 
Q 3634 634 3220 271 
Q 2806 -91 2034 -91 
Q 1263 -91 848 271 
Q 434 634 434 1313 
Q 434 1759 690 2068 
Q 947 2378 1403 2484 
z
M 1172 3481 
Q 1172 3119 1398 2916 
Q 1625 2713 2034 2713 
Q 2441 2713 2670 2916 
Q 2900 3119 2900 3481 
Q 2900 3844 2670 4047 
Q 2441 4250 2034 4250 
Q 1625 4250 1398 4047 
Q 1172 3844 1172 3481 
z
" transform="scale(0.015625)"/>
       </defs>
       <use xlink:href="#DejaVuSans-38"/>
       <use xlink:href="#DejaVuSans-30" x="63.623047"/>
      </g>
     </g>
    </g>
    <g id="xtick_3">
     <g id="line2d_3">
      <path d="M 103.703989 512.64 
L 103.703989 69.12 
" clip-path="url(#p1b166e7819)" style="fill: none; stroke: #cccccc; stroke-width: 0.8; stroke-linecap: round"/>
     </g>
     <g id="text_3">
      <!-- 160 -->
      <g style="fill: #262626" transform="translate(99.482385 537.54543)rotate(-45)scale(0.088 -0.088)">
       <defs>
        <path id="DejaVuSans-31" d="M 794 531 
L 1825 531 
L 1825 4091 
L 703 3866 
L 703 4441 
L 1819 4666 
L 2450 4666 
L 2450 531 
L 3481 531 
L 3481 0 
L 794 0 
L 794 531 
z
" transform="scale(0.015625)"/>
        <path id="DejaVuSans-36" d="M 2113 2584 
Q 1688 2584 1439 2293 
Q 1191 2003 1191 1497 
Q 1191 994 1439 701 
Q 1688 409 2113 409 
Q 2538 409 2786 701 
Q 3034 994 3034 1497 
Q 3034 2003 2786 2293 
Q 2538 2584 2113 2584 
z
M 3366 4563 
L 3366 3988 
Q 3128 4100 2886 4159 
Q 2644 4219 2406 4219 
Q 1781 4219 1451 3797 
Q 1122 3375 1075 2522 
Q 1259 2794 1537 2939 
Q 1816 3084 2150 3084 
Q 2853 3084 3261 2657 
Q 3669 2231 3669 1497 
Q 3669 778 3244 343 
Q 2819 -91 2113 -91 
Q 1303 -91 875 529 
Q 447 1150 447 2328 
Q 447 3434 972 4092 
Q 1497 4750 2381 4750 
Q 2619 4750 2861 4703 
Q 3103 4656 3366 4563 
z
" transform="scale(0.015625)"/>
       </defs>
       <use xlink:href="#DejaVuSans-31"/>
       <use xlink:href="#DejaVuSans-36" x="63.623047"/>
       <use xlink:href="#DejaVuSans-30" x="127.246094"/>
      </g>
     </g>
    </g>
    <g id="xtick_4">
     <g id="line2d_4">
      <path d="M 120.730586 512.64 
L 120.730586 69.12 
" clip-path="url(#p1b166e7819)" style="fill: none; stroke: #cccccc; stroke-width: 0.8; stroke-linecap: round"/>
     </g>
     <g id="text_4">
      <!-- 240 -->
      <g style="fill: #262626" transform="translate(116.508981 537.54543)rotate(-45)scale(0.088 -0.088)">
       <defs>
        <path id="DejaVuSans-32" d="M 1228 531 
L 3431 531 
L 3431 0 
L 469 0 
L 469 531 
Q 828 903 1448 1529 
Q 2069 2156 2228 2338 
Q 2531 2678 2651 2914 
Q 2772 3150 2772 3378 
Q 2772 3750 2511 3984 
Q 2250 4219 1831 4219 
Q 1534 4219 1204 4116 
Q 875 4013 500 3803 
L 500 4441 
Q 881 4594 1212 4672 
Q 1544 4750 1819 4750 
Q 2544 4750 2975 4387 
Q 3406 4025 3406 3419 
Q 3406 3131 3298 2873 
Q 3191 2616 2906 2266 
Q 2828 2175 2409 1742 
Q 1991 1309 1228 531 
z
" transform="scale(0.015625)"/>
        <path id="DejaVuSans-34" d="M 2419 4116 
L 825 1625 
L 2419 1625 
L 2419 4116 
z
M 2253 4666 
L 3047 4666 
L 3047 1625 
L 3713 1625 
L 3713 1100 
L 3047 1100 
L 3047 0 
L 2419 0 
L 2419 1100 
L 313 1100 
L 313 1709 
L 2253 4666 
z
" transform="scale(0.015625)"/>
       </defs>
       <use xlink:href="#DejaVuSans-32"/>
       <use xlink:href="#DejaVuSans-34" x="63.623047"/>
       <use xlink:href="#DejaVuSans-30" x="127.246094"/>
      </g>
     </g>
    </g>
    <g id="xtick_5">
     <g id="line2d_5">
      <path d="M 137.757182 512.64 
L 137.757182 69.12 
" clip-path="url(#p1b166e7819)" style="fill: none; stroke: #cccccc; stroke-width: 0.8; stroke-linecap: round"/>
     </g>
     <g id="text_5">
      <!-- 320 -->
      <g style="fill: #262626" transform="translate(133.535578 537.54543)rotate(-45)scale(0.088 -0.088)">
       <defs>
        <path id="DejaVuSans-33" d="M 2597 2516 
Q 3050 2419 3304 2112 
Q 3559 1806 3559 1356 
Q 3559 666 3084 287 
Q 2609 -91 1734 -91 
Q 1441 -91 1130 -33 
Q 819 25 488 141 
L 488 750 
Q 750 597 1062 519 
Q 1375 441 1716 441 
Q 2309 441 2620 675 
Q 2931 909 2931 1356 
Q 2931 1769 2642 2001 
Q 2353 2234 1838 2234 
L 1294 2234 
L 1294 2753 
L 1863 2753 
Q 2328 2753 2575 2939 
Q 2822 3125 2822 3475 
Q 2822 3834 2567 4026 
Q 2313 4219 1838 4219 
Q 1578 4219 1281 4162 
Q 984 4106 628 3988 
L 628 4550 
Q 988 4650 1302 4700 
Q 1616 4750 1894 4750 
Q 2613 4750 3031 4423 
Q 3450 4097 3450 3541 
Q 3450 3153 3228 2886 
Q 3006 2619 2597 2516 
z
" transform="scale(0.015625)"/>
       </defs>
       <use xlink:href="#DejaVuSans-33"/>
       <use xlink:href="#DejaVuSans-32" x="63.623047"/>
       <use xlink:href="#DejaVuSans-30" x="127.246094"/>
      </g>
     </g>
    </g>
    <g id="xtick_6">
     <g id="line2d_6">
      <path d="M 154.783779 512.64 
L 154.783779 69.12 
" clip-path="url(#p1b166e7819)" style="fill: none; stroke: #cccccc; stroke-width: 0.8; stroke-linecap: round"/>
     </g>
     <g id="text_6">
      <!-- 400 -->
      <g style="fill: #262626" transform="translate(150.562175 537.54543)rotate(-45)scale(0.088 -0.088)">
       <use xlink:href="#DejaVuSans-34"/>
       <use xlink:href="#DejaVuSans-30" x="63.623047"/>
       <use xlink:href="#DejaVuSans-30" x="127.246094"/>
      </g>
     </g>
    </g>
    <g id="xtick_7">
     <g id="line2d_7">
      <path d="M 171.810376 512.64 
L 171.810376 69.12 
" clip-path="url(#p1b166e7819)" style="fill: none; stroke: #cccccc; stroke-width: 0.8; stroke-linecap: round"/>
     </g>
     <g id="text_7">
      <!-- 480 -->
      <g style="fill: #262626" transform="translate(167.588772 537.54543)rotate(-45)scale(0.088 -0.088)">
       <use xlink:href="#DejaVuSans-34"/>
       <use xlink:href="#DejaVuSans-38" x="63.623047"/>
       <use xlink:href="#DejaVuSans-30" x="127.246094"/>
      </g>
     </g>
    </g>
    <g id="xtick_8">
     <g id="line2d_8">
      <path d="M 188.836973 512.64 
L 188.836973 69.12 
" clip-path="url(#p1b166e7819)" style="fill: none; stroke: #cccccc; stroke-width: 0.8; stroke-linecap: round"/>
     </g>
     <g id="text_8">
      <!-- 560 -->
      <g style="fill: #262626" transform="translate(184.615368 537.54543)rotate(-45)scale(0.088 -0.088)">
       <defs>
        <path id="DejaVuSans-35" d="M 691 4666 
L 3169 4666 
L 3169 4134 
L 1269 4134 
L 1269 2991 
Q 1406 3038 1543 3061 
Q 1681 3084 1819 3084 
Q 2600 3084 3056 2656 
Q 3513 2228 3513 1497 
Q 3513 744 3044 326 
Q 2575 -91 1722 -91 
Q 1428 -91 1123 -41 
Q 819 9 494 109 
L 494 744 
Q 775 591 1075 516 
Q 1375 441 1709 441 
Q 2250 441 2565 725 
Q 2881 1009 2881 1497 
Q 2881 1984 2565 2268 
Q 2250 2553 1709 2553 
Q 1456 2553 1204 2497 
Q 953 2441 691 2322 
L 691 4666 
z
" transform="scale(0.015625)"/>
       </defs>
       <use xlink:href="#DejaVuSans-35"/>
       <use xlink:href="#DejaVuSans-36" x="63.623047"/>
       <use xlink:href="#DejaVuSans-30" x="127.246094"/>
      </g>
     </g>
    </g>
    <g id="xtick_9">
     <g id="line2d_9">
      <path d="M 205.863569 512.64 
L 205.863569 69.12 
" clip-path="url(#p1b166e7819)" style="fill: none; stroke: #cccccc; stroke-width: 0.8; stroke-linecap: round"/>
     </g>
     <g id="text_9">
      <!-- 640 -->
      <g style="fill: #262626" transform="translate(201.641965 537.54543)rotate(-45)scale(0.088 -0.088)">
       <use xlink:href="#DejaVuSans-36"/>
       <use xlink:href="#DejaVuSans-34" x="63.623047"/>
       <use xlink:href="#DejaVuSans-30" x="127.246094"/>
      </g>
     </g>
    </g>
    <g id="xtick_10">
     <g id="line2d_10">
      <path d="M 222.890166 512.64 
L 222.890166 69.12 
" clip-path="url(#p1b166e7819)" style="fill: none; stroke: #cccccc; stroke-width: 0.8; stroke-linecap: round"/>
     </g>
     <g id="text_10">
      <!-- 720 -->
      <g style="fill: #262626" transform="translate(218.668562 537.54543)rotate(-45)scale(0.088 -0.088)">
       <defs>
        <path id="DejaVuSans-37" d="M 525 4666 
L 3525 4666 
L 3525 4397 
L 1831 0 
L 1172 0 
L 2766 4134 
L 525 4134 
L 525 4666 
z
" transform="scale(0.015625)"/>
       </defs>
       <use xlink:href="#DejaVuSans-37"/>
       <use xlink:href="#DejaVuSans-32" x="63.623047"/>
       <use xlink:href="#DejaVuSans-30" x="127.246094"/>
      </g>
     </g>
    </g>
    <g id="xtick_11">
     <g id="line2d_11">
      <path d="M 239.916763 512.64 
L 239.916763 69.12 
" clip-path="url(#p1b166e7819)" style="fill: none; stroke: #cccccc; stroke-width: 0.8; stroke-linecap: round"/>
     </g>
     <g id="text_11">
      <!-- 800 -->
      <g style="fill: #262626" transform="translate(235.695159 537.54543)rotate(-45)scale(0.088 -0.088)">
       <use xlink:href="#DejaVuSans-38"/>
       <use xlink:href="#DejaVuSans-30" x="63.623047"/>
       <use xlink:href="#DejaVuSans-30" x="127.246094"/>
      </g>
     </g>
    </g>
    <g id="xtick_12">
     <g id="line2d_12">
      <path d="M 256.94336 512.64 
L 256.94336 69.12 
" clip-path="url(#p1b166e7819)" style="fill: none; stroke: #cccccc; stroke-width: 0.8; stroke-linecap: round"/>
     </g>
     <g id="text_12">
      <!-- 880 -->
      <g style="fill: #262626" transform="translate(252.721755 537.54543)rotate(-45)scale(0.088 -0.088)">
       <use xlink:href="#DejaVuSans-38"/>
       <use xlink:href="#DejaVuSans-38" x="63.623047"/>
       <use xlink:href="#DejaVuSans-30" x="127.246094"/>
      </g>
     </g>
    </g>
    <g id="xtick_13">
     <g id="line2d_13">
      <path d="M 273.969956 512.64 
L 273.969956 69.12 
" clip-path="url(#p1b166e7819)" style="fill: none; stroke: #cccccc; stroke-width: 0.8; stroke-linecap: round"/>
     </g>
     <g id="text_13">
      <!-- 960 -->
      <g style="fill: #262626" transform="translate(269.748352 537.54543)rotate(-45)scale(0.088 -0.088)">
       <defs>
        <path id="DejaVuSans-39" d="M 703 97 
L 703 672 
Q 941 559 1184 500 
Q 1428 441 1663 441 
Q 2288 441 2617 861 
Q 2947 1281 2994 2138 
Q 2813 1869 2534 1725 
Q 2256 1581 1919 1581 
Q 1219 1581 811 2004 
Q 403 2428 403 3163 
Q 403 3881 828 4315 
Q 1253 4750 1959 4750 
Q 2769 4750 3195 4129 
Q 3622 3509 3622 2328 
Q 3622 1225 3098 567 
Q 2575 -91 1691 -91 
Q 1453 -91 1209 -44 
Q 966 3 703 97 
z
M 1959 2075 
Q 2384 2075 2632 2365 
Q 2881 2656 2881 3163 
Q 2881 3666 2632 3958 
Q 2384 4250 1959 4250 
Q 1534 4250 1286 3958 
Q 1038 3666 1038 3163 
Q 1038 2656 1286 2365 
Q 1534 2075 1959 2075 
z
" transform="scale(0.015625)"/>
       </defs>
       <use xlink:href="#DejaVuSans-39"/>
       <use xlink:href="#DejaVuSans-36" x="63.623047"/>
       <use xlink:href="#DejaVuSans-30" x="127.246094"/>
      </g>
     </g>
    </g>
    <g id="xtick_14">
     <g id="line2d_14">
      <path d="M 290.996553 512.64 
L 290.996553 69.12 
" clip-path="url(#p1b166e7819)" style="fill: none; stroke: #cccccc; stroke-width: 0.8; stroke-linecap: round"/>
     </g>
     <g id="text_14">
      <!-- 1040 -->
      <g style="fill: #262626" transform="translate(284.795404 541.504521)rotate(-45)scale(0.088 -0.088)">
       <use xlink:href="#DejaVuSans-31"/>
       <use xlink:href="#DejaVuSans-30" x="63.623047"/>
       <use xlink:href="#DejaVuSans-34" x="127.246094"/>
       <use xlink:href="#DejaVuSans-30" x="190.869141"/>
      </g>
     </g>
    </g>
    <g id="xtick_15">
     <g id="line2d_15">
      <path d="M 308.02315 512.64 
L 308.02315 69.12 
" clip-path="url(#p1b166e7819)" style="fill: none; stroke: #cccccc; stroke-width: 0.8; stroke-linecap: round"/>
     </g>
     <g id="text_15">
      <!-- 1120 -->
      <g style="fill: #262626" transform="translate(301.822 541.504521)rotate(-45)scale(0.088 -0.088)">
       <use xlink:href="#DejaVuSans-31"/>
       <use xlink:href="#DejaVuSans-31" x="63.623047"/>
       <use xlink:href="#DejaVuSans-32" x="127.246094"/>
       <use xlink:href="#DejaVuSans-30" x="190.869141"/>
      </g>
     </g>
    </g>
    <g id="xtick_16">
     <g id="line2d_16">
      <path d="M 325.049747 512.64 
L 325.049747 69.12 
" clip-path="url(#p1b166e7819)" style="fill: none; stroke: #cccccc; stroke-width: 0.8; stroke-linecap: round"/>
     </g>
     <g id="text_16">
      <!-- 1200 -->
      <g style="fill: #262626" transform="translate(318.848597 541.504521)rotate(-45)scale(0.088 -0.088)">
       <use xlink:href="#DejaVuSans-31"/>
       <use xlink:href="#DejaVuSans-32" x="63.623047"/>
       <use xlink:href="#DejaVuSans-30" x="127.246094"/>
       <use xlink:href="#DejaVuSans-30" x="190.869141"/>
      </g>
     </g>
    </g>
    <g id="xtick_17">
     <g id="line2d_17">
      <path d="M 342.076343 512.64 
L 342.076343 69.12 
" clip-path="url(#p1b166e7819)" style="fill: none; stroke: #cccccc; stroke-width: 0.8; stroke-linecap: round"/>
     </g>
     <g id="text_17">
      <!-- 1280 -->
      <g style="fill: #262626" transform="translate(335.875194 541.504521)rotate(-45)scale(0.088 -0.088)">
       <use xlink:href="#DejaVuSans-31"/>
       <use xlink:href="#DejaVuSans-32" x="63.623047"/>
       <use xlink:href="#DejaVuSans-38" x="127.246094"/>
       <use xlink:href="#DejaVuSans-30" x="190.869141"/>
      </g>
     </g>
    </g>
    <g id="xtick_18">
     <g id="line2d_18">
      <path d="M 359.10294 512.64 
L 359.10294 69.12 
" clip-path="url(#p1b166e7819)" style="fill: none; stroke: #cccccc; stroke-width: 0.8; stroke-linecap: round"/>
     </g>
     <g id="text_18">
      <!-- 1360 -->
      <g style="fill: #262626" transform="translate(352.901791 541.504521)rotate(-45)scale(0.088 -0.088)">
       <use xlink:href="#DejaVuSans-31"/>
       <use xlink:href="#DejaVuSans-33" x="63.623047"/>
       <use xlink:href="#DejaVuSans-36" x="127.246094"/>
       <use xlink:href="#DejaVuSans-30" x="190.869141"/>
      </g>
     </g>
    </g>
    <g id="xtick_19">
     <g id="line2d_19">
      <path d="M 376.129537 512.64 
L 376.129537 69.12 
" clip-path="url(#p1b166e7819)" style="fill: none; stroke: #cccccc; stroke-width: 0.8; stroke-linecap: round"/>
     </g>
     <g id="text_19">
      <!-- 1440 -->
      <g style="fill: #262626" transform="translate(369.928387 541.504521)rotate(-45)scale(0.088 -0.088)">
       <use xlink:href="#DejaVuSans-31"/>
       <use xlink:href="#DejaVuSans-34" x="63.623047"/>
       <use xlink:href="#DejaVuSans-34" x="127.246094"/>
       <use xlink:href="#DejaVuSans-30" x="190.869141"/>
      </g>
     </g>
    </g>
    <g id="text_20">
     <!-- Time (Minutes) -->
     <g style="fill: #262626" transform="translate(186.87375 554.093115)scale(0.096 -0.096)">
      <defs>
       <path id="DejaVuSans-54" d="M -19 4666 
L 3928 4666 
L 3928 4134 
L 2272 4134 
L 2272 0 
L 1638 0 
L 1638 4134 
L -19 4134 
L -19 4666 
z
" transform="scale(0.015625)"/>
       <path id="DejaVuSans-69" d="M 603 3500 
L 1178 3500 
L 1178 0 
L 603 0 
L 603 3500 
z
M 603 4863 
L 1178 4863 
L 1178 4134 
L 603 4134 
L 603 4863 
z
" transform="scale(0.015625)"/>
       <path id="DejaVuSans-6d" d="M 3328 2828 
Q 3544 3216 3844 3400 
Q 4144 3584 4550 3584 
Q 5097 3584 5394 3201 
Q 5691 2819 5691 2113 
L 5691 0 
L 5113 0 
L 5113 2094 
Q 5113 2597 4934 2840 
Q 4756 3084 4391 3084 
Q 3944 3084 3684 2787 
Q 3425 2491 3425 1978 
L 3425 0 
L 2847 0 
L 2847 2094 
Q 2847 2600 2669 2842 
Q 2491 3084 2119 3084 
Q 1678 3084 1418 2786 
Q 1159 2488 1159 1978 
L 1159 0 
L 581 0 
L 581 3500 
L 1159 3500 
L 1159 2956 
Q 1356 3278 1631 3431 
Q 1906 3584 2284 3584 
Q 2666 3584 2933 3390 
Q 3200 3197 3328 2828 
z
" transform="scale(0.015625)"/>
       <path id="DejaVuSans-65" d="M 3597 1894 
L 3597 1613 
L 953 1613 
Q 991 1019 1311 708 
Q 1631 397 2203 397 
Q 2534 397 2845 478 
Q 3156 559 3463 722 
L 3463 178 
Q 3153 47 2828 -22 
Q 2503 -91 2169 -91 
Q 1331 -91 842 396 
Q 353 884 353 1716 
Q 353 2575 817 3079 
Q 1281 3584 2069 3584 
Q 2775 3584 3186 3129 
Q 3597 2675 3597 1894 
z
M 3022 2063 
Q 3016 2534 2758 2815 
Q 2500 3097 2075 3097 
Q 1594 3097 1305 2825 
Q 1016 2553 972 2059 
L 3022 2063 
z
" transform="scale(0.015625)"/>
       <path id="DejaVuSans-20" transform="scale(0.015625)"/>
       <path id="DejaVuSans-28" d="M 1984 4856 
Q 1566 4138 1362 3434 
Q 1159 2731 1159 2009 
Q 1159 1288 1364 580 
Q 1569 -128 1984 -844 
L 1484 -844 
Q 1016 -109 783 600 
Q 550 1309 550 2009 
Q 550 2706 781 3412 
Q 1013 4119 1484 4856 
L 1984 4856 
z
" transform="scale(0.015625)"/>
       <path id="DejaVuSans-4d" d="M 628 4666 
L 1569 4666 
L 2759 1491 
L 3956 4666 
L 4897 4666 
L 4897 0 
L 4281 0 
L 4281 4097 
L 3078 897 
L 2444 897 
L 1241 4097 
L 1241 0 
L 628 0 
L 628 4666 
z
" transform="scale(0.015625)"/>
       <path id="DejaVuSans-6e" d="M 3513 2113 
L 3513 0 
L 2938 0 
L 2938 2094 
Q 2938 2591 2744 2837 
Q 2550 3084 2163 3084 
Q 1697 3084 1428 2787 
Q 1159 2491 1159 1978 
L 1159 0 
L 581 0 
L 581 3500 
L 1159 3500 
L 1159 2956 
Q 1366 3272 1645 3428 
Q 1925 3584 2291 3584 
Q 2894 3584 3203 3211 
Q 3513 2838 3513 2113 
z
" transform="scale(0.015625)"/>
       <path id="DejaVuSans-75" d="M 544 1381 
L 544 3500 
L 1119 3500 
L 1119 1403 
Q 1119 906 1312 657 
Q 1506 409 1894 409 
Q 2359 409 2629 706 
Q 2900 1003 2900 1516 
L 2900 3500 
L 3475 3500 
L 3475 0 
L 2900 0 
L 2900 538 
Q 2691 219 2414 64 
Q 2138 -91 1772 -91 
Q 1169 -91 856 284 
Q 544 659 544 1381 
z
M 1991 3584 
L 1991 3584 
z
" transform="scale(0.015625)"/>
       <path id="DejaVuSans-74" d="M 1172 4494 
L 1172 3500 
L 2356 3500 
L 2356 3053 
L 1172 3053 
L 1172 1153 
Q 1172 725 1289 603 
Q 1406 481 1766 481 
L 2356 481 
L 2356 0 
L 1766 0 
Q 1100 0 847 248 
Q 594 497 594 1153 
L 594 3053 
L 172 3053 
L 172 3500 
L 594 3500 
L 594 4494 
L 1172 4494 
z
" transform="scale(0.015625)"/>
       <path id="DejaVuSans-73" d="M 2834 3397 
L 2834 2853 
Q 2591 2978 2328 3040 
Q 2066 3103 1784 3103 
Q 1356 3103 1142 2972 
Q 928 2841 928 2578 
Q 928 2378 1081 2264 
Q 1234 2150 1697 2047 
L 1894 2003 
Q 2506 1872 2764 1633 
Q 3022 1394 3022 966 
Q 3022 478 2636 193 
Q 2250 -91 1575 -91 
Q 1294 -91 989 -36 
Q 684 19 347 128 
L 347 722 
Q 666 556 975 473 
Q 1284 391 1588 391 
Q 1994 391 2212 530 
Q 2431 669 2431 922 
Q 2431 1156 2273 1281 
Q 2116 1406 1581 1522 
L 1381 1569 
Q 847 1681 609 1914 
Q 372 2147 372 2553 
Q 372 3047 722 3315 
Q 1072 3584 1716 3584 
Q 2034 3584 2315 3537 
Q 2597 3491 2834 3397 
z
" transform="scale(0.015625)"/>
       <path id="DejaVuSans-29" d="M 513 4856 
L 1013 4856 
Q 1481 4119 1714 3412 
Q 1947 2706 1947 2009 
Q 1947 1309 1714 600 
Q 1481 -109 1013 -844 
L 513 -844 
Q 928 -128 1133 580 
Q 1338 1288 1338 2009 
Q 1338 2731 1133 3434 
Q 928 4138 513 4856 
z
" transform="scale(0.015625)"/>
      </defs>
      <use xlink:href="#DejaVuSans-54"/>
      <use xlink:href="#DejaVuSans-69" x="57.958984"/>
      <use xlink:href="#DejaVuSans-6d" x="85.742188"/>
      <use xlink:href="#DejaVuSans-65" x="183.154297"/>
      <use xlink:href="#DejaVuSans-20" x="244.677734"/>
      <use xlink:href="#DejaVuSans-28" x="276.464844"/>
      <use xlink:href="#DejaVuSans-4d" x="315.478516"/>
      <use xlink:href="#DejaVuSans-69" x="401.757812"/>
      <use xlink:href="#DejaVuSans-6e" x="429.541016"/>
      <use xlink:href="#DejaVuSans-75" x="492.919922"/>
      <use xlink:href="#DejaVuSans-74" x="556.298828"/>
      <use xlink:href="#DejaVuSans-65" x="595.507812"/>
      <use xlink:href="#DejaVuSans-73" x="657.03125"/>
      <use xlink:href="#DejaVuSans-29" x="709.130859"/>
     </g>
    </g>
   </g>
   <g id="matplotlib.axis_2">
    <g id="ytick_1">
     <g id="line2d_20">
      <path d="M 54.3375 492.48 
L 391.23 492.48 
" clip-path="url(#p1b166e7819)" style="fill: none; stroke: #cccccc; stroke-width: 0.8; stroke-linecap: round"/>
     </g>
     <g id="text_21">
      <!-- 0 -->
      <g style="fill: #262626" transform="translate(40.4385 495.823312)scale(0.088 -0.088)">
       <use xlink:href="#DejaVuSans-30"/>
      </g>
     </g>
    </g>
    <g id="ytick_2">
     <g id="line2d_21">
      <path d="M 54.3375 470.63818 
L 391.23 470.63818 
" clip-path="url(#p1b166e7819)" style="fill: none; stroke: #cccccc; stroke-width: 0.8; stroke-linecap: round"/>
     </g>
     <g id="text_22">
      <!-- 100 -->
      <g style="fill: #262626" transform="translate(29.2405 473.981492)scale(0.088 -0.088)">
       <use xlink:href="#DejaVuSans-31"/>
       <use xlink:href="#DejaVuSans-30" x="63.623047"/>
       <use xlink:href="#DejaVuSans-30" x="127.246094"/>
      </g>
     </g>
    </g>
    <g id="ytick_3">
     <g id="line2d_22">
      <path d="M 54.3375 448.79636 
L 391.23 448.79636 
" clip-path="url(#p1b166e7819)" style="fill: none; stroke: #cccccc; stroke-width: 0.8; stroke-linecap: round"/>
     </g>
     <g id="text_23">
      <!-- 200 -->
      <g style="fill: #262626" transform="translate(29.2405 452.139672)scale(0.088 -0.088)">
       <use xlink:href="#DejaVuSans-32"/>
       <use xlink:href="#DejaVuSans-30" x="63.623047"/>
       <use xlink:href="#DejaVuSans-30" x="127.246094"/>
      </g>
     </g>
    </g>
    <g id="ytick_4">
     <g id="line2d_23">
      <path d="M 54.3375 426.95454 
L 391.23 426.95454 
" clip-path="url(#p1b166e7819)" style="fill: none; stroke: #cccccc; stroke-width: 0.8; stroke-linecap: round"/>
     </g>
     <g id="text_24">
      <!-- 300 -->
      <g style="fill: #262626" transform="translate(29.2405 430.297852)scale(0.088 -0.088)">
       <use xlink:href="#DejaVuSans-33"/>
       <use xlink:href="#DejaVuSans-30" x="63.623047"/>
       <use xlink:href="#DejaVuSans-30" x="127.246094"/>
      </g>
     </g>
    </g>
    <g id="ytick_5">
     <g id="line2d_24">
      <path d="M 54.3375 405.112719 
L 391.23 405.112719 
" clip-path="url(#p1b166e7819)" style="fill: none; stroke: #cccccc; stroke-width: 0.8; stroke-linecap: round"/>
     </g>
     <g id="text_25">
      <!-- 400 -->
      <g style="fill: #262626" transform="translate(29.2405 408.456032)scale(0.088 -0.088)">
       <use xlink:href="#DejaVuSans-34"/>
       <use xlink:href="#DejaVuSans-30" x="63.623047"/>
       <use xlink:href="#DejaVuSans-30" x="127.246094"/>
      </g>
     </g>
    </g>
    <g id="ytick_6">
     <g id="line2d_25">
      <path d="M 54.3375 383.270899 
L 391.23 383.270899 
" clip-path="url(#p1b166e7819)" style="fill: none; stroke: #cccccc; stroke-width: 0.8; stroke-linecap: round"/>
     </g>
     <g id="text_26">
      <!-- 500 -->
      <g style="fill: #262626" transform="translate(29.2405 386.614212)scale(0.088 -0.088)">
       <use xlink:href="#DejaVuSans-35"/>
       <use xlink:href="#DejaVuSans-30" x="63.623047"/>
       <use xlink:href="#DejaVuSans-30" x="127.246094"/>
      </g>
     </g>
    </g>
    <g id="ytick_7">
     <g id="line2d_26">
      <path d="M 54.3375 361.429079 
L 391.23 361.429079 
" clip-path="url(#p1b166e7819)" style="fill: none; stroke: #cccccc; stroke-width: 0.8; stroke-linecap: round"/>
     </g>
     <g id="text_27">
      <!-- 600 -->
      <g style="fill: #262626" transform="translate(29.2405 364.772392)scale(0.088 -0.088)">
       <use xlink:href="#DejaVuSans-36"/>
       <use xlink:href="#DejaVuSans-30" x="63.623047"/>
       <use xlink:href="#DejaVuSans-30" x="127.246094"/>
      </g>
     </g>
    </g>
    <g id="ytick_8">
     <g id="line2d_27">
      <path d="M 54.3375 339.587259 
L 391.23 339.587259 
" clip-path="url(#p1b166e7819)" style="fill: none; stroke: #cccccc; stroke-width: 0.8; stroke-linecap: round"/>
     </g>
     <g id="text_28">
      <!-- 700 -->
      <g style="fill: #262626" transform="translate(29.2405 342.930571)scale(0.088 -0.088)">
       <use xlink:href="#DejaVuSans-37"/>
       <use xlink:href="#DejaVuSans-30" x="63.623047"/>
       <use xlink:href="#DejaVuSans-30" x="127.246094"/>
      </g>
     </g>
    </g>
    <g id="ytick_9">
     <g id="line2d_28">
      <path d="M 54.3375 317.745439 
L 391.23 317.745439 
" clip-path="url(#p1b166e7819)" style="fill: none; stroke: #cccccc; stroke-width: 0.8; stroke-linecap: round"/>
     </g>
     <g id="text_29">
      <!-- 800 -->
      <g style="fill: #262626" transform="translate(29.2405 321.088751)scale(0.088 -0.088)">
       <use xlink:href="#DejaVuSans-38"/>
       <use xlink:href="#DejaVuSans-30" x="63.623047"/>
       <use xlink:href="#DejaVuSans-30" x="127.246094"/>
      </g>
     </g>
    </g>
    <g id="ytick_10">
     <g id="line2d_29">
      <path d="M 54.3375 295.903619 
L 391.23 295.903619 
" clip-path="url(#p1b166e7819)" style="fill: none; stroke: #cccccc; stroke-width: 0.8; stroke-linecap: round"/>
     </g>
     <g id="text_30">
      <!-- 900 -->
      <g style="fill: #262626" transform="translate(29.2405 299.246931)scale(0.088 -0.088)">
       <use xlink:href="#DejaVuSans-39"/>
       <use xlink:href="#DejaVuSans-30" x="63.623047"/>
       <use xlink:href="#DejaVuSans-30" x="127.246094"/>
      </g>
     </g>
    </g>
    <g id="ytick_11">
     <g id="line2d_30">
      <path d="M 54.3375 274.061798 
L 391.23 274.061798 
" clip-path="url(#p1b166e7819)" style="fill: none; stroke: #cccccc; stroke-width: 0.8; stroke-linecap: round"/>
     </g>
     <g id="text_31">
      <!-- 1000 -->
      <g style="fill: #262626" transform="translate(23.6415 277.405111)scale(0.088 -0.088)">
       <use xlink:href="#DejaVuSans-31"/>
       <use xlink:href="#DejaVuSans-30" x="63.623047"/>
       <use xlink:href="#DejaVuSans-30" x="127.246094"/>
       <use xlink:href="#DejaVuSans-30" x="190.869141"/>
      </g>
     </g>
    </g>
    <g id="ytick_12">
     <g id="line2d_31">
      <path d="M 54.3375 252.219978 
L 391.23 252.219978 
" clip-path="url(#p1b166e7819)" style="fill: none; stroke: #cccccc; stroke-width: 0.8; stroke-linecap: round"/>
     </g>
     <g id="text_32">
      <!-- 1100 -->
      <g style="fill: #262626" transform="translate(23.6415 255.563291)scale(0.088 -0.088)">
       <use xlink:href="#DejaVuSans-31"/>
       <use xlink:href="#DejaVuSans-31" x="63.623047"/>
       <use xlink:href="#DejaVuSans-30" x="127.246094"/>
       <use xlink:href="#DejaVuSans-30" x="190.869141"/>
      </g>
     </g>
    </g>
    <g id="ytick_13">
     <g id="line2d_32">
      <path d="M 54.3375 230.378158 
L 391.23 230.378158 
" clip-path="url(#p1b166e7819)" style="fill: none; stroke: #cccccc; stroke-width: 0.8; stroke-linecap: round"/>
     </g>
     <g id="text_33">
      <!-- 1200 -->
      <g style="fill: #262626" transform="translate(23.6415 233.721471)scale(0.088 -0.088)">
       <use xlink:href="#DejaVuSans-31"/>
       <use xlink:href="#DejaVuSans-32" x="63.623047"/>
       <use xlink:href="#DejaVuSans-30" x="127.246094"/>
       <use xlink:href="#DejaVuSans-30" x="190.869141"/>
      </g>
     </g>
    </g>
    <g id="ytick_14">
     <g id="line2d_33">
      <path d="M 54.3375 208.536338 
L 391.23 208.536338 
" clip-path="url(#p1b166e7819)" style="fill: none; stroke: #cccccc; stroke-width: 0.8; stroke-linecap: round"/>
     </g>
     <g id="text_34">
      <!-- 1300 -->
      <g style="fill: #262626" transform="translate(23.6415 211.879651)scale(0.088 -0.088)">
       <use xlink:href="#DejaVuSans-31"/>
       <use xlink:href="#DejaVuSans-33" x="63.623047"/>
       <use xlink:href="#DejaVuSans-30" x="127.246094"/>
       <use xlink:href="#DejaVuSans-30" x="190.869141"/>
      </g>
     </g>
    </g>
    <g id="ytick_15">
     <g id="line2d_34">
      <path d="M 54.3375 186.694518 
L 391.23 186.694518 
" clip-path="url(#p1b166e7819)" style="fill: none; stroke: #cccccc; stroke-width: 0.8; stroke-linecap: round"/>
     </g>
     <g id="text_35">
      <!-- 1400 -->
      <g style="fill: #262626" transform="translate(23.6415 190.03783)scale(0.088 -0.088)">
       <use xlink:href="#DejaVuSans-31"/>
       <use xlink:href="#DejaVuSans-34" x="63.623047"/>
       <use xlink:href="#DejaVuSans-30" x="127.246094"/>
       <use xlink:href="#DejaVuSans-30" x="190.869141"/>
      </g>
     </g>
    </g>
    <g id="ytick_16">
     <g id="line2d_35">
      <path d="M 54.3375 164.852698 
L 391.23 164.852698 
" clip-path="url(#p1b166e7819)" style="fill: none; stroke: #cccccc; stroke-width: 0.8; stroke-linecap: round"/>
     </g>
     <g id="text_36">
      <!-- 1500 -->
      <g style="fill: #262626" transform="translate(23.6415 168.19601)scale(0.088 -0.088)">
       <use xlink:href="#DejaVuSans-31"/>
       <use xlink:href="#DejaVuSans-35" x="63.623047"/>
       <use xlink:href="#DejaVuSans-30" x="127.246094"/>
       <use xlink:href="#DejaVuSans-30" x="190.869141"/>
      </g>
     </g>
    </g>
    <g id="ytick_17">
     <g id="line2d_36">
      <path d="M 54.3375 143.010878 
L 391.23 143.010878 
" clip-path="url(#p1b166e7819)" style="fill: none; stroke: #cccccc; stroke-width: 0.8; stroke-linecap: round"/>
     </g>
     <g id="text_37">
      <!-- 1600 -->
      <g style="fill: #262626" transform="translate(23.6415 146.35419)scale(0.088 -0.088)">
       <use xlink:href="#DejaVuSans-31"/>
       <use xlink:href="#DejaVuSans-36" x="63.623047"/>
       <use xlink:href="#DejaVuSans-30" x="127.246094"/>
       <use xlink:href="#DejaVuSans-30" x="190.869141"/>
      </g>
     </g>
    </g>
    <g id="ytick_18">
     <g id="line2d_37">
      <path d="M 54.3375 121.169057 
L 391.23 121.169057 
" clip-path="url(#p1b166e7819)" style="fill: none; stroke: #cccccc; stroke-width: 0.8; stroke-linecap: round"/>
     </g>
     <g id="text_38">
      <!-- 1700 -->
      <g style="fill: #262626" transform="translate(23.6415 124.51237)scale(0.088 -0.088)">
       <use xlink:href="#DejaVuSans-31"/>
       <use xlink:href="#DejaVuSans-37" x="63.623047"/>
       <use xlink:href="#DejaVuSans-30" x="127.246094"/>
       <use xlink:href="#DejaVuSans-30" x="190.869141"/>
      </g>
     </g>
    </g>
    <g id="ytick_19">
     <g id="line2d_38">
      <path d="M 54.3375 99.327237 
L 391.23 99.327237 
" clip-path="url(#p1b166e7819)" style="fill: none; stroke: #cccccc; stroke-width: 0.8; stroke-linecap: round"/>
     </g>
     <g id="text_39">
      <!-- 1800 -->
      <g style="fill: #262626" transform="translate(23.6415 102.67055)scale(0.088 -0.088)">
       <use xlink:href="#DejaVuSans-31"/>
       <use xlink:href="#DejaVuSans-38" x="63.623047"/>
       <use xlink:href="#DejaVuSans-30" x="127.246094"/>
       <use xlink:href="#DejaVuSans-30" x="190.869141"/>
      </g>
     </g>
    </g>
    <g id="text_40">
     <!-- Edge Coverages -->
     <g style="fill: #262626" transform="translate(17.645 329.98575)rotate(-90)scale(0.096 -0.096)">
      <defs>
       <path id="DejaVuSans-45" d="M 628 4666 
L 3578 4666 
L 3578 4134 
L 1259 4134 
L 1259 2753 
L 3481 2753 
L 3481 2222 
L 1259 2222 
L 1259 531 
L 3634 531 
L 3634 0 
L 628 0 
L 628 4666 
z
" transform="scale(0.015625)"/>
       <path id="DejaVuSans-64" d="M 2906 2969 
L 2906 4863 
L 3481 4863 
L 3481 0 
L 2906 0 
L 2906 525 
Q 2725 213 2448 61 
Q 2172 -91 1784 -91 
Q 1150 -91 751 415 
Q 353 922 353 1747 
Q 353 2572 751 3078 
Q 1150 3584 1784 3584 
Q 2172 3584 2448 3432 
Q 2725 3281 2906 2969 
z
M 947 1747 
Q 947 1113 1208 752 
Q 1469 391 1925 391 
Q 2381 391 2643 752 
Q 2906 1113 2906 1747 
Q 2906 2381 2643 2742 
Q 2381 3103 1925 3103 
Q 1469 3103 1208 2742 
Q 947 2381 947 1747 
z
" transform="scale(0.015625)"/>
       <path id="DejaVuSans-67" d="M 2906 1791 
Q 2906 2416 2648 2759 
Q 2391 3103 1925 3103 
Q 1463 3103 1205 2759 
Q 947 2416 947 1791 
Q 947 1169 1205 825 
Q 1463 481 1925 481 
Q 2391 481 2648 825 
Q 2906 1169 2906 1791 
z
M 3481 434 
Q 3481 -459 3084 -895 
Q 2688 -1331 1869 -1331 
Q 1566 -1331 1297 -1286 
Q 1028 -1241 775 -1147 
L 775 -588 
Q 1028 -725 1275 -790 
Q 1522 -856 1778 -856 
Q 2344 -856 2625 -561 
Q 2906 -266 2906 331 
L 2906 616 
Q 2728 306 2450 153 
Q 2172 0 1784 0 
Q 1141 0 747 490 
Q 353 981 353 1791 
Q 353 2603 747 3093 
Q 1141 3584 1784 3584 
Q 2172 3584 2450 3431 
Q 2728 3278 2906 2969 
L 2906 3500 
L 3481 3500 
L 3481 434 
z
" transform="scale(0.015625)"/>
       <path id="DejaVuSans-43" d="M 4122 4306 
L 4122 3641 
Q 3803 3938 3442 4084 
Q 3081 4231 2675 4231 
Q 1875 4231 1450 3742 
Q 1025 3253 1025 2328 
Q 1025 1406 1450 917 
Q 1875 428 2675 428 
Q 3081 428 3442 575 
Q 3803 722 4122 1019 
L 4122 359 
Q 3791 134 3420 21 
Q 3050 -91 2638 -91 
Q 1578 -91 968 557 
Q 359 1206 359 2328 
Q 359 3453 968 4101 
Q 1578 4750 2638 4750 
Q 3056 4750 3426 4639 
Q 3797 4528 4122 4306 
z
" transform="scale(0.015625)"/>
       <path id="DejaVuSans-6f" d="M 1959 3097 
Q 1497 3097 1228 2736 
Q 959 2375 959 1747 
Q 959 1119 1226 758 
Q 1494 397 1959 397 
Q 2419 397 2687 759 
Q 2956 1122 2956 1747 
Q 2956 2369 2687 2733 
Q 2419 3097 1959 3097 
z
M 1959 3584 
Q 2709 3584 3137 3096 
Q 3566 2609 3566 1747 
Q 3566 888 3137 398 
Q 2709 -91 1959 -91 
Q 1206 -91 779 398 
Q 353 888 353 1747 
Q 353 2609 779 3096 
Q 1206 3584 1959 3584 
z
" transform="scale(0.015625)"/>
       <path id="DejaVuSans-76" d="M 191 3500 
L 800 3500 
L 1894 563 
L 2988 3500 
L 3597 3500 
L 2284 0 
L 1503 0 
L 191 3500 
z
" transform="scale(0.015625)"/>
       <path id="DejaVuSans-72" d="M 2631 2963 
Q 2534 3019 2420 3045 
Q 2306 3072 2169 3072 
Q 1681 3072 1420 2755 
Q 1159 2438 1159 1844 
L 1159 0 
L 581 0 
L 581 3500 
L 1159 3500 
L 1159 2956 
Q 1341 3275 1631 3429 
Q 1922 3584 2338 3584 
Q 2397 3584 2469 3576 
Q 2541 3569 2628 3553 
L 2631 2963 
z
" transform="scale(0.015625)"/>
       <path id="DejaVuSans-61" d="M 2194 1759 
Q 1497 1759 1228 1600 
Q 959 1441 959 1056 
Q 959 750 1161 570 
Q 1363 391 1709 391 
Q 2188 391 2477 730 
Q 2766 1069 2766 1631 
L 2766 1759 
L 2194 1759 
z
M 3341 1997 
L 3341 0 
L 2766 0 
L 2766 531 
Q 2569 213 2275 61 
Q 1981 -91 1556 -91 
Q 1019 -91 701 211 
Q 384 513 384 1019 
Q 384 1609 779 1909 
Q 1175 2209 1959 2209 
L 2766 2209 
L 2766 2266 
Q 2766 2663 2505 2880 
Q 2244 3097 1772 3097 
Q 1472 3097 1187 3025 
Q 903 2953 641 2809 
L 641 3341 
Q 956 3463 1253 3523 
Q 1550 3584 1831 3584 
Q 2591 3584 2966 3190 
Q 3341 2797 3341 1997 
z
" transform="scale(0.015625)"/>
      </defs>
      <use xlink:href="#DejaVuSans-45"/>
      <use xlink:href="#DejaVuSans-64" x="63.183594"/>
      <use xlink:href="#DejaVuSans-67" x="126.660156"/>
      <use xlink:href="#DejaVuSans-65" x="190.136719"/>
      <use xlink:href="#DejaVuSans-20" x="251.660156"/>
      <use xlink:href="#DejaVuSans-43" x="283.447266"/>
      <use xlink:href="#DejaVuSans-6f" x="353.271484"/>
      <use xlink:href="#DejaVuSans-76" x="414.453125"/>
      <use xlink:href="#DejaVuSans-65" x="473.632812"/>
      <use xlink:href="#DejaVuSans-72" x="535.15625"/>
      <use xlink:href="#DejaVuSans-61" x="576.269531"/>
      <use xlink:href="#DejaVuSans-67" x="637.548828"/>
      <use xlink:href="#DejaVuSans-65" x="701.025391"/>
      <use xlink:href="#DejaVuSans-73" x="762.548828"/>
     </g>
    </g>
   </g>
   <g id="PolyCollection_1">
    <defs>
     <path id="md9f09f2dc2" d="M 69.650795 -122.180022 
L 69.650795 -83.52 
L 69.650795 -122.180022 
L 69.650795 -122.180022 
z
" style="stroke: #db5f57; stroke-opacity: 0.2; stroke-width: 0.8"/>
    </defs>
    <g clip-path="url(#p1b166e7819)">
     <use xlink:href="#md9f09f2dc2" x="0" y="576" style="fill: #db5f57; fill-opacity: 0.2; stroke: #db5f57; stroke-opacity: 0.2; stroke-width: 0.8"/>
    </g>
   </g>
   <g id="PolyCollection_2">
    <defs>
     <path id="m59a2919bee" d="M 69.650795 -106.453911 
L 69.650795 -83.52 
L 69.650795 -106.453911 
L 69.650795 -106.453911 
z
" style="stroke: #b9db57; stroke-opacity: 0.2; stroke-width: 0.8"/>
    </defs>
    <g clip-path="url(#p1b166e7819)">
     <use xlink:href="#m59a2919bee" x="0" y="576" style="fill: #b9db57; fill-opacity: 0.2; stroke: #b9db57; stroke-opacity: 0.2; stroke-width: 0.8"/>
    </g>
   </g>
   <g id="PolyCollection_3">
    <defs>
     <path id="m1d64a4a0c7" d="M 69.650795 -107.109166 
L 69.650795 -83.52 
L 69.650795 -107.109166 
L 69.650795 -107.109166 
z
" style="stroke: #57db94; stroke-opacity: 0.2; stroke-width: 0.8"/>
    </defs>
    <g clip-path="url(#p1b166e7819)">
     <use xlink:href="#m1d64a4a0c7" x="0" y="576" style="fill: #57db94; fill-opacity: 0.2; stroke: #57db94; stroke-opacity: 0.2; stroke-width: 0.8"/>
    </g>
   </g>
   <g id="PolyCollection_4">
    <defs>
     <path id="mad9627b629" d="M 69.650795 -121.306349 
L 69.650795 -83.52 
L 69.650795 -121.306349 
L 69.650795 -121.306349 
z
" style="stroke: #5784db; stroke-opacity: 0.2; stroke-width: 0.8"/>
    </defs>
    <g clip-path="url(#p1b166e7819)">
     <use xlink:href="#mad9627b629" x="0" y="576" style="fill: #5784db; fill-opacity: 0.2; stroke: #5784db; stroke-opacity: 0.2; stroke-width: 0.8"/>
    </g>
   </g>
   <g id="PolyCollection_5">
    <defs>
     <path id="mf226ed54c4" d="M 69.650795 -130.91675 
L 69.650795 -83.52 
L 69.650795 -130.91675 
L 69.650795 -130.91675 
z
" style="stroke: #c957db; stroke-opacity: 0.2; stroke-width: 0.8"/>
    </defs>
    <g clip-path="url(#p1b166e7819)">
     <use xlink:href="#mf226ed54c4" x="0" y="576" style="fill: #c957db; fill-opacity: 0.2; stroke: #c957db; stroke-opacity: 0.2; stroke-width: 0.8"/>
    </g>
   </g>
   <g id="line2d_39">
    <path d="M 69.650795 473.149989 
L 70.714958 333.034713 
L 70.92779 327.35584 
L 71.140623 317.090184 
L 71.353455 314.469166 
L 71.566288 302.674583 
L 71.77912 298.743055 
L 71.991953 289.132654 
L 72.417617 283.672199 
L 72.63045 272.532871 
L 72.843282 270.567107 
L 73.268947 261.175125 
L 73.48178 251.346306 
L 74.120277 244.138505 
L 74.545942 242.172741 
L 75.184439 238.459632 
L 75.610104 234.746522 
L 75.822937 234.528104 
L 76.461434 229.504485 
L 76.887099 228.412394 
L 77.099932 226.883467 
L 77.312764 226.446631 
L 77.525596 223.388776 
L 77.738429 222.078267 
L 77.951261 219.457248 
L 78.164094 218.365157 
L 78.376926 216.617811 
L 78.589759 215.962557 
L 78.802591 214.870466 
L 79.228256 213.996793 
L 79.441089 212.467866 
L 79.653921 212.031029 
L 80.292418 209.846847 
L 80.505251 209.846847 
L 81.569413 205.696901 
L 81.782246 205.696901 
L 81.995078 204.386392 
L 82.207911 204.167974 
L 82.633575 203.075883 
L 82.846408 202.857465 
L 83.272073 201.765374 
L 83.697738 201.328537 
L 84.123403 201.328537 
L 84.336235 200.673283 
L 84.549068 200.454865 
L 86.038895 200.454865 
L 86.46456 199.362774 
L 86.890225 198.270683 
L 87.31589 196.523337 
L 87.741555 196.523337 
L 88.167219 194.557573 
L 88.380052 194.557573 
L 88.592884 194.339155 
L 89.018549 192.373391 
L 90.295544 189.970791 
L 90.721209 189.970791 
L 91.359706 188.223445 
L 91.572539 188.223445 
L 91.785371 188.005027 
L 91.998204 188.005027 
L 92.211036 187.131354 
L 92.423869 187.131354 
L 92.636701 186.4761 
L 92.849534 186.257681 
L 93.062366 185.820845 
L 93.700863 185.820845 
L 94.126528 185.384009 
L 94.339361 184.510336 
L 95.190691 184.510336 
L 95.616356 182.544572 
L 96.04202 182.544572 
L 96.254853 181.889317 
L 96.467685 181.670899 
L 96.680518 181.234063 
L 97.106183 181.234063 
L 97.319015 181.015645 
L 97.531848 181.015645 
L 97.74468 180.797226 
L 97.957513 180.141972 
L 98.383177 179.705135 
L 98.59601 179.268299 
L 99.021675 179.268299 
L 99.234507 179.049881 
L 99.44734 179.049881 
L 99.660172 178.831463 
L 100.085837 178.831463 
L 100.29867 178.394626 
L 100.724335 178.394626 
L 100.937167 178.176208 
L 101.575664 178.176208 
L 102.001329 177.520953 
L 102.214162 177.520953 
L 102.426994 176.865699 
L 102.852659 176.865699 
L 103.278324 176.428862 
L 103.916821 176.428862 
L 104.129654 175.992026 
L 105.193816 175.992026 
L 105.832314 175.336771 
L 109.0248 175.336771 
L 109.237633 174.899935 
L 113.707115 174.899935 
L 113.919947 174.24468 
L 139.885507 174.24468 
L 140.09834 169.657898 
L 142.652329 169.657898 
L 142.865161 169.43948 
L 143.077994 169.002644 
L 145.631983 169.002644 
L 145.844816 168.784225 
L 149.888633 168.784225 
L 150.101465 168.565807 
L 150.314298 166.818462 
L 152.442622 166.818462 
L 152.655455 166.600043 
L 158.614763 166.600043 
L 159.040428 166.163207 
L 160.955921 166.163207 
L 161.168753 165.944789 
L 166.276732 165.944789 
L 166.489564 165.507952 
L 170.959046 165.507952 
L 171.171879 165.071116 
L 171.597544 165.071116 
L 171.810376 164.852698 
L 288.229731 164.852698 
L 288.442564 159.392243 
L 288.655396 159.392243 
L 288.868229 159.173824 
L 289.081061 159.173824 
L 289.293894 158.736988 
L 301.425344 158.736988 
L 301.638176 158.300152 
L 302.915171 158.300152 
L 303.128003 158.081733 
L 303.979333 158.081733 
L 304.192166 157.863315 
L 304.404998 157.426479 
L 304.617831 157.426479 
L 304.830663 157.208061 
L 308.02315 157.208061 
L 308.448815 156.552806 
L 308.87448 156.552806 
L 309.087312 155.897551 
L 310.789972 155.897551 
L 311.002804 155.679133 
L 313.982459 155.679133 
L 314.195291 155.460715 
L 314.620956 155.460715 
L 314.833789 155.242297 
L 315.046621 155.242297 
L 315.259454 154.587042 
L 315.472286 154.587042 
L 315.685119 154.368624 
L 317.600611 154.368624 
L 317.813443 154.150206 
L 318.026276 154.150206 
L 318.451941 153.494951 
L 318.877605 153.494951 
L 319.090438 153.276533 
L 319.728935 153.276533 
L 319.941768 153.058115 
L 321.644427 153.058115 
L 321.85726 152.839697 
L 325.262579 152.839697 
L 325.475412 152.621278 
L 330.796223 152.621278 
L 331.009056 152.40286 
L 332.924548 152.40286 
L 333.13738 152.184442 
L 338.032527 152.184442 
L 338.245359 151.747606 
L 340.586516 151.747606 
L 340.799349 151.310769 
L 346.758658 151.310769 
L 346.97149 151.092351 
L 349.099815 151.092351 
L 349.312647 150.873933 
L 350.376809 150.873933 
L 350.589642 150.655515 
L 358.890108 150.655515 
L 359.10294 150.437096 
L 360.8056 150.437096 
L 361.018432 150.218678 
L 362.933925 150.218678 
L 363.146757 150.00026 
L 363.359589 150.00026 
L 363.572422 149.781842 
L 364.423752 149.781842 
L 364.636584 149.563424 
L 372.93705 149.563424 
L 373.149883 149.345005 
L 375.916705 149.345005 
L 375.916705 149.345005 
" clip-path="url(#p1b166e7819)" style="fill: none; stroke: #db5f57; stroke-width: 1.2; stroke-linecap: round"/>
   </g>
   <g id="line2d_40">
    <path d="M 69.650795 481.013044 
L 70.07646 419.746739 
L 70.289293 414.941538 
L 70.502125 414.72312 
L 70.92779 412.102102 
L 71.140623 411.010011 
L 71.353455 390.4787 
L 71.77912 286.730054 
L 71.991953 286.293218 
L 72.417617 284.982709 
L 72.63045 284.76429 
L 72.843282 253.093651 
L 73.056115 252.875233 
L 73.694612 252.875233 
L 73.907445 252.656815 
L 74.120277 227.975558 
L 74.33311 226.665049 
L 74.545942 226.446631 
L 74.758774 226.446631 
L 74.971607 225.35454 
L 75.397272 225.35454 
L 75.822937 224.480867 
L 76.035769 211.812611 
L 76.248602 211.812611 
L 76.887099 210.72052 
L 77.099932 210.72052 
L 77.312764 201.328537 
L 77.525596 201.110119 
L 77.738429 200.673283 
L 78.376926 200.673283 
L 79.015424 199.581192 
L 79.228256 199.581192 
L 79.441089 186.912936 
L 79.653921 186.912936 
L 80.292418 185.602427 
L 80.505251 185.602427 
L 80.718083 181.015645 
L 81.143748 181.015645 
L 81.356581 180.797226 
L 81.569413 180.797226 
L 81.782246 176.865699 
L 81.995078 176.210444 
L 82.633575 176.210444 
L 82.846408 175.992026 
L 83.05924 172.278917 
L 83.272073 172.060498 
L 84.123403 172.060498 
L 84.336235 171.84208 
L 84.549068 170.968407 
L 84.7619 170.968407 
L 84.974733 170.531571 
L 85.187565 170.531571 
L 85.400397 170.313153 
L 85.826062 170.313153 
L 86.038895 170.094735 
L 86.251727 169.002644 
L 86.46456 168.565807 
L 87.31589 168.565807 
L 87.528722 164.852698 
L 87.741555 164.852698 
L 88.167219 164.197443 
L 88.805717 164.197443 
L 89.018549 159.829079 
L 89.231382 159.829079 
L 89.444214 159.610661 
L 90.295544 159.610661 
L 90.508376 157.863315 
L 91.572539 157.863315 
L 91.785371 156.552806 
L 91.998204 156.552806 
L 92.211036 156.11597 
L 92.423869 156.11597 
L 92.636701 155.242297 
L 93.488031 155.242297 
L 93.700863 154.150206 
L 94.126528 154.150206 
L 94.339361 152.839697 
L 94.977858 152.839697 
L 95.190691 152.40286 
L 95.403523 152.40286 
L 95.616356 150.873933 
L 96.680518 150.873933 
L 96.89335 149.345005 
L 97.74468 149.345005 
L 97.957513 148.689751 
L 98.170345 148.689751 
L 98.383177 148.252914 
L 98.808842 148.252914 
L 99.021675 148.034496 
L 99.234507 148.034496 
L 99.44734 147.379242 
L 99.873005 147.379242 
L 100.085837 147.160823 
L 100.511502 146.505569 
L 100.724335 146.505569 
L 100.937167 146.287151 
L 101.362832 146.287151 
L 102.001329 145.19506 
L 102.214162 145.19506 
L 102.639827 144.539805 
L 103.065492 144.102969 
L 104.342486 144.102969 
L 104.555319 143.88455 
L 106.470811 143.88455 
L 106.683643 143.229296 
L 106.896476 143.229296 
L 107.322141 142.792459 
L 107.534973 142.792459 
L 107.960638 142.355623 
L 108.173471 142.355623 
L 108.386303 142.137205 
L 109.663298 142.137205 
L 110.088963 141.48195 
L 110.514628 141.045114 
L 112.855785 141.045114 
L 113.28145 140.608277 
L 115.196942 140.608277 
L 115.409774 140.171441 
L 115.622607 140.171441 
L 115.835439 139.516186 
L 116.473937 139.516186 
L 116.686769 139.297768 
L 117.325266 139.297768 
L 117.538099 138.860932 
L 122.85891 138.860932 
L 123.071743 138.424095 
L 123.71024 138.424095 
L 123.923073 138.205677 
L 126.051397 138.205677 
L 126.26423 137.768841 
L 126.689895 137.768841 
L 126.902727 137.550423 
L 127.328392 137.550423 
L 127.541224 137.332004 
L 134.564696 137.332004 
L 134.777528 137.113586 
L 135.84169 137.113586 
L 136.054523 136.67675 
L 137.118685 136.67675 
L 137.331518 136.458332 
L 137.757182 136.458332 
L 137.970015 136.239913 
L 138.182847 136.239913 
L 138.821345 135.584659 
L 139.034177 135.584659 
L 139.24701 135.366241 
L 141.375334 135.366241 
L 141.588167 135.147822 
L 142.865161 135.147822 
L 143.077994 134.929404 
L 143.503659 134.929404 
L 143.716491 134.710986 
L 144.354989 134.710986 
L 144.567821 134.492568 
L 144.993486 134.492568 
L 145.206319 134.27415 
L 145.419151 134.27415 
L 145.844816 133.837313 
L 146.908978 133.837313 
L 147.121811 133.618895 
L 150.52713 133.618895 
L 150.739962 133.400477 
L 151.591292 133.400477 
L 151.804125 133.182059 
L 152.655455 133.182059 
L 152.868287 132.96364 
L 153.932449 132.96364 
L 154.145282 132.526804 
L 159.253261 132.526804 
L 159.466093 132.308386 
L 160.104591 132.308386 
L 160.317423 131.871549 
L 165.851067 131.871549 
L 166.0639 131.653131 
L 171.171879 131.653131 
L 171.384711 131.216295 
L 172.236041 131.216295 
L 172.448873 130.997876 
L 176.705523 130.997876 
L 176.918355 130.779458 
L 177.769685 130.779458 
L 178.19535 130.342622 
L 178.621015 130.342622 
L 178.833847 130.124204 
L 179.472345 130.124204 
L 179.685177 129.687367 
L 180.323674 129.687367 
L 180.536507 129.468949 
L 181.813502 129.468949 
L 182.026334 129.250531 
L 184.154659 129.250531 
L 184.367491 129.032113 
L 192.242292 129.032113 
L 192.455125 128.813694 
L 194.157784 128.813694 
L 194.370617 128.595276 
L 194.796282 128.595276 
L 195.009114 127.721603 
L 195.221947 127.721603 
L 195.434779 127.503185 
L 204.799407 127.503185 
L 205.01224 127.284767 
L 215.44103 127.284767 
L 215.653863 127.066349 
L 218.633517 127.066349 
L 218.84635 126.847931 
L 219.910512 126.847931 
L 220.123344 126.629512 
L 224.379993 126.629512 
L 224.805658 126.192676 
L 225.656988 126.192676 
L 225.869821 125.974258 
L 228.42381 125.974258 
L 228.636643 125.75584 
L 228.849475 125.75584 
L 229.062308 125.537421 
L 231.403465 125.537421 
L 231.616297 125.319003 
L 233.318957 125.319003 
L 233.531789 125.100585 
L 235.234449 125.100585 
L 235.447281 124.882167 
L 237.788438 124.882167 
L 238.001271 124.663749 
L 239.278266 124.663749 
L 239.491098 124.44533 
L 242.896417 124.44533 
L 243.10925 124.226912 
L 248.217229 124.226912 
L 248.430061 124.008494 
L 249.494224 124.008494 
L 249.707056 123.790076 
L 251.835381 123.790076 
L 252.048213 123.571658 
L 258.220354 123.571658 
L 258.433187 123.134821 
L 262.051339 123.134821 
L 262.477004 122.697985 
L 264.179663 122.697985 
L 264.392496 122.479567 
L 266.307988 122.479567 
L 266.52082 122.261148 
L 267.159318 122.261148 
L 267.37215 122.04273 
L 268.010648 122.04273 
L 268.22348 121.824312 
L 271.841632 121.824312 
L 272.054464 121.605894 
L 272.480129 121.605894 
L 272.692962 121.169057 
L 276.523946 121.169057 
L 276.736778 120.732221 
L 278.865103 120.732221 
L 279.077936 120.513803 
L 279.716433 120.513803 
L 279.929265 120.295385 
L 285.250077 120.295385 
L 285.462909 119.64013 
L 293.976208 119.64013 
L 294.18904 119.421712 
L 300.361181 119.421712 
L 300.574014 119.203294 
L 301.638176 119.203294 
L 302.063841 118.548039 
L 306.32049 118.548039 
L 306.533323 118.329621 
L 307.810318 118.329621 
L 308.448815 117.674366 
L 308.87448 117.674366 
L 309.087312 117.23753 
L 311.002804 117.23753 
L 311.215637 117.019112 
L 316.323616 117.019112 
L 316.536448 116.582275 
L 320.1546 116.582275 
L 320.367433 115.927021 
L 323.772752 115.927021 
L 323.985584 115.708602 
L 326.752406 115.708602 
L 326.965239 115.490184 
L 327.603736 115.490184 
L 327.816569 115.271766 
L 328.242234 115.271766 
L 328.455066 115.053348 
L 331.221888 115.053348 
L 331.434721 114.83493 
L 339.096689 114.83493 
L 339.309522 114.398093 
L 341.225014 114.398093 
L 341.437846 114.179675 
L 358.464443 114.179675 
L 358.677275 113.961257 
L 359.95427 113.961257 
L 360.167103 113.742839 
L 363.146757 113.742839 
L 363.359589 113.52442 
L 364.849417 113.52442 
L 365.062249 113.306002 
L 366.764909 113.306002 
L 366.977741 113.087584 
L 367.190574 113.087584 
L 367.403406 112.869166 
L 369.106066 112.869166 
L 369.318898 112.650748 
L 372.298553 112.650748 
L 372.511385 112.432329 
L 373.149883 112.432329 
L 373.362715 112.213911 
L 375.916705 112.213911 
L 375.916705 112.213911 
" clip-path="url(#p1b166e7819)" style="fill: none; stroke: #b9db57; stroke-width: 1.2; stroke-linecap: round"/>
   </g>
   <g id="line2d_41">
    <path d="M 69.650795 480.685417 
L 70.07646 424.115103 
L 70.92779 417.999393 
L 71.140623 416.907302 
L 71.353455 400.962774 
L 71.566288 396.812828 
L 72.204785 390.697118 
L 72.417617 381.741972 
L 72.843282 262.704052 
L 73.268947 262.704052 
L 73.48178 261.611961 
L 73.694612 233.654431 
L 74.120277 233.654431 
L 74.758774 232.999177 
L 74.971607 232.999177 
L 75.184439 232.780758 
L 75.397272 219.23883 
L 75.610104 219.23883 
L 75.822937 219.020412 
L 76.248602 218.365157 
L 76.461434 218.146739 
L 76.674267 208.31792 
L 76.887099 208.31792 
L 77.312764 205.478483 
L 77.525596 201.328537 
L 77.951261 200.673283 
L 78.164094 200.454865 
L 78.376926 200.454865 
L 78.589759 200.236446 
L 78.802591 193.247064 
L 79.015424 192.810228 
L 79.228256 191.062882 
L 79.441089 190.407627 
L 79.653921 190.189209 
L 80.079586 190.189209 
L 80.292418 185.820845 
L 80.505251 185.820845 
L 80.718083 184.291918 
L 81.143748 183.855081 
L 81.569413 183.855081 
L 81.782246 183.636663 
L 81.995078 179.268299 
L 82.420743 179.268299 
L 82.633575 179.049881 
L 82.846408 179.049881 
L 83.05924 178.613044 
L 83.272073 178.613044 
L 83.484905 175.118353 
L 83.697738 174.899935 
L 86.251727 174.899935 
L 86.890225 174.24468 
L 87.103057 174.24468 
L 87.31589 174.026262 
L 87.528722 168.347389 
L 87.954387 167.692134 
L 88.167219 167.473716 
L 88.380052 167.473716 
L 88.592884 163.979025 
L 90.082712 163.979025 
L 90.295544 160.92117 
L 91.146874 160.92117 
L 91.359706 159.829079 
L 91.785371 159.829079 
L 91.998204 159.392243 
L 92.211036 159.392243 
L 92.423869 159.173824 
L 93.275198 159.173824 
L 93.488031 156.989642 
L 93.913696 156.989642 
L 94.126528 156.334388 
L 94.339361 156.334388 
L 94.552193 156.11597 
L 94.977858 156.11597 
L 95.190691 154.80546 
L 95.829188 154.80546 
L 96.254853 152.839697 
L 96.467685 152.839697 
L 96.680518 152.40286 
L 97.319015 152.40286 
L 97.531848 151.747606 
L 97.957513 151.747606 
L 98.383177 151.092351 
L 100.724335 151.092351 
L 100.937167 150.00026 
L 101.149999 150.00026 
L 101.575664 149.563424 
L 101.788497 149.563424 
L 102.001329 148.252914 
L 102.214162 148.252914 
L 102.426994 148.034496 
L 103.065492 148.034496 
L 103.278324 147.59766 
L 104.129654 147.59766 
L 104.342486 147.379242 
L 105.832314 147.379242 
L 106.045146 147.160823 
L 106.470811 147.160823 
L 106.683643 146.723987 
L 106.896476 146.723987 
L 107.109308 146.287151 
L 107.322141 146.287151 
L 107.747806 145.850314 
L 108.386303 145.850314 
L 108.599136 145.413478 
L 109.450465 145.413478 
L 109.87613 144.976641 
L 112.217287 144.976641 
L 112.43012 144.321387 
L 113.068617 144.321387 
L 113.28145 144.102969 
L 114.771277 144.102969 
L 114.984109 143.666132 
L 117.112434 143.666132 
L 117.538099 142.355623 
L 118.602261 142.355623 
L 118.815094 142.137205 
L 121.156251 142.137205 
L 121.581916 141.700368 
L 122.220413 141.700368 
L 122.433245 141.48195 
L 124.774402 141.48195 
L 125.200067 141.045114 
L 125.838565 141.045114 
L 126.051397 140.608277 
L 126.477062 140.608277 
L 126.689895 140.389859 
L 258.007522 140.389859 
L 258.220354 128.376858 
L 260.348679 128.376858 
L 260.561512 127.284767 
L 261.625674 127.284767 
L 262.051339 126.847931 
L 262.689836 126.847931 
L 262.902669 126.629512 
L 263.541166 126.629512 
L 263.753998 126.411094 
L 263.966831 126.411094 
L 264.179663 126.192676 
L 266.52082 126.192676 
L 266.733653 125.974258 
L 268.010648 125.974258 
L 268.22348 125.75584 
L 269.500475 125.75584 
L 269.713307 125.537421 
L 271.841632 125.537421 
L 272.267297 124.882167 
L 275.885449 124.882167 
L 276.098281 124.663749 
L 276.311114 124.663749 
L 276.523946 124.44533 
L 278.652271 124.44533 
L 278.865103 124.226912 
L 279.290768 124.226912 
L 279.5036 124.008494 
L 285.037244 124.008494 
L 285.250077 123.353239 
L 290.570888 123.353239 
L 290.783721 123.134821 
L 294.401873 123.134821 
L 294.614705 122.916403 
L 300.361181 122.916403 
L 300.574014 122.697985 
L 302.702339 122.697985 
L 302.915171 122.04273 
L 304.617831 122.04273 
L 304.830663 121.824312 
L 305.894825 121.824312 
L 306.107658 121.605894 
L 306.32049 121.169057 
L 308.02315 121.169057 
L 308.448815 120.513803 
L 308.661647 120.513803 
L 308.87448 120.295385 
L 309.512977 120.295385 
L 309.72581 120.076966 
L 311.002804 120.076966 
L 311.215637 119.858548 
L 315.897951 119.858548 
L 316.323616 119.203294 
L 322.921422 119.203294 
L 323.134255 118.548039 
L 325.688244 118.548039 
L 325.901077 118.329621 
L 330.157726 118.329621 
L 330.370558 117.892784 
L 330.796223 117.892784 
L 331.009056 117.674366 
L 338.883857 117.674366 
L 339.096689 117.23753 
L 339.735186 117.23753 
L 339.948019 117.019112 
L 340.799349 117.019112 
L 341.012181 116.800693 
L 355.271956 116.800693 
L 355.484788 116.582275 
L 356.336118 116.582275 
L 356.548951 116.363857 
L 357.400281 116.363857 
L 357.613113 116.145439 
L 359.741438 116.145439 
L 359.95427 115.927021 
L 367.829071 115.927021 
L 368.041904 115.271766 
L 370.808726 115.271766 
L 371.021558 115.053348 
L 372.93705 115.053348 
L 373.149883 114.83493 
L 375.916705 114.83493 
L 375.916705 114.83493 
" clip-path="url(#p1b166e7819)" style="fill: none; stroke: #57db94; stroke-width: 1.2; stroke-linecap: round"/>
   </g>
   <g id="line2d_42">
    <path d="M 69.650795 473.586826 
L 70.289293 373.878917 
L 70.714958 324.953239 
L 71.77912 280.177508 
L 71.991953 275.809144 
L 72.204785 274.280217 
L 72.417617 269.03818 
L 72.63045 260.51987 
L 73.056115 253.093651 
L 73.907445 231.033413 
L 74.120277 227.538722 
L 74.758774 224.04403 
L 74.971607 220.986176 
L 75.184439 220.986176 
L 75.610104 216.617811 
L 75.822937 215.744139 
L 76.674267 209.191593 
L 76.887099 208.536338 
L 77.312764 206.570574 
L 77.738429 201.328537 
L 77.951261 199.144355 
L 78.376926 197.178592 
L 78.802591 194.557573 
L 79.015424 194.120737 
L 79.228256 192.591809 
L 79.441089 189.970791 
L 80.292418 186.039263 
L 80.505251 185.602427 
L 81.143748 181.889317 
L 81.356581 181.670899 
L 81.569413 180.141972 
L 81.782246 180.141972 
L 81.995078 177.95779 
L 82.207911 177.95779 
L 82.420743 176.865699 
L 82.633575 176.865699 
L 82.846408 176.647281 
L 83.484905 175.55519 
L 83.91057 175.118353 
L 84.123403 175.118353 
L 84.336235 174.463099 
L 84.549068 174.24468 
L 84.7619 174.24468 
L 84.974733 173.807844 
L 85.187565 173.807844 
L 85.61323 173.371008 
L 85.826062 173.371008 
L 86.038895 173.152589 
L 86.251727 172.497335 
L 86.46456 170.968407 
L 87.31589 168.347389 
L 87.528722 168.347389 
L 87.741555 167.910553 
L 88.167219 165.726371 
L 88.380052 164.415861 
L 88.592884 164.197443 
L 88.805717 163.760607 
L 89.231382 161.794843 
L 89.657047 161.358007 
L 90.082712 160.702752 
L 90.295544 160.484334 
L 90.508376 160.484334 
L 90.721209 160.047497 
L 90.934041 158.955406 
L 91.146874 158.955406 
L 91.359706 158.736988 
L 91.572539 158.736988 
L 91.998204 158.300152 
L 92.211036 158.300152 
L 92.423869 157.644897 
L 92.636701 157.426479 
L 93.275198 155.679133 
L 93.700863 155.679133 
L 94.765026 153.713369 
L 94.977858 153.713369 
L 95.190691 153.494951 
L 95.403523 152.621278 
L 95.616356 152.621278 
L 96.254853 151.966024 
L 96.467685 151.966024 
L 96.680518 151.529187 
L 97.106183 151.529187 
L 97.319015 151.092351 
L 97.531848 151.092351 
L 97.74468 150.218678 
L 98.170345 149.781842 
L 98.383177 149.781842 
L 98.808842 149.345005 
L 99.021675 149.345005 
L 99.234507 148.908169 
L 99.44734 148.908169 
L 99.660172 148.471333 
L 99.873005 148.471333 
L 100.085837 148.252914 
L 100.724335 148.252914 
L 100.937167 148.034496 
L 101.362832 147.379242 
L 101.575664 147.160823 
L 102.001329 147.160823 
L 102.214162 146.505569 
L 102.426994 146.505569 
L 102.639827 146.287151 
L 103.065492 145.631896 
L 103.278324 145.631896 
L 103.491157 145.413478 
L 104.555319 145.413478 
L 104.980984 144.976641 
L 105.193816 144.539805 
L 105.406649 144.539805 
L 105.832314 144.102969 
L 106.683643 144.102969 
L 106.896476 143.666132 
L 107.109308 143.666132 
L 107.322141 143.447714 
L 108.386303 143.447714 
L 108.599136 143.229296 
L 109.663298 143.229296 
L 110.088963 142.792459 
L 110.514628 142.137205 
L 111.153125 142.137205 
L 111.365957 141.918787 
L 114.558444 141.918787 
L 114.771277 141.700368 
L 114.984109 141.700368 
L 115.196942 141.48195 
L 115.622607 141.48195 
L 115.835439 140.826696 
L 116.261104 140.826696 
L 116.473937 140.608277 
L 116.686769 140.608277 
L 116.899601 140.389859 
L 117.325266 140.389859 
L 117.538099 140.171441 
L 121.794748 140.171441 
L 122.220413 139.734605 
L 123.071743 139.734605 
L 123.284575 139.297768 
L 125.4129 139.297768 
L 125.625732 139.07935 
L 125.838565 139.07935 
L 126.051397 138.860932 
L 126.26423 138.860932 
L 126.477062 138.642514 
L 126.902727 138.642514 
L 127.115559 138.424095 
L 129.882381 138.424095 
L 130.095214 138.205677 
L 134.139031 138.205677 
L 134.351863 137.987259 
L 135.628858 137.987259 
L 136.054523 137.550423 
L 137.118685 137.550423 
L 137.54435 137.113586 
L 137.970015 137.113586 
L 138.608512 136.458332 
L 138.821345 136.458332 
L 139.034177 136.239913 
L 141.375334 136.239913 
L 141.588167 136.021495 
L 142.865161 136.021495 
L 143.077994 135.584659 
L 143.290826 135.584659 
L 143.716491 135.147822 
L 144.780654 135.147822 
L 144.993486 134.929404 
L 145.844816 134.929404 
L 146.057648 134.492568 
L 146.483313 134.492568 
L 146.696146 134.27415 
L 150.101465 134.27415 
L 150.314298 134.055731 
L 152.655455 134.055731 
L 152.868287 133.618895 
L 153.506784 133.618895 
L 153.719617 133.182059 
L 158.827596 133.182059 
L 159.040428 132.96364 
L 159.891758 132.96364 
L 160.317423 132.526804 
L 165.638235 132.526804 
L 165.851067 132.089967 
L 170.959046 132.089967 
L 171.171879 131.653131 
L 171.597544 131.653131 
L 171.810376 131.434713 
L 172.236041 131.434713 
L 172.448873 131.216295 
L 176.49269 131.216295 
L 176.705523 130.997876 
L 176.918355 130.997876 
L 177.131187 130.779458 
L 177.769685 130.779458 
L 178.19535 130.342622 
L 179.259512 130.342622 
L 179.685177 129.687367 
L 183.941826 129.687367 
L 184.154659 129.468949 
L 187.134313 129.468949 
L 187.347146 129.250531 
L 191.603795 129.250531 
L 191.816627 129.032113 
L 192.02946 129.032113 
L 192.242292 128.813694 
L 194.157784 128.813694 
L 194.796282 127.503185 
L 195.221947 127.503185 
L 195.434779 127.284767 
L 196.286109 127.284767 
L 196.498941 127.066349 
L 196.711774 127.066349 
L 196.924606 126.847931 
L 199.691428 126.847931 
L 199.904261 126.629512 
L 203.522412 126.629512 
L 203.735245 126.411094 
L 210.971549 126.411094 
L 211.184381 126.192676 
L 215.44103 126.192676 
L 215.653863 125.974258 
L 225.018491 125.974258 
L 225.444156 125.537421 
L 228.42381 125.537421 
L 228.636643 125.319003 
L 231.190632 125.319003 
L 231.403465 125.100585 
L 233.531789 125.100585 
L 233.744622 124.663749 
L 235.021616 124.663749 
L 235.234449 124.44533 
L 237.788438 124.44533 
L 238.001271 124.008494 
L 251.622548 124.008494 
L 251.835381 123.790076 
L 258.433187 123.790076 
L 258.646019 123.571658 
L 258.858852 123.571658 
L 259.071684 123.353239 
L 261.838506 123.353239 
L 262.051339 123.134821 
L 262.477004 123.134821 
L 262.689836 122.916403 
L 266.307988 122.916403 
L 266.52082 122.697985 
L 267.584983 122.697985 
L 267.797815 122.479567 
L 268.22348 122.479567 
L 268.436313 122.261148 
L 271.628799 122.261148 
L 272.054464 121.824312 
L 272.267297 121.387476 
L 275.885449 121.387476 
L 276.098281 121.169057 
L 278.652271 121.169057 
L 278.865103 120.950639 
L 281.419093 120.950639 
L 281.631925 120.732221 
L 293.33771 120.732221 
L 293.550543 120.513803 
L 293.976208 120.513803 
L 294.18904 120.295385 
L 300.786846 120.295385 
L 300.999679 120.076966 
L 301.638176 120.076966 
L 301.851009 119.858548 
L 302.063841 119.421712 
L 303.766501 119.421712 
L 303.979333 119.203294 
L 305.894825 119.203294 
L 306.107658 118.984875 
L 308.235982 118.984875 
L 308.448815 118.111203 
L 308.87448 118.111203 
L 309.087312 117.892784 
L 311.002804 117.892784 
L 311.215637 117.674366 
L 315.046621 117.674366 
L 315.259454 117.23753 
L 315.685119 117.23753 
L 315.897951 117.019112 
L 318.026276 117.019112 
L 318.451941 116.363857 
L 318.664773 116.363857 
L 318.877605 116.145439 
L 327.390904 116.145439 
L 327.603736 115.927021 
L 330.796223 115.927021 
L 331.009056 115.708602 
L 335.265705 115.708602 
L 335.478537 115.490184 
L 338.032527 115.490184 
L 338.458192 115.053348 
L 339.735186 115.053348 
L 339.948019 114.83493 
L 340.373684 114.83493 
L 340.586516 114.616511 
L 359.528605 114.616511 
L 359.741438 114.398093 
L 364.423752 114.398093 
L 364.636584 114.179675 
L 366.764909 114.179675 
L 366.977741 113.961257 
L 375.916705 113.961257 
L 375.916705 113.961257 
" clip-path="url(#p1b166e7819)" style="fill: none; stroke: #5784db; stroke-width: 1.2; stroke-linecap: round"/>
   </g>
   <g id="line2d_43">
    <path d="M 69.650795 468.781625 
L 69.863628 441.151723 
L 70.502125 315.779675 
L 71.353455 283.453781 
L 71.566288 269.693434 
L 72.204785 255.496251 
L 72.417617 252.656815 
L 72.63045 241.954323 
L 73.056115 235.838613 
L 73.268947 229.286067 
L 73.48178 218.801993 
L 73.907445 212.249447 
L 74.33311 207.225829 
L 74.758774 205.041647 
L 74.971607 201.983792 
L 75.184439 201.765374 
L 75.610104 197.833846 
L 75.822937 197.178592 
L 76.461434 190.626046 
L 77.312764 185.820845 
L 77.951261 179.049881 
L 79.228256 172.060498 
L 79.441089 169.876316 
L 80.292418 166.381625 
L 80.505251 166.163207 
L 80.930916 163.105352 
L 81.356581 161.794843 
L 81.995078 158.081733 
L 82.207911 158.081733 
L 82.633575 156.334388 
L 83.272073 154.587042 
L 83.484905 154.587042 
L 83.91057 154.150206 
L 84.123403 154.150206 
L 84.336235 153.494951 
L 84.549068 153.276533 
L 84.7619 153.276533 
L 84.974733 152.839697 
L 85.187565 152.839697 
L 85.61323 152.40286 
L 85.826062 152.40286 
L 86.038895 152.184442 
L 86.251727 151.310769 
L 86.46456 149.345005 
L 86.890225 148.252914 
L 87.31589 146.723987 
L 87.528722 146.505569 
L 87.741555 146.068732 
L 87.954387 144.321387 
L 88.167219 143.88455 
L 88.380052 142.574041 
L 88.592884 142.355623 
L 89.444214 139.297768 
L 90.082712 138.205677 
L 90.508376 138.205677 
L 90.721209 137.768841 
L 90.934041 136.67675 
L 91.146874 136.458332 
L 91.572539 136.458332 
L 91.785371 136.239913 
L 91.998204 135.803077 
L 92.211036 134.929404 
L 92.423869 134.710986 
L 92.636701 134.055731 
L 92.849534 133.837313 
L 93.062366 133.400477 
L 93.700863 133.400477 
L 94.765026 131.434713 
L 94.977858 131.434713 
L 95.190691 131.216295 
L 95.403523 130.124204 
L 95.616356 130.124204 
L 96.04202 129.687367 
L 96.254853 129.250531 
L 96.467685 129.250531 
L 96.680518 128.595276 
L 97.106183 128.595276 
L 97.319015 128.376858 
L 97.531848 128.376858 
L 97.74468 127.503185 
L 97.957513 127.503185 
L 98.383177 126.847931 
L 98.59601 126.629512 
L 99.021675 126.629512 
L 99.44734 125.974258 
L 99.660172 125.75584 
L 99.873005 125.75584 
L 100.085837 125.537421 
L 100.724335 125.537421 
L 101.575664 124.663749 
L 101.788497 124.008494 
L 102.001329 123.790076 
L 102.214162 123.790076 
L 102.426994 123.571658 
L 102.639827 123.571658 
L 103.065492 123.134821 
L 103.278324 123.134821 
L 103.491157 122.916403 
L 103.916821 122.916403 
L 104.129654 122.697985 
L 104.555319 122.697985 
L 104.768151 122.479567 
L 104.980984 122.479567 
L 105.193816 122.261148 
L 105.406649 122.261148 
L 106.045146 121.605894 
L 106.683643 121.605894 
L 106.896476 121.387476 
L 107.109308 121.387476 
L 107.322141 121.169057 
L 107.534973 121.169057 
L 107.747806 120.950639 
L 108.173471 120.950639 
L 108.386303 120.732221 
L 109.450465 120.732221 
L 110.514628 119.64013 
L 111.153125 119.64013 
L 111.365957 119.421712 
L 112.855785 119.421712 
L 113.28145 118.984875 
L 114.558444 118.984875 
L 114.771277 118.766457 
L 114.984109 118.766457 
L 115.196942 118.548039 
L 115.622607 118.548039 
L 115.835439 117.892784 
L 116.261104 117.892784 
L 116.473937 117.674366 
L 116.686769 117.674366 
L 116.899601 117.455948 
L 117.325266 117.455948 
L 117.538099 117.23753 
L 121.794748 117.23753 
L 122.220413 116.800693 
L 123.071743 116.800693 
L 123.284575 116.363857 
L 125.4129 116.363857 
L 125.625732 116.145439 
L 125.838565 116.145439 
L 126.051397 115.927021 
L 126.26423 115.927021 
L 126.477062 115.708602 
L 126.902727 115.708602 
L 127.115559 115.490184 
L 134.139031 115.490184 
L 134.351863 115.271766 
L 135.628858 115.271766 
L 136.054523 114.83493 
L 137.118685 114.83493 
L 137.54435 114.398093 
L 137.970015 114.398093 
L 138.608512 113.742839 
L 138.821345 113.742839 
L 139.034177 113.52442 
L 141.375334 113.52442 
L 141.588167 113.306002 
L 142.865161 113.306002 
L 143.077994 112.869166 
L 143.290826 112.869166 
L 143.716491 112.432329 
L 144.780654 112.432329 
L 144.993486 112.213911 
L 145.419151 112.213911 
L 145.844816 111.777075 
L 146.483313 111.777075 
L 146.696146 111.558657 
L 150.101465 111.558657 
L 150.314298 111.340238 
L 152.442622 111.340238 
L 152.868287 110.903402 
L 153.506784 110.903402 
L 153.719617 110.466566 
L 158.827596 110.466566 
L 159.040428 110.248147 
L 159.891758 110.248147 
L 160.317423 109.811311 
L 165.638235 109.811311 
L 165.851067 109.374475 
L 170.959046 109.374475 
L 171.171879 108.937638 
L 171.597544 108.937638 
L 171.810376 108.71922 
L 172.236041 108.71922 
L 172.448873 108.500802 
L 176.49269 108.500802 
L 176.705523 108.282384 
L 176.918355 108.282384 
L 177.131187 108.063965 
L 177.769685 108.063965 
L 178.19535 107.627129 
L 179.259512 107.627129 
L 179.685177 106.971874 
L 181.813502 106.971874 
L 182.026334 106.753456 
L 183.941826 106.753456 
L 184.154659 106.535038 
L 192.02946 106.535038 
L 192.242292 106.31662 
L 194.157784 106.31662 
L 194.796282 105.006111 
L 195.221947 105.006111 
L 195.434779 104.787692 
L 196.286109 104.787692 
L 196.498941 104.569274 
L 203.522412 104.569274 
L 203.735245 104.350856 
L 215.44103 104.350856 
L 215.653863 104.132438 
L 218.633517 104.132438 
L 218.84635 103.91402 
L 224.592826 103.91402 
L 224.805658 103.695601 
L 225.231323 103.695601 
L 225.444156 103.477183 
L 228.42381 103.477183 
L 228.636643 103.258765 
L 231.190632 103.258765 
L 231.403465 103.040347 
L 233.318957 103.040347 
L 233.744622 102.60351 
L 235.021616 102.60351 
L 235.234449 102.385092 
L 237.788438 102.385092 
L 238.001271 101.948256 
L 248.217229 101.948256 
L 248.430061 101.729837 
L 251.622548 101.729837 
L 251.835381 101.511419 
L 258.220354 101.511419 
L 258.433187 101.293001 
L 258.858852 101.293001 
L 259.071684 101.074583 
L 261.838506 101.074583 
L 262.051339 100.856165 
L 262.264171 100.856165 
L 262.477004 100.637746 
L 263.966831 100.637746 
L 264.179663 100.419328 
L 266.307988 100.419328 
L 266.52082 100.20091 
L 267.584983 100.20091 
L 267.797815 99.982492 
L 268.22348 99.982492 
L 268.436313 99.764074 
L 271.628799 99.764074 
L 272.054464 99.327237 
L 272.267297 98.890401 
L 275.885449 98.890401 
L 276.098281 98.671983 
L 276.311114 98.671983 
L 276.523946 98.453564 
L 278.652271 98.453564 
L 278.865103 98.235146 
L 281.419093 98.235146 
L 281.631925 98.016728 
L 285.037244 98.016728 
L 285.250077 97.361473 
L 293.33771 97.361473 
L 293.550543 97.143055 
L 300.361181 97.143055 
L 300.574014 96.924637 
L 301.425344 96.924637 
L 302.063841 96.269382 
L 303.766501 96.269382 
L 303.979333 96.050964 
L 306.107658 96.050964 
L 306.32049 95.832546 
L 307.810318 95.832546 
L 308.02315 95.614128 
L 308.448815 94.958873 
L 308.661647 94.958873 
L 309.087312 94.522037 
L 310.789972 94.522037 
L 311.002804 94.303619 
L 315.046621 94.303619 
L 315.259454 93.648364 
L 315.472286 93.648364 
L 315.685119 93.429946 
L 318.026276 93.429946 
L 318.451941 92.556273 
L 321.644427 92.556273 
L 321.85726 92.337855 
L 327.390904 92.337855 
L 327.603736 92.119437 
L 328.242234 92.119437 
L 328.455066 91.901018 
L 330.796223 91.901018 
L 331.009056 91.6826 
L 338.032527 91.6826 
L 338.245359 91.245764 
L 339.735186 91.245764 
L 339.948019 91.027346 
L 340.373684 91.027346 
L 340.586516 90.808927 
L 357.400281 90.808927 
L 357.613113 90.590509 
L 359.528605 90.590509 
L 359.741438 90.372091 
L 364.423752 90.372091 
L 364.636584 90.153673 
L 366.764909 90.153673 
L 366.977741 89.716836 
L 370.808726 89.716836 
L 371.021558 89.498418 
L 372.93705 89.498418 
L 373.149883 89.28 
L 375.916705 89.28 
L 375.916705 89.28 
" clip-path="url(#p1b166e7819)" style="fill: none; stroke: #c957db; stroke-width: 1.2; stroke-linecap: round"/>
   </g>
   <g id="line2d_44"/>
   <g id="line2d_45"/>
   <g id="line2d_46"/>
   <g id="line2d_47"/>
   <g id="line2d_48"/>
   <g id="patch_3">
    <path d="M 54.3375 512.64 
L 54.3375 69.12 
" style="fill: none; stroke: #cccccc; stroke-linejoin: miter; stroke-linecap: square"/>
   </g>
   <g id="patch_4">
    <path d="M 54.3375 512.64 
L 391.23 512.64 
" style="fill: none; stroke: #cccccc; stroke-linejoin: miter; stroke-linecap: square"/>
   </g>
   <g id="text_41">
    <!-- Edge Coverage History -->
    <g style="fill: #262626" transform="translate(115.892262 63.12)scale(0.165888 -0.165888)">
     <defs>
      <path id="DejaVuSans-Bold-45" d="M 588 4666 
L 3834 4666 
L 3834 3756 
L 1791 3756 
L 1791 2888 
L 3713 2888 
L 3713 1978 
L 1791 1978 
L 1791 909 
L 3903 909 
L 3903 0 
L 588 0 
L 588 4666 
z
" transform="scale(0.015625)"/>
      <path id="DejaVuSans-Bold-64" d="M 2919 2988 
L 2919 4863 
L 4044 4863 
L 4044 0 
L 2919 0 
L 2919 506 
Q 2688 197 2409 53 
Q 2131 -91 1766 -91 
Q 1119 -91 703 423 
Q 288 938 288 1747 
Q 288 2556 703 3070 
Q 1119 3584 1766 3584 
Q 2128 3584 2408 3439 
Q 2688 3294 2919 2988 
z
M 2181 722 
Q 2541 722 2730 984 
Q 2919 1247 2919 1747 
Q 2919 2247 2730 2509 
Q 2541 2772 2181 2772 
Q 1825 2772 1636 2509 
Q 1447 2247 1447 1747 
Q 1447 1247 1636 984 
Q 1825 722 2181 722 
z
" transform="scale(0.015625)"/>
      <path id="DejaVuSans-Bold-67" d="M 2919 594 
Q 2688 288 2409 144 
Q 2131 0 1766 0 
Q 1125 0 706 504 
Q 288 1009 288 1791 
Q 288 2575 706 3076 
Q 1125 3578 1766 3578 
Q 2131 3578 2409 3434 
Q 2688 3291 2919 2981 
L 2919 3500 
L 4044 3500 
L 4044 353 
Q 4044 -491 3511 -936 
Q 2978 -1381 1966 -1381 
Q 1638 -1381 1331 -1331 
Q 1025 -1281 716 -1178 
L 716 -306 
Q 1009 -475 1290 -558 
Q 1572 -641 1856 -641 
Q 2406 -641 2662 -400 
Q 2919 -159 2919 353 
L 2919 594 
z
M 2181 2772 
Q 1834 2772 1640 2515 
Q 1447 2259 1447 1791 
Q 1447 1309 1634 1061 
Q 1822 813 2181 813 
Q 2531 813 2725 1069 
Q 2919 1325 2919 1791 
Q 2919 2259 2725 2515 
Q 2531 2772 2181 2772 
z
" transform="scale(0.015625)"/>
      <path id="DejaVuSans-Bold-65" d="M 4031 1759 
L 4031 1441 
L 1416 1441 
Q 1456 1047 1700 850 
Q 1944 653 2381 653 
Q 2734 653 3104 758 
Q 3475 863 3866 1075 
L 3866 213 
Q 3469 63 3072 -14 
Q 2675 -91 2278 -91 
Q 1328 -91 801 392 
Q 275 875 275 1747 
Q 275 2603 792 3093 
Q 1309 3584 2216 3584 
Q 3041 3584 3536 3087 
Q 4031 2591 4031 1759 
z
M 2881 2131 
Q 2881 2450 2695 2645 
Q 2509 2841 2209 2841 
Q 1884 2841 1681 2658 
Q 1478 2475 1428 2131 
L 2881 2131 
z
" transform="scale(0.015625)"/>
      <path id="DejaVuSans-Bold-20" transform="scale(0.015625)"/>
      <path id="DejaVuSans-Bold-43" d="M 4288 256 
Q 3956 84 3597 -3 
Q 3238 -91 2847 -91 
Q 1681 -91 1000 561 
Q 319 1213 319 2328 
Q 319 3447 1000 4098 
Q 1681 4750 2847 4750 
Q 3238 4750 3597 4662 
Q 3956 4575 4288 4403 
L 4288 3438 
Q 3953 3666 3628 3772 
Q 3303 3878 2944 3878 
Q 2300 3878 1931 3465 
Q 1563 3053 1563 2328 
Q 1563 1606 1931 1193 
Q 2300 781 2944 781 
Q 3303 781 3628 887 
Q 3953 994 4288 1222 
L 4288 256 
z
" transform="scale(0.015625)"/>
      <path id="DejaVuSans-Bold-6f" d="M 2203 2784 
Q 1831 2784 1636 2517 
Q 1441 2250 1441 1747 
Q 1441 1244 1636 976 
Q 1831 709 2203 709 
Q 2569 709 2762 976 
Q 2956 1244 2956 1747 
Q 2956 2250 2762 2517 
Q 2569 2784 2203 2784 
z
M 2203 3584 
Q 3106 3584 3614 3096 
Q 4122 2609 4122 1747 
Q 4122 884 3614 396 
Q 3106 -91 2203 -91 
Q 1297 -91 786 396 
Q 275 884 275 1747 
Q 275 2609 786 3096 
Q 1297 3584 2203 3584 
z
" transform="scale(0.015625)"/>
      <path id="DejaVuSans-Bold-76" d="M 97 3500 
L 1216 3500 
L 2088 1081 
L 2956 3500 
L 4078 3500 
L 2700 0 
L 1472 0 
L 97 3500 
z
" transform="scale(0.015625)"/>
      <path id="DejaVuSans-Bold-72" d="M 3138 2547 
Q 2991 2616 2845 2648 
Q 2700 2681 2553 2681 
Q 2122 2681 1889 2404 
Q 1656 2128 1656 1613 
L 1656 0 
L 538 0 
L 538 3500 
L 1656 3500 
L 1656 2925 
Q 1872 3269 2151 3426 
Q 2431 3584 2822 3584 
Q 2878 3584 2943 3579 
Q 3009 3575 3134 3559 
L 3138 2547 
z
" transform="scale(0.015625)"/>
      <path id="DejaVuSans-Bold-61" d="M 2106 1575 
Q 1756 1575 1579 1456 
Q 1403 1338 1403 1106 
Q 1403 894 1545 773 
Q 1688 653 1941 653 
Q 2256 653 2472 879 
Q 2688 1106 2688 1447 
L 2688 1575 
L 2106 1575 
z
M 3816 1997 
L 3816 0 
L 2688 0 
L 2688 519 
Q 2463 200 2181 54 
Q 1900 -91 1497 -91 
Q 953 -91 614 226 
Q 275 544 275 1050 
Q 275 1666 698 1953 
Q 1122 2241 2028 2241 
L 2688 2241 
L 2688 2328 
Q 2688 2594 2478 2717 
Q 2269 2841 1825 2841 
Q 1466 2841 1156 2769 
Q 847 2697 581 2553 
L 581 3406 
Q 941 3494 1303 3539 
Q 1666 3584 2028 3584 
Q 2975 3584 3395 3211 
Q 3816 2838 3816 1997 
z
" transform="scale(0.015625)"/>
      <path id="DejaVuSans-Bold-48" d="M 588 4666 
L 1791 4666 
L 1791 2888 
L 3566 2888 
L 3566 4666 
L 4769 4666 
L 4769 0 
L 3566 0 
L 3566 1978 
L 1791 1978 
L 1791 0 
L 588 0 
L 588 4666 
z
" transform="scale(0.015625)"/>
      <path id="DejaVuSans-Bold-69" d="M 538 3500 
L 1656 3500 
L 1656 0 
L 538 0 
L 538 3500 
z
M 538 4863 
L 1656 4863 
L 1656 3950 
L 538 3950 
L 538 4863 
z
" transform="scale(0.015625)"/>
      <path id="DejaVuSans-Bold-73" d="M 3272 3391 
L 3272 2541 
Q 2913 2691 2578 2766 
Q 2244 2841 1947 2841 
Q 1628 2841 1473 2761 
Q 1319 2681 1319 2516 
Q 1319 2381 1436 2309 
Q 1553 2238 1856 2203 
L 2053 2175 
Q 2913 2066 3209 1816 
Q 3506 1566 3506 1031 
Q 3506 472 3093 190 
Q 2681 -91 1863 -91 
Q 1516 -91 1145 -36 
Q 775 19 384 128 
L 384 978 
Q 719 816 1070 734 
Q 1422 653 1784 653 
Q 2113 653 2278 743 
Q 2444 834 2444 1013 
Q 2444 1163 2330 1236 
Q 2216 1309 1875 1350 
L 1678 1375 
Q 931 1469 631 1722 
Q 331 1975 331 2491 
Q 331 3047 712 3315 
Q 1094 3584 1881 3584 
Q 2191 3584 2531 3537 
Q 2872 3491 3272 3391 
z
" transform="scale(0.015625)"/>
      <path id="DejaVuSans-Bold-74" d="M 1759 4494 
L 1759 3500 
L 2913 3500 
L 2913 2700 
L 1759 2700 
L 1759 1216 
Q 1759 972 1856 886 
Q 1953 800 2241 800 
L 2816 800 
L 2816 0 
L 1856 0 
Q 1194 0 917 276 
Q 641 553 641 1216 
L 641 2700 
L 84 2700 
L 84 3500 
L 641 3500 
L 641 4494 
L 1759 4494 
z
" transform="scale(0.015625)"/>
      <path id="DejaVuSans-Bold-79" d="M 78 3500 
L 1197 3500 
L 2138 1125 
L 2938 3500 
L 4056 3500 
L 2584 -331 
Q 2363 -916 2067 -1148 
Q 1772 -1381 1288 -1381 
L 641 -1381 
L 641 -647 
L 991 -647 
Q 1275 -647 1404 -556 
Q 1534 -466 1606 -231 
L 1638 -134 
L 78 3500 
z
" transform="scale(0.015625)"/>
     </defs>
     <use xlink:href="#DejaVuSans-Bold-45"/>
     <use xlink:href="#DejaVuSans-Bold-64" x="68.310547"/>
     <use xlink:href="#DejaVuSans-Bold-67" x="139.892578"/>
     <use xlink:href="#DejaVuSans-Bold-65" x="211.474609"/>
     <use xlink:href="#DejaVuSans-Bold-20" x="279.296875"/>
     <use xlink:href="#DejaVuSans-Bold-43" x="314.111328"/>
     <use xlink:href="#DejaVuSans-Bold-6f" x="387.5"/>
     <use xlink:href="#DejaVuSans-Bold-76" x="456.201172"/>
     <use xlink:href="#DejaVuSans-Bold-65" x="521.386719"/>
     <use xlink:href="#DejaVuSans-Bold-72" x="589.208984"/>
     <use xlink:href="#DejaVuSans-Bold-61" x="638.525391"/>
     <use xlink:href="#DejaVuSans-Bold-67" x="706.005859"/>
     <use xlink:href="#DejaVuSans-Bold-65" x="777.587891"/>
     <use xlink:href="#DejaVuSans-Bold-20" x="845.410156"/>
     <use xlink:href="#DejaVuSans-Bold-48" x="880.224609"/>
     <use xlink:href="#DejaVuSans-Bold-69" x="963.916016"/>
     <use xlink:href="#DejaVuSans-Bold-73" x="998.193359"/>
     <use xlink:href="#DejaVuSans-Bold-74" x="1057.714844"/>
     <use xlink:href="#DejaVuSans-Bold-6f" x="1105.517578"/>
     <use xlink:href="#DejaVuSans-Bold-72" x="1174.21875"/>
     <use xlink:href="#DejaVuSans-Bold-79" x="1223.535156"/>
    </g>
   </g>
   <g id="legend_1">
    <g id="patch_5">
     <path d="M 267.942 508.24 
L 385.07 508.24 
Q 386.83 508.24 386.83 506.48 
L 386.83 428.8405 
Q 386.83 427.0805 385.07 427.0805 
L 267.942 427.0805 
Q 266.182 427.0805 266.182 428.8405 
L 266.182 506.48 
Q 266.182 508.24 267.942 508.24 
z
" style="fill: #ffffff; opacity: 0.8; stroke: #cccccc; stroke-width: 0.8; stroke-linejoin: miter"/>
    </g>
    <g id="text_42">
     <!-- fuzzer -->
     <g style="fill: #262626" transform="translate(311.809 437.895)scale(0.096 -0.096)">
      <defs>
       <path id="DejaVuSans-66" d="M 2375 4863 
L 2375 4384 
L 1825 4384 
Q 1516 4384 1395 4259 
Q 1275 4134 1275 3809 
L 1275 3500 
L 2222 3500 
L 2222 3053 
L 1275 3053 
L 1275 0 
L 697 0 
L 697 3053 
L 147 3053 
L 147 3500 
L 697 3500 
L 697 3744 
Q 697 4328 969 4595 
Q 1241 4863 1831 4863 
L 2375 4863 
z
" transform="scale(0.015625)"/>
       <path id="DejaVuSans-7a" d="M 353 3500 
L 3084 3500 
L 3084 2975 
L 922 459 
L 3084 459 
L 3084 0 
L 275 0 
L 275 525 
L 2438 3041 
L 353 3041 
L 353 3500 
z
" transform="scale(0.015625)"/>
      </defs>
      <use xlink:href="#DejaVuSans-66"/>
      <use xlink:href="#DejaVuSans-75" x="35.205078"/>
      <use xlink:href="#DejaVuSans-7a" x="98.583984"/>
      <use xlink:href="#DejaVuSans-7a" x="151.074219"/>
      <use xlink:href="#DejaVuSans-65" x="203.564453"/>
      <use xlink:href="#DejaVuSans-72" x="265.087891"/>
     </g>
    </g>
    <g id="line2d_49">
     <path d="M 269.702 447.898125 
L 278.502 447.898125 
L 287.302 447.898125 
" style="fill: none; stroke: #db5f57; stroke-width: 1.2; stroke-linecap: round"/>
    </g>
    <g id="text_43">
     <!-- fairfuzz-0-exid23 -->
     <g style="fill: #262626" transform="translate(294.342 450.978125)scale(0.088 -0.088)">
      <defs>
       <path id="DejaVuSans-2d" d="M 313 2009 
L 1997 2009 
L 1997 1497 
L 313 1497 
L 313 2009 
z
" transform="scale(0.015625)"/>
       <path id="DejaVuSans-78" d="M 3513 3500 
L 2247 1797 
L 3578 0 
L 2900 0 
L 1881 1375 
L 863 0 
L 184 0 
L 1544 1831 
L 300 3500 
L 978 3500 
L 1906 2253 
L 2834 3500 
L 3513 3500 
z
" transform="scale(0.015625)"/>
      </defs>
      <use xlink:href="#DejaVuSans-66"/>
      <use xlink:href="#DejaVuSans-61" x="35.205078"/>
      <use xlink:href="#DejaVuSans-69" x="96.484375"/>
      <use xlink:href="#DejaVuSans-72" x="124.267578"/>
      <use xlink:href="#DejaVuSans-66" x="165.380859"/>
      <use xlink:href="#DejaVuSans-75" x="200.585938"/>
      <use xlink:href="#DejaVuSans-7a" x="263.964844"/>
      <use xlink:href="#DejaVuSans-7a" x="316.455078"/>
      <use xlink:href="#DejaVuSans-2d" x="368.945312"/>
      <use xlink:href="#DejaVuSans-30" x="405.029297"/>
      <use xlink:href="#DejaVuSans-2d" x="468.652344"/>
      <use xlink:href="#DejaVuSans-65" x="504.736328"/>
      <use xlink:href="#DejaVuSans-78" x="564.509766"/>
      <use xlink:href="#DejaVuSans-69" x="623.689453"/>
      <use xlink:href="#DejaVuSans-64" x="651.472656"/>
      <use xlink:href="#DejaVuSans-32" x="714.949219"/>
      <use xlink:href="#DejaVuSans-33" x="778.572266"/>
     </g>
    </g>
    <g id="line2d_50">
     <path d="M 269.702 460.814875 
L 278.502 460.814875 
L 287.302 460.814875 
" style="fill: none; stroke: #b9db57; stroke-width: 1.2; stroke-linecap: round"/>
    </g>
    <g id="text_44">
     <!-- aflplusplus-0-exid23 -->
     <g style="fill: #262626" transform="translate(294.342 463.894875)scale(0.088 -0.088)">
      <defs>
       <path id="DejaVuSans-6c" d="M 603 4863 
L 1178 4863 
L 1178 0 
L 603 0 
L 603 4863 
z
" transform="scale(0.015625)"/>
       <path id="DejaVuSans-70" d="M 1159 525 
L 1159 -1331 
L 581 -1331 
L 581 3500 
L 1159 3500 
L 1159 2969 
Q 1341 3281 1617 3432 
Q 1894 3584 2278 3584 
Q 2916 3584 3314 3078 
Q 3713 2572 3713 1747 
Q 3713 922 3314 415 
Q 2916 -91 2278 -91 
Q 1894 -91 1617 61 
Q 1341 213 1159 525 
z
M 3116 1747 
Q 3116 2381 2855 2742 
Q 2594 3103 2138 3103 
Q 1681 3103 1420 2742 
Q 1159 2381 1159 1747 
Q 1159 1113 1420 752 
Q 1681 391 2138 391 
Q 2594 391 2855 752 
Q 3116 1113 3116 1747 
z
" transform="scale(0.015625)"/>
      </defs>
      <use xlink:href="#DejaVuSans-61"/>
      <use xlink:href="#DejaVuSans-66" x="61.279297"/>
      <use xlink:href="#DejaVuSans-6c" x="96.484375"/>
      <use xlink:href="#DejaVuSans-70" x="124.267578"/>
      <use xlink:href="#DejaVuSans-6c" x="187.744141"/>
      <use xlink:href="#DejaVuSans-75" x="215.527344"/>
      <use xlink:href="#DejaVuSans-73" x="278.90625"/>
      <use xlink:href="#DejaVuSans-70" x="331.005859"/>
      <use xlink:href="#DejaVuSans-6c" x="394.482422"/>
      <use xlink:href="#DejaVuSans-75" x="422.265625"/>
      <use xlink:href="#DejaVuSans-73" x="485.644531"/>
      <use xlink:href="#DejaVuSans-2d" x="537.744141"/>
      <use xlink:href="#DejaVuSans-30" x="573.828125"/>
      <use xlink:href="#DejaVuSans-2d" x="637.451172"/>
      <use xlink:href="#DejaVuSans-65" x="673.535156"/>
      <use xlink:href="#DejaVuSans-78" x="733.308594"/>
      <use xlink:href="#DejaVuSans-69" x="792.488281"/>
      <use xlink:href="#DejaVuSans-64" x="820.271484"/>
      <use xlink:href="#DejaVuSans-32" x="883.748047"/>
      <use xlink:href="#DejaVuSans-33" x="947.371094"/>
     </g>
    </g>
    <g id="line2d_51">
     <path d="M 269.702 473.731625 
L 278.502 473.731625 
L 287.302 473.731625 
" style="fill: none; stroke: #57db94; stroke-width: 1.2; stroke-linecap: round"/>
    </g>
    <g id="text_45">
     <!-- aflfast-0-exid23 -->
     <g style="fill: #262626" transform="translate(294.342 476.811625)scale(0.088 -0.088)">
      <use xlink:href="#DejaVuSans-61"/>
      <use xlink:href="#DejaVuSans-66" x="61.279297"/>
      <use xlink:href="#DejaVuSans-6c" x="96.484375"/>
      <use xlink:href="#DejaVuSans-66" x="124.267578"/>
      <use xlink:href="#DejaVuSans-61" x="159.472656"/>
      <use xlink:href="#DejaVuSans-73" x="220.751953"/>
      <use xlink:href="#DejaVuSans-74" x="272.851562"/>
      <use xlink:href="#DejaVuSans-2d" x="312.060547"/>
      <use xlink:href="#DejaVuSans-30" x="348.144531"/>
      <use xlink:href="#DejaVuSans-2d" x="411.767578"/>
      <use xlink:href="#DejaVuSans-65" x="447.851562"/>
      <use xlink:href="#DejaVuSans-78" x="507.625"/>
      <use xlink:href="#DejaVuSans-69" x="566.804688"/>
      <use xlink:href="#DejaVuSans-64" x="594.587891"/>
      <use xlink:href="#DejaVuSans-32" x="658.064453"/>
      <use xlink:href="#DejaVuSans-33" x="721.6875"/>
     </g>
    </g>
    <g id="line2d_52">
     <path d="M 269.702 486.648375 
L 278.502 486.648375 
L 287.302 486.648375 
" style="fill: none; stroke: #5784db; stroke-width: 1.2; stroke-linecap: round"/>
    </g>
    <g id="text_46">
     <!-- afl-0-exid23 -->
     <g style="fill: #262626" transform="translate(294.342 489.728375)scale(0.088 -0.088)">
      <use xlink:href="#DejaVuSans-61"/>
      <use xlink:href="#DejaVuSans-66" x="61.279297"/>
      <use xlink:href="#DejaVuSans-6c" x="96.484375"/>
      <use xlink:href="#DejaVuSans-2d" x="124.267578"/>
      <use xlink:href="#DejaVuSans-30" x="160.351562"/>
      <use xlink:href="#DejaVuSans-2d" x="223.974609"/>
      <use xlink:href="#DejaVuSans-65" x="260.058594"/>
      <use xlink:href="#DejaVuSans-78" x="319.832031"/>
      <use xlink:href="#DejaVuSans-69" x="379.011719"/>
      <use xlink:href="#DejaVuSans-64" x="406.794922"/>
      <use xlink:href="#DejaVuSans-32" x="470.271484"/>
      <use xlink:href="#DejaVuSans-33" x="533.894531"/>
     </g>
    </g>
    <g id="line2d_53">
     <path d="M 269.702 499.565125 
L 278.502 499.565125 
L 287.302 499.565125 
" style="fill: none; stroke: #c957db; stroke-width: 1.2; stroke-linecap: round"/>
    </g>
    <g id="text_47">
     <!-- fuzzer_global -->
     <g style="fill: #262626" transform="translate(294.342 502.645125)scale(0.088 -0.088)">
      <defs>
       <path id="DejaVuSans-5f" d="M 3263 -1063 
L 3263 -1509 
L -63 -1509 
L -63 -1063 
L 3263 -1063 
z
" transform="scale(0.015625)"/>
       <path id="DejaVuSans-62" d="M 3116 1747 
Q 3116 2381 2855 2742 
Q 2594 3103 2138 3103 
Q 1681 3103 1420 2742 
Q 1159 2381 1159 1747 
Q 1159 1113 1420 752 
Q 1681 391 2138 391 
Q 2594 391 2855 752 
Q 3116 1113 3116 1747 
z
M 1159 2969 
Q 1341 3281 1617 3432 
Q 1894 3584 2278 3584 
Q 2916 3584 3314 3078 
Q 3713 2572 3713 1747 
Q 3713 922 3314 415 
Q 2916 -91 2278 -91 
Q 1894 -91 1617 61 
Q 1341 213 1159 525 
L 1159 0 
L 581 0 
L 581 4863 
L 1159 4863 
L 1159 2969 
z
" transform="scale(0.015625)"/>
      </defs>
      <use xlink:href="#DejaVuSans-66"/>
      <use xlink:href="#DejaVuSans-75" x="35.205078"/>
      <use xlink:href="#DejaVuSans-7a" x="98.583984"/>
      <use xlink:href="#DejaVuSans-7a" x="151.074219"/>
      <use xlink:href="#DejaVuSans-65" x="203.564453"/>
      <use xlink:href="#DejaVuSans-72" x="265.087891"/>
      <use xlink:href="#DejaVuSans-5f" x="306.201172"/>
      <use xlink:href="#DejaVuSans-67" x="356.201172"/>
      <use xlink:href="#DejaVuSans-6c" x="419.677734"/>
      <use xlink:href="#DejaVuSans-6f" x="447.460938"/>
      <use xlink:href="#DejaVuSans-62" x="508.642578"/>
      <use xlink:href="#DejaVuSans-61" x="572.119141"/>
      <use xlink:href="#DejaVuSans-6c" x="633.398438"/>
     </g>
    </g>
   </g>
  </g>
 </g>
 <defs>
  <clipPath id="p1b166e7819">
   <rect x="54.3375" y="69.12" width="336.8925" height="443.52"/>
  </clipPath>
 </defs>
</svg>
